  0
SECTION
  2
HEADER
  9
$ACADVER
  1
AC1027
  9
$ACADMAINTVER
 70
105
  9
$DWGCODEPAGE
  3
ANSI_1252
  9
$LASTSAVEDBY
  1
ezdxf
  9
$REQUIREDVERSIONS
160
0
  9
$INSBASE
 10
0.0
 20
0.0
 30
0.0
  9
$EXTMIN
 10
1e+20
 20
1e+20
 30
1e+20
  9
$EXTMAX
 10
-1e+20
 20
-1e+20
 30
-1e+20
  9
$LIMMIN
 10
0.0
 20
0.0
  9
$LIMMAX
 10
420.0
 20
297.0
  9
$ORTHOMODE
 70
0
  9
$REGENMODE
 70
1
  9
$FILLMODE
 70
1
  9
$QTEXTMODE
 70
0
  9
$MIRRTEXT
 70
1
  9
$LTSCALE
 40
1.0
  9
$ATTMODE
 70
1
  9
$TEXTSIZE
 40
2.5
  9
$TRACEWID
 40
1.0
  9
$TEXTSTYLE
  7
Standard
  9
$CLAYER
  8
0
  9
$CELTYPE
  6
ByLayer
  9
$CECOLOR
 62
256
  9
$CELTSCALE
 40
1.0
  9
$DISPSILH
 70
0
  9
$DIMSCALE
 40
1.0
  9
$DIMASZ
 40
2.5
  9
$DIMEXO
 40
0.625
  9
$DIMDLI
 40
3.75
  9
$DIMRND
 40
0.0
  9
$DIMDLE
 40
0.0
  9
$DIMEXE
 40
1.25
  9
$DIMTP
 40
0.0
  9
$DIMTM
 40
0.0
  9
$DIMTXT
 40
2.5
  9
$DIMCEN
 40
2.5
  9
$DIMTSZ
 40
0.0
  9
$DIMTOL
 70
0
  9
$DIMLIM
 70
0
  9
$DIMTIH
 70
0
  9
$DIMTOH
 70
0
  9
$DIMSE1
 70
0
  9
$DIMSE2
 70
0
  9
$DIMTAD
 70
1
  9
$DIMZIN
 70
8
  9
$DIMBLK
  1

  9
$DIMASO
 70
1
  9
$DIMSHO
 70
1
  9
$DIMPOST
  1

  9
$DIMAPOST
  1

  9
$DIMALT
 70
0
  9
$DIMALTD
 70
3
  9
$DIMALTF
 40
0.03937007874
  9
$DIMLFAC
 40
1.0
  9
$DIMTOFL
 70
1
  9
$DIMTVP
 40
0.0
  9
$DIMTIX
 70
0
  9
$DIMSOXD
 70
0
  9
$DIMSAH
 70
0
  9
$DIMBLK1
  1

  9
$DIMBLK2
  1

  9
$DIMSTYLE
  2
ISO-25
  9
$DIMCLRD
 70
0
  9
$DIMCLRE
 70
0
  9
$DIMCLRT
 70
0
  9
$DIMTFAC
 40
1.0
  9
$DIMGAP
 40
0.625
  9
$DIMJUST
 70
0
  9
$DIMSD1
 70
0
  9
$DIMSD2
 70
0
  9
$DIMTOLJ
 70
0
  9
$DIMTZIN
 70
8
  9
$DIMALTZ
 70
0
  9
$DIMALTTZ
 70
0
  9
$DIMUPT
 70
0
  9
$DIMDEC
 70
2
  9
$DIMTDEC
 70
2
  9
$DIMALTU
 70
2
  9
$DIMALTTD
 70
3
  9
$DIMTXSTY
  7
Standard
  9
$DIMAUNIT
 70
0
  9
$DIMADEC
 70
0
  9
$DIMALTRND
 40
0.0
  9
$DIMAZIN
 70
0
  9
$DIMDSEP
 70
44
  9
$DIMATFIT
 70
3
  9
$DIMFRAC
 70
0
  9
$DIMLDRBLK
  1

  9
$DIMLUNIT
 70
2
  9
$DIMLWD
 70
-2
  9
$DIMLWE
 70
-2
  9
$DIMTMOVE
 70
0
  9
$DIMFXL
 40
1.0
  9
$DIMFXLON
 70
0
  9
$DIMJOGANG
 40
0.785398163397
  9
$DIMTFILL
 70
0
  9
$DIMTFILLCLR
 70
0
  9
$DIMARCSYM
 70
0
  9
$DIMLTYPE
  6

  9
$DIMLTEX1
  6

  9
$DIMLTEX2
  6

  9
$DIMTXTDIRECTION
 70
0
  9
$LUNITS
 70
2
  9
$LUPREC
 70
4
  9
$SKETCHINC
 40
1.0
  9
$FILLETRAD
 40
10.0
  9
$AUNITS
 70
0
  9
$AUPREC
 70
2
  9
$MENU
  1
.
  9
$ELEVATION
 40
0.0
  9
$PELEVATION
 40
0.0
  9
$THICKNESS
 40
0.0
  9
$LIMCHECK
 70
0
  9
$CHAMFERA
 40
0.0
  9
$CHAMFERB
 40
0.0
  9
$CHAMFERC
 40
0.0
  9
$CHAMFERD
 40
0.0
  9
$SKPOLY
 70
0
  9
$TDCREATE
 40
2461315.8955439813
  9
$TDUCREATE
 40
2458532.153996898
  9
$TDUPDATE
 40
2461315.8955439813
  9
$TDUUPDATE
 40
2458532.1544311
  9
$TDINDWG
 40
0.0
  9
$TDUSRTIMER
 40
0.0
  9
$USRTIMER
 70
1
  9
$ANGBASE
 50
0.0
  9
$ANGDIR
 70
0
  9
$PDMODE
 70
0
  9
$PDSIZE
 40
0.0
  9
$PLINEWID
 40
0.0
  9
$SPLFRAME
 70
0
  9
$SPLINETYPE
 70
6
  9
$SPLINESEGS
 70
8
  9
$HANDSEED
  5
263
  9
$SURFTAB1
 70
6
  9
$SURFTAB2
 70
6
  9
$SURFTYPE
 70
6
  9
$SURFU
 70
6
  9
$SURFV
 70
6
  9
$UCSBASE
  2

  9
$UCSNAME
  2

  9
$UCSORG
 10
0.0
 20
0.0
 30
0.0
  9
$UCSXDIR
 10
1.0
 20
0.0
 30
0.0
  9
$UCSYDIR
 10
0.0
 20
1.0
 30
0.0
  9
$UCSORTHOREF
  2

  9
$UCSORTHOVIEW
 70
0
  9
$UCSORGTOP
 10
0.0
 20
0.0
 30
0.0
  9
$UCSORGBOTTOM
 10
0.0
 20
0.0
 30
0.0
  9
$UCSORGLEFT
 10
0.0
 20
0.0
 30
0.0
  9
$UCSORGRIGHT
 10
0.0
 20
0.0
 30
0.0
  9
$UCSORGFRONT
 10
0.0
 20
0.0
 30
0.0
  9
$UCSORGBACK
 10
0.0
 20
0.0
 30
0.0
  9
$PUCSBASE
  2

  9
$PUCSNAME
  2

  9
$PUCSORG
 10
0.0
 20
0.0
 30
0.0
  9
$PUCSXDIR
 10
1.0
 20
0.0
 30
0.0
  9
$PUCSYDIR
 10
0.0
 20
1.0
 30
0.0
  9
$PUCSORTHOREF
  2

  9
$PUCSORTHOVIEW
 70
0
  9
$PUCSORGTOP
 10
0.0
 20
0.0
 30
0.0
  9
$PUCSORGBOTTOM
 10
0.0
 20
0.0
 30
0.0
  9
$PUCSORGLEFT
 10
0.0
 20
0.0
 30
0.0
  9
$PUCSORGRIGHT
 10
0.0
 20
0.0
 30
0.0
  9
$PUCSORGFRONT
 10
0.0
 20
0.0
 30
0.0
  9
$PUCSORGBACK
 10
0.0
 20
0.0
 30
0.0
  9
$USERI1
 70
0
  9
$USERI2
 70
0
  9
$USERI3
 70
0
  9
$USERI4
 70
0
  9
$USERI5
 70
0
  9
$USERR1
 40
0.0
  9
$USERR2
 40
0.0
  9
$USERR3
 40
0.0
  9
$USERR4
 40
0.0
  9
$USERR5
 40
0.0
  9
$WORLDVIEW
 70
1
  9
$SHADEDGE
 70
3
  9
$SHADEDIF
 70
70
  9
$TILEMODE
 70
1
  9
$MAXACTVP
 70
64
  9
$PINSBASE
 10
0.0
 20
0.0
 30
0.0
  9
$PLIMCHECK
 70
0
  9
$PEXTMIN
 10
1e+20
 20
1e+20
 30
1e+20
  9
$PEXTMAX
 10
-1e+20
 20
-1e+20
 30
-1e+20
  9
$PLIMMIN
 10
0.0
 20
0.0
  9
$PLIMMAX
 10
420.0
 20
297.0
  9
$UNITMODE
 70
0
  9
$VISRETAIN
 70
1
  9
$PLINEGEN
 70
0
  9
$PSLTSCALE
 70
1
  9
$TREEDEPTH
 70
3020
  9
$CMLSTYLE
  2
Standard
  9
$CMLJUST
 70
0
  9
$CMLSCALE
 40
20.0
  9
$PROXYGRAPHICS
 70
1
  9
$MEASUREMENT
 70
1
  9
$CELWEIGHT
370
-1
  9
$ENDCAPS
280
0
  9
$JOINSTYLE
280
0
  9
$LWDISPLAY
290
0
  9
$INSUNITS
 70
4
  9
$HYPERLINKBASE
  1

  9
$STYLESHEET
  1

  9
$XEDIT
290
1
  9
$CEPSNTYPE
380
0
  9
$PSTYLEMODE
290
1
  9
$FINGERPRINTGUID
  2
{635E6377-F1EF-46E1-A30D-6AA9D7B86C4F}
  9
$VERSIONGUID
  2
{A7A49308-B19A-4E19-BDA7-CD35A9605F7E}
  9
$EXTNAMES
290
1
  9
$PSVPSCALE
 40
0.0
  9
$OLESTARTUP
290
0
  9
$SORTENTS
280
127
  9
$INDEXCTL
280
0
  9
$HIDETEXT
280
1
  9
$XCLIPFRAME
280
1
  9
$HALOGAP
280
0
  9
$OBSCOLOR
 70
257
  9
$OBSLTYPE
280
0
  9
$INTERSECTIONDISPLAY
280
0
  9
$INTERSECTIONCOLOR
 70
257
  9
$DIMASSOC
280
2
  9
$PROJECTNAME
  1

  9
$CAMERADISPLAY
290
0
  9
$LENSLENGTH
 40
50.0
  9
$CAMERAHEIGHT
 40
0.0
  9
$STEPSPERSEC
 40
24.0
  9
$STEPSIZE
 40
100.0
  9
$3DDWFPREC
 40
2.0
  9
$PSOLWIDTH
 40
0.005
  9
$PSOLHEIGHT
 40
0.08
  9
$LOFTANG1
 40
1.570796326795
  9
$LOFTANG2
 40
1.570796326795
  9
$LOFTMAG1
 40
0.0
  9
$LOFTMAG2
 40
0.0
  9
$LOFTPARAM
 70
7
  9
$LOFTNORMALS
280
1
  9
$LATITUDE
 40
37.795
  9
$LONGITUDE
 40
-122.394
  9
$NORTHDIRECTION
 40
0.0
  9
$TIMEZONE
 70
-8000
  9
$LIGHTGLYPHDISPLAY
280
1
  9
$TILEMODELIGHTSYNCH
280
1
  9
$CMATERIAL
347
20
  9
$SOLIDHIST
280
0
  9
$SHOWHIST
280
1
  9
$DWFFRAME
280
2
  9
$DGNFRAME
280
2
  9
$REALWORLDSCALE
290
1
  9
$INTERFERECOLOR
 62
256
  9
$CSHADOW
280
0
  9
$SHADOWPLANELOCATION
 40
0.0
  0
ENDSEC
  0
SECTION
  2
CLASSES
  0
CLASS
  1
ACDBDICTIONARYWDFLT
  2
AcDbDictionaryWithDefault
  3
ObjectDBX Classes
 90
0
 91
0
280
0
281
0
  0
CLASS
  1
SUN
  2
AcDbSun
  3
SCENEOE
 90
1153
 91
0
280
0
281
0
  0
CLASS
  1
VISUALSTYLE
  2
AcDbVisualStyle
  3
ObjectDBX Classes
 90
4095
 91
0
280
0
281
0
  0
CLASS
  1
MATERIAL
  2
AcDbMaterial
  3
ObjectDBX Classes
 90
1153
 91
0
280
0
281
0
  0
CLASS
  1
SCALE
  2
AcDbScale
  3
ObjectDBX Classes
 90
1153
 91
0
280
0
281
0
  0
CLASS
  1
TABLESTYLE
  2
AcDbTableStyle
  3
ObjectDBX Classes
 90
4095
 91
0
280
0
281
0
  0
CLASS
  1
MLEADERSTYLE
  2
AcDbMLeaderStyle
  3
ACDB_MLEADERSTYLE_CLASS
 90
4095
 91
0
280
0
281
0
  0
CLASS
  1
DICTIONARYVAR
  2
AcDbDictionaryVar
  3
ObjectDBX Classes
 90
0
 91
0
280
0
281
0
  0
CLASS
  1
CELLSTYLEMAP
  2
AcDbCellStyleMap
  3
ObjectDBX Classes
 90
1152
 91
0
280
0
281
0
  0
CLASS
  1
MENTALRAYRENDERSETTINGS
  2
AcDbMentalRayRenderSettings
  3
SCENEOE
 90
1024
 91
0
280
0
281
0
  0
CLASS
  1
ACDBDETAILVIEWSTYLE
  2
AcDbDetailViewStyle
  3
ObjectDBX Classes
 90
1025
 91
0
280
0
281
0
  0
CLASS
  1
ACDBSECTIONVIEWSTYLE
  2
AcDbSectionViewStyle
  3
ObjectDBX Classes
 90
1025
 91
0
280
0
281
0
  0
CLASS
  1
RASTERVARIABLES
  2
AcDbRasterVariables
  3
ISM
 90
0
 91
0
280
0
281
0
  0
CLASS
  1
LAYOUT
  2
AcDbLayout
  3
ObjectDBX Classes
 90
0
 91
0
280
0
281
0
  0
CLASS
  1
ACDBPLACEHOLDER
  2
AcDbPlaceHolder
  3
ObjectDBX Classes
 90
0
 91
0
280
0
281
0
  0
ENDSEC
  0
SECTION
  2
TABLES
  0
TABLE
  2
VPORT
  5
8
330
0
100
AcDbSymbolTable
 70
1
  0
VPORT
  5
25F
330
8
100
AcDbSymbolTableRecord
100
AcDbViewportTableRecord
  2
*Active
 70
0
 10
0.0
 20
0.0
 11
1.0
 21
1.0
 12
-0.010565348674738573
 22
-0.0001730458669157997
 13
0.0
 23
0.0
 14
0.5
 24
0.5
 15
0.5
 25
0.5
 16
0.0
 26
0.0
 36
1.0
 17
0.0
 27
0.0
 37
0.0
 40
137.55834205427908
 41
1.34
 42
50.0
 43
0.0
 44
0.0
 50
0.0
 51
0.0
 71
0
 72
1000
 73
1
 74
3
 75
0
 76
0
 77
0
 78
0
281
0
 65
1
110
0.0
120
0.0
130
0.0
111
1.0
121
0.0
131
0.0
112
0.0
122
1.0
132
0.0
 79
0
146
0.0
  0
ENDTAB
  0
TABLE
  2
LTYPE
  5
2
330
0
100
AcDbSymbolTable
 70
3
  0
LTYPE
  5
24
330
2
100
AcDbSymbolTableRecord
100
AcDbLinetypeTableRecord
  2
ByBlock
 70
0
  3

 72
65
 73
0
 40
0.0
  0
LTYPE
  5
25
330
2
100
AcDbSymbolTableRecord
100
AcDbLinetypeTableRecord
  2
ByLayer
 70
0
  3

 72
65
 73
0
 40
0.0
  0
LTYPE
  5
26
330
2
100
AcDbSymbolTableRecord
100
AcDbLinetypeTableRecord
  2
Continuous
 70
0
  3

 72
65
 73
0
 40
0.0
  0
ENDTAB
  0
TABLE
  2
LAYER
  5
1
330
0
100
AcDbSymbolTable
 70
3
  0
LAYER
  5
27
330
1
100
AcDbSymbolTableRecord
100
AcDbLayerTableRecord
  2
0
 70
0
 62
7
  6
Continuous
370
-3
390
13
347
21
  0
LAYER
  5
28
330
1
100
AcDbSymbolTableRecord
100
AcDbLayerTableRecord
  2
Defpoints
 70
0
 62
7
  6
Continuous
290
0
370
-3
390
13
347
21
  0
LAYER
  5
2F
330
1
100
AcDbSymbolTableRecord
100
AcDbLayerTableRecord
  2
visible
 70
0
 62
7
  6
Continuous
370
-3
390
13
347
21
  0
ENDTAB
  0
TABLE
  2
STYLE
  5
5
330
0
100
AcDbSymbolTable
 70
1
  0
STYLE
  5
29
330
5
100
AcDbSymbolTableRecord
100
AcDbTextStyleTableRecord
  2
Standard
 70
0
 40
0.0
 41
1.0
 50
0.0
 71
0
 42
2.5
  3
txt
  4

  0
ENDTAB
  0
TABLE
  2
VIEW
  5
7
330
0
100
AcDbSymbolTable
 70
0
  0
ENDTAB
  0
TABLE
  2
UCS
  5
6
330
0
100
AcDbSymbolTable
 70
0
  0
ENDTAB
  0
TABLE
  2
APPID
  5
3
330
0
100
AcDbSymbolTable
 70
3
  0
APPID
  5
2A
330
3
100
AcDbSymbolTableRecord
100
AcDbRegAppTableRecord
  2
ACAD
 70
0
  0
APPID
  5
260
330
3
100
AcDbSymbolTableRecord
100
AcDbRegAppTableRecord
  2
HATCHBACKGROUNDCOLOR
 70
0
  0
APPID
  5
261
330
3
100
AcDbSymbolTableRecord
100
AcDbRegAppTableRecord
  2
EZDXF
 70
0
  0
ENDTAB
  0
TABLE
  2
DIMSTYLE
  5
4
330
0
100
AcDbSymbolTable
 70
1
100
AcDbDimStyleTable
  0
DIMSTYLE
105
2B
330
4
100
AcDbSymbolTableRecord
100
AcDbDimStyleTableRecord
  2
Standard
 70
0
 40
1.0
 41
2.5
 42
0.625
 43
3.75
 44
1.25
 45
0.0
 46
0.0
 47
0.0
 48
0.0
 49
2.5
140
2.5
141
2.5
142
0.0
143
0.03937007874
144
1.0
145
0.0
146
1.0
147
0.625
148
0.0
 69
0
 70
0
 71
0
 72
0
 73
0
 74
0
 75
0
 76
0
 77
1
 78
8
 79
3
170
0
171
3
172
1
173
0
174
0
175
0
176
0
177
0
178
0
179
2
271
2
272
2
273
2
274
3
275
0
276
0
277
2
278
44
279
0
280
0
281
0
282
0
283
0
284
8
285
0
286
0
288
0
289
3
290
0
371
-2
372
-2
  0
ENDTAB
  0
TABLE
  2
BLOCK_RECORD
  5
9
330
0
100
AcDbSymbolTable
 70
2
  0
BLOCK_RECORD
  5
17
330
9
100
AcDbSymbolTableRecord
100
AcDbBlockTableRecord
  2
*Model_Space
340
1A
 70
0
280
1
281
0
  0
BLOCK_RECORD
  5
1B
330
9
100
AcDbSymbolTableRecord
100
AcDbBlockTableRecord
  2
*Paper_Space
340
1E
 70
0
280
1
281
0
  0
ENDTAB
  0
ENDSEC
  0
SECTION
  2
BLOCKS
  0
BLOCK
  5
18
330
17
100
AcDbEntity
  8
0
100
AcDbBlockBegin
  2
*Model_Space
 70
0
 10
0.0
 20
0.0
 30
0.0
  3
*Model_Space
  1

  0
ENDBLK
  5
19
330
17
100
AcDbEntity
  8
0
100
AcDbBlockEnd
  0
BLOCK
  5
1C
330
1B
100
AcDbEntity
  8
0
100
AcDbBlockBegin
  2
*Paper_Space
 70
0
 10
0.0
 20
0.0
 30
0.0
  3
*Paper_Space
  1

  0
ENDBLK
  5
1D
330
1B
100
AcDbEntity
  8
0
100
AcDbBlockEnd
  0
ENDSEC
  0
SECTION
  2
ENTITIES
  0
ELLIPSE
  5
30
330
17
100
AcDbEntity
  8
visible
100
AcDbEllipse
 10
-37.052295080265395
 20
-28.677140465368232
 30
0.0
 11
8.0
 21
2.710737232162539e-20
 31
0.0
 40
0.01307734578940119
 41
-3.141592653589793
 42
-3.1405866177622555
  0
ELLIPSE
  5
31
330
17
100
AcDbEntity
  8
visible
100
AcDbEllipse
 10
-37.052295080265395
 20
-28.677140465368232
 30
0.0
 11
8.0
 21
2.710737232162539e-20
 31
0.0
 40
0.01307734578940119
 41
-3.14259868941744
 42
-3.141592653589793
  0
LINE
  5
32
330
17
100
AcDbEntity
  8
visible
100
AcDbLine
 10
-45.0522910318334
 20
-28.677035215158828
 30
0.0
 11
-44.959735751302546
 21
-27.473920011375487
 31
0.0
  0
ELLIPSE
  5
33
330
17
100
AcDbEntity
  8
visible
100
AcDbEllipse
 10
-36.95973979973455
 20
-27.47402526158489
 30
0.0
 11
-8.0
 21
-2.710737232162539e-20
 31
0.0
 40
0.01307734578940119
 41
4.711382944557043
 42
6.282179271351939
  0
ELLIPSE
  5
34
330
17
100
AcDbEntity
  8
visible
100
AcDbEllipse
 10
35.040223764377416
 20
-27.474972513469517
 30
0.0
 11
8.0
 21
2.710737232162539e-20
 31
0.0
 40
0.01307734578940119
 41
-6.283185307179586
 42
-4.713395016212337
  0
ELLIPSE
  5
35
330
17
100
AcDbEntity
  8
visible
100
AcDbEllipse
 10
35.040223764377416
 20
-27.474972513469517
 30
0.0
 11
8.0
 21
2.710737232162539e-20
 31
0.0
 40
0.01307734578940119
 41
-0.0010060358276469117
 42
-0.0
  0
LINE
  5
36
330
17
100
AcDbEntity
  8
visible
100
AcDbLine
 10
-36.951691514470994
 20
-27.369406548212428
 30
0.0
 11
35.04827204964097
 21
-27.370353800097057
 31
0.0
  0
LINE
  5
37
330
17
100
AcDbEntity
  8
visible
100
AcDbLine
 10
42.94913116498483
 20
-34.45863115189156
 30
0.0
 11
43.04021971594541
 21
-33.27458179325178
 31
0.0
  0
ELLIPSE
  5
38
330
17
100
AcDbEntity
  8
visible
100
AcDbEllipse
 10
35.040223764377416
 20
-33.27447654304237
 30
0.0
 11
8.0
 21
2.710737232162539e-20
 31
0.0
 40
0.01307734578940119
 41
-6.283185307179586
 42
-4.713395016212337
  0
ELLIPSE
  5
39
330
17
100
AcDbEntity
  8
visible
100
AcDbEllipse
 10
35.040223764377416
 20
-33.27447654304237
 30
0.0
 11
8.0
 21
2.710737232162539e-20
 31
0.0
 40
0.01307734578940119
 41
-0.0010060358276466896
 42
-0.0
  0
LINE
  5
3A
330
17
100
AcDbEntity
  8
visible
100
AcDbLine
 10
35.04827204964097
 20
-33.1698578296699
 30
0.0
 11
-36.951691514470994
 21
-33.168910577785276
 31
0.0
  0
ELLIPSE
  5
3B
330
17
100
AcDbEntity
  8
visible
100
AcDbEllipse
 10
-36.95973979973455
 20
-33.27352929115774
 30
0.0
 11
8.0
 21
2.710737232162539e-20
 31
0.0
 40
0.01307734578940119
 41
-4.713395016212337
 42
-3.14259868941744
  0
LINE
  5
3C
330
17
100
AcDbEntity
  8
visible
100
AcDbLine
 10
-45.05229103183339
 20
-34.476539244731676
 30
0.0
 11
-44.959735751302546
 21
-33.27342404094834
 31
0.0
  0
ELLIPSE
  5
3D
330
17
100
AcDbEntity
  8
visible
100
AcDbEllipse
 10
-37.052295080265395
 20
-34.476644494941084
 30
0.0
 11
8.0
 21
2.710737232162539e-20
 31
0.0
 40
0.01307734578940119
 41
-3.141592653589793
 42
-2.9905413391698192
  0
ELLIPSE
  5
3E
330
17
100
AcDbEntity
  8
visible
100
AcDbEllipse
 10
-37.052295080265395
 20
-34.476644494941084
 30
0.0
 11
8.0
 21
2.710737232162539e-20
 31
0.0
 40
0.01307734578940119
 41
-3.14259868941744
 42
-3.141592653589793
  0
LINE
  5
3F
330
17
100
AcDbEntity
  8
visible
100
AcDbLine
 10
-44.35973605493494
 20
-33.27343193471404
 30
0.0
 11
-44.449222250387855
 21
-34.43665246260435
 31
0.0
  0
ELLIPSE
  5
40
330
17
100
AcDbEntity
  8
visible
100
AcDbEllipse
 10
-36.95973979973455
 20
-33.27352929115774
 30
0.0
 11
7.4
 21
2.5074319397503484e-20
 31
0.0
 40
0.01307734578940119
 41
-4.713395016212337
 42
-3.14259868941744
  0
LINE
  5
41
330
17
100
AcDbEntity
  8
visible
100
AcDbLine
 10
-36.95229513586576
 20
-33.17675698128821
 30
0.0
 11
35.04766842824623
 21
-33.17770423317284
 31
0.0
  0
ELLIPSE
  5
42
330
17
100
AcDbEntity
  8
visible
100
AcDbEllipse
 10
35.040223764377416
 20
-33.27447654304237
 30
0.0
 11
7.4
 21
2.5074319397503484e-20
 31
0.0
 40
0.01307734578940119
 41
-6.283185307179586
 42
-4.713395016212337
  0
ELLIPSE
  5
43
330
17
100
AcDbEntity
  8
visible
100
AcDbEllipse
 10
35.040223764377416
 20
-33.27447654304237
 30
0.0
 11
7.4
 21
2.5074319397503484e-20
 31
0.0
 40
0.01307734578940119
 41
-0.0010060358276466896
 42
-0.0
  0
ELLIPSE
  5
44
330
17
100
AcDbEntity
  8
visible
100
AcDbEllipse
 10
-22.954716706200834
 20
-54.40651392574306
 30
0.0
 11
2.991161943626592
 21
-0.23010916322474134
 31
0.0
 40
0.9999139818466624
 41
0.006558600720797392
 42
3.1350340528690612
  0
ELLIPSE
  5
45
330
17
100
AcDbEntity
  8
visible
100
AcDbEllipse
 10
-22.951698599227004
 20
-54.367281908228385
 30
0.0
 11
2.991161943626592
 21
-0.23010916322474134
 31
0.0
 40
0.9999139818466624
 41
4.789160868125054
 42
6.283185307179586
  0
ELLIPSE
  5
46
330
17
100
AcDbEntity
  8
visible
100
AcDbEllipse
 10
-22.951698599227004
 20
-54.367281908228385
 30
0.0
 11
2.991161943626592
 21
-0.23010916322474134
 31
0.0
 40
0.9999139818466624
 41
0.0
 42
3.141592653589793
  0
ELLIPSE
  5
47
330
17
100
AcDbEntity
  8
visible
100
AcDbEllipse
 10
-22.951698599227004
 20
-54.367281908228385
 30
0.0
 11
2.991161943626592
 21
-0.23010916322474134
 31
0.0
 40
0.9999139818466624
 41
3.141592653589793
 42
4.789160868125054
  0
LINE
  5
48
330
17
100
AcDbEntity
  8
visible
100
AcDbLine
 10
-45.0286491938717
 20
-56.36732340463411
 30
0.0
 11
-45.023619015581986
 21
-56.36732347081255
 31
0.0
  0
LINE
  5
49
330
17
100
AcDbEntity
  8
visible
100
AcDbLine
 10
-45.02864919387171
 20
-56.36732340463411
 30
0.0
 11
-45.023619015581986
 21
-56.30193670877632
 31
0.0
  0
LINE
  5
4A
330
17
100
AcDbEntity
  8
visible
100
AcDbLine
 10
-45.02864919387171
 20
-56.36732340463411
 30
0.0
 11
-45.02864919387171
 21
-59.36706686820627
 31
0.0
  0
LINE
  5
4B
330
17
100
AcDbEntity
  8
visible
100
AcDbLine
 10
-45.023619015581986
 20
-56.30193670877632
 30
0.0
 11
-45.023619015581986
 21
-59.30168017234848
 31
0.0
  0
LINE
  5
4C
330
17
100
AcDbEntity
  8
visible
100
AcDbLine
 10
-45.02864919387171
 20
-59.36706686820627
 30
0.0
 11
-45.023619015581986
 21
-59.30168017234848
 31
0.0
  0
LINE
  5
4D
330
17
100
AcDbEntity
  8
visible
100
AcDbLine
 10
-45.01858883729227
 20
-56.23655001291853
 30
0.0
 11
-45.01355865900255
 21
-56.23655007909697
 31
0.0
  0
LINE
  5
4E
330
17
100
AcDbEntity
  8
visible
100
AcDbLine
 10
-45.01858883729227
 20
-56.23655001291853
 30
0.0
 11
-45.01355865900255
 21
-56.17116331706074
 31
0.0
  0
LINE
  5
4F
330
17
100
AcDbEntity
  8
visible
100
AcDbLine
 10
-45.01858883729227
 20
-56.23655001291853
 30
0.0
 11
-45.01858883729227
 21
-59.236293476490694
 31
0.0
  0
LINE
  5
50
330
17
100
AcDbEntity
  8
visible
100
AcDbLine
 10
-45.01355865900255
 20
-56.17116331706073
 30
0.0
 11
-45.01355865900255
 21
-59.1709067806329
 31
0.0
  0
LINE
  5
51
330
17
100
AcDbEntity
  8
visible
100
AcDbLine
 10
-45.01858883729227
 20
-59.236293476490694
 30
0.0
 11
-45.01355865900255
 21
-59.170906780632905
 31
0.0
  0
LINE
  5
52
330
17
100
AcDbEntity
  8
visible
100
AcDbLine
 10
-45.008528480712826
 20
-56.10577662120295
 30
0.0
 11
-45.00349830242311
 21
-56.10577668738139
 31
0.0
  0
LINE
  5
53
330
17
100
AcDbEntity
  8
visible
100
AcDbLine
 10
-45.008528480712826
 20
-56.10577662120295
 30
0.0
 11
-45.00349830242311
 21
-56.04038992534515
 31
0.0
  0
LINE
  5
54
330
17
100
AcDbEntity
  8
visible
100
AcDbLine
 10
-45.008528480712826
 20
-56.10577662120294
 30
0.0
 11
-45.008528480712826
 21
-59.10552008477511
 31
0.0
  0
LINE
  5
55
330
17
100
AcDbEntity
  8
visible
100
AcDbLine
 10
-45.00349830242311
 20
-56.04038992534515
 30
0.0
 11
-45.00349830242311
 21
-59.04013338891732
 31
0.0
  0
LINE
  5
56
330
17
100
AcDbEntity
  8
visible
100
AcDbLine
 10
-45.008528480712826
 20
-59.105520084775115
 30
0.0
 11
-45.00349830242311
 21
-59.04013338891732
 31
0.0
  0
LINE
  5
57
330
17
100
AcDbEntity
  8
visible
100
AcDbLine
 10
-44.99846812413338
 20
-55.97500322948737
 30
0.0
 11
-44.99343794584367
 21
-55.975003295665815
 31
0.0
  0
LINE
  5
58
330
17
100
AcDbEntity
  8
visible
100
AcDbLine
 10
-44.99846812413339
 20
-55.97500322948736
 30
0.0
 11
-44.99343794584367
 21
-55.909616533629574
 31
0.0
  0
LINE
  5
59
330
17
100
AcDbEntity
  8
visible
100
AcDbLine
 10
-44.99846812413339
 20
-55.97500322948736
 30
0.0
 11
-44.99846812413339
 21
-58.97474669305953
 31
0.0
  0
LINE
  5
5A
330
17
100
AcDbEntity
  8
visible
100
AcDbLine
 10
-44.99343794584367
 20
-55.909616533629574
 30
0.0
 11
-44.99343794584367
 21
-58.90935999720174
 31
0.0
  0
LINE
  5
5B
330
17
100
AcDbEntity
  8
visible
100
AcDbLine
 10
-44.99846812413339
 20
-58.97474669305953
 30
0.0
 11
-44.99343794584367
 21
-58.90935999720174
 31
0.0
  0
LINE
  5
5C
330
17
100
AcDbEntity
  8
visible
100
AcDbLine
 10
-44.98840776755395
 20
-55.84422983777179
 30
0.0
 11
-44.98337758926423
 21
-55.844229903950236
 31
0.0
  0
LINE
  5
5D
330
17
100
AcDbEntity
  8
visible
100
AcDbLine
 10
-44.98840776755395
 20
-55.844229837771785
 30
0.0
 11
-44.98337758926423
 21
-55.778843141913995
 31
0.0
  0
LINE
  5
5E
330
17
100
AcDbEntity
  8
visible
100
AcDbLine
 10
-44.98337758926423
 20
-55.778843141913995
 30
0.0
 11
-44.98337758926423
 21
-58.77858660548616
 31
0.0
  0
LINE
  5
5F
330
17
100
AcDbEntity
  8
visible
100
AcDbLine
 10
-44.98840776755395
 20
-58.84397330134395
 30
0.0
 11
-44.98337758926423
 21
-58.77858660548616
 31
0.0
  0
LINE
  5
60
330
17
100
AcDbEntity
  8
visible
100
AcDbLine
 10
-44.98840776755395
 20
-55.844229837771785
 30
0.0
 11
-44.98840776755395
 21
-58.84397330134395
 31
0.0
  0
ELLIPSE
  5
61
330
17
100
AcDbEntity
  8
visible
100
AcDbEllipse
 10
35.040223764377416
 20
-34.47437392847124
 30
0.0
 11
8.0
 21
2.710737232162539e-20
 31
0.0
 40
0.01307734578940119
 41
-6.283185307179586
 42
-4.713395016212337
  0
ELLIPSE
  5
62
330
17
100
AcDbEntity
  8
visible
100
AcDbEllipse
 10
35.040223764377416
 20
-34.47437392847124
 30
0.0
 11
8.0
 21
2.710737232162539e-20
 31
0.0
 40
0.01307734578940119
 41
-0.0010060358276466896
 42
-0.0
  0
LINE
  5
63
330
17
100
AcDbEntity
  8
visible
100
AcDbLine
 10
35.04827204964097
 20
-34.36975521509877
 30
0.0
 11
-36.951691514470994
 21
-34.368807963214145
 31
0.0
  0
ELLIPSE
  5
64
330
17
100
AcDbEntity
  8
visible
100
AcDbEllipse
 10
-36.95973979973455
 20
-34.47342667658661
 30
0.0
 11
8.0
 21
2.710737232162539e-20
 31
0.0
 40
0.01307734578940119
 41
-4.713395016212337
 42
-3.14259868941744
  0
LINE
  5
65
330
17
100
AcDbEntity
  8
visible
100
AcDbLine
 10
-45.05229103183339
 20
-35.676436630160545
 30
0.0
 11
-44.959735751302546
 21
-34.47332142637721
 31
0.0
  0
ELLIPSE
  5
66
330
17
100
AcDbEntity
  8
visible
100
AcDbEllipse
 10
-37.052295080265395
 20
-35.67654188036995
 30
0.0
 11
8.0
 21
2.710737232162539e-20
 31
0.0
 40
0.01307734578940119
 41
-3.141592653589793
 42
-3.1405866177622555
  0
ELLIPSE
  5
67
330
17
100
AcDbEntity
  8
visible
100
AcDbEllipse
 10
-37.052295080265395
 20
-35.67654188036995
 30
0.0
 11
8.0
 21
2.710737232162539e-20
 31
0.0
 40
0.01307734578940119
 41
-3.14259868941744
 42
-3.141592653589793
  0
LINE
  5
68
330
17
100
AcDbEntity
  8
visible
100
AcDbLine
 10
36.52362341694034
 20
-67.68734785851005
 30
0.0
 11
36.52362341694034
 21
-67.64811580128831
 31
0.0
  0
LINE
  5
69
330
17
100
AcDbEntity
  8
visible
100
AcDbLine
 10
36.526641523914165
 20
-67.64811584099537
 30
0.0
 11
36.52362341694034
 21
-67.68734785851005
 31
0.0
  0
LINE
  5
6A
330
17
100
AcDbEntity
  8
visible
100
AcDbLine
 10
33.526643042076174
 20
-67.64807637216684
 30
0.0
 11
36.52664152391417
 21
-67.64811584099537
 31
0.0
  0
LINE
  5
6B
330
17
100
AcDbEntity
  8
visible
100
AcDbLine
 10
33.526643042076174
 20
-67.64807637216686
 30
0.0
 11
33.52362493510235
 21
-67.68730838968153
 31
0.0
  0
LINE
  5
6C
330
17
100
AcDbEntity
  8
visible
100
AcDbLine
 10
21.523631007750346
 20
-67.68715051436742
 30
0.0
 11
21.523631007750346
 21
-67.64791845714568
 31
0.0
  0
LINE
  5
6D
330
17
100
AcDbEntity
  8
visible
100
AcDbLine
 10
21.52664911472418
 20
-67.64791849685275
 30
0.0
 11
21.523631007750346
 21
-67.68715051436743
 31
0.0
  0
LINE
  5
6E
330
17
100
AcDbEntity
  8
visible
100
AcDbLine
 10
18.52665063288618
 20
-67.64787902802422
 30
0.0
 11
21.52664911472418
 21
-67.64791849685275
 31
0.0
  0
LINE
  5
6F
330
17
100
AcDbEntity
  8
visible
100
AcDbLine
 10
18.52665063288618
 20
-67.64787902802422
 30
0.0
 11
18.523632525912348
 21
-67.6871110455389
 31
0.0
  0
LINE
  5
70
330
17
100
AcDbEntity
  8
visible
100
AcDbLine
 10
18.52363252591235
 20
-67.68711104553888
 30
0.0
 11
21.523631007750346
 21
-67.68715051436742
 31
0.0
  0
LINE
  5
71
330
17
100
AcDbEntity
  8
visible
100
AcDbLine
 10
33.52362493510234
 20
-67.68730838968152
 30
0.0
 11
36.52362341694034
 21
-67.68734785851005
 31
0.0
  0
LINE
  5
72
330
17
100
AcDbEntity
  8
visible
100
AcDbLine
 10
36.505514775097346
 20
-67.92273996359809
 30
0.0
 11
36.505514775097346
 21
-67.88350790637635
 31
0.0
  0
LINE
  5
73
330
17
100
AcDbEntity
  8
visible
100
AcDbLine
 10
36.50853288207118
 20
-67.88350794608343
 30
0.0
 11
36.505514775097346
 21
-67.9227399635981
 31
0.0
  0
LINE
  5
74
330
17
100
AcDbEntity
  8
visible
100
AcDbLine
 10
33.50853440023318
 20
-67.8834684772549
 30
0.0
 11
36.50853288207118
 21
-67.88350794608343
 31
0.0
  0
LINE
  5
75
330
17
100
AcDbEntity
  8
visible
100
AcDbLine
 10
33.50853440023319
 20
-67.8834684772549
 30
0.0
 11
33.505516293259355
 21
-67.92270049476957
 31
0.0
  0
LINE
  5
76
330
17
100
AcDbEntity
  8
visible
100
AcDbLine
 10
21.505522365907357
 20
-67.92254261945546
 30
0.0
 11
21.505522365907357
 21
-67.88331056223372
 31
0.0
  0
LINE
  5
77
330
17
100
AcDbEntity
  8
visible
100
AcDbLine
 10
21.508540472881187
 20
-67.88331060194079
 30
0.0
 11
21.505522365907353
 21
-67.92254261945547
 31
0.0
  0
LINE
  5
78
330
17
100
AcDbEntity
  8
visible
100
AcDbLine
 10
18.508541991043188
 20
-67.88327113311226
 30
0.0
 11
21.508540472881187
 21
-67.88331060194079
 31
0.0
  0
LINE
  5
79
330
17
100
AcDbEntity
  8
visible
100
AcDbLine
 10
18.508541991043188
 20
-67.88327113311226
 30
0.0
 11
18.505523884069355
 21
-67.92250315062694
 31
0.0
  0
LINE
  5
7A
330
17
100
AcDbEntity
  8
visible
100
AcDbLine
 10
18.50552388406936
 20
-67.92250315062694
 30
0.0
 11
21.505522365907353
 21
-67.92254261945547
 31
0.0
  0
LINE
  5
7B
330
17
100
AcDbEntity
  8
visible
100
AcDbLine
 10
33.50551629325935
 20
-67.92270049476957
 30
0.0
 11
36.50551477509735
 21
-67.9227399635981
 31
0.0
  0
LINE
  5
7C
330
17
100
AcDbEntity
  8
visible
100
AcDbLine
 10
-28.48972396380028
 20
-67.86042131154036
 30
0.0
 11
-23.489726494070283
 21
-67.86048709292125
 31
0.0
  0
LINE
  5
7D
330
17
100
AcDbEntity
  8
visible
100
AcDbLine
 10
-28.489723963800284
 20
-67.86042131154036
 30
0.0
 11
-28.49173603511617
 21
-67.88657598988348
 31
0.0
  0
LINE
  5
7E
330
17
100
AcDbEntity
  8
visible
100
AcDbLine
 10
-23.491738565386175
 20
-67.88664177126437
 30
0.0
 11
-23.491738565386175
 21
-67.86048706644988
 31
0.0
  0
LINE
  5
7F
330
17
100
AcDbEntity
  8
visible
100
AcDbLine
 10
-28.49173603511617
 20
-67.88657598988348
 30
0.0
 11
-23.49173856538617
 21
-67.88664177126437
 31
0.0
  0
LINE
  5
80
330
17
100
AcDbEntity
  8
visible
100
AcDbLine
 10
-23.489726494070286
 20
-67.86048709292125
 30
0.0
 11
-23.49173856538617
 21
-67.88664177126437
 31
0.0
  0
ELLIPSE
  5
81
330
17
100
AcDbEntity
  8
visible
100
AcDbEllipse
 10
-25.980872115145377
 20
-56.74631425108982
 30
0.0
 11
8.8
 21
2.981810955378793e-20
 31
0.0
 40
0.01307734578940119
 41
-5.31308950249434
 42
-4.833367321074135
  0
LINE
  5
82
330
17
100
AcDbEntity
  8
visible
100
AcDbLine
 10
-23.47202026649047
 20
-67.63032592350181
 30
0.0
 11
-23.47202026649047
 21
-67.60417121868733
 31
0.0
  0
LINE
  5
83
330
17
100
AcDbEntity
  8
visible
100
AcDbLine
 10
-28.472017736220465
 20
-67.63026014212095
 30
0.0
 11
-23.472020266490468
 21
-67.63032592350183
 31
0.0
  0
LINE
  5
84
330
17
100
AcDbEntity
  8
visible
100
AcDbLine
 10
-23.470008195174586
 20
-67.60417124515871
 30
0.0
 11
-23.472020266490475
 21
-67.63032592350183
 31
0.0
  0
LINE
  5
85
330
17
100
AcDbEntity
  8
visible
100
AcDbLine
 10
-28.470005664904576
 20
-67.60410546377783
 30
0.0
 11
-23.47000819517458
 21
-67.60417124515871
 31
0.0
  0
LINE
  5
86
330
17
100
AcDbEntity
  8
visible
100
AcDbLine
 10
-28.470005664904583
 20
-67.60410546377784
 30
0.0
 11
-28.472017736220472
 21
-67.63026014212096
 31
0.0
  0
LINE
  5
87
330
17
100
AcDbEntity
  8
visible
100
AcDbLine
 10
-30.46125214257247
 20
-67.49030630043292
 30
0.0
 11
-30.464270249546303
 21
-67.5295383179476
 31
0.0
  0
LINE
  5
88
330
17
100
AcDbEntity
  8
visible
100
AcDbLine
 10
-27.4642717677083
 20
-67.52957778677612
 30
0.0
 11
-27.4642717677083
 21
-67.49034572955438
 31
0.0
  0
LINE
  5
89
330
17
100
AcDbEntity
  8
visible
100
AcDbLine
 10
-30.464270249546296
 20
-67.52953831794761
 30
0.0
 11
-27.464271767708297
 21
-67.52957778677613
 31
0.0
  0
LINE
  5
8A
330
17
100
AcDbEntity
  8
visible
100
AcDbLine
 10
-27.46125366073447
 20
-67.49034576926145
 30
0.0
 11
-27.464271767708304
 21
-67.52957778677613
 31
0.0
  0
LINE
  5
8B
330
17
100
AcDbEntity
  8
visible
100
AcDbLine
 10
-30.461252142572462
 20
-67.49030630043293
 30
0.0
 11
-27.461253660734464
 21
-67.49034576926145
 31
0.0
  0
LINE
  5
8C
330
17
100
AcDbEntity
  8
visible
100
AcDbLine
 10
-18.461258215220475
 20
-67.49046417574702
 30
0.0
 11
-18.46427632219431
 21
-67.5296961932617
 31
0.0
  0
LINE
  5
8D
330
17
100
AcDbEntity
  8
visible
100
AcDbLine
 10
-15.464277840356306
 20
-67.52973566209023
 30
0.0
 11
-15.464277840356306
 21
-67.4905036048685
 31
0.0
  0
LINE
  5
8E
330
17
100
AcDbEntity
  8
visible
100
AcDbLine
 10
-18.4642763221943
 20
-67.52969619326171
 30
0.0
 11
-15.464277840356306
 21
-67.52973566209023
 31
0.0
  0
LINE
  5
8F
330
17
100
AcDbEntity
  8
visible
100
AcDbLine
 10
-15.461259733382475
 20
-67.49050364457555
 30
0.0
 11
-15.464277840356306
 21
-67.52973566209023
 31
0.0
  0
LINE
  5
90
330
17
100
AcDbEntity
  8
visible
100
AcDbLine
 10
-18.461258215220475
 20
-67.49046417574704
 30
0.0
 11
-15.461259733382477
 21
-67.49050364457555
 31
0.0
  0
LINE
  5
91
330
17
100
AcDbEntity
  8
visible
100
AcDbLine
 10
-36.951691514470994
 20
-67.36598606250799
 30
0.0
 11
35.04827204964097
 21
-67.36693331439261
 31
0.0
  0
LINE
  5
92
330
17
100
AcDbEntity
  8
visible
100
AcDbLine
 10
-45.0522910318334
 20
-68.67361472945439
 30
0.0
 11
-44.959735751302546
 21
-67.47049952567104
 31
0.0
  0
LINE
  5
93
330
17
100
AcDbEntity
  8
visible
100
AcDbLine
 10
-45.05229103183339
 20
-55.174769143379635
 30
0.0
 11
-45.042230675253954
 21
-55.043995751664056
 31
0.0
  0
LINE
  5
94
330
17
100
AcDbEntity
  8
visible
100
AcDbLine
 10
-45.042230675253954
 20
-43.04502189737539
 30
0.0
 11
-45.042230675253954
 21
-55.043995751664056
 31
0.0
  0
LINE
  5
95
330
17
100
AcDbEntity
  8
visible
100
AcDbLine
 10
-45.05229103183339
 20
-43.17579528909096
 30
0.0
 11
-45.042230675253954
 21
-43.045021897375385
 31
0.0
  0
LINE
  5
96
330
17
100
AcDbEntity
  8
visible
100
AcDbLine
 10
-45.01188307905515
 20
-42.98864291535509
 30
0.0
 11
-45.01188307905515
 21
-43.71660800392705
 31
0.0
  0
SPLINE
  5
97
330
17
100
AcDbEntity
  8
visible
100
AcDbSpline
 70
0
 71
2
 72
6
 73
3
 74
0
 40
0.0
 40
0.0
 40
0.0
 40
1.0
 40
1.0
 40
1.0
 10
-45.011883079055146
 20
-42.98864291535509
 30
0.0
 10
-45.012239263285515
 20
-42.75133280147412
 30
0.0
 10
-45.0126481672081
 20
-42.634605661967406
 30
0.0
  0
SPLINE
  5
98
330
17
100
AcDbEntity
  8
visible
100
AcDbSpline
 70
0
 71
2
 72
6
 73
3
 74
0
 40
0.0
 40
0.0
 40
0.0
 40
1.0
 40
1.0
 40
1.0
 10
-45.012630974215895
 20
-43.24101974609427
 30
0.0
 10
-45.012224415918766
 20
-43.402541728054835
 30
0.0
 10
-45.011883079055146
 20
-43.71660800392705
 30
0.0
  0
SPLINE
  5
99
330
17
100
AcDbEntity
  8
visible
100
AcDbSpline
 70
0
 71
2
 72
6
 73
3
 74
0
 40
0.0
 40
0.0
 40
0.0
 40
0.9499608596878332
 40
0.9499608596878332
 40
0.9499608596878332
 10
-45.0126481672081
 20
-42.6346056619674
 30
0.0
 10
-45.01304234095038
 20
-42.52339750624422
 30
0.0
 10
-45.01347130651002
 20
-42.52427037516464
 30
0.0
  0
SPLINE
  5
9A
330
17
100
AcDbEntity
  8
visible
100
AcDbSpline
 70
0
 71
1
 72
4
 73
2
 74
0
 40
0.0
 40
0.0
 40
1.0
 40
1.0
 10
-45.01347130651003
 20
-42.52427037516465
 30
0.0
 10
-45.013516413314264
 20
-42.52456437620235
 30
0.0
  0
SPLINE
  5
9B
330
17
100
AcDbEntity
  8
visible
100
AcDbSpline
 70
0
 71
1
 72
4
 73
2
 74
0
 40
0.0
 40
0.0
 40
0.03651640422463942
 40
0.03651640422463942
 10
-45.01347515013299
 20
-43.09136229534292
 30
0.0
 10
-45.01344300353841
 20
-43.09115293954375
 30
0.0
  0
SPLINE
  5
9C
330
17
100
AcDbEntity
  8
visible
100
AcDbSpline
 70
0
 71
2
 72
6
 73
3
 74
0
 40
0.0
 40
0.0
 40
0.0
 40
1.0
 40
1.0
 40
1.0
 10
-45.01344300353841
 20
-43.09115293954376
 30
0.0
 10
-45.01301715886632
 20
-43.0905944938618
 30
0.0
 10
-45.0126309742159
 20
-43.241019746094274
 30
0.0
  0
SPLINE
  5
9D
330
17
100
AcDbEntity
  8
visible
100
AcDbSpline
 70
0
 71
3
 72
11
 73
7
 74
0
 40
0.0
 40
0.0
 40
0.0
 40
0.0
 40
0.541695364487221
 40
0.541695364487221
 40
0.541695364487221
 40
1.0
 40
1.0
 40
1.0
 40
1.0
 10
-45.013516413314264
 20
-42.52456437620235
 30
0.0
 10
-45.013891497790205
 20
-42.529187282997746
 30
0.0
 10
-45.01426328151273
 20
-42.59011910791866
 30
0.0
 10
-45.01460027956903
 20
-42.732631403905586
 30
0.0
 10
-45.01488840911017
 20
-42.85431714439667
 30
0.0
 10
-45.0151391908809
 20
-43.02930699053918
 30
0.0
 10
-45.01535262488135
 20
-43.25760094233328
 30
0.0
  0
SPLINE
  5
9E
330
17
100
AcDbEntity
  8
visible
100
AcDbSpline
 70
0
 71
3
 72
11
 73
7
 74
0
 40
0.0
 40
0.0
 40
0.0
 40
0.0
 40
0.4408166702923612
 40
0.4408166702923612
 40
0.4408166702923612
 40
1.0
 40
1.0
 40
1.0
 40
1.0
 10
-45.014823080721555
 20
-43.643750254392984
 30
0.0
 10
-45.01467914096625
 20
-43.47755884096215
 30
0.0
 10
-45.01450662419009
 20
-43.34901653734445
 30
0.0
 10
-45.01430553039313
 20
-43.25812334353981
 30
0.0
 10
-45.014052867524626
 20
-43.1436119177025
 30
0.0
 10
-45.01376713065411
 20
-43.09495766042183
 30
0.0
 10
-45.013475150132976
 20
-43.09136229534292
 30
0.0
  0
SPLINE
  5
9F
330
17
100
AcDbEntity
  8
visible
100
AcDbSpline
 70
0
 71
3
 72
8
 73
4
 74
0
 40
0.0
 40
0.0
 40
0.0
 40
0.0
 40
1.0
 40
1.0
 40
1.0
 40
1.0
 10
-45.01535262488136
 20
-43.25760094233328
 30
0.0
 10
-45.01583759575088
 20
-43.767952782669596
 30
0.0
 10
-45.01602857238363
 20
-44.49061473388327
 30
0.0
 10
-45.01602315157721
 20
-45.205848437930285
 30
0.0
  0
SPLINE
  5
A0
330
17
100
AcDbEntity
  8
visible
100
AcDbSpline
 70
0
 71
3
 72
8
 73
4
 74
0
 40
0.0
 40
0.0
 40
0.0
 40
0.0
 40
1.0
 40
1.0
 40
1.0
 40
1.0
 10
-45.01529073010943
 20
-45.1963277774299
 30
0.0
 10
-45.01529217529313
 20
-44.6232621367259
 30
0.0
 10
-45.015174715717585
 20
-44.048437329105745
 30
0.0
 10
-45.014823080721555
 20
-43.64375025439299
 30
0.0
  0
SPLINE
  5
A1
330
17
100
AcDbEntity
  8
visible
100
AcDbSpline
 70
0
 71
3
 72
8
 73
4
 74
0
 40
0.0
 40
0.0
 40
0.0
 40
0.0
 40
1.0
 40
1.0
 40
1.0
 40
1.0
 10
-45.01602315157721
 20
-45.205848437930285
 30
0.0
 10
-45.01602862748953
 20
-45.920103087850165
 30
0.0
 10
-45.01583698192645
 20
-46.63623549899079
 30
0.0
 10
-45.01535262488136
 20
-47.13324606177271
 30
0.0
  0
SPLINE
  5
A2
330
17
100
AcDbEntity
  8
visible
100
AcDbSpline
 70
0
 71
3
 72
8
 73
4
 74
0
 40
0.0
 40
0.0
 40
0.0
 40
0.0
 40
1.0
 40
1.0
 40
1.0
 40
1.0
 10
-45.014823080721555
 20
-46.73332978523358
 30
0.0
 10
-45.01517422554207
 20
-46.3384695269833
 30
0.0
 10
-45.01529223196031
 20
-45.76826763988875
 30
0.0
 10
-45.01529073010943
 20
-45.19632777742989
 30
0.0
  0
SPLINE
  5
A3
330
17
100
AcDbEntity
  8
visible
100
AcDbSpline
 70
0
 71
3
 72
11
 73
7
 74
0
 40
0.0
 40
0.0
 40
0.0
 40
0.0
 40
0.45830463551269063
 40
0.45830463551269063
 40
0.45830463551269063
 40
0.9763554172945589
 40
0.9763554172945589
 40
0.9763554172945589
 40
0.9763554172945589
 10
-45.01535262488135
 20
-47.13324606177271
 30
0.0
 10
-45.015139190880895
 20
-47.35599120663837
 30
0.0
 10
-45.01488840911015
 20
-47.52446128730632
 30
0.0
 10
-45.01460027956903
 20
-47.63865630377641
 30
0.0
 10
-45.01427804894378
 20
-47.76653585331705
 30
0.0
 10
-45.01392378983401
 20
-47.819096749526715
 30
0.0
 10
-45.01356555704889
 20
-47.818866067121576
 30
0.0
  0
SPLINE
  5
A4
330
17
100
AcDbEntity
  8
visible
100
AcDbSpline
 70
0
 71
1
 72
4
 73
2
 74
0
 40
0.0
 40
0.0
 40
1.0
 40
1.0
 10
-45.01356555704889
 20
-47.81886606712156
 30
0.0
 10
-45.013516413314264
 20
-47.81854523159184
 30
0.0
  0
SPLINE
  5
A5
330
17
100
AcDbEntity
  8
visible
100
AcDbSpline
 70
0
 71
1
 72
4
 73
2
 74
0
 40
0.0
 40
0.0
 40
0.023686509692936435
 40
0.023686509692936435
 10
-45.013475150132976
 20
-47.25067456197236
 30
0.0
 10
-45.01351225569836
 20
-47.250916919017385
 30
0.0
  0
SPLINE
  5
A6
330
17
100
AcDbEntity
  8
visible
100
AcDbSpline
 70
0
 71
2
 72
8
 73
5
 74
0
 40
0.0
 40
0.0
 40
0.0
 40
0.5494833524143774
 40
0.5494833524143774
 40
1.0
 40
1.0
 40
1.0
 10
-45.01351225569836
 20
-47.25091691901739
 30
0.0
 10
-45.013937459782426
 20
-47.25588004881621
 30
0.0
 10
-45.01430684490053
 20
-47.10494044099672
 30
0.0
 10
-45.01460766078867
 20
-46.97646079694746
 30
0.0
 10
-45.014823080721555
 20
-46.73332978523358
 30
0.0
  0
SPLINE
  5
A7
330
17
100
AcDbEntity
  8
visible
100
AcDbSpline
 70
0
 71
2
 72
6
 73
3
 74
0
 40
0.0
 40
0.0
 40
0.0
 40
1.0
 40
1.0
 40
1.0
 10
-45.01351641331426
 20
-47.81854523159184
 30
0.0
 10
-45.01306850871445
 20
-47.81354792566233
 30
0.0
 10
-45.01265504440498
 20
-47.684312045470065
 30
0.0
  0
SPLINE
  5
A8
330
17
100
AcDbEntity
  8
visible
100
AcDbSpline
 70
0
 71
2
 72
6
 73
3
 74
0
 40
0.0
 40
0.0
 40
0.0
 40
1.0
 40
1.0
 40
1.0
 10
-45.0126309742159
 20
-47.07907042433983
 30
0.0
 10
-45.01303197464557
 20
-47.24557882571312
 30
0.0
 10
-45.01347515013298
 20
-47.25067456197236
 30
0.0
  0
SPLINE
  5
A9
330
17
100
AcDbEntity
  8
visible
100
AcDbSpline
 70
0
 71
2
 72
6
 73
3
 74
0
 40
0.0
 40
0.0
 40
0.0
 40
1.0
 40
1.0
 40
1.0
 10
-45.01265504440499
 20
-47.684312045470065
 30
0.0
 10
-45.01224476486855
 20
-47.55456739268242
 30
0.0
 10
-45.01188307905515
 20
-47.305168299704306
 30
0.0
  0
SPLINE
  5
AA
330
17
100
AcDbEntity
  8
visible
100
AcDbSpline
 70
0
 71
2
 72
6
 73
3
 74
0
 40
0.0
 40
0.0
 40
0.0
 40
1.0
 40
1.0
 40
1.0
 10
-45.011883079055146
 20
-46.58403856407668
 30
0.0
 10
-45.012224415917494
 20
-46.9069788346502
 30
0.0
 10
-45.012630974215895
 20
-47.07907042433983
 30
0.0
  0
LINE
  5
AB
330
17
100
AcDbEntity
  8
visible
100
AcDbLine
 10
-45.01188307905515
 20
-46.58403856407668
 30
0.0
 11
-45.01188307905515
 21
-47.3051682997043
 31
0.0
  0
LINE
  5
AC
330
17
100
AcDbEntity
  8
visible
100
AcDbLine
 10
-45.01144637705325
 20
-47.69252445605278
 30
0.0
 11
-45.00948637594231
 21
-42.56445565923047
 31
0.0
  0
LINE
  5
AD
330
17
100
AcDbEntity
  8
visible
100
AcDbLine
 10
-45.01071395558547
 20
-47.683003795552395
 30
0.0
 11
-45.01144637705325
 21
-47.69252445605278
 31
0.0
  0
LINE
  5
AE
330
17
100
AcDbEntity
  8
visible
100
AcDbLine
 10
-45.00948637594231
 20
-42.56445565923047
 30
0.0
 11
-45.00869893689949
 21
-42.554219831744135
 31
0.0
  0
LINE
  5
AF
330
17
100
AcDbEntity
  8
visible
100
AcDbLine
 10
-45.0102463061976
 20
-46.36795478733121
 30
0.0
 11
-45.01071395558547
 21
-47.68300379555239
 31
0.0
  0
LINE
  5
B0
330
17
100
AcDbEntity
  8
visible
100
AcDbLine
 10
-45.00869893689949
 20
-42.55421983174414
 30
0.0
 11
-45.006742374386995
 21
-47.63137767875452
 31
0.0
  0
LINE
  5
B1
330
17
100
AcDbEntity
  8
visible
100
AcDbLine
 10
-45.00793212944732
 20
-46.337873075984916
 30
0.0
 11
-45.0102463061976
 21
-46.36795478733121
 31
0.0
  0
LINE
  5
B2
330
17
100
AcDbEntity
  8
visible
100
AcDbLine
 10
-45.006742374386995
 20
-47.63137767875452
 30
0.0
 11
-45.00746448005945
 21
-47.64076424544504
 31
0.0
  0
LINE
  5
B3
330
17
100
AcDbEntity
  8
visible
100
AcDbLine
 10
-45.00746448005945
 20
-47.64076424544504
 30
0.0
 11
-45.00793212944732
 21
-46.337873075984916
 31
0.0
  0
LINE
  5
B4
330
17
100
AcDbEntity
  8
visible
100
AcDbLine
 10
-45.005992759927025
 20
-47.621633528571024
 30
0.0
 11
-45.005992759927025
 21
-42.51904255562299
 31
0.0
  0
LINE
  5
B5
330
17
100
AcDbEntity
  8
visible
100
AcDbLine
 10
-45.00531879463274
 20
-47.612872732993196
 30
0.0
 11
-45.005992759927025
 21
-47.62163352857102
 31
0.0
  0
LINE
  5
B6
330
17
100
AcDbEntity
  8
visible
100
AcDbLine
 10
-45.005992759927025
 20
-42.519042555622995
 30
0.0
 11
-45.00495774179652
 21
-42.50558847669991
 31
0.0
  0
LINE
  5
B7
330
17
100
AcDbEntity
  8
visible
100
AcDbLine
 10
-45.005318794632736
 20
-43.13229887797989
 30
0.0
 11
-45.005318794632736
 21
-47.6128727329932
 31
0.0
  0
LINE
  5
B8
330
17
100
AcDbEntity
  8
visible
100
AcDbLine
 10
-45.00495774179652
 20
-42.5055884766999
 30
0.0
 11
-45.003647635790784
 21
-45.9609178585706
 31
0.0
  0
LINE
  5
B9
330
17
100
AcDbEntity
  8
visible
100
AcDbLine
 10
-45.00399493423325
 20
-46.61479087988146
 30
0.0
 11
-45.00531879463274
 21
-43.13229887797989
 31
0.0
  0
LINE
  5
BA
330
17
100
AcDbEntity
  8
visible
100
AcDbLine
 10
-45.003647635790784
 20
-45.96091785857061
 30
0.0
 11
-45.00233065258817
 21
-42.47143925312105
 31
0.0
  0
LINE
  5
BB
330
17
100
AcDbEntity
  8
visible
100
AcDbLine
 10
-45.00329689874988
 20
-46.60571719874729
 30
0.0
 11
-45.00399493423325
 21
-46.61479087988146
 31
0.0
  0
LINE
  5
BC
330
17
100
AcDbEntity
  8
visible
100
AcDbLine
 10
-45.00233065258817
 20
-42.471439253121055
 30
0.0
 11
-45.00129563445766
 21
-42.45798517419797
 31
0.0
  0
LINE
  5
BD
330
17
100
AcDbEntity
  8
visible
100
AcDbLine
 10
-45.001973038350386
 20
-43.08880778564714
 30
0.0
 11
-45.00329689874987
 21
-46.60571719874729
 31
0.0
  0
LINE
  5
BE
330
17
100
AcDbEntity
  8
visible
100
AcDbLine
 10
-45.00129563445766
 20
-42.45798517419797
 30
0.0
 11
-45.00129563445766
 21
-47.56057614714601
 31
0.0
  0
LINE
  5
BF
330
17
100
AcDbEntity
  8
visible
100
AcDbLine
 10
-45.001973038350386
 20
-47.569381640660445
 30
0.0
 11
-45.001973038350386
 21
-43.088807785647134
 31
0.0
  0
LINE
  5
C0
330
17
100
AcDbEntity
  8
visible
100
AcDbLine
 10
-45.00129563445766
 20
-47.560576147146
 30
0.0
 11
-45.00197303835039
 21
-47.569381640660445
 31
0.0
  0
LINE
  5
C1
330
17
100
AcDbEntity
  8
visible
100
AcDbLine
 10
-44.99856538729611
 20
-44.80119783714996
 30
0.0
 11
-45.00016433557082
 21
-42.44327955304948
 31
0.0
  0
LINE
  5
C2
330
17
100
AcDbEntity
  8
visible
100
AcDbLine
 10
-45.00039816026476
 20
-47.548909985687786
 30
0.0
 11
-44.99856538729611
 21
-44.801197837149964
 31
0.0
  0
LINE
  5
C3
330
17
100
AcDbEntity
  8
visible
100
AcDbLine
 10
-45.00016433557082
 20
-42.443279553049486
 30
0.0
 11
-44.999418159709286
 21
-42.433580100802615
 31
0.0
  0
LINE
  5
C4
330
17
100
AcDbEntity
  8
visible
100
AcDbLine
 10
-44.99964854580479
 20
-47.539165835504285
 30
0.0
 11
-45.00039816026476
 21
-47.548909985687786
 31
0.0
  0
LINE
  5
C5
330
17
100
AcDbEntity
  8
visible
100
AcDbLine
 10
-44.99941815970929
 20
-42.43358010080261
 30
0.0
 11
-44.99814243968796
 21
-44.31380760836971
 31
0.0
  0
LINE
  5
C6
330
17
100
AcDbEntity
  8
visible
100
AcDbLine
 10
-44.99819401866456
 20
-45.350034048486194
 30
0.0
 11
-44.99964854580478
 21
-47.53916583550429
 31
0.0
  0
LINE
  5
C7
330
17
100
AcDbEntity
  8
visible
100
AcDbLine
 10
-44.99814243968796
 20
-44.313807608369714
 30
0.0
 11
-44.99685984246975
 21
-42.4003248359562
 31
0.0
  0
LINE
  5
C8
330
17
100
AcDbEntity
  8
visible
100
AcDbLine
 10
-44.99674980731967
 20
-47.50148547493234
 30
0.0
 11
-44.99819401866456
 21
-45.350034048486194
 31
0.0
  0
LINE
  5
C9
330
17
100
AcDbEntity
  8
visible
100
AcDbLine
 10
-44.99685984246975
 20
-42.40032483595619
 30
0.0
 11
-44.99611366660822
 21
-42.39062538370932
 31
0.0
  0
LINE
  5
CA
330
17
100
AcDbEntity
  8
visible
100
AcDbLine
 10
-44.99600363145814
 20
-47.49178602268546
 30
0.0
 11
-44.99674980731967
 21
-47.50148547493233
 31
0.0
  0
LINE
  5
CB
330
17
100
AcDbEntity
  8
visible
100
AcDbLine
 10
-44.996113666608224
 20
-42.39062538370932
 30
0.0
 11
-44.99776419385954
 21
-44.86255442383269
 31
0.0
  0
LINE
  5
CC
330
17
100
AcDbEntity
  8
visible
100
AcDbLine
 10
-44.99776419385953
 20
-44.86255442383269
 30
0.0
 11
-44.99600363145813
 21
-47.49178602268546
 31
0.0
  0
LINE
  5
CD
330
17
100
AcDbEntity
  8
visible
100
AcDbLine
 10
42.94766443541456
 20
-68.67477248175783
 30
0.0
 11
43.04021971594541
 21
-67.47165727797449
 31
0.0
  0
ELLIPSE
  5
CE
330
17
100
AcDbEntity
  8
visible
100
AcDbEllipse
 10
34.94766848384657
 20
-68.67466723154843
 30
0.0
 11
-8.0
 21
-2.710737232162539e-20
 31
0.0
 40
0.01307734578940119
 41
1.5697902909672496
 42
3.140586617762146
  0
ELLIPSE
  5
CF
330
17
100
AcDbEntity
  8
visible
100
AcDbEllipse
 10
35.040223764377416
 20
-67.47155202776509
 30
0.0
 11
8.0
 21
2.710737232162539e-20
 31
0.0
 40
0.01307734578940119
 41
-6.283185307179586
 42
-4.713395016212337
  0
ELLIPSE
  5
D0
330
17
100
AcDbEntity
  8
visible
100
AcDbEllipse
 10
35.040223764377416
 20
-67.47155202776509
 30
0.0
 11
8.0
 21
2.710737232162539e-20
 31
0.0
 40
0.01307734578940119
 41
-0.0010060358276469117
 42
-0.0
  0
ELLIPSE
  5
D1
330
17
100
AcDbEntity
  8
visible
100
AcDbEllipse
 10
-36.95973979973455
 20
-67.47060477588045
 30
0.0
 11
-8.0
 21
-2.710737232162539e-20
 31
0.0
 40
0.01307734578940119
 41
4.711382944557043
 42
6.282179271351939
  0
ELLIPSE
  5
D2
330
17
100
AcDbEntity
  8
visible
100
AcDbEllipse
 10
-37.052295080265395
 20
-43.17590053930037
 30
0.0
 11
8.0
 21
2.710737232162539e-20
 31
0.0
 40
0.01307734578940119
 41
-3.141592653589793
 42
-3.0914266392602494
  0
ELLIPSE
  5
D3
330
17
100
AcDbEntity
  8
visible
100
AcDbEllipse
 10
-37.052295080265395
 20
-43.17590053930037
 30
0.0
 11
8.0
 21
2.710737232162539e-20
 31
0.0
 40
0.01307734578940119
 41
-3.14259868941744
 42
-3.141592653589793
  0
ELLIPSE
  5
D4
330
17
100
AcDbEntity
  8
visible
100
AcDbEllipse
 10
-37.052295080265395
 20
-55.174874393589036
 30
0.0
 11
8.0
 21
2.710737232162539e-20
 31
0.0
 40
0.01307734578940119
 41
-3.141592653589793
 42
-3.1405866177622555
  0
ELLIPSE
  5
D5
330
17
100
AcDbEntity
  8
visible
100
AcDbEllipse
 10
-37.052295080265395
 20
-55.174874393589036
 30
0.0
 11
8.0
 21
2.710737232162539e-20
 31
0.0
 40
0.01307734578940119
 41
-3.14259868941744
 42
-3.141592653589793
  0
ELLIPSE
  5
D6
330
17
100
AcDbEntity
  8
visible
100
AcDbEllipse
 10
-37.052295080265395
 20
-68.67371997966379
 30
0.0
 11
8.0
 21
2.710737232162539e-20
 31
0.0
 40
0.01307734578940119
 41
-3.141592653589793
 42
-1.5718023626225435
  0
ELLIPSE
  5
D7
330
17
100
AcDbEntity
  8
visible
100
AcDbEllipse
 10
-37.052295080265395
 20
-68.67371997966379
 30
0.0
 11
8.0
 21
2.710737232162539e-20
 31
0.0
 40
0.01307734578940119
 41
-3.14259868941744
 42
-3.141592653589793
  0
LINE
  5
D8
330
17
100
AcDbEntity
  8
visible
100
AcDbLine
 10
-37.06034336552895
 20
-68.77833869303625
 30
0.0
 11
34.939620198583015
 21
-68.77928594492087
 31
0.0
  0
ELLIPSE
  5
D9
330
17
100
AcDbEntity
  8
visible
100
AcDbEllipse
 10
-1.0060356579439897
 20
-68.07263600371444
 30
0.0
 11
3.4
 21
1.1520633236690789e-20
 31
0.0
 40
0.01307734578940119
 41
-6.283185307179586
 42
-4.713395016212337
  0
ELLIPSE
  5
DA
330
17
100
AcDbEntity
  8
visible
100
AcDbEllipse
 10
-1.0060356579439897
 20
-68.07263600371444
 30
0.0
 11
3.4
 21
1.1520633236690789e-20
 31
0.0
 40
0.01307734578940119
 41
-3.141592653589793
 42
-0.0
  0
ELLIPSE
  5
DB
330
17
100
AcDbEntity
  8
visible
100
AcDbEllipse
 10
-1.0060356579439897
 20
-68.07263600371444
 30
0.0
 11
3.4
 21
1.1520633236690789e-20
 31
0.0
 40
0.01307734578940119
 41
-4.713395016212337
 42
-3.141592653589793
  0
ELLIPSE
  5
DC
330
17
100
AcDbEntity
  8
visible
100
AcDbEllipse
 10
-25.980872115145377
 20
-67.7453736175211
 30
0.0
 11
3.0
 21
1.016526462060952e-20
 31
0.0
 40
0.01307734578940119
 41
-6.283185307179586
 42
-4.713395016212337
  0
ELLIPSE
  5
DD
330
17
100
AcDbEntity
  8
visible
100
AcDbEllipse
 10
-25.980872115145377
 20
-67.7453736175211
 30
0.0
 11
3.0
 21
1.016526462060952e-20
 31
0.0
 40
0.01307734578940119
 41
-3.141592653589793
 42
-0.0
  0
ELLIPSE
  5
DE
330
17
100
AcDbEntity
  8
visible
100
AcDbEllipse
 10
-25.980872115145377
 20
-67.7453736175211
 30
0.0
 11
3.0
 21
1.016526462060952e-20
 31
0.0
 40
0.01307734578940119
 41
-4.713395016212337
 42
-3.141592653589793
  0
LINE
  5
DF
330
17
100
AcDbEntity
  8
visible
100
AcDbLine
 10
-45.008694992358606
 20
-42.564455669642136
 30
0.0
 11
-45.00948637594231
 21
-42.56445565923047
 31
0.0
  0
LINE
  5
E0
330
17
100
AcDbEntity
  8
visible
100
AcDbLine
 10
-45.007240846696504
 20
-46.33787308507963
 30
0.0
 11
-45.00793212944732
 21
-46.337873075984916
 31
0.0
  0
LINE
  5
E1
330
17
100
AcDbEntity
  8
visible
100
AcDbLine
 10
-45.00495264060772
 20
-42.51904256930709
 30
0.0
 11
-45.005992759927025
 21
-42.51904255562299
 31
0.0
  0
LINE
  5
E2
330
17
100
AcDbEntity
  8
visible
100
AcDbLine
 10
-45.004720121303606
 20
-43.13229888585621
 30
0.0
 11
-45.005318794632736
 21
-43.13229887797989
 31
0.0
  0
LINE
  5
E3
330
17
100
AcDbEntity
  8
visible
100
AcDbLine
 10
-45.003054178735944
 20
-45.9609178663783
 30
0.0
 11
-45.003647635790784
 21
-45.96091785857062
 31
0.0
  0
LINE
  5
E4
330
17
100
AcDbEntity
  8
visible
100
AcDbLine
 10
-45.00129563445766
 20
-42.471439266738045
 30
0.0
 11
-45.00233065258817
 21
-42.471439253121055
 31
0.0
  0
LINE
  5
E5
330
17
100
AcDbEntity
  8
visible
100
AcDbLine
 10
-45.00129563445766
 20
-43.08880779455926
 30
0.0
 11
-45.001973038350386
 21
-43.08880778564714
 31
0.0
  0
LINE
  5
E6
330
17
100
AcDbEntity
  8
visible
100
AcDbLine
 10
-44.99941157869821
 20
-42.443279562952966
 30
0.0
 11
-45.00016433557082
 21
-42.443279553049486
 31
0.0
  0
LINE
  5
E7
330
17
100
AcDbEntity
  8
visible
100
AcDbLine
 10
-44.99772322557184
 20
-44.801197848229684
 30
0.0
 11
-44.99856538729611
 21
-44.801197837149964
 31
0.0
  0
LINE
  5
E8
330
17
100
AcDbEntity
  8
visible
100
AcDbLine
 10
-44.99739779112624
 20
-44.313807618166514
 30
0.0
 11
-44.99814243968796
 21
-44.31380760836971
 31
0.0
  0
LINE
  5
E9
330
17
100
AcDbEntity
  8
visible
100
AcDbLine
 10
-44.997437772133694
 20
-45.35003405843558
 30
0.0
 11
-44.99819401866456
 21
-45.35003404848619
 31
0.0
  0
LINE
  5
EA
330
17
100
AcDbEntity
  8
visible
100
AcDbLine
 10
-44.99612014301837
 20
-42.400324845687884
 30
0.0
 11
-44.99685984246975
 21
-42.40032483595619
 31
0.0
  0
LINE
  5
EB
330
17
100
AcDbEntity
  8
visible
100
AcDbLine
 10
-45.008434862009935
 20
-43.239477721093955
 30
0.0
 11
-45.00909437572012
 21
-43.239477712417205
 31
0.0
  0
LINE
  5
EC
330
17
100
AcDbEntity
  8
visible
100
AcDbLine
 10
-45.00814876114905
 20
-45.76651939866771
 30
0.0
 11
-45.00909437572012
 21
-43.239477712417205
 31
0.0
  0
LINE
  5
ED
330
17
100
AcDbEntity
  8
visible
100
AcDbLine
 10
-45.00746102680912
 20
-45.76651940771574
 30
0.0
 11
-45.00814876114905
 21
-45.76651939866771
 31
0.0
  0
LINE
  5
EE
330
17
100
AcDbEntity
  8
visible
100
AcDbLine
 10
-45.007451570246026
 20
-45.79105859988169
 30
0.0
 11
-45.01003655169274
 21
-45.79105856587294
 31
0.0
  0
LINE
  5
EF
330
17
100
AcDbEntity
  8
visible
100
AcDbLine
 10
-45.00909437572012
 20
-43.239477712417205
 30
0.0
 11
-45.01003655169274
 21
-45.79105856587293
 31
0.0
  0
LINE
  5
F0
330
17
100
AcDbEntity
  8
visible
100
AcDbLine
 10
-45.01003655169275
 20
-45.79105856587294
 30
0.0
 11
-45.00814876114906
 21
-45.76651939866771
 31
0.0
  0
ELLIPSE
  5
F1
330
17
100
AcDbEntity
  8
visible
100
AcDbEllipse
 10
-37.052295080265395
 20
-24.677482513938678
 30
0.0
 11
8.0
 21
2.710737232162539e-20
 31
0.0
 40
0.01307734578940119
 41
-3.141592653589793
 42
-3.1405866177622555
  0
ELLIPSE
  5
F2
330
17
100
AcDbEntity
  8
visible
100
AcDbEllipse
 10
-37.052295080265395
 20
-24.677482513938678
 30
0.0
 11
8.0
 21
2.710737232162539e-20
 31
0.0
 40
0.01307734578940119
 41
-3.14259868941744
 42
-3.141592653589793
  0
LINE
  5
F3
330
17
100
AcDbEntity
  8
visible
100
AcDbLine
 10
-45.0522910318334
 20
-24.677377263729273
 30
0.0
 11
-44.959735751302546
 21
-23.474262059945932
 31
0.0
  0
ELLIPSE
  5
F4
330
17
100
AcDbEntity
  8
visible
100
AcDbEllipse
 10
-36.95973979973455
 20
-23.474367310155337
 30
0.0
 11
-8.0
 21
-2.710737232162539e-20
 31
0.0
 40
0.01307734578940119
 41
4.711382944557043
 42
6.282179271351939
  0
ELLIPSE
  5
F5
330
17
100
AcDbEntity
  8
visible
100
AcDbEllipse
 10
35.040223764377416
 20
-23.475314562039962
 30
0.0
 11
8.0
 21
2.710737232162539e-20
 31
0.0
 40
0.01307734578940119
 41
-6.283185307179586
 42
-4.713395016212337
  0
ELLIPSE
  5
F6
330
17
100
AcDbEntity
  8
visible
100
AcDbEllipse
 10
35.040223764377416
 20
-23.475314562039962
 30
0.0
 11
8.0
 21
2.710737232162539e-20
 31
0.0
 40
0.01307734578940119
 41
-0.0010060358276469117
 42
-0.0
  0
LINE
  5
F7
330
17
100
AcDbEntity
  8
visible
100
AcDbLine
 10
-36.951691514470994
 20
-23.369748596782873
 30
0.0
 11
35.04827204964097
 21
-23.370695848667502
 31
0.0
  0
ELLIPSE
  5
F8
330
17
100
AcDbEntity
  8
visible
100
AcDbEllipse
 10
-37.052295080265395
 20
-28.677140465368232
 30
0.0
 11
8.0
 21
2.710737232162539e-20
 31
0.0
 40
0.01307734578940119
 41
-3.14259868941744
 42
-3.141592653589793
  0
LINE
  5
F9
330
17
100
AcDbEntity
  8
visible
100
AcDbLine
 10
-45.0522910318334
 20
-28.677035215158828
 30
0.0
 11
-44.959735751302546
 21
-27.473920011375487
 31
0.0
  0
ELLIPSE
  5
FA
330
17
100
AcDbEntity
  8
visible
100
AcDbEllipse
 10
-36.95973979973455
 20
-27.47402526158489
 30
0.0
 11
-8.0
 21
-2.710737232162539e-20
 31
0.0
 40
0.01307734578940119
 41
4.711382944557043
 42
6.282179271351939
  0
ELLIPSE
  5
FB
330
17
100
AcDbEntity
  8
visible
100
AcDbEllipse
 10
35.040223764377416
 20
-27.474972513469517
 30
0.0
 11
8.0
 21
2.710737232162539e-20
 31
0.0
 40
0.01307734578940119
 41
-6.283185307179586
 42
-4.713395016212337
  0
ELLIPSE
  5
FC
330
17
100
AcDbEntity
  8
visible
100
AcDbEllipse
 10
35.040223764377416
 20
-27.474972513469517
 30
0.0
 11
8.0
 21
2.710737232162539e-20
 31
0.0
 40
0.01307734578940119
 41
-0.0010060358276469117
 42
-0.0
  0
LINE
  5
FD
330
17
100
AcDbEntity
  8
visible
100
AcDbLine
 10
-36.951691514470994
 20
-27.369406548212428
 30
0.0
 11
35.04827204964097
 21
-27.370353800097057
 31
0.0
  0
ELLIPSE
  5
FE
330
17
100
AcDbEntity
  8
visible
100
AcDbEllipse
 10
-1.0060356579439897
 20
-16.5770398790589
 30
0.0
 11
22.5
 21
7.623948465457141e-20
 31
0.0
 40
0.01307734578940119
 41
-6.283185307179586
 42
-4.713395016212337
  0
ELLIPSE
  5
FF
330
17
100
AcDbEntity
  8
visible
100
AcDbEllipse
 10
-1.0060356579439897
 20
-16.5770398790589
 30
0.0
 11
22.5
 21
7.623948465457141e-20
 31
0.0
 40
0.01307734578940119
 41
-4.713395016212337
 42
-3.141592653589793
  0
ELLIPSE
  5
100
330
17
100
AcDbEntity
  8
visible
100
AcDbEllipse
 10
-1.0060356579439897
 20
-14.377228005772643
 30
0.0
 11
22.5
 21
7.623948465457141e-20
 31
0.0
 40
0.01307734578940119
 41
-6.283185307179586
 42
-4.713395016212337
  0
ELLIPSE
  5
101
330
17
100
AcDbEntity
  8
visible
100
AcDbEllipse
 10
-1.0060356579439897
 20
-14.377228005772643
 30
0.0
 11
22.5
 21
7.623948465457141e-20
 31
0.0
 40
0.01307734578940119
 41
-4.713395016212337
 42
-3.141592653589793
  0
ELLIPSE
  5
102
330
17
100
AcDbEntity
  8
visible
100
AcDbEllipse
 10
-1.0060356579439897
 20
-16.37705698148742
 30
0.0
 11
22.5
 21
7.623948465457141e-20
 31
0.0
 40
0.01307734578940119
 41
-6.283185307179586
 42
-4.713395016212337
  0
ELLIPSE
  5
103
330
17
100
AcDbEntity
  8
visible
100
AcDbEllipse
 10
-1.0060356579439897
 20
-16.37705698148742
 30
0.0
 11
22.5
 21
7.623948465457141e-20
 31
0.0
 40
0.01307734578940119
 41
-0.346735318745407
 42
-0.0
  0
ELLIPSE
  5
104
330
17
100
AcDbEntity
  8
visible
100
AcDbEllipse
 10
-1.0060356579439897
 20
-16.37705698148742
 30
0.0
 11
22.5
 21
7.623948465457141e-20
 31
0.0
 40
0.01307734578940119
 41
-3.141592653589793
 42
-2.7948573348443864
  0
ELLIPSE
  5
105
330
17
100
AcDbEntity
  8
visible
100
AcDbEllipse
 10
-1.0060356579439897
 20
-16.37705698148742
 30
0.0
 11
22.5
 21
7.623948465457141e-20
 31
0.0
 40
0.01307734578940119
 41
-4.713395016212337
 42
-3.141592653589793
  0
ELLIPSE
  5
106
330
17
100
AcDbEntity
  8
visible
100
AcDbEllipse
 10
-11.238169795934198
 20
-16.14475331695889
 30
0.0
 11
1.15
 21
3.896684771233649e-21
 31
0.0
 40
0.01307734578940119
 41
-6.283185307179586
 42
-4.713395016212337
  0
ELLIPSE
  5
107
330
17
100
AcDbEntity
  8
visible
100
AcDbEllipse
 10
-11.238169795934198
 20
-16.14475331695889
 30
0.0
 11
1.15
 21
3.896684771233649e-21
 31
0.0
 40
0.01307734578940119
 41
-3.141592653589793
 42
-0.0
  0
ELLIPSE
  5
108
330
17
100
AcDbEntity
  8
visible
100
AcDbEllipse
 10
-11.238169795934198
 20
-16.14475331695889
 30
0.0
 11
1.15
 21
3.896684771233649e-21
 31
0.0
 40
0.01307734578940119
 41
-4.713395016212337
 42
-3.141592653589793
  0
ELLIPSE
  5
109
330
17
100
AcDbEntity
  8
visible
100
AcDbEllipse
 10
-1.0060356579439897
 20
-16.37705698148742
 30
0.0
 11
17.5
 21
5.929737695355553e-20
 31
0.0
 40
0.01307734578940119
 41
-6.283185307179586
 42
-4.713395016212337
  0
ELLIPSE
  5
10A
330
17
100
AcDbEntity
  8
visible
100
AcDbEllipse
 10
-1.0060356579439897
 20
-16.37705698148742
 30
0.0
 11
17.5
 21
5.929737695355553e-20
 31
0.0
 40
0.01307734578940119
 41
-0.06329514971362626
 42
-0.0
  0
ELLIPSE
  5
10B
330
17
100
AcDbEntity
  8
visible
100
AcDbEllipse
 10
-1.0060356579439897
 20
-16.37705698148742
 30
0.0
 11
17.5
 21
5.929737695355553e-20
 31
0.0
 40
0.01307734578940119
 41
-3.141592653589793
 42
-3.0782975038761675
  0
ELLIPSE
  5
10C
330
17
100
AcDbEntity
  8
visible
100
AcDbEllipse
 10
-1.0060356579439897
 20
-16.37705698148742
 30
0.0
 11
17.5
 21
5.929737695355553e-20
 31
0.0
 40
0.01307734578940119
 41
-4.713395016212337
 42
-3.141592653589793
  0
ELLIPSE
  5
10D
330
17
100
AcDbEntity
  8
visible
100
AcDbEllipse
 10
19.493953967949
 20
-16.377326685149015
 30
0.0
 11
1.15
 21
3.896684771233649e-21
 31
0.0
 40
0.01307734578940119
 41
-6.283185307179586
 42
-4.713395016212337
  0
ELLIPSE
  5
10E
330
17
100
AcDbEntity
  8
visible
100
AcDbEllipse
 10
19.493953967949
 20
-16.377326685149015
 30
0.0
 11
1.15
 21
3.896684771233649e-21
 31
0.0
 40
0.01307734578940119
 41
-3.141592653589793
 42
-0.0
  0
ELLIPSE
  5
10F
330
17
100
AcDbEntity
  8
visible
100
AcDbEllipse
 10
19.493953967949
 20
-16.377326685149015
 30
0.0
 11
1.15
 21
3.896684771233649e-21
 31
0.0
 40
0.01307734578940119
 41
-4.713395016212337
 42
-3.141592653589793
  0
LINE
  5
110
330
17
100
AcDbEntity
  8
visible
100
AcDbLine
 10
11.025962222882464
 20
-13.161438664404844
 30
0.0
 11
11.03319366006782
 21
-13.067438063110075
 31
0.0
  0
ELLIPSE
  5
111
330
17
100
AcDbEntity
  8
visible
100
AcDbEllipse
 10
-1.0060356579439897
 20
-13.577296415486735
 30
0.0
 11
34.0
 21
1.152063323669079e-19
 31
0.0
 40
0.01307734578940119
 41
-6.283185307179586
 42
-5.074107736575908
  0
ELLIPSE
  5
112
330
17
100
AcDbEntity
  8
visible
100
AcDbEllipse
 10
-1.0060356579439897
 20
-13.577296415486735
 30
0.0
 11
34.0
 21
1.152063323669079e-19
 31
0.0
 40
0.01307734578940119
 41
-1.0974330008793751
 42
-0.0
  0
ELLIPSE
  5
113
330
17
100
AcDbEntity
  8
visible
100
AcDbEllipse
 10
-1.0060356579439897
 20
-13.577296415486735
 30
0.0
 11
34.0
 21
1.152063323669079e-19
 31
0.0
 40
0.01307734578940119
 41
-3.141592653589793
 42
-2.0441596527104178
  0
ELLIPSE
  5
114
330
17
100
AcDbEntity
  8
visible
100
AcDbEllipse
 10
-1.0060356579439897
 20
-13.577296415486735
 30
0.0
 11
34.0
 21
1.152063323669079e-19
 31
0.0
 40
0.01307734578940119
 41
-4.352682295848765
 42
-3.141592653589793
  0
LINE
  5
115
330
17
100
AcDbEntity
  8
visible
100
AcDbLine
 10
-12.966794194636169
 20
-13.067122312481864
 30
0.0
 11
11.03319366006782
 21
-13.067438063110073
 31
0.0
  0
LINE
  5
116
330
17
100
AcDbEntity
  8
visible
100
AcDbLine
 10
-12.974025631821524
 20
-13.161122913776639
 30
0.0
 11
-12.966794194636169
 21
-13.067122312481871
 31
0.0
  0
ELLIPSE
  5
117
330
17
100
AcDbEntity
  8
visible
100
AcDbEllipse
 10
-1.0060356579439897
 20
-13.577296415486735
 30
0.0
 11
15.5
 21
5.252053387314919e-20
 31
0.0
 40
0.01307734578940119
 41
-6.283185307179586
 42
-4.713395016212337
  0
ELLIPSE
  5
118
330
17
100
AcDbEntity
  8
visible
100
AcDbEllipse
 10
-1.0060356579439897
 20
-13.577296415486735
 30
0.0
 11
15.5
 21
5.252053387314919e-20
 31
0.0
 40
0.01307734578940119
 41
-4.713395016212337
 42
-3.141592653589793
  0
LINE
  5
119
330
17
100
AcDbEntity
  8
visible
100
AcDbLine
 10
11.03319366006782
 20
-13.067438063110075
 30
0.0
 11
11.03319366006782
 21
-7.167942584751481
 31
0.0
  0
ELLIPSE
  5
11A
330
17
100
AcDbEntity
  8
visible
100
AcDbEllipse
 10
-1.0060356579439897
 20
-7.577809488342403
 30
0.0
 11
34.0
 21
1.152063323669079e-19
 31
0.0
 40
0.01307734578940119
 41
-6.283185307179586
 42
-5.105981264564637
  0
ELLIPSE
  5
11B
330
17
100
AcDbEntity
  8
visible
100
AcDbEllipse
 10
-1.0060356579439897
 20
-7.577809488342403
 30
0.0
 11
34.0
 21
1.152063323669079e-19
 31
0.0
 40
0.01307734578940119
 41
-4.321283528439141
 42
-3.141592653589793
  0
LINE
  5
11C
330
17
100
AcDbEntity
  8
visible
100
AcDbLine
 10
-12.974025631821522
 20
-13.161122913776623
 30
0.0
 11
-12.974025631821522
 21
-7.192226138069508
 31
0.0
  0
LINE
  5
11D
330
17
100
AcDbEntity
  8
visible
100
AcDbLine
 10
-12.966794194636169
 20
-13.067122312481864
 30
0.0
 11
-12.966794194636169
 21
-7.16762683412327
 31
0.0
  0
LINE
  5
11E
330
17
100
AcDbEntity
  8
visible
100
AcDbLine
 10
11.03319366006782
 20
-7.167942584751482
 30
0.0
 11
-12.966794194636169
 21
-7.167626834123272
 31
0.0
  0
LINE
  5
11F
330
17
100
AcDbEntity
  8
visible
100
AcDbLine
 10
-12.968688800924228
 20
-7.192254598387765
 30
0.0
 11
-12.966794194636169
 21
-7.167626834123273
 31
0.0
  0
ELLIPSE
  5
120
330
17
100
AcDbEntity
  8
visible
100
AcDbEllipse
 10
-1.0060356579439897
 20
-16.37705698148742
 30
0.0
 11
15.5
 21
5.252053387314919e-20
 31
0.0
 40
0.01307734578940119
 41
-6.215325435870472
 42
-4.713395016212337
  0
ELLIPSE
  5
121
330
17
100
AcDbEntity
  8
visible
100
AcDbEllipse
 10
-1.0060356579439897
 20
-16.37705698148742
 30
0.0
 11
15.5
 21
5.252053387314919e-20
 31
0.0
 40
0.01307734578940119
 41
-4.713395016212337
 42
-3.209452524898907
  0
ELLIPSE
  5
122
330
17
100
AcDbEntity
  8
visible
100
AcDbEllipse
 10
10.432791549437043
 20
-7.173165626654402
 30
0.0
 11
-1.6
 21
-5.421474464325078e-21
 31
0.0
 40
0.01307734578940119
 41
1.955464219092912
 42
3.140586617762146
  0
LINE
  5
123
330
17
100
AcDbEntity
  8
visible
100
AcDbLine
 10
12.032790739750643
 20
-7.17318667669628
 30
0.0
 11
12.033595568276997
 21
-7.1627248053590336
 31
0.0
  0
ELLIPSE
  5
124
330
17
100
AcDbEntity
  8
visible
100
AcDbEllipse
 10
10.433596377963399
 20
-7.162703755317153
 30
0.0
 11
1.6
 21
5.421474464325078e-21
 31
0.0
 40
0.01307734578940119
 41
-6.283185307179585
 42
-4.713395016212336
  0
ELLIPSE
  5
125
330
17
100
AcDbEntity
  8
visible
100
AcDbEllipse
 10
10.433596377963399
 20
-7.162703755317153
 30
0.0
 11
1.6
 21
5.421474464325078e-21
 31
0.0
 40
0.01307734578940119
 41
-0.0010060358276469117
 42
8.881784197001252e-16
  0
LINE
  5
126
330
17
100
AcDbEntity
  8
visible
100
AcDbLine
 10
-12.36478242695268
 20
-7.141480049545862
 30
0.0
 11
10.435206035016108
 21
-7.141780012642662
 31
0.0
  0
ELLIPSE
  5
127
330
17
100
AcDbEntity
  8
visible
100
AcDbEllipse
 10
-12.366392084005392
 20
-7.162403792220353
 30
0.0
 11
-1.6
 21
-5.421474464325078e-21
 31
0.0
 40
0.01307734578940119
 41
4.711382944557043
 42
6.282179271351939
  0
LINE
  5
128
330
17
100
AcDbEntity
  8
visible
100
AcDbLine
 10
-13.967196102845344
 20
-7.172844613515719
 30
0.0
 11
-13.96639127431899
 21
-7.1623827421784725
 31
0.0
  0
ELLIPSE
  5
129
330
17
100
AcDbEntity
  8
visible
100
AcDbEllipse
 10
-12.367196912531748
 20
-7.172865663557602
 30
0.0
 11
1.6
 21
5.421474464325078e-21
 31
0.0
 40
0.01307734578940119
 41
-3.141592653589793
 42
-1.9561991371181833
  0
ELLIPSE
  5
12A
330
17
100
AcDbEntity
  8
visible
100
AcDbEllipse
 10
-12.367196912531748
 20
-7.172865663557602
 30
0.0
 11
1.6
 21
5.421474464325078e-21
 31
0.0
 40
0.01307734578940119
 41
-3.14259868941744
 42
-3.141592653589793
  0
ELLIPSE
  5
12B
330
17
100
AcDbEntity
  8
visible
100
AcDbEllipse
 10
-12.367196912531748
 20
15.925159005948089
 30
0.0
 11
1.6
 21
5.421474464325078e-21
 31
0.0
 40
0.01307734578940119
 41
-3.141592653589793
 42
-3.1405866177614827
  0
ELLIPSE
  5
12C
330
17
100
AcDbEntity
  8
visible
100
AcDbEllipse
 10
-12.367196912531748
 20
15.925159005948089
 30
0.0
 11
1.6
 21
5.421474464325078e-21
 31
0.0
 40
0.01307734578940119
 41
-3.14259868941744
 42
-3.141592653589793
  0
LINE
  5
12D
330
17
100
AcDbEntity
  8
visible
100
AcDbLine
 10
-13.967196102845346
 20
-7.172844613515721
 30
0.0
 11
-13.967196102845346
 21
15.925180055989966
 31
0.0
  0
ELLIPSE
  5
12E
330
17
100
AcDbEntity
  8
visible
100
AcDbEllipse
 10
-1.0060356579439897
 20
-16.37705698148742
 30
0.0
 11
12.4
 21
4.201642709851935e-20
 31
0.0
 40
0.01307734578940119
 41
-5.96502948231883
 42
-4.713395016212337
  0
ELLIPSE
  5
12F
330
17
100
AcDbEntity
  8
visible
100
AcDbEllipse
 10
-1.0060356579439897
 20
-16.37705698148742
 30
0.0
 11
12.4
 21
4.201642709851935e-20
 31
0.0
 40
0.01307734578940119
 41
-4.713395016212337
 42
-3.4597484784505035
  0
LINE
  5
130
330
17
100
AcDbEntity
  8
visible
100
AcDbLine
 10
12.033595568276997
 20
-7.162682705275259
 30
0.0
 11
12.033595568276997
 21
15.480873836717691
 31
0.0
  0
LINE
  5
131
330
17
100
AcDbEntity
  8
visible
100
AcDbLine
 10
10.43520603501611
 20
-7.141780012642663
 30
0.0
 11
10.43520603501611
 21
15.456815736792507
 31
0.0
  0
LINE
  5
132
330
17
100
AcDbEntity
  8
visible
100
AcDbLine
 10
-12.364782426952681
 20
-7.141480049545862
 30
0.0
 11
-12.364782426952681
 21
15.457115916923101
 31
0.0
  0
LINE
  5
133
330
17
100
AcDbEntity
  8
visible
100
AcDbLine
 10
-13.96478161726628
 20
15.956565670001709
 30
0.0
 11
-13.962770558058393
 21
15.956565643543644
 31
0.0
  0
LINE
  5
134
330
17
100
AcDbEntity
  8
visible
100
AcDbLine
 10
-13.96478161726628
 20
15.956565670001709
 30
0.0
 11
-13.96478161726628
 21
20.956138109288652
 31
0.0
  0
LINE
  5
135
330
17
100
AcDbEntity
  8
visible
100
AcDbLine
 10
-13.96478161726628
 20
20.956138109288645
 30
0.0
 11
-13.962770558058393
 21
20.95613808283058
 31
0.0
  0
LINE
  5
136
330
17
100
AcDbEntity
  8
visible
100
AcDbLine
 10
-13.96478161726628
 20
62.952546599299
 30
0.0
 11
-13.962770558058393
 21
62.95254657284094
 31
0.0
  0
LINE
  5
137
330
17
100
AcDbEntity
  8
visible
100
AcDbLine
 10
-13.96478161726628
 20
62.952546599299
 30
0.0
 11
-13.96478161726628
 21
67.95211903858595
 31
0.0
  0
LINE
  5
138
330
17
100
AcDbEntity
  8
visible
100
AcDbLine
 10
-13.96478161726628
 20
67.95211903858593
 30
0.0
 11
-13.962770558058393
 21
67.95211901212787
 31
0.0
  0
ELLIPSE
  5
139
330
17
100
AcDbEntity
  8
visible
100
AcDbEllipse
 10
8.03520724954571
 20
18.456062451569323
 30
0.0
 11
0.8973485830879775
 21
-0.0690327489674224
 31
0.0
 40
0.9999139818466622
 41
5.527118872542342
 42
6.283185307179586
  0
ELLIPSE
  5
13A
330
17
100
AcDbEntity
  8
visible
100
AcDbEllipse
 10
8.03520724954571
 20
18.456062451569323
 30
0.0
 11
0.8973485830879775
 21
-0.0690327489674224
 31
0.0
 40
0.9999139818466622
 41
0.0
 42
3.141592653589793
  0
ELLIPSE
  5
13B
330
17
100
AcDbEntity
  8
visible
100
AcDbEllipse
 10
8.03520724954571
 20
18.456062451569323
 30
0.0
 11
0.8973485830879775
 21
-0.0690327489674224
 31
0.0
 40
0.9999139818466622
 41
3.141592653589793
 42
3.897659088227078
  0
ELLIPSE
  5
13C
330
17
100
AcDbEntity
  8
visible
100
AcDbEllipse
 10
8.03520724954571
 20
65.45204338086661
 30
0.0
 11
0.8973485830879775
 21
-0.0690327489674224
 31
0.0
 40
0.9999139818466622
 41
5.527118872542303
 42
6.283185307179586
  0
ELLIPSE
  5
13D
330
17
100
AcDbEntity
  8
visible
100
AcDbEllipse
 10
8.03520724954571
 20
65.45204338086661
 30
0.0
 11
0.8973485830879775
 21
-0.0690327489674224
 31
0.0
 40
0.9999139818466622
 41
0.0
 42
3.141592653589793
  0
ELLIPSE
  5
13E
330
17
100
AcDbEntity
  8
visible
100
AcDbEllipse
 10
8.03520724954571
 20
65.45204338086661
 30
0.0
 11
0.8973485830879775
 21
-0.0690327489674224
 31
0.0
 40
0.9999139818466622
 41
3.141592653589793
 42
3.8976590882271447
  0
ELLIPSE
  5
13F
330
17
100
AcDbEntity
  8
visible
100
AcDbEllipse
 10
-9.964783641482281
 20
18.456299264540476
 30
0.0
 11
0.8973485830879775
 21
-0.0690327489674224
 31
0.0
 40
0.9999139818466622
 41
5.527118872542376
 42
6.283185307179586
  0
ELLIPSE
  5
140
330
17
100
AcDbEntity
  8
visible
100
AcDbEllipse
 10
-9.964783641482281
 20
18.456299264540476
 30
0.0
 11
0.8973485830879775
 21
-0.0690327489674224
 31
0.0
 40
0.9999139818466622
 41
0.0
 42
3.141592653589793
  0
ELLIPSE
  5
141
330
17
100
AcDbEntity
  8
visible
100
AcDbEllipse
 10
-9.964783641482281
 20
18.456299264540476
 30
0.0
 11
0.8973485830879775
 21
-0.0690327489674224
 31
0.0
 40
0.9999139818466622
 41
3.141592653589793
 42
3.8976590882269626
  0
ELLIPSE
  5
142
330
17
100
AcDbEntity
  8
visible
100
AcDbEllipse
 10
-9.964783641482281
 20
65.45228019383778
 30
0.0
 11
0.8973485830879775
 21
-0.0690327489674224
 31
0.0
 40
0.9999139818466622
 41
5.527118872542217
 42
6.283185307179586
  0
ELLIPSE
  5
143
330
17
100
AcDbEntity
  8
visible
100
AcDbEllipse
 10
-9.964783641482281
 20
65.45228019383778
 30
0.0
 11
0.8973485830879775
 21
-0.0690327489674224
 31
0.0
 40
0.9999139818466622
 41
0.0
 42
3.141592653589793
  0
ELLIPSE
  5
144
330
17
100
AcDbEntity
  8
visible
100
AcDbEllipse
 10
-9.964783641482281
 20
65.45228019383778
 30
0.0
 11
0.8973485830879775
 21
-0.0690327489674224
 31
0.0
 40
0.9999139818466622
 41
3.141592653589793
 42
3.897659088227271
  0
ELLIPSE
  5
145
330
17
100
AcDbEntity
  8
visible
100
AcDbEllipse
 10
-12.366392084005392
 20
15.93562087728533
 30
0.0
 11
1.6
 21
5.421474464325078e-21
 31
0.0
 40
0.01307734578940119
 41
-3.2088876475059864
 42
-3.14259868941744
  0
LINE
  5
146
330
17
100
AcDbEntity
  8
visible
100
AcDbLine
 10
-13.96639127431899
 20
-7.1623827421784725
 30
0.0
 11
-13.96639127431899
 21
15.935641927327215
 31
0.0
  0
LINE
  5
147
330
17
100
AcDbEntity
  8
visible
100
AcDbLine
 10
-13.968805759898055
 20
15.904256313315472
 30
0.0
 11
-13.967196102845344
 21
15.925180055989964
 31
0.0
  0
LINE
  5
148
330
17
100
AcDbEntity
  8
visible
100
AcDbLine
 10
-13.968805759898055
 20
15.904256313315472
 30
0.0
 11
-13.968805759898055
 21
20.903828752602415
 31
0.0
  0
LINE
  5
149
330
17
100
AcDbEntity
  8
visible
100
AcDbLine
 10
-13.968805759898055
 20
20.903828752602408
 30
0.0
 11
-13.967196102845344
 21
20.924752495276902
 31
0.0
  0
LINE
  5
14A
330
17
100
AcDbEntity
  8
visible
100
AcDbLine
 10
-13.967196102845346
 20
20.924752495276913
 30
0.0
 11
-13.967196102845346
 21
62.921160985287244
 31
0.0
  0
LINE
  5
14B
330
17
100
AcDbEntity
  8
visible
100
AcDbLine
 10
-13.968805759898055
 20
62.90023724261276
 30
0.0
 11
-13.967196102845344
 21
62.92116098528725
 31
0.0
  0
LINE
  5
14C
330
17
100
AcDbEntity
  8
visible
100
AcDbLine
 10
-13.968805759898055
 20
62.90023724261276
 30
0.0
 11
-13.968805759898055
 21
67.89980968189971
 31
0.0
  0
LINE
  5
14D
330
17
100
AcDbEntity
  8
visible
100
AcDbLine
 10
-13.968805759898055
 20
67.8998096818997
 30
0.0
 11
-13.96478161726628
 21
67.95211903858593
 31
0.0
  0
LINE
  5
14E
330
17
100
AcDbEntity
  8
visible
100
AcDbLine
 10
-13.96639127431899
 20
62.9316228566245
 30
0.0
 11
-13.96478161726628
 21
62.95254659929899
 31
0.0
  0
LINE
  5
14F
330
17
100
AcDbEntity
  8
visible
100
AcDbLine
 10
-13.96639127431899
 20
20.93521436661416
 30
0.0
 11
-13.96639127431899
 21
62.93162285662449
 31
0.0
  0
LINE
  5
150
330
17
100
AcDbEntity
  8
visible
100
AcDbLine
 10
-13.96639127431899
 20
20.935214366614147
 30
0.0
 11
-13.96478161726628
 21
20.95613810928864
 31
0.0
  0
LINE
  5
151
330
17
100
AcDbEntity
  8
visible
100
AcDbLine
 10
-13.96639127431899
 20
15.935641927327211
 30
0.0
 11
-13.96478161726628
 21
15.956565670001703
 31
0.0
  0
LINE
  5
152
330
17
100
AcDbEntity
  8
visible
100
AcDbLine
 10
-13.968805759898055
 20
15.904256313315472
 30
0.0
 11
-13.967196912531747
 21
15.90425629214902
 31
0.0
  0
LINE
  5
153
330
17
100
AcDbEntity
  8
visible
100
AcDbLine
 10
-13.968805759898055
 20
62.90023724261276
 30
0.0
 11
-13.967196912531747
 21
62.90023722144631
 31
0.0
  0
ELLIPSE
  5
154
330
17
100
AcDbEntity
  8
visible
100
AcDbEllipse
 10
8.031183106913934
 20
18.403753094883086
 30
0.0
 11
0.8973485830879775
 21
-0.0690327489674224
 31
0.0
 40
0.9999139818466622
 41
0.029153257003122546
 42
3.1124393965866775
  0
ELLIPSE
  5
155
330
17
100
AcDbEntity
  8
visible
100
AcDbEllipse
 10
8.031183106913934
 20
65.39973402418038
 30
0.0
 11
0.8973485830879775
 21
-0.0690327489674224
 31
0.0
 40
0.9999139818466622
 41
0.029153257003122546
 42
3.1124393965866615
  0
ELLIPSE
  5
156
330
17
100
AcDbEntity
  8
visible
100
AcDbEllipse
 10
-9.968807784114057
 20
18.40398990785424
 30
0.0
 11
0.8973485830879775
 21
-0.0690327489674224
 31
0.0
 40
0.9999139818466622
 41
0.029153257003138533
 42
3.1124393965867094
  0
ELLIPSE
  5
157
330
17
100
AcDbEntity
  8
visible
100
AcDbEllipse
 10
-9.968807784114057
 20
65.39997083715154
 30
0.0
 11
0.8973485830879775
 21
-0.0690327489674224
 31
0.0
 40
0.9999139818466622
 41
0.02915325700318605
 42
3.1124393965866934
  0
ELLIPSE
  5
158
330
17
100
AcDbEntity
  8
visible
100
AcDbEllipse
 10
-12.366392084005392
 20
62.931601806582606
 30
0.0
 11
1.6
 21
5.421474464325078e-21
 31
0.0
 40
0.01307734578940119
 41
-3.2088876475059864
 42
-3.14259868941744
  0
ELLIPSE
  5
159
330
17
100
AcDbEntity
  8
visible
100
AcDbEllipse
 10
-12.367196912531748
 20
20.924731445235025
 30
0.0
 11
1.6
 21
5.421474464325078e-21
 31
0.0
 40
0.01307734578940119
 41
-3.14259868941744
 42
-3.141592653589793
  0
ELLIPSE
  5
15A
330
17
100
AcDbEntity
  8
visible
100
AcDbEllipse
 10
-12.367196912531748
 20
62.921139935245364
 30
0.0
 11
1.6
 21
5.421474464325078e-21
 31
0.0
 40
0.01307734578940119
 41
-3.141592653589793
 42
-3.1405866177614827
  0
ELLIPSE
  5
15B
330
17
100
AcDbEntity
  8
visible
100
AcDbEllipse
 10
-12.367196912531748
 20
62.921139935245364
 30
0.0
 11
1.6
 21
5.421474464325078e-21
 31
0.0
 40
0.01307734578940119
 41
-3.14259868941744
 42
-3.141592653589793
  0
LINE
  5
15C
330
17
100
AcDbEntity
  8
visible
100
AcDbLine
 10
-11.96478262937428
 20
15.456582113520653
 30
0.0
 11
10.03520623743771
 21
15.456292675444795
 31
0.0
  0
ELLIPSE
  5
15D
330
17
100
AcDbEntity
  8
visible
100
AcDbEllipse
 10
8.03520724954571
 20
65.45204338086661
 30
0.0
 11
1.1466120783901934
 21
-0.08820851256948417
 31
0.0
 40
0.9999139818466622
 41
0.14306478570644243
 42
2.998527867883367
  0
ELLIPSE
  5
15E
330
17
100
AcDbEntity
  8
visible
100
AcDbEllipse
 10
-9.964783641482281
 20
65.45228019383778
 30
0.0
 11
1.1466120783901934
 21
-0.08820851256948417
 31
0.0
 40
0.9999139818466622
 41
0.14306478570639314
 42
2.998527867883368
  0
ELLIPSE
  5
15F
330
17
100
AcDbEntity
  8
visible
100
AcDbEllipse
 10
-11.962770558058393
 20
68.47820464830541
 30
0.0
 11
2.0
 21
6.776843080406347e-21
 31
0.0
 40
0.01307734578940119
 41
-3.141592653589793
 42
-3.1405866177622555
  0
ELLIPSE
  5
160
330
17
100
AcDbEntity
  8
visible
100
AcDbEllipse
 10
-11.962770558058393
 20
68.47820464830541
 30
0.0
 11
2.0
 21
6.776843080406347e-21
 31
0.0
 40
0.01307734578940119
 41
-3.14259868941744
 42
-3.141592653589793
  0
LINE
  5
161
330
17
100
AcDbEntity
  8
visible
100
AcDbLine
 10
-13.962769545950392
 20
68.47823096085777
 30
0.0
 11
-13.941642797133568
 21
68.75285508346049
 31
0.0
  0
ELLIPSE
  5
162
330
17
100
AcDbEntity
  8
visible
100
AcDbEllipse
 10
-11.941643809241569
 20
68.75282877090812
 30
0.0
 11
-2.0
 21
-6.776843080406347e-21
 31
0.0
 40
0.01307734578940119
 41
4.711382944557043
 42
6.282179271351939
  0
ELLIPSE
  5
163
330
17
100
AcDbEntity
  8
visible
100
AcDbEllipse
 10
10.05834505757042
 20
68.75253933283226
 30
0.0
 11
2.0
 21
6.776843080406347e-21
 31
0.0
 40
0.01307734578940119
 41
-6.283185307179586
 42
-4.713395016212337
  0
ELLIPSE
  5
164
330
17
100
AcDbEntity
  8
visible
100
AcDbEllipse
 10
10.05834505757042
 20
68.75253933283226
 30
0.0
 11
2.0
 21
6.776843080406347e-21
 31
0.0
 40
0.01307734578940119
 41
-0.0010060358276469117
 42
-0.0
  0
LINE
  5
165
330
17
100
AcDbEntity
  8
visible
100
AcDbLine
 10
-11.939631737925682
 20
68.77898344925123
 30
0.0
 11
10.060357128886308
 21
68.77869401117538
 31
0.0
  0
ELLIPSE
  5
166
330
17
100
AcDbEntity
  8
visible
100
AcDbEllipse
 10
-11.962770558058393
 20
15.482736791863772
 30
0.0
 11
2.0
 21
6.776843080406347e-21
 31
0.0
 40
0.01307734578940119
 41
-3.141592653589793
 42
-1.5718023626225435
  0
ELLIPSE
  5
167
330
17
100
AcDbEntity
  8
visible
100
AcDbEllipse
 10
-11.962770558058393
 20
15.482736791863772
 30
0.0
 11
2.0
 21
6.776843080406347e-21
 31
0.0
 40
0.01307734578940119
 41
-3.14259868941744
 42
-3.141592653589793
  0
ELLIPSE
  5
168
330
17
100
AcDbEntity
  8
visible
100
AcDbEllipse
 10
10.037218308753596
 20
15.482447353787919
 30
0.0
 11
-2.0
 21
-6.776843080406347e-21
 31
0.0
 40
0.01307734578940119
 41
1.5697902909672496
 42
3.140586617762146
  0
LINE
  5
169
330
17
100
AcDbEntity
  8
visible
100
AcDbLine
 10
-13.962769545950392
 20
15.48276310441612
 30
0.0
 11
-13.941642797133568
 21
15.757387227018839
 31
0.0
  0
LINE
  5
16A
330
17
100
AcDbEntity
  8
visible
100
AcDbLine
 10
12.037217296645595
 20
15.482421041235567
 30
0.0
 11
12.05834404546242
 21
15.757045163838285
 31
0.0
  0
ELLIPSE
  5
16B
330
17
100
AcDbEntity
  8
visible
100
AcDbEllipse
 10
-11.941643809241569
 20
15.757360914466489
 30
0.0
 11
-2.0
 21
-6.776843080406347e-21
 31
0.0
 40
0.01307734578940119
 41
4.711382944557043
 42
6.282179271351939
  0
ELLIPSE
  5
16C
330
17
100
AcDbEntity
  8
visible
100
AcDbEllipse
 10
10.05834505757042
 20
15.757071476390635
 30
0.0
 11
2.0
 21
6.776843080406347e-21
 31
0.0
 40
0.01307734578940119
 41
-6.283185307179586
 42
-4.713395016212337
  0
ELLIPSE
  5
16D
330
17
100
AcDbEntity
  8
visible
100
AcDbEllipse
 10
10.05834505757042
 20
15.757071476390635
 30
0.0
 11
2.0
 21
6.776843080406347e-21
 31
0.0
 40
0.01307734578940119
 41
-0.0010060358276469117
 42
-0.0
  0
LINE
  5
16E
330
17
100
AcDbEntity
  8
visible
100
AcDbLine
 10
-11.939631737925682
 20
15.783515592809607
 30
0.0
 11
10.060357128886308
 21
15.783226154733748
 31
0.0
  0
LINE
  5
16F
330
17
100
AcDbEntity
  8
visible
100
AcDbLine
 10
-4.954222797343872
 20
15.59380208088878
 30
0.0
 11
-4.963277118265368
 21
15.476106028344757
 31
0.0
  0
LINE
  5
170
330
17
100
AcDbEntity
  8
visible
100
AcDbLine
 10
-4.954222797343872
 20
15.593802080888787
 30
0.0
 11
3.0457731542241238
 21
15.593696830679384
 31
0.0
  0
LINE
  5
171
330
17
100
AcDbEntity
  8
visible
100
AcDbLine
 10
3.0457731542241238
 20
15.593696830679379
 30
0.0
 11
3.036718833302628
 21
15.476000778135356
 31
0.0
  0
LINE
  5
172
330
17
100
AcDbEntity
  8
visible
100
AcDbLine
 10
-4.963277118265369
 20
15.476106028344768
 30
0.0
 11
3.0367188333026274
 21
15.476000778135365
 31
0.0
  0
LINE
  5
173
330
17
100
AcDbEntity
  8
visible
100
AcDbLine
 10
9.196828155355641
 20
65.60309460359177
 30
0.0
 11
9.207805314992733
 21
65.74578541040468
 31
0.0
  0
ELLIPSE
  5
174
330
17
100
AcDbEntity
  8
visible
100
AcDbEllipse
 10
8.060358140994309
 20
65.77897686015557
 30
0.0
 11
1.1466120783901934
 21
-0.08820851256948417
 31
0.0
 40
0.9999139818466622
 41
4.789160868125054
 42
6.283185307179586
  0
ELLIPSE
  5
175
330
17
100
AcDbEntity
  8
visible
100
AcDbEllipse
 10
8.060358140994309
 20
65.77897686015557
 30
0.0
 11
1.1466120783901934
 21
-0.08820851256948417
 31
0.0
 40
0.9999139818466622
 41
0.0
 42
3.141592653589793
  0
ELLIPSE
  5
176
330
17
100
AcDbEntity
  8
visible
100
AcDbEllipse
 10
8.060358140994309
 20
65.77897686015557
 30
0.0
 11
1.1466120783901934
 21
-0.08820851256948417
 31
0.0
 40
0.9999139818466622
 41
3.141592653589793
 42
4.789160868125054
  0
SPLINE
  5
177
330
17
100
AcDbEntity
  8
visible
100
AcDbSpline
 70
0
 71
1
 72
4
 73
2
 74
0
 40
0.0
 40
0.0
 40
1.0
 40
1.0
 10
9.205575600117292
 20
65.67420604460855
 30
0.0
 10
9.207805314992733
 20
65.74578541040464
 30
0.0
  0
LINE
  5
178
330
17
100
AcDbEntity
  8
visible
100
AcDbLine
 10
-8.803162735672355
 20
65.60333141656288
 30
0.0
 11
-8.79164540331167
 21
65.753043865066
 31
0.0
  0
ELLIPSE
  5
179
330
17
100
AcDbEntity
  8
visible
100
AcDbEllipse
 10
-9.939632750033683
 20
65.7792136731267
 30
0.0
 11
1.1466120783901934
 21
-0.08820851256948417
 31
0.0
 40
0.9999139818466622
 41
4.789160868125054
 42
6.283185307179586
  0
ELLIPSE
  5
17A
330
17
100
AcDbEntity
  8
visible
100
AcDbEllipse
 10
-9.939632750033683
 20
65.7792136731267
 30
0.0
 11
1.1466120783901934
 21
-0.08820851256948417
 31
0.0
 40
0.9999139818466622
 41
0.0
 42
3.141592653589793
  0
ELLIPSE
  5
17B
330
17
100
AcDbEntity
  8
visible
100
AcDbEllipse
 10
-9.939632750033683
 20
65.7792136731267
 30
0.0
 11
1.1466120783901934
 21
-0.08820851256948417
 31
0.0
 40
0.9999139818466622
 41
3.141592653589793
 42
4.789160868125054
  0
ELLIPSE
  5
17C
330
17
100
AcDbEntity
  8
visible
100
AcDbEllipse
 10
-9.94164482134957
 20
65.75305899478361
 30
0.0
 11
1.1466120783901934
 21
-0.08820851256948417
 31
0.0
 40
0.9999139818466622
 41
0.011406427689688137
 42
0.07677188774036492
  0
ELLIPSE
  5
17D
330
17
100
AcDbEntity
  8
visible
100
AcDbEllipse
 10
-9.939632750033683
 20
18.78323274382943
 30
0.0
 11
1.1466120783901934
 21
-0.08820851256948417
 31
0.0
 40
0.9999139818466622
 41
4.789160868125054
 42
6.283185307179586
  0
ELLIPSE
  5
17E
330
17
100
AcDbEntity
  8
visible
100
AcDbEllipse
 10
-9.939632750033683
 20
18.78323274382943
 30
0.0
 11
1.1466120783901934
 21
-0.08820851256948417
 31
0.0
 40
0.9999139818466622
 41
0.0
 42
3.141592653589793
  0
ELLIPSE
  5
17F
330
17
100
AcDbEntity
  8
visible
100
AcDbEllipse
 10
-9.939632750033683
 20
18.78323274382943
 30
0.0
 11
1.1466120783901934
 21
-0.08820851256948417
 31
0.0
 40
0.9999139818466622
 41
3.141592653589793
 42
4.789160868125054
  0
SPLINE
  5
180
330
17
100
AcDbEntity
  8
visible
100
AcDbSpline
 70
0
 71
3
 72
14
 73
10
 74
0
 40
0.0
 40
0.0
 40
0.0
 40
0.0
 40
0.25936000169220513
 40
0.25936000169220513
 40
0.25936000169220513
 40
0.5664547070182897
 40
0.5664547070182897
 40
0.5664547070182897
 40
0.9424464272640233
 40
0.9424464272640233
 40
0.9424464272640233
 40
0.9424464272640233
 10
-9.94164482134957
 20
19.90697972652229
 30
0.0
 10
-10.11590142055759
 20
19.907366690373934
 30
0.0
 10
-10.287240685108264
 20
19.86562811416332
 30
0.0
 10
-10.432889750697894
 20
19.79575068703659
 30
0.0
 10
-10.605532727206871
 20
19.710478724155916
 30
0.0
 10
-10.744854790802165
 20
19.597752449649334
 30
0.0
 10
-10.85085594148377
 20
19.457571863516833
 30
0.0
 10
-10.981313740551858
 20
19.288284142944484
 30
0.0
 10
-11.067025499661613
 20
19.079158037415073
 30
0.0
 10
-11.08739865501996
 20
18.854880353245804
 30
0.0
  0
ELLIPSE
  5
181
330
17
100
AcDbEntity
  8
visible
100
AcDbEllipse
 10
-9.94164482134957
 20
18.75707806548631
 30
0.0
 11
1.1466120783901934
 21
-0.08820851256948417
 31
0.0
 40
0.9999139818466622
 41
0.07677188774036492
 42
1.6475682145352615
  0
LINE
  5
182
330
17
100
AcDbEntity
  8
visible
100
AcDbLine
 10
-8.80316273567235
 20
18.607350487265663
 30
0.0
 11
-8.79164540331167
 21
18.75706293576872
 31
0.0
  0
ELLIPSE
  5
183
330
17
100
AcDbEntity
  8
visible
100
AcDbEllipse
 10
8.060358140994309
 20
18.782995930858277
 30
0.0
 11
1.1466120783901934
 21
-0.08820851256948417
 31
0.0
 40
0.9999139818466622
 41
4.789160868125054
 42
6.283185307179586
  0
ELLIPSE
  5
184
330
17
100
AcDbEntity
  8
visible
100
AcDbEllipse
 10
8.060358140994309
 20
18.782995930858277
 30
0.0
 11
1.1466120783901934
 21
-0.08820851256948417
 31
0.0
 40
0.9999139818466622
 41
0.0
 42
3.141592653589793
  0
ELLIPSE
  5
185
330
17
100
AcDbEntity
  8
visible
100
AcDbEllipse
 10
8.060358140994309
 20
18.782995930858277
 30
0.0
 11
1.1466120783901934
 21
-0.08820851256948417
 31
0.0
 40
0.9999139818466622
 41
3.141592653589793
 42
4.789160868125054
  0
ELLIPSE
  5
186
330
17
100
AcDbEntity
  8
visible
100
AcDbEllipse
 10
8.058346069678421
 20
18.75684125251516
 30
0.0
 11
1.1466120783901934
 21
-0.08820851256948417
 31
0.0
 40
0.9999139818466622
 41
1.6475682145352615
 42
3.1301862259001156
  0
SPLINE
  5
187
330
17
100
AcDbEntity
  8
visible
100
AcDbSpline
 70
0
 71
3
 72
14
 73
10
 74
0
 40
0.0
 40
0.0
 40
0.0
 40
0.0
 40
0.43399817390251033
 40
0.43399817390251033
 40
0.43399817390251033
 40
0.7438124564304689
 40
0.7438124564304689
 40
0.7438124564304689
 40
1.0
 40
1.0
 40
1.0
 40
1.0
 10
9.207805314992726
 20
18.749804481107375
 30
0.0
 10
9.207413380589385
 20
19.013554461675614
 30
0.0
 10
9.118363862488359
 20
19.258967489776047
 30
0.0
 10
8.969807455149684
 20
19.453565162994806
 30
0.0
 10
8.863032565058173
 20
19.596252033787497
 30
0.0
 10
8.721942270204073
 20
19.710688195785746
 30
0.0
 10
8.546536570587417
 20
19.79687364898964
 30
0.0
 10
8.401642125828982
 20
19.86593884838616
 30
0.0
 10
8.231434780641791
 20
19.907118802905135
 30
0.0
 10
8.058346069678421
 20
19.906742913551156
 30
0.0
  0
LINE
  5
188
330
17
100
AcDbEntity
  8
visible
100
AcDbLine
 10
9.196828155355641
 20
18.60711367429448
 30
0.0
 11
9.20780531499273
 21
18.749804481107354
 31
0.0
  0
LINE
  5
189
330
17
100
AcDbEntity
  8
visible
100
AcDbLine
 10
5.06035965915631
 20
34.781667205405014
 30
0.0
 11
-6.939634268195684
 21
34.781825080719116
 31
0.0
  0
LINE
  5
18A
330
17
100
AcDbEntity
  8
visible
100
AcDbLine
 10
5.060359659156311
 20
34.781667205405014
 30
0.0
 11
5.060359659156311
 21
36.78149618111979
 31
0.0
  0
LINE
  5
18B
330
17
100
AcDbEntity
  8
visible
100
AcDbLine
 10
-6.939634268195683
 20
34.781825080719116
 30
0.0
 11
-6.939634268195683
 21
36.781654056433894
 31
0.0
  0
LINE
  5
18C
330
17
100
AcDbEntity
  8
visible
100
AcDbLine
 10
5.06035965915631
 20
36.78149618111979
 30
0.0
 11
-6.939634268195684
 21
36.781654056433894
 31
0.0
  0
LINE
  5
18D
330
17
100
AcDbEntity
  8
visible
100
AcDbLine
 10
5.06035965915631
 20
42.78098310826414
 30
0.0
 11
-6.939634268195684
 21
42.78114098357824
 31
0.0
  0
LINE
  5
18E
330
17
100
AcDbEntity
  8
visible
100
AcDbLine
 10
5.060359659156311
 20
42.78098310826414
 30
0.0
 11
5.060359659156311
 21
44.780812083978915
 31
0.0
  0
LINE
  5
18F
330
17
100
AcDbEntity
  8
visible
100
AcDbLine
 10
-6.939634268195683
 20
42.78114098357824
 30
0.0
 11
-6.939634268195683
 21
44.78096995929302
 31
0.0
  0
LINE
  5
190
330
17
100
AcDbEntity
  8
visible
100
AcDbLine
 10
5.06035965915631
 20
44.780812083978915
 30
0.0
 11
-6.939634268195684
 21
44.78096995929302
 31
0.0
  0
LINE
  5
191
330
17
100
AcDbEntity
  8
visible
100
AcDbLine
 10
5.06035965915631
 20
50.78029901112325
 30
0.0
 11
-6.939634268195684
 21
50.78045688643735
 31
0.0
  0
LINE
  5
192
330
17
100
AcDbEntity
  8
visible
100
AcDbLine
 10
5.060359659156311
 20
50.78029901112325
 30
0.0
 11
5.060359659156311
 21
52.780127986838025
 31
0.0
  0
LINE
  5
193
330
17
100
AcDbEntity
  8
visible
100
AcDbLine
 10
5.06035965915631
 20
52.780127986838025
 30
0.0
 11
-6.939634268195684
 21
52.78028586215213
 31
0.0
  0
LINE
  5
194
330
17
100
AcDbEntity
  8
visible
100
AcDbLine
 10
-6.939634268195683
 20
50.78045688643735
 30
0.0
 11
-6.939634268195683
 21
52.78028586215213
 31
0.0
  0
LINE
  5
195
330
17
100
AcDbEntity
  8
visible
100
AcDbLine
 10
3.0367188333026283
 20
15.476000778135358
 30
0.0
 11
3.0367188333026283
 21
15.593696949800592
 31
0.0
  0
LINE
  5
196
330
17
100
AcDbEntity
  8
visible
100
AcDbLine
 10
5.058347587840423
 20
34.7816672318764
 30
0.0
 11
5.058347587840423
 21
36.75534150277667
 31
0.0
  0
LINE
  5
197
330
17
100
AcDbEntity
  8
visible
100
AcDbLine
 10
5.058347587840423
 20
36.75534150277668
 30
0.0
 11
-6.939634268195683
 21
36.755499351619406
 31
0.0
  0
LINE
  5
198
330
17
100
AcDbEntity
  8
visible
100
AcDbLine
 10
5.058347587840423
 20
42.78098313473552
 30
0.0
 11
5.058347587840423
 21
44.75465740563579
 31
0.0
  0
LINE
  5
199
330
17
100
AcDbEntity
  8
visible
100
AcDbLine
 10
5.058347587840423
 20
44.754657405635804
 30
0.0
 11
-6.939634268195683
 21
44.75481525447853
 31
0.0
  0
LINE
  5
19A
330
17
100
AcDbEntity
  8
visible
100
AcDbLine
 10
5.058347587840423
 20
50.78029903759463
 30
0.0
 11
5.058347587840423
 21
52.7539733084949
 31
0.0
  0
LINE
  5
19B
330
17
100
AcDbEntity
  8
visible
100
AcDbLine
 10
5.058347587840423
 20
52.75397330849491
 30
0.0
 11
-6.939634268195683
 21
52.75413115733764
 31
0.0
  0
LINE
  5
19C
330
17
100
AcDbEntity
  8
visible
100
AcDbLine
 10
5.058347587840422
 20
36.75534150277667
 30
0.0
 11
5.06035965915631
 21
36.781496181119785
 31
0.0
  0
LINE
  5
19D
330
17
100
AcDbEntity
  8
visible
100
AcDbLine
 10
5.058347587840422
 20
44.7546574056358
 30
0.0
 11
5.06035965915631
 21
44.78081208397891
 31
0.0
  0
LINE
  5
19E
330
17
100
AcDbEntity
  8
visible
100
AcDbLine
 10
5.058347587840422
 20
52.753973308494906
 30
0.0
 11
5.06035965915631
 21
52.78012798683802
 31
0.0
  0
LINE
  5
19F
330
17
100
AcDbEntity
  8
visible
100
AcDbLine
 10
-27.537712370738213
 20
4.509534067289528
 30
0.0
 11
-13.967196912531747
 21
4.509355529749968
 31
0.0
  0
LINE
  5
1A0
330
17
100
AcDbEntity
  8
visible
100
AcDbLine
 10
12.033596377963399
 20
4.5090134559595505
 30
0.0
 11
25.462260808399762
 21
4.508836784652232
 31
0.0
  0
ELLIPSE
  5
1A1
330
17
100
AcDbEntity
  8
visible
100
AcDbEllipse
 10
25.5226229478764
 20
10.293049574232668
 30
0.0
 11
3.0
 21
1.016526462060952e-20
 31
0.0
 40
0.01307734578940119
 41
-6.283185307179586
 42
-4.713395016212337
  0
ELLIPSE
  5
1A2
330
17
100
AcDbEntity
  8
visible
100
AcDbEllipse
 10
25.5226229478764
 20
10.293049574232668
 30
0.0
 11
3.0
 21
1.016526462060952e-20
 31
0.0
 40
0.01307734578940119
 41
-0.0010060358276469117
 42
-0.0
  0
LINE
  5
1A3
330
17
100
AcDbEntity
  8
visible
100
AcDbLine
 10
12.033596377963399
 20
10.332459096903099
 30
0.0
 11
25.525641054850233
 21
10.332281591747332
 31
0.0
  0
LINE
  5
1A4
330
17
100
AcDbEntity
  8
visible
100
AcDbLine
 10
-27.47433212428774
 20
10.33297887438463
 30
0.0
 11
-13.967196912531747
 21
10.332801170693516
 31
0.0
  0
ELLIPSE
  5
1A5
330
17
100
AcDbEntity
  8
visible
100
AcDbEllipse
 10
-27.477350231261575
 20
10.293746856869959
 30
0.0
 11
-3.0
 21
-1.016526462060952e-20
 31
0.0
 40
0.01307734578940119
 41
4.711382944557043
 42
6.282179271351939
  0
LINE
  5
1A6
330
17
100
AcDbEntity
  8
visible
100
AcDbLine
 10
-30.534692745602378
 20
9.54837799291968
 30
0.0
 11
-30.477348713099573
 21
10.293786325698488
 31
0.0
  0
ELLIPSE
  5
1A7
330
17
100
AcDbEntity
  8
visible
100
AcDbEllipse
 10
-27.53469426376438
 20
9.54833852409115
 30
0.0
 11
3.0
 21
1.016526462060952e-20
 31
0.0
 40
0.01307734578940119
 41
-3.141592653589793
 42
-3.1405866177621995
  0
ELLIPSE
  5
1A8
330
17
100
AcDbEntity
  8
visible
100
AcDbEllipse
 10
-27.53469426376438
 20
9.54833852409115
 30
0.0
 11
3.0
 21
1.016526462060952e-20
 31
0.0
 40
0.01307734578940119
 41
-3.14259868941744
 42
-3.141592653589793
  0
ELLIPSE
  5
1A9
330
17
100
AcDbEntity
  8
visible
100
AcDbEllipse
 10
-27.53469426376438
 20
4.5487660848042
 30
0.0
 11
3.0
 21
1.016526462060952e-20
 31
0.0
 40
0.01307734578940119
 41
-3.141592653589793
 42
-1.5718023626225435
  0
ELLIPSE
  5
1AA
330
17
100
AcDbEntity
  8
visible
100
AcDbEllipse
 10
-27.53469426376438
 20
4.5487660848042
 30
0.0
 11
3.0
 21
1.016526462060952e-20
 31
0.0
 40
0.01307734578940119
 41
-3.14259868941744
 42
-3.141592653589793
  0
ELLIPSE
  5
1AB
330
17
100
AcDbEntity
  8
visible
100
AcDbEllipse
 10
25.465278915373595
 20
4.54806880216691
 30
0.0
 11
-3.0
 21
-1.016526462060952e-20
 31
0.0
 40
0.01307734578940119
 41
1.5697902909672496
 42
3.140586617762146
  0
LINE
  5
1AC
330
17
100
AcDbEntity
  8
visible
100
AcDbLine
 10
-30.534692745602378
 20
4.548805553632729
 30
0.0
 11
-30.477348713099573
 21
5.294213886411536
 31
0.0
  0
LINE
  5
1AD
330
17
100
AcDbEntity
  8
visible
100
AcDbLine
 10
28.465277397211594
 20
4.548029333338388
 30
0.0
 11
28.5226214297144
 21
5.293437666117195
 31
0.0
  0
ELLIPSE
  5
1AE
330
17
100
AcDbEntity
  8
visible
100
AcDbEllipse
 10
-27.477350231261575
 20
5.294174417583008
 30
0.0
 11
-3.0
 21
-1.016526462060952e-20
 31
0.0
 40
0.01307734578940119
 41
4.711382944557043
 42
6.282179271351939
  0
ELLIPSE
  5
1AF
330
17
100
AcDbEntity
  8
visible
100
AcDbEllipse
 10
25.5226229478764
 20
5.293477134945718
 30
0.0
 11
3.0
 21
1.016526462060952e-20
 31
0.0
 40
0.01307734578940119
 41
-6.283185307179586
 42
-4.713395016212337
  0
ELLIPSE
  5
1B0
330
17
100
AcDbEntity
  8
visible
100
AcDbEllipse
 10
25.5226229478764
 20
5.293477134945718
 30
0.0
 11
3.0
 21
1.016526462060952e-20
 31
0.0
 40
0.01307734578940119
 41
-0.0010060358276469117
 42
-0.0
  0
LINE
  5
1B1
330
17
100
AcDbEntity
  8
visible
100
AcDbLine
 10
-27.47433212428774
 20
5.333406435097678
 30
0.0
 11
-13.967196912531747
 21
5.3332287314065665
 31
0.0
  0
LINE
  5
1B2
330
17
100
AcDbEntity
  8
visible
100
AcDbLine
 10
12.033596377963399
 20
5.332886657616149
 30
0.0
 11
25.525641054850233
 21
5.332709152460382
 31
0.0
  0
LINE
  5
1B3
330
17
100
AcDbEntity
  8
visible
100
AcDbLine
 10
-14.499992612267318
 20
4.99976325463268
 30
0.0
 11
-14.512065040162646
 21
4.842835184573984
 31
0.0
  0
LINE
  5
1B4
330
17
100
AcDbEntity
  8
visible
100
AcDbLine
 10
-14.49999261226732
 20
4.999763254632681
 30
0.0
 11
-13.967196912531747
 21
4.9997562450217625
 31
0.0
  0
LINE
  5
1B5
330
17
100
AcDbEntity
  8
visible
100
AcDbLine
 10
12.033596377963399
 20
4.999414171231345
 30
0.0
 11
12.499993724274667
 21
4.999408035175945
 31
0.0
  0
LINE
  5
1B6
330
17
100
AcDbEntity
  8
visible
100
AcDbLine
 10
-14.512065040162646
 20
4.842835184573984
 30
0.0
 11
-13.967196912531747
 21
4.842828016134789
 31
0.0
  0
LINE
  5
1B7
330
17
100
AcDbEntity
  8
visible
100
AcDbLine
 10
12.033596377963399
 20
4.842485942344372
 30
0.0
 11
12.48792129637934
 21
4.842479965117247
 31
0.0
  0
LINE
  5
1B8
330
17
100
AcDbEntity
  8
visible
100
AcDbLine
 10
12.499993724274669
 20
4.999408035175944
 30
0.0
 11
12.48792129637934
 21
4.842479965117247
 31
0.0
  0
LINE
  5
1B9
330
17
100
AcDbEntity
  8
visible
100
AcDbLine
 10
21.980371221431756
 20
4.744274936706888
 30
0.0
 11
21.977353114457923
 21
4.705042919192214
 31
0.0
  0
LINE
  5
1BA
330
17
100
AcDbEntity
  8
visible
100
AcDbLine
 10
21.980371221431756
 20
4.744274936706893
 30
0.0
 11
24.980369703269755
 21
4.744235467878367
 31
0.0
  0
LINE
  5
1BB
330
17
100
AcDbEntity
  8
visible
100
AcDbLine
 10
21.977353114457927
 20
4.705042919192215
 30
0.0
 11
24.977351596295925
 21
4.705003450363689
 31
0.0
  0
LINE
  5
1BC
330
17
100
AcDbEntity
  8
visible
100
AcDbLine
 10
24.980369703269755
 20
4.74423546787837
 30
0.0
 11
24.97735159629592
 21
4.705003450363695
 31
0.0
  0
LINE
  5
1BD
330
17
100
AcDbEntity
  8
visible
100
AcDbLine
 10
22.010552291170075
 20
5.136595111853634
 30
0.0
 11
22.007534184196242
 21
5.097363094338959
 31
0.0
  0
LINE
  5
1BE
330
17
100
AcDbEntity
  8
visible
100
AcDbLine
 10
22.01055229117008
 20
5.136595111853629
 30
0.0
 11
25.010550773008077
 21
5.136555643025103
 31
0.0
  0
LINE
  5
1BF
330
17
100
AcDbEntity
  8
visible
100
AcDbLine
 10
25.010550773008074
 20
5.136555643025101
 30
0.0
 11
25.00753266603424
 21
5.097323625510427
 31
0.0
  0
LINE
  5
1C0
330
17
100
AcDbEntity
  8
visible
100
AcDbLine
 10
22.007534184196246
 20
5.097363094338951
 30
0.0
 11
25.007532666034244
 21
5.097323625510425
 31
0.0
  0
LINE
  5
1C1
330
17
100
AcDbEntity
  8
visible
100
AcDbLine
 10
-25.482381421659294
 20
15.227906287746762
 30
0.0
 11
-13.967196912531747
 21
15.227754790722484
 31
0.0
  0
LINE
  5
1C2
330
17
100
AcDbEntity
  8
visible
100
AcDbLine
 10
12.033596377963402
 20
15.227412716932067
 30
0.0
 11
23.517593781694682
 21
15.227261630214167
 31
0.0
  0
ELLIPSE
  5
1C3
330
17
100
AcDbEntity
  8
visible
100
AcDbEllipse
 10
23.515581710378793
 20
15.20110695187104
 30
0.0
 11
2.0
 21
6.776843080406347e-21
 31
0.0
 40
0.01307734578940119
 41
-6.283185307179586
 42
-4.713395016212337
  0
ELLIPSE
  5
1C4
330
17
100
AcDbEntity
  8
visible
100
AcDbEllipse
 10
23.515581710378793
 20
15.20110695187104
 30
0.0
 11
2.0
 21
6.776843080406347e-21
 31
0.0
 40
0.01307734578940119
 41
-0.0010060358276469117
 42
-0.0
  0
ELLIPSE
  5
1C5
330
17
100
AcDbEntity
  8
visible
100
AcDbEllipse
 10
-25.527653026266773
 20
14.639426025026651
 30
0.0
 11
2.0
 21
6.776843080406347e-21
 31
0.0
 40
0.01307734578940119
 41
-3.141592653589793
 42
-3.1405866177622555
  0
ELLIPSE
  5
1C6
330
17
100
AcDbEntity
  8
visible
100
AcDbEllipse
 10
-25.527653026266773
 20
14.639426025026651
 30
0.0
 11
2.0
 21
6.776843080406347e-21
 31
0.0
 40
0.01307734578940119
 41
-3.14259868941744
 42
-3.141592653589793
  0
LINE
  5
1C7
330
17
100
AcDbEntity
  8
visible
100
AcDbLine
 10
-27.52765201415877
 20
14.639452337579
 30
0.0
 11
-27.484392480867182
 21
15.201777921955994
 31
0.0
  0
ELLIPSE
  5
1C8
330
17
100
AcDbEntity
  8
visible
100
AcDbEllipse
 10
-25.484393492975183
 20
15.201751609403644
 30
0.0
 11
-2.0
 21
-6.776843080406347e-21
 31
0.0
 40
0.01307734578940119
 41
4.711382944557043
 42
6.282179271351939
  0
LINE
  5
1C9
330
17
100
AcDbEntity
  8
visible
100
AcDbLine
 10
12.48792129637934
 20
4.842479965117253
 30
0.0
 11
12.48792129637934
 21
4.9994081940042205
 31
0.0
  0
LINE
  5
1CA
330
17
100
AcDbEntity
  8
visible
100
AcDbLine
 10
24.97735159629592
 20
4.705003450363698
 30
0.0
 11
24.97735159629592
 21
4.744235507585436
 31
0.0
  0
LINE
  5
1CB
330
17
100
AcDbEntity
  8
visible
100
AcDbLine
 10
25.00753266603424
 20
5.097323625510434
 30
0.0
 11
25.00753266603424
 21
5.136555682732172
 31
0.0
  0
LINE
  5
1CC
330
17
100
AcDbEntity
  8
visible
100
AcDbLine
 10
5.058347587840422
 20
35.98075985829579
 30
0.0
 11
-6.939634268195683
 21
35.98091770713852
 31
0.0
  0
LINE
  5
1CD
330
17
100
AcDbEntity
  8
visible
100
AcDbLine
 10
-6.939634268195683
 20
36.255542107690715
 30
0.0
 11
5.058347587840424
 21
36.25538425884799
 31
0.0
  0
LINE
  5
1CE
330
17
100
AcDbEntity
  8
visible
100
AcDbLine
 10
43.040223764377416
 20
-55.982700167621736
 30
0.0
 11
45.0009833131776
 21
-55.98272596392893
 31
0.0
  0
LINE
  5
1CF
330
17
100
AcDbEntity
  8
visible
100
AcDbLine
 10
43.040223764377416
 20
-43.591405741115636
 30
0.0
 11
45.03116438291592
 21
-43.59143193449352
 31
0.0
  0
LINE
  5
1D0
330
17
100
AcDbEntity
  8
visible
100
AcDbLine
 10
45.03116438291592
 20
-55.59040578878219
 30
0.0
 11
45.03116438291592
 21
-43.59143193449353
 31
0.0
  0
LINE
  5
1D1
330
17
100
AcDbEntity
  8
visible
100
AcDbLine
 10
43.040223764377416
 20
-55.59037959540431
 30
0.0
 11
45.03116438291592
 21
-55.59040578878219
 31
0.0
  0
LINE
  5
1D2
330
17
100
AcDbEntity
  8
visible
100
AcDbLine
 10
45.0009833131776
 20
-55.98272596392893
 30
0.0
 11
45.03116438291592
 21
-55.590405788782185
 31
0.0
  0
ELLIPSE
  5
1D3
330
17
100
AcDbEntity
  8
visible
100
AcDbEllipse
 10
-28.506021741458976
 20
39.918490482478404
 30
0.0
 11
-0.00015129725256604758
 21
-11.499999999004745
 31
0.0
 40
0.0010059496296793387
 41
-6.283185307179586
 42
-4.699311255207971
  0
ELLIPSE
  5
1D4
330
17
100
AcDbEntity
  8
visible
100
AcDbEllipse
 10
-28.506021741458976
 20
39.918490482478404
 30
0.0
 11
-0.00015129725256604758
 21
-11.499999999004745
 31
0.0
 40
0.0010059496296793387
 41
-4.699311255207971
 42
-3.141592653589793
  0
ELLIPSE
  5
1D5
330
17
100
AcDbEntity
  8
visible
100
AcDbEllipse
 10
-30.506020729350976
 20
39.918516795030754
 30
0.0
 11
-0.00015129725256604758
 21
-11.499999999004745
 31
0.0
 40
0.0010059496296793387
 41
-6.283185307179586
 42
-4.699311255207971
  0
ELLIPSE
  5
1D6
330
17
100
AcDbEntity
  8
visible
100
AcDbEllipse
 10
-30.506020729350976
 20
39.918516795030754
 30
0.0
 11
-0.00015129725256604758
 21
-11.499999999004745
 31
0.0
 40
0.0010059496296793387
 41
-3.141592653589793
 42
-0.0
  0
ELLIPSE
  5
1D7
330
17
100
AcDbEntity
  8
visible
100
AcDbEllipse
 10
-30.506020729350976
 20
39.918516795030754
 30
0.0
 11
-0.00015129725256604758
 21
-11.499999999004745
 31
0.0
 40
0.0010059496296793387
 41
-4.699311255207971
 42
-3.141592653589793
  0
LINE
  5
1D8
330
17
100
AcDbEntity
  8
visible
100
AcDbLine
 10
-45.05229103183339
 20
-34.476539244731676
 30
0.0
 11
-45.05229103183339
 21
-28.677035215158824
 31
0.0
  0
LINE
  5
1D9
330
17
100
AcDbEntity
  8
visible
100
AcDbLine
 10
-44.959735751302546
 20
-33.273424040948335
 30
0.0
 11
-44.959735751302546
 21
-27.473920011375483
 31
0.0
  0
LINE
  5
1DA
330
17
100
AcDbEntity
  8
visible
100
AcDbLine
 10
43.04021971594541
 20
-33.274371292832974
 30
0.0
 11
43.04021971594541
 21
-27.475077763678925
 31
0.0
  0
LINE
  5
1DB
330
17
100
AcDbEntity
  8
visible
100
AcDbLine
 10
-36.951691514470994
 20
-33.168910577785276
 30
0.0
 11
-36.951691514470994
 21
-27.369406548212424
 31
0.0
  0
LINE
  5
1DC
330
17
100
AcDbEntity
  8
visible
100
AcDbLine
 10
35.04827204964097
 20
-33.1698578296699
 30
0.0
 11
35.04827204964097
 21
-27.37035380009705
 31
0.0
  0
LINE
  5
1DD
330
17
100
AcDbEntity
  8
visible
100
AcDbLine
 10
-44.35973605493494
 20
-34.43367486772422
 30
0.0
 11
-44.35973605493494
 21
-33.27343193471405
 31
0.0
  0
LINE
  5
1DE
330
17
100
AcDbEntity
  8
visible
100
AcDbLine
 10
-36.95229513586576
 20
-34.36880795557054
 30
0.0
 11
-36.95229513586576
 21
-33.176756981288214
 31
0.0
  0
LINE
  5
1DF
330
17
100
AcDbEntity
  8
visible
100
AcDbLine
 10
42.44022001957781
 20
-34.434622119608846
 30
0.0
 11
42.44022001957781
 21
-33.27457389948607
 31
0.0
  0
LINE
  5
1E0
330
17
100
AcDbEntity
  8
visible
100
AcDbLine
 10
35.047668428246205
 20
-34.36975520715736
 30
0.0
 11
35.047668428246205
 21
-33.17770423317284
 31
0.0
  0
LINE
  5
1E1
330
17
100
AcDbEntity
  8
visible
100
AcDbLine
 10
35.04827204964097
 20
-67.36693331439261
 30
0.0
 11
35.04827204964097
 21
-34.36975521509877
 31
0.0
  0
LINE
  5
1E2
330
17
100
AcDbEntity
  8
visible
100
AcDbLine
 10
-36.951691514470994
 20
-67.36598606250799
 30
0.0
 11
-36.951691514470994
 21
-34.368807963214145
 31
0.0
  0
LINE
  5
1E3
330
17
100
AcDbEntity
  8
visible
100
AcDbLine
 10
-45.05229103183339
 20
-68.67361472945439
 30
0.0
 11
-45.05229103183339
 21
-55.174769143379635
 31
0.0
  0
LINE
  5
1E4
330
17
100
AcDbEntity
  8
visible
100
AcDbLine
 10
-44.959735751302546
 20
-67.47049952567104
 30
0.0
 11
-44.959735751302546
 21
-34.473321426377204
 31
0.0
  0
LINE
  5
1E5
330
17
100
AcDbEntity
  8
visible
100
AcDbLine
 10
-45.05229103183339
 20
-43.17579528909097
 30
0.0
 11
-45.05229103183339
 21
-35.676436630160545
 31
0.0
  0
LINE
  5
1E6
330
17
100
AcDbEntity
  8
visible
100
AcDbLine
 10
43.04021971594541
 20
-67.4714467775557
 30
0.0
 11
43.04021971594541
 21
-34.474479178680646
 31
0.0
  0
LINE
  5
1E7
330
17
100
AcDbEntity
  8
visible
100
AcDbLine
 10
-45.01188307905515
 20
-43.24101975593378
 30
0.0
 11
-45.0126309742159
 21
-43.24101974609426
 31
0.0
  0
LINE
  5
1E8
330
17
100
AcDbEntity
  8
visible
100
AcDbLine
 10
-45.01342645703376
 20
-42.52456437738584
 30
0.0
 11
-45.013516413314264
 21
-42.524564376202356
 31
0.0
  0
LINE
  5
1E9
330
17
100
AcDbEntity
  8
visible
100
AcDbLine
 10
-45.01188307905515
 20
-43.09136231628865
 30
0.0
 11
-45.01341098628981
 21
-43.09136229618708
 31
0.0
  0
LINE
  5
1EA
330
17
100
AcDbEntity
  8
visible
100
AcDbLine
 10
-45.014304374230996
 20
-43.25760095612436
 30
0.0
 11
-45.01535262488135
 21
-43.257600942333276
 31
0.0
  0
LINE
  5
1EB
330
17
100
AcDbEntity
  8
visible
100
AcDbLine
 10
-45.0152907196609
 20
-45.20584844756636
 30
0.0
 11
-45.0160231515772
 21
-45.20584843793028
 31
0.0
  0
LINE
  5
1EC
330
17
100
AcDbEntity
  8
visible
100
AcDbLine
 10
-45.01423588791317
 20
-47.13324607646482
 30
0.0
 11
-45.01535262488135
 21
-47.13324606177272
 31
0.0
  0
LINE
  5
1ED
330
17
100
AcDbEntity
  8
visible
100
AcDbLine
 10
-45.01188307905515
 20
-47.250674582918094
 30
0.0
 11
-45.01347515013298
 21
-47.25067456197236
 31
0.0
  0
LINE
  5
1EE
330
17
100
AcDbEntity
  8
visible
100
AcDbLine
 10
-45.01188307905515
 20
-47.07907043417936
 30
0.0
 11
-45.0126309742159
 21
-47.07907042433984
 31
0.0
  0
LINE
  5
1EF
330
17
100
AcDbEntity
  8
visible
100
AcDbLine
 10
-45.05229103183339
 20
-28.677035215158824
 30
0.0
 11
-45.05229103183339
 21
-24.67737726372927
 31
0.0
  0
LINE
  5
1F0
330
17
100
AcDbEntity
  8
visible
100
AcDbLine
 10
-44.959735751302546
 20
-27.47392001137549
 30
0.0
 11
-44.959735751302546
 21
-23.474262059945936
 31
0.0
  0
LINE
  5
1F1
330
17
100
AcDbEntity
  8
visible
100
AcDbLine
 10
43.04021971594541
 20
-27.474867263260123
 30
0.0
 11
43.04021971594541
 21
-23.47541981224937
 31
0.0
  0
LINE
  5
1F2
330
17
100
AcDbEntity
  8
visible
100
AcDbLine
 10
-36.951691514470994
 20
-27.369406548212424
 30
0.0
 11
-36.951691514470994
 21
-23.36974859678287
 31
0.0
  0
LINE
  5
1F3
330
17
100
AcDbEntity
  8
visible
100
AcDbLine
 10
35.04827204964097
 20
-27.370353800097057
 30
0.0
 11
35.04827204964097
 21
-23.370695848667502
 31
0.0
  0
LINE
  5
1F4
330
17
100
AcDbEntity
  8
visible
100
AcDbLine
 10
-13.962769545950392
 20
15.482763104416122
 30
0.0
 11
-13.962769545950392
 21
68.47823096085773
 31
0.0
  0
LINE
  5
1F5
330
17
100
AcDbEntity
  8
visible
100
AcDbLine
 10
-13.941642797133568
 20
15.757387227018839
 30
0.0
 11
-13.941642797133568
 21
68.75285508346045
 31
0.0
  0
LINE
  5
1F6
330
17
100
AcDbEntity
  8
visible
100
AcDbLine
 10
12.05834404546242
 20
15.757097788942986
 30
0.0
 11
12.05834404546242
 21
68.7525130202799
 31
0.0
  0
LINE
  5
1F7
330
17
100
AcDbEntity
  8
visible
100
AcDbLine
 10
-11.939631737925682
 20
15.783515592809607
 30
0.0
 11
-11.939631737925682
 21
68.77898344925123
 31
0.0
  0
LINE
  5
1F8
330
17
100
AcDbEntity
  8
visible
100
AcDbLine
 10
10.060357128886308
 20
15.78322615473374
 30
0.0
 11
10.060357128886308
 21
68.77869401117536
 31
0.0
  0
LINE
  5
1F9
330
17
100
AcDbEntity
  8
visible
100
AcDbLine
 10
-30.534692745602378
 20
4.548805553632732
 30
0.0
 11
-30.534692745602378
 21
9.548377992919677
 31
0.0
  0
LINE
  5
1FA
330
17
100
AcDbEntity
  8
visible
100
AcDbLine
 10
28.5226214297144
 20
5.293516603774236
 30
0.0
 11
28.5226214297144
 21
10.29301010540413
 31
0.0
  0
LINE
  5
1FB
330
17
100
AcDbEntity
  8
visible
100
AcDbLine
 10
25.525641054850233
 20
5.332709152460396
 30
0.0
 11
25.525641054850233
 21
10.332281591747341
 31
0.0
  0
LINE
  5
1FC
330
17
100
AcDbEntity
  8
visible
100
AcDbLine
 10
-27.47433212428774
 20
5.333406435097686
 30
0.0
 11
-27.47433212428774
 21
10.332978874384631
 31
0.0
  0
LINE
  5
1FD
330
17
100
AcDbEntity
  8
visible
100
AcDbLine
 10
23.517593781694682
 20
10.3323080101852
 30
0.0
 11
23.517593781694682
 21
15.227261630214167
 31
0.0
  0
LINE
  5
1FE
330
17
100
AcDbEntity
  8
visible
100
AcDbLine
 10
-25.482381421659294
 20
10.332952667717795
 30
0.0
 11
-25.482381421659294
 21
15.227906287746771
 31
0.0
  0
LINE
  5
1FF
330
17
100
AcDbEntity
  8
visible
100
AcDbLine
 10
25.515580698270792
 20
10.332281724104229
 30
0.0
 11
25.515580698270792
 21
15.201080639318699
 31
0.0
  0
LINE
  5
200
330
17
100
AcDbEntity
  8
visible
100
AcDbLine
 10
-27.52765201415877
 20
10.3329733789826
 30
0.0
 11
-27.52765201415877
 21
14.63945233757901
 31
0.0
  0
LINE
  5
201
330
17
100
AcDbEntity
  8
visible
100
AcDbLine
 10
-27.484392480867182
 20
10.332978786146597
 30
0.0
 11
-27.484392480867182
 21
15.201777921956003
 31
0.0
  0
LINE
  5
202
330
17
100
AcDbEntity
  8
visible
100
AcDbLine
 10
-30.477348713099573
 20
5.294213886411541
 30
0.0
 11
-30.477348713099573
 21
10.293786325698486
 31
0.0
  0
ELLIPSE
  5
203
330
17
100
AcDbEntity
  8
visible
100
AcDbEllipse
 10
-24.529665603636662
 20
18.61291614183692
 30
0.0
 11
4.0
 21
1.3553686160812694e-20
 31
0.0
 40
0.01307734578940119
 41
-3.14259868941744
 42
-3.141592653589793
  0
ELLIPSE
  5
204
330
17
100
AcDbEntity
  8
visible
100
AcDbEllipse
 10
-24.529665603636662
 20
60.60932463184726
 30
0.0
 11
4.0
 21
1.3553686160812694e-20
 31
0.0
 40
0.01307734578940119
 41
-3.141592653589793
 42
-3.1405866177622555
  0
ELLIPSE
  5
205
330
17
100
AcDbEntity
  8
visible
100
AcDbEllipse
 10
-24.529665603636662
 20
60.60932463184726
 30
0.0
 11
4.0
 21
1.3553686160812694e-20
 31
0.0
 40
0.01307734578940119
 41
-3.14259868941744
 42
-3.141592653589793
  0
LINE
  5
206
330
17
100
AcDbEntity
  8
visible
100
AcDbLine
 10
-28.52966357942066
 20
18.612968766941606
 30
0.0
 11
-28.52966357942066
 21
28.418490792521844
 31
0.0
  0
LINE
  5
207
330
17
100
AcDbEntity
  8
visible
100
AcDbLine
 10
-28.52966357942066
 20
51.418490794512365
 30
0.0
 11
-28.52966357942066
 21
60.609377256951944
 31
0.0
  0
ELLIPSE
  5
208
330
17
100
AcDbEntity
  8
visible
100
AcDbEllipse
 10
-24.529665603636662
 20
18.61291614183692
 30
0.0
 11
-5.2625131328209e-05
 21
-3.9999999996538245
 31
0.0
 40
0.001005949629679336
 41
-1.5577186016181788
 42
-0.5618788499550593
  0
ELLIPSE
  5
209
330
17
100
AcDbEntity
  8
visible
100
AcDbEllipse
 10
-24.529665603636662
 20
60.60932463184726
 30
0.0
 11
5.2625131328209e-05
 21
3.9999999996538245
 31
0.0
 40
0.001005949629679336
 41
0.01307772517671868
 42
1.5838740519716152
  0
ELLIPSE
  5
20A
330
17
100
AcDbEntity
  8
visible
100
AcDbEllipse
 10
-24.529665603636662
 20
18.61291614183692
 30
0.0
 11
-3.9882159248354565
 21
0.30681221763297506
 31
0.0
 40
0.9999139818466622
 41
-6.206413419439225
 42
-5.195037350486574
  0
ELLIPSE
  5
20B
330
17
100
AcDbEntity
  8
visible
100
AcDbEllipse
 10
-24.529665603636662
 20
60.60932463184726
 30
0.0
 11
3.9882159248354565
 21
-0.30681221763297506
 31
0.0
 40
0.9999139818466622
 41
3.1415926535897882
 42
3.2183645413301547
  0
LINE
  5
20C
330
17
100
AcDbEntity
  8
visible
100
AcDbLine
 10
-28.529663579420664
 20
18.61296876694163
 30
0.0
 11
-28.482379903497293
 21
19.227603708004857
 31
0.0
  0
LINE
  5
20D
330
17
100
AcDbEntity
  8
visible
100
AcDbLine
 10
-28.529663579420664
 20
60.60937725695195
 30
0.0
 11
-28.482379903497293
 21
61.22401219801518
 31
0.0
  0
LINE
  5
20E
330
17
100
AcDbEntity
  8
visible
100
AcDbLine
 10
-28.482379903497293
 20
19.227603708004835
 30
0.0
 11
-28.482379903497293
 21
61.224012198015174
 31
0.0
  0
LINE
  5
20F
330
17
100
AcDbEntity
  8
visible
100
AcDbLine
 10
-24.482381927713295
 20
15.227893131470578
 30
0.0
 11
-13.967196912531747
 21
15.227754790722477
 31
0.0
  0
LINE
  5
210
330
17
100
AcDbEntity
  8
visible
100
AcDbLine
 10
12.033596377963402
 20
15.22741271693206
 30
0.0
 11
22.517594287748683
 21
15.227274786490336
 31
0.0
  0
ELLIPSE
  5
211
330
17
100
AcDbEntity
  8
visible
100
AcDbEllipse
 10
22.470310611825315
 20
18.61229779685668
 30
0.0
 11
3.988215924835454
 21
-0.30681221763301214
 31
0.0
 40
0.9999139818466621
 41
5.348968385582966
 42
6.283185307179587
  0
LINE
  5
212
330
17
100
AcDbEntity
  8
visible
100
AcDbLine
 10
-24.482276686450824
 20
65.22361752295546
 30
0.0
 11
-13.968805759898055
 21
65.22347920475839
 31
0.0
  0
LINE
  5
213
330
17
100
AcDbEntity
  8
visible
100
AcDbLine
 10
-10.835195195792867
 20
65.22343797809152
 30
0.0
 11
-9.094372087171696
 21
65.22341507533034
 31
0.0
  0
LINE
  5
214
330
17
100
AcDbEntity
  8
visible
100
AcDbLine
 10
7.164795695235124
 20
65.22320116512036
 30
0.0
 11
8.905618803856296
 21
65.22317826235918
 31
0.0
  0
LINE
  5
215
330
17
100
AcDbEntity
  8
visible
100
AcDbLine
 10
12.058345057570417
 20
65.22313678420089
 30
0.0
 11
22.517594287748683
 21
65.2229991793598
 31
0.0
  0
LINE
  5
216
330
17
100
AcDbEntity
  8
visible
100
AcDbLine
 10
26.51759226353268
 20
19.22698536302461
 30
0.0
 11
26.51759226353268
 21
61.223288602825534
 31
0.0
  0
ELLIPSE
  5
217
330
17
100
AcDbEntity
  8
visible
100
AcDbEllipse
 10
-24.482381927713295
 20
19.22755108290015
 30
0.0
 11
-3.988215924835454
 21
0.30681221763301214
 31
0.0
 40
0.9999139818466621
 41
-6.206413419439215
 42
-4.635617092644319
  0
ELLIPSE
  5
218
330
17
100
AcDbEntity
  8
visible
100
AcDbEllipse
 10
-24.482381927713295
 20
61.22395957291049
 30
0.0
 11
3.988215924835454
 21
-0.30681221763301214
 31
0.0
 40
0.9999139818466621
 41
1.6475682145352675
 42
3.1415926535897976
  0
ELLIPSE
  5
219
330
17
100
AcDbEntity
  8
visible
100
AcDbEllipse
 10
-24.482381927713295
 20
61.22395957291049
 30
0.0
 11
3.988215924835454
 21
-0.30681221763301214
 31
0.0
 40
0.9999139818466621
 41
3.1415926535897976
 42
3.218364541330164
  0
LINE
  5
21A
330
17
100
AcDbEntity
  8
visible
100
AcDbLine
 10
-24.478357785081517
 20
19.279860439586372
 30
0.0
 11
-24.478357785081517
 21
61.27626892959671
 31
0.0
  0
ELLIPSE
  5
21B
330
17
100
AcDbEntity
  8
visible
100
AcDbEllipse
 10
-24.482381927713295
 20
19.22755108290015
 30
0.0
 11
-4.0
 21
-1.3553686160812694e-20
 31
0.0
 40
0.01307734578940119
 41
4.711382944557043
 42
6.282179271351939
  0
ELLIPSE
  5
21C
330
17
100
AcDbEntity
  8
visible
100
AcDbEllipse
 10
-24.482381927713295
 20
61.22395957291049
 30
0.0
 11
-4.0
 21
-1.3553686160812694e-20
 31
0.0
 40
0.01307734578940119
 41
4.711382944557043
 42
6.282179271351939
  0
ELLIPSE
  5
21D
330
17
100
AcDbEntity
  8
visible
100
AcDbEllipse
 10
22.517594287748683
 20
19.22693273791991
 30
0.0
 11
3.9882159248354565
 21
-0.30681221763297506
 31
0.0
 40
0.9999139818466622
 41
4.789160868125051
 42
6.283185307179581
  0
ELLIPSE
  5
21E
330
17
100
AcDbEntity
  8
visible
100
AcDbEllipse
 10
22.517594287748683
 20
19.22693273791991
 30
0.0
 11
3.9882159248354565
 21
-0.30681221763297506
 31
0.0
 40
0.9999139818466622
 41
-5.329070518200751e-15
 42
0.07677188774036114
  0
ELLIPSE
  5
21F
330
17
100
AcDbEntity
  8
visible
100
AcDbEllipse
 10
-24.482381927713295
 20
19.22755108290015
 30
0.0
 11
5.2625131328209e-05
 21
3.9999999996538245
 31
0.0
 40
0.001005949629679336
 41
3.1546703787665114
 42
4.7254667055614075
  0
LINE
  5
220
330
17
100
AcDbEntity
  8
visible
100
AcDbLine
 10
-24.478357785081517
 20
19.279860439586386
 30
0.0
 11
-13.968805759898055
 21
19.27972217294749
 31
0.0
  0
LINE
  5
221
330
17
100
AcDbEntity
  8
visible
100
AcDbLine
 10
-10.176302275010098
 20
19.279672277699
 30
0.0
 11
-9.761313293218016
 21
19.27966681798658
 31
0.0
  0
LINE
  5
222
330
17
100
AcDbEntity
  8
visible
100
AcDbLine
 10
7.823688616017872
 20
19.279435464727843
 30
0.0
 11
8.23867759781
 21
19.279430005015424
 31
0.0
  0
LINE
  5
223
330
17
100
AcDbEntity
  8
visible
100
AcDbLine
 10
12.058345057570417
 20
19.279379752389996
 30
0.0
 11
22.52161843038046
 21
19.27924209460614
 31
0.0
  0
ELLIPSE
  5
224
330
17
100
AcDbEntity
  8
visible
100
AcDbEllipse
 10
22.517594287748683
 20
19.22693273791991
 30
0.0
 11
5.2625131328209e-05
 21
3.9999999996538245
 31
0.0
 40
0.001005949629679336
 41
3.1546703787665114
 42
4.7254667055614075
  0
ELLIPSE
  5
225
330
17
100
AcDbEntity
  8
visible
100
AcDbEllipse
 10
22.517594287748683
 20
61.22334122793025
 30
0.0
 11
3.988215924835455
 21
-0.306812217632995
 31
0.0
 40
0.9999139818466622
 41
0.07679820704476725
 42
1.6475419041797128
  0
ELLIPSE
  5
226
330
17
100
AcDbEntity
  8
visible
100
AcDbEllipse
 10
-24.482381927713295
 20
61.22395957291049
 30
0.0
 11
-5.2625131328209e-05
 21
-3.9999999996538245
 31
0.0
 40
0.001005949629679336
 41
-3.141592653589793
 42
-3.1285149284130744
  0
ELLIPSE
  5
227
330
17
100
AcDbEntity
  8
visible
100
AcDbEllipse
 10
-24.482381927713295
 20
61.22395957291049
 30
0.0
 11
-5.2625131328209e-05
 21
-3.9999999996538245
 31
0.0
 40
0.001005949629679336
 41
-4.699311255207971
 42
-3.141592653589793
  0
LINE
  5
228
330
17
100
AcDbEntity
  8
visible
100
AcDbLine
 10
-24.478357785081517
 20
61.276268929596725
 30
0.0
 11
-13.967196912531747
 21
61.27613064179138
 31
0.0
  0
LINE
  5
229
330
17
100
AcDbEntity
  8
visible
100
AcDbLine
 10
12.058345057570417
 20
61.27578824240033
 30
0.0
 11
22.52161843038046
 21
61.27565058461648
 31
0.0
  0
ELLIPSE
  5
22A
330
17
100
AcDbEntity
  8
visible
100
AcDbEllipse
 10
22.517594287748683
 20
61.22334122793025
 30
0.0
 11
5.2625131328209e-05
 21
3.9999999996538245
 31
0.0
 40
0.001005949629679336
 41
4.7254667055614075
 42
6.283185307179586
  0
ELLIPSE
  5
22B
330
17
100
AcDbEntity
  8
visible
100
AcDbEllipse
 10
22.517594287748683
 20
61.22334122793025
 30
0.0
 11
5.2625131328209e-05
 21
3.9999999996538245
 31
0.0
 40
0.001005949629679336
 41
0.0
 42
0.013077725176718236
  0
LINE
  5
22C
330
17
100
AcDbEntity
  8
visible
100
AcDbLine
 10
22.52161843038046
 20
19.27924209460612
 30
0.0
 11
22.52161843038046
 21
61.27565058461646
 31
0.0
  0
ELLIPSE
  5
22D
330
17
100
AcDbEntity
  8
visible
100
AcDbEllipse
 10
22.517594287748683
 20
19.22693273791991
 30
0.0
 11
4.0
 21
1.3553686160812694e-20
 31
0.0
 40
0.01307734578940119
 41
-6.283185307179586
 42
-4.713395016212337
  0
ELLIPSE
  5
22E
330
17
100
AcDbEntity
  8
visible
100
AcDbEllipse
 10
22.517594287748683
 20
19.22693273791991
 30
0.0
 11
4.0
 21
1.3553686160812694e-20
 31
0.0
 40
0.01307734578940119
 41
-0.0010060358276466896
 42
-0.0
  0
ELLIPSE
  5
22F
330
17
100
AcDbEntity
  8
visible
100
AcDbEllipse
 10
22.517594287748683
 20
61.22334122793025
 30
0.0
 11
-4.0
 21
-1.3553686160812694e-20
 31
0.0
 40
0.01307734578940119
 41
3.140586617762146
 42
3.141592653589793
  0
ELLIPSE
  5
230
330
17
100
AcDbEntity
  8
visible
100
AcDbEllipse
 10
22.517594287748683
 20
61.22334122793025
 30
0.0
 11
-4.0
 21
-1.3553686160812694e-20
 31
0.0
 40
0.01307734578940119
 41
3.141592653589793
 42
4.711382944557043
  0
LINE
  5
231
330
17
100
AcDbEntity
  8
visible
100
AcDbLine
 10
-45.052295080265395
 20
-34.47664449494108
 30
0.0
 11
-45.052295080265395
 21
-28.677140465368225
 31
0.0
  0
LINE
  5
232
330
17
100
AcDbEntity
  8
visible
100
AcDbLine
 10
43.040223764377416
 20
-33.274476543042375
 30
0.0
 11
43.040223764377416
 21
-27.474972513469524
 31
0.0
  0
LINE
  5
233
330
17
100
AcDbEntity
  8
visible
100
AcDbLine
 10
42.44022376437742
 20
-34.43462223882721
 30
0.0
 11
42.44022376437742
 21
-33.27447654304237
 31
0.0
  0
LINE
  5
234
330
17
100
AcDbEntity
  8
visible
100
AcDbLine
 10
43.040223764377416
 20
-67.47155202776509
 30
0.0
 11
43.040223764377416
 21
-34.474373928471245
 31
0.0
  0
LINE
  5
235
330
17
100
AcDbEntity
  8
visible
100
AcDbLine
 10
-45.052295080265395
 20
-68.67371997966379
 30
0.0
 11
-45.052295080265395
 21
-55.174874393589036
 31
0.0
  0
LINE
  5
236
330
17
100
AcDbEntity
  8
visible
100
AcDbLine
 10
-45.052295080265395
 20
-43.17590053930037
 30
0.0
 11
-45.052295080265395
 21
-35.676541880369946
 31
0.0
  0
SPLINE
  5
237
330
17
100
AcDbEntity
  8
visible
100
AcDbSpline
 70
0
 71
1
 72
4
 73
2
 74
0
 40
0.0
 40
0.0
 40
1.0
 40
1.0
 10
-45.01188307905515
 20
-43.0911529605154
 30
0.0
 10
-45.01344300353854
 20
-43.0911529399926
 30
0.0
  0
SPLINE
  5
238
330
17
100
AcDbEntity
  8
visible
100
AcDbSpline
 70
0
 71
1
 72
4
 73
2
 74
0
 40
0.0
 40
0.0
 40
1.0
 40
1.0
 10
-45.01188307905515
 20
-47.25091695185712
 30
0.0
 10
-45.01351225570707
 20
-47.2509169304232
 30
0.0
  0
LINE
  5
239
330
17
100
AcDbEntity
  8
visible
100
AcDbLine
 10
-45.052295080265395
 20
-28.677140465368232
 30
0.0
 11
-45.052295080265395
 21
-24.677482513938678
 31
0.0
  0
LINE
  5
23A
330
17
100
AcDbEntity
  8
visible
100
AcDbLine
 10
43.040223764377416
 20
-27.474972513469517
 30
0.0
 11
43.040223764377416
 21
-23.475314562039962
 31
0.0
  0
LINE
  5
23B
330
17
100
AcDbEntity
  8
visible
100
AcDbLine
 10
21.493964342056014
 20
-23.37051752436169
 30
0.0
 11
21.493964342056014
 21
-16.5770398790589
 31
0.0
  0
LINE
  5
23C
330
17
100
AcDbEntity
  8
visible
100
AcDbLine
 10
-23.506035657943993
 20
-23.3699254916342
 30
0.0
 11
-23.506035657943993
 21
-16.5770398790589
 31
0.0
  0
LINE
  5
23D
330
17
100
AcDbEntity
  8
visible
100
AcDbLine
 10
21.493964342056014
 20
-16.37705698148742
 30
0.0
 11
21.493964342056014
 21
-14.377228005772643
 31
0.0
  0
LINE
  5
23E
330
17
100
AcDbEntity
  8
visible
100
AcDbLine
 10
-23.506035657943993
 20
-16.37705698148742
 30
0.0
 11
-23.506035657943993
 21
-14.377228005772643
 31
0.0
  0
LINE
  5
23F
330
17
100
AcDbEntity
  8
visible
100
AcDbLine
 10
32.99396434205601
 20
-13.577296415486735
 30
0.0
 11
32.99396434205601
 21
-7.577809488342401
 31
0.0
  0
LINE
  5
240
330
17
100
AcDbEntity
  8
visible
100
AcDbLine
 10
-35.00603565794399
 20
-13.577296415486735
 30
0.0
 11
-35.00603565794399
 21
-7.577809488342401
 31
0.0
  0
LINE
  5
241
330
17
100
AcDbEntity
  8
visible
100
AcDbLine
 10
14.493964342056014
 20
-16.363754823815405
 30
0.0
 11
14.493964342056014
 21
-16.27081612206362
 31
0.0
  0
LINE
  5
242
330
17
100
AcDbEntity
  8
visible
100
AcDbLine
 10
14.493964342056014
 20
-14.163942950529147
 30
0.0
 11
14.493964342056014
 21
-13.577296415486735
 31
0.0
  0
LINE
  5
243
330
17
100
AcDbEntity
  8
visible
100
AcDbLine
 10
-16.506035657943993
 20
-16.363754823815405
 30
0.0
 11
-16.506035657943993
 21
-16.27081612206362
 31
0.0
  0
LINE
  5
244
330
17
100
AcDbEntity
  8
visible
100
AcDbLine
 10
-16.506035657943993
 20
-14.163942950529147
 30
0.0
 11
-16.506035657943993
 21
-13.577296415486735
 31
0.0
  0
LINE
  5
245
330
17
100
AcDbEntity
  8
visible
100
AcDbLine
 10
-13.967196912531747
 20
-7.172865663557602
 30
0.0
 11
-13.967196912531747
 21
15.925159005948085
 31
0.0
  0
LINE
  5
246
330
17
100
AcDbEntity
  8
visible
100
AcDbLine
 10
12.0335963779634
 20
-7.162703755317153
 30
0.0
 11
12.0335963779634
 21
15.480874012409515
 31
0.0
  0
LINE
  5
247
330
17
100
AcDbEntity
  8
visible
100
AcDbLine
 10
-13.967196912531747
 20
20.924731445235032
 30
0.0
 11
-13.967196912531747
 21
62.921139935245364
 31
0.0
  0
LINE
  5
248
330
17
100
AcDbEntity
  8
visible
100
AcDbLine
 10
-13.962770558058393
 20
15.482736791863772
 30
0.0
 11
-13.962770558058393
 21
68.4782046483054
 31
0.0
  0
LINE
  5
249
330
17
100
AcDbEntity
  8
visible
100
AcDbLine
 10
12.05834505757042
 20
15.757071476390635
 30
0.0
 11
12.05834505757042
 21
68.75253933283224
 31
0.0
  0
LINE
  5
24A
330
17
100
AcDbEntity
  8
visible
100
AcDbLine
 10
-30.53469426376438
 20
4.5487660848042
 30
0.0
 11
-30.53469426376438
 21
9.548338524091145
 31
0.0
  0
LINE
  5
24B
330
17
100
AcDbEntity
  8
visible
100
AcDbLine
 10
28.5226229478764
 20
5.293477134945718
 30
0.0
 11
28.5226229478764
 21
10.293049574232663
 31
0.0
  0
LINE
  5
24C
330
17
100
AcDbEntity
  8
visible
100
AcDbLine
 10
25.515581710378793
 20
10.332281724090913
 30
0.0
 11
25.515581710378793
 21
15.201106951871049
 31
0.0
  0
LINE
  5
24D
330
17
100
AcDbEntity
  8
visible
100
AcDbLine
 10
-27.527653026266773
 20
10.332973378760641
 30
0.0
 11
-27.527653026266773
 21
14.63942602502666
 31
0.0
  0
LINE
  5
24E
330
17
100
AcDbEntity
  8
visible
100
AcDbLine
 10
-28.529665603636662
 20
18.612916141836905
 30
0.0
 11
-28.529665603636662
 21
28.418490792548475
 31
0.0
  0
LINE
  5
24F
330
17
100
AcDbEntity
  8
visible
100
AcDbLine
 10
-28.529665603636662
 20
51.418490794539
 30
0.0
 11
-28.529665603636662
 21
60.609324631847244
 31
0.0
  0
ARC
  5
250
330
17
100
AcDbEntity
  8
visible
100
AcDbCircle
 10
-24.529665603636662
 20
18.61291614183692
 30
0.0
 40
4.0
100
AcDbArc
 50
180.0
 51
237.93912986198237
  0
ARC
  5
251
330
17
100
AcDbEntity
  8
visible
100
AcDbCircle
 10
-24.529665603636662
 20
60.60932463184726
 30
0.0
 40
4.0
100
AcDbArc
 50
175.60091793146444
 51
180.0
  0
ARC
  5
252
330
17
100
AcDbEntity
  8
visible
100
AcDbCircle
 10
22.470310611825315
 20
18.61229779685668
 30
0.0
 40
4.0
100
AcDbArc
 50
302.08157831652153
 51
355.60091793146444
  0
LINE
  5
253
330
17
100
AcDbEntity
  8
visible
100
AcDbLine
 10
-28.51788152847212
 20
60.916136849480246
 30
0.0
 11
-28.47059785254875
 21
61.530771790543476
 31
0.0
  0
LINE
  5
254
330
17
100
AcDbEntity
  8
visible
100
AcDbLine
 10
26.458526536660766
 20
18.30548557922368
 30
0.0
 11
26.505810212584137
 21
18.920120520286908
 31
0.0
  0
LINE
  5
255
330
17
100
AcDbEntity
  8
visible
100
AcDbLine
 10
-24.482329302581967
 20
65.22395957256428
 30
0.0
 11
-13.968805759898055
 21
65.22382125367498
 31
0.0
  0
LINE
  5
256
330
17
100
AcDbEntity
  8
visible
100
AcDbLine
 10
-10.835285072714896
 20
65.22378002819056
 30
0.0
 11
-9.09428221024967
 21
65.22375712306449
 31
0.0
  0
LINE
  5
257
330
17
100
AcDbEntity
  8
visible
100
AcDbLine
 10
7.164705818313088
 20
65.2235432152194
 30
0.0
 11
8.905708680778332
 21
65.22352031009332
 31
0.0
  0
LINE
  5
258
330
17
100
AcDbEntity
  8
visible
100
AcDbLine
 10
12.05834505757042
 20
65.22347883311748
 30
0.0
 11
22.51764691288001
 21
65.22334122758404
 31
0.0
  0
LINE
  5
259
330
17
100
AcDbEntity
  8
visible
100
AcDbLine
 10
26.517594287748683
 20
19.226932737919896
 30
0.0
 11
26.517594287748683
 21
61.223341227930234
 31
0.0
  0
ARC
  5
25A
330
17
100
AcDbEntity
  8
visible
100
AcDbCircle
 10
-24.482381927713295
 20
61.22395957291049
 30
0.0
 40
4.0
100
AcDbArc
 50
449.99924620051956
 51
535.6009179314643
  0
ARC
  5
25B
330
17
100
AcDbEntity
  8
visible
100
AcDbCircle
 10
22.517594287748683
 20
19.22693273791991
 30
0.0
 40
4.0
100
AcDbArc
 50
355.60091793146444
 51
360.0
  0
ARC
  5
25C
330
17
100
AcDbEntity
  8
visible
100
AcDbCircle
 10
22.517594287748683
 20
61.22334122793025
 30
0.0
 40
4.0
100
AcDbArc
 50
360.0
 51
449.99924620051956
  0
LINE
  5
25D
330
17
100
AcDbEntity
  8
visible
100
AcDbLine
 10
-30.50617202660354
 20
28.418516796025997
 30
0.0
 11
-28.50617303871154
 21
28.418490483473647
 31
0.0
  0
LINE
  5
25E
330
17
100
AcDbEntity
  8
visible
100
AcDbLine
 10
-30.50586943209841
 20
51.4185167940355
 30
0.0
 11
-28.505870444206412
 21
51.41849048148315
 31
0.0
  0
ENDSEC
  0
SECTION
  2
OBJECTS
  0
DICTIONARY
  5
A
330
0
100
AcDbDictionary
281
1
  3
ACAD_COLOR
350
B
  3
ACAD_GROUP
350
C
  3
ACAD_LAYOUT
350
D
  3
ACAD_MATERIAL
350
E
  3
ACAD_MLEADERSTYLE
350
F
  3
ACAD_MLINESTYLE
350
10
  3
ACAD_PLOTSETTINGS
350
11
  3
ACAD_PLOTSTYLENAME
350
12
  3
ACAD_SCALELIST
350
14
  3
ACAD_TABLESTYLE
350
15
  3
ACAD_VISUALSTYLE
350
16
  3
EZDXF_META
350
2D
  0
DICTIONARY
  5
B
330
A
100
AcDbDictionary
281
1
  0
DICTIONARY
  5
C
330
A
100
AcDbDictionary
281
1
  0
DICTIONARY
  5
D
330
A
100
AcDbDictionary
281
1
  3
Model
350
1A
  3
Layout1
350
1E
  0
DICTIONARY
  5
E
330
A
100
AcDbDictionary
281
1
  3
ByBlock
350
1F
  3
ByLayer
350
20
  3
Global
350
21
  0
DICTIONARY
  5
F
330
A
100
AcDbDictionary
281
1
  3
Standard
350
2C
  0
DICTIONARY
  5
10
330
A
100
AcDbDictionary
281
1
  3
Standard
350
22
  0
DICTIONARY
  5
11
330
A
100
AcDbDictionary
281
1
  0
ACDBDICTIONARYWDFLT
  5
12
330
A
100
AcDbDictionary
281
1
  3
Normal
350
13
100
AcDbDictionaryWithDefault
340
13
  0
ACDBPLACEHOLDER
  5
13
330
12
  0
DICTIONARY
  5
14
330
A
100
AcDbDictionary
281
1
  0
DICTIONARY
  5
15
330
A
100
AcDbDictionary
281
1
  0
DICTIONARY
  5
16
330
A
100
AcDbDictionary
281
1
  0
LAYOUT
  5
1A
330
D
100
AcDbPlotSettings
  1

  4
A3
  6

 40
7.5
 41
20.0
 42
7.5
 43
20.0
 44
420.0
 45
297.0
 46
0.0
 47
0.0
 48
0.0
 49
0.0
140
0.0
141
0.0
142
1.0
143
1.0
 70
1024
 72
1
 73
0
 74
5
  7

 75
16
 76
0
 77
2
 78
300
147
1.0
148
0.0
149
0.0
100
AcDbLayout
  1
Model
 70
1
 71
0
 10
0.0
 20
0.0
 11
420.0
 21
297.0
 12
0.0
 22
0.0
 32
0.0
 14
1e+20
 24
1e+20
 34
1e+20
 15
-1e+20
 25
-1e+20
 35
-1e+20
146
0.0
 13
0.0
 23
0.0
 33
0.0
 16
1.0
 26
0.0
 36
0.0
 17
0.0
 27
1.0
 37
0.0
 76
1
330
17
  0
LAYOUT
  5
1E
330
D
100
AcDbPlotSettings
  1

  4
A3
  6

 40
7.5
 41
20.0
 42
7.5
 43
20.0
 44
420.0
 45
297.0
 46
0.0
 47
0.0
 48
0.0
 49
0.0
140
0.0
141
0.0
142
1.0
143
1.0
 70
0
 72
1
 73
0
 74
5
  7

 75
16
 76
0
 77
2
 78
300
147
1.0
148
0.0
149
0.0
100
AcDbLayout
  1
Layout1
 70
1
 71
1
 10
0.0
 20
0.0
 11
420.0
 21
297.0
 12
0.0
 22
0.0
 32
0.0
 14
1e+20
 24
1e+20
 34
1e+20
 15
-1e+20
 25
-1e+20
 35
-1e+20
146
0.0
 13
0.0
 23
0.0
 33
0.0
 16
1.0
 26
0.0
 36
0.0
 17
0.0
 27
1.0
 37
0.0
 76
1
330
1B
  0
MATERIAL
  5
1F
102
{ACAD_REACTORS
330
E
102
}
330
E
100
AcDbMaterial
  1
ByBlock
  2

 70
0
 40
1.0
 71
1
 41
1.0
 91
-1023410177
 42
1.0
 72
1
  3

 73
1
 74
1
 75
1
 44
0.5
 73
0
 45
1.0
 46
1.0
 77
1
  4

 78
1
 79
1
170
1
 48
1.0
171
1
  6

172
1
173
1
174
1
140
1.0
141
1.0
175
1
  7

176
1
177
1
178
1
143
1.0
179
1
  8

270
1
271
1
272
1
145
1.0
146
1.0
273
1
  9

274
1
275
1
276
1
 42
1.0
 72
1
  3

 73
1
 74
1
 75
1
 94
63
  0
MATERIAL
  5
20
102
{ACAD_REACTORS
330
E
102
}
330
E
100
AcDbMaterial
  1
ByLayer
  2

 70
0
 40
1.0
 71
1
 41
1.0
 91
-1023410177
 42
1.0
 72
1
  3

 73
1
 74
1
 75
1
 44
0.5
 73
0
 45
1.0
 46
1.0
 77
1
  4

 78
1
 79
1
170
1
 48
1.0
171
1
  6

172
1
173
1
174
1
140
1.0
141
1.0
175
1
  7

176
1
177
1
178
1
143
1.0
179
1
  8

270
1
271
1
272
1
145
1.0
146
1.0
273
1
  9

274
1
275
1
276
1
 42
1.0
 72
1
  3

 73
1
 74
1
 75
1
 94
63
  0
MATERIAL
  5
21
102
{ACAD_REACTORS
330
E
102
}
330
E
100
AcDbMaterial
  1
Global
  2

 70
0
 40
1.0
 71
1
 41
1.0
 91
-1023410177
 42
1.0
 72
1
  3

 73
1
 74
1
 75
1
 44
0.5
 73
0
 45
1.0
 46
1.0
 77
1
  4

 78
1
 79
1
170
1
 48
1.0
171
1
  6

172
1
173
1
174
1
140
1.0
141
1.0
175
1
  7

176
1
177
1
178
1
143
1.0
179
1
  8

270
1
271
1
272
1
145
1.0
146
1.0
273
1
  9

274
1
275
1
276
1
 42
1.0
 72
1
  3

 73
1
 74
1
 75
1
 94
63
  0
MLINESTYLE
  5
22
102
{ACAD_REACTORS
330
10
102
}
330
10
100
AcDbMlineStyle
  2
Standard
 70
0
  3

 62
256
 51
90.0
 52
90.0
 71
2
 49
0.5
 62
256
  6
BYLAYER
 49
-0.5
 62
256
  6
BYLAYER
  0
MLEADERSTYLE
  5
2C
102
{ACAD_REACTORS
330
F
102
}
330
F
100
AcDbMLeaderStyle
179
2
170
2
171
1
172
0
 90
2
 40
0.0
 41
0.0
173
1
 91
-1056964608
 92
-2
290
1
 42
2.0
291
1
 43
8.0
  3
Standard
 44
4.0
300

342
29
174
1
175
1
176
0
178
1
 93
-1056964608
 45
4.0
292
0
297
0
 46
4.0
 94
-1056964608
 47
1.0
 49
1.0
140
1.0
294
1
141
0.0
177
0
142
1.0
295
0
296
0
143
3.75
271
0
272
9
273
9
  0
DICTIONARY
  5
2D
330
A
100
AcDbDictionary
280
1
281
1
  3
CREATED_BY_EZDXF
350
2E
  3
WRITTEN_BY_EZDXF
350
262
  0
DICTIONARYVAR
  5
2E
330
2D
100
DictionaryVariables
280
0
  1
1.4.4 @ 2026-10-01T18:29:35.273632+00:00
  0
DICTIONARYVAR
  5
262
330
2D
100
DictionaryVariables
280
0
  1
1.4.4 @ 2026-10-01T18:29:35.350242+00:00
  0
ENDSEC
  0
EOF
