  0
SECTION
  2
HEADER
  9
$ACADVER
  1
AC1027
  9
$ACADMAINTVER
 70
105
  9
$DWGCODEPAGE
  3
ANSI_1252
  9
$LASTSAVEDBY
  1
ezdxf
  9
$REQUIREDVERSIONS
160
0
  9
$INSBASE
 10
0.0
 20
0.0
 30
0.0
  9
$EXTMIN
 10
1e+20
 20
1e+20
 30
1e+20
  9
$EXTMAX
 10
-1e+20
 20
-1e+20
 30
-1e+20
  9
$LIMMIN
 10
0.0
 20
0.0
  9
$LIMMAX
 10
420.0
 20
297.0
  9
$ORTHOMODE
 70
0
  9
$REGENMODE
 70
1
  9
$FILLMODE
 70
1
  9
$QTEXTMODE
 70
0
  9
$MIRRTEXT
 70
1
  9
$LTSCALE
 40
1.0
  9
$ATTMODE
 70
1
  9
$TEXTSIZE
 40
2.5
  9
$TRACEWID
 40
1.0
  9
$TEXTSTYLE
  7
Standard
  9
$CLAYER
  8
0
  9
$CELTYPE
  6
ByLayer
  9
$CECOLOR
 62
256
  9
$CELTSCALE
 40
1.0
  9
$DISPSILH
 70
0
  9
$DIMSCALE
 40
1.0
  9
$DIMASZ
 40
2.5
  9
$DIMEXO
 40
0.625
  9
$DIMDLI
 40
3.75
  9
$DIMRND
 40
0.0
  9
$DIMDLE
 40
0.0
  9
$DIMEXE
 40
1.25
  9
$DIMTP
 40
0.0
  9
$DIMTM
 40
0.0
  9
$DIMTXT
 40
2.5
  9
$DIMCEN
 40
2.5
  9
$DIMTSZ
 40
0.0
  9
$DIMTOL
 70
0
  9
$DIMLIM
 70
0
  9
$DIMTIH
 70
0
  9
$DIMTOH
 70
0
  9
$DIMSE1
 70
0
  9
$DIMSE2
 70
0
  9
$DIMTAD
 70
1
  9
$DIMZIN
 70
8
  9
$DIMBLK
  1

  9
$DIMASO
 70
1
  9
$DIMSHO
 70
1
  9
$DIMPOST
  1

  9
$DIMAPOST
  1

  9
$DIMALT
 70
0
  9
$DIMALTD
 70
3
  9
$DIMALTF
 40
0.03937007874
  9
$DIMLFAC
 40
1.0
  9
$DIMTOFL
 70
1
  9
$DIMTVP
 40
0.0
  9
$DIMTIX
 70
0
  9
$DIMSOXD
 70
0
  9
$DIMSAH
 70
0
  9
$DIMBLK1
  1

  9
$DIMBLK2
  1

  9
$DIMSTYLE
  2
ISO-25
  9
$DIMCLRD
 70
0
  9
$DIMCLRE
 70
0
  9
$DIMCLRT
 70
0
  9
$DIMTFAC
 40
1.0
  9
$DIMGAP
 40
0.625
  9
$DIMJUST
 70
0
  9
$DIMSD1
 70
0
  9
$DIMSD2
 70
0
  9
$DIMTOLJ
 70
0
  9
$DIMTZIN
 70
8
  9
$DIMALTZ
 70
0
  9
$DIMALTTZ
 70
0
  9
$DIMUPT
 70
0
  9
$DIMDEC
 70
2
  9
$DIMTDEC
 70
2
  9
$DIMALTU
 70
2
  9
$DIMALTTD
 70
3
  9
$DIMTXSTY
  7
Standard
  9
$DIMAUNIT
 70
0
  9
$DIMADEC
 70
0
  9
$DIMALTRND
 40
0.0
  9
$DIMAZIN
 70
0
  9
$DIMDSEP
 70
44
  9
$DIMATFIT
 70
3
  9
$DIMFRAC
 70
0
  9
$DIMLDRBLK
  1

  9
$DIMLUNIT
 70
2
  9
$DIMLWD
 70
-2
  9
$DIMLWE
 70
-2
  9
$DIMTMOVE
 70
0
  9
$DIMFXL
 40
1.0
  9
$DIMFXLON
 70
0
  9
$DIMJOGANG
 40
0.785398163397
  9
$DIMTFILL
 70
0
  9
$DIMTFILLCLR
 70
0
  9
$DIMARCSYM
 70
0
  9
$DIMLTYPE
  6

  9
$DIMLTEX1
  6

  9
$DIMLTEX2
  6

  9
$DIMTXTDIRECTION
 70
0
  9
$LUNITS
 70
2
  9
$LUPREC
 70
4
  9
$SKETCHINC
 40
1.0
  9
$FILLETRAD
 40
10.0
  9
$AUNITS
 70
0
  9
$AUPREC
 70
2
  9
$MENU
  1
.
  9
$ELEVATION
 40
0.0
  9
$PELEVATION
 40
0.0
  9
$THICKNESS
 40
0.0
  9
$LIMCHECK
 70
0
  9
$CHAMFERA
 40
0.0
  9
$CHAMFERB
 40
0.0
  9
$CHAMFERC
 40
0.0
  9
$CHAMFERD
 40
0.0
  9
$SKPOLY
 70
0
  9
$TDCREATE
 40
2461316.839953704
  9
$TDUCREATE
 40
2458532.153996898
  9
$TDUPDATE
 40
2461316.839953704
  9
$TDUUPDATE
 40
2458532.1544311
  9
$TDINDWG
 40
0.0
  9
$TDUSRTIMER
 40
0.0
  9
$USRTIMER
 70
1
  9
$ANGBASE
 50
0.0
  9
$ANGDIR
 70
0
  9
$PDMODE
 70
0
  9
$PDSIZE
 40
0.0
  9
$PLINEWID
 40
0.0
  9
$SPLFRAME
 70
0
  9
$SPLINETYPE
 70
6
  9
$SPLINESEGS
 70
8
  9
$HANDSEED
  5
2EE
  9
$SURFTAB1
 70
6
  9
$SURFTAB2
 70
6
  9
$SURFTYPE
 70
6
  9
$SURFU
 70
6
  9
$SURFV
 70
6
  9
$UCSBASE
  2

  9
$UCSNAME
  2

  9
$UCSORG
 10
0.0
 20
0.0
 30
0.0
  9
$UCSXDIR
 10
1.0
 20
0.0
 30
0.0
  9
$UCSYDIR
 10
0.0
 20
1.0
 30
0.0
  9
$UCSORTHOREF
  2

  9
$UCSORTHOVIEW
 70
0
  9
$UCSORGTOP
 10
0.0
 20
0.0
 30
0.0
  9
$UCSORGBOTTOM
 10
0.0
 20
0.0
 30
0.0
  9
$UCSORGLEFT
 10
0.0
 20
0.0
 30
0.0
  9
$UCSORGRIGHT
 10
0.0
 20
0.0
 30
0.0
  9
$UCSORGFRONT
 10
0.0
 20
0.0
 30
0.0
  9
$UCSORGBACK
 10
0.0
 20
0.0
 30
0.0
  9
$PUCSBASE
  2

  9
$PUCSNAME
  2

  9
$PUCSORG
 10
0.0
 20
0.0
 30
0.0
  9
$PUCSXDIR
 10
1.0
 20
0.0
 30
0.0
  9
$PUCSYDIR
 10
0.0
 20
1.0
 30
0.0
  9
$PUCSORTHOREF
  2

  9
$PUCSORTHOVIEW
 70
0
  9
$PUCSORGTOP
 10
0.0
 20
0.0
 30
0.0
  9
$PUCSORGBOTTOM
 10
0.0
 20
0.0
 30
0.0
  9
$PUCSORGLEFT
 10
0.0
 20
0.0
 30
0.0
  9
$PUCSORGRIGHT
 10
0.0
 20
0.0
 30
0.0
  9
$PUCSORGFRONT
 10
0.0
 20
0.0
 30
0.0
  9
$PUCSORGBACK
 10
0.0
 20
0.0
 30
0.0
  9
$USERI1
 70
0
  9
$USERI2
 70
0
  9
$USERI3
 70
0
  9
$USERI4
 70
0
  9
$USERI5
 70
0
  9
$USERR1
 40
0.0
  9
$USERR2
 40
0.0
  9
$USERR3
 40
0.0
  9
$USERR4
 40
0.0
  9
$USERR5
 40
0.0
  9
$WORLDVIEW
 70
1
  9
$SHADEDGE
 70
3
  9
$SHADEDIF
 70
70
  9
$TILEMODE
 70
1
  9
$MAXACTVP
 70
64
  9
$PINSBASE
 10
0.0
 20
0.0
 30
0.0
  9
$PLIMCHECK
 70
0
  9
$PEXTMIN
 10
1e+20
 20
1e+20
 30
1e+20
  9
$PEXTMAX
 10
-1e+20
 20
-1e+20
 30
-1e+20
  9
$PLIMMIN
 10
0.0
 20
0.0
  9
$PLIMMAX
 10
420.0
 20
297.0
  9
$UNITMODE
 70
0
  9
$VISRETAIN
 70
1
  9
$PLINEGEN
 70
0
  9
$PSLTSCALE
 70
1
  9
$TREEDEPTH
 70
3020
  9
$CMLSTYLE
  2
Standard
  9
$CMLJUST
 70
0
  9
$CMLSCALE
 40
20.0
  9
$PROXYGRAPHICS
 70
1
  9
$MEASUREMENT
 70
1
  9
$CELWEIGHT
370
-1
  9
$ENDCAPS
280
0
  9
$JOINSTYLE
280
0
  9
$LWDISPLAY
290
0
  9
$INSUNITS
 70
4
  9
$HYPERLINKBASE
  1

  9
$STYLESHEET
  1

  9
$XEDIT
290
1
  9
$CEPSNTYPE
380
0
  9
$PSTYLEMODE
290
1
  9
$FINGERPRINTGUID
  2
{852797FD-1557-41FF-AE54-DCA8522D8018}
  9
$VERSIONGUID
  2
{4988AFA6-EAE4-4E73-84B4-F1E3742E465C}
  9
$EXTNAMES
290
1
  9
$PSVPSCALE
 40
0.0
  9
$OLESTARTUP
290
0
  9
$SORTENTS
280
127
  9
$INDEXCTL
280
0
  9
$HIDETEXT
280
1
  9
$XCLIPFRAME
280
1
  9
$HALOGAP
280
0
  9
$OBSCOLOR
 70
257
  9
$OBSLTYPE
280
0
  9
$INTERSECTIONDISPLAY
280
0
  9
$INTERSECTIONCOLOR
 70
257
  9
$DIMASSOC
280
2
  9
$PROJECTNAME
  1

  9
$CAMERADISPLAY
290
0
  9
$LENSLENGTH
 40
50.0
  9
$CAMERAHEIGHT
 40
0.0
  9
$STEPSPERSEC
 40
24.0
  9
$STEPSIZE
 40
100.0
  9
$3DDWFPREC
 40
2.0
  9
$PSOLWIDTH
 40
0.005
  9
$PSOLHEIGHT
 40
0.08
  9
$LOFTANG1
 40
1.570796326795
  9
$LOFTANG2
 40
1.570796326795
  9
$LOFTMAG1
 40
0.0
  9
$LOFTMAG2
 40
0.0
  9
$LOFTPARAM
 70
7
  9
$LOFTNORMALS
280
1
  9
$LATITUDE
 40
37.795
  9
$LONGITUDE
 40
-122.394
  9
$NORTHDIRECTION
 40
0.0
  9
$TIMEZONE
 70
-8000
  9
$LIGHTGLYPHDISPLAY
280
1
  9
$TILEMODELIGHTSYNCH
280
1
  9
$CMATERIAL
347
20
  9
$SOLIDHIST
280
0
  9
$SHOWHIST
280
1
  9
$DWFFRAME
280
2
  9
$DGNFRAME
280
2
  9
$REALWORLDSCALE
290
1
  9
$INTERFERECOLOR
 62
256
  9
$CSHADOW
280
0
  9
$SHADOWPLANELOCATION
 40
0.0
  0
ENDSEC
  0
SECTION
  2
CLASSES
  0
CLASS
  1
ACDBDICTIONARYWDFLT
  2
AcDbDictionaryWithDefault
  3
ObjectDBX Classes
 90
0
 91
0
280
0
281
0
  0
CLASS
  1
SUN
  2
AcDbSun
  3
SCENEOE
 90
1153
 91
0
280
0
281
0
  0
CLASS
  1
VISUALSTYLE
  2
AcDbVisualStyle
  3
ObjectDBX Classes
 90
4095
 91
0
280
0
281
0
  0
CLASS
  1
MATERIAL
  2
AcDbMaterial
  3
ObjectDBX Classes
 90
1153
 91
0
280
0
281
0
  0
CLASS
  1
SCALE
  2
AcDbScale
  3
ObjectDBX Classes
 90
1153
 91
0
280
0
281
0
  0
CLASS
  1
TABLESTYLE
  2
AcDbTableStyle
  3
ObjectDBX Classes
 90
4095
 91
0
280
0
281
0
  0
CLASS
  1
MLEADERSTYLE
  2
AcDbMLeaderStyle
  3
ACDB_MLEADERSTYLE_CLASS
 90
4095
 91
0
280
0
281
0
  0
CLASS
  1
DICTIONARYVAR
  2
AcDbDictionaryVar
  3
ObjectDBX Classes
 90
0
 91
0
280
0
281
0
  0
CLASS
  1
CELLSTYLEMAP
  2
AcDbCellStyleMap
  3
ObjectDBX Classes
 90
1152
 91
0
280
0
281
0
  0
CLASS
  1
MENTALRAYRENDERSETTINGS
  2
AcDbMentalRayRenderSettings
  3
SCENEOE
 90
1024
 91
0
280
0
281
0
  0
CLASS
  1
ACDBDETAILVIEWSTYLE
  2
AcDbDetailViewStyle
  3
ObjectDBX Classes
 90
1025
 91
0
280
0
281
0
  0
CLASS
  1
ACDBSECTIONVIEWSTYLE
  2
AcDbSectionViewStyle
  3
ObjectDBX Classes
 90
1025
 91
0
280
0
281
0
  0
CLASS
  1
RASTERVARIABLES
  2
AcDbRasterVariables
  3
ISM
 90
0
 91
0
280
0
281
0
  0
CLASS
  1
LAYOUT
  2
AcDbLayout
  3
ObjectDBX Classes
 90
0
 91
0
280
0
281
0
  0
CLASS
  1
ACDBPLACEHOLDER
  2
AcDbPlaceHolder
  3
ObjectDBX Classes
 90
0
 91
0
280
0
281
0
  0
ENDSEC
  0
SECTION
  2
TABLES
  0
TABLE
  2
VPORT
  5
8
330
0
100
AcDbSymbolTable
 70
1
  0
VPORT
  5
2EA
330
8
100
AcDbSymbolTableRecord
100
AcDbViewportTableRecord
  2
*Active
 70
0
 10
0.0
 20
0.0
 11
1.0
 21
1.0
 12
5.684341886080802e-14
 22
-4.0096209348913305
 13
0.0
 23
0.0
 14
0.5
 24
0.5
 15
0.5
 25
0.5
 16
0.0
 26
0.0
 36
1.0
 17
0.0
 27
0.0
 37
0.0
 40
154.04819312584323
 41
1.34
 42
50.0
 43
0.0
 44
0.0
 50
0.0
 51
0.0
 71
0
 72
1000
 73
1
 74
3
 75
0
 76
0
 77
0
 78
0
281
0
 65
1
110
0.0
120
0.0
130
0.0
111
1.0
121
0.0
131
0.0
112
0.0
122
1.0
132
0.0
 79
0
146
0.0
  0
ENDTAB
  0
TABLE
  2
LTYPE
  5
2
330
0
100
AcDbSymbolTable
 70
3
  0
LTYPE
  5
24
330
2
100
AcDbSymbolTableRecord
100
AcDbLinetypeTableRecord
  2
ByBlock
 70
0
  3

 72
65
 73
0
 40
0.0
  0
LTYPE
  5
25
330
2
100
AcDbSymbolTableRecord
100
AcDbLinetypeTableRecord
  2
ByLayer
 70
0
  3

 72
65
 73
0
 40
0.0
  0
LTYPE
  5
26
330
2
100
AcDbSymbolTableRecord
100
AcDbLinetypeTableRecord
  2
Continuous
 70
0
  3

 72
65
 73
0
 40
0.0
  0
ENDTAB
  0
TABLE
  2
LAYER
  5
1
330
0
100
AcDbSymbolTable
 70
3
  0
LAYER
  5
27
330
1
100
AcDbSymbolTableRecord
100
AcDbLayerTableRecord
  2
0
 70
0
 62
7
  6
Continuous
370
-3
390
13
347
21
  0
LAYER
  5
28
330
1
100
AcDbSymbolTableRecord
100
AcDbLayerTableRecord
  2
Defpoints
 70
0
 62
7
  6
Continuous
290
0
370
-3
390
13
347
21
  0
LAYER
  5
2F
330
1
100
AcDbSymbolTableRecord
100
AcDbLayerTableRecord
  2
visible
 70
0
 62
7
  6
Continuous
370
-3
390
13
347
21
  0
ENDTAB
  0
TABLE
  2
STYLE
  5
5
330
0
100
AcDbSymbolTable
 70
1
  0
STYLE
  5
29
330
5
100
AcDbSymbolTableRecord
100
AcDbTextStyleTableRecord
  2
Standard
 70
0
 40
0.0
 41
1.0
 50
0.0
 71
0
 42
2.5
  3
txt
  4

  0
ENDTAB
  0
TABLE
  2
VIEW
  5
7
330
0
100
AcDbSymbolTable
 70
0
  0
ENDTAB
  0
TABLE
  2
UCS
  5
6
330
0
100
AcDbSymbolTable
 70
0
  0
ENDTAB
  0
TABLE
  2
APPID
  5
3
330
0
100
AcDbSymbolTable
 70
3
  0
APPID
  5
2A
330
3
100
AcDbSymbolTableRecord
100
AcDbRegAppTableRecord
  2
ACAD
 70
0
  0
APPID
  5
2EB
330
3
100
AcDbSymbolTableRecord
100
AcDbRegAppTableRecord
  2
HATCHBACKGROUNDCOLOR
 70
0
  0
APPID
  5
2EC
330
3
100
AcDbSymbolTableRecord
100
AcDbRegAppTableRecord
  2
EZDXF
 70
0
  0
ENDTAB
  0
TABLE
  2
DIMSTYLE
  5
4
330
0
100
AcDbSymbolTable
 70
1
100
AcDbDimStyleTable
  0
DIMSTYLE
105
2B
330
4
100
AcDbSymbolTableRecord
100
AcDbDimStyleTableRecord
  2
Standard
 70
0
 40
1.0
 41
2.5
 42
0.625
 43
3.75
 44
1.25
 45
0.0
 46
0.0
 47
0.0
 48
0.0
 49
2.5
140
2.5
141
2.5
142
0.0
143
0.03937007874
144
1.0
145
0.0
146
1.0
147
0.625
148
0.0
 69
0
 70
0
 71
0
 72
0
 73
0
 74
0
 75
0
 76
0
 77
1
 78
8
 79
3
170
0
171
3
172
1
173
0
174
0
175
0
176
0
177
0
178
0
179
2
271
2
272
2
273
2
274
3
275
0
276
0
277
2
278
44
279
0
280
0
281
0
282
0
283
0
284
8
285
0
286
0
288
0
289
3
290
0
371
-2
372
-2
  0
ENDTAB
  0
TABLE
  2
BLOCK_RECORD
  5
9
330
0
100
AcDbSymbolTable
 70
2
  0
BLOCK_RECORD
  5
17
330
9
100
AcDbSymbolTableRecord
100
AcDbBlockTableRecord
  2
*Model_Space
340
1A
 70
0
280
1
281
0
  0
BLOCK_RECORD
  5
1B
330
9
100
AcDbSymbolTableRecord
100
AcDbBlockTableRecord
  2
*Paper_Space
340
1E
 70
0
280
1
281
0
  0
ENDTAB
  0
ENDSEC
  0
SECTION
  2
BLOCKS
  0
BLOCK
  5
18
330
17
100
AcDbEntity
  8
0
100
AcDbBlockBegin
  2
*Model_Space
 70
0
 10
0.0
 20
0.0
 30
0.0
  3
*Model_Space
  1

  0
ENDBLK
  5
19
330
17
100
AcDbEntity
  8
0
100
AcDbBlockEnd
  0
BLOCK
  5
1C
330
1B
100
AcDbEntity
  8
0
100
AcDbBlockBegin
  2
*Paper_Space
 70
0
 10
0.0
 20
0.0
 30
0.0
  3
*Paper_Space
  1

  0
ENDBLK
  5
1D
330
1B
100
AcDbEntity
  8
0
100
AcDbBlockEnd
  0
ENDSEC
  0
SECTION
  2
ENTITIES
  0
ELLIPSE
  5
30
330
17
100
AcDbEntity
  8
visible
100
AcDbEllipse
 10
-47.704216875369646
 20
-30.999766599884243
 30
0.0
 11
12.0
 21
0.0
 31
0.0
 40
0.4006562966022768
 41
3.027001080633829
 42
3.141592653589793
  0
ELLIPSE
  5
31
330
17
100
AcDbEntity
  8
visible
100
AcDbEllipse
 10
-47.704216875369646
 20
-30.999766599884243
 30
0.0
 11
12.0
 21
0.0
 31
0.0
 40
0.4006562966022768
 41
3.141592653589793
 42
4.124386376837122
  0
ELLIPSE
  5
32
330
17
100
AcDbEntity
  8
visible
100
AcDbEllipse
 10
-47.704216875369646
 20
-36.039022953036635
 30
0.0
 11
12.0
 21
0.0
 31
0.0
 40
0.4006562966022768
 41
3.4671222235916055
 42
4.124386376837122
  0
LINE
  5
33
330
17
100
AcDbEntity
  8
visible
100
AcDbLine
 10
-59.07399484161069
 20
-48.57137359900831
 30
0.0
 11
-59.07399484161069
 21
-37.57663246485765
 31
0.0
  0
ELLIPSE
  5
34
330
17
100
AcDbEntity
  8
visible
100
AcDbEllipse
 10
-47.704216875369646
 20
-47.03376408718729
 30
0.0
 11
12.0
 21
0.0
 31
0.0
 40
0.4006562966022768
 41
3.4671222235916055
 42
4.124386376837122
  0
ELLIPSE
  5
35
330
17
100
AcDbEntity
  8
visible
100
AcDbEllipse
 10
47.70421687536976
 20
-28.555081210098525
 30
0.0
 11
12.0
 21
0.0
 31
0.0
 40
0.4006562966022768
 41
5.695182703632018
 42
6.283185307179586
  0
ELLIPSE
  5
36
330
17
100
AcDbEntity
  8
visible
100
AcDbEllipse
 10
47.70421687536976
 20
-28.555081210098525
 30
0.0
 11
12.0
 21
0.0
 31
0.0
 40
0.4006562966022768
 41
0.0
 42
0.11459157295596545
  0
LINE
  5
37
330
17
100
AcDbEntity
  8
visible
100
AcDbLine
 10
57.688820407423876
 20
-31.222010726228408
 30
0.0
 11
25.516209026360592
 21
-50.55724971817003
 31
0.0
  0
ELLIPSE
  5
38
330
17
100
AcDbEntity
  8
visible
100
AcDbEllipse
 10
15.531605494306469
 20
-47.890320202040144
 30
0.0
 11
12.0
 21
0.0
 31
0.0
 40
0.4006562966022768
 41
4.124386376837122
 42
5.695182703632018
  0
LINE
  5
39
330
17
100
AcDbEntity
  8
visible
100
AcDbLine
 10
-54.36061923007239
 20
-35.000160874079064
 30
0.0
 11
8.875203139603727
 21
-51.89071447623496
 31
0.0
  0
ELLIPSE
  5
3A
330
17
100
AcDbEntity
  8
visible
100
AcDbEllipse
 10
-47.704216875369646
 20
-30.999766599884243
 30
0.0
 11
-11.389897948556635
 21
-0.0
 31
0.0
 40
0.40065629660227675
 41
-6.17516093586439
 42
-5.3003915839322575
  0
LINE
  5
3B
330
17
100
AcDbEntity
  8
visible
100
AcDbLine
 10
9.213626867256774
 20
-51.68732708012925
 30
0.0
 11
-54.022195502419336
 21
-34.79677347797336
 31
0.0
  0
ELLIPSE
  5
3C
330
17
100
AcDbEntity
  8
visible
100
AcDbEllipse
 10
15.531605494306476
 20
-47.890320202040144
 30
0.0
 11
-11.389897948556635
 21
-0.0
 31
0.0
 40
0.40065629660227675
 41
-5.3003915839322575
 42
-3.729595257137361
  0
LINE
  5
3D
330
17
100
AcDbEntity
  8
visible
100
AcDbLine
 10
57.18118481594433
 20
-31.08641912882459
 30
0.0
 11
25.008573434881022
 21
-50.42165812076621
 31
0.0
  0
ELLIPSE
  5
3E
330
17
100
AcDbEntity
  8
visible
100
AcDbEllipse
 10
47.70421687536977
 20
-28.55508121009852
 30
0.0
 11
-11.389897948556635
 21
-0.0
 31
0.0
 40
0.40065629660227675
 41
-3.72959525713736
 42
-3.249617024904988
  0
LINE
  5
3F
330
17
100
AcDbEntity
  8
visible
100
AcDbLine
 10
-54.3606192300724
 20
-51.03415836138211
 30
0.0
 11
-49.36831746404533
 21
-52.367623119447046
 31
0.0
  0
LINE
  5
40
330
17
100
AcDbEntity
  8
visible
100
AcDbLine
 10
-54.3606192300724
 20
-40.03941722723145
 30
0.0
 11
-49.36831746404533
 21
-41.37288198529639
 31
0.0
  0
LINE
  5
41
330
17
100
AcDbEntity
  8
visible
100
AcDbLine
 10
-49.36831746404533
 20
-41.37288198529639
 30
0.0
 11
-49.36831746404533
 21
-52.36762311944705
 31
0.0
  0
LINE
  5
42
330
17
100
AcDbEntity
  8
visible
100
AcDbLine
 10
-41.46383966783582
 20
-55.85328496148537
 30
0.0
 11
-37.303588196146606
 21
-56.964505593206155
 31
0.0
  0
LINE
  5
43
330
17
100
AcDbEntity
  8
visible
100
AcDbLine
 10
-41.46383966783582
 20
-55.85328496148537
 30
0.0
 11
-41.46383966783582
 21
-58.60197024502304
 31
0.0
  0
LINE
  5
44
330
17
100
AcDbEntity
  8
visible
100
AcDbLine
 10
-37.3035881961466
 20
-56.964505593206155
 30
0.0
 11
-37.3035881961466
 21
-59.71319087674382
 31
0.0
  0
LINE
  5
45
330
17
100
AcDbEntity
  8
visible
100
AcDbLine
 10
-41.46383966783582
 20
-58.60197024502304
 30
0.0
 11
-37.303588196146606
 21
-59.71319087674382
 31
0.0
  0
LINE
  5
46
330
17
100
AcDbEntity
  8
visible
100
AcDbLine
 10
-33.143336724457384
 20
-58.07572622492694
 30
0.0
 11
-28.98308525276817
 21
-59.186946856647715
 31
0.0
  0
LINE
  5
47
330
17
100
AcDbEntity
  8
visible
100
AcDbLine
 10
-33.143336724457384
 20
-58.07572622492693
 30
0.0
 11
-33.143336724457384
 21
-60.8244115084646
 31
0.0
  0
LINE
  5
48
330
17
100
AcDbEntity
  8
visible
100
AcDbLine
 10
-28.983085252768163
 20
-59.186946856647715
 30
0.0
 11
-28.983085252768163
 21
-61.93563214018538
 31
0.0
  0
LINE
  5
49
330
17
100
AcDbEntity
  8
visible
100
AcDbLine
 10
-33.143336724457384
 20
-60.82441150846461
 30
0.0
 11
-28.98308525276817
 21
-61.93563214018538
 31
0.0
  0
LINE
  5
4A
330
17
100
AcDbEntity
  8
visible
100
AcDbLine
 10
-27.597282694570737
 20
-47.49782544596309
 30
0.0
 11
-27.597282694570737
 21
-48.16486479455597
 31
0.0
  0
SPLINE
  5
4B
330
17
100
AcDbEntity
  8
visible
100
AcDbSpline
 70
0
 71
2
 72
6
 73
3
 74
0
 40
0.0
 40
0.0
 40
0.0
 40
1.0
 40
1.0
 40
1.0
 10
-27.597282694570737
 20
-47.49782544596309
 30
0.0
 10
-27.89186787289837
 20
-47.19744914359467
 30
0.0
 10
-28.230055318316438
 20
-46.995289547652476
 30
0.0
  0
SPLINE
  5
4C
330
17
100
AcDbEntity
  8
visible
100
AcDbSpline
 70
0
 71
2
 72
6
 73
3
 74
0
 40
0.0
 40
0.0
 40
0.0
 40
1.0
 40
1.0
 40
1.0
 10
-28.21583570879406
 20
-47.55495378887345
 30
0.0
 10
-27.879588232741085
 20
-47.79761309018707
 30
0.0
 10
-27.597282694570737
 20
-48.16486479455597
 30
0.0
  0
SPLINE
  5
4D
330
17
100
AcDbEntity
  8
visible
100
AcDbSpline
 70
0
 71
2
 72
6
 73
3
 74
0
 40
0.0
 40
0.0
 40
0.0
 40
1.0
 40
1.0
 40
1.0
 10
-28.230055318316438
 20
-46.995289547652476
 30
0.0
 10
-28.573371507741864
 20
-46.79146634266476
 30
0.0
 10
-28.948145599196387
 20
-46.69231139451136
 30
0.0
  0
SPLINE
  5
4E
330
17
100
AcDbEntity
  8
visible
100
AcDbSpline
 70
0
 71
2
 72
6
 73
3
 74
0
 40
0.0
 40
0.0
 40
0.0
 40
1.0
 40
1.0
 40
1.0
 10
-28.914018536342688
 20
-47.2212791385396
 30
0.0
 10
-28.54748650683173
 20
-47.3185719916789
 30
0.0
 10
-28.21583570879406
 20
-47.55495378887345
 30
0.0
  0
SPLINE
  5
4F
330
17
100
AcDbEntity
  8
visible
100
AcDbSpline
 70
0
 71
3
 72
8
 73
4
 74
0
 40
0.0
 40
0.0
 40
0.0
 40
0.0
 40
0.8387360421119832
 40
0.8387360421119832
 40
0.8387360421119832
 40
0.8387360421119832
 10
-28.94814559919639
 20
-46.69231139451136
 30
0.0
 10
-29.427519351597756
 20
-46.561285299651296
 30
0.0
 10
-29.90479719506073
 20
-46.56628047795156
 30
0.0
 10
-30.2695148572328
 20
-46.78971270606617
 30
0.0
  0
SPLINE
  5
50
330
17
100
AcDbEntity
  8
visible
100
AcDbSpline
 70
0
 71
2
 72
6
 73
3
 74
0
 40
0.0
 40
0.0
 40
0.0
 40
1.0
 40
1.0
 40
1.0
 10
-30.269514857232796
 20
-46.78971270606617
 30
0.0
 10
-30.374692961106618
 20
-46.85303924135801
 30
0.0
 10
-30.466799896186064
 20
-46.93648778473191
 30
0.0
  0
SPLINE
  5
51
330
17
100
AcDbEntity
  8
visible
100
AcDbSpline
 70
0
 71
2
 72
6
 73
3
 74
0
 40
0.0
 40
0.0
 40
0.0
 40
0.18796734690868203
 40
0.18796734690868203
 40
0.18796734690868203
 10
-30.02883592289691
 20
-47.41360841589155
 30
0.0
 10
-29.953474004125326
 20
-47.33812772856564
 30
0.0
 10
-29.86385368630209
 20
-47.284160745697214
 30
0.0
  0
SPLINE
  5
52
330
17
100
AcDbEntity
  8
visible
100
AcDbSpline
 70
0
 71
3
 72
8
 73
4
 74
0
 40
0.0
 40
0.0
 40
0.0
 40
0.0
 40
1.0
 40
1.0
 40
1.0
 40
1.0
 10
-29.863853686302086
 20
-47.28416074569721
 30
0.0
 10
-29.605827317820747
 20
-47.12660048114984
 30
0.0
 10
-29.264167300818745
 20
-47.1260465935648
 30
0.0
 10
-28.914018536342688
 20
-47.22127913853959
 30
0.0
  0
SPLINE
  5
53
330
17
100
AcDbEntity
  8
visible
100
AcDbSpline
 70
0
 71
3
 72
11
 73
7
 74
0
 40
0.0
 40
0.0
 40
0.0
 40
0.0
 40
0.6298555326701425
 40
0.6298555326701425
 40
0.6298555326701425
 40
1.0
 40
1.0
 40
1.0
 40
1.0
 10
-30.46679989618607
 20
-46.93648778473191
 30
0.0
 10
-30.7162688103734
 20
-47.15975531440085
 30
0.0
 10
-30.878546744101847
 20
-47.48761903583934
 30
0.0
 10
-30.955739690773548
 20
-47.86396539034636
 30
0.0
 10
-31.000714714464618
 20
-48.08643443715197
 30
0.0
 10
-31.022589706726357
 20
-48.32030163455755
 30
0.0
 10
-31.0213646675587
 20
-48.56556698256297
 30
0.0
  0
SPLINE
  5
54
330
17
100
AcDbEntity
  8
visible
100
AcDbSpline
 70
0
 71
3
 72
8
 73
4
 74
0
 40
0.0
 40
0.0
 40
0.0
 40
0.0
 40
1.0
 40
1.0
 40
1.0
 40
1.0
 10
-30.41560930190551
 20
-48.72736678352934
 30
0.0
 10
-30.416804553298896
 20
-48.20192637953652
 30
0.0
 10
-30.319658618542988
 20
-47.70255765291285
 30
0.0
 10
-30.02883592289691
 20
-47.413608415891545
 30
0.0
  0
SPLINE
  5
55
330
17
100
AcDbEntity
  8
visible
100
AcDbSpline
 70
0
 71
3
 72
11
 73
7
 74
0
 40
0.0
 40
0.0
 40
0.0
 40
0.0
 40
0.36781947571318296
 40
0.36781947571318296
 40
0.36781947571318296
 40
1.0
 40
1.0
 40
1.0
 40
1.0
 10
-31.0213646675587
 20
-48.56556698256298
 30
0.0
 10
-31.022561905563293
 20
-48.80822698401155
 30
0.0
 10
-31.000940534257033
 20
-49.0518355489046
 30
0.0
 10
-30.956500553639874
 20
-49.29639267724205
 30
0.0
 10
-30.879503306331742
 20
-49.714876261283756
 30
0.0
 10
-30.71687473971016
 20
-50.1303857505449
 30
0.0
 10
-30.466799896186075
 20
-50.4877676969588
 30
0.0
  0
SPLINE
  5
56
330
17
100
AcDbEntity
  8
visible
100
AcDbSpline
 70
0
 71
3
 72
8
 73
4
 74
0
 40
0.0
 40
0.0
 40
0.0
 40
0.0
 40
1.0
 40
1.0
 40
1.0
 40
1.0
 10
-30.02883592289691
 20
-50.24461109724349
 30
0.0
 10
-30.319253214731965
 20
-49.80104381310228
 30
0.0
 10
-30.41685142037987
 20
-49.25108949553355
 30
0.0
 10
-30.41560930190551
 20
-48.72736678352935
 30
0.0
  0
SPLINE
  5
57
330
17
100
AcDbEntity
  8
visible
100
AcDbSpline
 70
0
 71
3
 72
11
 73
7
 74
0
 40
0.0
 40
0.0
 40
0.0
 40
0.0
 40
0.45830463551269063
 40
0.45830463551269063
 40
0.45830463551269063
 40
1.0
 40
1.0
 40
1.0
 40
1.0
 10
-30.466799896186064
 20
-50.487767696958805
 30
0.0
 10
-30.29279631344891
 20
-50.739019942952126
 30
0.0
 10
-30.08034750749114
 20
-50.95686310768662
 30
0.0
 10
-29.844566346488094
 20
-51.12604088109643
 30
0.0
 10
-29.565849255578403
 20
-51.32705839781639
 30
0.0
 10
-29.258362385406457
 20
-51.460593373509745
 30
0.0
 10
-28.948145599196387
 20
-51.54322196244738
 30
0.0
  0
SPLINE
  5
58
330
17
100
AcDbEntity
  8
visible
100
AcDbSpline
 70
0
 71
3
 72
11
 73
7
 74
0
 40
0.0
 40
0.0
 40
0.0
 40
0.0
 40
0.5601545193542434
 40
0.5601545193542434
 40
0.5601545193542434
 40
1.0
 40
1.0
 40
1.0
 40
1.0
 10
-28.914018536342688
 20
-51.032485181908314
 30
0.0
 10
-29.155921457789475
 20
-50.96805723020865
 30
0.0
 10
-29.392647998205533
 20
-50.8634995018402
 30
0.0
 10
-29.60187872367619
 20
-50.705311388317625
 30
0.0
 10
-29.767740272285987
 20
-50.580135888050876
 30
0.0
 10
-29.910059338692886
 20
-50.426569124359496
 30
0.0
 10
-30.028835922896903
 20
-50.24461109724349
 30
0.0
  0
SPLINE
  5
59
330
17
100
AcDbEntity
  8
visible
100
AcDbSpline
 70
0
 71
2
 72
6
 73
3
 74
0
 40
0.0
 40
0.0
 40
0.0
 40
1.0
 40
1.0
 40
1.0
 10
-28.948145599196387
 20
-51.543221962447376
 30
0.0
 10
-28.577702314029743
 20
-51.64292482921883
 30
0.0
 10
-28.235743162125388
 20
-51.62076859903298
 30
0.0
  0
SPLINE
  5
5A
330
17
100
AcDbEntity
  8
visible
100
AcDbSpline
 70
0
 71
2
 72
6
 73
3
 74
0
 40
0.0
 40
0.0
 40
0.0
 40
1.0
 40
1.0
 40
1.0
 10
-28.21583570879406
 20
-51.0717856596237
 30
0.0
 10
-28.547486503576987
 20
-51.13099681607805
 30
0.0
 10
-28.914018536342688
 20
-51.03248518190831
 30
0.0
  0
SPLINE
  5
5B
330
17
100
AcDbEntity
  8
visible
100
AcDbSpline
 70
0
 71
2
 72
6
 73
3
 74
0
 40
0.0
 40
0.0
 40
0.0
 40
1.0
 40
1.0
 40
1.0
 10
-28.235743162125388
 20
-51.620768599032985
 30
0.0
 10
-27.896418003664067
 20
-51.5974046926444
 30
0.0
 10
-27.597282694570737
 20
-51.453086935506796
 30
0.0
  0
SPLINE
  5
5C
330
17
100
AcDbEntity
  8
visible
100
AcDbSpline
 70
0
 71
2
 72
6
 73
3
 74
0
 40
0.0
 40
0.0
 40
0.0
 40
0.25398359330363984
 40
0.25398359330363984
 40
0.25398359330363984
 10
-27.597282694570737
 20
-50.79231086718238
 30
0.0
 10
-27.668797547256375
 20
-50.846606645977175
 30
0.0
 10
-27.744000512187796
 20
-50.89185357838039
 30
0.0
  0
SPLINE
  5
5D
330
17
100
AcDbEntity
  8
visible
100
AcDbSpline
 70
0
 71
2
 72
6
 73
3
 74
0
 40
0.0
 40
0.0
 40
0.0
 40
1.0
 40
1.0
 40
1.0
 10
-27.744000512187796
 20
-50.8918535783804
 30
0.0
 10
-27.96528420631339
 20
-51.025654598763055
 30
0.0
 10
-28.21583570879406
 20
-51.071785659623714
 30
0.0
  0
LINE
  5
5E
330
17
100
AcDbEntity
  8
visible
100
AcDbLine
 10
-27.597282694570737
 20
-50.79231086718238
 30
0.0
 11
-27.597282694570737
 21
-51.45308693550679
 31
0.0
  0
LINE
  5
5F
330
17
100
AcDbEntity
  8
visible
100
AcDbLine
 10
-27.236104612702402
 20
-51.90969773274111
 30
0.0
 11
-25.61506912715162
 21
-47.667144395190235
 31
0.0
  0
LINE
  5
60
330
17
100
AcDbEntity
  8
visible
100
AcDbLine
 10
-26.630349247049217
 20
-52.07149753370748
 30
0.0
 11
-27.236104612702402
 21
-51.9096977327411
 31
0.0
  0
LINE
  5
61
330
17
100
AcDbEntity
  8
visible
100
AcDbLine
 10
-25.615069127151628
 20
-47.667144395190235
 30
0.0
 11
-24.96381101102684
 21
-47.84109817181606
 31
0.0
  0
LINE
  5
62
330
17
100
AcDbEntity
  8
visible
100
AcDbLine
 10
-26.2435758680406
 20
-50.97538815539929
 30
0.0
 11
-26.63034924704921
 21
-52.071497533707486
 31
0.0
  0
LINE
  5
63
330
17
100
AcDbEntity
  8
visible
100
AcDbLine
 10
-24.963811011026834
 20
-47.84109817181606
 30
0.0
 11
-23.345619447380532
 21
-52.94886265162375
 31
0.0
  0
LINE
  5
64
330
17
100
AcDbEntity
  8
visible
100
AcDbLine
 10
-24.3296164263289
 20
-51.48661475657474
 30
0.0
 11
-26.24357586804061
 21
-50.97538815539929
 31
0.0
  0
LINE
  5
65
330
17
100
AcDbEntity
  8
visible
100
AcDbLine
 10
-23.345619447380532
 20
-52.94886265162375
 30
0.0
 11
-23.942843047320295
 21
-52.789341721093514
 31
0.0
  0
LINE
  5
66
330
17
100
AcDbEntity
  8
visible
100
AcDbLine
 10
-23.942843047320295
 20
-52.789341721093514
 30
0.0
 11
-24.329616426328904
 21
-51.48661475657473
 31
0.0
  0
LINE
  5
67
330
17
100
AcDbEntity
  8
visible
100
AcDbLine
 10
-24.82283378107895
 20
-60.2981674883685
 30
0.0
 11
-20.66258230938973
 21
-61.40938812008928
 31
0.0
  0
LINE
  5
68
330
17
100
AcDbEntity
  8
visible
100
AcDbLine
 10
-24.82283378107895
 20
-60.2981674883685
 30
0.0
 11
-24.82283378107895
 21
-63.04685277190617
 31
0.0
  0
LINE
  5
69
330
17
100
AcDbEntity
  8
visible
100
AcDbLine
 10
-20.662582309389727
 20
-61.40938812008928
 30
0.0
 11
-20.662582309389727
 21
-64.15807340362694
 31
0.0
  0
LINE
  5
6A
330
17
100
AcDbEntity
  8
visible
100
AcDbLine
 10
-24.82283378107895
 20
-63.04685277190616
 30
0.0
 11
-20.66258230938973
 21
-64.15807340362694
 31
0.0
  0
LINE
  5
6B
330
17
100
AcDbEntity
  8
visible
100
AcDbLine
 10
-16.50233083770051
 20
-62.52060875181006
 30
0.0
 11
-12.34207936601129
 21
-63.63182938353084
 31
0.0
  0
LINE
  5
6C
330
17
100
AcDbEntity
  8
visible
100
AcDbLine
 10
-16.502330837700512
 20
-62.520608751810066
 30
0.0
 11
-16.502330837700512
 21
-65.26929403534773
 31
0.0
  0
LINE
  5
6D
330
17
100
AcDbEntity
  8
visible
100
AcDbLine
 10
-12.342079366011292
 20
-63.63182938353085
 30
0.0
 11
-12.342079366011292
 21
-66.38051466706851
 31
0.0
  0
LINE
  5
6E
330
17
100
AcDbEntity
  8
visible
100
AcDbLine
 10
-16.50233083770051
 20
-65.26929403534773
 30
0.0
 11
-12.34207936601129
 21
-66.38051466706851
 31
0.0
  0
LINE
  5
6F
330
17
100
AcDbEntity
  8
visible
100
AcDbLine
 10
-8.181827894322076
 20
-64.74305001525163
 30
0.0
 11
-4.0215764226328545
 21
-65.85427064697241
 31
0.0
  0
LINE
  5
70
330
17
100
AcDbEntity
  8
visible
100
AcDbLine
 10
-4.0215764226328545
 20
-65.85427064697242
 30
0.0
 11
-4.0215764226328545
 21
-68.60295593051008
 31
0.0
  0
LINE
  5
71
330
17
100
AcDbEntity
  8
visible
100
AcDbLine
 10
-8.181827894322076
 20
-67.4917352987893
 30
0.0
 11
-4.0215764226328545
 21
-68.60295593051008
 31
0.0
  0
LINE
  5
72
330
17
100
AcDbEntity
  8
visible
100
AcDbLine
 10
-8.181827894322074
 20
-64.74305001525164
 30
0.0
 11
-8.181827894322074
 21
-67.4917352987893
 31
0.0
  0
LINE
  5
73
330
17
100
AcDbEntity
  8
visible
100
AcDbLine
 10
-22.725644472204973
 20
-53.11446056998369
 30
0.0
 11
-22.725644472204973
 21
-48.43892184956505
 31
0.0
  0
LINE
  5
74
330
17
100
AcDbEntity
  8
visible
100
AcDbLine
 10
-22.16823577892786
 20
-53.26334677181191
 30
0.0
 11
-22.72564447220497
 21
-53.1144605699837
 31
0.0
  0
LINE
  5
75
330
17
100
AcDbEntity
  8
visible
100
AcDbLine
 10
-22.725644472204976
 20
-48.43892184956506
 30
0.0
 11
-21.869623978957986
 21
-48.66756851665839
 31
0.0
  0
LINE
  5
76
330
17
100
AcDbEntity
  8
visible
100
AcDbLine
 10
-22.168235778927865
 20
-49.15776655582474
 30
0.0
 11
-22.168235778927865
 21
-53.26334677181191
 31
0.0
  0
LINE
  5
77
330
17
100
AcDbEntity
  8
visible
100
AcDbLine
 10
-21.869623978957982
 20
-48.667568516658385
 30
0.0
 11
-20.786089733352988
 21
-52.13873143843564
 31
0.0
  0
LINE
  5
78
330
17
100
AcDbEntity
  8
visible
100
AcDbLine
 10
-21.07332584570497
 20
-52.65702109259078
 30
0.0
 11
-22.168235778927865
 21
-49.15776655582475
 31
0.0
  0
LINE
  5
79
330
17
100
AcDbEntity
  8
visible
100
AcDbLine
 10
-20.786089733352984
 20
-52.13873143843564
 30
0.0
 11
-19.69686764393904
 21
-49.24792085439694
 31
0.0
  0
LINE
  5
7A
330
17
100
AcDbEntity
  8
visible
100
AcDbLine
 10
-20.496009699096536
 20
-52.811224658769994
 30
0.0
 11
-21.07332584570497
 21
-52.657021092590774
 31
0.0
  0
LINE
  5
7B
330
17
100
AcDbEntity
  8
visible
100
AcDbLine
 10
-19.696867643939047
 20
-49.24792085439694
 30
0.0
 11
-18.840847150692056
 21
-49.47656752149027
 31
0.0
  0
LINE
  5
7C
330
17
100
AcDbEntity
  8
visible
100
AcDbLine
 10
-19.40109976587364
 20
-49.8968802006148
 30
0.0
 11
-20.496009699096533
 21
-52.811224658769994
 31
0.0
  0
LINE
  5
7D
330
17
100
AcDbEntity
  8
visible
100
AcDbLine
 10
-18.840847150692053
 20
-49.47656752149027
 30
0.0
 11
-18.840847150692053
 21
-54.1521062419089
 31
0.0
  0
LINE
  5
7E
330
17
100
AcDbEntity
  8
visible
100
AcDbLine
 10
-19.40109976587364
 20
-54.00246041660198
 30
0.0
 11
-19.40109976587364
 21
-49.89688020061482
 31
0.0
  0
LINE
  5
7F
330
17
100
AcDbEntity
  8
visible
100
AcDbLine
 10
-18.84084715069205
 20
-54.1521062419089
 30
0.0
 11
-19.40109976587363
 21
-54.00246041660198
 31
0.0
  0
LINE
  5
80
330
17
100
AcDbEntity
  8
visible
100
AcDbLine
 10
-16.58277315853886
 20
-52.25933009702053
 30
0.0
 11
-17.90519684411976
 21
-49.72648364598762
 31
0.0
  0
LINE
  5
81
330
17
100
AcDbEntity
  8
visible
100
AcDbLine
 10
-18.098583533624065
 20
-54.35036796985362
 30
0.0
 11
-16.582773158538863
 21
-52.25933009702053
 31
0.0
  0
LINE
  5
82
330
17
100
AcDbEntity
  8
visible
100
AcDbLine
 10
-17.90519684411976
 20
-49.72648364598762
 30
0.0
 11
-17.288065790848673
 21
-49.891321940868856
 31
0.0
  0
LINE
  5
83
330
17
100
AcDbEntity
  8
visible
100
AcDbLine
 10
-17.478608558448503
 20
-54.515965888213564
 30
0.0
 11
-18.098583533624062
 21
-54.350367969853615
 31
0.0
  0
LINE
  5
84
330
17
100
AcDbEntity
  8
visible
100
AcDbLine
 10
-17.288065790848666
 20
-49.891321940868856
 30
0.0
 11
-16.232970764288424
 21
-51.91120252597484
 31
0.0
  0
LINE
  5
85
330
17
100
AcDbEntity
  8
visible
100
AcDbLine
 10
-16.27562959285555
 20
-52.848695134468485
 30
0.0
 11
-17.478608558448496
 21
-54.515965888213564
 31
0.0
  0
LINE
  5
86
330
17
100
AcDbEntity
  8
visible
100
AcDbLine
 10
-16.232970764288424
 20
-51.91120252597484
 30
0.0
 11
-15.17218789391923
 21
-50.45648180903311
 31
0.0
  0
LINE
  5
87
330
17
100
AcDbEntity
  8
visible
100
AcDbLine
 10
-15.08118239297603
 20
-55.15632848077064
 30
0.0
 11
-16.27562959285555
 21
-52.8486951344685
 31
0.0
  0
LINE
  5
88
330
17
100
AcDbEntity
  8
visible
100
AcDbLine
 10
-15.172187893919237
 20
-50.4564818090331
 30
0.0
 11
-14.555056840648149
 21
-50.621320103914336
 31
0.0
  0
LINE
  5
89
330
17
100
AcDbEntity
  8
visible
100
AcDbLine
 10
-14.464051339704952
 20
-55.32116677565187
 30
0.0
 11
-15.08118239297604
 21
-55.15632848077063
 31
0.0
  0
LINE
  5
8A
330
17
100
AcDbEntity
  8
visible
100
AcDbLine
 10
-14.555056840648144
 20
-50.62132010391434
 30
0.0
 11
-15.920139354796168
 21
-52.502086810380234
 31
0.0
  0
LINE
  5
8B
330
17
100
AcDbEntity
  8
visible
100
AcDbLine
 10
-15.920139354796172
 20
-52.502086810380234
 30
0.0
 11
-14.464051339704945
 21
-55.321166775651875
 31
0.0
  0
LINE
  5
8C
330
17
100
AcDbEntity
  8
visible
100
AcDbLine
 10
-59.07399484161069
 20
-48.57137359900831
 30
0.0
 11
-49.36831746404533
 21
-51.1638007684162
 31
0.0
  0
LINE
  5
8D
330
17
100
AcDbEntity
  8
visible
100
AcDbLine
 10
57.68882040742388
 20
-58.89210924717423
 30
0.0
 11
57.68882040742388
 21
-31.2220107262284
 31
0.0
  0
LINE
  5
8E
330
17
100
AcDbEntity
  8
visible
100
AcDbLine
 10
25.516209026360592
 20
-78.22734823911586
 30
0.0
 11
25.516209026360592
 21
-50.55724971817001
 31
0.0
  0
LINE
  5
8F
330
17
100
AcDbEntity
  8
visible
100
AcDbLine
 10
57.68882040742388
 20
-58.89210924717423
 30
0.0
 11
25.516209026360592
 21
-78.22734823911586
 31
0.0
  0
LINE
  5
90
330
17
100
AcDbEntity
  8
visible
100
AcDbLine
 10
54.52702928894008
 20
-39.2609284730384
 30
0.0
 11
37.55320328444807
 21
-49.46193387223518
 31
0.0
  0
LINE
  5
91
330
17
100
AcDbEntity
  8
visible
100
AcDbLine
 10
54.52702928894008
 20
-39.2609284730384
 30
0.0
 11
54.52702928894008
 21
-50.80540666389659
 31
0.0
  0
LINE
  5
92
330
17
100
AcDbEntity
  8
visible
100
AcDbLine
 10
37.55320328444807
 20
-49.461933872235186
 30
0.0
 11
37.55320328444807
 21
-61.00641206309338
 31
0.0
  0
LINE
  5
93
330
17
100
AcDbEntity
  8
visible
100
AcDbLine
 10
54.52702928894008
 20
-50.80540666389659
 30
0.0
 11
37.55320328444807
 21
-61.00641206309337
 31
0.0
  0
ELLIPSE
  5
94
330
17
100
AcDbEntity
  8
visible
100
AcDbEllipse
 10
29.399110399937197
 20
-64.71579809278236
 30
0.0
 11
-0.7741718308317758
 21
-2.898388858719026
 31
0.0
 40
0.5082320887132478
 41
0.48388241834241674
 42
3.141592653589793
  0
ELLIPSE
  5
95
330
17
100
AcDbEntity
  8
visible
100
AcDbEllipse
 10
29.399110399937197
 20
-64.71579809278236
 30
0.0
 11
-0.7741718308317758
 21
-2.898388858719026
 31
0.0
 40
0.5082320887132478
 41
3.141592653589793
 42
6.283185307179587
  0
ELLIPSE
  5
96
330
17
100
AcDbEntity
  8
visible
100
AcDbEllipse
 10
29.399110399937197
 20
-64.71579809278236
 30
0.0
 11
-0.7741718308317758
 21
-2.898388858719026
 31
0.0
 40
0.5082320887132478
 41
8.881784197001252e-16
 42
0.4838824183424171
  0
LINE
  5
97
330
17
100
AcDbEntity
  8
visible
100
AcDbLine
 10
-39.79973907916013
 20
-56.29777321417368
 30
0.0
 11
-39.79973907916013
 21
-57.601871676474325
 31
0.0
  0
LINE
  5
98
330
17
100
AcDbEntity
  8
visible
100
AcDbLine
 10
-41.46383966783583
 20
-58.60197024502303
 30
0.0
 11
-39.79973907916014
 21
-57.601871676474325
 31
0.0
  0
LINE
  5
99
330
17
100
AcDbEntity
  8
visible
100
AcDbLine
 10
-39.799739079160126
 20
-57.601871676474325
 30
0.0
 11
-37.3035881961466
 21
-58.2686040555068
 31
0.0
  0
LINE
  5
9A
330
17
100
AcDbEntity
  8
visible
100
AcDbLine
 10
-31.479236135781697
 20
-58.52021447761525
 30
0.0
 11
-31.479236135781697
 21
-59.82431293991589
 31
0.0
  0
LINE
  5
9B
330
17
100
AcDbEntity
  8
visible
100
AcDbLine
 10
-33.143336724457384
 20
-60.8244115084646
 30
0.0
 11
-31.479236135781697
 21
-59.82431293991589
 31
0.0
  0
LINE
  5
9C
330
17
100
AcDbEntity
  8
visible
100
AcDbLine
 10
-31.479236135781697
 20
-59.82431293991589
 30
0.0
 11
-28.983085252768163
 21
-60.491045318948366
 31
0.0
  0
SPLINE
  5
9D
330
17
100
AcDbEntity
  8
visible
100
AcDbSpline
 70
0
 71
2
 72
6
 73
3
 74
0
 40
0.0
 40
0.0
 40
0.0
 40
1.0
 40
1.0
 40
1.0
 10
-27.597282694570737
 20
-47.592702214783216
 30
0.0
 10
-27.73632042141685
 20
-47.459850336707675
 30
0.0
 10
-27.88301559105892
 20
-47.35493407516371
 30
0.0
  0
SPLINE
  5
9E
330
17
100
AcDbEntity
  8
visible
100
AcDbSpline
 70
0
 71
2
 72
6
 73
3
 74
0
 40
0.0
 40
0.0
 40
0.0
 40
1.0
 40
1.0
 40
1.0
 10
-27.88301559105892
 20
-47.35493407516371
 30
0.0
 10
-28.21148857102579
 20
-47.120010477062856
 30
0.0
 10
-28.581198418607546
 20
-47.02125942482986
 30
0.0
  0
SPLINE
  5
9F
330
17
100
AcDbEntity
  8
visible
100
AcDbSpline
 70
0
 71
2
 72
6
 73
3
 74
0
 40
0.0
 40
0.0
 40
0.0
 40
0.03399296611569707
 40
0.03399296611569707
 40
0.03399296611569707
 10
-30.13397977845092
 20
-46.73646807102217
 30
0.0
 10
-30.115128476968692
 20
-46.71941418235962
 30
0.0
 10
-30.09580396072768
 20
-46.70323756708736
 30
0.0
  0
SPLINE
  5
A0
330
17
100
AcDbEntity
  8
visible
100
AcDbSpline
 70
0
 71
2
 72
6
 73
3
 74
0
 40
0.0
 40
0.0
 40
0.0
 40
0.8037169786273726
 40
0.8037169786273726
 40
0.8037169786273726
 10
-28.581198418607546
 20
-47.02125942482986
 30
0.0
 10
-29.166339748659873
 20
-46.86496571930472
 30
0.0
 10
-29.531033568465475
 20
-47.0841410321603
 30
0.0
  0
SPLINE
  5
A1
330
17
100
AcDbEntity
  8
visible
100
AcDbSpline
 70
0
 71
2
 72
6
 73
3
 74
0
 40
0.0
 40
0.0
 40
0.0
 40
1.0
 40
1.0
 40
1.0
 10
-30.688544549823558
 20
-48.365547268853234
 30
0.0
 10
-30.688544549823558
 20
-47.23815682052724
 30
0.0
 10
-30.13397977845092
 20
-46.73646807102217
 30
0.0
  0
SPLINE
  5
A2
330
17
100
AcDbEntity
  8
visible
100
AcDbSpline
 70
0
 71
2
 72
6
 73
3
 74
0
 40
0.0
 40
0.0
 40
0.0
 40
1.0
 40
1.0
 40
1.0
 10
-30.13397977845092
 20
-50.287747983249055
 30
0.0
 10
-30.688544549823558
 20
-49.48980607704499
 30
0.0
 10
-30.688544549823558
 20
-48.365547268853234
 30
0.0
  0
SPLINE
  5
A3
330
17
100
AcDbEntity
  8
visible
100
AcDbSpline
 70
0
 71
2
 72
6
 73
3
 74
0
 40
0.0
 40
0.0
 40
0.0
 40
1.0
 40
1.0
 40
1.0
 10
-28.615325481461245
 20
-51.34320224873764
 30
0.0
 10
-29.57941500707829
 20
-51.08568988945312
 30
0.0
 10
-30.13397977845092
 20
-50.287747983249055
 30
0.0
  0
SPLINE
  5
A4
330
17
100
AcDbEntity
  8
visible
100
AcDbSpline
 70
0
 71
2
 72
6
 73
3
 74
0
 40
0.0
 40
0.0
 40
0.0
 40
1.0
 40
1.0
 40
1.0
 10
-27.902923044390246
 20
-51.420748885323235
 30
0.0
 10
-28.23992779007054
 20
-51.44347254792807
 30
0.0
 10
-28.615325481461245
 20
-51.34320224873764
 30
0.0
  0
SPLINE
  5
A5
330
17
100
AcDbEntity
  8
visible
100
AcDbSpline
 70
0
 71
2
 72
6
 73
3
 74
0
 40
0.0
 40
0.0
 40
0.0
 40
1.0
 40
1.0
 40
1.0
 10
-27.597282694570737
 20
-51.373207474095054
 30
0.0
 10
-27.74626183133249
 20
-51.41018548348865
 30
0.0
 10
-27.902923044390246
 20
-51.420748885323235
 30
0.0
  0
LINE
  5
A6
330
17
100
AcDbEntity
  8
visible
100
AcDbLine
 10
-26.903284494967266
 20
-51.709678019031365
 30
0.0
 11
-25.382418279278703
 21
-47.729286413263665
 31
0.0
  0
LINE
  5
A7
330
17
100
AcDbEntity
  8
visible
100
AcDbLine
 10
-26.903284494967266
 20
-51.709678019031365
 30
0.0
 11
-27.236104612702405
 21
-51.90969773274111
 31
0.0
  0
LINE
  5
A8
330
17
100
AcDbEntity
  8
visible
100
AcDbLine
 10
-26.53718278693752
 20
-51.80746532204401
 30
0.0
 11
-26.903284494967263
 21
-51.709678019031365
 31
0.0
  0
LINE
  5
A9
330
17
100
AcDbEntity
  8
visible
100
AcDbLine
 10
-25.910755750305473
 20
-50.775368441689544
 30
0.0
 11
-26.24357586804061
 21
-50.97538815539929
 31
0.0
  0
LINE
  5
AA
330
17
100
AcDbEntity
  8
visible
100
AcDbLine
 10
-23.996796308593762
 20
-51.286595042864995
 30
0.0
 11
-25.910755750305473
 21
-50.775368441689544
 31
0.0
  0
LINE
  5
AB
330
17
100
AcDbEntity
  8
visible
100
AcDbLine
 10
-23.996796308593762
 20
-51.286595042864995
 30
0.0
 11
-24.3296164263289
 21
-51.48661475657474
 31
0.0
  0
LINE
  5
AC
330
17
100
AcDbEntity
  8
visible
100
AcDbLine
 10
-23.445612981681585
 20
-52.63323659461819
 30
0.0
 11
-23.610022929585156
 21
-52.58932200738378
 31
0.0
  0
LINE
  5
AD
330
17
100
AcDbEntity
  8
visible
100
AcDbLine
 10
-23.610022929585156
 20
-52.58932200738377
 30
0.0
 11
-23.942843047320295
 21
-52.789341721093514
 31
0.0
  0
LINE
  5
AE
330
17
100
AcDbEntity
  8
visible
100
AcDbLine
 10
-23.610022929585156
 20
-52.58932200738377
 30
0.0
 11
-23.996796308593762
 21
-51.28659504286499
 31
0.0
  0
LINE
  5
AF
330
17
100
AcDbEntity
  8
visible
100
AcDbLine
 10
-23.15873319240326
 20
-60.74265574105681
 30
0.0
 11
-23.15873319240326
 21
-62.04675420335745
 31
0.0
  0
LINE
  5
B0
330
17
100
AcDbEntity
  8
visible
100
AcDbLine
 10
-24.82283378107895
 20
-63.04685277190616
 30
0.0
 11
-23.15873319240326
 21
-62.04675420335745
 31
0.0
  0
LINE
  5
B1
330
17
100
AcDbEntity
  8
visible
100
AcDbLine
 10
-23.15873319240326
 20
-62.04675420335746
 30
0.0
 11
-20.662582309389727
 21
-62.71348658238993
 31
0.0
  0
LINE
  5
B2
330
17
100
AcDbEntity
  8
visible
100
AcDbLine
 10
-14.838230249024823
 20
-62.965097004498375
 30
0.0
 11
-14.838230249024823
 21
-64.26919546679902
 31
0.0
  0
LINE
  5
B3
330
17
100
AcDbEntity
  8
visible
100
AcDbLine
 10
-16.502330837700512
 20
-65.26929403534773
 30
0.0
 11
-14.838230249024823
 21
-64.26919546679902
 31
0.0
  0
LINE
  5
B4
330
17
100
AcDbEntity
  8
visible
100
AcDbLine
 10
-14.838230249024821
 20
-64.26919546679903
 30
0.0
 11
-12.34207936601129
 21
-64.9359278458315
 31
0.0
  0
LINE
  5
B5
330
17
100
AcDbEntity
  8
visible
100
AcDbLine
 10
-8.181827894322076
 20
-67.4917352987893
 30
0.0
 11
-6.517727305646389
 21
-66.49163673024059
 31
0.0
  0
LINE
  5
B6
330
17
100
AcDbEntity
  8
visible
100
AcDbLine
 10
-6.517727305646382
 20
-66.49163673024059
 30
0.0
 11
-4.021576422632858
 21
-67.15836910927305
 31
0.0
  0
LINE
  5
B7
330
17
100
AcDbEntity
  8
visible
100
AcDbLine
 10
-6.517727305646387
 20
-65.18753826793994
 30
0.0
 11
-6.517727305646387
 21
-66.49163673024059
 31
0.0
  0
LINE
  5
B8
330
17
100
AcDbEntity
  8
visible
100
AcDbLine
 10
-22.392824354469834
 20
-52.914440856273956
 30
0.0
 11
-22.392824354469834
 21
-48.52781950010272
 31
0.0
  0
LINE
  5
B9
330
17
100
AcDbEntity
  8
visible
100
AcDbLine
 10
-22.392824354469834
 20
-52.914440856273956
 30
0.0
 11
-22.725644472204973
 21
-53.1144605699837
 31
0.0
  0
LINE
  5
BA
330
17
100
AcDbEntity
  8
visible
100
AcDbLine
 10
-22.168235778927865
 20
-52.974429407564514
 30
0.0
 11
-22.392824354469834
 21
-52.91444085627396
 31
0.0
  0
LINE
  5
BB
330
17
100
AcDbEntity
  8
visible
100
AcDbLine
 10
-21.835415661192723
 20
-48.95774684211501
 30
0.0
 11
-22.168235778927862
 21
-49.15776655582475
 31
0.0
  0
LINE
  5
BC
330
17
100
AcDbEntity
  8
visible
100
AcDbLine
 10
-20.45326961561785
 20
-51.938711724725906
 30
0.0
 11
-20.786089733352988
 21
-52.13873143843565
 31
0.0
  0
LINE
  5
BD
330
17
100
AcDbEntity
  8
visible
100
AcDbLine
 10
-20.74050572796983
 20
-52.45700137888103
 30
0.0
 11
-21.835415661192723
 21
-48.957746842115
 31
0.0
  0
LINE
  5
BE
330
17
100
AcDbEntity
  8
visible
100
AcDbLine
 10
-20.74050572796983
 20
-52.45700137888103
 30
0.0
 11
-21.073325845704968
 21
-52.657021092590774
 31
0.0
  0
LINE
  5
BF
330
17
100
AcDbEntity
  8
visible
100
AcDbLine
 10
-20.45326961561785
 20
-51.938711724725906
 30
0.0
 11
-19.462953956172374
 21
-49.310400182307056
 31
0.0
  0
LINE
  5
C0
330
17
100
AcDbEntity
  8
visible
100
AcDbLine
 10
-20.397363527969976
 20
-52.54865610092097
 30
0.0
 11
-20.74050572796983
 21
-52.45700137888104
 31
0.0
  0
LINE
  5
C1
330
17
100
AcDbEntity
  8
visible
100
AcDbLine
 10
-19.0682796481385
 20
-49.69686048690507
 30
0.0
 11
-19.40109976587364
 21
-49.89688020061481
 31
0.0
  0
LINE
  5
C2
330
17
100
AcDbEntity
  8
visible
100
AcDbLine
 10
-19.0682796481385
 20
-53.802440702892234
 30
0.0
 11
-19.0682796481385
 21
-49.69686048690507
 31
0.0
  0
LINE
  5
C3
330
17
100
AcDbEntity
  8
visible
100
AcDbLine
 10
-19.0682796481385
 20
-53.802440702892234
 30
0.0
 11
-19.40109976587364
 21
-54.00246041660198
 31
0.0
  0
LINE
  5
C4
330
17
100
AcDbEntity
  8
visible
100
AcDbLine
 10
-18.840847150692053
 20
-53.8631888776615
 30
0.0
 11
-19.0682796481385
 21
-53.802440702892234
 31
0.0
  0
LINE
  5
C5
330
17
100
AcDbEntity
  8
visible
100
AcDbLine
 10
-16.249953040803724
 20
-52.05931038331079
 30
0.0
 11
-17.397084291530085
 21
-49.86220264170609
 31
0.0
  0
LINE
  5
C6
330
17
100
AcDbEntity
  8
visible
100
AcDbLine
 10
-16.249953040803724
 20
-52.05931038331079
 30
0.0
 11
-16.582773158538863
 21
-52.25933009702053
 31
0.0
  0
LINE
  5
C7
330
17
100
AcDbEntity
  8
visible
100
AcDbLine
 10
-17.765763415888927
 20
-54.15034825614388
 30
0.0
 11
-16.249953040803724
 21
-52.05931038331079
 31
0.0
  0
LINE
  5
C8
330
17
100
AcDbEntity
  8
visible
100
AcDbLine
 10
-17.765763415888927
 20
-54.15034825614388
 30
0.0
 11
-18.098583533624065
 21
-54.35036796985362
 31
0.0
  0
LINE
  5
C9
330
17
100
AcDbEntity
  8
visible
100
AcDbLine
 10
-17.30383082528228
 20
-54.27373239016544
 30
0.0
 11
-17.765763415888927
 21
-54.15034825614388
 31
0.0
  0
LINE
  5
CA
330
17
100
AcDbEntity
  8
visible
100
AcDbLine
 10
-15.900150646553293
 20
-51.7111828122651
 30
0.0
 11
-16.23297076428843
 21
-51.91120252597484
 31
0.0
  0
LINE
  5
CB
330
17
100
AcDbEntity
  8
visible
100
AcDbLine
 10
-15.942809475120416
 20
-52.64867542075875
 30
0.0
 11
-16.275629592855555
 21
-52.84869513446849
 31
0.0
  0
LINE
  5
CC
330
17
100
AcDbEntity
  8
visible
100
AcDbLine
 10
-15.900150646553293
 20
-51.7111828122651
 30
0.0
 11
-15.015701471535127
 21
-50.4982799893404
 31
0.0
  0
LINE
  5
CD
330
17
100
AcDbEntity
  8
visible
100
AcDbLine
 10
-14.748362275240895
 20
-54.9563087670609
 30
0.0
 11
-15.942809475120416
 21
-52.64867542075875
 31
0.0
  0
LINE
  5
CE
330
17
100
AcDbEntity
  8
visible
100
AcDbLine
 10
-14.748362275240895
 20
-54.9563087670609
 30
0.0
 11
-15.081182392976034
 21
-55.15632848077064
 31
0.0
  0
LINE
  5
CF
330
17
100
AcDbEntity
  8
visible
100
AcDbLine
 10
-14.637163549397009
 20
-54.98601041351657
 30
0.0
 11
-14.748362275240895
 21
-54.9563087670609
 31
0.0
  0
LINE
  5
D0
330
17
100
AcDbEntity
  8
visible
100
AcDbLine
 10
54.043982754425976
 20
-50.676382906826596
 30
0.0
 11
54.52702928894008
 21
-50.80540666389659
 31
0.0
  0
ELLIPSE
  5
D1
330
17
100
AcDbEntity
  8
visible
100
AcDbEllipse
 10
26.902959516923662
 20
-64.0490657137499
 30
0.0
 11
-0.7741718308317758
 21
-2.898388858719026
 31
0.0
 40
0.5082320887132478
 41
1.0108253661542268
 42
2.130767287435567
  0
LINE
  5
D2
330
17
100
AcDbEntity
  8
visible
100
AcDbLine
 10
-4.0215764226328545
 20
-66.15509898078182
 30
0.0
 11
-4.271191510934212
 21
-66.08842574287857
 31
0.0
  0
LINE
  5
D3
330
17
100
AcDbEntity
  8
visible
100
AcDbLine
 10
-4.271191510934207
 20
-66.08842574287857
 30
0.0
 11
-4.0215764226328545
 21
-65.93841095759626
 31
0.0
  0
LINE
  5
D4
330
17
100
AcDbEntity
  8
visible
100
AcDbLine
 10
-24.175963388575692
 20
-50.7126232211538
 30
0.0
 11
-24.95804191230633
 21
-48.17691814476758
 31
0.0
  0
LINE
  5
D5
330
17
100
AcDbEntity
  8
visible
100
AcDbLine
 10
28.059657765633872
 20
-63.889730141705044
 30
0.0
 11
28.47591951862151
 21
-64.00091540328451
 31
0.0
  0
LINE
  5
D6
330
17
100
AcDbEntity
  8
visible
100
AcDbLine
 10
-24.95804191230633
 20
-48.17691814476758
 30
0.0
 11
-25.29086203004147
 21
-48.376937858477326
 31
0.0
  0
LINE
  5
D7
330
17
100
AcDbEntity
  8
visible
100
AcDbLine
 10
-24.508783506310824
 20
-50.912642934863534
 30
0.0
 11
-25.290862030041463
 21
-48.37693785847732
 31
0.0
  0
LINE
  5
D8
330
17
100
AcDbEntity
  8
visible
100
AcDbLine
 10
-24.175963388575692
 20
-50.7126232211538
 30
0.0
 11
-24.50878350631083
 21
-50.91264293486354
 31
0.0
  0
LINE
  5
D9
330
17
100
AcDbEntity
  8
visible
100
AcDbLine
 10
-25.290862030041463
 20
-48.376937858477326
 30
0.0
 11
-26.070096631867628
 21
-50.495609645048795
 31
0.0
  0
LINE
  5
DA
330
17
100
AcDbEntity
  8
visible
100
AcDbLine
 10
-26.07009663186763
 20
-50.495609645048795
 30
0.0
 11
-24.508783506310827
 21
-50.912642934863534
 31
0.0
  0
ELLIPSE
  5
DB
330
17
100
AcDbEntity
  8
visible
100
AcDbEllipse
 10
47.70421687536976
 20
-27.45560709668346
 30
0.0
 11
12.0
 21
0.0
 31
0.0
 40
0.4006562966022768
 41
5.695182703632018
 42
6.283185307179586
  0
LINE
  5
DC
330
17
100
AcDbEntity
  8
visible
100
AcDbLine
 10
57.688820407423876
 20
-30.122536612813338
 30
0.0
 11
25.516209026360592
 21
-49.45777560475496
 31
0.0
  0
ELLIPSE
  5
DD
330
17
100
AcDbEntity
  8
visible
100
AcDbEllipse
 10
15.531605494306469
 20
-46.790846088625074
 30
0.0
 11
12.0
 21
0.0
 31
0.0
 40
0.4006562966022768
 41
4.124386376837122
 42
5.695182703632018
  0
LINE
  5
DE
330
17
100
AcDbEntity
  8
visible
100
AcDbLine
 10
-54.36061923007239
 20
-33.900686760663994
 30
0.0
 11
8.875203139603727
 21
-50.79124036281989
 31
0.0
  0
ELLIPSE
  5
DF
330
17
100
AcDbEntity
  8
visible
100
AcDbEllipse
 10
-47.704216875369646
 20
-29.900292486469176
 30
0.0
 11
12.0
 21
0.0
 31
0.0
 40
0.4006562966022768
 41
3.141592653589793
 42
4.124386376837122
  0
ELLIPSE
  5
E0
330
17
100
AcDbEntity
  8
visible
100
AcDbEllipse
 10
-42.43456501122997
 20
-23.532622378123307
 30
0.0
 11
3.2
 21
0.0
 31
0.0
 40
0.40065629660227675
 41
2.3864102641008635
 42
3.141592653589793
  0
ELLIPSE
  5
E1
330
17
100
AcDbEntity
  8
visible
100
AcDbEllipse
 10
-42.43456501122997
 20
-23.532622378123307
 30
0.0
 11
3.2
 21
0.0
 31
0.0
 40
0.40065629660227675
 41
3.141592653589793
 42
4.458963218836324
  0
ELLIPSE
  5
E2
330
17
100
AcDbEntity
  8
visible
100
AcDbEllipse
 10
7.488452649040646
 20
-36.8672699587727
 30
0.0
 11
3.2
 21
0.0
 31
0.0
 40
0.40065629660227675
 41
5.695182703632018
 42
6.283185307179586
  0
ELLIPSE
  5
E3
330
17
100
AcDbEntity
  8
visible
100
AcDbEllipse
 10
7.488452649040646
 20
-36.8672699587727
 30
0.0
 11
3.2
 21
0.0
 31
0.0
 40
0.40065629660227675
 41
0.0
 42
0.1800082282429153
  0
ELLIPSE
  5
E4
330
17
100
AcDbEntity
  8
visible
100
AcDbEllipse
 10
7.488452649040646
 20
-36.8672699587727
 30
0.0
 11
3.2
 21
0.0
 31
0.0
 40
0.40065629660227675
 41
3.292595644082227
 42
5.695182703632018
  0
ELLIPSE
  5
E5
330
17
100
AcDbEntity
  8
visible
100
AcDbEllipse
 10
-42.43456501122997
 20
-25.365079233815088
 30
0.0
 11
3.2
 21
0.0
 31
0.0
 40
0.40065629660227675
 41
1.9850078865152363
 42
2.345496301215999
  0
ELLIPSE
  5
E6
330
17
100
AcDbEntity
  8
visible
100
AcDbEllipse
 10
7.488452649040646
 20
-38.69972681446448
 30
0.0
 11
3.2
 21
0.0
 31
0.0
 40
0.40065629660227675
 41
0.7960963523737928
 42
2.3454963012160013
  0
ELLIPSE
  5
E7
330
17
100
AcDbEntity
  8
visible
100
AcDbEllipse
 10
7.488452649040646
 20
-38.69972681446448
 30
0.0
 11
1.65
 21
0.0
 31
0.0
 40
0.40065629660227675
 41
1.092700235943206
 42
2.048892417646588
  0
ELLIPSE
  5
E8
330
17
100
AcDbEntity
  8
visible
100
AcDbEllipse
 10
21.799717711651553
 20
-19.00793400587115
 30
0.0
 11
-0.2064458215551404
 21
-0.7729036956584069
 31
0.0
 40
0.5082320887132475
 41
5.196271398727107
 42
6.26170721523784
  0
ELLIPSE
  5
E9
330
17
100
AcDbEntity
  8
visible
100
AcDbEllipse
 10
24.129458535797518
 20
-17.607796009902955
 30
0.0
 11
-5.0
 21
-1.5146646170368258e-16
 31
0.0
 40
0.40065629660227675
 41
-6.283185307179586
 42
-5.3003915839322575
  0
ELLIPSE
  5
EA
330
17
100
AcDbEntity
  8
visible
100
AcDbEllipse
 10
25.127918889002927
 20
-19.896910511247768
 30
0.0
 11
-0.2064458215551404
 21
-0.7729036956584069
 31
0.0
 40
0.5082320887132475
 41
5.196271398727106
 42
6.283185307179586
  0
LINE
  5
EB
330
17
100
AcDbEntity
  8
visible
100
AcDbLine
 10
24.684158732022745
 20
-20.163603462860763
 30
0.0
 11
21.355957554671367
 21
-19.274626957484138
 31
0.0
  0
SPLINE
  5
EC
330
17
100
AcDbEntity
  8
visible
100
AcDbSpline
 70
0
 71
2
 72
6
 73
3
 74
0
 40
0.0
 40
0.0
 40
0.0
 40
0.43074430447260226
 40
0.43074430447260226
 40
0.43074430447260226
 10
19.618161202085094
 20
-10.777751710633396
 30
0.0
 10
19.451306461268324
 20
-10.798167186440075
 30
0.0
 10
19.445719285296686
 20
-10.808781852013254
 30
0.0
  0
SPLINE
  5
ED
330
17
100
AcDbEntity
  8
visible
100
AcDbSpline
 70
0
 71
1
 72
4
 73
2
 74
0
 40
0.0
 40
0.0
 40
1.0
 40
1.0
 10
19.44571928529669
 20
-10.808781852013254
 30
0.0
 10
19.445568898168617
 20
-10.810473546693132
 30
0.0
  0
SPLINE
  5
EE
330
17
100
AcDbEntity
  8
visible
100
AcDbSpline
 70
0
 71
2
 72
6
 73
3
 74
0
 40
0.0
 40
0.0
 40
0.0
 40
1.0
 40
1.0
 40
1.0
 10
19.618161202085048
 20
-10.77775171063336
 30
0.0
 10
19.766029337162607
 20
-10.761012374629725
 30
0.0
 10
19.959036281168068
 20
-10.811595844593441
 30
0.0
  0
SPLINE
  5
EF
330
17
100
AcDbEntity
  8
visible
100
AcDbSpline
 70
0
 71
3
 72
8
 73
4
 74
0
 40
0.0
 40
0.0
 40
0.0
 40
0.0
 40
0.7188297726973305
 40
0.7188297726973305
 40
0.7188297726973305
 40
0.7188297726973305
 10
23.242310512232773
 20
-11.688572174025479
 30
0.0
 10
23.506464144559466
 20
-11.76112307433509
 30
0.0
 10
23.888511291414392
 20
-11.743549589109556
 30
0.0
 10
24.166461736587152
 20
-11.659818289738602
 30
0.0
  0
LINE
  5
F0
330
17
100
AcDbEntity
  8
visible
100
AcDbLine
 10
23.242311011462952
 20
-11.688572307371958
 30
0.0
 11
19.959036281168064
 21
-10.81159584459343
 31
0.0
  0
ELLIPSE
  5
F1
330
17
100
AcDbEntity
  8
visible
100
AcDbEllipse
 10
5.684341886080802e-14
 20
-5.31412488150616
 30
0.0
 11
46.0
 21
0.0
 31
0.0
 40
0.4006562966022767
 41
3.141592653589793
 42
5.291833913497324
  0
LINE
  5
F2
330
17
100
AcDbEntity
  8
visible
100
AcDbLine
 10
38.27431353954086
 20
-15.963121885977976
 30
0.0
 11
38.27431353954086
 21
-28.45617552596439
 31
0.0
  0
ELLIPSE
  5
F3
330
17
100
AcDbEntity
  8
visible
100
AcDbEllipse
 10
5.684341886080802e-14
 20
-18.232945714133194
 30
0.0
 11
46.0
 21
0.0
 31
0.0
 40
0.4006562966022767
 41
5.695182703632018
 42
6.283185307179586
  0
ELLIPSE
  5
F4
330
17
100
AcDbEntity
  8
visible
100
AcDbEllipse
 10
5.684341886080802e-14
 20
-18.232945714133194
 30
0.0
 11
46.0
 21
0.0
 31
0.0
 40
0.4006562966022767
 41
3.141592653589793
 42
5.695182703632018
  0
SPLINE
  5
F5
330
17
100
AcDbEntity
  8
visible
100
AcDbSpline
 70
0
 71
3
 72
8
 73
4
 74
0
 40
0.0
 40
0.0
 40
0.0
 40
0.0
 40
0.8113624335464711
 40
0.8113624335464711
 40
0.8113624335464711
 40
0.8113624335464711
 10
23.752412575630153
 20
-20.262489743211816
 30
0.0
 10
23.560164103262586
 20
-20.30702065969389
 30
0.0
 10
23.329156989727434
 20
-20.243432107945694
 30
0.0
 10
23.14845997463263
 20
-20.196234967278777
 30
0.0
  0
SPLINE
  5
F6
330
17
100
AcDbEntity
  8
visible
100
AcDbSpline
 70
0
 71
2
 72
6
 73
3
 74
0
 40
0.0
 40
0.0
 40
0.0
 40
1.0
 40
1.0
 40
1.0
 10
23.14845997463263
 20
-20.196234967278777
 30
0.0
 10
23.084294107331086
 20
-20.17898385551198
 30
0.0
 10
23.028873687694805
 20
-20.164101982928962
 30
0.0
  0
LINE
  5
F7
330
17
100
AcDbEntity
  8
visible
100
AcDbLine
 10
23.028873687695107
 20
-20.164101982928774
 30
0.0
 11
21.58488324943972
 21
-19.778406075381774
 31
0.0
  0
ELLIPSE
  5
F8
330
17
100
AcDbEntity
  8
visible
100
AcDbEllipse
 10
24.129458535797518
 20
-18.249155909395085
 30
0.0
 11
-4.587298334620749
 21
-1.3896436950484012e-16
 31
0.0
 40
0.40065629660227675
 41
-5.371801782856695
 42
-5.3003915839322575
  0
ELLIPSE
  5
F9
330
17
100
AcDbEntity
  8
visible
100
AcDbEllipse
 10
-4.437601569801776
 20
-7.2480716553593325
 30
0.0
 11
2.25
 21
0.0
 31
0.0
 40
0.40065629660227675
 41
5.695182703632018
 42
6.283185307179586
  0
ELLIPSE
  5
FA
330
17
100
AcDbEntity
  8
visible
100
AcDbEllipse
 10
-4.437601569801776
 20
-7.2480716553593325
 30
0.0
 11
2.25
 21
0.0
 31
0.0
 40
0.40065629660227675
 41
0.0
 42
3.141592653589793
  0
ELLIPSE
  5
FB
330
17
100
AcDbEntity
  8
visible
100
AcDbEllipse
 10
-4.437601569801776
 20
-7.2480716553593325
 30
0.0
 11
2.25
 21
0.0
 31
0.0
 40
0.40065629660227675
 41
3.141592653589793
 42
5.695182703632018
  0
LINE
  5
FC
330
17
100
AcDbEntity
  8
visible
100
AcDbLine
 10
48.13722963144885
 20
-2.0861331007186052
 30
0.0
 11
30.07549803630856
 21
-12.940952837418463
 31
0.0
  0
LINE
  5
FD
330
17
100
AcDbEntity
  8
visible
100
AcDbLine
 10
29.320924800309403
 20
-13.133158730518804
 30
0.0
 11
24.463196582463777
 21
-11.835639132077201
 31
0.0
  0
SPLINE
  5
FE
330
17
100
AcDbEntity
  8
visible
100
AcDbSpline
 70
0
 71
3
 72
8
 73
4
 74
0
 40
0.0
 40
0.0
 40
0.0
 40
0.0
 40
0.4238569785304971
 40
0.4238569785304971
 40
0.4238569785304971
 40
0.4238569785304971
 10
24.463197081693952
 20
-11.83563926542368
 30
0.0
 10
24.3082718728924
 20
-11.794642697200196
 30
0.0
 10
24.200510286035502
 20
-11.727037640677704
 30
0.0
 10
24.16142287450018
 20
-11.650821342610207
 30
0.0
  0
ELLIPSE
  5
FF
330
17
100
AcDbEntity
  8
visible
100
AcDbEllipse
 10
37.99696344142824
 20
30.576187149780097
 30
0.0
 11
4.645030984990659
 21
17.390333152314156
 31
0.0
 40
0.5082320887132475
 41
-5.799302888837169
 42
-4.228506562042273
  0
LINE
  5
100
330
17
100
AcDbEntity
  8
visible
100
AcDbLine
 10
40.21576422632916
 20
48.40176360907101
 30
0.0
 11
37.99696344142824
 21
47.06829885100607
 31
0.0
  0
ELLIPSE
  5
101
330
17
100
AcDbEntity
  8
visible
100
AcDbEllipse
 10
40.21576422632916
 20
31.90965190784503
 30
0.0
 11
4.645030984990659
 21
17.390333152314156
 31
0.0
 40
0.5082320887132475
 41
-6.283185307179586
 42
-5.799302888837169
  0
ELLIPSE
  5
102
330
17
100
AcDbEntity
  8
visible
100
AcDbEllipse
 10
40.21576422632916
 20
31.90965190784503
 30
0.0
 11
4.645030984990659
 21
17.390333152314156
 31
0.0
 40
0.5082320887132475
 41
-0.5301920322507812
 42
-0.0
  0
ELLIPSE
  5
103
330
17
100
AcDbEntity
  8
visible
100
AcDbEllipse
 10
40.21576422632916
 20
2.132228002853651
 30
0.0
 11
4.645030984990659
 21
17.390333152314156
 31
0.0
 40
0.5082320887132475
 41
-1.6664982488708344
 42
-1.3297104222305371
  0
SPLINE
  5
104
330
17
100
AcDbEntity
  8
visible
100
AcDbSpline
 70
0
 71
3
 72
8
 73
4
 74
0
 40
0.0
 40
0.0
 40
0.0
 40
0.0
 40
1.0
 40
1.0
 40
1.0
 40
1.0
 10
48.56978584048007
 20
-1.879472115013134
 30
0.0
 10
48.43332202254283
 20
-1.9198683323934453
 30
0.0
 10
48.28732350894231
 20
-1.995936030479784
 30
0.0
 10
48.13722963144885
 20
-2.0861331007186052
 30
0.0
  0
SPLINE
  5
105
330
17
100
AcDbEntity
  8
visible
100
AcDbSpline
 70
0
 71
2
 72
6
 73
3
 74
0
 40
0.0
 40
0.0
 40
0.0
 40
1.0
 40
1.0
 40
1.0
 10
29.642941827277344
 20
-13.254210958061293
 30
0.0
 10
29.848997387125785
 20
-13.0725184387606
 30
0.0
 10
30.075498036308563
 20
-12.940952837418463
 30
0.0
  0
ELLIPSE
  5
106
330
17
100
AcDbEntity
  8
visible
100
AcDbEllipse
 10
37.99696344142824
 20
0.7987632447887165
 30
0.0
 11
4.645030984990659
 21
17.390333152314156
 31
0.0
 40
0.5082320887132475
 41
-4.228506562042273
 42
-3.648922221623917
  0
LINE
  5
107
330
17
100
AcDbEntity
  8
visible
100
AcDbLine
 10
28.01235990937412
 20
20.910682027104315
 30
0.0
 11
28.01235990937412
 21
-5.201828166503507
 31
0.0
  0
ELLIPSE
  5
108
330
17
100
AcDbEntity
  8
visible
100
AcDbEllipse
 10
39.1063638338787
 20
27.578005817429002
 30
0.0
 11
-5.161145538878506
 21
-19.322592391460173
 31
0.0
 40
0.5082320887132478
 41
5.196271398727107
 42
6.283185307179587
  0
ELLIPSE
  5
109
330
17
100
AcDbEntity
  8
visible
100
AcDbEllipse
 10
44.653365796131
 20
2.0504722354458593
 30
0.0
 11
-0.5806288731238318
 21
-2.1737916440392695
 31
0.0
 40
0.5082320887132478
 41
0.48388241834241674
 42
3.141592653589793
  0
ELLIPSE
  5
10A
330
17
100
AcDbEntity
  8
visible
100
AcDbEllipse
 10
44.653365796131
 20
2.0504722354458593
 30
0.0
 11
-0.5806288731238318
 21
-2.1737916440392695
 31
0.0
 40
0.5082320887132478
 41
3.141592653589793
 42
6.283185307179587
  0
ELLIPSE
  5
10B
330
17
100
AcDbEntity
  8
visible
100
AcDbEllipse
 10
44.653365796131
 20
2.0504722354458593
 30
0.0
 11
-0.5806288731238318
 21
-2.1737916440392695
 31
0.0
 40
0.5082320887132478
 41
8.881784197001252e-16
 42
0.4838824183424171
  0
ELLIPSE
  5
10C
330
17
100
AcDbEntity
  8
visible
100
AcDbEllipse
 10
33.55936187162641
 20
-4.616851554878835
 30
0.0
 11
-0.5806288731238318
 21
-2.1737916440392695
 31
0.0
 40
0.5082320887132478
 41
0.48388241834241674
 42
3.141592653589793
  0
ELLIPSE
  5
10D
330
17
100
AcDbEntity
  8
visible
100
AcDbEllipse
 10
33.55936187162641
 20
-4.616851554878835
 30
0.0
 11
-0.5806288731238318
 21
-2.1737916440392695
 31
0.0
 40
0.5082320887132478
 41
3.141592653589793
 42
6.283185307179587
  0
ELLIPSE
  5
10E
330
17
100
AcDbEntity
  8
visible
100
AcDbEllipse
 10
33.55936187162641
 20
-4.616851554878835
 30
0.0
 11
-0.5806288731238318
 21
-2.1737916440392695
 31
0.0
 40
0.5082320887132478
 41
8.881784197001252e-16
 42
0.4838824183424171
  0
SPLINE
  5
10F
330
17
100
AcDbEntity
  8
visible
100
AcDbSpline
 70
0
 71
2
 72
6
 73
3
 74
0
 40
0.0
 40
0.0
 40
0.0
 40
1.0
 40
1.0
 40
1.0
 10
29.642941827377022
 20
-13.254210958891868
 30
0.0
 10
29.473101455218586
 20
-13.174271526913635
 30
0.0
 10
29.320924800309413
 20
-13.1331587305188
 30
0.0
  0
LINE
  5
110
330
17
100
AcDbEntity
  8
visible
100
AcDbLine
 10
28.01235990937412
 20
24.57559573848787
 30
0.0
 11
28.01235990937412
 21
20.910682027104315
 31
0.0
  0
ELLIPSE
  5
111
330
17
100
AcDbEntity
  8
visible
100
AcDbEllipse
 10
39.1063638338787
 20
27.578005817429002
 30
0.0
 11
-5.161145538878506
 21
-19.322592391460173
 31
0.0
 40
0.5082320887132478
 41
3.141592653589793
 42
5.196271398727107
  0
SPLINE
  5
112
330
17
100
AcDbEntity
  8
visible
100
AcDbSpline
 70
0
 71
1
 72
4
 73
2
 74
0
 40
0.0
 40
0.0
 40
1.0
 40
1.0
 10
66.5319732579119
 20
33.15475092678916
 30
0.0
 10
66.52999802761222
 20
33.353953321769424
 30
0.0
  0
SPLINE
  5
113
330
17
100
AcDbEntity
  8
visible
100
AcDbSpline
 70
0
 71
3
 72
8
 73
4
 74
0
 40
0.0
 40
0.0
 40
0.0
 40
0.0
 40
1.0
 40
1.0
 40
1.0
 40
1.0
 10
66.53197325068668
 20
26.268348048264066
 30
0.0
 10
66.5316312147774
 20
25.64659003289402
 30
0.0
 10
66.49540938455756
 20
25.01885527470575
 30
0.0
 10
66.39761348815998
 20
24.40287493332059
 30
0.0
  0
ELLIPSE
  5
114
330
17
100
AcDbEntity
  8
visible
100
AcDbEllipse
 10
55.747369720635575
 20
23.133123290545868
 30
0.0
 11
-5.161145538878506
 21
-19.322592391460173
 31
0.0
 40
0.5082320887132478
 41
0.48388241834241674
 42
1.770884635928983
  0
ELLIPSE
  5
115
330
17
100
AcDbEntity
  8
visible
100
AcDbEllipse
 10
55.747369720635575
 20
23.133123290545868
 30
0.0
 11
-5.161145538878506
 21
-19.322592391460173
 31
0.0
 40
0.5082320887132478
 41
5.4800655079354454
 42
6.283185307179587
  0
ELLIPSE
  5
116
330
17
100
AcDbEntity
  8
visible
100
AcDbEllipse
 10
55.747369720635575
 20
23.133123290545868
 30
0.0
 11
-5.161145538878506
 21
-19.322592391460173
 31
0.0
 40
0.5082320887132478
 41
8.881784197001252e-16
 42
0.4838824183424171
  0
SPLINE
  5
117
330
17
100
AcDbEntity
  8
visible
100
AcDbSpline
 70
0
 71
3
 72
11
 73
7
 74
0
 40
0.0
 40
0.0
 40
0.0
 40
0.0
 40
0.6557507203968209
 40
0.6557507203968209
 40
0.6557507203968209
 40
1.0
 40
1.0
 40
1.0
 40
1.0
 10
43.98772556066073
 20
16.643594801296516
 30
0.0
 10
44.191462226031376
 20
15.463557738720187
 30
0.0
 10
44.46175526401167
 20
14.318211214356673
 30
0.0
 10
44.723841212699426
 20
13.23485918265892
 30
0.0
 10
44.859749702463
 20
12.669025572146158
 30
0.0
 10
44.99431574533305
 20
12.118906051567022
 30
0.0
 10
45.09712595311118
 20
11.601613255897178
 30
0.0
  0
SPLINE
  5
118
330
17
100
AcDbEntity
  8
visible
100
AcDbSpline
 70
0
 71
3
 72
8
 73
4
 74
0
 40
0.0
 40
0.0
 40
0.0
 40
0.0
 40
0.9999998493091814
 40
0.9999998493091814
 40
0.9999998493091814
 40
0.9999998493091814
 10
43.98772556066072
 20
16.643594801296516
 30
0.0
 10
44.20845542695103
 20
17.80623470411643
 30
0.0
 10
44.509155830497264
 20
19.01420321065775
 30
0.0
 10
44.790278971880966
 20
20.288720332704596
 30
0.0
  0
SPLINE
  5
119
330
17
100
AcDbEntity
  8
visible
100
AcDbSpline
 70
0
 71
3
 72
8
 73
4
 74
0
 40
0.0
 40
0.0
 40
0.0
 40
0.0
 40
1.0
 40
1.0
 40
1.0
 40
1.0
 10
45.16036048327675
 20
22.246791666877513
 30
0.0
 10
45.04616105428526
 20
21.57885020060257
 30
0.0
 10
44.92744836773818
 20
20.918153165286444
 30
0.0
 10
44.790278972024616
 20
20.2887203326989
 30
0.0
  0
ELLIPSE
  5
11A
330
17
100
AcDbEntity
  8
visible
100
AcDbEllipse
 10
55.747369720635575
 20
23.133123290545868
 30
0.0
 11
-5.161145538878506
 21
-19.322592391460173
 31
0.0
 40
0.5082320887132478
 41
2.358166038704654
 42
3.141592653589793
  0
ELLIPSE
  5
11B
330
17
100
AcDbEntity
  8
visible
100
AcDbEllipse
 10
55.747369720635575
 20
23.133123290545868
 30
0.0
 11
-5.161145538878506
 21
-19.322592391460173
 31
0.0
 40
0.5082320887132478
 41
3.141592653589793
 42
4.892784105159766
  0
SPLINE
  5
11C
330
17
100
AcDbEntity
  8
visible
100
AcDbSpline
 70
0
 71
3
 72
8
 73
4
 74
0
 40
0.0
 40
0.0
 40
0.0
 40
0.0
 40
1.0
 40
1.0
 40
1.0
 40
1.0
 10
66.52999802760088
 20
33.35395332167059
 30
0.0
 10
66.51861808628806
 20
33.89411031354369
 30
0.0
 10
66.44772850640537
 20
34.44085933583457
 30
0.0
 10
66.3343789579944
 20
34.97204740628034
 30
0.0
  0
ELLIPSE
  5
11D
330
17
100
AcDbEntity
  8
visible
100
AcDbEllipse
 10
43.15567526632289
 20
2.4505116628653383
 30
0.0
 11
-0.5806288731238318
 21
-2.1737916440392695
 31
0.0
 40
0.5082320887132478
 41
0.7447886422253446
 42
2.3968040113644458
  0
ELLIPSE
  5
11E
330
17
100
AcDbEntity
  8
visible
100
AcDbEllipse
 10
32.0616713418183
 20
-4.216812127459349
 30
0.0
 11
-0.5806288731238318
 21
-2.1737916440392695
 31
0.0
 40
0.5082320887132478
 41
0.7447886422253466
 42
2.396804011364442
  0
ELLIPSE
  5
11F
330
17
100
AcDbEntity
  8
visible
100
AcDbEllipse
 10
43.15567526632289
 20
2.4505116628653383
 30
0.0
 11
-0.29676586848551406
 21
-1.1110490625089597
 31
0.0
 40
0.5082320887132478
 41
0.91579926005223
 42
2.2257933935375642
  0
ELLIPSE
  5
120
330
17
100
AcDbEntity
  8
visible
100
AcDbEllipse
 10
32.0616713418183
 20
-4.216812127459349
 30
0.0
 11
-0.29676586848551406
 21
-1.1110490625089597
 31
0.0
 40
0.5082320887132478
 41
0.9157992600522358
 42
2.2257933935375505
  0
ELLIPSE
  5
121
330
17
100
AcDbEntity
  8
visible
100
AcDbEllipse
 10
50.20036775838328
 20
27.129288818150627
 30
0.0
 11
-0.5806288731238318
 21
-2.1737916440392695
 31
0.0
 40
0.5082320887132478
 41
1.860816621107356
 42
3.141592653589793
  0
ELLIPSE
  5
122
330
17
100
AcDbEntity
  8
visible
100
AcDbEllipse
 10
50.20036775838328
 20
27.129288818150627
 30
0.0
 11
-0.5806288731238318
 21
-2.1737916440392695
 31
0.0
 40
0.5082320887132478
 41
3.141592653589793
 42
6.283185307179587
  0
ELLIPSE
  5
123
330
17
100
AcDbEntity
  8
visible
100
AcDbEllipse
 10
50.20036775838328
 20
27.129288818150627
 30
0.0
 11
-0.5806288731238318
 21
-2.1737916440392695
 31
0.0
 40
0.5082320887132478
 41
8.881784197001252e-16
 42
0.4838824183424171
  0
ELLIPSE
  5
124
330
17
100
AcDbEntity
  8
visible
100
AcDbEllipse
 10
50.20036775838328
 20
27.129288818150627
 30
0.0
 11
-0.5806288731238318
 21
-2.1737916440392695
 31
0.0
 40
0.5082320887132478
 41
0.48388241834241674
 42
0.49642476797088125
  0
ELLIPSE
  5
125
330
17
100
AcDbEntity
  8
visible
100
AcDbEllipse
 10
55.747369720635575
 20
19.46820957916232
 30
0.0
 11
3.598972629423335
 21
13.474039943752443
 31
0.0
 40
0.5082320887132474
 41
-3.4892666281078824
 42
-3.288397762898082
  0
ELLIPSE
  5
126
330
17
100
AcDbEntity
  8
visible
100
AcDbEllipse
 10
55.747369720635575
 20
19.46820957916232
 30
0.0
 11
3.598972629423335
 21
13.474039943752443
 31
0.0
 40
0.5082320887132474
 41
-5.002668814579611
 42
-3.4892666281078824
  0
ELLIPSE
  5
127
330
17
100
AcDbEntity
  8
visible
100
AcDbEllipse
 10
61.29437168288787
 20
33.79661260847533
 30
0.0
 11
-0.5806288731238318
 21
-2.1737916440392695
 31
0.0
 40
0.5082320887132478
 41
0.756109424382512
 42
3.141592653589793
  0
ELLIPSE
  5
128
330
17
100
AcDbEntity
  8
visible
100
AcDbEllipse
 10
61.29437168288787
 20
33.79661260847533
 30
0.0
 11
-0.5806288731238318
 21
-2.1737916440392695
 31
0.0
 40
0.5082320887132478
 41
3.141592653589793
 42
5.314594853919941
  0
ELLIPSE
  5
129
330
17
100
AcDbEntity
  8
visible
100
AcDbEllipse
 10
55.747369720635575
 20
19.46820957916232
 30
0.0
 11
3.598972629423335
 21
13.474039943752443
 31
0.0
 40
0.5082320887132474
 41
-5.9355113326614966
 42
-5.206460410701322
  0
ELLIPSE
  5
12A
330
17
100
AcDbEntity
  8
visible
100
AcDbEllipse
 10
55.747369720635575
 20
19.46820957916232
 30
0.0
 11
3.598972629423335
 21
13.474039943752443
 31
0.0
 40
0.5082320887132474
 41
-6.136380197871299
 42
-5.9355113326614966
  0
LINE
  5
12B
330
17
100
AcDbEntity
  8
visible
100
AcDbLine
 10
50.233405376363976
 20
25.05895036905158
 30
0.0
 11
50.51601822964335
 21
24.983463289606835
 31
0.0
  0
SPLINE
  5
12C
330
17
100
AcDbEntity
  8
visible
100
AcDbSpline
 70
0
 71
1
 72
4
 73
2
 74
0
 40
0.0
 40
0.0
 40
1.0
 40
1.0
 10
50.233405376363976
 20
25.058950369051573
 30
0.0
 10
50.2160211465187
 20
25.07734444508253
 30
0.0
  0
LINE
  5
12D
330
17
100
AcDbEntity
  8
visible
100
AcDbLine
 10
49.172427717135655
 20
25.34234195553436
 30
0.0
 11
50.20036775838329
 21
25.067774855497383
 31
0.0
  0
ELLIPSE
  5
12E
330
17
100
AcDbEntity
  8
visible
100
AcDbEllipse
 10
48.70267722857517
 20
27.529328245570113
 30
0.0
 11
-0.5806288731238318
 21
-2.1737916440392695
 31
0.0
 40
0.5082320887132478
 41
0.7447886422253446
 42
2.3968040113644427
  0
SPLINE
  5
12F
330
17
100
AcDbEntity
  8
visible
100
AcDbSpline
 70
0
 71
2
 72
6
 73
3
 74
0
 40
0.0
 40
0.0
 40
0.0
 40
1.0
 40
1.0
 40
1.0
 10
51.59876464134412
 20
27.49530405400344
 30
0.0
 10
51.50969643319842
 20
27.51898271985167
 30
0.0
 10
51.425063647493076
 20
27.468161127847935
 30
0.0
  0
LINE
  5
130
330
17
100
AcDbEntity
  8
visible
100
AcDbLine
 10
51.598764641344104
 20
27.495304054003437
 30
0.0
 11
51.76517470021168
 21
27.450855228734607
 31
0.0
  0
ELLIPSE
  5
131
330
17
100
AcDbEntity
  8
visible
100
AcDbEllipse
 10
55.91377977950315
 20
19.42376075389349
 30
0.0
 11
-3.6128018772149537
 21
-13.52581467402212
 31
0.0
 40
0.5082320887132478
 41
4.42581529690067
 42
6.283185307179587
  0
SPLINE
  5
132
330
17
100
AcDbEntity
  8
visible
100
AcDbSpline
 70
0
 71
2
 72
6
 73
3
 74
0
 40
0.0
 40
0.0
 40
0.0
 40
1.0
 40
1.0
 40
1.0
 10
50.34109341783798
 20
25.008326681273218
 30
0.0
 10
50.27147284979635
 20
25.026796949373917
 30
0.0
 10
50.233405376363976
 20
25.058950369051573
 30
0.0
  0
ELLIPSE
  5
133
330
17
100
AcDbEntity
  8
visible
100
AcDbEllipse
 10
59.79668115307976
 20
34.1966520358948
 30
0.0
 11
-0.5806288731238318
 21
-2.1737916440392695
 31
0.0
 40
0.5082320887132478
 41
0.9633603350668688
 42
2.3968040113644493
  0
ELLIPSE
  5
134
330
17
100
AcDbEntity
  8
visible
100
AcDbEllipse
 10
55.91377977950315
 20
19.42376075389349
 30
0.0
 11
-3.6128018772149537
 21
-13.52581467402212
 31
0.0
 40
0.5082320887132478
 41
3.141592653589793
 42
4.214611399357156
  0
ELLIPSE
  5
135
330
17
100
AcDbEntity
  8
visible
100
AcDbEllipse
 10
48.70267722857517
 20
27.529328245570113
 30
0.0
 11
-0.29676586848551406
 21
-1.1110490625089597
 31
0.0
 40
0.5082320887132478
 41
0.91579926005223
 42
2.2257933935375505
  0
ELLIPSE
  5
136
330
17
100
AcDbEntity
  8
visible
100
AcDbEllipse
 10
59.79668115307976
 20
34.1966520358948
 30
0.0
 11
-0.29676586848551406
 21
-1.1110490625089597
 31
0.0
 40
0.5082320887132478
 41
0.9157992600522358
 42
2.2257933935375642
  0
ELLIPSE
  5
137
330
17
100
AcDbEntity
  8
visible
100
AcDbEllipse
 10
56.08018983837072
 20
19.37931192862466
 30
0.0
 11
-3.6128018772149537
 21
-13.52581467402212
 31
0.0
 40
0.5082320887132478
 41
4.214611399357156
 42
4.425815296900669
  0
LINE
  5
138
330
17
100
AcDbEntity
  8
visible
100
AcDbLine
 10
50.341093417837975
 20
25.008326681273214
 30
0.0
 11
50.50750347670555
 21
24.963877856004384
 31
0.0
  0
LINE
  5
139
330
17
100
AcDbEntity
  8
visible
100
AcDbLine
 10
-42.02776477632838
 20
5.804554528526191
 30
0.0
 11
-40.3035881961466
 21
5.344019726323516
 31
0.0
  0
LINE
  5
13A
330
17
100
AcDbEntity
  8
visible
100
AcDbLine
 10
-38.93995377501103
 20
42.84406292397753
 30
0.0
 11
-38.93995377501103
 21
13.066639018986159
 31
0.0
  0
ELLIPSE
  5
13B
330
17
100
AcDbEntity
  8
visible
100
AcDbEllipse
 10
-29.399110399937083
 20
18.80053747866539
 30
0.0
 11
4.438585163435517
 21
16.617429456655746
 31
0.0
 40
0.5082320887132475
 41
-4.228506562042273
 42
-4.000799417545192
  0
SPLINE
  5
13C
330
17
100
AcDbEntity
  8
visible
100
AcDbSpline
 70
0
 71
3
 72
8
 73
4
 74
0
 40
0.0
 40
0.0
 40
0.0
 40
0.0
 40
0.41559522898188583
 40
0.41559522898188583
 40
0.41559522898188583
 40
0.41559522898188583
 10
-42.02776427709821
 20
5.804554395179714
 30
0.0
 10
-42.18002254827323
 20
5.844853815198036
 30
0.0
 10
-42.286378503899115
 20
5.911071619798992
 30
0.0
 10
-42.32631551566701
 20
5.985947018864594
 30
0.0
  0
ELLIPSE
  5
13D
330
17
100
AcDbEntity
  8
visible
100
AcDbEllipse
 10
-27.18030961503617
 20
49.911426141721705
 30
0.0
 11
4.438585163435518
 21
16.617429456655746
 31
0.0
 40
0.5082320887132475
 41
-7.086306480554036
 42
-5.799302888837169
  0
LINE
  5
13E
330
17
100
AcDbEntity
  8
visible
100
AcDbLine
 10
-29.399110399937083
 20
64.33709034260605
 30
0.0
 11
-27.180309615036165
 21
65.67055510067098
 31
0.0
  0
ELLIPSE
  5
13F
330
17
100
AcDbEntity
  8
visible
100
AcDbEllipse
 10
-29.399110399937083
 20
48.57796138365677
 30
0.0
 11
4.438585163435518
 21
16.617429456655746
 31
0.0
 40
0.5082320887132475
 41
-5.799302888837169
 42
-4.228506562042273
  0
LINE
  5
140
330
17
100
AcDbEntity
  8
visible
100
AcDbLine
 10
-31.91634659198831
 20
1.5285887241454095
 30
0.0
 11
-36.61021295086506
 21
-1.2923519439949498
 31
0.0
  0
LINE
  5
141
330
17
100
AcDbEntity
  8
visible
100
AcDbLine
 10
-36.61021295086506
 20
-1.292351943994945
 30
0.0
 11
-36.61021295086506
 21
2.7823401322077927
 31
0.0
  0
ELLIPSE
  5
142
330
17
100
AcDbEntity
  8
visible
100
AcDbEllipse
 10
-22.742708045234334
 20
56.243269369235136
 30
0.0
 11
-0.23225154924953276
 21
-0.8695166576157077
 31
0.0
 40
0.5082320887132478
 41
3.1899329564574836
 42
4.061017187406936
  0
ELLIPSE
  5
143
330
17
100
AcDbEntity
  8
visible
100
AcDbEllipse
 10
-33.836711969738914
 20
13.384922678997839
 30
0.0
 11
-0.23225154924953276
 21
-0.8695166576157077
 31
0.0
 40
0.5082320887132478
 41
0.6796742525695648
 42
1.630976933015853
  0
ELLIPSE
  5
144
330
17
100
AcDbEntity
  8
visible
100
AcDbEllipse
 10
-33.836711969738914
 20
13.384922678997839
 30
0.0
 11
-0.23225154924953276
 21
-0.8695166576157077
 31
0.0
 40
0.5082320887132478
 41
4.2841525083382885
 42
6.283185307179587
  0
ELLIPSE
  5
145
330
17
100
AcDbEntity
  8
visible
100
AcDbEllipse
 10
-33.836711969738914
 20
13.384922678997839
 30
0.0
 11
-0.23225154924953276
 21
-0.8695166576157077
 31
0.0
 40
0.5082320887132478
 41
8.881784197001252e-16
 42
0.28809058411526856
  0
ELLIPSE
  5
146
330
17
100
AcDbEntity
  8
visible
100
AcDbEllipse
 10
-33.836711969738914
 20
49.575945578910435
 30
0.0
 11
-0.23225154924953276
 21
-0.8695166576157077
 31
0.0
 40
0.5082320887132478
 41
3.185812672441424
 42
4.247516649777629
  0
ELLIPSE
  5
147
330
17
100
AcDbEntity
  8
visible
100
AcDbEllipse
 10
-37.27585318633534
 20
-1.1145566429196236
 30
0.0
 11
0.4120928423983837
 21
-0.6856963535297683
 31
0.0
 40
0.7623481330698713
 41
-6.283185307179586
 42
-5.379975506657335
  0
LINE
  5
148
330
17
100
AcDbEntity
  8
visible
100
AcDbLine
 10
-34.247887986237956
 20
12.670143933951323
 30
0.0
 11
-33.85486100476337
 21
12.565164777376404
 31
0.0
  0
LINE
  5
149
330
17
100
AcDbEntity
  8
visible
100
AcDbLine
 10
-43.93225554103809
 20
44.17752768204246
 30
0.0
 11
-43.93225554103809
 21
44.45239621039622
 31
0.0
  0
LINE
  5
14A
330
17
100
AcDbEntity
  8
visible
100
AcDbLine
 10
-48.289834654889525
 20
7.59700090935463
 30
0.0
 11
-43.4321064370439
 21
6.299481310913027
 31
0.0
  0
SPLINE
  5
14B
330
17
100
AcDbEntity
  8
visible
100
AcDbSpline
 70
0
 71
3
 72
8
 73
4
 74
0
 40
0.0
 40
0.0
 40
0.0
 40
0.0
 40
0.7265478499985469
 40
0.7265478499985469
 40
0.7265478499985469
 40
0.7265478499985469
 10
-43.43210693627408
 20
6.299481444259498
 30
0.0
 10
-43.16623135830218
 20
6.22642738478762
 30
0.0
 10
-42.78181059997834
 20
6.243554770130494
 30
0.0
 10
-42.504370498845034
 20
6.327935717621764
 30
0.0
  0
ELLIPSE
  5
14C
330
17
100
AcDbEntity
  8
visible
100
AcDbEllipse
 10
-40.21576422632905
 20
51.467135026130805
 30
0.0
 11
4.645030984990659
 21
17.390333152314156
 31
0.0
 40
0.5082320887132475
 41
-5.799302888837169
 42
-4.228506562042273
  0
LINE
  5
14D
330
17
100
AcDbEntity
  8
visible
100
AcDbLine
 10
-37.99696344142813
 20
69.29271148542172
 30
0.0
 11
-40.21576422632905
 21
67.95924672735677
 31
0.0
  0
ELLIPSE
  5
14E
330
17
100
AcDbEntity
  8
visible
100
AcDbEllipse
 10
-37.99696344142813
 20
52.80059978419574
 30
0.0
 11
4.645030984990659
 21
17.390333152314156
 31
0.0
 40
0.5082320887132475
 41
-6.283185307179586
 42
-5.799302888837169
  0
ELLIPSE
  5
14F
330
17
100
AcDbEntity
  8
visible
100
AcDbEllipse
 10
-40.21576422632905
 20
21.689711121139425
 30
0.0
 11
4.645030984990659
 21
17.390333152314156
 31
0.0
 40
0.5082320887132475
 41
-4.228506562042273
 42
-3.648922221623917
  0
LINE
  5
150
330
17
100
AcDbEntity
  8
visible
100
AcDbLine
 10
-50.20036775838317
 20
41.80162990345502
 30
0.0
 11
-50.20036775838317
 21
15.689119709847201
 31
0.0
  0
SPLINE
  5
151
330
17
100
AcDbEntity
  8
visible
100
AcDbSpline
 70
0
 71
2
 72
6
 73
3
 74
0
 40
0.0
 40
0.0
 40
0.0
 40
1.0
 40
1.0
 40
1.0
 10
-48.56978584038032
 20
7.636736917458845
 30
0.0
 10
-48.441559094908925
 20
7.63706137111144
 30
0.0
 10
-48.289834654889525
 20
7.597000909354634
 30
0.0
  0
LINE
  5
152
330
17
100
AcDbEntity
  8
visible
100
AcDbLine
 10
-50.20036775838317
 20
45.46654361483858
 30
0.0
 11
-50.20036775838317
 21
41.80162990345502
 31
0.0
  0
ELLIPSE
  5
153
330
17
100
AcDbEntity
  8
visible
100
AcDbEllipse
 10
-55.74736972063546
 20
52.913836220662844
 30
0.0
 11
-5.161145538878512
 21
-19.32259239146017
 31
0.0
 40
0.5082320887132474
 41
5.4800655079354454
 42
6.283185307179586
  0
SPLINE
  5
154
330
17
100
AcDbEntity
  8
visible
100
AcDbSpline
 70
0
 71
3
 72
8
 73
4
 74
0
 40
0.0
 40
0.0
 40
0.0
 40
0.0
 40
0.6686475223119684
 40
0.6686475223119684
 40
0.6686475223119684
 40
0.6686475223119684
 10
-66.17573340966979
 20
46.068717129262836
 30
0.0
 10
-66.38330331496036
 20
44.9765659778026
 30
0.0
 10
-66.53051558375537
 20
43.92222703030056
 30
0.0
 10
-66.53197325068662
 20
42.8922086913709
 30
0.0
  0
SPLINE
  5
155
330
17
100
AcDbEntity
  8
visible
100
AcDbSpline
 70
0
 71
3
 72
8
 73
4
 74
0
 40
0.0
 40
0.0
 40
0.0
 40
0.0
 40
1.0
 40
1.0
 40
1.0
 40
1.0
 10
-66.5319732506866
 20
42.8922086913709
 30
0.0
 10
-66.5316312147772
 20
42.3838264354782
 30
0.0
 10
-66.49540938455753
 20
41.879819672784755
 30
0.0
 10
-66.39761348815986
 20
41.382326186014154
 30
0.0
  0
SPLINE
  5
156
330
17
100
AcDbEntity
  8
visible
100
AcDbSpline
 70
0
 71
3
 72
8
 73
4
 74
0
 40
0.0
 40
0.0
 40
0.0
 40
0.0
 40
0.9392352303135347
 40
0.9392352303135347
 40
0.9392352303135347
 40
0.9392352303135347
 10
-66.17573340966976
 20
46.06871712926283
 30
0.0
 10
-66.38330763764887
 20
47.27228142151515
 30
0.0
 10
-66.53039652151259
 20
48.51576392569787
 30
0.0
 10
-66.53197325791176
 20
49.77861159663556
 30
0.0
  0
SPLINE
  5
157
330
17
100
AcDbEntity
  8
visible
100
AcDbSpline
 70
0
 71
1
 72
4
 73
2
 74
0
 40
0.0
 40
0.0
 40
1.0
 40
1.0
 10
-66.53197325791177
 20
49.77861159663557
 30
0.0
 10
-66.52999802761212
 20
50.02283361227559
 30
0.0
  0
SPLINE
  5
158
330
17
100
AcDbEntity
  8
visible
100
AcDbSpline
 70
0
 71
3
 72
8
 73
4
 74
0
 40
0.0
 40
0.0
 40
0.0
 40
0.0
 40
1.0
 40
1.0
 40
1.0
 40
1.0
 10
-66.33437895799429
 20
52.027504596994476
 30
0.0
 10
-66.44772850640203
 20
51.35933612404806
 30
0.0
 10
-66.51861808629994
 20
50.685865336197224
 30
0.0
 10
-66.52999802760077
 20
50.02283361230525
 30
0.0
  0
ELLIPSE
  5
159
330
17
100
AcDbEntity
  8
visible
100
AcDbEllipse
 10
-55.74736972063546
 20
52.913836220662844
 30
0.0
 11
-5.161145538878512
 21
-19.32259239146017
 31
0.0
 40
0.5082320887132474
 41
3.1415926535897936
 42
4.892784105159766
  0
ELLIPSE
  5
15A
330
17
100
AcDbEntity
  8
visible
100
AcDbEllipse
 10
-39.134098843689856
 20
8.459067213568858
 30
0.0
 11
0.4120928423983837
 21
-0.6856963535297683
 31
0.0
 40
0.7623481330698713
 41
-3.809179179862438
 42
-3.141592653589793
  0
LINE
  5
15B
330
17
100
AcDbEntity
  8
visible
100
AcDbLine
 10
-39.134098843689856
 20
9.192049955845562
 30
0.0
 11
-32.73235000390701
 21
13.03940142873354
 31
0.0
  0
ELLIPSE
  5
15C
330
17
100
AcDbEntity
  8
visible
100
AcDbEllipse
 10
-37.303588196146606
 20
8.703112877888415
 30
0.0
 11
-2.2
 21
-0.0
 31
0.0
 40
0.40065629660227675
 41
-6.871187910727154
 42
-5.3003915839322575
  0
LINE
  5
15D
330
17
100
AcDbEntity
  8
visible
100
AcDbLine
 10
8.902938149414984
 20
-4.698207940664226
 30
0.0
 11
-38.523928627842096
 21
7.9697072609526955
 31
0.0
  0
ELLIPSE
  5
15E
330
17
100
AcDbEntity
  8
visible
100
AcDbEllipse
 10
10.123278581110487
 20
-3.964802323728506
 30
0.0
 11
-2.2
 21
-0.0
 31
0.0
 40
0.40065629660227675
 41
-5.3003915839322575
 42
-3.729595257137361
  0
LINE
  5
15F
330
17
100
AcDbEntity
  8
visible
100
AcDbLine
 10
17.505106475432612
 20
-1.1174840876475027
 30
0.0
 11
11.95378922865374
 21
-4.4537394016856595
 31
0.0
  0
LINE
  5
160
330
17
100
AcDbEntity
  8
visible
100
AcDbLine
 10
17.505106475432612
 20
2.490236915957773
 30
0.0
 11
15.235463509059546
 21
3.0964680796353994
 31
0.0
  0
ELLIPSE
  5
161
330
17
100
AcDbEntity
  8
visible
100
AcDbEllipse
 10
14.838230249024935
 20
10.532398173637645
 30
0.0
 11
4.1209284239838375
 21
-6.856963535297682
 31
0.0
 40
0.7623481330698711
 41
-0.6054191747936609
 42
-0.2553622276578019
  0
ELLIPSE
  5
162
330
17
100
AcDbEntity
  8
visible
100
AcDbEllipse
 10
-31.368296096536646
 20
11.928988721077516
 30
0.0
 11
0.4120928423983837
 21
-0.6856963535297683
 31
0.0
 40
0.7623481330698713
 41
-3.809179179862438
 42
-3.141592653589793
  0
LINE
  5
163
330
17
100
AcDbEntity
  8
visible
100
AcDbLine
 10
-31.368296096536646
 20
12.66197146335422
 30
0.0
 11
-31.361140783717456
 21
12.666271695056972
 31
0.0
  0
LINE
  5
164
330
17
100
AcDbEntity
  8
visible
100
AcDbLine
 10
6.413942579220642
 20
2.5763883590322614
 30
0.0
 11
6.406787266401448
 21
2.5720881273295078
 31
0.0
  0
ELLIPSE
  5
165
330
17
100
AcDbEntity
  8
visible
100
AcDbEllipse
 10
-30.369835743331237
 20
12.395278511741225
 30
0.0
 11
-1.2
 21
-0.0
 31
0.0
 40
0.40065629660227675
 41
-6.871187910727154
 42
-5.3003915839322575
  0
LINE
  5
166
330
17
100
AcDbEntity
  8
visible
100
AcDbLine
 10
4.742686677725763
 20
2.438741651523017
 30
0.0
 11
-31.035475978801514
 21
11.995239084321748
 31
0.0
  0
ELLIPSE
  5
167
330
17
100
AcDbEntity
  8
visible
100
AcDbEllipse
 10
5.408326913196037
 20
2.838781078942503
 30
0.0
 11
-1.2
 21
-0.0
 31
0.0
 40
0.40065629660227675
 41
-5.3003915839322575
 42
-3.729595257137361
  0
LINE
  5
168
330
17
100
AcDbEntity
  8
visible
100
AcDbLine
 10
46.88107931145751
 20
-47.42229192666717
 30
0.0
 11
47.121781669333274
 21
-47.48658453686046
 31
0.0
  0
LINE
  5
169
330
17
100
AcDbEntity
  8
visible
100
AcDbLine
 10
47.12178166933327
 20
-48.81078912299439
 30
0.0
 11
42.961530197644045
 21
-51.311035544366156
 31
0.0
  0
LINE
  5
16A
330
17
100
AcDbEntity
  8
visible
100
AcDbLine
 10
54.043982754425976
 20
-39.55123192644588
 30
0.0
 11
54.19420917120494
 21
-39.591358032978206
 31
0.0
  0
LINE
  5
16B
330
17
100
AcDbEntity
  8
visible
100
AcDbLine
 10
54.19420917120494
 20
-50.586099167128864
 30
0.0
 11
54.19420917120494
 21
-39.591358032978206
 31
0.0
  0
LINE
  5
16C
330
17
100
AcDbEntity
  8
visible
100
AcDbLine
 10
47.12178166933327
 20
-47.27763355373227
 30
0.0
 11
47.12178166933327
 21
-49.95607465780176
 31
0.0
  0
LINE
  5
16D
330
17
100
AcDbEntity
  8
visible
100
AcDbLine
 10
47.12178166933327
 20
-49.95607465780175
 30
0.0
 11
42.961530197644045
 21
-52.45632107917351
 31
0.0
  0
LINE
  5
16E
330
17
100
AcDbEntity
  8
visible
100
AcDbLine
 10
54.19420917120494
 20
-39.5913580329782
 30
0.0
 11
37.553203284448074
 21
-49.592343718465244
 31
0.0
  0
LINE
  5
16F
330
17
100
AcDbEntity
  8
visible
100
AcDbLine
 10
54.19420917120494
 20
-50.586099167128864
 30
0.0
 11
37.553203284448074
 21
-60.58708485261591
 31
0.0
  0
ELLIPSE
  5
170
330
17
100
AcDbEntity
  8
visible
100
AcDbEllipse
 10
52.530108582529245
 20
-46.088827168602236
 30
0.0
 11
-0.4128916431102802
 21
-1.5458073913168138
 31
0.0
 40
0.5082320887132475
 41
5.196271398727106
 42
6.283185307179586
  0
ELLIPSE
  5
171
330
17
100
AcDbEntity
  8
visible
100
AcDbEllipse
 10
52.530108582529245
 20
-46.088827168602236
 30
0.0
 11
-0.4128916431102802
 21
-1.5458073913168138
 31
0.0
 40
0.5082320887132475
 41
0.0
 42
3.1415926535897936
  0
ELLIPSE
  5
172
330
17
100
AcDbEntity
  8
visible
100
AcDbEllipse
 10
52.530108582529245
 20
-46.088827168602236
 30
0.0
 11
-0.4128916431102802
 21
-1.5458073913168138
 31
0.0
 40
0.5082320887132475
 41
3.1415926535897936
 42
5.196271398727106
  0
LINE
  5
173
330
17
100
AcDbEntity
  8
visible
100
AcDbLine
 10
48.78588225800895
 20
-46.277534985183564
 30
0.0
 11
42.96153019764404
 21
-49.77787997510403
 31
0.0
  0
LINE
  5
174
330
17
100
AcDbEntity
  8
visible
100
AcDbLine
 10
48.785882258008954
 20
-46.27753498518357
 30
0.0
 11
48.785882258008954
 21
-50.400562910490066
 31
0.0
  0
LINE
  5
175
330
17
100
AcDbEntity
  8
visible
100
AcDbLine
 10
42.961530197644045
 20
-49.777879975104035
 30
0.0
 11
42.961530197644045
 21
-53.90090790041053
 31
0.0
  0
LINE
  5
176
330
17
100
AcDbEntity
  8
visible
100
AcDbLine
 10
48.78588225800895
 20
-50.400562910490066
 30
0.0
 11
42.96153019764404
 21
-53.90090790041053
 31
0.0
  0
ELLIPSE
  5
177
330
17
100
AcDbEntity
  8
visible
100
AcDbEllipse
 10
39.21730387312375
 20
-54.08961571699187
 30
0.0
 11
-0.4128916431102802
 21
-1.5458073913168138
 31
0.0
 40
0.5082320887132475
 41
5.196271398727106
 42
6.283185307179586
  0
ELLIPSE
  5
178
330
17
100
AcDbEntity
  8
visible
100
AcDbEllipse
 10
39.21730387312375
 20
-54.08961571699187
 30
0.0
 11
-0.4128916431102802
 21
-1.5458073913168138
 31
0.0
 40
0.5082320887132475
 41
0.0
 42
3.1415926535897936
  0
ELLIPSE
  5
179
330
17
100
AcDbEntity
  8
visible
100
AcDbEllipse
 10
39.21730387312375
 20
-54.08961571699187
 30
0.0
 11
-0.4128916431102802
 21
-1.5458073913168138
 31
0.0
 40
0.5082320887132475
 41
3.1415926535897936
 42
5.196271398727106
  0
LINE
  5
17A
330
17
100
AcDbEntity
  8
visible
100
AcDbLine
 10
47.12178166933327
 20
-49.95607465780176
 30
0.0
 11
48.785882258008954
 21
-50.400562910490066
 31
0.0
  0
ELLIPSE
  5
17B
330
17
100
AcDbEntity
  8
visible
100
AcDbEllipse
 10
-14.144855003743286
 20
25.399613997633864
 30
0.0
 11
5.923834609476766
 21
-9.856885081990418
 31
0.0
 40
0.762348133069871
 41
-6.283185307179586
 42
-5.379975506657335
  0
ELLIPSE
  5
17C
330
17
100
AcDbEntity
  8
visible
100
AcDbEllipse
 10
-14.144855003743286
 20
25.399613997633864
 30
0.0
 11
5.923834609476766
 21
-9.856885081990418
 31
0.0
 40
0.762348133069871
 41
-5.379975506657335
 42
-3.141592653589793
  0
ELLIPSE
  5
17D
330
17
100
AcDbEntity
  8
visible
100
AcDbEllipse
 10
-15.254255396193745
 20
24.732881618601397
 30
0.0
 11
5.923834609476766
 21
-9.856885081990418
 31
0.0
 40
0.762348133069871
 41
-6.283185307179586
 42
-5.379975506657335
  0
ELLIPSE
  5
17E
330
17
100
AcDbEntity
  8
visible
100
AcDbEllipse
 10
-15.254255396193745
 20
24.732881618601397
 30
0.0
 11
5.923834609476766
 21
-9.856885081990418
 31
0.0
 40
0.762348133069871
 41
-3.141592653589793
 42
-1.1102230246251565e-16
  0
ELLIPSE
  5
17F
330
17
100
AcDbEntity
  8
visible
100
AcDbEllipse
 10
-15.254255396193745
 20
24.732881618601397
 30
0.0
 11
5.923834609476766
 21
-9.856885081990418
 31
0.0
 40
0.762348133069871
 41
-5.379975506657335
 42
-3.141592653589793
  0
LINE
  5
180
330
17
100
AcDbEntity
  8
visible
100
AcDbLine
 10
-54.360619230072395
 20
-40.03941722723145
 30
0.0
 11
-54.360619230072395
 21
-35.00016087407906
 31
0.0
  0
LINE
  5
181
330
17
100
AcDbEntity
  8
visible
100
AcDbLine
 10
-54.360619230072395
 20
-62.67025939502489
 30
0.0
 11
-54.360619230072395
 21
-51.03415836138211
 31
0.0
  0
ELLIPSE
  5
182
330
17
100
AcDbEntity
  8
visible
100
AcDbEllipse
 10
-47.704216875369646
 20
-58.669865120830075
 30
0.0
 11
-12.0
 21
-0.0
 31
0.0
 40
0.4006562966022768
 41
-6.283185307179586
 42
-5.3003915839322575
  0
LINE
  5
183
330
17
100
AcDbEntity
  8
visible
100
AcDbLine
 10
8.87520313960372
 20
-79.56081299718079
 30
0.0
 11
8.87520313960372
 21
-51.89071447623495
 31
0.0
  0
LINE
  5
184
330
17
100
AcDbEntity
  8
visible
100
AcDbLine
 10
8.87520313960372
 20
-79.56081299718079
 30
0.0
 11
-54.360619230072395
 21
-62.6702593950249
 31
0.0
  0
ELLIPSE
  5
185
330
17
100
AcDbEntity
  8
visible
100
AcDbEllipse
 10
-53.91685907309221
 20
-62.403566443411904
 30
0.0
 11
-0.2064458215551404
 21
-0.7729036956584069
 31
0.0
 40
0.5082320887132475
 41
5.196271398727107
 42
6.283185307179586
  0
ELLIPSE
  5
186
330
17
100
AcDbEntity
  8
visible
100
AcDbEllipse
 10
47.70421687536976
 20
-56.225179731044356
 30
0.0
 11
-12.0
 21
-0.0
 31
0.0
 40
0.4006562966022768
 41
-3.729595257137361
 42
-3.141592653589793
  0
ELLIPSE
  5
187
330
17
100
AcDbEntity
  8
visible
100
AcDbEllipse
 10
15.531605494306469
 20
-75.56041872298597
 30
0.0
 11
-12.0
 21
-0.0
 31
0.0
 40
0.4006562966022768
 41
-5.3003915839322575
 42
-3.729595257137361
  0
ELLIPSE
  5
188
330
17
100
AcDbEntity
  8
visible
100
AcDbEllipse
 10
-53.750449014224635
 20
-34.54183522282661
 30
0.0
 11
-0.12902863847196275
 21
-0.4830648097865043
 31
0.0
 40
0.5082320887132475
 41
5.196271398727107
 42
5.3976293195174385
  0
ELLIPSE
  5
189
330
17
100
AcDbEntity
  8
visible
100
AcDbEllipse
 10
-47.704216875369646
 20
-30.908143757099655
 30
0.0
 11
-11.4
 21
-0.0
 31
0.0
 40
0.40065629660227675
 41
-6.1483077627396705
 42
-5.3003915839322575
  0
LINE
  5
18A
330
17
100
AcDbEntity
  8
visible
100
AcDbLine
 10
9.208023257338866
 20
-51.599071919740624
 30
0.0
 11
-54.02779911233725
 21
-34.70851831758473
 31
0.0
  0
ELLIPSE
  5
18B
330
17
100
AcDbEntity
  8
visible
100
AcDbEllipse
 10
9.485373355451479
 20
-51.43238882498251
 30
0.0
 11
-0.12902863847196275
 21
-0.4830648097865043
 31
0.0
 40
0.5082320887132475
 41
5.196271398727106
 42
5.3976293195174385
  0
ELLIPSE
  5
18C
330
17
100
AcDbEntity
  8
visible
100
AcDbEllipse
 10
24.60095370258896
 20
-50.22115833640686
 30
0.0
 11
0.2575580264989898
 21
-0.4285602209561052
 31
0.0
 40
0.7623481330698713
 41
-5.581333427447667
 42
-5.379975506657335
  0
ELLIPSE
  5
18D
330
17
100
AcDbEntity
  8
visible
100
AcDbEllipse
 10
15.531605494306476
 20
-47.798697359255556
 30
0.0
 11
-11.4
 21
-0.0
 31
0.0
 40
0.40065629660227675
 41
-5.3003915839322575
 42
-3.729595257137361
  0
LINE
  5
18E
330
17
100
AcDbEntity
  8
visible
100
AcDbLine
 10
57.18959023082118
 20
-30.99704140763732
 30
0.0
 11
25.016978849757884
 21
-50.332280399578934
 31
0.0
  0
ELLIPSE
  5
18F
330
17
100
AcDbEntity
  8
visible
100
AcDbEllipse
 10
56.773565083652265
 20
-30.885919344465236
 30
0.0
 11
0.25755802649899
 21
-0.428560220956105
 31
0.0
 40
0.7623481330698716
 41
-5.581333427447667
 42
-5.379975506657335
  0
ELLIPSE
  5
190
330
17
100
AcDbEntity
  8
visible
100
AcDbEllipse
 10
47.70421687536977
 20
-28.463458367313933
 30
0.0
 11
-11.4
 21
-0.0
 31
0.0
 40
0.40065629660227664
 41
-3.72959525713736
 42
-3.27647019802971
  0
ELLIPSE
  5
191
330
17
100
AcDbEntity
  8
visible
100
AcDbEllipse
 10
9.318963296583902
 20
-79.29412004556781
 30
0.0
 11
-0.2064458215551404
 21
-0.7729036956584069
 31
0.0
 40
0.5082320887132475
 41
5.196271398727106
 42
6.283185307179586
  0
LINE
  5
192
330
17
100
AcDbEntity
  8
visible
100
AcDbLine
 10
-27.88301559105892
 20
-47.35493407516371
 30
0.0
 11
-28.21583570879406
 21
-47.554953788873455
 31
0.0
  0
LINE
  5
193
330
17
100
AcDbEntity
  8
visible
100
AcDbLine
 10
-28.581198418607546
 20
-47.02125942482986
 30
0.0
 11
-28.914018536342684
 21
-47.2212791385396
 31
0.0
  0
LINE
  5
194
330
17
100
AcDbEntity
  8
visible
100
AcDbLine
 10
-30.13397977845092
 20
-46.73646807102217
 30
0.0
 11
-30.46679989618606
 21
-46.936487784731916
 31
0.0
  0
LINE
  5
195
330
17
100
AcDbEntity
  8
visible
100
AcDbLine
 10
-30.688544549823558
 20
-48.365547268853234
 30
0.0
 11
-31.021364667558696
 21
-48.56556698256298
 31
0.0
  0
LINE
  5
196
330
17
100
AcDbEntity
  8
visible
100
AcDbLine
 10
-30.13397977845092
 20
-50.287747983249055
 30
0.0
 11
-30.46679989618606
 21
-50.4877676969588
 31
0.0
  0
LINE
  5
197
330
17
100
AcDbEntity
  8
visible
100
AcDbLine
 10
-28.615325481461245
 20
-51.34320224873764
 30
0.0
 11
-28.948145599196383
 21
-51.54322196244738
 31
0.0
  0
LINE
  5
198
330
17
100
AcDbEntity
  8
visible
100
AcDbLine
 10
-27.902923044390246
 20
-51.420748885323235
 30
0.0
 11
-28.235743162125384
 21
-51.62076859903298
 31
0.0
  0
ELLIPSE
  5
199
330
17
100
AcDbEntity
  8
visible
100
AcDbEllipse
 10
57.02318017195361
 20
-58.71431394609891
 30
0.0
 11
0.4120928423983837
 21
-0.6856963535297683
 31
0.0
 40
0.7623481330698713
 41
-6.283185307179586
 42
-5.379975506657335
  0
ELLIPSE
  5
19A
330
17
100
AcDbEntity
  8
visible
100
AcDbEllipse
 10
24.85056879089032
 20
-78.04955293804053
 30
0.0
 11
0.4120928423983837
 21
-0.6856963535297683
 31
0.0
 40
0.7623481330698713
 41
-6.283185307179586
 42
-5.379975506657335
  0
LINE
  5
19B
330
17
100
AcDbEntity
  8
visible
100
AcDbLine
 10
-54.027799112337256
 20
-34.708518317584726
 30
0.0
 11
-54.027799112337256
 21
-33.989584411201655
 31
0.0
  0
LINE
  5
19C
330
17
100
AcDbEntity
  8
visible
100
AcDbLine
 10
9.208023257338859
 20
-51.599071919740624
 30
0.0
 11
9.208023257338859
 21
-50.87699640044684
 31
0.0
  0
LINE
  5
19D
330
17
100
AcDbEntity
  8
visible
100
AcDbLine
 10
25.016978849757884
 20
-50.332280399578934
 30
0.0
 11
25.016978849757884
 21
-49.73581138435155
 31
0.0
  0
LINE
  5
19E
330
17
100
AcDbEntity
  8
visible
100
AcDbLine
 10
57.189590230821175
 20
-30.997041407637322
 30
0.0
 11
57.189590230821175
 21
-30.422566183377945
 31
0.0
  0
ELLIPSE
  5
19F
330
17
100
AcDbEntity
  8
visible
100
AcDbEllipse
 10
15.531605494306469
 20
-41.47672120711892
 30
0.0
 11
-11.2
 21
-0.0
 31
0.0
 40
0.40065629660227675
 41
-5.3003915839322575
 42
-3.729595257137361
  0
ELLIPSE
  5
1A0
330
17
100
AcDbEntity
  8
visible
100
AcDbEllipse
 10
-53.91685907309221
 20
-29.052851669821564
 30
0.0
 11
0.2064458215551404
 21
0.7729036956584069
 31
0.0
 40
0.5082320887132475
 41
-5.591842926064086
 42
-4.228506562042273
  0
ELLIPSE
  5
1A1
330
17
100
AcDbEntity
  8
visible
100
AcDbEllipse
 10
-47.704216875369646
 20
-25.319150347239734
 30
0.0
 11
-12.0
 21
-0.0
 31
0.0
 40
0.4006562966022768
 41
-6.283185307179586
 42
-5.3003915839322575
  0
ELLIPSE
  5
1A2
330
17
100
AcDbEntity
  8
visible
100
AcDbEllipse
 10
9.318963296583902
 20
-45.94340527197746
 30
0.0
 11
0.2064458215551404
 21
0.7729036956584069
 31
0.0
 40
0.5082320887132475
 41
-5.59258731126899
 42
-4.2285065620422735
  0
LINE
  5
1A3
330
17
100
AcDbEntity
  8
visible
100
AcDbLine
 10
8.87520313960372
 20
-46.21009822359045
 30
0.0
 11
-54.360619230072395
 21
-29.319544621434556
 31
0.0
  0
ELLIPSE
  5
1A4
330
17
100
AcDbEntity
  8
visible
100
AcDbEllipse
 10
24.85056879089032
 20
-44.69883816445019
 30
0.0
 11
-0.4120928423983837
 21
0.6856963535297683
 31
0.0
 40
0.7623481330698713
 41
4.044802454112045
 42
5.325503333261003
  0
ELLIPSE
  5
1A5
330
17
100
AcDbEntity
  8
visible
100
AcDbEllipse
 10
15.531605494306469
 20
-42.20970394939563
 30
0.0
 11
-12.0
 21
-0.0
 31
0.0
 40
0.4006562966022768
 41
-5.3003915839322575
 42
-3.729595257137361
  0
ELLIPSE
  5
1A6
330
17
100
AcDbEntity
  8
visible
100
AcDbEllipse
 10
47.70421687536976
 20
-22.874464957454016
 30
0.0
 11
-12.0
 21
-0.0
 31
0.0
 40
0.4006562966022768
 41
-3.729595257137361
 42
-3.1415926535897936
  0
ELLIPSE
  5
1A7
330
17
100
AcDbEntity
  8
visible
100
AcDbEllipse
 10
57.02318017195361
 20
-25.36359917250857
 30
0.0
 11
-0.4120928423983837
 21
0.6856963535297683
 31
0.0
 40
0.7623481330698713
 41
4.044802454112045
 42
5.319669380827186
  0
LINE
  5
1A8
330
17
100
AcDbEntity
  8
visible
100
AcDbLine
 10
57.68882040742388
 20
-25.541394473583892
 30
0.0
 11
25.516209026360592
 21
-44.87663346552551
 31
0.0
  0
LINE
  5
1A9
330
17
100
AcDbEntity
  8
visible
100
AcDbLine
 10
57.68882040742388
 20
-30.122536612813335
 30
0.0
 11
57.68882040742388
 21
-25.541394473583892
 31
0.0
  0
LINE
  5
1AA
330
17
100
AcDbEntity
  8
visible
100
AcDbLine
 10
25.516209026360592
 20
-49.45777560475495
 30
0.0
 11
25.516209026360592
 21
-44.87663346552551
 31
0.0
  0
LINE
  5
1AB
330
17
100
AcDbEntity
  8
visible
100
AcDbLine
 10
8.87520313960372
 20
-50.791240362819885
 30
0.0
 11
8.87520313960372
 21
-46.21009822359044
 31
0.0
  0
LINE
  5
1AC
330
17
100
AcDbEntity
  8
visible
100
AcDbLine
 10
-54.360619230072395
 20
-33.900686760663994
 30
0.0
 11
-54.360619230072395
 21
-29.319544621434552
 31
0.0
  0
ELLIPSE
  5
1AD
330
17
100
AcDbEntity
  8
visible
100
AcDbEllipse
 10
-47.704216875369646
 20
-23.85318486268632
 30
0.0
 11
-12.0
 21
-0.0
 31
0.0
 40
0.4006562966022768
 41
-6.283185307179586
 42
-5.3003915839322575
  0
ELLIPSE
  5
1AE
330
17
100
AcDbEntity
  8
visible
100
AcDbEllipse
 10
-47.704216875369646
 20
-21.65423663585618
 30
0.0
 11
-12.0
 21
-0.0
 31
0.0
 40
0.4006562966022768
 41
-6.283185307179586
 42
-5.3003915839322575
  0
LINE
  5
1AF
330
17
100
AcDbEntity
  8
visible
100
AcDbLine
 10
-54.360619230072395
 20
-27.85357913688113
 30
0.0
 11
-54.360619230072395
 21
-25.654630910050997
 31
0.0
  0
ELLIPSE
  5
1B0
330
17
100
AcDbEntity
  8
visible
100
AcDbEllipse
 10
-57.0231801719535
 20
-19.165102420801624
 30
0.0
 11
0.4120928423983837
 21
-0.6856963535297683
 31
0.0
 40
0.7623481330698713
 41
-3.809179179862438
 42
-3.141592653589793
  0
LINE
  5
1B1
330
17
100
AcDbEntity
  8
visible
100
AcDbLine
 10
-57.0231801719535
 20
-18.432119678524913
 30
0.0
 11
-45.999999999999936
 21
-11.807359861813069
 31
0.0
  0
ELLIPSE
  5
1B2
330
17
100
AcDbEntity
  8
visible
100
AcDbEllipse
 10
-53.91685907309221
 20
-27.58688618526815
 30
0.0
 11
-0.2064458215551404
 21
-0.7729036956584069
 31
0.0
 40
0.5082320887132475
 41
5.196271398727107
 42
6.283185307179586
  0
ELLIPSE
  5
1B3
330
17
100
AcDbEntity
  8
visible
100
AcDbEllipse
 10
-53.91685907309221
 20
-25.38793795843801
 30
0.0
 11
0.2064458215551404
 21
0.7729036956584069
 31
0.0
 40
0.5082320887132475
 41
-5.799302888837169
 42
-4.228506562042273
  0
ELLIPSE
  5
1B4
330
17
100
AcDbEntity
  8
visible
100
AcDbEllipse
 10
-47.704216875369646
 20
-20.92125389357947
 30
0.0
 11
-11.2
 21
-0.0
 31
0.0
 40
0.40065629660227675
 41
-6.871187910727154
 42
-5.3003915839322575
  0
LINE
  5
1B5
330
17
100
AcDbEntity
  8
visible
100
AcDbLine
 10
8.87520313960372
 20
-44.744132739037035
 30
0.0
 11
-54.360619230072395
 21
-27.85357913688114
 31
0.0
  0
LINE
  5
1B6
330
17
100
AcDbEntity
  8
visible
100
AcDbLine
 10
8.87520313960372
 20
-42.545184512206895
 30
0.0
 11
-15.349436585011038
 21
-36.07468155314786
 31
0.0
  0
LINE
  5
1B7
330
17
100
AcDbEntity
  8
visible
100
AcDbLine
 10
-33.720830203980654
 20
-31.16760519928182
 30
0.0
 11
-54.360619230072395
 21
-25.654630910051
 31
0.0
  0
LINE
  5
1B8
330
17
100
AcDbEntity
  8
visible
100
AcDbLine
 10
8.87520313960372
 20
-44.74413273903703
 30
0.0
 11
8.87520313960372
 21
-42.545184512206895
 31
0.0
  0
LINE
  5
1B9
330
17
100
AcDbEntity
  8
visible
100
AcDbLine
 10
9.318963296583902
 20
-41.545508818317195
 30
0.0
 11
-8.313175334896986
 21
-36.835890574805816
 31
0.0
  0
LINE
  5
1BA
330
17
100
AcDbEntity
  8
visible
100
AcDbLine
 10
-38.207396349404185
 20
-28.85101865381754
 30
0.0
 11
-53.91685907309221
 21
-24.6549552161613
 31
0.0
  0
LINE
  5
1BB
330
17
100
AcDbEntity
  8
visible
100
AcDbLine
 10
46.00000000000005
 20
-12.628240889913728
 30
0.0
 11
53.916859073092326
 21
-14.742867181211917
 31
0.0
  0
ELLIPSE
  5
1BC
330
17
100
AcDbEntity
  8
visible
100
AcDbEllipse
 10
15.531605494306469
 20
-37.811807495735366
 30
0.0
 11
-11.2
 21
-0.0
 31
0.0
 40
0.40065629660227675
 41
-5.3003915839322575
 42
-3.729595257137361
  0
ELLIPSE
  5
1BD
330
17
100
AcDbEntity
  8
visible
100
AcDbEllipse
 10
47.70421687536976
 20
-18.47656850379375
 30
0.0
 11
-11.2
 21
-0.0
 31
0.0
 40
0.40065629660227675
 41
-3.729595257137361
 42
-2.1587989303424644
  0
LINE
  5
1BE
330
17
100
AcDbEntity
  8
visible
100
AcDbLine
 10
57.02318017195361
 20
-20.965702718848306
 30
0.0
 11
24.85056879089032
 21
-40.30094171078992
 31
0.0
  0
ELLIPSE
  5
1BF
330
17
100
AcDbEntity
  8
visible
100
AcDbEllipse
 10
9.318963296583902
 20
-44.477439787424046
 30
0.0
 11
-0.2064458215551404
 21
-0.7729036956584069
 31
0.0
 40
0.5082320887132475
 41
5.196271398727106
 42
6.283185307179586
  0
ELLIPSE
  5
1C0
330
17
100
AcDbEntity
  8
visible
100
AcDbEllipse
 10
9.318963296583902
 20
-42.278491560593906
 30
0.0
 11
0.2064458215551404
 21
0.7729036956584069
 31
0.0
 40
0.5082320887132475
 41
-5.79930288883717
 42
-4.2285065620422735
  0
LINE
  5
1C1
330
17
100
AcDbEntity
  8
visible
100
AcDbLine
 10
25.516209026360592
 20
-43.410667980972086
 30
0.0
 11
25.516209026360592
 21
-41.21171975414195
 31
0.0
  0
ELLIPSE
  5
1C2
330
17
100
AcDbEntity
  8
visible
100
AcDbEllipse
 10
15.531605494306469
 20
-40.74373846484222
 30
0.0
 11
-12.0
 21
-0.0
 31
0.0
 40
0.4006562966022768
 41
-5.3003915839322575
 42
-3.729595257137361
  0
ELLIPSE
  5
1C3
330
17
100
AcDbEntity
  8
visible
100
AcDbEllipse
 10
15.531605494306469
 20
-38.54479023801208
 30
0.0
 11
-12.0
 21
-0.0
 31
0.0
 40
0.4006562966022768
 41
-5.3003915839322575
 42
-3.729595257137361
  0
ELLIPSE
  5
1C4
330
17
100
AcDbEntity
  8
visible
100
AcDbEllipse
 10
24.85056879089032
 20
-43.23287267989677
 30
0.0
 11
0.4120928423983837
 21
-0.6856963535297683
 31
0.0
 40
0.7623481330698713
 41
-6.283185307179586
 42
-5.379975506657335
  0
ELLIPSE
  5
1C5
330
17
100
AcDbEntity
  8
visible
100
AcDbEllipse
 10
47.70421687536976
 20
-21.4084994729006
 30
0.0
 11
-12.0
 21
-0.0
 31
0.0
 40
0.4006562966022768
 41
-3.729595257137361
 42
-3.1415926535897936
  0
ELLIPSE
  5
1C6
330
17
100
AcDbEntity
  8
visible
100
AcDbEllipse
 10
57.02318017195361
 20
-23.897633687955157
 30
0.0
 11
0.4120928423983837
 21
-0.6856963535297683
 31
0.0
 40
0.7623481330698713
 41
-6.283185307179586
 42
-5.379975506657335
  0
LINE
  5
1C7
330
17
100
AcDbEntity
  8
visible
100
AcDbLine
 10
57.68882040742388
 20
-24.075428989030478
 30
0.0
 11
25.516209026360592
 21
-43.41066798097209
 31
0.0
  0
ELLIPSE
  5
1C8
330
17
100
AcDbEntity
  8
visible
100
AcDbEllipse
 10
53.916859073092326
 20
-15.475849923488632
 30
0.0
 11
-0.2064458215551404
 21
-0.7729036956584069
 31
0.0
 40
0.5082320887132475
 41
3.1415926535897936
 42
3.62547507193221
  0
ELLIPSE
  5
1C9
330
17
100
AcDbEntity
  8
visible
100
AcDbEllipse
 10
24.85056879089032
 20
-41.03392445306663
 30
0.0
 11
-0.4120928423983837
 21
0.6856963535297683
 31
0.0
 40
0.7623481330698713
 41
4.044802454112045
 42
5.615598780906941
  0
ELLIPSE
  5
1CA
330
17
100
AcDbEntity
  8
visible
100
AcDbEllipse
 10
47.70421687536976
 20
-19.20955124607046
 30
0.0
 11
-12.0
 21
-0.0
 31
0.0
 40
0.4006562966022768
 41
-3.729595257137361
 42
-3.1415926535897936
  0
ELLIPSE
  5
1CB
330
17
100
AcDbEntity
  8
visible
100
AcDbEllipse
 10
57.02318017195361
 20
-21.698685461125017
 30
0.0
 11
-0.4120928423983837
 21
0.6856963535297683
 31
0.0
 40
0.7623481330698713
 41
4.044802454112045
 42
5.615598780906941
  0
LINE
  5
1CC
330
17
100
AcDbEntity
  8
visible
100
AcDbLine
 10
57.68882040742388
 20
-21.876480762200337
 30
0.0
 11
25.516209026360592
 21
-41.21171975414195
 31
0.0
  0
LINE
  5
1CD
330
17
100
AcDbEntity
  8
visible
100
AcDbLine
 10
57.68882040742388
 20
-24.07542898903047
 30
0.0
 11
57.68882040742388
 21
-21.876480762200337
 31
0.0
  0
ELLIPSE
  5
1CE
330
17
100
AcDbEntity
  8
visible
100
AcDbEllipse
 10
44.098665599905765
 20
-8.495786829792543
 30
0.0
 11
-5.0
 21
-1.5146646170368258e-16
 31
0.0
 40
0.40065629660227675
 41
-3.729595257137361
 42
-3.141592653589793
  0
ELLIPSE
  5
1CF
330
17
100
AcDbEntity
  8
visible
100
AcDbEllipse
 10
47.593276836124716
 20
-9.429212160437999
 30
0.0
 11
0.4120928423983836
 21
-0.6856963535297684
 31
0.0
 40
0.7623481330698713
 41
-6.283185307179586
 42
-5.379975506657335
  0
LINE
  5
1D0
330
17
100
AcDbEntity
  8
visible
100
AcDbLine
 10
48.258917071594986
 20
-9.607007461513327
 30
0.0
 11
31.61791118483811
 21
-19.60799314700037
 31
0.0
  0
ELLIPSE
  5
1D1
330
17
100
AcDbEntity
  8
visible
100
AcDbEllipse
 10
30.952270949367843
 20
-19.430197845925044
 30
0.0
 11
0.4120928423983837
 21
-0.6856963535297683
 31
0.0
 40
0.7623481330698713
 41
-6.283185307179586
 42
-5.379975506657335
  0
ELLIPSE
  5
1D2
330
17
100
AcDbEntity
  8
visible
100
AcDbEllipse
 10
27.457659713148892
 20
-18.496772515279588
 30
0.0
 11
-5.0
 21
-0.0
 31
0.0
 40
0.40065629660227675
 41
-5.3003915839322575
 42
-3.729595257137361
  0
LINE
  5
1D3
330
17
100
AcDbEntity
  8
visible
100
AcDbLine
 10
48.258917071594986
 20
-9.607007461513327
 30
0.0
 11
48.258917071594986
 21
-3.743145523299641
 31
0.0
  0
ELLIPSE
  5
1D4
330
17
100
AcDbEntity
  8
visible
100
AcDbEllipse
 10
44.098665599905765
 20
-2.631924891578862
 30
0.0
 11
-5.0
 21
-1.5146646170368258e-16
 31
0.0
 40
0.40065629660227675
 41
-3.729595257137361
 42
-3.141592653589793
  0
LINE
  5
1D5
330
17
100
AcDbEntity
  8
visible
100
AcDbLine
 10
31.617911184838114
 20
-19.607993147000364
 30
0.0
 11
31.617911184838114
 21
-13.74413120878668
 31
0.0
  0
LINE
  5
1D6
330
17
100
AcDbEntity
  8
visible
100
AcDbLine
 10
48.258917071594986
 20
-3.7431455232996456
 30
0.0
 11
31.61791118483811
 21
-13.744131208786689
 31
0.0
  0
ELLIPSE
  5
1D7
330
17
100
AcDbEntity
  8
visible
100
AcDbEllipse
 10
24.129458535797518
 20
-11.743934071689281
 30
0.0
 11
-5.0
 21
-1.5146646170368258e-16
 31
0.0
 40
0.40065629660227675
 41
-6.283185307179586
 42
-5.3003915839322575
  0
LINE
  5
1D8
330
17
100
AcDbEntity
  8
visible
100
AcDbLine
 10
21.35595755467137
 20
-19.274626957484138
 30
0.0
 11
21.35595755467137
 21
-13.410765019270453
 31
0.0
  0
ELLIPSE
  5
1D9
330
17
100
AcDbEntity
  8
visible
100
AcDbEllipse
 10
27.457659713148892
 20
-12.6329105770659
 30
0.0
 11
-5.0
 21
-0.0
 31
0.0
 40
0.40065629660227675
 41
-5.3003915839322575
 42
-3.729595257137361
  0
LINE
  5
1DA
330
17
100
AcDbEntity
  8
visible
100
AcDbLine
 10
24.684158732022745
 20
-20.163603462860756
 30
0.0
 11
24.684158732022745
 21
-14.299741524647072
 31
0.0
  0
LINE
  5
1DB
330
17
100
AcDbEntity
  8
visible
100
AcDbLine
 10
24.684158732022745
 20
-14.299741524647075
 30
0.0
 11
21.355957554671367
 21
-13.410765019270448
 31
0.0
  0
ELLIPSE
  5
1DC
330
17
100
AcDbEntity
  8
visible
100
AcDbEllipse
 10
44.098665599905765
 20
-1.8989421493021368
 30
0.0
 11
-4.2
 21
-1.2723182783109337e-16
 31
0.0
 40
0.40065629660227675
 41
-3.729595257137361
 42
-3.200783068922106
  0
ELLIPSE
  5
1DD
330
17
100
AcDbEntity
  8
visible
100
AcDbEllipse
 10
47.593276836124716
 20
-3.5653502222243176
 30
0.0
 11
-0.4120928423983836
 21
0.6856963535297684
 31
0.0
 40
0.7623481330698713
 41
4.044802454112045
 42
5.615598780906941
  0
ELLIPSE
  5
1DE
330
17
100
AcDbEntity
  8
visible
100
AcDbEllipse
 10
30.06475063540747
 20
50.38015920819302
 30
0.0
 11
-0.4120928423983837
 21
0.6856963535297683
 31
0.0
 40
0.7623481330698713
 41
5.615598780906941
 42
6.283185307179586
  0
ELLIPSE
  5
1DF
330
17
100
AcDbEntity
  8
visible
100
AcDbEllipse
 10
30.06475063540747
 20
34.621030249243745
 30
0.0
 11
4.645030984990658
 21
17.390333152314156
 31
0.0
 40
0.5082320887132475
 41
-6.283185307179586
 42
-5.799302888837169
  0
ELLIPSE
  5
1E0
330
17
100
AcDbEntity
  8
visible
100
AcDbEllipse
 10
27.845949850506557
 20
49.04669445012807
 30
0.0
 11
-0.4120928423983837
 21
0.6856963535297683
 31
0.0
 40
0.7623481330698713
 41
5.615598780906941
 42
6.283185307179586
  0
LINE
  5
1E1
330
17
100
AcDbEntity
  8
visible
100
AcDbLine
 10
27.845949850506557
 20
49.779677192404776
 30
0.0
 11
30.064750635407474
 21
51.11314195046972
 31
0.0
  0
ELLIPSE
  5
1E2
330
17
100
AcDbEntity
  8
visible
100
AcDbEllipse
 10
18.305106475432616
 20
27.55366703149957
 30
0.0
 11
-0.8
 21
-0.0
 31
0.0
 40
0.40065629660227675
 41
-6.283185307179586
 42
-5.3003915839322575
  0
ELLIPSE
  5
1E3
330
17
100
AcDbEntity
  8
visible
100
AcDbEllipse
 10
27.845949850506557
 20
33.287565491178796
 30
0.0
 11
4.645030984990659
 21
17.390333152314156
 31
0.0
 40
0.5082320887132475
 41
-5.799302888837169
 42
-4.228506562042273
  0
ELLIPSE
  5
1E4
330
17
100
AcDbEntity
  8
visible
100
AcDbEllipse
 10
18.305106475432616
 20
-2.2237568734918156
 30
0.0
 11
-0.8
 21
-1.2117316936294606e-16
 31
0.0
 40
0.400656296602277
 41
-6.283185307179586
 42
-5.3003915839322575
  0
LINE
  5
1E5
330
17
100
AcDbEntity
  8
visible
100
AcDbLine
 10
17.86134631845243
 20
-2.490449825104804
 30
0.0
 11
17.86134631845243
 21
27.28697407988657
 31
0.0
  0
ELLIPSE
  5
1E6
330
17
100
AcDbEntity
  8
visible
100
AcDbEllipse
 10
27.845949850506557
 20
3.510141586187423
 30
0.0
 11
4.645030984990658
 21
17.390333152314156
 31
0.0
 40
0.5082320887132475
 41
-4.228506562042273
 42
-3.6262292470670063
  0
LINE
  5
1E7
330
17
100
AcDbEntity
  8
visible
100
AcDbLine
 10
47.593276836124716
 20
-2.8323674799475924
 30
0.0
 11
30.95227094936784
 21
-12.833353165434636
 31
0.0
  0
ELLIPSE
  5
1E8
330
17
100
AcDbEntity
  8
visible
100
AcDbEllipse
 10
30.952270949367843
 20
-13.566335907711363
 30
0.0
 11
-0.4120928423983837
 21
0.6856963535297683
 31
0.0
 40
0.7623481330698713
 41
4.044802454112045
 42
5.615598780906941
  0
ELLIPSE
  5
1E9
330
17
100
AcDbEntity
  8
visible
100
AcDbEllipse
 10
21.799717711651553
 20
-13.144072067657461
 30
0.0
 11
0.2064458215551404
 21
0.7729036956584069
 31
0.0
 40
0.5082320887132475
 41
-5.799302888837169
 42
-4.228506562042273
  0
ELLIPSE
  5
1EA
330
17
100
AcDbEntity
  8
visible
100
AcDbEllipse
 10
24.129458535797518
 20
-11.01095132941255
 30
0.0
 11
-4.2
 21
-1.2723182783109337e-16
 31
0.0
 40
0.40065629660227675
 41
-6.401933794300511
 42
-5.3003915839322575
  0
ELLIPSE
  5
1EB
330
17
100
AcDbEntity
  8
visible
100
AcDbEllipse
 10
27.457659713148892
 20
-11.899927834789182
 30
0.0
 11
-4.2
 21
-0.0
 31
0.0
 40
0.40065629660227675
 41
-5.3003915839322575
 42
-3.729595257137361
  0
ELLIPSE
  5
1EC
330
17
100
AcDbEntity
  8
visible
100
AcDbEllipse
 10
25.127918889002927
 20
-14.033048573034094
 30
0.0
 11
0.2064458215551404
 21
0.7729036956584069
 31
0.0
 40
0.5082320887132475
 41
-5.79930288883717
 42
-4.2285065620422735
  0
LINE
  5
1ED
330
17
100
AcDbEntity
  8
visible
100
AcDbLine
 10
25.127918889002927
 20
-13.300065830757362
 30
0.0
 11
21.79971771165155
 21
-12.411089325380734
 31
0.0
  0
LINE
  5
1EE
330
17
100
AcDbEntity
  8
visible
100
AcDbLine
 10
30.06475063540747
 20
51.11314195046972
 30
0.0
 11
33.725771930493984
 21
50.13526779455543
 31
0.0
  0
ELLIPSE
  5
1EF
330
17
100
AcDbEntity
  8
visible
100
AcDbEllipse
 10
33.72577193049399
 20
33.64315609332945
 30
0.0
 11
4.645030984990658
 21
17.390333152314156
 31
0.0
 40
0.5082320887132475
 41
-6.283185307179586
 42
-5.799302888837169
  0
LINE
  5
1F0
330
17
100
AcDbEntity
  8
visible
100
AcDbLine
 10
27.845949850506557
 20
49.77967719240478
 30
0.0
 11
31.50697114559307
 21
48.8018030364905
 31
0.0
  0
LINE
  5
1F1
330
17
100
AcDbEntity
  8
visible
100
AcDbLine
 10
31.506971145593074
 20
48.8018030364905
 30
0.0
 11
33.72577193049399
 21
50.13526779455544
 31
0.0
  0
LINE
  5
1F2
330
17
100
AcDbEntity
  8
visible
100
AcDbLine
 10
17.86134631845243
 20
27.286974079886573
 30
0.0
 11
21.522367613538943
 21
26.309099923972283
 31
0.0
  0
ELLIPSE
  5
1F3
330
17
100
AcDbEntity
  8
visible
100
AcDbEllipse
 10
31.506971145593074
 20
32.30969133526452
 30
0.0
 11
4.645030984990659
 21
17.390333152314156
 31
0.0
 40
0.5082320887132475
 41
-5.799302888837169
 42
-4.228506562042273
  0
LINE
  5
1F4
330
17
100
AcDbEntity
  8
visible
100
AcDbLine
 10
17.86134631845243
 20
-2.4904498251048075
 30
0.0
 11
21.522367613538943
 21
-3.468323981019098
 31
0.0
  0
LINE
  5
1F5
330
17
100
AcDbEntity
  8
visible
100
AcDbLine
 10
21.522367613538947
 20
-3.468323981019097
 30
0.0
 11
21.522367613538947
 21
26.309099923972276
 31
0.0
  0
ELLIPSE
  5
1F6
330
17
100
AcDbEntity
  8
visible
100
AcDbEllipse
 10
31.506971145593074
 20
2.53226743027313
 30
0.0
 11
4.645030984990658
 21
17.390333152314156
 31
0.0
 40
0.5082320887132475
 41
-4.228506562042273
 42
-3.632779029472912
  0
ELLIPSE
  5
1F7
330
17
100
AcDbEntity
  8
visible
100
AcDbEllipse
 10
21.96612777051913
 20
-3.2016310294061014
 30
0.0
 11
0.8
 21
1.2117316936294606e-16
 31
0.0
 40
0.400656296602277
 41
4.124386376837122
 42
5.438679159330402
  0
ELLIPSE
  5
1F8
330
17
100
AcDbEntity
  8
visible
100
AcDbEllipse
 10
33.72577193049399
 20
49.40228505227873
 30
0.0
 11
0.4120928423983837
 21
-0.6856963535297683
 31
0.0
 40
0.7623481330698713
 41
-4.952885509405623
 42
-3.809179179862438
  0
ELLIPSE
  5
1F9
330
17
100
AcDbEntity
  8
visible
100
AcDbEllipse
 10
31.50697114559307
 20
48.06882029421379
 30
0.0
 11
0.4120928423983837
 21
-0.6856963535297683
 31
0.0
 40
0.7623481330698713
 41
-4.961406922570879
 42
-3.809179179862438
  0
ELLIPSE
  5
1FA
330
17
100
AcDbEntity
  8
visible
100
AcDbEllipse
 10
21.96612777051913
 20
26.57579287558528
 30
0.0
 11
0.8
 21
0.0
 31
0.0
 40
0.40065629660227675
 41
4.124386376837122
 42
5.4390977526615245
  0
ELLIPSE
  5
1FB
330
17
100
AcDbEntity
  8
visible
100
AcDbEllipse
 10
5.684341886080802e-14
 20
-4.581142139229456
 30
0.0
 11
45.2
 21
0.0
 31
0.0
 40
0.40065629660227675
 41
2.997137636439904
 42
5.246979061123591
  0
LINE
  5
1FC
330
17
100
AcDbEntity
  8
visible
100
AcDbLine
 10
23.75241257563015
 20
-20.262489743211827
 30
0.0
 11
21.79971771165155
 21
-19.74091674814786
 31
0.0
  0
ELLIPSE
  5
1FD
330
17
100
AcDbEntity
  8
visible
100
AcDbEllipse
 10
21.799717711651553
 20
-19.00793400587115
 30
0.0
 11
-0.2064458215551404
 21
-0.7729036956584069
 31
0.0
 40
0.5082320887132475
 41
0.021478091941260935
 42
0.48388241834241685
  0
ELLIPSE
  5
1FE
330
17
100
AcDbEntity
  8
visible
100
AcDbEllipse
 10
23.29740824145967
 20
26.220202273434623
 30
0.0
 11
-0.8
 21
-0.0
 31
0.0
 40
0.40065629660227675
 41
-6.283185307179586
 42
-5.3003915839322575
  0
ELLIPSE
  5
1FF
330
17
100
AcDbEntity
  8
visible
100
AcDbEllipse
 10
32.83825161653361
 20
31.95410073311386
 30
0.0
 11
4.645030984990659
 21
17.390333152314156
 31
0.0
 40
0.5082320887132475
 41
-5.799302888837169
 42
-4.228506562042273
  0
ELLIPSE
  5
200
330
17
100
AcDbEntity
  8
visible
100
AcDbEllipse
 10
32.83825161653361
 20
47.71322969206314
 30
0.0
 11
-0.4120928423983837
 21
0.6856963535297683
 31
0.0
 40
0.7623481330698713
 41
5.615598780906941
 42
6.283185307179586
  0
LINE
  5
201
330
17
100
AcDbEntity
  8
visible
100
AcDbLine
 10
32.83825161653361
 20
48.44621243433984
 30
0.0
 11
35.057052401434525
 21
49.77967719240478
 31
0.0
  0
ELLIPSE
  5
202
330
17
100
AcDbEntity
  8
visible
100
AcDbEllipse
 10
35.05705240143453
 20
49.04669445012807
 30
0.0
 11
-0.4120928423983837
 21
0.6856963535297683
 31
0.0
 40
0.7623481330698713
 41
5.615598780906941
 42
6.283185307179586
  0
ELLIPSE
  5
203
330
17
100
AcDbEntity
  8
visible
100
AcDbEllipse
 10
35.05705240143453
 20
33.287565491178796
 30
0.0
 11
4.645030984990658
 21
17.390333152314156
 31
0.0
 40
0.5082320887132475
 41
-6.283185307179586
 42
-5.799302888837169
  0
ELLIPSE
  5
204
330
17
100
AcDbEntity
  8
visible
100
AcDbEllipse
 10
23.29740824145967
 20
-3.5572216315567573
 30
0.0
 11
-0.8
 21
-1.2117316936294606e-16
 31
0.0
 40
0.400656296602277
 41
-6.283185307179586
 42
-5.3003915839322575
  0
ELLIPSE
  5
205
330
17
100
AcDbEntity
  8
visible
100
AcDbEllipse
 10
32.83825161653361
 20
2.1766768281224813
 30
0.0
 11
4.645030984990658
 21
17.390333152314156
 31
0.0
 40
0.5082320887132475
 41
-4.228506562042273
 42
-3.6527799140620822
  0
LINE
  5
206
330
17
100
AcDbEntity
  8
visible
100
AcDbLine
 10
22.853648084479488
 20
-3.8239145831697385
 30
0.0
 11
22.853648084479488
 21
25.953509321821635
 31
0.0
  0
LINE
  5
207
330
17
100
AcDbEntity
  8
visible
100
AcDbLine
 10
32.83825161653361
 20
48.446212434339834
 30
0.0
 11
37.99696344142825
 21
47.06829885100607
 31
0.0
  0
LINE
  5
208
330
17
100
AcDbEntity
  8
visible
100
AcDbLine
 10
22.85364808447949
 20
25.953509321821638
 30
0.0
 11
28.012359909374123
 21
24.575595738487866
 31
0.0
  0
LINE
  5
209
330
17
100
AcDbEntity
  8
visible
100
AcDbLine
 10
35.05705240143453
 20
49.77967719240478
 30
0.0
 11
40.21576422632917
 21
48.40176360907102
 31
0.0
  0
LINE
  5
20A
330
17
100
AcDbEntity
  8
visible
100
AcDbLine
 10
22.85364808447949
 20
-3.823914583169742
 30
0.0
 11
28.012359909374123
 21
-5.201828166503513
 31
0.0
  0
LINE
  5
20B
330
17
100
AcDbEntity
  8
visible
100
AcDbLine
 10
66.39761348815998
 20
33.198667840641136
 30
0.0
 11
66.39761348815998
 21
24.40287493332056
 31
0.0
  0
ELLIPSE
  5
20C
330
17
100
AcDbEntity
  8
visible
100
AcDbEllipse
 10
65.7319732526897
 20
33.37646314171647
 30
0.0
 11
-0.8
 21
-4.846926774517842e-17
 31
0.0
 40
0.40065629660227675
 41
-3.729595257137361
 42
-3.211878470790979
  0
LINE
  5
20D
330
17
100
AcDbEntity
  8
visible
100
AcDbLine
 10
45.097125953111174
 20
11.601613255896986
 30
0.0
 11
45.097125953111174
 21
20.397406163217717
 31
0.0
  0
ELLIPSE
  5
20E
330
17
100
AcDbEntity
  8
visible
100
AcDbEllipse
 10
54.637969328185115
 20
26.131304622896963
 30
0.0
 11
4.438585163435518
 21
16.617429456655746
 31
0.0
 40
0.5082320887132475
 41
-4.343702965898363
 42
-4.228506562042273
  0
ELLIPSE
  5
20F
330
17
100
AcDbEntity
  8
visible
100
AcDbEllipse
 10
56.856770113086036
 20
27.464769380961897
 30
0.0
 11
4.438585163435517
 21
16.617429456655746
 31
0.0
 40
0.5082320887132475
 41
-1.0869139084524797
 42
-0.9717175045963902
  0
ELLIPSE
  5
210
330
17
100
AcDbEntity
  8
visible
100
AcDbEllipse
 10
44.4314857176409
 20
20.575201464293045
 30
0.0
 11
0.8
 21
0.0
 31
0.0
 40
0.40065629660227675
 41
5.1774659172856365
 42
5.695182703632018
  0
ELLIPSE
  5
211
330
17
100
AcDbEntity
  8
visible
100
AcDbEllipse
 10
56.49621498553963
 20
19.268189865452584
 30
0.0
 11
-3.6128018772149537
 21
-13.52581467402212
 31
0.0
 40
0.5082320887132478
 41
3.141592653589793
 42
6.283185307179587
  0
ELLIPSE
  5
212
330
17
100
AcDbEntity
  8
visible
100
AcDbEllipse
 10
56.82903510327478
 20
19.179292214914923
 30
0.0
 11
-3.5095789664373838
 21
-13.139362826192917
 31
0.0
 40
0.5082320887132478
 41
0.48388241834241674
 42
6.767067725522003
  0
LINE
  5
213
330
17
100
AcDbEntity
  8
visible
100
AcDbLine
 10
-40.04935416746148
 20
12.977741368448495
 30
0.0
 11
-43.710375462548
 21
13.955615524362784
 31
0.0
  0
LINE
  5
214
330
17
100
AcDbEntity
  8
visible
100
AcDbLine
 10
-40.04935416746149
 20
12.977741368448491
 30
0.0
 11
-40.04935416746149
 21
42.755165273439864
 31
0.0
  0
LINE
  5
215
330
17
100
AcDbEntity
  8
visible
100
AcDbLine
 10
-43.710375462548
 20
13.955615524362784
 30
0.0
 11
-43.710375462548
 21
43.73303942935416
 31
0.0
  0
LINE
  5
216
330
17
100
AcDbEntity
  8
visible
100
AcDbLine
 10
-40.04935416746148
 20
42.75516527343988
 30
0.0
 11
-43.710375462548
 21
43.733039429354164
 31
0.0
  0
ELLIPSE
  5
217
330
17
100
AcDbEntity
  8
visible
100
AcDbEllipse
 10
-30.064750635407357
 20
18.97833277974071
 30
0.0
 11
4.645030984990658
 21
17.390333152314156
 31
0.0
 40
0.5082320887132475
 41
-4.228506562042273
 42
-3.9742355210031275
  0
ELLIPSE
  5
218
330
17
100
AcDbEntity
  8
visible
100
AcDbEllipse
 10
-33.72577193049388
 20
19.956206935655004
 30
0.0
 11
4.645030984990658
 21
17.390333152314156
 31
0.0
 40
0.5082320887132475
 41
-4.228506562042273
 42
-3.639475591825999
  0
ELLIPSE
  5
219
330
17
100
AcDbEntity
  8
visible
100
AcDbEllipse
 10
-39.6055940104813
 20
13.244434320061472
 30
0.0
 11
0.8
 21
1.2117316936294606e-16
 31
0.0
 40
0.400656296602277
 41
4.124386376837122
 42
5.695182703632018
  0
ELLIPSE
  5
21A
330
17
100
AcDbEntity
  8
visible
100
AcDbEllipse
 10
-39.6055940104813
 20
43.02185822505285
 30
0.0
 11
0.8
 21
0.0
 31
0.0
 40
0.40065629660227675
 41
4.124386376837122
 42
5.695182703632018
  0
ELLIPSE
  5
21B
330
17
100
AcDbEntity
  8
visible
100
AcDbEllipse
 10
-43.26661530556782
 20
14.222308475975765
 30
0.0
 11
-0.8
 21
-1.2117316936294606e-16
 31
0.0
 40
0.400656296602277
 41
-6.283185307179586
 42
-5.3003915839322575
  0
ELLIPSE
  5
21C
330
17
100
AcDbEntity
  8
visible
100
AcDbEllipse
 10
-43.26661530556782
 20
43.999732380967146
 30
0.0
 11
-0.8
 21
-0.0
 31
0.0
 40
0.40065629660227675
 41
-6.283185307179586
 42
-5.3003915839322575
  0
ELLIPSE
  5
21D
330
17
100
AcDbEntity
  8
visible
100
AcDbEllipse
 10
-30.064750635407357
 20
48.75575668473209
 30
0.0
 11
4.645030984990659
 21
17.390333152314156
 31
0.0
 40
0.5082320887132475
 41
-5.799302888837169
 42
-4.228506562042273
  0
ELLIPSE
  5
21E
330
17
100
AcDbEntity
  8
visible
100
AcDbEllipse
 10
-33.72577193049388
 20
49.733630840646384
 30
0.0
 11
4.645030984990659
 21
17.390333152314156
 31
0.0
 40
0.5082320887132475
 41
-5.799302888837169
 42
-4.228506562042273
  0
LINE
  5
21F
330
17
100
AcDbEntity
  8
visible
100
AcDbLine
 10
-30.064750635407357
 20
65.24786838595807
 30
0.0
 11
-33.72577193049387
 21
66.22574254187236
 31
0.0
  0
ELLIPSE
  5
220
330
17
100
AcDbEntity
  8
visible
100
AcDbEllipse
 10
-44.09866559990565
 20
7.304689873592864
 30
0.0
 11
4.2
 21
0.0
 31
0.0
 40
0.40065629660227675
 41
2.9749465839616707
 42
4.124386376837122
  0
LINE
  5
221
330
17
100
AcDbEntity
  8
visible
100
AcDbLine
 10
-46.428406424051616
 20
5.904551877624684
 30
0.0
 11
-43.10020524670024
 21
5.0155753722480565
 31
0.0
  0
ELLIPSE
  5
222
330
17
100
AcDbEntity
  8
visible
100
AcDbEllipse
 10
-40.77046442255428
 20
6.415713368216231
 30
0.0
 11
4.2
 21
1.2723182783109337e-16
 31
0.0
 40
0.4006562966022768
 41
4.124386376837122
 42
4.825069933771431
  0
ELLIPSE
  5
223
330
17
100
AcDbEntity
  8
visible
100
AcDbEllipse
 10
-43.10020524670024
 20
4.28259262997134
 30
0.0
 11
0.2064458215551404
 21
0.7729036956584069
 31
0.0
 40
0.5082320887132475
 41
-5.799302888837169
 42
-4.228506562042273
  0
ELLIPSE
  5
224
330
17
100
AcDbEntity
  8
visible
100
AcDbEllipse
 10
-40.77046442255428
 20
5.682730625939527
 30
0.0
 11
5.0
 21
1.5146646170368258e-16
 31
0.0
 40
0.4006562966022768
 41
4.124386376837122
 42
4.942780056381048
  0
ELLIPSE
  5
225
330
17
100
AcDbEntity
  8
visible
100
AcDbEllipse
 10
-30.064750635407357
 20
64.51488564368137
 30
0.0
 11
0.4120928423983837
 21
-0.6856963535297683
 31
0.0
 40
0.7623481330698713
 41
-5.379975506657335
 42
-3.809179179862438
  0
ELLIPSE
  5
226
330
17
100
AcDbEntity
  8
visible
100
AcDbEllipse
 10
-33.72577193049388
 20
65.49275979959566
 30
0.0
 11
-0.4120928423983837
 21
0.6856963535297683
 31
0.0
 40
0.7623481330698713
 41
5.615598780906941
 42
6.283185307179586
  0
LINE
  5
227
330
17
100
AcDbEntity
  8
visible
100
AcDbLine
 10
-30.064750635407357
 20
65.24786838595807
 30
0.0
 11
-27.84594985050644
 21
66.581333144023
 31
0.0
  0
LINE
  5
228
330
17
100
AcDbEntity
  8
visible
100
AcDbLine
 10
-33.72577193049388
 20
66.22574254187236
 30
0.0
 11
-31.50697114559296
 21
67.5592072999373
 31
0.0
  0
LINE
  5
229
330
17
100
AcDbEntity
  8
visible
100
AcDbLine
 10
-27.845949850506443
 20
66.581333144023
 30
0.0
 11
-31.506971145592956
 21
67.5592072999373
 31
0.0
  0
LINE
  5
22A
330
17
100
AcDbEntity
  8
visible
100
AcDbLine
 10
-43.543965403680424
 20
-1.8479622598553367
 30
0.0
 11
-43.543965403680424
 21
4.015899678358349
 31
0.0
  0
ELLIPSE
  5
22B
330
17
100
AcDbEntity
  8
visible
100
AcDbEllipse
 10
-40.77046442255428
 20
-0.1811313122741609
 30
0.0
 11
5.0
 21
1.5146646170368258e-16
 31
0.0
 40
0.4006562966022768
 41
4.124386376837122
 42
5.695182703632018
  0
ELLIPSE
  5
22C
330
17
100
AcDbEntity
  8
visible
100
AcDbEllipse
 10
-44.09866559990565
 20
6.5717071313161455
 30
0.0
 11
5.0
 21
0.0
 31
0.0
 40
0.40065629660227675
 41
3.141592653589793
 42
4.124386376837122
  0
ELLIPSE
  5
22D
330
17
100
AcDbEntity
  8
visible
100
AcDbEllipse
 10
-46.428406424051616
 20
5.171569135347966
 30
0.0
 11
0.2064458215551404
 21
0.7729036956584069
 31
0.0
 40
0.5082320887132475
 41
-5.799302888837169
 42
-4.228506562042273
  0
LINE
  5
22E
330
17
100
AcDbEntity
  8
visible
100
AcDbLine
 10
-46.8721665810318
 20
4.904876183734977
 30
0.0
 11
-43.543965403680424
 21
4.01589967835835
 31
0.0
  0
ELLIPSE
  5
22F
330
17
100
AcDbEntity
  8
visible
100
AcDbEllipse
 10
-27.845949850506443
 20
65.84835040174632
 30
0.0
 11
0.4120928423983837
 21
-0.6856963535297683
 31
0.0
 40
0.7623481330698713
 41
-5.379975506657335
 42
-3.809179179862438
  0
ELLIPSE
  5
230
330
17
100
AcDbEntity
  8
visible
100
AcDbEllipse
 10
-27.845949850506443
 20
50.08922144279704
 30
0.0
 11
4.645030984990658
 21
17.390333152314156
 31
0.0
 40
0.5082320887132475
 41
-6.283185307179586
 42
-5.799302888837169
  0
ELLIPSE
  5
231
330
17
100
AcDbEntity
  8
visible
100
AcDbEllipse
 10
-31.50697114559296
 20
66.8262245576606
 30
0.0
 11
-0.4120928423983837
 21
0.6856963535297683
 31
0.0
 40
0.7623481330698713
 41
5.615598780906941
 42
6.283185307179586
  0
ELLIPSE
  5
232
330
17
100
AcDbEntity
  8
visible
100
AcDbEllipse
 10
-31.50697114559296
 20
51.06709559871132
 30
0.0
 11
4.645030984990658
 21
17.390333152314156
 31
0.0
 40
0.5082320887132475
 41
-6.283185307179586
 42
-5.799302888837169
  0
LINE
  5
233
330
17
100
AcDbEntity
  8
visible
100
AcDbLine
 10
-46.8721665810318
 20
-0.9589857544787108
 30
0.0
 11
-43.543965403680424
 21
-1.8479622598553376
 31
0.0
  0
LINE
  5
234
330
17
100
AcDbEntity
  8
visible
100
AcDbLine
 10
-46.8721665810318
 20
-0.958985754478711
 30
0.0
 11
-46.8721665810318
 21
4.904876183734975
 31
0.0
  0
ELLIPSE
  5
235
330
17
100
AcDbEntity
  8
visible
100
AcDbEllipse
 10
-43.10020524670024
 20
-1.581269308242348
 30
0.0
 11
-0.2064458215551404
 21
-0.7729036956584069
 31
0.0
 40
0.5082320887132475
 41
5.196271398727107
 42
6.283185307179586
  0
ELLIPSE
  5
236
330
17
100
AcDbEntity
  8
visible
100
AcDbEllipse
 10
-44.09866559990565
 20
0.7078451931024645
 30
0.0
 11
5.0
 21
0.0
 31
0.0
 40
0.40065629660227675
 41
3.141592653589793
 42
4.124386376837122
  0
ELLIPSE
  5
237
330
17
100
AcDbEntity
  8
visible
100
AcDbEllipse
 10
-46.428406424051616
 20
-0.6922928028657225
 30
0.0
 11
-0.2064458215551404
 21
-0.7729036956584069
 31
0.0
 40
0.5082320887132475
 41
5.196271398727107
 42
6.283185307179586
  0
ELLIPSE
  5
238
330
17
100
AcDbEntity
  8
visible
100
AcDbEllipse
 10
-44.59789577650836
 20
44.3553229831178
 30
0.0
 11
0.8
 21
0.0
 31
0.0
 40
0.40065629660227675
 41
4.124386376837122
 42
5.4390977526615245
  0
ELLIPSE
  5
239
330
17
100
AcDbEntity
  8
visible
100
AcDbEllipse
 10
-35.05705240143442
 20
50.08922144279704
 30
0.0
 11
4.645030984990659
 21
17.390333152314156
 31
0.0
 40
0.5082320887132475
 41
-5.799302888837169
 42
-4.228506562042273
  0
ELLIPSE
  5
23A
330
17
100
AcDbEntity
  8
visible
100
AcDbEllipse
 10
-35.05705240143442
 20
65.84835040174632
 30
0.0
 11
0.4120928423983837
 21
-0.6856963535297683
 31
0.0
 40
0.7623481330698713
 41
-4.961406922570879
 42
-3.809179179862438
  0
LINE
  5
23B
330
17
100
AcDbEntity
  8
visible
100
AcDbLine
 10
-35.05705240143442
 20
66.58133314402302
 30
0.0
 11
-32.838251616533505
 21
67.91479790208795
 31
0.0
  0
ELLIPSE
  5
23C
330
17
100
AcDbEntity
  8
visible
100
AcDbEllipse
 10
-32.8382516165335
 20
67.18181515981125
 30
0.0
 11
0.4120928423983837
 21
-0.6856963535297683
 31
0.0
 40
0.7623481330698713
 41
-4.952885509405604
 42
-3.809179179862438
  0
ELLIPSE
  5
23D
330
17
100
AcDbEntity
  8
visible
100
AcDbEllipse
 10
-32.8382516165335
 20
51.422686200861975
 30
0.0
 11
4.645030984990658
 21
17.390333152314156
 31
0.0
 40
0.5082320887132475
 41
-6.283185307179586
 42
-5.799302888837169
  0
ELLIPSE
  5
23E
330
17
100
AcDbEntity
  8
visible
100
AcDbEllipse
 10
-44.59789577650836
 20
14.577899078126421
 30
0.0
 11
0.8
 21
1.2117316936294606e-16
 31
0.0
 40
0.400656296602277
 41
4.124386376837122
 42
5.438679159330402
  0
ELLIPSE
  5
23F
330
17
100
AcDbEntity
  8
visible
100
AcDbEllipse
 10
-35.05705240143442
 20
20.31179753780566
 30
0.0
 11
4.645030984990658
 21
17.390333152314156
 31
0.0
 40
0.5082320887132475
 41
-4.228506562042273
 42
-3.6527799140620822
  0
LINE
  5
240
330
17
100
AcDbEntity
  8
visible
100
AcDbLine
 10
-45.04165593348854
 20
14.311206126513426
 30
0.0
 11
-45.04165593348854
 21
44.0886300315048
 31
0.0
  0
LINE
  5
241
330
17
100
AcDbEntity
  8
visible
100
AcDbLine
 10
-35.05705240143442
 20
66.581333144023
 30
0.0
 11
-40.21576422632906
 21
67.95924672735678
 31
0.0
  0
LINE
  5
242
330
17
100
AcDbEntity
  8
visible
100
AcDbLine
 10
-45.04165593348854
 20
44.08863003150481
 30
0.0
 11
-50.20036775838318
 21
45.46654361483858
 31
0.0
  0
LINE
  5
243
330
17
100
AcDbEntity
  8
visible
100
AcDbLine
 10
-32.8382516165335
 20
67.91479790208795
 30
0.0
 11
-37.996963441428136
 21
69.29271148542173
 31
0.0
  0
LINE
  5
244
330
17
100
AcDbEntity
  8
visible
100
AcDbLine
 10
-45.04165593348854
 20
14.31120612651343
 30
0.0
 11
-50.20036775838318
 21
15.689119709847201
 31
0.0
  0
ELLIPSE
  5
245
330
17
100
AcDbEntity
  8
visible
100
AcDbEllipse
 10
-37.303588196146606
 20
4.854953480935677
 30
0.0
 11
-3.0
 21
-0.0
 31
0.0
 40
0.4006562966022768
 41
-6.283185307179586
 42
-5.3003915839322575
  0
ELLIPSE
  5
246
330
17
100
AcDbEntity
  8
visible
100
AcDbEllipse
 10
-37.303588196146606
 20
7.970130135611711
 30
0.0
 11
-3.0
 21
-0.0
 31
0.0
 40
0.4006562966022768
 41
-6.283185307179586
 42
-5.3003915839322575
  0
LINE
  5
247
330
17
100
AcDbEntity
  8
visible
100
AcDbLine
 10
-38.967688784822286
 20
3.8548549123869758
 30
0.0
 11
-38.967688784822286
 21
6.970031567062996
 31
0.0
  0
ELLIPSE
  5
248
330
17
100
AcDbEntity
  8
visible
100
AcDbEllipse
 10
-38.5239286278421
 20
4.121547863999957
 30
0.0
 11
-0.2064458215551404
 21
-0.7729036956584069
 31
0.0
 40
0.5082320887132475
 41
5.196271398727107
 42
6.283185307179586
  0
ELLIPSE
  5
249
330
17
100
AcDbEntity
  8
visible
100
AcDbEllipse
 10
-38.5239286278421
 20
7.236724518675999
 30
0.0
 11
0.2064458215551404
 21
0.7729036956584069
 31
0.0
 40
0.5082320887132475
 41
-5.799302888837169
 42
-4.228506562042273
  0
LINE
  5
24A
330
17
100
AcDbEntity
  8
visible
100
AcDbLine
 10
8.4591779924348
 20
-8.813060289229952
 30
0.0
 11
-38.967688784822286
 21
3.854854912386969
 31
0.0
  0
LINE
  5
24B
330
17
100
AcDbEntity
  8
visible
100
AcDbLine
 10
8.4591779924348
 20
-5.697883634553918
 30
0.0
 11
-38.967688784822286
 21
6.970031567063003
 31
0.0
  0
LINE
  5
24C
330
17
100
AcDbEntity
  8
visible
100
AcDbLine
 10
8.4591779924348
 20
-8.813060289229945
 30
0.0
 11
8.4591779924348
 21
-5.697883634553925
 31
0.0
  0
ELLIPSE
  5
24D
330
17
100
AcDbEntity
  8
visible
100
AcDbEllipse
 10
8.902938149414984
 20
-8.546367337616964
 30
0.0
 11
-0.2064458215551404
 21
-0.7729036956584069
 31
0.0
 40
0.5082320887132475
 41
5.196271398727106
 42
6.283185307179586
  0
ELLIPSE
  5
24E
330
17
100
AcDbEntity
  8
visible
100
AcDbEllipse
 10
8.902938149414984
 20
-5.4311906829409295
 30
0.0
 11
0.2064458215551404
 21
0.7729036956584069
 31
0.0
 40
0.5082320887132475
 41
-5.79930288883717
 42
-4.2285065620422735
  0
LINE
  5
24F
330
17
100
AcDbEntity
  8
visible
100
AcDbLine
 10
12.619429464124014
 20
-8.479694099713704
 30
0.0
 11
12.619429464124014
 21
-5.364517445037684
 31
0.0
  0
ELLIPSE
  5
250
330
17
100
AcDbEntity
  8
visible
100
AcDbEllipse
 10
10.123278581110487
 20
-7.812961720681244
 30
0.0
 11
-3.0
 21
-0.0
 31
0.0
 40
0.4006562966022768
 41
-5.3003915839322575
 42
-3.729595257137361
  0
ELLIPSE
  5
251
330
17
100
AcDbEntity
  8
visible
100
AcDbEllipse
 10
10.123278581110487
 20
-4.69778506600521
 30
0.0
 11
-3.0
 21
-0.0
 31
0.0
 40
0.4006562966022768
 41
-5.3003915839322575
 42
-3.729595257137361
  0
ELLIPSE
  5
252
330
17
100
AcDbEntity
  8
visible
100
AcDbEllipse
 10
11.95378922865374
 20
-8.30189879863839
 30
0.0
 11
0.4120928423983837
 21
-0.6856963535297683
 31
0.0
 40
0.7623481330698713
 41
-6.283185307179586
 42
-5.379975506657335
  0
LINE
  5
253
330
17
100
AcDbEntity
  8
visible
100
AcDbLine
 10
17.712116564246458
 20
-5.419068369779849
 30
0.0
 11
12.619429464124018
 21
-8.479694099713718
 31
0.0
  0
LINE
  5
254
330
17
100
AcDbEntity
  8
visible
100
AcDbLine
 10
17.505106475432612
 20
4.816011211082468
 30
0.0
 11
7.072427501871726
 21
-1.4538665706985512
 31
0.0
  0
ELLIPSE
  5
255
330
17
100
AcDbEntity
  8
visible
100
AcDbEllipse
 10
6.40678726640145
 20
-1.2760712696232304
 30
0.0
 11
0.4120928423983837
 21
-0.6856963535297683
 31
0.0
 40
0.7623481330698713
 41
-6.283185307179586
 42
-5.379975506657335
  0
ELLIPSE
  5
256
330
17
100
AcDbEntity
  8
visible
100
AcDbEllipse
 10
-31.035475978801507
 20
8.147079687369015
 30
0.0
 11
-0.2064458215551404
 21
-0.7729036956584069
 31
0.0
 40
0.5082320887132475
 41
5.196271398727107
 42
6.283185307179586
  0
ELLIPSE
  5
257
330
17
100
AcDbEntity
  8
visible
100
AcDbEllipse
 10
-30.369835743331237
 20
8.547119114788487
 30
0.0
 11
-2.0
 21
-0.0
 31
0.0
 40
0.40065629660227675
 41
-6.283185307179586
 42
-5.3003915839322575
  0
ELLIPSE
  5
258
330
17
100
AcDbEntity
  8
visible
100
AcDbEllipse
 10
11.95378922865374
 20
-5.186722143962356
 30
0.0
 11
-0.4120928423983837
 21
0.6856963535297683
 31
0.0
 40
0.7623481330698713
 41
4.044802454112045
 42
5.615598780906941
  0
LINE
  5
259
330
17
100
AcDbEntity
  8
visible
100
AcDbLine
 10
17.505882441082733
 20
-2.427835215133509
 30
0.0
 11
12.619429464124018
 21
-5.364517445037684
 31
0.0
  0
ELLIPSE
  5
25A
330
17
100
AcDbEntity
  8
visible
100
AcDbEllipse
 10
5.408326913196037
 20
-1.009378318010235
 30
0.0
 11
-2.0
 21
-0.0
 31
0.0
 40
0.40065629660227675
 41
-5.3003915839322575
 42
-3.729595257137361
  0
ELLIPSE
  5
25B
330
17
100
AcDbEntity
  8
visible
100
AcDbEllipse
 10
4.742686677725763
 20
-1.409417745429721
 30
0.0
 11
-0.2064458215551404
 21
-0.7729036956584069
 31
0.0
 40
0.5082320887132475
 41
5.196271398727106
 42
6.283185307179586
  0
LINE
  5
25C
330
17
100
AcDbEntity
  8
visible
100
AcDbLine
 10
4.298926520745578
 20
-1.6761106970427093
 30
0.0
 11
-31.4792361357817
 21
7.880386735756021
 31
0.0
  0
LINE
  5
25D
330
17
100
AcDbEntity
  8
visible
100
AcDbLine
 10
7.072427501871724
 20
-1.4538665706985445
 30
0.0
 11
7.072427501871724
 21
1.6613100839774764
 31
0.0
  0
LINE
  5
25E
330
17
100
AcDbEntity
  8
visible
100
AcDbLine
 10
8.421909054533202
 20
2.4723275058111387
 30
0.0
 11
7.072427501871726
 21
1.661310083977483
 31
0.0
  0
ELLIPSE
  5
25F
330
17
100
AcDbEntity
  8
visible
100
AcDbEllipse
 10
-30.369835743331237
 20
11.66229576946452
 30
0.0
 11
-2.0
 21
-0.0
 31
0.0
 40
0.40065629660227675
 41
-6.283185307179586
 42
-5.3003915839322575
  0
LINE
  5
260
330
17
100
AcDbEntity
  8
visible
100
AcDbLine
 10
-31.479236135781694
 20
7.880386735756026
 30
0.0
 11
-31.479236135781694
 21
10.995563390432046
 31
0.0
  0
ELLIPSE
  5
261
330
17
100
AcDbEntity
  8
visible
100
AcDbEllipse
 10
5.408326913196037
 20
2.1057983366657993
 30
0.0
 11
-2.0
 21
-0.0
 31
0.0
 40
0.40065629660227675
 41
-5.3003915839322575
 42
-3.729595257137361
  0
LINE
  5
262
330
17
100
AcDbEntity
  8
visible
100
AcDbLine
 10
4.298926520745578
 20
-1.6761106970427024
 30
0.0
 11
4.298926520745578
 21
1.4390659576333182
 31
0.0
  0
LINE
  5
263
330
17
100
AcDbEntity
  8
visible
100
AcDbLine
 10
4.298926520745578
 20
1.439065957633325
 30
0.0
 11
-31.4792361357817
 21
10.995563390432055
 31
0.0
  0
ELLIPSE
  5
264
330
17
100
AcDbEntity
  8
visible
100
AcDbEllipse
 10
6.40678726640145
 20
1.8391053850528039
 30
0.0
 11
-0.4120928423983837
 21
0.6856963535297683
 31
0.0
 40
0.7623481330698713
 41
4.044802454112045
 42
5.615598780906941
  0
ELLIPSE
  5
265
330
17
100
AcDbEntity
  8
visible
100
AcDbEllipse
 10
-31.035475978801507
 20
11.262256342045049
 30
0.0
 11
0.2064458215551404
 21
0.7729036956584069
 31
0.0
 40
0.5082320887132475
 41
-5.799302888837169
 42
-4.228506562042273
  0
ELLIPSE
  5
266
330
17
100
AcDbEntity
  8
visible
100
AcDbEllipse
 10
4.742686677725763
 20
1.7057589092463132
 30
0.0
 11
0.2064458215551404
 21
0.7729036956584069
 31
0.0
 40
0.5082320887132475
 41
-5.79930288883717
 42
-4.2285065620422735
  0
ELLIPSE
  5
267
330
17
100
AcDbEntity
  8
visible
100
AcDbEllipse
 10
-31.479236135781694
 20
16.838046665329344
 30
0.0
 11
4.0
 21
0.0
 31
0.0
 40
0.40065629660227675
 41
3.141592653589793
 42
4.124386376837122
  0
ELLIPSE
  5
268
330
17
100
AcDbEntity
  8
visible
100
AcDbEllipse
 10
-31.479236135781694
 20
47.07358478424365
 30
0.0
 11
4.0
 21
0.0
 31
0.0
 40
0.40065629660227675
 41
3.141592653589793
 42
4.124386376837122
  0
LINE
  5
269
330
17
100
AcDbEntity
  8
visible
100
AcDbLine
 10
-33.69803692068261
 20
15.504581907264386
 30
0.0
 11
-33.69803692068261
 21
45.74012002617871
 31
0.0
  0
ELLIPSE
  5
26A
330
17
100
AcDbEntity
  8
visible
100
AcDbEllipse
 10
-31.479236135781694
 20
47.07358478424365
 30
0.0
 11
-2.0604642119919183
 21
3.4284817676488415
 31
0.0
 40
0.7623481330698713
 41
5.615598780906941
 42
6.283185307179586
  0
LINE
  5
26B
330
17
100
AcDbEntity
  8
visible
100
AcDbLine
 10
-31.479236135781694
 20
50.738498495627205
 30
0.0
 11
-7.627127698096842
 21
65.0732446448253
 31
0.0
  0
ELLIPSE
  5
26C
330
17
100
AcDbEntity
  8
visible
100
AcDbEllipse
 10
-7.627127698096839
 20
61.40833093344173
 30
0.0
 11
2.0604642119919183
 21
-3.4284817676488415
 31
0.0
 40
0.7623481330698713
 41
-3.809179179862438
 42
-3.141592653589793
  0
ELLIPSE
  5
26D
330
17
100
AcDbEntity
  8
visible
100
AcDbEllipse
 10
-31.479236135781694
 20
16.838046665329344
 30
0.0
 11
1.032229107775702
 21
3.8645184782920343
 31
0.0
 40
0.5082320887132475
 41
-4.228506562042273
 42
-3.1415926535897922
  0
ELLIPSE
  5
26E
330
17
100
AcDbEntity
  8
visible
100
AcDbEllipse
 10
-31.479236135781694
 20
47.07358478424365
 30
0.0
 11
-1.032229107775702
 21
-3.8645184782920343
 31
0.0
 40
0.5082320887132475
 41
3.62547507193221
 42
5.196271398727107
  0
LINE
  5
26F
330
17
100
AcDbEntity
  8
visible
100
AcDbLine
 10
-33.69803692068261
 20
15.504581907264402
 30
0.0
 11
5.408326913196035
 21
5.059107969089046
 31
0.0
  0
LINE
  5
270
330
17
100
AcDbEntity
  8
visible
100
AcDbLine
 10
-33.69803692068261
 20
45.74012002617871
 30
0.0
 11
5.408326913196035
 21
35.294646088003354
 31
0.0
  0
LINE
  5
271
330
17
100
AcDbEntity
  8
visible
100
AcDbLine
 10
5.408326913196037
 20
5.059107969089032
 30
0.0
 11
5.408326913196037
 21
35.294646088003354
 31
0.0
  0
LINE
  5
272
330
17
100
AcDbEntity
  8
visible
100
AcDbLine
 10
-31.47923613578169
 20
50.738498495627205
 30
0.0
 11
7.627127698096956
 21
40.29302455745185
 31
0.0
  0
LINE
  5
273
330
17
100
AcDbEntity
  8
visible
100
AcDbLine
 10
-7.627127698096839
 20
65.0732446448253
 30
0.0
 11
31.479236135781807
 21
54.62777070664995
 31
0.0
  0
LINE
  5
274
330
17
100
AcDbEntity
  8
visible
100
AcDbLine
 10
7.627127698096953
 20
40.29302455745185
 30
0.0
 11
31.479236135781804
 21
54.62777070664994
 31
0.0
  0
ELLIPSE
  5
275
330
17
100
AcDbEntity
  8
visible
100
AcDbEllipse
 10
-7.627127698096839
 20
61.40833093344173
 30
0.0
 11
-1.0322291077757018
 21
-3.8645184782920343
 31
0.0
 40
0.5082320887132477
 41
3.1415926535897936
 42
3.6254750719322097
  0
ELLIPSE
  5
276
330
17
100
AcDbEntity
  8
visible
100
AcDbEllipse
 10
7.6271276980969525
 20
6.392572727153976
 30
0.0
 11
1.032229107775702
 21
3.8645184782920343
 31
0.0
 40
0.5082320887132475
 41
-4.2285065620422735
 42
-3.1415926535897936
  0
ELLIPSE
  5
277
330
17
100
AcDbEntity
  8
visible
100
AcDbEllipse
 10
7.6271276980969525
 20
36.628110846068296
 30
0.0
 11
-1.032229107775702
 21
-3.8645184782920343
 31
0.0
 40
0.5082320887132475
 41
3.6254750719322097
 42
5.196271398727106
  0
LINE
  5
278
330
17
100
AcDbEntity
  8
visible
100
AcDbLine
 10
10.955328875448327
 20
5.503596221777348
 30
0.0
 11
10.955328875448327
 21
35.73913434069167
 31
0.0
  0
ELLIPSE
  5
279
330
17
100
AcDbEntity
  8
visible
100
AcDbEllipse
 10
7.6271276980969525
 20
6.392572727153976
 30
0.0
 11
-4.0
 21
-0.0
 31
0.0
 40
0.40065629660227675
 41
-5.3003915839322575
 42
-3.729595257137361
  0
ELLIPSE
  5
27A
330
17
100
AcDbEntity
  8
visible
100
AcDbEllipse
 10
7.6271276980969525
 20
36.628110846068296
 30
0.0
 11
-4.0
 21
-0.0
 31
0.0
 40
0.40065629660227675
 41
-5.3003915839322575
 42
-3.729595257137361
  0
ELLIPSE
  5
27B
330
17
100
AcDbEntity
  8
visible
100
AcDbEllipse
 10
7.6271276980969525
 20
6.392572727153976
 30
0.0
 11
-2.0604642119919183
 21
3.4284817676488415
 31
0.0
 40
0.7623481330698713
 41
3.141592653589793
 42
4.044802454112045
  0
LINE
  5
27C
330
17
100
AcDbEntity
  8
visible
100
AcDbLine
 10
10.955328875448327
 20
5.503596221777355
 30
0.0
 11
17.505106475432612
 21
9.43991067694473
 31
0.0
  0
ELLIPSE
  5
27D
330
17
100
AcDbEntity
  8
visible
100
AcDbEllipse
 10
31.479236135781807
 20
50.96285699526638
 30
0.0
 11
-1.032229107775702
 21
-3.8645184782920343
 31
0.0
 40
0.5082320887132475
 41
3.141592653589793
 42
3.62547507193221
  0
ELLIPSE
  5
27E
330
17
100
AcDbEntity
  8
visible
100
AcDbEllipse
 10
7.6271276980969525
 20
36.628110846068296
 30
0.0
 11
2.0604642119919183
 21
-3.4284817676488415
 31
0.0
 40
0.7623481330698713
 41
-5.379975506657335
 42
-3.809179179862438
  0
LINE
  5
27F
330
17
100
AcDbEntity
  8
visible
100
AcDbLine
 10
10.955328875448327
 20
35.73913434069167
 30
0.0
 11
20.816511005312982
 21
41.665551409099855
 31
0.0
  0
ELLIPSE
  5
280
330
17
100
AcDbEntity
  8
visible
100
AcDbEllipse
 10
31.479236135781807
 20
50.96285699526638
 30
0.0
 11
-2.0604642119919183
 21
3.4284817676488415
 31
0.0
 40
0.7623481330698713
 41
4.588612477724532
 42
5.615598780906941
  0
LINE
  5
281
330
17
100
AcDbEntity
  8
visible
100
AcDbLine
 10
-59.704216875369646
 20
-58.669865120830075
 30
0.0
 11
-59.704216875369646
 21
-30.999766599884243
 31
0.0
  0
SPLINE
  5
282
330
17
100
AcDbEntity
  8
visible
100
AcDbSpline
 70
0
 71
3
 72
17
 73
13
 74
0
 40
0.0
 40
0.0
 40
0.0
 40
0.0
 40
0.3509659962356068
 40
0.3509659962356068
 40
0.3509659962356068
 40
0.5734535955476445
 40
0.5734535955476445
 40
0.5734535955476445
 40
0.6490340037643932
 40
0.6490340037643932
 40
0.6490340037643932
 40
1.0
 40
1.0
 40
1.0
 40
1.0
 10
-54.12330489464735
 20
-63.17647013907031
 30
0.0
 10
-55.45482660018985
 20
-62.8207053261968
 30
0.0
 10
-56.612826249087135
 20
-62.353769474438025
 30
0.0
 10
-57.522991769567696
 20
-61.791203365335974
 30
0.0
 10
-58.10311538851477
 20
-61.435162346076744
 30
0.0
 10
-58.577777127058006
 20
-61.03726377226342
 30
0.0
 10
-58.94697698519768
 20
-60.597507643896066
 30
0.0
 10
-59.07155601771917
 20
-60.44775595233205
 30
0.0
 10
-59.18211549193955
 20
-60.29275676434513
 30
0.0
 10
-59.27865540785873
 20
-60.132510079935265
 30
0.0
 10
-59.551935772467324
 20
-59.6798758513124
 30
0.0
 10
-59.70509121969507
 20
-59.178045236851304
 30
0.0
 10
-59.70421687536965
 20
-58.66986512083008
 30
0.0
  0
LINE
  5
283
330
17
100
AcDbEntity
  8
visible
100
AcDbLine
 10
59.70421687536976
 20
-56.225179731044356
 30
0.0
 11
59.70421687536976
 21
-28.555081210098525
 31
0.0
  0
LINE
  5
284
330
17
100
AcDbEntity
  8
visible
100
AcDbLine
 10
9.11251747502876
 20
-80.06702374122621
 30
0.0
 11
-54.123304894647355
 21
-63.17647013907032
 31
0.0
  0
SPLINE
  5
285
330
17
100
AcDbEntity
  8
visible
100
AcDbSpline
 70
0
 71
1
 72
4
 73
2
 74
0
 40
0.0
 40
0.0
 40
1.0
 40
1.0
 10
-29.53103356846548
 20
-47.0841410321603
 30
0.0
 10
-29.86385368620062
 20
-47.28416074587004
 30
0.0
  0
SPLINE
  5
286
330
17
100
AcDbEntity
  8
visible
100
AcDbSpline
 70
0
 71
1
 72
4
 73
2
 74
0
 40
0.0
 40
0.0
 40
1.0
 40
1.0
 10
-27.597282694570744
 20
-50.80367849791537
 30
0.0
 10
-27.744000502631117
 20
-50.891853618349984
 30
0.0
  0
SPLINE
  5
287
330
17
100
AcDbEntity
  8
visible
100
AcDbSpline
 70
0
 71
3
 72
11
 73
7
 74
0
 40
0.0
 40
0.0
 40
0.0
 40
0.0
 40
0.5
 40
0.5
 40
0.5
 40
1.0
 40
1.0
 40
1.0
 40
1.0
 10
59.70421687536977
 20
-56.225179731044356
 30
0.0
 10
59.70506451263701
 20
-56.72741758183109
 30
0.0
 10
59.55549772774266
 20
-57.223623354958825
 30
0.0
 10
59.28810565873006
 20
-57.67200452236288
 30
0.0
 10
58.89323861964395
 20
-58.334670799682776
 30
0.0
 10
58.25697960175166
 20
-58.90525406266978
 30
0.0
 10
57.43527301435199
 20
-59.400010299628676
 30
0.0
  0
LINE
  5
288
330
17
100
AcDbEntity
  8
visible
100
AcDbLine
 10
57.43527301435199
 20
-59.400010299628676
 30
0.0
 11
25.2626616332887
 21
-78.73524929157028
 31
0.0
  0
SPLINE
  5
289
330
17
100
AcDbEntity
  8
visible
100
AcDbSpline
 70
0
 71
3
 72
14
 73
10
 74
0
 40
0.0
 40
0.0
 40
0.0
 40
0.0
 40
0.4070583155284498
 40
0.4070583155284498
 40
0.4070583155284498
 40
0.6263627316194634
 40
0.6263627316194634
 40
0.6263627316194634
 40
1.0
 40
1.0
 40
1.0
 40
1.0
 10
25.2626616332887
 20
-78.73524929157031
 30
0.0
 10
23.82436052730769
 20
-79.60110738394494
 30
0.0
 10
21.772647480995673
 20
-80.23793027282794
 30
0.0
 10
19.442400142896194
 20
-80.57389337550791
 30
0.0
 10
18.189495178776834
 20
-80.75493988992307
 30
0.0
 10
16.8620400775392
 20
-80.84782208068215
 30
0.0
 10
15.534063077164795
 20
-80.84777036573273
 30
0.0
 10
13.270361225629122
 20
-80.84922631571818
 30
0.0
 10
11.013335114013444
 20
-80.57632305379346
 30
0.0
 10
9.112517475028763
 20
-80.06702374122622
 30
0.0
  0
LINE
  5
28A
330
17
100
AcDbEntity
  8
visible
100
AcDbLine
 10
-37.934565011229964
 20
-58.10006749952467
 30
0.0
 11
-37.934565011229964
 21
-56.79596903722402
 31
0.0
  0
SPLINE
  5
28B
330
17
100
AcDbEntity
  8
visible
100
AcDbSpline
 70
0
 71
2
 72
6
 73
3
 74
0
 40
0.0
 40
0.0
 40
0.0
 40
0.2463027735834164
 40
0.2463027735834164
 40
0.2463027735834164
 10
-59.70421687536964
 20
-25.319150347239734
 30
0.0
 10
-59.703722322462596
 20
-24.947075779280464
 30
0.0
 10
-59.59994745189851
 20
-24.586166097868393
 30
0.0
  0
SPLINE
  5
28C
330
17
100
AcDbEntity
  8
visible
100
AcDbSpline
 70
0
 71
2
 72
6
 73
3
 74
0
 40
0.0
 40
0.0
 40
0.0
 40
1.0
 40
1.0
 40
1.0
 10
59.59994745189862
 20
-22.141483722271957
 30
0.0
 10
59.703723108476524
 20
-22.502392107575325
 30
0.0
 10
59.70421687536975
 20
-22.874464957454016
 30
0.0
  0
LINE
  5
28D
330
17
100
AcDbEntity
  8
visible
100
AcDbLine
 10
59.70421687536976
 20
-27.45560709668346
 30
0.0
 11
59.70421687536976
 21
-22.874464957454016
 31
0.0
  0
LINE
  5
28E
330
17
100
AcDbEntity
  8
visible
100
AcDbLine
 10
-59.704216875369646
 20
-29.900292486469176
 30
0.0
 11
-59.704216875369646
 21
-25.319150347239734
 31
0.0
  0
LINE
  5
28F
330
17
100
AcDbEntity
  8
visible
100
AcDbLine
 10
-59.704216875369646
 20
-23.853184862686316
 30
0.0
 11
-59.704216875369646
 21
-21.65423663585618
 31
0.0
  0
LINE
  5
290
330
17
100
AcDbEntity
  8
visible
100
AcDbLine
 10
-57.43527301435188
 20
-18.479406067271853
 30
0.0
 11
-45.999999999999936
 21
-11.60698486242255
 31
0.0
  0
SPLINE
  5
291
330
17
100
AcDbEntity
  8
visible
100
AcDbSpline
 70
0
 71
3
 72
17
 73
13
 74
0
 40
0.0
 40
0.0
 40
0.0
 40
0.0
 40
0.35096599623560637
 40
0.35096599623560637
 40
0.35096599623560637
 40
0.573453595547645
 40
0.573453595547645
 40
0.573453595547645
 40
0.6490340037643935
 40
0.6490340037643935
 40
0.6490340037643935
 40
1.0
 40
1.0
 40
1.0
 40
1.0
 10
-54.12330489464735
 20
-28.35978988092655
 30
0.0
 10
-55.45482660018988
 20
-28.004025068053057
 30
0.0
 10
-56.61282624908715
 20
-27.537089216294262
 30
0.0
 10
-57.5229917695677
 20
-26.974523107192216
 30
0.0
 10
-58.103115388514745
 20
-26.61848208793298
 30
0.0
 10
-58.577777127058035
 20
-26.22058351411969
 30
0.0
 10
-58.946976985197686
 20
-25.780827385752318
 30
0.0
 10
-59.071556017719175
 20
-25.631075694188322
 30
0.0
 10
-59.18211549193953
 20
-25.476076506201366
 30
0.0
 10
-59.278655407858736
 20
-25.315829821791503
 30
0.0
 10
-59.551935772467296
 20
-24.86319559316866
 30
0.0
 10
-59.70509121969506
 20
-24.361364978707524
 30
0.0
 10
-59.70421687536965
 20
-23.85318486268632
 30
0.0
  0
SPLINE
  5
292
330
17
100
AcDbEntity
  8
visible
100
AcDbSpline
 70
0
 71
3
 72
11
 73
7
 74
0
 40
0.0
 40
0.0
 40
0.0
 40
0.0
 40
0.5
 40
0.5
 40
0.5
 40
1.0
 40
1.0
 40
1.0
 40
1.0
 10
-59.70421687536965
 20
-21.65423663585618
 30
0.0
 10
-59.705064512636866
 20
-21.151998785069434
 30
0.0
 10
-59.55549772774256
 20
-20.6557930119417
 30
0.0
 10
-59.28810565872995
 20
-20.20741184453766
 30
0.0
 10
-58.89323861964381
 20
-19.544745567217767
 30
0.0
 10
-58.25697960175156
 20
-18.974162304230752
 30
0.0
 10
-57.43527301435188
 20
-18.47940606727186
 30
0.0
  0
LINE
  5
293
330
17
100
AcDbEntity
  8
visible
100
AcDbLine
 10
9.11251747502876
 20
-45.25034348308245
 30
0.0
 11
-54.123304894647355
 21
-28.35978988092656
 31
0.0
  0
SPLINE
  5
294
330
17
100
AcDbEntity
  8
visible
100
AcDbSpline
 70
0
 71
3
 72
14
 73
10
 74
0
 40
0.0
 40
0.0
 40
0.0
 40
0.0
 40
0.40705831552842797
 40
0.40705831552842797
 40
0.40705831552842797
 40
0.6263627316194518
 40
0.6263627316194518
 40
0.6263627316194518
 40
1.0
 40
1.0
 40
1.0
 40
1.0
 10
25.2626616332887
 20
-43.91856903342652
 30
0.0
 10
23.824360527307807
 20
-44.78442712580113
 30
0.0
 10
21.7726474809958
 20
-45.42125001468409
 30
0.0
 10
19.4424001428962
 20
-45.757213117364174
 30
0.0
 10
18.18949517877683
 20
-45.938259631779296
 30
0.0
 10
16.86204007753921
 20
-46.03114182253846
 30
0.0
 10
15.534063077164792
 20
-46.03109010758895
 30
0.0
 10
13.270361225629165
 20
-46.032546057574486
 30
0.0
 10
11.013335114013467
 20
-45.75964279564969
 30
0.0
 10
9.112517475028763
 20
-45.250343483082446
 30
0.0
  0
SPLINE
  5
295
330
17
100
AcDbEntity
  8
visible
100
AcDbSpline
 70
0
 71
3
 72
11
 73
7
 74
0
 40
0.0
 40
0.0
 40
0.0
 40
0.0
 40
0.5
 40
0.5
 40
0.5
 40
1.0
 40
1.0
 40
1.0
 40
1.0
 10
59.70421687536977
 20
-21.4084994729006
 30
0.0
 10
59.70506451263701
 20
-21.91073732368732
 30
0.0
 10
59.55549772774266
 20
-22.40694309681508
 30
0.0
 10
59.28810565873006
 20
-22.85532426421912
 30
0.0
 10
58.89323861964392
 20
-23.517990541539028
 30
0.0
 10
58.25697960175166
 20
-24.08857380452601
 30
0.0
 10
57.43527301435199
 20
-24.583330041484913
 30
0.0
  0
LINE
  5
296
330
17
100
AcDbEntity
  8
visible
100
AcDbLine
 10
57.43527301435199
 20
-24.58333004148492
 30
0.0
 11
25.2626616332887
 21
-43.918569033426536
 31
0.0
  0
LINE
  5
297
330
17
100
AcDbEntity
  8
visible
100
AcDbLine
 10
46.00000000000005
 20
-12.533177390989833
 30
0.0
 11
54.12330489464747
 21
-14.702946227830221
 31
0.0
  0
SPLINE
  5
298
330
17
100
AcDbEntity
  8
visible
100
AcDbSpline
 70
0
 71
3
 72
17
 73
13
 74
0
 40
0.0
 40
0.0
 40
0.0
 40
0.0
 40
0.3509659962356089
 40
0.3509659962356089
 40
0.3509659962356089
 40
0.5734535955476474
 40
0.5734535955476474
 40
0.5734535955476474
 40
0.6490340037643911
 40
0.6490340037643911
 40
0.6490340037643911
 40
1.0
 40
1.0
 40
1.0
 40
1.0
 10
54.12330489464746
 20
-14.702946227830232
 30
0.0
 10
55.45482660018996
 20
-15.058711040703713
 30
0.0
 10
56.61282624908726
 20
-15.525646892462518
 30
0.0
 10
57.522991769567824
 20
-16.08821300156457
 30
0.0
 10
58.1031153885148
 20
-16.444254020823788
 30
0.0
 10
58.57777712705817
 20
-16.842152594637085
 30
0.0
 10
58.94697698519778
 20
-17.281908723004463
 30
0.0
 10
59.07155601771927
 20
-17.43166041456845
 30
0.0
 10
59.18211549193966
 20
-17.58665960255541
 30
0.0
 10
59.27865540785884
 20
-17.746906286965284
 30
0.0
 10
59.551935772467516
 20
-18.19954051558813
 30
0.0
 10
59.70509121969511
 20
-18.701371130049257
 30
0.0
 10
59.70421687536977
 20
-19.20955124607046
 30
0.0
  0
LINE
  5
299
330
17
100
AcDbEntity
  8
visible
100
AcDbLine
 10
59.70421687536976
 20
-21.408499472900598
 30
0.0
 11
59.70421687536976
 21
-19.20955124607046
 31
0.0
  0
SPLINE
  5
29A
330
17
100
AcDbEntity
  8
visible
100
AcDbSpline
 70
0
 71
3
 72
11
 73
7
 74
0
 40
0.0
 40
0.0
 40
0.0
 40
0.0
 40
0.5
 40
0.5
 40
0.5
 40
1.0
 40
1.0
 40
1.0
 40
1.0
 10
49.09866559990577
 20
-8.495786829792543
 30
0.0
 10
49.1001447918223
 20
-8.883836152057086
 30
0.0
 10
48.94046816627997
 20
-9.258267140596502
 30
0.0
 10
48.68329755923946
 20
-9.557195610397606
 30
0.0
 10
48.49936547196731
 20
-9.769953904878669
 30
0.0
 10
48.27338951172851
 20
-9.955858206068722
 30
0.0
 10
48.005369678523095
 20
-10.114908513967762
 30
0.0
  0
LINE
  5
29B
330
17
100
AcDbEntity
  8
visible
100
AcDbLine
 10
48.005369678523095
 20
-10.11490851396777
 30
0.0
 11
31.36436379176622
 21
-20.115894199454814
 31
0.0
  0
SPLINE
  5
29C
330
17
100
AcDbEntity
  8
visible
100
AcDbSpline
 70
0
 71
3
 72
14
 73
10
 74
0
 40
0.0
 40
0.0
 40
0.0
 40
0.0
 40
0.27913115423792473
 40
0.27913115423792473
 40
0.27913115423792473
 40
0.6395655771189623
 40
0.6395655771189623
 40
0.6395655771189623
 40
1.0
 40
1.0
 40
1.0
 40
1.0
 10
21.325653631039145
 20
-19.703818812474474
 30
0.0
 10
21.025003894609082
 20
-19.61104473824064
 30
0.0
 10
20.749314490951136
 20
-19.502377958332282
 30
0.0
 10
20.498585420065282
 20
-19.377818472749297
 30
0.0
 10
20.116192793811354
 20
-19.18671419774068
 30
0.0
 10
19.795025065949552
 20
-18.95887250218064
 30
0.0
 10
19.553201400035512
 20
-18.67898644667403
 30
0.0
 10
19.291161818671156
 20
-18.37821542792744
 30
0.0
 10
19.127946273707582
 20
-18.000141172309924
 30
0.0
 10
19.129458535797514
 20
-17.607796009902955
 30
0.0
  0
SPLINE
  5
29D
330
17
100
AcDbEntity
  8
visible
100
AcDbSpline
 70
0
 71
3
 72
11
 73
7
 74
0
 40
0.0
 40
0.0
 40
0.0
 40
0.0
 40
0.4497652376539705
 40
0.4497652376539705
 40
0.4497652376539705
 40
1.0
 40
1.0
 40
1.0
 40
1.0
 10
31.364363791766223
 20
-20.115894199454807
 30
0.0
 10
30.69460523820902
 20
-20.51810481747809
 30
0.0
 10
29.76439968676754
 20
-20.785191851540947
 30
0.0
 10
28.722951930784834
 20
-20.90722727923955
 30
0.0
 10
27.451529446533723
 20
-21.057236184246197
 30
0.0
 10
26.042492840322396
 20
-20.971604482957275
 30
0.0
 10
24.921473067447785
 20
-20.669814206906175
 30
0.0
  0
LINE
  5
29E
330
17
100
AcDbEntity
  8
visible
100
AcDbLine
 10
24.92147306744779
 20
-20.669814206906175
 30
0.0
 11
23.028494997102598
 21
-20.164191818096956
 31
0.0
  0
LINE
  5
29F
330
17
100
AcDbEntity
  8
visible
100
AcDbLine
 10
49.09866559990577
 20
-8.495786829792547
 30
0.0
 11
49.09866559990577
 21
-2.631924891578861
 31
0.0
  0
LINE
  5
2A0
330
17
100
AcDbEntity
  8
visible
100
AcDbLine
 10
19.129458535797518
 20
-17.607796009902966
 30
0.0
 11
19.129458535797518
 21
-11.743934071689281
 31
0.0
  0
SPLINE
  5
2A1
330
17
100
AcDbEntity
  8
visible
100
AcDbSpline
 70
0
 71
3
 72
8
 73
4
 74
0
 40
0.0
 40
0.0
 40
0.0
 40
0.0
 40
1.0
 40
1.0
 40
1.0
 40
1.0
 10
48.6713957854668
 20
-1.5566513363238261
 30
0.0
 10
48.93495906653997
 20
-1.8574456603569476
 30
0.0
 10
49.10039251625783
 20
-2.2378576675608612
 30
0.0
 10
49.09866559990578
 20
-2.6319248915788624
 30
0.0
  0
SPLINE
  5
2A2
330
17
100
AcDbEntity
  8
visible
100
AcDbSpline
 70
0
 71
3
 72
11
 73
7
 74
0
 40
0.0
 40
0.0
 40
0.0
 40
0.0
 40
0.565197995356238
 40
0.565197995356238
 40
0.565197995356238
 40
1.0
 40
1.0
 40
1.0
 40
1.0
 10
29.652657793009084
 20
51.06585556172277
 30
0.0
 10
30.60600986215449
 20
51.63901785056253
 30
0.0
 10
31.57999047121192
 20
52.006279059890026
 30
0.0
 10
32.542508931819754
 20
52.137036662357886
 30
0.0
 10
33.282417434284206
 20
52.23801054875686
 30
0.0
 10
34.014855670616825
 20
52.1973510082401
 30
0.0
 10
34.70978162039814
 20
52.01136340155789
 30
0.0
  0
LINE
  5
2A3
330
17
100
AcDbEntity
  8
visible
100
AcDbLine
 10
27.43385700810817
 20
49.732390803657836
 30
0.0
 11
29.652657793009087
 21
51.06585556172278
 31
0.0
  0
SPLINE
  5
2A4
330
17
100
AcDbEntity
  8
visible
100
AcDbSpline
 70
0
 71
3
 72
17
 73
13
 74
0
 40
0.0
 40
0.0
 40
0.0
 40
0.0
 40
0.30430936628776456
 40
0.30430936628776456
 40
0.30430936628776456
 40
0.4824699095601774
 40
0.4824699095601774
 40
0.4824699095601774
 40
0.6621159498590654
 40
0.6621159498590654
 40
0.6621159498590654
 40
1.0
 40
1.0
 40
1.0
 40
1.0
 10
17.505106475432612
 20
27.55366703149957
 30
0.0
 10
17.503766473039367
 20
30.14377652392114
 30
0.0
 10
17.885209953263555
 20
32.94905981039365
 30
0.0
 10
18.606369908804467
 20
35.67022800717667
 30
0.0
 10
19.027661874787878
 20
37.263240124886686
 30
0.0
 10
19.56356173321852
 20
38.82649929671653
 30
0.0
 10
20.194147286012736
 20
40.30116942551243
 30
0.0
 10
20.82977816270851
 20
41.78840208392997
 30
0.0
 10
21.561443433688193
 20
43.18515697936393
 30
0.0
 10
22.36273455751374
 20
44.43887921507565
 30
0.0
 10
23.870266852764246
 20
46.799728499762686
 30
0.0
 10
25.62030148758711
 20
48.64405558034702
 30
0.0
 10
27.43385700810817
 20
49.732390803657836
 30
0.0
  0
LINE
  5
2A5
330
17
100
AcDbEntity
  8
visible
100
AcDbLine
 10
17.505106475432612
 20
-2.2237568734918156
 30
0.0
 11
17.505106475432612
 21
27.553667031499558
 31
0.0
  0
SPLINE
  5
2A6
330
17
100
AcDbEntity
  8
visible
100
AcDbSpline
 70
0
 71
3
 72
8
 73
4
 74
0
 40
0.0
 40
0.0
 40
0.0
 40
0.0
 40
1.0
 40
1.0
 40
1.0
 40
1.0
 10
19.44508364100312
 20
-10.809663775236574
 30
0.0
 10
18.168660096973873
 20
-8.685139331512255
 30
0.0
 10
17.503287353554636
 20
-5.652647551067062
 30
0.0
 10
17.505106475432612
 20
-2.2237568734918156
 30
0.0
  0
SPLINE
  5
2A7
330
17
100
AcDbEntity
  8
visible
100
AcDbSpline
 70
0
 71
3
 72
8
 73
4
 74
0
 40
0.0
 40
0.0
 40
0.0
 40
0.0
 40
1.0
 40
1.0
 40
1.0
 40
1.0
 10
19.445719287027707
 20
-10.80878185500601
 30
0.0
 10
19.24691316833584
 20
-11.082093078243616
 30
0.0
 10
19.128416905725125
 20
-11.409449622112065
 30
0.0
 10
19.129458535797518
 20
-11.743934071689274
 30
0.0
  0
LINE
  5
2A8
330
17
100
AcDbEntity
  8
visible
100
AcDbLine
 10
38.370802915484646
 20
51.03348924564358
 30
0.0
 11
34.709781620398125
 21
52.011363401557865
 31
0.0
  0
SPLINE
  5
2A9
330
17
100
AcDbEntity
  8
visible
100
AcDbSpline
 70
0
 71
2
 72
6
 73
3
 74
0
 40
0.0
 40
0.0
 40
0.0
 40
0.0624616696000473
 40
0.0624616696000473
 40
0.0624616696000473
 10
38.370802915484646
 20
51.033489245643594
 30
0.0
 10
38.70438017576253
 20
50.94438076443595
 30
0.0
 10
39.02473386960574
 20
50.81188504784808
 30
0.0
  0
LINE
  5
2AA
330
17
100
AcDbEntity
  8
visible
100
AcDbLine
 10
46.00000000000005
 20
-18.232945714133198
 30
0.0
 11
46.00000000000005
 21
-11.320104497041083
 31
0.0
  0
LINE
  5
2AB
330
17
100
AcDbEntity
  8
visible
100
AcDbLine
 10
-45.999999999999936
 20
-18.232945714133198
 30
0.0
 11
-45.999999999999936
 21
-5.314124881506163
 31
0.0
  0
SPLINE
  5
2AC
330
17
100
AcDbEntity
  8
visible
100
AcDbSpline
 70
0
 71
3
 72
8
 73
4
 74
0
 40
0.0
 40
0.0
 40
0.0
 40
0.0
 40
1.0
 40
1.0
 40
1.0
 40
1.0
 10
-45.241226558256066
 20
-1.837439769686605
 30
0.0
 10
-45.742076878072886
 20
-2.9707258221844324
 30
0.0
 10
-46.00049047894567
 20
-4.141357765039812
 30
0.0
 10
-45.99999999999994
 20
-5.31412488150616
 30
0.0
  0
SPLINE
  5
2AD
330
17
100
AcDbEntity
  8
visible
100
AcDbSpline
 70
0
 71
3
 72
11
 73
7
 74
0
 40
0.0
 40
0.0
 40
0.0
 40
0.0
 40
0.5
 40
0.5
 40
0.5
 40
1.0
 40
1.0
 40
1.0
 40
1.0
 10
38.02076614646897
 20
-28.96407657841884
 30
0.0
 10
41.19036754617962
 20
-27.059022159164805
 30
0.0
 10
43.51438149099019
 20
-24.9003318997338
 30
0.0
 10
44.815355770742975
 20
-22.563721125887973
 30
0.0
 10
45.59373183376766
 20
-21.167628306682616
 30
0.0
 10
46.00102641574977
 20
-19.703200924448062
 30
0.0
 10
46.00000000000005
 20
-18.232945714133194
 30
0.0
  0
SPLINE
  5
2AE
330
17
100
AcDbEntity
  8
visible
100
AcDbSpline
 70
0
 71
3
 72
26
 73
22
 74
0
 40
0.0
 40
0.0
 40
0.0
 40
0.0
 40
0.15406110837690645
 40
0.15406110837690645
 40
0.15406110837690645
 40
0.28847665349924956
 40
0.28847665349924956
 40
0.28847665349924956
 40
0.47695946841623194
 40
0.47695946841623194
 40
0.47695946841623194
 40
0.6831899820010023
 40
0.6831899820010023
 40
0.6831899820010023
 40
0.8894204955857727
 40
0.8894204955857727
 40
0.8894204955857727
 40
0.9447102477928864
 40
0.9447102477928864
 40
0.9447102477928864
 40
1.0
 40
1.0
 40
1.0
 40
1.0
 10
-45.99999999999994
 20
-18.232945714133194
 30
0.0
 10
-46.00183103210149
 20
-20.05010563451375
 30
0.0
 10
-45.378470376738285
 20
-21.852921165759327
 30
0.0
 10
-44.20649294000605
 20
-23.538526068112095
 30
0.0
 10
-43.184515991783826
 20
-25.011580927578915
 30
0.0
 10
-41.74830996635707
 20
-26.405888480216213
 30
0.0
 10
-39.94477862732178
 20
-27.70187060631126
 30
0.0
 10
-37.416977003702456
 20
-29.519036838282958
 30
0.0
 10
-34.159658094282584
 20
-31.143561006640255
 30
0.0
 10
-30.339275002615793
 20
-32.50708909718458
 30
0.0
 10
-26.16156629912837
 20
-33.999710457129616
 30
0.0
 10
-21.307978128881018
 20
-35.17681895189999
 30
0.0
 10
-16.092680011361864
 20
-35.965143109087016
 30
0.0
 10
-10.879293092184795
 20
-36.755138587976575
 30
0.0
 10
-5.304199880766373
 20
-37.156349527925045
 30
0.0
 10
0.2649165498274293
 20
-37.14230146419498
 30
0.0
 10
7.6846956951835095
 20
-37.12811443996869
 30
0.0
 10
15.09355779120185
 20
-36.36959611938159
 30
0.0
 10
21.63129728730955
 20
-34.95283400655854
 30
0.0
 10
28.177232657632295
 20
-33.54044354525559
 30
0.0
 10
33.85062930153566
 20
-31.474693153646054
 30
0.0
 10
38.02076614646897
 20
-28.964076578418844
 30
0.0
  0
SPLINE
  5
2AF
330
17
100
AcDbEntity
  8
visible
100
AcDbSpline
 70
0
 71
3
 72
17
 73
13
 74
0
 40
0.0
 40
0.0
 40
0.0
 40
0.0
 40
0.30430936628776456
 40
0.30430936628776456
 40
0.30430936628776456
 40
0.4824699095601774
 40
0.4824699095601774
 40
0.4824699095601774
 40
0.6621159498590654
 40
0.6621159498590654
 40
0.6621159498590654
 40
1.0
 40
1.0
 40
1.0
 40
1.0
 10
22.497408241459674
 20
26.220202273434623
 30
0.0
 10
22.496068239066425
 20
28.810311765856223
 30
0.0
 10
22.87751171929062
 20
31.6155950523287
 30
0.0
 10
23.598671674831532
 20
34.33676324911172
 30
0.0
 10
24.019963640814947
 20
35.92977536682176
 30
0.0
 10
24.55586349924559
 20
37.493034538651614
 30
0.0
 10
25.1864490520398
 20
38.96770466744747
 30
0.0
 10
25.82207992873558
 20
40.45493732586503
 30
0.0
 10
26.553745199715255
 20
41.851692221299
 30
0.0
 10
27.3550363235408
 20
43.10541445701071
 30
0.0
 10
28.862568618791293
 20
45.46626374169774
 30
0.0
 10
30.612603253614186
 20
47.310590822282066
 30
0.0
 10
32.42615877413523
 20
48.3989260455929
 30
0.0
  0
LINE
  5
2B0
330
17
100
AcDbEntity
  8
visible
100
AcDbLine
 10
32.42615877413523
 20
48.3989260455929
 30
0.0
 11
34.644959559036145
 21
49.73239080365784
 31
0.0
  0
SPLINE
  5
2B1
330
17
100
AcDbEntity
  8
visible
100
AcDbSpline
 70
0
 71
3
 72
11
 73
7
 74
0
 40
0.0
 40
0.0
 40
0.0
 40
0.0
 40
0.565197995356238
 40
0.565197995356238
 40
0.565197995356238
 40
1.0
 40
1.0
 40
1.0
 40
1.0
 10
34.64495955903615
 20
49.732390803657836
 30
0.0
 10
35.59831162818155
 20
50.305553092497576
 30
0.0
 10
36.572292237238976
 20
50.6728143018251
 30
0.0
 10
37.53481069784681
 20
50.80357190429294
 30
0.0
 10
38.27471920031129
 20
50.9045457906919
 30
0.0
 10
39.00715743664388
 20
50.86388625017517
 30
0.0
 10
39.70208338642519
 20
50.67789864349295
 30
0.0
  0
SPLINE
  5
2B2
330
17
100
AcDbEntity
  8
visible
100
AcDbSpline
 70
0
 71
3
 72
8
 73
4
 74
0
 40
0.0
 40
0.0
 40
0.0
 40
0.0
 40
1.0
 40
1.0
 40
1.0
 40
1.0
 10
24.16142287418817
 20
-11.650821369222818
 30
0.0
 10
23.06481883499992
 20
-9.564187684193278
 30
0.0
 10
22.495942204038958
 20
-6.728810372522956
 30
0.0
 10
22.49740824145967
 20
-3.5572216315567573
 30
0.0
  0
LINE
  5
2B3
330
17
100
AcDbEntity
  8
visible
100
AcDbLine
 10
22.497408241459674
 20
-3.5572216315567573
 30
0.0
 11
22.497408241459674
 21
26.220202273434616
 31
0.0
  0
LINE
  5
2B4
330
17
100
AcDbEntity
  8
visible
100
AcDbLine
 10
44.860795211319825
 20
49.299985060159166
 30
0.0
 11
39.70208338642519
 21
50.67789864349293
 31
0.0
  0
LINE
  5
2B5
330
17
100
AcDbEntity
  8
visible
100
AcDbLine
 10
33.945218295000195
 20
8.255413425968827
 30
0.0
 11
50.58622418175707
 21
3.810530899085701
 31
0.0
  0
LINE
  5
2B6
330
17
100
AcDbEntity
  8
visible
100
AcDbLine
 10
44.26750937275722
 20
46.90059820888918
 30
0.0
 11
60.90851525951409
 21
42.45571568200605
 31
0.0
  0
LINE
  5
2B7
330
17
100
AcDbEntity
  8
visible
100
AcDbLine
 10
66.53197325268971
 20
33.154750936863515
 30
0.0
 11
66.53197325268971
 21
26.26834804454605
 31
0.0
  0
SPLINE
  5
2B8
330
17
100
AcDbEntity
  8
visible
100
AcDbSpline
 70
0
 71
3
 72
8
 73
4
 74
0
 40
0.0
 40
0.0
 40
0.0
 40
0.0
 40
1.0
 40
1.0
 40
1.0
 40
1.0
 10
52.300977902288196
 20
5.89794607987136
 30
0.0
 10
51.44029406861324
 20
6.12675338430097
 30
0.0
 10
50.66502493868373
 20
6.653518683476475
 30
0.0
 10
50.03055737736075
 20
7.423552279107838
 30
0.0
  0
SPLINE
  5
2B9
330
17
100
AcDbEntity
  8
visible
100
AcDbSpline
 70
0
 71
3
 72
8
 73
4
 74
0
 40
0.0
 40
0.0
 40
0.0
 40
0.0
 40
1.0
 40
1.0
 40
1.0
 40
1.0
 10
59.52658165671811
 20
32.949575427915605
 30
0.0
 10
58.66643882074097
 20
33.18040815052417
 30
0.0
 10
57.73176269548538
 20
33.110376406905395
 30
0.0
 10
56.79783344781954
 20
32.75926818266889
 30
0.0
  0
LINE
  5
2BA
330
17
100
AcDbEntity
  8
visible
100
AcDbLine
 10
52.30097790228818
 20
5.8979460798713745
 30
0.0
 11
52.88341310832466
 21
5.742375191430467
 31
0.0
  0
LINE
  5
2BB
330
17
100
AcDbEntity
  8
visible
100
AcDbLine
 10
59.52658165671809
 20
32.94957542791559
 30
0.0
 11
60.10901686275457
 21
32.794004539474685
 31
0.0
  0
SPLINE
  5
2BC
330
17
100
AcDbEntity
  8
visible
100
AcDbSpline
 70
0
 71
3
 72
23
 73
19
 74
0
 40
0.0
 40
0.0
 40
0.0
 40
0.0
 40
0.15717986602728326
 40
0.15717986602728326
 40
0.15717986602728326
 40
0.6474322059627856
 40
0.6474322059627856
 40
0.6474322059627856
 40
0.7260221389764272
 40
0.7260221389764272
 40
0.7260221389764272
 40
0.8046120719900689
 40
0.8046120719900689
 40
0.8046120719900689
 40
0.9124850057256962
 40
0.9124850057256962
 40
0.9124850057256962
 40
1.0
 40
1.0
 40
1.0
 40
1.0
 10
56.70226140673882
 20
6.464635069983615
 30
0.0
 10
57.217206233219166
 20
6.7745912583856684
 30
0.0
 10
57.723963709754656
 20
7.16037324856047
 30
0.0
 10
58.222533836345114
 20
7.621981040508028
 30
0.0
 10
59.77434673038999
 20
9.054020676739665
 30
0.0
 10
61.206898920437204
 20
11.206187350996622
 30
0.0
 10
62.289067262604796
 20
13.712660316107753
 30
0.0
 10
63.028231267326056
 20
15.419090321409282
 30
0.0
 10
63.60463031993088
 20
17.284289044452578
 30
0.0
 10
63.97026542399864
 20
19.151625434054026
 30
0.0
 10
64.33711206491178
 20
21.019006279291744
 30
0.0
 10
64.493194757288
 20
22.888524791087658
 30
0.0
 10
64.42443753637612
 20
24.60479467607348
 30
0.0
 10
64.3322451360469
 20
26.963130207565182
 30
0.0
 10
63.815337925782714
 20
29.02491630569803
 30
0.0
 10
62.926338810427424
 20
30.49279315134045
 30
0.0
 10
62.20889292678356
 20
31.685945525773086
 30
0.0
 10
61.23577001642641
 20
32.49533708978671
 30
0.0
 10
60.10901686275458
 20
32.794004539474685
 30
0.0
  0
SPLINE
  5
2BD
330
17
100
AcDbEntity
  8
visible
100
AcDbSpline
 70
0
 71
3
 72
8
 73
4
 74
0
 40
0.0
 40
0.0
 40
0.0
 40
0.0
 40
1.0
 40
1.0
 40
1.0
 40
1.0
 10
52.88341310832467
 20
5.742375191430455
 30
0.0
 10
54.08015738688198
 20
5.420042501529313
 30
0.0
 10
55.41219161751829
 20
5.685658179392231
 30
0.0
 10
56.70226140673881
 20
6.464635069983615
 30
0.0
  0
LINE
  5
2BE
330
17
100
AcDbEntity
  8
visible
100
AcDbLine
 10
-44.066615305567815
 20
14.222308475975765
 30
0.0
 11
-44.066615305567815
 21
43.99973238096714
 31
0.0
  0
SPLINE
  5
2BF
330
17
100
AcDbEntity
  8
visible
100
AcDbSpline
 70
0
 71
3
 72
8
 73
4
 74
0
 40
0.0
 40
0.0
 40
0.0
 40
0.0
 40
1.0
 40
1.0
 40
1.0
 40
1.0
 10
-42.32631551564753
 20
5.985946998127147
 30
0.0
 10
-43.472673857140656
 20
8.085789278008983
 30
0.0
 10
-44.068178331619855
 20
10.977675935137444
 30
0.0
 10
-44.06661530556781
 20
14.222308475975765
 30
0.0
  0
SPLINE
  5
2C0
330
17
100
AcDbEntity
  8
visible
100
AcDbSpline
 70
0
 71
3
 72
17
 73
13
 74
0
 40
0.0
 40
0.0
 40
0.0
 40
0.0
 40
0.30430936628776456
 40
0.30430936628776456
 40
0.30430936628776456
 40
0.4824699095601774
 40
0.4824699095601774
 40
0.4824699095601774
 40
0.6621159498590654
 40
0.6621159498590654
 40
0.6621159498590654
 40
1.0
 40
1.0
 40
1.0
 40
1.0
 10
-44.066615305567815
 20
43.999732380967146
 30
0.0
 10
-44.06795530796106
 20
46.58984187338872
 30
0.0
 10
-43.686511827736865
 20
49.39512515986124
 30
0.0
 10
-42.96535187219595
 20
52.11629335664425
 30
0.0
 10
-42.54405990621255
 20
53.70930547435425
 30
0.0
 10
-42.008160047781885
 20
55.27256464618413
 30
0.0
 10
-41.377574494987705
 20
56.74723477498002
 30
0.0
 10
-40.741943618291906
 20
58.23446743339755
 30
0.0
 10
-40.01027834731222
 20
59.631222328831534
 30
0.0
 10
-39.20898722348669
 20
60.88494456454324
 30
0.0
 10
-37.701454928236174
 20
63.245793849230274
 30
0.0
 10
-35.95142029341332
 20
65.09012092981457
 30
0.0
 10
-34.13786477289225
 20
66.17845615312542
 30
0.0
  0
SPLINE
  5
2C1
330
17
100
AcDbEntity
  8
visible
100
AcDbSpline
 70
0
 71
3
 72
11
 73
7
 74
0
 40
0.0
 40
0.0
 40
0.0
 40
0.0
 40
0.1250374131765316
 40
0.1250374131765316
 40
0.1250374131765316
 40
1.0
 40
1.0
 40
1.0
 40
1.0
 10
-48.61001287965054
 20
7.714894155443009
 30
0.0
 10
-48.637218667626506
 20
7.684349877378058
 30
0.0
 10
-48.664424455602486
 20
7.653805599313115
 30
0.0
 10
-48.69163024357847
 20
7.623261321248165
 30
0.0
 10
-48.94394721790251
 20
7.326209754883253
 30
0.0
 10
-49.100111211135484
 20
6.9554509357263665
 30
0.0
 10
-49.09866559990566
 20
6.5717071313161455
 30
0.0
  0
SPLINE
  5
2C2
330
17
100
AcDbEntity
  8
visible
100
AcDbSpline
 70
0
 71
3
 72
11
 73
7
 74
0
 40
0.0
 40
0.0
 40
0.0
 40
0.0
 40
0.40375917886816604
 40
0.40375917886816604
 40
0.40375917886816604
 40
0.7566235141465457
 40
0.7566235141465457
 40
0.7566235141465457
 40
0.7566235141465457
 10
-23.20091886551579
 20
67.4795545951112
 30
0.0
 10
-21.75851320486991
 20
67.09734992177573
 30
0.0
 10
-20.51297032159249
 20
66.09141224858884
 30
0.0
 10
-19.590276447849874
 20
64.64340943052788
 30
0.0
 10
-18.779553805189977
 20
63.37792195816817
 30
0.0
 10
-18.19659327526755
 20
61.77066527740835
 30
0.0
 10
-17.857189322988738
 20
59.92701173481453
 30
0.0
  0
LINE
  5
2C3
330
17
100
AcDbEntity
  8
visible
100
AcDbLine
 10
-31.506799691234107
 20
1.4191970277846622
 30
0.0
 11
-36.86376034393695
 21
-1.8002529964493936
 31
0.0
  0
SPLINE
  5
2C4
330
17
100
AcDbEntity
  8
visible
100
AcDbSpline
 70
0
 71
3
 72
11
 73
7
 74
0
 40
0.0
 40
0.0
 40
0.0
 40
0.0
 40
0.565197995356238
 40
0.565197995356238
 40
0.565197995356238
 40
1.0
 40
1.0
 40
1.0
 40
1.0
 10
-31.919063987991336
 20
67.51192091119036
 30
0.0
 10
-30.965711918845916
 20
68.08508320003008
 30
0.0
 10
-29.991731309788506
 20
68.45234440935762
 30
0.0
 10
-29.02921284918068
 20
68.58310201182547
 30
0.0
 10
-28.289304346716204
 20
68.68407589822436
 30
0.0
 10
-27.556866110383602
 20
68.64341635770771
 30
0.0
 10
-26.861940160602302
 20
68.45742875102547
 30
0.0
  0
LINE
  5
2C5
330
17
100
AcDbEntity
  8
visible
100
AcDbLine
 10
-34.13786477289226
 20
66.17845615312542
 30
0.0
 11
-31.91906398799134
 21
67.51192091119036
 31
0.0
  0
LINE
  5
2C6
330
17
100
AcDbEntity
  8
visible
100
AcDbLine
 10
-26.8619401606023
 20
68.45742875102546
 30
0.0
 11
-23.200918865515785
 21
67.47955459511117
 31
0.0
  0
SPLINE
  5
2C7
330
17
100
AcDbEntity
  8
visible
100
AcDbSpline
 70
0
 71
3
 72
11
 73
7
 74
0
 40
0.0
 40
0.0
 40
0.0
 40
0.0
 40
0.5500690693109827
 40
0.5500690693109827
 40
0.5500690693109827
 40
1.0
 40
1.0
 40
1.0
 40
1.0
 10
-43.30665106825538
 20
-2.3541730039007547
 30
0.0
 10
-42.185980617722656
 20
-2.655867292133982
 30
0.0
 10
-40.777452041945175
 20
-2.7415476159705867
 30
0.0
 10
-39.50632467674312
 20
-2.5917202787929847
 30
0.0
 10
-38.46441886356503
 20
-2.4697505547429635
 30
0.0
 10
-37.53376319799338
 20
-2.202611095231716
 30
0.0
 10
-36.86376034393697
 20
-1.8002529964493803
 30
0.0
  0
LINE
  5
2C8
330
17
100
AcDbEntity
  8
visible
100
AcDbLine
 10
-49.09866559990566
 20
0.7078451931024616
 30
0.0
 11
-49.09866559990566
 21
6.571707131316153
 31
0.0
  0
LINE
  5
2C9
330
17
100
AcDbEntity
  8
visible
100
AcDbLine
 10
-46.63485224560675
 20
-1.4651964985241221
 30
0.0
 11
-43.30665106825538
 21
-2.354173003900748
 31
0.0
  0
SPLINE
  5
2CA
330
17
100
AcDbEntity
  8
visible
100
AcDbSpline
 70
0
 71
3
 72
14
 73
10
 74
0
 40
0.0
 40
0.0
 40
0.0
 40
0.0
 40
0.3333333333333333
 40
0.3333333333333333
 40
0.3333333333333333
 40
0.6666666666666666
 40
0.6666666666666666
 40
0.6666666666666666
 40
1.0
 40
1.0
 40
1.0
 40
1.0
 10
-49.09866559990566
 20
0.7078451931024645
 30
0.0
 10
-49.100193408492906
 20
0.31344330299576756
 30
0.0
 10
-48.935271823846264
 20
-0.0663677350050896
 30
0.0
 10
-48.67089188248465
 20
-0.36801037262591046
 30
0.0
 10
-48.42744135467969
 20
-0.6481201863922298
 30
0.0
 10
-48.10438534559094
 20
-0.8759987488971832
 30
0.0
 10
-47.71980303424753
 20
-1.0670163381058018
 30
0.0
 10
-47.39773765173056
 20
-1.2257102899355592
 30
0.0
 10
-47.03608738885033
 20
-1.3584370100749987
 30
0.0
 10
-46.63485224560675
 20
-1.4651964985241221
 30
0.0
  0
SPLINE
  5
2CB
330
17
100
AcDbEntity
  8
visible
100
AcDbSpline
 70
0
 71
2
 72
6
 73
3
 74
0
 40
0.0
 40
0.0
 40
0.0
 40
0.06246166960004207
 40
0.06246166960004207
 40
0.06246166960004207
 10
-28.193220631542847
 20
68.8130193531761
 30
0.0
 10
-27.859643371264987
 20
68.72391087196849
 30
0.0
 10
-27.53928967742182
 20
68.59141515538062
 30
0.0
  0
LINE
  5
2CC
330
17
100
AcDbEntity
  8
visible
100
AcDbLine
 10
-33.35193245643748
 20
70.19093293650988
 30
0.0
 11
-28.193220631542847
 21
68.8130193531761
 31
0.0
  0
LINE
  5
2CD
330
17
100
AcDbEntity
  8
visible
100
AcDbLine
 10
-38.479549254492
 20
69.00268491843926
 30
0.0
 11
-50.58622418175696
 21
72.236428612123
 31
0.0
  0
LINE
  5
2CE
330
17
100
AcDbEntity
  8
visible
100
AcDbLine
 10
-50.20036775838317
 20
30.731052681686702
 30
0.0
 11
-60.90851525951397
 21
33.591243829202696
 31
0.0
  0
LINE
  5
2CF
330
17
100
AcDbEntity
  8
visible
100
AcDbLine
 10
-66.5319732526896
 20
42.892208695088954
 30
0.0
 11
-66.5319732526896
 21
49.7786115874064
 31
0.0
  0
LINE
  5
2D0
330
17
100
AcDbEntity
  8
visible
100
AcDbLine
 10
-40.3035881961466
 20
4.854953480935682
 30
0.0
 11
-40.3035881961466
 21
7.970130135611708
 31
0.0
  0
LINE
  5
2D1
330
17
100
AcDbEntity
  8
visible
100
AcDbLine
 10
-39.546191686088235
 20
9.144763567098607
 30
0.0
 11
-32.94067029992666
 21
13.11457917065856
 31
0.0
  0
SPLINE
  5
2D2
330
17
100
AcDbEntity
  8
visible
100
AcDbSpline
 70
0
 71
3
 72
17
 73
13
 74
0
 40
0.0
 40
0.0
 40
0.0
 40
0.0
 40
0.25
 40
0.25
 40
0.25
 40
0.5
 40
0.5
 40
0.5
 40
0.75
 40
0.75
 40
0.75
 40
1.0
 40
1.0
 40
1.0
 40
1.0
 10
-38.73037444939724
 20
3.3486441683415507
 30
0.0
 10
-38.87340630878949
 20
3.3867677211927427
 30
0.0
 10
-39.00924453306588
 20
3.4310779262672577
 30
0.0
 10
-39.137889122226476
 20
3.481574783565094
 30
0.0
 10
-39.377450763354446
 20
3.574455686379901
 30
0.0
 10
-39.58752053869239
 20
3.6918237503733446
 30
0.0
 10
-39.768098448240224
 20
3.8336789755454252
 30
0.0
 10
-39.94610131014543
 20
3.9753127835761815
 30
0.0
 10
-40.09245019966083
 20
4.147288683088529
 30
0.0
 10
-40.18679509739098
 20
4.34560228191674
 30
0.0
 10
-40.263841786431996
 20
4.5071879575193545
 30
0.0
 10
-40.30277281935057
 20
4.6769716905256695
 30
0.0
 10
-40.303588196146606
 20
4.854953480935677
 30
0.0
  0
SPLINE
  5
2D3
330
17
100
AcDbEntity
  8
visible
100
AcDbSpline
 70
0
 71
2
 72
10
 73
7
 74
0
 40
0.0
 40
0.0
 40
0.0
 40
0.3333333333333333
 40
0.3333333333333333
 40
0.6666666666666666
 40
0.6666666666666666
 40
1.0
 40
1.0
 40
1.0
 10
-40.303588196146606
 20
7.970130135611711
 30
0.0
 10
-40.30242236215615
 20
8.233753444144156
 30
0.0
 10
-40.18955922243636
 20
8.473640794733612
 30
0.0
 10
-40.09804087733613
 20
8.665991034578646
 30
0.0
 10
-39.949627040344964
 20
8.82411990880938
 30
0.0
 10
-39.77624053382961
 20
9.007940194270443
 30
0.0
 10
-39.54619168608824
 20
9.144763567098607
 30
0.0
  0
LINE
  5
2D4
330
17
100
AcDbEntity
  8
visible
100
AcDbLine
 10
8.696492327859843
 20
-9.31927103327537
 30
0.0
 11
-38.73037444939724
 21
3.3486441683415507
 31
0.0
  0
SPLINE
  5
2D5
330
17
100
AcDbEntity
  8
visible
100
AcDbSpline
 70
0
 71
3
 72
11
 73
7
 74
0
 40
0.0
 40
0.0
 40
0.0
 40
0.0
 40
0.42426522981971115
 40
0.42426522981971115
 40
0.42426522981971115
 40
1.0
 40
1.0
 40
1.0
 40
1.0
 10
12.365882071052127
 20
-8.987595152168147
 30
0.0
 10
11.98519278431509
 20
-9.215757376237681
 30
0.0
 10
11.493838077052198
 20
-9.363354562589315
 30
0.0
 10
10.945216045076226
 20
-9.439378492651226
 30
0.0
 10
10.20204774868195
 20
-9.542234022868586
 30
0.0
 10
9.368909329182658
 20
-9.499984669236751
 30
0.0
 10
8.696492327859843
 20
-9.31927103327537
 30
0.0
  0
LINE
  5
2D6
330
17
100
AcDbEntity
  8
visible
100
AcDbLine
 10
17.759355700675393
 20
-5.7462013967677965
 30
0.0
 11
12.36588207105212
 21
-8.987595152168147
 31
0.0
  0
LINE
  5
2D7
330
17
100
AcDbEntity
  8
visible
100
AcDbLine
 10
17.505106475432612
 20
4.460488197910058
 30
0.0
 11
6.818880108799835
 21
-1.96176762315298
 31
0.0
  0
SPLINE
  5
2D8
330
17
100
AcDbEntity
  8
visible
100
AcDbSpline
 70
0
 71
3
 72
14
 73
10
 74
0
 40
0.0
 40
0.0
 40
0.0
 40
0.0
 40
0.22552682485468473
 40
0.22552682485468473
 40
0.22552682485468473
 40
0.45105364970936945
 40
0.45105364970936945
 40
0.45105364970936945
 40
1.0
 40
1.0
 40
1.0
 40
1.0
 10
-31.24192180035665
 20
7.374175991710601
 30
0.0
 10
-31.425542800531858
 20
7.422419011748825
 30
0.0
 10
-31.593442405037486
 20
7.489165130265436
 30
0.0
 10
-31.74562061387347
 20
7.574414347260415
 30
0.0
 10
-31.869516872566535
 20
7.644002781457734
 30
0.0
 10
-31.978907477746727
 20
7.728423393387043
 30
0.0
 10
-32.07379242941402
 20
7.82767618304834
 30
0.0
 10
-32.2598837580524
 20
8.022314365015385
 30
0.0
 10
-32.371090913003954
 20
8.282398224108949
 30
0.0
 10
-32.36983574333124
 20
8.547119114788487
 30
0.0
  0
SPLINE
  5
2D9
330
17
100
AcDbEntity
  8
visible
100
AcDbSpline
 70
0
 71
3
 72
17
 73
13
 74
0
 40
0.0
 40
0.0
 40
0.0
 40
0.0
 40
0.17769497522636024
 40
0.17769497522636024
 40
0.17769497522636024
 40
0.3553899504527205
 40
0.3553899504527205
 40
0.3553899504527205
 40
0.589203805264344
 40
0.589203805264344
 40
0.589203805264344
 40
1.0
 40
1.0
 40
1.0
 40
1.0
 10
6.818880108799837
 20
-1.9617676231529868
 30
0.0
 10
6.658393300012776
 20
-2.0566499609952085
 30
0.0
 10
6.4795655732063615
 20
-2.1299909908083463
 30
0.0
 10
6.282396928380594
 20
-2.1817907125924023
 30
0.0
 10
6.165432582229466
 20
-2.2130081932234265
 30
0.0
 10
6.043887514230424
 20
-2.237462166227294
 30
0.0
 10
5.917761724383443
 20
-2.2551526316040014
 30
0.0
 10
5.751238814980948
 20
-2.278469772307942
 30
0.0
 10
5.581535327595944
 20
-2.2901410711542964
 30
0.0
 10
5.4086512622284175
 20
-2.2901665281430486
 30
0.0
 10
5.106456575488372
 20
-2.2901441115126224
 30
0.0
 10
4.8057083177712485
 20
-2.254284776504635
 30
0.0
 10
4.536240856170622
 20
-2.18232144108812
 30
0.0
  0
LINE
  5
2DA
330
17
100
AcDbEntity
  8
visible
100
AcDbLine
 10
4.536240856170622
 20
-2.1823214410881207
 30
0.0
 11
-31.241921800356657
 21
7.37417599171061
 31
0.0
  0
LINE
  5
2DB
330
17
100
AcDbEntity
  8
visible
100
AcDbLine
 10
-32.36983574333124
 20
8.54711911478849
 30
0.0
 11
-32.36983574333124
 21
11.662295769464517
 31
0.0
  0
LINE
  5
2DC
330
17
100
AcDbEntity
  8
visible
100
AcDbLine
 10
-31.780388938935033
 20
12.614685074607266
 30
0.0
 11
-31.59196398488449
 21
12.727925541023282
 31
0.0
  0
SPLINE
  5
2DD
330
17
100
AcDbEntity
  8
visible
100
AcDbSpline
 70
0
 71
2
 72
10
 73
7
 74
0
 40
0.0
 40
0.0
 40
0.0
 40
0.3702578859060485
 40
0.3702578859060485
 40
0.6297421140939515
 40
0.6297421140939515
 40
1.0
 40
1.0
 40
1.0
 10
-32.36983574333124
 20
11.66229576946452
 30
0.0
 10
-32.36893789583675
 20
11.896370105563209
 30
0.0
 10
-32.26515685607271
 20
12.108141647162494
 30
0.0
 10
-32.19249428661128
 20
12.254876545190882
 30
0.0
 10
-32.079099301241996
 20
12.376083279051258
 30
0.0
 10
-31.948734693524717
 20
12.514466818002962
 30
0.0
 10
-31.780388938935033
 20
12.614685074607266
 30
0.0
  0
LINE
  5
2DE
330
17
100
AcDbEntity
  8
visible
100
AcDbLine
 10
-35.47923613578169
 20
16.838046665329337
 30
0.0
 11
-35.47923613578169
 21
47.07358478424366
 31
0.0
  0
LINE
  5
2DF
330
17
100
AcDbEntity
  8
visible
100
AcDbLine
 10
-33.53970034777362
 20
50.50206655189249
 30
0.0
 11
-9.687591910088763
 21
64.83681270109058
 31
0.0
  0
ARC
  5
2E0
330
17
100
AcDbEntity
  8
visible
100
AcDbCircle
 10
-31.479236135781694
 20
16.838046665329344
 30
0.0
 40
4.0
100
AcDbArc
 50
180.00000000000003
 51
255.04518099963096
  0
ARC
  5
2E1
330
17
100
AcDbEntity
  8
visible
100
AcDbCircle
 10
-31.479236135781694
 20
47.07358478424365
 30
0.0
 40
4.0
100
AcDbArc
 50
121.00521244505046
 51
180.00000000000003
  0
ARC
  5
2E2
330
17
100
AcDbEntity
  8
visible
100
AcDbCircle
 10
-7.627127698096839
 20
61.40833093344173
 30
0.0
 40
4.0
100
AcDbArc
 50
75.045180999631
 51
121.00521244505046
  0
LINE
  5
2E3
330
17
100
AcDbEntity
  8
visible
100
AcDbLine
 10
-32.511465243557396
 20
12.973528187037296
 30
0.0
 11
6.59489859032125
 21
2.52805424886194
 31
0.0
  0
LINE
  5
2E4
330
17
100
AcDbEntity
  8
visible
100
AcDbLine
 10
9.687591910088873
 20
2.964090959505133
 30
0.0
 11
17.505106475432612
 21
7.662295611082602
 31
0.0
  0
LINE
  5
2E5
330
17
100
AcDbEntity
  8
visible
100
AcDbLine
 10
-6.594898590321137
 20
65.27284941173377
 30
0.0
 11
32.51146524355751
 21
54.827375473558426
 31
0.0
  0
ARC
  5
2E6
330
17
100
AcDbEntity
  8
visible
100
AcDbCircle
 10
7.6271276980969525
 20
6.392572727153976
 30
0.0
 40
4.0
100
AcDbArc
 50
255.04518099963101
 51
301.0052124450505
  0
ARC
  5
2E7
330
17
100
AcDbEntity
  8
visible
100
AcDbCircle
 10
31.479236135781807
 20
50.96285699526638
 30
0.0
 40
4.0
100
AcDbArc
 50
372.5397618920209
 51
435.04518099963104
  0
LINE
  5
2E8
330
17
100
AcDbEntity
  8
visible
100
AcDbLine
 10
-9.330420786716978
 20
14.875996536610984
 30
0.0
 11
-8.22102039426652
 21
15.542728915643455
 31
0.0
  0
LINE
  5
2E9
330
17
100
AcDbEntity
  8
visible
100
AcDbLine
 10
-21.178090005670512
 20
34.589766700591824
 30
0.0
 11
-20.068689613220055
 21
35.25649907962429
 31
0.0
  0
ENDSEC
  0
SECTION
  2
OBJECTS
  0
DICTIONARY
  5
A
330
0
100
AcDbDictionary
281
1
  3
ACAD_COLOR
350
B
  3
ACAD_GROUP
350
C
  3
ACAD_LAYOUT
350
D
  3
ACAD_MATERIAL
350
E
  3
ACAD_MLEADERSTYLE
350
F
  3
ACAD_MLINESTYLE
350
10
  3
ACAD_PLOTSETTINGS
350
11
  3
ACAD_PLOTSTYLENAME
350
12
  3
ACAD_SCALELIST
350
14
  3
ACAD_TABLESTYLE
350
15
  3
ACAD_VISUALSTYLE
350
16
  3
EZDXF_META
350
2D
  0
DICTIONARY
  5
B
330
A
100
AcDbDictionary
281
1
  0
DICTIONARY
  5
C
330
A
100
AcDbDictionary
281
1
  0
DICTIONARY
  5
D
330
A
100
AcDbDictionary
281
1
  3
Model
350
1A
  3
Layout1
350
1E
  0
DICTIONARY
  5
E
330
A
100
AcDbDictionary
281
1
  3
ByBlock
350
1F
  3
ByLayer
350
20
  3
Global
350
21
  0
DICTIONARY
  5
F
330
A
100
AcDbDictionary
281
1
  3
Standard
350
2C
  0
DICTIONARY
  5
10
330
A
100
AcDbDictionary
281
1
  3
Standard
350
22
  0
DICTIONARY
  5
11
330
A
100
AcDbDictionary
281
1
  0
ACDBDICTIONARYWDFLT
  5
12
330
A
100
AcDbDictionary
281
1
  3
Normal
350
13
100
AcDbDictionaryWithDefault
340
13
  0
ACDBPLACEHOLDER
  5
13
330
12
  0
DICTIONARY
  5
14
330
A
100
AcDbDictionary
281
1
  0
DICTIONARY
  5
15
330
A
100
AcDbDictionary
281
1
  0
DICTIONARY
  5
16
330
A
100
AcDbDictionary
281
1
  0
LAYOUT
  5
1A
330
D
100
AcDbPlotSettings
  1

  4
A3
  6

 40
7.5
 41
20.0
 42
7.5
 43
20.0
 44
420.0
 45
297.0
 46
0.0
 47
0.0
 48
0.0
 49
0.0
140
0.0
141
0.0
142
1.0
143
1.0
 70
1024
 72
1
 73
0
 74
5
  7

 75
16
 76
0
 77
2
 78
300
147
1.0
148
0.0
149
0.0
100
AcDbLayout
  1
Model
 70
1
 71
0
 10
0.0
 20
0.0
 11
420.0
 21
297.0
 12
0.0
 22
0.0
 32
0.0
 14
1e+20
 24
1e+20
 34
1e+20
 15
-1e+20
 25
-1e+20
 35
-1e+20
146
0.0
 13
0.0
 23
0.0
 33
0.0
 16
1.0
 26
0.0
 36
0.0
 17
0.0
 27
1.0
 37
0.0
 76
1
330
17
  0
LAYOUT
  5
1E
330
D
100
AcDbPlotSettings
  1

  4
A3
  6

 40
7.5
 41
20.0
 42
7.5
 43
20.0
 44
420.0
 45
297.0
 46
0.0
 47
0.0
 48
0.0
 49
0.0
140
0.0
141
0.0
142
1.0
143
1.0
 70
0
 72
1
 73
0
 74
5
  7

 75
16
 76
0
 77
2
 78
300
147
1.0
148
0.0
149
0.0
100
AcDbLayout
  1
Layout1
 70
1
 71
1
 10
0.0
 20
0.0
 11
420.0
 21
297.0
 12
0.0
 22
0.0
 32
0.0
 14
1e+20
 24
1e+20
 34
1e+20
 15
-1e+20
 25
-1e+20
 35
-1e+20
146
0.0
 13
0.0
 23
0.0
 33
0.0
 16
1.0
 26
0.0
 36
0.0
 17
0.0
 27
1.0
 37
0.0
 76
1
330
1B
  0
MATERIAL
  5
1F
102
{ACAD_REACTORS
330
E
102
}
330
E
100
AcDbMaterial
  1
ByBlock
  2

 70
0
 40
1.0
 71
1
 41
1.0
 91
-1023410177
 42
1.0
 72
1
  3

 73
1
 74
1
 75
1
 44
0.5
 73
0
 45
1.0
 46
1.0
 77
1
  4

 78
1
 79
1
170
1
 48
1.0
171
1
  6

172
1
173
1
174
1
140
1.0
141
1.0
175
1
  7

176
1
177
1
178
1
143
1.0
179
1
  8

270
1
271
1
272
1
145
1.0
146
1.0
273
1
  9

274
1
275
1
276
1
 42
1.0
 72
1
  3

 73
1
 74
1
 75
1
 94
63
  0
MATERIAL
  5
20
102
{ACAD_REACTORS
330
E
102
}
330
E
100
AcDbMaterial
  1
ByLayer
  2

 70
0
 40
1.0
 71
1
 41
1.0
 91
-1023410177
 42
1.0
 72
1
  3

 73
1
 74
1
 75
1
 44
0.5
 73
0
 45
1.0
 46
1.0
 77
1
  4

 78
1
 79
1
170
1
 48
1.0
171
1
  6

172
1
173
1
174
1
140
1.0
141
1.0
175
1
  7

176
1
177
1
178
1
143
1.0
179
1
  8

270
1
271
1
272
1
145
1.0
146
1.0
273
1
  9

274
1
275
1
276
1
 42
1.0
 72
1
  3

 73
1
 74
1
 75
1
 94
63
  0
MATERIAL
  5
21
102
{ACAD_REACTORS
330
E
102
}
330
E
100
AcDbMaterial
  1
Global
  2

 70
0
 40
1.0
 71
1
 41
1.0
 91
-1023410177
 42
1.0
 72
1
  3

 73
1
 74
1
 75
1
 44
0.5
 73
0
 45
1.0
 46
1.0
 77
1
  4

 78
1
 79
1
170
1
 48
1.0
171
1
  6

172
1
173
1
174
1
140
1.0
141
1.0
175
1
  7

176
1
177
1
178
1
143
1.0
179
1
  8

270
1
271
1
272
1
145
1.0
146
1.0
273
1
  9

274
1
275
1
276
1
 42
1.0
 72
1
  3

 73
1
 74
1
 75
1
 94
63
  0
MLINESTYLE
  5
22
102
{ACAD_REACTORS
330
10
102
}
330
10
100
AcDbMlineStyle
  2
Standard
 70
0
  3

 62
256
 51
90.0
 52
90.0
 71
2
 49
0.5
 62
256
  6
BYLAYER
 49
-0.5
 62
256
  6
BYLAYER
  0
MLEADERSTYLE
  5
2C
102
{ACAD_REACTORS
330
F
102
}
330
F
100
AcDbMLeaderStyle
179
2
170
2
171
1
172
0
 90
2
 40
0.0
 41
0.0
173
1
 91
-1056964608
 92
-2
290
1
 42
2.0
291
1
 43
8.0
  3
Standard
 44
4.0
300

342
29
174
1
175
1
176
0
178
1
 93
-1056964608
 45
4.0
292
0
297
0
 46
4.0
 94
-1056964608
 47
1.0
 49
1.0
140
1.0
294
1
141
0.0
177
0
142
1.0
295
0
296
0
143
3.75
271
0
272
9
273
9
  0
DICTIONARY
  5
2D
330
A
100
AcDbDictionary
280
1
281
1
  3
CREATED_BY_EZDXF
350
2E
  3
WRITTEN_BY_EZDXF
350
2ED
  0
DICTIONARYVAR
  5
2E
330
2D
100
DictionaryVariables
280
0
  1
1.4.4 @ 2026-10-02T17:09:32.025593+00:00
  0
DICTIONARYVAR
  5
2ED
330
2D
100
DictionaryVariables
280
0
  1
1.4.4 @ 2026-10-02T17:09:32.168380+00:00
  0
ENDSEC
  0
EOF
