  0
SECTION
  2
HEADER
  9
$ACADVER
  1
AC1027
  9
$ACADMAINTVER
 70
105
  9
$DWGCODEPAGE
  3
ANSI_1252
  9
$LASTSAVEDBY
  1
ezdxf
  9
$REQUIREDVERSIONS
160
0
  9
$INSBASE
 10
0.0
 20
0.0
 30
0.0
  9
$EXTMIN
 10
1e+20
 20
1e+20
 30
1e+20
  9
$EXTMAX
 10
-1e+20
 20
-1e+20
 30
-1e+20
  9
$LIMMIN
 10
0.0
 20
0.0
  9
$LIMMAX
 10
420.0
 20
297.0
  9
$ORTHOMODE
 70
0
  9
$REGENMODE
 70
1
  9
$FILLMODE
 70
1
  9
$QTEXTMODE
 70
0
  9
$MIRRTEXT
 70
1
  9
$LTSCALE
 40
1.0
  9
$ATTMODE
 70
1
  9
$TEXTSIZE
 40
2.5
  9
$TRACEWID
 40
1.0
  9
$TEXTSTYLE
  7
Standard
  9
$CLAYER
  8
0
  9
$CELTYPE
  6
ByLayer
  9
$CECOLOR
 62
256
  9
$CELTSCALE
 40
1.0
  9
$DISPSILH
 70
0
  9
$DIMSCALE
 40
1.0
  9
$DIMASZ
 40
2.5
  9
$DIMEXO
 40
0.625
  9
$DIMDLI
 40
3.75
  9
$DIMRND
 40
0.0
  9
$DIMDLE
 40
0.0
  9
$DIMEXE
 40
1.25
  9
$DIMTP
 40
0.0
  9
$DIMTM
 40
0.0
  9
$DIMTXT
 40
2.5
  9
$DIMCEN
 40
2.5
  9
$DIMTSZ
 40
0.0
  9
$DIMTOL
 70
0
  9
$DIMLIM
 70
0
  9
$DIMTIH
 70
0
  9
$DIMTOH
 70
0
  9
$DIMSE1
 70
0
  9
$DIMSE2
 70
0
  9
$DIMTAD
 70
1
  9
$DIMZIN
 70
8
  9
$DIMBLK
  1

  9
$DIMASO
 70
1
  9
$DIMSHO
 70
1
  9
$DIMPOST
  1

  9
$DIMAPOST
  1

  9
$DIMALT
 70
0
  9
$DIMALTD
 70
3
  9
$DIMALTF
 40
0.03937007874
  9
$DIMLFAC
 40
1.0
  9
$DIMTOFL
 70
1
  9
$DIMTVP
 40
0.0
  9
$DIMTIX
 70
0
  9
$DIMSOXD
 70
0
  9
$DIMSAH
 70
0
  9
$DIMBLK1
  1

  9
$DIMBLK2
  1

  9
$DIMSTYLE
  2
ISO-25
  9
$DIMCLRD
 70
0
  9
$DIMCLRE
 70
0
  9
$DIMCLRT
 70
0
  9
$DIMTFAC
 40
1.0
  9
$DIMGAP
 40
0.625
  9
$DIMJUST
 70
0
  9
$DIMSD1
 70
0
  9
$DIMSD2
 70
0
  9
$DIMTOLJ
 70
0
  9
$DIMTZIN
 70
8
  9
$DIMALTZ
 70
0
  9
$DIMALTTZ
 70
0
  9
$DIMUPT
 70
0
  9
$DIMDEC
 70
2
  9
$DIMTDEC
 70
2
  9
$DIMALTU
 70
2
  9
$DIMALTTD
 70
3
  9
$DIMTXSTY
  7
Standard
  9
$DIMAUNIT
 70
0
  9
$DIMADEC
 70
0
  9
$DIMALTRND
 40
0.0
  9
$DIMAZIN
 70
0
  9
$DIMDSEP
 70
44
  9
$DIMATFIT
 70
3
  9
$DIMFRAC
 70
0
  9
$DIMLDRBLK
  1

  9
$DIMLUNIT
 70
2
  9
$DIMLWD
 70
-2
  9
$DIMLWE
 70
-2
  9
$DIMTMOVE
 70
0
  9
$DIMFXL
 40
1.0
  9
$DIMFXLON
 70
0
  9
$DIMJOGANG
 40
0.785398163397
  9
$DIMTFILL
 70
0
  9
$DIMTFILLCLR
 70
0
  9
$DIMARCSYM
 70
0
  9
$DIMLTYPE
  6

  9
$DIMLTEX1
  6

  9
$DIMLTEX2
  6

  9
$DIMTXTDIRECTION
 70
0
  9
$LUNITS
 70
2
  9
$LUPREC
 70
4
  9
$SKETCHINC
 40
1.0
  9
$FILLETRAD
 40
10.0
  9
$AUNITS
 70
0
  9
$AUPREC
 70
2
  9
$MENU
  1
.
  9
$ELEVATION
 40
0.0
  9
$PELEVATION
 40
0.0
  9
$THICKNESS
 40
0.0
  9
$LIMCHECK
 70
0
  9
$CHAMFERA
 40
0.0
  9
$CHAMFERB
 40
0.0
  9
$CHAMFERC
 40
0.0
  9
$CHAMFERD
 40
0.0
  9
$SKPOLY
 70
0
  9
$TDCREATE
 40
2461316.775162037
  9
$TDUCREATE
 40
2458532.153996898
  9
$TDUPDATE
 40
2461316.775162037
  9
$TDUUPDATE
 40
2458532.1544311
  9
$TDINDWG
 40
0.0
  9
$TDUSRTIMER
 40
0.0
  9
$USRTIMER
 70
1
  9
$ANGBASE
 50
0.0
  9
$ANGDIR
 70
0
  9
$PDMODE
 70
0
  9
$PDSIZE
 40
0.0
  9
$PLINEWID
 40
0.0
  9
$SPLFRAME
 70
0
  9
$SPLINETYPE
 70
6
  9
$SPLINESEGS
 70
8
  9
$HANDSEED
  5
2DD
  9
$SURFTAB1
 70
6
  9
$SURFTAB2
 70
6
  9
$SURFTYPE
 70
6
  9
$SURFU
 70
6
  9
$SURFV
 70
6
  9
$UCSBASE
  2

  9
$UCSNAME
  2

  9
$UCSORG
 10
0.0
 20
0.0
 30
0.0
  9
$UCSXDIR
 10
1.0
 20
0.0
 30
0.0
  9
$UCSYDIR
 10
0.0
 20
1.0
 30
0.0
  9
$UCSORTHOREF
  2

  9
$UCSORTHOVIEW
 70
0
  9
$UCSORGTOP
 10
0.0
 20
0.0
 30
0.0
  9
$UCSORGBOTTOM
 10
0.0
 20
0.0
 30
0.0
  9
$UCSORGLEFT
 10
0.0
 20
0.0
 30
0.0
  9
$UCSORGRIGHT
 10
0.0
 20
0.0
 30
0.0
  9
$UCSORGFRONT
 10
0.0
 20
0.0
 30
0.0
  9
$UCSORGBACK
 10
0.0
 20
0.0
 30
0.0
  9
$PUCSBASE
  2

  9
$PUCSNAME
  2

  9
$PUCSORG
 10
0.0
 20
0.0
 30
0.0
  9
$PUCSXDIR
 10
1.0
 20
0.0
 30
0.0
  9
$PUCSYDIR
 10
0.0
 20
1.0
 30
0.0
  9
$PUCSORTHOREF
  2

  9
$PUCSORTHOVIEW
 70
0
  9
$PUCSORGTOP
 10
0.0
 20
0.0
 30
0.0
  9
$PUCSORGBOTTOM
 10
0.0
 20
0.0
 30
0.0
  9
$PUCSORGLEFT
 10
0.0
 20
0.0
 30
0.0
  9
$PUCSORGRIGHT
 10
0.0
 20
0.0
 30
0.0
  9
$PUCSORGFRONT
 10
0.0
 20
0.0
 30
0.0
  9
$PUCSORGBACK
 10
0.0
 20
0.0
 30
0.0
  9
$USERI1
 70
0
  9
$USERI2
 70
0
  9
$USERI3
 70
0
  9
$USERI4
 70
0
  9
$USERI5
 70
0
  9
$USERR1
 40
0.0
  9
$USERR2
 40
0.0
  9
$USERR3
 40
0.0
  9
$USERR4
 40
0.0
  9
$USERR5
 40
0.0
  9
$WORLDVIEW
 70
1
  9
$SHADEDGE
 70
3
  9
$SHADEDIF
 70
70
  9
$TILEMODE
 70
1
  9
$MAXACTVP
 70
64
  9
$PINSBASE
 10
0.0
 20
0.0
 30
0.0
  9
$PLIMCHECK
 70
0
  9
$PEXTMIN
 10
1e+20
 20
1e+20
 30
1e+20
  9
$PEXTMAX
 10
-1e+20
 20
-1e+20
 30
-1e+20
  9
$PLIMMIN
 10
0.0
 20
0.0
  9
$PLIMMAX
 10
420.0
 20
297.0
  9
$UNITMODE
 70
0
  9
$VISRETAIN
 70
1
  9
$PLINEGEN
 70
0
  9
$PSLTSCALE
 70
1
  9
$TREEDEPTH
 70
3020
  9
$CMLSTYLE
  2
Standard
  9
$CMLJUST
 70
0
  9
$CMLSCALE
 40
20.0
  9
$PROXYGRAPHICS
 70
1
  9
$MEASUREMENT
 70
1
  9
$CELWEIGHT
370
-1
  9
$ENDCAPS
280
0
  9
$JOINSTYLE
280
0
  9
$LWDISPLAY
290
0
  9
$INSUNITS
 70
4
  9
$HYPERLINKBASE
  1

  9
$STYLESHEET
  1

  9
$XEDIT
290
1
  9
$CEPSNTYPE
380
0
  9
$PSTYLEMODE
290
1
  9
$FINGERPRINTGUID
  2
{90727C2A-A730-47DA-88C9-C43810070860}
  9
$VERSIONGUID
  2
{A950C2F8-E1D9-43D2-8D11-FE08758A619E}
  9
$EXTNAMES
290
1
  9
$PSVPSCALE
 40
0.0
  9
$OLESTARTUP
290
0
  9
$SORTENTS
280
127
  9
$INDEXCTL
280
0
  9
$HIDETEXT
280
1
  9
$XCLIPFRAME
280
1
  9
$HALOGAP
280
0
  9
$OBSCOLOR
 70
257
  9
$OBSLTYPE
280
0
  9
$INTERSECTIONDISPLAY
280
0
  9
$INTERSECTIONCOLOR
 70
257
  9
$DIMASSOC
280
2
  9
$PROJECTNAME
  1

  9
$CAMERADISPLAY
290
0
  9
$LENSLENGTH
 40
50.0
  9
$CAMERAHEIGHT
 40
0.0
  9
$STEPSPERSEC
 40
24.0
  9
$STEPSIZE
 40
100.0
  9
$3DDWFPREC
 40
2.0
  9
$PSOLWIDTH
 40
0.005
  9
$PSOLHEIGHT
 40
0.08
  9
$LOFTANG1
 40
1.570796326795
  9
$LOFTANG2
 40
1.570796326795
  9
$LOFTMAG1
 40
0.0
  9
$LOFTMAG2
 40
0.0
  9
$LOFTPARAM
 70
7
  9
$LOFTNORMALS
280
1
  9
$LATITUDE
 40
37.795
  9
$LONGITUDE
 40
-122.394
  9
$NORTHDIRECTION
 40
0.0
  9
$TIMEZONE
 70
-8000
  9
$LIGHTGLYPHDISPLAY
280
1
  9
$TILEMODELIGHTSYNCH
280
1
  9
$CMATERIAL
347
20
  9
$SOLIDHIST
280
0
  9
$SHOWHIST
280
1
  9
$DWFFRAME
280
2
  9
$DGNFRAME
280
2
  9
$REALWORLDSCALE
290
1
  9
$INTERFERECOLOR
 62
256
  9
$CSHADOW
280
0
  9
$SHADOWPLANELOCATION
 40
0.0
  0
ENDSEC
  0
SECTION
  2
CLASSES
  0
CLASS
  1
ACDBDICTIONARYWDFLT
  2
AcDbDictionaryWithDefault
  3
ObjectDBX Classes
 90
0
 91
0
280
0
281
0
  0
CLASS
  1
SUN
  2
AcDbSun
  3
SCENEOE
 90
1153
 91
0
280
0
281
0
  0
CLASS
  1
VISUALSTYLE
  2
AcDbVisualStyle
  3
ObjectDBX Classes
 90
4095
 91
0
280
0
281
0
  0
CLASS
  1
MATERIAL
  2
AcDbMaterial
  3
ObjectDBX Classes
 90
1153
 91
0
280
0
281
0
  0
CLASS
  1
SCALE
  2
AcDbScale
  3
ObjectDBX Classes
 90
1153
 91
0
280
0
281
0
  0
CLASS
  1
TABLESTYLE
  2
AcDbTableStyle
  3
ObjectDBX Classes
 90
4095
 91
0
280
0
281
0
  0
CLASS
  1
MLEADERSTYLE
  2
AcDbMLeaderStyle
  3
ACDB_MLEADERSTYLE_CLASS
 90
4095
 91
0
280
0
281
0
  0
CLASS
  1
DICTIONARYVAR
  2
AcDbDictionaryVar
  3
ObjectDBX Classes
 90
0
 91
0
280
0
281
0
  0
CLASS
  1
CELLSTYLEMAP
  2
AcDbCellStyleMap
  3
ObjectDBX Classes
 90
1152
 91
0
280
0
281
0
  0
CLASS
  1
MENTALRAYRENDERSETTINGS
  2
AcDbMentalRayRenderSettings
  3
SCENEOE
 90
1024
 91
0
280
0
281
0
  0
CLASS
  1
ACDBDETAILVIEWSTYLE
  2
AcDbDetailViewStyle
  3
ObjectDBX Classes
 90
1025
 91
0
280
0
281
0
  0
CLASS
  1
ACDBSECTIONVIEWSTYLE
  2
AcDbSectionViewStyle
  3
ObjectDBX Classes
 90
1025
 91
0
280
0
281
0
  0
CLASS
  1
RASTERVARIABLES
  2
AcDbRasterVariables
  3
ISM
 90
0
 91
0
280
0
281
0
  0
CLASS
  1
LAYOUT
  2
AcDbLayout
  3
ObjectDBX Classes
 90
0
 91
0
280
0
281
0
  0
CLASS
  1
ACDBPLACEHOLDER
  2
AcDbPlaceHolder
  3
ObjectDBX Classes
 90
0
 91
0
280
0
281
0
  0
ENDSEC
  0
SECTION
  2
TABLES
  0
TABLE
  2
VPORT
  5
8
330
0
100
AcDbSymbolTable
 70
1
  0
VPORT
  5
2D9
330
8
100
AcDbSymbolTableRecord
100
AcDbViewportTableRecord
  2
*Active
 70
0
 10
0.0
 20
0.0
 11
1.0
 21
1.0
 12
2.7735012508856016e-08
 22
-7.75487208864601
 13
0.0
 23
0.0
 14
0.5
 24
0.5
 15
0.5
 25
0.5
 16
0.0
 26
0.0
 36
1.0
 17
0.0
 27
0.0
 37
0.0
 40
174.5494174084181
 41
1.34
 42
50.0
 43
0.0
 44
0.0
 50
0.0
 51
0.0
 71
0
 72
1000
 73
1
 74
3
 75
0
 76
0
 77
0
 78
0
281
0
 65
1
110
0.0
120
0.0
130
0.0
111
1.0
121
0.0
131
0.0
112
0.0
122
1.0
132
0.0
 79
0
146
0.0
  0
ENDTAB
  0
TABLE
  2
LTYPE
  5
2
330
0
100
AcDbSymbolTable
 70
3
  0
LTYPE
  5
24
330
2
100
AcDbSymbolTableRecord
100
AcDbLinetypeTableRecord
  2
ByBlock
 70
0
  3

 72
65
 73
0
 40
0.0
  0
LTYPE
  5
25
330
2
100
AcDbSymbolTableRecord
100
AcDbLinetypeTableRecord
  2
ByLayer
 70
0
  3

 72
65
 73
0
 40
0.0
  0
LTYPE
  5
26
330
2
100
AcDbSymbolTableRecord
100
AcDbLinetypeTableRecord
  2
Continuous
 70
0
  3

 72
65
 73
0
 40
0.0
  0
ENDTAB
  0
TABLE
  2
LAYER
  5
1
330
0
100
AcDbSymbolTable
 70
3
  0
LAYER
  5
27
330
1
100
AcDbSymbolTableRecord
100
AcDbLayerTableRecord
  2
0
 70
0
 62
7
  6
Continuous
370
-3
390
13
347
21
  0
LAYER
  5
28
330
1
100
AcDbSymbolTableRecord
100
AcDbLayerTableRecord
  2
Defpoints
 70
0
 62
7
  6
Continuous
290
0
370
-3
390
13
347
21
  0
LAYER
  5
2F
330
1
100
AcDbSymbolTableRecord
100
AcDbLayerTableRecord
  2
visible
 70
0
 62
7
  6
Continuous
370
-3
390
13
347
21
  0
ENDTAB
  0
TABLE
  2
STYLE
  5
5
330
0
100
AcDbSymbolTable
 70
1
  0
STYLE
  5
29
330
5
100
AcDbSymbolTableRecord
100
AcDbTextStyleTableRecord
  2
Standard
 70
0
 40
0.0
 41
1.0
 50
0.0
 71
0
 42
2.5
  3
txt
  4

  0
ENDTAB
  0
TABLE
  2
VIEW
  5
7
330
0
100
AcDbSymbolTable
 70
0
  0
ENDTAB
  0
TABLE
  2
UCS
  5
6
330
0
100
AcDbSymbolTable
 70
0
  0
ENDTAB
  0
TABLE
  2
APPID
  5
3
330
0
100
AcDbSymbolTable
 70
3
  0
APPID
  5
2A
330
3
100
AcDbSymbolTableRecord
100
AcDbRegAppTableRecord
  2
ACAD
 70
0
  0
APPID
  5
2DA
330
3
100
AcDbSymbolTableRecord
100
AcDbRegAppTableRecord
  2
HATCHBACKGROUNDCOLOR
 70
0
  0
APPID
  5
2DB
330
3
100
AcDbSymbolTableRecord
100
AcDbRegAppTableRecord
  2
EZDXF
 70
0
  0
ENDTAB
  0
TABLE
  2
DIMSTYLE
  5
4
330
0
100
AcDbSymbolTable
 70
1
100
AcDbDimStyleTable
  0
DIMSTYLE
105
2B
330
4
100
AcDbSymbolTableRecord
100
AcDbDimStyleTableRecord
  2
Standard
 70
0
 40
1.0
 41
2.5
 42
0.625
 43
3.75
 44
1.25
 45
0.0
 46
0.0
 47
0.0
 48
0.0
 49
2.5
140
2.5
141
2.5
142
0.0
143
0.03937007874
144
1.0
145
0.0
146
1.0
147
0.625
148
0.0
 69
0
 70
0
 71
0
 72
0
 73
0
 74
0
 75
0
 76
0
 77
1
 78
8
 79
3
170
0
171
3
172
1
173
0
174
0
175
0
176
0
177
0
178
0
179
2
271
2
272
2
273
2
274
3
275
0
276
0
277
2
278
44
279
0
280
0
281
0
282
0
283
0
284
8
285
0
286
0
288
0
289
3
290
0
371
-2
372
-2
  0
ENDTAB
  0
TABLE
  2
BLOCK_RECORD
  5
9
330
0
100
AcDbSymbolTable
 70
2
  0
BLOCK_RECORD
  5
17
330
9
100
AcDbSymbolTableRecord
100
AcDbBlockTableRecord
  2
*Model_Space
340
1A
 70
0
280
1
281
0
  0
BLOCK_RECORD
  5
1B
330
9
100
AcDbSymbolTableRecord
100
AcDbBlockTableRecord
  2
*Paper_Space
340
1E
 70
0
280
1
281
0
  0
ENDTAB
  0
ENDSEC
  0
SECTION
  2
BLOCKS
  0
BLOCK
  5
18
330
17
100
AcDbEntity
  8
0
100
AcDbBlockBegin
  2
*Model_Space
 70
0
 10
0.0
 20
0.0
 30
0.0
  3
*Model_Space
  1

  0
ENDBLK
  5
19
330
17
100
AcDbEntity
  8
0
100
AcDbBlockEnd
  0
BLOCK
  5
1C
330
1B
100
AcDbEntity
  8
0
100
AcDbBlockBegin
  2
*Paper_Space
 70
0
 10
0.0
 20
0.0
 30
0.0
  3
*Paper_Space
  1

  0
ENDBLK
  5
1D
330
1B
100
AcDbEntity
  8
0
100
AcDbBlockEnd
  0
ENDSEC
  0
SECTION
  2
ENTITIES
  0
ELLIPSE
  5
30
330
17
100
AcDbEntity
  8
visible
100
AcDbEllipse
 10
-62.681122145915
 20
-33.6961996967278
 30
0.0
 11
22.0
 21
0.0
 31
0.0
 40
0.39422729526717704
 41
3.0779722336425155
 42
3.141592653589793
  0
ELLIPSE
  5
31
330
17
100
AcDbEntity
  8
visible
100
AcDbEllipse
 10
-62.681122145915
 20
-33.6961996967278
 30
0.0
 11
22.0
 21
0.0
 31
0.0
 40
0.39422729526717704
 41
3.141592653589793
 42
4.12438637678584
  0
LINE
  5
32
330
17
100
AcDbEntity
  8
visible
100
AcDbLine
 10
-78.00932332407567
 20
-57.83833210082871
 30
0.0
 11
-78.00932332407567
 21
-46.81017645666269
 31
0.0
  0
ELLIPSE
  5
33
330
17
100
AcDbEntity
  8
visible
100
AcDbEllipse
 10
-62.681122145915
 20
-40.588796974331565
 30
0.0
 11
22.0
 21
0.0
 31
0.0
 40
0.39422729526717704
 41
3.643021092327313
 42
3.9415512397929318
  0
LINE
  5
34
330
17
100
AcDbEntity
  8
visible
100
AcDbLine
 10
-81.97285255521258
 20
-55.78587854533919
 30
0.0
 11
-81.97285255521258
 21
-44.75772290117317
 31
0.0
  0
ELLIPSE
  5
35
330
17
100
AcDbEntity
  8
visible
100
AcDbEllipse
 10
-62.681122145915
 20
-51.61695261849759
 30
0.0
 11
22.0
 21
0.0
 31
0.0
 40
0.39422729526717704
 41
3.643021092327313
 42
3.9415512397929318
  0
ELLIPSE
  5
36
330
17
100
AcDbEntity
  8
visible
100
AcDbEllipse
 10
62.68112220138502
 20
-30.6347082866736
 30
0.0
 11
22.0
 21
0.0
 31
0.0
 40
0.39422729526717704
 41
5.695182703580737
 42
6.283185307179586
  0
ELLIPSE
  5
37
330
17
100
AcDbEntity
  8
visible
100
AcDbEllipse
 10
62.68112220138502
 20
-30.6347082866736
 30
0.0
 11
22.0
 21
0.0
 31
0.0
 40
0.39422729526717704
 41
0.0
 42
0.06362041994727374
  0
LINE
  5
38
330
17
100
AcDbEntity
  8
visible
100
AcDbLine
 10
80.98622867619176
 20
-35.44562336396865
 30
0.0
 11
38.82901375983149
 21
-60.37491057990944
 31
0.0
  0
ELLIPSE
  5
39
330
17
100
AcDbEntity
  8
visible
100
AcDbEllipse
 10
20.523907285024748
 20
-55.56399550261438
 30
0.0
 11
22.0
 21
0.0
 31
0.0
 40
0.39422729526717704
 41
4.12438637678584
 42
5.695182703580737
  0
LINE
  5
3A
330
17
100
AcDbEntity
  8
visible
100
AcDbLine
 10
-74.88452646380877
 20
-40.91257231186855
 30
0.0
 11
8.320502967130977
 21
-62.78036811775513
 31
0.0
  0
ELLIPSE
  5
3B
330
17
100
AcDbEntity
  8
visible
100
AcDbEllipse
 10
-62.68112214591501
 20
-33.696199696727795
 30
0.0
 11
-21.389897948556634
 21
-0.0
 31
0.0
 40
0.3942272952671771
 41
-6.126733112828026
 42
-5.30039158398354
  0
LINE
  5
3C
330
17
100
AcDbEntity
  8
visible
100
AcDbLine
 10
8.658926694810077
 20
-62.58024431155164
 30
0.0
 11
-74.5461027361297
 21
-40.71244850566505
 31
0.0
  0
ELLIPSE
  5
3D
330
17
100
AcDbEntity
  8
visible
100
AcDbEllipse
 10
20.523907285024762
 20
-55.56399550261439
 30
0.0
 11
-21.389897948556634
 21
-0.0
 31
0.0
 40
0.394227295267177
 41
-5.300391583983539
 42
-3.7295952571886426
  0
LINE
  5
3E
330
17
100
AcDbEntity
  8
visible
100
AcDbLine
 10
80.47859308472955
 20
-35.31220749315149
 30
0.0
 11
38.32137816836928
 21
-60.24149470909228
 31
0.0
  0
ELLIPSE
  5
3F
330
17
100
AcDbEntity
  8
visible
100
AcDbEllipse
 10
62.68112220138504
 20
-30.6347082866736
 30
0.0
 11
-21.389897948556634
 21
-0.0
 31
0.0
 40
0.394227295267177
 41
-3.7295952571886426
 42
-3.2980448479413536
  0
LINE
  5
40
330
17
100
AcDbEntity
  8
visible
100
AcDbLine
 10
-52.00314337030032
 20
-66.22548853577791
 30
0.0
 11
-47.84289189875334
 21
-67.31887832607224
 31
0.0
  0
LINE
  5
41
330
17
100
AcDbEntity
  8
visible
100
AcDbLine
 10
-52.003143370300336
 20
-66.2254885357779
 30
0.0
 11
-52.003143370300336
 21
-68.9825274468194
 31
0.0
  0
LINE
  5
42
330
17
100
AcDbEntity
  8
visible
100
AcDbLine
 10
-47.842891898753344
 20
-67.31887832607224
 30
0.0
 11
-47.842891898753344
 21
-70.07591723711374
 31
0.0
  0
LINE
  5
43
330
17
100
AcDbEntity
  8
visible
100
AcDbLine
 10
-52.00314337030032
 20
-68.98252744681942
 30
0.0
 11
-47.84289189875334
 21
-70.07591723711374
 31
0.0
  0
LINE
  5
44
330
17
100
AcDbEntity
  8
visible
100
AcDbLine
 10
-43.68264042720635
 20
-68.41226811636656
 30
0.0
 11
-39.522388955659366
 21
-69.5056579066609
 31
0.0
  0
LINE
  5
45
330
17
100
AcDbEntity
  8
visible
100
AcDbLine
 10
-43.68264042720636
 20
-68.41226811636656
 30
0.0
 11
-43.68264042720636
 21
-71.16930702740807
 31
0.0
  0
LINE
  5
46
330
17
100
AcDbEntity
  8
visible
100
AcDbLine
 10
-39.522388955659366
 20
-69.50565790666089
 30
0.0
 11
-39.522388955659366
 21
-72.26269681770239
 31
0.0
  0
LINE
  5
47
330
17
100
AcDbEntity
  8
visible
100
AcDbLine
 10
-43.68264042720635
 20
-71.16930702740807
 30
0.0
 11
-39.522388955659366
 21
-72.2626968177024
 31
0.0
  0
LINE
  5
48
330
17
100
AcDbEntity
  8
visible
100
AcDbLine
 10
-38.13658639750932
 20
-57.77394717186514
 30
0.0
 11
-38.13658639750932
 21
-58.443013743538785
 31
0.0
  0
SPLINE
  5
49
330
17
100
AcDbEntity
  8
visible
100
AcDbSpline
 70
0
 71
2
 72
6
 73
3
 74
0
 40
0.0
 40
0.0
 40
0.0
 40
1.0
 40
1.0
 40
1.0
 10
-38.13658639750932
 20
-57.773947171865146
 30
0.0
 10
-38.43117157582691
 20
-57.4741597116922
 30
0.0
 10
-38.769359021233385
 20
-57.27310972602994
 30
0.0
  0
SPLINE
  5
4A
330
17
100
AcDbEntity
  8
visible
100
AcDbSpline
 70
0
 71
2
 72
6
 73
3
 74
0
 40
0.0
 40
0.0
 40
0.0
 40
1.0
 40
1.0
 40
1.0
 10
-38.7551394117115
 20
-57.834402374559446
 30
0.0
 10
-38.418891935670004
 20
-58.076085039203896
 30
0.0
 10
-38.13658639750932
 20
-58.4430137435388
 30
0.0
  0
SPLINE
  5
4B
330
17
100
AcDbEntity
  8
visible
100
AcDbSpline
 70
0
 71
2
 72
6
 73
3
 74
0
 40
0.0
 40
0.0
 40
0.0
 40
1.0
 40
1.0
 40
1.0
 10
-38.76935902123338
 20
-57.27310972602994
 30
0.0
 10
-39.11267521064708
 20
-57.07041722052933
 30
0.0
 10
-39.48744930208878
 20
-56.97287143794385
 30
0.0
  0
SPLINE
  5
4C
330
17
100
AcDbEntity
  8
visible
100
AcDbSpline
 70
0
 71
2
 72
6
 73
3
 74
0
 40
0.0
 40
0.0
 40
0.0
 40
1.0
 40
1.0
 40
1.0
 10
-39.45332223923625
 20
-57.50327281490691
 30
0.0
 10
-39.08679020973781
 20
-57.59899285942836
 30
0.0
 10
-38.7551394117115
 20
-57.834402374559446
 30
0.0
  0
SPLINE
  5
4D
330
17
100
AcDbEntity
  8
visible
100
AcDbSpline
 70
0
 71
3
 72
8
 73
4
 74
0
 40
0.0
 40
0.0
 40
0.0
 40
0.0
 40
0.8288796239745587
 40
0.8288796239745587
 40
0.8288796239745587
 40
0.8288796239745587
 10
-39.487449302088784
 20
-56.97287143794385
 30
0.0
 10
-39.96120905898723
 20
-56.84555395889482
 30
0.0
 10
-40.43285133221129
 20
-56.85091687947195
 30
0.0
 10
-40.79592779200071
 20
-57.069575533245796
 30
0.0
  0
SPLINE
  5
4E
330
17
100
AcDbEntity
  8
visible
100
AcDbSpline
 70
0
 71
2
 72
6
 73
3
 74
0
 40
0.0
 40
0.0
 40
0.0
 40
1.0
 40
1.0
 40
1.0
 10
-40.7959277920007
 20
-57.06957553324579
 30
0.0
 10
-40.908353545145474
 20
-57.13619160630611
 30
0.0
 10
-41.00610359902654
 20
-57.22553165874717
 30
0.0
  0
SPLINE
  5
4F
330
17
100
AcDbEntity
  8
visible
100
AcDbSpline
 70
0
 71
2
 72
6
 73
3
 74
0
 40
0.0
 40
0.0
 40
0.0
 40
0.19711649040036403
 40
0.19711649040036403
 40
0.19711649040036403
 10
-40.56813962575236
 20
-57.70186968605037
 30
0.0
 10
-40.48909629690294
 20
-57.62205230376977
 30
0.0
 10
-40.394413656563394
 20
-57.565944867579006
 30
0.0
  0
SPLINE
  5
50
330
17
100
AcDbEntity
  8
visible
100
AcDbSpline
 70
0
 71
3
 72
8
 73
4
 74
0
 40
0.0
 40
0.0
 40
0.0
 40
0.0
 40
1.0
 40
1.0
 40
1.0
 40
1.0
 10
-40.3944136565634
 20
-57.56594486757901
 30
0.0
 10
-40.13740970819546
 20
-57.411644972529196
 30
0.0
 10
-39.79953872302238
 20
-57.41067557733884
 30
0.0
 10
-39.45332223923625
 20
-57.50327281490691
 30
0.0
  0
SPLINE
  5
51
330
17
100
AcDbEntity
  8
visible
100
AcDbSpline
 70
0
 71
3
 72
11
 73
7
 74
0
 40
0.0
 40
0.0
 40
0.0
 40
0.0
 40
0.6298555326701425
 40
0.6298555326701425
 40
0.6298555326701425
 40
1.0
 40
1.0
 40
1.0
 40
1.0
 10
-41.006103599026545
 20
-57.22553165874718
 30
0.0
 10
-41.25557251320534
 20
-57.45074946307044
 30
0.0
 10
-41.41785044692826
 20
-57.78043686189867
 30
0.0
 10
-41.49504339359732
 20
-58.158320495675824
 30
0.0
 10
-41.54001841728685
 20
-58.38169492827919
 30
0.0
 10
-41.561893409547814
 20
-58.61638439343608
 30
0.0
 10
-41.56066837038023
 20
-58.86238889114648
 30
0.0
  0
SPLINE
  5
52
330
17
100
AcDbEntity
  8
visible
100
AcDbSpline
 70
0
 71
3
 72
8
 73
4
 74
0
 40
0.0
 40
0.0
 40
0.0
 40
0.0
 40
1.0
 40
1.0
 40
1.0
 40
1.0
 10
-40.95491300474774
 20
-59.02159242408875
 30
0.0
 10
-40.956108256141064
 20
-58.494561228532035
 30
0.0
 10
-40.8589623213885
 20
-57.993179625278756
 30
0.0
 10
-40.56813962575236
 20
-57.70186968605037
 30
0.0
  0
SPLINE
  5
53
330
17
100
AcDbEntity
  8
visible
100
AcDbSpline
 70
0
 71
3
 72
11
 73
7
 74
0
 40
0.0
 40
0.0
 40
0.0
 40
0.0
 40
0.36781947571318296
 40
0.36781947571318296
 40
0.36781947571318296
 40
1.0
 40
1.0
 40
1.0
 40
1.0
 10
-41.56066837038021
 20
-58.86238889114648
 30
0.0
 10
-41.56186560838476
 20
-59.1057924725024
 30
0.0
 10
-41.54024423707926
 20
-59.35003117616759
 30
0.0
 10
-41.495804256463614
 20
-59.595105002142034
 30
0.0
 10
-41.418807009158115
 20
-60.01446790056488
 30
0.0
 10
-41.25617844254207
 20
-60.43041113703592
 30
0.0
 10
-41.00610359902655
 20
-60.78760439244631
 30
0.0
  0
SPLINE
  5
54
330
17
100
AcDbEntity
  8
visible
100
AcDbSpline
 70
0
 71
3
 72
8
 73
4
 74
0
 40
0.0
 40
0.0
 40
0.0
 40
0.0
 40
1.0
 40
1.0
 40
1.0
 40
1.0
 10
-40.56813962575236
 20
-60.541476168646504
 30
0.0
 10
-40.8585569175775
 20
-60.09804130296652
 30
0.0
 10
-40.95615512322206
 20
-59.54691313250095
 30
0.0
 10
-40.95491300474774
 20
-59.02159242408875
 30
0.0
  0
SPLINE
  5
55
330
17
100
AcDbEntity
  8
visible
100
AcDbSpline
 70
0
 71
3
 72
11
 73
7
 74
0
 40
0.0
 40
0.0
 40
0.0
 40
0.0
 40
0.45830463551261696
 40
0.45830463551261696
 40
0.45830463551261696
 40
1.0
 40
1.0
 40
1.0
 40
1.0
 10
-41.006103599026545
 20
-60.78760439244631
 30
0.0
 10
-40.83210001629535
 20
-61.03873319842254
 30
0.0
 10
-40.61965121034481
 20
-61.256155403627986
 30
0.0
 10
-40.383870049349866
 20
-61.42464537387773
 30
0.0
 10
-40.105152958449516
 20
-61.6248529753809
 30
0.0
 10
-39.79766608828816
 20
-61.75722628563489
 30
0.0
 10
-39.48744930208879
 20
-61.83852458124187
 30
0.0
  0
SPLINE
  5
56
330
17
100
AcDbEntity
  8
visible
100
AcDbSpline
 70
0
 71
3
 72
11
 73
7
 74
0
 40
0.0
 40
0.0
 40
0.0
 40
0.0
 40
0.5601545193542448
 40
0.5601545193542448
 40
0.5601545193542448
 40
1.0
 40
1.0
 40
1.0
 40
1.0
 10
-39.45332223923626
 20
-61.32606163052583
 30
0.0
 10
-39.69522516067473
 20
-61.2626710382133
 30
0.0
 10
-39.931951701082674
 20
-61.15900232141287
 30
0.0
 10
-40.14118242654624
 20
-61.00140006218988
 30
0.0
 10
-40.307043975150364
 20
-60.876689660084935
 30
0.0
 10
-40.44936304155238
 20
-60.7233816955705
 30
0.0
 10
-40.56813962575236
 20
-60.5414761686465
 30
0.0
  0
SPLINE
  5
57
330
17
100
AcDbEntity
  8
visible
100
AcDbSpline
 70
0
 71
2
 72
6
 73
3
 74
0
 40
0.0
 40
0.0
 40
0.0
 40
1.0
 40
1.0
 40
1.0
 10
-39.487449302088784
 20
-61.83852458124187
 30
0.0
 10
-39.1170060169348
 20
-61.93664202508476
 30
0.0
 10
-38.77504686504214
 20
-61.91267523110942
 30
0.0
  0
SPLINE
  5
58
330
17
100
AcDbEntity
  8
visible
100
AcDbSpline
 70
0
 71
2
 72
6
 73
3
 74
0
 40
0.0
 40
0.0
 40
0.0
 40
1.0
 40
1.0
 40
1.0
 10
-38.755139411711504
 20
-61.36192237451017
 30
0.0
 10
-39.0867902064831
 20
-61.42300416010201
 30
0.0
 10
-39.45332223923626
 20
-61.32606163052583
 30
0.0
  0
SPLINE
  5
59
330
17
100
AcDbEntity
  8
visible
100
AcDbSpline
 70
0
 71
2
 72
6
 73
3
 74
0
 40
0.0
 40
0.0
 40
0.0
 40
1.0
 40
1.0
 40
1.0
 10
-38.77504686504214
 20
-61.91267523110942
 30
0.0
 10
-38.43572170659244
 20
-61.887510518123776
 30
0.0
 10
-38.13658639750932
 20
-61.74122923770466
 30
0.0
  0
SPLINE
  5
5A
330
17
100
AcDbEntity
  8
visible
100
AcDbSpline
 70
0
 71
2
 72
6
 73
3
 74
0
 40
0.0
 40
0.0
 40
0.0
 40
0.28132805309951414
 40
0.28132805309951414
 40
0.28132805309951414
 10
-38.13658639750932
 20
-61.07844498125799
 30
0.0
 10
-38.215802370862804
 20
-61.13918681723963
 30
0.0
 10
-38.29953806750132
 20
-61.18877214821314
 30
0.0
  0
SPLINE
  5
5B
330
17
100
AcDbEntity
  8
visible
100
AcDbSpline
 70
0
 71
2
 72
6
 73
3
 74
0
 40
0.0
 40
0.0
 40
0.0
 40
1.0
 40
1.0
 40
1.0
 10
-38.29953806750132
 20
-61.18877214821315
 30
0.0
 10
-38.5138012069291
 20
-61.31618906343318
 30
0.0
 10
-38.7551394117115
 20
-61.36192237451017
 30
0.0
  0
LINE
  5
5C
330
17
100
AcDbEntity
  8
visible
100
AcDbLine
 10
-38.13658639750932
 20
-61.078444981258
 30
0.0
 11
-38.13658639750932
 21
-61.741229237704665
 31
0.0
  0
LINE
  5
5D
330
17
100
AcDbEntity
  8
visible
100
AcDbLine
 10
-37.77540831565334
 20
-62.19738653547996
 30
0.0
 11
-36.154372830157975
 21
-57.93367584190409
 31
0.0
  0
LINE
  5
5E
330
17
100
AcDbEntity
  8
visible
100
AcDbLine
 10
-37.169652950020854
 20
-62.356590068422214
 30
0.0
 11
-37.77540831565333
 21
-62.19738653547995
 31
0.0
  0
LINE
  5
5F
330
17
100
AcDbEntity
  8
visible
100
AcDbLine
 10
-36.15437283015798
 20
-57.933675841904076
 30
0.0
 11
-35.50311471405546
 21
-58.10483832567769
 31
0.0
  0
LINE
  5
60
330
17
100
AcDbEntity
  8
visible
100
AcDbLine
 10
-36.78287957102547
 20
-61.25517778452148
 30
0.0
 11
-37.169652950020854
 21
-62.356590068422214
 31
0.0
  0
LINE
  5
61
330
17
100
AcDbEntity
  8
visible
100
AcDbLine
 10
-35.50311471405545
 20
-58.1048383256777
 30
0.0
 11
-33.88492315046447
 21
-63.21987683155989
 31
0.0
  0
LINE
  5
62
330
17
100
AcDbEntity
  8
visible
100
AcDbLine
 10
-34.86892012937919
 20
-61.758201153864896
 30
0.0
 11
-36.78287957102547
 21
-61.25517778452148
 31
0.0
  0
LINE
  5
63
330
17
100
AcDbEntity
  8
visible
100
AcDbLine
 10
-33.88492315046447
 20
-63.21987683155988
 30
0.0
 11
-34.48214675038382
 21
-63.06291560189849
 31
0.0
  0
LINE
  5
64
330
17
100
AcDbEntity
  8
visible
100
AcDbLine
 10
-34.48214675038381
 20
-63.062915601898496
 30
0.0
 11
-34.8689201293792
 21
-61.758201153864896
 31
0.0
  0
LINE
  5
65
330
17
100
AcDbEntity
  8
visible
100
AcDbLine
 10
-35.36213748411238
 20
-70.59904769695522
 30
0.0
 11
-31.201886012565396
 21
-71.69243748724955
 31
0.0
  0
LINE
  5
66
330
17
100
AcDbEntity
  8
visible
100
AcDbLine
 10
-35.36213748411238
 20
-70.59904769695522
 30
0.0
 11
-35.36213748411238
 21
-73.35608660799673
 31
0.0
  0
LINE
  5
67
330
17
100
AcDbEntity
  8
visible
100
AcDbLine
 10
-31.201886012565396
 20
-71.69243748724955
 30
0.0
 11
-31.201886012565396
 21
-74.44947639829105
 31
0.0
  0
LINE
  5
68
330
17
100
AcDbEntity
  8
visible
100
AcDbLine
 10
-35.36213748411238
 20
-73.35608660799673
 30
0.0
 11
-31.201886012565396
 21
-74.44947639829105
 31
0.0
  0
LINE
  5
69
330
17
100
AcDbEntity
  8
visible
100
AcDbLine
 10
-27.04163454101841
 20
-72.78582727754389
 30
0.0
 11
-22.88138306947142
 21
-73.87921706783821
 31
0.0
  0
LINE
  5
6A
330
17
100
AcDbEntity
  8
visible
100
AcDbLine
 10
-27.041634541018407
 20
-72.78582727754387
 30
0.0
 11
-27.041634541018407
 21
-75.54286618858538
 31
0.0
  0
LINE
  5
6B
330
17
100
AcDbEntity
  8
visible
100
AcDbLine
 10
-22.88138306947142
 20
-73.87921706783821
 30
0.0
 11
-22.88138306947142
 21
-76.63625597887972
 31
0.0
  0
LINE
  5
6C
330
17
100
AcDbEntity
  8
visible
100
AcDbLine
 10
-27.04163454101841
 20
-75.54286618858539
 30
0.0
 11
-22.88138306947142
 21
-76.63625597887972
 31
0.0
  0
LINE
  5
6D
330
17
100
AcDbEntity
  8
visible
100
AcDbLine
 10
-18.721131597924433
 20
-74.97260685813254
 30
0.0
 11
-14.560880126377448
 21
-76.06599664842688
 31
0.0
  0
LINE
  5
6E
330
17
100
AcDbEntity
  8
visible
100
AcDbLine
 10
-14.560880126377445
 20
-76.06599664842686
 30
0.0
 11
-14.560880126377445
 21
-78.82303555946837
 31
0.0
  0
LINE
  5
6F
330
17
100
AcDbEntity
  8
visible
100
AcDbLine
 10
-18.721131597924433
 20
-77.72964576917404
 30
0.0
 11
-14.560880126377448
 21
-78.82303555946838
 31
0.0
  0
LINE
  5
70
330
17
100
AcDbEntity
  8
visible
100
AcDbLine
 10
-18.721131597924433
 20
-74.97260685813254
 30
0.0
 11
-18.721131597924433
 21
-77.72964576917404
 31
0.0
  0
LINE
  5
71
330
17
100
AcDbEntity
  8
visible
100
AcDbLine
 10
-33.26494817531011
 20
-63.38281753663695
 30
0.0
 11
-33.26494817531011
 21
-58.693069219694436
 31
0.0
  0
LINE
  5
72
330
17
100
AcDbEntity
  8
visible
100
AcDbLine
 10
-32.707539482052056
 20
-63.529314684320916
 30
0.0
 11
-33.26494817531011
 21
-63.38281753663695
 31
0.0
  0
LINE
  5
73
330
17
100
AcDbEntity
  8
visible
100
AcDbLine
 10
-33.26494817531011
 20
-58.693069219694436
 30
0.0
 11
-32.40892768209238
 21
-58.918046982209106
 31
0.0
  0
LINE
  5
74
330
17
100
AcDbEntity
  8
visible
100
AcDbLine
 10
-32.707539482052056
 20
-59.411257053033815
 30
0.0
 11
-32.707539482052056
 21
-63.52931468432091
 31
0.0
  0
LINE
  5
75
330
17
100
AcDbEntity
  8
visible
100
AcDbLine
 10
-32.408927682092376
 20
-58.9180469822091
 30
0.0
 11
-31.32539343652443
 21
-62.394235634187645
 31
0.0
  0
LINE
  5
76
330
17
100
AcDbEntity
  8
visible
100
AcDbLine
 10
-31.612629548866597
 20
-62.915564703628135
 30
0.0
 11
-32.707539482052056
 21
-59.41125705303382
 31
0.0
  0
LINE
  5
77
330
17
100
AcDbEntity
  8
visible
100
AcDbLine
 10
-31.325393436524426
 20
-62.39423563418765
 30
0.0
 11
-30.236171347147717
 21
-59.48908688440579
 31
0.0
  0
LINE
  5
78
330
17
100
AcDbEntity
  8
visible
100
AcDbLine
 10
-31.035313402277904
 20
-63.0672938923008
 30
0.0
 11
-31.612629548866597
 21
-62.91556470362813
 31
0.0
  0
LINE
  5
79
330
17
100
AcDbEntity
  8
visible
100
AcDbLine
 10
-30.236171347147728
 20
-59.48908688440579
 30
0.0
 11
-29.380150853930004
 21
-59.714064646920455
 31
0.0
  0
LINE
  5
7A
330
17
100
AcDbEntity
  8
visible
100
AcDbLine
 10
-29.940403469092438
 20
-60.138510750464945
 30
0.0
 11
-31.0353134022779
 21
-63.06729389230081
 31
0.0
  0
LINE
  5
7B
330
17
100
AcDbEntity
  8
visible
100
AcDbLine
 10
-29.38015085393
 20
-59.71406464692045
 30
0.0
 11
-29.38015085393
 21
-64.40381296386296
 31
0.0
  0
LINE
  5
7C
330
17
100
AcDbEntity
  8
visible
100
AcDbLine
 10
-29.94040346909243
 20
-64.25656838175203
 30
0.0
 11
-29.94040346909243
 21
-60.13851075046494
 31
0.0
  0
LINE
  5
7D
330
17
100
AcDbEntity
  8
visible
100
AcDbLine
 10
-29.38015085393
 20
-64.40381296386296
 30
0.0
 11
-29.94040346909243
 21
-64.25656838175203
 31
0.0
  0
LINE
  5
7E
330
17
100
AcDbEntity
  8
visible
100
AcDbLine
 10
-27.12207686185401
 20
-62.49377328091585
 30
0.0
 11
-28.444500547389698
 21
-59.95997057338997
 31
0.0
  0
LINE
  5
7F
330
17
100
AcDbEntity
  8
visible
100
AcDbLine
 10
-28.637887236887387
 20
-64.59889334929926
 30
0.0
 11
-27.12207686185401
 21
-62.493773280915846
 31
0.0
  0
LINE
  5
80
330
17
100
AcDbEntity
  8
visible
100
AcDbLine
 10
-28.444500547389694
 20
-59.95997057338997
 30
0.0
 11
-27.82736949413971
 21
-60.122163844040074
 31
0.0
  0
LINE
  5
81
330
17
100
AcDbEntity
  8
visible
100
AcDbLine
 10
-28.01791226173303
 20
-64.76183405437632
 30
0.0
 11
-28.637887236887394
 21
-64.59889334929926
 31
0.0
  0
LINE
  5
82
330
17
100
AcDbEntity
  8
visible
100
AcDbLine
 10
-27.827369494139703
 20
-60.122163844040074
 30
0.0
 11
-26.77227446761553
 21
-62.14280449192954
 31
0.0
  0
LINE
  5
83
330
17
100
AcDbEntity
  8
visible
100
AcDbLine
 10
-26.814933296181195
 20
-63.08336373241302
 30
0.0
 11
-28.017912261733013
 21
-64.76183405437632
 31
0.0
  0
LINE
  5
84
330
17
100
AcDbEntity
  8
visible
100
AcDbLine
 10
-26.77227446761553
 20
-62.142804491929546
 30
0.0
 11
-25.711491597282603
 21
-60.678255057697584
 31
0.0
  0
LINE
  5
85
330
17
100
AcDbEntity
  8
visible
100
AcDbLine
 10
-25.620486096342514
 20
-65.39192127630278
 30
0.0
 11
-26.814933296181202
 21
-63.08336373241302
 31
0.0
  0
LINE
  5
86
330
17
100
AcDbEntity
  8
visible
100
AcDbLine
 10
-25.711491597282603
 20
-60.678255057697584
 30
0.0
 11
-25.094360544032618
 21
-60.84044832834769
 31
0.0
  0
LINE
  5
87
330
17
100
AcDbEntity
  8
visible
100
AcDbLine
 10
-25.00335504309252
 20
-65.55411454695289
 30
0.0
 11
-25.62048609634251
 21
-65.39192127630278
 31
0.0
  0
LINE
  5
88
330
17
100
AcDbEntity
  8
visible
100
AcDbLine
 10
-25.09436054403261
 20
-60.84044832834768
 30
0.0
 11
-26.459443058133967
 21
-62.73388981228061
 31
0.0
  0
LINE
  5
89
330
17
100
AcDbEntity
  8
visible
100
AcDbLine
 10
-26.459443058133974
 20
-62.73388981228062
 30
0.0
 11
-25.00335504309253
 21
-65.55411454695289
 31
0.0
  0
LINE
  5
8A
330
17
100
AcDbEntity
  8
visible
100
AcDbLine
 10
-81.97285255521258
 20
-55.78587854533919
 30
0.0
 11
-78.00932332407567
 21
-56.82756615112393
 31
0.0
  0
LINE
  5
8B
330
17
100
AcDbEntity
  8
visible
100
AcDbLine
 10
80.98622867619176
 20
-65.03784100914748
 30
0.0
 11
80.98622867619176
 21
-35.44562336396865
 31
0.0
  0
LINE
  5
8C
330
17
100
AcDbEntity
  8
visible
100
AcDbLine
 10
38.82901375983149
 20
-89.96712822508826
 30
0.0
 11
38.82901375983149
 21
-60.374910579909425
 31
0.0
  0
LINE
  5
8D
330
17
100
AcDbEntity
  8
visible
100
AcDbLine
 10
80.98622867619176
 20
-65.03784100914748
 30
0.0
 11
38.82901375983148
 21
-89.96712822508827
 31
0.0
  0
LINE
  5
8E
330
17
100
AcDbEntity
  8
visible
100
AcDbLine
 10
77.26973736119685
 20
-45.63874968423643
 30
0.0
 11
60.295911355399156
 21
-55.67606795802311
 31
0.0
  0
LINE
  5
8F
330
17
100
AcDbEntity
  8
visible
100
AcDbLine
 10
77.26973736119685
 20
-45.63874968423643
 30
0.0
 11
77.26973736119685
 21
-57.21831311061076
 31
0.0
  0
LINE
  5
90
330
17
100
AcDbEntity
  8
visible
100
AcDbLine
 10
60.295911355399156
 20
-55.67606795802311
 30
0.0
 11
60.295911355399156
 21
-67.25563138439743
 31
0.0
  0
LINE
  5
91
330
17
100
AcDbEntity
  8
visible
100
AcDbLine
 10
77.26973736119685
 20
-57.21831311061075
 30
0.0
 11
60.295911355399156
 21
-67.25563138439743
 31
0.0
  0
ELLIPSE
  5
92
330
17
100
AcDbEntity
  8
visible
100
AcDbEllipse
 10
47.70421690011786
 20
-73.50689899402317
 30
0.0
 11
-0.7625580730995187
 21
-2.901466040668191
 31
0.0
 40
0.5097766750243188
 41
0.4760144696263529
 42
3.1415926535897936
  0
ELLIPSE
  5
93
330
17
100
AcDbEntity
  8
visible
100
AcDbEllipse
 10
47.70421690011786
 20
-73.50689899402317
 30
0.0
 11
-0.7625580730995187
 21
-2.901466040668191
 31
0.0
 40
0.5097766750243188
 41
3.1415926535897936
 42
6.283185307179587
  0
ELLIPSE
  5
94
330
17
100
AcDbEntity
  8
visible
100
AcDbEllipse
 10
47.70421690011786
 20
-73.50689899402317
 30
0.0
 11
-0.7625580730995187
 21
-2.901466040668191
 31
0.0
 40
0.5097766750243188
 41
8.881784197001252e-16
 42
0.4760144696263531
  0
LINE
  5
95
330
17
100
AcDbEntity
  8
visible
100
AcDbLine
 10
-50.33904278149664
 20
-66.66284445194424
 30
0.0
 11
-50.33904278149664
 21
-67.99847663566386
 31
0.0
  0
LINE
  5
96
330
17
100
AcDbEntity
  8
visible
100
AcDbLine
 10
-52.003143370300336
 20
-68.9825274468194
 30
0.0
 11
-50.33904278149664
 21
-67.99847663566385
 31
0.0
  0
LINE
  5
97
330
17
100
AcDbEntity
  8
visible
100
AcDbLine
 10
-50.33904278149663
 20
-67.99847663566386
 30
0.0
 11
-47.842891898753344
 21
-68.65451050979186
 31
0.0
  0
LINE
  5
98
330
17
100
AcDbEntity
  8
visible
100
AcDbLine
 10
-42.01853983840266
 20
-68.84962403253289
 30
0.0
 11
-42.01853983840266
 21
-70.18525621625251
 31
0.0
  0
LINE
  5
99
330
17
100
AcDbEntity
  8
visible
100
AcDbLine
 10
-43.68264042720636
 20
-71.16930702740807
 30
0.0
 11
-42.01853983840266
 21
-70.18525621625251
 31
0.0
  0
LINE
  5
9A
330
17
100
AcDbEntity
  8
visible
100
AcDbLine
 10
-42.01853983840266
 20
-70.18525621625251
 30
0.0
 11
-39.522388955659366
 21
-70.84129009038051
 31
0.0
  0
SPLINE
  5
9B
330
17
100
AcDbEntity
  8
visible
100
AcDbSpline
 70
0
 71
2
 72
6
 73
3
 74
0
 40
0.0
 40
0.0
 40
0.0
 40
1.0
 40
1.0
 40
1.0
 10
-38.13658639750932
 20
-57.87462636188434
 30
0.0
 10
-38.275624124333206
 20
-57.742079510851184
 30
0.0
 10
-38.42231929395076
 20
-57.63759221232833
 30
0.0
  0
SPLINE
  5
9C
330
17
100
AcDbEntity
  8
visible
100
AcDbSpline
 70
0
 71
2
 72
6
 73
3
 74
0
 40
0.0
 40
0.0
 40
0.0
 40
1.0
 40
1.0
 40
1.0
 10
-38.42231929395076
 20
-57.63759221232833
 30
0.0
 10
-38.75079227390639
 20
-57.40362912818047
 30
0.0
 10
-39.12050212147551
 20
-57.306462652675805
 30
0.0
  0
SPLINE
  5
9D
330
17
100
AcDbEntity
  8
visible
100
AcDbSpline
 70
0
 71
2
 72
6
 73
3
 74
0
 40
0.0
 40
0.0
 40
0.0
 40
0.045199421228961215
 40
0.045199421228961215
 40
0.045199421228961215
 10
-40.6732834812658
 20
-57.02872149651607
 30
0.0
 10
-40.64821747456664
 20
-57.00584875917993
 30
0.0
 10
-40.62231481384017
 20
-56.98452750910464
 30
0.0
  0
SPLINE
  5
9E
330
17
100
AcDbEntity
  8
visible
100
AcDbSpline
 70
0
 71
2
 72
6
 73
3
 74
0
 40
0.0
 40
0.0
 40
0.0
 40
0.7941168604354151
 40
0.7941168604354151
 40
0.7941168604354151
 10
-39.12050212147551
 20
-57.306462652675805
 30
0.0
 10
-39.69865414298668
 20
-57.154513780863184
 30
0.0
 10
-40.061593538789964
 20
-57.36913470536949
 30
0.0
  0
SPLINE
  5
9F
330
17
100
AcDbEntity
  8
visible
100
AcDbSpline
 70
0
 71
2
 72
6
 73
3
 74
0
 40
0.0
 40
0.0
 40
0.0
 40
1.0
 40
1.0
 40
1.0
 10
-41.22784825261948
 20
-58.66557872891538
 30
0.0
 10
-41.22784825261948
 20
-57.534761988058506
 30
0.0
 10
-40.6732834812658
 20
-57.02872149651607
 30
0.0
  0
SPLINE
  5
A0
330
17
100
AcDbEntity
  8
visible
100
AcDbSpline
 70
0
 71
2
 72
6
 73
3
 74
0
 40
0.0
 40
0.0
 40
0.0
 40
1.0
 40
1.0
 40
1.0
 10
-40.6732834812658
 20
-60.5907942302152
 30
0.0
 10
-41.22784825261948
 20
-59.79325431215875
 30
0.0
 10
-41.22784825261948
 20
-58.66557872891538
 30
0.0
  0
SPLINE
  5
A1
330
17
100
AcDbEntity
  8
visible
100
AcDbSpline
 70
0
 71
2
 72
6
 73
3
 74
0
 40
0.0
 40
0.0
 40
0.0
 40
1.0
 40
1.0
 40
1.0
 10
-39.154629184328044
 20
-61.64171441901077
 30
0.0
 10
-40.11871870991213
 20
-61.38833414827166
 30
0.0
 10
-40.6732834812658
 20
-60.5907942302152
 30
0.0
  0
SPLINE
  5
A2
330
17
100
AcDbEntity
  8
visible
100
AcDbSpline
 70
0
 71
2
 72
6
 73
3
 74
0
 40
0.0
 40
0.0
 40
0.0
 40
1.0
 40
1.0
 40
1.0
 10
-38.442226747281396
 20
-61.71586506887831
 30
0.0
 10
-38.779231492950174
 20
-61.74037576336936
 30
0.0
 10
-39.154629184328044
 20
-61.64171441901077
 30
0.0
  0
SPLINE
  5
A3
330
17
100
AcDbEntity
  8
visible
100
AcDbSpline
 70
0
 71
2
 72
6
 73
3
 74
0
 40
0.0
 40
0.0
 40
0.0
 40
1.0
 40
1.0
 40
1.0
 10
-38.13658639750932
 20
-61.66662108964296
 30
0.0
 10
-38.28556553424844
 20
-61.70447094110831
 30
0.0
 10
-38.442226747281396
 20
-61.71586506887831
 30
0.0
  0
LINE
  5
A4
330
17
100
AcDbEntity
  8
visible
100
AcDbLine
 10
-37.4425881978926
 20
-62.00057637324885
 30
0.0
 11
-35.919816013051836
 21
-57.99532164164042
 31
0.0
  0
LINE
  5
A5
330
17
100
AcDbEntity
  8
visible
100
AcDbLine
 10
-37.4425881978926
 20
-62.00057637324885
 30
0.0
 11
-37.77540831565334
 21
-62.19738653547996
 31
0.0
  0
LINE
  5
A6
330
17
100
AcDbEntity
  8
visible
100
AcDbLine
 10
-37.078259213264346
 20
-62.09632866005777
 30
0.0
 11
-37.4425881978926
 21
-62.00057637324884
 31
0.0
  0
LINE
  5
A7
330
17
100
AcDbEntity
  8
visible
100
AcDbLine
 10
-36.450059453264736
 20
-61.05836762229037
 30
0.0
 11
-36.782879571025475
 21
-61.25517778452148
 31
0.0
  0
LINE
  5
A8
330
17
100
AcDbEntity
  8
visible
100
AcDbLine
 10
-34.53610001161846
 20
-61.561390991633786
 30
0.0
 11
-36.450059453264736
 21
-61.05836762229037
 31
0.0
  0
LINE
  5
A9
330
17
100
AcDbEntity
  8
visible
100
AcDbLine
 10
-34.53610001161846
 20
-61.561390991633786
 30
0.0
 11
-34.8689201293792
 21
-61.758201153864896
 31
0.0
  0
LINE
  5
AA
330
17
100
AcDbEntity
  8
visible
100
AcDbLine
 10
-33.98301405936353
 20
-62.90981541028892
 30
0.0
 11
-34.14932663262308
 21
-62.86610543966738
 31
0.0
  0
LINE
  5
AB
330
17
100
AcDbEntity
  8
visible
100
AcDbLine
 10
-34.14932663262307
 20
-62.86610543966738
 30
0.0
 11
-34.48214675038381
 21
-63.06291560189849
 31
0.0
  0
LINE
  5
AC
330
17
100
AcDbEntity
  8
visible
100
AcDbLine
 10
-34.14932663262307
 20
-62.86610543966738
 30
0.0
 11
-34.53610001161846
 21
-61.561390991633786
 31
0.0
  0
LINE
  5
AD
330
17
100
AcDbEntity
  8
visible
100
AcDbLine
 10
-33.69803689530869
 20
-71.03640361312155
 30
0.0
 11
-33.69803689530869
 21
-72.37203579684117
 31
0.0
  0
LINE
  5
AE
330
17
100
AcDbEntity
  8
visible
100
AcDbLine
 10
-35.36213748411238
 20
-73.35608660799673
 30
0.0
 11
-33.69803689530868
 21
-72.37203579684117
 31
0.0
  0
LINE
  5
AF
330
17
100
AcDbEntity
  8
visible
100
AcDbLine
 10
-33.69803689530869
 20
-72.37203579684117
 30
0.0
 11
-31.2018860125654
 21
-73.02806967096919
 31
0.0
  0
LINE
  5
B0
330
17
100
AcDbEntity
  8
visible
100
AcDbLine
 10
-25.377533952214712
 20
-73.22318319371021
 30
0.0
 11
-25.377533952214712
 21
-74.55881537742984
 31
0.0
  0
LINE
  5
B1
330
17
100
AcDbEntity
  8
visible
100
AcDbLine
 10
-27.041634541018404
 20
-75.54286618858538
 30
0.0
 11
-25.377533952214712
 21
-74.55881537742982
 31
0.0
  0
LINE
  5
B2
330
17
100
AcDbEntity
  8
visible
100
AcDbLine
 10
-25.37753395221472
 20
-74.55881537742984
 30
0.0
 11
-22.88138306947142
 21
-75.21484925155784
 31
0.0
  0
LINE
  5
B3
330
17
100
AcDbEntity
  8
visible
100
AcDbLine
 10
-18.721131597924433
 20
-77.72964576917404
 30
0.0
 11
-17.057031009120735
 21
-76.74559495801849
 31
0.0
  0
LINE
  5
B4
330
17
100
AcDbEntity
  8
visible
100
AcDbLine
 10
-17.057031009120735
 20
-76.74559495801849
 30
0.0
 11
-14.560880126377448
 21
-77.40162883214649
 31
0.0
  0
LINE
  5
B5
330
17
100
AcDbEntity
  8
visible
100
AcDbLine
 10
-17.057031009120738
 20
-75.40996277429886
 30
0.0
 11
-17.057031009120738
 21
-76.74559495801849
 31
0.0
  0
LINE
  5
B6
330
17
100
AcDbEntity
  8
visible
100
AcDbLine
 10
-32.93212805754937
 20
-63.18600737440584
 30
0.0
 11
-32.93212805754937
 21
-58.780540402927706
 31
0.0
  0
LINE
  5
B7
330
17
100
AcDbEntity
  8
visible
100
AcDbLine
 10
-32.93212805754937
 20
-63.18600737440584
 30
0.0
 11
-33.26494817531011
 21
-63.38281753663695
 31
0.0
  0
LINE
  5
B8
330
17
100
AcDbEntity
  8
visible
100
AcDbLine
 10
-32.707539482052056
 20
-63.245033338856544
 30
0.0
 11
-32.93212805754937
 21
-63.18600737440584
 31
0.0
  0
LINE
  5
B9
330
17
100
AcDbEntity
  8
visible
100
AcDbLine
 10
-32.374719364291316
 20
-59.21444689080271
 30
0.0
 11
-32.707539482052056
 21
-59.41125705303382
 31
0.0
  0
LINE
  5
BA
330
17
100
AcDbEntity
  8
visible
100
AcDbLine
 10
-30.992573318763693
 20
-62.197425471956535
 30
0.0
 11
-31.325393436524433
 21
-62.394235634187645
 31
0.0
  0
LINE
  5
BB
330
17
100
AcDbEntity
  8
visible
100
AcDbLine
 10
-31.279809431105853
 20
-62.71875454139702
 30
0.0
 11
-32.374719364291316
 21
-59.214446890802705
 31
0.0
  0
LINE
  5
BC
330
17
100
AcDbEntity
  8
visible
100
AcDbLine
 10
-31.279809431105853
 20
-62.71875454139702
 30
0.0
 11
-31.612629548866593
 21
-62.91556470362813
 31
0.0
  0
LINE
  5
BD
330
17
100
AcDbEntity
  8
visible
100
AcDbLine
 10
-30.992573318763693
 20
-62.197425471956535
 30
0.0
 11
-30.00037571881407
 21
-59.551058266275206
 31
0.0
  0
LINE
  5
BE
330
17
100
AcDbEntity
  8
visible
100
AcDbLine
 10
-30.938544219621704
 20
-62.8084452489351
 30
0.0
 11
-31.27980943110585
 21
-62.71875454139702
 31
0.0
  0
LINE
  5
BF
330
17
100
AcDbEntity
  8
visible
100
AcDbLine
 10
-29.60758335133169
 20
-59.94170058823383
 30
0.0
 11
-29.94040346909243
 21
-60.13851075046494
 31
0.0
  0
LINE
  5
C0
330
17
100
AcDbEntity
  8
visible
100
AcDbLine
 10
-29.60758335133169
 20
-64.05975821952093
 30
0.0
 11
-29.60758335133169
 21
-59.941700588233836
 31
0.0
  0
LINE
  5
C1
330
17
100
AcDbEntity
  8
visible
100
AcDbLine
 10
-29.60758335133169
 20
-64.05975821952093
 30
0.0
 11
-29.94040346909243
 21
-64.25656838175205
 31
0.0
  0
LINE
  5
C2
330
17
100
AcDbEntity
  8
visible
100
AcDbLine
 10
-29.38015085393
 20
-64.1195316183986
 30
0.0
 11
-29.60758335133169
 21
-64.05975821952093
 31
0.0
  0
LINE
  5
C3
330
17
100
AcDbEntity
  8
visible
100
AcDbLine
 10
-26.78925674409327
 20
-62.296963118684744
 30
0.0
 11
-27.939723368822968
 21
-60.09263520128401
 31
0.0
  0
LINE
  5
C4
330
17
100
AcDbEntity
  8
visible
100
AcDbLine
 10
-26.78925674409327
 20
-62.296963118684744
 30
0.0
 11
-27.12207686185401
 21
-62.49377328091585
 31
0.0
  0
LINE
  5
C5
330
17
100
AcDbEntity
  8
visible
100
AcDbLine
 10
-28.305067119126647
 20
-64.40208318706816
 30
0.0
 11
-26.789256744093265
 21
-62.296963118684744
 31
0.0
  0
LINE
  5
C6
330
17
100
AcDbEntity
  8
visible
100
AcDbLine
 10
-28.305067119126647
 20
-64.40208318706816
 30
0.0
 11
-28.637887236887387
 21
-64.59889334929927
 31
0.0
  0
LINE
  5
C7
330
17
100
AcDbEntity
  8
visible
100
AcDbLine
 10
-27.846460109137066
 20
-64.5226134545074
 30
0.0
 11
-28.30506711912665
 21
-64.40208318706816
 31
0.0
  0
LINE
  5
C8
330
17
100
AcDbEntity
  8
visible
100
AcDbLine
 10
-26.439454349854795
 20
-61.94599432969843
 30
0.0
 11
-26.772274467615535
 21
-62.14280449192954
 31
0.0
  0
LINE
  5
C9
330
17
100
AcDbEntity
  8
visible
100
AcDbLine
 10
-26.482113178420462
 20
-62.8865535701819
 30
0.0
 11
-26.814933296181202
 21
-63.08336373241301
 31
0.0
  0
LINE
  5
CA
330
17
100
AcDbEntity
  8
visible
100
AcDbLine
 10
-26.439454349854795
 20
-61.94599432969843
 30
0.0
 11
-25.55164998825662
 21
-60.72026434116723
 31
0.0
  0
LINE
  5
CB
330
17
100
AcDbEntity
  8
visible
100
AcDbLine
 10
-25.287665978581778
 20
-65.19511111407166
 30
0.0
 11
-26.482113178420462
 21
-62.8865535701819
 31
0.0
  0
LINE
  5
CC
330
17
100
AcDbEntity
  8
visible
100
AcDbLine
 10
-25.287665978581778
 20
-65.19511111407166
 30
0.0
 11
-25.620486096342518
 21
-65.39192127630278
 31
0.0
  0
LINE
  5
CD
330
17
100
AcDbEntity
  8
visible
100
AcDbLine
 10
-25.17317336293605
 20
-65.22520185687107
 30
0.0
 11
-25.287665978581778
 21
-65.19511111407166
 31
0.0
  0
LINE
  5
CE
330
17
100
AcDbEntity
  8
visible
100
AcDbLine
 10
76.78054917085228
 20
-57.089745552492346
 30
0.0
 11
77.26973736119686
 21
-57.21831311061075
 31
0.0
  0
ELLIPSE
  5
CF
330
17
100
AcDbEntity
  8
visible
100
AcDbEllipse
 10
45.20806601718967
 20
-72.85086511984657
 30
0.0
 11
-0.7625580730995187
 21
-2.901466040668191
 31
0.0
 40
0.5097766750243188
 41
1.0043391494478315
 42
2.1372535041419622
  0
LINE
  5
D0
330
17
100
AcDbEntity
  8
visible
100
AcDbLine
 10
-34.715267091594264
 20
-60.986588143668826
 30
0.0
 11
-35.497345615298165
 21
-58.44716356943106
 31
0.0
  0
ELLIPSE
  5
D1
330
17
100
AcDbEntity
  8
visible
100
AcDbEllipse
 10
20.523907285024748
 20
-49.130904710184204
 30
0.0
 11
-21.2
 21
-0.0
 31
0.0
 40
0.39422729526717704
 41
-5.300391583983539
 42
-3.7295952571886426
  0
LINE
  5
D2
330
17
100
AcDbEntity
  8
visible
100
AcDbLine
 10
-35.497345615298165
 20
-58.44716356943107
 30
0.0
 11
-35.830165733058905
 21
-58.64397373166218
 31
0.0
  0
LINE
  5
D3
330
17
100
AcDbEntity
  8
visible
100
AcDbLine
 10
-35.048087209355
 20
-61.18339830589994
 30
0.0
 11
-35.830165733058905
 21
-58.64397373166218
 31
0.0
  0
LINE
  5
D4
330
17
100
AcDbEntity
  8
visible
100
AcDbLine
 10
-34.715267091594264
 20
-60.986588143668826
 30
0.0
 11
-35.048087209355
 21
-61.183398305899935
 31
0.0
  0
LINE
  5
D5
330
17
100
AcDbEntity
  8
visible
100
AcDbLine
 10
-35.8301657330589
 20
-58.64397373166217
 30
0.0
 11
-36.60940033485842
 21
-60.77305680549944
 31
0.0
  0
LINE
  5
D6
330
17
100
AcDbEntity
  8
visible
100
AcDbLine
 10
-36.60940033485842
 20
-60.77305680549944
 30
0.0
 11
-35.048087209355
 21
-61.183398305899935
 31
0.0
  0
ELLIPSE
  5
D7
330
17
100
AcDbEntity
  8
visible
100
AcDbEllipse
 10
62.68112220138502
 20
-29.531892722257
 30
0.0
 11
22.0
 21
0.0
 31
0.0
 40
0.39422729526717704
 41
5.695182703580737
 42
6.283185307179586
  0
LINE
  5
D8
330
17
100
AcDbEntity
  8
visible
100
AcDbLine
 10
80.98622867619176
 20
-34.34280779955205
 30
0.0
 11
38.82901375983149
 21
-59.27209501549284
 31
0.0
  0
ELLIPSE
  5
D9
330
17
100
AcDbEntity
  8
visible
100
AcDbEllipse
 10
20.523907285024748
 20
-54.46117993819777
 30
0.0
 11
22.0
 21
0.0
 31
0.0
 40
0.39422729526717704
 41
4.12438637678584
 42
5.695182703580737
  0
LINE
  5
DA
330
17
100
AcDbEntity
  8
visible
100
AcDbLine
 10
-74.88452646380877
 20
-39.80975674745195
 30
0.0
 11
8.320502967130977
 21
-61.67755255333853
 31
0.0
  0
ELLIPSE
  5
DB
330
17
100
AcDbEntity
  8
visible
100
AcDbEllipse
 10
-62.681122145915
 20
-32.59338413231119
 30
0.0
 11
22.0
 21
0.0
 31
0.0
 40
0.39422729526717704
 41
3.141592653589793
 42
4.12438637678584
  0
ELLIPSE
  5
DC
330
17
100
AcDbEntity
  8
visible
100
AcDbEllipse
 10
-77.24200229697661
 20
-24.7351163023353
 30
0.0
 11
3.2
 21
0.0
 31
0.0
 40
0.39422729526717704
 41
5.695182703580737
 42
6.283185307179586
  0
ELLIPSE
  5
DD
330
17
100
AcDbEntity
  8
visible
100
AcDbEllipse
 10
-77.24200229697661
 20
-24.7351163023353
 30
0.0
 11
3.2
 21
0.0
 31
0.0
 40
0.39422729526717704
 41
0.0
 42
3.141592653589793
  0
ELLIPSE
  5
DE
330
17
100
AcDbEntity
  8
visible
100
AcDbEllipse
 10
-77.24200229697661
 20
-24.7351163023353
 30
0.0
 11
3.2
 21
0.0
 31
0.0
 40
0.39422729526717704
 41
3.141592653589793
 42
5.695182703580737
  0
ELLIPSE
  5
DF
330
17
100
AcDbEntity
  8
visible
100
AcDbEllipse
 10
23.43608331446049
 20
-51.19514922745807
 30
0.0
 11
3.2
 21
0.0
 31
0.0
 40
0.39422729526717704
 41
5.695182703580737
 42
6.283185307179586
  0
ELLIPSE
  5
E0
330
17
100
AcDbEntity
  8
visible
100
AcDbEllipse
 10
23.43608331446049
 20
-51.19514922745807
 30
0.0
 11
3.2
 21
0.0
 31
0.0
 40
0.39422729526717704
 41
0.0
 42
3.141592653589793
  0
ELLIPSE
  5
E1
330
17
100
AcDbEntity
  8
visible
100
AcDbEllipse
 10
23.43608331446049
 20
-51.19514922745807
 30
0.0
 11
3.2
 21
0.0
 31
0.0
 40
0.39422729526717704
 41
3.141592653589793
 42
5.695182703580737
  0
ELLIPSE
  5
E2
330
17
100
AcDbEntity
  8
visible
100
AcDbEllipse
 10
77.24200235244663
 20
-19.377506333428386
 30
0.0
 11
3.2
 21
0.0
 31
0.0
 40
0.39422729526717704
 41
5.695182703580737
 42
6.283185307179586
  0
ELLIPSE
  5
E3
330
17
100
AcDbEntity
  8
visible
100
AcDbEllipse
 10
77.24200235244663
 20
-19.377506333428386
 30
0.0
 11
3.2
 21
0.0
 31
0.0
 40
0.39422729526717704
 41
0.0
 42
3.141592653589793
  0
ELLIPSE
  5
E4
330
17
100
AcDbEntity
  8
visible
100
AcDbEllipse
 10
77.24200235244663
 20
-19.377506333428386
 30
0.0
 11
3.2
 21
0.0
 31
0.0
 40
0.39422729526717704
 41
3.141592653589793
 42
5.695182703580737
  0
ELLIPSE
  5
E5
330
17
100
AcDbEntity
  8
visible
100
AcDbEllipse
 10
-77.24200229697661
 20
-26.573142243029636
 30
0.0
 11
1.65
 21
0.0
 31
0.0
 40
0.39422729526717704
 41
1.1790202243188617
 42
1.962572429270932
  0
ELLIPSE
  5
E6
330
17
100
AcDbEntity
  8
visible
100
AcDbEllipse
 10
23.43608331446049
 20
-53.033175168152404
 30
0.0
 11
1.65
 21
0.0
 31
0.0
 40
0.39422729526717704
 41
1.1790202243188617
 42
1.962572429270932
  0
ELLIPSE
  5
E7
330
17
100
AcDbEntity
  8
visible
100
AcDbEllipse
 10
77.24200235244663
 20
-21.215532274122722
 30
0.0
 11
1.65
 21
0.0
 31
0.0
 40
0.39422729526717704
 41
1.1790202243188617
 42
1.962572429270932
  0
ELLIPSE
  5
E8
330
17
100
AcDbEntity
  8
visible
100
AcDbEllipse
 10
-77.24200229697661
 20
-26.573142243029636
 30
0.0
 11
3.2
 21
0.0
 31
0.0
 40
0.39422729526717704
 41
0.8161185344161205
 42
2.3254741191736725
  0
ELLIPSE
  5
E9
330
17
100
AcDbEntity
  8
visible
100
AcDbEllipse
 10
23.43608331446049
 20
-53.033175168152404
 30
0.0
 11
3.2
 21
0.0
 31
0.0
 40
0.39422729526717704
 41
0.8161185344161187
 42
2.3254741191736743
  0
ELLIPSE
  5
EA
330
17
100
AcDbEntity
  8
visible
100
AcDbEllipse
 10
77.24200235244663
 20
-21.215532274122722
 30
0.0
 11
3.2
 21
0.0
 31
0.0
 40
0.39422729526717704
 41
0.8161185344161205
 42
2.3254741191736725
  0
ELLIPSE
  5
EB
330
17
100
AcDbEntity
  8
visible
100
AcDbEllipse
 10
26.625609444711234
 20
-20.3540165221607
 30
0.0
 11
-5.0
 21
-0.0
 31
0.0
 40
0.39422729526717704
 41
-6.283185307179586
 42
-5.300391583983539
  0
ELLIPSE
  5
EC
330
17
100
AcDbEntity
  8
visible
100
AcDbEllipse
 10
24.29586862038606
 20
-21.73168765777848
 30
0.0
 11
0.20334881949320516
 21
0.7737242775115176
 31
0.0
 40
0.5097766750243188
 41
-4.236374510758337
 42
-3.1709386942479543
  0
LINE
  5
ED
330
17
100
AcDbEntity
  8
visible
100
AcDbLine
 10
27.18030964060933
 20
-22.86881303965542
 30
0.0
 11
23.85210846337174
 21
-21.99410120741996
 31
0.0
  0
ELLIPSE
  5
EE
330
17
100
AcDbEntity
  8
visible
100
AcDbEllipse
 10
27.624069797623648
 20
-22.606399490013942
 30
0.0
 11
0.20334881949320516
 21
0.7737242775115176
 31
0.0
 40
0.5097766750243188
 41
-4.236374510758337
 42
-3.170938694247612
  0
SPLINE
  5
EF
330
17
100
AcDbEntity
  8
visible
100
AcDbSpline
 70
0
 71
1
 72
4
 73
2
 74
0
 40
0.0
 40
0.0
 40
1.0
 40
1.0
 10
21.941840266366164
 20
-13.547047066442907
 30
0.0
 10
21.94209272225492
 20
-13.544348671692102
 30
0.0
  0
SPLINE
  5
F0
330
17
100
AcDbEntity
  8
visible
100
AcDbSpline
 70
0
 71
2
 72
6
 73
3
 74
0
 40
0.0
 40
0.0
 40
0.0
 40
1.0
 40
1.0
 40
1.0
 10
21.942092722254916
 20
-13.544348671692102
 30
0.0
 10
21.949650773370678
 20
-13.531170760025333
 30
0.0
 10
22.11431211104008
 20
-13.509368140206178
 30
0.0
  0
SPLINE
  5
F1
330
17
100
AcDbEntity
  8
visible
100
AcDbSpline
 70
0
 71
2
 72
6
 73
3
 74
0
 40
0.0
 40
0.0
 40
0.0
 40
1.0
 40
1.0
 40
1.0
 10
22.11431211104002
 20
-13.509368140206133
 30
0.0
 10
22.2621802461085
 20
-13.491220940174177
 30
0.0
 10
22.45518719010728
 20
-13.540966543896083
 30
0.0
  0
ELLIPSE
  5
F2
330
17
100
AcDbEntity
  8
visible
100
AcDbEllipse
 10
29.953810621948822
 20
-21.22872835439616
 30
0.0
 11
-5.0
 21
-0.0
 31
0.0
 40
0.39422729526717704
 41
-5.300391583983539
 42
-3.7295952571886426
  0
ELLIPSE
  5
F3
330
17
100
AcDbEntity
  8
visible
100
AcDbEllipse
 10
33.44842185804829
 20
-22.1471757782434
 30
0.0
 11
-0.40720384376610047
 21
0.6886109421306877
 31
0.0
 40
0.7646650124515153
 41
3.141592653589793
 42
4.054121012654259
  0
LINE
  5
F4
330
17
100
AcDbEntity
  8
visible
100
AcDbLine
 10
38.14969469141768
 20
-19.935683359299468
 30
0.0
 11
34.11406209349581
 21
-22.322118144690492
 31
0.0
  0
LINE
  5
F5
330
17
100
AcDbEntity
  8
visible
100
AcDbLine
 10
25.738461421059753
 20
-14.403870757117794
 30
0.0
 11
22.45518719010729
 21
-13.540966543896042
 31
0.0
  0
SPLINE
  5
F6
330
17
100
AcDbEntity
  8
visible
100
AcDbSpline
 70
0
 71
3
 72
8
 73
4
 74
0
 40
0.0
 40
0.0
 40
0.0
 40
0.0
 40
0.7212001735473876
 40
0.7212001735473876
 40
0.7212001735473876
 40
0.7212001735473876
 10
25.738461421059753
 20
-14.403870757117792
 30
0.0
 10
26.0035163629673
 20
-14.475510728861757
 30
0.0
 10
26.38712889919767
 20
-14.457819491128314
 30
0.0
 10
26.66539021391973
 20
-14.374778439116952
 30
0.0
  0
ELLIPSE
  5
F7
330
17
100
AcDbEntity
  8
visible
100
AcDbEllipse
 10
2.7735012508856016e-08
 20
-7.627807683431293
 30
0.0
 11
58.0
 21
0.0
 31
0.0
 40
0.39422729526717704
 41
3.141592653589793
 42
5.612066743793663
  0
LINE
  5
F8
330
17
100
AcDbEntity
  8
visible
100
AcDbLine
 10
48.25891709768007
 20
-22.592570963911456
 30
0.0
 11
48.25891709768007
 21
-33.2692121327406
 31
0.0
  0
ELLIPSE
  5
F9
330
17
100
AcDbEntity
  8
visible
100
AcDbEllipse
 10
2.7735012508856016e-08
 20
-20.58589056532638
 30
0.0
 11
58.0
 21
0.0
 31
0.0
 40
0.39422729526717704
 41
5.695182703580737
 42
6.21959018101087
  0
ELLIPSE
  5
FA
330
17
100
AcDbEntity
  8
visible
100
AcDbEllipse
 10
2.7735012508856016e-08
 20
-20.58589056532638
 30
0.0
 11
58.0
 21
0.0
 31
0.0
 40
0.39422729526717704
 41
3.141592653589793
 42
5.695182703580737
  0
ELLIPSE
  5
FB
330
17
100
AcDbEntity
  8
visible
100
AcDbEllipse
 10
-4.437601542408174
 20
-9.516732803568374
 30
0.0
 11
2.25
 21
0.0
 31
0.0
 40
0.39422729526717704
 41
5.695182703580737
 42
6.283185307179586
  0
ELLIPSE
  5
FC
330
17
100
AcDbEntity
  8
visible
100
AcDbEllipse
 10
-4.437601542408174
 20
-9.516732803568374
 30
0.0
 11
2.25
 21
0.0
 31
0.0
 40
0.39422729526717704
 41
0.0
 42
3.141592653589793
  0
ELLIPSE
  5
FD
330
17
100
AcDbEntity
  8
visible
100
AcDbEllipse
 10
-4.437601542408174
 20
-9.516732803568374
 30
0.0
 11
2.25
 21
0.0
 31
0.0
 40
0.39422729526717704
 41
3.141592653589793
 42
5.695182703580737
  0
ELLIPSE
  5
FE
330
17
100
AcDbEntity
  8
visible
100
AcDbEllipse
 10
26.625609444711234
 20
-20.99732560140371
 30
0.0
 11
-4.587298334620749
 21
-0.0
 31
0.0
 40
0.39422729526717704
 41
-5.395973664199397
 42
-5.300391583983539
  0
LINE
  5
FF
330
17
100
AcDbEntity
  8
visible
100
AcDbLine
 10
27.40923533539529
 20
-23.376748982704534
 30
0.0
 11
24.0810341581577
 21
-22.50203715046907
 31
0.0
  0
ELLIPSE
  5
100
330
17
100
AcDbEntity
  8
visible
100
AcDbEllipse
 10
29.953810621948822
 20
-21.87203743363917
 30
0.0
 11
-4.587298334620749
 21
-0.0
 31
0.0
 40
0.39422729526717704
 41
-4.028804296569982
 42
-3.7295952571886426
  0
ELLIPSE
  5
101
330
17
100
AcDbEntity
  8
visible
100
AcDbEllipse
 10
29.953810621948822
 20
-21.87203743363917
 30
0.0
 11
-4.587298334620749
 21
-0.0
 31
0.0
 40
0.39422729526717704
 41
-5.300391583983539
 42
-4.028804296569982
  0
LINE
  5
102
330
17
100
AcDbEntity
  8
visible
100
AcDbLine
 10
31.8170757089163
 20
-15.820031272564567
 30
0.0
 11
26.959347990466927
 21
-14.543332032696918
 31
0.0
  0
SPLINE
  5
103
330
17
100
AcDbEntity
  8
visible
100
AcDbSpline
 70
0
 71
3
 72
11
 73
7
 74
0
 40
0.0
 40
0.0
 40
0.0
 40
0.0
 40
0.512213144857442
 40
0.512213144857442
 40
0.512213144857442
 40
1.0
 40
1.0
 40
1.0
 40
1.0
 10
33.05110221772047
 20
-16.618741829628974
 30
0.0
 10
32.905094508409476
 20
-16.440946231579805
 30
0.0
 10
32.67812482948801
 20
-16.254146823084604
 30
0.0
 10
32.45095182455706
 20
-16.111493897748417
 30
0.0
 10
32.23347186913443
 20
-15.97449824502081
 30
0.0
 10
32.009613246901736
 20
-15.870832742101612
 30
0.0
 10
31.817075708916306
 20
-15.820031272564556
 30
0.0
  0
SPLINE
  5
104
330
17
100
AcDbEntity
  8
visible
100
AcDbSpline
 70
0
 71
3
 72
8
 73
4
 74
0
 40
0.0
 40
0.0
 40
0.0
 40
0.0
 40
0.9999996816477258
 40
0.9999996816477258
 40
0.9999996816477258
 40
0.9999996816477258
 10
34.11406209349581
 20
-17.864812967756116
 30
0.0
 10
33.795807399207376
 20
-17.502852659131307
 30
0.0
 10
33.429105082361694
 20
-17.079039197564875
 30
0.0
 10
33.05110221745619
 20
-16.61874182994827
 30
0.0
  0
ELLIPSE
  5
105
330
17
100
AcDbEntity
  8
visible
100
AcDbEllipse
 10
41.325164644978486
 20
-2.158973576010382
 30
0.0
 11
4.575348438597116
 21
17.408796244009146
 31
0.0
 40
0.5097766750243188
 41
-3.4725880143605057
 42
-3.141592653589793
  0
SPLINE
  5
106
330
17
100
AcDbEntity
  8
visible
100
AcDbSpline
 70
0
 71
3
 72
8
 73
4
 74
0
 40
0.0
 40
0.0
 40
0.0
 40
0.0
 40
0.4269089590943342
 40
0.4269089590943342
 40
0.4269089590943342
 40
0.4269089590943342
 10
26.959347990466924
 20
-14.543332032696917
 30
0.0
 10
26.80328904416437
 20
-14.502704817118424
 30
0.0
 10
26.695144334368173
 20
-14.435510265165679
 30
0.0
 10
26.656721520075255
 20
-14.3598603269268
 30
0.0
  0
ELLIPSE
  5
107
330
17
100
AcDbEntity
  8
visible
100
AcDbEllipse
 10
52.69651866671385
 20
-11.69502918658516
 30
0.0
 11
-0.571918554824639
 21
-2.1760995305011432
 31
0.0
 40
0.5097766750243188
 41
0.4760144696263529
 42
3.1415926535897936
  0
ELLIPSE
  5
108
330
17
100
AcDbEntity
  8
visible
100
AcDbEllipse
 10
52.69651866671385
 20
-11.69502918658516
 30
0.0
 11
-0.571918554824639
 21
-2.1760995305011432
 31
0.0
 40
0.5097766750243188
 41
3.1415926535897936
 42
6.283185307179587
  0
ELLIPSE
  5
109
330
17
100
AcDbEntity
  8
visible
100
AcDbEllipse
 10
52.69651866671385
 20
-11.69502918658516
 30
0.0
 11
-0.571918554824639
 21
-2.1760995305011432
 31
0.0
 40
0.5097766750243188
 41
8.881784197001252e-16
 42
0.4760144696263531
  0
ELLIPSE
  5
10A
330
17
100
AcDbEntity
  8
visible
100
AcDbEllipse
 10
63.79052259207182
 20
-5.1346904455481095
 30
0.0
 11
-0.571918554824639
 21
-2.1760995305011432
 31
0.0
 40
0.5097766750243188
 41
0.4760144696263529
 42
3.1415926535897936
  0
ELLIPSE
  5
10B
330
17
100
AcDbEntity
  8
visible
100
AcDbEllipse
 10
63.79052259207182
 20
-5.1346904455481095
 30
0.0
 11
-0.571918554824639
 21
-2.1760995305011432
 31
0.0
 40
0.5097766750243188
 41
3.1415926535897936
 42
6.283185307179587
  0
ELLIPSE
  5
10C
330
17
100
AcDbEntity
  8
visible
100
AcDbEllipse
 10
63.79052259207182
 20
-5.1346904455481095
 30
0.0
 11
-0.571918554824639
 21
-2.1760995305011432
 31
0.0
 40
0.5097766750243188
 41
8.881784197001252e-16
 42
0.4760144696263531
  0
ELLIPSE
  5
10D
330
17
100
AcDbEntity
  8
visible
100
AcDbEllipse
 10
52.69651866671385
 20
31.03907393455819
 30
0.0
 11
-0.571918554824639
 21
-2.1760995305011432
 31
0.0
 40
0.5097766750243188
 41
1.8529486723913
 42
3.1415926535897936
  0
ELLIPSE
  5
10E
330
17
100
AcDbEntity
  8
visible
100
AcDbEllipse
 10
52.69651866671385
 20
31.03907393455819
 30
0.0
 11
-0.571918554824639
 21
-2.1760995305011432
 31
0.0
 40
0.5097766750243188
 41
3.1415926535897936
 42
6.283185307179587
  0
ELLIPSE
  5
10F
330
17
100
AcDbEntity
  8
visible
100
AcDbEllipse
 10
52.69651866671385
 20
31.03907393455819
 30
0.0
 11
-0.571918554824639
 21
-2.1760995305011432
 31
0.0
 40
0.5097766750243188
 41
8.881784197001252e-16
 42
0.4760144696263531
  0
ELLIPSE
  5
110
330
17
100
AcDbEntity
  8
visible
100
AcDbEllipse
 10
52.69651866671385
 20
31.03907393455819
 30
0.0
 11
-0.571918554824639
 21
-2.1760995305011432
 31
0.0
 40
0.5097766750243188
 41
0.4760144696263529
 42
0.488556819254811
  0
ELLIPSE
  5
111
330
17
100
AcDbEntity
  8
visible
100
AcDbEllipse
 10
58.24352062939283
 20
23.291087660910677
 30
0.0
 11
3.544982553139833
 21
13.488345157620664
 31
0.0
 40
0.5097766750243188
 41
-3.4907543157352365
 42
-3.2891052711861826
  0
ELLIPSE
  5
112
330
17
100
AcDbEntity
  8
visible
100
AcDbEllipse
 10
58.24352062939283
 20
23.291087660910677
 30
0.0
 11
3.544982553139833
 21
13.488345157620664
 31
0.0
 40
0.5097766750243188
 41
-5.010536763295672
 42
-3.4907543157352365
  0
ELLIPSE
  5
113
330
17
100
AcDbEntity
  8
visible
100
AcDbEllipse
 10
63.79052259207182
 20
37.59941267559523
 30
0.0
 11
-0.571918554824639
 21
-2.1760995305011432
 31
0.0
 40
0.5097766750243188
 41
0.7546072452502103
 42
3.1415926535897936
  0
ELLIPSE
  5
114
330
17
100
AcDbEntity
  8
visible
100
AcDbEllipse
 10
63.79052259207182
 20
37.59941267559523
 30
0.0
 11
-0.571918554824639
 21
-2.1760995305011432
 31
0.0
 40
0.5097766750243188
 41
3.1415926535897936
 42
5.300534732496713
  0
ELLIPSE
  5
115
330
17
100
AcDbEntity
  8
visible
100
AcDbEllipse
 10
58.24352062939283
 20
23.291087660910677
 30
0.0
 11
3.544982553139833
 21
13.488345157620664
 31
0.0
 40
0.5097766750243188
 41
-5.934023645034142
 42
-5.214328359417387
  0
ELLIPSE
  5
116
330
17
100
AcDbEntity
  8
visible
100
AcDbEllipse
 10
58.24352062939283
 20
23.291087660910677
 30
0.0
 11
3.544982553139833
 21
13.488345157620664
 31
0.0
 40
0.5097766750243188
 41
-6.135672689583076
 42
-5.934023645034142
  0
ELLIPSE
  5
117
330
17
100
AcDbEntity
  8
visible
100
AcDbEllipse
 10
51.19882813695694
 20
-11.3014088620792
 30
0.0
 11
-0.571918554824639
 21
-2.1760995305011432
 31
0.0
 40
0.5097766750243188
 41
0.7410270589116994
 42
2.400565594678093
  0
ELLIPSE
  5
118
330
17
100
AcDbEntity
  8
visible
100
AcDbEllipse
 10
62.29283206231491
 20
-4.741070121042156
 30
0.0
 11
-0.571918554824639
 21
-2.1760995305011432
 31
0.0
 40
0.5097766750243188
 41
0.7410270589117026
 42
2.400565594678096
  0
LINE
  5
119
330
17
100
AcDbEntity
  8
visible
100
AcDbLine
 10
52.729556284693416
 20
28.96261186409066
 30
0.0
 11
53.012057840340795
 21
28.888365314621318
 31
0.0
  0
SPLINE
  5
11A
330
17
100
AcDbEntity
  8
visible
100
AcDbSpline
 70
0
 71
1
 72
4
 73
2
 74
0
 40
0.0
 40
0.0
 40
1.0
 40
1.0
 10
52.729556284693416
 20
28.96261186409066
 30
0.0
 10
52.712172054850456
 20
28.98071388016818
 30
0.0
  0
LINE
  5
11B
330
17
100
AcDbEntity
  8
visible
100
AcDbLine
 10
51.67984386376571
 20
29.238495389795105
 30
0.0
 11
52.69651866671386
 21
28.97129475127706
 31
0.0
  0
ELLIPSE
  5
11C
330
17
100
AcDbEntity
  8
visible
100
AcDbEllipse
 10
51.19882813695694
 20
31.43269425906415
 30
0.0
 11
-0.571918554824639
 21
-2.1760995305011432
 31
0.0
 40
0.5097766750243188
 41
0.7410270589117006
 42
2.400565594678092
  0
SPLINE
  5
11D
330
17
100
AcDbEntity
  8
visible
100
AcDbSpline
 70
0
 71
2
 72
6
 73
3
 74
0
 40
0.0
 40
0.0
 40
0.0
 40
1.0
 40
1.0
 40
1.0
 10
54.094915549763755
 20
31.392919001610267
 30
0.0
 10
54.00584734162115
 20
31.41621161846841
 30
0.0
 10
53.92121455591785
 20
31.364928891596065
 30
0.0
  0
LINE
  5
11E
330
17
100
AcDbEntity
  8
visible
100
AcDbLine
 10
54.094915549763755
 20
31.392919001610245
 30
0.0
 11
54.26132560862564
 21
31.349183409998474
 31
0.0
  0
ELLIPSE
  5
11F
330
17
100
AcDbEntity
  8
visible
100
AcDbEllipse
 10
58.40993068825472
 20
23.247352069298913
 30
0.0
 11
-3.5586043411310873
 21
-13.540174856451559
 31
0.0
 40
0.5097766750243188
 41
4.417947348184607
 42
6.283185307179587
  0
SPLINE
  5
120
330
17
100
AcDbEntity
  8
visible
100
AcDbSpline
 70
0
 71
2
 72
6
 73
3
 74
0
 40
0.0
 40
0.0
 40
0.0
 40
1.0
 40
1.0
 40
1.0
 10
52.837244326160885
 20
28.91280882508002
 30
0.0
 10
52.767623758121644
 20
28.930979420627104
 30
0.0
 10
52.72955628469342
 20
28.96261186409066
 30
0.0
  0
ELLIPSE
  5
121
330
17
100
AcDbEntity
  8
visible
100
AcDbEllipse
 10
62.29283206231491
 20
37.99303300010119
 30
0.0
 11
-0.571918554824639
 21
-2.1760995305011432
 31
0.0
 40
0.5097766750243188
 41
0.974122654928417
 42
2.4005655946780893
  0
ELLIPSE
  5
122
330
17
100
AcDbEntity
  8
visible
100
AcDbEllipse
 10
58.40993068825472
 20
23.247352069298913
 30
0.0
 11
-3.5586043411310873
 21
-13.540174856451559
 31
0.0
 40
0.5097766750243188
 41
3.1415926535897936
 42
4.206743450641091
  0
ELLIPSE
  5
123
330
17
100
AcDbEntity
  8
visible
100
AcDbEllipse
 10
51.19882813695694
 20
-11.3014088620792
 30
0.0
 11
-0.29231392802148215
 21
-1.1122286489228066
 31
0.0
 40
0.5097766750243188
 41
0.9034089674076424
 42
2.23818368618214
  0
ELLIPSE
  5
124
330
17
100
AcDbEntity
  8
visible
100
AcDbEllipse
 10
62.29283206231491
 20
-4.741070121042156
 30
0.0
 11
-0.29231392802148215
 21
-1.1122286489228066
 31
0.0
 40
0.5097766750243188
 41
0.903408967407637
 42
2.23818368618216
  0
ELLIPSE
  5
125
330
17
100
AcDbEntity
  8
visible
100
AcDbEllipse
 10
58.576340747116596
 20
23.203616477687135
 30
0.0
 11
-3.5586043411310873
 21
-13.540174856451559
 31
0.0
 40
0.5097766750243188
 41
4.206743450641092
 42
4.417947348184605
  0
LINE
  5
126
330
17
100
AcDbEntity
  8
visible
100
AcDbLine
 10
52.837244326160885
 20
28.912808825080027
 30
0.0
 11
53.00365438502277
 21
28.869073233468256
 31
0.0
  0
ELLIPSE
  5
127
330
17
100
AcDbEntity
  8
visible
100
AcDbEllipse
 10
51.19882813695694
 20
31.43269425906415
 30
0.0
 11
-0.29231392802148215
 21
-1.1122286489228066
 31
0.0
 40
0.5097766750243188
 41
0.9034089674076452
 42
2.2381836861821465
  0
ELLIPSE
  5
128
330
17
100
AcDbEntity
  8
visible
100
AcDbEllipse
 10
62.29283206231491
 20
37.99303300010119
 30
0.0
 11
-0.29231392802148215
 21
-1.1122286489228066
 31
0.0
 40
0.5097766750243188
 41
0.9034089674076398
 42
2.2381836861821465
  0
LINE
  5
129
330
17
100
AcDbEntity
  8
visible
100
AcDbLine
 10
-44.52391513190031
 20
4.122374429576112
 30
0.0
 11
-41.41298856118212
 21
3.3047663176525828
 31
0.0
  0
LINE
  5
12A
330
17
100
AcDbEntity
  8
visible
100
AcDbLine
 10
-41.43610463005634
 20
47.74380774459112
 30
0.0
 11
-41.43610463005634
 21
11.44279541587796
 31
0.0
  0
ELLIPSE
  5
12B
330
17
100
AcDbEntity
  8
visible
100
AcDbEllipse
 10
-31.895261254248492
 20
17.084686733169804
 30
0.0
 11
-4.371999619103911
 21
-16.635071966497627
 31
0.0
 40
0.5097766750243188
 41
5.188403450011043
 42
5.496452364640239
  0
SPLINE
  5
12C
330
17
100
AcDbEntity
  8
visible
100
AcDbSpline
 70
0
 71
3
 72
8
 73
4
 74
0
 40
0.0
 40
0.0
 40
0.0
 40
0.0
 40
0.4187620764656437
 40
0.4187620764656437
 40
0.4187620764656437
 40
0.4187620764656437
 10
-44.5239151319003
 20
4.122374429576112
 30
0.0
 10
-44.677352115503965
 20
4.162327362072625
 30
0.0
 10
-44.78411444300649
 20
4.228180409889328
 30
0.0
 10
-44.823386695455056
 20
4.302540172565231
 30
0.0
  0
ELLIPSE
  5
12D
330
17
100
AcDbEntity
  8
visible
100
AcDbEllipse
 10
-31.895261254248492
 20
53.385699061882974
 30
0.0
 11
-4.371999619103911
 21
-16.635071966497627
 31
0.0
 40
0.5097766750243188
 41
3.617607123216146
 42
5.188403450011043
  0
LINE
  5
12E
330
17
100
AcDbEntity
  8
visible
100
AcDbLine
 10
-29.6764604691769
 20
70.50478990006167
 30
0.0
 11
-31.895261254248492
 21
69.19272215185426
 31
0.0
  0
LINE
  5
12F
330
17
100
AcDbEntity
  8
visible
100
AcDbLine
 10
-39.10636380573117
 20
-2.986556538475575
 30
0.0
 11
-39.10636380573117
 21
1.1828468218402444
 31
0.0
  0
ELLIPSE
  5
130
330
17
100
AcDbEntity
  8
visible
100
AcDbEllipse
 10
-29.6764604691769
 20
54.697766810090386
 30
0.0
 11
-4.371999619103911
 21
-16.635071966497627
 31
0.0
 40
0.5097766750243188
 41
2.379455274536326
 42
3.617607123216146
  0
LINE
  5
131
330
17
100
AcDbEntity
  8
visible
100
AcDbLine
 10
-34.225068077003094
 20
-0.10004651999275982
 30
0.0
 11
-39.10636380573117
 21
-2.9865565384755755
 31
0.0
  0
ELLIPSE
  5
132
330
17
100
AcDbEntity
  8
visible
100
AcDbEllipse
 10
-36.33286282439168
 20
11.70351232571349
 30
0.0
 11
-0.2287674219298556
 21
-0.8704398122004574
 31
0.0
 40
0.5097766750243188
 41
0.4760144696263529
 42
3.1415926535897936
  0
ELLIPSE
  5
133
330
17
100
AcDbEntity
  8
visible
100
AcDbEllipse
 10
-36.33286282439168
 20
11.70351232571349
 30
0.0
 11
-0.2287674219298556
 21
-0.8704398122004574
 31
0.0
 40
0.5097766750243188
 41
3.1415926535897936
 42
6.283185307179587
  0
ELLIPSE
  5
134
330
17
100
AcDbEntity
  8
visible
100
AcDbEllipse
 10
-36.33286282439168
 20
11.70351232571349
 30
0.0
 11
-0.2287674219298556
 21
-0.8704398122004574
 31
0.0
 40
0.5097766750243188
 41
8.881784197001252e-16
 42
0.4760144696263531
  0
ELLIPSE
  5
135
330
17
100
AcDbEntity
  8
visible
100
AcDbEllipse
 10
-36.33286282439168
 20
54.43761544685684
 30
0.0
 11
-0.2287674219298556
 21
-0.8704398122004574
 31
0.0
 40
0.5097766750243188
 41
3.2384518350099194
 42
6.223420658174754
  0
ELLIPSE
  5
136
330
17
100
AcDbEntity
  8
visible
100
AcDbEllipse
 10
-39.77200404117869
 20
-2.8116141720284844
 30
0.0
 11
0.40720384376610047
 21
-0.6886109421306877
 31
0.0
 40
0.7646650124515153
 41
-6.283185307179586
 42
-5.37065694811512
  0
LINE
  5
137
330
17
100
AcDbEntity
  8
visible
100
AcDbLine
 10
-50.78598550948566
 20
5.889556333127377
 30
0.0
 11
-45.928257791036295
 21
4.612857093259728
 31
0.0
  0
SPLINE
  5
138
330
17
100
AcDbEntity
  8
visible
100
AcDbSpline
 70
0
 71
2
 72
6
 73
3
 74
0
 40
0.0
 40
0.0
 40
0.0
 40
1.0
 40
1.0
 40
1.0
 10
-51.41017374658942
 20
5.581686489203956
 30
0.0
 10
-51.44670921068593
 20
5.701467426024022
 30
0.0
 10
-51.400655445342615
 20
5.782978886027486
 30
0.0
  0
SPLINE
  5
139
330
17
100
AcDbEntity
  8
visible
100
AcDbSpline
 70
0
 71
3
 72
8
 73
4
 74
0
 40
0.0
 40
0.0
 40
0.0
 40
0.0
 40
1.0
 40
1.0
 40
1.0
 40
1.0
 10
-51.40065544534263
 20
5.782978886027489
 30
0.0
 10
-51.31845199601917
 20
5.92916808215139
 30
0.0
 10
-51.07195592247023
 20
5.964449344410025
 30
0.0
 10
-50.785985509485656
 20
5.889556333127388
 30
0.0
  0
SPLINE
  5
13A
330
17
100
AcDbEntity
  8
visible
100
AcDbSpline
 70
0
 71
3
 72
8
 73
4
 74
0
 40
0.0
 40
0.0
 40
0.0
 40
0.0
 40
0.7283459570287096
 40
0.7283459570287096
 40
0.7283459570287096
 40
0.7283459570287096
 10
-45.92825779103629
 20
4.612857093259734
 30
0.0
 10
-45.66170236350108
 20
4.5407836522433085
 30
0.0
 10
-45.27609711934129
 20
4.557936021311757
 30
0.0
 10
-44.99844087499113
 20
4.64145910215815
 30
0.0
  0
LINE
  5
13B
330
17
100
AcDbEntity
  8
visible
100
AcDbLine
 10
-46.42840639591273
 20
49.0558754929443
 30
0.0
 11
-46.42840639591273
 21
49.33157938404845
 31
0.0
  0
ELLIPSE
  5
13C
330
17
100
AcDbEntity
  8
visible
100
AcDbEllipse
 10
-40.2434992086628
 20
6.475883778177263
 30
0.0
 11
0.40720384376610047
 21
-0.6886109421306877
 31
0.0
 40
0.7646650124515153
 41
-3.7998606213202235
 42
-3.141592653589793
  0
LINE
  5
13D
330
17
100
AcDbEntity
  8
visible
100
AcDbLine
 10
-40.2434992086628
 20
7.211094154454983
 30
0.0
 11
-33.73530101659357
 21
11.05965820951064
 31
0.0
  0
ELLIPSE
  5
13E
330
17
100
AcDbEntity
  8
visible
100
AcDbEllipse
 10
-38.412988561182125
 20
6.730002646725481
 30
0.0
 11
-2.2
 21
-0.0
 31
0.0
 40
0.39422729526717704
 41
-6.871187910778436
 42
-5.300391583983539
  0
LINE
  5
13F
330
17
100
AcDbEntity
  8
visible
100
AcDbLine
 10
7.79353778266416
 20
-6.456278224143951
 30
0.0
 11
-39.63332899297149
 21
6.0083653852114
 31
0.0
  0
ELLIPSE
  5
140
330
17
100
AcDbEntity
  8
visible
100
AcDbEllipse
 10
9.013878214453536
 20
-5.734640962629875
 30
0.0
 11
-2.2
 21
-0.0
 31
0.0
 40
0.39422729526717704
 41
-5.300391583983539
 42
-3.7295952571886426
  0
LINE
  5
141
330
17
100
AcDbEntity
  8
visible
100
AcDbLine
 10
20.00125738428659
 20
-0.8009012049348367
 30
0.0
 11
10.844388861934206
 21
-6.215732470359388
 31
0.0
  0
LINE
  5
142
330
17
100
AcDbEntity
  8
visible
100
AcDbLine
 10
20.00125738428659
 20
0.616819583176043
 30
0.0
 11
15.231994772191962
 21
1.870268583305272
 31
0.0
  0
ELLIPSE
  5
143
330
17
100
AcDbEntity
  8
visible
100
AcDbEllipse
 10
14.838230275821168
 20
9.325860821011801
 30
0.0
 11
4.072038437661006
 21
-6.886109421306876
 31
0.0
 40
0.7646650124515154
 41
-6.283185307179586
 42
-6.053711694298688
  0
ELLIPSE
  5
144
330
17
100
AcDbEntity
  8
visible
100
AcDbEllipse
 10
14.838230275821168
 20
9.325860821011801
 30
0.0
 11
4.072038437661006
 21
-6.886109421306876
 31
0.0
 40
0.7646650124515154
 41
-0.596616460921748
 42
-0.0
  0
ELLIPSE
  5
145
330
17
100
AcDbEntity
  8
visible
100
AcDbEllipse
 10
-32.47769646165182
 20
9.977558839545878
 30
0.0
 11
0.40720384376610047
 21
-0.6886109421306877
 31
0.0
 40
0.7646650124515153
 41
-3.7998606213202235
 42
-3.141592653589793
  0
LINE
  5
146
330
17
100
AcDbEntity
  8
visible
100
AcDbLine
 10
-32.47769646165182
 20
10.712769215823613
 30
0.0
 11
-32.46128981651752
 21
10.722471136826089
 31
0.0
  0
LINE
  5
147
330
17
100
AcDbEntity
  8
visible
100
AcDbLine
 10
5.313793545129126
 20
0.794491840953583
 30
0.0
 11
5.297386899994823
 21
0.7847899199511055
 31
0.0
  0
ELLIPSE
  5
148
330
17
100
AcDbEntity
  8
visible
100
AcDbEllipse
 10
-31.479236108480542
 20
10.450355666152973
 30
0.0
 11
-1.2
 21
-0.0
 31
0.0
 40
0.39422729526717704
 41
-6.871187910778436
 42
-5.300391583983539
  0
LINE
  5
149
330
17
100
AcDbEntity
  8
visible
100
AcDbLine
 10
3.633286311302072
 20
0.6535831451595229
 30
0.0
 11
-32.14487634400202
 21
10.056735341690754
 31
0.0
  0
ELLIPSE
  5
14A
330
17
100
AcDbEntity
  8
visible
100
AcDbEllipse
 10
4.29892654682355
 20
1.047203469621742
 30
0.0
 11
-1.2
 21
-0.0
 31
0.0
 40
0.39422729526717704
 41
-5.300391583983539
 42
-3.7295952571886426
  0
LINE
  5
14B
330
17
100
AcDbEntity
  8
visible
100
AcDbLine
 10
69.55725277851678
 20
-53.77931944614895
 30
0.0
 11
69.86448974122379
 21
-53.860066910700645
 31
0.0
  0
LINE
  5
14C
330
17
100
AcDbEntity
  8
visible
100
AcDbLine
 10
69.86448974122379
 20
-55.16302307741237
 30
0.0
 11
65.70423826902966
 21
-57.623150105410595
 31
0.0
  0
LINE
  5
14D
330
17
100
AcDbEntity
  8
visible
100
AcDbLine
 10
76.7805491708338
 20
-45.9280266899495
 30
0.0
 11
76.9369172434546
 21
-45.96912306484436
 31
0.0
  0
LINE
  5
14E
330
17
100
AcDbEntity
  8
visible
100
AcDbLine
 10
76.9369172434546
 20
-56.99727870901039
 30
0.0
 11
76.9369172434546
 21
-45.96912306484436
 31
0.0
  0
LINE
  5
14F
330
17
100
AcDbEntity
  8
visible
100
AcDbLine
 10
69.86448974122379
 20
-53.59763765094801
 30
0.0
 11
69.86448974122379
 21
-56.31178929034633
 31
0.0
  0
LINE
  5
150
330
17
100
AcDbEntity
  8
visible
100
AcDbLine
 10
69.86448974122378
 20
-56.31178929034633
 30
0.0
 11
65.70423826902966
 21
-58.77191631834455
 31
0.0
  0
LINE
  5
151
330
17
100
AcDbEntity
  8
visible
100
AcDbLine
 10
76.9369172434546
 20
-45.96912306484436
 30
0.0
 11
60.29591135541766
 21
-55.80963117639993
 31
0.0
  0
LINE
  5
152
330
17
100
AcDbEntity
  8
visible
100
AcDbLine
 10
76.9369172434546
 20
-56.99727870901039
 30
0.0
 11
60.29591135541766
 21
-66.83778682056597
 31
0.0
  0
ELLIPSE
  5
153
330
17
100
AcDbEntity
  8
visible
100
AcDbEllipse
 10
75.27281665465088
 20
-52.46725169808293
 30
0.0
 11
-0.4066976389864098
 21
-1.5474485550230355
 31
0.0
 40
0.5097766750243187
 41
5.188403450011043
 42
6.283185307179586
  0
ELLIPSE
  5
154
330
17
100
AcDbEntity
  8
visible
100
AcDbEllipse
 10
75.27281665465088
 20
-52.46725169808293
 30
0.0
 11
-0.4066976389864098
 21
-1.5474485550230355
 31
0.0
 40
0.5097766750243187
 41
0.0
 42
3.1415926535897936
  0
ELLIPSE
  5
155
330
17
100
AcDbEntity
  8
visible
100
AcDbEllipse
 10
75.27281665465088
 20
-52.46725169808293
 30
0.0
 11
-0.4066976389864098
 21
-1.5474485550230355
 31
0.0
 40
0.5097766750243187
 41
3.1415926535897936
 42
5.188403450011043
  0
LINE
  5
156
330
17
100
AcDbEntity
  8
visible
100
AcDbLine
 10
71.52859032984257
 20
-52.61358683990181
 30
0.0
 11
65.70423826902964
 21
-56.057764678946256
 31
0.0
  0
LINE
  5
157
330
17
100
AcDbEntity
  8
visible
100
AcDbLine
 10
71.52859032984259
 20
-52.61358683990181
 30
0.0
 11
71.52859032984259
 21
-56.74914520646407
 31
0.0
  0
LINE
  5
158
330
17
100
AcDbEntity
  8
visible
100
AcDbLine
 10
65.70423826902966
 20
-56.057764678946256
 30
0.0
 11
65.70423826902966
 21
-60.19332304550852
 31
0.0
  0
LINE
  5
159
330
17
100
AcDbEntity
  8
visible
100
AcDbLine
 10
71.52859032984257
 20
-56.749145206464064
 30
0.0
 11
65.70423826902964
 21
-60.193323045508514
 31
0.0
  0
ELLIPSE
  5
15A
330
17
100
AcDbEntity
  8
visible
100
AcDbEllipse
 10
61.96001194422134
 20
-60.33965818732739
 30
0.0
 11
-0.4066976389864098
 21
-1.5474485550230355
 31
0.0
 40
0.5097766750243187
 41
5.188403450011043
 42
6.283185307179586
  0
ELLIPSE
  5
15B
330
17
100
AcDbEntity
  8
visible
100
AcDbEllipse
 10
61.96001194422134
 20
-60.33965818732739
 30
0.0
 11
-0.4066976389864098
 21
-1.5474485550230355
 31
0.0
 40
0.5097766750243187
 41
0.0
 42
3.1415926535897936
  0
ELLIPSE
  5
15C
330
17
100
AcDbEntity
  8
visible
100
AcDbEllipse
 10
61.96001194422134
 20
-60.33965818732739
 30
0.0
 11
-0.4066976389864098
 21
-1.5474485550230355
 31
0.0
 40
0.5097766750243187
 41
3.1415926535897936
 42
5.188403450011043
  0
LINE
  5
15D
330
17
100
AcDbEntity
  8
visible
100
AcDbLine
 10
69.86448974122379
 20
-56.31178929034633
 30
0.0
 11
71.52859032984259
 21
-56.749145206464064
 31
0.0
  0
ELLIPSE
  5
15E
330
17
100
AcDbEntity
  8
visible
100
AcDbEllipse
 10
-15.254255369632192
 20
27.740053015411007
 30
0.0
 11
5.853555254137697
 21
-9.898782293128635
 31
0.0
 40
0.7646650124515154
 41
-6.283185307179586
 42
-5.37065694811512
  0
ELLIPSE
  5
15F
330
17
100
AcDbEntity
  8
visible
100
AcDbEllipse
 10
-15.254255369632192
 20
27.740053015411007
 30
0.0
 11
5.853555254137697
 21
-9.898782293128635
 31
0.0
 40
0.7646650124515154
 41
-5.37065694811512
 42
-3.141592653589793
  0
ELLIPSE
  5
160
330
17
100
AcDbEntity
  8
visible
100
AcDbEllipse
 10
-16.363655762167987
 20
27.08401914130731
 30
0.0
 11
5.853555254137697
 21
-9.898782293128635
 31
0.0
 40
0.7646650124515154
 41
-6.283185307179586
 42
-5.37065694811512
  0
ELLIPSE
  5
161
330
17
100
AcDbEntity
  8
visible
100
AcDbEllipse
 10
-16.363655762167987
 20
27.08401914130731
 30
0.0
 11
5.853555254137697
 21
-9.898782293128635
 31
0.0
 40
0.7646650124515154
 41
-3.141592653589793
 42
-0.0
  0
ELLIPSE
  5
162
330
17
100
AcDbEntity
  8
visible
100
AcDbEllipse
 10
-16.363655762167987
 20
27.08401914130731
 30
0.0
 11
5.853555254137697
 21
-9.898782293128635
 31
0.0
 40
0.7646650124515154
 41
-5.37065694811512
 42
-3.141592653589793
  0
ELLIPSE
  5
163
330
17
100
AcDbEntity
  8
visible
100
AcDbEllipse
 10
-62.681122145915
 20
-63.28841734190664
 30
0.0
 11
-22.0
 21
6.64433129070165e-16
 31
0.0
 40
0.39422729526717704
 41
-6.283185307179586
 42
-5.300391583983539
  0
LINE
  5
164
330
17
100
AcDbEntity
  8
visible
100
AcDbLine
 10
-74.88452646380875
 20
-70.5047899570474
 30
0.0
 11
-74.88452646380875
 21
-40.91257231186856
 31
0.0
  0
ELLIPSE
  5
165
330
17
100
AcDbEntity
  8
visible
100
AcDbEllipse
 10
-74.44076630679444
 20
-70.24237640740591
 30
0.0
 11
-0.20334881949320516
 21
-0.7737242775115176
 31
0.0
 40
0.5097766750243188
 41
5.188403450011043
 42
6.283185307179586
  0
LINE
  5
166
330
17
100
AcDbEntity
  8
visible
100
AcDbLine
 10
8.320502967130984
 20
-92.37258576293397
 30
0.0
 11
-74.88452646380875
 21
-70.5047899570474
 31
0.0
  0
LINE
  5
167
330
17
100
AcDbEntity
  8
visible
100
AcDbLine
 10
8.320502967130984
 20
-92.37258576293397
 30
0.0
 11
8.320502967130984
 21
-62.78036811775513
 31
0.0
  0
ELLIPSE
  5
168
330
17
100
AcDbEntity
  8
visible
100
AcDbEllipse
 10
62.68112220138502
 20
-60.226925931852435
 30
0.0
 11
-22.0
 21
-0.0
 31
0.0
 40
0.39422729526717704
 41
-3.7295952571886426
 42
-3.141592653589793
  0
ELLIPSE
  5
169
330
17
100
AcDbEntity
  8
visible
100
AcDbEllipse
 10
20.523907285024748
 20
-85.15621314779321
 30
0.0
 11
-22.0
 21
-0.0
 31
0.0
 40
0.39422729526717704
 41
-5.300391583983539
 42
-3.7295952571886426
  0
ELLIPSE
  5
16A
330
17
100
AcDbEntity
  8
visible
100
AcDbEllipse
 10
-74.27435624791408
 20
-40.45985238407679
 30
0.0
 11
-0.12709301218325322
 21
-0.4835776734446985
 31
0.0
 40
0.5097766750243188
 41
5.188403450011043
 42
5.389761370801375
  0
ELLIPSE
  5
16B
330
17
100
AcDbEntity
  8
visible
100
AcDbEllipse
 10
-62.68112214591501
 20
-33.60429839969308
 30
0.0
 11
-21.4
 21
-0.0
 31
0.0
 40
0.3942272952671771
 41
-6.104892835578788
 42
-5.300391583983539
  0
LINE
  5
16C
330
17
100
AcDbEntity
  8
visible
100
AcDbLine
 10
8.653323084891738
 20
-62.491656658489305
 30
0.0
 11
-74.55170634604804
 21
-40.62386085260272
 31
0.0
  0
ELLIPSE
  5
16D
330
17
100
AcDbEntity
  8
visible
100
AcDbEllipse
 10
8.93067318302569
 20
-62.327648189963384
 30
0.0
 11
-0.12709301218325322
 21
-0.4835776734446985
 31
0.0
 40
0.5097766750243188
 41
5.188403450011043
 42
5.389761370801375
  0
ELLIPSE
  5
16E
330
17
100
AcDbEntity
  8
visible
100
AcDbEllipse
 10
37.91375843609116
 20
-60.042463529009964
 30
0.0
 11
0.2545024023538128
 21
-0.4303818388316798
 31
0.0
 40
0.7646650124515153
 41
-5.572014868905455
 42
-5.37065694811512
  0
ELLIPSE
  5
16F
330
17
100
AcDbEntity
  8
visible
100
AcDbEllipse
 10
20.523907285024762
 20
-55.472094205579666
 30
0.0
 11
-21.4
 21
-0.0
 31
0.0
 40
0.39422729526717704
 41
-5.300391583983539
 42
-3.7295952571886426
  0
LINE
  5
170
330
17
100
AcDbEntity
  8
visible
100
AcDbLine
 10
80.48699849960614
 20
-35.222515292098606
 30
0.0
 11
38.32978358324587
 21
-60.151802508039395
 31
0.0
  0
ELLIPSE
  5
171
330
17
100
AcDbEntity
  8
visible
100
AcDbEllipse
 10
80.07097335245143
 20
-35.113176313069175
 30
0.0
 11
0.2545024023538128
 21
-0.4303818388316798
 31
0.0
 40
0.7646650124515153
 41
-5.572014868905455
 42
-5.37065694811512
  0
ELLIPSE
  5
172
330
17
100
AcDbEntity
  8
visible
100
AcDbEllipse
 10
62.68112220138504
 20
-30.542806989638883
 30
0.0
 11
-21.4
 21
-0.0
 31
0.0
 40
0.39422729526717704
 41
-3.7295952571886426
 42
-3.3198851251905976
  0
ELLIPSE
  5
173
330
17
100
AcDbEntity
  8
visible
100
AcDbEllipse
 10
8.764263124145302
 20
-92.11017221329249
 30
0.0
 11
-0.20334881949320516
 21
-0.7737242775115176
 31
0.0
 40
0.5097766750243188
 41
5.188403450011043
 42
6.283185307179586
  0
LINE
  5
174
330
17
100
AcDbEntity
  8
visible
100
AcDbLine
 10
-38.42231929395076
 20
-57.63759221232833
 30
0.0
 11
-38.7551394117115
 21
-57.83440237455944
 31
0.0
  0
LINE
  5
175
330
17
100
AcDbEntity
  8
visible
100
AcDbLine
 10
-39.12050212147551
 20
-57.306462652675805
 30
0.0
 11
-39.45332223923625
 21
-57.503272814906914
 31
0.0
  0
LINE
  5
176
330
17
100
AcDbEntity
  8
visible
100
AcDbLine
 10
-40.6732834812658
 20
-57.02872149651607
 30
0.0
 11
-41.00610359902654
 21
-57.22553165874718
 31
0.0
  0
LINE
  5
177
330
17
100
AcDbEntity
  8
visible
100
AcDbLine
 10
-41.22784825261948
 20
-58.66557872891538
 30
0.0
 11
-41.56066837038022
 21
-58.86238889114649
 31
0.0
  0
LINE
  5
178
330
17
100
AcDbEntity
  8
visible
100
AcDbLine
 10
-40.6732834812658
 20
-60.5907942302152
 30
0.0
 11
-41.00610359902654
 21
-60.78760439244631
 31
0.0
  0
LINE
  5
179
330
17
100
AcDbEntity
  8
visible
100
AcDbLine
 10
-39.154629184328044
 20
-61.64171441901077
 30
0.0
 11
-39.487449302088784
 21
-61.83852458124188
 31
0.0
  0
LINE
  5
17A
330
17
100
AcDbEntity
  8
visible
100
AcDbLine
 10
-38.442226747281396
 20
-61.71586506887831
 30
0.0
 11
-38.775046865042135
 21
-61.91267523110942
 31
0.0
  0
ELLIPSE
  5
17B
330
17
100
AcDbEntity
  8
visible
100
AcDbEllipse
 10
80.32058844074425
 20
-64.86289864270039
 30
0.0
 11
0.40720384376610047
 21
-0.6886109421306877
 31
0.0
 40
0.7646650124515153
 41
-6.283185307179586
 42
-5.37065694811512
  0
ELLIPSE
  5
17C
330
17
100
AcDbEntity
  8
visible
100
AcDbEllipse
 10
38.16337352438398
 20
-89.79218585864118
 30
0.0
 11
0.40720384376610047
 21
-0.6886109421306877
 31
0.0
 40
0.7646650124515153
 41
-6.283185307179586
 42
-5.37065694811512
  0
LINE
  5
17D
330
17
100
AcDbEntity
  8
visible
100
AcDbLine
 10
-74.55170634604804
 20
-40.623860852602725
 30
0.0
 11
-74.55170634604804
 21
-39.89722793068521
 31
0.0
  0
LINE
  5
17E
330
17
100
AcDbEntity
  8
visible
100
AcDbLine
 10
8.653323084891738
 20
-62.49165665848931
 30
0.0
 11
8.653323084891738
 21
-61.76332125464651
 31
0.0
  0
LINE
  5
17F
330
17
100
AcDbEntity
  8
visible
100
AcDbLine
 10
38.32978358324586
 20
-60.151802508039395
 30
0.0
 11
38.32978358324586
 21
-59.55496836835459
 31
0.0
  0
LINE
  5
180
330
17
100
AcDbEntity
  8
visible
100
AcDbLine
 10
80.48699849960613
 20
-35.22251529209861
 30
0.0
 11
80.48699849960613
 21
-34.63802304286591
 31
0.0
  0
ELLIPSE
  5
181
330
17
100
AcDbEntity
  8
visible
100
AcDbEllipse
 10
-74.44076630679444
 20
-34.95227834607462
 30
0.0
 11
0.20334881949320516
 21
0.7737242775115176
 31
0.0
 40
0.5097766750243188
 41
-5.603318744467504
 42
-4.236374510758337
  0
ELLIPSE
  5
182
330
17
100
AcDbEntity
  8
visible
100
AcDbEllipse
 10
-62.681122145915
 20
-27.998319280575352
 30
0.0
 11
-22.0
 21
6.64433129070165e-16
 31
0.0
 40
0.39422729526717704
 41
-6.283185307179586
 42
-5.300391583983539
  0
ELLIPSE
  5
183
330
17
100
AcDbEntity
  8
visible
100
AcDbEllipse
 10
8.764263124145302
 20
-56.82007415196121
 30
0.0
 11
0.20334881949320516
 21
0.7737242775115176
 31
0.0
 40
0.5097766750243188
 41
-5.603709491007355
 42
-4.236374510758337
  0
LINE
  5
184
330
17
100
AcDbEntity
  8
visible
100
AcDbLine
 10
8.320502967130984
 20
-57.08248770160269
 30
0.0
 11
-74.88452646380875
 21
-35.21469189571611
 31
0.0
  0
ELLIPSE
  5
185
330
17
100
AcDbEntity
  8
visible
100
AcDbEllipse
 10
38.16337352438398
 20
-54.50208779730989
 30
0.0
 11
-0.40720384376610047
 21
0.6886109421306877
 31
0.0
 40
0.7646650124515153
 41
4.054121012654259
 42
5.3368812059934845
  0
ELLIPSE
  5
186
330
17
100
AcDbEntity
  8
visible
100
AcDbEllipse
 10
20.523907285024748
 20
-49.86611508646193
 30
0.0
 11
-22.0
 21
-0.0
 31
0.0
 40
0.39422729526717704
 41
-5.300391583983539
 42
-3.7295952571886426
  0
ELLIPSE
  5
187
330
17
100
AcDbEntity
  8
visible
100
AcDbEllipse
 10
62.68112220138502
 20
-24.93682787052115
 30
0.0
 11
-22.0
 21
-0.0
 31
0.0
 40
0.39422729526717704
 41
-3.7295952571886426
 42
-3.141592653589793
  0
ELLIPSE
  5
188
330
17
100
AcDbEntity
  8
visible
100
AcDbEllipse
 10
80.32058844074425
 20
-29.57280058136911
 30
0.0
 11
-0.40720384376610047
 21
0.6886109421306877
 31
0.0
 40
0.7646650124515153
 41
4.054121012654259
 42
5.333705284413911
  0
LINE
  5
189
330
17
100
AcDbEntity
  8
visible
100
AcDbLine
 10
80.98622867619176
 20
-29.7477429478162
 30
0.0
 11
38.82901375983148
 21
-54.67703016375698
 31
0.0
  0
LINE
  5
18A
330
17
100
AcDbEntity
  8
visible
100
AcDbLine
 10
80.98622867619176
 20
-34.34280779955205
 30
0.0
 11
80.98622867619176
 21
-29.7477429478162
 31
0.0
  0
LINE
  5
18B
330
17
100
AcDbEntity
  8
visible
100
AcDbLine
 10
38.82901375983149
 20
-59.27209501549282
 30
0.0
 11
38.82901375983149
 21
-54.677030163756974
 31
0.0
  0
LINE
  5
18C
330
17
100
AcDbEntity
  8
visible
100
AcDbLine
 10
8.320502967130984
 20
-61.67755255333853
 30
0.0
 11
8.320502967130984
 21
-57.08248770160268
 31
0.0
  0
LINE
  5
18D
330
17
100
AcDbEntity
  8
visible
100
AcDbLine
 10
-74.88452646380875
 20
-39.80975674745196
 30
0.0
 11
-74.88452646380875
 21
-35.21469189571611
 31
0.0
  0
ELLIPSE
  5
18E
330
17
100
AcDbEntity
  8
visible
100
AcDbEllipse
 10
-62.681122145915
 20
-26.52789852801989
 30
0.0
 11
-22.0
 21
6.64433129070165e-16
 31
0.0
 40
0.39422729526717704
 41
-6.283185307179586
 42
-5.300391583983539
  0
ELLIPSE
  5
18F
330
17
100
AcDbEntity
  8
visible
100
AcDbEllipse
 10
-62.681122145915
 20
-24.32226739918668
 30
0.0
 11
-22.0
 21
6.64433129070165e-16
 31
0.0
 40
0.39422729526717704
 41
-6.283185307179586
 42
-5.300391583983539
  0
LINE
  5
190
330
17
100
AcDbEntity
  8
visible
100
AcDbLine
 10
-74.88452646380875
 20
-33.74427114316064
 30
0.0
 11
-74.88452646380875
 21
-31.538640014327434
 31
0.0
  0
ELLIPSE
  5
191
330
17
100
AcDbEntity
  8
visible
100
AcDbEllipse
 10
-80.32058838527422
 20
-19.68629468833872
 30
0.0
 11
0.40720384376610047
 21
-0.6886109421306877
 31
0.0
 40
0.7646650124515153
 41
-3.7998606213202235
 42
-3.141592653589793
  0
LINE
  5
192
330
17
100
AcDbEntity
  8
visible
100
AcDbLine
 10
-80.32058838527422
 20
-18.951084312060985
 30
0.0
 11
-57.79353293591157
 21
-5.629914103337173
 31
0.0
  0
ELLIPSE
  5
193
330
17
100
AcDbEntity
  8
visible
100
AcDbEllipse
 10
-74.44076630679444
 20
-33.48185759351916
 30
0.0
 11
-0.20334881949320516
 21
-0.7737242775115176
 31
0.0
 40
0.5097766750243188
 41
5.188403450011043
 42
6.283185307179586
  0
ELLIPSE
  5
194
330
17
100
AcDbEntity
  8
visible
100
AcDbEllipse
 10
-74.44076630679444
 20
-31.276226464685948
 30
0.0
 11
0.20334881949320516
 21
0.7737242775115176
 31
0.0
 40
0.5097766750243188
 41
-5.807170837553233
 42
-4.236374510758337
  0
ELLIPSE
  5
195
330
17
100
AcDbEntity
  8
visible
100
AcDbEllipse
 10
-62.681122145915
 20
-23.587057022908944
 30
0.0
 11
-21.2
 21
6.402719243767044e-16
 31
0.0
 40
0.39422729526717704
 41
-6.871187910778436
 42
-5.300391583983539
  0
LINE
  5
196
330
17
100
AcDbEntity
  8
visible
100
AcDbLine
 10
8.320502967130984
 20
-55.612066949047225
 30
0.0
 11
-74.88452646380875
 21
-33.744271143160645
 31
0.0
  0
LINE
  5
197
330
17
100
AcDbEntity
  8
visible
100
AcDbLine
 10
8.320502967130984
 20
-53.406435820214014
 30
0.0
 11
-74.88452646380875
 21
-31.538640014327434
 31
0.0
  0
LINE
  5
198
330
17
100
AcDbEntity
  8
visible
100
AcDbLine
 10
8.320502967130984
 20
-55.612066949047225
 30
0.0
 11
8.320502967130984
 21
-53.40643582021402
 31
0.0
  0
LINE
  5
199
330
17
100
AcDbEntity
  8
visible
100
AcDbLine
 10
8.764263124145302
 20
-52.4088118942948
 30
0.0
 11
-74.44076630679444
 21
-30.54101608840822
 31
0.0
  0
LINE
  5
19A
330
17
100
AcDbEntity
  8
visible
100
AcDbLine
 10
66.52707861613929
 20
-11.491745403295084
 30
0.0
 11
74.44076636226447
 21
-13.571606547355465
 31
0.0
  0
ELLIPSE
  5
19B
330
17
100
AcDbEntity
  8
visible
100
AcDbEllipse
 10
20.523907285024748
 20
-45.454852828795524
 30
0.0
 11
-21.2
 21
-0.0
 31
0.0
 40
0.39422729526717704
 41
-5.300391583983539
 42
-3.7295952571886426
  0
ELLIPSE
  5
19C
330
17
100
AcDbEntity
  8
visible
100
AcDbEllipse
 10
62.68112220138502
 20
-20.52556561285474
 30
0.0
 11
-21.2
 21
-0.0
 31
0.0
 40
0.39422729526717704
 41
-3.7295952571886426
 42
-2.158798930393746
  0
LINE
  5
19D
330
17
100
AcDbEntity
  8
visible
100
AcDbLine
 10
80.32058844074425
 20
-25.1615383237027
 30
0.0
 11
38.16337352438397
 21
-50.09082553964349
 31
0.0
  0
ELLIPSE
  5
19E
330
17
100
AcDbEntity
  8
visible
100
AcDbEllipse
 10
8.764263124145302
 20
-55.349653399405746
 30
0.0
 11
-0.20334881949320516
 21
-0.7737242775115176
 31
0.0
 40
0.5097766750243188
 41
5.188403450011043
 42
6.283185307179586
  0
ELLIPSE
  5
19F
330
17
100
AcDbEntity
  8
visible
100
AcDbEllipse
 10
8.764263124145302
 20
-53.144022270572535
 30
0.0
 11
0.20334881949320516
 21
0.7737242775115176
 31
0.0
 40
0.5097766750243188
 41
-5.807170837553233
 42
-4.236374510758337
  0
LINE
  5
1A0
330
17
100
AcDbEntity
  8
visible
100
AcDbLine
 10
38.82901375983149
 20
-53.20660941120152
 30
0.0
 11
38.82901375983149
 21
-51.000978282368315
 31
0.0
  0
ELLIPSE
  5
1A1
330
17
100
AcDbEntity
  8
visible
100
AcDbEllipse
 10
20.523907285024748
 20
-48.39569433390647
 30
0.0
 11
-22.0
 21
-0.0
 31
0.0
 40
0.39422729526717704
 41
-5.300391583983539
 42
-3.7295952571886426
  0
ELLIPSE
  5
1A2
330
17
100
AcDbEntity
  8
visible
100
AcDbEllipse
 10
20.523907285024748
 20
-46.19006320507326
 30
0.0
 11
-22.0
 21
-0.0
 31
0.0
 40
0.39422729526717704
 41
-5.300391583983539
 42
-3.7295952571886426
  0
ELLIPSE
  5
1A3
330
17
100
AcDbEntity
  8
visible
100
AcDbEllipse
 10
38.16337352438398
 20
-53.03166704475443
 30
0.0
 11
0.40720384376610047
 21
-0.6886109421306877
 31
0.0
 40
0.7646650124515153
 41
-6.283185307179586
 42
-5.37065694811512
  0
ELLIPSE
  5
1A4
330
17
100
AcDbEntity
  8
visible
100
AcDbEllipse
 10
62.68112220138502
 20
-23.466407117965687
 30
0.0
 11
-22.0
 21
-0.0
 31
0.0
 40
0.39422729526717704
 41
-3.7295952571886426
 42
-3.141592653589793
  0
ELLIPSE
  5
1A5
330
17
100
AcDbEntity
  8
visible
100
AcDbEllipse
 10
80.32058844074425
 20
-28.102379828813646
 30
0.0
 11
0.40720384376610047
 21
-0.6886109421306877
 31
0.0
 40
0.7646650124515153
 41
-6.283185307179586
 42
-5.37065694811512
  0
LINE
  5
1A6
330
17
100
AcDbEntity
  8
visible
100
AcDbLine
 10
80.98622867619176
 20
-28.277322195260737
 30
0.0
 11
38.82901375983148
 21
-53.206609411201526
 31
0.0
  0
ELLIPSE
  5
1A7
330
17
100
AcDbEntity
  8
visible
100
AcDbEllipse
 10
74.44076636226447
 20
-14.306816923633207
 30
0.0
 11
-0.20334881949320516
 21
-0.7737242775115176
 31
0.0
 40
0.5097766750243188
 41
3.141592653589793
 42
3.617607123216146
  0
ELLIPSE
  5
1A8
330
17
100
AcDbEntity
  8
visible
100
AcDbEllipse
 10
38.16337352438398
 20
-50.82603591592122
 30
0.0
 11
-0.40720384376610047
 21
0.6886109421306877
 31
0.0
 40
0.7646650124515153
 41
4.054121012654259
 42
5.624917339449156
  0
ELLIPSE
  5
1A9
330
17
100
AcDbEntity
  8
visible
100
AcDbEllipse
 10
62.68112220138502
 20
-21.260775989132476
 30
0.0
 11
-22.0
 21
-0.0
 31
0.0
 40
0.39422729526717704
 41
-3.7295952571886426
 42
-3.141592653589793
  0
ELLIPSE
  5
1AA
330
17
100
AcDbEntity
  8
visible
100
AcDbEllipse
 10
80.32058844074425
 20
-25.896748699980435
 30
0.0
 11
-0.40720384376610047
 21
0.6886109421306877
 31
0.0
 40
0.7646650124515153
 41
4.054121012654259
 42
5.624917339449156
  0
LINE
  5
1AB
330
17
100
AcDbEntity
  8
visible
100
AcDbLine
 10
80.98622867619176
 20
-26.071691066427526
 30
0.0
 11
38.82901375983148
 21
-51.00097828236831
 31
0.0
  0
LINE
  5
1AC
330
17
100
AcDbEntity
  8
visible
100
AcDbLine
 10
80.98622867619176
 20
-28.277322195260737
 30
0.0
 11
80.98622867619176
 21
-26.071691066427533
 31
0.0
  0
ELLIPSE
  5
1AD
330
17
100
AcDbEntity
  8
visible
100
AcDbEllipse
 10
26.625609444711234
 20
-14.472333511938821
 30
0.0
 11
-5.0
 21
-0.0
 31
0.0
 40
0.39422729526717704
 41
-6.283185307179586
 42
-5.300391583983539
  0
LINE
  5
1AE
330
17
100
AcDbEntity
  8
visible
100
AcDbLine
 10
23.852108463371742
 20
-21.994101207419952
 30
0.0
 11
23.852108463371742
 21
-16.11241819719807
 31
0.0
  0
ELLIPSE
  5
1AF
330
17
100
AcDbEntity
  8
visible
100
AcDbEllipse
 10
20.801257384286586
 20
-4.91431584692522
 30
0.0
 11
-0.8
 21
-0.0
 31
0.0
 40
0.39422729526717704
 41
-6.283185307179586
 42
-5.300391583983539
  0
ELLIPSE
  5
1B0
330
17
100
AcDbEntity
  8
visible
100
AcDbEllipse
 10
30.34210076009444
 20
0.727575470366645
 30
0.0
 11
-4.575348438597116
 21
-17.408796244009146
 31
0.0
 40
0.5097766750243188
 41
5.188403450011043
 42
5.790680764986309
  0
ELLIPSE
  5
1B1
330
17
100
AcDbEntity
  8
visible
100
AcDbEllipse
 10
24.29586862038606
 20
-15.850004647556602
 30
0.0
 11
0.20334881949320516
 21
0.7737242775115176
 31
0.0
 40
0.5097766750243188
 41
-5.807170837553233
 42
-4.236374510758337
  0
ELLIPSE
  5
1B2
330
17
100
AcDbEntity
  8
visible
100
AcDbEllipse
 10
26.625609444711234
 20
-13.737123135661072
 30
0.0
 11
-4.2
 21
-0.0
 31
0.0
 40
0.39422729526717704
 41
-6.401933794351793
 42
-5.300391583983539
  0
LINE
  5
1B3
330
17
100
AcDbEntity
  8
visible
100
AcDbLine
 10
27.18030964060933
 20
-16.987130029433544
 30
0.0
 11
23.85210846337174
 21
-16.11241819719808
 31
0.0
  0
LINE
  5
1B4
330
17
100
AcDbEntity
  8
visible
100
AcDbLine
 10
27.18030964060933
 20
-22.868813039655414
 30
0.0
 11
27.18030964060933
 21
-16.987130029433533
 31
0.0
  0
ELLIPSE
  5
1B5
330
17
100
AcDbEntity
  8
visible
100
AcDbEllipse
 10
20.801257384286586
 20
31.38669648178795
 30
0.0
 11
-0.8
 21
4.832240938692109e-17
 31
0.0
 40
0.3942272952671769
 41
-6.283185307179586
 42
-5.300391583983539
  0
LINE
  5
1B6
330
17
100
AcDbEntity
  8
visible
100
AcDbLine
 10
20.35749722727227
 20
31.12428293214647
 30
0.0
 11
20.35749722727227
 21
-5.176729396566692
 31
0.0
  0
ELLIPSE
  5
1B7
330
17
100
AcDbEntity
  8
visible
100
AcDbEllipse
 10
30.34210076009444
 20
52.8356108890511
 30
0.0
 11
-0.40720384376610047
 21
0.6886109421306877
 31
0.0
 40
0.7646650124515153
 41
5.624917339449156
 42
6.283185307179586
  0
ELLIPSE
  5
1B8
330
17
100
AcDbEntity
  8
visible
100
AcDbEllipse
 10
30.34210076009444
 20
37.028587799079816
 30
0.0
 11
-4.575348438597116
 21
-17.408796244009146
 31
0.0
 40
0.5097766750243188
 41
3.617607123216146
 42
5.188403450011043
  0
ELLIPSE
  5
1B9
330
17
100
AcDbEntity
  8
visible
100
AcDbEllipse
 10
32.56090154516603
 20
54.14767863725851
 30
0.0
 11
-0.40720384376610047
 21
0.6886109421306879
 31
0.0
 40
0.7646650124515153
 41
5.624917339449156
 42
6.283185307179586
  0
LINE
  5
1BA
330
17
100
AcDbEntity
  8
visible
100
AcDbLine
 10
32.56090154516603
 20
54.88288901353626
 30
0.0
 11
30.34210076009444
 21
53.570821265328846
 31
0.0
  0
ELLIPSE
  5
1BB
330
17
100
AcDbEntity
  8
visible
100
AcDbEllipse
 10
32.56090154516603
 20
38.34065554728723
 30
0.0
 11
-4.575348438597116
 21
-17.408796244009146
 31
0.0
 40
0.5097766750243188
 41
3.141592653589793
 42
3.617607123216146
  0
ELLIPSE
  5
1BC
330
17
100
AcDbEntity
  8
visible
100
AcDbEllipse
 10
34.00312205505579
 20
-0.23460754509235926
 30
0.0
 11
-4.575348438597116
 21
-17.408796244009146
 31
0.0
 40
0.5097766750243188
 41
5.188403450011043
 42
5.784130982580404
  0
LINE
  5
1BD
330
17
100
AcDbEntity
  8
visible
100
AcDbLine
 10
20.35749722727227
 20
-5.176729396566693
 30
0.0
 11
24.018518522233624
 21
-6.138912412025704
 31
0.0
  0
ELLIPSE
  5
1BE
330
17
100
AcDbEntity
  8
visible
100
AcDbEllipse
 10
27.624069797623648
 20
-16.724716479792065
 30
0.0
 11
0.20334881949320516
 21
0.7737242775115176
 31
0.0
 40
0.5097766750243188
 41
-5.807170837553233
 42
-4.236374510758337
  0
LINE
  5
1BF
330
17
100
AcDbEntity
  8
visible
100
AcDbLine
 10
27.624069797623648
 20
-15.989506103514316
 30
0.0
 11
24.295868620386056
 21
-15.114794271278852
 31
0.0
  0
ELLIPSE
  5
1C0
330
17
100
AcDbEntity
  8
visible
100
AcDbEllipse
 10
29.953810621948822
 20
-14.611834967896534
 30
0.0
 11
-4.2
 21
-0.0
 31
0.0
 40
0.39422729526717704
 41
-5.300391583983539
 42
-4.132908695588185
  0
LINE
  5
1C1
330
17
100
AcDbEntity
  8
visible
100
AcDbLine
 10
34.114062093495804
 20
-22.322118144690485
 30
0.0
 11
34.114062093495804
 21
-17.8648129677561
 31
0.0
  0
ELLIPSE
  5
1C2
330
17
100
AcDbEntity
  8
visible
100
AcDbEllipse
 10
29.953810621948822
 20
-15.347045344174283
 30
0.0
 11
-5.0
 21
-0.0
 31
0.0
 40
0.39422729526717704
 41
-5.300391583983539
 42
-3.9976860610341114
  0
LINE
  5
1C3
330
17
100
AcDbEntity
  8
visible
100
AcDbLine
 10
24.01851852223362
 20
30.162099916687467
 30
0.0
 11
24.01851852223362
 21
-6.138912412025697
 31
0.0
  0
LINE
  5
1C4
330
17
100
AcDbEntity
  8
visible
100
AcDbLine
 10
20.35749722727227
 20
31.12428293214648
 30
0.0
 11
24.018518522233624
 21
30.162099916687467
 31
0.0
  0
LINE
  5
1C5
330
17
100
AcDbEntity
  8
visible
100
AcDbLine
 10
30.34210076009444
 20
53.57082126532885
 30
0.0
 11
34.00312205505579
 21
52.60863824986984
 31
0.0
  0
ELLIPSE
  5
1C6
330
17
100
AcDbEntity
  8
visible
100
AcDbEllipse
 10
34.00312205505579
 20
36.06640478362081
 30
0.0
 11
-4.575348438597116
 21
-17.408796244009146
 31
0.0
 40
0.5097766750243188
 41
3.617607123216146
 42
5.188403450011043
  0
LINE
  5
1C7
330
17
100
AcDbEntity
  8
visible
100
AcDbLine
 10
36.221922840127384
 20
53.92070599807724
 30
0.0
 11
34.00312205505579
 21
52.60863824986983
 31
0.0
  0
LINE
  5
1C8
330
17
100
AcDbEntity
  8
visible
100
AcDbLine
 10
32.56090154516603
 20
54.882889013536264
 30
0.0
 11
36.221922840127384
 21
53.92070599807725
 31
0.0
  0
ELLIPSE
  5
1C9
330
17
100
AcDbEntity
  8
visible
100
AcDbEllipse
 10
36.221922840127384
 20
37.37847253182821
 30
0.0
 11
-4.575348438597116
 21
-17.408796244009146
 31
0.0
 40
0.5097766750243188
 41
3.141592653589793
 42
3.617607123216146
  0
ELLIPSE
  5
1CA
330
17
100
AcDbEntity
  8
visible
100
AcDbEllipse
 10
24.462278679247937
 20
-5.876498862384224
 30
0.0
 11
0.8
 21
0.0
 31
0.0
 40
0.39422729526717704
 41
4.12438637678584
 42
5.438679159254318
  0
ELLIPSE
  5
1CB
330
17
100
AcDbEntity
  8
visible
100
AcDbEllipse
 10
24.462278679247937
 20
30.424513466328946
 30
0.0
 11
0.8
 21
-4.832240938692109e-17
 31
0.0
 40
0.3942272952671769
 41
4.12438637678584
 42
5.439082652236905
  0
ELLIPSE
  5
1CC
330
17
100
AcDbEntity
  8
visible
100
AcDbEllipse
 10
34.00312205505579
 20
51.87342787359209
 30
0.0
 11
0.40720384376610047
 21
-0.6886109421306877
 31
0.0
 40
0.7646650124515153
 41
-4.946683333303843
 42
-3.7998606213202235
  0
ELLIPSE
  5
1CD
330
17
100
AcDbEntity
  8
visible
100
AcDbEllipse
 10
36.221922840127384
 20
53.185495621799504
 30
0.0
 11
0.40720384376610047
 21
-0.6886109421306879
 31
0.0
 40
0.7646650124515153
 41
-4.937787974965918
 42
-3.7998606213202235
  0
ELLIPSE
  5
1CE
330
17
100
AcDbEntity
  8
visible
100
AcDbEllipse
 10
2.7735012508856016e-08
 20
-6.892597307153558
 30
0.0
 11
57.2
 21
0.0
 31
0.0
 40
0.39422729526717704
 41
2.6951929805508983
 42
5.583642099875766
  0
ELLIPSE
  5
1CF
330
17
100
AcDbEntity
  8
visible
100
AcDbEllipse
 10
24.29586862038606
 20
-21.73168765777848
 30
0.0
 11
-0.20334881949320516
 21
-0.7737242775115176
 31
0.0
 40
0.5097766750243188
 41
0.029346040658163375
 42
0.47601446962635285
  0
ELLIPSE
  5
1D0
330
17
100
AcDbEntity
  8
visible
100
AcDbEllipse
 10
27.624069797623648
 20
-22.606399490013942
 30
0.0
 11
-0.20334881949320516
 21
-0.7737242775115176
 31
0.0
 40
0.5097766750243188
 41
0.03103450185107115
 42
0.47601446962635285
  0
ELLIPSE
  5
1D1
330
17
100
AcDbEntity
  8
visible
100
AcDbEllipse
 10
33.44842185804829
 20
-22.1471757782434
 30
0.0
 11
0.40720384376610047
 21
-0.6886109421306877
 31
0.0
 40
0.7646650124515153
 41
-0.6582679677304304
 42
-0.15290745744625944
  0
ELLIPSE
  5
1D2
330
17
100
AcDbEntity
  8
visible
100
AcDbEllipse
 10
29.953810621948822
 20
-21.96393873067389
 30
0.0
 11
-4.2
 21
-0.0
 31
0.0
 40
0.39422729526717704
 41
-5.300391583983539
 42
-3.7295952571886426
  0
LINE
  5
1D3
330
17
100
AcDbEntity
  8
visible
100
AcDbLine
 10
25.349798993128655
 20
-6.488797144919894
 30
0.0
 11
46.483876468587354
 21
-12.043217279615087
 31
0.0
  0
LINE
  5
1D4
330
17
100
AcDbEntity
  8
visible
100
AcDbLine
 10
25.34979899312865
 20
29.812215183793285
 30
0.0
 11
25.34979899312865
 21
-6.488797144919879
 31
0.0
  0
LINE
  5
1D5
330
17
100
AcDbEntity
  8
visible
100
AcDbLine
 10
46.483876468587354
 20
24.257795049098092
 30
0.0
 11
46.483876468587354
 21
-12.043217279615071
 31
0.0
  0
LINE
  5
1D6
330
17
100
AcDbEntity
  8
visible
100
AcDbLine
 10
25.349798993128655
 20
29.812215183793278
 30
0.0
 11
46.483876468587354
 21
24.257795049098085
 31
0.0
  0
ELLIPSE
  5
1D7
330
17
100
AcDbEntity
  8
visible
100
AcDbEllipse
 10
35.33440252595082
 20
-0.5844922779865485
 30
0.0
 11
-4.575348438597116
 21
-17.408796244009146
 31
0.0
 40
0.5097766750243188
 41
5.188403450011043
 42
5.764130097991233
  0
ELLIPSE
  5
1D8
330
17
100
AcDbEntity
  8
visible
100
AcDbEllipse
 10
56.468480001409525
 20
-6.138912412681741
 30
0.0
 11
-4.575348438597116
 21
-17.408796244009146
 31
0.0
 40
0.5097766750243188
 41
5.188403450011043
 42
6.283185307179586
  0
ELLIPSE
  5
1D9
330
17
100
AcDbEntity
  8
visible
100
AcDbEllipse
 10
25.79355915014297
 20
30.074628733434764
 30
0.0
 11
-0.8
 21
4.832240938692109e-17
 31
0.0
 40
0.3942272952671769
 41
-6.283185307179586
 42
-5.300391583983539
  0
ELLIPSE
  5
1DA
330
17
100
AcDbEntity
  8
visible
100
AcDbEllipse
 10
25.79355915014297
 20
-6.226383595278406
 30
0.0
 11
-0.8
 21
-0.0
 31
0.0
 40
0.39422729526717704
 41
-6.283185307179586
 42
-5.300391583983539
  0
ELLIPSE
  5
1DB
330
17
100
AcDbEntity
  8
visible
100
AcDbEllipse
 10
46.92763662560167
 20
24.520208598739572
 30
0.0
 11
0.8
 21
-4.832240938692109e-17
 31
0.0
 40
0.3942272952671769
 41
4.12438637678584
 42
5.695182703580737
  0
LINE
  5
1DC
330
17
100
AcDbEntity
  8
visible
100
AcDbLine
 10
47.59327686104918
 20
24.345266232292474
 30
0.0
 11
47.59327686104918
 21
-11.95574609642069
 31
0.0
  0
ELLIPSE
  5
1DD
330
17
100
AcDbEntity
  8
visible
100
AcDbEllipse
 10
46.92763662560167
 20
-11.780803729973599
 30
0.0
 11
0.8
 21
0.0
 31
0.0
 40
0.39422729526717704
 41
4.12438637678584
 42
5.695182703580737
  0
LINE
  5
1DE
330
17
100
AcDbEntity
  8
visible
100
AcDbLine
 10
35.33440252595083
 20
52.25875351697565
 30
0.0
 11
56.468480001409525
 21
46.70433338228046
 31
0.0
  0
ELLIPSE
  5
1DF
330
17
100
AcDbEntity
  8
visible
100
AcDbEllipse
 10
35.33440252595082
 20
35.716520050726615
 30
0.0
 11
-4.575348438597116
 21
-17.408796244009146
 31
0.0
 40
0.5097766750243188
 41
3.617607123216146
 42
5.188403450011043
  0
ELLIPSE
  5
1E0
330
17
100
AcDbEntity
  8
visible
100
AcDbEllipse
 10
56.468480001409525
 20
30.162099916031423
 30
0.0
 11
-4.575348438597116
 21
-17.408796244009146
 31
0.0
 40
0.5097766750243188
 41
3.617607123216146
 42
5.188403450011043
  0
ELLIPSE
  5
1E1
330
17
100
AcDbEntity
  8
visible
100
AcDbEllipse
 10
57.134120236857036
 20
-6.313854779128832
 30
0.0
 11
-4.371999619103911
 21
-16.635071966497627
 31
0.0
 40
0.5097766750243188
 41
5.188403450011043
 42
6.759199776805939
  0
ELLIPSE
  5
1E2
330
17
100
AcDbEntity
  8
visible
100
AcDbEllipse
 10
56.468480001409525
 20
-21.94593550265305
 30
0.0
 11
-0.40720384376610047
 21
0.6886109421306879
 31
0.0
 40
0.7646650124515153
 41
3.141592653589793
 42
4.054121012654259
  0
ELLIPSE
  5
1E3
330
17
100
AcDbEntity
  8
visible
100
AcDbEllipse
 10
35.33440252595082
 20
51.52354314069791
 30
0.0
 11
-0.40720384376610047
 21
0.6886109421306877
 31
0.0
 40
0.7646650124515153
 41
5.624917339449156
 42
6.283185307179586
  0
ELLIPSE
  5
1E4
330
17
100
AcDbEntity
  8
visible
100
AcDbEllipse
 10
56.468480001409525
 20
45.96912300600272
 30
0.0
 11
0.40720384376610047
 21
-0.6886109421306877
 31
0.0
 40
0.7646650124515153
 41
-5.37065694811512
 42
-3.7998606213202235
  0
ELLIPSE
  5
1E5
330
17
100
AcDbEntity
  8
visible
100
AcDbEllipse
 10
57.134120236857036
 20
29.98715754958434
 30
0.0
 11
-4.371999619103911
 21
-16.635071966497627
 31
0.0
 40
0.5097766750243188
 41
3.617607123216146
 42
5.188403450011043
  0
LINE
  5
1E6
330
17
100
AcDbEntity
  8
visible
100
AcDbLine
 10
57.134120236857036
 20
-22.12087786910014
 30
0.0
 11
59.35292102192863
 21
-20.80881012089273
 31
0.0
  0
ELLIPSE
  5
1E7
330
17
100
AcDbEntity
  8
visible
100
AcDbEllipse
 10
59.35292102192863
 20
-5.001787030921427
 30
0.0
 11
-4.371999619103911
 21
-16.635071966497627
 31
0.0
 40
0.5097766750243188
 41
0.4760144696263529
 42
2.0468107964212496
  0
LINE
  5
1E8
330
17
100
AcDbEntity
  8
visible
100
AcDbLine
 10
59.35292102192863
 20
47.10624838776303
 30
0.0
 11
57.134120236857036
 21
45.79418063955562
 31
0.0
  0
LINE
  5
1E9
330
17
100
AcDbEntity
  8
visible
100
AcDbLine
 10
68.89376439773648
 20
0.6401042863704376
 30
0.0
 11
68.89376439773648
 21
36.9411166150836
 31
0.0
  0
ELLIPSE
  5
1EA
330
17
100
AcDbEntity
  8
visible
100
AcDbEllipse
 10
59.35292102192863
 20
31.29922529779175
 30
0.0
 11
-4.371999619103911
 21
-16.635071966497627
 31
0.0
 40
0.5097766750243188
 41
2.0468107964212496
 42
3.617607123216146
  0
LINE
  5
1EB
330
17
100
AcDbEntity
  8
visible
100
AcDbLine
 10
37.553203311022415
 20
53.570821265183056
 30
0.0
 11
35.33440252595082
 21
52.258753516975645
 31
0.0
  0
LINE
  5
1EC
330
17
100
AcDbEntity
  8
visible
100
AcDbLine
 10
58.68728078648112
 20
48.016401130487864
 30
0.0
 11
56.468480001409525
 21
46.70433338228045
 31
0.0
  0
LINE
  5
1ED
330
17
100
AcDbEntity
  8
visible
100
AcDbLine
 10
37.55320331102242
 20
53.57082126518306
 30
0.0
 11
58.68728078648112
 21
48.01640113048787
 31
0.0
  0
ELLIPSE
  5
1EE
330
17
100
AcDbEntity
  8
visible
100
AcDbEllipse
 10
58.68728078648112
 20
-20.633867754445646
 30
0.0
 11
-0.40720384376610047
 21
0.6886109421306877
 31
0.0
 40
0.7646650124515153
 41
3.141592653589793
 42
4.054121012654259
  0
ELLIPSE
  5
1EF
330
17
100
AcDbEntity
  8
visible
100
AcDbEllipse
 10
37.553203311022415
 20
52.83561088890531
 30
0.0
 11
-0.40720384376610047
 21
0.6886109421306879
 31
0.0
 40
0.7646650124515153
 41
5.624917339449156
 42
6.283185307179586
  0
ELLIPSE
  5
1F0
330
17
100
AcDbEntity
  8
visible
100
AcDbEllipse
 10
37.553203311022415
 20
37.028587798934026
 30
0.0
 11
-4.575348438597116
 21
-17.408796244009146
 31
0.0
 40
0.5097766750243188
 41
3.141592653589793
 42
3.617607123216146
  0
ELLIPSE
  5
1F1
330
17
100
AcDbEntity
  8
visible
100
AcDbEllipse
 10
58.68728078648112
 20
47.281190754210115
 30
0.0
 11
0.40720384376610047
 21
-0.6886109421306879
 31
0.0
 40
0.7646650124515153
 41
-5.37065694811512
 42
-3.7998606213202235
  0
ELLIPSE
  5
1F2
330
17
100
AcDbEntity
  8
visible
100
AcDbEllipse
 10
68.22812416228896
 20
0.8150466528175286
 30
0.0
 11
-0.8
 21
1.4496722816076328e-16
 31
0.0
 40
0.39422729526717687
 41
-3.7295952571886426
 42
-3.141592653589793
  0
ELLIPSE
  5
1F3
330
17
100
AcDbEntity
  8
visible
100
AcDbEllipse
 10
68.22812416228896
 20
37.1160589815307
 30
0.0
 11
-0.8
 21
-0.0
 31
0.0
 40
0.39422729526717704
 41
-3.7295952571886426
 42
-3.141592653589793
  0
ELLIPSE
  5
1F4
330
17
100
AcDbEntity
  8
visible
100
AcDbEllipse
 10
58.68728078648112
 20
31.474167664238834
 30
0.0
 11
-4.575348438597116
 21
-17.408796244009146
 31
0.0
 40
0.5097766750243188
 41
3.141592653589793
 42
3.617607123216146
  0
ELLIPSE
  5
1F5
330
17
100
AcDbEntity
  8
visible
100
AcDbEllipse
 10
58.99236589427129
 20
23.094277498657704
 30
0.0
 11
-3.5586043411310873
 21
-13.540174856451559
 31
0.0
 40
0.5097766750243188
 41
3.1415926535897936
 42
6.283185307179587
  0
ELLIPSE
  5
1F6
330
17
100
AcDbEntity
  8
visible
100
AcDbEllipse
 10
59.32518601199505
 20
23.00680631543416
 30
0.0
 11
-3.4569299313844843
 21
-13.1533127176958
 31
0.0
 40
0.5097766750243188
 41
0.4760144696263529
 42
6.759199776805939
  0
LINE
  5
1F7
330
17
100
AcDbEntity
  8
visible
100
AcDbLine
 10
-42.54550502251818
 20
11.355324232683566
 30
0.0
 11
-46.20652631747953
 21
12.317507248142576
 31
0.0
  0
LINE
  5
1F8
330
17
100
AcDbEntity
  8
visible
100
AcDbLine
 10
-42.54550502251818
 20
47.65633656139673
 30
0.0
 11
-42.54550502251818
 21
11.355324232683564
 31
0.0
  0
LINE
  5
1F9
330
17
100
AcDbEntity
  8
visible
100
AcDbLine
 10
-46.20652631747953
 20
48.61851957685573
 30
0.0
 11
-46.20652631747953
 21
12.317507248142569
 31
0.0
  0
LINE
  5
1FA
330
17
100
AcDbEntity
  8
visible
100
AcDbLine
 10
-42.54550502251818
 20
47.656336561396735
 30
0.0
 11
-46.20652631747953
 21
48.618519576855746
 31
0.0
  0
ELLIPSE
  5
1FB
330
17
100
AcDbEntity
  8
visible
100
AcDbEllipse
 10
-32.56090148969601
 20
17.2596290996169
 30
0.0
 11
-4.575348438597116
 21
-17.408796244009146
 31
0.0
 40
0.5097766750243188
 41
5.188403450011043
 42
5.6693147882779735
  0
ELLIPSE
  5
1FC
330
17
100
AcDbEntity
  8
visible
100
AcDbEllipse
 10
-36.22192278465736
 20
18.22181211507592
 30
0.0
 11
-4.575348438597116
 21
-17.408796244009146
 31
0.0
 40
0.5097766750243188
 41
5.188403450011043
 42
5.7774344202273165
  0
ELLIPSE
  5
1FD
330
17
100
AcDbEntity
  8
visible
100
AcDbEllipse
 10
-42.10174486550386
 20
47.91875011103821
 30
0.0
 11
0.8
 21
-4.832240938692109e-17
 31
0.0
 40
0.3942272952671769
 41
4.12438637678584
 42
5.695182703580737
  0
ELLIPSE
  5
1FE
330
17
100
AcDbEntity
  8
visible
100
AcDbEllipse
 10
-42.10174486550386
 20
11.617737782325037
 30
0.0
 11
0.8
 21
0.0
 31
0.0
 40
0.39422729526717704
 41
4.12438637678584
 42
5.695182703580737
  0
ELLIPSE
  5
1FF
330
17
100
AcDbEntity
  8
visible
100
AcDbEllipse
 10
-45.76276616046521
 20
48.880933126497226
 30
0.0
 11
-0.8
 21
4.832240938692109e-17
 31
0.0
 40
0.3942272952671769
 41
-6.283185307179586
 42
-5.300391583983539
  0
ELLIPSE
  5
200
330
17
100
AcDbEntity
  8
visible
100
AcDbEllipse
 10
-45.76276616046521
 20
12.579920797784055
 30
0.0
 11
-0.8
 21
-0.0
 31
0.0
 40
0.39422729526717704
 41
-6.283185307179586
 42
-5.300391583983539
  0
LINE
  5
201
330
17
100
AcDbEntity
  8
visible
100
AcDbLine
 10
-32.56090148969601
 20
70.1028748945791
 30
0.0
 11
-36.22192278465736
 21
71.0650579100381
 31
0.0
  0
ELLIPSE
  5
202
330
17
100
AcDbEntity
  8
visible
100
AcDbEllipse
 10
-32.56090148969601
 20
53.56064142833007
 30
0.0
 11
-4.575348438597116
 21
-17.408796244009146
 31
0.0
 40
0.5097766750243188
 41
3.617607123216146
 42
5.188403450011043
  0
ELLIPSE
  5
203
330
17
100
AcDbEntity
  8
visible
100
AcDbEllipse
 10
-36.22192278465736
 20
54.52282444378909
 30
0.0
 11
-4.575348438597116
 21
-17.408796244009146
 31
0.0
 40
0.5097766750243188
 41
3.617607123216146
 42
5.188403450011043
  0
ELLIPSE
  5
204
330
17
100
AcDbEntity
  8
visible
100
AcDbEllipse
 10
-45.596356101603334
 20
2.610845126422859
 30
0.0
 11
0.20334881949320516
 21
0.7737242775115176
 31
0.0
 40
0.5097766750243188
 41
-5.807170837553233
 42
-4.236374510758337
  0
ELLIPSE
  5
205
330
17
100
AcDbEntity
  8
visible
100
AcDbEllipse
 10
-43.26661527727816
 20
4.723726638318368
 30
0.0
 11
4.2
 21
0.0
 31
0.0
 40
0.39422729526717704
 41
4.12438637678584
 42
5.169480068185885
  0
ELLIPSE
  5
206
330
17
100
AcDbEntity
  8
visible
100
AcDbEllipse
 10
-43.26661527727816
 20
3.9885162620406334
 30
0.0
 11
5.0
 21
0.0
 31
0.0
 40
0.39422729526717704
 41
4.12438637678584
 42
5.138867959285503
  0
ELLIPSE
  5
207
330
17
100
AcDbEntity
  8
visible
100
AcDbEllipse
 10
-46.59481645451575
 20
5.59843847055383
 30
0.0
 11
4.2
 21
0.0
 31
0.0
 40
0.39422729526717704
 41
2.973021498323449
 42
4.12438637678584
  0
LINE
  5
208
330
17
100
AcDbEntity
  8
visible
100
AcDbLine
 10
-48.92455727884092
 20
4.220767334936056
 30
0.0
 11
-45.59635610160333
 21
3.346055502700592
 31
0.0
  0
ELLIPSE
  5
209
330
17
100
AcDbEntity
  8
visible
100
AcDbEllipse
 10
-32.56090148969601
 20
69.36766451830135
 30
0.0
 11
0.40720384376610047
 21
-0.6886109421306877
 31
0.0
 40
0.7646650124515153
 41
-5.37065694811512
 42
-3.7998606213202235
  0
ELLIPSE
  5
20A
330
17
100
AcDbEntity
  8
visible
100
AcDbEllipse
 10
-36.22192278465736
 20
70.32984753376036
 30
0.0
 11
-0.40720384376610047
 21
0.6886109421306877
 31
0.0
 40
0.7646650124515153
 41
5.624917339449156
 42
6.283185307179586
  0
LINE
  5
20B
330
17
100
AcDbEntity
  8
visible
100
AcDbLine
 10
-30.342100704624414
 20
71.41494264278651
 30
0.0
 11
-32.56090148969601
 21
70.1028748945791
 31
0.0
  0
LINE
  5
20C
330
17
100
AcDbEntity
  8
visible
100
AcDbLine
 10
-34.003121999585765
 20
72.37712565824552
 30
0.0
 11
-36.22192278465736
 21
71.0650579100381
 31
0.0
  0
LINE
  5
20D
330
17
100
AcDbEntity
  8
visible
100
AcDbLine
 10
-30.342100704624414
 20
71.41494264278653
 30
0.0
 11
-34.003121999585765
 21
72.37712565824553
 31
0.0
  0
LINE
  5
20E
330
17
100
AcDbEntity
  8
visible
100
AcDbLine
 10
-46.04011625861765
 20
-3.5332514334405043
 30
0.0
 11
-46.04011625861765
 21
2.348431576781376
 31
0.0
  0
ELLIPSE
  5
20F
330
17
100
AcDbEntity
  8
visible
100
AcDbEllipse
 10
-43.26661527727816
 20
-1.893166748181251
 30
0.0
 11
5.0
 21
0.0
 31
0.0
 40
0.39422729526717704
 41
4.12438637678584
 42
5.695182703580737
  0
ELLIPSE
  5
210
330
17
100
AcDbEntity
  8
visible
100
AcDbEllipse
 10
-48.92455727884092
 20
3.4855569586583215
 30
0.0
 11
0.20334881949320516
 21
0.7737242775115176
 31
0.0
 40
0.5097766750243188
 41
-5.807170837553233
 42
-4.236374510758337
  0
LINE
  5
211
330
17
100
AcDbEntity
  8
visible
100
AcDbLine
 10
-49.36831743585524
 20
3.223143409016842
 30
0.0
 11
-46.040116258617644
 21
2.348431576781378
 31
0.0
  0
ELLIPSE
  5
212
330
17
100
AcDbEntity
  8
visible
100
AcDbEllipse
 10
-46.59481645451575
 20
4.86322809427611
 30
0.0
 11
5.0
 21
0.0
 31
0.0
 40
0.39422729526717704
 41
3.141592653589793
 42
4.12438637678584
  0
ELLIPSE
  5
213
330
17
100
AcDbEntity
  8
visible
100
AcDbEllipse
 10
-30.342100704624414
 20
70.67973226650878
 30
0.0
 11
0.40720384376610047
 21
-0.6886109421306879
 31
0.0
 40
0.7646650124515153
 41
-5.37065694811512
 42
-3.7998606213202235
  0
ELLIPSE
  5
214
330
17
100
AcDbEntity
  8
visible
100
AcDbEllipse
 10
-30.342100704624414
 20
54.872709176537484
 30
0.0
 11
-4.575348438597116
 21
-17.408796244009146
 31
0.0
 40
0.5097766750243188
 41
3.141592653589793
 42
3.617607123216146
  0
ELLIPSE
  5
215
330
17
100
AcDbEntity
  8
visible
100
AcDbEllipse
 10
-34.003121999585765
 20
71.64191528196778
 30
0.0
 11
-0.40720384376610047
 21
0.6886109421306879
 31
0.0
 40
0.7646650124515153
 41
5.624917339449156
 42
6.283185307179586
  0
ELLIPSE
  5
216
330
17
100
AcDbEntity
  8
visible
100
AcDbEllipse
 10
-34.003121999585765
 20
55.83489219199649
 30
0.0
 11
-4.575348438597116
 21
-17.408796244009146
 31
0.0
 40
0.5097766750243188
 41
3.141592653589793
 42
3.617607123216146
  0
LINE
  5
217
330
17
100
AcDbEntity
  8
visible
100
AcDbLine
 10
-49.36831743585524
 20
-2.6585396012050495
 30
0.0
 11
-46.040116258617644
 21
-3.5332514334405136
 31
0.0
  0
LINE
  5
218
330
17
100
AcDbEntity
  8
visible
100
AcDbLine
 10
-49.36831743585524
 20
-2.658539601205042
 30
0.0
 11
-49.36831743585524
 21
3.2231434090168385
 31
0.0
  0
ELLIPSE
  5
219
330
17
100
AcDbEntity
  8
visible
100
AcDbEllipse
 10
-45.596356101603334
 20
-3.2708378837990324
 30
0.0
 11
-0.20334881949320516
 21
-0.7737242775115176
 31
0.0
 40
0.5097766750243188
 41
5.188403450011043
 42
6.283185307179586
  0
ELLIPSE
  5
21A
330
17
100
AcDbEntity
  8
visible
100
AcDbEllipse
 10
-46.59481645451575
 20
-1.0184549159457887
 30
0.0
 11
5.0
 21
0.0
 31
0.0
 40
0.39422729526717704
 41
3.141592653589793
 42
4.12438637678584
  0
ELLIPSE
  5
21B
330
17
100
AcDbEntity
  8
visible
100
AcDbEllipse
 10
-48.92455727884092
 20
-2.39612605156357
 30
0.0
 11
-0.20334881949320516
 21
-0.7737242775115176
 31
0.0
 40
0.5097766750243188
 41
5.188403450011043
 42
6.283185307179586
  0
LINE
  5
21C
330
17
100
AcDbEntity
  8
visible
100
AcDbLine
 10
-47.53780678837457
 20
12.667391981036753
 30
0.0
 11
-68.67188426383326
 21
18.221812115731943
 31
0.0
  0
LINE
  5
21D
330
17
100
AcDbEntity
  8
visible
100
AcDbLine
 10
-47.53780678837456
 20
48.96840430974993
 30
0.0
 11
-47.53780678837456
 21
12.667391981036765
 31
0.0
  0
LINE
  5
21E
330
17
100
AcDbEntity
  8
visible
100
AcDbLine
 10
-68.67188426383326
 20
54.52282444444512
 30
0.0
 11
-68.67188426383326
 21
18.221812115731957
 31
0.0
  0
LINE
  5
21F
330
17
100
AcDbEntity
  8
visible
100
AcDbLine
 10
-47.53780678837457
 20
48.96840430974992
 30
0.0
 11
-68.67188426383326
 21
54.522824444445114
 31
0.0
  0
ELLIPSE
  5
220
330
17
100
AcDbEntity
  8
visible
100
AcDbEllipse
 10
-37.55320325555239
 20
18.571696847970102
 30
0.0
 11
-4.575348438597116
 21
-17.408796244009146
 31
0.0
 40
0.5097766750243188
 41
5.188403450011043
 42
5.764130097991233
  0
ELLIPSE
  5
221
330
17
100
AcDbEntity
  8
visible
100
AcDbEllipse
 10
-58.68728073101109
 20
24.126116982665295
 30
0.0
 11
-4.575348438597116
 21
-17.408796244009146
 31
0.0
 40
0.5097766750243188
 41
5.188403450011043
 42
6.283185307179586
  0
ELLIPSE
  5
222
330
17
100
AcDbEntity
  8
visible
100
AcDbEllipse
 10
-47.09404663136024
 20
49.23081785939141
 30
0.0
 11
0.8
 21
-4.832240938692109e-17
 31
0.0
 40
0.3942272952671769
 41
4.12438637678584
 42
5.439082652236909
  0
ELLIPSE
  5
223
330
17
100
AcDbEntity
  8
visible
100
AcDbEllipse
 10
-47.09404663136024
 20
12.929805530678237
 30
0.0
 11
0.8
 21
0.0
 31
0.0
 40
0.39422729526717704
 41
4.12438637678584
 42
5.4386791592543
  0
ELLIPSE
  5
224
330
17
100
AcDbEntity
  8
visible
100
AcDbEllipse
 10
-68.22812410681894
 20
54.7852379940866
 30
0.0
 11
-0.8
 21
4.832240938692109e-17
 31
0.0
 40
0.3942272952671769
 41
-6.283185307179586
 42
-5.300391583983539
  0
ELLIPSE
  5
225
330
17
100
AcDbEntity
  8
visible
100
AcDbEllipse
 10
-68.22812410681894
 20
18.48422566537343
 30
0.0
 11
-0.8
 21
-0.0
 31
0.0
 40
0.39422729526717704
 41
-6.283185307179586
 42
-5.300391583983539
  0
LINE
  5
226
330
17
100
AcDbEntity
  8
visible
100
AcDbLine
 10
-37.5532032555524
 20
71.4149426429323
 30
0.0
 11
-58.68728073101109
 21
76.9693627776275
 31
0.0
  0
ELLIPSE
  5
227
330
17
100
AcDbEntity
  8
visible
100
AcDbEllipse
 10
-37.55320325555239
 20
54.87270917668327
 30
0.0
 11
-4.575348438597116
 21
-17.408796244009146
 31
0.0
 40
0.5097766750243188
 41
3.617607123216146
 42
5.188403450011043
  0
ELLIPSE
  5
228
330
17
100
AcDbEntity
  8
visible
100
AcDbEllipse
 10
-58.68728073101109
 20
60.427129311378465
 30
0.0
 11
-4.575348438597116
 21
-17.408796244009146
 31
0.0
 40
0.5097766750243188
 41
3.617607123216146
 42
5.188403450011043
  0
ELLIPSE
  5
229
330
17
100
AcDbEntity
  8
visible
100
AcDbEllipse
 10
-37.55320325555239
 20
70.67973226665455
 30
0.0
 11
0.40720384376610047
 21
-0.6886109421306877
 31
0.0
 40
0.7646650124515153
 41
-4.946683333303839
 42
-3.7998606213202235
  0
ELLIPSE
  5
22A
330
17
100
AcDbEntity
  8
visible
100
AcDbEllipse
 10
-58.68728073101109
 20
76.23415240134975
 30
0.0
 11
-0.40720384376610047
 21
0.6886109421306877
 31
0.0
 40
0.7646650124515153
 41
5.624917339449156
 42
6.283185307179586
  0
LINE
  5
22B
330
17
100
AcDbEntity
  8
visible
100
AcDbLine
 10
-35.334402470480796
 20
72.72701039113971
 30
0.0
 11
-37.55320325555239
 21
71.4149426429323
 31
0.0
  0
LINE
  5
22C
330
17
100
AcDbEntity
  8
visible
100
AcDbLine
 10
-56.4684799459395
 20
78.2814305258349
 30
0.0
 11
-58.68728073101109
 21
76.9693627776275
 31
0.0
  0
LINE
  5
22D
330
17
100
AcDbEntity
  8
visible
100
AcDbLine
 10
-35.3344024704808
 20
72.72701039113973
 30
0.0
 11
-56.4684799459395
 21
78.28143052583492
 31
0.0
  0
ELLIPSE
  5
22E
330
17
100
AcDbEntity
  8
visible
100
AcDbEllipse
 10
-35.334402470480796
 20
71.99180001486195
 30
0.0
 11
0.40720384376610047
 21
-0.6886109421306879
 31
0.0
 40
0.7646650124515153
 41
-4.9377879749659
 42
-3.7998606213202235
  0
ELLIPSE
  5
22F
330
17
100
AcDbEntity
  8
visible
100
AcDbEllipse
 10
-35.334402470480796
 20
56.184776924890684
 30
0.0
 11
-4.575348438597116
 21
-17.408796244009146
 31
0.0
 40
0.5097766750243188
 41
3.141592653589793
 42
3.617607123216146
  0
ELLIPSE
  5
230
330
17
100
AcDbEntity
  8
visible
100
AcDbEllipse
 10
-56.4684799459395
 20
77.54622014955714
 30
0.0
 11
-0.40720384376610047
 21
0.6886109421306879
 31
0.0
 40
0.7646650124515153
 41
5.624917339449156
 42
6.283185307179586
  0
ELLIPSE
  5
231
330
17
100
AcDbEntity
  8
visible
100
AcDbEllipse
 10
-56.4684799459395
 20
61.73919705958588
 30
0.0
 11
-4.575348438597116
 21
-17.408796244009146
 31
0.0
 40
0.5097766750243188
 41
3.141592653589793
 42
3.617607123216146
  0
ELLIPSE
  5
232
330
17
100
AcDbEntity
  8
visible
100
AcDbEllipse
 10
-38.412988561182125
 20
2.870148171267374
 30
0.0
 11
-3.0
 21
-0.0
 31
0.0
 40
0.39422729526717704
 41
-6.283185307179586
 42
-5.300391583983539
  0
ELLIPSE
  5
233
330
17
100
AcDbEntity
  8
visible
100
AcDbEllipse
 10
-38.412988561182125
 20
5.9947922704477605
 30
0.0
 11
-3.0
 21
-0.0
 31
0.0
 40
0.39422729526717704
 41
-6.283185307179586
 42
-5.300391583983539
  0
LINE
  5
234
330
17
100
AcDbEntity
  8
visible
100
AcDbLine
 10
-40.07708914998582
 20
1.8860973601118123
 30
0.0
 11
-40.07708914998582
 21
5.010741459292186
 31
0.0
  0
ELLIPSE
  5
235
330
17
100
AcDbEntity
  8
visible
100
AcDbEllipse
 10
-39.6333289929715
 20
2.1485109097532984
 30
0.0
 11
-0.20334881949320516
 21
-0.7737242775115176
 31
0.0
 40
0.5097766750243188
 41
5.188403450011043
 42
6.283185307179586
  0
ELLIPSE
  5
236
330
17
100
AcDbEntity
  8
visible
100
AcDbEllipse
 10
-39.6333289929715
 20
5.273155008933685
 30
0.0
 11
0.20334881949320516
 21
0.7737242775115176
 31
0.0
 40
0.5097766750243188
 41
-5.807170837553233
 42
-4.236374510758337
  0
LINE
  5
237
330
17
100
AcDbEntity
  8
visible
100
AcDbLine
 10
7.349777625649843
 20
-10.578546249243544
 30
0.0
 11
-40.07708914998581
 21
1.8860973601118065
 31
0.0
  0
LINE
  5
238
330
17
100
AcDbEntity
  8
visible
100
AcDbLine
 10
7.349777625649843
 20
-7.453902150063158
 30
0.0
 11
-40.07708914998581
 21
5.010741459292193
 31
0.0
  0
LINE
  5
239
330
17
100
AcDbEntity
  8
visible
100
AcDbLine
 10
7.349777625649843
 20
-10.578546249243544
 30
0.0
 11
7.349777625649843
 21
-7.45390215006317
 31
0.0
  0
ELLIPSE
  5
23A
330
17
100
AcDbEntity
  8
visible
100
AcDbEllipse
 10
7.79353778266416
 20
-10.316132699602058
 30
0.0
 11
-0.20334881949320516
 21
-0.7737242775115176
 31
0.0
 40
0.5097766750243188
 41
5.188403450011043
 42
6.283185307179586
  0
ELLIPSE
  5
23B
330
17
100
AcDbEntity
  8
visible
100
AcDbEllipse
 10
7.79353778266416
 20
-7.191488600421671
 30
0.0
 11
0.20334881949320516
 21
0.7737242775115176
 31
0.0
 40
0.5097766750243188
 41
-5.807170837553233
 42
-4.236374510758337
  0
LINE
  5
23C
330
17
100
AcDbEntity
  8
visible
100
AcDbLine
 10
11.510029097381727
 20
-10.250529312264582
 30
0.0
 11
11.510029097381727
 21
-7.125885213084208
 31
0.0
  0
ELLIPSE
  5
23D
330
17
100
AcDbEntity
  8
visible
100
AcDbEllipse
 10
9.013878214453536
 20
-9.594495438087982
 30
0.0
 11
-3.0
 21
-0.0
 31
0.0
 40
0.39422729526717704
 41
-5.300391583983539
 42
-3.7295952571886426
  0
ELLIPSE
  5
23E
330
17
100
AcDbEntity
  8
visible
100
AcDbEllipse
 10
9.013878214453536
 20
-6.469851338907596
 30
0.0
 11
-3.0
 21
-0.0
 31
0.0
 40
0.39422729526717704
 41
-5.300391583983539
 42
-3.7295952571886426
  0
ELLIPSE
  5
23F
330
17
100
AcDbEntity
  8
visible
100
AcDbEllipse
 10
10.844388861934208
 20
-10.075586945817491
 30
0.0
 11
0.40720384376610047
 21
-0.6886109421306877
 31
0.0
 40
0.7646650124515153
 41
-6.283185307179586
 42
-5.37065694811512
  0
LINE
  5
240
330
17
100
AcDbEntity
  8
visible
100
AcDbLine
 10
20.00309050113846
 20
-5.228234374211006
 30
0.0
 11
11.510029097381725
 21
-10.250529312264579
 31
0.0
  0
LINE
  5
241
330
17
100
AcDbEntity
  8
visible
100
AcDbLine
 10
20.001257384286586
 20
5.051373389133114
 30
0.0
 11
5.963027135442342
 21
-3.250006921954114
 31
0.0
  0
ELLIPSE
  5
242
330
17
100
AcDbEntity
  8
visible
100
AcDbEllipse
 10
5.297386899994825
 20
-3.075064555507012
 30
0.0
 11
0.40720384376610047
 21
-0.6886109421306877
 31
0.0
 40
0.7646650124515153
 41
-6.283185307179586
 42
-5.37065694811512
  0
ELLIPSE
  5
243
330
17
100
AcDbEntity
  8
visible
100
AcDbEllipse
 10
-32.14487634400202
 20
6.1968808662326325
 30
0.0
 11
-0.20334881949320516
 21
-0.7737242775115176
 31
0.0
 40
0.5097766750243188
 41
5.188403450011043
 42
6.283185307179586
  0
ELLIPSE
  5
244
330
17
100
AcDbEntity
  8
visible
100
AcDbEllipse
 10
-31.479236108480542
 20
6.590501190694852
 30
0.0
 11
-2.0
 21
-0.0
 31
0.0
 40
0.39422729526717704
 41
-6.283185307179586
 42
-5.300391583983539
  0
ELLIPSE
  5
245
330
17
100
AcDbEntity
  8
visible
100
AcDbEllipse
 10
10.844388861934208
 20
-6.950942846637105
 30
0.0
 11
-0.40720384376610047
 21
0.6886109421306877
 31
0.0
 40
0.7646650124515153
 41
4.054121012654259
 42
5.624917339449156
  0
LINE
  5
246
330
17
100
AcDbEntity
  8
visible
100
AcDbLine
 10
20.001257384286586
 20
-2.1046742720781317
 30
0.0
 11
11.510029097381725
 21
-7.125885213084192
 31
0.0
  0
ELLIPSE
  5
247
330
17
100
AcDbEntity
  8
visible
100
AcDbEllipse
 10
4.29892654682355
 20
-2.812651005836379
 30
0.0
 11
-2.0
 21
-0.0
 31
0.0
 40
0.39422729526717704
 41
-5.300391583983539
 42
-3.7295952571886426
  0
ELLIPSE
  5
248
330
17
100
AcDbEntity
  8
visible
100
AcDbEllipse
 10
3.633286311302072
 20
-3.2062713302985983
 30
0.0
 11
-0.20334881949320516
 21
-0.7737242775115176
 31
0.0
 40
0.5097766750243188
 41
5.188403450011043
 42
6.283185307179586
  0
LINE
  5
249
330
17
100
AcDbEntity
  8
visible
100
AcDbLine
 10
3.189526154287753
 20
-3.468684879940085
 30
0.0
 11
-32.58863650101634
 21
5.934467316591146
 31
0.0
  0
LINE
  5
24A
330
17
100
AcDbEntity
  8
visible
100
AcDbLine
 10
5.963027135442344
 20
-3.25000692195411
 30
0.0
 11
5.963027135442344
 21
-0.12536282277373578
 31
0.0
  0
LINE
  5
24B
330
17
100
AcDbEntity
  8
visible
100
AcDbLine
 10
7.367668997853375
 20
0.7052594204900089
 30
0.0
 11
5.963027135442342
 21
-0.12536282277372734
 31
0.0
  0
ELLIPSE
  5
24C
330
17
100
AcDbEntity
  8
visible
100
AcDbEllipse
 10
-31.479236108480542
 20
9.715145289875238
 30
0.0
 11
-2.0
 21
-0.0
 31
0.0
 40
0.39422729526717704
 41
-6.283185307179586
 42
-5.300391583983539
  0
LINE
  5
24D
330
17
100
AcDbEntity
  8
visible
100
AcDbLine
 10
-32.58863650101634
 20
5.934467316591153
 30
0.0
 11
-32.58863650101634
 21
9.059111415771527
 31
0.0
  0
ELLIPSE
  5
24E
330
17
100
AcDbEntity
  8
visible
100
AcDbEllipse
 10
4.29892654682355
 20
0.3119930933440074
 30
0.0
 11
-2.0
 21
-0.0
 31
0.0
 40
0.39422729526717704
 41
-5.300391583983539
 42
-3.7295952571886426
  0
LINE
  5
24F
330
17
100
AcDbEntity
  8
visible
100
AcDbLine
 10
3.189526154287753
 20
-3.4686848799400845
 30
0.0
 11
3.189526154287753
 21
-0.34404078075971034
 31
0.0
  0
LINE
  5
250
330
17
100
AcDbEntity
  8
visible
100
AcDbLine
 10
3.189526154287753
 20
-0.34404078075969835
 30
0.0
 11
-32.58863650101634
 21
9.059111415771532
 31
0.0
  0
ELLIPSE
  5
251
330
17
100
AcDbEntity
  8
visible
100
AcDbEllipse
 10
5.297386899994825
 20
0.04957954367337436
 30
0.0
 11
-0.40720384376610047
 21
0.6886109421306877
 31
0.0
 40
0.7646650124515153
 41
4.054121012654259
 42
5.624917339449156
  0
ELLIPSE
  5
252
330
17
100
AcDbEntity
  8
visible
100
AcDbEllipse
 10
-32.14487634400202
 20
9.321524965413019
 30
0.0
 11
0.20334881949320516
 21
0.7737242775115176
 31
0.0
 40
0.5097766750243188
 41
-5.807170837553233
 42
-4.236374510758337
  0
ELLIPSE
  5
253
330
17
100
AcDbEntity
  8
visible
100
AcDbEllipse
 10
3.633286311302072
 20
-0.0816272311182118
 30
0.0
 11
0.20334881949320516
 21
0.7737242775115176
 31
0.0
 40
0.5097766750243188
 41
-5.807170837553233
 42
-4.236374510758337
  0
ELLIPSE
  5
254
330
17
100
AcDbEntity
  8
visible
100
AcDbEllipse
 10
-32.58863650083144
 20
14.891780400711227
 30
0.0
 11
4.0
 21
0.0
 31
0.0
 40
0.39422729526717704
 41
3.141592653589793
 42
4.12438637678584
  0
ELLIPSE
  5
255
330
17
100
AcDbEntity
  8
visible
100
AcDbEllipse
 10
-32.58863650083144
 20
53.49032515529231
 30
0.0
 11
4.0
 21
0.0
 31
0.0
 40
0.39422729526717704
 41
3.141592653589793
 42
4.12438637678584
  0
LINE
  5
256
330
17
100
AcDbEntity
  8
visible
100
AcDbLine
 10
-34.807437285903035
 20
13.57971265250383
 30
0.0
 11
-34.807437285903035
 21
52.17825740708492
 31
0.0
  0
ELLIPSE
  5
257
330
17
100
AcDbEntity
  8
visible
100
AcDbEllipse
 10
-32.58863650083144
 20
53.49032515529231
 30
0.0
 11
-2.036019218830502
 21
3.4430547106534384
 31
0.0
 40
0.7646650124515153
 41
5.624917339449156
 42
6.283185307179586
  0
LINE
  5
258
330
17
100
AcDbEntity
  8
visible
100
AcDbLine
 10
-32.58863650083144
 20
57.166377036681
 30
0.0
 11
-6.517727276240219
 21
72.58317307811807
 31
0.0
  0
ELLIPSE
  5
259
330
17
100
AcDbEntity
  8
visible
100
AcDbEllipse
 10
-6.517727276240217
 20
68.90712119672938
 30
0.0
 11
2.036019218830502
 21
-3.4430547106534384
 31
0.0
 40
0.7646650124515153
 41
-3.7998606213202235
 42
-3.141592653589793
  0
ELLIPSE
  5
25A
330
17
100
AcDbEntity
  8
visible
100
AcDbEllipse
 10
-32.58863650083144
 20
14.891780400711227
 30
0.0
 11
1.0167440974660258
 21
3.868621387557588
 31
0.0
 40
0.5097766750243188
 41
-4.236374510758337
 42
-3.141592653589793
  0
ELLIPSE
  5
25B
330
17
100
AcDbEntity
  8
visible
100
AcDbEllipse
 10
-32.58863650083144
 20
53.49032515529231
 30
0.0
 11
-1.0167440974660258
 21
-3.868621387557588
 31
0.0
 40
0.5097766750243188
 41
3.617607123216146
 42
5.188403450011043
  0
LINE
  5
25C
330
17
100
AcDbEntity
  8
visible
100
AcDbLine
 10
-34.807437285903035
 20
13.57971265250383
 30
0.0
 11
4.298926546638647
 21
3.3018486237371345
 31
0.0
  0
LINE
  5
25D
330
17
100
AcDbEntity
  8
visible
100
AcDbLine
 10
-34.807437285903035
 20
52.178257407084914
 30
0.0
 11
4.298926546638647
 21
41.90039337831822
 31
0.0
  0
LINE
  5
25E
330
17
100
AcDbEntity
  8
visible
100
AcDbLine
 10
4.298926546638649
 20
3.30184862373713
 30
0.0
 11
4.298926546638649
 21
41.90039337831822
 31
0.0
  0
LINE
  5
25F
330
17
100
AcDbEntity
  8
visible
100
AcDbLine
 10
-32.58863650083144
 20
57.166377036681
 30
0.0
 11
6.51772733171024
 21
46.888513007914305
 31
0.0
  0
LINE
  5
260
330
17
100
AcDbEntity
  8
visible
100
AcDbLine
 10
-6.517727276240215
 20
72.58317307811807
 30
0.0
 11
32.588636556301466
 21
62.30530904935137
 31
0.0
  0
LINE
  5
261
330
17
100
AcDbEntity
  8
visible
100
AcDbLine
 10
6.517727331710242
 20
46.8885130079143
 30
0.0
 11
32.588636556301466
 21
62.305309049351365
 31
0.0
  0
ELLIPSE
  5
262
330
17
100
AcDbEntity
  8
visible
100
AcDbEllipse
 10
-6.517727276240217
 20
68.90712119672938
 30
0.0
 11
-1.0167440974660256
 21
-3.868621387557588
 31
0.0
 40
0.5097766750243188
 41
3.141592653589793
 42
3.617607123216146
  0
ELLIPSE
  5
263
330
17
100
AcDbEntity
  8
visible
100
AcDbEllipse
 10
6.517727331710242
 20
4.613916371944541
 30
0.0
 11
1.0167440974660258
 21
3.868621387557588
 31
0.0
 40
0.5097766750243188
 41
-4.236374510758337
 42
-3.141592653589793
  0
ELLIPSE
  5
264
330
17
100
AcDbEntity
  8
visible
100
AcDbEllipse
 10
6.517727331710242
 20
43.212461126525625
 30
0.0
 11
-1.0167440974660258
 21
-3.868621387557588
 31
0.0
 40
0.5097766750243188
 41
3.617607123216146
 42
5.188403450011043
  0
LINE
  5
265
330
17
100
AcDbEntity
  8
visible
100
AcDbLine
 10
9.84592850894783
 20
3.739204539709079
 30
0.0
 11
9.84592850894783
 21
42.33774929429017
 31
0.0
  0
ELLIPSE
  5
266
330
17
100
AcDbEntity
  8
visible
100
AcDbEllipse
 10
6.517727331710242
 20
4.613916371944541
 30
0.0
 11
-4.0
 21
-0.0
 31
0.0
 40
0.39422729526717704
 41
-5.300391583983539
 42
-3.7295952571886426
  0
ELLIPSE
  5
267
330
17
100
AcDbEntity
  8
visible
100
AcDbEllipse
 10
6.517727331710242
 20
43.212461126525625
 30
0.0
 11
-4.0
 21
-0.0
 31
0.0
 40
0.39422729526717704
 41
-5.300391583983539
 42
-3.7295952571886426
  0
ELLIPSE
  5
268
330
17
100
AcDbEntity
  8
visible
100
AcDbEllipse
 10
6.517727331710242
 20
4.613916371944541
 30
0.0
 11
-2.036019218830502
 21
3.4430547106534384
 31
0.0
 40
0.7646650124515153
 41
3.141592653589793
 42
4.054121012654259
  0
LINE
  5
269
330
17
100
AcDbEntity
  8
visible
100
AcDbLine
 10
9.84592850894783
 20
3.7392045397090765
 30
0.0
 11
20.001257384286586
 21
9.744466291652017
 31
0.0
  0
ELLIPSE
  5
26A
330
17
100
AcDbEntity
  8
visible
100
AcDbEllipse
 10
32.588636556301466
 20
58.62925716796269
 30
0.0
 11
-1.0167440974660262
 21
-3.868621387557588
 31
0.0
 40
0.5097766750243188
 41
3.141592653589793
 42
3.617607123216146
  0
ELLIPSE
  5
26B
330
17
100
AcDbEntity
  8
visible
100
AcDbEllipse
 10
6.517727331710242
 20
43.212461126525625
 30
0.0
 11
2.036019218830502
 21
-3.4430547106534384
 31
0.0
 40
0.7646650124515153
 41
-5.37065694811512
 42
-3.7998606213202235
  0
LINE
  5
26C
330
17
100
AcDbEntity
  8
visible
100
AcDbLine
 10
9.84592850894783
 20
42.33774929429016
 30
0.0
 11
35.916837733539055
 21
57.75454533572723
 31
0.0
  0
ELLIPSE
  5
26D
330
17
100
AcDbEntity
  8
visible
100
AcDbEllipse
 10
32.588636556301466
 20
58.62925716796269
 30
0.0
 11
-2.036019218830502
 21
3.4430547106534384
 31
0.0
 40
0.7646650124515153
 41
4.054121012654259
 42
5.624917339449156
  0
LINE
  5
26E
330
17
100
AcDbEntity
  8
visible
100
AcDbLine
 10
35.916837733539055
 20
55.92238680436438
 30
0.0
 11
35.916837733539055
 21
57.75454533572724
 31
0.0
  0
ELLIPSE
  5
26F
330
17
100
AcDbEntity
  8
visible
100
AcDbEllipse
 10
32.588636556301466
 20
58.62925716796269
 30
0.0
 11
-4.0
 21
-0.0
 31
0.0
 40
0.39422729526717704
 41
-3.7295952571886426
 42
-3.141592653589793
  0
LINE
  5
270
330
17
100
AcDbEntity
  8
visible
100
AcDbLine
 10
-84.681122145915
 20
-63.28841734190664
 30
0.0
 11
-84.681122145915
 21
-33.6961996967278
 31
0.0
  0
SPLINE
  5
271
330
17
100
AcDbEntity
  8
visible
100
AcDbSpline
 70
0
 71
3
 72
17
 73
13
 74
0
 40
0.0
 40
0.0
 40
0.0
 40
0.0
 40
0.3682889011061481
 40
0.3682889011061481
 40
0.3682889011061481
 40
0.5138624185840547
 40
0.5138624185840547
 40
0.5138624185840547
 40
0.631711098893852
 40
0.631711098893852
 40
0.631711098893852
 40
1.0
 40
1.0
 40
1.0
 40
1.0
 10
-74.64411512628766
 20
-71.01610068491742
 30
0.0
 10
-77.39089301404671
 20
-70.29442597285515
 30
0.0
 10
-79.7243184297413
 20
-69.32309550520255
 30
0.0
 10
-81.43989040565351
 20
-68.16322363490467
 30
0.0
 10
-82.12047291465203
 20
-67.70444920535998
 30
0.0
 10
-82.70167226716767
 20
-67.21572036406155
 30
0.0
 10
-83.18348846320055
 20
-66.69703711100942
 30
0.0
 10
-83.5735066302321
 20
-66.27703141729468
 30
0.0
 10
-83.89119160290616
 20
-65.83755434437431
 30
0.0
 10
-84.13654338122274
 20
-65.37860589224823
 30
0.0
 10
-84.49146316290162
 20
-64.71287874178924
 30
0.0
 10
-84.68185150710596
 20
-64.00287574872334
 30
0.0
 10
-84.681122145915
 20
-63.288417341906644
 30
0.0
  0
LINE
  5
272
330
17
100
AcDbEntity
  8
visible
100
AcDbLine
 10
84.68112220138502
 20
-60.226925931852435
 30
0.0
 11
84.68112220138502
 21
-30.6347082866736
 31
0.0
  0
LINE
  5
273
330
17
100
AcDbEntity
  8
visible
100
AcDbLine
 10
8.560914304652094
 20
-92.883896490804
 30
0.0
 11
-74.64411512628766
 21
-71.01610068491743
 31
0.0
  0
SPLINE
  5
274
330
17
100
AcDbEntity
  8
visible
100
AcDbSpline
 70
0
 71
1
 72
4
 73
2
 74
0
 40
0.0
 40
0.0
 40
1.0
 40
1.0
 10
-40.061593538789964
 20
-57.36913470536949
 30
0.0
 10
-40.39441365655071
 20
-57.56594486760059
 30
0.0
  0
SPLINE
  5
275
330
17
100
AcDbEntity
  8
visible
100
AcDbSpline
 70
0
 71
1
 72
4
 73
2
 74
0
 40
0.0
 40
0.0
 40
1.0
 40
1.0
 10
-38.13658639750931
 20
-61.09241218914151
 30
0.0
 10
-38.29953806016068
 20
-61.1887721789703
 30
0.0
  0
SPLINE
  5
276
330
17
100
AcDbEntity
  8
visible
100
AcDbSpline
 70
0
 71
3
 72
14
 73
10
 74
0
 40
0.0
 40
0.0
 40
0.0
 40
0.0
 40
0.25
 40
0.25
 40
0.25
 40
0.5
 40
0.5
 40
0.5
 40
1.0
 40
1.0
 40
1.0
 40
1.0
 10
84.68112220138502
 20
-60.22692593185243
 30
0.0
 10
84.68164934145463
 20
-60.86127423074994
 30
0.0
 10
84.53180661073213
 20
-61.4930411690019
 30
0.0
 10
84.24929039189364
 20
-62.09211031591702
 30
0.0
 10
83.96379410420676
 20
-62.69258652243665
 30
0.0
 10
83.55741253205578
 20
-63.26073885682202
 30
0.0
 10
83.03014567544037
 20
-63.79656731907313
 30
0.0
 10
82.4098847245455
 20
-64.42703859299652
 30
0.0
 10
81.64243359423546
 20
-65.01201934824915
 30
0.0
 10
80.72779228451033
 20
-65.55150958483108
 30
0.0
  0
LINE
  5
277
330
17
100
AcDbEntity
  8
visible
100
AcDbLine
 10
80.72779228451036
 20
-65.55150958483108
 30
0.0
 11
38.57057736815008
 21
-90.48079680077187
 31
0.0
  0
SPLINE
  5
278
330
17
100
AcDbEntity
  8
visible
100
AcDbSpline
 70
0
 71
3
 72
17
 73
13
 74
0
 40
0.0
 40
0.0
 40
0.0
 40
0.0
 40
0.18112428855580343
 40
0.18112428855580343
 40
0.18112428855580343
 40
0.3862986553795469
 40
0.3862986553795469
 40
0.3862986553795469
 40
0.6259420018328019
 40
0.6259420018328019
 40
0.6259420018328019
 40
1.0
 40
1.0
 40
1.0
 40
1.0
 10
38.57057736815007
 20
-90.48079680077186
 30
0.0
 10
37.40195490179278
 20
-91.17192323805263
 30
0.0
 10
36.0039847761222
 20
-91.78680541244289
 30
0.0
 10
34.42441882935823
 20
-92.3107066579838
 30
0.0
 10
32.635960566477834
 20
-92.90418480588787
 30
0.0
 10
30.614390248624005
 20
-93.37973022388951
 30
0.0
 10
28.456796607656003
 20
-93.71653608926113
 30
0.0
 10
25.937503621611103
 20
-94.11056548049434
 30
0.0
 10
23.233734494179913
 20
-94.31405983225443
 30
0.0
 10
20.528632496057995
 20
-94.31383385154862
 30
0.0
 10
16.304431217811825
 20
-94.31678462952664
 30
0.0
 10
12.091260593389457
 20
-93.81491146186067
 30
0.0
 10
8.560914304652094
 20
-92.883896490804
 30
0.0
  0
SPLINE
  5
279
330
17
100
AcDbEntity
  8
visible
100
AcDbSpline
 70
0
 71
2
 72
6
 73
3
 74
0
 40
0.0
 40
0.0
 40
0.0
 40
0.09696083984249614
 40
0.09696083984249614
 40
0.09696083984249614
 10
-84.681122145915
 20
-27.998319280575352
 30
0.0
 10
-84.68106621807956
 20
-27.629045043937918
 30
0.0
 10
-84.6149401304796
 20
-27.263103160236433
 30
0.0
  0
SPLINE
  5
27A
330
17
100
AcDbEntity
  8
visible
100
AcDbSpline
 70
0
 71
2
 72
6
 73
3
 74
0
 40
0.0
 40
0.0
 40
0.0
 40
1.0
 40
1.0
 40
1.0
 10
84.61494018594959
 20
-24.20162323830459
 30
0.0
 10
84.68104579125169
 20
-24.5675155578493
 30
0.0
 10
84.68112220138502
 20
-24.93682787052115
 30
0.0
  0
LINE
  5
27B
330
17
100
AcDbEntity
  8
visible
100
AcDbLine
 10
84.68112220138502
 20
-29.531892722256995
 30
0.0
 11
84.68112220138502
 21
-24.93682787052115
 31
0.0
  0
LINE
  5
27C
330
17
100
AcDbEntity
  8
visible
100
AcDbLine
 10
-84.681122145915
 20
-32.5933841323112
 30
0.0
 11
-84.681122145915
 21
-27.998319280575352
 31
0.0
  0
LINE
  5
27D
330
17
100
AcDbEntity
  8
visible
100
AcDbLine
 10
-84.681122145915
 20
-26.527898528019893
 30
0.0
 11
-84.681122145915
 21
-24.322267399186682
 31
0.0
  0
LINE
  5
27E
330
17
100
AcDbEntity
  8
visible
100
AcDbLine
 10
-80.72779222904033
 20
-18.997683746208025
 30
0.0
 11
-57.74471554347588
 21
-5.406849509715832
 31
0.0
  0
SPLINE
  5
27F
330
17
100
AcDbEntity
  8
visible
100
AcDbSpline
 70
0
 71
3
 72
17
 73
13
 74
0
 40
0.0
 40
0.0
 40
0.0
 40
0.0
 40
0.36828890110614915
 40
0.36828890110614915
 40
0.36828890110614915
 40
0.5138624185840514
 40
0.5138624185840514
 40
0.5138624185840514
 40
0.6317110988938509
 40
0.6317110988938509
 40
0.6317110988938509
 40
1.0
 40
1.0
 40
1.0
 40
1.0
 10
-74.64411512628766
 20
-34.25558187103067
 30
0.0
 10
-77.39089301404671
 20
-33.53390715896842
 30
0.0
 10
-79.7243184297413
 20
-32.56257669131581
 30
0.0
 10
-81.43989040565351
 20
-31.402704821017895
 30
0.0
 10
-82.12047291465198
 20
-30.9439303914732
 30
0.0
 10
-82.70167226716771
 20
-30.45520155017479
 30
0.0
 10
-83.18348846320059
 20
-29.936518297122692
 30
0.0
 10
-83.57350663023213
 20
-29.516512603407964
 30
0.0
 10
-83.89119160290618
 20
-29.07703553048756
 30
0.0
 10
-84.13654338122274
 20
-28.61808707836149
 30
0.0
 10
-84.49146316290164
 20
-27.952359927902517
 30
0.0
 10
-84.68185150710595
 20
-27.242356934836543
 30
0.0
 10
-84.681122145915
 20
-26.52789852801989
 30
0.0
  0
SPLINE
  5
280
330
17
100
AcDbEntity
  8
visible
100
AcDbSpline
 70
0
 71
3
 72
14
 73
10
 74
0
 40
0.0
 40
0.0
 40
0.0
 40
0.0
 40
0.25
 40
0.25
 40
0.25
 40
0.5
 40
0.5
 40
0.5
 40
1.0
 40
1.0
 40
1.0
 40
1.0
 10
-84.681122145915
 20
-24.32226739918668
 30
0.0
 10
-84.68164928598453
 20
-23.687919100289182
 30
0.0
 10
-84.53180655526222
 20
-23.056152162037197
 30
0.0
 10
-84.24929033642358
 20
-22.457083015122095
 30
0.0
 10
-83.96379404873676
 20
-21.856606808602486
 30
0.0
 10
-83.5574124765857
 20
-21.288454474217115
 30
0.0
 10
-83.03014561997036
 20
-20.752626011965987
 30
0.0
 10
-82.40988466907547
 20
-20.122154738042596
 30
0.0
 10
-81.64243353876547
 20
-19.537173982789955
 30
0.0
 10
-80.72779222904032
 20
-18.997683746208025
 30
0.0
  0
LINE
  5
281
330
17
100
AcDbEntity
  8
visible
100
AcDbLine
 10
8.560914304652094
 20
-56.12337767691726
 30
0.0
 11
-74.64411512628766
 21
-34.25558187103068
 31
0.0
  0
SPLINE
  5
282
330
17
100
AcDbEntity
  8
visible
100
AcDbSpline
 70
0
 71
3
 72
17
 73
13
 74
0
 40
0.0
 40
0.0
 40
0.0
 40
0.0
 40
0.18112428855578958
 40
0.18112428855578958
 40
0.18112428855578958
 40
0.38629865537951735
 40
0.38629865537951735
 40
0.38629865537951735
 40
0.6259420018327834
 40
0.6259420018327834
 40
0.6259420018327834
 40
1.0
 40
1.0
 40
1.0
 40
1.0
 10
38.57057736815007
 20
-53.72027798688511
 30
0.0
 10
37.40195490179276
 20
-54.41140442416586
 30
0.0
 10
36.00398477612224
 20
-55.02628659855615
 30
0.0
 10
34.42441882935824
 20
-55.55018784409704
 30
0.0
 10
32.635960566477735
 20
-56.14366599200117
 30
0.0
 10
30.61439024862389
 20
-56.61921141000278
 30
0.0
 10
28.45679660765599
 20
-56.95601727537439
 30
0.0
 10
25.93750362161111
 20
-57.35004666660757
 30
0.0
 10
23.233734494179906
 20
-57.55354101836773
 30
0.0
 10
20.528632496058
 20
-57.55331503766188
 30
0.0
 10
16.304431217811793
 20
-57.55626581563984
 30
0.0
 10
12.09126059338943
 20
-57.05439264797393
 30
0.0
 10
8.560914304652094
 20
-56.12337767691726
 30
0.0
  0
SPLINE
  5
283
330
17
100
AcDbEntity
  8
visible
100
AcDbSpline
 70
0
 71
3
 72
14
 73
10
 74
0
 40
0.0
 40
0.0
 40
0.0
 40
0.0
 40
0.25
 40
0.25
 40
0.25
 40
0.5
 40
0.5
 40
0.5
 40
1.0
 40
1.0
 40
1.0
 40
1.0
 10
84.68112220138502
 20
-23.466407117965687
 30
0.0
 10
84.6816493414546
 20
-24.10075541686318
 30
0.0
 10
84.53180661073213
 20
-24.732522355115172
 30
0.0
 10
84.24929039189362
 20
-25.33159150203027
 30
0.0
 10
83.96379410420676
 20
-25.932067708549877
 30
0.0
 10
83.55741253205574
 20
-26.500220042935258
 30
0.0
 10
83.03014567544038
 20
-27.03604850518638
 30
0.0
 10
82.4098847245455
 20
-27.666519779109755
 30
0.0
 10
81.64243359423548
 20
-28.251500534362417
 30
0.0
 10
80.72779228451034
 20
-28.790990770944326
 30
0.0
  0
LINE
  5
284
330
17
100
AcDbEntity
  8
visible
100
AcDbLine
 10
80.72779228451036
 20
-28.790990770944333
 30
0.0
 11
38.57057736815008
 21
-53.72027798688512
 31
0.0
  0
LINE
  5
285
330
17
100
AcDbEntity
  8
visible
100
AcDbLine
 10
66.56101901402354
 20
-11.408707886158762
 30
0.0
 11
74.64411518175768
 21
-13.53309264612168
 31
0.0
  0
SPLINE
  5
286
330
17
100
AcDbEntity
  8
visible
100
AcDbSpline
 70
0
 71
3
 72
17
 73
13
 74
0
 40
0.0
 40
0.0
 40
0.0
 40
0.0
 40
0.36828890110613544
 40
0.36828890110613544
 40
0.36828890110613544
 40
0.5138624185840419
 40
0.5138624185840419
 40
0.5138624185840419
 40
0.6317110988938646
 40
0.6317110988938646
 40
0.6317110988938646
 40
1.0
 40
1.0
 40
1.0
 40
1.0
 10
74.64411518175768
 20
-13.533092646121688
 30
0.0
 10
77.39089306951671
 20
-14.25476735818394
 30
0.0
 10
79.72431848521133
 20
-15.22609782583655
 30
0.0
 10
81.43989046112355
 20
-16.38596969613446
 30
0.0
 10
82.120472970122
 20
-16.844744125679163
 30
0.0
 10
82.70167232263775
 20
-17.333472966977567
 30
0.0
 10
83.18348851867059
 20
-17.852156220029663
 30
0.0
 10
83.57350668570216
 20
-18.272161913744387
 30
0.0
 10
83.89119165837623
 20
-18.711638986664802
 30
0.0
 10
84.13654343669275
 20
-19.170587438790882
 30
0.0
 10
84.49146321837166
 20
-19.836314589249845
 30
0.0
 10
84.681851562576
 20
-20.546317582315808
 30
0.0
 10
84.68112220138502
 20
-21.260775989132476
 30
0.0
  0
LINE
  5
287
330
17
100
AcDbEntity
  8
visible
100
AcDbLine
 10
84.68112220138502
 20
-23.46640711796569
 30
0.0
 11
84.68112220138502
 21
-21.26077598913248
 31
0.0
  0
SPLINE
  5
288
330
17
100
AcDbEntity
  8
visible
100
AcDbSpline
 70
0
 71
3
 72
14
 73
10
 74
0
 40
0.0
 40
0.0
 40
0.0
 40
0.0
 40
0.3333333333333333
 40
0.3333333333333333
 40
0.3333333333333333
 40
0.6666666666666666
 40
0.6666666666666666
 40
0.6666666666666666
 40
0.9005931749448918
 40
0.9005931749448918
 40
0.9005931749448918
 40
0.9005931749448918
 10
21.625609444711234
 20
-20.3540165221607
 30
0.0
 10
21.62404289058664
 20
-20.747169589262008
 30
0.0
 10
21.790434668622463
 20
-21.125052317740884
 30
0.0
 10
22.055376372235706
 20
-21.423313536594613
 30
0.0
 10
22.298723649116003
 20
-21.699659309657275
 30
0.0
 10
22.620533996556528
 20
-21.923572939292075
 30
0.0
 10
23.003432232975037
 20
-22.11140697539939
 30
0.0
 10
23.229547532755028
 20
-22.221716520963263
 30
0.0
 10
23.476088367598468
 20
-22.319289285609848
 30
0.0
 10
23.74305473750536
 20
-22.404125269339158
 30
0.0
  0
LINE
  5
289
330
17
100
AcDbEntity
  8
visible
100
AcDbLine
 10
21.625609444711234
 20
-20.354016522160695
 30
0.0
 11
21.625609444711234
 21
-14.472333511938814
 31
0.0
  0
SPLINE
  5
28A
330
17
100
AcDbEntity
  8
visible
100
AcDbSpline
 70
0
 71
3
 72
8
 73
4
 74
0
 40
0.0
 40
0.0
 40
0.0
 40
0.0
 40
0.9997990020673255
 40
0.9997990020673255
 40
0.9997990020673255
 40
0.9997990020673255
 10
20.001257384286582
 20
-4.914315846925214
 30
0.0
 10
19.999364515113605
 20
-8.354129505446798
 30
0.0
 10
20.665367470797396
 20
-11.403145066452314
 30
0.0
 10
21.94107140768114
 20
-13.545752356559845
 30
0.0
  0
SPLINE
  5
28B
330
17
100
AcDbEntity
  8
visible
100
AcDbSpline
 70
0
 71
3
 72
8
 73
4
 74
0
 40
0.0
 40
0.0
 40
0.0
 40
0.0
 40
1.0
 40
1.0
 40
1.0
 40
1.0
 10
21.942092722243828
 20
-13.544348672136337
 30
0.0
 10
21.743497054591696
 20
-13.814622812723902
 30
0.0
 10
21.62454133573889
 20
-14.139787325061153
 30
0.0
 10
21.625609444711234
 20
-14.472333511938821
 30
0.0
  0
LINE
  5
28C
330
17
100
AcDbEntity
  8
visible
100
AcDbLine
 10
38.57215057743293
 20
-20.046712453520797
 30
0.0
 11
33.8556257018144
 21
-22.83578672037408
 31
0.0
  0
LINE
  5
28D
330
17
100
AcDbEntity
  8
visible
100
AcDbLine
 10
20.001257384286586
 20
31.38669648178795
 30
0.0
 11
20.001257384286586
 21
-4.914315846925213
 31
0.0
  0
SPLINE
  5
28E
330
17
100
AcDbEntity
  8
visible
100
AcDbSpline
 70
0
 71
3
 72
17
 73
13
 74
0
 40
0.0
 40
0.0
 40
0.0
 40
0.0
 40
0.3422907390195748
 40
0.3422907390195748
 40
0.3422907390195748
 40
0.5220957214463182
 40
0.5220957214463182
 40
0.5220957214463182
 40
0.6965815820708181
 40
0.6965815820708181
 40
0.6965815820708181
 40
1.0
 40
1.0
 40
1.0
 40
1.0
 10
29.93489691632834
 20
53.524221831181805
 30
0.0
 10
28.0956982116299
 20
52.4382881783999
 30
0.0
 10
26.3226835182657
 20
50.57314090058057
 30
0.0
 10
24.801405933960773
 20
48.17763148074319
 30
0.0
 10
24.002512620489043
 20
46.920808645510704
 30
0.0
 10
23.274159746428627
 20
45.52069891126926
 30
0.0
 10
22.64266993761637
 20
44.03007936190271
 30
0.0
 10
22.029660943479186
 20
42.58381121696086
 30
0.0
 10
21.508063631726742
 20
41.05271144984747
 30
0.0
 10
21.096465532490345
 20
39.492076887929535
 30
0.0
 10
20.379181769295297
 20
36.77796268616261
 30
0.0
 10
19.999931175928726
 20
33.97708409544337
 30
0.0
 10
20.001257384286586
 20
31.386696481787954
 30
0.0
  0
LINE
  5
28F
330
17
100
AcDbEntity
  8
visible
100
AcDbLine
 10
32.153697701399935
 20
54.836289579389216
 30
0.0
 11
29.93489691632834
 21
53.524221831181805
 31
0.0
  0
SPLINE
  5
290
330
17
100
AcDbEntity
  8
visible
100
AcDbSpline
 70
0
 71
3
 72
11
 73
7
 74
0
 40
0.0
 40
0.0
 40
0.0
 40
0.0
 40
0.4197229525225096
 40
0.4197229525225096
 40
0.4197229525225096
 40
1.0
 40
1.0
 40
1.0
 40
1.0
 10
37.13624998376315
 20
55.74945179129636
 30
0.0
 10
36.47413946495417
 20
55.92377266381669
 30
0.0
 10
35.778631517331576
 20
55.96717483177429
 30
0.0
 10
35.075595524130044
 20
55.88242806588147
 30
0.0
 10
34.1029149466046
 20
55.76572163310723
 30
0.0
 10
33.117575255982615
 20
55.40651930346102
 30
0.0
 10
32.15369770139992
 20
54.83628957938921
 30
0.0
  0
LINE
  5
291
330
17
100
AcDbEntity
  8
visible
100
AcDbLine
 10
40.7972712787245
 20
54.78726877583735
 30
0.0
 11
37.13624998376315
 21
55.74945179129636
 31
0.0
  0
SPLINE
  5
292
330
17
100
AcDbEntity
  8
visible
100
AcDbSpline
 70
0
 71
2
 72
6
 73
3
 74
0
 40
0.0
 40
0.0
 40
0.0
 40
1.0
 40
1.0
 40
1.0
 10
41.45145981725192
 20
54.56879003835125
 30
0.0
 10
41.13083752250327
 20
54.69959332586409
 30
0.0
 10
40.7972712787245
 20
54.787268775837354
 30
0.0
  0
LINE
  5
293
330
17
100
AcDbEntity
  8
visible
100
AcDbLine
 10
-57.99999997226499
 20
-20.58589056532638
 30
0.0
 11
-57.99999997226499
 21
-7.6278076834312944
 31
0.0
  0
SPLINE
  5
294
330
17
100
AcDbEntity
  8
visible
100
AcDbSpline
 70
0
 71
3
 72
11
 73
7
 74
0
 40
0.0
 40
0.0
 40
0.0
 40
0.0
 40
0.43387274456110525
 40
0.43387274456110525
 40
0.43387274456110525
 40
1.0
 40
1.0
 40
1.0
 40
1.0
 10
-51.59481645451575
 20
3.1335071215485426
 30
0.0
 10
-53.383496265951045
 20
1.731439871457125
 30
0.0
 10
-54.82586743881879
 20
0.24665119859534826
 30
0.0
 10
-55.886581348673104
 20
-1.3036396630530311
 30
0.0
 10
-57.27145354602033
 20
-3.3238087381810706
 30
0.0
 10
-58.00191439933849
 20
-5.468848118982097
 30
0.0
 10
-57.99999997226499
 20
-7.6278076834313
 30
0.0
  0
SPLINE
  5
295
330
17
100
AcDbEntity
  8
visible
100
AcDbSpline
 70
0
 71
3
 72
11
 73
7
 74
0
 40
0.0
 40
0.0
 40
0.0
 40
0.0
 40
0.5
 40
0.5
 40
0.5
 40
0.8633451902533171
 40
0.8633451902533171
 40
0.8633451902533171
 40
0.8633451902533171
 10
48.00048070599865
 20
-33.78288070842419
 30
0.0
 10
52.025442291522786
 20
-31.402877784248563
 30
0.0
 10
54.95606439645476
 20
-28.70789810802899
 30
0.0
 10
56.570362365699786
 20
-25.80698366619194
 30
0.0
 10
57.25381789460935
 20
-24.579352430282338
 30
0.0
 10
57.7001776192589
 20
-23.31401889774332
 30
0.0
 10
57.89168404617286
 20
-22.033743928005435
 30
0.0
  0
SPLINE
  5
296
330
17
100
AcDbEntity
  8
visible
100
AcDbSpline
 70
0
 71
3
 72
26
 73
22
 74
0
 40
0.0
 40
0.0
 40
0.0
 40
0.0
 40
0.15149025316131073
 40
0.15149025316131073
 40
0.15149025316131073
 40
0.283441509180385
 40
0.283441509180385
 40
0.283441509180385
 40
0.4780008972200752
 40
0.4780008972200752
 40
0.4780008972200752
 40
0.6857916860199654
 40
0.6857916860199654
 40
0.6857916860199654
 40
0.8935824748198556
 40
0.8935824748198556
 40
0.8935824748198556
 40
0.9467912374099279
 40
0.9467912374099279
 40
0.9467912374099279
 40
1.0
 40
1.0
 40
1.0
 40
1.0
 10
-57.99999997226499
 20
-20.585890565326388
 30
0.0
 10
-58.00195611509477
 20
-22.764251348483832
 30
0.0
 10
-57.258276625042676
 20
-24.928167034798616
 30
0.0
 10
-55.849254709534186
 20
-26.964359269457596
 30
0.0
 10
-54.62269003574282
 20
-28.74034029618829
 30
0.0
 10
-52.89488104439211
 20
-30.42988894599509
 30
0.0
 10
-50.718960586904444
 20
-32.00713806837707
 30
0.0
 10
-47.51243560752728
 20
-34.332722295673705
 30
0.0
 10
-43.32205477632768
 20
-36.414738069291644
 30
0.0
 10
-38.37659965664513
 20
-38.15605702027588
 30
0.0
 10
-33.09802783876607
 20
-40.0168046430926
 30
0.0
 10
-26.956741355819055
 20
-41.485368163868124
 30
0.0
 10
-20.35458890342363
 20
-42.468570618949464
 30
0.0
 10
-13.754834326841907
 20
-43.45391285034253
 30
0.0
 10
-6.694218524846198
 20
-43.95389437052712
 30
0.0
 10
0.3582692841599454
 20
-43.93525195257955
 30
0.0
 10
9.726837602938005
 20
-43.916150868395654
 30
0.0
 10
19.080613551852167
 20
-42.972737783128245
 30
0.0
 10
27.33197070307356
 20
-41.21288416710166
 30
0.0
 10
35.59349460330349
 20
-39.45870448652045
 30
0.0
 10
42.750650422808825
 20
-36.89312277936315
 30
0.0
 10
48.000480705998655
 20
-33.78288070842419
 30
0.0
  0
LINE
  5
297
330
17
100
AcDbEntity
  8
visible
100
AcDbLine
 10
51.89313156281241
 20
-23.547708656690894
 30
0.0
 11
36.74981620638137
 21
-19.567769820019535
 31
0.0
  0
LINE
  5
298
330
17
100
AcDbEntity
  8
visible
100
AcDbLine
 10
24.993559150142975
 20
30.074628733434764
 30
0.0
 11
24.993559150142975
 21
-6.226383595278399
 31
0.0
  0
SPLINE
  5
299
330
17
100
AcDbEntity
  8
visible
100
AcDbSpline
 70
0
 71
3
 72
8
 73
4
 74
0
 40
0.0
 40
0.0
 40
0.0
 40
0.0
 40
1.0
 40
1.0
 40
1.0
 40
1.0
 10
24.993559150142975
 20
-6.226383595278406
 30
0.0
 10
24.992041268604122
 20
-9.407253121406146
 30
0.0
 10
25.56111904922055
 20
-12.256921264101036
 30
0.0
 10
26.65672151965786
 20
-14.359860355798531
 30
0.0
  0
SPLINE
  5
29A
330
17
100
AcDbEntity
  8
visible
100
AcDbSpline
 70
0
 71
3
 72
11
 73
7
 74
0
 40
0.0
 40
0.0
 40
0.0
 40
0.0
 40
0.4197229525225094
 40
0.4197229525225094
 40
0.4197229525225094
 40
1.0
 40
1.0
 40
1.0
 40
1.0
 10
51.893131562812414
 20
-23.547708656690894
 30
0.0
 10
52.55524208162135
 20
-23.722029529211227
 30
0.0
 10
53.25075002924396
 20
-23.765431697168815
 30
0.0
 10
53.953786022445506
 20
-23.680684931275994
 30
0.0
 10
54.926466599970915
 20
-23.563978498501758
 30
0.0
 10
55.91180629059296
 20
-23.204776168855535
 30
0.0
 10
56.87568384517563
 20
-22.63454644478374
 30
0.0
  0
SPLINE
  5
29B
330
17
100
AcDbEntity
  8
visible
100
AcDbSpline
 70
0
 71
3
 72
17
 73
13
 74
0
 40
0.0
 40
0.0
 40
0.0
 40
0.0
 40
0.3422907390195748
 40
0.3422907390195748
 40
0.3422907390195748
 40
0.5220957214463182
 40
0.5220957214463182
 40
0.5220957214463182
 40
0.6965815820708181
 40
0.6965815820708181
 40
0.6965815820708181
 40
1.0
 40
1.0
 40
1.0
 40
1.0
 10
34.92719868218472
 20
52.2121540828286
 30
0.0
 10
33.087999977486284
 20
51.12622043004676
 30
0.0
 10
31.314985284122095
 20
49.26107315222733
 30
0.0
 10
29.793707699817155
 20
46.86556373239
 30
0.0
 10
28.99481438634544
 20
45.608740897157524
 30
0.0
 10
28.266461512285005
 20
44.208631162916056
 30
0.0
 10
27.63497170347275
 20
42.71801161354951
 30
0.0
 10
27.02196270933558
 20
41.27174346860765
 30
0.0
 10
26.500365397583124
 20
39.74064370149428
 30
0.0
 10
26.08876729834673
 20
38.18000913957633
 30
0.0
 10
25.37148353515166
 20
35.46589493780941
 30
0.0
 10
24.992232941785108
 20
32.665016347090166
 30
0.0
 10
24.99355915014297
 20
30.074628733434764
 30
0.0
  0
LINE
  5
29C
330
17
100
AcDbEntity
  8
visible
100
AcDbLine
 10
56.87568384517563
 20
-22.634546444783737
 30
0.0
 11
59.09448463024722
 21
-21.322478696576326
 31
0.0
  0
LINE
  5
29D
330
17
100
AcDbEntity
  8
visible
100
AcDbLine
 10
37.14599946725632
 20
53.524221831036016
 30
0.0
 11
34.927198682184724
 21
52.212154082828604
 31
0.0
  0
SPLINE
  5
29E
330
17
100
AcDbEntity
  8
visible
100
AcDbSpline
 70
0
 71
3
 72
11
 73
7
 74
0
 40
0.0
 40
0.0
 40
0.0
 40
0.0
 40
0.4197229525225096
 40
0.4197229525225096
 40
0.4197229525225096
 40
1.0
 40
1.0
 40
1.0
 40
1.0
 10
42.12855174961953
 20
54.437384042943165
 30
0.0
 10
41.46644123081053
 20
54.61170491546351
 30
0.0
 10
40.77093328318798
 20
54.65510708342111
 30
0.0
 10
40.06789728998643
 20
54.570360317528284
 30
0.0
 10
39.09521671246098
 20
54.453653884754004
 30
0.0
 10
38.109877021839004
 20
54.09445155510784
 30
0.0
 10
37.14599946725632
 20
53.524221831036016
 30
0.0
  0
SPLINE
  5
29F
330
17
100
AcDbEntity
  8
visible
100
AcDbSpline
 70
0
 71
3
 72
17
 73
13
 74
0
 40
0.0
 40
0.0
 40
0.0
 40
0.0
 40
0.3422907390196142
 40
0.3422907390196142
 40
0.3422907390196142
 40
0.5220957214463674
 40
0.5220957214463674
 40
0.5220957214463674
 40
0.6965815820708479
 40
0.6965815820708479
 40
0.6965815820708479
 40
1.0
 40
1.0
 40
1.0
 40
1.0
 10
59.09448463024722
 20
-21.322478696576326
 30
0.0
 10
60.93368333494558
 20
-20.236545043794482
 30
0.0
 10
62.7066980283099
 20
-18.371397765975082
 30
0.0
 10
64.22797561261477
 20
-15.975888346137701
 30
0.0
 10
65.02686892608641
 20
-14.719065510905345
 30
0.0
 10
65.75522180014687
 20
-13.318955776664028
 30
0.0
 10
66.38671160895915
 20
-11.828336227297228
 30
0.0
 10
66.99972060309636
 20
-10.382068082355373
 30
0.0
 10
67.52131791484884
 20
-8.850968315242001
 30
0.0
 10
67.93291601408517
 20
-7.29033375332407
 30
0.0
 10
68.6501997772803
 20
-4.576219551557147
 30
0.0
 10
69.02945037064684
 20
-1.7753409608378887
 30
0.0
 10
69.02812416228896
 20
0.8150466528175286
 30
0.0
  0
LINE
  5
2A0
330
17
100
AcDbEntity
  8
visible
100
AcDbLine
 10
69.02812416228896
 20
0.8150466528175286
 30
0.0
 11
69.02812416228896
 21
37.11605898153069
 31
0.0
  0
SPLINE
  5
2A1
330
17
100
AcDbEntity
  8
visible
100
AcDbSpline
 70
0
 71
3
 72
14
 73
10
 74
0
 40
0.0
 40
0.0
 40
0.0
 40
0.0
 40
0.5975506447242436
 40
0.5975506447242436
 40
0.5975506447242436
 40
0.7610756475132154
 40
0.7610756475132154
 40
0.7610756475132154
 40
1.0
 40
1.0
 40
1.0
 40
1.0
 10
69.02812416228896
 20
37.1160589815307
 30
0.0
 10
69.03026774194917
 20
40.71715086217105
 30
0.0
 10
68.30005849744276
 20
43.887585358686266
 30
0.0
 10
66.9057963447199
 20
46.04241057448564
 30
0.0
 10
66.5240615672131
 20
46.635313391774055
 30
0.0
 10
66.09439460156888
 20
47.148367987235694
 30
0.0
 10
65.61679544778707
 20
47.58157436087059
 30
0.0
 10
64.9207216640052
 20
48.21205895226744
 30
0.0
 10
64.12231309038387
 20
48.657762327544916
 30
0.0
 10
63.26262922507823
 20
48.88296390824797
 30
0.0
  0
SPLINE
  5
2A2
330
17
100
AcDbEntity
  8
visible
100
AcDbSpline
 70
0
 71
3
 72
8
 73
4
 74
0
 40
0.0
 40
0.0
 40
0.0
 40
0.0
 40
1.0
 40
1.0
 40
1.0
 40
1.0
 10
54.85132634712363
 20
9.70717721284737
 30
0.0
 10
53.98394624666991
 20
9.934045837098356
 30
0.0
 10
53.20143687628215
 20
10.461606175692964
 30
0.0
 10
52.56007833450762
 20
11.234875519420314
 30
0.0
  0
SPLINE
  5
2A3
330
17
100
AcDbEntity
  8
visible
100
AcDbSpline
 70
0
 71
3
 72
8
 73
4
 74
0
 40
0.0
 40
0.0
 40
0.0
 40
0.0
 40
1.0
 40
1.0
 40
1.0
 40
1.0
 10
61.96853502938581
 20
36.78752692575047
 30
0.0
 10
61.101693140571115
 20
37.01644339769817
 30
0.0
 10
60.16091237325854
 20
36.94179506578472
 30
0.0
 10
59.222233860981675
 20
36.58378821159724
 30
0.0
  0
LINE
  5
2A4
330
17
100
AcDbEntity
  8
visible
100
AcDbLine
 10
63.262629225078236
 20
48.88296390824798
 30
0.0
 11
42.12855174961954
 21
54.43738404294317
 31
0.0
  0
LINE
  5
2A5
330
17
100
AcDbEntity
  8
visible
100
AcDbLine
 10
54.85132634712362
 20
9.707177212847368
 30
0.0
 11
55.43376155314019
 21
9.554102642206164
 31
0.0
  0
LINE
  5
2A6
330
17
100
AcDbEntity
  8
visible
100
AcDbLine
 10
61.96853502938579
 20
36.78752692575047
 30
0.0
 11
62.55097023540236
 21
36.63445235510926
 31
0.0
  0
SPLINE
  5
2A7
330
17
100
AcDbEntity
  8
visible
100
AcDbSpline
 70
0
 71
3
 72
23
 73
19
 74
0
 40
0.0
 40
0.0
 40
0.0
 40
0.0
 40
0.1607031339539064
 40
0.1607031339539064
 40
0.1607031339539064
 40
0.6408679876251944
 40
0.6408679876251944
 40
0.6408679876251944
 40
0.7212195546021476
 40
0.7212195546021476
 40
0.7212195546021476
 40
0.8015711215791008
 40
0.8015711215791008
 40
0.8015711215791008
 40
0.9109930205131346
 40
0.9109930205131346
 40
0.9109930205131346
 40
1.0
 40
1.0
 40
1.0
 40
1.0
 10
59.19596781615434
 20
10.251395630870874
 30
0.0
 10
59.73463376326347
 20
10.570494724273505
 30
0.0
 10
60.26410735408816
 20
10.972571594343982
 30
0.0
 10
60.784388588628346
 20
11.457626241082295
 30
0.0
 10
62.335345161267746
 20
12.89878432136889
 30
0.0
 10
63.76264389055077
 20
15.06131282885044
 30
0.0
 10
64.83542487775681
 20
17.576733464556824
 30
0.0
 10
65.56940912867582
 20
19.292036012465466
 30
0.0
 10
66.13821014247705
 20
21.165954202306597
 30
0.0
 10
66.49419896077791
 20
23.040235758639174
 30
0.0
 10
66.85141748857399
 20
24.914574070720853
 30
0.0
 10
66.99582382086979
 20
26.789275749293978
 30
0.0
 10
66.91422086514697
 20
28.507677679892574
 30
0.0
 10
66.8052503006334
 20
30.850309300622847
 30
0.0
 10
66.27620545027463
 20
32.89559082504229
 30
0.0
 10
65.38093790488999
 20
34.35114240886248
 30
0.0
 10
64.6564256001481
 20
35.53742053618433
 30
0.0
 10
63.67895402491314
 20
36.34027750952622
 30
0.0
 10
62.55097023540237
 20
36.63445235510926
 30
0.0
  0
SPLINE
  5
2A8
330
17
100
AcDbEntity
  8
visible
100
AcDbSpline
 70
0
 71
3
 72
8
 73
4
 74
0
 40
0.0
 40
0.0
 40
0.0
 40
0.0
 40
1.0
 40
1.0
 40
1.0
 40
1.0
 10
55.4337615531402
 20
9.55410264220616
 30
0.0
 10
56.615160656024386
 20
9.241035957383941
 30
0.0
 10
57.92589779844677
 20
9.496869619700153
 30
0.0
 10
59.19596781615434
 20
10.251395630870874
 30
0.0
  0
LINE
  5
2A9
330
17
100
AcDbEntity
  8
visible
100
AcDbLine
 10
-46.562766160465216
 20
48.880933126497226
 30
0.0
 11
-46.562766160465216
 21
12.579920797784062
 31
0.0
  0
SPLINE
  5
2AA
330
17
100
AcDbEntity
  8
visible
100
AcDbSpline
 70
0
 71
3
 72
8
 73
4
 74
0
 40
0.0
 40
0.0
 40
0.0
 40
0.0
 40
1.0
 40
1.0
 40
1.0
 40
1.0
 10
-46.562766160465216
 20
12.579920797784055
 30
0.0
 10
-46.56438656425506
 20
9.325785529080296
 30
0.0
 10
-45.9686556870549
 20
6.419162868811779
 30
0.0
 10
-44.82338669550234
 20
4.302540148529915
 30
0.0
  0
SPLINE
  5
2AB
330
17
100
AcDbEntity
  8
visible
100
AcDbSpline
 70
0
 71
3
 72
17
 73
13
 74
0
 40
0.0
 40
0.0
 40
0.0
 40
0.0
 40
0.3422907390195748
 40
0.3422907390195748
 40
0.3422907390195748
 40
0.5220957214463182
 40
0.5220957214463182
 40
0.5220957214463182
 40
0.6965815820708181
 40
0.6965815820708181
 40
0.6965815820708181
 40
1.0
 40
1.0
 40
1.0
 40
1.0
 10
-36.62912662842346
 20
71.01845847589108
 30
0.0
 10
-38.46832533312186
 20
69.9325248231092
 30
0.0
 10
-40.24134002648611
 20
68.06737754528979
 30
0.0
 10
-41.76261761079104
 20
65.67186812545249
 30
0.0
 10
-42.56151092426275
 20
64.41504529021995
 30
0.0
 10
-43.28986379832319
 20
63.014935555978525
 30
0.0
 10
-43.92135360713543
 20
61.52431600661197
 30
0.0
 10
-44.53436260127259
 20
60.07804786167011
 30
0.0
 10
-45.05595991302508
 20
58.54694809455677
 30
0.0
 10
-45.46755801226144
 20
56.98631353263879
 30
0.0
 10
-46.18484177545646
 20
54.2721993308719
 30
0.0
 10
-46.5640923688231
 20
51.4713207401526
 30
0.0
 10
-46.562766160465216
 20
48.88093312649723
 30
0.0
  0
SPLINE
  5
2AC
330
17
100
AcDbEntity
  8
visible
100
AcDbSpline
 70
0
 71
3
 72
11
 73
7
 74
0
 40
0.0
 40
0.0
 40
0.0
 40
0.0
 40
0.009030794236094096
 40
0.009030794236094096
 40
0.009030794236094096
 40
1.0
 40
1.0
 40
1.0
 40
1.0
 10
-51.177960912829036
 20
5.917677333558568
 30
0.0
 10
-51.17964122213275
 20
5.915719009237543
 30
0.0
 10
-51.181321531436375
 20
5.9137606849165
 30
0.0
 10
-51.18300184074007
 20
5.911802360595473
 30
0.0
 10
-51.43755162387593
 20
5.617372013200019
 30
0.0
 10
-51.59631239086771
 20
5.247207151482456
 30
0.0
 10
-51.594816454515744
 20
4.86322809427611
 30
0.0
  0
SPLINE
  5
2AD
330
17
100
AcDbEntity
  8
visible
100
AcDbSpline
 70
0
 71
3
 72
14
 73
10
 74
0
 40
0.0
 40
0.0
 40
0.0
 40
0.0
 40
0.43799091709312676
 40
0.43799091709312676
 40
0.43799091709312676
 40
0.6663489344312558
 40
0.6663489344312558
 40
0.6663489344312558
 40
1.0
 40
1.0
 40
1.0
 40
1.0
 10
-20.486632675330743
 20
65.2937717428044
 30
0.0
 10
-20.84271400293107
 20
66.90026591427507
 30
0.0
 10
-21.392323405523538
 20
68.30757174826687
 30
0.0
 10
-22.123585146385658
 20
69.44095208678425
 30
0.0
 10
-22.505319923892397
 20
70.0338549040727
 30
0.0
 10
-22.934986889536685
 20
70.54690949953434
 30
0.0
 10
-23.41258604331848
 20
70.9801158731692
 30
0.0
 10
-24.108659827100418
 20
71.61060046456609
 30
0.0
 10
-24.9070684007216
 20
72.0563038398436
 30
0.0
 10
-25.766752266027297
 20
72.28150542054661
 30
0.0
  0
LINE
  5
2AE
330
17
100
AcDbEntity
  8
visible
100
AcDbLine
 10
-39.364800197412585
 20
-3.500225114159175
 30
0.0
 11
-33.80261219098784
 21
-0.21107561421409382
 31
0.0
  0
LINE
  5
2AF
330
17
100
AcDbEntity
  8
visible
100
AcDbLine
 10
-34.41032584335186
 20
72.33052622409849
 30
0.0
 11
-36.62912662842346
 21
71.01845847589108
 31
0.0
  0
SPLINE
  5
2B0
330
17
100
AcDbEntity
  8
visible
100
AcDbSpline
 70
0
 71
3
 72
11
 73
7
 74
0
 40
0.0
 40
0.0
 40
0.0
 40
0.0
 40
0.4197229525225096
 40
0.4197229525225096
 40
0.4197229525225096
 40
1.0
 40
1.0
 40
1.0
 40
1.0
 10
-29.427773560988648
 20
73.24368843600564
 30
0.0
 10
-30.089884079797596
 20
73.41800930852595
 30
0.0
 10
-30.785392027420233
 20
73.46141147648358
 30
0.0
 10
-31.488428020621747
 20
73.37666471059075
 30
0.0
 10
-32.461108598147156
 20
73.25995827781648
 30
0.0
 10
-33.446448288769226
 20
72.90075594817034
 30
0.0
 10
-34.41032584335186
 20
72.33052622409849
 30
0.0
  0
LINE
  5
2B1
330
17
100
AcDbEntity
  8
visible
100
AcDbLine
 10
-29.427773560988655
 20
73.24368843600563
 30
0.0
 11
-25.7667522660273
 21
72.28150542054662
 31
0.0
  0
SPLINE
  5
2B2
330
17
100
AcDbEntity
  8
visible
100
AcDbSpline
 70
0
 71
3
 72
11
 73
7
 74
0
 40
0.0
 40
0.0
 40
0.0
 40
0.0
 40
0.5550568961525534
 40
0.5550568961525534
 40
0.5550568961525534
 40
1.0
 40
1.0
 40
1.0
 40
1.0
 10
-45.799704921096534
 20
-4.044562161310537
 30
0.0
 10
-44.67043398599578
 20
-4.343761993244043
 30
0.0
 10
-43.24810437204274
 20
-4.426647489549244
 30
0.0
 10
-41.96968484516296
 20
-4.274014410709444
 30
0.0
 10
-40.94273257877909
 20
-4.152237253661289
 30
0.0
 10
-40.02697696147104
 20
-3.8914528334329286
 30
0.0
 10
-39.36480019741259
 20
-3.5002251141591714
 30
0.0
  0
LINE
  5
2B3
330
17
100
AcDbEntity
  8
visible
100
AcDbLine
 10
-51.594816454515744
 20
-1.0184549159457839
 30
0.0
 11
-51.594816454515744
 21
4.863228094276102
 31
0.0
  0
LINE
  5
2B4
330
17
100
AcDbEntity
  8
visible
100
AcDbLine
 10
-49.12790609833412
 20
-3.169850329075075
 30
0.0
 11
-45.799704921096534
 21
-4.044562161310538
 31
0.0
  0
SPLINE
  5
2B5
330
17
100
AcDbEntity
  8
visible
100
AcDbSpline
 70
0
 71
3
 72
14
 73
10
 74
0
 40
0.0
 40
0.0
 40
0.0
 40
0.0
 40
0.3333333333333333
 40
0.3333333333333333
 40
0.3333333333333333
 40
0.6666666666666666
 40
0.6666666666666666
 40
0.6666666666666666
 40
1.0
 40
1.0
 40
1.0
 40
1.0
 10
-51.59481645451575
 20
-1.0184549159457887
 30
0.0
 10
-51.596383008640295
 20
-1.4116079830471036
 30
0.0
 10
-51.42999123060453
 20
-1.789490711525966
 30
0.0
 10
-51.16504952699128
 20
-2.087751930379703
 30
0.0
 10
-50.92170225011092
 20
-2.3640977034423716
 30
0.0
 10
-50.599891902670485
 20
-2.5880113330771546
 30
0.0
 10
-50.21699366625195
 20
-2.7758453691844736
 30
0.0
 10
-49.893942424262846
 20
-2.933016117949077
 30
0.0
 10
-49.530913234956984
 20
-3.0643511045792793
 30
0.0
 10
-49.12790609833412
 20
-3.169850329075075
 30
0.0
  0
LINE
  5
2B6
330
17
100
AcDbEntity
  8
visible
100
AcDbLine
 10
-63.26262916960821
 20
6.717320738656136
 30
0.0
 11
-51.594816454515744
 21
3.650807239412158
 31
0.0
  0
LINE
  5
2B7
330
17
100
AcDbEntity
  8
visible
100
AcDbLine
 10
-69.02812410681894
 20
54.7852379940866
 30
0.0
 11
-69.02812410681894
 21
18.484225665373437
 31
0.0
  0
SPLINE
  5
2B8
330
17
100
AcDbEntity
  8
visible
100
AcDbSpline
 70
0
 71
3
 72
14
 73
10
 74
0
 40
0.0
 40
0.0
 40
0.0
 40
0.0
 40
0.5975506447242827
 40
0.5975506447242827
 40
0.5975506447242827
 40
0.7610756475132521
 40
0.7610756475132521
 40
0.7610756475132521
 40
1.0
 40
1.0
 40
1.0
 40
1.0
 10
-69.02812410681894
 20
18.48422566537343
 30
0.0
 10
-69.03026768647914
 20
14.883133784733053
 30
0.0
 10
-68.30005844197275
 20
11.712699288217953
 30
0.0
 10
-66.90579628924986
 20
9.557874072418471
 30
0.0
 10
-66.52406151174306
 20
8.964971255130047
 30
0.0
 10
-66.09439454609885
 20
8.451916659668422
 30
0.0
 10
-65.61679539231703
 20
8.01871028603357
 30
0.0
 10
-64.92072160853508
 20
7.388225694636724
 30
0.0
 10
-64.12231303491386
 20
6.942522319359169
 30
0.0
 10
-63.26262916960821
 20
6.7173207386561415
 30
0.0
  0
SPLINE
  5
2B9
330
17
100
AcDbEntity
  8
visible
100
AcDbSpline
 70
0
 71
3
 72
17
 73
13
 74
0
 40
0.0
 40
0.0
 40
0.0
 40
0.0
 40
0.3422907390196394
 40
0.3422907390196394
 40
0.3422907390196394
 40
0.5220957214463768
 40
0.5220957214463768
 40
0.5220957214463768
 40
0.696581582070855
 40
0.696581582070855
 40
0.696581582070855
 40
1.0
 40
1.0
 40
1.0
 40
1.0
 10
-59.0944845747772
 20
76.92276334348045
 30
0.0
 10
-60.93368327947548
 20
75.83682969069864
 30
0.0
 10
-62.70669797283985
 20
73.9716824128792
 30
0.0
 10
-64.22797555714476
 20
71.57617299304184
 30
0.0
 10
-65.02686887061634
 20
70.31935015780948
 30
0.0
 10
-65.7552217446769
 20
68.91924042356814
 30
0.0
 10
-66.38671155348914
 20
67.42862087420133
 30
0.0
 10
-66.99972054762634
 20
65.9823527292595
 30
0.0
 10
-67.52131785937881
 20
64.45125296214613
 30
0.0
 10
-67.93291595861517
 20
62.89061840022818
 30
0.0
 10
-68.65019972181018
 20
60.176504198461224
 30
0.0
 10
-69.02945031517686
 20
57.37562560774199
 30
0.0
 10
-69.02812410681894
 20
54.7852379940866
 30
0.0
  0
SPLINE
  5
2BA
330
17
100
AcDbEntity
  8
visible
100
AcDbSpline
 70
0
 71
2
 72
6
 73
3
 74
0
 40
0.0
 40
0.0
 40
0.0
 40
1.0
 40
1.0
 40
1.0
 10
-30.104865493356233
 20
73.37509443141371
 30
0.0
 10
-30.425487788104917
 20
73.50589771892653
 30
0.0
 10
-30.75905403188368
 20
73.59357316889981
 30
0.0
  0
LINE
  5
2BB
330
17
100
AcDbEntity
  8
visible
100
AcDbLine
 10
-56.875683789705604
 20
78.23483109168785
 30
0.0
 11
-59.0944845747772
 21
76.92276334348044
 31
0.0
  0
SPLINE
  5
2BC
330
17
100
AcDbEntity
  8
visible
100
AcDbSpline
 70
0
 71
3
 72
11
 73
7
 74
0
 40
0.0
 40
0.0
 40
0.0
 40
0.0
 40
0.41972295252250874
 40
0.41972295252250874
 40
0.41972295252250874
 40
1.0
 40
1.0
 40
1.0
 40
1.0
 10
-51.89313150734238
 20
79.147993303595
 30
0.0
 10
-52.55524202615132
 20
79.32231417611538
 30
0.0
 10
-53.250749973773935
 20
79.36571634407287
 30
0.0
 10
-53.95378596697549
 20
79.28096957818013
 30
0.0
 10
-54.92646654450088
 20
79.1642631454058
 30
0.0
 10
-55.91180623512293
 20
78.80506081575969
 30
0.0
 10
-56.875683789705604
 20
78.23483109168785
 30
0.0
  0
LINE
  5
2BD
330
17
100
AcDbEntity
  8
visible
100
AcDbLine
 10
-51.89313150734238
 20
79.14799330359502
 30
0.0
 11
-30.759054031883682
 21
73.59357316889982
 31
0.0
  0
LINE
  5
2BE
330
17
100
AcDbEntity
  8
visible
100
AcDbLine
 10
-41.41298856118212
 20
2.8701481712673718
 30
0.0
 11
-41.41298856118212
 21
5.994792270447751
 31
0.0
  0
LINE
  5
2BF
330
17
100
AcDbEntity
  8
visible
100
AcDbLine
 10
-40.650703052428895
 20
7.1644947203079425
 30
0.0
 11
-33.94614036084081
 21
11.129177143648418
 31
0.0
  0
SPLINE
  5
2C0
330
17
100
AcDbEntity
  8
visible
100
AcDbSpline
 70
0
 71
2
 72
12
 73
9
 74
0
 40
0.0
 40
0.0
 40
0.0
 40
0.25
 40
0.25
 40
0.5
 40
0.5
 40
0.75
 40
0.75
 40
1.0
 40
1.0
 40
1.0
 10
-39.83667781246469
 20
1.3747866322417792
 30
0.0
 10
-40.05069000806584
 20
1.430912625789265
 30
0.0
 10
-40.243211858442045
 20
1.5052698852506339
 30
0.0
 10
-40.601639371804936
 20
1.6419514403582447
 30
0.0
 10
-40.87255743390414
 20
1.8513160072876218
 30
0.0
 10
-41.139445201118875
 20
2.0572714038604634
 30
0.0
 10
-41.28763522190627
 20
2.3459251341944594
 30
0.0
 10
-41.41155927918888
 20
2.59424454247885
 30
0.0
 10
-41.412988561182125
 20
2.870148171267374
 30
0.0
  0
SPLINE
  5
2C1
330
17
100
AcDbEntity
  8
visible
100
AcDbSpline
 70
0
 71
2
 72
10
 73
7
 74
0
 40
0.0
 40
0.0
 40
0.0
 40
0.3333333333333333
 40
0.3333333333333333
 40
0.6666666666666666
 40
0.6666666666666666
 40
1.0
 40
1.0
 40
1.0
 10
-41.41298856118212
 20
5.9947922704477605
 30
0.0
 10
-41.41164743279697
 20
6.2660918578141676
 30
0.0
 10
-41.29155805994164
 20
6.511076873479723
 30
0.0
 10
-41.200395551909494
 20
6.695126245413315
 30
0.0
 10
-41.05648758862623
 20
6.846547430983421
 30
0.0
 10
-40.88187562284801
 20
7.029277283897553
 30
0.0
 10
-40.650703052428895
 20
7.1644947203079425
 30
0.0
  0
LINE
  5
2C2
330
17
100
AcDbEntity
  8
visible
100
AcDbLine
 10
7.590188963170956
 20
-11.089856977113584
 30
0.0
 11
-39.8366778124647
 21
1.3747866322417668
 31
0.0
  0
SPLINE
  5
2C3
330
17
100
AcDbEntity
  8
visible
100
AcDbSpline
 70
0
 71
3
 72
11
 73
7
 74
0
 40
0.0
 40
0.0
 40
0.0
 40
0.0
 40
0.4241995238302285
 40
0.4241995238302285
 40
0.4241995238302285
 40
1.0
 40
1.0
 40
1.0
 40
1.0
 10
11.25159270570031
 20
-10.764197887948185
 30
0.0
 10
10.871388343732244
 20
-10.988385793777525
 30
0.0
 10
10.381451376105428
 20
-11.133104925964156
 30
0.0
 10
9.834114609474188
 20
-11.207763765513974
 30
0.0
 10
9.092544485847167
 20
-11.308753641493675
 30
0.0
 10
8.261109587730608
 20
-11.267277380955665
 30
0.0
 10
7.590188963170956
 20
-11.08985697711357
 30
0.0
  0
LINE
  5
2C4
330
17
100
AcDbEntity
  8
visible
100
AcDbLine
 10
20.009713661054924
 20
-5.585162384745281
 30
0.0
 11
11.251592705700304
 21
-10.764197887948189
 31
0.0
  0
LINE
  5
2C5
330
17
100
AcDbEntity
  8
visible
100
AcDbLine
 10
20.00125738428659
 20
4.690528832969313
 30
0.0
 11
5.704590743760928
 21
-3.7636754976376956
 31
0.0
  0
SPLINE
  5
2C6
330
17
100
AcDbEntity
  8
visible
100
AcDbSpline
 70
0
 71
3
 72
14
 73
10
 74
0
 40
0.0
 40
0.0
 40
0.0
 40
0.0
 40
0.2240274854491991
 40
0.2240274854491991
 40
0.2240274854491991
 40
0.4480549708983982
 40
0.4480549708983982
 40
0.4480549708983982
 40
1.0
 40
1.0
 40
1.0
 40
1.0
 10
-32.34822516349523
 20
5.4231565887211275
 30
0.0
 10
-32.53106978298177
 20
5.470407017956098
 30
0.0
 10
-32.69839603458633
 20
5.535864309869718
 30
0.0
 10
-32.85020391830889
 20
5.619528464461965
 30
0.0
 10
-32.97388715496401
 20
5.687852780441022
 30
0.0
 10
-33.0833374060758
 20
5.7709828289662175
 30
0.0
 10
-33.17855467164414
 20
5.8689186100375395
 30
0.0
 10
-33.36726502257077
 20
6.062942188265013
 30
0.0
 10
-33.48054587963977
 20
6.324293710044943
 30
0.0
 10
-33.479236108480535
 20
6.590501190694852
 30
0.0
  0
SPLINE
  5
2C7
330
17
100
AcDbEntity
  8
visible
100
AcDbSpline
 70
0
 71
3
 72
17
 73
13
 74
0
 40
0.0
 40
0.0
 40
0.0
 40
0.0
 40
0.17767338645265435
 40
0.17767338645265435
 40
0.17767338645265435
 40
0.3553467729053087
 40
0.3553467729053087
 40
0.3553467729053087
 40
0.589189912538296
 40
0.589189912538296
 40
0.589189912538296
 40
1.0
 40
1.0
 40
1.0
 40
1.0
 10
5.704590743760926
 20
-3.763675497637692
 30
0.0
 10
5.544452536563236
 20
-3.856814599493829
 30
0.0
 10
5.366221183489649
 20
-3.928747483772841
 30
0.0
 10
5.169896684540147
 20
-3.9794741504747297
 30
0.0
 10
5.0533620499866405
 20
-4.0100775373723065
 30
0.0
 10
4.932267644172519
 20
-4.034049855804004
 30
0.0
 10
4.806613467097779
 20
-4.051391105769808
 30
0.0
 10
4.640668959137299
 20
-4.074254586759171
 30
0.0
 10
4.471550917304243
 20
-4.08569903881268
 30
0.0
 10
4.299259341598607
 20
-4.08572446193034
 30
0.0
 10
3.9981239956688306
 20
-4.085701508549828
 30
0.0
 10
3.6984550137880237
 20
-4.050553332608375
 30
0.0
 10
3.4299374918088663
 20
-3.97999560781011
 30
0.0
  0
LINE
  5
2C8
330
17
100
AcDbEntity
  8
visible
100
AcDbLine
 10
3.4299374918088663
 20
-3.9799956078101246
 30
0.0
 11
-32.34822516349523
 21
5.423156588721106
 31
0.0
  0
LINE
  5
2C9
330
17
100
AcDbEntity
  8
visible
100
AcDbLine
 10
-33.47923610848054
 20
6.59050119069485
 30
0.0
 11
-33.47923610848054
 21
9.715145289875228
 31
0.0
  0
LINE
  5
2CA
330
17
100
AcDbEntity
  8
visible
100
AcDbLine
 10
-32.88490030541792
 20
10.666169781676558
 30
0.0
 11
-32.68864425402644
 21
10.782224020143483
 31
0.0
  0
SPLINE
  5
2CB
330
17
100
AcDbEntity
  8
visible
100
AcDbSpline
 70
0
 71
3
 72
11
 73
7
 74
0
 40
0.0
 40
0.0
 40
0.0
 40
0.0
 40
0.6267210042552823
 40
0.6267210042552823
 40
0.6267210042552823
 40
1.0
 40
1.0
 40
1.0
 40
1.0
 10
-33.47923610848054
 20
9.715145289875238
 30
0.0
 10
-33.480550558233844
 20
9.9816215732094
 30
0.0
 10
-33.36703345758477
 20
10.243217455153683
 30
0.0
 10
-33.1779944731334
 20
10.437310872610283
 30
0.0
 10
-33.09211088468636
 20
10.52573401854861
 30
0.0
 10
-32.994412828781236
 20
10.602020321570691
 30
0.0
 10
-32.88490030541792
 20
10.666169781676558
 30
0.0
  0
LINE
  5
2CC
330
17
100
AcDbEntity
  8
visible
100
AcDbLine
 10
-36.588636500831434
 20
14.891780400711228
 30
0.0
 11
-36.588636500831434
 21
53.49032515529232
 31
0.0
  0
LINE
  5
2CD
330
17
100
AcDbEntity
  8
visible
100
AcDbLine
 10
-34.62465571966194
 20
56.93337986594578
 30
0.0
 11
-8.553746495070715
 21
72.35017590738285
 31
0.0
  0
ARC
  5
2CE
330
17
100
AcDbEntity
  8
visible
100
AcDbCircle
 10
-32.58863650083144
 20
14.891780400711227
 30
0.0
 40
4.0
100
AcDbArc
 50
179.99999999999997
 51
255.27464136528334
  0
ARC
  5
2CF
330
17
100
AcDbEntity
  8
visible
100
AcDbCircle
 10
-32.58863650083144
 20
53.49032515529231
 30
0.0
 40
4.0
100
AcDbArc
 50
120.59756299589712
 51
179.99999999999997
  0
ARC
  5
2D0
330
17
100
AcDbEntity
  8
visible
100
AcDbCircle
 10
-6.517727276240217
 20
68.90712119672938
 30
0.0
 40
4.0
100
AcDbArc
 50
75.27464136528333
 51
120.59756299589715
  0
LINE
  5
2D1
330
17
100
AcDbEntity
  8
visible
100
AcDbLine
 10
-33.605380598297465
 20
11.023159013153645
 30
0.0
 11
5.500983234244217
 21
0.7452949843869501
 31
0.0
  0
LINE
  5
2D2
330
17
100
AcDbEntity
  8
visible
100
AcDbLine
 10
8.553746550540742
 20
1.170861661291097
 30
0.0
 11
20.001257384286586
 21
7.940243510832939
 31
0.0
  0
LINE
  5
2D3
330
17
100
AcDbEntity
  8
visible
100
AcDbLine
 10
-5.50098317877419
 20
72.77574258428696
 30
0.0
 11
33.60538065376749
 21
62.497878555520266
 31
0.0
  0
LINE
  5
2D4
330
17
100
AcDbEntity
  8
visible
100
AcDbLine
 10
36.58863655630146
 20
55.86274922370028
 30
0.0
 11
36.58863655630146
 21
58.6292571679627
 31
0.0
  0
ARC
  5
2D5
330
17
100
AcDbEntity
  8
visible
100
AcDbCircle
 10
6.517727331710242
 20
4.613916371944541
 30
0.0
 40
4.0
100
AcDbArc
 50
255.27464136528334
 51
300.59756299589725
  0
ARC
  5
2D6
330
17
100
AcDbEntity
  8
visible
100
AcDbCircle
 10
32.588636556301466
 20
58.62925716796269
 30
0.0
 40
4.0
100
AcDbArc
 50
360.0
 51
435.27464136528334
  0
LINE
  5
2D7
330
17
100
AcDbEntity
  8
visible
100
AcDbLine
 10
-10.510100508030291
 20
17.185236848178675
 30
0.0
 11
-9.400700115494494
 21
17.84127072228238
 31
0.0
  0
LINE
  5
2D8
330
17
100
AcDbEntity
  8
visible
100
AcDbLine
 10
-22.217211016305686
 20
36.98280143443594
 30
0.0
 11
-21.10781062376989
 21
37.63883530853965
 31
0.0
  0
ENDSEC
  0
SECTION
  2
OBJECTS
  0
DICTIONARY
  5
A
330
0
100
AcDbDictionary
281
1
  3
ACAD_COLOR
350
B
  3
ACAD_GROUP
350
C
  3
ACAD_LAYOUT
350
D
  3
ACAD_MATERIAL
350
E
  3
ACAD_MLEADERSTYLE
350
F
  3
ACAD_MLINESTYLE
350
10
  3
ACAD_PLOTSETTINGS
350
11
  3
ACAD_PLOTSTYLENAME
350
12
  3
ACAD_SCALELIST
350
14
  3
ACAD_TABLESTYLE
350
15
  3
ACAD_VISUALSTYLE
350
16
  3
EZDXF_META
350
2D
  0
DICTIONARY
  5
B
330
A
100
AcDbDictionary
281
1
  0
DICTIONARY
  5
C
330
A
100
AcDbDictionary
281
1
  0
DICTIONARY
  5
D
330
A
100
AcDbDictionary
281
1
  3
Model
350
1A
  3
Layout1
350
1E
  0
DICTIONARY
  5
E
330
A
100
AcDbDictionary
281
1
  3
ByBlock
350
1F
  3
ByLayer
350
20
  3
Global
350
21
  0
DICTIONARY
  5
F
330
A
100
AcDbDictionary
281
1
  3
Standard
350
2C
  0
DICTIONARY
  5
10
330
A
100
AcDbDictionary
281
1
  3
Standard
350
22
  0
DICTIONARY
  5
11
330
A
100
AcDbDictionary
281
1
  0
ACDBDICTIONARYWDFLT
  5
12
330
A
100
AcDbDictionary
281
1
  3
Normal
350
13
100
AcDbDictionaryWithDefault
340
13
  0
ACDBPLACEHOLDER
  5
13
330
12
  0
DICTIONARY
  5
14
330
A
100
AcDbDictionary
281
1
  0
DICTIONARY
  5
15
330
A
100
AcDbDictionary
281
1
  0
DICTIONARY
  5
16
330
A
100
AcDbDictionary
281
1
  0
LAYOUT
  5
1A
330
D
100
AcDbPlotSettings
  1

  4
A3
  6

 40
7.5
 41
20.0
 42
7.5
 43
20.0
 44
420.0
 45
297.0
 46
0.0
 47
0.0
 48
0.0
 49
0.0
140
0.0
141
0.0
142
1.0
143
1.0
 70
1024
 72
1
 73
0
 74
5
  7

 75
16
 76
0
 77
2
 78
300
147
1.0
148
0.0
149
0.0
100
AcDbLayout
  1
Model
 70
1
 71
0
 10
0.0
 20
0.0
 11
420.0
 21
297.0
 12
0.0
 22
0.0
 32
0.0
 14
1e+20
 24
1e+20
 34
1e+20
 15
-1e+20
 25
-1e+20
 35
-1e+20
146
0.0
 13
0.0
 23
0.0
 33
0.0
 16
1.0
 26
0.0
 36
0.0
 17
0.0
 27
1.0
 37
0.0
 76
1
330
17
  0
LAYOUT
  5
1E
330
D
100
AcDbPlotSettings
  1

  4
A3
  6

 40
7.5
 41
20.0
 42
7.5
 43
20.0
 44
420.0
 45
297.0
 46
0.0
 47
0.0
 48
0.0
 49
0.0
140
0.0
141
0.0
142
1.0
143
1.0
 70
0
 72
1
 73
0
 74
5
  7

 75
16
 76
0
 77
2
 78
300
147
1.0
148
0.0
149
0.0
100
AcDbLayout
  1
Layout1
 70
1
 71
1
 10
0.0
 20
0.0
 11
420.0
 21
297.0
 12
0.0
 22
0.0
 32
0.0
 14
1e+20
 24
1e+20
 34
1e+20
 15
-1e+20
 25
-1e+20
 35
-1e+20
146
0.0
 13
0.0
 23
0.0
 33
0.0
 16
1.0
 26
0.0
 36
0.0
 17
0.0
 27
1.0
 37
0.0
 76
1
330
1B
  0
MATERIAL
  5
1F
102
{ACAD_REACTORS
330
E
102
}
330
E
100
AcDbMaterial
  1
ByBlock
  2

 70
0
 40
1.0
 71
1
 41
1.0
 91
-1023410177
 42
1.0
 72
1
  3

 73
1
 74
1
 75
1
 44
0.5
 73
0
 45
1.0
 46
1.0
 77
1
  4

 78
1
 79
1
170
1
 48
1.0
171
1
  6

172
1
173
1
174
1
140
1.0
141
1.0
175
1
  7

176
1
177
1
178
1
143
1.0
179
1
  8

270
1
271
1
272
1
145
1.0
146
1.0
273
1
  9

274
1
275
1
276
1
 42
1.0
 72
1
  3

 73
1
 74
1
 75
1
 94
63
  0
MATERIAL
  5
20
102
{ACAD_REACTORS
330
E
102
}
330
E
100
AcDbMaterial
  1
ByLayer
  2

 70
0
 40
1.0
 71
1
 41
1.0
 91
-1023410177
 42
1.0
 72
1
  3

 73
1
 74
1
 75
1
 44
0.5
 73
0
 45
1.0
 46
1.0
 77
1
  4

 78
1
 79
1
170
1
 48
1.0
171
1
  6

172
1
173
1
174
1
140
1.0
141
1.0
175
1
  7

176
1
177
1
178
1
143
1.0
179
1
  8

270
1
271
1
272
1
145
1.0
146
1.0
273
1
  9

274
1
275
1
276
1
 42
1.0
 72
1
  3

 73
1
 74
1
 75
1
 94
63
  0
MATERIAL
  5
21
102
{ACAD_REACTORS
330
E
102
}
330
E
100
AcDbMaterial
  1
Global
  2

 70
0
 40
1.0
 71
1
 41
1.0
 91
-1023410177
 42
1.0
 72
1
  3

 73
1
 74
1
 75
1
 44
0.5
 73
0
 45
1.0
 46
1.0
 77
1
  4

 78
1
 79
1
170
1
 48
1.0
171
1
  6

172
1
173
1
174
1
140
1.0
141
1.0
175
1
  7

176
1
177
1
178
1
143
1.0
179
1
  8

270
1
271
1
272
1
145
1.0
146
1.0
273
1
  9

274
1
275
1
276
1
 42
1.0
 72
1
  3

 73
1
 74
1
 75
1
 94
63
  0
MLINESTYLE
  5
22
102
{ACAD_REACTORS
330
10
102
}
330
10
100
AcDbMlineStyle
  2
Standard
 70
0
  3

 62
256
 51
90.0
 52
90.0
 71
2
 49
0.5
 62
256
  6
BYLAYER
 49
-0.5
 62
256
  6
BYLAYER
  0
MLEADERSTYLE
  5
2C
102
{ACAD_REACTORS
330
F
102
}
330
F
100
AcDbMLeaderStyle
179
2
170
2
171
1
172
0
 90
2
 40
0.0
 41
0.0
173
1
 91
-1056964608
 92
-2
290
1
 42
2.0
291
1
 43
8.0
  3
Standard
 44
4.0
300

342
29
174
1
175
1
176
0
178
1
 93
-1056964608
 45
4.0
292
0
297
0
 46
4.0
 94
-1056964608
 47
1.0
 49
1.0
140
1.0
294
1
141
0.0
177
0
142
1.0
295
0
296
0
143
3.75
271
0
272
9
273
9
  0
DICTIONARY
  5
2D
330
A
100
AcDbDictionary
280
1
281
1
  3
CREATED_BY_EZDXF
350
2E
  3
WRITTEN_BY_EZDXF
350
2DC
  0
DICTIONARYVAR
  5
2E
330
2D
100
DictionaryVariables
280
0
  1
1.4.4 @ 2026-10-02T15:36:14.718441+00:00
  0
DICTIONARYVAR
  5
2DC
330
2D
100
DictionaryVariables
280
0
  1
1.4.4 @ 2026-10-02T15:36:14.856939+00:00
  0
ENDSEC
  0
EOF
