  0
SECTION
  2
HEADER
  9
$ACADVER
  1
AC1027
  9
$ACADMAINTVER
 70
105
  9
$DWGCODEPAGE
  3
ANSI_1252
  9
$LASTSAVEDBY
  1
ezdxf
  9
$REQUIREDVERSIONS
160
0
  9
$INSBASE
 10
0.0
 20
0.0
 30
0.0
  9
$EXTMIN
 10
1e+20
 20
1e+20
 30
1e+20
  9
$EXTMAX
 10
-1e+20
 20
-1e+20
 30
-1e+20
  9
$LIMMIN
 10
0.0
 20
0.0
  9
$LIMMAX
 10
420.0
 20
297.0
  9
$ORTHOMODE
 70
0
  9
$REGENMODE
 70
1
  9
$FILLMODE
 70
1
  9
$QTEXTMODE
 70
0
  9
$MIRRTEXT
 70
1
  9
$LTSCALE
 40
1.0
  9
$ATTMODE
 70
1
  9
$TEXTSIZE
 40
2.5
  9
$TRACEWID
 40
1.0
  9
$TEXTSTYLE
  7
Standard
  9
$CLAYER
  8
0
  9
$CELTYPE
  6
ByLayer
  9
$CECOLOR
 62
256
  9
$CELTSCALE
 40
1.0
  9
$DISPSILH
 70
0
  9
$DIMSCALE
 40
1.0
  9
$DIMASZ
 40
2.5
  9
$DIMEXO
 40
0.625
  9
$DIMDLI
 40
3.75
  9
$DIMRND
 40
0.0
  9
$DIMDLE
 40
0.0
  9
$DIMEXE
 40
1.25
  9
$DIMTP
 40
0.0
  9
$DIMTM
 40
0.0
  9
$DIMTXT
 40
2.5
  9
$DIMCEN
 40
2.5
  9
$DIMTSZ
 40
0.0
  9
$DIMTOL
 70
0
  9
$DIMLIM
 70
0
  9
$DIMTIH
 70
0
  9
$DIMTOH
 70
0
  9
$DIMSE1
 70
0
  9
$DIMSE2
 70
0
  9
$DIMTAD
 70
1
  9
$DIMZIN
 70
8
  9
$DIMBLK
  1

  9
$DIMASO
 70
1
  9
$DIMSHO
 70
1
  9
$DIMPOST
  1

  9
$DIMAPOST
  1

  9
$DIMALT
 70
0
  9
$DIMALTD
 70
3
  9
$DIMALTF
 40
0.03937007874
  9
$DIMLFAC
 40
1.0
  9
$DIMTOFL
 70
1
  9
$DIMTVP
 40
0.0
  9
$DIMTIX
 70
0
  9
$DIMSOXD
 70
0
  9
$DIMSAH
 70
0
  9
$DIMBLK1
  1

  9
$DIMBLK2
  1

  9
$DIMSTYLE
  2
ISO-25
  9
$DIMCLRD
 70
0
  9
$DIMCLRE
 70
0
  9
$DIMCLRT
 70
0
  9
$DIMTFAC
 40
1.0
  9
$DIMGAP
 40
0.625
  9
$DIMJUST
 70
0
  9
$DIMSD1
 70
0
  9
$DIMSD2
 70
0
  9
$DIMTOLJ
 70
0
  9
$DIMTZIN
 70
8
  9
$DIMALTZ
 70
0
  9
$DIMALTTZ
 70
0
  9
$DIMUPT
 70
0
  9
$DIMDEC
 70
2
  9
$DIMTDEC
 70
2
  9
$DIMALTU
 70
2
  9
$DIMALTTD
 70
3
  9
$DIMTXSTY
  7
Standard
  9
$DIMAUNIT
 70
0
  9
$DIMADEC
 70
0
  9
$DIMALTRND
 40
0.0
  9
$DIMAZIN
 70
0
  9
$DIMDSEP
 70
44
  9
$DIMATFIT
 70
3
  9
$DIMFRAC
 70
0
  9
$DIMLDRBLK
  1

  9
$DIMLUNIT
 70
2
  9
$DIMLWD
 70
-2
  9
$DIMLWE
 70
-2
  9
$DIMTMOVE
 70
0
  9
$DIMFXL
 40
1.0
  9
$DIMFXLON
 70
0
  9
$DIMJOGANG
 40
0.785398163397
  9
$DIMTFILL
 70
0
  9
$DIMTFILLCLR
 70
0
  9
$DIMARCSYM
 70
0
  9
$DIMLTYPE
  6

  9
$DIMLTEX1
  6

  9
$DIMLTEX2
  6

  9
$DIMTXTDIRECTION
 70
0
  9
$LUNITS
 70
2
  9
$LUPREC
 70
4
  9
$SKETCHINC
 40
1.0
  9
$FILLETRAD
 40
10.0
  9
$AUNITS
 70
0
  9
$AUPREC
 70
2
  9
$MENU
  1
.
  9
$ELEVATION
 40
0.0
  9
$PELEVATION
 40
0.0
  9
$THICKNESS
 40
0.0
  9
$LIMCHECK
 70
0
  9
$CHAMFERA
 40
0.0
  9
$CHAMFERB
 40
0.0
  9
$CHAMFERC
 40
0.0
  9
$CHAMFERD
 40
0.0
  9
$SKPOLY
 70
0
  9
$TDCREATE
 40
2461315.9835069445
  9
$TDUCREATE
 40
2458532.153996898
  9
$TDUPDATE
 40
2461315.9835069445
  9
$TDUUPDATE
 40
2458532.1544311
  9
$TDINDWG
 40
0.0
  9
$TDUSRTIMER
 40
0.0
  9
$USRTIMER
 70
1
  9
$ANGBASE
 50
0.0
  9
$ANGDIR
 70
0
  9
$PDMODE
 70
0
  9
$PDSIZE
 40
0.0
  9
$PLINEWID
 40
0.0
  9
$SPLFRAME
 70
0
  9
$SPLINETYPE
 70
6
  9
$SPLINESEGS
 70
8
  9
$HANDSEED
  5
2D0
  9
$SURFTAB1
 70
6
  9
$SURFTAB2
 70
6
  9
$SURFTYPE
 70
6
  9
$SURFU
 70
6
  9
$SURFV
 70
6
  9
$UCSBASE
  2

  9
$UCSNAME
  2

  9
$UCSORG
 10
0.0
 20
0.0
 30
0.0
  9
$UCSXDIR
 10
1.0
 20
0.0
 30
0.0
  9
$UCSYDIR
 10
0.0
 20
1.0
 30
0.0
  9
$UCSORTHOREF
  2

  9
$UCSORTHOVIEW
 70
0
  9
$UCSORGTOP
 10
0.0
 20
0.0
 30
0.0
  9
$UCSORGBOTTOM
 10
0.0
 20
0.0
 30
0.0
  9
$UCSORGLEFT
 10
0.0
 20
0.0
 30
0.0
  9
$UCSORGRIGHT
 10
0.0
 20
0.0
 30
0.0
  9
$UCSORGFRONT
 10
0.0
 20
0.0
 30
0.0
  9
$UCSORGBACK
 10
0.0
 20
0.0
 30
0.0
  9
$PUCSBASE
  2

  9
$PUCSNAME
  2

  9
$PUCSORG
 10
0.0
 20
0.0
 30
0.0
  9
$PUCSXDIR
 10
1.0
 20
0.0
 30
0.0
  9
$PUCSYDIR
 10
0.0
 20
1.0
 30
0.0
  9
$PUCSORTHOREF
  2

  9
$PUCSORTHOVIEW
 70
0
  9
$PUCSORGTOP
 10
0.0
 20
0.0
 30
0.0
  9
$PUCSORGBOTTOM
 10
0.0
 20
0.0
 30
0.0
  9
$PUCSORGLEFT
 10
0.0
 20
0.0
 30
0.0
  9
$PUCSORGRIGHT
 10
0.0
 20
0.0
 30
0.0
  9
$PUCSORGFRONT
 10
0.0
 20
0.0
 30
0.0
  9
$PUCSORGBACK
 10
0.0
 20
0.0
 30
0.0
  9
$USERI1
 70
0
  9
$USERI2
 70
0
  9
$USERI3
 70
0
  9
$USERI4
 70
0
  9
$USERI5
 70
0
  9
$USERR1
 40
0.0
  9
$USERR2
 40
0.0
  9
$USERR3
 40
0.0
  9
$USERR4
 40
0.0
  9
$USERR5
 40
0.0
  9
$WORLDVIEW
 70
1
  9
$SHADEDGE
 70
3
  9
$SHADEDIF
 70
70
  9
$TILEMODE
 70
1
  9
$MAXACTVP
 70
64
  9
$PINSBASE
 10
0.0
 20
0.0
 30
0.0
  9
$PLIMCHECK
 70
0
  9
$PEXTMIN
 10
1e+20
 20
1e+20
 30
1e+20
  9
$PEXTMAX
 10
-1e+20
 20
-1e+20
 30
-1e+20
  9
$PLIMMIN
 10
0.0
 20
0.0
  9
$PLIMMAX
 10
420.0
 20
297.0
  9
$UNITMODE
 70
0
  9
$VISRETAIN
 70
1
  9
$PLINEGEN
 70
0
  9
$PSLTSCALE
 70
1
  9
$TREEDEPTH
 70
3020
  9
$CMLSTYLE
  2
Standard
  9
$CMLJUST
 70
0
  9
$CMLSCALE
 40
20.0
  9
$PROXYGRAPHICS
 70
1
  9
$MEASUREMENT
 70
1
  9
$CELWEIGHT
370
-1
  9
$ENDCAPS
280
0
  9
$JOINSTYLE
280
0
  9
$LWDISPLAY
290
0
  9
$INSUNITS
 70
4
  9
$HYPERLINKBASE
  1

  9
$STYLESHEET
  1

  9
$XEDIT
290
1
  9
$CEPSNTYPE
380
0
  9
$PSTYLEMODE
290
1
  9
$FINGERPRINTGUID
  2
{0C845776-FE32-4EFE-AD5A-0A7149E14336}
  9
$VERSIONGUID
  2
{C279EEAF-2CA1-45F4-A562-7A75987579B1}
  9
$EXTNAMES
290
1
  9
$PSVPSCALE
 40
0.0
  9
$OLESTARTUP
290
0
  9
$SORTENTS
280
127
  9
$INDEXCTL
280
0
  9
$HIDETEXT
280
1
  9
$XCLIPFRAME
280
1
  9
$HALOGAP
280
0
  9
$OBSCOLOR
 70
257
  9
$OBSLTYPE
280
0
  9
$INTERSECTIONDISPLAY
280
0
  9
$INTERSECTIONCOLOR
 70
257
  9
$DIMASSOC
280
2
  9
$PROJECTNAME
  1

  9
$CAMERADISPLAY
290
0
  9
$LENSLENGTH
 40
50.0
  9
$CAMERAHEIGHT
 40
0.0
  9
$STEPSPERSEC
 40
24.0
  9
$STEPSIZE
 40
100.0
  9
$3DDWFPREC
 40
2.0
  9
$PSOLWIDTH
 40
0.005
  9
$PSOLHEIGHT
 40
0.08
  9
$LOFTANG1
 40
1.570796326795
  9
$LOFTANG2
 40
1.570796326795
  9
$LOFTMAG1
 40
0.0
  9
$LOFTMAG2
 40
0.0
  9
$LOFTPARAM
 70
7
  9
$LOFTNORMALS
280
1
  9
$LATITUDE
 40
37.795
  9
$LONGITUDE
 40
-122.394
  9
$NORTHDIRECTION
 40
0.0
  9
$TIMEZONE
 70
-8000
  9
$LIGHTGLYPHDISPLAY
280
1
  9
$TILEMODELIGHTSYNCH
280
1
  9
$CMATERIAL
347
20
  9
$SOLIDHIST
280
0
  9
$SHOWHIST
280
1
  9
$DWFFRAME
280
2
  9
$DGNFRAME
280
2
  9
$REALWORLDSCALE
290
1
  9
$INTERFERECOLOR
 62
256
  9
$CSHADOW
280
0
  9
$SHADOWPLANELOCATION
 40
0.0
  0
ENDSEC
  0
SECTION
  2
CLASSES
  0
CLASS
  1
ACDBDICTIONARYWDFLT
  2
AcDbDictionaryWithDefault
  3
ObjectDBX Classes
 90
0
 91
0
280
0
281
0
  0
CLASS
  1
SUN
  2
AcDbSun
  3
SCENEOE
 90
1153
 91
0
280
0
281
0
  0
CLASS
  1
VISUALSTYLE
  2
AcDbVisualStyle
  3
ObjectDBX Classes
 90
4095
 91
0
280
0
281
0
  0
CLASS
  1
MATERIAL
  2
AcDbMaterial
  3
ObjectDBX Classes
 90
1153
 91
0
280
0
281
0
  0
CLASS
  1
SCALE
  2
AcDbScale
  3
ObjectDBX Classes
 90
1153
 91
0
280
0
281
0
  0
CLASS
  1
TABLESTYLE
  2
AcDbTableStyle
  3
ObjectDBX Classes
 90
4095
 91
0
280
0
281
0
  0
CLASS
  1
MLEADERSTYLE
  2
AcDbMLeaderStyle
  3
ACDB_MLEADERSTYLE_CLASS
 90
4095
 91
0
280
0
281
0
  0
CLASS
  1
DICTIONARYVAR
  2
AcDbDictionaryVar
  3
ObjectDBX Classes
 90
0
 91
0
280
0
281
0
  0
CLASS
  1
CELLSTYLEMAP
  2
AcDbCellStyleMap
  3
ObjectDBX Classes
 90
1152
 91
0
280
0
281
0
  0
CLASS
  1
MENTALRAYRENDERSETTINGS
  2
AcDbMentalRayRenderSettings
  3
SCENEOE
 90
1024
 91
0
280
0
281
0
  0
CLASS
  1
ACDBDETAILVIEWSTYLE
  2
AcDbDetailViewStyle
  3
ObjectDBX Classes
 90
1025
 91
0
280
0
281
0
  0
CLASS
  1
ACDBSECTIONVIEWSTYLE
  2
AcDbSectionViewStyle
  3
ObjectDBX Classes
 90
1025
 91
0
280
0
281
0
  0
CLASS
  1
RASTERVARIABLES
  2
AcDbRasterVariables
  3
ISM
 90
0
 91
0
280
0
281
0
  0
CLASS
  1
LAYOUT
  2
AcDbLayout
  3
ObjectDBX Classes
 90
0
 91
0
280
0
281
0
  0
CLASS
  1
ACDBPLACEHOLDER
  2
AcDbPlaceHolder
  3
ObjectDBX Classes
 90
0
 91
0
280
0
281
0
  0
ENDSEC
  0
SECTION
  2
TABLES
  0
TABLE
  2
VPORT
  5
8
330
0
100
AcDbSymbolTable
 70
1
  0
VPORT
  5
2CC
330
8
100
AcDbSymbolTableRecord
100
AcDbViewportTableRecord
  2
*Active
 70
0
 10
0.0
 20
0.0
 11
1.0
 21
1.0
 12
-1.9011442071401916
 22
-7.553866906113896
 13
0.0
 23
0.0
 14
0.5
 24
0.5
 15
0.5
 25
0.5
 16
0.0
 26
0.0
 36
1.0
 17
0.0
 27
0.0
 37
0.0
 40
174.53015816990685
 41
1.34
 42
50.0
 43
0.0
 44
0.0
 50
0.0
 51
0.0
 71
0
 72
1000
 73
1
 74
3
 75
0
 76
0
 77
0
 78
0
281
0
 65
1
110
0.0
120
0.0
130
0.0
111
1.0
121
0.0
131
0.0
112
0.0
122
1.0
132
0.0
 79
0
146
0.0
  0
ENDTAB
  0
TABLE
  2
LTYPE
  5
2
330
0
100
AcDbSymbolTable
 70
3
  0
LTYPE
  5
24
330
2
100
AcDbSymbolTableRecord
100
AcDbLinetypeTableRecord
  2
ByBlock
 70
0
  3

 72
65
 73
0
 40
0.0
  0
LTYPE
  5
25
330
2
100
AcDbSymbolTableRecord
100
AcDbLinetypeTableRecord
  2
ByLayer
 70
0
  3

 72
65
 73
0
 40
0.0
  0
LTYPE
  5
26
330
2
100
AcDbSymbolTableRecord
100
AcDbLinetypeTableRecord
  2
Continuous
 70
0
  3

 72
65
 73
0
 40
0.0
  0
ENDTAB
  0
TABLE
  2
LAYER
  5
1
330
0
100
AcDbSymbolTable
 70
3
  0
LAYER
  5
27
330
1
100
AcDbSymbolTableRecord
100
AcDbLayerTableRecord
  2
0
 70
0
 62
7
  6
Continuous
370
-3
390
13
347
21
  0
LAYER
  5
28
330
1
100
AcDbSymbolTableRecord
100
AcDbLayerTableRecord
  2
Defpoints
 70
0
 62
7
  6
Continuous
290
0
370
-3
390
13
347
21
  0
LAYER
  5
2F
330
1
100
AcDbSymbolTableRecord
100
AcDbLayerTableRecord
  2
visible
 70
0
 62
7
  6
Continuous
370
-3
390
13
347
21
  0
ENDTAB
  0
TABLE
  2
STYLE
  5
5
330
0
100
AcDbSymbolTable
 70
1
  0
STYLE
  5
29
330
5
100
AcDbSymbolTableRecord
100
AcDbTextStyleTableRecord
  2
Standard
 70
0
 40
0.0
 41
1.0
 50
0.0
 71
0
 42
2.5
  3
txt
  4

  0
ENDTAB
  0
TABLE
  2
VIEW
  5
7
330
0
100
AcDbSymbolTable
 70
0
  0
ENDTAB
  0
TABLE
  2
UCS
  5
6
330
0
100
AcDbSymbolTable
 70
0
  0
ENDTAB
  0
TABLE
  2
APPID
  5
3
330
0
100
AcDbSymbolTable
 70
3
  0
APPID
  5
2A
330
3
100
AcDbSymbolTableRecord
100
AcDbRegAppTableRecord
  2
ACAD
 70
0
  0
APPID
  5
2CD
330
3
100
AcDbSymbolTableRecord
100
AcDbRegAppTableRecord
  2
HATCHBACKGROUNDCOLOR
 70
0
  0
APPID
  5
2CE
330
3
100
AcDbSymbolTableRecord
100
AcDbRegAppTableRecord
  2
EZDXF
 70
0
  0
ENDTAB
  0
TABLE
  2
DIMSTYLE
  5
4
330
0
100
AcDbSymbolTable
 70
1
100
AcDbDimStyleTable
  0
DIMSTYLE
105
2B
330
4
100
AcDbSymbolTableRecord
100
AcDbDimStyleTableRecord
  2
Standard
 70
0
 40
1.0
 41
2.5
 42
0.625
 43
3.75
 44
1.25
 45
0.0
 46
0.0
 47
0.0
 48
0.0
 49
2.5
140
2.5
141
2.5
142
0.0
143
0.03937007874
144
1.0
145
0.0
146
1.0
147
0.625
148
0.0
 69
0
 70
0
 71
0
 72
0
 73
0
 74
0
 75
0
 76
0
 77
1
 78
8
 79
3
170
0
171
3
172
1
173
0
174
0
175
0
176
0
177
0
178
0
179
2
271
2
272
2
273
2
274
3
275
0
276
0
277
2
278
44
279
0
280
0
281
0
282
0
283
0
284
8
285
0
286
0
288
0
289
3
290
0
371
-2
372
-2
  0
ENDTAB
  0
TABLE
  2
BLOCK_RECORD
  5
9
330
0
100
AcDbSymbolTable
 70
2
  0
BLOCK_RECORD
  5
17
330
9
100
AcDbSymbolTableRecord
100
AcDbBlockTableRecord
  2
*Model_Space
340
1A
 70
0
280
1
281
0
  0
BLOCK_RECORD
  5
1B
330
9
100
AcDbSymbolTableRecord
100
AcDbBlockTableRecord
  2
*Paper_Space
340
1E
 70
0
280
1
281
0
  0
ENDTAB
  0
ENDSEC
  0
SECTION
  2
BLOCKS
  0
BLOCK
  5
18
330
17
100
AcDbEntity
  8
0
100
AcDbBlockBegin
  2
*Model_Space
 70
0
 10
0.0
 20
0.0
 30
0.0
  3
*Model_Space
  1

  0
ENDBLK
  5
19
330
17
100
AcDbEntity
  8
0
100
AcDbBlockEnd
  0
BLOCK
  5
1C
330
1B
100
AcDbEntity
  8
0
100
AcDbBlockBegin
  2
*Paper_Space
 70
0
 10
0.0
 20
0.0
 30
0.0
  3
*Paper_Space
  1

  0
ENDBLK
  5
1D
330
1B
100
AcDbEntity
  8
0
100
AcDbBlockEnd
  0
ENDSEC
  0
SECTION
  2
ENTITIES
  0
ELLIPSE
  5
30
330
17
100
AcDbEntity
  8
visible
100
AcDbEllipse
 10
-63.507971562073706
 20
-33.51212227437959
 30
0.0
 11
22.0
 21
0.0
 31
0.0
 40
0.3945686647862854
 41
3.078037497929584
 42
3.141592653589793
  0
ELLIPSE
  5
31
330
17
100
AcDbEntity
  8
visible
100
AcDbEllipse
 10
-63.507971562073706
 20
-33.51212227437959
 30
0.0
 11
22.0
 21
0.0
 31
0.0
 40
0.3945686647862854
 41
3.141592653589793
 42
4.125926416636151
  0
LINE
  5
32
330
17
100
AcDbEntity
  8
visible
100
AcDbLine
 10
-78.81185089704752
 20
-57.666091736278524
 30
0.0
 11
-78.81185089704752
 21
-46.63969423289136
 31
0.0
  0
ELLIPSE
  5
33
330
17
100
AcDbEntity
  8
visible
100
AcDbEllipse
 10
-63.507971562073706
 20
-40.40362071399656
 30
0.0
 11
22.0
 21
0.0
 31
0.0
 40
0.3945686647862854
 41
3.644561132177624
 42
3.943091279643242
  0
LINE
  5
34
330
17
100
AcDbEntity
  8
visible
100
AcDbLine
 10
-82.78339328736841
 20
-55.61427179849705
 30
0.0
 11
-82.78339328736841
 21
-44.587874295109884
 31
0.0
  0
ELLIPSE
  5
35
330
17
100
AcDbEntity
  8
visible
100
AcDbEllipse
 10
-63.507971562073706
 20
-51.430018217383726
 30
0.0
 11
22.0
 21
0.0
 31
0.0
 40
0.3945686647862854
 41
3.644561132177624
 42
3.943091279643242
  0
ELLIPSE
  5
36
330
17
100
AcDbEntity
  8
visible
100
AcDbEllipse
 10
61.84216448204997
 20
-30.371806967996246
 30
0.0
 11
22.0
 21
0.0
 31
0.0
 40
0.3945686647862854
 41
5.696722743431048
 42
6.283185307179586
  0
ELLIPSE
  5
37
330
17
100
AcDbEntity
  8
visible
100
AcDbEllipse
 10
61.84216448204997
 20
-30.371806967996246
 30
0.0
 11
22.0
 21
0.0
 31
0.0
 40
0.3945686647862854
 41
0.0
 42
0.06355515566021186
  0
LINE
  5
38
330
17
100
AcDbEntity
  8
visible
100
AcDbLine
 10
80.16604297107244
 20
-35.17575908512291
 30
0.0
 11
38.10626369523278
 21
-60.15222037844564
 31
0.0
  0
ELLIPSE
  5
39
330
17
100
AcDbEntity
  8
visible
100
AcDbEllipse
 10
19.782385206210297
 20
-55.34826826131898
 30
0.0
 11
22.0
 21
0.0
 31
0.0
 40
0.3945686647862854
 41
4.125926416636151
 42
5.696722743431048
  0
LINE
  5
3A
330
17
100
AcDbEntity
  8
visible
100
AcDbLine
 10
-75.68317082613255
 20
-40.74215054349933
 30
0.0
 11
7.607185942151446
 21
-62.57829653043871
 31
0.0
  0
ELLIPSE
  5
3B
330
17
100
AcDbEntity
  8
visible
100
AcDbEllipse
 10
-63.50797156207372
 20
-33.512122274379585
 30
0.0
 11
-21.389897948556634
 21
-6.461101331484299e-16
 31
0.0
 40
0.3945686647862854
 41
-6.126435634535161
 42
-5.298851544133228
  0
LINE
  5
3C
330
17
100
AcDbEntity
  8
visible
100
AcDbLine
 10
7.944827489775733
 20
-62.37779402684856
 30
0.0
 11
-75.3455292785083
 21
-40.54164803990916
 31
0.0
  0
ELLIPSE
  5
3D
330
17
100
AcDbEntity
  8
visible
100
AcDbEllipse
 10
19.78238520621031
 20
-55.34826826131898
 30
0.0
 11
-21.389897948556634
 21
-0.0
 31
0.0
 40
0.3945686647862854
 41
-5.298851544133228
 42
-3.728055217338332
  0
LINE
  5
3E
330
17
100
AcDbEntity
  8
visible
100
AcDbLine
 10
79.65788679577466
 20
-35.042536310500424
 30
0.0
 11
37.598107519934985
 21
-60.01899760382315
 31
0.0
  0
ELLIPSE
  5
3F
330
17
100
AcDbEntity
  8
visible
100
AcDbEllipse
 10
61.84216448204998
 20
-30.37180696799625
 30
0.0
 11
-21.389897948556634
 21
-0.0
 31
0.0
 40
0.3945686647862854
 41
-3.728055217338332
 42
-3.2983423262342138
  0
LINE
  5
40
330
17
100
AcDbEntity
  8
visible
100
AcDbLine
 10
-52.778322714854454
 20
-66.0432863208352
 30
0.0
 11
-48.613804876440255
 21
-67.13509362018216
 31
0.0
  0
LINE
  5
41
330
17
100
AcDbEntity
  8
visible
100
AcDbLine
 10
-52.778322714854454
 20
-66.04328632083518
 30
0.0
 11
-52.778322714854454
 21
-68.79988569668197
 31
0.0
  0
LINE
  5
42
330
17
100
AcDbEntity
  8
visible
100
AcDbLine
 10
-48.613804876440255
 20
-67.13509362018215
 30
0.0
 11
-48.613804876440255
 21
-69.89169299602894
 31
0.0
  0
LINE
  5
43
330
17
100
AcDbEntity
  8
visible
100
AcDbLine
 10
-52.778322714854454
 20
-68.79988569668198
 30
0.0
 11
-48.613804876440255
 21
-69.89169299602895
 31
0.0
  0
LINE
  5
44
330
17
100
AcDbEntity
  8
visible
100
AcDbLine
 10
-44.44928703802606
 20
-68.22690091952913
 30
0.0
 11
-40.28476919961185
 21
-69.3187082188761
 31
0.0
  0
LINE
  5
45
330
17
100
AcDbEntity
  8
visible
100
AcDbLine
 10
-44.44928703802606
 20
-68.22690091952913
 30
0.0
 11
-44.44928703802606
 21
-70.98350029537592
 31
0.0
  0
LINE
  5
46
330
17
100
AcDbEntity
  8
visible
100
AcDbLine
 10
-40.28476919961185
 20
-69.31870821887608
 30
0.0
 11
-40.28476919961185
 21
-72.07530759472287
 31
0.0
  0
LINE
  5
47
330
17
100
AcDbEntity
  8
visible
100
AcDbLine
 10
-44.44928703802606
 20
-70.98350029537592
 30
0.0
 11
-40.28476919961185
 21
-72.07530759472289
 31
0.0
  0
LINE
  5
48
330
17
100
AcDbEntity
  8
visible
100
AcDbLine
 10
-38.89754549128398
 20
-57.588398715341924
 30
0.0
 11
-38.89754549128398
 21
-58.2573586224688
 31
0.0
  0
SPLINE
  5
49
330
17
100
AcDbEntity
  8
visible
100
AcDbSpline
 70
0
 71
2
 72
6
 73
3
 74
0
 40
0.0
 40
0.0
 40
0.0
 40
1.0
 40
1.0
 40
1.0
 10
-38.897545491283985
 20
-57.58839871534192
 30
0.0
 10
-39.1924327687542
 20
-57.28875876060129
 30
0.0
 10
-39.53096702774201
 20
-57.087855298035024
 30
0.0
  0
SPLINE
  5
4A
330
17
100
AcDbEntity
  8
visible
100
AcDbSpline
 70
0
 71
2
 72
6
 73
3
 74
0
 40
0.0
 40
0.0
 40
0.0
 40
1.0
 40
1.0
 40
1.0
 10
-39.51673283591148
 20
-57.649053650537624
 30
0.0
 10
-39.18014053574079
 20
-57.8905839709548
 30
0.0
 10
-38.89754549128398
 20
-58.2573586224688
 30
0.0
  0
SPLINE
  5
4B
330
17
100
AcDbEntity
  8
visible
100
AcDbSpline
 70
0
 71
2
 72
6
 73
3
 74
0
 40
0.0
 40
0.0
 40
0.0
 40
1.0
 40
1.0
 40
1.0
 10
-39.530967027742
 20
-57.087855298035024
 30
0.0
 10
-39.87463529029969
 20
-56.885311313484706
 30
0.0
 10
-40.249793715183124
 20
-56.78790793705596
 30
0.0
  0
SPLINE
  5
4C
330
17
100
AcDbEntity
  8
visible
100
AcDbSpline
 70
0
 71
2
 72
6
 73
3
 74
0
 40
0.0
 40
0.0
 40
0.0
 40
1.0
 40
1.0
 40
1.0
 10
-40.21563165478989
 20
-57.318213204409645
 30
0.0
 10
-39.84872374414168
 20
-57.41379392364694
 30
0.0
 10
-39.51673283591149
 20
-57.649053650537624
 30
0.0
  0
SPLINE
  5
4D
330
17
100
AcDbEntity
  8
visible
100
AcDbSpline
 70
0
 71
3
 72
8
 73
4
 74
0
 40
0.0
 40
0.0
 40
0.0
 40
0.0
 40
0.8305883628600182
 40
0.8305883628600182
 40
0.8305883628600182
 40
0.8305883628600182
 10
-40.24979371518312
 20
-56.78790793705596
 30
0.0
 10
-40.72501346985932
 20
-56.66048385034493
 30
0.0
 10
-41.19811769799689
 20
-56.666361456703264
 30
0.0
 10
-41.56185775185421
 20
-56.88636868969466
 30
0.0
  0
SPLINE
  5
4E
330
17
100
AcDbEntity
  8
visible
100
AcDbSpline
 70
0
 71
2
 72
6
 73
3
 74
0
 40
0.0
 40
0.0
 40
0.0
 40
1.0
 40
1.0
 40
1.0
 10
-41.56185775185422
 20
-56.88636868969466
 30
0.0
 10
-41.67313461723583
 20
-56.952579472852676
 30
0.0
 10
-41.770005402682365
 20
-57.04104191857323
 30
0.0
  0
SPLINE
  5
4F
330
17
100
AcDbEntity
  8
visible
100
AcDbSpline
 70
0
 71
2
 72
6
 73
3
 74
0
 40
0.0
 40
0.0
 40
0.0
 40
0.19552954909560008
 40
0.19552954909560008
 40
0.19552954909560008
 10
-41.33159229430244
 20
-57.51715576277476
 30
0.0
 10
-41.25310727142286
 20
-57.437970407957195
 30
0.0
 10
-41.15921088669065
 20
-57.38209587633984
 30
0.0
  0
SPLINE
  5
50
330
17
100
AcDbEntity
  8
visible
100
AcDbSpline
 70
0
 71
3
 72
8
 73
4
 74
0
 40
0.0
 40
0.0
 40
0.0
 40
0.0
 40
1.0
 40
1.0
 40
1.0
 40
1.0
 10
-41.159210886690644
 20
-57.38209587633985
 30
0.0
 10
-40.90176153232581
 20
-57.22686191266767
 30
0.0
 10
-40.56288589573105
 20
-57.22555086983206
 30
0.0
 10
-40.21563165478988
 20
-57.31821320440965
 30
0.0
  0
SPLINE
  5
51
330
17
100
AcDbEntity
  8
visible
100
AcDbSpline
 70
0
 71
3
 72
11
 73
7
 74
0
 40
0.0
 40
0.0
 40
0.0
 40
0.0
 40
0.6298555326701425
 40
0.6298555326701425
 40
0.6298555326701425
 40
1.0
 40
1.0
 40
1.0
 40
1.0
 10
-41.77000540268237
 20
-57.04104191857323
 30
0.0
 10
-42.019730148970616
 20
-57.26630825931199
 30
0.0
 10
-42.18217449984509
 20
-57.59599802693524
 30
0.0
 10
-42.259446608418756
 20
-57.97384754599577
 30
0.0
 10
-42.30446775430842
 20
-58.197201590931435
 30
0.0
 10
-42.32636517952636
 20
-58.431861045548516
 30
0.0
 10
-42.325138884072544
 20
-58.67782590984702
 30
0.0
  0
SPLINE
  5
52
330
17
100
AcDbEntity
  8
visible
100
AcDbSpline
 70
0
 71
3
 72
8
 73
4
 74
0
 40
0.0
 40
0.0
 40
0.0
 40
0.0
 40
1.0
 40
1.0
 40
1.0
 40
1.0
 10
-41.71876231209251
 20
-58.83679902345311
 30
0.0
 10
-41.71995878922446
 20
-58.30985225332244
 30
0.0
 10
-41.62271323063904
 20
-57.808517699420804
 30
0.0
 10
-41.33159229430244
 20
-57.51715576277476
 30
0.0
  0
SPLINE
  5
53
330
17
100
AcDbEntity
  8
visible
100
AcDbSpline
 70
0
 71
3
 72
11
 73
7
 74
0
 40
0.0
 40
0.0
 40
0.0
 40
0.0
 40
0.36781947571318296
 40
0.36781947571318296
 40
0.36781947571318296
 40
1.0
 40
1.0
 40
1.0
 40
1.0
 10
-42.325138884072544
 20
-58.677825909847016
 30
0.0
 10
-42.32633734985301
 20
-58.92119109233937
 30
0.0
 10
-42.30469380568058
 20
-59.16538354026373
 30
0.0
 10
-42.26020825155523
 20
-59.410403253620125
 30
0.0
 10
-42.18313204303623
 20
-59.82967323363035
 30
0.0
 10
-42.020336699692095
 20
-60.24549511200931
 30
0.0
 10
-41.77000540268237
 20
-60.60254677623466
 30
0.0
  0
SPLINE
  5
54
330
17
100
AcDbEntity
  8
visible
100
AcDbSpline
 70
0
 71
3
 72
8
 73
4
 74
0
 40
0.0
 40
0.0
 40
0.0
 40
0.0
 40
1.0
 40
1.0
 40
1.0
 40
1.0
 10
-41.33159229430244
 20
-60.3563095470128
 30
0.0
 10
-41.62230741108356
 20
-59.91304367669016
 30
0.0
 10
-41.720005704367985
 20
-59.362036404141335
 30
0.0
 10
-41.71876231209251
 20
-58.83679902345311
 30
0.0
  0
SPLINE
  5
55
330
17
100
AcDbEntity
  8
visible
100
AcDbSpline
 70
0
 71
3
 72
11
 73
7
 74
0
 40
0.0
 40
0.0
 40
0.0
 40
0.0
 40
0.45830463551261696
 40
0.45830463551261696
 40
0.45830463551261696
 40
1.0
 40
1.0
 40
1.0
 40
1.0
 10
-41.770005402682365
 20
-60.60254677623466
 30
0.0
 10
-41.59582337806485
 20
-60.85357664905293
 30
0.0
 10
-41.38315670438375
 20
-61.07089228160305
 30
0.0
 10
-41.14713374816559
 20
-61.23927558248281
 30
0.0
 10
-40.868130830946804
 20
-61.43935692496297
 30
0.0
 10
-40.56032863085791
 20
-61.57160505241806
 30
0.0
 10
-40.249793715183124
 20
-61.65278538372047
 30
0.0
  0
SPLINE
  5
56
330
17
100
AcDbEntity
  8
visible
100
AcDbSpline
 70
0
 71
3
 72
11
 73
7
 74
0
 40
0.0
 40
0.0
 40
0.0
 40
0.0
 40
0.5601545193542448
 40
0.5601545193542448
 40
0.5601545193542448
 40
1.0
 40
1.0
 40
1.0
 40
1.0
 10
-40.21563165478988
 20
-61.140392579871694
 30
0.0
 10
-40.45778264935957
 20
-61.07709397379881
 30
0.0
 10
-40.69475195448387
 20
-60.9735219123709
 30
0.0
 10
-40.904197247514055
 20
-60.816015599863235
 30
0.0
 10
-41.07022888829176
 20
-60.691381220974876
 30
0.0
 10
-41.21269390388792
 20
-60.53814587002472
 30
0.0
 10
-41.33159229430243
 20
-60.3563095470128
 30
0.0
  0
SPLINE
  5
57
330
17
100
AcDbEntity
  8
visible
100
AcDbSpline
 70
0
 71
2
 72
6
 73
3
 74
0
 40
0.0
 40
0.0
 40
0.0
 40
1.0
 40
1.0
 40
1.0
 10
-40.249793715183124
 20
-61.65278538372047
 30
0.0
 10
-39.878970537859445
 20
-61.75076179618039
 30
0.0
 10
-39.5366607044742
 20
-61.72668307527802
 30
0.0
  0
SPLINE
  5
58
330
17
100
AcDbEntity
  8
visible
100
AcDbSpline
 70
0
 71
2
 72
6
 73
3
 74
0
 40
0.0
 40
0.0
 40
0.0
 40
1.0
 40
1.0
 40
1.0
 10
-39.51673283591149
 20
-61.17601128294837
 30
0.0
 10
-39.84872374088363
 20
-61.2371955892705
 30
0.0
 10
-40.21563165478989
 20
-61.1403925798717
 30
0.0
  0
SPLINE
  5
59
330
17
100
AcDbEntity
  8
visible
100
AcDbSpline
 70
0
 71
2
 72
6
 73
3
 74
0
 40
0.0
 40
0.0
 40
0.0
 40
1.0
 40
1.0
 40
1.0
 10
-39.5366607044742
 20
-61.72668307527802
 30
0.0
 10
-39.19698756571053
 20
-61.70140751790632
 30
0.0
 10
-38.89754549128398
 20
-61.55504830548864
 30
0.0
  0
SPLINE
  5
5A
330
17
100
AcDbEntity
  8
visible
100
AcDbSpline
 70
0
 71
2
 72
6
 73
3
 74
0
 40
0.0
 40
0.0
 40
0.0
 40
0.27660301896249323
 40
0.27660301896249323
 40
0.27660301896249323
 10
-38.89754549128398
 20
-60.8923697120437
 30
0.0
 10
-38.97551056631392
 20
-60.952105757149766
 30
0.0
 10
-39.057850200756306
 20
-61.00106737561756
 30
0.0
  0
SPLINE
  5
5B
330
17
100
AcDbEntity
  8
visible
100
AcDbSpline
 70
0
 71
2
 72
6
 73
3
 74
0
 40
0.0
 40
0.0
 40
0.0
 40
1.0
 40
1.0
 40
1.0
 10
-39.057850200756306
 20
-61.00106737561756
 30
0.0
 10
-39.2735536625433
 20
-61.12989009266184
 30
0.0
 10
-39.51673283591148
 20
-61.176011282948366
 30
0.0
  0
LINE
  5
5C
330
17
100
AcDbEntity
  8
visible
100
AcDbLine
 10
-38.89754549128398
 20
-60.892369712043696
 30
0.0
 11
-38.89754549128398
 21
-61.55504830548863
 31
0.0
  0
LINE
  5
5D
330
17
100
AcDbEntity
  8
visible
100
AcDbLine
 10
-38.53599701878884
 20
-62.011010628247156
 30
0.0
 11
-36.91329915010987
 21
-57.74743097291868
 31
0.0
  0
LINE
  5
5E
330
17
100
AcDbEntity
  8
visible
100
AcDbLine
 10
-37.92962044680881
 20
-62.169983741853244
 30
0.0
 11
-38.53599701878885
 21
-62.011010628247156
 31
0.0
  0
LINE
  5
5F
330
17
100
AcDbEntity
  8
visible
100
AcDbLine
 10
-36.91329915010987
 20
-57.747430972918686
 30
0.0
 11
-36.26137316427218
 21
-57.918345728861375
 31
0.0
  0
LINE
  5
60
330
17
100
AcDbEntity
  8
visible
100
AcDbLine
 10
-37.54245042901873
 20
-61.06861613162241
 30
0.0
 11
-37.9296204468088
 21
-62.169983741853244
 31
0.0
  0
LINE
  5
61
330
17
100
AcDbEntity
  8
visible
100
AcDbLine
 10
-36.26137316427218
 20
-57.918345728861375
 30
0.0
 11
-34.641522133959306
 21
-63.0320210480271
 31
0.0
  0
LINE
  5
62
330
17
100
AcDbEntity
  8
visible
100
AcDbLine
 10
-35.6265282086311
 20
-61.57091146240596
 30
0.0
 11
-37.54245042901873
 21
-61.068616131622406
 31
0.0
  0
LINE
  5
63
330
17
100
AcDbEntity
  8
visible
100
AcDbLine
 10
-34.64152213395931
 20
-63.0320210480271
 30
0.0
 11
-35.23935819084103
 21
-62.87528699235912
 31
0.0
  0
LINE
  5
64
330
17
100
AcDbEntity
  8
visible
100
AcDbLine
 10
-35.23935819084103
 20
-62.87528699235912
 30
0.0
 11
-35.6265282086311
 21
-61.57091146240596
 31
0.0
  0
LINE
  5
65
330
17
100
AcDbEntity
  8
visible
100
AcDbLine
 10
-36.12025136119765
 20
-70.41051551822306
 30
0.0
 11
-31.955733522783454
 21
-71.50232281757003
 31
0.0
  0
LINE
  5
66
330
17
100
AcDbEntity
  8
visible
100
AcDbLine
 10
-36.12025136119765
 20
-70.41051551822306
 30
0.0
 11
-36.12025136119765
 21
-73.16711489406985
 31
0.0
  0
LINE
  5
67
330
17
100
AcDbEntity
  8
visible
100
AcDbLine
 10
-31.955733522783454
 20
-71.50232281757003
 30
0.0
 11
-31.955733522783454
 21
-74.25892219341682
 31
0.0
  0
LINE
  5
68
330
17
100
AcDbEntity
  8
visible
100
AcDbLine
 10
-36.12025136119765
 20
-73.16711489406985
 30
0.0
 11
-31.955733522783454
 21
-74.25892219341682
 31
0.0
  0
LINE
  5
69
330
17
100
AcDbEntity
  8
visible
100
AcDbLine
 10
-27.791215684369256
 20
-72.594130116917
 30
0.0
 11
-23.626697845955057
 21
-73.68593741626397
 31
0.0
  0
LINE
  5
6A
330
17
100
AcDbEntity
  8
visible
100
AcDbLine
 10
-27.791215684369252
 20
-72.594130116917
 30
0.0
 11
-27.791215684369252
 21
-75.35072949276379
 31
0.0
  0
LINE
  5
6B
330
17
100
AcDbEntity
  8
visible
100
AcDbLine
 10
-23.626697845955054
 20
-73.68593741626397
 30
0.0
 11
-23.626697845955054
 21
-76.44253679211076
 31
0.0
  0
LINE
  5
6C
330
17
100
AcDbEntity
  8
visible
100
AcDbLine
 10
-27.791215684369256
 20
-75.35072949276379
 30
0.0
 11
-23.626697845955057
 21
-76.44253679211076
 31
0.0
  0
LINE
  5
6D
330
17
100
AcDbEntity
  8
visible
100
AcDbLine
 10
-19.46218000754086
 20
-74.77774471561094
 30
0.0
 11
-15.297662169126653
 21
-75.8695520149579
 31
0.0
  0
LINE
  5
6E
330
17
100
AcDbEntity
  8
visible
100
AcDbLine
 10
-15.297662169126653
 20
-75.8695520149579
 30
0.0
 11
-15.297662169126653
 21
-78.6261513908047
 31
0.0
  0
LINE
  5
6F
330
17
100
AcDbEntity
  8
visible
100
AcDbLine
 10
-19.46218000754086
 20
-77.53434409145773
 30
0.0
 11
-15.297662169126653
 21
-78.6261513908047
 31
0.0
  0
LINE
  5
70
330
17
100
AcDbEntity
  8
visible
100
AcDbLine
 10
-19.46218000754085
 20
-74.77774471561094
 30
0.0
 11
-19.46218000754085
 21
-77.53434409145773
 31
0.0
  0
LINE
  5
71
330
17
100
AcDbEntity
  8
visible
100
AcDbLine
 10
-34.02091137014875
 20
-63.19472592486338
 30
0.0
 11
-34.02091137014875
 21
-58.50572526129326
 31
0.0
  0
LINE
  5
72
330
17
100
AcDbEntity
  8
visible
100
AcDbLine
 10
-33.46293105039248
 20
-63.341011043486816
 30
0.0
 11
-34.02091137014875
 21
-63.19472592486338
 31
0.0
  0
LINE
  5
73
330
17
100
AcDbEntity
  8
visible
100
AcDbLine
 10
-34.02091137014875
 20
-58.50572526129326
 30
0.0
 11
-33.16401302195161
 21
-58.73037740775069
 31
0.0
  0
LINE
  5
74
330
17
100
AcDbEntity
  8
visible
100
AcDbLine
 10
-33.46293105039248
 20
-59.22360992497348
 30
0.0
 11
-33.46293105039248
 21
-63.34101104348682
 31
0.0
  0
LINE
  5
75
330
17
100
AcDbEntity
  8
visible
100
AcDbLine
 10
-33.16401302195161
 20
-58.73037740775069
 30
0.0
 11
-32.07936760446619
 21
-62.20564511631797
 31
0.0
  0
LINE
  5
76
330
17
100
AcDbEntity
  8
visible
100
AcDbLine
 10
-32.36689827944265
 20
-62.726988298852675
 30
0.0
 11
-33.462931050392484
 21
-59.22360992497347
 31
0.0
  0
LINE
  5
77
330
17
100
AcDbEntity
  8
visible
100
AcDbLine
 10
-32.07936760446619
 20
-62.20564511631798
 30
0.0
 11
-30.98902851024857
 21
-59.3005908293237
 31
0.0
  0
LINE
  5
78
330
17
100
AcDbEntity
  8
visible
100
AcDbLine
 10
-31.788990091123647
 20
-62.878497885998385
 30
0.0
 11
-32.36689827944265
 21
-62.726988298852675
 31
0.0
  0
LINE
  5
79
330
17
100
AcDbEntity
  8
visible
100
AcDbLine
 10
-30.98902851024857
 20
-59.30059082932369
 30
0.0
 11
-30.132130162051432
 21
-59.52524297578112
 31
0.0
  0
LINE
  5
7A
330
17
100
AcDbEntity
  8
visible
100
AcDbLine
 10
-30.692957320173818
 20
-59.94981104956841
 30
0.0
 11
-31.788990091123647
 21
-62.87849788599838
 31
0.0
  0
LINE
  5
7B
330
17
100
AcDbEntity
  8
visible
100
AcDbLine
 10
-30.132130162051432
 20
-59.525242975781126
 30
0.0
 11
-30.132130162051432
 21
-64.21424363935124
 31
0.0
  0
LINE
  5
7C
330
17
100
AcDbEntity
  8
visible
100
AcDbLine
 10
-30.692957320173814
 20
-64.06721216808175
 30
0.0
 11
-30.692957320173814
 21
-59.94981104956841
 31
0.0
  0
LINE
  5
7D
330
17
100
AcDbEntity
  8
visible
100
AcDbLine
 10
-30.132130162051435
 20
-64.21424363935122
 30
0.0
 11
-30.69295732017381
 21
-64.06721216808175
 31
0.0
  0
LINE
  5
7E
330
17
100
AcDbEntity
  8
visible
100
AcDbLine
 10
-27.871740499365288
 20
-62.30374413805128
 30
0.0
 11
-29.195520339603394
 21
-59.770792996327614
 31
0.0
  0
LINE
  5
7F
330
17
100
AcDbEntity
  8
visible
100
AcDbLine
 10
-29.38910534849842
 20
-64.40904167996715
 30
0.0
 11
-27.87174049936528
 21
-62.303744138051286
 31
0.0
  0
LINE
  5
80
330
17
100
AcDbEntity
  8
visible
100
AcDbLine
 10
-29.195520339603398
 20
-59.77079299632761
 30
0.0
 11
-28.577756414158948
 21
-59.93275152051785
 31
0.0
  0
LINE
  5
81
330
17
100
AcDbEntity
  8
visible
100
AcDbLine
 10
-28.76849458468788
 20
-64.57174655680342
 30
0.0
 11
-29.38910534849843
 21
-64.40904167996715
 31
0.0
  0
LINE
  5
82
330
17
100
AcDbEntity
  8
visible
100
AcDbLine
 10
-28.577756414158934
 20
-59.932751520517854
 30
0.0
 11
-27.52157938033455
 21
-61.952712898937
 31
0.0
  0
LINE
  5
83
330
17
100
AcDbEntity
  8
visible
100
AcDbLine
 10
-27.56428195582611
 20
-62.89313663206072
 30
0.0
 11
-28.768494584687872
 21
-64.57174655680342
 31
0.0
  0
LINE
  5
84
330
17
100
AcDbEntity
  8
visible
100
AcDbLine
 10
-27.521579380334558
 20
-61.95271289893701
 30
0.0
 11
-26.459708669777967
 21
-60.4880378891701
 31
0.0
  0
LINE
  5
85
330
17
100
AcDbEntity
  8
visible
100
AcDbLine
 10
-26.368609842062657
 20
-65.20092183741343
 30
0.0
 11
-27.56428195582611
 21
-62.89313663206072
 31
0.0
  0
LINE
  5
86
330
17
100
AcDbEntity
  8
visible
100
AcDbLine
 10
-26.459708669777967
 20
-60.4880378891701
 30
0.0
 11
-25.841944744333517
 21
-60.64999641336034
 31
0.0
  0
LINE
  5
87
330
17
100
AcDbEntity
  8
visible
100
AcDbLine
 10
-25.750845916618204
 20
-65.36288036160367
 30
0.0
 11
-26.368609842062654
 21
-65.20092183741343
 31
0.0
  0
LINE
  5
88
330
17
100
AcDbEntity
  8
visible
100
AcDbLine
 10
-25.841944744333517
 20
-60.64999641336033
 30
0.0
 11
-27.208427160063174
 21
-62.543598098238505
 31
0.0
  0
LINE
  5
89
330
17
100
AcDbEntity
  8
visible
100
AcDbLine
 10
-27.20842716006318
 20
-62.54359809823852
 30
0.0
 11
-25.75084591661821
 21
-65.36288036160367
 31
0.0
  0
LINE
  5
8A
330
17
100
AcDbEntity
  8
visible
100
AcDbLine
 10
-82.78339328736841
 20
-55.61427179849704
 30
0.0
 11
-78.81185089704752
 21
-56.65548692583323
 31
0.0
  0
ELLIPSE
  5
8B
330
17
100
AcDbEntity
  8
visible
100
AcDbEllipse
 10
46.96095406909376
 20
-73.27134717321594
 30
0.0
 11
-0.7607956147769275
 21
-2.9019286746121447
 31
0.0
 40
0.5085173741229536
 41
0.47601446962635297
 42
3.1415926535897936
  0
ELLIPSE
  5
8C
330
17
100
AcDbEntity
  8
visible
100
AcDbEllipse
 10
46.96095406909376
 20
-73.27134717321594
 30
0.0
 11
-0.7607956147769275
 21
-2.9019286746121447
 31
0.0
 40
0.5085173741229536
 41
3.1415926535897936
 42
6.283185307179586
  0
ELLIPSE
  5
8D
330
17
100
AcDbEntity
  8
visible
100
AcDbEllipse
 10
46.96095406909376
 20
-73.27134717321594
 30
0.0
 11
-0.7607956147769275
 21
-2.9019286746121447
 31
0.0
 40
0.5085173741229536
 41
0.0
 42
0.4760144696263531
  0
LINE
  5
8E
330
17
100
AcDbEntity
  8
visible
100
AcDbLine
 10
-51.118068269755526
 20
-66.47855349755653
 30
0.0
 11
-51.118068269755526
 21
-67.81397275089292
 31
0.0
  0
LINE
  5
8F
330
17
100
AcDbEntity
  8
visible
100
AcDbLine
 10
-52.77832271485446
 20
-68.79988569668198
 30
0.0
 11
-51.118068269755526
 21
-67.81397275089293
 31
0.0
  0
LINE
  5
90
330
17
100
AcDbEntity
  8
visible
100
AcDbLine
 10
-51.118068269755526
 20
-67.81397275089292
 30
0.0
 11
-48.613804876440255
 21
-68.47051287351854
 31
0.0
  0
LINE
  5
91
330
17
100
AcDbEntity
  8
visible
100
AcDbLine
 10
-42.78903259292712
 20
-68.66216809625048
 30
0.0
 11
-42.78903259292712
 21
-69.99758734958687
 31
0.0
  0
LINE
  5
92
330
17
100
AcDbEntity
  8
visible
100
AcDbLine
 10
-44.44928703802606
 20
-70.98350029537592
 30
0.0
 11
-42.78903259292712
 21
-69.99758734958687
 31
0.0
  0
LINE
  5
93
330
17
100
AcDbEntity
  8
visible
100
AcDbLine
 10
-42.78903259292713
 20
-69.99758734958687
 30
0.0
 11
-40.28476919961185
 21
-70.65412747221248
 31
0.0
  0
SPLINE
  5
94
330
17
100
AcDbEntity
  8
visible
100
AcDbSpline
 70
0
 71
2
 72
6
 73
3
 74
0
 40
0.0
 40
0.0
 40
0.0
 40
1.0
 40
1.0
 40
1.0
 10
-38.89754549128398
 20
-57.689828333731285
 30
0.0
 10
-39.03725042573082
 20
-57.55670868843269
 30
0.0
 10
-39.18468194689169
 20
-57.451871061379805
 30
0.0
  0
SPLINE
  5
95
330
17
100
AcDbEntity
  8
visible
100
AcDbSpline
 70
0
 71
2
 72
6
 73
3
 74
0
 40
0.0
 40
0.0
 40
0.0
 40
1.0
 40
1.0
 40
1.0
 10
-39.18468194689169
 20
-57.451871061379805
 30
0.0
 10
-39.51349177817664
 20
-57.21805645923678
 30
0.0
 10
-39.88358076577009
 20
-57.12103061525184
 30
0.0
  0
SPLINE
  5
96
330
17
100
AcDbEntity
  8
visible
100
AcDbSpline
 70
0
 71
2
 72
6
 73
3
 74
0
 40
0.0
 40
0.0
 40
0.0
 40
0.04369976596427105
 40
0.04369976596427105
 40
0.04369976596427105
 10
-41.43795451366258
 20
-56.843859329415416
 30
0.0
 10
-41.4136953104469
 20
-56.82174080087552
 30
0.0
 10
-41.38865324827515
 20
-56.80107201912156
 30
0.0
  0
SPLINE
  5
97
330
17
100
AcDbEntity
  8
visible
100
AcDbSpline
 70
0
 71
2
 72
6
 73
3
 74
0
 40
0.0
 40
0.0
 40
0.0
 40
0.795782054867783
 40
0.795782054867783
 40
0.795782054867783
 10
-39.88358076577009
 20
-57.12103061525184
 30
0.0
 10
-40.463539264292784
 20
-56.96898350041789
 30
0.0
 10
-40.82715999764715
 20
-57.18491328722236
 30
0.0
  0
SPLINE
  5
98
330
17
100
AcDbEntity
  8
visible
100
AcDbSpline
 70
0
 71
2
 72
6
 73
3
 74
0
 40
0.0
 40
0.0
 40
0.0
 40
1.0
 40
1.0
 40
1.0
 10
-41.993087995052754
 20
-58.48064332068921
 30
0.0
 10
-41.993087995052754
 20
-57.35000685793955
 30
0.0
 10
-41.43795451366258
 20
-56.843859329415416
 30
0.0
  0
SPLINE
  5
99
330
17
100
AcDbEntity
  8
visible
100
AcDbSpline
 70
0
 71
2
 72
6
 73
3
 74
0
 40
0.0
 40
0.0
 40
0.0
 40
1.0
 40
1.0
 40
1.0
 10
-41.43795451366258
 20
-60.40536418707684
 30
0.0
 10
-41.993087995052754
 20
-59.6081391265979
 30
0.0
 10
-41.993087995052754
 20
-58.48064332068921
 30
0.0
  0
SPLINE
  5
9A
330
17
100
AcDbEntity
  8
visible
100
AcDbSpline
 70
0
 71
2
 72
6
 73
3
 74
0
 40
0.0
 40
0.0
 40
0.0
 40
1.0
 40
1.0
 40
1.0
 10
-39.917742826163334
 20
-61.45560279456266
 30
0.0
 10
-40.8828210322724
 20
-61.202589247555785
 30
0.0
 10
-41.43795451366258
 20
-60.40536418707684
 30
0.0
  0
SPLINE
  5
9B
330
17
100
AcDbEntity
  8
visible
100
AcDbSpline
 70
0
 71
2
 72
6
 73
3
 74
0
 40
0.0
 40
0.0
 40
0.0
 40
1.0
 40
1.0
 40
1.0
 10
-39.20460981545442
 20
-61.529500486120206
 30
0.0
 10
-39.54196016183768
 20
-61.55412134383967
 30
0.0
 10
-39.917742826163334
 20
-61.45560279456266
 30
0.0
  0
SPLINE
  5
9C
330
17
100
AcDbEntity
  8
visible
100
AcDbSpline
 70
0
 71
2
 72
6
 73
3
 74
0
 40
0.0
 40
0.0
 40
0.0
 40
1.0
 40
1.0
 40
1.0
 10
-38.89754549128398
 20
-61.479878322807075
 30
0.0
 10
-39.047203987821845
 20
-61.51801252848831
 30
0.0
 10
-39.20460981545442
 20
-61.529500486120206
 30
0.0
  0
LINE
  5
9D
330
17
100
AcDbEntity
  8
visible
100
AcDbLine
 10
-38.20394612976905
 20
-61.813828039089344
 30
0.0
 11
-36.67961233144407
 21
-57.80869640250264
 31
0.0
  0
LINE
  5
9E
330
17
100
AcDbEntity
  8
visible
100
AcDbLine
 10
-38.20394612976905
 20
-61.813828039089344
 30
0.0
 11
-38.53599701878884
 21
-62.011010628247156
 31
0.0
  0
LINE
  5
9F
330
17
100
AcDbEntity
  8
visible
100
AcDbLine
 10
-37.83813298513853
 20
-61.90973288978312
 30
0.0
 11
-38.20394612976905
 21
-61.813828039089344
 31
0.0
  0
LINE
  5
A0
330
17
100
AcDbEntity
  8
visible
100
AcDbLine
 10
-37.210399539998946
 20
-60.8714335424646
 30
0.0
 11
-37.542450429018736
 21
-61.06861613162241
 31
0.0
  0
LINE
  5
A1
330
17
100
AcDbEntity
  8
visible
100
AcDbLine
 10
-35.294477319611325
 20
-61.373728873248155
 30
0.0
 11
-37.21039953999895
 21
-60.8714335424646
 31
0.0
  0
LINE
  5
A2
330
17
100
AcDbEntity
  8
visible
100
AcDbLine
 10
-35.294477319611325
 20
-61.373728873248155
 30
0.0
 11
-35.626528208631115
 21
-61.57091146240597
 31
0.0
  0
LINE
  5
A3
330
17
100
AcDbEntity
  8
visible
100
AcDbLine
 10
-34.739713635768815
 20
-62.72204225988007
 30
0.0
 11
-34.90730730182125
 21
-62.67810440320131
 31
0.0
  0
LINE
  5
A4
330
17
100
AcDbEntity
  8
visible
100
AcDbLine
 10
-34.90730730182125
 20
-62.67810440320132
 30
0.0
 11
-35.23935819084104
 21
-62.87528699235913
 31
0.0
  0
LINE
  5
A5
330
17
100
AcDbEntity
  8
visible
100
AcDbLine
 10
-34.90730730182125
 20
-62.67810440320132
 30
0.0
 11
-35.29447731961132
 21
-61.373728873248155
 31
0.0
  0
LINE
  5
A6
330
17
100
AcDbEntity
  8
visible
100
AcDbLine
 10
-34.459996916098724
 20
-70.84578269494442
 30
0.0
 11
-34.459996916098724
 21
-72.1812019482808
 31
0.0
  0
LINE
  5
A7
330
17
100
AcDbEntity
  8
visible
100
AcDbLine
 10
-36.12025136119766
 20
-73.16711489406985
 30
0.0
 11
-34.459996916098724
 21
-72.1812019482808
 31
0.0
  0
LINE
  5
A8
330
17
100
AcDbEntity
  8
visible
100
AcDbLine
 10
-34.45999691609872
 20
-72.1812019482808
 30
0.0
 11
-31.955733522783454
 21
-72.83774207090642
 31
0.0
  0
LINE
  5
A9
330
17
100
AcDbEntity
  8
visible
100
AcDbLine
 10
-26.13096123927032
 20
-73.02939729363835
 30
0.0
 11
-26.13096123927032
 21
-74.36481654697474
 31
0.0
  0
LINE
  5
AA
330
17
100
AcDbEntity
  8
visible
100
AcDbLine
 10
-27.791215684369256
 20
-75.35072949276379
 30
0.0
 11
-26.130961239270324
 21
-74.36481654697474
 31
0.0
  0
LINE
  5
AB
330
17
100
AcDbEntity
  8
visible
100
AcDbLine
 10
-26.13096123927032
 20
-74.36481654697474
 30
0.0
 11
-23.626697845955057
 21
-75.02135666960035
 31
0.0
  0
LINE
  5
AC
330
17
100
AcDbEntity
  8
visible
100
AcDbLine
 10
-19.462180007540855
 20
-77.53434409145774
 30
0.0
 11
-17.801925562441923
 21
-76.54843114566869
 31
0.0
  0
LINE
  5
AD
330
17
100
AcDbEntity
  8
visible
100
AcDbLine
 10
-17.801925562441916
 20
-76.54843114566867
 30
0.0
 11
-15.297662169126653
 21
-77.20497126829429
 31
0.0
  0
LINE
  5
AE
330
17
100
AcDbEntity
  8
visible
100
AcDbLine
 10
-17.801925562441923
 20
-75.2130118923323
 30
0.0
 11
-17.801925562441923
 21
-76.54843114566869
 31
0.0
  0
LINE
  5
AF
330
17
100
AcDbEntity
  8
visible
100
AcDbLine
 10
-33.68886048112897
 20
-62.99754333570556
 30
0.0
 11
-33.68886048112897
 21
-58.592778696637524
 31
0.0
  0
LINE
  5
B0
330
17
100
AcDbEntity
  8
visible
100
AcDbLine
 10
-33.68886048112897
 20
-62.99754333570556
 30
0.0
 11
-34.02091137014876
 21
-63.19472592486337
 31
0.0
  0
LINE
  5
B1
330
17
100
AcDbEntity
  8
visible
100
AcDbLine
 10
-33.46293105039248
 20
-63.05677501898474
 30
0.0
 11
-33.68886048112897
 21
-62.997543335705565
 31
0.0
  0
LINE
  5
B2
330
17
100
AcDbEntity
  8
visible
100
AcDbLine
 10
-33.130880161372694
 20
-59.02642733581566
 30
0.0
 11
-33.462931050392484
 21
-59.22360992497347
 31
0.0
  0
LINE
  5
B3
330
17
100
AcDbEntity
  8
visible
100
AcDbLine
 10
-31.747316715446413
 20
-62.00846252716016
 30
0.0
 11
-32.0793676044662
 21
-62.205645116317974
 31
0.0
  0
LINE
  5
B4
330
17
100
AcDbEntity
  8
visible
100
AcDbLine
 10
-32.03484739042287
 20
-62.52980570969487
 30
0.0
 11
-33.1308801613727
 21
-59.02642733581566
 31
0.0
  0
LINE
  5
B5
330
17
100
AcDbEntity
  8
visible
100
AcDbLine
 10
-32.03484739042287
 20
-62.52980570969487
 30
0.0
 11
-32.36689827944266
 21
-62.72698829885268
 31
0.0
  0
LINE
  5
B6
330
17
100
AcDbEntity
  8
visible
100
AcDbLine
 10
-31.747316715446413
 20
-62.00846252716016
 30
0.0
 11
-30.754101609945717
 21
-59.3621813698174
 31
0.0
  0
LINE
  5
B7
330
17
100
AcDbEntity
  8
visible
100
AcDbLine
 10
-31.69212167099648
 20
-62.61965775419617
 30
0.0
 11
-32.03484739042286
 21
-62.52980570969486
 31
0.0
  0
LINE
  5
B8
330
17
100
AcDbEntity
  8
visible
100
AcDbLine
 10
-30.36090643115403
 20
-59.752628460410605
 30
0.0
 11
-30.692957320173818
 21
-59.94981104956842
 31
0.0
  0
LINE
  5
B9
330
17
100
AcDbEntity
  8
visible
100
AcDbLine
 10
-30.36090643115403
 20
-63.87002957892395
 30
0.0
 11
-30.36090643115403
 21
-59.752628460410605
 31
0.0
  0
LINE
  5
BA
330
17
100
AcDbEntity
  8
visible
100
AcDbLine
 10
-30.36090643115403
 20
-63.87002957892395
 30
0.0
 11
-30.692957320173818
 21
-64.06721216808175
 31
0.0
  0
LINE
  5
BB
330
17
100
AcDbEntity
  8
visible
100
AcDbLine
 10
-30.132130162051432
 20
-63.93000761484917
 30
0.0
 11
-30.36090643115403
 21
-63.870029578923955
 31
0.0
  0
LINE
  5
BC
330
17
100
AcDbEntity
  8
visible
100
AcDbLine
 10
-27.539689610345505
 20
-62.10656154889347
 30
0.0
 11
-28.6913360466138
 21
-59.902974466706844
 31
0.0
  0
LINE
  5
BD
330
17
100
AcDbEntity
  8
visible
100
AcDbLine
 10
-27.539689610345505
 20
-62.10656154889347
 30
0.0
 11
-27.87174049936529
 21
-62.30374413805128
 31
0.0
  0
LINE
  5
BE
330
17
100
AcDbEntity
  8
visible
100
AcDbLine
 10
-29.057054459478646
 20
-64.21185909080933
 30
0.0
 11
-27.539689610345505
 21
-62.10656154889345
 31
0.0
  0
LINE
  5
BF
330
17
100
AcDbEntity
  8
visible
100
AcDbLine
 10
-29.057054459478646
 20
-64.21185909080933
 30
0.0
 11
-29.389105348498433
 21
-64.40904167996713
 31
0.0
  0
LINE
  5
C0
330
17
100
AcDbEntity
  8
visible
100
AcDbLine
 10
-28.596866606714983
 20
-64.3325060603297
 30
0.0
 11
-29.057054459478646
 21
-64.21185909080934
 31
0.0
  0
LINE
  5
C1
330
17
100
AcDbEntity
  8
visible
100
AcDbLine
 10
-27.18952849131478
 20
-61.75553030977919
 30
0.0
 11
-27.521579380334565
 21
-61.952712898937
 31
0.0
  0
LINE
  5
C2
330
17
100
AcDbEntity
  8
visible
100
AcDbLine
 10
-27.23223106680633
 20
-62.69595404290291
 30
0.0
 11
-27.564281955826118
 21
-62.893136632060724
 31
0.0
  0
LINE
  5
C3
330
17
100
AcDbEntity
  8
visible
100
AcDbLine
 10
-27.18952849131478
 20
-61.75553030977919
 30
0.0
 11
-26.300813680158733
 21
-60.52969522291849
 31
0.0
  0
LINE
  5
C4
330
17
100
AcDbEntity
  8
visible
100
AcDbLine
 10
-26.036558953042878
 20
-65.00373924825561
 30
0.0
 11
-27.232231066806328
 21
-62.695954042902905
 31
0.0
  0
LINE
  5
C5
330
17
100
AcDbEntity
  8
visible
100
AcDbLine
 10
-26.036558953042878
 20
-65.00373924825561
 30
0.0
 11
-26.368609842062664
 21
-65.20092183741342
 31
0.0
  0
LINE
  5
C6
330
17
100
AcDbEntity
  8
visible
100
AcDbLine
 10
-25.9208383863318
 20
-65.03407758856822
 30
0.0
 11
-26.036558953042878
 21
-65.00373924825561
 31
0.0
  0
ELLIPSE
  5
C7
330
17
100
AcDbEntity
  8
visible
100
AcDbEllipse
 10
44.46224336604524
 20
-72.61626279360776
 30
0.0
 11
-0.7607956147769275
 21
-2.9019286746121447
 31
0.0
 40
0.5085173741229536
 41
1.009619869402267
 42
2.131972784187525
  0
LINE
  5
C8
330
17
100
AcDbEntity
  8
visible
100
AcDbLine
 10
-35.47382813667584
 20
-60.79907830726458
 30
0.0
 11
-36.25670868735429
 21
-58.26032329676248
 31
0.0
  0
ELLIPSE
  5
C9
330
17
100
AcDbEntity
  8
visible
100
AcDbEllipse
 10
19.782385206210297
 20
-48.916203051009795
 30
0.0
 11
-21.2
 21
-0.0
 31
0.0
 40
0.3945686647862854
 41
-5.298851544133228
 42
-3.728055217338332
  0
LINE
  5
CA
330
17
100
AcDbEntity
  8
visible
100
AcDbLine
 10
-36.25670868735429
 20
-58.26032329676248
 30
0.0
 11
-36.58875957637408
 21
-58.45750588592029
 31
0.0
  0
LINE
  5
CB
330
17
100
AcDbEntity
  8
visible
100
AcDbLine
 10
-35.80587902569562
 20
-60.9962608964224
 30
0.0
 11
-36.588759576374066
 21
-58.4575058859203
 31
0.0
  0
LINE
  5
CC
330
17
100
AcDbEntity
  8
visible
100
AcDbLine
 10
-35.47382813667584
 20
-60.79907830726458
 30
0.0
 11
-35.80587902569563
 21
-60.99626089642239
 31
0.0
  0
LINE
  5
CD
330
17
100
AcDbEntity
  8
visible
100
AcDbLine
 10
-36.58875957637407
 20
-58.4575058859203
 30
0.0
 11
-37.36879328868642
 21
-60.58651329374756
 31
0.0
  0
LINE
  5
CE
330
17
100
AcDbEntity
  8
visible
100
AcDbLine
 10
-37.36879328868642
 20
-60.58651329374755
 30
0.0
 11
-35.80587902569562
 21
-60.99626089642239
 31
0.0
  0
ELLIPSE
  5
CF
330
17
100
AcDbEntity
  8
visible
100
AcDbEllipse
 10
61.84216448204997
 20
-29.269167217657525
 30
0.0
 11
22.0
 21
0.0
 31
0.0
 40
0.3945686647862854
 41
5.696722743431048
 42
6.283185307179586
  0
LINE
  5
D0
330
17
100
AcDbEntity
  8
visible
100
AcDbLine
 10
80.16604297107244
 20
-34.07311933478419
 30
0.0
 11
38.10626369523278
 21
-59.049580628106916
 31
0.0
  0
ELLIPSE
  5
D1
330
17
100
AcDbEntity
  8
visible
100
AcDbEllipse
 10
19.782385206210297
 20
-54.245628510980254
 30
0.0
 11
22.0
 21
0.0
 31
0.0
 40
0.3945686647862854
 41
4.125926416636151
 42
5.696722743431048
  0
LINE
  5
D2
330
17
100
AcDbEntity
  8
visible
100
AcDbLine
 10
-75.68317082613255
 20
-39.63951079316061
 30
0.0
 11
7.607185942151446
 21
-61.475656780099996
 31
0.0
  0
ELLIPSE
  5
D3
330
17
100
AcDbEntity
  8
visible
100
AcDbEllipse
 10
-63.507971562073706
 20
-32.40948252404087
 30
0.0
 11
22.0
 21
0.0
 31
0.0
 40
0.3945686647862854
 41
3.141592653589793
 42
4.125926416636151
  0
ELLIPSE
  5
D4
330
17
100
AcDbEntity
  8
visible
100
AcDbEllipse
 10
-78.06434958058979
 20
-24.56249121124108
 30
0.0
 11
3.2
 21
0.0
 31
0.0
 40
0.3945686647862854
 41
5.696722743431048
 42
6.283185307179586
  0
ELLIPSE
  5
D5
330
17
100
AcDbEntity
  8
visible
100
AcDbEllipse
 10
-78.06434958058979
 20
-24.56249121124108
 30
0.0
 11
3.2
 21
0.0
 31
0.0
 40
0.3945686647862854
 41
0.0
 42
3.141592653589793
  0
ELLIPSE
  5
D6
330
17
100
AcDbEntity
  8
visible
100
AcDbEllipse
 10
-78.06434958058979
 20
-24.56249121124108
 30
0.0
 11
3.2
 21
0.0
 31
0.0
 40
0.3945686647862854
 41
3.141592653589793
 42
5.696722743431048
  0
ELLIPSE
  5
D7
330
17
100
AcDbEntity
  8
visible
100
AcDbEllipse
 10
22.716982109033847
 20
-50.98422785543774
 30
0.0
 11
3.2
 21
0.0
 31
0.0
 40
0.3945686647862854
 41
5.696722743431048
 42
6.283185307179586
  0
ELLIPSE
  5
D8
330
17
100
AcDbEntity
  8
visible
100
AcDbEllipse
 10
22.716982109033847
 20
-50.98422785543774
 30
0.0
 11
3.2
 21
0.0
 31
0.0
 40
0.3945686647862854
 41
0.0
 42
3.141592653589793
  0
ELLIPSE
  5
D9
330
17
100
AcDbEntity
  8
visible
100
AcDbEllipse
 10
22.716982109033847
 20
-50.98422785543774
 30
0.0
 11
3.2
 21
0.0
 31
0.0
 40
0.3945686647862854
 41
3.141592653589793
 42
5.696722743431048
  0
ELLIPSE
  5
DA
330
17
100
AcDbEntity
  8
visible
100
AcDbEllipse
 10
76.39854250056605
 20
-19.106375941591622
 30
0.0
 11
3.2
 21
0.0
 31
0.0
 40
0.3945686647862854
 41
5.696722743431048
 42
6.283185307179586
  0
ELLIPSE
  5
DB
330
17
100
AcDbEntity
  8
visible
100
AcDbEllipse
 10
76.39854250056605
 20
-19.106375941591622
 30
0.0
 11
3.2
 21
0.0
 31
0.0
 40
0.3945686647862854
 41
0.0
 42
3.141592653589793
  0
ELLIPSE
  5
DC
330
17
100
AcDbEntity
  8
visible
100
AcDbEllipse
 10
76.39854250056605
 20
-19.106375941591622
 30
0.0
 11
3.2
 21
0.0
 31
0.0
 40
0.3945686647862854
 41
3.141592653589793
 42
5.696722743431048
  0
ELLIPSE
  5
DD
330
17
100
AcDbEntity
  8
visible
100
AcDbEllipse
 10
-78.06434958058979
 20
-26.400224128472274
 30
0.0
 11
1.65
 21
0.0
 31
0.0
 40
0.3945686647862854
 41
1.1739484155359579
 42
1.9676442380538268
  0
ELLIPSE
  5
DE
330
17
100
AcDbEntity
  8
visible
100
AcDbEllipse
 10
22.716982109033847
 20
-52.82196077266893
 30
0.0
 11
1.65
 21
0.0
 31
0.0
 40
0.3945686647862854
 41
1.173948415535957
 42
1.9676442380538361
  0
ELLIPSE
  5
DF
330
17
100
AcDbEntity
  8
visible
100
AcDbEllipse
 10
76.39854250056605
 20
-20.944108858822815
 30
0.0
 11
1.65
 21
0.0
 31
0.0
 40
0.3945686647862854
 41
1.1739484155359579
 42
1.9676442380538268
  0
ELLIPSE
  5
E0
330
17
100
AcDbEntity
  8
visible
100
AcDbEllipse
 10
-78.06434958058979
 20
-26.400224128472274
 30
0.0
 11
3.2
 21
0.0
 31
0.0
 40
0.3945686647862854
 41
0.8150297487601313
 42
2.3265629048296588
  0
ELLIPSE
  5
E1
330
17
100
AcDbEntity
  8
visible
100
AcDbEllipse
 10
22.716982109033847
 20
-52.82196077266893
 30
0.0
 11
3.2
 21
0.0
 31
0.0
 40
0.3945686647862854
 41
0.8150297487601322
 42
2.326562904829661
  0
ELLIPSE
  5
E2
330
17
100
AcDbEntity
  8
visible
100
AcDbEllipse
 10
76.39854250056605
 20
-20.944108858822815
 30
0.0
 11
3.2
 21
0.0
 31
0.0
 40
0.3945686647862854
 41
0.8150297487601313
 42
2.3265629048296588
  0
LINE
  5
E3
330
17
100
AcDbEntity
  8
visible
100
AcDbLine
 10
26.412297606072542
 20
-22.64731061414725
 30
0.0
 11
23.080683335341178
 21
-21.773864774669676
 31
0.0
  0
ELLIPSE
  5
E4
330
17
100
AcDbEntity
  8
visible
100
AcDbEllipse
 10
26.855032124765593
 20
-22.38440049527017
 30
0.0
 11
0.20287883060718082
 21
0.7738476465632385
 31
0.0
 40
0.5085173741229534
 41
-4.236374510758337
 42
-3.170938694247619
  0
ELLIPSE
  5
E5
330
17
100
AcDbEntity
  8
visible
100
AcDbEllipse
 10
23.52341785403423
 20
-21.510954655792588
 30
0.0
 11
-0.20287883060718082
 21
-0.7738476465632385
 31
0.0
 40
0.5085173741229534
 41
5.188403450011043
 42
6.253839266521724
  0
ELLIPSE
  5
E6
330
17
100
AcDbEntity
  8
visible
100
AcDbEllipse
 10
29.1793883479041
 20
-21.004122371165494
 30
0.0
 11
-5.0
 21
-0.0
 31
0.0
 40
0.3945686647862854
 41
-5.298851544133228
 42
-3.728055217338332
  0
ELLIPSE
  5
E7
330
17
100
AcDbEntity
  8
visible
100
AcDbEllipse
 10
32.67758333217203
 20
-21.921240502616946
 30
0.0
 11
-0.408472928236891
 21
0.687858900427682
 31
0.0
 40
0.7653271516050272
 41
3.141592653589793
 42
4.052504559671332
  0
ELLIPSE
  5
E8
330
17
100
AcDbEntity
  8
visible
100
AcDbEllipse
 10
25.847774077172737
 20
-20.13067653168791
 30
0.0
 11
-5.0
 21
-0.0
 31
0.0
 40
0.3945686647862854
 41
-6.283185307179586
 42
-5.298851544133228
  0
LINE
  5
E9
330
17
100
AcDbEntity
  8
visible
100
AcDbLine
 10
37.370211449693414
 20
-19.7049789975127
 30
0.0
 11
33.3439061863183
 21
-22.09592967051246
 31
0.0
  0
SPLINE
  5
EA
330
17
100
AcDbEntity
  8
visible
100
AcDbSpline
 70
0
 71
1
 72
4
 73
2
 74
0
 40
0.0
 40
0.0
 40
1.0
 40
1.0
 10
21.161865287142113
 20
-13.327129979086639
 30
0.0
 10
21.16210733670234
 20
-13.324509827680377
 30
0.0
  0
SPLINE
  5
EB
330
17
100
AcDbEntity
  8
visible
100
AcDbSpline
 70
0
 71
2
 72
6
 73
3
 74
0
 40
0.0
 40
0.0
 40
0.0
 40
1.0
 40
1.0
 40
1.0
 10
21.16210733670234
 20
-13.324509827680377
 30
0.0
 10
21.169524496728563
 20
-13.311454090954157
 30
0.0
 10
21.335242805711296
 20
-13.289535736200492
 30
0.0
  0
SPLINE
  5
EC
330
17
100
AcDbEntity
  8
visible
100
AcDbSpline
 70
0
 71
2
 72
6
 73
3
 74
0
 40
0.0
 40
0.0
 40
0.0
 40
1.0
 40
1.0
 40
1.0
 10
21.33524280571125
 20
-13.289535736200456
 30
0.0
 10
21.48338406409085
 20
-13.271373227419684
 30
0.0
 10
21.67659048720492
 20
-13.32104597688251
 30
0.0
  0
SPLINE
  5
ED
330
17
100
AcDbEntity
  8
visible
100
AcDbSpline
 70
0
 71
3
 72
8
 73
4
 74
0
 40
0.0
 40
0.0
 40
0.0
 40
0.0
 40
0.7218449618728551
 40
0.7218449618728551
 40
0.7218449618728551
 40
0.7218449618728551
 10
24.963231738754754
 20
-14.182701286814677
 30
0.0
 10
25.22881174589926
 20
-14.25431096780799
 30
0.0
 10
25.612780258138798
 20
-14.236261797325417
 30
0.0
 10
25.89079950307399
 20
-14.152801713581825
 30
0.0
  0
LINE
  5
EE
330
17
100
AcDbEntity
  8
visible
100
AcDbLine
 10
24.96323173875475
 20
-14.18270128681468
 30
0.0
 11
21.676590487204923
 21
-13.32104597688248
 31
0.0
  0
ELLIPSE
  5
EF
330
17
100
AcDbEntity
  8
visible
100
AcDbEllipse
 10
-0.8329035400118698
 20
-7.408230176151484
 30
0.0
 11
58.0
 21
0.0
 31
0.0
 40
0.3945686647862854
 41
3.141592653589793
 42
5.613606783643974
  0
LINE
  5
F0
330
17
100
AcDbEntity
  8
visible
100
AcDbLine
 10
47.47550338559285
 20
-22.354272847541765
 30
0.0
 11
47.47550338559285
 21
-33.02921191505625
 31
0.0
  0
ELLIPSE
  5
F1
330
17
100
AcDbEntity
  8
visible
100
AcDbEllipse
 10
-0.8329035400118698
 20
-20.364247242631407
 30
0.0
 11
58.0
 21
0.0
 31
0.0
 40
0.3945686647862854
 41
5.696722743431048
 42
6.218889481372945
  0
ELLIPSE
  5
F2
330
17
100
AcDbEntity
  8
visible
100
AcDbEllipse
 10
-0.8329035400118698
 20
-20.364247242631407
 30
0.0
 11
58.0
 21
0.0
 31
0.0
 40
0.3945686647862854
 41
3.141592653589793
 42
5.696722743431048
  0
ELLIPSE
  5
F3
330
17
100
AcDbEntity
  8
visible
100
AcDbEllipse
 10
-5.260248726942361
 20
-9.30223819802982
 30
0.0
 11
2.25
 21
0.0
 31
0.0
 40
0.3945686647862854
 41
5.696722743431048
 42
6.283185307179586
  0
ELLIPSE
  5
F4
330
17
100
AcDbEntity
  8
visible
100
AcDbEllipse
 10
-5.260248726942361
 20
-9.30223819802982
 30
0.0
 11
2.25
 21
0.0
 31
0.0
 40
0.3945686647862854
 41
0.0
 42
3.141592653589793
  0
ELLIPSE
  5
F5
330
17
100
AcDbEntity
  8
visible
100
AcDbEllipse
 10
-5.260248726942361
 20
-9.30223819802982
 30
0.0
 11
2.25
 21
0.0
 31
0.0
 40
0.3945686647862854
 41
3.141592653589793
 42
5.696722743431048
  0
LINE
  5
F6
330
17
100
AcDbEntity
  8
visible
100
AcDbLine
 10
26.640694197554424
 20
-23.154887830296126
 30
0.0
 11
23.309079926823063
 21
-22.28144199081855
 31
0.0
  0
ELLIPSE
  5
F7
330
17
100
AcDbEntity
  8
visible
100
AcDbEllipse
 10
29.1793883479041
 20
-21.6473288921964
 30
0.0
 11
-4.587298334620749
 21
-0.0
 31
0.0
 40
0.3945686647862854
 41
-4.030064168251515
 42
-3.728055217338332
  0
ELLIPSE
  5
F8
330
17
100
AcDbEntity
  8
visible
100
AcDbEllipse
 10
29.1793883479041
 20
-21.6473288921964
 30
0.0
 11
-4.587298334620749
 21
-0.0
 31
0.0
 40
0.3945686647862854
 41
-5.298851544133228
 42
-4.030064168251515
  0
ELLIPSE
  5
F9
330
17
100
AcDbEntity
  8
visible
100
AcDbEllipse
 10
25.847774077172737
 20
-20.77388305271883
 30
0.0
 11
-4.587298334620749
 21
-0.0
 31
0.0
 40
0.3945686647862854
 41
-5.394713792517864
 42
-5.298851544133228
  0
LINE
  5
FA
330
17
100
AcDbEntity
  8
visible
100
AcDbLine
 10
31.0484480449486
 20
-15.596675090464636
 30
0.0
 11
26.18573869288172
 21
-14.321823649988865
 31
0.0
  0
SPLINE
  5
FB
330
17
100
AcDbEntity
  8
visible
100
AcDbSpline
 70
0
 71
3
 72
11
 73
7
 74
0
 40
0.0
 40
0.0
 40
0.0
 40
0.0
 40
0.512213144857442
 40
0.512213144857442
 40
0.512213144857442
 40
1.0
 40
1.0
 40
1.0
 40
1.0
 10
32.28272115226454
 20
-16.394573491165545
 30
0.0
 10
32.13689165535058
 20
-16.216941635938703
 30
0.0
 10
31.90995896352353
 20
-16.0303195522587
 30
0.0
 10
31.682723281557372
 20
-15.887810908423555
 30
0.0
 10
31.46518407822999
 20
-15.750953647329728
 30
0.0
 10
31.241182291628757
 20
-15.647403096184327
 30
0.0
 10
31.048448044948614
 20
-15.596675090464622
 30
0.0
  0
SPLINE
  5
FC
330
17
100
AcDbEntity
  8
visible
100
AcDbSpline
 70
0
 71
3
 72
8
 73
4
 74
0
 40
0.0
 40
0.0
 40
0.0
 40
0.0
 40
0.9999996816477258
 40
0.9999996816477258
 40
0.9999996816477258
 40
0.9999996816477258
 10
33.3439061863183
 20
-17.63933509018628
 30
0.0
 10
33.02638584172388
 20
-17.27781829893594
 30
0.0
 10
32.66026360590587
 20
-16.854447195294025
 30
0.0
 10
32.28272115200058
 20
-16.394573491485033
 30
0.0
  0
ELLIPSE
  5
FD
330
17
100
AcDbEntity
  8
visible
100
AcDbEllipse
 10
40.53834211508035
 20
-1.9272505047100594
 30
0.0
 11
4.5647736886615675
 21
17.411572047672866
 31
0.0
 40
0.5085173741229534
 41
-3.4725880143605057
 42
-3.141592653589793
  0
SPLINE
  5
FE
330
17
100
AcDbEntity
  8
visible
100
AcDbSpline
 70
0
 71
3
 72
8
 73
4
 74
0
 40
0.0
 40
0.0
 40
0.0
 40
0.0
 40
0.42792738760603266
 40
0.42792738760603266
 40
0.42792738760603266
 40
0.42792738760603266
 10
26.18573869288172
 20
-14.321823649988858
 30
0.0
 10
26.02914241448862
 20
-14.281160016735999
 30
0.0
 10
25.920608117650264
 20
-14.21374731949494
 30
0.0
 10
25.882113780106767
 20
-14.13783594393492
 30
0.0
  0
ELLIPSE
  5
FF
330
17
100
AcDbEntity
  8
visible
100
AcDbEllipse
 10
51.93616471412382
 20
-11.461818806846146
 30
0.0
 11
-0.5705967110826956
 21
-2.1764465059591083
 31
0.0
 40
0.5085173741229536
 41
0.47601446962635297
 42
3.1415926535897936
  0
ELLIPSE
  5
100
330
17
100
AcDbEntity
  8
visible
100
AcDbEllipse
 10
51.93616471412382
 20
-11.461818806846146
 30
0.0
 11
-0.5705967110826956
 21
-2.1764465059591083
 31
0.0
 40
0.5085173741229536
 41
3.1415926535897936
 42
6.283185307179586
  0
ELLIPSE
  5
101
330
17
100
AcDbEntity
  8
visible
100
AcDbEllipse
 10
51.93616471412382
 20
-11.461818806846146
 30
0.0
 11
-0.5705967110826956
 21
-2.1764465059591083
 31
0.0
 40
0.5085173741229536
 41
0.0
 42
0.4760144696263531
  0
ELLIPSE
  5
102
330
17
100
AcDbEntity
  8
visible
100
AcDbEllipse
 10
63.00452768145004
 20
-4.889065834919116
 30
0.0
 11
-0.5705967110826956
 21
-2.1764465059591083
 31
0.0
 40
0.5085173741229536
 41
0.47601446962635297
 42
3.1415926535897936
  0
ELLIPSE
  5
103
330
17
100
AcDbEntity
  8
visible
100
AcDbEllipse
 10
63.00452768145004
 20
-4.889065834919116
 30
0.0
 11
-0.5705967110826956
 21
-2.1764465059591083
 31
0.0
 40
0.5085173741229536
 41
3.1415926535897936
 42
6.283185307179586
  0
ELLIPSE
  5
104
330
17
100
AcDbEntity
  8
visible
100
AcDbEllipse
 10
63.00452768145004
 20
-4.889065834919116
 30
0.0
 11
-0.5705967110826956
 21
-2.1764465059591083
 31
0.0
 40
0.5085173741229536
 41
0.0
 42
0.4760144696263531
  0
ELLIPSE
  5
105
330
17
100
AcDbEntity
  8
visible
100
AcDbEllipse
 10
51.93616471412382
 20
31.265471518779094
 30
0.0
 11
-0.5705967110826956
 21
-2.1764465059591083
 31
0.0
 40
0.5085173741229536
 41
1.8529486723913
 42
3.1415926535897936
  0
ELLIPSE
  5
106
330
17
100
AcDbEntity
  8
visible
100
AcDbEllipse
 10
51.93616471412382
 20
31.265471518779094
 30
0.0
 11
-0.5705967110826956
 21
-2.1764465059591083
 31
0.0
 40
0.5085173741229536
 41
3.1415926535897936
 42
6.283185307179587
  0
ELLIPSE
  5
107
330
17
100
AcDbEntity
  8
visible
100
AcDbEllipse
 10
51.93616471412382
 20
31.265471518779094
 30
0.0
 11
-0.5705967110826956
 21
-2.1764465059591083
 31
0.0
 40
0.5085173741229536
 41
8.881784197001252e-16
 42
0.4760144696263531
  0
ELLIPSE
  5
108
330
17
100
AcDbEntity
  8
visible
100
AcDbEllipse
 10
51.93616471412382
 20
31.265471518779094
 30
0.0
 11
-0.5705967110826956
 21
-2.1764465059591083
 31
0.0
 40
0.5085173741229536
 41
0.47601446962635297
 42
0.4885568192548111
  0
ELLIPSE
  5
109
330
17
100
AcDbEntity
  8
visible
100
AcDbEllipse
 10
57.47034619778693
 20
23.525450501355465
 30
0.0
 11
3.536789230920022
 21
13.490495851866335
 31
0.0
 40
0.5085173741229536
 41
-3.489540987621531
 42
-3.28852829578694
  0
ELLIPSE
  5
10A
330
17
100
AcDbEntity
  8
visible
100
AcDbEllipse
 10
57.47034619778693
 20
23.525450501355465
 30
0.0
 11
3.536789230920022
 21
13.490495851866335
 31
0.0
 40
0.5085173741229536
 41
-5.010536763295672
 42
-3.489540987621531
  0
ELLIPSE
  5
10B
330
17
100
AcDbEntity
  8
visible
100
AcDbEllipse
 10
63.00452768145004
 20
37.83822449070614
 30
0.0
 11
-0.5705967110826956
 21
-2.1764465059591083
 31
0.0
 40
0.5085173741229536
 41
0.7553197838305522
 42
3.1415926535897936
  0
ELLIPSE
  5
10C
330
17
100
AcDbEntity
  8
visible
100
AcDbEllipse
 10
63.00452768145004
 20
37.83822449070614
 30
0.0
 11
-0.5705967110826956
 21
-2.1764465059591083
 31
0.0
 40
0.5085173741229536
 41
3.1415926535897936
 42
5.300534732496713
  0
ELLIPSE
  5
10D
330
17
100
AcDbEntity
  8
visible
100
AcDbEllipse
 10
57.47034619778693
 20
23.525450501355465
 30
0.0
 11
3.536789230920022
 21
13.490495851866335
 31
0.0
 40
0.5085173741229536
 41
-5.935236973147847
 42
-5.214328359417387
  0
ELLIPSE
  5
10E
330
17
100
AcDbEntity
  8
visible
100
AcDbEllipse
 10
57.47034619778693
 20
23.525450501355465
 30
0.0
 11
3.536789230920022
 21
13.490495851866335
 31
0.0
 40
0.5085173741229536
 41
-6.136249664982468
 42
-5.935236973147847
  0
ELLIPSE
  5
10F
330
17
100
AcDbEntity
  8
visible
100
AcDbEllipse
 10
50.43693829229471
 20
-11.068768179081239
 30
0.0
 11
-0.5705967110826956
 21
-2.1764465059591083
 31
0.0
 40
0.5085173741229536
 41
0.7440914757046185
 42
2.3975011778851707
  0
ELLIPSE
  5
110
330
17
100
AcDbEntity
  8
visible
100
AcDbEllipse
 10
61.505301259620936
 20
-4.496015207154201
 30
0.0
 11
-0.5705967110826956
 21
-2.1764465059591083
 31
0.0
 40
0.5085173741229536
 41
0.7440914757046175
 42
2.397501177885167
  0
LINE
  5
111
330
17
100
AcDbEntity
  8
visible
100
AcDbLine
 10
51.969236212410785
 20
29.189351666671822
 30
0.0
 11
52.252085137590996
 21
29.1151974588844
 31
0.0
  0
SPLINE
  5
112
330
17
100
AcDbEntity
  8
visible
100
AcDbSpline
 70
0
 71
1
 72
4
 73
2
 74
0
 40
0.0
 40
0.0
 40
1.0
 40
1.0
 10
51.96923621241078
 20
29.189351666671826
 30
0.0
 10
51.95178192344969
 20
29.207458606055113
 30
0.0
  0
LINE
  5
113
330
17
100
AcDbEntity
  8
visible
100
AcDbLine
 10
50.921839695449215
 20
29.463946519401443
 30
0.0
 11
51.93616471412382
 21
29.198021986894005
 31
0.0
  0
ELLIPSE
  5
114
330
17
100
AcDbEntity
  8
visible
100
AcDbEllipse
 10
50.43693829229471
 20
31.658522146544016
 30
0.0
 11
-0.5705967110826956
 21
-2.1764465059591083
 31
0.0
 40
0.5085173741229536
 41
0.7440914757046208
 42
2.3975011778851676
  0
SPLINE
  5
115
330
17
100
AcDbEntity
  8
visible
100
AcDbSpline
 70
0
 71
2
 72
6
 73
3
 74
0
 40
0.0
 40
0.0
 40
0.0
 40
1.0
 40
1.0
 40
1.0
 10
53.33188482880195
 20
31.620811243216423
 30
0.0
 10
53.242724482498204
 20
31.644070207748122
 30
0.0
 10
53.15803003141637
 20
31.592760422361764
 30
0.0
  0
LINE
  5
116
330
17
100
AcDbEntity
  8
visible
100
AcDbLine
 10
53.33188482880195
 20
31.62081124321639
 30
0.0
 11
53.498465542338515
 21
31.57713895124251
 31
0.0
  0
ELLIPSE
  5
117
330
17
100
AcDbEntity
  8
visible
100
AcDbEllipse
 10
57.6369269113235
 20
23.481778209381574
 30
0.0
 11
-3.5503795356256616
 21
-13.542333814856674
 31
0.0
 40
0.5085173741229536
 41
4.417947348184607
 42
6.283185307179587
  0
SPLINE
  5
118
330
17
100
AcDbEntity
  8
visible
100
AcDbSpline
 70
0
 71
2
 72
6
 73
3
 74
0
 40
0.0
 40
0.0
 40
0.0
 40
1.0
 40
1.0
 40
1.0
 10
52.07712039117815
 20
29.139570549586466
 30
0.0
 10
52.00742824614815
 20
29.157714730210344
 30
0.0
 10
51.969236212410785
 20
29.189351666671826
 30
0.0
  0
ELLIPSE
  5
119
330
17
100
AcDbEntity
  8
visible
100
AcDbEllipse
 10
61.505301259620936
 20
38.231275118471046
 30
0.0
 11
-0.5705967110826956
 21
-2.1764465059591083
 31
0.0
 40
0.5085173741229536
 41
0.9744874824908359
 42
2.3975011778851703
  0
ELLIPSE
  5
11A
330
17
100
AcDbEntity
  8
visible
100
AcDbEllipse
 10
57.6369269113235
 20
23.481778209381574
 30
0.0
 11
-3.5503795356256616
 21
-13.542333814856674
 31
0.0
 40
0.5085173741229536
 41
3.1415926535897936
 42
4.206743450641091
  0
ELLIPSE
  5
11B
330
17
100
AcDbEntity
  8
visible
100
AcDbEllipse
 10
50.43693829229471
 20
-11.068768179081239
 30
0.0
 11
-0.29163831899782217
 21
-1.1124059919346554
 31
0.0
 40
0.5085173741229536
 41
0.9134933324999851
 42
2.228099321089814
  0
ELLIPSE
  5
11C
330
17
100
AcDbEntity
  8
visible
100
AcDbEllipse
 10
61.505301259620936
 20
-4.496015207154201
 30
0.0
 11
-0.29163831899782217
 21
-1.1124059919346554
 31
0.0
 40
0.5085173741229536
 41
0.9134933324999909
 42
2.2280993210898004
  0
ELLIPSE
  5
11D
330
17
100
AcDbEntity
  8
visible
100
AcDbEllipse
 10
57.803507624860075
 20
23.438105917407697
 30
0.0
 11
-3.5503795356256616
 21
-13.542333814856674
 31
0.0
 40
0.5085173741229536
 41
4.206743450641092
 42
4.417947348184605
  0
LINE
  5
11E
330
17
100
AcDbEntity
  8
visible
100
AcDbLine
 10
52.077120391178156
 20
29.13957054958649
 30
0.0
 11
52.243701104714724
 21
29.09589825761261
 31
0.0
  0
ELLIPSE
  5
11F
330
17
100
AcDbEntity
  8
visible
100
AcDbEllipse
 10
50.43693829229471
 20
31.658522146544016
 30
0.0
 11
-0.29163831899782217
 21
-1.1124059919346554
 31
0.0
 40
0.5085173741229536
 41
0.9134933324999823
 42
2.2280993210898004
  0
ELLIPSE
  5
120
330
17
100
AcDbEntity
  8
visible
100
AcDbEllipse
 10
61.505301259620936
 20
38.231275118471046
 30
0.0
 11
-0.29163831899782217
 21
-1.1124059919346554
 31
0.0
 40
0.5085173741229536
 41
0.9134933324999878
 42
2.2280993210898004
  0
LINE
  5
121
330
17
100
AcDbEntity
  8
visible
100
AcDbLine
 10
-45.371074804198614
 20
4.316775027191245
 30
0.0
 11
-42.236236150680064
 21
3.4949176461000704
 31
0.0
  0
LINE
  5
122
330
17
100
AcDbEntity
  8
visible
100
AcDbLine
 10
-42.27596399291013
 20
47.93121552325542
 30
0.0
 11
-42.27596399291013
 21
11.635990407939346
 31
0.0
  0
ELLIPSE
  5
123
330
17
100
AcDbEntity
  8
visible
100
AcDbEllipse
 10
-32.75717184100957
 20
17.288557963796606
 30
0.0
 11
-4.361894858054387
 21
-16.637724401109626
 31
0.0
 40
0.5085173741229534
 41
5.188403450011043
 42
5.497655500957978
  0
SPLINE
  5
124
330
17
100
AcDbEntity
  8
visible
100
AcDbSpline
 70
0
 71
3
 72
8
 73
4
 74
0
 40
0.0
 40
0.0
 40
0.0
 40
0.0
 40
0.41977350341243874
 40
0.41977350341243874
 40
0.41977350341243874
 40
0.41977350341243874
 10
-45.37107480419862
 20
4.316775027191255
 30
0.0
 10
-45.5250446243614
 20
4.356764988803617
 30
0.0
 10
-45.63219319060972
 20
4.422833727688165
 30
0.0
 10
-45.671541310942175
 20
4.497453237527194
 30
0.0
  0
ELLIPSE
  5
125
330
17
100
AcDbEntity
  8
visible
100
AcDbEllipse
 10
-32.75717184100957
 20
53.58378307911268
 30
0.0
 11
-4.361894858054387
 21
-16.637724401109626
 31
0.0
 40
0.5085173741229535
 41
3.617607123216146
 42
5.188403450011043
  0
LINE
  5
126
330
17
100
AcDbEntity
  8
visible
100
AcDbLine
 10
-30.543499247544325
 20
70.70283676168634
 30
0.0
 11
-32.75717184100957
 21
69.38828616730093
 31
0.0
  0
LINE
  5
127
330
17
100
AcDbEntity
  8
visible
100
AcDbLine
 10
-39.95160776977162
 20
-2.7882345561442308
 30
0.0
 11
-39.95160776977162
 21
1.3805041057117728
 31
0.0
  0
ELLIPSE
  5
128
330
17
100
AcDbEntity
  8
visible
100
AcDbEllipse
 10
-30.543499247544325
 20
54.89833367349807
 30
0.0
 11
-4.361894858054387
 21
-16.637724401109626
 31
0.0
 40
0.5085173741229534
 41
2.3776977554968095
 42
3.617607123216146
  0
LINE
  5
129
330
17
100
AcDbEntity
  8
visible
100
AcDbLine
 10
-35.08159391003899
 20
0.10373765007769009
 30
0.0
 11
-39.95160776977162
 21
-2.7882345561442374
 31
0.0
  0
ELLIPSE
  5
12A
330
17
100
AcDbEntity
  8
visible
100
AcDbEllipse
 10
-37.18451702794006
 20
11.902857399178998
 30
0.0
 11
-0.22823868443307824
 21
-0.8705786023836434
 31
0.0
 40
0.5085173741229536
 41
0.47601446962635297
 42
3.1415926535897936
  0
ELLIPSE
  5
12B
330
17
100
AcDbEntity
  8
visible
100
AcDbEllipse
 10
-37.18451702794006
 20
11.902857399178998
 30
0.0
 11
-0.22823868443307824
 21
-0.8705786023836434
 31
0.0
 40
0.5085173741229536
 41
3.1415926535897936
 42
6.283185307179586
  0
ELLIPSE
  5
12C
330
17
100
AcDbEntity
  8
visible
100
AcDbEllipse
 10
-37.18451702794006
 20
11.902857399178998
 30
0.0
 11
-0.22823868443307824
 21
-0.8705786023836434
 31
0.0
 40
0.5085173741229536
 41
0.0
 42
0.4760144696263531
  0
ELLIPSE
  5
12D
330
17
100
AcDbEntity
  8
visible
100
AcDbEllipse
 10
-37.18451702794006
 20
54.630147724804246
 30
0.0
 11
-0.22823868443307824
 21
-0.8705786023836434
 31
0.0
 40
0.5085173741229536
 41
3.172906210232657
 42
6.283185307179586
  0
ELLIPSE
  5
12E
330
17
100
AcDbEntity
  8
visible
100
AcDbEllipse
 10
-37.18451702794006
 20
54.630147724804246
 30
0.0
 11
-0.22823868443307824
 21
-0.8705786023836434
 31
0.0
 40
0.5085173741229536
 41
0.0
 42
0.004778658849311057
  0
ELLIPSE
  5
12F
330
17
100
AcDbEntity
  8
visible
100
AcDbEllipse
 10
-40.61793062391789
 20
-2.613545388248724
 30
0.0
 11
0.408472928236891
 21
-0.687858900427682
 31
0.0
 40
0.7653271516050272
 41
-6.283185307179586
 42
-5.372273401098047
  0
LINE
  5
130
330
17
100
AcDbEntity
  8
visible
100
AcDbLine
 10
-51.63932318820193
 20
6.081491675045817
 30
0.0
 11
-46.776613836135056
 21
4.806640234570046
 31
0.0
  0
SPLINE
  5
131
330
17
100
AcDbEntity
  8
visible
100
AcDbSpline
 70
0
 71
2
 72
6
 73
3
 74
0
 40
0.0
 40
0.0
 40
0.0
 40
1.0
 40
1.0
 40
1.0
 10
-52.26494772084636
 20
5.773049162979593
 30
0.0
 10
-52.3014252636722
 20
5.892440701868125
 30
0.0
 10
-52.255702779057046
 20
5.973911030839606
 30
0.0
  0
SPLINE
  5
132
330
17
100
AcDbEntity
  8
visible
100
AcDbSpline
 70
0
 71
3
 72
8
 73
4
 74
0
 40
0.0
 40
0.0
 40
0.0
 40
0.0
 40
1.0
 40
1.0
 40
1.0
 40
1.0
 10
-52.25570277905707
 20
5.9739110308396075
 30
0.0
 10
-52.173627075358006
 20
6.120811205882377
 30
0.0
 10
-51.92620119869725
 20
6.156440188132074
 30
0.0
 10
-51.63932318820193
 20
6.081491675045825
 30
0.0
  0
SPLINE
  5
133
330
17
100
AcDbEntity
  8
visible
100
AcDbSpline
 70
0
 71
3
 72
8
 73
4
 74
0
 40
0.0
 40
0.0
 40
0.0
 40
0.0
 40
0.7289805418745422
 40
0.7289805418745422
 40
0.7289805418745422
 40
0.7289805418745422
 10
-46.776613836135056
 20
4.80664023457004
 30
0.0
 10
-46.50953691566413
 20
4.734598881842357
 30
0.0
 10
-46.12358139337356
 20
4.752106900597588
 30
0.0
 10
-45.84617713794517
 20
4.8360463877022415
 30
0.0
  0
LINE
  5
134
330
17
100
AcDbEntity
  8
visible
100
AcDbLine
 10
-47.27338539900717
 20
49.241384282471785
 30
0.0
 11
-47.27338539900717
 21
49.517044220056455
 31
0.0
  0
ELLIPSE
  5
135
330
17
100
AcDbEntity
  8
visible
100
AcDbEllipse
 10
-41.06862399958231
 20
6.666731979808532
 30
0.0
 11
0.408472928236891
 21
-0.687858900427682
 31
0.0
 40
0.7653271516050272
 41
-3.8014770743031505
 42
-3.141592653589793
  0
LINE
  5
136
330
17
100
AcDbEntity
  8
visible
100
AcDbLine
 10
-41.06862399958231
 20
7.4018251467010145
 30
0.0
 11
-34.574609364974094
 21
11.258181693315947
 31
0.0
  0
ELLIPSE
  5
137
330
17
100
AcDbEntity
  8
visible
100
AcDbEllipse
 10
-39.236236150680064
 20
6.921429934988339
 30
0.0
 11
-2.2
 21
-0.0
 31
0.0
 40
0.3945686647862854
 41
-6.869647870928125
 42
-5.298851544133228
  0
LINE
  5
138
330
17
100
AcDbEntity
  8
visible
100
AcDbLine
 10
7.021747280835934
 20
-6.248176104479079
 30
0.0
 11
-40.45375607708595
 21
6.1984271080763715
 31
0.0
  0
ELLIPSE
  5
139
330
17
100
AcDbEntity
  8
visible
100
AcDbEllipse
 10
8.239267207241818
 20
-5.525173277567106
 30
0.0
 11
-2.2
 21
-0.0
 31
0.0
 40
0.3945686647862854
 41
-5.298851544133228
 42
-3.728055217338332
  0
LINE
  5
13A
330
17
100
AcDbEntity
  8
visible
100
AcDbLine
 10
19.225222869766302
 20
-0.5698829928494948
 30
0.0
 11
10.071655056144063
 21
-6.005568489279778
 31
0.0
  0
LINE
  5
13B
330
17
100
AcDbEntity
  8
visible
100
AcDbLine
 10
19.225222869766306
 20
0.8323209777818255
 30
0.0
 11
14.428269531748514
 21
2.08993323261826
 31
0.0
  0
ELLIPSE
  5
13C
330
17
100
AcDbEntity
  8
visible
100
AcDbEllipse
 10
14.033499694287851
 20
9.544361298202887
 30
0.0
 11
4.084729282368911
 21
-6.87858900427682
 31
0.0
 40
0.7653271516050272
 41
-6.283185307179586
 42
-6.049744630947879
  0
ELLIPSE
  5
13D
330
17
100
AcDbEntity
  8
visible
100
AcDbEllipse
 10
14.033499694287851
 20
9.544361298202887
 30
0.0
 11
4.084729282368911
 21
-6.87858900427682
 31
0.0
 40
0.7653271516050272
 41
-0.5981435557396636
 42
-0.0
  0
ELLIPSE
  5
13E
330
17
100
AcDbEntity
  8
visible
100
AcDbEllipse
 10
-33.29855916138697
 20
10.17144789112406
 30
0.0
 11
0.408472928236891
 21
-0.687858900427682
 31
0.0
 40
0.7653271516050272
 41
-3.8014770743031505
 42
-3.141592653589793
  0
LINE
  5
13F
330
17
100
AcDbEntity
  8
visible
100
AcDbLine
 10
-33.29855916138697
 20
10.906541058016543
 30
0.0
 11
-33.28219043602466
 21
10.916261338114815
 31
0.0
  0
LINE
  5
140
330
17
100
AcDbEntity
  8
visible
100
AcDbLine
 10
4.531631536776274
 20
1.0026510600443395
 30
0.0
 11
4.515262811413969
 21
0.9929307799460645
 31
0.0
  0
ELLIPSE
  5
141
330
17
100
AcDbEntity
  8
visible
100
AcDbEllipse
 10
-32.29907488016756
 20
10.644507306173267
 30
0.0
 11
-1.2
 21
-0.0
 31
0.0
 40
0.3945686647862854
 41
-6.869647870928125
 42
-5.298851544133228
  0
LINE
  5
142
330
17
100
AcDbEntity
  8
visible
100
AcDbLine
 10
2.8516767521549866
 20
0.8605993534737166
 30
0.0
 11
-32.96317665820713
 21
10.250142127857654
 31
0.0
  0
ELLIPSE
  5
143
330
17
100
AcDbEntity
  8
visible
100
AcDbEllipse
 10
3.5157785301945594
 20
1.2549645317893408
 30
0.0
 11
-1.2
 21
-0.0
 31
0.0
 40
0.3945686647862854
 41
-5.298851544133228
 42
-3.728055217338332
  0
LINE
  5
144
330
17
100
AcDbEntity
  8
visible
100
AcDbLine
 10
78.50578852597351
 20
-44.431470158452335
 30
0.0
 11
80.1715956613392
 21
-44.86819307819112
 31
0.0
  0
LINE
  5
145
330
17
100
AcDbEntity
  8
visible
100
AcDbLine
 10
80.17159566133918
 20
-55.894590581578285
 30
0.0
 11
80.17159566133918
 21
-44.868193078191126
 31
0.0
  0
LINE
  5
146
330
17
100
AcDbEntity
  8
visible
100
AcDbLine
 10
61.90324407498417
 20
-65.31699711973005
 30
0.0
 11
61.90324407498417
 21
-54.29059961634289
 31
0.0
  0
LINE
  5
147
330
17
100
AcDbEntity
  8
visible
100
AcDbLine
 10
61.90324407498417
 20
-54.29059961634289
 30
0.0
 11
63.569051210349855
 21
-54.72732253608167
 31
0.0
  0
LINE
  5
148
330
17
100
AcDbEntity
  8
visible
100
AcDbLine
 10
63.56905121034984
 20
-65.75372003946883
 30
0.0
 11
63.56905121034984
 21
-54.72732253608167
 31
0.0
  0
LINE
  5
149
330
17
100
AcDbEntity
  8
visible
100
AcDbLine
 10
61.90324407498417
 20
-65.31699711973005
 30
0.0
 11
63.569051210349855
 21
-65.75372003946883
 31
0.0
  0
LINE
  5
14A
330
17
100
AcDbEntity
  8
visible
100
AcDbLine
 10
78.50578852597351
 20
-44.431470158452335
 30
0.0
 11
61.90324407498418
 21
-54.29059961634289
 31
0.0
  0
LINE
  5
14B
330
17
100
AcDbEntity
  8
visible
100
AcDbLine
 10
80.17159566133918
 20
-55.894590581578285
 30
0.0
 11
63.56905121034985
 21
-65.75372003946883
 31
0.0
  0
LINE
  5
14C
330
17
100
AcDbEntity
  8
visible
100
AcDbLine
 10
80.17159566133918
 20
-44.868193078191126
 30
0.0
 11
63.56905121034985
 21
-54.72732253608168
 31
0.0
  0
ELLIPSE
  5
14D
330
17
100
AcDbEntity
  8
visible
100
AcDbEllipse
 10
-16.051902620085436
 20
27.935484438582165
 30
0.0
 11
5.87179834340531
 21
-9.887971693647929
 31
0.0
 40
0.7653271516050273
 41
-6.283185307179586
 42
-5.372273401098047
  0
ELLIPSE
  5
14E
330
17
100
AcDbEntity
  8
visible
100
AcDbEllipse
 10
-16.051902620085436
 20
27.935484438582165
 30
0.0
 11
5.87179834340531
 21
-9.887971693647929
 31
0.0
 40
0.7653271516050273
 41
-5.372273401098047
 42
-3.141592653589793
  0
ELLIPSE
  5
14F
330
17
100
AcDbEntity
  8
visible
100
AcDbEllipse
 10
-17.158738916818056
 20
27.278209141389453
 30
0.0
 11
5.87179834340531
 21
-9.887971693647929
 31
0.0
 40
0.7653271516050273
 41
-6.283185307179586
 42
-5.372273401098047
  0
ELLIPSE
  5
150
330
17
100
AcDbEntity
  8
visible
100
AcDbEllipse
 10
-17.158738916818056
 20
27.278209141389453
 30
0.0
 11
5.87179834340531
 21
-9.887971693647929
 31
0.0
 40
0.7653271516050273
 41
-3.141592653589793
 42
-0.0
  0
ELLIPSE
  5
151
330
17
100
AcDbEntity
  8
visible
100
AcDbEllipse
 10
-17.158738916818056
 20
27.278209141389453
 30
0.0
 11
5.87179834340531
 21
-9.887971693647929
 31
0.0
 40
0.7653271516050273
 41
-5.372273401098047
 42
-3.141592653589793
  0
ELLIPSE
  5
152
330
17
100
AcDbEntity
  8
visible
100
AcDbEllipse
 10
-63.507971562073706
 20
-63.099622241801804
 30
0.0
 11
-22.0
 21
-0.0
 31
0.0
 40
0.3945686647862854
 41
-6.283185307179586
 42
-5.298851544133228
  0
LINE
  5
153
330
17
100
AcDbEntity
  8
visible
100
AcDbLine
 10
-75.68317082613255
 20
-70.32965051092154
 30
0.0
 11
-75.68317082613255
 21
-40.742150543499335
 31
0.0
  0
ELLIPSE
  5
154
330
17
100
AcDbEntity
  8
visible
100
AcDbEllipse
 10
-75.24043630743951
 20
-70.06674039204447
 30
0.0
 11
-0.20287883060718082
 21
-0.7738476465632385
 31
0.0
 40
0.5085173741229534
 41
5.188403450011043
 42
6.283185307179586
  0
LINE
  5
155
330
17
100
AcDbEntity
  8
visible
100
AcDbLine
 10
7.607185942151446
 20
-92.16579649786092
 30
0.0
 11
-75.68317082613255
 21
-70.32965051092154
 31
0.0
  0
LINE
  5
156
330
17
100
AcDbEntity
  8
visible
100
AcDbLine
 10
7.607185942151446
 20
-92.16579649786092
 30
0.0
 11
7.607185942151446
 21
-62.57829653043872
 31
0.0
  0
LINE
  5
157
330
17
100
AcDbEntity
  8
visible
100
AcDbLine
 10
80.16604297107244
 20
-64.76325905254512
 30
0.0
 11
80.16604297107244
 21
-55.89788794918004
 31
0.0
  0
LINE
  5
158
330
17
100
AcDbEntity
  8
visible
100
AcDbLine
 10
80.16604297107244
 20
-44.866737335173696
 30
0.0
 11
80.16604297107244
 21
-35.17575908512292
 31
0.0
  0
ELLIPSE
  5
159
330
17
100
AcDbEntity
  8
visible
100
AcDbEllipse
 10
61.84216448204997
 20
-59.95930693541846
 30
0.0
 11
-22.0
 21
-0.0
 31
0.0
 40
0.3945686647862854
 41
-3.728055217338332
 42
-3.141592653589793
  0
LINE
  5
15A
330
17
100
AcDbEntity
  8
visible
100
AcDbLine
 10
38.106263695232784
 20
-89.73972034586785
 30
0.0
 11
38.106263695232784
 21
-60.15222037844565
 31
0.0
  0
LINE
  5
15B
330
17
100
AcDbEntity
  8
visible
100
AcDbLine
 10
80.16604297107244
 20
-64.76325905254512
 30
0.0
 11
38.10626369523277
 21
-89.73972034586785
 31
0.0
  0
ELLIPSE
  5
15C
330
17
100
AcDbEntity
  8
visible
100
AcDbEllipse
 10
19.782385206210297
 20
-84.93576822874118
 30
0.0
 11
-22.0
 21
-0.0
 31
0.0
 40
0.3945686647862854
 41
-5.298851544133228
 42
-3.728055217338332
  0
ELLIPSE
  5
15D
330
17
100
AcDbEntity
  8
visible
100
AcDbEllipse
 10
-75.07441086292962
 20
-40.288762484181774
 30
0.0
 11
-0.126799269129488
 21
-0.48365477910202403
 31
0.0
 40
0.5085173741229534
 41
5.188403450011043
 42
5.389761370801375
  0
ELLIPSE
  5
15E
330
17
100
AcDbEntity
  8
visible
100
AcDbEllipse
 10
-63.50797156207372
 20
-33.42023562851803
 30
0.0
 11
-21.4
 21
-6.464152789616003e-16
 31
0.0
 40
0.3945686647862854
 41
-6.10458322586447
 42
-5.298851544133228
  0
LINE
  5
15F
330
17
100
AcDbEntity
  8
visible
100
AcDbLine
 10
7.939236831171243
 20
-62.289227295419344
 30
0.0
 11
-75.35111993711278
 21
-40.45308130847995
 31
0.0
  0
ELLIPSE
  5
160
330
17
100
AcDbEntity
  8
visible
100
AcDbEllipse
 10
8.215945905354403
 20
-62.12490847112117
 30
0.0
 11
-0.126799269129488
 21
-0.48365477910202403
 31
0.0
 40
0.5085173741229534
 41
5.188403450011043
 42
5.389761370801375
  0
ELLIPSE
  5
161
330
17
100
AcDbEntity
  8
visible
100
AcDbEllipse
 10
37.19006977078166
 20
-59.820136126727746
 30
0.0
 11
0.25529558014805687
 21
-0.4299118127673013
 31
0.0
 40
0.7653271516050272
 41
-5.573631321888382
 42
-5.372273401098047
  0
ELLIPSE
  5
162
330
17
100
AcDbEntity
  8
visible
100
AcDbEllipse
 10
19.78238520621031
 20
-55.256381615457414
 30
0.0
 11
-21.4
 21
-0.0
 31
0.0
 40
0.3945686647862854
 41
-5.298851544133228
 42
-3.728055217338332
  0
LINE
  5
163
330
17
100
AcDbEntity
  8
visible
100
AcDbLine
 10
79.66630083046275
 20
-34.95285556333971
 30
0.0
 11
37.60652155462307
 21
-59.92931685666244
 31
0.0
  0
ELLIPSE
  5
164
330
17
100
AcDbEntity
  8
visible
100
AcDbEllipse
 10
79.24984904662134
 20
-34.84367483340502
 30
0.0
 11
0.25529558014805687
 21
-0.4299118127673013
 31
0.0
 40
0.7653271516050272
 41
-5.573631321888382
 42
-5.372273401098047
  0
ELLIPSE
  5
165
330
17
100
AcDbEntity
  8
visible
100
AcDbEllipse
 10
61.84216448204998
 20
-30.279920322134686
 30
0.0
 11
-21.4
 21
-0.0
 31
0.0
 40
0.3945686647862854
 41
-3.728055217338332
 42
-3.320194734904909
  0
ELLIPSE
  5
166
330
17
100
AcDbEntity
  8
visible
100
AcDbEllipse
 10
8.04992046084449
 20
-91.90288637898385
 30
0.0
 11
-0.20287883060718082
 21
-0.7738476465632385
 31
0.0
 40
0.5085173741229534
 41
5.188403450011043
 42
6.283185307179586
  0
LINE
  5
167
330
17
100
AcDbEntity
  8
visible
100
AcDbLine
 10
-39.18468194689169
 20
-57.451871061379805
 30
0.0
 11
-39.51673283591148
 21
-57.64905365053762
 31
0.0
  0
LINE
  5
168
330
17
100
AcDbEntity
  8
visible
100
AcDbLine
 10
-39.88358076577009
 20
-57.12103061525184
 30
0.0
 11
-40.21563165478988
 21
-57.31821320440965
 31
0.0
  0
LINE
  5
169
330
17
100
AcDbEntity
  8
visible
100
AcDbLine
 10
-41.43795451366258
 20
-56.843859329415416
 30
0.0
 11
-41.77000540268237
 21
-57.04104191857323
 31
0.0
  0
LINE
  5
16A
330
17
100
AcDbEntity
  8
visible
100
AcDbLine
 10
-41.993087995052754
 20
-58.48064332068921
 30
0.0
 11
-42.325138884072544
 21
-58.67782590984702
 31
0.0
  0
LINE
  5
16B
330
17
100
AcDbEntity
  8
visible
100
AcDbLine
 10
-41.43795451366258
 20
-60.40536418707684
 30
0.0
 11
-41.77000540268237
 21
-60.602546776234654
 31
0.0
  0
LINE
  5
16C
330
17
100
AcDbEntity
  8
visible
100
AcDbLine
 10
-39.917742826163334
 20
-61.45560279456266
 30
0.0
 11
-40.249793715183124
 21
-61.65278538372047
 31
0.0
  0
LINE
  5
16D
330
17
100
AcDbEntity
  8
visible
100
AcDbLine
 10
-39.20460981545442
 20
-61.529500486120206
 30
0.0
 11
-39.53666070447421
 21
-61.72668307527802
 31
0.0
  0
ELLIPSE
  5
16E
330
17
100
AcDbEntity
  8
visible
100
AcDbEllipse
 10
79.49972011692617
 20
-64.58856988464962
 30
0.0
 11
0.408472928236891
 21
-0.687858900427682
 31
0.0
 40
0.7653271516050272
 41
-6.283185307179586
 42
-5.372273401098047
  0
ELLIPSE
  5
16F
330
17
100
AcDbEntity
  8
visible
100
AcDbEllipse
 10
37.43994084108651
 20
-89.56503117797234
 30
0.0
 11
0.408472928236891
 21
-0.687858900427682
 31
0.0
 40
0.7653271516050272
 41
-6.283185307179586
 42
-5.372273401098047
  0
LINE
  5
170
330
17
100
AcDbEntity
  8
visible
100
AcDbLine
 10
-75.35111993711278
 20
-40.45308130847995
 30
0.0
 11
-75.35111993711278
 21
-39.72656422850488
 31
0.0
  0
LINE
  5
171
330
17
100
AcDbEntity
  8
visible
100
AcDbLine
 10
7.939236831171243
 20
-62.289227295419344
 30
0.0
 11
7.939236831171243
 21
-61.56101920098585
 31
0.0
  0
LINE
  5
172
330
17
100
AcDbEntity
  8
visible
100
AcDbLine
 10
37.606521554623086
 20
-59.929316856662446
 30
0.0
 11
37.606521554623086
 21
-59.33388423939615
 31
0.0
  0
LINE
  5
173
330
17
100
AcDbEntity
  8
visible
100
AcDbLine
 10
79.66630083046275
 20
-34.95285556333972
 30
0.0
 11
79.66630083046275
 21
-34.36988242880143
 31
0.0
  0
ELLIPSE
  5
174
330
17
100
AcDbEntity
  8
visible
100
AcDbEllipse
 10
-75.24043630743951
 20
-34.78226838120554
 30
0.0
 11
0.20287883060718082
 21
0.7738476465632385
 31
0.0
 40
0.5085173741229534
 41
-5.6033187444675185
 42
-4.236374510758337
  0
ELLIPSE
  5
175
330
17
100
AcDbEntity
  8
visible
100
AcDbEllipse
 10
-63.507971562073706
 20
-27.815150230962885
 30
0.0
 11
-22.0
 21
-0.0
 31
0.0
 40
0.3945686647862854
 41
-6.283185307179586
 42
-5.298851544133228
  0
ELLIPSE
  5
176
330
17
100
AcDbEntity
  8
visible
100
AcDbEllipse
 10
8.04992046084449
 20
-56.618414368144926
 30
0.0
 11
0.20287883060718082
 21
0.7738476465632385
 31
0.0
 40
0.5085173741229534
 41
-5.603706924125621
 42
-4.236374510758337
  0
LINE
  5
177
330
17
100
AcDbEntity
  8
visible
100
AcDbLine
 10
7.607185942151446
 20
-56.88132448702201
 30
0.0
 11
-75.68317082613255
 21
-35.04517850008263
 31
0.0
  0
ELLIPSE
  5
178
330
17
100
AcDbEntity
  8
visible
100
AcDbEllipse
 10
37.43994084108651
 20
-54.28055916713342
 30
0.0
 11
-0.408472928236891
 21
0.687858900427682
 31
0.0
 40
0.7653271516050272
 41
4.052504559671332
 42
5.3344801906098525
  0
ELLIPSE
  5
179
330
17
100
AcDbEntity
  8
visible
100
AcDbEllipse
 10
19.782385206210297
 20
-49.65129621790227
 30
0.0
 11
-22.0
 21
-0.0
 31
0.0
 40
0.3945686647862854
 41
-5.298851544133228
 42
-3.728055217338332
  0
ELLIPSE
  5
17A
330
17
100
AcDbEntity
  8
visible
100
AcDbEllipse
 10
61.84216448204997
 20
-24.674834924579542
 30
0.0
 11
-22.0
 21
-0.0
 31
0.0
 40
0.3945686647862854
 41
-3.728055217338332
 42
-3.1415926535897936
  0
ELLIPSE
  5
17B
330
17
100
AcDbEntity
  8
visible
100
AcDbEllipse
 10
79.49972011692617
 20
-29.30409787381069
 30
0.0
 11
-0.408472928236891
 21
0.687858900427682
 31
0.0
 40
0.7653271516050272
 41
4.052504559671332
 42
5.331272574156789
  0
LINE
  5
17C
330
17
100
AcDbEntity
  8
visible
100
AcDbLine
 10
80.16604297107244
 20
-29.478787041706212
 30
0.0
 11
38.10626369523277
 21
-54.45524833502894
 31
0.0
  0
LINE
  5
17D
330
17
100
AcDbEntity
  8
visible
100
AcDbLine
 10
80.16604297107244
 20
-34.073119334784195
 30
0.0
 11
80.16604297107244
 21
-29.478787041706212
 31
0.0
  0
LINE
  5
17E
330
17
100
AcDbEntity
  8
visible
100
AcDbLine
 10
38.106263695232784
 20
-59.04958062810692
 30
0.0
 11
38.106263695232784
 21
-54.45524833502894
 31
0.0
  0
LINE
  5
17F
330
17
100
AcDbEntity
  8
visible
100
AcDbLine
 10
7.607185942151446
 20
-61.475656780099996
 30
0.0
 11
7.607185942151446
 21
-56.88132448702201
 31
0.0
  0
LINE
  5
180
330
17
100
AcDbEntity
  8
visible
100
AcDbLine
 10
-75.68317082613255
 20
-39.63951079316061
 30
0.0
 11
-75.68317082613255
 21
-35.04517850008263
 31
0.0
  0
ELLIPSE
  5
181
330
17
100
AcDbEntity
  8
visible
100
AcDbEllipse
 10
-63.507971562073706
 20
-26.34496389717794
 30
0.0
 11
-22.0
 21
-0.0
 31
0.0
 40
0.3945686647862854
 41
-6.283185307179586
 42
-5.298851544133228
  0
ELLIPSE
  5
182
330
17
100
AcDbEntity
  8
visible
100
AcDbEllipse
 10
-63.507971562073706
 20
-24.1396843965005
 30
0.0
 11
-22.0
 21
-0.0
 31
0.0
 40
0.3945686647862854
 41
-6.283185307179586
 42
-5.298851544133228
  0
LINE
  5
183
330
17
100
AcDbEntity
  8
visible
100
AcDbLine
 10
-75.68317082613255
 20
-33.57499216629767
 30
0.0
 11
-75.68317082613255
 21
-31.369712665620234
 31
0.0
  0
ELLIPSE
  5
184
330
17
100
AcDbEntity
  8
visible
100
AcDbEllipse
 10
-81.16552719694991
 20
-19.51042144726935
 30
0.0
 11
0.408472928236891
 21
-0.687858900427682
 31
0.0
 40
0.7653271516050272
 41
-3.8014770743031505
 42
-3.141592653589793
  0
LINE
  5
185
330
17
100
AcDbEntity
  8
visible
100
AcDbLine
 10
-81.16552719694991
 20
-18.77532828037687
 30
0.0
 11
-58.622196331763405
 21
-5.388367139086913
 31
0.0
  0
ELLIPSE
  5
186
330
17
100
AcDbEntity
  8
visible
100
AcDbEllipse
 10
-75.24043630743951
 20
-33.3120820474206
 30
0.0
 11
-0.20287883060718082
 21
-0.7738476465632385
 31
0.0
 40
0.5085173741229534
 41
5.188403450011043
 42
6.283185307179586
  0
ELLIPSE
  5
187
330
17
100
AcDbEntity
  8
visible
100
AcDbEllipse
 10
-75.24043630743951
 20
-31.106802546743157
 30
0.0
 11
0.20287883060718082
 21
0.7738476465632385
 31
0.0
 40
0.5085173741229534
 41
-5.807170837553233
 42
-4.236374510758337
  0
ELLIPSE
  5
188
330
17
100
AcDbEntity
  8
visible
100
AcDbEllipse
 10
-63.507971562073706
 20
-23.404591229608023
 30
0.0
 11
-21.2
 21
-0.0
 31
0.0
 40
0.3945686647862854
 41
-6.869647870928125
 42
-5.298851544133228
  0
LINE
  5
189
330
17
100
AcDbEntity
  8
visible
100
AcDbLine
 10
7.607185942151446
 20
-55.41113815323706
 30
0.0
 11
-75.68317082613255
 21
-33.574992166297676
 31
0.0
  0
LINE
  5
18A
330
17
100
AcDbEntity
  8
visible
100
AcDbLine
 10
7.607185942151446
 20
-53.20585865255963
 30
0.0
 11
-75.68317082613255
 21
-31.36971266562024
 31
0.0
  0
LINE
  5
18B
330
17
100
AcDbEntity
  8
visible
100
AcDbLine
 10
7.607185942151446
 20
-55.411138153237054
 30
0.0
 11
7.607185942151446
 21
-53.20585865255962
 31
0.0
  0
LINE
  5
18C
330
17
100
AcDbEntity
  8
visible
100
AcDbLine
 10
8.04992046084449
 20
-52.20785536679007
 30
0.0
 11
-75.24043630743951
 21
-30.371709379850685
 31
0.0
  0
LINE
  5
18D
330
17
100
AcDbEntity
  8
visible
100
AcDbLine
 10
65.73443272232578
 20
-11.241701630229272
 30
0.0
 11
73.57462922741577
 21
-13.297157772982018
 31
0.0
  0
ELLIPSE
  5
18E
330
17
100
AcDbEntity
  8
visible
100
AcDbEllipse
 10
19.782385206210297
 20
-45.24073721654741
 30
0.0
 11
-21.2
 21
-0.0
 31
0.0
 40
0.3945686647862854
 41
-5.298851544133228
 42
-3.728055217338332
  0
ELLIPSE
  5
18F
330
17
100
AcDbEntity
  8
visible
100
AcDbEllipse
 10
61.84216448204997
 20
-20.26427592322468
 30
0.0
 11
-21.2
 21
-0.0
 31
0.0
 40
0.3945686647862854
 41
-3.728055217338332
 42
-2.1572588905434356
  0
LINE
  5
190
330
17
100
AcDbEntity
  8
visible
100
AcDbLine
 10
79.49972011692617
 20
-24.893538872455835
 30
0.0
 11
37.4399408410865
 21
-49.87000016577856
 31
0.0
  0
ELLIPSE
  5
191
330
17
100
AcDbEntity
  8
visible
100
AcDbEllipse
 10
8.04992046084449
 20
-55.14822803435999
 30
0.0
 11
-0.20287883060718082
 21
-0.7738476465632385
 31
0.0
 40
0.5085173741229534
 41
5.188403450011043
 42
6.283185307179586
  0
ELLIPSE
  5
192
330
17
100
AcDbEntity
  8
visible
100
AcDbEllipse
 10
8.04992046084449
 20
-52.94294853368254
 30
0.0
 11
0.20287883060718082
 21
0.7738476465632385
 31
0.0
 40
0.5085173741229534
 41
-5.807170837553233
 42
-4.236374510758337
  0
LINE
  5
193
330
17
100
AcDbEntity
  8
visible
100
AcDbLine
 10
38.106263695232784
 20
-52.98506200124398
 30
0.0
 11
38.106263695232784
 21
-50.77978250056655
 31
0.0
  0
ELLIPSE
  5
194
330
17
100
AcDbEntity
  8
visible
100
AcDbEllipse
 10
19.782385206210297
 20
-48.181109884117326
 30
0.0
 11
-22.0
 21
-0.0
 31
0.0
 40
0.3945686647862854
 41
-5.298851544133228
 42
-3.728055217338332
  0
ELLIPSE
  5
195
330
17
100
AcDbEntity
  8
visible
100
AcDbEllipse
 10
19.782385206210297
 20
-45.975830383439884
 30
0.0
 11
-22.0
 21
-0.0
 31
0.0
 40
0.3945686647862854
 41
-5.298851544133228
 42
-3.728055217338332
  0
ELLIPSE
  5
196
330
17
100
AcDbEntity
  8
visible
100
AcDbEllipse
 10
37.43994084108651
 20
-52.81037283334848
 30
0.0
 11
0.408472928236891
 21
-0.687858900427682
 31
0.0
 40
0.7653271516050272
 41
-6.283185307179586
 42
-5.372273401098047
  0
ELLIPSE
  5
197
330
17
100
AcDbEntity
  8
visible
100
AcDbEllipse
 10
61.84216448204997
 20
-23.204648590794598
 30
0.0
 11
-22.0
 21
-0.0
 31
0.0
 40
0.3945686647862854
 41
-3.728055217338332
 42
-3.1415926535897936
  0
ELLIPSE
  5
198
330
17
100
AcDbEntity
  8
visible
100
AcDbEllipse
 10
79.49972011692617
 20
-27.833911540025753
 30
0.0
 11
0.408472928236891
 21
-0.687858900427682
 31
0.0
 40
0.7653271516050272
 41
-6.283185307179586
 42
-5.372273401098047
  0
LINE
  5
199
330
17
100
AcDbEntity
  8
visible
100
AcDbLine
 10
80.16604297107244
 20
-28.00860070792126
 30
0.0
 11
38.10626369523277
 21
-52.98506200124399
 31
0.0
  0
ELLIPSE
  5
19A
330
17
100
AcDbEntity
  8
visible
100
AcDbEllipse
 10
73.57462922741577
 20
-14.032250939874501
 30
0.0
 11
-0.20287883060718082
 21
-0.7738476465632385
 31
0.0
 40
0.5085173741229534
 41
3.141592653589793
 42
3.617607123216146
  0
ELLIPSE
  5
19B
330
17
100
AcDbEntity
  8
visible
100
AcDbEllipse
 10
37.43994084108651
 20
-50.60509333267103
 30
0.0
 11
-0.408472928236891
 21
0.687858900427682
 31
0.0
 40
0.7653271516050272
 41
4.052504559671332
 42
5.623300886466229
  0
ELLIPSE
  5
19C
330
17
100
AcDbEntity
  8
visible
100
AcDbEllipse
 10
61.84216448204997
 20
-20.999369090117156
 30
0.0
 11
-22.0
 21
-0.0
 31
0.0
 40
0.3945686647862854
 41
-3.728055217338332
 42
-3.1415926535897936
  0
ELLIPSE
  5
19D
330
17
100
AcDbEntity
  8
visible
100
AcDbEllipse
 10
79.49972011692617
 20
-25.628632039348304
 30
0.0
 11
-0.408472928236891
 21
0.687858900427682
 31
0.0
 40
0.7653271516050272
 41
4.052504559671332
 42
5.623300886466229
  0
LINE
  5
19E
330
17
100
AcDbEntity
  8
visible
100
AcDbLine
 10
80.16604297107244
 20
-25.803321207243826
 30
0.0
 11
38.10626369523277
 21
-50.779782500566554
 31
0.0
  0
LINE
  5
19F
330
17
100
AcDbEntity
  8
visible
100
AcDbLine
 10
80.16604297107244
 20
-28.008600707921254
 30
0.0
 11
80.16604297107244
 21
-25.80332120724382
 31
0.0
  0
LINE
  5
1A0
330
17
100
AcDbEntity
  8
visible
100
AcDbLine
 10
23.080683335341178
 20
-21.773864774669676
 30
0.0
 11
23.080683335341178
 21
-15.893119439529855
 31
0.0
  0
LINE
  5
1A1
330
17
100
AcDbEntity
  8
visible
100
AcDbLine
 10
26.412297606072542
 20
-16.76656527900743
 30
0.0
 11
23.080683335341178
 21
-15.893119439529855
 31
0.0
  0
LINE
  5
1A2
330
17
100
AcDbEntity
  8
visible
100
AcDbLine
 10
26.412297606072542
 20
-22.64731061414725
 30
0.0
 11
26.412297606072542
 21
-16.76656527900743
 31
0.0
  0
ELLIPSE
  5
1A3
330
17
100
AcDbEntity
  8
visible
100
AcDbEllipse
 10
25.847774077172737
 20
-14.24993119654809
 30
0.0
 11
-5.0
 21
-0.0
 31
0.0
 40
0.3945686647862854
 41
-6.283185307179586
 42
-5.298851544133228
  0
ELLIPSE
  5
1A4
330
17
100
AcDbEntity
  8
visible
100
AcDbEllipse
 10
26.855032124765593
 20
-16.50365516013035
 30
0.0
 11
0.20287883060718082
 21
0.7738476465632385
 31
0.0
 40
0.5085173741229534
 41
-5.807170837553233
 42
-4.236374510758337
  0
LINE
  5
1A5
330
17
100
AcDbEntity
  8
visible
100
AcDbLine
 10
26.855032124765593
 20
-15.768561993237867
 30
0.0
 11
23.52341785403423
 21
-14.895116153760291
 31
0.0
  0
ELLIPSE
  5
1A6
330
17
100
AcDbEntity
  8
visible
100
AcDbEllipse
 10
23.52341785403423
 20
-15.630209320652767
 30
0.0
 11
0.20287883060718082
 21
0.7738476465632385
 31
0.0
 40
0.5085173741229534
 41
-5.807170837553233
 42
-4.236374510758337
  0
LINE
  5
1A7
330
17
100
AcDbEntity
  8
visible
100
AcDbLine
 10
33.3439061863183
 20
-22.095929670512454
 30
0.0
 11
33.3439061863183
 21
-17.63933509018628
 31
0.0
  0
ELLIPSE
  5
1A8
330
17
100
AcDbEntity
  8
visible
100
AcDbEllipse
 10
29.1793883479041
 20
-15.123377036025673
 30
0.0
 11
-5.0
 21
-0.0
 31
0.0
 40
0.3945686647862854
 41
-5.298851544133228
 42
-3.9961460211849427
  0
ELLIPSE
  5
1A9
330
17
100
AcDbEntity
  8
visible
100
AcDbEllipse
 10
20.025222869766303
 20
-4.697446790291309
 30
0.0
 11
-0.8
 21
-0.0
 31
0.0
 40
0.3945686647862854
 41
-6.283185307179586
 42
-5.298851544133228
  0
ELLIPSE
  5
1AA
330
17
100
AcDbEntity
  8
visible
100
AcDbEllipse
 10
29.54401502166686
 20
0.9551207655659368
 30
0.0
 11
-4.5647736886615675
 21
-17.411572047672866
 31
0.0
 40
0.5085173741229534
 41
5.188403450011043
 42
5.790680764986309
  0
ELLIPSE
  5
1AB
330
17
100
AcDbEntity
  8
visible
100
AcDbEllipse
 10
25.847774077172737
 20
-13.514838029655607
 30
0.0
 11
-4.2
 21
-0.0
 31
0.0
 40
0.3945686647862854
 41
-6.400393754501482
 42
-5.298851544133228
  0
ELLIPSE
  5
1AC
330
17
100
AcDbEntity
  8
visible
100
AcDbEllipse
 10
29.1793883479041
 20
-14.38828386913319
 30
0.0
 11
-4.2
 21
-0.0
 31
0.0
 40
0.3945686647862854
 41
-5.298851544133228
 42
-4.131300600921696
  0
ELLIPSE
  5
1AD
330
17
100
AcDbEntity
  8
visible
100
AcDbEllipse
 10
20.025222869766303
 20
31.597778325024763
 30
0.0
 11
-0.8
 21
4.833011431488602e-17
 31
0.0
 40
0.39456866478628533
 41
-6.283185307179586
 42
-5.298851544133228
  0
LINE
  5
1AE
330
17
100
AcDbEntity
  8
visible
100
AcDbLine
 10
19.582488351073252
 20
31.334868206147675
 30
0.0
 11
19.582488351073252
 21
-4.9603569091683966
 31
0.0
  0
ELLIPSE
  5
1AF
330
17
100
AcDbEntity
  8
visible
100
AcDbEllipse
 10
29.54401502166686
 20
53.054848969070264
 30
0.0
 11
-0.408472928236891
 21
0.687858900427682
 31
0.0
 40
0.7653271516050272
 41
5.623300886466229
 42
6.283185307179586
  0
ELLIPSE
  5
1B0
330
17
100
AcDbEntity
  8
visible
100
AcDbEllipse
 10
29.54401502166686
 20
37.25034588088201
 30
0.0
 11
-4.5647736886615675
 21
-17.411572047672866
 31
0.0
 40
0.5085173741229535
 41
3.617607123216146
 42
5.188403450011043
  0
ELLIPSE
  5
1B1
330
17
100
AcDbEntity
  8
visible
100
AcDbEllipse
 10
31.757687615132106
 20
54.36939956345567
 30
0.0
 11
-0.4084729282368909
 21
0.687858900427682
 31
0.0
 40
0.7653271516050272
 41
5.623300886466229
 42
6.283185307179586
  0
LINE
  5
1B2
330
17
100
AcDbEntity
  8
visible
100
AcDbLine
 10
31.757687615132106
 20
55.104492730348156
 30
0.0
 11
29.54401502166686
 21
53.78994213596275
 31
0.0
  0
ELLIPSE
  5
1B3
330
17
100
AcDbEntity
  8
visible
100
AcDbEllipse
 10
31.757687615132106
 20
38.56489647526742
 30
0.0
 11
-4.5647736886615675
 21
-17.411572047672866
 31
0.0
 40
0.5085173741229534
 41
3.141592653589793
 42
3.617607123216146
  0
ELLIPSE
  5
1B4
330
17
100
AcDbEntity
  8
visible
100
AcDbEllipse
 10
33.20879071947136
 20
-0.005669657859392885
 30
0.0
 11
-4.5647736886615675
 21
-17.411572047672866
 31
0.0
 40
0.5085173741229534
 41
5.188403450011043
 42
5.784130982580404
  0
LINE
  5
1B5
330
17
100
AcDbEntity
  8
visible
100
AcDbLine
 10
19.58248835107325
 20
-4.960356909168389
 30
0.0
 11
23.24726404887775
 21
-5.921147332593723
 31
0.0
  0
ELLIPSE
  5
1B6
330
17
100
AcDbEntity
  8
visible
100
AcDbEllipse
 10
23.689998567570804
 20
-5.658237213716646
 30
0.0
 11
0.8
 21
0.0
 31
0.0
 40
0.3945686647862854
 41
4.125926416636151
 42
5.440964048211085
  0
LINE
  5
1B7
330
17
100
AcDbEntity
  8
visible
100
AcDbLine
 10
23.247264048877753
 20
30.37407778272234
 30
0.0
 11
23.247264048877753
 21
-5.921147332593733
 31
0.0
  0
LINE
  5
1B8
330
17
100
AcDbEntity
  8
visible
100
AcDbLine
 10
19.58248835107325
 20
31.334868206147682
 30
0.0
 11
23.24726404887775
 21
30.37407778272235
 31
0.0
  0
LINE
  5
1B9
330
17
100
AcDbEntity
  8
visible
100
AcDbLine
 10
29.544015021666855
 20
53.789942135962754
 30
0.0
 11
33.20879071947135
 21
52.82915171253742
 31
0.0
  0
ELLIPSE
  5
1BA
330
17
100
AcDbEntity
  8
visible
100
AcDbEllipse
 10
33.20879071947136
 20
36.28955545745667
 30
0.0
 11
-4.5647736886615675
 21
-17.411572047672866
 31
0.0
 40
0.5085173741229535
 41
3.617607123216146
 42
5.188403450011043
  0
LINE
  5
1BB
330
17
100
AcDbEntity
  8
visible
100
AcDbLine
 10
35.42246331293661
 20
54.14370230692282
 30
0.0
 11
33.20879071947136
 21
52.82915171253741
 31
0.0
  0
LINE
  5
1BC
330
17
100
AcDbEntity
  8
visible
100
AcDbLine
 10
31.757687615132102
 20
55.10449273034815
 30
0.0
 11
35.4224633129366
 21
54.14370230692281
 31
0.0
  0
ELLIPSE
  5
1BD
330
17
100
AcDbEntity
  8
visible
100
AcDbEllipse
 10
35.42246331293661
 20
37.60410605184208
 30
0.0
 11
-4.5647736886615675
 21
-17.411572047672866
 31
0.0
 40
0.5085173741229534
 41
3.141592653589793
 42
3.617607123216146
  0
ELLIPSE
  5
1BE
330
17
100
AcDbEntity
  8
visible
100
AcDbEllipse
 10
23.689998567570804
 20
30.636987901599426
 30
0.0
 11
0.8
 21
-4.833011431488602e-17
 31
0.0
 40
0.39456866478628533
 41
4.125926416636151
 42
5.441365953120443
  0
ELLIPSE
  5
1BF
330
17
100
AcDbEntity
  8
visible
100
AcDbEllipse
 10
35.42246331293661
 20
53.408609140030336
 30
0.0
 11
0.4084729282368909
 21
-0.687858900427682
 31
0.0
 40
0.7653271516050272
 41
-4.940410893739012
 42
-3.8014770743031505
  0
ELLIPSE
  5
1C0
330
17
100
AcDbEntity
  8
visible
100
AcDbEllipse
 10
33.20879071947136
 20
52.09405854564493
 30
0.0
 11
0.408472928236891
 21
-0.687858900427682
 31
0.0
 40
0.7653271516050272
 41
-4.949296146192688
 42
-3.8014770743031505
  0
ELLIPSE
  5
1C1
330
17
100
AcDbEntity
  8
visible
100
AcDbEllipse
 10
-0.8329035400118698
 20
-6.673137009259008
 30
0.0
 11
57.2
 21
0.0
 31
0.0
 40
0.3945686647862854
 41
2.696004371705808
 42
5.585182139726077
  0
ELLIPSE
  5
1C2
330
17
100
AcDbEntity
  8
visible
100
AcDbEllipse
 10
23.52341785403423
 20
-21.510954655792588
 30
0.0
 11
-0.20287883060718082
 21
-0.7738476465632385
 31
0.0
 40
0.5085173741229534
 41
0.029346040657862282
 42
0.4760144696263531
  0
ELLIPSE
  5
1C3
330
17
100
AcDbEntity
  8
visible
100
AcDbEllipse
 10
26.855032124765593
 20
-22.38440049527017
 30
0.0
 11
-0.20287883060718082
 21
-0.7738476465632385
 31
0.0
 40
0.5085173741229534
 41
0.0310229817322647
 42
0.4760144696263531
  0
ELLIPSE
  5
1C4
330
17
100
AcDbEntity
  8
visible
100
AcDbEllipse
 10
32.67758333217203
 20
-21.921240502616946
 30
0.0
 11
0.408472928236891
 21
-0.687858900427682
 31
0.0
 40
0.7653271516050272
 41
-0.6598844207133574
 42
-0.15452391042918645
  0
ELLIPSE
  5
1C5
330
17
100
AcDbEntity
  8
visible
100
AcDbEllipse
 10
29.1793883479041
 20
-21.739215538057962
 30
0.0
 11
-4.2
 21
-0.0
 31
0.0
 40
0.3945686647862854
 41
-5.298851544133228
 42
-3.728055217338332
  0
LINE
  5
1C6
330
17
100
AcDbEntity
  8
visible
100
AcDbLine
 10
24.579909757170288
 20
-6.270525668384756
 30
0.0
 11
45.73566037631443
 21
-11.81690674906736
 31
0.0
  0
LINE
  5
1C7
330
17
100
AcDbEntity
  8
visible
100
AcDbLine
 10
24.57990975717029
 20
30.024699446931322
 30
0.0
 11
24.57990975717029
 21
-6.2705256683847495
 31
0.0
  0
LINE
  5
1C8
330
17
100
AcDbEntity
  8
visible
100
AcDbLine
 10
45.735660376314435
 20
24.478318366248715
 30
0.0
 11
45.735660376314435
 21
-11.816906749067357
 31
0.0
  0
LINE
  5
1C9
330
17
100
AcDbEntity
  8
visible
100
AcDbLine
 10
24.579909757170288
 20
30.024699446931315
 30
0.0
 11
45.73566037631443
 21
24.47831836624871
 31
0.0
  0
ELLIPSE
  5
1CA
330
17
100
AcDbEntity
  8
visible
100
AcDbEllipse
 10
34.5414364277639
 20
-0.35504799365042317
 30
0.0
 11
-4.5647736886615675
 21
-17.411572047672866
 31
0.0
 40
0.5085173741229534
 41
5.188403450011043
 42
5.7641300979912335
  0
ELLIPSE
  5
1CB
330
17
100
AcDbEntity
  8
visible
100
AcDbEllipse
 10
55.69718704690804
 20
-5.901429074333031
 30
0.0
 11
-4.5647736886615675
 21
-17.411572047672866
 31
0.0
 40
0.5085173741229534
 41
5.188403450011043
 42
6.283185307179586
  0
ELLIPSE
  5
1CC
330
17
100
AcDbEntity
  8
visible
100
AcDbEllipse
 10
25.022644275863343
 20
30.287609565808395
 30
0.0
 11
-0.8
 21
4.833011431488602e-17
 31
0.0
 40
0.39456866478628533
 41
-6.283185307179586
 42
-5.298851544133228
  0
ELLIPSE
  5
1CD
330
17
100
AcDbEntity
  8
visible
100
AcDbEllipse
 10
25.022644275863343
 20
-6.007615549507676
 30
0.0
 11
-0.8
 21
-0.0
 31
0.0
 40
0.3945686647862854
 41
-6.283185307179586
 42
-5.298851544133228
  0
ELLIPSE
  5
1CE
330
17
100
AcDbEntity
  8
visible
100
AcDbEllipse
 10
46.178394895007486
 20
24.741228485125788
 30
0.0
 11
0.8
 21
-4.833011431488602e-17
 31
0.0
 40
0.39456866478628533
 41
4.125926416636151
 42
5.696722743431048
  0
LINE
  5
1CF
330
17
100
AcDbEntity
  8
visible
100
AcDbLine
 10
46.84471774915375
 20
24.56653931723028
 30
0.0
 11
46.84471774915375
 21
-11.728685798085792
 31
0.0
  0
ELLIPSE
  5
1D0
330
17
100
AcDbEntity
  8
visible
100
AcDbEllipse
 10
46.178394895007486
 20
-11.553996630190277
 30
0.0
 11
0.8
 21
0.0
 31
0.0
 40
0.3945686647862854
 41
4.125926416636151
 42
5.696722743431048
  0
LINE
  5
1D1
330
17
100
AcDbEntity
  8
visible
100
AcDbLine
 10
34.5414364277639
 20
52.47977337674639
 30
0.0
 11
55.69718704690804
 21
46.93339229606378
 31
0.0
  0
ELLIPSE
  5
1D2
330
17
100
AcDbEntity
  8
visible
100
AcDbEllipse
 10
34.5414364277639
 20
35.94017712166564
 30
0.0
 11
-4.5647736886615675
 21
-17.411572047672866
 31
0.0
 40
0.5085173741229535
 41
3.617607123216146
 42
5.188403450011043
  0
ELLIPSE
  5
1D3
330
17
100
AcDbEntity
  8
visible
100
AcDbEllipse
 10
55.69718704690804
 20
30.393796040983048
 30
0.0
 11
-4.5647736886615675
 21
-17.411572047672866
 31
0.0
 40
0.5085173741229535
 41
3.617607123216146
 42
5.188403450011043
  0
ELLIPSE
  5
1D4
330
17
100
AcDbEntity
  8
visible
100
AcDbEllipse
 10
56.36350990105431
 20
-6.076118242228546
 30
0.0
 11
-4.361894858054387
 21
-16.637724401109626
 31
0.0
 40
0.5085173741229534
 41
5.188403450011043
 42
6.759199776805939
  0
ELLIPSE
  5
1D5
330
17
100
AcDbEntity
  8
visible
100
AcDbEllipse
 10
55.69718704690804
 20
-21.705932162521293
 30
0.0
 11
-0.4084729282368909
 21
0.687858900427682
 31
0.0
 40
0.7653271516050272
 41
3.141592653589793
 42
4.052504559671332
  0
ELLIPSE
  5
1D6
330
17
100
AcDbEntity
  8
visible
100
AcDbEllipse
 10
34.5414364277639
 20
51.7446802098539
 30
0.0
 11
-0.408472928236891
 21
0.687858900427682
 31
0.0
 40
0.7653271516050272
 41
5.623300886466229
 42
6.283185307179586
  0
ELLIPSE
  5
1D7
330
17
100
AcDbEntity
  8
visible
100
AcDbEllipse
 10
55.69718704690804
 20
46.1982991291713
 30
0.0
 11
0.408472928236891
 21
-0.687858900427682
 31
0.0
 40
0.7653271516050272
 41
-5.372273401098047
 42
-3.8014770743031505
  0
ELLIPSE
  5
1D8
330
17
100
AcDbEntity
  8
visible
100
AcDbEllipse
 10
56.36350990105431
 20
30.219106873087526
 30
0.0
 11
-4.361894858054387
 21
-16.637724401109626
 31
0.0
 40
0.5085173741229535
 41
3.617607123216146
 42
5.188403450011043
  0
LINE
  5
1D9
330
17
100
AcDbEntity
  8
visible
100
AcDbLine
 10
56.36350990105431
 20
-21.88062133041681
 30
0.0
 11
58.577182494519555
 21
-20.566070736031403
 31
0.0
  0
ELLIPSE
  5
1DA
330
17
100
AcDbEntity
  8
visible
100
AcDbEllipse
 10
58.577182494519555
 20
-4.761567647843137
 30
0.0
 11
-4.361894858054387
 21
-16.637724401109626
 31
0.0
 40
0.5085173741229535
 41
0.4760144696263529
 42
2.0468107964212496
  0
LINE
  5
1DB
330
17
100
AcDbEntity
  8
visible
100
AcDbLine
 10
58.577182494519555
 20
47.33816055566119
 30
0.0
 11
56.36350990105431
 21
46.02360996127578
 31
0.0
  0
LINE
  5
1DC
330
17
100
AcDbEntity
  8
visible
100
AcDbLine
 10
68.0959746464201
 20
0.8909999080141091
 30
0.0
 11
68.0959746464201
 21
37.18622502333018
 31
0.0
  0
ELLIPSE
  5
1DD
330
17
100
AcDbEntity
  8
visible
100
AcDbEllipse
 10
58.577182494519555
 20
31.533657467472935
 30
0.0
 11
-4.361894858054387
 21
-16.637724401109626
 31
0.0
 40
0.5085173741229534
 41
2.0468107964212496
 42
3.617607123216146
  0
LINE
  5
1DE
330
17
100
AcDbEntity
  8
visible
100
AcDbLine
 10
36.755109021229146
 20
53.79432397113179
 30
0.0
 11
34.5414364277639
 21
52.47977337674638
 31
0.0
  0
LINE
  5
1DF
330
17
100
AcDbEntity
  8
visible
100
AcDbLine
 10
57.91085964037329
 20
48.24794289044918
 30
0.0
 11
55.69718704690804
 21
46.93339229606377
 31
0.0
  0
LINE
  5
1E0
330
17
100
AcDbEntity
  8
visible
100
AcDbLine
 10
36.755109021229146
 20
53.794323971131796
 30
0.0
 11
57.91085964037329
 21
48.24794289044919
 31
0.0
  0
ELLIPSE
  5
1E1
330
17
100
AcDbEntity
  8
visible
100
AcDbEllipse
 10
57.91085964037329
 20
-20.391381568135884
 30
0.0
 11
-0.408472928236891
 21
0.687858900427682
 31
0.0
 40
0.7653271516050272
 41
3.141592653589793
 42
4.052504559671332
  0
ELLIPSE
  5
1E2
330
17
100
AcDbEntity
  8
visible
100
AcDbEllipse
 10
36.755109021229146
 20
53.059230804239306
 30
0.0
 11
-0.4084729282368909
 21
0.687858900427682
 31
0.0
 40
0.7653271516050272
 41
5.623300886466229
 42
6.283185307179586
  0
ELLIPSE
  5
1E3
330
17
100
AcDbEntity
  8
visible
100
AcDbEllipse
 10
36.755109021229146
 20
37.25472771605105
 30
0.0
 11
-4.5647736886615675
 21
-17.411572047672866
 31
0.0
 40
0.5085173741229534
 41
3.141592653589793
 42
3.617607123216146
  0
ELLIPSE
  5
1E4
330
17
100
AcDbEntity
  8
visible
100
AcDbEllipse
 10
57.91085964037329
 20
47.51284972355671
 30
0.0
 11
0.4084729282368909
 21
-0.687858900427682
 31
0.0
 40
0.7653271516050272
 41
-5.372273401098047
 42
-3.8014770743031505
  0
ELLIPSE
  5
1E5
330
17
100
AcDbEntity
  8
visible
100
AcDbEllipse
 10
67.42965179227384
 20
1.0656890759096243
 30
0.0
 11
-0.8
 21
1.2082528578721501e-16
 31
0.0
 40
0.3945686647862852
 41
-3.728055217338332
 42
-3.1415926535897936
  0
ELLIPSE
  5
1E6
330
17
100
AcDbEntity
  8
visible
100
AcDbEllipse
 10
67.42965179227384
 20
37.3609141912257
 30
0.0
 11
-0.8
 21
-0.0
 31
0.0
 40
0.3945686647862854
 41
-3.728055217338332
 42
-3.141592653589793
  0
ELLIPSE
  5
1E7
330
17
100
AcDbEntity
  8
visible
100
AcDbEllipse
 10
57.91085964037329
 20
31.708346635368443
 30
0.0
 11
-4.5647736886615675
 21
-17.411572047672866
 31
0.0
 40
0.5085173741229534
 41
3.141592653589793
 42
3.617607123216146
  0
ELLIPSE
  5
1E8
330
17
100
AcDbEntity
  8
visible
100
AcDbEllipse
 10
58.21995940870148
 20
23.328925187473004
 30
0.0
 11
-3.5503795356256616
 21
-13.542333814856674
 31
0.0
 40
0.5085173741229536
 41
3.1415926535897936
 42
6.283185307179586
  0
ELLIPSE
  5
1E9
330
17
100
AcDbEntity
  8
visible
100
AcDbEllipse
 10
58.55312083577462
 20
23.24158060352525
 30
0.0
 11
-3.4489401203220713
 21
-13.155409991575056
 31
0.0
 40
0.5085173741229536
 41
0.47601446962635297
 42
6.759199776805939
  0
LINE
  5
1EA
330
17
100
AcDbEntity
  8
visible
100
AcDbLine
 10
-43.38502136574945
 20
11.547769456957788
 30
0.0
 11
-47.04979706355395
 21
12.508559880383121
 31
0.0
  0
LINE
  5
1EB
330
17
100
AcDbEntity
  8
visible
100
AcDbLine
 10
-43.38502136574945
 20
47.84299457227385
 30
0.0
 11
-43.38502136574945
 21
11.54776945695778
 31
0.0
  0
LINE
  5
1EC
330
17
100
AcDbEntity
  8
visible
100
AcDbLine
 10
-47.04979706355395
 20
48.80378499569919
 30
0.0
 11
-47.04979706355395
 21
12.508559880383118
 31
0.0
  0
LINE
  5
1ED
330
17
100
AcDbEntity
  8
visible
100
AcDbLine
 10
-43.38502136574945
 20
47.84299457227386
 30
0.0
 11
-47.04979706355395
 21
48.803784995699196
 31
0.0
  0
ELLIPSE
  5
1EE
330
17
100
AcDbEntity
  8
visible
100
AcDbEllipse
 10
-33.423494695155846
 20
17.463247131692114
 30
0.0
 11
-4.5647736886615675
 21
-17.411572047672866
 31
0.0
 40
0.5085173741229534
 41
5.188403450011043
 42
5.673397344403749
  0
ELLIPSE
  5
1EF
330
17
100
AcDbEntity
  8
visible
100
AcDbEllipse
 10
-37.08827039296035
 20
18.42403755511745
 30
0.0
 11
-4.5647736886615675
 21
-17.411572047672866
 31
0.0
 40
0.5085173741229534
 41
5.188403450011043
 42
5.7774344202273165
  0
ELLIPSE
  5
1F0
330
17
100
AcDbEntity
  8
visible
100
AcDbEllipse
 10
-42.9422868470564
 20
48.10590469115094
 30
0.0
 11
0.8
 21
-4.833011431488602e-17
 31
0.0
 40
0.39456866478628533
 41
4.125926416636151
 42
5.696722743431048
  0
ELLIPSE
  5
1F1
330
17
100
AcDbEntity
  8
visible
100
AcDbEllipse
 10
-42.9422868470564
 20
11.810679575834868
 30
0.0
 11
0.8
 21
0.0
 31
0.0
 40
0.3945686647862854
 41
4.125926416636151
 42
5.696722743431048
  0
ELLIPSE
  5
1F2
330
17
100
AcDbEntity
  8
visible
100
AcDbEllipse
 10
-46.6070625448609
 20
49.06669511457628
 30
0.0
 11
-0.8
 21
4.833011431488602e-17
 31
0.0
 40
0.39456866478628533
 41
-6.283185307179586
 42
-5.298851544133228
  0
ELLIPSE
  5
1F3
330
17
100
AcDbEntity
  8
visible
100
AcDbEllipse
 10
-46.6070625448609
 20
12.771469999260205
 30
0.0
 11
-0.8
 21
-0.0
 31
0.0
 40
0.3945686647862854
 41
-6.283185307179586
 42
-5.298851544133228
  0
LINE
  5
1F4
330
17
100
AcDbEntity
  8
visible
100
AcDbLine
 10
-33.423494695155846
 20
70.29806850208891
 30
0.0
 11
-37.08827039296034
 21
71.25885892551425
 31
0.0
  0
ELLIPSE
  5
1F5
330
17
100
AcDbEntity
  8
visible
100
AcDbEllipse
 10
-33.423494695155846
 20
53.758472247008186
 30
0.0
 11
-4.5647736886615675
 21
-17.411572047672866
 31
0.0
 40
0.5085173741229535
 41
3.617607123216146
 42
5.188403450011043
  0
ELLIPSE
  5
1F6
330
17
100
AcDbEntity
  8
visible
100
AcDbEllipse
 10
-37.08827039296035
 20
54.71926267043352
 30
0.0
 11
-4.5647736886615675
 21
-17.411572047672866
 31
0.0
 40
0.5085173741229535
 41
3.617607123216146
 42
5.188403450011043
  0
ELLIPSE
  5
1F7
330
17
100
AcDbEntity
  8
visible
100
AcDbEllipse
 10
-46.44048183132433
 20
2.8040399542378793
 30
0.0
 11
0.20287883060718082
 21
0.7738476465632385
 31
0.0
 40
0.5085173741229534
 41
-5.807170837553233
 42
-4.236374510758337
  0
ELLIPSE
  5
1F8
330
17
100
AcDbEntity
  8
visible
100
AcDbEllipse
 10
-44.11612560818582
 20
4.919411245235025
 30
0.0
 11
4.2
 21
0.0
 31
0.0
 40
0.39456866478628544
 41
4.125926416636151
 42
5.1764605173231155
  0
ELLIPSE
  5
1F9
330
17
100
AcDbEntity
  8
visible
100
AcDbEllipse
 10
-44.11612560818582
 20
4.184318078342557
 30
0.0
 11
5.0
 21
0.0
 31
0.0
 40
0.39456866478628544
 41
4.125926416636151
 42
5.143695281412942
  0
ELLIPSE
  5
1FA
330
17
100
AcDbEntity
  8
visible
100
AcDbEllipse
 10
-47.44773987891718
 20
5.792857084712608
 30
0.0
 11
4.2
 21
0.0
 31
0.0
 40
0.3945686647862854
 41
2.9745615381737585
 42
4.125926416636151
  0
LINE
  5
1FB
330
17
100
AcDbEntity
  8
visible
100
AcDbLine
 10
-49.77209610205569
 20
4.412578960607931
 30
0.0
 11
-46.44048183132433
 21
3.5391331211303547
 31
0.0
  0
ELLIPSE
  5
1FC
330
17
100
AcDbEntity
  8
visible
100
AcDbEllipse
 10
-33.423494695155846
 20
69.56297533519643
 30
0.0
 11
0.408472928236891
 21
-0.687858900427682
 31
0.0
 40
0.7653271516050272
 41
-5.372273401098047
 42
-3.8014770743031505
  0
ELLIPSE
  5
1FD
330
17
100
AcDbEntity
  8
visible
100
AcDbEllipse
 10
-37.08827039296035
 20
70.52376575862178
 30
0.0
 11
-0.408472928236891
 21
0.687858900427682
 31
0.0
 40
0.7653271516050272
 41
5.623300886466229
 42
6.283185307179586
  0
LINE
  5
1FE
330
17
100
AcDbEntity
  8
visible
100
AcDbLine
 10
-31.209822101690598
 20
71.61261909647433
 30
0.0
 11
-33.423494695155846
 21
70.29806850208892
 31
0.0
  0
LINE
  5
1FF
330
17
100
AcDbEntity
  8
visible
100
AcDbLine
 10
-34.8745977994951
 20
72.57340951989966
 30
0.0
 11
-37.08827039296035
 21
71.25885892551425
 31
0.0
  0
LINE
  5
200
330
17
100
AcDbEntity
  8
visible
100
AcDbLine
 10
-31.209822101690595
 20
71.61261909647433
 30
0.0
 11
-34.87459779949509
 21
72.57340951989967
 31
0.0
  0
LINE
  5
201
330
17
100
AcDbEntity
  8
visible
100
AcDbLine
 10
-46.88321635001738
 20
-3.3396154997790206
 30
0.0
 11
-46.88321635001738
 21
2.541129835360798
 31
0.0
  0
ELLIPSE
  5
202
330
17
100
AcDbEntity
  8
visible
100
AcDbEllipse
 10
-44.11612560818582
 20
-1.6964272567972642
 30
0.0
 11
5.0
 21
0.0
 31
0.0
 40
0.39456866478628544
 41
4.125926416636151
 42
5.696722743431048
  0
ELLIPSE
  5
203
330
17
100
AcDbEntity
  8
visible
100
AcDbEllipse
 10
-49.77209610205569
 20
3.677485793715448
 30
0.0
 11
0.20287883060718082
 21
0.7738476465632385
 31
0.0
 40
0.5085173741229534
 41
-5.807170837553233
 42
-4.236374510758337
  0
LINE
  5
204
330
17
100
AcDbEntity
  8
visible
100
AcDbLine
 10
-50.21483062074874
 20
3.4145756748383747
 30
0.0
 11
-46.88321635001738
 21
2.5411298353607985
 31
0.0
  0
ELLIPSE
  5
205
330
17
100
AcDbEntity
  8
visible
100
AcDbEllipse
 10
-47.44773987891718
 20
5.057763917820125
 30
0.0
 11
5.0
 21
0.0
 31
0.0
 40
0.3945686647862854
 41
3.141592653589793
 42
4.125926416636151
  0
ELLIPSE
  5
206
330
17
100
AcDbEntity
  8
visible
100
AcDbEllipse
 10
-31.209822101690598
 20
70.87752592958185
 30
0.0
 11
0.4084729282368909
 21
-0.687858900427682
 31
0.0
 40
0.7653271516050272
 41
-5.372273401098047
 42
-3.8014770743031505
  0
ELLIPSE
  5
207
330
17
100
AcDbEntity
  8
visible
100
AcDbEllipse
 10
-31.209822101690598
 20
55.073022841393595
 30
0.0
 11
-4.5647736886615675
 21
-17.411572047672866
 31
0.0
 40
0.5085173741229534
 41
3.141592653589793
 42
3.617607123216146
  0
ELLIPSE
  5
208
330
17
100
AcDbEntity
  8
visible
100
AcDbEllipse
 10
-34.8745977994951
 20
71.83831635300717
 30
0.0
 11
-0.4084729282368909
 21
0.687858900427682
 31
0.0
 40
0.7653271516050272
 41
5.623300886466229
 42
6.283185307179586
  0
ELLIPSE
  5
209
330
17
100
AcDbEntity
  8
visible
100
AcDbEllipse
 10
-34.8745977994951
 20
56.03381326481893
 30
0.0
 11
-4.5647736886615675
 21
-17.411572047672866
 31
0.0
 40
0.5085173741229534
 41
3.141592653589793
 42
3.617607123216146
  0
LINE
  5
20A
330
17
100
AcDbEntity
  8
visible
100
AcDbLine
 10
-50.21483062074874
 20
-2.4661696603014462
 30
0.0
 11
-46.88321635001738
 21
-3.3396154997790224
 31
0.0
  0
LINE
  5
20B
330
17
100
AcDbEntity
  8
visible
100
AcDbLine
 10
-50.21483062074874
 20
-2.4661696603014445
 30
0.0
 11
-50.21483062074874
 21
3.4145756748383738
 31
0.0
  0
ELLIPSE
  5
20C
330
17
100
AcDbEntity
  8
visible
100
AcDbEllipse
 10
-46.44048183132433
 20
-3.0767053809019416
 30
0.0
 11
-0.20287883060718082
 21
-0.7738476465632385
 31
0.0
 40
0.5085173741229534
 41
5.188403450011043
 42
6.283185307179586
  0
ELLIPSE
  5
20D
330
17
100
AcDbEntity
  8
visible
100
AcDbEllipse
 10
-47.44773987891718
 20
-0.8229814173196885
 30
0.0
 11
5.0
 21
0.0
 31
0.0
 40
0.3945686647862854
 41
3.141592653589793
 42
4.125926416636151
  0
ELLIPSE
  5
20E
330
17
100
AcDbEntity
  8
visible
100
AcDbEllipse
 10
-49.77209610205569
 20
-2.203259541424366
 30
0.0
 11
-0.20287883060718082
 21
-0.7738476465632385
 31
0.0
 40
0.5085173741229534
 41
5.188403450011043
 42
6.283185307179586
  0
LINE
  5
20F
330
17
100
AcDbEntity
  8
visible
100
AcDbLine
 10
-48.38244277184649
 20
12.857938216174155
 30
0.0
 11
-69.53819339099063
 21
18.40431929685676
 31
0.0
  0
LINE
  5
210
330
17
100
AcDbEntity
  8
visible
100
AcDbLine
 10
-48.38244277184649
 20
49.15316333149022
 30
0.0
 11
-48.38244277184649
 21
12.857938216174148
 31
0.0
  0
LINE
  5
211
330
17
100
AcDbEntity
  8
visible
100
AcDbLine
 10
-69.53819339099063
 20
54.69954441217283
 30
0.0
 11
-69.53819339099063
 21
18.404319296856755
 31
0.0
  0
LINE
  5
212
330
17
100
AcDbEntity
  8
visible
100
AcDbLine
 10
-48.38244277184649
 20
49.15316333149023
 30
0.0
 11
-69.53819339099063
 21
54.699544412172834
 31
0.0
  0
ELLIPSE
  5
213
330
17
100
AcDbEntity
  8
visible
100
AcDbEllipse
 10
-38.420916101252885
 20
18.77341589090848
 30
0.0
 11
-4.5647736886615675
 21
-17.411572047672866
 31
0.0
 40
0.5085173741229534
 41
5.188403450011043
 42
5.7641300979912335
  0
ELLIPSE
  5
214
330
17
100
AcDbEntity
  8
visible
100
AcDbEllipse
 10
-59.57666672039703
 20
24.31979697159109
 30
0.0
 11
-4.5647736886615675
 21
-17.411572047672866
 31
0.0
 40
0.5085173741229534
 41
5.188403450011043
 42
6.283185307179586
  0
ELLIPSE
  5
215
330
17
100
AcDbEntity
  8
visible
100
AcDbEllipse
 10
-47.93970825315344
 20
49.41607345036729
 30
0.0
 11
0.8
 21
-4.833011431488602e-17
 31
0.0
 40
0.39456866478628533
 41
4.125926416636151
 42
5.441365953120443
  0
ELLIPSE
  5
216
330
17
100
AcDbEntity
  8
visible
100
AcDbEllipse
 10
-47.93970825315344
 20
13.120848335051221
 30
0.0
 11
0.8
 21
0.0
 31
0.0
 40
0.3945686647862854
 41
4.125926416636151
 42
5.440964048211097
  0
ELLIPSE
  5
217
330
17
100
AcDbEntity
  8
visible
100
AcDbEllipse
 10
-69.09545887229758
 20
54.9624545310499
 30
0.0
 11
-0.8
 21
4.833011431488602e-17
 31
0.0
 40
0.39456866478628533
 41
-6.283185307179586
 42
-5.298851544133228
  0
ELLIPSE
  5
218
330
17
100
AcDbEntity
  8
visible
100
AcDbEllipse
 10
-69.09545887229758
 20
18.66722941573383
 30
0.0
 11
-0.8
 21
-0.0
 31
0.0
 40
0.3945686647862854
 41
-6.283185307179586
 42
-5.298851544133228
  0
LINE
  5
219
330
17
100
AcDbEntity
  8
visible
100
AcDbLine
 10
-38.420916101252885
 20
71.60823726130528
 30
0.0
 11
-59.57666672039703
 21
77.15461834198788
 31
0.0
  0
ELLIPSE
  5
21A
330
17
100
AcDbEntity
  8
visible
100
AcDbEllipse
 10
-38.420916101252885
 20
55.06864100622455
 30
0.0
 11
-4.5647736886615675
 21
-17.411572047672866
 31
0.0
 40
0.5085173741229535
 41
3.617607123216146
 42
5.188403450011043
  0
ELLIPSE
  5
21B
330
17
100
AcDbEntity
  8
visible
100
AcDbEllipse
 10
-59.57666672039703
 20
60.61502208690716
 30
0.0
 11
-4.5647736886615675
 21
-17.411572047672866
 31
0.0
 40
0.5085173741229535
 41
3.617607123216146
 42
5.188403450011043
  0
ELLIPSE
  5
21C
330
17
100
AcDbEntity
  8
visible
100
AcDbEllipse
 10
-38.420916101252885
 20
70.8731440944128
 30
0.0
 11
0.408472928236891
 21
-0.687858900427682
 31
0.0
 40
0.7653271516050272
 41
-4.949296146192705
 42
-3.8014770743031505
  0
ELLIPSE
  5
21D
330
17
100
AcDbEntity
  8
visible
100
AcDbEllipse
 10
-59.57666672039703
 20
76.4195251750954
 30
0.0
 11
-0.408472928236891
 21
0.687858900427682
 31
0.0
 40
0.7653271516050272
 41
5.623300886466229
 42
6.283185307179586
  0
LINE
  5
21E
330
17
100
AcDbEntity
  8
visible
100
AcDbLine
 10
-36.20724350778764
 20
72.9227878556907
 30
0.0
 11
-38.420916101252885
 21
71.60823726130529
 31
0.0
  0
LINE
  5
21F
330
17
100
AcDbEntity
  8
visible
100
AcDbLine
 10
-57.36299412693178
 20
78.46916893637331
 30
0.0
 11
-59.57666672039703
 21
77.1546183419879
 31
0.0
  0
LINE
  5
220
330
17
100
AcDbEntity
  8
visible
100
AcDbLine
 10
-36.20724350778764
 20
72.9227878556907
 30
0.0
 11
-57.36299412693178
 21
78.46916893637331
 31
0.0
  0
ELLIPSE
  5
221
330
17
100
AcDbEntity
  8
visible
100
AcDbEllipse
 10
-36.20724350778764
 20
72.18769468879822
 30
0.0
 11
0.4084729282368909
 21
-0.687858900427682
 31
0.0
 40
0.7653271516050272
 41
-4.940410893738993
 42
-3.8014770743031505
  0
ELLIPSE
  5
222
330
17
100
AcDbEntity
  8
visible
100
AcDbEllipse
 10
-36.20724350778764
 20
56.38319160060996
 30
0.0
 11
-4.5647736886615675
 21
-17.411572047672866
 31
0.0
 40
0.5085173741229534
 41
3.141592653589793
 42
3.617607123216146
  0
ELLIPSE
  5
223
330
17
100
AcDbEntity
  8
visible
100
AcDbEllipse
 10
-57.36299412693178
 20
77.73407576948082
 30
0.0
 11
-0.4084729282368909
 21
0.687858900427682
 31
0.0
 40
0.7653271516050272
 41
5.623300886466229
 42
6.283185307179586
  0
ELLIPSE
  5
224
330
17
100
AcDbEntity
  8
visible
100
AcDbEllipse
 10
-57.36299412693178
 20
61.929572681292555
 30
0.0
 11
-4.5647736886615675
 21
-17.411572047672866
 31
0.0
 40
0.5085173741229534
 41
3.141592653589793
 42
3.617607123216146
  0
ELLIPSE
  5
225
330
17
100
AcDbEntity
  8
visible
100
AcDbEllipse
 10
-39.236236150680064
 20
3.062190808802825
 30
0.0
 11
-3.0
 21
-0.0
 31
0.0
 40
0.3945686647862854
 41
-6.283185307179586
 42
-5.298851544133228
  0
ELLIPSE
  5
226
330
17
100
AcDbEntity
  8
visible
100
AcDbEllipse
 10
-39.236236150680064
 20
6.186336768095856
 30
0.0
 11
-3.0
 21
-0.0
 31
0.0
 40
0.3945686647862854
 41
-6.283185307179586
 42
-5.298851544133228
  0
LINE
  5
227
330
17
100
AcDbEntity
  8
visible
100
AcDbLine
 10
-40.896490595779
 20
2.07627786301378
 30
0.0
 11
-40.896490595779
 21
5.200423822306809
 31
0.0
  0
ELLIPSE
  5
228
330
17
100
AcDbEntity
  8
visible
100
AcDbEllipse
 10
-40.45375607708595
 20
2.339187981890859
 30
0.0
 11
-0.20287883060718082
 21
-0.7738476465632385
 31
0.0
 40
0.5085173741229534
 41
5.188403450011043
 42
6.283185307179586
  0
ELLIPSE
  5
229
330
17
100
AcDbEntity
  8
visible
100
AcDbEllipse
 10
-40.45375607708595
 20
5.46333394118389
 30
0.0
 11
0.20287883060718082
 21
0.7738476465632385
 31
0.0
 40
0.5085173741229534
 41
-5.807170837553233
 42
-4.236374510758337
  0
LINE
  5
22A
330
17
100
AcDbEntity
  8
visible
100
AcDbLine
 10
6.579012762142884
 20
-10.370325349541673
 30
0.0
 11
-40.896490595779
 21
2.076277863013777
 31
0.0
  0
LINE
  5
22B
330
17
100
AcDbEntity
  8
visible
100
AcDbLine
 10
6.579012762142884
 20
-7.246179390248642
 30
0.0
 11
-40.896490595779
 21
5.200423822306808
 31
0.0
  0
LINE
  5
22C
330
17
100
AcDbEntity
  8
visible
100
AcDbLine
 10
6.579012762142884
 20
-10.370325349541664
 30
0.0
 11
6.579012762142884
 21
-7.246179390248636
 31
0.0
  0
ELLIPSE
  5
22D
330
17
100
AcDbEntity
  8
visible
100
AcDbEllipse
 10
7.021747280835934
 20
-10.107415230664593
 30
0.0
 11
-0.20287883060718082
 21
-0.7738476465632385
 31
0.0
 40
0.5085173741229534
 41
5.188403450011043
 42
6.283185307179586
  0
ELLIPSE
  5
22E
330
17
100
AcDbEntity
  8
visible
100
AcDbEllipse
 10
7.021747280835934
 20
-6.983269271371562
 30
0.0
 11
0.20287883060718082
 21
0.7738476465632385
 31
0.0
 40
0.5085173741229534
 41
-5.807170837553233
 42
-4.236374510758337
  0
LINE
  5
22F
330
17
100
AcDbEntity
  8
visible
100
AcDbLine
 10
10.737977910290338
 20
-10.039496783360795
 30
0.0
 11
10.737977910290338
 21
-6.915350824067766
 31
0.0
  0
ELLIPSE
  5
230
330
17
100
AcDbEntity
  8
visible
100
AcDbEllipse
 10
8.239267207241818
 20
-9.38441240375262
 30
0.0
 11
-3.0
 21
-0.0
 31
0.0
 40
0.3945686647862854
 41
-5.298851544133228
 42
-3.728055217338332
  0
ELLIPSE
  5
231
330
17
100
AcDbEntity
  8
visible
100
AcDbEllipse
 10
8.239267207241818
 20
-6.260266444459589
 30
0.0
 11
-3.0
 21
-0.0
 31
0.0
 40
0.3945686647862854
 41
-5.298851544133228
 42
-3.728055217338332
  0
ELLIPSE
  5
232
330
17
100
AcDbEntity
  8
visible
100
AcDbEllipse
 10
10.071655056144065
 20
-9.864807615465288
 30
0.0
 11
0.408472928236891
 21
-0.687858900427682
 31
0.0
 40
0.7653271516050272
 41
-6.283185307179586
 42
-5.372273401098047
  0
LINE
  5
233
330
17
100
AcDbEntity
  8
visible
100
AcDbLine
 10
19.22690473234941
 20
-4.998496667727766
 30
0.0
 11
10.737977910290336
 21
-10.0394967833608
 31
0.0
  0
LINE
  5
234
330
17
100
AcDbEntity
  8
visible
100
AcDbLine
 10
19.225222869766306
 20
5.29856981330953
 30
0.0
 11
5.181585665560242
 21
-3.040997514134972
 31
0.0
  0
ELLIPSE
  5
235
330
17
100
AcDbEntity
  8
visible
100
AcDbEllipse
 10
4.515262811413969
 20
-2.8663083462394496
 30
0.0
 11
0.408472928236891
 21
-0.687858900427682
 31
0.0
 40
0.7653271516050272
 41
-6.283185307179586
 42
-5.372273401098047
  0
ELLIPSE
  5
236
330
17
100
AcDbEntity
  8
visible
100
AcDbEllipse
 10
-32.96317665820713
 20
6.390903001672143
 30
0.0
 11
-0.20287883060718082
 21
-0.7738476465632385
 31
0.0
 40
0.5085173741229534
 41
5.188403450011043
 42
6.283185307179586
  0
ELLIPSE
  5
237
330
17
100
AcDbEntity
  8
visible
100
AcDbEllipse
 10
-32.29907488016756
 20
6.785268179987753
 30
0.0
 11
-2.0
 21
-0.0
 31
0.0
 40
0.3945686647862854
 41
-6.283185307179586
 42
-5.298851544133228
  0
ELLIPSE
  5
238
330
17
100
AcDbEntity
  8
visible
100
AcDbEllipse
 10
10.071655056144065
 20
-6.740661656172257
 30
0.0
 11
-0.408472928236891
 21
0.687858900427682
 31
0.0
 40
0.7653271516050272
 41
4.052504559671332
 42
5.623300886466229
  0
LINE
  5
239
330
17
100
AcDbEntity
  8
visible
100
AcDbLine
 10
19.225222869766306
 20
-1.8753494529938077
 30
0.0
 11
10.737977910290336
 21
-6.915350824067769
 31
0.0
  0
ELLIPSE
  5
23A
330
17
100
AcDbEntity
  8
visible
100
AcDbEllipse
 10
3.5157785301945594
 20
-2.6042745943961734
 30
0.0
 11
-2.0
 21
-0.0
 31
0.0
 40
0.3945686647862854
 41
-5.298851544133228
 42
-3.728055217338332
  0
ELLIPSE
  5
23B
330
17
100
AcDbEntity
  8
visible
100
AcDbEllipse
 10
2.8516767521549866
 20
-2.9986397727117975
 30
0.0
 11
-0.20287883060718082
 21
-0.7738476465632385
 31
0.0
 40
0.5085173741229534
 41
5.188403450011043
 42
6.283185307179586
  0
LINE
  5
23C
330
17
100
AcDbEntity
  8
visible
100
AcDbLine
 10
2.4089422334619375
 20
-3.261549891588885
 30
0.0
 11
-33.40591117690018
 21
6.127992882795052
 31
0.0
  0
LINE
  5
23D
330
17
100
AcDbEntity
  8
visible
100
AcDbLine
 10
5.181585665560242
 20
-3.0409975141349563
 30
0.0
 11
5.181585665560242
 21
0.08314844515807263
 31
0.0
  0
LINE
  5
23E
330
17
100
AcDbEntity
  8
visible
100
AcDbLine
 10
6.577470614509089
 20
0.9120702083633123
 30
0.0
 11
5.181585665560242
 21
0.0831484451580593
 31
0.0
  0
ELLIPSE
  5
23F
330
17
100
AcDbEntity
  8
visible
100
AcDbEllipse
 10
-32.29907488016756
 20
9.909414139280784
 30
0.0
 11
-2.0
 21
-0.0
 31
0.0
 40
0.3945686647862854
 41
-6.283185307179586
 42
-5.298851544133228
  0
LINE
  5
240
330
17
100
AcDbEntity
  8
visible
100
AcDbLine
 10
-33.40591117690018
 20
6.1279928827950645
 30
0.0
 11
-33.40591117690018
 21
9.252138842088094
 31
0.0
  0
ELLIPSE
  5
241
330
17
100
AcDbEntity
  8
visible
100
AcDbEllipse
 10
3.5157785301945594
 20
0.5198713648968578
 30
0.0
 11
-2.0
 21
-0.0
 31
0.0
 40
0.3945686647862854
 41
-5.298851544133228
 42
-3.728055217338332
  0
LINE
  5
242
330
17
100
AcDbEntity
  8
visible
100
AcDbLine
 10
2.4089422334619375
 20
-3.261549891588876
 30
0.0
 11
2.4089422334619375
 21
-0.13740393229584758
 31
0.0
  0
LINE
  5
243
330
17
100
AcDbEntity
  8
visible
100
AcDbLine
 10
2.4089422334619375
 20
-0.1374039322958538
 30
0.0
 11
-33.40591117690018
 21
9.252138842088083
 31
0.0
  0
ELLIPSE
  5
244
330
17
100
AcDbEntity
  8
visible
100
AcDbEllipse
 10
4.515262811413969
 20
0.25783761305358155
 30
0.0
 11
-0.408472928236891
 21
0.687858900427682
 31
0.0
 40
0.7653271516050272
 41
4.052504559671332
 42
5.623300886466229
  0
ELLIPSE
  5
245
330
17
100
AcDbEntity
  8
visible
100
AcDbEllipse
 10
-32.96317665820713
 20
9.515048960965174
 30
0.0
 11
0.20287883060718082
 21
0.7738476465632385
 31
0.0
 40
0.5085173741229534
 41
-5.807170837553233
 42
-4.236374510758337
  0
ELLIPSE
  5
246
330
17
100
AcDbEntity
  8
visible
100
AcDbEllipse
 10
2.8516767521549866
 20
0.1255061865812337
 30
0.0
 11
0.20287883060718082
 21
0.7738476465632385
 31
0.0
 40
0.5085173741229534
 41
-5.807170837553233
 42
-4.236374510758337
  0
ELLIPSE
  5
247
330
17
100
AcDbEntity
  8
visible
100
AcDbEllipse
 10
-33.41146386716693
 20
15.085333708970794
 30
0.0
 11
4.0
 21
0.0
 31
0.0
 40
0.3945686647862854
 41
3.141592653589793
 42
4.125926416636151
  0
ELLIPSE
  5
248
330
17
100
AcDbEntity
  8
visible
100
AcDbEllipse
 10
-33.41146386716693
 20
53.67772497082585
 30
0.0
 11
4.0
 21
0.0
 31
0.0
 40
0.3945686647862854
 41
3.141592653589793
 42
4.125926416636151
  0
LINE
  5
249
330
17
100
AcDbEntity
  8
visible
100
AcDbLine
 10
-35.62513646063218
 20
13.770783114585399
 30
0.0
 11
-35.62513646063218
 21
52.36317437644046
 31
0.0
  0
ELLIPSE
  5
24A
330
17
100
AcDbEntity
  8
visible
100
AcDbEllipse
 10
-33.41146386716693
 20
53.67772497082585
 30
0.0
 11
-2.042364641184455
 21
3.4392945021384103
 31
0.0
 40
0.7653271516050272
 41
5.623300886466229
 42
6.283185307179586
  0
LINE
  5
24B
330
17
100
AcDbEntity
  8
visible
100
AcDbLine
 10
-33.41146386716693
 20
57.35319080528825
 30
0.0
 11
-7.400810893950297
 21
72.79916028931677
 31
0.0
  0
ELLIPSE
  5
24C
330
17
100
AcDbEntity
  8
visible
100
AcDbEllipse
 10
-7.400810893950293
 20
69.12369445485439
 30
0.0
 11
2.042364641184455
 21
-3.4392945021384103
 31
0.0
 40
0.7653271516050272
 41
-3.8014770743031505
 42
-3.141592653589793
  0
ELLIPSE
  5
24D
330
17
100
AcDbEntity
  8
visible
100
AcDbEllipse
 10
-33.41146386716693
 20
15.085333708970794
 30
0.0
 11
1.014394153035904
 21
3.8692382328161923
 31
0.0
 40
0.5085173741229534
 41
-4.236374510758337
 42
-3.141592653589793
  0
ELLIPSE
  5
24E
330
17
100
AcDbEntity
  8
visible
100
AcDbEllipse
 10
-33.41146386716693
 20
53.67772497082585
 30
0.0
 11
-1.014394153035904
 21
-3.8692382328161923
 31
0.0
 40
0.5085173741229534
 41
3.617607123216146
 42
5.188403450011043
  0
LINE
  5
24F
330
17
100
AcDbEntity
  8
visible
100
AcDbLine
 10
-35.62513646063218
 20
13.770783114585392
 30
0.0
 11
3.521331220461306
 21
3.5077945007238807
 31
0.0
  0
LINE
  5
250
330
17
100
AcDbEntity
  8
visible
100
AcDbLine
 10
-35.62513646063218
 20
52.36317437644045
 30
0.0
 11
3.521331220461306
 21
42.10018576257894
 31
0.0
  0
LINE
  5
251
330
17
100
AcDbEntity
  8
visible
100
AcDbLine
 10
3.521331220461308
 20
3.507794500723882
 30
0.0
 11
3.521331220461308
 21
42.100185762578946
 31
0.0
  0
LINE
  5
252
330
17
100
AcDbEntity
  8
visible
100
AcDbLine
 10
-33.41146386716693
 20
57.35319080528824
 30
0.0
 11
5.735003813926554
 21
47.090202191426734
 31
0.0
  0
LINE
  5
253
330
17
100
AcDbEntity
  8
visible
100
AcDbLine
 10
-7.400810893950291
 20
72.79916028931677
 30
0.0
 11
31.74565678714319
 21
62.53617167545526
 31
0.0
  0
LINE
  5
254
330
17
100
AcDbEntity
  8
visible
100
AcDbLine
 10
5.735003813926554
 20
47.09020219142673
 30
0.0
 11
31.74565678714319
 21
62.53617167545525
 31
0.0
  0
ELLIPSE
  5
255
330
17
100
AcDbEntity
  8
visible
100
AcDbEllipse
 10
-7.400810893950293
 20
69.12369445485439
 30
0.0
 11
-1.0143941530359037
 21
-3.8692382328161927
 31
0.0
 40
0.5085173741229535
 41
3.141592653589793
 42
3.617607123216146
  0
ELLIPSE
  5
256
330
17
100
AcDbEntity
  8
visible
100
AcDbEllipse
 10
5.735003813926554
 20
4.822345095109284
 30
0.0
 11
1.014394153035904
 21
3.8692382328161923
 31
0.0
 40
0.5085173741229534
 41
-4.236374510758337
 42
-3.141592653589793
  0
ELLIPSE
  5
257
330
17
100
AcDbEntity
  8
visible
100
AcDbEllipse
 10
5.735003813926554
 20
43.41473635696434
 30
0.0
 11
-1.014394153035904
 21
-3.8692382328161923
 31
0.0
 40
0.5085173741229534
 41
3.617607123216146
 42
5.188403450011043
  0
LINE
  5
258
330
17
100
AcDbEntity
  8
visible
100
AcDbLine
 10
9.066618084657911
 20
3.9488992556317153
 30
0.0
 11
9.066618084657911
 21
42.54129051748678
 31
0.0
  0
ELLIPSE
  5
259
330
17
100
AcDbEntity
  8
visible
100
AcDbEllipse
 10
5.735003813926554
 20
4.822345095109284
 30
0.0
 11
-4.0
 21
-0.0
 31
0.0
 40
0.3945686647862854
 41
-5.298851544133228
 42
-3.728055217338332
  0
ELLIPSE
  5
25A
330
17
100
AcDbEntity
  8
visible
100
AcDbEllipse
 10
5.735003813926554
 20
43.41473635696434
 30
0.0
 11
-4.0
 21
-0.0
 31
0.0
 40
0.3945686647862854
 41
-5.298851544133228
 42
-3.728055217338332
  0
ELLIPSE
  5
25B
330
17
100
AcDbEntity
  8
visible
100
AcDbEllipse
 10
5.735003813926554
 20
4.822345095109284
 30
0.0
 11
-2.042364641184455
 21
3.4392945021384103
 31
0.0
 40
0.7653271516050272
 41
3.141592653589793
 42
4.052504559671332
  0
LINE
  5
25C
330
17
100
AcDbEntity
  8
visible
100
AcDbLine
 10
9.066618084657911
 20
3.9488992556317135
 30
0.0
 11
19.225222869766306
 21
9.981408307698239
 31
0.0
  0
ELLIPSE
  5
25D
330
17
100
AcDbEntity
  8
visible
100
AcDbEllipse
 10
31.74565678714319
 20
58.86070584099288
 30
0.0
 11
-1.0143941530359042
 21
-3.8692382328161923
 31
0.0
 40
0.5085173741229534
 41
3.141592653589793
 42
3.617607123216146
  0
ELLIPSE
  5
25E
330
17
100
AcDbEntity
  8
visible
100
AcDbEllipse
 10
5.735003813926554
 20
43.41473635696434
 30
0.0
 11
2.042364641184455
 21
-3.4392945021384103
 31
0.0
 40
0.7653271516050272
 41
-5.372273401098047
 42
-3.8014770743031505
  0
LINE
  5
25F
330
17
100
AcDbEntity
  8
visible
100
AcDbLine
 10
9.066618084657911
 20
42.54129051748677
 30
0.0
 11
35.07727105787455
 21
57.987260001515295
 31
0.0
  0
ELLIPSE
  5
260
330
17
100
AcDbEntity
  8
visible
100
AcDbEllipse
 10
31.74565678714319
 20
58.86070584099288
 30
0.0
 11
-2.042364641184455
 21
3.4392945021384103
 31
0.0
 40
0.7653271516050272
 41
4.052504559671332
 42
5.623300886466229
  0
LINE
  5
261
330
17
100
AcDbEntity
  8
visible
100
AcDbLine
 10
35.07727105787455
 20
56.14866062844435
 30
0.0
 11
35.07727105787455
 21
57.9872600015153
 31
0.0
  0
ELLIPSE
  5
262
330
17
100
AcDbEntity
  8
visible
100
AcDbEllipse
 10
31.74565678714319
 20
58.86070584099288
 30
0.0
 11
-4.0
 21
-0.0
 31
0.0
 40
0.3945686647862854
 41
-3.728055217338332
 42
-3.1415926535897936
  0
LINE
  5
263
330
17
100
AcDbEntity
  8
visible
100
AcDbLine
 10
-85.50797156207369
 20
-63.099622241801804
 30
0.0
 11
-85.50797156207369
 21
-33.51212227437959
 31
0.0
  0
SPLINE
  5
264
330
17
100
AcDbEntity
  8
visible
100
AcDbSpline
 70
0
 71
3
 72
17
 73
13
 74
0
 40
0.0
 40
0.0
 40
0.0
 40
0.0
 40
0.36806278172325935
 40
0.36806278172325935
 40
0.36806278172325935
 40
0.5138544889818762
 40
0.5138544889818762
 40
0.5138544889818762
 40
0.6319372182767407
 40
0.6319372182767407
 40
0.6319372182767407
 40
1.0
 40
1.0
 40
1.0
 40
1.0
 10
-75.4433151380467
 20
-70.84058803860769
 30
0.0
 10
-78.19279584552348
 20
-70.11999597062236
 30
0.0
 10
-80.52984571099827
 20
-69.14926902137074
 30
0.0
 10
-82.24950408605436
 20
-67.98971083554804
 30
0.0
 10
-82.93315002270913
 20
-67.5300885394338
 30
0.0
 10
-83.517056126161
 20
-67.04037183479018
 30
0.0
 10
-84.00122239640989
 20
-66.5205607216171
 30
0.0
 10
-84.39333140670645
 20
-66.09944193041456
 30
0.0
 10
-84.71277780420534
 20
-65.65875268470032
 30
0.0
 10
-84.95956158890652
 20
-65.1984929844744
 30
0.0
 10
-85.31695210960045
 20
-64.5301290482635
 30
0.0
 10
-85.50870721948631
 20
-63.81713106775634
 30
0.0
 10
-85.5079715620737
 20
-63.09962224180181
 30
0.0
  0
LINE
  5
265
330
17
100
AcDbEntity
  8
visible
100
AcDbLine
 10
83.84216448204995
 20
-59.95930693541846
 30
0.0
 11
83.84216448204995
 21
-30.371806967996246
 31
0.0
  0
LINE
  5
266
330
17
100
AcDbEntity
  8
visible
100
AcDbLine
 10
7.847041630237314
 20
-92.67673402554708
 30
0.0
 11
-75.44331513804669
 21
-70.84058803860769
 31
0.0
  0
SPLINE
  5
267
330
17
100
AcDbEntity
  8
visible
100
AcDbSpline
 70
0
 71
1
 72
4
 73
2
 74
0
 40
0.0
 40
0.0
 40
1.0
 40
1.0
 10
-40.82715999764715
 20
-57.18491328722236
 30
0.0
 10
-41.15921088666693
 20
-57.38209587638016
 30
0.0
  0
SPLINE
  5
268
330
17
100
AcDbEntity
  8
visible
100
AcDbSpline
 70
0
 71
1
 72
4
 73
2
 74
0
 40
0.0
 40
0.0
 40
1.0
 40
1.0
 10
-38.89754549128397
 20
-60.90587327619339
 30
0.0
 10
-39.05785019298886
 20
-61.001067408121926
 30
0.0
  0
SPLINE
  5
269
330
17
100
AcDbEntity
  8
visible
100
AcDbSpline
 70
0
 71
3
 72
14
 73
10
 74
0
 40
0.0
 40
0.0
 40
0.0
 40
0.0
 40
0.25
 40
0.25
 40
0.25
 40
0.5
 40
0.5
 40
0.5
 40
1.0
 40
1.0
 40
1.0
 40
1.0
 10
83.84216448204998
 20
-59.95930693541846
 30
0.0
 10
83.84269207325866
 20
-60.59467332442696
 30
0.0
 10
83.69257960453945
 20
-61.22745663955543
 30
0.0
 10
83.40953847487756
 20
-61.82749958151165
 30
0.0
 10
83.12351335120775
 20
-62.42895495875626
 30
0.0
 10
82.71636174172446
 20
-62.998030305164505
 30
0.0
 10
82.18808364642747
 20
-63.53472562073637
 30
0.0
 10
81.57279353778259
 20
-64.16000467821081
 30
0.0
 10
80.8128300040278
 20
-64.74057239965776
 30
0.0
 10
79.90819304516306
 20
-65.27642878507727
 30
0.0
  0
LINE
  5
26A
330
17
100
AcDbEntity
  8
visible
100
AcDbLine
 10
79.90819304516306
 20
-65.27642878507729
 30
0.0
 11
37.848413769323386
 21
-90.25289007840001
 31
0.0
  0
SPLINE
  5
26B
330
17
100
AcDbEntity
  8
visible
100
AcDbSpline
 70
0
 71
3
 72
17
 73
13
 74
0
 40
0.0
 40
0.0
 40
0.0
 40
0.0
 40
0.18614523567164348
 40
0.18614523567164348
 40
0.18614523567164348
 40
0.39130401805110987
 40
0.39130401805110987
 40
0.39130401805110987
 40
0.6259507106077008
 40
0.6259507106077008
 40
0.6259507106077008
 40
1.0
 40
1.0
 40
1.0
 40
1.0
 10
37.8484137693234
 20
-90.25289007840003
 30
0.0
 10
36.64995660057743
 20
-90.96465636285971
 30
0.0
 10
35.208906372393365
 20
-91.59592307553613
 30
0.0
 10
33.577291073578344
 20
-92.13063386953483
 30
0.0
 10
31.779890965969475
 20
-92.71997134882747
 30
0.0
 10
29.75108404164735
 20
-93.19080542773064
 30
0.0
 10
27.58841441367432
 20
-93.52246977753711
 30
0.0
 10
25.11563028114693
 20
-93.90240973934151
 30
0.0
 10
22.468852155263605
 20
-94.09920373352656
 30
0.0
 10
19.820123739401872
 20
-94.10061285980812
 30
0.0
 10
15.595958361205538
 20
-94.10612553873462
 30
0.0
 10
11.38088125474249
 20
-93.60637331693171
 30
0.0
 10
7.847041630237315
 20
-92.67673402554706
 30
0.0
  0
SPLINE
  5
26C
330
17
100
AcDbEntity
  8
visible
100
AcDbSpline
 70
0
 71
2
 72
6
 73
3
 74
0
 40
0.0
 40
0.0
 40
0.0
 40
0.09678886374319555
 40
0.09678886374319555
 40
0.09678886374319555
 10
-85.50797156207369
 20
-27.815150230962885
 30
0.0
 10
-85.50791628794515
 20
-27.445941357610593
 30
0.0
 10
-85.44190322060106
 20
-27.080050777933977
 30
0.0
  0
SPLINE
  5
26D
330
17
100
AcDbEntity
  8
visible
100
AcDbSpline
 70
0
 71
2
 72
6
 73
3
 74
0
 40
0.0
 40
0.0
 40
0.0
 40
1.0
 40
1.0
 40
1.0
 10
83.7760961405773
 20
-23.939748043823435
 30
0.0
 10
83.84208910847964
 20
-24.30558860604492
 30
0.0
 10
83.84216448204998
 20
-24.674834924579542
 30
0.0
  0
LINE
  5
26E
330
17
100
AcDbEntity
  8
visible
100
AcDbLine
 10
83.84216448204995
 20
-29.26916721765753
 30
0.0
 11
83.84216448204995
 21
-24.674834924579542
 31
0.0
  0
LINE
  5
26F
330
17
100
AcDbEntity
  8
visible
100
AcDbLine
 10
-85.50797156207369
 20
-32.40948252404087
 30
0.0
 11
-85.50797156207369
 21
-27.815150230962885
 31
0.0
  0
LINE
  5
270
330
17
100
AcDbEntity
  8
visible
100
AcDbLine
 10
-85.50797156207369
 20
-26.344963897177934
 30
0.0
 11
-85.50797156207369
 21
-24.1396843965005
 31
0.0
  0
LINE
  5
271
330
17
100
AcDbEntity
  8
visible
100
AcDbLine
 10
-81.5740001251868
 20
-18.822562546841667
 30
0.0
 11
-58.57253565009778
 21
-5.16354680678986
 31
0.0
  0
SPLINE
  5
272
330
17
100
AcDbEntity
  8
visible
100
AcDbSpline
 70
0
 71
3
 72
17
 73
13
 74
0
 40
0.0
 40
0.0
 40
0.0
 40
0.0
 40
0.3680627817232602
 40
0.3680627817232602
 40
0.3680627817232602
 40
0.5138544889818768
 40
0.5138544889818768
 40
0.5138544889818768
 40
0.6319372182767399
 40
0.6319372182767399
 40
0.6319372182767399
 40
1.0
 40
1.0
 40
1.0
 40
1.0
 10
-75.4433151380467
 20
-34.08592969398383
 30
0.0
 10
-78.19279584552348
 20
-33.36533762599848
 30
0.0
 10
-80.52984571099832
 20
-32.3946106767469
 30
0.0
 10
-82.2495040860543
 20
-31.23505249092418
 30
0.0
 10
-82.93315002270907
 20
-30.775430194809918
 30
0.0
 10
-83.51705612616105
 20
-30.285713490166295
 30
0.0
 10
-84.0012223964099
 20
-29.765902376993253
 30
0.0
 10
-84.39333140670644
 20
-29.34478358579067
 30
0.0
 10
-84.71277780420536
 20
-28.904094340076433
 30
0.0
 10
-84.95956158890652
 20
-28.443834639850532
 30
0.0
 10
-85.31695210960055
 20
-27.775470703639655
 30
0.0
 10
-85.50870721948625
 20
-27.062472723132448
 30
0.0
 10
-85.5079715620737
 20
-26.34496389717794
 30
0.0
  0
SPLINE
  5
273
330
17
100
AcDbEntity
  8
visible
100
AcDbSpline
 70
0
 71
3
 72
14
 73
10
 74
0
 40
0.0
 40
0.0
 40
0.0
 40
0.0
 40
0.25
 40
0.25
 40
0.25
 40
0.5
 40
0.5
 40
0.5
 40
1.0
 40
1.0
 40
1.0
 40
1.0
 10
-85.50797156207369
 20
-24.139684396500503
 30
0.0
 10
-85.50849915328251
 20
-23.50431800749202
 30
0.0
 10
-85.3583866845631
 20
-22.871534692363515
 30
0.0
 10
-85.0753455549013
 20
-22.271491750407307
 30
0.0
 10
-84.78932043123152
 20
-21.670036373162713
 30
0.0
 10
-84.38216882174815
 20
-21.100961026754486
 30
0.0
 10
-83.85389072645121
 20
-20.564265711182586
 30
0.0
 10
-83.23860061780633
 20
-19.938986653708177
 30
0.0
 10
-82.47863708405153
 20
-19.358418932261195
 30
0.0
 10
-81.5740001251868
 20
-18.822562546841667
 30
0.0
  0
LINE
  5
274
330
17
100
AcDbEntity
  8
visible
100
AcDbLine
 10
7.847041630237314
 20
-55.922075680923214
 30
0.0
 11
-75.44331513804669
 21
-34.08592969398383
 31
0.0
  0
SPLINE
  5
275
330
17
100
AcDbEntity
  8
visible
100
AcDbSpline
 70
0
 71
3
 72
17
 73
13
 74
0
 40
0.0
 40
0.0
 40
0.0
 40
0.0
 40
0.1861452356716429
 40
0.1861452356716429
 40
0.1861452356716429
 40
0.39130401805110615
 40
0.39130401805110615
 40
0.39130401805110615
 40
0.6259507106077006
 40
0.6259507106077006
 40
0.6259507106077006
 40
1.0
 40
1.0
 40
1.0
 40
1.0
 10
37.8484137693234
 20
-53.49823173377615
 30
0.0
 10
36.64995660057746
 20
-54.20999801823586
 30
0.0
 10
35.20890637239332
 20
-54.84126473091227
 30
0.0
 10
33.57729107357838
 20
-55.375975524910956
 30
0.0
 10
31.779890965969457
 20
-55.965313004203686
 30
0.0
 10
29.751084041647342
 20
-56.436147083106704
 30
0.0
 10
27.588414413674304
 20
-56.76781143291322
 30
0.0
 10
25.115630281146952
 20
-57.14775139471773
 30
0.0
 10
22.468852155263605
 20
-57.34454538890264
 30
0.0
 10
19.820123739401872
 20
-57.34595451518428
 30
0.0
 10
15.595958361205561
 20
-57.35146719411068
 30
0.0
 10
11.380881254742519
 20
-56.85171497230789
 30
0.0
 10
7.847041630237314
 20
-55.92207568092321
 30
0.0
  0
SPLINE
  5
276
330
17
100
AcDbEntity
  8
visible
100
AcDbSpline
 70
0
 71
3
 72
14
 73
10
 74
0
 40
0.0
 40
0.0
 40
0.0
 40
0.0
 40
0.25
 40
0.25
 40
0.25
 40
0.5
 40
0.5
 40
0.5
 40
1.0
 40
1.0
 40
1.0
 40
1.0
 10
83.84216448204998
 20
-23.204648590794598
 30
0.0
 10
83.84269207325866
 20
-23.84001497980309
 30
0.0
 10
83.69257960453945
 20
-24.472798294931557
 30
0.0
 10
83.40953847487756
 20
-25.072841236887797
 30
0.0
 10
83.12351335120775
 20
-25.674296614132388
 30
0.0
 10
82.71636174172446
 20
-26.243371960540617
 30
0.0
 10
82.18808364642747
 20
-26.78006727611251
 30
0.0
 10
81.57279353778259
 20
-27.40534633358692
 30
0.0
 10
80.8128300040278
 20
-27.98591405503391
 30
0.0
 10
79.90819304516306
 20
-28.52177044045343
 30
0.0
  0
LINE
  5
277
330
17
100
AcDbEntity
  8
visible
100
AcDbLine
 10
79.90819304516306
 20
-28.52177044045343
 30
0.0
 11
37.848413769323386
 21
-53.498231733776166
 31
0.0
  0
LINE
  5
278
330
17
100
AcDbEntity
  8
visible
100
AcDbLine
 10
65.76829536926329
 20
-11.15863635391931
 30
0.0
 11
73.77750805802295
 21
-13.258403293311261
 31
0.0
  0
SPLINE
  5
279
330
17
100
AcDbEntity
  8
visible
100
AcDbSpline
 70
0
 71
3
 72
17
 73
13
 74
0
 40
0.0
 40
0.0
 40
0.0
 40
0.0
 40
0.36806278172325535
 40
0.36806278172325535
 40
0.36806278172325535
 40
0.513854488981869
 40
0.513854488981869
 40
0.513854488981869
 40
0.6319372182767445
 40
0.6319372182767445
 40
0.6319372182767445
 40
1.0
 40
1.0
 40
1.0
 40
1.0
 10
73.77750805802295
 20
-13.258403293311268
 30
0.0
 10
76.52698876549978
 20
-13.978995361296604
 30
0.0
 10
78.86403863097452
 20
-14.949722310548196
 30
0.0
 10
80.58369700603058
 20
-16.10928049637091
 30
0.0
 10
81.26734294268537
 20
-16.56890279248515
 30
0.0
 10
81.85124904613724
 20
-17.058619497128785
 30
0.0
 10
82.33541531638613
 20
-17.578430610301844
 30
0.0
 10
82.72752432668275
 20
-17.999549401504417
 30
0.0
 10
83.04697072418165
 20
-18.440238647218653
 30
0.0
 10
83.29375450888277
 20
-18.90049834744456
 30
0.0
 10
83.65114502957678
 20
-19.56886228365544
 30
0.0
 10
83.84290013946249
 20
-20.28186026416264
 30
0.0
 10
83.84216448204998
 20
-20.999369090117156
 30
0.0
  0
LINE
  5
27A
330
17
100
AcDbEntity
  8
visible
100
AcDbLine
 10
83.84216448204995
 20
-23.20464859079459
 30
0.0
 11
83.84216448204995
 21
-20.999369090117156
 31
0.0
  0
SPLINE
  5
27B
330
17
100
AcDbEntity
  8
visible
100
AcDbSpline
 70
0
 71
3
 72
14
 73
10
 74
0
 40
0.0
 40
0.0
 40
0.0
 40
0.0
 40
0.2598727013663022
 40
0.2598727013663022
 40
0.2598727013663022
 40
0.629936350683151
 40
0.629936350683151
 40
0.629936350683151
 40
1.0
 40
1.0
 40
1.0
 40
1.0
 10
22.969846221196494
 20
-22.183373631575794
 30
0.0
 10
22.701349791376877
 20
-22.098204737062883
 30
0.0
 10
22.453466078734234
 20
-22.00016666424589
 30
0.0
 10
22.226195083268475
 20
-21.889259413124677
 30
0.0
 10
21.843530790809083
 20
-21.70148147036642
 30
0.0
 10
21.52186023674595
 20
-21.47765871732816
 30
0.0
 10
21.278511852795123
 20
-21.20154824158108
 30
0.0
 10
21.012977285223972
 20
-20.90288263243062
 30
0.0
 10
20.84620543825682
 20
-20.524441162368596
 30
0.0
 10
20.847774077172737
 20
-20.13067653168791
 30
0.0
  0
LINE
  5
27C
330
17
100
AcDbEntity
  8
visible
100
AcDbLine
 10
20.84777407717274
 20
-20.130676531687918
 30
0.0
 11
20.84777407717274
 21
-14.2499311965481
 31
0.0
  0
LINE
  5
27D
330
17
100
AcDbEntity
  8
visible
100
AcDbLine
 10
37.79083001874998
 20
-19.81525212918254
 30
0.0
 11
33.086056260408924
 21
-22.60909940304463
 31
0.0
  0
SPLINE
  5
27E
330
17
100
AcDbEntity
  8
visible
100
AcDbSpline
 70
0
 71
3
 72
8
 73
4
 74
0
 40
0.0
 40
0.0
 40
0.0
 40
0.0
 40
0.999804741754701
 40
0.999804741754701
 40
0.999804741754701
 40
0.999804741754701
 10
19.22522286976631
 20
-4.697446790291309
 30
0.0
 10
19.22335109409319
 20
-8.137051533715294
 30
0.0
 10
19.88791199000146
 20
-11.184924031717925
 30
0.0
 10
21.16111983362871
 20
-13.325873204382635
 30
0.0
  0
SPLINE
  5
27F
330
17
100
AcDbEntity
  8
visible
100
AcDbSpline
 70
0
 71
3
 72
8
 73
4
 74
0
 40
0.0
 40
0.0
 40
0.0
 40
0.0
 40
1.0
 40
1.0
 40
1.0
 40
1.0
 10
21.16210733726232
 20
-13.324509828944166
 30
0.0
 10
20.964771930579246
 20
-13.594315611678368
 30
0.0
 10
20.84671751072471
 20
-13.918498982255436
 30
0.0
 10
20.847774077172737
 20
-14.24993119654809
 30
0.0
  0
LINE
  5
280
330
17
100
AcDbEntity
  8
visible
100
AcDbLine
 10
19.225222869766306
 20
31.597778325024763
 30
0.0
 11
19.225222869766306
 21
-4.697446790291309
 31
0.0
  0
SPLINE
  5
281
330
17
100
AcDbEntity
  8
visible
100
AcDbSpline
 70
0
 71
3
 72
17
 73
13
 74
0
 40
0.0
 40
0.0
 40
0.0
 40
0.0
 40
0.3422926782002649
 40
0.3422926782002649
 40
0.3422926782002649
 40
0.522097203514651
 40
0.522097203514651
 40
0.522097203514651
 40
0.6965828789345347
 40
0.6965828789345347
 40
0.6965828789345347
 40
1.0
 40
1.0
 40
1.0
 40
1.0
 10
29.13554209342996
 20
53.74270786949795
 30
0.0
 10
27.300456283333855
 20
52.6546215212036
 30
0.0
 10
25.531680290757535
 20
50.78771720988775
 30
0.0
 10
24.013982224794866
 20
48.39085814692068
 30
0.0
 10
23.21698331648231
 20
47.13333847343941
 30
0.0
 10
22.490359104091056
 20
45.732651840437775
 30
0.0
 10
21.860367539041196
 20
44.241591823006615
 30
0.0
 10
21.248812127651938
 20
42.794893958969276
 30
0.0
 10
20.728451605054268
 20
41.26349331133837
 30
0.0
 10
20.317829717155995
 20
39.70269794064623
 30
0.0
 10
19.602249454704456
 20
36.98831048745443
 30
0.0
 10
19.2238998235639
 20
34.18759136791789
 30
0.0
 10
19.225222869766302
 20
31.59777832502476
 30
0.0
  0
LINE
  5
282
330
17
100
AcDbEntity
  8
visible
100
AcDbLine
 10
31.34921468689521
 20
55.05725846388336
 30
0.0
 11
29.13554209342996
 21
53.74270786949795
 31
0.0
  0
SPLINE
  5
283
330
17
100
AcDbEntity
  8
visible
100
AcDbSpline
 70
0
 71
3
 72
11
 73
7
 74
0
 40
0.0
 40
0.0
 40
0.0
 40
0.0
 40
0.41832238412327744
 40
0.41832238412327744
 40
0.41832238412327744
 40
1.0
 40
1.0
 40
1.0
 40
1.0
 10
36.322461303793666
 20
55.97646852294028
 30
0.0
 10
35.663616242925734
 20
56.14950196703421
 30
0.0
 10
34.97165612573036
 20
56.19237821465778
 30
0.0
 10
34.27228269062464
 20
56.10788422864019
 30
0.0
 10
33.29907646368493
 20
55.99084952750868
 30
0.0
 10
32.31331642895004
 20
55.63002348419127
 30
0.0
 10
31.349214686895216
 20
55.05725846388336
 30
0.0
  0
LINE
  5
284
330
17
100
AcDbEntity
  8
visible
100
AcDbLine
 10
39.987237001598174
 20
55.015678099514936
 30
0.0
 11
36.32246130379367
 21
55.97646852294027
 31
0.0
  0
SPLINE
  5
285
330
17
100
AcDbEntity
  8
visible
100
AcDbSpline
 70
0
 71
2
 72
6
 73
3
 74
0
 40
0.0
 40
0.0
 40
0.0
 40
1.0
 40
1.0
 40
1.0
 10
40.64206620532501
 20
54.797186301157
 30
0.0
 10
40.32115342840776
 20
54.92812724500732
 30
0.0
 10
39.987237001598174
 20
55.01567809951495
 30
0.0
  0
LINE
  5
286
330
17
100
AcDbEntity
  8
visible
100
AcDbLine
 10
-58.83290354001186
 20
-20.364247242631404
 30
0.0
 11
-58.83290354001186
 21
-7.408230176151482
 31
0.0
  0
SPLINE
  5
287
330
17
100
AcDbEntity
  8
visible
100
AcDbSpline
 70
0
 71
3
 72
11
 73
7
 74
0
 40
0.0
 40
0.0
 40
0.0
 40
0.0
 40
0.43373735500452276
 40
0.43373735500452276
 40
0.43373735500452276
 40
1.0
 40
1.0
 40
1.0
 40
1.0
 10
-52.44773987891717
 20
3.3461371090669805
 30
0.0
 10
-54.23044259345795
 20
1.944939271445428
 30
0.0
 10
-55.66801601100714
 20
0.46133495021191273
 30
0.0
 10
-56.725300322526806
 20
-1.0874897616941668
 30
0.0
 10
-58.10646005715789
 20
-3.1068791846806807
 30
0.0
 10
-58.83480949998414
 20
-5.2506607087445385
 30
0.0
 10
-58.83290354001186
 20
-7.408230176151484
 30
0.0
  0
SPLINE
  5
288
330
17
100
AcDbEntity
  8
visible
100
AcDbSpline
 70
0
 71
3
 72
11
 73
7
 74
0
 40
0.0
 40
0.0
 40
0.0
 40
0.0
 40
0.5
 40
0.5
 40
0.5
 40
0.8614045601285083
 40
0.8614045601285083
 40
0.8614045601285083
 40
0.8614045601285083
 10
47.217653459683476
 20
-33.542381647588414
 30
0.0
 10
51.22411926816881
 20
-31.16334199261346
 30
0.0
 10
54.140427428320855
 20
-28.470966857400292
 30
0.0
 10
55.74615630409174
 20
-25.57385753918961
 30
0.0
 10
56.421884669212545
 20
-24.35521750995668
 30
0.0
 10
56.86438971687631
 20
-23.09960596470551
 30
0.0
 10
57.056376183713745
 20
-21.82922493842121
 30
0.0
  0
SPLINE
  5
289
330
17
100
AcDbEntity
  8
visible
100
AcDbSpline
 70
0
 71
3
 72
26
 73
22
 74
0
 40
0.0
 40
0.0
 40
0.0
 40
0.0
 40
0.15148628068716719
 40
0.15148628068716719
 40
0.15148628068716719
 40
0.28345286145379145
 40
0.28345286145379145
 40
0.28345286145379145
 40
0.4781288599759964
 40
0.4781288599759964
 40
0.4781288599759964
 40
0.6858577248966293
 40
0.6858577248966293
 40
0.6858577248966293
 40
0.8935865898172624
 40
0.8935865898172624
 40
0.8935865898172624
 40
0.9467932949086312
 40
0.9467932949086312
 40
0.9467932949086312
 40
1.0
 40
1.0
 40
1.0
 40
1.0
 10
-58.83290354001186
 20
-20.364247242631407
 30
0.0
 10
-58.83486329921664
 20
-22.546467479038725
 30
0.0
 10
-58.089731911498106
 20
-24.71423633899267
 30
0.0
 10
-56.67791571660322
 20
-26.75399050256369
 30
0.0
 10
-55.4487468239396
 20
-28.53332852483916
 30
0.0
 10
-53.71717531840186
 20
-30.225991639765276
 30
0.0
 10
-51.536537425000986
 20
-31.805935999881658
 30
0.0
 10
-48.32151778853854
 20
-34.13662393333439
 30
0.0
 10
-44.11957767569048
 20
-36.222580579946765
 30
0.0
 10
-39.16093360521548
 20
-37.96607833419965
 30
0.0
 10
-33.87303531729772
 20
-39.82749237683782
 30
0.0
 10
-27.72213920728894
 20
-41.295407567942455
 30
0.0
 10
-21.111378475407555
 20
-42.2765262427027
 30
0.0
 10
-14.503013641993189
 20
-43.2597954171458
 30
0.0
 10
-7.434788948220589
 20
-43.75626845297274
 30
0.0
 10
-0.3769227513856422
 20
-43.732861676493265
 30
0.0
 10
8.99012100307963
 20
-43.707465915384304
 30
0.0
 10
18.33843686967675
 20
-42.757264372318325
 30
0.0
 10
26.58139033915367
 20
-40.99086088951067
 30
0.0
 10
34.83453444279225
 20
-39.23011923850269
 30
0.0
 10
41.980387733877244
 20
-36.658247780326036
 30
0.0
 10
47.217653459683476
 20
-33.542381647588414
 30
0.0
  0
LINE
  5
28A
330
17
100
AcDbEntity
  8
visible
100
AcDbLine
 10
51.13241335824647
 20
-23.313001122005897
 30
0.0
 11
35.97356842641878
 21
-19.33882255238293
 31
0.0
  0
LINE
  5
28B
330
17
100
AcDbEntity
  8
visible
100
AcDbLine
 10
24.22264427586334
 20
30.287609565808395
 30
0.0
 11
24.22264427586334
 21
-6.007615549507676
 31
0.0
  0
SPLINE
  5
28C
330
17
100
AcDbEntity
  8
visible
100
AcDbSpline
 70
0
 71
3
 72
8
 73
4
 74
0
 40
0.0
 40
0.0
 40
0.0
 40
0.0
 40
1.0
 40
1.0
 40
1.0
 40
1.0
 10
24.22264427586334
 20
-6.007615549507676
 30
0.0
 10
24.221140093180228
 20
-9.187980317979212
 30
0.0
 10
24.78889178864028
 20
-12.03642848689432
 30
0.0
 10
25.88211377970672
 20
-14.137835973534486
 30
0.0
  0
SPLINE
  5
28D
330
17
100
AcDbEntity
  8
visible
100
AcDbSpline
 70
0
 71
3
 72
11
 73
7
 74
0
 40
0.0
 40
0.0
 40
0.0
 40
0.0
 40
0.41832238412329725
 40
0.41832238412329725
 40
0.41832238412329725
 40
1.0
 40
1.0
 40
1.0
 40
1.0
 10
51.13241335824647
 20
-23.3130011220059
 30
0.0
 10
51.791258419114364
 20
-23.486034566099825
 30
0.0
 10
52.483218536309806
 20
-23.528910813723396
 30
0.0
 10
53.1825919714155
 20
-23.44441682770576
 30
0.0
 10
54.15579819835518
 20
-23.327382126574324
 30
0.0
 10
55.141558233090116
 20
-22.96655608325688
 30
0.0
 10
56.10565997514492
 20
-22.39379106294897
 30
0.0
  0
SPLINE
  5
28E
330
17
100
AcDbEntity
  8
visible
100
AcDbSpline
 70
0
 71
3
 72
17
 73
13
 74
0
 40
0.0
 40
0.0
 40
0.0
 40
0.0
 40
0.3422926782002649
 40
0.3422926782002649
 40
0.3422926782002649
 40
0.522097203514651
 40
0.522097203514651
 40
0.522097203514651
 40
0.6965828789345347
 40
0.6965828789345347
 40
0.6965828789345347
 40
1.0
 40
1.0
 40
1.0
 40
1.0
 10
34.132963499527
 20
52.43253911028158
 30
0.0
 10
32.297877689430884
 20
51.34445276198726
 30
0.0
 10
30.52910169685459
 20
49.47754845067138
 30
0.0
 10
29.011403630891905
 20
47.08068938770431
 30
0.0
 10
28.214404722579353
 20
45.82316971422306
 30
0.0
 10
27.48778051018811
 20
44.42248308122139
 30
0.0
 10
26.857788945138225
 20
42.93142306379025
 30
0.0
 10
26.246233533748967
 20
41.48472519975294
 30
0.0
 10
25.72587301115131
 20
39.95332455212198
 30
0.0
 10
25.315251123253034
 20
38.392529181429865
 30
0.0
 10
24.599670860801506
 20
35.678141728238046
 30
0.0
 10
24.221321229660944
 20
32.87742260870152
 30
0.0
 10
24.22264427586334
 20
30.287609565808392
 30
0.0
  0
LINE
  5
28F
330
17
100
AcDbEntity
  8
visible
100
AcDbLine
 10
56.105659975144924
 20
-22.39379106294897
 30
0.0
 11
58.31933256861017
 21
-21.079240468563565
 31
0.0
  0
LINE
  5
290
330
17
100
AcDbEntity
  8
visible
100
AcDbLine
 10
36.34663609299225
 20
53.74708970466699
 30
0.0
 11
34.132963499527
 21
52.43253911028158
 31
0.0
  0
SPLINE
  5
291
330
17
100
AcDbEntity
  8
visible
100
AcDbSpline
 70
0
 71
3
 72
11
 73
7
 74
0
 40
0.0
 40
0.0
 40
0.0
 40
0.0
 40
0.41832238412327744
 40
0.41832238412327744
 40
0.41832238412327744
 40
1.0
 40
1.0
 40
1.0
 40
1.0
 10
41.31988270989072
 20
54.66629976372391
 30
0.0
 10
40.66103764902278
 20
54.83933320781784
 30
0.0
 10
39.9690775318274
 20
54.88220945544144
 30
0.0
 10
39.2697040967217
 20
54.79771546942382
 30
0.0
 10
38.29649786978196
 20
54.680680768292305
 30
0.0
 10
37.310737835047064
 20
54.319854724974924
 30
0.0
 10
36.34663609299224
 20
53.74708970466699
 30
0.0
  0
SPLINE
  5
292
330
17
100
AcDbEntity
  8
visible
100
AcDbSpline
 70
0
 71
3
 72
17
 73
13
 74
0
 40
0.0
 40
0.0
 40
0.0
 40
0.0
 40
0.3422926782003
 40
0.3422926782003
 40
0.3422926782003
 40
0.5220972035146809
 40
0.5220972035146809
 40
0.5220972035146809
 40
0.6965828789345544
 40
0.6965828789345544
 40
0.6965828789345544
 40
1.0
 40
1.0
 40
1.0
 40
1.0
 10
58.31933256861017
 20
-21.07924046856357
 30
0.0
 10
60.15441837870638
 20
-19.991154120269197
 30
0.0
 10
61.92319437128259
 20
-18.12424980895331
 30
0.0
 10
63.44089243724531
 20
-15.727390745986305
 30
0.0
 10
64.23789134555777
 20
-14.469871072505033
 30
0.0
 10
64.96451555794901
 20
-13.069184439503475
 30
0.0
 10
65.59450712299898
 20
-11.57812442207224
 30
0.0
 10
66.20606253438821
 20
-10.131426558034885
 30
0.0
 10
66.72642305698585
 20
-8.600025910403977
 30
0.0
 10
67.1370449448842
 20
-7.039230539711841
 30
0.0
 10
67.8526252073357
 20
-4.324843086520043
 30
0.0
 10
68.23097483847624
 20
-1.5241239669834923
 30
0.0
 10
68.22965179227384
 20
1.0656890759096238
 30
0.0
  0
LINE
  5
293
330
17
100
AcDbEntity
  8
visible
100
AcDbLine
 10
68.22965179227384
 20
1.0656890759096243
 30
0.0
 11
68.22965179227384
 21
37.360914191225696
 31
0.0
  0
SPLINE
  5
294
330
17
100
AcDbEntity
  8
visible
100
AcDbSpline
 70
0
 71
3
 72
17
 73
13
 74
0
 40
0.0
 40
0.0
 40
0.0
 40
0.0
 40
0.39048594798507963
 40
0.39048594798507963
 40
0.39048594798507963
 40
0.5975331422080554
 40
0.5975331422080554
 40
0.5975331422080554
 40
0.7608171836694785
 40
0.7608171836694785
 40
0.7608171836694785
 40
1.0
 40
1.0
 40
1.0
 40
1.0
 10
68.22965179227384
 20
37.3609141912257
 30
0.0
 10
68.23022299172096
 20
39.711070599024644
 30
0.0
 10
67.92127201819578
 20
41.884758157001095
 30
0.0
 10
67.31680761087217
 20
43.70357815965804
 30
0.0
 10
66.99657840340419
 20
44.668565061148044
 30
0.0
 10
66.59388687207792
 20
45.53534796996102
 30
0.0
 10
66.11222010535151
 20
46.28304791134078
 30
0.0
 10
65.73188480954104
 20
46.87460206705328
 30
0.0
 10
65.30380308877177
 20
47.38654762437717
 30
0.0
 10
64.82797494304387
 20
47.81888458331233
 30
0.0
 10
64.13270556015276
 20
48.449721409965086
 30
0.0
 10
63.33485194933608
 20
48.895403866317345
 30
0.0
 10
62.475633329034856
 20
49.119918683041305
 30
0.0
  0
SPLINE
  5
295
330
17
100
AcDbEntity
  8
visible
100
AcDbSpline
 70
0
 71
3
 72
8
 73
4
 74
0
 40
0.0
 40
0.0
 40
0.0
 40
0.0
 40
1.0
 40
1.0
 40
1.0
 40
1.0
 10
54.08654737569785
 20
9.939444394524912
 30
0.0
 10
53.223750894274744
 20
10.164557222651034
 30
0.0
 10
52.44511334162109
 20
10.688459606455474
 30
0.0
 10
51.80639717515539
 20
11.456623371804852
 30
0.0
  0
SPLINE
  5
296
330
17
100
AcDbEntity
  8
visible
100
AcDbSpline
 70
0
 71
3
 72
8
 73
4
 74
0
 40
0.0
 40
0.0
 40
0.0
 40
0.0
 40
1.0
 40
1.0
 40
1.0
 40
1.0
 10
61.187306446949165
 20
37.02411202423825
 30
0.0
 10
60.32504259152813
 20
37.251256465899075
 30
0.0
 10
59.38952166007768
 20
37.17675322451623
 30
0.0
 10
58.456086121620686
 20
36.820758832360994
 30
0.0
  0
LINE
  5
297
330
17
100
AcDbEntity
  8
visible
100
AcDbLine
 10
62.47563332903485
 20
49.1199186830413
 30
0.0
 11
41.31988270989071
 21
54.666299763723906
 31
0.0
  0
LINE
  5
298
330
17
100
AcDbEntity
  8
visible
100
AcDbLine
 10
54.086547375697826
 20
9.93944439452491
 30
0.0
 11
54.669579873075804
 21
9.786591372616337
 31
0.0
  0
LINE
  5
299
330
17
100
AcDbEntity
  8
visible
100
AcDbLine
 10
61.18730644694916
 20
37.02411202423826
 30
0.0
 11
61.770338944327136
 21
36.87125900232969
 31
0.0
  0
SPLINE
  5
29A
330
17
100
AcDbEntity
  8
visible
100
AcDbSpline
 70
0
 71
3
 72
23
 73
19
 74
0
 40
0.0
 40
0.0
 40
0.0
 40
0.0
 40
0.16066314220879782
 40
0.16066314220879782
 40
0.16066314220879782
 40
0.6411985835518211
 40
0.6411985835518211
 40
0.6411985835518211
 40
0.7215301546562201
 40
0.7215301546562201
 40
0.7215301546562201
 40
0.801861725760619
 40
0.801861725760619
 40
0.801861725760619
 40
0.9111059711419658
 40
0.9111059711419658
 40
0.9111059711419658
 40
1.0
 40
1.0
 40
1.0
 40
1.0
 10
58.42419587281992
 20
10.488411900087044
 30
0.0
 10
58.96142075680266
 20
10.807997966596488
 30
0.0
 10
59.489466834034076
 20
11.210459845566488
 30
0.0
 10
60.00833410451419
 20
11.69579753699705
 30
0.0
 10
61.55666423822546
 20
13.139270851989783
 30
0.0
 10
62.98145930157346
 20
15.304729680984138
 30
0.0
 10
64.05204804568058
 20
17.822829666754227
 30
0.0
 10
64.78447178092883
 20
19.53981211054907
 30
0.0
 10
65.35187865918417
 20
21.41524834192269
 30
0.0
 10
65.70670549138508
 20
23.29058776537029
 30
0.0
 10
66.06276196991993
 20
25.16598720547308
 30
0.0
 10
66.20623840240044
 20
27.04128983764992
 30
0.0
 10
66.12400169711486
 20
28.75962553274135
 30
0.0
 10
66.01430455782584
 20
31.09895034259746
 30
0.0
 10
65.48629789167569
 20
33.14051205150006
 30
0.0
 10
64.59349506709054
 20
34.59309455379857
 30
0.0
 10
63.87072595144873
 20
35.777359068886156
 30
0.0
 10
62.89565595907311
 20
36.578509326702694
 30
0.0
 10
61.770338944327136
 20
36.87125900232968
 30
0.0
  0
SPLINE
  5
29B
330
17
100
AcDbEntity
  8
visible
100
AcDbSpline
 70
0
 71
3
 72
8
 73
4
 74
0
 40
0.0
 40
0.0
 40
0.0
 40
0.0
 40
1.0
 40
1.0
 40
1.0
 40
1.0
 10
54.669579873075826
 20
9.786591372616328
 30
0.0
 10
55.84883982195018
 20
9.474857979504081
 30
0.0
 10
57.156960798294214
 20
9.732395896453959
 30
0.0
 10
58.424195872819936
 20
10.488411900087044
 30
0.0
  0
LINE
  5
29C
330
17
100
AcDbEntity
  8
visible
100
AcDbLine
 10
-47.4070625448609
 20
49.06669511457628
 30
0.0
 11
-47.4070625448609
 21
12.771469999260205
 31
0.0
  0
SPLINE
  5
29D
330
17
100
AcDbEntity
  8
visible
100
AcDbSpline
 70
0
 71
3
 72
8
 73
4
 74
0
 40
0.0
 40
0.0
 40
0.0
 40
0.0
 40
1.0
 40
1.0
 40
1.0
 40
1.0
 10
-47.40706254486089
 20
12.771469999260205
 30
0.0
 10
-47.40866688283805
 20
9.517851096507
 30
0.0
 10
-46.814330215879544
 20
6.612498292795569
 30
0.0
 10
-45.67154131096897
 20
4.497453212460513
 30
0.0
  0
SPLINE
  5
29E
330
17
100
AcDbEntity
  8
visible
100
AcDbSpline
 70
0
 71
3
 72
17
 73
13
 74
0
 40
0.0
 40
0.0
 40
0.0
 40
0.0
 40
0.3422926782002649
 40
0.3422926782002649
 40
0.3422926782002649
 40
0.522097203514651
 40
0.522097203514651
 40
0.522097203514651
 40
0.6965828789345347
 40
0.6965828789345347
 40
0.6965828789345347
 40
1.0
 40
1.0
 40
1.0
 40
1.0
 10
-37.496743321197236
 20
71.21162465904946
 30
0.0
 10
-39.33182913129334
 20
70.12353831075514
 30
0.0
 10
-41.100605123869656
 20
68.25663399943926
 30
0.0
 10
-42.61830318983233
 20
65.85977493647219
 30
0.0
 10
-43.415302098144885
 20
64.60225526299091
 30
0.0
 10
-44.141926310536135
 20
63.201568629989296
 30
0.0
 10
-44.77191787558601
 20
61.710508612558115
 30
0.0
 10
-45.38347328697524
 20
60.263810748520804
 30
0.0
 10
-45.903833809572944
 20
58.732410100889894
 30
0.0
 10
-46.31445569747121
 20
57.17161473019773
 30
0.0
 10
-47.03003595992272
 20
54.457227277005934
 30
0.0
 10
-47.40838559106332
 20
51.656508157469396
 30
0.0
 10
-47.407062544860906
 20
49.06669511457628
 30
0.0
  0
SPLINE
  5
29F
330
17
100
AcDbEntity
  8
visible
100
AcDbSpline
 70
0
 71
3
 72
8
 73
4
 74
0
 40
0.0
 40
0.0
 40
0.0
 40
0.0
 40
1.0
 40
1.0
 40
1.0
 40
1.0
 10
-52.033902135112484
 20
6.109141677854158
 30
0.0
 10
-52.2896881050556
 20
5.8140737958406925
 30
0.0
 10
-52.44922845320874
 20
5.442894390448223
 30
0.0
 10
-52.44773987891718
 20
5.057763917820124
 30
0.0
  0
SPLINE
  5
2A0
330
17
100
AcDbEntity
  8
visible
100
AcDbSpline
 70
0
 71
3
 72
14
 73
10
 74
0
 40
0.0
 40
0.0
 40
0.0
 40
0.0
 40
0.4391368479012136
 40
0.4391368479012136
 40
0.4391368479012136
 40
0.6666835400286545
 40
0.6666835400286545
 40
0.6666835400286545
 40
1.0
 40
1.0
 40
1.0
 40
1.0
 10
-21.370222812092553
 20
65.48032138751064
 30
0.0
 10
-21.72531571699295
 20
67.09555304548229
 30
0.0
 10
-22.275356418621527
 20
68.50991677726505
 30
0.0
 10
-23.008461636712354
 20
69.64772411736598
 30
0.0
 10
-23.388796932522848
 20
70.23927827307841
 30
0.0
 10
-23.816878653292104
 20
70.75122383040231
 30
0.0
 10
-24.292706799020024
 20
71.18356078933752
 30
0.0
 10
-24.98797618191115
 20
71.81439761599022
 30
0.0
 10
-25.785829792727792
 20
72.26008007234249
 30
0.0
 10
-26.64504841302903
 20
72.48459488906644
 30
0.0
  0
LINE
  5
2A1
330
17
100
AcDbEntity
  8
visible
100
AcDbLine
 10
-40.209457695680996
 20
-3.3014042886763972
 30
0.0
 11
-34.66097534098243
 21
-0.006535481592142678
 31
0.0
  0
LINE
  5
2A2
330
17
100
AcDbEntity
  8
visible
100
AcDbLine
 10
-35.28307072773199
 20
72.52617525343487
 30
0.0
 11
-37.496743321197236
 21
71.21162465904946
 31
0.0
  0
SPLINE
  5
2A3
330
17
100
AcDbEntity
  8
visible
100
AcDbSpline
 70
0
 71
3
 72
11
 73
7
 74
0
 40
0.0
 40
0.0
 40
0.0
 40
0.0
 40
0.41832238412327744
 40
0.41832238412327744
 40
0.41832238412327744
 40
1.0
 40
1.0
 40
1.0
 40
1.0
 10
-30.30982411083353
 20
73.4453853124918
 30
0.0
 10
-30.968669171701453
 20
73.61841875658573
 30
0.0
 10
-31.66062928889682
 20
73.66129500420924
 30
0.0
 10
-32.36000272400256
 20
73.57680101819169
 30
0.0
 10
-33.33320895094223
 20
73.45976631706023
 30
0.0
 10
-34.318968985677195
 20
73.09894027374278
 30
0.0
 10
-35.283070727731996
 20
72.52617525343487
 30
0.0
  0
LINE
  5
2A4
330
17
100
AcDbEntity
  8
visible
100
AcDbLine
 10
-30.309824110833528
 20
73.44538531249178
 30
0.0
 11
-26.645048413029027
 21
72.48459488906644
 31
0.0
  0
SPLINE
  5
2A5
330
17
100
AcDbEntity
  8
visible
100
AcDbSpline
 70
0
 71
3
 72
11
 73
7
 74
0
 40
0.0
 40
0.0
 40
0.0
 40
0.0
 40
0.5514771174435322
 40
0.5514771174435322
 40
0.5514771174435322
 40
1.0
 40
1.0
 40
1.0
 40
1.0
 10
-46.6433606619315
 20
-3.8505530274651814
 30
0.0
 10
-45.52023905607277
 20
-4.147348154157713
 30
0.0
 10
-44.10854412797128
 20
-4.2304145862386795
 30
0.0
 10
-42.836882547910385
 20
-4.080719913547034
 30
0.0
 10
-41.80039601106747
 20
-3.9595085014448634
 30
0.0
 10
-40.87584512412616
 20
-3.6967817032772294
 30
0.0
 10
-40.209457695681
 20
-3.3014042886763946
 30
0.0
  0
LINE
  5
2A6
330
17
100
AcDbEntity
  8
visible
100
AcDbLine
 10
-52.44773987891718
 20
-0.8229814173196897
 30
0.0
 11
-52.44773987891718
 21
5.057763917820134
 31
0.0
  0
LINE
  5
2A7
330
17
100
AcDbEntity
  8
visible
100
AcDbLine
 10
-49.974974932662874
 20
-2.977107187987606
 30
0.0
 11
-46.64336066193152
 21
-3.850553027465182
 31
0.0
  0
SPLINE
  5
2A8
330
17
100
AcDbEntity
  8
visible
100
AcDbSpline
 70
0
 71
3
 72
14
 73
10
 74
0
 40
0.0
 40
0.0
 40
0.0
 40
0.0
 40
0.3333333333333333
 40
0.3333333333333333
 40
0.3333333333333333
 40
0.6666666666666666
 40
0.6666666666666666
 40
0.6666666666666666
 40
1.0
 40
1.0
 40
1.0
 40
1.0
 10
-52.44773987891718
 20
-0.8229814173196884
 30
0.0
 10
-52.449306894783604
 20
-1.2165379168524462
 30
0.0
 10
-52.28271012915502
 20
-1.594805400430399
 30
0.0
 10
-52.01741271684464
 20
-1.8933856622921539
 30
0.0
 10
-51.77384801553546
 20
-2.1699034435944626
 30
0.0
 10
-51.4517508341884
 20
-2.393993438811659
 30
0.0
 10
-51.068517403038285
 20
-2.5819564941530473
 30
0.0
 10
-50.744215324406035
 20
-2.739703144011167
 30
0.0
 10
-50.37970116761431
 20
-2.871420041956023
 30
0.0
 10
-49.97497493266288
 20
-2.977107187987606
 30
0.0
  0
LINE
  5
2A9
330
17
100
AcDbEntity
  8
visible
100
AcDbLine
 10
-64.14144040905859
 20
6.908224923918216
 30
0.0
 11
-52.44773987891718
 21
3.842499648973172
 31
0.0
  0
LINE
  5
2AA
330
17
100
AcDbEntity
  8
visible
100
AcDbLine
 10
-69.89545887229758
 20
54.9624545310499
 30
0.0
 11
-69.89545887229758
 21
18.66722941573383
 31
0.0
  0
SPLINE
  5
2AB
330
17
100
AcDbEntity
  8
visible
100
AcDbSpline
 70
0
 71
3
 72
17
 73
13
 74
0
 40
0.0
 40
0.0
 40
0.0
 40
0.0
 40
0.390485947985075
 40
0.390485947985075
 40
0.390485947985075
 40
0.5975331422080477
 40
0.5975331422080477
 40
0.5975331422080477
 40
0.7608171836694713
 40
0.7608171836694713
 40
0.7608171836694713
 40
1.0
 40
1.0
 40
1.0
 40
1.0
 10
-69.8954588722976
 20
18.66722941573383
 30
0.0
 10
-69.89603007174478
 20
16.317073007934898
 30
0.0
 10
-69.58707909821946
 20
14.143385449958389
 30
0.0
 10
-68.98261469089591
 20
12.32456544730151
 30
0.0
 10
-68.66238548342794
 20
11.359578545811475
 30
0.0
 10
-68.25969395210166
 20
10.49279563699849
 30
0.0
 10
-67.77802718537525
 20
9.745095695618735
 30
0.0
 10
-67.39769188956471
 20
9.153541539906225
 30
0.0
 10
-66.96961016879557
 20
8.64159598258237
 30
0.0
 10
-66.4937820230676
 20
8.20925902364717
 30
0.0
 10
-65.79851264017655
 20
7.578422196994475
 30
0.0
 10
-65.0006590293598
 20
7.132739740642171
 30
0.0
 10
-64.14144040905859
 20
6.908224923918212
 30
0.0
  0
SPLINE
  5
2AC
330
17
100
AcDbEntity
  8
visible
100
AcDbSpline
 70
0
 71
3
 72
17
 73
13
 74
0
 40
0.0
 40
0.0
 40
0.0
 40
0.0
 40
0.3422926782002705
 40
0.3422926782002705
 40
0.3422926782002705
 40
0.522097203514664
 40
0.522097203514664
 40
0.522097203514664
 40
0.6965828789345423
 40
0.6965828789345423
 40
0.6965828789345423
 40
1.0
 40
1.0
 40
1.0
 40
1.0
 10
-59.985139648633904
 20
77.1073840755231
 30
0.0
 10
-61.820225458730086
 20
76.01929772722873
 30
0.0
 10
-63.58900145130633
 20
74.1523934159129
 30
0.0
 10
-65.10669951726904
 20
71.75553435294583
 30
0.0
 10
-65.90369842558155
 20
70.4980146794645
 30
0.0
 10
-66.63032263797282
 20
69.097328046463
 30
0.0
 10
-67.2603142030227
 20
67.60626802903175
 30
0.0
 10
-67.87186961441193
 20
66.15957016499445
 30
0.0
 10
-68.39223013700958
 20
64.62816951736347
 30
0.0
 10
-68.8028520249079
 20
63.06737414667137
 30
0.0
 10
-69.51843228735952
 20
60.35298669347963
 30
0.0
 10
-69.89678191849995
 20
57.552267573943
 30
0.0
 10
-69.8954588722976
 20
54.9624545310499
 30
0.0
  0
SPLINE
  5
2AD
330
17
100
AcDbEntity
  8
visible
100
AcDbSpline
 70
0
 71
2
 72
6
 73
3
 74
0
 40
0.0
 40
0.0
 40
0.0
 40
1.0
 40
1.0
 40
1.0
 10
-30.98764061539933
 20
73.57627184992495
 30
0.0
 10
-31.30855339231655
 20
73.70721279377518
 30
0.0
 10
-31.64246981912607
 20
73.79476364828281
 30
0.0
  0
LINE
  5
2AE
330
17
100
AcDbEntity
  8
visible
100
AcDbLine
 10
-57.771467055168664
 20
78.4219346699085
 30
0.0
 11
-59.98513964863391
 21
77.10738407552309
 31
0.0
  0
SPLINE
  5
2AF
330
17
100
AcDbEntity
  8
visible
100
AcDbSpline
 70
0
 71
3
 72
11
 73
7
 74
0
 40
0.0
 40
0.0
 40
0.0
 40
0.0
 40
0.4183223841232919
 40
0.4183223841232919
 40
0.4183223841232919
 40
1.0
 40
1.0
 40
1.0
 40
1.0
 10
-52.798220438270214
 20
79.34114472896542
 30
0.0
 10
-53.4570654991381
 20
79.51417817305935
 30
0.0
 10
-54.149025616333525
 20
79.55705442068293
 30
0.0
 10
-54.848399051439245
 20
79.4725604346653
 30
0.0
 10
-55.821605278378954
 20
79.35552573353384
 30
0.0
 10
-56.80736531311384
 20
78.99469969021638
 30
0.0
 10
-57.771467055168664
 20
78.4219346699085
 30
0.0
  0
LINE
  5
2B0
330
17
100
AcDbEntity
  8
visible
100
AcDbLine
 10
-52.79822043827021
 20
79.34114472896542
 30
0.0
 11
-31.642469819126067
 21
73.79476364828281
 31
0.0
  0
LINE
  5
2B1
330
17
100
AcDbEntity
  8
visible
100
AcDbLine
 10
-42.236236150680064
 20
3.062190808802831
 30
0.0
 11
-42.236236150680064
 21
6.186336768095865
 31
0.0
  0
LINE
  5
2B2
330
17
100
AcDbEntity
  8
visible
100
AcDbLine
 10
-41.4770969278192
 20
7.354590880236216
 30
0.0
 11
-34.78502266394083
 21
11.328561659484022
 31
0.0
  0
SPLINE
  5
2B3
330
17
100
AcDbEntity
  8
visible
100
AcDbSpline
 70
0
 71
2
 72
12
 73
9
 74
0
 40
0.0
 40
0.0
 40
0.0
 40
0.25
 40
0.25
 40
0.5
 40
0.5
 40
0.75
 40
0.75
 40
1.0
 40
1.0
 40
1.0
 10
-40.65663490769313
 20
1.5653403353276332
 30
0.0
 10
-40.87078952234752
 20
1.6213655712615256
 30
0.0
 10
-41.06348657876105
 20
1.695626685543182
 30
0.0
 10
-41.43133839277484
 20
1.8354739594208365
 30
0.0
 10
-41.707036785340435
 20
2.0519086116311485
 30
0.0
 10
-41.97001624160457
 20
2.258329655060713
 30
0.0
 10
-42.11495711943301
 20
2.5460732795869347
 30
0.0
 10
-42.234899371031936
 20
2.791005964473946
 30
0.0
 10
-42.23623615068006
 20
3.062190808802825
 30
0.0
  0
SPLINE
  5
2B4
330
17
100
AcDbEntity
  8
visible
100
AcDbSpline
 70
0
 71
2
 72
10
 73
7
 74
0
 40
0.0
 40
0.0
 40
0.0
 40
0.3333333333333333
 40
0.3333333333333333
 40
0.6666666666666666
 40
0.6666666666666666
 40
1.0
 40
1.0
 40
1.0
 10
-42.236236150680064
 20
6.186336768095856
 30
0.0
 10
-42.23489359487111
 20
6.457830564884665
 30
0.0
 10
-42.11469571112423
 20
6.702988270964539
 30
0.0
 10
-42.02343480824853
 20
6.887199890752408
 30
0.0
 10
-41.87936065916957
 20
7.038750650117265
 30
0.0
 10
-41.70609020090006
 20
7.220058664368534
 30
0.0
 10
-41.477096927819204
 20
7.354590880236202
 30
0.0
  0
LINE
  5
2B5
330
17
100
AcDbEntity
  8
visible
100
AcDbLine
 10
6.818868450228752
 20
-10.881262877227833
 30
0.0
 11
-40.65663490769313
 21
1.5653403353276172
 31
0.0
  0
SPLINE
  5
2B6
330
17
100
AcDbEntity
  8
visible
100
AcDbSpline
 70
0
 71
3
 72
11
 73
7
 74
0
 40
0.0
 40
0.0
 40
0.0
 40
0.0
 40
0.4242732389433903
 40
0.4242732389433903
 40
0.4242732389433903
 40
1.0
 40
1.0
 40
1.0
 40
1.0
 10
10.480127984380953
 20
-10.552666515892966
 30
0.0
 10
10.100320937373828
 20
-10.77755800782952
 30
0.0
 10
9.610632892857625
 20
-10.922778254019892
 30
0.0
 10
9.063315044138559
 20
-10.99787462242861
 30
0.0
 10
8.322007722548745
 20
-11.099421761728214
 30
0.0
 10
7.490358732404048
 20
-11.0583980306289
 30
0.0
 10
6.818868450228752
 20
-10.881262877227819
 30
0.0
  0
LINE
  5
2B7
330
17
100
AcDbEntity
  8
visible
100
AcDbLine
 10
19.233322529545138
 20
-5.354735653811618
 30
0.0
 11
10.480127984380953
 21
-10.552666515892977
 31
0.0
  0
LINE
  5
2B8
330
17
100
AcDbEntity
  8
visible
100
AcDbLine
 10
19.225222869766306
 20
4.9385197310666555
 30
0.0
 11
4.9237357396508585
 21
-3.5541672466671486
 31
0.0
  0
SPLINE
  5
2B9
330
17
100
AcDbEntity
  8
visible
100
AcDbSpline
 70
0
 71
3
 72
14
 73
10
 74
0
 40
0.0
 40
0.0
 40
0.0
 40
0.0
 40
0.22390796142287164
 40
0.22390796142287164
 40
0.22390796142287164
 40
0.4478159228457433
 40
0.4478159228457433
 40
0.4478159228457433
 40
1.0
 40
1.0
 40
1.0
 40
1.0
 10
-33.166055488814315
 20
5.617055355108917
 30
0.0
 10
-33.3489543659508
 20
5.664206428292004
 30
0.0
 10
-33.51635814987509
 20
5.729543860615445
 30
0.0
 10
-33.66826684058708
 20
5.813067652079226
 30
0.0
 10
-33.79210996953558
 20
5.88131635987086
 30
0.0
 10
-33.90173211475944
 20
5.964370404269349
 30
0.0
 10
-33.99713327625863
 20
6.062229785274681
 30
0.0
 10
-34.1865888104512
 20
6.256475337904674
 30
0.0
 10
-34.30039425727867
 20
6.5184165967834735
 30
0.0
 10
-34.29907488016757
 20
6.785268179987753
 30
0.0
  0
SPLINE
  5
2BA
330
17
100
AcDbEntity
  8
visible
100
AcDbSpline
 70
0
 71
3
 72
17
 73
13
 74
0
 40
0.0
 40
0.0
 40
0.0
 40
0.0
 40
0.17770173717769597
 40
0.17770173717769597
 40
0.17770173717769597
 40
0.35540347435539194
 40
0.35540347435539194
 40
0.35540347435539194
 40
0.5892506281699865
 40
0.5892506281699865
 40
0.5892506281699865
 40
1.0
 40
1.0
 40
1.0
 40
1.0
 10
4.9237357396508585
 20
-3.5541672466671272
 30
0.0
 10
4.763665275998745
 20
-3.647655292389704
 30
0.0
 10
4.5854464767846865
 20
-3.719873673738276
 30
0.0
 10
4.389079342008663
 20
-3.7708223907128433
 30
0.0
 10
4.27256868384669
 20
-3.801547635671751
 30
0.0
 10
4.1514839026984145
 20
-3.825631234156033
 30
0.0
 10
4.025824998563854
 20
-3.8430731861657046
 30
0.0
 10
3.8598978280330636
 20
-3.8660663771377712
 30
0.0
 10
3.6907684888727146
 20
-3.8776275828561926
 30
0.0
 10
3.5184369810828127
 20
-3.8777568033209677
 30
0.0
 10
3.217282167388273
 20
-3.8779169932464543
 30
0.0
 10
2.9174916022406814
 20
-3.842917669023963
 30
0.0
 10
2.6487979215478057
 20
-3.7724874192750235
 30
0.0
  0
LINE
  5
2BB
330
17
100
AcDbEntity
  8
visible
100
AcDbLine
 10
2.6487979215478052
 20
-3.7724874192750377
 30
0.0
 11
-33.166055488814315
 21
5.617055355108899
 31
0.0
  0
LINE
  5
2BC
330
17
100
AcDbEntity
  8
visible
100
AcDbLine
 10
-34.29907488016756
 20
6.785268179987759
 30
0.0
 11
-34.29907488016756
 21
9.909414139280793
 31
0.0
  0
LINE
  5
2BD
330
17
100
AcDbEntity
  8
visible
100
AcDbLine
 10
-33.70703208962386
 20
10.85930679155176
 30
0.0
 11
-33.510379559948746
 21
10.97608544280079
 31
0.0
  0
SPLINE
  5
2BE
330
17
100
AcDbEntity
  8
visible
100
AcDbSpline
 70
0
 71
2
 72
10
 73
7
 74
0
 40
0.0
 40
0.0
 40
0.0
 40
0.37326234628201105
 40
0.37326234628201105
 40
0.626737653717989
 40
0.626737653717989
 40
1.0
 40
1.0
 40
1.0
 10
-34.29907488016756
 20
9.909414139280784
 30
0.0
 10
-34.298047653424995
 20
10.150779448234267
 30
0.0
 10
-34.187547169996336
 20
10.367486970179648
 30
0.0
 10
-34.1126558866154
 20
10.51278484474079
 30
0.0
 10
-33.99758384143966
 20
10.631984336973872
 30
0.0
 10
-33.869771094047664
 20
10.763560030901107
 30
0.0
 10
-33.70703208962386
 20
10.859306791551745
 30
0.0
  0
LINE
  5
2BF
330
17
100
AcDbEntity
  8
visible
100
AcDbLine
 10
-37.41146386716693
 20
15.085333708970794
 30
0.0
 11
-37.41146386716693
 21
53.67772497082586
 31
0.0
  0
LINE
  5
2C0
330
17
100
AcDbEntity
  8
visible
100
AcDbLine
 10
-35.453828508351386
 20
57.11701947296427
 30
0.0
 11
-9.443175535134753
 21
72.5629889569928
 31
0.0
  0
ARC
  5
2C1
330
17
100
AcDbEntity
  8
visible
100
AcDbCircle
 10
-33.41146386716693
 20
15.085333708970794
 30
0.0
 40
4.0
100
AcDbArc
 50
180.0
 51
255.3094421759474
  0
ARC
  5
2C2
330
17
100
AcDbEntity
  8
visible
100
AcDbCircle
 10
-33.41146386716693
 20
53.67772497082585
 30
0.0
 40
4.0
100
AcDbArc
 50
120.70321465809906
 51
180.0
  0
ARC
  5
2C3
330
17
100
AcDbEntity
  8
visible
100
AcDbCircle
 10
-7.400810893950293
 20
69.12369445485439
 30
0.0
 40
4.0
100
AcDbArc
 50
75.30944217594738
 51
120.70321465809906
  0
LINE
  5
2C4
330
17
100
AcDbEntity
  8
visible
100
AcDbLine
 10
-34.42585802020283
 20
11.2160954761546
 30
0.0
 11
4.720609660890652
 21
0.9531068622930885
 31
0.0
  0
LINE
  5
2C5
330
17
100
AcDbEntity
  8
visible
100
AcDbLine
 10
7.777368455111009
 20
1.3830505929708727
 30
0.0
 11
19.225222869766306
 21
8.181157896483905
 31
0.0
  0
LINE
  5
2C6
330
17
100
AcDbEntity
  8
visible
100
AcDbLine
 10
-6.386416740914387
 20
72.99293268767056
 30
0.0
 11
32.76005094017909
 21
62.729944073809044
 31
0.0
  0
LINE
  5
2C7
330
17
100
AcDbEntity
  8
visible
100
AcDbLine
 10
35.74565678714319
 20
56.09363157170455
 30
0.0
 11
35.74565678714319
 21
58.860705840992885
 31
0.0
  0
ARC
  5
2C8
330
17
100
AcDbEntity
  8
visible
100
AcDbCircle
 10
5.735003813926554
 20
4.822345095109284
 30
0.0
 40
4.0
100
AcDbArc
 50
255.3094421759474
 51
300.70321465809906
  0
ARC
  5
2C9
330
17
100
AcDbEntity
  8
visible
100
AcDbCircle
 10
31.74565678714319
 20
58.86070584099288
 30
0.0
 40
4.0
100
AcDbArc
 50
360.0
 51
435.3094421759474
  0
LINE
  5
2CA
330
17
100
AcDbEntity
  8
visible
100
AcDbLine
 10
-11.286940573412746
 20
17.390237447741526
 30
0.0
 11
-10.180104276680122
 21
18.04751274493423
 31
0.0
  0
LINE
  5
2CB
330
17
100
AcDbEntity
  8
visible
100
AcDbLine
 10
-23.03053726022337
 20
37.166180835037395
 30
0.0
 11
-21.923700963490745
 21
37.8234561322301
 31
0.0
  0
ENDSEC
  0
SECTION
  2
OBJECTS
  0
DICTIONARY
  5
A
330
0
100
AcDbDictionary
281
1
  3
ACAD_COLOR
350
B
  3
ACAD_GROUP
350
C
  3
ACAD_LAYOUT
350
D
  3
ACAD_MATERIAL
350
E
  3
ACAD_MLEADERSTYLE
350
F
  3
ACAD_MLINESTYLE
350
10
  3
ACAD_PLOTSETTINGS
350
11
  3
ACAD_PLOTSTYLENAME
350
12
  3
ACAD_SCALELIST
350
14
  3
ACAD_TABLESTYLE
350
15
  3
ACAD_VISUALSTYLE
350
16
  3
EZDXF_META
350
2D
  0
DICTIONARY
  5
B
330
A
100
AcDbDictionary
281
1
  0
DICTIONARY
  5
C
330
A
100
AcDbDictionary
281
1
  0
DICTIONARY
  5
D
330
A
100
AcDbDictionary
281
1
  3
Model
350
1A
  3
Layout1
350
1E
  0
DICTIONARY
  5
E
330
A
100
AcDbDictionary
281
1
  3
ByBlock
350
1F
  3
ByLayer
350
20
  3
Global
350
21
  0
DICTIONARY
  5
F
330
A
100
AcDbDictionary
281
1
  3
Standard
350
2C
  0
DICTIONARY
  5
10
330
A
100
AcDbDictionary
281
1
  3
Standard
350
22
  0
DICTIONARY
  5
11
330
A
100
AcDbDictionary
281
1
  0
ACDBDICTIONARYWDFLT
  5
12
330
A
100
AcDbDictionary
281
1
  3
Normal
350
13
100
AcDbDictionaryWithDefault
340
13
  0
ACDBPLACEHOLDER
  5
13
330
12
  0
DICTIONARY
  5
14
330
A
100
AcDbDictionary
281
1
  0
DICTIONARY
  5
15
330
A
100
AcDbDictionary
281
1
  0
DICTIONARY
  5
16
330
A
100
AcDbDictionary
281
1
  0
LAYOUT
  5
1A
330
D
100
AcDbPlotSettings
  1

  4
A3
  6

 40
7.5
 41
20.0
 42
7.5
 43
20.0
 44
420.0
 45
297.0
 46
0.0
 47
0.0
 48
0.0
 49
0.0
140
0.0
141
0.0
142
1.0
143
1.0
 70
1024
 72
1
 73
0
 74
5
  7

 75
16
 76
0
 77
2
 78
300
147
1.0
148
0.0
149
0.0
100
AcDbLayout
  1
Model
 70
1
 71
0
 10
0.0
 20
0.0
 11
420.0
 21
297.0
 12
0.0
 22
0.0
 32
0.0
 14
1e+20
 24
1e+20
 34
1e+20
 15
-1e+20
 25
-1e+20
 35
-1e+20
146
0.0
 13
0.0
 23
0.0
 33
0.0
 16
1.0
 26
0.0
 36
0.0
 17
0.0
 27
1.0
 37
0.0
 76
1
330
17
  0
LAYOUT
  5
1E
330
D
100
AcDbPlotSettings
  1

  4
A3
  6

 40
7.5
 41
20.0
 42
7.5
 43
20.0
 44
420.0
 45
297.0
 46
0.0
 47
0.0
 48
0.0
 49
0.0
140
0.0
141
0.0
142
1.0
143
1.0
 70
0
 72
1
 73
0
 74
5
  7

 75
16
 76
0
 77
2
 78
300
147
1.0
148
0.0
149
0.0
100
AcDbLayout
  1
Layout1
 70
1
 71
1
 10
0.0
 20
0.0
 11
420.0
 21
297.0
 12
0.0
 22
0.0
 32
0.0
 14
1e+20
 24
1e+20
 34
1e+20
 15
-1e+20
 25
-1e+20
 35
-1e+20
146
0.0
 13
0.0
 23
0.0
 33
0.0
 16
1.0
 26
0.0
 36
0.0
 17
0.0
 27
1.0
 37
0.0
 76
1
330
1B
  0
MATERIAL
  5
1F
102
{ACAD_REACTORS
330
E
102
}
330
E
100
AcDbMaterial
  1
ByBlock
  2

 70
0
 40
1.0
 71
1
 41
1.0
 91
-1023410177
 42
1.0
 72
1
  3

 73
1
 74
1
 75
1
 44
0.5
 73
0
 45
1.0
 46
1.0
 77
1
  4

 78
1
 79
1
170
1
 48
1.0
171
1
  6

172
1
173
1
174
1
140
1.0
141
1.0
175
1
  7

176
1
177
1
178
1
143
1.0
179
1
  8

270
1
271
1
272
1
145
1.0
146
1.0
273
1
  9

274
1
275
1
276
1
 42
1.0
 72
1
  3

 73
1
 74
1
 75
1
 94
63
  0
MATERIAL
  5
20
102
{ACAD_REACTORS
330
E
102
}
330
E
100
AcDbMaterial
  1
ByLayer
  2

 70
0
 40
1.0
 71
1
 41
1.0
 91
-1023410177
 42
1.0
 72
1
  3

 73
1
 74
1
 75
1
 44
0.5
 73
0
 45
1.0
 46
1.0
 77
1
  4

 78
1
 79
1
170
1
 48
1.0
171
1
  6

172
1
173
1
174
1
140
1.0
141
1.0
175
1
  7

176
1
177
1
178
1
143
1.0
179
1
  8

270
1
271
1
272
1
145
1.0
146
1.0
273
1
  9

274
1
275
1
276
1
 42
1.0
 72
1
  3

 73
1
 74
1
 75
1
 94
63
  0
MATERIAL
  5
21
102
{ACAD_REACTORS
330
E
102
}
330
E
100
AcDbMaterial
  1
Global
  2

 70
0
 40
1.0
 71
1
 41
1.0
 91
-1023410177
 42
1.0
 72
1
  3

 73
1
 74
1
 75
1
 44
0.5
 73
0
 45
1.0
 46
1.0
 77
1
  4

 78
1
 79
1
170
1
 48
1.0
171
1
  6

172
1
173
1
174
1
140
1.0
141
1.0
175
1
  7

176
1
177
1
178
1
143
1.0
179
1
  8

270
1
271
1
272
1
145
1.0
146
1.0
273
1
  9

274
1
275
1
276
1
 42
1.0
 72
1
  3

 73
1
 74
1
 75
1
 94
63
  0
MLINESTYLE
  5
22
102
{ACAD_REACTORS
330
10
102
}
330
10
100
AcDbMlineStyle
  2
Standard
 70
0
  3

 62
256
 51
90.0
 52
90.0
 71
2
 49
0.5
 62
256
  6
BYLAYER
 49
-0.5
 62
256
  6
BYLAYER
  0
MLEADERSTYLE
  5
2C
102
{ACAD_REACTORS
330
F
102
}
330
F
100
AcDbMLeaderStyle
179
2
170
2
171
1
172
0
 90
2
 40
0.0
 41
0.0
173
1
 91
-1056964608
 92
-2
290
1
 42
2.0
291
1
 43
8.0
  3
Standard
 44
4.0
300

342
29
174
1
175
1
176
0
178
1
 93
-1056964608
 45
4.0
292
0
297
0
 46
4.0
 94
-1056964608
 47
1.0
 49
1.0
140
1.0
294
1
141
0.0
177
0
142
1.0
295
0
296
0
143
3.75
271
0
272
9
273
9
  0
DICTIONARY
  5
2D
330
A
100
AcDbDictionary
280
1
281
1
  3
CREATED_BY_EZDXF
350
2E
  3
WRITTEN_BY_EZDXF
350
2CF
  0
DICTIONARYVAR
  5
2E
330
2D
100
DictionaryVariables
280
0
  1
1.4.4 @ 2026-10-01T20:36:15.005741+00:00
  0
DICTIONARYVAR
  5
2CF
330
2D
100
DictionaryVariables
280
0
  1
1.4.4 @ 2026-10-01T20:36:15.140178+00:00
  0
ENDSEC
  0
EOF
