  0
SECTION
  2
HEADER
  9
$ACADVER
  1
AC1027
  9
$ACADMAINTVER
 70
105
  9
$DWGCODEPAGE
  3
ANSI_1252
  9
$LASTSAVEDBY
  1
ezdxf
  9
$REQUIREDVERSIONS
160
0
  9
$INSBASE
 10
0.0
 20
0.0
 30
0.0
  9
$EXTMIN
 10
1e+20
 20
1e+20
 30
1e+20
  9
$EXTMAX
 10
-1e+20
 20
-1e+20
 30
-1e+20
  9
$LIMMIN
 10
0.0
 20
0.0
  9
$LIMMAX
 10
420.0
 20
297.0
  9
$ORTHOMODE
 70
0
  9
$REGENMODE
 70
1
  9
$FILLMODE
 70
1
  9
$QTEXTMODE
 70
0
  9
$MIRRTEXT
 70
1
  9
$LTSCALE
 40
1.0
  9
$ATTMODE
 70
1
  9
$TEXTSIZE
 40
2.5
  9
$TRACEWID
 40
1.0
  9
$TEXTSTYLE
  7
Standard
  9
$CLAYER
  8
0
  9
$CELTYPE
  6
ByLayer
  9
$CECOLOR
 62
256
  9
$CELTSCALE
 40
1.0
  9
$DISPSILH
 70
0
  9
$DIMSCALE
 40
1.0
  9
$DIMASZ
 40
2.5
  9
$DIMEXO
 40
0.625
  9
$DIMDLI
 40
3.75
  9
$DIMRND
 40
0.0
  9
$DIMDLE
 40
0.0
  9
$DIMEXE
 40
1.25
  9
$DIMTP
 40
0.0
  9
$DIMTM
 40
0.0
  9
$DIMTXT
 40
2.5
  9
$DIMCEN
 40
2.5
  9
$DIMTSZ
 40
0.0
  9
$DIMTOL
 70
0
  9
$DIMLIM
 70
0
  9
$DIMTIH
 70
0
  9
$DIMTOH
 70
0
  9
$DIMSE1
 70
0
  9
$DIMSE2
 70
0
  9
$DIMTAD
 70
1
  9
$DIMZIN
 70
8
  9
$DIMBLK
  1

  9
$DIMASO
 70
1
  9
$DIMSHO
 70
1
  9
$DIMPOST
  1

  9
$DIMAPOST
  1

  9
$DIMALT
 70
0
  9
$DIMALTD
 70
3
  9
$DIMALTF
 40
0.03937007874
  9
$DIMLFAC
 40
1.0
  9
$DIMTOFL
 70
1
  9
$DIMTVP
 40
0.0
  9
$DIMTIX
 70
0
  9
$DIMSOXD
 70
0
  9
$DIMSAH
 70
0
  9
$DIMBLK1
  1

  9
$DIMBLK2
  1

  9
$DIMSTYLE
  2
ISO-25
  9
$DIMCLRD
 70
0
  9
$DIMCLRE
 70
0
  9
$DIMCLRT
 70
0
  9
$DIMTFAC
 40
1.0
  9
$DIMGAP
 40
0.625
  9
$DIMJUST
 70
0
  9
$DIMSD1
 70
0
  9
$DIMSD2
 70
0
  9
$DIMTOLJ
 70
0
  9
$DIMTZIN
 70
8
  9
$DIMALTZ
 70
0
  9
$DIMALTTZ
 70
0
  9
$DIMUPT
 70
0
  9
$DIMDEC
 70
2
  9
$DIMTDEC
 70
2
  9
$DIMALTU
 70
2
  9
$DIMALTTD
 70
3
  9
$DIMTXSTY
  7
Standard
  9
$DIMAUNIT
 70
0
  9
$DIMADEC
 70
0
  9
$DIMALTRND
 40
0.0
  9
$DIMAZIN
 70
0
  9
$DIMDSEP
 70
44
  9
$DIMATFIT
 70
3
  9
$DIMFRAC
 70
0
  9
$DIMLDRBLK
  1

  9
$DIMLUNIT
 70
2
  9
$DIMLWD
 70
-2
  9
$DIMLWE
 70
-2
  9
$DIMTMOVE
 70
0
  9
$DIMFXL
 40
1.0
  9
$DIMFXLON
 70
0
  9
$DIMJOGANG
 40
0.785398163397
  9
$DIMTFILL
 70
0
  9
$DIMTFILLCLR
 70
0
  9
$DIMARCSYM
 70
0
  9
$DIMLTYPE
  6

  9
$DIMLTEX1
  6

  9
$DIMLTEX2
  6

  9
$DIMTXTDIRECTION
 70
0
  9
$LUNITS
 70
2
  9
$LUPREC
 70
4
  9
$SKETCHINC
 40
1.0
  9
$FILLETRAD
 40
10.0
  9
$AUNITS
 70
0
  9
$AUPREC
 70
2
  9
$MENU
  1
.
  9
$ELEVATION
 40
0.0
  9
$PELEVATION
 40
0.0
  9
$THICKNESS
 40
0.0
  9
$LIMCHECK
 70
0
  9
$CHAMFERA
 40
0.0
  9
$CHAMFERB
 40
0.0
  9
$CHAMFERC
 40
0.0
  9
$CHAMFERD
 40
0.0
  9
$SKPOLY
 70
0
  9
$TDCREATE
 40
2461316.775138889
  9
$TDUCREATE
 40
2458532.153996898
  9
$TDUPDATE
 40
2461316.775138889
  9
$TDUUPDATE
 40
2458532.1544311
  9
$TDINDWG
 40
0.0
  9
$TDUSRTIMER
 40
0.0
  9
$USRTIMER
 70
1
  9
$ANGBASE
 50
0.0
  9
$ANGDIR
 70
0
  9
$PDMODE
 70
0
  9
$PDSIZE
 40
0.0
  9
$PLINEWID
 40
0.0
  9
$SPLFRAME
 70
0
  9
$SPLINETYPE
 70
6
  9
$SPLINESEGS
 70
8
  9
$HANDSEED
  5
238
  9
$SURFTAB1
 70
6
  9
$SURFTAB2
 70
6
  9
$SURFTYPE
 70
6
  9
$SURFU
 70
6
  9
$SURFV
 70
6
  9
$UCSBASE
  2

  9
$UCSNAME
  2

  9
$UCSORG
 10
0.0
 20
0.0
 30
0.0
  9
$UCSXDIR
 10
1.0
 20
0.0
 30
0.0
  9
$UCSYDIR
 10
0.0
 20
1.0
 30
0.0
  9
$UCSORTHOREF
  2

  9
$UCSORTHOVIEW
 70
0
  9
$UCSORGTOP
 10
0.0
 20
0.0
 30
0.0
  9
$UCSORGBOTTOM
 10
0.0
 20
0.0
 30
0.0
  9
$UCSORGLEFT
 10
0.0
 20
0.0
 30
0.0
  9
$UCSORGRIGHT
 10
0.0
 20
0.0
 30
0.0
  9
$UCSORGFRONT
 10
0.0
 20
0.0
 30
0.0
  9
$UCSORGBACK
 10
0.0
 20
0.0
 30
0.0
  9
$PUCSBASE
  2

  9
$PUCSNAME
  2

  9
$PUCSORG
 10
0.0
 20
0.0
 30
0.0
  9
$PUCSXDIR
 10
1.0
 20
0.0
 30
0.0
  9
$PUCSYDIR
 10
0.0
 20
1.0
 30
0.0
  9
$PUCSORTHOREF
  2

  9
$PUCSORTHOVIEW
 70
0
  9
$PUCSORGTOP
 10
0.0
 20
0.0
 30
0.0
  9
$PUCSORGBOTTOM
 10
0.0
 20
0.0
 30
0.0
  9
$PUCSORGLEFT
 10
0.0
 20
0.0
 30
0.0
  9
$PUCSORGRIGHT
 10
0.0
 20
0.0
 30
0.0
  9
$PUCSORGFRONT
 10
0.0
 20
0.0
 30
0.0
  9
$PUCSORGBACK
 10
0.0
 20
0.0
 30
0.0
  9
$USERI1
 70
0
  9
$USERI2
 70
0
  9
$USERI3
 70
0
  9
$USERI4
 70
0
  9
$USERI5
 70
0
  9
$USERR1
 40
0.0
  9
$USERR2
 40
0.0
  9
$USERR3
 40
0.0
  9
$USERR4
 40
0.0
  9
$USERR5
 40
0.0
  9
$WORLDVIEW
 70
1
  9
$SHADEDGE
 70
3
  9
$SHADEDIF
 70
70
  9
$TILEMODE
 70
1
  9
$MAXACTVP
 70
64
  9
$PINSBASE
 10
0.0
 20
0.0
 30
0.0
  9
$PLIMCHECK
 70
0
  9
$PEXTMIN
 10
1e+20
 20
1e+20
 30
1e+20
  9
$PEXTMAX
 10
-1e+20
 20
-1e+20
 30
-1e+20
  9
$PLIMMIN
 10
0.0
 20
0.0
  9
$PLIMMAX
 10
420.0
 20
297.0
  9
$UNITMODE
 70
0
  9
$VISRETAIN
 70
1
  9
$PLINEGEN
 70
0
  9
$PSLTSCALE
 70
1
  9
$TREEDEPTH
 70
3020
  9
$CMLSTYLE
  2
Standard
  9
$CMLJUST
 70
0
  9
$CMLSCALE
 40
20.0
  9
$PROXYGRAPHICS
 70
1
  9
$MEASUREMENT
 70
1
  9
$CELWEIGHT
370
-1
  9
$ENDCAPS
280
0
  9
$JOINSTYLE
280
0
  9
$LWDISPLAY
290
0
  9
$INSUNITS
 70
4
  9
$HYPERLINKBASE
  1

  9
$STYLESHEET
  1

  9
$XEDIT
290
1
  9
$CEPSNTYPE
380
0
  9
$PSTYLEMODE
290
1
  9
$FINGERPRINTGUID
  2
{D13216AB-86CE-4557-8D63-3B3C1EC0607F}
  9
$VERSIONGUID
  2
{34BF09B2-67E7-4D57-922F-12477537B855}
  9
$EXTNAMES
290
1
  9
$PSVPSCALE
 40
0.0
  9
$OLESTARTUP
290
0
  9
$SORTENTS
280
127
  9
$INDEXCTL
280
0
  9
$HIDETEXT
280
1
  9
$XCLIPFRAME
280
1
  9
$HALOGAP
280
0
  9
$OBSCOLOR
 70
257
  9
$OBSLTYPE
280
0
  9
$INTERSECTIONDISPLAY
280
0
  9
$INTERSECTIONCOLOR
 70
257
  9
$DIMASSOC
280
2
  9
$PROJECTNAME
  1

  9
$CAMERADISPLAY
290
0
  9
$LENSLENGTH
 40
50.0
  9
$CAMERAHEIGHT
 40
0.0
  9
$STEPSPERSEC
 40
24.0
  9
$STEPSIZE
 40
100.0
  9
$3DDWFPREC
 40
2.0
  9
$PSOLWIDTH
 40
0.005
  9
$PSOLHEIGHT
 40
0.08
  9
$LOFTANG1
 40
1.570796326795
  9
$LOFTANG2
 40
1.570796326795
  9
$LOFTMAG1
 40
0.0
  9
$LOFTMAG2
 40
0.0
  9
$LOFTPARAM
 70
7
  9
$LOFTNORMALS
280
1
  9
$LATITUDE
 40
37.795
  9
$LONGITUDE
 40
-122.394
  9
$NORTHDIRECTION
 40
0.0
  9
$TIMEZONE
 70
-8000
  9
$LIGHTGLYPHDISPLAY
280
1
  9
$TILEMODELIGHTSYNCH
280
1
  9
$CMATERIAL
347
20
  9
$SOLIDHIST
280
0
  9
$SHOWHIST
280
1
  9
$DWFFRAME
280
2
  9
$DGNFRAME
280
2
  9
$REALWORLDSCALE
290
1
  9
$INTERFERECOLOR
 62
256
  9
$CSHADOW
280
0
  9
$SHADOWPLANELOCATION
 40
0.0
  0
ENDSEC
  0
SECTION
  2
CLASSES
  0
CLASS
  1
ACDBDICTIONARYWDFLT
  2
AcDbDictionaryWithDefault
  3
ObjectDBX Classes
 90
0
 91
0
280
0
281
0
  0
CLASS
  1
SUN
  2
AcDbSun
  3
SCENEOE
 90
1153
 91
0
280
0
281
0
  0
CLASS
  1
VISUALSTYLE
  2
AcDbVisualStyle
  3
ObjectDBX Classes
 90
4095
 91
0
280
0
281
0
  0
CLASS
  1
MATERIAL
  2
AcDbMaterial
  3
ObjectDBX Classes
 90
1153
 91
0
280
0
281
0
  0
CLASS
  1
SCALE
  2
AcDbScale
  3
ObjectDBX Classes
 90
1153
 91
0
280
0
281
0
  0
CLASS
  1
TABLESTYLE
  2
AcDbTableStyle
  3
ObjectDBX Classes
 90
4095
 91
0
280
0
281
0
  0
CLASS
  1
MLEADERSTYLE
  2
AcDbMLeaderStyle
  3
ACDB_MLEADERSTYLE_CLASS
 90
4095
 91
0
280
0
281
0
  0
CLASS
  1
DICTIONARYVAR
  2
AcDbDictionaryVar
  3
ObjectDBX Classes
 90
0
 91
0
280
0
281
0
  0
CLASS
  1
CELLSTYLEMAP
  2
AcDbCellStyleMap
  3
ObjectDBX Classes
 90
1152
 91
0
280
0
281
0
  0
CLASS
  1
MENTALRAYRENDERSETTINGS
  2
AcDbMentalRayRenderSettings
  3
SCENEOE
 90
1024
 91
0
280
0
281
0
  0
CLASS
  1
ACDBDETAILVIEWSTYLE
  2
AcDbDetailViewStyle
  3
ObjectDBX Classes
 90
1025
 91
0
280
0
281
0
  0
CLASS
  1
ACDBSECTIONVIEWSTYLE
  2
AcDbSectionViewStyle
  3
ObjectDBX Classes
 90
1025
 91
0
280
0
281
0
  0
CLASS
  1
RASTERVARIABLES
  2
AcDbRasterVariables
  3
ISM
 90
0
 91
0
280
0
281
0
  0
CLASS
  1
LAYOUT
  2
AcDbLayout
  3
ObjectDBX Classes
 90
0
 91
0
280
0
281
0
  0
CLASS
  1
ACDBPLACEHOLDER
  2
AcDbPlaceHolder
  3
ObjectDBX Classes
 90
0
 91
0
280
0
281
0
  0
ENDSEC
  0
SECTION
  2
TABLES
  0
TABLE
  2
VPORT
  5
8
330
0
100
AcDbSymbolTable
 70
1
  0
VPORT
  5
234
330
8
100
AcDbSymbolTableRecord
100
AcDbViewportTableRecord
  2
*Active
 70
0
 10
0.0
 20
0.0
 11
1.0
 21
1.0
 12
0.0
 22
5.246781142886903e-08
 13
0.0
 23
0.0
 14
0.5
 24
0.5
 15
0.5
 25
0.5
 16
0.0
 26
0.0
 36
1.0
 17
0.0
 27
0.0
 37
0.0
 40
120.00000000227467
 41
1.34
 42
50.0
 43
0.0
 44
0.0
 50
0.0
 51
0.0
 71
0
 72
1000
 73
1
 74
3
 75
0
 76
0
 77
0
 78
0
281
0
 65
1
110
0.0
120
0.0
130
0.0
111
1.0
121
0.0
131
0.0
112
0.0
122
1.0
132
0.0
 79
0
146
0.0
  0
ENDTAB
  0
TABLE
  2
LTYPE
  5
2
330
0
100
AcDbSymbolTable
 70
3
  0
LTYPE
  5
24
330
2
100
AcDbSymbolTableRecord
100
AcDbLinetypeTableRecord
  2
ByBlock
 70
0
  3

 72
65
 73
0
 40
0.0
  0
LTYPE
  5
25
330
2
100
AcDbSymbolTableRecord
100
AcDbLinetypeTableRecord
  2
ByLayer
 70
0
  3

 72
65
 73
0
 40
0.0
  0
LTYPE
  5
26
330
2
100
AcDbSymbolTableRecord
100
AcDbLinetypeTableRecord
  2
Continuous
 70
0
  3

 72
65
 73
0
 40
0.0
  0
ENDTAB
  0
TABLE
  2
LAYER
  5
1
330
0
100
AcDbSymbolTable
 70
3
  0
LAYER
  5
27
330
1
100
AcDbSymbolTableRecord
100
AcDbLayerTableRecord
  2
0
 70
0
 62
7
  6
Continuous
370
-3
390
13
347
21
  0
LAYER
  5
28
330
1
100
AcDbSymbolTableRecord
100
AcDbLayerTableRecord
  2
Defpoints
 70
0
 62
7
  6
Continuous
290
0
370
-3
390
13
347
21
  0
LAYER
  5
2F
330
1
100
AcDbSymbolTableRecord
100
AcDbLayerTableRecord
  2
visible
 70
0
 62
7
  6
Continuous
370
-3
390
13
347
21
  0
ENDTAB
  0
TABLE
  2
STYLE
  5
5
330
0
100
AcDbSymbolTable
 70
1
  0
STYLE
  5
29
330
5
100
AcDbSymbolTableRecord
100
AcDbTextStyleTableRecord
  2
Standard
 70
0
 40
0.0
 41
1.0
 50
0.0
 71
0
 42
2.5
  3
txt
  4

  0
ENDTAB
  0
TABLE
  2
VIEW
  5
7
330
0
100
AcDbSymbolTable
 70
0
  0
ENDTAB
  0
TABLE
  2
UCS
  5
6
330
0
100
AcDbSymbolTable
 70
0
  0
ENDTAB
  0
TABLE
  2
APPID
  5
3
330
0
100
AcDbSymbolTable
 70
3
  0
APPID
  5
2A
330
3
100
AcDbSymbolTableRecord
100
AcDbRegAppTableRecord
  2
ACAD
 70
0
  0
APPID
  5
235
330
3
100
AcDbSymbolTableRecord
100
AcDbRegAppTableRecord
  2
HATCHBACKGROUNDCOLOR
 70
0
  0
APPID
  5
236
330
3
100
AcDbSymbolTableRecord
100
AcDbRegAppTableRecord
  2
EZDXF
 70
0
  0
ENDTAB
  0
TABLE
  2
DIMSTYLE
  5
4
330
0
100
AcDbSymbolTable
 70
1
100
AcDbDimStyleTable
  0
DIMSTYLE
105
2B
330
4
100
AcDbSymbolTableRecord
100
AcDbDimStyleTableRecord
  2
Standard
 70
0
 40
1.0
 41
2.5
 42
0.625
 43
3.75
 44
1.25
 45
0.0
 46
0.0
 47
0.0
 48
0.0
 49
2.5
140
2.5
141
2.5
142
0.0
143
0.03937007874
144
1.0
145
0.0
146
1.0
147
0.625
148
0.0
 69
0
 70
0
 71
0
 72
0
 73
0
 74
0
 75
0
 76
0
 77
1
 78
8
 79
3
170
0
171
3
172
1
173
0
174
0
175
0
176
0
177
0
178
0
179
2
271
2
272
2
273
2
274
3
275
0
276
0
277
2
278
44
279
0
280
0
281
0
282
0
283
0
284
8
285
0
286
0
288
0
289
3
290
0
371
-2
372
-2
  0
ENDTAB
  0
TABLE
  2
BLOCK_RECORD
  5
9
330
0
100
AcDbSymbolTable
 70
2
  0
BLOCK_RECORD
  5
17
330
9
100
AcDbSymbolTableRecord
100
AcDbBlockTableRecord
  2
*Model_Space
340
1A
 70
0
280
1
281
0
  0
BLOCK_RECORD
  5
1B
330
9
100
AcDbSymbolTableRecord
100
AcDbBlockTableRecord
  2
*Paper_Space
340
1E
 70
0
280
1
281
0
  0
ENDTAB
  0
ENDSEC
  0
SECTION
  2
BLOCKS
  0
BLOCK
  5
18
330
17
100
AcDbEntity
  8
0
100
AcDbBlockBegin
  2
*Model_Space
 70
0
 10
0.0
 20
0.0
 30
0.0
  3
*Model_Space
  1

  0
ENDBLK
  5
19
330
17
100
AcDbEntity
  8
0
100
AcDbBlockEnd
  0
BLOCK
  5
1C
330
1B
100
AcDbEntity
  8
0
100
AcDbBlockBegin
  2
*Paper_Space
 70
0
 10
0.0
 20
0.0
 30
0.0
  3
*Paper_Space
  1

  0
ENDBLK
  5
1D
330
1B
100
AcDbEntity
  8
0
100
AcDbBlockEnd
  0
ENDSEC
  0
SECTION
  2
ENTITIES
  0
LINE
  5
30
330
17
100
AcDbEntity
  8
visible
100
AcDbLine
 10
-72.0
 20
38.000000051877684
 30
0.0
 11
-72.0
 21
-37.999999948122316
 31
0.0
  0
ELLIPSE
  5
31
330
17
100
AcDbEntity
  8
visible
100
AcDbEllipse
 10
-50.0
 20
38.000000051877684
 30
0.0
 11
-22.0
 21
-0.0
 31
0.0
 40
1.0
 41
4.71238898038469
 42
6.283185307179586
  0
LINE
  5
32
330
17
100
AcDbEntity
  8
visible
100
AcDbLine
 10
-50.0
 20
60.000000051877684
 30
0.0
 11
50.0
 21
60.000000051877684
 31
0.0
  0
ELLIPSE
  5
33
330
17
100
AcDbEntity
  8
visible
100
AcDbEllipse
 10
50.0
 20
38.000000051877684
 30
0.0
 11
-22.0
 21
-0.0
 31
0.0
 40
1.0
 41
3.141592653589793
 42
4.71238898038469
  0
ELLIPSE
  5
34
330
17
100
AcDbEntity
  8
visible
100
AcDbEllipse
 10
-50.0
 20
38.000000053605156
 30
0.0
 11
22.0
 21
0.0
 31
0.0
 40
1.0
 41
-4.71238898038469
 42
-3.141592653589793
  0
ELLIPSE
  5
35
330
17
100
AcDbEntity
  8
visible
100
AcDbEllipse
 10
50.0
 20
38.000000053605156
 30
0.0
 11
22.0
 21
0.0
 31
0.0
 40
1.0
 41
-6.283185307179586
 42
-4.71238898038469
  0
LINE
  5
36
330
17
100
AcDbEntity
  8
visible
100
AcDbLine
 10
-50.0
 20
60.000000053605156
 30
0.0
 11
50.0
 21
60.000000053605156
 31
0.0
  0
ELLIPSE
  5
37
330
17
100
AcDbEntity
  8
visible
100
AcDbEllipse
 10
-60.5
 20
-48.49999994849785
 30
0.0
 11
-1.3
 21
-0.0
 31
0.0
 40
1.0
 41
3.141592653589793
 42
9.42477796076938
  0
ELLIPSE
  5
38
330
17
100
AcDbEntity
  8
visible
100
AcDbEllipse
 10
60.5
 20
-48.49999994849785
 30
0.0
 11
-1.3
 21
-0.0
 31
0.0
 40
1.0
 41
3.141592653589793
 42
9.42477796076938
  0
ELLIPSE
  5
39
330
17
100
AcDbEntity
  8
visible
100
AcDbEllipse
 10
-60.5
 20
48.50000005150215
 30
0.0
 11
-1.3
 21
-0.0
 31
0.0
 40
1.0
 41
3.141592653589793
 42
9.42477796076938
  0
ELLIPSE
  5
3A
330
17
100
AcDbEntity
  8
visible
100
AcDbEllipse
 10
60.5
 20
48.50000005150215
 30
0.0
 11
-1.3
 21
-0.0
 31
0.0
 40
1.0
 41
3.141592653589793
 42
9.42477796076938
  0
LINE
  5
3B
330
17
100
AcDbEntity
  8
visible
100
AcDbLine
 10
-72.0
 20
-37.999999948454935
 30
0.0
 11
-72.0
 21
38.000000051545065
 31
0.0
  0
ELLIPSE
  5
3C
330
17
100
AcDbEntity
  8
visible
100
AcDbEllipse
 10
-50.0
 20
38.000000051545065
 30
0.0
 11
22.0
 21
0.0
 31
0.0
 40
1.0
 41
-4.71238898038469
 42
-3.141592653589793
  0
LINE
  5
3D
330
17
100
AcDbEntity
  8
visible
100
AcDbLine
 10
-50.0
 20
60.000000051545065
 30
0.0
 11
50.0
 21
60.000000051545065
 31
0.0
  0
ELLIPSE
  5
3E
330
17
100
AcDbEntity
  8
visible
100
AcDbEllipse
 10
50.0
 20
38.000000051545065
 30
0.0
 11
22.0
 21
0.0
 31
0.0
 40
1.0
 41
-6.283185307179586
 42
-4.71238898038469
  0
ELLIPSE
  5
3F
330
17
100
AcDbEntity
  8
visible
100
AcDbEllipse
 10
-60.5
 20
-48.49999994656652
 30
0.0
 11
-1.3
 21
-0.0
 31
0.0
 40
1.0
 41
3.141592653589793
 42
9.42477796076938
  0
ELLIPSE
  5
40
330
17
100
AcDbEntity
  8
visible
100
AcDbEllipse
 10
60.5
 20
-48.49999994656652
 30
0.0
 11
-1.3
 21
-0.0
 31
0.0
 40
1.0
 41
3.141592653589793
 42
9.42477796076938
  0
ELLIPSE
  5
41
330
17
100
AcDbEntity
  8
visible
100
AcDbEllipse
 10
-60.5
 20
48.50000005343348
 30
0.0
 11
-1.3
 21
-0.0
 31
0.0
 40
1.0
 41
3.141592653589793
 42
9.42477796076938
  0
ELLIPSE
  5
42
330
17
100
AcDbEntity
  8
visible
100
AcDbEllipse
 10
60.5
 20
48.50000005343348
 30
0.0
 11
-1.3
 21
-0.0
 31
0.0
 40
1.0
 41
3.141592653589793
 42
9.42477796076938
  0
LINE
  5
43
330
17
100
AcDbEntity
  8
visible
100
AcDbLine
 10
-72.0
 20
-37.999999948669526
 30
0.0
 11
-72.0
 21
38.000000051330474
 31
0.0
  0
ELLIPSE
  5
44
330
17
100
AcDbEntity
  8
visible
100
AcDbEllipse
 10
-50.0
 20
-37.999999948669526
 30
0.0
 11
22.0
 21
0.0
 31
0.0
 40
1.0
 41
-3.141592653589793
 42
-1.5707963267948968
  0
ELLIPSE
  5
45
330
17
100
AcDbEntity
  8
visible
100
AcDbEllipse
 10
-50.0
 20
38.00000005145923
 30
0.0
 11
22.0
 21
0.0
 31
0.0
 40
1.0
 41
-4.71238898038469
 42
-3.141592653589793
  0
ELLIPSE
  5
46
330
17
100
AcDbEntity
  8
visible
100
AcDbEllipse
 10
-50.0
 20
38.000000051330474
 30
0.0
 11
22.0
 21
0.0
 31
0.0
 40
1.0
 41
-4.71238898038469
 42
-3.141592653589793
  0
ELLIPSE
  5
47
330
17
100
AcDbEntity
  8
visible
100
AcDbEllipse
 10
-60.5
 20
-48.49999994871244
 30
0.0
 11
-3.2
 21
-0.0
 31
0.0
 40
1.0
 41
3.141592653589793
 42
9.42477796076938
  0
ELLIPSE
  5
48
330
17
100
AcDbEntity
  8
visible
100
AcDbEllipse
 10
60.5
 20
-48.49999994871244
 30
0.0
 11
-3.2
 21
-0.0
 31
0.0
 40
1.0
 41
3.141592653589793
 42
9.42477796076938
  0
ELLIPSE
  5
49
330
17
100
AcDbEntity
  8
visible
100
AcDbEllipse
 10
-60.5
 20
48.50000005128756
 30
0.0
 11
-3.2
 21
-0.0
 31
0.0
 40
1.0
 41
3.141592653589793
 42
9.42477796076938
  0
ELLIPSE
  5
4A
330
17
100
AcDbEntity
  8
visible
100
AcDbEllipse
 10
60.5
 20
48.50000005128756
 30
0.0
 11
-3.2
 21
-0.0
 31
0.0
 40
1.0
 41
3.141592653589793
 42
9.42477796076938
  0
LINE
  5
4B
330
17
100
AcDbEntity
  8
visible
100
AcDbLine
 10
50.0
 20
-59.999999948669526
 30
0.0
 11
-50.0
 21
-59.999999948669526
 31
0.0
  0
ELLIPSE
  5
4C
330
17
100
AcDbEntity
  8
visible
100
AcDbEllipse
 10
50.0
 20
-37.999999948669526
 30
0.0
 11
22.0
 21
0.0
 31
0.0
 40
1.0
 41
-1.5707963267948966
 42
-0.0
  0
LINE
  5
4D
330
17
100
AcDbEntity
  8
visible
100
AcDbLine
 10
-50.0
 20
60.00000005145923
 30
0.0
 11
50.0
 21
60.00000005145923
 31
0.0
  0
ELLIPSE
  5
4E
330
17
100
AcDbEntity
  8
visible
100
AcDbEllipse
 10
50.0
 20
38.00000005145923
 30
0.0
 11
22.0
 21
0.0
 31
0.0
 40
1.0
 41
-6.283185307179586
 42
-4.71238898038469
  0
ELLIPSE
  5
4F
330
17
100
AcDbEntity
  8
visible
100
AcDbEllipse
 10
-60.5
 20
-48.499999948605144
 30
0.0
 11
-1.65
 21
-0.0
 31
0.0
 40
1.0
 41
3.141592653589793
 42
9.42477796076938
  0
ELLIPSE
  5
50
330
17
100
AcDbEntity
  8
visible
100
AcDbEllipse
 10
60.5
 20
-48.499999948605144
 30
0.0
 11
-1.65
 21
-0.0
 31
0.0
 40
1.0
 41
3.141592653589793
 42
9.42477796076938
  0
ELLIPSE
  5
51
330
17
100
AcDbEntity
  8
visible
100
AcDbEllipse
 10
-60.5
 20
48.500000051394856
 30
0.0
 11
-1.65
 21
-0.0
 31
0.0
 40
1.0
 41
3.141592653589793
 42
9.42477796076938
  0
ELLIPSE
  5
52
330
17
100
AcDbEntity
  8
visible
100
AcDbEllipse
 10
60.5
 20
48.500000051394856
 30
0.0
 11
-1.65
 21
-0.0
 31
0.0
 40
1.0
 41
3.141592653589793
 42
9.42477796076938
  0
LINE
  5
53
330
17
100
AcDbEntity
  8
visible
100
AcDbLine
 10
-50.0
 20
60.000000051330474
 30
0.0
 11
50.0
 21
60.000000051330474
 31
0.0
  0
ELLIPSE
  5
54
330
17
100
AcDbEntity
  8
visible
100
AcDbEllipse
 10
50.0
 20
38.000000051330474
 30
0.0
 11
22.0
 21
0.0
 31
0.0
 40
1.0
 41
-6.283185307179586
 42
-4.71238898038469
  0
LINE
  5
55
330
17
100
AcDbEntity
  8
visible
100
AcDbLine
 10
72.0
 20
38.000000051330474
 30
0.0
 11
72.0
 21
-37.999999948669526
 31
0.0
  0
ELLIPSE
  5
56
330
17
100
AcDbEntity
  8
visible
100
AcDbEllipse
 10
-60.5
 20
-48.499999948605144
 30
0.0
 11
-3.2
 21
-0.0
 31
0.0
 40
1.0
 41
3.141592653589793
 42
9.42477796076938
  0
ELLIPSE
  5
57
330
17
100
AcDbEntity
  8
visible
100
AcDbEllipse
 10
60.5
 20
-48.499999948605144
 30
0.0
 11
-3.2
 21
-0.0
 31
0.0
 40
1.0
 41
3.141592653589793
 42
9.42477796076938
  0
ELLIPSE
  5
58
330
17
100
AcDbEntity
  8
visible
100
AcDbEllipse
 10
-60.5
 20
48.500000051394856
 30
0.0
 11
-3.2
 21
-0.0
 31
0.0
 40
1.0
 41
3.141592653589793
 42
9.42477796076938
  0
ELLIPSE
  5
59
330
17
100
AcDbEntity
  8
visible
100
AcDbEllipse
 10
60.5
 20
48.500000051394856
 30
0.0
 11
-3.2
 21
-0.0
 31
0.0
 40
1.0
 41
3.141592653589793
 42
9.42477796076938
  0
LINE
  5
5A
330
17
100
AcDbEntity
  8
visible
100
AcDbLine
 10
37.0
 20
-14.999999949635193
 30
0.0
 11
37.0
 21
-10.899999952896996
 31
0.0
  0
LINE
  5
5B
330
17
100
AcDbEntity
  8
visible
100
AcDbLine
 10
37.0
 20
-9.09999995040236
 30
0.0
 11
37.0
 21
-6.449999951885729
 31
0.0
  0
LINE
  5
5C
330
17
100
AcDbEntity
  8
visible
100
AcDbLine
 10
37.0
 20
6.450000048114269
 30
0.0
 11
37.0
 21
9.100000047103006
 31
0.0
  0
LINE
  5
5D
330
17
100
AcDbEntity
  8
visible
100
AcDbLine
 10
37.0
 20
10.90000004959764
 30
0.0
 11
37.0
 21
15.000000050364807
 31
0.0
  0
SPLINE
  5
5E
330
17
100
AcDbEntity
  8
visible
100
AcDbSpline
 70
0
 71
1
 72
17
 73
15
 74
0
 40
0.0
 40
0.0
 40
0.1121997376282069
 40
0.2243994752564138
 40
0.3365992128846207
 40
0.4487989505128276
 40
0.5609986881410345
 40
0.6731984257692414
 40
0.7853981633974483
 40
0.8975979010256552
 40
1.009797638653862
 40
1.121997376282069
 40
1.2341971139102759
 40
1.3463968515384828
 40
1.4585965891666897
 40
1.5707963267948966
 40
1.5707963267948966
 10
37.0
 20
-1.9999999536051485
 30
0.0
 10
37.0
 20
-3.9257889425762422
 30
0.0
 10
37.0
 20
-5.827360017630622
 30
0.0
 10
37.0
 20
-7.680799819182242
 30
0.0
 10
37.0
 20
-9.462800266335767
 30
0.0
 10
37.0
 20
-11.150951669527501
 30
0.0
 10
37.0
 20
-12.72402454537405
 30
0.0
 10
37.0
 20
-14.1622365897435
 30
0.0
 10
37.0
 20
-15.44750145170784
 30
0.0
 10
37.0
 20
-16.56365617989982
 30
0.0
 10
37.0
 20
-17.496664481004373
 30
0.0
 10
37.0
 20
-18.23479323429109
 30
0.0
 10
37.0
 20
-18.768760042415103
 30
0.0
 10
37.0
 20
-19.09184996294949
 30
0.0
 10
37.0
 20
-19.199999952682404
 30
0.0
  0
LINE
  5
5F
330
17
100
AcDbEntity
  8
visible
100
AcDbLine
 10
37.0
 20
2.00000004639485
 30
0.0
 11
37.0
 21
-1.9999999536051498
 31
0.0
  0
SPLINE
  5
60
330
17
100
AcDbEntity
  8
visible
100
AcDbSpline
 70
0
 71
1
 72
17
 73
15
 74
0
 40
0.0
 40
0.0
 40
0.1121997376282069
 40
0.2243994752564138
 40
0.3365992128846207
 40
0.4487989505128276
 40
0.5609986881410345
 40
0.6731984257692414
 40
0.7853981633974483
 40
0.8975979010256552
 40
1.009797638653862
 40
1.121997376282069
 40
1.2341971139102759
 40
1.3463968515384828
 40
1.4585965891666897
 40
1.5707963267948966
 40
1.5707963267948966
 10
37.0
 20
19.200000047317594
 30
0.0
 10
37.0
 20
19.091850057378053
 30
0.0
 10
37.0
 20
18.768760136639628
 30
0.0
 10
37.0
 20
18.234793328316755
 30
0.0
 10
37.0
 20
17.496664574838842
 30
0.0
 10
37.0
 20
16.563656273553153
 30
0.0
 10
37.0
 20
15.447501545192386
 30
0.0
 10
37.0
 20
14.162236683073735
 30
0.0
 10
37.0
 20
12.724024638566384
 30
0.0
 10
37.0
 20
11.150951762600073
 30
0.0
 10
37.0
 20
9.462800359308229
 30
0.0
 10
37.0
 20
7.680799912075507
 30
0.0
 10
37.0
 20
5.827360110466593
 30
0.0
 10
37.0
 20
3.925789035377548
 30
0.0
 10
37.0
 20
2.0000000463948506
 30
0.0
  0
LINE
  5
61
330
17
100
AcDbEntity
  8
visible
100
AcDbLine
 10
37.0
 20
6.450000048114269
 30
0.0
 11
37.0
 21
2.4000000477467816
 31
0.0
  0
SPLINE
  5
62
330
17
100
AcDbEntity
  8
visible
100
AcDbSpline
 70
0
 71
1
 72
17
 73
15
 74
0
 40
0.0
 40
0.0
 40
0.07142857142857142
 40
0.14285714285714293
 40
0.21428571428571436
 40
0.2857142857142858
 40
0.3571428571428572
 40
0.42857142857142866
 40
0.5000000000000001
 40
0.5714285714285715
 40
0.6428571428571429
 40
0.7142857142857143
 40
0.7857142857142857
 40
0.8571428571428571
 40
0.9285714285714286
 40
1.0
 40
1.0
 10
37.0
 20
2.250000046727468
 30
0.0
 10
37.0
 20
2.1935878491365712
 30
0.0
 10
37.0
 20
2.027179999507911
 30
0.0
 10
37.0
 20
1.7591208822805353
 30
0.0
 10
37.0
 20
1.4028521009096186
 30
0.0
 10
37.0
 20
0.9762384597419738
 30
0.0
 10
37.0
 20
0.5006721481291754
 30
0.0
 10
37.0
 20
4.672746789502469e-08
 30
0.0
 10
37.0
 20
-0.5006720546742394
 30
0.0
 10
37.0
 20
-0.9762383662870376
 30
0.0
 10
37.0
 20
-1.4028520074546824
 30
0.0
 10
37.0
 20
-1.7591207888255989
 30
0.0
 10
37.0
 20
-2.027179906052975
 30
0.0
 10
37.0
 20
-2.1935877556816354
 30
0.0
 10
37.0
 20
-2.249999953272532
 30
0.0
  0
ELLIPSE
  5
63
330
17
100
AcDbEntity
  8
visible
100
AcDbEllipse
 10
42.0
 20
15.000000050364807
 30
0.0
 11
5.0
 21
0.0
 31
0.0
 40
1.0
 41
-4.71238898038469
 42
-4.712354067852489
  0
LINE
  5
64
330
17
100
AcDbEntity
  8
visible
100
AcDbLine
 10
42.0
 20
20.000000050364807
 30
0.0
 11
46.0
 21
20.000000050364807
 31
0.0
  0
ELLIPSE
  5
65
330
17
100
AcDbEntity
  8
visible
100
AcDbEllipse
 10
46.0
 20
15.000000050364807
 30
0.0
 11
5.0
 21
0.0
 31
0.0
 40
1.0
 41
-4.71242389291689
 42
-4.71238898038469
  0
ELLIPSE
  5
66
330
17
100
AcDbEntity
  8
visible
100
AcDbEllipse
 10
37.8
 20
-19.199999952682404
 30
0.0
 11
0.8
 21
0.0
 31
0.0
 40
1.0
 41
-3.141592653589793
 42
-1.5707963267948966
  0
ELLIPSE
  5
67
330
17
100
AcDbEntity
  8
visible
100
AcDbEllipse
 10
37.8
 20
19.200000047317594
 30
0.0
 11
-0.8
 21
-0.0
 31
0.0
 40
1.0
 41
4.71238898038469
 42
6.283185307179586
  0
ELLIPSE
  5
68
330
17
100
AcDbEntity
  8
visible
100
AcDbEllipse
 10
37.8
 20
19.200000049436696
 30
0.0
 11
-0.8
 21
-0.0
 31
0.0
 40
1.0
 41
4.71238898038469
 42
6.283185307179586
  0
ELLIPSE
  5
69
330
17
100
AcDbEntity
  8
visible
100
AcDbEllipse
 10
42.0
 20
15.000000050021459
 30
0.0
 11
5.0
 21
0.0
 31
0.0
 40
1.0
 41
-4.71238898038469
 42
-4.712356093525305
  0
LINE
  5
6A
330
17
100
AcDbEntity
  8
visible
100
AcDbLine
 10
43.0
 20
6.450000048114269
 30
0.0
 11
43.0
 21
6.1000000466201705
 31
0.0
  0
LINE
  5
6B
330
17
100
AcDbEntity
  8
visible
100
AcDbLine
 10
43.0
 20
-6.099999953379828
 30
0.0
 11
43.0
 21
-6.4499999518857285
 31
0.0
  0
LINE
  5
6C
330
17
100
AcDbEntity
  8
visible
100
AcDbLine
 10
46.0
 20
-19.99999994997854
 30
0.0
 11
42.0
 21
-19.99999994997854
 31
0.0
  0
LINE
  5
6D
330
17
100
AcDbEntity
  8
visible
100
AcDbLine
 10
43.0
 20
6.750000047103006
 30
0.0
 11
43.0
 21
6.450000048114271
 31
0.0
  0
LINE
  5
6E
330
17
100
AcDbEntity
  8
visible
100
AcDbLine
 10
43.0
 20
-6.4499999518857285
 30
0.0
 11
43.0
 21
-6.74999995040236
 31
0.0
  0
ELLIPSE
  5
6F
330
17
100
AcDbEntity
  8
visible
100
AcDbEllipse
 10
46.0
 20
15.000000050021459
 30
0.0
 11
5.0
 21
0.0
 31
0.0
 40
1.0
 41
-4.712421867244075
 42
-4.71238898038469
  0
LINE
  5
70
330
17
100
AcDbEntity
  8
visible
100
AcDbLine
 10
37.8
 20
-19.999999952682405
 30
0.0
 11
42.2
 21
-19.999999952682405
 31
0.0
  0
LINE
  5
71
330
17
100
AcDbEntity
  8
visible
100
AcDbLine
 10
37.8
 20
20.000000047317595
 30
0.0
 11
42.2
 21
20.000000047317595
 31
0.0
  0
LINE
  5
72
330
17
100
AcDbEntity
  8
visible
100
AcDbLine
 10
37.8
 20
20.000000049436697
 30
0.0
 11
42.2
 21
20.000000049436697
 31
0.0
  0
LINE
  5
73
330
17
100
AcDbEntity
  8
visible
100
AcDbLine
 10
43.0
 20
2.00000004639485
 30
0.0
 11
43.0
 21
-1.9999999536051498
 31
0.0
  0
SPLINE
  5
74
330
17
100
AcDbEntity
  8
visible
100
AcDbSpline
 70
0
 71
1
 72
17
 73
15
 74
0
 40
0.0
 40
0.0
 40
0.1121997376282069
 40
0.2243994752564138
 40
0.3365992128846207
 40
0.4487989505128276
 40
0.5609986881410345
 40
0.6731984257692414
 40
0.7853981633974483
 40
0.8975979010256552
 40
1.009797638653862
 40
1.121997376282069
 40
1.2341971139102759
 40
1.3463968515384828
 40
1.4585965891666897
 40
1.5707963267948966
 40
1.5707963267948966
 10
43.0
 20
19.200000047317594
 30
0.0
 10
43.0
 20
19.091850057378053
 30
0.0
 10
43.0
 20
18.768760136639628
 30
0.0
 10
43.0
 20
18.234793328316755
 30
0.0
 10
43.0
 20
17.496664574838842
 30
0.0
 10
43.0
 20
16.563656273553153
 30
0.0
 10
43.0
 20
15.447501545192386
 30
0.0
 10
43.0
 20
14.162236683073735
 30
0.0
 10
43.0
 20
12.724024638566384
 30
0.0
 10
43.0
 20
11.150951762600073
 30
0.0
 10
43.0
 20
9.462800359308229
 30
0.0
 10
43.0
 20
7.680799912075507
 30
0.0
 10
43.0
 20
5.827360110466593
 30
0.0
 10
43.0
 20
3.925789035377548
 30
0.0
 10
43.0
 20
2.0000000463948506
 30
0.0
  0
SPLINE
  5
75
330
17
100
AcDbEntity
  8
visible
100
AcDbSpline
 70
0
 71
1
 72
17
 73
15
 74
0
 40
0.0
 40
0.0
 40
0.1121997376282069
 40
0.2243994752564138
 40
0.3365992128846207
 40
0.4487989505128276
 40
0.5609986881410345
 40
0.6731984257692414
 40
0.7853981633974483
 40
0.8975979010256552
 40
1.009797638653862
 40
1.121997376282069
 40
1.2341971139102759
 40
1.3463968515384828
 40
1.4585965891666897
 40
1.5707963267948966
 40
1.5707963267948966
 10
43.0
 20
-1.9999999536051485
 30
0.0
 10
43.0
 20
-3.9257889425762422
 30
0.0
 10
43.0
 20
-5.827360017630622
 30
0.0
 10
43.0
 20
-7.680799819182242
 30
0.0
 10
43.0
 20
-9.462800266335767
 30
0.0
 10
43.0
 20
-11.150951669527501
 30
0.0
 10
43.0
 20
-12.72402454537405
 30
0.0
 10
43.0
 20
-14.1622365897435
 30
0.0
 10
43.0
 20
-15.44750145170784
 30
0.0
 10
43.0
 20
-16.56365617989982
 30
0.0
 10
43.0
 20
-17.496664481004373
 30
0.0
 10
43.0
 20
-18.23479323429109
 30
0.0
 10
43.0
 20
-18.768760042415103
 30
0.0
 10
43.0
 20
-19.09184996294949
 30
0.0
 10
43.0
 20
-19.199999952682404
 30
0.0
  0
SPLINE
  5
76
330
17
100
AcDbEntity
  8
visible
100
AcDbSpline
 70
0
 71
1
 72
17
 73
15
 74
0
 40
0.0
 40
0.0
 40
0.07142857142857142
 40
0.14285714285714293
 40
0.21428571428571436
 40
0.2857142857142858
 40
0.3571428571428572
 40
0.42857142857142866
 40
0.5000000000000001
 40
0.5714285714285715
 40
0.6428571428571429
 40
0.7142857142857143
 40
0.7857142857142857
 40
0.8571428571428571
 40
0.9285714285714286
 40
1.0
 40
1.0
 10
43.0
 20
13.250000047103004
 30
0.0
 10
43.0
 20
13.16851576169393
 30
0.0
 10
43.0
 20
12.928148867785866
 30
0.0
 10
43.0
 20
12.5409523651241
 30
0.0
 10
43.0
 20
12.026341903143887
 30
0.0
 10
43.0
 20
11.410122199235069
 30
0.0
 10
43.0
 20
10.723193082461025
 30
0.0
 10
43.0
 20
10.000000047103004
 30
0.0
 10
43.0
 20
9.276807011744982
 30
0.0
 10
43.0
 20
8.589877894970941
 30
0.0
 10
43.0
 20
7.973658191062119
 30
0.0
 10
43.0
 20
7.459047729081908
 30
0.0
 10
43.0
 20
7.071851226420142
 30
0.0
 10
43.0
 20
6.831484332512078
 30
0.0
 10
43.0
 20
6.750000047103006
 30
0.0
  0
ELLIPSE
  5
77
330
17
100
AcDbEntity
  8
visible
100
AcDbEllipse
 10
42.2
 20
19.200000049436696
 30
0.0
 11
0.8
 21
0.0
 31
0.0
 40
1.0
 41
-6.283185307179586
 42
-4.71238898038469
  0
LINE
  5
78
330
17
100
AcDbEntity
  8
visible
100
AcDbLine
 10
42.0
 20
20.00000005002146
 30
0.0
 11
46.0
 21
20.00000005002146
 31
0.0
  0
ELLIPSE
  5
79
330
17
100
AcDbEntity
  8
visible
100
AcDbEllipse
 10
42.2
 20
-19.199999952682404
 30
0.0
 11
-0.8
 21
-0.0
 31
0.0
 40
1.0
 41
1.5707963267948966
 42
3.141592653589793
  0
ELLIPSE
  5
7A
330
17
100
AcDbEntity
  8
visible
100
AcDbEllipse
 10
42.2
 20
19.200000047317594
 30
0.0
 11
0.8
 21
0.0
 31
0.0
 40
1.0
 41
-6.283185307179586
 42
-4.71238898038469
  0
ELLIPSE
  5
7B
330
17
100
AcDbEntity
  8
visible
100
AcDbEllipse
 10
0.0
 20
5.044527956217182e-08
 30
0.0
 11
-58.0
 21
-0.0
 31
0.0
 40
1.0
 41
3.4936477528413477
 42
5.931130207928032
  0
ELLIPSE
  5
7C
330
17
100
AcDbEntity
  8
visible
100
AcDbEllipse
 10
0.0
 20
5.044527956217182e-08
 30
0.0
 11
-58.0
 21
-0.0
 31
0.0
 40
1.0
 41
0.35205509936645285
 42
2.7895375542233403
  0
ELLIPSE
  5
7D
330
17
100
AcDbEntity
  8
visible
100
AcDbEllipse
 10
0.0
 20
5.107296197297413e-08
 30
0.0
 11
-58.0
 21
-0.0
 31
0.0
 40
1.0
 41
4.591404393797434
 42
4.833373566971947
  0
ELLIPSE
  5
7E
330
17
100
AcDbEntity
  8
visible
100
AcDbEllipse
 10
0.0
 20
5.0681331067088926e-08
 30
0.0
 11
-58.0
 21
-0.0
 31
0.0
 40
1.0
 41
4.59140439379745
 42
4.83337356697192
  0
LINE
  5
7F
330
17
100
AcDbEntity
  8
visible
100
AcDbLine
 10
37.412701665379245
 20
6.450000048114271
 30
0.0
 11
37.412701665379245
 21
9.100000047103004
 31
0.0
  0
LINE
  5
80
330
17
100
AcDbEntity
  8
visible
100
AcDbLine
 10
37.412701665379245
 20
10.900000049597642
 30
0.0
 11
37.412701665379245
 21
15.000000050402361
 31
0.0
  0
ELLIPSE
  5
81
330
17
100
AcDbEntity
  8
visible
100
AcDbEllipse
 10
43.8
 20
-19.199999952682404
 30
0.0
 11
0.8
 21
0.0
 31
0.0
 40
1.0
 41
-3.141592653589793
 42
-1.5707963267948966
  0
ELLIPSE
  5
82
330
17
100
AcDbEntity
  8
visible
100
AcDbEllipse
 10
69.2
 20
-19.199999952682404
 30
0.0
 11
-0.8
 21
-0.0
 31
0.0
 40
1.0
 41
1.5707963267948966
 42
3.141592653589793
  0
LINE
  5
83
330
17
100
AcDbEntity
  8
visible
100
AcDbLine
 10
43.8
 20
-19.999999952682405
 30
0.0
 11
69.2
 21
-19.999999952682405
 31
0.0
  0
SPLINE
  5
84
330
17
100
AcDbEntity
  8
visible
100
AcDbSpline
 70
0
 71
1
 72
17
 73
15
 74
0
 40
0.0
 40
0.0
 40
0.1121997376282069
 40
0.2243994752564138
 40
0.3365992128846207
 40
0.4487989505128276
 40
0.5609986881410345
 40
0.6731984257692414
 40
0.7853981633974483
 40
0.8975979010256552
 40
1.009797638653862
 40
1.121997376282069
 40
1.2341971139102759
 40
1.3463968515384828
 40
1.4585965891666897
 40
1.5707963267948966
 40
1.5707963267948966
 10
43.0
 20
-1.9999999536051485
 30
0.0
 10
43.0
 20
-3.9257889425762422
 30
0.0
 10
43.0
 20
-5.827360017630622
 30
0.0
 10
43.0
 20
-7.680799819182242
 30
0.0
 10
43.0
 20
-9.462800266335767
 30
0.0
 10
43.0
 20
-11.150951669527501
 30
0.0
 10
43.0
 20
-12.72402454537405
 30
0.0
 10
43.0
 20
-14.1622365897435
 30
0.0
 10
43.0
 20
-15.44750145170784
 30
0.0
 10
43.0
 20
-16.56365617989982
 30
0.0
 10
43.0
 20
-17.496664481004373
 30
0.0
 10
43.0
 20
-18.23479323429109
 30
0.0
 10
43.0
 20
-18.768760042415103
 30
0.0
 10
43.0
 20
-19.09184996294949
 30
0.0
 10
43.0
 20
-19.199999952682404
 30
0.0
  0
LINE
  5
85
330
17
100
AcDbEntity
  8
visible
100
AcDbLine
 10
43.0
 20
2.00000004639485
 30
0.0
 11
43.0
 21
-1.9999999536051498
 31
0.0
  0
SPLINE
  5
86
330
17
100
AcDbEntity
  8
visible
100
AcDbSpline
 70
0
 71
1
 72
17
 73
15
 74
0
 40
0.0
 40
0.0
 40
0.1121997376282069
 40
0.2243994752564138
 40
0.3365992128846207
 40
0.4487989505128276
 40
0.5609986881410345
 40
0.6731984257692414
 40
0.7853981633974483
 40
0.8975979010256552
 40
1.009797638653862
 40
1.121997376282069
 40
1.2341971139102759
 40
1.3463968515384828
 40
1.4585965891666897
 40
1.5707963267948966
 40
1.5707963267948966
 10
43.0
 20
19.200000047317594
 30
0.0
 10
43.0
 20
19.091850057378053
 30
0.0
 10
43.0
 20
18.768760136639628
 30
0.0
 10
43.0
 20
18.234793328316755
 30
0.0
 10
43.0
 20
17.496664574838842
 30
0.0
 10
43.0
 20
16.563656273553153
 30
0.0
 10
43.0
 20
15.447501545192386
 30
0.0
 10
43.0
 20
14.162236683073735
 30
0.0
 10
43.0
 20
12.724024638566384
 30
0.0
 10
43.0
 20
11.150951762600073
 30
0.0
 10
43.0
 20
9.462800359308229
 30
0.0
 10
43.0
 20
7.680799912075507
 30
0.0
 10
43.0
 20
5.827360110466593
 30
0.0
 10
43.0
 20
3.925789035377548
 30
0.0
 10
43.0
 20
2.0000000463948506
 30
0.0
  0
SPLINE
  5
87
330
17
100
AcDbEntity
  8
visible
100
AcDbSpline
 70
0
 71
1
 72
17
 73
15
 74
0
 40
0.0
 40
0.0
 40
0.1121997376282069
 40
0.2243994752564138
 40
0.3365992128846207
 40
0.4487989505128276
 40
0.5609986881410345
 40
0.6731984257692414
 40
0.7853981633974483
 40
0.8975979010256552
 40
1.009797638653862
 40
1.121997376282069
 40
1.2341971139102759
 40
1.3463968515384828
 40
1.4585965891666897
 40
1.5707963267948966
 40
1.5707963267948966
 10
70.0
 20
-1.9999999536051485
 30
0.0
 10
70.0
 20
-3.9257889425762422
 30
0.0
 10
70.0
 20
-5.827360017630622
 30
0.0
 10
70.0
 20
-7.680799819182242
 30
0.0
 10
70.0
 20
-9.462800266335767
 30
0.0
 10
70.0
 20
-11.150951669527501
 30
0.0
 10
70.0
 20
-12.72402454537405
 30
0.0
 10
70.0
 20
-14.1622365897435
 30
0.0
 10
70.0
 20
-15.44750145170784
 30
0.0
 10
70.0
 20
-16.56365617989982
 30
0.0
 10
70.0
 20
-17.496664481004373
 30
0.0
 10
70.0
 20
-18.23479323429109
 30
0.0
 10
70.0
 20
-18.768760042415103
 30
0.0
 10
70.0
 20
-19.09184996294949
 30
0.0
 10
70.0
 20
-19.199999952682404
 30
0.0
  0
LINE
  5
88
330
17
100
AcDbEntity
  8
visible
100
AcDbLine
 10
70.0
 20
2.00000004639485
 30
0.0
 11
70.0
 21
-1.9999999536051498
 31
0.0
  0
SPLINE
  5
89
330
17
100
AcDbEntity
  8
visible
100
AcDbSpline
 70
0
 71
1
 72
17
 73
15
 74
0
 40
0.0
 40
0.0
 40
0.1121997376282069
 40
0.2243994752564138
 40
0.3365992128846207
 40
0.4487989505128276
 40
0.5609986881410345
 40
0.6731984257692414
 40
0.7853981633974483
 40
0.8975979010256552
 40
1.009797638653862
 40
1.121997376282069
 40
1.2341971139102759
 40
1.3463968515384828
 40
1.4585965891666897
 40
1.5707963267948966
 40
1.5707963267948966
 10
70.0
 20
19.200000047317594
 30
0.0
 10
70.0
 20
19.091850057378053
 30
0.0
 10
70.0
 20
18.768760136639628
 30
0.0
 10
70.0
 20
18.234793328316755
 30
0.0
 10
70.0
 20
17.496664574838842
 30
0.0
 10
70.0
 20
16.563656273553153
 30
0.0
 10
70.0
 20
15.447501545192386
 30
0.0
 10
70.0
 20
14.162236683073735
 30
0.0
 10
70.0
 20
12.724024638566384
 30
0.0
 10
70.0
 20
11.150951762600073
 30
0.0
 10
70.0
 20
9.462800359308229
 30
0.0
 10
70.0
 20
7.680799912075507
 30
0.0
 10
70.0
 20
5.827360110466593
 30
0.0
 10
70.0
 20
3.925789035377548
 30
0.0
 10
70.0
 20
2.0000000463948506
 30
0.0
  0
SPLINE
  5
8A
330
17
100
AcDbEntity
  8
visible
100
AcDbSpline
 70
0
 71
1
 72
17
 73
15
 74
0
 40
0.0
 40
0.0
 40
0.07142857142857142
 40
0.14285714285714285
 40
0.21428571428571433
 40
0.28571428571428575
 40
0.3571428571428572
 40
0.42857142857142855
 40
0.5
 40
0.5714285714285714
 40
0.6428571428571429
 40
0.7142857142857143
 40
0.7857142857142858
 40
0.8571428571428571
 40
0.9285714285714285
 40
1.0
 40
1.0
 10
70.0
 20
-7.749999959420322
 30
0.0
 10
70.0
 20
-6.747756700098233
 30
0.0
 10
70.0
 20
-5.697734473533956
 30
0.0
 10
70.0
 20
-4.607368191719925
 30
0.0
 10
70.0
 20
-3.4843784315541484
 30
0.0
 10
70.0
 20
-2.336716767607152
 30
0.0
 10
70.0
 20
-1.1725094692594022
 30
0.0
 10
70.0
 20
3.912608992351352e-08
 30
0.0
 10
70.0
 20
1.1725095475726222
 30
0.0
 10
70.0
 20
2.3367168461030614
 30
0.0
 10
70.0
 20
3.4843785103531024
 30
0.0
 10
70.0
 20
4.607368270940135
 30
0.0
 10
70.0
 20
5.697734553290648
 30
0.0
 10
70.0
 20
6.747756780502835
 30
0.0
 10
70.0
 20
7.7500000405796765
 30
0.0
  0
LINE
  5
8B
330
17
100
AcDbEntity
  8
visible
100
AcDbLine
 10
43.8
 20
20.000000049436697
 30
0.0
 11
69.2
 21
20.000000049436697
 31
0.0
  0
ELLIPSE
  5
8C
330
17
100
AcDbEntity
  8
visible
100
AcDbEllipse
 10
43.8
 20
19.200000047317594
 30
0.0
 11
-0.8
 21
-0.0
 31
0.0
 40
1.0
 41
4.71238898038469
 42
6.283185307179586
  0
ELLIPSE
  5
8D
330
17
100
AcDbEntity
  8
visible
100
AcDbEllipse
 10
43.8
 20
19.200000049436696
 30
0.0
 11
-0.8
 21
-0.0
 31
0.0
 40
1.0
 41
4.71238898038469
 42
6.283185307179586
  0
ELLIPSE
  5
8E
330
17
100
AcDbEntity
  8
visible
100
AcDbEllipse
 10
69.2
 20
19.200000049436696
 30
0.0
 11
0.8
 21
0.0
 31
0.0
 40
1.0
 41
-6.283185307179586
 42
-4.71238898038469
  0
ELLIPSE
  5
8F
330
17
100
AcDbEntity
  8
visible
100
AcDbEllipse
 10
69.2
 20
19.200000047317594
 30
0.0
 11
0.8
 21
0.0
 31
0.0
 40
1.0
 41
-6.283185307179586
 42
-4.71238898038469
  0
LINE
  5
90
330
17
100
AcDbEntity
  8
visible
100
AcDbLine
 10
70.03970627521619
 20
-9.999999952776287
 30
0.0
 11
70.4
 21
-9.999999952776287
 31
0.0
  0
SPLINE
  5
91
330
17
100
AcDbEntity
  8
visible
100
AcDbSpline
 70
0
 71
1
 72
4
 73
2
 74
0
 40
0.0
 40
0.0
 40
1.0
 40
1.0
 10
70.03970627521619
 20
-9.999999952776289
 30
0.0
 10
70.0
 20
-9.971780405997837
 30
0.0
  0
SPLINE
  5
92
330
17
100
AcDbEntity
  8
visible
100
AcDbSpline
 70
0
 71
2
 72
6
 73
3
 74
0
 40
0.0
 40
0.0
 40
0.0
 40
1.0
 40
1.0
 40
1.0
 10
70.2
 20
-7.779004120395534
 30
0.0
 10
70.09266587437943
 20
-7.778572927706115
 30
0.0
 10
70.0
 20
-7.792148040356072
 30
0.0
  0
LINE
  5
93
330
17
100
AcDbEntity
  8
visible
100
AcDbLine
 10
70.2
 20
-7.779004120395551
 30
0.0
 11
70.4
 21
-7.779004120395551
 31
0.0
  0
SPLINE
  5
94
330
17
100
AcDbEntity
  8
visible
100
AcDbSpline
 70
0
 71
1
 72
4
 73
2
 74
0
 40
0.0
 40
0.0
 40
1.0
 40
1.0
 10
70.03970627521619
 20
10.000000047223718
 30
0.0
 10
70.0
 20
9.97178050044526
 30
0.0
  0
SPLINE
  5
95
330
17
100
AcDbEntity
  8
visible
100
AcDbSpline
 70
0
 71
2
 72
6
 73
3
 74
0
 40
0.0
 40
0.0
 40
0.0
 40
1.0
 40
1.0
 40
1.0
 10
70.2
 20
10.046303256755001
 30
0.0
 10
70.11626143638989
 20
10.046205675290299
 30
0.0
 10
70.03970627521619
 20
10.000000047223716
 30
0.0
  0
SPLINE
  5
96
330
17
100
AcDbEntity
  8
visible
100
AcDbSpline
 70
0
 71
1
 72
17
 73
15
 74
0
 40
0.0
 40
0.0
 40
0.07142857142857134
 40
0.14285714285714268
 40
0.21428571428571405
 40
0.28571428571428537
 40
0.3571428571428567
 40
0.4285714285714281
 40
0.49999999999999944
 40
0.5714285714285707
 40
0.6428571428571423
 40
0.7142857142857141
 40
0.7857142857142857
 40
0.8571428571428573
 40
0.9285714285714289
 40
1.0
 40
1.0
 10
70.2
 20
14.00000004774678
 30
0.0
 10
70.2
 20
13.9788053046968
 30
0.0
 10
70.2
 20
13.915285249422999
 30
0.0
 10
70.2
 20
13.809632209246804
 30
0.0
 10
70.2
 20
13.662166082602365
 30
0.0
 10
70.2
 20
13.473333370441507
 30
0.0
 10
70.2
 20
13.24370582430904
 30
0.0
 10
70.2
 20
12.973978715181751
 30
0.0
 10
70.2
 20
12.664968728312715
 30
0.0
 10
70.2
 20
12.317611490455015
 30
0.0
 10
70.2
 20
11.932958736951932
 30
0.0
 10
70.2
 20
11.51217512727117
 30
0.0
 10
70.2
 20
11.056534718625139
 30
0.0
 10
70.2
 20
10.567417108354466
 30
0.0
 10
70.2
 20
10.046303256755007
 30
0.0
  0
SPLINE
  5
97
330
17
100
AcDbEntity
  8
visible
100
AcDbSpline
 70
0
 71
1
 72
17
 73
15
 74
0
 40
0.0
 40
0.0
 40
0.07142857142857151
 40
0.14285714285714302
 40
0.21428571428571452
 40
0.28571428571428603
 40
0.35714285714285754
 40
0.42857142857142905
 40
0.5000000000000006
 40
0.5714285714285721
 40
0.6428571428571436
 40
0.7142857142857151
 40
0.7857142857142866
 40
0.8571428571428581
 40
0.9285714285714296
 40
1.0
 40
1.0
 10
70.2
 20
-10.046303162307629
 30
0.0
 10
70.2
 20
-10.567417013775838
 30
0.0
 10
70.2
 20
-11.056534623921394
 30
0.0
 10
70.2
 20
-11.512175032449239
 30
0.0
 10
70.2
 20
-11.93295864201949
 30
0.0
 10
70.2
 20
-12.317611395420423
 30
0.0
 10
70.2
 20
-12.664968633184968
 30
0.0
 10
70.2
 20
-12.97397861997042
 30
0.0
 10
70.2
 20
-13.24370572902421
 30
0.0
 10
70.2
 20
-13.473333275093708
 30
0.0
 10
70.2
 20
-13.662165987202517
 30
0.0
 10
70.2
 20
-13.809632113806146
 30
0.0
 10
70.2
 20
-13.915285153953008
 30
0.0
 10
70.2
 20
-13.978805209209142
 30
0.0
 10
70.2
 20
-13.99999995225322
 30
0.0
  0
SPLINE
  5
98
330
17
100
AcDbEntity
  8
visible
100
AcDbSpline
 70
0
 71
2
 72
6
 73
3
 74
0
 40
0.0
 40
0.0
 40
0.0
 40
1.0
 40
1.0
 40
1.0
 10
70.2
 20
-10.046303162307629
 30
0.0
 10
70.11626143638989
 20
-10.046205580842905
 30
0.0
 10
70.03970627521619
 20
-9.999999952776287
 30
0.0
  0
LINE
  5
99
330
17
100
AcDbEntity
  8
visible
100
AcDbLine
 10
70.03970627521619
 20
10.000000047223713
 30
0.0
 11
70.4
 21
10.000000047223713
 31
0.0
  0
LINE
  5
9A
330
17
100
AcDbEntity
  8
visible
100
AcDbLine
 10
70.2
 20
7.7790042146401985
 30
0.0
 11
70.4
 21
7.7790042146401985
 31
0.0
  0
SPLINE
  5
9B
330
17
100
AcDbEntity
  8
visible
100
AcDbSpline
 70
0
 71
2
 72
6
 73
3
 74
0
 40
0.0
 40
0.0
 40
0.0
 40
1.0
 40
1.0
 40
1.0
 10
70.19999999999999
 20
7.779004214640171
 30
0.0
 10
70.0926658743794
 20
7.778573021950798
 30
0.0
 10
69.99999999999999
 20
7.792148134608602
 30
0.0
  0
SPLINE
  5
9C
330
17
100
AcDbEntity
  8
visible
100
AcDbSpline
 70
0
 71
1
 72
17
 73
15
 74
0
 40
0.0
 40
0.0
 40
0.07142857142857145
 40
0.1428571428571429
 40
0.21428571428571436
 40
0.2857142857142858
 40
0.35714285714285726
 40
0.4285714285714287
 40
0.5000000000000002
 40
0.5714285714285716
 40
0.6428571428571431
 40
0.7142857142857145
 40
0.785714285714286
 40
0.8571428571428574
 40
0.9285714285714289
 40
1.0
 40
1.0
 10
70.2
 20
7.779004214640196
 30
0.0
 10
70.2
 20
6.772985583775537
 30
0.0
 10
70.2
 20
5.719020188382521
 30
0.0
 10
70.2
 20
4.624569173972992
 30
0.0
 10
70.2
 20
3.497380288537343
 30
0.0
 10
70.2
 20
2.3454330353214434
 30
0.0
 10
70.2
 20
1.1768821849807485
 30
0.0
 10
70.2
 20
4.6995716651565544e-08
 30
0.0
 10
70.2
 20
-1.1768820909839985
 30
0.0
 10
70.2
 20
-2.3454329413087804
 30
0.0
 10
70.2
 20
-3.497380194498283
 30
0.0
 10
70.2
 20
-4.624569079897239
 30
0.0
 10
70.2
 20
-5.7190200942600375
 30
0.0
 10
70.2
 20
-6.7729854895966195
 30
0.0
 10
70.2
 20
-7.779004120395529
 30
0.0
  0
LINE
  5
9D
330
17
100
AcDbEntity
  8
visible
100
AcDbLine
 10
43.8
 20
20.000000047317595
 30
0.0
 11
69.2
 21
20.000000047317595
 31
0.0
  0
SPLINE
  5
9E
330
17
100
AcDbEntity
  8
visible
100
AcDbSpline
 70
0
 71
3
 72
8
 73
4
 74
0
 40
0.0
 40
0.0
 40
0.0
 40
0.0
 40
1.0
 40
1.0
 40
1.0
 40
1.0
 10
70.4
 20
-7.779004120395545
 30
0.0
 10
70.40000000000002
 20
-8.598280131759898
 30
0.0
 10
70.4
 20
-9.359565171976222
 30
0.0
 10
70.4
 20
-10.046303162307614
 30
0.0
  0
LINE
  5
9F
330
17
100
AcDbEntity
  8
visible
100
AcDbLine
 10
70.2
 20
-10.046303162307622
 30
0.0
 11
70.4
 21
-10.046303162307622
 31
0.0
  0
SPLINE
  5
A0
330
17
100
AcDbEntity
  8
visible
100
AcDbSpline
 70
0
 71
3
 72
8
 73
4
 74
0
 40
0.0
 40
0.0
 40
0.0
 40
0.0
 40
1.0
 40
1.0
 40
1.0
 40
1.0
 10
70.4
 20
10.046303256754992
 30
0.0
 10
70.40000000000002
 20
9.359565266347733
 30
0.0
 10
70.4
 20
8.598280226063345
 30
0.0
 10
70.4
 20
7.779004214640194
 30
0.0
  0
LINE
  5
A1
330
17
100
AcDbEntity
  8
visible
100
AcDbLine
 10
70.2
 20
10.046303256754998
 30
0.0
 11
70.4
 21
10.046303256754998
 31
0.0
  0
SPLINE
  5
A2
330
17
100
AcDbEntity
  8
visible
100
AcDbSpline
 70
0
 71
1
 72
17
 73
15
 74
0
 40
0.0
 40
0.0
 40
0.11219973762437242
 40
0.22439947524874485
 40
0.3365992128731173
 40
0.4487989504974897
 40
0.5609986881218622
 40
0.6731984257462346
 40
0.785398163370607
 40
0.8975979009949794
 40
1.009797638619352
 40
1.1219973762437243
 40
1.2341971138680967
 40
1.3463968514924691
 40
1.4585965891168415
 40
1.570796326741214
 40
1.570796326741214
 10
71.3
 20
4.8476395342333944e-08
 30
0.0
 10
71.3
 20
1.5227169234249738
 30
0.0
 10
71.3
 20
3.0262847501622954
 30
0.0
 10
71.3
 20
4.491795290878056
 30
0.0
 10
71.3
 20
5.900818900214993
 30
0.0
 10
71.3
 20
7.235636288752362
 30
0.0
 10
71.3
 20
8.479461353351363
 30
0.0
 10
71.3
 20
9.61665227214162
 30
0.0
 10
71.3
 20
10.632908209506777
 30
0.0
 10
71.3
 20
11.51544915738992
 30
0.0
 10
71.3
 20
12.253176651309984
 30
0.0
 10
71.3
 20
12.836813339992096
 30
0.0
 10
71.3
 20
13.259019653442687
 30
0.0
 10
71.3
 20
13.514486102300667
 30
0.0
 10
71.3
 20
13.60000004774678
 30
0.0
  0
SPLINE
  5
A3
330
17
100
AcDbEntity
  8
visible
100
AcDbSpline
 70
0
 71
1
 72
17
 73
15
 74
0
 40
0.0
 40
0.0
 40
0.07142857142857142
 40
0.14285714285714293
 40
0.21428571428571436
 40
0.2857142857142858
 40
0.3571428571428572
 40
0.42857142857142866
 40
0.5000000000000001
 40
0.5714285714285715
 40
0.642857142857143
 40
0.7142857142857143
 40
0.7857142857142856
 40
0.8571428571428569
 40
0.9285714285714282
 40
1.0
 40
1.0
 10
71.3
 20
13.60000004774678
 30
0.0
 10
71.3
 20
13.259019653419676
 30
0.0
 10
71.3
 20
12.253176651219839
 30
0.0
 10
71.3
 20
10.632908209312177
 30
0.0
 10
71.3
 20
8.479461353025753
 30
0.0
 10
71.3
 20
5.900818899745749
 30
0.0
 10
71.3
 20
3.0262847495527962
 30
0.0
 10
71.3
 20
4.7746869569209593e-08
 30
0.0
 10
71.3
 20
-3.0262846540590607
 30
0.0
 10
71.3
 20
-5.900818804252026
 30
0.0
 10
71.3
 20
-8.479461257532051
 30
0.0
 10
71.3
 20
-10.632908113818502
 30
0.0
 10
71.3
 20
-12.253176555726192
 30
0.0
 10
71.3
 20
-13.259019557926068
 30
0.0
 10
71.3
 20
-13.599999952253219
 30
0.0
  0
ELLIPSE
  5
A4
330
17
100
AcDbEntity
  8
visible
100
AcDbEllipse
 10
-37.8
 20
-19.199999952682404
 30
0.0
 11
-0.8
 21
-0.0
 31
0.0
 40
1.0
 41
1.5707963267948966
 42
3.141592653589793
  0
ELLIPSE
  5
A5
330
17
100
AcDbEntity
  8
visible
100
AcDbEllipse
 10
-42.2
 20
-19.199999952682404
 30
0.0
 11
0.8
 21
0.0
 31
0.0
 40
1.0
 41
-3.141592653589793
 42
-1.5707963267948966
  0
LINE
  5
A6
330
17
100
AcDbEntity
  8
visible
100
AcDbLine
 10
-37.8
 20
-19.999999952682405
 30
0.0
 11
-42.2
 21
-19.999999952682405
 31
0.0
  0
SPLINE
  5
A7
330
17
100
AcDbEntity
  8
visible
100
AcDbSpline
 70
0
 71
1
 72
17
 73
15
 74
0
 40
0.0
 40
0.0
 40
0.05099285822333024
 40
0.10198571644666048
 40
0.1529785746699907
 40
0.20397143289332095
 40
0.2549642911166512
 40
0.3059571493399814
 40
0.35695000756331163
 40
0.40794286578664185
 40
0.45893572400997207
 40
0.5099285822333023
 40
0.5609214404566325
 40
0.6119142986799627
 40
0.6629071569032929
 40
0.7139000151266234
 40
0.7139000151266234
 10
-37.0
 20
-19.199999950563303
 30
0.0
 10
-37.0
 20
-19.17764246010298
 30
0.0
 10
-37.0
 20
-19.11062811176709
 30
0.0
 10
-37.0
 20
-18.999131123305688
 30
0.0
 10
-37.0
 20
-18.843441354352557
 30
0.0
 10
-37.0
 20
-18.64396355287478
 30
0.0
 10
-37.0
 20
-18.401216302946104
 30
0.0
 10
-37.0
 20
-18.11583067657967
 30
0.0
 10
-37.0
 20
-17.78854859312498
 30
0.0
 10
-37.0
 20
-17.42022089049403
 30
0.0
 10
-37.0
 20
-17.011805113231073
 30
0.0
 10
-37.0
 20
-16.564363023176195
 30
0.0
 10
-37.0
 20
-16.0790578391944
 30
0.0
 10
-37.0
 20
-15.55715121314595
 30
0.0
 10
-37.0
 20
-14.999999949959744
 30
0.0
  0
SPLINE
  5
A8
330
17
100
AcDbEntity
  8
visible
100
AcDbSpline
 70
0
 71
1
 72
17
 73
15
 74
0
 40
0.0
 40
0.0
 40
0.1121997376282069
 40
0.2243994752564138
 40
0.3365992128846207
 40
0.4487989505128276
 40
0.5609986881410345
 40
0.6731984257692414
 40
0.7853981633974483
 40
0.8975979010256552
 40
1.009797638653862
 40
1.121997376282069
 40
1.2341971139102759
 40
1.3463968515384828
 40
1.4585965891666897
 40
1.5707963267948966
 40
1.5707963267948966
 10
-37.0
 20
-1.9999999536051485
 30
0.0
 10
-37.0
 20
-3.9257889425762422
 30
0.0
 10
-37.0
 20
-5.827360017630622
 30
0.0
 10
-37.0
 20
-7.680799819182242
 30
0.0
 10
-37.0
 20
-9.462800266335767
 30
0.0
 10
-37.0
 20
-11.150951669527501
 30
0.0
 10
-37.0
 20
-12.72402454537405
 30
0.0
 10
-37.0
 20
-14.1622365897435
 30
0.0
 10
-37.0
 20
-15.44750145170784
 30
0.0
 10
-37.0
 20
-16.56365617989982
 30
0.0
 10
-37.0
 20
-17.496664481004373
 30
0.0
 10
-37.0
 20
-18.23479323429109
 30
0.0
 10
-37.0
 20
-18.768760042415103
 30
0.0
 10
-37.0
 20
-19.09184996294949
 30
0.0
 10
-37.0
 20
-19.199999952682404
 30
0.0
  0
LINE
  5
A9
330
17
100
AcDbEntity
  8
visible
100
AcDbLine
 10
-37.0
 20
2.00000004639485
 30
0.0
 11
-37.0
 21
-1.9999999536051498
 31
0.0
  0
SPLINE
  5
AA
330
17
100
AcDbEntity
  8
visible
100
AcDbSpline
 70
0
 71
1
 72
17
 73
15
 74
0
 40
0.0
 40
0.0
 40
0.1121997376282069
 40
0.2243994752564138
 40
0.3365992128846207
 40
0.4487989505128276
 40
0.5609986881410345
 40
0.6731984257692414
 40
0.7853981633974483
 40
0.8975979010256552
 40
1.009797638653862
 40
1.121997376282069
 40
1.2341971139102759
 40
1.3463968515384828
 40
1.4585965891666897
 40
1.5707963267948966
 40
1.5707963267948966
 10
-37.0
 20
19.200000047317594
 30
0.0
 10
-37.0
 20
19.091850057378053
 30
0.0
 10
-37.0
 20
18.768760136639628
 30
0.0
 10
-37.0
 20
18.234793328316755
 30
0.0
 10
-37.0
 20
17.496664574838842
 30
0.0
 10
-37.0
 20
16.563656273553153
 30
0.0
 10
-37.0
 20
15.447501545192386
 30
0.0
 10
-37.0
 20
14.162236683073735
 30
0.0
 10
-37.0
 20
12.724024638566384
 30
0.0
 10
-37.0
 20
11.150951762600073
 30
0.0
 10
-37.0
 20
9.462800359308229
 30
0.0
 10
-37.0
 20
7.680799912075507
 30
0.0
 10
-37.0
 20
5.827360110466593
 30
0.0
 10
-37.0
 20
3.925789035377548
 30
0.0
 10
-37.0
 20
2.0000000463948506
 30
0.0
  0
LINE
  5
AB
330
17
100
AcDbEntity
  8
visible
100
AcDbLine
 10
-37.0
 20
15.000000050359443
 30
0.0
 11
-37.0
 21
10.90000004959764
 31
0.0
  0
LINE
  5
AC
330
17
100
AcDbEntity
  8
visible
100
AcDbLine
 10
-37.0
 20
9.100000047103004
 30
0.0
 11
-37.0
 21
4.500000047746781
 31
0.0
  0
LINE
  5
AD
330
17
100
AcDbEntity
  8
visible
100
AcDbLine
 10
-37.0
 20
-4.499999952253219
 30
0.0
 11
-37.0
 21
-9.09999995040236
 31
0.0
  0
LINE
  5
AE
330
17
100
AcDbEntity
  8
visible
100
AcDbLine
 10
-37.0
 20
-10.899999952896994
 30
0.0
 11
-37.0
 21
-14.999999949640557
 31
0.0
  0
SPLINE
  5
AF
330
17
100
AcDbEntity
  8
visible
100
AcDbSpline
 70
0
 71
1
 72
17
 73
15
 74
0
 40
0.0
 40
0.0
 40
0.07142857142857148
 40
0.14285714285714296
 40
0.21428571428571447
 40
0.2857142857142859
 40
0.35714285714285726
 40
0.42857142857142877
 40
0.5000000000000002
 40
0.5714285714285717
 40
0.6428571428571432
 40
0.7142857142857147
 40
0.7857142857142861
 40
0.8571428571428577
 40
0.9285714285714292
 40
1.0
 40
1.0
 10
-37.0
 20
4.5000000477467825
 30
0.0
 10
-37.0
 20
4.47848882271642
 30
0.0
 10
-37.0
 20
4.414160806648585
 30
0.0
 10
-37.0
 20
4.307631010400783
 30
0.0
 10
-37.0
 20
4.159917916826137
 30
0.0
 10
-37.0
 20
3.972433743522785
 30
0.0
 10
-37.0
 20
3.746970941264756
 30
0.0
 10
-37.0
 20
3.485685057196647
 30
0.0
 10
-37.0
 20
3.1910741266293248
 30
0.0
 10
-37.0
 20
2.8659547904622715
 30
0.0
 10
-37.0
 20
2.513435366563047
 30
0.0
 10
-37.0
 20
2.1368861325561292
 30
0.0
 10
-37.0
 20
1.7399071041338419
 30
0.0
 10
-37.0
 20
1.3262936169462851
 30
0.0
 10
-37.0
 20
0.9000000411261231
 30
0.0
  0
SPLINE
  5
B0
330
17
100
AcDbEntity
  8
visible
100
AcDbSpline
 70
0
 71
1
 72
17
 73
15
 74
0
 40
0.0
 40
0.0
 40
0.07142857142857145
 40
0.1428571428571429
 40
0.21428571428571436
 40
0.2857142857142858
 40
0.35714285714285726
 40
0.4285714285714287
 40
0.49999999999999983
 40
0.5714285714285713
 40
0.6428571428571428
 40
0.7142857142857142
 40
0.7857142857142857
 40
0.8571428571428571
 40
0.9285714285714286
 40
1.0
 40
1.0
 10
-37.0
 20
-0.8999999588738776
 30
0.0
 10
-37.0
 20
-1.3262935334443482
 30
0.0
 10
-37.0
 20
-1.7399070193231339
 30
0.0
 10
-37.0
 20
-2.136886046407417
 30
0.0
 10
-37.0
 20
-2.5134352790765244
 30
0.0
 10
-37.0
 20
-2.8659547016666953
 30
0.0
 10
-37.0
 20
-3.191074036580741
 30
0.0
 10
-37.0
 20
-3.485684965976702
 30
0.0
 10
-37.0
 20
-3.7469708489786395
 30
0.0
 10
-37.0
 20
-3.9724336502968285
 30
0.0
 10
-37.0
 20
-4.159917822805102
 30
0.0
 10
-37.0
 20
-4.307630915744891
 30
0.0
 10
-37.0
 20
-4.4141607115303145
 30
0.0
 10
-37.0
 20
-4.478488727317131
 30
0.0
 10
-37.0
 20
-4.499999952253219
 30
0.0
  0
SPLINE
  5
B1
330
17
100
AcDbEntity
  8
visible
100
AcDbSpline
 70
0
 71
1
 72
17
 73
15
 74
0
 40
0.0
 40
0.0
 40
0.1121997376282069
 40
0.2243994752564138
 40
0.3365992128846207
 40
0.4487989505128276
 40
0.5609986881410345
 40
0.6731984257692414
 40
0.7853981633974483
 40
0.8975979010256552
 40
1.009797638653862
 40
1.121997376282069
 40
1.2341971139102759
 40
1.3463968515384828
 40
1.4585965891666897
 40
1.5707963267948966
 40
1.5707963267948966
 10
-43.0
 20
-1.9999999536051485
 30
0.0
 10
-43.0
 20
-3.9257889425762422
 30
0.0
 10
-43.0
 20
-5.827360017630622
 30
0.0
 10
-43.0
 20
-7.680799819182242
 30
0.0
 10
-43.0
 20
-9.462800266335767
 30
0.0
 10
-43.0
 20
-11.150951669527501
 30
0.0
 10
-43.0
 20
-12.72402454537405
 30
0.0
 10
-43.0
 20
-14.1622365897435
 30
0.0
 10
-43.0
 20
-15.44750145170784
 30
0.0
 10
-43.0
 20
-16.56365617989982
 30
0.0
 10
-43.0
 20
-17.496664481004373
 30
0.0
 10
-43.0
 20
-18.23479323429109
 30
0.0
 10
-43.0
 20
-18.768760042415103
 30
0.0
 10
-43.0
 20
-19.09184996294949
 30
0.0
 10
-43.0
 20
-19.199999952682404
 30
0.0
  0
LINE
  5
B2
330
17
100
AcDbEntity
  8
visible
100
AcDbLine
 10
-43.0
 20
2.00000004639485
 30
0.0
 11
-43.0
 21
-1.9999999536051498
 31
0.0
  0
SPLINE
  5
B3
330
17
100
AcDbEntity
  8
visible
100
AcDbSpline
 70
0
 71
1
 72
17
 73
15
 74
0
 40
0.0
 40
0.0
 40
0.1121997376282069
 40
0.2243994752564138
 40
0.3365992128846207
 40
0.4487989505128276
 40
0.5609986881410345
 40
0.6731984257692414
 40
0.7853981633974483
 40
0.8975979010256552
 40
1.009797638653862
 40
1.121997376282069
 40
1.2341971139102759
 40
1.3463968515384828
 40
1.4585965891666897
 40
1.5707963267948966
 40
1.5707963267948966
 10
-43.0
 20
19.200000047317594
 30
0.0
 10
-43.0
 20
19.091850057378053
 30
0.0
 10
-43.0
 20
18.768760136639628
 30
0.0
 10
-43.0
 20
18.234793328316755
 30
0.0
 10
-43.0
 20
17.496664574838842
 30
0.0
 10
-43.0
 20
16.563656273553153
 30
0.0
 10
-43.0
 20
15.447501545192386
 30
0.0
 10
-43.0
 20
14.162236683073735
 30
0.0
 10
-43.0
 20
12.724024638566384
 30
0.0
 10
-43.0
 20
11.150951762600073
 30
0.0
 10
-43.0
 20
9.462800359308229
 30
0.0
 10
-43.0
 20
7.680799912075507
 30
0.0
 10
-43.0
 20
5.827360110466593
 30
0.0
 10
-43.0
 20
3.925789035377548
 30
0.0
 10
-43.0
 20
2.0000000463948506
 30
0.0
  0
SPLINE
  5
B4
330
17
100
AcDbEntity
  8
visible
100
AcDbSpline
 70
0
 71
1
 72
17
 73
15
 74
0
 40
0.0
 40
0.0
 40
0.07142857142857142
 40
0.14285714285714293
 40
0.21428571428571436
 40
0.2857142857142858
 40
0.3571428571428572
 40
0.42857142857142866
 40
0.5000000000000001
 40
0.5714285714285715
 40
0.6428571428571429
 40
0.7142857142857143
 40
0.7857142857142857
 40
0.8571428571428571
 40
0.9285714285714286
 40
1.0
 40
1.0
 10
-43.0
 20
13.250000047103004
 30
0.0
 10
-43.0
 20
13.16851576169393
 30
0.0
 10
-43.0
 20
12.928148867785866
 30
0.0
 10
-43.0
 20
12.5409523651241
 30
0.0
 10
-43.0
 20
12.026341903143887
 30
0.0
 10
-43.0
 20
11.410122199235069
 30
0.0
 10
-43.0
 20
10.723193082461025
 30
0.0
 10
-43.0
 20
10.000000047103004
 30
0.0
 10
-43.0
 20
9.276807011744982
 30
0.0
 10
-43.0
 20
8.589877894970941
 30
0.0
 10
-43.0
 20
7.973658191062119
 30
0.0
 10
-43.0
 20
7.459047729081908
 30
0.0
 10
-43.0
 20
7.071851226420142
 30
0.0
 10
-43.0
 20
6.831484332512078
 30
0.0
 10
-43.0
 20
6.750000047103006
 30
0.0
  0
LINE
  5
B5
330
17
100
AcDbEntity
  8
visible
100
AcDbLine
 10
-46.0
 20
-19.999999949983906
 30
0.0
 11
-42.0
 21
-19.999999949983906
 31
0.0
  0
ELLIPSE
  5
B6
330
17
100
AcDbEntity
  8
visible
100
AcDbEllipse
 10
-42.2
 20
19.200000049436696
 30
0.0
 11
-0.8
 21
0.0
 31
0.0
 40
1.0
 41
4.71238898038469
 42
6.283185307179586
  0
LINE
  5
B7
330
17
100
AcDbEntity
  8
visible
100
AcDbLine
 10
-37.8
 20
20.000000049436697
 30
0.0
 11
-42.2
 21
20.000000049436697
 31
0.0
  0
ELLIPSE
  5
B8
330
17
100
AcDbEntity
  8
visible
100
AcDbEllipse
 10
-42.0
 20
15.000000050016094
 30
0.0
 11
-5.0
 21
-0.0
 31
0.0
 40
1.0
 41
4.712356126166069
 42
4.71238898038469
  0
LINE
  5
B9
330
17
100
AcDbEntity
  8
visible
100
AcDbLine
 10
-42.0
 20
20.000000050016094
 30
0.0
 11
-46.0
 21
20.000000050016094
 31
0.0
  0
ELLIPSE
  5
BA
330
17
100
AcDbEntity
  8
visible
100
AcDbEllipse
 10
-46.0
 20
15.000000050016094
 30
0.0
 11
-5.0
 21
-0.0
 31
0.0
 40
1.0
 41
4.71238898038469
 42
4.71242183460331
  0
ELLIPSE
  5
BB
330
17
100
AcDbEntity
  8
visible
100
AcDbEllipse
 10
-37.8
 20
19.200000047317594
 30
0.0
 11
0.8
 21
0.0
 31
0.0
 40
1.0
 41
-6.283185307179586
 42
-4.71238898038469
  0
ELLIPSE
  5
BC
330
17
100
AcDbEntity
  8
visible
100
AcDbEllipse
 10
-37.8
 20
19.200000049436696
 30
0.0
 11
0.8
 21
0.0
 31
0.0
 40
1.0
 41
-6.283185307179586
 42
-4.71238898038469
  0
ELLIPSE
  5
BD
330
17
100
AcDbEntity
  8
visible
100
AcDbEllipse
 10
-42.0
 20
15.000000050359443
 30
0.0
 11
-5.0
 21
-0.0
 31
0.0
 40
1.0
 41
4.712354098597672
 42
4.71238898038469
  0
ELLIPSE
  5
BE
330
17
100
AcDbEntity
  8
visible
100
AcDbEllipse
 10
-42.2
 20
19.200000047317594
 30
0.0
 11
-0.8
 21
0.0
 31
0.0
 40
1.0
 41
4.71238898038469
 42
6.283185307179586
  0
LINE
  5
BF
330
17
100
AcDbEntity
  8
visible
100
AcDbLine
 10
-37.8
 20
20.000000047317595
 30
0.0
 11
-42.2
 21
20.000000047317595
 31
0.0
  0
ELLIPSE
  5
C0
330
17
100
AcDbEntity
  8
visible
100
AcDbEllipse
 10
-46.0
 20
15.000000050359443
 30
0.0
 11
-5.0
 21
-0.0
 31
0.0
 40
1.0
 41
4.71238898038469
 42
4.712423862171708
  0
LINE
  5
C1
330
17
100
AcDbEntity
  8
visible
100
AcDbLine
 10
-42.0
 20
20.000000050359443
 30
0.0
 11
-46.0
 21
20.000000050359443
 31
0.0
  0
ELLIPSE
  5
C2
330
17
100
AcDbEntity
  8
visible
100
AcDbEllipse
 10
-43.8
 20
-19.199999952682404
 30
0.0
 11
-0.8
 21
-0.0
 31
0.0
 40
1.0
 41
1.5707963267948966
 42
3.141592653589793
  0
ELLIPSE
  5
C3
330
17
100
AcDbEntity
  8
visible
100
AcDbEllipse
 10
-69.2
 20
-19.199999952682404
 30
0.0
 11
0.8
 21
0.0
 31
0.0
 40
1.0
 41
-3.141592653589793
 42
-1.5707963267948966
  0
LINE
  5
C4
330
17
100
AcDbEntity
  8
visible
100
AcDbLine
 10
-43.8
 20
-19.999999952682405
 30
0.0
 11
-69.2
 21
-19.999999952682405
 31
0.0
  0
SPLINE
  5
C5
330
17
100
AcDbEntity
  8
visible
100
AcDbSpline
 70
0
 71
1
 72
17
 73
15
 74
0
 40
0.0
 40
0.0
 40
0.1121997376282069
 40
0.2243994752564138
 40
0.3365992128846207
 40
0.4487989505128276
 40
0.5609986881410345
 40
0.6731984257692414
 40
0.7853981633974483
 40
0.8975979010256552
 40
1.009797638653862
 40
1.121997376282069
 40
1.2341971139102759
 40
1.3463968515384828
 40
1.4585965891666897
 40
1.5707963267948966
 40
1.5707963267948966
 10
-43.0
 20
-1.9999999536051485
 30
0.0
 10
-43.0
 20
-3.9257889425762422
 30
0.0
 10
-43.0
 20
-5.827360017630622
 30
0.0
 10
-43.0
 20
-7.680799819182242
 30
0.0
 10
-43.0
 20
-9.462800266335767
 30
0.0
 10
-43.0
 20
-11.150951669527501
 30
0.0
 10
-43.0
 20
-12.72402454537405
 30
0.0
 10
-43.0
 20
-14.1622365897435
 30
0.0
 10
-43.0
 20
-15.44750145170784
 30
0.0
 10
-43.0
 20
-16.56365617989982
 30
0.0
 10
-43.0
 20
-17.496664481004373
 30
0.0
 10
-43.0
 20
-18.23479323429109
 30
0.0
 10
-43.0
 20
-18.768760042415103
 30
0.0
 10
-43.0
 20
-19.09184996294949
 30
0.0
 10
-43.0
 20
-19.199999952682404
 30
0.0
  0
LINE
  5
C6
330
17
100
AcDbEntity
  8
visible
100
AcDbLine
 10
-43.0
 20
2.00000004639485
 30
0.0
 11
-43.0
 21
-1.9999999536051498
 31
0.0
  0
SPLINE
  5
C7
330
17
100
AcDbEntity
  8
visible
100
AcDbSpline
 70
0
 71
1
 72
17
 73
15
 74
0
 40
0.0
 40
0.0
 40
0.1121997376282069
 40
0.2243994752564138
 40
0.3365992128846207
 40
0.4487989505128276
 40
0.5609986881410345
 40
0.6731984257692414
 40
0.7853981633974483
 40
0.8975979010256552
 40
1.009797638653862
 40
1.121997376282069
 40
1.2341971139102759
 40
1.3463968515384828
 40
1.4585965891666897
 40
1.5707963267948966
 40
1.5707963267948966
 10
-43.0
 20
19.200000047317594
 30
0.0
 10
-43.0
 20
19.091850057378053
 30
0.0
 10
-43.0
 20
18.768760136639628
 30
0.0
 10
-43.0
 20
18.234793328316755
 30
0.0
 10
-43.0
 20
17.496664574838842
 30
0.0
 10
-43.0
 20
16.563656273553153
 30
0.0
 10
-43.0
 20
15.447501545192386
 30
0.0
 10
-43.0
 20
14.162236683073735
 30
0.0
 10
-43.0
 20
12.724024638566384
 30
0.0
 10
-43.0
 20
11.150951762600073
 30
0.0
 10
-43.0
 20
9.462800359308229
 30
0.0
 10
-43.0
 20
7.680799912075507
 30
0.0
 10
-43.0
 20
5.827360110466593
 30
0.0
 10
-43.0
 20
3.925789035377548
 30
0.0
 10
-43.0
 20
2.0000000463948506
 30
0.0
  0
SPLINE
  5
C8
330
17
100
AcDbEntity
  8
visible
100
AcDbSpline
 70
0
 71
1
 72
17
 73
15
 74
0
 40
0.0
 40
0.0
 40
0.1121997376282069
 40
0.2243994752564138
 40
0.3365992128846207
 40
0.4487989505128276
 40
0.5609986881410345
 40
0.6731984257692414
 40
0.7853981633974483
 40
0.8975979010256552
 40
1.009797638653862
 40
1.121997376282069
 40
1.2341971139102759
 40
1.3463968515384828
 40
1.4585965891666897
 40
1.5707963267948966
 40
1.5707963267948966
 10
-70.0
 20
-1.9999999536051485
 30
0.0
 10
-70.0
 20
-3.9257889425762422
 30
0.0
 10
-70.0
 20
-5.827360017630622
 30
0.0
 10
-70.0
 20
-7.680799819182242
 30
0.0
 10
-70.0
 20
-9.462800266335767
 30
0.0
 10
-70.0
 20
-11.150951669527501
 30
0.0
 10
-70.0
 20
-12.72402454537405
 30
0.0
 10
-70.0
 20
-14.1622365897435
 30
0.0
 10
-70.0
 20
-15.44750145170784
 30
0.0
 10
-70.0
 20
-16.56365617989982
 30
0.0
 10
-70.0
 20
-17.496664481004373
 30
0.0
 10
-70.0
 20
-18.23479323429109
 30
0.0
 10
-70.0
 20
-18.768760042415103
 30
0.0
 10
-70.0
 20
-19.09184996294949
 30
0.0
 10
-70.0
 20
-19.199999952682404
 30
0.0
  0
LINE
  5
C9
330
17
100
AcDbEntity
  8
visible
100
AcDbLine
 10
-70.0
 20
2.00000004639485
 30
0.0
 11
-70.0
 21
-1.9999999536051498
 31
0.0
  0
SPLINE
  5
CA
330
17
100
AcDbEntity
  8
visible
100
AcDbSpline
 70
0
 71
1
 72
17
 73
15
 74
0
 40
0.0
 40
0.0
 40
0.1121997376282069
 40
0.2243994752564138
 40
0.3365992128846207
 40
0.4487989505128276
 40
0.5609986881410345
 40
0.6731984257692414
 40
0.7853981633974483
 40
0.8975979010256552
 40
1.009797638653862
 40
1.121997376282069
 40
1.2341971139102759
 40
1.3463968515384828
 40
1.4585965891666897
 40
1.5707963267948966
 40
1.5707963267948966
 10
-70.0
 20
19.200000047317594
 30
0.0
 10
-70.0
 20
19.091850057378053
 30
0.0
 10
-70.0
 20
18.768760136639628
 30
0.0
 10
-70.0
 20
18.234793328316755
 30
0.0
 10
-70.0
 20
17.496664574838842
 30
0.0
 10
-70.0
 20
16.563656273553153
 30
0.0
 10
-70.0
 20
15.447501545192386
 30
0.0
 10
-70.0
 20
14.162236683073735
 30
0.0
 10
-70.0
 20
12.724024638566384
 30
0.0
 10
-70.0
 20
11.150951762600073
 30
0.0
 10
-70.0
 20
9.462800359308229
 30
0.0
 10
-70.0
 20
7.680799912075507
 30
0.0
 10
-70.0
 20
5.827360110466593
 30
0.0
 10
-70.0
 20
3.925789035377548
 30
0.0
 10
-70.0
 20
2.0000000463948506
 30
0.0
  0
SPLINE
  5
CB
330
17
100
AcDbEntity
  8
visible
100
AcDbSpline
 70
0
 71
1
 72
17
 73
15
 74
0
 40
0.0
 40
0.0
 40
0.07142857142857142
 40
0.14285714285714285
 40
0.21428571428571433
 40
0.28571428571428575
 40
0.3571428571428572
 40
0.42857142857142855
 40
0.5
 40
0.5714285714285714
 40
0.6428571428571429
 40
0.7142857142857143
 40
0.7857142857142858
 40
0.8571428571428571
 40
0.9285714285714285
 40
1.0
 40
1.0
 10
-70.0
 20
-7.749999959420322
 30
0.0
 10
-70.0
 20
-6.747756700098233
 30
0.0
 10
-70.0
 20
-5.697734473533956
 30
0.0
 10
-70.0
 20
-4.607368191719925
 30
0.0
 10
-70.0
 20
-3.4843784315541484
 30
0.0
 10
-70.0
 20
-2.336716767607152
 30
0.0
 10
-70.0
 20
-1.1725094692594022
 30
0.0
 10
-70.0
 20
3.912608992351352e-08
 30
0.0
 10
-70.0
 20
1.1725095475726222
 30
0.0
 10
-70.0
 20
2.3367168461030614
 30
0.0
 10
-70.0
 20
3.4843785103531024
 30
0.0
 10
-70.0
 20
4.607368270940135
 30
0.0
 10
-70.0
 20
5.697734553290648
 30
0.0
 10
-70.0
 20
6.747756780502835
 30
0.0
 10
-70.0
 20
7.7500000405796765
 30
0.0
  0
LINE
  5
CC
330
17
100
AcDbEntity
  8
visible
100
AcDbLine
 10
-43.8
 20
20.000000049436697
 30
0.0
 11
-69.2
 21
20.000000049436697
 31
0.0
  0
ELLIPSE
  5
CD
330
17
100
AcDbEntity
  8
visible
100
AcDbEllipse
 10
-43.8
 20
19.200000047317594
 30
0.0
 11
0.8
 21
0.0
 31
0.0
 40
1.0
 41
-6.283185307179586
 42
-4.71238898038469
  0
ELLIPSE
  5
CE
330
17
100
AcDbEntity
  8
visible
100
AcDbEllipse
 10
-43.8
 20
19.200000049436696
 30
0.0
 11
0.8
 21
0.0
 31
0.0
 40
1.0
 41
-6.283185307179586
 42
-4.71238898038469
  0
ELLIPSE
  5
CF
330
17
100
AcDbEntity
  8
visible
100
AcDbEllipse
 10
-69.2
 20
19.200000049436696
 30
0.0
 11
-0.8
 21
0.0
 31
0.0
 40
1.0
 41
4.71238898038469
 42
6.283185307179586
  0
ELLIPSE
  5
D0
330
17
100
AcDbEntity
  8
visible
100
AcDbEllipse
 10
-69.2
 20
19.200000047317594
 30
0.0
 11
-0.8
 21
0.0
 31
0.0
 40
1.0
 41
4.71238898038469
 42
6.283185307179586
  0
LINE
  5
D1
330
17
100
AcDbEntity
  8
visible
100
AcDbLine
 10
-70.03970627521619
 20
-9.999999952776287
 30
0.0
 11
-70.4
 21
-9.999999952776287
 31
0.0
  0
SPLINE
  5
D2
330
17
100
AcDbEntity
  8
visible
100
AcDbSpline
 70
0
 71
1
 72
4
 73
2
 74
0
 40
0.0
 40
0.0
 40
1.0
 40
1.0
 10
-70.03970627521619
 20
-9.999999952776289
 30
0.0
 10
-70.0
 20
-9.971780405997837
 30
0.0
  0
SPLINE
  5
D3
330
17
100
AcDbEntity
  8
visible
100
AcDbSpline
 70
0
 71
2
 72
6
 73
3
 74
0
 40
0.0
 40
0.0
 40
0.0
 40
1.0
 40
1.0
 40
1.0
 10
-70.2
 20
-7.779004120395534
 30
0.0
 10
-70.09266587437943
 20
-7.778572927706115
 30
0.0
 10
-70.0
 20
-7.792148040356072
 30
0.0
  0
LINE
  5
D4
330
17
100
AcDbEntity
  8
visible
100
AcDbLine
 10
-70.2
 20
-7.779004120395551
 30
0.0
 11
-70.4
 21
-7.779004120395551
 31
0.0
  0
SPLINE
  5
D5
330
17
100
AcDbEntity
  8
visible
100
AcDbSpline
 70
0
 71
1
 72
4
 73
2
 74
0
 40
0.0
 40
0.0
 40
1.0
 40
1.0
 10
-70.03970627521619
 20
10.000000047223718
 30
0.0
 10
-70.0
 20
9.97178050044526
 30
0.0
  0
SPLINE
  5
D6
330
17
100
AcDbEntity
  8
visible
100
AcDbSpline
 70
0
 71
2
 72
6
 73
3
 74
0
 40
0.0
 40
0.0
 40
0.0
 40
1.0
 40
1.0
 40
1.0
 10
-70.2
 20
10.046303256755001
 30
0.0
 10
-70.11626143638989
 20
10.046205675290299
 30
0.0
 10
-70.03970627521619
 20
10.000000047223716
 30
0.0
  0
SPLINE
  5
D7
330
17
100
AcDbEntity
  8
visible
100
AcDbSpline
 70
0
 71
1
 72
17
 73
15
 74
0
 40
0.0
 40
0.0
 40
0.07142857142857134
 40
0.14285714285714268
 40
0.21428571428571405
 40
0.28571428571428537
 40
0.3571428571428567
 40
0.4285714285714281
 40
0.49999999999999944
 40
0.5714285714285707
 40
0.6428571428571423
 40
0.7142857142857141
 40
0.7857142857142857
 40
0.8571428571428573
 40
0.9285714285714289
 40
1.0
 40
1.0
 10
-70.2
 20
14.00000004774678
 30
0.0
 10
-70.2
 20
13.9788053046968
 30
0.0
 10
-70.2
 20
13.915285249422999
 30
0.0
 10
-70.2
 20
13.809632209246804
 30
0.0
 10
-70.2
 20
13.662166082602365
 30
0.0
 10
-70.2
 20
13.473333370441507
 30
0.0
 10
-70.2
 20
13.24370582430904
 30
0.0
 10
-70.2
 20
12.973978715181751
 30
0.0
 10
-70.2
 20
12.664968728312715
 30
0.0
 10
-70.2
 20
12.317611490455015
 30
0.0
 10
-70.2
 20
11.932958736951932
 30
0.0
 10
-70.2
 20
11.51217512727117
 30
0.0
 10
-70.2
 20
11.056534718625139
 30
0.0
 10
-70.2
 20
10.567417108354466
 30
0.0
 10
-70.2
 20
10.046303256755007
 30
0.0
  0
SPLINE
  5
D8
330
17
100
AcDbEntity
  8
visible
100
AcDbSpline
 70
0
 71
1
 72
17
 73
15
 74
0
 40
0.0
 40
0.0
 40
0.07142857142857151
 40
0.14285714285714302
 40
0.21428571428571452
 40
0.28571428571428603
 40
0.35714285714285754
 40
0.42857142857142905
 40
0.5000000000000006
 40
0.5714285714285721
 40
0.6428571428571436
 40
0.7142857142857151
 40
0.7857142857142866
 40
0.8571428571428581
 40
0.9285714285714296
 40
1.0
 40
1.0
 10
-70.2
 20
-10.046303162307629
 30
0.0
 10
-70.2
 20
-10.567417013775838
 30
0.0
 10
-70.2
 20
-11.056534623921394
 30
0.0
 10
-70.2
 20
-11.512175032449239
 30
0.0
 10
-70.2
 20
-11.93295864201949
 30
0.0
 10
-70.2
 20
-12.317611395420423
 30
0.0
 10
-70.2
 20
-12.664968633184968
 30
0.0
 10
-70.2
 20
-12.97397861997042
 30
0.0
 10
-70.2
 20
-13.24370572902421
 30
0.0
 10
-70.2
 20
-13.473333275093708
 30
0.0
 10
-70.2
 20
-13.662165987202517
 30
0.0
 10
-70.2
 20
-13.809632113806146
 30
0.0
 10
-70.2
 20
-13.915285153953008
 30
0.0
 10
-70.2
 20
-13.978805209209142
 30
0.0
 10
-70.2
 20
-13.99999995225322
 30
0.0
  0
SPLINE
  5
D9
330
17
100
AcDbEntity
  8
visible
100
AcDbSpline
 70
0
 71
2
 72
6
 73
3
 74
0
 40
0.0
 40
0.0
 40
0.0
 40
1.0
 40
1.0
 40
1.0
 10
-70.2
 20
-10.046303162307629
 30
0.0
 10
-70.11626143638989
 20
-10.046205580842905
 30
0.0
 10
-70.03970627521619
 20
-9.999999952776287
 30
0.0
  0
LINE
  5
DA
330
17
100
AcDbEntity
  8
visible
100
AcDbLine
 10
-70.03970627521619
 20
10.000000047223713
 30
0.0
 11
-70.4
 21
10.000000047223713
 31
0.0
  0
LINE
  5
DB
330
17
100
AcDbEntity
  8
visible
100
AcDbLine
 10
-70.2
 20
7.7790042146401985
 30
0.0
 11
-70.4
 21
7.7790042146401985
 31
0.0
  0
SPLINE
  5
DC
330
17
100
AcDbEntity
  8
visible
100
AcDbSpline
 70
0
 71
2
 72
6
 73
3
 74
0
 40
0.0
 40
0.0
 40
0.0
 40
1.0
 40
1.0
 40
1.0
 10
-70.19999999999999
 20
7.779004214640171
 30
0.0
 10
-70.0926658743794
 20
7.778573021950798
 30
0.0
 10
-69.99999999999999
 20
7.792148134608602
 30
0.0
  0
SPLINE
  5
DD
330
17
100
AcDbEntity
  8
visible
100
AcDbSpline
 70
0
 71
1
 72
17
 73
15
 74
0
 40
0.0
 40
0.0
 40
0.07142857142857145
 40
0.1428571428571429
 40
0.21428571428571436
 40
0.2857142857142858
 40
0.35714285714285726
 40
0.4285714285714287
 40
0.5000000000000002
 40
0.5714285714285716
 40
0.6428571428571431
 40
0.7142857142857145
 40
0.785714285714286
 40
0.8571428571428574
 40
0.9285714285714289
 40
1.0
 40
1.0
 10
-70.2
 20
7.779004214640196
 30
0.0
 10
-70.2
 20
6.772985583775537
 30
0.0
 10
-70.2
 20
5.719020188382521
 30
0.0
 10
-70.2
 20
4.624569173972992
 30
0.0
 10
-70.2
 20
3.497380288537343
 30
0.0
 10
-70.2
 20
2.3454330353214434
 30
0.0
 10
-70.2
 20
1.1768821849807485
 30
0.0
 10
-70.2
 20
4.6995716651565544e-08
 30
0.0
 10
-70.2
 20
-1.1768820909839985
 30
0.0
 10
-70.2
 20
-2.3454329413087804
 30
0.0
 10
-70.2
 20
-3.497380194498283
 30
0.0
 10
-70.2
 20
-4.624569079897239
 30
0.0
 10
-70.2
 20
-5.7190200942600375
 30
0.0
 10
-70.2
 20
-6.7729854895966195
 30
0.0
 10
-70.2
 20
-7.779004120395529
 30
0.0
  0
LINE
  5
DE
330
17
100
AcDbEntity
  8
visible
100
AcDbLine
 10
-43.8
 20
20.000000047317595
 30
0.0
 11
-69.2
 21
20.000000047317595
 31
0.0
  0
SPLINE
  5
DF
330
17
100
AcDbEntity
  8
visible
100
AcDbSpline
 70
0
 71
3
 72
8
 73
4
 74
0
 40
0.0
 40
0.0
 40
0.0
 40
0.0
 40
1.0
 40
1.0
 40
1.0
 40
1.0
 10
-70.4
 20
-7.779004120395545
 30
0.0
 10
-70.40000000000002
 20
-8.598280131759898
 30
0.0
 10
-70.4
 20
-9.359565171976222
 30
0.0
 10
-70.4
 20
-10.046303162307614
 30
0.0
  0
LINE
  5
E0
330
17
100
AcDbEntity
  8
visible
100
AcDbLine
 10
-70.2
 20
-10.046303162307622
 30
0.0
 11
-70.4
 21
-10.046303162307622
 31
0.0
  0
SPLINE
  5
E1
330
17
100
AcDbEntity
  8
visible
100
AcDbSpline
 70
0
 71
3
 72
8
 73
4
 74
0
 40
0.0
 40
0.0
 40
0.0
 40
0.0
 40
1.0
 40
1.0
 40
1.0
 40
1.0
 10
-70.4
 20
10.046303256754992
 30
0.0
 10
-70.40000000000002
 20
9.359565266347733
 30
0.0
 10
-70.4
 20
8.598280226063345
 30
0.0
 10
-70.4
 20
7.779004214640194
 30
0.0
  0
LINE
  5
E2
330
17
100
AcDbEntity
  8
visible
100
AcDbLine
 10
-70.2
 20
10.046303256754998
 30
0.0
 11
-70.4
 21
10.046303256754998
 31
0.0
  0
SPLINE
  5
E3
330
17
100
AcDbEntity
  8
visible
100
AcDbSpline
 70
0
 71
1
 72
17
 73
15
 74
0
 40
0.0
 40
0.0
 40
0.11219973762437242
 40
0.22439947524874485
 40
0.3365992128731173
 40
0.4487989504974897
 40
0.5609986881218622
 40
0.6731984257462346
 40
0.785398163370607
 40
0.8975979009949794
 40
1.009797638619352
 40
1.1219973762437243
 40
1.2341971138680967
 40
1.3463968514924691
 40
1.4585965891168415
 40
1.570796326741214
 40
1.570796326741214
 10
-71.3
 20
4.8476395342333944e-08
 30
0.0
 10
-71.3
 20
1.5227169234249738
 30
0.0
 10
-71.3
 20
3.0262847501622954
 30
0.0
 10
-71.3
 20
4.491795290878056
 30
0.0
 10
-71.3
 20
5.900818900214993
 30
0.0
 10
-71.3
 20
7.235636288752362
 30
0.0
 10
-71.3
 20
8.479461353351363
 30
0.0
 10
-71.3
 20
9.61665227214162
 30
0.0
 10
-71.3
 20
10.632908209506777
 30
0.0
 10
-71.3
 20
11.51544915738992
 30
0.0
 10
-71.3
 20
12.253176651309984
 30
0.0
 10
-71.3
 20
12.836813339992096
 30
0.0
 10
-71.3
 20
13.259019653442687
 30
0.0
 10
-71.3
 20
13.514486102300667
 30
0.0
 10
-71.3
 20
13.60000004774678
 30
0.0
  0
SPLINE
  5
E4
330
17
100
AcDbEntity
  8
visible
100
AcDbSpline
 70
0
 71
1
 72
17
 73
15
 74
0
 40
0.0
 40
0.0
 40
0.07142857142857142
 40
0.14285714285714293
 40
0.21428571428571436
 40
0.2857142857142858
 40
0.3571428571428572
 40
0.42857142857142866
 40
0.5000000000000001
 40
0.5714285714285715
 40
0.642857142857143
 40
0.7142857142857143
 40
0.7857142857142856
 40
0.8571428571428569
 40
0.9285714285714282
 40
1.0
 40
1.0
 10
-71.3
 20
13.60000004774678
 30
0.0
 10
-71.3
 20
13.259019653419676
 30
0.0
 10
-71.3
 20
12.253176651219839
 30
0.0
 10
-71.3
 20
10.632908209312177
 30
0.0
 10
-71.3
 20
8.479461353025753
 30
0.0
 10
-71.3
 20
5.900818899745749
 30
0.0
 10
-71.3
 20
3.0262847495527962
 30
0.0
 10
-71.3
 20
4.7746869569209593e-08
 30
0.0
 10
-71.3
 20
-3.0262846540590607
 30
0.0
 10
-71.3
 20
-5.900818804252026
 30
0.0
 10
-71.3
 20
-8.479461257532051
 30
0.0
 10
-71.3
 20
-10.632908113818502
 30
0.0
 10
-71.3
 20
-12.253176555726192
 30
0.0
 10
-71.3
 20
-13.259019557926068
 30
0.0
 10
-71.3
 20
-13.599999952253219
 30
0.0
  0
SPLINE
  5
E5
330
17
100
AcDbEntity
  8
visible
100
AcDbSpline
 70
0
 71
2
 72
28
 73
25
 74
0
 40
0.0
 40
0.0
 40
0.0
 40
0.07142857142857162
 40
0.07142857142857162
 40
0.14285714285714285
 40
0.14285714285714285
 40
0.2142857142857141
 40
0.2142857142857141
 40
0.28571428571428537
 40
0.28571428571428537
 40
0.3571428571428566
 40
0.3571428571428566
 40
0.49999999999999906
 40
0.49999999999999906
 40
0.6428571428571416
 40
0.6428571428571416
 40
0.7142857142857127
 40
0.7142857142857127
 40
0.785714285714284
 40
0.785714285714284
 40
0.8571428571428553
 40
0.8571428571428553
 40
0.9285714285714265
 40
0.9285714285714265
 40
1.0
 40
1.0
 40
1.0
 10
-43.0
 20
6.7500000406694465
 30
0.0
 10
-43.00000000000001
 20
6.314858244527479
 30
0.0
 10
-43.0
 20
5.879716448385514
 30
0.0
 10
-43.0
 20
5.423175012978547
 30
0.0
 10
-43.0
 20
4.96663357757158
 30
0.0
 10
-43.0
 20
4.492015731899626
 30
0.0
 10
-43.0
 20
4.017397886227672
 30
0.0
 10
-43.0
 20
3.528158440010807
 30
0.0
 10
-43.0
 20
3.038918993793942
 30
0.0
 10
-43.0
 20
2.5386191894288634
 30
0.0
 10
-43.0
 20
2.0383193850637844
 30
0.0
 10
-43.0
 20
1.0249704800696797
 30
0.0
 10
-43.0
 20
3.918685331782967e-08
 30
0.0
 10
-43.0
 20
-1.0249704016684826
 30
0.0
 10
-43.0
 20
-2.038319306441296
 30
0.0
 10
-43.0
 20
-2.538619110651735
 30
0.0
 10
-43.0
 20
-3.0389189148621734
 30
0.0
 10
-43.0
 20
-3.5281583608641194
 30
0.0
 10
-43.0
 20
-4.017397806866066
 30
0.0
 10
-43.0
 20
-4.492015652264391
 30
0.0
 10
-43.0
 20
-4.966633497662713
 30
0.0
 10
-43.0
 20
-5.423174932739327
 30
0.0
 10
-43.0
 20
-5.879716367815941
 30
0.0
 10
-43.0
 20
-6.314858163573248
 30
0.0
 10
-43.0
 20
-6.749999959330555
 30
0.0
  0
LINE
  5
E6
330
17
100
AcDbEntity
  8
visible
100
AcDbLine
 10
-31.5
 20
26.500000049688843
 30
0.0
 11
-31.5
 21
7.000000053648069
 31
0.0
  0
LINE
  5
E7
330
17
100
AcDbEntity
  8
visible
100
AcDbLine
 10
-31.5
 20
-6.999999952387341
 30
0.0
 11
-31.5
 21
-26.499999950311157
 31
0.0
  0
LINE
  5
E8
330
17
100
AcDbEntity
  8
visible
100
AcDbLine
 10
-31.5
 20
7.000000049506438
 30
0.0
 11
-31.5
 21
26.50000004950644
 31
0.0
  0
LINE
  5
E9
330
17
100
AcDbEntity
  8
visible
100
AcDbLine
 10
-31.5
 20
-26.49999995049356
 30
0.0
 11
-31.5
 21
-6.99999995049356
 31
0.0
  0
ELLIPSE
  5
EA
330
17
100
AcDbEntity
  8
visible
100
AcDbEllipse
 10
-28.5
 20
-26.49999995049356
 30
0.0
 11
3.0
 21
0.0
 31
0.0
 40
1.0
 41
-3.141592653589793
 42
-1.5707963267948966
  0
ELLIPSE
  5
EB
330
17
100
AcDbEntity
  8
visible
100
AcDbEllipse
 10
-28.5
 20
26.500000049688843
 30
0.0
 11
3.0
 21
0.0
 31
0.0
 40
1.0
 41
-4.71238898038469
 42
-3.141592653589793
  0
ELLIPSE
  5
EC
330
17
100
AcDbEntity
  8
visible
100
AcDbEllipse
 10
-28.5
 20
26.50000004950644
 30
0.0
 11
3.0
 21
0.0
 31
0.0
 40
1.0
 41
-4.71238898038469
 42
-3.141592653589793
  0
ELLIPSE
  5
ED
330
17
100
AcDbEntity
  8
visible
100
AcDbEllipse
 10
-30.7
 20
26.50000004950644
 30
0.0
 11
0.8
 21
0.0
 31
0.0
 40
1e-10
 41
3.141592653589793
 42
4.71238898038469
  0
LINE
  5
EE
330
17
100
AcDbEntity
  8
visible
100
AcDbLine
 10
-30.7
 20
7.0000000494635195
 30
0.0
 11
-30.7
 21
26.50000004946352
 31
0.0
  0
ELLIPSE
  5
EF
330
17
100
AcDbEntity
  8
visible
100
AcDbEllipse
 10
-30.7
 20
7.000000049506438
 30
0.0
 11
0.8
 21
0.0
 31
0.0
 40
1e-10
 41
3.141592653589793
 42
4.71238898038469
  0
ELLIPSE
  5
F0
330
17
100
AcDbEntity
  8
visible
100
AcDbEllipse
 10
-22.5
 20
7.000000049034335
 30
0.0
 11
-8.0
 21
-0.0
 31
0.0
 40
1e-10
 41
-0.895664793857865
 42
-0.0
  0
LINE
  5
F1
330
17
100
AcDbEntity
  8
visible
100
AcDbLine
 10
-30.700000000000003
 20
7.00000004946352
 30
0.0
 11
-27.5
 21
7.00000004946352
 31
0.0
  0
ELLIPSE
  5
F2
330
17
100
AcDbEntity
  8
visible
100
AcDbEllipse
 10
-22.5
 20
7.000000049034335
 30
0.0
 11
-13.0
 21
-0.0
 31
0.0
 40
1e-10
 41
-0.8061141489322267
 42
-0.0
  0
LINE
  5
F3
330
17
100
AcDbEntity
  8
visible
100
AcDbLine
 10
-34.5
 20
7.000000049034335
 30
0.0
 11
-35.5
 21
7.000000049034335
 31
0.0
  0
LINE
  5
F4
330
17
100
AcDbEntity
  8
visible
100
AcDbLine
 10
-34.5
 20
7.000000047880902
 30
0.0
 11
-36.6
 21
7.000000047880902
 31
0.0
  0
LINE
  5
F5
330
17
100
AcDbEntity
  8
visible
100
AcDbLine
 10
-31.5
 20
7.000000047612661
 30
0.0
 11
-36.6
 21
7.000000047612661
 31
0.0
  0
LINE
  5
F6
330
17
100
AcDbEntity
  8
visible
100
AcDbLine
 10
-30.5
 20
7.000000049034335
 30
0.0
 11
-31.5
 21
7.000000049034335
 31
0.0
  0
ELLIPSE
  5
F7
330
17
100
AcDbEntity
  8
visible
100
AcDbEllipse
 10
-22.5
 20
-6.999999950965665
 30
0.0
 11
-8.0
 21
-0.0
 31
0.0
 40
1e-10
 41
-0.895664793857865
 42
-0.0
  0
ELLIPSE
  5
F8
330
17
100
AcDbEntity
  8
visible
100
AcDbEllipse
 10
-30.7
 20
-6.999999950493562
 30
0.0
 11
0.8
 21
0.0
 31
0.0
 40
1e-10
 41
3.141592653589793
 42
3.2986722862692828
  0
LINE
  5
F9
330
17
100
AcDbEntity
  8
visible
100
AcDbLine
 10
-36.6
 20
-6.999999952387339
 30
0.0
 11
-31.5
 21
-6.999999952387339
 31
0.0
  0
LINE
  5
FA
330
17
100
AcDbEntity
  8
visible
100
AcDbLine
 10
-30.5
 20
-6.999999950965665
 30
0.0
 11
-31.5
 21
-6.999999950965665
 31
0.0
  0
ELLIPSE
  5
FB
330
17
100
AcDbEntity
  8
visible
100
AcDbEllipse
 10
-30.7
 20
-26.49999995049356
 30
0.0
 11
0.8
 21
0.0
 31
0.0
 40
1e-10
 41
3.141592653589793
 42
4.71238898038469
  0
LINE
  5
FC
330
17
100
AcDbEntity
  8
visible
100
AcDbLine
 10
-30.7
 20
-26.49999995053648
 30
0.0
 11
-30.7
 21
-6.9999999505364805
 31
0.0
  0
ELLIPSE
  5
FD
330
17
100
AcDbEntity
  8
visible
100
AcDbEllipse
 10
-28.5
 20
-26.49999995053648
 30
0.0
 11
2.2
 21
0.0
 31
0.0
 40
1.0
 41
-3.141592653589793
 42
-1.5707963267948966
  0
ELLIPSE
  5
FE
330
17
100
AcDbEntity
  8
visible
100
AcDbEllipse
 10
-28.5
 20
26.50000004946352
 30
0.0
 11
2.2
 21
0.0
 31
0.0
 40
1.0
 41
-4.71238898038469
 42
-3.141592653589793
  0
LINE
  5
FF
330
17
100
AcDbEntity
  8
visible
100
AcDbLine
 10
30.700000000000003
 20
7.00000004946352
 30
0.0
 11
27.5
 21
7.00000004946352
 31
0.0
  0
LINE
  5
100
330
17
100
AcDbEntity
  8
visible
100
AcDbLine
 10
30.7
 20
26.50000004946352
 30
0.0
 11
30.7
 21
7.0000000494635195
 31
0.0
  0
ELLIPSE
  5
101
330
17
100
AcDbEntity
  8
visible
100
AcDbEllipse
 10
28.5
 20
26.50000004946352
 30
0.0
 11
2.2
 21
0.0
 31
0.0
 40
1.0
 41
-6.283185307179586
 42
-4.71238898038469
  0
LINE
  5
102
330
17
100
AcDbEntity
  8
visible
100
AcDbLine
 10
-28.5
 20
28.70000004946352
 30
0.0
 11
28.5
 21
28.70000004946352
 31
0.0
  0
LINE
  5
103
330
17
100
AcDbEntity
  8
visible
100
AcDbLine
 10
-30.5
 20
-6.999999950965664
 30
0.0
 11
-30.5
 21
-5.999999950965664
 31
0.0
  0
LINE
  5
104
330
17
100
AcDbEntity
  8
visible
100
AcDbLine
 10
-30.5
 20
-5.999999950965665
 30
0.0
 11
-30.5
 21
-4.149999952124678
 31
0.0
  0
LINE
  5
105
330
17
100
AcDbEntity
  8
visible
100
AcDbLine
 10
-30.5
 20
4.150000047875323
 30
0.0
 11
-30.5
 21
6.000000049034335
 31
0.0
  0
LINE
  5
106
330
17
100
AcDbEntity
  8
visible
100
AcDbLine
 10
-30.5
 20
6.000000049034336
 30
0.0
 11
-30.5
 21
7.000000049034336
 31
0.0
  0
ELLIPSE
  5
107
330
17
100
AcDbEntity
  8
visible
100
AcDbEllipse
 10
-34.5
 20
6.000000049034335
 30
0.0
 11
-1.0
 21
-0.0
 31
0.0
 40
1.0
 41
4.71238898038469
 42
4.712442303427494
  0
SPLINE
  5
108
330
17
100
AcDbEntity
  8
visible
100
AcDbSpline
 70
0
 71
1
 72
4
 73
2
 74
0
 40
0.0
 40
0.0
 40
1.0
 40
1.0
 10
-34.50011074606152
 20
7.000000041845498
 30
0.0
 10
-34.5
 20
7.000000047880901
 30
0.0
  0
SPLINE
  5
109
330
17
100
AcDbEntity
  8
visible
100
AcDbSpline
 70
0
 71
3
 72
11
 73
7
 74
0
 40
0.0
 40
0.0
 40
0.0
 40
0.0
 40
0.5
 40
0.5
 40
0.5
 40
1.0
 40
1.0
 40
1.0
 40
1.0
 10
-36.6
 20
-6.4999999524141625
 30
0.0
 10
-36.59999999999999
 20
-6.631204781877341
 30
0.0
 10
-36.60000000000002
 20
-6.760470953615179
 30
0.0
 10
-36.6
 20
-6.8535533429995805
 30
0.0
 10
-36.599999999999994
 20
-6.94602260288093
 30
0.0
 10
-36.600000000000016
 20
-6.99956640436505
 30
0.0
 10
-36.6
 20
-6.999999952387339
 30
0.0
  0
LINE
  5
10A
330
17
100
AcDbEntity
  8
visible
100
AcDbLine
 10
-36.6
 20
-5.1961523751207945
 30
0.0
 11
-36.6
 21
-6.4999999524141625
 31
0.0
  0
SPLINE
  5
10B
330
17
100
AcDbEntity
  8
visible
100
AcDbSpline
 70
0
 71
1
 72
17
 73
15
 74
0
 40
0.0
 40
0.0
 40
0.07142857142857136
 40
0.1428571428571427
 40
0.21428571428571405
 40
0.2857142857142854
 40
0.35714285714285676
 40
0.4285714285714281
 40
0.49999999999999944
 40
0.5714285714285708
 40
0.6428571428571421
 40
0.7142857142857135
 40
0.7857142857142849
 40
0.8571428571428562
 40
0.9285714285714276
 40
1.0
 40
1.0
 10
-36.6
 20
-5.1961523751208
 30
0.0
 10
-36.6
 20
-4.690988847262099
 30
0.0
 10
-36.6
 20
-4.081036379114704
 30
0.0
 10
-36.6
 20
-3.379920300900915
 30
0.0
 10
-36.6
 20
-2.6033023872485863
 30
0.0
 10
-36.6
 20
-1.7685309990262388
 30
0.0
 10
-36.6
 20
-0.8942535496285651
 30
0.0
 10
-36.6
 20
4.7424887239522207e-08
 30
0.0
 10
-36.6
 20
0.8942536444855299
 30
0.0
 10
-36.6
 20
1.768531093904615
 30
0.0
 10
-36.6
 20
2.603302482162116
 30
0.0
 10
-36.6
 20
3.3799203958625545
 30
0.0
 10
-36.6
 20
4.081036474136335
 30
0.0
 10
-36.6
 20
4.690988942354266
 30
0.0
 10
-36.6
 20
5.196152470292476
 30
0.0
  0
LINE
  5
10C
330
17
100
AcDbEntity
  8
visible
100
AcDbLine
 10
-36.6
 20
6.5000000475858375
 30
0.0
 11
-36.6
 21
5.1961524702924695
 31
0.0
  0
SPLINE
  5
10D
330
17
100
AcDbEntity
  8
visible
100
AcDbSpline
 70
0
 71
3
 72
11
 73
7
 74
0
 40
0.0
 40
0.0
 40
0.0
 40
0.0
 40
0.5
 40
0.5
 40
0.5
 40
1.0
 40
1.0
 40
1.0
 40
1.0
 10
-36.6
 20
6.5000000475858375
 30
0.0
 10
-36.59999999999999
 20
6.63120487704906
 30
0.0
 10
-36.60000000000002
 20
6.76047104879265
 30
0.0
 10
-36.6
 20
6.853553438186968
 30
0.0
 10
-36.599999999999994
 20
6.946022698078304
 30
0.0
 10
-36.600000000000016
 20
6.999566499576296
 30
0.0
 10
-36.6
 20
7.000000047612662
 30
0.0
  0
ELLIPSE
  5
10E
330
17
100
AcDbEntity
  8
visible
100
AcDbEllipse
 10
-31.5
 20
6.000000049034335
 30
0.0
 11
-1.0
 21
-0.0
 31
0.0
 40
1.0
 41
3.141592653589793
 42
4.71238898038469
  0
ELLIPSE
  5
10F
330
17
100
AcDbEntity
  8
visible
100
AcDbEllipse
 10
-31.5
 20
6.000000047612661
 30
0.0
 11
-1.0
 21
-0.0
 31
0.0
 40
1.0
 41
3.141592653589793
 42
4.71238898038469
  0
LINE
  5
110
330
17
100
AcDbEntity
  8
visible
100
AcDbLine
 10
28.5
 20
-28.69999995053648
 30
0.0
 11
11.5
 21
-28.69999995053648
 31
0.0
  0
LINE
  5
111
330
17
100
AcDbEntity
  8
visible
100
AcDbLine
 10
-11.5
 20
-28.69999995053648
 30
0.0
 11
-28.5
 21
-28.69999995053648
 31
0.0
  0
ELLIPSE
  5
112
330
17
100
AcDbEntity
  8
visible
100
AcDbEllipse
 10
28.5
 20
-26.49999995053648
 30
0.0
 11
2.2
 21
0.0
 31
0.0
 40
1.0
 41
-1.5707963267948966
 42
-0.0
  0
LINE
  5
113
330
17
100
AcDbEntity
  8
visible
100
AcDbLine
 10
30.7
 20
-6.9999999505364805
 30
0.0
 11
30.7
 21
-26.49999995053648
 31
0.0
  0
ELLIPSE
  5
114
330
17
100
AcDbEntity
  8
visible
100
AcDbEllipse
 10
-31.5
 20
-5.999999952387339
 30
0.0
 11
-1.0
 21
-0.0
 31
0.0
 40
1.0
 41
1.5707963267948966
 42
3.141592653589793
  0
LINE
  5
115
330
17
100
AcDbEntity
  8
visible
100
AcDbLine
 10
28.5
 20
-29.49999995049356
 30
0.0
 11
-28.5
 21
-29.49999995049356
 31
0.0
  0
ELLIPSE
  5
116
330
17
100
AcDbEntity
  8
visible
100
AcDbEllipse
 10
28.5
 20
-26.49999995049356
 30
0.0
 11
3.0
 21
0.0
 31
0.0
 40
1.0
 41
-1.5707963267948966
 42
-0.0
  0
LINE
  5
117
330
17
100
AcDbEntity
  8
visible
100
AcDbLine
 10
31.5
 20
26.500000049688843
 30
0.0
 11
31.5
 21
7.000000053648069
 31
0.0
  0
LINE
  5
118
330
17
100
AcDbEntity
  8
visible
100
AcDbLine
 10
31.5
 20
-6.999999952387341
 30
0.0
 11
31.5
 21
-26.499999950311157
 31
0.0
  0
LINE
  5
119
330
17
100
AcDbEntity
  8
visible
100
AcDbLine
 10
-28.5
 20
29.500000049688843
 30
0.0
 11
28.5
 21
29.500000049688843
 31
0.0
  0
ELLIPSE
  5
11A
330
17
100
AcDbEntity
  8
visible
100
AcDbEllipse
 10
28.5
 20
26.500000049688843
 30
0.0
 11
3.0
 21
0.0
 31
0.0
 40
1.0
 41
-6.283185307179586
 42
-4.71238898038469
  0
LINE
  5
11B
330
17
100
AcDbEntity
  8
visible
100
AcDbLine
 10
-28.5
 20
29.50000004950644
 30
0.0
 11
28.5
 21
29.50000004950644
 31
0.0
  0
ELLIPSE
  5
11C
330
17
100
AcDbEntity
  8
visible
100
AcDbEllipse
 10
28.5
 20
26.50000004950644
 30
0.0
 11
3.0
 21
0.0
 31
0.0
 40
1.0
 41
-6.283185307179586
 42
-4.71238898038469
  0
ELLIPSE
  5
11D
330
17
100
AcDbEntity
  8
visible
100
AcDbEllipse
 10
22.5
 20
7.000000049034335
 30
0.0
 11
8.0
 21
0.0
 31
0.0
 40
1e-10
 41
0.0
 42
0.895664793857865
  0
ELLIPSE
  5
11E
330
17
100
AcDbEntity
  8
visible
100
AcDbEllipse
 10
30.7
 20
7.000000049506438
 30
0.0
 11
-0.8
 21
-0.0
 31
0.0
 40
1e-10
 41
-4.71238898038469
 42
-3.141592653589793
  0
ELLIPSE
  5
11F
330
17
100
AcDbEntity
  8
visible
100
AcDbEllipse
 10
22.5
 20
7.000000049034335
 30
0.0
 11
13.0
 21
0.0
 31
0.0
 40
1e-10
 41
0.0
 42
0.8061141489322267
  0
LINE
  5
120
330
17
100
AcDbEntity
  8
visible
100
AcDbLine
 10
34.5
 20
7.000000049034335
 30
0.0
 11
35.5
 21
7.000000049034335
 31
0.0
  0
LINE
  5
121
330
17
100
AcDbEntity
  8
visible
100
AcDbLine
 10
34.5
 20
7.000000047880902
 30
0.0
 11
36.6
 21
7.000000047880902
 31
0.0
  0
LINE
  5
122
330
17
100
AcDbEntity
  8
visible
100
AcDbLine
 10
31.5
 20
7.000000047612661
 30
0.0
 11
36.6
 21
7.000000047612661
 31
0.0
  0
LINE
  5
123
330
17
100
AcDbEntity
  8
visible
100
AcDbLine
 10
30.5
 20
7.000000049034335
 30
0.0
 11
31.5
 21
7.000000049034335
 31
0.0
  0
LINE
  5
124
330
17
100
AcDbEntity
  8
visible
100
AcDbLine
 10
31.5
 20
26.50000004950644
 30
0.0
 11
31.5
 21
7.00000004950644
 31
0.0
  0
LINE
  5
125
330
17
100
AcDbEntity
  8
visible
100
AcDbLine
 10
-30.5
 20
-5.999999952387339
 30
0.0
 11
-30.5
 21
-3.9698729334651435
 31
0.0
  0
LINE
  5
126
330
17
100
AcDbEntity
  8
visible
100
AcDbLine
 10
-30.5
 20
-2.4999999522532184
 30
0.0
 11
-30.5
 21
-4.149999952124673
 31
0.0
  0
LINE
  5
127
330
17
100
AcDbEntity
  8
visible
100
AcDbLine
 10
-30.5
 20
4.150000047875323
 30
0.0
 11
-30.5
 21
2.5000000477467816
 31
0.0
  0
LINE
  5
128
330
17
100
AcDbEntity
  8
visible
100
AcDbLine
 10
-30.5
 20
3.9698730286904587
 30
0.0
 11
-30.5
 21
6.000000047612661
 31
0.0
  0
LINE
  5
129
330
17
100
AcDbEntity
  8
visible
100
AcDbLine
 10
-32.0
 20
-3.1038475297075387
 30
0.0
 11
-31.0
 21
-3.1038475297075387
 31
0.0
  0
LINE
  5
12A
330
17
100
AcDbEntity
  8
visible
100
AcDbLine
 10
-31.0
 20
3.1038476248792066
 30
0.0
 11
-32.0
 21
3.1038476248792066
 31
0.0
  0
LINE
  5
12B
330
17
100
AcDbEntity
  8
visible
100
AcDbLine
 10
-33.0
 20
5.1961524702924695
 30
0.0
 11
-36.6
 21
5.1961524702924695
 31
0.0
  0
LINE
  5
12C
330
17
100
AcDbEntity
  8
visible
100
AcDbLine
 10
-33.0
 20
-5.1961523751207945
 30
0.0
 11
-36.6
 21
-5.1961523751207945
 31
0.0
  0
SPLINE
  5
12D
330
17
100
AcDbEntity
  8
visible
100
AcDbSpline
 70
0
 71
2
 72
6
 73
3
 74
0
 40
0.0
 40
0.0
 40
0.0
 40
1.0
 40
1.0
 40
1.0
 10
-33.0
 20
-4.99999995892793
 30
0.0
 10
-33.0
 20
-5.1029694436691795
 30
0.0
 10
-33.0
 20
-5.196152375120792
 30
0.0
  0
SPLINE
  5
12E
330
17
100
AcDbEntity
  8
visible
100
AcDbSpline
 70
0
 71
2
 72
6
 73
3
 74
0
 40
0.0
 40
0.0
 40
0.0
 40
1.0
 40
1.0
 40
1.0
 10
-33.0
 20
5.196152470292469
 30
0.0
 10
-33.0
 20
5.102969532938302
 30
0.0
 10
-33.0
 20
5.00000004107207
 30
0.0
  0
LINE
  5
12F
330
17
100
AcDbEntity
  8
visible
100
AcDbLine
 10
31.5
 20
-6.99999995049356
 30
0.0
 11
31.5
 21
-26.49999995049356
 31
0.0
  0
ELLIPSE
  5
130
330
17
100
AcDbEntity
  8
visible
100
AcDbEllipse
 10
30.7
 20
-6.999999950493562
 30
0.0
 11
-0.8
 21
-0.0
 31
0.0
 40
1e-10
 41
-3.2986722862692828
 42
-3.141592653589793
  0
ELLIPSE
  5
131
330
17
100
AcDbEntity
  8
visible
100
AcDbEllipse
 10
22.5
 20
-6.999999950965665
 30
0.0
 11
8.0
 21
0.0
 31
0.0
 40
1e-10
 41
0.0
 42
0.895664793857865
  0
LINE
  5
132
330
17
100
AcDbEntity
  8
visible
100
AcDbLine
 10
36.6
 20
-6.999999952387339
 30
0.0
 11
31.5
 21
-6.999999952387339
 31
0.0
  0
LINE
  5
133
330
17
100
AcDbEntity
  8
visible
100
AcDbLine
 10
30.5
 20
-6.999999950965665
 30
0.0
 11
31.5
 21
-6.999999950965665
 31
0.0
  0
LINE
  5
134
330
17
100
AcDbEntity
  8
visible
100
AcDbLine
 10
30.5
 20
-6.999999950965664
 30
0.0
 11
30.5
 21
-5.999999950965664
 31
0.0
  0
LINE
  5
135
330
17
100
AcDbEntity
  8
visible
100
AcDbLine
 10
30.5
 20
6.000000049034336
 30
0.0
 11
30.5
 21
7.000000049034336
 31
0.0
  0
ELLIPSE
  5
136
330
17
100
AcDbEntity
  8
visible
100
AcDbEllipse
 10
34.5
 20
6.000000049034335
 30
0.0
 11
1.0
 21
0.0
 31
0.0
 40
1.0
 41
-4.712442303427494
 42
-4.71238898038469
  0
SPLINE
  5
137
330
17
100
AcDbEntity
  8
visible
100
AcDbSpline
 70
0
 71
1
 72
4
 73
2
 74
0
 40
0.0
 40
0.0
 40
1.0
 40
1.0
 10
34.50011074606152
 20
7.000000041845498
 30
0.0
 10
34.5
 20
7.000000047880901
 30
0.0
  0
SPLINE
  5
138
330
17
100
AcDbEntity
  8
visible
100
AcDbSpline
 70
0
 71
3
 72
8
 73
4
 74
0
 40
0.0
 40
0.0
 40
0.0
 40
0.0
 40
1.0
 40
1.0
 40
1.0
 40
1.0
 10
36.6
 20
5.196152470292469
 30
0.0
 10
36.59999999999999
 20
4.813152237473602
 30
0.0
 10
36.6
 20
4.3024475715433335
 30
0.0
 10
36.60000000000001
 20
3.7000000474933823
 30
0.0
  0
LINE
  5
139
330
17
100
AcDbEntity
  8
visible
100
AcDbLine
 10
36.6
 20
5.1961524702924695
 30
0.0
 11
36.6
 21
6.5000000475858375
 31
0.0
  0
SPLINE
  5
13A
330
17
100
AcDbEntity
  8
visible
100
AcDbSpline
 70
0
 71
3
 72
11
 73
7
 74
0
 40
0.0
 40
0.0
 40
0.0
 40
0.0
 40
0.7853981633974483
 40
0.7853981633974483
 40
0.7853981633974483
 40
1.5707963267948966
 40
1.5707963267948966
 40
1.5707963267948966
 40
1.5707963267948966
 10
36.6
 20
7.000000047612661
 30
0.0
 10
36.59999999999999
 20
6.999566499576293
 30
0.0
 10
36.60000000000001
 20
6.946022698078305
 30
0.0
 10
36.6
 20
6.853553438186967
 30
0.0
 10
36.599999999999994
 20
6.760471048792647
 30
0.0
 10
36.600000000000016
 20
6.6312048770490595
 30
0.0
 10
36.6
 20
6.5000000475858375
 30
0.0
  0
ELLIPSE
  5
13B
330
17
100
AcDbEntity
  8
visible
100
AcDbEllipse
 10
31.5
 20
6.000000049034335
 30
0.0
 11
1.0
 21
0.0
 31
0.0
 40
1.0
 41
-4.71238898038469
 42
-3.141592653589793
  0
ELLIPSE
  5
13C
330
17
100
AcDbEntity
  8
visible
100
AcDbEllipse
 10
31.5
 20
6.000000047612661
 30
0.0
 11
1.0
 21
0.0
 31
0.0
 40
1.0
 41
-4.71238898038469
 42
-3.141592653589793
  0
SPLINE
  5
13D
330
17
100
AcDbEntity
  8
visible
100
AcDbSpline
 70
0
 71
2
 72
26
 73
23
 74
0
 40
0.0
 40
0.0
 40
0.0
 40
0.07142857142857142
 40
0.07142857142857142
 40
0.14285714285714285
 40
0.14285714285714285
 40
0.21428571428571427
 40
0.21428571428571427
 40
0.2857142857142857
 40
0.2857142857142857
 40
0.35714285714285715
 40
0.35714285714285715
 40
0.42857142857142855
 40
0.42857142857142855
 40
0.5
 40
0.5
 40
0.5714285714285714
 40
0.5714285714285714
 40
0.7142857142857143
 40
0.7142857142857143
 40
0.8571428571428571
 40
0.8571428571428571
 40
1.0
 40
1.0
 40
1.0
 10
-31.0
 20
-3.103847529707549
 30
0.0
 10
-30.972008880974183
 20
-3.1065702226905234
 30
0.0
 10
-30.944017761948345
 20
-3.1092929156734965
 30
0.0
 10
-30.916378647485093
 20
-3.117426755178414
 30
0.0
 10
-30.88873953302184
 20
-3.1255605946833316
 30
0.0
 10
-30.861800001022125
 20
-3.1390032929590546
 30
0.0
 10
-30.834860469022416
 20
-3.152445991234777
 30
0.0
 10
-30.808959299731818
 20
-3.1710284985508532
 30
0.0
 10
-30.78305813044122
 20
-3.1896110058669302
 30
0.0
 10
-30.758521046091776
 20
-3.213099636412039
 30
0.0
 10
-30.733983961742332
 20
-3.236588266957146
 30
0.0
 10
-30.711119530406492
 20
-3.2646876375737603
 30
0.0
 10
-30.688255099070634
 20
-3.2927870081903734
 30
0.0
 10
-30.667350854238684
 20
-3.325143752989355
 30
0.0
 10
-30.646446609406727
 20
-3.3575004977883367
 30
0.0
 10
-30.627765434086356
 20
-3.393707711930018
 30
0.0
 10
-30.609084258765986
 20
-3.4299149260716995
 30
0.0
 10
-30.57514494410196
 20
-3.507494825922257
 30
0.0
 10
-30.54951556604879
 20
-3.5941185931120176
 30
0.0
 10
-30.52639406618486
 20
-3.68283421086011
 30
0.0
 10
-30.512536043909087
 20
-3.7771641517911254
 30
0.0
 10
-30.501391767395404
 20
-3.872566915918706
 30
0.0
 10
-30.5
 20
-3.969872933465164
 30
0.0
  0
SPLINE
  5
13E
330
17
100
AcDbEntity
  8
visible
100
AcDbSpline
 70
0
 71
2
 72
28
 73
25
 74
0
 40
0.0
 40
0.0
 40
0.0
 40
0.07142857142857145
 40
0.07142857142857145
 40
0.21428571428571436
 40
0.21428571428571436
 40
0.35714285714285726
 40
0.35714285714285726
 40
0.4285714285714287
 40
0.4285714285714287
 40
0.5000000000000001
 40
0.5000000000000001
 40
0.5714285714285716
 40
0.5714285714285716
 40
0.642857142857143
 40
0.642857142857143
 40
0.7142857142857145
 40
0.7142857142857145
 40
0.7857142857142859
 40
0.7857142857142859
 40
0.8571428571428574
 40
0.8571428571428574
 40
0.9285714285714288
 40
0.9285714285714288
 40
1.0
 40
1.0
 40
1.0
 10
-30.5
 20
3.9698730286904818
 30
0.0
 10
-30.501571947526696
 20
3.9213909883755402
 30
0.0
 10
-30.503143895053377
 20
3.8729089480605983
 30
0.0
 10
-30.51081703699495
 20
3.7764846732144965
 30
0.0
 10
-30.528058334845813
 20
3.6838429706903537
 30
0.0
 10
-30.54792696478505
 20
3.592793617401524
 30
0.0
 10
-30.576637900385858
 20
3.509119734785743
 30
0.0
 10
-30.59286107957592
 20
3.4695173780246558
 30
0.0
 10
-30.609084258765986
 20
3.4299150212635685
 30
0.0
 10
-30.627765434086356
 20
3.3937078071196445
 30
0.0
 10
-30.646446609406727
 20
3.357500592975721
 30
0.0
 10
-30.66735085423868
 20
3.325143848174734
 30
0.0
 10
-30.688255099070638
 20
3.2927871033737484
 30
0.0
 10
-30.71111953040649
 20
3.2646877327553936
 30
0.0
 10
-30.733983961742332
 20
3.2365883621370397
 30
0.0
 10
-30.758521046091786
 20
3.213099731590477
 30
0.0
 10
-30.78305813044122
 20
3.1896111010439134
 30
0.0
 10
-30.808959299731818
 20
3.1710285937266858
 30
0.0
 10
-30.834860469022416
 20
3.1524460864094594
 30
0.0
 10
-30.861800001022132
 20
3.139003388132904
 30
0.0
 10
-30.888739533021848
 20
3.1255606898563473
 30
0.0
 10
-30.916378647485097
 20
3.117426850350926
 30
0.0
 10
-30.944017761948345
 20
3.109293010845504
 30
0.0
 10
-30.97200888097417
 20
3.1065703178623614
 30
0.0
 10
-31.0
 20
3.1038476248792195
 30
0.0
  0
LINE
  5
13F
330
17
100
AcDbEntity
  8
visible
100
AcDbLine
 10
-36.0
 20
4.2000000471512875
 30
0.0
 11
-36.0
 21
-4.199999952848711
 31
0.0
  0
SPLINE
  5
140
330
17
100
AcDbEntity
  8
visible
100
AcDbSpline
 70
0
 71
3
 72
11
 73
7
 74
0
 40
0.0
 40
0.0
 40
0.0
 40
0.0
 40
0.7853981633974483
 40
0.7853981633974483
 40
0.7853981633974483
 40
1.5707963267948966
 40
1.5707963267948966
 40
1.5707963267948966
 40
1.5707963267948966
 10
36.6
 20
-6.999999952387339
 30
0.0
 10
36.59999999999999
 20
-6.999566404365045
 30
0.0
 10
36.60000000000001
 20
-6.946022602880932
 30
0.0
 10
36.6
 20
-6.8535533429995805
 30
0.0
 10
36.599999999999994
 20
-6.760470953615182
 30
0.0
 10
36.600000000000016
 20
-6.631204781877336
 30
0.0
 10
36.6
 20
-6.4999999524141625
 30
0.0
  0
LINE
  5
141
330
17
100
AcDbEntity
  8
visible
100
AcDbLine
 10
36.6
 20
-6.4999999524141625
 30
0.0
 11
36.6
 21
-5.1961523751207945
 31
0.0
  0
SPLINE
  5
142
330
17
100
AcDbEntity
  8
visible
100
AcDbSpline
 70
0
 71
3
 72
8
 73
4
 74
0
 40
0.0
 40
0.0
 40
0.0
 40
0.0
 40
1.0
 40
1.0
 40
1.0
 40
1.0
 10
36.6
 20
-3.699999952506614
 30
0.0
 10
36.59999999999998
 20
-4.302447476505889
 30
0.0
 10
36.600000000000016
 20
-4.813152142373047
 30
0.0
 10
36.6
 20
-5.196152375120793
 30
0.0
  0
ELLIPSE
  5
143
330
17
100
AcDbEntity
  8
visible
100
AcDbEllipse
 10
31.5
 20
-5.999999952387339
 30
0.0
 11
1.0
 21
0.0
 31
0.0
 40
1.0
 41
-3.141592653589793
 42
-1.5707963267948966
  0
LINE
  5
144
330
17
100
AcDbEntity
  8
visible
100
AcDbLine
 10
30.5
 20
-5.999999952387339
 30
0.0
 11
30.5
 21
4.7612661369100806e-08
 31
0.0
  0
LINE
  5
145
330
17
100
AcDbEntity
  8
visible
100
AcDbLine
 10
30.5
 20
4.7612661369100806e-08
 30
0.0
 11
30.5
 21
6.000000047612661
 31
0.0
  0
LINE
  5
146
330
17
100
AcDbEntity
  8
visible
100
AcDbLine
 10
35.5
 20
3.7000000484012894
 30
0.0
 11
35.5
 21
-3.699999951598712
 31
0.0
  0
LINE
  5
147
330
17
100
AcDbEntity
  8
visible
100
AcDbLine
 10
36.0
 20
3.700000047493383
 30
0.0
 11
36.6
 21
3.700000047493383
 31
0.0
  0
ELLIPSE
  5
148
330
17
100
AcDbEntity
  8
visible
100
AcDbEllipse
 10
35.6
 20
3.700000047151288
 30
0.0
 11
-0.4
 21
-0.0
 31
0.0
 40
1e-10
 41
-4.71238898038469
 42
-3.141592653589793
  0
LINE
  5
149
330
17
100
AcDbEntity
  8
visible
100
AcDbLine
 10
35.6
 20
3.700000047129828
 30
0.0
 11
35.0
 21
3.700000047129828
 31
0.0
  0
SPLINE
  5
14A
330
17
100
AcDbEntity
  8
visible
100
AcDbSpline
 70
0
 71
2
 72
6
 73
3
 74
0
 40
0.0
 40
0.0
 40
0.0
 40
1.0
 40
1.0
 40
1.0
 10
33.0
 20
5.196152470292469
 30
0.0
 10
33.0
 20
5.102969532938302
 30
0.0
 10
33.0
 20
5.00000004107207
 30
0.0
  0
LINE
  5
14B
330
17
100
AcDbEntity
  8
visible
100
AcDbLine
 10
33.0
 20
5.1961524702924695
 30
0.0
 11
36.6
 21
5.1961524702924695
 31
0.0
  0
LINE
  5
14C
330
17
100
AcDbEntity
  8
visible
100
AcDbLine
 10
33.0
 20
-5.1961523751207945
 30
0.0
 11
36.6
 21
-5.1961523751207945
 31
0.0
  0
ELLIPSE
  5
14D
330
17
100
AcDbEntity
  8
visible
100
AcDbEllipse
 10
-32.8
 20
4.200000047483905
 30
0.0
 11
-0.8
 21
-0.0
 31
0.0
 40
1.0
 41
3.141592653589794
 42
4.712388980384691
  0
LINE
  5
14E
330
17
100
AcDbEntity
  8
visible
100
AcDbLine
 10
-32.8
 20
5.000000047483906
 30
0.0
 11
-35.199999999999996
 21
5.000000047483906
 31
0.0
  0
ELLIPSE
  5
14F
330
17
100
AcDbEntity
  8
visible
100
AcDbEllipse
 10
-35.2
 20
4.200000047483905
 30
0.0
 11
-0.8
 21
0.0
 31
0.0
 40
1.0
 41
4.71238898038469
 42
6.283185307179586
  0
ELLIPSE
  5
150
330
17
100
AcDbEntity
  8
visible
100
AcDbEllipse
 10
-35.2
 20
-4.199999952848712
 30
0.0
 11
-0.8
 21
0.0
 31
0.0
 40
1.0
 41
0.0
 42
1.5707963267948966
  0
ELLIPSE
  5
151
330
17
100
AcDbEntity
  8
visible
100
AcDbEllipse
 10
-35.2
 20
4.2000000471512875
 30
0.0
 11
-0.8
 21
0.0
 31
0.0
 40
1.0
 41
4.71238898038469
 42
6.283185307179586
  0
SPLINE
  5
152
330
17
100
AcDbEntity
  8
visible
100
AcDbSpline
 70
0
 71
2
 72
6
 73
3
 74
0
 40
0.0
 40
0.0
 40
0.0
 40
1.0
 40
1.0
 40
1.0
 10
33.0
 20
-4.99999995892793
 30
0.0
 10
33.0
 20
-5.1029694436691795
 30
0.0
 10
33.0
 20
-5.196152375120792
 30
0.0
  0
LINE
  5
153
330
17
100
AcDbEntity
  8
visible
100
AcDbLine
 10
35.958878057649756
 20
-3.699999952506617
 30
0.0
 11
36.6
 21
-3.699999952506617
 31
0.0
  0
LINE
  5
154
330
17
100
AcDbEntity
  8
visible
100
AcDbLine
 10
35.0
 20
-3.6999999515987123
 30
0.0
 11
35.5
 21
-3.6999999515987123
 31
0.0
  0
ELLIPSE
  5
155
330
17
100
AcDbEntity
  8
visible
100
AcDbEllipse
 10
35.6
 20
-3.699999951657725
 30
0.0
 11
-0.4
 21
-0.0
 31
0.0
 40
1e-10
 41
-3.141592653589793
 42
-1.5707963267948966
  0
ELLIPSE
  5
156
330
17
100
AcDbEntity
  8
visible
100
AcDbEllipse
 10
35.6
 20
-3.699999951990343
 30
0.0
 11
-0.4
 21
-0.0
 31
0.0
 40
1e-10
 41
-3.5990121013099814
 42
-3.141592653589793
  0
ELLIPSE
  5
157
330
17
100
AcDbEntity
  8
visible
100
AcDbEllipse
 10
35.6
 20
-3.699999952516094
 30
0.0
 11
-0.4
 21
-0.0
 31
0.0
 40
1e-10
 41
-3.141592653589793
 42
-2.6841732058695165
  0
ELLIPSE
  5
158
330
17
100
AcDbEntity
  8
visible
100
AcDbEllipse
 10
35.6
 20
-3.6999999528487124
 30
0.0
 11
-0.4
 21
-0.0
 31
0.0
 40
1e-10
 41
-4.71238898038469
 42
-3.141592653589793
  0
LINE
  5
159
330
17
100
AcDbEntity
  8
visible
100
AcDbLine
 10
35.6
 20
-3.6999999528701717
 30
0.0
 11
35.0
 21
-3.6999999528701717
 31
0.0
  0
LINE
  5
15A
330
17
100
AcDbEntity
  8
visible
100
AcDbLine
 10
36.0
 20
4.2000000471512875
 30
0.0
 11
36.0
 21
3.7000000471512884
 31
0.0
  0
LINE
  5
15B
330
17
100
AcDbEntity
  8
visible
100
AcDbLine
 10
35.0
 20
-3.6999999528701712
 30
0.0
 11
35.0
 21
3.70000004712983
 31
0.0
  0
LINE
  5
15C
330
17
100
AcDbEntity
  8
visible
100
AcDbLine
 10
-32.0
 20
-4.199999952848712
 30
0.0
 11
-32.0
 21
4.200000047151287
 31
0.0
  0
ELLIPSE
  5
15D
330
17
100
AcDbEntity
  8
visible
100
AcDbEllipse
 10
-32.8
 20
4.2000000471512875
 30
0.0
 11
-0.8
 21
-0.0
 31
0.0
 40
1.0
 41
3.141592653589794
 42
4.712388980384691
  0
ELLIPSE
  5
15E
330
17
100
AcDbEntity
  8
visible
100
AcDbEllipse
 10
-32.8
 20
-4.199999952848712
 30
0.0
 11
-0.8
 21
-0.0
 31
0.0
 40
1.0
 41
1.5707963267948968
 42
3.141592653589793
  0
LINE
  5
15F
330
17
100
AcDbEntity
  8
visible
100
AcDbLine
 10
36.0
 20
-3.699999952848712
 30
0.0
 11
36.0
 21
-4.199999952848711
 31
0.0
  0
ELLIPSE
  5
160
330
17
100
AcDbEntity
  8
visible
100
AcDbEllipse
 10
35.2
 20
4.200000047483905
 30
0.0
 11
0.8
 21
0.0
 31
0.0
 40
1.0
 41
-6.283185307179586
 42
-4.71238898038469
  0
ELLIPSE
  5
161
330
17
100
AcDbEntity
  8
visible
100
AcDbEllipse
 10
35.2
 20
4.2000000471512875
 30
0.0
 11
0.8
 21
0.0
 31
0.0
 40
1.0
 41
-6.283185307179586
 42
-4.71238898038469
  0
LINE
  5
162
330
17
100
AcDbEntity
  8
visible
100
AcDbLine
 10
32.0
 20
-4.199999952848712
 30
0.0
 11
32.0
 21
4.200000047151287
 31
0.0
  0
ELLIPSE
  5
163
330
17
100
AcDbEntity
  8
visible
100
AcDbEllipse
 10
32.8
 20
4.2000000471512875
 30
0.0
 11
0.8
 21
0.0
 31
0.0
 40
1.0
 41
-4.712388980384691
 42
-3.141592653589794
  0
LINE
  5
164
330
17
100
AcDbEntity
  8
visible
100
AcDbLine
 10
32.8
 20
5.000000047151288
 30
0.0
 11
35.199999999999996
 21
5.000000047151288
 31
0.0
  0
ELLIPSE
  5
165
330
17
100
AcDbEntity
  8
visible
100
AcDbEllipse
 10
35.2
 20
-4.199999952848712
 30
0.0
 11
0.8
 21
0.0
 31
0.0
 40
1.0
 41
-1.5707963267948966
 42
-0.0
  0
LINE
  5
166
330
17
100
AcDbEntity
  8
visible
100
AcDbLine
 10
35.2
 20
-4.999999952848712
 30
0.0
 11
32.800000000000004
 21
-4.999999952848712
 31
0.0
  0
ELLIPSE
  5
167
330
17
100
AcDbEntity
  8
visible
100
AcDbEllipse
 10
32.8
 20
-4.199999952848712
 30
0.0
 11
0.8
 21
0.0
 31
0.0
 40
1.0
 41
-3.141592653589793
 42
-1.5707963267948968
  0
ELLIPSE
  5
168
330
17
100
AcDbEntity
  8
visible
100
AcDbEllipse
 10
32.8
 20
4.200000047483905
 30
0.0
 11
0.8
 21
0.0
 31
0.0
 40
1.0
 41
-4.712388980384691
 42
-3.141592653589794
  0
LINE
  5
169
330
17
100
AcDbEntity
  8
visible
100
AcDbLine
 10
32.8
 20
5.000000047483906
 30
0.0
 11
35.199999999999996
 21
5.000000047483906
 31
0.0
  0
LINE
  5
16A
330
17
100
AcDbEntity
  8
visible
100
AcDbLine
 10
-32.8
 20
5.000000047151288
 30
0.0
 11
-35.199999999999996
 21
5.000000047151288
 31
0.0
  0
LINE
  5
16B
330
17
100
AcDbEntity
  8
visible
100
AcDbLine
 10
-35.2
 20
-4.999999952848712
 30
0.0
 11
-32.800000000000004
 21
-4.999999952848712
 31
0.0
  0
LINE
  5
16C
330
17
100
AcDbEntity
  8
visible
100
AcDbLine
 10
43.00000000000001
 20
-6.099999953379828
 30
0.0
 11
43.00000000000001
 21
6.100000046620171
 31
0.0
  0
SPLINE
  5
16D
330
17
100
AcDbEntity
  8
visible
100
AcDbSpline
 70
0
 71
2
 72
6
 73
3
 74
0
 40
0.0
 40
0.0
 40
0.0
 40
1.0
 40
1.0
 40
1.0
 10
37.0
 20
2.250000040781376
 30
0.0
 10
37.0
 20
2.3990497610358124
 30
0.0
 10
37.0
 20
2.400000047746782
 30
0.0
  0
SPLINE
  5
16E
330
17
100
AcDbEntity
  8
visible
100
AcDbSpline
 70
0
 71
2
 72
6
 73
3
 74
0
 40
0.0
 40
0.0
 40
0.0
 40
1.0
 40
1.0
 40
1.0
 10
37.0
 20
-2.3999999522532183
 30
0.0
 10
37.0
 20
-2.399049665689019
 30
0.0
 10
37.0
 20
-2.2499999592186244
 30
0.0
  0
SPLINE
  5
16F
330
17
100
AcDbEntity
  8
visible
100
AcDbSpline
 70
0
 71
1
 72
17
 73
15
 74
0
 40
0.0
 40
0.0
 40
0.07142857142857142
 40
0.14285714285714293
 40
0.21428571428571436
 40
0.2857142857142858
 40
0.3571428571428572
 40
0.42857142857142866
 40
0.5000000000000001
 40
0.5714285714285715
 40
0.6428571428571429
 40
0.7142857142857143
 40
0.7857142857142857
 40
0.8571428571428571
 40
0.9285714285714286
 40
1.0
 40
1.0
 10
-29.0
 20
2.5000000477467816
 30
0.0
 10
-29.0
 20
2.437319828201341
 30
0.0
 10
-29.0
 20
2.2524222175028292
 30
0.0
 10
-29.0
 20
1.954578753916856
 30
0.0
 10
-29.0
 20
1.5587245523936153
 30
0.0
 10
-29.0
 20
1.0847093955406766
 30
0.0
 10
-29.0
 20
0.5563023826375673
 30
0.0
 10
-29.0
 20
4.774678119545683e-08
 30
0.0
 10
-29.0
 20
-0.5563022871440046
 30
0.0
 10
-29.0
 20
-1.084709300047114
 30
0.0
 10
-29.0
 20
-1.5587244569000522
 30
0.0
 10
-29.0
 20
-1.954578658423293
 30
0.0
 10
-29.0
 20
-2.252422122009266
 30
0.0
 10
-29.0
 20
-2.4373197327077776
 30
0.0
 10
-29.0
 20
-2.4999999522532184
 30
0.0
  0
LINE
  5
170
330
17
100
AcDbEntity
  8
visible
100
AcDbLine
 10
-27.5
 20
-23.499999953272532
 30
0.0
 11
-27.5
 21
23.500000046727468
 31
0.0
  0
ELLIPSE
  5
171
330
17
100
AcDbEntity
  8
visible
100
AcDbEllipse
 10
-23.5
 20
-23.499999953272532
 30
0.0
 11
-4.0
 21
-0.0
 31
0.0
 40
1.0
 41
0.0
 42
1.5707963267948966
  0
ELLIPSE
  5
172
330
17
100
AcDbEntity
  8
visible
100
AcDbEllipse
 10
-23.5
 20
23.500000048980688
 30
0.0
 11
4.0
 21
0.0
 31
0.0
 40
1.0
 41
-4.71238898038469
 42
-3.141592653589793
  0
ELLIPSE
  5
173
330
17
100
AcDbEntity
  8
visible
100
AcDbEllipse
 10
-23.5
 20
23.500000046727468
 30
0.0
 11
-4.0
 21
-0.0
 31
0.0
 40
1.0
 41
4.71238898038469
 42
6.283185307179586
  0
LINE
  5
174
330
17
100
AcDbEntity
  8
visible
100
AcDbLine
 10
-23.5
 20
-27.499999953272532
 30
0.0
 11
23.5
 21
-27.499999953272532
 31
0.0
  0
ELLIPSE
  5
175
330
17
100
AcDbEntity
  8
visible
100
AcDbEllipse
 10
23.5
 20
-23.499999953272532
 30
0.0
 11
4.0
 21
0.0
 31
0.0
 40
1.0
 41
-1.5707963267948966
 42
-0.0
  0
LINE
  5
176
330
17
100
AcDbEntity
  8
visible
100
AcDbLine
 10
-23.5
 20
27.500000048980688
 30
0.0
 11
23.5
 21
27.500000048980688
 31
0.0
  0
LINE
  5
177
330
17
100
AcDbEntity
  8
visible
100
AcDbLine
 10
-23.5
 20
27.500000046727468
 30
0.0
 11
23.5
 21
27.500000046727468
 31
0.0
  0
LINE
  5
178
330
17
100
AcDbEntity
  8
visible
100
AcDbLine
 10
27.5
 20
-23.499999953272532
 30
0.0
 11
27.5
 21
23.500000046727468
 31
0.0
  0
ELLIPSE
  5
179
330
17
100
AcDbEntity
  8
visible
100
AcDbEllipse
 10
23.5
 20
23.500000048980688
 30
0.0
 11
-4.0
 21
-0.0
 31
0.0
 40
1.0
 41
3.141592653589793
 42
4.71238898038469
  0
ELLIPSE
  5
17A
330
17
100
AcDbEntity
  8
visible
100
AcDbEllipse
 10
23.5
 20
23.500000046727468
 30
0.0
 11
4.0
 21
0.0
 31
0.0
 40
1.0
 41
-6.283185307179586
 42
-4.71238898038469
  0
LINE
  5
17B
330
17
100
AcDbEntity
  8
visible
100
AcDbLine
 10
11.5
 20
-29.499999952145924
 30
0.0
 11
11.5
 21
-27.499999952145924
 31
0.0
  0
ELLIPSE
  5
17C
330
17
100
AcDbEntity
  8
visible
100
AcDbEllipse
 10
0.0
 20
-29.499999952145924
 30
0.0
 11
11.5
 21
0.0
 31
0.0
 40
1e-10
 41
3.141592653589793
 42
6.283185307179586
  0
LINE
  5
17D
330
17
100
AcDbEntity
  8
visible
100
AcDbLine
 10
-50.0
 20
60.000000053605156
 30
0.0
 11
50.0
 21
60.000000053605156
 31
0.0
  0
ELLIPSE
  5
17E
330
17
100
AcDbEntity
  8
visible
100
AcDbEllipse
 10
-71.2
 20
-37.999999948669526
 30
0.0
 11
0.8
 21
0.0
 31
0.0
 40
1e-10
 41
3.141592653589793
 42
4.71238898038469
  0
LINE
  5
17F
330
17
100
AcDbEntity
  8
visible
100
AcDbLine
 10
-71.2
 20
-37.99999994871244
 30
0.0
 11
-71.2
 21
-13.86457630455159
 31
0.0
  0
LINE
  5
180
330
17
100
AcDbEntity
  8
visible
100
AcDbLine
 10
-71.2
 20
13.864576411847736
 30
0.0
 11
-71.2
 21
38.00000005128756
 31
0.0
  0
ELLIPSE
  5
181
330
17
100
AcDbEntity
  8
visible
100
AcDbEllipse
 10
-71.2
 20
38.000000051330474
 30
0.0
 11
0.8
 21
0.0
 31
0.0
 40
1e-10
 41
3.141592653589793
 42
4.71238898038469
  0
SPLINE
  5
182
330
17
100
AcDbEntity
  8
visible
100
AcDbSpline
 70
0
 71
3
 72
26
 73
22
 74
0
 40
0.0
 40
0.0
 40
0.0
 40
0.0
 40
0.1121997376282069
 40
0.1121997376282069
 40
0.1121997376282069
 40
0.2243994752564138
 40
0.2243994752564138
 40
0.2243994752564138
 40
0.3365992128846207
 40
0.3365992128846207
 40
0.3365992128846207
 40
0.4487989505128276
 40
0.4487989505128276
 40
0.4487989505128276
 40
0.5609986881410345
 40
0.5609986881410345
 40
0.5609986881410345
 40
0.7853981633974483
 40
0.7853981633974483
 40
0.7853981633974483
 40
1.5707963267948966
 40
1.5707963267948966
 40
1.5707963267948966
 40
1.5707963267948966
 10
-50.0
 20
-59.999999948669526
 30
0.0
 10
-49.999999999999964
 20
-59.99832320464265
 30
0.0
 10
-50.0
 20
-59.996646460615786
 30
0.0
 10
-50.0
 20
-59.994969716588926
 30
0.0
 10
-50.000000000000014
 20
-59.98996057053412
 30
0.0
 10
-49.999999999999986
 20
-59.984951424479355
 30
0.0
 10
-50.0
 20
-59.97994227842454
 30
0.0
 10
-50.00000000000001
 20
-59.97166372325982
 30
0.0
 10
-50.00000000000001
 20
-59.963385168095115
 30
0.0
 10
-50.0
 20
-59.95510661293039
 30
0.0
 10
-50.00000000000001
 20
-59.9436627562903
 30
0.0
 10
-50.00000000000001
 20
-59.93221889965018
 30
0.0
 10
-50.0
 20
-59.92077504301008
 30
0.0
 10
-50.00000000000001
 20
-59.90630979803173
 30
0.0
 10
-50.00000000000001
 20
-59.891844553053325
 30
0.0
 10
-50.0
 20
-59.877379308074985
 30
0.0
 10
-50.00000000000001
 20
-59.84424029808559
 30
0.0
 10
-50.00000000000001
 20
-59.807008986610306
 30
0.0
 10
-50.0
 20
-59.76568537364911
 30
0.0
 10
-49.999999999999986
 20
-59.61675355063405
 30
0.0
 10
-50.00000000000002
 20
-59.40992767585354
 30
0.0
 10
-50.0
 20
-59.199999948712446
 30
0.0
  0
ELLIPSE
  5
183
330
17
100
AcDbEntity
  8
visible
100
AcDbEllipse
 10
-50.0
 20
-37.99999994871244
 30
0.0
 11
21.2
 21
0.0
 31
0.0
 40
1.0
 41
-3.141592653589793
 42
-1.5707963267948968
  0
LINE
  5
184
330
17
100
AcDbEntity
  8
visible
100
AcDbLine
 10
50.0
 20
-59.999999948669526
 30
0.0
 11
-50.0
 21
-59.999999948669526
 31
0.0
  0
ELLIPSE
  5
185
330
17
100
AcDbEntity
  8
visible
100
AcDbEllipse
 10
-50.0
 20
38.00000005128756
 30
0.0
 11
21.2
 21
0.0
 31
0.0
 40
1.0
 41
-4.71238898038469
 42
-3.141592653589793
  0
LINE
  5
186
330
17
100
AcDbEntity
  8
visible
100
AcDbLine
 10
50.0
 20
-59.199999948712446
 30
0.0
 11
-50.0
 21
-59.199999948712446
 31
0.0
  0
LINE
  5
187
330
17
100
AcDbEntity
  8
visible
100
AcDbLine
 10
-50.0
 20
59.20000005128756
 30
0.0
 11
50.0
 21
59.20000005128756
 31
0.0
  0
ELLIPSE
  5
188
330
17
100
AcDbEntity
  8
visible
100
AcDbEllipse
 10
50.0
 20
-37.99999994871244
 30
0.0
 11
21.2
 21
0.0
 31
0.0
 40
1.0
 41
-1.5707963267948966
 42
-0.0
  0
ELLIPSE
  5
189
330
17
100
AcDbEntity
  8
visible
100
AcDbEllipse
 10
50.0
 20
38.00000005128756
 30
0.0
 11
21.2
 21
0.0
 31
0.0
 40
1.0
 41
-6.283185307179586
 42
-4.71238898038469
  0
LINE
  5
18A
330
17
100
AcDbEntity
  8
visible
100
AcDbLine
 10
71.2
 20
38.00000005128756
 30
0.0
 11
71.2
 21
13.864576411847736
 31
0.0
  0
LINE
  5
18B
330
17
100
AcDbEntity
  8
visible
100
AcDbLine
 10
71.2
 20
-13.86457630455159
 30
0.0
 11
71.2
 21
-37.99999994871244
 31
0.0
  0
SPLINE
  5
18C
330
17
100
AcDbEntity
  8
visible
100
AcDbSpline
 70
0
 71
3
 72
26
 73
22
 74
0
 40
0.0
 40
0.0
 40
0.0
 40
0.0
 40
0.1121997376282069
 40
0.1121997376282069
 40
0.1121997376282069
 40
0.2243994752564138
 40
0.2243994752564138
 40
0.2243994752564138
 40
0.3365992128846207
 40
0.3365992128846207
 40
0.3365992128846207
 40
0.4487989505128276
 40
0.4487989505128276
 40
0.4487989505128276
 40
0.5609986881410345
 40
0.5609986881410345
 40
0.5609986881410345
 40
0.7853981633974483
 40
0.7853981633974483
 40
0.7853981633974483
 40
1.5707963267948966
 40
1.5707963267948966
 40
1.5707963267948966
 40
1.5707963267948966
 10
-50.0
 20
60.000000051330474
 30
0.0
 10
-49.999999999999964
 20
59.99832330730036
 30
0.0
 10
-50.0
 20
59.99664656327036
 30
0.0
 10
-50.0
 20
59.99496981924027
 30
0.0
 10
-50.000000000000014
 20
59.98996067318229
 30
0.0
 10
-49.999999999999986
 20
59.98495152712434
 30
0.0
 10
-50.0
 20
59.97994238106639
 30
0.0
 10
-50.00000000000001
 20
59.97166382589856
 30
0.0
 10
-50.00000000000001
 20
59.96338527073082
 30
0.0
 10
-50.0
 20
59.955106715563005
 30
0.0
 10
-50.00000000000001
 20
59.94366285891994
 30
0.0
 10
-50.00000000000001
 20
59.932219002276874
 30
0.0
 10
-50.0
 20
59.9207751456338
 30
0.0
 10
-50.00000000000001
 20
59.90630990065263
 30
0.0
 10
-50.00000000000001
 20
59.89184465567146
 30
0.0
 10
-50.0
 20
59.877379410690274
 30
0.0
 10
-50.00000000000001
 20
59.8442404006955
 30
0.0
 10
-50.00000000000001
 20
59.80700908921525
 30
0.0
 10
-50.0
 20
59.76568547624936
 30
0.0
 10
-49.999999999999986
 20
59.616753653218446
 30
0.0
 10
-50.00000000000002
 20
59.409927778428745
 30
0.0
 10
-50.0
 20
59.20000005128755
 30
0.0
  0
LINE
  5
18D
330
17
100
AcDbEntity
  8
visible
100
AcDbLine
 10
-50.0
 20
60.00000005145923
 30
0.0
 11
50.0
 21
60.00000005145923
 31
0.0
  0
LINE
  5
18E
330
17
100
AcDbEntity
  8
visible
100
AcDbLine
 10
-50.0
 20
60.000000051330474
 30
0.0
 11
50.0
 21
60.000000051330474
 31
0.0
  0
SPLINE
  5
18F
330
17
100
AcDbEntity
  8
visible
100
AcDbSpline
 70
0
 71
3
 72
26
 73
22
 74
0
 40
0.0
 40
0.0
 40
0.0
 40
0.0
 40
0.1121997376282069
 40
0.1121997376282069
 40
0.1121997376282069
 40
0.2243994752564138
 40
0.2243994752564138
 40
0.2243994752564138
 40
0.3365992128846207
 40
0.3365992128846207
 40
0.3365992128846207
 40
0.4487989505128276
 40
0.4487989505128276
 40
0.4487989505128276
 40
0.5609986881410345
 40
0.5609986881410345
 40
0.5609986881410345
 40
0.7853981633974483
 40
0.7853981633974483
 40
0.7853981633974483
 40
1.5707963267948966
 40
1.5707963267948966
 40
1.5707963267948966
 40
1.5707963267948966
 10
50.0
 20
-59.999999948669526
 30
0.0
 10
49.999999999999964
 20
-59.99832320464265
 30
0.0
 10
50.0
 20
-59.996646460615786
 30
0.0
 10
50.0
 20
-59.994969716588926
 30
0.0
 10
50.000000000000014
 20
-59.98996057053412
 30
0.0
 10
49.999999999999986
 20
-59.984951424479355
 30
0.0
 10
50.0
 20
-59.97994227842454
 30
0.0
 10
50.00000000000001
 20
-59.97166372325982
 30
0.0
 10
50.00000000000001
 20
-59.963385168095115
 30
0.0
 10
50.0
 20
-59.95510661293039
 30
0.0
 10
50.00000000000001
 20
-59.9436627562903
 30
0.0
 10
50.00000000000001
 20
-59.93221889965018
 30
0.0
 10
50.0
 20
-59.92077504301008
 30
0.0
 10
50.00000000000001
 20
-59.90630979803173
 30
0.0
 10
50.00000000000001
 20
-59.891844553053325
 30
0.0
 10
50.0
 20
-59.877379308074985
 30
0.0
 10
50.00000000000001
 20
-59.84424029808559
 30
0.0
 10
50.00000000000001
 20
-59.807008986610306
 30
0.0
 10
50.0
 20
-59.76568537364911
 30
0.0
 10
49.999999999999986
 20
-59.61675355063405
 30
0.0
 10
50.00000000000002
 20
-59.40992767585354
 30
0.0
 10
50.0
 20
-59.199999948712446
 30
0.0
  0
SPLINE
  5
190
330
17
100
AcDbEntity
  8
visible
100
AcDbSpline
 70
0
 71
3
 72
26
 73
22
 74
0
 40
0.0
 40
0.0
 40
0.0
 40
0.0
 40
0.1121997376282069
 40
0.1121997376282069
 40
0.1121997376282069
 40
0.2243994752564138
 40
0.2243994752564138
 40
0.2243994752564138
 40
0.3365992128846207
 40
0.3365992128846207
 40
0.3365992128846207
 40
0.4487989505128276
 40
0.4487989505128276
 40
0.4487989505128276
 40
0.5609986881410345
 40
0.5609986881410345
 40
0.5609986881410345
 40
0.7853981633974483
 40
0.7853981633974483
 40
0.7853981633974483
 40
1.5707963267948966
 40
1.5707963267948966
 40
1.5707963267948966
 40
1.5707963267948966
 10
50.0
 20
60.000000051330474
 30
0.0
 10
49.999999999999964
 20
59.99832330730036
 30
0.0
 10
50.0
 20
59.99664656327036
 30
0.0
 10
50.0
 20
59.99496981924027
 30
0.0
 10
50.000000000000014
 20
59.98996067318229
 30
0.0
 10
49.999999999999986
 20
59.98495152712434
 30
0.0
 10
50.0
 20
59.97994238106639
 30
0.0
 10
50.00000000000001
 20
59.97166382589856
 30
0.0
 10
50.00000000000001
 20
59.96338527073082
 30
0.0
 10
50.0
 20
59.955106715563005
 30
0.0
 10
50.00000000000001
 20
59.94366285891994
 30
0.0
 10
50.00000000000001
 20
59.932219002276874
 30
0.0
 10
50.0
 20
59.9207751456338
 30
0.0
 10
50.00000000000001
 20
59.90630990065263
 30
0.0
 10
50.00000000000001
 20
59.89184465567146
 30
0.0
 10
50.0
 20
59.877379410690274
 30
0.0
 10
50.00000000000001
 20
59.8442404006955
 30
0.0
 10
50.00000000000001
 20
59.80700908921525
 30
0.0
 10
50.0
 20
59.76568547624936
 30
0.0
 10
49.999999999999986
 20
59.616753653218446
 30
0.0
 10
50.00000000000002
 20
59.409927778428745
 30
0.0
 10
50.0
 20
59.20000005128755
 30
0.0
  0
ELLIPSE
  5
191
330
17
100
AcDbEntity
  8
visible
100
AcDbEllipse
 10
71.2
 20
-37.999999948669526
 30
0.0
 11
-0.8
 21
-0.0
 31
0.0
 40
1e-10
 41
-4.71238898038469
 42
-3.141592653589793
  0
ELLIPSE
  5
192
330
17
100
AcDbEntity
  8
visible
100
AcDbEllipse
 10
71.2
 20
38.000000051330474
 30
0.0
 11
-0.8
 21
-4.898587196589413e-17
 31
0.0
 40
1e-10
 41
-4.71238898038469
 42
-3.141592653589793
  0
LINE
  5
193
330
17
100
AcDbEntity
  8
visible
100
AcDbLine
 10
46.0
 20
-19.99999994997854
 30
0.0
 11
42.0
 21
-19.99999994997854
 31
0.0
  0
ELLIPSE
  5
194
330
17
100
AcDbEntity
  8
visible
100
AcDbEllipse
 10
37.8
 20
-1.9999999536051496
 30
0.0
 11
-0.8
 21
0.0
 31
0.0
 40
1e-10
 41
-6.283185307179586
 42
-4.71238898038469
  0
SPLINE
  5
195
330
17
100
AcDbEntity
  8
visible
100
AcDbSpline
 70
0
 71
1
 72
17
 73
15
 74
0
 40
0.0
 40
0.0
 40
0.1121997376282069
 40
0.2243994752564138
 40
0.3365992128846207
 40
0.4487989505128276
 40
0.5609986881410345
 40
0.6731984257692414
 40
0.7853981633974483
 40
0.8975979010256552
 40
1.009797638653862
 40
1.121997376282069
 40
1.2341971139102759
 40
1.3463968515384828
 40
1.4585965891666897
 40
1.5707963267948966
 40
1.5707963267948966
 10
37.8
 20
-1.999999953648067
 30
0.0
 10
37.8
 20
-4.015360523501537
 30
0.0
 10
37.8
 20
-6.005376764837515
 30
0.0
 10
37.8
 20
-7.945023068786886
 30
0.0
 10
37.8
 20
-9.809907257668485
 30
0.0
 10
37.8
 20
-11.57657733077611
 30
0.0
 10
37.8
 20
-13.222816386894593
 30
0.0
 10
37.8
 20
-14.727922014723084
 30
0.0
 10
37.8
 20
-16.072966637709023
 30
0.0
 10
37.8
 20
-17.24103553930528
 30
0.0
 10
37.8
 20
-18.217439575344937
 30
0.0
 10
37.8
 20
-18.989899898551958
 30
0.0
 10
37.8
 20
-19.54870237217011
 30
0.0
 10
37.8
 20
-19.88681973086889
 30
0.0
 10
37.8
 20
-19.999999952682405
 30
0.0
  0
ELLIPSE
  5
196
330
17
100
AcDbEntity
  8
visible
100
AcDbEllipse
 10
37.8
 20
2.000000046394851
 30
0.0
 11
-0.8
 21
-0.0
 31
0.0
 40
1e-10
 41
-6.283185307179586
 42
-4.71238898038469
  0
LINE
  5
197
330
17
100
AcDbEntity
  8
visible
100
AcDbLine
 10
37.8
 20
2.0000000463519316
 30
0.0
 11
37.8
 21
-1.9999999536480684
 31
0.0
  0
SPLINE
  5
198
330
17
100
AcDbEntity
  8
visible
100
AcDbSpline
 70
0
 71
1
 72
17
 73
15
 74
0
 40
0.0
 40
0.0
 40
0.1121997376282069
 40
0.2243994752564138
 40
0.3365992128846207
 40
0.4487989505128276
 40
0.5609986881410345
 40
0.6731984257692414
 40
0.7853981633974483
 40
0.8975979010256552
 40
1.009797638653862
 40
1.121997376282069
 40
1.2341971139102759
 40
1.3463968515384828
 40
1.4585965891666897
 40
1.5707963267948966
 40
1.5707963267948966
 10
37.8
 20
20.000000047317595
 30
0.0
 10
37.8
 20
19.88681982528784
 30
0.0
 10
37.8
 20
19.54870246637554
 30
0.0
 10
37.8
 20
18.989899992549272
 30
0.0
 10
37.8
 20
18.21743966914216
 30
0.0
 10
37.8
 20
17.241035632912947
 30
0.0
 10
37.8
 20
16.07296673114005
 30
0.0
 10
37.8
 20
14.727922107992626
 30
0.0
 10
37.8
 20
13.222816480019814
 30
0.0
 10
37.8
 20
11.576577423776005
 30
0.0
 10
37.8
 20
9.80990735056361
 30
0.0
 10
37.8
 20
7.9450231615991305
 30
0.0
 10
37.8
 20
6.005376857589802
 30
0.0
 10
37.8
 20
4.015360616217546
 30
0.0
 10
37.8
 20
2.000000046351932
 30
0.0
  0
LINE
  5
199
330
17
100
AcDbEntity
  8
visible
100
AcDbLine
 10
42.0
 20
20.00000005002146
 30
0.0
 11
46.0
 21
20.00000005002146
 31
0.0
  0
LINE
  5
19A
330
17
100
AcDbEntity
  8
visible
100
AcDbLine
 10
37.8
 20
-19.999999952682405
 30
0.0
 11
42.2
 21
-19.999999952682405
 31
0.0
  0
LINE
  5
19B
330
17
100
AcDbEntity
  8
visible
100
AcDbLine
 10
37.8
 20
-1.9999999536480682
 30
0.0
 11
42.2
 21
-1.9999999536480682
 31
0.0
  0
SPLINE
  5
19C
330
17
100
AcDbEntity
  8
visible
100
AcDbSpline
 70
0
 71
1
 72
17
 73
15
 74
0
 40
0.0
 40
0.0
 40
0.1121997376282069
 40
0.2243994752564138
 40
0.3365992128846207
 40
0.4487989505128276
 40
0.5609986881410345
 40
0.6731984257692414
 40
0.7853981633974483
 40
0.8975979010256552
 40
1.009797638653862
 40
1.121997376282069
 40
1.2341971139102759
 40
1.3463968515384828
 40
1.4585965891666897
 40
1.5707963267948966
 40
1.5707963267948966
 10
42.2
 20
-1.999999953648067
 30
0.0
 10
42.2
 20
-4.015360523501537
 30
0.0
 10
42.2
 20
-6.005376764837515
 30
0.0
 10
42.2
 20
-7.945023068786886
 30
0.0
 10
42.2
 20
-9.809907257668485
 30
0.0
 10
42.2
 20
-11.57657733077611
 30
0.0
 10
42.2
 20
-13.222816386894593
 30
0.0
 10
42.2
 20
-14.727922014723084
 30
0.0
 10
42.2
 20
-16.072966637709023
 30
0.0
 10
42.2
 20
-17.24103553930528
 30
0.0
 10
42.2
 20
-18.217439575344937
 30
0.0
 10
42.2
 20
-18.989899898551958
 30
0.0
 10
42.2
 20
-19.54870237217011
 30
0.0
 10
42.2
 20
-19.88681973086889
 30
0.0
 10
42.2
 20
-19.999999952682405
 30
0.0
  0
LINE
  5
19D
330
17
100
AcDbEntity
  8
visible
100
AcDbLine
 10
42.2
 20
2.0000000463519316
 30
0.0
 11
42.2
 21
-1.9999999536480684
 31
0.0
  0
LINE
  5
19E
330
17
100
AcDbEntity
  8
visible
100
AcDbLine
 10
37.8
 20
2.0000000463519316
 30
0.0
 11
42.2
 21
2.0000000463519316
 31
0.0
  0
SPLINE
  5
19F
330
17
100
AcDbEntity
  8
visible
100
AcDbSpline
 70
0
 71
1
 72
17
 73
15
 74
0
 40
0.0
 40
0.0
 40
0.1121997376282069
 40
0.2243994752564138
 40
0.3365992128846207
 40
0.4487989505128276
 40
0.5609986881410345
 40
0.6731984257692414
 40
0.7853981633974483
 40
0.8975979010256552
 40
1.009797638653862
 40
1.121997376282069
 40
1.2341971139102759
 40
1.3463968515384828
 40
1.4585965891666897
 40
1.5707963267948966
 40
1.5707963267948966
 10
42.2
 20
20.000000047317595
 30
0.0
 10
42.2
 20
19.88681982528784
 30
0.0
 10
42.2
 20
19.54870246637554
 30
0.0
 10
42.2
 20
18.989899992549272
 30
0.0
 10
42.2
 20
18.21743966914216
 30
0.0
 10
42.2
 20
17.241035632912947
 30
0.0
 10
42.2
 20
16.07296673114005
 30
0.0
 10
42.2
 20
14.727922107992626
 30
0.0
 10
42.2
 20
13.222816480019814
 30
0.0
 10
42.2
 20
11.576577423776005
 30
0.0
 10
42.2
 20
9.80990735056361
 30
0.0
 10
42.2
 20
7.9450231615991305
 30
0.0
 10
42.2
 20
6.005376857589802
 30
0.0
 10
42.2
 20
4.015360616217546
 30
0.0
 10
42.2
 20
2.000000046351932
 30
0.0
  0
LINE
  5
1A0
330
17
100
AcDbEntity
  8
visible
100
AcDbLine
 10
37.8
 20
20.000000049436697
 30
0.0
 11
42.2
 21
20.000000049436697
 31
0.0
  0
ELLIPSE
  5
1A1
330
17
100
AcDbEntity
  8
visible
100
AcDbEllipse
 10
42.2
 20
-1.9999999536051496
 30
0.0
 11
0.8
 21
0.0
 31
0.0
 40
1e-10
 41
4.71238898038469
 42
6.283185307179586
  0
ELLIPSE
  5
1A2
330
17
100
AcDbEntity
  8
visible
100
AcDbEllipse
 10
42.2
 20
2.000000046394851
 30
0.0
 11
0.8
 21
0.0
 31
0.0
 40
1e-10
 41
4.71238898038469
 42
6.283185307179586
  0
ELLIPSE
  5
1A3
330
17
100
AcDbEntity
  8
visible
100
AcDbEllipse
 10
0.0
 20
5.040236110673235e-08
 30
0.0
 11
-57.2
 21
-0.0
 31
0.0
 40
1.0
 41
3.498790524093338
 42
5.925987436676041
  0
ELLIPSE
  5
1A4
330
17
100
AcDbEntity
  8
visible
100
AcDbEllipse
 10
0.0
 20
5.040236110673235e-08
 30
0.0
 11
-57.2
 21
-0.0
 31
0.0
 40
1.0
 41
0.3571978706186707
 42
2.7843947829711233
  0
LINE
  5
1A5
330
17
100
AcDbEntity
  8
visible
100
AcDbLine
 10
43.8
 20
-19.999999952682405
 30
0.0
 11
69.2
 21
-19.999999952682405
 31
0.0
  0
LINE
  5
1A6
330
17
100
AcDbEntity
  8
visible
100
AcDbLine
 10
43.8
 20
-1.9999999536480682
 30
0.0
 11
69.2
 21
-1.9999999536480682
 31
0.0
  0
SPLINE
  5
1A7
330
17
100
AcDbEntity
  8
visible
100
AcDbSpline
 70
0
 71
1
 72
17
 73
15
 74
0
 40
0.0
 40
0.0
 40
0.1121997376282069
 40
0.2243994752564138
 40
0.3365992128846207
 40
0.4487989505128276
 40
0.5609986881410345
 40
0.6731984257692414
 40
0.7853981633974483
 40
0.8975979010256552
 40
1.009797638653862
 40
1.121997376282069
 40
1.2341971139102759
 40
1.3463968515384828
 40
1.4585965891666897
 40
1.5707963267948966
 40
1.5707963267948966
 10
43.8
 20
-1.999999953648067
 30
0.0
 10
43.8
 20
-4.015360523501537
 30
0.0
 10
43.8
 20
-6.005376764837515
 30
0.0
 10
43.8
 20
-7.945023068786886
 30
0.0
 10
43.8
 20
-9.809907257668485
 30
0.0
 10
43.8
 20
-11.57657733077611
 30
0.0
 10
43.8
 20
-13.222816386894593
 30
0.0
 10
43.8
 20
-14.727922014723084
 30
0.0
 10
43.8
 20
-16.072966637709023
 30
0.0
 10
43.8
 20
-17.24103553930528
 30
0.0
 10
43.8
 20
-18.217439575344937
 30
0.0
 10
43.8
 20
-18.989899898551958
 30
0.0
 10
43.8
 20
-19.54870237217011
 30
0.0
 10
43.8
 20
-19.88681973086889
 30
0.0
 10
43.8
 20
-19.999999952682405
 30
0.0
  0
SPLINE
  5
1A8
330
17
100
AcDbEntity
  8
visible
100
AcDbSpline
 70
0
 71
1
 72
17
 73
15
 74
0
 40
0.0
 40
0.0
 40
0.1121997376282069
 40
0.2243994752564138
 40
0.3365992128846207
 40
0.4487989505128276
 40
0.5609986881410345
 40
0.6731984257692414
 40
0.7853981633974483
 40
0.8975979010256552
 40
1.009797638653862
 40
1.121997376282069
 40
1.2341971139102759
 40
1.3463968515384828
 40
1.4585965891666897
 40
1.5707963267948966
 40
1.5707963267948966
 10
69.2
 20
-1.999999953648067
 30
0.0
 10
69.2
 20
-4.015360523501537
 30
0.0
 10
69.2
 20
-6.005376764837515
 30
0.0
 10
69.2
 20
-7.945023068786886
 30
0.0
 10
69.2
 20
-9.809907257668485
 30
0.0
 10
69.2
 20
-11.57657733077611
 30
0.0
 10
69.2
 20
-13.222816386894593
 30
0.0
 10
69.2
 20
-14.727922014723084
 30
0.0
 10
69.2
 20
-16.072966637709023
 30
0.0
 10
69.2
 20
-17.24103553930528
 30
0.0
 10
69.2
 20
-18.217439575344937
 30
0.0
 10
69.2
 20
-18.989899898551958
 30
0.0
 10
69.2
 20
-19.54870237217011
 30
0.0
 10
69.2
 20
-19.88681973086889
 30
0.0
 10
69.2
 20
-19.999999952682405
 30
0.0
  0
ELLIPSE
  5
1A9
330
17
100
AcDbEntity
  8
visible
100
AcDbEllipse
 10
43.8
 20
-1.9999999536051496
 30
0.0
 11
-0.8
 21
0.0
 31
0.0
 40
1e-10
 41
-6.283185307179586
 42
-4.71238898038469
  0
ELLIPSE
  5
1AA
330
17
100
AcDbEntity
  8
visible
100
AcDbEllipse
 10
69.2
 20
-1.9999999536051496
 30
0.0
 11
0.8
 21
0.0
 31
0.0
 40
1e-10
 41
4.71238898038469
 42
6.283185307179586
  0
LINE
  5
1AB
330
17
100
AcDbEntity
  8
visible
100
AcDbLine
 10
43.8
 20
2.0000000463519316
 30
0.0
 11
43.8
 21
-1.9999999536480684
 31
0.0
  0
LINE
  5
1AC
330
17
100
AcDbEntity
  8
visible
100
AcDbLine
 10
69.2
 20
2.0000000463519316
 30
0.0
 11
69.2
 21
-1.9999999536480684
 31
0.0
  0
LINE
  5
1AD
330
17
100
AcDbEntity
  8
visible
100
AcDbLine
 10
43.8
 20
2.0000000463519316
 30
0.0
 11
69.2
 21
2.0000000463519316
 31
0.0
  0
ELLIPSE
  5
1AE
330
17
100
AcDbEntity
  8
visible
100
AcDbEllipse
 10
43.8
 20
2.000000046394851
 30
0.0
 11
-0.8
 21
-0.0
 31
0.0
 40
1e-10
 41
-6.283185307179586
 42
-4.71238898038469
  0
SPLINE
  5
1AF
330
17
100
AcDbEntity
  8
visible
100
AcDbSpline
 70
0
 71
1
 72
17
 73
15
 74
0
 40
0.0
 40
0.0
 40
0.1121997376282069
 40
0.2243994752564138
 40
0.3365992128846207
 40
0.4487989505128276
 40
0.5609986881410345
 40
0.6731984257692414
 40
0.7853981633974483
 40
0.8975979010256552
 40
1.009797638653862
 40
1.121997376282069
 40
1.2341971139102759
 40
1.3463968515384828
 40
1.4585965891666897
 40
1.5707963267948966
 40
1.5707963267948966
 10
43.8
 20
20.000000047317595
 30
0.0
 10
43.8
 20
19.88681982528784
 30
0.0
 10
43.8
 20
19.54870246637554
 30
0.0
 10
43.8
 20
18.989899992549272
 30
0.0
 10
43.8
 20
18.21743966914216
 30
0.0
 10
43.8
 20
17.241035632912947
 30
0.0
 10
43.8
 20
16.07296673114005
 30
0.0
 10
43.8
 20
14.727922107992626
 30
0.0
 10
43.8
 20
13.222816480019814
 30
0.0
 10
43.8
 20
11.576577423776005
 30
0.0
 10
43.8
 20
9.80990735056361
 30
0.0
 10
43.8
 20
7.9450231615991305
 30
0.0
 10
43.8
 20
6.005376857589802
 30
0.0
 10
43.8
 20
4.015360616217546
 30
0.0
 10
43.8
 20
2.000000046351932
 30
0.0
  0
ELLIPSE
  5
1B0
330
17
100
AcDbEntity
  8
visible
100
AcDbEllipse
 10
69.2
 20
2.000000046394851
 30
0.0
 11
0.8
 21
0.0
 31
0.0
 40
1e-10
 41
4.71238898038469
 42
6.283185307179586
  0
SPLINE
  5
1B1
330
17
100
AcDbEntity
  8
visible
100
AcDbSpline
 70
0
 71
1
 72
17
 73
15
 74
0
 40
0.0
 40
0.0
 40
0.1121997376282069
 40
0.2243994752564138
 40
0.3365992128846207
 40
0.4487989505128276
 40
0.5609986881410345
 40
0.6731984257692414
 40
0.7853981633974483
 40
0.8975979010256552
 40
1.009797638653862
 40
1.121997376282069
 40
1.2341971139102759
 40
1.3463968515384828
 40
1.4585965891666897
 40
1.5707963267948966
 40
1.5707963267948966
 10
69.2
 20
20.000000047317595
 30
0.0
 10
69.2
 20
19.88681982528784
 30
0.0
 10
69.2
 20
19.54870246637554
 30
0.0
 10
69.2
 20
18.989899992549272
 30
0.0
 10
69.2
 20
18.21743966914216
 30
0.0
 10
69.2
 20
17.241035632912947
 30
0.0
 10
69.2
 20
16.07296673114005
 30
0.0
 10
69.2
 20
14.727922107992626
 30
0.0
 10
69.2
 20
13.222816480019814
 30
0.0
 10
69.2
 20
11.576577423776005
 30
0.0
 10
69.2
 20
9.80990735056361
 30
0.0
 10
69.2
 20
7.9450231615991305
 30
0.0
 10
69.2
 20
6.005376857589802
 30
0.0
 10
69.2
 20
4.015360616217546
 30
0.0
 10
69.2
 20
2.000000046351932
 30
0.0
  0
ELLIPSE
  5
1B2
330
17
100
AcDbEntity
  8
visible
100
AcDbEllipse
 10
66.10000000000001
 20
-1.9999999498015024
 30
0.0
 11
-0.8
 21
-0.0
 31
0.0
 40
1e-10
 41
-3.141592653589793
 42
-1.5707963267948966
  0
ELLIPSE
  5
1B3
330
17
100
AcDbEntity
  8
visible
100
AcDbEllipse
 10
66.10000000000001
 20
2.0000000501984947
 30
0.0
 11
-0.8
 21
-0.0
 31
0.0
 40
1e-10
 41
-3.141592653589793
 42
-1.5707963267948966
  0
LINE
  5
1B4
330
17
100
AcDbEntity
  8
visible
100
AcDbLine
 10
43.699999999999996
 20
-1.999999953487124
 30
0.0
 11
43.8
 21
-1.999999953487124
 31
0.0
  0
SPLINE
  5
1B5
330
17
100
AcDbEntity
  8
visible
100
AcDbSpline
 70
0
 71
1
 72
17
 73
15
 74
0
 40
0.0
 40
0.0
 40
0.07142857142857142
 40
0.14285714285714293
 40
0.21428571428571436
 40
0.2857142857142858
 40
0.3571428571428572
 40
0.42857142857142866
 40
0.5000000000000001
 40
0.5714285714285715
 40
0.6428571428571429
 40
0.7142857142857143
 40
0.7857142857142857
 40
0.8571428571428571
 40
0.9285714285714286
 40
1.0
 40
1.0
 10
70.89999999999999
 20
14.00000004774678
 30
0.0
 10
70.89999999999999
 20
13.648990818292312
 30
0.0
 10
70.89999999999999
 20
12.613564198380647
 30
0.0
 10
70.89999999999999
 20
10.945640802299197
 30
0.0
 10
70.89999999999999
 20
8.72885727376905
 30
0.0
 10
70.89999999999999
 20
6.074372395392593
 30
0.0
 10
70.89999999999999
 20
3.11529312313518
 30
0.0
 10
70.89999999999999
 20
4.7746778975010784e-08
 30
0.0
 10
70.89999999999999
 20
-3.1152930276416226
 30
0.0
 10
70.89999999999999
 20
-6.074372299899036
 30
0.0
 10
70.89999999999999
 20
-8.72885717827549
 30
0.0
 10
70.89999999999999
 20
-10.945640706805637
 30
0.0
 10
70.89999999999999
 20
-12.61356410288709
 30
0.0
 10
70.89999999999999
 20
-13.64899072279875
 30
0.0
 10
70.89999999999999
 20
-13.99999995225322
 30
0.0
  0
LINE
  5
1B6
330
17
100
AcDbEntity
  8
visible
100
AcDbLine
 10
-37.8
 20
-19.999999952682405
 30
0.0
 11
-42.2
 21
-19.999999952682405
 31
0.0
  0
LINE
  5
1B7
330
17
100
AcDbEntity
  8
visible
100
AcDbLine
 10
-37.8
 20
-1.9999999536480682
 30
0.0
 11
-42.2
 21
-1.9999999536480682
 31
0.0
  0
SPLINE
  5
1B8
330
17
100
AcDbEntity
  8
visible
100
AcDbSpline
 70
0
 71
1
 72
17
 73
15
 74
0
 40
0.0
 40
0.0
 40
0.1121997376282069
 40
0.2243994752564138
 40
0.3365992128846207
 40
0.4487989505128276
 40
0.5609986881410345
 40
0.6731984257692414
 40
0.7853981633974483
 40
0.8975979010256552
 40
1.009797638653862
 40
1.121997376282069
 40
1.2341971139102759
 40
1.3463968515384828
 40
1.4585965891666897
 40
1.5707963267948966
 40
1.5707963267948966
 10
-37.8
 20
-1.999999953648067
 30
0.0
 10
-37.8
 20
-4.015360523501537
 30
0.0
 10
-37.8
 20
-6.005376764837515
 30
0.0
 10
-37.8
 20
-7.945023068786886
 30
0.0
 10
-37.8
 20
-9.809907257668485
 30
0.0
 10
-37.8
 20
-11.57657733077611
 30
0.0
 10
-37.8
 20
-13.222816386894593
 30
0.0
 10
-37.8
 20
-14.727922014723084
 30
0.0
 10
-37.8
 20
-16.072966637709023
 30
0.0
 10
-37.8
 20
-17.24103553930528
 30
0.0
 10
-37.8
 20
-18.217439575344937
 30
0.0
 10
-37.8
 20
-18.989899898551958
 30
0.0
 10
-37.8
 20
-19.54870237217011
 30
0.0
 10
-37.8
 20
-19.88681973086889
 30
0.0
 10
-37.8
 20
-19.999999952682405
 30
0.0
  0
SPLINE
  5
1B9
330
17
100
AcDbEntity
  8
visible
100
AcDbSpline
 70
0
 71
1
 72
17
 73
15
 74
0
 40
0.0
 40
0.0
 40
0.1121997376282069
 40
0.2243994752564138
 40
0.3365992128846207
 40
0.4487989505128276
 40
0.5609986881410345
 40
0.6731984257692414
 40
0.7853981633974483
 40
0.8975979010256552
 40
1.009797638653862
 40
1.121997376282069
 40
1.2341971139102759
 40
1.3463968515384828
 40
1.4585965891666897
 40
1.5707963267948966
 40
1.5707963267948966
 10
-42.2
 20
-1.999999953648067
 30
0.0
 10
-42.2
 20
-4.015360523501537
 30
0.0
 10
-42.2
 20
-6.005376764837515
 30
0.0
 10
-42.2
 20
-7.945023068786886
 30
0.0
 10
-42.2
 20
-9.809907257668485
 30
0.0
 10
-42.2
 20
-11.57657733077611
 30
0.0
 10
-42.2
 20
-13.222816386894593
 30
0.0
 10
-42.2
 20
-14.727922014723084
 30
0.0
 10
-42.2
 20
-16.072966637709023
 30
0.0
 10
-42.2
 20
-17.24103553930528
 30
0.0
 10
-42.2
 20
-18.217439575344937
 30
0.0
 10
-42.2
 20
-18.989899898551958
 30
0.0
 10
-42.2
 20
-19.54870237217011
 30
0.0
 10
-42.2
 20
-19.88681973086889
 30
0.0
 10
-42.2
 20
-19.999999952682405
 30
0.0
  0
ELLIPSE
  5
1BA
330
17
100
AcDbEntity
  8
visible
100
AcDbEllipse
 10
-37.8
 20
-1.9999999536051496
 30
0.0
 11
0.8
 21
0.0
 31
0.0
 40
1e-10
 41
4.71238898038469
 42
6.283185307179586
  0
ELLIPSE
  5
1BB
330
17
100
AcDbEntity
  8
visible
100
AcDbEllipse
 10
-42.2
 20
-1.9999999536051496
 30
0.0
 11
-0.8
 21
-0.0
 31
0.0
 40
1e-10
 41
-6.283185307179586
 42
-4.71238898038469
  0
LINE
  5
1BC
330
17
100
AcDbEntity
  8
visible
100
AcDbLine
 10
-37.8
 20
2.0000000463519316
 30
0.0
 11
-37.8
 21
-1.9999999536480684
 31
0.0
  0
LINE
  5
1BD
330
17
100
AcDbEntity
  8
visible
100
AcDbLine
 10
-42.2
 20
2.0000000463519316
 30
0.0
 11
-42.2
 21
-1.9999999536480684
 31
0.0
  0
LINE
  5
1BE
330
17
100
AcDbEntity
  8
visible
100
AcDbLine
 10
-37.8
 20
2.0000000463519316
 30
0.0
 11
-42.2
 21
2.0000000463519316
 31
0.0
  0
ELLIPSE
  5
1BF
330
17
100
AcDbEntity
  8
visible
100
AcDbEllipse
 10
-37.8
 20
2.000000046394851
 30
0.0
 11
0.8
 21
0.0
 31
0.0
 40
1e-10
 41
4.71238898038469
 42
6.283185307179586
  0
SPLINE
  5
1C0
330
17
100
AcDbEntity
  8
visible
100
AcDbSpline
 70
0
 71
1
 72
17
 73
15
 74
0
 40
0.0
 40
0.0
 40
0.1121997376282069
 40
0.2243994752564138
 40
0.3365992128846207
 40
0.4487989505128276
 40
0.5609986881410345
 40
0.6731984257692414
 40
0.7853981633974483
 40
0.8975979010256552
 40
1.009797638653862
 40
1.121997376282069
 40
1.2341971139102759
 40
1.3463968515384828
 40
1.4585965891666897
 40
1.5707963267948966
 40
1.5707963267948966
 10
-37.8
 20
20.000000047317595
 30
0.0
 10
-37.8
 20
19.88681982528784
 30
0.0
 10
-37.8
 20
19.54870246637554
 30
0.0
 10
-37.8
 20
18.989899992549272
 30
0.0
 10
-37.8
 20
18.21743966914216
 30
0.0
 10
-37.8
 20
17.241035632912947
 30
0.0
 10
-37.8
 20
16.07296673114005
 30
0.0
 10
-37.8
 20
14.727922107992626
 30
0.0
 10
-37.8
 20
13.222816480019814
 30
0.0
 10
-37.8
 20
11.576577423776005
 30
0.0
 10
-37.8
 20
9.80990735056361
 30
0.0
 10
-37.8
 20
7.9450231615991305
 30
0.0
 10
-37.8
 20
6.005376857589802
 30
0.0
 10
-37.8
 20
4.015360616217546
 30
0.0
 10
-37.8
 20
2.000000046351932
 30
0.0
  0
ELLIPSE
  5
1C1
330
17
100
AcDbEntity
  8
visible
100
AcDbEllipse
 10
-42.2
 20
2.000000046394851
 30
0.0
 11
-0.8
 21
-0.0
 31
0.0
 40
1e-10
 41
-6.283185307179586
 42
-4.71238898038469
  0
SPLINE
  5
1C2
330
17
100
AcDbEntity
  8
visible
100
AcDbSpline
 70
0
 71
1
 72
17
 73
15
 74
0
 40
0.0
 40
0.0
 40
0.1121997376282069
 40
0.2243994752564138
 40
0.3365992128846207
 40
0.4487989505128276
 40
0.5609986881410345
 40
0.6731984257692414
 40
0.7853981633974483
 40
0.8975979010256552
 40
1.009797638653862
 40
1.121997376282069
 40
1.2341971139102759
 40
1.3463968515384828
 40
1.4585965891666897
 40
1.5707963267948966
 40
1.5707963267948966
 10
-42.2
 20
20.000000047317595
 30
0.0
 10
-42.2
 20
19.88681982528784
 30
0.0
 10
-42.2
 20
19.54870246637554
 30
0.0
 10
-42.2
 20
18.989899992549272
 30
0.0
 10
-42.2
 20
18.21743966914216
 30
0.0
 10
-42.2
 20
17.241035632912947
 30
0.0
 10
-42.2
 20
16.07296673114005
 30
0.0
 10
-42.2
 20
14.727922107992626
 30
0.0
 10
-42.2
 20
13.222816480019814
 30
0.0
 10
-42.2
 20
11.576577423776005
 30
0.0
 10
-42.2
 20
9.80990735056361
 30
0.0
 10
-42.2
 20
7.9450231615991305
 30
0.0
 10
-42.2
 20
6.005376857589802
 30
0.0
 10
-42.2
 20
4.015360616217546
 30
0.0
 10
-42.2
 20
2.000000046351932
 30
0.0
  0
LINE
  5
1C3
330
17
100
AcDbEntity
  8
visible
100
AcDbLine
 10
-42.0
 20
20.000000050359443
 30
0.0
 11
-46.0
 21
20.000000050359443
 31
0.0
  0
LINE
  5
1C4
330
17
100
AcDbEntity
  8
visible
100
AcDbLine
 10
-43.8
 20
-19.999999952682405
 30
0.0
 11
-69.2
 21
-19.999999952682405
 31
0.0
  0
LINE
  5
1C5
330
17
100
AcDbEntity
  8
visible
100
AcDbLine
 10
-43.8
 20
-1.9999999536480682
 30
0.0
 11
-69.2
 21
-1.9999999536480682
 31
0.0
  0
SPLINE
  5
1C6
330
17
100
AcDbEntity
  8
visible
100
AcDbSpline
 70
0
 71
1
 72
17
 73
15
 74
0
 40
0.0
 40
0.0
 40
0.1121997376282069
 40
0.2243994752564138
 40
0.3365992128846207
 40
0.4487989505128276
 40
0.5609986881410345
 40
0.6731984257692414
 40
0.7853981633974483
 40
0.8975979010256552
 40
1.009797638653862
 40
1.121997376282069
 40
1.2341971139102759
 40
1.3463968515384828
 40
1.4585965891666897
 40
1.5707963267948966
 40
1.5707963267948966
 10
-43.8
 20
-1.999999953648067
 30
0.0
 10
-43.8
 20
-4.015360523501537
 30
0.0
 10
-43.8
 20
-6.005376764837515
 30
0.0
 10
-43.8
 20
-7.945023068786886
 30
0.0
 10
-43.8
 20
-9.809907257668485
 30
0.0
 10
-43.8
 20
-11.57657733077611
 30
0.0
 10
-43.8
 20
-13.222816386894593
 30
0.0
 10
-43.8
 20
-14.727922014723084
 30
0.0
 10
-43.8
 20
-16.072966637709023
 30
0.0
 10
-43.8
 20
-17.24103553930528
 30
0.0
 10
-43.8
 20
-18.217439575344937
 30
0.0
 10
-43.8
 20
-18.989899898551958
 30
0.0
 10
-43.8
 20
-19.54870237217011
 30
0.0
 10
-43.8
 20
-19.88681973086889
 30
0.0
 10
-43.8
 20
-19.999999952682405
 30
0.0
  0
SPLINE
  5
1C7
330
17
100
AcDbEntity
  8
visible
100
AcDbSpline
 70
0
 71
1
 72
17
 73
15
 74
0
 40
0.0
 40
0.0
 40
0.1121997376282069
 40
0.2243994752564138
 40
0.3365992128846207
 40
0.4487989505128276
 40
0.5609986881410345
 40
0.6731984257692414
 40
0.7853981633974483
 40
0.8975979010256552
 40
1.009797638653862
 40
1.121997376282069
 40
1.2341971139102759
 40
1.3463968515384828
 40
1.4585965891666897
 40
1.5707963267948966
 40
1.5707963267948966
 10
-69.2
 20
-1.999999953648067
 30
0.0
 10
-69.2
 20
-4.015360523501537
 30
0.0
 10
-69.2
 20
-6.005376764837515
 30
0.0
 10
-69.2
 20
-7.945023068786886
 30
0.0
 10
-69.2
 20
-9.809907257668485
 30
0.0
 10
-69.2
 20
-11.57657733077611
 30
0.0
 10
-69.2
 20
-13.222816386894593
 30
0.0
 10
-69.2
 20
-14.727922014723084
 30
0.0
 10
-69.2
 20
-16.072966637709023
 30
0.0
 10
-69.2
 20
-17.24103553930528
 30
0.0
 10
-69.2
 20
-18.217439575344937
 30
0.0
 10
-69.2
 20
-18.989899898551958
 30
0.0
 10
-69.2
 20
-19.54870237217011
 30
0.0
 10
-69.2
 20
-19.88681973086889
 30
0.0
 10
-69.2
 20
-19.999999952682405
 30
0.0
  0
ELLIPSE
  5
1C8
330
17
100
AcDbEntity
  8
visible
100
AcDbEllipse
 10
-43.8
 20
-1.9999999536051496
 30
0.0
 11
0.8
 21
0.0
 31
0.0
 40
1e-10
 41
4.71238898038469
 42
6.283185307179586
  0
ELLIPSE
  5
1C9
330
17
100
AcDbEntity
  8
visible
100
AcDbEllipse
 10
-69.2
 20
-1.9999999536051496
 30
0.0
 11
-0.8
 21
-0.0
 31
0.0
 40
1e-10
 41
-6.283185307179586
 42
-4.71238898038469
  0
LINE
  5
1CA
330
17
100
AcDbEntity
  8
visible
100
AcDbLine
 10
-43.8
 20
2.0000000463519316
 30
0.0
 11
-43.8
 21
-1.9999999536480684
 31
0.0
  0
LINE
  5
1CB
330
17
100
AcDbEntity
  8
visible
100
AcDbLine
 10
-69.2
 20
2.0000000463519316
 30
0.0
 11
-69.2
 21
-1.9999999536480684
 31
0.0
  0
LINE
  5
1CC
330
17
100
AcDbEntity
  8
visible
100
AcDbLine
 10
-43.8
 20
2.0000000463519316
 30
0.0
 11
-69.2
 21
2.0000000463519316
 31
0.0
  0
ELLIPSE
  5
1CD
330
17
100
AcDbEntity
  8
visible
100
AcDbEllipse
 10
-43.8
 20
2.000000046394851
 30
0.0
 11
0.8
 21
0.0
 31
0.0
 40
1e-10
 41
4.71238898038469
 42
6.283185307179586
  0
SPLINE
  5
1CE
330
17
100
AcDbEntity
  8
visible
100
AcDbSpline
 70
0
 71
1
 72
17
 73
15
 74
0
 40
0.0
 40
0.0
 40
0.1121997376282069
 40
0.2243994752564138
 40
0.3365992128846207
 40
0.4487989505128276
 40
0.5609986881410345
 40
0.6731984257692414
 40
0.7853981633974483
 40
0.8975979010256552
 40
1.009797638653862
 40
1.121997376282069
 40
1.2341971139102759
 40
1.3463968515384828
 40
1.4585965891666897
 40
1.5707963267948966
 40
1.5707963267948966
 10
-43.8
 20
20.000000047317595
 30
0.0
 10
-43.8
 20
19.88681982528784
 30
0.0
 10
-43.8
 20
19.54870246637554
 30
0.0
 10
-43.8
 20
18.989899992549272
 30
0.0
 10
-43.8
 20
18.21743966914216
 30
0.0
 10
-43.8
 20
17.241035632912947
 30
0.0
 10
-43.8
 20
16.07296673114005
 30
0.0
 10
-43.8
 20
14.727922107992626
 30
0.0
 10
-43.8
 20
13.222816480019814
 30
0.0
 10
-43.8
 20
11.576577423776005
 30
0.0
 10
-43.8
 20
9.80990735056361
 30
0.0
 10
-43.8
 20
7.9450231615991305
 30
0.0
 10
-43.8
 20
6.005376857589802
 30
0.0
 10
-43.8
 20
4.015360616217546
 30
0.0
 10
-43.8
 20
2.000000046351932
 30
0.0
  0
ELLIPSE
  5
1CF
330
17
100
AcDbEntity
  8
visible
100
AcDbEllipse
 10
-69.2
 20
2.000000046394851
 30
0.0
 11
-0.8
 21
-0.0
 31
0.0
 40
1e-10
 41
-6.283185307179586
 42
-4.71238898038469
  0
SPLINE
  5
1D0
330
17
100
AcDbEntity
  8
visible
100
AcDbSpline
 70
0
 71
1
 72
17
 73
15
 74
0
 40
0.0
 40
0.0
 40
0.1121997376282069
 40
0.2243994752564138
 40
0.3365992128846207
 40
0.4487989505128276
 40
0.5609986881410345
 40
0.6731984257692414
 40
0.7853981633974483
 40
0.8975979010256552
 40
1.009797638653862
 40
1.121997376282069
 40
1.2341971139102759
 40
1.3463968515384828
 40
1.4585965891666897
 40
1.5707963267948966
 40
1.5707963267948966
 10
-69.2
 20
20.000000047317595
 30
0.0
 10
-69.2
 20
19.88681982528784
 30
0.0
 10
-69.2
 20
19.54870246637554
 30
0.0
 10
-69.2
 20
18.989899992549272
 30
0.0
 10
-69.2
 20
18.21743966914216
 30
0.0
 10
-69.2
 20
17.241035632912947
 30
0.0
 10
-69.2
 20
16.07296673114005
 30
0.0
 10
-69.2
 20
14.727922107992626
 30
0.0
 10
-69.2
 20
13.222816480019814
 30
0.0
 10
-69.2
 20
11.576577423776005
 30
0.0
 10
-69.2
 20
9.80990735056361
 30
0.0
 10
-69.2
 20
7.9450231615991305
 30
0.0
 10
-69.2
 20
6.005376857589802
 30
0.0
 10
-69.2
 20
4.015360616217546
 30
0.0
 10
-69.2
 20
2.000000046351932
 30
0.0
  0
ELLIPSE
  5
1D1
330
17
100
AcDbEntity
  8
visible
100
AcDbEllipse
 10
-66.10000000000001
 20
-1.9999999498015024
 30
0.0
 11
0.8
 21
0.0
 31
0.0
 40
1e-10
 41
1.5707963267948966
 42
3.141592653589793
  0
ELLIPSE
  5
1D2
330
17
100
AcDbEntity
  8
visible
100
AcDbEllipse
 10
-66.10000000000001
 20
2.0000000501984947
 30
0.0
 11
0.8
 21
0.0
 31
0.0
 40
1e-10
 41
1.5707963267948966
 42
3.141592653589793
  0
LINE
  5
1D3
330
17
100
AcDbEntity
  8
visible
100
AcDbLine
 10
-43.699999999999996
 20
-1.999999953487124
 30
0.0
 11
-43.8
 21
-1.999999953487124
 31
0.0
  0
SPLINE
  5
1D4
330
17
100
AcDbEntity
  8
visible
100
AcDbSpline
 70
0
 71
1
 72
17
 73
15
 74
0
 40
0.0
 40
0.0
 40
0.07142857142857142
 40
0.14285714285714293
 40
0.21428571428571436
 40
0.2857142857142858
 40
0.3571428571428572
 40
0.42857142857142866
 40
0.5000000000000001
 40
0.5714285714285715
 40
0.6428571428571429
 40
0.7142857142857143
 40
0.7857142857142857
 40
0.8571428571428571
 40
0.9285714285714286
 40
1.0
 40
1.0
 10
-70.89999999999999
 20
14.00000004774678
 30
0.0
 10
-70.89999999999999
 20
13.648990818292312
 30
0.0
 10
-70.89999999999999
 20
12.613564198380647
 30
0.0
 10
-70.89999999999999
 20
10.945640802299197
 30
0.0
 10
-70.89999999999999
 20
8.72885727376905
 30
0.0
 10
-70.89999999999999
 20
6.074372395392593
 30
0.0
 10
-70.89999999999999
 20
3.11529312313518
 30
0.0
 10
-70.89999999999999
 20
4.7746778975010784e-08
 30
0.0
 10
-70.89999999999999
 20
-3.1152930276416226
 30
0.0
 10
-70.89999999999999
 20
-6.074372299899036
 30
0.0
 10
-70.89999999999999
 20
-8.72885717827549
 30
0.0
 10
-70.89999999999999
 20
-10.945640706805637
 30
0.0
 10
-70.89999999999999
 20
-12.61356410288709
 30
0.0
 10
-70.89999999999999
 20
-13.64899072279875
 30
0.0
 10
-70.89999999999999
 20
-13.99999995225322
 30
0.0
  0
SPLINE
  5
1D5
330
17
100
AcDbEntity
  8
visible
100
AcDbSpline
 70
0
 71
3
 72
26
 73
22
 74
0
 40
0.0
 40
0.0
 40
0.0
 40
0.0
 40
0.1121997376282069
 40
0.1121997376282069
 40
0.1121997376282069
 40
0.2243994752564138
 40
0.2243994752564138
 40
0.2243994752564138
 40
0.3365992128846207
 40
0.3365992128846207
 40
0.3365992128846207
 40
0.4487989505128276
 40
0.4487989505128276
 40
0.4487989505128276
 40
0.5609986881410345
 40
0.5609986881410345
 40
0.5609986881410345
 40
0.7853981633974483
 40
0.7853981633974483
 40
0.7853981633974483
 40
1.5707963267948966
 40
1.5707963267948966
 40
1.5707963267948966
 40
1.5707963267948966
 10
-28.5
 20
-29.49999995049356
 30
0.0
 10
-28.499999999999993
 20
-29.498323206466686
 30
0.0
 10
-28.49999999999999
 20
-29.496646462439827
 30
0.0
 10
-28.5
 20
-29.49496971841296
 30
0.0
 10
-28.50000000000001
 20
-29.48996057235816
 30
0.0
 10
-28.499999999999986
 20
-29.484951426303372
 30
0.0
 10
-28.5
 20
-29.479942280248572
 30
0.0
 10
-28.500000000000007
 20
-29.471663725083864
 30
0.0
 10
-28.499999999999993
 20
-29.46338516991914
 30
0.0
 10
-28.5
 20
-29.455106614754428
 30
0.0
 10
-28.500000000000007
 20
-29.443662758114318
 30
0.0
 10
-28.499999999999993
 20
-29.43221890147423
 30
0.0
 10
-28.5
 20
-29.42077504483412
 30
0.0
 10
-28.500000000000007
 20
-29.406309799855745
 30
0.0
 10
-28.499999999999993
 20
-29.39184455487739
 30
0.0
 10
-28.5
 20
-29.377379309899023
 30
0.0
 10
-28.500000000000007
 20
-29.344240299909618
 30
0.0
 10
-28.499999999999993
 20
-29.307008988434347
 30
0.0
 10
-28.5
 20
-29.265685375473147
 30
0.0
 10
-28.500000000000007
 20
-29.116753552458103
 30
0.0
 10
-28.499999999999996
 20
-28.90992767767756
 30
0.0
 10
-28.5
 20
-28.69999995053648
 30
0.0
  0
LINE
  5
1D6
330
17
100
AcDbEntity
  8
visible
100
AcDbLine
 10
28.5
 20
-29.49999995049356
 30
0.0
 11
-28.5
 21
-29.49999995049356
 31
0.0
  0
SPLINE
  5
1D7
330
17
100
AcDbEntity
  8
visible
100
AcDbSpline
 70
0
 71
3
 72
26
 73
22
 74
0
 40
0.0
 40
0.0
 40
0.0
 40
0.0
 40
0.1121997376282069
 40
0.1121997376282069
 40
0.1121997376282069
 40
0.2243994752564138
 40
0.2243994752564138
 40
0.2243994752564138
 40
0.3365992128846207
 40
0.3365992128846207
 40
0.3365992128846207
 40
0.4487989505128276
 40
0.4487989505128276
 40
0.4487989505128276
 40
0.5609986881410345
 40
0.5609986881410345
 40
0.5609986881410345
 40
0.7853981633974483
 40
0.7853981633974483
 40
0.7853981633974483
 40
1.5707963267948966
 40
1.5707963267948966
 40
1.5707963267948966
 40
1.5707963267948966
 10
-28.5
 20
29.50000004950644
 30
0.0
 10
-28.499999999999993
 20
29.498323305476355
 30
0.0
 10
-28.49999999999999
 20
29.496646561446298
 30
0.0
 10
-28.5
 20
29.494969817416226
 30
0.0
 10
-28.50000000000001
 20
29.489960671358258
 30
0.0
 10
-28.499999999999986
 20
29.48495152530031
 30
0.0
 10
-28.5
 20
29.479942379242345
 30
0.0
 10
-28.500000000000007
 20
29.471663824074543
 30
0.0
 10
-28.499999999999993
 20
29.46338526890675
 30
0.0
 10
-28.5
 20
29.455106713738957
 30
0.0
 10
-28.500000000000007
 20
29.443662857095877
 30
0.0
 10
-28.499999999999993
 20
29.432219000452825
 30
0.0
 10
-28.5
 20
29.420775143809752
 30
0.0
 10
-28.500000000000007
 20
29.406309898828567
 30
0.0
 10
-28.499999999999993
 20
29.391844653847407
 30
0.0
 10
-28.5
 20
29.37737940886623
 30
0.0
 10
-28.500000000000007
 20
29.344240398871467
 30
0.0
 10
-28.499999999999993
 20
29.307009087391172
 30
0.0
 10
-28.5
 20
29.265685474425325
 30
0.0
 10
-28.500000000000007
 20
29.116753651394422
 30
0.0
 10
-28.499999999999996
 20
28.90992777660468
 30
0.0
 10
-28.5
 20
28.70000004946352
 30
0.0
  0
LINE
  5
1D8
330
17
100
AcDbEntity
  8
visible
100
AcDbLine
 10
-28.5
 20
29.500000049688843
 30
0.0
 11
28.5
 21
29.500000049688843
 31
0.0
  0
LINE
  5
1D9
330
17
100
AcDbEntity
  8
visible
100
AcDbLine
 10
-28.5
 20
29.50000004950644
 30
0.0
 11
28.5
 21
29.50000004950644
 31
0.0
  0
LINE
  5
1DA
330
17
100
AcDbEntity
  8
visible
100
AcDbLine
 10
-31.5
 20
6.5000000475858375
 30
0.0
 11
-36.6
 21
6.5000000475858375
 31
0.0
  0
SPLINE
  5
1DB
330
17
100
AcDbEntity
  8
visible
100
AcDbSpline
 70
0
 71
3
 72
11
 73
7
 74
0
 40
0.0
 40
0.0
 40
0.0
 40
0.0
 40
0.7853981633974483
 40
0.7853981633974483
 40
0.7853981633974483
 40
1.5707963267948966
 40
1.5707963267948966
 40
1.5707963267948966
 40
1.5707963267948966
 10
-31.5
 20
7.000000047612661
 30
0.0
 10
-31.499999999999986
 20
6.999566499576293
 30
0.0
 10
-31.5
 20
6.946022698078305
 30
0.0
 10
-31.5
 20
6.853553438186967
 30
0.0
 10
-31.5
 20
6.760471048792647
 30
0.0
 10
-31.50000000000001
 20
6.6312048770490595
 30
0.0
 10
-31.5
 20
6.5000000475858375
 30
0.0
  0
SPLINE
  5
1DC
330
17
100
AcDbEntity
  8
visible
100
AcDbSpline
 70
0
 71
3
 72
11
 73
7
 74
0
 40
0.0
 40
0.0
 40
0.0
 40
0.0
 40
0.7853981633974483
 40
0.7853981633974483
 40
0.7853981633974483
 40
1.5707963267948966
 40
1.5707963267948966
 40
1.5707963267948966
 40
1.5707963267948966
 10
-31.5
 20
-6.999999952387339
 30
0.0
 10
-31.499999999999986
 20
-6.999566404365045
 30
0.0
 10
-31.5
 20
-6.946022602880932
 30
0.0
 10
-31.5
 20
-6.8535533429995805
 30
0.0
 10
-31.5
 20
-6.760470953615182
 30
0.0
 10
-31.50000000000001
 20
-6.631204781877336
 30
0.0
 10
-31.5
 20
-6.4999999524141625
 30
0.0
  0
LINE
  5
1DD
330
17
100
AcDbEntity
  8
visible
100
AcDbLine
 10
-36.6
 20
-6.4999999524141625
 30
0.0
 11
-31.5
 21
-6.4999999524141625
 31
0.0
  0
SPLINE
  5
1DE
330
17
100
AcDbEntity
  8
visible
100
AcDbSpline
 70
0
 71
3
 72
26
 73
22
 74
0
 40
0.0
 40
0.0
 40
0.0
 40
0.0
 40
0.1121997376282069
 40
0.1121997376282069
 40
0.1121997376282069
 40
0.2243994752564138
 40
0.2243994752564138
 40
0.2243994752564138
 40
0.3365992128846207
 40
0.3365992128846207
 40
0.3365992128846207
 40
0.4487989505128276
 40
0.4487989505128276
 40
0.4487989505128276
 40
0.5609986881410345
 40
0.5609986881410345
 40
0.5609986881410345
 40
0.7853981633974483
 40
0.7853981633974483
 40
0.7853981633974483
 40
1.5707963267948966
 40
1.5707963267948966
 40
1.5707963267948966
 40
1.5707963267948966
 10
28.5
 20
-29.49999995049356
 30
0.0
 10
28.499999999999993
 20
-29.498323206466686
 30
0.0
 10
28.49999999999999
 20
-29.496646462439827
 30
0.0
 10
28.5
 20
-29.49496971841296
 30
0.0
 10
28.50000000000001
 20
-29.48996057235816
 30
0.0
 10
28.499999999999986
 20
-29.484951426303372
 30
0.0
 10
28.5
 20
-29.479942280248572
 30
0.0
 10
28.500000000000007
 20
-29.471663725083864
 30
0.0
 10
28.499999999999993
 20
-29.46338516991914
 30
0.0
 10
28.5
 20
-29.455106614754428
 30
0.0
 10
28.500000000000007
 20
-29.443662758114318
 30
0.0
 10
28.499999999999993
 20
-29.43221890147423
 30
0.0
 10
28.5
 20
-29.42077504483412
 30
0.0
 10
28.500000000000007
 20
-29.406309799855745
 30
0.0
 10
28.499999999999993
 20
-29.39184455487739
 30
0.0
 10
28.5
 20
-29.377379309899023
 30
0.0
 10
28.500000000000007
 20
-29.344240299909618
 30
0.0
 10
28.499999999999993
 20
-29.307008988434347
 30
0.0
 10
28.5
 20
-29.265685375473147
 30
0.0
 10
28.500000000000007
 20
-29.116753552458103
 30
0.0
 10
28.499999999999996
 20
-28.90992767767756
 30
0.0
 10
28.5
 20
-28.69999995053648
 30
0.0
  0
SPLINE
  5
1DF
330
17
100
AcDbEntity
  8
visible
100
AcDbSpline
 70
0
 71
3
 72
26
 73
22
 74
0
 40
0.0
 40
0.0
 40
0.0
 40
0.0
 40
0.1121997376282069
 40
0.1121997376282069
 40
0.1121997376282069
 40
0.2243994752564138
 40
0.2243994752564138
 40
0.2243994752564138
 40
0.3365992128846207
 40
0.3365992128846207
 40
0.3365992128846207
 40
0.4487989505128276
 40
0.4487989505128276
 40
0.4487989505128276
 40
0.5609986881410345
 40
0.5609986881410345
 40
0.5609986881410345
 40
0.7853981633974483
 40
0.7853981633974483
 40
0.7853981633974483
 40
1.5707963267948966
 40
1.5707963267948966
 40
1.5707963267948966
 40
1.5707963267948966
 10
28.5
 20
29.50000004950644
 30
0.0
 10
28.499999999999993
 20
29.498323305476355
 30
0.0
 10
28.49999999999999
 20
29.496646561446298
 30
0.0
 10
28.5
 20
29.494969817416226
 30
0.0
 10
28.50000000000001
 20
29.489960671358258
 30
0.0
 10
28.499999999999986
 20
29.48495152530031
 30
0.0
 10
28.5
 20
29.479942379242345
 30
0.0
 10
28.500000000000007
 20
29.471663824074543
 30
0.0
 10
28.499999999999993
 20
29.46338526890675
 30
0.0
 10
28.5
 20
29.455106713738957
 30
0.0
 10
28.500000000000007
 20
29.443662857095877
 30
0.0
 10
28.499999999999993
 20
29.432219000452825
 30
0.0
 10
28.5
 20
29.420775143809752
 30
0.0
 10
28.500000000000007
 20
29.406309898828567
 30
0.0
 10
28.499999999999993
 20
29.391844653847407
 30
0.0
 10
28.5
 20
29.37737940886623
 30
0.0
 10
28.500000000000007
 20
29.344240398871467
 30
0.0
 10
28.499999999999993
 20
29.307009087391172
 30
0.0
 10
28.5
 20
29.265685474425325
 30
0.0
 10
28.500000000000007
 20
29.116753651394422
 30
0.0
 10
28.499999999999996
 20
28.90992777660468
 30
0.0
 10
28.5
 20
28.70000004946352
 30
0.0
  0
ELLIPSE
  5
1E0
330
17
100
AcDbEntity
  8
visible
100
AcDbEllipse
 10
30.7
 20
26.50000004950644
 30
0.0
 11
-0.8
 21
-4.898587196589413e-17
 31
0.0
 40
1e-10
 41
-4.71238898038469
 42
-3.141592653589793
  0
LINE
  5
1E1
330
17
100
AcDbEntity
  8
visible
100
AcDbLine
 10
-31.0
 20
-5.9999999524141625
 30
0.0
 11
-31.0
 21
-3.103847529707547
 31
0.0
  0
LINE
  5
1E2
330
17
100
AcDbEntity
  8
visible
100
AcDbLine
 10
-31.0
 20
3.10384762487919
 30
0.0
 11
-31.0
 21
6.0000000475858375
 31
0.0
  0
ELLIPSE
  5
1E3
330
17
100
AcDbEntity
  8
visible
100
AcDbEllipse
 10
-31.5
 20
6.0000000475858375
 30
0.0
 11
-0.5
 21
-0.0
 31
0.0
 40
1.0
 41
3.141592653589793
 42
4.71238898038469
  0
ELLIPSE
  5
1E4
330
17
100
AcDbEntity
  8
visible
100
AcDbEllipse
 10
-31.5
 20
-5.9999999524141625
 30
0.0
 11
-0.5
 21
-0.0
 31
0.0
 40
1.0
 41
1.5707963267948966
 42
3.141592653589793
  0
ELLIPSE
  5
1E5
330
17
100
AcDbEntity
  8
visible
100
AcDbEllipse
 10
-31.0
 20
6.000000047612661
 30
0.0
 11
-0.5
 21
-0.0
 31
0.0
 40
1e-10
 41
-4.71238898038469
 42
-3.141592653589793
  0
ELLIPSE
  5
1E6
330
17
100
AcDbEntity
  8
visible
100
AcDbEllipse
 10
30.7
 20
-26.49999995049356
 30
0.0
 11
-0.8
 21
-0.0
 31
0.0
 40
1e-10
 41
-4.71238898038469
 42
-3.141592653589793
  0
ELLIPSE
  5
1E7
330
17
100
AcDbEntity
  8
visible
100
AcDbEllipse
 10
-31.0
 20
-5.999999952387339
 30
0.0
 11
-0.5
 21
-0.0
 31
0.0
 40
1e-10
 41
-4.71238898038469
 42
-3.141592653589793
  0
LINE
  5
1E8
330
17
100
AcDbEntity
  8
visible
100
AcDbLine
 10
31.5
 20
6.5000000475858375
 30
0.0
 11
36.6
 21
6.5000000475858375
 31
0.0
  0
SPLINE
  5
1E9
330
17
100
AcDbEntity
  8
visible
100
AcDbSpline
 70
0
 71
3
 72
11
 73
7
 74
0
 40
0.0
 40
0.0
 40
0.0
 40
0.0
 40
0.7853981633974483
 40
0.7853981633974483
 40
0.7853981633974483
 40
1.5707963267948966
 40
1.5707963267948966
 40
1.5707963267948966
 40
1.5707963267948966
 10
31.5
 20
7.000000047612661
 30
0.0
 10
31.499999999999986
 20
6.999566499576293
 30
0.0
 10
31.5
 20
6.946022698078305
 30
0.0
 10
31.5
 20
6.853553438186967
 30
0.0
 10
31.5
 20
6.760471048792647
 30
0.0
 10
31.50000000000001
 20
6.6312048770490595
 30
0.0
 10
31.5
 20
6.5000000475858375
 30
0.0
  0
SPLINE
  5
1EA
330
17
100
AcDbEntity
  8
visible
100
AcDbSpline
 70
0
 71
3
 72
11
 73
7
 74
0
 40
0.0
 40
0.0
 40
0.0
 40
0.0
 40
0.7853981633974483
 40
0.7853981633974483
 40
0.7853981633974483
 40
1.5707963267948966
 40
1.5707963267948966
 40
1.5707963267948966
 40
1.5707963267948966
 10
31.5
 20
-6.999999952387339
 30
0.0
 10
31.499999999999986
 20
-6.999566404365045
 30
0.0
 10
31.5
 20
-6.946022602880932
 30
0.0
 10
31.5
 20
-6.8535533429995805
 30
0.0
 10
31.5
 20
-6.760470953615182
 30
0.0
 10
31.50000000000001
 20
-6.631204781877336
 30
0.0
 10
31.5
 20
-6.4999999524141625
 30
0.0
  0
LINE
  5
1EB
330
17
100
AcDbEntity
  8
visible
100
AcDbLine
 10
36.6
 20
-6.4999999524141625
 30
0.0
 11
31.5
 21
-6.4999999524141625
 31
0.0
  0
LINE
  5
1EC
330
17
100
AcDbEntity
  8
visible
100
AcDbLine
 10
31.0
 20
-5.9999999524141625
 30
0.0
 11
31.0
 21
6.0000000475858375
 31
0.0
  0
ELLIPSE
  5
1ED
330
17
100
AcDbEntity
  8
visible
100
AcDbEllipse
 10
31.5
 20
6.0000000475858375
 30
0.0
 11
0.5
 21
0.0
 31
0.0
 40
1.0
 41
-4.71238898038469
 42
-3.141592653589793
  0
ELLIPSE
  5
1EE
330
17
100
AcDbEntity
  8
visible
100
AcDbEllipse
 10
31.5
 20
-5.9999999524141625
 30
0.0
 11
0.5
 21
0.0
 31
0.0
 40
1.0
 41
-3.141592653589793
 42
-1.5707963267948966
  0
ELLIPSE
  5
1EF
330
17
100
AcDbEntity
  8
visible
100
AcDbEllipse
 10
31.0
 20
6.000000047612661
 30
0.0
 11
0.5
 21
0.0
 31
0.0
 40
1e-10
 41
3.141592653589793
 42
4.71238898038469
  0
ELLIPSE
  5
1F0
330
17
100
AcDbEntity
  8
visible
100
AcDbEllipse
 10
-35.599999999999994
 20
4.2000000471512875
 30
0.0
 11
0.4
 21
-2.4492935982947065e-17
 31
0.0
 40
1e-10
 41
3.141592653589793
 42
4.71238898038469
  0
LINE
  5
1F1
330
17
100
AcDbEntity
  8
visible
100
AcDbLine
 10
-35.599999999999994
 20
4.200000047129828
 30
0.0
 11
-35.599999999999994
 21
-4.19999995287017
 31
0.0
  0
ELLIPSE
  5
1F2
330
17
100
AcDbEntity
  8
visible
100
AcDbEllipse
 10
-35.599999999999994
 20
-4.199999952848711
 30
0.0
 11
0.4
 21
0.0
 31
0.0
 40
1e-10
 41
3.141592653589793
 42
4.71238898038469
  0
ELLIPSE
  5
1F3
330
17
100
AcDbEntity
  8
visible
100
AcDbEllipse
 10
31.0
 20
-5.999999952387339
 30
0.0
 11
0.5
 21
0.0
 31
0.0
 40
1e-10
 41
3.141592653589793
 42
4.71238898038469
  0
LINE
  5
1F4
330
17
100
AcDbEntity
  8
visible
100
AcDbLine
 10
35.6
 20
4.200000047129828
 30
0.0
 11
35.6
 21
3.700000047129829
 31
0.0
  0
ELLIPSE
  5
1F5
330
17
100
AcDbEntity
  8
visible
100
AcDbEllipse
 10
35.6
 20
4.2000000471512875
 30
0.0
 11
-0.4
 21
-2.4492935982947065e-17
 31
0.0
 40
1e-10
 41
-4.71238898038469
 42
-3.141592653589793
  0
LINE
  5
1F6
330
17
100
AcDbEntity
  8
visible
100
AcDbLine
 10
32.4
 20
-4.199999952870171
 30
0.0
 11
32.4
 21
4.200000047129827
 31
0.0
  0
ELLIPSE
  5
1F7
330
17
100
AcDbEntity
  8
visible
100
AcDbEllipse
 10
32.8
 20
4.200000047129828
 30
0.0
 11
0.4
 21
0.0
 31
0.0
 40
1.0
 41
-4.712388980384691
 42
-3.141592653589794
  0
LINE
  5
1F8
330
17
100
AcDbEntity
  8
visible
100
AcDbLine
 10
32.8
 20
4.600000047129829
 30
0.0
 11
35.199999999999996
 21
4.600000047129829
 31
0.0
  0
ELLIPSE
  5
1F9
330
17
100
AcDbEntity
  8
visible
100
AcDbEllipse
 10
35.2
 20
4.200000047129828
 30
0.0
 11
0.4
 21
0.0
 31
0.0
 40
1.0
 41
-6.283185307179586
 42
-4.71238898038469
  0
LINE
  5
1FA
330
17
100
AcDbEntity
  8
visible
100
AcDbLine
 10
35.6
 20
-3.6999999528701712
 30
0.0
 11
35.6
 21
-4.19999995287017
 31
0.0
  0
ELLIPSE
  5
1FB
330
17
100
AcDbEntity
  8
visible
100
AcDbEllipse
 10
35.2
 20
-4.199999952870171
 30
0.0
 11
0.4
 21
0.0
 31
0.0
 40
1.0
 41
-1.5707963267948966
 42
-0.0
  0
LINE
  5
1FC
330
17
100
AcDbEntity
  8
visible
100
AcDbLine
 10
35.2
 20
-4.599999952870171
 30
0.0
 11
32.800000000000004
 21
-4.599999952870171
 31
0.0
  0
ELLIPSE
  5
1FD
330
17
100
AcDbEntity
  8
visible
100
AcDbEllipse
 10
32.8
 20
-4.199999952870171
 30
0.0
 11
0.4
 21
0.0
 31
0.0
 40
1.0
 41
-3.141592653589793
 42
-1.5707963267948968
  0
LINE
  5
1FE
330
17
100
AcDbEntity
  8
visible
100
AcDbLine
 10
-32.8
 20
5.000000047151288
 30
0.0
 11
-35.199999999999996
 21
5.000000047151288
 31
0.0
  0
LINE
  5
1FF
330
17
100
AcDbEntity
  8
visible
100
AcDbLine
 10
-35.2
 20
-4.999999952848712
 30
0.0
 11
-32.800000000000004
 21
-4.999999952848712
 31
0.0
  0
ELLIPSE
  5
200
330
17
100
AcDbEntity
  8
visible
100
AcDbEllipse
 10
-35.2
 20
-4.199999952870171
 30
0.0
 11
-0.4
 21
0.0
 31
0.0
 40
1.0
 41
0.0
 42
1.5707963267948966
  0
SPLINE
  5
201
330
17
100
AcDbEntity
  8
visible
100
AcDbSpline
 70
0
 71
3
 72
11
 73
7
 74
0
 40
0.0
 40
0.0
 40
0.0
 40
0.0
 40
0.7853981633974483
 40
0.7853981633974483
 40
0.7853981633974483
 40
1.5707963267948966
 40
1.5707963267948966
 40
1.5707963267948966
 40
1.5707963267948966
 10
-35.2
 20
-4.999999952848713
 30
0.0
 10
-35.19999999999999
 20
-4.999653114430883
 30
0.0
 10
-35.2
 20
-4.956818073243581
 30
0.0
 10
-35.2
 20
-4.882842665338507
 30
0.0
 10
-35.199999999999996
 20
-4.808376753830986
 30
0.0
 10
-35.20000000000001
 20
-4.704963816440712
 30
0.0
 10
-35.2
 20
-4.5999999528701725
 30
0.0
  0
SPLINE
  5
202
330
17
100
AcDbEntity
  8
visible
100
AcDbSpline
 70
0
 71
3
 72
11
 73
7
 74
0
 40
0.0
 40
0.0
 40
0.0
 40
0.0
 40
0.7853981633974483
 40
0.7853981633974483
 40
0.7853981633974483
 40
1.5707963267948966
 40
1.5707963267948966
 40
1.5707963267948966
 40
1.5707963267948966
 10
-35.2
 20
5.000000047151288
 30
0.0
 10
-35.19999999999999
 20
4.999653208722192
 30
0.0
 10
-35.2
 20
4.956818167523805
 30
0.0
 10
-35.2
 20
4.882842759610732
 30
0.0
 10
-35.199999999999996
 20
4.808376848095277
 30
0.0
 10
-35.20000000000001
 20
4.704963910700406
 30
0.0
 10
-35.2
 20
4.600000047129828
 30
0.0
  0
ELLIPSE
  5
203
330
17
100
AcDbEntity
  8
visible
100
AcDbEllipse
 10
-35.2
 20
4.200000047129828
 30
0.0
 11
-0.4
 21
0.0
 31
0.0
 40
1.0
 41
4.71238898038469
 42
6.283185307179586
  0
LINE
  5
204
330
17
100
AcDbEntity
  8
visible
100
AcDbLine
 10
-32.400000000000006
 20
-4.199999952870171
 30
0.0
 11
-32.400000000000006
 21
4.200000047129827
 31
0.0
  0
ELLIPSE
  5
205
330
17
100
AcDbEntity
  8
visible
100
AcDbEllipse
 10
-32.8
 20
-4.199999952870171
 30
0.0
 11
-0.4
 21
-0.0
 31
0.0
 40
1.0
 41
1.5707963267948968
 42
3.141592653589793
  0
ELLIPSE
  5
206
330
17
100
AcDbEntity
  8
visible
100
AcDbEllipse
 10
-32.8
 20
4.200000047129828
 30
0.0
 11
-0.4
 21
-0.0
 31
0.0
 40
1.0
 41
3.141592653589794
 42
4.712388980384691
  0
LINE
  5
207
330
17
100
AcDbEntity
  8
visible
100
AcDbLine
 10
-35.2
 20
-4.599999952870171
 30
0.0
 11
-32.800000000000004
 21
-4.599999952870171
 31
0.0
  0
LINE
  5
208
330
17
100
AcDbEntity
  8
visible
100
AcDbLine
 10
-32.8
 20
4.600000047129829
 30
0.0
 11
-35.199999999999996
 21
4.600000047129829
 31
0.0
  0
ELLIPSE
  5
209
330
17
100
AcDbEntity
  8
visible
100
AcDbEllipse
 10
35.6
 20
-4.199999952848711
 30
0.0
 11
-0.4
 21
-0.0
 31
0.0
 40
1e-10
 41
-4.71238898038469
 42
-3.141592653589793
  0
SPLINE
  5
20A
330
17
100
AcDbEntity
  8
visible
100
AcDbSpline
 70
0
 71
3
 72
11
 73
7
 74
0
 40
0.0
 40
0.0
 40
0.0
 40
0.0
 40
0.7853981633974483
 40
0.7853981633974483
 40
0.7853981633974483
 40
1.5707963267948966
 40
1.5707963267948966
 40
1.5707963267948966
 40
1.5707963267948966
 10
35.2
 20
5.000000047151288
 30
0.0
 10
35.19999999999999
 20
4.999653208722192
 30
0.0
 10
35.2
 20
4.956818167523805
 30
0.0
 10
35.2
 20
4.882842759610732
 30
0.0
 10
35.199999999999996
 20
4.808376848095277
 30
0.0
 10
35.20000000000001
 20
4.704963910700406
 30
0.0
 10
35.2
 20
4.600000047129828
 30
0.0
  0
ELLIPSE
  5
20B
330
17
100
AcDbEntity
  8
visible
100
AcDbEllipse
 10
32.4
 20
-4.199999952848712
 30
0.0
 11
0.4
 21
0.0
 31
0.0
 40
1e-10
 41
3.141592653589793
 42
4.71238898038469
  0
ELLIPSE
  5
20C
330
17
100
AcDbEntity
  8
visible
100
AcDbEllipse
 10
32.4
 20
4.200000047151287
 30
0.0
 11
0.4
 21
0.0
 31
0.0
 40
1e-10
 41
3.141592653589793
 42
4.71238898038469
  0
SPLINE
  5
20D
330
17
100
AcDbEntity
  8
visible
100
AcDbSpline
 70
0
 71
3
 72
11
 73
7
 74
0
 40
0.0
 40
0.0
 40
0.0
 40
0.0
 40
0.7853981633974483
 40
0.7853981633974483
 40
0.7853981633974483
 40
1.5707963267948966
 40
1.5707963267948966
 40
1.5707963267948966
 40
1.5707963267948966
 10
32.8
 20
5.000000047151288
 30
0.0
 10
32.79999999999998
 20
4.999653208722192
 30
0.0
 10
32.8
 20
4.956818167523805
 30
0.0
 10
32.8
 20
4.882842759610732
 30
0.0
 10
32.79999999999999
 20
4.808376848095277
 30
0.0
 10
32.80000000000001
 20
4.704963910700406
 30
0.0
 10
32.8
 20
4.600000047129828
 30
0.0
  0
SPLINE
  5
20E
330
17
100
AcDbEntity
  8
visible
100
AcDbSpline
 70
0
 71
3
 72
11
 73
7
 74
0
 40
0.0
 40
0.0
 40
0.0
 40
0.0
 40
0.7853981633974483
 40
0.7853981633974483
 40
0.7853981633974483
 40
1.5707963267948966
 40
1.5707963267948966
 40
1.5707963267948966
 40
1.5707963267948966
 10
35.2
 20
-4.999999952848713
 30
0.0
 10
35.19999999999999
 20
-4.999653114430883
 30
0.0
 10
35.2
 20
-4.956818073243581
 30
0.0
 10
35.2
 20
-4.882842665338507
 30
0.0
 10
35.199999999999996
 20
-4.808376753830986
 30
0.0
 10
35.20000000000001
 20
-4.704963816440712
 30
0.0
 10
35.2
 20
-4.5999999528701725
 30
0.0
  0
SPLINE
  5
20F
330
17
100
AcDbEntity
  8
visible
100
AcDbSpline
 70
0
 71
3
 72
11
 73
7
 74
0
 40
0.0
 40
0.0
 40
0.0
 40
0.0
 40
0.7853981633974483
 40
0.7853981633974483
 40
0.7853981633974483
 40
1.5707963267948966
 40
1.5707963267948966
 40
1.5707963267948966
 40
1.5707963267948966
 10
32.8
 20
-4.999999952848712
 30
0.0
 10
32.79999999999998
 20
-4.999653114430881
 30
0.0
 10
32.8
 20
-4.956818073243581
 30
0.0
 10
32.8
 20
-4.882842665338505
 30
0.0
 10
32.79999999999999
 20
-4.808376753830986
 30
0.0
 10
32.80000000000001
 20
-4.704963816440711
 30
0.0
 10
32.8
 20
-4.599999952870171
 30
0.0
  0
ELLIPSE
  5
210
330
17
100
AcDbEntity
  8
visible
100
AcDbEllipse
 10
-32.400000000000006
 20
-4.199999952848712
 30
0.0
 11
-0.4
 21
-0.0
 31
0.0
 40
1e-10
 41
-4.71238898038469
 42
-3.141592653589793
  0
ELLIPSE
  5
211
330
17
100
AcDbEntity
  8
visible
100
AcDbEllipse
 10
-32.400000000000006
 20
4.200000047151287
 30
0.0
 11
-0.4
 21
-0.0
 31
0.0
 40
1e-10
 41
-4.71238898038469
 42
-3.141592653589793
  0
SPLINE
  5
212
330
17
100
AcDbEntity
  8
visible
100
AcDbSpline
 70
0
 71
3
 72
11
 73
7
 74
0
 40
0.0
 40
0.0
 40
0.0
 40
0.0
 40
0.7853981633974483
 40
0.7853981633974483
 40
0.7853981633974483
 40
1.5707963267948966
 40
1.5707963267948966
 40
1.5707963267948966
 40
1.5707963267948966
 10
-32.8
 20
5.000000047151288
 30
0.0
 10
-32.79999999999998
 20
4.999653208722192
 30
0.0
 10
-32.8
 20
4.956818167523805
 30
0.0
 10
-32.8
 20
4.882842759610732
 30
0.0
 10
-32.79999999999999
 20
4.808376848095277
 30
0.0
 10
-32.80000000000001
 20
4.704963910700406
 30
0.0
 10
-32.8
 20
4.600000047129828
 30
0.0
  0
SPLINE
  5
213
330
17
100
AcDbEntity
  8
visible
100
AcDbSpline
 70
0
 71
3
 72
11
 73
7
 74
0
 40
0.0
 40
0.0
 40
0.0
 40
0.0
 40
0.7853981633974483
 40
0.7853981633974483
 40
0.7853981633974483
 40
1.5707963267948966
 40
1.5707963267948966
 40
1.5707963267948966
 40
1.5707963267948966
 10
-32.8
 20
-4.999999952848712
 30
0.0
 10
-32.79999999999998
 20
-4.999653114430881
 30
0.0
 10
-32.8
 20
-4.956818073243581
 30
0.0
 10
-32.8
 20
-4.882842665338505
 30
0.0
 10
-32.79999999999999
 20
-4.808376753830986
 30
0.0
 10
-32.80000000000001
 20
-4.704963816440711
 30
0.0
 10
-32.8
 20
-4.599999952870171
 30
0.0
  0
ELLIPSE
  5
214
330
17
100
AcDbEntity
  8
visible
100
AcDbEllipse
 10
-23.5
 20
-23.499999953272532
 30
0.0
 11
-4.0
 21
0.0
 31
0.0
 40
1e-10
 41
-6.283185307179586
 42
-4.71238898038469
  0
LINE
  5
215
330
17
100
AcDbEntity
  8
visible
100
AcDbLine
 10
-23.5
 20
-23.499999953487123
 30
0.0
 11
-23.5
 21
23.500000046512877
 31
0.0
  0
ELLIPSE
  5
216
330
17
100
AcDbEntity
  8
visible
100
AcDbEllipse
 10
-23.5
 20
23.500000046727468
 30
0.0
 11
4.0
 21
0.0
 31
0.0
 40
1e-10
 41
3.141592653589793
 42
4.71238898038469
  0
SPLINE
  5
217
330
17
100
AcDbEntity
  8
visible
100
AcDbSpline
 70
0
 71
2
 72
30
 73
27
 74
0
 40
0.0
 40
0.0
 40
0.0
 40
0.14285714285714285
 40
0.14285714285714285
 40
0.21428571428571427
 40
0.21428571428571427
 40
0.2857142857142857
 40
0.2857142857142857
 40
0.35714285714285715
 40
0.35714285714285715
 40
0.42857142857142855
 40
0.42857142857142855
 40
0.5
 40
0.5
 40
0.5714285714285714
 40
0.5714285714285714
 40
0.6428571428571429
 40
0.6428571428571429
 40
0.7142857142857143
 40
0.7142857142857143
 40
0.7857142857142857
 40
0.7857142857142857
 40
0.8571428571428571
 40
0.8571428571428571
 40
0.9285714285714286
 40
0.9285714285714286
 40
1.0
 40
1.0
 40
1.0
 10
-23.5
 20
-23.499999953487123
 30
0.0
 10
-23.5
 20
-23.949437196894195
 30
0.0
 10
-23.5
 20
-24.390083689307005
 30
0.0
 10
-23.5
 20
-24.605599945301375
 30
0.0
 10
-23.5
 20
-24.82111620129575
 30
0.0
 10
-23.499999999999996
 20
-25.028325555615925
 30
0.0
 10
-23.5
 20
-25.235534909936106
 30
0.0
 10
-23.5
 20
-25.43183158472584
 30
0.0
 10
-23.5
 20
-25.628128259515577
 30
0.0
 10
-23.499999999999996
 20
-25.811043710195403
 30
0.0
 10
-23.5
 20
-25.99395916087524
 30
0.0
 10
-23.5
 20
-26.16119311952285
 30
0.0
 10
-23.5
 20
-26.328427078170463
 30
0.0
 10
-23.499999999999996
 20
-26.477876480724447
 30
0.0
 10
-23.5
 20
-26.627325883278445
 30
0.0
 10
-23.5
 20
-26.757111316789143
 30
0.0
 10
-23.5
 20
-26.886896750299837
 30
0.0
 10
-23.499999999999996
 20
-26.995386087637577
 30
0.0
 10
-23.5
 20
-27.10387542497532
 30
0.0
 10
-23.5
 20
-27.1897043497761
 30
0.0
 10
-23.5
 20
-27.27553327457688
 30
0.0
 10
-23.499999999999996
 20
-27.33762243831223
 30
0.0
 10
-23.5
 20
-27.39971160204758
 30
0.0
 10
-23.5
 20
-27.437280197458556
 30
0.0
 10
-23.5
 20
-27.47484879286953
 30
0.0
 10
-23.499999999999996
 20
-27.487424373071025
 30
0.0
 10
-23.5
 20
-27.49999995327253
 30
0.0
  0
LINE
  5
218
330
17
100
AcDbEntity
  8
visible
100
AcDbLine
 10
-23.5
 20
-27.499999953272532
 30
0.0
 11
23.5
 21
-27.499999953272532
 31
0.0
  0
LINE
  5
219
330
17
100
AcDbEntity
  8
visible
100
AcDbLine
 10
-23.5
 20
-23.499999953487123
 30
0.0
 11
23.5
 21
-23.499999953487123
 31
0.0
  0
LINE
  5
21A
330
17
100
AcDbEntity
  8
visible
100
AcDbLine
 10
-23.5
 20
23.500000046512877
 30
0.0
 11
23.5
 21
23.500000046512877
 31
0.0
  0
LINE
  5
21B
330
17
100
AcDbEntity
  8
visible
100
AcDbLine
 10
23.5
 20
-23.499999953487123
 30
0.0
 11
23.5
 21
23.500000046512877
 31
0.0
  0
SPLINE
  5
21C
330
17
100
AcDbEntity
  8
visible
100
AcDbSpline
 70
0
 71
2
 72
30
 73
27
 74
0
 40
0.0
 40
0.0
 40
0.0
 40
0.07142857142857142
 40
0.07142857142857142
 40
0.14285714285714285
 40
0.14285714285714285
 40
0.21428571428571427
 40
0.21428571428571427
 40
0.2857142857142857
 40
0.2857142857142857
 40
0.35714285714285715
 40
0.35714285714285715
 40
0.42857142857142855
 40
0.42857142857142855
 40
0.5
 40
0.5
 40
0.5714285714285714
 40
0.5714285714285714
 40
0.6428571428571429
 40
0.6428571428571429
 40
0.7142857142857143
 40
0.7142857142857143
 40
0.7857142857142857
 40
0.7857142857142857
 40
0.8571428571428571
 40
0.8571428571428571
 40
1.0
 40
1.0
 40
1.0
 10
-23.5
 20
27.50000004672747
 30
0.0
 10
-23.5
 20
27.487424466501942
 30
0.0
 10
-23.5
 20
27.474848886276412
 30
0.0
 10
-23.499999999999996
 20
27.43728029084172
 30
0.0
 10
-23.5
 20
27.399711695407007
 30
0.0
 10
-23.5
 20
27.337622531648528
 30
0.0
 10
-23.5
 20
27.275533367890063
 30
0.0
 10
-23.499999999999996
 20
27.189704443067058
 30
0.0
 10
-23.5
 20
27.10387551824403
 30
0.0
 10
-23.5
 20
26.995386180885227
 30
0.0
 10
-23.5
 20
26.886896843526436
 30
0.0
 10
-23.499999999999996
 20
26.757111409996114
 30
0.0
 10
-23.5
 20
26.627325976465798
 30
0.0
 10
-23.5
 20
26.47787657389385
 30
0.0
 10
-23.5
 20
26.32842717132192
 30
0.0
 10
-23.499999999999996
 20
26.161193212658283
 30
0.0
 10
-23.5
 20
25.99395925399463
 30
0.0
 10
-23.5
 20
25.811043803300866
 30
0.0
 10
-23.5
 20
25.62812835260712
 30
0.0
 10
-23.499999999999996
 20
25.431831677805743
 30
0.0
 10
-23.5
 20
25.235535003004358
 30
0.0
 10
-23.5
 20
25.02832564867496
 30
0.0
 10
-23.5
 20
24.821116294345586
 30
0.0
 10
-23.499999999999996
 20
24.605600038344548
 30
0.0
 10
-23.5
 20
24.390083782343513
 30
0.0
 10
-23.5
 20
23.949437289921143
 30
0.0
 10
-23.5
 20
23.500000046512877
 30
0.0
  0
LINE
  5
21D
330
17
100
AcDbEntity
  8
visible
100
AcDbLine
 10
-23.5
 20
27.500000048980688
 30
0.0
 11
23.5
 21
27.500000048980688
 31
0.0
  0
LINE
  5
21E
330
17
100
AcDbEntity
  8
visible
100
AcDbLine
 10
-23.5
 20
27.500000046727468
 30
0.0
 11
23.5
 21
27.500000046727468
 31
0.0
  0
SPLINE
  5
21F
330
17
100
AcDbEntity
  8
visible
100
AcDbSpline
 70
0
 71
2
 72
30
 73
27
 74
0
 40
0.0
 40
0.0
 40
0.0
 40
0.14285714285714285
 40
0.14285714285714285
 40
0.21428571428571427
 40
0.21428571428571427
 40
0.2857142857142857
 40
0.2857142857142857
 40
0.35714285714285715
 40
0.35714285714285715
 40
0.42857142857142855
 40
0.42857142857142855
 40
0.5
 40
0.5
 40
0.5714285714285714
 40
0.5714285714285714
 40
0.6428571428571429
 40
0.6428571428571429
 40
0.7142857142857143
 40
0.7142857142857143
 40
0.7857142857142857
 40
0.7857142857142857
 40
0.8571428571428571
 40
0.8571428571428571
 40
0.9285714285714286
 40
0.9285714285714286
 40
1.0
 40
1.0
 40
1.0
 10
23.5
 20
-23.499999953487123
 30
0.0
 10
23.5
 20
-23.949437196894195
 30
0.0
 10
23.5
 20
-24.390083689307005
 30
0.0
 10
23.5
 20
-24.605599945301375
 30
0.0
 10
23.5
 20
-24.82111620129575
 30
0.0
 10
23.499999999999996
 20
-25.028325555615925
 30
0.0
 10
23.5
 20
-25.235534909936106
 30
0.0
 10
23.5
 20
-25.43183158472584
 30
0.0
 10
23.5
 20
-25.628128259515577
 30
0.0
 10
23.499999999999996
 20
-25.811043710195403
 30
0.0
 10
23.5
 20
-25.99395916087524
 30
0.0
 10
23.5
 20
-26.16119311952285
 30
0.0
 10
23.5
 20
-26.328427078170463
 30
0.0
 10
23.499999999999996
 20
-26.477876480724447
 30
0.0
 10
23.5
 20
-26.627325883278445
 30
0.0
 10
23.5
 20
-26.757111316789143
 30
0.0
 10
23.5
 20
-26.886896750299837
 30
0.0
 10
23.499999999999996
 20
-26.995386087637577
 30
0.0
 10
23.5
 20
-27.10387542497532
 30
0.0
 10
23.5
 20
-27.1897043497761
 30
0.0
 10
23.5
 20
-27.27553327457688
 30
0.0
 10
23.499999999999996
 20
-27.33762243831223
 30
0.0
 10
23.5
 20
-27.39971160204758
 30
0.0
 10
23.5
 20
-27.437280197458556
 30
0.0
 10
23.5
 20
-27.47484879286953
 30
0.0
 10
23.499999999999996
 20
-27.487424373071025
 30
0.0
 10
23.5
 20
-27.49999995327253
 30
0.0
  0
SPLINE
  5
220
330
17
100
AcDbEntity
  8
visible
100
AcDbSpline
 70
0
 71
2
 72
30
 73
27
 74
0
 40
0.0
 40
0.0
 40
0.0
 40
0.07142857142857142
 40
0.07142857142857142
 40
0.14285714285714285
 40
0.14285714285714285
 40
0.21428571428571427
 40
0.21428571428571427
 40
0.2857142857142857
 40
0.2857142857142857
 40
0.35714285714285715
 40
0.35714285714285715
 40
0.42857142857142855
 40
0.42857142857142855
 40
0.5
 40
0.5
 40
0.5714285714285714
 40
0.5714285714285714
 40
0.6428571428571429
 40
0.6428571428571429
 40
0.7142857142857143
 40
0.7142857142857143
 40
0.7857142857142857
 40
0.7857142857142857
 40
0.8571428571428571
 40
0.8571428571428571
 40
1.0
 40
1.0
 40
1.0
 10
23.5
 20
27.50000004672747
 30
0.0
 10
23.5
 20
27.487424466501942
 30
0.0
 10
23.5
 20
27.474848886276412
 30
0.0
 10
23.499999999999996
 20
27.43728029084172
 30
0.0
 10
23.5
 20
27.399711695407007
 30
0.0
 10
23.5
 20
27.337622531648528
 30
0.0
 10
23.5
 20
27.275533367890063
 30
0.0
 10
23.499999999999996
 20
27.189704443067058
 30
0.0
 10
23.5
 20
27.10387551824403
 30
0.0
 10
23.5
 20
26.995386180885227
 30
0.0
 10
23.5
 20
26.886896843526436
 30
0.0
 10
23.499999999999996
 20
26.757111409996114
 30
0.0
 10
23.5
 20
26.627325976465798
 30
0.0
 10
23.5
 20
26.47787657389385
 30
0.0
 10
23.5
 20
26.32842717132192
 30
0.0
 10
23.499999999999996
 20
26.161193212658283
 30
0.0
 10
23.5
 20
25.99395925399463
 30
0.0
 10
23.5
 20
25.811043803300866
 30
0.0
 10
23.5
 20
25.62812835260712
 30
0.0
 10
23.499999999999996
 20
25.431831677805743
 30
0.0
 10
23.5
 20
25.235535003004358
 30
0.0
 10
23.5
 20
25.02832564867496
 30
0.0
 10
23.5
 20
24.821116294345586
 30
0.0
 10
23.499999999999996
 20
24.605600038344548
 30
0.0
 10
23.5
 20
24.390083782343513
 30
0.0
 10
23.5
 20
23.949437289921143
 30
0.0
 10
23.5
 20
23.500000046512877
 30
0.0
  0
ELLIPSE
  5
221
330
17
100
AcDbEntity
  8
visible
100
AcDbEllipse
 10
23.5
 20
-23.499999953272532
 30
0.0
 11
4.0
 21
0.0
 31
0.0
 40
1e-10
 41
4.71238898038469
 42
6.283185307179586
  0
ELLIPSE
  5
222
330
17
100
AcDbEntity
  8
visible
100
AcDbEllipse
 10
23.5
 20
23.500000046727468
 30
0.0
 11
-4.0
 21
-0.0
 31
0.0
 40
1e-10
 41
-4.71238898038469
 42
-3.141592653589793
  0
SPLINE
  5
223
330
17
100
AcDbEntity
  8
visible
100
AcDbSpline
 70
0
 71
2
 72
6
 73
3
 74
0
 40
0.0
 40
0.0
 40
0.0
 40
1.0
 40
1.0
 40
1.0
 10
70.2
 20
14.00000004774678
 30
0.0
 10
70.0929505054882
 20
13.999514079400448
 30
0.0
 10
70.0
 20
13.946410209260554
 30
0.0
  0
SPLINE
  5
224
330
17
100
AcDbEntity
  8
visible
100
AcDbSpline
 70
0
 71
2
 72
6
 73
3
 74
0
 40
0.0
 40
0.0
 40
0.0
 40
1.0
 40
1.0
 40
1.0
 10
70.2
 20
-13.99999995225322
 30
0.0
 10
70.0929505054882
 20
-13.999513983906887
 30
0.0
 10
70.0
 20
-13.946410113766992
 30
0.0
  0
LINE
  5
225
330
17
100
AcDbEntity
  8
visible
100
AcDbLine
 10
70.19999999999999
 20
-13.99999995225322
 30
0.0
 11
70.89999999999998
 21
-13.99999995225322
 31
0.0
  0
LINE
  5
226
330
17
100
AcDbEntity
  8
visible
100
AcDbLine
 10
70.19999999999999
 20
14.00000004774678
 30
0.0
 11
70.89999999999998
 21
14.00000004774678
 31
0.0
  0
SPLINE
  5
227
330
17
100
AcDbEntity
  8
visible
100
AcDbSpline
 70
0
 71
3
 72
11
 73
7
 74
0
 40
0.0
 40
0.0
 40
0.0
 40
0.0
 40
0.5
 40
0.5
 40
0.5
 40
1.0
 40
1.0
 40
1.0
 40
1.0
 10
70.89999999999999
 20
14.00000004774678
 30
0.0
 10
71.0038116256992
 20
14.00040832560025
 30
0.0
 10
71.1069188268675
 20
13.958173527630041
 30
0.0
 10
71.18061257030833
 20
13.885055455316861
 30
0.0
 10
71.25640503958313
 20
13.811063267023279
 30
0.0
 10
71.30044111555554
 20
13.705920526145984
 30
0.0
 10
71.3
 20
13.600000047746779
 30
0.0
  0
SPLINE
  5
228
330
17
100
AcDbEntity
  8
visible
100
AcDbSpline
 70
0
 71
3
 72
11
 73
7
 74
0
 40
0.0
 40
0.0
 40
0.0
 40
0.0
 40
0.5
 40
0.5
 40
0.5
 40
1.0
 40
1.0
 40
1.0
 40
1.0
 10
70.89999999999999
 20
-13.99999995225322
 30
0.0
 10
71.0038116256992
 20
-14.000408230106686
 30
0.0
 10
71.1069188268675
 20
-13.958173432136482
 30
0.0
 10
71.18061257030833
 20
-13.885055359823301
 30
0.0
 10
71.25640503958313
 20
-13.811063171529714
 30
0.0
 10
71.30044111555554
 20
-13.70592043065243
 30
0.0
 10
71.3
 20
-13.599999952253219
 30
0.0
  0
SPLINE
  5
229
330
17
100
AcDbEntity
  8
visible
100
AcDbSpline
 70
0
 71
2
 72
6
 73
3
 74
0
 40
0.0
 40
0.0
 40
0.0
 40
1.0
 40
1.0
 40
1.0
 10
-70.2
 20
14.00000004774678
 30
0.0
 10
-70.0929505054882
 20
13.999514079400448
 30
0.0
 10
-70.0
 20
13.946410209260554
 30
0.0
  0
SPLINE
  5
22A
330
17
100
AcDbEntity
  8
visible
100
AcDbSpline
 70
0
 71
2
 72
6
 73
3
 74
0
 40
0.0
 40
0.0
 40
0.0
 40
1.0
 40
1.0
 40
1.0
 10
-70.19999999999999
 20
-13.999999952253221
 30
0.0
 10
-70.0929505054882
 20
-13.99951398390689
 30
0.0
 10
-69.99999999999999
 20
-13.946410113766994
 30
0.0
  0
LINE
  5
22B
330
17
100
AcDbEntity
  8
visible
100
AcDbLine
 10
-70.19999999999999
 20
14.00000004774678
 30
0.0
 11
-70.89999999999998
 21
14.00000004774678
 31
0.0
  0
LINE
  5
22C
330
17
100
AcDbEntity
  8
visible
100
AcDbLine
 10
-70.19999999999999
 20
-13.99999995225322
 30
0.0
 11
-70.89999999999998
 21
-13.99999995225322
 31
0.0
  0
SPLINE
  5
22D
330
17
100
AcDbEntity
  8
visible
100
AcDbSpline
 70
0
 71
3
 72
11
 73
7
 74
0
 40
0.0
 40
0.0
 40
0.0
 40
0.0
 40
0.5
 40
0.5
 40
0.5
 40
1.0
 40
1.0
 40
1.0
 40
1.0
 10
-70.89999999999999
 20
14.00000004774678
 30
0.0
 10
-71.0038116256992
 20
14.00040832560025
 30
0.0
 10
-71.1069188268675
 20
13.958173527630041
 30
0.0
 10
-71.18061257030833
 20
13.885055455316861
 30
0.0
 10
-71.25640503958313
 20
13.811063267023279
 30
0.0
 10
-71.30044111555554
 20
13.705920526145984
 30
0.0
 10
-71.3
 20
13.600000047746779
 30
0.0
  0
SPLINE
  5
22E
330
17
100
AcDbEntity
  8
visible
100
AcDbSpline
 70
0
 71
3
 72
11
 73
7
 74
0
 40
0.0
 40
0.0
 40
0.0
 40
0.0
 40
0.5
 40
0.5
 40
0.5
 40
1.0
 40
1.0
 40
1.0
 40
1.0
 10
-70.89999999999999
 20
-13.99999995225322
 30
0.0
 10
-71.0038116256992
 20
-14.000408230106686
 30
0.0
 10
-71.1069188268675
 20
-13.958173432136482
 30
0.0
 10
-71.18061257030833
 20
-13.885055359823301
 30
0.0
 10
-71.25640503958313
 20
-13.811063171529714
 30
0.0
 10
-71.30044111555554
 20
-13.70592043065243
 30
0.0
 10
-71.3
 20
-13.599999952253219
 30
0.0
  0
LINE
  5
22F
330
17
100
AcDbEntity
  8
visible
100
AcDbLine
 10
-37.0
 20
-3.7499999522532184
 30
0.0
 11
-36.6
 21
-3.7499999522532184
 31
0.0
  0
LINE
  5
230
330
17
100
AcDbEntity
  8
visible
100
AcDbLine
 10
-37.0
 20
3.7500000477467816
 30
0.0
 11
-36.6
 21
3.7500000477467816
 31
0.0
  0
LINE
  5
231
330
17
100
AcDbEntity
  8
visible
100
AcDbLine
 10
-32.0
 20
-2.4999999522532184
 30
0.0
 11
-29.0
 21
-2.4999999522532184
 31
0.0
  0
LINE
  5
232
330
17
100
AcDbEntity
  8
visible
100
AcDbLine
 10
-32.0
 20
2.5000000477467816
 30
0.0
 11
-29.0
 21
2.5000000477467816
 31
0.0
  0
LINE
  5
233
330
17
100
AcDbEntity
  8
visible
100
AcDbLine
 10
-11.5
 20
-29.499999952145924
 30
0.0
 11
-11.5
 21
-27.499999952145924
 31
0.0
  0
ENDSEC
  0
SECTION
  2
OBJECTS
  0
DICTIONARY
  5
A
330
0
100
AcDbDictionary
281
1
  3
ACAD_COLOR
350
B
  3
ACAD_GROUP
350
C
  3
ACAD_LAYOUT
350
D
  3
ACAD_MATERIAL
350
E
  3
ACAD_MLEADERSTYLE
350
F
  3
ACAD_MLINESTYLE
350
10
  3
ACAD_PLOTSETTINGS
350
11
  3
ACAD_PLOTSTYLENAME
350
12
  3
ACAD_SCALELIST
350
14
  3
ACAD_TABLESTYLE
350
15
  3
ACAD_VISUALSTYLE
350
16
  3
EZDXF_META
350
2D
  0
DICTIONARY
  5
B
330
A
100
AcDbDictionary
281
1
  0
DICTIONARY
  5
C
330
A
100
AcDbDictionary
281
1
  0
DICTIONARY
  5
D
330
A
100
AcDbDictionary
281
1
  3
Model
350
1A
  3
Layout1
350
1E
  0
DICTIONARY
  5
E
330
A
100
AcDbDictionary
281
1
  3
ByBlock
350
1F
  3
ByLayer
350
20
  3
Global
350
21
  0
DICTIONARY
  5
F
330
A
100
AcDbDictionary
281
1
  3
Standard
350
2C
  0
DICTIONARY
  5
10
330
A
100
AcDbDictionary
281
1
  3
Standard
350
22
  0
DICTIONARY
  5
11
330
A
100
AcDbDictionary
281
1
  0
ACDBDICTIONARYWDFLT
  5
12
330
A
100
AcDbDictionary
281
1
  3
Normal
350
13
100
AcDbDictionaryWithDefault
340
13
  0
ACDBPLACEHOLDER
  5
13
330
12
  0
DICTIONARY
  5
14
330
A
100
AcDbDictionary
281
1
  0
DICTIONARY
  5
15
330
A
100
AcDbDictionary
281
1
  0
DICTIONARY
  5
16
330
A
100
AcDbDictionary
281
1
  0
LAYOUT
  5
1A
330
D
100
AcDbPlotSettings
  1

  4
A3
  6

 40
7.5
 41
20.0
 42
7.5
 43
20.0
 44
420.0
 45
297.0
 46
0.0
 47
0.0
 48
0.0
 49
0.0
140
0.0
141
0.0
142
1.0
143
1.0
 70
1024
 72
1
 73
0
 74
5
  7

 75
16
 76
0
 77
2
 78
300
147
1.0
148
0.0
149
0.0
100
AcDbLayout
  1
Model
 70
1
 71
0
 10
0.0
 20
0.0
 11
420.0
 21
297.0
 12
0.0
 22
0.0
 32
0.0
 14
1e+20
 24
1e+20
 34
1e+20
 15
-1e+20
 25
-1e+20
 35
-1e+20
146
0.0
 13
0.0
 23
0.0
 33
0.0
 16
1.0
 26
0.0
 36
0.0
 17
0.0
 27
1.0
 37
0.0
 76
1
330
17
  0
LAYOUT
  5
1E
330
D
100
AcDbPlotSettings
  1

  4
A3
  6

 40
7.5
 41
20.0
 42
7.5
 43
20.0
 44
420.0
 45
297.0
 46
0.0
 47
0.0
 48
0.0
 49
0.0
140
0.0
141
0.0
142
1.0
143
1.0
 70
0
 72
1
 73
0
 74
5
  7

 75
16
 76
0
 77
2
 78
300
147
1.0
148
0.0
149
0.0
100
AcDbLayout
  1
Layout1
 70
1
 71
1
 10
0.0
 20
0.0
 11
420.0
 21
297.0
 12
0.0
 22
0.0
 32
0.0
 14
1e+20
 24
1e+20
 34
1e+20
 15
-1e+20
 25
-1e+20
 35
-1e+20
146
0.0
 13
0.0
 23
0.0
 33
0.0
 16
1.0
 26
0.0
 36
0.0
 17
0.0
 27
1.0
 37
0.0
 76
1
330
1B
  0
MATERIAL
  5
1F
102
{ACAD_REACTORS
330
E
102
}
330
E
100
AcDbMaterial
  1
ByBlock
  2

 70
0
 40
1.0
 71
1
 41
1.0
 91
-1023410177
 42
1.0
 72
1
  3

 73
1
 74
1
 75
1
 44
0.5
 73
0
 45
1.0
 46
1.0
 77
1
  4

 78
1
 79
1
170
1
 48
1.0
171
1
  6

172
1
173
1
174
1
140
1.0
141
1.0
175
1
  7

176
1
177
1
178
1
143
1.0
179
1
  8

270
1
271
1
272
1
145
1.0
146
1.0
273
1
  9

274
1
275
1
276
1
 42
1.0
 72
1
  3

 73
1
 74
1
 75
1
 94
63
  0
MATERIAL
  5
20
102
{ACAD_REACTORS
330
E
102
}
330
E
100
AcDbMaterial
  1
ByLayer
  2

 70
0
 40
1.0
 71
1
 41
1.0
 91
-1023410177
 42
1.0
 72
1
  3

 73
1
 74
1
 75
1
 44
0.5
 73
0
 45
1.0
 46
1.0
 77
1
  4

 78
1
 79
1
170
1
 48
1.0
171
1
  6

172
1
173
1
174
1
140
1.0
141
1.0
175
1
  7

176
1
177
1
178
1
143
1.0
179
1
  8

270
1
271
1
272
1
145
1.0
146
1.0
273
1
  9

274
1
275
1
276
1
 42
1.0
 72
1
  3

 73
1
 74
1
 75
1
 94
63
  0
MATERIAL
  5
21
102
{ACAD_REACTORS
330
E
102
}
330
E
100
AcDbMaterial
  1
Global
  2

 70
0
 40
1.0
 71
1
 41
1.0
 91
-1023410177
 42
1.0
 72
1
  3

 73
1
 74
1
 75
1
 44
0.5
 73
0
 45
1.0
 46
1.0
 77
1
  4

 78
1
 79
1
170
1
 48
1.0
171
1
  6

172
1
173
1
174
1
140
1.0
141
1.0
175
1
  7

176
1
177
1
178
1
143
1.0
179
1
  8

270
1
271
1
272
1
145
1.0
146
1.0
273
1
  9

274
1
275
1
276
1
 42
1.0
 72
1
  3

 73
1
 74
1
 75
1
 94
63
  0
MLINESTYLE
  5
22
102
{ACAD_REACTORS
330
10
102
}
330
10
100
AcDbMlineStyle
  2
Standard
 70
0
  3

 62
256
 51
90.0
 52
90.0
 71
2
 49
0.5
 62
256
  6
BYLAYER
 49
-0.5
 62
256
  6
BYLAYER
  0
MLEADERSTYLE
  5
2C
102
{ACAD_REACTORS
330
F
102
}
330
F
100
AcDbMLeaderStyle
179
2
170
2
171
1
172
0
 90
2
 40
0.0
 41
0.0
173
1
 91
-1056964608
 92
-2
290
1
 42
2.0
291
1
 43
8.0
  3
Standard
 44
4.0
300

342
29
174
1
175
1
176
0
178
1
 93
-1056964608
 45
4.0
292
0
297
0
 46
4.0
 94
-1056964608
 47
1.0
 49
1.0
140
1.0
294
1
141
0.0
177
0
142
1.0
295
0
296
0
143
3.75
271
0
272
9
273
9
  0
DICTIONARY
  5
2D
330
A
100
AcDbDictionary
280
1
281
1
  3
CREATED_BY_EZDXF
350
2E
  3
WRITTEN_BY_EZDXF
350
237
  0
DICTIONARYVAR
  5
2E
330
2D
100
DictionaryVariables
280
0
  1
1.4.4 @ 2026-10-02T15:36:12.249075+00:00
  0
DICTIONARYVAR
  5
237
330
2D
100
DictionaryVariables
280
0
  1
1.4.4 @ 2026-10-02T15:36:12.499610+00:00
  0
ENDSEC
  0
EOF
