  0
SECTION
  2
HEADER
  9
$ACADVER
  1
AC1027
  9
$ACADMAINTVER
 70
105
  9
$DWGCODEPAGE
  3
ANSI_1252
  9
$LASTSAVEDBY
  1
ezdxf
  9
$REQUIREDVERSIONS
160
0
  9
$INSBASE
 10
0.0
 20
0.0
 30
0.0
  9
$EXTMIN
 10
1e+20
 20
1e+20
 30
1e+20
  9
$EXTMAX
 10
-1e+20
 20
-1e+20
 30
-1e+20
  9
$LIMMIN
 10
0.0
 20
0.0
  9
$LIMMAX
 10
420.0
 20
297.0
  9
$ORTHOMODE
 70
0
  9
$REGENMODE
 70
1
  9
$FILLMODE
 70
1
  9
$QTEXTMODE
 70
0
  9
$MIRRTEXT
 70
1
  9
$LTSCALE
 40
1.0
  9
$ATTMODE
 70
1
  9
$TEXTSIZE
 40
2.5
  9
$TRACEWID
 40
1.0
  9
$TEXTSTYLE
  7
Standard
  9
$CLAYER
  8
0
  9
$CELTYPE
  6
ByLayer
  9
$CECOLOR
 62
256
  9
$CELTSCALE
 40
1.0
  9
$DISPSILH
 70
0
  9
$DIMSCALE
 40
1.0
  9
$DIMASZ
 40
2.5
  9
$DIMEXO
 40
0.625
  9
$DIMDLI
 40
3.75
  9
$DIMRND
 40
0.0
  9
$DIMDLE
 40
0.0
  9
$DIMEXE
 40
1.25
  9
$DIMTP
 40
0.0
  9
$DIMTM
 40
0.0
  9
$DIMTXT
 40
2.5
  9
$DIMCEN
 40
2.5
  9
$DIMTSZ
 40
0.0
  9
$DIMTOL
 70
0
  9
$DIMLIM
 70
0
  9
$DIMTIH
 70
0
  9
$DIMTOH
 70
0
  9
$DIMSE1
 70
0
  9
$DIMSE2
 70
0
  9
$DIMTAD
 70
1
  9
$DIMZIN
 70
8
  9
$DIMBLK
  1

  9
$DIMASO
 70
1
  9
$DIMSHO
 70
1
  9
$DIMPOST
  1

  9
$DIMAPOST
  1

  9
$DIMALT
 70
0
  9
$DIMALTD
 70
3
  9
$DIMALTF
 40
0.03937007874
  9
$DIMLFAC
 40
1.0
  9
$DIMTOFL
 70
1
  9
$DIMTVP
 40
0.0
  9
$DIMTIX
 70
0
  9
$DIMSOXD
 70
0
  9
$DIMSAH
 70
0
  9
$DIMBLK1
  1

  9
$DIMBLK2
  1

  9
$DIMSTYLE
  2
ISO-25
  9
$DIMCLRD
 70
0
  9
$DIMCLRE
 70
0
  9
$DIMCLRT
 70
0
  9
$DIMTFAC
 40
1.0
  9
$DIMGAP
 40
0.625
  9
$DIMJUST
 70
0
  9
$DIMSD1
 70
0
  9
$DIMSD2
 70
0
  9
$DIMTOLJ
 70
0
  9
$DIMTZIN
 70
8
  9
$DIMALTZ
 70
0
  9
$DIMALTTZ
 70
0
  9
$DIMUPT
 70
0
  9
$DIMDEC
 70
2
  9
$DIMTDEC
 70
2
  9
$DIMALTU
 70
2
  9
$DIMALTTD
 70
3
  9
$DIMTXSTY
  7
Standard
  9
$DIMAUNIT
 70
0
  9
$DIMADEC
 70
0
  9
$DIMALTRND
 40
0.0
  9
$DIMAZIN
 70
0
  9
$DIMDSEP
 70
44
  9
$DIMATFIT
 70
3
  9
$DIMFRAC
 70
0
  9
$DIMLDRBLK
  1

  9
$DIMLUNIT
 70
2
  9
$DIMLWD
 70
-2
  9
$DIMLWE
 70
-2
  9
$DIMTMOVE
 70
0
  9
$DIMFXL
 40
1.0
  9
$DIMFXLON
 70
0
  9
$DIMJOGANG
 40
0.785398163397
  9
$DIMTFILL
 70
0
  9
$DIMTFILLCLR
 70
0
  9
$DIMARCSYM
 70
0
  9
$DIMLTYPE
  6

  9
$DIMLTEX1
  6

  9
$DIMLTEX2
  6

  9
$DIMTXTDIRECTION
 70
0
  9
$LUNITS
 70
2
  9
$LUPREC
 70
4
  9
$SKETCHINC
 40
1.0
  9
$FILLETRAD
 40
10.0
  9
$AUNITS
 70
0
  9
$AUPREC
 70
2
  9
$MENU
  1
.
  9
$ELEVATION
 40
0.0
  9
$PELEVATION
 40
0.0
  9
$THICKNESS
 40
0.0
  9
$LIMCHECK
 70
0
  9
$CHAMFERA
 40
0.0
  9
$CHAMFERB
 40
0.0
  9
$CHAMFERC
 40
0.0
  9
$CHAMFERD
 40
0.0
  9
$SKPOLY
 70
0
  9
$TDCREATE
 40
2461315.983449074
  9
$TDUCREATE
 40
2458532.153996898
  9
$TDUPDATE
 40
2461315.983449074
  9
$TDUUPDATE
 40
2458532.1544311
  9
$TDINDWG
 40
0.0
  9
$TDUSRTIMER
 40
0.0
  9
$USRTIMER
 70
1
  9
$ANGBASE
 50
0.0
  9
$ANGDIR
 70
0
  9
$PDMODE
 70
0
  9
$PDSIZE
 40
0.0
  9
$PLINEWID
 40
0.0
  9
$SPLFRAME
 70
0
  9
$SPLINETYPE
 70
6
  9
$SPLINESEGS
 70
8
  9
$HANDSEED
  5
2B2
  9
$SURFTAB1
 70
6
  9
$SURFTAB2
 70
6
  9
$SURFTYPE
 70
6
  9
$SURFU
 70
6
  9
$SURFV
 70
6
  9
$UCSBASE
  2

  9
$UCSNAME
  2

  9
$UCSORG
 10
0.0
 20
0.0
 30
0.0
  9
$UCSXDIR
 10
1.0
 20
0.0
 30
0.0
  9
$UCSYDIR
 10
0.0
 20
1.0
 30
0.0
  9
$UCSORTHOREF
  2

  9
$UCSORTHOVIEW
 70
0
  9
$UCSORGTOP
 10
0.0
 20
0.0
 30
0.0
  9
$UCSORGBOTTOM
 10
0.0
 20
0.0
 30
0.0
  9
$UCSORGLEFT
 10
0.0
 20
0.0
 30
0.0
  9
$UCSORGRIGHT
 10
0.0
 20
0.0
 30
0.0
  9
$UCSORGFRONT
 10
0.0
 20
0.0
 30
0.0
  9
$UCSORGBACK
 10
0.0
 20
0.0
 30
0.0
  9
$PUCSBASE
  2

  9
$PUCSNAME
  2

  9
$PUCSORG
 10
0.0
 20
0.0
 30
0.0
  9
$PUCSXDIR
 10
1.0
 20
0.0
 30
0.0
  9
$PUCSYDIR
 10
0.0
 20
1.0
 30
0.0
  9
$PUCSORTHOREF
  2

  9
$PUCSORTHOVIEW
 70
0
  9
$PUCSORGTOP
 10
0.0
 20
0.0
 30
0.0
  9
$PUCSORGBOTTOM
 10
0.0
 20
0.0
 30
0.0
  9
$PUCSORGLEFT
 10
0.0
 20
0.0
 30
0.0
  9
$PUCSORGRIGHT
 10
0.0
 20
0.0
 30
0.0
  9
$PUCSORGFRONT
 10
0.0
 20
0.0
 30
0.0
  9
$PUCSORGBACK
 10
0.0
 20
0.0
 30
0.0
  9
$USERI1
 70
0
  9
$USERI2
 70
0
  9
$USERI3
 70
0
  9
$USERI4
 70
0
  9
$USERI5
 70
0
  9
$USERR1
 40
0.0
  9
$USERR2
 40
0.0
  9
$USERR3
 40
0.0
  9
$USERR4
 40
0.0
  9
$USERR5
 40
0.0
  9
$WORLDVIEW
 70
1
  9
$SHADEDGE
 70
3
  9
$SHADEDIF
 70
70
  9
$TILEMODE
 70
1
  9
$MAXACTVP
 70
64
  9
$PINSBASE
 10
0.0
 20
0.0
 30
0.0
  9
$PLIMCHECK
 70
0
  9
$PEXTMIN
 10
1e+20
 20
1e+20
 30
1e+20
  9
$PEXTMAX
 10
-1e+20
 20
-1e+20
 30
-1e+20
  9
$PLIMMIN
 10
0.0
 20
0.0
  9
$PLIMMAX
 10
420.0
 20
297.0
  9
$UNITMODE
 70
0
  9
$VISRETAIN
 70
1
  9
$PLINEGEN
 70
0
  9
$PSLTSCALE
 70
1
  9
$TREEDEPTH
 70
3020
  9
$CMLSTYLE
  2
Standard
  9
$CMLJUST
 70
0
  9
$CMLSCALE
 40
20.0
  9
$PROXYGRAPHICS
 70
1
  9
$MEASUREMENT
 70
1
  9
$CELWEIGHT
370
-1
  9
$ENDCAPS
280
0
  9
$JOINSTYLE
280
0
  9
$LWDISPLAY
290
0
  9
$INSUNITS
 70
4
  9
$HYPERLINKBASE
  1

  9
$STYLESHEET
  1

  9
$XEDIT
290
1
  9
$CEPSNTYPE
380
0
  9
$PSTYLEMODE
290
1
  9
$FINGERPRINTGUID
  2
{1FE80900-1A80-4AF3-B23D-07D64FA4C2FE}
  9
$VERSIONGUID
  2
{91FFA04A-C7AF-4C74-BBEB-F493F13B1EAF}
  9
$EXTNAMES
290
1
  9
$PSVPSCALE
 40
0.0
  9
$OLESTARTUP
290
0
  9
$SORTENTS
280
127
  9
$INDEXCTL
280
0
  9
$HIDETEXT
280
1
  9
$XCLIPFRAME
280
1
  9
$HALOGAP
280
0
  9
$OBSCOLOR
 70
257
  9
$OBSLTYPE
280
0
  9
$INTERSECTIONDISPLAY
280
0
  9
$INTERSECTIONCOLOR
 70
257
  9
$DIMASSOC
280
2
  9
$PROJECTNAME
  1

  9
$CAMERADISPLAY
290
0
  9
$LENSLENGTH
 40
50.0
  9
$CAMERAHEIGHT
 40
0.0
  9
$STEPSPERSEC
 40
24.0
  9
$STEPSIZE
 40
100.0
  9
$3DDWFPREC
 40
2.0
  9
$PSOLWIDTH
 40
0.005
  9
$PSOLHEIGHT
 40
0.08
  9
$LOFTANG1
 40
1.570796326795
  9
$LOFTANG2
 40
1.570796326795
  9
$LOFTMAG1
 40
0.0
  9
$LOFTMAG2
 40
0.0
  9
$LOFTPARAM
 70
7
  9
$LOFTNORMALS
280
1
  9
$LATITUDE
 40
37.795
  9
$LONGITUDE
 40
-122.394
  9
$NORTHDIRECTION
 40
0.0
  9
$TIMEZONE
 70
-8000
  9
$LIGHTGLYPHDISPLAY
280
1
  9
$TILEMODELIGHTSYNCH
280
1
  9
$CMATERIAL
347
20
  9
$SOLIDHIST
280
0
  9
$SHOWHIST
280
1
  9
$DWFFRAME
280
2
  9
$DGNFRAME
280
2
  9
$REALWORLDSCALE
290
1
  9
$INTERFERECOLOR
 62
256
  9
$CSHADOW
280
0
  9
$SHADOWPLANELOCATION
 40
0.0
  0
ENDSEC
  0
SECTION
  2
CLASSES
  0
CLASS
  1
ACDBDICTIONARYWDFLT
  2
AcDbDictionaryWithDefault
  3
ObjectDBX Classes
 90
0
 91
0
280
0
281
0
  0
CLASS
  1
SUN
  2
AcDbSun
  3
SCENEOE
 90
1153
 91
0
280
0
281
0
  0
CLASS
  1
VISUALSTYLE
  2
AcDbVisualStyle
  3
ObjectDBX Classes
 90
4095
 91
0
280
0
281
0
  0
CLASS
  1
MATERIAL
  2
AcDbMaterial
  3
ObjectDBX Classes
 90
1153
 91
0
280
0
281
0
  0
CLASS
  1
SCALE
  2
AcDbScale
  3
ObjectDBX Classes
 90
1153
 91
0
280
0
281
0
  0
CLASS
  1
TABLESTYLE
  2
AcDbTableStyle
  3
ObjectDBX Classes
 90
4095
 91
0
280
0
281
0
  0
CLASS
  1
MLEADERSTYLE
  2
AcDbMLeaderStyle
  3
ACDB_MLEADERSTYLE_CLASS
 90
4095
 91
0
280
0
281
0
  0
CLASS
  1
DICTIONARYVAR
  2
AcDbDictionaryVar
  3
ObjectDBX Classes
 90
0
 91
0
280
0
281
0
  0
CLASS
  1
CELLSTYLEMAP
  2
AcDbCellStyleMap
  3
ObjectDBX Classes
 90
1152
 91
0
280
0
281
0
  0
CLASS
  1
MENTALRAYRENDERSETTINGS
  2
AcDbMentalRayRenderSettings
  3
SCENEOE
 90
1024
 91
0
280
0
281
0
  0
CLASS
  1
ACDBDETAILVIEWSTYLE
  2
AcDbDetailViewStyle
  3
ObjectDBX Classes
 90
1025
 91
0
280
0
281
0
  0
CLASS
  1
ACDBSECTIONVIEWSTYLE
  2
AcDbSectionViewStyle
  3
ObjectDBX Classes
 90
1025
 91
0
280
0
281
0
  0
CLASS
  1
RASTERVARIABLES
  2
AcDbRasterVariables
  3
ISM
 90
0
 91
0
280
0
281
0
  0
CLASS
  1
LAYOUT
  2
AcDbLayout
  3
ObjectDBX Classes
 90
0
 91
0
280
0
281
0
  0
CLASS
  1
ACDBPLACEHOLDER
  2
AcDbPlaceHolder
  3
ObjectDBX Classes
 90
0
 91
0
280
0
281
0
  0
ENDSEC
  0
SECTION
  2
TABLES
  0
TABLE
  2
VPORT
  5
8
330
0
100
AcDbSymbolTable
 70
1
  0
VPORT
  5
2AE
330
8
100
AcDbSymbolTableRecord
100
AcDbViewportTableRecord
  2
*Active
 70
0
 10
0.0
 20
0.0
 11
1.0
 21
1.0
 12
5.0054595135407e-08
 22
-0.024094752119594887
 13
0.0
 23
0.0
 14
0.5
 24
0.5
 15
0.5
 25
0.5
 16
0.0
 26
0.0
 36
1.0
 17
0.0
 27
0.0
 37
0.0
 40
137.81961672313776
 41
1.34
 42
50.0
 43
0.0
 44
0.0
 50
0.0
 51
0.0
 71
0
 72
1000
 73
1
 74
3
 75
0
 76
0
 77
0
 78
0
281
0
 65
1
110
0.0
120
0.0
130
0.0
111
1.0
121
0.0
131
0.0
112
0.0
122
1.0
132
0.0
 79
0
146
0.0
  0
ENDTAB
  0
TABLE
  2
LTYPE
  5
2
330
0
100
AcDbSymbolTable
 70
3
  0
LTYPE
  5
24
330
2
100
AcDbSymbolTableRecord
100
AcDbLinetypeTableRecord
  2
ByBlock
 70
0
  3

 72
65
 73
0
 40
0.0
  0
LTYPE
  5
25
330
2
100
AcDbSymbolTableRecord
100
AcDbLinetypeTableRecord
  2
ByLayer
 70
0
  3

 72
65
 73
0
 40
0.0
  0
LTYPE
  5
26
330
2
100
AcDbSymbolTableRecord
100
AcDbLinetypeTableRecord
  2
Continuous
 70
0
  3

 72
65
 73
0
 40
0.0
  0
ENDTAB
  0
TABLE
  2
LAYER
  5
1
330
0
100
AcDbSymbolTable
 70
3
  0
LAYER
  5
27
330
1
100
AcDbSymbolTableRecord
100
AcDbLayerTableRecord
  2
0
 70
0
 62
7
  6
Continuous
370
-3
390
13
347
21
  0
LAYER
  5
28
330
1
100
AcDbSymbolTableRecord
100
AcDbLayerTableRecord
  2
Defpoints
 70
0
 62
7
  6
Continuous
290
0
370
-3
390
13
347
21
  0
LAYER
  5
2F
330
1
100
AcDbSymbolTableRecord
100
AcDbLayerTableRecord
  2
visible
 70
0
 62
7
  6
Continuous
370
-3
390
13
347
21
  0
ENDTAB
  0
TABLE
  2
STYLE
  5
5
330
0
100
AcDbSymbolTable
 70
1
  0
STYLE
  5
29
330
5
100
AcDbSymbolTableRecord
100
AcDbTextStyleTableRecord
  2
Standard
 70
0
 40
0.0
 41
1.0
 50
0.0
 71
0
 42
2.5
  3
txt
  4

  0
ENDTAB
  0
TABLE
  2
VIEW
  5
7
330
0
100
AcDbSymbolTable
 70
0
  0
ENDTAB
  0
TABLE
  2
UCS
  5
6
330
0
100
AcDbSymbolTable
 70
0
  0
ENDTAB
  0
TABLE
  2
APPID
  5
3
330
0
100
AcDbSymbolTable
 70
3
  0
APPID
  5
2A
330
3
100
AcDbSymbolTableRecord
100
AcDbRegAppTableRecord
  2
ACAD
 70
0
  0
APPID
  5
2AF
330
3
100
AcDbSymbolTableRecord
100
AcDbRegAppTableRecord
  2
HATCHBACKGROUNDCOLOR
 70
0
  0
APPID
  5
2B0
330
3
100
AcDbSymbolTableRecord
100
AcDbRegAppTableRecord
  2
EZDXF
 70
0
  0
ENDTAB
  0
TABLE
  2
DIMSTYLE
  5
4
330
0
100
AcDbSymbolTable
 70
1
100
AcDbDimStyleTable
  0
DIMSTYLE
105
2B
330
4
100
AcDbSymbolTableRecord
100
AcDbDimStyleTableRecord
  2
Standard
 70
0
 40
1.0
 41
2.5
 42
0.625
 43
3.75
 44
1.25
 45
0.0
 46
0.0
 47
0.0
 48
0.0
 49
2.5
140
2.5
141
2.5
142
0.0
143
0.03937007874
144
1.0
145
0.0
146
1.0
147
0.625
148
0.0
 69
0
 70
0
 71
0
 72
0
 73
0
 74
0
 75
0
 76
0
 77
1
 78
8
 79
3
170
0
171
3
172
1
173
0
174
0
175
0
176
0
177
0
178
0
179
2
271
2
272
2
273
2
274
3
275
0
276
0
277
2
278
44
279
0
280
0
281
0
282
0
283
0
284
8
285
0
286
0
288
0
289
3
290
0
371
-2
372
-2
  0
ENDTAB
  0
TABLE
  2
BLOCK_RECORD
  5
9
330
0
100
AcDbSymbolTable
 70
2
  0
BLOCK_RECORD
  5
17
330
9
100
AcDbSymbolTableRecord
100
AcDbBlockTableRecord
  2
*Model_Space
340
1A
 70
0
280
1
281
0
  0
BLOCK_RECORD
  5
1B
330
9
100
AcDbSymbolTableRecord
100
AcDbBlockTableRecord
  2
*Paper_Space
340
1E
 70
0
280
1
281
0
  0
ENDTAB
  0
ENDSEC
  0
SECTION
  2
BLOCKS
  0
BLOCK
  5
18
330
17
100
AcDbEntity
  8
0
100
AcDbBlockBegin
  2
*Model_Space
 70
0
 10
0.0
 20
0.0
 30
0.0
  3
*Model_Space
  1

  0
ENDBLK
  5
19
330
17
100
AcDbEntity
  8
0
100
AcDbBlockEnd
  0
BLOCK
  5
1C
330
1B
100
AcDbEntity
  8
0
100
AcDbBlockBegin
  2
*Paper_Space
 70
0
 10
0.0
 20
0.0
 30
0.0
  3
*Paper_Space
  1

  0
ENDBLK
  5
1D
330
1B
100
AcDbEntity
  8
0
100
AcDbBlockEnd
  0
ENDSEC
  0
SECTION
  2
ENTITIES
  0
LINE
  5
30
330
17
100
AcDbEntity
  8
visible
100
AcDbLine
 10
-59.99999994744745
 20
-67.85791848009849
 30
0.0
 11
-59.99999994744745
 21
-66.55672123381578
 31
0.0
  0
ELLIPSE
  5
31
330
17
100
AcDbEntity
  8
visible
100
AcDbEllipse
 10
38.00000005255255
 20
-35.66064448382106
 30
0.0
 11
22.0
 21
0.0
 31
0.0
 40
0.013011911400861748
 41
-2.1330742903558075e-05
 42
5.004974212852176e-11
  0
ELLIPSE
  5
32
330
17
100
AcDbEntity
  8
visible
100
AcDbEllipse
 10
38.000000047547545
 20
-34.359453343734884
 30
0.0
 11
22.0
 21
0.0
 31
0.0
 40
0.013011911400861748
 41
-6.283185307129536
 42
-4.712388980334639
  0
LINE
  5
33
330
17
100
AcDbEntity
  8
visible
100
AcDbLine
 10
38.000000046446445
 20
-34.07319129291593
 30
0.0
 11
-37.999999953553555
 21
-34.073191292965426
 31
0.0
  0
ELLIPSE
  5
34
330
17
100
AcDbEntity
  8
visible
100
AcDbEllipse
 10
-37.999999952452455
 20
-34.35945334378438
 30
0.0
 11
22.0
 21
0.0
 31
0.0
 40
0.013011911400861748
 41
-4.712388980334639
 42
-3.141592653539743
  0
LINE
  5
35
330
17
100
AcDbEntity
  8
visible
100
AcDbLine
 10
60.00000005255255
 20
-67.85791848002034
 30
0.0
 11
60.00000005255255
 21
-35.660644483806735
 31
0.0
  0
LINE
  5
36
330
17
100
AcDbEntity
  8
visible
100
AcDbLine
 10
60.000000047547545
 20
-66.55672733993417
 30
0.0
 11
60.000000047547545
 21
-34.35945334372056
 31
0.0
  0
ELLIPSE
  5
37
330
17
100
AcDbEntity
  8
visible
100
AcDbEllipse
 10
-21.99999995355355
 20
-54.071498122901346
 30
0.0
 11
3.0
 21
1.1539438540510875e-08
 31
0.0
 40
0.9999153414973171
 41
4.712388976538536
 42
6.283185307179586
  0
ELLIPSE
  5
38
330
17
100
AcDbEntity
  8
visible
100
AcDbEllipse
 10
-21.99999995355355
 20
-54.071498122901346
 30
0.0
 11
3.0
 21
1.1539438540510875e-08
 31
0.0
 40
0.9999153414973171
 41
0.0
 42
3.141592653589793
  0
ELLIPSE
  5
39
330
17
100
AcDbEntity
  8
visible
100
AcDbEllipse
 10
-21.99999995355355
 20
-54.071498122901346
 30
0.0
 11
3.0
 21
1.1539438540510875e-08
 31
0.0
 40
0.9999153414973171
 41
3.141592653589793
 42
4.712388976538536
  0
LINE
  5
3A
330
17
100
AcDbEntity
  8
visible
100
AcDbLine
 10
-59.999999952452455
 20
-66.55672734001232
 30
0.0
 11
-59.999999952452455
 21
-34.359453343798705
 31
0.0
  0
LINE
  5
3B
330
17
100
AcDbEntity
  8
visible
100
AcDbLine
 10
-59.399999952452454
 20
-34.259461809648585
 30
0.0
 11
-59.39999995232324
 21
-34.29305433634125
 31
0.0
  0
ELLIPSE
  5
3C
330
17
100
AcDbEntity
  8
visible
100
AcDbEllipse
 10
-58.899999952452454
 20
-34.25946180964826
 30
0.0
 11
0.5
 21
1.92323740381775e-09
 31
0.0
 40
0.9999153414973171
 41
3.141592649743644
 42
3.20871095920845
  0
LINE
  5
3D
330
17
100
AcDbEntity
  8
visible
100
AcDbLine
 10
59.400000047676755
 20
-34.293054336564865
 30
0.0
 11
59.40000004754754
 21
-34.25946180957122
 31
0.0
  0
ELLIPSE
  5
3E
330
17
100
AcDbEntity
  8
visible
100
AcDbEllipse
 10
58.90000004754754
 20
-34.25946180957155
 30
0.0
 11
-0.5
 21
-1.923239756751845e-09
 31
0.0
 40
0.9999153414973171
 41
-3.2087109669564104
 42
-3.141592657435947
  0
LINE
  5
3F
330
17
100
AcDbEntity
  8
visible
100
AcDbLine
 10
-27.49999995076076
 20
-67.79646221853814
 30
0.0
 11
-27.499999950660662
 21
-67.82248604133986
 31
0.0
  0
LINE
  5
40
330
17
100
AcDbEntity
  8
visible
100
AcDbLine
 10
-27.49999995076076
 20
-67.79646221853812
 30
0.0
 11
-22.49999995076076
 21
-67.79646221853487
 31
0.0
  0
LINE
  5
41
330
17
100
AcDbEntity
  8
visible
100
AcDbLine
 10
-27.499999950660666
 20
-67.82248604133986
 30
0.0
 11
-22.499999950660666
 21
-67.8224860413366
 31
0.0
  0
LINE
  5
42
330
17
100
AcDbEntity
  8
visible
100
AcDbLine
 10
-22.49999995076076
 20
-67.79646221853488
 30
0.0
 11
-22.499999950660662
 21
-67.8224860413366
 31
0.0
  0
ELLIPSE
  5
43
330
17
100
AcDbEntity
  8
visible
100
AcDbEllipse
 10
-24.9999999512012
 20
-67.68195739820892
 30
0.0
 11
3.0
 21
0.0
 31
0.0
 40
0.013011911400861748
 41
-6.283185307179586
 42
-4.712388980334639
  0
ELLIPSE
  5
44
330
17
100
AcDbEntity
  8
visible
100
AcDbEllipse
 10
-24.9999999512012
 20
-67.68195739820892
 30
0.0
 11
3.0
 21
0.0
 31
0.0
 40
0.013011911400861748
 41
-3.1415926535897936
 42
-0.0
  0
ELLIPSE
  5
45
330
17
100
AcDbEntity
  8
visible
100
AcDbEllipse
 10
-24.9999999512012
 20
-67.68195739820892
 30
0.0
 11
3.0
 21
0.0
 31
0.0
 40
0.013011911400861748
 41
-4.712388980334639
 42
-3.1415926535897936
  0
ELLIPSE
  5
46
330
17
100
AcDbEntity
  8
visible
100
AcDbEllipse
 10
5.005005063493981e-08
 20
-68.00725518321418
 30
0.0
 11
3.4
 21
0.0
 31
0.0
 40
0.013011911400861746
 41
-6.283185307179586
 42
-4.712388980334639
  0
ELLIPSE
  5
47
330
17
100
AcDbEntity
  8
visible
100
AcDbEllipse
 10
5.005005063493981e-08
 20
-68.00725518321418
 30
0.0
 11
3.4
 21
0.0
 31
0.0
 40
0.013011911400861746
 41
-3.1415926535897936
 42
-0.0
  0
ELLIPSE
  5
48
330
17
100
AcDbEntity
  8
visible
100
AcDbEllipse
 10
5.005005063493981e-08
 20
-68.00725518321418
 30
0.0
 11
3.4
 21
0.0
 31
0.0
 40
0.013011911400861746
 41
-4.712388980334639
 42
-3.1415926535897936
  0
LINE
  5
49
330
17
100
AcDbEntity
  8
visible
100
AcDbLine
 10
-27.49999995174174
 20
-67.54142875508124
 30
0.0
 11
-27.49999995164164
 21
-67.56745257788296
 31
0.0
  0
LINE
  5
4A
330
17
100
AcDbEntity
  8
visible
100
AcDbLine
 10
-27.499999951741742
 20
-67.54142875508124
 30
0.0
 11
-22.499999951741742
 21
-67.54142875507799
 31
0.0
  0
LINE
  5
4B
330
17
100
AcDbEntity
  8
visible
100
AcDbLine
 10
-27.49999995164164
 20
-67.56745257788296
 30
0.0
 11
-22.49999995164164
 21
-67.5674525778797
 31
0.0
  0
LINE
  5
4C
330
17
100
AcDbEntity
  8
visible
100
AcDbLine
 10
-22.49999995174174
 20
-67.54142875507799
 30
0.0
 11
-22.49999995164164
 21
-67.5674525778797
 31
0.0
  0
LINE
  5
4D
330
17
100
AcDbEntity
  8
visible
100
AcDbLine
 10
-29.499999953078078
 20
-67.19401072067953
 30
0.0
 11
-29.499999952927926
 21
-67.23304645488211
 31
0.0
  0
LINE
  5
4E
330
17
100
AcDbEntity
  8
visible
100
AcDbLine
 10
-29.49999995307808
 20
-67.19401072067953
 30
0.0
 11
-26.49999995307808
 21
-67.19401072067758
 31
0.0
  0
LINE
  5
4F
330
17
100
AcDbEntity
  8
visible
100
AcDbLine
 10
-29.49999995292793
 20
-67.23304645488211
 30
0.0
 11
-26.49999995292793
 21
-67.23304645488017
 31
0.0
  0
LINE
  5
50
330
17
100
AcDbEntity
  8
visible
100
AcDbLine
 10
-26.499999953078078
 20
-67.19401072067758
 30
0.0
 11
-26.499999952927926
 21
-67.23304645488017
 31
0.0
  0
LINE
  5
51
330
17
100
AcDbEntity
  8
visible
100
AcDbLine
 10
-17.499999953078078
 20
-67.19401072067171
 30
0.0
 11
-17.499999952927926
 21
-67.2330464548743
 31
0.0
  0
LINE
  5
52
330
17
100
AcDbEntity
  8
visible
100
AcDbLine
 10
-17.49999995307808
 20
-67.19401072067171
 30
0.0
 11
-14.499999953078081
 21
-67.19401072066977
 31
0.0
  0
LINE
  5
53
330
17
100
AcDbEntity
  8
visible
100
AcDbLine
 10
-17.49999995292793
 20
-67.2330464548743
 30
0.0
 11
-14.49999995292793
 21
-67.23304645487235
 31
0.0
  0
LINE
  5
54
330
17
100
AcDbEntity
  8
visible
100
AcDbLine
 10
-14.499999953078078
 20
-67.19401072066977
 30
0.0
 11
-14.499999952927928
 21
-67.23304645487235
 31
0.0
  0
LINE
  5
55
330
17
100
AcDbEntity
  8
visible
100
AcDbLine
 10
9.500000047672671
 20
-67.38918939166706
 30
0.0
 11
12.500000047672671
 21
-67.38918939166511
 31
0.0
  0
LINE
  5
56
330
17
100
AcDbEntity
  8
visible
100
AcDbLine
 10
9.50000004767267
 20
-67.38918939166706
 30
0.0
 11
9.50000004752252
 21
-67.35015365746447
 31
0.0
  0
LINE
  5
57
330
17
100
AcDbEntity
  8
visible
100
AcDbLine
 10
12.50000004767267
 20
-67.38918939166511
 30
0.0
 11
12.50000004752252
 21
-67.35015365746253
 31
0.0
  0
LINE
  5
58
330
17
100
AcDbEntity
  8
visible
100
AcDbLine
 10
9.50000004752252
 20
-67.35015365746447
 30
0.0
 11
12.50000004752252
 21
-67.35015365746253
 31
0.0
  0
LINE
  5
59
330
17
100
AcDbEntity
  8
visible
100
AcDbLine
 10
9.500000046921922
 20
-67.19401072065413
 30
0.0
 11
12.500000046921922
 21
-67.19401072065219
 31
0.0
  0
LINE
  5
5A
330
17
100
AcDbEntity
  8
visible
100
AcDbLine
 10
9.50000004692192
 20
-67.19401072065415
 30
0.0
 11
9.500000046771772
 21
-67.15497498645156
 31
0.0
  0
LINE
  5
5B
330
17
100
AcDbEntity
  8
visible
100
AcDbLine
 10
12.50000004692192
 20
-67.19401072065219
 30
0.0
 11
12.500000046771772
 21
-67.1549749864496
 31
0.0
  0
LINE
  5
5C
330
17
100
AcDbEntity
  8
visible
100
AcDbLine
 10
9.500000046771774
 20
-67.15497498645155
 30
0.0
 11
12.500000046771774
 21
-67.1549749864496
 31
0.0
  0
LINE
  5
5D
330
17
100
AcDbEntity
  8
visible
100
AcDbLine
 10
27.50000004767267
 20
-67.38918939165535
 30
0.0
 11
30.50000004767267
 21
-67.38918939165339
 31
0.0
  0
LINE
  5
5E
330
17
100
AcDbEntity
  8
visible
100
AcDbLine
 10
27.500000047672668
 20
-67.38918939165534
 30
0.0
 11
27.50000004752252
 21
-67.35015365745275
 31
0.0
  0
LINE
  5
5F
330
17
100
AcDbEntity
  8
visible
100
AcDbLine
 10
30.500000047672668
 20
-67.38918939165339
 30
0.0
 11
30.50000004752252
 21
-67.3501536574508
 31
0.0
  0
LINE
  5
60
330
17
100
AcDbEntity
  8
visible
100
AcDbLine
 10
27.50000004752252
 20
-67.35015365745276
 30
0.0
 11
30.50000004752252
 21
-67.3501536574508
 31
0.0
  0
LINE
  5
61
330
17
100
AcDbEntity
  8
visible
100
AcDbLine
 10
27.50000004692192
 20
-67.19401072064242
 30
0.0
 11
30.50000004692192
 21
-67.19401072064046
 31
0.0
  0
LINE
  5
62
330
17
100
AcDbEntity
  8
visible
100
AcDbLine
 10
27.500000046921922
 20
-67.19401072064242
 30
0.0
 11
27.500000046771774
 21
-67.15497498643984
 31
0.0
  0
LINE
  5
63
330
17
100
AcDbEntity
  8
visible
100
AcDbLine
 10
30.500000046921922
 20
-67.19401072064046
 30
0.0
 11
30.500000046771774
 21
-67.15497498643788
 31
0.0
  0
LINE
  5
64
330
17
100
AcDbEntity
  8
visible
100
AcDbLine
 10
27.50000004677177
 20
-67.15497498643984
 30
0.0
 11
30.50000004677177
 21
-67.15497498643788
 31
0.0
  0
LINE
  5
65
330
17
100
AcDbEntity
  8
visible
100
AcDbLine
 10
-59.999999952452455
 20
-66.55672734001232
 30
0.0
 11
-59.99999994744745
 21
-67.85791848009849
 31
0.0
  0
LINE
  5
66
330
17
100
AcDbEntity
  8
visible
100
AcDbLine
 10
60.00000005255255
 20
-67.85791848002034
 30
0.0
 11
60.000000047547545
 21
-66.55672733993417
 31
0.0
  0
ELLIPSE
  5
67
330
17
100
AcDbEntity
  8
visible
100
AcDbEllipse
 10
-21.999999953403403
 20
-54.11053385710393
 30
0.0
 11
3.0
 21
1.1539438540510875e-08
 31
0.0
 40
0.9999153414973171
 41
0.006506552440840752
 42
3.1350861011490236
  0
LINE
  5
68
330
17
100
AcDbEntity
  8
visible
100
AcDbLine
 10
-59.399999952452454
 20
-34.259461809648585
 30
0.0
 11
-59.399999952452454
 21
-33.259546468151264
 31
0.0
  0
LINE
  5
69
330
17
100
AcDbEntity
  8
visible
100
AcDbLine
 10
59.40000004754754
 20
-34.25946180957122
 30
0.0
 11
59.40000004754754
 21
-33.2595464680739
 31
0.0
  0
LINE
  5
6A
330
17
100
AcDbEntity
  8
visible
100
AcDbLine
 10
-27.49999995066066
 20
-67.82248604133986
 30
0.0
 11
-27.49999995066066
 21
-67.79646221853812
 31
0.0
  0
LINE
  5
6B
330
17
100
AcDbEntity
  8
visible
100
AcDbLine
 10
-22.49999995066066
 20
-67.8224860413366
 30
0.0
 11
-22.49999995066066
 21
-67.79646221853487
 31
0.0
  0
LINE
  5
6C
330
17
100
AcDbEntity
  8
visible
100
AcDbLine
 10
-27.49999995164164
 20
-67.56745257788297
 30
0.0
 11
-27.49999995164164
 21
-67.54142875508124
 31
0.0
  0
LINE
  5
6D
330
17
100
AcDbEntity
  8
visible
100
AcDbLine
 10
-22.49999995164164
 20
-67.56745257787972
 30
0.0
 11
-22.49999995164164
 21
-67.54142875507799
 31
0.0
  0
LINE
  5
6E
330
17
100
AcDbEntity
  8
visible
100
AcDbLine
 10
-29.499999952927926
 20
-67.23304645488213
 30
0.0
 11
-29.499999952927926
 21
-67.19401072067954
 31
0.0
  0
LINE
  5
6F
330
17
100
AcDbEntity
  8
visible
100
AcDbLine
 10
-26.499999952927926
 20
-67.23304645488017
 30
0.0
 11
-26.499999952927926
 21
-67.19401072067758
 31
0.0
  0
LINE
  5
70
330
17
100
AcDbEntity
  8
visible
100
AcDbLine
 10
-17.499999952927926
 20
-67.23304645487431
 30
0.0
 11
-17.499999952927926
 21
-67.19401072067173
 31
0.0
  0
LINE
  5
71
330
17
100
AcDbEntity
  8
visible
100
AcDbLine
 10
-14.499999952927928
 20
-67.23304645487235
 30
0.0
 11
-14.499999952927928
 21
-67.19401072066977
 31
0.0
  0
LINE
  5
72
330
17
100
AcDbEntity
  8
visible
100
AcDbLine
 10
9.500000047672668
 20
-67.38918939166707
 30
0.0
 11
9.500000047672668
 21
-67.35015365746449
 31
0.0
  0
LINE
  5
73
330
17
100
AcDbEntity
  8
visible
100
AcDbLine
 10
12.500000047672668
 20
-67.38918939166511
 30
0.0
 11
12.500000047672668
 21
-67.35015365746253
 31
0.0
  0
LINE
  5
74
330
17
100
AcDbEntity
  8
visible
100
AcDbLine
 10
9.500000046921919
 20
-67.19401072065415
 30
0.0
 11
9.500000046921919
 21
-67.15497498645156
 31
0.0
  0
LINE
  5
75
330
17
100
AcDbEntity
  8
visible
100
AcDbLine
 10
12.500000046921919
 20
-67.19401072065219
 30
0.0
 11
12.500000046921919
 21
-67.1549749864496
 31
0.0
  0
LINE
  5
76
330
17
100
AcDbEntity
  8
visible
100
AcDbLine
 10
27.500000047672668
 20
-67.38918939165535
 30
0.0
 11
27.500000047672668
 21
-67.35015365745276
 31
0.0
  0
LINE
  5
77
330
17
100
AcDbEntity
  8
visible
100
AcDbLine
 10
30.500000047672668
 20
-67.38918939165339
 30
0.0
 11
30.500000047672668
 21
-67.3501536574508
 31
0.0
  0
LINE
  5
78
330
17
100
AcDbEntity
  8
visible
100
AcDbLine
 10
27.50000004692192
 20
-67.19401072064242
 30
0.0
 11
27.50000004692192
 21
-67.15497498643984
 31
0.0
  0
LINE
  5
79
330
17
100
AcDbEntity
  8
visible
100
AcDbLine
 10
30.50000004692192
 20
-67.19401072064046
 30
0.0
 11
30.50000004692192
 21
-67.15497498643788
 31
0.0
  0
ELLIPSE
  5
7A
330
17
100
AcDbEntity
  8
visible
100
AcDbEllipse
 10
-37.999999952452455
 20
-33.1595549339876
 30
0.0
 11
21.389897948556634
 21
0.0
 31
0.0
 40
0.013011911400861748
 41
-3.144248926881865
 42
-3.141592653539743
  0
ELLIPSE
  5
7B
330
17
100
AcDbEntity
  8
visible
100
AcDbEllipse
 10
-37.999999952452455
 20
-33.1595549339876
 30
0.0
 11
21.389897948556634
 21
0.0
 31
0.0
 40
0.013011911400861748
 41
-4.712388980334639
 42
-3.144248926881865
  0
ELLIPSE
  5
7C
330
17
100
AcDbEntity
  8
visible
100
AcDbEllipse
 10
-58.899999952452454
 20
-33.25954646815094
 30
0.0
 11
-0.5
 21
-1.92323740381775e-09
 31
0.0
 40
0.9999153414973171
 41
-0.20135792463648158
 42
-3.846149170837677e-09
  0
ELLIPSE
  5
7D
330
17
100
AcDbEntity
  8
visible
100
AcDbEllipse
 10
38.00000005255256
 20
-34.46074607402428
 30
0.0
 11
21.389897948556634
 21
0.0
 31
0.0
 40
0.013011911400861748
 41
-0.4772318809892111
 42
5.004974212852176e-11
  0
LINE
  5
7E
330
17
100
AcDbEntity
  8
visible
100
AcDbLine
 10
38.000000046476984
 20
-32.881231476958014
 30
0.0
 11
-37.999999953523016
 21
-32.88123147700751
 31
0.0
  0
LINE
  5
7F
330
17
100
AcDbEntity
  8
visible
100
AcDbLine
 10
59.40000005152291
 20
-34.293054336564865
 30
0.0
 11
59.40000004754754
 21
-33.2595464680739
 31
0.0
  0
ELLIPSE
  5
80
330
17
100
AcDbEntity
  8
visible
100
AcDbEllipse
 10
58.90000004754754
 20
-33.25954646807423
 30
0.0
 11
0.5
 21
1.923239756751845e-09
 31
0.0
 40
0.9999153414973171
 41
-3.846153617814707e-09
 42
0.20135791694417854
  0
ELLIPSE
  5
81
330
17
100
AcDbEntity
  8
visible
100
AcDbEllipse
 10
38.00000004754755
 20
-33.159554933938104
 30
0.0
 11
21.389897948556634
 21
0.0
 31
0.0
 40
0.013011911400861748
 41
-6.280529033887515
 42
-4.71238898033464
  0
ELLIPSE
  5
82
330
17
100
AcDbEntity
  8
visible
100
AcDbEllipse
 10
38.00000004754755
 20
-33.159554933938104
 30
0.0
 11
21.389897948556634
 21
0.0
 31
0.0
 40
0.013011911400861748
 41
-6.2831853071295365
 42
-6.280529033887515
  0
ELLIPSE
  5
83
330
17
100
AcDbEntity
  8
visible
100
AcDbEllipse
 10
-37.999999952452455
 20
-27.360045953303164
 30
0.0
 11
-21.2
 21
-0.0
 31
0.0
 40
0.013011911400861746
 41
4.712388980434739
 42
6.283185307229636
  0
ELLIPSE
  5
84
330
17
100
AcDbEntity
  8
visible
100
AcDbEllipse
 10
38.000000047547545
 20
-27.360045953253668
 30
0.0
 11
-21.2
 21
-0.0
 31
0.0
 40
0.013011911400861746
 41
3.1415926536398433
 42
4.71238898043474
  0
LINE
  5
85
330
17
100
AcDbEntity
  8
visible
100
AcDbLine
 10
38.000000046486484
 20
-27.0841934315554
 30
0.0
 11
-37.999999953513516
 21
-27.084193431604895
 31
0.0
  0
ELLIPSE
  5
86
330
17
100
AcDbEntity
  8
visible
100
AcDbEllipse
 10
38.00000005255255
 20
-34.46074607402428
 30
0.0
 11
22.0
 21
0.0
 31
0.0
 40
0.013011911400861748
 41
-2.1330742903558075e-05
 42
5.004974212852176e-11
  0
LINE
  5
87
330
17
100
AcDbEntity
  8
visible
100
AcDbLine
 10
60.00000005255255
 20
-34.460746074009954
 30
0.0
 11
60.000000047547545
 21
-33.15955493392378
 31
0.0
  0
ELLIPSE
  5
88
330
17
100
AcDbEntity
  8
visible
100
AcDbEllipse
 10
38.000000047547545
 20
-33.159554933938104
 30
0.0
 11
22.0
 21
0.0
 31
0.0
 40
0.013011911400861748
 41
-6.283185307129536
 42
-4.712388980334639
  0
LINE
  5
89
330
17
100
AcDbEntity
  8
visible
100
AcDbLine
 10
38.000000046446445
 20
-32.87329288311915
 30
0.0
 11
-37.999999953553555
 21
-32.873292883168645
 31
0.0
  0
ELLIPSE
  5
8A
330
17
100
AcDbEntity
  8
visible
100
AcDbEllipse
 10
-37.999999952452455
 20
-33.1595549339876
 30
0.0
 11
22.0
 21
0.0
 31
0.0
 40
0.013011911400861748
 41
-4.712388980334639
 42
-3.141592653539743
  0
LINE
  5
8B
330
17
100
AcDbEntity
  8
visible
100
AcDbLine
 10
-59.9999999478371
 20
-34.35944658547995
 30
0.0
 11
-59.999999952452455
 21
-33.159554934001925
 31
0.0
  0
ELLIPSE
  5
8C
330
17
100
AcDbEntity
  8
visible
100
AcDbEllipse
 10
-24.9999999512012
 20
-56.68288864173843
 30
0.0
 11
8.8
 21
0.0
 31
0.0
 40
0.013011911400861748
 41
-5.2673190965102235
 42
-4.865178771349617
  0
LINE
  5
8D
330
17
100
AcDbEntity
  8
visible
100
AcDbLine
 10
60.00000005255255
 20
-29.461169366523364
 30
0.0
 11
60.000000047547545
 21
-28.15997822643719
 31
0.0
  0
LINE
  5
8E
330
17
100
AcDbEntity
  8
visible
100
AcDbLine
 10
60.00000005255255
 20
-34.460746074009954
 30
0.0
 11
60.00000005255255
 21
-29.461169366523364
 31
0.0
  0
LINE
  5
8F
330
17
100
AcDbEntity
  8
visible
100
AcDbLine
 10
60.000000047547545
 20
-33.15955493392378
 30
0.0
 11
60.000000047547545
 21
-28.15997822643719
 31
0.0
  0
LINE
  5
90
330
17
100
AcDbEntity
  8
visible
100
AcDbLine
 10
-59.999999952452455
 20
-33.159554934001925
 30
0.0
 11
-59.999999952452455
 21
-28.159978226515335
 31
0.0
  0
LINE
  5
91
330
17
100
AcDbEntity
  8
visible
100
AcDbLine
 10
60.00000005255255
 20
-27.861304820127664
 30
0.0
 11
60.00000005255255
 21
-25.461508000534103
 31
0.0
  0
LINE
  5
92
330
17
100
AcDbEntity
  8
visible
100
AcDbLine
 10
-59.999999952452455
 20
-26.560113680119635
 30
0.0
 11
-59.99999994744745
 21
-27.86130482020581
 31
0.0
  0
LINE
  5
93
330
17
100
AcDbEntity
  8
visible
100
AcDbLine
 10
-59.999999952452455
 20
-26.560113680119635
 30
0.0
 11
-59.999999952452455
 21
-24.160316860526073
 31
0.0
  0
LINE
  5
94
330
17
100
AcDbEntity
  8
visible
100
AcDbLine
 10
60.00000005255255
 20
-27.861304820127664
 30
0.0
 11
60.000000047547545
 21
-26.56011368004149
 31
0.0
  0
LINE
  5
95
330
17
100
AcDbEntity
  8
visible
100
AcDbLine
 10
60.00000005255255
 20
-25.461508000534096
 30
0.0
 11
60.000000047547545
 21
-24.16031686044792
 31
0.0
  0
LINE
  5
96
330
17
100
AcDbEntity
  8
visible
100
AcDbLine
 10
60.000000047547545
 20
-26.56011368004149
 30
0.0
 11
60.000000047547545
 21
-24.160316860447928
 31
0.0
  0
LINE
  5
97
330
17
100
AcDbEntity
  8
visible
100
AcDbLine
 10
-19.99999995225225
 20
-6.213888359151767
 30
0.0
 11
-19.99999995205205
 21
-6.265936004755214
 31
0.0
  0
ELLIPSE
  5
98
330
17
100
AcDbEntity
  8
visible
100
AcDbEllipse
 10
-19.19999995225225
 20
-6.213888359151248
 30
0.0
 11
-0.8
 21
-3.0771836108029526e-09
 31
0.0
 40
0.9999153414973172
 41
-6.28318531102574
 42
-5.435392555916548
  0
ELLIPSE
  5
99
330
17
100
AcDbEntity
  8
visible
100
AcDbEllipse
 10
-19.19999995205205
 20
-6.265936004754693
 30
0.0
 11
0.8
 21
3.0771836108029526e-09
 31
0.0
 40
0.9999153414973172
 41
3.141592649743639
 42
3.8963017815451266
  0
ELLIPSE
  5
9A
330
17
100
AcDbEntity
  8
visible
100
AcDbEllipse
 10
-14.999999952252251
 20
-6.213888359148513
 30
0.0
 11
-5.0
 21
-0.0
 31
0.0
 40
0.013011911400861748
 41
4.712388980434739
 42
6.283185307229636
  0
ELLIPSE
  5
9B
330
17
100
AcDbEntity
  8
visible
100
AcDbEllipse
 10
-14.999999952462462
 20
-6.159238331264895
 30
0.0
 11
-5.209974595763849e-13
 21
0.8
 31
0.0
 40
1e-10
 41
-4.725401258987631
 42
-3.154604932192735
  0
LINE
  5
9C
330
17
100
AcDbEntity
  8
visible
100
AcDbLine
 10
-14.9999999518018
 20
-6.330995561756261
 30
0.0
 11
-14.9999999518018
 21
-6.148828802144206
 31
0.0
  0
LINE
  5
9D
330
17
100
AcDbEntity
  8
visible
100
AcDbLine
 10
-19.99999995205205
 20
-6.265936004755211
 30
0.0
 11
-19.99999995205205
 21
-6.213887776946258
 31
0.0
  0
LINE
  5
9E
330
17
100
AcDbEntity
  8
visible
100
AcDbLine
 10
-19.99999995225225
 20
-6.21388835915176
 30
0.0
 11
-19.99999995225225
 21
0.18556982643106945
 31
0.0
  0
LINE
  5
9F
330
17
100
AcDbEntity
  8
visible
100
AcDbLine
 10
15.0000000474975
 20
-6.148828802124669
 30
0.0
 11
6.970915456152214
 21
-6.148828802129898
 31
0.0
  0
LINE
  5
A0
330
17
100
AcDbEntity
  8
visible
100
AcDbLine
 10
-6.970915361157113
 20
-6.148828802138977
 30
0.0
 11
-14.9999999525025
 21
-6.148828802144206
 31
0.0
  0
ELLIPSE
  5
A1
330
17
100
AcDbEntity
  8
visible
100
AcDbEllipse
 10
15.000000047537538
 20
-6.159238331245355
 30
0.0
 11
-5.191794774221672e-13
 21
0.8
 31
0.0
 40
1e-10
 41
-4.725401258987631
 42
-3.154604932192735
  0
ELLIPSE
  5
A2
330
17
100
AcDbEntity
  8
visible
100
AcDbEllipse
 10
19.20000004794795
 20
-6.265936004729689
 30
0.0
 11
-0.8
 21
-3.0771836108029526e-09
 31
0.0
 40
0.9999153414973172
 41
-3.896301789246994
 42
-3.141592657435947
  0
ELLIPSE
  5
A3
330
17
100
AcDbEntity
  8
visible
100
AcDbEllipse
 10
19.20000004774775
 20
-6.213888359126244
 30
0.0
 11
-0.8
 21
-3.0771836108029526e-09
 31
0.0
 40
0.9999153414973172
 41
-3.9893854125520427
 42
-3.141592657435947
  0
LINE
  5
A4
330
17
100
AcDbEntity
  8
visible
100
AcDbLine
 10
20.00000004794795
 20
-6.26593600472917
 30
0.0
 11
20.00000004774775
 21
-6.213888359125723
 31
0.0
  0
ELLIPSE
  5
A5
330
17
100
AcDbEntity
  8
visible
100
AcDbEllipse
 10
15.000000047747749
 20
-6.21388835912898
 30
0.0
 11
-5.0
 21
-0.0
 31
0.0
 40
0.013011911400861748
 41
3.1415926536398433
 42
4.71238898043474
  0
ELLIPSE
  5
A6
330
17
100
AcDbEntity
  8
visible
100
AcDbEllipse
 10
-9.9999999518018
 20
7.967793821658631
 30
0.0
 11
0.9
 21
3.4618315621532625e-09
 31
0.0
 40
0.9999153414973171
 41
0.04339032423549294
 42
3.0982023293543017
  0
ELLIPSE
  5
A7
330
17
100
AcDbEntity
  8
visible
100
AcDbEllipse
 10
10.0000000481982
 20
7.967793821671648
 30
0.0
 11
0.9
 21
3.4618315621532625e-09
 31
0.0
 40
0.9999153414973171
 41
0.043390324235508704
 42
3.0982023293542857
  0
ELLIPSE
  5
A8
330
17
100
AcDbEntity
  8
visible
100
AcDbEllipse
 10
-9.9999999518018
 20
54.463857201283886
 30
0.0
 11
0.9
 21
3.4618315621532625e-09
 31
0.0
 40
0.9999153414973171
 41
0.04339032423549294
 42
3.0982023293543017
  0
ELLIPSE
  5
A9
330
17
100
AcDbEntity
  8
visible
100
AcDbEllipse
 10
10.0000000481982
 20
54.463857201296904
 30
0.0
 11
0.9
 21
3.4618315621532625e-09
 31
0.0
 40
0.9999153414973171
 41
0.043390324235508704
 42
3.0982023293542857
  0
LINE
  5
AA
330
17
100
AcDbEntity
  8
visible
100
AcDbLine
 10
20.00000004794795
 20
-6.265936004729163
 30
0.0
 11
20.00000004794795
 21
0.1335221808536664
 31
0.0
  0
LINE
  5
AB
330
17
100
AcDbEntity
  8
visible
100
AcDbLine
 10
20.00000004774775
 20
-6.213888359125711
 30
0.0
 11
20.00000004774775
 21
0.18556982645711795
 31
0.0
  0
LINE
  5
AC
330
17
100
AcDbEntity
  8
visible
100
AcDbLine
 10
-19.99999995184184
 20
11.035202029676967
 30
0.0
 11
-19.99999995184184
 21
11.032863275522828
 31
0.0
  0
LINE
  5
AD
330
17
100
AcDbEntity
  8
visible
100
AcDbLine
 10
20.00000004815816
 20
10.977949375290805
 30
0.0
 11
20.00000004815816
 21
50.47460536443483
 31
0.0
  0
ELLIPSE
  5
AE
330
17
100
AcDbEntity
  8
visible
100
AcDbEllipse
 10
-9.999999952102101
 20
8.045865290063801
 30
0.0
 11
0.9
 21
3.4618315621532625e-09
 31
0.0
 40
0.9999153414973171
 41
5.52711994746735
 42
6.283185307179586
  0
ELLIPSE
  5
AF
330
17
100
AcDbEntity
  8
visible
100
AcDbEllipse
 10
-9.999999952102101
 20
8.045865290063801
 30
0.0
 11
0.9
 21
3.4618315621532625e-09
 31
0.0
 40
0.9999153414973171
 41
0.0
 42
3.141592653589793
  0
ELLIPSE
  5
B0
330
17
100
AcDbEntity
  8
visible
100
AcDbEllipse
 10
-9.999999952102101
 20
8.045865290063801
 30
0.0
 11
0.9
 21
3.4618315621532625e-09
 31
0.0
 40
0.9999153414973171
 41
3.141592653589793
 42
3.897658013302035
  0
ELLIPSE
  5
B1
330
17
100
AcDbEntity
  8
visible
100
AcDbEllipse
 10
10.000000047897899
 20
8.045865290076819
 30
0.0
 11
0.9
 21
3.4618315621532625e-09
 31
0.0
 40
0.9999153414973171
 41
5.5271199474673365
 42
6.283185307179586
  0
ELLIPSE
  5
B2
330
17
100
AcDbEntity
  8
visible
100
AcDbEllipse
 10
10.000000047897899
 20
8.045865290076819
 30
0.0
 11
0.9
 21
3.4618315621532625e-09
 31
0.0
 40
0.9999153414973171
 41
0.0
 42
3.141592653589793
  0
ELLIPSE
  5
B3
330
17
100
AcDbEntity
  8
visible
100
AcDbEllipse
 10
10.000000047897899
 20
8.045865290076819
 30
0.0
 11
0.9
 21
3.4618315621532625e-09
 31
0.0
 40
0.9999153414973171
 41
3.141592653589793
 42
3.8976580133020455
  0
ELLIPSE
  5
B4
330
17
100
AcDbEntity
  8
visible
100
AcDbEllipse
 10
-9.999999952102101
 20
54.54192866968906
 30
0.0
 11
0.9
 21
3.4618315621532625e-09
 31
0.0
 40
0.9999153414973171
 41
5.52711994746735
 42
6.283185307179586
  0
ELLIPSE
  5
B5
330
17
100
AcDbEntity
  8
visible
100
AcDbEllipse
 10
-9.999999952102101
 20
54.54192866968906
 30
0.0
 11
0.9
 21
3.4618315621532625e-09
 31
0.0
 40
0.9999153414973171
 41
0.0
 42
3.141592653589793
  0
ELLIPSE
  5
B6
330
17
100
AcDbEntity
  8
visible
100
AcDbEllipse
 10
-9.999999952102101
 20
54.54192866968906
 30
0.0
 11
0.9
 21
3.4618315621532625e-09
 31
0.0
 40
0.9999153414973171
 41
3.141592653589793
 42
3.897658013302035
  0
ELLIPSE
  5
B7
330
17
100
AcDbEntity
  8
visible
100
AcDbEllipse
 10
10.000000047897899
 20
54.541928669702074
 30
0.0
 11
0.9
 21
3.4618315621532625e-09
 31
0.0
 40
0.9999153414973171
 41
5.5271199474673365
 42
6.283185307179586
  0
ELLIPSE
  5
B8
330
17
100
AcDbEntity
  8
visible
100
AcDbEllipse
 10
10.000000047897899
 20
54.541928669702074
 30
0.0
 11
0.9
 21
3.4618315621532625e-09
 31
0.0
 40
0.9999153414973171
 41
0.0
 42
3.141592653589793
  0
ELLIPSE
  5
B9
330
17
100
AcDbEntity
  8
visible
100
AcDbEllipse
 10
10.000000047897899
 20
54.541928669702074
 30
0.0
 11
0.9
 21
3.4618315621532625e-09
 31
0.0
 40
0.9999153414973171
 41
3.141592653589793
 42
3.8976580133020455
  0
LINE
  5
BA
330
17
100
AcDbEntity
  8
visible
100
AcDbLine
 10
-19.99999995184184
 20
10.977949375264753
 30
0.0
 11
-19.999999952062062
 21
11.035201785428544
 31
0.0
  0
LINE
  5
BB
330
17
100
AcDbEntity
  8
visible
100
AcDbLine
 10
20.00000004815816
 20
10.977949375290802
 30
0.0
 11
20.000000047937938
 21
11.035201785454593
 31
0.0
  0
LINE
  5
BC
330
17
100
AcDbEntity
  8
visible
100
AcDbLine
 10
20.00000004794795
 20
0.1335221808536744
 30
0.0
 11
20.00000004774775
 21
0.18556982645712145
 31
0.0
  0
LINE
  5
BD
330
17
100
AcDbEntity
  8
visible
100
AcDbLine
 10
20.00000004815816
 20
50.47460536443483
 30
0.0
 11
20.000000047937938
 21
50.53185777459863
 31
0.0
  0
LINE
  5
BE
330
17
100
AcDbEntity
  8
visible
100
AcDbLine
 10
-19.999999952062062
 20
11.386523998293313
 30
0.0
 11
-19.999999952062062
 21
11.384184883369187
 31
0.0
  0
LINE
  5
BF
330
17
100
AcDbEntity
  8
visible
100
AcDbLine
 10
-19.999999952062062
 20
11.053682333787293
 30
0.0
 11
-19.999999952062062
 21
11.035201785428562
 31
0.0
  0
LINE
  5
C0
330
17
100
AcDbEntity
  8
visible
100
AcDbLine
 10
20.000000047937938
 20
11.035201785454603
 30
0.0
 11
20.000000047937938
 21
50.53185777459863
 31
0.0
  0
ELLIPSE
  5
C1
330
17
100
AcDbEntity
  8
visible
100
AcDbEllipse
 10
5.005005063493981e-08
 20
-8.312309295824349
 30
0.0
 11
58.0
 21
0.0
 31
0.0
 40
0.01301191140086175
 41
-6.283185307179586
 42
-4.712388980334639
  0
ELLIPSE
  5
C2
330
17
100
AcDbEntity
  8
visible
100
AcDbEllipse
 10
5.005005063493981e-08
 20
-8.312309295824349
 30
0.0
 11
58.0
 21
0.0
 31
0.0
 40
0.01301191140086175
 41
-4.712388980334639
 42
-3.1415926535897936
  0
LINE
  5
C3
330
17
100
AcDbEntity
  8
visible
100
AcDbLine
 10
4.71471476981133e-08
 20
-7.5576184345743584
 30
0.0
 11
4.71471476981133e-08
 21
-21.656424749686543
 31
0.0
  0
ELLIPSE
  5
C4
330
17
100
AcDbEntity
  8
visible
100
AcDbEllipse
 10
5.005005063493981e-08
 20
-22.411115610936534
 30
0.0
 11
58.0
 21
0.0
 31
0.0
 40
0.01301191140086175
 41
-6.283185307179586
 42
-4.712388980334639
  0
ELLIPSE
  5
C5
330
17
100
AcDbEntity
  8
visible
100
AcDbEllipse
 10
5.005005063493981e-08
 20
-22.411115610936534
 30
0.0
 11
58.0
 21
0.0
 31
0.0
 40
0.01301191140086175
 41
-4.712388980334639
 42
-3.1415926535897936
  0
ELLIPSE
  5
C6
330
17
100
AcDbEntity
  8
visible
100
AcDbEllipse
 10
5.005005063493981e-08
 20
-20.011318791342966
 30
0.0
 11
58.0
 21
0.0
 31
0.0
 40
0.01301191140086175
 41
-6.283185307179586
 42
-6.1622007205422795
  0
LINE
  5
C7
330
17
100
AcDbEntity
  8
visible
100
AcDbLine
 10
57.57603673163883
 20
-19.92023541149943
 30
0.0
 11
57.57603673163883
 21
-12.62085341856902
 31
0.0
  0
ELLIPSE
  5
C8
330
17
100
AcDbEntity
  8
visible
100
AcDbEllipse
 10
5.005005063493981e-08
 20
-12.711936798412552
 30
0.0
 11
58.0
 21
0.0
 31
0.0
 40
0.01301191140086175
 41
-6.283185307179586
 42
-6.1622007205422955
  0
LINE
  5
C9
330
17
100
AcDbEntity
  8
visible
100
AcDbLine
 10
-17.09834423252015
 20
1.332817446489334
 30
0.0
 11
-17.098344232227944
 21
1.256850496998094
 31
0.0
  0
SPLINE
  5
CA
330
17
100
AcDbEntity
  8
visible
100
AcDbSpline
 70
0
 71
3
 72
11
 73
7
 74
0
 40
0.0
 40
0.0
 40
0.0
 40
0.0
 40
0.512213144857442
 40
0.512213144857442
 40
0.512213144857442
 40
0.9902329065010219
 40
0.9902329065010219
 40
0.9902329065010219
 40
0.9902329065010219
 10
-16.54785202762485
 20
0.5474080341028866
 30
0.0
 10
-16.725033336202653
 20
0.789696460047747
 30
0.0
 10
-16.87077137996238
 20
1.0008816251512296
 30
0.0
 10
-16.962775678837335
 20
1.1358061862132558
 30
0.0
 10
-17.050180937100983
 20
1.2649608604774716
 30
0.0
 10
-17.095350967175087
 20
1.3306614846513094
 30
0.0
 10
-17.098285769059657
 20
1.332908058734769
 30
0.0
  0
SPLINE
  5
CB
330
17
100
AcDbEntity
  8
visible
100
AcDbSpline
 70
0
 71
1
 72
4
 73
2
 74
0
 40
0.0
 40
0.0
 40
1.0
 40
1.0
 10
-17.098285769059657
 20
1.3329080587347688
 30
0.0
 10
-17.098344232520134
 20
1.3328174464893436
 30
0.0
  0
SPLINE
  5
CC
330
17
100
AcDbEntity
  8
visible
100
AcDbSpline
 70
0
 71
2
 72
6
 73
3
 74
0
 40
0.0
 40
0.0
 40
0.0
 40
0.9999996816477258
 40
0.9999996816477258
 40
0.9999996816477258
 10
-14.999999952502499
 20
-1.299139002370822
 30
0.0
 10
-15.860100376037767
 20
-0.3974246996929337
 30
0.0
 10
-16.547852027944977
 20
0.5474080338435863
 30
0.0
  0
ELLIPSE
  5
CD
330
17
100
AcDbEntity
  8
visible
100
AcDbEllipse
 10
-1.9999999525025018
 20
11.14970660576786
 30
0.0
 11
-18.0
 21
-6.923663124306643e-08
 31
0.0
 40
0.999915341497317
 41
-5.519398814627909
 42
-4.992187460157883
  0
SPLINE
  5
CE
330
17
100
AcDbEntity
  8
visible
100
AcDbSpline
 70
0
 71
3
 72
11
 73
7
 74
0
 40
0.0
 40
0.0
 40
0.0
 40
0.0
 40
0.49814708096346
 40
0.49814708096346
 40
0.49814708096346
 40
0.6065339348087813
 40
0.6065339348087813
 40
0.6065339348087813
 40
0.6065339348087813
 10
-6.970915361157116
 20
-6.148828802138979
 30
0.0
 10
-6.172306302604917
 20
-6.378281679097157
 30
0.0
 10
-5.359222991882425
 20
-6.553117233981117
 30
0.0
 10
-4.542309345748048
 20
-6.670837316840289
 30
0.0
 10
-4.363365696682751
 20
-6.696672715238221
 30
0.0
 10
-4.1825958986787235
 20
-6.719954156415335
 30
0.0
 10
-3.99999995173596
 20
-6.740681640371639
 30
0.0
  0
LINE
  5
CF
330
17
100
AcDbEntity
  8
visible
100
AcDbLine
 10
-3.999999952602602
 20
-6.711298974095063
 30
0.0
 11
-3.999999952489582
 21
-6.740681644731622
 31
0.0
  0
ELLIPSE
  5
D0
330
17
100
AcDbEntity
  8
visible
100
AcDbEllipse
 10
-1.9999999526026022
 20
11.17573042856958
 30
0.0
 11
-18.0
 21
-6.923663124306643e-08
 31
0.0
 40
0.999915341497317
 41
-4.823729998571808
 42
-4.789448866084193
  0
LINE
  5
D1
330
17
100
AcDbEntity
  8
visible
100
AcDbLine
 10
-19.99999995214214
 20
11.056020843669923
 30
0.0
 11
-19.99999995341341
 21
11.386523393251812
 31
0.0
  0
LINE
  5
D2
330
17
100
AcDbEntity
  8
visible
100
AcDbLine
 10
-19.99999995214214
 20
11.386523980092818
 30
0.0
 11
-19.99999995214214
 21
11.384184883346109
 31
0.0
  0
LINE
  5
D3
330
17
100
AcDbEntity
  8
visible
100
AcDbLine
 10
-19.99999995341341
 20
50.88317938239585
 30
0.0
 11
-19.99999995341341
 21
11.386523393251828
 31
0.0
  0
SPLINE
  5
D4
330
17
100
AcDbEntity
  8
visible
100
AcDbSpline
 70
0
 71
1
 72
4
 73
2
 74
0
 40
0.0
 40
0.0
 40
0.004324000702186599
 40
0.004324000702186599
 10
-17.098344232227948
 20
1.2568504969980978
 30
0.0
 10
-17.09832029546776
 20
1.2567767486726402
 30
0.0
  0
SPLINE
  5
D5
330
17
100
AcDbEntity
  8
visible
100
AcDbSpline
 70
0
 71
2
 72
6
 73
3
 74
0
 40
0.0
 40
0.0
 40
0.0
 40
1.0
 40
1.0
 40
1.0
 10
-17.09832029546776
 20
1.2567767486726404
 30
0.0
 10
-17.096851543750933
 20
1.2550034675862944
 30
0.0
 10
-17.042718480825812
 20
1.253348421509695
 30
0.0
  0
ELLIPSE
  5
D6
330
17
100
AcDbEntity
  8
visible
100
AcDbEllipse
 10
2.000000047397398
 20
11.17573042857218
 30
0.0
 11
-18.0
 21
-6.923663124306643e-08
 31
0.0
 40
0.999915341497317
 41
-4.635329102377713
 42
-4.60104796988988
  0
ELLIPSE
  5
D7
330
17
100
AcDbEntity
  8
visible
100
AcDbEllipse
 10
-9.999999953453452
 20
8.397186897887067
 30
0.0
 11
2.25
 21
8.654578905383156e-09
 31
0.0
 40
0.999915341497317
 41
4.712388976538536
 42
6.283185307179586
  0
ELLIPSE
  5
D8
330
17
100
AcDbEntity
  8
visible
100
AcDbEllipse
 10
-9.999999953453452
 20
8.397186897887067
 30
0.0
 11
2.25
 21
8.654578905383156e-09
 31
0.0
 40
0.999915341497317
 41
0.0
 42
3.141592653589793
  0
ELLIPSE
  5
D9
330
17
100
AcDbEntity
  8
visible
100
AcDbEllipse
 10
-9.999999953453452
 20
8.397186897887067
 30
0.0
 11
2.25
 21
8.654578905383156e-09
 31
0.0
 40
0.999915341497317
 41
3.141592653589793
 42
4.712388976538536
  0
ELLIPSE
  5
DA
330
17
100
AcDbEntity
  8
visible
100
AcDbEllipse
 10
10.000000046546548
 20
8.397186897900085
 30
0.0
 11
2.25
 21
8.654578905383156e-09
 31
0.0
 40
0.999915341497317
 41
4.712388976538536
 42
6.283185307179586
  0
ELLIPSE
  5
DB
330
17
100
AcDbEntity
  8
visible
100
AcDbEllipse
 10
10.000000046546548
 20
8.397186897900085
 30
0.0
 11
2.25
 21
8.654578905383156e-09
 31
0.0
 40
0.999915341497317
 41
0.0
 42
3.141592653589793
  0
ELLIPSE
  5
DC
330
17
100
AcDbEntity
  8
visible
100
AcDbEllipse
 10
10.000000046546548
 20
8.397186897900085
 30
0.0
 11
2.25
 21
8.654578905383156e-09
 31
0.0
 40
0.999915341497317
 41
3.141592653589793
 42
4.712388976538536
  0
ELLIPSE
  5
DD
330
17
100
AcDbEntity
  8
visible
100
AcDbEllipse
 10
-9.999999953453452
 20
54.89325027751232
 30
0.0
 11
2.25
 21
8.654578905383156e-09
 31
0.0
 40
0.999915341497317
 41
6.12835187680597
 42
6.283185307179586
  0
ELLIPSE
  5
DE
330
17
100
AcDbEntity
  8
visible
100
AcDbEllipse
 10
-9.999999953453452
 20
54.89325027751232
 30
0.0
 11
2.25
 21
8.654578905383156e-09
 31
0.0
 40
0.999915341497317
 41
0.0
 42
3.141592653589793
  0
ELLIPSE
  5
DF
330
17
100
AcDbEntity
  8
visible
100
AcDbEllipse
 10
-9.999999953453452
 20
54.89325027751232
 30
0.0
 11
2.25
 21
8.654578905383156e-09
 31
0.0
 40
0.999915341497317
 41
3.141592653589793
 42
4.686853882059561
  0
ELLIPSE
  5
E0
330
17
100
AcDbEntity
  8
visible
100
AcDbEllipse
 10
10.000000046546548
 20
54.89325027752534
 30
0.0
 11
2.25
 21
8.654578905383156e-09
 31
0.0
 40
0.999915341497317
 41
4.737927381963113
 42
6.283185307179586
  0
ELLIPSE
  5
E1
330
17
100
AcDbEntity
  8
visible
100
AcDbEllipse
 10
10.000000046546548
 20
54.89325027752534
 30
0.0
 11
2.25
 21
8.654578905383156e-09
 31
0.0
 40
0.999915341497317
 41
0.0
 42
3.141592653589793
  0
ELLIPSE
  5
E2
330
17
100
AcDbEntity
  8
visible
100
AcDbEllipse
 10
10.000000046546548
 20
54.89325027752534
 30
0.0
 11
2.25
 21
8.654578905383156e-09
 31
0.0
 40
0.999915341497317
 41
3.141592653589793
 42
3.296426302725348
  0
LINE
  5
E3
330
17
100
AcDbEntity
  8
visible
100
AcDbLine
 10
4.000000047397398
 20
-6.711298974089854
 30
0.0
 11
4.000000047510418
 21
-6.740681644726414
 31
0.0
  0
LINE
  5
E4
330
17
100
AcDbEntity
  8
visible
100
AcDbLine
 10
20.00000004785786
 20
11.056020843695972
 30
0.0
 11
20.00000004658659
 21
11.38652339327786
 31
0.0
  0
SPLINE
  5
E5
330
17
100
AcDbEntity
  8
visible
100
AcDbSpline
 70
0
 71
3
 72
11
 73
7
 74
0
 40
0.0
 40
0.0
 40
0.0
 40
0.0
 40
0.49814708091922105
 40
0.49814708091922105
 40
0.49814708091922105
 40
0.6065339347741134
 40
0.6065339347741134
 40
0.6065339347741134
 40
0.6065339347741134
 10
6.970915456152106
 20
-6.148828802129906
 30
0.0
 10
6.172306397596498
 20
-6.378281679089116
 30
0.0
 10
5.359223086890353
 20
-6.5531172339741754
 30
0.0
 10
4.542309440762222
 20
-6.670837316834376
 30
0.0
 10
4.36336579169905
 20
-6.696672715232563
 30
0.0
 10
4.18259599369724
 20
-6.719954156409906
 30
0.0
 10
4.000000046756796
 20
-6.740681640366427
 30
0.0
  0
ELLIPSE
  5
E6
330
17
100
AcDbEntity
  8
visible
100
AcDbEllipse
 10
2.000000047497498
 20
11.149706605770461
 30
0.0
 11
-18.0
 21
-6.923663124306643e-08
 31
0.0
 40
0.999915341497317
 41
-4.432590508303805
 42
-3.905379153833778
  0
SPLINE
  5
E7
330
17
100
AcDbEntity
  8
visible
100
AcDbSpline
 70
0
 71
2
 72
6
 73
3
 74
0
 40
0.0
 40
0.0
 40
0.0
 40
0.9999996816477232
 40
0.9999996816477232
 40
0.9999996816477232
 10
15.000000047497501
 20
-1.299139002351282
 30
0.0
 10
15.860100471033915
 20
-0.3974246996722679
 30
0.0
 10
16.547852122964567
 20
0.5474080338651248
 30
0.0
  0
SPLINE
  5
E8
330
17
100
AcDbEntity
  8
visible
100
AcDbSpline
 70
0
 71
3
 72
11
 73
7
 74
0
 40
0.0
 40
0.0
 40
0.0
 40
0.0
 40
0.5122131448573952
 40
0.5122131448573952
 40
0.5122131448573952
 40
0.9902329065015836
 40
0.9902329065015836
 40
0.9902329065015836
 40
0.9902329065015836
 10
16.54785212264444
 20
0.5474080341244303
 30
0.0
 10
16.725033431228002
 20
0.789696460069597
 30
0.0
 10
16.87077147500531
 20
1.000881625173236
 30
0.0
 10
16.96277577390143
 20
1.1358061862353421
 30
0.0
 10
17.050181032185677
 20
1.2649608604998177
 30
0.0
 10
17.095351062281736
 20
1.3306614846737175
 30
0.0
 10
17.09828586418958
 20
1.3329080587570368
 30
0.0
  0
SPLINE
  5
E9
330
17
100
AcDbEntity
  8
visible
100
AcDbSpline
 70
0
 71
1
 72
4
 73
2
 74
0
 40
0.0
 40
0.0
 40
1.0
 40
1.0
 10
17.098285864189585
 20
1.3329080587570363
 30
0.0
 10
17.09834432765144
 20
1.332817446511612
 30
0.0
  0
LINE
  5
EA
330
17
100
AcDbEntity
  8
visible
100
AcDbLine
 10
17.098344327651457
 20
1.3328174465116025
 30
0.0
 11
17.098344327943664
 21
1.2568504970203624
 31
0.0
  0
LINE
  5
EB
330
17
100
AcDbEntity
  8
visible
100
AcDbLine
 10
20.00000004785786
 20
11.056020843695975
 30
0.0
 11
20.00000004785786
 21
50.55267683284
 31
0.0
  0
SPLINE
  5
EC
330
17
100
AcDbEntity
  8
visible
100
AcDbSpline
 70
0
 71
1
 72
4
 73
2
 74
0
 40
0.0
 40
0.0
 40
0.004324000753428701
 40
0.004324000753428701
 10
17.098344327943664
 20
1.2568504970203662
 30
0.0
 10
17.098320391183478
 20
1.2567767486940342
 30
0.0
  0
SPLINE
  5
ED
330
17
100
AcDbEntity
  8
visible
100
AcDbSpline
 70
0
 71
2
 72
6
 73
3
 74
0
 40
0.0
 40
0.0
 40
0.0
 40
1.0
 40
1.0
 40
1.0
 10
17.098320391183478
 20
1.2567767486940344
 30
0.0
 10
17.09685163945211
 20
1.2550034675968558
 30
0.0
 10
17.042718575899432
 20
1.253348421511477
 30
0.0
  0
LINE
  5
EE
330
17
100
AcDbEntity
  8
visible
100
AcDbLine
 10
20.00000004658659
 20
11.38652339327787
 30
0.0
 11
20.00000004658659
 21
50.88317938242189
 31
0.0
  0
ELLIPSE
  5
EF
330
17
100
AcDbEntity
  8
visible
100
AcDbEllipse
 10
-9.999999953363362
 20
8.373765457365508
 30
0.0
 11
2.25
 21
8.654578905383156e-09
 31
0.0
 40
0.999915341497317
 41
0.005205228730627898
 42
3.1363874248591834
  0
ELLIPSE
  5
F0
330
17
100
AcDbEntity
  8
visible
100
AcDbEllipse
 10
10.000000046636638
 20
8.37376545737854
 30
0.0
 11
2.25
 21
8.654578905383156e-09
 31
0.0
 40
0.999915341497317
 41
0.0052052287306216805
 42
3.1363874248591577
  0
ELLIPSE
  5
F1
330
17
100
AcDbEntity
  8
visible
100
AcDbEllipse
 10
-9.999999953363362
 20
54.86982883699076
 30
0.0
 11
2.25
 21
8.654578905383156e-09
 31
0.0
 40
0.999915341497317
 41
0.005205228730627898
 42
3.1363874248591834
  0
ELLIPSE
  5
F2
330
17
100
AcDbEntity
  8
visible
100
AcDbEllipse
 10
4.653653708036704e-08
 20
42.8968685618312
 30
0.0
 11
14.0
 21
5.3850713189050754e-08
 31
0.0
 40
0.9999153414973171
 41
4.712388976538536
 42
6.283185307179586
  0
ELLIPSE
  5
F3
330
17
100
AcDbEntity
  8
visible
100
AcDbEllipse
 10
4.653653708036704e-08
 20
42.8968685618312
 30
0.0
 11
14.0
 21
5.3850713189050754e-08
 31
0.0
 40
0.9999153414973171
 41
3.141592653589793
 42
4.712388976538536
  0
ELLIPSE
  5
F4
330
17
100
AcDbEntity
  8
visible
100
AcDbEllipse
 10
10.000000046636638
 20
54.869828837003794
 30
0.0
 11
2.25
 21
8.654578905383156e-09
 31
0.0
 40
0.999915341497317
 41
0.0052052287306216805
 42
3.136387424859164
  0
LINE
  5
F5
330
17
100
AcDbEntity
  8
visible
100
AcDbLine
 10
20.00000004785786
 20
50.55267683284
 30
0.0
 11
20.00000004658659
 21
50.88317938242189
 31
0.0
  0
ELLIPSE
  5
F6
330
17
100
AcDbEntity
  8
visible
100
AcDbEllipse
 10
-9.999999953363362
 20
8.373765457365508
 30
0.0
 11
1.15
 21
4.423451440529168e-09
 31
0.0
 40
0.9999153414973171
 41
4.712388976538536
 42
6.283185307179586
  0
ELLIPSE
  5
F7
330
17
100
AcDbEntity
  8
visible
100
AcDbEllipse
 10
-9.999999953363362
 20
8.373765457365508
 30
0.0
 11
1.15
 21
4.423451440529168e-09
 31
0.0
 40
0.9999153414973171
 41
0.0
 42
3.141592653589793
  0
ELLIPSE
  5
F8
330
17
100
AcDbEntity
  8
visible
100
AcDbEllipse
 10
-9.999999953363362
 20
8.373765457365508
 30
0.0
 11
1.15
 21
4.423451440529168e-09
 31
0.0
 40
0.9999153414973171
 41
3.141592653589793
 42
4.712388976538536
  0
ELLIPSE
  5
F9
330
17
100
AcDbEntity
  8
visible
100
AcDbEllipse
 10
10.000000046636638
 20
8.37376545737854
 30
0.0
 11
1.15
 21
4.423451440529168e-09
 31
0.0
 40
0.9999153414973171
 41
4.712388976538536
 42
6.283185307179586
  0
ELLIPSE
  5
FA
330
17
100
AcDbEntity
  8
visible
100
AcDbEllipse
 10
10.000000046636638
 20
8.37376545737854
 30
0.0
 11
1.15
 21
4.423451440529168e-09
 31
0.0
 40
0.9999153414973171
 41
0.0
 42
3.141592653589793
  0
ELLIPSE
  5
FB
330
17
100
AcDbEntity
  8
visible
100
AcDbEllipse
 10
10.000000046636638
 20
8.37376545737854
 30
0.0
 11
1.15
 21
4.423451440529168e-09
 31
0.0
 40
0.9999153414973171
 41
3.141592653589793
 42
4.712388976538536
  0
ELLIPSE
  5
FC
330
17
100
AcDbEntity
  8
visible
100
AcDbEllipse
 10
-9.999999953363362
 20
54.86982883699076
 30
0.0
 11
1.15
 21
4.423451440529168e-09
 31
0.0
 40
0.9999153414973171
 41
4.712388976538536
 42
6.283185307179586
  0
ELLIPSE
  5
FD
330
17
100
AcDbEntity
  8
visible
100
AcDbEllipse
 10
-9.999999953363362
 20
54.86982883699076
 30
0.0
 11
1.15
 21
4.423451440529168e-09
 31
0.0
 40
0.9999153414973171
 41
0.0
 42
3.141592653589793
  0
ELLIPSE
  5
FE
330
17
100
AcDbEntity
  8
visible
100
AcDbEllipse
 10
-9.999999953363362
 20
54.86982883699076
 30
0.0
 11
1.15
 21
4.423451440529168e-09
 31
0.0
 40
0.9999153414973171
 41
3.141592653589793
 42
4.712388976538536
  0
ELLIPSE
  5
FF
330
17
100
AcDbEntity
  8
visible
100
AcDbEllipse
 10
10.000000046636638
 20
54.869828837003794
 30
0.0
 11
1.15
 21
4.423451440529168e-09
 31
0.0
 40
0.9999153414973171
 41
4.712388976538536
 42
6.283185307179586
  0
ELLIPSE
  5
100
330
17
100
AcDbEntity
  8
visible
100
AcDbEllipse
 10
10.000000046636638
 20
54.869828837003794
 30
0.0
 11
1.15
 21
4.423451440529168e-09
 31
0.0
 40
0.9999153414973171
 41
0.0
 42
3.141592653589793
  0
ELLIPSE
  5
101
330
17
100
AcDbEntity
  8
visible
100
AcDbEllipse
 10
10.000000046636638
 20
54.869828837003794
 30
0.0
 11
1.15
 21
4.423451440529168e-09
 31
0.0
 40
0.9999153414973171
 41
3.141592653589793
 42
4.712388976538536
  0
ELLIPSE
  5
102
330
17
100
AcDbEntity
  8
visible
100
AcDbEllipse
 10
-9.999999953298298
 20
8.356849972544396
 30
0.0
 11
1.15
 21
4.423451440529168e-09
 31
0.0
 40
0.9999153414973171
 41
0.007355247615710825
 42
3.134237405974063
  0
ELLIPSE
  5
103
330
17
100
AcDbEntity
  8
visible
100
AcDbEllipse
 10
10.000000046701702
 20
8.356849972557413
 30
0.0
 11
1.15
 21
4.423451440529168e-09
 31
0.0
 40
0.9999153414973171
 41
0.007355247615723259
 42
3.1342374059740505
  0
ELLIPSE
  5
104
330
17
100
AcDbEntity
  8
visible
100
AcDbEllipse
 10
-9.999999953298298
 20
54.85291335216965
 30
0.0
 11
1.15
 21
4.423451440529168e-09
 31
0.0
 40
0.9999153414973171
 41
0.007355247615587368
 42
3.1342374059739386
  0
ELLIPSE
  5
105
330
17
100
AcDbEntity
  8
visible
100
AcDbEllipse
 10
10.000000046701702
 20
54.85291335218267
 30
0.0
 11
1.15
 21
4.423451440529168e-09
 31
0.0
 40
0.9999153414973171
 41
0.0073552476155998026
 42
3.134237405973927
  0
LINE
  5
106
330
17
100
AcDbEntity
  8
visible
100
AcDbLine
 10
-14.999999948098097
 20
-6.330995561756268
 30
0.0
 11
-14.999999948098097
 21
-6.148828802144206
 31
0.0
  0
LINE
  5
107
330
17
100
AcDbEntity
  8
visible
100
AcDbLine
 10
15.000000051901903
 20
-6.330995561736735
 30
0.0
 11
15.000000051901903
 21
-6.148828802124669
 31
0.0
  0
LINE
  5
108
330
17
100
AcDbEntity
  8
visible
100
AcDbLine
 10
-19.999999947847847
 20
-6.8149993188617515
 30
0.0
 11
-19.999999947847847
 21
-6.266022413235959
 31
0.0
  0
LINE
  5
109
330
17
100
AcDbEntity
  8
visible
100
AcDbLine
 10
-19.999999947847847
 20
-6.265936004755218
 30
0.0
 11
-19.999999947847847
 21
-6.213885628381334
 31
0.0
  0
LINE
  5
10A
330
17
100
AcDbEntity
  8
visible
100
AcDbLine
 10
20.000000052152153
 20
-0.8594868426689857
 30
0.0
 11
20.000000052352352
 21
-0.9115344882724327
 31
0.0
  0
LINE
  5
10B
330
17
100
AcDbEntity
  8
visible
100
AcDbLine
 10
20.000000052152153
 20
-6.8149993188821725
 30
0.0
 11
20.000000052152153
 21
-0.8594868426689866
 31
0.0
  0
LINE
  5
10C
330
17
100
AcDbEntity
  8
visible
100
AcDbLine
 10
20.000000052352352
 20
-6.814999318883153
 30
0.0
 11
20.000000052352352
 21
-0.9115344882724381
 31
0.0
  0
LINE
  5
10D
330
17
100
AcDbEntity
  8
visible
100
AcDbLine
 10
-26.49999994837337
 20
5.386030426079159
 30
0.0
 11
-26.49999994837337
 21
6.196372228397694
 31
0.0
  0
LINE
  5
10E
330
17
100
AcDbEntity
  8
visible
100
AcDbLine
 10
26.50000005162663
 20
5.3860304261136775
 30
0.0
 11
26.50000005162663
 21
6.19637222843221
 31
0.0
  0
LINE
  5
10F
330
17
100
AcDbEntity
  8
visible
100
AcDbLine
 10
-29.499999948523524
 20
5.415657544344043
 30
0.0
 11
-29.499999948523524
 21
6.157338196574003
 31
0.0
  0
ELLIPSE
  5
110
330
17
100
AcDbEntity
  8
visible
100
AcDbEllipse
 10
-26.49999994841341
 20
5.387031339264098
 30
0.0
 11
-5.209974595763849e-13
 21
0.8
 31
0.0
 40
1e-10
 41
-3.141592653589793
 42
-3.128580374984125
  0
ELLIPSE
  5
111
330
17
100
AcDbEntity
  8
visible
100
AcDbEllipse
 10
-26.49999994841341
 20
5.387031339264098
 30
0.0
 11
-5.209974595763849e-13
 21
0.8
 31
0.0
 40
1e-10
 41
-3.1546049321927354
 42
-3.141592653589793
  0
LINE
  5
112
330
17
100
AcDbEntity
  8
visible
100
AcDbLine
 10
26.50000005158659
 20
4.587099066100777
 30
0.0
 11
18.82707446522628
 21
4.58709906609578
 31
0.0
  0
LINE
  5
113
330
17
100
AcDbEntity
  8
visible
100
AcDbLine
 10
-18.827074308017956
 20
4.587099066071257
 30
0.0
 11
-26.49999994841341
 21
4.58709906606626
 31
0.0
  0
ELLIPSE
  5
114
330
17
100
AcDbEntity
  8
visible
100
AcDbEllipse
 10
26.50000005158659
 20
5.387031339298616
 30
0.0
 11
-5.209974595763849e-13
 21
0.8
 31
0.0
 40
1e-10
 41
-3.141592653589793
 42
-3.1285803749854946
  0
ELLIPSE
  5
115
330
17
100
AcDbEntity
  8
visible
100
AcDbEllipse
 10
26.50000005158659
 20
5.387031339298616
 30
0.0
 11
-5.209974595763849e-13
 21
0.8
 31
0.0
 40
1e-10
 41
-3.1546049321927354
 42
-3.141592653589793
  0
LINE
  5
116
330
17
100
AcDbEntity
  8
visible
100
AcDbLine
 10
29.500000051476476
 20
5.415657544382469
 30
0.0
 11
29.500000051476476
 21
8.815369705473348
 31
0.0
  0
ELLIPSE
  5
117
330
17
100
AcDbEntity
  8
visible
100
AcDbEllipse
 10
-26.499999948523524
 20
4.6157252711481505
 30
0.0
 11
-2.2
 21
-0.0
 31
0.0
 40
0.013011911400861748
 41
5.005005063493981e-11
 42
1.5707963268449465
  0
LINE
  5
118
330
17
100
AcDbEntity
  8
visible
100
AcDbLine
 10
-28.699999951376373
 20
5.357404220995832
 30
0.0
 11
-28.69999994852352
 21
4.6157252711467125
 31
0.0
  0
ELLIPSE
  5
119
330
17
100
AcDbEntity
  8
visible
100
AcDbEllipse
 10
-26.499999951376374
 20
5.357404220997267
 30
0.0
 11
-2.2
 21
-0.0
 31
0.0
 40
0.013011911400861748
 41
4.712388980434739
 42
6.283185307229636
  0
ELLIPSE
  5
11A
330
17
100
AcDbEntity
  8
visible
100
AcDbEllipse
 10
26.500000051476476
 20
4.615725271182669
 30
0.0
 11
-2.2
 21
-0.0
 31
0.0
 40
0.013011911400861748
 41
1.5707963268449467
 42
3.1415926536398433
  0
LINE
  5
11B
330
17
100
AcDbEntity
  8
visible
100
AcDbLine
 10
26.500000048513513
 20
5.3860304261136775
 30
0.0
 11
19.109219989739287
 21
5.3860304261088645
 31
0.0
  0
LINE
  5
11C
330
17
100
AcDbEntity
  8
visible
100
AcDbLine
 10
-19.109219835574848
 20
5.386030426083975
 30
0.0
 11
-26.499999951486487
 21
5.386030426079161
 31
0.0
  0
LINE
  5
11D
330
17
100
AcDbEntity
  8
visible
100
AcDbLine
 10
28.700000051476476
 20
4.615725271184104
 30
0.0
 11
28.70000004862362
 21
5.357404221033224
 31
0.0
  0
ELLIPSE
  5
11E
330
17
100
AcDbEntity
  8
visible
100
AcDbEllipse
 10
26.500000048623626
 20
5.357404221031786
 30
0.0
 11
-2.2
 21
-0.0
 31
0.0
 40
0.013011911400861748
 41
3.1415926536398433
 42
4.71238898043474
  0
LINE
  5
11F
330
17
100
AcDbEntity
  8
visible
100
AcDbLine
 10
23.000000050725728
 20
4.810903942193314
 30
0.0
 11
23.000000050875876
 21
4.771868207990728
 31
0.0
  0
LINE
  5
120
330
17
100
AcDbEntity
  8
visible
100
AcDbLine
 10
23.000000050725728
 20
4.81090394219332
 30
0.0
 11
26.000000050725728
 21
4.8109039421952735
 31
0.0
  0
LINE
  5
121
330
17
100
AcDbEntity
  8
visible
100
AcDbLine
 10
23.000000050875876
 20
4.771868207990735
 30
0.0
 11
26.000000050875876
 21
4.771868207992688
 31
0.0
  0
LINE
  5
122
330
17
100
AcDbEntity
  8
visible
100
AcDbLine
 10
26.000000050725728
 20
4.810903942195261
 30
0.0
 11
26.000000050875876
 21
4.771868207992675
 31
0.0
  0
LINE
  5
123
330
17
100
AcDbEntity
  8
visible
100
AcDbLine
 10
23.000000049224226
 20
5.201261284219165
 30
0.0
 11
23.00000004937438
 21
5.16222555001658
 31
0.0
  0
LINE
  5
124
330
17
100
AcDbEntity
  8
visible
100
AcDbLine
 10
23.000000049224226
 20
5.201261284219171
 30
0.0
 11
26.000000049224226
 21
5.2012612842211245
 31
0.0
  0
LINE
  5
125
330
17
100
AcDbEntity
  8
visible
100
AcDbLine
 10
26.000000049224226
 20
5.201261284221112
 30
0.0
 11
26.00000004937438
 21
5.162225550018527
 31
0.0
  0
LINE
  5
126
330
17
100
AcDbEntity
  8
visible
100
AcDbLine
 10
23.000000049374375
 20
5.162225550016586
 30
0.0
 11
26.000000049374375
 21
5.162225550018539
 31
0.0
  0
LINE
  5
127
330
17
100
AcDbEntity
  8
visible
100
AcDbLine
 10
26.500000048513513
 20
10.38560713360026
 30
0.0
 11
19.99024950655392
 21
10.38560713359602
 31
0.0
  0
ELLIPSE
  5
128
330
17
100
AcDbEntity
  8
visible
100
AcDbEllipse
 10
26.500000048623626
 20
10.356980928518368
 30
0.0
 11
-2.2
 21
-0.0
 31
0.0
 40
0.013011911400861748
 41
3.1415926536398433
 42
4.71238898043474
  0
ELLIPSE
  5
129
330
17
100
AcDbEntity
  8
visible
100
AcDbEllipse
 10
-24.499999948813812
 20
10.490703337958891
 30
0.0
 11
-5.209974595763849e-13
 21
0.8
 31
0.0
 40
1e-10
 41
-1.7024620170338076
 42
-1.5838086053978386
  0
ELLIPSE
  5
12A
330
17
100
AcDbEntity
  8
visible
100
AcDbEllipse
 10
-26.499999951376374
 20
10.35698092848385
 30
0.0
 11
-2.2
 21
-0.0
 31
0.0
 40
0.013011911400861748
 41
4.712388980434739
 42
6.283185307229636
  0
LINE
  5
12B
330
17
100
AcDbEntity
  8
visible
100
AcDbLine
 10
-19.990249398864513
 20
10.385607133569984
 30
0.0
 11
-26.499999951486487
 21
10.385607133565744
 31
0.0
  0
LINE
  5
12C
330
17
100
AcDbEntity
  8
visible
100
AcDbLine
 10
-29.499999951376374
 20
6.15733649419316
 30
0.0
 11
-29.49999994852352
 21
5.4156575443440405
 31
0.0
  0
LINE
  5
12D
330
17
100
AcDbEntity
  8
visible
100
AcDbLine
 10
-29.499999951376374
 20
6.157336494193174
 30
0.0
 11
-29.499999951376374
 21
9.557048655284053
 31
0.0
  0
LINE
  5
12E
330
17
100
AcDbEntity
  8
visible
100
AcDbLine
 10
29.500000051476476
 20
5.415657544382455
 30
0.0
 11
29.500000048623622
 21
6.157336494231575
 31
0.0
  0
LINE
  5
12F
330
17
100
AcDbEntity
  8
visible
100
AcDbLine
 10
23.000000050875876
 20
4.77186820799071
 30
0.0
 11
23.000000050875876
 21
4.81090394219332
 31
0.0
  0
LINE
  5
130
330
17
100
AcDbEntity
  8
visible
100
AcDbLine
 10
26.000000050875876
 20
4.7718682079926715
 30
0.0
 11
26.000000050875876
 21
4.810903942195267
 31
0.0
  0
LINE
  5
131
330
17
100
AcDbEntity
  8
visible
100
AcDbLine
 10
23.000000049374375
 20
5.162225550016576
 30
0.0
 11
23.000000049374375
 21
5.201261284219171
 31
0.0
  0
LINE
  5
132
330
17
100
AcDbEntity
  8
visible
100
AcDbLine
 10
26.000000049374375
 20
5.162225550018523
 30
0.0
 11
26.000000049374375
 21
5.201261284221118
 31
0.0
  0
LINE
  5
133
330
17
100
AcDbEntity
  8
visible
100
AcDbLine
 10
29.500000051476476
 20
8.815369705473344
 30
0.0
 11
29.500000048623622
 21
9.557048655322465
 31
0.0
  0
LINE
  5
134
330
17
100
AcDbEntity
  8
visible
100
AcDbLine
 10
29.500000048623626
 20
6.1573364942316005
 30
0.0
 11
29.500000048623626
 21
9.557048655322479
 31
0.0
  0
LINE
  5
135
330
17
100
AcDbEntity
  8
visible
100
AcDbLine
 10
26.500000051126126
 20
10.506317631673141
 30
0.0
 11
26.500000048973973
 21
11.065829821910196
 31
0.0
  0
LINE
  5
136
330
17
100
AcDbEntity
  8
visible
100
AcDbLine
 10
-24.499999948773773
 20
10.480293808838198
 30
0.0
 11
-24.499999948773773
 21
11.0918536446787
 31
0.0
  0
LINE
  5
137
330
17
100
AcDbEntity
  8
visible
100
AcDbLine
 10
-26.499999951026023
 20
11.065829821875667
 30
0.0
 11
-26.49999994887387
 21
10.506317631638613
 31
0.0
  0
LINE
  5
138
330
17
100
AcDbEntity
  8
visible
100
AcDbLine
 10
26.500000051126126
 20
10.506317631673141
 30
0.0
 11
26.500000051126126
 21
13.90602979276402
 31
0.0
  0
LINE
  5
139
330
17
100
AcDbEntity
  8
visible
100
AcDbLine
 10
26.500000048973977
 20
11.065829821910185
 30
0.0
 11
26.500000048973977
 21
14.465541983001064
 31
0.0
  0
LINE
  5
13A
330
17
100
AcDbEntity
  8
visible
100
AcDbLine
 10
-26.499999948873874
 20
10.506317631638623
 30
0.0
 11
-26.499999948873874
 21
11.065831029154808
 31
0.0
  0
LINE
  5
13B
330
17
100
AcDbEntity
  8
visible
100
AcDbLine
 10
-26.499999951026023
 20
11.065829821875667
 30
0.0
 11
-26.499999951026023
 21
14.465541982966545
 31
0.0
  0
LINE
  5
13C
330
17
100
AcDbEntity
  8
visible
100
AcDbLine
 10
26.500000051126126
 20
13.906029792764016
 30
0.0
 11
26.500000048973973
 21
14.46554198300107
 31
0.0
  0
ELLIPSE
  5
13D
330
17
100
AcDbEntity
  8
visible
100
AcDbEllipse
 10
24.500000048973977
 20
15.26547425619762
 30
0.0
 11
-1.2
 21
-0.0
 31
0.0
 40
0.013011911400861748
 41
3.1415926536398433
 42
4.71238898043474
  0
LINE
  5
13E
330
17
100
AcDbEntity
  8
visible
100
AcDbLine
 10
24.500000048913915
 20
15.281088549878646
 30
0.0
 11
20.000000047937938
 21
15.281088549875715
 31
0.0
  0
LINE
  5
13F
330
17
100
AcDbEntity
  8
visible
100
AcDbLine
 10
-19.99999995341341
 20
15.281088549849665
 30
0.0
 11
-24.499999951086085
 21
15.281088549846736
 31
0.0
  0
ELLIPSE
  5
140
330
17
100
AcDbEntity
  8
visible
100
AcDbEllipse
 10
-24.499999951026023
 20
15.265474256165703
 30
0.0
 11
-1.2
 21
-0.0
 31
0.0
 40
0.013011911400861748
 41
4.712388980434739
 42
6.283185307229636
  0
LINE
  5
141
330
17
100
AcDbEntity
  8
visible
100
AcDbLine
 10
35.000000046346344
 20
-55.045389641559815
 30
0.0
 11
35.000000046346344
 21
-43.04640554359201
 31
0.0
  0
LINE
  5
142
330
17
100
AcDbEntity
  8
visible
100
AcDbLine
 10
35.000000046446445
 20
-55.07141346436154
 30
0.0
 11
35.000000046346344
 21
-55.045389641559815
 31
0.0
  0
LINE
  5
143
330
17
100
AcDbEntity
  8
visible
100
AcDbLine
 10
5.000000046346346
 20
-55.045389641579355
 30
0.0
 11
5.000000046346346
 21
-43.04640554361155
 31
0.0
  0
LINE
  5
144
330
17
100
AcDbEntity
  8
visible
100
AcDbLine
 10
5.000000046446447
 20
-55.07141346438108
 30
0.0
 11
5.000000046346347
 21
-55.045389641579355
 31
0.0
  0
LINE
  5
145
330
17
100
AcDbEntity
  8
visible
100
AcDbLine
 10
35.000000046446445
 20
-55.07141346436154
 30
0.0
 11
5.000000046446445
 21
-55.07141346438108
 31
0.0
  0
LINE
  5
146
330
17
100
AcDbEntity
  8
visible
100
AcDbLine
 10
35.000000046346344
 20
-55.045389641559815
 30
0.0
 11
5.000000046346344
 21
-55.045389641579355
 31
0.0
  0
LINE
  5
147
330
17
100
AcDbEntity
  8
visible
100
AcDbLine
 10
35.000000046346344
 20
-43.046405543592016
 30
0.0
 11
5.000000046346344
 21
-43.046405543611556
 31
0.0
  0
LINE
  5
148
330
17
100
AcDbEntity
  8
visible
100
AcDbLine
 10
-27.499999948773773
 20
18.67959960911425
 30
0.0
 11
-27.499999948773773
 21
19.291161229953033
 31
0.0
  0
LINE
  5
149
330
17
100
AcDbEntity
  8
visible
100
AcDbLine
 10
27.500000051226227
 20
18.67959960915006
 30
0.0
 11
27.500000051226227
 21
60.676043952037375
 31
0.0
  0
LINE
  5
14A
330
17
100
AcDbEntity
  8
visible
100
AcDbLine
 10
-27.49999994877377
 20
18.679599609114245
 30
0.0
 11
-27.499999951126124
 21
19.291159444954747
 31
0.0
  0
LINE
  5
14B
330
17
100
AcDbEntity
  8
visible
100
AcDbLine
 10
-27.499999951126124
 20
19.291159444954744
 30
0.0
 11
-27.499999951126124
 21
61.28760378784206
 31
0.0
  0
LINE
  5
14C
330
17
100
AcDbEntity
  8
visible
100
AcDbLine
 10
27.50000005122623
 20
18.679599609150056
 30
0.0
 11
27.500000048873876
 21
19.29115944499056
 31
0.0
  0
LINE
  5
14D
330
17
100
AcDbEntity
  8
visible
100
AcDbLine
 10
27.50000005122623
 20
60.67604395203738
 30
0.0
 11
27.500000048873876
 21
61.287603787877885
 31
0.0
  0
LINE
  5
14E
330
17
100
AcDbEntity
  8
visible
100
AcDbLine
 10
27.500000048873876
 20
19.291159444990555
 30
0.0
 11
27.500000048873876
 21
61.28760378787787
 31
0.0
  0
ELLIPSE
  5
14F
330
17
100
AcDbEntity
  8
visible
100
AcDbEllipse
 10
-29.49999994994995
 20
39.983601698476846
 30
0.0
 11
7.491891778190586e-12
 21
-11.5
 31
0.0
 40
1e-10
 41
4.699376701781747
 42
6.283185307179586
  0
ELLIPSE
  5
150
330
17
100
AcDbEntity
  8
visible
100
AcDbEllipse
 10
-29.49999994994995
 20
39.983601698476846
 30
0.0
 11
7.491891778190586e-12
 21
-11.5
 31
0.0
 40
1e-10
 41
3.141592653589793
 42
4.699376701781747
  0
LINE
  5
151
330
17
100
AcDbEntity
  8
visible
100
AcDbLine
 10
-37.99999994634635
 20
-67.08080709149758
 30
0.0
 11
-37.99999994634635
 21
-66.27046528917904
 31
0.0
  0
LINE
  5
152
330
17
100
AcDbEntity
  8
visible
100
AcDbLine
 10
38.00000005365365
 20
-67.08080709144808
 30
0.0
 11
38.00000005365365
 21
-66.27046528912955
 31
0.0
  0
ELLIPSE
  5
153
330
17
100
AcDbEntity
  8
visible
100
AcDbEllipse
 10
-37.99999994638639
 20
-68.13377100178243
 30
0.0
 11
-5.209974595763849e-13
 21
0.8
 31
0.0
 40
1e-10
 41
-3.141592653589793
 42
-3.1285803749868597
  0
ELLIPSE
  5
154
330
17
100
AcDbEntity
  8
visible
100
AcDbEllipse
 10
-37.99999994638639
 20
-68.13377100178243
 30
0.0
 11
-5.209974595763849e-13
 21
0.8
 31
0.0
 40
1e-10
 41
-3.1546049321927354
 42
-3.141592653589793
  0
LINE
  5
155
330
17
100
AcDbEntity
  8
visible
100
AcDbLine
 10
-37.99999994638639
 20
-68.93370327498029
 30
0.0
 11
38.00000005361361
 21
-68.93370327493079
 31
0.0
  0
ELLIPSE
  5
156
330
17
100
AcDbEntity
  8
visible
100
AcDbEllipse
 10
38.00000005361361
 20
-68.13377100173294
 30
0.0
 11
-5.209974595763849e-13
 21
0.8
 31
0.0
 40
1e-10
 41
-3.141592653589793
 42
-3.1285803749868597
  0
ELLIPSE
  5
157
330
17
100
AcDbEntity
  8
visible
100
AcDbEllipse
 10
38.00000005361361
 20
-68.13377100173294
 30
0.0
 11
-5.209974595763849e-13
 21
0.8
 31
0.0
 40
1e-10
 41
-3.1546049321927354
 42
-3.141592653589793
  0
ELLIPSE
  5
158
330
17
100
AcDbEntity
  8
visible
100
AcDbEllipse
 10
-59.19999994744745
 20
-67.85791848009796
 30
0.0
 11
0.8
 21
3.0771836108029526e-09
 31
0.0
 40
0.9999153414973172
 41
3.141592649743639
 42
4.712388976538536
  0
ELLIPSE
  5
159
330
17
100
AcDbEntity
  8
visible
100
AcDbEllipse
 10
-37.99999994744745
 20
-68.65785075328202
 30
0.0
 11
-21.2
 21
-0.0
 31
0.0
 40
0.013011911400861746
 41
5.005015156430569e-11
 42
1.5707963268449467
  0
LINE
  5
15A
330
17
100
AcDbEntity
  8
visible
100
AcDbLine
 10
-59.999999952452455
 20
-66.55672734001232
 30
0.0
 11
-59.99999994744745
 21
-67.85791848009849
 31
0.0
  0
LINE
  5
15B
330
17
100
AcDbEntity
  8
visible
100
AcDbLine
 10
-59.999999952452455
 20
-66.55672734001232
 30
0.0
 11
-59.999999952452455
 21
-34.359453343798705
 31
0.0
  0
LINE
  5
15C
330
17
100
AcDbEntity
  8
visible
100
AcDbLine
 10
60.00000005255255
 20
-67.85791848002034
 30
0.0
 11
60.000000047547545
 21
-66.55672733993417
 31
0.0
  0
LINE
  5
15D
330
17
100
AcDbEntity
  8
visible
100
AcDbLine
 10
60.000000047547545
 20
-66.55672733993417
 30
0.0
 11
60.000000047547545
 21
-34.35945334372056
 31
0.0
  0
LINE
  5
15E
330
17
100
AcDbEntity
  8
visible
100
AcDbLine
 10
38.000000046446445
 20
-66.27046528912953
 30
0.0
 11
38.000000046446445
 21
-34.07319129291592
 31
0.0
  0
ELLIPSE
  5
15F
330
17
100
AcDbEntity
  8
visible
100
AcDbEllipse
 10
38.000000047547545
 20
-66.5567273399485
 30
0.0
 11
-22.0
 21
-0.0
 31
0.0
 40
0.013011911400861748
 41
3.1415926536398433
 42
4.71238898043474
  0
LINE
  5
160
330
17
100
AcDbEntity
  8
visible
100
AcDbLine
 10
-37.999999953553555
 20
-66.27046528917903
 30
0.0
 11
-37.999999953553555
 21
-34.07319129296542
 31
0.0
  0
LINE
  5
161
330
17
100
AcDbEntity
  8
visible
100
AcDbLine
 10
38.000000046446445
 20
-66.27046528912953
 30
0.0
 11
-37.999999953553555
 21
-66.27046528917903
 31
0.0
  0
ELLIPSE
  5
162
330
17
100
AcDbEntity
  8
visible
100
AcDbEllipse
 10
-37.999999952452455
 20
-66.55672733999799
 30
0.0
 11
-22.0
 21
-0.0
 31
0.0
 40
0.013011911400861748
 41
4.712388980434739
 42
6.283185307229636
  0
ELLIPSE
  5
163
330
17
100
AcDbEntity
  8
visible
100
AcDbEllipse
 10
-58.899999952452454
 20
-34.25946180964826
 30
0.0
 11
0.5
 21
1.92323740381775e-09
 31
0.0
 40
0.9999153414973171
 41
3.141592649743644
 42
3.20871095920845
  0
ELLIPSE
  5
164
330
17
100
AcDbEntity
  8
visible
100
AcDbEllipse
 10
-37.999999953498495
 20
-33.98751286135664
 30
0.0
 11
3.2562341223524054e-13
 21
-0.5
 31
0.0
 40
1e-10
 41
4.699376701781747
 42
4.900734622572083
  0
ELLIPSE
  5
165
330
17
100
AcDbEntity
  8
visible
100
AcDbEllipse
 10
-37.999999952452455
 20
-34.25946180963465
 30
0.0
 11
-21.4
 21
-0.0
 31
0.0
 40
0.013011911400861746
 41
4.712388980434739
 42
6.283185307229636
  0
LINE
  5
166
330
17
100
AcDbEntity
  8
visible
100
AcDbLine
 10
38.00000004647648
 20
-33.98100690560671
 30
0.0
 11
-37.99999995352352
 21
-33.98100690565621
 31
0.0
  0
ELLIPSE
  5
167
330
17
100
AcDbEntity
  8
visible
100
AcDbEllipse
 10
38.000000046501505
 20
-33.987512861307145
 30
0.0
 11
3.256230138603493e-13
 21
-0.5
 31
0.0
 40
1e-10
 41
4.699376701781747
 42
4.900734622572083
  0
ELLIPSE
  5
168
330
17
100
AcDbEntity
  8
visible
100
AcDbEllipse
 10
58.90000004754754
 20
-34.25946180957155
 30
0.0
 11
-0.5
 21
-1.923239756751845e-09
 31
0.0
 40
0.9999153414973171
 41
-3.2087109669564104
 42
-3.141592657435947
  0
ELLIPSE
  5
169
330
17
100
AcDbEntity
  8
visible
100
AcDbEllipse
 10
38.00000004754755
 20
-34.259461809585154
 30
0.0
 11
-21.4
 21
-0.0
 31
0.0
 40
0.013011911400861746
 41
3.1415926536398433
 42
4.71238898043474
  0
ELLIPSE
  5
16A
330
17
100
AcDbEntity
  8
visible
100
AcDbEllipse
 10
38.00000005255255
 20
-68.65785075323252
 30
0.0
 11
-21.2
 21
-0.0
 31
0.0
 40
0.013011911400861746
 41
1.5707963268449467
 42
3.1415926536398433
  0
ELLIPSE
  5
16B
330
17
100
AcDbEntity
  8
visible
100
AcDbEllipse
 10
59.200000052552554
 20
-67.85791848002087
 30
0.0
 11
-0.8
 21
-3.0771798461084e-09
 31
0.0
 40
0.9999153414973172
 41
-4.712388984230839
 42
-3.1415926574359423
  0
LINE
  5
16C
330
17
100
AcDbEntity
  8
visible
100
AcDbLine
 10
-59.19999995245246
 20
-67.35665961320964
 30
0.0
 11
-59.19999994744745
 21
-68.65785075329582
 31
0.0
  0
LINE
  5
16D
330
17
100
AcDbEntity
  8
visible
100
AcDbLine
 10
59.200000052552554
 20
-68.65785075321872
 30
0.0
 11
59.20000004754755
 21
-67.35665961313255
 31
0.0
  0
ELLIPSE
  5
16E
330
17
100
AcDbEntity
  8
visible
100
AcDbEllipse
 10
-37.999999952452455
 20
-67.35665961319584
 30
0.0
 11
-21.2
 21
-0.0
 31
0.0
 40
0.013011911400861746
 41
4.712388980434739
 42
6.283185307229636
  0
ELLIPSE
  5
16F
330
17
100
AcDbEntity
  8
visible
100
AcDbEllipse
 10
38.000000047547545
 20
-67.35665961314635
 30
0.0
 11
-21.2
 21
-0.0
 31
0.0
 40
0.013011911400861746
 41
3.1415926536398433
 42
4.71238898043474
  0
LINE
  5
170
330
17
100
AcDbEntity
  8
visible
100
AcDbLine
 10
38.000000046486484
 20
-67.08080709144808
 30
0.0
 11
-37.999999953513516
 21
-67.08080709149758
 31
0.0
  0
ELLIPSE
  5
171
330
17
100
AcDbEntity
  8
visible
100
AcDbEllipse
 10
-59.19999995245246
 20
-66.55672734001179
 30
0.0
 11
0.8
 21
3.0771798461084e-09
 31
0.0
 40
0.9999153414973172
 41
3.141592649743644
 42
4.7123889765385405
  0
ELLIPSE
  5
172
330
17
100
AcDbEntity
  8
visible
100
AcDbEllipse
 10
59.20000004754755
 20
-66.5567273399347
 30
0.0
 11
-0.8
 21
-3.0771836108029526e-09
 31
0.0
 40
0.9999153414973172
 41
-4.712388984230843
 42
-3.141592657435947
  0
ELLIPSE
  5
173
330
17
100
AcDbEntity
  8
visible
100
AcDbEllipse
 10
38.000000046486484
 20
-66.28087481825023
 30
0.0
 11
5.209968221765589e-13
 21
-0.8
 31
0.0
 40
1e-10
 41
4.699376701781747
 42
6.270173028576644
  0
ELLIPSE
  5
174
330
17
100
AcDbEntity
  8
visible
100
AcDbEllipse
 10
-37.999999953513516
 20
-66.28087481829972
 30
0.0
 11
5.209974595763849e-13
 21
-0.8
 31
0.0
 40
1e-10
 41
4.699376701781747
 42
6.270173028576644
  0
LINE
  5
175
330
17
100
AcDbEntity
  8
visible
100
AcDbLine
 10
-59.399999952452454
 20
-34.259461809648585
 30
0.0
 11
-59.399999952452454
 21
-33.259546468151264
 31
0.0
  0
LINE
  5
176
330
17
100
AcDbEntity
  8
visible
100
AcDbLine
 10
-37.99999995352353
 20
-33.98100690565621
 30
0.0
 11
-37.99999995352353
 21
-32.98109156415889
 31
0.0
  0
ELLIPSE
  5
177
330
17
100
AcDbEntity
  8
visible
100
AcDbEllipse
 10
-37.999999952452455
 20
-33.25954646813733
 30
0.0
 11
-21.4
 21
-0.0
 31
0.0
 40
0.013011911400861746
 41
4.712388980434739
 42
6.283185307229636
  0
LINE
  5
178
330
17
100
AcDbEntity
  8
visible
100
AcDbLine
 10
38.00000004647648
 20
-32.98109156410939
 30
0.0
 11
-37.99999995352352
 21
-32.98109156415889
 31
0.0
  0
LINE
  5
179
330
17
100
AcDbEntity
  8
visible
100
AcDbLine
 10
38.00000004647647
 20
-33.98100690560671
 30
0.0
 11
38.00000004647647
 21
-32.98109156410939
 31
0.0
  0
LINE
  5
17A
330
17
100
AcDbEntity
  8
visible
100
AcDbLine
 10
59.40000005152291
 20
-34.293054336564865
 30
0.0
 11
59.40000004754754
 21
-33.2595464680739
 31
0.0
  0
LINE
  5
17B
330
17
100
AcDbEntity
  8
visible
100
AcDbLine
 10
59.40000004754754
 20
-34.25946180957122
 30
0.0
 11
59.40000004754754
 21
-33.2595464680739
 31
0.0
  0
ELLIPSE
  5
17C
330
17
100
AcDbEntity
  8
visible
100
AcDbEllipse
 10
38.00000004754755
 20
-33.259546468087834
 30
0.0
 11
-21.4
 21
-0.0
 31
0.0
 40
0.013011911400861746
 41
3.1415926536398433
 42
4.71238898043474
  0
ELLIPSE
  5
17D
330
17
100
AcDbEntity
  8
visible
100
AcDbEllipse
 10
-58.899999952452454
 20
-33.25954646815094
 30
0.0
 11
-0.5
 21
-1.92323740381775e-09
 31
0.0
 40
0.9999153414973171
 41
-0.20135792463648158
 42
-3.846149170837677e-09
  0
ELLIPSE
  5
17E
330
17
100
AcDbEntity
  8
visible
100
AcDbEllipse
 10
-37.999999953498495
 20
-32.98759751985932
 30
0.0
 11
-3.2562341223524054e-13
 21
0.5
 31
0.0
 40
1e-10
 41
-4.926759179777967
 42
-4.725401258987631
  0
ELLIPSE
  5
17F
330
17
100
AcDbEntity
  8
visible
100
AcDbEllipse
 10
38.000000046501505
 20
-32.987597519809825
 30
0.0
 11
-3.256230138603493e-13
 21
0.5
 31
0.0
 40
1e-10
 41
-4.926759179777967
 42
-4.725401258987631
  0
ELLIPSE
  5
180
330
17
100
AcDbEntity
  8
visible
100
AcDbEllipse
 10
58.90000004754754
 20
-33.25954646807423
 30
0.0
 11
0.5
 21
1.923239756751845e-09
 31
0.0
 40
0.9999153414973171
 41
-3.846153617814707e-09
 42
0.20135791694417854
  0
ELLIPSE
  5
181
330
17
100
AcDbEntity
  8
visible
100
AcDbEllipse
 10
38.00000005255255
 20
-29.46116936653769
 30
0.0
 11
-22.0
 21
-0.0
 31
0.0
 40
0.013011911400861748
 41
3.141571322846889
 42
3.1415926536398433
  0
ELLIPSE
  5
182
330
17
100
AcDbEntity
  8
visible
100
AcDbEllipse
 10
59.200000052552554
 20
-29.461169366523883
 30
0.0
 11
0.8
 21
3.0771798461084e-09
 31
0.0
 40
0.9999153414973172
 41
-3.846149176922609e-09
 42
0.000613940283941794
  0
ELLIPSE
  5
183
330
17
100
AcDbEntity
  8
visible
100
AcDbEllipse
 10
-37.999999953513516
 20
-27.88412570480274
 30
0.0
 11
-5.209974595763849e-13
 21
0.8
 31
0.0
 40
1e-10
 41
-6.283185307179586
 42
-4.725401258987631
  0
ELLIPSE
  5
184
330
17
100
AcDbEntity
  8
visible
100
AcDbEllipse
 10
-37.999999953513516
 20
-27.88412570480274
 30
0.0
 11
-5.209974595763849e-13
 21
0.8
 31
0.0
 40
1e-10
 41
-0.013012278602941851
 42
-0.0
  0
ELLIPSE
  5
185
330
17
100
AcDbEntity
  8
visible
100
AcDbEllipse
 10
-37.999999952452455
 20
-28.15997822650101
 30
0.0
 11
-22.0
 21
-0.0
 31
0.0
 40
0.013011911400861748
 41
4.712388980434739
 42
6.283185307229636
  0
ELLIPSE
  5
186
330
17
100
AcDbEntity
  8
visible
100
AcDbEllipse
 10
38.000000047547545
 20
-28.159978226451514
 30
0.0
 11
-22.0
 21
-0.0
 31
0.0
 40
0.013011911400861748
 41
3.1415926536398433
 42
4.71238898043474
  0
ELLIPSE
  5
187
330
17
100
AcDbEntity
  8
visible
100
AcDbEllipse
 10
38.000000046486484
 20
-27.884125704753245
 30
0.0
 11
-5.209968221765589e-13
 21
0.8
 31
0.0
 40
1e-10
 41
-6.283185307179586
 42
-4.725401258987631
  0
ELLIPSE
  5
188
330
17
100
AcDbEntity
  8
visible
100
AcDbEllipse
 10
38.000000046486484
 20
-27.884125704753245
 30
0.0
 11
-5.209968221765589e-13
 21
0.8
 31
0.0
 40
1e-10
 41
-0.013012278602941851
 42
-0.0
  0
LINE
  5
189
330
17
100
AcDbEntity
  8
visible
100
AcDbLine
 10
38.000000046446445
 20
-27.87371617563256
 30
0.0
 11
-37.999999953553555
 21
-27.873716175682056
 31
0.0
  0
LINE
  5
18A
330
17
100
AcDbEntity
  8
visible
100
AcDbLine
 10
-37.9999999464965
 20
-34.073191292965426
 30
0.0
 11
-37.9999999464965
 21
-33.98100690565621
 31
0.0
  0
LINE
  5
18B
330
17
100
AcDbEntity
  8
visible
100
AcDbLine
 10
38.0000000535035
 20
-34.07319129291593
 30
0.0
 11
38.0000000535035
 21
-33.98100690560671
 31
0.0
  0
LINE
  5
18C
330
17
100
AcDbEntity
  8
visible
100
AcDbLine
 10
60.000000047547545
 20
-33.15955493392378
 30
0.0
 11
60.000000047547545
 21
-28.15997822643719
 31
0.0
  0
LINE
  5
18D
330
17
100
AcDbEntity
  8
visible
100
AcDbLine
 10
38.000000046446445
 20
-32.87329288311914
 30
0.0
 11
38.000000046446445
 21
-27.873716175632552
 31
0.0
  0
LINE
  5
18E
330
17
100
AcDbEntity
  8
visible
100
AcDbLine
 10
-37.999999953553555
 20
-32.87329288316864
 30
0.0
 11
-37.999999953553555
 21
-27.87371617568205
 31
0.0
  0
LINE
  5
18F
330
17
100
AcDbEntity
  8
visible
100
AcDbLine
 10
-37.99999994634635
 20
-27.084125704802744
 30
0.0
 11
-37.99999994634635
 21
-26.273851629286355
 31
0.0
  0
LINE
  5
190
330
17
100
AcDbEntity
  8
visible
100
AcDbLine
 10
38.00000005365365
 20
-27.0841934315554
 30
0.0
 11
38.00000005365365
 21
-26.27385162923686
 31
0.0
  0
ELLIPSE
  5
191
330
17
100
AcDbEntity
  8
visible
100
AcDbEllipse
 10
38.00000005255255
 20
-25.46150800054842
 30
0.0
 11
-22.0
 21
-0.0
 31
0.0
 40
0.013011911400861748
 41
3.141571322846889
 42
3.1415926536398433
  0
ELLIPSE
  5
192
330
17
100
AcDbEntity
  8
visible
100
AcDbEllipse
 10
-59.19999994744745
 20
-27.86130482020529
 30
0.0
 11
0.8
 21
3.0771836108029526e-09
 31
0.0
 40
0.9999153414973172
 41
3.141592649743639
 42
3.329160814158228
  0
LINE
  5
193
330
17
100
AcDbEntity
  8
visible
100
AcDbLine
 10
-59.999999952452455
 20
-26.560113680119635
 30
0.0
 11
-59.99999994744745
 21
-27.86130482020581
 31
0.0
  0
LINE
  5
194
330
17
100
AcDbEntity
  8
visible
100
AcDbLine
 10
-59.999999952452455
 20
-26.560113680119635
 30
0.0
 11
-59.999999952452455
 21
-24.160316860526073
 31
0.0
  0
ELLIPSE
  5
195
330
17
100
AcDbEntity
  8
visible
100
AcDbEllipse
 10
-37.999999952452455
 20
-27.360045953303164
 30
0.0
 11
-21.2
 21
-0.0
 31
0.0
 40
0.013011911400861746
 41
4.712388980434739
 42
6.283185307229636
  0
ELLIPSE
  5
196
330
17
100
AcDbEntity
  8
visible
100
AcDbEllipse
 10
38.000000047547545
 20
-27.360045953253668
 30
0.0
 11
-21.2
 21
-0.0
 31
0.0
 40
0.013011911400861746
 41
3.1415926536398433
 42
4.71238898043474
  0
ELLIPSE
  5
197
330
17
100
AcDbEntity
  8
visible
100
AcDbEllipse
 10
59.200000052552554
 20
-27.861304820128183
 30
0.0
 11
-0.8
 21
-3.0771798461084e-09
 31
0.0
 40
0.9999153414973172
 41
-3.3291597238514576
 42
-3.1415926574359423
  0
ELLIPSE
  5
198
330
17
100
AcDbEntity
  8
visible
100
AcDbEllipse
 10
-37.999999952452455
 20
-23.360384587313895
 30
0.0
 11
-21.2
 21
-0.0
 31
0.0
 40
0.013011911400861746
 41
4.712388980434739
 42
6.283185307229636
  0
ELLIPSE
  5
199
330
17
100
AcDbEntity
  8
visible
100
AcDbEllipse
 10
38.000000047547545
 20
-23.3603845872644
 30
0.0
 11
-21.2
 21
-0.0
 31
0.0
 40
0.013011911400861746
 41
3.1415926536398433
 42
4.71238898043474
  0
LINE
  5
19A
330
17
100
AcDbEntity
  8
visible
100
AcDbLine
 10
38.000000046486484
 20
-23.08453206556613
 30
0.0
 11
-37.999999953513516
 21
-23.084532065615626
 31
0.0
  0
ELLIPSE
  5
19B
330
17
100
AcDbEntity
  8
visible
100
AcDbEllipse
 10
59.200000052552554
 20
-25.461508000534614
 30
0.0
 11
0.8
 21
3.0771798461084e-09
 31
0.0
 40
0.9999153414973172
 41
-3.846149176922609e-09
 42
0.0001754115894270214
  0
LINE
  5
19C
330
17
100
AcDbEntity
  8
visible
100
AcDbLine
 10
60.00000005255255
 20
-27.861304820127664
 30
0.0
 11
60.000000047547545
 21
-26.56011368004149
 31
0.0
  0
LINE
  5
19D
330
17
100
AcDbEntity
  8
visible
100
AcDbLine
 10
60.00000005255255
 20
-25.461508000534096
 30
0.0
 11
60.000000047547545
 21
-24.16031686044792
 31
0.0
  0
LINE
  5
19E
330
17
100
AcDbEntity
  8
visible
100
AcDbLine
 10
60.000000047547545
 20
-26.56011368004149
 30
0.0
 11
60.000000047547545
 21
-24.160316860447928
 31
0.0
  0
ELLIPSE
  5
19F
330
17
100
AcDbEntity
  8
visible
100
AcDbEllipse
 10
-59.19999995245246
 20
-26.560113680119116
 30
0.0
 11
0.8
 21
3.0771798461084e-09
 31
0.0
 40
0.9999153414973172
 41
3.141592649743644
 42
4.5929401944730195
  0
LINE
  5
1A0
330
17
100
AcDbEntity
  8
visible
100
AcDbLine
 10
-37.999999953553555
 20
-26.273851629286348
 30
0.0
 11
-37.999999953553555
 21
-23.874054809692787
 31
0.0
  0
ELLIPSE
  5
1A1
330
17
100
AcDbEntity
  8
visible
100
AcDbEllipse
 10
-37.999999952452455
 20
-26.56011368010531
 30
0.0
 11
-22.0
 21
-0.0
 31
0.0
 40
0.013011911400861748
 41
4.712388980434739
 42
6.283185307229636
  0
ELLIPSE
  5
1A2
330
17
100
AcDbEntity
  8
visible
100
AcDbEllipse
 10
-37.999999952452455
 20
-24.16031686051174
 30
0.0
 11
-22.0
 21
-0.0
 31
0.0
 40
0.013011911400861748
 41
4.712388980434739
 42
6.283185307229636
  0
ELLIPSE
  5
1A3
330
17
100
AcDbEntity
  8
visible
100
AcDbEllipse
 10
59.20000004754755
 20
-26.560113680042008
 30
0.0
 11
-0.8
 21
-3.0771836108029526e-09
 31
0.0
 40
0.9999153414973172
 41
-4.592921429974352
 42
-3.141592657435947
  0
ELLIPSE
  5
1A4
330
17
100
AcDbEntity
  8
visible
100
AcDbEllipse
 10
-37.999999953513516
 20
-26.28426115840704
 30
0.0
 11
5.209974595763849e-13
 21
-0.8
 31
0.0
 40
1e-10
 41
4.699376701781747
 42
6.270173028576644
  0
ELLIPSE
  5
1A5
330
17
100
AcDbEntity
  8
visible
100
AcDbEllipse
 10
38.000000047547545
 20
-26.560113680055814
 30
0.0
 11
-22.0
 21
-0.0
 31
0.0
 40
0.013011911400861748
 41
3.1415926536398433
 42
4.71238898043474
  0
ELLIPSE
  5
1A6
330
17
100
AcDbEntity
  8
visible
100
AcDbEllipse
 10
38.000000046486484
 20
-26.284261158357545
 30
0.0
 11
5.209968221765589e-13
 21
-0.8
 31
0.0
 40
1e-10
 41
4.699376701781747
 42
6.270173028576644
  0
LINE
  5
1A7
330
17
100
AcDbEntity
  8
visible
100
AcDbLine
 10
38.000000046446445
 20
-26.27385162923686
 30
0.0
 11
-37.999999953553555
 21
-26.273851629286355
 31
0.0
  0
ELLIPSE
  5
1A8
330
17
100
AcDbEntity
  8
visible
100
AcDbEllipse
 10
-37.999999953513516
 20
-23.884464338813473
 30
0.0
 11
-5.209974595763849e-13
 21
0.8
 31
0.0
 40
1e-10
 41
-6.283185307179586
 42
-4.725401258987631
  0
ELLIPSE
  5
1A9
330
17
100
AcDbEntity
  8
visible
100
AcDbEllipse
 10
-37.999999953513516
 20
-23.884464338813473
 30
0.0
 11
-5.209974595763849e-13
 21
0.8
 31
0.0
 40
1e-10
 41
-0.013012278602941851
 42
-0.0
  0
ELLIPSE
  5
1AA
330
17
100
AcDbEntity
  8
visible
100
AcDbEllipse
 10
38.000000047547545
 20
-24.160316860462245
 30
0.0
 11
-22.0
 21
-0.0
 31
0.0
 40
0.013011911400861748
 41
3.1415926536398433
 42
4.71238898043474
  0
ELLIPSE
  5
1AB
330
17
100
AcDbEntity
  8
visible
100
AcDbEllipse
 10
38.000000046486484
 20
-23.884464338763976
 30
0.0
 11
-5.209968221765589e-13
 21
0.8
 31
0.0
 40
1e-10
 41
-6.283185307179586
 42
-4.725401258987631
  0
ELLIPSE
  5
1AC
330
17
100
AcDbEntity
  8
visible
100
AcDbEllipse
 10
38.000000046486484
 20
-23.884464338763976
 30
0.0
 11
-5.209968221765589e-13
 21
0.8
 31
0.0
 40
1e-10
 41
-0.013012278602941851
 42
-0.0
  0
LINE
  5
1AD
330
17
100
AcDbEntity
  8
visible
100
AcDbLine
 10
38.000000046446445
 20
-23.87405480964329
 30
0.0
 11
-37.999999953553555
 21
-23.874054809692787
 31
0.0
  0
LINE
  5
1AE
330
17
100
AcDbEntity
  8
visible
100
AcDbLine
 10
38.000000046446445
 20
-26.27385162923686
 30
0.0
 11
38.000000046446445
 21
-23.874054809643297
 31
0.0
  0
LINE
  5
1AF
330
17
100
AcDbEntity
  8
visible
100
AcDbLine
 10
-19.99999995205205
 20
-6.265936004755211
 30
0.0
 11
-19.99999995205205
 21
-6.213887776946258
 31
0.0
  0
LINE
  5
1B0
330
17
100
AcDbEntity
  8
visible
100
AcDbLine
 10
-19.99999995225225
 20
-6.21388835915176
 30
0.0
 11
-19.99999995225225
 21
0.18556982643106945
 31
0.0
  0
ELLIPSE
  5
1B1
330
17
100
AcDbEntity
  8
visible
100
AcDbEllipse
 10
-19.19999995225225
 20
0.18556982643158904
 30
0.0
 11
-0.8
 21
-3.0771798461084e-09
 31
0.0
 40
0.9999153414973172
 41
-1.5707963306410457
 42
-3.846149170837677e-09
  0
LINE
  5
1B2
330
17
100
AcDbEntity
  8
visible
100
AcDbLine
 10
-14.9999999525025
 20
-6.148828802144195
 30
0.0
 11
-14.9999999525025
 21
-1.299139002370822
 31
0.0
  0
ELLIPSE
  5
1B3
330
17
100
AcDbEntity
  8
visible
100
AcDbEllipse
 10
-14.999999952252251
 20
0.18556982643431752
 30
0.0
 11
-5.0
 21
-0.0
 31
0.0
 40
0.013011911400861748
 41
4.980479783804551
 42
6.283185307229636
  0
ELLIPSE
  5
1B4
330
17
100
AcDbEntity
  8
visible
100
AcDbEllipse
 10
-1.9999999518418414
 20
10.97794937527648
 30
0.0
 11
18.0
 21
6.923663124306643e-08
 31
0.0
 40
0.999915341497317
 41
3.141592649743639
 42
3.726964438914015
  0
ELLIPSE
  5
1B5
330
17
100
AcDbEntity
  8
visible
100
AcDbEllipse
 10
-14.999999952252251
 20
0.9855020996321713
 30
0.0
 11
-4.2
 21
-0.0
 31
0.0
 40
0.013011911400861748
 41
5.180003296818325
 42
6.283185307229636
  0
ELLIPSE
  5
1B6
330
17
100
AcDbEntity
  8
visible
100
AcDbEllipse
 10
15.000000047747749
 20
0.9855020996517112
 30
0.0
 11
-4.2
 21
-0.0
 31
0.0
 40
0.013011911400861748
 41
3.1415926536398433
 42
4.2447746640695865
  0
LINE
  5
1B7
330
17
100
AcDbEntity
  8
visible
100
AcDbLine
 10
15.0000000474975
 20
-6.148828802124662
 30
0.0
 11
15.0000000474975
 21
-1.2991390250407022
 31
0.0
  0
ELLIPSE
  5
1B8
330
17
100
AcDbEntity
  8
visible
100
AcDbEllipse
 10
15.00000004794795
 20
0.1335221808504201
 30
0.0
 11
-5.0
 21
-0.0
 31
0.0
 40
0.013011911400861748
 41
3.141583704868677
 42
3.1415926536398433
  0
LINE
  5
1B9
330
17
100
AcDbEntity
  8
visible
100
AcDbLine
 10
20.00000004794795
 20
0.1335221808536744
 30
0.0
 11
20.00000004774775
 21
0.18556982645712145
 31
0.0
  0
LINE
  5
1BA
330
17
100
AcDbEntity
  8
visible
100
AcDbLine
 10
20.00000004774775
 20
-6.213888359125711
 30
0.0
 11
20.00000004774775
 21
0.18556982645711795
 31
0.0
  0
ELLIPSE
  5
1BB
330
17
100
AcDbEntity
  8
visible
100
AcDbEllipse
 10
15.000000047747749
 20
0.18556982645385744
 30
0.0
 11
-5.0
 21
-0.0
 31
0.0
 40
0.013011911400861748
 41
3.1415926536398433
 42
4.444298177064905
  0
ELLIPSE
  5
1BC
330
17
100
AcDbEntity
  8
visible
100
AcDbEllipse
 10
19.20000004815816
 20
50.47460536443431
 30
0.0
 11
0.8
 21
0.0
 31
0.0
 40
0.013011911400861748
 41
-2.3463876316576204e-05
 42
5.004974212852176e-11
  0
ELLIPSE
  5
1BD
330
17
100
AcDbEntity
  8
visible
100
AcDbEllipse
 10
2.0000000481581584
 20
50.47460536442311
 30
0.0
 11
18.0
 21
6.923663124306643e-08
 31
0.0
 40
0.999915341497317
 41
-3.846153617814707e-09
 42
0.00012992436944259111
  0
ELLIPSE
  5
1BE
330
17
100
AcDbEntity
  8
visible
100
AcDbEllipse
 10
2.0000000481581584
 20
10.977949375279081
 30
0.0
 11
18.0
 21
6.923663124306643e-08
 31
0.0
 40
0.999915341497317
 41
5.697813514135001
 42
6.283185303333433
  0
ELLIPSE
  5
1BF
330
17
100
AcDbEntity
  8
visible
100
AcDbEllipse
 10
-1.9999999520620617
 20
11.035201785440265
 30
0.0
 11
18.0
 21
6.923663124306643e-08
 31
0.0
 40
0.999915341497317
 41
3.141592649743639
 42
3.730768026390017
  0
ELLIPSE
  5
1C0
330
17
100
AcDbEntity
  8
visible
100
AcDbEllipse
 10
2.000000047897898
 20
50.54226730370759
 30
0.0
 11
17.2
 21
6.615944763226347e-08
 31
0.0
 40
0.9999153414973171
 41
-3.846153617814707e-09
 42
0.00013291152767003211
  0
ELLIPSE
  5
1C1
330
17
100
AcDbEntity
  8
visible
100
AcDbEllipse
 10
2.0000000479379385
 20
11.03520178544288
 30
0.0
 11
18.0
 21
6.923663124306643e-08
 31
0.0
 40
0.999915341497317
 41
5.694009926666151
 42
6.283185303333433
  0
ELLIPSE
  5
1C2
330
17
100
AcDbEntity
  8
visible
100
AcDbEllipse
 10
19.20000004794795
 20
0.1335221808531486
 30
0.0
 11
0.8
 21
3.0771798461084e-09
 31
0.0
 40
0.9999153414973172
 41
-3.846149176922609e-09
 42
0.000263117240255184
  0
ELLIPSE
  5
1C3
330
17
100
AcDbEntity
  8
visible
100
AcDbEllipse
 10
19.20000004774775
 20
0.18556982645660014
 30
0.0
 11
0.8
 21
3.0771836108029526e-09
 31
0.0
 40
0.9999153414973172
 41
-3.846153617814707e-09
 42
1.5707963229487427
  0
LINE
  5
1C4
330
17
100
AcDbEntity
  8
visible
100
AcDbLine
 10
-19.999999952062062
 20
11.386523998293313
 30
0.0
 11
-19.999999952062062
 21
11.384184883369187
 31
0.0
  0
LINE
  5
1C5
330
17
100
AcDbEntity
  8
visible
100
AcDbLine
 10
-19.999999952062062
 20
11.053682333787293
 30
0.0
 11
-19.999999952062062
 21
11.035201785428562
 31
0.0
  0
ELLIPSE
  5
1C6
330
17
100
AcDbEntity
  8
visible
100
AcDbEllipse
 10
2.0000000479379385
 20
50.53185777458691
 30
0.0
 11
18.0
 21
6.923663124306643e-08
 31
0.0
 40
0.999915341497317
 41
-3.846153617814707e-09
 42
0.00012992436944259111
  0
LINE
  5
1C7
330
17
100
AcDbEntity
  8
visible
100
AcDbLine
 10
20.000000047937938
 20
11.035201785454603
 30
0.0
 11
20.000000047937938
 21
50.53185777459863
 31
0.0
  0
ELLIPSE
  5
1C8
330
17
100
AcDbEntity
  8
visible
100
AcDbEllipse
 10
19.200000047937937
 20
50.53185777459811
 30
0.0
 11
-0.8
 21
-0.0
 31
0.0
 40
0.013011911400861748
 41
3.1415926536398433
 42
3.1416507773507374
  0
ELLIPSE
  5
1C9
330
17
100
AcDbEntity
  8
visible
100
AcDbEllipse
 10
5.005005063493981e-08
 20
-7.512377022626502
 30
0.0
 11
57.2
 21
0.0
 31
0.0
 40
0.013011911400861748
 41
-6.835056647149477
 42
-4.712388980334639
  0
ELLIPSE
  5
1CA
330
17
100
AcDbEntity
  8
visible
100
AcDbEllipse
 10
5.005005063493981e-08
 20
-7.512377022626502
 30
0.0
 11
57.2
 21
0.0
 31
0.0
 40
0.013011911400861748
 41
-4.712388980334639
 42
-2.589721313619902
  0
ELLIPSE
  5
1CB
330
17
100
AcDbEntity
  8
visible
100
AcDbEllipse
 10
5.005005063493981e-08
 20
-23.21104788413438
 30
0.0
 11
57.2
 21
0.0
 31
0.0
 40
0.013011911400861748
 41
-6.32440073302363
 42
-4.712388980334639
  0
ELLIPSE
  5
1CC
330
17
100
AcDbEntity
  8
visible
100
AcDbEllipse
 10
5.005005063493981e-08
 20
-23.21104788413438
 30
0.0
 11
57.2
 21
0.0
 31
0.0
 40
0.013011911400861748
 41
-4.712388980334639
 42
-3.100379027489701
  0
ELLIPSE
  5
1CD
330
17
100
AcDbEntity
  8
visible
100
AcDbEllipse
 10
5.005005063493981e-08
 20
-23.21104788413438
 30
0.0
 11
55.8
 21
0.0
 31
0.0
 40
0.013011911400861748
 41
-6.2821829429362115
 42
-4.712388980334639
  0
ELLIPSE
  5
1CE
330
17
100
AcDbEntity
  8
visible
100
AcDbEllipse
 10
5.005005063493981e-08
 20
-23.21104788413438
 30
0.0
 11
55.8
 21
0.0
 31
0.0
 40
0.013011911400861748
 41
-4.712388980334639
 42
-3.1425949697758724
  0
ELLIPSE
  5
1CF
330
17
100
AcDbEntity
  8
visible
100
AcDbEllipse
 10
5.005005063493981e-08
 20
-22.411115610936534
 30
0.0
 11
55.0
 21
0.0
 31
0.0
 40
0.013011911400861748
 41
-1.1493387583275956
 42
-0.5774914203770023
  0
ELLIPSE
  5
1D0
330
17
100
AcDbEntity
  8
visible
100
AcDbEllipse
 10
5.005005063493981e-08
 20
-22.411115610936534
 30
0.0
 11
55.0
 21
0.0
 31
0.0
 40
0.013011911400861748
 41
-2.5640977172352195
 42
-1.9922538952621984
  0
LINE
  5
1D1
330
17
100
AcDbEntity
  8
visible
100
AcDbLine
 10
-19.99999995214214
 20
11.056020843669923
 30
0.0
 11
-19.99999995341341
 21
11.386523393251812
 31
0.0
  0
LINE
  5
1D2
330
17
100
AcDbEntity
  8
visible
100
AcDbLine
 10
-19.99999995214214
 20
11.386523980092818
 30
0.0
 11
-19.99999995214214
 21
11.384184883346109
 31
0.0
  0
LINE
  5
1D3
330
17
100
AcDbEntity
  8
visible
100
AcDbLine
 10
-19.99999995341341
 20
50.88317938239585
 30
0.0
 11
-19.99999995341341
 21
11.386523393251828
 31
0.0
  0
ELLIPSE
  5
1D4
330
17
100
AcDbEntity
  8
visible
100
AcDbEllipse
 10
-1.9999999521421417
 20
11.056020843681651
 30
0.0
 11
18.0
 21
6.923663124306643e-08
 31
0.0
 40
0.999915341497317
 41
3.141592649743639
 42
3.7173192977238294
  0
LINE
  5
1D5
330
17
100
AcDbEntity
  8
visible
100
AcDbLine
 10
-1.9999999528113264
 20
-6.768482933148121
 30
0.0
 11
-1.9999999534134165
 21
-6.611952753688174
 31
0.0
  0
ELLIPSE
  5
1D6
330
17
100
AcDbEntity
  8
visible
100
AcDbEllipse
 10
-1.9999999534134127
 20
11.386523393263545
 30
0.0
 11
18.0
 21
6.923663124306643e-08
 31
0.0
 40
0.999915341497317
 41
3.141592649743639
 42
4.712388976538536
  0
ELLIPSE
  5
1D7
330
17
100
AcDbEntity
  8
visible
100
AcDbEllipse
 10
-19.19999995341341
 20
50.883179382396364
 30
0.0
 11
0.8
 21
-9.833744260545764e-17
 31
0.0
 40
0.013011911400861748
 41
-4.712388980334639
 42
-3.141592653539743
  0
LINE
  5
1D8
330
17
100
AcDbEntity
  8
visible
100
AcDbLine
 10
-19.199999953453453
 20
50.89358891151706
 30
0.0
 11
-19.199999953453453
 21
11.396932922373033
 31
0.0
  0
ELLIPSE
  5
1D9
330
17
100
AcDbEntity
  8
visible
100
AcDbEllipse
 10
-19.19999995341341
 20
11.386523393252332
 30
0.0
 11
0.8
 21
0.0
 31
0.0
 40
0.013011911400861748
 41
-4.712388980334639
 42
-3.141592653539743
  0
ELLIPSE
  5
1DA
330
17
100
AcDbEntity
  8
visible
100
AcDbEllipse
 10
-1.9999999534134127
 20
50.883179382407576
 30
0.0
 11
18.0
 21
6.923663124306643e-08
 31
0.0
 40
0.999915341497317
 41
1.5707963229487427
 42
3.1415926497436395
  0
ELLIPSE
  5
1DB
330
17
100
AcDbEntity
  8
visible
100
AcDbEllipse
 10
-14.999999952252251
 20
1.285476702081354
 30
0.0
 11
-4.2
 21
-0.0
 31
0.0
 40
0.013011911400861748
 41
5.235468332720635
 42
5.2355326108954845
  0
LINE
  5
1DC
330
17
100
AcDbEntity
  8
visible
100
AcDbLine
 10
2.000000047188674
 20
-6.768482933145506
 30
0.0
 11
2.0000000465865835
 21
-6.611952753685566
 31
0.0
  0
LINE
  5
1DD
330
17
100
AcDbEntity
  8
visible
100
AcDbLine
 10
-1.9999999534134163
 20
-6.611952753688172
 30
0.0
 11
2.0000000465865835
 21
-6.611952753685567
 31
0.0
  0
ELLIPSE
  5
1DE
330
17
100
AcDbEntity
  8
visible
100
AcDbEllipse
 10
-1.9999999534534532
 20
11.396932922384224
 30
0.0
 11
17.2
 21
6.615944763226347e-08
 31
0.0
 40
0.9999153414973171
 41
3.141592649743639
 42
4.712388976538536
  0
ELLIPSE
  5
1DF
330
17
100
AcDbEntity
  8
visible
100
AcDbEllipse
 10
-1.9999999534134136
 20
-5.812020480490318
 30
0.0
 11
-5.209484778514895e-13
 21
0.8
 31
0.0
 40
1e-10
 41
-4.725401258987631
 42
-3.154604932192735
  0
ELLIPSE
  5
1E0
330
17
100
AcDbEntity
  8
visible
100
AcDbEllipse
 10
-1.9999999534134127
 20
68.08172325616142
 30
0.0
 11
5.209974595763849e-13
 21
-0.8
 31
0.0
 40
1e-10
 41
3.1285803749868513
 42
3.141592653589793
  0
ELLIPSE
  5
1E1
330
17
100
AcDbEntity
  8
visible
100
AcDbEllipse
 10
-1.9999999534134127
 20
68.08172325616142
 30
0.0
 11
5.209974595763849e-13
 21
-0.8
 31
0.0
 40
1e-10
 41
3.141592653589793
 42
4.699376701781748
  0
ELLIPSE
  5
1E2
330
17
100
AcDbEntity
  8
visible
100
AcDbEllipse
 10
-1.9999999534534532
 20
50.893588911528255
 30
0.0
 11
17.2
 21
6.615944763226347e-08
 31
0.0
 40
0.9999153414973171
 41
1.5707963229487427
 42
3.1415926497436395
  0
LINE
  5
1E3
330
17
100
AcDbEntity
  8
visible
100
AcDbLine
 10
-1.9999999534534567
 20
-5.801610951369632
 30
0.0
 11
2.0000000465465435
 21
-5.801610951367027
 31
0.0
  0
ELLIPSE
  5
1E4
330
17
100
AcDbEntity
  8
visible
100
AcDbEllipse
 10
2.000000046546547
 20
11.396932922386839
 30
0.0
 11
17.2
 21
6.615944763226347e-08
 31
0.0
 40
0.9999153414973171
 41
4.712388976538536
 42
6.283185303333433
  0
LINE
  5
1E5
330
17
100
AcDbEntity
  8
visible
100
AcDbLine
 10
2.000000046546547
 20
68.0921327852847
 30
0.0
 11
-1.999999953453453
 21
68.0921327852821
 31
0.0
  0
LINE
  5
1E6
330
17
100
AcDbEntity
  8
visible
100
AcDbLine
 10
19.200000046546545
 20
11.396932922398037
 30
0.0
 11
19.200000046546545
 21
50.89358891154206
 31
0.0
  0
ELLIPSE
  5
1E7
330
17
100
AcDbEntity
  8
visible
100
AcDbEllipse
 10
2.000000046546547
 20
50.89358891153087
 30
0.0
 11
17.2
 21
6.615944763226347e-08
 31
0.0
 40
0.9999153414973171
 41
-3.846153617814707e-09
 42
1.5707963229487427
  0
LINE
  5
1E8
330
17
100
AcDbEntity
  8
visible
100
AcDbLine
 10
2.000000046586587
 20
68.88165552936185
 30
0.0
 11
-1.999999953413413
 21
68.88165552935925
 31
0.0
  0
ELLIPSE
  5
1E9
330
17
100
AcDbEntity
  8
visible
100
AcDbEllipse
 10
2.000000047857858
 20
11.056020843684252
 30
0.0
 11
18.0
 21
6.923663124306643e-08
 31
0.0
 40
0.999915341497317
 41
5.707458655353242
 42
6.283185303333433
  0
ELLIPSE
  5
1EA
330
17
100
AcDbEntity
  8
visible
100
AcDbEllipse
 10
2.000000046586587
 20
11.386523393266145
 30
0.0
 11
18.0
 21
6.923663124306643e-08
 31
0.0
 40
0.999915341497317
 41
4.712388976538536
 42
6.283185303333433
  0
ELLIPSE
  5
1EB
330
17
100
AcDbEntity
  8
visible
100
AcDbEllipse
 10
2.0000000465865835
 20
-5.8120204804877105
 30
0.0
 11
-5.209974595763849e-13
 21
0.8
 31
0.0
 40
1e-10
 41
-4.725401258987631
 42
-3.154604932192735
  0
ELLIPSE
  5
1EC
330
17
100
AcDbEntity
  8
visible
100
AcDbEllipse
 10
19.20000004785786
 20
50.55267683283948
 30
0.0
 11
0.8
 21
0.0
 31
0.0
 40
0.013011911400861748
 41
-5.6375315254264535e-05
 42
5.004974212852176e-11
  0
ELLIPSE
  5
1ED
330
17
100
AcDbEntity
  8
visible
100
AcDbEllipse
 10
2.000000047857858
 20
50.55267683282828
 30
0.0
 11
18.0
 21
6.923663124306643e-08
 31
0.0
 40
0.999915341497317
 41
-3.846153617814707e-09
 42
0.00012992436944259111
  0
ELLIPSE
  5
1EE
330
17
100
AcDbEntity
  8
visible
100
AcDbEllipse
 10
15.000000047747749
 20
1.285476702100894
 30
0.0
 11
-4.2
 21
-0.0
 31
0.0
 40
0.013011911400861748
 41
4.189245349973994
 42
4.18930962814963
  0
ELLIPSE
  5
1EF
330
17
100
AcDbEntity
  8
visible
100
AcDbEllipse
 10
2.000000046586588
 20
68.08172325616401
 30
0.0
 11
5.209484778514895e-13
 21
-0.8
 31
0.0
 40
1e-10
 41
3.1285803749868513
 42
3.141592653589793
  0
ELLIPSE
  5
1F0
330
17
100
AcDbEntity
  8
visible
100
AcDbEllipse
 10
2.000000046586588
 20
68.08172325616401
 30
0.0
 11
5.209484778514895e-13
 21
-0.8
 31
0.0
 40
1e-10
 41
3.141592653589793
 42
4.699376701781748
  0
ELLIPSE
  5
1F1
330
17
100
AcDbEntity
  8
visible
100
AcDbEllipse
 10
19.200000046586588
 20
11.386523393277344
 30
0.0
 11
-0.8
 21
1.8716280439759974e-16
 31
0.0
 40
0.013011911400861748
 41
3.1415926536398433
 42
4.71238898043474
  0
ELLIPSE
  5
1F2
330
17
100
AcDbEntity
  8
visible
100
AcDbEllipse
 10
19.200000046586588
 20
50.883179382421375
 30
0.0
 11
-0.8
 21
-0.0
 31
0.0
 40
0.013011911400861748
 41
3.1415926536398433
 42
4.71238898043474
  0
ELLIPSE
  5
1F3
330
17
100
AcDbEntity
  8
visible
100
AcDbEllipse
 10
2.000000046586587
 20
50.88317938241018
 30
0.0
 11
18.0
 21
6.923663124306643e-08
 31
0.0
 40
0.999915341497317
 41
-3.846153617814707e-09
 42
1.5707963229487427
  0
ELLIPSE
  5
1F4
330
17
100
AcDbEntity
  8
visible
100
AcDbEllipse
 10
4.650150204492258e-08
 20
42.905976899811805
 30
0.0
 11
14.0
 21
5.3850713189050754e-08
 31
0.0
 40
0.9999153414973171
 41
4.712388976538536
 42
6.283185307179586
  0
ELLIPSE
  5
1F5
330
17
100
AcDbEntity
  8
visible
100
AcDbEllipse
 10
4.650150204492258e-08
 20
42.905976899811805
 30
0.0
 11
14.0
 21
5.3850713189050754e-08
 31
0.0
 40
0.9999153414973171
 41
0.0
 42
3.141592653589793
  0
ELLIPSE
  5
1F6
330
17
100
AcDbEntity
  8
visible
100
AcDbEllipse
 10
4.650150204492258e-08
 20
42.905976899811805
 30
0.0
 11
14.0
 21
5.3850713189050754e-08
 31
0.0
 40
0.9999153414973171
 41
3.141592653589793
 42
4.712388976538536
  0
ELLIPSE
  5
1F7
330
17
100
AcDbEntity
  8
visible
100
AcDbEllipse
 10
4.64814820246686e-08
 20
42.91118166437214
 30
0.0
 11
13.6
 21
5.23121213836493e-08
 31
0.0
 40
0.9999153414973171
 41
4.712388976538536
 42
10.995574283718122
  0
ELLIPSE
  5
1F8
330
17
100
AcDbEntity
  8
visible
100
AcDbEllipse
 10
-1.9999999480580575
 20
9.994248873371333
 30
0.0
 11
18.0
 21
6.923663124306643e-08
 31
0.0
 40
0.999915341497317
 41
3.4467323319917953
 42
3.6630472943246866
  0
ELLIPSE
  5
1F9
330
17
100
AcDbEntity
  8
visible
100
AcDbEllipse
 10
-1.9999999478378374
 20
9.936996463207535
 30
0.0
 11
18.0
 21
6.923663124306643e-08
 31
0.0
 40
0.999915341497317
 41
3.4433990556229377
 42
3.6594041881414148
  0
ELLIPSE
  5
1FA
330
17
100
AcDbEntity
  8
visible
100
AcDbEllipse
 10
2.0000000521621626
 20
9.93699646321015
 30
0.0
 11
18.0
 21
6.923663124306643e-08
 31
0.0
 40
0.999915341497317
 41
5.765373764930501
 42
5.9813788974541335
  0
ELLIPSE
  5
1FB
330
17
100
AcDbEntity
  8
visible
100
AcDbEllipse
 10
2.0000000519419423
 20
9.994248873373934
 30
0.0
 11
18.0
 21
6.923663124306643e-08
 31
0.0
 40
0.999915341497317
 41
5.761730658748964
 42
5.978045621085276
  0
ELLIPSE
  5
1FC
330
17
100
AcDbEntity
  8
visible
100
AcDbEllipse
 10
19.200000052152152
 20
-0.8594868426694973
 30
0.0
 11
0.8
 21
3.0771873754975047e-09
 31
0.0
 40
0.9999153414973172
 41
-3.846158946885225e-09
 42
0.0002649384366648633
  0
ELLIPSE
  5
1FD
330
17
100
AcDbEntity
  8
visible
100
AcDbEllipse
 10
15.000000052152153
 20
-0.85948684267224
 30
0.0
 11
5.0
 21
0.0
 31
0.0
 40
0.013011911400861748
 41
-6.283185307129536
 42
-6.283143333844606
  0
ELLIPSE
  5
1FE
330
17
100
AcDbEntity
  8
visible
100
AcDbEllipse
 10
19.20000005235235
 20
-0.9115344882729488
 30
0.0
 11
0.8
 21
3.0771836108029526e-09
 31
0.0
 40
0.9999153414973172
 41
-3.846153617814707e-09
 42
0.00026311740903484093
  0
ELLIPSE
  5
1FF
330
17
100
AcDbEntity
  8
visible
100
AcDbEllipse
 10
15.000000052352354
 20
-0.9115344882756773
 30
0.0
 11
5.0
 21
0.0
 31
0.0
 40
0.013011911400861748
 41
-8.948758335236562e-06
 42
5.004974212852176e-11
  0
LINE
  5
200
330
17
100
AcDbEntity
  8
visible
100
AcDbLine
 10
20.000000052352352
 20
-6.814999318883153
 30
0.0
 11
20.000000052352352
 21
-0.9115344882724381
 31
0.0
  0
ELLIPSE
  5
201
330
17
100
AcDbEntity
  8
visible
100
AcDbEllipse
 10
-1.9999999477577572
 20
9.916177404966163
 30
0.0
 11
18.0
 21
6.923663124306643e-08
 31
0.0
 40
0.999915341497317
 41
3.44218781434106
 42
3.658081360514206
  0
ELLIPSE
  5
202
330
17
100
AcDbEntity
  8
visible
100
AcDbEllipse
 10
-1.999999946486486
 20
9.58567485538427
 30
0.0
 11
18.0
 21
6.923663124306643e-08
 31
0.0
 40
0.999915341497317
 41
3.4230187509753076
 42
3.6372159666814237
  0
ELLIPSE
  5
203
330
17
100
AcDbEntity
  8
visible
100
AcDbEllipse
 10
2.000000052242243
 20
9.916177404968764
 30
0.0
 11
18.0
 21
6.923663124306643e-08
 31
0.0
 40
0.999915341497317
 41
5.766696592557301
 42
5.982590138736012
  0
ELLIPSE
  5
204
330
17
100
AcDbEntity
  8
visible
100
AcDbEllipse
 10
2.000000053513514
 20
9.58567485538687
 30
0.0
 11
18.0
 21
6.923663124306643e-08
 31
0.0
 40
0.999915341497317
 41
5.787561986380454
 42
6.0017592021017645
  0
ELLIPSE
  5
205
330
17
100
AcDbEntity
  8
visible
100
AcDbEllipse
 10
26.500000051476476
 20
8.815369705471397
 30
0.0
 11
-3.0
 21
-0.0
 31
0.0
 40
0.013011911400861748
 41
3.1415490428078106
 42
3.1415926536398433
  0
ELLIPSE
  5
206
330
17
100
AcDbEntity
  8
visible
100
AcDbEllipse
 10
-28.699999948523523
 20
5.415657544344555
 30
0.0
 11
0.8
 21
3.0771836108029526e-09
 31
0.0
 40
0.9999153414973172
 41
3.141592649743639
 42
4.712388976538536
  0
LINE
  5
207
330
17
100
AcDbEntity
  8
visible
100
AcDbLine
 10
-29.499999951376374
 20
6.15733649419316
 30
0.0
 11
-29.49999994852352
 21
5.4156575443440405
 31
0.0
  0
LINE
  5
208
330
17
100
AcDbEntity
  8
visible
100
AcDbLine
 10
-29.499999951376374
 20
6.157336494193174
 30
0.0
 11
-29.499999951376374
 21
9.557048655284053
 31
0.0
  0
ELLIPSE
  5
209
330
17
100
AcDbEntity
  8
visible
100
AcDbEllipse
 10
28.700000051476476
 20
5.4156575443819435
 30
0.0
 11
-0.8
 21
-3.0771798461084e-09
 31
0.0
 40
0.9999153414973172
 41
-4.712388984230839
 42
-3.1415926574359423
  0
ELLIPSE
  5
20A
330
17
100
AcDbEntity
  8
visible
100
AcDbEllipse
 10
28.700000051476476
 20
8.815369705472833
 30
0.0
 11
0.8
 21
3.0771798461084e-09
 31
0.0
 40
0.9999153414973172
 41
-3.846149176922609e-09
 42
0.00020095913571882562
  0
LINE
  5
20B
330
17
100
AcDbEntity
  8
visible
100
AcDbLine
 10
29.500000051476476
 20
5.415657544382455
 30
0.0
 11
29.500000048623622
 21
6.157336494231575
 31
0.0
  0
LINE
  5
20C
330
17
100
AcDbEntity
  8
visible
100
AcDbLine
 10
29.500000051476476
 20
8.815369705473344
 30
0.0
 11
29.500000048623622
 21
9.557048655322465
 31
0.0
  0
LINE
  5
20D
330
17
100
AcDbEntity
  8
visible
100
AcDbLine
 10
29.500000048623626
 20
6.1573364942316005
 30
0.0
 11
29.500000048623626
 21
9.557048655322479
 31
0.0
  0
ELLIPSE
  5
20E
330
17
100
AcDbEntity
  8
visible
100
AcDbEllipse
 10
-28.699999951376373
 20
6.157336494193672
 30
0.0
 11
0.8
 21
3.0771798461084e-09
 31
0.0
 40
0.9999153414973172
 41
3.141592649743644
 42
4.7123889765385405
  0
ELLIPSE
  5
20F
330
17
100
AcDbEntity
  8
visible
100
AcDbEllipse
 10
-28.699999951376373
 20
9.55704865528456
 30
0.0
 11
-0.8
 21
-3.0771798461084e-09
 31
0.0
 40
0.9999153414973172
 41
-1.5707963306410457
 42
-3.846149170837677e-09
  0
LINE
  5
210
330
17
100
AcDbEntity
  8
visible
100
AcDbLine
 10
-26.499999951526526
 20
6.196372228397706
 30
0.0
 11
-26.499999951526526
 21
9.596084389488585
 31
0.0
  0
ELLIPSE
  5
211
330
17
100
AcDbEntity
  8
visible
100
AcDbEllipse
 10
-26.499999951376374
 20
6.157336494195107
 30
0.0
 11
-3.0
 21
-0.0
 31
0.0
 40
0.013011911400861748
 41
4.712388980434739
 42
6.283185307229636
  0
ELLIPSE
  5
212
330
17
100
AcDbEntity
  8
visible
100
AcDbEllipse
 10
-26.499999951376374
 20
9.557048655285996
 30
0.0
 11
-3.0
 21
-0.0
 31
0.0
 40
0.013011911400861748
 41
4.712388980434739
 42
6.283185307229636
  0
ELLIPSE
  5
213
330
17
100
AcDbEntity
  8
visible
100
AcDbEllipse
 10
-26.499999951486487
 20
6.185962699276999
 30
0.0
 11
5.209974595763849e-13
 21
-0.8
 31
0.0
 40
1e-10
 41
4.699376701781747
 42
6.270173028576644
  0
ELLIPSE
  5
214
330
17
100
AcDbEntity
  8
visible
100
AcDbEllipse
 10
26.500000048513513
 20
6.185962699311517
 30
0.0
 11
5.209968221765589e-13
 21
-0.8
 31
0.0
 40
1e-10
 41
4.699376701781747
 42
6.270173028576644
  0
LINE
  5
215
330
17
100
AcDbEntity
  8
visible
100
AcDbLine
 10
26.500000048473474
 20
6.19637222843221
 30
0.0
 11
19.353179491215343
 21
6.196372228427556
 31
0.0
  0
LINE
  5
216
330
17
100
AcDbEntity
  8
visible
100
AcDbLine
 10
-19.35317947444799
 20
6.196372228402349
 30
0.0
 11
-26.499999951526526
 21
6.196372228397694
 31
0.0
  0
ELLIPSE
  5
217
330
17
100
AcDbEntity
  8
visible
100
AcDbEllipse
 10
28.700000048623625
 20
6.15733649423106
 30
0.0
 11
-0.8
 21
-3.0771836108029526e-09
 31
0.0
 40
0.9999153414973172
 41
-4.712388984230843
 42
-3.141592657435947
  0
ELLIPSE
  5
218
330
17
100
AcDbEntity
  8
visible
100
AcDbEllipse
 10
26.500000048623626
 20
6.157336494229625
 30
0.0
 11
-3.0
 21
-0.0
 31
0.0
 40
0.013011911400861748
 41
3.1415926536398433
 42
4.71238898043474
  0
ELLIPSE
  5
219
330
17
100
AcDbEntity
  8
visible
100
AcDbEllipse
 10
28.700000048623625
 20
9.55704865532195
 30
0.0
 11
0.8
 21
3.0771836108029526e-09
 31
0.0
 40
0.9999153414973172
 41
-3.846153617814707e-09
 42
1.5707963229487427
  0
LINE
  5
21A
330
17
100
AcDbEntity
  8
visible
100
AcDbLine
 10
26.500000048473474
 20
6.1963722284322245
 30
0.0
 11
26.500000048473474
 21
9.596084389523103
 31
0.0
  0
ELLIPSE
  5
21B
330
17
100
AcDbEntity
  8
visible
100
AcDbEllipse
 10
26.500000048623626
 20
9.557048655320514
 30
0.0
 11
-3.0
 21
-0.0
 31
0.0
 40
0.013011911400861748
 41
3.1415926536398433
 42
4.71238898043474
  0
ELLIPSE
  5
21C
330
17
100
AcDbEntity
  8
visible
100
AcDbEllipse
 10
25.700000051126125
 20
10.506317631672616
 30
0.0
 11
-0.8
 21
-3.0771798461084e-09
 31
0.0
 40
0.9999153414973172
 41
-3.2929865545103545
 42
-3.1415926574359423
  0
ELLIPSE
  5
21D
330
17
100
AcDbEntity
  8
visible
100
AcDbEllipse
 10
25.700000048973976
 20
11.065829821909674
 30
0.0
 11
-0.8
 21
-3.0771836108029526e-09
 31
0.0
 40
0.9999153414973172
 41
-4.158082509046258
 42
-3.141592657435947
  0
ELLIPSE
  5
21E
330
17
100
AcDbEntity
  8
visible
100
AcDbEllipse
 10
24.500000048973977
 20
11.065829821908892
 30
0.0
 11
-2.0
 21
-0.0
 31
0.0
 40
0.013011911400861748
 41
3.1415926536398433
 42
4.71238898043474
  0
ELLIPSE
  5
21F
330
17
100
AcDbEntity
  8
visible
100
AcDbEllipse
 10
24.500000048913915
 20
11.081444115589917
 30
0.0
 11
5.209968221765589e-13
 21
-0.8
 31
0.0
 40
1e-10
 41
4.699376701781747
 42
5.76700661111727
  0
LINE
  5
220
330
17
100
AcDbEntity
  8
visible
100
AcDbLine
 10
24.500000048873876
 20
11.09185364471061
 30
0.0
 11
20.000000047937938
 21
11.09185364470768
 31
0.0
  0
LINE
  5
221
330
17
100
AcDbEntity
  8
visible
100
AcDbLine
 10
-19.999999952279968
 20
11.09185364468163
 30
0.0
 11
-24.499999951126124
 21
11.0918536446787
 31
0.0
  0
ELLIPSE
  5
222
330
17
100
AcDbEntity
  8
visible
100
AcDbEllipse
 10
-24.499999951086085
 20
11.081444115558014
 30
0.0
 11
5.209974595763849e-13
 21
-0.8
 31
0.0
 40
1e-10
 41
4.699376701781747
 42
5.767006611117306
  0
LINE
  5
223
330
17
100
AcDbEntity
  8
visible
100
AcDbLine
 10
26.500000048473474
 20
9.5960843895231
 30
0.0
 11
19.94686992534295
 21
9.59608438951883
 31
0.0
  0
ELLIPSE
  5
224
330
17
100
AcDbEntity
  8
visible
100
AcDbEllipse
 10
26.500000048513513
 20
9.585674860402406
 30
0.0
 11
-5.209968221765589e-13
 21
0.8
 31
0.0
 40
1e-10
 41
-6.283185307179586
 42
-4.725401258987631
  0
ELLIPSE
  5
225
330
17
100
AcDbEntity
  8
visible
100
AcDbEllipse
 10
26.500000048513513
 20
9.585674860402406
 30
0.0
 11
-5.209968221765589e-13
 21
0.8
 31
0.0
 40
1e-10
 41
-0.013012278602941851
 42
-0.0
  0
ELLIPSE
  5
226
330
17
100
AcDbEntity
  8
visible
100
AcDbEllipse
 10
-25.699999948873874
 20
10.506317631639135
 30
0.0
 11
0.8
 21
3.0771836108029526e-09
 31
0.0
 40
0.9999153414973172
 41
3.141592649743639
 42
3.29298654681805
  0
ELLIPSE
  5
227
330
17
100
AcDbEntity
  8
visible
100
AcDbEllipse
 10
-26.499999951486487
 20
9.585674860367888
 30
0.0
 11
-5.209974595763849e-13
 21
0.8
 31
0.0
 40
1e-10
 41
-6.283185307179586
 42
-4.725401258987631
  0
ELLIPSE
  5
228
330
17
100
AcDbEntity
  8
visible
100
AcDbEllipse
 10
-26.499999951486487
 20
9.585674860367888
 30
0.0
 11
-5.209974595763849e-13
 21
0.8
 31
0.0
 40
1e-10
 41
-0.013012278602941851
 42
-0.0
  0
LINE
  5
229
330
17
100
AcDbEntity
  8
visible
100
AcDbLine
 10
-19.946869838993273
 20
9.596084389492852
 30
0.0
 11
-26.499999951526526
 21
9.596084389488583
 31
0.0
  0
ELLIPSE
  5
22A
330
17
100
AcDbEntity
  8
visible
100
AcDbEllipse
 10
-24.499999951026023
 20
11.065829821876974
 30
0.0
 11
-2.0
 21
-0.0
 31
0.0
 40
0.013011911400861748
 41
4.712388980434739
 42
6.283185307229636
  0
ELLIPSE
  5
22B
330
17
100
AcDbEntity
  8
visible
100
AcDbEllipse
 10
-25.699999951026022
 20
11.065829821876193
 30
0.0
 11
0.8
 21
3.0771798461084e-09
 31
0.0
 40
0.9999153414973172
 41
3.141592649743644
 42
4.158082501353937
  0
ELLIPSE
  5
22C
330
17
100
AcDbEntity
  8
visible
100
AcDbEllipse
 10
24.500000051126126
 20
13.906029792762709
 30
0.0
 11
-2.0
 21
-0.0
 31
0.0
 40
0.013011911400861748
 41
3.141546262333257
 42
3.1415926536398433
  0
LINE
  5
22D
330
17
100
AcDbEntity
  8
visible
100
AcDbLine
 10
26.500000051126126
 20
13.906029792764016
 30
0.0
 11
26.500000048973973
 21
14.46554198300107
 31
0.0
  0
LINE
  5
22E
330
17
100
AcDbEntity
  8
visible
100
AcDbLine
 10
26.500000048973977
 20
11.065829821910185
 30
0.0
 11
26.500000048973977
 21
14.465541983001064
 31
0.0
  0
LINE
  5
22F
330
17
100
AcDbEntity
  8
visible
100
AcDbLine
 10
24.500000048873876
 20
11.09185364471061
 30
0.0
 11
24.500000048873876
 21
14.49156580580149
 31
0.0
  0
ELLIPSE
  5
230
330
17
100
AcDbEntity
  8
visible
100
AcDbEllipse
 10
24.500000048973977
 20
14.465541982999767
 30
0.0
 11
-2.0
 21
-0.0
 31
0.0
 40
0.013011911400861748
 41
3.1415926536398433
 42
4.71238898043474
  0
LINE
  5
231
330
17
100
AcDbEntity
  8
visible
100
AcDbLine
 10
-24.499999951126124
 20
11.091853644678693
 30
0.0
 11
-24.499999951126124
 21
14.491565805769572
 31
0.0
  0
LINE
  5
232
330
17
100
AcDbEntity
  8
visible
100
AcDbLine
 10
24.500000048873876
 20
14.491565805801486
 30
0.0
 11
20.000000047937938
 21
14.491565805798555
 31
0.0
  0
LINE
  5
233
330
17
100
AcDbEntity
  8
visible
100
AcDbLine
 10
-19.99999995341341
 20
14.491565805772504
 30
0.0
 11
-24.499999951126124
 21
14.491565805769575
 31
0.0
  0
ELLIPSE
  5
234
330
17
100
AcDbEntity
  8
visible
100
AcDbEllipse
 10
-24.499999951026023
 20
14.46554198296785
 30
0.0
 11
-2.0
 21
-0.0
 31
0.0
 40
0.013011911400861748
 41
4.712388980434739
 42
6.283185307229636
  0
ELLIPSE
  5
235
330
17
100
AcDbEntity
  8
visible
100
AcDbEllipse
 10
25.700000051126125
 20
13.90602979276349
 30
0.0
 11
0.8
 21
3.0771798461084e-09
 31
0.0
 40
0.9999153414973172
 41
-3.846149176922609e-09
 42
0.00020095911362005836
  0
ELLIPSE
  5
236
330
17
100
AcDbEntity
  8
visible
100
AcDbEllipse
 10
25.700000048973976
 20
14.465541983000548
 30
0.0
 11
0.8
 21
3.0771836108029526e-09
 31
0.0
 40
0.9999153414973172
 41
-3.846153617814707e-09
 42
1.5707963229487427
  0
ELLIPSE
  5
237
330
17
100
AcDbEntity
  8
visible
100
AcDbEllipse
 10
24.500000048913915
 20
14.481156276680792
 30
0.0
 11
-5.209968221765589e-13
 21
0.8
 31
0.0
 40
1e-10
 41
-6.283185307179586
 42
-4.725401258987631
  0
ELLIPSE
  5
238
330
17
100
AcDbEntity
  8
visible
100
AcDbEllipse
 10
24.500000048913915
 20
14.481156276680792
 30
0.0
 11
-5.209968221765589e-13
 21
0.8
 31
0.0
 40
1e-10
 41
-0.013012278602941851
 42
-0.0
  0
ELLIPSE
  5
239
330
17
100
AcDbEntity
  8
visible
100
AcDbEllipse
 10
-24.499999951086085
 20
14.481156276648889
 30
0.0
 11
-5.209974595763849e-13
 21
0.8
 31
0.0
 40
1e-10
 41
-6.283185307179586
 42
-4.725401258987631
  0
ELLIPSE
  5
23A
330
17
100
AcDbEntity
  8
visible
100
AcDbEllipse
 10
-24.499999951086085
 20
14.481156276648889
 30
0.0
 11
-5.209974595763849e-13
 21
0.8
 31
0.0
 40
1e-10
 41
-0.013012278602941851
 42
-0.0
  0
ELLIPSE
  5
23B
330
17
100
AcDbEntity
  8
visible
100
AcDbEllipse
 10
-25.699999951026022
 20
14.465541982967068
 30
0.0
 11
-0.8
 21
-3.0771798461084e-09
 31
0.0
 40
0.9999153414973172
 41
-1.5707963306410457
 42
-3.846149170837677e-09
  0
LINE
  5
23C
330
17
100
AcDbEntity
  8
visible
100
AcDbLine
 10
-23.49999994857357
 20
18.627551963513397
 30
0.0
 11
-23.49999994857357
 21
19.3432070905608
 31
0.0
  0
LINE
  5
23D
330
17
100
AcDbEntity
  8
visible
100
AcDbLine
 10
23.50000005142643
 20
18.627551963544008
 30
0.0
 11
23.50000005142643
 21
19.343207090591406
 31
0.0
  0
ELLIPSE
  5
23E
330
17
100
AcDbEntity
  8
visible
100
AcDbEllipse
 10
-23.499999948773773
 20
18.67959960911685
 30
0.0
 11
2.6049872978819243e-12
 21
-4.0
 31
0.0
 40
1e-10
 41
0.5604323329621366
 42
1.5577840481919552
  0
ELLIPSE
  5
23F
330
17
100
AcDbEntity
  8
visible
100
AcDbEllipse
 10
23.500000051226227
 20
18.67959960914746
 30
0.0
 11
2.6049872978819243e-12
 21
-4.0
 31
0.0
 40
1e-10
 41
0.5604323329621366
 42
1.5577840481919552
  0
ELLIPSE
  5
240
330
17
100
AcDbEntity
  8
visible
100
AcDbEllipse
 10
23.500000051226227
 20
60.67604395203479
 30
0.0
 11
4.0
 21
0.0
 31
0.0
 40
0.013011911400861748
 41
-3.42954166301368e-05
 42
5.004974212852176e-11
  0
ELLIPSE
  5
241
330
17
100
AcDbEntity
  8
visible
100
AcDbEllipse
 10
-23.499999948773773
 20
18.67959960911685
 30
0.0
 11
-4.0
 21
-1.5385936877487523e-08
 31
0.0
 40
0.9999153414973171
 41
-6.283185311025745
 42
-5.263558827648858
  0
LINE
  5
242
330
17
100
AcDbEntity
  8
visible
100
AcDbLine
 10
-27.49999994877377
 20
18.679599609114245
 30
0.0
 11
-27.499999951126124
 21
19.291159444954747
 31
0.0
  0
LINE
  5
243
330
17
100
AcDbEntity
  8
visible
100
AcDbLine
 10
-27.499999951126124
 20
19.291159444954744
 30
0.0
 11
-27.499999951126124
 21
61.28760378784206
 31
0.0
  0
LINE
  5
244
330
17
100
AcDbEntity
  8
visible
100
AcDbLine
 10
-23.499999951086345
 20
15.281156276649543
 30
0.0
 11
-23.499999951126124
 21
15.291498078968077
 31
0.0
  0
LINE
  5
245
330
17
100
AcDbEntity
  8
visible
100
AcDbLine
 10
23.500000048913655
 20
15.281156276680152
 30
0.0
 11
23.500000048873876
 21
15.291498078998687
 31
0.0
  0
LINE
  5
246
330
17
100
AcDbEntity
  8
visible
100
AcDbLine
 10
-23.499999951126124
 20
15.291498078968079
 30
0.0
 11
-19.99999995341341
 21
15.29149807897036
 31
0.0
  0
LINE
  5
247
330
17
100
AcDbEntity
  8
visible
100
AcDbLine
 10
20.000000047937935
 20
15.291498078996408
 30
0.0
 11
23.500000048873876
 21
15.29149807899869
 31
0.0
  0
ELLIPSE
  5
248
330
17
100
AcDbEntity
  8
visible
100
AcDbEllipse
 10
23.500000051226227
 20
18.67959960914746
 30
0.0
 11
4.0
 21
1.5385899230542e-08
 31
0.0
 40
0.9999153414973171
 41
5.263558820283452
 42
6.283185303333437
  0
LINE
  5
249
330
17
100
AcDbEntity
  8
visible
100
AcDbLine
 10
-23.499999951126124
 20
65.28726515383391
 30
0.0
 11
-12.79298948445666
 21
65.28726515384089
 31
0.0
  0
LINE
  5
24A
330
17
100
AcDbEntity
  8
visible
100
AcDbLine
 10
12.792996116139033
 20
65.28726515385756
 30
0.0
 11
23.500000048873876
 21
65.28726515386452
 31
0.0
  0
ELLIPSE
  5
24B
330
17
100
AcDbEntity
  8
visible
100
AcDbEllipse
 10
23.500000051226227
 20
60.67604395203479
 30
0.0
 11
4.0
 21
1.538591805401469e-08
 31
0.0
 40
0.9999153414973171
 41
-3.846153617814707e-09
 42
0.0002974248462201956
  0
LINE
  5
24C
330
17
100
AcDbEntity
  8
visible
100
AcDbLine
 10
27.50000005122623
 20
18.679599609150056
 30
0.0
 11
27.500000048873876
 21
19.29115944499056
 31
0.0
  0
LINE
  5
24D
330
17
100
AcDbEntity
  8
visible
100
AcDbLine
 10
27.50000005122623
 20
60.67604395203738
 30
0.0
 11
27.500000048873876
 21
61.287603787877885
 31
0.0
  0
LINE
  5
24E
330
17
100
AcDbEntity
  8
visible
100
AcDbLine
 10
27.500000048873876
 20
19.291159444990555
 30
0.0
 11
27.500000048873876
 21
61.28760378787787
 31
0.0
  0
ELLIPSE
  5
24F
330
17
100
AcDbEntity
  8
visible
100
AcDbEllipse
 10
-23.499999951126124
 20
19.291159444957344
 30
0.0
 11
-4.0
 21
-1.5385899230542e-08
 31
0.0
 40
0.9999153414973171
 41
-6.283185311025735
 42
-4.712388984230839
  0
ELLIPSE
  5
250
330
17
100
AcDbEntity
  8
visible
100
AcDbEllipse
 10
-23.499999951126124
 20
61.287603787844674
 30
0.0
 11
4.0
 21
1.5385899230542e-08
 31
0.0
 40
0.9999153414973171
 41
1.5707963229487474
 42
3.141592649743643
  0
LINE
  5
251
330
17
100
AcDbEntity
  8
visible
100
AcDbLine
 10
-23.499999951326327
 20
19.343207090560796
 30
0.0
 11
-23.499999951326327
 21
61.33965143344811
 31
0.0
  0
ELLIPSE
  5
252
330
17
100
AcDbEntity
  8
visible
100
AcDbEllipse
 10
-23.499999951126124
 20
19.291159444957344
 30
0.0
 11
-4.0
 21
-0.0
 31
0.0
 40
0.013011911400861748
 41
4.712388980434739
 42
6.283185307229636
  0
ELLIPSE
  5
253
330
17
100
AcDbEntity
  8
visible
100
AcDbEllipse
 10
-23.499999951126124
 20
61.287603787844674
 30
0.0
 11
-4.0
 21
-0.0
 31
0.0
 40
0.013011911400861748
 41
4.712388980434739
 42
6.283185307229636
  0
ELLIPSE
  5
254
330
17
100
AcDbEntity
  8
visible
100
AcDbEllipse
 10
23.500000048873876
 20
19.291159444987954
 30
0.0
 11
4.0
 21
1.5385936877487523e-08
 31
0.0
 40
0.9999153414973171
 41
4.712388976538531
 42
6.283185303333427
  0
ELLIPSE
  5
255
330
17
100
AcDbEntity
  8
visible
100
AcDbEllipse
 10
-23.499999951126124
 20
19.291159444957344
 30
0.0
 11
-2.6049872978819243e-12
 21
4.0
 31
0.0
 40
1e-10
 41
-4.725401258987631
 42
-3.154604932192735
  0
LINE
  5
256
330
17
100
AcDbEntity
  8
visible
100
AcDbLine
 10
-23.499999951326327
 20
19.3432070905608
 30
0.0
 11
-19.99999995341341
 21
19.34320709056308
 31
0.0
  0
LINE
  5
257
330
17
100
AcDbEntity
  8
visible
100
AcDbLine
 10
20.000000047937935
 20
19.34320709058913
 30
0.0
 11
23.500000048673673
 21
19.34320709059141
 31
0.0
  0
ELLIPSE
  5
258
330
17
100
AcDbEntity
  8
visible
100
AcDbEllipse
 10
23.500000048873876
 20
19.291159444987954
 30
0.0
 11
-2.6049872978819243e-12
 21
4.0
 31
0.0
 40
1e-10
 41
-4.725401258987631
 42
-3.154604932192735
  0
ELLIPSE
  5
259
330
17
100
AcDbEntity
  8
visible
100
AcDbEllipse
 10
23.500000048873876
 20
61.287603787875284
 30
0.0
 11
4.0
 21
1.5385918054014834e-08
 31
0.0
 40
0.9999153414973171
 41
-3.846153617814707e-09
 42
1.570796322948743
  0
ELLIPSE
  5
25A
330
17
100
AcDbEntity
  8
visible
100
AcDbEllipse
 10
-23.499999951126124
 20
61.287603787844674
 30
0.0
 11
2.6049872978819243e-12
 21
-4.0
 31
0.0
 40
1e-10
 41
3.128580374986851
 42
3.1415926535897922
  0
ELLIPSE
  5
25B
330
17
100
AcDbEntity
  8
visible
100
AcDbEllipse
 10
-23.499999951126124
 20
61.287603787844674
 30
0.0
 11
2.6049872978819243e-12
 21
-4.0
 31
0.0
 40
1e-10
 41
3.1415926535897922
 42
4.699376701781747
  0
LINE
  5
25C
330
17
100
AcDbEntity
  8
visible
100
AcDbLine
 10
-23.499999951326327
 20
61.33965143344813
 30
0.0
 11
-16.650733776171823
 21
61.33965143345259
 31
0.0
  0
LINE
  5
25D
330
17
100
AcDbEntity
  8
visible
100
AcDbLine
 10
16.65075228371361
 20
61.33965143347428
 30
0.0
 11
23.500000048673673
 21
61.339651433478735
 31
0.0
  0
ELLIPSE
  5
25E
330
17
100
AcDbEntity
  8
visible
100
AcDbEllipse
 10
23.500000048873876
 20
61.287603787875284
 30
0.0
 11
-2.6049872978819243e-12
 21
4.0
 31
0.0
 40
1e-10
 41
-6.283185307179586
 42
-4.725401258987631
  0
ELLIPSE
  5
25F
330
17
100
AcDbEntity
  8
visible
100
AcDbEllipse
 10
23.500000048873876
 20
61.287603787875284
 30
0.0
 11
-2.6049872978819243e-12
 21
4.0
 31
0.0
 40
1e-10
 41
-0.013012278602941851
 42
-0.0
  0
LINE
  5
260
330
17
100
AcDbEntity
  8
visible
100
AcDbLine
 10
23.500000048673673
 20
19.343207090591406
 30
0.0
 11
23.500000048673673
 21
61.33965143347872
 31
0.0
  0
ELLIPSE
  5
261
330
17
100
AcDbEntity
  8
visible
100
AcDbEllipse
 10
23.500000048873876
 20
19.291159444987954
 30
0.0
 11
4.0
 21
0.0
 31
0.0
 40
0.013011911400861748
 41
-6.283185307129536
 42
-4.712388980334639
  0
ELLIPSE
  5
262
330
17
100
AcDbEntity
  8
visible
100
AcDbEllipse
 10
23.500000048873876
 20
61.287603787875284
 30
0.0
 11
-4.0
 21
-0.0
 31
0.0
 40
0.013011911400861748
 41
3.141592653639843
 42
4.712388980434739
  0
LINE
  5
263
330
17
100
AcDbEntity
  8
visible
100
AcDbLine
 10
-37.99999994638587
 20
-68.93377100178243
 30
0.0
 11
38.00000005361413
 21
-68.93377100173294
 31
0.0
  0
SPLINE
  5
264
330
17
100
AcDbEntity
  8
visible
100
AcDbSpline
 70
0
 71
3
 72
32
 73
28
 74
0
 40
0.0
 40
0.0
 40
0.0
 40
0.0
 40
0.08868164824797865
 40
0.08868164824797865
 40
0.08868164824797865
 40
0.1773632964959573
 40
0.1773632964959573
 40
0.1773632964959573
 40
0.266044944743936
 40
0.266044944743936
 40
0.266044944743936
 40
0.3103857688679253
 40
0.3103857688679253
 40
0.3103857688679253
 40
0.3547265929919146
 40
0.3547265929919146
 40
0.3547265929919146
 40
0.44340824123989325
 40
0.44340824123989325
 40
0.44340824123989325
 40
0.532089889487872
 40
0.532089889487872
 40
0.532089889487872
 40
0.7235390712566823
 40
0.7235390712566823
 40
0.7235390712566823
 40
1.0
 40
1.0
 40
1.0
 40
1.0
 10
-59.99999994744744
 20
-67.85791848009848
 30
0.0
 10
-60.00281918154727
 20
-68.09480780300156
 30
0.0
 10
-59.88618039805077
 20
-68.3298955432696
 30
0.0
 10
-59.71703815571342
 20
-68.47049691097834
 30
0.0
 10
-59.66165316450822
 20
-68.51654785924421
 30
0.0
 10
-59.60802856665601
 20
-68.55232432791954
 30
0.0
 10
-59.55616436215669
 20
-68.5778263170042
 30
0.0
 10
-59.491653289759455
 20
-68.60873254506086
 30
0.0
 10
-59.44017931225695
 20
-68.62897696191365
 30
0.0
 10
-59.40174242964909
 20
-68.63855956756245
 30
0.0
 10
-59.325942721443724
 20
-68.65992664991973
 30
0.0
 10
-59.28151593137032
 20
-68.666229424672
 30
0.0
 10
-59.23380388213138
 20
-68.67370927167295
 30
0.0
 10
-59.18826356215865
 20
-68.68030914406448
 30
0.0
 10
-59.140779336911464
 20
-68.6859497266038
 30
0.0
 10
-59.09135120638982
 20
-68.69063101929083
 30
0.0
 10
-58.863912944423085
 20
-68.71253864111591
 30
0.0
 10
-58.52120633929538
 20
-68.73044744408676
 30
0.0
 10
-58.03244595114592
 20
-68.74875670273312
 30
0.0
 10
-57.565364187877826
 20
-68.76604032293515
 30
0.0
 10
-56.97643626548593
 20
-68.78250078923318
 30
0.0
 10
-56.26566218397011
 20
-68.7981381016272
 30
0.0
 10
-54.73646725692147
 20
-68.83183320796049
 30
0.0
 10
-52.654030926365536
 20
-68.86113568855728
 30
0.0
 10
-50.197912379247036
 20
-68.88356938291092
 30
0.0
 10
-46.6561503525654
 20
-68.91609559286721
 30
0.0
 10
-42.33387716534276
 20
-68.93388160360637
 30
0.0
 10
-37.99999994638587
 20
-68.93377100178243
 30
0.0
  0
SPLINE
  5
265
330
17
100
AcDbEntity
  8
visible
100
AcDbSpline
 70
0
 71
3
 72
32
 73
28
 74
0
 40
0.0
 40
0.0
 40
0.0
 40
0.0
 40
0.1628745603522503
 40
0.1628745603522503
 40
0.1628745603522503
 40
0.23671750312716439
 40
0.23671750312716439
 40
0.23671750312716439
 40
0.29460913051481863
 40
0.29460913051481863
 40
0.29460913051481863
 40
0.3485017585909988
 40
0.3485017585909988
 40
0.3485017585909988
 40
0.4299390387671239
 40
0.4299390387671239
 40
0.4299390387671239
 40
0.5113763189432491
 40
0.5113763189432491
 40
0.5113763189432491
 40
0.6742508792954994
 40
0.6742508792954994
 40
0.6742508792954994
 40
0.8371254396477498
 40
0.8371254396477498
 40
0.8371254396477498
 40
1.0
 40
1.0
 40
1.0
 40
1.0
 10
38.00000005361413
 20
-68.93377100173294
 30
0.0
 10
42.53606861165088
 20
-68.93390311368847
 30
0.0
 10
47.05758409606733
 20
-68.91437070932406
 30
0.0
 10
50.68787212971644
 20
-68.87895131077691
 30
0.0
 10
52.33563273470422
 20
-68.8629560781805
 30
0.0
 10
53.803322852471894
 20
-68.84382110036616
 30
0.0
 10
55.030455604905065
 20
-68.82232355153532
 30
0.0
 10
55.996185324954844
 20
-68.80540423527074
 30
0.0
 10
56.80464540033902
 20
-68.78724707615514
 30
0.0
 10
57.45583583105744
 20
-68.76785207418855
 30
0.0
 10
58.05944483305369
 20
-68.74992050709798
 30
0.0
 10
58.51791098664943
 20
-68.73094089391532
 30
0.0
 10
58.83123429184465
 20
-68.71091323464037
 30
0.0
 10
58.938558798150154
 20
-68.7040730575331
 30
0.0
 10
59.03175954977717
 20
-68.69666784505776
 30
0.0
 10
59.11083654672557
 20
-68.68869759721427
 30
0.0
 10
59.193623418479454
 20
-68.67945403010255
 30
0.0
 10
59.25438458346743
 20
-68.67373870463314
 30
0.0
 10
59.3521941340344
 20
-68.65157587197575
 30
0.0
 10
59.39214285557417
 20
-68.64167985077864
 30
0.0
 10
59.442391792425596
 20
-68.62933331600894
 30
0.0
 10
59.518055979360646
 20
-68.5960476852693
 30
0.0
 10
59.579001256713155
 20
-68.57060093023827
 30
0.0
 10
59.64474303293369
 20
-68.52924933125816
 30
0.0
 10
59.7152813080222
 20
-68.47199288832881
 30
0.0
 10
59.88527983226465
 20
-68.33155201328863
 30
0.0
 10
60.00286971354418
 20
-68.09565184100494
 30
0.0
 10
60.00000005255256
 20
-67.85791848002034
 30
0.0
  0
SPLINE
  5
266
330
17
100
AcDbEntity
  8
visible
100
AcDbSpline
 70
0
 71
2
 72
6
 73
3
 74
0
 40
0.0
 40
0.0
 40
0.0
 40
1.0
 40
1.0
 40
1.0
 10
-59.38982243976294
 20
-33.15881563169166
 30
0.0
 10
-59.39998081686318
 20
-33.20861824306877
 30
0.0
 10
-59.399999952452454
 20
-33.25954646813733
 30
0.0
  0
SPLINE
  5
267
330
17
100
AcDbEntity
  8
visible
100
AcDbSpline
 70
0
 71
2
 72
6
 73
3
 74
0
 40
0.0
 40
0.0
 40
0.0
 40
1.0
 40
1.0
 40
1.0
 10
59.38982253485804
 20
-33.15881563164216
 30
0.0
 10
59.39998091176361
 20
-33.208618242061576
 30
0.0
 10
59.40000004754755
 20
-33.25954646615099
 30
0.0
  0
SPLINE
  5
268
330
17
100
AcDbEntity
  8
visible
100
AcDbSpline
 70
0
 71
3
 72
32
 73
28
 74
0
 40
0.0
 40
0.0
 40
0.0
 40
0.0
 40
0.1628745603522524
 40
0.1628745603522524
 40
0.1628745603522524
 40
0.23671750312716885
 40
0.23671750312716885
 40
0.23671750312716885
 40
0.29460913051481497
 40
0.29460913051481497
 40
0.29460913051481497
 40
0.3485017585909906
 40
0.3485017585909906
 40
0.3485017585909906
 40
0.4299390387671168
 40
0.4299390387671168
 40
0.4299390387671168
 40
0.511376318943243
 40
0.511376318943243
 40
0.511376318943243
 40
0.6742508792954953
 40
0.6742508792954953
 40
0.6742508792954953
 40
0.8371254396477477
 40
0.8371254396477477
 40
0.8371254396477477
 40
1.0
 40
1.0
 40
1.0
 40
1.0
 10
-37.999999953514035
 20
-27.084125704802744
 30
0.0
 10
-42.53606851155079
 20
-27.083993592847154
 30
0.0
 10
-47.0575839959672
 20
-27.10352599721163
 30
0.0
 10
-50.68787202961638
 20
-27.13894539575876
 30
0.0
 10
-52.33563263460388
 20
-27.15494062835524
 30
0.0
 10
-53.8033227523717
 20
-27.174075606169463
 30
0.0
 10
-55.03045550480498
 20
-27.195573155000364
 30
0.0
 10
-55.99618522485474
 20
-27.212492471264923
 30
0.0
 10
-56.80464530023888
 20
-27.230649630380523
 30
0.0
 10
-57.455835730957375
 20
-27.250044632347112
 30
0.0
 10
-58.05944473295361
 20
-27.267976199437665
 30
0.0
 10
-58.51791088654933
 20
-27.286955812620377
 30
0.0
 10
-58.83123419174456
 20
-27.306983471895297
 30
0.0
 10
-58.93855869805001
 20
-27.313823649002554
 30
0.0
 10
-59.031759449677104
 20
-27.321228861477945
 30
0.0
 10
-59.110836446625505
 20
-27.329199109321408
 30
0.0
 10
-59.19362331837928
 20
-27.33844267643312
 30
0.0
 10
-59.25438448336737
 20
-27.34415800190254
 30
0.0
 10
-59.3521940339343
 20
-27.36632083455992
 30
0.0
 10
-59.39214275547401
 20
-27.376216855757036
 30
0.0
 10
-59.44239169232555
 20
-27.38856339052674
 30
0.0
 10
-59.51805587926055
 20
-27.421849021266382
 30
0.0
 10
-59.57900115661308
 20
-27.44729577629736
 30
0.0
 10
-59.6447429328336
 20
-27.488647375277523
 30
0.0
 10
-59.7152812079221
 20
-27.54590381820687
 30
0.0
 10
-59.88527973216458
 20
-27.686344693246944
 30
0.0
 10
-60.00286961344406
 20
-27.922244865530796
 30
0.0
 10
-59.99999995245246
 20
-28.159978226515342
 30
0.0
  0
SPLINE
  5
269
330
17
100
AcDbEntity
  8
visible
100
AcDbSpline
 70
0
 71
3
 72
32
 73
28
 74
0
 40
0.0
 40
0.0
 40
0.0
 40
0.0
 40
0.08868164824797858
 40
0.08868164824797858
 40
0.08868164824797858
 40
0.17736329649595717
 40
0.17736329649595717
 40
0.17736329649595717
 40
0.26604494474393575
 40
0.26604494474393575
 40
0.26604494474393575
 40
0.310385768867925
 40
0.310385768867925
 40
0.310385768867925
 40
0.35472659299191434
 40
0.35472659299191434
 40
0.35472659299191434
 40
0.4434082412398929
 40
0.4434082412398929
 40
0.4434082412398929
 40
0.5320898894878715
 40
0.5320898894878715
 40
0.5320898894878715
 40
0.7235390712566796
 40
0.7235390712566796
 40
0.7235390712566796
 40
1.0
 40
1.0
 40
1.0
 40
1.0
 10
60.00000004754754
 20
-28.15997822643719
 30
0.0
 10
60.00281928164737
 20
-27.923088903534083
 30
0.0
 10
59.886180498150836
 20
-27.688001163266122
 30
0.0
 10
59.71703825581351
 20
-27.54739979555734
 30
0.0
 10
59.66165326460834
 20
-27.50134884729144
 30
0.0
 10
59.60802866675612
 20
-27.465572378616162
 30
0.0
 10
59.55616446225679
 20
-27.440070389531492
 30
0.0
 10
59.49165338985958
 20
-27.409164161474813
 30
0.0
 10
59.44017941235704
 20
-27.388919744622047
 30
0.0
 10
59.401742529749185
 20
-27.379337138973234
 30
0.0
 10
59.32594282154377
 20
-27.357970056615994
 30
0.0
 10
59.28151603147047
 20
-27.35166728186361
 30
0.0
 10
59.23380398223148
 20
-27.344187434862746
 30
0.0
 10
59.18826366225878
 20
-27.337587562471178
 30
0.0
 10
59.14077943701158
 20
-27.3319469799319
 30
0.0
 10
59.09135130648991
 20
-27.327265687244854
 30
0.0
 10
58.86391304452321
 20
-27.305358065419657
 30
0.0
 10
58.521206439395456
 20
-27.28744926244898
 30
0.0
 10
58.032446051246005
 20
-27.26914000380255
 30
0.0
 10
57.56536428797799
 20
-27.25185638360052
 30
0.0
 10
56.97643636558596
 20
-27.235395917302494
 30
0.0
 10
56.26566228407016
 20
-27.21975860490849
 30
0.0
 10
54.73646735702159
 20
-27.186063498575194
 30
0.0
 10
52.654031026465745
 20
-27.156761017978397
 30
0.0
 10
50.197912479347096
 20
-27.13432732362475
 30
0.0
 10
46.65615045266554
 20
-27.101801113668476
 30
0.0
 10
42.33387726544284
 20
-27.084015102929282
 30
0.0
 10
38.00000004648596
 20
-27.084125704753248
 30
0.0
  0
LINE
  5
26A
330
17
100
AcDbEntity
  8
visible
100
AcDbLine
 10
38.000000046485965
 20
-27.084125704753248
 30
0.0
 11
-37.999999953514035
 21
-27.084125704802744
 31
0.0
  0
SPLINE
  5
26B
330
17
100
AcDbEntity
  8
visible
100
AcDbSpline
 70
0
 71
2
 72
6
 73
3
 74
0
 40
0.0
 40
0.0
 40
0.0
 40
0.01878080227477196
 40
0.01878080227477196
 40
0.01878080227477196
 10
-59.99999994744745
 20
-27.861304820205806
 30
0.0
 10
-59.999900613669396
 20
-27.936674023705724
 30
0.0
 10
-59.98600124801399
 20
-28.01064241001351
 30
0.0
  0
SPLINE
  5
26C
330
17
100
AcDbEntity
  8
visible
100
AcDbSpline
 70
0
 71
2
 72
6
 73
3
 74
0
 40
0.0
 40
0.0
 40
0.0
 40
1.0
 40
1.0
 40
1.0
 10
59.9860013481141
 20
-28.010640636629503
 30
0.0
 10
59.99989872325682
 20
-27.936672949088617
 30
0.0
 10
60.00000005255255
 20
-27.86130482012766
 30
0.0
  0
SPLINE
  5
26D
330
17
100
AcDbEntity
  8
visible
100
AcDbSpline
 70
0
 71
3
 72
32
 73
28
 74
0
 40
0.0
 40
0.0
 40
0.0
 40
0.0
 40
0.1628745603522524
 40
0.1628745603522524
 40
0.1628745603522524
 40
0.23671750312716885
 40
0.23671750312716885
 40
0.23671750312716885
 40
0.29460913051481497
 40
0.29460913051481497
 40
0.29460913051481497
 40
0.3485017585909906
 40
0.3485017585909906
 40
0.3485017585909906
 40
0.4299390387671168
 40
0.4299390387671168
 40
0.4299390387671168
 40
0.511376318943243
 40
0.511376318943243
 40
0.511376318943243
 40
0.6742508792954953
 40
0.6742508792954953
 40
0.6742508792954953
 40
0.8371254396477477
 40
0.8371254396477477
 40
0.8371254396477477
 40
1.0
 40
1.0
 40
1.0
 40
1.0
 10
-37.999999953514035
 20
-23.084464338813476
 30
0.0
 10
-42.53606851155079
 20
-23.084332226857896
 30
0.0
 10
-47.0575839959672
 20
-23.10386463122235
 30
0.0
 10
-50.68787202961638
 20
-23.139284029769485
 30
0.0
 10
-52.33563263460388
 20
-23.155279262365976
 30
0.0
 10
-53.8033227523717
 20
-23.174414240180205
 30
0.0
 10
-55.03045550480498
 20
-23.195911789011106
 30
0.0
 10
-55.99618522485474
 20
-23.21283110527566
 30
0.0
 10
-56.80464530023888
 20
-23.230988264391257
 30
0.0
 10
-57.455835730957375
 20
-23.250383266357858
 30
0.0
 10
-58.05944473295361
 20
-23.268314833448404
 30
0.0
 10
-58.51791088654933
 20
-23.28729444663111
 30
0.0
 10
-58.83123419174456
 20
-23.30732210590603
 30
0.0
 10
-58.93855869805006
 20
-23.31416228301327
 30
0.0
 10
-59.031759449677075
 20
-23.321567495488676
 30
0.0
 10
-59.1108364466255
 20
-23.32953774333216
 30
0.0
 10
-59.193623318379316
 20
-23.338781310443824
 30
0.0
 10
-59.25438448336737
 20
-23.34449663591328
 30
0.0
 10
-59.3521940339343
 20
-23.366659468570653
 30
0.0
 10
-59.39214275547404
 20
-23.376555489767767
 30
0.0
 10
-59.44239169232551
 20
-23.38890202453748
 30
0.0
 10
-59.51805587926055
 20
-23.422187655277114
 30
0.0
 10
-59.57900115661308
 20
-23.447634410308083
 30
0.0
 10
-59.6447429328336
 20
-23.488986009288276
 30
0.0
 10
-59.7152812079221
 20
-23.5462424522176
 30
0.0
 10
-59.88527973216458
 20
-23.686683327257683
 30
0.0
 10
-60.00286961344406
 20
-23.92258349954156
 30
0.0
 10
-59.99999995245246
 20
-24.160316860526073
 30
0.0
  0
SPLINE
  5
26E
330
17
100
AcDbEntity
  8
visible
100
AcDbSpline
 70
0
 71
3
 72
32
 73
28
 74
0
 40
0.0
 40
0.0
 40
0.0
 40
0.0
 40
0.08868164824797858
 40
0.08868164824797858
 40
0.08868164824797858
 40
0.17736329649595717
 40
0.17736329649595717
 40
0.17736329649595717
 40
0.26604494474393575
 40
0.26604494474393575
 40
0.26604494474393575
 40
0.310385768867925
 40
0.310385768867925
 40
0.310385768867925
 40
0.35472659299191434
 40
0.35472659299191434
 40
0.35472659299191434
 40
0.4434082412398929
 40
0.4434082412398929
 40
0.4434082412398929
 40
0.5320898894878715
 40
0.5320898894878715
 40
0.5320898894878715
 40
0.7235390712566796
 40
0.7235390712566796
 40
0.7235390712566796
 40
1.0
 40
1.0
 40
1.0
 40
1.0
 10
60.00000004754754
 20
-24.16031686044792
 30
0.0
 10
60.00281928164737
 20
-23.923427537544832
 30
0.0
 10
59.886180498150836
 20
-23.688339797276857
 30
0.0
 10
59.71703825581352
 20
-23.54773842956807
 30
0.0
 10
59.66165326460833
 20
-23.50168748130217
 30
0.0
 10
59.60802866675614
 20
-23.4659110126269
 30
0.0
 10
59.55616446225679
 20
-23.44040902354223
 30
0.0
 10
59.49165338985958
 20
-23.409502795485533
 30
0.0
 10
59.44017941235704
 20
-23.389258378632782
 30
0.0
 10
59.401742529749185
 20
-23.379675772983965
 30
0.0
 10
59.32594282154387
 20
-23.35830869062673
 30
0.0
 10
59.28151603147034
 20
-23.352005915874336
 30
0.0
 10
59.23380398223148
 20
-23.344526068873478
 30
0.0
 10
59.18826366225878
 20
-23.337926196481924
 30
0.0
 10
59.14077943701158
 20
-23.33228561394263
 30
0.0
 10
59.09135130648991
 20
-23.327604321255585
 30
0.0
 10
58.86391304452321
 20
-23.30569669943041
 30
0.0
 10
58.521206439395456
 20
-23.28778789645971
 30
0.0
 10
58.032446051246005
 20
-23.26947863781329
 30
0.0
 10
57.56536428797799
 20
-23.252195017611264
 30
0.0
 10
56.97643636558596
 20
-23.235734551313243
 30
0.0
 10
56.26566228407016
 20
-23.220097238919216
 30
0.0
 10
54.73646735702159
 20
-23.18640213258594
 30
0.0
 10
52.654031026465745
 20
-23.157099651989135
 30
0.0
 10
50.197912479347096
 20
-23.13466595763549
 30
0.0
 10
46.65615045266554
 20
-23.1021397476792
 30
0.0
 10
42.33387726544284
 20
-23.084353736940017
 30
0.0
 10
38.00000004648596
 20
-23.084464338763983
 30
0.0
  0
LINE
  5
26F
330
17
100
AcDbEntity
  8
visible
100
AcDbLine
 10
38.000000046485965
 20
-23.08446433876398
 30
0.0
 11
-37.999999953514035
 21
-23.084464338813476
 31
0.0
  0
LINE
  5
270
330
17
100
AcDbEntity
  8
visible
100
AcDbLine
 10
22.50000005005005
 20
-23.084464338774072
 30
0.0
 11
22.50000005005005
 21
-22.546705945940808
 31
0.0
  0
LINE
  5
271
330
17
100
AcDbEntity
  8
visible
100
AcDbLine
 10
-22.49999994994995
 20
-23.08446433880338
 30
0.0
 11
-22.49999994994995
 21
-22.546706888024147
 31
0.0
  0
SPLINE
  5
272
330
17
100
AcDbEntity
  8
visible
100
AcDbSpline
 70
0
 71
3
 72
8
 73
4
 74
0
 40
0.0
 40
0.0
 40
0.0
 40
0.0
 40
0.054528001360833134
 40
0.054528001360833134
 40
0.054528001360833134
 40
0.054528001360833134
 10
-19.99999995205205
 20
-6.265936004755211
 30
0.0
 10
-20.000748149655625
 20
-6.467430103367253
 30
0.0
 10
-19.921356966318697
 20
-6.667706084987164
 30
0.0
 10
-19.78313239297218
 20
-6.81395275980849
 30
0.0
  0
SPLINE
  5
273
330
17
100
AcDbEntity
  8
visible
100
AcDbSpline
 70
0
 71
3
 72
8
 73
4
 74
0
 40
0.0
 40
0.0
 40
0.0
 40
0.0
 40
1.0
 40
1.0
 40
1.0
 40
1.0
 10
19.78313217799296
 20
-6.813952758297406
 30
0.0
 10
19.92135713076722
 20
-6.667706585017462
 30
0.0
 10
20.000748200493355
 20
-6.467430057965983
 30
0.0
 10
20.00000004794795
 20
-6.265936004729163
 30
0.0
  0
SPLINE
  5
274
330
17
100
AcDbEntity
  8
visible
100
AcDbSpline
 70
0
 71
3
 72
11
 73
7
 74
0
 40
0.0
 40
0.0
 40
0.0
 40
0.0
 40
0.49177179324022735
 40
0.49177179324022735
 40
0.49177179324022735
 40
0.9716423208479551
 40
0.9716423208479551
 40
0.9716423208479551
 40
0.9716423208479551
 10
-19.99999995184184
 20
10.977949375264757
 30
0.0
 10
-20.000409005221176
 20
9.20042413004138
 30
0.0
 10
-19.73516962626729
 20
7.423158956816662
 30
0.0
 10
-19.215781253647073
 20
5.723196121535729
 30
0.0
 10
-18.709697844720793
 20
4.064151762756612
 30
0.0
 10
-17.96185916567269
 20
2.479143096841093
 30
0.0
 10
-17.003145812123083
 20
1.0336235768150077
 30
0.0
  0
SPLINE
  5
275
330
17
100
AcDbEntity
  8
visible
100
AcDbSpline
 70
0
 71
3
 72
26
 73
22
 74
0
 40
0.0
 40
0.0
 40
0.0
 40
0.0
 40
0.11327251160657191
 40
0.11327251160657191
 40
0.11327251160657191
 40
0.20701699893196077
 40
0.20701699893196077
 40
0.20701699893196077
 40
0.36561359914556857
 40
0.36561359914556857
 40
0.36561359914556857
 40
0.5242101993591766
 40
0.5242101993591766
 40
0.5242101993591766
 40
0.6828067995727845
 40
0.6828067995727845
 40
0.6828067995727845
 40
0.8414033997863922
 40
0.8414033997863922
 40
0.8414033997863922
 40
1.0
 40
1.0
 40
1.0
 40
1.0
 10
-16.893241801638695
 20
1.0343697893941666
 30
0.0
 10
-17.41884595363146
 20
1.0309325891258807
 30
0.0
 10
-17.887963709530734
 20
1.026046121891707
 30
0.0
 10
-18.262149248883162
 20
1.020094098808793
 30
0.0
 10
-18.573646504991203
 20
1.0151614661491113
 30
0.0
 10
-18.815613063844076
 20
1.009559542699955
 30
0.0
 10
-18.98804892544172
 20
1.0032883284613232
 30
0.0
 10
-19.09610853789532
 20
0.9991024096093895
 30
0.0
 10
-19.16874658678588
 20
0.9959175827879756
 30
0.0
 10
-19.244417248670544
 20
0.9886587276601375
 30
0.0
 10
-19.282163042135533
 20
0.9843176778067583
 30
0.0
 10
-19.335161572652552
 20
0.9801791321648347
 30
0.0
 10
-19.422725762088636
 20
0.9551541743182099
 30
0.0
 10
-19.472109585580277
 20
0.9407766680135067
 30
0.0
 10
-19.521512150311654
 20
0.9207437162545437
 30
0.0
 10
-19.570933456282788
 20
0.8950553190413187
 30
0.0
 10
-19.604436318065325
 20
0.8774564068699819
 30
0.0
 10
-19.636669324585682
 20
0.8574893984158752
 30
0.0
 10
-19.667632475843856
 20
0.8351542936789964
 30
0.0
 10
-19.87346817207583
 20
0.688849507810152
 30
0.0
 10
-20.001860261977633
 20
0.4390313170089851
 30
0.0
 10
-19.99999995225225
 20
0.18556982643106323
 30
0.0
  0
SPLINE
  5
276
330
17
100
AcDbEntity
  8
visible
100
AcDbSpline
 70
0
 71
3
 72
11
 73
7
 74
0
 40
0.0
 40
0.0
 40
0.0
 40
0.0
 40
0.4769385567505866
 40
0.4769385567505866
 40
0.4769385567505866
 40
1.0
 40
1.0
 40
1.0
 40
1.0
 10
17.003145891686774
 20
1.0336235765321353
 30
0.0
 10
17.928947305998946
 20
2.429583454822894
 30
0.0
 10
18.658211437047207
 20
3.955574424676439
 30
0.0
 10
19.16283251304345
 20
5.552781647834351
 30
0.0
 10
19.717039527992515
 20
7.304220180412498
 30
0.0
 10
20.000466371628853
 20
9.140931542006335
 30
0.0
 10
20.00000004815816
 20
10.977949375290805
 30
0.0
  0
SPLINE
  5
277
330
17
100
AcDbEntity
  8
visible
100
AcDbSpline
 70
0
 71
3
 72
26
 73
22
 74
0
 40
0.0
 40
0.0
 40
0.0
 40
0.0
 40
0.06827296620316564
 40
0.06827296620316564
 40
0.06827296620316564
 40
0.13654593240633128
 40
0.13654593240633128
 40
0.13654593240633128
 40
0.20481889860949692
 40
0.20481889860949692
 40
0.20481889860949692
 40
0.23895538171107975
 40
0.23895538171107975
 40
0.23895538171107975
 40
0.27309186481266257
 40
0.27309186481266257
 40
0.27309186481266257
 40
0.3413648310158282
 40
0.3413648310158282
 40
0.3413648310158282
 40
0.7305672456477609
 40
0.7305672456477609
 40
0.7305672456477609
 40
0.7305672456477609
 10
20.000000047747747
 20
0.1855698264571118
 30
0.0
 10
20.00183753864556
 20
0.4382566602056351
 30
0.0
 10
19.87427410679655
 20
0.6873531679972318
 30
0.0
 10
19.669480684089507
 20
0.8338158878792967
 30
0.0
 10
19.622698732837087
 20
0.8676908999009043
 30
0.0
 10
19.573379810162418
 20
0.8960596497116506
 30
0.0
 10
19.521523916065576
 20
0.9189221373115402
 30
0.0
 10
19.463676514974537
 20
0.9436548621883656
 30
0.0
 10
19.410012356203406
 20
0.9610104543247288
 30
0.0
 10
19.360531439752187
 20
0.9709889137206317
 30
0.0
 10
19.299136592924942
 20
0.9837394646314205
 30
0.0
 10
19.265643433832064
 20
0.9864172562549653
 30
0.0
 10
19.232787413269907
 20
0.9897621736278361
 30
0.0
 10
19.20183381451196
 20
0.9925674633872503
 30
0.0
 10
19.169748682761465
 20
0.9948610879353148
 30
0.0
 10
19.136532018018443
 20
0.9966430472720306
 30
0.0
 10
19.060071532646674
 20
1.0008707433978183
 30
0.0
 10
18.96017354176312
 20
1.0046994841615375
 30
0.0
 10
18.836838045367717
 20
1.0081292695631845
 30
0.0
 10
18.433335130624208
 20
1.0195690663089905
 30
0.0
 10
17.740602688487098
 20
1.028835922690766
 30
0.0
 10
16.893241896628346
 20
1.034369789327803
 30
0.0
  0
LINE
  5
278
330
17
100
AcDbEntity
  8
visible
100
AcDbLine
 10
58.00000005005005
 20
-22.411115610936534
 30
0.0
 11
58.00000005005005
 21
-20.011318791342966
 31
0.0
  0
LINE
  5
279
330
17
100
AcDbEntity
  8
visible
100
AcDbLine
 10
58.00000005005005
 20
-12.711936798412555
 30
0.0
 11
58.00000005005005
 21
-8.312309295824353
 31
0.0
  0
LINE
  5
27A
330
17
100
AcDbEntity
  8
visible
100
AcDbLine
 10
-57.99999994994995
 20
-22.411115610936534
 30
0.0
 11
-57.99999994994995
 21
-8.312309295824353
 31
0.0
  0
SPLINE
  5
27B
330
17
100
AcDbEntity
  8
visible
100
AcDbSpline
 70
0
 71
3
 72
41
 73
37
 74
0
 40
0.0
 40
0.0
 40
0.0
 40
0.0
 40
0.15319337411416134
 40
0.15319337411416134
 40
0.15319337411416134
 40
0.3063867482283227
 40
0.3063867482283227
 40
0.3063867482283227
 40
0.459580122342484
 40
0.459580122342484
 40
0.459580122342484
 40
0.6127734964566454
 40
0.6127734964566454
 40
0.6127734964566454
 40
0.6510718399851857
 40
0.6510718399851857
 40
0.6510718399851857
 40
0.689370183513726
 40
0.689370183513726
 40
0.689370183513726
 40
0.7659668705708067
 40
0.7659668705708067
 40
0.7659668705708067
 40
0.804265214099347
 40
0.804265214099347
 40
0.804265214099347
 40
0.8425635576278874
 40
0.8425635576278874
 40
0.8425635576278874
 40
0.8808619011564277
 40
0.8808619011564277
 40
0.8808619011564277
 40
0.919160244684968
 40
0.919160244684968
 40
0.919160244684968
 40
1.0
 40
1.0
 40
1.0
 40
1.0
 10
58.00000005005005
 20
-8.312309295824356
 30
0.0
 10
58.000528119036595
 20
-8.173070536356997
 30
0.0
 10
57.96222539050912
 20
-8.03437099455335
 30
0.0
 10
57.89956380080986
 20
-7.921549328528677
 30
0.0
 10
57.85486365896416
 20
-7.843090544488538
 30
0.0
 10
57.805516827295996
 20
-7.77849601660096
 30
0.0
 10
57.75152330580556
 20
-7.727765744865955
 30
0.0
 10
57.695421467303944
 20
-7.675551386574634
 30
0.0
 10
57.64463786028187
 20
-7.63656011095634
 30
0.0
 10
57.599172484739555
 20
-7.6107919180111026
 30
0.0
 10
57.48833761649542
 20
-7.546214058907839
 30
0.0
 10
57.4228731403213
 20
-7.528762286852635
 30
0.0
 10
57.36562672023218
 20
-7.510691029186141
 30
0.0
 10
57.27845628188717
 20
-7.485880815129017
 30
0.0
 10
57.210245154203776
 20
-7.473769632446149
 30
0.0
 10
57.13231772869809
 20
-7.461114307222809
 30
0.0
 10
57.05614714757149
 20
-7.449160871226634
 30
0.0
 10
56.97134083138204
 20
-7.438186066458219
 30
0.0
 10
56.877898780129854
 20
-7.428189892917571
 30
0.0
 10
56.691065077483636
 20
-7.4080874590943315
 30
0.0
 10
56.45646585094491
 20
-7.388754592520639
 30
0.0
 10
56.17410110051358
 20
-7.370191293196477
 30
0.0
 10
55.326069680567244
 20
-7.314215988152536
 30
0.0
 10
54.01464147460206
 20
-7.260579449118605
 30
0.0
 10
52.25892224051845
 20
-7.209365109642758
 30
0.0
 10
50.50452064347868
 20
-7.158197725502142
 30
0.0
 10
48.30840921186291
 20
-7.1096865495999975
 30
0.0
 10
45.72426566029225
 20
-7.064998841961678
 30
0.0
 10
43.14085932928116
 20
-7.020307064087703
 30
0.0
 10
40.16942181639706
 20
-6.9794344316180155
 30
0.0
 10
36.88352187985533
 20
-6.943381314644922
 30
0.0
 10
33.598370017535196
 20
-6.907314761633012
 30
0.0
 10
29.99881417247624
 20
-6.876123984455721
 30
0.0
 10
26.180188797454644
 20
-6.850558220358604
 30
0.0
 10
18.122675677534453
 20
-6.796452560306945
 30
0.0
 10
9.06574168386935
 20
-6.767921778774622
 30
0.0
 10
4.7186667018195294e-08
 20
-6.768027963695069
 30
0.0
  0
SPLINE
  5
27C
330
17
100
AcDbEntity
  8
visible
100
AcDbSpline
 70
0
 71
3
 72
41
 73
37
 74
0
 40
0.0
 40
0.0
 40
0.0
 40
0.0
 40
0.1531933741167717
 40
0.1531933741167717
 40
0.1531933741167717
 40
0.3063867482335434
 40
0.3063867482335434
 40
0.3063867482335434
 40
0.4595801223503151
 40
0.4595801223503151
 40
0.4595801223503151
 40
0.6127734964670868
 40
0.6127734964670868
 40
0.6127734964670868
 40
0.6510718399962797
 40
0.6510718399962797
 40
0.6510718399962797
 40
0.6893701835254726
 40
0.6893701835254726
 40
0.6893701835254726
 40
0.7659668705838585
 40
0.7659668705838585
 40
0.7659668705838585
 40
0.8042652141130514
 40
0.8042652141130514
 40
0.8042652141130514
 40
0.8425635576422443
 40
0.8425635576422443
 40
0.8425635576422443
 40
0.8808619011714373
 40
0.8808619011714373
 40
0.8808619011714373
 40
0.9191602447006302
 40
0.9191602447006302
 40
0.9191602447006302
 40
1.0
 40
1.0
 40
1.0
 40
1.0
 10
-57.99999994994995
 20
-8.312309295824356
 30
0.0
 10
-58.000528018936535
 20
-8.173070536356969
 30
0.0
 10
-57.962225290408945
 20
-8.034370994553367
 30
0.0
 10
-57.89956370070978
 20
-7.921549328528677
 30
0.0
 10
-57.854863558864
 20
-7.84309054448853
 30
0.0
 10
-57.80551672719591
 20
-7.778496016600956
 30
0.0
 10
-57.75152320570549
 20
-7.727765744865955
 30
0.0
 10
-57.69542136720376
 20
-7.675551386574626
 30
0.0
 10
-57.64463776018181
 20
-7.636560110956342
 30
0.0
 10
-57.599172384639445
 20
-7.6107919180111026
 30
0.0
 10
-57.48833751639537
 20
-7.546214058907851
 30
0.0
 10
-57.42287304022119
 20
-7.5287622868526265
 30
0.0
 10
-57.36562662013209
 20
-7.510691029186142
 30
0.0
 10
-57.278456181786964
 20
-7.485880815129012
 30
0.0
 10
-57.21024505410385
 20
-7.473769632446161
 30
0.0
 10
-57.13231762859793
 20
-7.461114307222811
 30
0.0
 10
-57.056147047471235
 20
-7.4491608712266215
 30
0.0
 10
-56.9713407312819
 20
-7.438186066458216
 30
0.0
 10
-56.87789868002984
 20
-7.428189892917576
 30
0.0
 10
-56.691064977383476
 20
-7.408087459094335
 30
0.0
 10
-56.45646575084476
 20
-7.388754592520636
 30
0.0
 10
-56.17410100041342
 20
-7.37019129319647
 30
0.0
 10
-55.32606958046692
 20
-7.314215988152504
 30
0.0
 10
-54.014641374502155
 20
-7.26057944911862
 30
0.0
 10
-52.25892214041827
 20
-7.209365109642762
 30
0.0
 10
-50.504520543378284
 20
-7.158197725502129
 30
0.0
 10
-48.308409111762586
 20
-7.1096865495999975
 30
0.0
 10
-45.72426556019204
 20
-7.064998841961675
 30
0.0
 10
-43.140859229181075
 20
-7.020307064087693
 30
0.0
 10
-40.16942171629703
 20
-6.979434431618018
 30
0.0
 10
-36.8835217797551
 20
-6.943381314644918
 30
0.0
 10
-33.59836991743468
 20
-6.907314761632989
 30
0.0
 10
-29.998814072376376
 20
-6.8761239844557425
 30
0.0
 10
-26.180188697354346
 20
-6.850558220358611
 30
0.0
 10
-18.12267557913012
 20
-6.796452560318371
 30
0.0
 10
-9.065741587586597
 20
-6.7679217787865324
 30
0.0
 10
4.7186667018195294e-08
 20
-6.768027963695069
 30
0.0
  0
SPLINE
  5
27D
330
17
100
AcDbEntity
  8
visible
100
AcDbSpline
 70
0
 71
3
 72
20
 73
16
 74
0
 40
0.0
 40
0.0
 40
0.0
 40
0.0
 40
0.07363208152179518
 40
0.07363208152179518
 40
0.07363208152179518
 40
0.14726416304359036
 40
0.14726416304359036
 40
0.14726416304359036
 40
0.22089624456538554
 40
0.22089624456538554
 40
0.22089624456538554
 40
0.2945283260871807
 40
0.2945283260871807
 40
0.2945283260871807
 40
0.30453027116850745
 40
0.30453027116850745
 40
0.30453027116850745
 40
0.30453027116850745
 10
58.000000050050055
 20
-22.411115610936548
 30
0.0
 10
58.000528119036666
 20
-22.550354370403927
 30
0.0
 10
57.962225390509005
 20
-22.68905391220747
 30
0.0
 10
57.89956380080984
 20
-22.801875578232227
 30
0.0
 10
57.854863658964085
 20
-22.880334362272325
 30
0.0
 10
57.80551682729602
 20
-22.94492889015992
 30
0.0
 10
57.75152330580559
 20
-22.995659161894913
 30
0.0
 10
57.69542146730389
 20
-23.047873520186265
 30
0.0
 10
57.6446378602819
 20
-23.086864795804562
 30
0.0
 10
57.59917248473953
 20
-23.1126329887498
 30
0.0
 10
57.48833761649546
 20
-23.17721084785301
 30
0.0
 10
57.422873140321194
 20
-23.19466261990828
 30
0.0
 10
57.36562672023218
 20
-23.21273387757472
 30
0.0
 10
57.31901779627295
 20
-23.225852805968152
 30
0.0
 10
57.27573132301213
 20
-23.23628825453145
 30
0.0
 10
57.23576730044949
 20
-23.244040223264534
 30
0.0
  0
SPLINE
  5
27E
330
17
100
AcDbEntity
  8
visible
100
AcDbSpline
 70
0
 71
3
 72
14
 73
10
 74
0
 40
0.0
 40
0.0
 40
0.0
 40
0.0
 40
0.37880935447893627
 40
0.37880935447893627
 40
0.37880935447893627
 40
0.7576187089578732
 40
0.7576187089578732
 40
0.7576187089578732
 40
1.0
 40
1.0
 40
1.0
 40
1.0
 10
57.23409325583367
 20
-23.244374323839814
 30
0.0
 10
57.10668689361301
 20
-23.269157264342265
 30
0.0
 10
56.971540983453984
 20
-23.285960662665328
 30
0.0
 10
56.7975569061371
 20
-23.30362748135456
 30
0.0
 10
56.62573535996875
 20
-23.320611679660427
 30
0.0
 10
56.417916758094265
 20
-23.33714705706373
 30
0.0
 10
56.17410110051354
 20
-23.35323361356441
 30
0.0
 10
55.238643040106744
 20
-23.41498494293881
 30
0.0
 10
53.7375519495996
 20
-23.47395644881589
 30
0.0
 10
51.70000004702202
 20
-23.529860064940998
 30
0.0
  0
SPLINE
  5
27F
330
17
100
AcDbEntity
  8
visible
100
AcDbSpline
 70
0
 71
3
 72
8
 73
4
 74
0
 40
0.0
 40
0.0
 40
0.0
 40
0.0
 40
1.0
 40
1.0
 40
1.0
 40
1.0
 10
45.30000004702201
 20
-23.665671693440636
 30
0.0
 10
40.156538761054804
 20
-23.752547796046596
 30
0.0
 10
33.50949255233662
 20
-23.824330266883
 30
0.0
 10
26.002131775321523
 20
-23.8740548096511
 30
0.0
  0
SPLINE
  5
280
330
17
100
AcDbEntity
  8
visible
100
AcDbSpline
 70
0
 71
3
 72
8
 73
4
 74
0
 40
0.0
 40
0.0
 40
0.0
 40
0.0
 40
1.0
 40
1.0
 40
1.0
 40
1.0
 10
-26.004147678830137
 20
-23.874054809684974
 30
0.0
 10
-33.512268815402514
 20
-23.824298184777337
 30
0.0
 10
-40.154583755345385
 20
-23.752571834720023
 30
0.0
 10
-45.299999952977956
 20
-23.66567087186332
 30
0.0
  0
SPLINE
  5
281
330
17
100
AcDbEntity
  8
visible
100
AcDbSpline
 70
0
 71
3
 72
14
 73
10
 74
0
 40
0.0
 40
0.0
 40
0.0
 40
0.0
 40
0.28116391805965607
 40
0.28116391805965607
 40
0.28116391805965607
 40
0.5623278361193108
 40
0.5623278361193108
 40
0.5623278361193108
 40
1.0
 40
1.0
 40
1.0
 40
1.0
 10
-51.699999952977976
 20
-23.529868714918624
 30
0.0
 10
-53.12884124965919
 20
-23.49067307491013
 30
0.0
 10
-54.289276908775975
 20
-23.450053328809464
 30
0.0
 10
-55.18130693032835
 20
-23.408009476616623
 30
0.0
 10
-56.075258526627344
 20
-23.36524067996946
 30
0.0
 10
-56.67876085109492
 20
-23.324385785789158
 30
0.0
 10
-57.05036895910287
 20
-23.27435295286037
 30
0.0
 10
-57.114249937899515
 20
-23.26580918187873
 30
0.0
 10
-57.175393897689574
 20
-23.25581357041556
 30
0.0
 10
-57.23380083847293
 20
-23.24436611847083
 30
0.0
  0
SPLINE
  5
282
330
17
100
AcDbEntity
  8
visible
100
AcDbSpline
 70
0
 71
3
 72
20
 73
16
 74
0
 40
0.0
 40
0.0
 40
0.0
 40
0.0
 40
0.10732398606029779
 40
0.10732398606029779
 40
0.10732398606029779
 40
0.33049298954522366
 40
0.33049298954522366
 40
0.33049298954522366
 40
0.5536619930301496
 40
0.5536619930301496
 40
0.5536619930301496
 40
0.7768309965150755
 40
0.7768309965150755
 40
0.7768309965150755
 40
1.0
 40
1.0
 40
1.0
 40
1.0
 10
-57.235483788408615
 20
-23.244030444003275
 30
0.0
 10
-57.29174373345623
 20
-23.232486570840162
 30
0.0
 10
-57.34608687969941
 20
-23.220658052757926
 30
0.0
 10
-57.42128092770499
 20
-23.195075488221164
 30
0.0
 10
-57.4676026482367
 20
-23.178508717973028
 30
0.0
 10
-57.52325604495176
 20
-23.157977061100606
 30
0.0
 10
-57.6018562589557
 20
-23.111011068140122
 30
0.0
 10
-57.64730779626276
 20
-23.08501071852503
 30
0.0
 10
-57.697911720650495
 20
-23.04586486899887
 30
0.0
 10
-57.75366803211882
 20
-22.993573519561636
 30
0.0
 10
-57.80614995174124
 20
-22.94382561690448
 30
0.0
 10
-57.85422475792321
 20
-22.88093445112699
 30
0.0
 10
-57.89789245066458
 20
-22.804900022229138
 30
0.0
 10
-57.961510919224864
 20
-22.691525924446506
 30
0.0
 10
-58.00054744430004
 20
-22.551603583209236
 30
0.0
 10
-57.99999994994995
 20
-22.411115610936548
 30
0.0
  0
SPLINE
  5
283
330
17
100
AcDbEntity
  8
visible
100
AcDbSpline
 70
0
 71
3
 72
17
 73
13
 74
0
 40
0.0
 40
0.0
 40
0.0
 40
0.0
 40
0.046110407613736366
 40
0.046110407613736366
 40
0.046110407613736366
 40
0.3640736050758241
 40
0.3640736050758241
 40
0.3640736050758241
 40
0.6820368025379118
 40
0.6820368025379118
 40
0.6820368025379118
 40
1.0
 40
1.0
 40
1.0
 40
1.0
 10
57.57603673163884
 20
-13.426895791288274
 30
0.0
 10
57.587299020305046
 20
-13.420243515431089
 30
0.0
 10
57.598561308971256
 20
-13.413591239573913
 30
0.0
 10
57.609823597637494
 20
-13.406938963716733
 30
0.0
 10
57.65384910359541
 20
-13.380968497781197
 30
0.0
 10
57.702373559979236
 20
-13.34288969598135
 30
0.0
 10
57.755396966788695
 20
-13.29270255831714
 30
0.0
 10
57.807774744020584
 20
-13.242744153752259
 30
0.0
 10
57.85565719957361
 20
-13.179723331600961
 30
0.0
 10
57.89904433344812
 20
-13.103640091863262
 30
0.0
 10
57.96200369863207
 20
-12.990645143050022
 30
0.0
 10
58.00053411340057
 20
-12.85156463553925
 30
0.0
 10
58.000000050050055
 20
-12.711936798412552
 30
0.0
  0
SPLINE
  5
284
330
17
100
AcDbEntity
  8
visible
100
AcDbSpline
 70
0
 71
3
 72
23
 73
19
 74
0
 40
0.0
 40
0.0
 40
0.0
 40
0.0
 40
0.17846806204333152
 40
0.17846806204333152
 40
0.17846806204333152
 40
0.35693612408666303
 40
0.35693612408666303
 40
0.35693612408666303
 40
0.5
 40
0.5
 40
0.5
 40
0.6430638759133369
 40
0.6430638759133369
 40
0.6430638759133369
 40
0.8215319379566685
 40
0.8215319379566685
 40
0.8215319379566685
 40
1.0
 40
1.0
 40
1.0
 40
1.0
 10
4.7257778135190165e-08
 20
-22.485050954768454
 30
0.0
 10
7.194991348424623
 20
-22.485000940064573
 30
0.0
 10
14.389785310460944
 20
-22.503343023911125
 30
0.0
 10
21.05117901978121
 20
-22.538712716335983
 30
0.0
 10
27.71535779962985
 20
-22.573991375946118
 30
0.0
 10
33.84612509756356
 20
-22.626302030080197
 30
0.0
 10
38.98824760102742
 20
-22.69173610294804
 30
0.0
 10
43.1128262145562
 20
-22.744171044661915
 30
0.0
 10
46.605097154960326
 20
-22.80496470019024
 30
0.0
 10
49.29782101881547
 20
-22.871210681385254
 30
0.0
 10
51.99133917037497
 20
-22.937231656394175
 30
0.0
 10
53.89203482273072
 20
-23.00952530526962
 30
0.0
 10
54.87395851898419
 20
-23.081440569780483
 30
0.0
 10
55.065565415020686
 20
-23.09548534526543
 30
0.0
 10
55.21940527638457
 20
-23.109027249204328
 30
0.0
 10
55.33547810307546
 20
-23.12206628159711
 30
0.0
 10
55.44876793421301
 20
-23.134158072860757
 30
0.0
 10
55.52889946092808
 20
-23.14845143476151
 30
0.0
 10
55.53165564533492
 20
-23.14976217459313
 30
0.0
  0
SPLINE
  5
285
330
17
100
AcDbEntity
  8
visible
100
AcDbSpline
 70
0
 71
1
 72
4
 73
2
 74
0
 40
0.0
 40
0.0
 40
0.029529453651407384
 40
0.029529453651407384
 10
55.53165564533492
 20
-23.14976217459313
 30
0.0
 10
55.530722928526814
 20
-23.149542518177647
 30
0.0
  0
SPLINE
  5
286
330
17
100
AcDbEntity
  8
visible
100
AcDbSpline
 70
0
 71
3
 72
8
 73
4
 74
0
 40
0.0
 40
0.0
 40
0.0
 40
0.0
 40
1.0
 40
1.0
 40
1.0
 40
1.0
 10
-55.48196131055512
 20
-23.13363853307755
 30
0.0
 10
-55.52031899217066
 20
-23.14797871577857
 30
0.0
 10
-55.53129089844733
 20
-23.149399873064393
 30
0.0
 10
-55.53165554523483
 20
-23.14976217459313
 30
0.0
  0
SPLINE
  5
287
330
17
100
AcDbEntity
  8
visible
100
AcDbSpline
 70
0
 71
3
 72
26
 73
22
 74
0
 40
0.0
 40
0.0
 40
0.0
 40
0.0
 40
0.12478030025049663
 40
0.12478030025049663
 40
0.12478030025049663
 40
0.5
 40
0.5
 40
0.5
 40
0.8752196997495034
 40
0.8752196997495034
 40
0.8752196997495034
 40
0.9064147748121276
 40
0.9064147748121276
 40
0.9064147748121276
 40
0.9376098498747517
 40
0.9376098498747517
 40
0.9376098498747517
 40
0.9688049249373758
 40
0.9688049249373758
 40
0.9688049249373758
 40
1.0
 40
1.0
 40
1.0
 40
1.0
 10
-55.53165554523483
 20
-23.149762174593135
 30
0.0
 10
-55.53080102793546
 20
-23.1493230872658
 30
0.0
 10
-55.49173192541621
 20
-23.141618228830552
 30
0.0
 10
-55.434164546068445
 20
-23.134089157839334
 30
0.0
 10
-55.256494108728475
 20
-23.10982822676375
 30
0.0
 10
-54.90547788857229
 20
-23.080091950270923
 30
0.0
 10
-54.42115239150352
 20
-23.052053913035515
 30
0.0
 10
-53.933785880744765
 20
-23.02352755173316
 30
0.0
 10
-53.30998837775341
 20
-22.995332112526203
 30
0.0
 10
-52.54975988252943
 20
-22.96746759541461
 30
0.0
 10
-50.648242013191506
 20
-22.89774687970822
 30
0.0
 10
-47.90085396324939
 20
-22.831483827614356
 30
0.0
 10
-44.447067059914346
 20
-22.772267436059554
 30
0.0
 10
-40.99525267790909
 20
-22.71300813164387
 30
0.0
 10
-36.83840515541153
 20
-22.660748557302544
 30
0.0
 10
-32.17054485782403
 20
-22.617901534120882
 30
0.0
 10
-27.504285155744977
 20
-22.575023605842883
 30
0.0
 10
-22.32723384917956
 20
-22.54155392606061
 30
0.0
 10
-16.877546418726514
 20
-22.519065357425134
 30
0.0
 10
-11.429624162162533
 20
-22.496537909676274
 30
0.0
 10
-5.708142410017027
 20
-22.485029898210996
 30
0.0
 10
4.7257778135190165e-08
 20
-22.485050954768447
 30
0.0
  0
SPLINE
  5
288
330
17
100
AcDbEntity
  8
visible
100
AcDbSpline
 70
0
 71
3
 72
8
 73
4
 74
0
 40
0.0
 40
0.0
 40
0.0
 40
0.0
 40
1.0
 40
1.0
 40
1.0
 40
1.0
 10
-19.99999995214214
 20
11.056020843669927
 30
0.0
 10
-20.005685662123668
 20
7.600515846937665
 30
0.0
 10
-18.984578320933405
 20
4.1521425250674815
 30
0.0
 10
-17.098320295879198
 20
1.2567767480769163
 30
0.0
  0
SPLINE
  5
289
330
17
100
AcDbEntity
  8
visible
100
AcDbSpline
 70
0
 71
3
 72
17
 73
13
 74
0
 40
0.0
 40
0.0
 40
0.0
 40
0.0
 40
0.25
 40
0.25
 40
0.25
 40
0.5
 40
0.5
 40
0.5
 40
0.75
 40
0.75
 40
0.75
 40
1.0
 40
1.0
 40
1.0
 40
1.0
 10
-1.9999999534139334
 20
68.88172325616141
 30
0.0
 10
-4.3238938087002055
 20
68.8829752244592
 30
0.0
 10
-6.647729732741588
 20
68.42720605035998
 30
0.0
 10
-8.798977144094156
 20
67.54839480824448
 30
0.0
 10
-10.951133748541446
 20
66.67181243612417
 30
0.0
 10
-12.93070184029993
 20
65.37218799598752
 30
0.0
 10
-14.590608244577842
 20
63.74590892207986
 30
0.0
 10
-16.298369358682844
 20
62.076506036564176
 30
0.0
 10
-17.668124897353852
 20
60.061886600019996
 30
0.0
 10
-18.59264495680257
 20
57.860053089726236
 30
0.0
 10
-19.519640214951917
 20
55.65926043644925
 30
0.0
 10
-20.001399993878966
 20
53.27125370942267
 30
0.0
 10
-19.999999953413415
 20
50.88317938239585
 30
0.0
  0
SPLINE
  5
28A
330
17
100
AcDbEntity
  8
visible
100
AcDbSpline
 70
0
 71
3
 72
8
 73
4
 74
0
 40
0.0
 40
0.0
 40
0.0
 40
0.0
 40
1.0
 40
1.0
 40
1.0
 40
1.0
 10
17.098320391594918
 20
1.2567767480983036
 30
0.0
 10
18.98457737028762
 20
4.152140667970467
 30
0.0
 10
20.00568562432516
 20
7.600513719629392
 30
0.0
 10
20.00000004785786
 20
11.056020843695975
 30
0.0
  0
LINE
  5
28B
330
17
100
AcDbEntity
  8
visible
100
AcDbLine
 10
2.000000046586066
 20
68.881723256164
 30
0.0
 11
-1.9999999534139339
 21
68.8817232561614
 31
0.0
  0
SPLINE
  5
28C
330
17
100
AcDbEntity
  8
visible
100
AcDbSpline
 70
0
 71
3
 72
17
 73
13
 74
0
 40
0.0
 40
0.0
 40
0.0
 40
0.0
 40
0.3349951795796282
 40
0.3349951795796282
 40
0.3349951795796282
 40
0.5000007683313145
 40
0.5000007683313145
 40
0.5000007683313145
 40
0.6650061823222678
 40
0.6650061823222678
 40
0.6650061823222678
 40
1.0
 40
1.0
 40
1.0
 40
1.0
 10
20.00000004658659
 20
50.8831793824219
 30
0.0
 10
20.0039909944693
 20
54.041138159157654
 30
0.0
 10
19.15454089622059
 20
57.194533563036245
 30
0.0
 10
17.56483238275935
 20
59.92325779853019
 30
0.0
 10
16.783948332895818
 20
61.267994781691876
 30
0.0
 10
15.827701532299187
 20
62.5107258871338
 30
0.0
 10
14.72789626067174
 20
63.61009806015136
 30
0.0
 10
13.62843179362756
 20
64.70980870330912
 30
0.0
 10
12.385598722749963
 20
65.66597121049494
 30
0.0
 10
11.040753808884869
 20
66.44678512582362
 30
0.0
 10
8.311818523897758
 20
68.03634589302773
 30
0.0
 10
5.158190684339774
 20
68.88571360944928
 30
0.0
 10
2.0000000465860674
 20
68.88172325616402
 30
0.0
  0
SPLINE
  5
28D
330
17
100
AcDbEntity
  8
visible
100
AcDbSpline
 70
0
 71
3
 72
23
 73
19
 74
0
 40
0.0
 40
0.0
 40
0.0
 40
0.0
 40
0.18424987863390557
 40
0.18424987863390557
 40
0.18424987863390557
 40
0.36745517046964293
 40
0.36745517046964293
 40
0.36745517046964293
 40
0.5825980734020728
 40
0.5825980734020728
 40
0.5825980734020728
 40
0.6991740973840836
 40
0.6991740973840836
 40
0.6991740973840836
 40
0.8157501213660945
 40
0.8157501213660945
 40
0.8157501213660945
 40
0.8539296263400648
 40
0.8539296263400648
 40
0.8539296263400648
 40
0.8539296263400648
 10
-13.999999953463462
 20
42.89686850798047
 30
0.0
 10
-14.002936502635775
 20
40.47519112737524
 30
0.0
 10
-13.361050220183241
 20
38.05681936419849
 30
0.0
 10
-12.157586162044222
 20
35.955286128614844
 30
0.0
 10
-10.965950533376764
 20
33.86282659770811
 30
0.0
 10
-9.222456913825503
 20
32.08916856886632
 30
0.0
 10
-7.150685488771156
 20
30.86173036945162
 30
0.0
 10
-4.721517509113409
 20
29.412425357206054
 30
0.0
 10
-1.845335976934468
 20
28.72950042436901
 30
0.0
 10
0.9761222684055921
 20
28.93203996202287
 30
0.0
 10
2.50442514395083
 20
29.03838179088795
 30
0.0
 10
4.014984920110388
 20
29.398322871151187
 30
0.0
 10
5.426997117781253
 20
29.992586798474747
 30
0.0
 10
6.839384111909154
 20
30.58595915138969
 30
0.0
 10
8.153223527548366
 20
31.41365435136505
 30
0.0
 10
9.298205186392813
 20
32.43143191062214
 30
0.0
 10
9.910023626159834
 20
32.975055536289226
 30
0.0
 10
10.470042973516692
 20
33.56784877132733
 30
0.0
 10
10.978263228463389
 20
34.2098116157365
 30
0.0
  0
SPLINE
  5
28E
330
17
100
AcDbEntity
  8
visible
100
AcDbSpline
 70
0
 71
3
 72
8
 73
4
 74
0
 40
0.0
 40
0.0
 40
0.0
 40
0.0
 40
1.0
 40
1.0
 40
1.0
 40
1.0
 10
11.816660443228441
 20
35.38973903984606
 30
0.0
 10
13.237115709043495
 20
37.61729968412661
 30
0.0
 10
14.004134230295273
 20
40.25481879451294
 30
0.0
 10
14.000000046536538
 20
42.89686861568191
 30
0.0
  0
LINE
  5
28F
330
17
100
AcDbEntity
  8
visible
100
AcDbLine
 10
14.000000046536538
 20
42.89686861568191
 30
0.0
 11
14.000000046501503
 21
42.90597695366251
 31
0.0
  0
LINE
  5
290
330
17
100
AcDbEntity
  8
visible
100
AcDbLine
 10
-13.999999953463462
 20
42.89686850798047
 30
0.0
 11
-13.999999953498497
 21
42.90597684596107
 31
0.0
  0
SPLINE
  5
291
330
17
100
AcDbEntity
  8
visible
100
AcDbSpline
 70
0
 71
3
 72
29
 73
25
 74
0
 40
0.0
 40
0.0
 40
0.0
 40
0.0
 40
0.125
 40
0.125
 40
0.125
 40
0.25
 40
0.25
 40
0.25
 40
0.375
 40
0.375
 40
0.375
 40
0.5
 40
0.5
 40
0.5
 40
0.625
 40
0.625
 40
0.625
 40
0.75
 40
0.75
 40
0.75
 40
0.875
 40
0.875
 40
0.875
 40
1.0
 40
1.0
 40
1.0
 40
1.0
 10
14.000000046501503
 20
42.9059769536625
 30
0.0
 10
14.001117408968682
 20
44.77456532135705
 30
0.0
 10
13.62181552533362
 20
46.643115964383036
 30
0.0
 10
12.892313917670343
 20
48.363418022256994
 30
0.0
 10
12.164782191224973
 20
50.084555146486544
 30
0.0
 10
11.08705074075138
 20
51.657443685564125
 30
0.0
 10
9.744495762424949
 20
52.95725463696361
 30
0.0
 10
8.428590511611352
 20
54.23422508748022
 30
0.0
 10
6.857931583965409
 20
55.24834974156285
 30
0.0
 10
5.152590373851854
 20
55.92224473769197
 30
0.0
 10
3.4479791725316495
 20
56.59798374053721
 30
0.0
 10
1.6086856887438277
 20
56.93349308542905
 30
0.0
 10
-0.22477843693308275
 20
56.90302109889996
 30
0.0
 10
-2.0138767811795417
 20
56.87521933097004
 30
0.0
 10
-3.7973405809780516
 20
56.49924400424397
 30
0.0
 10
-5.4453984031551625
 20
55.802509470972375
 30
0.0
 10
-7.09415298750027
 20
55.107435140971475
 30
0.0
 10
-8.607501594223972
 20
54.09160160442514
 30
0.0
 10
-9.87518213085681
 20
52.82890890516498
 30
0.0
 10
-11.178926784152498
 20
51.53312307405707
 30
0.0
 10
-12.223137467943738
 20
49.976619300927666
 30
0.0
 10
-12.927741991308428
 20
48.27896735895985
 30
0.0
 10
-13.634196032876266
 20
46.58208445074159
 30
0.0
 10
-14.001043914017556
 20
44.74405337368496
 30
0.0
 10
-13.999999953498495
 20
42.905976845961085
 30
0.0
  0
SPLINE
  5
292
330
17
100
AcDbEntity
  8
visible
100
AcDbSpline
 70
0
 71
3
 72
29
 73
25
 74
0
 40
0.0
 40
0.0
 40
0.0
 40
0.0
 40
0.14285714285714285
 40
0.14285714285714285
 40
0.14285714285714285
 40
0.2857142857142857
 40
0.2857142857142857
 40
0.2857142857142857
 40
0.42857142857142855
 40
0.42857142857142855
 40
0.42857142857142855
 40
0.5
 40
0.5
 40
0.5
 40
0.5714285714285714
 40
0.5714285714285714
 40
0.5714285714285714
 40
0.7142857142857142
 40
0.7142857142857142
 40
0.7142857142857142
 40
0.857142857142857
 40
0.857142857142857
 40
0.857142857142857
 40
1.0
 40
1.0
 40
1.0
 40
1.0
 10
-19.999999947847847
 20
-0.8594868426950342
 30
0.0
 10
-20.001837438751725
 20
-0.6068000089651063
 30
0.0
 10
-19.87427400690074
 20
-0.3577035011451004
 30
0.0
 10
-19.669480584190453
 20
-0.21124078126695167
 30
0.0
 10
-19.62269863293806
 20
-0.17736576924528918
 30
0.0
 10
-19.573379710263477
 20
-0.1489970194344799
 30
0.0
 10
-19.521523816166642
 20
-0.1261345318345235
 30
0.0
 10
-19.463676415075756
 20
-0.10140180695767156
 30
0.0
 10
-19.41001225630468
 20
-0.08404621482125092
 30
0.0
 10
-19.360531339853413
 20
-0.07406775542526134
 30
0.0
 10
-19.298124252250886
 20
-0.0611253123773096
 30
0.0
 10
-19.264550741672917
 20
-0.05852043836971222
 30
0.0
 10
-19.23121754647333
 20
-0.05515080303882813
 30
0.0
 10
-19.199848327432786
 20
-0.05233495139088553
 30
0.0
 10
-19.16717426293812
 20
-0.05002715619173195
 30
0.0
 10
-19.133195352989375
 20
-0.04822741744136749
 30
0.0
 10
-19.05845538141885
 20
-0.0441440912639262
 30
0.0
 10
-18.96164757033134
 20
-0.04043349418617975
 30
0.0
 10
-18.842771919726722
 20
-0.03709562620812789
 30
0.0
 10
-18.778919994185856
 20
-0.035278811079113494
 30
0.0
 10
-18.708397714445486
 20
-0.03352297282674415
 30
0.0
 10
-18.63120508050569
 20
-0.031828111451019936
 30
0.0
 10
-18.23295271789231
 20
-0.02305783802178936
 30
0.0
 10
-17.651646990396436
 20
-0.015875005828753456
 30
0.0
 10
-16.966571636988835
 20
-0.011178806317687418
 30
0.0
  0
SPLINE
  5
293
330
17
100
AcDbEntity
  8
visible
100
AcDbSpline
 70
0
 71
3
 72
8
 73
4
 74
0
 40
0.0
 40
0.0
 40
0.0
 40
0.0
 40
1.0
 40
1.0
 40
1.0
 40
1.0
 10
-19.18642666249069
 20
4.5870313392688775
 30
0.0
 10
-18.801296640813312
 20
3.349638180663676
 30
0.0
 10
-18.2819099724678
 20
2.154098798715304
 30
0.0
 10
-17.640299954356088
 20
1.0281148517756582
 30
0.0
  0
SPLINE
  5
294
330
17
100
AcDbEntity
  8
visible
100
AcDbSpline
 70
0
 71
3
 72
8
 73
4
 74
0
 40
0.0
 40
0.0
 40
0.0
 40
0.0
 40
1.0
 40
1.0
 40
1.0
 40
1.0
 10
17.64030006385561
 20
1.0281148516633667
 30
0.0
 10
18.28190990582523
 20
2.1540984073950713
 30
0.0
 10
18.801297176603924
 20
3.3496391822555474
 30
0.0
 10
19.18642678496753
 20
4.58703133929384
 30
0.0
  0
SPLINE
  5
295
330
17
100
AcDbEntity
  8
visible
100
AcDbSpline
 70
0
 71
1
 72
4
 73
2
 74
0
 40
0.0
 40
0.0
 40
1.0
 40
1.0
 10
20.000000047747747
 20
-0.8593979888469194
 30
0.0
 10
20.000000052152153
 20
-0.8594868426689857
 30
0.0
  0
SPLINE
  5
296
330
17
100
AcDbEntity
  8
visible
100
AcDbSpline
 70
0
 71
3
 72
8
 73
4
 74
0
 40
0.0
 40
0.0
 40
0.0
 40
0.0
 40
1.0
 40
1.0
 40
1.0
 40
1.0
 10
-19.29189340730388
 20
4.587031339268802
 30
0.0
 10
-18.935082740893723
 20
3.352505173661363
 30
0.0
 10
-18.445427705994994
 20
2.156356900540596
 30
0.0
 10
-17.83412956667867
 20
1.0259582159585028
 30
0.0
  0
SPLINE
  5
297
330
17
100
AcDbEntity
  8
visible
100
AcDbSpline
 70
0
 71
3
 72
8
 73
4
 74
0
 40
0.0
 40
0.0
 40
0.0
 40
0.0
 40
1.0
 40
1.0
 40
1.0
 40
1.0
 10
17.83412137177122
 20
1.0259583139077952
 30
0.0
 10
18.445459350001993
 20
2.1563825362679157
 30
0.0
 10
18.935064769820993
 20
3.3524070571081306
 30
0.0
 10
19.291887061457913
 20
4.587031339293913
 30
0.0
  0
LINE
  5
298
330
17
100
AcDbEntity
  8
visible
100
AcDbLine
 10
-26.499999948412892
 20
4.587031339264101
 30
0.0
 11
-18.827048581327734
 21
4.587031339269098
 31
0.0
  0
LINE
  5
299
330
17
100
AcDbEntity
  8
visible
100
AcDbLine
 10
18.827048738530934
 20
4.58703133929362
 30
0.0
 11
26.500000051587108
 21
4.587031339298617
 31
0.0
  0
SPLINE
  5
29A
330
17
100
AcDbEntity
  8
visible
100
AcDbSpline
 70
0
 71
3
 72
29
 73
25
 74
0
 40
0.0
 40
0.0
 40
0.0
 40
0.0
 40
0.06773572885836376
 40
0.06773572885836376
 40
0.06773572885836376
 40
0.13547145771672753
 40
0.13547145771672753
 40
0.13547145771672753
 40
0.2032071865750913
 40
0.2032071865750913
 40
0.2032071865750913
 40
0.27094291543345506
 40
0.27094291543345506
 40
0.27094291543345506
 40
0.3386786442918188
 40
0.3386786442918188
 40
0.3386786442918188
 40
0.4064143731501826
 40
0.4064143731501826
 40
0.4064143731501826
 40
0.48303126705384525
 40
0.48303126705384525
 40
0.48303126705384525
 40
1.0
 40
1.0
 40
1.0
 40
1.0
 10
-29.499999948523524
 20
5.415657544344029
 30
0.0
 10
-29.502042105111634
 20
5.152654313369675
 30
0.0
 10
-29.363587130344307
 20
4.894111048521097
 30
0.0
 10
-29.143956691768214
 20
4.749869441943176
 30
0.0
 10
-29.10168833398601
 20
4.721668980902244
 30
0.0
 10
-29.057291481576904
 20
4.697727000253758
 30
0.0
 10
-29.010766134540866
 20
4.678043499997699
 30
0.0
 10
-28.966074130965737
 20
4.659296067120939
 30
0.0
 10
-28.92148134110784
 20
4.644837976431194
 30
0.0
 10
-28.876987764967197
 20
4.634669227928455
 30
0.0
 10
-28.792376668139774
 20
4.616054820724033
 30
0.0
 10
-28.747983856267915
 20
4.614906617101832
 30
0.0
 10
-28.71011105669166
 20
4.611789699673508
 30
0.0
 10
-28.66267151259212
 20
4.608808430670601
 30
0.0
 10
-28.604536864538307
 20
4.606355215276061
 30
0.0
 10
-28.535707112530183
 20
4.604430053489878
 30
0.0
 10
-28.49834664909174
 20
4.603332024087613
 30
0.0
 10
-28.456866079273517
 20
4.602281994150042
 30
0.0
 10
-28.411265403075507
 20
4.601279963677155
 30
0.0
 10
-28.359636608131737
 20
4.600144831195749
 30
0.0
 10
-28.302861310561966
 20
4.599066455867073
 30
0.0
 10
-28.240939510366076
 20
4.5980448376911305
 30
0.0
 10
-27.826251402762296
 20
4.59112315472779
 30
0.0
 10
-27.167888900586885
 20
4.5869866276333005
 30
0.0
 10
-26.499999948412896
 20
4.587031339264102
 30
0.0
  0
SPLINE
  5
29B
330
17
100
AcDbEntity
  8
visible
100
AcDbSpline
 70
0
 71
3
 72
23
 73
19
 74
0
 40
0.0
 40
0.0
 40
0.0
 40
0.0
 40
0.2437569870717572
 40
0.2437569870717572
 40
0.2437569870717572
 40
0.34848086157693153
 40
0.34848086157693153
 40
0.34848086157693153
 40
0.5113606461826987
 40
0.5113606461826987
 40
0.5113606461826987
 40
0.6742404307884658
 40
0.6742404307884658
 40
0.6742404307884658
 40
0.837120215394233
 40
0.837120215394233
 40
0.837120215394233
 40
1.0
 40
1.0
 40
1.0
 40
1.0
 10
26.500000051587108
 20
4.587031339298619
 30
0.0
 10
27.165710970317328
 20
4.586987095634127
 30
0.0
 10
27.822052219168143
 20
4.591095966591214
 30
0.0
 10
28.236896203548728
 20
4.597978293819136
 30
0.0
 10
28.416287769084594
 20
4.600867371862619
 30
0.0
 10
28.55273915304365
 20
4.604332841280878
 30
0.0
 10
28.646250355425906
 20
4.608374702073917
 30
0.0
 10
28.704573587875462
 20
4.611806180494826
 30
0.0
 10
28.735242505179986
 20
4.61102129972446
 30
0.0
 10
28.82134215222371
 20
4.6237376940718775
 30
0.0
 10
28.871087489520896
 20
4.6315857691499955
 30
0.0
 10
28.93374471573157
 20
4.647214165522004
 30
0.0
 10
28.991007575645714
 20
4.669987552606983
 30
0.0
 10
29.036072725670273
 20
4.687657357155246
 30
0.0
 10
29.079349181268675
 20
4.709325468356142
 30
0.0
 10
29.120836942440853
 20
4.73499188620967
 30
0.0
 10
29.35331001611528
 20
4.87624911767339
 30
0.0
 10
29.50233530352574
 20
5.143314678165204
 30
0.0
 10
29.500000051476476
 20
5.415657544382455
 30
0.0
  0
SPLINE
  5
29C
330
17
100
AcDbEntity
  8
visible
100
AcDbSpline
 70
0
 71
2
 72
6
 73
3
 74
0
 40
0.0
 40
0.0
 40
0.0
 40
1.0
 40
1.0
 40
1.0
 10
26.490855096912906
 20
10.38567486040242
 30
0.0
 10
26.500003147484776
 20
10.445672316850008
 30
0.0
 10
26.500000051126122
 20
10.506317631673141
 30
0.0
  0
LINE
  5
29D
330
17
100
AcDbEntity
  8
visible
100
AcDbLine
 10
26.500000048512995
 20
10.385674860402418
 30
0.0
 11
19.990251736753795
 21
10.385674860398177
 31
0.0
  0
SPLINE
  5
29E
330
17
100
AcDbEntity
  8
visible
100
AcDbSpline
 70
0
 71
3
 72
29
 73
25
 74
0
 40
0.0
 40
0.0
 40
0.0
 40
0.0
 40
0.06773572885835676
 40
0.06773572885835676
 40
0.06773572885835676
 40
0.1354714577167135
 40
0.1354714577167135
 40
0.1354714577167135
 40
0.20320718657507025
 40
0.20320718657507025
 40
0.20320718657507025
 40
0.270942915433427
 40
0.270942915433427
 40
0.270942915433427
 40
0.3386786442917838
 40
0.3386786442917838
 40
0.3386786442917838
 40
0.40641437315014056
 40
0.40641437315014056
 40
0.40641437315014056
 40
0.4830312670537953
 40
0.4830312670537953
 40
0.4830312670537953
 40
1.0
 40
1.0
 40
1.0
 40
1.0
 10
29.500000048623626
 20
9.557048655322475
 30
0.0
 10
29.502042205211733
 20
9.820051886296854
 30
0.0
 10
29.363587230444402
 20
10.078595151145398
 30
0.0
 10
29.143956791868316
 20
10.222836757723357
 30
0.0
 10
29.101688434086135
 20
10.251037218764264
 30
0.0
 10
29.057291581676992
 20
10.274979199412735
 30
0.0
 10
29.010766234640965
 20
10.294662699668818
 30
0.0
 10
28.966074231065836
 20
10.31341013254557
 30
0.0
 10
28.92148144120794
 20
10.327868223235324
 30
0.0
 10
28.8769878650673
 20
10.338036971738063
 30
0.0
 10
28.792376768239883
 20
10.356651378942491
 30
0.0
 10
28.747983956368028
 20
10.357799582564676
 30
0.0
 10
28.710111156791758
 20
10.360916499993007
 30
0.0
 10
28.66267161269222
 20
10.363897768995907
 30
0.0
 10
28.60453696463842
 20
10.366350984390461
 30
0.0
 10
28.53570721263029
 20
10.36827614617664
 30
0.0
 10
28.49834674919188
 20
10.369374175578914
 30
0.0
 10
28.4568661793736
 20
10.370424205516473
 30
0.0
 10
28.411265503175617
 20
10.371426235989357
 30
0.0
 10
28.35963670823185
 20
10.372561368470755
 30
0.0
 10
28.302861410662054
 20
10.373639743799432
 30
0.0
 10
28.240939610466178
 20
10.374661361975388
 30
0.0
 10
27.826251502862334
 20
10.38158304493874
 30
0.0
 10
27.16788900068695
 20
10.385719572033176
 30
0.0
 10
26.500000048512995
 20
10.385674860402418
 30
0.0
  0
SPLINE
  5
29F
330
17
100
AcDbEntity
  8
visible
100
AcDbSpline
 70
0
 71
2
 72
6
 73
3
 74
0
 40
0.0
 40
0.0
 40
0.0
 40
0.018689621681893344
 40
0.018689621681893344
 40
0.018689621681893344
 10
-26.499999948873874
 20
10.506317631638623
 30
0.0
 10
-26.500004110113153
 20
10.445674062980238
 30
0.0
 10
-26.490855336526362
 20
10.38567486036792
 30
0.0
  0
SPLINE
  5
2A0
330
17
100
AcDbEntity
  8
visible
100
AcDbSpline
 70
0
 71
3
 72
23
 73
19
 74
0
 40
0.0
 40
0.0
 40
0.0
 40
0.0
 40
0.24375698707175428
 40
0.24375698707175428
 40
0.24375698707175428
 40
0.34848086157691094
 40
0.34848086157691094
 40
0.34848086157691094
 40
0.5113606461826832
 40
0.5113606461826832
 40
0.5113606461826832
 40
0.6742404307884554
 40
0.6742404307884554
 40
0.6742404307884554
 40
0.8371202153942277
 40
0.8371202153942277
 40
0.8371202153942277
 40
1.0
 40
1.0
 40
1.0
 40
1.0
 10
-26.499999951487005
 20
10.3856748603679
 30
0.0
 10
-27.165710870217183
 20
10.385719104032383
 30
0.0
 10
-27.822052119067976
 20
10.381610233075262
 30
0.0
 10
-28.236896103448622
 20
10.374727905847385
 30
0.0
 10
-28.416287668984502
 20
10.371838827803899
 30
0.0
 10
-28.552739052943537
 20
10.36837335838564
 30
0.0
 10
-28.64625025532579
 20
10.364331497592584
 30
0.0
 10
-28.70457348777537
 20
10.36090001917168
 30
0.0
 10
-28.73524240507988
 20
10.361684899942047
 30
0.0
 10
-28.821342052123608
 20
10.348968505594641
 30
0.0
 10
-28.871087389420776
 20
10.341120430516506
 30
0.0
 10
-28.9337446156315
 20
10.325492034144515
 30
0.0
 10
-28.9910074755456
 20
10.302718647059535
 30
0.0
 10
-29.036072625570174
 20
10.285048842511262
 30
0.0
 10
-29.07934908116858
 20
10.263380731310386
 30
0.0
 10
-29.12083684234075
 20
10.237714313456848
 30
0.0
 10
-29.353309916015185
 20
10.096457081993115
 30
0.0
 10
-29.50233520342563
 20
9.829391521501293
 30
0.0
 10
-29.499999951376374
 20
9.55704865528405
 30
0.0
  0
LINE
  5
2A1
330
17
100
AcDbEntity
  8
visible
100
AcDbLine
 10
-19.99025162906284
 20
10.385674860372141
 30
0.0
 11
-26.499999951487005
 21
10.385674860367901
 31
0.0
  0
SPLINE
  5
2A2
330
17
100
AcDbEntity
  8
visible
100
AcDbSpline
 70
0
 71
3
 72
29
 73
25
 74
0
 40
0.0
 40
0.0
 40
0.0
 40
0.0
 40
0.12322084805490624
 40
0.12322084805490624
 40
0.12322084805490624
 40
0.24644169610981248
 40
0.24644169610981248
 40
0.24644169610981248
 40
0.3696625441647187
 40
0.3696625441647187
 40
0.3696625441647187
 40
0.49288339221962496
 40
0.49288339221962496
 40
0.49288339221962496
 40
0.6161042402745311
 40
0.6161042402745311
 40
0.6161042402745311
 40
0.7393250883294373
 40
0.7393250883294373
 40
0.7393250883294373
 40
0.8767791519450937
 40
0.8767791519450937
 40
0.8767791519450937
 40
1.0
 40
1.0
 40
1.0
 40
1.0
 10
26.500000048973977
 20
14.46554198300106
 30
0.0
 10
26.50213741152051
 20
14.732663841395224
 30
0.0
 10
26.35915959949853
 20
14.994954701856113
 30
0.0
 10
26.133623782864866
 20
15.137986883667281
 30
0.0
 10
26.082062709855762
 20
15.171219376466418
 30
0.0
 10
26.027537482490953
 20
15.198179713950493
 30
0.0
 10
25.970048100770548
 20
15.21886789611952
 30
0.0
 10
25.911224239515494
 20
15.240433180942079
 30
0.0
 10
25.84510954893092
 20
15.254657661246481
 30
0.0
 10
25.794266464913562
 20
15.260793699237626
 30
0.0
 10
25.739956579123156
 20
15.267246827366042
 30
0.0
 10
25.715212392124783
 20
15.267661280364868
 30
0.0
 10
25.680789677070564
 20
15.26941726324985
 30
0.0
 10
25.64833245196509
 20
15.270765780911638
 30
0.0
 10
25.609935092170595
 20
15.271945076539891
 30
0.0
 10
25.565597597687074
 20
15.272955150134564
 30
0.0
 10
25.537599828745392
 20
15.273604734714706
 30
0.0
 10
25.50690235878335
 20
15.274218566317266
 30
0.0
 10
25.47350518780091
 20
15.274796644942235
 30
0.0
 10
25.436214275647057
 20
15.275442396985959
 30
0.0
 10
25.395748692840602
 20
15.27604464816476
 30
0.0
 10
25.352108439381563
 20
15.276603398478642
 30
0.0
 10
25.1262562995499
 20
15.279515964529198
 30
0.0
 10
24.81445340431913
 20
15.28116938246954
 30
0.0
 10
24.500000048913392
 20
15.281156276680804
 30
0.0
  0
LINE
  5
2A3
330
17
100
AcDbEntity
  8
visible
100
AcDbLine
 10
24.500000048913392
 20
15.281156276680804
 30
0.0
 11
20.000000047937938
 21
15.281156276677873
 31
0.0
  0
LINE
  5
2A4
330
17
100
AcDbEntity
  8
visible
100
AcDbLine
 10
-19.999999953413408
 20
15.281156276651823
 30
0.0
 11
-24.499999951086608
 21
15.281156276648893
 31
0.0
  0
SPLINE
  5
2A5
330
17
100
AcDbEntity
  8
visible
100
AcDbSpline
 70
0
 71
3
 72
29
 73
25
 74
0
 40
0.0
 40
0.0
 40
0.0
 40
0.0
 40
0.11100811312825165
 40
0.11100811312825165
 40
0.11100811312825165
 40
0.2220162262565033
 40
0.2220162262565033
 40
0.2220162262565033
 40
0.4449594343587417
 40
0.4449594343587417
 40
0.4449594343587417
 40
0.5559675474869934
 40
0.5559675474869934
 40
0.5559675474869934
 40
0.666975660615245
 40
0.666975660615245
 40
0.666975660615245
 40
0.7779837737434967
 40
0.7779837737434967
 40
0.7779837737434967
 40
0.8889918868717483
 40
0.8889918868717483
 40
0.8889918868717483
 40
1.0
 40
1.0
 40
1.0
 40
1.0
 10
-24.499999951086608
 20
15.281156276648886
 30
0.0
 10
-24.813268943812755
 20
15.281169219416066
 30
0.0
 10
-25.12393808768822
 20
15.279528510058224
 30
0.0
 10
-25.34956203790562
 20
15.276635921534677
 30
0.0
 10
-25.393317677815073
 20
15.276078932369733
 30
0.0
 10
-25.433904910878113
 20
15.27547840369866
 30
0.0
 10
-25.471323737094707
 20
15.274834335521437
 30
0.0
 10
-25.54616818940831
 20
15.273564655775834
 30
0.0
 10
-25.607896558073982
 20
15.272073563426378
 30
0.0
 10
-25.656508843091675
 20
15.270361058473032
 30
0.0
 10
-25.680210896459343
 20
15.269234853367825
 30
0.0
 10
-25.703912949826993
 20
15.268108648262622
 30
0.0
 10
-25.727615003194664
 20
15.266982443157417
 30
0.0
 10
-25.755984924807088
 20
15.26652931656428
 30
0.0
 10
-25.801264997379352
 20
15.260584564367552
 30
0.0
 10
-25.863455220911455
 20
15.249148186567226
 30
0.0
 10
-25.916708534583933
 20
15.237971755842011
 30
0.0
 10
-25.9691304947415
 20
15.221145959122184
 30
0.0
 10
-26.020721101384147
 20
15.19867079640774
 30
0.0
 10
-26.065043045643733
 20
15.179232975027103
 30
0.0
 10
-26.107296530066833
 20
15.155954925448864
 30
0.0
 10
-26.1474815546534
 20
15.128836647673012
 30
0.0
 10
-26.365254986158764
 20
14.984167420179462
 30
0.0
 10
-26.501972267067828
 20
14.727033130257183
 30
0.0
 10
-26.49999995102602
 20
14.465541982966542
 30
0.0
  0
ARC
  5
2A6
330
17
100
AcDbEntity
  8
visible
100
AcDbCircle
 10
-23.499999948773773
 20
18.67959960911685
 30
0.0
 40
4.0
100
AcDbArc
 50
180.00000000003732
 51
238.41272579597717
  0
ARC
  5
2A7
330
17
100
AcDbEntity
  8
visible
100
AcDbCircle
 10
23.500000051226227
 20
18.67959960914746
 30
0.0
 40
4.0
100
AcDbArc
 50
301.58727407740724
 51
360.0000000000373
  0
LINE
  5
2A8
330
17
100
AcDbEntity
  8
visible
100
AcDbLine
 10
-23.49999995112873
 20
65.28760378784463
 30
0.0
 11
-12.792537447653752
 21
65.28760378785161
 31
0.0
  0
LINE
  5
2A9
330
17
100
AcDbEntity
  8
visible
100
AcDbLine
 10
12.792544095895089
 20
65.28760378786828
 30
0.0
 11
23.50000004887127
 21
65.28760378787524
 31
0.0
  0
ARC
  5
2AA
330
17
100
AcDbEntity
  8
visible
100
AcDbCircle
 10
-23.499999951126124
 20
61.287603787844674
 30
0.0
 40
4.0
100
AcDbArc
 50
90.0000000000373
 51
180.0000000000373
  0
ARC
  5
2AB
330
17
100
AcDbEntity
  8
visible
100
AcDbCircle
 10
23.500000048873876
 20
61.287603787875284
 30
0.0
 40
4.0
100
AcDbArc
 50
3.732698974165583e-11
 51
90.0000000000373
  0
LINE
  5
2AC
330
17
100
AcDbEntity
  8
visible
100
AcDbLine
 10
-29.499999949942456
 20
28.483601698476846
 30
0.0
 11
-27.499999949942456
 21
28.48360169847815
 31
0.0
  0
LINE
  5
2AD
330
17
100
AcDbEntity
  8
visible
100
AcDbLine
 10
-29.49999994995744
 20
51.483601698476846
 30
0.0
 11
-27.49999994995744
 21
51.48360169847815
 31
0.0
  0
ENDSEC
  0
SECTION
  2
OBJECTS
  0
DICTIONARY
  5
A
330
0
100
AcDbDictionary
281
1
  3
ACAD_COLOR
350
B
  3
ACAD_GROUP
350
C
  3
ACAD_LAYOUT
350
D
  3
ACAD_MATERIAL
350
E
  3
ACAD_MLEADERSTYLE
350
F
  3
ACAD_MLINESTYLE
350
10
  3
ACAD_PLOTSETTINGS
350
11
  3
ACAD_PLOTSTYLENAME
350
12
  3
ACAD_SCALELIST
350
14
  3
ACAD_TABLESTYLE
350
15
  3
ACAD_VISUALSTYLE
350
16
  3
EZDXF_META
350
2D
  0
DICTIONARY
  5
B
330
A
100
AcDbDictionary
281
1
  0
DICTIONARY
  5
C
330
A
100
AcDbDictionary
281
1
  0
DICTIONARY
  5
D
330
A
100
AcDbDictionary
281
1
  3
Model
350
1A
  3
Layout1
350
1E
  0
DICTIONARY
  5
E
330
A
100
AcDbDictionary
281
1
  3
ByBlock
350
1F
  3
ByLayer
350
20
  3
Global
350
21
  0
DICTIONARY
  5
F
330
A
100
AcDbDictionary
281
1
  3
Standard
350
2C
  0
DICTIONARY
  5
10
330
A
100
AcDbDictionary
281
1
  3
Standard
350
22
  0
DICTIONARY
  5
11
330
A
100
AcDbDictionary
281
1
  0
ACDBDICTIONARYWDFLT
  5
12
330
A
100
AcDbDictionary
281
1
  3
Normal
350
13
100
AcDbDictionaryWithDefault
340
13
  0
ACDBPLACEHOLDER
  5
13
330
12
  0
DICTIONARY
  5
14
330
A
100
AcDbDictionary
281
1
  0
DICTIONARY
  5
15
330
A
100
AcDbDictionary
281
1
  0
DICTIONARY
  5
16
330
A
100
AcDbDictionary
281
1
  0
LAYOUT
  5
1A
330
D
100
AcDbPlotSettings
  1

  4
A3
  6

 40
7.5
 41
20.0
 42
7.5
 43
20.0
 44
420.0
 45
297.0
 46
0.0
 47
0.0
 48
0.0
 49
0.0
140
0.0
141
0.0
142
1.0
143
1.0
 70
1024
 72
1
 73
0
 74
5
  7

 75
16
 76
0
 77
2
 78
300
147
1.0
148
0.0
149
0.0
100
AcDbLayout
  1
Model
 70
1
 71
0
 10
0.0
 20
0.0
 11
420.0
 21
297.0
 12
0.0
 22
0.0
 32
0.0
 14
1e+20
 24
1e+20
 34
1e+20
 15
-1e+20
 25
-1e+20
 35
-1e+20
146
0.0
 13
0.0
 23
0.0
 33
0.0
 16
1.0
 26
0.0
 36
0.0
 17
0.0
 27
1.0
 37
0.0
 76
1
330
17
  0
LAYOUT
  5
1E
330
D
100
AcDbPlotSettings
  1

  4
A3
  6

 40
7.5
 41
20.0
 42
7.5
 43
20.0
 44
420.0
 45
297.0
 46
0.0
 47
0.0
 48
0.0
 49
0.0
140
0.0
141
0.0
142
1.0
143
1.0
 70
0
 72
1
 73
0
 74
5
  7

 75
16
 76
0
 77
2
 78
300
147
1.0
148
0.0
149
0.0
100
AcDbLayout
  1
Layout1
 70
1
 71
1
 10
0.0
 20
0.0
 11
420.0
 21
297.0
 12
0.0
 22
0.0
 32
0.0
 14
1e+20
 24
1e+20
 34
1e+20
 15
-1e+20
 25
-1e+20
 35
-1e+20
146
0.0
 13
0.0
 23
0.0
 33
0.0
 16
1.0
 26
0.0
 36
0.0
 17
0.0
 27
1.0
 37
0.0
 76
1
330
1B
  0
MATERIAL
  5
1F
102
{ACAD_REACTORS
330
E
102
}
330
E
100
AcDbMaterial
  1
ByBlock
  2

 70
0
 40
1.0
 71
1
 41
1.0
 91
-1023410177
 42
1.0
 72
1
  3

 73
1
 74
1
 75
1
 44
0.5
 73
0
 45
1.0
 46
1.0
 77
1
  4

 78
1
 79
1
170
1
 48
1.0
171
1
  6

172
1
173
1
174
1
140
1.0
141
1.0
175
1
  7

176
1
177
1
178
1
143
1.0
179
1
  8

270
1
271
1
272
1
145
1.0
146
1.0
273
1
  9

274
1
275
1
276
1
 42
1.0
 72
1
  3

 73
1
 74
1
 75
1
 94
63
  0
MATERIAL
  5
20
102
{ACAD_REACTORS
330
E
102
}
330
E
100
AcDbMaterial
  1
ByLayer
  2

 70
0
 40
1.0
 71
1
 41
1.0
 91
-1023410177
 42
1.0
 72
1
  3

 73
1
 74
1
 75
1
 44
0.5
 73
0
 45
1.0
 46
1.0
 77
1
  4

 78
1
 79
1
170
1
 48
1.0
171
1
  6

172
1
173
1
174
1
140
1.0
141
1.0
175
1
  7

176
1
177
1
178
1
143
1.0
179
1
  8

270
1
271
1
272
1
145
1.0
146
1.0
273
1
  9

274
1
275
1
276
1
 42
1.0
 72
1
  3

 73
1
 74
1
 75
1
 94
63
  0
MATERIAL
  5
21
102
{ACAD_REACTORS
330
E
102
}
330
E
100
AcDbMaterial
  1
Global
  2

 70
0
 40
1.0
 71
1
 41
1.0
 91
-1023410177
 42
1.0
 72
1
  3

 73
1
 74
1
 75
1
 44
0.5
 73
0
 45
1.0
 46
1.0
 77
1
  4

 78
1
 79
1
170
1
 48
1.0
171
1
  6

172
1
173
1
174
1
140
1.0
141
1.0
175
1
  7

176
1
177
1
178
1
143
1.0
179
1
  8

270
1
271
1
272
1
145
1.0
146
1.0
273
1
  9

274
1
275
1
276
1
 42
1.0
 72
1
  3

 73
1
 74
1
 75
1
 94
63
  0
MLINESTYLE
  5
22
102
{ACAD_REACTORS
330
10
102
}
330
10
100
AcDbMlineStyle
  2
Standard
 70
0
  3

 62
256
 51
90.0
 52
90.0
 71
2
 49
0.5
 62
256
  6
BYLAYER
 49
-0.5
 62
256
  6
BYLAYER
  0
MLEADERSTYLE
  5
2C
102
{ACAD_REACTORS
330
F
102
}
330
F
100
AcDbMLeaderStyle
179
2
170
2
171
1
172
0
 90
2
 40
0.0
 41
0.0
173
1
 91
-1056964608
 92
-2
290
1
 42
2.0
291
1
 43
8.0
  3
Standard
 44
4.0
300

342
29
174
1
175
1
176
0
178
1
 93
-1056964608
 45
4.0
292
0
297
0
 46
4.0
 94
-1056964608
 47
1.0
 49
1.0
140
1.0
294
1
141
0.0
177
0
142
1.0
295
0
296
0
143
3.75
271
0
272
9
273
9
  0
DICTIONARY
  5
2D
330
A
100
AcDbDictionary
280
1
281
1
  3
CREATED_BY_EZDXF
350
2E
  3
WRITTEN_BY_EZDXF
350
2B1
  0
DICTIONARYVAR
  5
2E
330
2D
100
DictionaryVariables
280
0
  1
1.4.4 @ 2026-10-01T20:36:10.445858+00:00
  0
DICTIONARYVAR
  5
2B1
330
2D
100
DictionaryVariables
280
0
  1
1.4.4 @ 2026-10-01T20:36:10.559360+00:00
  0
ENDSEC
  0
EOF
