  0
SECTION
  2
HEADER
  9
$ACADVER
  1
AC1027
  9
$ACADMAINTVER
 70
105
  9
$DWGCODEPAGE
  3
ANSI_1252
  9
$LASTSAVEDBY
  1
ezdxf
  9
$REQUIREDVERSIONS
160
0
  9
$INSBASE
 10
0.0
 20
0.0
 30
0.0
  9
$EXTMIN
 10
1e+20
 20
1e+20
 30
1e+20
  9
$EXTMAX
 10
-1e+20
 20
-1e+20
 30
-1e+20
  9
$LIMMIN
 10
0.0
 20
0.0
  9
$LIMMAX
 10
420.0
 20
297.0
  9
$ORTHOMODE
 70
0
  9
$REGENMODE
 70
1
  9
$FILLMODE
 70
1
  9
$QTEXTMODE
 70
0
  9
$MIRRTEXT
 70
1
  9
$LTSCALE
 40
1.0
  9
$ATTMODE
 70
1
  9
$TEXTSIZE
 40
2.5
  9
$TRACEWID
 40
1.0
  9
$TEXTSTYLE
  7
Standard
  9
$CLAYER
  8
0
  9
$CELTYPE
  6
ByLayer
  9
$CECOLOR
 62
256
  9
$CELTSCALE
 40
1.0
  9
$DISPSILH
 70
0
  9
$DIMSCALE
 40
1.0
  9
$DIMASZ
 40
2.5
  9
$DIMEXO
 40
0.625
  9
$DIMDLI
 40
3.75
  9
$DIMRND
 40
0.0
  9
$DIMDLE
 40
0.0
  9
$DIMEXE
 40
1.25
  9
$DIMTP
 40
0.0
  9
$DIMTM
 40
0.0
  9
$DIMTXT
 40
2.5
  9
$DIMCEN
 40
2.5
  9
$DIMTSZ
 40
0.0
  9
$DIMTOL
 70
0
  9
$DIMLIM
 70
0
  9
$DIMTIH
 70
0
  9
$DIMTOH
 70
0
  9
$DIMSE1
 70
0
  9
$DIMSE2
 70
0
  9
$DIMTAD
 70
1
  9
$DIMZIN
 70
8
  9
$DIMBLK
  1

  9
$DIMASO
 70
1
  9
$DIMSHO
 70
1
  9
$DIMPOST
  1

  9
$DIMAPOST
  1

  9
$DIMALT
 70
0
  9
$DIMALTD
 70
3
  9
$DIMALTF
 40
0.03937007874
  9
$DIMLFAC
 40
1.0
  9
$DIMTOFL
 70
1
  9
$DIMTVP
 40
0.0
  9
$DIMTIX
 70
0
  9
$DIMSOXD
 70
0
  9
$DIMSAH
 70
0
  9
$DIMBLK1
  1

  9
$DIMBLK2
  1

  9
$DIMSTYLE
  2
ISO-25
  9
$DIMCLRD
 70
0
  9
$DIMCLRE
 70
0
  9
$DIMCLRT
 70
0
  9
$DIMTFAC
 40
1.0
  9
$DIMGAP
 40
0.625
  9
$DIMJUST
 70
0
  9
$DIMSD1
 70
0
  9
$DIMSD2
 70
0
  9
$DIMTOLJ
 70
0
  9
$DIMTZIN
 70
8
  9
$DIMALTZ
 70
0
  9
$DIMALTTZ
 70
0
  9
$DIMUPT
 70
0
  9
$DIMDEC
 70
2
  9
$DIMTDEC
 70
2
  9
$DIMALTU
 70
2
  9
$DIMALTTD
 70
3
  9
$DIMTXSTY
  7
Standard
  9
$DIMAUNIT
 70
0
  9
$DIMADEC
 70
0
  9
$DIMALTRND
 40
0.0
  9
$DIMAZIN
 70
0
  9
$DIMDSEP
 70
44
  9
$DIMATFIT
 70
3
  9
$DIMFRAC
 70
0
  9
$DIMLDRBLK
  1

  9
$DIMLUNIT
 70
2
  9
$DIMLWD
 70
-2
  9
$DIMLWE
 70
-2
  9
$DIMTMOVE
 70
0
  9
$DIMFXL
 40
1.0
  9
$DIMFXLON
 70
0
  9
$DIMJOGANG
 40
0.785398163397
  9
$DIMTFILL
 70
0
  9
$DIMTFILLCLR
 70
0
  9
$DIMARCSYM
 70
0
  9
$DIMLTYPE
  6

  9
$DIMLTEX1
  6

  9
$DIMLTEX2
  6

  9
$DIMTXTDIRECTION
 70
0
  9
$LUNITS
 70
2
  9
$LUPREC
 70
4
  9
$SKETCHINC
 40
1.0
  9
$FILLETRAD
 40
10.0
  9
$AUNITS
 70
0
  9
$AUPREC
 70
2
  9
$MENU
  1
.
  9
$ELEVATION
 40
0.0
  9
$PELEVATION
 40
0.0
  9
$THICKNESS
 40
0.0
  9
$LIMCHECK
 70
0
  9
$CHAMFERA
 40
0.0
  9
$CHAMFERB
 40
0.0
  9
$CHAMFERC
 40
0.0
  9
$CHAMFERD
 40
0.0
  9
$SKPOLY
 70
0
  9
$TDCREATE
 40
2461317.6893287036
  9
$TDUCREATE
 40
2458532.153996898
  9
$TDUPDATE
 40
2461317.6893287036
  9
$TDUUPDATE
 40
2458532.1544311
  9
$TDINDWG
 40
0.0
  9
$TDUSRTIMER
 40
0.0
  9
$USRTIMER
 70
1
  9
$ANGBASE
 50
0.0
  9
$ANGDIR
 70
0
  9
$PDMODE
 70
0
  9
$PDSIZE
 40
0.0
  9
$PLINEWID
 40
0.0
  9
$SPLFRAME
 70
0
  9
$SPLINETYPE
 70
6
  9
$SPLINESEGS
 70
8
  9
$HANDSEED
  5
2EB
  9
$SURFTAB1
 70
6
  9
$SURFTAB2
 70
6
  9
$SURFTYPE
 70
6
  9
$SURFU
 70
6
  9
$SURFV
 70
6
  9
$UCSBASE
  2

  9
$UCSNAME
  2

  9
$UCSORG
 10
0.0
 20
0.0
 30
0.0
  9
$UCSXDIR
 10
1.0
 20
0.0
 30
0.0
  9
$UCSYDIR
 10
0.0
 20
1.0
 30
0.0
  9
$UCSORTHOREF
  2

  9
$UCSORTHOVIEW
 70
0
  9
$UCSORGTOP
 10
0.0
 20
0.0
 30
0.0
  9
$UCSORGBOTTOM
 10
0.0
 20
0.0
 30
0.0
  9
$UCSORGLEFT
 10
0.0
 20
0.0
 30
0.0
  9
$UCSORGRIGHT
 10
0.0
 20
0.0
 30
0.0
  9
$UCSORGFRONT
 10
0.0
 20
0.0
 30
0.0
  9
$UCSORGBACK
 10
0.0
 20
0.0
 30
0.0
  9
$PUCSBASE
  2

  9
$PUCSNAME
  2

  9
$PUCSORG
 10
0.0
 20
0.0
 30
0.0
  9
$PUCSXDIR
 10
1.0
 20
0.0
 30
0.0
  9
$PUCSYDIR
 10
0.0
 20
1.0
 30
0.0
  9
$PUCSORTHOREF
  2

  9
$PUCSORTHOVIEW
 70
0
  9
$PUCSORGTOP
 10
0.0
 20
0.0
 30
0.0
  9
$PUCSORGBOTTOM
 10
0.0
 20
0.0
 30
0.0
  9
$PUCSORGLEFT
 10
0.0
 20
0.0
 30
0.0
  9
$PUCSORGRIGHT
 10
0.0
 20
0.0
 30
0.0
  9
$PUCSORGFRONT
 10
0.0
 20
0.0
 30
0.0
  9
$PUCSORGBACK
 10
0.0
 20
0.0
 30
0.0
  9
$USERI1
 70
0
  9
$USERI2
 70
0
  9
$USERI3
 70
0
  9
$USERI4
 70
0
  9
$USERI5
 70
0
  9
$USERR1
 40
0.0
  9
$USERR2
 40
0.0
  9
$USERR3
 40
0.0
  9
$USERR4
 40
0.0
  9
$USERR5
 40
0.0
  9
$WORLDVIEW
 70
1
  9
$SHADEDGE
 70
3
  9
$SHADEDIF
 70
70
  9
$TILEMODE
 70
1
  9
$MAXACTVP
 70
64
  9
$PINSBASE
 10
0.0
 20
0.0
 30
0.0
  9
$PLIMCHECK
 70
0
  9
$PEXTMIN
 10
1e+20
 20
1e+20
 30
1e+20
  9
$PEXTMAX
 10
-1e+20
 20
-1e+20
 30
-1e+20
  9
$PLIMMIN
 10
0.0
 20
0.0
  9
$PLIMMAX
 10
420.0
 20
297.0
  9
$UNITMODE
 70
0
  9
$VISRETAIN
 70
1
  9
$PLINEGEN
 70
0
  9
$PSLTSCALE
 70
1
  9
$TREEDEPTH
 70
3020
  9
$CMLSTYLE
  2
Standard
  9
$CMLJUST
 70
0
  9
$CMLSCALE
 40
20.0
  9
$PROXYGRAPHICS
 70
1
  9
$MEASUREMENT
 70
1
  9
$CELWEIGHT
370
-1
  9
$ENDCAPS
280
0
  9
$JOINSTYLE
280
0
  9
$LWDISPLAY
290
0
  9
$INSUNITS
 70
4
  9
$HYPERLINKBASE
  1

  9
$STYLESHEET
  1

  9
$XEDIT
290
1
  9
$CEPSNTYPE
380
0
  9
$PSTYLEMODE
290
1
  9
$FINGERPRINTGUID
  2
{0E8918F1-9876-4D57-B4E3-4828A34A1783}
  9
$VERSIONGUID
  2
{93075A19-2822-426B-AD47-5F96E5CA53E4}
  9
$EXTNAMES
290
1
  9
$PSVPSCALE
 40
0.0
  9
$OLESTARTUP
290
0
  9
$SORTENTS
280
127
  9
$INDEXCTL
280
0
  9
$HIDETEXT
280
1
  9
$XCLIPFRAME
280
1
  9
$HALOGAP
280
0
  9
$OBSCOLOR
 70
257
  9
$OBSLTYPE
280
0
  9
$INTERSECTIONDISPLAY
280
0
  9
$INTERSECTIONCOLOR
 70
257
  9
$DIMASSOC
280
2
  9
$PROJECTNAME
  1

  9
$CAMERADISPLAY
290
0
  9
$LENSLENGTH
 40
50.0
  9
$CAMERAHEIGHT
 40
0.0
  9
$STEPSPERSEC
 40
24.0
  9
$STEPSIZE
 40
100.0
  9
$3DDWFPREC
 40
2.0
  9
$PSOLWIDTH
 40
0.005
  9
$PSOLHEIGHT
 40
0.08
  9
$LOFTANG1
 40
1.570796326795
  9
$LOFTANG2
 40
1.570796326795
  9
$LOFTMAG1
 40
0.0
  9
$LOFTMAG2
 40
0.0
  9
$LOFTPARAM
 70
7
  9
$LOFTNORMALS
280
1
  9
$LATITUDE
 40
37.795
  9
$LONGITUDE
 40
-122.394
  9
$NORTHDIRECTION
 40
0.0
  9
$TIMEZONE
 70
-8000
  9
$LIGHTGLYPHDISPLAY
280
1
  9
$TILEMODELIGHTSYNCH
280
1
  9
$CMATERIAL
347
20
  9
$SOLIDHIST
280
0
  9
$SHOWHIST
280
1
  9
$DWFFRAME
280
2
  9
$DGNFRAME
280
2
  9
$REALWORLDSCALE
290
1
  9
$INTERFERECOLOR
 62
256
  9
$CSHADOW
280
0
  9
$SHADOWPLANELOCATION
 40
0.0
  0
ENDSEC
  0
SECTION
  2
CLASSES
  0
CLASS
  1
ACDBDICTIONARYWDFLT
  2
AcDbDictionaryWithDefault
  3
ObjectDBX Classes
 90
0
 91
0
280
0
281
0
  0
CLASS
  1
SUN
  2
AcDbSun
  3
SCENEOE
 90
1153
 91
0
280
0
281
0
  0
CLASS
  1
VISUALSTYLE
  2
AcDbVisualStyle
  3
ObjectDBX Classes
 90
4095
 91
0
280
0
281
0
  0
CLASS
  1
MATERIAL
  2
AcDbMaterial
  3
ObjectDBX Classes
 90
1153
 91
0
280
0
281
0
  0
CLASS
  1
SCALE
  2
AcDbScale
  3
ObjectDBX Classes
 90
1153
 91
0
280
0
281
0
  0
CLASS
  1
TABLESTYLE
  2
AcDbTableStyle
  3
ObjectDBX Classes
 90
4095
 91
0
280
0
281
0
  0
CLASS
  1
MLEADERSTYLE
  2
AcDbMLeaderStyle
  3
ACDB_MLEADERSTYLE_CLASS
 90
4095
 91
0
280
0
281
0
  0
CLASS
  1
DICTIONARYVAR
  2
AcDbDictionaryVar
  3
ObjectDBX Classes
 90
0
 91
0
280
0
281
0
  0
CLASS
  1
CELLSTYLEMAP
  2
AcDbCellStyleMap
  3
ObjectDBX Classes
 90
1152
 91
0
280
0
281
0
  0
CLASS
  1
MENTALRAYRENDERSETTINGS
  2
AcDbMentalRayRenderSettings
  3
SCENEOE
 90
1024
 91
0
280
0
281
0
  0
CLASS
  1
ACDBDETAILVIEWSTYLE
  2
AcDbDetailViewStyle
  3
ObjectDBX Classes
 90
1025
 91
0
280
0
281
0
  0
CLASS
  1
ACDBSECTIONVIEWSTYLE
  2
AcDbSectionViewStyle
  3
ObjectDBX Classes
 90
1025
 91
0
280
0
281
0
  0
CLASS
  1
RASTERVARIABLES
  2
AcDbRasterVariables
  3
ISM
 90
0
 91
0
280
0
281
0
  0
CLASS
  1
ACDBPLACEHOLDER
  2
AcDbPlaceHolder
  3
ObjectDBX Classes
 90
0
 91
0
280
0
281
0
  0
CLASS
  1
LAYOUT
  2
AcDbLayout
  3
ObjectDBX Classes
 90
0
 91
0
280
0
281
0
  0
ENDSEC
  0
SECTION
  2
TABLES
  0
TABLE
  2
VPORT
  5
8
330
0
100
AcDbSymbolTable
 70
1
  0
VPORT
  5
2E7
330
8
100
AcDbSymbolTableRecord
100
AcDbViewportTableRecord
  2
*Active
 70
0
 10
0.0
 20
0.0
 11
1.0
 21
1.0
 12
-3.7056565882099903
 22
-6.283253496782066
 13
0.0
 23
0.0
 14
0.5
 24
0.5
 15
0.5
 25
0.5
 16
0.0
 26
0.0
 36
1.0
 17
0.0
 27
0.0
 37
0.0
 40
153.68375760580716
 41
1.34
 42
50.0
 43
0.0
 44
0.0
 50
0.0
 51
0.0
 71
0
 72
1000
 73
1
 74
3
 75
0
 76
0
 77
0
 78
0
281
0
 65
1
110
0.0
120
0.0
130
0.0
111
1.0
121
0.0
131
0.0
112
0.0
122
1.0
132
0.0
 79
0
146
0.0
  0
ENDTAB
  0
TABLE
  2
LTYPE
  5
2
330
0
100
AcDbSymbolTable
 70
3
  0
LTYPE
  5
24
330
2
100
AcDbSymbolTableRecord
100
AcDbLinetypeTableRecord
  2
ByBlock
 70
0
  3

 72
65
 73
0
 40
0.0
  0
LTYPE
  5
25
330
2
100
AcDbSymbolTableRecord
100
AcDbLinetypeTableRecord
  2
ByLayer
 70
0
  3

 72
65
 73
0
 40
0.0
  0
LTYPE
  5
26
330
2
100
AcDbSymbolTableRecord
100
AcDbLinetypeTableRecord
  2
Continuous
 70
0
  3

 72
65
 73
0
 40
0.0
  0
ENDTAB
  0
TABLE
  2
LAYER
  5
1
330
0
100
AcDbSymbolTable
 70
3
  0
LAYER
  5
27
330
1
100
AcDbSymbolTableRecord
100
AcDbLayerTableRecord
  2
0
 70
0
 62
7
  6
Continuous
370
-3
390
13
347
21
  0
LAYER
  5
28
330
1
100
AcDbSymbolTableRecord
100
AcDbLayerTableRecord
  2
Defpoints
 70
0
 62
7
  6
Continuous
290
0
370
-3
390
13
347
21
  0
LAYER
  5
2F
330
1
100
AcDbSymbolTableRecord
100
AcDbLayerTableRecord
  2
visible
 70
0
 62
7
  6
Continuous
370
-3
390
13
347
21
  0
ENDTAB
  0
TABLE
  2
STYLE
  5
5
330
0
100
AcDbSymbolTable
 70
1
  0
STYLE
  5
29
330
5
100
AcDbSymbolTableRecord
100
AcDbTextStyleTableRecord
  2
Standard
 70
0
 40
0.0
 41
1.0
 50
0.0
 71
0
 42
2.5
  3
txt
  4

  0
ENDTAB
  0
TABLE
  2
VIEW
  5
7
330
0
100
AcDbSymbolTable
 70
0
  0
ENDTAB
  0
TABLE
  2
UCS
  5
6
330
0
100
AcDbSymbolTable
 70
0
  0
ENDTAB
  0
TABLE
  2
APPID
  5
3
330
0
100
AcDbSymbolTable
 70
3
  0
APPID
  5
2A
330
3
100
AcDbSymbolTableRecord
100
AcDbRegAppTableRecord
  2
ACAD
 70
0
  0
APPID
  5
2E8
330
3
100
AcDbSymbolTableRecord
100
AcDbRegAppTableRecord
  2
HATCHBACKGROUNDCOLOR
 70
0
  0
APPID
  5
2E9
330
3
100
AcDbSymbolTableRecord
100
AcDbRegAppTableRecord
  2
EZDXF
 70
0
  0
ENDTAB
  0
TABLE
  2
DIMSTYLE
  5
4
330
0
100
AcDbSymbolTable
 70
1
100
AcDbDimStyleTable
  0
DIMSTYLE
105
2B
330
4
100
AcDbSymbolTableRecord
100
AcDbDimStyleTableRecord
  2
Standard
 70
0
 40
1.0
 41
2.5
 42
0.625
 43
3.75
 44
1.25
 45
0.0
 46
0.0
 47
0.0
 48
0.0
 49
2.5
140
2.5
141
2.5
142
0.0
143
0.03937007874
144
1.0
145
0.0
146
1.0
147
0.625
148
0.0
 69
0
 70
0
 71
0
 72
0
 73
0
 74
0
 75
0
 76
0
 77
1
 78
8
 79
3
170
0
171
3
172
1
173
0
174
0
175
0
176
0
177
0
178
0
179
2
271
2
272
2
273
2
274
3
275
0
276
0
277
2
278
44
279
0
280
0
281
0
282
0
283
0
284
8
285
0
286
0
288
0
289
3
290
0
371
-2
372
-2
  0
ENDTAB
  0
TABLE
  2
BLOCK_RECORD
  5
9
330
0
100
AcDbSymbolTable
 70
2
  0
BLOCK_RECORD
  5
17
330
9
100
AcDbSymbolTableRecord
100
AcDbBlockTableRecord
  2
*Model_Space
340
1A
 70
0
280
1
281
0
  0
BLOCK_RECORD
  5
1B
330
9
100
AcDbSymbolTableRecord
100
AcDbBlockTableRecord
  2
*Paper_Space
340
1E
 70
0
280
1
281
0
  0
ENDTAB
  0
ENDSEC
  0
SECTION
  2
BLOCKS
  0
BLOCK
  5
18
330
17
100
AcDbEntity
  8
0
100
AcDbBlockBegin
  2
*Model_Space
 70
0
 10
0.0
 20
0.0
 30
0.0
  3
*Model_Space
  1

  0
ENDBLK
  5
19
330
17
100
AcDbEntity
  8
0
100
AcDbBlockEnd
  0
BLOCK
  5
1C
330
1B
100
AcDbEntity
  8
0
100
AcDbBlockBegin
  2
*Paper_Space
 70
0
 10
0.0
 20
0.0
 30
0.0
  3
*Paper_Space
  1

  0
ENDBLK
  5
1D
330
1B
100
AcDbEntity
  8
0
100
AcDbBlockEnd
  0
ENDSEC
  0
SECTION
  2
ENTITIES
  0
ELLIPSE
  5
30
330
17
100
AcDbEntity
  8
visible
100
AcDbEllipse
 10
-51.38784997037623
 20
-33.40892329438272
 30
0.0
 11
12.0
 21
3.6292099870939615e-16
 31
0.0
 40
0.39718302370189007
 41
3.0258030423351157
 42
3.141592653589793
  0
ELLIPSE
  5
31
330
17
100
AcDbEntity
  8
visible
100
AcDbEllipse
 10
-51.38784997037623
 20
-33.40892329438272
 30
0.0
 11
12.0
 21
3.6292099870939615e-16
 31
0.0
 40
0.39718302370189007
 41
3.141592653589793
 42
4.131238191904857
  0
ELLIPSE
  5
32
330
17
100
AcDbEntity
  8
visible
100
AcDbEllipse
 10
-51.38784997037623
 20
-38.45649011235665
 30
0.0
 11
12.0
 21
3.6292099870939615e-16
 31
0.0
 40
0.39718302370189007
 41
3.4739740386593407
 42
4.131238191904857
  0
LINE
  5
33
330
17
100
AcDbEntity
  8
visible
100
AcDbLine
 10
-62.7310658567203
 20
-51.02454917949197
 30
0.0
 11
-62.7310658567203
 21
-40.0116761220943
 31
0.0
  0
ELLIPSE
  5
34
330
17
100
AcDbEntity
  8
visible
100
AcDbEllipse
 10
-51.38784997037623
 20
-49.46936316975432
 30
0.0
 11
12.0
 21
3.6292099870939615e-16
 31
0.0
 40
0.39718302370189007
 41
3.4739740386593407
 42
4.131238191904857
  0
ELLIPSE
  5
35
330
17
100
AcDbEntity
  8
visible
100
AcDbEllipse
 10
-51.38784997037623
 20
-33.40892329438272
 30
0.0
 11
-11.389897948556635
 21
-3.4446942822402306e-16
 31
0.0
 40
0.39718302370189007
 41
-6.178786755558971
 42
-5.293539768864522
  0
LINE
  5
36
330
17
100
AcDbEntity
  8
visible
100
AcDbLine
 10
5.882442809808872
 20
-53.76176635531552
 30
0.0
 11
-57.64074636811749
 21
-37.190119487901455
 31
0.0
  0
ELLIPSE
  5
37
330
17
100
AcDbEntity
  8
visible
100
AcDbEllipse
 10
12.13533920755014
 20
-49.98057016179678
 30
0.0
 11
-11.389897948556635
 21
-3.4446942822402306e-16
 31
0.0
 40
0.39718302370189007
 41
-5.293539768864522
 42
-3.7227434420696257
  0
LINE
  5
38
330
17
100
AcDbEntity
  8
visible
100
AcDbLine
 10
53.49657155847519
 20
-33.20938713801465
 30
0.0
 11
21.655373972069064
 21
-52.464114459946316
 31
0.0
  0
ELLIPSE
  5
39
330
17
100
AcDbEntity
  8
visible
100
AcDbEllipse
 10
43.97653679395626
 20
-30.725842839865116
 30
0.0
 11
-11.389897948556635
 21
-3.4446942822402306e-16
 31
0.0
 40
0.39718302370189007
 41
-3.7227434420696253
 42
-3.2459912052104074
  0
ELLIPSE
  5
3A
330
17
100
AcDbEntity
  8
visible
100
AcDbEllipse
 10
43.97653679395625
 20
-30.725842839865116
 30
0.0
 11
12.0
 21
3.6292099870939615e-16
 31
0.0
 40
0.39718302370189007
 41
5.702034518699754
 42
6.283185307179586
  0
ELLIPSE
  5
3B
330
17
100
AcDbEntity
  8
visible
100
AcDbEllipse
 10
43.97653679395625
 20
-30.725842839865116
 30
0.0
 11
12.0
 21
3.6292099870939615e-16
 31
0.0
 40
0.39718302370189007
 41
0.0
 42
0.11578961125467735
  0
LINE
  5
3C
330
17
100
AcDbEntity
  8
visible
100
AcDbLine
 10
54.0065140325762
 20
-33.342418661035765
 30
0.0
 11
22.16531644617009
 21
-52.597145982967426
 31
0.0
  0
ELLIPSE
  5
3D
330
17
100
AcDbEntity
  8
visible
100
AcDbEllipse
 10
12.135339207550134
 20
-49.98057016179678
 30
0.0
 11
12.0
 21
3.6292099870939615e-16
 31
0.0
 40
0.39718302370189007
 41
4.131238191904857
 42
5.702034518699754
  0
LINE
  5
3E
330
17
100
AcDbEntity
  8
visible
100
AcDbLine
 10
-57.9756839537706
 20
-37.392659981678925
 30
0.0
 11
5.5475052241557705
 21
-53.96430684909299
 31
0.0
  0
LINE
  5
3F
330
17
100
AcDbEntity
  8
visible
100
AcDbLine
 10
-57.9756839537706
 20
-53.45309985705052
 30
0.0
 11
-52.960695334460624
 21
-54.76138776763584
 31
0.0
  0
LINE
  5
40
330
17
100
AcDbEntity
  8
visible
100
AcDbLine
 10
-57.9756839537706
 20
-42.44022679965285
 30
0.0
 11
-52.960695334460624
 21
-43.74851471023817
 31
0.0
  0
LINE
  5
41
330
17
100
AcDbEntity
  8
visible
100
AcDbLine
 10
-52.960695334460624
 20
-43.74851471023817
 30
0.0
 11
-52.960695334460624
 21
-54.76138776763584
 31
0.0
  0
LINE
  5
42
330
17
100
AcDbEntity
  8
visible
100
AcDbLine
 10
-45.020296687219826
 20
-58.20945275823731
 30
0.0
 11
-40.84113950446151
 21
-59.29969268372508
 31
0.0
  0
LINE
  5
43
330
17
100
AcDbEntity
  8
visible
100
AcDbLine
 10
-45.020296687219826
 20
-58.20945275823731
 30
0.0
 11
-45.020296687219826
 21
-60.962671022586726
 31
0.0
  0
LINE
  5
44
330
17
100
AcDbEntity
  8
visible
100
AcDbLine
 10
-40.84113950446151
 20
-59.29969268372508
 30
0.0
 11
-40.84113950446151
 21
-62.05291094807449
 31
0.0
  0
LINE
  5
45
330
17
100
AcDbEntity
  8
visible
100
AcDbLine
 10
-45.020296687219826
 20
-60.962671022586726
 30
0.0
 11
-40.84113950446151
 21
-62.05291094807449
 31
0.0
  0
LINE
  5
46
330
17
100
AcDbEntity
  8
visible
100
AcDbLine
 10
-36.6619823217032
 20
-60.38993260921284
 30
0.0
 11
-32.48282513894489
 21
-61.480172534700614
 31
0.0
  0
LINE
  5
47
330
17
100
AcDbEntity
  8
visible
100
AcDbLine
 10
-36.6619823217032
 20
-60.38993260921284
 30
0.0
 11
-36.6619823217032
 21
-63.143150873562256
 31
0.0
  0
LINE
  5
48
330
17
100
AcDbEntity
  8
visible
100
AcDbLine
 10
-32.48282513894488
 20
-61.48017253470061
 30
0.0
 11
-32.48282513894488
 21
-64.23339079905003
 31
0.0
  0
LINE
  5
49
330
17
100
AcDbEntity
  8
visible
100
AcDbLine
 10
-36.6619823217032
 20
-63.143150873562256
 30
0.0
 11
-32.48282513894489
 21
-64.23339079905003
 31
0.0
  0
LINE
  5
4A
330
17
100
AcDbEntity
  8
visible
100
AcDbLine
 10
-31.090724984810677
 20
-49.76417484163695
 30
0.0
 11
-31.090724984810677
 21
-50.432314234889716
 31
0.0
  0
SPLINE
  5
4B
330
17
100
AcDbEntity
  8
visible
100
AcDbSpline
 70
0
 71
2
 72
6
 73
3
 74
0
 40
0.0
 40
0.0
 40
0.0
 40
1.0
 40
1.0
 40
1.0
 10
-31.09072498481068
 20
-49.76417484163696
 30
0.0
 10
-31.38664886641252
 20
-49.46491857061558
 30
0.0
 10
-31.726373159824945
 20
-49.26428007821885
 30
0.0
  0
SPLINE
  5
4C
330
17
100
AcDbEntity
  8
visible
100
AcDbSpline
 70
0
 71
2
 72
6
 73
3
 74
0
 40
0.0
 40
0.0
 40
0.0
 40
1.0
 40
1.0
 40
1.0
 10
-31.712088931172936
 20
-49.8247893119248
 30
0.0
 10
-31.3743134230591
 20
-50.066004937652586
 30
0.0
 10
-31.090724984810677
 20
-50.432314234889716
 30
0.0
  0
SPLINE
  5
4D
330
17
100
AcDbEntity
  8
visible
100
AcDbSpline
 70
0
 71
2
 72
6
 73
3
 74
0
 40
0.0
 40
0.0
 40
0.0
 40
1.0
 40
1.0
 40
1.0
 10
-31.726373159824945
 20
-49.26428007821885
 30
0.0
 10
-32.07124950414168
 20
-49.06200335736673
 30
0.0
 10
-32.44772670675124
 20
-48.964740009913086
 30
0.0
  0
SPLINE
  5
4E
330
17
100
AcDbEntity
  8
visible
100
AcDbSpline
 70
0
 71
2
 72
6
 73
3
 74
0
 40
0.0
 40
0.0
 40
0.0
 40
1.0
 40
1.0
 40
1.0
 10
-32.41344455798643
 20
-49.49439295838617
 30
0.0
 10
-32.04524687227785
 20
-49.58983633636018
 30
0.0
 10
-31.71208893117294
 20
-49.8247893119248
 30
0.0
  0
SPLINE
  5
4F
330
17
100
AcDbEntity
  8
visible
100
AcDbSpline
 70
0
 71
3
 72
8
 73
4
 74
0
 40
0.0
 40
0.0
 40
0.0
 40
0.0
 40
0.838736042111983
 40
0.838736042111983
 40
0.838736042111983
 40
0.838736042111983
 10
-32.44772670675125
 20
-48.964740009913086
 30
0.0
 10
-32.929278909594515
 20
-48.83612654120774
 30
0.0
 10
-33.40872567891923
 20
-48.84374717129178
 30
0.0
 10
-33.77510075213718
 20
-49.06954784744647
 30
0.0
  0
SPLINE
  5
50
330
17
100
AcDbEntity
  8
visible
100
AcDbSpline
 70
0
 71
2
 72
6
 73
3
 74
0
 40
0.0
 40
0.0
 40
0.0
 40
1.0
 40
1.0
 40
1.0
 10
-33.77510075213717
 20
-49.069547847446465
 30
0.0
 10
-33.880756823955025
 20
-49.133555574947806
 30
0.0
 10
-33.97328232678548
 20
-49.21764681721836
 30
0.0
  0
SPLINE
  5
51
330
17
100
AcDbEntity
  8
visible
100
AcDbSpline
 70
0
 71
2
 72
6
 73
3
 74
0
 40
0.0
 40
0.0
 40
0.0
 40
0.18796734690868203
 40
0.18796734690868203
 40
0.18796734690868203
 10
-33.5333280843037
 20
-49.69315265813743
 30
0.0
 10
-33.45762369328696
 20
-49.617134235500984
 30
0.0
 10
-33.367596107815075
 20
-49.56258680878963
 30
0.0
  0
SPLINE
  5
52
330
17
100
AcDbEntity
  8
visible
100
AcDbSpline
 70
0
 71
3
 72
8
 73
4
 74
0
 40
0.0
 40
0.0
 40
0.0
 40
0.0
 40
1.0
 40
1.0
 40
1.0
 40
1.0
 10
-33.36759610781507
 20
-49.56258680878963
 30
0.0
 10
-33.10839717272233
 20
-49.403351783961845
 30
0.0
 10
-32.76518452708496
 20
-49.40092344659757
 30
0.0
 10
-32.41344455798642
 20
-49.49439295838617
 30
0.0
  0
SPLINE
  5
53
330
17
100
AcDbEntity
  8
visible
100
AcDbSpline
 70
0
 71
3
 72
11
 73
7
 74
0
 40
0.0
 40
0.0
 40
0.0
 40
0.0
 40
0.6298555326701425
 40
0.6298555326701425
 40
0.6298555326701425
 40
1.0
 40
1.0
 40
1.0
 40
1.0
 10
-33.97328232678549
 20
-49.21764681721835
 30
0.0
 10
-34.22388491936811
 20
-49.442650542087165
 30
0.0
 10
-34.38690030364461
 20
-49.77194483014368
 30
0.0
 10
-34.464444043424926
 20
-50.14933513177135
 30
0.0
 10
-34.50962345014644
 20
-50.37241768859734
 30
0.0
 10
-34.5315978504094
 20
-50.606790521254695
 30
0.0
 10
-34.53036724421371
 20
-50.85245362974335
 30
0.0
  0
SPLINE
  5
54
330
17
100
AcDbEntity
  8
visible
100
AcDbSpline
 70
0
 71
3
 72
8
 73
4
 74
0
 40
0.0
 40
0.0
 40
0.0
 40
0.0
 40
1.0
 40
1.0
 40
1.0
 40
1.0
 10
-33.921859103638255
 20
-51.01119852514397
 30
0.0
 10
-33.92305978669306
 20
-50.48489814800774
 30
0.0
 10
-33.82547238512046
 20
-49.98417317776526
 30
0.0
 10
-33.533328084303704
 20
-49.69315265813743
 30
0.0
  0
SPLINE
  5
55
330
17
100
AcDbEntity
  8
visible
100
AcDbSpline
 70
0
 71
3
 72
11
 73
7
 74
0
 40
0.0
 40
0.0
 40
0.0
 40
0.0
 40
0.36781947571318296
 40
0.36781947571318296
 40
0.36781947571318296
 40
1.0
 40
1.0
 40
1.0
 40
1.0
 10
-34.53036724421371
 20
-50.85245362974335
 30
0.0
 10
-34.53156992290763
 20
-51.09552037794692
 30
0.0
 10
-34.50985029614695
 20
-51.33941212515528
 30
0.0
 10
-34.46520836393163
 20
-51.58412887136835
 30
0.0
 10
-34.38786121284472
 20
-52.00288037131443
 30
0.0
 10
-34.224493602270336
 20
-52.41818330149032
 30
0.0
 10
-33.97328232678548
 20
-52.77478330524011
 30
0.0
  0
SPLINE
  5
56
330
17
100
AcDbEntity
  8
visible
100
AcDbSpline
 70
0
 71
3
 72
8
 73
4
 74
0
 40
0.0
 40
0.0
 40
0.0
 40
0.0
 40
1.0
 40
1.0
 40
1.0
 40
1.0
 10
-33.533328084303704
 20
-52.52882407363272
 30
0.0
 10
-33.82506513900553
 20
-52.0861178229976
 30
0.0
 10
-33.92310686675531
 20
-51.535791743197194
 30
0.0
 10
-33.921859103638255
 20
-51.01119852514397
 30
0.0
  0
SPLINE
  5
57
330
17
100
AcDbEntity
  8
visible
100
AcDbSpline
 70
0
 71
3
 72
11
 73
7
 74
0
 40
0.0
 40
0.0
 40
0.0
 40
0.0
 40
0.45830463551269063
 40
0.45830463551269063
 40
0.45830463551269063
 40
1.0
 40
1.0
 40
1.0
 40
1.0
 10
-33.97328232678548
 20
-52.774783305240106
 30
0.0
 10
-33.79848800784341
 20
-53.025495731769986
 30
0.0
 10
-33.58507375646251
 20
-53.24253316132749
 30
0.0
 10
-33.348221119243235
 20
-53.410696997320855
 30
0.0
 10
-33.06823743547812
 20
-53.610517640325206
 30
0.0
 10
-32.75935323200445
 20
-53.74258669104356
 30
0.0
 10
-32.44772670675124
 20
-53.82365043314563
 30
0.0
  0
SPLINE
  5
58
330
17
100
AcDbEntity
  8
visible
100
AcDbSpline
 70
0
 71
3
 72
11
 73
7
 74
0
 40
0.0
 40
0.0
 40
0.0
 40
0.0
 40
0.5601545193542434
 40
0.5601545193542434
 40
0.5601545193542434
 40
1.0
 40
1.0
 40
1.0
 40
1.0
 10
-32.41344455798642
 20
-53.31188423345009
 30
0.0
 10
-32.6564467751779
 20
-53.24867653627521
 30
0.0
 10
-32.894249087961555
 20
-53.145244497261274
 30
0.0
 10
-33.10443063471535
 20
-52.98794285199455
 30
0.0
 10
-33.271045919135794
 20
-52.86347044215216
 30
0.0
 10
-33.41401173566525
 20
-52.710430849364926
 30
0.0
 10
-33.53332808430369
 20
-52.52882407363272
 30
0.0
  0
SPLINE
  5
59
330
17
100
AcDbEntity
  8
visible
100
AcDbSpline
 70
0
 71
2
 72
6
 73
3
 74
0
 40
0.0
 40
0.0
 40
0.0
 40
1.0
 40
1.0
 40
1.0
 10
-32.44772670675124
 20
-53.82365043314563
 30
0.0
 10
-32.075599991204356
 20
-53.92148635134399
 30
0.0
 10
-31.73208685128574
 20
-53.89741840563743
 30
0.0
  0
SPLINE
  5
5A
330
17
100
AcDbEntity
  8
visible
100
AcDbSpline
 70
0
 71
2
 72
6
 73
3
 74
0
 40
0.0
 40
0.0
 40
0.0
 40
1.0
 40
1.0
 40
1.0
 10
-31.71208893117294
 20
-53.347420948651816
 30
0.0
 10
-32.04524686900831
 20
-53.408548402383445
 30
0.0
 10
-32.41344455798643
 20
-53.31188423345009
 30
0.0
  0
SPLINE
  5
5B
330
17
100
AcDbEntity
  8
visible
100
AcDbSpline
 70
0
 71
2
 72
6
 73
3
 74
0
 40
0.0
 40
0.0
 40
0.0
 40
1.0
 40
1.0
 40
1.0
 10
-31.732086851285743
 20
-53.89741840563743
 30
0.0
 10
-31.391219674644034
 20
-53.87215523593435
 30
0.0
 10
-31.090724984810677
 20
-53.72595913120615
 30
0.0
  0
SPLINE
  5
5C
330
17
100
AcDbEntity
  8
visible
100
AcDbSpline
 70
0
 71
2
 72
6
 73
3
 74
0
 40
0.0
 40
0.0
 40
0.0
 40
0.2539835933036398
 40
0.2539835933036398
 40
0.2539835933036398
 10
-31.090724984810677
 20
-53.06409334727971
 30
0.0
 10
-31.162564827259846
 20
-53.118870828519164
 30
0.0
 10
-31.23810954209177
 20
-53.16460476474108
 30
0.0
  0
SPLINE
  5
5D
330
17
100
AcDbEntity
  8
visible
100
AcDbSpline
 70
0
 71
2
 72
6
 73
3
 74
0
 40
0.0
 40
0.0
 40
0.0
 40
1.0
 40
1.0
 40
1.0
 10
-31.23810954209177
 20
-53.16460476474108
 30
0.0
 10
-31.46039883061808
 20
-53.29983987981615
 30
0.0
 10
-31.712088931172936
 20
-53.347420948651816
 30
0.0
  0
LINE
  5
5E
330
17
100
AcDbEntity
  8
visible
100
AcDbLine
 10
-31.090724984810677
 20
-53.064093347279716
 30
0.0
 11
-31.090724984810677
 21
-53.72595913120616
 31
0.0
  0
LINE
  5
5F
330
17
100
AcDbEntity
  8
visible
100
AcDbLine
 10
-30.72790557704972
 20
-54.181342379750504
 30
0.0
 11
-29.099503510721043
 21
-49.922903301121266
 31
0.0
  0
LINE
  5
60
330
17
100
AcDbEntity
  8
visible
100
AcDbLine
 10
-30.11939743647427
 20
-54.34008727515112
 30
0.0
 11
-30.72790557704972
 21
-54.18134237975051
 31
0.0
  0
LINE
  5
61
330
17
100
AcDbEntity
  8
visible
100
AcDbLine
 10
-29.099503510721046
 20
-49.922903301121266
 30
0.0
 11
-28.44528583845917
 21
-50.093572695706904
 31
0.0
  0
LINE
  5
62
330
17
100
AcDbEntity
  8
visible
100
AcDbLine
 10
-29.7308664171397
 20
-53.2400493322341
 30
0.0
 11
-30.119397436474262
 21
-54.34008727515112
 31
0.0
  0
LINE
  5
63
330
17
100
AcDbEntity
  8
visible
100
AcDbLine
 10
-28.44528583845917
 20
-50.0935726957069
 30
0.0
 11
-26.819740617860894
 21
-55.200887060069924
 31
0.0
  0
LINE
  5
64
330
17
100
AcDbEntity
  8
visible
100
AcDbLine
 10
-27.8082092405797
 20
-53.7416235792041
 30
0.0
 11
-29.7308664171397
 21
-53.2400493322341
 31
0.0
  0
LINE
  5
65
330
17
100
AcDbEntity
  8
visible
100
AcDbLine
 10
-26.819740617860894
 20
-55.20088706006993
 30
0.0
 11
-27.419678221245142
 21
-55.04437800826651
 31
0.0
  0
LINE
  5
66
330
17
100
AcDbEntity
  8
visible
100
AcDbLine
 10
-27.419678221245142
 20
-55.044378008266506
 30
0.0
 11
-27.808209240579707
 21
-53.7416235792041
 31
0.0
  0
LINE
  5
67
330
17
100
AcDbEntity
  8
visible
100
AcDbLine
 10
-28.30366795618657
 20
-62.57041246018838
 30
0.0
 11
-24.124510773428256
 21
-63.660652385676144
 31
0.0
  0
LINE
  5
68
330
17
100
AcDbEntity
  8
visible
100
AcDbLine
 10
-28.303667956186572
 20
-62.57041246018837
 30
0.0
 11
-28.303667956186572
 21
-65.3236307245378
 31
0.0
  0
LINE
  5
69
330
17
100
AcDbEntity
  8
visible
100
AcDbLine
 10
-24.124510773428256
 20
-63.66065238567614
 30
0.0
 11
-24.124510773428256
 21
-66.41387065002556
 31
0.0
  0
LINE
  5
6A
330
17
100
AcDbEntity
  8
visible
100
AcDbLine
 10
-28.30366795618657
 20
-65.3236307245378
 30
0.0
 11
-24.124510773428256
 21
-66.41387065002556
 31
0.0
  0
LINE
  5
6B
330
17
100
AcDbEntity
  8
visible
100
AcDbLine
 10
-19.94535359066994
 20
-64.75089231116391
 30
0.0
 11
-15.766196407911625
 21
-65.84113223665167
 31
0.0
  0
LINE
  5
6C
330
17
100
AcDbEntity
  8
visible
100
AcDbLine
 10
-19.945353590669946
 20
-64.75089231116391
 30
0.0
 11
-19.945353590669946
 21
-67.50411057551334
 31
0.0
  0
LINE
  5
6D
330
17
100
AcDbEntity
  8
visible
100
AcDbLine
 10
-15.76619640791163
 20
-65.84113223665167
 30
0.0
 11
-15.76619640791163
 21
-68.5943505010011
 31
0.0
  0
LINE
  5
6E
330
17
100
AcDbEntity
  8
visible
100
AcDbLine
 10
-19.94535359066994
 20
-67.50411057551334
 30
0.0
 11
-15.766196407911625
 21
-68.5943505010011
 31
0.0
  0
LINE
  5
6F
330
17
100
AcDbEntity
  8
visible
100
AcDbLine
 10
-11.587039225153315
 20
-66.93137216213945
 30
0.0
 11
-7.407882042395002
 21
-68.02161208762722
 31
0.0
  0
LINE
  5
70
330
17
100
AcDbEntity
  8
visible
100
AcDbLine
 10
-7.407882042395002
 20
-68.0216120876272
 30
0.0
 11
-7.407882042395002
 21
-70.77483035197663
 31
0.0
  0
LINE
  5
71
330
17
100
AcDbEntity
  8
visible
100
AcDbLine
 10
-11.587039225153315
 20
-69.68459042648887
 30
0.0
 11
-7.407882042395002
 21
-70.77483035197663
 31
0.0
  0
LINE
  5
72
330
17
100
AcDbEntity
  8
visible
100
AcDbLine
 10
-11.587039225153317
 20
-66.93137216213944
 30
0.0
 11
-11.587039225153317
 21
-69.68459042648887
 31
0.0
  0
LINE
  5
73
330
17
100
AcDbEntity
  8
visible
100
AcDbLine
 10
-26.196948248633436
 20
-55.36335836146585
 30
0.0
 11
-26.196948248633436
 21
-50.680108999370184
 31
0.0
  0
LINE
  5
74
330
17
100
AcDbEntity
  8
visible
100
AcDbLine
 10
-25.637006485474796
 20
-55.509433476482386
 30
0.0
 11
-26.19694824863343
 21
-55.363358361465856
 31
0.0
  0
LINE
  5
75
330
17
100
AcDbEntity
  8
visible
100
AcDbLine
 10
-26.19694824863343
 20
-50.68010899937019
 30
0.0
 11
-25.337037683782672
 21
-50.904438640288426
 31
0.0
  0
LINE
  5
76
330
17
100
AcDbEntity
  8
visible
100
AcDbLine
 10
-25.637006485474803
 20
-51.39708256308157
 30
0.0
 11
-25.637006485474803
 21
-55.509433476482386
 31
0.0
  0
LINE
  5
77
330
17
100
AcDbEntity
  8
visible
100
AcDbLine
 10
-25.33703768378268
 20
-50.90443864028843
 30
0.0
 11
-24.248579460499826
 21
-54.37538431490083
 31
0.0
  0
LINE
  5
78
330
17
100
AcDbEntity
  8
visible
100
AcDbLine
 10
-24.537120879270347
 20
-54.8961037997955
 30
0.0
 11
-25.637006485474807
 21
-51.39708256308157
 31
0.0
  0
LINE
  5
79
330
17
100
AcDbEntity
  8
visible
100
AcDbLine
 10
-24.24857946049982
 20
-54.37538431490082
 30
0.0
 11
-23.154407545756165
 21
-51.473833476373244
 31
0.0
  0
LINE
  5
7A
330
17
100
AcDbEntity
  8
visible
100
AcDbLine
 10
-23.957181195998896
 20
-55.04739588320546
 30
0.0
 11
-24.53712087927034
 21
-54.89610379979549
 31
0.0
  0
LINE
  5
7B
330
17
100
AcDbEntity
  8
visible
100
AcDbLine
 10
-23.154407545756168
 20
-51.473833476373244
 30
0.0
 11
-22.294496980905407
 21
-51.698163117291486
 31
0.0
  0
LINE
  5
7C
330
17
100
AcDbEntity
  8
visible
100
AcDbLine
 10
-22.857295589794447
 20
-52.12224116977073
 30
0.0
 11
-23.957181195998906
 21
-55.04739588320545
 31
0.0
  0
LINE
  5
7D
330
17
100
AcDbEntity
  8
visible
100
AcDbLine
 10
-22.29449698090541
 20
-51.69816311729148
 30
0.0
 11
-22.29449698090541
 21
-56.381412479387144
 31
0.0
  0
LINE
  5
7E
330
17
100
AcDbEntity
  8
visible
100
AcDbLine
 10
-22.857295589794443
 20
-56.234592083171556
 30
0.0
 11
-22.857295589794443
 21
-52.122241169770746
 31
0.0
  0
LINE
  5
7F
330
17
100
AcDbEntity
  8
visible
100
AcDbLine
 10
-22.294496980905404
 20
-56.38141247938715
 30
0.0
 11
-22.85729558979444
 21
-56.23459208317156
 31
0.0
  0
LINE
  5
80
330
17
100
AcDbEntity
  8
visible
100
AcDbLine
 10
-20.026161470966862
 20
-54.473132434906546
 30
0.0
 11
-21.354594735603413
 21
-51.943360631783506
 31
0.0
  0
LINE
  5
81
330
17
100
AcDbEntity
  8
visible
100
AcDbLine
 10
-21.548860245270696
 20
-56.57593087234282
 30
0.0
 11
-20.026161470966862
 21
-54.473132434906546
 31
0.0
  0
LINE
  5
82
330
17
100
AcDbEntity
  8
visible
100
AcDbLine
 10
-21.35459473560341
 20
-51.943360631783506
 30
0.0
 11
-20.73465921210635
 21
-52.10508665198037
 31
0.0
  0
LINE
  5
83
330
17
100
AcDbEntity
  8
visible
100
AcDbLine
 10
-20.926067876043234
 20
-56.73840217373876
 30
0.0
 11
-21.548860245270692
 21
-56.57593087234283
 31
0.0
  0
LINE
  5
84
330
17
100
AcDbEntity
  8
visible
100
AcDbLine
 10
-20.73465921210635
 20
-52.10508665198037
 30
0.0
 11
-19.67476944612751
 21
-54.12251256488606
 31
0.0
  0
LINE
  5
85
330
17
100
AcDbEntity
  8
visible
100
AcDbLine
 10
-19.717622132083527
 20
-55.06178515983713
 30
0.0
 11
-20.92606787604323
 21
-56.73840217373876
 31
0.0
  0
LINE
  5
86
330
17
100
AcDbEntity
  8
visible
100
AcDbLine
 10
-19.674769446127513
 20
-54.12251256488605
 30
0.0
 11
-18.60916598868787
 21
-52.65957586408391
 31
0.0
  0
LINE
  5
87
330
17
100
AcDbEntity
  8
visible
100
AcDbLine
 10
-18.51774692531503
 20
-57.366674224549634
 30
0.0
 11
-19.71762213208353
 21
-55.061785159837136
 31
0.0
  0
LINE
  5
88
330
17
100
AcDbEntity
  8
visible
100
AcDbLine
 10
-18.60916598868787
 20
-52.65957586408392
 30
0.0
 11
-17.989230465190815
 21
-52.821301884280786
 31
0.0
  0
LINE
  5
89
330
17
100
AcDbEntity
  8
visible
100
AcDbLine
 10
-17.89781140181797
 20
-57.52840024474649
 30
0.0
 11
-18.517746925315027
 21
-57.36667422454963
 31
0.0
  0
LINE
  5
8A
330
17
100
AcDbEntity
  8
visible
100
AcDbLine
 10
-17.989230465190808
 20
-52.82130188428078
 30
0.0
 11
-19.36051641578338
 21
-54.71265585221476
 31
0.0
  0
LINE
  5
8B
330
17
100
AcDbEntity
  8
visible
100
AcDbLine
 10
-19.360516415783383
 20
-54.712655852214766
 30
0.0
 11
-17.897811401817975
 21
-57.52840024474649
 31
0.0
  0
LINE
  5
8C
330
17
100
AcDbEntity
  8
visible
100
AcDbLine
 10
-62.731065856720306
 20
-51.02454917949197
 30
0.0
 11
-52.960695334460624
 21
-53.57339995594105
 31
0.0
  0
LINE
  5
8D
330
17
100
AcDbEntity
  8
visible
100
AcDbLine
 10
54.0065140325762
 20
-61.05814918881989
 30
0.0
 11
54.0065140325762
 21
-33.342418661035765
 31
0.0
  0
LINE
  5
8E
330
17
100
AcDbEntity
  8
visible
100
AcDbLine
 10
22.16531644617009
 20
-80.31287651075155
 30
0.0
 11
22.16531644617009
 21
-52.59714598296742
 31
0.0
  0
LINE
  5
8F
330
17
100
AcDbEntity
  8
visible
100
AcDbLine
 10
54.0065140325762
 20
-61.05814918881989
 30
0.0
 11
22.16531644617008
 21
-80.31287651075155
 31
0.0
  0
LINE
  5
90
330
17
100
AcDbEntity
  8
visible
100
AcDbLine
 10
48.40685514669099
 20
-44.71292781185085
 30
0.0
 11
36.548753976581125
 21
-51.88365384898402
 31
0.0
  0
LINE
  5
91
330
17
100
AcDbEntity
  8
visible
100
AcDbLine
 10
48.40685514669099
 20
-44.71292781185084
 30
0.0
 11
48.40685514669099
 21
-52.605486836319166
 31
0.0
  0
LINE
  5
92
330
17
100
AcDbEntity
  8
visible
100
AcDbLine
 10
36.548753976581125
 20
-51.88365384898402
 30
0.0
 11
36.548753976581125
 21
-59.776212873452344
 31
0.0
  0
LINE
  5
93
330
17
100
AcDbEntity
  8
visible
100
AcDbLine
 10
48.40685514669099
 20
-52.60548683631917
 30
0.0
 11
36.548753976581125
 21
-59.776212873452344
 31
0.0
  0
ELLIPSE
  5
94
330
17
100
AcDbEntity
  8
visible
100
AcDbEllipse
 10
26.008219603150135
 20
-66.79260916814114
 30
0.0
 11
-0.7572819553776586
 21
-2.9028475743757873
 31
0.0
 40
0.503826245710643
 41
0.47777710346995755
 42
3.1415926535897936
  0
ELLIPSE
  5
95
330
17
100
AcDbEntity
  8
visible
100
AcDbEllipse
 10
26.008219603150135
 20
-66.79260916814114
 30
0.0
 11
-0.7572819553776586
 21
-2.9028475743757873
 31
0.0
 40
0.503826245710643
 41
3.1415926535897936
 42
6.283185307179586
  0
ELLIPSE
  5
96
330
17
100
AcDbEntity
  8
visible
100
AcDbEllipse
 10
26.008219603150135
 20
-66.79260916814114
 30
0.0
 11
-0.7572819553776586
 21
-2.9028475743757873
 31
0.0
 40
0.503826245710643
 41
0.0
 42
0.4777771034699576
  0
LINE
  5
97
330
17
100
AcDbEntity
  8
visible
100
AcDbLine
 10
-43.37333819137123
 20
-58.63910396044701
 30
0.0
 11
-43.37333819137123
 21
-59.96673685076268
 31
0.0
  0
LINE
  5
98
330
17
100
AcDbEntity
  8
visible
100
AcDbLine
 10
-45.020296687219826
 20
-60.962671022586726
 30
0.0
 11
-43.37333819137123
 21
-59.96673685076267
 31
0.0
  0
LINE
  5
99
330
17
100
AcDbEntity
  8
visible
100
AcDbLine
 10
-43.37333819137124
 20
-59.96673685076268
 30
0.0
 11
-40.84113950446151
 21
-60.627325574040746
 31
0.0
  0
LINE
  5
9A
330
17
100
AcDbEntity
  8
visible
100
AcDbLine
 10
-35.015023825854605
 20
-60.81958381142255
 30
0.0
 11
-35.015023825854605
 21
-62.147216701738216
 31
0.0
  0
LINE
  5
9B
330
17
100
AcDbEntity
  8
visible
100
AcDbLine
 10
-36.6619823217032
 20
-63.143150873562256
 30
0.0
 11
-35.015023825854605
 21
-62.1472167017382
 31
0.0
  0
LINE
  5
9C
330
17
100
AcDbEntity
  8
visible
100
AcDbLine
 10
-35.015023825854605
 20
-62.14721670173821
 30
0.0
 11
-32.48282513894488
 21
-62.80780542501628
 31
0.0
  0
SPLINE
  5
9D
330
17
100
AcDbEntity
  8
visible
100
AcDbSpline
 70
0
 71
2
 72
6
 73
3
 74
0
 40
0.0
 40
0.0
 40
0.0
 40
1.0
 40
1.0
 40
1.0
 10
-31.090724984810677
 20
-49.86688741212036
 30
0.0
 10
-31.232727658811214
 20
-49.731732801458314
 30
0.0
 10
-31.382697232003217
 20
-49.62560247756
 30
0.0
  0
SPLINE
  5
9E
330
17
100
AcDbEntity
  8
visible
100
AcDbSpline
 70
0
 71
2
 72
6
 73
3
 74
0
 40
0.0
 40
0.0
 40
0.0
 40
1.0
 40
1.0
 40
1.0
 10
-31.382697232003217
 20
-49.62560247756
 30
0.0
 10
-31.712662913864552
 20
-49.39209267989967
 30
0.0
 10
-32.084052858816705
 20
-49.29520612402136
 30
0.0
  0
SPLINE
  5
9F
330
17
100
AcDbEntity
  8
visible
100
AcDbSpline
 70
0
 71
2
 72
6
 73
3
 74
0
 40
0.0
 40
0.0
 40
0.0
 40
0.03596616770768558
 40
0.03596616770768558
 40
0.03596616770768558
 10
-33.64389062761576
 20
-49.01845998285355
 30
0.0
 10
-33.62385441804812
 20
-49.000277030193914
 30
0.0
 10
-33.60328605413694
 20
-48.98307486833411
 30
0.0
  0
SPLINE
  5
A0
330
17
100
AcDbEntity
  8
visible
100
AcDbSpline
 70
0
 71
2
 72
6
 73
3
 74
0
 40
0.0
 40
0.0
 40
0.0
 40
0.8037169786273726
 40
0.8037169786273726
 40
0.8037169786273726
 10
-32.084052858816705
 20
-49.29520612402136
 30
0.0
 10
-32.6718532860404
 20
-49.14186336471527
 30
0.0
 10
-33.03820440854342
 20
-49.36339997459739
 30
0.0
  0
SPLINE
  5
A1
330
17
100
AcDbEntity
  8
visible
100
AcDbSpline
 70
0
 71
2
 72
6
 73
3
 74
0
 40
0.0
 40
0.0
 40
0.0
 40
1.0
 40
1.0
 40
1.0
 10
-34.20097554504399
 20
-50.65326679537854
 30
0.0
 10
-34.20097554504399
 20
-49.524017116641474
 30
0.0
 10
-33.64389062761576
 20
-49.01845998285355
 30
0.0
  0
SPLINE
  5
A2
330
17
100
AcDbEntity
  8
visible
100
AcDbSpline
 70
0
 71
2
 72
6
 73
3
 74
0
 40
0.0
 40
0.0
 40
0.0
 40
1.0
 40
1.0
 40
1.0
 10
-33.64389062761576
 20
-52.57559647087531
 30
0.0
 10
-34.20097554504399
 20
-51.77937966945245
 30
0.0
 10
-34.20097554504399
 20
-50.65326679537854
 30
0.0
  0
SPLINE
  5
A3
330
17
100
AcDbEntity
  8
visible
100
AcDbSpline
 70
0
 71
2
 72
6
 73
3
 74
0
 40
0.0
 40
0.0
 40
0.0
 40
1.0
 40
1.0
 40
1.0
 10
-32.11833500758152
 20
-53.62446359878082
 30
0.0
 10
-33.08680571018753
 20
-53.371813272298155
 30
0.0
 10
-33.64389062761576
 20
-52.57559647087531
 30
0.0
  0
SPLINE
  5
A4
330
17
100
AcDbEntity
  8
visible
100
AcDbSpline
 70
0
 71
2
 72
6
 73
3
 74
0
 40
0.0
 40
0.0
 40
0.0
 40
1.0
 40
1.0
 40
1.0
 10
-31.402695152116024
 20
-53.69823157127262
 30
0.0
 10
-31.741231371168563
 20
-53.72284071705726
 30
0.0
 10
-32.11833500758152
 20
-53.62446359878082
 30
0.0
  0
SPLINE
  5
A5
330
17
100
AcDbEntity
  8
visible
100
AcDbSpline
 70
0
 71
2
 72
6
 73
3
 74
0
 40
0.0
 40
0.0
 40
0.0
 40
1.0
 40
1.0
 40
1.0
 10
-31.090724984810677
 20
-53.647678194611984
 30
0.0
 10
-31.242723081072178
 20
-53.686602753449804
 30
0.0
 10
-31.402695152116024
 20
-53.69823157127262
 30
0.0
  0
LINE
  5
A6
330
17
100
AcDbEntity
  8
visible
100
AcDbLine
 10
-30.398513877880006
 20
-53.982155545385694
 30
0.0
 11
-28.869249226167476
 21
-49.98297101407319
 31
0.0
  0
LINE
  5
A7
330
17
100
AcDbEntity
  8
visible
100
AcDbLine
 10
-30.398513877880006
 20
-53.982155545385694
 30
0.0
 11
-30.727905577049725
 21
-54.181342379750504
 31
0.0
  0
LINE
  5
A8
330
17
100
AcDbEntity
  8
visible
100
AcDbLine
 10
-30.02719069485464
 20
-54.07902468470969
 30
0.0
 11
-30.398513877880003
 21
-53.9821555453857
 31
0.0
  0
LINE
  5
A9
330
17
100
AcDbEntity
  8
visible
100
AcDbLine
 10
-29.40147471796999
 20
-53.040862497869284
 30
0.0
 11
-29.73086641713971
 21
-53.24004933223409
 31
0.0
  0
LINE
  5
AA
330
17
100
AcDbEntity
  8
visible
100
AcDbLine
 10
-27.478817541409988
 20
-53.54243674483929
 30
0.0
 11
-29.40147471796999
 21
-53.040862497869284
 31
0.0
  0
LINE
  5
AB
330
17
100
AcDbEntity
  8
visible
100
AcDbLine
 10
-27.478817541409988
 20
-53.54243674483929
 30
0.0
 11
-27.808209240579707
 21
-53.7416235792041
 31
0.0
  0
LINE
  5
AC
330
17
100
AcDbEntity
  8
visible
100
AcDbLine
 10
-26.918704107188244
 20
-54.88995283062841
 30
0.0
 11
-27.090286522075427
 21
-54.845191173901696
 31
0.0
  0
LINE
  5
AD
330
17
100
AcDbEntity
  8
visible
100
AcDbLine
 10
-27.090286522075427
 20
-54.845191173901696
 30
0.0
 11
-27.419678221245146
 21
-55.044378008266506
 31
0.0
  0
LINE
  5
AE
330
17
100
AcDbEntity
  8
visible
100
AcDbLine
 10
-27.090286522075427
 20
-54.845191173901696
 30
0.0
 11
-27.478817541409988
 21
-53.54243674483929
 31
0.0
  0
LINE
  5
AF
330
17
100
AcDbEntity
  8
visible
100
AcDbLine
 10
-26.65670946033798
 20
-63.00006366239808
 30
0.0
 11
-26.65670946033798
 21
-64.32769655271375
 31
0.0
  0
LINE
  5
B0
330
17
100
AcDbEntity
  8
visible
100
AcDbLine
 10
-28.30366795618657
 20
-65.3236307245378
 30
0.0
 11
-26.65670946033798
 21
-64.32769655271373
 31
0.0
  0
LINE
  5
B1
330
17
100
AcDbEntity
  8
visible
100
AcDbLine
 10
-26.65670946033798
 20
-64.32769655271375
 30
0.0
 11
-24.124510773428252
 21
-64.98828527599181
 31
0.0
  0
LINE
  5
B2
330
17
100
AcDbEntity
  8
visible
100
AcDbLine
 10
-18.298395094821352
 20
-65.1805435133736
 30
0.0
 11
-18.298395094821352
 21
-66.50817640368928
 31
0.0
  0
LINE
  5
B3
330
17
100
AcDbEntity
  8
visible
100
AcDbLine
 10
-19.945353590669942
 20
-67.50411057551334
 30
0.0
 11
-18.298395094821352
 21
-66.50817640368928
 31
0.0
  0
LINE
  5
B4
330
17
100
AcDbEntity
  8
visible
100
AcDbLine
 10
-18.298395094821352
 20
-66.50817640368928
 30
0.0
 11
-15.766196407911625
 21
-67.16876512696734
 31
0.0
  0
LINE
  5
B5
330
17
100
AcDbEntity
  8
visible
100
AcDbLine
 10
-11.587039225153319
 20
-69.68459042648887
 30
0.0
 11
-9.940080729304725
 21
-68.6886562546648
 31
0.0
  0
LINE
  5
B6
330
17
100
AcDbEntity
  8
visible
100
AcDbLine
 10
-9.940080729304725
 20
-68.6886562546648
 30
0.0
 11
-7.4078820423949985
 21
-69.34924497794289
 31
0.0
  0
LINE
  5
B7
330
17
100
AcDbEntity
  8
visible
100
AcDbLine
 10
-9.940080729304727
 20
-67.36102336434915
 30
0.0
 11
-9.940080729304727
 21
-68.68865625466482
 31
0.0
  0
LINE
  5
B8
330
17
100
AcDbEntity
  8
visible
100
AcDbLine
 10
-25.867556549463718
 20
-55.16417152710105
 30
0.0
 11
-25.867556549463718
 21
-50.76603923981213
 31
0.0
  0
LINE
  5
B9
330
17
100
AcDbEntity
  8
visible
100
AcDbLine
 10
-25.867556549463718
 20
-55.16417152710105
 30
0.0
 11
-26.196948248633436
 21
-55.363358361465856
 31
0.0
  0
LINE
  5
BA
330
17
100
AcDbEntity
  8
visible
100
AcDbLine
 10
-25.637006485474803
 20
-55.22431640167564
 30
0.0
 11
-25.867556549463718
 21
-55.164171527101054
 31
0.0
  0
LINE
  5
BB
330
17
100
AcDbEntity
  8
visible
100
AcDbLine
 10
-25.307614786305084
 20
-51.19789572871676
 30
0.0
 11
-25.637006485474803
 21
-51.39708256308157
 31
0.0
  0
LINE
  5
BC
330
17
100
AcDbEntity
  8
visible
100
AcDbLine
 10
-23.919187761330104
 20
-54.17619748053602
 30
0.0
 11
-24.248579460499823
 21
-54.37538431490083
 31
0.0
  0
LINE
  5
BD
330
17
100
AcDbEntity
  8
visible
100
AcDbLine
 10
-24.207729180100625
 20
-54.69691696543068
 30
0.0
 11
-25.307614786305084
 21
-51.19789572871676
 31
0.0
  0
LINE
  5
BE
330
17
100
AcDbEntity
  8
visible
100
AcDbLine
 10
-24.207729180100625
 20
-54.69691696543068
 30
0.0
 11
-24.537120879270343
 21
-54.89610379979549
 31
0.0
  0
LINE
  5
BF
330
17
100
AcDbEntity
  8
visible
100
AcDbLine
 10
-23.919187761330104
 20
-54.17619748053602
 30
0.0
 11
-22.92290342996881
 21
-51.534227239734776
 31
0.0
  0
LINE
  5
C0
330
17
100
AcDbEntity
  8
visible
100
AcDbLine
 10
-23.859551190501996
 20
-54.78774808970678
 30
0.0
 11
-24.207729180100625
 21
-54.69691696543068
 31
0.0
  0
LINE
  5
C1
330
17
100
AcDbEntity
  8
visible
100
AcDbLine
 10
-22.527903890624724
 20
-51.923054335405936
 30
0.0
 11
-22.857295589794443
 21
-52.122241169770746
 31
0.0
  0
LINE
  5
C2
330
17
100
AcDbEntity
  8
visible
100
AcDbLine
 10
-22.527903890624724
 20
-56.035405248806754
 30
0.0
 11
-22.527903890624724
 21
-51.923054335405936
 31
0.0
  0
LINE
  5
C3
330
17
100
AcDbEntity
  8
visible
100
AcDbLine
 10
-22.527903890624724
 20
-56.035405248806754
 30
0.0
 11
-22.857295589794443
 21
-56.23459208317156
 31
0.0
  0
LINE
  5
C4
330
17
100
AcDbEntity
  8
visible
100
AcDbLine
 10
-22.29449698090541
 20
-56.0962954045804
 30
0.0
 11
-22.527903890624724
 21
-56.035405248806754
 31
0.0
  0
LINE
  5
C5
330
17
100
AcDbEntity
  8
visible
100
AcDbLine
 10
-19.696769771797143
 20
-54.273945600541744
 30
0.0
 11
-20.85171630924528
 21
-52.0745493174697
 31
0.0
  0
LINE
  5
C6
330
17
100
AcDbEntity
  8
visible
100
AcDbLine
 10
-19.696769771797143
 20
-54.273945600541744
 30
0.0
 11
-20.026161470966862
 21
-54.47313243490655
 31
0.0
  0
LINE
  5
C7
330
17
100
AcDbEntity
  8
visible
100
AcDbLine
 10
-21.219468546100977
 20
-56.376744037978014
 30
0.0
 11
-19.696769771797143
 21
-54.27394560054174
 31
0.0
  0
LINE
  5
C8
330
17
100
AcDbEntity
  8
visible
100
AcDbLine
 10
-21.219468546100977
 20
-56.376744037978014
 30
0.0
 11
-21.548860245270696
 21
-56.57593087234282
 31
0.0
  0
LINE
  5
C9
330
17
100
AcDbEntity
  8
visible
100
AcDbLine
 10
-20.753090548541454
 20
-56.49841065425322
 30
0.0
 11
-21.219468546100977
 21
-56.376744037978014
 31
0.0
  0
LINE
  5
CA
330
17
100
AcDbEntity
  8
visible
100
AcDbLine
 10
-19.345377746957798
 20
-53.923325730521256
 30
0.0
 11
-19.674769446127517
 21
-54.122512564886065
 31
0.0
  0
LINE
  5
CB
330
17
100
AcDbEntity
  8
visible
100
AcDbLine
 10
-19.388230432913815
 20
-54.86259832547232
 30
0.0
 11
-19.717622132083534
 21
-55.06178515983713
 31
0.0
  0
LINE
  5
CC
330
17
100
AcDbEntity
  8
visible
100
AcDbLine
 10
-19.345377746957798
 20
-53.923325730521256
 30
0.0
 11
-18.454291551058134
 21
-52.69997881806661
 31
0.0
  0
LINE
  5
CD
330
17
100
AcDbEntity
  8
visible
100
AcDbLine
 10
-18.188355226145315
 20
-57.16748739018482
 30
0.0
 11
-19.388230432913815
 21
-54.86259832547232
 31
0.0
  0
LINE
  5
CE
330
17
100
AcDbEntity
  8
visible
100
AcDbLine
 10
-18.188355226145315
 20
-57.16748739018482
 30
0.0
 11
-18.517746925315034
 21
-57.36667422454963
 31
0.0
  0
LINE
  5
CF
330
17
100
AcDbEntity
  8
visible
100
AcDbLine
 10
-18.069140362595736
 20
-57.198587633193036
 30
0.0
 11
-18.188355226145315
 21
-57.16748739018482
 31
0.0
  0
ELLIPSE
  5
D0
330
17
100
AcDbEntity
  8
visible
100
AcDbEllipse
 10
43.97653679395625
 20
-29.62455553412535
 30
0.0
 11
12.0
 21
3.6292099870939615e-16
 31
0.0
 40
0.39718302370189007
 41
5.702034518699754
 42
6.283185307179586
  0
LINE
  5
D1
330
17
100
AcDbEntity
  8
visible
100
AcDbLine
 10
54.0065140325762
 20
-32.24113135529599
 30
0.0
 11
22.16531644617009
 21
-51.49585867722765
 31
0.0
  0
ELLIPSE
  5
D2
330
17
100
AcDbEntity
  8
visible
100
AcDbEllipse
 10
12.135339207550134
 20
-48.87928285605701
 30
0.0
 11
12.0
 21
3.6292099870939615e-16
 31
0.0
 40
0.39718302370189007
 41
4.131238191904857
 42
5.702034518699754
  0
LINE
  5
D3
330
17
100
AcDbEntity
  8
visible
100
AcDbLine
 10
-57.9756839537706
 20
-36.29137267593915
 30
0.0
 11
5.5475052241557705
 21
-52.86301954335322
 31
0.0
  0
ELLIPSE
  5
D4
330
17
100
AcDbEntity
  8
visible
100
AcDbEllipse
 10
-51.38784997037623
 20
-32.30763598864294
 30
0.0
 11
12.0
 21
3.6292099870939615e-16
 31
0.0
 40
0.39718302370189007
 41
3.141592653589793
 42
4.131238191904857
  0
LINE
  5
D5
330
17
100
AcDbEntity
  8
visible
100
AcDbLine
 10
47.92161347126375
 20
-52.47889914771919
 30
0.0
 11
48.40685514669099
 21
-52.605486836319166
 31
0.0
  0
ELLIPSE
  5
D6
330
17
100
AcDbEntity
  8
visible
100
AcDbEllipse
 10
23.500725293495147
 20
-66.13846521284847
 30
0.0
 11
-0.7572819553776586
 21
-2.9028475743757873
 31
0.0
 40
0.503826245710643
 41
1.0298950635162107
 42
2.1116975900735833
  0
LINE
  5
D7
330
17
100
AcDbEntity
  8
visible
100
AcDbLine
 10
-7.407882042395002
 20
-68.44054732348982
 30
0.0
 11
-7.794505548261533
 21
-68.33968670404083
 31
0.0
  0
LINE
  5
D8
330
17
100
AcDbEntity
  8
visible
100
AcDbLine
 10
-7.794505548261535
 20
-68.33968670404083
 30
0.0
 11
-7.407882042395002
 21
-68.10589115783036
 31
0.0
  0
LINE
  5
D9
330
17
100
AcDbEntity
  8
visible
100
AcDbLine
 10
-27.658798822425265
 20
-52.96850084588763
 30
0.0
 11
-28.44443139828559
 21
-50.43290265141828
 31
0.0
  0
LINE
  5
DA
330
17
100
AcDbEntity
  8
visible
100
AcDbLine
 10
24.633572053040037
 20
-66.10748895440965
 30
0.0
 11
25.034873885636976
 21
-66.21217879040664
 31
0.0
  0
LINE
  5
DB
330
17
100
AcDbEntity
  8
visible
100
AcDbLine
 10
-28.44443139828559
 20
-50.43290265141829
 30
0.0
 11
-28.77382309745531
 21
-50.6320894857831
 31
0.0
  0
LINE
  5
DC
330
17
100
AcDbEntity
  8
visible
100
AcDbLine
 10
-27.988190521594976
 20
-53.16768768025244
 30
0.0
 11
-28.773823097455303
 21
-50.63208948578309
 31
0.0
  0
LINE
  5
DD
330
17
100
AcDbEntity
  8
visible
100
AcDbLine
 10
-27.658798822425265
 20
-52.96850084588763
 30
0.0
 11
-27.988190521594984
 21
-53.16768768025244
 31
0.0
  0
LINE
  5
DE
330
17
100
AcDbEntity
  8
visible
100
AcDbLine
 10
-28.773823097455303
 20
-50.63208948578309
 30
0.0
 11
-29.55659882758523
 21
-52.75852830196636
 31
0.0
  0
LINE
  5
DF
330
17
100
AcDbEntity
  8
visible
100
AcDbLine
 10
-29.55659882758523
 20
-52.758528301966365
 30
0.0
 11
-27.988190521594976
 21
-53.16768768025245
 31
0.0
  0
ELLIPSE
  5
E0
330
17
100
AcDbEntity
  8
visible
100
AcDbEllipse
 10
-46.073663891170085
 20
-25.888118682401995
 30
0.0
 11
3.2
 21
9.677893298917231e-17
 31
0.0
 40
0.39718302370189007
 41
2.3836867166028126
 42
3.141592653589793
  0
ELLIPSE
  5
E1
330
17
100
AcDbEntity
  8
visible
100
AcDbEllipse
 10
-46.073663891170085
 20
-25.888118682401995
 30
0.0
 11
3.2
 21
9.677893298917231e-17
 31
0.0
 40
0.39718302370189007
 41
3.141592653589793
 42
4.4753376305844945
  0
ELLIPSE
  5
E2
330
17
100
AcDbEntity
  8
visible
100
AcDbEllipse
 10
4.076222301929672
 20
-38.970997788255204
 30
0.0
 11
3.2
 21
9.677893298917231e-17
 31
0.0
 40
0.39718302370189007
 41
5.702034518699754
 42
6.283185307179586
  0
ELLIPSE
  5
E3
330
17
100
AcDbEntity
  8
visible
100
AcDbEllipse
 10
4.076222301929672
 20
-38.970997788255204
 30
0.0
 11
3.2
 21
9.677893298917231e-17
 31
0.0
 40
0.39718302370189007
 41
0.0
 42
0.1921267349289093
  0
ELLIPSE
  5
E4
330
17
100
AcDbEntity
  8
visible
100
AcDbEllipse
 10
4.076222301929672
 20
-38.970997788255204
 30
0.0
 11
3.2
 21
9.677893298917231e-17
 31
0.0
 40
0.39718302370189007
 41
3.293435192702627
 42
5.702034518699754
  0
ELLIPSE
  5
E5
330
17
100
AcDbEntity
  8
visible
100
AcDbEllipse
 10
-46.073663891170085
 20
-27.7235975253016
 30
0.0
 11
3.2
 21
9.677893298917231e-17
 31
0.0
 40
0.39718302370189007
 41
1.9699077192325751
 42
2.33480425100415
  0
ELLIPSE
  5
E6
330
17
100
AcDbEntity
  8
visible
100
AcDbEllipse
 10
4.076222301929672
 20
-40.80647663115481
 30
0.0
 11
3.2
 21
9.677893298917231e-17
 31
0.0
 40
0.39718302370189007
 41
0.8067884025856469
 42
2.3348042510041456
  0
ELLIPSE
  5
E7
330
17
100
AcDbEntity
  8
visible
100
AcDbEllipse
 10
4.076222301929672
 20
-40.80647663115481
 30
0.0
 11
1.65
 21
4.990163732254197e-17
 31
0.0
 40
0.39718302370189007
 41
1.1371239148013317
 42
2.0044687387884617
  0
LINE
  5
E8
330
17
100
AcDbEntity
  8
visible
100
AcDbLine
 10
21.255371877854223
 20
-22.202755886927875
 30
0.0
 11
17.91204613164757
 21
-21.33056394653766
 31
0.0
  0
ELLIPSE
  5
E9
330
17
100
AcDbEntity
  8
visible
100
AcDbEllipse
 10
21.694560810080517
 20
-21.93717344110813
 30
0.0
 11
-0.20194185476737583
 21
-0.7740926865002099
 31
0.0
 40
0.5038262457106429
 41
5.190166083854647
 42
6.283185307179586
  0
ELLIPSE
  5
EA
330
17
100
AcDbEntity
  8
visible
100
AcDbEllipse
 10
18.351235063873865
 20
-21.06498150071792
 30
0.0
 11
-0.20194185476737583
 21
-0.7740926865002099
 31
0.0
 40
0.5038262457106429
 41
5.190166083854647
 42
6.255601900365159
  0
ELLIPSE
  5
EB
330
17
100
AcDbEntity
  8
visible
100
AcDbEllipse
 10
20.65697695806189
 20
-19.67067366016424
 30
0.0
 11
-5.0
 21
-3.024341655911636e-16
 31
0.0
 40
0.3971830237018901
 41
-6.283185307179586
 42
-5.293539768864522
  0
SPLINE
  5
EC
330
17
100
AcDbEntity
  8
visible
100
AcDbSpline
 70
0
 71
2
 72
6
 73
3
 74
0
 40
0.0
 40
0.0
 40
0.0
 40
0.4348136495064284
 40
0.4348136495064284
 40
0.4348136495064284
 10
16.140271828249706
 20
-12.844976877866642
 30
0.0
 10
15.970392416302298
 20
-12.866985135580103
 30
0.0
 10
15.963907085325143
 20
-12.879017750282582
 30
0.0
  0
SPLINE
  5
ED
330
17
100
AcDbEntity
  8
visible
100
AcDbSpline
 70
0
 71
1
 72
4
 73
2
 74
0
 40
0.0
 40
0.0
 40
1.0
 40
1.0
 10
15.963907085325143
 20
-12.879017750282582
 30
0.0
 10
15.963721133463974
 20
-12.88114783637451
 30
0.0
  0
SPLINE
  5
EE
330
17
100
AcDbEntity
  8
visible
100
AcDbSpline
 70
0
 71
2
 72
6
 73
3
 74
0
 40
0.0
 40
0.0
 40
0.0
 40
1.0
 40
1.0
 40
1.0
 10
16.14027182824966
 20
-12.844976877866609
 30
0.0
 10
16.289352420593445
 20
-12.827072242051475
 30
0.0
 10
16.483243351353018
 20
-12.876676585421343
 30
0.0
  0
SPLINE
  5
EF
330
17
100
AcDbEntity
  8
visible
100
AcDbSpline
 70
0
 71
3
 72
8
 73
4
 74
0
 40
0.0
 40
0.0
 40
0.0
 40
0.0
 40
0.7235244618992686
 40
0.7235244618992686
 40
0.7235244618992686
 40
0.7235244618992686
 10
19.781437986723937
 20
-13.73709492248365
 30
0.0
 10
20.048620347585796
 20
-13.80879690579216
 30
0.0
 10
20.433445321718033
 20
-13.789527904824096
 30
0.0
 10
20.710543705271235
 20
-13.704461507481536
 30
0.0
  0
LINE
  5
F0
330
17
100
AcDbEntity
  8
visible
100
AcDbLine
 10
19.7814384882228
 20
-13.737095053312444
 30
0.0
 11
16.483243351353014
 21
-12.876676585421334
 31
0.0
  0
ELLIPSE
  5
F1
330
17
100
AcDbEntity
  8
visible
100
AcDbEllipse
 10
-3.7056565882099903
 20
-20.50386635685637
 30
0.0
 11
46.0
 21
2.7823943234387053e-15
 31
0.0
 40
0.39718302370189024
 41
3.141592653589793
 42
6.283185307179586
  0
ELLIPSE
  5
F2
330
17
100
AcDbEntity
  8
visible
100
AcDbEllipse
 10
-3.7056565882099903
 20
-7.563740514414107
 30
0.0
 11
-46.0
 21
-0.0
 31
0.0
 40
0.39718302370189007
 41
-6.283185307179586
 42
-4.125547252216316
  0
ELLIPSE
  5
F3
330
17
100
AcDbEntity
  8
visible
100
AcDbEllipse
 10
-3.7056565882099903
 20
-6.829548977254262
 30
0.0
 11
-45.2
 21
-2.7340048569441187e-15
 31
0.0
 40
0.39718302370189
 41
-6.443749761057791
 42
-4.17094708457804
  0
SPLINE
  5
F4
330
17
100
AcDbEntity
  8
visible
100
AcDbSpline
 70
0
 71
3
 72
8
 73
4
 74
0
 40
0.0
 40
0.0
 40
0.0
 40
0.0
 40
0.7853712404132052
 40
0.7853712404132052
 40
0.7853712404132052
 40
0.7853712404132052
 10
20.312803690690046
 20
-22.31089833080577
 30
0.0
 10
20.127718886502194
 20
-22.354270944956824
 30
0.0
 10
19.90469808510461
 20
-22.29615843287586
 30
0.0
 10
19.72692667700051
 20
-22.250640184829315
 30
0.0
  0
SPLINE
  5
F5
330
17
100
AcDbEntity
  8
visible
100
AcDbSpline
 70
0
 71
2
 72
6
 73
3
 74
0
 40
0.0
 40
0.0
 40
0.0
 40
1.0
 40
1.0
 40
1.0
 10
19.726926677000506
 20
-22.250640184829315
 30
0.0
 10
19.65262374442468
 20
-22.231072429002502
 30
0.0
 10
19.589166097625736
 20
-22.214387314514298
 30
0.0
  0
LINE
  5
F6
330
17
100
AcDbEntity
  8
visible
100
AcDbLine
 10
19.58916609762626
 20
-22.214387314514166
 30
0.0
 11
18.13861363632998
 21
-21.835973644445897
 31
0.0
  0
ELLIPSE
  5
F7
330
17
100
AcDbEntity
  8
visible
100
AcDbEllipse
 10
20.65697695806189
 20
-20.313091255179103
 30
0.0
 11
-4.587298334620749
 21
-2.7747114882975215e-16
 31
0.0
 40
0.3971830237018901
 41
-5.384979105046639
 42
-5.293539768864523
  0
ELLIPSE
  5
F8
330
17
100
AcDbEntity
  8
visible
100
AcDbEllipse
 10
-8.097545910472903
 20
-9.485373435451734
 30
0.0
 11
2.25
 21
6.804768725801178e-17
 31
0.0
 40
0.39718302370189007
 41
5.702034518699754
 42
6.283185307179586
  0
ELLIPSE
  5
F9
330
17
100
AcDbEntity
  8
visible
100
AcDbEllipse
 10
-8.097545910472903
 20
-9.485373435451734
 30
0.0
 11
2.25
 21
6.804768725801178e-17
 31
0.0
 40
0.39718302370189007
 41
0.0
 42
3.141592653589793
  0
ELLIPSE
  5
FA
330
17
100
AcDbEntity
  8
visible
100
AcDbEllipse
 10
-8.097545910472903
 20
-9.485373435451734
 30
0.0
 11
2.25
 21
6.804768725801178e-17
 31
0.0
 40
0.39718302370189007
 41
3.141592653589793
 42
5.702034518699754
  0
LINE
  5
FB
330
17
100
AcDbEntity
  8
visible
100
AcDbLine
 10
36.67639326028389
 20
46.45130220702176
 30
0.0
 11
34.48044859915243
 21
45.123389977923026
 31
0.0
  0
ELLIPSE
  5
FC
330
17
100
AcDbEntity
  8
visible
100
AcDbEllipse
 10
34.480448599152425
 20
28.60408039182653
 30
0.0
 11
4.543691732265956
 21
17.41708544625472
 31
0.0
 40
0.5038262457106429
 41
-5.805408203709629
 42
-4.234611876914732
  0
LINE
  5
FD
330
17
100
AcDbEntity
  8
visible
100
AcDbLine
 10
24.598697624060875
 20
22.628475360882227
 30
0.0
 11
24.598697624060875
 21
18.957517675083004
 31
0.0
  0
LINE
  5
FE
330
17
100
AcDbEntity
  8
visible
100
AcDbLine
 10
24.598697624060875
 20
18.957517675083004
 30
0.0
 11
24.598697624060875
 21
-7.198055836236456
 31
0.0
  0
ELLIPSE
  5
FF
330
17
100
AcDbEntity
  8
visible
100
AcDbEllipse
 10
34.480448599152425
 20
-1.222450805292148
 30
0.0
 11
4.543691732265956
 21
17.41708544625472
 31
0.0
 40
0.5038262457106429
 41
-4.234611876914732
 42
-3.6550275364963767
  0
SPLINE
  5
100
330
17
100
AcDbEntity
  8
visible
100
AcDbSpline
 70
0
 71
2
 72
6
 73
3
 74
0
 40
0.0
 40
0.0
 40
0.0
 40
1.0
 40
1.0
 40
1.0
 10
26.212482728943936
 20
-15.269414779568372
 30
0.0
 10
26.042179426935903
 20
-15.19008806970788
 30
0.0
 10
25.88931458207484
 20
-15.149739922651163
 30
0.0
  0
LINE
  5
101
330
17
100
AcDbEntity
  8
visible
100
AcDbLine
 10
25.889314582074828
 20
-15.149739922651175
 30
0.0
 11
21.009511564087347
 21
-13.876718630062639
 31
0.0
  0
SPLINE
  5
102
330
17
100
AcDbEntity
  8
visible
100
AcDbSpline
 70
0
 71
2
 72
6
 73
3
 74
0
 40
0.0
 40
0.0
 40
0.0
 40
1.0
 40
1.0
 40
1.0
 10
26.212482728845302
 20
-15.269414778736085
 30
0.0
 10
26.416415686515407
 20
-15.088142498129745
 30
0.0
 10
26.640583126287595
 20
-14.957151229037422
 30
0.0
  0
ELLIPSE
  5
103
330
17
100
AcDbEntity
  8
visible
100
AcDbEllipse
 10
36.67639326028389
 20
0.10546142380658807
 30
0.0
 11
4.543691732265956
 21
17.41708544625472
 31
0.0
 40
0.5038262457106429
 41
-1.6726035637432939
 42
-1.3244835141427354
  0
SPLINE
  5
104
330
17
100
AcDbEntity
  8
visible
100
AcDbSpline
 70
0
 71
3
 72
8
 73
4
 74
0
 40
0.0
 40
0.0
 40
0.0
 40
0.0
 40
1.0
 40
1.0
 40
1.0
 40
1.0
 10
44.94435913059102
 20
-3.942040192243663
 30
0.0
 10
44.8093010422416
 20
-3.98202627864433
 30
0.0
 10
44.66480647623283
 20
-4.057709362770584
 30
0.0
 10
44.516258733148725
 20
-4.147530812864339
 30
0.0
  0
LINE
  5
105
330
17
100
AcDbEntity
  8
visible
100
AcDbLine
 10
44.516258733148725
 20
-4.147530812864341
 30
0.0
 11
26.64058312628759
 21
-14.957151229037416
 31
0.0
  0
ELLIPSE
  5
106
330
17
100
AcDbEntity
  8
visible
100
AcDbEllipse
 10
35.578420929718156
 20
25.597078820576684
 30
0.0
 11
-5.0485463691843915
 21
-19.352317162505248
 31
0.0
 40
0.503826245710643
 41
5.190166083854647
 42
6.283185307179586
  0
ELLIPSE
  5
107
330
17
100
AcDbEntity
  8
visible
100
AcDbEllipse
 10
41.0682825825468
 20
0.008067617654646142
 30
0.0
 11
-0.567961466533244
 21
-2.1771356807818405
 31
0.0
 40
0.503826245710643
 41
0.47777710346995755
 42
3.1415926535897936
  0
ELLIPSE
  5
108
330
17
100
AcDbEntity
  8
visible
100
AcDbEllipse
 10
41.0682825825468
 20
0.008067617654646142
 30
0.0
 11
-0.567961466533244
 21
-2.1771356807818405
 31
0.0
 40
0.503826245710643
 41
3.1415926535897936
 42
6.283185307179586
  0
ELLIPSE
  5
109
330
17
100
AcDbEntity
  8
visible
100
AcDbEllipse
 10
41.0682825825468
 20
0.008067617654646142
 30
0.0
 11
-0.567961466533244
 21
-2.1771356807818405
 31
0.0
 40
0.503826245710643
 41
0.0
 42
0.4777771034699576
  0
ELLIPSE
  5
10A
330
17
100
AcDbEntity
  8
visible
100
AcDbEllipse
 10
30.088559276889512
 20
-6.631493527839034
 30
0.0
 11
-0.567961466533244
 21
-2.1771356807818405
 31
0.0
 40
0.503826245710643
 41
0.47777710346995755
 42
3.1415926535897936
  0
ELLIPSE
  5
10B
330
17
100
AcDbEntity
  8
visible
100
AcDbEllipse
 10
30.088559276889512
 20
-6.631493527839034
 30
0.0
 11
-0.567961466533244
 21
-2.1771356807818405
 31
0.0
 40
0.503826245710643
 41
3.1415926535897936
 42
6.283185307179586
  0
ELLIPSE
  5
10C
330
17
100
AcDbEntity
  8
visible
100
AcDbEllipse
 10
30.088559276889512
 20
-6.631493527839034
 30
0.0
 11
-0.567961466533244
 21
-2.1771356807818405
 31
0.0
 40
0.503826245710643
 41
0.0
 42
0.4777771034699576
  0
ELLIPSE
  5
10D
330
17
100
AcDbEntity
  8
visible
100
AcDbEllipse
 10
28.58406269109652
 20
-6.23900715466344
 30
0.0
 11
-0.567961466533244
 21
-2.1771356807818405
 31
0.0
 40
0.503826245710643
 41
0.7556968097388026
 42
2.385895843850991
  0
ELLIPSE
  5
10E
330
17
100
AcDbEntity
  8
visible
100
AcDbEllipse
 10
28.58406269109652
 20
-6.23900715466344
 30
0.0
 11
-0.29029141622810245
 21
-1.1127582368440516
 31
0.0
 40
0.503826245710643
 41
0.9524960221121626
 42
2.1890966314776357
  0
ELLIPSE
  5
10F
330
17
100
AcDbEntity
  8
visible
100
AcDbEllipse
 10
39.56378599675381
 20
0.40055399083023957
 30
0.0
 11
-0.29029141622810245
 21
-1.1127582368440516
 31
0.0
 40
0.503826245710643
 41
0.9524960221121596
 42
2.1890966314776357
  0
ELLIPSE
  5
110
330
17
100
AcDbEntity
  8
visible
100
AcDbEllipse
 10
39.56378599675381
 20
0.40055399083023957
 30
0.0
 11
-0.567961466533244
 21
-2.1771356807818405
 31
0.0
 40
0.503826245710643
 41
0.7556968097388019
 42
2.385895843850991
  0
ELLIPSE
  5
111
330
17
100
AcDbEntity
  8
visible
100
AcDbEllipse
 10
56.28041472778706
 20
32.29030143614649
 30
0.0
 11
-0.29029141622810245
 21
-1.1127582368440516
 31
0.0
 40
0.503826245710643
 41
0.9524960221121657
 42
2.189096631477629
  0
ELLIPSE
  5
112
330
17
100
AcDbEntity
  8
visible
100
AcDbEllipse
 10
56.28041472778706
 20
32.29030143614649
 30
0.0
 11
-0.567961466533244
 21
-2.1771356807818405
 31
0.0
 40
0.503826245710643
 41
0.9732412900525304
 42
2.3858958438509843
  0
ELLIPSE
  5
113
330
17
100
AcDbEntity
  8
visible
100
AcDbEllipse
 10
57.784911313580054
 20
31.897815062970892
 30
0.0
 11
-0.567961466533244
 21
-2.1771356807818405
 31
0.0
 40
0.503826245710643
 41
0.7581135176116113
 42
3.1415926535897936
  0
ELLIPSE
  5
114
330
17
100
AcDbEntity
  8
visible
100
AcDbEllipse
 10
57.784911313580054
 20
31.897815062970892
 30
0.0
 11
-0.567961466533244
 21
-2.1771356807818405
 31
0.0
 40
0.503826245710643
 41
3.1415926535897936
 42
5.303716953373746
  0
ELLIPSE
  5
115
330
17
100
AcDbEntity
  8
visible
100
AcDbEllipse
 10
52.29504966075141
 20
21.23611911862561
 30
0.0
 11
-5.0485463691843915
 21
-19.352317162505248
 31
0.0
 40
0.503826245710643
 41
5.473960193062986
 42
6.283185307179586
  0
ELLIPSE
  5
116
330
17
100
AcDbEntity
  8
visible
100
AcDbEllipse
 10
52.29504966075141
 20
21.23611911862561
 30
0.0
 11
-5.0485463691843915
 21
-19.352317162505248
 31
0.0
 40
0.503826245710643
 41
0.0
 42
0.4777771034699576
  0
ELLIPSE
  5
117
330
17
100
AcDbEntity
  8
visible
100
AcDbEllipse
 10
52.29504966075141
 20
21.23611911862561
 30
0.0
 11
-5.0485463691843915
 21
-19.352317162505248
 31
0.0
 40
0.503826245710643
 41
0.47777710346995755
 42
1.764779321056524
  0
ELLIPSE
  5
118
330
17
100
AcDbEntity
  8
visible
100
AcDbEllipse
 10
52.29504966075141
 20
21.23611911862561
 30
0.0
 11
-5.0485463691843915
 21
-19.352317162505248
 31
0.0
 40
0.503826245710643
 41
2.352060723832195
 42
3.1415926535897936
  0
ELLIPSE
  5
119
330
17
100
AcDbEntity
  8
visible
100
AcDbEllipse
 10
52.29504966075141
 20
21.23611911862561
 30
0.0
 11
-5.0485463691843915
 21
-19.352317162505248
 31
0.0
 40
0.503826245710643
 41
3.1415926535897936
 42
4.886678790287307
  0
ELLIPSE
  5
11A
330
17
100
AcDbEntity
  8
visible
100
AcDbEllipse
 10
46.805188007922766
 20
25.25825391747722
 30
0.0
 11
-0.567961466533244
 21
-2.1771356807818405
 31
0.0
 40
0.503826245710643
 41
1.8547113062348968
 42
3.1415926535897936
  0
ELLIPSE
  5
11B
330
17
100
AcDbEntity
  8
visible
100
AcDbEllipse
 10
46.805188007922766
 20
25.25825391747722
 30
0.0
 11
-0.567961466533244
 21
-2.1771356807818405
 31
0.0
 40
0.503826245710643
 41
3.1415926535897936
 42
6.283185307179586
  0
ELLIPSE
  5
11C
330
17
100
AcDbEntity
  8
visible
100
AcDbEllipse
 10
46.805188007922766
 20
25.25825391747722
 30
0.0
 11
-0.567961466533244
 21
-2.1771356807818405
 31
0.0
 40
0.503826245710643
 41
0.0
 42
0.4777771034699576
  0
ELLIPSE
  5
11D
330
17
100
AcDbEntity
  8
visible
100
AcDbEllipse
 10
46.805188007922766
 20
25.25825391747722
 30
0.0
 11
-0.567961466533244
 21
-2.1771356807818405
 31
0.0
 40
0.503826245710643
 41
0.47777710346995755
 42
0.49031945309842206
  0
ELLIPSE
  5
11E
330
17
100
AcDbEntity
  8
visible
100
AcDbEllipse
 10
52.29504966075141
 20
17.565161432826386
 30
0.0
 11
3.520454919203335
 21
13.494767636200027
 31
0.0
 40
0.5038262457106429
 41
-3.4850532086082797
 42
-3.286390032278983
  0
ELLIPSE
  5
11F
330
17
100
AcDbEntity
  8
visible
100
AcDbEllipse
 10
52.29504966075141
 20
17.565161432826386
 30
0.0
 11
3.520454919203335
 21
13.494767636200027
 31
0.0
 40
0.5038262457106429
 41
-5.008774129452069
 42
-3.4850532086082797
  0
ELLIPSE
  5
120
330
17
100
AcDbEntity
  8
visible
100
AcDbEllipse
 10
52.29504966075141
 20
17.565161432826386
 30
0.0
 11
3.520454919203335
 21
13.494767636200027
 31
0.0
 40
0.5038262457106429
 41
-5.9397247521611
 42
-5.21256572557378
  0
ELLIPSE
  5
121
330
17
100
AcDbEntity
  8
visible
100
AcDbEllipse
 10
52.29504966075141
 20
17.565161432826386
 30
0.0
 11
3.520454919203335
 21
13.494767636200027
 31
0.0
 40
0.5038262457106429
 41
-6.138387928490342
 42
-5.9397247521611
  0
LINE
  5
122
330
17
100
AcDbEntity
  8
visible
100
AcDbLine
 10
46.83837576097683
 20
23.184682345908545
 30
0.0
 11
47.1224423734695
 21
23.11057631234865
 31
0.0
  0
SPLINE
  5
123
330
17
100
AcDbEntity
  8
visible
100
AcDbSpline
 70
0
 71
1
 72
4
 73
2
 74
0
 40
0.0
 40
0.0
 40
1.0
 40
1.0
 10
46.83837576097683
 20
23.18468234590854
 30
0.0
 10
46.820680148694706
 20
23.202870903741186
 30
0.0
  0
LINE
  5
124
330
17
100
AcDbEntity
  8
visible
100
AcDbLine
 10
45.796466613395516
 20
23.456490967060798
 30
0.0
 11
46.805188007922766
 21
23.193340219215163
 31
0.0
  0
ELLIPSE
  5
125
330
17
100
AcDbEntity
  8
visible
100
AcDbEllipse
 10
45.30069142212977
 20
25.650740290652806
 30
0.0
 11
-0.567961466533244
 21
-2.1771356807818405
 31
0.0
 40
0.503826245710643
 41
0.7556968097388067
 42
2.3858958438509976
  0
SPLINE
  5
126
330
17
100
AcDbEntity
  8
visible
100
AcDbSpline
 70
0
 71
2
 72
6
 73
3
 74
0
 40
0.0
 40
0.0
 40
0.0
 40
1.0
 40
1.0
 40
1.0
 10
48.191650280416695
 20
25.62148122531576
 30
0.0
 10
48.102173762829274
 20
25.644708376626937
 30
0.0
 10
48.01726816288827
 20
25.593406477347912
 30
0.0
  0
LINE
  5
127
330
17
100
AcDbEntity
  8
visible
100
AcDbLine
 10
48.19165028041668
 20
25.62148122531576
 30
0.0
 11
48.35881656772702
 21
25.57787162829625
 31
0.0
  0
ELLIPSE
  5
128
330
17
100
AcDbEntity
  8
visible
100
AcDbEllipse
 10
45.30069142212977
 20
25.650740290652806
 30
0.0
 11
-0.29029141622810245
 21
-1.1127582368440516
 31
0.0
 40
0.503826245710643
 41
0.9524960221121596
 42
2.1890966314776366
  0
LINE
  5
129
330
17
100
AcDbEntity
  8
visible
100
AcDbLine
 10
46.94693447379222
 20
23.134796268194805
 30
0.0
 11
47.114100761102556
 21
23.091186671175294
 31
0.0
  0
SPLINE
  5
12A
330
17
100
AcDbEntity
  8
visible
100
AcDbSpline
 70
0
 71
2
 72
6
 73
3
 74
0
 40
0.0
 40
0.0
 40
0.0
 40
1.0
 40
1.0
 40
1.0
 10
46.946934473792226
 20
23.13479626819479
 30
0.0
 10
46.8769967207493
 20
23.152914737247237
 30
0.0
 10
46.83837576097683
 20
23.18468234590854
 30
0.0
  0
ELLIPSE
  5
12B
330
17
100
AcDbEntity
  8
visible
100
AcDbEllipse
 10
52.62938223537208
 20
17.477942238787364
 30
0.0
 11
-3.5339824584290738
 21
-13.546622013753673
 31
0.0
 40
0.503826245710643
 41
4.208506084484696
 42
4.41970998202821
  0
SPLINE
  5
12C
330
17
100
AcDbEntity
  8
visible
100
AcDbSpline
 70
0
 71
3
 72
8
 73
4
 74
0
 40
0.0
 40
0.0
 40
0.0
 40
0.0
 40
1.0
 40
1.0
 40
1.0
 40
1.0
 10
62.96530987553638
 20
31.435351479919635
 30
0.0
 10
62.954980862929915
 20
31.977003646402995
 30
0.0
 10
62.885176503378716
 20
32.525116656594165
 30
0.0
 10
62.77300089023311
 20
33.05758054617475
 30
0.0
  0
SPLINE
  5
12D
330
17
100
AcDbEntity
  8
visible
100
AcDbSpline
 70
0
 71
1
 72
4
 73
2
 74
0
 40
0.0
 40
0.0
 40
1.0
 40
1.0
 10
62.966918889780345
 20
31.255273176890025
 30
0.0
 10
62.96530987554655
 20
31.435351480018003
 30
0.0
  0
SPLINE
  5
12E
330
17
100
AcDbEntity
  8
visible
100
AcDbSpline
 70
0
 71
3
 72
8
 73
4
 74
0
 40
0.0
 40
0.0
 40
0.0
 40
0.0
 40
1.0
 40
1.0
 40
1.0
 40
1.0
 10
62.9669188817902
 20
24.313799359297168
 30
0.0
 10
62.96659087806604
 20
23.69957539115144
 30
0.0
 10
62.93113386709179
 20
23.079435462636543
 30
0.0
 10
62.8355840341824
 20
22.470757058180624
 30
0.0
  0
SPLINE
  5
12F
330
17
100
AcDbEntity
  8
visible
100
AcDbSpline
 70
0
 71
3
 72
8
 73
4
 74
0
 40
0.0
 40
0.0
 40
0.0
 40
0.0
 40
1.0
 40
1.0
 40
1.0
 40
1.0
 10
41.81709843126971
 20
20.38531259716386
 30
0.0
 10
41.70406907537388
 20
19.716664751019238
 30
0.0
 10
41.58622428339297
 20
19.0550782057653
 30
0.0
 10
41.449534182892435
 20
18.424521941944832
 30
0.0
  0
SPLINE
  5
130
330
17
100
AcDbEntity
  8
visible
100
AcDbSpline
 70
0
 71
3
 72
8
 73
4
 74
0
 40
0.0
 40
0.0
 40
0.0
 40
0.0
 40
0.9999998493091814
 40
0.9999998493091814
 40
0.9999998493091814
 40
0.9999998493091814
 10
40.6466612058528
 20
14.770996361209994
 30
0.0
 10
40.86839360151064
 20
15.936763694793253
 30
0.0
 10
41.169367455711146
 20
17.147712270759918
 30
0.0
 10
41.44953418274927
 20
18.42452194195046
 30
0.0
  0
SPLINE
  5
131
330
17
100
AcDbEntity
  8
visible
100
AcDbSpline
 70
0
 71
3
 72
11
 73
7
 74
0
 40
0.0
 40
0.0
 40
0.0
 40
0.0
 40
0.6557507203968209
 40
0.6557507203968209
 40
0.6557507203968209
 40
1.0
 40
1.0
 40
1.0
 40
1.0
 10
40.6466612058528
 20
14.770996361209995
 30
0.0
 10
40.85132306019808
 20
13.590130060039602
 30
0.0
 10
41.12191656750981
 20
12.443815803361225
 30
0.0
 10
41.383301048039684
 20
11.358969943188626
 30
0.0
 10
41.518837903845245
 20
10.792350250764674
 30
0.0
 10
41.652754852355535
 20
10.241299107293717
 30
0.0
 10
41.75451528732042
 20
9.722799658832768
 30
0.0
  0
ELLIPSE
  5
132
330
17
100
AcDbEntity
  8
visible
100
AcDbEllipse
 10
52.46221594806175
 20
17.521551835806875
 30
0.0
 11
-3.5339824584290738
 21
-13.546622013753673
 31
0.0
 40
0.503826245710643
 41
3.1415926535897927
 42
4.208506084484696
  0
ELLIPSE
  5
133
330
17
100
AcDbEntity
  8
visible
100
AcDbEllipse
 10
52.46221594806175
 20
17.521551835806875
 30
0.0
 11
-3.5339824584290738
 21
-13.546622013753673
 31
0.0
 40
0.503826245710643
 41
4.419709982028211
 42
6.283185307179586
  0
ELLIPSE
  5
134
330
17
100
AcDbEntity
  8
visible
100
AcDbEllipse
 10
35.578420929718156
 20
25.597078820576684
 30
0.0
 11
-5.0485463691843915
 21
-19.352317162505248
 31
0.0
 40
0.503826245710643
 41
3.1415926535897936
 42
5.190166083854647
  0
ELLIPSE
  5
135
330
17
100
AcDbEntity
  8
visible
100
AcDbEllipse
 10
36.67639326028389
 20
29.93199262092527
 30
0.0
 11
4.543691732265956
 21
17.41708544625472
 31
0.0
 40
0.5038262457106429
 41
-6.283185307179586
 42
-5.805408203709629
  0
ELLIPSE
  5
136
330
17
100
AcDbEntity
  8
visible
100
AcDbEllipse
 10
36.67639326028389
 20
29.93199262092527
 30
0.0
 11
4.543691732265956
 21
17.41708544625472
 31
0.0
 40
0.5038262457106429
 41
-0.5302435663713343
 42
-0.0
  0
SPLINE
  5
137
330
17
100
AcDbEntity
  8
visible
100
AcDbSpline
 70
0
 71
3
 72
8
 73
4
 74
0
 40
0.0
 40
0.0
 40
0.0
 40
0.0
 40
0.43077362424185944
 40
0.43077362424185944
 40
0.43077362424185944
 40
0.43077362424185944
 10
21.009511564087347
 20
-13.876718630062635
 30
0.0
 10
20.851307509793024
 20
-13.835848370918837
 30
0.0
 10
20.741507163873045
 20
-13.767582913677893
 30
0.0
 10
20.702617129809404
 20
-13.69063258088238
 30
0.0
  0
LINE
  5
138
330
17
100
AcDbEntity
  8
visible
100
AcDbLine
 10
-45.78469429536908
 20
3.4272988254529713
 30
0.0
 11
-43.97701357936255
 21
2.955719125781598
 31
0.0
  0
LINE
  5
139
330
17
100
AcDbEntity
  8
visible
100
AcDbLine
 10
-42.66445980439751
 20
40.555944599603805
 30
0.0
 11
-42.66445980439751
 21
10.729413402485125
 31
0.0
  0
ELLIPSE
  5
13A
330
17
100
AcDbEntity
  8
visible
100
AcDbEllipse
 10
-33.22189776153225
 20
16.439435987609684
 30
0.0
 11
4.3417498774985805
 21
16.64299275975451
 31
0.0
 40
0.5038262457106428
 41
-4.234611876914732
 42
-4.0069047324176505
  0
SPLINE
  5
13B
330
17
100
AcDbEntity
  8
visible
100
AcDbSpline
 70
0
 71
3
 72
8
 73
4
 74
0
 40
0.0
 40
0.0
 40
0.0
 40
0.0
 40
0.422570192841988
 40
0.422570192841988
 40
0.422570192841988
 40
0.422570192841988
 10
-45.78469379387021
 20
3.4272986946241772
 30
0.0
 10
-45.940245910883306
 20
3.467492427056653
 30
0.0
 10
-46.0486438348917
 20
3.534395249969596
 30
0.0
 10
-46.08840296393249
 20
3.6100366535741903
 30
0.0
  0
ELLIPSE
  5
13C
330
17
100
AcDbEntity
  8
visible
100
AcDbEllipse
 10
-31.025953100400795
 20
47.59387941382711
 30
0.0
 11
4.3417498774985805
 21
16.64299275975451
 31
0.0
 40
0.5038262457106429
 41
-7.092411795426496
 42
-5.805408203709629
  0
LINE
  5
13D
330
17
100
AcDbEntity
  8
visible
100
AcDbLine
 10
-33.22189776153225
 20
62.05108523366502
 30
0.0
 11
-31.02595310040079
 21
63.378997462763756
 31
0.0
  0
ELLIPSE
  5
13E
330
17
100
AcDbEntity
  8
visible
100
AcDbEllipse
 10
-33.22189776153225
 20
46.26596718472837
 30
0.0
 11
4.3417498774985805
 21
16.64299275975451
 31
0.0
 40
0.5038262457106429
 41
-5.805408203709629
 42
-4.234611876914732
  0
LINE
  5
13F
330
17
100
AcDbEntity
  8
visible
100
AcDbLine
 10
-40.358717910209485
 20
-3.6613968058978585
 30
0.0
 11
-40.358717910209485
 21
0.5060492032624451
 31
0.0
  0
LINE
  5
140
330
17
100
AcDbEntity
  8
visible
100
AcDbLine
 10
-35.54412684060837
 20
-0.7499598864726122
 30
0.0
 11
-40.35871791020948
 21
-3.6613968058978568
 31
0.0
  0
ELLIPSE
  5
141
330
17
100
AcDbEntity
  8
visible
100
AcDbEllipse
 10
-26.634063778137882
 20
53.92066155782379
 30
0.0
 11
-0.2271845866132976
 21
-0.8708542723127362
 31
0.0
 40
0.503826245710643
 41
3.1838276415850304
 42
4.05491187253447
  0
ELLIPSE
  5
142
330
17
100
AcDbEntity
  8
visible
100
AcDbEllipse
 10
-37.61378708379516
 20
11.030393265062798
 30
0.0
 11
-0.2271845866132976
 21
-0.8708542723127362
 31
0.0
 40
0.503826245710643
 41
0.6735689376970893
 42
1.7676842818010785
  0
ELLIPSE
  5
143
330
17
100
AcDbEntity
  8
visible
100
AcDbEllipse
 10
-37.61378708379516
 20
11.030393265062798
 30
0.0
 11
-0.2271845866132976
 21
-0.8708542723127362
 31
0.0
 40
0.503826245710643
 41
4.123235571107162
 42
6.283185307179586
  0
ELLIPSE
  5
144
330
17
100
AcDbEntity
  8
visible
100
AcDbEllipse
 10
-37.61378708379516
 20
11.030393265062798
 30
0.0
 11
-0.2271845866132976
 21
-0.8708542723127362
 31
0.0
 40
0.503826245710643
 41
0.0
 42
0.2819852692428251
  0
ELLIPSE
  5
145
330
17
100
AcDbEntity
  8
visible
100
AcDbEllipse
 10
-37.61378708379516
 20
47.28110041233012
 30
0.0
 11
-0.2271845866132976
 21
-0.8708542723127362
 31
0.0
 40
0.503826245710643
 41
3.165744012006144
 42
4.321034356431316
  0
ELLIPSE
  5
146
330
17
100
AcDbEntity
  8
visible
100
AcDbEllipse
 10
-41.02738305945081
 20
-3.486958417819814
 30
0.0
 11
0.41396554366777655
 21
-0.6845674025659142
 31
0.0
 40
0.7670754590104828
 41
-6.283185307179586
 42
-5.379975506657335
  0
LINE
  5
147
330
17
100
AcDbEntity
  8
visible
100
AcDbLine
 10
-38.017275641606055
 20
10.309688084896223
 30
0.0
 11
-37.6320185947023
 21
10.209183941179676
 31
0.0
  0
LINE
  5
148
330
17
100
AcDbEntity
  8
visible
100
AcDbLine
 10
-41.891761775572405
 20
66.9478128061918
 30
0.0
 11
-44.08770643670386
 21
65.61990057709306
 31
0.0
  0
ELLIPSE
  5
149
330
17
100
AcDbEntity
  8
visible
100
AcDbEllipse
 10
-44.08770643670387
 20
49.100590990996565
 30
0.0
 11
4.543691732265956
 21
17.41708544625472
 31
0.0
 40
0.5038262457106429
 41
-5.805408203709629
 42
-4.234611876914732
  0
LINE
  5
14A
330
17
100
AcDbEntity
  8
visible
100
AcDbLine
 10
-53.96945741179542
 20
43.12498596005226
 30
0.0
 11
-53.96945741179542
 21
39.454028274253034
 31
0.0
  0
LINE
  5
14B
330
17
100
AcDbEntity
  8
visible
100
AcDbLine
 10
-53.96945741179542
 20
39.454028274253034
 30
0.0
 11
-53.96945741179542
 21
13.298454762933574
 31
0.0
  0
ELLIPSE
  5
14C
330
17
100
AcDbEntity
  8
visible
100
AcDbEllipse
 10
-44.08770643670387
 20
19.274059793877882
 30
0.0
 11
4.543691732265956
 21
17.41708544625472
 31
0.0
 40
0.5038262457106429
 41
-4.234611876914732
 42
-3.6550275364963767
  0
SPLINE
  5
14D
330
17
100
AcDbEntity
  8
visible
100
AcDbSpline
 70
0
 71
2
 72
6
 73
3
 74
0
 40
0.0
 40
0.0
 40
0.0
 40
1.0
 40
1.0
 40
1.0
 10
-52.355672306912375
 20
5.227095819601654
 30
0.0
 10
-52.22655396480505
 20
5.228310743593823
 30
0.0
 10
-52.0741366765158
 20
5.1890182464862695
 30
0.0
  0
LINE
  5
14E
330
17
100
AcDbEntity
  8
visible
100
AcDbLine
 10
-52.074136676515806
 20
5.189018246486267
 30
0.0
 11
-47.19433365852832
 21
3.9159969538977295
 31
0.0
  0
ELLIPSE
  5
14F
330
17
100
AcDbEntity
  8
visible
100
AcDbEllipse
 10
-59.70636283717139
 20
50.45454912169778
 30
0.0
 11
-5.048546369184398
 21
-19.352317162505244
 31
0.0
 40
0.5038262457106427
 41
5.473960193062986
 42
6.283185307179586
  0
ELLIPSE
  5
150
330
17
100
AcDbEntity
  8
visible
100
AcDbEllipse
 10
-59.70636283717139
 20
50.45454912169778
 30
0.0
 11
-5.048546369184398
 21
-19.352317162505244
 31
0.0
 40
0.5038262457106427
 41
3.141592653589793
 42
4.886678790287307
  0
SPLINE
  5
151
330
17
100
AcDbEntity
  8
visible
100
AcDbSpline
 70
0
 71
3
 72
8
 73
4
 74
0
 40
0.0
 40
0.0
 40
0.0
 40
0.0
 40
1.0
 40
1.0
 40
1.0
 40
1.0
 10
-70.18431406665309
 20
49.60374260023602
 30
0.0
 10
-70.29648967979551
 20
48.93487203348169
 30
0.0
 10
-70.3662940393616
 20
48.26075291403495
 30
0.0
 10
-70.37662305195636
 20
47.597232132002205
 30
0.0
  0
SPLINE
  5
152
330
17
100
AcDbEntity
  8
visible
100
AcDbSpline
 70
0
 71
3
 72
8
 73
4
 74
0
 40
0.0
 40
0.0
 40
0.0
 40
0.0
 40
0.9452087187909464
 40
0.9452087187909464
 40
0.9452087187909464
 40
0.9452087187909464
 10
-70.01742099358734
 20
43.64054958812608
 30
0.0
 10
-70.22723528461388
 20
44.85254247559747
 30
0.0
 10
-70.37660350935204
 20
46.10507002009105
 30
0.0
 10
-70.37823206620033
 20
47.37686902181442
 30
0.0
  0
SPLINE
  5
153
330
17
100
AcDbEntity
  8
visible
100
AcDbSpline
 70
0
 71
1
 72
4
 73
2
 74
0
 40
0.0
 40
0.0
 40
1.0
 40
1.0
 10
-70.37823206620033
 20
47.376869021814414
 30
0.0
 10
-70.37662305196656
 20
47.59723213197314
 30
0.0
  0
SPLINE
  5
154
330
17
100
AcDbEntity
  8
visible
100
AcDbSpline
 70
0
 71
3
 72
8
 73
4
 74
0
 40
0.0
 40
0.0
 40
0.0
 40
0.0
 40
0.6729053705724208
 40
0.6729053705724208
 40
0.6729053705724208
 40
0.6729053705724208
 10
-70.01742099358732
 20
43.64054958812608
 30
0.0
 10
-70.2272341669661
 20
42.538533480094316
 30
0.0
 10
-70.37672505297306
 20
41.47443796599009
 30
0.0
 10
-70.37823205821019
 20
40.435395175491784
 30
0.0
  0
SPLINE
  5
155
330
17
100
AcDbEntity
  8
visible
100
AcDbSpline
 70
0
 71
3
 72
8
 73
4
 74
0
 40
0.0
 40
0.0
 40
0.0
 40
0.0
 40
1.0
 40
1.0
 40
1.0
 40
1.0
 10
-70.37823205821022
 20
40.435395175491784
 30
0.0
 10
-70.37790405448591
 20
39.93233514433343
 30
0.0
 10
-70.3424470435119
 20
39.43345234583995
 30
0.0
 10
-70.2468972106024
 20
38.94122966190494
 30
0.0
  0
ELLIPSE
  5
156
330
17
100
AcDbEntity
  8
visible
100
AcDbEllipse
 10
-41.891761775572405
 20
50.42850322009531
 30
0.0
 11
4.543691732265956
 21
17.41708544625472
 31
0.0
 40
0.5038262457106429
 41
-6.283185307179586
 42
-5.805408203709629
  0
SPLINE
  5
157
330
17
100
AcDbEntity
  8
visible
100
AcDbSpline
 70
0
 71
3
 72
8
 73
4
 74
0
 40
0.0
 40
0.0
 40
0.0
 40
0.0
 40
0.7307723593378707
 40
0.7307723593378707
 40
0.7307723593378707
 40
0.7307723593378707
 10
-47.19433365852832
 20
3.9159969538977326
 30
0.0
 10
-46.92560955411995
 20
3.8438520968416348
 30
0.0
 10
-46.53871935877001
 20
3.8625963299833743
 30
0.0
 10
-46.262247754315
 20
3.9481756882765957
 30
0.0
  0
LINE
  5
158
330
17
100
AcDbEntity
  8
visible
100
AcDbLine
 10
-47.679448423707484
 20
41.864232510189126
 30
0.0
 11
-47.679448423707484
 21
42.13955433662406
 31
0.0
  0
ELLIPSE
  5
159
330
17
100
AcDbEntity
  8
visible
100
AcDbEllipse
 10
-42.8158427397762
 20
6.139570678772827
 30
0.0
 11
0.41396554366777655
 21
-0.6845674025659142
 31
0.0
 40
0.7670754590104828
 41
-3.809179179862438
 42
-3.141592653589793
  0
LINE
  5
15A
330
17
100
AcDbEntity
  8
visible
100
AcDbLine
 10
-42.8158427397762
 20
6.873762215932658
 30
0.0
 11
-36.393624102109136
 21
10.757349456473506
 31
0.0
  0
ELLIPSE
  5
15B
330
17
100
AcDbEntity
  8
visible
100
AcDbEllipse
 10
-40.97701357936255
 20
6.394056648718049
 30
0.0
 11
-2.2
 21
-6.653551643005597e-17
 31
0.0
 40
0.39718302370189007
 41
-6.864336095659419
 42
-5.293539768864522
  0
LINE
  5
15C
330
17
100
AcDbEntity
  8
visible
100
AcDbLine
 10
5.457608740459927
 20
-6.7650302278468075
 30
0.0
 11
-42.184783142984855
 21
5.663704922713745
 31
0.0
  0
ELLIPSE
  5
15D
330
17
100
AcDbEntity
  8
visible
100
AcDbEllipse
 10
6.665378304082228
 20
-6.0346785018424995
 30
0.0
 11
-2.2
 21
-6.653551643005597e-17
 31
0.0
 40
0.39718302370189007
 41
-5.293539768864522
 42
-3.7227434420696257
  0
LINE
  5
15E
330
17
100
AcDbEntity
  8
visible
100
AcDbLine
 10
14.040743030356886
 20
-3.1663792605211825
 30
0.0
 11
8.504207464495881
 21
-6.514384069057112
 31
0.0
  0
LINE
  5
15F
330
17
100
AcDbEntity
  8
visible
100
AcDbLine
 10
14.04074303035689
 20
0.35718385607575964
 30
0.0
 11
11.656686011125025
 21
0.979126040430363
 31
0.0
  0
ELLIPSE
  5
160
330
17
100
AcDbEntity
  8
visible
100
AcDbEllipse
 10
11.257647577222373
 20
8.425140782648228
 30
0.0
 11
4.139655436677767
 21
-6.84567402565914
 31
0.0
 40
0.7670754590104826
 41
-0.6054191747936644
 42
-0.23830611231539134
  0
ELLIPSE
  5
161
330
17
100
AcDbEntity
  8
visible
100
AcDbEllipse
 10
-35.03121891679717
 20
9.647840019790792
 30
0.0
 11
0.41396554366777655
 21
-0.6845674025659142
 31
0.0
 40
0.7670754590104828
 41
-3.809179179862438
 42
-3.141592653589793
  0
LINE
  5
162
330
17
100
AcDbEntity
  8
visible
100
AcDbLine
 10
-35.03121891679717
 20
10.382031556950636
 30
0.0
 11
-35.01703094864386
 21
10.39061117953873
 31
0.0
  0
LINE
  5
163
330
17
100
AcDbEntity
  8
visible
100
AcDbLine
 10
2.929716270801624
 20
0.4912326561098066
 30
0.0
 11
2.9155283026483083
 21
0.48265303352171074
 31
0.0
  0
ELLIPSE
  5
164
330
17
100
AcDbEntity
  8
visible
100
AcDbEllipse
 10
-34.02822119293518
 20
10.12037397483357
 30
0.0
 11
-1.2
 21
-3.629209987093962e-17
 31
0.0
 40
0.39718302370189007
 41
-6.864336095659419
 42
-5.293539768864522
  0
LINE
  5
165
330
17
100
AcDbEntity
  8
visible
100
AcDbLine
 10
1.2537471804468794
 20
0.34593694690914845
 30
0.0
 11
-34.687004591274615
 21
9.72200030610395
 31
0.0
  0
ELLIPSE
  5
166
330
17
100
AcDbEntity
  8
visible
100
AcDbEllipse
 10
1.912530578786317
 20
0.7443106156387742
 30
0.0
 11
-1.2
 21
-3.629209987093962e-17
 31
0.0
 40
0.39718302370189007
 41
-5.293539768864522
 42
-3.7227434420696257
  0
LINE
  5
167
330
17
100
AcDbEntity
  8
visible
100
AcDbLine
 10
43.25671089198876
 20
-49.56394638342939
 30
0.0
 11
43.52115276895743
 21
-49.63293280333042
 31
0.0
  0
LINE
  5
168
330
17
100
AcDbEntity
  8
visible
100
AcDbLine
 10
43.52115276895743
 20
-50.9397193961947
 30
0.0
 11
39.42846090659068
 21
-53.41461581328813
 31
0.0
  0
LINE
  5
169
330
17
100
AcDbEntity
  8
visible
100
AcDbLine
 10
47.924083908989225
 20
-45.004864963887734
 30
0.0
 11
48.07499300979579
 21
-45.04423345844868
 31
0.0
  0
LINE
  5
16A
330
17
100
AcDbEntity
  8
visible
100
AcDbLine
 10
48.07499300979579
 20
-52.38614883004713
 30
0.0
 11
48.07499300979579
 21
-45.04423345844868
 31
0.0
  0
LINE
  5
16B
330
17
100
AcDbEntity
  8
visible
100
AcDbLine
 10
43.52115276895743
 20
-49.40403543096868
 30
0.0
 11
43.52115276895743
 21
-52.08689367300695
 31
0.0
  0
LINE
  5
16C
330
17
100
AcDbEntity
  8
visible
100
AcDbLine
 10
43.52115276895742
 20
-52.08689367300695
 30
0.0
 11
39.42846090659068
 21
-54.561790090100374
 31
0.0
  0
LINE
  5
16D
330
17
100
AcDbEntity
  8
visible
100
AcDbLine
 10
48.07499300979579
 20
-45.04423345844868
 30
0.0
 11
36.548753976581125
 21
-52.01427875997037
 31
0.0
  0
LINE
  5
16E
330
17
100
AcDbEntity
  8
visible
100
AcDbLine
 10
48.07499300979579
 20
-52.38614883004713
 30
0.0
 11
36.548753976581125
 21
-59.35619413156881
 31
0.0
  0
ELLIPSE
  5
16F
330
17
100
AcDbEntity
  8
visible
100
AcDbEllipse
 10
46.428034513947196
 20
-49.71112531607195
 30
0.0
 11
-0.40388370953475106
 21
-1.54818537300042
 31
0.0
 40
0.5038262457106428
 41
5.190166083854647
 42
6.283185307179586
  0
ELLIPSE
  5
170
330
17
100
AcDbEntity
  8
visible
100
AcDbEllipse
 10
46.428034513947196
 20
-49.71112531607195
 30
0.0
 11
-0.40388370953475106
 21
-1.54818537300042
 31
0.0
 40
0.5038262457106428
 41
0.0
 42
3.141592653589793
  0
ELLIPSE
  5
171
330
17
100
AcDbEntity
  8
visible
100
AcDbEllipse
 10
46.428034513947196
 20
-49.71112531607195
 30
0.0
 11
-0.40388370953475106
 21
-1.54818537300042
 31
0.0
 40
0.5038262457106428
 41
3.141592653589793
 42
5.190166083854647
  0
LINE
  5
172
330
17
100
AcDbEntity
  8
visible
100
AcDbLine
 10
45.19281564206075
 20
-48.39316224667793
 30
0.0
 11
39.428460906590686
 21
-51.87893184806211
 31
0.0
  0
LINE
  5
173
330
17
100
AcDbEntity
  8
visible
100
AcDbLine
 10
45.19281564206075
 20
-48.39316224667793
 30
0.0
 11
45.19281564206075
 21
-52.52298964320205
 31
0.0
  0
LINE
  5
174
330
17
100
AcDbEntity
  8
visible
100
AcDbLine
 10
39.42846090659068
 20
-51.87893184806211
 30
0.0
 11
39.42846090659068
 21
-56.00875924458623
 31
0.0
  0
LINE
  5
175
330
17
100
AcDbEntity
  8
visible
100
AcDbLine
 10
45.19281564206075
 20
-52.52298964320206
 30
0.0
 11
39.428460906590686
 21
-56.00875924458624
 31
0.0
  0
ELLIPSE
  5
176
330
17
100
AcDbEntity
  8
visible
100
AcDbEllipse
 10
38.19324203470424
 20
-54.69079617519221
 30
0.0
 11
-0.40388370953475106
 21
-1.54818537300042
 31
0.0
 40
0.5038262457106428
 41
5.190166083854647
 42
6.283185307179586
  0
ELLIPSE
  5
177
330
17
100
AcDbEntity
  8
visible
100
AcDbEllipse
 10
38.19324203470424
 20
-54.69079617519221
 30
0.0
 11
-0.40388370953475106
 21
-1.54818537300042
 31
0.0
 40
0.5038262457106428
 41
0.0
 42
3.141592653589793
  0
ELLIPSE
  5
178
330
17
100
AcDbEntity
  8
visible
100
AcDbEllipse
 10
38.19324203470424
 20
-54.69079617519221
 30
0.0
 11
-0.40388370953475106
 21
-1.54818537300042
 31
0.0
 40
0.5038262457106428
 41
3.141592653589793
 42
5.190166083854647
  0
LINE
  5
179
330
17
100
AcDbEntity
  8
visible
100
AcDbLine
 10
43.52115276895743
 20
-52.08689367300695
 30
0.0
 11
45.19281564206075
 21
-52.52298964320205
 31
0.0
  0
ELLIPSE
  5
17A
330
17
100
AcDbEntity
  8
visible
100
AcDbEllipse
 10
-17.704803802923024
 20
23.250066263133135
 30
0.0
 11
5.95075469022429
 21
-9.840656411885014
 31
0.0
 40
0.7670754590104826
 41
-6.283185307179586
 42
-5.379975506657335
  0
ELLIPSE
  5
17B
330
17
100
AcDbEntity
  8
visible
100
AcDbEllipse
 10
-17.704803802923024
 20
23.250066263133135
 30
0.0
 11
5.95075469022429
 21
-9.840656411885014
 31
0.0
 40
0.7670754590104826
 41
-5.379975506657335
 42
-3.141592653589793
  0
ELLIPSE
  5
17C
330
17
100
AcDbEntity
  8
visible
100
AcDbEllipse
 10
-18.802776133488752
 20
22.58611014858377
 30
0.0
 11
5.95075469022429
 21
-9.840656411885014
 31
0.0
 40
0.7670754590104826
 41
-6.283185307179586
 42
-5.379975506657335
  0
ELLIPSE
  5
17D
330
17
100
AcDbEntity
  8
visible
100
AcDbEllipse
 10
-18.802776133488752
 20
22.58611014858377
 30
0.0
 11
5.95075469022429
 21
-9.840656411885014
 31
0.0
 40
0.7670754590104826
 41
-3.141592653589793
 42
-2.220446049250313e-16
  0
ELLIPSE
  5
17E
330
17
100
AcDbEntity
  8
visible
100
AcDbEllipse
 10
-18.802776133488752
 20
22.58611014858377
 30
0.0
 11
5.95075469022429
 21
-9.840656411885014
 31
0.0
 40
0.7670754590104826
 41
-5.379975506657335
 42
-3.141592653589793
  0
LINE
  5
17F
330
17
100
AcDbEntity
  8
visible
100
AcDbLine
 10
-57.9756839537706
 20
-42.44022679965285
 30
0.0
 11
-57.9756839537706
 21
-37.39265998167892
 31
0.0
  0
LINE
  5
180
330
17
100
AcDbEntity
  8
visible
100
AcDbLine
 10
-57.9756839537706
 20
-65.10839050946305
 30
0.0
 11
-57.9756839537706
 21
-53.45309985705052
 31
0.0
  0
ELLIPSE
  5
181
330
17
100
AcDbEntity
  8
visible
100
AcDbEllipse
 10
-51.38784997037623
 20
-61.12465382216684
 30
0.0
 11
-12.0
 21
-3.6292099870939615e-16
 31
0.0
 40
0.39718302370189007
 41
-6.283185307179586
 42
-5.293539768864522
  0
LINE
  5
182
330
17
100
AcDbEntity
  8
visible
100
AcDbLine
 10
5.547505224155767
 20
-81.68003737687711
 30
0.0
 11
5.547505224155767
 21
-53.96430684909298
 31
0.0
  0
LINE
  5
183
330
17
100
AcDbEntity
  8
visible
100
AcDbLine
 10
5.547505224155767
 20
-81.68003737687712
 30
0.0
 11
-57.9756839537706
 21
-65.10839050946305
 31
0.0
  0
ELLIPSE
  5
184
330
17
100
AcDbEntity
  8
visible
100
AcDbEllipse
 10
-57.53649502154431
 20
-64.8428080636433
 30
0.0
 11
-0.20194185476737583
 21
-0.7740926865002099
 31
0.0
 40
0.5038262457106429
 41
5.190166083854647
 42
6.283185307179586
  0
ELLIPSE
  5
185
330
17
100
AcDbEntity
  8
visible
100
AcDbEllipse
 10
-57.37179917195944
 20
-36.935710176531785
 30
0.0
 11
-0.1262136592296099
 21
-0.48380792906263115
 31
0.0
 40
0.5038262457106429
 41
5.190166083854647
 42
5.39152400464498
  0
ELLIPSE
  5
186
330
17
100
AcDbEntity
  8
visible
100
AcDbEllipse
 10
-51.38784997037623
 20
-33.317149352237735
 30
0.0
 11
-11.4
 21
-3.4477494877392637e-16
 31
0.0
 40
0.39718302370189007
 41
-6.1520105113319445
 42
-5.293539768864522
  0
LINE
  5
187
330
17
100
AcDbEntity
  8
visible
100
AcDbLine
 10
5.876896923325493
 20
-53.6733460725832
 30
0.0
 11
-57.646292254600866
 21
-37.10169920516913
 31
0.0
  0
ELLIPSE
  5
188
330
17
100
AcDbEntity
  8
visible
100
AcDbEllipse
 10
6.151390005966924
 20
-53.50735704394586
 30
0.0
 11
-0.1262136592296099
 21
-0.48380792906263115
 31
0.0
 40
0.5038262457106429
 41
5.190166083854647
 42
5.39152400464498
  0
ELLIPSE
  5
189
330
17
100
AcDbEntity
  8
visible
100
AcDbEllipse
 10
21.245901865963262
 20
-52.26551925721513
 30
0.0
 11
0.25872846479236034
 21
-0.42785462660369633
 31
0.0
 40
0.7670754590104828
 41
-5.581333427447667
 42
-5.379975506657335
  0
ELLIPSE
  5
18A
330
17
100
AcDbEntity
  8
visible
100
AcDbEllipse
 10
12.13533920755014
 20
-49.888796219651795
 30
0.0
 11
-11.4
 21
-3.4477494877392637e-16
 31
0.0
 40
0.39718302370189007
 41
-5.293539768864522
 42
-3.7227434420696257
  0
LINE
  5
18B
330
17
100
AcDbEntity
  8
visible
100
AcDbLine
 10
53.50501517064521
 20
-33.11981592783224
 30
0.0
 11
21.66381758423909
 21
-52.3745432497639
 31
0.0
  0
ELLIPSE
  5
18C
330
17
100
AcDbEntity
  8
visible
100
AcDbEllipse
 10
53.08709945236938
 20
-33.010791935283464
 30
0.0
 11
0.2587284647923606
 21
-0.4278546266036961
 31
0.0
 40
0.7670754590104831
 41
-5.581333427447667
 42
-5.379975506657335
  0
ELLIPSE
  5
18D
330
17
100
AcDbEntity
  8
visible
100
AcDbEllipse
 10
43.97653679395626
 20
-30.634068897720134
 30
0.0
 11
-11.4
 21
-3.4477494877392637e-16
 31
0.0
 40
0.39718302370189007
 41
-3.7227434420696253
 42
-3.2727674494374344
  0
ELLIPSE
  5
18E
330
17
100
AcDbEntity
  8
visible
100
AcDbEllipse
 10
43.97653679395625
 20
-58.44157336764925
 30
0.0
 11
-12.0
 21
-3.6292099870939615e-16
 31
0.0
 40
0.39718302370189007
 41
-3.722743442069626
 42
-3.141592653589793
  0
ELLIPSE
  5
18F
330
17
100
AcDbEntity
  8
visible
100
AcDbEllipse
 10
12.135339207550134
 20
-77.69630068958091
 30
0.0
 11
-12.0
 21
-3.6292099870939615e-16
 31
0.0
 40
0.39718302370189007
 41
-5.293539768864522
 42
-3.7227434420696257
  0
ELLIPSE
  5
190
330
17
100
AcDbEntity
  8
visible
100
AcDbEllipse
 10
5.986694156382054
 20
-81.41445493105738
 30
0.0
 11
-0.20194185476737583
 21
-0.7740926865002099
 31
0.0
 40
0.5038262457106429
 41
5.190166083854647
 42
6.283185307179586
  0
LINE
  5
191
330
17
100
AcDbEntity
  8
visible
100
AcDbLine
 10
-31.382697232003217
 20
-49.62560247756
 30
0.0
 11
-31.712088931172936
 21
-49.82478931192481
 31
0.0
  0
LINE
  5
192
330
17
100
AcDbEntity
  8
visible
100
AcDbLine
 10
-32.084052858816705
 20
-49.29520612402136
 30
0.0
 11
-32.41344455798642
 21
-49.49439295838617
 31
0.0
  0
LINE
  5
193
330
17
100
AcDbEntity
  8
visible
100
AcDbLine
 10
-33.64389062761576
 20
-49.01845998285355
 30
0.0
 11
-33.97328232678548
 21
-49.21764681721836
 31
0.0
  0
LINE
  5
194
330
17
100
AcDbEntity
  8
visible
100
AcDbLine
 10
-34.20097554504399
 20
-50.65326679537854
 30
0.0
 11
-34.53036724421371
 21
-50.85245362974335
 31
0.0
  0
LINE
  5
195
330
17
100
AcDbEntity
  8
visible
100
AcDbLine
 10
-33.64389062761576
 20
-52.57559647087531
 30
0.0
 11
-33.97328232678548
 21
-52.77478330524012
 31
0.0
  0
LINE
  5
196
330
17
100
AcDbEntity
  8
visible
100
AcDbLine
 10
-32.11833500758152
 20
-53.62446359878082
 30
0.0
 11
-32.44772670675124
 21
-53.82365043314563
 31
0.0
  0
LINE
  5
197
330
17
100
AcDbEntity
  8
visible
100
AcDbLine
 10
-31.402695152116024
 20
-53.69823157127262
 30
0.0
 11
-31.732086851285743
 21
-53.89741840563743
 31
0.0
  0
LINE
  5
198
330
17
100
AcDbEntity
  8
visible
100
AcDbLine
 10
-57.64629225460088
 20
-37.10169920516913
 30
0.0
 11
-57.64629225460088
 21
-36.3773029163811
 31
0.0
  0
LINE
  5
199
330
17
100
AcDbEntity
  8
visible
100
AcDbLine
 10
5.876896923325486
 20
-53.67334607258319
 30
0.0
 11
5.876896923325486
 21
-52.94593857346577
 31
0.0
  0
LINE
  5
19A
330
17
100
AcDbEntity
  8
visible
100
AcDbLine
 10
21.66381758423909
 20
-52.37454324976391
 30
0.0
 11
21.66381758423909
 21
-51.776490034068544
 31
0.0
  0
LINE
  5
19B
330
17
100
AcDbEntity
  8
visible
100
AcDbLine
 10
53.5050151706452
 20
-33.11981592783224
 30
0.0
 11
53.5050151706452
 21
-32.54439331058322
 31
0.0
  0
ELLIPSE
  5
19C
330
17
100
AcDbEntity
  8
visible
100
AcDbEllipse
 10
53.33784888333487
 20
-60.883710800741845
 30
0.0
 11
0.41396554366777655
 21
-0.6845674025659142
 31
0.0
 40
0.7670754590104828
 41
-6.283185307179586
 42
-5.379975506657335
  0
ELLIPSE
  5
19D
330
17
100
AcDbEntity
  8
visible
100
AcDbEllipse
 10
21.49665129692876
 20
-80.1384381226735
 30
0.0
 11
0.41396554366777655
 21
-0.6845674025659142
 31
0.0
 40
0.7670754590104828
 41
-6.283185307179586
 42
-5.379975506657335
  0
LINE
  5
19E
330
17
100
AcDbEntity
  8
visible
100
AcDbLine
 10
54.0065140325762
 20
-32.24113135529599
 30
0.0
 11
54.0065140325762
 21
-27.652434248046966
 31
0.0
  0
ELLIPSE
  5
19F
330
17
100
AcDbEntity
  8
visible
100
AcDbEllipse
 10
43.97653679395625
 20
-25.035858426876324
 30
0.0
 11
-12.0
 21
-3.6292099870939615e-16
 31
0.0
 40
0.39718302370189007
 41
-3.722743442069626
 42
-3.141592653589793
  0
LINE
  5
1A0
330
17
100
AcDbEntity
  8
visible
100
AcDbLine
 10
22.16531644617009
 20
-51.49585867722765
 30
0.0
 11
22.16531644617009
 21
-46.907161569978626
 31
0.0
  0
LINE
  5
1A1
330
17
100
AcDbEntity
  8
visible
100
AcDbLine
 10
54.0065140325762
 20
-27.652434248046966
 30
0.0
 11
22.16531644617008
 21
-46.907161569978626
 31
0.0
  0
ELLIPSE
  5
1A2
330
17
100
AcDbEntity
  8
visible
100
AcDbEllipse
 10
12.135339207550134
 20
-44.290585748807985
 30
0.0
 11
-12.0
 21
-3.6292099870939615e-16
 31
0.0
 40
0.39718302370189007
 41
-5.293539768864522
 42
-3.7227434420696257
  0
LINE
  5
1A3
330
17
100
AcDbEntity
  8
visible
100
AcDbLine
 10
5.547505224155767
 20
-52.86301954335321
 30
0.0
 11
5.547505224155767
 21
-48.274322436104185
 31
0.0
  0
LINE
  5
1A4
330
17
100
AcDbEntity
  8
visible
100
AcDbLine
 10
5.547505224155767
 20
-48.27432243610419
 30
0.0
 11
-57.9756839537706
 21
-31.702675568690125
 31
0.0
  0
LINE
  5
1A5
330
17
100
AcDbEntity
  8
visible
100
AcDbLine
 10
-57.9756839537706
 20
-36.29137267593915
 30
0.0
 11
-57.9756839537706
 21
-31.702675568690125
 31
0.0
  0
ELLIPSE
  5
1A6
330
17
100
AcDbEntity
  8
visible
100
AcDbEllipse
 10
-51.38784997037623
 20
-27.718938881393917
 30
0.0
 11
-12.0
 21
-3.6292099870939615e-16
 31
0.0
 40
0.39718302370189007
 41
-6.283185307179586
 42
-5.293539768864522
  0
ELLIPSE
  5
1A7
330
17
100
AcDbEntity
  8
visible
100
AcDbEllipse
 10
12.135339207550134
 20
-43.55639421164814
 30
0.0
 11
-11.2
 21
-3.387262654621031e-16
 31
0.0
 40
0.39718302370189007
 41
-5.293539768864522
 42
-3.7227434420696257
  0
ELLIPSE
  5
1A8
330
17
100
AcDbEntity
  8
visible
100
AcDbEllipse
 10
53.33784888333487
 20
-27.47799585996892
 30
0.0
 11
-0.41396554366777655
 21
0.6845674025659142
 31
0.0
 40
0.7670754590104828
 41
4.044802454112045
 42
5.319669380827165
  0
ELLIPSE
  5
1A9
330
17
100
AcDbEntity
  8
visible
100
AcDbEllipse
 10
21.49665129692876
 20
-46.73272318190058
 30
0.0
 11
-0.41396554366777655
 21
0.6845674025659142
 31
0.0
 40
0.7670754590104828
 41
4.044802454112045
 42
5.325668569761727
  0
ELLIPSE
  5
1AA
330
17
100
AcDbEntity
  8
visible
100
AcDbEllipse
 10
5.986694156382054
 20
-48.00873999028445
 30
0.0
 11
0.20194185476737583
 21
0.7740926865002099
 31
0.0
 40
0.5038262457106429
 41
-5.601456586836598
 42
-4.234611876914732
  0
ELLIPSE
  5
1AB
330
17
100
AcDbEntity
  8
visible
100
AcDbEllipse
 10
-57.53649502154431
 20
-31.43709312287038
 30
0.0
 11
0.20194185476737583
 21
0.7740926865002099
 31
0.0
 40
0.5038262457106429
 41
-5.600748930253476
 42
-4.234611876914732
  0
ELLIPSE
  5
1AC
330
17
100
AcDbEntity
  8
visible
100
AcDbEllipse
 10
-51.38784997037623
 20
-26.250555807074235
 30
0.0
 11
-12.0
 21
-3.6292099870939615e-16
 31
0.0
 40
0.39718302370189007
 41
-6.283185307179586
 42
-5.293539768864522
  0
ELLIPSE
  5
1AD
330
17
100
AcDbEntity
  8
visible
100
AcDbEllipse
 10
-51.38784997037623
 20
-24.047981195594694
 30
0.0
 11
-12.0
 21
-3.6292099870939615e-16
 31
0.0
 40
0.39718302370189007
 41
-6.283185307179586
 42
-5.293539768864522
  0
LINE
  5
1AE
330
17
100
AcDbEntity
  8
visible
100
AcDbLine
 10
-57.9756839537706
 20
-30.234292494370436
 30
0.0
 11
-57.9756839537706
 21
-28.031717882890902
 31
0.0
  0
ELLIPSE
  5
1AF
330
17
100
AcDbEntity
  8
visible
100
AcDbEllipse
 10
-60.74916205975485
 20
-21.605843762502097
 30
0.0
 11
0.41396554366777655
 21
-0.6845674025659142
 31
0.0
 40
0.7670754590104828
 41
-3.809179179862438
 42
-3.141592653589793
  0
LINE
  5
1B0
330
17
100
AcDbEntity
  8
visible
100
AcDbLine
 10
-60.74916205975485
 20
-20.871652225342253
 30
0.0
 11
-49.70565658821
 21
-14.193521292740702
 31
0.0
  0
ELLIPSE
  5
1B1
330
17
100
AcDbEntity
  8
visible
100
AcDbEllipse
 10
-57.53649502154431
 20
-29.968710048550697
 30
0.0
 11
-0.20194185476737583
 21
-0.7740926865002099
 31
0.0
 40
0.5038262457106429
 41
5.190166083854647
 42
6.283185307179586
  0
ELLIPSE
  5
1B2
330
17
100
AcDbEntity
  8
visible
100
AcDbEllipse
 10
-57.53649502154431
 20
-27.766135437071156
 30
0.0
 11
0.20194185476737583
 21
0.7740926865002099
 31
0.0
 40
0.5038262457106429
 41
-5.805408203709629
 42
-4.234611876914732
  0
ELLIPSE
  5
1B3
330
17
100
AcDbEntity
  8
visible
100
AcDbEllipse
 10
-51.38784997037623
 20
-23.31378965843485
 30
0.0
 11
-11.2
 21
-3.387262654621031e-16
 31
0.0
 40
0.39718302370189007
 41
-6.864336095659419
 42
-5.293539768864522
  0
LINE
  5
1B4
330
17
100
AcDbEntity
  8
visible
100
AcDbLine
 10
5.547505224155767
 20
-46.80593936178451
 30
0.0
 11
-57.9756839537706
 21
-30.234292494370443
 31
0.0
  0
LINE
  5
1B5
330
17
100
AcDbEntity
  8
visible
100
AcDbLine
 10
5.547505224155767
 20
-44.60336475030497
 30
0.0
 11
-18.948810182503827
 21
-38.2128750137944
 31
0.0
  0
LINE
  5
1B6
330
17
100
AcDbEntity
  8
visible
100
AcDbLine
 10
-37.07478224657589
 20
-33.48425209574367
 30
0.0
 11
-57.9756839537706
 21
-28.031717882890902
 31
0.0
  0
LINE
  5
1B7
330
17
100
AcDbEntity
  8
visible
100
AcDbLine
 10
5.547505224155767
 20
-46.8059393617845
 30
0.0
 11
5.547505224155767
 21
-44.60336475030497
 31
0.0
  0
LINE
  5
1B8
330
17
100
AcDbEntity
  8
visible
100
AcDbLine
 10
5.986694156382054
 20
-43.60359076732538
 30
0.0
 11
-11.774155102704075
 21
-38.97021946157199
 31
0.0
  0
LINE
  5
1B9
330
17
100
AcDbEntity
  8
visible
100
AcDbLine
 10
-41.701032969649106
 20
-31.163028760454356
 30
0.0
 11
-57.53649502154431
 21
-27.03194389991131
 31
0.0
  0
LINE
  5
1BA
330
17
100
AcDbEntity
  8
visible
100
AcDbLine
 10
42.294343411790024
 20
-14.86968068499372
 30
0.0
 11
50.12518184512433
 21
-16.912554962440794
 31
0.0
  0
ELLIPSE
  5
1BB
330
17
100
AcDbEntity
  8
visible
100
AcDbEllipse
 10
12.135339207550134
 20
-39.88543652584892
 30
0.0
 11
-11.2
 21
-3.387262654621031e-16
 31
0.0
 40
0.39718302370189007
 41
-5.293539768864522
 42
-3.7227434420696257
  0
ELLIPSE
  5
1BC
330
17
100
AcDbEntity
  8
visible
100
AcDbEllipse
 10
43.97653679395625
 20
-20.630709203917256
 30
0.0
 11
-11.2
 21
-3.387262654621031e-16
 31
0.0
 40
0.39718302370189007
 41
-3.722743442069626
 42
-2.1519471152747296
  0
LINE
  5
1BD
330
17
100
AcDbEntity
  8
visible
100
AcDbLine
 10
53.33784888333487
 20
-23.072846637009853
 30
0.0
 11
21.496651296928754
 21
-42.327573958941514
 31
0.0
  0
ELLIPSE
  5
1BE
330
17
100
AcDbEntity
  8
visible
100
AcDbEllipse
 10
5.986694156382054
 20
-46.540356915964765
 30
0.0
 11
-0.20194185476737583
 21
-0.7740926865002099
 31
0.0
 40
0.5038262457106429
 41
5.190166083854647
 42
6.283185307179586
  0
ELLIPSE
  5
1BF
330
17
100
AcDbEntity
  8
visible
100
AcDbEllipse
 10
5.986694156382054
 20
-44.33778230448522
 30
0.0
 11
0.20194185476737583
 21
0.7740926865002099
 31
0.0
 40
0.5038262457106429
 41
-5.805408203709629
 42
-4.234611876914732
  0
LINE
  5
1C0
330
17
100
AcDbEntity
  8
visible
100
AcDbLine
 10
22.16531644617009
 20
-45.43877849565894
 30
0.0
 11
22.16531644617009
 21
-43.2362038841794
 31
0.0
  0
ELLIPSE
  5
1C1
330
17
100
AcDbEntity
  8
visible
100
AcDbEllipse
 10
12.135339207550134
 20
-42.8222026744883
 30
0.0
 11
-12.0
 21
-3.6292099870939615e-16
 31
0.0
 40
0.39718302370189007
 41
-5.293539768864522
 42
-3.7227434420696257
  0
ELLIPSE
  5
1C2
330
17
100
AcDbEntity
  8
visible
100
AcDbEllipse
 10
12.135339207550134
 20
-40.61962806300876
 30
0.0
 11
-12.0
 21
-3.6292099870939615e-16
 31
0.0
 40
0.39718302370189007
 41
-5.293539768864522
 42
-3.7227434420696257
  0
ELLIPSE
  5
1C3
330
17
100
AcDbEntity
  8
visible
100
AcDbEllipse
 10
21.49665129692876
 20
-45.26434010758091
 30
0.0
 11
0.41396554366777655
 21
-0.6845674025659142
 31
0.0
 40
0.7670754590104828
 41
-6.283185307179586
 42
-5.379975506657335
  0
ELLIPSE
  5
1C4
330
17
100
AcDbEntity
  8
visible
100
AcDbEllipse
 10
43.97653679395625
 20
-23.56747535255664
 30
0.0
 11
-12.0
 21
-3.6292099870939615e-16
 31
0.0
 40
0.39718302370189007
 41
-3.722743442069626
 42
-3.141592653589793
  0
ELLIPSE
  5
1C5
330
17
100
AcDbEntity
  8
visible
100
AcDbEllipse
 10
53.33784888333487
 20
-26.00961278564924
 30
0.0
 11
0.41396554366777655
 21
-0.6845674025659142
 31
0.0
 40
0.7670754590104828
 41
-6.283185307179586
 42
-5.379975506657335
  0
LINE
  5
1C6
330
17
100
AcDbEntity
  8
visible
100
AcDbLine
 10
54.0065140325762
 20
-26.184051173727283
 30
0.0
 11
22.16531644617008
 21
-45.43877849565895
 31
0.0
  0
ELLIPSE
  5
1C7
330
17
100
AcDbEntity
  8
visible
100
AcDbEllipse
 10
50.12518184512433
 20
-17.64674649960064
 30
0.0
 11
-0.20194185476737583
 21
-0.7740926865002099
 31
0.0
 40
0.5038262457106429
 41
3.141592653589793
 42
3.6193697570597507
  0
ELLIPSE
  5
1C8
330
17
100
AcDbEntity
  8
visible
100
AcDbEllipse
 10
21.49665129692876
 20
-43.06176549610136
 30
0.0
 11
-0.41396554366777655
 21
0.6845674025659142
 31
0.0
 40
0.7670754590104828
 41
4.044802454112045
 42
5.615598780906941
  0
ELLIPSE
  5
1C9
330
17
100
AcDbEntity
  8
visible
100
AcDbEllipse
 10
43.97653679395625
 20
-21.3649007410771
 30
0.0
 11
-12.0
 21
-3.6292099870939615e-16
 31
0.0
 40
0.39718302370189007
 41
-3.722743442069626
 42
-3.141592653589793
  0
ELLIPSE
  5
1CA
330
17
100
AcDbEntity
  8
visible
100
AcDbEllipse
 10
53.33784888333487
 20
-23.807038174169698
 30
0.0
 11
-0.41396554366777655
 21
0.6845674025659142
 31
0.0
 40
0.7670754590104828
 41
4.044802454112045
 42
5.615598780906941
  0
LINE
  5
1CB
330
17
100
AcDbEntity
  8
visible
100
AcDbLine
 10
54.0065140325762
 20
-23.981476562247742
 30
0.0
 11
22.16531644617008
 21
-43.2362038841794
 31
0.0
  0
LINE
  5
1CC
330
17
100
AcDbEntity
  8
visible
100
AcDbLine
 10
54.0065140325762
 20
-26.184051173727276
 30
0.0
 11
54.0065140325762
 21
-23.981476562247742
 31
0.0
  0
LINE
  5
1CD
330
17
100
AcDbEntity
  8
visible
100
AcDbLine
 10
17.91204613164757
 20
-21.330563946537666
 30
0.0
 11
17.91204613164757
 21
-15.45703164925891
 31
0.0
  0
LINE
  5
1CE
330
17
100
AcDbEntity
  8
visible
100
AcDbLine
 10
21.255371877854223
 20
-16.329223589649132
 30
0.0
 11
17.91204613164757
 21
-15.457031649258917
 31
0.0
  0
LINE
  5
1CF
330
17
100
AcDbEntity
  8
visible
100
AcDbLine
 10
21.255371877854223
 20
-22.202755886927875
 30
0.0
 11
21.255371877854223
 21
-16.329223589649118
 31
0.0
  0
ELLIPSE
  5
1D0
330
17
100
AcDbEntity
  8
visible
100
AcDbEllipse
 10
27.51079473778553
 20
-21.458667137964184
 30
0.0
 11
0.41396554366777655
 21
-0.6845674025659142
 31
0.0
 40
0.7670754590104828
 41
-6.283185307179586
 42
-5.379975506657335
  0
ELLIPSE
  5
1D1
330
17
100
AcDbEntity
  8
visible
100
AcDbEllipse
 10
24.00030270426854
 20
-20.542865600554457
 30
0.0
 11
-5.0
 21
-1.5121708279558175e-16
 31
0.0
 40
0.39718302370189007
 41
-5.293539768864522
 42
-3.7227434420696257
  0
ELLIPSE
  5
1D2
330
17
100
AcDbEntity
  8
visible
100
AcDbEllipse
 10
20.65697695806189
 20
-13.797141362885498
 30
0.0
 11
-5.0
 21
-3.024341655911636e-16
 31
0.0
 40
0.3971830237018901
 41
-6.283185307179586
 42
-5.293539768864522
  0
ELLIPSE
  5
1D3
330
17
100
AcDbEntity
  8
visible
100
AcDbEllipse
 10
21.694560810080517
 20
-16.06364114382938
 30
0.0
 11
0.20194185476737583
 21
0.7740926865002099
 31
0.0
 40
0.5038262457106429
 41
-5.805408203709629
 42
-4.234611876914732
  0
LINE
  5
1D4
330
17
100
AcDbEntity
  8
visible
100
AcDbLine
 10
21.694560810080517
 20
-15.32944960666952
 30
0.0
 11
18.351235063873865
 21
-14.457257666279306
 31
0.0
  0
ELLIPSE
  5
1D5
330
17
100
AcDbEntity
  8
visible
100
AcDbEllipse
 10
18.351235063873865
 20
-15.191449203439163
 30
0.0
 11
0.20194185476737583
 21
0.7740926865002099
 31
0.0
 40
0.5038262457106429
 41
-5.805408203709629
 42
-4.234611876914732
  0
LINE
  5
1D6
330
17
100
AcDbEntity
  8
visible
100
AcDbLine
 10
28.17945988702686
 20
-21.63310552604223
 30
0.0
 11
28.17945988702686
 21
-15.759573228763474
 31
0.0
  0
ELLIPSE
  5
1D7
330
17
100
AcDbEntity
  8
visible
100
AcDbEllipse
 10
24.00030270426854
 20
-14.669333303275707
 30
0.0
 11
-5.0
 21
-1.5121708279558175e-16
 31
0.0
 40
0.39718302370189007
 41
-5.293539768864522
 42
-3.7227434420696257
  0
ELLIPSE
  5
1D8
330
17
100
AcDbEntity
  8
visible
100
AcDbEllipse
 10
43.980379696271456
 20
-11.499325419723668
 30
0.0
 11
0.4139655436677765
 21
-0.6845674025659142
 31
0.0
 40
0.7670754590104826
 41
-6.283185307179586
 42
-5.379975506657335
  0
LINE
  5
1D9
330
17
100
AcDbEntity
  8
visible
100
AcDbLine
 10
44.64904484551278
 20
-11.673763807801706
 30
0.0
 11
28.179459887026862
 21
-21.633105526042222
 31
0.0
  0
ELLIPSE
  5
1DA
330
17
100
AcDbEntity
  8
visible
100
AcDbEllipse
 10
40.469887662754466
 20
-10.58352388231394
 30
0.0
 11
-5.0
 21
-3.024341655911636e-16
 31
0.0
 40
0.3971830237018901
 41
-3.722743442069626
 42
-3.141592653589793
  0
ELLIPSE
  5
1DB
330
17
100
AcDbEntity
  8
visible
100
AcDbEllipse
 10
14.840743030356883
 20
-4.272287972226557
 30
0.0
 11
-0.8
 21
-1.451683994837585e-16
 31
0.0
 40
0.3971830237018903
 41
-6.283185307179586
 42
-5.293539768864522
  0
ELLIPSE
  5
1DC
330
17
100
AcDbEntity
  8
visible
100
AcDbEllipse
 10
24.28330507322214
 20
1.437734612898005
 30
0.0
 11
4.543691732265956
 21
17.41708544625472
 31
0.0
 40
0.5038262457106428
 41
-4.234611876914732
 42
-3.632334561939466
  0
ELLIPSE
  5
1DD
330
17
100
AcDbEntity
  8
visible
100
AcDbEllipse
 10
20.65697695806189
 20
-13.062949825725639
 30
0.0
 11
-4.2
 21
-2.5404469909657743e-16
 31
0.0
 40
0.3971830237018901
 41
-6.395081979232776
 42
-5.293539768864522
  0
ELLIPSE
  5
1DE
330
17
100
AcDbEntity
  8
visible
100
AcDbEllipse
 10
27.51079473778553
 20
-15.585134840685434
 30
0.0
 11
-0.41396554366777655
 21
0.6845674025659142
 31
0.0
 40
0.7670754590104828
 41
4.044802454112045
 42
5.615598780906941
  0
ELLIPSE
  5
1DF
330
17
100
AcDbEntity
  8
visible
100
AcDbEllipse
 10
24.00030270426854
 20
-13.935141766115848
 30
0.0
 11
-4.2
 21
-1.2702234954828867e-16
 31
0.0
 40
0.39718302370189007
 41
-5.293539768864522
 42
-3.7227434420696257
  0
ELLIPSE
  5
1E0
330
17
100
AcDbEntity
  8
visible
100
AcDbEllipse
 10
40.469887662754466
 20
-3.9758000478753317
 30
0.0
 11
-4.2
 21
-2.5404469909657743e-16
 31
0.0
 40
0.3971830237018901
 41
-3.722743442069626
 42
-3.193723825345246
  0
LINE
  5
1E1
330
17
100
AcDbEntity
  8
visible
100
AcDbLine
 10
43.980379696271456
 20
-4.891601585285059
 30
0.0
 11
27.510794737785535
 21
-14.850943303525574
 31
0.0
  0
LINE
  5
1E2
330
17
100
AcDbEntity
  8
visible
100
AcDbLine
 10
44.64904484551278
 20
-5.800231510522963
 30
0.0
 11
28.179459887026862
 21
-15.759573228763477
 31
0.0
  0
LINE
  5
1E3
330
17
100
AcDbEntity
  8
visible
100
AcDbLine
 10
44.64904484551278
 20
-11.673763807801706
 30
0.0
 11
44.64904484551278
 21
-5.80023151052295
 31
0.0
  0
ELLIPSE
  5
1E4
330
17
100
AcDbEntity
  8
visible
100
AcDbEllipse
 10
40.469887662754466
 20
-4.7099915850351906
 30
0.0
 11
-5.0
 21
-3.024341655911636e-16
 31
0.0
 40
0.3971830237018901
 41
-3.722743442069626
 42
-3.141592653589793
  0
ELLIPSE
  5
1E5
330
17
100
AcDbEntity
  8
visible
100
AcDbEllipse
 10
26.479249734353598
 20
48.37729608805208
 30
0.0
 11
-0.41396554366777655
 21
0.6845674025659142
 31
0.0
 40
0.7670754590104828
 41
5.615598780906941
 42
6.283185307179586
  0
ELLIPSE
  5
1E6
330
17
100
AcDbEntity
  8
visible
100
AcDbEllipse
 10
26.479249734353598
 20
32.592178039115424
 30
0.0
 11
4.543691732265955
 21
17.41708544625472
 31
0.0
 40
0.5038262457106428
 41
-6.283185307179586
 42
-5.805408203709629
  0
ELLIPSE
  5
1E7
330
17
100
AcDbEntity
  8
visible
100
AcDbEllipse
 10
24.28330507322214
 20
47.04938385895335
 30
0.0
 11
-0.41396554366777655
 21
0.6845674025659141
 31
0.0
 40
0.7670754590104826
 41
5.615598780906941
 42
6.283185307179586
  0
LINE
  5
1E8
330
17
100
AcDbEntity
  8
visible
100
AcDbLine
 10
24.28330507322214
 20
47.78357539611319
 30
0.0
 11
26.479249734353598
 21
49.11148762521193
 31
0.0
  0
ELLIPSE
  5
1E9
330
17
100
AcDbEntity
  8
visible
100
AcDbEllipse
 10
14.840743030356883
 20
25.554243224892133
 30
0.0
 11
-0.8
 21
-2.4194733247293078e-17
 31
0.0
 40
0.39718302370189007
 41
-6.283185307179586
 42
-5.293539768864522
  0
ELLIPSE
  5
1EA
330
17
100
AcDbEntity
  8
visible
100
AcDbEllipse
 10
24.28330507322214
 20
31.264265810016695
 30
0.0
 11
4.543691732265956
 21
17.41708544625472
 31
0.0
 40
0.5038262457106429
 41
-5.805408203709629
 42
-4.234611876914732
  0
LINE
  5
1EB
330
17
100
AcDbEntity
  8
visible
100
AcDbLine
 10
14.401554098130589
 20
-4.537870418046303
 30
0.0
 11
14.401554098130589
 21
25.288660779072377
 31
0.0
  0
LINE
  5
1EC
330
17
100
AcDbEntity
  8
visible
100
AcDbLine
 10
14.401554098130589
 20
-4.537870418046308
 30
0.0
 11
18.07921241895791
 21
-5.4972815524755445
 31
0.0
  0
ELLIPSE
  5
1ED
330
17
100
AcDbEntity
  8
visible
100
AcDbEllipse
 10
27.96096339404946
 20
0.47832347846876644
 30
0.0
 11
4.543691732265956
 21
17.41708544625472
 31
0.0
 40
0.5038262457106428
 41
-4.234611876914732
 42
-3.6388843443453713
  0
ELLIPSE
  5
1EE
330
17
100
AcDbEntity
  8
visible
100
AcDbEllipse
 10
43.980379696271456
 20
-5.625793122444918
 30
0.0
 11
-0.4139655436677765
 21
0.6845674025659142
 31
0.0
 40
0.7670754590104826
 41
4.044802454112045
 42
5.615598780906941
  0
ELLIPSE
  5
1EF
330
17
100
AcDbEntity
  8
visible
100
AcDbEllipse
 10
18.518401351184202
 20
-5.231699106655796
 30
0.0
 11
0.8
 21
1.451683994837585e-16
 31
0.0
 40
0.3971830237018903
 41
4.131238191904856
 42
5.4488400172976865
  0
LINE
  5
1F0
330
17
100
AcDbEntity
  8
visible
100
AcDbLine
 10
26.479249734353598
 20
49.11148762521192
 30
0.0
 11
30.156908055180917
 21
48.15207649078269
 31
0.0
  0
ELLIPSE
  5
1F1
330
17
100
AcDbEntity
  8
visible
100
AcDbEllipse
 10
30.15690805518092
 20
31.632766904686193
 30
0.0
 11
4.543691732265955
 21
17.41708544625472
 31
0.0
 40
0.5038262457106428
 41
-6.283185307179586
 42
-5.805408203709629
  0
LINE
  5
1F2
330
17
100
AcDbEntity
  8
visible
100
AcDbLine
 10
24.28330507322214
 20
47.78357539611318
 30
0.0
 11
27.96096339404946
 21
46.82416426168395
 31
0.0
  0
LINE
  5
1F3
330
17
100
AcDbEntity
  8
visible
100
AcDbLine
 10
27.96096339404946
 20
46.82416426168395
 30
0.0
 11
30.156908055180917
 21
48.15207649078268
 31
0.0
  0
LINE
  5
1F4
330
17
100
AcDbEntity
  8
visible
100
AcDbLine
 10
14.401554098130589
 20
25.288660779072377
 30
0.0
 11
18.07921241895791
 21
24.329249644643138
 31
0.0
  0
ELLIPSE
  5
1F5
330
17
100
AcDbEntity
  8
visible
100
AcDbEllipse
 10
27.96096339404946
 20
30.30485467558745
 30
0.0
 11
4.543691732265956
 21
17.41708544625472
 31
0.0
 40
0.5038262457106429
 41
-5.805408203709629
 42
-4.234611876914732
  0
LINE
  5
1F6
330
17
100
AcDbEntity
  8
visible
100
AcDbLine
 10
18.07921241895791
 20
-5.497281552475542
 30
0.0
 11
18.07921241895791
 21
24.329249644643138
 31
0.0
  0
ELLIPSE
  5
1F7
330
17
100
AcDbEntity
  8
visible
100
AcDbEllipse
 10
18.518401351184202
 20
24.594832090462887
 30
0.0
 11
0.8
 21
2.4194733247293078e-17
 31
0.0
 40
0.39718302370189007
 41
4.131238191904856
 42
5.449239256539391
  0
ELLIPSE
  5
1F8
330
17
100
AcDbEntity
  8
visible
100
AcDbEllipse
 10
27.96096339404946
 20
46.0899727245241
 30
0.0
 11
0.41396554366777655
 21
-0.6845674025659141
 31
0.0
 40
0.7670754590104826
 41
-4.961649451565952
 42
-3.809179179862438
  0
ELLIPSE
  5
1F9
330
17
100
AcDbEntity
  8
visible
100
AcDbEllipse
 10
30.15690805518092
 20
47.417884953622846
 30
0.0
 11
0.41396554366777655
 21
-0.6845674025659142
 31
0.0
 40
0.7670754590104828
 41
-4.952885509405604
 42
-3.809179179862438
  0
ELLIPSE
  5
1FA
330
17
100
AcDbEntity
  8
visible
100
AcDbEllipse
 10
18.351235063873865
 20
-21.06498150071792
 30
0.0
 11
-0.20194185476737583
 21
-0.7740926865002099
 31
0.0
 40
0.5038262457106429
 41
0.027583406814107647
 42
0.4777771034699576
  0
LINE
  5
1FB
330
17
100
AcDbEntity
  8
visible
100
AcDbLine
 10
20.312803690690032
 20
-22.31089833080577
 30
0.0
 11
18.351235063873865
 21
-21.799173037877758
 31
0.0
  0
ELLIPSE
  5
1FC
330
17
100
AcDbEntity
  8
visible
100
AcDbEllipse
 10
29.298293692532113
 20
45.74109594836803
 30
0.0
 11
-0.41396554366777655
 21
0.6845674025659141
 31
0.0
 40
0.7670754590104826
 41
5.615598780906941
 42
6.283185307179586
  0
LINE
  5
1FD
330
17
100
AcDbEntity
  8
visible
100
AcDbLine
 10
29.298293692532113
 20
46.47528748552787
 30
0.0
 11
31.49423835366357
 21
47.80319971462661
 31
0.0
  0
ELLIPSE
  5
1FE
330
17
100
AcDbEntity
  8
visible
100
AcDbEllipse
 10
31.494238353663576
 20
47.069008177466756
 30
0.0
 11
-0.41396554366777655
 21
0.6845674025659142
 31
0.0
 40
0.7670754590104828
 41
5.615598780906941
 42
6.283185307179586
  0
LINE
  5
1FF
330
17
100
AcDbEntity
  8
visible
100
AcDbLine
 10
31.49423835366357
 20
47.8031997146266
 30
0.0
 11
36.67639326028388
 21
46.45130220702177
 31
0.0
  0
LINE
  5
200
330
17
100
AcDbEntity
  8
visible
100
AcDbLine
 10
29.29829369253212
 20
46.47528748552786
 30
0.0
 11
34.48044859915243
 21
45.123389977923026
 31
0.0
  0
ELLIPSE
  5
201
330
17
100
AcDbEntity
  8
visible
100
AcDbEllipse
 10
29.29829369253212
 20
29.955977899431375
 30
0.0
 11
4.543691732265956
 21
17.41708544625472
 31
0.0
 40
0.5038262457106429
 41
-5.805408203709629
 42
-4.234611876914732
  0
LINE
  5
202
330
17
100
AcDbEntity
  8
visible
100
AcDbLine
 10
19.416542717440564
 20
23.980372868487056
 30
0.0
 11
24.598697624060875
 21
22.628475360882224
 31
0.0
  0
LINE
  5
203
330
17
100
AcDbEntity
  8
visible
100
AcDbLine
 10
19.416542717440564
 20
-5.846158328631624
 30
0.0
 11
19.416542717440564
 21
23.980372868487056
 31
0.0
  0
LINE
  5
204
330
17
100
AcDbEntity
  8
visible
100
AcDbLine
 10
19.416542717440564
 20
-5.8461583286316285
 30
0.0
 11
24.598697624060875
 21
-7.1980558362364615
 31
0.0
  0
ELLIPSE
  5
205
330
17
100
AcDbEntity
  8
visible
100
AcDbEllipse
 10
29.29829369253212
 20
0.12944670231268418
 30
0.0
 11
4.543691732265956
 21
17.41708544625472
 31
0.0
 40
0.5038262457106428
 41
-4.234611876914732
 42
-3.6588852289345417
  0
LINE
  5
206
330
17
100
AcDbEntity
  8
visible
100
AcDbLine
 10
41.75451528732042
 20
9.722799658832567
 30
0.0
 11
41.75451528732042
 21
18.533098104750902
 31
0.0
  0
ELLIPSE
  5
207
330
17
100
AcDbEntity
  8
visible
100
AcDbEllipse
 10
51.197077330185685
 20
24.243120689875468
 30
0.0
 11
4.3417498774985805
 21
16.64299275975451
 31
0.0
 40
0.5038262457106429
 41
-4.349808280770822
 42
-4.234611876914732
  0
LINE
  5
208
330
17
100
AcDbEntity
  8
visible
100
AcDbLine
 10
62.8355840341824
 20
31.28105550409876
 30
0.0
 11
62.8355840341824
 21
22.47075705818058
 31
0.0
  0
ELLIPSE
  5
209
330
17
100
AcDbEntity
  8
visible
100
AcDbEllipse
 10
53.39302199131714
 20
25.571032918974197
 30
0.0
 11
4.341749877498579
 21
16.64299275975451
 31
0.0
 40
0.5038262457106428
 41
-1.093019223324939
 42
-0.9778228194688494
  0
ELLIPSE
  5
20A
330
17
100
AcDbEntity
  8
visible
100
AcDbEllipse
 10
62.16691888494107
 20
31.455493892176804
 30
0.0
 11
-0.8
 21
-7.258419974187925e-17
 31
0.0
 40
0.3971830237018902
 41
-3.722743442069626
 42
-3.205026655723244
  0
ELLIPSE
  5
20B
330
17
100
AcDbEntity
  8
visible
100
AcDbEllipse
 10
41.085850138079095
 20
18.70753649282895
 30
0.0
 11
0.8
 21
2.4194733247293078e-17
 31
0.0
 40
0.39718302370189007
 41
5.184317732353371
 42
5.702034518699753
  0
ELLIPSE
  5
20C
330
17
100
AcDbEntity
  8
visible
100
AcDbEllipse
 10
53.0472979536479
 20
17.368918246238593
 30
0.0
 11
-3.5339824584290738
 21
-13.546622013753673
 31
0.0
 40
0.503826245710643
 41
3.1415926535897936
 42
6.283185307179586
  0
ELLIPSE
  5
20D
330
17
100
AcDbEntity
  8
visible
100
AcDbEllipse
 10
53.381630528268566
 20
17.28169905219957
 30
0.0
 11
-3.433011531045386
 21
-13.159575670503568
 31
0.0
 40
0.503826245710643
 41
0.47777710346995755
 42
6.760962410649544
  0
ELLIPSE
  5
20E
330
17
100
AcDbEntity
  8
visible
100
AcDbEllipse
 10
31.494238353663576
 20
31.283890128530103
 30
0.0
 11
4.543691732265955
 21
17.41708544625472
 31
0.0
 40
0.5038262457106428
 41
-6.283185307179586
 42
-5.805408203709629
  0
ELLIPSE
  5
20F
330
17
100
AcDbEntity
  8
visible
100
AcDbEllipse
 10
19.855731649666858
 20
-5.580575882811878
 30
0.0
 11
-0.8
 21
-1.451683994837585e-16
 31
0.0
 40
0.3971830237018903
 41
-6.283185307179586
 42
-5.293539768864522
  0
ELLIPSE
  5
210
330
17
100
AcDbEntity
  8
visible
100
AcDbEllipse
 10
19.855731649666858
 20
24.245955314306812
 30
0.0
 11
-0.8
 21
-2.4194733247293078e-17
 31
0.0
 40
0.39718302370189007
 41
-6.283185307179586
 42
-5.293539768864522
  0
LINE
  5
211
330
17
100
AcDbEntity
  8
visible
100
AcDbLine
 10
-43.77231388586513
 20
10.638269344743419
 30
0.0
 11
-47.44997220669245
 21
11.597680479172656
 31
0.0
  0
LINE
  5
212
330
17
100
AcDbEntity
  8
visible
100
AcDbLine
 10
-43.77231388586513
 20
10.63826934474342
 30
0.0
 11
-43.77231388586513
 21
40.464800541862104
 31
0.0
  0
LINE
  5
213
330
17
100
AcDbEntity
  8
visible
100
AcDbLine
 10
-47.44997220669245
 20
11.597680479172652
 30
0.0
 11
-47.44997220669245
 21
41.424211676291335
 31
0.0
  0
LINE
  5
214
330
17
100
AcDbEntity
  8
visible
100
AcDbLine
 10
-43.77231388586513
 20
40.464800541862104
 30
0.0
 11
-47.44997220669245
 21
41.424211676291335
 31
0.0
  0
ELLIPSE
  5
215
330
17
100
AcDbEntity
  8
visible
100
AcDbEllipse
 10
-33.89056291077358
 20
16.61387437568773
 30
0.0
 11
4.543691732265956
 21
17.41708544625472
 31
0.0
 40
0.5038262457106428
 41
-4.234611876914732
 42
-3.9798627737661123
  0
ELLIPSE
  5
216
330
17
100
AcDbEntity
  8
visible
100
AcDbEllipse
 10
-37.568221231600894
 20
17.57328551011696
 30
0.0
 11
4.543691732265956
 21
17.41708544625472
 31
0.0
 40
0.5038262457106428
 41
-4.234611876914732
 42
-3.6455809066984584
  0
ELLIPSE
  5
217
330
17
100
AcDbEntity
  8
visible
100
AcDbEllipse
 10
-43.33312495363884
 20
10.903851790563166
 30
0.0
 11
0.8
 21
1.451683994837585e-16
 31
0.0
 40
0.3971830237018903
 41
4.131238191904856
 42
5.702034518699753
  0
ELLIPSE
  5
218
330
17
100
AcDbEntity
  8
visible
100
AcDbEllipse
 10
-43.33312495363884
 20
40.73038298768185
 30
0.0
 11
0.8
 21
2.4194733247293078e-17
 31
0.0
 40
0.39718302370189007
 41
4.131238191904856
 42
5.702034518699753
  0
ELLIPSE
  5
219
330
17
100
AcDbEntity
  8
visible
100
AcDbEllipse
 10
-47.01078327446616
 20
11.863262924992398
 30
0.0
 11
-0.8
 21
-1.451683994837585e-16
 31
0.0
 40
0.3971830237018903
 41
-6.283185307179586
 42
-5.293539768864522
  0
ELLIPSE
  5
21A
330
17
100
AcDbEntity
  8
visible
100
AcDbEllipse
 10
-47.01078327446616
 20
41.68979412211108
 30
0.0
 11
-0.8
 21
-2.4194733247293078e-17
 31
0.0
 40
0.39718302370189007
 41
-6.283185307179586
 42
-5.293539768864522
  0
ELLIPSE
  5
21B
330
17
100
AcDbEntity
  8
visible
100
AcDbEllipse
 10
-33.89056291077358
 20
46.44040557280641
 30
0.0
 11
4.543691732265956
 21
17.41708544625472
 31
0.0
 40
0.5038262457106429
 41
-5.805408203709629
 42
-4.234611876914732
  0
ELLIPSE
  5
21C
330
17
100
AcDbEntity
  8
visible
100
AcDbEllipse
 10
-37.568221231600894
 20
47.399816707235644
 30
0.0
 11
4.543691732265956
 21
17.41708544625472
 31
0.0
 40
0.5038262457106429
 41
-5.805408203709629
 42
-4.234611876914732
  0
LINE
  5
21D
330
17
100
AcDbEntity
  8
visible
100
AcDbLine
 10
-33.890562910773575
 20
62.95971515890291
 30
0.0
 11
-37.568221231600894
 21
63.91912629333214
 31
0.0
  0
ELLIPSE
  5
21E
330
17
100
AcDbEntity
  8
visible
100
AcDbEllipse
 10
-47.88120083917445
 20
4.908758894418725
 30
0.0
 11
4.2
 21
1.2702234954828867e-16
 31
0.0
 40
0.39718302370189007
 41
2.9803095210826935
 42
4.131238191904857
  0
LINE
  5
21F
330
17
100
AcDbEntity
  8
visible
100
AcDbLine
 10
-50.18694273336247
 20
3.5144510538650593
 30
0.0
 11
-46.84361698715582
 21
2.6422591134748443
 31
0.0
  0
ELLIPSE
  5
220
330
17
100
AcDbEntity
  8
visible
100
AcDbEllipse
 10
-44.537875092967795
 20
4.036566954028515
 30
0.0
 11
4.2
 21
0.0
 31
0.0
 40
0.39718302370189007
 41
4.131238191904857
 42
4.848873603149439
  0
ELLIPSE
  5
221
330
17
100
AcDbEntity
  8
visible
100
AcDbEllipse
 10
-46.84361698715582
 20
1.9080675763149912
 30
0.0
 11
0.20194185476737583
 21
0.7740926865002099
 31
0.0
 40
0.5038262457106429
 41
-5.805408203709629
 42
-4.234611876914732
  0
ELLIPSE
  5
222
330
17
100
AcDbEntity
  8
visible
100
AcDbEllipse
 10
-44.537875092967795
 20
3.3023754168686708
 30
0.0
 11
5.0
 21
0.0
 31
0.0
 40
0.39718302370189007
 41
4.131238191904857
 42
4.974092874932233
  0
ELLIPSE
  5
223
330
17
100
AcDbEntity
  8
visible
100
AcDbEllipse
 10
-33.89056291077358
 20
62.225523621743065
 30
0.0
 11
0.41396554366777655
 21
-0.6845674025659141
 31
0.0
 40
0.7670754590104826
 41
-5.379975506657335
 42
-3.809179179862438
  0
ELLIPSE
  5
224
330
17
100
AcDbEntity
  8
visible
100
AcDbEllipse
 10
-37.5682212316009
 20
63.1849347561723
 30
0.0
 11
-0.41396554366777655
 21
0.6845674025659141
 31
0.0
 40
0.7670754590104826
 41
5.615598780906941
 42
6.283185307179586
  0
LINE
  5
225
330
17
100
AcDbEntity
  8
visible
100
AcDbLine
 10
-33.89056291077358
 20
62.95971515890291
 30
0.0
 11
-31.694618249642126
 21
64.28762738800164
 31
0.0
  0
LINE
  5
226
330
17
100
AcDbEntity
  8
visible
100
AcDbLine
 10
-37.5682212316009
 20
63.91912629333214
 30
0.0
 11
-35.372276570469445
 21
65.24703852243087
 31
0.0
  0
LINE
  5
227
330
17
100
AcDbEntity
  8
visible
100
AcDbLine
 10
-31.694618249642122
 20
64.28762738800165
 30
0.0
 11
-35.372276570469445
 21
65.24703852243088
 31
0.0
  0
LINE
  5
228
330
17
100
AcDbEntity
  8
visible
100
AcDbLine
 10
-47.28280591938211
 20
-4.231047166783512
 30
0.0
 11
-47.28280591938211
 21
1.6424851304952437
 31
0.0
  0
ELLIPSE
  5
229
330
17
100
AcDbEntity
  8
visible
100
AcDbEllipse
 10
-44.537875092967795
 20
-2.5711568804100864
 30
0.0
 11
5.0
 21
0.0
 31
0.0
 40
0.39718302370189007
 41
4.131238191904857
 42
5.702034518699754
  0
ELLIPSE
  5
22A
330
17
100
AcDbEntity
  8
visible
100
AcDbEllipse
 10
-47.88120083917445
 20
4.17456735725888
 30
0.0
 11
5.0
 21
1.5121708279558175e-16
 31
0.0
 40
0.39718302370189007
 41
3.141592653589793
 42
4.131238191904857
  0
ELLIPSE
  5
22B
330
17
100
AcDbEntity
  8
visible
100
AcDbEllipse
 10
-50.18694273336247
 20
2.7802595167052075
 30
0.0
 11
0.20194185476737583
 21
0.7740926865002099
 31
0.0
 40
0.5038262457106429
 41
-5.805408203709629
 42
-4.234611876914732
  0
LINE
  5
22C
330
17
100
AcDbEntity
  8
visible
100
AcDbLine
 10
-50.626131665588765
 20
2.5146770708854618
 30
0.0
 11
-47.28280591938211
 21
1.6424851304952468
 31
0.0
  0
ELLIPSE
  5
22D
330
17
100
AcDbEntity
  8
visible
100
AcDbEllipse
 10
-31.694618249642122
 20
63.553435850841794
 30
0.0
 11
0.41396554366777655
 21
-0.6845674025659142
 31
0.0
 40
0.7670754590104828
 41
-5.379975506657335
 42
-3.809179179862438
  0
ELLIPSE
  5
22E
330
17
100
AcDbEntity
  8
visible
100
AcDbEllipse
 10
-31.694618249642122
 20
47.76831780190514
 30
0.0
 11
4.543691732265955
 21
17.41708544625472
 31
0.0
 40
0.5038262457106428
 41
-6.283185307179586
 42
-5.805408203709629
  0
ELLIPSE
  5
22F
330
17
100
AcDbEntity
  8
visible
100
AcDbEllipse
 10
-35.37227657046944
 20
64.51284698527104
 30
0.0
 11
-0.41396554366777655
 21
0.6845674025659142
 31
0.0
 40
0.7670754590104828
 41
5.615598780906941
 42
6.283185307179586
  0
ELLIPSE
  5
230
330
17
100
AcDbEntity
  8
visible
100
AcDbEllipse
 10
-35.37227657046944
 20
48.72772893633439
 30
0.0
 11
4.543691732265955
 21
17.41708544625472
 31
0.0
 40
0.5038262457106428
 41
-6.283185307179586
 42
-5.805408203709629
  0
LINE
  5
231
330
17
100
AcDbEntity
  8
visible
100
AcDbLine
 10
-50.626131665588765
 20
-3.3588552263932954
 30
0.0
 11
-47.28280591938211
 21
-4.23104716678351
 31
0.0
  0
LINE
  5
232
330
17
100
AcDbEntity
  8
visible
100
AcDbLine
 10
-50.626131665588765
 20
-3.3588552263932954
 30
0.0
 11
-50.626131665588765
 21
2.51467707088546
 31
0.0
  0
ELLIPSE
  5
233
330
17
100
AcDbEntity
  8
visible
100
AcDbEllipse
 10
-46.84361698715582
 20
-3.965464720963766
 30
0.0
 11
-0.20194185476737583
 21
-0.7740926865002099
 31
0.0
 40
0.5038262457106429
 41
5.190166083854647
 42
6.283185307179586
  0
ELLIPSE
  5
234
330
17
100
AcDbEntity
  8
visible
100
AcDbEllipse
 10
-47.88120083917445
 20
-1.6989649400198772
 30
0.0
 11
5.0
 21
1.5121708279558175e-16
 31
0.0
 40
0.39718302370189007
 41
3.141592653589793
 42
4.131238191904857
  0
ELLIPSE
  5
235
330
17
100
AcDbEntity
  8
visible
100
AcDbEllipse
 10
-50.18694273336247
 20
-3.0932727805735496
 30
0.0
 11
-0.20194185476737583
 21
-0.7740926865002099
 31
0.0
 40
0.5038262457106429
 41
5.190166083854647
 42
6.283185307179586
  0
ELLIPSE
  5
236
330
17
100
AcDbEntity
  8
visible
100
AcDbEllipse
 10
-38.90555153008356
 20
63.533811532328386
 30
0.0
 11
0.41396554366777655
 21
-0.6845674025659141
 31
0.0
 40
0.7670754590104826
 41
-4.961649451565951
 42
-3.809179179862438
  0
LINE
  5
237
330
17
100
AcDbEntity
  8
visible
100
AcDbLine
 10
-38.90555153008356
 20
64.26800306948823
 30
0.0
 11
-36.7096068689521
 21
65.59591529858696
 31
0.0
  0
ELLIPSE
  5
238
330
17
100
AcDbEntity
  8
visible
100
AcDbEllipse
 10
-36.70960686895209
 20
64.86172376142711
 30
0.0
 11
0.41396554366777655
 21
-0.6845674025659142
 31
0.0
 40
0.7670754590104828
 41
-4.952885509405586
 42
-3.809179179862438
  0
LINE
  5
239
330
17
100
AcDbEntity
  8
visible
100
AcDbLine
 10
-36.7096068689521
 20
65.59591529858697
 30
0.0
 11
-41.89176177557241
 21
66.9478128061918
 31
0.0
  0
LINE
  5
23A
330
17
100
AcDbEntity
  8
visible
100
AcDbLine
 10
-38.90555153008355
 20
64.26800306948823
 30
0.0
 11
-44.08770643670386
 21
65.61990057709306
 31
0.0
  0
ELLIPSE
  5
23B
330
17
100
AcDbEntity
  8
visible
100
AcDbEllipse
 10
-38.90555153008355
 20
47.74869348339173
 30
0.0
 11
4.543691732265956
 21
17.41708544625472
 31
0.0
 40
0.5038262457106429
 41
-5.805408203709629
 42
-4.234611876914732
  0
LINE
  5
23C
330
17
100
AcDbEntity
  8
visible
100
AcDbLine
 10
-48.787302505175106
 20
41.773088452447425
 30
0.0
 11
-53.96945741179542
 21
43.12498596005226
 31
0.0
  0
LINE
  5
23D
330
17
100
AcDbEntity
  8
visible
100
AcDbLine
 10
-48.787302505175106
 20
11.946557255328742
 30
0.0
 11
-48.787302505175106
 21
41.773088452447425
 31
0.0
  0
LINE
  5
23E
330
17
100
AcDbEntity
  8
visible
100
AcDbLine
 10
-48.787302505175106
 20
11.94655725532874
 30
0.0
 11
-53.96945741179542
 21
13.298454762933572
 31
0.0
  0
ELLIPSE
  5
23F
330
17
100
AcDbEntity
  8
visible
100
AcDbEllipse
 10
-38.90555153008355
 20
17.92216228627305
 30
0.0
 11
4.543691732265956
 21
17.41708544625472
 31
0.0
 40
0.5038262457106428
 41
-4.234611876914732
 42
-3.6588852289345417
  0
ELLIPSE
  5
240
330
17
100
AcDbEntity
  8
visible
100
AcDbEllipse
 10
-36.70960686895209
 20
49.07660571249046
 30
0.0
 11
4.543691732265955
 21
17.41708544625472
 31
0.0
 40
0.5038262457106428
 41
-6.283185307179586
 42
-5.805408203709629
  0
ELLIPSE
  5
241
330
17
100
AcDbEntity
  8
visible
100
AcDbEllipse
 10
-48.34811357294881
 20
12.212139701148487
 30
0.0
 11
0.8
 21
1.451683994837585e-16
 31
0.0
 40
0.3971830237018903
 41
4.131238191904856
 42
5.448840017297674
  0
ELLIPSE
  5
242
330
17
100
AcDbEntity
  8
visible
100
AcDbEllipse
 10
-48.34811357294881
 20
42.03867089826717
 30
0.0
 11
0.8
 21
2.4194733247293078e-17
 31
0.0
 40
0.39718302370189007
 41
4.131238191904856
 42
5.449239256539391
  0
ELLIPSE
  5
243
330
17
100
AcDbEntity
  8
visible
100
AcDbEllipse
 10
-40.97701357936255
 20
2.539551078628861
 30
0.0
 11
-3.0
 21
-9.073024967734904e-17
 31
0.0
 40
0.39718302370189007
 41
-6.283185307179586
 42
-5.293539768864522
  0
ELLIPSE
  5
244
330
17
100
AcDbEntity
  8
visible
100
AcDbEllipse
 10
-40.97701357936255
 20
5.659865111558204
 30
0.0
 11
-3.0
 21
-9.073024967734904e-17
 31
0.0
 40
0.39718302370189007
 41
-6.283185307179586
 42
-5.293539768864522
  0
LINE
  5
245
330
17
100
AcDbEntity
  8
visible
100
AcDbLine
 10
-42.62397207521114
 20
1.5436169068048071
 30
0.0
 11
-42.62397207521114
 21
4.663930939734146
 31
0.0
  0
ELLIPSE
  5
246
330
17
100
AcDbEntity
  8
visible
100
AcDbEllipse
 10
-42.18478314298485
 20
1.8091993526245531
 30
0.0
 11
-0.20194185476737583
 21
-0.7740926865002099
 31
0.0
 40
0.5038262457106429
 41
5.190166083854647
 42
6.283185307179586
  0
ELLIPSE
  5
247
330
17
100
AcDbEntity
  8
visible
100
AcDbEllipse
 10
-42.18478314298485
 20
4.9295133855539035
 30
0.0
 11
0.20194185476737583
 21
0.7740926865002099
 31
0.0
 40
0.5038262457106429
 41
-5.805408203709629
 42
-4.234611876914732
  0
LINE
  5
248
330
17
100
AcDbEntity
  8
visible
100
AcDbLine
 10
5.018419808233634
 20
-10.885118243755741
 30
0.0
 11
-42.62397207521114
 21
1.543616906804811
 31
0.0
  0
LINE
  5
249
330
17
100
AcDbEntity
  8
visible
100
AcDbLine
 10
5.018419808233634
 20
-7.764804210826398
 30
0.0
 11
-42.62397207521114
 21
4.663930939734154
 31
0.0
  0
LINE
  5
24A
330
17
100
AcDbEntity
  8
visible
100
AcDbLine
 10
5.018419808233634
 20
-10.885118243755741
 30
0.0
 11
5.018419808233634
 21
-7.764804210826402
 31
0.0
  0
ELLIPSE
  5
24B
330
17
100
AcDbEntity
  8
visible
100
AcDbEllipse
 10
5.457608740459927
 20
-10.619535797935995
 30
0.0
 11
-0.20194185476737583
 21
-0.7740926865002099
 31
0.0
 40
0.5038262457106429
 41
5.190166083854647
 42
6.283185307179586
  0
ELLIPSE
  5
24C
330
17
100
AcDbEntity
  8
visible
100
AcDbEllipse
 10
5.457608740459927
 20
-7.499221765006652
 30
0.0
 11
0.20194185476737583
 21
0.7740926865002099
 31
0.0
 40
0.5038262457106429
 41
-5.805408203709629
 42
-4.234611876914732
  0
LINE
  5
24D
330
17
100
AcDbEntity
  8
visible
100
AcDbLine
 10
9.172872613737216
 20
-10.543328027224348
 30
0.0
 11
9.172872613737216
 21
-7.423013994295009
 31
0.0
  0
ELLIPSE
  5
24E
330
17
100
AcDbEntity
  8
visible
100
AcDbEllipse
 10
6.665378304082228
 20
-9.889184071931687
 30
0.0
 11
-3.0
 21
-9.073024967734904e-17
 31
0.0
 40
0.39718302370189007
 41
-5.293539768864522
 42
-3.7227434420696257
  0
ELLIPSE
  5
24F
330
17
100
AcDbEntity
  8
visible
100
AcDbEllipse
 10
6.665378304082228
 20
-6.768870039002344
 30
0.0
 11
-3.0
 21
-9.073024967734904e-17
 31
0.0
 40
0.39718302370189007
 41
-5.293539768864522
 42
-3.7227434420696257
  0
ELLIPSE
  5
250
330
17
100
AcDbEntity
  8
visible
100
AcDbEllipse
 10
8.504207464495884
 20
-10.368889639146303
 30
0.0
 11
0.41396554366777655
 21
-0.6845674025659142
 31
0.0
 40
0.7670754590104828
 41
-6.283185307179586
 42
-5.379975506657335
  0
LINE
  5
251
330
17
100
AcDbEntity
  8
visible
100
AcDbLine
 10
14.245987739397751
 20
-7.475558727646755
 30
0.0
 11
9.172872613737216
 21
-10.543328027224344
 31
0.0
  0
LINE
  5
252
330
17
100
AcDbEntity
  8
visible
100
AcDbLine
 10
14.040743030356886
 20
2.7769012327877487
 30
0.0
 11
3.5841934518896394
 21
-3.546290924645522
 31
0.0
  0
ELLIPSE
  5
253
330
17
100
AcDbEntity
  8
visible
100
AcDbEllipse
 10
2.915528302648312
 20
-3.3718525365674807
 30
0.0
 11
0.41396554366777655
 21
-0.6845674025659142
 31
0.0
 40
0.7670754590104828
 41
-6.283185307179586
 42
-5.379975506657335
  0
ELLIPSE
  5
254
330
17
100
AcDbEntity
  8
visible
100
AcDbEllipse
 10
-34.687004591274615
 20
5.867494736014763
 30
0.0
 11
-0.20194185476737583
 21
-0.7740926865002099
 31
0.0
 40
0.5038262457106429
 41
5.190166083854647
 42
6.283185307179586
  0
ELLIPSE
  5
255
330
17
100
AcDbEntity
  8
visible
100
AcDbEllipse
 10
-34.02822119293518
 20
6.265868404744381
 30
0.0
 11
-2.0
 21
-6.04868331182327e-17
 31
0.0
 40
0.39718302370189007
 41
-6.283185307179586
 42
-5.293539768864522
  0
ELLIPSE
  5
256
330
17
100
AcDbEntity
  8
visible
100
AcDbEllipse
 10
8.504207464495884
 20
-7.24857560621696
 30
0.0
 11
-0.41396554366777655
 21
0.6845674025659142
 31
0.0
 40
0.7670754590104828
 41
4.044802454112045
 42
5.615598780906941
  0
LINE
  5
257
330
17
100
AcDbEntity
  8
visible
100
AcDbLine
 10
14.041527312316369
 20
-4.478884195426973
 30
0.0
 11
9.172872613737216
 21
-7.423013994295001
 31
0.0
  0
ELLIPSE
  5
258
330
17
100
AcDbEntity
  8
visible
100
AcDbEllipse
 10
1.912530578786317
 20
-3.1101949544504137
 30
0.0
 11
-2.0
 21
-6.04868331182327e-17
 31
0.0
 40
0.39718302370189007
 41
-5.293539768864522
 42
-3.7227434420696257
  0
ELLIPSE
  5
259
330
17
100
AcDbEntity
  8
visible
100
AcDbEllipse
 10
1.2537471804468794
 20
-3.5085686231800395
 30
0.0
 11
-0.20194185476737583
 21
-0.7740926865002099
 31
0.0
 40
0.5038262457106429
 41
5.190166083854647
 42
6.283185307179586
  0
LINE
  5
25A
330
17
100
AcDbEntity
  8
visible
100
AcDbLine
 10
0.8145582482205889
 20
-3.7741510689997853
 30
0.0
 11
-35.1261935235009
 21
5.601912290195017
 31
0.0
  0
LINE
  5
25B
330
17
100
AcDbEntity
  8
visible
100
AcDbLine
 10
3.584193451889643
 20
-3.5462909246455183
 30
0.0
 11
3.584193451889643
 21
-0.4259768917161795
 31
0.0
  0
LINE
  5
25C
330
17
100
AcDbEntity
  8
visible
100
AcDbLine
 10
4.938673364304002
 20
0.3930922185394845
 30
0.0
 11
3.5841934518896394
 21
-0.4259768917161786
 31
0.0
  0
ELLIPSE
  5
25D
330
17
100
AcDbEntity
  8
visible
100
AcDbEllipse
 10
-34.02822119293518
 20
9.386182437673725
 30
0.0
 11
-2.0
 21
-6.04868331182327e-17
 31
0.0
 40
0.39718302370189007
 41
-6.283185307179586
 42
-5.293539768864522
  0
LINE
  5
25E
330
17
100
AcDbEntity
  8
visible
100
AcDbLine
 10
-35.1261935235009
 20
5.601912290195017
 30
0.0
 11
-35.1261935235009
 21
8.722226323124357
 31
0.0
  0
ELLIPSE
  5
25F
330
17
100
AcDbEntity
  8
visible
100
AcDbEllipse
 10
1.912530578786317
 20
0.010119078478929566
 30
0.0
 11
-2.0
 21
-6.04868331182327e-17
 31
0.0
 40
0.39718302370189007
 41
-5.293539768864522
 42
-3.7227434420696257
  0
LINE
  5
260
330
17
100
AcDbEntity
  8
visible
100
AcDbLine
 10
0.8145582482205889
 20
-3.7741510689997853
 30
0.0
 11
0.8145582482205889
 21
-0.6538370360704464
 31
0.0
  0
LINE
  5
261
330
17
100
AcDbEntity
  8
visible
100
AcDbLine
 10
0.8145582482205889
 20
-0.653837036070442
 30
0.0
 11
-35.1261935235009
 21
8.72222632312436
 31
0.0
  0
ELLIPSE
  5
262
330
17
100
AcDbEntity
  8
visible
100
AcDbEllipse
 10
2.915528302648312
 20
-0.25153850363813746
 30
0.0
 11
-0.41396554366777655
 21
0.6845674025659142
 31
0.0
 40
0.7670754590104828
 41
4.044802454112045
 42
5.615598780906941
  0
ELLIPSE
  5
263
330
17
100
AcDbEntity
  8
visible
100
AcDbEllipse
 10
-34.687004591274615
 20
8.987808768944106
 30
0.0
 11
0.20194185476737583
 21
0.7740926865002099
 31
0.0
 40
0.5038262457106429
 41
-5.805408203709629
 42
-4.234611876914732
  0
ELLIPSE
  5
264
330
17
100
AcDbEntity
  8
visible
100
AcDbEllipse
 10
1.2537471804468794
 20
-0.3882545902506962
 30
0.0
 11
0.20194185476737583
 21
0.7740926865002099
 31
0.0
 40
0.5038262457106429
 41
-5.805408203709629
 42
-4.234611876914732
  0
ELLIPSE
  5
265
330
17
100
AcDbEntity
  8
visible
100
AcDbEllipse
 10
-35.15089790075564
 20
14.559405688102586
 30
0.0
 11
4.0
 21
1.209736662364654e-16
 31
0.0
 40
0.39718302370189007
 41
3.141592653589793
 42
4.131238191904857
  0
ELLIPSE
  5
266
330
17
100
AcDbEntity
  8
visible
100
AcDbEllipse
 10
-35.15089790075564
 20
44.84480659594617
 30
0.0
 11
4.0
 21
1.209736662364654e-16
 31
0.0
 40
0.39718302370189007
 41
3.141592653589793
 42
4.131238191904857
  0
LINE
  5
267
330
17
100
AcDbEntity
  8
visible
100
AcDbLine
 10
-37.3468425618871
 20
13.231493459003856
 30
0.0
 11
-37.3468425618871
 21
43.51689436684744
 31
0.0
  0
ELLIPSE
  5
268
330
17
100
AcDbEntity
  8
visible
100
AcDbEllipse
 10
-35.15089790075564
 20
44.84480659594617
 30
0.0
 11
-2.0698277183388827
 21
3.4228370128295706
 31
0.0
 40
0.7670754590104828
 41
5.615598780906941
 42
6.283185307179586
  0
LINE
  5
269
330
17
100
AcDbEntity
  8
visible
100
AcDbLine
 10
-35.150897900755645
 20
48.5157642817454
 30
0.0
 11
-11.544492793592493
 21
62.790820744556804
 31
0.0
  0
ELLIPSE
  5
26A
330
17
100
AcDbEntity
  8
visible
100
AcDbEllipse
 10
-11.544492793592486
 20
59.11986305875757
 30
0.0
 11
2.0698277183388827
 21
-3.4228370128295706
 31
0.0
 40
0.7670754590104828
 41
-3.809179179862438
 42
-3.141592653589793
  0
ELLIPSE
  5
26B
330
17
100
AcDbEntity
  8
visible
100
AcDbEllipse
 10
-35.15089790075564
 20
14.559405688102586
 30
0.0
 11
1.0097092738368791
 21
3.870463432501049
 31
0.0
 40
0.5038262457106429
 41
-4.234611876914732
 42
-3.141592653589793
  0
ELLIPSE
  5
26C
330
17
100
AcDbEntity
  8
visible
100
AcDbEllipse
 10
-35.15089790075564
 20
44.84480659594617
 30
0.0
 11
-1.0097092738368791
 21
-3.870463432501049
 31
0.0
 40
0.5038262457106429
 41
3.6193697570597507
 42
5.190166083854647
  0
LINE
  5
26D
330
17
100
AcDbEntity
  8
visible
100
AcDbLine
 10
-37.346842561887094
 20
13.231493459003852
 30
0.0
 11
1.9372349560410527
 21
2.9832381594188355
 31
0.0
  0
LINE
  5
26E
330
17
100
AcDbEntity
  8
visible
100
AcDbLine
 10
-37.346842561887094
 20
43.51689436684743
 30
0.0
 11
1.9372349560410527
 21
33.26863906726241
 31
0.0
  0
LINE
  5
26F
330
17
100
AcDbEntity
  8
visible
100
AcDbLine
 10
1.9372349560410491
 20
2.9832381594188373
 30
0.0
 11
1.9372349560410491
 21
33.26863906726242
 31
0.0
  0
LINE
  5
270
330
17
100
AcDbEntity
  8
visible
100
AcDbLine
 10
-35.150897900755645
 20
48.51576428174538
 30
0.0
 11
4.133179617172502
 21
38.267508982160365
 31
0.0
  0
LINE
  5
271
330
17
100
AcDbEntity
  8
visible
100
AcDbLine
 10
-11.544492793592488
 20
62.79082074455679
 30
0.0
 11
27.73958472433566
 21
52.54256544497177
 31
0.0
  0
LINE
  5
272
330
17
100
AcDbEntity
  8
visible
100
AcDbLine
 10
4.133179617172505
 20
38.26750898216037
 30
0.0
 11
27.739584724335657
 21
52.54256544497178
 31
0.0
  0
ELLIPSE
  5
273
330
17
100
AcDbEntity
  8
visible
100
AcDbEllipse
 10
-11.544492793592486
 20
59.11986305875757
 30
0.0
 11
-1.009709273836879
 21
-3.870463432501049
 31
0.0
 40
0.5038262457106429
 41
3.1415926535897922
 42
3.6193697570597507
  0
ELLIPSE
  5
274
330
17
100
AcDbEntity
  8
visible
100
AcDbEllipse
 10
4.133179617172505
 20
4.311150388517575
 30
0.0
 11
1.0097092738368791
 21
3.870463432501049
 31
0.0
 40
0.5038262457106429
 41
-4.234611876914732
 42
-3.141592653589793
  0
ELLIPSE
  5
275
330
17
100
AcDbEntity
  8
visible
100
AcDbEllipse
 10
4.133179617172505
 20
34.596551296361156
 30
0.0
 11
-1.0097092738368791
 21
-3.870463432501049
 31
0.0
 40
0.5038262457106429
 41
3.6193697570597507
 42
5.190166083854647
  0
LINE
  5
276
330
17
100
AcDbEntity
  8
visible
100
AcDbLine
 10
7.476505363379157
 20
3.438958448127357
 30
0.0
 11
7.476505363379157
 21
33.72435935597094
 31
0.0
  0
ELLIPSE
  5
277
330
17
100
AcDbEntity
  8
visible
100
AcDbEllipse
 10
4.133179617172505
 20
4.311150388517575
 30
0.0
 11
-4.0
 21
-1.209736662364654e-16
 31
0.0
 40
0.39718302370189007
 41
-5.293539768864522
 42
-3.7227434420696257
  0
ELLIPSE
  5
278
330
17
100
AcDbEntity
  8
visible
100
AcDbEllipse
 10
4.133179617172505
 20
34.596551296361156
 30
0.0
 11
-4.0
 21
-1.209736662364654e-16
 31
0.0
 40
0.39718302370189007
 41
-5.293539768864522
 42
-3.7227434420696257
  0
ELLIPSE
  5
279
330
17
100
AcDbEntity
  8
visible
100
AcDbEllipse
 10
4.133179617172505
 20
4.311150388517575
 30
0.0
 11
-2.0698277183388827
 21
3.4228370128295706
 31
0.0
 40
0.7670754590104828
 41
3.141592653589793
 42
4.044802454112045
  0
LINE
  5
27A
330
17
100
AcDbEntity
  8
visible
100
AcDbLine
 10
7.476505363379157
 20
3.438958448127358
 30
0.0
 11
14.040743030356886
 21
7.408426179704437
 31
0.0
  0
ELLIPSE
  5
27B
330
17
100
AcDbEntity
  8
visible
100
AcDbEllipse
 10
27.73958472433566
 20
48.87160775917256
 30
0.0
 11
-1.0097092738368794
 21
-3.870463432501049
 31
0.0
 40
0.5038262457106428
 41
3.141592653589793
 42
3.6193697570597507
  0
ELLIPSE
  5
27C
330
17
100
AcDbEntity
  8
visible
100
AcDbEllipse
 10
4.133179617172505
 20
34.596551296361156
 30
0.0
 11
2.0698277183388827
 21
-3.4228370128295706
 31
0.0
 40
0.7670754590104828
 41
-5.379975506657335
 42
-3.809179179862438
  0
LINE
  5
27D
330
17
100
AcDbEntity
  8
visible
100
AcDbLine
 10
7.476505363379157
 20
33.72435935597094
 30
0.0
 11
17.317911272907732
 21
39.67556727577982
 31
0.0
  0
ELLIPSE
  5
27E
330
17
100
AcDbEntity
  8
visible
100
AcDbEllipse
 10
27.73958472433566
 20
48.87160775917256
 30
0.0
 11
-2.0698277183388827
 21
3.4228370128295706
 31
0.0
 40
0.7670754590104828
 41
4.611837961995692
 42
5.615598780906941
  0
LINE
  5
27F
330
17
100
AcDbEntity
  8
visible
100
AcDbLine
 10
-63.38784997037623
 20
-61.12465382216685
 30
0.0
 11
-63.38784997037623
 21
-33.40892329438272
 31
0.0
  0
SPLINE
  5
280
330
17
100
AcDbEntity
  8
visible
100
AcDbSpline
 70
0
 71
3
 72
17
 73
13
 74
0
 40
0.0
 40
0.0
 40
0.0
 40
0.0
 40
0.3561106017951985
 40
0.3561106017951985
 40
0.3561106017951985
 40
0.5664676422210579
 40
0.5664676422210579
 40
0.5664676422210579
 40
0.6438893982048015
 40
0.6438893982048015
 40
0.6438893982048015
 40
1.0
 40
1.0
 40
1.0
 40
1.0
 10
-57.73843687631168
 20
-65.61690075014351
 30
0.0
 10
-59.12677275985773
 20
-65.25457825658377
 30
0.0
 10
-60.32931241766154
 20
-64.77324387066554
 30
0.0
 10
-61.26325060803249
 20
-64.18978313539178
 30
0.0
 10
-61.817874390302954
 20
-63.8456902626443
 30
0.0
 10
-62.27369710760123
 20
-63.46239441166301
 30
0.0
 10
-62.63071875992716
 20
-63.03989558244788
 30
0.0
 10
-62.76133520944856
 20
-62.88401016134739
 30
0.0
 10
-62.87653299979078
 20
-62.72231497878773
 30
0.0
 10
-62.976312130953865
 20
-62.55481003476881
 30
0.0
 10
-63.240628173176106
 20
-62.11188840861054
 30
0.0
 10
-63.388698271349206
 20
-61.62130536862733
 30
0.0
 10
-63.38784997037623
 20
-61.12465382216685
 30
0.0
  0
LINE
  5
281
330
17
100
AcDbEntity
  8
visible
100
AcDbLine
 10
55.97653679395625
 20
-58.44157336764924
 30
0.0
 11
55.97653679395625
 21
-30.725842839865113
 31
0.0
  0
LINE
  5
282
330
17
100
AcDbEntity
  8
visible
100
AcDbLine
 10
5.784752301614681
 20
-82.18854761755757
 30
0.0
 11
-57.73843687631168
 21
-65.61690075014351
 31
0.0
  0
SPLINE
  5
283
330
17
100
AcDbEntity
  8
visible
100
AcDbSpline
 70
0
 71
1
 72
4
 73
2
 74
0
 40
0.0
 40
0.0
 40
1.0
 40
1.0
 10
-33.03820440854342
 20
-49.36339997459739
 30
0.0
 10
-33.36759610771314
 20
-49.5625868089622
 30
0.0
  0
SPLINE
  5
284
330
17
100
AcDbEntity
  8
visible
100
AcDbSpline
 70
0
 71
1
 72
4
 73
2
 74
0
 40
0.0
 40
0.0
 40
1.0
 40
1.0
 10
-31.090724984810674
 20
-53.075479724885
 30
0.0
 10
-31.238109532491666
 20
-53.16460480472418
 30
0.0
  0
SPLINE
  5
285
330
17
100
AcDbEntity
  8
visible
100
AcDbSpline
 70
0
 71
3
 72
11
 73
7
 74
0
 40
0.0
 40
0.0
 40
0.0
 40
0.0
 40
0.5
 40
0.5
 40
0.5
 40
1.0
 40
1.0
 40
1.0
 40
1.0
 10
55.97653679395625
 20
-58.441573367649234
 30
0.0
 10
55.977422380301526
 20
-58.94644513156459
 30
0.0
 10
55.82437112588556
 20
-59.44479845120232
 30
0.0
 10
55.55190768865582
 20
-59.89357812560544
 30
0.0
 10
55.1632151534027
 20
-60.534499957548455
 30
0.0
 10
54.54592316267039
 20
-61.08718122670714
 30
0.0
 10
53.75181442700264
 20
-61.568278203307756
 30
0.0
  0
LINE
  5
286
330
17
100
AcDbEntity
  8
visible
100
AcDbLine
 10
53.75181442700265
 20
-61.56827820330776
 30
0.0
 11
21.910616840596532
 21
-80.82300552523942
 31
0.0
  0
SPLINE
  5
287
330
17
100
AcDbEntity
  8
visible
100
AcDbSpline
 70
0
 71
3
 72
14
 73
10
 74
0
 40
0.0
 40
0.0
 40
0.0
 40
0.0
 40
0.4071140922212231
 40
0.4071140922212231
 40
0.4071140922212231
 40
0.6313966446163403
 40
0.6313966446163403
 40
0.6313966446163403
 40
1.0
 40
1.0
 40
1.0
 40
1.0
 10
21.910616840596532
 20
-80.82300552523942
 30
0.0
 10
20.485064590837023
 20
-81.68643527831276
 30
0.0
 10
18.444123538022872
 20
-82.32310675936606
 30
0.0
 10
16.119451682000232
 20
-82.66257202966327
 30
0.0
 10
14.841400483790984
 20
-82.84959303856063
 30
0.0
 10
13.483880443370392
 20
-82.94536576488964
 30
0.0
 10
12.126018029630531
 20
-82.94475040026373
 30
0.0
 10
9.89331960896861
 20
-82.94522296721209
 30
0.0
 10
7.66752653121448
 20
-82.6812020060442
 30
0.0
 10
5.7847523016146845
 20
-82.18854761755757
 30
0.0
  0
LINE
  5
288
330
17
100
AcDbEntity
  8
visible
100
AcDbLine
 10
55.97653679395625
 20
-29.624555534125342
 30
0.0
 11
55.97653679395625
 21
-25.035858426876317
 31
0.0
  0
LINE
  5
289
330
17
100
AcDbEntity
  8
visible
100
AcDbLine
 10
-63.38784997037623
 20
-32.30763598864295
 30
0.0
 11
-63.38784997037623
 21
-27.718938881393925
 31
0.0
  0
SPLINE
  5
28A
330
17
100
AcDbEntity
  8
visible
100
AcDbSpline
 70
0
 71
2
 72
6
 73
3
 74
0
 40
0.0
 40
0.0
 40
0.0
 40
1.0
 40
1.0
 40
1.0
 10
55.870632168470294
 20
-24.301664837785374
 30
0.0
 10
55.97601337043196
 20
-24.662967541989595
 30
0.0
 10
55.97653679395625
 20
-25.035858426876317
 30
0.0
  0
SPLINE
  5
28B
330
17
100
AcDbEntity
  8
visible
100
AcDbSpline
 70
0
 71
2
 72
6
 73
3
 74
0
 40
0.0
 40
0.0
 40
0.0
 40
0.24555354065364485
 40
0.24555354065364485
 40
0.24555354065364485
 10
-63.38784997037624
 20
-27.718938881393928
 30
0.0
 10
-63.38732758752607
 20
-27.346050313394542
 30
0.0
 10
-63.28194534489027
 20
-26.98474939616517
 30
0.0
  0
LINE
  5
28C
330
17
100
AcDbEntity
  8
visible
100
AcDbLine
 10
-41.573663891170085
 20
-60.43622787231323
 30
0.0
 11
-41.573663891170085
 21
-59.10859498199756
 31
0.0
  0
LINE
  5
28D
330
17
100
AcDbEntity
  8
visible
100
AcDbLine
 10
-63.38784997037623
 20
-26.25055580707424
 30
0.0
 11
-63.38784997037623
 21
-24.0479811955947
 31
0.0
  0
LINE
  5
28E
330
17
100
AcDbEntity
  8
visible
100
AcDbLine
 10
-61.16312760342263
 20
-20.92127635993618
 30
0.0
 11
-49.70565658821
 21
-13.992815845905781
 31
0.0
  0
SPLINE
  5
28F
330
17
100
AcDbEntity
  8
visible
100
AcDbSpline
 70
0
 71
3
 72
17
 73
13
 74
0
 40
0.0
 40
0.0
 40
0.0
 40
0.0
 40
0.35611060179519466
 40
0.35611060179519466
 40
0.35611060179519466
 40
0.5664676422210547
 40
0.5664676422210547
 40
0.5664676422210547
 40
0.6438893982048054
 40
0.6438893982048054
 40
0.6438893982048054
 40
1.0
 40
1.0
 40
1.0
 40
1.0
 10
-57.73843687631168
 20
-30.7428027350509
 30
0.0
 10
-59.12677275985773
 20
-30.38048024149119
 30
0.0
 10
-60.32931241766151
 20
-29.899145855572893
 30
0.0
 10
-61.2632506080325
 20
-29.315685120299168
 30
0.0
 10
-61.81787439030296
 20
-28.97159224755173
 30
0.0
 10
-62.27369710760121
 20
-28.58829639657039
 30
0.0
 10
-62.630718759927184
 20
-28.165797567355273
 30
0.0
 10
-62.76133520944848
 20
-28.00991214625476
 30
0.0
 10
-62.876532999790854
 20
-27.848216963695144
 30
0.0
 10
-62.976312130953865
 20
-27.680712019676207
 30
0.0
 10
-63.24062817317615
 20
-27.237790393517926
 30
0.0
 10
-63.38869827134918
 20
-26.74720735353468
 30
0.0
 10
-63.38784997037623
 20
-26.250555807074235
 30
0.0
  0
SPLINE
  5
290
330
17
100
AcDbEntity
  8
visible
100
AcDbSpline
 70
0
 71
3
 72
11
 73
7
 74
0
 40
0.0
 40
0.0
 40
0.0
 40
0.0
 40
0.5
 40
0.5
 40
0.5
 40
1.0
 40
1.0
 40
1.0
 40
1.0
 10
-63.38784997037623
 20
-24.0479811955947
 30
0.0
 10
-63.388735556721514
 20
-23.543109431679305
 30
0.0
 10
-63.23568430230555
 20
-23.04475611204162
 30
0.0
 10
-62.9632208650758
 20
-22.595976437638505
 30
0.0
 10
-62.574528329822684
 20
-21.955054605695466
 30
0.0
 10
-61.95723633909039
 20
-21.402373336536808
 30
0.0
 10
-61.16312760342262
 20
-20.921276359936186
 30
0.0
  0
LINE
  5
291
330
17
100
AcDbEntity
  8
visible
100
AcDbLine
 10
5.784752301614681
 20
-47.31444960246497
 30
0.0
 11
-57.73843687631168
 21
-30.7428027350509
 31
0.0
  0
SPLINE
  5
292
330
17
100
AcDbEntity
  8
visible
100
AcDbSpline
 70
0
 71
3
 72
14
 73
10
 74
0
 40
0.0
 40
0.0
 40
0.0
 40
0.0
 40
0.4071140922212399
 40
0.4071140922212399
 40
0.4071140922212399
 40
0.6313966446163463
 40
0.6313966446163463
 40
0.6313966446163463
 40
1.0
 40
1.0
 40
1.0
 40
1.0
 10
21.910616840596532
 20
-45.94890751014681
 30
0.0
 10
20.48506459083715
 20
-46.81233726322004
 30
0.0
 10
18.444123538023327
 20
-47.44900874427341
 30
0.0
 10
16.11945168200023
 20
-47.78847401457064
 30
0.0
 10
14.841400483790967
 20
-47.97549502346794
 30
0.0
 10
13.48388044337041
 20
-48.071267749797045
 30
0.0
 10
12.126018029630533
 20
-48.07065238517108
 30
0.0
 10
9.89331960896861
 20
-48.07112495211949
 30
0.0
 10
7.667526531214485
 20
-47.80710399095158
 30
0.0
 10
5.7847523016146845
 20
-47.31444960246497
 30
0.0
  0
SPLINE
  5
293
330
17
100
AcDbEntity
  8
visible
100
AcDbSpline
 70
0
 71
3
 72
11
 73
7
 74
0
 40
0.0
 40
0.0
 40
0.0
 40
0.0
 40
0.5
 40
0.5
 40
0.5
 40
1.0
 40
1.0
 40
1.0
 40
1.0
 10
55.97653679395625
 20
-23.56747535255664
 30
0.0
 10
55.977422380301526
 20
-24.072347116471978
 30
0.0
 10
55.82437112588556
 20
-24.570700436109718
 30
0.0
 10
55.55190768865582
 20
-25.019480110512824
 30
0.0
 10
55.1632151534027
 20
-25.660401942455877
 30
0.0
 10
54.54592316267039
 20
-26.213083211614528
 30
0.0
 10
53.75181442700264
 20
-26.694180188215142
 30
0.0
  0
LINE
  5
294
330
17
100
AcDbEntity
  8
visible
100
AcDbLine
 10
53.75181442700265
 20
-26.694180188215157
 30
0.0
 11
21.910616840596532
 21
-45.948907510146825
 31
0.0
  0
LINE
  5
295
330
17
100
AcDbEntity
  8
visible
100
AcDbLine
 10
42.29434341179003
 20
-14.77709784337273
 30
0.0
 11
50.3271236998917
 21
-16.872653813100428
 31
0.0
  0
SPLINE
  5
296
330
17
100
AcDbEntity
  8
visible
100
AcDbSpline
 70
0
 71
3
 72
17
 73
13
 74
0
 40
0.0
 40
0.0
 40
0.0
 40
0.0
 40
0.3561106017952157
 40
0.3561106017952157
 40
0.3561106017952157
 40
0.5664676422210622
 40
0.5664676422210622
 40
0.5664676422210622
 40
0.6438893982047844
 40
0.6438893982047844
 40
0.6438893982047844
 40
1.0
 40
1.0
 40
1.0
 40
1.0
 10
50.3271236998917
 20
-16.872653813100435
 30
0.0
 10
51.715459583437756
 20
-17.234976306660126
 30
0.0
 10
52.91799924124156
 20
-17.716310692578435
 30
0.0
 10
53.85193743161251
 20
-18.29977142785217
 30
0.0
 10
54.40656121388297
 20
-18.64386430059961
 30
0.0
 10
54.86238393118124
 20
-19.02716015158093
 30
0.0
 10
55.219405583507175
 20
-19.449658980796073
 30
0.0
 10
55.35002203302859
 20
-19.605544401896534
 30
0.0
 10
55.46521982337083
 20
-19.767239584456217
 30
0.0
 10
55.564998954533884
 20
-19.93474452847513
 30
0.0
 10
55.82931499675622
 20
-20.37766615463341
 30
0.0
 10
55.97738509492916
 20
-20.86824919461665
 30
0.0
 10
55.97653679395625
 20
-21.364900741077093
 30
0.0
  0
LINE
  5
297
330
17
100
AcDbEntity
  8
visible
100
AcDbLine
 10
55.97653679395625
 20
-23.56747535255663
 30
0.0
 11
55.97653679395625
 21
-21.364900741077093
 31
0.0
  0
LINE
  5
298
330
17
100
AcDbEntity
  8
visible
100
AcDbLine
 10
21.49261895531314
 20
-22.71126612760834
 30
0.0
 11
19.58853675556523
 21
-22.214537637916642
 31
0.0
  0
SPLINE
  5
299
330
17
100
AcDbEntity
  8
visible
100
AcDbSpline
 70
0
 71
3
 72
11
 73
7
 74
0
 40
0.0
 40
0.0
 40
0.0
 40
0.0
 40
0.4499105494344232
 40
0.4499105494344232
 40
0.4499105494344232
 40
1.0
 40
1.0
 40
1.0
 40
1.0
 10
27.924760281453302
 20
-22.143234540530088
 30
0.0
 10
27.259851474246823
 20
-22.544929133590518
 30
0.0
 10
26.334139393404687
 20
-22.812026501795778
 30
0.0
 10
25.294641388984765
 20
-22.93591454275169
 30
0.0
 10
24.026504069383982
 20
-23.08800238618626
 30
0.0
 10
22.617073132063922
 20
-23.006947463790848
 30
0.0
 10
21.492618955313137
 20
-22.71126612760834
 30
0.0
  0
SPLINE
  5
29A
330
17
100
AcDbEntity
  8
visible
100
AcDbSpline
 70
0
 71
3
 72
14
 73
10
 74
0
 40
0.0
 40
0.0
 40
0.0
 40
0.0
 40
0.2656469925059958
 40
0.2656469925059958
 40
0.2656469925059958
 40
0.6328234962529979
 40
0.6328234962529979
 40
0.6328234962529979
 40
1.0
 40
1.0
 40
1.0
 40
1.0
 10
17.813595596386016
 20
-21.742866754071112
 30
0.0
 10
17.52788228999778
 20
-21.653442853805654
 30
0.0
 10
17.265145543798806
 20
-21.549556272427186
 30
0.0
 10
17.025385357789016
 20
-21.431207009935733
 30
0.0
 10
16.64392697854763
 20
-21.241818452767568
 30
0.0
 10
16.323449723355427
 20
-21.016110760912706
 30
0.0
 10
16.081703076227306
 20
-20.738245895248866
 30
0.0
 10
15.819405142962266
 20
-20.439302333524402
 30
0.0
 10
15.655444199267135
 20
-20.06229799041006
 30
0.0
 10
15.656976958061897
 20
-19.67067366016424
 30
0.0
  0
LINE
  5
29B
330
17
100
AcDbEntity
  8
visible
100
AcDbLine
 10
15.65697695806189
 20
-19.670673660164244
 30
0.0
 11
15.65697695806189
 21
-13.797141362885489
 31
0.0
  0
LINE
  5
29C
330
17
100
AcDbEntity
  8
visible
100
AcDbLine
 10
44.394345239939234
 20
-12.183892822289579
 30
0.0
 11
27.924760281453313
 21
-22.143234540530095
 31
0.0
  0
SPLINE
  5
29D
330
17
100
AcDbEntity
  8
visible
100
AcDbSpline
 70
0
 71
3
 72
11
 73
7
 74
0
 40
0.0
 40
0.0
 40
0.0
 40
0.0
 40
0.5
 40
0.5
 40
0.5
 40
1.0
 40
1.0
 40
1.0
 40
1.0
 10
45.469887662754466
 20
-10.58352388231394
 30
0.0
 10
45.471361542404296
 20
-10.967552371004388
 30
0.0
 10
45.31367023987458
 20
-11.338129434985998
 30
0.0
 10
45.059963393297565
 20
-11.633842939066618
 30
0.0
 10
44.87915040118924
 20
-11.843565344315333
 30
0.0
 10
44.65727768340316
 20
-12.026915305389661
 30
0.0
 10
44.394345239939234
 20
-12.183892822289579
 30
0.0
  0
SPLINE
  5
29E
330
17
100
AcDbEntity
  8
visible
100
AcDbSpline
 70
0
 71
3
 72
8
 73
4
 74
0
 40
0.0
 40
0.0
 40
0.0
 40
0.0
 40
1.0
 40
1.0
 40
1.0
 40
1.0
 10
15.963117302391943
 20
-12.880127712367418
 30
0.0
 10
14.698392816769168
 20
-10.748955703412273
 30
0.0
 10
14.038959621717547
 20
-7.708733641024352
 30
0.0
 10
14.040743030356886
 20
-4.272287972226556
 30
0.0
  0
SPLINE
  5
29F
330
17
100
AcDbEntity
  8
visible
100
AcDbSpline
 70
0
 71
3
 72
8
 73
4
 74
0
 40
0.0
 40
0.0
 40
0.0
 40
0.0
 40
1.0
 40
1.0
 40
1.0
 40
1.0
 10
15.963907088261571
 20
-12.879017754897674
 30
0.0
 10
15.770847996195755
 20
-13.14784485094529
 30
0.0
 10
15.655965599552264
 20
-13.469116574860777
 30
0.0
 10
15.65697695806189
 20
-13.797141362885498
 30
0.0
  0
LINE
  5
2A0
330
17
100
AcDbEntity
  8
visible
100
AcDbLine
 10
45.46988766275447
 20
-10.583523882313944
 30
0.0
 11
45.46988766275447
 21
-4.709991585035189
 31
0.0
  0
SPLINE
  5
2A1
330
17
100
AcDbEntity
  8
visible
100
AcDbSpline
 70
0
 71
3
 72
11
 73
7
 74
0
 40
0.0
 40
0.0
 40
0.0
 40
0.0
 40
0.5656233441999566
 40
0.5656233441999566
 40
0.5656233441999566
 40
1.0
 40
1.0
 40
1.0
 40
1.0
 10
26.065284190685816
 20
49.06186349061798
 30
0.0
 10
26.99897445840256
 20
49.62667852203432
 30
0.0
 10
27.953311570237634
 20
49.990193431927544
 30
0.0
 10
28.897699281009793
 20
50.12225129179261
 30
0.0
 10
29.622403554228317
 20
50.22403086191227
 30
0.0
 10
30.34055261233198
 20
50.187643188767794
 30
0.0
 10
31.022941466619557
 20
50.009263485370155
 30
0.0
  0
LINE
  5
2A2
330
17
100
AcDbEntity
  8
visible
100
AcDbLine
 10
23.869339529554363
 20
47.73395126151925
 30
0.0
 11
26.06528419068582
 21
49.06186349061799
 31
0.0
  0
SPLINE
  5
2A3
330
17
100
AcDbEntity
  8
visible
100
AcDbSpline
 70
0
 71
3
 72
17
 73
13
 74
0
 40
0.0
 40
0.0
 40
0.0
 40
0.0
 40
0.30428186445716604
 40
0.30428186445716604
 40
0.30428186445716604
 40
0.4830407874480901
 40
0.4830407874480901
 40
0.4830407874480901
 40
0.662686064889668
 40
0.662686064889668
 40
0.662686064889668
 40
1.0
 40
1.0
 40
1.0
 40
1.0
 10
14.040743030356886
 20
25.554243224892133
 30
0.0
 10
14.039415299302949
 20
28.147649296228952
 30
0.0
 10
14.416806767217187
 20
30.95543233602626
 30
0.0
 10
15.130361761095383
 20
33.67791364486236
 30
0.0
 10
15.5486472753041
 20
35.277198643437025
 30
0.0
 10
16.081127212131832
 20
36.84611933876031
 30
0.0
 10
16.707889072497704
 20
38.325239356121294
 30
0.0
 10
17.337548936724424
 20
39.81196395231662
 30
0.0
 10
18.06218359444208
 20
41.20759184316331
 30
0.0
 10
18.855699587074486
 20
42.45965988465008
 30
0.0
 10
20.346151758374337
 20
44.813408091996465
 30
0.0
 10
22.075413339296052
 20
46.65063893797449
 30
0.0
 10
23.869339529554363
 20
47.73395126151926
 30
0.0
  0
LINE
  5
2A4
330
17
100
AcDbEntity
  8
visible
100
AcDbLine
 10
14.040743030356886
 20
-4.272287972226557
 30
0.0
 11
14.040743030356886
 21
25.554243224892122
 31
0.0
  0
SPLINE
  5
2A5
330
17
100
AcDbEntity
  8
visible
100
AcDbSpline
 70
0
 71
3
 72
11
 73
7
 74
0
 40
0.0
 40
0.0
 40
0.0
 40
0.0
 40
0.007490919458964971
 40
0.007490919458964971
 40
0.007490919458964971
 40
1.0
 40
1.0
 40
1.0
 40
1.0
 10
45.03968604825785
 20
-3.6361326238062537
 30
0.0
 10
45.04151121370158
 20
-3.63822819918769
 30
0.0
 10
45.04333637914531
 20
-3.6403237745691293
 30
0.0
 10
45.04516154458905
 20
-3.6424193499505644
 30
0.0
 10
45.30745947785407
 20
-3.941362911675001
 30
0.0
 10
45.47142042154924
 20
-4.318367254789398
 30
0.0
 10
45.46988766275446
 20
-4.7099915850351906
 30
0.0
  0
LINE
  5
2A6
330
17
100
AcDbEntity
  8
visible
100
AcDbLine
 10
34.700599787446876
 20
49.04985235094091
 30
0.0
 11
31.022941466619557
 21
50.00926348537014
 31
0.0
  0
SPLINE
  5
2A7
330
17
100
AcDbEntity
  8
visible
100
AcDbSpline
 70
0
 71
2
 72
6
 73
3
 74
0
 40
0.0
 40
0.0
 40
0.0
 40
0.06270083266455109
 40
0.06270083266455109
 40
0.06270083266455109
 10
34.700599787446876
 20
49.04985235094091
 30
0.0
 10
35.03572270486116
 20
48.96241607681057
 30
0.0
 10
35.35756952661687
 20
48.83061652207138
 30
0.0
  0
LINE
  5
2A8
330
17
100
AcDbEntity
  8
visible
100
AcDbLine
 10
42.29434341179002
 20
-20.50386635685637
 30
0.0
 11
42.29434341179002
 21
-13.453787350183655
 31
0.0
  0
LINE
  5
2A9
330
17
100
AcDbEntity
  8
visible
100
AcDbLine
 10
-49.70565658821
 20
-20.50386635685637
 30
0.0
 11
-49.70565658821
 21
-7.563740514414105
 31
0.0
  0
SPLINE
  5
2AA
330
17
100
AcDbEntity
  8
visible
100
AcDbSpline
 70
0
 71
3
 72
35
 73
31
 74
0
 40
0.0
 40
0.0
 40
0.0
 40
0.0
 40
0.13140048995797216
 40
0.13140048995797216
 40
0.13140048995797216
 40
0.24150242902459648
 40
0.24150242902459648
 40
0.24150242902459648
 40
0.40785511530733987
 40
0.40785511530733987
 40
0.40785511530733987
 40
0.5980194328453476
 40
0.5980194328453476
 40
0.5980194328453476
 40
0.7881837503833553
 40
0.7881837503833553
 40
0.7881837503833553
 40
0.834508392433561
 40
0.834508392433561
 40
0.834508392433561
 40
0.8808330344837668
 40
0.8808330344837668
 40
0.8808330344837668
 40
0.9273756282226242
 40
0.9273756282226242
 40
0.9273756282226242
 40
0.9613374261273369
 40
0.9613374261273369
 40
0.9613374261273369
 40
1.0
 40
1.0
 40
1.0
 40
1.0
 10
-49.70565658821
 20
-20.503866356856363
 30
0.0
 10
-49.70753652149127
 20
-22.321882002415386
 30
0.0
 10
-49.07364665010701
 20
-24.12451757758975
 30
0.0
 10
-47.88420990496321
 20
-25.807198373317917
 30
0.0
 10
-46.88806981012486
 20
-27.219556362336977
 30
0.0
 10
-45.504868788631256
 20
-28.558014160380733
 30
0.0
 10
-43.776931113706716
 20
-29.805607698524476
 30
0.0
 10
-41.167611574080745
 20
-31.690442836587973
 30
0.0
 10
-37.76261939760045
 20
-33.36876157621512
 30
0.0
 10
-33.75066423604963
 20
-34.76410080404053
 30
0.0
 10
-29.167420766525318
 20
-36.360198685625754
 30
0.0
 10
-23.78744061915744
 20
-37.581992233552945
 30
0.0
 10
-18.024357840770307
 20
-38.338894150464164
 30
0.0
 10
-12.263659683483041
 20
-39.09820080966875
 30
0.0
 10
-6.119858895176572
 20
-39.3926158378573
 30
0.0
 10
-0.07335891347191027
 20
-39.19888472188636
 30
0.0
 10
4.879279983819741
 20
-39.04207463828154
 30
0.0
 10
9.76698872534142
 20
-38.55961790014014
 30
0.0
 10
14.33323681670981
 20
-37.776644029472706
 30
0.0
 10
18.900840530571237
 20
-36.99468002595926
 30
0.0
 10
23.146983594279362
 20
-35.91219888991979
 30
0.0
 10
26.853092943255746
 20
-34.58260642367669
 30
0.0
 10
30.57854165320029
 20
-33.24713680290021
 30
0.0
 10
33.75878957798115
 20
-31.664123874664597
 30
0.0
 10
36.237851236634704
 20
-29.89724744620138
 30
0.0
 10
38.047586809662405
 20
-28.6078754608562
 30
0.0
 10
39.48758323981418
 20
-27.220290473827276
 30
0.0
 10
40.510585598431454
 20
-25.753455225519133
 30
0.0
 10
41.67577805469125
 20
-24.08637789232367
 30
0.0
 10
42.29617426222035
 20
-22.302482469777058
 30
0.0
 10
42.29434341179002
 20
-20.503866356856367
 30
0.0
  0
SPLINE
  5
2AB
330
17
100
AcDbEntity
  8
visible
100
AcDbSpline
 70
0
 71
3
 72
8
 73
4
 74
0
 40
0.0
 40
0.0
 40
0.0
 40
0.0
 40
0.1624912860071202
 40
0.1624912860071202
 40
0.1624912860071202
 40
0.1624912860071202
 10
-49.70565658821
 20
-7.563740514414107
 30
0.0
 10
-49.70609994216769
 20
-6.439926645222453
 30
0.0
 10
-49.46512265164092
 20
-5.318010990523165
 30
0.0
 10
-48.99756982963401
 20
-4.230325468887184
 30
0.0
  0
LINE
  5
2AC
330
17
100
AcDbEntity
  8
visible
100
AcDbLine
 10
28.88432814886434
 20
46.42566335093393
 30
0.0
 11
31.080272809995797
 21
47.75357558003267
 31
0.0
  0
LINE
  5
2AD
330
17
100
AcDbEntity
  8
visible
100
AcDbLine
 10
62.966918884941066
 20
31.25527318602683
 30
0.0
 11
62.966918884941066
 21
24.31379935361035
 31
0.0
  0
SPLINE
  5
2AE
330
17
100
AcDbEntity
  8
visible
100
AcDbSpline
 70
0
 71
3
 72
8
 73
4
 74
0
 40
0.0
 40
0.0
 40
0.0
 40
0.0
 40
1.0
 40
1.0
 40
1.0
 40
1.0
 10
55.996198406490834
 20
31.068173849560537
 30
0.0
 10
55.15104433190316
 20
31.289707208672933
 30
0.0
 10
54.234814155870666
 20
31.216701368860786
 30
0.0
 10
53.32033966711962
 20
30.86905509769018
 30
0.0
  0
LINE
  5
2AF
330
17
100
AcDbEntity
  8
visible
100
AcDbLine
 10
48.92823348963266
 20
3.974929822053201
 30
0.0
 11
49.51331549521881
 21
3.8222962324849163
 31
0.0
  0
LINE
  5
2B0
330
17
100
AcDbEntity
  8
visible
100
AcDbLine
 10
55.996198406490805
 20
31.068173849560555
 30
0.0
 11
56.58128041207696
 21
30.91554025999227
 31
0.0
  0
SPLINE
  5
2B1
330
17
100
AcDbEntity
  8
visible
100
AcDbSpline
 70
0
 71
3
 72
23
 73
19
 74
0
 40
0.0
 40
0.0
 40
0.0
 40
0.0
 40
0.15435820579012258
 40
0.15435820579012258
 40
0.15435820579012258
 40
0.6591739777040193
 40
0.6591739777040193
 40
0.6591739777040193
 40
0.7363530805990806
 40
0.7363530805990806
 40
0.7363530805990806
 40
0.8135321834941419
 40
0.8135321834941419
 40
0.8135321834941419
 40
0.9296907270028593
 40
0.9296907270028593
 40
0.9296907270028593
 40
1.0
 40
1.0
 40
1.0
 40
1.0
 10
53.254280725481784
 20
4.545378413238282
 30
0.0
 10
53.75593230847938
 20
4.84919981946267
 30
0.0
 10
54.249691658270066
 20
5.226553132730228
 30
0.0
 10
54.735558774853814
 20
5.677438353040958
 30
0.0
 10
56.32146551433402
 20
7.143824988488337
 30
0.0
 10
57.78224832401488
 20
9.380340760894107
 30
0.0
 10
58.868262215368404
 20
11.984014827709075
 30
0.0
 10
59.5951378508438
 20
13.720485221159121
 30
0.0
 10
60.155016258623284
 20
15.614180784855698
 30
0.0
 10
60.50027759651293
 20
17.502683121911403
 30
0.0
 10
60.84679752615784
 20
19.391284392522063
 30
0.0
 10
60.97870038591306
 20
21.27469243649185
 30
0.0
 10
60.88360690273185
 20
22.99325899647196
 30
0.0
 10
60.74322592580516
 20
25.58362422320019
 30
0.0
 10
60.086365647370144
 20
27.787710534369065
 30
0.0
 10
58.991955977672745
 20
29.2181775934949
 30
0.0
 10
58.332078260200596
 20
30.08630857324761
 30
0.0
 10
57.506411482686936
 20
30.675569148944277
 30
0.0
 10
56.58128041207697
 20
30.91554025999227
 30
0.0
  0
SPLINE
  5
2B2
330
17
100
AcDbEntity
  8
visible
100
AcDbSpline
 70
0
 71
3
 72
8
 73
4
 74
0
 40
0.0
 40
0.0
 40
0.0
 40
0.0
 40
1.0
 40
1.0
 40
1.0
 40
1.0
 10
49.51331549521881
 20
3.8222962324849163
 30
0.0
 10
50.68862427350692
 20
3.5131178708533017
 30
0.0
 10
51.99242243597955
 20
3.7787554078952668
 30
0.0
 10
53.25428072548178
 20
4.545378413238282
 30
0.0
  0
SPLINE
  5
2B3
330
17
100
AcDbEntity
  8
visible
100
AcDbSpline
 70
0
 71
3
 72
8
 73
4
 74
0
 40
0.0
 40
0.0
 40
0.0
 40
0.0
 40
1.0
 40
1.0
 40
1.0
 40
1.0
 10
48.928233489632674
 20
3.9749298220531983
 30
0.0
 10
48.08256485980404
 20
4.194490764653429
 30
0.0
 10
47.31876197835074
 20
4.70577615110876
 30
0.0
 10
46.690654361762775
 20
5.455844376285384
 30
0.0
  0
LINE
  5
2B4
330
17
100
AcDbEntity
  8
visible
100
AcDbLine
 10
30.529874560533763
 20
6.244761658071433
 30
0.0
 11
47.246503291567016
 21
1.8838019561203678
 31
0.0
  0
LINE
  5
2B5
330
17
100
AcDbEntity
  8
visible
100
AcDbLine
 10
40.62696729890256
 20
44.949395983081935
 30
0.0
 11
57.34359602993581
 21
40.58843628113087
 31
0.0
  0
LINE
  5
2B6
330
17
100
AcDbEntity
  8
visible
100
AcDbLine
 10
41.22008499254984
 20
47.34907806717999
 30
0.0
 11
36.03793008592953
 21
48.70097557478482
 31
0.0
  0
SPLINE
  5
2B7
330
17
100
AcDbEntity
  8
visible
100
AcDbSpline
 70
0
 71
3
 72
11
 73
7
 74
0
 40
0.0
 40
0.0
 40
0.0
 40
0.0
 40
0.5656233441999566
 40
0.5656233441999566
 40
0.5656233441999566
 40
1.0
 40
1.0
 40
1.0
 40
1.0
 10
31.08027280999579
 20
47.75357558003267
 30
0.0
 10
32.013963077712525
 20
48.318390611449026
 30
0.0
 10
32.9683001895476
 20
48.6819055213422
 30
0.0
 10
33.91268790031978
 20
48.8139633812073
 30
0.0
 10
34.637392173538295
 20
48.91574295132693
 30
0.0
 10
35.35554123164195
 20
48.87935527818248
 30
0.0
 10
36.03793008592954
 20
48.70097557478484
 30
0.0
  0
SPLINE
  5
2B8
330
17
100
AcDbEntity
  8
visible
100
AcDbSpline
 70
0
 71
3
 72
8
 73
4
 74
0
 40
0.0
 40
0.0
 40
0.0
 40
0.0
 40
1.0
 40
1.0
 40
1.0
 40
1.0
 10
20.70261712950587
 20
-13.690632612313898
 30
0.0
 10
19.617406394684295
 20
-11.59816140624355
 30
0.0
 10
19.05428741668963
 20
-8.757127320383512
 30
0.0
 10
19.05573164966686
 20
-5.580575882811878
 30
0.0
  0
LINE
  5
2B9
330
17
100
AcDbEntity
  8
visible
100
AcDbLine
 10
19.05573164966686
 20
-5.580575882811878
 30
0.0
 11
19.05573164966686
 21
24.2459553143068
 31
0.0
  0
SPLINE
  5
2BA
330
17
100
AcDbEntity
  8
visible
100
AcDbSpline
 70
0
 71
3
 72
17
 73
13
 74
0
 40
0.0
 40
0.0
 40
0.0
 40
0.0
 40
0.30428186445716604
 40
0.30428186445716604
 40
0.30428186445716604
 40
0.4830407874480901
 40
0.4830407874480901
 40
0.4830407874480901
 40
0.662686064889668
 40
0.662686064889668
 40
0.662686064889668
 40
1.0
 40
1.0
 40
1.0
 40
1.0
 10
19.05573164966686
 20
24.245955314306798
 30
0.0
 10
19.054403918612927
 20
26.839361385643656
 30
0.0
 10
19.43179538652715
 20
29.647144425440924
 30
0.0
 10
20.14535038040536
 20
32.36962573427704
 30
0.0
 10
20.563635894614073
 20
33.9689107328517
 30
0.0
 10
21.09611583144181
 20
35.53783142817499
 30
0.0
 10
21.72287769180768
 20
37.01695144553598
 30
0.0
 10
22.35253755603441
 20
38.5036760417313
 30
0.0
 10
23.077172213752057
 20
39.899303932577986
 30
0.0
 10
23.870688206384465
 20
41.15137197406476
 30
0.0
 10
25.3611403776843
 20
43.50512018141112
 30
0.0
 10
27.090401958606037
 20
45.34235102738916
 30
0.0
 10
28.88432814886434
 20
46.42566335093394
 30
0.0
  0
LINE
  5
2BB
330
17
100
AcDbEntity
  8
visible
100
AcDbLine
 10
-47.81078327446616
 20
11.863262924992398
 30
0.0
 11
-47.81078327446616
 21
41.68979412211108
 31
0.0
  0
SPLINE
  5
2BC
330
17
100
AcDbEntity
  8
visible
100
AcDbSpline
 70
0
 71
3
 72
8
 73
4
 74
0
 40
0.0
 40
0.0
 40
0.0
 40
0.0
 40
1.0
 40
1.0
 40
1.0
 40
1.0
 10
-46.08840296385779
 20
3.610036625806572
 30
0.0
 10
-47.22285244020636
 20
5.715878652713094
 30
0.0
 10
-47.812320160318876
 20
8.613547943327571
 30
0.0
 10
-47.81078327446616
 20
11.863262924992398
 30
0.0
  0
SPLINE
  5
2BD
330
17
100
AcDbEntity
  8
visible
100
AcDbSpline
 70
0
 71
3
 72
17
 73
13
 74
0
 40
0.0
 40
0.0
 40
0.0
 40
0.0
 40
0.30428186445716604
 40
0.30428186445716604
 40
0.30428186445716604
 40
0.4830407874480901
 40
0.4830407874480901
 40
0.4830407874480901
 40
0.662686064889668
 40
0.662686064889668
 40
0.662686064889668
 40
1.0
 40
1.0
 40
1.0
 40
1.0
 10
-47.81078327446616
 20
41.68979412211108
 30
0.0
 10
-47.812111005520066
 20
44.28320019344792
 30
0.0
 10
-47.434719537605844
 20
47.09098323324522
 30
0.0
 10
-46.72116454372767
 20
49.813464542081306
 30
0.0
 10
-46.30287902951895
 20
51.41274954065596
 30
0.0
 10
-45.7703990926912
 20
52.98167023597931
 30
0.0
 10
-45.14363723232535
 20
54.460790253340264
 30
0.0
 10
-44.51397736809859
 20
55.94751484953556
 30
0.0
 10
-43.78934271038096
 20
57.34314274038227
 30
0.0
 10
-42.99582671774856
 20
58.59521078186904
 30
0.0
 10
-41.50537454644867
 20
60.948958989215406
 30
0.0
 10
-39.77611296552703
 20
62.78618983519344
 30
0.0
 10
-37.98218677526867
 20
63.86950215873822
 30
0.0
  0
SPLINE
  5
2BE
330
17
100
AcDbEntity
  8
visible
100
AcDbSpline
 70
0
 71
3
 72
11
 73
7
 74
0
 40
0.0
 40
0.0
 40
0.0
 40
0.0
 40
0.11670214485456266
 40
0.11670214485456266
 40
0.11670214485456266
 40
1.0
 40
1.0
 40
1.0
 40
1.0
 10
-52.39678946376875
 20
5.308120478462429
 30
0.0
 10
-52.421218755936245
 20
5.280846491581965
 30
0.0
 10
-52.445648048103784
 20
5.253572504701499
 30
0.0
 10
-52.470077340271274
 20
5.226298517821036
 30
0.0
 10
-52.724481251261594
 20
4.930318248258104
 30
0.0
 10
-52.88267962633717
 20
4.559214873175363
 30
0.0
 10
-52.88120083917445
 20
4.17456735725888
 30
0.0
  0
SPLINE
  5
2BF
330
17
100
AcDbEntity
  8
visible
100
AcDbSpline
 70
0
 71
3
 72
11
 73
7
 74
0
 40
0.0
 40
0.0
 40
0.0
 40
0.0
 40
0.39665286091732754
 40
0.39665286091732754
 40
0.39665286091732754
 40
0.7577648260641492
 40
0.7577648260641492
 40
0.7577648260641492
 40
0.7577648260641492
 10
-27.15092651737617
 20
65.18540324815987
 30
0.0
 10
-25.732792032307554
 20
64.8184237383967
 30
0.0
 10
-24.503960822461032
 20
63.84050254672722
 30
0.0
 10
-23.58707803430884
 20
62.428370949572724
 30
0.0
 10
-22.747909428566125
 20
61.14276411591821
 30
0.0
 10
-22.146940324310965
 20
59.492641870992465
 30
0.0
 10
-21.801038487102225
 20
57.59210040127922
 30
0.0
  0
LINE
  5
2C0
330
17
100
AcDbEntity
  8
visible
100
AcDbLine
 10
-35.132718808278916
 20
-0.8572861828757277
 30
0.0
 11
-40.61341751578303
 21
-4.171525820385733
 31
0.0
  0
SPLINE
  5
2C1
330
17
100
AcDbEntity
  8
visible
100
AcDbSpline
 70
0
 71
3
 72
11
 73
7
 74
0
 40
0.0
 40
0.0
 40
0.0
 40
0.0
 40
0.5656233441999566
 40
0.5656233441999566
 40
0.5656233441999566
 40
1.0
 40
1.0
 40
1.0
 40
1.0
 10
-35.786242114137224
 20
65.19741438783693
 30
0.0
 10
-34.85255184642046
 20
65.76222941925329
 30
0.0
 10
-33.89821473458542
 20
66.12574432914647
 30
0.0
 10
-32.95382702381325
 20
66.25780218901157
 30
0.0
 10
-32.229122750594684
 20
66.3595817591312
 30
0.0
 10
-31.51097369249107
 20
66.32319408598676
 30
0.0
 10
-30.828584838203483
 20
66.1448143825891
 30
0.0
  0
LINE
  5
2C2
330
17
100
AcDbEntity
  8
visible
100
AcDbLine
 10
-37.98218677526867
 20
63.869502158738214
 30
0.0
 11
-35.78624211413722
 21
65.19741438783694
 31
0.0
  0
LINE
  5
2C3
330
17
100
AcDbEntity
  8
visible
100
AcDbLine
 10
-30.828584838203486
 20
66.1448143825891
 30
0.0
 11
-27.150926517376167
 21
65.18540324815987
 31
0.0
  0
SPLINE
  5
2C4
330
17
100
AcDbEntity
  8
visible
100
AcDbSpline
 70
0
 71
3
 72
11
 73
7
 74
0
 40
0.0
 40
0.0
 40
0.0
 40
0.0
 40
0.5490479358332621
 40
0.5490479358332621
 40
0.5490479358332621
 40
1.0
 40
1.0
 40
1.0
 40
1.0
 10
-47.045558841923196
 20
-4.73955740746397
 30
0.0
 10
-45.92323691071609
 20
-5.0346649574591495
 30
0.0
 10
-44.51702920779143
 20
-5.116006743775289
 30
0.0
 10
-43.25074000580554
 20
-4.965056471719352
 30
0.0
 10
-42.208368101888
 20
-4.841569844392428
 30
0.0
 10
-41.27984444102402
 20
-4.574142263181719
 30
0.0
 10
-40.61341751578304
 20
-4.171525820385725
 30
0.0
  0
LINE
  5
2C5
330
17
100
AcDbEntity
  8
visible
100
AcDbLine
 10
-52.881200839174454
 20
-1.6989649400198799
 30
0.0
 11
-52.881200839174454
 21
4.174567357258881
 31
0.0
  0
LINE
  5
2C6
330
17
100
AcDbEntity
  8
visible
100
AcDbLine
 10
-50.38888458812985
 20
-3.8673654670737605
 30
0.0
 11
-47.045558841923196
 21
-4.739557407463975
 31
0.0
  0
SPLINE
  5
2C7
330
17
100
AcDbEntity
  8
visible
100
AcDbSpline
 70
0
 71
3
 72
14
 73
10
 74
0
 40
0.0
 40
0.0
 40
0.0
 40
0.0
 40
0.3333333333333333
 40
0.3333333333333333
 40
0.3333333333333333
 40
0.6666666666666666
 40
0.6666666666666666
 40
0.6666666666666666
 40
1.0
 40
1.0
 40
1.0
 40
1.0
 10
-52.881200839174454
 20
-1.6989649400198772
 30
0.0
 10
-52.882723464055786
 20
-2.0892705424008025
 30
0.0
 10
-52.719858704395534
 20
-2.4651637785527685
 30
0.0
 10
-52.45905803406948
 20
-2.7635533040302036
 30
0.0
 10
-52.217822935144056
 20
-3.0418836284500927
 30
0.0
 10
-51.89768948228301
 20
-3.267953047979915
 30
0.0
 10
-51.516527774168104
 20
-3.4576460716912294
 30
0.0
 10
-51.18334181985329
 20
-3.6220490314136677
 30
0.0
 10
-50.80746075784061
 20
-3.7586221632078463
 30
0.0
 10
-50.388884588129855
 20
-3.8673654670737534
 30
0.0
  0
LINE
  5
2C8
330
17
100
AcDbEntity
  8
visible
100
AcDbLine
 10
-70.37823206136105
 20
40.43539518117859
 30
0.0
 11
-70.37823206136105
 21
47.37686901359504
 31
0.0
  0
LINE
  5
2C9
330
17
100
AcDbEntity
  8
visible
100
AcDbLine
 10
-42.43624570793651
 20
66.61855729937884
 30
0.0
 11
-54.657816467987
 21
69.80686628420304
 31
0.0
  0
LINE
  5
2CA
330
17
100
AcDbEntity
  8
visible
100
AcDbLine
 10
-53.96945741179542
 20
28.288571298290456
 30
0.0
 11
-64.75490920635578
 21
31.10223195919253
 31
0.0
  0
LINE
  5
2CB
330
17
100
AcDbEntity
  8
visible
100
AcDbLine
 10
-37.34807004330645
 20
67.84558866635003
 30
0.0
 11
-32.165915136686145
 21
66.4936911587452
 31
0.0
  0
SPLINE
  5
2CC
330
17
100
AcDbEntity
  8
visible
100
AcDbSpline
 70
0
 71
2
 72
6
 73
3
 74
0
 40
0.0
 40
0.0
 40
0.0
 40
0.06270083266455591
 40
0.06270083266455591
 40
0.06270083266455591
 10
-32.16591513668614
 20
66.4936911587452
 30
0.0
 10
-31.830792219271835
 20
66.40625488461484
 30
0.0
 10
-31.5089453975161
 20
66.27445532987564
 30
0.0
  0
LINE
  5
2CD
330
17
100
AcDbEntity
  8
visible
100
AcDbLine
 10
-43.97701357936255
 20
2.5395510786288584
 30
0.0
 11
-43.97701357936255
 21
5.659865111558203
 31
0.0
  0
LINE
  5
2CE
330
17
100
AcDbEntity
  8
visible
100
AcDbLine
 10
-43.22980828344397
 20
6.824138081338731
 30
0.0
 11
-36.602149106195725
 21
10.831957507549472
 31
0.0
  0
SPLINE
  5
2CF
330
17
100
AcDbEntity
  8
visible
100
AcDbSpline
 70
0
 71
3
 72
17
 73
13
 74
0
 40
0.0
 40
0.0
 40
0.0
 40
0.0
 40
0.25
 40
0.25
 40
0.25
 40
0.5
 40
0.5
 40
0.5
 40
0.75
 40
0.75
 40
0.75
 40
1.0
 40
1.0
 40
1.0
 40
1.0
 10
-42.386724997752225
 20
1.0351066661243564
 30
0.0
 10
-42.53597176867205
 20
1.0739523911938313
 30
0.0
 10
-42.67745685529452
 20
1.1194398940063235
 30
0.0
 10
-42.81118025761961
 20
1.1715691745618315
 30
0.0
 10
-43.050343714162366
 20
1.263651281008206
 30
0.0
 10
-43.260150512625856
 20
1.3801183173504823
 30
0.0
 10
-43.44060065300998
 20
1.5209702835886603
 30
0.0
 10
-43.61800672720106
 20
1.6612523800081724
 30
0.0
 10
-43.76418381869443
 20
1.8317388380933701
 30
0.0
 10
-43.85880654991115
 20
2.0286801774774617
 30
0.0
 10
-43.936769523459844
 20
2.190580123361988
 30
0.0
 10
-43.97617186661032
 20
2.3608704237457876
 30
0.0
 10
-43.97701357936255
 20
2.539551078628861
 30
0.0
  0
SPLINE
  5
2D0
330
17
100
AcDbEntity
  8
visible
100
AcDbSpline
 70
0
 71
2
 72
10
 73
7
 74
0
 40
0.0
 40
0.0
 40
0.0
 40
0.3333333333333333
 40
0.3333333333333333
 40
0.6666666666666666
 40
0.6666666666666666
 40
1.0
 40
1.0
 40
1.0
 10
-43.97701357936255
 20
5.659865111558204
 30
0.0
 10
-43.975763281538136
 20
5.92719663352289
 30
0.0
 10
-43.85938191773474
 20
6.1695385461765255
 30
0.0
 10
-43.76652989063432
 20
6.360725998119408
 30
0.0
 10
-43.61724941555887
 20
6.5173503388054
 30
0.0
 10
-43.449606893568394
 20
6.6925276219274
 30
0.0
 10
-43.22980828344397
 20
6.824138081338731
 30
0.0
  0
LINE
  5
2D1
330
17
100
AcDbEntity
  8
visible
100
AcDbLine
 10
5.255666885692552
 20
-11.393628484436192
 30
0.0
 11
-42.386724997752225
 21
1.03510666612436
 31
0.0
  0
SPLINE
  5
2D2
330
17
100
AcDbEntity
  8
visible
100
AcDbSpline
 70
0
 71
3
 72
11
 73
7
 74
0
 40
0.0
 40
0.0
 40
0.0
 40
0.0
 40
0.4294745168507618
 40
0.4294745168507618
 40
0.4294745168507618
 40
1.0
 40
1.0
 40
1.0
 40
1.0
 10
8.918173008163663
 20
-11.053457041712214
 30
0.0
 10
8.535296349281339
 20
-11.284301541607249
 30
0.0
 10
8.039024390466173
 20
-11.432774835871257
 30
0.0
 10
7.483906369832901
 20
-11.508836216790067
 30
0.0
 10
6.747911401957663
 20
-11.609470028125937
 30
0.0
 10
5.923696632115286
 20
-11.56896276732975
 30
0.0
 10
5.255666885692551
 20
-11.393628484436192
 30
0.0
  0
LINE
  5
2D3
330
17
100
AcDbEntity
  8
visible
100
AcDbLine
 10
14.292793819414513
 20
-7.803363891208484
 30
0.0
 11
8.918173008163652
 21
-11.053457041712218
 31
0.0
  0
LINE
  5
2D4
330
17
100
AcDbEntity
  8
visible
100
AcDbLine
 10
14.040743030356886
 20
2.4207919105873454
 30
0.0
 11
3.3294938463160832
 21
-4.056419939133381
 31
0.0
  0
SPLINE
  5
2D5
330
17
100
AcDbEntity
  8
visible
100
AcDbSpline
 70
0
 71
3
 72
14
 73
10
 74
0
 40
0.0
 40
0.0
 40
0.0
 40
0.0
 40
0.22484651937729677
 40
0.22484651937729677
 40
0.22484651937729677
 40
0.44969303875459354
 40
0.44969303875459354
 40
0.44969303875459354
 40
1.0
 40
1.0
 40
1.0
 40
1.0
 10
-34.88894644604199
 20
5.093402049514552
 30
0.0
 10
-35.07643354302566
 20
5.141468880978589
 30
0.0
 10
-35.247693855656294
 20
5.208614923073485
 30
0.0
 10
-35.40272738393384
 20
5.294840175799221
 30
0.0
 10
-35.52641346506624
 20
5.363839084547551
 30
0.0
 10
-35.63572343838532
 20
5.447657161288507
 30
0.0
 10
-35.730657303891164
 20
5.546294406022101
 30
0.0
 10
-35.91758600280559
 20
5.740479132262183
 30
0.0
 10
-36.0294975302035
 20
6.000817606150321
 30
0.0
 10
-36.02822119293518
 20
6.265868404744381
 30
0.0
  0
SPLINE
  5
2D6
330
17
100
AcDbEntity
  8
visible
100
AcDbSpline
 70
0
 71
3
 72
11
 73
7
 74
0
 40
0.0
 40
0.0
 40
0.0
 40
0.0
 40
0.43042448769909775
 40
0.43042448769909775
 40
0.43042448769909775
 40
1.0
 40
1.0
 40
1.0
 40
1.0
 10
3.3294938463160904
 20
-4.0564199391333915
 30
0.0
 10
3.0734790135619434
 20
-4.210622872363166
 30
0.0
 10
2.761352175255414
 20
-4.304217562243231
 30
0.0
 10
2.419503436476779
 20
-4.352381023716081
 30
0.0
 10
1.9675719094503044
 20
-4.415246620477507
 30
0.0
 10
1.470513356906379
 20
-4.3920198821890155
 30
0.0
 10
1.0518053256795046
 20
-4.28266130968025
 30
0.0
  0
LINE
  5
2D7
330
17
100
AcDbEntity
  8
visible
100
AcDbLine
 10
1.0518053256795046
 20
-4.28266130968025
 30
0.0
 11
-34.88894644604199
 21
5.093402049514552
 31
0.0
  0
LINE
  5
2D8
330
17
100
AcDbEntity
  8
visible
100
AcDbLine
 10
-36.02822119293518
 20
6.265868404744379
 30
0.0
 11
-36.02822119293518
 21
9.386182437673723
 31
0.0
  0
LINE
  5
2D9
330
17
100
AcDbEntity
  8
visible
100
AcDbLine
 10
-35.445184460464944
 20
10.332407422356695
 30
0.0
 11
-35.24890309523619
 21
10.451100953138646
 31
0.0
  0
SPLINE
  5
2DA
330
17
100
AcDbEntity
  8
visible
100
AcDbSpline
 70
0
 71
3
 72
11
 73
7
 74
0
 40
0.0
 40
0.0
 40
0.0
 40
0.0
 40
0.6281955861826147
 40
0.6281955861826147
 40
0.6281955861826147
 40
1.0
 40
1.0
 40
1.0
 40
1.0
 10
-36.02822119293518
 20
9.386182437673725
 30
0.0
 10
-36.029483025502834
 20
9.650377116993992
 30
0.0
 10
-35.91831596803986
 20
9.909935160394296
 30
0.0
 10
-35.732430723624574
 20
10.103887026179123
 30
0.0
 10
-35.64833823447553
 20
10.19186426597678
 30
0.0
 10
-35.55258948008903
 20
10.2680377313693
 30
0.0
 10
-35.44518446046495
 20
10.332407422356695
 30
0.0
  0
LINE
  5
2DB
330
17
100
AcDbEntity
  8
visible
100
AcDbLine
 10
-39.150897900755645
 20
14.559405688102586
 30
0.0
 11
-39.150897900755645
 21
44.84480659594617
 31
0.0
  0
LINE
  5
2DC
330
17
100
AcDbEntity
  8
visible
100
AcDbLine
 10
-37.22072561909452
 20
48.267643608775735
 30
0.0
 11
-13.614320511931371
 21
62.54270007158714
 31
0.0
  0
ARC
  5
2DD
330
17
100
AcDbEntity
  8
visible
100
AcDbCircle
 10
-35.15089790075564
 20
14.559405688102586
 30
0.0
 40
4.0
100
AcDbArc
 50
180.0
 51
255.37880499752814
  0
ARC
  5
2DE
330
17
100
AcDbEntity
  8
visible
100
AcDbCircle
 10
-35.15089790075564
 20
44.84480659594617
 30
0.0
 40
4.0
100
AcDbArc
 50
121.16182143619447
 51
180.0
  0
ARC
  5
2DF
330
17
100
AcDbEntity
  8
visible
100
AcDbCircle
 10
-11.544492793592486
 20
59.11986305875757
 30
0.0
 40
4.0
100
AcDbArc
 50
75.37880499752815
 51
121.16182143619447
  0
LINE
  5
2E0
330
17
100
AcDbEntity
  8
visible
100
AcDbLine
 10
-36.16060717459252
 20
10.688942255601527
 30
0.0
 11
3.123470343335626
 21
0.44068695601650987
 31
0.0
  0
LINE
  5
2E1
330
17
100
AcDbEntity
  8
visible
100
AcDbLine
 10
6.203007335511387
 20
0.8883133756880064
 30
0.0
 11
14.040743030356886
 21
5.627879568702361
 31
0.0
  0
LINE
  5
2E2
330
17
100
AcDbEntity
  8
visible
100
AcDbLine
 10
-10.534783519755608
 20
62.99032649125862
 30
0.0
 11
28.74929399817254
 21
52.7420711916736
 31
0.0
  0
ARC
  5
2E3
330
17
100
AcDbEntity
  8
visible
100
AcDbCircle
 10
4.133179617172505
 20
4.311150388517575
 30
0.0
 40
4.0
100
AcDbArc
 50
255.37880499752814
 51
301.16182143619443
  0
ARC
  5
2E4
330
17
100
AcDbEntity
  8
visible
100
AcDbCircle
 10
27.73958472433566
 20
48.87160775917256
 30
0.0
 40
4.0
100
AcDbArc
 50
374.22144300382297
 51
435.37880499752816
  0
LINE
  5
2E5
330
17
100
AcDbEntity
  8
visible
100
AcDbLine
 10
-12.852021443264459
 20
12.745453736698764
 30
0.0
 11
-11.75404911269873
 21
13.409409851248132
 31
0.0
  0
LINE
  5
2E6
330
17
100
AcDbEntity
  8
visible
100
AcDbLine
 10
-24.753530823713042
 20
32.42676656046878
 30
0.0
 11
-23.655558493147314
 21
33.09072267501815
 31
0.0
  0
ENDSEC
  0
SECTION
  2
OBJECTS
  0
DICTIONARY
  5
A
330
0
100
AcDbDictionary
281
1
  3
ACAD_COLOR
350
B
  3
ACAD_GROUP
350
C
  3
ACAD_LAYOUT
350
D
  3
ACAD_MATERIAL
350
E
  3
ACAD_MLEADERSTYLE
350
F
  3
ACAD_MLINESTYLE
350
10
  3
ACAD_PLOTSETTINGS
350
11
  3
ACAD_PLOTSTYLENAME
350
12
  3
ACAD_SCALELIST
350
14
  3
ACAD_TABLESTYLE
350
15
  3
ACAD_VISUALSTYLE
350
16
  3
EZDXF_META
350
2D
  0
DICTIONARY
  5
B
330
A
100
AcDbDictionary
281
1
  0
DICTIONARY
  5
C
330
A
100
AcDbDictionary
281
1
  0
DICTIONARY
  5
D
330
A
100
AcDbDictionary
281
1
  3
Model
350
1A
  3
Layout1
350
1E
  0
DICTIONARY
  5
E
330
A
100
AcDbDictionary
281
1
  3
ByBlock
350
1F
  3
ByLayer
350
20
  3
Global
350
21
  0
DICTIONARY
  5
F
330
A
100
AcDbDictionary
281
1
  3
Standard
350
2C
  0
DICTIONARY
  5
10
330
A
100
AcDbDictionary
281
1
  3
Standard
350
22
  0
DICTIONARY
  5
11
330
A
100
AcDbDictionary
281
1
  0
ACDBDICTIONARYWDFLT
  5
12
330
A
100
AcDbDictionary
281
1
  3
Normal
350
13
100
AcDbDictionaryWithDefault
340
13
  0
ACDBPLACEHOLDER
  5
13
330
12
  0
DICTIONARY
  5
14
330
A
100
AcDbDictionary
281
1
  0
DICTIONARY
  5
15
330
A
100
AcDbDictionary
281
1
  0
DICTIONARY
  5
16
330
A
100
AcDbDictionary
281
1
  0
LAYOUT
  5
1A
330
D
100
AcDbPlotSettings
  1

  4
A3
  6

 40
7.5
 41
20.0
 42
7.5
 43
20.0
 44
420.0
 45
297.0
 46
0.0
 47
0.0
 48
0.0
 49
0.0
140
0.0
141
0.0
142
1.0
143
1.0
 70
1024
 72
1
 73
0
 74
5
  7

 75
16
 76
0
 77
2
 78
300
147
1.0
148
0.0
149
0.0
100
AcDbLayout
  1
Model
 70
1
 71
0
 10
0.0
 20
0.0
 11
420.0
 21
297.0
 12
0.0
 22
0.0
 32
0.0
 14
1e+20
 24
1e+20
 34
1e+20
 15
-1e+20
 25
-1e+20
 35
-1e+20
146
0.0
 13
0.0
 23
0.0
 33
0.0
 16
1.0
 26
0.0
 36
0.0
 17
0.0
 27
1.0
 37
0.0
 76
1
330
17
  0
LAYOUT
  5
1E
330
D
100
AcDbPlotSettings
  1

  4
A3
  6

 40
7.5
 41
20.0
 42
7.5
 43
20.0
 44
420.0
 45
297.0
 46
0.0
 47
0.0
 48
0.0
 49
0.0
140
0.0
141
0.0
142
1.0
143
1.0
 70
0
 72
1
 73
0
 74
5
  7

 75
16
 76
0
 77
2
 78
300
147
1.0
148
0.0
149
0.0
100
AcDbLayout
  1
Layout1
 70
1
 71
1
 10
0.0
 20
0.0
 11
420.0
 21
297.0
 12
0.0
 22
0.0
 32
0.0
 14
1e+20
 24
1e+20
 34
1e+20
 15
-1e+20
 25
-1e+20
 35
-1e+20
146
0.0
 13
0.0
 23
0.0
 33
0.0
 16
1.0
 26
0.0
 36
0.0
 17
0.0
 27
1.0
 37
0.0
 76
1
330
1B
  0
MATERIAL
  5
1F
102
{ACAD_REACTORS
330
E
102
}
330
E
100
AcDbMaterial
  1
ByBlock
  2

 70
0
 40
1.0
 71
1
 41
1.0
 91
-1023410177
 42
1.0
 72
1
  3

 73
1
 74
1
 75
1
 44
0.5
 73
0
 45
1.0
 46
1.0
 77
1
  4

 78
1
 79
1
170
1
 48
1.0
171
1
  6

172
1
173
1
174
1
140
1.0
141
1.0
175
1
  7

176
1
177
1
178
1
143
1.0
179
1
  8

270
1
271
1
272
1
145
1.0
146
1.0
273
1
  9

274
1
275
1
276
1
 42
1.0
 72
1
  3

 73
1
 74
1
 75
1
 94
63
  0
MATERIAL
  5
20
102
{ACAD_REACTORS
330
E
102
}
330
E
100
AcDbMaterial
  1
ByLayer
  2

 70
0
 40
1.0
 71
1
 41
1.0
 91
-1023410177
 42
1.0
 72
1
  3

 73
1
 74
1
 75
1
 44
0.5
 73
0
 45
1.0
 46
1.0
 77
1
  4

 78
1
 79
1
170
1
 48
1.0
171
1
  6

172
1
173
1
174
1
140
1.0
141
1.0
175
1
  7

176
1
177
1
178
1
143
1.0
179
1
  8

270
1
271
1
272
1
145
1.0
146
1.0
273
1
  9

274
1
275
1
276
1
 42
1.0
 72
1
  3

 73
1
 74
1
 75
1
 94
63
  0
MATERIAL
  5
21
102
{ACAD_REACTORS
330
E
102
}
330
E
100
AcDbMaterial
  1
Global
  2

 70
0
 40
1.0
 71
1
 41
1.0
 91
-1023410177
 42
1.0
 72
1
  3

 73
1
 74
1
 75
1
 44
0.5
 73
0
 45
1.0
 46
1.0
 77
1
  4

 78
1
 79
1
170
1
 48
1.0
171
1
  6

172
1
173
1
174
1
140
1.0
141
1.0
175
1
  7

176
1
177
1
178
1
143
1.0
179
1
  8

270
1
271
1
272
1
145
1.0
146
1.0
273
1
  9

274
1
275
1
276
1
 42
1.0
 72
1
  3

 73
1
 74
1
 75
1
 94
63
  0
MLINESTYLE
  5
22
102
{ACAD_REACTORS
330
10
102
}
330
10
100
AcDbMlineStyle
  2
Standard
 70
0
  3

 62
256
 51
90.0
 52
90.0
 71
2
 49
0.5
 62
256
  6
BYLAYER
 49
-0.5
 62
256
  6
BYLAYER
  0
MLEADERSTYLE
  5
2C
102
{ACAD_REACTORS
330
F
102
}
330
F
100
AcDbMLeaderStyle
179
2
170
2
171
1
172
0
 90
2
 40
0.0
 41
0.0
173
1
 91
-1056964608
 92
-2
290
1
 42
2.0
291
1
 43
8.0
  3
Standard
 44
4.0
300

342
29
174
1
175
1
176
0
178
1
 93
-1056964608
 45
4.0
292
0
297
0
 46
4.0
 94
-1056964608
 47
1.0
 49
1.0
140
1.0
294
1
141
0.0
177
0
142
1.0
295
0
296
0
143
3.75
271
0
272
9
273
9
  0
DICTIONARY
  5
2D
330
A
100
AcDbDictionary
280
1
281
1
  3
CREATED_BY_EZDXF
350
2E
  3
WRITTEN_BY_EZDXF
350
2EA
  0
DICTIONARYVAR
  5
2E
330
2D
100
DictionaryVariables
280
0
  1
1.4.4 @ 2026-10-03T13:32:38.727935+00:00
  0
DICTIONARYVAR
  5
2EA
330
2D
100
DictionaryVariables
280
0
  1
1.4.4 @ 2026-10-03T13:32:38.868606+00:00
  0
ENDSEC
  0
EOF
