  0
SECTION
  2
HEADER
  9
$ACADVER
  1
AC1027
  9
$ACADMAINTVER
 70
105
  9
$DWGCODEPAGE
  3
ANSI_1252
  9
$LASTSAVEDBY
  1
ezdxf
  9
$REQUIREDVERSIONS
160
0
  9
$INSBASE
 10
0.0
 20
0.0
 30
0.0
  9
$EXTMIN
 10
1e+20
 20
1e+20
 30
1e+20
  9
$EXTMAX
 10
-1e+20
 20
-1e+20
 30
-1e+20
  9
$LIMMIN
 10
0.0
 20
0.0
  9
$LIMMAX
 10
420.0
 20
297.0
  9
$ORTHOMODE
 70
0
  9
$REGENMODE
 70
1
  9
$FILLMODE
 70
1
  9
$QTEXTMODE
 70
0
  9
$MIRRTEXT
 70
1
  9
$LTSCALE
 40
1.0
  9
$ATTMODE
 70
1
  9
$TEXTSIZE
 40
2.5
  9
$TRACEWID
 40
1.0
  9
$TEXTSTYLE
  7
Standard
  9
$CLAYER
  8
0
  9
$CELTYPE
  6
ByLayer
  9
$CECOLOR
 62
256
  9
$CELTSCALE
 40
1.0
  9
$DISPSILH
 70
0
  9
$DIMSCALE
 40
1.0
  9
$DIMASZ
 40
2.5
  9
$DIMEXO
 40
0.625
  9
$DIMDLI
 40
3.75
  9
$DIMRND
 40
0.0
  9
$DIMDLE
 40
0.0
  9
$DIMEXE
 40
1.25
  9
$DIMTP
 40
0.0
  9
$DIMTM
 40
0.0
  9
$DIMTXT
 40
2.5
  9
$DIMCEN
 40
2.5
  9
$DIMTSZ
 40
0.0
  9
$DIMTOL
 70
0
  9
$DIMLIM
 70
0
  9
$DIMTIH
 70
0
  9
$DIMTOH
 70
0
  9
$DIMSE1
 70
0
  9
$DIMSE2
 70
0
  9
$DIMTAD
 70
1
  9
$DIMZIN
 70
8
  9
$DIMBLK
  1

  9
$DIMASO
 70
1
  9
$DIMSHO
 70
1
  9
$DIMPOST
  1

  9
$DIMAPOST
  1

  9
$DIMALT
 70
0
  9
$DIMALTD
 70
3
  9
$DIMALTF
 40
0.03937007874
  9
$DIMLFAC
 40
1.0
  9
$DIMTOFL
 70
1
  9
$DIMTVP
 40
0.0
  9
$DIMTIX
 70
0
  9
$DIMSOXD
 70
0
  9
$DIMSAH
 70
0
  9
$DIMBLK1
  1

  9
$DIMBLK2
  1

  9
$DIMSTYLE
  2
ISO-25
  9
$DIMCLRD
 70
0
  9
$DIMCLRE
 70
0
  9
$DIMCLRT
 70
0
  9
$DIMTFAC
 40
1.0
  9
$DIMGAP
 40
0.625
  9
$DIMJUST
 70
0
  9
$DIMSD1
 70
0
  9
$DIMSD2
 70
0
  9
$DIMTOLJ
 70
0
  9
$DIMTZIN
 70
8
  9
$DIMALTZ
 70
0
  9
$DIMALTTZ
 70
0
  9
$DIMUPT
 70
0
  9
$DIMDEC
 70
2
  9
$DIMTDEC
 70
2
  9
$DIMALTU
 70
2
  9
$DIMALTTD
 70
3
  9
$DIMTXSTY
  7
Standard
  9
$DIMAUNIT
 70
0
  9
$DIMADEC
 70
0
  9
$DIMALTRND
 40
0.0
  9
$DIMAZIN
 70
0
  9
$DIMDSEP
 70
44
  9
$DIMATFIT
 70
3
  9
$DIMFRAC
 70
0
  9
$DIMLDRBLK
  1

  9
$DIMLUNIT
 70
2
  9
$DIMLWD
 70
-2
  9
$DIMLWE
 70
-2
  9
$DIMTMOVE
 70
0
  9
$DIMFXL
 40
1.0
  9
$DIMFXLON
 70
0
  9
$DIMJOGANG
 40
0.785398163397
  9
$DIMTFILL
 70
0
  9
$DIMTFILLCLR
 70
0
  9
$DIMARCSYM
 70
0
  9
$DIMLTYPE
  6

  9
$DIMLTEX1
  6

  9
$DIMLTEX2
  6

  9
$DIMTXTDIRECTION
 70
0
  9
$LUNITS
 70
2
  9
$LUPREC
 70
4
  9
$SKETCHINC
 40
1.0
  9
$FILLETRAD
 40
10.0
  9
$AUNITS
 70
0
  9
$AUPREC
 70
2
  9
$MENU
  1
.
  9
$ELEVATION
 40
0.0
  9
$PELEVATION
 40
0.0
  9
$THICKNESS
 40
0.0
  9
$LIMCHECK
 70
0
  9
$CHAMFERA
 40
0.0
  9
$CHAMFERB
 40
0.0
  9
$CHAMFERC
 40
0.0
  9
$CHAMFERD
 40
0.0
  9
$SKPOLY
 70
0
  9
$TDCREATE
 40
2461315.8955439813
  9
$TDUCREATE
 40
2458532.153996898
  9
$TDUPDATE
 40
2461315.8955439813
  9
$TDUUPDATE
 40
2458532.1544311
  9
$TDINDWG
 40
0.0
  9
$TDUSRTIMER
 40
0.0
  9
$USRTIMER
 70
1
  9
$ANGBASE
 50
0.0
  9
$ANGDIR
 70
0
  9
$PDMODE
 70
0
  9
$PDSIZE
 40
0.0
  9
$PLINEWID
 40
0.0
  9
$SPLFRAME
 70
0
  9
$SPLINETYPE
 70
6
  9
$SPLINESEGS
 70
8
  9
$HANDSEED
  5
231
  9
$SURFTAB1
 70
6
  9
$SURFTAB2
 70
6
  9
$SURFTYPE
 70
6
  9
$SURFU
 70
6
  9
$SURFV
 70
6
  9
$UCSBASE
  2

  9
$UCSNAME
  2

  9
$UCSORG
 10
0.0
 20
0.0
 30
0.0
  9
$UCSXDIR
 10
1.0
 20
0.0
 30
0.0
  9
$UCSYDIR
 10
0.0
 20
1.0
 30
0.0
  9
$UCSORTHOREF
  2

  9
$UCSORTHOVIEW
 70
0
  9
$UCSORGTOP
 10
0.0
 20
0.0
 30
0.0
  9
$UCSORGBOTTOM
 10
0.0
 20
0.0
 30
0.0
  9
$UCSORGLEFT
 10
0.0
 20
0.0
 30
0.0
  9
$UCSORGRIGHT
 10
0.0
 20
0.0
 30
0.0
  9
$UCSORGFRONT
 10
0.0
 20
0.0
 30
0.0
  9
$UCSORGBACK
 10
0.0
 20
0.0
 30
0.0
  9
$PUCSBASE
  2

  9
$PUCSNAME
  2

  9
$PUCSORG
 10
0.0
 20
0.0
 30
0.0
  9
$PUCSXDIR
 10
1.0
 20
0.0
 30
0.0
  9
$PUCSYDIR
 10
0.0
 20
1.0
 30
0.0
  9
$PUCSORTHOREF
  2

  9
$PUCSORTHOVIEW
 70
0
  9
$PUCSORGTOP
 10
0.0
 20
0.0
 30
0.0
  9
$PUCSORGBOTTOM
 10
0.0
 20
0.0
 30
0.0
  9
$PUCSORGLEFT
 10
0.0
 20
0.0
 30
0.0
  9
$PUCSORGRIGHT
 10
0.0
 20
0.0
 30
0.0
  9
$PUCSORGFRONT
 10
0.0
 20
0.0
 30
0.0
  9
$PUCSORGBACK
 10
0.0
 20
0.0
 30
0.0
  9
$USERI1
 70
0
  9
$USERI2
 70
0
  9
$USERI3
 70
0
  9
$USERI4
 70
0
  9
$USERI5
 70
0
  9
$USERR1
 40
0.0
  9
$USERR2
 40
0.0
  9
$USERR3
 40
0.0
  9
$USERR4
 40
0.0
  9
$USERR5
 40
0.0
  9
$WORLDVIEW
 70
1
  9
$SHADEDGE
 70
3
  9
$SHADEDIF
 70
70
  9
$TILEMODE
 70
1
  9
$MAXACTVP
 70
64
  9
$PINSBASE
 10
0.0
 20
0.0
 30
0.0
  9
$PLIMCHECK
 70
0
  9
$PEXTMIN
 10
1e+20
 20
1e+20
 30
1e+20
  9
$PEXTMAX
 10
-1e+20
 20
-1e+20
 30
-1e+20
  9
$PLIMMIN
 10
0.0
 20
0.0
  9
$PLIMMAX
 10
420.0
 20
297.0
  9
$UNITMODE
 70
0
  9
$VISRETAIN
 70
1
  9
$PLINEGEN
 70
0
  9
$PSLTSCALE
 70
1
  9
$TREEDEPTH
 70
3020
  9
$CMLSTYLE
  2
Standard
  9
$CMLJUST
 70
0
  9
$CMLSCALE
 40
20.0
  9
$PROXYGRAPHICS
 70
1
  9
$MEASUREMENT
 70
1
  9
$CELWEIGHT
370
-1
  9
$ENDCAPS
280
0
  9
$JOINSTYLE
280
0
  9
$LWDISPLAY
290
0
  9
$INSUNITS
 70
4
  9
$HYPERLINKBASE
  1

  9
$STYLESHEET
  1

  9
$XEDIT
290
1
  9
$CEPSNTYPE
380
0
  9
$PSTYLEMODE
290
1
  9
$FINGERPRINTGUID
  2
{53883C9B-8B43-45E6-82F2-F9CB37C833FE}
  9
$VERSIONGUID
  2
{6796A060-3695-44CC-BBE3-4D4850056396}
  9
$EXTNAMES
290
1
  9
$PSVPSCALE
 40
0.0
  9
$OLESTARTUP
290
0
  9
$SORTENTS
280
127
  9
$INDEXCTL
280
0
  9
$HIDETEXT
280
1
  9
$XCLIPFRAME
280
1
  9
$HALOGAP
280
0
  9
$OBSCOLOR
 70
257
  9
$OBSLTYPE
280
0
  9
$INTERSECTIONDISPLAY
280
0
  9
$INTERSECTIONCOLOR
 70
257
  9
$DIMASSOC
280
2
  9
$PROJECTNAME
  1

  9
$CAMERADISPLAY
290
0
  9
$LENSLENGTH
 40
50.0
  9
$CAMERAHEIGHT
 40
0.0
  9
$STEPSPERSEC
 40
24.0
  9
$STEPSIZE
 40
100.0
  9
$3DDWFPREC
 40
2.0
  9
$PSOLWIDTH
 40
0.005
  9
$PSOLHEIGHT
 40
0.08
  9
$LOFTANG1
 40
1.570796326795
  9
$LOFTANG2
 40
1.570796326795
  9
$LOFTMAG1
 40
0.0
  9
$LOFTMAG2
 40
0.0
  9
$LOFTPARAM
 70
7
  9
$LOFTNORMALS
280
1
  9
$LATITUDE
 40
37.795
  9
$LONGITUDE
 40
-122.394
  9
$NORTHDIRECTION
 40
0.0
  9
$TIMEZONE
 70
-8000
  9
$LIGHTGLYPHDISPLAY
280
1
  9
$TILEMODELIGHTSYNCH
280
1
  9
$CMATERIAL
347
20
  9
$SOLIDHIST
280
0
  9
$SHOWHIST
280
1
  9
$DWFFRAME
280
2
  9
$DGNFRAME
280
2
  9
$REALWORLDSCALE
290
1
  9
$INTERFERECOLOR
 62
256
  9
$CSHADOW
280
0
  9
$SHADOWPLANELOCATION
 40
0.0
  0
ENDSEC
  0
SECTION
  2
CLASSES
  0
CLASS
  1
ACDBDICTIONARYWDFLT
  2
AcDbDictionaryWithDefault
  3
ObjectDBX Classes
 90
0
 91
0
280
0
281
0
  0
CLASS
  1
SUN
  2
AcDbSun
  3
SCENEOE
 90
1153
 91
0
280
0
281
0
  0
CLASS
  1
VISUALSTYLE
  2
AcDbVisualStyle
  3
ObjectDBX Classes
 90
4095
 91
0
280
0
281
0
  0
CLASS
  1
MATERIAL
  2
AcDbMaterial
  3
ObjectDBX Classes
 90
1153
 91
0
280
0
281
0
  0
CLASS
  1
SCALE
  2
AcDbScale
  3
ObjectDBX Classes
 90
1153
 91
0
280
0
281
0
  0
CLASS
  1
TABLESTYLE
  2
AcDbTableStyle
  3
ObjectDBX Classes
 90
4095
 91
0
280
0
281
0
  0
CLASS
  1
MLEADERSTYLE
  2
AcDbMLeaderStyle
  3
ACDB_MLEADERSTYLE_CLASS
 90
4095
 91
0
280
0
281
0
  0
CLASS
  1
DICTIONARYVAR
  2
AcDbDictionaryVar
  3
ObjectDBX Classes
 90
0
 91
0
280
0
281
0
  0
CLASS
  1
CELLSTYLEMAP
  2
AcDbCellStyleMap
  3
ObjectDBX Classes
 90
1152
 91
0
280
0
281
0
  0
CLASS
  1
MENTALRAYRENDERSETTINGS
  2
AcDbMentalRayRenderSettings
  3
SCENEOE
 90
1024
 91
0
280
0
281
0
  0
CLASS
  1
ACDBDETAILVIEWSTYLE
  2
AcDbDetailViewStyle
  3
ObjectDBX Classes
 90
1025
 91
0
280
0
281
0
  0
CLASS
  1
ACDBSECTIONVIEWSTYLE
  2
AcDbSectionViewStyle
  3
ObjectDBX Classes
 90
1025
 91
0
280
0
281
0
  0
CLASS
  1
RASTERVARIABLES
  2
AcDbRasterVariables
  3
ISM
 90
0
 91
0
280
0
281
0
  0
CLASS
  1
LAYOUT
  2
AcDbLayout
  3
ObjectDBX Classes
 90
0
 91
0
280
0
281
0
  0
CLASS
  1
ACDBPLACEHOLDER
  2
AcDbPlaceHolder
  3
ObjectDBX Classes
 90
0
 91
0
280
0
281
0
  0
ENDSEC
  0
SECTION
  2
TABLES
  0
TABLE
  2
VPORT
  5
8
330
0
100
AcDbSymbolTable
 70
1
  0
VPORT
  5
22D
330
8
100
AcDbSymbolTableRecord
100
AcDbViewportTableRecord
  2
*Active
 70
0
 10
0.0
 20
0.0
 11
1.0
 21
1.0
 12
-4.96770766744703e-08
 22
-0.06022637824910504
 13
0.0
 23
0.0
 14
0.5
 24
0.5
 15
0.5
 25
0.5
 16
0.0
 26
0.0
 36
1.0
 17
0.0
 27
0.0
 37
0.0
 40
90.02597060965601
 41
1.34
 42
50.0
 43
0.0
 44
0.0
 50
0.0
 51
0.0
 71
0
 72
1000
 73
1
 74
3
 75
0
 76
0
 77
0
 78
0
281
0
 65
1
110
0.0
120
0.0
130
0.0
111
1.0
121
0.0
131
0.0
112
0.0
122
1.0
132
0.0
 79
0
146
0.0
  0
ENDTAB
  0
TABLE
  2
LTYPE
  5
2
330
0
100
AcDbSymbolTable
 70
3
  0
LTYPE
  5
24
330
2
100
AcDbSymbolTableRecord
100
AcDbLinetypeTableRecord
  2
ByBlock
 70
0
  3

 72
65
 73
0
 40
0.0
  0
LTYPE
  5
25
330
2
100
AcDbSymbolTableRecord
100
AcDbLinetypeTableRecord
  2
ByLayer
 70
0
  3

 72
65
 73
0
 40
0.0
  0
LTYPE
  5
26
330
2
100
AcDbSymbolTableRecord
100
AcDbLinetypeTableRecord
  2
Continuous
 70
0
  3

 72
65
 73
0
 40
0.0
  0
ENDTAB
  0
TABLE
  2
LAYER
  5
1
330
0
100
AcDbSymbolTable
 70
3
  0
LAYER
  5
27
330
1
100
AcDbSymbolTableRecord
100
AcDbLayerTableRecord
  2
0
 70
0
 62
7
  6
Continuous
370
-3
390
13
347
21
  0
LAYER
  5
28
330
1
100
AcDbSymbolTableRecord
100
AcDbLayerTableRecord
  2
Defpoints
 70
0
 62
7
  6
Continuous
290
0
370
-3
390
13
347
21
  0
LAYER
  5
2F
330
1
100
AcDbSymbolTableRecord
100
AcDbLayerTableRecord
  2
visible
 70
0
 62
7
  6
Continuous
370
-3
390
13
347
21
  0
ENDTAB
  0
TABLE
  2
STYLE
  5
5
330
0
100
AcDbSymbolTable
 70
1
  0
STYLE
  5
29
330
5
100
AcDbSymbolTableRecord
100
AcDbTextStyleTableRecord
  2
Standard
 70
0
 40
0.0
 41
1.0
 50
0.0
 71
0
 42
2.5
  3
txt
  4

  0
ENDTAB
  0
TABLE
  2
VIEW
  5
7
330
0
100
AcDbSymbolTable
 70
0
  0
ENDTAB
  0
TABLE
  2
UCS
  5
6
330
0
100
AcDbSymbolTable
 70
0
  0
ENDTAB
  0
TABLE
  2
APPID
  5
3
330
0
100
AcDbSymbolTable
 70
3
  0
APPID
  5
2A
330
3
100
AcDbSymbolTableRecord
100
AcDbRegAppTableRecord
  2
ACAD
 70
0
  0
APPID
  5
22E
330
3
100
AcDbSymbolTableRecord
100
AcDbRegAppTableRecord
  2
HATCHBACKGROUNDCOLOR
 70
0
  0
APPID
  5
22F
330
3
100
AcDbSymbolTableRecord
100
AcDbRegAppTableRecord
  2
EZDXF
 70
0
  0
ENDTAB
  0
TABLE
  2
DIMSTYLE
  5
4
330
0
100
AcDbSymbolTable
 70
1
100
AcDbDimStyleTable
  0
DIMSTYLE
105
2B
330
4
100
AcDbSymbolTableRecord
100
AcDbDimStyleTableRecord
  2
Standard
 70
0
 40
1.0
 41
2.5
 42
0.625
 43
3.75
 44
1.25
 45
0.0
 46
0.0
 47
0.0
 48
0.0
 49
2.5
140
2.5
141
2.5
142
0.0
143
0.03937007874
144
1.0
145
0.0
146
1.0
147
0.625
148
0.0
 69
0
 70
0
 71
0
 72
0
 73
0
 74
0
 75
0
 76
0
 77
1
 78
8
 79
3
170
0
171
3
172
1
173
0
174
0
175
0
176
0
177
0
178
0
179
2
271
2
272
2
273
2
274
3
275
0
276
0
277
2
278
44
279
0
280
0
281
0
282
0
283
0
284
8
285
0
286
0
288
0
289
3
290
0
371
-2
372
-2
  0
ENDTAB
  0
TABLE
  2
BLOCK_RECORD
  5
9
330
0
100
AcDbSymbolTable
 70
2
  0
BLOCK_RECORD
  5
17
330
9
100
AcDbSymbolTableRecord
100
AcDbBlockTableRecord
  2
*Model_Space
340
1A
 70
0
280
1
281
0
  0
BLOCK_RECORD
  5
1B
330
9
100
AcDbSymbolTableRecord
100
AcDbBlockTableRecord
  2
*Paper_Space
340
1E
 70
0
280
1
281
0
  0
ENDTAB
  0
ENDSEC
  0
SECTION
  2
BLOCKS
  0
BLOCK
  5
18
330
17
100
AcDbEntity
  8
0
100
AcDbBlockBegin
  2
*Model_Space
 70
0
 10
0.0
 20
0.0
 30
0.0
  3
*Model_Space
  1

  0
ENDBLK
  5
19
330
17
100
AcDbEntity
  8
0
100
AcDbBlockEnd
  0
BLOCK
  5
1C
330
1B
100
AcDbEntity
  8
0
100
AcDbBlockBegin
  2
*Paper_Space
 70
0
 10
0.0
 20
0.0
 30
0.0
  3
*Paper_Space
  1

  0
ENDBLK
  5
1D
330
1B
100
AcDbEntity
  8
0
100
AcDbBlockEnd
  0
ENDSEC
  0
SECTION
  2
ENTITIES
  0
LINE
  5
30
330
17
100
AcDbEntity
  8
visible
100
AcDbLine
 10
-60.17901051946984
 20
-37.02960587621528
 30
0.0
 11
-60.17901051946984
 21
34.970352680682346
 31
0.0
  0
LINE
  5
31
330
17
100
AcDbEntity
  8
visible
100
AcDbLine
 10
-60.21634880184105
 20
34.96412976651803
 30
0.0
 11
-60.21634880184105
 21
-37.0358287903796
 31
0.0
  0
ELLIPSE
  5
32
330
17
100
AcDbEntity
  8
visible
100
AcDbEllipse
 10
-52.179176293759404
 20
-37.029661133704245
 30
0.0
 11
1.315164570673054
 21
-7.891155945236817
 31
0.0
 40
0.9999787026270884
 41
4.547240312429523
 42
6.118036639224419
  0
ELLIPSE
  5
33
330
17
100
AcDbEntity
  8
visible
100
AcDbEllipse
 10
-52.179176293759404
 20
34.97029742319338
 30
0.0
 11
-1.315164570673054
 21
7.891155945236817
 31
0.0
 40
0.9999787026270884
 41
-6.283185307179586
 42
-4.877537648339857
  0
LINE
  5
34
330
17
100
AcDbEntity
  8
visible
100
AcDbLine
 10
-52.1791762937594
 20
-45.02965652891509
 30
0.0
 11
39.81891730191067
 21
-45.03029199003821
 31
0.0
  0
ELLIPSE
  5
35
330
17
100
AcDbEntity
  8
visible
100
AcDbEllipse
 10
39.818917301910666
 20
-37.03029659482737
 30
0.0
 11
-1.315164570673054
 21
7.891155945236817
 31
0.0
 40
0.9999787026270884
 41
-3.3067413215449606
 42
-3.1415926535897936
  0
ELLIPSE
  5
36
330
17
100
AcDbEntity
  8
visible
100
AcDbEllipse
 10
-53.179155571973205
 20
-38.029653650919485
 30
0.0
 11
0.21371424273437126
 21
-1.2823128411009828
 31
0.0
 40
0.9999787026270884
 41
1.405647658839729
 42
3.141592653589793
  0
ELLIPSE
  5
37
330
17
100
AcDbEntity
  8
visible
100
AcDbEllipse
 10
-53.179155571973205
 20
-38.029653650919485
 30
0.0
 11
0.21371424273437126
 21
-1.2823128411009828
 31
0.0
 40
0.9999787026270884
 41
3.141592653589793
 42
6.283185307179586
  0
ELLIPSE
  5
38
330
17
100
AcDbEntity
  8
visible
100
AcDbEllipse
 10
-53.179155571973205
 20
-38.029653650919485
 30
0.0
 11
0.21371424273437126
 21
-1.2823128411009828
 31
0.0
 40
0.9999787026270884
 41
0.0
 42
1.4056476588397295
  0
ELLIPSE
  5
39
330
17
100
AcDbEntity
  8
visible
100
AcDbEllipse
 10
40.818896580124466
 20
-38.03030292641485
 30
0.0
 11
0.21371424273437126
 21
-1.2823128411009828
 31
0.0
 40
0.9999787026270884
 41
1.405647658839729
 42
3.141592653589793
  0
ELLIPSE
  5
3A
330
17
100
AcDbEntity
  8
visible
100
AcDbEllipse
 10
40.818896580124466
 20
-38.03030292641485
 30
0.0
 11
0.21371424273437126
 21
-1.2823128411009828
 31
0.0
 40
0.9999787026270884
 41
3.141592653589793
 42
6.283185307179586
  0
ELLIPSE
  5
3B
330
17
100
AcDbEntity
  8
visible
100
AcDbEllipse
 10
40.818896580124466
 20
-38.03030292641485
 30
0.0
 11
0.21371424273437126
 21
-1.2823128411009828
 31
0.0
 40
0.9999787026270884
 41
0.0
 42
1.4056476588397295
  0
ELLIPSE
  5
3C
330
17
100
AcDbEntity
  8
visible
100
AcDbEllipse
 10
-53.179155571973205
 20
35.97030375478086
 30
0.0
 11
0.21371424273437126
 21
-1.2823128411009828
 31
0.0
 40
0.9999787026270884
 41
1.405647658839729
 42
3.141592653589793
  0
ELLIPSE
  5
3D
330
17
100
AcDbEntity
  8
visible
100
AcDbEllipse
 10
-53.179155571973205
 20
35.97030375478086
 30
0.0
 11
0.21371424273437126
 21
-1.2823128411009828
 31
0.0
 40
0.9999787026270884
 41
3.141592653589793
 42
6.283185307179586
  0
ELLIPSE
  5
3E
330
17
100
AcDbEntity
  8
visible
100
AcDbEllipse
 10
-53.179155571973205
 20
35.97030375478086
 30
0.0
 11
0.21371424273437126
 21
-1.2823128411009828
 31
0.0
 40
0.9999787026270884
 41
0.0
 42
1.4056476588397295
  0
ELLIPSE
  5
3F
330
17
100
AcDbEntity
  8
visible
100
AcDbEllipse
 10
40.818896580124466
 20
35.969654479285495
 30
0.0
 11
0.21371424273437126
 21
-1.2823128411009828
 31
0.0
 40
0.9999787026270884
 41
1.405647658839729
 42
3.141592653589793
  0
ELLIPSE
  5
40
330
17
100
AcDbEntity
  8
visible
100
AcDbEllipse
 10
40.818896580124466
 20
35.969654479285495
 30
0.0
 11
0.21371424273437126
 21
-1.2823128411009828
 31
0.0
 40
0.9999787026270884
 41
3.141592653589793
 42
6.283185307179586
  0
ELLIPSE
  5
41
330
17
100
AcDbEntity
  8
visible
100
AcDbEllipse
 10
40.818896580124466
 20
35.969654479285495
 30
0.0
 11
0.21371424273437126
 21
-1.2823128411009828
 31
0.0
 40
0.9999787026270884
 41
0.0
 42
1.4056476588397295
  0
ELLIPSE
  5
42
330
17
100
AcDbEntity
  8
visible
100
AcDbEllipse
 10
-52.21651457613061
 20
34.96407450902907
 30
0.0
 11
1.315164570673054
 21
-7.891155945236817
 31
0.0
 40
0.9999787026270884
 41
3.1415926535897927
 42
4.547240312429523
  0
ELLIPSE
  5
43
330
17
100
AcDbEntity
  8
visible
100
AcDbEllipse
 10
39.78157901953946
 20
-37.03651950899168
 30
0.0
 11
1.315164570673054
 21
-7.891155945236817
 31
0.0
 40
0.9999787026270884
 41
6.118036639224419
 42
6.283185307179586
  0
LINE
  5
44
330
17
100
AcDbEntity
  8
visible
100
AcDbLine
 10
-52.216514576130606
 20
-45.0358794430794
 30
0.0
 11
39.781579019539464
 21
-45.03651490420253
 31
0.0
  0
ELLIPSE
  5
45
330
17
100
AcDbEntity
  8
visible
100
AcDbEllipse
 10
-52.21651457613061
 20
-37.03588404786856
 30
0.0
 11
1.315164570673054
 21
-7.891155945236817
 31
0.0
 40
0.9999787026270884
 41
4.547240312429523
 42
6.118036639224419
  0
ELLIPSE
  5
46
330
17
100
AcDbEntity
  8
visible
100
AcDbEllipse
 10
-53.410910428070366
 20
-38.06827863538763
 30
0.0
 11
0.21371424273437126
 21
-1.2823128411009828
 31
0.0
 40
0.9999787026270884
 41
1.405647658839729
 42
3.0511013209954174
  0
ELLIPSE
  5
47
330
17
100
AcDbEntity
  8
visible
100
AcDbEllipse
 10
-53.410910428070366
 20
-38.06827863538763
 30
0.0
 11
0.21371424273437126
 21
-1.2823128411009828
 31
0.0
 40
0.9999787026270884
 41
0.09049133259439834
 42
1.4056476588397295
  0
ELLIPSE
  5
48
330
17
100
AcDbEntity
  8
visible
100
AcDbEllipse
 10
40.587141724027305
 20
-38.06892791088299
 30
0.0
 11
0.21371424273437126
 21
-1.2823128411009828
 31
0.0
 40
0.9999787026270884
 41
1.405647658839729
 42
3.0511013209954396
  0
ELLIPSE
  5
49
330
17
100
AcDbEntity
  8
visible
100
AcDbEllipse
 10
40.587141724027305
 20
-38.06892791088299
 30
0.0
 11
0.21371424273437126
 21
-1.2823128411009828
 31
0.0
 40
0.9999787026270884
 41
0.09049133259444098
 42
1.4056476588397295
  0
ELLIPSE
  5
4A
330
17
100
AcDbEntity
  8
visible
100
AcDbEllipse
 10
-53.410910428070366
 20
35.931678770312715
 30
0.0
 11
0.21371424273437126
 21
-1.2823128411009828
 31
0.0
 40
0.9999787026270884
 41
1.405647658839729
 42
3.0511013209954396
  0
ELLIPSE
  5
4B
330
17
100
AcDbEntity
  8
visible
100
AcDbEllipse
 10
-53.410910428070366
 20
35.931678770312715
 30
0.0
 11
0.21371424273437126
 21
-1.2823128411009828
 31
0.0
 40
0.9999787026270884
 41
0.09049133259443032
 42
1.4056476588397295
  0
ELLIPSE
  5
4C
330
17
100
AcDbEntity
  8
visible
100
AcDbEllipse
 10
40.587141724027305
 20
35.93102949481735
 30
0.0
 11
0.21371424273437126
 21
-1.2823128411009828
 31
0.0
 40
0.9999787026270884
 41
1.405647658839729
 42
3.0511013209954507
  0
ELLIPSE
  5
4D
330
17
100
AcDbEntity
  8
visible
100
AcDbEllipse
 10
40.587141724027305
 20
35.93102949481735
 30
0.0
 11
0.21371424273437126
 21
-1.2823128411009828
 31
0.0
 40
0.9999787026270884
 41
0.09049133259441966
 42
1.4056476588397295
  0
LINE
  5
4E
330
17
100
AcDbEntity
  8
visible
100
AcDbLine
 10
-28.859917032699443
 20
-45.05986050237527
 30
0.0
 11
-23.86002064163042
 21
-45.059895038305875
 31
0.0
  0
LINE
  5
4F
330
17
100
AcDbEntity
  8
visible
100
AcDbLine
 10
-28.859917032699446
 20
-45.059860502375265
 30
0.0
 11
-28.879229937374213
 21
-45.06307925108094
 31
0.0
  0
LINE
  5
50
330
17
100
AcDbEntity
  8
visible
100
AcDbLine
 10
-23.879333546305183
 20
-45.06311378701155
 30
0.0
 11
-23.879333546305183
 21
-45.059894904905285
 31
0.0
  0
LINE
  5
51
330
17
100
AcDbEntity
  8
visible
100
AcDbLine
 10
-23.860020641630417
 20
-45.059895038305875
 30
0.0
 11
-23.879333546305183
 21
-45.06311378701155
 31
0.0
  0
LINE
  5
52
330
17
100
AcDbEntity
  8
visible
100
AcDbLine
 10
-28.879229937374205
 20
-45.06307925108095
 30
0.0
 11
-23.879333546305183
 21
-45.06311378701155
 31
0.0
  0
LINE
  5
53
330
17
100
AcDbEntity
  8
visible
100
AcDbLine
 10
-18.860124250561398
 20
-45.05992957423648
 30
0.0
 11
-13.860227859492369
 21
-45.05996411016708
 31
0.0
  0
LINE
  5
54
330
17
100
AcDbEntity
  8
visible
100
AcDbLine
 10
-18.86012425056139
 20
-45.05992957423648
 30
0.0
 11
-18.879437155236158
 21
-45.063148322942155
 31
0.0
  0
LINE
  5
55
330
17
100
AcDbEntity
  8
visible
100
AcDbLine
 10
-13.879540764167132
 20
-45.06318285887276
 30
0.0
 11
-13.879540764167132
 21
-45.05996397676649
 31
0.0
  0
LINE
  5
56
330
17
100
AcDbEntity
  8
visible
100
AcDbLine
 10
-13.860227859492369
 20
-45.05996411016708
 30
0.0
 11
-13.879540764167132
 21
-45.06318285887276
 31
0.0
  0
LINE
  5
57
330
17
100
AcDbEntity
  8
visible
100
AcDbLine
 10
-18.87943715523616
 20
-45.063148322942155
 30
0.0
 11
-13.879540764167132
 21
-45.06318285887276
 31
0.0
  0
LINE
  5
58
330
17
100
AcDbEntity
  8
visible
100
AcDbLine
 10
-8.86033146842334
 20
-45.05999864609768
 30
0.0
 11
-3.860435077354314
 21
-45.060033182028285
 31
0.0
  0
LINE
  5
59
330
17
100
AcDbEntity
  8
visible
100
AcDbLine
 10
-8.860331468423343
 20
-45.05999864609768
 30
0.0
 11
-8.879644373098106
 21
-45.06321739480336
 31
0.0
  0
LINE
  5
5A
330
17
100
AcDbEntity
  8
visible
100
AcDbLine
 10
-3.8797479820290817
 20
-45.06325193073397
 30
0.0
 11
-3.8797479820290817
 21
-45.060033048627695
 31
0.0
  0
LINE
  5
5B
330
17
100
AcDbEntity
  8
visible
100
AcDbLine
 10
-3.860435077354318
 20
-45.06003318202829
 30
0.0
 11
-3.879747982029081
 21
-45.06325193073397
 31
0.0
  0
LINE
  5
5C
330
17
100
AcDbEntity
  8
visible
100
AcDbLine
 10
-8.879644373098103
 20
-45.06321739480336
 30
0.0
 11
-3.879747982029077
 21
-45.06325193073396
 31
0.0
  0
LINE
  5
5D
330
17
100
AcDbEntity
  8
visible
100
AcDbLine
 10
1.1394613137147083
 20
-45.060067717958894
 30
0.0
 11
6.139357704783734
 21
-45.060102253889504
 31
0.0
  0
LINE
  5
5E
330
17
100
AcDbEntity
  8
visible
100
AcDbLine
 10
1.1394613137147067
 20
-45.060067717958894
 30
0.0
 11
1.120148409039943
 21
-45.06328646666457
 31
0.0
  0
LINE
  5
5F
330
17
100
AcDbEntity
  8
visible
100
AcDbLine
 10
6.120044800108968
 20
-45.063321002595174
 30
0.0
 11
6.120044800108968
 21
-45.06010212048891
 31
0.0
  0
LINE
  5
60
330
17
100
AcDbEntity
  8
visible
100
AcDbLine
 10
6.139357704783732
 20
-45.0601022538895
 30
0.0
 11
6.1200448001089685
 21
-45.063321002595174
 31
0.0
  0
LINE
  5
61
330
17
100
AcDbEntity
  8
visible
100
AcDbLine
 10
1.1201484090399454
 20
-45.06328646666457
 30
0.0
 11
6.120044800108971
 21
-45.06332100259518
 31
0.0
  0
LINE
  5
62
330
17
100
AcDbEntity
  8
visible
100
AcDbLine
 10
11.139254095852763
 20
-45.060136789820106
 30
0.0
 11
16.139150486921785
 21
-45.06017132575071
 31
0.0
  0
LINE
  5
63
330
17
100
AcDbEntity
  8
visible
100
AcDbLine
 10
16.119837582247023
 20
-45.063390074456386
 30
0.0
 11
16.119837582247023
 21
-45.06017119235012
 31
0.0
  0
LINE
  5
64
330
17
100
AcDbEntity
  8
visible
100
AcDbLine
 10
16.139150486921782
 20
-45.06017132575071
 30
0.0
 11
16.119837582247015
 21
-45.063390074456386
 31
0.0
  0
LINE
  5
65
330
17
100
AcDbEntity
  8
visible
100
AcDbLine
 10
11.119941191178
 20
-45.063355538525784
 30
0.0
 11
16.119837582247023
 21
-45.063390074456386
 31
0.0
  0
LINE
  5
66
330
17
100
AcDbEntity
  8
visible
100
AcDbLine
 10
11.139254095852756
 20
-45.0601367898201
 30
0.0
 11
11.119941191177993
 21
-45.06335553852578
 31
0.0
  0
ELLIPSE
  5
67
330
17
100
AcDbEntity
  8
visible
100
AcDbEllipse
 10
-52.22423973800052
 20
34.962787009546794
 30
0.0
 11
1.315164570673054
 21
-7.891155945236817
 31
0.0
 40
0.9999787026270884
 41
3.1411031608751236
 42
3.1415926535897927
  0
ELLIPSE
  5
68
330
17
100
AcDbEntity
  8
visible
100
AcDbEllipse
 10
-52.22423973800052
 20
34.962787009546794
 30
0.0
 11
1.315164570673054
 21
-7.891155945236817
 31
0.0
 40
0.9999787026270884
 41
3.1415926535897927
 42
4.547240312429523
  0
ELLIPSE
  5
69
330
17
100
AcDbEntity
  8
visible
100
AcDbEllipse
 10
39.77385385766955
 20
-37.037807008473955
 30
0.0
 11
1.315164570673054
 21
-7.891155945236817
 31
0.0
 40
0.9999787026270884
 41
6.118036639224419
 42
6.283185307179586
  0
ELLIPSE
  5
6A
330
17
100
AcDbEntity
  8
visible
100
AcDbEllipse
 10
39.77385385766955
 20
-37.037807008473955
 30
0.0
 11
1.315164570673054
 21
-7.891155945236817
 31
0.0
 40
0.9999787026270884
 41
0.0
 42
0.0004894927172820474
  0
LINE
  5
6B
330
17
100
AcDbEntity
  8
visible
100
AcDbLine
 10
-52.22423973800051
 20
-45.037166942561676
 30
0.0
 11
39.77385385766956
 21
-45.0378024036848
 31
0.0
  0
ELLIPSE
  5
6C
330
17
100
AcDbEntity
  8
visible
100
AcDbEllipse
 10
-52.22423973800052
 20
-37.03717154735083
 30
0.0
 11
1.315164570673054
 21
-7.891155945236817
 31
0.0
 40
0.9999787026270884
 41
4.547240312429523
 42
6.118036639224419
  0
LINE
  5
6D
330
17
100
AcDbEntity
  8
visible
100
AcDbLine
 10
-60.22407396371096
 20
34.962842267035754
 30
0.0
 11
-60.22407396371096
 21
-37.03711628986187
 31
0.0
  0
LINE
  5
6E
330
17
100
AcDbEntity
  8
visible
100
AcDbLine
 10
-52.43668168942291
 20
-45.072573178324134
 30
0.0
 11
39.56141190624716
 21
-45.07320863944725
 31
0.0
  0
LINE
  5
6F
330
17
100
AcDbEntity
  8
visible
100
AcDbLine
 10
-52.34977361838648
 20
-45.058088809148586
 30
0.0
 11
-42.349980836248434
 21
-45.05815788100979
 31
0.0
  0
LINE
  5
70
330
17
100
AcDbEntity
  8
visible
100
AcDbLine
 10
-42.272729217549376
 20
-45.04528288618708
 30
0.0
 11
-42.349980836248434
 21
-45.0581578810098
 31
0.0
  0
LINE
  5
71
330
17
100
AcDbEntity
  8
visible
100
AcDbLine
 10
-52.27252199968742
 20
-45.04521381432587
 30
0.0
 11
-42.27272921754937
 21
-45.045282886187074
 31
0.0
  0
LINE
  5
72
330
17
100
AcDbEntity
  8
visible
100
AcDbLine
 10
-12.110003695573736
 20
-45.04585403537895
 30
0.0
 11
-12.114690469803891
 21
-45.04663514773575
 31
0.0
  0
SPLINE
  5
73
330
17
100
AcDbEntity
  8
visible
100
AcDbSpline
 70
0
 71
2
 72
6
 73
3
 74
0
 40
0.0
 40
0.0
 40
0.0
 40
1.0
 40
1.0
 40
1.0
 10
-12.110003695573738
 20
-45.04585403537895
 30
0.0
 10
-12.462486025600812
 20
-45.04559198623613
 30
0.0
 10
-12.86814259645573
 20
-45.045458226299
 30
0.0
  0
SPLINE
  5
74
330
17
100
AcDbEntity
  8
visible
100
AcDbSpline
 70
0
 71
2
 72
6
 73
3
 74
0
 40
0.0
 40
0.0
 40
0.0
 40
1.0
 40
1.0
 40
1.0
 10
-12.854958752029614
 20
-45.04610927130574
 30
0.0
 10
-12.45192188706565
 20
-45.0462910476457
 30
0.0
 10
-12.114690469803893
 20
-45.046635147735756
 30
0.0
  0
SPLINE
  5
75
330
17
100
AcDbEntity
  8
visible
100
AcDbSpline
 70
0
 71
2
 72
6
 73
3
 74
0
 40
0.0
 40
0.0
 40
0.0
 40
1.0
 40
1.0
 40
1.0
 10
-12.86814259645573
 20
-45.045458226299004
 30
0.0
 10
-13.279960959142942
 20
-45.045324079859334
 30
0.0
 10
-13.730380693121912
 20
-45.04532207974826
 30
0.0
  0
SPLINE
  5
76
330
17
100
AcDbEntity
  8
visible
100
AcDbSpline
 70
0
 71
2
 72
6
 73
3
 74
0
 40
0.0
 40
0.0
 40
0.0
 40
1.0
 40
1.0
 40
1.0
 10
-13.693018521429561
 20
-45.04593111728193
 30
0.0
 10
-13.25250669250108
 20
-45.0459334464078
 30
0.0
 10
-12.854958752029614
 20
-45.04610927130574
 30
0.0
  0
SPLINE
  5
77
330
17
100
AcDbEntity
  8
visible
100
AcDbSpline
 70
0
 71
3
 72
8
 73
4
 74
0
 40
0.0
 40
0.0
 40
0.0
 40
0.0
 40
1.0
 40
1.0
 40
1.0
 40
1.0
 10
-13.730380693121912
 20
-45.04532207974825
 30
0.0
 10
-14.417316654967264
 20
-45.045308524108485
 30
0.0
 10
-15.101741931661667
 20
-45.0455395415486
 30
0.0
 10
-15.56010393855318
 20
-45.046070415573425
 30
0.0
  0
SPLINE
  5
78
330
17
100
AcDbEntity
  8
visible
100
AcDbSpline
 70
0
 71
3
 72
8
 73
4
 74
0
 40
0.0
 40
0.0
 40
0.0
 40
0.0
 40
1.0
 40
1.0
 40
1.0
 40
1.0
 10
-15.036278076333085
 20
-45.04649577861834
 30
0.0
 10
-14.714771755381456
 20
-45.046093209074684
 30
0.0
 10
-14.2113286806391
 20
-45.04592137109251
 30
0.0
 10
-13.693018521429561
 20
-45.045931117281924
 30
0.0
  0
SPLINE
  5
79
330
17
100
AcDbEntity
  8
visible
100
AcDbSpline
 70
0
 71
2
 72
8
 73
5
 74
0
 40
0.0
 40
0.0
 40
0.0
 40
0.6298555326701425
 40
0.6298555326701425
 40
1.0
 40
1.0
 40
1.0
 10
-15.560103938553187
 20
-45.04607041557344
 30
0.0
 10
-16.012351295381624
 20
-45.04659279471785
 30
0.0
 10
-16.155158547142527
 20
-45.04730537778971
 30
0.0
 10
-16.238708032650692
 20
-45.047716690395106
 30
0.0
 10
-16.23908109644804
 20
-45.048146944594606
 30
0.0
  0
SPLINE
  5
7A
330
17
100
AcDbEntity
  8
visible
100
AcDbSpline
 70
0
 71
3
 72
8
 73
4
 74
0
 40
0.0
 40
0.0
 40
0.0
 40
0.0
 40
1.0
 40
1.0
 40
1.0
 40
1.0
 10
-15.511068838725002
 20
-45.04815197321497
 30
0.0
 10
-15.508815698545831
 20
-45.0475370391239
 30
0.0
 10
-15.388372236322938
 20
-45.0469226922749
 30
0.0
 10
-15.036278076333092
 20
-45.04649577861835
 30
0.0
  0
SPLINE
  5
7B
330
17
100
AcDbEntity
  8
visible
100
AcDbSpline
 70
0
 71
1
 72
4
 73
2
 74
0
 40
0.0
 40
0.0
 40
0.013407389872859523
 40
0.013407389872859523
 10
-16.23908109644804
 20
-45.048146944594606
 30
0.0
 10
-16.239174254375456
 20
-45.0481779197647
 30
0.0
  0
SPLINE
  5
7C
330
17
100
AcDbEntity
  8
visible
100
AcDbSpline
 70
0
 71
3
 72
11
 73
7
 74
0
 40
0.0
 40
0.0
 40
0.0
 40
0.0
 40
0.6339738004204625
 40
0.6339738004204625
 40
0.6339738004204625
 40
1.0
 40
1.0
 40
1.0
 40
1.0
 10
-16.239174254375456
 20
-45.0481779197647
 30
0.0
 10
-16.23943795928547
 20
-45.048658540364045
 30
0.0
 10
-16.170804500670187
 20
-45.04913611428517
 30
0.0
 10
-15.993834344833546
 20
-45.04956178301481
 30
0.0
 10
-15.891579659810862
 20
-45.04980900559494
 30
0.0
 10
-15.755320231703301
 20
-45.05003141584153
 30
0.0
 10
-15.585056060510915
 20
-45.05022901375469
 30
0.0
  0
SPLINE
  5
7D
330
17
100
AcDbEntity
  8
visible
100
AcDbSpline
 70
0
 71
3
 72
8
 73
4
 74
0
 40
0.0
 40
0.0
 40
0.0
 40
0.0
 40
0.9838519839193035
 40
0.9838519839193035
 40
0.9838519839193035
 40
0.9838519839193035
 10
-15.056169362267646
 20
-45.049810922142036
 30
0.0
 10
-15.396951398955949
 20
-45.049387087056786
 30
0.0
 10
-15.512653387005916
 20
-45.04878507567936
 30
0.0
 10
-15.511158893300506
 20
-45.048181893015844
 30
0.0
  0
SPLINE
  5
7E
330
17
100
AcDbEntity
  8
visible
100
AcDbSpline
 70
0
 71
1
 72
4
 73
2
 74
0
 40
0.0
 40
0.0
 40
1.0
 40
1.0
 10
-15.511158893300504
 20
-45.04818189301585
 30
0.0
 10
-15.511068838725002
 20
-45.04815197321497
 30
0.0
  0
SPLINE
  5
7F
330
17
100
AcDbEntity
  8
visible
100
AcDbSpline
 70
0
 71
3
 72
8
 73
4
 74
0
 40
0.0
 40
0.0
 40
0.0
 40
0.0
 40
1.0
 40
1.0
 40
1.0
 40
1.0
 10
-15.585056060510908
 20
-45.050229013754695
 30
0.0
 10
-15.13310240587221
 20
-45.050766175629526
 30
0.0
 10
-14.451506012240163
 20
-45.05100662863105
 30
0.0
 10
-13.764464323556235
 20
-45.051002563507325
 30
0.0
  0
SPLINE
  5
80
330
17
100
AcDbEntity
  8
visible
100
AcDbSpline
 70
0
 71
3
 72
8
 73
4
 74
0
 40
0.0
 40
0.0
 40
0.0
 40
0.0
 40
1.0
 40
1.0
 40
1.0
 40
1.0
 10
-13.719796945082606
 20
-45.05039409257875
 30
0.0
 10
-14.23818110357959
 20
-45.05039667797217
 30
0.0
 10
-14.73952044264068
 20
-45.05021789963121
 30
0.0
 10
-15.056169362267639
 20
-45.04981092214203
 30
0.0
  0
SPLINE
  5
81
330
17
100
AcDbEntity
  8
visible
100
AcDbSpline
 70
0
 71
2
 72
6
 73
3
 74
0
 40
0.0
 40
0.0
 40
0.0
 40
1.0
 40
1.0
 40
1.0
 10
-13.764464323556233
 20
-45.05100256350731
 30
0.0
 10
-13.319261440685336
 20
-45.05100652388836
 30
0.0
 10
-12.907488762843055
 20
-45.05087645845828
 30
0.0
  0
SPLINE
  5
82
330
17
100
AcDbEntity
  8
visible
100
AcDbSpline
 70
0
 71
2
 72
6
 73
3
 74
0
 40
0.0
 40
0.0
 40
0.0
 40
1.0
 40
1.0
 40
1.0
 10
-12.879668834003624
 20
-45.0502275303512
 30
0.0
 10
-13.279293675676527
 20
-45.05039784891315
 30
0.0
 10
-13.719796945082606
 20
-45.050394092578756
 30
0.0
  0
SPLINE
  5
83
330
17
100
AcDbEntity
  8
visible
100
AcDbSpline
 70
0
 71
2
 72
6
 73
3
 74
0
 40
0.0
 40
0.0
 40
0.0
 40
1.0
 40
1.0
 40
1.0
 10
-12.907488762843055
 20
-45.05087645845828
 30
0.0
 10
-12.49887814343841
 20
-45.05074578082442
 30
0.0
 10
-12.137794286431417
 20
-45.050485701607286
 30
0.0
  0
SPLINE
  5
84
330
17
100
AcDbEntity
  8
visible
100
AcDbSpline
 70
0
 71
2
 72
6
 73
3
 74
0
 40
0.0
 40
0.0
 40
0.0
 40
1.0
 40
1.0
 40
1.0
 10
-12.133151519471028
 20
-45.049711923638824
 30
0.0
 10
-12.474484101727157
 20
-45.05005133666309
 30
0.0
 10
-12.879668834003624
 20
-45.0502275303512
 30
0.0
  0
LINE
  5
85
330
17
100
AcDbEntity
  8
visible
100
AcDbLine
 10
-12.133151519471026
 20
-45.049711923638824
 30
0.0
 11
-12.137794286431415
 21
-45.05048570160729
 31
0.0
  0
LINE
  5
86
330
17
100
AcDbEntity
  8
visible
100
AcDbLine
 10
-11.706251668148045
 20
-45.05091042722146
 30
0.0
 11
-9.72519842482526
 21
-45.04544876320694
 31
0.0
  0
LINE
  5
87
330
17
100
AcDbEntity
  8
visible
100
AcDbLine
 10
-10.978239410425001
 20
-45.050915455841825
 30
0.0
 11
-11.706251668148042
 21
-45.05091042722146
 31
0.0
  0
LINE
  5
88
330
17
100
AcDbEntity
  8
visible
100
AcDbLine
 10
-9.725198424825251
 20
-45.04544876320695
 30
0.0
 11
-8.942499800324892
 21
-45.04545416956405
 31
0.0
  0
LINE
  5
89
330
17
100
AcDbEntity
  8
visible
100
AcDbLine
 10
-10.504977900657474
 20
-45.049514131239555
 30
0.0
 11
-10.978239410424997
 21
-45.05091545584183
 31
0.0
  0
LINE
  5
8A
330
17
100
AcDbEntity
  8
visible
100
AcDbLine
 10
-8.9424998003249
 20
-45.04545416956405
 30
0.0
 11
-7.0305673086874
 21
-45.050942723712815
 31
0.0
  0
LINE
  5
8B
330
17
100
AcDbEntity
  8
visible
100
AcDbLine
 10
-8.204732598086562
 20
-45.04953001979122
 30
0.0
 11
-10.504977900657476
 21
-45.049514131239555
 31
0.0
  0
LINE
  5
8C
330
17
100
AcDbEntity
  8
visible
100
AcDbLine
 10
-7.030567308687395
 20
-45.050942723712815
 30
0.0
 11
-7.748325872639683
 21
-45.05093776591809
 31
0.0
  0
LINE
  5
8D
330
17
100
AcDbEntity
  8
visible
100
AcDbLine
 10
-7.748325872639691
 20
-45.05093776591809
 30
0.0
 11
-8.204732598086563
 21
-45.04953001979123
 31
0.0
  0
LINE
  5
8E
330
17
100
AcDbEntity
  8
visible
100
AcDbLine
 10
-6.2854655613464505
 20
-45.05094787037592
 30
0.0
 11
-6.252614134465599
 21
-45.04547274949001
 31
0.0
  0
LINE
  5
8F
330
17
100
AcDbEntity
  8
visible
100
AcDbLine
 10
-5.615557568324306
 20
-45.05095249765099
 30
0.0
 11
-6.285465561346442
 21
-45.050947870375914
 31
0.0
  0
LINE
  5
90
330
17
100
AcDbEntity
  8
visible
100
AcDbLine
 10
-6.252614134465599
 20
-45.04547274949
 30
0.0
 11
-5.223826859467312
 21
-45.04547985566244
 31
0.0
  0
LINE
  5
91
330
17
100
AcDbEntity
  8
visible
100
AcDbLine
 10
-5.586710802992231
 20
-45.04614480610282
 30
0.0
 11
-5.615557568324312
 21
-45.05095249765099
 31
0.0
  0
LINE
  5
92
330
17
100
AcDbEntity
  8
visible
100
AcDbLine
 10
-5.2238268594673105
 20
-45.045479855662435
 30
0.0
 11
-3.9439634436239284
 21
-45.049214719788566
 31
0.0
  0
LINE
  5
93
330
17
100
AcDbEntity
  8
visible
100
AcDbLine
 10
-4.293351824533588
 20
-45.04990910221643
 30
0.0
 11
-5.586710802992232
 21
-45.04614480610281
 31
0.0
  0
LINE
  5
94
330
17
100
AcDbEntity
  8
visible
100
AcDbLine
 10
-3.9439634436239244
 20
-45.049214719788566
 30
0.0
 11
-2.612552845850397
 21
-45.04549789259182
 31
0.0
  0
LINE
  5
95
330
17
100
AcDbEntity
  8
visible
100
AcDbLine
 10
-3.599518546046369
 20
-45.049913894751334
 30
0.0
 11
-4.293351824533584
 21
-45.04990910221643
 31
0.0
  0
LINE
  5
96
330
17
100
AcDbEntity
  8
visible
100
AcDbLine
 10
-2.6125528458503986
 20
-45.045497892591825
 30
0.0
 11
-1.5837655708521154
 21
-45.045504998764265
 31
0.0
  0
LINE
  5
97
330
17
100
AcDbEntity
  8
visible
100
AcDbLine
 10
-2.2610961233466105
 20
-45.04616777721837
 30
0.0
 11
-3.5995185460463706
 21
-45.049913894751334
 31
0.0
  0
LINE
  5
98
330
17
100
AcDbEntity
  8
visible
100
AcDbLine
 10
-1.583765570852119
 20
-45.045504998764265
 30
0.0
 11
-1.616616997732971
 21
-45.05098011965018
 31
0.0
  0
LINE
  5
99
330
17
100
AcDbEntity
  8
visible
100
AcDbLine
 10
-2.2899428886786923
 20
-45.05097546876656
 30
0.0
 11
-2.2610961233466114
 21
-45.04616777721838
 31
0.0
  0
LINE
  5
9A
330
17
100
AcDbEntity
  8
visible
100
AcDbLine
 10
-1.6166169977329723
 20
-45.05098011965017
 30
0.0
 11
-2.2899428886786914
 21
-45.050975468766545
 31
0.0
  0
LINE
  5
9B
330
17
100
AcDbEntity
  8
visible
100
AcDbLine
 10
1.1147308505934475
 20
-45.04807611108774
 30
0.0
 11
-0.45927715399352564
 21
-45.045512765976
 31
0.0
  0
LINE
  5
9C
330
17
100
AcDbEntity
  8
visible
100
AcDbLine
 10
-0.7245456396779755
 20
-45.05098628148077
 30
0.0
 11
1.114730850593448
 21
-45.048076111087745
 31
0.0
  0
LINE
  5
9D
330
17
100
AcDbEntity
  8
visible
100
AcDbLine
 10
-0.4592771539935221
 20
-45.045512765976
 30
0.0
 11
0.28240669542384467
 21
-45.04551788903055
 31
0.0
  0
LINE
  5
9E
330
17
100
AcDbEntity
  8
visible
100
AcDbLine
 10
0.020556107662972778
 20
-45.05099142814385
 30
0.0
 11
-0.7245456396779772
 21
-45.05098628148076
 31
0.0
  0
LINE
  5
9F
330
17
100
AcDbEntity
  8
visible
100
AcDbLine
 10
0.28240669542384733
 20
-45.04551788903055
 30
0.0
 11
1.5382348077126338
 21
-45.047561940561906
 31
0.0
  0
LINE
  5
A0
330
17
100
AcDbEntity
  8
visible
100
AcDbLine
 10
1.4802992374892394
 20
-45.04867274626521
 30
0.0
 11
0.020556107662974554
 21
-45.05099142814386
 31
0.0
  0
LINE
  5
A1
330
17
100
AcDbEntity
  8
visible
100
AcDbLine
 10
1.5382348077126302
 20
-45.047561940561906
 30
0.0
 11
2.825322750569107
 21
-45.04553545378901
 31
0.0
  0
LINE
  5
A2
330
17
100
AcDbEntity
  8
visible
100
AcDbLine
 10
2.9018440572428865
 20
-45.051011330148405
 30
0.0
 11
1.480299237489235
 21
-45.04867274626521
 31
0.0
  0
LINE
  5
A3
330
17
100
AcDbEntity
  8
visible
100
AcDbLine
 10
2.825322750569107
 20
-45.045535453789
 30
0.0
 11
3.5670065999864775
 21
-45.04554057684355
 31
0.0
  0
LINE
  5
A4
330
17
100
AcDbEntity
  8
visible
100
AcDbLine
 10
3.643527906660257
 20
-45.05101645320295
 30
0.0
 11
2.9018440572428865
 21
-45.0510113301484
 31
0.0
  0
LINE
  5
A5
330
17
100
AcDbEntity
  8
visible
100
AcDbLine
 10
3.5670065999864757
 20
-45.04554057684356
 30
0.0
 11
1.9106389904555865
 21
-45.048158622956464
 31
0.0
  0
LINE
  5
A6
330
17
100
AcDbEntity
  8
visible
100
AcDbLine
 10
1.910638990455583
 20
-45.048158622956464
 30
0.0
 11
3.643527906660257
 21
-45.051016453202955
 31
0.0
  0
ELLIPSE
  5
A7
330
17
100
AcDbEntity
  8
visible
100
AcDbEllipse
 10
-52.43668168942292
 20
34.927380773784336
 30
0.0
 11
-1.315164570673054
 21
7.891155945236817
 31
0.0
 40
0.9999787026270884
 41
-6.283185307179586
 42
-4.877537648339857
  0
ELLIPSE
  5
A8
330
17
100
AcDbEntity
  8
visible
100
AcDbEllipse
 10
39.56141190624715
 20
-37.07321324423641
 30
0.0
 11
-1.315164570673054
 21
7.891155945236817
 31
0.0
 40
0.9999787026270884
 41
-3.3067413215449606
 42
-3.1415926535897936
  0
ELLIPSE
  5
A9
330
17
100
AcDbEntity
  8
visible
100
AcDbEllipse
 10
-52.27252199968743
 20
-37.045218419115024
 30
0.0
 11
1.315164570673054
 21
-7.891155945236817
 31
0.0
 40
0.9999787026270884
 41
5.305281077855758
 42
6.118036639224419
  0
LINE
  5
AA
330
17
100
AcDbEntity
  8
visible
100
AcDbLine
 10
-58.15912825499835
 20
-42.558050121019974
 30
0.0
 11
-58.08187663629929
 21
-42.54517512619726
 31
0.0
  0
ELLIPSE
  5
AB
330
17
100
AcDbEntity
  8
visible
100
AcDbEllipse
 10
-52.349773618386486
 20
-37.05809341393774
 30
0.0
 11
1.315164570673054
 21
-7.891155945236817
 31
0.0
 40
0.9999787026270884
 41
5.305281077855758
 42
6.118036639224419
  0
ELLIPSE
  5
AC
330
17
100
AcDbEntity
  8
visible
100
AcDbEllipse
 10
-52.43668168942292
 20
-37.07257778311329
 30
0.0
 11
1.315164570673054
 21
-7.891155945236817
 31
0.0
 40
0.9999787026270884
 41
4.547240312429523
 42
6.118036639224419
  0
LINE
  5
AD
330
17
100
AcDbEntity
  8
visible
100
AcDbLine
 10
-60.436515915133356
 20
-37.07252252562432
 30
0.0
 11
-60.436515915133356
 21
34.9274360312733
 31
0.0
  0
LINE
  5
AE
330
17
100
AcDbEntity
  8
visible
100
AcDbLine
 10
-58.15912825499835
 20
-42.55805012101998
 30
0.0
 11
-58.069660129558244
 21
-42.55805073900578
 31
0.0
  0
LINE
  5
AF
330
17
100
AcDbEntity
  8
visible
100
AcDbLine
 10
-42.349980836248434
 20
-45.058157881009805
 30
0.0
 11
-42.349980836248434
 21
-45.045282352584714
 31
0.0
  0
LINE
  5
B0
330
17
100
AcDbEntity
  8
visible
100
AcDbLine
 10
-12.11469046980389
 20
-45.04585056203322
 30
0.0
 11
-12.11469046980389
 21
-45.04663514773576
 31
0.0
  0
LINE
  5
B1
330
17
100
AcDbEntity
  8
visible
100
AcDbLine
 10
-12.137794286431413
 20
-45.04971649398388
 30
0.0
 11
-12.137794286431413
 21
-45.0504857016073
 31
0.0
  0
LINE
  5
B2
330
17
100
AcDbEntity
  8
visible
100
AcDbLine
 10
-10.978239410425005
 20
-45.048903334093836
 30
0.0
 11
-10.978239410425005
 21
-45.05091545584183
 31
0.0
  0
LINE
  5
B3
330
17
100
AcDbEntity
  8
visible
100
AcDbLine
 10
-10.50497790065748
 20
-45.047598575947596
 30
0.0
 11
-10.50497790065748
 21
-45.04951413123956
 31
0.0
  0
LINE
  5
B4
330
17
100
AcDbEntity
  8
visible
100
AcDbLine
 10
-8.204732598086563
 20
-45.0475720661197
 30
0.0
 11
-8.204732598086563
 21
-45.04953001979123
 31
0.0
  0
LINE
  5
B5
330
17
100
AcDbEntity
  8
visible
100
AcDbLine
 10
-7.7483258726396915
 20
-45.04888226563638
 30
0.0
 11
-7.7483258726396915
 21
-45.0509377659181
 31
0.0
  0
LINE
  5
B6
330
17
100
AcDbEntity
  8
visible
100
AcDbLine
 10
-5.61555756832431
 20
-45.045477149849454
 30
0.0
 11
-5.61555756832431
 21
-45.050952497651
 31
0.0
  0
LINE
  5
B7
330
17
100
AcDbEntity
  8
visible
100
AcDbLine
 10
-5.586710802992229
 20
-45.045477349103564
 30
0.0
 11
-5.586710802992229
 21
-45.04614480610282
 31
0.0
  0
LINE
  5
B8
330
17
100
AcDbEntity
  8
visible
100
AcDbLine
 10
-4.293351824533585
 20
-45.048195143704284
 30
0.0
 11
-4.293351824533585
 21
-45.04990910221644
 31
0.0
  0
LINE
  5
B9
330
17
100
AcDbEntity
  8
visible
100
AcDbLine
 10
-3.5995185460463697
 20
-45.04825315153514
 30
0.0
 11
-3.5995185460463697
 21
-45.04991389475134
 31
0.0
  0
LINE
  5
BA
330
17
100
AcDbEntity
  8
visible
100
AcDbLine
 10
-2.2610961233466105
 20
-45.045500320219126
 30
0.0
 11
-2.2610961233466105
 21
-45.04616777721838
 31
0.0
  0
LINE
  5
BB
330
17
100
AcDbEntity
  8
visible
100
AcDbLine
 10
-1.6166169977329705
 20
-45.04550477184864
 30
0.0
 11
-1.6166169977329705
 21
-45.050980119650184
 31
0.0
  0
LINE
  5
BC
330
17
100
AcDbEntity
  8
visible
100
AcDbLine
 10
1.1147308505934443
 20
-45.046872623366646
 30
0.0
 11
1.1147308505934443
 21
-45.04807611108775
 31
0.0
  0
LINE
  5
BD
330
17
100
AcDbEntity
  8
visible
100
AcDbLine
 10
0.020556107662971
 20
-45.049807354301315
 30
0.0
 11
0.020556107662971
 21
-45.05099142814387
 31
0.0
  0
LINE
  5
BE
330
17
100
AcDbEntity
  8
visible
100
AcDbLine
 10
1.4802992374892332
 20
-45.04746764159704
 30
0.0
 11
1.4802992374892332
 21
-45.04867274626522
 31
0.0
  0
LINE
  5
BF
330
17
100
AcDbEntity
  8
visible
100
AcDbLine
 10
2.9018440572428865
 20
-45.04979328966467
 30
0.0
 11
2.9018440572428865
 21
-45.051011330148405
 31
0.0
  0
LINE
  5
C0
330
17
100
AcDbEntity
  8
visible
100
AcDbLine
 10
1.9106389904555812
 20
-45.04697559978023
 30
0.0
 11
1.9106389904555812
 21
-45.04815862295647
 31
0.0
  0
LINE
  5
C1
330
17
100
AcDbEntity
  8
visible
100
AcDbLine
 10
-9.339936784878656
 20
-45.045451424335944
 30
0.0
 11
-9.339936784878656
 21
-45.046181226219744
 31
0.0
  0
LINE
  5
C2
330
17
100
AcDbEntity
  8
visible
100
AcDbLine
 10
-8.416363556611842
 20
-45.04891244383336
 30
0.0
 11
-9.339936784878653
 21
-45.04618122621974
 31
0.0
  0
LINE
  5
C3
330
17
100
AcDbEntity
  8
visible
100
AcDbLine
 10
-8.416363556611847
 20
-45.04696454049811
 30
0.0
 11
-8.416363556611847
 21
-45.048912443833366
 31
0.0
  0
LINE
  5
C4
330
17
100
AcDbEntity
  8
visible
100
AcDbLine
 10
-10.292789516658553
 20
-45.047013583259954
 30
0.0
 11
-10.292789516658553
 21
-45.04889948274144
 31
0.0
  0
LINE
  5
C5
330
17
100
AcDbEntity
  8
visible
100
AcDbLine
 10
-9.339936784878654
 20
-45.04618122621974
 30
0.0
 11
-10.292789516658551
 21
-45.04889948274143
 31
0.0
  0
LINE
  5
C6
330
17
100
AcDbEntity
  8
visible
100
AcDbLine
 10
-10.292789516658548
 20
-45.04889948274143
 30
0.0
 11
-8.416363556611838
 21
-45.04891244383336
 31
0.0
  0
LINE
  5
C7
330
17
100
AcDbEntity
  8
visible
100
AcDbLine
 10
-60.15325997990349
 20
-37.02531421127438
 30
0.0
 11
-60.15325997990349
 21
34.97464434562325
 31
0.0
  0
LINE
  5
C8
330
17
100
AcDbEntity
  8
visible
100
AcDbLine
 10
-60.17901051946984
 20
-37.02960587621528
 30
0.0
 11
-60.17901051946984
 21
34.970352680682346
 31
0.0
  0
ELLIPSE
  5
C9
330
17
100
AcDbEntity
  8
visible
100
AcDbEllipse
 10
-52.15342575419305
 20
-37.025369468763344
 30
0.0
 11
1.315164570673054
 21
-7.891155945236817
 31
0.0
 40
0.9999787026270884
 41
4.547240312429523
 42
6.118036639224419
  0
ELLIPSE
  5
CA
330
17
100
AcDbEntity
  8
visible
100
AcDbEllipse
 10
-52.15342575419305
 20
34.97458908813428
 30
0.0
 11
-1.315164570673054
 21
7.891155945236817
 31
0.0
 40
0.9999787026270884
 41
-6.283185307179586
 42
-4.877537648339857
  0
ELLIPSE
  5
CB
330
17
100
AcDbEntity
  8
visible
100
AcDbEllipse
 10
-52.15342575419305
 20
34.97458908813428
 30
0.0
 11
-1.315164570673054
 21
7.891155945236817
 31
0.0
 40
0.9999787026270884
 41
-0.16514866795516747
 42
-0.0
  0
LINE
  5
CC
330
17
100
AcDbEntity
  8
visible
100
AcDbLine
 10
-52.15342575419305
 20
-45.02536486397419
 30
0.0
 11
39.844667841477026
 21
-45.02600032509731
 31
0.0
  0
LINE
  5
CD
330
17
100
AcDbEntity
  8
visible
100
AcDbLine
 10
-52.15342575419305
 20
42.974584483345126
 30
0.0
 11
39.844667841477026
 21
42.97394902222201
 31
0.0
  0
ELLIPSE
  5
CE
330
17
100
AcDbEntity
  8
visible
100
AcDbEllipse
 10
39.84466784147702
 20
-37.02600492988647
 30
0.0
 11
-1.315164570673054
 21
7.891155945236817
 31
0.0
 40
0.9999787026270884
 41
-3.1415926535897936
 42
-1.735944994750064
  0
ELLIPSE
  5
CF
330
17
100
AcDbEntity
  8
visible
100
AcDbEllipse
 10
39.84466784147702
 20
-37.02600492988647
 30
0.0
 11
-1.315164570673054
 21
7.891155945236817
 31
0.0
 40
0.9999787026270884
 41
-3.3067413215449606
 42
-3.1415926535897936
  0
ELLIPSE
  5
D0
330
17
100
AcDbEntity
  8
visible
100
AcDbEllipse
 10
39.84466784147702
 20
34.973953627011156
 30
0.0
 11
1.315164570673054
 21
-7.891155945236817
 31
0.0
 40
0.9999787026270884
 41
1.405647658839729
 42
2.9764439856346256
  0
LINE
  5
D1
330
17
100
AcDbEntity
  8
visible
100
AcDbLine
 10
47.844502067187456
 20
-37.026060187375435
 30
0.0
 11
47.844502067187456
 21
-13.984227958762744
 31
0.0
  0
LINE
  5
D2
330
17
100
AcDbEntity
  8
visible
100
AcDbLine
 10
47.844502067187456
 20
12.07262399288328
 30
0.0
 11
47.844502067187456
 21
34.97389836952219
 31
0.0
  0
ELLIPSE
  5
D3
330
17
100
AcDbEntity
  8
visible
100
AcDbEllipse
 10
-53.15340503240685
 20
-38.025361985978584
 30
0.0
 11
0.5260658282692215
 21
-3.156462378094727
 31
0.0
 40
0.9999787026270884
 41
1.405647658839729
 42
3.141592653589793
  0
ELLIPSE
  5
D4
330
17
100
AcDbEntity
  8
visible
100
AcDbEllipse
 10
-53.15340503240685
 20
-38.025361985978584
 30
0.0
 11
0.5260658282692215
 21
-3.156462378094727
 31
0.0
 40
0.9999787026270884
 41
3.141592653589793
 42
6.283185307179586
  0
ELLIPSE
  5
D5
330
17
100
AcDbEntity
  8
visible
100
AcDbEllipse
 10
-53.15340503240685
 20
-38.025361985978584
 30
0.0
 11
0.5260658282692215
 21
-3.156462378094727
 31
0.0
 40
0.9999787026270884
 41
0.0
 42
1.4056476588397295
  0
ELLIPSE
  5
D6
330
17
100
AcDbEntity
  8
visible
100
AcDbEllipse
 10
40.84464711969082
 20
-38.02601126147395
 30
0.0
 11
0.5260658282692215
 21
-3.156462378094727
 31
0.0
 40
0.9999787026270884
 41
1.405647658839729
 42
3.141592653589793
  0
ELLIPSE
  5
D7
330
17
100
AcDbEntity
  8
visible
100
AcDbEllipse
 10
40.84464711969082
 20
-38.02601126147395
 30
0.0
 11
0.5260658282692215
 21
-3.156462378094727
 31
0.0
 40
0.9999787026270884
 41
3.141592653589793
 42
6.283185307179586
  0
ELLIPSE
  5
D8
330
17
100
AcDbEntity
  8
visible
100
AcDbEllipse
 10
40.84464711969082
 20
-38.02601126147395
 30
0.0
 11
0.5260658282692215
 21
-3.156462378094727
 31
0.0
 40
0.9999787026270884
 41
0.0
 42
1.4056476588397295
  0
ELLIPSE
  5
D9
330
17
100
AcDbEntity
  8
visible
100
AcDbEllipse
 10
-53.15340503240685
 20
35.97459541972176
 30
0.0
 11
0.5260658282692215
 21
-3.156462378094727
 31
0.0
 40
0.9999787026270884
 41
1.405647658839729
 42
3.141592653589793
  0
ELLIPSE
  5
DA
330
17
100
AcDbEntity
  8
visible
100
AcDbEllipse
 10
-53.15340503240685
 20
35.97459541972176
 30
0.0
 11
0.5260658282692215
 21
-3.156462378094727
 31
0.0
 40
0.9999787026270884
 41
3.141592653589793
 42
6.283185307179586
  0
ELLIPSE
  5
DB
330
17
100
AcDbEntity
  8
visible
100
AcDbEllipse
 10
-53.15340503240685
 20
35.97459541972176
 30
0.0
 11
0.5260658282692215
 21
-3.156462378094727
 31
0.0
 40
0.9999787026270884
 41
0.0
 42
1.4056476588397295
  0
ELLIPSE
  5
DC
330
17
100
AcDbEntity
  8
visible
100
AcDbEllipse
 10
40.84464711969082
 20
35.973946144226396
 30
0.0
 11
0.5260658282692215
 21
-3.156462378094727
 31
0.0
 40
0.9999787026270884
 41
1.405647658839729
 42
3.141592653589793
  0
ELLIPSE
  5
DD
330
17
100
AcDbEntity
  8
visible
100
AcDbEllipse
 10
40.84464711969082
 20
35.973946144226396
 30
0.0
 11
0.5260658282692215
 21
-3.156462378094727
 31
0.0
 40
0.9999787026270884
 41
3.141592653589793
 42
6.283185307179586
  0
ELLIPSE
  5
DE
330
17
100
AcDbEntity
  8
visible
100
AcDbEllipse
 10
40.84464711969082
 20
35.973946144226396
 30
0.0
 11
0.5260658282692215
 21
-3.156462378094727
 31
0.0
 40
0.9999787026270884
 41
0.0
 42
1.4056476588397295
  0
ELLIPSE
  5
DF
330
17
100
AcDbEntity
  8
visible
100
AcDbEllipse
 10
-52.179176293759404
 20
-37.029661133704245
 30
0.0
 11
1.315164570673054
 21
-7.891155945236817
 31
0.0
 40
0.9999787026270884
 41
4.547240312429523
 42
6.118036639224419
  0
ELLIPSE
  5
E0
330
17
100
AcDbEntity
  8
visible
100
AcDbEllipse
 10
-52.179176293759404
 20
34.97029742319338
 30
0.0
 11
-1.315164570673054
 21
7.891155945236817
 31
0.0
 40
0.9999787026270884
 41
-6.283185307179586
 42
-4.877537648339857
  0
LINE
  5
E1
330
17
100
AcDbEntity
  8
visible
100
AcDbLine
 10
-52.1791762937594
 20
-45.02965652891509
 30
0.0
 11
39.81891730191067
 21
-45.03029199003821
 31
0.0
  0
ELLIPSE
  5
E2
330
17
100
AcDbEntity
  8
visible
100
AcDbEllipse
 10
39.818917301910666
 20
-37.03029659482737
 30
0.0
 11
-1.315164570673054
 21
7.891155945236817
 31
0.0
 40
0.9999787026270884
 41
-3.3067413215449606
 42
-3.1415926535897936
  0
ELLIPSE
  5
E3
330
17
100
AcDbEntity
  8
visible
100
AcDbEllipse
 10
-53.179155571973205
 20
-38.029653650919485
 30
0.0
 11
0.27125269270131735
 21
-1.6275509137050934
 31
0.0
 40
0.9999787026270884
 41
1.405647658839729
 42
3.137637146739954
  0
ELLIPSE
  5
E4
330
17
100
AcDbEntity
  8
visible
100
AcDbEllipse
 10
-53.179155571973205
 20
-38.029653650919485
 30
0.0
 11
0.27125269270131735
 21
-1.6275509137050934
 31
0.0
 40
0.9999787026270884
 41
0.003955506848878798
 42
1.4056476588397295
  0
ELLIPSE
  5
E5
330
17
100
AcDbEntity
  8
visible
100
AcDbEllipse
 10
40.818896580124466
 20
-38.03030292641485
 30
0.0
 11
0.27125269270131735
 21
-1.6275509137050934
 31
0.0
 40
0.9999787026270884
 41
1.405647658839729
 42
3.137637146740194
  0
ELLIPSE
  5
E6
330
17
100
AcDbEntity
  8
visible
100
AcDbEllipse
 10
40.818896580124466
 20
-38.03030292641485
 30
0.0
 11
0.27125269270131735
 21
-1.6275509137050934
 31
0.0
 40
0.9999787026270884
 41
0.003955506849075974
 42
1.4056476588397295
  0
ELLIPSE
  5
E7
330
17
100
AcDbEntity
  8
visible
100
AcDbEllipse
 10
-53.179155571973205
 20
35.97030375478086
 30
0.0
 11
0.27125269270131735
 21
-1.6275509137050934
 31
0.0
 40
0.9999787026270884
 41
1.405647658839729
 42
3.137637146739954
  0
ELLIPSE
  5
E8
330
17
100
AcDbEntity
  8
visible
100
AcDbEllipse
 10
-53.179155571973205
 20
35.97030375478086
 30
0.0
 11
0.27125269270131735
 21
-1.6275509137050934
 31
0.0
 40
0.9999787026270884
 41
0.00395550684942414
 42
1.4056476588397295
  0
ELLIPSE
  5
E9
330
17
100
AcDbEntity
  8
visible
100
AcDbEllipse
 10
40.818896580124466
 20
35.969654479285495
 30
0.0
 11
0.27125269270131735
 21
-1.6275509137050934
 31
0.0
 40
0.9999787026270884
 41
1.405647658839729
 42
3.137637146740408
  0
ELLIPSE
  5
EA
330
17
100
AcDbEntity
  8
visible
100
AcDbEllipse
 10
40.818896580124466
 20
35.969654479285495
 30
0.0
 11
0.27125269270131735
 21
-1.6275509137050934
 31
0.0
 40
0.9999787026270884
 41
0.0039555068487615586
 42
1.4056476588397295
  0
ELLIPSE
  5
EB
330
17
100
AcDbEntity
  8
visible
100
AcDbEllipse
 10
-53.166280302190025
 20
-38.02750781844904
 30
0.0
 11
0.5260658282692215
 21
-3.156462378094727
 31
0.0
 40
0.9999787026270884
 41
1.405647658839729
 42
3.139553099274974
  0
ELLIPSE
  5
EC
330
17
100
AcDbEntity
  8
visible
100
AcDbEllipse
 10
-53.166280302190025
 20
-38.02750781844904
 30
0.0
 11
0.5260658282692215
 21
-3.156462378094727
 31
0.0
 40
0.9999787026270884
 41
0.0020395543147433415
 42
1.4056476588397295
  0
ELLIPSE
  5
ED
330
17
100
AcDbEntity
  8
visible
100
AcDbEllipse
 10
40.831771849907646
 20
-38.0281570939444
 30
0.0
 11
0.5260658282692215
 21
-3.156462378094727
 31
0.0
 40
0.9999787026270884
 41
1.405647658839729
 42
3.1395530992758562
  0
ELLIPSE
  5
EE
330
17
100
AcDbEntity
  8
visible
100
AcDbEllipse
 10
40.831771849907646
 20
-38.0281570939444
 30
0.0
 11
0.5260658282692215
 21
-3.156462378094727
 31
0.0
 40
0.9999787026270884
 41
0.0020395543156102036
 42
1.4056476588397295
  0
ELLIPSE
  5
EF
330
17
100
AcDbEntity
  8
visible
100
AcDbEllipse
 10
-53.166280302190025
 20
35.972449587251305
 30
0.0
 11
0.5260658282692215
 21
-3.156462378094727
 31
0.0
 40
0.9999787026270884
 41
1.405647658839729
 42
3.1395530992754486
  0
ELLIPSE
  5
F0
330
17
100
AcDbEntity
  8
visible
100
AcDbEllipse
 10
-53.166280302190025
 20
35.972449587251305
 30
0.0
 11
0.5260658282692215
 21
-3.156462378094727
 31
0.0
 40
0.9999787026270884
 41
0.002039554315269143
 42
1.4056476588397295
  0
ELLIPSE
  5
F1
330
17
100
AcDbEntity
  8
visible
100
AcDbEllipse
 10
40.831771849907646
 20
35.97180031175594
 30
0.0
 11
0.5260658282692215
 21
-3.156462378094727
 31
0.0
 40
0.9999787026270884
 41
1.405647658839729
 42
3.1395530992755254
  0
ELLIPSE
  5
F2
330
17
100
AcDbEntity
  8
visible
100
AcDbEllipse
 10
40.831771849907646
 20
35.97180031175594
 30
0.0
 11
0.5260658282692215
 21
-3.156462378094727
 31
0.0
 40
0.9999787026270884
 41
0.002039554315548031
 42
1.4056476588397295
  0
ELLIPSE
  5
F3
330
17
100
AcDbEntity
  8
visible
100
AcDbEllipse
 10
-53.166280302190025
 20
-38.02750781844904
 30
0.0
 11
0.27125269270131735
 21
-1.6275509137050934
 31
0.0
 40
0.9999787026270884
 41
1.405647658839729
 42
3.141592653589793
  0
ELLIPSE
  5
F4
330
17
100
AcDbEntity
  8
visible
100
AcDbEllipse
 10
-53.166280302190025
 20
-38.02750781844904
 30
0.0
 11
0.27125269270131735
 21
-1.6275509137050934
 31
0.0
 40
0.9999787026270884
 41
3.141592653589793
 42
6.283185307179586
  0
ELLIPSE
  5
F5
330
17
100
AcDbEntity
  8
visible
100
AcDbEllipse
 10
-53.166280302190025
 20
-38.02750781844904
 30
0.0
 11
0.27125269270131735
 21
-1.6275509137050934
 31
0.0
 40
0.9999787026270884
 41
0.0
 42
1.4056476588397295
  0
ELLIPSE
  5
F6
330
17
100
AcDbEntity
  8
visible
100
AcDbEllipse
 10
40.831771849907646
 20
-38.0281570939444
 30
0.0
 11
0.27125269270131735
 21
-1.6275509137050934
 31
0.0
 40
0.9999787026270884
 41
1.405647658839729
 42
3.141592653589793
  0
ELLIPSE
  5
F7
330
17
100
AcDbEntity
  8
visible
100
AcDbEllipse
 10
40.831771849907646
 20
-38.0281570939444
 30
0.0
 11
0.27125269270131735
 21
-1.6275509137050934
 31
0.0
 40
0.9999787026270884
 41
3.141592653589793
 42
6.283185307179586
  0
ELLIPSE
  5
F8
330
17
100
AcDbEntity
  8
visible
100
AcDbEllipse
 10
40.831771849907646
 20
-38.0281570939444
 30
0.0
 11
0.27125269270131735
 21
-1.6275509137050934
 31
0.0
 40
0.9999787026270884
 41
0.0
 42
1.4056476588397295
  0
ELLIPSE
  5
F9
330
17
100
AcDbEntity
  8
visible
100
AcDbEllipse
 10
-53.166280302190025
 20
35.972449587251305
 30
0.0
 11
0.27125269270131735
 21
-1.6275509137050934
 31
0.0
 40
0.9999787026270884
 41
1.405647658839729
 42
3.141592653589793
  0
ELLIPSE
  5
FA
330
17
100
AcDbEntity
  8
visible
100
AcDbEllipse
 10
-53.166280302190025
 20
35.972449587251305
 30
0.0
 11
0.27125269270131735
 21
-1.6275509137050934
 31
0.0
 40
0.9999787026270884
 41
3.141592653589793
 42
6.283185307179586
  0
ELLIPSE
  5
FB
330
17
100
AcDbEntity
  8
visible
100
AcDbEllipse
 10
-53.166280302190025
 20
35.972449587251305
 30
0.0
 11
0.27125269270131735
 21
-1.6275509137050934
 31
0.0
 40
0.9999787026270884
 41
0.0
 42
1.4056476588397295
  0
ELLIPSE
  5
FC
330
17
100
AcDbEntity
  8
visible
100
AcDbEllipse
 10
40.831771849907646
 20
35.97180031175594
 30
0.0
 11
0.27125269270131735
 21
-1.6275509137050934
 31
0.0
 40
0.9999787026270884
 41
1.405647658839729
 42
3.141592653589793
  0
ELLIPSE
  5
FD
330
17
100
AcDbEntity
  8
visible
100
AcDbEllipse
 10
40.831771849907646
 20
35.97180031175594
 30
0.0
 11
0.27125269270131735
 21
-1.6275509137050934
 31
0.0
 40
0.9999787026270884
 41
3.141592653589793
 42
6.283185307179586
  0
ELLIPSE
  5
FE
330
17
100
AcDbEntity
  8
visible
100
AcDbEllipse
 10
40.831771849907646
 20
35.97180031175594
 30
0.0
 11
0.27125269270131735
 21
-1.6275509137050934
 31
0.0
 40
0.9999787026270884
 41
0.0
 42
1.4056476588397295
  0
ELLIPSE
  5
FF
330
17
100
AcDbEntity
  8
visible
100
AcDbEllipse
 10
-6.086783789996345
 20
-1.014442300406219
 30
0.0
 11
5.589449425360479
 21
-33.53741276725647
 31
0.0
 40
0.9999787026270884
 41
3.141592653589793
 42
3.4952967149544407
  0
ELLIPSE
  5
100
330
17
100
AcDbEntity
  8
visible
100
AcDbEllipse
 10
-6.086783789996345
 20
-1.014442300406219
 30
0.0
 11
5.589449425360479
 21
-33.53741276725647
 31
0.0
 40
0.9999787026270884
 41
4.152165270197868
 42
4.942315354661177
  0
ELLIPSE
  5
101
330
17
100
AcDbEntity
  8
visible
100
AcDbEllipse
 10
-6.086783789996345
 20
-1.014442300406219
 30
0.0
 11
5.589449425360479
 21
-33.53741276725647
 31
0.0
 40
0.9999787026270884
 41
5.596517285514068
 42
6.283185307179586
  0
LINE
  5
102
330
17
100
AcDbEntity
  8
visible
100
AcDbLine
 10
25.76070113233217
 20
-13.014655374286733
 30
0.0
 11
31.069765928517697
 21
-13.014692045745306
 31
0.0
  0
LINE
  5
103
330
17
100
AcDbEntity
  8
visible
100
AcDbLine
 10
25.76313026015258
 20
10.991768558779565
 30
0.0
 11
31.06783319636287
 21
10.991731917449794
 31
0.0
  0
ELLIPSE
  5
104
330
17
100
AcDbEntity
  8
visible
100
AcDbEllipse
 10
-6.048157980646819
 20
-1.008004802994863
 30
0.0
 11
5.589449425360479
 21
-33.53741276725647
 31
0.0
 40
0.9999787026270884
 41
1.7663603792033014
 42
1.782617969752433
  0
ELLIPSE
  5
105
330
17
100
AcDbEntity
  8
visible
100
AcDbEllipse
 10
-6.048157980646819
 20
-1.008004802994863
 30
0.0
 11
5.589449425360479
 21
-33.53741276725647
 31
0.0
 40
0.9999787026270884
 41
2.4572095485247485
 42
3.141592653589793
  0
ELLIPSE
  5
106
330
17
100
AcDbEntity
  8
visible
100
AcDbEllipse
 10
-6.048157980646819
 20
-1.008004802994863
 30
0.0
 11
5.589449425360479
 21
-33.53741276725647
 31
0.0
 40
0.9999787026270884
 41
3.141592653589793
 42
3.4956784227445006
  0
ELLIPSE
  5
107
330
17
100
AcDbEntity
  8
visible
100
AcDbEllipse
 10
-6.048157980646819
 20
-1.008004802994863
 30
0.0
 11
5.589449425360479
 21
-33.53741276725647
 31
0.0
 40
0.9999787026270884
 41
4.155127584775263
 42
4.93935304008378
  0
ELLIPSE
  5
108
330
17
100
AcDbEntity
  8
visible
100
AcDbEllipse
 10
-6.048157980646819
 20
-1.008004802994863
 30
0.0
 11
5.589449425360479
 21
-33.53741276725647
 31
0.0
 40
0.9999787026270884
 41
5.596897473210774
 42
6.283185307179586
  0
ELLIPSE
  5
109
330
17
100
AcDbEntity
  8
visible
100
AcDbEllipse
 10
-6.048157980646819
 20
-1.008004802994863
 30
0.0
 11
5.589449425360479
 21
-33.53741276725647
 31
0.0
 40
0.9999787026270884
 41
0.0
 42
0.35599049805847827
  0
ELLIPSE
  5
10A
330
17
100
AcDbEntity
  8
visible
100
AcDbEllipse
 10
-6.048157980646819
 20
-1.008004802994863
 30
0.0
 11
5.589449425360479
 21
-33.53741276725647
 31
0.0
 40
0.9999787026270884
 41
1.028677347927026
 42
1.0449349384761568
  0
LINE
  5
10B
330
17
100
AcDbEntity
  8
visible
100
AcDbLine
 10
31.067189432873654
 20
-13.008361559806273
 30
0.0
 11
31.067833196362812
 21
-13.00825426818275
 31
0.0
  0
LINE
  5
10C
330
17
100
AcDbEntity
  8
visible
100
AcDbLine
 10
25.7631302601526
 20
-13.008217626852979
 30
0.0
 11
31.06783319636287
 21
-13.00825426818275
 31
0.0
  0
ELLIPSE
  5
10D
330
17
100
AcDbEntity
  8
visible
100
AcDbEllipse
 10
32.5503983949169
 20
10.391614726172804
 30
0.0
 11
-0.2630329141346108
 21
1.5782311890473635
 31
0.0
 40
0.9999787026270884
 41
-5.312099203697857
 42
-5.262006762931421
  0
ELLIPSE
  5
10E
330
17
100
AcDbEntity
  8
visible
100
AcDbEllipse
 10
33.350381817487936
 20
-12.408377675927007
 30
0.0
 11
-0.2630329141346108
 21
1.5782311890473635
 31
0.0
 40
0.9999787026270884
 41
-3.3067413215449606
 42
-3.1415926535897936
  0
LINE
  5
10F
330
17
100
AcDbEntity
  8
visible
100
AcDbLine
 10
32.55039839491689
 20
-14.00837122922028
 30
0.0
 11
33.350381817487936
 21
-14.008376754969177
 31
0.0
  0
ELLIPSE
  5
110
330
17
100
AcDbEntity
  8
visible
100
AcDbEllipse
 10
32.5503983949169
 20
-12.40837215017811
 30
0.0
 11
0.2630329141346108
 21
-1.5782311890473635
 31
0.0
 40
0.9999787026270884
 41
4.9316370869251624
 42
4.981801867787528
  0
ELLIPSE
  5
111
330
17
100
AcDbEntity
  8
visible
100
AcDbEllipse
 10
32.5503983949169
 20
-12.40837215017811
 30
0.0
 11
0.2630329141346108
 21
-1.5782311890473635
 31
0.0
 40
0.9999787026270884
 41
5.941792265417288
 42
6.118036639224419
  0
ELLIPSE
  5
112
330
17
100
AcDbEntity
  8
visible
100
AcDbEllipse
 10
32.55104215840606
 20
10.391722017796328
 30
0.0
 11
0.2630329141346108
 21
-1.5782311890473635
 31
0.0
 40
0.9999787026270884
 41
4.162843537933869
 42
4.547240312429523
  0
LINE
  5
113
330
17
100
AcDbEntity
  8
visible
100
AcDbLine
 10
30.951075313263964
 20
10.391733069294121
 30
0.0
 11
31.099140915770484
 21
10.416410142704319
 31
0.0
  0
LINE
  5
114
330
17
100
AcDbEntity
  8
visible
100
AcDbLine
 10
30.95107531326397
 20
-12.408253807056795
 30
0.0
 11
30.95107531326397
 21
-3.355148814185142
 31
0.0
  0
LINE
  5
115
330
17
100
AcDbEntity
  8
visible
100
AcDbLine
 10
30.95107531326397
 20
1.444851185929366
 30
0.0
 11
30.95107531326397
 21
10.39173306929412
 31
0.0
  0
ELLIPSE
  5
116
330
17
100
AcDbEntity
  8
visible
100
AcDbEllipse
 10
32.55104215840606
 20
-12.408264858554586
 30
0.0
 11
0.2630329141346108
 21
-1.5782311890473635
 31
0.0
 40
0.9999787026270884
 41
4.547240312429523
 42
4.931637086925175
  0
LINE
  5
117
330
17
100
AcDbEntity
  8
visible
100
AcDbLine
 10
30.951075313263964
 20
-12.408253807056793
 30
0.0
 11
31.099140915770484
 21
-12.383576733646596
 31
0.0
  0
LINE
  5
118
330
17
100
AcDbEntity
  8
visible
100
AcDbLine
 10
32.5503983949169
 20
-14.00837122922028
 30
0.0
 11
32.699107760912575
 21
-13.98358686418656
 31
0.0
  0
LINE
  5
119
330
17
100
AcDbEntity
  8
visible
100
AcDbLine
 10
31.09914091577049
 20
12.01640922174649
 30
0.0
 11
31.13132909022843
 21
12.02177380292262
 31
0.0
  0
LINE
  5
11A
330
17
100
AcDbEntity
  8
visible
100
AcDbLine
 10
31.131329090228427
 20
12.02177380292262
 30
0.0
 11
31.40170975567512
 21
12.02177193531434
 31
0.0
  0
LINE
  5
11B
330
17
100
AcDbEntity
  8
visible
100
AcDbLine
 10
31.40170975567512
 20
12.066836284802115
 30
0.0
 11
31.43389793013306
 21
12.072200865978244
 31
0.0
  0
LINE
  5
11C
330
17
100
AcDbEntity
  8
visible
100
AcDbLine
 10
31.433897930133057
 20
12.072200865978244
 30
0.0
 11
35.43381504298828
 21
12.072173237233761
 31
0.0
  0
LINE
  5
11D
330
17
100
AcDbEntity
  8
visible
100
AcDbLine
 10
35.09905802862571
 20
-13.983603441433248
 30
0.0
 11
35.131246203083656
 21
-13.978238860257118
 31
0.0
  0
LINE
  5
11E
330
17
100
AcDbEntity
  8
visible
100
AcDbLine
 10
35.13124620308365
 20
-13.978238860257118
 30
0.0
 11
35.13124620308365
 21
-13.933174510769344
 31
0.0
  0
LINE
  5
11F
330
17
100
AcDbEntity
  8
visible
100
AcDbLine
 10
35.40162686853034
 20
-13.933176378377624
 30
0.0
 11
35.433815042988286
 21
-13.927811797201494
 31
0.0
  0
LINE
  5
120
330
17
100
AcDbEntity
  8
visible
100
AcDbLine
 10
35.43381504298828
 20
-13.927811797201494
 30
0.0
 11
35.43381504298828
 21
12.072173237233761
 31
0.0
  0
LINE
  5
121
330
17
100
AcDbEntity
  8
visible
100
AcDbLine
 10
33.350381817487936
 20
-14.008376754969177
 30
0.0
 11
33.499091183483614
 21
-13.983592389935456
 31
0.0
  0
LINE
  5
122
330
17
100
AcDbEntity
  8
visible
100
AcDbLine
 10
31.09914091577049
 20
-13.983575812688764
 30
0.0
 11
32.69910776091258
 21
-13.983586864186558
 31
0.0
  0
LINE
  5
123
330
17
100
AcDbEntity
  8
visible
100
AcDbLine
 10
31.09914091577049
 20
-13.983575812688764
 30
0.0
 11
31.13132909022843
 21
-13.978211231512635
 31
0.0
  0
LINE
  5
124
330
17
100
AcDbEntity
  8
visible
100
AcDbLine
 10
31.131329090228427
 20
-13.978211231512635
 30
0.0
 11
32.73129593537052
 21
-13.978222283010428
 31
0.0
  0
LINE
  5
125
330
17
100
AcDbEntity
  8
visible
100
AcDbLine
 10
32.73129593537052
 20
-13.978222283010428
 30
0.0
 11
33.001676600817206
 21
-13.933159801130936
 31
0.0
  0
LINE
  5
126
330
17
100
AcDbEntity
  8
visible
100
AcDbLine
 10
31.40170975567512
 20
-13.93314874963314
 30
0.0
 11
33.00167660081721
 21
-13.933159801130934
 31
0.0
  0
LINE
  5
127
330
17
100
AcDbEntity
  8
visible
100
AcDbLine
 10
31.40170975567512
 20
-13.93314874963314
 30
0.0
 11
31.43389793013306
 21
-13.927784168457011
 31
0.0
  0
LINE
  5
128
330
17
100
AcDbEntity
  8
visible
100
AcDbLine
 10
31.433897930133057
 20
-13.927784168457011
 30
0.0
 11
35.43381504298828
 21
-13.927811797201494
 31
0.0
  0
LINE
  5
129
330
17
100
AcDbEntity
  8
visible
100
AcDbLine
 10
33.80166002338825
 20
-13.93316532687983
 30
0.0
 11
35.40162686853034
 21
-13.933176378377624
 31
0.0
  0
LINE
  5
12A
330
17
100
AcDbEntity
  8
visible
100
AcDbLine
 10
33.53127935794156
 20
-13.978227808759325
 30
0.0
 11
33.801660023388244
 21
-13.933165326879832
 31
0.0
  0
LINE
  5
12B
330
17
100
AcDbEntity
  8
visible
100
AcDbLine
 10
33.53127935794156
 20
-13.978227808759325
 30
0.0
 11
35.13124620308365
 21
-13.978238860257118
 31
0.0
  0
LINE
  5
12C
330
17
100
AcDbEntity
  8
visible
100
AcDbLine
 10
33.49909118348362
 20
-13.983592389935454
 30
0.0
 11
35.09905802862571
 21
-13.983603441433248
 31
0.0
  0
LINE
  5
12D
330
17
100
AcDbEntity
  8
visible
100
AcDbLine
 10
31.09914091577049
 20
-13.983575812688764
 30
0.0
 11
31.09914091577049
 21
-12.383576733646596
 31
0.0
  0
LINE
  5
12E
330
17
100
AcDbEntity
  8
visible
100
AcDbLine
 10
31.09914091577049
 20
10.41641014270432
 30
0.0
 11
31.09914091577049
 21
12.01640922174649
 31
0.0
  0
LINE
  5
12F
330
17
100
AcDbEntity
  8
visible
100
AcDbLine
 10
31.131329090228427
 20
-13.978211231512635
 30
0.0
 11
31.131329090228427
 21
-12.378212152470466
 31
0.0
  0
LINE
  5
130
330
17
100
AcDbEntity
  8
visible
100
AcDbLine
 10
31.131329090228427
 20
10.42177472388045
 30
0.0
 11
31.131329090228427
 21
12.02177380292262
 31
0.0
  0
LINE
  5
131
330
17
100
AcDbEntity
  8
visible
100
AcDbLine
 10
31.131329090228427
 20
-12.378212152470464
 30
0.0
 11
31.401709755675117
 21
-12.333149670590972
 31
0.0
  0
LINE
  5
132
330
17
100
AcDbEntity
  8
visible
100
AcDbLine
 10
31.131329090228427
 20
10.42177472388045
 30
0.0
 11
31.401709755675117
 21
10.466837205759942
 31
0.0
  0
LINE
  5
133
330
17
100
AcDbEntity
  8
visible
100
AcDbLine
 10
31.40170975567512
 20
-13.93314874963314
 30
0.0
 11
31.40170975567512
 21
-12.333149670590972
 31
0.0
  0
LINE
  5
134
330
17
100
AcDbEntity
  8
visible
100
AcDbLine
 10
31.40170975567512
 20
10.466837205759944
 30
0.0
 11
31.40170975567512
 21
12.066836284802115
 31
0.0
  0
LINE
  5
135
330
17
100
AcDbEntity
  8
visible
100
AcDbLine
 10
31.433897930133057
 20
-13.927784168457011
 30
0.0
 11
31.433897930133057
 21
12.072200865978244
 31
0.0
  0
ELLIPSE
  5
136
330
17
100
AcDbEntity
  8
visible
100
AcDbEllipse
 10
31.115235002999455
 20
8.01909381472913
 30
0.0
 11
-6.216596327620086e-06
 21
-0.8999999999785301
 31
0.0
 40
0.006437631186093749
 41
-3.141592653589793
 42
-1.569723365886959
  0
ELLIPSE
  5
137
330
17
100
AcDbEntity
  8
visible
100
AcDbEllipse
 10
31.115235002999455
 20
8.01909381472913
 30
0.0
 11
-6.216596327620086e-06
 21
-0.8999999999785301
 31
0.0
 40
0.006437631186093749
 41
-6.283185307179586
 42
-3.141592653589793
  0
ELLIPSE
  5
138
330
17
100
AcDbEntity
  8
visible
100
AcDbEllipse
 10
31.115235002999455
 20
8.01909381472913
 30
0.0
 11
-6.216596327620086e-06
 21
-0.8999999999785301
 31
0.0
 40
0.006437631186093749
 41
-1.5697233658869587
 42
-0.0
  0
ELLIPSE
  5
139
330
17
100
AcDbEntity
  8
visible
100
AcDbEllipse
 10
31.417803842904092
 20
8.069520877784754
 30
0.0
 11
-6.216596327620086e-06
 21
-0.8999999999785301
 31
0.0
 40
0.006437631186093749
 41
-3.141592653589793
 42
-1.569723365886959
  0
ELLIPSE
  5
13A
330
17
100
AcDbEntity
  8
visible
100
AcDbEllipse
 10
31.417803842904092
 20
8.069520877784754
 30
0.0
 11
-6.216596327620086e-06
 21
-0.8999999999785301
 31
0.0
 40
0.006437631186093749
 41
-6.283185307179586
 42
-3.141592653589793
  0
ELLIPSE
  5
13B
330
17
100
AcDbEntity
  8
visible
100
AcDbEllipse
 10
31.417803842904092
 20
8.069520877784754
 30
0.0
 11
-6.216596327620086e-06
 21
-0.8999999999785301
 31
0.0
 40
0.006437631186093749
 41
-1.5697233658869587
 42
-0.0
  0
ELLIPSE
  5
13C
330
17
100
AcDbEntity
  8
visible
100
AcDbEllipse
 10
31.115235002999455
 20
-9.980895824495276
 30
0.0
 11
-6.216596327620086e-06
 21
-0.8999999999785301
 31
0.0
 40
0.006437631186093749
 41
-3.141592653589793
 42
-1.569723365886959
  0
ELLIPSE
  5
13D
330
17
100
AcDbEntity
  8
visible
100
AcDbEllipse
 10
31.115235002999455
 20
-9.980895824495276
 30
0.0
 11
-6.216596327620086e-06
 21
-0.8999999999785301
 31
0.0
 40
0.006437631186093749
 41
-6.283185307179586
 42
-3.141592653589793
  0
ELLIPSE
  5
13E
330
17
100
AcDbEntity
  8
visible
100
AcDbEllipse
 10
31.115235002999455
 20
-9.980895824495276
 30
0.0
 11
-6.216596327620086e-06
 21
-0.8999999999785301
 31
0.0
 40
0.006437631186093749
 41
-1.5697233658869587
 42
-0.0
  0
LINE
  5
13F
330
17
100
AcDbEntity
  8
visible
100
AcDbLine
 10
31.22564044139019
 20
5.487495795939797
 30
0.0
 11
31.22564044139019
 21
1.4448492894176237
 31
0.0
  0
LINE
  5
140
330
17
100
AcDbEntity
  8
visible
100
AcDbLine
 10
31.22564044139019
 20
-3.3551507106968836
 30
0.0
 11
31.22564044139019
 21
-7.41249677883769
 31
0.0
  0
LINE
  5
141
330
17
100
AcDbEntity
  8
visible
100
AcDbLine
 10
31.225640441390194
 20
5.487495795939801
 30
0.0
 11
31.378212388320826
 21
5.512923910714658
 31
0.0
  0
LINE
  5
142
330
17
100
AcDbEntity
  8
visible
100
AcDbLine
 10
31.225640441390194
 20
-7.412496778837689
 30
0.0
 11
31.378212388320826
 21
-7.3870686640628325
 31
0.0
  0
LINE
  5
143
330
17
100
AcDbEntity
  8
visible
100
AcDbLine
 10
31.378212388320826
 20
5.512923910714655
 30
0.0
 11
31.378212388320826
 21
-7.3870686640628325
 31
0.0
  0
ELLIPSE
  5
144
330
17
100
AcDbEntity
  8
visible
100
AcDbEllipse
 10
31.39205330333774
 20
-0.9347656067683516
 30
0.0
 11
-7.943428640847888e-06
 21
-1.149999999972566
 31
0.0
 40
0.006437631186093749
 41
-3.141592653589793
 42
-1.569723365886959
  0
ELLIPSE
  5
145
330
17
100
AcDbEntity
  8
visible
100
AcDbEllipse
 10
31.39205330333774
 20
-0.9347656067683516
 30
0.0
 11
-7.943428640847888e-06
 21
-1.149999999972566
 31
0.0
 40
0.006437631186093749
 41
-6.283185307179586
 42
-3.141592653589793
  0
ELLIPSE
  5
146
330
17
100
AcDbEntity
  8
visible
100
AcDbEllipse
 10
31.39205330333774
 20
-0.9347656067683516
 30
0.0
 11
-7.943428640847888e-06
 21
-1.149999999972566
 31
0.0
 40
0.006437631186093749
 41
-1.5697233658869587
 42
-0.0
  0
ELLIPSE
  5
147
330
17
100
AcDbEntity
  8
visible
100
AcDbEllipse
 10
31.417803842904092
 20
-9.930468761439652
 30
0.0
 11
-6.216596327620086e-06
 21
-0.8999999999785301
 31
0.0
 40
0.006437631186093749
 41
-3.141592653589793
 42
-1.569723365886959
  0
ELLIPSE
  5
148
330
17
100
AcDbEntity
  8
visible
100
AcDbEllipse
 10
31.417803842904092
 20
-9.930468761439652
 30
0.0
 11
-6.216596327620086e-06
 21
-0.8999999999785301
 31
0.0
 40
0.006437631186093749
 41
-6.283185307179586
 42
-3.141592653589793
  0
ELLIPSE
  5
149
330
17
100
AcDbEntity
  8
visible
100
AcDbEllipse
 10
31.417803842904092
 20
-9.930468761439652
 30
0.0
 11
-6.216596327620086e-06
 21
-0.8999999999785301
 31
0.0
 40
0.006437631186093749
 41
-1.5697233658869587
 42
-0.0
  0
ELLIPSE
  5
14A
330
17
100
AcDbEntity
  8
visible
100
AcDbEllipse
 10
32.73129593537052
 20
10.421763672382657
 30
0.0
 11
0.2630329141346108
 21
-1.5782311890473635
 31
0.0
 40
0.9999787026270884
 41
3.9573623723491367
 42
4.547240312429523
  0
ELLIPSE
  5
14B
330
17
100
AcDbEntity
  8
visible
100
AcDbEllipse
 10
33.53127935794156
 20
-12.378228729717154
 30
0.0
 11
0.2630329141346108
 21
-1.5782311890473635
 31
0.0
 40
0.9999787026270884
 41
6.118036639224419
 42
6.283185307179586
  0
LINE
  5
14C
330
17
100
AcDbEntity
  8
visible
100
AcDbLine
 10
31.225640441390194
 20
5.487495795939801
 30
0.0
 11
31.378212388320826
 21
5.487494742075129
 31
0.0
  0
ELLIPSE
  5
14D
330
17
100
AcDbEntity
  8
visible
100
AcDbEllipse
 10
32.73129593537052
 20
-12.378223203968258
 30
0.0
 11
0.2630329141346108
 21
-1.5782311890473635
 31
0.0
 40
0.9999787026270884
 41
4.547240312429523
 42
5.137118252509913
  0
ELLIPSE
  5
14E
330
17
100
AcDbEntity
  8
visible
100
AcDbEllipse
 10
32.73129593537052
 20
-12.378223203968258
 30
0.0
 11
0.2630329141346108
 21
-1.5782311890473635
 31
0.0
 40
0.9999787026270884
 41
5.880135608756646
 42
6.118036639224419
  0
LINE
  5
14F
330
17
100
AcDbEntity
  8
visible
100
AcDbLine
 10
35.43703386043408
 20
-11.92727649028117
 30
0.0
 11
35.43703386043408
 21
10.072710846548663
 31
0.0
  0
ELLIPSE
  5
150
330
17
100
AcDbEntity
  8
visible
100
AcDbEllipse
 10
37.43699241686169
 20
-11.92729030465341
 30
0.0
 11
0.3287911426682635
 21
-1.9727889863092043
 31
0.0
 40
0.9999787026270884
 41
4.547240312429523
 42
6.118036639224419
  0
ELLIPSE
  5
151
330
17
100
AcDbEntity
  8
visible
100
AcDbEllipse
 10
37.43699241686169
 20
10.07269703217642
 30
0.0
 11
-0.3287911426682635
 21
1.9727889863092043
 31
0.0
 40
0.9999787026270884
 41
-6.283185307179586
 42
-4.877537648339857
  0
ELLIPSE
  5
152
330
17
100
AcDbEntity
  8
visible
100
AcDbEllipse
 10
37.43699241686169
 20
10.07269703217642
 30
0.0
 11
-0.3287911426682635
 21
1.9727889863092043
 31
0.0
 40
0.9999787026270884
 41
-0.16514866795516747
 42
-0.0
  0
LINE
  5
153
330
17
100
AcDbEntity
  8
visible
100
AcDbLine
 10
37.436992416861685
 20
-13.927289153456123
 30
0.0
 11
58.436557259351595
 21
-13.92743420436466
 31
0.0
  0
LINE
  5
154
330
17
100
AcDbEntity
  8
visible
100
AcDbLine
 10
37.436992416861685
 20
12.072695880979133
 30
0.0
 11
58.436557259351595
 21
12.072550830070595
 31
0.0
  0
ELLIPSE
  5
155
330
17
100
AcDbEntity
  8
visible
100
AcDbEllipse
 10
58.436557259351595
 20
-11.927435355561947
 30
0.0
 11
-0.3287911426682635
 21
1.9727889863092043
 31
0.0
 40
0.9999787026270884
 41
-3.1415926535897936
 42
-1.735944994750064
  0
ELLIPSE
  5
156
330
17
100
AcDbEntity
  8
visible
100
AcDbEllipse
 10
58.436557259351595
 20
-11.927435355561947
 30
0.0
 11
-0.3287911426682635
 21
1.9727889863092043
 31
0.0
 40
0.9999787026270884
 41
-3.3067413215449606
 42
-3.1415926535897936
  0
ELLIPSE
  5
157
330
17
100
AcDbEntity
  8
visible
100
AcDbEllipse
 10
58.436557259351595
 20
10.072551981267882
 30
0.0
 11
0.3287911426682635
 21
-1.9727889863092043
 31
0.0
 40
0.9999787026270884
 41
1.405647658839729
 42
2.9764439856346256
  0
LINE
  5
158
330
17
100
AcDbEntity
  8
visible
100
AcDbLine
 10
60.43651581577921
 20
-11.92744916993419
 30
0.0
 11
60.43651581577921
 21
10.072538166895642
 31
0.0
  0
ELLIPSE
  5
159
330
17
100
AcDbEntity
  8
visible
100
AcDbEllipse
 10
37.09579776760753
 20
-11.98415486512039
 30
0.0
 11
0.3287911426682635
 21
-1.9727889863092043
 31
0.0
 40
0.9999787026270884
 41
5.137118252509904
 42
6.118036639224419
  0
ELLIPSE
  5
15A
330
17
100
AcDbEntity
  8
visible
100
AcDbEllipse
 10
37.09579776760753
 20
10.01583247170944
 30
0.0
 11
-0.3287911426682635
 21
1.9727889863092043
 31
0.0
 40
0.9999787026270884
 41
-6.283185307179586
 42
-5.467415588420238
  0
LINE
  5
15B
330
17
100
AcDbEntity
  8
visible
100
AcDbLine
 10
37.09579776760752
 20
-13.984153713923103
 30
0.0
 11
58.09536261009743
 21
-13.98429876483164
 31
0.0
  0
ELLIPSE
  5
15C
330
17
100
AcDbEntity
  8
visible
100
AcDbEllipse
 10
58.09536261009743
 20
-11.984299916028927
 30
0.0
 11
-0.3287911426682635
 21
1.9727889863092043
 31
0.0
 40
0.9999787026270884
 41
-3.3067413215449606
 42
-3.1415926535897936
  0
LINE
  5
15D
330
17
100
AcDbEntity
  8
visible
100
AcDbLine
 10
-37.43484663377889
 20
-27.488995939151533
 30
0.0
 11
-37.43484663377889
 21
25.510973554120334
 31
0.0
  0
LINE
  5
15E
330
17
100
AcDbEntity
  8
visible
100
AcDbLine
 10
-37.467034808236825
 20
-27.49436052032766
 30
0.0
 11
-37.467034808236825
 21
25.505608972944206
 31
0.0
  0
ELLIPSE
  5
15F
330
17
100
AcDbEntity
  8
visible
100
AcDbEllipse
 10
-34.434908799137474
 20
25.51095283256197
 30
0.0
 11
-0.4931867140023952
 21
2.9591834794638063
 31
0.0
 40
0.9999787026270884
 41
-6.283185307179586
 42
-4.877537648339857
  0
ELLIPSE
  5
160
330
17
100
AcDbEntity
  8
visible
100
AcDbEllipse
 10
-34.434908799137474
 20
25.51095283256197
 30
0.0
 11
-0.4931867140023952
 21
2.9591834794638063
 31
0.0
 40
0.9999787026270884
 41
-0.16514866795516747
 42
-0.0
  0
LINE
  5
161
330
17
100
AcDbEntity
  8
visible
100
AcDbLine
 10
-34.434908799137474
 20
28.510951105766033
 30
0.0
 11
22.56391005904942
 21
28.510557396157143
 31
0.0
  0
ELLIPSE
  5
162
330
17
100
AcDbEntity
  8
visible
100
AcDbEllipse
 10
22.563910059049412
 20
25.510559122953076
 30
0.0
 11
0.4931867140023952
 21
-2.9591834794638063
 31
0.0
 40
0.9999787026270884
 41
1.405647658839729
 42
2.9764439856346256
  0
LINE
  5
163
330
17
100
AcDbEntity
  8
visible
100
AcDbLine
 10
25.563847893690827
 20
6.048103250141423
 30
0.0
 11
25.563847893690827
 21
25.51053840139472
 31
0.0
  0
LINE
  5
164
330
17
100
AcDbEntity
  8
visible
100
AcDbLine
 10
25.56384789369083
 20
-7.989442316050705
 30
0.0
 11
21.89233304745137
 21
-7.989416955688805
 31
0.0
  0
LINE
  5
165
330
17
100
AcDbEntity
  8
visible
100
AcDbLine
 10
25.563847893690827
 20
-27.489431091877147
 30
0.0
 11
25.563847893690827
 21
-7.989442316050706
 31
0.0
  0
ELLIPSE
  5
166
330
17
100
AcDbEntity
  8
visible
100
AcDbEllipse
 10
22.563910059049412
 20
-27.489410370318787
 30
0.0
 11
-0.4931867140023952
 21
2.9591834794638063
 31
0.0
 40
0.9999787026270884
 41
-3.1415926535897936
 42
-1.735944994750064
  0
ELLIPSE
  5
167
330
17
100
AcDbEntity
  8
visible
100
AcDbEllipse
 10
22.563910059049412
 20
-27.489410370318787
 30
0.0
 11
-0.4931867140023952
 21
2.9591834794638063
 31
0.0
 40
0.9999787026270884
 41
-3.3067413215449606
 42
-3.1415926535897936
  0
LINE
  5
168
330
17
100
AcDbEntity
  8
visible
100
AcDbLine
 10
-34.434908799137474
 20
-30.489014933913964
 30
0.0
 11
22.56391005904942
 21
-30.489408643522854
 31
0.0
  0
ELLIPSE
  5
169
330
17
100
AcDbEntity
  8
visible
100
AcDbEllipse
 10
-34.434908799137474
 20
-27.489016660709893
 30
0.0
 11
0.4931867140023952
 21
-2.9591834794638063
 31
0.0
 40
0.9999787026270884
 41
4.547240312429523
 42
6.118036639224419
  0
ELLIPSE
  5
16A
330
17
100
AcDbEntity
  8
visible
100
AcDbEllipse
 10
-34.46709697359541
 20
-27.49438124188602
 30
0.0
 11
0.4931867140023952
 21
-2.9591834794638063
 31
0.0
 40
0.9999787026270884
 41
4.547240312429523
 42
6.118036639224419
  0
ELLIPSE
  5
16B
330
17
100
AcDbEntity
  8
visible
100
AcDbEllipse
 10
-34.46709697359541
 20
25.50558825138584
 30
0.0
 11
-0.4931867140023952
 21
2.9591834794638063
 31
0.0
 40
0.9999787026270884
 41
-6.283185307179586
 42
-4.877537648339857
  0
LINE
  5
16C
330
17
100
AcDbEntity
  8
visible
100
AcDbLine
 10
-34.46709697359541
 20
-30.494379515090092
 30
0.0
 11
22.531721884591484
 21
-30.49477322469898
 31
0.0
  0
ELLIPSE
  5
16D
330
17
100
AcDbEntity
  8
visible
100
AcDbEllipse
 10
22.531721884591477
 20
-27.494774951494914
 30
0.0
 11
-0.4931867140023952
 21
2.9591834794638063
 31
0.0
 40
0.9999787026270884
 41
-3.3067413215449606
 42
-3.1415926535897936
  0
ELLIPSE
  5
16E
330
17
100
AcDbEntity
  8
visible
100
AcDbEllipse
 10
16.61553546889929
 20
6.019195120125173
 30
0.0
 11
8.0
 21
-1.1431563236136333e-17
 31
0.0
 40
0.0010729384684273592
 41
-0.8505102790585578
 42
-0.006437679358387734
  0
LINE
  5
16F
330
17
100
AcDbEntity
  8
visible
100
AcDbLine
 10
24.615369694609726
 20
6.019139862636206
 30
0.0
 11
24.7891858366826
 21
6.048108600987309
 31
0.0
  0
LINE
  5
170
330
17
100
AcDbEntity
  8
visible
100
AcDbLine
 10
24.7891858366826
 20
6.04810860098731
 30
0.0
 11
30.289071866858528
 21
6.048070611463645
 31
0.0
  0
ELLIPSE
  5
171
330
17
100
AcDbEntity
  8
visible
100
AcDbEllipse
 10
16.61553546889929
 20
-7.9807968214938105
 30
0.0
 11
8.0
 21
-1.1431563236136333e-17
 31
0.0
 40
0.0010729384684273592
 41
-0.8505102790585578
 42
-0.006437679358387734
  0
LINE
  5
172
330
17
100
AcDbEntity
  8
visible
100
AcDbLine
 10
24.7891858366826
 20
-7.951883340631674
 30
0.0
 11
24.615369694609726
 21
-7.980852078982776
 31
0.0
  0
LINE
  5
173
330
17
100
AcDbEntity
  8
visible
100
AcDbLine
 10
24.7891858366826
 20
-7.951883340631674
 30
0.0
 11
30.289071866858528
 21
-7.951921330155338
 31
0.0
  0
LINE
  5
174
330
17
100
AcDbEntity
  8
visible
100
AcDbLine
 10
30.250446057509002
 20
-7.958358827566695
 30
0.0
 11
30.289071866858528
 21
-7.951921330155338
 31
0.0
  0
LINE
  5
175
330
17
100
AcDbEntity
  8
visible
100
AcDbLine
 10
29.7504564184021
 20
-7.958355373973634
 30
0.0
 11
30.250446057509002
 21
-7.958358827566695
 31
0.0
  0
LINE
  5
176
330
17
100
AcDbEntity
  8
visible
100
AcDbLine
 10
29.612047268232956
 20
-7.981423073030994
 30
0.0
 11
29.750456418402095
 21
-7.958355373973634
 31
0.0
  0
LINE
  5
177
330
17
100
AcDbEntity
  8
visible
100
AcDbLine
 10
29.602428524321198
 20
-7.981423006591163
 30
0.0
 11
29.61204726823296
 21
-7.981423073030994
 31
0.0
  0
ELLIPSE
  5
178
330
17
100
AcDbEntity
  8
visible
100
AcDbEllipse
 10
16.61553546889929
 20
-7.9807968214938105
 30
0.0
 11
13.0
 21
-1.857629025872154e-17
 31
0.0
 40
0.0010729384684273592
 41
-0.8116096036601347
 42
-0.04490870676574235
  0
LINE
  5
179
330
17
100
AcDbEntity
  8
visible
100
AcDbLine
 10
24.615369694609726
 20
-7.980852078982778
 30
0.0
 11
24.615369694609726
 21
-5.967441221403942
 31
0.0
  0
LINE
  5
17A
330
17
100
AcDbEntity
  8
visible
100
AcDbLine
 10
24.615369694609726
 20
4.057231118757683
 30
0.0
 11
24.615369694609726
 21
6.019139862636205
 31
0.0
  0
LINE
  5
17B
330
17
100
AcDbEntity
  8
visible
100
AcDbLine
 10
24.7891858366826
 20
-7.951883340631674
 30
0.0
 11
24.7891858366826
 21
-5.950275050775827
 31
0.0
  0
LINE
  5
17C
330
17
100
AcDbEntity
  8
visible
100
AcDbLine
 10
24.7891858366826
 20
4.05722991815236
 30
0.0
 11
24.7891858366826
 21
6.04810860098731
 31
0.0
  0
LINE
  5
17D
330
17
100
AcDbEntity
  8
visible
100
AcDbLine
 10
24.74090357499569
 20
-5.950274717274349
 30
0.0
 11
24.74090357499569
 21
-5.9599313635931574
 31
0.0
  0
LINE
  5
17E
330
17
100
AcDbEntity
  8
visible
100
AcDbLine
 10
24.695840130754572
 20
-5.967441777239739
 30
0.0
 11
24.740903574995688
 21
-5.959931363593157
 31
0.0
  0
LINE
  5
17F
330
17
100
AcDbEntity
  8
visible
100
AcDbLine
 10
30.289071866858528
 20
4.244224072462423
 30
0.0
 11
30.289071866858528
 21
6.048070611463645
 31
0.0
  0
LINE
  5
180
330
17
100
AcDbEntity
  8
visible
100
AcDbLine
 10
25.289175475789506
 20
4.244258608393101
 30
0.0
 11
30.28907186685853
 21
4.2442240724624964
 31
0.0
  0
LINE
  5
181
330
17
100
AcDbEntity
  8
visible
100
AcDbLine
 10
25.289175475789506
 20
-6.148040255223584
 30
0.0
 11
25.289175475789506
 21
-5.950278504368888
 31
0.0
  0
LINE
  5
182
330
17
100
AcDbEntity
  8
visible
100
AcDbLine
 10
25.289175475789506
 20
4.057226464559301
 30
0.0
 11
25.289175475789506
 21
4.2442586083931
 31
0.0
  0
LINE
  5
183
330
17
100
AcDbEntity
  8
visible
100
AcDbLine
 10
25.289175475789506
 20
-6.148040255223585
 30
0.0
 11
30.28907186685853
 21
-6.1480747911541895
 31
0.0
  0
LINE
  5
184
330
17
100
AcDbEntity
  8
visible
100
AcDbLine
 10
30.289071866858528
 20
-7.951921330155338
 30
0.0
 11
30.289071866858528
 21
-6.1480747911541185
 31
0.0
  0
ELLIPSE
  5
185
330
17
100
AcDbEntity
  8
visible
100
AcDbEllipse
 10
30.269758962183765
 20
-0.9551441080515255
 30
0.0
 11
-4.1443975517467244e-05
 21
-5.999999999856867
 31
0.0
 40
0.006437631186093748
 41
-5.758513570673336
 42
-3.6641184682801686
  0
LINE
  5
186
330
17
100
AcDbEntity
  8
visible
100
AcDbLine
 10
24.195850491647676
 20
-5.967438323646679
 30
0.0
 11
24.69584013075458
 21
-5.967441777239739
 31
0.0
  0
LINE
  5
187
330
17
100
AcDbEntity
  8
visible
100
AcDbLine
 10
24.195850491647676
 20
-5.967438323646679
 30
0.0
 11
24.195850491647676
 21
4.03255592036688
 31
0.0
  0
LINE
  5
188
330
17
100
AcDbEntity
  8
visible
100
AcDbLine
 10
24.240913935888784
 20
4.040066334013463
 30
0.0
 11
24.298852649913076
 21
4.040065933811689
 31
0.0
  0
LINE
  5
189
330
17
100
AcDbEntity
  8
visible
100
AcDbLine
 10
24.195850491647676
 20
4.03255592036688
 30
0.0
 11
24.24091393588879
 21
4.040066334013463
 31
0.0
  0
LINE
  5
18A
330
17
100
AcDbEntity
  8
visible
100
AcDbLine
 10
24.240913935888784
 20
-5.959927910000096
 30
0.0
 11
24.740903574995688
 21
-5.959931363593157
 31
0.0
  0
LINE
  5
18B
330
17
100
AcDbEntity
  8
visible
100
AcDbLine
 10
24.240913935888784
 20
-5.959927910000096
 30
0.0
 11
24.240913935888784
 21
4.040066334013463
 31
0.0
  0
LINE
  5
18C
330
17
100
AcDbEntity
  8
visible
100
AcDbLine
 10
24.195850491647676
 20
-5.967438323646679
 30
0.0
 11
24.24091393588879
 21
-5.959927910000096
 31
0.0
  0
ELLIPSE
  5
18D
330
17
100
AcDbEntity
  8
visible
100
AcDbEllipse
 10
25.269862571114743
 20
-0.9551095721209212
 30
0.0
 11
-4.1443975517467244e-05
 21
-5.999999999856867
 31
0.0
 40
0.006437631186093748
 41
-5.758513570673349
 42
-5.696044697131029
  0
LINE
  5
18E
330
17
100
AcDbEntity
  8
visible
100
AcDbLine
 10
28.343833207009407
 20
-4.6500607104016085
 30
0.0
 11
29.700178574017603
 21
-4.650070079125639
 31
0.0
  0
ELLIPSE
  5
18F
330
17
100
AcDbEntity
  8
visible
100
AcDbEllipse
 10
29.66977139525548
 20
-0.955139963739853
 30
0.0
 11
-4.1443975517467244e-05
 21
-5.999999999856867
 31
0.0
 40
0.006437631186093748
 41
-5.375817377979594
 42
-4.04681466097391
  0
LINE
  5
190
330
17
100
AcDbEntity
  8
visible
100
AcDbLine
 10
28.300207584518276
 20
2.7499353315049646
 30
0.0
 11
29.700178574017603
 21
2.7499256614443954
 31
0.0
  0
ELLIPSE
  5
191
330
17
100
AcDbEntity
  8
visible
100
AcDbEllipse
 10
25.269862571114743
 20
-0.9551095721209212
 30
0.0
 11
-4.1443975517467244e-05
 21
-5.999999999856867
 31
0.0
 40
0.006437631186093748
 41
-3.723548206025555
 42
-3.6641184682801544
  0
ELLIPSE
  5
192
330
17
100
AcDbEntity
  8
visible
100
AcDbEllipse
 10
29.66977139525548
 20
-0.955139963739853
 30
0.0
 11
-1.726832313227802e-05
 21
-2.4999999999403615
 31
0.0
 40
0.006437631186093749
 41
-3.141592653589793
 42
-2.8577985443814655
  0
ELLIPSE
  5
193
330
17
100
AcDbEntity
  8
visible
100
AcDbEllipse
 10
29.66977139525548
 20
-0.955139963739853
 30
0.0
 11
-1.726832313227802e-05
 21
-2.4999999999403615
 31
0.0
 40
0.006437631186093749
 41
-6.283185307179586
 42
-3.141592653589793
  0
ELLIPSE
  5
194
330
17
100
AcDbEntity
  8
visible
100
AcDbEllipse
 10
29.66977139525548
 20
-0.955139963739853
 30
0.0
 11
-1.726832313227802e-05
 21
-2.4999999999403615
 31
0.0
 40
0.006437631186093749
 41
-0.28379410920832626
 42
-0.0
  0
ELLIPSE
  5
195
330
17
100
AcDbEntity
  8
visible
100
AcDbEllipse
 10
24.21838221376823
 20
-0.9636859948166085
 30
0.0
 11
-7.598062178202329e-06
 21
-1.099999999973759
 31
0.0
 40
0.006437631186093749
 41
-3.141592653589793
 42
-1.569723365886959
  0
ELLIPSE
  5
196
330
17
100
AcDbEntity
  8
visible
100
AcDbEllipse
 10
24.21838221376823
 20
-0.9636859948166085
 30
0.0
 11
-7.598062178202329e-06
 21
-1.099999999973759
 31
0.0
 40
0.006437631186093749
 41
-6.283185307179586
 42
-3.141592653589793
  0
ELLIPSE
  5
197
330
17
100
AcDbEntity
  8
visible
100
AcDbEllipse
 10
24.21838221376823
 20
-0.9636859948166085
 30
0.0
 11
-7.598062178202329e-06
 21
-1.099999999973759
 31
0.0
 40
0.006437631186093749
 41
-1.5697233658869587
 42
-0.0
  0
LINE
  5
198
330
17
100
AcDbEntity
  8
visible
100
AcDbLine
 10
27.34385392879561
 20
-4.64278272007308
 30
0.0
 11
27.34385392879561
 21
2.7572130204969563
 31
0.0
  0
LINE
  5
199
330
17
100
AcDbEntity
  8
visible
100
AcDbLine
 10
24.29885264991308
 20
-5.950271663883062
 30
0.0
 11
28.298769762768302
 21
-5.9502992926275455
 31
0.0
  0
LINE
  5
19A
330
17
100
AcDbEntity
  8
visible
100
AcDbLine
 10
24.29885264991308
 20
-5.950271663883062
 30
0.0
 11
24.29885264991308
 21
4.049722580130497
 31
0.0
  0
LINE
  5
19B
330
17
100
AcDbEntity
  8
visible
100
AcDbLine
 10
28.34383320700941
 20
-5.942788878980963
 30
0.0
 11
28.34383320700941
 21
-4.642789627259201
 31
0.0
  0
LINE
  5
19C
330
17
100
AcDbEntity
  8
visible
100
AcDbLine
 10
28.298769762768302
 20
-5.9502992926275455
 30
0.0
 11
28.343833207009418
 21
-5.942788878980963
 31
0.0
  0
LINE
  5
19D
330
17
100
AcDbEntity
  8
visible
100
AcDbLine
 10
28.343833207009414
 20
-4.6427896272592015
 30
0.0
 11
27.34385392879561
 21
-4.642782720073081
 31
0.0
  0
LINE
  5
19E
330
17
100
AcDbEntity
  8
visible
100
AcDbLine
 10
29.591232249578113
 20
2.7317683284754066
 30
0.0
 11
29.70017857401761
 21
2.7499256614443954
 31
0.0
  0
LINE
  5
19F
330
17
100
AcDbEntity
  8
visible
100
AcDbLine
 10
29.591232249578113
 20
-4.650069326597505
 30
0.0
 11
29.591232249578113
 21
-3.3551394213013683
 31
0.0
  0
LINE
  5
1A0
330
17
100
AcDbEntity
  8
visible
100
AcDbLine
 10
29.591232249578113
 20
1.44486057881314
 30
0.0
 11
29.591232249578113
 21
2.7317683284754066
 31
0.0
  0
LINE
  5
1A1
330
17
100
AcDbEntity
  8
visible
100
AcDbLine
 10
28.300207584518276
 20
2.7499353315049637
 30
0.0
 11
28.343833207009414
 21
2.7572061133108328
 31
0.0
  0
LINE
  5
1A2
330
17
100
AcDbEntity
  8
visible
100
AcDbLine
 10
28.343833207009414
 20
2.7572061133108328
 30
0.0
 11
27.34385392879561
 21
2.7572130204969536
 31
0.0
  0
LINE
  5
1A3
330
17
100
AcDbEntity
  8
visible
100
AcDbLine
 10
27.34385392879561
 20
2.7317838518574242
 30
0.0
 11
29.591232249578113
 21
2.7317683284754066
 31
0.0
  0
LINE
  5
1A4
330
17
100
AcDbEntity
  8
visible
100
AcDbLine
 10
28.34383320700941
 20
2.7572061133108328
 30
0.0
 11
28.34383320700941
 21
4.057205365032596
 31
0.0
  0
LINE
  5
1A5
330
17
100
AcDbEntity
  8
visible
100
AcDbLine
 10
24.343916094154196
 20
4.057232993777079
 30
0.0
 11
28.343833207009418
 21
4.057205365032596
 31
0.0
  0
LINE
  5
1A6
330
17
100
AcDbEntity
  8
visible
100
AcDbLine
 10
24.343916094154196
 20
-5.9427612502364795
 30
0.0
 11
28.343833207009418
 21
-5.942788878980963
 31
0.0
  0
LINE
  5
1A7
330
17
100
AcDbEntity
  8
visible
100
AcDbLine
 10
24.343916094154196
 20
-5.9427612502364795
 30
0.0
 11
24.343916094154196
 21
4.057232993777079
 31
0.0
  0
ELLIPSE
  5
1A8
330
17
100
AcDbEntity
  8
visible
100
AcDbEllipse
 10
24.321384372033634
 20
-0.9465193350529919
 30
0.0
 11
-7.598062178202329e-06
 21
-1.099999999973759
 31
0.0
 40
0.006437631186093749
 41
-3.141592653589793
 42
-1.569723365886959
  0
ELLIPSE
  5
1A9
330
17
100
AcDbEntity
  8
visible
100
AcDbEllipse
 10
24.321384372033634
 20
-0.9465193350529919
 30
0.0
 11
-7.598062178202329e-06
 21
-1.099999999973759
 31
0.0
 40
0.006437631186093749
 41
-6.283185307179586
 42
-3.141592653589793
  0
ELLIPSE
  5
1AA
330
17
100
AcDbEntity
  8
visible
100
AcDbEllipse
 10
24.321384372033634
 20
-0.9465193350529919
 30
0.0
 11
-7.598062178202329e-06
 21
-1.099999999973759
 31
0.0
 40
0.006437631186093749
 41
-1.5697233658869587
 42
-0.0
  0
LINE
  5
1AB
330
17
100
AcDbEntity
  8
visible
100
AcDbLine
 10
24.29885264991308
 20
4.049722580130497
 30
0.0
 11
24.343916094154196
 21
4.057232993777079
 31
0.0
  0
LINE
  5
1AC
330
17
100
AcDbEntity
  8
visible
100
AcDbLine
 10
24.29885264991308
 20
-5.950271663883062
 30
0.0
 11
24.343916094154196
 21
-5.9427612502364795
 31
0.0
  0
ELLIPSE
  5
1AD
330
17
100
AcDbEntity
  8
visible
100
AcDbEllipse
 10
31.269738240397565
 20
-0.9551510152376463
 30
0.0
 11
3.453664626455842e-05
 21
4.999999999880723
 31
0.0
 40
0.006437631186094192
 41
4.7134619412926275
 42
6.283185307179586
  0
ELLIPSE
  5
1AE
330
17
100
AcDbEntity
  8
visible
100
AcDbEllipse
 10
31.269738240397565
 20
-0.9551510152376463
 30
0.0
 11
3.453664626455842e-05
 21
4.999999999880723
 31
0.0
 40
0.006437631186094192
 41
0.0
 42
1.0701416143903086
  0
ELLIPSE
  5
1AF
330
17
100
AcDbEntity
  8
visible
100
AcDbEllipse
 10
31.269738240397565
 20
-0.9551510152376463
 30
0.0
 11
3.453664626455842e-05
 21
4.999999999880723
 31
0.0
 40
0.006437631186094192
 41
2.0714510391994843
 42
3.141592653589793
  0
ELLIPSE
  5
1B0
330
17
100
AcDbEntity
  8
visible
100
AcDbEllipse
 10
31.269738240397565
 20
-0.9551510152376463
 30
0.0
 11
3.453664626455842e-05
 21
4.999999999880723
 31
0.0
 40
0.006437631186094192
 41
3.141592653589793
 42
4.7134619412926275
  0
ELLIPSE
  5
1B1
330
17
100
AcDbEntity
  8
visible
100
AcDbEllipse
 10
31.269738240397565
 20
-0.9551510152376463
 30
0.0
 11
1.657759020698804e-05
 21
2.3999999999427466
 31
0.0
 40
0.006437631186094192
 41
4.7134619412926275
 42
6.283185307179586
  0
ELLIPSE
  5
1B2
330
17
100
AcDbEntity
  8
visible
100
AcDbEllipse
 10
31.269738240397565
 20
-0.9551510152376463
 30
0.0
 11
1.657759020698804e-05
 21
2.3999999999427466
 31
0.0
 40
0.006437631186094192
 41
3.141592653589793
 42
4.7134619412926275
  0
ELLIPSE
  5
1B3
330
17
100
AcDbEntity
  8
visible
100
AcDbEllipse
 10
29.269779683969958
 20
-0.9551372008654047
 30
0.0
 11
1.657759020698804e-05
 21
2.3999999999427466
 31
0.0
 40
0.006437631186094192
 41
4.7134619412926275
 42
6.283185307179586
  0
ELLIPSE
  5
1B4
330
17
100
AcDbEntity
  8
visible
100
AcDbEllipse
 10
29.269779683969958
 20
-0.9551372008654047
 30
0.0
 11
1.657759020698804e-05
 21
2.3999999999427466
 31
0.0
 40
0.006437631186094192
 41
0.0
 42
3.141592653589793
  0
ELLIPSE
  5
1B5
330
17
100
AcDbEntity
  8
visible
100
AcDbEllipse
 10
29.269779683969958
 20
-0.9551372008654047
 30
0.0
 11
1.657759020698804e-05
 21
2.3999999999427466
 31
0.0
 40
0.006437631186094192
 41
3.141592653589793
 42
4.7134619412926275
  0
LINE
  5
1B6
330
17
100
AcDbEntity
  8
visible
100
AcDbLine
 10
0.7167232933068588
 20
42.974219291817995
 30
0.0
 11
0.7167232933068588
 21
44.95275892657891
 31
0.0
  0
LINE
  5
1B7
330
17
100
AcDbEntity
  8
visible
100
AcDbLine
 10
0.6394716746078046
 20
44.93988393175619
 30
0.0
 11
0.7167232933068592
 21
44.9527589265789
 31
0.0
  0
LINE
  5
1B8
330
17
100
AcDbEntity
  8
visible
100
AcDbLine
 10
0.6394716746078046
 20
42.97421982542036
 30
0.0
 11
0.6394716746078046
 21
44.93988393175619
 31
0.0
  0
LINE
  5
1B9
330
17
100
AcDbEntity
  8
visible
100
AcDbLine
 10
30.71610163972101
 20
42.97401207623437
 30
0.0
 11
30.71610163972101
 21
44.95255171099529
 31
0.0
  0
LINE
  5
1BA
330
17
100
AcDbEntity
  8
visible
100
AcDbLine
 10
0.7167232933068588
 20
44.95275892657891
 30
0.0
 11
30.716101639721014
 21
44.95255171099528
 31
0.0
  0
ELLIPSE
  5
1BB
330
17
100
AcDbEntity
  8
visible
100
AcDbEllipse
 10
-5.742370323296393
 20
-28.457025452858915
 30
0.0
 11
11.5
 21
-1.643287215194598e-17
 31
0.0
 40
0.0010729384684273592
 41
-6.283185307179586
 42
-3.141592653589793
  0
ELLIPSE
  5
1BC
330
17
100
AcDbEntity
  8
visible
100
AcDbEllipse
 10
-5.742370323296393
 20
-28.457025452858915
 30
0.0
 11
11.5
 21
-1.643287215194598e-17
 31
0.0
 40
0.0010729384684273592
 41
-0.006437679358387349
 42
-0.0
  0
ELLIPSE
  5
1BD
330
17
100
AcDbEntity
  8
visible
100
AcDbEllipse
 10
-5.742370323296393
 20
-30.457024301661626
 30
0.0
 11
11.5
 21
-1.643287215194598e-17
 31
0.0
 40
0.0010729384684273592
 41
-3.141592653589793
 42
-0.006437679358387734
  0
ELLIPSE
  5
1BE
330
17
100
AcDbEntity
  8
visible
100
AcDbEllipse
 10
-5.742370323296393
 20
-30.457024301661626
 30
0.0
 11
11.5
 21
-1.643287215194598e-17
 31
0.0
 40
0.0010729384684273592
 41
-6.283185307179586
 42
-3.141592653589793
  0
ELLIPSE
  5
1BF
330
17
100
AcDbEntity
  8
visible
100
AcDbEllipse
 10
-5.742370323296393
 20
-30.457024301661626
 30
0.0
 11
11.5
 21
-1.643287215194598e-17
 31
0.0
 40
0.0010729384684273592
 41
-0.006437679358387349
 42
-0.0
  0
LINE
  5
1C0
330
17
100
AcDbEntity
  8
visible
100
AcDbLine
 10
-60.21634880184105
 20
34.964129766518035
 30
0.0
 11
-60.17901051946984
 21
34.970352680682346
 31
0.0
  0
LINE
  5
1C1
330
17
100
AcDbEntity
  8
visible
100
AcDbLine
 10
-60.21634880184105
 20
-37.03582879037959
 30
0.0
 11
-60.17901051946984
 21
-37.02960587621528
 31
0.0
  0
LINE
  5
1C2
330
17
100
AcDbEntity
  8
visible
100
AcDbLine
 10
-52.21651457613061
 20
-45.0358794430794
 30
0.0
 11
-52.179176293759404
 21
-45.02965652891509
 31
0.0
  0
LINE
  5
1C3
330
17
100
AcDbEntity
  8
visible
100
AcDbLine
 10
39.78157901953946
 20
-45.03651490420253
 30
0.0
 11
39.818917301910666
 21
-45.030291990038215
 31
0.0
  0
LINE
  5
1C4
330
17
100
AcDbEntity
  8
visible
100
AcDbLine
 10
-52.43668168942292
 20
-45.072573178324134
 30
0.0
 11
-52.349773618386486
 21
-45.058088809148586
 31
0.0
  0
LINE
  5
1C5
330
17
100
AcDbEntity
  8
visible
100
AcDbLine
 10
39.56141190624715
 20
-45.07320863944726
 30
0.0
 11
39.77385385766955
 21
-45.0378024036848
 31
0.0
  0
LINE
  5
1C6
330
17
100
AcDbEntity
  8
visible
100
AcDbLine
 10
-52.27252199968743
 20
-45.04521381432587
 30
0.0
 11
-52.22423973800052
 21
-45.037166942561676
 31
0.0
  0
LINE
  5
1C7
330
17
100
AcDbEntity
  8
visible
100
AcDbLine
 10
-60.436515915133356
 20
34.9274360312733
 30
0.0
 11
-60.22407396371096
 21
34.96284226703576
 31
0.0
  0
LINE
  5
1C8
330
17
100
AcDbEntity
  8
visible
100
AcDbLine
 10
-60.436515915133356
 20
-37.07252252562432
 30
0.0
 11
-60.22407396371096
 21
-37.03711628986186
 31
0.0
  0
LINE
  5
1C9
330
17
100
AcDbEntity
  8
visible
100
AcDbLine
 10
-12.85495875202961
 20
-45.04546260240669
 30
0.0
 11
-12.85495875202961
 21
-45.046109271305745
 31
0.0
  0
LINE
  5
1CA
330
17
100
AcDbEntity
  8
visible
100
AcDbLine
 10
-13.693018521429558
 20
-45.04532255546532
 30
0.0
 11
-13.693018521429558
 21
-45.04593111728194
 31
0.0
  0
LINE
  5
1CB
330
17
100
AcDbEntity
  8
visible
100
AcDbLine
 10
-15.036278076333081
 20
-45.04563790058481
 30
0.0
 11
-15.036278076333081
 21
-45.04649577861836
 31
0.0
  0
LINE
  5
1CC
330
17
100
AcDbEntity
  8
visible
100
AcDbLine
 10
-15.511068838724999
 20
-45.046016857525586
 30
0.0
 11
-15.511068838724999
 21
-45.04815197321498
 31
0.0
  0
LINE
  5
1CD
330
17
100
AcDbEntity
  8
visible
100
AcDbLine
 10
-15.585056060510903
 20
-45.04609900057482
 30
0.0
 11
-15.585056060510903
 21
-45.050229013754695
 31
0.0
  0
LINE
  5
1CE
330
17
100
AcDbEntity
  8
visible
100
AcDbLine
 10
-13.76446432355623
 20
-45.05039340552088
 30
0.0
 11
-13.76446432355623
 21
-45.051002563507325
 31
0.0
  0
LINE
  5
1CF
330
17
100
AcDbEntity
  8
visible
100
AcDbLine
 10
-12.907488762843052
 20
-45.050239215369366
 30
0.0
 11
-12.907488762843052
 21
-45.0508764584583
 31
0.0
  0
LINE
  5
1D0
330
17
100
AcDbEntity
  8
visible
100
AcDbLine
 10
-60.17901051946984
 20
-37.02960587621528
 30
0.0
 11
-60.15325997990349
 21
-37.02531421127438
 31
0.0
  0
LINE
  5
1D1
330
17
100
AcDbEntity
  8
visible
100
AcDbLine
 10
-60.17901051946984
 20
34.970352680682346
 30
0.0
 11
-60.15325997990349
 21
34.97464434562325
 31
0.0
  0
LINE
  5
1D2
330
17
100
AcDbEntity
  8
visible
100
AcDbLine
 10
-52.179176293759404
 20
-45.02965652891509
 30
0.0
 11
-52.15342575419305
 21
-45.02536486397419
 31
0.0
  0
LINE
  5
1D3
330
17
100
AcDbEntity
  8
visible
100
AcDbLine
 10
39.818917301910666
 20
-45.030291990038215
 30
0.0
 11
39.84466784147702
 21
-45.026000325097314
 31
0.0
  0
LINE
  5
1D4
330
17
100
AcDbEntity
  8
visible
100
AcDbLine
 10
35.43381504298828
 20
-11.927812948398781
 30
0.0
 11
35.43703386043407
 21
-11.927276490281168
 31
0.0
  0
LINE
  5
1D5
330
17
100
AcDbEntity
  8
visible
100
AcDbLine
 10
35.43381504298828
 20
10.072174388431048
 30
0.0
 11
35.43703386043407
 21
10.072710846548661
 31
0.0
  0
LINE
  5
1D6
330
17
100
AcDbEntity
  8
visible
100
AcDbLine
 10
37.09579776760753
 20
-13.984153713923103
 30
0.0
 11
37.436992416861685
 21
-13.927289153456123
 31
0.0
  0
LINE
  5
1D7
330
17
100
AcDbEntity
  8
visible
100
AcDbLine
 10
58.09536261009743
 20
-13.98429876483164
 30
0.0
 11
58.43655725935159
 21
-13.92743420436466
 31
0.0
  0
LINE
  5
1D8
330
17
100
AcDbEntity
  8
visible
100
AcDbLine
 10
-37.467034808236825
 20
-27.49436052032766
 30
0.0
 11
-37.43484663377888
 21
-27.48899593915153
 31
0.0
  0
LINE
  5
1D9
330
17
100
AcDbEntity
  8
visible
100
AcDbLine
 10
-37.467034808236825
 20
25.505608972944202
 30
0.0
 11
-37.43484663377888
 21
25.510973554120334
 31
0.0
  0
LINE
  5
1DA
330
17
100
AcDbEntity
  8
visible
100
AcDbLine
 10
-34.46709697359541
 20
-30.49437951509009
 30
0.0
 11
-34.43490879913747
 21
-30.489014933913957
 31
0.0
  0
LINE
  5
1DB
330
17
100
AcDbEntity
  8
visible
100
AcDbLine
 10
22.531721884591477
 20
-30.49477322469898
 30
0.0
 11
22.563910059049416
 21
-30.48940864352285
 31
0.0
  0
LINE
  5
1DC
330
17
100
AcDbEntity
  8
visible
100
AcDbLine
 10
-33.37699080689938
 20
-24.479369048574913
 30
0.0
 11
-33.10661014145269
 21
-24.43430656669542
 31
0.0
  0
LINE
  5
1DD
330
17
100
AcDbEntity
  8
visible
100
AcDbLine
 10
-33.37699080689938
 20
-24.479369048574913
 30
0.0
 11
-33.37699080689938
 21
22.520603898288815
 31
0.0
  0
LINE
  5
1DE
330
17
100
AcDbEntity
  8
visible
100
AcDbLine
 10
-33.10661014145269
 20
-24.43430656669542
 30
0.0
 11
-33.10661014145269
 21
22.56566638016831
 31
0.0
  0
LINE
  5
1DF
330
17
100
AcDbEntity
  8
visible
100
AcDbLine
 10
-33.37699080689938
 20
22.520603898288815
 30
0.0
 11
-33.10661014145269
 21
22.56566638016831
 31
0.0
  0
ELLIPSE
  5
1E0
330
17
100
AcDbEntity
  8
visible
100
AcDbEllipse
 10
-29.377073694044157
 20
-24.479396677319397
 30
0.0
 11
0.657582285336527
 21
-3.9455779726184086
 31
0.0
 40
0.9999787026270884
 41
4.547240312429523
 42
6.118036639224419
  0
ELLIPSE
  5
1E1
330
17
100
AcDbEntity
  8
visible
100
AcDbEllipse
 10
-29.10669302859747
 20
-24.434334195439902
 30
0.0
 11
0.657582285336527
 21
-3.9455779726184086
 31
0.0
 40
0.9999787026270884
 41
4.547240312429523
 42
6.118036639224419
  0
LINE
  5
1E2
330
17
100
AcDbEntity
  8
visible
100
AcDbLine
 10
-29.377073694044157
 20
-28.47939437492482
 30
0.0
 11
-29.106693028597466
 21
-28.434331893045325
 31
0.0
  0
ELLIPSE
  5
1E3
330
17
100
AcDbEntity
  8
visible
100
AcDbEllipse
 10
-29.377073694044157
 20
-24.479396677319397
 30
0.0
 11
4.0
 21
3.3881337392223875e-21
 31
0.0
 40
0.0010729384684275813
 41
-3.1415926535897936
 42
-1.5772340061532844
  0
ELLIPSE
  5
1E4
330
17
100
AcDbEntity
  8
visible
100
AcDbEllipse
 10
-29.377073694044157
 20
-24.479396677319397
 30
0.0
 11
4.0
 21
3.3881337392223875e-21
 31
0.0
 40
0.0010729384684275813
 41
-3.148030332948181
 42
-3.1415926535897936
  0
ELLIPSE
  5
1E5
330
17
100
AcDbEntity
  8
visible
100
AcDbEllipse
 10
-29.377073694044157
 20
22.520576269544332
 30
0.0
 11
4.0
 21
3.3881337392223875e-21
 31
0.0
 40
0.0010729384684275813
 41
-3.1415926535897936
 42
-3.1351549742314675
  0
ELLIPSE
  5
1E6
330
17
100
AcDbEntity
  8
visible
100
AcDbEllipse
 10
-29.377073694044157
 20
22.520576269544332
 30
0.0
 11
4.0
 21
3.3881337392223875e-21
 31
0.0
 40
0.0010729384684275813
 41
-3.148030332948181
 42
-3.1415926535897936
  0
ELLIPSE
  5
1E7
330
17
100
AcDbEntity
  8
visible
100
AcDbEllipse
 10
-29.10669302859747
 20
-24.434334195439902
 30
0.0
 11
-4.0
 21
-3.3881337392223875e-21
 31
0.0
 40
0.0010729384684275813
 41
4.705951301026302
 42
6.276747627821199
  0
LINE
  5
1E8
330
17
100
AcDbEntity
  8
visible
100
AcDbLine
 10
-29.080942489031116
 20
-24.430042530498998
 30
0.0
 11
-29.080942489031116
 21
22.56993041636473
 31
0.0
  0
ELLIPSE
  5
1E9
330
17
100
AcDbEntity
  8
visible
100
AcDbEllipse
 10
-29.10669302859747
 20
22.565638751423826
 30
0.0
 11
4.0
 21
3.3881337392223875e-21
 31
0.0
 40
0.0010729384684275813
 41
-4.718826659743078
 42
-3.148030332948181
  0
ELLIPSE
  5
1EA
330
17
100
AcDbEntity
  8
visible
100
AcDbEllipse
 10
-29.377073694044157
 20
22.520576269544332
 30
0.0
 11
-0.657582285336527
 21
3.9455779726184086
 31
0.0
 40
0.9999787026270884
 41
-6.283185307179586
 42
-4.877537648339857
  0
ELLIPSE
  5
1EB
330
17
100
AcDbEntity
  8
visible
100
AcDbEllipse
 10
-29.10669302859747
 20
22.565638751423826
 30
0.0
 11
0.657582285336527
 21
-3.9455779726184086
 31
0.0
 40
0.9999787026270884
 41
2.9764439856346256
 42
3.1415926535897927
  0
ELLIPSE
  5
1EC
330
17
100
AcDbEntity
  8
visible
100
AcDbEllipse
 10
-29.10669302859747
 20
22.565638751423826
 30
0.0
 11
0.657582285336527
 21
-3.9455779726184086
 31
0.0
 40
0.9999787026270884
 41
3.1415926535897927
 42
4.547240312429523
  0
ELLIPSE
  5
1ED
330
17
100
AcDbEntity
  8
visible
100
AcDbEllipse
 10
-29.377073694044157
 20
-24.479396677319397
 30
0.0
 11
2.7629317011890713e-05
 21
3.999999999904578
 31
0.0
 40
0.00643763118609397
 41
3.14051960374021
 42
3.141592653589795
  0
ELLIPSE
  5
1EE
330
17
100
AcDbEntity
  8
visible
100
AcDbEllipse
 10
-29.377073694044157
 20
-24.479396677319397
 30
0.0
 11
2.7629317011890713e-05
 21
3.999999999904578
 31
0.0
 40
0.00643763118609397
 41
3.141592653589795
 42
3.142665614497731
  0
ELLIPSE
  5
1EF
330
17
100
AcDbEntity
  8
visible
100
AcDbEllipse
 10
-29.10669302859747
 20
-24.434334195439902
 30
0.0
 11
-2.7629317011890713e-05
 21
-3.999999999904578
 31
0.0
 40
0.00643763118609397
 41
-6.282112346271648
 42
-4.711316019476752
  0
LINE
  5
1F0
330
17
100
AcDbEntity
  8
visible
100
AcDbLine
 10
-29.377073694044157
 20
-28.47939437492482
 30
0.0
 11
-17.24237032329639
 21
-28.47947819331639
 31
0.0
  0
LINE
  5
1F1
330
17
100
AcDbEntity
  8
visible
100
AcDbLine
 10
5.757629676703608
 20
-28.47963706188921
 30
0.0
 11
17.62195238200468
 21
-28.4797190126725
 31
0.0
  0
LINE
  5
1F2
330
17
100
AcDbEntity
  8
visible
100
AcDbLine
 10
-29.10669302859747
 20
-28.434331893045325
 30
0.0
 11
17.892333047451366
 21
-28.434656530793006
 31
0.0
  0
LINE
  5
1F3
330
17
100
AcDbEntity
  8
visible
100
AcDbLine
 10
17.62195238200468
 20
-28.4797190126725
 30
0.0
 11
17.89233304745137
 21
-28.434656530793006
 31
0.0
  0
LINE
  5
1F4
330
17
100
AcDbEntity
  8
visible
100
AcDbLine
 10
-29.080942489031116
 20
-24.430042530498998
 30
0.0
 11
17.91808358701772
 21
-24.43036716824668
 31
0.0
  0
LINE
  5
1F5
330
17
100
AcDbEntity
  8
visible
100
AcDbLine
 10
-29.080942489031116
 20
22.56993041636473
 30
0.0
 11
17.91808358701772
 21
22.56960577861705
 31
0.0
  0
LINE
  5
1F6
330
17
100
AcDbEntity
  8
visible
100
AcDbLine
 10
17.91808358701772
 20
-24.43036716824668
 30
0.0
 11
17.91808358701772
 21
22.56960577861705
 31
0.0
  0
ELLIPSE
  5
1F7
330
17
100
AcDbEntity
  8
visible
100
AcDbEllipse
 10
-29.10669302859747
 20
22.565638751423826
 30
0.0
 11
-2.7629317011645517e-05
 21
-3.999999999904578
 31
0.0
 40
0.006437631186093909
 41
-3.1415926535897887
 42
-3.1405196926818553
  0
ELLIPSE
  5
1F8
330
17
100
AcDbEntity
  8
visible
100
AcDbEllipse
 10
-29.10669302859747
 20
22.565638751423826
 30
0.0
 11
-2.7629317011645517e-05
 21
-3.999999999904578
 31
0.0
 40
0.006437631186093909
 41
-4.711316019476752
 42
-3.1415926535897887
  0
LINE
  5
1F9
330
17
100
AcDbEntity
  8
visible
100
AcDbLine
 10
-29.10663776999525
 20
26.56563644864756
 30
0.0
 11
17.892333047451366
 21
26.565311811281568
 31
0.0
  0
ELLIPSE
  5
1FA
330
17
100
AcDbEntity
  8
visible
100
AcDbEllipse
 10
17.62195238200468
 20
-24.479721315067078
 30
0.0
 11
2.7629317011400843e-05
 21
3.999999999904578
 31
0.0
 40
0.00643763118609397
 41
3.1405196926808827
 42
3.141592653589793
  0
ELLIPSE
  5
1FB
330
17
100
AcDbEntity
  8
visible
100
AcDbEllipse
 10
17.62195238200468
 20
-24.479721315067078
 30
0.0
 11
2.7629317011400843e-05
 21
3.999999999904578
 31
0.0
 40
0.00643763118609397
 41
3.141592653589793
 42
3.142665614497731
  0
ELLIPSE
  5
1FC
330
17
100
AcDbEntity
  8
visible
100
AcDbEllipse
 10
17.892333047451366
 20
-24.434658833187584
 30
0.0
 11
-2.7629317011400843e-05
 21
-3.999999999904578
 31
0.0
 40
0.00643763118609397
 41
-6.282112346271648
 42
-4.711316019476752
  0
ELLIPSE
  5
1FD
330
17
100
AcDbEntity
  8
visible
100
AcDbEllipse
 10
17.62195238200468
 20
-24.479721315067078
 30
0.0
 11
-0.657582285336527
 21
3.9455779726184086
 31
0.0
 40
0.9999787026270884
 41
-3.3067413215449606
 42
-3.141592653589793
  0
ELLIPSE
  5
1FE
330
17
100
AcDbEntity
  8
visible
100
AcDbEllipse
 10
17.892333047451366
 20
-24.434658833187584
 30
0.0
 11
-0.657582285336527
 21
3.9455779726184086
 31
0.0
 40
0.9999787026270884
 41
-3.141592653589793
 42
-1.735944994750064
  0
ELLIPSE
  5
1FF
330
17
100
AcDbEntity
  8
visible
100
AcDbEllipse
 10
17.892333047451366
 20
-24.434658833187584
 30
0.0
 11
-0.657582285336527
 21
3.9455779726184086
 31
0.0
 40
0.9999787026270884
 41
-3.3067413215449606
 42
-3.141592653589793
  0
ELLIPSE
  5
200
330
17
100
AcDbEntity
  8
visible
100
AcDbEllipse
 10
17.62195238200468
 20
-24.479721315067078
 30
0.0
 11
-4.0
 21
-3.3881337392223875e-21
 31
0.0
 40
0.0010729384684275813
 41
1.5643586474365083
 42
3.135154974231405
  0
ELLIPSE
  5
201
330
17
100
AcDbEntity
  8
visible
100
AcDbEllipse
 10
17.892333047451366
 20
22.565314113676145
 30
0.0
 11
-2.7629317011646045e-05
 21
-3.999999999904578
 31
0.0
 40
0.006437631186094032
 41
-3.141592653589793
 42
-3.1405196926818553
  0
ELLIPSE
  5
202
330
17
100
AcDbEntity
  8
visible
100
AcDbEllipse
 10
17.892333047451366
 20
22.565314113676145
 30
0.0
 11
-2.7629317011646045e-05
 21
-3.999999999904578
 31
0.0
 40
0.006437631186094032
 41
-4.711316019476752
 42
-3.141592653589793
  0
ELLIPSE
  5
203
330
17
100
AcDbEntity
  8
visible
100
AcDbEllipse
 10
17.892333047451366
 20
-24.434658833187584
 30
0.0
 11
4.0
 21
3.3881337392223875e-21
 31
0.0
 40
0.0010729384684275813
 41
-6.283185307179586
 42
-4.718826659743077
  0
ELLIPSE
  5
204
330
17
100
AcDbEntity
  8
visible
100
AcDbEllipse
 10
17.892333047451366
 20
-24.434658833187584
 30
0.0
 11
4.0
 21
3.3881337392223875e-21
 31
0.0
 40
0.0010729384684275813
 41
-0.006437679358387349
 42
-0.0
  0
LINE
  5
205
330
17
100
AcDbEntity
  8
visible
100
AcDbLine
 10
21.892250160306588
 20
-24.4346312044431
 30
0.0
 11
21.892250160306588
 21
22.56528648493166
 31
0.0
  0
ELLIPSE
  5
206
330
17
100
AcDbEntity
  8
visible
100
AcDbEllipse
 10
17.892333047451366
 20
22.565314113676145
 30
0.0
 11
-4.0
 21
-3.3881337392223875e-21
 31
0.0
 40
0.0010729384684275813
 41
3.1351549742314053
 42
3.141592653589793
  0
ELLIPSE
  5
207
330
17
100
AcDbEntity
  8
visible
100
AcDbEllipse
 10
17.892333047451366
 20
22.565314113676145
 30
0.0
 11
-4.0
 21
-3.3881337392223875e-21
 31
0.0
 40
0.0010729384684275813
 41
3.141592653589793
 42
4.705951301026301
  0
ELLIPSE
  5
208
330
17
100
AcDbEntity
  8
visible
100
AcDbEllipse
 10
17.892333047451366
 20
22.565314113676145
 30
0.0
 11
-0.657582285336527
 21
3.9455779726184086
 31
0.0
 40
0.9999787026270884
 41
-1.735931180353969
 42
-0.1651624834645684
  0
LINE
  5
209
330
17
100
AcDbEntity
  8
visible
100
AcDbLine
 10
-53.53167914680366
 20
42.855230454265886
 30
0.0
 11
-53.49434086443245
 21
42.8614533684302
 31
0.0
  0
LINE
  5
20A
330
17
100
AcDbEntity
  8
visible
100
AcDbLine
 10
41.096743590212505
 20
-44.9276754542285
 30
0.0
 11
41.134081872583714
 21
-44.92145254006419
 31
0.0
  0
LINE
  5
20B
330
17
100
AcDbEntity
  8
visible
100
AcDbLine
 10
-53.75184626009597
 20
42.818536719021154
 30
0.0
 11
-53.53940430867357
 21
42.85394295478361
 31
0.0
  0
LINE
  5
20C
330
17
100
AcDbEntity
  8
visible
100
AcDbLine
 10
40.8765764769202
 20
-44.96436918947323
 30
0.0
 11
41.0890184283426
 21
-44.92896295371077
 31
0.0
  0
SPLINE
  5
20D
330
17
100
AcDbEntity
  8
visible
100
AcDbSpline
 70
0
 71
1
 72
4
 73
2
 74
0
 40
0.0
 40
0.0
 40
1.0
 40
1.0
 10
-15.51115889145968
 20
-45.04601695283202
 30
0.0
 10
-15.51115889145968
 20
-45.04818189301386
 30
0.0
  0
LINE
  5
20E
330
17
100
AcDbEntity
  8
visible
100
AcDbLine
 10
-53.49434086443245
 20
42.8614533684302
 30
0.0
 11
-53.4685903248661
 21
42.8657450333711
 31
0.0
  0
LINE
  5
20F
330
17
100
AcDbEntity
  8
visible
100
AcDbLine
 10
41.134081872583714
 20
-44.92145254006419
 30
0.0
 11
41.15983241215007
 21
-44.91716087512329
 31
0.0
  0
LINE
  5
210
330
17
100
AcDbEntity
  8
visible
100
AcDbLine
 10
-0.4973343646358668
 20
-34.5518550676627
 30
0.0
 11
-0.45870855528633947
 21
-34.545417570251345
 31
0.0
  0
LINE
  5
211
330
17
100
AcDbEntity
  8
visible
100
AcDbLine
 10
-11.676233215356824
 20
32.52297046685025
 30
0.0
 11
-11.637607406007296
 21
32.52940796426161
 31
0.0
  0
LINE
  5
212
330
17
100
AcDbEntity
  8
visible
100
AcDbLine
 10
33.61341473162255
 20
-13.98660886497437
 30
0.0
 11
33.63150848036159
 21
-13.983593304585323
 31
0.0
  0
LINE
  5
213
330
17
100
AcDbEntity
  8
visible
100
AcDbLine
 10
33.79431227207617
 20
-13.956459918764518
 30
0.0
 11
33.93407732026622
 21
-13.9331662415297
 31
0.0
  0
LINE
  5
214
330
17
100
AcDbEntity
  8
visible
100
AcDbLine
 10
36.76700662493926
 20
11.988621458018645
 30
0.0
 11
37.10820127419342
 21
12.045486018485626
 31
0.0
  0
LINE
  5
215
330
17
100
AcDbEntity
  8
visible
100
AcDbLine
 10
58.4241537527657
 20
-13.957088902338134
 30
0.0
 11
58.76534840201985
 21
-13.900224341871153
 31
0.0
  0
LINE
  5
216
330
17
100
AcDbEntity
  8
visible
100
AcDbLine
 10
-34.96028368759781
 20
28.464771730849645
 30
0.0
 11
-34.928095513139866
 21
28.470136312025776
 31
0.0
  0
LINE
  5
217
330
17
100
AcDbEntity
  8
visible
100
AcDbLine
 10
23.024908598593868
 20
-30.453958430958718
 30
0.0
 11
23.057096773051807
 21
-30.448593849782586
 31
0.0
  0
LINE
  5
218
330
17
100
AcDbEntity
  8
visible
100
AcDbLine
 10
31.378212388320826
 20
4.044848235614976
 30
0.0
 11
31.269772777043833
 21
4.0448489846430755
 31
0.0
  0
LINE
  5
219
330
17
100
AcDbEntity
  8
visible
100
AcDbLine
 10
31.378212388320826
 20
-5.955151764623579
 30
0.0
 11
31.269703703751304
 21
-5.955151015118369
 31
0.0
  0
LINE
  5
21A
330
17
100
AcDbEntity
  8
visible
100
AcDbLine
 10
31.269754817987774
 20
1.4448489847051007
 30
0.0
 11
30.305176658420905
 21
1.4448556473640393
 31
0.0
  0
LINE
  5
21B
330
17
100
AcDbEntity
  8
visible
100
AcDbLine
 10
29.674294314675848
 20
1.4448600050761073
 30
0.0
 11
29.269796261560163
 21
1.4448627990773424
 31
0.0
  0
LINE
  5
21C
330
17
100
AcDbEntity
  8
visible
100
AcDbLine
 10
31.269721662807363
 20
-3.355151015180393
 30
0.0
 11
30.305143503240494
 21
-3.355144352521455
 31
0.0
  0
LINE
  5
21D
330
17
100
AcDbEntity
  8
visible
100
AcDbLine
 10
29.67426115949543
 20
-3.3551399948093863
 30
0.0
 11
29.269763106379752
 21
-3.3551372008081515
 31
0.0
  0
LINE
  5
21E
330
17
100
AcDbEntity
  8
visible
100
AcDbLine
 10
-33.377073694044164
 20
-24.479396677319397
 30
0.0
 11
-33.377073694044164
 21
22.520576269544332
 31
0.0
  0
LINE
  5
21F
330
17
100
AcDbEntity
  8
visible
100
AcDbLine
 10
-30.03465597938068
 20
26.46615424216274
 30
0.0
 11
-29.76427531393399
 21
26.511216724042235
 31
0.0
  0
ARC
  5
220
330
17
100
AcDbEntity
  8
visible
100
AcDbCircle
 10
-29.377073694044157
 20
-24.479396677319397
 30
0.0
 40
4.0
100
AcDbArc
 50
179.99999999999997
 51
269.9996042391861
  0
ARC
  5
221
330
17
100
AcDbEntity
  8
visible
100
AcDbCircle
 10
-29.377073694044157
 20
22.520576269544332
 30
0.0
 40
4.0
100
AcDbArc
 50
99.46212378762485
 51
179.99999999999997
  0
ARC
  5
222
330
17
100
AcDbEntity
  8
visible
100
AcDbCircle
 10
-29.10669302859747
 20
22.565638751423826
 30
0.0
 40
4.0
100
AcDbArc
 50
89.9996042391861
 51
99.46212378762485
  0
LINE
  5
223
330
17
100
AcDbEntity
  8
visible
100
AcDbLine
 10
-29.377101323361167
 20
-28.479396677223974
 30
0.0
 11
-17.24237032329639
 21
-28.47948049580639
 31
0.0
  0
LINE
  5
224
330
17
100
AcDbEntity
  8
visible
100
AcDbLine
 10
5.757629676703608
 20
-28.47963936437921
 30
0.0
 11
17.62192475268767
 21
-28.479721314971655
 31
0.0
  0
LINE
  5
225
330
17
100
AcDbEntity
  8
visible
100
AcDbLine
 10
18.27953466734121
 20
-28.425299287685487
 30
0.0
 11
18.5499153327879
 21
-28.380236805805993
 31
0.0
  0
LINE
  5
226
330
17
100
AcDbEntity
  8
visible
100
AcDbLine
 10
-29.106665399280452
 20
26.5656387513284
 30
0.0
 11
17.892360676768384
 21
26.56531411358072
 31
0.0
  0
LINE
  5
227
330
17
100
AcDbEntity
  8
visible
100
AcDbLine
 10
21.892333047451373
 20
-24.434658833187584
 30
0.0
 11
21.892333047451373
 21
22.565314113676145
 31
0.0
  0
ARC
  5
228
330
17
100
AcDbEntity
  8
visible
100
AcDbCircle
 10
17.62195238200468
 20
-24.479721315067078
 30
0.0
 40
4.0
100
AcDbArc
 50
269.9996042391861
 51
279.4621237876248
  0
ARC
  5
229
330
17
100
AcDbEntity
  8
visible
100
AcDbCircle
 10
17.892333047451366
 20
-24.434658833187584
 30
0.0
 40
4.0
100
AcDbArc
 50
279.4621237876248
 51
360.0
  0
ARC
  5
22A
330
17
100
AcDbEntity
  8
visible
100
AcDbCircle
 10
17.892333047451366
 20
22.565314113676145
 30
0.0
 40
4.0
100
AcDbArc
 50
360.0
 51
449.9996042391861
  0
LINE
  5
22B
330
17
100
AcDbEntity
  8
visible
100
AcDbLine
 10
5.757629676703607
 20
-30.457024301661626
 30
0.0
 11
5.757629676703607
 21
-28.457025452858915
 31
0.0
  0
LINE
  5
22C
330
17
100
AcDbEntity
  8
visible
100
AcDbLine
 10
-17.24237032329639
 20
-30.457024301661626
 30
0.0
 11
-17.24237032329639
 21
-28.457025452858915
 31
0.0
  0
ENDSEC
  0
SECTION
  2
OBJECTS
  0
DICTIONARY
  5
A
330
0
100
AcDbDictionary
281
1
  3
ACAD_COLOR
350
B
  3
ACAD_GROUP
350
C
  3
ACAD_LAYOUT
350
D
  3
ACAD_MATERIAL
350
E
  3
ACAD_MLEADERSTYLE
350
F
  3
ACAD_MLINESTYLE
350
10
  3
ACAD_PLOTSETTINGS
350
11
  3
ACAD_PLOTSTYLENAME
350
12
  3
ACAD_SCALELIST
350
14
  3
ACAD_TABLESTYLE
350
15
  3
ACAD_VISUALSTYLE
350
16
  3
EZDXF_META
350
2D
  0
DICTIONARY
  5
B
330
A
100
AcDbDictionary
281
1
  0
DICTIONARY
  5
C
330
A
100
AcDbDictionary
281
1
  0
DICTIONARY
  5
D
330
A
100
AcDbDictionary
281
1
  3
Model
350
1A
  3
Layout1
350
1E
  0
DICTIONARY
  5
E
330
A
100
AcDbDictionary
281
1
  3
ByBlock
350
1F
  3
ByLayer
350
20
  3
Global
350
21
  0
DICTIONARY
  5
F
330
A
100
AcDbDictionary
281
1
  3
Standard
350
2C
  0
DICTIONARY
  5
10
330
A
100
AcDbDictionary
281
1
  3
Standard
350
22
  0
DICTIONARY
  5
11
330
A
100
AcDbDictionary
281
1
  0
ACDBDICTIONARYWDFLT
  5
12
330
A
100
AcDbDictionary
281
1
  3
Normal
350
13
100
AcDbDictionaryWithDefault
340
13
  0
ACDBPLACEHOLDER
  5
13
330
12
  0
DICTIONARY
  5
14
330
A
100
AcDbDictionary
281
1
  0
DICTIONARY
  5
15
330
A
100
AcDbDictionary
281
1
  0
DICTIONARY
  5
16
330
A
100
AcDbDictionary
281
1
  0
LAYOUT
  5
1A
330
D
100
AcDbPlotSettings
  1

  4
A3
  6

 40
7.5
 41
20.0
 42
7.5
 43
20.0
 44
420.0
 45
297.0
 46
0.0
 47
0.0
 48
0.0
 49
0.0
140
0.0
141
0.0
142
1.0
143
1.0
 70
1024
 72
1
 73
0
 74
5
  7

 75
16
 76
0
 77
2
 78
300
147
1.0
148
0.0
149
0.0
100
AcDbLayout
  1
Model
 70
1
 71
0
 10
0.0
 20
0.0
 11
420.0
 21
297.0
 12
0.0
 22
0.0
 32
0.0
 14
1e+20
 24
1e+20
 34
1e+20
 15
-1e+20
 25
-1e+20
 35
-1e+20
146
0.0
 13
0.0
 23
0.0
 33
0.0
 16
1.0
 26
0.0
 36
0.0
 17
0.0
 27
1.0
 37
0.0
 76
1
330
17
  0
LAYOUT
  5
1E
330
D
100
AcDbPlotSettings
  1

  4
A3
  6

 40
7.5
 41
20.0
 42
7.5
 43
20.0
 44
420.0
 45
297.0
 46
0.0
 47
0.0
 48
0.0
 49
0.0
140
0.0
141
0.0
142
1.0
143
1.0
 70
0
 72
1
 73
0
 74
5
  7

 75
16
 76
0
 77
2
 78
300
147
1.0
148
0.0
149
0.0
100
AcDbLayout
  1
Layout1
 70
1
 71
1
 10
0.0
 20
0.0
 11
420.0
 21
297.0
 12
0.0
 22
0.0
 32
0.0
 14
1e+20
 24
1e+20
 34
1e+20
 15
-1e+20
 25
-1e+20
 35
-1e+20
146
0.0
 13
0.0
 23
0.0
 33
0.0
 16
1.0
 26
0.0
 36
0.0
 17
0.0
 27
1.0
 37
0.0
 76
1
330
1B
  0
MATERIAL
  5
1F
102
{ACAD_REACTORS
330
E
102
}
330
E
100
AcDbMaterial
  1
ByBlock
  2

 70
0
 40
1.0
 71
1
 41
1.0
 91
-1023410177
 42
1.0
 72
1
  3

 73
1
 74
1
 75
1
 44
0.5
 73
0
 45
1.0
 46
1.0
 77
1
  4

 78
1
 79
1
170
1
 48
1.0
171
1
  6

172
1
173
1
174
1
140
1.0
141
1.0
175
1
  7

176
1
177
1
178
1
143
1.0
179
1
  8

270
1
271
1
272
1
145
1.0
146
1.0
273
1
  9

274
1
275
1
276
1
 42
1.0
 72
1
  3

 73
1
 74
1
 75
1
 94
63
  0
MATERIAL
  5
20
102
{ACAD_REACTORS
330
E
102
}
330
E
100
AcDbMaterial
  1
ByLayer
  2

 70
0
 40
1.0
 71
1
 41
1.0
 91
-1023410177
 42
1.0
 72
1
  3

 73
1
 74
1
 75
1
 44
0.5
 73
0
 45
1.0
 46
1.0
 77
1
  4

 78
1
 79
1
170
1
 48
1.0
171
1
  6

172
1
173
1
174
1
140
1.0
141
1.0
175
1
  7

176
1
177
1
178
1
143
1.0
179
1
  8

270
1
271
1
272
1
145
1.0
146
1.0
273
1
  9

274
1
275
1
276
1
 42
1.0
 72
1
  3

 73
1
 74
1
 75
1
 94
63
  0
MATERIAL
  5
21
102
{ACAD_REACTORS
330
E
102
}
330
E
100
AcDbMaterial
  1
Global
  2

 70
0
 40
1.0
 71
1
 41
1.0
 91
-1023410177
 42
1.0
 72
1
  3

 73
1
 74
1
 75
1
 44
0.5
 73
0
 45
1.0
 46
1.0
 77
1
  4

 78
1
 79
1
170
1
 48
1.0
171
1
  6

172
1
173
1
174
1
140
1.0
141
1.0
175
1
  7

176
1
177
1
178
1
143
1.0
179
1
  8

270
1
271
1
272
1
145
1.0
146
1.0
273
1
  9

274
1
275
1
276
1
 42
1.0
 72
1
  3

 73
1
 74
1
 75
1
 94
63
  0
MLINESTYLE
  5
22
102
{ACAD_REACTORS
330
10
102
}
330
10
100
AcDbMlineStyle
  2
Standard
 70
0
  3

 62
256
 51
90.0
 52
90.0
 71
2
 49
0.5
 62
256
  6
BYLAYER
 49
-0.5
 62
256
  6
BYLAYER
  0
MLEADERSTYLE
  5
2C
102
{ACAD_REACTORS
330
F
102
}
330
F
100
AcDbMLeaderStyle
179
2
170
2
171
1
172
0
 90
2
 40
0.0
 41
0.0
173
1
 91
-1056964608
 92
-2
290
1
 42
2.0
291
1
 43
8.0
  3
Standard
 44
4.0
300

342
29
174
1
175
1
176
0
178
1
 93
-1056964608
 45
4.0
292
0
297
0
 46
4.0
 94
-1056964608
 47
1.0
 49
1.0
140
1.0
294
1
141
0.0
177
0
142
1.0
295
0
296
0
143
3.75
271
0
272
9
273
9
  0
DICTIONARY
  5
2D
330
A
100
AcDbDictionary
280
1
281
1
  3
CREATED_BY_EZDXF
350
2E
  3
WRITTEN_BY_EZDXF
350
230
  0
DICTIONARYVAR
  5
2E
330
2D
100
DictionaryVariables
280
0
  1
1.4.4 @ 2026-10-01T18:29:35.523508+00:00
  0
DICTIONARYVAR
  5
230
330
2D
100
DictionaryVariables
280
0
  1
1.4.4 @ 2026-10-01T18:29:35.593330+00:00
  0
ENDSEC
  0
EOF
