  0
SECTION
  2
HEADER
  9
$ACADVER
  1
AC1027
  9
$ACADMAINTVER
 70
105
  9
$DWGCODEPAGE
  3
ANSI_1252
  9
$LASTSAVEDBY
  1
ezdxf
  9
$REQUIREDVERSIONS
160
0
  9
$INSBASE
 10
0.0
 20
0.0
 30
0.0
  9
$EXTMIN
 10
1e+20
 20
1e+20
 30
1e+20
  9
$EXTMAX
 10
-1e+20
 20
-1e+20
 30
-1e+20
  9
$LIMMIN
 10
0.0
 20
0.0
  9
$LIMMAX
 10
420.0
 20
297.0
  9
$ORTHOMODE
 70
0
  9
$REGENMODE
 70
1
  9
$FILLMODE
 70
1
  9
$QTEXTMODE
 70
0
  9
$MIRRTEXT
 70
1
  9
$LTSCALE
 40
1.0
  9
$ATTMODE
 70
1
  9
$TEXTSIZE
 40
2.5
  9
$TRACEWID
 40
1.0
  9
$TEXTSTYLE
  7
Standard
  9
$CLAYER
  8
0
  9
$CELTYPE
  6
ByLayer
  9
$CECOLOR
 62
256
  9
$CELTSCALE
 40
1.0
  9
$DISPSILH
 70
0
  9
$DIMSCALE
 40
1.0
  9
$DIMASZ
 40
2.5
  9
$DIMEXO
 40
0.625
  9
$DIMDLI
 40
3.75
  9
$DIMRND
 40
0.0
  9
$DIMDLE
 40
0.0
  9
$DIMEXE
 40
1.25
  9
$DIMTP
 40
0.0
  9
$DIMTM
 40
0.0
  9
$DIMTXT
 40
2.5
  9
$DIMCEN
 40
2.5
  9
$DIMTSZ
 40
0.0
  9
$DIMTOL
 70
0
  9
$DIMLIM
 70
0
  9
$DIMTIH
 70
0
  9
$DIMTOH
 70
0
  9
$DIMSE1
 70
0
  9
$DIMSE2
 70
0
  9
$DIMTAD
 70
1
  9
$DIMZIN
 70
8
  9
$DIMBLK
  1

  9
$DIMASO
 70
1
  9
$DIMSHO
 70
1
  9
$DIMPOST
  1

  9
$DIMAPOST
  1

  9
$DIMALT
 70
0
  9
$DIMALTD
 70
3
  9
$DIMALTF
 40
0.03937007874
  9
$DIMLFAC
 40
1.0
  9
$DIMTOFL
 70
1
  9
$DIMTVP
 40
0.0
  9
$DIMTIX
 70
0
  9
$DIMSOXD
 70
0
  9
$DIMSAH
 70
0
  9
$DIMBLK1
  1

  9
$DIMBLK2
  1

  9
$DIMSTYLE
  2
ISO-25
  9
$DIMCLRD
 70
0
  9
$DIMCLRE
 70
0
  9
$DIMCLRT
 70
0
  9
$DIMTFAC
 40
1.0
  9
$DIMGAP
 40
0.625
  9
$DIMJUST
 70
0
  9
$DIMSD1
 70
0
  9
$DIMSD2
 70
0
  9
$DIMTOLJ
 70
0
  9
$DIMTZIN
 70
8
  9
$DIMALTZ
 70
0
  9
$DIMALTTZ
 70
0
  9
$DIMUPT
 70
0
  9
$DIMDEC
 70
2
  9
$DIMTDEC
 70
2
  9
$DIMALTU
 70
2
  9
$DIMALTTD
 70
3
  9
$DIMTXSTY
  7
Standard
  9
$DIMAUNIT
 70
0
  9
$DIMADEC
 70
0
  9
$DIMALTRND
 40
0.0
  9
$DIMAZIN
 70
0
  9
$DIMDSEP
 70
44
  9
$DIMATFIT
 70
3
  9
$DIMFRAC
 70
0
  9
$DIMLDRBLK
  1

  9
$DIMLUNIT
 70
2
  9
$DIMLWD
 70
-2
  9
$DIMLWE
 70
-2
  9
$DIMTMOVE
 70
0
  9
$DIMFXL
 40
1.0
  9
$DIMFXLON
 70
0
  9
$DIMJOGANG
 40
0.785398163397
  9
$DIMTFILL
 70
0
  9
$DIMTFILLCLR
 70
0
  9
$DIMARCSYM
 70
0
  9
$DIMLTYPE
  6

  9
$DIMLTEX1
  6

  9
$DIMLTEX2
  6

  9
$DIMTXTDIRECTION
 70
0
  9
$LUNITS
 70
2
  9
$LUPREC
 70
4
  9
$SKETCHINC
 40
1.0
  9
$FILLETRAD
 40
10.0
  9
$AUNITS
 70
0
  9
$AUPREC
 70
2
  9
$MENU
  1
.
  9
$ELEVATION
 40
0.0
  9
$PELEVATION
 40
0.0
  9
$THICKNESS
 40
0.0
  9
$LIMCHECK
 70
0
  9
$CHAMFERA
 40
0.0
  9
$CHAMFERB
 40
0.0
  9
$CHAMFERC
 40
0.0
  9
$CHAMFERD
 40
0.0
  9
$SKPOLY
 70
0
  9
$TDCREATE
 40
2461315.8955439813
  9
$TDUCREATE
 40
2458532.153996898
  9
$TDUPDATE
 40
2461315.8955439813
  9
$TDUUPDATE
 40
2458532.1544311
  9
$TDINDWG
 40
0.0
  9
$TDUSRTIMER
 40
0.0
  9
$USRTIMER
 70
1
  9
$ANGBASE
 50
0.0
  9
$ANGDIR
 70
0
  9
$PDMODE
 70
0
  9
$PDSIZE
 40
0.0
  9
$PLINEWID
 40
0.0
  9
$SPLFRAME
 70
0
  9
$SPLINETYPE
 70
6
  9
$SPLINESEGS
 70
8
  9
$HANDSEED
  5
1E8
  9
$SURFTAB1
 70
6
  9
$SURFTAB2
 70
6
  9
$SURFTYPE
 70
6
  9
$SURFU
 70
6
  9
$SURFV
 70
6
  9
$UCSBASE
  2

  9
$UCSNAME
  2

  9
$UCSORG
 10
0.0
 20
0.0
 30
0.0
  9
$UCSXDIR
 10
1.0
 20
0.0
 30
0.0
  9
$UCSYDIR
 10
0.0
 20
1.0
 30
0.0
  9
$UCSORTHOREF
  2

  9
$UCSORTHOVIEW
 70
0
  9
$UCSORGTOP
 10
0.0
 20
0.0
 30
0.0
  9
$UCSORGBOTTOM
 10
0.0
 20
0.0
 30
0.0
  9
$UCSORGLEFT
 10
0.0
 20
0.0
 30
0.0
  9
$UCSORGRIGHT
 10
0.0
 20
0.0
 30
0.0
  9
$UCSORGFRONT
 10
0.0
 20
0.0
 30
0.0
  9
$UCSORGBACK
 10
0.0
 20
0.0
 30
0.0
  9
$PUCSBASE
  2

  9
$PUCSNAME
  2

  9
$PUCSORG
 10
0.0
 20
0.0
 30
0.0
  9
$PUCSXDIR
 10
1.0
 20
0.0
 30
0.0
  9
$PUCSYDIR
 10
0.0
 20
1.0
 30
0.0
  9
$PUCSORTHOREF
  2

  9
$PUCSORTHOVIEW
 70
0
  9
$PUCSORGTOP
 10
0.0
 20
0.0
 30
0.0
  9
$PUCSORGBOTTOM
 10
0.0
 20
0.0
 30
0.0
  9
$PUCSORGLEFT
 10
0.0
 20
0.0
 30
0.0
  9
$PUCSORGRIGHT
 10
0.0
 20
0.0
 30
0.0
  9
$PUCSORGFRONT
 10
0.0
 20
0.0
 30
0.0
  9
$PUCSORGBACK
 10
0.0
 20
0.0
 30
0.0
  9
$USERI1
 70
0
  9
$USERI2
 70
0
  9
$USERI3
 70
0
  9
$USERI4
 70
0
  9
$USERI5
 70
0
  9
$USERR1
 40
0.0
  9
$USERR2
 40
0.0
  9
$USERR3
 40
0.0
  9
$USERR4
 40
0.0
  9
$USERR5
 40
0.0
  9
$WORLDVIEW
 70
1
  9
$SHADEDGE
 70
3
  9
$SHADEDIF
 70
70
  9
$TILEMODE
 70
1
  9
$MAXACTVP
 70
64
  9
$PINSBASE
 10
0.0
 20
0.0
 30
0.0
  9
$PLIMCHECK
 70
0
  9
$PEXTMIN
 10
1e+20
 20
1e+20
 30
1e+20
  9
$PEXTMAX
 10
-1e+20
 20
-1e+20
 30
-1e+20
  9
$PLIMMIN
 10
0.0
 20
0.0
  9
$PLIMMAX
 10
420.0
 20
297.0
  9
$UNITMODE
 70
0
  9
$VISRETAIN
 70
1
  9
$PLINEGEN
 70
0
  9
$PSLTSCALE
 70
1
  9
$TREEDEPTH
 70
3020
  9
$CMLSTYLE
  2
Standard
  9
$CMLJUST
 70
0
  9
$CMLSCALE
 40
20.0
  9
$PROXYGRAPHICS
 70
1
  9
$MEASUREMENT
 70
1
  9
$CELWEIGHT
370
-1
  9
$ENDCAPS
280
0
  9
$JOINSTYLE
280
0
  9
$LWDISPLAY
290
0
  9
$INSUNITS
 70
4
  9
$HYPERLINKBASE
  1

  9
$STYLESHEET
  1

  9
$XEDIT
290
1
  9
$CEPSNTYPE
380
0
  9
$PSTYLEMODE
290
1
  9
$FINGERPRINTGUID
  2
{DA54D707-9170-49BC-93C0-7DA063C108DA}
  9
$VERSIONGUID
  2
{6BA3E94A-B809-4DA2-8DA4-B175BF4901D3}
  9
$EXTNAMES
290
1
  9
$PSVPSCALE
 40
0.0
  9
$OLESTARTUP
290
0
  9
$SORTENTS
280
127
  9
$INDEXCTL
280
0
  9
$HIDETEXT
280
1
  9
$XCLIPFRAME
280
1
  9
$HALOGAP
280
0
  9
$OBSCOLOR
 70
257
  9
$OBSLTYPE
280
0
  9
$INTERSECTIONDISPLAY
280
0
  9
$INTERSECTIONCOLOR
 70
257
  9
$DIMASSOC
280
2
  9
$PROJECTNAME
  1

  9
$CAMERADISPLAY
290
0
  9
$LENSLENGTH
 40
50.0
  9
$CAMERAHEIGHT
 40
0.0
  9
$STEPSPERSEC
 40
24.0
  9
$STEPSIZE
 40
100.0
  9
$3DDWFPREC
 40
2.0
  9
$PSOLWIDTH
 40
0.005
  9
$PSOLHEIGHT
 40
0.08
  9
$LOFTANG1
 40
1.570796326795
  9
$LOFTANG2
 40
1.570796326795
  9
$LOFTMAG1
 40
0.0
  9
$LOFTMAG2
 40
0.0
  9
$LOFTPARAM
 70
7
  9
$LOFTNORMALS
280
1
  9
$LATITUDE
 40
37.795
  9
$LONGITUDE
 40
-122.394
  9
$NORTHDIRECTION
 40
0.0
  9
$TIMEZONE
 70
-8000
  9
$LIGHTGLYPHDISPLAY
280
1
  9
$TILEMODELIGHTSYNCH
280
1
  9
$CMATERIAL
347
20
  9
$SOLIDHIST
280
0
  9
$SHOWHIST
280
1
  9
$DWFFRAME
280
2
  9
$DGNFRAME
280
2
  9
$REALWORLDSCALE
290
1
  9
$INTERFERECOLOR
 62
256
  9
$CSHADOW
280
0
  9
$SHADOWPLANELOCATION
 40
0.0
  0
ENDSEC
  0
SECTION
  2
CLASSES
  0
CLASS
  1
ACDBDICTIONARYWDFLT
  2
AcDbDictionaryWithDefault
  3
ObjectDBX Classes
 90
0
 91
0
280
0
281
0
  0
CLASS
  1
SUN
  2
AcDbSun
  3
SCENEOE
 90
1153
 91
0
280
0
281
0
  0
CLASS
  1
VISUALSTYLE
  2
AcDbVisualStyle
  3
ObjectDBX Classes
 90
4095
 91
0
280
0
281
0
  0
CLASS
  1
MATERIAL
  2
AcDbMaterial
  3
ObjectDBX Classes
 90
1153
 91
0
280
0
281
0
  0
CLASS
  1
SCALE
  2
AcDbScale
  3
ObjectDBX Classes
 90
1153
 91
0
280
0
281
0
  0
CLASS
  1
TABLESTYLE
  2
AcDbTableStyle
  3
ObjectDBX Classes
 90
4095
 91
0
280
0
281
0
  0
CLASS
  1
MLEADERSTYLE
  2
AcDbMLeaderStyle
  3
ACDB_MLEADERSTYLE_CLASS
 90
4095
 91
0
280
0
281
0
  0
CLASS
  1
DICTIONARYVAR
  2
AcDbDictionaryVar
  3
ObjectDBX Classes
 90
0
 91
0
280
0
281
0
  0
CLASS
  1
CELLSTYLEMAP
  2
AcDbCellStyleMap
  3
ObjectDBX Classes
 90
1152
 91
0
280
0
281
0
  0
CLASS
  1
MENTALRAYRENDERSETTINGS
  2
AcDbMentalRayRenderSettings
  3
SCENEOE
 90
1024
 91
0
280
0
281
0
  0
CLASS
  1
ACDBDETAILVIEWSTYLE
  2
AcDbDetailViewStyle
  3
ObjectDBX Classes
 90
1025
 91
0
280
0
281
0
  0
CLASS
  1
ACDBSECTIONVIEWSTYLE
  2
AcDbSectionViewStyle
  3
ObjectDBX Classes
 90
1025
 91
0
280
0
281
0
  0
CLASS
  1
RASTERVARIABLES
  2
AcDbRasterVariables
  3
ISM
 90
0
 91
0
280
0
281
0
  0
CLASS
  1
LAYOUT
  2
AcDbLayout
  3
ObjectDBX Classes
 90
0
 91
0
280
0
281
0
  0
CLASS
  1
ACDBPLACEHOLDER
  2
AcDbPlaceHolder
  3
ObjectDBX Classes
 90
0
 91
0
280
0
281
0
  0
ENDSEC
  0
SECTION
  2
TABLES
  0
TABLE
  2
VPORT
  5
8
330
0
100
AcDbSymbolTable
 70
1
  0
VPORT
  5
1E4
330
8
100
AcDbSymbolTableRecord
100
AcDbViewportTableRecord
  2
*Active
 70
0
 10
0.0
 20
0.0
 11
1.0
 21
1.0
 12
-5.572426424050519
 22
-6.4847270413535085
 13
0.0
 23
0.0
 14
0.5
 24
0.5
 15
0.5
 25
0.5
 16
0.0
 26
0.0
 36
1.0
 17
0.0
 27
0.0
 37
0.0
 40
160.96412744352068
 41
1.34
 42
50.0
 43
0.0
 44
0.0
 50
0.0
 51
0.0
 71
0
 72
1000
 73
1
 74
3
 75
0
 76
0
 77
0
 78
0
281
0
 65
1
110
0.0
120
0.0
130
0.0
111
1.0
121
0.0
131
0.0
112
0.0
122
1.0
132
0.0
 79
0
146
0.0
  0
ENDTAB
  0
TABLE
  2
LTYPE
  5
2
330
0
100
AcDbSymbolTable
 70
3
  0
LTYPE
  5
24
330
2
100
AcDbSymbolTableRecord
100
AcDbLinetypeTableRecord
  2
ByBlock
 70
0
  3

 72
65
 73
0
 40
0.0
  0
LTYPE
  5
25
330
2
100
AcDbSymbolTableRecord
100
AcDbLinetypeTableRecord
  2
ByLayer
 70
0
  3

 72
65
 73
0
 40
0.0
  0
LTYPE
  5
26
330
2
100
AcDbSymbolTableRecord
100
AcDbLinetypeTableRecord
  2
Continuous
 70
0
  3

 72
65
 73
0
 40
0.0
  0
ENDTAB
  0
TABLE
  2
LAYER
  5
1
330
0
100
AcDbSymbolTable
 70
3
  0
LAYER
  5
27
330
1
100
AcDbSymbolTableRecord
100
AcDbLayerTableRecord
  2
0
 70
0
 62
7
  6
Continuous
370
-3
390
13
347
21
  0
LAYER
  5
28
330
1
100
AcDbSymbolTableRecord
100
AcDbLayerTableRecord
  2
Defpoints
 70
0
 62
7
  6
Continuous
290
0
370
-3
390
13
347
21
  0
LAYER
  5
2F
330
1
100
AcDbSymbolTableRecord
100
AcDbLayerTableRecord
  2
visible
 70
0
 62
7
  6
Continuous
370
-3
390
13
347
21
  0
ENDTAB
  0
TABLE
  2
STYLE
  5
5
330
0
100
AcDbSymbolTable
 70
1
  0
STYLE
  5
29
330
5
100
AcDbSymbolTableRecord
100
AcDbTextStyleTableRecord
  2
Standard
 70
0
 40
0.0
 41
1.0
 50
0.0
 71
0
 42
2.5
  3
txt
  4

  0
ENDTAB
  0
TABLE
  2
VIEW
  5
7
330
0
100
AcDbSymbolTable
 70
0
  0
ENDTAB
  0
TABLE
  2
UCS
  5
6
330
0
100
AcDbSymbolTable
 70
0
  0
ENDTAB
  0
TABLE
  2
APPID
  5
3
330
0
100
AcDbSymbolTable
 70
3
  0
APPID
  5
2A
330
3
100
AcDbSymbolTableRecord
100
AcDbRegAppTableRecord
  2
ACAD
 70
0
  0
APPID
  5
1E5
330
3
100
AcDbSymbolTableRecord
100
AcDbRegAppTableRecord
  2
HATCHBACKGROUNDCOLOR
 70
0
  0
APPID
  5
1E6
330
3
100
AcDbSymbolTableRecord
100
AcDbRegAppTableRecord
  2
EZDXF
 70
0
  0
ENDTAB
  0
TABLE
  2
DIMSTYLE
  5
4
330
0
100
AcDbSymbolTable
 70
1
100
AcDbDimStyleTable
  0
DIMSTYLE
105
2B
330
4
100
AcDbSymbolTableRecord
100
AcDbDimStyleTableRecord
  2
Standard
 70
0
 40
1.0
 41
2.5
 42
0.625
 43
3.75
 44
1.25
 45
0.0
 46
0.0
 47
0.0
 48
0.0
 49
2.5
140
2.5
141
2.5
142
0.0
143
0.03937007874
144
1.0
145
0.0
146
1.0
147
0.625
148
0.0
 69
0
 70
0
 71
0
 72
0
 73
0
 74
0
 75
0
 76
0
 77
1
 78
8
 79
3
170
0
171
3
172
1
173
0
174
0
175
0
176
0
177
0
178
0
179
2
271
2
272
2
273
2
274
3
275
0
276
0
277
2
278
44
279
0
280
0
281
0
282
0
283
0
284
8
285
0
286
0
288
0
289
3
290
0
371
-2
372
-2
  0
ENDTAB
  0
TABLE
  2
BLOCK_RECORD
  5
9
330
0
100
AcDbSymbolTable
 70
2
  0
BLOCK_RECORD
  5
17
330
9
100
AcDbSymbolTableRecord
100
AcDbBlockTableRecord
  2
*Model_Space
340
1A
 70
0
280
1
281
0
  0
BLOCK_RECORD
  5
1B
330
9
100
AcDbSymbolTableRecord
100
AcDbBlockTableRecord
  2
*Paper_Space
340
1E
 70
0
280
1
281
0
  0
ENDTAB
  0
ENDSEC
  0
SECTION
  2
BLOCKS
  0
BLOCK
  5
18
330
17
100
AcDbEntity
  8
0
100
AcDbBlockBegin
  2
*Model_Space
 70
0
 10
0.0
 20
0.0
 30
0.0
  3
*Model_Space
  1

  0
ENDBLK
  5
19
330
17
100
AcDbEntity
  8
0
100
AcDbBlockEnd
  0
BLOCK
  5
1C
330
1B
100
AcDbEntity
  8
0
100
AcDbBlockBegin
  2
*Paper_Space
 70
0
 10
0.0
 20
0.0
 30
0.0
  3
*Paper_Space
  1

  0
ENDBLK
  5
1D
330
1B
100
AcDbEntity
  8
0
100
AcDbBlockEnd
  0
ENDSEC
  0
SECTION
  2
ENTITIES
  0
ELLIPSE
  5
30
330
17
100
AcDbEntity
  8
visible
100
AcDbEllipse
 10
-63.7671328927823
 20
-26.742414354292286
 30
0.0
 11
8.0
 21
-2.417844894711718e-16
 31
0.0
 40
0.3957517648521873
 41
2.5638936524564864
 42
3.141592653589793
  0
ELLIPSE
  5
31
330
17
100
AcDbEntity
  8
visible
100
AcDbEllipse
 10
-63.7671328927823
 20
-26.742414354292286
 30
0.0
 11
8.0
 21
-2.417844894711718e-16
 31
0.0
 40
0.3957517648521873
 41
3.141592653589793
 42
4.134689979251383
  0
LINE
  5
32
330
17
100
AcDbEntity
  8
visible
100
AcDbLine
 10
-68.13591519757296
 20
-29.394652251138204
 30
0.0
 11
8.9344569967747
 21
-49.27761528596116
 31
0.0
  0
ELLIPSE
  5
33
330
17
100
AcDbEntity
  8
visible
100
AcDbEllipse
 10
13.303239301565352
 20
-46.62537738911524
 30
0.0
 11
-8.0
 21
2.417844894711718e-16
 31
0.0
 40
0.3957517648521873
 41
-5.290087981517996
 42
-3.7192916547231
  0
ELLIPSE
  5
34
330
17
100
AcDbEntity
  8
visible
100
AcDbEllipse
 10
52.62228004468126
 20
-22.755236317502003
 30
0.0
 11
8.0
 21
-2.417844894711718e-16
 31
0.0
 40
0.3957517648521873
 41
5.7054863060462795
 42
6.283185307179586
  0
LINE
  5
35
330
17
100
AcDbEntity
  8
visible
100
AcDbLine
 10
20.005010796726022
 20
-48.35433069649115
 30
0.0
 11
59.32405153984193
 21
-24.48418962487791
 31
0.0
  0
ELLIPSE
  5
36
330
17
100
AcDbEntity
  8
visible
100
AcDbEllipse
 10
52.62228004468126
 20
-28.08170995268832
 30
0.0
 11
8.0
 21
-2.417844894711718e-16
 31
0.0
 40
0.3957517648521873
 41
5.7054863060462795
 42
6.283185307179586
  0
LINE
  5
37
330
17
100
AcDbEntity
  8
visible
100
AcDbLine
 10
59.32405153984193
 20
-29.810663260064235
 30
0.0
 11
20.005010796726022
 21
-53.68080433167747
 31
0.0
  0
ELLIPSE
  5
38
330
17
100
AcDbEntity
  8
visible
100
AcDbEllipse
 10
13.303239301565352
 20
-51.95185102430156
 30
0.0
 11
8.0
 21
-2.417844894711718e-16
 31
0.0
 40
0.3957517648521873
 41
4.134689979251383
 42
5.7054863060462795
  0
LINE
  5
39
330
17
100
AcDbEntity
  8
visible
100
AcDbLine
 10
-68.13591519757297
 20
-34.72112588632453
 30
0.0
 11
8.9344569967747
 21
-54.60408892114748
 31
0.0
  0
ELLIPSE
  5
3A
330
17
100
AcDbEntity
  8
visible
100
AcDbEllipse
 10
-63.7671328927823
 20
-32.06888798947861
 30
0.0
 11
8.0
 21
-2.417844894711718e-16
 31
0.0
 40
0.3957517648521873
 41
3.141592653589793
 42
4.134689979251383
  0
ELLIPSE
  5
3B
330
17
100
AcDbEntity
  8
visible
100
AcDbEllipse
 10
25.137215519424423
 20
-67.86021001606048
 30
0.0
 11
-0.7494161867663726
 21
-2.9048881870069545
 31
0.0
 40
0.5015130121624133
 41
1.0402683386765348
 42
2.1013243149132594
  0
LINE
  5
3C
330
17
100
AcDbEntity
  8
visible
100
AcDbLine
 10
-46.81116806624201
 20
-60.6101175726196
 30
0.0
 11
-46.81116806624201
 21
-61.9479466027853
 31
0.0
  0
LINE
  5
3D
330
17
100
AcDbEntity
  8
visible
100
AcDbLine
 10
-46.811168066242004
 20
-61.9479466027853
 30
0.0
 11
-44.26085424606309
 21
-62.605888091454204
 31
0.0
  0
LINE
  5
3E
330
17
100
AcDbEntity
  8
visible
100
AcDbLine
 10
-38.43395369729118
 20
-62.77130920683949
 30
0.0
 11
-38.43395369729118
 21
-64.1091382370052
 31
0.0
  0
LINE
  5
3F
330
17
100
AcDbEntity
  8
visible
100
AcDbLine
 10
-38.43395369729117
 20
-64.1091382370052
 30
0.0
 11
-35.88363987711226
 21
-64.7670797256741
 31
0.0
  0
LINE
  5
40
330
17
100
AcDbEntity
  8
visible
100
AcDbLine
 10
-30.056739328340345
 20
-64.93250084105938
 30
0.0
 11
-30.056739328340345
 21
-66.27032987122509
 31
0.0
  0
LINE
  5
41
330
17
100
AcDbEntity
  8
visible
100
AcDbLine
 10
-30.056739328340342
 20
-66.27032987122507
 30
0.0
 11
-27.506425508161424
 21
-66.92827135989398
 31
0.0
  0
LINE
  5
42
330
17
100
AcDbEntity
  8
visible
100
AcDbLine
 10
-21.679524959389514
 20
-67.09369247527927
 30
0.0
 11
-21.679524959389514
 21
-68.43152150544498
 31
0.0
  0
LINE
  5
43
330
17
100
AcDbEntity
  8
visible
100
AcDbLine
 10
-21.67952495938951
 20
-68.43152150544496
 30
0.0
 11
-19.12921113921059
 21
-69.08946299411386
 31
0.0
  0
LINE
  5
44
330
17
100
AcDbEntity
  8
visible
100
AcDbLine
 10
-13.30231059043868
 20
-70.59271313966485
 30
0.0
 11
-10.751996770259755
 21
-71.25065462833375
 31
0.0
  0
LINE
  5
45
330
17
100
AcDbEntity
  8
visible
100
AcDbLine
 10
-13.30231059043868
 20
-69.25488410949914
 30
0.0
 11
-13.30231059043868
 21
-70.59271313966485
 31
0.0
  0
ELLIPSE
  5
46
330
17
100
AcDbEntity
  8
visible
100
AcDbEllipse
 10
-63.7671328927823
 20
-33.1709170174482
 30
0.0
 11
7.4
 21
-2.2365065276083393e-16
 31
0.0
 40
0.3957517648521873
 41
3.1776509412799476
 42
4.134689979251383
  0
LINE
  5
47
330
17
100
AcDbEntity
  8
visible
100
AcDbLine
 10
9.262115669634028
 20
-55.50720010685363
 30
0.0
 11
-67.80825652471366
 21
-35.62423707203067
 31
0.0
  0
ELLIPSE
  5
48
330
17
100
AcDbEntity
  8
visible
100
AcDbEllipse
 10
13.303239301565352
 20
-53.053880052271154
 30
0.0
 11
7.4
 21
-2.2365065276083393e-16
 31
0.0
 40
0.3957517648521873
 41
4.134689979251383
 42
5.7054863060462795
  0
LINE
  5
49
330
17
100
AcDbEntity
  8
visible
100
AcDbLine
 10
19.50237793458897
 20
-54.653161861593865
 30
0.0
 11
58.82141867770489
 21
-30.783020789980625
 31
0.0
  0
ELLIPSE
  5
4A
330
17
100
AcDbEntity
  8
visible
100
AcDbEllipse
 10
52.62228004468126
 20
-29.183738980657907
 30
0.0
 11
7.4
 21
-2.2365065276083393e-16
 31
0.0
 40
0.3957517648521873
 41
5.7054863060462795
 42
6.24712701948943
  0
ELLIPSE
  5
4B
330
17
100
AcDbEntity
  8
visible
100
AcDbEllipse
 10
27.65037983010967
 20
-68.50856750632644
 30
0.0
 11
-0.7494161867663726
 21
-2.9048881870069545
 31
0.0
 40
0.5015130121624133
 41
0.4751109517785175
 42
3.141592653589793
  0
ELLIPSE
  5
4C
330
17
100
AcDbEntity
  8
visible
100
AcDbEllipse
 10
27.65037983010967
 20
-68.50856750632644
 30
0.0
 11
-0.7494161867663726
 21
-2.9048881870069545
 31
0.0
 40
0.5015130121624133
 41
3.141592653589793
 42
6.283185307179586
  0
ELLIPSE
  5
4D
330
17
100
AcDbEntity
  8
visible
100
AcDbEllipse
 10
27.65037983010967
 20
-68.50856750632644
 30
0.0
 11
-0.7494161867663726
 21
-2.9048881870069545
 31
0.0
 40
0.5015130121624133
 41
0.0
 42
0.47511095177851725
  0
LINE
  5
4E
330
17
100
AcDbEntity
  8
visible
100
AcDbLine
 10
-48.44946143053851
 20
-60.18746324417856
 30
0.0
 11
-44.2608542460631
 21
-61.268059061288504
 31
0.0
  0
LINE
  5
4F
330
17
100
AcDbEntity
  8
visible
100
AcDbLine
 10
-48.449461430538506
 20
-62.94253581410253
 30
0.0
 11
-46.811168066242004
 21
-61.94794660278531
 31
0.0
  0
LINE
  5
50
330
17
100
AcDbEntity
  8
visible
100
AcDbLine
 10
-48.449461430538506
 20
-60.18746324417856
 30
0.0
 11
-48.449461430538506
 21
-62.94253581410252
 31
0.0
  0
LINE
  5
51
330
17
100
AcDbEntity
  8
visible
100
AcDbLine
 10
-44.26085424606309
 20
-61.26805906128851
 30
0.0
 11
-44.26085424606309
 21
-64.02313163121246
 31
0.0
  0
LINE
  5
52
330
17
100
AcDbEntity
  8
visible
100
AcDbLine
 10
-48.44946143053851
 20
-62.94253581410252
 30
0.0
 11
-44.2608542460631
 21
-64.02313163121246
 31
0.0
  0
LINE
  5
53
330
17
100
AcDbEntity
  8
visible
100
AcDbLine
 10
-40.072247061587674
 20
-62.34865487839845
 30
0.0
 11
-35.88363987711226
 21
-63.429250695508394
 31
0.0
  0
LINE
  5
54
330
17
100
AcDbEntity
  8
visible
100
AcDbLine
 10
-40.072247061587674
 20
-65.1037274483224
 30
0.0
 11
-38.43395369729117
 21
-64.10913823700518
 31
0.0
  0
LINE
  5
55
330
17
100
AcDbEntity
  8
visible
100
AcDbLine
 10
-40.072247061587674
 20
-62.34865487839845
 30
0.0
 11
-40.072247061587674
 21
-65.1037274483224
 31
0.0
  0
LINE
  5
56
330
17
100
AcDbEntity
  8
visible
100
AcDbLine
 10
-35.88363987711226
 20
-63.42925069550839
 30
0.0
 11
-35.88363987711226
 21
-66.18432326543234
 31
0.0
  0
LINE
  5
57
330
17
100
AcDbEntity
  8
visible
100
AcDbLine
 10
-40.072247061587674
 20
-65.10372744832242
 30
0.0
 11
-35.88363987711226
 21
-66.18432326543235
 31
0.0
  0
LINE
  5
58
330
17
100
AcDbEntity
  8
visible
100
AcDbLine
 10
-31.695032692636843
 20
-64.50984651261832
 30
0.0
 11
-27.506425508161424
 21
-65.59044232972828
 31
0.0
  0
LINE
  5
59
330
17
100
AcDbEntity
  8
visible
100
AcDbLine
 10
-31.695032692636843
 20
-67.26491908254229
 30
0.0
 11
-30.056739328340345
 21
-66.27032987122507
 31
0.0
  0
LINE
  5
5A
330
17
100
AcDbEntity
  8
visible
100
AcDbLine
 10
-31.69503269263684
 20
-64.50984651261834
 30
0.0
 11
-31.69503269263684
 21
-67.26491908254229
 31
0.0
  0
LINE
  5
5B
330
17
100
AcDbEntity
  8
visible
100
AcDbLine
 10
-27.506425508161424
 20
-65.59044232972828
 30
0.0
 11
-27.506425508161424
 21
-68.34551489965223
 31
0.0
  0
LINE
  5
5C
330
17
100
AcDbEntity
  8
visible
100
AcDbLine
 10
-31.695032692636843
 20
-67.26491908254229
 30
0.0
 11
-27.506425508161424
 21
-68.34551489965224
 31
0.0
  0
LINE
  5
5D
330
17
100
AcDbEntity
  8
visible
100
AcDbLine
 10
-23.31781832368601
 20
-66.67103814683821
 30
0.0
 11
-19.129211139210593
 21
-67.75163396394817
 31
0.0
  0
LINE
  5
5E
330
17
100
AcDbEntity
  8
visible
100
AcDbLine
 10
-23.317818323686012
 20
-69.42611071676218
 30
0.0
 11
-21.679524959389514
 21
-68.43152150544496
 31
0.0
  0
LINE
  5
5F
330
17
100
AcDbEntity
  8
visible
100
AcDbLine
 10
-23.31781832368601
 20
-66.67103814683823
 30
0.0
 11
-23.31781832368601
 21
-69.42611071676218
 31
0.0
  0
LINE
  5
60
330
17
100
AcDbEntity
  8
visible
100
AcDbLine
 10
-19.12921113921059
 20
-67.75163396394817
 30
0.0
 11
-19.12921113921059
 21
-70.50670653387212
 31
0.0
  0
LINE
  5
61
330
17
100
AcDbEntity
  8
visible
100
AcDbLine
 10
-23.31781832368601
 20
-69.42611071676218
 30
0.0
 11
-19.129211139210593
 21
-70.50670653387212
 31
0.0
  0
LINE
  5
62
330
17
100
AcDbEntity
  8
visible
100
AcDbLine
 10
-14.940603954735177
 20
-68.8322297810581
 30
0.0
 11
-10.751996770259758
 21
-69.91282559816806
 31
0.0
  0
LINE
  5
63
330
17
100
AcDbEntity
  8
visible
100
AcDbLine
 10
-10.751996770259758
 20
-69.91282559816806
 30
0.0
 11
-10.751996770259758
 21
-72.66789816809201
 31
0.0
  0
LINE
  5
64
330
17
100
AcDbEntity
  8
visible
100
AcDbLine
 10
-14.940603954735176
 20
-71.58730235098207
 30
0.0
 11
-13.30231059043868
 21
-70.59271313966485
 31
0.0
  0
LINE
  5
65
330
17
100
AcDbEntity
  8
visible
100
AcDbLine
 10
-14.940603954735177
 20
-71.58730235098207
 30
0.0
 11
-10.751996770259758
 21
-72.66789816809201
 31
0.0
  0
LINE
  5
66
330
17
100
AcDbEntity
  8
visible
100
AcDbLine
 10
-14.940603954735174
 20
-68.8322297810581
 30
0.0
 11
-14.940603954735174
 21
-71.58730235098206
 31
0.0
  0
ELLIPSE
  5
67
330
17
100
AcDbEntity
  8
visible
100
AcDbEllipse
 10
52.62228004468126
 20
-29.183738980657907
 30
0.0
 11
8.0
 21
-2.417844894711718e-16
 31
0.0
 40
0.3957517648521873
 41
5.7054863060462795
 42
6.283185307179586
  0
ELLIPSE
  5
68
330
17
100
AcDbEntity
  8
visible
100
AcDbEllipse
 10
52.62228004468126
 20
-29.183738980657907
 30
0.0
 11
8.0
 21
-2.417844894711718e-16
 31
0.0
 40
0.3957517648521873
 41
1.1102230246251565e-16
 42
0.17493126041189055
  0
LINE
  5
69
330
17
100
AcDbEntity
  8
visible
100
AcDbLine
 10
59.32405153984193
 20
-30.91269228803382
 30
0.0
 11
20.005010796726022
 21
-54.78283335964706
 31
0.0
  0
ELLIPSE
  5
6A
330
17
100
AcDbEntity
  8
visible
100
AcDbEllipse
 10
13.303239301565352
 20
-53.053880052271154
 30
0.0
 11
8.0
 21
-2.417844894711718e-16
 31
0.0
 40
0.3957517648521873
 41
4.134689979251383
 42
5.7054863060462795
  0
LINE
  5
6B
330
17
100
AcDbEntity
  8
visible
100
AcDbLine
 10
-68.13591519757297
 20
-35.823154914294115
 30
0.0
 11
8.9344569967747
 21
-55.70611794911707
 31
0.0
  0
ELLIPSE
  5
6C
330
17
100
AcDbEntity
  8
visible
100
AcDbEllipse
 10
-63.7671328927823
 20
-33.1709170174482
 30
0.0
 11
8.0
 21
-2.417844894711718e-16
 31
0.0
 40
0.3957517648521873
 41
2.966661393177903
 42
3.141592653589793
  0
ELLIPSE
  5
6D
330
17
100
AcDbEntity
  8
visible
100
AcDbEllipse
 10
-63.7671328927823
 20
-33.1709170174482
 30
0.0
 11
8.0
 21
-2.417844894711718e-16
 31
0.0
 40
0.3957517648521873
 41
3.141592653589793
 42
4.134689979251383
  0
LINE
  5
6E
330
17
100
AcDbEntity
  8
visible
100
AcDbLine
 10
20.005010796726022
 20
-85.08863162881062
 30
0.0
 11
59.32405153984193
 21
-61.218490557197384
 31
0.0
  0
LINE
  5
6F
330
17
100
AcDbEntity
  8
visible
100
AcDbLine
 10
-68.13591519757296
 20
-66.12895318345765
 30
0.0
 11
8.9344569967747
 21
-86.01191621828062
 31
0.0
  0
LINE
  5
70
330
17
100
AcDbEntity
  8
visible
100
AcDbLine
 10
-68.13591519757296
 20
-53.73112661879985
 30
0.0
 11
-59.75870082862213
 21
-55.89231825301973
 31
0.0
  0
LINE
  5
71
330
17
100
AcDbEntity
  8
visible
100
AcDbLine
 10
-59.758700828622125
 20
-44.872027973323895
 30
0.0
 11
-59.758700828622125
 21
-55.89231825301973
 31
0.0
  0
LINE
  5
72
330
17
100
AcDbEntity
  8
visible
100
AcDbLine
 10
-68.13591519757296
 20
-42.710836339104006
 30
0.0
 11
-59.75870082862213
 21
-44.872027973323895
 31
0.0
  0
LINE
  5
73
330
17
100
AcDbEntity
  8
visible
100
AcDbLine
 10
-34.48839187563188
 20
-51.701905123747935
 30
0.0
 11
-34.48839187563188
 21
-52.37049451205468
 31
0.0
  0
SPLINE
  5
74
330
17
100
AcDbEntity
  8
visible
100
AcDbSpline
 70
0
 71
2
 72
6
 73
3
 74
0
 40
0.0
 40
0.0
 40
0.0
 40
1.0
 40
1.0
 40
1.0
 10
-34.48839187563189
 20
-51.701905123747935
 30
0.0
 10
-34.784984906793554
 20
-51.40318219045412
 30
0.0
 10
-35.12547739221591
 20
-51.20325222791988
 30
0.0
  0
SPLINE
  5
75
330
17
100
AcDbEntity
  8
visible
100
AcDbSpline
 70
0
 71
2
 72
6
 73
3
 74
0
 40
0.0
 40
0.0
 40
0.0
 40
1.0
 40
1.0
 40
1.0
 10
-35.111160863753355
 20
-51.76410349424309
 30
0.0
 10
-34.77262157026556
 20
-52.0046427585537
 30
0.0
 10
-34.48839187563189
 20
-52.37049451205467
 30
0.0
  0
SPLINE
  5
76
330
17
100
AcDbEntity
  8
visible
100
AcDbSpline
 70
0
 71
2
 72
6
 73
3
 74
0
 40
0.0
 40
0.0
 40
0.0
 40
1.0
 40
1.0
 40
1.0
 10
-35.12547739221591
 20
-51.203252227919876
 30
0.0
 10
-35.471133578472916
 20
-51.001695728020024
 30
0.0
 10
-35.84846207957532
 20
-50.90530180512183
 30
0.0
  0
SPLINE
  5
77
330
17
100
AcDbEntity
  8
visible
100
AcDbSpline
 70
0
 71
2
 72
6
 73
3
 74
0
 40
0.0
 40
0.0
 40
0.0
 40
1.0
 40
1.0
 40
1.0
 10
-35.81410241126517
 20
-51.435226342139075
 30
0.0
 10
-35.4450721488886
 20
-51.529819630896654
 30
0.0
 10
-35.111160863753355
 20
-51.76410349424308
 30
0.0
  0
SPLINE
  5
78
330
17
100
AcDbEntity
  8
visible
100
AcDbSpline
 70
0
 71
3
 72
8
 73
4
 74
0
 40
0.0
 40
0.0
 40
0.0
 40
0.0
 40
0.8392465720845899
 40
0.8392465720845899
 40
0.8392465720845899
 40
0.8392465720845899
 10
-35.84846207957532
 20
-50.90530180512182
 30
0.0
 10
-36.33139598855366
 20
-50.77771208569561
 30
0.0
 10
-36.81222067435179
 20
-50.78663895121629
 30
0.0
 10
-37.17950732586056
 20
-51.013882879335945
 30
0.0
  0
SPLINE
  5
79
330
17
100
AcDbEntity
  8
visible
100
AcDbSpline
 70
0
 71
2
 72
6
 73
3
 74
0
 40
0.0
 40
0.0
 40
0.0
 40
1.0
 40
1.0
 40
1.0
 10
-37.17950732586056
 20
-51.013882879335945
 30
0.0
 10
-37.28502680865513
 20
-51.078058069904294
 30
0.0
 10
-37.37746731937699
 20
-51.16216746417136
 30
0.0
  0
SPLINE
  5
7A
330
17
100
AcDbEntity
  8
visible
100
AcDbSpline
 70
0
 71
2
 72
6
 73
3
 74
0
 40
0.0
 40
0.0
 40
0.0
 40
0.18749376280188065
 40
0.18749376280188065
 40
0.18749376280188065
 10
-36.93651824273007
 20
-51.63690099172597
 30
0.0
 10
-36.860834465674586
 20
-51.560836439199896
 30
0.0
 10
-36.77086545460701
 20
-51.50611102218694
 30
0.0
  0
SPLINE
  5
7B
330
17
100
AcDbEntity
  8
visible
100
AcDbSpline
 70
0
 71
3
 72
8
 73
4
 74
0
 40
0.0
 40
0.0
 40
0.0
 40
0.0
 40
1.0
 40
1.0
 40
1.0
 40
1.0
 10
-36.770865454607026
 20
-51.50611102218694
 30
0.0
 10
-36.5110287829578
 20
-51.34586158464768
 30
0.0
 10
-36.16684269637174
 20
-51.34250886466627
 30
0.0
 10
-35.814102411265175
 20
-51.435226342139075
 30
0.0
  0
SPLINE
  5
7C
330
17
100
AcDbEntity
  8
visible
100
AcDbSpline
 70
0
 71
3
 72
11
 73
7
 74
0
 40
0.0
 40
0.0
 40
0.0
 40
0.0
 40
0.6298555326701425
 40
0.6298555326701425
 40
0.6298555326701425
 40
1.0
 40
1.0
 40
1.0
 40
1.0
 10
-37.377467319377004
 20
-51.16216746417136
 30
0.0
 10
-37.62863658002848
 20
-51.38794506887207
 30
0.0
 10
-37.79202057826083
 20
-51.717865965576316
 30
0.0
 10
-37.86973966164324
 20
-52.09570301109761
 30
0.0
 10
-37.915021229028376
 20
-52.31904801223113
 30
0.0
 10
-37.937045318286295
 20
-52.553633266652525
 30
0.0
 10
-37.93581192941693
 20
-52.79945877436178
 30
0.0
  0
SPLINE
  5
7D
330
17
100
AcDbEntity
  8
visible
100
AcDbSpline
 70
0
 71
3
 72
8
 73
4
 74
0
 40
0.0
 40
0.0
 40
0.0
 40
0.0
 40
1.0
 40
1.0
 40
1.0
 40
1.0
 10
-37.32592781691176
 20
-52.95679943484136
 30
0.0
 10
-37.327131214977385
 20
-52.43014757364134
 30
0.0
 10
-37.22932314663581
 20
-51.92884301720832
 30
0.0
 10
-36.93651824273007
 20
-51.63690099172597
 30
0.0
  0
SPLINE
  5
7E
330
17
100
AcDbEntity
  8
visible
100
AcDbSpline
 70
0
 71
3
 72
11
 73
7
 74
0
 40
0.0
 40
0.0
 40
0.0
 40
0.0
 40
0.36781947571318296
 40
0.36781947571318296
 40
0.36781947571318296
 40
1.0
 40
1.0
 40
1.0
 40
1.0
 10
-37.93581192941693
 20
-52.79945877436179
 30
0.0
 10
-37.93701732763422
 20
-53.04269221586964
 30
0.0
 10
-37.91524858797804
 20
-53.28669428747617
 30
0.0
 10
-37.87050571044823
 20
-53.53146498918126
 30
0.0
 10
-37.79298366028986
 20
-53.950306438719814
 30
0.0
 10
-37.629246639297804
 20
-54.365483375302205
 30
0.0
 10
-37.377467319377
 20
-54.72169970050867
 30
0.0
  0
SPLINE
  5
7F
330
17
100
AcDbEntity
  8
visible
100
AcDbSpline
 70
0
 71
3
 72
8
 73
4
 74
0
 40
0.0
 40
0.0
 40
0.0
 40
0.0
 40
1.0
 40
1.0
 40
1.0
 40
1.0
 10
-36.93651824273007
 20
-54.474482245384635
 30
0.0
 10
-37.2289149796471
 20
-54.03220232079775
 30
0.0
 10
-37.32717840149806
 20
-53.48174906757441
 30
0.0
 10
-37.32592781691176
 20
-52.95679943484136
 30
0.0
  0
SPLINE
  5
80
330
17
100
AcDbEntity
  8
visible
100
AcDbSpline
 70
0
 71
3
 72
11
 73
7
 74
0
 40
0.0
 40
0.0
 40
0.0
 40
0.0
 40
0.45830463551269063
 40
0.45830463551269063
 40
0.45830463551269063
 40
1.0
 40
1.0
 40
1.0
 40
1.0
 10
-37.37746731937699
 20
-54.72169970050867
 30
0.0
 10
-37.202277751694076
 20
-54.97214690422385
 30
0.0
 10
-36.98838092333567
 20
-55.18880052314642
 30
0.0
 10
-36.75099270974761
 20
-55.356489425742424
 30
0.0
 10
-36.47037592074702
 20
-55.55574934604762
 30
0.0
 10
-36.16079326154993
 20
-55.68714027238775
 30
0.0
 10
-35.84846207957532
 20
-55.76748472759668
 30
0.0
  0
SPLINE
  5
81
330
17
100
AcDbEntity
  8
visible
100
AcDbSpline
 70
0
 71
3
 72
11
 73
7
 74
0
 40
0.0
 40
0.0
 40
0.0
 40
0.0
 40
0.5601545193542434
 40
0.5601545193542434
 40
0.5601545193542434
 40
1.0
 40
1.0
 40
1.0
 40
1.0
 10
-35.81410241126517
 20
-55.25528871570389
 30
0.0
 10
-36.05765411039029
 20
-55.19264191206159
 30
0.0
 10
-36.295994146969846
 20
-55.08973076201267
 30
0.0
 10
-36.50665096083876
 20
-54.93284513171626
 30
0.0
 10
-36.67364299938806
 20
-54.80870265637699
 30
0.0
 10
-36.81693209335185
 20
-54.655915027599775
 30
0.0
 10
-36.936518242730074
 20
-54.474482245384635
 30
0.0
  0
SPLINE
  5
82
330
17
100
AcDbEntity
  8
visible
100
AcDbSpline
 70
0
 71
2
 72
6
 73
3
 74
0
 40
0.0
 40
0.0
 40
0.0
 40
1.0
 40
1.0
 40
1.0
 10
-35.84846207957531
 20
-55.76748472759668
 30
0.0
 10
-35.47549390295217
 20
-55.86446241073418
 30
0.0
 10
-35.131204003600935
 20
-55.83952518520744
 30
0.0
  0
SPLINE
  5
83
330
17
100
AcDbEntity
  8
visible
100
AcDbSpline
 70
0
 71
2
 72
6
 73
3
 74
0
 40
0.0
 40
0.0
 40
0.0
 40
1.0
 40
1.0
 40
1.0
 10
-35.111160863753355
 20
-55.289107640104454
 30
0.0
 10
-35.445072145611675
 20
-55.3511036176212
 30
0.0
 10
-35.81410241126517
 20
-55.255288715703884
 30
0.0
  0
SPLINE
  5
84
330
17
100
AcDbEntity
  8
visible
100
AcDbSpline
 70
0
 71
2
 72
6
 73
3
 74
0
 40
0.0
 40
0.0
 40
0.0
 40
1.0
 40
1.0
 40
1.0
 10
-35.13120400360094
 20
-55.83952518520744
 30
0.0
 10
-34.78956605063671
 20
-55.813398501598776
 30
0.0
 10
-34.48839187563189
 20
-55.66635769384847
 30
0.0
  0
SPLINE
  5
85
330
17
100
AcDbEntity
  8
visible
100
AcDbSpline
 70
0
 71
2
 72
6
 73
3
 74
0
 40
0.0
 40
0.0
 40
0.0
 40
0.2525613393758444
 40
0.2525613393758444
 40
0.2525613393758444
 10
-34.48839187563189
 20
-55.00404614017371
 30
0.0
 10
-34.55999089439477
 20
-55.05873035706975
 30
0.0
 10
-34.63526190935008
 20
-55.10447694060583
 30
0.0
  0
SPLINE
  5
86
330
17
100
AcDbEntity
  8
visible
100
AcDbSpline
 70
0
 71
2
 72
6
 73
3
 74
0
 40
0.0
 40
0.0
 40
0.0
 40
1.0
 40
1.0
 40
1.0
 10
-34.63526190935008
 20
-55.10447694060583
 30
0.0
 10
-34.85841909155598
 20
-55.24077349594461
 30
0.0
 10
-35.111160863753355
 20
-55.28910764010446
 30
0.0
  0
LINE
  5
87
330
17
100
AcDbEntity
  8
visible
100
AcDbLine
 10
-34.48839187563188
 20
-55.00404614017372
 30
0.0
 11
-34.48839187563188
 21
-55.666357693848475
 31
0.0
  0
LINE
  5
88
330
17
100
AcDbEntity
  8
visible
100
AcDbLine
 10
-34.1247520526828
 20
-56.12114663063806
 30
0.0
 11
-32.49266780795068
 21
-51.8557955495648
 31
0.0
  0
LINE
  5
89
330
17
100
AcDbEntity
  8
visible
100
AcDbLine
 10
-33.51486794017764
 20
-56.278487291117635
 30
0.0
 11
-34.124752052682794
 21
-56.12114663063805
 31
0.0
  0
LINE
  5
8A
330
17
100
AcDbEntity
  8
visible
100
AcDbLine
 10
-32.492667807950674
 20
-51.8557955495648
 30
0.0
 11
-31.836970804365315
 21
-52.02495522679403
 31
0.0
  0
LINE
  5
8B
330
17
100
AcDbEntity
  8
visible
100
AcDbLine
 10
-33.12545836599593
 20
-55.17674360146385
 30
0.0
 11
-33.51486794017763
 21
-56.27848729111764
 31
0.0
  0
LINE
  5
8C
330
17
100
AcDbEntity
  8
visible
100
AcDbLine
 10
-31.83697080436532
 20
-52.02495522679403
 30
0.0
 11
-30.20774986532571
 21
-57.131672562732284
 31
0.0
  0
LINE
  5
8D
330
17
100
AcDbEntity
  8
visible
100
AcDbLine
 10
-31.198453634935028
 20
-55.67388099349557
 30
0.0
 11
-33.12545836599594
 21
-55.17674360146384
 31
0.0
  0
LINE
  5
8E
330
17
100
AcDbEntity
  8
visible
100
AcDbLine
 10
-30.207749865325706
 20
-57.13167256273228
 30
0.0
 11
-30.80904406075333
 21
-56.976547967893254
 31
0.0
  0
LINE
  5
8F
330
17
100
AcDbEntity
  8
visible
100
AcDbLine
 10
-30.809044060753333
 20
-56.976547967893254
 30
0.0
 11
-31.19845363493503
 21
-55.67388099349557
 31
0.0
  0
LINE
  5
90
330
17
100
AcDbEntity
  8
visible
100
AcDbLine
 10
-29.583549224357988
 20
-57.29270666594613
 30
0.0
 11
-29.583549224357988
 21
-52.606303113166945
 31
0.0
  0
LINE
  5
91
330
17
100
AcDbEntity
  8
visible
100
AcDbLine
 10
-29.022341308625535
 20
-57.43748962112922
 30
0.0
 11
-29.583549224357984
 21
-57.29270666594613
 31
0.0
  0
LINE
  5
92
330
17
100
AcDbEntity
  8
visible
100
AcDbLine
 10
-29.583549224357988
 20
-52.60630311316694
 30
0.0
 11
-28.72169421091173
 21
-52.82864836576954
 31
0.0
  0
LINE
  5
93
330
17
100
AcDbEntity
  8
visible
100
AcDbLine
 10
-29.02234130862554
 20
-53.32236901986096
 30
0.0
 11
-29.02234130862554
 21
-57.43748962112921
 31
0.0
  0
LINE
  5
94
330
17
100
AcDbEntity
  8
visible
100
AcDbLine
 10
-28.721694210911725
 20
-52.82864836576954
 30
0.0
 11
-27.630774742064464
 21
-56.29922869517034
 31
0.0
  0
LINE
  5
95
330
17
100
AcDbEntity
  8
visible
100
AcDbLine
 10
-27.91996861700823
 20
-56.82101544197712
 30
0.0
 11
-29.02234130862554
 21
-53.32236901986095
 31
0.0
  0
LINE
  5
96
330
17
100
AcDbEntity
  8
visible
100
AcDbLine
 10
-27.630774742064464
 20
-56.29922869517035
 30
0.0
 11
-26.53412866183218
 21
-53.393006415564855
 31
0.0
  0
LINE
  5
97
330
17
100
AcDbEntity
  8
visible
100
AcDbLine
 10
-27.338717561428194
 20
-56.97096921698817
 30
0.0
 11
-27.91996861700823
 21
-56.82101544197712
 31
0.0
  0
LINE
  5
98
330
17
100
AcDbEntity
  8
visible
100
AcDbLine
 10
-26.53412866183218
 20
-53.39300641556485
 30
0.0
 11
-25.67227364838592
 21
-53.61535166816745
 31
0.0
  0
LINE
  5
99
330
17
100
AcDbEntity
  8
visible
100
AcDbLine
 10
-26.236344869810885
 20
-54.04111297594844
 30
0.0
 11
-27.338717561428197
 21
-56.97096921698818
 31
0.0
  0
LINE
  5
9A
330
17
100
AcDbEntity
  8
visible
100
AcDbLine
 10
-25.67227364838592
 20
-53.61535166816745
 30
0.0
 11
-25.67227364838592
 21
-58.30175522094663
 31
0.0
  0
LINE
  5
9B
330
17
100
AcDbEntity
  8
visible
100
AcDbLine
 10
-26.236344869810885
 20
-58.156233577216696
 30
0.0
 11
-26.236344869810885
 21
-54.04111297594844
 31
0.0
  0
LINE
  5
9C
330
17
100
AcDbEntity
  8
visible
100
AcDbLine
 10
-25.67227364838592
 20
-58.30175522094664
 30
0.0
 11
-26.236344869810882
 21
-58.156233577216696
 31
0.0
  0
LINE
  5
9D
330
17
100
AcDbEntity
  8
visible
100
AcDbLine
 10
-23.398808928531
 20
-56.38655682630023
 30
0.0
 11
-24.73024607554931
 21
-53.858380200081925
 31
0.0
  0
LINE
  5
9E
330
17
100
AcDbEntity
  8
visible
100
AcDbLine
 10
-24.924950862640166
 20
-58.494552931675145
 30
0.0
 11
-23.398808928531007
 21
-56.386556826300236
 31
0.0
  0
LINE
  5
9F
330
17
100
AcDbEntity
  8
visible
100
AcDbLine
 10
-24.73024607554931
 20
-53.85838020008193
 30
0.0
 11
-24.1089087402741
 21
-54.01867561474892
 31
0.0
  0
LINE
  5
A0
330
17
100
AcDbEntity
  8
visible
100
AcDbLine
 10
-24.300750221672438
 20
-58.65558703488899
 30
0.0
 11
-24.924950862640163
 21
-58.494552931675145
 31
0.0
  0
LINE
  5
A1
330
17
100
AcDbEntity
  8
visible
100
AcDbLine
 10
-24.108908740274096
 20
-54.01867561474892
 30
0.0
 11
-23.046622328351962
 21
-56.03482817600792
 31
0.0
  0
LINE
  5
A2
330
17
100
AcDbEntity
  8
visible
100
AcDbLine
 10
-23.089571913739647
 20
-56.97483979455133
 30
0.0
 11
-24.300750221672434
 21
-58.655587034888974
 31
0.0
  0
LINE
  5
A3
330
17
100
AcDbEntity
  8
visible
100
AcDbLine
 10
-23.046622328351965
 20
-56.03482817600792
 30
0.0
 11
-21.97860930504481
 21
-54.56825989360719
 31
0.0
  0
LINE
  5
A4
330
17
100
AcDbEntity
  8
visible
100
AcDbLine
 10
-21.886983522884407
 20
-59.27830147988565
 30
0.0
 11
-23.089571913739654
 21
-56.97483979455134
 31
0.0
  0
LINE
  5
A5
330
17
100
AcDbEntity
  8
visible
100
AcDbLine
 10
-21.97860930504481
 20
-54.568259893607184
 30
0.0
 11
-21.357271969769595
 21
-54.728555308274174
 31
0.0
  0
LINE
  5
A6
330
17
100
AcDbEntity
  8
visible
100
AcDbLine
 10
-21.2656461876092
 20
-59.43859689455264
 30
0.0
 11
-21.886983522884407
 21
-59.27830147988564
 31
0.0
  0
LINE
  5
A7
330
17
100
AcDbEntity
  8
visible
100
AcDbLine
 10
-21.35727196976959
 20
-54.72855530827416
 30
0.0
 11
-22.731658702175586
 21
-56.62458852135273
 31
0.0
  0
LINE
  5
A8
330
17
100
AcDbEntity
  8
visible
100
AcDbLine
 10
-22.73165870217559
 20
-56.62458852135274
 30
0.0
 11
-21.265646187609196
 21
-59.43859689455264
 31
0.0
  0
ELLIPSE
  5
A9
330
17
100
AcDbEntity
  8
visible
100
AcDbEllipse
 10
52.62228004468126
 20
-59.48953724982147
 30
0.0
 11
8.0
 21
-2.417844894711718e-16
 31
0.0
 40
0.3957517648521873
 41
5.7054863060462795
 42
6.283185307179586
  0
ELLIPSE
  5
AA
330
17
100
AcDbEntity
  8
visible
100
AcDbEllipse
 10
13.303239301565352
 20
-83.3596783214347
 30
0.0
 11
-8.0
 21
2.417844894711718e-16
 31
0.0
 40
0.3957517648521873
 41
-5.290087981517996
 42
-3.7192916547231
  0
ELLIPSE
  5
AB
330
17
100
AcDbEntity
  8
visible
100
AcDbEllipse
 10
-63.7671328927823
 20
-40.058598442258095
 30
0.0
 11
8.0
 21
-2.417844894711718e-16
 31
0.0
 40
0.3957517648521873
 41
3.321934417882723
 42
4.134689979251383
  0
LINE
  5
AC
330
17
100
AcDbEntity
  8
visible
100
AcDbLine
 10
-71.63739248810928
 20
-51.64676339494103
 30
0.0
 11
-71.63739248810928
 21
-40.62647311524519
 31
0.0
  0
ELLIPSE
  5
AD
330
17
100
AcDbEntity
  8
visible
100
AcDbEllipse
 10
-63.7671328927823
 20
-51.07888872195393
 30
0.0
 11
8.0
 21
-2.417844894711718e-16
 31
0.0
 40
0.3957517648521873
 41
3.321934417882723
 42
4.134689979251383
  0
ELLIPSE
  5
AE
330
17
100
AcDbEntity
  8
visible
100
AcDbEllipse
 10
-63.7671328927823
 20
-63.47671528661175
 30
0.0
 11
8.0
 21
-2.417844894711718e-16
 31
0.0
 40
0.3957517648521873
 41
3.141592653589793
 42
4.134689979251383
  0
LINE
  5
AF
330
17
100
AcDbEntity
  8
visible
100
AcDbLine
 10
-71.6373924881093
 20
-51.64676339494104
 30
0.0
 11
-59.758700828622125
 21
-54.71128196988786
 31
0.0
  0
SPLINE
  5
B0
330
17
100
AcDbEntity
  8
visible
100
AcDbSpline
 70
0
 71
2
 72
6
 73
3
 74
0
 40
0.0
 40
0.0
 40
0.0
 40
1.0
 40
1.0
 40
1.0
 10
-34.48839187563188
 20
-51.80825927968573
 30
0.0
 10
-34.63188474794139
 20
-51.67193649403888
 30
0.0
 10
-34.78350219089405
 20
-51.56518565197965
 30
0.0
  0
SPLINE
  5
B1
330
17
100
AcDbEntity
  8
visible
100
AcDbSpline
 70
0
 71
2
 72
6
 73
3
 74
0
 40
0.0
 40
0.0
 40
0.0
 40
1.0
 40
1.0
 40
1.0
 10
-34.78350219089405
 20
-51.56518565197965
 30
0.0
 10
-35.11421399837924
 20
-51.33233801096646
 30
0.0
 10
-35.48644373840587
 20
-51.23630849987563
 30
0.0
  0
SPLINE
  5
B2
330
17
100
AcDbEntity
  8
visible
100
AcDbSpline
 70
0
 71
2
 72
6
 73
3
 74
0
 40
0.0
 40
0.0
 40
0.0
 40
0.03637387742132443
 40
0.03637387742132443
 40
0.03637387742132443
 10
-37.04980864651769
 20
-50.96324962190792
 30
0.0
 10
-37.02949948811324
 20
-50.9447978422156
 30
0.0
 10
-37.008644811305096
 20
-50.92734853965738
 30
0.0
  0
SPLINE
  5
B3
330
17
100
AcDbEntity
  8
visible
100
AcDbSpline
 70
0
 71
2
 72
6
 73
3
 74
0
 40
0.0
 40
0.0
 40
0.0
 40
0.8042138903233222
 40
0.8042138903233222
 40
0.8042138903233222
 10
-35.48644373840587
 20
-51.23630849987563
 30
0.0
 10
-36.07593755220692
 20
-51.08422822083524
 30
0.0
 10
-36.443206781639944
 20
-51.30719318010536
 30
0.0
  0
SPLINE
  5
B4
330
17
100
AcDbEntity
  8
visible
100
AcDbSpline
 70
0
 71
2
 72
6
 73
3
 74
0
 40
0.0
 40
0.0
 40
0.0
 40
1.0
 40
1.0
 40
1.0
 10
-37.60815325655762
 20
-52.60054093209833
 30
0.0
 10
-37.60815325655762
 20
-51.47053069834046
 30
0.0
 10
-37.04980864651769
 20
-50.96324962190792
 30
0.0
  0
SPLINE
  5
B5
330
17
100
AcDbEntity
  8
visible
100
AcDbSpline
 70
0
 71
2
 72
6
 73
3
 74
0
 40
0.0
 40
0.0
 40
0.0
 40
1.0
 40
1.0
 40
1.0
 10
-37.04980864651769
 20
-54.522781858245224
 30
0.0
 10
-37.60815325655762
 20
-53.72741224854022
 30
0.0
 10
-37.60815325655762
 20
-52.60054093209833
 30
0.0
  0
SPLINE
  5
B6
330
17
100
AcDbEntity
  8
visible
100
AcDbSpline
 70
0
 71
2
 72
6
 73
3
 74
0
 40
0.0
 40
0.0
 40
0.0
 40
1.0
 40
1.0
 40
1.0
 10
-35.52080340671601
 20
-55.56856688533324
 30
0.0
 10
-36.49146403647775
 20
-55.318151467950244
 30
0.0
 10
-37.04980864651769
 20
-54.522781858245224
 30
0.0
  0
SPLINE
  5
B7
330
17
100
AcDbEntity
  8
visible
100
AcDbSpline
 70
0
 71
2
 72
6
 73
3
 74
0
 40
0.0
 40
0.0
 40
0.0
 40
1.0
 40
1.0
 40
1.0
 10
-34.80354533074164
 20
-55.640607342944
 30
0.0
 10
-35.142847055304365
 20
-55.666073773517766
 30
0.0
 10
-35.52080340671601
 20
-55.56856688533324
 30
0.0
  0
SPLINE
  5
B8
330
17
100
AcDbEntity
  8
visible
100
AcDbSpline
 70
0
 71
2
 72
6
 73
3
 74
0
 40
0.0
 40
0.0
 40
0.0
 40
1.0
 40
1.0
 40
1.0
 10
-34.48839187563189
 20
-55.58860356110824
 30
0.0
 10
-34.64190732668799
 20
-55.62847553602902
 30
0.0
 10
-34.80354533074164
 20
-55.640607342944
 30
0.0
  0
LINE
  5
B9
330
17
100
AcDbEntity
  8
visible
100
AcDbLine
 10
-33.797093379823494
 20
-55.92222878837461
 30
0.0
 11
-32.26372282144543
 21
-51.91485981218718
 31
0.0
  0
LINE
  5
BA
330
17
100
AcDbEntity
  8
visible
100
AcDbLine
 10
-33.797093379823494
 20
-55.92222878837461
 30
0.0
 11
-34.124752052682794
 21
-56.12114663063805
 31
0.0
  0
LINE
  5
BB
330
17
100
AcDbEntity
  8
visible
100
AcDbLine
 10
-33.423055304078424
 20
-56.01872482208912
 30
0.0
 11
-33.7970933798235
 21
-55.92222878837461
 31
0.0
  0
LINE
  5
BC
330
17
100
AcDbEntity
  8
visible
100
AcDbLine
 10
-32.79779969313664
 20
-54.9778257592004
 30
0.0
 11
-33.12545836599594
 21
-55.17674360146384
 31
0.0
  0
LINE
  5
BD
330
17
100
AcDbEntity
  8
visible
100
AcDbLine
 10
-30.87079496207573
 20
-55.47496315123213
 30
0.0
 11
-32.79779969313664
 21
-54.9778257592004
 31
0.0
  0
LINE
  5
BE
330
17
100
AcDbEntity
  8
visible
100
AcDbLine
 10
-30.87079496207573
 20
-55.47496315123213
 30
0.0
 11
-31.19845363493503
 21
-55.67388099349557
 31
0.0
  0
LINE
  5
BF
330
17
100
AcDbEntity
  8
visible
100
AcDbLine
 10
-30.30629036977388
 20
-56.8228019299658
 30
0.0
 11
-30.481385387894033
 21
-56.77763012562981
 31
0.0
  0
LINE
  5
C0
330
17
100
AcDbEntity
  8
visible
100
AcDbLine
 10
-30.481385387894033
 20
-56.77763012562981
 30
0.0
 11
-30.809044060753333
 21
-56.976547967893254
 31
0.0
  0
LINE
  5
C1
330
17
100
AcDbEntity
  8
visible
100
AcDbLine
 10
-30.481385387894033
 20
-56.77763012562981
 30
0.0
 11
-30.87079496207573
 21
-55.47496315123213
 31
0.0
  0
LINE
  5
C2
330
17
100
AcDbEntity
  8
visible
100
AcDbLine
 10
-29.255890551498684
 20
-57.09378882368268
 30
0.0
 11
-29.255890551498684
 21
-52.69083397885515
 31
0.0
  0
LINE
  5
C3
330
17
100
AcDbEntity
  8
visible
100
AcDbLine
 10
-29.255890551498684
 20
-57.09378882368268
 30
0.0
 11
-29.583549224357984
 21
-57.29270666594612
 31
0.0
  0
LINE
  5
C4
330
17
100
AcDbEntity
  8
visible
100
AcDbLine
 10
-29.02234130862554
 20
-57.15404091317756
 30
0.0
 11
-29.255890551498688
 21
-57.09378882368268
 31
0.0
  0
LINE
  5
C5
330
17
100
AcDbEntity
  8
visible
100
AcDbLine
 10
-28.694682635766238
 20
-53.12345117759752
 30
0.0
 11
-29.02234130862554
 21
-53.32236901986096
 31
0.0
  0
LINE
  5
C6
330
17
100
AcDbEntity
  8
visible
100
AcDbLine
 10
-27.303116069205167
 20
-56.1003108529069
 30
0.0
 11
-27.630774742064467
 21
-56.29922869517034
 31
0.0
  0
LINE
  5
C7
330
17
100
AcDbEntity
  8
visible
100
AcDbLine
 10
-27.592309944148926
 20
-56.622097599713676
 30
0.0
 11
-28.694682635766235
 21
-53.12345117759751
 31
0.0
  0
LINE
  5
C8
330
17
100
AcDbEntity
  8
visible
100
AcDbLine
 10
-27.592309944148926
 20
-56.622097599713676
 30
0.0
 11
-27.919968617008227
 21
-56.82101544197712
 31
0.0
  0
LINE
  5
C9
330
17
100
AcDbEntity
  8
visible
100
AcDbLine
 10
-27.303116069205167
 20
-56.1003108529069
 30
0.0
 11
-26.30393918606034
 21
-53.45239173715426
 31
0.0
  0
LINE
  5
CA
330
17
100
AcDbEntity
  8
visible
100
AcDbLine
 10
-27.241504841299452
 20
-56.71259988605004
 30
0.0
 11
-27.592309944148926
 21
-56.622097599713676
 31
0.0
  0
LINE
  5
CB
330
17
100
AcDbEntity
  8
visible
100
AcDbLine
 10
-25.90868619695158
 20
-53.842195133684996
 30
0.0
 11
-26.236344869810882
 21
-54.04111297594844
 31
0.0
  0
LINE
  5
CC
330
17
100
AcDbEntity
  8
visible
100
AcDbLine
 10
-25.90868619695158
 20
-57.957315734953255
 30
0.0
 11
-25.90868619695158
 21
-53.842195133684996
 31
0.0
  0
LINE
  5
CD
330
17
100
AcDbEntity
  8
visible
100
AcDbLine
 10
-25.90868619695158
 20
-57.957315734953255
 30
0.0
 11
-26.236344869810882
 21
-58.156233577216696
 31
0.0
  0
LINE
  5
CE
330
17
100
AcDbEntity
  8
visible
100
AcDbLine
 10
-25.67227364838592
 20
-58.01830651299498
 30
0.0
 11
-25.90868619695158
 21
-57.95731573495325
 31
0.0
  0
LINE
  5
CF
330
17
100
AcDbEntity
  8
visible
100
AcDbLine
 10
-23.071150255671704
 20
-56.18763898403678
 30
0.0
 11
-24.229842183939077
 21
-53.98747665824199
 31
0.0
  0
LINE
  5
D0
330
17
100
AcDbEntity
  8
visible
100
AcDbLine
 10
-23.071150255671704
 20
-56.18763898403678
 30
0.0
 11
-23.398808928531004
 21
-56.38655682630022
 31
0.0
  0
LINE
  5
D1
330
17
100
AcDbEntity
  8
visible
100
AcDbLine
 10
-24.597292189780863
 20
-58.2956350894117
 30
0.0
 11
-23.071150255671704
 21
-56.18763898403679
 31
0.0
  0
LINE
  5
D2
330
17
100
AcDbEntity
  8
visible
100
AcDbLine
 10
-24.597292189780863
 20
-58.2956350894117
 30
0.0
 11
-24.924950862640163
 21
-58.49455293167514
 31
0.0
  0
LINE
  5
D3
330
17
100
AcDbEntity
  8
visible
100
AcDbLine
 10
-24.128512225357053
 20
-58.416573063872235
 30
0.0
 11
-24.59729218978086
 21
-58.2956350894117
 31
0.0
  0
LINE
  5
D4
330
17
100
AcDbEntity
  8
visible
100
AcDbLine
 10
-22.718963655492665
 20
-55.83591033374448
 30
0.0
 11
-23.046622328351965
 21
-56.03482817600792
 31
0.0
  0
LINE
  5
D5
330
17
100
AcDbEntity
  8
visible
100
AcDbLine
 10
-22.761913240880354
 20
-56.7759219522879
 30
0.0
 11
-23.089571913739654
 21
-56.97483979455134
 31
0.0
  0
LINE
  5
D6
330
17
100
AcDbEntity
  8
visible
100
AcDbLine
 10
-22.718963655492665
 20
-55.83591033374448
 30
0.0
 11
-21.824721980628755
 21
-54.60796044124663
 31
0.0
  0
LINE
  5
D7
330
17
100
AcDbEntity
  8
visible
100
AcDbLine
 10
-21.559324850025106
 20
-59.0793836376222
 30
0.0
 11
-22.761913240880354
 21
-56.7759219522879
 31
0.0
  0
LINE
  5
D8
330
17
100
AcDbEntity
  8
visible
100
AcDbLine
 10
-21.559324850025106
 20
-59.0793836376222
 30
0.0
 11
-21.886983522884407
 21
-59.27830147988564
 31
0.0
  0
LINE
  5
D9
330
17
100
AcDbEntity
  8
visible
100
AcDbLine
 10
-21.436242862568548
 20
-59.11113688516952
 30
0.0
 11
-21.559324850025106
 21
-59.0793836376222
 31
0.0
  0
LINE
  5
DA
330
17
100
AcDbEntity
  8
visible
100
AcDbLine
 10
-31.05118322070402
 20
-54.90108766369342
 30
0.0
 11
-31.838592286144955
 21
-52.365732747525364
 31
0.0
  0
LINE
  5
DB
330
17
100
AcDbEntity
  8
visible
100
AcDbLine
 10
-31.83859228614495
 20
-52.365732747525364
 30
0.0
 11
-32.16625095900425
 21
-52.564650589788805
 31
0.0
  0
LINE
  5
DC
330
17
100
AcDbEntity
  8
visible
100
AcDbLine
 10
-31.378841893563315
 20
-55.10000550595686
 30
0.0
 11
-32.16625095900425
 21
-52.56465058978881
 31
0.0
  0
LINE
  5
DD
330
17
100
AcDbEntity
  8
visible
100
AcDbLine
 10
-31.05118322070402
 20
-54.90108766369342
 30
0.0
 11
-31.37884189356332
 21
-55.10000550595686
 31
0.0
  0
LINE
  5
DE
330
17
100
AcDbEntity
  8
visible
100
AcDbLine
 10
-32.16625095900425
 20
-52.56465058978881
 30
0.0
 11
-32.95079671875267
 21
-54.69446549373484
 31
0.0
  0
LINE
  5
DF
330
17
100
AcDbEntity
  8
visible
100
AcDbLine
 10
-32.95079671875268
 20
-54.69446549373484
 30
0.0
 11
-31.37884189356332
 21
-55.10000550595686
 31
0.0
  0
LINE
  5
E0
330
17
100
AcDbEntity
  8
visible
100
AcDbLine
 10
-70.46890438794297
 20
-21.34003095368443
 30
0.0
 11
-37.558839794477024
 21
-1.3607061869815276
 31
0.0
  0
ELLIPSE
  5
E1
330
17
100
AcDbEntity
  8
visible
100
AcDbEllipse
 10
-63.7671328927823
 20
-23.068984261060336
 30
0.0
 11
8.0
 21
-2.417844894711718e-16
 31
0.0
 40
0.3957517648521873
 41
2.5638936524564864
 42
3.141592653589793
  0
ELLIPSE
  5
E2
330
17
100
AcDbEntity
  8
visible
100
AcDbEllipse
 10
-63.7671328927823
 20
-23.068984261060336
 30
0.0
 11
8.0
 21
-2.417844894711718e-16
 31
0.0
 40
0.3957517648521873
 41
3.141592653589793
 42
4.134689979251383
  0
LINE
  5
E3
330
17
100
AcDbEntity
  8
visible
100
AcDbLine
 10
-68.13591519757296
 20
-25.721222157906254
 30
0.0
 11
8.9344569967747
 21
-45.60418519272921
 31
0.0
  0
LINE
  5
E4
330
17
100
AcDbEntity
  8
visible
100
AcDbLine
 10
35.249349410307374
 20
-10.820542934461976
 30
0.0
 11
56.99106234947192
 21
-16.429568327424136
 31
0.0
  0
ELLIPSE
  5
E5
330
17
100
AcDbEntity
  8
visible
100
AcDbEllipse
 10
13.303239301565352
 20
-42.95194729588329
 30
0.0
 11
-8.0
 21
2.417844894711718e-16
 31
0.0
 40
0.3957517648521873
 41
-5.290087981517996
 42
-3.7192916547231
  0
ELLIPSE
  5
E6
330
17
100
AcDbEntity
  8
visible
100
AcDbEllipse
 10
52.62228004468126
 20
-19.081806224270053
 30
0.0
 11
8.0
 21
-2.417844894711718e-16
 31
0.0
 40
0.3957517648521873
 41
5.7054863060462795
 42
6.283185307179586
  0
ELLIPSE
  5
E7
330
17
100
AcDbEntity
  8
visible
100
AcDbEllipse
 10
52.62228004468126
 20
-19.081806224270053
 30
0.0
 11
8.0
 21
-2.417844894711718e-16
 31
0.0
 40
0.3957517648521873
 41
0.0
 42
0.9930973256615898
  0
LINE
  5
E8
330
17
100
AcDbEntity
  8
visible
100
AcDbLine
 10
20.005010796726022
 20
-44.680900603259204
 30
0.0
 11
59.32405153984193
 21
-20.810759531645967
 31
0.0
  0
ELLIPSE
  5
E9
330
17
100
AcDbEntity
  8
visible
100
AcDbEllipse
 10
-65.15095211777623
 20
-23.18439483474409
 30
0.0
 11
3.2
 21
-9.671379578846872e-17
 31
0.0
 40
0.3957517648521873
 41
5.7054863060462795
 42
6.283185307179586
  0
ELLIPSE
  5
EA
330
17
100
AcDbEntity
  8
visible
100
AcDbEllipse
 10
-65.15095211777623
 20
-23.18439483474409
 30
0.0
 11
3.2
 21
-9.671379578846872e-17
 31
0.0
 40
0.3957517648521873
 41
1.1102230246251565e-16
 42
3.141592653589793
  0
ELLIPSE
  5
EB
330
17
100
AcDbEntity
  8
visible
100
AcDbEllipse
 10
-65.15095211777623
 20
-23.18439483474409
 30
0.0
 11
3.2
 21
-9.671379578846872e-17
 31
0.0
 40
0.3957517648521873
 41
3.141592653589793
 42
5.7054863060462795
  0
ELLIPSE
  5
EC
330
17
100
AcDbEntity
  8
visible
100
AcDbEllipse
 10
13.594862950361605
 20
-43.49959619641102
 30
0.0
 11
3.2
 21
-9.671379578846872e-17
 31
0.0
 40
0.3957517648521873
 41
5.7054863060462795
 42
6.283185307179586
  0
ELLIPSE
  5
ED
330
17
100
AcDbEntity
  8
visible
100
AcDbEllipse
 10
13.594862950361605
 20
-43.49959619641102
 30
0.0
 11
3.2
 21
-9.671379578846872e-17
 31
0.0
 40
0.3957517648521873
 41
1.1102230246251565e-16
 42
3.141592653589793
  0
ELLIPSE
  5
EE
330
17
100
AcDbEntity
  8
visible
100
AcDbEllipse
 10
13.594862950361605
 20
-43.49959619641102
 30
0.0
 11
3.2
 21
-9.671379578846872e-17
 31
0.0
 40
0.3957517648521873
 41
3.141592653589793
 42
5.7054863060462795
  0
LINE
  5
EF
330
17
100
AcDbEntity
  8
visible
100
AcDbLine
 10
3.2106463357541273
 20
-33.49820409427731
 30
0.0
 11
-4.328846596301624
 21
-31.553131623479416
 31
0.0
  0
LINE
  5
F0
330
17
100
AcDbEntity
  8
visible
100
AcDbLine
 10
3.210646335754129
 20
-33.49820409427731
 30
0.0
 11
5.941135276248289
 21
-31.84055540874862
 31
0.0
  0
LINE
  5
F1
330
17
100
AcDbEntity
  8
visible
100
AcDbLine
 10
5.941135276248289
 20
-31.840555408748617
 30
0.0
 11
-1.5983576558074617
 21
-29.895482937950717
 31
0.0
  0
LINE
  5
F2
330
17
100
AcDbEntity
  8
visible
100
AcDbLine
 10
-4.328846596301622
 20
-31.55313162347942
 30
0.0
 11
-1.5983576558074617
 21
-29.895482937950725
 31
0.0
  0
ELLIPSE
  5
F3
330
17
100
AcDbEntity
  8
visible
100
AcDbEllipse
 10
-5.572426424050519
 20
-21.075395242665195
 30
0.0
 11
22.5
 21
-6.800188766376707e-16
 31
0.0
 40
0.3957517648521873
 41
5.7054863060462795
 42
6.088643482905104
  0
ELLIPSE
  5
F4
330
17
100
AcDbEntity
  8
visible
100
AcDbEllipse
 10
-5.572426424050519
 20
-21.075395242665195
 30
0.0
 11
22.5
 21
-6.800188766376707e-16
 31
0.0
 40
0.3957517648521873
 41
3.1927474681268357
 42
5.7054863060462795
  0
ELLIPSE
  5
F5
330
17
100
AcDbEntity
  8
visible
100
AcDbEllipse
 10
54.00609926967519
 20
-18.9663956505863
 30
0.0
 11
3.2
 21
-9.671379578846872e-17
 31
0.0
 40
0.3957517648521873
 41
5.7054863060462795
 42
6.283185307179586
  0
ELLIPSE
  5
F6
330
17
100
AcDbEntity
  8
visible
100
AcDbEllipse
 10
54.00609926967519
 20
-18.9663956505863
 30
0.0
 11
3.2
 21
-9.671379578846872e-17
 31
0.0
 40
0.3957517648521873
 41
1.1102230246251565e-16
 42
3.141592653589793
  0
ELLIPSE
  5
F7
330
17
100
AcDbEntity
  8
visible
100
AcDbEllipse
 10
54.00609926967519
 20
-18.9663956505863
 30
0.0
 11
3.2
 21
-9.671379578846872e-17
 31
0.0
 40
0.3957517648521873
 41
3.141592653589793
 42
5.7054863060462795
  0
ELLIPSE
  5
F8
330
17
100
AcDbEntity
  8
visible
100
AcDbEllipse
 10
-63.7671328927823
 20
-26.742414354292286
 30
0.0
 11
8.0
 21
-2.417844894711718e-16
 31
0.0
 40
0.3957517648521873
 41
3.141592653589793
 42
4.134689979251383
  0
LINE
  5
F9
330
17
100
AcDbEntity
  8
visible
100
AcDbLine
 10
-68.13591519757296
 20
-29.394652251138204
 30
0.0
 11
8.9344569967747
 21
-49.27761528596116
 31
0.0
  0
ELLIPSE
  5
FA
330
17
100
AcDbEntity
  8
visible
100
AcDbEllipse
 10
13.303239301565352
 20
-46.62537738911524
 30
0.0
 11
-8.0
 21
2.417844894711718e-16
 31
0.0
 40
0.3957517648521873
 41
-5.290087981517996
 42
-3.7192916547231
  0
ELLIPSE
  5
FB
330
17
100
AcDbEntity
  8
visible
100
AcDbEllipse
 10
52.62228004468126
 20
-22.755236317502003
 30
0.0
 11
8.0
 21
-2.417844894711718e-16
 31
0.0
 40
0.3957517648521873
 41
5.7054863060462795
 42
6.283185307179586
  0
LINE
  5
FC
330
17
100
AcDbEntity
  8
visible
100
AcDbLine
 10
20.005010796726022
 20
-48.35433069649115
 30
0.0
 11
59.32405153984193
 21
-24.48418962487791
 31
0.0
  0
ELLIPSE
  5
FD
330
17
100
AcDbEntity
  8
visible
100
AcDbEllipse
 10
-65.15095211777623
 20
-25.02110988136007
 30
0.0
 11
3.2
 21
-9.671379578846872e-17
 31
0.0
 40
0.3957517648521873
 41
0.8112791175969185
 42
2.330313535992875
  0
ELLIPSE
  5
FE
330
17
100
AcDbEntity
  8
visible
100
AcDbEllipse
 10
13.594862950361605
 20
-45.336311243027
 30
0.0
 11
3.2
 21
-9.671379578846872e-17
 31
0.0
 40
0.3957517648521873
 41
0.8112791175969185
 42
2.330313535992875
  0
LINE
  5
FF
330
17
100
AcDbEntity
  8
visible
100
AcDbLine
 10
-1.59835765580746
 20
-32.25755550421448
 30
0.0
 11
-1.59835765580746
 21
-29.89548293795072
 31
0.0
  0
ELLIPSE
  5
100
330
17
100
AcDbEntity
  8
visible
100
AcDbEllipse
 10
54.00609926967519
 20
-20.80311069720228
 30
0.0
 11
3.2
 21
-9.671379578846872e-17
 31
0.0
 40
0.3957517648521873
 41
0.8112791175969185
 42
2.330313535992875
  0
ELLIPSE
  5
101
330
17
100
AcDbEntity
  8
visible
100
AcDbEllipse
 10
-65.15095211777623
 20
-25.02110988136007
 30
0.0
 11
1.65
 21
-4.986805095342918e-17
 31
0.0
 40
0.3957517648521873
 41
1.1568651762276856
 42
1.9847274773621075
  0
ELLIPSE
  5
102
330
17
100
AcDbEntity
  8
visible
100
AcDbEllipse
 10
13.594862950361605
 20
-45.336311243027
 30
0.0
 11
1.65
 21
-4.986805095342918e-17
 31
0.0
 40
0.3957517648521873
 41
1.1568651762276836
 42
1.9847274773621075
  0
ELLIPSE
  5
103
330
17
100
AcDbEntity
  8
visible
100
AcDbEllipse
 10
54.00609926967519
 20
-20.80311069720228
 30
0.0
 11
1.65
 21
-4.986805095342918e-17
 31
0.0
 40
0.3957517648521873
 41
1.1568651762276856
 42
1.9847274773621075
  0
ELLIPSE
  5
104
330
17
100
AcDbEntity
  8
visible
100
AcDbEllipse
 10
-5.572426424050519
 20
-11.432641247931336
 30
0.0
 11
34.0
 21
-1.0275840802524801e-15
 31
0.0
 40
0.3957517648521873
 41
3.141592653589793
 42
5.344773585682708
  0
LINE
  5
105
330
17
100
AcDbEntity
  8
visible
100
AcDbLine
 10
20.54553615767174
 20
-23.839645466657764
 30
0.0
 11
33.65188307204372
 21
-15.882931776120017
 31
0.0
  0
LINE
  5
106
330
17
100
AcDbEntity
  8
visible
100
AcDbLine
 10
14.523950439613587
 20
-22.28616956101073
 30
0.0
 11
20.545536157671748
 21
-23.839645466657764
 31
0.0
  0
LINE
  5
107
330
17
100
AcDbEntity
  8
visible
100
AcDbLine
 10
33.65188307204371
 20
-15.882931776120017
 30
0.0
 11
33.65188307204371
 21
-11.914002970164843
 31
0.0
  0
ELLIPSE
  5
108
330
17
100
AcDbEntity
  8
visible
100
AcDbEllipse
 10
-5.572426424050519
 20
-5.922496108083422
 30
0.0
 11
34.0
 21
-1.0275840802524801e-15
 31
0.0
 40
0.3957517648521873
 41
2.717450263652042
 42
3.141592653589793
  0
ELLIPSE
  5
109
330
17
100
AcDbEntity
  8
visible
100
AcDbEllipse
 10
-5.572426424050519
 20
-5.922496108083422
 30
0.0
 11
34.0
 21
-1.0275840802524801e-15
 31
0.0
 40
0.3957517648521873
 41
3.141592653589793
 42
5.344773585682708
  0
LINE
  5
10A
330
17
100
AcDbEntity
  8
visible
100
AcDbLine
 10
14.523950439614424
 20
-22.28616956101095
 30
0.0
 11
14.523950439614424
 21
-16.77602442116303
 31
0.0
  0
LINE
  5
10B
330
17
100
AcDbEntity
  8
visible
100
AcDbLine
 10
20.54553615767174
 20
-23.839645466657764
 30
0.0
 11
20.54553615767174
 21
-18.88519327261227
 31
0.0
  0
LINE
  5
10C
330
17
100
AcDbEntity
  8
visible
100
AcDbLine
 10
14.523950439613587
 20
-16.776024421162823
 30
0.0
 11
18.938106255773008
 21
-17.914808293924285
 31
0.0
  0
ELLIPSE
  5
10D
330
17
100
AcDbEntity
  8
visible
100
AcDbEllipse
 10
33.65931297394244
 20
-10.74998789623514
 30
0.0
 11
1.6
 21
-4.835689789423436e-17
 31
0.0
 40
0.3957517648521873
 41
5.705486306046279
 42
6.283185307179585
  0
LINE
  5
10E
330
17
100
AcDbEntity
  8
visible
100
AcDbLine
 10
22.548637704321205
 20
-18.65465656372118
 30
0.0
 11
34.99966727297458
 21
-11.095778557710322
 31
0.0
  0
ELLIPSE
  5
10F
330
17
100
AcDbEntity
  8
visible
100
AcDbEllipse
 10
21.20828340528907
 20
-18.308865902245998
 30
0.0
 11
-1.6
 21
4.835689789423436e-17
 31
0.0
 40
0.3957517648521873
 41
-5.290087981517996
 42
-3.7192916547231
  0
LINE
  5
110
330
17
100
AcDbEntity
  8
visible
100
AcDbLine
 10
19.664349794814875
 20
-18.666418150877593
 30
0.0
 11
20.334526944330943
 21
-18.839313481615186
 31
0.0
  0
ELLIPSE
  5
111
330
17
100
AcDbEntity
  8
visible
100
AcDbEllipse
 10
20.538106255773005
 20
-18.13597057150841
 30
0.0
 11
1.6
 21
-4.835689789423436e-17
 31
0.0
 40
0.3957517648521873
 41
3.141592653589793
 42
4.134689979251383
  0
ELLIPSE
  5
112
330
17
100
AcDbEntity
  8
visible
100
AcDbEllipse
 10
-9.941208728841175
 20
-8.57473400492934
 30
0.0
 11
2.25
 21
-6.800188766376707e-17
 31
0.0
 40
0.3957517648521873
 41
5.7054863060462795
 42
6.283185307179586
  0
ELLIPSE
  5
113
330
17
100
AcDbEntity
  8
visible
100
AcDbEllipse
 10
-9.941208728841175
 20
-8.57473400492934
 30
0.0
 11
2.25
 21
-6.800188766376707e-17
 31
0.0
 40
0.3957517648521873
 41
1.1102230246251565e-16
 42
3.141592653589793
  0
ELLIPSE
  5
114
330
17
100
AcDbEntity
  8
visible
100
AcDbEllipse
 10
-9.941208728841175
 20
-8.57473400492934
 30
0.0
 11
2.25
 21
-6.800188766376707e-17
 31
0.0
 40
0.3957517648521873
 41
3.141592653589793
 42
5.7054863060462795
  0
LINE
  5
115
330
17
100
AcDbEntity
  8
visible
100
AcDbLine
 10
19.664349794814875
 20
-18.66641815087759
 30
0.0
 11
19.664349794814875
 21
2.547640637536901
 31
0.0
  0
LINE
  5
116
330
17
100
AcDbEntity
  8
visible
100
AcDbLine
 10
32.522537986352376
 20
59.26779567577661
 30
0.0
 11
35.580899177116464
 21
58.47878582968741
 31
0.0
  0
LINE
  5
117
330
17
100
AcDbEntity
  8
visible
100
AcDbLine
 10
34.99966727297458
 20
-11.095778557710318
 30
0.0
 11
34.99966727297458
 21
-1.8678126543169942
 31
0.0
  0
LINE
  5
118
330
17
100
AcDbEntity
  8
visible
100
AcDbLine
 10
22.548637704321205
 20
-18.654656563721183
 30
0.0
 11
22.548637704321205
 21
1.5462018949742955
 31
0.0
  0
LINE
  5
119
330
17
100
AcDbEntity
  8
visible
100
AcDbLine
 10
21.674881243363075
 20
2.028954645324127
 30
0.0
 11
22.44251969335091
 21
2.4949791908596715
 31
0.0
  0
LINE
  5
11A
330
17
100
AcDbEntity
  8
visible
100
AcDbLine
 10
21.674881243363075
 20
2.028954645324127
 30
0.0
 11
21.674881243363075
 21
6.62074226186406
 31
0.0
  0
LINE
  5
11B
330
17
100
AcDbEntity
  8
visible
100
AcDbLine
 10
21.674881243363075
 20
6.620742261864052
 30
0.0
 11
22.44251969335091
 21
7.086766807399597
 31
0.0
  0
LINE
  5
11C
330
17
100
AcDbEntity
  8
visible
100
AcDbLine
 10
21.674881243363075
 20
45.19175824079949
 30
0.0
 11
22.44251969335091
 21
45.657782786335034
 31
0.0
  0
LINE
  5
11D
330
17
100
AcDbEntity
  8
visible
100
AcDbLine
 10
21.674881243363075
 20
45.19175824079949
 30
0.0
 11
21.674881243363075
 21
49.78354585733942
 31
0.0
  0
LINE
  5
11E
330
17
100
AcDbEntity
  8
visible
100
AcDbLine
 10
21.674881243363075
 20
49.78354585733942
 30
0.0
 11
22.44251969335091
 21
50.249570402874966
 31
0.0
  0
LINE
  5
11F
330
17
100
AcDbEntity
  8
visible
100
AcDbLine
 10
20.33452694433094
 20
-18.83931348161518
 30
0.0
 11
20.33452694433094
 21
2.374745306799312
 31
0.0
  0
LINE
  5
120
330
17
100
AcDbEntity
  8
visible
100
AcDbLine
 10
18.323995495782743
 20
2.8934312990120787
 30
0.0
 11
19.66434979481488
 21
2.5476406375368965
 31
0.0
  0
LINE
  5
121
330
17
100
AcDbEntity
  8
visible
100
AcDbLine
 10
18.323995495782743
 20
2.8934312990120787
 30
0.0
 11
18.323995495782743
 21
7.485218915552012
 31
0.0
  0
LINE
  5
122
330
17
100
AcDbEntity
  8
visible
100
AcDbLine
 10
18.323995495782743
 20
7.485218915552011
 30
0.0
 11
19.66434979481488
 21
7.139428254076829
 31
0.0
  0
LINE
  5
123
330
17
100
AcDbEntity
  8
visible
100
AcDbLine
 10
19.664349794814875
 20
7.139428254076833
 30
0.0
 11
19.664349794814875
 21
45.71044423301227
 31
0.0
  0
LINE
  5
124
330
17
100
AcDbEntity
  8
visible
100
AcDbLine
 10
18.323995495782743
 20
46.056234894487446
 30
0.0
 11
19.66434979481488
 21
45.71044423301226
 31
0.0
  0
LINE
  5
125
330
17
100
AcDbEntity
  8
visible
100
AcDbLine
 10
18.323995495782743
 20
46.056234894487446
 30
0.0
 11
18.323995495782743
 21
50.64802251102738
 31
0.0
  0
LINE
  5
126
330
17
100
AcDbEntity
  8
visible
100
AcDbLine
 10
18.323995495782743
 20
50.64802251102738
 30
0.0
 11
21.674881243363075
 21
49.783545857339426
 31
0.0
  0
LINE
  5
127
330
17
100
AcDbEntity
  8
visible
100
AcDbLine
 10
20.334526944330943
 20
45.53754890227467
 30
0.0
 11
21.674881243363075
 21
45.191758240799494
 31
0.0
  0
LINE
  5
128
330
17
100
AcDbEntity
  8
visible
100
AcDbLine
 10
20.33452694433094
 20
6.966532923339244
 30
0.0
 11
20.33452694433094
 21
45.53754890227468
 31
0.0
  0
LINE
  5
129
330
17
100
AcDbEntity
  8
visible
100
AcDbLine
 10
20.334526944330943
 20
6.966532923339239
 30
0.0
 11
21.674881243363075
 21
6.620742261864057
 31
0.0
  0
LINE
  5
12A
330
17
100
AcDbEntity
  8
visible
100
AcDbLine
 10
20.334526944330943
 20
2.3747453067993063
 30
0.0
 11
21.674881243363075
 21
2.028954645324124
 31
0.0
  0
LINE
  5
12B
330
17
100
AcDbEntity
  8
visible
100
AcDbLine
 10
18.323995495782743
 20
7.485218915552011
 30
0.0
 11
18.938106255773008
 21
7.858038551980444
 31
0.0
  0
LINE
  5
12C
330
17
100
AcDbEntity
  8
visible
100
AcDbLine
 10
18.323995495782743
 20
50.64802251102738
 30
0.0
 11
32.522537986352376
 21
59.267795675776604
 31
0.0
  0
ELLIPSE
  5
12D
330
17
100
AcDbEntity
  8
visible
100
AcDbEllipse
 10
21.20828340528907
 20
7.496980502708425
 30
0.0
 11
1.6
 21
-4.835689789423436e-17
 31
0.0
 40
0.3957517648521873
 41
4.134689979251383
 42
5.593423607385112
  0
ELLIPSE
  5
12E
330
17
100
AcDbEntity
  8
visible
100
AcDbEllipse
 10
20.538106255773005
 20
7.669875833446014
 30
0.0
 11
1.6
 21
-4.835689789423436e-17
 31
0.0
 40
0.3957517648521873
 41
3.141592653589793
 42
4.134689979251383
  0
LINE
  5
12F
330
17
100
AcDbEntity
  8
visible
100
AcDbLine
 10
22.76707681956074
 20
50.905784093204886
 30
0.0
 11
34.78122815773504
 21
58.19943830953115
 31
0.0
  0
ELLIPSE
  5
130
330
17
100
AcDbEntity
  8
visible
100
AcDbEllipse
 10
24.442519693350906
 20
50.473545766360914
 30
0.0
 11
2.0
 21
-6.044612236779295e-17
 31
0.0
 40
0.3957517648521873
 41
2.5638936524564864
 42
3.141592653589793
  0
ELLIPSE
  5
131
330
17
100
AcDbEntity
  8
visible
100
AcDbEllipse
 10
24.442519693350906
 20
50.473545766360914
 30
0.0
 11
2.0
 21
-6.044612236779295e-17
 31
0.0
 40
0.3957517648521873
 41
3.141592653589793
 42
4.134689979251383
  0
ELLIPSE
  5
132
330
17
100
AcDbEntity
  8
visible
100
AcDbEllipse
 10
36.45667103152521
 20
57.76719998268719
 30
0.0
 11
-2.0
 21
6.044612236779295e-17
 31
0.0
 40
0.3957517648521873
 41
-2.1484953279282033
 42
-0.5776990011333067
  0
LINE
  5
133
330
17
100
AcDbEntity
  8
visible
100
AcDbLine
 10
23.350324117153242
 20
49.81048629214943
 30
0.0
 11
40.94247429194999
 21
45.27198386028767
 31
0.0
  0
LINE
  5
134
330
17
100
AcDbEntity
  8
visible
100
AcDbLine
 10
37.54886660772288
 20
58.43025945689866
 30
0.0
 11
55.14101678251963
 21
53.8917570250369
 31
0.0
  0
ELLIPSE
  5
135
330
17
100
AcDbEntity
  8
visible
100
AcDbEllipse
 10
42.03466986814766
 20
45.935043334499156
 30
0.0
 11
-2.0
 21
6.044612236779295e-17
 31
0.0
 40
0.3957517648521873
 41
-5.290087981517996
 42
-3.7192916547231
  0
ELLIPSE
  5
136
330
17
100
AcDbEntity
  8
visible
100
AcDbEllipse
 10
54.04882120632196
 20
53.228697550825416
 30
0.0
 11
2.0
 21
-6.044612236779295e-17
 31
0.0
 40
0.3957517648521873
 41
5.7054863060462795
 42
6.283185307179586
  0
ELLIPSE
  5
137
330
17
100
AcDbEntity
  8
visible
100
AcDbEllipse
 10
54.04882120632196
 20
53.228697550825416
 30
0.0
 11
2.0
 21
-6.044612236779295e-17
 31
0.0
 40
0.3957517648521873
 41
0.0
 42
0.9930973256615898
  0
LINE
  5
138
330
17
100
AcDbEntity
  8
visible
100
AcDbLine
 10
43.71011274193783
 20
45.50280500765518
 30
0.0
 11
55.724264080112135
 21
52.79645922398145
 31
0.0
  0
ELLIPSE
  5
139
330
17
100
AcDbEntity
  8
visible
100
AcDbEllipse
 10
24.442519693350906
 20
1.8005970310376256
 30
0.0
 11
2.0
 21
-6.044612236779295e-17
 31
0.0
 40
0.3957517648521873
 41
3.141592653589793
 42
4.134689979251383
  0
LINE
  5
13A
330
17
100
AcDbEntity
  8
visible
100
AcDbLine
 10
23.350324117153242
 20
1.137537556826148
 30
0.0
 11
40.94247429194999
 21
-3.400964875035614
 31
0.0
  0
ELLIPSE
  5
13B
330
17
100
AcDbEntity
  8
visible
100
AcDbEllipse
 10
42.03466986814766
 20
-2.7379054008241326
 30
0.0
 11
-2.0
 21
6.044612236779295e-17
 31
0.0
 40
0.3957517648521873
 41
-5.290087981517996
 42
-3.7192916547231
  0
ELLIPSE
  5
13C
330
17
100
AcDbEntity
  8
visible
100
AcDbEllipse
 10
54.04882120632196
 20
4.5557488155021275
 30
0.0
 11
2.0
 21
-6.044612236779295e-17
 31
0.0
 40
0.3957517648521873
 41
5.7054863060462795
 42
6.283185307179586
  0
LINE
  5
13D
330
17
100
AcDbEntity
  8
visible
100
AcDbLine
 10
43.71011274193783
 20
-3.170143727668113
 30
0.0
 11
55.724264080112135
 21
4.123510488658155
 31
0.0
  0
ELLIPSE
  5
13E
330
17
100
AcDbEntity
  8
visible
100
AcDbEllipse
 10
54.63206850391447
 20
49.37832717984601
 30
0.0
 11
-0.2872762049271095
 21
-1.1135404716859991
 31
0.0
 40
0.5015130121624133
 41
0.4751109517785175
 42
3.141592653589793
  0
ELLIPSE
  5
13F
330
17
100
AcDbEntity
  8
visible
100
AcDbEllipse
 10
54.63206850391447
 20
49.37832717984601
 30
0.0
 11
-0.2872762049271095
 21
-1.1135404716859991
 31
0.0
 40
0.5015130121624133
 41
3.141592653589793
 42
6.283185307179586
  0
ELLIPSE
  5
140
330
17
100
AcDbEntity
  8
visible
100
AcDbEllipse
 10
54.63206850391447
 20
49.37832717984601
 30
0.0
 11
-0.2872762049271095
 21
-1.1135404716859991
 31
0.0
 40
0.5015130121624133
 41
0.0
 42
0.47511095177851725
  0
ELLIPSE
  5
141
330
17
100
AcDbEntity
  8
visible
100
AcDbEllipse
 10
44.80230831813549
 20
43.41079191194271
 30
0.0
 11
-0.2872762049271095
 21
-1.1135404716859991
 31
0.0
 40
0.5015130121624133
 41
0.4751109517785175
 42
3.141592653589793
  0
ELLIPSE
  5
142
330
17
100
AcDbEntity
  8
visible
100
AcDbEllipse
 10
44.80230831813549
 20
43.41079191194271
 30
0.0
 11
-0.2872762049271095
 21
-1.1135404716859991
 31
0.0
 40
0.5015130121624133
 41
3.141592653589793
 42
6.283185307179586
  0
ELLIPSE
  5
143
330
17
100
AcDbEntity
  8
visible
100
AcDbEllipse
 10
44.80230831813549
 20
43.41079191194271
 30
0.0
 11
-0.2872762049271095
 21
-1.1135404716859991
 31
0.0
 40
0.5015130121624133
 41
0.0
 42
0.47511095177851725
  0
ELLIPSE
  5
144
330
17
100
AcDbEntity
  8
visible
100
AcDbEllipse
 10
44.80230831813549
 20
0.24798831646733532
 30
0.0
 11
-0.2872762049271095
 21
-1.1135404716859991
 31
0.0
 40
0.5015130121624133
 41
0.4751109517785175
 42
3.141592653589793
  0
ELLIPSE
  5
145
330
17
100
AcDbEntity
  8
visible
100
AcDbEllipse
 10
44.80230831813549
 20
0.24798831646733532
 30
0.0
 11
-0.2872762049271095
 21
-1.1135404716859991
 31
0.0
 40
0.5015130121624133
 41
3.141592653589793
 42
6.283185307179586
  0
ELLIPSE
  5
146
330
17
100
AcDbEntity
  8
visible
100
AcDbEllipse
 10
44.80230831813549
 20
0.24798831646733532
 30
0.0
 11
-0.2872762049271095
 21
-1.1135404716859991
 31
0.0
 40
0.5015130121624133
 41
0.0
 42
0.47511095177851725
  0
ELLIPSE
  5
147
330
17
100
AcDbEntity
  8
visible
100
AcDbEllipse
 10
54.63206850391447
 20
6.215523584370644
 30
0.0
 11
-0.2872762049271095
 21
-1.1135404716859991
 31
0.0
 40
0.5015130121624133
 41
0.4751109517785175
 42
3.141592653589793
  0
ELLIPSE
  5
148
330
17
100
AcDbEntity
  8
visible
100
AcDbEllipse
 10
54.63206850391447
 20
6.215523584370644
 30
0.0
 11
-0.2872762049271095
 21
-1.1135404716859991
 31
0.0
 40
0.5015130121624133
 41
3.141592653589793
 42
6.283185307179586
  0
ELLIPSE
  5
149
330
17
100
AcDbEntity
  8
visible
100
AcDbEllipse
 10
54.63206850391447
 20
6.215523584370644
 30
0.0
 11
-0.2872762049271095
 21
-1.1135404716859991
 31
0.0
 40
0.5015130121624133
 41
0.0
 42
0.47511095177851725
  0
LINE
  5
14A
330
17
100
AcDbEntity
  8
visible
100
AcDbLine
 10
52.993775139617966
 20
19.91465474598122
 30
0.0
 11
46.44060168243198
 21
15.936297900712345
 31
0.0
  0
LINE
  5
14B
330
17
100
AcDbEntity
  8
visible
100
AcDbLine
 10
52.99377513961797
 20
19.914654745981206
 30
0.0
 11
52.99377513961797
 21
21.75136979259718
 31
0.0
  0
LINE
  5
14C
330
17
100
AcDbEntity
  8
visible
100
AcDbLine
 10
46.44060168243198
 20
15.93629790071233
 30
0.0
 11
46.44060168243198
 21
17.773012947328304
 31
0.0
  0
LINE
  5
14D
330
17
100
AcDbEntity
  8
visible
100
AcDbLine
 10
52.993775139617966
 20
21.75136979259717
 30
0.0
 11
46.44060168243198
 21
17.773012947328297
 31
0.0
  0
LINE
  5
14E
330
17
100
AcDbEntity
  8
visible
100
AcDbLine
 10
52.993775139617966
 20
27.261514932445106
 30
0.0
 11
46.44060168243198
 21
23.283158087176233
 31
0.0
  0
LINE
  5
14F
330
17
100
AcDbEntity
  8
visible
100
AcDbLine
 10
52.99377513961797
 20
27.261514932445095
 30
0.0
 11
52.99377513961797
 21
29.098229979061067
 31
0.0
  0
LINE
  5
150
330
17
100
AcDbEntity
  8
visible
100
AcDbLine
 10
46.44060168243198
 20
23.283158087176233
 30
0.0
 11
46.44060168243198
 21
25.119873133792204
 31
0.0
  0
LINE
  5
151
330
17
100
AcDbEntity
  8
visible
100
AcDbLine
 10
52.993775139617966
 20
29.098229979061085
 30
0.0
 11
46.44060168243198
 21
25.11987313379221
 31
0.0
  0
LINE
  5
152
330
17
100
AcDbEntity
  8
visible
100
AcDbLine
 10
52.993775139617966
 20
34.60837511890899
 30
0.0
 11
46.44060168243198
 21
30.63001827364012
 31
0.0
  0
LINE
  5
153
330
17
100
AcDbEntity
  8
visible
100
AcDbLine
 10
52.99377513961797
 20
34.608375118908995
 30
0.0
 11
52.99377513961797
 21
36.445090165524974
 31
0.0
  0
LINE
  5
154
330
17
100
AcDbEntity
  8
visible
100
AcDbLine
 10
52.993775139617966
 20
36.44509016552497
 30
0.0
 11
46.44060168243198
 21
32.4667333202561
 31
0.0
  0
LINE
  5
155
330
17
100
AcDbEntity
  8
visible
100
AcDbLine
 10
46.44060168243198
 20
30.630018273640136
 30
0.0
 11
46.44060168243198
 21
32.46673332025611
 31
0.0
  0
LINE
  5
156
330
17
100
AcDbEntity
  8
visible
100
AcDbLine
 10
51.3183322658278
 20
20.346893072825186
 30
0.0
 11
46.44060168243198
 21
17.385678482274276
 31
0.0
  0
LINE
  5
157
330
17
100
AcDbEntity
  8
visible
100
AcDbLine
 10
51.318332265827806
 20
20.346893072825175
 30
0.0
 11
51.318332265827806
 21
20.73422753787921
 31
0.0
  0
LINE
  5
158
330
17
100
AcDbEntity
  8
visible
100
AcDbLine
 10
51.3183322658278
 20
27.69375325928907
 30
0.0
 11
46.44060168243198
 21
24.73253866873816
 31
0.0
  0
LINE
  5
159
330
17
100
AcDbEntity
  8
visible
100
AcDbLine
 10
51.318332265827806
 20
27.69375325928908
 30
0.0
 11
51.318332265827806
 21
28.081087724343124
 31
0.0
  0
LINE
  5
15A
330
17
100
AcDbEntity
  8
visible
100
AcDbLine
 10
51.3183322658278
 20
35.04061344575297
 30
0.0
 11
46.44060168243198
 21
32.07939885520206
 31
0.0
  0
LINE
  5
15B
330
17
100
AcDbEntity
  8
visible
100
AcDbLine
 10
51.318332265827806
 20
35.04061344575298
 30
0.0
 11
51.318332265827806
 21
35.427947910807006
 31
0.0
  0
LINE
  5
15C
330
17
100
AcDbEntity
  8
visible
100
AcDbLine
 10
51.318332265827806
 20
20.346893072825182
 30
0.0
 11
52.993775139617966
 21
19.914654745981203
 31
0.0
  0
LINE
  5
15D
330
17
100
AcDbEntity
  8
visible
100
AcDbLine
 10
51.318332265827806
 20
27.693753259289068
 30
0.0
 11
52.993775139617966
 21
27.26151493244509
 31
0.0
  0
LINE
  5
15E
330
17
100
AcDbEntity
  8
visible
100
AcDbLine
 10
51.318332265827806
 20
35.04061344575298
 30
0.0
 11
52.993775139617966
 21
34.608375118909
 31
0.0
  0
LINE
  5
15F
330
17
100
AcDbEntity
  8
visible
100
AcDbLine
 10
-46.43224307086469
 20
8.170976164296889
 30
0.0
 11
-39.902655404545456
 21
12.135014345004407
 31
0.0
  0
ELLIPSE
  5
160
330
17
100
AcDbEntity
  8
visible
100
AcDbEllipse
 10
-36.962833125716195
 20
6.6728440042884785
 30
0.0
 11
2.0
 21
-6.044612236779295e-17
 31
0.0
 40
0.3957517648521873
 41
3.141592653589793
 42
4.134689979251383
  0
LINE
  5
161
330
17
100
AcDbEntity
  8
visible
100
AcDbLine
 10
-38.05502870191386
 20
6.009784530076994
 30
0.0
 11
-2.0330069154252826
 21
-3.2833394970685177
 31
0.0
  0
ELLIPSE
  5
162
330
17
100
AcDbEntity
  8
visible
100
AcDbEllipse
 10
-0.9408113392276167
 20
-2.620280022857031
 30
0.0
 11
-2.0
 21
6.044612236779295e-17
 31
0.0
 40
0.3957517648521873
 41
-5.290087981517996
 42
-3.7192916547231
  0
LINE
  5
163
330
17
100
AcDbEntity
  8
visible
100
AcDbLine
 10
0.7346315345625511
 20
-3.0525183497010113
 30
0.0
 11
10.291342826292114
 21
2.749252049649429
 31
0.0
  0
LINE
  5
164
330
17
100
AcDbEntity
  8
visible
100
AcDbLine
 10
16.99311432145278
 20
1.0202987422735195
 30
0.0
 11
10.291342826292114
 21
2.749252049649428
 31
0.0
  0
LINE
  5
165
330
17
100
AcDbEntity
  8
visible
100
AcDbLine
 10
6.344207453525554
 20
-5.444531131288401
 30
0.0
 11
16.99311432145278
 21
1.0202987422735177
 31
0.0
  0
ELLIPSE
  5
166
330
17
100
AcDbEntity
  8
visible
100
AcDbEllipse
 10
3.8310431428403025
 20
-4.796173641022435
 30
0.0
 11
-3.0
 21
9.066918355168942e-17
 31
0.0
 40
0.3957517648521873
 41
-5.290087981517996
 42
-3.7192916547231
  0
LINE
  5
167
330
17
100
AcDbEntity
  8
visible
100
AcDbLine
 10
-45.55737212447594
 20
6.528029462713703
 30
0.0
 11
2.1927497785438064
 21
-5.790762852339649
 31
0.0
  0
ELLIPSE
  5
168
330
17
100
AcDbEntity
  8
visible
100
AcDbEllipse
 10
-43.919078760179445
 20
7.522618674030923
 30
0.0
 11
3.0
 21
-9.066918355168942e-17
 31
0.0
 40
0.3957517648521873
 41
2.5638936524564864
 42
3.141592653589793
  0
ELLIPSE
  5
169
330
17
100
AcDbEntity
  8
visible
100
AcDbEllipse
 10
-43.919078760179445
 20
7.522618674030923
 30
0.0
 11
3.0
 21
-9.066918355168942e-17
 31
0.0
 40
0.3957517648521873
 41
3.141592653589793
 42
4.134689979251383
  0
ELLIPSE
  5
16A
330
17
100
AcDbEntity
  8
visible
100
AcDbEllipse
 10
-43.919078760179445
 20
2.930831057490991
 30
0.0
 11
3.0
 21
-9.066918355168942e-17
 31
0.0
 40
0.3957517648521873
 41
3.141592653589793
 42
4.134689979251383
  0
LINE
  5
16B
330
17
100
AcDbEntity
  8
visible
100
AcDbLine
 10
-45.55737212447594
 20
1.9362418461737714
 30
0.0
 11
2.1927497785438064
 21
-10.38255046887958
 31
0.0
  0
ELLIPSE
  5
16C
330
17
100
AcDbEntity
  8
visible
100
AcDbEllipse
 10
3.8310431428403025
 20
-9.387961257562367
 30
0.0
 11
-3.0
 21
9.066918355168942e-17
 31
0.0
 40
0.3957517648521873
 41
-5.290087981517996
 42
-3.7192916547231
  0
LINE
  5
16D
330
17
100
AcDbEntity
  8
visible
100
AcDbLine
 10
6.344207453525554
 20
-10.036318747828332
 30
0.0
 11
18.938106255773008
 21
-2.3907064599980217
 31
0.0
  0
LINE
  5
16E
330
17
100
AcDbEntity
  8
visible
100
AcDbLine
 10
16.99311432145278
 20
-0.24779827221495854
 30
0.0
 11
16.99311432145278
 21
1.0202987422735361
 31
0.0
  0
LINE
  5
16F
330
17
100
AcDbEntity
  8
visible
100
AcDbLine
 10
16.99311432145278
 20
-0.24779827221496475
 30
0.0
 11
18.938106255773008
 21
0.9329841420534302
 31
0.0
  0
LINE
  5
170
330
17
100
AcDbEntity
  8
visible
100
AcDbLine
 10
0.7346315345625511
 20
1.539269266838921
 30
0.0
 11
0.7921388752038765
 21
1.5741813172811
 31
0.0
  0
LINE
  5
171
330
17
100
AcDbEntity
  8
visible
100
AcDbLine
 10
10.291342826292114
 20
2.8068753721589133
 30
0.0
 11
15.725819847724763
 21
6.106084373709898
 31
0.0
  0
LINE
  5
172
330
17
100
AcDbEntity
  8
visible
100
AcDbLine
 10
10.291342826292112
 20
2.749252049649439
 30
0.0
 11
10.291342826292112
 21
2.806875372158923
 31
0.0
  0
LINE
  5
173
330
17
100
AcDbEntity
  8
visible
100
AcDbLine
 10
-38.63827599950636
 20
11.696869947672383
 30
0.0
 11
-38.62107900669972
 21
11.707310045816788
 31
0.0
  0
ELLIPSE
  5
174
330
17
100
AcDbEntity
  8
visible
100
AcDbEllipse
 10
-36.962833125716195
 20
11.26463162082841
 30
0.0
 11
2.0
 21
-6.044612236779295e-17
 31
0.0
 40
0.3957517648521873
 41
2.5638936524564864
 42
3.141592653589793
  0
ELLIPSE
  5
175
330
17
100
AcDbEntity
  8
visible
100
AcDbEllipse
 10
-36.962833125716195
 20
11.26463162082841
 30
0.0
 11
2.0
 21
-6.044612236779295e-17
 31
0.0
 40
0.3957517648521873
 41
3.141592653589793
 42
4.134689979251383
  0
LINE
  5
176
330
17
100
AcDbEntity
  8
visible
100
AcDbLine
 10
-38.05502870191386
 20
10.601572146616926
 30
0.0
 11
-2.0330069154252826
 21
1.3084481194714144
 31
0.0
  0
ELLIPSE
  5
177
330
17
100
AcDbEntity
  8
visible
100
AcDbEllipse
 10
-0.9408113392276167
 20
1.971507593682901
 30
0.0
 11
-2.0
 21
6.044612236779295e-17
 31
0.0
 40
0.3957517648521873
 41
-5.290087981517996
 42
-3.7192916547231
  0
ELLIPSE
  5
178
330
17
100
AcDbEntity
  8
visible
100
AcDbEllipse
 10
9.453621389397028
 20
10.312231399535321
 30
0.0
 11
4.151553927713023
 21
-6.838464738908184
 31
0.0
 40
0.7693277840089764
 41
-6.283185307179586
 42
-5.380457794950152
  0
ELLIPSE
  5
179
330
17
100
AcDbEntity
  8
visible
100
AcDbEllipse
 10
9.453621389397028
 20
10.312231399535321
 30
0.0
 11
4.151553927713023
 21
-6.838464738908184
 31
0.0
 40
0.7693277840089764
 41
-0.5427409833973965
 42
-1.1102230246251565e-16
  0
LINE
  5
17A
330
17
100
AcDbEntity
  8
visible
100
AcDbLine
 10
16.155392884557696
 20
33.37893122147506
 30
0.0
 11
16.155392884557696
 21
8.583278092159418
 31
0.0
  0
LINE
  5
17B
330
17
100
AcDbEntity
  8
visible
100
AcDbLine
 10
16.155392884557696
 20
33.37893122147506
 30
0.0
 11
18.938106255773008
 21
32.66103424600879
 31
0.0
  0
ELLIPSE
  5
17C
330
17
100
AcDbEntity
  8
visible
100
AcDbEllipse
 10
9.453621389397028
 20
10.312231399535321
 30
0.0
 11
6.746275132533662
 21
-11.1125052007258
 31
0.0
 40
0.7693277840089764
 41
-6.186571943882378
 42
-5.894213381403087
  0
LINE
  5
17D
330
17
100
AcDbEntity
  8
visible
100
AcDbLine
 10
16.155392884557696
 20
33.37893122147506
 30
0.0
 11
17.695162309478977
 21
34.31370767318854
 31
0.0
  0
LINE
  5
17E
330
17
100
AcDbEntity
  8
visible
100
AcDbLine
 10
17.55933077503258
 20
33.86890075284295
 30
0.0
 11
18.938106255773008
 21
33.51319802121798
 31
0.0
  0
ELLIPSE
  5
17F
330
17
100
AcDbEntity
  8
visible
100
AcDbEllipse
 10
20.39693811969706
 20
32.83650722958026
 30
0.0
 11
-1.4988323735327451
 21
-5.809776374013909
 31
0.0
 40
0.5015130121624133
 41
4.422616825933572
 42
4.663901156564908
  0
LINE
  5
180
330
17
100
AcDbEntity
  8
visible
100
AcDbLine
 10
16.828727742307816
 20
35.5275865623595
 30
0.0
 11
18.938106255773008
 21
34.98339955747627
 31
0.0
  0
LINE
  5
181
330
17
100
AcDbEntity
  8
visible
100
AcDbLine
 10
16.828727742307816
 20
41.95608922551541
 30
0.0
 11
18.938106255773008
 21
41.41190222063218
 31
0.0
  0
LINE
  5
182
330
17
100
AcDbEntity
  8
visible
100
AcDbLine
 10
16.828727742307816
 20
41.95608922551541
 30
0.0
 11
18.938106255773008
 21
43.236668856610805
 31
0.0
  0
LINE
  5
183
330
17
100
AcDbEntity
  8
visible
100
AcDbLine
 10
16.828727742307816
 20
35.5275865623595
 30
0.0
 11
16.828727742307816
 21
41.956089225515406
 31
0.0
  0
ELLIPSE
  5
184
330
17
100
AcDbEntity
  8
visible
100
AcDbEllipse
 10
-20.590115596768403
 20
28.582418478638118
 30
0.0
 11
5.96785877108747
 21
-9.830293062180514
 31
0.0
 40
0.7693277840089764
 41
-6.283185307179586
 42
-5.380457794950152
  0
ELLIPSE
  5
185
330
17
100
AcDbEntity
  8
visible
100
AcDbEllipse
 10
-20.590115596768403
 20
28.582418478638118
 30
0.0
 11
5.96785877108747
 21
-9.830293062180514
 31
0.0
 40
0.7693277840089764
 41
-5.380457794950152
 42
-3.1415926535897936
  0
ELLIPSE
  5
186
330
17
100
AcDbEntity
  8
visible
100
AcDbEllipse
 10
-21.682311172966067
 20
27.91935900442664
 30
0.0
 11
5.96785877108747
 21
-9.830293062180514
 31
0.0
 40
0.7693277840089764
 41
-6.283185307179586
 42
-5.380457794950152
  0
ELLIPSE
  5
187
330
17
100
AcDbEntity
  8
visible
100
AcDbEllipse
 10
-21.682311172966067
 20
27.91935900442664
 30
0.0
 11
5.96785877108747
 21
-9.830293062180514
 31
0.0
 40
0.7693277840089764
 41
-3.1415926535897936
 42
-1.1102230246251565e-16
  0
ELLIPSE
  5
188
330
17
100
AcDbEntity
  8
visible
100
AcDbEllipse
 10
-21.682311172966067
 20
27.91935900442664
 30
0.0
 11
5.96785877108747
 21
-9.830293062180514
 31
0.0
 40
0.7693277840089764
 41
-5.380457794950152
 42
-3.1415926535897936
  0
LINE
  5
189
330
17
100
AcDbEntity
  8
visible
100
AcDbLine
 10
-68.13591519757296
 20
-34.72112588632453
 30
0.0
 11
-68.13591519757296
 21
-29.394652251138204
 31
0.0
  0
LINE
  5
18A
330
17
100
AcDbEntity
  8
visible
100
AcDbLine
 10
8.934456996774696
 20
-54.60408892114748
 30
0.0
 11
8.934456996774696
 21
-49.277615285961154
 31
0.0
  0
LINE
  5
18B
330
17
100
AcDbEntity
  8
visible
100
AcDbLine
 10
20.005010796726022
 20
-53.68080433167748
 30
0.0
 11
20.005010796726022
 21
-48.354330696491154
 31
0.0
  0
LINE
  5
18C
330
17
100
AcDbEntity
  8
visible
100
AcDbLine
 10
59.32405153984193
 20
-29.810663260064235
 30
0.0
 11
59.32405153984193
 21
-24.484189624877914
 31
0.0
  0
LINE
  5
18D
330
17
100
AcDbEntity
  8
visible
100
AcDbLine
 10
-67.80825652471366
 20
-35.62423707203067
 30
0.0
 11
-67.80825652471366
 21
-34.80565675201274
 31
0.0
  0
LINE
  5
18E
330
17
100
AcDbEntity
  8
visible
100
AcDbLine
 10
9.262115669633996
 20
-55.50720010685362
 30
0.0
 11
9.262115669633996
 21
-54.68423882527733
 31
0.0
  0
LINE
  5
18F
330
17
100
AcDbEntity
  8
visible
100
AcDbLine
 10
19.502377934588967
 20
-54.653161861593865
 30
0.0
 11
19.502377934588967
 21
-53.9530671821254
 31
0.0
  0
LINE
  5
190
330
17
100
AcDbEntity
  8
visible
100
AcDbLine
 10
58.821418677704884
 20
-30.783020789980625
 30
0.0
 11
58.821418677704884
 21
-30.11580593647962
 31
0.0
  0
LINE
  5
191
330
17
100
AcDbEntity
  8
visible
100
AcDbLine
 10
59.32405153984193
 20
-61.21849055719738
 30
0.0
 11
59.32405153984193
 21
-30.91269228803382
 31
0.0
  0
LINE
  5
192
330
17
100
AcDbEntity
  8
visible
100
AcDbLine
 10
20.005010796726022
 20
-85.08863162881062
 30
0.0
 11
20.005010796726022
 21
-54.78283335964706
 31
0.0
  0
LINE
  5
193
330
17
100
AcDbEntity
  8
visible
100
AcDbLine
 10
-68.13591519757296
 20
-66.12895318345767
 30
0.0
 11
-68.13591519757296
 21
-53.73112661879985
 31
0.0
  0
LINE
  5
194
330
17
100
AcDbEntity
  8
visible
100
AcDbLine
 10
8.934456996774696
 20
-86.01191621828062
 30
0.0
 11
8.934456996774696
 21
-55.70611794911706
 31
0.0
  0
LINE
  5
195
330
17
100
AcDbEntity
  8
visible
100
AcDbLine
 10
-68.13591519757296
 20
-42.710836339104006
 30
0.0
 11
-68.13591519757296
 21
-35.82315491429411
 31
0.0
  0
LINE
  5
196
330
17
100
AcDbEntity
  8
visible
100
AcDbLine
 10
-34.78350219089405
 20
-51.56518565197965
 30
0.0
 11
-35.11116086375335
 21
-51.76410349424309
 31
0.0
  0
LINE
  5
197
330
17
100
AcDbEntity
  8
visible
100
AcDbLine
 10
-35.48644373840587
 20
-51.23630849987563
 30
0.0
 11
-35.81410241126517
 21
-51.435226342139075
 31
0.0
  0
LINE
  5
198
330
17
100
AcDbEntity
  8
visible
100
AcDbLine
 10
-37.04980864651769
 20
-50.96324962190792
 30
0.0
 11
-37.37746731937699
 21
-51.16216746417136
 31
0.0
  0
LINE
  5
199
330
17
100
AcDbEntity
  8
visible
100
AcDbLine
 10
-37.60815325655762
 20
-52.60054093209833
 30
0.0
 11
-37.93581192941692
 21
-52.799458774361774
 31
0.0
  0
LINE
  5
19A
330
17
100
AcDbEntity
  8
visible
100
AcDbLine
 10
-37.04980864651769
 20
-54.522781858245224
 30
0.0
 11
-37.37746731937699
 21
-54.721699700508665
 31
0.0
  0
LINE
  5
19B
330
17
100
AcDbEntity
  8
visible
100
AcDbLine
 10
-35.52080340671601
 20
-55.56856688533324
 30
0.0
 11
-35.84846207957531
 21
-55.76748472759668
 31
0.0
  0
LINE
  5
19C
330
17
100
AcDbEntity
  8
visible
100
AcDbLine
 10
-34.80354533074164
 20
-55.640607342944
 30
0.0
 11
-35.13120400360094
 21
-55.83952518520744
 31
0.0
  0
LINE
  5
19D
330
17
100
AcDbEntity
  8
visible
100
AcDbLine
 10
-68.13591519757296
 20
-29.394652251138204
 30
0.0
 11
-68.13591519757296
 21
-25.721222157906258
 31
0.0
  0
LINE
  5
19E
330
17
100
AcDbEntity
  8
visible
100
AcDbLine
 10
8.934456996774696
 20
-49.27761528596116
 30
0.0
 11
8.934456996774696
 21
-45.60418519272922
 31
0.0
  0
LINE
  5
19F
330
17
100
AcDbEntity
  8
visible
100
AcDbLine
 10
20.005010796726022
 20
-48.354330696491154
 30
0.0
 11
20.005010796726022
 21
-44.680900603259204
 31
0.0
  0
LINE
  5
1A0
330
17
100
AcDbEntity
  8
visible
100
AcDbLine
 10
59.32405153984193
 20
-24.484189624877914
 30
0.0
 11
59.32405153984193
 21
-20.810759531645967
 31
0.0
  0
LINE
  5
1A1
330
17
100
AcDbEntity
  8
visible
100
AcDbLine
 10
23.350324117153242
 20
1.137537556826146
 30
0.0
 11
23.350324117153242
 21
49.810486292149434
 31
0.0
  0
LINE
  5
1A2
330
17
100
AcDbEntity
  8
visible
100
AcDbLine
 10
40.94247429194999
 20
-3.400964875035612
 30
0.0
 11
40.94247429194999
 21
45.271983860287676
 31
0.0
  0
LINE
  5
1A3
330
17
100
AcDbEntity
  8
visible
100
AcDbLine
 10
43.71011274193783
 20
-3.170143727668112
 30
0.0
 11
43.71011274193783
 21
45.502805007655176
 31
0.0
  0
LINE
  5
1A4
330
17
100
AcDbEntity
  8
visible
100
AcDbLine
 10
55.72426408011213
 20
4.123510488658155
 30
0.0
 11
55.72426408011213
 21
52.796459223981444
 31
0.0
  0
LINE
  5
1A5
330
17
100
AcDbEntity
  8
visible
100
AcDbLine
 10
-45.55737212447594
 20
1.9362418461737718
 30
0.0
 11
-45.55737212447594
 21
6.528029462713705
 31
0.0
  0
LINE
  5
1A6
330
17
100
AcDbEntity
  8
visible
100
AcDbLine
 10
6.344207453525554
 20
-10.036318747828332
 30
0.0
 11
6.344207453525554
 21
-5.444531131288399
 31
0.0
  0
LINE
  5
1A7
330
17
100
AcDbEntity
  8
visible
100
AcDbLine
 10
0.7346315345625509
 20
-3.0525183497010104
 30
0.0
 11
0.7346315345625509
 21
1.5392692668389225
 31
0.0
  0
LINE
  5
1A8
330
17
100
AcDbEntity
  8
visible
100
AcDbLine
 10
-38.05502870191386
 20
6.009784530076999
 30
0.0
 11
-38.05502870191386
 21
10.601572146616931
 31
0.0
  0
LINE
  5
1A9
330
17
100
AcDbEntity
  8
visible
100
AcDbLine
 10
-2.033006915425281
 20
-3.2833394970685106
 30
0.0
 11
-2.033006915425281
 21
1.3084481194714224
 31
0.0
  0
LINE
  5
1AA
330
17
100
AcDbEntity
  8
visible
100
AcDbLine
 10
2.1927497785438064
 20
-10.382550468879586
 30
0.0
 11
2.1927497785438064
 21
-5.790762852339653
 31
0.0
  0
ELLIPSE
  5
1AB
330
17
100
AcDbEntity
  8
visible
100
AcDbEllipse
 10
-38.09217821140753
 20
15.70182977801008
 30
0.0
 11
4.0
 21
-1.208922447355859e-16
 31
0.0
 40
0.3957517648521873
 41
3.141592653589793
 42
4.134689979251383
  0
ELLIPSE
  5
1AC
330
17
100
AcDbEntity
  8
visible
100
AcDbEllipse
 10
-38.09217821140753
 20
54.272845756945514
 30
0.0
 11
4.0
 21
-1.208922447355859e-16
 31
0.0
 40
0.3957517648521873
 41
3.141592653589793
 42
4.134689979251383
  0
LINE
  5
1AD
330
17
100
AcDbEntity
  8
visible
100
AcDbLine
 10
-40.276569363802864
 20
14.37571082958711
 30
0.0
 11
-40.276569363802864
 21
52.94672680852255
 31
0.0
  0
ELLIPSE
  5
1AE
330
17
100
AcDbEntity
  8
visible
100
AcDbEllipse
 10
-38.09217821140753
 20
54.272845756945514
 30
0.0
 11
-2.0757769638565104
 21
3.4192323694540927
 31
0.0
 40
0.7693277840089765
 41
5.615116492614125
 42
6.283185307179586
  0
LINE
  5
1AF
330
17
100
AcDbEntity
  8
visible
100
AcDbLine
 10
-38.092178211407536
 20
57.94627585017746
 30
0.0
 11
-12.425582170762429
 21
73.52817349414721
 31
0.0
  0
ELLIPSE
  5
1B0
330
17
100
AcDbEntity
  8
visible
100
AcDbEllipse
 10
-12.425582170762421
 20
69.85474340091528
 30
0.0
 11
2.0757769638565104
 21
-3.4192323694540927
 31
0.0
 40
0.7693277840089765
 41
-3.8096614681552547
 42
-3.141592653589793
  0
ELLIPSE
  5
1B1
330
17
100
AcDbEntity
  8
visible
100
AcDbEllipse
 10
-38.09217821140753
 20
15.70182977801008
 30
0.0
 11
0.9992215823551641
 21
3.8731842493426054
 31
0.0
 40
0.5015130121624132
 41
-4.2372780286061715
 42
-3.141592653589792
  0
ELLIPSE
  5
1B2
330
17
100
AcDbEntity
  8
visible
100
AcDbEllipse
 10
-38.09217821140753
 20
54.272845756945514
 30
0.0
 11
-0.9992215823551641
 21
-3.8731842493426054
 31
0.0
 40
0.5015130121624132
 41
3.6167036053683104
 42
5.187499932163207
  0
LINE
  5
1B3
330
17
100
AcDbEntity
  8
visible
100
AcDbLine
 10
-40.27656936380286
 20
14.375710829587124
 30
0.0
 11
-0.9036618297339487
 21
4.218110148753659
 31
0.0
  0
LINE
  5
1B4
330
17
100
AcDbEntity
  8
visible
100
AcDbLine
 10
-40.27656936380286
 20
52.94672680852256
 30
0.0
 11
-0.9036618297339487
 21
42.789126127689094
 31
0.0
  0
LINE
  5
1B5
330
17
100
AcDbEntity
  8
visible
100
AcDbLine
 10
-0.9036618297339452
 20
4.218110148753648
 30
0.0
 11
-0.9036618297339452
 21
42.78912612768909
 31
0.0
  0
LINE
  5
1B6
330
17
100
AcDbEntity
  8
visible
100
AcDbLine
 10
-38.09217821140753
 20
57.946275850177464
 30
0.0
 11
1.2807293226613794
 21
47.788675169343996
 31
0.0
  0
LINE
  5
1B7
330
17
100
AcDbEntity
  8
visible
100
AcDbLine
 10
-12.42558217076242
 20
73.52817349414723
 30
0.0
 11
26.94732536330649
 21
63.370572813313764
 31
0.0
  0
LINE
  5
1B8
330
17
100
AcDbEntity
  8
visible
100
AcDbLine
 10
1.2807293226613834
 20
47.788675169344
 30
0.0
 11
26.94732536330649
 21
63.37057281331376
 31
0.0
  0
ELLIPSE
  5
1B9
330
17
100
AcDbEntity
  8
visible
100
AcDbEllipse
 10
-12.425582170762421
 20
69.85474340091528
 30
0.0
 11
-0.9992215823551639
 21
-3.873184249342606
 31
0.0
 40
0.5015130121624132
 41
3.1415926535897944
 42
3.616703605368311
  0
ELLIPSE
  5
1BA
330
17
100
AcDbEntity
  8
visible
100
AcDbEllipse
 10
1.280729322661383
 20
5.544229097176611
 30
0.0
 11
0.9992215823551641
 21
3.8731842493426054
 31
0.0
 40
0.5015130121624132
 41
-4.2372780286061715
 42
-3.1415926535897927
  0
ELLIPSE
  5
1BB
330
17
100
AcDbEntity
  8
visible
100
AcDbEllipse
 10
1.280729322661383
 20
44.115245076112046
 30
0.0
 11
-0.9992215823551641
 21
-3.8731842493426054
 31
0.0
 40
0.5015130121624132
 41
3.6167036053683104
 42
5.187499932163207
  0
LINE
  5
1BC
330
17
100
AcDbEntity
  8
visible
100
AcDbLine
 10
4.631615070241715
 20
4.679752443488655
 30
0.0
 11
4.631615070241715
 21
43.250768422424095
 31
0.0
  0
ELLIPSE
  5
1BD
330
17
100
AcDbEntity
  8
visible
100
AcDbEllipse
 10
1.280729322661383
 20
5.544229097176611
 30
0.0
 11
-4.0
 21
1.208922447355859e-16
 31
0.0
 40
0.3957517648521873
 41
-5.290087981517996
 42
-3.7192916547231
  0
ELLIPSE
  5
1BE
330
17
100
AcDbEntity
  8
visible
100
AcDbEllipse
 10
1.280729322661383
 20
44.115245076112046
 30
0.0
 11
-4.0
 21
1.208922447355859e-16
 31
0.0
 40
0.3957517648521873
 41
-5.290087981517996
 42
-3.7192916547231
  0
ELLIPSE
  5
1BF
330
17
100
AcDbEntity
  8
visible
100
AcDbEllipse
 10
1.280729322661383
 20
5.544229097176611
 30
0.0
 11
-2.0757769638565104
 21
3.4192323694540927
 31
0.0
 40
0.7693277840089765
 41
3.1415926535897927
 42
4.044320165819228
  0
LINE
  5
1C0
330
17
100
AcDbEntity
  8
visible
100
AcDbLine
 10
4.631615070241715
 20
4.679752443488665
 30
0.0
 11
16.155392884557696
 21
11.675706487810311
 31
0.0
  0
ELLIPSE
  5
1C1
330
17
100
AcDbEntity
  8
visible
100
AcDbEllipse
 10
26.94732536330649
 20
59.697142720081814
 30
0.0
 11
-0.9992215823551643
 21
-3.8731842493426054
 31
0.0
 40
0.5015130121624132
 41
3.1415926535897936
 42
3.616703605368311
  0
ELLIPSE
  5
1C2
330
17
100
AcDbEntity
  8
visible
100
AcDbEllipse
 10
1.280729322661383
 20
44.115245076112046
 30
0.0
 11
2.0757769638565104
 21
-3.4192323694540927
 31
0.0
 40
0.7693277840089765
 41
-5.380457794950151
 42
-3.8096614681552543
  0
LINE
  5
1C3
330
17
100
AcDbEntity
  8
visible
100
AcDbLine
 10
4.631615070241715
 20
43.2507684224241
 30
0.0
 11
30.29821111088682
 21
58.832666066393855
 31
0.0
  0
ELLIPSE
  5
1C4
330
17
100
AcDbEntity
  8
visible
100
AcDbEllipse
 10
26.94732536330649
 20
59.697142720081814
 30
0.0
 11
-2.0757769638565104
 21
3.4192323694540927
 31
0.0
 40
0.7693277840089765
 41
4.044320165819228
 42
5.615116492614124
  0
LINE
  5
1C5
330
17
100
AcDbEntity
  8
visible
100
AcDbLine
 10
30.298211110886825
 20
57.917432205476544
 30
0.0
 11
30.298211110886825
 21
58.83266606639385
 31
0.0
  0
ELLIPSE
  5
1C6
330
17
100
AcDbEntity
  8
visible
100
AcDbEllipse
 10
26.94732536330649
 20
59.697142720081814
 30
0.0
 11
-4.0
 21
1.208922447355859e-16
 31
0.0
 40
0.3957517648521873
 41
-3.7192916547231
 42
-3.141592653589793
  0
LINE
  5
1C7
330
17
100
AcDbEntity
  8
visible
100
AcDbLine
 10
-71.76713289278231
 20
-32.06888798947861
 30
0.0
 11
-71.76713289278231
 21
-26.742414354292286
 31
0.0
  0
LINE
  5
1C8
330
17
100
AcDbEntity
  8
visible
100
AcDbLine
 10
60.622280044681276
 20
-28.081709952688325
 30
0.0
 11
60.622280044681276
 21
-22.755236317502003
 31
0.0
  0
LINE
  5
1C9
330
17
100
AcDbEntity
  8
visible
100
AcDbLine
 10
60.622280044681276
 20
-59.48953724982147
 30
0.0
 11
60.622280044681276
 21
-29.18373898065791
 31
0.0
  0
LINE
  5
1CA
330
17
100
AcDbEntity
  8
visible
100
AcDbLine
 10
-71.76713289278231
 20
-63.47671528661175
 30
0.0
 11
-71.76713289278231
 21
-33.17091701744819
 31
0.0
  0
SPLINE
  5
1CB
330
17
100
AcDbEntity
  8
visible
100
AcDbSpline
 70
0
 71
1
 72
4
 73
2
 74
0
 40
0.0
 40
0.0
 40
1.0
 40
1.0
 10
-36.443206781639944
 20
-51.30719318010536
 30
0.0
 10
-36.770865454499244
 20
-51.5061110223688
 30
0.0
  0
SPLINE
  5
1CC
330
17
100
AcDbEntity
  8
visible
100
AcDbSpline
 70
0
 71
1
 72
4
 73
2
 74
0
 40
0.0
 40
0.0
 40
1.0
 40
1.0
 10
-34.488391875631876
 20
-55.0153138649802
 30
0.0
 10
-34.63526189962762
 20
-55.10447698101028
 30
0.0
  0
LINE
  5
1CD
330
17
100
AcDbEntity
  8
visible
100
AcDbLine
 10
-71.76713289278231
 20
-26.742414354292286
 30
0.0
 11
-71.76713289278231
 21
-23.06898426106034
 31
0.0
  0
LINE
  5
1CE
330
17
100
AcDbEntity
  8
visible
100
AcDbLine
 10
60.622280044681276
 20
-22.755236317502003
 30
0.0
 11
60.622280044681276
 21
-19.081806224270057
 31
0.0
  0
LINE
  5
1CF
330
17
100
AcDbEntity
  8
visible
100
AcDbLine
 10
-39.57242642405052
 20
-11.432641247931336
 30
0.0
 11
-39.57242642405052
 21
-5.922496108083417
 31
0.0
  0
LINE
  5
1D0
330
17
100
AcDbEntity
  8
visible
100
AcDbLine
 10
18.938106255773008
 20
-18.13597057150841
 30
0.0
 11
18.938106255773008
 21
2.73500022890666
 31
0.0
  0
LINE
  5
1D1
330
17
100
AcDbEntity
  8
visible
100
AcDbLine
 10
35.25931297394245
 20
-10.74998789623514
 30
0.0
 11
35.25931297394245
 21
-1.934797226046797
 31
0.0
  0
LINE
  5
1D2
330
17
100
AcDbEntity
  8
visible
100
AcDbLine
 10
18.938106255773008
 20
7.669875833446014
 30
0.0
 11
18.938106255773008
 21
45.897803824382024
 31
0.0
  0
LINE
  5
1D3
330
17
100
AcDbEntity
  8
visible
100
AcDbLine
 10
22.44251969335091
 20
1.8005970310376256
 30
0.0
 11
22.44251969335091
 21
50.473545766360914
 31
0.0
  0
LINE
  5
1D4
330
17
100
AcDbEntity
  8
visible
100
AcDbLine
 10
56.04882120632196
 20
4.555748815502142
 30
0.0
 11
56.04882120632196
 21
53.22869755082543
 31
0.0
  0
LINE
  5
1D5
330
17
100
AcDbEntity
  8
visible
100
AcDbLine
 10
-46.919078760179445
 20
2.930831057490991
 30
0.0
 11
-46.919078760179445
 21
7.522618674030924
 31
0.0
  0
LINE
  5
1D6
330
17
100
AcDbEntity
  8
visible
100
AcDbLine
 10
-38.962833125716195
 20
6.6728440042884785
 30
0.0
 11
-38.962833125716195
 21
11.26463162082841
 31
0.0
  0
LINE
  5
1D7
330
17
100
AcDbEntity
  8
visible
100
AcDbLine
 10
-42.09217821140753
 20
15.701829778010069
 30
0.0
 11
-42.09217821140753
 21
54.27284575694551
 31
0.0
  0
LINE
  5
1D8
330
17
100
AcDbEntity
  8
visible
100
AcDbLine
 10
-40.16795517526405
 20
57.69207812639961
 30
0.0
 11
-14.50135913461894
 21
73.27397577036936
 31
0.0
  0
ARC
  5
1D9
330
17
100
AcDbEntity
  8
visible
100
AcDbCircle
 10
-38.09217821140753
 20
15.70182977801008
 30
0.0
 40
4.0
100
AcDbArc
 50
179.99999999999997
 51
255.53400319765748
  0
ARC
  5
1DA
330
17
100
AcDbEntity
  8
visible
100
AcDbCircle
 10
-38.09217821140753
 20
54.272845756945514
 30
0.0
 40
4.0
100
AcDbArc
 50
121.26145988020855
 51
179.99999999999997
  0
ARC
  5
1DB
330
17
100
AcDbEntity
  8
visible
100
AcDbCircle
 10
-12.425582170762421
 20
69.85474340091528
 30
0.0
 40
4.0
100
AcDbArc
 50
75.53400319765747
 51
121.26145988020855
  0
LINE
  5
1DC
330
17
100
AcDbEntity
  8
visible
100
AcDbLine
 10
-39.09139979376269
 20
11.828645528667455
 30
0.0
 11
0.2815077403062176
 21
1.6710448478339899
 31
0.0
  0
LINE
  5
1DD
330
17
100
AcDbEntity
  8
visible
100
AcDbLine
 10
3.3565062865178956
 20
2.124996727722517
 30
0.0
 11
16.155392884557696
 21
9.895054767815466
 31
0.0
  0
LINE
  5
1DE
330
17
100
AcDbEntity
  8
visible
100
AcDbLine
 10
-11.426360588407256
 20
73.72792765025785
 30
0.0
 11
27.94654694566165
 21
63.57032696942439
 31
0.0
  0
LINE
  5
1DF
330
17
100
AcDbEntity
  8
visible
100
AcDbLine
 10
30.94732536330649
 20
58.31150206282842
 30
0.0
 11
30.94732536330649
 21
59.69714272008181
 31
0.0
  0
ARC
  5
1E0
330
17
100
AcDbEntity
  8
visible
100
AcDbCircle
 10
1.280729322661383
 20
5.544229097176611
 30
0.0
 40
4.0
100
AcDbArc
 50
255.53400319765748
 51
301.2614598802086
  0
ARC
  5
1E1
330
17
100
AcDbEntity
  8
visible
100
AcDbCircle
 10
26.94732536330649
 20
59.697142720081814
 30
0.0
 40
4.0
100
AcDbArc
 50
360.0
 51
435.5340031976575
  0
LINE
  5
1E2
330
17
100
AcDbEntity
  8
visible
100
AcDbLine
 10
-15.714452401878596
 20
18.089065942246123
 30
0.0
 11
-14.622256825680932
 21
18.752125416457602
 31
0.0
  0
LINE
  5
1E3
330
17
100
AcDbEntity
  8
visible
100
AcDbLine
 10
-27.65016994405354
 20
37.749652066607155
 30
0.0
 11
-26.557974367855877
 21
38.412711540818634
 31
0.0
  0
ENDSEC
  0
SECTION
  2
OBJECTS
  0
DICTIONARY
  5
A
330
0
100
AcDbDictionary
281
1
  3
ACAD_COLOR
350
B
  3
ACAD_GROUP
350
C
  3
ACAD_LAYOUT
350
D
  3
ACAD_MATERIAL
350
E
  3
ACAD_MLEADERSTYLE
350
F
  3
ACAD_MLINESTYLE
350
10
  3
ACAD_PLOTSETTINGS
350
11
  3
ACAD_PLOTSTYLENAME
350
12
  3
ACAD_SCALELIST
350
14
  3
ACAD_TABLESTYLE
350
15
  3
ACAD_VISUALSTYLE
350
16
  3
EZDXF_META
350
2D
  0
DICTIONARY
  5
B
330
A
100
AcDbDictionary
281
1
  0
DICTIONARY
  5
C
330
A
100
AcDbDictionary
281
1
  0
DICTIONARY
  5
D
330
A
100
AcDbDictionary
281
1
  3
Model
350
1A
  3
Layout1
350
1E
  0
DICTIONARY
  5
E
330
A
100
AcDbDictionary
281
1
  3
ByBlock
350
1F
  3
ByLayer
350
20
  3
Global
350
21
  0
DICTIONARY
  5
F
330
A
100
AcDbDictionary
281
1
  3
Standard
350
2C
  0
DICTIONARY
  5
10
330
A
100
AcDbDictionary
281
1
  3
Standard
350
22
  0
DICTIONARY
  5
11
330
A
100
AcDbDictionary
281
1
  0
ACDBDICTIONARYWDFLT
  5
12
330
A
100
AcDbDictionary
281
1
  3
Normal
350
13
100
AcDbDictionaryWithDefault
340
13
  0
ACDBPLACEHOLDER
  5
13
330
12
  0
DICTIONARY
  5
14
330
A
100
AcDbDictionary
281
1
  0
DICTIONARY
  5
15
330
A
100
AcDbDictionary
281
1
  0
DICTIONARY
  5
16
330
A
100
AcDbDictionary
281
1
  0
LAYOUT
  5
1A
330
D
100
AcDbPlotSettings
  1

  4
A3
  6

 40
7.5
 41
20.0
 42
7.5
 43
20.0
 44
420.0
 45
297.0
 46
0.0
 47
0.0
 48
0.0
 49
0.0
140
0.0
141
0.0
142
1.0
143
1.0
 70
1024
 72
1
 73
0
 74
5
  7

 75
16
 76
0
 77
2
 78
300
147
1.0
148
0.0
149
0.0
100
AcDbLayout
  1
Model
 70
1
 71
0
 10
0.0
 20
0.0
 11
420.0
 21
297.0
 12
0.0
 22
0.0
 32
0.0
 14
1e+20
 24
1e+20
 34
1e+20
 15
-1e+20
 25
-1e+20
 35
-1e+20
146
0.0
 13
0.0
 23
0.0
 33
0.0
 16
1.0
 26
0.0
 36
0.0
 17
0.0
 27
1.0
 37
0.0
 76
1
330
17
  0
LAYOUT
  5
1E
330
D
100
AcDbPlotSettings
  1

  4
A3
  6

 40
7.5
 41
20.0
 42
7.5
 43
20.0
 44
420.0
 45
297.0
 46
0.0
 47
0.0
 48
0.0
 49
0.0
140
0.0
141
0.0
142
1.0
143
1.0
 70
0
 72
1
 73
0
 74
5
  7

 75
16
 76
0
 77
2
 78
300
147
1.0
148
0.0
149
0.0
100
AcDbLayout
  1
Layout1
 70
1
 71
1
 10
0.0
 20
0.0
 11
420.0
 21
297.0
 12
0.0
 22
0.0
 32
0.0
 14
1e+20
 24
1e+20
 34
1e+20
 15
-1e+20
 25
-1e+20
 35
-1e+20
146
0.0
 13
0.0
 23
0.0
 33
0.0
 16
1.0
 26
0.0
 36
0.0
 17
0.0
 27
1.0
 37
0.0
 76
1
330
1B
  0
MATERIAL
  5
1F
102
{ACAD_REACTORS
330
E
102
}
330
E
100
AcDbMaterial
  1
ByBlock
  2

 70
0
 40
1.0
 71
1
 41
1.0
 91
-1023410177
 42
1.0
 72
1
  3

 73
1
 74
1
 75
1
 44
0.5
 73
0
 45
1.0
 46
1.0
 77
1
  4

 78
1
 79
1
170
1
 48
1.0
171
1
  6

172
1
173
1
174
1
140
1.0
141
1.0
175
1
  7

176
1
177
1
178
1
143
1.0
179
1
  8

270
1
271
1
272
1
145
1.0
146
1.0
273
1
  9

274
1
275
1
276
1
 42
1.0
 72
1
  3

 73
1
 74
1
 75
1
 94
63
  0
MATERIAL
  5
20
102
{ACAD_REACTORS
330
E
102
}
330
E
100
AcDbMaterial
  1
ByLayer
  2

 70
0
 40
1.0
 71
1
 41
1.0
 91
-1023410177
 42
1.0
 72
1
  3

 73
1
 74
1
 75
1
 44
0.5
 73
0
 45
1.0
 46
1.0
 77
1
  4

 78
1
 79
1
170
1
 48
1.0
171
1
  6

172
1
173
1
174
1
140
1.0
141
1.0
175
1
  7

176
1
177
1
178
1
143
1.0
179
1
  8

270
1
271
1
272
1
145
1.0
146
1.0
273
1
  9

274
1
275
1
276
1
 42
1.0
 72
1
  3

 73
1
 74
1
 75
1
 94
63
  0
MATERIAL
  5
21
102
{ACAD_REACTORS
330
E
102
}
330
E
100
AcDbMaterial
  1
Global
  2

 70
0
 40
1.0
 71
1
 41
1.0
 91
-1023410177
 42
1.0
 72
1
  3

 73
1
 74
1
 75
1
 44
0.5
 73
0
 45
1.0
 46
1.0
 77
1
  4

 78
1
 79
1
170
1
 48
1.0
171
1
  6

172
1
173
1
174
1
140
1.0
141
1.0
175
1
  7

176
1
177
1
178
1
143
1.0
179
1
  8

270
1
271
1
272
1
145
1.0
146
1.0
273
1
  9

274
1
275
1
276
1
 42
1.0
 72
1
  3

 73
1
 74
1
 75
1
 94
63
  0
MLINESTYLE
  5
22
102
{ACAD_REACTORS
330
10
102
}
330
10
100
AcDbMlineStyle
  2
Standard
 70
0
  3

 62
256
 51
90.0
 52
90.0
 71
2
 49
0.5
 62
256
  6
BYLAYER
 49
-0.5
 62
256
  6
BYLAYER
  0
MLEADERSTYLE
  5
2C
102
{ACAD_REACTORS
330
F
102
}
330
F
100
AcDbMLeaderStyle
179
2
170
2
171
1
172
0
 90
2
 40
0.0
 41
0.0
173
1
 91
-1056964608
 92
-2
290
1
 42
2.0
291
1
 43
8.0
  3
Standard
 44
4.0
300

342
29
174
1
175
1
176
0
178
1
 93
-1056964608
 45
4.0
292
0
297
0
 46
4.0
 94
-1056964608
 47
1.0
 49
1.0
140
1.0
294
1
141
0.0
177
0
142
1.0
295
0
296
0
143
3.75
271
0
272
9
273
9
  0
DICTIONARY
  5
2D
330
A
100
AcDbDictionary
280
1
281
1
  3
CREATED_BY_EZDXF
350
2E
  3
WRITTEN_BY_EZDXF
350
1E7
  0
DICTIONARYVAR
  5
2E
330
2D
100
DictionaryVariables
280
0
  1
1.4.4 @ 2026-10-01T18:29:35.758372+00:00
  0
DICTIONARYVAR
  5
1E7
330
2D
100
DictionaryVariables
280
0
  1
1.4.4 @ 2026-10-01T18:29:35.825568+00:00
  0
ENDSEC
  0
EOF
