  0
SECTION
  2
HEADER
  9
$ACADVER
  1
AC1027
  9
$ACADMAINTVER
 70
105
  9
$DWGCODEPAGE
  3
ANSI_1252
  9
$LASTSAVEDBY
  1
ezdxf
  9
$REQUIREDVERSIONS
160
0
  9
$INSBASE
 10
0.0
 20
0.0
 30
0.0
  9
$EXTMIN
 10
1e+20
 20
1e+20
 30
1e+20
  9
$EXTMAX
 10
-1e+20
 20
-1e+20
 30
-1e+20
  9
$LIMMIN
 10
0.0
 20
0.0
  9
$LIMMAX
 10
420.0
 20
297.0
  9
$ORTHOMODE
 70
0
  9
$REGENMODE
 70
1
  9
$FILLMODE
 70
1
  9
$QTEXTMODE
 70
0
  9
$MIRRTEXT
 70
1
  9
$LTSCALE
 40
1.0
  9
$ATTMODE
 70
1
  9
$TEXTSIZE
 40
2.5
  9
$TRACEWID
 40
1.0
  9
$TEXTSTYLE
  7
Standard
  9
$CLAYER
  8
0
  9
$CELTYPE
  6
ByLayer
  9
$CECOLOR
 62
256
  9
$CELTSCALE
 40
1.0
  9
$DISPSILH
 70
0
  9
$DIMSCALE
 40
1.0
  9
$DIMASZ
 40
2.5
  9
$DIMEXO
 40
0.625
  9
$DIMDLI
 40
3.75
  9
$DIMRND
 40
0.0
  9
$DIMDLE
 40
0.0
  9
$DIMEXE
 40
1.25
  9
$DIMTP
 40
0.0
  9
$DIMTM
 40
0.0
  9
$DIMTXT
 40
2.5
  9
$DIMCEN
 40
2.5
  9
$DIMTSZ
 40
0.0
  9
$DIMTOL
 70
0
  9
$DIMLIM
 70
0
  9
$DIMTIH
 70
0
  9
$DIMTOH
 70
0
  9
$DIMSE1
 70
0
  9
$DIMSE2
 70
0
  9
$DIMTAD
 70
1
  9
$DIMZIN
 70
8
  9
$DIMBLK
  1

  9
$DIMASO
 70
1
  9
$DIMSHO
 70
1
  9
$DIMPOST
  1

  9
$DIMAPOST
  1

  9
$DIMALT
 70
0
  9
$DIMALTD
 70
3
  9
$DIMALTF
 40
0.03937007874
  9
$DIMLFAC
 40
1.0
  9
$DIMTOFL
 70
1
  9
$DIMTVP
 40
0.0
  9
$DIMTIX
 70
0
  9
$DIMSOXD
 70
0
  9
$DIMSAH
 70
0
  9
$DIMBLK1
  1

  9
$DIMBLK2
  1

  9
$DIMSTYLE
  2
ISO-25
  9
$DIMCLRD
 70
0
  9
$DIMCLRE
 70
0
  9
$DIMCLRT
 70
0
  9
$DIMTFAC
 40
1.0
  9
$DIMGAP
 40
0.625
  9
$DIMJUST
 70
0
  9
$DIMSD1
 70
0
  9
$DIMSD2
 70
0
  9
$DIMTOLJ
 70
0
  9
$DIMTZIN
 70
8
  9
$DIMALTZ
 70
0
  9
$DIMALTTZ
 70
0
  9
$DIMUPT
 70
0
  9
$DIMDEC
 70
2
  9
$DIMTDEC
 70
2
  9
$DIMALTU
 70
2
  9
$DIMALTTD
 70
3
  9
$DIMTXSTY
  7
Standard
  9
$DIMAUNIT
 70
0
  9
$DIMADEC
 70
0
  9
$DIMALTRND
 40
0.0
  9
$DIMAZIN
 70
0
  9
$DIMDSEP
 70
44
  9
$DIMATFIT
 70
3
  9
$DIMFRAC
 70
0
  9
$DIMLDRBLK
  1

  9
$DIMLUNIT
 70
2
  9
$DIMLWD
 70
-2
  9
$DIMLWE
 70
-2
  9
$DIMTMOVE
 70
0
  9
$DIMFXL
 40
1.0
  9
$DIMFXLON
 70
0
  9
$DIMJOGANG
 40
0.785398163397
  9
$DIMTFILL
 70
0
  9
$DIMTFILLCLR
 70
0
  9
$DIMARCSYM
 70
0
  9
$DIMLTYPE
  6

  9
$DIMLTEX1
  6

  9
$DIMLTEX2
  6

  9
$DIMTXTDIRECTION
 70
0
  9
$LUNITS
 70
2
  9
$LUPREC
 70
4
  9
$SKETCHINC
 40
1.0
  9
$FILLETRAD
 40
10.0
  9
$AUNITS
 70
0
  9
$AUPREC
 70
2
  9
$MENU
  1
.
  9
$ELEVATION
 40
0.0
  9
$PELEVATION
 40
0.0
  9
$THICKNESS
 40
0.0
  9
$LIMCHECK
 70
0
  9
$CHAMFERA
 40
0.0
  9
$CHAMFERB
 40
0.0
  9
$CHAMFERC
 40
0.0
  9
$CHAMFERD
 40
0.0
  9
$SKPOLY
 70
0
  9
$TDCREATE
 40
2461315.8955439813
  9
$TDUCREATE
 40
2458532.153996898
  9
$TDUPDATE
 40
2461315.8955439813
  9
$TDUUPDATE
 40
2458532.1544311
  9
$TDINDWG
 40
0.0
  9
$TDUSRTIMER
 40
0.0
  9
$USRTIMER
 70
1
  9
$ANGBASE
 50
0.0
  9
$ANGDIR
 70
0
  9
$PDMODE
 70
0
  9
$PDSIZE
 40
0.0
  9
$PLINEWID
 40
0.0
  9
$SPLFRAME
 70
0
  9
$SPLINETYPE
 70
6
  9
$SPLINESEGS
 70
8
  9
$HANDSEED
  5
29A
  9
$SURFTAB1
 70
6
  9
$SURFTAB2
 70
6
  9
$SURFTYPE
 70
6
  9
$SURFU
 70
6
  9
$SURFV
 70
6
  9
$UCSBASE
  2

  9
$UCSNAME
  2

  9
$UCSORG
 10
0.0
 20
0.0
 30
0.0
  9
$UCSXDIR
 10
1.0
 20
0.0
 30
0.0
  9
$UCSYDIR
 10
0.0
 20
1.0
 30
0.0
  9
$UCSORTHOREF
  2

  9
$UCSORTHOVIEW
 70
0
  9
$UCSORGTOP
 10
0.0
 20
0.0
 30
0.0
  9
$UCSORGBOTTOM
 10
0.0
 20
0.0
 30
0.0
  9
$UCSORGLEFT
 10
0.0
 20
0.0
 30
0.0
  9
$UCSORGRIGHT
 10
0.0
 20
0.0
 30
0.0
  9
$UCSORGFRONT
 10
0.0
 20
0.0
 30
0.0
  9
$UCSORGBACK
 10
0.0
 20
0.0
 30
0.0
  9
$PUCSBASE
  2

  9
$PUCSNAME
  2

  9
$PUCSORG
 10
0.0
 20
0.0
 30
0.0
  9
$PUCSXDIR
 10
1.0
 20
0.0
 30
0.0
  9
$PUCSYDIR
 10
0.0
 20
1.0
 30
0.0
  9
$PUCSORTHOREF
  2

  9
$PUCSORTHOVIEW
 70
0
  9
$PUCSORGTOP
 10
0.0
 20
0.0
 30
0.0
  9
$PUCSORGBOTTOM
 10
0.0
 20
0.0
 30
0.0
  9
$PUCSORGLEFT
 10
0.0
 20
0.0
 30
0.0
  9
$PUCSORGRIGHT
 10
0.0
 20
0.0
 30
0.0
  9
$PUCSORGFRONT
 10
0.0
 20
0.0
 30
0.0
  9
$PUCSORGBACK
 10
0.0
 20
0.0
 30
0.0
  9
$USERI1
 70
0
  9
$USERI2
 70
0
  9
$USERI3
 70
0
  9
$USERI4
 70
0
  9
$USERI5
 70
0
  9
$USERR1
 40
0.0
  9
$USERR2
 40
0.0
  9
$USERR3
 40
0.0
  9
$USERR4
 40
0.0
  9
$USERR5
 40
0.0
  9
$WORLDVIEW
 70
1
  9
$SHADEDGE
 70
3
  9
$SHADEDIF
 70
70
  9
$TILEMODE
 70
1
  9
$MAXACTVP
 70
64
  9
$PINSBASE
 10
0.0
 20
0.0
 30
0.0
  9
$PLIMCHECK
 70
0
  9
$PEXTMIN
 10
1e+20
 20
1e+20
 30
1e+20
  9
$PEXTMAX
 10
-1e+20
 20
-1e+20
 30
-1e+20
  9
$PLIMMIN
 10
0.0
 20
0.0
  9
$PLIMMAX
 10
420.0
 20
297.0
  9
$UNITMODE
 70
0
  9
$VISRETAIN
 70
1
  9
$PLINEGEN
 70
0
  9
$PSLTSCALE
 70
1
  9
$TREEDEPTH
 70
3020
  9
$CMLSTYLE
  2
Standard
  9
$CMLJUST
 70
0
  9
$CMLSCALE
 40
20.0
  9
$PROXYGRAPHICS
 70
1
  9
$MEASUREMENT
 70
1
  9
$CELWEIGHT
370
-1
  9
$ENDCAPS
280
0
  9
$JOINSTYLE
280
0
  9
$LWDISPLAY
290
0
  9
$INSUNITS
 70
4
  9
$HYPERLINKBASE
  1

  9
$STYLESHEET
  1

  9
$XEDIT
290
1
  9
$CEPSNTYPE
380
0
  9
$PSTYLEMODE
290
1
  9
$FINGERPRINTGUID
  2
{06FF0B52-83DB-439E-8AC1-E66F4186A3B4}
  9
$VERSIONGUID
  2
{93662DAB-78BC-42BC-BBC0-93577B541CB8}
  9
$EXTNAMES
290
1
  9
$PSVPSCALE
 40
0.0
  9
$OLESTARTUP
290
0
  9
$SORTENTS
280
127
  9
$INDEXCTL
280
0
  9
$HIDETEXT
280
1
  9
$XCLIPFRAME
280
1
  9
$HALOGAP
280
0
  9
$OBSCOLOR
 70
257
  9
$OBSLTYPE
280
0
  9
$INTERSECTIONDISPLAY
280
0
  9
$INTERSECTIONCOLOR
 70
257
  9
$DIMASSOC
280
2
  9
$PROJECTNAME
  1

  9
$CAMERADISPLAY
290
0
  9
$LENSLENGTH
 40
50.0
  9
$CAMERAHEIGHT
 40
0.0
  9
$STEPSPERSEC
 40
24.0
  9
$STEPSIZE
 40
100.0
  9
$3DDWFPREC
 40
2.0
  9
$PSOLWIDTH
 40
0.005
  9
$PSOLHEIGHT
 40
0.08
  9
$LOFTANG1
 40
1.570796326795
  9
$LOFTANG2
 40
1.570796326795
  9
$LOFTMAG1
 40
0.0
  9
$LOFTMAG2
 40
0.0
  9
$LOFTPARAM
 70
7
  9
$LOFTNORMALS
280
1
  9
$LATITUDE
 40
37.795
  9
$LONGITUDE
 40
-122.394
  9
$NORTHDIRECTION
 40
0.0
  9
$TIMEZONE
 70
-8000
  9
$LIGHTGLYPHDISPLAY
280
1
  9
$TILEMODELIGHTSYNCH
280
1
  9
$CMATERIAL
347
20
  9
$SOLIDHIST
280
0
  9
$SHOWHIST
280
1
  9
$DWFFRAME
280
2
  9
$DGNFRAME
280
2
  9
$REALWORLDSCALE
290
1
  9
$INTERFERECOLOR
 62
256
  9
$CSHADOW
280
0
  9
$SHADOWPLANELOCATION
 40
0.0
  0
ENDSEC
  0
SECTION
  2
CLASSES
  0
CLASS
  1
ACDBDICTIONARYWDFLT
  2
AcDbDictionaryWithDefault
  3
ObjectDBX Classes
 90
0
 91
0
280
0
281
0
  0
CLASS
  1
SUN
  2
AcDbSun
  3
SCENEOE
 90
1153
 91
0
280
0
281
0
  0
CLASS
  1
VISUALSTYLE
  2
AcDbVisualStyle
  3
ObjectDBX Classes
 90
4095
 91
0
280
0
281
0
  0
CLASS
  1
MATERIAL
  2
AcDbMaterial
  3
ObjectDBX Classes
 90
1153
 91
0
280
0
281
0
  0
CLASS
  1
SCALE
  2
AcDbScale
  3
ObjectDBX Classes
 90
1153
 91
0
280
0
281
0
  0
CLASS
  1
TABLESTYLE
  2
AcDbTableStyle
  3
ObjectDBX Classes
 90
4095
 91
0
280
0
281
0
  0
CLASS
  1
MLEADERSTYLE
  2
AcDbMLeaderStyle
  3
ACDB_MLEADERSTYLE_CLASS
 90
4095
 91
0
280
0
281
0
  0
CLASS
  1
DICTIONARYVAR
  2
AcDbDictionaryVar
  3
ObjectDBX Classes
 90
0
 91
0
280
0
281
0
  0
CLASS
  1
CELLSTYLEMAP
  2
AcDbCellStyleMap
  3
ObjectDBX Classes
 90
1152
 91
0
280
0
281
0
  0
CLASS
  1
MENTALRAYRENDERSETTINGS
  2
AcDbMentalRayRenderSettings
  3
SCENEOE
 90
1024
 91
0
280
0
281
0
  0
CLASS
  1
ACDBDETAILVIEWSTYLE
  2
AcDbDetailViewStyle
  3
ObjectDBX Classes
 90
1025
 91
0
280
0
281
0
  0
CLASS
  1
ACDBSECTIONVIEWSTYLE
  2
AcDbSectionViewStyle
  3
ObjectDBX Classes
 90
1025
 91
0
280
0
281
0
  0
CLASS
  1
RASTERVARIABLES
  2
AcDbRasterVariables
  3
ISM
 90
0
 91
0
280
0
281
0
  0
CLASS
  1
LAYOUT
  2
AcDbLayout
  3
ObjectDBX Classes
 90
0
 91
0
280
0
281
0
  0
CLASS
  1
ACDBPLACEHOLDER
  2
AcDbPlaceHolder
  3
ObjectDBX Classes
 90
0
 91
0
280
0
281
0
  0
ENDSEC
  0
SECTION
  2
TABLES
  0
TABLE
  2
VPORT
  5
8
330
0
100
AcDbSymbolTable
 70
1
  0
VPORT
  5
296
330
8
100
AcDbSymbolTableRecord
100
AcDbViewportTableRecord
  2
*Active
 70
0
 10
0.0
 20
0.0
 11
1.0
 21
1.0
 12
-0.0689837722701725
 22
-0.1914145990844105
 13
0.0
 23
0.0
 14
0.5
 24
0.5
 15
0.5
 25
0.5
 16
0.0
 26
0.0
 36
1.0
 17
0.0
 27
0.0
 37
0.0
 40
136.72936691457767
 41
1.34
 42
50.0
 43
0.0
 44
0.0
 50
0.0
 51
0.0
 71
0
 72
1000
 73
1
 74
3
 75
0
 76
0
 77
0
 78
0
281
0
 65
1
110
0.0
120
0.0
130
0.0
111
1.0
121
0.0
131
0.0
112
0.0
122
1.0
132
0.0
 79
0
146
0.0
  0
ENDTAB
  0
TABLE
  2
LTYPE
  5
2
330
0
100
AcDbSymbolTable
 70
3
  0
LTYPE
  5
24
330
2
100
AcDbSymbolTableRecord
100
AcDbLinetypeTableRecord
  2
ByBlock
 70
0
  3

 72
65
 73
0
 40
0.0
  0
LTYPE
  5
25
330
2
100
AcDbSymbolTableRecord
100
AcDbLinetypeTableRecord
  2
ByLayer
 70
0
  3

 72
65
 73
0
 40
0.0
  0
LTYPE
  5
26
330
2
100
AcDbSymbolTableRecord
100
AcDbLinetypeTableRecord
  2
Continuous
 70
0
  3

 72
65
 73
0
 40
0.0
  0
ENDTAB
  0
TABLE
  2
LAYER
  5
1
330
0
100
AcDbSymbolTable
 70
3
  0
LAYER
  5
27
330
1
100
AcDbSymbolTableRecord
100
AcDbLayerTableRecord
  2
0
 70
0
 62
7
  6
Continuous
370
-3
390
13
347
21
  0
LAYER
  5
28
330
1
100
AcDbSymbolTableRecord
100
AcDbLayerTableRecord
  2
Defpoints
 70
0
 62
7
  6
Continuous
290
0
370
-3
390
13
347
21
  0
LAYER
  5
2F
330
1
100
AcDbSymbolTableRecord
100
AcDbLayerTableRecord
  2
visible
 70
0
 62
7
  6
Continuous
370
-3
390
13
347
21
  0
ENDTAB
  0
TABLE
  2
STYLE
  5
5
330
0
100
AcDbSymbolTable
 70
1
  0
STYLE
  5
29
330
5
100
AcDbSymbolTableRecord
100
AcDbTextStyleTableRecord
  2
Standard
 70
0
 40
0.0
 41
1.0
 50
0.0
 71
0
 42
2.5
  3
txt
  4

  0
ENDTAB
  0
TABLE
  2
VIEW
  5
7
330
0
100
AcDbSymbolTable
 70
0
  0
ENDTAB
  0
TABLE
  2
UCS
  5
6
330
0
100
AcDbSymbolTable
 70
0
  0
ENDTAB
  0
TABLE
  2
APPID
  5
3
330
0
100
AcDbSymbolTable
 70
3
  0
APPID
  5
2A
330
3
100
AcDbSymbolTableRecord
100
AcDbRegAppTableRecord
  2
ACAD
 70
0
  0
APPID
  5
297
330
3
100
AcDbSymbolTableRecord
100
AcDbRegAppTableRecord
  2
HATCHBACKGROUNDCOLOR
 70
0
  0
APPID
  5
298
330
3
100
AcDbSymbolTableRecord
100
AcDbRegAppTableRecord
  2
EZDXF
 70
0
  0
ENDTAB
  0
TABLE
  2
DIMSTYLE
  5
4
330
0
100
AcDbSymbolTable
 70
1
100
AcDbDimStyleTable
  0
DIMSTYLE
105
2B
330
4
100
AcDbSymbolTableRecord
100
AcDbDimStyleTableRecord
  2
Standard
 70
0
 40
1.0
 41
2.5
 42
0.625
 43
3.75
 44
1.25
 45
0.0
 46
0.0
 47
0.0
 48
0.0
 49
2.5
140
2.5
141
2.5
142
0.0
143
0.03937007874
144
1.0
145
0.0
146
1.0
147
0.625
148
0.0
 69
0
 70
0
 71
0
 72
0
 73
0
 74
0
 75
0
 76
0
 77
1
 78
8
 79
3
170
0
171
3
172
1
173
0
174
0
175
0
176
0
177
0
178
0
179
2
271
2
272
2
273
2
274
3
275
0
276
0
277
2
278
44
279
0
280
0
281
0
282
0
283
0
284
8
285
0
286
0
288
0
289
3
290
0
371
-2
372
-2
  0
ENDTAB
  0
TABLE
  2
BLOCK_RECORD
  5
9
330
0
100
AcDbSymbolTable
 70
2
  0
BLOCK_RECORD
  5
17
330
9
100
AcDbSymbolTableRecord
100
AcDbBlockTableRecord
  2
*Model_Space
340
1A
 70
0
280
1
281
0
  0
BLOCK_RECORD
  5
1B
330
9
100
AcDbSymbolTableRecord
100
AcDbBlockTableRecord
  2
*Paper_Space
340
1E
 70
0
280
1
281
0
  0
ENDTAB
  0
ENDSEC
  0
SECTION
  2
BLOCKS
  0
BLOCK
  5
18
330
17
100
AcDbEntity
  8
0
100
AcDbBlockBegin
  2
*Model_Space
 70
0
 10
0.0
 20
0.0
 30
0.0
  3
*Model_Space
  1

  0
ENDBLK
  5
19
330
17
100
AcDbEntity
  8
0
100
AcDbBlockEnd
  0
BLOCK
  5
1C
330
1B
100
AcDbEntity
  8
0
100
AcDbBlockBegin
  2
*Paper_Space
 70
0
 10
0.0
 20
0.0
 30
0.0
  3
*Paper_Space
  1

  0
ENDBLK
  5
1D
330
1B
100
AcDbEntity
  8
0
100
AcDbBlockEnd
  0
ENDSEC
  0
SECTION
  2
ENTITIES
  0
LINE
  5
30
330
17
100
AcDbEntity
  8
visible
100
AcDbLine
 10
-59.77714799637905
 20
-27.512507266219053
 30
0.0
 11
-60.20870867905557
 21
-28.447459764268505
 31
0.0
  0
LINE
  5
31
330
17
100
AcDbEntity
  8
visible
100
AcDbLine
 10
-60.20870867905557
 20
-34.24697072243563
 30
0.0
 11
-59.77714799637905
 21
-33.31201822438617
 31
0.0
  0
ELLIPSE
  5
32
330
17
100
AcDbEntity
  8
visible
100
AcDbEllipse
 10
-51.77729170494052
 20
-27.51312994521065
 30
0.0
 11
8.0
 21
-1.0842935974731414e-19
 31
0.0
 40
0.012985684631055228
 41
-4.718382914646059
 42
-3.147586587851163
  0
ELLIPSE
  5
33
330
17
100
AcDbEntity
  8
visible
100
AcDbEllipse
 10
-52.208852387617036
 20
-28.448082443260105
 30
0.0
 11
-8.0
 21
1.0842935974731414e-19
 31
0.0
 40
0.012985684631055228
 41
6.2771913729182165
 42
6.283185307179586
  0
ELLIPSE
  5
34
330
17
100
AcDbEntity
  8
visible
100
AcDbEllipse
 10
-52.208852387617036
 20
-28.448082443260105
 30
0.0
 11
-8.0
 21
1.0842935974731414e-19
 31
0.0
 40
0.012985684631055228
 41
0.0
 42
0.00599393426144168
  0
LINE
  5
35
330
17
100
AcDbEntity
  8
visible
100
AcDbLine
 10
-51.72934051797645
 20
-27.40924633431627
 30
0.0
 11
40.26900683356671
 21
-27.416407142719667
 31
0.0
  0
ELLIPSE
  5
36
330
17
100
AcDbEntity
  8
visible
100
AcDbEllipse
 10
40.22105564660266
 20
-27.52029075361405
 30
0.0
 11
-8.0
 21
1.0842935974731414e-19
 31
0.0
 40
0.012985684631055228
 41
3.1355987193284234
 42
3.141592653589793
  0
ELLIPSE
  5
37
330
17
100
AcDbEntity
  8
visible
100
AcDbEllipse
 10
40.22105564660266
 20
-27.52029075361405
 30
0.0
 11
-8.0
 21
1.0842935974731414e-19
 31
0.0
 40
0.012985684631055228
 41
3.141592653589793
 42
4.70639504612332
  0
ELLIPSE
  5
38
330
17
100
AcDbEntity
  8
visible
100
AcDbEllipse
 10
-52.208852387617036
 20
-34.247593401427224
 30
0.0
 11
8.0
 21
-1.0842935974731414e-19
 31
0.0
 40
0.012985684631055228
 41
-3.141592653589793
 42
-2.751831920792317
  0
ELLIPSE
  5
39
330
17
100
AcDbEntity
  8
visible
100
AcDbEllipse
 10
-52.208852387617036
 20
-34.247593401427224
 30
0.0
 11
8.0
 21
-1.0842935974731414e-19
 31
0.0
 40
0.012985684631055228
 41
-3.147586587851163
 42
-3.141592653589793
  0
ELLIPSE
  5
3A
330
17
100
AcDbEntity
  8
visible
100
AcDbEllipse
 10
39.78949496392614
 20
-34.25475420983062
 30
0.0
 11
8.0
 21
-1.0842935974731414e-19
 31
0.0
 40
0.012985684631055228
 41
-0.20556856392353148
 42
-0.005993934261369763
  0
LINE
  5
3B
330
17
100
AcDbEntity
  8
visible
100
AcDbLine
 10
47.78935125536467
 20
-34.25537688882223
 30
0.0
 11
48.22091193804119
 21
-33.32042439077277
 31
0.0
  0
ELLIPSE
  5
3C
330
17
100
AcDbEntity
  8
visible
100
AcDbEllipse
 10
40.22105564660266
 20
-33.31980171178117
 30
0.0
 11
8.0
 21
-1.0842935974731414e-19
 31
0.0
 40
0.012985684631055228
 41
-6.283185307179586
 42
-4.718382914646059
  0
ELLIPSE
  5
3D
330
17
100
AcDbEntity
  8
visible
100
AcDbEllipse
 10
40.22105564660266
 20
-33.31980171178117
 30
0.0
 11
8.0
 21
-1.0842935974731414e-19
 31
0.0
 40
0.012985684631055228
 41
-0.005993934261369738
 42
-0.0
  0
LINE
  5
3E
330
17
100
AcDbEntity
  8
visible
100
AcDbLine
 10
-51.72934051797646
 20
-33.20875729248339
 30
0.0
 11
40.26900683356671
 21
-33.21591810088679
 31
0.0
  0
ELLIPSE
  5
3F
330
17
100
AcDbEntity
  8
visible
100
AcDbEllipse
 10
-51.77729170494052
 20
-33.31264090337777
 30
0.0
 11
8.0
 21
-1.0842935974731414e-19
 31
0.0
 40
0.012985684631055228
 41
-4.718382914646059
 42
-3.147586587851163
  0
ELLIPSE
  5
40
330
17
100
AcDbEntity
  8
visible
100
AcDbEllipse
 10
-51.77729170494052
 20
-33.31264090337777
 30
0.0
 11
7.4
 21
-1.0029715776626558e-19
 31
0.0
 40
0.012985684631055228
 41
-4.718382914646059
 42
-3.147586587851163
  0
LINE
  5
41
330
17
100
AcDbEntity
  8
visible
100
AcDbLine
 10
-59.17715877452116
 20
-33.31206492531054
 30
0.0
 11
-59.60871945719767
 21
-34.24701742335999
 31
0.0
  0
LINE
  5
42
330
17
100
AcDbEntity
  8
visible
100
AcDbLine
 10
40.265410494544426
 20
-33.22370937170386
 30
0.0
 11
-51.732936856998755
 21
-33.216548563300464
 31
0.0
  0
ELLIPSE
  5
43
330
17
100
AcDbEntity
  8
visible
100
AcDbEllipse
 10
-52.208852387617036
 20
-34.247593401427224
 30
0.0
 11
7.4
 21
-1.0029715776626558e-19
 31
0.0
 40
0.012985684631055228
 41
-3.141592653589793
 42
-3.1355987193283603
  0
ELLIPSE
  5
44
330
17
100
AcDbEntity
  8
visible
100
AcDbEllipse
 10
-52.208852387617036
 20
-34.247593401427224
 30
0.0
 11
7.4
 21
-1.0029715776626558e-19
 31
0.0
 40
0.012985684631055228
 41
-3.147586587851163
 42
-3.141592653589793
  0
ELLIPSE
  5
45
330
17
100
AcDbEntity
  8
visible
100
AcDbEllipse
 10
40.22105564660266
 20
-33.31980171178117
 30
0.0
 11
7.4
 21
-1.0029715776626558e-19
 31
0.0
 40
0.012985684631055228
 41
-6.283185307179586
 42
-4.718382914646059
  0
ELLIPSE
  5
46
330
17
100
AcDbEntity
  8
visible
100
AcDbEllipse
 10
40.22105564660266
 20
-33.31980171178117
 30
0.0
 11
7.4
 21
-1.0029715776626558e-19
 31
0.0
 40
0.012985684631055228
 41
-0.005993934261369738
 42
-0.0
  0
LINE
  5
47
330
17
100
AcDbEntity
  8
visible
100
AcDbLine
 10
-28.229762661875757
 20
-55.44767231596058
 30
0.0
 11
-23.247834174838193
 21
-55.448060090702214
 31
0.0
  0
LINE
  5
48
330
17
100
AcDbEntity
  8
visible
100
AcDbLine
 10
-23.247834174838193
 20
-55.44806009070221
 30
0.0
 11
-23.247834174838193
 21
-58.40884938431652
 31
0.0
  0
LINE
  5
49
330
17
100
AcDbEntity
  8
visible
100
AcDbLine
 10
-18.229942297577587
 20
-55.44845066470007
 30
0.0
 11
-13.248013810540023
 21
-55.44883843944171
 31
0.0
  0
LINE
  5
4A
330
17
100
AcDbEntity
  8
visible
100
AcDbLine
 10
-13.248013810540023
 20
-55.44883843944171
 30
0.0
 11
-13.248013810540023
 21
-58.40962773305602
 31
0.0
  0
LINE
  5
4B
330
17
100
AcDbEntity
  8
visible
100
AcDbLine
 10
-8.230121933279413
 20
-55.44922901343958
 30
0.0
 11
-3.2481934462418494
 21
-55.44961678818122
 31
0.0
  0
LINE
  5
4C
330
17
100
AcDbEntity
  8
visible
100
AcDbLine
 10
-3.248193446241852
 20
-55.44961678818121
 30
0.0
 11
-3.248193446241852
 21
-58.41040608179552
 31
0.0
  0
LINE
  5
4D
330
17
100
AcDbEntity
  8
visible
100
AcDbLine
 10
1.7696984310187567
 20
-55.45000736217907
 30
0.0
 11
6.751626918056324
 21
-55.45039513692071
 31
0.0
  0
LINE
  5
4E
330
17
100
AcDbEntity
  8
visible
100
AcDbLine
 10
6.751626918056319
 20
-55.45039513692071
 30
0.0
 11
6.751626918056319
 21
-58.41118443053502
 31
0.0
  0
LINE
  5
4F
330
17
100
AcDbEntity
  8
visible
100
AcDbLine
 10
11.769518795316923
 20
-55.450785710918574
 30
0.0
 11
16.751447282354494
 21
-55.451173485660206
 31
0.0
  0
LINE
  5
50
330
17
100
AcDbEntity
  8
visible
100
AcDbLine
 10
16.75144728235449
 20
-55.45117348566021
 30
0.0
 11
16.75144728235449
 21
-58.411962779274525
 31
0.0
  0
LINE
  5
51
330
17
100
AcDbEntity
  8
visible
100
AcDbLine
 10
5.760136233459821
 20
-58.41110725659624
 30
0.0
 11
5.760136233459821
 21
-55.450317962981934
 31
0.0
  0
LINE
  5
52
330
17
100
AcDbEntity
  8
visible
100
AcDbLine
 10
-23.229852479726674
 20
-55.40910373661682
 30
0.0
 11
-23.247834174838196
 21
-55.448060090702214
 31
0.0
  0
LINE
  5
53
330
17
100
AcDbEntity
  8
visible
100
AcDbLine
 10
-28.22976266187576
 20
-55.40871456224706
 30
0.0
 11
-23.22985247972667
 21
-55.409103736616814
 31
0.0
  0
LINE
  5
54
330
17
100
AcDbEntity
  8
visible
100
AcDbLine
 10
-28.229762661875757
 20
-55.40871456224707
 30
0.0
 11
-28.229762661875757
 21
-58.408461609574886
 31
0.0
  0
LINE
  5
55
330
17
100
AcDbEntity
  8
visible
100
AcDbLine
 10
-23.229852479726674
 20
-55.40910373661682
 30
0.0
 11
-23.229852479726674
 21
-58.40885078394464
 31
0.0
  0
LINE
  5
56
330
17
100
AcDbEntity
  8
visible
100
AcDbLine
 10
-28.22976266187576
 20
-58.408461609574886
 30
0.0
 11
-23.22985247972667
 21
-58.40885078394464
 31
0.0
  0
LINE
  5
57
330
17
100
AcDbEntity
  8
visible
100
AcDbLine
 10
-13.230032115428502
 20
-55.409882085356315
 30
0.0
 11
-13.248013810540023
 21
-55.44883843944171
 31
0.0
  0
LINE
  5
58
330
17
100
AcDbEntity
  8
visible
100
AcDbLine
 10
-18.229942297577583
 20
-55.409492910986565
 30
0.0
 11
-13.2300321154285
 21
-55.409882085356315
 31
0.0
  0
LINE
  5
59
330
17
100
AcDbEntity
  8
visible
100
AcDbLine
 10
-18.229942297577587
 20
-55.409492910986565
 30
0.0
 11
-18.229942297577587
 21
-58.40923995831438
 31
0.0
  0
LINE
  5
5A
330
17
100
AcDbEntity
  8
visible
100
AcDbLine
 10
-13.2300321154285
 20
-55.409882085356315
 30
0.0
 11
-13.2300321154285
 21
-58.40962913268413
 31
0.0
  0
LINE
  5
5B
330
17
100
AcDbEntity
  8
visible
100
AcDbLine
 10
-18.229942297577583
 20
-58.40923995831438
 30
0.0
 11
-13.2300321154285
 21
-58.40962913268413
 31
0.0
  0
LINE
  5
5C
330
17
100
AcDbEntity
  8
visible
100
AcDbLine
 10
-3.23021175113033
 20
-55.41066043409582
 30
0.0
 11
-3.248193446241852
 21
-55.44961678818121
 31
0.0
  0
LINE
  5
5D
330
17
100
AcDbEntity
  8
visible
100
AcDbLine
 10
-8.23012193327942
 20
-55.410271259726066
 30
0.0
 11
-3.2302117511303337
 21
-55.41066043409582
 31
0.0
  0
LINE
  5
5E
330
17
100
AcDbEntity
  8
visible
100
AcDbLine
 10
-8.230121933279415
 20
-55.410271259726066
 30
0.0
 11
-8.230121933279415
 21
-58.41001830705388
 31
0.0
  0
LINE
  5
5F
330
17
100
AcDbEntity
  8
visible
100
AcDbLine
 10
-3.23021175113033
 20
-55.41066043409582
 30
0.0
 11
-3.23021175113033
 21
-58.41040748142363
 31
0.0
  0
LINE
  5
60
330
17
100
AcDbEntity
  8
visible
100
AcDbLine
 10
-8.23012193327942
 20
-58.41001830705389
 30
0.0
 11
-3.2302117511303337
 21
-58.41040748142364
 31
0.0
  0
LINE
  5
61
330
17
100
AcDbEntity
  8
visible
100
AcDbLine
 10
6.76960861316784
 20
-55.41143878283532
 30
0.0
 11
6.751626918056319
 21
-55.45039513692071
 31
0.0
  0
LINE
  5
62
330
17
100
AcDbEntity
  8
visible
100
AcDbLine
 10
1.7696984310187567
 20
-55.41104960846557
 30
0.0
 11
6.7696086131678435
 21
-55.41143878283532
 31
0.0
  0
LINE
  5
63
330
17
100
AcDbEntity
  8
visible
100
AcDbLine
 10
1.7696984310187558
 20
-55.41104960846557
 30
0.0
 11
1.7696984310187558
 21
-58.41079665579338
 31
0.0
  0
LINE
  5
64
330
17
100
AcDbEntity
  8
visible
100
AcDbLine
 10
6.76960861316784
 20
-55.41143878283532
 30
0.0
 11
6.76960861316784
 21
-58.411185830163134
 31
0.0
  0
LINE
  5
65
330
17
100
AcDbEntity
  8
visible
100
AcDbLine
 10
1.7696984310187567
 20
-58.41079665579338
 30
0.0
 11
6.7696086131678435
 21
-58.411185830163134
 31
0.0
  0
LINE
  5
66
330
17
100
AcDbEntity
  8
visible
100
AcDbLine
 10
16.76942897746601
 20
-55.41221713157481
 30
0.0
 11
16.751447282354487
 21
-55.451173485660206
 31
0.0
  0
LINE
  5
67
330
17
100
AcDbEntity
  8
visible
100
AcDbLine
 10
11.769518795316927
 20
-55.41182795720507
 30
0.0
 11
16.769428977466006
 21
-55.41221713157482
 31
0.0
  0
LINE
  5
68
330
17
100
AcDbEntity
  8
visible
100
AcDbLine
 10
16.76942897746601
 20
-55.41221713157482
 30
0.0
 11
16.76942897746601
 21
-58.411964178902636
 31
0.0
  0
LINE
  5
69
330
17
100
AcDbEntity
  8
visible
100
AcDbLine
 10
11.769518795316927
 20
-58.411575004532885
 30
0.0
 11
16.769428977466006
 21
-58.411964178902636
 31
0.0
  0
LINE
  5
6A
330
17
100
AcDbEntity
  8
visible
100
AcDbLine
 10
11.769518795316927
 20
-55.41182795720507
 30
0.0
 11
11.769518795316927
 21
-58.411575004532885
 31
0.0
  0
LINE
  5
6B
330
17
100
AcDbEntity
  8
visible
100
AcDbLine
 10
5.903989794351993
 20
-58.41111845362116
 30
0.0
 11
5.903989794351993
 21
-55.450329160006845
 31
0.0
  0
ELLIPSE
  5
6C
330
17
100
AcDbEntity
  8
visible
100
AcDbEllipse
 10
-52.208852387617036
 20
-35.44749222035835
 30
0.0
 11
8.0
 21
-1.0842935974731414e-19
 31
0.0
 40
0.012985684631055228
 41
-3.141592653589793
 42
-3.1355987193283505
  0
ELLIPSE
  5
6D
330
17
100
AcDbEntity
  8
visible
100
AcDbEllipse
 10
-52.208852387617036
 20
-35.44749222035835
 30
0.0
 11
8.0
 21
-1.0842935974731414e-19
 31
0.0
 40
0.012985684631055228
 41
-3.147586587851163
 42
-3.141592653589793
  0
ELLIPSE
  5
6E
330
17
100
AcDbEntity
  8
visible
100
AcDbEllipse
 10
40.22105564660266
 20
-34.51970053071229
 30
0.0
 11
8.0
 21
-1.0842935974731414e-19
 31
0.0
 40
0.012985684631055228
 41
-6.283185307179586
 42
-4.718382914646059
  0
ELLIPSE
  5
6F
330
17
100
AcDbEntity
  8
visible
100
AcDbEllipse
 10
40.22105564660266
 20
-34.51970053071229
 30
0.0
 11
8.0
 21
-1.0842935974731414e-19
 31
0.0
 40
0.012985684631055228
 41
-0.005993934261369738
 42
-0.0
  0
LINE
  5
70
330
17
100
AcDbEntity
  8
visible
100
AcDbLine
 10
-51.72934051797646
 20
-34.408656111414516
 30
0.0
 11
40.26900683356671
 21
-34.415816919817914
 31
0.0
  0
ELLIPSE
  5
71
330
17
100
AcDbEntity
  8
visible
100
AcDbEllipse
 10
-51.77729170494052
 20
-34.512539722308894
 30
0.0
 11
8.0
 21
-1.0842935974731414e-19
 31
0.0
 40
0.012985684631055228
 41
-4.718382914646059
 42
-3.147586587851163
  0
LINE
  5
72
330
17
100
AcDbEntity
  8
visible
100
AcDbLine
 10
-60.20870867905557
 20
-35.44686954136675
 30
0.0
 11
-59.77714799637905
 21
-34.5119170433173
 31
0.0
  0
LINE
  5
73
330
17
100
AcDbEntity
  8
visible
100
AcDbLine
 10
26.280746624567847
 20
-68.47029795561212
 30
0.0
 11
26.280746624567847
 21
-68.43134020189862
 31
0.0
  0
LINE
  5
74
330
17
100
AcDbEntity
  8
visible
100
AcDbLine
 10
26.280746624567847
 20
-68.47029795561212
 30
0.0
 11
23.280800515278393
 21
-68.47006445099026
 31
0.0
  0
LINE
  5
75
330
17
100
AcDbEntity
  8
visible
100
AcDbLine
 10
26.298728319679366
 20
-68.43134160152674
 30
0.0
 11
26.280746624567847
 21
-68.47029795561214
 31
0.0
  0
LINE
  5
76
330
17
100
AcDbEntity
  8
visible
100
AcDbLine
 10
26.29872831967937
 20
-68.43134160152674
 30
0.0
 11
23.298782210389916
 21
-68.43110809690488
 31
0.0
  0
LINE
  5
77
330
17
100
AcDbEntity
  8
visible
100
AcDbLine
 10
26.370655100125454
 20
-68.27551618518515
 30
0.0
 11
26.370655100125454
 21
-68.23655843147165
 31
0.0
  0
LINE
  5
78
330
17
100
AcDbEntity
  8
visible
100
AcDbLine
 10
26.370655100125454
 20
-68.27551618518517
 30
0.0
 11
23.370708990836
 21
-68.27528268056331
 31
0.0
  0
LINE
  5
79
330
17
100
AcDbEntity
  8
visible
100
AcDbLine
 10
26.388636795236977
 20
-68.23655983109977
 30
0.0
 11
26.370655100125454
 21
-68.27551618518517
 31
0.0
  0
LINE
  5
7A
330
17
100
AcDbEntity
  8
visible
100
AcDbLine
 10
26.388636795236977
 20
-68.23655983109977
 30
0.0
 11
23.388690685947523
 21
-68.23632632647791
 31
0.0
  0
LINE
  5
7B
330
17
100
AcDbEntity
  8
visible
100
AcDbLine
 10
23.388690685947527
 20
-68.23632632647791
 30
0.0
 11
23.370708990836004
 21
-68.27528268056331
 31
0.0
  0
LINE
  5
7C
330
17
100
AcDbEntity
  8
visible
100
AcDbLine
 10
23.298782210389916
 20
-68.43110809690488
 30
0.0
 11
23.280800515278397
 21
-68.47006445099028
 31
0.0
  0
LINE
  5
7D
330
17
100
AcDbEntity
  8
visible
100
AcDbLine
 10
8.28106996883114
 20
-68.46889692788103
 30
0.0
 11
8.28106996883114
 21
-68.42993917416753
 31
0.0
  0
LINE
  5
7E
330
17
100
AcDbEntity
  8
visible
100
AcDbLine
 10
8.28106996883114
 20
-68.46889692788103
 30
0.0
 11
5.281123859541687
 21
-68.46866342325919
 31
0.0
  0
LINE
  5
7F
330
17
100
AcDbEntity
  8
visible
100
AcDbLine
 10
8.299051663942661
 20
-68.42994057379563
 30
0.0
 11
8.28106996883114
 21
-68.46889692788103
 31
0.0
  0
LINE
  5
80
330
17
100
AcDbEntity
  8
visible
100
AcDbLine
 10
8.299051663942663
 20
-68.42994057379563
 30
0.0
 11
5.2991055546532095
 21
-68.42970706917379
 31
0.0
  0
LINE
  5
81
330
17
100
AcDbEntity
  8
visible
100
AcDbLine
 10
8.370978444388747
 20
-68.27411515745406
 30
0.0
 11
8.370978444388747
 21
-68.23515740374056
 31
0.0
  0
LINE
  5
82
330
17
100
AcDbEntity
  8
visible
100
AcDbLine
 10
8.37097844438875
 20
-68.27411515745406
 30
0.0
 11
5.371032335099297
 21
-68.27388165283222
 31
0.0
  0
LINE
  5
83
330
17
100
AcDbEntity
  8
visible
100
AcDbLine
 10
8.388960139500268
 20
-68.23515880336866
 30
0.0
 11
8.370978444388747
 21
-68.27411515745406
 31
0.0
  0
LINE
  5
84
330
17
100
AcDbEntity
  8
visible
100
AcDbLine
 10
8.38896013950027
 20
-68.23515880336866
 30
0.0
 11
5.3890140302108165
 21
-68.23492529874682
 31
0.0
  0
LINE
  5
85
330
17
100
AcDbEntity
  8
visible
100
AcDbLine
 10
5.3890140302108165
 20
-68.23492529874682
 30
0.0
 11
5.3710323350992955
 21
-68.27388165283222
 31
0.0
  0
LINE
  5
86
330
17
100
AcDbEntity
  8
visible
100
AcDbLine
 10
5.2991055546532095
 20
-68.42970706917379
 30
0.0
 11
5.281123859541688
 21
-68.46866342325919
 31
0.0
  0
LINE
  5
87
330
17
100
AcDbEntity
  8
visible
100
AcDbLine
 10
10.340673332992257
 20
-67.68990216545886
 30
0.0
 11
10.340673332992257
 21
-67.62497257593634
 31
0.0
  0
LINE
  5
88
330
17
100
AcDbEntity
  8
visible
100
AcDbLine
 10
10.370642824844799
 20
-67.62497490864988
 30
0.0
 11
10.340673332992262
 21
-67.68990216545888
 31
0.0
  0
LINE
  5
89
330
17
100
AcDbEntity
  8
visible
100
AcDbLine
 10
10.370642824844797
 20
-67.62497490864986
 30
0.0
 11
8.370678751985157
 21
-67.62481923890196
 31
0.0
  0
LINE
  5
8A
330
17
100
AcDbEntity
  8
visible
100
AcDbLine
 10
8.370678751985162
 20
-67.62481923890196
 30
0.0
 11
8.340709260132625
 21
-67.68974649571096
 31
0.0
  0
LINE
  5
8B
330
17
100
AcDbEntity
  8
visible
100
AcDbLine
 10
10.34067333299226
 20
-67.68990216545886
 30
0.0
 11
8.34070926013262
 21
-67.68974649571096
 31
0.0
  0
ELLIPSE
  5
8C
330
17
100
AcDbEntity
  8
visible
100
AcDbEllipse
 10
19.15549999950092
 20
-56.65905097707646
 30
0.0
 11
8.8
 21
-1.1927229572204556e-19
 31
0.0
 40
0.012985684631055228
 41
-4.435683634902427
 42
-3.716365074839235
  0
LINE
  5
8D
330
17
100
AcDbEntity
  8
visible
100
AcDbLine
 10
27.97032666600957
 20
-67.62634480243139
 30
0.0
 11
27.940357174157036
 21
-67.69127205924039
 31
0.0
  0
LINE
  5
8E
330
17
100
AcDbEntity
  8
visible
100
AcDbLine
 10
29.94032124701667
 20
-67.69142772898829
 30
0.0
 11
29.94032124701667
 21
-67.62649813946577
 31
0.0
  0
LINE
  5
8F
330
17
100
AcDbEntity
  8
visible
100
AcDbLine
 10
29.940321247016673
 20
-67.69142772898829
 30
0.0
 11
27.94035717415704
 21
-67.69127205924039
 31
0.0
  0
LINE
  5
90
330
17
100
AcDbEntity
  8
visible
100
AcDbLine
 10
29.970290738869203
 20
-67.62650047217929
 30
0.0
 11
29.94032124701667
 21
-67.69142772898829
 31
0.0
  0
LINE
  5
91
330
17
100
AcDbEntity
  8
visible
100
AcDbLine
 10
29.97029073886921
 20
-67.6265004721793
 30
0.0
 11
27.970326666009576
 21
-67.6263448024314
 31
0.0
  0
LINE
  5
92
330
17
100
AcDbEntity
  8
visible
100
AcDbLine
 10
38.68212225254963
 20
-67.60120673285905
 30
0.0
 11
35.682176143260186
 21
-67.60097322823721
 31
0.0
  0
LINE
  5
93
330
17
100
AcDbEntity
  8
visible
100
AcDbLine
 10
35.682176143260186
 20
-67.60097322823721
 30
0.0
 11
35.66419444814866
 21
-67.63992958232261
 31
0.0
  0
LINE
  5
94
330
17
100
AcDbEntity
  8
visible
100
AcDbLine
 10
38.66414055743811
 20
-67.64016308694445
 30
0.0
 11
38.66414055743811
 21
-67.60120533323095
 31
0.0
  0
LINE
  5
95
330
17
100
AcDbEntity
  8
visible
100
AcDbLine
 10
38.66414055743811
 20
-67.64016308694445
 30
0.0
 11
35.66419444814866
 21
-67.63992958232261
 31
0.0
  0
LINE
  5
96
330
17
100
AcDbEntity
  8
visible
100
AcDbLine
 10
38.68212225254964
 20
-67.60120673285905
 30
0.0
 11
38.66414055743812
 21
-67.64016308694445
 31
0.0
  0
LINE
  5
97
330
17
100
AcDbEntity
  8
visible
100
AcDbLine
 10
38.61019547210355
 20
-67.75703214920064
 30
0.0
 11
35.6102493628141
 21
-67.7567986445788
 31
0.0
  0
LINE
  5
98
330
17
100
AcDbEntity
  8
visible
100
AcDbLine
 10
35.610249362814095
 20
-67.7567986445788
 30
0.0
 11
35.59226766770257
 21
-67.79575499866418
 31
0.0
  0
LINE
  5
99
330
17
100
AcDbEntity
  8
visible
100
AcDbLine
 10
38.592213776992025
 20
-67.79598850328604
 30
0.0
 11
38.592213776992025
 21
-67.75703074957254
 31
0.0
  0
LINE
  5
9A
330
17
100
AcDbEntity
  8
visible
100
AcDbLine
 10
38.592213776992025
 20
-67.79598850328603
 30
0.0
 11
35.59226766770258
 21
-67.79575499866418
 31
0.0
  0
LINE
  5
9B
330
17
100
AcDbEntity
  8
visible
100
AcDbLine
 10
38.61019547210355
 20
-67.75703214920064
 30
0.0
 11
38.592213776992025
 21
-67.79598850328603
 31
0.0
  0
LINE
  5
9C
330
17
100
AcDbEntity
  8
visible
100
AcDbLine
 10
48.22091193804119
 20
-67.5175407303099
 30
0.0
 11
47.78935125536467
 21
-68.45249322835936
 31
0.0
  0
LINE
  5
9D
330
17
100
AcDbEntity
  8
visible
100
AcDbLine
 10
-51.72934051797645
 20
-67.40587363202052
 30
0.0
 11
40.26900683356671
 21
-67.41303444042391
 31
0.0
  0
LINE
  5
9E
330
17
100
AcDbEntity
  8
visible
100
AcDbLine
 10
-51.72934051797646
 20
-53.90701191904533
 30
0.0
 11
-41.729520153678294
 21
-53.90779026778483
 31
0.0
  0
LINE
  5
9F
330
17
100
AcDbEntity
  8
visible
100
AcDbLine
 10
-41.72952015367829
 20
-41.908802078473556
 30
0.0
 11
-41.72952015367829
 21
-53.90779026778483
 31
0.0
  0
LINE
  5
A0
330
17
100
AcDbEntity
  8
visible
100
AcDbLine
 10
-51.72934051797646
 20
-41.90802372973406
 30
0.0
 11
-41.729520153678294
 21
-41.90880207847356
 31
0.0
  0
LINE
  5
A1
330
17
100
AcDbEntity
  8
visible
100
AcDbLine
 10
-11.564534640496731
 20
-42.249256263423376
 30
0.0
 11
-11.564534640496731
 21
-42.977222221686034
 31
0.0
  0
SPLINE
  5
A2
330
17
100
AcDbEntity
  8
visible
100
AcDbSpline
 70
0
 71
2
 72
6
 73
3
 74
0
 40
0.0
 40
0.0
 40
0.0
 40
1.0
 40
1.0
 40
1.0
 10
-11.564534640496733
 20
-42.249256263423376
 30
0.0
 10
-11.918575602360145
 20
-42.007288306360756
 30
0.0
 10
-12.325019026111693
 20
-41.88521409102243
 30
0.0
  0
SPLINE
  5
A3
330
17
100
AcDbEntity
  8
visible
100
AcDbSpline
 70
0
 71
2
 72
6
 73
3
 74
0
 40
0.0
 40
0.0
 40
0.0
 40
1.0
 40
1.0
 40
1.0
 10
-12.307929489356303
 20
-42.491853719760485
 30
0.0
 10
-11.90381757672795
 20
-42.658692159046474
 30
0.0
 10
-11.564534640496735
 20
-42.977222221686034
 30
0.0
  0
SPLINE
  5
A4
330
17
100
AcDbEntity
  8
visible
100
AcDbSpline
 70
0
 71
2
 72
6
 73
3
 74
0
 40
0.0
 40
0.0
 40
0.0
 40
1.0
 40
1.0
 40
1.0
 10
-12.325019026111693
 20
-41.88521409102243
 30
0.0
 10
-12.73762632230186
 20
-41.762818869698535
 30
0.0
 10
-13.18804063225901
 20
-41.76381925692736
 30
0.0
  0
SPLINE
  5
A5
330
17
100
AcDbEntity
  8
visible
100
AcDbSpline
 70
0
 71
2
 72
6
 73
3
 74
0
 40
0.0
 40
0.0
 40
0.0
 40
1.0
 40
1.0
 40
1.0
 10
-13.147025744046068
 20
-42.33115742154051
 30
0.0
 10
-12.706516981797732
 20
-42.33052665751887
 30
0.0
 10
-12.307929489356301
 20
-42.491853719760485
 30
0.0
  0
SPLINE
  5
A6
330
17
100
AcDbEntity
  8
visible
100
AcDbSpline
 70
0
 71
3
 72
11
 73
7
 74
0
 40
0.0
 40
0.0
 40
0.0
 40
0.0
 40
0.541695364487221
 40
0.541695364487221
 40
0.541695364487221
 40
1.0
 40
1.0
 40
1.0
 40
1.0
 10
-13.18804063225901
 20
-41.76381925692736
 30
0.0
 10
-13.560868111222813
 20
-41.76353746494016
 30
0.0
 10
-13.93041469837318
 20
-41.819607819879494
 30
0.0
 10
-14.26538493521136
 20
-41.95771360996537
 30
0.0
 10
-14.548753533403291
 20
-42.07359134217579
 30
0.0
 10
-14.804080634498549
 20
-42.24938309866837
 30
0.0
 10
-15.013203157734916
 20
-42.472845908289216
 30
0.0
  0
SPLINE
  5
A7
330
17
100
AcDbEntity
  8
visible
100
AcDbSpline
 70
0
 71
3
 72
11
 73
7
 74
0
 40
0.0
 40
0.0
 40
0.0
 40
0.0
 40
0.4408166702923612
 40
0.4408166702923612
 40
0.4408166702923612
 40
1.0
 40
1.0
 40
1.0
 40
1.0
 10
-14.486845425668832
 20
-42.86592014186363
 30
0.0
 10
-14.343771799510554
 20
-42.70161072438568
 30
0.0
 10
-14.172293109102052
 20
-42.57532414242017
 30
0.0
 10
-13.972409354443313
 20
-42.48706039596705
 30
0.0
 10
-13.721266835075854
 20
-42.37585272015019
 30
0.0
 10
-13.437249329811975
 20
-42.330934776012455
 30
0.0
 10
-13.147025744046068
 20
-42.33115742154051
 30
0.0
  0
SPLINE
  5
A8
330
17
100
AcDbEntity
  8
visible
100
AcDbSpline
 70
0
 71
2
 72
6
 73
3
 74
0
 40
0.0
 40
0.0
 40
0.0
 40
0.3521188396048615
 40
0.3521188396048615
 40
0.3521188396048615
 10
-15.013203157734923
 20
-42.472845908289216
 30
0.0
 10
-15.26423000619053
 20
-42.740803336160866
 30
0.0
 10
-15.418440327922163
 20
-43.07601817629466
 30
0.0
  0
SPLINE
  5
A9
330
17
100
AcDbEntity
  8
visible
100
AcDbSpline
 70
0
 71
3
 72
8
 73
4
 74
0
 40
0.0
 40
0.0
 40
0.0
 40
0.0
 40
1.0
 40
1.0
 40
1.0
 40
1.0
 10
-15.418440327922168
 20
-43.07601817629467
 30
0.0
 10
-15.607508811493581
 20
-43.48499786661096
 30
0.0
 10
-15.679980264583246
 20
-43.94735764087752
 30
0.0
 10
-15.67969509119522
 20
-44.412327746131155
 30
0.0
  0
SPLINE
  5
AA
330
17
100
AcDbEntity
  8
visible
100
AcDbSpline
 70
0
 71
3
 72
8
 73
4
 74
0
 40
0.0
 40
0.0
 40
0.0
 40
0.0
 40
0.709122807007674
 40
0.709122807007674
 40
0.709122807007674
 40
0.709122807007674
 10
-14.951680825415504
 20
-44.4123844120477
 30
0.0
 10
-14.951550780047377
 20
-44.00417164125494
 30
0.0
 10
-14.89546380230211
 20
-43.601561779074814
 30
0.0
 10
-14.73562315230949
 20
-43.254610253476876
 30
0.0
  0
SPLINE
  5
AB
330
17
100
AcDbEntity
  8
visible
100
AcDbSpline
 70
0
 71
2
 72
6
 73
3
 74
0
 40
0.0
 40
0.0
 40
0.0
 40
1.0
 40
1.0
 40
1.0
 10
-14.73562315230949
 20
-43.254610253476876
 30
0.0
 10
-14.63753463360175
 20
-43.04048060310704
 30
0.0
 10
-14.486845425668838
 20
-42.86592014186363
 30
0.0
  0
SPLINE
  5
AC
330
17
100
AcDbEntity
  8
visible
100
AcDbSpline
 70
0
 71
3
 72
11
 73
7
 74
0
 40
0.0
 40
0.0
 40
0.0
 40
0.0
 40
0.36781947571318296
 40
0.36781947571318296
 40
0.36781947571318296
 40
1.0
 40
1.0
 40
1.0
 40
1.0
 10
-15.67969509119522
 20
-44.41232774613117
 30
0.0
 10
-15.681133966352254
 20
-44.67750091832759
 30
0.0
 10
-15.655148778850517
 20
-44.937059777506654
 30
0.0
 10
-15.601739528689974
 20
-45.191004323668196
 30
0.0
 10
-15.509202016610894
 20
-45.62527413232265
 30
0.0
 10
-15.313750315747892
 20
-46.03134457484441
 30
0.0
 10
-15.013203157734921
 20
-46.34849565791295
 30
0.0
  0
SPLINE
  5
AD
330
17
100
AcDbEntity
  8
visible
100
AcDbSpline
 70
0
 71
3
 72
8
 73
4
 74
0
 40
0.0
 40
0.0
 40
0.0
 40
0.0
 40
1.0
 40
1.0
 40
1.0
 40
1.0
 10
-14.486845425668838
 20
-45.95550336378591
 30
0.0
 10
-14.83587730136185
 20
-45.55605097079317
 30
0.0
 10
-14.953173639215258
 20
-44.98430531919443
 30
0.0
 10
-14.951680825415504
 20
-44.4123844120477
 30
0.0
  0
SPLINE
  5
AE
330
17
100
AcDbEntity
  8
visible
100
AcDbSpline
 70
0
 71
3
 72
11
 73
7
 74
0
 40
0.0
 40
0.0
 40
0.0
 40
0.0
 40
0.45830463551269063
 40
0.45830463551269063
 40
0.45830463551269063
 40
1.0
 40
1.0
 40
1.0
 40
1.0
 10
-15.013203157734916
 20
-46.34849565791295
 30
0.0
 10
-14.80408063449845
 20
-46.57199102216912
 30
0.0
 10
-14.54875353340318
 20
-46.747822526081166
 30
0.0
 10
-14.265384935211356
 20
-46.8637443710022
 30
0.0
 10
-13.930414698373133
 20
-47.001902306757124
 30
0.0
 10
-13.560868111222787
 20
-47.058030189953904
 30
0.0
 10
-13.18804063225901
 20
-47.05780643696896
 30
0.0
  0
SPLINE
  5
AF
330
17
100
AcDbEntity
  8
visible
100
AcDbSpline
 70
0
 71
3
 72
11
 73
7
 74
0
 40
0.0
 40
0.0
 40
0.0
 40
0.0
 40
0.5601545193542434
 40
0.5601545193542434
 40
0.5601545193542434
 40
1.0
 40
1.0
 40
1.0
 40
1.0
 10
-13.147025744046068
 20
-46.49047465724782
 30
0.0
 10
-13.437751650464032
 20
-46.49065429049108
 30
0.0
 10
-13.722256432894984
 20
-46.44553030225721
 30
0.0
 10
-13.97371595206547
 20
-46.333864900319476
 30
0.0
 10
-14.173053143906984
 20
-46.24558933628418
 30
0.0
 10
-14.344096301774785
 20
-46.11946882410632
 30
0.0
 10
-14.486845425668832
 20
-45.95550336378591
 30
0.0
  0
SPLINE
  5
B0
330
17
100
AcDbEntity
  8
visible
100
AcDbSpline
 70
0
 71
2
 72
6
 73
3
 74
0
 40
0.0
 40
0.0
 40
0.0
 40
1.0
 40
1.0
 40
1.0
 10
-13.18804063225901
 20
-47.05780643696896
 30
0.0
 10
-12.742831210180144
 20
-47.05866604467022
 30
0.0
 10
-12.33185484081385
 20
-46.934836579291186
 30
0.0
  0
SPLINE
  5
B1
330
17
100
AcDbEntity
  8
visible
100
AcDbSpline
 70
0
 71
2
 72
6
 73
3
 74
0
 40
0.0
 40
0.0
 40
0.0
 40
1.0
 40
1.0
 40
1.0
 10
-12.307929489356301
 20
-46.32990898327675
 30
0.0
 10
-12.7065169778861
 20
-46.49117399537074
 30
0.0
 10
-13.147025744046068
 20
-46.490474657247816
 30
0.0
  0
SPLINE
  5
B2
330
17
100
AcDbEntity
  8
visible
100
AcDbSpline
 70
0
 71
2
 72
6
 73
3
 74
0
 40
0.0
 40
0.0
 40
0.0
 40
1.0
 40
1.0
 40
1.0
 10
-12.331854840813852
 20
-46.934836579291186
 30
0.0
 10
-11.924044080720249
 20
-46.81045669577047
 30
0.0
 10
-11.564534640496735
 20
-46.56578680467098
 30
0.0
  0
SPLINE
  5
B3
330
17
100
AcDbEntity
  8
visible
100
AcDbSpline
 70
0
 71
2
 72
6
 73
3
 74
0
 40
0.0
 40
0.0
 40
0.0
 40
1.0
 40
1.0
 40
1.0
 10
-11.564534640496735
 20
-45.84465620751877
 30
0.0
 10
-11.903817575453129
 20
-46.16313345236538
 30
0.0
 10
-12.307929489356303
 20
-46.32990898327675
 30
0.0
  0
LINE
  5
B4
330
17
100
AcDbEntity
  8
visible
100
AcDbLine
 10
-11.564534640496731
 20
-45.84465620751877
 30
0.0
 11
-11.564534640496731
 21
-46.56578680467098
 31
0.0
  0
LINE
  5
B5
330
17
100
AcDbEntity
  8
visible
100
AcDbLine
 10
-11.130460406909766
 20
-46.95885385524189
 30
0.0
 11
-9.182253216795036
 21
-41.85640842747792
 31
0.0
  0
LINE
  5
B6
330
17
100
AcDbEntity
  8
visible
100
AcDbLine
 10
-10.402446141130053
 20
-46.95891052115842
 30
0.0
 11
-11.130460406909766
 21
-46.95885385524189
 31
0.0
  0
LINE
  5
B7
330
17
100
AcDbEntity
  8
visible
100
AcDbLine
 10
-9.182253216795033
 20
-41.856408427477916
 30
0.0
 11
-8.39955243339806
 21
-41.85646934998912
 31
0.0
  0
LINE
  5
B8
330
17
100
AcDbEntity
  8
visible
100
AcDbLine
 10
-9.937610741383372
 20
-45.649975049562414
 30
0.0
 11
-10.402446141130044
 21
-46.95891052115842
 31
0.0
  0
LINE
  5
B9
330
17
100
AcDbEntity
  8
visible
100
AcDbLine
 10
-8.39955243339806
 20
-41.85646934998912
 30
0.0
 11
-6.454763150634408
 21
-46.9592177940861
 31
0.0
  0
LINE
  5
BA
330
17
100
AcDbEntity
  8
visible
100
AcDbLine
 10
-7.637359094107563
 20
-45.65015409257569
 30
0.0
 11
-9.93761074138338
 21
-45.64997504956242
 31
0.0
  0
LINE
  5
BB
330
17
100
AcDbEntity
  8
visible
100
AcDbLine
 10
-6.45476315063441
 20
-46.95921779408611
 30
0.0
 11
-7.172523694360887
 21
-46.95916192628108
 31
0.0
  0
LINE
  5
BC
330
17
100
AcDbEntity
  8
visible
100
AcDbLine
 10
-7.172523694360888
 20
-46.95916192628108
 30
0.0
 11
-7.637359094107561
 21
-45.65015409257569
 31
0.0
  0
LINE
  5
BD
330
17
100
AcDbEntity
  8
visible
100
AcDbLine
 10
-5.709659348099302
 20
-46.95927579018847
 30
0.0
 11
-5.709659348099302
 21
-41.85667872123941
 31
0.0
  0
LINE
  5
BE
330
17
100
AcDbEntity
  8
visible
100
AcDbLine
 10
-5.039749507287915
 20
-46.959327933473176
 30
0.0
 11
-5.709659348099294
 21
-46.95927579018848
 31
0.0
  0
LINE
  5
BF
330
17
100
AcDbEntity
  8
visible
100
AcDbLine
 10
-5.709659348099297
 20
-41.85667872123941
 30
0.0
 11
-4.680869235424677
 21
-41.856758798426625
 31
0.0
  0
LINE
  5
C0
330
17
100
AcDbEntity
  8
visible
100
AcDbLine
 10
-5.039749507287921
 20
-42.47874872557483
 30
0.0
 11
-5.039749507287921
 21
-46.95932793347317
 31
0.0
  0
LINE
  5
C1
330
17
100
AcDbEntity
  8
visible
100
AcDbLine
 10
-4.680869235424677
 20
-41.85675879842662
 30
0.0
 11
-3.378646534663777
 21
-45.32922360269451
 31
0.0
  0
LINE
  5
C2
330
17
100
AcDbEntity
  8
visible
100
AcDbLine
 10
-3.723855177122709
 20
-45.97855603843318
 30
0.0
 11
-5.039749507287922
 21
-42.47874872557483
 31
0.0
  0
LINE
  5
C3
330
17
100
AcDbEntity
  8
visible
100
AcDbLine
 10
-3.3786465346637744
 20
-45.32922360269452
 30
0.0
 11
-2.069588019200717
 21
-41.85696205082208
 31
0.0
  0
LINE
  5
C4
330
17
100
AcDbEntity
  8
visible
100
AcDbLine
 10
-3.0300199848537765
 20
-45.97861004397804
 30
0.0
 11
-3.7238551771227044
 21
-45.978556038433176
 31
0.0
  0
LINE
  5
C5
330
17
100
AcDbEntity
  8
visible
100
AcDbLine
 10
-2.0695880192007223
 20
-41.85696205082208
 30
0.0
 11
-1.0407979065261017
 21
-41.85704212800929
 31
0.0
  0
LINE
  5
C6
330
17
100
AcDbEntity
  8
visible
100
AcDbLine
 10
-1.7141256546885604
 20
-42.47900757973815
 30
0.0
 11
-3.0300199848537748
 21
-45.97861004397805
 31
0.0
  0
LINE
  5
C7
330
17
100
AcDbEntity
  8
visible
100
AcDbLine
 10
-1.0407979065261026
 20
-41.8570421280093
 30
0.0
 11
-1.0407979065261026
 21
-46.959639196958356
 31
0.0
  0
LINE
  5
C8
330
17
100
AcDbEntity
  8
visible
100
AcDbLine
 10
-1.7141256546885622
 20
-46.95958678763649
 30
0.0
 11
-1.7141256546885622
 21
-42.47900757973815
 31
0.0
  0
LINE
  5
C9
330
17
100
AcDbEntity
  8
visible
100
AcDbLine
 10
-1.0407979065261017
 20
-46.959639196958356
 30
0.0
 11
-1.7141256546885622
 21
-46.95958678763649
 31
0.0
  0
LINE
  5
CA
330
17
100
AcDbEntity
  8
visible
100
AcDbLine
 10
1.6730205302302115
 20
-44.23595902795548
 30
0.0
 11
0.0836936119787195
 21
-41.85712965423718
 31
0.0
  0
LINE
  5
CB
330
17
100
AcDbEntity
  8
visible
100
AcDbLine
 10
-0.14872408789461744
 20
-46.959708632658895
 30
0.0
 11
1.6730205302302092
 21
-44.23595902795549
 31
0.0
  0
LINE
  5
CC
330
17
100
AcDbEntity
  8
visible
100
AcDbLine
 10
0.08369361197871683
 20
-41.85712965423717
 30
0.0
 11
0.8253795071627472
 21
-41.85718738430237
 31
0.0
  0
LINE
  5
CD
330
17
100
AcDbEntity
  8
visible
100
AcDbLine
 10
0.5963797146404914
 20
-46.95976662876125
 30
0.0
 11
-0.14872408789461744
 21
-46.95970863265889
 31
0.0
  0
LINE
  5
CE
330
17
100
AcDbEntity
  8
visible
100
AcDbLine
 10
0.825379507162753
 20
-41.857187384302364
 30
0.0
 11
2.093423134412868
 21
-43.75409879224044
 31
0.0
  0
LINE
  5
CF
330
17
100
AcDbEntity
  8
visible
100
AcDbLine
 10
2.0421545241466887
 20
-44.78965200991574
 30
0.0
 11
0.5963797146404932
 21
-46.95976662876126
 31
0.0
  0
LINE
  5
D0
330
17
100
AcDbEntity
  8
visible
100
AcDbLine
 10
2.0934231344128627
 20
-43.75409879224044
 30
0.0
 11
3.3683025763651333
 21
-41.85738531595449
 31
0.0
  0
LINE
  5
D1
330
17
100
AcDbEntity
  8
visible
100
AcDbLine
 10
3.477675611599646
 20
-46.95999089809289
 30
0.0
 11
2.042154524146686
 21
-44.78965200991574
 31
0.0
  0
LINE
  5
D2
330
17
100
AcDbEntity
  8
visible
100
AcDbLine
 10
3.3683025763651315
 20
-41.85738531595449
 30
0.0
 11
4.109988471549162
 21
-41.85744304601969
 31
0.0
  0
LINE
  5
D3
330
17
100
AcDbEntity
  8
visible
100
AcDbLine
 10
4.219361506783674
 20
-46.960048628158084
 30
0.0
 11
3.477675611599647
 21
-46.95999089809288
 31
0.0
  0
LINE
  5
D4
330
17
100
AcDbEntity
  8
visible
100
AcDbLine
 10
4.109988471549169
 20
-41.85744304601968
 30
0.0
 11
2.469392943031501
 21
-44.30779230627505
 31
0.0
  0
LINE
  5
D5
330
17
100
AcDbEntity
  8
visible
100
AcDbLine
 10
2.4693929430314956
 20
-44.30779230627505
 30
0.0
 11
4.2193615067836765
 21
-46.96004862815809
 31
0.0
  0
LINE
  5
D6
330
17
100
AcDbEntity
  8
visible
100
AcDbLine
 10
-52.256803574581085
 20
-68.54859335185874
 30
0.0
 11
39.74154377696208
 21
-68.55575416026214
 31
0.0
  0
ELLIPSE
  5
D7
330
17
100
AcDbEntity
  8
visible
100
AcDbEllipse
 10
-52.208852387617036
 20
-68.44470974096436
 30
0.0
 11
-8.0
 21
1.0842935974731414e-19
 31
0.0
 40
0.012985684631055228
 41
6.2771913729182165
 42
6.283185307179586
  0
ELLIPSE
  5
D8
330
17
100
AcDbEntity
  8
visible
100
AcDbEllipse
 10
-52.208852387617036
 20
-68.44470974096436
 30
0.0
 11
-8.0
 21
1.0842935974731414e-19
 31
0.0
 40
0.012985684631055228
 41
0.0
 42
1.5648023925335268
  0
ELLIPSE
  5
D9
330
17
100
AcDbEntity
  8
visible
100
AcDbEllipse
 10
39.78949496392614
 20
-68.45187054936775
 30
0.0
 11
8.0
 21
-1.0842935974731414e-19
 31
0.0
 40
0.012985684631055228
 41
-1.5767902610562663
 42
-0.005993934261369738
  0
ELLIPSE
  5
DA
330
17
100
AcDbEntity
  8
visible
100
AcDbEllipse
 10
40.22105564660266
 20
-67.5169180513183
 30
0.0
 11
-8.0
 21
1.0842935974731414e-19
 31
0.0
 40
0.012985684631055228
 41
3.1355987193284234
 42
3.141592653589793
  0
ELLIPSE
  5
DB
330
17
100
AcDbEntity
  8
visible
100
AcDbEllipse
 10
40.22105564660266
 20
-67.5169180513183
 30
0.0
 11
-8.0
 21
1.0842935974731414e-19
 31
0.0
 40
0.012985684631055228
 41
3.141592653589793
 42
4.70639504612332
  0
ELLIPSE
  5
DC
330
17
100
AcDbEntity
  8
visible
100
AcDbEllipse
 10
-51.77729170494052
 20
-42.01190734062844
 30
0.0
 11
8.0
 21
-1.0842935974731414e-19
 31
0.0
 40
0.012985684631055228
 41
-4.718382914646059
 42
-3.9056273532773993
  0
LINE
  5
DD
330
17
100
AcDbEntity
  8
visible
100
AcDbLine
 10
-57.553695924301614
 20
-53.93902336769398
 30
0.0
 11
-57.553695924301614
 21
-41.9400351783827
 31
0.0
  0
ELLIPSE
  5
DE
330
17
100
AcDbEntity
  8
visible
100
AcDbEllipse
 10
-51.77729170494052
 20
-54.01089552993972
 30
0.0
 11
8.0
 21
-1.0842935974731414e-19
 31
0.0
 40
0.012985684631055228
 41
-4.718382914646059
 42
-3.9056273532773993
  0
ELLIPSE
  5
DF
330
17
100
AcDbEntity
  8
visible
100
AcDbEllipse
 10
-51.77729170494052
 20
-67.5097572429149
 30
0.0
 11
8.0
 21
-1.0842935974731414e-19
 31
0.0
 40
0.012985684631055228
 41
-4.718382914646059
 42
-3.147586587851163
  0
LINE
  5
E0
330
17
100
AcDbEntity
  8
visible
100
AcDbLine
 10
-59.77714799637905
 20
-67.5091345639233
 30
0.0
 11
-60.20870867905557
 21
-68.44408706197275
 31
0.0
  0
ELLIPSE
  5
E1
330
17
100
AcDbEntity
  8
visible
100
AcDbEllipse
 10
-5.993898370507189
 20
-67.98081389614133
 30
0.0
 11
3.4
 21
-4.6082477892608504e-20
 31
0.0
 40
0.012985684631055228
 41
-3.141592653589793
 42
-0.005993934261369763
  0
ELLIPSE
  5
E2
330
17
100
AcDbEntity
  8
visible
100
AcDbEllipse
 10
-5.993898370507189
 20
-67.98081389614133
 30
0.0
 11
3.4
 21
-4.6082477892608504e-20
 31
0.0
 40
0.012985684631055228
 41
-6.283185307179586
 42
-3.141592653589793
  0
ELLIPSE
  5
E3
330
17
100
AcDbEntity
  8
visible
100
AcDbEllipse
 10
-5.993898370507189
 20
-67.98081389614133
 30
0.0
 11
3.4
 21
-4.6082477892608504e-20
 31
0.0
 40
0.012985684631055228
 41
-0.005993934261369738
 42
-0.0
  0
ELLIPSE
  5
E4
330
17
100
AcDbEntity
  8
visible
100
AcDbEllipse
 10
19.15549999950092
 20
-67.65812348394513
 30
0.0
 11
3.0
 21
-4.06610099052428e-20
 31
0.0
 40
0.012985684631055228
 41
-3.141592653589793
 42
-0.005993934261369763
  0
ELLIPSE
  5
E5
330
17
100
AcDbEntity
  8
visible
100
AcDbEllipse
 10
19.15549999950092
 20
-67.65812348394513
 30
0.0
 11
3.0
 21
-4.06610099052428e-20
 31
0.0
 40
0.012985684631055228
 41
-6.283185307179586
 42
-3.141592653589793
  0
ELLIPSE
  5
E6
330
17
100
AcDbEntity
  8
visible
100
AcDbEllipse
 10
19.15549999950092
 20
-67.65812348394513
 30
0.0
 11
3.0
 21
-4.06610099052428e-20
 31
0.0
 40
0.012985684631055228
 41
-0.005993934261369738
 42
-0.0
  0
LINE
  5
E7
330
17
100
AcDbEntity
  8
visible
100
AcDbLine
 10
-41.72952015367829
 20
-41.908802078473556
 30
0.0
 11
-41.74450489960455
 21
-41.941265706878056
 31
0.0
  0
LINE
  5
E8
330
17
100
AcDbEntity
  8
visible
100
AcDbLine
 10
-41.74450489960456
 20
-53.90778910142807
 30
0.0
 11
-41.74450489960456
 21
-41.94126570687805
 31
0.0
  0
LINE
  5
E9
330
17
100
AcDbEntity
  8
visible
100
AcDbLine
 10
-57.553695924301614
 20
-41.94003517838271
 30
0.0
 11
-41.74450489960456
 21
-41.941265706878056
 31
0.0
  0
LINE
  5
EA
330
17
100
AcDbEntity
  8
visible
100
AcDbLine
 10
-11.568130979519033
 20
-42.257047534240456
 30
0.0
 11
-11.568130979519033
 21
-42.97387813655448
 31
0.0
  0
LINE
  5
EB
330
17
100
AcDbEntity
  8
visible
100
AcDbLine
 10
-11.568130979519033
 20
-42.257047534240456
 30
0.0
 11
-11.56453464049673
 21
-42.249256263423376
 31
0.0
  0
SPLINE
  5
EC
330
17
100
AcDbEntity
  8
visible
100
AcDbSpline
 70
0
 71
2
 72
6
 73
3
 74
0
 40
0.0
 40
0.0
 40
0.0
 40
1.0
 40
1.0
 40
1.0
 10
-12.328615365133995
 20
-41.89300536183951
 30
0.0
 10
-11.923593344031195
 20
-42.014364546954226
 30
0.0
 10
-11.568130979519033
 20
-42.257047534240456
 30
0.0
  0
SPLINE
  5
ED
330
17
100
AcDbEntity
  8
visible
100
AcDbSpline
 70
0
 71
2
 72
6
 73
3
 74
0
 40
0.0
 40
0.0
 40
0.0
 40
1.0
 40
1.0
 40
1.0
 10
-13.19163697128131
 20
-41.77161052774444
 30
0.0
 10
-12.733637386236794
 20
-41.7716461767248
 30
0.0
 10
-12.328615365133995
 20
-41.89300536183951
 30
0.0
  0
SPLINE
  5
EE
330
17
100
AcDbEntity
  8
visible
100
AcDbSpline
 70
0
 71
2
 72
6
 73
3
 74
0
 40
0.0
 40
0.0
 40
0.0
 40
1.0
 40
1.0
 40
1.0
 10
-15.016799496757216
 20
-42.48063717910629
 30
0.0
 10
-14.350307563296914
 20
-41.77152034114489
 30
0.0
 10
-13.19163697128131
 20
-41.77161052774444
 30
0.0
  0
SPLINE
  5
EF
330
17
100
AcDbEntity
  8
visible
100
AcDbSpline
 70
0
 71
2
 72
6
 73
3
 74
0
 40
0.0
 40
0.0
 40
0.0
 40
1.0
 40
1.0
 40
1.0
 10
-15.42023540622093
 20
-43.079916237947856
 30
0.0
 10
-15.264573484528698
 20
-42.744257334005084
 30
0.0
 10
-15.016799496757216
 20
-42.48063717910629
 30
0.0
  0
SPLINE
  5
F0
330
17
100
AcDbEntity
  8
visible
100
AcDbSpline
 70
0
 71
2
 72
6
 73
3
 74
0
 40
0.0
 40
0.0
 40
0.0
 40
1.0
 40
1.0
 40
1.0
 10
-14.739219503867655
 20
-43.26240151143534
 30
0.0
 10
-14.955277164437804
 20
-43.730478557332965
 30
0.0
 10
-14.955277164437804
 20
-44.42017568286477
 30
0.0
  0
SPLINE
  5
F1
330
17
100
AcDbEntity
  8
visible
100
AcDbSpline
 70
0
 71
2
 72
6
 73
3
 74
0
 40
0.0
 40
0.0
 40
0.0
 40
1.0
 40
1.0
 40
1.0
 10
-14.955277164437804
 20
-44.42017568286477
 30
0.0
 10
-14.955277164437804
 20
-45.42839144665578
 30
0.0
 10
-14.49044176469113
 20
-45.96329463460299
 30
0.0
  0
SPLINE
  5
F2
330
17
100
AcDbEntity
  8
visible
100
AcDbSpline
 70
0
 71
2
 72
6
 73
3
 74
0
 40
0.0
 40
0.0
 40
0.0
 40
1.0
 40
1.0
 40
1.0
 10
-14.49044176469113
 20
-45.96329463460299
 30
0.0
 10
-14.025606364944458
 20
-46.49819782255019
 30
0.0
 10
-13.150622083068368
 20
-46.498265928064896
 30
0.0
  0
SPLINE
  5
F3
330
17
100
AcDbEntity
  8
visible
100
AcDbSpline
 70
0
 71
2
 72
6
 73
3
 74
0
 40
0.0
 40
0.0
 40
0.0
 40
1.0
 40
1.0
 40
1.0
 10
-13.150622083068368
 20
-46.498265928064896
 30
0.0
 10
-12.706294127428166
 20
-46.498300512896584
 30
0.0
 10
-12.311525828378603
 20
-46.33770025409383
 30
0.0
  0
SPLINE
  5
F4
330
17
100
AcDbEntity
  8
visible
100
AcDbSpline
 70
0
 71
2
 72
6
 73
3
 74
0
 40
0.0
 40
0.0
 40
0.0
 40
1.0
 40
1.0
 40
1.0
 10
-12.311525828378603
 20
-46.33770025409383
 30
0.0
 10
-11.916757529329038
 20
-46.17709999529109
 30
0.0
 10
-11.568130979519033
 20
-45.85244747833585
 30
0.0
  0
LINE
  5
F5
330
17
100
AcDbEntity
  8
visible
100
AcDbLine
 10
-11.568130979519033
 20
-45.85244747833585
 30
0.0
 11
-11.56453464049673
 21
-45.84465620751877
 31
0.0
  0
LINE
  5
F6
330
17
100
AcDbEntity
  8
visible
100
AcDbLine
 10
-11.568130979519033
 20
-45.85244747833585
 30
0.0
 11
-11.568130979519033
 21
-46.568225415509644
 31
0.0
  0
LINE
  5
F7
330
17
100
AcDbEntity
  8
visible
100
AcDbLine
 10
-9.185228085273568
 20
-41.86419974666795
 30
0.0
 11
-8.403148772420366
 21
-41.8642606208062
 31
0.0
  0
LINE
  5
F8
330
17
100
AcDbEntity
  8
visible
100
AcDbLine
 10
-8.403148772420366
 20
-41.864260620806206
 30
0.0
 11
-8.399552433398062
 21
-41.856469349989126
 31
0.0
  0
LINE
  5
F9
330
17
100
AcDbEntity
  8
visible
100
AcDbLine
 10
-9.941207080405679
 20
-45.657766320379494
 30
0.0
 11
-10.403275584019196
 21
-46.958910456597685
 31
0.0
  0
LINE
  5
FA
330
17
100
AcDbEntity
  8
visible
100
AcDbLine
 10
-9.941207080405679
 20
-45.657766320379494
 30
0.0
 11
-9.937610741383375
 21
-45.649975049562414
 31
0.0
  0
LINE
  5
FB
330
17
100
AcDbEntity
  8
visible
100
AcDbLine
 10
-8.403148772420366
 20
-41.864260620806206
 30
0.0
 11
-6.46132913906774
 21
-46.95921728301405
 31
0.0
  0
LINE
  5
FC
330
17
100
AcDbEntity
  8
visible
100
AcDbLine
 10
-5.709659348099302
 20
-41.864470271982114
 30
0.0
 11
-4.684465574446983
 21
-41.864550069243705
 31
0.0
  0
LINE
  5
FD
330
17
100
AcDbEntity
  8
visible
100
AcDbLine
 10
-4.684465574446984
 20
-41.864550069243705
 30
0.0
 11
-4.680869235424679
 21
-41.856758798426625
 31
0.0
  0
LINE
  5
FE
330
17
100
AcDbEntity
  8
visible
100
AcDbLine
 10
-5.043345846310223
 20
-42.48653999639191
 30
0.0
 11
-5.043345846310223
 21
-46.959327653547554
 31
0.0
  0
LINE
  5
FF
330
17
100
AcDbEntity
  8
visible
100
AcDbLine
 10
-5.043345846310223
 20
-42.48653999639191
 30
0.0
 11
-5.039749507287919
 21
-42.47874872557483
 31
0.0
  0
LINE
  5
100
330
17
100
AcDbEntity
  8
visible
100
AcDbLine
 10
-4.684465574446984
 20
-41.864550069243705
 30
0.0
 11
-3.3822428736860837
 21
-45.3370148735116
 31
0.0
  0
LINE
  5
101
330
17
100
AcDbEntity
  8
visible
100
AcDbLine
 10
-3.3822428736860837
 20
-45.33701487351159
 30
0.0
 11
-3.3786465346637793
 21
-45.32922360269451
 31
0.0
  0
LINE
  5
102
330
17
100
AcDbEntity
  8
visible
100
AcDbLine
 10
-2.072525383336867
 20
-41.864753372931304
 30
0.0
 11
-1.0443942455484057
 21
-41.86483339882637
 31
0.0
  0
LINE
  5
103
330
17
100
AcDbEntity
  8
visible
100
AcDbLine
 10
-1.044394245548406
 20
-41.86483339882636
 30
0.0
 11
-1.0407979065261017
 21
-41.85704212800928
 31
0.0
  0
LINE
  5
104
330
17
100
AcDbEntity
  8
visible
100
AcDbLine
 10
-1.7177219937108656
 20
-42.486798850555225
 30
0.0
 11
-3.030686689014848
 21
-45.97860999208427
 31
0.0
  0
LINE
  5
105
330
17
100
AcDbEntity
  8
visible
100
AcDbLine
 10
-1.7177219937108656
 20
-42.486798850555225
 30
0.0
 11
-1.7141256546885613
 21
-42.479007579738145
 31
0.0
  0
LINE
  5
106
330
17
100
AcDbEntity
  8
visible
100
AcDbLine
 10
-1.044394245548406
 20
-41.86483339882636
 30
0.0
 11
-1.044394245548406
 21
-46.95963891703273
 31
0.0
  0
LINE
  5
107
330
17
100
AcDbEntity
  8
visible
100
AcDbLine
 10
1.669424191207904
 20
-44.243750298772554
 30
0.0
 11
1.6730205302302084
 21
-44.235959027955474
 31
0.0
  0
LINE
  5
108
330
17
100
AcDbEntity
  8
visible
100
AcDbLine
 10
-0.14710942047985745
 20
-46.95970875833858
 30
0.0
 11
1.6694241912079046
 21
-44.243750298772554
 31
0.0
  0
LINE
  5
109
330
17
100
AcDbEntity
  8
visible
100
AcDbLine
 10
0.08889951933625265
 20
-41.8649216101883
 30
0.0
 11
0.8217831681404418
 21
-41.86497865511945
 31
0.0
  0
LINE
  5
10A
330
17
100
AcDbEntity
  8
visible
100
AcDbLine
 10
0.8217831681404419
 20
-41.86497865511945
 30
0.0
 11
0.8253795071627462
 21
-41.85718738430237
 31
0.0
  0
LINE
  5
10B
330
17
100
AcDbEntity
  8
visible
100
AcDbLine
 10
0.8217831681404419
 20
-41.86497865511945
 30
0.0
 11
2.0898267953905565
 21
-43.76189006305752
 31
0.0
  0
LINE
  5
10C
330
17
100
AcDbEntity
  8
visible
100
AcDbLine
 10
2.0898267953905574
 20
-43.76189006305753
 30
0.0
 11
2.0934231344128618
 21
-43.75409879224045
 31
0.0
  0
LINE
  5
10D
330
17
100
AcDbEntity
  8
visible
100
AcDbLine
 10
2.0898267953905574
 20
-43.76189006305753
 30
0.0
 11
3.364706237342829
 21
-41.86517658677157
 31
0.0
  0
LINE
  5
10E
330
17
100
AcDbEntity
  8
visible
100
AcDbLine
 10
3.36470623734283
 20
-41.86517658677157
 30
0.0
 11
3.368302576365134
 21
-41.85738531595449
 31
0.0
  0
LINE
  5
10F
330
17
100
AcDbEntity
  8
visible
100
AcDbLine
 10
3.36470623734283
 20
-41.86517658677157
 30
0.0
 11
4.104772024495271
 21
-41.865234190733595
 31
0.0
  0
LINE
  5
110
330
17
100
AcDbEntity
  8
visible
100
AcDbLine
 10
2.4657966040091903
 20
-44.31558357709213
 30
0.0
 11
2.4693929430314947
 21
-44.30779230627505
 31
0.0
  0
LINE
  5
111
330
17
100
AcDbEntity
  8
visible
100
AcDbLine
 10
2.4657966040091903
 20
-44.31558357709213
 30
0.0
 11
4.210624009634027
 21
-46.96004794806389
 31
0.0
  0
LINE
  5
112
330
17
100
AcDbEntity
  8
visible
100
AcDbLine
 10
-8.79620811779439
 20
-42.54434845702154
 30
0.0
 11
-9.732714731989892
 21
-45.08361221536908
 31
0.0
  0
LINE
  5
113
330
17
100
AcDbEntity
  8
visible
100
AcDbLine
 10
-9.732714731989892
 20
-45.08361221536909
 30
0.0
 11
-7.856283596247809
 21
-45.083758269773675
 31
0.0
  0
LINE
  5
114
330
17
100
AcDbEntity
  8
visible
100
AcDbLine
 10
-8.79620811779439
 20
-42.54434845702154
 30
0.0
 11
-8.792611778772086
 21
-42.53655718620446
 31
0.0
  0
LINE
  5
115
330
17
100
AcDbEntity
  8
visible
100
AcDbLine
 10
-7.8526872572255
 20
-45.07596699895659
 30
0.0
 11
-8.79261177877208
 21
-42.53655718620446
 31
0.0
  0
LINE
  5
116
330
17
100
AcDbEntity
  8
visible
100
AcDbLine
 10
-7.85628359624781
 20
-45.08375826977367
 30
0.0
 11
-7.852687257225505
 21
-45.07596699895659
 31
0.0
  0
LINE
  5
117
330
17
100
AcDbEntity
  8
visible
100
AcDbLine
 10
-9.732714731989892
 20
-45.08361221536909
 30
0.0
 11
-9.729118392967589
 21
-45.07582094455201
 31
0.0
  0
LINE
  5
118
330
17
100
AcDbEntity
  8
visible
100
AcDbLine
 10
-8.79261177877208
 20
-42.53655718620446
 30
0.0
 11
-9.729118392967584
 21
-45.075820944552
 31
0.0
  0
LINE
  5
119
330
17
100
AcDbEntity
  8
visible
100
AcDbLine
 10
-9.729118392967582
 20
-45.07582094455201
 30
0.0
 11
-7.852687257225501
 21
-45.075966998956595
 31
0.0
  0
LINE
  5
11A
330
17
100
AcDbEntity
  8
visible
100
AcDbLine
 10
-59.77714799637905
 20
-23.512844536448632
 30
0.0
 11
-60.20870867905557
 21
-24.447797034498084
 31
0.0
  0
LINE
  5
11B
330
17
100
AcDbEntity
  8
visible
100
AcDbLine
 10
-59.77714799637905
 20
-27.512507266219053
 30
0.0
 11
-60.20870867905557
 21
-28.447459764268505
 31
0.0
  0
ELLIPSE
  5
11C
330
17
100
AcDbEntity
  8
visible
100
AcDbEllipse
 10
-51.77729170494052
 20
-23.51346721544023
 30
0.0
 11
8.0
 21
-1.0842935974731414e-19
 31
0.0
 40
0.012985684631055228
 41
-4.718382914646059
 42
-3.147586587851163
  0
ELLIPSE
  5
11D
330
17
100
AcDbEntity
  8
visible
100
AcDbEllipse
 10
-52.208852387617036
 20
-24.448419713489685
 30
0.0
 11
-8.0
 21
1.0842935974731414e-19
 31
0.0
 40
0.012985684631055228
 41
6.2771913729182165
 42
6.283185307179586
  0
ELLIPSE
  5
11E
330
17
100
AcDbEntity
  8
visible
100
AcDbEllipse
 10
-52.208852387617036
 20
-24.448419713489685
 30
0.0
 11
-8.0
 21
1.0842935974731414e-19
 31
0.0
 40
0.012985684631055228
 41
0.0
 42
0.00599393426144168
  0
LINE
  5
11F
330
17
100
AcDbEntity
  8
visible
100
AcDbLine
 10
-51.72934051797645
 20
-23.409583604545848
 30
0.0
 11
40.26900683356671
 21
-23.416744412949246
 31
0.0
  0
ELLIPSE
  5
120
330
17
100
AcDbEntity
  8
visible
100
AcDbEllipse
 10
40.22105564660266
 20
-23.520628023843628
 30
0.0
 11
-8.0
 21
1.0842935974731414e-19
 31
0.0
 40
0.012985684631055228
 41
3.1355987193284234
 42
3.141592653589793
  0
ELLIPSE
  5
121
330
17
100
AcDbEntity
  8
visible
100
AcDbEllipse
 10
40.22105564660266
 20
-23.520628023843628
 30
0.0
 11
-8.0
 21
1.0842935974731414e-19
 31
0.0
 40
0.012985684631055228
 41
3.141592653589793
 42
4.70639504612332
  0
ELLIPSE
  5
122
330
17
100
AcDbEntity
  8
visible
100
AcDbEllipse
 10
-51.77729170494052
 20
-27.51312994521065
 30
0.0
 11
8.0
 21
-1.0842935974731414e-19
 31
0.0
 40
0.012985684631055228
 41
-4.718382914646059
 42
-3.147586587851163
  0
ELLIPSE
  5
123
330
17
100
AcDbEntity
  8
visible
100
AcDbEllipse
 10
-52.208852387617036
 20
-28.448082443260105
 30
0.0
 11
-8.0
 21
1.0842935974731414e-19
 31
0.0
 40
0.012985684631055228
 41
6.2771913729182165
 42
6.283185307179586
  0
LINE
  5
124
330
17
100
AcDbEntity
  8
visible
100
AcDbLine
 10
-51.72934051797645
 20
-27.40924633431627
 30
0.0
 11
40.26900683356671
 21
-27.416407142719667
 31
0.0
  0
ELLIPSE
  5
125
330
17
100
AcDbEntity
  8
visible
100
AcDbEllipse
 10
40.22105564660266
 20
-27.52029075361405
 30
0.0
 11
-8.0
 21
1.0842935974731414e-19
 31
0.0
 40
0.012985684631055228
 41
3.1355987193284234
 42
3.141592653589793
  0
ELLIPSE
  5
126
330
17
100
AcDbEntity
  8
visible
100
AcDbEllipse
 10
40.22105564660266
 20
-27.52029075361405
 30
0.0
 11
-8.0
 21
1.0842935974731414e-19
 31
0.0
 40
0.012985684631055228
 41
3.141592653589793
 42
4.70639504612332
  0
ELLIPSE
  5
127
330
17
100
AcDbEntity
  8
visible
100
AcDbEllipse
 10
-5.993898370507189
 20
-16.48515625034711
 30
0.0
 11
22.5
 21
-3.04957574289321e-19
 31
0.0
 40
0.012985684631055228
 41
-6.283185307179586
 42
-3.141592653589793
  0
ELLIPSE
  5
128
330
17
100
AcDbEntity
  8
visible
100
AcDbEllipse
 10
-5.993898370507189
 20
-16.48515625034711
 30
0.0
 11
22.5
 21
-3.04957574289321e-19
 31
0.0
 40
0.012985684631055228
 41
-0.005993934261369738
 42
-0.0
  0
ELLIPSE
  5
129
330
17
100
AcDbEntity
  8
visible
100
AcDbEllipse
 10
-5.993898370507189
 20
-14.285341748973373
 30
0.0
 11
22.5
 21
-3.04957574289321e-19
 31
0.0
 40
0.012985684631055228
 41
-6.283185307179586
 42
-3.141592653589793
  0
ELLIPSE
  5
12A
330
17
100
AcDbEntity
  8
visible
100
AcDbEllipse
 10
-5.993898370507189
 20
-14.285341748973373
 30
0.0
 11
22.5
 21
-3.04957574289321e-19
 31
0.0
 40
0.012985684631055228
 41
-0.005993934261369738
 42
-0.0
  0
ELLIPSE
  5
12B
330
17
100
AcDbEntity
  8
visible
100
AcDbEllipse
 10
-5.993898370507189
 20
-16.285173113858583
 30
0.0
 11
22.5
 21
-3.04957574289321e-19
 31
0.0
 40
0.012985684631055228
 41
-0.34928745077532414
 42
-0.005993934261369763
  0
ELLIPSE
  5
12C
330
17
100
AcDbEntity
  8
visible
100
AcDbEllipse
 10
-5.993898370507189
 20
-16.285173113858583
 30
0.0
 11
22.5
 21
-3.04957574289321e-19
 31
0.0
 40
0.012985684631055228
 41
-3.141592653589793
 42
-2.792305202814469
  0
ELLIPSE
  5
12D
330
17
100
AcDbEntity
  8
visible
100
AcDbEllipse
 10
-5.993898370507189
 20
-16.285173113858583
 30
0.0
 11
22.5
 21
-3.04957574289321e-19
 31
0.0
 40
0.012985684631055228
 41
-6.283185307179586
 42
-3.141592653589793
  0
ELLIPSE
  5
12E
330
17
100
AcDbEntity
  8
visible
100
AcDbEllipse
 10
-5.993898370507189
 20
-16.285173113858583
 30
0.0
 11
22.5
 21
-3.04957574289321e-19
 31
0.0
 40
0.012985684631055228
 41
-0.005993934261369738
 42
-0.0
  0
ELLIPSE
  5
12F
330
17
100
AcDbEntity
  8
visible
100
AcDbEllipse
 10
-23.685662773174
 20
-16.15069039434826
 30
0.0
 11
1.15
 21
-1.5586720463676406e-20
 31
0.0
 40
0.012985684631055228
 41
-3.141592653589793
 42
-0.005993934261369763
  0
ELLIPSE
  5
130
330
17
100
AcDbEntity
  8
visible
100
AcDbEllipse
 10
-23.685662773174
 20
-16.15069039434826
 30
0.0
 11
1.15
 21
-1.5586720463676406e-20
 31
0.0
 40
0.012985684631055228
 41
-6.283185307179586
 42
-3.141592653589793
  0
ELLIPSE
  5
131
330
17
100
AcDbEntity
  8
visible
100
AcDbEllipse
 10
-23.685662773174
 20
-16.15069039434826
 30
0.0
 11
1.15
 21
-1.5586720463676406e-20
 31
0.0
 40
0.012985684631055228
 41
-0.005993934261369738
 42
-0.0
  0
ELLIPSE
  5
132
330
17
100
AcDbEntity
  8
visible
100
AcDbEllipse
 10
11.820740948755017
 20
-16.153454080452043
 30
0.0
 11
1.15
 21
-1.5586720463676406e-20
 31
0.0
 40
0.012985684631055228
 41
-3.141592653589793
 42
-0.005993934261369763
  0
ELLIPSE
  5
133
330
17
100
AcDbEntity
  8
visible
100
AcDbEllipse
 10
11.820740948755017
 20
-16.153454080452043
 30
0.0
 11
1.15
 21
-1.5586720463676406e-20
 31
0.0
 40
0.012985684631055228
 41
-6.283185307179586
 42
-3.141592653589793
  0
ELLIPSE
  5
134
330
17
100
AcDbEntity
  8
visible
100
AcDbEllipse
 10
11.820740948755017
 20
-16.153454080452043
 30
0.0
 11
1.15
 21
-1.5586720463676406e-20
 31
0.0
 40
0.012985684631055228
 41
-0.005993934261369738
 42
-0.0
  0
ELLIPSE
  5
135
330
17
100
AcDbEntity
  8
visible
100
AcDbEllipse
 10
-5.993898370507189
 20
-16.285173113858583
 30
0.0
 11
17.5
 21
-2.3718922444724965e-19
 31
0.0
 40
0.012985684631055228
 41
-0.0690118254067736
 42
-0.005993934261369763
  0
ELLIPSE
  5
136
330
17
100
AcDbEntity
  8
visible
100
AcDbEllipse
 10
-5.993898370507189
 20
-16.285173113858583
 30
0.0
 11
17.5
 21
-2.3718922444724965e-19
 31
0.0
 40
0.012985684631055228
 41
-3.141592653589793
 42
-3.0725808281830194
  0
ELLIPSE
  5
137
330
17
100
AcDbEntity
  8
visible
100
AcDbEllipse
 10
-5.993898370507189
 20
-16.285173113858583
 30
0.0
 11
17.5
 21
-2.3718922444724965e-19
 31
0.0
 40
0.012985684631055228
 41
-6.283185307179586
 42
-3.141592653589793
  0
ELLIPSE
  5
138
330
17
100
AcDbEntity
  8
visible
100
AcDbEllipse
 10
-5.993898370507189
 20
-16.285173113858583
 30
0.0
 11
17.5
 21
-2.3718922444724965e-19
 31
0.0
 40
0.012985684631055228
 41
-0.005993934261369738
 42
-0.0
  0
LINE
  5
139
330
17
100
AcDbEntity
  8
visible
100
AcDbLine
 10
25.74555083406893
 20
-13.643710698280053
 30
0.0
 11
32.933474269809594
 21
-13.644270179444916
 31
0.0
  0
ELLIPSE
  5
13A
330
17
100
AcDbEntity
  8
visible
100
AcDbEllipse
 10
-5.993898370507189
 20
-13.485409203019287
 30
0.0
 11
34.0
 21
-4.608247789260851e-19
 31
0.0
 40
0.012985684631055228
 41
-1.0974330008793753
 42
-0.366706654624942
  0
ELLIPSE
  5
13B
330
17
100
AcDbEntity
  8
visible
100
AcDbEllipse
 10
-5.993898370507189
 20
-13.485409203019287
 30
0.0
 11
34.0
 21
-4.608247789260851e-19
 31
0.0
 40
0.012985684631055228
 41
-3.141592653589793
 42
-2.0441596527104178
  0
ELLIPSE
  5
13C
330
17
100
AcDbEntity
  8
visible
100
AcDbEllipse
 10
-5.993898370507189
 20
-13.485409203019287
 30
0.0
 11
34.0
 21
-4.608247789260851e-19
 31
0.0
 40
0.012985684631055228
 41
-5.928466521077384
 42
-3.141592653589793
  0
LINE
  5
13D
330
17
100
AcDbEntity
  8
visible
100
AcDbLine
 10
33.07732783070176
 20
-13.33261934676176
 30
0.0
 11
32.93347426980959
 21
-13.644270179444911
 31
0.0
  0
LINE
  5
13E
330
17
100
AcDbEntity
  8
visible
100
AcDbLine
 10
25.88940439496112
 20
-13.332059865596896
 30
0.0
 11
33.07732783070176
 21
-13.33261934676176
 31
0.0
  0
ELLIPSE
  5
13F
330
17
100
AcDbEntity
  8
visible
100
AcDbEllipse
 10
-5.993898370507189
 20
-13.485409203019287
 30
0.0
 11
15.5
 21
-2.1008188451042114e-19
 31
0.0
 40
0.012985684631055228
 41
-6.283185307179586
 42
-3.141592653589793
  0
ELLIPSE
  5
140
330
17
100
AcDbEntity
  8
visible
100
AcDbEllipse
 10
-5.993898370507189
 20
-13.485409203019287
 30
0.0
 11
15.5
 21
-2.1008188451042114e-19
 31
0.0
 40
0.012985684631055228
 41
-0.005993934261369738
 42
-0.0
  0
ELLIPSE
  5
141
330
17
100
AcDbEntity
  8
visible
100
AcDbEllipse
 10
-5.993898370507189
 20
-7.485915108363649
 30
0.0
 11
34.0
 21
-4.608247789260851e-19
 31
0.0
 40
0.012985684631055228
 41
-5.928466521077384
 42
-3.141592653589793
  0
LINE
  5
142
330
17
100
AcDbEntity
  8
visible
100
AcDbLine
 10
25.889404394962117
 20
-13.332059865596896
 30
0.0
 11
25.889404394962117
 21
-7.332565770941259
 31
0.0
  0
LINE
  5
143
330
17
100
AcDbEntity
  8
visible
100
AcDbLine
 10
33.07732783070176
 20
-13.33261934676176
 30
0.0
 11
33.07732783070176
 21
-7.433116820350385
 31
0.0
  0
LINE
  5
144
330
17
100
AcDbEntity
  8
visible
100
AcDbLine
 10
31.194121962991115
 20
-7.4329702386259235
 30
0.0
 11
33.07732783070176
 21
-7.4331168203503895
 31
0.0
  0
LINE
  5
145
330
17
100
AcDbEntity
  8
visible
100
AcDbLine
 10
31.19412196299111
 20
-7.43297023862592
 30
0.0
 11
31.19412196299111
 21
-7.3329786703816575
 31
0.0
  0
LINE
  5
146
330
17
100
AcDbEntity
  8
visible
100
AcDbLine
 10
25.88940439496112
 20
-7.332565770941258
 30
0.0
 11
31.19412196299117
 21
-7.332978670381655
 31
0.0
  0
ELLIPSE
  5
147
330
17
100
AcDbEntity
  8
visible
100
AcDbEllipse
 10
-5.993898370507189
 20
-16.285173113858583
 30
0.0
 11
15.5
 21
-2.1008188451042114e-19
 31
0.0
 40
0.012985684631055228
 41
-6.222756917114985
 42
-3.2020210436543937
  0
LINE
  5
148
330
17
100
AcDbEntity
  8
visible
100
AcDbLine
 10
33.07732783070176
 20
-7.75776476796296
 30
0.0
 11
33.32747318601101
 21
-7.757784238344917
 31
0.0
  0
ELLIPSE
  5
149
330
17
100
AcDbEntity
  8
visible
100
AcDbEllipse
 10
33.33706342340382
 20
-7.737007516166038
 30
0.0
 11
1.6
 21
-2.1685871949462827e-20
 31
0.0
 40
0.012985684631055228
 41
-1.5767902610562663
 42
-0.0059939342613686275
  0
LINE
  5
14A
330
17
100
AcDbEntity
  8
visible
100
AcDbLine
 10
35.07369556453909
 20
-7.441063760915366
 30
0.0
 11
34.93703468169153
 21
-7.737132051964361
 31
0.0
  0
ELLIPSE
  5
14B
330
17
100
AcDbEntity
  8
visible
100
AcDbEllipse
 10
33.473724306251384
 20
-7.440939225117049
 30
0.0
 11
-1.6
 21
2.1685871949462827e-20
 31
0.0
 40
0.012985684631055228
 41
3.1355987193284234
 42
3.141592653589793
  0
ELLIPSE
  5
14C
330
17
100
AcDbEntity
  8
visible
100
AcDbEllipse
 10
33.473724306251384
 20
-7.440939225117049
 30
0.0
 11
-1.6
 21
2.1685871949462827e-20
 31
0.0
 40
0.012985684631055228
 41
3.141592653589793
 42
4.70639504612332
  0
LINE
  5
14D
330
17
100
AcDbEntity
  8
visible
100
AcDbLine
 10
32.68332891450035
 20
-7.4201002350390075
 30
0.0
 11
33.483314543644205
 21
-7.420162502938168
 31
0.0
  0
ELLIPSE
  5
14E
330
17
100
AcDbEntity
  8
visible
100
AcDbEllipse
 10
32.673738677107536
 20
-7.440876957217888
 30
0.0
 11
1.6
 21
-2.1685871949462827e-20
 31
0.0
 40
0.012985684631055228
 41
-4.718382914646059
 42
-3.5319833623468027
  0
LINE
  5
14F
330
17
100
AcDbEntity
  8
visible
100
AcDbLine
 10
30.937106535972262
 20
-7.332958665258926
 30
0.0
 11
30.937106535972262
 21
15.361231551955647
 31
0.0
  0
ELLIPSE
  5
150
330
17
100
AcDbEntity
  8
visible
100
AcDbEllipse
 10
32.53707779425997
 20
15.36110701615732
 30
0.0
 11
1.6
 21
-2.1685871949462827e-20
 31
0.0
 40
0.012985684631055228
 41
-3.141592653589793
 42
-3.1355987193286383
  0
ELLIPSE
  5
151
330
17
100
AcDbEntity
  8
visible
100
AcDbEllipse
 10
32.53707779425997
 20
15.36110701615732
 30
0.0
 11
1.6
 21
-2.1685871949462827e-20
 31
0.0
 40
0.012985684631055228
 41
-3.147586587851163
 42
-3.141592653589793
  0
LINE
  5
152
330
17
100
AcDbEntity
  8
visible
100
AcDbLine
 10
31.073767418819827
 20
-7.332969302432598
 30
0.0
 11
31.073767418819827
 21
15.657299843004637
 31
0.0
  0
ELLIPSE
  5
153
330
17
100
AcDbEntity
  8
visible
100
AcDbEllipse
 10
32.673738677107536
 20
15.657175307206316
 30
0.0
 11
1.6
 21
-2.1685871949462827e-20
 31
0.0
 40
0.012985684631055228
 41
-4.718382914646059
 42
-3.147586587851163
  0
LINE
  5
154
330
17
100
AcDbEntity
  8
visible
100
AcDbLine
 10
32.68332891450035
 20
-7.420100235039008
 30
0.0
 11
32.68332891450035
 21
15.677952029385196
 31
0.0
  0
ELLIPSE
  5
155
330
17
100
AcDbEntity
  8
visible
100
AcDbEllipse
 10
-5.993898370507189
 20
-16.285173113858583
 30
0.0
 11
12.4
 21
-1.680655076083369e-19
 31
0.0
 40
0.012985684631055226
 41
-5.976451515180189
 42
-3.44832644558919
  0
LINE
  5
156
330
17
100
AcDbEntity
  8
visible
100
AcDbLine
 10
30.927516298579448
 20
15.340454829776775
 30
0.0
 11
30.93707779425997
 21
15.340454085545595
 31
0.0
  0
LINE
  5
157
330
17
100
AcDbEntity
  8
visible
100
AcDbLine
 10
30.927516298579448
 20
15.340454829776775
 30
0.0
 11
30.927516298579448
 21
20.340033241989808
 31
0.0
  0
LINE
  5
158
330
17
100
AcDbEntity
  8
visible
100
AcDbLine
 10
30.927516298579448
 20
62.33649190457926
 30
0.0
 11
30.93707779425997
 21
62.33649116034808
 31
0.0
  0
LINE
  5
159
330
17
100
AcDbEntity
  8
visible
100
AcDbLine
 10
30.927516298579448
 20
62.33649190457926
 30
0.0
 11
30.927516298579448
 21
67.33607031679229
 31
0.0
  0
LINE
  5
15A
330
17
100
AcDbEntity
  8
visible
100
AcDbLine
 10
35.07369556453909
 20
-7.440814689318735
 30
0.0
 11
35.07369556453909
 21
15.656988503508842
 31
0.0
  0
LINE
  5
15B
330
17
100
AcDbEntity
  8
visible
100
AcDbLine
 10
35.08328580193191
 20
15.677765225687722
 30
0.0
 11
35.073724306251385
 21
15.657050770848716
 31
0.0
  0
LINE
  5
15C
330
17
100
AcDbEntity
  8
visible
100
AcDbLine
 10
35.08328580193191
 20
15.677765225687722
 30
0.0
 11
35.08328580193191
 21
20.677343637900755
 31
0.0
  0
LINE
  5
15D
330
17
100
AcDbEntity
  8
visible
100
AcDbLine
 10
35.07369556453909
 20
20.67734438436907
 30
0.0
 11
35.07369556453909
 21
62.65302557831132
 31
0.0
  0
LINE
  5
15E
330
17
100
AcDbEntity
  8
visible
100
AcDbLine
 10
35.08328580193191
 20
62.67380230049021
 30
0.0
 11
35.073724306251385
 21
62.6530878456512
 31
0.0
  0
LINE
  5
15F
330
17
100
AcDbEntity
  8
visible
100
AcDbLine
 10
35.08328580193191
 20
62.67380230049021
 30
0.0
 11
35.08328580193191
 21
67.67338071270323
 31
0.0
  0
ELLIPSE
  5
160
330
17
100
AcDbEntity
  8
visible
100
AcDbEllipse
 10
33.473724306251384
 20
15.657113039307163
 30
0.0
 11
1.6
 21
-2.1685871949462827e-20
 31
0.0
 40
0.012985684631055228
 41
-6.283185307179586
 42
-4.718382914646059
  0
ELLIPSE
  5
161
330
17
100
AcDbEntity
  8
visible
100
AcDbEllipse
 10
33.473724306251384
 20
15.657113039307163
 30
0.0
 11
1.6
 21
-2.1685871949462827e-20
 31
0.0
 40
0.012985684631055228
 41
-0.005993934261369738
 42
-0.0
  0
LINE
  5
162
330
17
100
AcDbEntity
  8
visible
100
AcDbLine
 10
33.4833145436442
 20
-7.420162502938169
 30
0.0
 11
33.4833145436442
 21
15.677889761486036
 31
0.0
  0
LINE
  5
163
330
17
100
AcDbEntity
  8
visible
100
AcDbLine
 10
31.08335765621264
 20
15.678076565183517
 30
0.0
 11
32.68332891450035
 21
15.677952029385196
 31
0.0
  0
LINE
  5
164
330
17
100
AcDbEntity
  8
visible
100
AcDbLine
 10
31.08335765621264
 20
15.678076565183517
 30
0.0
 11
31.08335765621264
 21
20.67765497739655
 31
0.0
  0
LINE
  5
165
330
17
100
AcDbEntity
  8
visible
100
AcDbLine
 10
31.08335765621264
 20
20.677654977396543
 30
0.0
 11
32.68332891450035
 21
20.677530441598222
 31
0.0
  0
LINE
  5
166
330
17
100
AcDbEntity
  8
visible
100
AcDbLine
 10
32.68332891450035
 20
20.67753044159823
 30
0.0
 11
32.68332891450035
 21
62.673989104187676
 31
0.0
  0
LINE
  5
167
330
17
100
AcDbEntity
  8
visible
100
AcDbLine
 10
31.08335765621264
 20
62.674113639986004
 30
0.0
 11
32.68332891450035
 21
62.67398910418768
 31
0.0
  0
LINE
  5
168
330
17
100
AcDbEntity
  8
visible
100
AcDbLine
 10
31.08335765621264
 20
62.674113639986004
 30
0.0
 11
31.08335765621264
 21
67.67369205219903
 31
0.0
  0
LINE
  5
169
330
17
100
AcDbEntity
  8
visible
100
AcDbLine
 10
31.08335765621264
 20
67.67369205219903
 30
0.0
 11
35.08328580193191
 21
67.67338071270323
 31
0.0
  0
LINE
  5
16A
330
17
100
AcDbEntity
  8
visible
100
AcDbLine
 10
33.4833145436442
 20
62.67392683628852
 30
0.0
 11
35.08328580193191
 21
62.6738023004902
 31
0.0
  0
LINE
  5
16B
330
17
100
AcDbEntity
  8
visible
100
AcDbLine
 10
33.4833145436442
 20
20.67746817369907
 30
0.0
 11
33.4833145436442
 21
62.673926836288516
 31
0.0
  0
LINE
  5
16C
330
17
100
AcDbEntity
  8
visible
100
AcDbLine
 10
33.4833145436442
 20
20.67746817369906
 30
0.0
 11
35.08328580193191
 21
20.677343637900744
 31
0.0
  0
LINE
  5
16D
330
17
100
AcDbEntity
  8
visible
100
AcDbLine
 10
33.4833145436442
 20
15.677889761486037
 30
0.0
 11
35.08328580193191
 21
15.677765225687716
 31
0.0
  0
LINE
  5
16E
330
17
100
AcDbEntity
  8
visible
100
AcDbLine
 10
31.08335765621264
 20
15.678076565183517
 30
0.0
 11
31.07376741881983
 21
15.65729984300464
 31
0.0
  0
LINE
  5
16F
330
17
100
AcDbEntity
  8
visible
100
AcDbLine
 10
30.937106535972266
 20
15.361231551955646
 30
0.0
 11
30.927516298579455
 21
15.34045482977677
 31
0.0
  0
LINE
  5
170
330
17
100
AcDbEntity
  8
visible
100
AcDbLine
 10
31.08335765621264
 20
20.677654977396543
 30
0.0
 11
31.07376741881983
 21
20.656878255217666
 31
0.0
  0
LINE
  5
171
330
17
100
AcDbEntity
  8
visible
100
AcDbLine
 10
30.937106535972266
 20
20.360809964168674
 30
0.0
 11
30.927516298579455
 21
20.340033241989794
 31
0.0
  0
LINE
  5
172
330
17
100
AcDbEntity
  8
visible
100
AcDbLine
 10
31.073767418819827
 20
20.65687825521767
 30
0.0
 11
31.073767418819827
 21
62.65333691780712
 31
0.0
  0
LINE
  5
173
330
17
100
AcDbEntity
  8
visible
100
AcDbLine
 10
30.937106535972262
 20
20.36080996416868
 30
0.0
 11
30.937106535972262
 21
39.60703659352585
 31
0.0
  0
LINE
  5
174
330
17
100
AcDbEntity
  8
visible
100
AcDbLine
 10
30.937106535972262
 20
44.407036608066214
 30
0.0
 11
30.937106535972262
 21
62.35726862675813
 31
0.0
  0
LINE
  5
175
330
17
100
AcDbEntity
  8
visible
100
AcDbLine
 10
31.08335765621264
 20
62.674113639986004
 30
0.0
 11
31.07376741881983
 21
62.653336917807124
 31
0.0
  0
LINE
  5
176
330
17
100
AcDbEntity
  8
visible
100
AcDbLine
 10
30.937106535972266
 20
62.357268626758135
 30
0.0
 11
30.927516298579455
 21
62.336491904579255
 31
0.0
  0
LINE
  5
177
330
17
100
AcDbEntity
  8
visible
100
AcDbLine
 10
31.08335765621264
 20
67.67369205219903
 30
0.0
 11
30.927516298579455
 21
67.33607031679229
 31
0.0
  0
ELLIPSE
  5
178
330
17
100
AcDbEntity
  8
visible
100
AcDbEllipse
 10
30.951491892061483
 20
17.892185841330473
 30
0.0
 11
-7.005264473819973e-05
 21
-0.8999999972736816
 31
0.0
 40
0.005993392979637323
 41
-6.283185307179586
 42
-6.270199024308707
  0
ELLIPSE
  5
179
330
17
100
AcDbEntity
  8
visible
100
AcDbEllipse
 10
30.951491892061483
 20
17.892185841330473
 30
0.0
 11
-7.005264473819973e-05
 21
-0.8999999972736816
 31
0.0
 40
0.005993392979637323
 41
-3.1415926535897936
 42
-0.0
  0
ELLIPSE
  5
17A
330
17
100
AcDbEntity
  8
visible
100
AcDbEllipse
 10
30.951491892061483
 20
17.892185841330473
 30
0.0
 11
-7.005264473819973e-05
 21
-0.8999999972736816
 31
0.0
 40
0.005993392979637323
 41
-6.270199024308707
 42
-3.1415926535897936
  0
ELLIPSE
  5
17B
330
17
100
AcDbEntity
  8
visible
100
AcDbEllipse
 10
30.951491892061483
 20
64.88822291613296
 30
0.0
 11
-7.005264473819973e-05
 21
-0.8999999972736816
 31
0.0
 40
0.005993392979637323
 41
-6.283185307179586
 42
-6.270199024308707
  0
ELLIPSE
  5
17C
330
17
100
AcDbEntity
  8
visible
100
AcDbEllipse
 10
30.951491892061483
 20
64.88822291613296
 30
0.0
 11
-7.005264473819973e-05
 21
-0.8999999972736816
 31
0.0
 40
0.005993392979637323
 41
-3.1415926535897936
 42
-0.0
  0
ELLIPSE
  5
17D
330
17
100
AcDbEntity
  8
visible
100
AcDbEllipse
 10
30.951491892061483
 20
64.88822291613296
 30
0.0
 11
-7.005264473819973e-05
 21
-0.8999999972736816
 31
0.0
 40
0.005993392979637323
 41
-6.270199024308707
 42
-3.1415926535897936
  0
ELLIPSE
  5
17E
330
17
100
AcDbEntity
  8
visible
100
AcDbEllipse
 10
31.005436977396045
 20
33.00779014022575
 30
0.0
 11
-8.951171272103298e-05
 21
-1.149999996516371
 31
0.0
 40
0.005993392979637324
 41
-6.283185307179586
 42
-6.270199024308707
  0
ELLIPSE
  5
17F
330
17
100
AcDbEntity
  8
visible
100
AcDbEllipse
 10
31.005436977396045
 20
33.00779014022575
 30
0.0
 11
-8.951171272103298e-05
 21
-1.149999996516371
 31
0.0
 40
0.005993392979637324
 41
-3.1415926535897936
 42
-0.0
  0
ELLIPSE
  5
180
330
17
100
AcDbEntity
  8
visible
100
AcDbEllipse
 10
31.005436977396045
 20
33.00779014022575
 30
0.0
 11
-8.951171272103298e-05
 21
-1.149999996516371
 31
0.0
 40
0.005993392979637324
 41
-6.270199024308707
 42
-3.1415926535897936
  0
ELLIPSE
  5
181
330
17
100
AcDbEntity
  8
visible
100
AcDbEllipse
 10
31.059382062730606
 20
18.12592396584283
 30
0.0
 11
-7.005264473819973e-05
 21
-0.8999999972736816
 31
0.0
 40
0.005993392979637323
 41
-6.283185307179586
 42
-6.270199024308707
  0
ELLIPSE
  5
182
330
17
100
AcDbEntity
  8
visible
100
AcDbEllipse
 10
31.059382062730606
 20
18.12592396584283
 30
0.0
 11
-7.005264473819973e-05
 21
-0.8999999972736816
 31
0.0
 40
0.005993392979637323
 41
-3.1415926535897936
 42
-0.0
  0
ELLIPSE
  5
183
330
17
100
AcDbEntity
  8
visible
100
AcDbEllipse
 10
31.059382062730606
 20
18.12592396584283
 30
0.0
 11
-7.005264473819973e-05
 21
-0.8999999972736816
 31
0.0
 40
0.005993392979637323
 41
-6.270199024308707
 42
-3.1415926535897936
  0
LINE
  5
184
330
17
100
AcDbEntity
  8
visible
100
AcDbLine
 10
30.96677633290627
 20
35.073852696193754
 30
0.0
 11
31.044097621885815
 21
35.241365018760945
 31
0.0
  0
LINE
  5
185
330
17
100
AcDbEntity
  8
visible
100
AcDbLine
 10
30.96677633290627
 20
35.07385269619377
 30
0.0
 11
30.96677633290627
 21
39.60703428413946
 31
0.0
  0
LINE
  5
186
330
17
100
AcDbEntity
  8
visible
100
AcDbLine
 10
30.96677633290627
 20
44.40703429867983
 30
0.0
 11
30.96677633290627
 21
58.77185437008353
 31
0.0
  0
LINE
  5
187
330
17
100
AcDbEntity
  8
visible
100
AcDbLine
 10
31.04409762188582
 20
35.24136501876096
 30
0.0
 11
31.04409762188582
 21
58.93936669265072
 31
0.0
  0
LINE
  5
188
330
17
100
AcDbEntity
  8
visible
100
AcDbLine
 10
30.96677633290627
 20
58.771854370083545
 30
0.0
 11
31.044097621885815
 21
58.93936669265074
 31
0.0
  0
ELLIPSE
  5
189
330
17
100
AcDbEntity
  8
visible
100
AcDbEllipse
 10
31.005436977396045
 20
61.00542924861874
 30
0.0
 11
-8.951171272103298e-05
 21
-1.149999996516371
 31
0.0
 40
0.005993392979637324
 41
-6.283185307179586
 42
-6.270199024308707
  0
ELLIPSE
  5
18A
330
17
100
AcDbEntity
  8
visible
100
AcDbEllipse
 10
31.005436977396045
 20
61.00542924861874
 30
0.0
 11
-8.951171272103298e-05
 21
-1.149999996516371
 31
0.0
 40
0.005993392979637324
 41
-3.1415926535897936
 42
-0.0
  0
ELLIPSE
  5
18B
330
17
100
AcDbEntity
  8
visible
100
AcDbEllipse
 10
31.005436977396045
 20
61.00542924861874
 30
0.0
 11
-8.951171272103298e-05
 21
-1.149999996516371
 31
0.0
 40
0.005993392979637324
 41
-6.270199024308707
 42
-3.1415926535897936
  0
ELLIPSE
  5
18C
330
17
100
AcDbEntity
  8
visible
100
AcDbEllipse
 10
31.059382062730606
 20
65.12196104064533
 30
0.0
 11
-7.005264473819973e-05
 21
-0.8999999972736816
 31
0.0
 40
0.005993392979637323
 41
-6.283185307179586
 42
-6.270199024308707
  0
ELLIPSE
  5
18D
330
17
100
AcDbEntity
  8
visible
100
AcDbEllipse
 10
31.059382062730606
 20
65.12196104064533
 30
0.0
 11
-7.005264473819973e-05
 21
-0.8999999972736816
 31
0.0
 40
0.005993392979637323
 41
-3.1415926535897936
 42
-0.0
  0
ELLIPSE
  5
18E
330
17
100
AcDbEntity
  8
visible
100
AcDbEllipse
 10
31.059382062730606
 20
65.12196104064533
 30
0.0
 11
-7.005264473819973e-05
 21
-0.8999999972736816
 31
0.0
 40
0.005993392979637323
 41
-6.270199024308707
 42
-3.1415926535897936
  0
ELLIPSE
  5
18F
330
17
100
AcDbEntity
  8
visible
100
AcDbEllipse
 10
32.53707779425997
 20
62.35714409095981
 30
0.0
 11
1.6
 21
-2.1685871949462827e-20
 31
0.0
 40
0.012985684631055228
 41
-3.141592653589793
 42
-3.1355987193286383
  0
ELLIPSE
  5
190
330
17
100
AcDbEntity
  8
visible
100
AcDbEllipse
 10
32.53707779425997
 20
62.35714409095981
 30
0.0
 11
1.6
 21
-2.1685871949462827e-20
 31
0.0
 40
0.012985684631055228
 41
-3.147586587851163
 42
-3.141592653589793
  0
ELLIPSE
  5
191
330
17
100
AcDbEntity
  8
visible
100
AcDbEllipse
 10
33.473724306251384
 20
62.653150114109636
 30
0.0
 11
1.6
 21
-2.1685871949462827e-20
 31
0.0
 40
0.012985684631055228
 41
-6.283185307179586
 42
-4.718382914646059
  0
ELLIPSE
  5
192
330
17
100
AcDbEntity
  8
visible
100
AcDbEllipse
 10
33.473724306251384
 20
62.653150114109636
 30
0.0
 11
1.6
 21
-2.1685871949462827e-20
 31
0.0
 40
0.012985684631055228
 41
-0.005993934261369738
 42
-0.0
  0
LINE
  5
193
330
17
100
AcDbEntity
  8
visible
100
AcDbLine
 10
30.96677633290627
 20
58.77185437008353
 30
0.0
 11
31.04409762188582
 21
58.771848351682635
 31
0.0
  0
ELLIPSE
  5
194
330
17
100
AcDbEntity
  8
visible
100
AcDbEllipse
 10
32.673738677107536
 20
62.65321238200882
 30
0.0
 11
1.6
 21
-2.1685871949462827e-20
 31
0.0
 40
0.012985684631055228
 41
-4.718382914646059
 42
-3.147586587851163
  0
LINE
  5
195
330
17
100
AcDbEntity
  8
visible
100
AcDbLine
 10
35.07129800519089
 20
68.14736765120095
 30
0.0
 11
34.93943224103973
 21
67.8616877212414
 31
0.0
  0
ELLIPSE
  5
196
330
17
100
AcDbEntity
  8
visible
100
AcDbEllipse
 10
37.07126207805052
 20
68.14721198145305
 30
0.0
 11
2.0
 21
-2.7107339936828534e-20
 31
0.0
 40
0.012985684631055228
 41
-4.718382914646059
 42
-3.147586587851163
  0
ELLIPSE
  5
197
330
17
100
AcDbEntity
  8
visible
100
AcDbEllipse
 10
36.939396313899366
 20
67.86153205149348
 30
0.0
 11
-2.0
 21
2.7107339936828534e-20
 31
0.0
 40
0.012985684631055228
 41
6.2771913729182165
 42
6.283185307179586
  0
ELLIPSE
  5
198
330
17
100
AcDbEntity
  8
visible
100
AcDbEllipse
 10
36.939396313899366
 20
67.86153205149348
 30
0.0
 11
-2.0
 21
2.7107339936828534e-20
 31
0.0
 40
0.012985684631055228
 41
0.0
 42
0.00599393426144168
  0
LINE
  5
199
330
17
100
AcDbEntity
  8
visible
100
AcDbLine
 10
37.08324987479154
 20
68.17318288417665
 30
0.0
 11
58.0828726398177
 21
68.1715483518237
 31
0.0
  0
ELLIPSE
  5
19A
330
17
100
AcDbEntity
  8
visible
100
AcDbEllipse
 10
58.07088484307669
 20
68.14557744910009
 30
0.0
 11
-2.0
 21
2.7107339936828534e-20
 31
0.0
 40
0.012985684631055228
 41
3.1355987193284234
 42
3.141592653589793
  0
ELLIPSE
  5
19B
330
17
100
AcDbEntity
  8
visible
100
AcDbEllipse
 10
58.07088484307669
 20
68.14557744910009
 30
0.0
 11
-2.0
 21
2.7107339936828534e-20
 31
0.0
 40
0.012985684631055228
 41
3.141592653589793
 42
4.70639504612332
  0
ELLIPSE
  5
19C
330
17
100
AcDbEntity
  8
visible
100
AcDbEllipse
 10
37.07126207805052
 20
15.151680811994922
 30
0.0
 11
2.0
 21
-2.7107339936828534e-20
 31
0.0
 40
0.012985684631055228
 41
-4.718382914646059
 42
-3.191218590162962
  0
ELLIPSE
  5
19D
330
17
100
AcDbEntity
  8
visible
100
AcDbEllipse
 10
36.939396313899366
 20
14.866000882035365
 30
0.0
 11
-2.0
 21
2.7107339936828534e-20
 31
0.0
 40
0.012985684631055228
 41
0.36859081207775723
 42
1.5648023925335268
  0
LINE
  5
19E
330
17
100
AcDbEntity
  8
visible
100
AcDbLine
 10
37.08324987479154
 20
15.17765171471852
 30
0.0
 11
58.0828726398177
 21
15.17601718236557
 31
0.0
  0
LINE
  5
19F
330
17
100
AcDbEntity
  8
visible
100
AcDbLine
 10
36.92740851715835
 20
14.840029979311764
 30
0.0
 11
57.92703128218451
 21
14.838395446958813
 31
0.0
  0
ELLIPSE
  5
1A0
330
17
100
AcDbEntity
  8
visible
100
AcDbEllipse
 10
58.07088484307669
 20
15.15004627964197
 30
0.0
 11
-2.0
 21
2.7107339936828534e-20
 31
0.0
 40
0.012985684631055228
 41
3.1355987193284234
 42
3.141592653589793
  0
ELLIPSE
  5
1A1
330
17
100
AcDbEntity
  8
visible
100
AcDbEllipse
 10
58.07088484307669
 20
15.15004627964197
 30
0.0
 11
-2.0
 21
2.7107339936828534e-20
 31
0.0
 40
0.012985684631055228
 41
3.141592653589793
 42
4.70639504612332
  0
ELLIPSE
  5
1A2
330
17
100
AcDbEntity
  8
visible
100
AcDbEllipse
 10
57.939019078925526
 20
14.864366349682413
 30
0.0
 11
2.0
 21
-2.7107339936828534e-20
 31
0.0
 40
0.012985684631055228
 41
-1.5767902610562663
 42
-0.005993934261369738
  0
LINE
  5
1A3
330
17
100
AcDbEntity
  8
visible
100
AcDbLine
 10
60.070848915936324
 20
15.149890609894062
 30
0.0
 11
59.938983151785166
 21
14.864210679934507
 31
0.0
  0
LINE
  5
1A4
330
17
100
AcDbEntity
  8
visible
100
AcDbLine
 10
45.52915209911042
 20
15.060121056033756
 30
0.0
 11
36.529313771242066
 21
15.060821569899305
 31
0.0
  0
LINE
  5
1A5
330
17
100
AcDbEntity
  8
visible
100
AcDbLine
 10
45.52915209911042
 20
15.06012105603376
 30
0.0
 11
45.48120091214636
 21
14.956237445139376
 31
0.0
  0
LINE
  5
1A6
330
17
100
AcDbEntity
  8
visible
100
AcDbLine
 10
45.48120091214636
 20
14.95623744513937
 30
0.0
 11
36.48136258427801
 21
14.95693795900492
 31
0.0
  0
LINE
  5
1A7
330
17
100
AcDbEntity
  8
visible
100
AcDbLine
 10
36.529313771242066
 20
15.060821569899312
 30
0.0
 11
36.48136258427801
 21
14.956937959004929
 31
0.0
  0
LINE
  5
1A8
330
17
100
AcDbEntity
  8
visible
100
AcDbLine
 10
45.48120091214636
 20
14.956237445139381
 30
0.0
 11
45.48120091214636
 21
15.060124788375395
 31
0.0
  0
LINE
  5
1A9
330
17
100
AcDbEntity
  8
visible
100
AcDbLine
 10
-37.334494211227984
 20
10.359175593999018
 30
0.0
 11
-37.65217082486486
 21
9.670946671823724
 31
0.0
  0
LINE
  5
1AA
330
17
100
AcDbEntity
  8
visible
100
AcDbLine
 10
-37.334494211227984
 20
5.359597181785992
 30
0.0
 11
-37.65217082486486
 21
4.671368259610699
 31
0.0
  0
ELLIPSE
  5
1AB
330
17
100
AcDbEntity
  8
visible
100
AcDbEllipse
 10
-34.652224715575414
 20
9.670713167201882
 30
0.0
 11
-3.0
 21
4.06610099052428e-20
 31
0.0
 40
0.012985684631055228
 41
6.2771913729182165
 42
6.283185307179586
  0
ELLIPSE
  5
1AC
330
17
100
AcDbEntity
  8
visible
100
AcDbEllipse
 10
-34.652224715575414
 20
9.670713167201882
 30
0.0
 11
-3.0
 21
4.06610099052428e-20
 31
0.0
 40
0.012985684631055228
 41
0.0
 42
0.00599393426144168
  0
ELLIPSE
  5
1AD
330
17
100
AcDbEntity
  8
visible
100
AcDbEllipse
 10
22.66442797456104
 20
10.354505501562016
 30
0.0
 11
-3.0
 21
4.06610099052428e-20
 31
0.0
 40
0.012985684631055228
 41
3.1355987193284234
 42
3.141592653589793
  0
ELLIPSE
  5
1AE
330
17
100
AcDbEntity
  8
visible
100
AcDbEllipse
 10
22.66442797456104
 20
10.354505501562016
 30
0.0
 11
-3.0
 21
4.06610099052428e-20
 31
0.0
 40
0.012985684631055228
 41
3.141592653589793
 42
4.70639504612332
  0
LINE
  5
1AF
330
17
100
AcDbEntity
  8
visible
100
AcDbLine
 10
-34.31656640682701
 20
10.397898443462562
 30
0.0
 11
22.68240966967256
 21
10.393461855647413
 31
0.0
  0
ELLIPSE
  5
1B0
330
17
100
AcDbEntity
  8
visible
100
AcDbEllipse
 10
-34.33454810193854
 20
10.358942089377166
 30
0.0
 11
3.0
 21
-4.06610099052428e-20
 31
0.0
 40
0.012985684631055228
 41
-4.718382914646059
 42
-3.147586587851163
  0
ELLIPSE
  5
1B1
330
17
100
AcDbEntity
  8
visible
100
AcDbEllipse
 10
-34.33454810193854
 20
5.35936367716414
 30
0.0
 11
3.0
 21
-4.06610099052428e-20
 31
0.0
 40
0.012985684631055228
 41
-4.718382914646059
 42
-3.147586587851163
  0
ELLIPSE
  5
1B2
330
17
100
AcDbEntity
  8
visible
100
AcDbEllipse
 10
-34.652224715575414
 20
4.671134754988856
 30
0.0
 11
-3.0
 21
4.06610099052428e-20
 31
0.0
 40
0.012985684631055228
 41
6.2771913729182165
 42
6.283185307179586
  0
ELLIPSE
  5
1B3
330
17
100
AcDbEntity
  8
visible
100
AcDbEllipse
 10
-34.652224715575414
 20
4.671134754988856
 30
0.0
 11
-3.0
 21
4.06610099052428e-20
 31
0.0
 40
0.012985684631055228
 41
0.0
 42
1.5648023925335268
  0
LINE
  5
1B4
330
17
100
AcDbEntity
  8
visible
100
AcDbLine
 10
-34.31656640682701
 20
5.398320031249536
 30
0.0
 11
22.68240966967256
 21
5.393883443434386
 31
0.0
  0
LINE
  5
1B5
330
17
100
AcDbEntity
  8
visible
100
AcDbLine
 10
-34.67020641068693
 20
4.632178400903452
 30
0.0
 11
22.328769665812636
 21
4.627741813088302
 31
0.0
  0
ELLIPSE
  5
1B6
330
17
100
AcDbEntity
  8
visible
100
AcDbEllipse
 10
22.66442797456104
 20
5.35492708934899
 30
0.0
 11
-3.0
 21
4.06610099052428e-20
 31
0.0
 40
0.012985684631055228
 41
3.1355987193284234
 42
3.141592653589793
  0
ELLIPSE
  5
1B7
330
17
100
AcDbEntity
  8
visible
100
AcDbEllipse
 10
22.66442797456104
 20
5.35492708934899
 30
0.0
 11
-3.0
 21
4.06610099052428e-20
 31
0.0
 40
0.012985684631055228
 41
3.141592653589793
 42
4.70639504612332
  0
ELLIPSE
  5
1B8
330
17
100
AcDbEntity
  8
visible
100
AcDbEllipse
 10
22.346751360924156
 20
4.666698167173706
 30
0.0
 11
3.0
 21
-4.06610099052428e-20
 31
0.0
 40
0.012985684631055228
 41
-1.5767902610562663
 42
-0.005993934261369738
  0
LINE
  5
1B9
330
17
100
AcDbEntity
  8
visible
100
AcDbLine
 10
25.664374083850486
 20
5.35469358472715
 30
0.0
 11
25.346697470213606
 21
4.666464662551857
 31
0.0
  0
LINE
  5
1BA
330
17
100
AcDbEntity
  8
visible
100
AcDbLine
 10
0.08691147607355987
 20
5.1878675063095026
 30
0.0
 11
-11.912872961084245
 21
5.188801524796903
 31
0.0
  0
LINE
  5
1BB
330
17
100
AcDbEntity
  8
visible
100
AcDbLine
 10
0.08691147607356023
 20
5.187867506309489
 30
0.0
 11
-0.07492377993013388
 21
4.837260319540944
 31
0.0
  0
LINE
  5
1BC
330
17
100
AcDbEntity
  8
visible
100
AcDbLine
 10
-11.912872961084245
 20
5.188801524796903
 30
0.0
 11
-12.074708217087938
 21
4.838194338028357
 31
0.0
  0
LINE
  5
1BD
330
17
100
AcDbEntity
  8
visible
100
AcDbLine
 10
-0.07492377993013122
 20
4.837260319540946
 30
0.0
 11
-12.074708217087936
 21
4.838194338028346
 31
0.0
  0
LINE
  5
1BE
330
17
100
AcDbEntity
  8
visible
100
AcDbLine
 10
-19.631515524831386
 20
4.71541631164589
 30
0.0
 11
-22.63146163412084
 21
4.71564981626774
 31
0.0
  0
LINE
  5
1BF
330
17
100
AcDbEntity
  8
visible
100
AcDbLine
 10
-19.631515524831382
 20
4.715416311645898
 30
0.0
 11
-19.649497219942905
 21
4.676459957560504
 31
0.0
  0
LINE
  5
1C0
330
17
100
AcDbEntity
  8
visible
100
AcDbLine
 10
-22.631461634120836
 20
4.715649816267744
 30
0.0
 11
-22.64944332923236
 21
4.67669346218235
 31
0.0
  0
LINE
  5
1C1
330
17
100
AcDbEntity
  8
visible
100
AcDbLine
 10
-19.649497219942905
 20
4.676459957560504
 30
0.0
 11
-22.64944332923236
 21
4.676693462182354
 31
0.0
  0
LINE
  5
1C2
330
17
100
AcDbEntity
  8
visible
100
AcDbLine
 10
10.36794556806313
 20
4.713081265427395
 30
0.0
 11
7.36799945877368
 21
4.713314770049244
 31
0.0
  0
LINE
  5
1C3
330
17
100
AcDbEntity
  8
visible
100
AcDbLine
 10
10.36794556806313
 20
4.713081265427393
 30
0.0
 11
10.349963872951609
 21
4.674124911341999
 31
0.0
  0
LINE
  5
1C4
330
17
100
AcDbEntity
  8
visible
100
AcDbLine
 10
10.349963872951607
 20
4.674124911341995
 30
0.0
 11
7.350017763662157
 21
4.6743584159638445
 31
0.0
  0
LINE
  5
1C5
330
17
100
AcDbEntity
  8
visible
100
AcDbLine
 10
7.367999458773676
 20
4.713314770049239
 30
0.0
 11
7.350017763662155
 21
4.674358415963845
 31
0.0
  0
LINE
  5
1C6
330
17
100
AcDbEntity
  8
visible
100
AcDbLine
 10
16.547654737757245
 20
5.1021777970376405
 30
0.0
 11
16.463740160570143
 21
4.920381477972472
 31
0.0
  0
ELLIPSE
  5
1C7
330
17
100
AcDbEntity
  8
visible
100
AcDbEllipse
 10
16.463740160570143
 20
17.919285349726337
 30
0.0
 11
-7.263544578931042
 21
3.3527481488894257
 31
0.0
 40
0.9998977203870677
 41
-3.129076748995593
 42
-2.7091848733851025
  0
LINE
  5
1C8
330
17
100
AcDbEntity
  8
visible
100
AcDbLine
 10
24.46359645200868
 20
17.918662670734747
 30
0.0
 11
24.46359645200868
 21
30.44358053707633
 31
0.0
  0
LINE
  5
1C9
330
17
100
AcDbEntity
  8
visible
100
AcDbLine
 10
24.46359645200868
 20
37.57284949321959
 30
0.0
 11
24.46359645200868
 21
44.916386096685116
 31
0.0
  0
ELLIPSE
  5
1CA
330
17
100
AcDbEntity
  8
visible
100
AcDbEllipse
 10
16.463740160570143
 20
17.919285349726337
 30
0.0
 11
-11.803259940762944
 21
5.448215741945317
 31
0.0
 40
0.9998977203870678
 41
-3.4936617483302617
 42
-3.141592653589793
  0
ELLIPSE
  5
1CB
330
17
100
AcDbEntity
  8
visible
100
AcDbEllipse
 10
-27.64036266382568
 20
14.695717638020867
 30
0.0
 11
-2.0
 21
2.7107339936828534e-20
 31
0.0
 40
0.012985684631055228
 41
6.2771913729182165
 42
6.283185307179586
  0
ELLIPSE
  5
1CC
330
17
100
AcDbEntity
  8
visible
100
AcDbEllipse
 10
-27.64036266382568
 20
14.695717638020867
 30
0.0
 11
-2.0
 21
2.7107339936828534e-20
 31
0.0
 40
0.012985684631055228
 41
0.0
 42
0.00599393426144168
  0
LINE
  5
1CD
330
17
100
AcDbEntity
  8
visible
100
AcDbLine
 10
-29.34662571653046
 20
15.332160424496866
 30
0.0
 11
-29.640326736685314
 21
14.695873307768766
 31
0.0
  0
ELLIPSE
  5
1CE
330
17
100
AcDbEntity
  8
visible
100
AcDbEllipse
 10
-27.34666164367083
 20
15.332004754748965
 30
0.0
 11
2.0
 21
-2.7107339936828534e-20
 31
0.0
 40
0.012985684631055228
 41
-4.718382914646059
 42
-3.147586587851163
  0
LINE
  5
1CF
330
17
100
AcDbEntity
  8
visible
100
AcDbLine
 10
-27.334673846929814
 20
15.357975657472563
 30
0.0
 11
15.664553719552327
 21
15.354628757892712
 31
0.0
  0
ELLIPSE
  5
1D0
330
17
100
AcDbEntity
  8
visible
100
AcDbEllipse
 10
15.652565922811302
 20
15.328657855169112
 30
0.0
 11
-2.0
 21
2.7107339936828534e-20
 31
0.0
 40
0.012985684631055228
 41
3.1355987193284234
 42
3.141592653589793
  0
ELLIPSE
  5
1D1
330
17
100
AcDbEntity
  8
visible
100
AcDbEllipse
 10
15.652565922811302
 20
15.328657855169112
 30
0.0
 11
-2.0
 21
2.7107339936828534e-20
 31
0.0
 40
0.012985684631055228
 41
3.141592653589793
 42
4.70639504612332
  0
ELLIPSE
  5
1D2
330
17
100
AcDbEntity
  8
visible
100
AcDbEllipse
 10
16.547654737757245
 20
18.101081668791522
 30
0.0
 11
-7.263544578931042
 21
3.3527481488894257
 31
0.0
 40
0.9998977203870677
 41
-3.141592653589793
 42
-2.7091848733851025
  0
ELLIPSE
  5
1D3
330
17
100
AcDbEntity
  8
visible
100
AcDbEllipse
 10
16.547654737757245
 20
18.101081668791522
 30
0.0
 11
-7.263544578931042
 21
3.3527481488894257
 31
0.0
 40
0.9998977203870677
 41
-4.0088704358514455
 42
-3.141592653589793
  0
LINE
  5
1D4
330
17
100
AcDbEntity
  8
visible
100
AcDbLine
 10
24.547511029195782
 20
45.09818241575029
 30
0.0
 11
24.547511029195782
 21
18.100458989799918
 31
0.0
  0
LINE
  5
1D5
330
17
100
AcDbEntity
  8
visible
100
AcDbLine
 10
24.547511029195782
 20
45.09818241575029
 30
0.0
 11
30.047412229559775
 21
45.09775432394356
 31
0.0
  0
LINE
  5
1D6
330
17
100
AcDbEntity
  8
visible
100
AcDbLine
 10
30.047412229559775
 20
39.09826022928793
 30
0.0
 11
30.047412229559775
 21
45.09775432394357
 31
0.0
  0
LINE
  5
1D7
330
17
100
AcDbEntity
  8
visible
100
AcDbLine
 10
29.54742121134487
 20
39.098299146724905
 30
0.0
 11
30.047412229559775
 21
39.09826022928793
 31
0.0
  0
LINE
  5
1D8
330
17
100
AcDbEntity
  8
visible
100
AcDbLine
 10
29.54742121134487
 20
17.600111974208858
 30
0.0
 11
29.54742121134487
 21
39.09829914672489
 31
0.0
  0
LINE
  5
1D9
330
17
100
AcDbEntity
  8
visible
100
AcDbLine
 10
29.53780244090198
 20
17.6001127228981
 30
0.0
 11
29.54742121134487
 21
17.600111974208865
 31
0.0
  0
ELLIPSE
  5
1DA
330
17
100
AcDbEntity
  8
visible
100
AcDbEllipse
 10
16.547654737757245
 20
18.101081668791522
 30
0.0
 11
-11.803259940762944
 21
5.448215741945317
 31
0.0
 40
0.9998977203870678
 41
-3.141592653589793
 42
-2.747655900792457
  0
ELLIPSE
  5
1DB
330
17
100
AcDbEntity
  8
visible
100
AcDbEllipse
 10
16.547654737757245
 20
18.101081668791522
 30
0.0
 11
-11.803259940762944
 21
5.448215741945317
 31
0.0
 40
0.9998977203870678
 41
-3.502757717909015
 42
-3.141592653589793
  0
LINE
  5
1DC
330
17
100
AcDbEntity
  8
visible
100
AcDbLine
 10
-0.07492377993013388
 20
4.837260319540952
 30
0.0
 11
-0.07492377993013388
 21
5.187880102962535
 31
0.0
  0
LINE
  5
1DD
330
17
100
AcDbEntity
  8
visible
100
AcDbLine
 10
-19.64949721994291
 20
4.676459957560497
 30
0.0
 11
-19.64949721994291
 21
4.7154177112740046
 31
0.0
  0
LINE
  5
1DE
330
17
100
AcDbEntity
  8
visible
100
AcDbLine
 10
10.349963872951609
 20
4.674124911342006
 30
0.0
 11
10.349963872951609
 21
4.713082665055509
 31
0.0
  0
LINE
  5
1DF
330
17
100
AcDbEntity
  8
visible
100
AcDbLine
 10
24.54751102919578
 20
18.10045898979992
 30
0.0
 11
24.46359645200868
 21
17.91866267073475
 31
0.0
  0
LINE
  5
1E0
330
17
100
AcDbEntity
  8
visible
100
AcDbLine
 10
24.547511029195782
 20
45.09818241575029
 30
0.0
 11
24.46359645200868
 21
44.916386096685116
 31
0.0
  0
LINE
  5
1E1
330
17
100
AcDbEntity
  8
visible
100
AcDbLine
 10
24.475584248749694
 20
30.44357960399092
 30
0.0
 11
24.535523232454764
 21
30.5734341176089
 31
0.0
  0
LINE
  5
1E2
330
17
100
AcDbEntity
  8
visible
100
AcDbLine
 10
24.535523232454768
 20
30.57343411760889
 30
0.0
 11
24.535523232454768
 21
37.572843894707134
 31
0.0
  0
ELLIPSE
  5
1E3
330
17
100
AcDbEntity
  8
visible
100
AcDbEllipse
 10
24.50555374060223
 20
42.007537208889886
 30
0.0
 11
-0.0001945906798283326
 21
-2.4999999924268934
 31
0.0
 40
0.005993392979637324
 41
-6.283185307179586
 42
-6.270199024308707
  0
ELLIPSE
  5
1E4
330
17
100
AcDbEntity
  8
visible
100
AcDbEllipse
 10
24.50555374060223
 20
42.007537208889886
 30
0.0
 11
-0.0001945906798283326
 21
-2.4999999924268934
 31
0.0
 40
0.005993392979637324
 41
-3.1415926535897936
 42
-0.0
  0
ELLIPSE
  5
1E5
330
17
100
AcDbEntity
  8
visible
100
AcDbEllipse
 10
24.50555374060223
 20
42.007537208889886
 30
0.0
 11
-0.0001945906798283326
 21
-2.4999999924268934
 31
0.0
 40
0.005993392979637324
 41
-6.270199024308707
 42
-3.1415926535897936
  0
ELLIPSE
  5
1E6
330
17
100
AcDbEntity
  8
visible
100
AcDbEllipse
 10
30.005454940966224
 20
42.00710911708316
 30
0.0
 11
-0.0004670176315879982
 21
-5.999999981824544
 31
0.0
 40
0.005993392979637324
 41
-4.171255243234339
 42
-3.1415926535897936
  0
ELLIPSE
  5
1E7
330
17
100
AcDbEntity
  8
visible
100
AcDbEllipse
 10
30.005454940966224
 20
42.00710911708316
 30
0.0
 11
-0.0004670176315893315
 21
-5.999999981824544
 31
0.0
 40
0.00599339297963732
 41
-6.283185307179588
 42
-5.22300147311212
  0
LINE
  5
1E8
330
17
100
AcDbEntity
  8
visible
100
AcDbLine
 10
30.047412229559775
 20
39.09826022928793
 30
0.0
 11
30.036600150505592
 21
39.07483645430889
 31
0.0
  0
LINE
  5
1E9
330
17
100
AcDbEntity
  8
visible
100
AcDbLine
 10
29.54742121134487
 20
17.600111974208858
 30
0.0
 11
29.53690546798752
 21
17.57733019422875
 31
0.0
  0
LINE
  5
1EA
330
17
100
AcDbEntity
  8
visible
100
AcDbLine
 10
29.54742121134487
 20
39.074874530173936
 30
0.0
 11
30.036600150505592
 21
39.07483645430889
 31
0.0
  0
LINE
  5
1EB
330
17
100
AcDbEntity
  8
visible
100
AcDbLine
 10
23.975593230534788
 20
30.443618521427894
 30
0.0
 11
24.475584248749698
 21
30.44357960399092
 31
0.0
  0
LINE
  5
1EC
330
17
100
AcDbEntity
  8
visible
100
AcDbLine
 10
24.03553221423986
 20
30.57347303504588
 30
0.0
 11
24.53552323245477
 21
30.573434117608905
 31
0.0
  0
LINE
  5
1ED
330
17
100
AcDbEntity
  8
visible
100
AcDbLine
 10
24.03553221423986
 20
30.57347303504588
 30
0.0
 11
23.97559323053479
 21
30.4436185214279
 31
0.0
  0
LINE
  5
1EE
330
17
100
AcDbEntity
  8
visible
100
AcDbLine
 10
23.975593230534788
 20
30.443618521427894
 30
0.0
 11
23.975593230534788
 21
37.44302829852614
 31
0.0
  0
LINE
  5
1EF
330
17
100
AcDbEntity
  8
visible
100
AcDbLine
 10
24.03553221423986
 20
37.572882812144115
 30
0.0
 11
24.53552323245477
 21
37.57284389470714
 31
0.0
  0
LINE
  5
1F0
330
17
100
AcDbEntity
  8
visible
100
AcDbLine
 10
24.03553221423986
 20
37.572882812144115
 30
0.0
 11
23.97559323053479
 21
37.44302829852614
 31
0.0
  0
LINE
  5
1F1
330
17
100
AcDbEntity
  8
visible
100
AcDbLine
 10
24.03553221423986
 20
30.57347303504588
 30
0.0
 11
24.03553221423986
 21
37.57288281214412
 31
0.0
  0
ELLIPSE
  5
1F2
330
17
100
AcDbEntity
  8
visible
100
AcDbEllipse
 10
25.00554475881714
 20
42.007498291452904
 30
0.0
 11
-0.0004670176315879982
 21
-5.999999981824544
 31
0.0
 40
0.005993392979637324
 41
-4.171255243234339
 42
-3.8513406185323302
  0
LINE
  5
1F3
330
17
100
AcDbEntity
  8
visible
100
AcDbLine
 10
25.029332305525376
 20
46.55865327489249
 30
0.0
 11
28.029278414814826
 21
46.558419770270646
 31
0.0
  0
LINE
  5
1F4
330
17
100
AcDbEntity
  8
visible
100
AcDbLine
 10
28.035460359959124
 20
46.77825836079169
 30
0.0
 11
29.427643143079212
 21
46.77814999847367
 31
0.0
  0
ELLIPSE
  5
1F5
330
17
100
AcDbEntity
  8
visible
100
AcDbEllipse
 10
29.405465719108335
 20
42.00715581800753
 30
0.0
 11
-0.0004670176315879982
 21
-5.999999981824544
 31
0.0
 40
0.005993392979637324
 41
-3.1415926535897936
 42
-2.4900775779578135
  0
ELLIPSE
  5
1F6
330
17
100
AcDbEntity
  8
visible
100
AcDbEllipse
 10
29.405465719108335
 20
42.00715581800753
 30
0.0
 11
-0.0004670176315879982
 21
-5.999999981824544
 31
0.0
 40
0.005993392979637324
 41
-3.793107729221756
 42
-3.1415926535897936
  0
ELLIPSE
  5
1F7
330
17
100
AcDbEntity
  8
visible
100
AcDbEllipse
 10
25.00554475881714
 20
42.007498291452904
 30
0.0
 11
-0.0004670176315879982
 21
-5.999999981824544
 31
0.0
 40
0.005993392979637324
 41
-2.4058721229054982
 42
-2.1119300639452474
  0
LINE
  5
1F8
330
17
100
AcDbEntity
  8
visible
100
AcDbLine
 10
24.981757212108903
 20
46.45558444999677
 30
0.0
 11
25.029332305525376
 21
46.5586532748925
 31
0.0
  0
ELLIPSE
  5
1F9
330
17
100
AcDbEntity
  8
visible
100
AcDbEllipse
 10
24.005562722387324
 20
34.008250666786
 30
0.0
 11
-8.561989912446635e-05
 21
-1.099999996667833
 31
0.0
 40
0.005993392979637324
 41
-6.283185307179586
 42
-6.270199024308707
  0
ELLIPSE
  5
1FA
330
17
100
AcDbEntity
  8
visible
100
AcDbEllipse
 10
24.005562722387324
 20
34.008250666786
 30
0.0
 11
-8.561989912446635e-05
 21
-1.099999996667833
 31
0.0
 40
0.005993392979637324
 41
-3.1415926535897936
 42
-0.0
  0
ELLIPSE
  5
1FB
330
17
100
AcDbEntity
  8
visible
100
AcDbEllipse
 10
24.005562722387324
 20
34.008250666786
 30
0.0
 11
-8.561989912446635e-05
 21
-1.099999996667833
 31
0.0
 40
0.005993392979637324
 41
-6.270199024308707
 42
-3.1415926535897936
  0
LINE
  5
1FC
330
17
100
AcDbEntity
  8
visible
100
AcDbLine
 10
23.975593230534788
 20
46.44226944050959
 30
0.0
 11
24.981667793893056
 21
46.44219113141606
 31
0.0
  0
LINE
  5
1FD
330
17
100
AcDbEntity
  8
visible
100
AcDbLine
 10
28.035460359959124
 20
46.57181261463177
 30
0.0
 11
28.029278414814826
 21
46.55841977027064
 31
0.0
  0
LINE
  5
1FE
330
17
100
AcDbEntity
  8
visible
100
AcDbLine
 10
24.03553221423986
 20
46.572123954127576
 30
0.0
 11
28.03546035995913
 21
46.571812614631774
 31
0.0
  0
LINE
  5
1FF
330
17
100
AcDbEntity
  8
visible
100
AcDbLine
 10
24.03553221423986
 20
46.572123954127576
 30
0.0
 11
23.97559323053479
 21
46.4422694405096
 31
0.0
  0
LINE
  5
200
330
17
100
AcDbEntity
  8
visible
100
AcDbLine
 10
28.035460359959124
 20
46.57181261463177
 30
0.0
 11
28.035460359959124
 21
53.57122239173001
 31
0.0
  0
LINE
  5
201
330
17
100
AcDbEntity
  8
visible
100
AcDbLine
 10
24.03553221423986
 20
53.57153373122583
 30
0.0
 11
28.03546035995913
 21
53.571222391730025
 31
0.0
  0
LINE
  5
202
330
17
100
AcDbEntity
  8
visible
100
AcDbLine
 10
24.03553221423986
 20
53.57153373122583
 30
0.0
 11
23.97559323053479
 21
53.44167921760785
 31
0.0
  0
ELLIPSE
  5
203
330
17
100
AcDbEntity
  8
visible
100
AcDbEllipse
 10
24.005562722387324
 20
50.006901585867695
 30
0.0
 11
-8.561989912446635e-05
 21
-1.099999996667833
 31
0.0
 40
0.005993392979637324
 41
-6.283185307179586
 42
-6.270199024308707
  0
ELLIPSE
  5
204
330
17
100
AcDbEntity
  8
visible
100
AcDbEllipse
 10
24.005562722387324
 20
50.006901585867695
 30
0.0
 11
-8.561989912446635e-05
 21
-1.099999996667833
 31
0.0
 40
0.005993392979637324
 41
-3.1415926535897936
 42
-0.0
  0
ELLIPSE
  5
205
330
17
100
AcDbEntity
  8
visible
100
AcDbEllipse
 10
24.005562722387324
 20
50.006901585867695
 30
0.0
 11
-8.561989912446635e-05
 21
-1.099999996667833
 31
0.0
 40
0.005993392979637324
 41
-6.270199024308707
 42
-3.1415926535897936
  0
LINE
  5
206
330
17
100
AcDbEntity
  8
visible
100
AcDbLine
 10
23.975593230534788
 20
46.44226944050959
 30
0.0
 11
23.975593230534788
 21
53.441679217607835
 31
0.0
  0
LINE
  5
207
330
17
100
AcDbEntity
  8
visible
100
AcDbLine
 10
24.03553221423986
 20
46.572123954127576
 30
0.0
 11
24.03553221423986
 21
53.57153373122582
 31
0.0
  0
ELLIPSE
  5
208
330
17
100
AcDbEntity
  8
visible
100
AcDbEllipse
 10
31.005436977396045
 20
42.00703128220921
 30
0.0
 11
0.00038918135965888546
 21
4.999999984853787
 31
0.0
 40
0.0059933929796373185
 41
0.012986282870879454
 42
1.0701416143903137
  0
ELLIPSE
  5
209
330
17
100
AcDbEntity
  8
visible
100
AcDbEllipse
 10
31.005436977396045
 20
42.00703128220921
 30
0.0
 11
0.00038918135965888546
 21
4.999999984853787
 31
0.0
 40
0.0059933929796373185
 41
2.071451039199486
 42
3.141592653589793
  0
ELLIPSE
  5
20A
330
17
100
AcDbEntity
  8
visible
100
AcDbEllipse
 10
31.005436977396045
 20
42.00703128220921
 30
0.0
 11
0.00038918135965888546
 21
4.999999984853787
 31
0.0
 40
0.0059933929796373185
 41
3.141592653589793
 42
6.283185307179586
  0
ELLIPSE
  5
20B
330
17
100
AcDbEntity
  8
visible
100
AcDbEllipse
 10
31.005436977396045
 20
42.00703128220921
 30
0.0
 11
0.00038918135965888546
 21
4.999999984853787
 31
0.0
 40
0.0059933929796373185
 41
0.0
 42
0.012986282870879329
  0
ELLIPSE
  5
20C
330
17
100
AcDbEntity
  8
visible
100
AcDbEllipse
 10
31.005436977396045
 20
42.00703128220921
 30
0.0
 11
0.00018680705263626502
 21
2.3999999927298177
 31
0.0
 40
0.0059933929796373185
 41
3.141592653589793
 42
6.283185307179586
  0
ELLIPSE
  5
20D
330
17
100
AcDbEntity
  8
visible
100
AcDbEllipse
 10
31.005436977396045
 20
42.00703128220921
 30
0.0
 11
0.00018680705263626502
 21
2.3999999927298177
 31
0.0
 40
0.0059933929796373185
 41
0.0
 42
0.012986282870879329
  0
ELLIPSE
  5
20E
330
17
100
AcDbEntity
  8
visible
100
AcDbEllipse
 10
-5.829066165318242
 20
40.36717972010959
 30
0.0
 11
-10.441345332213373
 21
4.819575464028549
 31
0.0
 40
0.9998977203870677
 41
-6.283185307179586
 42
-3.141592653589793
  0
ELLIPSE
  5
20F
330
17
100
AcDbEntity
  8
visible
100
AcDbEllipse
 10
-5.817078368577227
 20
40.39315062283319
 30
0.0
 11
-10.441345332213373
 21
4.819575464028549
 31
0.0
 40
0.9998977203870677
 41
-3.141592653589793
 42
-2.7091848733851025
  0
ELLIPSE
  5
210
330
17
100
AcDbEntity
  8
visible
100
AcDbEllipse
 10
-5.817078368577227
 20
40.39315062283319
 30
0.0
 11
-10.441345332213373
 21
4.819575464028549
 31
0.0
 40
0.9998977203870677
 41
-6.283185307179586
 42
-3.141592653589793
  0
ELLIPSE
  5
211
330
17
100
AcDbEntity
  8
visible
100
AcDbEllipse
 10
-5.817078368577227
 20
40.39315062283319
 30
0.0
 11
-10.441345332213373
 21
4.819575464028549
 31
0.0
 40
0.9998977203870677
 41
-2.7091848733851016
 42
-0.0
  0
LINE
  5
212
330
17
100
AcDbEntity
  8
visible
100
AcDbLine
 10
-60.20870867905557
 20
-34.24697072243562
 30
0.0
 11
-60.20870867905557
 21
-28.4474597642685
 31
0.0
  0
LINE
  5
213
330
17
100
AcDbEntity
  8
visible
100
AcDbLine
 10
-59.77714799637905
 20
-33.312018224386165
 30
0.0
 11
-59.77714799637905
 21
-27.512507266219046
 31
0.0
  0
LINE
  5
214
330
17
100
AcDbEntity
  8
visible
100
AcDbLine
 10
-51.72934051797646
 20
-33.208757292483384
 30
0.0
 11
-51.72934051797646
 21
-27.409246334316265
 31
0.0
  0
LINE
  5
215
330
17
100
AcDbEntity
  8
visible
100
AcDbLine
 10
40.26900683356671
 20
-33.21591810088678
 30
0.0
 11
40.26900683356671
 21
-27.416407142719663
 31
0.0
  0
LINE
  5
216
330
17
100
AcDbEntity
  8
visible
100
AcDbLine
 10
48.22091193804119
 20
-33.31917903278956
 30
0.0
 11
48.22091193804119
 21
-27.520913432605653
 31
0.0
  0
LINE
  5
217
330
17
100
AcDbEntity
  8
visible
100
AcDbLine
 10
-59.17715877452116
 20
-34.47306245644549
 30
0.0
 11
-59.17715877452116
 21
-33.31206492531054
 31
0.0
  0
LINE
  5
218
330
17
100
AcDbEntity
  8
visible
100
AcDbLine
 10
-51.73293685699876
 20
-34.408655841986445
 30
0.0
 11
-51.73293685699876
 21
-33.216548563300464
 31
0.0
  0
LINE
  5
219
330
17
100
AcDbEntity
  8
visible
100
AcDbLine
 10
-59.60871945719768
 20
-34.49132594859368
 30
0.0
 11
-59.60871945719768
 21
-34.24701742335999
 31
0.0
  0
LINE
  5
21A
330
17
100
AcDbEntity
  8
visible
100
AcDbLine
 10
40.26541049454441
 20
-34.41581663989229
 30
0.0
 11
40.26541049454441
 21
-33.22370937170386
 31
0.0
  0
LINE
  5
21B
330
17
100
AcDbEntity
  8
visible
100
AcDbLine
 10
47.6209227161833
 20
-34.48022326484889
 30
0.0
 11
47.6209227161833
 21
-33.3203776898484
 31
0.0
  0
LINE
  5
21C
330
17
100
AcDbEntity
  8
visible
100
AcDbLine
 10
48.22091193804119
 20
-67.5162953723267
 30
0.0
 11
48.22091193804119
 21
-34.520323209703896
 31
0.0
  0
LINE
  5
21D
330
17
100
AcDbEntity
  8
visible
100
AcDbLine
 10
-51.72934051797646
 20
-67.40587363202052
 30
0.0
 11
-51.72934051797646
 21
-53.90701191904533
 31
0.0
  0
LINE
  5
21E
330
17
100
AcDbEntity
  8
visible
100
AcDbLine
 10
40.26900683356671
 20
-67.41303444042391
 30
0.0
 11
40.26900683356671
 21
-34.41581691981791
 31
0.0
  0
LINE
  5
21F
330
17
100
AcDbEntity
  8
visible
100
AcDbLine
 10
-51.72934051797646
 20
-41.908023729734055
 30
0.0
 11
-51.72934051797646
 21
-34.40865611141451
 31
0.0
  0
LINE
  5
220
330
17
100
AcDbEntity
  8
visible
100
AcDbLine
 10
-60.20870867905557
 20
-68.44408706197275
 30
0.0
 11
-60.20870867905557
 21
-35.446869541366745
 31
0.0
  0
LINE
  5
221
330
17
100
AcDbEntity
  8
visible
100
AcDbLine
 10
-59.77714799637905
 20
-67.5091345639233
 30
0.0
 11
-59.77714799637905
 21
-34.51191704331729
 31
0.0
  0
LINE
  5
222
330
17
100
AcDbEntity
  8
visible
100
AcDbLine
 10
-12.328615365133995
 20
-41.89300536183951
 30
0.0
 11
-12.325019026111692
 21
-41.88521409102243
 31
0.0
  0
LINE
  5
223
330
17
100
AcDbEntity
  8
visible
100
AcDbLine
 10
-13.19163697128131
 20
-41.77161052774444
 30
0.0
 11
-13.188040632259007
 21
-41.76381925692736
 31
0.0
  0
LINE
  5
224
330
17
100
AcDbEntity
  8
visible
100
AcDbLine
 10
-15.016799496757216
 20
-42.48063717910629
 30
0.0
 11
-15.013203157734912
 21
-42.47284590828921
 31
0.0
  0
LINE
  5
225
330
17
100
AcDbEntity
  8
visible
100
AcDbLine
 10
-14.955277164437804
 20
-44.42017568286477
 30
0.0
 11
-14.951680825415501
 21
-44.41238441204769
 31
0.0
  0
LINE
  5
226
330
17
100
AcDbEntity
  8
visible
100
AcDbLine
 10
-14.49044176469113
 20
-45.96329463460299
 30
0.0
 11
-14.486845425668827
 21
-45.95550336378591
 31
0.0
  0
LINE
  5
227
330
17
100
AcDbEntity
  8
visible
100
AcDbLine
 10
-13.150622083068368
 20
-46.498265928064896
 30
0.0
 11
-13.147025744046065
 21
-46.490474657247816
 31
0.0
  0
LINE
  5
228
330
17
100
AcDbEntity
  8
visible
100
AcDbLine
 10
-12.311525828378603
 20
-46.33770025409383
 30
0.0
 11
-12.3079294893563
 21
-46.32990898327675
 31
0.0
  0
LINE
  5
229
330
17
100
AcDbEntity
  8
visible
100
AcDbLine
 10
-59.77714799637905
 20
-27.512507266219046
 30
0.0
 11
-59.77714799637905
 21
-23.512844536448622
 31
0.0
  0
LINE
  5
22A
330
17
100
AcDbEntity
  8
visible
100
AcDbLine
 10
-60.20870867905557
 20
-28.4474597642685
 30
0.0
 11
-60.20870867905557
 21
-24.447797034498077
 31
0.0
  0
LINE
  5
22B
330
17
100
AcDbEntity
  8
visible
100
AcDbLine
 10
-51.72934051797646
 20
-27.409246334316265
 30
0.0
 11
-51.72934051797646
 21
-23.40958360454584
 31
0.0
  0
LINE
  5
22C
330
17
100
AcDbEntity
  8
visible
100
AcDbLine
 10
40.26900683356671
 20
-27.416407142719663
 30
0.0
 11
40.26900683356671
 21
-23.41674441294924
 31
0.0
  0
LINE
  5
22D
330
17
100
AcDbEntity
  8
visible
100
AcDbLine
 10
48.22091193804119
 20
-27.519668074622444
 30
0.0
 11
48.22091193804119
 21
-23.52125070283523
 31
0.0
  0
LINE
  5
22E
330
17
100
AcDbEntity
  8
visible
100
AcDbLine
 10
35.07129800519089
 20
67.67338164578864
 30
0.0
 11
35.07129800519089
 21
68.14736765120094
 31
0.0
  0
LINE
  5
22F
330
17
100
AcDbEntity
  8
visible
100
AcDbLine
 10
34.93943224103973
 20
67.67339190972814
 30
0.0
 11
34.93943224103973
 21
67.8616877212414
 31
0.0
  0
LINE
  5
230
330
17
100
AcDbEntity
  8
visible
100
AcDbLine
 10
37.08324987479154
 20
15.177651714718507
 30
0.0
 11
37.08324987479154
 21
68.17318288417664
 31
0.0
  0
LINE
  5
231
330
17
100
AcDbEntity
  8
visible
100
AcDbLine
 10
58.0828726398177
 20
15.17601718236557
 30
0.0
 11
58.0828726398177
 21
68.1715483518237
 31
0.0
  0
LINE
  5
232
330
17
100
AcDbEntity
  8
visible
100
AcDbLine
 10
60.07084891593633
 20
15.150201949389853
 30
0.0
 11
60.07084891593633
 21
68.1454217793522
 31
0.0
  0
LINE
  5
233
330
17
100
AcDbEntity
  8
visible
100
AcDbLine
 10
-37.334494211227984
 20
5.359597181786
 30
0.0
 11
-37.334494211227984
 21
10.359175593999032
 31
0.0
  0
LINE
  5
234
330
17
100
AcDbEntity
  8
visible
100
AcDbLine
 10
-37.65217082486487
 20
4.671368259610702
 30
0.0
 11
-37.65217082486487
 21
9.670946671823733
 31
0.0
  0
LINE
  5
235
330
17
100
AcDbEntity
  8
visible
100
AcDbLine
 10
-34.316566406827015
 20
5.39832003124954
 30
0.0
 11
-34.316566406827015
 21
10.397898443462571
 31
0.0
  0
LINE
  5
236
330
17
100
AcDbEntity
  8
visible
100
AcDbLine
 10
25.66437408385049
 20
5.355160593970837
 30
0.0
 11
25.66437408385049
 21
10.354271996940176
 31
0.0
  0
LINE
  5
237
330
17
100
AcDbEntity
  8
visible
100
AcDbLine
 10
17.652529995670935
 20
10.393853362730686
 30
0.0
 11
17.652529995670935
 21
15.328502185421206
 31
0.0
  0
LINE
  5
238
330
17
100
AcDbEntity
  8
visible
100
AcDbLine
 10
-29.640326736685314
 20
10.397534462398877
 30
0.0
 11
-29.640326736685314
 21
14.695873307768755
 31
0.0
  0
LINE
  5
239
330
17
100
AcDbEntity
  8
visible
100
AcDbLine
 10
-29.346625716530465
 20
10.397511601806336
 30
0.0
 11
-29.346625716530465
 21
15.332160424496854
 31
0.0
  0
LINE
  5
23A
330
17
100
AcDbEntity
  8
visible
100
AcDbLine
 10
-27.334673846929814
 20
10.397354998973027
 30
0.0
 11
-27.334673846929814
 21
15.357975657472556
 31
0.0
  0
LINE
  5
23B
330
17
100
AcDbEntity
  8
visible
100
AcDbLine
 10
15.66455371955232
 20
10.394008099393176
 30
0.0
 11
15.66455371955232
 21
15.354628757892703
 31
0.0
  0
LINE
  5
23C
330
17
100
AcDbEntity
  8
visible
100
AcDbLine
 10
22.68240966967256
 20
5.39388344343439
 30
0.0
 11
22.68240966967256
 21
10.393461855647422
 31
0.0
  0
LINE
  5
23D
330
17
100
AcDbEntity
  8
visible
100
AcDbLine
 10
-33.35254776062024
 20
19.319149042401296
 30
0.0
 11
-33.35254776062024
 21
61.315607704990754
 31
0.0
  0
LINE
  5
23E
330
17
100
AcDbEntity
  8
visible
100
AcDbLine
 10
-33.35254776062024
 20
19.319149042401285
 30
0.0
 11
-33.63426098403408
 21
18.70883282839678
 31
0.0
  0
LINE
  5
23F
330
17
100
AcDbEntity
  8
visible
100
AcDbLine
 10
-33.35254776062024
 20
61.315607704990775
 30
0.0
 11
-33.63426098403408
 21
60.70529149098627
 31
0.0
  0
LINE
  5
240
330
17
100
AcDbEntity
  8
visible
100
AcDbLine
 10
-33.63426098403408
 20
18.708832828396783
 30
0.0
 11
-33.63426098403408
 21
60.70529149098624
 31
0.0
  0
ELLIPSE
  5
241
330
17
100
AcDbEntity
  8
visible
100
AcDbEllipse
 10
-29.35261961490097
 20
19.318837702905483
 30
0.0
 11
4.0
 21
-5.421467987365707e-20
 31
0.0
 40
0.012985684631055228
 41
-4.718382914646059
 42
-3.147586587851163
  0
ELLIPSE
  5
242
330
17
100
AcDbEntity
  8
visible
100
AcDbEllipse
 10
-29.35261961490097
 20
61.31529636549497
 30
0.0
 11
4.0
 21
-5.421467987365707e-20
 31
0.0
 40
0.012985684631055228
 41
-4.718382914646059
 42
-3.147586587851163
  0
LINE
  5
243
330
17
100
AcDbEntity
  8
visible
100
AcDbLine
 10
-29.328644021418942
 20
19.370779508352687
 30
0.0
 11
-29.328644021418942
 21
61.367238170942144
 31
0.0
  0
ELLIPSE
  5
244
330
17
100
AcDbEntity
  8
visible
100
AcDbEllipse
 10
-29.35261961490097
 20
19.318837702905483
 30
0.0
 11
-3.631772289465532
 21
1.6763740744446893
 31
0.0
 40
0.9998977203870675
 41
-5.850777526974903
 42
-4.279981200180006
  0
LINE
  5
245
330
17
100
AcDbEntity
  8
visible
100
AcDbLine
 10
-29.35261961490097
 20
15.31917497313507
 30
0.0
 11
-29.63433283831481
 21
14.708858759130566
 31
0.0
  0
ELLIPSE
  5
246
330
17
100
AcDbEntity
  8
visible
100
AcDbEllipse
 10
-29.63433283831481
 20
18.708521488900985
 30
0.0
 11
-3.631772289465532
 21
1.6763740744446893
 31
0.0
 40
0.9998977203870675
 41
-5.850777526974903
 42
-4.279981200180006
  0
ELLIPSE
  5
247
330
17
100
AcDbEntity
  8
visible
100
AcDbEllipse
 10
-29.35261961490097
 20
61.31529636549497
 30
0.0
 11
3.631772289465532
 21
-1.6763740744446893
 31
0.0
 40
0.9998977203870675
 41
2.0032041069995805
 42
3.1415926535897936
  0
ELLIPSE
  5
248
330
17
100
AcDbEntity
  8
visible
100
AcDbEllipse
 10
-29.35261961490097
 20
61.31529636549497
 30
0.0
 11
3.631772289465532
 21
-1.6763740744446893
 31
0.0
 40
0.9998977203870675
 41
3.1415926535897936
 42
3.574000433794477
  0
ELLIPSE
  5
249
330
17
100
AcDbEntity
  8
visible
100
AcDbEllipse
 10
-29.63433283831481
 20
60.70498015149046
 30
0.0
 11
-3.631772289465532
 21
1.6763740744446893
 31
0.0
 40
0.9998977203870675
 41
-6.283185307179586
 42
-5.850777526974903
  0
ELLIPSE
  5
24A
330
17
100
AcDbEntity
  8
visible
100
AcDbEllipse
 10
-29.63433283831481
 20
18.708521488900985
 30
0.0
 11
-4.0
 21
5.421467987365707e-20
 31
0.0
 40
0.012985684631055228
 41
6.2771913729182165
 42
6.283185307179586
  0
ELLIPSE
  5
24B
330
17
100
AcDbEntity
  8
visible
100
AcDbEllipse
 10
-29.63433283831481
 20
18.708521488900985
 30
0.0
 11
-4.0
 21
5.421467987365707e-20
 31
0.0
 40
0.012985684631055228
 41
0.0
 42
0.005995956385224843
  0
ELLIPSE
  5
24C
330
17
100
AcDbEntity
  8
visible
100
AcDbEllipse
 10
-29.63433283831481
 20
60.70498015149046
 30
0.0
 11
4.0
 21
-5.421467987365707e-20
 31
0.0
 40
0.012985684631055228
 41
-3.141592653589793
 42
-3.1355987193284998
  0
ELLIPSE
  5
24D
330
17
100
AcDbEntity
  8
visible
100
AcDbEllipse
 10
-29.63433283831481
 20
60.70498015149046
 30
0.0
 11
4.0
 21
-5.421467987365707e-20
 31
0.0
 40
0.012985684631055228
 41
-3.147586587851163
 42
-3.141592653589793
  0
ELLIPSE
  5
24E
330
17
100
AcDbEntity
  8
visible
100
AcDbEllipse
 10
-29.35261961490097
 20
19.318837702905483
 30
0.0
 11
0.000311345087726217
 21
3.9999999878830295
 31
0.0
 40
0.0059933929796372595
 41
3.1545789364606724
 42
4.725375263255569
  0
ELLIPSE
  5
24F
330
17
100
AcDbEntity
  8
visible
100
AcDbEllipse
 10
-29.35261961490097
 20
61.31529636549497
 30
0.0
 11
-0.000311345087726217
 21
-3.9999999878830295
 31
0.0
 40
0.0059933929796372595
 41
-3.141592653589793
 42
-3.128606370718914
  0
ELLIPSE
  5
250
330
17
100
AcDbEntity
  8
visible
100
AcDbEllipse
 10
-29.35261961490097
 20
61.31529636549497
 30
0.0
 11
-0.000311345087726217
 21
-3.9999999878830295
 31
0.0
 40
0.0059933929796372595
 41
-4.69940269751381
 42
-3.141592653589793
  0
LINE
  5
251
330
17
100
AcDbEntity
  8
visible
100
AcDbLine
 10
-29.328644021418945
 20
19.37077950835268
 30
0.0
 11
17.67051169078246
 21
19.36712126927703
 31
0.0
  0
LINE
  5
252
330
17
100
AcDbEntity
  8
visible
100
AcDbLine
 10
-29.328644021418945
 20
61.367238170942166
 30
0.0
 11
17.67051169078246
 21
61.36357993186652
 31
0.0
  0
LINE
  5
253
330
17
100
AcDbEntity
  8
visible
100
AcDbLine
 10
17.670511690782458
 20
19.36712126927704
 30
0.0
 11
17.670511690782458
 21
61.3635799318665
 31
0.0
  0
ELLIPSE
  5
254
330
17
100
AcDbEntity
  8
visible
100
AcDbEllipse
 10
-29.63433283831481
 20
18.708521488900985
 30
0.0
 11
-0.0003113450877262234
 21
-3.9999999878830295
 31
0.0
 40
0.005993392979637383
 41
-6.283185307179586
 42
-6.270199024308707
  0
ELLIPSE
  5
255
330
17
100
AcDbEntity
  8
visible
100
AcDbEllipse
 10
-29.63433283831481
 20
18.708521488900985
 30
0.0
 11
-0.0003113450877262234
 21
-3.9999999878830295
 31
0.0
 40
0.005993392979637383
 41
-0.012987215787102713
 42
-0.0
  0
LINE
  5
256
330
17
100
AcDbEntity
  8
visible
100
AcDbLine
 10
-29.351996977231117
 20
65.31495904680159
 30
0.0
 11
17.646536097300434
 21
65.31130085618973
 31
0.0
  0
ELLIPSE
  5
257
330
17
100
AcDbEntity
  8
visible
100
AcDbEllipse
 10
17.64653609730043
 20
19.315179463829836
 30
0.0
 11
0.0003113450877262234
 21
3.9999999878830295
 31
0.0
 40
0.005993392979637383
 41
3.2287165759221947
 42
4.725375263255569
  0
ELLIPSE
  5
258
330
17
100
AcDbEntity
  8
visible
100
AcDbEllipse
 10
17.64653609730043
 20
61.31163812641931
 30
0.0
 11
-0.0003113450877262234
 21
-3.9999999878830295
 31
0.0
 40
0.005993392979637383
 41
-3.141592653589793
 42
-3.128606370718914
  0
ELLIPSE
  5
259
330
17
100
AcDbEntity
  8
visible
100
AcDbEllipse
 10
17.64653609730043
 20
61.31163812641931
 30
0.0
 11
-0.0003113450877262234
 21
-3.9999999878830295
 31
0.0
 40
0.005993392979637383
 41
-4.69940269751381
 42
-3.141592653589793
  0
LINE
  5
25A
330
17
100
AcDbEntity
  8
visible
100
AcDbLine
 10
21.6464642430197
 20
19.31549080332563
 30
0.0
 11
21.6464642430197
 21
61.3113267869235
 31
0.0
  0
ELLIPSE
  5
25B
330
17
100
AcDbEntity
  8
visible
100
AcDbEllipse
 10
17.64653609730043
 20
19.315179463829836
 30
0.0
 11
-4.0
 21
5.421467987365707e-20
 31
0.0
 40
0.012985684631055228
 41
3.1355987193284234
 42
3.141592653589793
  0
ELLIPSE
  5
25C
330
17
100
AcDbEntity
  8
visible
100
AcDbEllipse
 10
17.64653609730043
 20
19.315179463829836
 30
0.0
 11
-4.0
 21
5.421467987365707e-20
 31
0.0
 40
0.012985684631055228
 41
3.141592653589793
 42
4.70639504612332
  0
ELLIPSE
  5
25D
330
17
100
AcDbEntity
  8
visible
100
AcDbEllipse
 10
17.64653609730043
 20
61.31163812641931
 30
0.0
 11
-4.0
 21
5.421467987365707e-20
 31
0.0
 40
0.012985684631055228
 41
3.1355987193284234
 42
3.141592653589793
  0
ELLIPSE
  5
25E
330
17
100
AcDbEntity
  8
visible
100
AcDbEllipse
 10
17.64653609730043
 20
61.31163812641931
 30
0.0
 11
-4.0
 21
5.421467987365707e-20
 31
0.0
 40
0.012985684631055228
 41
3.141592653589793
 42
4.70639504612332
  0
ELLIPSE
  5
25F
330
17
100
AcDbEntity
  8
visible
100
AcDbEllipse
 10
17.64653609730043
 20
19.315179463829836
 30
0.0
 11
3.631772289465532
 21
-1.6763740744446893
 31
0.0
 40
0.9998977203870675
 41
5.146304244617842
 42
6.283185307179586
  0
ELLIPSE
  5
260
330
17
100
AcDbEntity
  8
visible
100
AcDbEllipse
 10
17.64653609730043
 20
19.315179463829836
 30
0.0
 11
3.631772289465532
 21
-1.6763740744446893
 31
0.0
 40
0.9998977203870675
 41
0.0
 42
0.4324077802046835
  0
ELLIPSE
  5
261
330
17
100
AcDbEntity
  8
visible
100
AcDbEllipse
 10
17.36482287388659
 20
18.704863249825337
 30
0.0
 11
3.631772289465532
 21
-1.6763740744446893
 31
0.0
 40
0.9998977203870675
 41
5.216796004986903
 42
6.283185307179586
  0
ELLIPSE
  5
262
330
17
100
AcDbEntity
  8
visible
100
AcDbEllipse
 10
17.64653609730043
 20
61.31163812641931
 30
0.0
 11
-3.631772289465532
 21
1.6763740744446893
 31
0.0
 40
0.9998977203870675
 41
-2.7090291642503193
 42
-1.1385442143945763
  0
LINE
  5
263
330
17
100
AcDbEntity
  8
visible
100
AcDbLine
 10
-60.20885238761703
 20
-34.247593401427224
 30
0.0
 11
-60.20885238761703
 21
-28.448082443260105
 31
0.0
  0
LINE
  5
264
330
17
100
AcDbEntity
  8
visible
100
AcDbLine
 10
48.22105564660265
 20
-33.31980171178117
 30
0.0
 11
48.22105564660265
 21
-27.52029075361405
 31
0.0
  0
LINE
  5
265
330
17
100
AcDbEntity
  8
visible
100
AcDbLine
 10
-59.608852387617034
 20
-34.491334225451766
 30
0.0
 11
-59.608852387617034
 21
-34.247593401427224
 31
0.0
  0
LINE
  5
266
330
17
100
AcDbEntity
  8
visible
100
AcDbLine
 10
47.621055646602656
 20
-34.480227466867234
 30
0.0
 11
47.621055646602656
 21
-33.31980171178117
 31
0.0
  0
LINE
  5
267
330
17
100
AcDbEntity
  8
visible
100
AcDbLine
 10
-60.20885238761703
 20
-68.44470974096436
 30
0.0
 11
-60.20885238761703
 21
-35.44749222035835
 31
0.0
  0
LINE
  5
268
330
17
100
AcDbEntity
  8
visible
100
AcDbLine
 10
48.22105564660265
 20
-67.5169180513183
 30
0.0
 11
48.22105564660265
 21
-34.51970053071229
 31
0.0
  0
SPLINE
  5
269
330
17
100
AcDbEntity
  8
visible
100
AcDbSpline
 70
0
 71
1
 72
4
 73
2
 74
0
 40
0.0
 40
0.0
 40
1.0
 40
1.0
 10
-14.739219503867652
 20
-43.26240151143534
 30
0.0
 10
-14.73562316484535
 20
-43.25461024061826
 30
0.0
  0
LINE
  5
26A
330
17
100
AcDbEntity
  8
visible
100
AcDbLine
 10
-60.20885238761703
 20
-28.448082443260105
 30
0.0
 11
-60.20885238761703
 21
-24.44841971348968
 31
0.0
  0
LINE
  5
26B
330
17
100
AcDbEntity
  8
visible
100
AcDbLine
 10
48.22105564660265
 20
-27.52029075361405
 30
0.0
 11
48.22105564660265
 21
-23.520628023843624
 31
0.0
  0
LINE
  5
26C
330
17
100
AcDbEntity
  8
visible
100
AcDbLine
 10
16.506101629492807
 20
-23.414894796992296
 30
0.0
 11
16.506101629492807
 21
-16.48515625034711
 31
0.0
  0
LINE
  5
26D
330
17
100
AcDbEntity
  8
visible
100
AcDbLine
 10
-28.493898370507186
 20
-23.411392164744765
 30
0.0
 11
-28.493898370507186
 21
-16.48515625034711
 31
0.0
  0
LINE
  5
26E
330
17
100
AcDbEntity
  8
visible
100
AcDbLine
 10
16.506101629492807
 20
-16.285173113858583
 30
0.0
 11
16.506101629492807
 21
-14.285341748973371
 31
0.0
  0
LINE
  5
26F
330
17
100
AcDbEntity
  8
visible
100
AcDbLine
 10
-28.493898370507186
 20
-16.285173113858583
 30
0.0
 11
-28.493898370507186
 21
-14.285341748973371
 31
0.0
  0
LINE
  5
270
330
17
100
AcDbEntity
  8
visible
100
AcDbLine
 10
-39.99389837050719
 20
-13.485409203019287
 30
0.0
 11
-39.99389837050719
 21
-7.48591510836365
 31
0.0
  0
LINE
  5
271
330
17
100
AcDbEntity
  8
visible
100
AcDbLine
 10
9.506101629492813
 20
-16.273366143355062
 30
0.0
 11
9.506101629492813
 21
-16.179676913205398
 31
0.0
  0
LINE
  5
272
330
17
100
AcDbEntity
  8
visible
100
AcDbLine
 10
9.506101629492813
 20
-14.073551641981325
 30
0.0
 11
9.506101629492813
 21
-13.48540920301929
 31
0.0
  0
LINE
  5
273
330
17
100
AcDbEntity
  8
visible
100
AcDbLine
 10
-21.49389837050719
 20
-16.27336614335507
 30
0.0
 11
-21.49389837050719
 21
-16.179676913205398
 31
0.0
  0
LINE
  5
274
330
17
100
AcDbEntity
  8
visible
100
AcDbLine
 10
-21.49389837050719
 20
-14.073551641981332
 30
0.0
 11
-21.49389837050719
 21
-13.48540920301929
 31
0.0
  0
LINE
  5
275
330
17
100
AcDbEntity
  8
visible
100
AcDbLine
 10
30.93707779425997
 20
-7.3329586630217785
 30
0.0
 11
30.93707779425997
 21
15.361107016157327
 31
0.0
  0
LINE
  5
276
330
17
100
AcDbEntity
  8
visible
100
AcDbLine
 10
35.073724306251385
 20
-7.440939225117049
 30
0.0
 11
35.073724306251385
 21
15.657113039307156
 31
0.0
  0
LINE
  5
277
330
17
100
AcDbEntity
  8
visible
100
AcDbLine
 10
30.93707779425997
 20
20.36074769682879
 30
0.0
 11
30.93707779425997
 21
39.607036595763
 31
0.0
  0
LINE
  5
278
330
17
100
AcDbEntity
  8
visible
100
AcDbLine
 10
30.93707779425997
 20
44.407036610303365
 30
0.0
 11
30.93707779425997
 21
62.35714409095981
 31
0.0
  0
LINE
  5
279
330
17
100
AcDbEntity
  8
visible
100
AcDbLine
 10
35.073724306251385
 20
20.677344382131924
 30
0.0
 11
35.073724306251385
 21
62.653150114109636
 31
0.0
  0
LINE
  5
27A
330
17
100
AcDbEntity
  8
visible
100
AcDbLine
 10
34.939396313899366
 20
67.67339191252458
 30
0.0
 11
34.939396313899366
 21
67.8615320514935
 31
0.0
  0
LINE
  5
27B
330
17
100
AcDbEntity
  8
visible
100
AcDbLine
 10
60.07088484307669
 20
15.15004627964197
 30
0.0
 11
60.07088484307669
 21
68.1455774491001
 31
0.0
  0
LINE
  5
27C
330
17
100
AcDbEntity
  8
visible
100
AcDbLine
 10
-37.652224715575414
 20
4.671134754988856
 30
0.0
 11
-37.652224715575414
 21
9.670713167201887
 31
0.0
  0
LINE
  5
27D
330
17
100
AcDbEntity
  8
visible
100
AcDbLine
 10
-29.640362663825684
 20
10.397534465195312
 30
0.0
 11
-29.640362663825684
 21
14.695717638020858
 31
0.0
  0
LINE
  5
27E
330
17
100
AcDbEntity
  8
visible
100
AcDbLine
 10
17.652565922811306
 20
10.393853359934251
 30
0.0
 11
17.652565922811306
 21
15.328657855169103
 31
0.0
  0
LINE
  5
27F
330
17
100
AcDbEntity
  8
visible
100
AcDbLine
 10
25.664427974561036
 20
5.35492708934899
 30
0.0
 11
25.664427974561036
 21
10.354505501562022
 31
0.0
  0
LINE
  5
280
330
17
100
AcDbEntity
  8
visible
100
AcDbLine
 10
28.35091467852019
 20
12.65286592684619
 30
0.0
 11
28.26700010133309
 21
12.47106960778102
 31
0.0
  0
LINE
  5
281
330
17
100
AcDbEntity
  8
visible
100
AcDbLine
 10
29.405932736739924
 20
48.00715579983207
 30
0.0
 11
30.005921958597817
 21
48.0071090989077
 31
0.0
  0
LINE
  5
282
330
17
100
AcDbEntity
  8
visible
100
AcDbLine
 10
29.54742121134487
 20
36.00714475054574
 30
0.0
 11
30.00498792333464
 21
36.00710913525861
 31
0.0
  0
LINE
  5
283
330
17
100
AcDbEntity
  8
visible
100
AcDbLine
 10
31.04409762188582
 20
47.007028288154956
 30
0.0
 11
31.005826158755703
 21
47.00703126706298
 31
0.0
  0
LINE
  5
284
330
17
100
AcDbEntity
  8
visible
100
AcDbLine
 10
31.04409762188582
 20
37.007028257862544
 30
0.0
 11
31.005047796036386
 21
37.00703129735542
 31
0.0
  0
LINE
  5
285
330
17
100
AcDbEntity
  8
visible
100
AcDbLine
 10
31.00562378444868
 20
44.407031274939015
 30
0.0
 11
30.047412229559775
 21
44.407105858554395
 31
0.0
  0
LINE
  5
286
330
17
100
AcDbEntity
  8
visible
100
AcDbLine
 10
31.00525017034341
 20
39.60703128947938
 30
0.0
 11
30.047412229559775
 21
39.60710584401403
 31
0.0
  0
LINE
  5
287
330
17
100
AcDbEntity
  8
visible
100
AcDbLine
 10
12.655499999500922
 20
-56.58201838976553
 30
0.0
 11
12.655499999500922
 21
-55.45085467239272
 31
0.0
  0
LINE
  5
288
330
17
100
AcDbEntity
  8
visible
100
AcDbLine
 10
-32.984391904366504
 20
62.99167043993963
 30
0.0
 11
-33.26610512778034
 21
62.38135422593513
 31
0.0
  0
LINE
  5
289
330
17
100
AcDbEntity
  8
visible
100
AcDbLine
 10
-33.634332838314805
 20
18.70852148890099
 30
0.0
 11
-33.634332838314805
 21
60.704980151490446
 31
0.0
  0
ARC
  5
28A
330
17
100
AcDbEntity
  8
visible
100
AcDbCircle
 10
-29.35261961490097
 20
61.31529636549497
 30
0.0
 40
4.0
100
AcDbArc
 50
89.99554031012079
 51
155.22262924672475
  0
ARC
  5
28B
330
17
100
AcDbEntity
  8
visible
100
AcDbCircle
 10
-29.63433283831481
 20
18.708521488900985
 30
0.0
 40
4.0
100
AcDbArc
 50
180.0
 51
269.9955403101208
  0
ARC
  5
28C
330
17
100
AcDbEntity
  8
visible
100
AcDbCircle
 10
-29.63433283831481
 20
60.70498015149046
 30
0.0
 40
4.0
100
AcDbArc
 50
155.22262924672475
 51
180.0
  0
LINE
  5
28D
330
17
100
AcDbEntity
  8
visible
100
AcDbLine
 10
-29.35230826981325
 20
65.31529635337797
 30
0.0
 11
17.646847442388157
 21
65.31163811430231
 31
0.0
  0
LINE
  5
28E
330
17
100
AcDbEntity
  8
visible
100
AcDbLine
 10
21.646536097300427
 20
19.31517946382984
 30
0.0
 11
21.646536097300427
 21
61.3116381264193
 31
0.0
  0
LINE
  5
28F
330
17
100
AcDbEntity
  8
visible
100
AcDbLine
 10
-29.634644183402543
 20
14.708521501017964
 30
0.0
 11
-29.63448851742215
 21
14.708521488901505
 31
0.0
  0
LINE
  5
290
330
17
100
AcDbEntity
  8
visible
100
AcDbLine
 10
21.278308386765964
 20
17.638805389385148
 30
0.0
 11
20.996595163352126
 21
17.028489175380642
 31
0.0
  0
ARC
  5
291
330
17
100
AcDbEntity
  8
visible
100
AcDbCircle
 10
17.64653609730043
 20
19.315179463829836
 30
0.0
 40
4.0
100
AcDbArc
 50
335.22262924672475
 51
360.0
  0
ARC
  5
292
330
17
100
AcDbEntity
  8
visible
100
AcDbCircle
 10
17.64653609730043
 20
61.31163812641931
 30
0.0
 40
4.0
100
AcDbArc
 50
360.0
 51
449.9955403101208
  0
ARC
  5
293
330
17
100
AcDbEntity
  8
visible
100
AcDbCircle
 10
17.36482287388659
 20
18.704863249825337
 30
0.0
 40
4.0
100
AcDbArc
 50
274.12517859952834
 51
335.22262924672475
  0
LINE
  5
294
330
17
100
AcDbEntity
  8
visible
100
AcDbLine
 10
-16.2584237007906
 20
45.212726086861736
 30
0.0
 11
-16.270411497531615
 21
45.18675518413814
 31
0.0
  0
LINE
  5
295
330
17
100
AcDbEntity
  8
visible
100
AcDbLine
 10
4.624266963636147
 20
35.57357515880463
 30
0.0
 11
4.612279166895133
 21
35.54760425608104
 31
0.0
  0
ENDSEC
  0
SECTION
  2
OBJECTS
  0
DICTIONARY
  5
A
330
0
100
AcDbDictionary
281
1
  3
ACAD_COLOR
350
B
  3
ACAD_GROUP
350
C
  3
ACAD_LAYOUT
350
D
  3
ACAD_MATERIAL
350
E
  3
ACAD_MLEADERSTYLE
350
F
  3
ACAD_MLINESTYLE
350
10
  3
ACAD_PLOTSETTINGS
350
11
  3
ACAD_PLOTSTYLENAME
350
12
  3
ACAD_SCALELIST
350
14
  3
ACAD_TABLESTYLE
350
15
  3
ACAD_VISUALSTYLE
350
16
  3
EZDXF_META
350
2D
  0
DICTIONARY
  5
B
330
A
100
AcDbDictionary
281
1
  0
DICTIONARY
  5
C
330
A
100
AcDbDictionary
281
1
  0
DICTIONARY
  5
D
330
A
100
AcDbDictionary
281
1
  3
Model
350
1A
  3
Layout1
350
1E
  0
DICTIONARY
  5
E
330
A
100
AcDbDictionary
281
1
  3
ByBlock
350
1F
  3
ByLayer
350
20
  3
Global
350
21
  0
DICTIONARY
  5
F
330
A
100
AcDbDictionary
281
1
  3
Standard
350
2C
  0
DICTIONARY
  5
10
330
A
100
AcDbDictionary
281
1
  3
Standard
350
22
  0
DICTIONARY
  5
11
330
A
100
AcDbDictionary
281
1
  0
ACDBDICTIONARYWDFLT
  5
12
330
A
100
AcDbDictionary
281
1
  3
Normal
350
13
100
AcDbDictionaryWithDefault
340
13
  0
ACDBPLACEHOLDER
  5
13
330
12
  0
DICTIONARY
  5
14
330
A
100
AcDbDictionary
281
1
  0
DICTIONARY
  5
15
330
A
100
AcDbDictionary
281
1
  0
DICTIONARY
  5
16
330
A
100
AcDbDictionary
281
1
  0
LAYOUT
  5
1A
330
D
100
AcDbPlotSettings
  1

  4
A3
  6

 40
7.5
 41
20.0
 42
7.5
 43
20.0
 44
420.0
 45
297.0
 46
0.0
 47
0.0
 48
0.0
 49
0.0
140
0.0
141
0.0
142
1.0
143
1.0
 70
1024
 72
1
 73
0
 74
5
  7

 75
16
 76
0
 77
2
 78
300
147
1.0
148
0.0
149
0.0
100
AcDbLayout
  1
Model
 70
1
 71
0
 10
0.0
 20
0.0
 11
420.0
 21
297.0
 12
0.0
 22
0.0
 32
0.0
 14
1e+20
 24
1e+20
 34
1e+20
 15
-1e+20
 25
-1e+20
 35
-1e+20
146
0.0
 13
0.0
 23
0.0
 33
0.0
 16
1.0
 26
0.0
 36
0.0
 17
0.0
 27
1.0
 37
0.0
 76
1
330
17
  0
LAYOUT
  5
1E
330
D
100
AcDbPlotSettings
  1

  4
A3
  6

 40
7.5
 41
20.0
 42
7.5
 43
20.0
 44
420.0
 45
297.0
 46
0.0
 47
0.0
 48
0.0
 49
0.0
140
0.0
141
0.0
142
1.0
143
1.0
 70
0
 72
1
 73
0
 74
5
  7

 75
16
 76
0
 77
2
 78
300
147
1.0
148
0.0
149
0.0
100
AcDbLayout
  1
Layout1
 70
1
 71
1
 10
0.0
 20
0.0
 11
420.0
 21
297.0
 12
0.0
 22
0.0
 32
0.0
 14
1e+20
 24
1e+20
 34
1e+20
 15
-1e+20
 25
-1e+20
 35
-1e+20
146
0.0
 13
0.0
 23
0.0
 33
0.0
 16
1.0
 26
0.0
 36
0.0
 17
0.0
 27
1.0
 37
0.0
 76
1
330
1B
  0
MATERIAL
  5
1F
102
{ACAD_REACTORS
330
E
102
}
330
E
100
AcDbMaterial
  1
ByBlock
  2

 70
0
 40
1.0
 71
1
 41
1.0
 91
-1023410177
 42
1.0
 72
1
  3

 73
1
 74
1
 75
1
 44
0.5
 73
0
 45
1.0
 46
1.0
 77
1
  4

 78
1
 79
1
170
1
 48
1.0
171
1
  6

172
1
173
1
174
1
140
1.0
141
1.0
175
1
  7

176
1
177
1
178
1
143
1.0
179
1
  8

270
1
271
1
272
1
145
1.0
146
1.0
273
1
  9

274
1
275
1
276
1
 42
1.0
 72
1
  3

 73
1
 74
1
 75
1
 94
63
  0
MATERIAL
  5
20
102
{ACAD_REACTORS
330
E
102
}
330
E
100
AcDbMaterial
  1
ByLayer
  2

 70
0
 40
1.0
 71
1
 41
1.0
 91
-1023410177
 42
1.0
 72
1
  3

 73
1
 74
1
 75
1
 44
0.5
 73
0
 45
1.0
 46
1.0
 77
1
  4

 78
1
 79
1
170
1
 48
1.0
171
1
  6

172
1
173
1
174
1
140
1.0
141
1.0
175
1
  7

176
1
177
1
178
1
143
1.0
179
1
  8

270
1
271
1
272
1
145
1.0
146
1.0
273
1
  9

274
1
275
1
276
1
 42
1.0
 72
1
  3

 73
1
 74
1
 75
1
 94
63
  0
MATERIAL
  5
21
102
{ACAD_REACTORS
330
E
102
}
330
E
100
AcDbMaterial
  1
Global
  2

 70
0
 40
1.0
 71
1
 41
1.0
 91
-1023410177
 42
1.0
 72
1
  3

 73
1
 74
1
 75
1
 44
0.5
 73
0
 45
1.0
 46
1.0
 77
1
  4

 78
1
 79
1
170
1
 48
1.0
171
1
  6

172
1
173
1
174
1
140
1.0
141
1.0
175
1
  7

176
1
177
1
178
1
143
1.0
179
1
  8

270
1
271
1
272
1
145
1.0
146
1.0
273
1
  9

274
1
275
1
276
1
 42
1.0
 72
1
  3

 73
1
 74
1
 75
1
 94
63
  0
MLINESTYLE
  5
22
102
{ACAD_REACTORS
330
10
102
}
330
10
100
AcDbMlineStyle
  2
Standard
 70
0
  3

 62
256
 51
90.0
 52
90.0
 71
2
 49
0.5
 62
256
  6
BYLAYER
 49
-0.5
 62
256
  6
BYLAYER
  0
MLEADERSTYLE
  5
2C
102
{ACAD_REACTORS
330
F
102
}
330
F
100
AcDbMLeaderStyle
179
2
170
2
171
1
172
0
 90
2
 40
0.0
 41
0.0
173
1
 91
-1056964608
 92
-2
290
1
 42
2.0
291
1
 43
8.0
  3
Standard
 44
4.0
300

342
29
174
1
175
1
176
0
178
1
 93
-1056964608
 45
4.0
292
0
297
0
 46
4.0
 94
-1056964608
 47
1.0
 49
1.0
140
1.0
294
1
141
0.0
177
0
142
1.0
295
0
296
0
143
3.75
271
0
272
9
273
9
  0
DICTIONARY
  5
2D
330
A
100
AcDbDictionary
280
1
281
1
  3
CREATED_BY_EZDXF
350
2E
  3
WRITTEN_BY_EZDXF
350
299
  0
DICTIONARYVAR
  5
2E
330
2D
100
DictionaryVariables
280
0
  1
1.4.4 @ 2026-10-01T18:29:35.009371+00:00
  0
DICTIONARYVAR
  5
299
330
2D
100
DictionaryVariables
280
0
  1
1.4.4 @ 2026-10-01T18:29:35.094884+00:00
  0
ENDSEC
  0
EOF
