  0
SECTION
  2
HEADER
  9
$ACADVER
  1
AC1027
  9
$ACADMAINTVER
 70
105
  9
$DWGCODEPAGE
  3
ANSI_1252
  9
$LASTSAVEDBY
  1
ezdxf
  9
$REQUIREDVERSIONS
160
0
  9
$INSBASE
 10
0.0
 20
0.0
 30
0.0
  9
$EXTMIN
 10
1e+20
 20
1e+20
 30
1e+20
  9
$EXTMAX
 10
-1e+20
 20
-1e+20
 30
-1e+20
  9
$LIMMIN
 10
0.0
 20
0.0
  9
$LIMMAX
 10
420.0
 20
297.0
  9
$ORTHOMODE
 70
0
  9
$REGENMODE
 70
1
  9
$FILLMODE
 70
1
  9
$QTEXTMODE
 70
0
  9
$MIRRTEXT
 70
1
  9
$LTSCALE
 40
1.0
  9
$ATTMODE
 70
1
  9
$TEXTSIZE
 40
2.5
  9
$TRACEWID
 40
1.0
  9
$TEXTSTYLE
  7
Standard
  9
$CLAYER
  8
0
  9
$CELTYPE
  6
ByLayer
  9
$CECOLOR
 62
256
  9
$CELTSCALE
 40
1.0
  9
$DISPSILH
 70
0
  9
$DIMSCALE
 40
1.0
  9
$DIMASZ
 40
2.5
  9
$DIMEXO
 40
0.625
  9
$DIMDLI
 40
3.75
  9
$DIMRND
 40
0.0
  9
$DIMDLE
 40
0.0
  9
$DIMEXE
 40
1.25
  9
$DIMTP
 40
0.0
  9
$DIMTM
 40
0.0
  9
$DIMTXT
 40
2.5
  9
$DIMCEN
 40
2.5
  9
$DIMTSZ
 40
0.0
  9
$DIMTOL
 70
0
  9
$DIMLIM
 70
0
  9
$DIMTIH
 70
0
  9
$DIMTOH
 70
0
  9
$DIMSE1
 70
0
  9
$DIMSE2
 70
0
  9
$DIMTAD
 70
1
  9
$DIMZIN
 70
8
  9
$DIMBLK
  1

  9
$DIMASO
 70
1
  9
$DIMSHO
 70
1
  9
$DIMPOST
  1

  9
$DIMAPOST
  1

  9
$DIMALT
 70
0
  9
$DIMALTD
 70
3
  9
$DIMALTF
 40
0.03937007874
  9
$DIMLFAC
 40
1.0
  9
$DIMTOFL
 70
1
  9
$DIMTVP
 40
0.0
  9
$DIMTIX
 70
0
  9
$DIMSOXD
 70
0
  9
$DIMSAH
 70
0
  9
$DIMBLK1
  1

  9
$DIMBLK2
  1

  9
$DIMSTYLE
  2
ISO-25
  9
$DIMCLRD
 70
0
  9
$DIMCLRE
 70
0
  9
$DIMCLRT
 70
0
  9
$DIMTFAC
 40
1.0
  9
$DIMGAP
 40
0.625
  9
$DIMJUST
 70
0
  9
$DIMSD1
 70
0
  9
$DIMSD2
 70
0
  9
$DIMTOLJ
 70
0
  9
$DIMTZIN
 70
8
  9
$DIMALTZ
 70
0
  9
$DIMALTTZ
 70
0
  9
$DIMUPT
 70
0
  9
$DIMDEC
 70
2
  9
$DIMTDEC
 70
2
  9
$DIMALTU
 70
2
  9
$DIMALTTD
 70
3
  9
$DIMTXSTY
  7
Standard
  9
$DIMAUNIT
 70
0
  9
$DIMADEC
 70
0
  9
$DIMALTRND
 40
0.0
  9
$DIMAZIN
 70
0
  9
$DIMDSEP
 70
44
  9
$DIMATFIT
 70
3
  9
$DIMFRAC
 70
0
  9
$DIMLDRBLK
  1

  9
$DIMLUNIT
 70
2
  9
$DIMLWD
 70
-2
  9
$DIMLWE
 70
-2
  9
$DIMTMOVE
 70
0
  9
$DIMFXL
 40
1.0
  9
$DIMFXLON
 70
0
  9
$DIMJOGANG
 40
0.785398163397
  9
$DIMTFILL
 70
0
  9
$DIMTFILLCLR
 70
0
  9
$DIMARCSYM
 70
0
  9
$DIMLTYPE
  6

  9
$DIMLTEX1
  6

  9
$DIMLTEX2
  6

  9
$DIMTXTDIRECTION
 70
0
  9
$LUNITS
 70
2
  9
$LUPREC
 70
4
  9
$SKETCHINC
 40
1.0
  9
$FILLETRAD
 40
10.0
  9
$AUNITS
 70
0
  9
$AUPREC
 70
2
  9
$MENU
  1
.
  9
$ELEVATION
 40
0.0
  9
$PELEVATION
 40
0.0
  9
$THICKNESS
 40
0.0
  9
$LIMCHECK
 70
0
  9
$CHAMFERA
 40
0.0
  9
$CHAMFERB
 40
0.0
  9
$CHAMFERC
 40
0.0
  9
$CHAMFERD
 40
0.0
  9
$SKPOLY
 70
0
  9
$TDCREATE
 40
2461316.7751041665
  9
$TDUCREATE
 40
2458532.153996898
  9
$TDUPDATE
 40
2461316.775115741
  9
$TDUUPDATE
 40
2458532.1544311
  9
$TDINDWG
 40
0.0
  9
$TDUSRTIMER
 40
0.0
  9
$USRTIMER
 70
1
  9
$ANGBASE
 50
0.0
  9
$ANGDIR
 70
0
  9
$PDMODE
 70
0
  9
$PDSIZE
 40
0.0
  9
$PLINEWID
 40
0.0
  9
$SPLFRAME
 70
0
  9
$SPLINETYPE
 70
6
  9
$SPLINESEGS
 70
8
  9
$HANDSEED
  5
2C9
  9
$SURFTAB1
 70
6
  9
$SURFTAB2
 70
6
  9
$SURFTYPE
 70
6
  9
$SURFU
 70
6
  9
$SURFV
 70
6
  9
$UCSBASE
  2

  9
$UCSNAME
  2

  9
$UCSORG
 10
0.0
 20
0.0
 30
0.0
  9
$UCSXDIR
 10
1.0
 20
0.0
 30
0.0
  9
$UCSYDIR
 10
0.0
 20
1.0
 30
0.0
  9
$UCSORTHOREF
  2

  9
$UCSORTHOVIEW
 70
0
  9
$UCSORGTOP
 10
0.0
 20
0.0
 30
0.0
  9
$UCSORGBOTTOM
 10
0.0
 20
0.0
 30
0.0
  9
$UCSORGLEFT
 10
0.0
 20
0.0
 30
0.0
  9
$UCSORGRIGHT
 10
0.0
 20
0.0
 30
0.0
  9
$UCSORGFRONT
 10
0.0
 20
0.0
 30
0.0
  9
$UCSORGBACK
 10
0.0
 20
0.0
 30
0.0
  9
$PUCSBASE
  2

  9
$PUCSNAME
  2

  9
$PUCSORG
 10
0.0
 20
0.0
 30
0.0
  9
$PUCSXDIR
 10
1.0
 20
0.0
 30
0.0
  9
$PUCSYDIR
 10
0.0
 20
1.0
 30
0.0
  9
$PUCSORTHOREF
  2

  9
$PUCSORTHOVIEW
 70
0
  9
$PUCSORGTOP
 10
0.0
 20
0.0
 30
0.0
  9
$PUCSORGBOTTOM
 10
0.0
 20
0.0
 30
0.0
  9
$PUCSORGLEFT
 10
0.0
 20
0.0
 30
0.0
  9
$PUCSORGRIGHT
 10
0.0
 20
0.0
 30
0.0
  9
$PUCSORGFRONT
 10
0.0
 20
0.0
 30
0.0
  9
$PUCSORGBACK
 10
0.0
 20
0.0
 30
0.0
  9
$USERI1
 70
0
  9
$USERI2
 70
0
  9
$USERI3
 70
0
  9
$USERI4
 70
0
  9
$USERI5
 70
0
  9
$USERR1
 40
0.0
  9
$USERR2
 40
0.0
  9
$USERR3
 40
0.0
  9
$USERR4
 40
0.0
  9
$USERR5
 40
0.0
  9
$WORLDVIEW
 70
1
  9
$SHADEDGE
 70
3
  9
$SHADEDIF
 70
70
  9
$TILEMODE
 70
1
  9
$MAXACTVP
 70
64
  9
$PINSBASE
 10
0.0
 20
0.0
 30
0.0
  9
$PLIMCHECK
 70
0
  9
$PEXTMIN
 10
1e+20
 20
1e+20
 30
1e+20
  9
$PEXTMAX
 10
-1e+20
 20
-1e+20
 30
-1e+20
  9
$PLIMMIN
 10
0.0
 20
0.0
  9
$PLIMMAX
 10
420.0
 20
297.0
  9
$UNITMODE
 70
0
  9
$VISRETAIN
 70
1
  9
$PLINEGEN
 70
0
  9
$PSLTSCALE
 70
1
  9
$TREEDEPTH
 70
3020
  9
$CMLSTYLE
  2
Standard
  9
$CMLJUST
 70
0
  9
$CMLSCALE
 40
20.0
  9
$PROXYGRAPHICS
 70
1
  9
$MEASUREMENT
 70
1
  9
$CELWEIGHT
370
-1
  9
$ENDCAPS
280
0
  9
$JOINSTYLE
280
0
  9
$LWDISPLAY
290
0
  9
$INSUNITS
 70
4
  9
$HYPERLINKBASE
  1

  9
$STYLESHEET
  1

  9
$XEDIT
290
1
  9
$CEPSNTYPE
380
0
  9
$PSTYLEMODE
290
1
  9
$FINGERPRINTGUID
  2
{EDF429D7-92D8-4E95-9E4B-AE799D2D7461}
  9
$VERSIONGUID
  2
{602EC3FF-A87C-4859-8DD6-7E21341F0623}
  9
$EXTNAMES
290
1
  9
$PSVPSCALE
 40
0.0
  9
$OLESTARTUP
290
0
  9
$SORTENTS
280
127
  9
$INDEXCTL
280
0
  9
$HIDETEXT
280
1
  9
$XCLIPFRAME
280
1
  9
$HALOGAP
280
0
  9
$OBSCOLOR
 70
257
  9
$OBSLTYPE
280
0
  9
$INTERSECTIONDISPLAY
280
0
  9
$INTERSECTIONCOLOR
 70
257
  9
$DIMASSOC
280
2
  9
$PROJECTNAME
  1

  9
$CAMERADISPLAY
290
0
  9
$LENSLENGTH
 40
50.0
  9
$CAMERAHEIGHT
 40
0.0
  9
$STEPSPERSEC
 40
24.0
  9
$STEPSIZE
 40
100.0
  9
$3DDWFPREC
 40
2.0
  9
$PSOLWIDTH
 40
0.005
  9
$PSOLHEIGHT
 40
0.08
  9
$LOFTANG1
 40
1.570796326795
  9
$LOFTANG2
 40
1.570796326795
  9
$LOFTMAG1
 40
0.0
  9
$LOFTMAG2
 40
0.0
  9
$LOFTPARAM
 70
7
  9
$LOFTNORMALS
280
1
  9
$LATITUDE
 40
37.795
  9
$LONGITUDE
 40
-122.394
  9
$NORTHDIRECTION
 40
0.0
  9
$TIMEZONE
 70
-8000
  9
$LIGHTGLYPHDISPLAY
280
1
  9
$TILEMODELIGHTSYNCH
280
1
  9
$CMATERIAL
347
20
  9
$SOLIDHIST
280
0
  9
$SHOWHIST
280
1
  9
$DWFFRAME
280
2
  9
$DGNFRAME
280
2
  9
$REALWORLDSCALE
290
1
  9
$INTERFERECOLOR
 62
256
  9
$CSHADOW
280
0
  9
$SHADOWPLANELOCATION
 40
0.0
  0
ENDSEC
  0
SECTION
  2
CLASSES
  0
CLASS
  1
ACDBDICTIONARYWDFLT
  2
AcDbDictionaryWithDefault
  3
ObjectDBX Classes
 90
0
 91
0
280
0
281
0
  0
CLASS
  1
SUN
  2
AcDbSun
  3
SCENEOE
 90
1153
 91
0
280
0
281
0
  0
CLASS
  1
VISUALSTYLE
  2
AcDbVisualStyle
  3
ObjectDBX Classes
 90
4095
 91
0
280
0
281
0
  0
CLASS
  1
MATERIAL
  2
AcDbMaterial
  3
ObjectDBX Classes
 90
1153
 91
0
280
0
281
0
  0
CLASS
  1
SCALE
  2
AcDbScale
  3
ObjectDBX Classes
 90
1153
 91
0
280
0
281
0
  0
CLASS
  1
TABLESTYLE
  2
AcDbTableStyle
  3
ObjectDBX Classes
 90
4095
 91
0
280
0
281
0
  0
CLASS
  1
MLEADERSTYLE
  2
AcDbMLeaderStyle
  3
ACDB_MLEADERSTYLE_CLASS
 90
4095
 91
0
280
0
281
0
  0
CLASS
  1
DICTIONARYVAR
  2
AcDbDictionaryVar
  3
ObjectDBX Classes
 90
0
 91
0
280
0
281
0
  0
CLASS
  1
CELLSTYLEMAP
  2
AcDbCellStyleMap
  3
ObjectDBX Classes
 90
1152
 91
0
280
0
281
0
  0
CLASS
  1
MENTALRAYRENDERSETTINGS
  2
AcDbMentalRayRenderSettings
  3
SCENEOE
 90
1024
 91
0
280
0
281
0
  0
CLASS
  1
ACDBDETAILVIEWSTYLE
  2
AcDbDetailViewStyle
  3
ObjectDBX Classes
 90
1025
 91
0
280
0
281
0
  0
CLASS
  1
ACDBSECTIONVIEWSTYLE
  2
AcDbSectionViewStyle
  3
ObjectDBX Classes
 90
1025
 91
0
280
0
281
0
  0
CLASS
  1
RASTERVARIABLES
  2
AcDbRasterVariables
  3
ISM
 90
0
 91
0
280
0
281
0
  0
CLASS
  1
LAYOUT
  2
AcDbLayout
  3
ObjectDBX Classes
 90
0
 91
0
280
0
281
0
  0
CLASS
  1
ACDBPLACEHOLDER
  2
AcDbPlaceHolder
  3
ObjectDBX Classes
 90
0
 91
0
280
0
281
0
  0
ENDSEC
  0
SECTION
  2
TABLES
  0
TABLE
  2
VPORT
  5
8
330
0
100
AcDbSymbolTable
 70
1
  0
VPORT
  5
2C5
330
8
100
AcDbSymbolTableRecord
100
AcDbViewportTableRecord
  2
*Active
 70
0
 10
0.0
 20
0.0
 11
1.0
 21
1.0
 12
5.0005027674160374e-08
 22
-0.011069764891232126
 13
0.0
 23
0.0
 14
0.5
 24
0.5
 15
0.5
 25
0.5
 16
0.0
 26
0.0
 36
1.0
 17
0.0
 27
0.0
 37
0.0
 40
137.8178127711776
 41
1.34
 42
50.0
 43
0.0
 44
0.0
 50
0.0
 51
0.0
 71
0
 72
1000
 73
1
 74
3
 75
0
 76
0
 77
0
 78
0
281
0
 65
1
110
0.0
120
0.0
130
0.0
111
1.0
121
0.0
131
0.0
112
0.0
122
1.0
132
0.0
 79
0
146
0.0
  0
ENDTAB
  0
TABLE
  2
LTYPE
  5
2
330
0
100
AcDbSymbolTable
 70
3
  0
LTYPE
  5
24
330
2
100
AcDbSymbolTableRecord
100
AcDbLinetypeTableRecord
  2
ByBlock
 70
0
  3

 72
65
 73
0
 40
0.0
  0
LTYPE
  5
25
330
2
100
AcDbSymbolTableRecord
100
AcDbLinetypeTableRecord
  2
ByLayer
 70
0
  3

 72
65
 73
0
 40
0.0
  0
LTYPE
  5
26
330
2
100
AcDbSymbolTableRecord
100
AcDbLinetypeTableRecord
  2
Continuous
 70
0
  3

 72
65
 73
0
 40
0.0
  0
ENDTAB
  0
TABLE
  2
LAYER
  5
1
330
0
100
AcDbSymbolTable
 70
3
  0
LAYER
  5
27
330
1
100
AcDbSymbolTableRecord
100
AcDbLayerTableRecord
  2
0
 70
0
 62
7
  6
Continuous
370
-3
390
13
347
21
  0
LAYER
  5
28
330
1
100
AcDbSymbolTableRecord
100
AcDbLayerTableRecord
  2
Defpoints
 70
0
 62
7
  6
Continuous
290
0
370
-3
390
13
347
21
  0
LAYER
  5
2F
330
1
100
AcDbSymbolTableRecord
100
AcDbLayerTableRecord
  2
visible
 70
0
 62
7
  6
Continuous
370
-3
390
13
347
21
  0
ENDTAB
  0
TABLE
  2
STYLE
  5
5
330
0
100
AcDbSymbolTable
 70
1
  0
STYLE
  5
29
330
5
100
AcDbSymbolTableRecord
100
AcDbTextStyleTableRecord
  2
Standard
 70
0
 40
0.0
 41
1.0
 50
0.0
 71
0
 42
2.5
  3
txt
  4

  0
ENDTAB
  0
TABLE
  2
VIEW
  5
7
330
0
100
AcDbSymbolTable
 70
0
  0
ENDTAB
  0
TABLE
  2
UCS
  5
6
330
0
100
AcDbSymbolTable
 70
0
  0
ENDTAB
  0
TABLE
  2
APPID
  5
3
330
0
100
AcDbSymbolTable
 70
3
  0
APPID
  5
2A
330
3
100
AcDbSymbolTableRecord
100
AcDbRegAppTableRecord
  2
ACAD
 70
0
  0
APPID
  5
2C6
330
3
100
AcDbSymbolTableRecord
100
AcDbRegAppTableRecord
  2
HATCHBACKGROUNDCOLOR
 70
0
  0
APPID
  5
2C7
330
3
100
AcDbSymbolTableRecord
100
AcDbRegAppTableRecord
  2
EZDXF
 70
0
  0
ENDTAB
  0
TABLE
  2
DIMSTYLE
  5
4
330
0
100
AcDbSymbolTable
 70
1
100
AcDbDimStyleTable
  0
DIMSTYLE
105
2B
330
4
100
AcDbSymbolTableRecord
100
AcDbDimStyleTableRecord
  2
Standard
 70
0
 40
1.0
 41
2.5
 42
0.625
 43
3.75
 44
1.25
 45
0.0
 46
0.0
 47
0.0
 48
0.0
 49
2.5
140
2.5
141
2.5
142
0.0
143
0.03937007874
144
1.0
145
0.0
146
1.0
147
0.625
148
0.0
 69
0
 70
0
 71
0
 72
0
 73
0
 74
0
 75
0
 76
0
 77
1
 78
8
 79
3
170
0
171
3
172
1
173
0
174
0
175
0
176
0
177
0
178
0
179
2
271
2
272
2
273
2
274
3
275
0
276
0
277
2
278
44
279
0
280
0
281
0
282
0
283
0
284
8
285
0
286
0
288
0
289
3
290
0
371
-2
372
-2
  0
ENDTAB
  0
TABLE
  2
BLOCK_RECORD
  5
9
330
0
100
AcDbSymbolTable
 70
2
  0
BLOCK_RECORD
  5
17
330
9
100
AcDbSymbolTableRecord
100
AcDbBlockTableRecord
  2
*Model_Space
340
1A
 70
0
280
1
281
0
  0
BLOCK_RECORD
  5
1B
330
9
100
AcDbSymbolTableRecord
100
AcDbBlockTableRecord
  2
*Paper_Space
340
1E
 70
0
280
1
281
0
  0
ENDTAB
  0
ENDSEC
  0
SECTION
  2
BLOCKS
  0
BLOCK
  5
18
330
17
100
AcDbEntity
  8
0
100
AcDbBlockBegin
  2
*Model_Space
 70
0
 10
0.0
 20
0.0
 30
0.0
  3
*Model_Space
  1

  0
ENDBLK
  5
19
330
17
100
AcDbEntity
  8
0
100
AcDbBlockEnd
  0
BLOCK
  5
1C
330
1B
100
AcDbEntity
  8
0
100
AcDbBlockBegin
  2
*Paper_Space
 70
0
 10
0.0
 20
0.0
 30
0.0
  3
*Paper_Space
  1

  0
ENDBLK
  5
1D
330
1B
100
AcDbEntity
  8
0
100
AcDbBlockEnd
  0
ENDSEC
  0
SECTION
  2
ENTITIES
  0
LINE
  5
30
330
17
100
AcDbEntity
  8
visible
100
AcDbLine
 10
-59.9999999475
 20
-67.84426745408707
 30
0.0
 11
-59.9999999475
 21
-66.54437118812456
 31
0.0
  0
ELLIPSE
  5
31
330
17
100
AcDbEntity
  8
visible
100
AcDbEllipse
 10
38.0000000525
 20
-35.646988009218795
 30
0.0
 11
22.0
 21
0.0
 31
0.0
 40
0.012998901689202593
 41
-2.1320080803910457e-05
 42
5.000000413701855e-11
  0
ELLIPSE
  5
32
330
17
100
AcDbEntity
  8
visible
100
AcDbEllipse
 10
38.000000047499995
 20
-34.34709784029854
 30
0.0
 11
22.0
 21
0.0
 31
0.0
 40
0.012998901689202593
 41
-6.283185307129586
 42
-4.71238898033469
  0
LINE
  5
33
330
17
100
AcDbEntity
  8
visible
100
AcDbLine
 10
38.000000046400004
 20
-34.06112200313608
 30
0.0
 11
-37.999999953599996
 21
-34.061122003185474
 31
0.0
  0
ELLIPSE
  5
34
330
17
100
AcDbEntity
  8
visible
100
AcDbEllipse
 10
-37.999999952500005
 20
-34.347097840347935
 30
0.0
 11
22.0
 21
0.0
 31
0.0
 40
0.012998901689202593
 41
-4.71238898033469
 42
-3.141592653539793
  0
LINE
  5
35
330
17
100
AcDbEntity
  8
visible
100
AcDbLine
 10
60.0000000525
 20
-67.84426745400908
 30
0.0
 11
60.0000000525
 21
-35.6469880092045
 31
0.0
  0
LINE
  5
36
330
17
100
AcDbEntity
  8
visible
100
AcDbLine
 10
38.000000046400004
 20
-66.25840144794067
 30
0.0
 11
38.000000046400004
 21
-34.061122003136084
 31
0.0
  0
LINE
  5
37
330
17
100
AcDbEntity
  8
visible
100
AcDbLine
 10
60.000000047499995
 20
-66.54437728508883
 30
0.0
 11
60.000000047499995
 21
-34.34709784028424
 31
0.0
  0
LINE
  5
38
330
17
100
AcDbEntity
  8
visible
100
AcDbLine
 10
-37.999999953599996
 20
-66.25840144799007
 30
0.0
 11
-37.999999953599996
 21
-34.06112200318548
 31
0.0
  0
LINE
  5
39
330
17
100
AcDbEntity
  8
visible
100
AcDbLine
 10
38.000000046400004
 20
-66.25840144794067
 30
0.0
 11
-37.999999953599996
 21
-66.25840144799007
 31
0.0
  0
LINE
  5
3A
330
17
100
AcDbEntity
  8
visible
100
AcDbLine
 10
31.3000000464
 20
-42.76038694630192
 30
0.0
 11
0.7000000463999978
 21
-42.76038694632181
 31
0.0
  0
LINE
  5
3B
330
17
100
AcDbEntity
  8
visible
100
AcDbLine
 10
31.300000046399997
 20
-42.76038694630192
 30
0.0
 11
31.300000046399997
 21
-55.359322381225454
 31
0.0
  0
LINE
  5
3C
330
17
100
AcDbEntity
  8
visible
100
AcDbLine
 10
0.7000000463999982
 20
-42.760386946321816
 30
0.0
 11
0.7000000463999982
 21
-55.35932238124535
 31
0.0
  0
LINE
  5
3D
330
17
100
AcDbEntity
  8
visible
100
AcDbLine
 10
31.3000000464
 20
-55.359322381225454
 30
0.0
 11
0.7000000463999978
 21
-55.35932238124534
 31
0.0
  0
ELLIPSE
  5
3E
330
17
100
AcDbEntity
  8
visible
100
AcDbEllipse
 10
-21.9999999536
 20
-54.05943221733942
 30
0.0
 11
3.0
 21
1.1539436587747104e-08
 31
0.0
 40
0.999915510708217
 41
4.712388976538536
 42
6.283185307179586
  0
ELLIPSE
  5
3F
330
17
100
AcDbEntity
  8
visible
100
AcDbEllipse
 10
-21.9999999536
 20
-54.05943221733942
 30
0.0
 11
3.0
 21
1.1539436587747104e-08
 31
0.0
 40
0.999915510708217
 41
0.0
 42
3.141592653589793
  0
ELLIPSE
  5
40
330
17
100
AcDbEntity
  8
visible
100
AcDbEllipse
 10
-21.9999999536
 20
-54.05943221733942
 30
0.0
 11
3.0
 21
1.1539436587747104e-08
 31
0.0
 40
0.999915510708217
 41
3.141592653589793
 42
4.712388976538536
  0
LINE
  5
41
330
17
100
AcDbEntity
  8
visible
100
AcDbLine
 10
-59.999999952500005
 20
-66.54437728516682
 30
0.0
 11
-59.999999952500005
 21
-34.34709784036223
 31
0.0
  0
LINE
  5
42
330
17
100
AcDbEntity
  8
visible
100
AcDbLine
 10
-59.399999952499996
 20
-34.24710628929102
 30
0.0
 11
-59.39999995237053
 21
-34.280765220687094
 31
0.0
  0
ELLIPSE
  5
43
330
17
100
AcDbEntity
  8
visible
100
AcDbEllipse
 10
-58.899999952499996
 20
-34.24710628929069
 30
0.0
 11
0.5
 21
1.923237076002231e-09
 31
0.0
 40
0.999915510708217
 41
3.141592649743644
 42
3.2088437053872894
  0
LINE
  5
44
330
17
100
AcDbEntity
  8
visible
100
AcDbLine
 10
59.400000047629476
 20
-34.28076522091026
 30
0.0
 11
59.40000004750001
 21
-34.24710628921381
 31
0.0
  0
ELLIPSE
  5
45
330
17
100
AcDbEntity
  8
visible
100
AcDbEllipse
 10
58.9000000475
 20
-34.24710628921413
 30
0.0
 11
-0.5
 21
-1.923239431291217e-09
 31
0.0
 40
0.999915510708217
 41
-3.208843713135149
 42
-3.141592657435947
  0
LINE
  5
46
330
17
100
AcDbEntity
  8
visible
100
AcDbLine
 10
-27.49999995081
 20
-67.78367257080733
 30
0.0
 11
-27.499999950710002
 21
-67.80967037418573
 31
0.0
  0
LINE
  5
47
330
17
100
AcDbEntity
  8
visible
100
AcDbLine
 10
-27.499999950809993
 20
-67.78367257080733
 30
0.0
 11
-22.499999950809993
 21
-67.78367257080407
 31
0.0
  0
LINE
  5
48
330
17
100
AcDbEntity
  8
visible
100
AcDbLine
 10
-27.499999950710006
 20
-67.80967037418573
 30
0.0
 11
-22.499999950710006
 21
-67.80967037418247
 31
0.0
  0
LINE
  5
49
330
17
100
AcDbEntity
  8
visible
100
AcDbLine
 10
-22.49999995081
 20
-67.78367257080407
 30
0.0
 11
-22.499999950710002
 21
-67.80967037418247
 31
0.0
  0
ELLIPSE
  5
4A
330
17
100
AcDbEntity
  8
visible
100
AcDbEllipse
 10
-24.99999995125
 20
-67.66928223594071
 30
0.0
 11
3.0
 21
0.0
 31
0.0
 40
0.012998901689202596
 41
-6.283185307179586
 42
-4.71238898033469
  0
ELLIPSE
  5
4B
330
17
100
AcDbEntity
  8
visible
100
AcDbEllipse
 10
-24.99999995125
 20
-67.66928223594071
 30
0.0
 11
3.0
 21
0.0
 31
0.0
 40
0.012998901689202596
 41
-3.141592653589793
 42
-0.0
  0
ELLIPSE
  5
4C
330
17
100
AcDbEntity
  8
visible
100
AcDbEllipse
 10
-24.99999995125
 20
-67.66928223594071
 30
0.0
 11
3.0
 21
0.0
 31
0.0
 40
0.012998901689202596
 41
-4.71238898033469
 42
-3.141592653589793
  0
LINE
  5
4D
330
17
100
AcDbEntity
  8
visible
100
AcDbLine
 10
-27.49999995179
 20
-67.52889409769894
 30
0.0
 11
-27.499999951689997
 21
-67.55489190107734
 31
0.0
  0
LINE
  5
4E
330
17
100
AcDbEntity
  8
visible
100
AcDbLine
 10
-27.499999951790002
 20
-67.52889409769895
 30
0.0
 11
-22.499999951790002
 21
-67.5288940976957
 31
0.0
  0
LINE
  5
4F
330
17
100
AcDbEntity
  8
visible
100
AcDbLine
 10
-27.49999995169
 20
-67.55489190107735
 30
0.0
 11
-22.49999995169
 21
-67.5548919010741
 31
0.0
  0
LINE
  5
50
330
17
100
AcDbEntity
  8
visible
100
AcDbLine
 10
-22.49999995179
 20
-67.5288940976957
 30
0.0
 11
-22.499999951689997
 21
-67.5548919010741
 31
0.0
  0
LINE
  5
51
330
17
100
AcDbEntity
  8
visible
100
AcDbLine
 10
-29.499999953125
 20
-67.18182342259854
 30
0.0
 11
-29.499999952975
 21
-67.22082012766614
 31
0.0
  0
LINE
  5
52
330
17
100
AcDbEntity
  8
visible
100
AcDbLine
 10
-29.499999953125
 20
-67.18182342259854
 30
0.0
 11
-26.499999953125
 21
-67.18182342259658
 31
0.0
  0
LINE
  5
53
330
17
100
AcDbEntity
  8
visible
100
AcDbLine
 10
-29.499999952975003
 20
-67.22082012766616
 30
0.0
 11
-26.499999952975003
 21
-67.2208201276642
 31
0.0
  0
LINE
  5
54
330
17
100
AcDbEntity
  8
visible
100
AcDbLine
 10
-26.499999953125
 20
-67.18182342259658
 30
0.0
 11
-26.499999952975
 21
-67.2208201276642
 31
0.0
  0
LINE
  5
55
330
17
100
AcDbEntity
  8
visible
100
AcDbLine
 10
-17.499999953125
 20
-67.18182342259075
 30
0.0
 11
-17.499999952975
 21
-67.22082012765836
 31
0.0
  0
LINE
  5
56
330
17
100
AcDbEntity
  8
visible
100
AcDbLine
 10
-17.499999953125
 20
-67.18182342259074
 30
0.0
 11
-14.499999953124998
 21
-67.18182342258879
 31
0.0
  0
LINE
  5
57
330
17
100
AcDbEntity
  8
visible
100
AcDbLine
 10
-17.499999952975003
 20
-67.22082012765834
 30
0.0
 11
-14.499999952975003
 21
-67.2208201276564
 31
0.0
  0
LINE
  5
58
330
17
100
AcDbEntity
  8
visible
100
AcDbLine
 10
-14.499999953124998
 20
-67.18182342258879
 30
0.0
 11
-14.499999952975
 21
-67.2208201276564
 31
0.0
  0
ELLIPSE
  5
59
330
17
100
AcDbEntity
  8
visible
100
AcDbEllipse
 10
5.000000058430487e-08
 20
-67.99425477815453
 30
0.0
 11
3.4
 21
0.0
 31
0.0
 40
0.012998901689202595
 41
-6.283185307179586
 42
-4.71238898033469
  0
ELLIPSE
  5
5A
330
17
100
AcDbEntity
  8
visible
100
AcDbEllipse
 10
5.000000058430487e-08
 20
-67.99425477815453
 30
0.0
 11
3.4
 21
0.0
 31
0.0
 40
0.012998901689202595
 41
-3.141592653589793
 42
-0.0
  0
ELLIPSE
  5
5B
330
17
100
AcDbEntity
  8
visible
100
AcDbEllipse
 10
5.000000058430487e-08
 20
-67.99425477815453
 30
0.0
 11
3.4
 21
0.0
 31
0.0
 40
0.012998901689202595
 41
-4.71238898033469
 42
-3.141592653589793
  0
LINE
  5
5C
330
17
100
AcDbEntity
  8
visible
100
AcDbLine
 10
5.500000047584997
 20
-67.36640782656247
 30
0.0
 11
8.500000047584997
 21
-67.36640782656052
 31
0.0
  0
LINE
  5
5D
330
17
100
AcDbEntity
  8
visible
100
AcDbLine
 10
5.500000047584996
 20
-67.36640782656247
 30
0.0
 11
5.500000047434997
 21
-67.32741112149486
 31
0.0
  0
LINE
  5
5E
330
17
100
AcDbEntity
  8
visible
100
AcDbLine
 10
8.500000047584997
 20
-67.36640782656052
 30
0.0
 11
8.500000047434996
 21
-67.32741112149291
 31
0.0
  0
LINE
  5
5F
330
17
100
AcDbEntity
  8
visible
100
AcDbLine
 10
5.500000047434998
 20
-67.32741112149486
 30
0.0
 11
8.500000047434998
 21
-67.32741112149291
 31
0.0
  0
LINE
  5
60
330
17
100
AcDbEntity
  8
visible
100
AcDbLine
 10
5.500000046835002
 20
-67.17142430122443
 30
0.0
 11
8.500000046835002
 21
-67.17142430122249
 31
0.0
  0
LINE
  5
61
330
17
100
AcDbEntity
  8
visible
100
AcDbLine
 10
5.500000046834999
 20
-67.17142430122442
 30
0.0
 11
5.500000046685
 21
-67.13242759615682
 31
0.0
  0
LINE
  5
62
330
17
100
AcDbEntity
  8
visible
100
AcDbLine
 10
8.500000046835
 20
-67.17142430122247
 30
0.0
 11
8.500000046685
 21
-67.13242759615487
 31
0.0
  0
LINE
  5
63
330
17
100
AcDbEntity
  8
visible
100
AcDbLine
 10
5.500000046684999
 20
-67.13242759615683
 30
0.0
 11
8.500000046684999
 21
-67.13242759615488
 31
0.0
  0
LINE
  5
64
330
17
100
AcDbEntity
  8
visible
100
AcDbLine
 10
23.500000047584997
 20
-67.36640782655077
 30
0.0
 11
26.500000047584997
 21
-67.36640782654882
 31
0.0
  0
LINE
  5
65
330
17
100
AcDbEntity
  8
visible
100
AcDbLine
 10
23.500000047584997
 20
-67.36640782655077
 30
0.0
 11
23.500000047434998
 21
-67.32741112148317
 31
0.0
  0
LINE
  5
66
330
17
100
AcDbEntity
  8
visible
100
AcDbLine
 10
26.500000047584997
 20
-67.36640782654882
 30
0.0
 11
26.500000047434998
 21
-67.32741112148122
 31
0.0
  0
LINE
  5
67
330
17
100
AcDbEntity
  8
visible
100
AcDbLine
 10
23.500000047434998
 20
-67.32741112148315
 30
0.0
 11
26.500000047434998
 21
-67.3274111214812
 31
0.0
  0
LINE
  5
68
330
17
100
AcDbEntity
  8
visible
100
AcDbLine
 10
23.500000046835
 20
-67.17142430121272
 30
0.0
 11
26.500000046835
 21
-67.17142430121078
 31
0.0
  0
LINE
  5
69
330
17
100
AcDbEntity
  8
visible
100
AcDbLine
 10
23.500000046835
 20
-67.17142430121272
 30
0.0
 11
23.500000046685003
 21
-67.13242759614512
 31
0.0
  0
LINE
  5
6A
330
17
100
AcDbEntity
  8
visible
100
AcDbLine
 10
26.500000046835
 20
-67.17142430121078
 30
0.0
 11
26.500000046685003
 21
-67.13242759614317
 31
0.0
  0
LINE
  5
6B
330
17
100
AcDbEntity
  8
visible
100
AcDbLine
 10
23.500000046685
 20
-67.13242759614512
 30
0.0
 11
26.500000046685
 21
-67.13242759614317
 31
0.0
  0
LINE
  5
6C
330
17
100
AcDbEntity
  8
visible
100
AcDbLine
 10
-59.999999952500005
 20
-66.54437728516682
 30
0.0
 11
-59.99999994750001
 21
-67.84426745408707
 31
0.0
  0
LINE
  5
6D
330
17
100
AcDbEntity
  8
visible
100
AcDbLine
 10
60.0000000525
 20
-67.84426745400908
 30
0.0
 11
60.0000000475
 21
-66.54437728508883
 31
0.0
  0
LINE
  5
6E
330
17
100
AcDbEntity
  8
visible
100
AcDbLine
 10
31.30000004651
 20
-42.78898453001817
 30
0.0
 11
0.7000000465099987
 21
-42.78898453003806
 31
0.0
  0
LINE
  5
6F
330
17
100
AcDbEntity
  8
visible
100
AcDbLine
 10
31.30000004651
 20
-55.359322381225454
 30
0.0
 11
31.30000004651
 21
-42.78898453001817
 31
0.0
  0
LINE
  5
70
330
17
100
AcDbEntity
  8
visible
100
AcDbLine
 10
0.7000000465099998
 20
-55.35932238124535
 30
0.0
 11
0.7000000465099998
 21
-42.788984530038064
 31
0.0
  0
ELLIPSE
  5
71
330
17
100
AcDbEntity
  8
visible
100
AcDbEllipse
 10
-21.99999995345
 20
-54.098428922407024
 30
0.0
 11
3.0
 21
1.1539436587747104e-08
 31
0.0
 40
0.999915510708217
 41
0.0065000457967216985
 42
3.1350926077931156
  0
LINE
  5
72
330
17
100
AcDbEntity
  8
visible
100
AcDbLine
 10
-59.399999952499996
 20
-34.24710628929102
 30
0.0
 11
-59.399999952499996
 21
-33.247190778582805
 31
0.0
  0
LINE
  5
73
330
17
100
AcDbEntity
  8
visible
100
AcDbLine
 10
59.4000000475
 20
-34.247106289213804
 30
0.0
 11
59.4000000475
 21
-33.24719077850559
 31
0.0
  0
LINE
  5
74
330
17
100
AcDbEntity
  8
visible
100
AcDbLine
 10
-27.49999995071
 20
-67.80967037418571
 30
0.0
 11
-27.49999995071
 21
-67.78367257080731
 31
0.0
  0
LINE
  5
75
330
17
100
AcDbEntity
  8
visible
100
AcDbLine
 10
-22.49999995071
 20
-67.80967037418247
 30
0.0
 11
-22.49999995071
 21
-67.78367257080407
 31
0.0
  0
LINE
  5
76
330
17
100
AcDbEntity
  8
visible
100
AcDbLine
 10
-27.49999995169
 20
-67.55489190107735
 30
0.0
 11
-27.49999995169
 21
-67.52889409769895
 31
0.0
  0
LINE
  5
77
330
17
100
AcDbEntity
  8
visible
100
AcDbLine
 10
-22.49999995169
 20
-67.5548919010741
 30
0.0
 11
-22.49999995169
 21
-67.5288940976957
 31
0.0
  0
LINE
  5
78
330
17
100
AcDbEntity
  8
visible
100
AcDbLine
 10
-29.499999952975
 20
-67.22082012766614
 30
0.0
 11
-29.499999952975
 21
-67.18182342259854
 31
0.0
  0
LINE
  5
79
330
17
100
AcDbEntity
  8
visible
100
AcDbLine
 10
-26.499999952975
 20
-67.2208201276642
 30
0.0
 11
-26.499999952975
 21
-67.1818234225966
 31
0.0
  0
LINE
  5
7A
330
17
100
AcDbEntity
  8
visible
100
AcDbLine
 10
-17.499999952975
 20
-67.22082012765834
 30
0.0
 11
-17.499999952975
 21
-67.18182342259074
 31
0.0
  0
LINE
  5
7B
330
17
100
AcDbEntity
  8
visible
100
AcDbLine
 10
-14.499999952975
 20
-67.2208201276564
 30
0.0
 11
-14.499999952975
 21
-67.18182342258879
 31
0.0
  0
LINE
  5
7C
330
17
100
AcDbEntity
  8
visible
100
AcDbLine
 10
5.500000047584994
 20
-67.36640782656247
 30
0.0
 11
5.500000047584994
 21
-67.32741112149486
 31
0.0
  0
LINE
  5
7D
330
17
100
AcDbEntity
  8
visible
100
AcDbLine
 10
8.500000047584994
 20
-67.36640782656052
 30
0.0
 11
8.500000047584994
 21
-67.32741112149291
 31
0.0
  0
LINE
  5
7E
330
17
100
AcDbEntity
  8
visible
100
AcDbLine
 10
5.500000046834997
 20
-67.17142430122442
 30
0.0
 11
5.500000046834997
 21
-67.13242759615682
 31
0.0
  0
LINE
  5
7F
330
17
100
AcDbEntity
  8
visible
100
AcDbLine
 10
8.500000046834996
 20
-67.17142430122247
 30
0.0
 11
8.500000046834996
 21
-67.13242759615487
 31
0.0
  0
LINE
  5
80
330
17
100
AcDbEntity
  8
visible
100
AcDbLine
 10
23.500000047584994
 20
-67.36640782655077
 30
0.0
 11
23.500000047584994
 21
-67.32741112148317
 31
0.0
  0
LINE
  5
81
330
17
100
AcDbEntity
  8
visible
100
AcDbLine
 10
26.500000047584994
 20
-67.36640782654881
 30
0.0
 11
26.500000047584994
 21
-67.3274111214812
 31
0.0
  0
LINE
  5
82
330
17
100
AcDbEntity
  8
visible
100
AcDbLine
 10
23.500000046835
 20
-67.17142430121272
 30
0.0
 11
23.500000046835
 21
-67.13242759614512
 31
0.0
  0
LINE
  5
83
330
17
100
AcDbEntity
  8
visible
100
AcDbLine
 10
26.500000046835
 20
-67.17142430121078
 30
0.0
 11
26.500000046835
 21
-67.13242759614317
 31
0.0
  0
ELLIPSE
  5
84
330
17
100
AcDbEntity
  8
visible
100
AcDbEllipse
 10
28.00000004651
 20
-49.08845224748208
 30
0.0
 11
1.6
 21
6.154338849255968e-09
 31
0.0
 40
0.999915510708217
 41
0.008125089429924515
 42
3.1334675641595844
  0
ELLIPSE
  5
85
330
17
100
AcDbEntity
  8
visible
100
AcDbEllipse
 10
4.000000046510001
 20
-49.08845224749768
 30
0.0
 11
1.6
 21
6.154338849255968e-09
 31
0.0
 40
0.999915510708217
 41
0.008125089430139454
 42
3.133467564159785
  0
ELLIPSE
  5
86
330
17
100
AcDbEntity
  8
visible
100
AcDbEllipse
 10
-37.999999952500005
 20
-33.14719922749807
 30
0.0
 11
21.389897948556634
 21
0.0
 31
0.0
 40
0.012998901689202595
 41
-3.144246270602335
 42
-3.141592653539793
  0
ELLIPSE
  5
87
330
17
100
AcDbEntity
  8
visible
100
AcDbEllipse
 10
-37.999999952500005
 20
-33.14719922749807
 30
0.0
 11
21.389897948556634
 21
0.0
 31
0.0
 40
0.012998901689202595
 41
-4.71238898033469
 42
-3.144246270602335
  0
ELLIPSE
  5
88
330
17
100
AcDbEntity
  8
visible
100
AcDbEllipse
 10
-58.899999952499996
 20
-33.24719077858247
 30
0.0
 11
-0.5
 21
-1.923237076002231e-09
 31
0.0
 40
0.999915510708217
 41
-0.20135792463648158
 42
-3.846149166127497e-09
  0
ELLIPSE
  5
89
330
17
100
AcDbEntity
  8
visible
100
AcDbEllipse
 10
38.00000005250001
 20
-34.44708939636893
 30
0.0
 11
21.389897948556634
 21
0.0
 31
0.0
 40
0.012998901689202595
 41
-0.477231880989212
 42
4.999911595859885e-11
  0
LINE
  5
8A
330
17
100
AcDbEntity
  8
visible
100
AcDbLine
 10
38.000000046430515
 20
-32.86915404687331
 30
0.0
 11
-37.999999953569485
 21
-32.86915404692271
 31
0.0
  0
LINE
  5
8B
330
17
100
AcDbEntity
  8
visible
100
AcDbLine
 10
59.40000005147563
 20
-34.28076522091026
 30
0.0
 11
59.40000004750001
 21
-33.24719077850559
 31
0.0
  0
ELLIPSE
  5
8C
330
17
100
AcDbEntity
  8
visible
100
AcDbEllipse
 10
58.9000000475
 20
-33.24719077850591
 30
0.0
 11
0.5
 21
1.923239431291217e-09
 31
0.0
 40
0.999915510708217
 41
-3.846153617814707e-09
 42
0.20135791694417854
  0
ELLIPSE
  5
8D
330
17
100
AcDbEntity
  8
visible
100
AcDbEllipse
 10
38.00000004750001
 20
-33.147199227448674
 30
0.0
 11
21.389897948556634
 21
0.0
 31
0.0
 40
0.012998901689202595
 41
-6.280531690167044
 42
-4.71238898033469
  0
ELLIPSE
  5
8E
330
17
100
AcDbEntity
  8
visible
100
AcDbEllipse
 10
38.00000004750001
 20
-33.147199227448674
 30
0.0
 11
21.389897948556634
 21
0.0
 31
0.0
 40
0.012998901689202595
 41
-6.283185307129586
 42
-6.280531690167044
  0
ELLIPSE
  5
8F
330
17
100
AcDbEntity
  8
visible
100
AcDbEllipse
 10
-37.999999952500005
 20
-27.347689265390414
 30
0.0
 11
-21.2
 21
-0.0
 31
0.0
 40
0.012998901689202595
 41
4.71238898043469
 42
6.283185307229586
  0
ELLIPSE
  5
90
330
17
100
AcDbEntity
  8
visible
100
AcDbEllipse
 10
38.000000047499995
 20
-27.347689265341018
 30
0.0
 11
-21.2
 21
-0.0
 31
0.0
 40
0.012998901689202595
 41
3.141592653639793
 42
4.71238898043469
  0
LINE
  5
91
330
17
100
AcDbEntity
  8
visible
100
AcDbLine
 10
38.00000004644001
 20
-27.07211254952992
 30
0.0
 11
-37.99999995355999
 21
-27.072112549579316
 31
0.0
  0
ELLIPSE
  5
92
330
17
100
AcDbEntity
  8
visible
100
AcDbEllipse
 10
28.000000046660002
 20
-49.127448952549685
 30
0.0
 11
1.6
 21
6.154338849255968e-09
 31
0.0
 40
0.999915510708217
 41
0.02031389715257248
 42
3.121278756437297
  0
ELLIPSE
  5
93
330
17
100
AcDbEntity
  8
visible
100
AcDbEllipse
 10
4.00000004666
 20
-49.12744895256529
 30
0.0
 11
1.6
 21
6.154338849255968e-09
 31
0.0
 40
0.999915510708217
 41
0.020313897152559157
 42
3.121278756437283
  0
ELLIPSE
  5
94
330
17
100
AcDbEntity
  8
visible
100
AcDbEllipse
 10
38.0000000525
 20
-34.44708939636893
 30
0.0
 11
22.0
 21
0.0
 31
0.0
 40
0.012998901689202593
 41
-2.1320080803910457e-05
 42
5.000000413701855e-11
  0
LINE
  5
95
330
17
100
AcDbEntity
  8
visible
100
AcDbLine
 10
60.0000000525
 20
-34.44708939635463
 30
0.0
 11
60.0000000475
 21
-33.14719922743437
 31
0.0
  0
ELLIPSE
  5
96
330
17
100
AcDbEntity
  8
visible
100
AcDbEllipse
 10
38.000000047499995
 20
-33.147199227448674
 30
0.0
 11
22.0
 21
0.0
 31
0.0
 40
0.012998901689202593
 41
-6.283185307129586
 42
-4.71238898033469
  0
LINE
  5
97
330
17
100
AcDbEntity
  8
visible
100
AcDbLine
 10
38.000000046400004
 20
-32.86122339028621
 30
0.0
 11
-37.999999953599996
 21
-32.86122339033561
 31
0.0
  0
ELLIPSE
  5
98
330
17
100
AcDbEntity
  8
visible
100
AcDbEllipse
 10
-37.999999952500005
 20
-33.14719922749807
 30
0.0
 11
22.0
 21
0.0
 31
0.0
 40
0.012998901689202593
 41
-4.71238898033469
 42
-3.141592653539793
  0
LINE
  5
99
330
17
100
AcDbEntity
  8
visible
100
AcDbLine
 10
-59.99999994788464
 20
-34.34709109217837
 30
0.0
 11
-59.9999999525
 21
-33.14719922751237
 31
0.0
  0
ELLIPSE
  5
9A
330
17
100
AcDbEntity
  8
visible
100
AcDbEllipse
 10
-24.99999995125
 20
-56.670211618150326
 30
0.0
 11
8.8
 21
0.0
 31
0.0
 40
0.012998901689202595
 41
-5.267423408052315
 42
-4.865092322580118
  0
LINE
  5
9B
330
17
100
AcDbEntity
  8
visible
100
AcDbLine
 10
29.000000052925
 20
-50.311348559031956
 30
0.0
 11
29.000000052925
 21
-47.878554829928476
 31
0.0
  0
LINE
  5
9C
330
17
100
AcDbEntity
  8
visible
100
AcDbLine
 10
60.0000000525
 20
-29.447511842813547
 30
0.0
 11
60.0000000475
 21
-28.147621673893287
 31
0.0
  0
LINE
  5
9D
330
17
100
AcDbEntity
  8
visible
100
AcDbLine
 10
60.0000000525
 20
-34.447089396354635
 30
0.0
 11
60.0000000525
 21
-29.447511842813547
 31
0.0
  0
LINE
  5
9E
330
17
100
AcDbEntity
  8
visible
100
AcDbLine
 10
60.000000047499995
 20
-33.14719922743438
 30
0.0
 11
60.000000047499995
 21
-28.14762167389329
 31
0.0
  0
LINE
  5
9F
330
17
100
AcDbEntity
  8
visible
100
AcDbLine
 10
-59.999999952500005
 20
-33.14719922751237
 30
0.0
 11
-59.999999952500005
 21
-28.14762167397128
 31
0.0
  0
LINE
  5
A0
330
17
100
AcDbEntity
  8
visible
100
AcDbLine
 10
60.0000000525
 20
-27.847647025680406
 30
0.0
 11
60.0000000525
 21
-25.447849799980684
 31
0.0
  0
LINE
  5
A1
330
17
100
AcDbEntity
  8
visible
100
AcDbLine
 10
-59.999999952500005
 20
-26.54775685683814
 30
0.0
 11
-59.99999994750001
 21
-27.847647025758402
 31
0.0
  0
LINE
  5
A2
330
17
100
AcDbEntity
  8
visible
100
AcDbLine
 10
-59.999999952500005
 20
-26.547756856838138
 30
0.0
 11
-59.999999952500005
 21
-24.147959631138416
 31
0.0
  0
LINE
  5
A3
330
17
100
AcDbEntity
  8
visible
100
AcDbLine
 10
60.0000000525
 20
-27.84764702568041
 30
0.0
 11
60.0000000475
 21
-26.54775685676015
 31
0.0
  0
LINE
  5
A4
330
17
100
AcDbEntity
  8
visible
100
AcDbLine
 10
60.0000000525
 20
-25.44784979998068
 30
0.0
 11
60.0000000475
 21
-24.14795963106042
 31
0.0
  0
LINE
  5
A5
330
17
100
AcDbEntity
  8
visible
100
AcDbLine
 10
60.000000047499995
 20
-26.54775685676015
 30
0.0
 11
60.000000047499995
 21
-24.147959631060427
 31
0.0
  0
ELLIPSE
  5
A6
330
17
100
AcDbEntity
  8
visible
100
AcDbEllipse
 10
-19.199999952099997
 20
-6.253471651877618
 30
0.0
 11
-0.8
 21
-3.0771830900659476e-09
 31
0.0
 40
0.999915510708217
 41
-6.28318531102574
 42
-5.528216470013784
  0
LINE
  5
A7
330
17
100
AcDbEntity
  8
visible
100
AcDbLine
 10
-14.999999951849999
 20
-6.318466160320905
 30
0.0
 11
-14.999999951849999
 21
-6.136481536672066
 31
0.0
  0
LINE
  5
A8
330
17
100
AcDbEntity
  8
visible
100
AcDbLine
 10
-19.999999952099998
 20
-6.253471651878139
 30
0.0
 11
-19.999999952099998
 21
-6.201475463787077
 31
0.0
  0
LINE
  5
A9
330
17
100
AcDbEntity
  8
visible
100
AcDbLine
 10
-19.999999952299998
 20
-6.201476045121325
 30
0.0
 11
-19.999999952099998
 21
-6.253471651878136
 31
0.0
  0
ELLIPSE
  5
AA
330
17
100
AcDbEntity
  8
visible
100
AcDbEllipse
 10
-19.199999952299997
 20
-6.201476045120806
 30
0.0
 11
-0.8
 21
-3.0771830900659476e-09
 31
0.0
 40
0.999915510708217
 41
-6.28318531102574
 42
-5.435204215315708
  0
ELLIPSE
  5
AB
330
17
100
AcDbEntity
  8
visible
100
AcDbEllipse
 10
19.2000000479
 20
-6.2534716518526565
 30
0.0
 11
-0.8
 21
-3.0771830900659476e-09
 31
0.0
 40
0.999915510708217
 41
-3.896561498457489
 42
-3.141592657435947
  0
ELLIPSE
  5
AC
330
17
100
AcDbEntity
  8
visible
100
AcDbEllipse
 10
19.2000000477
 20
-6.201476045095845
 30
0.0
 11
-0.8
 21
-3.0771830900659476e-09
 31
0.0
 40
0.999915510708217
 41
-3.9895737531529227
 42
-3.141592657435947
  0
LINE
  5
AD
330
17
100
AcDbEntity
  8
visible
100
AcDbLine
 10
20.000000047900002
 20
-6.253471651852138
 30
0.0
 11
20.000000047700002
 21
-6.201476045095327
 31
0.0
  0
ELLIPSE
  5
AE
330
17
100
AcDbEntity
  8
visible
100
AcDbEllipse
 10
-14.9999999523
 20
-6.201476045118078
 30
0.0
 11
-5.0
 21
-0.0
 31
0.0
 40
0.012998901689202595
 41
4.71238898043469
 42
6.283185307229586
  0
ELLIPSE
  5
AF
330
17
100
AcDbEntity
  8
visible
100
AcDbEllipse
 10
-14.999999952509999
 20
-6.146880658023427
 30
0.0
 11
-5.19956073644361e-13
 21
0.8
 31
0.0
 40
1e-10
 41
-4.725388248175598
 42
-3.154591921380701
  0
ELLIPSE
  5
B0
330
17
100
AcDbEntity
  8
visible
100
AcDbEllipse
 10
15.0000000477
 20
-6.20147604509858
 30
0.0
 11
-5.0
 21
5.049136391372298e-28
 31
0.0
 40
0.012998901689202595
 41
3.1415926536397936
 42
4.712388980434691
  0
ELLIPSE
  5
B1
330
17
100
AcDbEntity
  8
visible
100
AcDbEllipse
 10
15.000000047490001
 20
-6.146880658003923
 30
0.0
 11
-5.181381329582005e-13
 21
0.8
 31
0.0
 40
1e-10
 41
-4.725388248175598
 42
-3.154591921380701
  0
LINE
  5
B2
330
17
100
AcDbEntity
  8
visible
100
AcDbLine
 10
15.000000047450001
 20
-6.136481536652568
 30
0.0
 11
6.970915456104716
 21
-6.136481536657786
 31
0.0
  0
LINE
  5
B3
330
17
100
AcDbEntity
  8
visible
100
AcDbLine
 10
-6.9709153612045895
 20
-6.136481536666848
 30
0.0
 11
-14.999999952549999
 21
-6.136481536672066
 31
0.0
  0
LINE
  5
B4
330
17
100
AcDbEntity
  8
visible
100
AcDbLine
 10
-19.99999995189
 20
11.047666707592086
 30
0.0
 11
-19.99999995189
 21
11.045327953433485
 31
0.0
  0
LINE
  5
B5
330
17
100
AcDbEntity
  8
visible
100
AcDbLine
 10
20.00000004811
 20
10.990471296305373
 30
0.0
 11
20.00000004811
 21
50.487133969279945
 31
0.0
  0
LINE
  5
B6
330
17
100
AcDbEntity
  8
visible
100
AcDbLine
 10
20.000000047900002
 20
-6.2534716518521405
 30
0.0
 11
20.000000047900002
 21
0.1459876166804488
 31
0.0
  0
LINE
  5
B7
330
17
100
AcDbEntity
  8
visible
100
AcDbLine
 10
-19.99999995189
 20
10.990471296279374
 30
0.0
 11
-19.99999995211
 21
11.047666463711865
 31
0.0
  0
LINE
  5
B8
330
17
100
AcDbEntity
  8
visible
100
AcDbLine
 10
-19.999999952299998
 20
-6.2014760451213276
 30
0.0
 11
-19.999999952299998
 21
0.19798322341126173
 31
0.0
  0
LINE
  5
B9
330
17
100
AcDbEntity
  8
visible
100
AcDbLine
 10
20.000000047700002
 20
-6.201476045095329
 30
0.0
 11
20.000000047700002
 21
0.1979832234372605
 31
0.0
  0
LINE
  5
BA
330
17
100
AcDbEntity
  8
visible
100
AcDbLine
 10
20.00000004811
 20
50.48713396927993
 30
0.0
 11
20.00000004789
 21
50.54432913671242
 31
0.0
  0
LINE
  5
BB
330
17
100
AcDbEntity
  8
visible
100
AcDbLine
 10
20.00000004811
 20
10.990471296305365
 30
0.0
 11
20.00000004789
 21
11.047666463737857
 31
0.0
  0
LINE
  5
BC
330
17
100
AcDbEntity
  8
visible
100
AcDbLine
 10
20.000000047900002
 20
0.14598761668044347
 30
0.0
 11
20.000000047700002
 21
0.19798322343725389
 31
0.0
  0
LINE
  5
BD
330
17
100
AcDbEntity
  8
visible
100
AcDbLine
 10
-19.99999995211
 20
11.398637413454907
 30
0.0
 11
-19.99999995211
 21
11.39629829901888
 31
0.0
  0
LINE
  5
BE
330
17
100
AcDbEntity
  8
visible
100
AcDbLine
 10
-19.99999995211
 20
11.066126196113132
 30
0.0
 11
-19.99999995211
 21
11.047666463711856
 31
0.0
  0
LINE
  5
BF
330
17
100
AcDbEntity
  8
visible
100
AcDbLine
 10
20.00000004789
 20
11.047666463737869
 30
0.0
 11
20.00000004789
 21
50.54432913671244
 31
0.0
  0
ELLIPSE
  5
C0
330
17
100
AcDbEntity
  8
visible
100
AcDbEllipse
 10
-9.999999953335
 20
8.366393022979167
 30
0.0
 11
0.9
 21
3.4618309763241314e-09
 31
0.0
 40
0.999915510708217
 41
4.712388976538536
 42
6.283185307179586
  0
ELLIPSE
  5
C1
330
17
100
AcDbEntity
  8
visible
100
AcDbEllipse
 10
-9.999999953335
 20
8.366393022979167
 30
0.0
 11
0.9
 21
3.4618309763241314e-09
 31
0.0
 40
0.999915510708217
 41
0.0
 42
3.141592653589793
  0
ELLIPSE
  5
C2
330
17
100
AcDbEntity
  8
visible
100
AcDbEllipse
 10
-9.999999953335
 20
8.366393022979167
 30
0.0
 11
0.9
 21
3.4618309763241314e-09
 31
0.0
 40
0.999915510708217
 41
3.141592653589793
 42
4.712388976538536
  0
ELLIPSE
  5
C3
330
17
100
AcDbEntity
  8
visible
100
AcDbEllipse
 10
10.000000046665
 20
8.36639302299217
 30
0.0
 11
0.9
 21
3.4618309763241314e-09
 31
0.0
 40
0.999915510708217
 41
4.712388976538536
 42
6.283185307179586
  0
ELLIPSE
  5
C4
330
17
100
AcDbEntity
  8
visible
100
AcDbEllipse
 10
10.000000046665
 20
8.36639302299217
 30
0.0
 11
0.9
 21
3.4618309763241314e-09
 31
0.0
 40
0.999915510708217
 41
0.0
 42
3.141592653589793
  0
ELLIPSE
  5
C5
330
17
100
AcDbEntity
  8
visible
100
AcDbEllipse
 10
10.000000046665
 20
8.36639302299217
 30
0.0
 11
0.9
 21
3.4618309763241314e-09
 31
0.0
 40
0.999915510708217
 41
3.141592653589793
 42
4.712388976538536
  0
ELLIPSE
  5
C6
330
17
100
AcDbEntity
  8
visible
100
AcDbEllipse
 10
-9.999999953335
 20
54.86246427091126
 30
0.0
 11
0.9
 21
3.4618309763241314e-09
 31
0.0
 40
0.999915510708217
 41
4.712388976538536
 42
6.283185307179586
  0
ELLIPSE
  5
C7
330
17
100
AcDbEntity
  8
visible
100
AcDbEllipse
 10
-9.999999953335
 20
54.86246427091126
 30
0.0
 11
0.9
 21
3.4618309763241314e-09
 31
0.0
 40
0.999915510708217
 41
0.0
 42
3.141592653589793
  0
ELLIPSE
  5
C8
330
17
100
AcDbEntity
  8
visible
100
AcDbEllipse
 10
-9.999999953335
 20
54.86246427091126
 30
0.0
 11
0.9
 21
3.4618309763241314e-09
 31
0.0
 40
0.999915510708217
 41
3.141592653589793
 42
4.712388976538536
  0
ELLIPSE
  5
C9
330
17
100
AcDbEntity
  8
visible
100
AcDbEllipse
 10
10.000000046665
 20
54.862464270924264
 30
0.0
 11
0.9
 21
3.4618309763241314e-09
 31
0.0
 40
0.999915510708217
 41
4.712388976538536
 42
6.283185307179586
  0
ELLIPSE
  5
CA
330
17
100
AcDbEntity
  8
visible
100
AcDbEllipse
 10
10.000000046665
 20
54.862464270924264
 30
0.0
 11
0.9
 21
3.4618309763241314e-09
 31
0.0
 40
0.999915510708217
 41
0.0
 42
3.141592653589793
  0
ELLIPSE
  5
CB
330
17
100
AcDbEntity
  8
visible
100
AcDbEllipse
 10
10.000000046665
 20
54.862464270924264
 30
0.0
 11
0.9
 21
3.4618309763241314e-09
 31
0.0
 40
0.999915510708217
 41
3.141592653589793
 42
4.712388976538536
  0
ELLIPSE
  5
CC
330
17
100
AcDbEntity
  8
visible
100
AcDbEllipse
 10
-9.999999952985
 20
8.275400711154745
 30
0.0
 11
0.9
 21
3.4618309763241314e-09
 31
0.0
 40
0.999915510708217
 41
0.05057711607925075
 42
3.091015537510536
  0
ELLIPSE
  5
CD
330
17
100
AcDbEntity
  8
visible
100
AcDbEllipse
 10
10.000000047015
 20
8.275400711167748
 30
0.0
 11
0.9
 21
3.4618309763241314e-09
 31
0.0
 40
0.999915510708217
 41
0.05057711607925075
 42
3.091015537510536
  0
ELLIPSE
  5
CE
330
17
100
AcDbEntity
  8
visible
100
AcDbEllipse
 10
-9.999999952985
 20
54.77147195908684
 30
0.0
 11
0.9
 21
3.4618309763241314e-09
 31
0.0
 40
0.999915510708217
 41
0.05057711607921922
 42
3.091015537510521
  0
ELLIPSE
  5
CF
330
17
100
AcDbEntity
  8
visible
100
AcDbEllipse
 10
10.000000047015
 20
54.77147195909984
 30
0.0
 11
0.9
 21
3.4618309763241314e-09
 31
0.0
 40
0.999915510708217
 41
0.05057711607921922
 42
3.091015537510521
  0
ELLIPSE
  5
D0
330
17
100
AcDbEntity
  8
visible
100
AcDbEllipse
 10
5.000000058430487e-08
 20
-8.299298788873969
 30
0.0
 11
58.0
 21
0.0
 31
0.0
 40
0.012998901689202595
 41
-6.283185307179586
 42
-4.71238898033469
  0
ELLIPSE
  5
D1
330
17
100
AcDbEntity
  8
visible
100
AcDbEllipse
 10
5.000000058430487e-08
 20
-8.299298788873969
 30
0.0
 11
58.0
 21
0.0
 31
0.0
 40
0.012998901689202595
 41
-4.71238898033469
 42
-3.141592653589793
  0
LINE
  5
D2
330
17
100
AcDbEntity
  8
visible
100
AcDbLine
 10
4.710000055041519e-08
 20
-7.54536249090021
 30
0.0
 11
4.710000055041519e-08
 21
-21.644171191886088
 31
0.0
  0
ELLIPSE
  5
D3
330
17
100
AcDbEntity
  8
visible
100
AcDbEllipse
 10
5.000000058430487e-08
 20
-22.398107489859832
 30
0.0
 11
58.0
 21
0.0
 31
0.0
 40
0.012998901689202595
 41
-6.283185307179586
 42
-4.71238898033469
  0
ELLIPSE
  5
D4
330
17
100
AcDbEntity
  8
visible
100
AcDbEllipse
 10
5.000000058430487e-08
 20
-22.398107489859832
 30
0.0
 11
58.0
 21
0.0
 31
0.0
 40
0.012998901689202595
 41
-4.71238898033469
 42
-3.141592653589793
  0
ELLIPSE
  5
D5
330
17
100
AcDbEntity
  8
visible
100
AcDbEllipse
 10
5.000000058430487e-08
 20
-19.99831026416011
 30
0.0
 11
58.0
 21
0.0
 31
0.0
 40
0.012998901689202595
 41
-6.283185307179586
 42
-6.16220072054233
  0
LINE
  5
D6
330
17
100
AcDbEntity
  8
visible
100
AcDbLine
 10
57.57603673158913
 20
-19.90731795229827
 30
0.0
 11
57.57603673158913
 21
-12.60793472412829
 31
0.0
  0
ELLIPSE
  5
D7
330
17
100
AcDbEntity
  8
visible
100
AcDbEllipse
 10
5.000000058430487e-08
 20
-12.698927035990124
 30
0.0
 11
58.0
 21
0.0
 31
0.0
 40
0.012998901689202595
 41
-6.283185307179586
 42
-6.162200720542346
  0
LINE
  5
D8
330
17
100
AcDbEntity
  8
visible
100
AcDbLine
 10
-17.098344232567715
 20
1.3451836968603437
 30
0.0
 11
-17.098344232275803
 21
1.269292701475926
 31
0.0
  0
SPLINE
  5
D9
330
17
100
AcDbEntity
  8
visible
100
AcDbSpline
 70
0
 71
3
 72
11
 73
7
 74
0
 40
0.0
 40
0.0
 40
0.0
 40
0.0
 40
0.512213144857442
 40
0.512213144857442
 40
0.512213144857442
 40
0.9902426747924318
 40
0.9902426747924318
 40
0.9902426747924318
 40
0.9902426747924318
 10
-16.547852027672363
 20
0.5597596286995525
 30
0.0
 10
-16.72503333625017
 20
0.8020488419902695
 30
0.0
 10
-16.87077138000989
 20
1.0132363280477623
 30
0.0
 10
-16.962775678884867
 20
1.148163666457492
 30
0.0
 10
-17.050182762790296
 20
1.2773237586530302
 30
0.0
 10
-17.09535283177749
 20
1.3430272457174566
 30
0.0
 10
-17.098285885846508
 20
1.3452741276507754
 30
0.0
  0
SPLINE
  5
DA
330
17
100
AcDbEntity
  8
visible
100
AcDbSpline
 70
0
 71
1
 72
4
 73
2
 74
0
 40
0.0
 40
0.0
 40
1.0
 40
1.0
 10
-17.098285885846508
 20
1.3452741276507751
 30
0.0
 10
-17.098344232567698
 20
1.345183696860346
 30
0.0
  0
SPLINE
  5
DB
330
17
100
AcDbEntity
  8
visible
100
AcDbSpline
 70
0
 71
2
 72
6
 73
3
 74
0
 40
0.0
 40
0.0
 40
0.0
 40
0.9999996816477258
 40
0.9999996816477258
 40
0.9999996816477258
 10
-14.999999952549997
 20
-1.2867909162088438
 30
0.0
 10
-15.860100376085265
 20
-0.38507631126424424
 30
0.0
 10
-16.547852027992487
 20
0.5597596284402286
 30
0.0
  0
ELLIPSE
  5
DC
330
17
100
AcDbEntity
  8
visible
100
AcDbEllipse
 10
-1.9999999525499996
 20
11.162056798588551
 30
0.0
 11
-18.0
 21
-6.923661952648382e-08
 31
0.0
 40
0.9999155107082172
 41
-5.519398814627909
 42
-4.992187460157883
  0
SPLINE
  5
DD
330
17
100
AcDbEntity
  8
visible
100
AcDbSpline
 70
0
 71
3
 72
11
 73
7
 74
0
 40
0.0
 40
0.0
 40
0.0
 40
0.0
 40
0.49814708096346
 40
0.49814708096346
 40
0.49814708096346
 40
0.6065339348087813
 40
0.6065339348087813
 40
0.6065339348087813
 40
0.6065339348087813
 10
-6.970915361204613
 20
-6.1364815366668415
 30
0.0
 10
-6.172306302652417
 20
-6.365934435763407
 30
0.0
 10
-5.359222991929925
 20
-6.540768832203369
 30
0.0
 10
-4.542309345795554
 20
-6.658487645643676
 30
0.0
 10
-4.363365696730262
 20
-6.684322762627431
 30
0.0
 10
-4.1825958987262295
 20
-6.707603919482064
 30
0.0
 10
-3.999999951783471
 20
-6.728331116207576
 30
0.0
  0
LINE
  5
DE
330
17
100
AcDbEntity
  8
visible
100
AcDbLine
 10
-3.9999999526499996
 20
-6.6989778276342875
 30
0.0
 11
-3.9999999525370926
 21
-6.728331120567527
 31
0.0
  0
ELLIPSE
  5
DF
330
17
100
AcDbEntity
  8
visible
100
AcDbEllipse
 10
-1.9999999526499996
 20
11.188054601966954
 30
0.0
 11
-18.0
 21
-6.923661952648382e-08
 31
0.0
 40
0.9999155107082172
 41
-4.823729998571808
 42
-4.789410640311959
  0
LINE
  5
E0
330
17
100
AcDbEntity
  8
visible
100
AcDbLine
 10
-19.99999995219
 20
11.068464706414595
 30
0.0
 11
-19.999999953459998
 21
11.39863680932034
 31
0.0
  0
LINE
  5
E1
330
17
100
AcDbEntity
  8
visible
100
AcDbLine
 10
-19.99999995219
 20
11.398637395281256
 30
0.0
 11
-19.99999995219
 21
11.39629829901888
 31
0.0
  0
LINE
  5
E2
330
17
100
AcDbEntity
  8
visible
100
AcDbLine
 10
-19.999999953459998
 20
50.8952994822949
 30
0.0
 11
-19.999999953459998
 21
11.39863680932033
 31
0.0
  0
SPLINE
  5
E3
330
17
100
AcDbEntity
  8
visible
100
AcDbSpline
 70
0
 71
1
 72
4
 73
2
 74
0
 40
0.0
 40
0.0
 40
0.004319676840086287
 40
0.004319676840086287
 10
-17.098344232275807
 20
1.2692927014759334
 30
0.0
 10
-17.098320343363426
 20
1.2692191005574038
 30
0.0
  0
SPLINE
  5
E4
330
17
100
AcDbEntity
  8
visible
100
AcDbSpline
 70
0
 71
2
 72
6
 73
3
 74
0
 40
0.0
 40
0.0
 40
0.0
 40
1.0
 40
1.0
 40
1.0
 10
-17.098320343363422
 20
1.2692191005574036
 30
0.0
 10
-17.096854029128828
 20
1.267448550569397
 30
0.0
 10
-17.042777599493327
 20
1.2657959303236748
 30
0.0
  0
ELLIPSE
  5
E5
330
17
100
AcDbEntity
  8
visible
100
AcDbEllipse
 10
2.0000000473500004
 20
11.188054601969554
 30
0.0
 11
-18.0
 21
-6.923661952648382e-08
 31
0.0
 40
0.9999155107082172
 41
-4.635367328149953
 42
-4.60104796988988
  0
ELLIPSE
  5
E6
330
17
100
AcDbEntity
  8
visible
100
AcDbEllipse
 10
-9.9999999535
 20
8.40928939855354
 30
0.0
 11
2.25
 21
8.654577440810328e-09
 31
0.0
 40
0.9999155107082172
 41
4.712388976538536
 42
6.283185307179586
  0
ELLIPSE
  5
E7
330
17
100
AcDbEntity
  8
visible
100
AcDbEllipse
 10
-9.9999999535
 20
8.40928939855354
 30
0.0
 11
2.25
 21
8.654577440810328e-09
 31
0.0
 40
0.9999155107082172
 41
0.0
 42
3.141592653589793
  0
ELLIPSE
  5
E8
330
17
100
AcDbEntity
  8
visible
100
AcDbEllipse
 10
-9.9999999535
 20
8.40928939855354
 30
0.0
 11
2.25
 21
8.654577440810328e-09
 31
0.0
 40
0.9999155107082172
 41
3.141592653589793
 42
4.712388976538536
  0
ELLIPSE
  5
E9
330
17
100
AcDbEntity
  8
visible
100
AcDbEllipse
 10
10.0000000465
 20
8.409289398566528
 30
0.0
 11
2.25
 21
8.654577440810328e-09
 31
0.0
 40
0.9999155107082172
 41
4.712388976538536
 42
6.283185307179586
  0
ELLIPSE
  5
EA
330
17
100
AcDbEntity
  8
visible
100
AcDbEllipse
 10
10.0000000465
 20
8.409289398566528
 30
0.0
 11
2.25
 21
8.654577440810328e-09
 31
0.0
 40
0.9999155107082172
 41
0.0
 42
3.141592653589793
  0
ELLIPSE
  5
EB
330
17
100
AcDbEntity
  8
visible
100
AcDbEllipse
 10
10.0000000465
 20
8.409289398566528
 30
0.0
 11
2.25
 21
8.654577440810328e-09
 31
0.0
 40
0.9999155107082172
 41
3.141592653589793
 42
4.712388976538536
  0
ELLIPSE
  5
EC
330
17
100
AcDbEntity
  8
visible
100
AcDbEllipse
 10
-9.9999999535
 20
54.90536064648563
 30
0.0
 11
2.25
 21
8.654577440810328e-09
 31
0.0
 40
0.9999155107082172
 41
6.128345968045729
 42
6.283185307179586
  0
ELLIPSE
  5
ED
330
17
100
AcDbEntity
  8
visible
100
AcDbEllipse
 10
-9.9999999535
 20
54.90536064648563
 30
0.0
 11
2.25
 21
8.654577440810328e-09
 31
0.0
 40
0.9999155107082172
 41
0.0
 42
3.141592653589793
  0
ELLIPSE
  5
EE
330
17
100
AcDbEntity
  8
visible
100
AcDbEllipse
 10
-9.9999999535
 20
54.90536064648563
 30
0.0
 11
2.25
 21
8.654577440810328e-09
 31
0.0
 40
0.9999155107082172
 41
3.141592653589793
 42
4.686858816086709
  0
ELLIPSE
  5
EF
330
17
100
AcDbEntity
  8
visible
100
AcDbEllipse
 10
10.0000000465
 20
54.90536064649862
 30
0.0
 11
2.25
 21
8.654577440810328e-09
 31
0.0
 40
0.9999155107082172
 41
4.737922441707353
 42
6.283185307179586
  0
ELLIPSE
  5
F0
330
17
100
AcDbEntity
  8
visible
100
AcDbEllipse
 10
10.0000000465
 20
54.90536064649862
 30
0.0
 11
2.25
 21
8.654577440810328e-09
 31
0.0
 40
0.9999155107082172
 41
0.0
 42
3.141592653589793
  0
ELLIPSE
  5
F1
330
17
100
AcDbEntity
  8
visible
100
AcDbEllipse
 10
10.0000000465
 20
54.90536064649862
 30
0.0
 11
2.25
 21
8.654577440810328e-09
 31
0.0
 40
0.9999155107082172
 41
3.141592653589793
 42
3.2964322124928183
  0
LINE
  5
F2
330
17
100
AcDbEntity
  8
visible
100
AcDbLine
 10
4.00000004735
 20
-6.698977827629086
 30
0.0
 11
4.000000047462907
 21
-6.728331120562326
 31
0.0
  0
LINE
  5
F3
330
17
100
AcDbEntity
  8
visible
100
AcDbLine
 10
20.00000004781
 20
11.068464706440587
 30
0.0
 11
20.000000046540002
 21
11.398636809346332
 31
0.0
  0
SPLINE
  5
F4
330
17
100
AcDbEntity
  8
visible
100
AcDbSpline
 70
0
 71
3
 72
11
 73
7
 74
0
 40
0.0
 40
0.0
 40
0.0
 40
0.0
 40
0.49814708091922105
 40
0.49814708091922105
 40
0.49814708091922105
 40
0.6065339347741134
 40
0.6065339347741134
 40
0.6065339347741134
 40
0.6065339347741134
 10
6.97091545610461
 20
-6.13648153665779
 30
0.0
 10
6.172306397549
 20
-6.365934435755373
 30
0.0
 10
5.359223086842852
 20
-6.540768832196448
 30
0.0
 10
4.542309440714714
 20
-6.658487645637772
 30
0.0
 10
4.363365791651545
 20
-6.684322762621784
 30
0.0
 10
4.18259599364973
 20
-6.707603919476641
 30
0.0
 10
4.0000000467092836
 20
-6.728331116202371
 30
0.0
  0
ELLIPSE
  5
F5
330
17
100
AcDbEntity
  8
visible
100
AcDbEllipse
 10
2.0000000474500004
 20
11.162056798591152
 30
0.0
 11
-18.0
 21
-6.923661952648382e-08
 31
0.0
 40
0.9999155107082172
 41
-4.432590508303805
 42
-3.905379153833778
  0
SPLINE
  5
F6
330
17
100
AcDbEntity
  8
visible
100
AcDbSpline
 70
0
 71
2
 72
6
 73
3
 74
0
 40
0.0
 40
0.0
 40
0.0
 40
0.9999996816477232
 40
0.9999996816477232
 40
0.9999996816477232
 10
15.000000047450003
 20
-1.2867909161893465
 30
0.0
 10
15.86010047098642
 20
-0.3850763112436244
 30
0.0
 10
16.547852122917057
 20
0.5597596284617392
 30
0.0
  0
SPLINE
  5
F7
330
17
100
AcDbEntity
  8
visible
100
AcDbSpline
 70
0
 71
3
 72
11
 73
7
 74
0
 40
0.0
 40
0.0
 40
0.0
 40
0.0
 40
0.5122131448573952
 40
0.5122131448573952
 40
0.5122131448573952
 40
0.9902426747929923
 40
0.9902426747929923
 40
0.9902426747929923
 40
0.9902426747929923
 10
16.54785212259693
 20
0.5597596287210536
 30
0.0
 10
16.72503343118049
 20
0.8020488420120736
 30
0.0
 10
16.870771474957795
 20
1.0132363280697403
 30
0.0
 10
16.9627757738539
 20
1.148163666479536
 30
0.0
 10
17.05018285777989
 20
1.2773237586753254
 30
0.0
 10
17.09535292678905
 20
1.3430272457398145
 30
0.0
 10
17.098285980881307
 20
1.3452741276730007
 30
0.0
  0
SPLINE
  5
F8
330
17
100
AcDbEntity
  8
visible
100
AcDbSpline
 70
0
 71
1
 72
4
 73
2
 74
0
 40
0.0
 40
0.0
 40
1.0
 40
1.0
 10
17.098285980881307
 20
1.3452741276730005
 30
0.0
 10
17.098344327603876
 20
1.3451836968825717
 30
0.0
  0
LINE
  5
F9
330
17
100
AcDbEntity
  8
visible
100
AcDbLine
 10
17.098344327603893
 20
1.3451836968825694
 30
0.0
 11
17.098344327895806
 21
1.2692927014981519
 31
0.0
  0
LINE
  5
FA
330
17
100
AcDbEntity
  8
visible
100
AcDbLine
 10
20.00000004781
 20
11.068464706440594
 30
0.0
 11
20.00000004781
 21
50.565127379415166
 31
0.0
  0
SPLINE
  5
FB
330
17
100
AcDbEntity
  8
visible
100
AcDbSpline
 70
0
 71
1
 72
4
 73
2
 74
0
 40
0.0
 40
0.0
 40
0.004319676891277152
 40
0.004319676891277152
 10
17.098344327895806
 20
1.2692927014981592
 30
0.0
 10
17.098320438983425
 20
1.2692191005787579
 30
0.0
  0
SPLINE
  5
FC
330
17
100
AcDbEntity
  8
visible
100
AcDbSpline
 70
0
 71
2
 72
6
 73
3
 74
0
 40
0.0
 40
0.0
 40
0.0
 40
1.0
 40
1.0
 40
1.0
 10
17.098320438983425
 20
1.2692191005787579
 30
0.0
 10
17.096854124734303
 20
1.2674485505799418
 30
0.0
 10
17.042777694471887
 20
1.265795930325436
 30
0.0
  0
LINE
  5
FD
330
17
100
AcDbEntity
  8
visible
100
AcDbLine
 10
20.000000046540002
 20
11.398636809346328
 30
0.0
 11
20.000000046540002
 21
50.8952994823209
 31
0.0
  0
ELLIPSE
  5
FE
330
17
100
AcDbEntity
  8
visible
100
AcDbEllipse
 10
-9.999999953409999
 20
8.38589137551297
 30
0.0
 11
2.25
 21
8.654577440810328e-09
 31
0.0
 40
0.9999155107082172
 41
0.005200023454966063
 42
3.13639263013484
  0
ELLIPSE
  5
FF
330
17
100
AcDbEntity
  8
visible
100
AcDbEllipse
 10
10.000000046590001
 20
8.385891375525972
 30
0.0
 11
2.25
 21
8.654577440810328e-09
 31
0.0
 40
0.9999155107082172
 41
0.00520002345494075
 42
3.1363926301348464
  0
ELLIPSE
  5
100
330
17
100
AcDbEntity
  8
visible
100
AcDbEllipse
 10
-9.999999953409999
 20
54.88196262344506
 30
0.0
 11
2.25
 21
8.654577440810328e-09
 31
0.0
 40
0.9999155107082172
 41
0.005200023454959624
 42
3.13639263013484
  0
ELLIPSE
  5
101
330
17
100
AcDbEntity
  8
visible
100
AcDbEllipse
 10
4.649000054328667e-08
 20
42.90897429833137
 30
0.0
 11
14.0
 21
5.3850704076153154e-08
 31
0.0
 40
0.999915510708217
 41
4.712388976538536
 42
6.283185307179586
  0
ELLIPSE
  5
102
330
17
100
AcDbEntity
  8
visible
100
AcDbEllipse
 10
4.649000054328667e-08
 20
42.90897429833137
 30
0.0
 11
14.0
 21
5.3850704076153154e-08
 31
0.0
 40
0.999915510708217
 41
3.141592653589793
 42
4.712388976538536
  0
ELLIPSE
  5
103
330
17
100
AcDbEntity
  8
visible
100
AcDbEllipse
 10
10.000000046590001
 20
54.881962623458065
 30
0.0
 11
2.25
 21
8.654577440810328e-09
 31
0.0
 40
0.9999155107082172
 41
0.005200023454946967
 42
3.13639263013484
  0
LINE
  5
104
330
17
100
AcDbEntity
  8
visible
100
AcDbLine
 10
20.00000004781
 20
50.56512737941515
 30
0.0
 11
20.000000046540002
 21
50.8952994823209
 31
0.0
  0
ELLIPSE
  5
105
330
17
100
AcDbEntity
  8
visible
100
AcDbEllipse
 10
-9.999999953409999
 20
8.38589137551297
 30
0.0
 11
1.15
 21
4.423450691969723e-09
 31
0.0
 40
0.999915510708217
 41
4.712388976538536
 42
6.283185307179586
  0
ELLIPSE
  5
106
330
17
100
AcDbEntity
  8
visible
100
AcDbEllipse
 10
-9.999999953409999
 20
8.38589137551297
 30
0.0
 11
1.15
 21
4.423450691969723e-09
 31
0.0
 40
0.999915510708217
 41
0.0
 42
3.141592653589793
  0
ELLIPSE
  5
107
330
17
100
AcDbEntity
  8
visible
100
AcDbEllipse
 10
-9.999999953409999
 20
8.38589137551297
 30
0.0
 11
1.15
 21
4.423450691969723e-09
 31
0.0
 40
0.999915510708217
 41
3.141592653589793
 42
4.712388976538536
  0
ELLIPSE
  5
108
330
17
100
AcDbEntity
  8
visible
100
AcDbEllipse
 10
10.000000046590001
 20
8.385891375525972
 30
0.0
 11
1.15
 21
4.423450691969723e-09
 31
0.0
 40
0.999915510708217
 41
4.712388976538536
 42
6.283185307179586
  0
ELLIPSE
  5
109
330
17
100
AcDbEntity
  8
visible
100
AcDbEllipse
 10
10.000000046590001
 20
8.385891375525972
 30
0.0
 11
1.15
 21
4.423450691969723e-09
 31
0.0
 40
0.999915510708217
 41
0.0
 42
3.141592653589793
  0
ELLIPSE
  5
10A
330
17
100
AcDbEntity
  8
visible
100
AcDbEllipse
 10
10.000000046590001
 20
8.385891375525972
 30
0.0
 11
1.15
 21
4.423450691969723e-09
 31
0.0
 40
0.999915510708217
 41
3.141592653589793
 42
4.712388976538536
  0
ELLIPSE
  5
10B
330
17
100
AcDbEntity
  8
visible
100
AcDbEllipse
 10
-9.999999953409999
 20
54.88196262344506
 30
0.0
 11
1.15
 21
4.423450691969723e-09
 31
0.0
 40
0.999915510708217
 41
4.712388976538536
 42
6.283185307179586
  0
ELLIPSE
  5
10C
330
17
100
AcDbEntity
  8
visible
100
AcDbEllipse
 10
-9.999999953409999
 20
54.88196262344506
 30
0.0
 11
1.15
 21
4.423450691969723e-09
 31
0.0
 40
0.999915510708217
 41
0.0
 42
3.141592653589793
  0
ELLIPSE
  5
10D
330
17
100
AcDbEntity
  8
visible
100
AcDbEllipse
 10
-9.999999953409999
 20
54.88196262344506
 30
0.0
 11
1.15
 21
4.423450691969723e-09
 31
0.0
 40
0.999915510708217
 41
3.141592653589793
 42
4.712388976538536
  0
ELLIPSE
  5
10E
330
17
100
AcDbEntity
  8
visible
100
AcDbEllipse
 10
10.000000046590001
 20
54.881962623458065
 30
0.0
 11
1.15
 21
4.423450691969723e-09
 31
0.0
 40
0.999915510708217
 41
4.712388976538536
 42
6.283185307179586
  0
ELLIPSE
  5
10F
330
17
100
AcDbEntity
  8
visible
100
AcDbEllipse
 10
10.000000046590001
 20
54.881962623458065
 30
0.0
 11
1.15
 21
4.423450691969723e-09
 31
0.0
 40
0.999915510708217
 41
0.0
 42
3.141592653589793
  0
ELLIPSE
  5
110
330
17
100
AcDbEntity
  8
visible
100
AcDbEllipse
 10
10.000000046590001
 20
54.881962623458065
 30
0.0
 11
1.15
 21
4.423450691969723e-09
 31
0.0
 40
0.999915510708217
 41
3.141592653589793
 42
4.712388976538536
  0
ELLIPSE
  5
111
330
17
100
AcDbEntity
  8
visible
100
AcDbEllipse
 10
-9.999999953345
 20
8.368992803317013
 30
0.0
 11
1.15
 21
4.423450691969723e-09
 31
0.0
 40
0.999915510708217
 41
0.00734789223567156
 42
3.1342447613540907
  0
ELLIPSE
  5
112
330
17
100
AcDbEntity
  8
visible
100
AcDbEllipse
 10
10.000000046655
 20
8.368992803330002
 30
0.0
 11
1.15
 21
4.423450691969723e-09
 31
0.0
 40
0.999915510708217
 41
0.00734789223567156
 42
3.1342447613541156
  0
ELLIPSE
  5
113
330
17
100
AcDbEntity
  8
visible
100
AcDbEllipse
 10
-9.999999953345
 20
54.86506405124911
 30
0.0
 11
1.15
 21
4.423450691969723e-09
 31
0.0
 40
0.999915510708217
 41
0.007347892235585185
 42
3.134244761353991
  0
ELLIPSE
  5
114
330
17
100
AcDbEntity
  8
visible
100
AcDbEllipse
 10
10.000000046655
 20
54.865064051262095
 30
0.0
 11
1.15
 21
4.423450691969723e-09
 31
0.0
 40
0.999915510708217
 41
0.007347892235609832
 42
3.134244761353991
  0
LINE
  5
115
330
17
100
AcDbEntity
  8
visible
100
AcDbLine
 10
-14.99999994815
 20
-6.318466160320902
 30
0.0
 11
-14.99999994815
 21
-6.136481536672066
 31
0.0
  0
LINE
  5
116
330
17
100
AcDbEntity
  8
visible
100
AcDbLine
 10
15.00000005185
 20
-6.781778191213135
 30
0.0
 11
15.00000005185
 21
-6.136481536652568
 31
0.0
  0
LINE
  5
117
330
17
100
AcDbEntity
  8
visible
100
AcDbLine
 10
-19.9999999479
 20
-6.802686014177787
 30
0.0
 11
-19.9999999479
 21
-6.201473318445856
 31
0.0
  0
LINE
  5
118
330
17
100
AcDbEntity
  8
visible
100
AcDbLine
 10
20.0000000521
 20
-0.8459285741417517
 30
0.0
 11
20.0000000523
 21
-0.8979241808985622
 31
0.0
  0
LINE
  5
119
330
17
100
AcDbEntity
  8
visible
100
AcDbLine
 10
20.0000000521
 20
-6.802686014198173
 30
0.0
 11
20.0000000521
 21
-0.8459285741417393
 31
0.0
  0
LINE
  5
11A
330
17
100
AcDbEntity
  8
visible
100
AcDbLine
 10
20.0000000523
 20
-6.802686014199139
 30
0.0
 11
20.0000000523
 21
-0.897924180898551
 31
0.0
  0
LINE
  5
11B
330
17
100
AcDbEntity
  8
visible
100
AcDbLine
 10
-26.499999948425
 20
5.398643785386611
 30
0.0
 11
-26.499999948425
 21
6.208975315304542
 31
0.0
  0
LINE
  5
11C
330
17
100
AcDbEntity
  8
visible
100
AcDbLine
 10
26.500000051575
 20
5.398643785421058
 30
0.0
 11
26.500000051575
 21
6.208975315338989
 31
0.0
  0
LINE
  5
11D
330
17
100
AcDbEntity
  8
visible
100
AcDbLine
 10
-29.499999948575
 20
5.4290412139504385
 30
0.0
 11
-29.499999948575
 21
6.1699803100642185
 31
0.0
  0
ELLIPSE
  5
11E
330
17
100
AcDbEntity
  8
visible
100
AcDbEllipse
 10
-26.499999948465
 20
5.40044363023614
 30
0.0
 11
-5.19956073644361e-13
 21
0.8
 31
0.0
 40
1e-10
 41
-3.141592653589793
 42
-3.1285933857991304
  0
ELLIPSE
  5
11F
330
17
100
AcDbEntity
  8
visible
100
AcDbEllipse
 10
-26.499999948465
 20
5.40044363023614
 30
0.0
 11
-5.19956073644361e-13
 21
0.8
 31
0.0
 40
1e-10
 41
-3.154591921380701
 42
-3.141592653589793
  0
LINE
  5
120
330
17
100
AcDbEntity
  8
visible
100
AcDbLine
 10
26.500000051535
 20
4.600511221704011
 30
0.0
 11
18.827412993019966
 21
4.600511221699024
 31
0.0
  0
LINE
  5
121
330
17
100
AcDbEntity
  8
visible
100
AcDbLine
 10
-18.827412835841873
 20
4.600511221674551
 30
0.0
 11
-26.499999948465
 21
4.600511221669564
 31
0.0
  0
ELLIPSE
  5
122
330
17
100
AcDbEntity
  8
visible
100
AcDbEllipse
 10
26.500000051535
 20
5.400443630270587
 30
0.0
 11
-5.19956073644361e-13
 21
0.8
 31
0.0
 40
1e-10
 41
-3.141592653589793
 42
-3.1285933857991304
  0
ELLIPSE
  5
123
330
17
100
AcDbEntity
  8
visible
100
AcDbEllipse
 10
26.500000051535
 20
5.400443630270587
 30
0.0
 11
-5.19956073644361e-13
 21
0.8
 31
0.0
 40
1e-10
 41
-3.154591921380701
 42
-3.141592653589793
  0
LINE
  5
124
330
17
100
AcDbEntity
  8
visible
100
AcDbLine
 10
29.500000051425
 20
5.429041213988779
 30
0.0
 11
29.500000051425
 21
8.828753950396717
 31
0.0
  0
ELLIPSE
  5
125
330
17
100
AcDbEntity
  8
visible
100
AcDbEllipse
 10
-26.499999948575
 20
4.629108805385812
 30
0.0
 11
-2.2
 21
-0.0
 31
0.0
 40
0.012998901689202595
 41
5.000000058430488e-11
 42
1.5707963268448966
  0
LINE
  5
126
330
17
100
AcDbEntity
  8
visible
100
AcDbLine
 10
-28.699999951425
 20
5.370046201668927
 30
0.0
 11
-28.699999948574998
 21
4.629108805384379
 31
0.0
  0
ELLIPSE
  5
127
330
17
100
AcDbEntity
  8
visible
100
AcDbEllipse
 10
-26.499999951425
 20
5.3700462016703625
 30
0.0
 11
-2.2
 21
-0.0
 31
0.0
 40
0.012998901689202595
 41
4.71238898043469
 42
6.283185307229586
  0
ELLIPSE
  5
128
330
17
100
AcDbEntity
  8
visible
100
AcDbEllipse
 10
26.500000051425
 20
4.629108805420259
 30
0.0
 11
-2.2
 21
-0.0
 31
0.0
 40
0.012998901689202595
 41
1.5707963268448966
 42
3.141592653639793
  0
LINE
  5
129
330
17
100
AcDbEntity
  8
visible
100
AcDbLine
 10
26.500000048465
 20
5.398643785421058
 30
0.0
 11
19.109250175239158
 21
5.398643785416255
 31
0.0
  0
LINE
  5
12A
330
17
100
AcDbEntity
  8
visible
100
AcDbLine
 10
-19.109250021185584
 20
5.398643785391414
 30
0.0
 11
-26.499999951535
 21
5.398643785386611
 31
0.0
  0
LINE
  5
12B
330
17
100
AcDbEntity
  8
visible
100
AcDbLine
 10
28.700000051425
 20
4.629108805421694
 30
0.0
 11
28.700000048575
 21
5.370046201706242
 31
0.0
  0
ELLIPSE
  5
12C
330
17
100
AcDbEntity
  8
visible
100
AcDbEllipse
 10
26.500000048575
 20
5.37004620170481
 30
0.0
 11
-2.2
 21
-0.0
 31
0.0
 40
0.012998901689202595
 41
3.141592653639793
 42
4.71238898043469
  0
LINE
  5
12D
330
17
100
AcDbEntity
  8
visible
100
AcDbLine
 10
23.000000050675002
 20
4.8240923307560175
 30
0.0
 11
23.000000050825
 21
4.78509562568841
 31
0.0
  0
LINE
  5
12E
330
17
100
AcDbEntity
  8
visible
100
AcDbLine
 10
23.000000050675002
 20
4.824092330756025
 30
0.0
 11
26.000000050675002
 21
4.824092330757974
 31
0.0
  0
LINE
  5
12F
330
17
100
AcDbEntity
  8
visible
100
AcDbLine
 10
23.000000050825
 20
4.785095625688421
 30
0.0
 11
26.000000050825
 21
4.785095625690371
 31
0.0
  0
LINE
  5
130
330
17
100
AcDbEntity
  8
visible
100
AcDbLine
 10
26.000000050675002
 20
4.824092330757979
 30
0.0
 11
26.000000050825
 21
4.785095625690371
 31
0.0
  0
LINE
  5
131
330
17
100
AcDbEntity
  8
visible
100
AcDbLine
 10
23.000000049175
 20
5.214059381432103
 30
0.0
 11
23.000000049325003
 21
5.175062676364495
 31
0.0
  0
LINE
  5
132
330
17
100
AcDbEntity
  8
visible
100
AcDbLine
 10
23.000000049175
 20
5.214059381432102
 30
0.0
 11
26.000000049175
 21
5.214059381434051
 31
0.0
  0
LINE
  5
133
330
17
100
AcDbEntity
  8
visible
100
AcDbLine
 10
26.000000049175
 20
5.2140593814340495
 30
0.0
 11
26.000000049325003
 21
5.175062676366442
 31
0.0
  0
LINE
  5
134
330
17
100
AcDbEntity
  8
visible
100
AcDbLine
 10
23.000000049325
 20
5.175062676364498
 30
0.0
 11
26.000000049325
 21
5.175062676366448
 31
0.0
  0
LINE
  5
135
330
17
100
AcDbEntity
  8
visible
100
AcDbLine
 10
26.500000048465
 20
10.398221338962145
 30
0.0
 11
19.9902525484597
 21
10.398221338957914
 31
0.0
  0
ELLIPSE
  5
136
330
17
100
AcDbEntity
  8
visible
100
AcDbEllipse
 10
26.500000048575
 20
10.369623755245897
 30
0.0
 11
-2.2
 21
-0.0
 31
0.0
 40
0.012998901689202595
 41
3.141592653639793
 42
4.71238898043469
  0
ELLIPSE
  5
137
330
17
100
AcDbEntity
  8
visible
100
AcDbEllipse
 10
-24.499999948865
 20
10.504012397292158
 30
0.0
 11
-5.19956073644361e-13
 21
0.8
 31
0.0
 40
1e-10
 41
-1.7033383896013339
 42
-1.5837955945858044
  0
ELLIPSE
  5
138
330
17
100
AcDbEntity
  8
visible
100
AcDbEllipse
 10
-26.499999951425
 20
10.36962375521145
 30
0.0
 11
-2.2
 21
-0.0
 31
0.0
 40
0.012998901689202595
 41
4.71238898043469
 42
6.283185307229586
  0
LINE
  5
139
330
17
100
AcDbEntity
  8
visible
100
AcDbLine
 10
-19.990252440864705
 20
10.39822133893193
 30
0.0
 11
-26.499999951535
 21
10.398221338927698
 31
0.0
  0
LINE
  5
13A
330
17
100
AcDbEntity
  8
visible
100
AcDbLine
 10
-29.499999951425
 20
6.169978610234992
 30
0.0
 11
-29.499999948575
 21
5.429041213950444
 31
0.0
  0
LINE
  5
13B
330
17
100
AcDbEntity
  8
visible
100
AcDbLine
 10
-29.499999951425
 20
6.169978610234989
 30
0.0
 11
-29.499999951425
 21
9.569691346642927
 31
0.0
  0
LINE
  5
13C
330
17
100
AcDbEntity
  8
visible
100
AcDbLine
 10
29.500000051425
 20
5.429041213988782
 30
0.0
 11
29.500000048575
 21
6.16997861027333
 31
0.0
  0
LINE
  5
13D
330
17
100
AcDbEntity
  8
visible
100
AcDbLine
 10
23.000000050825
 20
4.785095625688424
 30
0.0
 11
23.000000050825
 21
4.824092330756025
 31
0.0
  0
LINE
  5
13E
330
17
100
AcDbEntity
  8
visible
100
AcDbLine
 10
26.000000050825
 20
4.785095625690371
 30
0.0
 11
26.000000050825
 21
4.824092330757978
 31
0.0
  0
LINE
  5
13F
330
17
100
AcDbEntity
  8
visible
100
AcDbLine
 10
23.000000049325
 20
5.175062676364501
 30
0.0
 11
23.000000049325
 21
5.214059381432102
 31
0.0
  0
LINE
  5
140
330
17
100
AcDbEntity
  8
visible
100
AcDbLine
 10
26.000000049325
 20
5.175062676366462
 30
0.0
 11
26.000000049325
 21
5.214059381434055
 31
0.0
  0
LINE
  5
141
330
17
100
AcDbEntity
  8
visible
100
AcDbLine
 10
29.500000051425
 20
8.828753950396731
 30
0.0
 11
29.500000048575
 21
9.569691346681278
 31
0.0
  0
LINE
  5
142
330
17
100
AcDbEntity
  8
visible
100
AcDbLine
 10
29.500000048575
 20
6.16997861027333
 30
0.0
 11
29.500000048575
 21
9.569691346681267
 31
0.0
  0
LINE
  5
143
330
17
100
AcDbEntity
  8
visible
100
AcDbLine
 10
26.500000051075002
 20
10.519611079352345
 30
0.0
 11
26.500000048925003
 21
11.078563851988056
 31
0.0
  0
LINE
  5
144
330
17
100
AcDbEntity
  8
visible
100
AcDbLine
 10
-24.499999948825
 20
10.493613275940785
 30
0.0
 11
-24.499999948825
 21
11.104561655333313
 31
0.0
  0
LINE
  5
145
330
17
100
AcDbEntity
  8
visible
100
AcDbLine
 10
-26.499999951075
 20
11.078563851953604
 30
0.0
 11
-26.499999948925
 21
10.519611079317892
 31
0.0
  0
LINE
  5
146
330
17
100
AcDbEntity
  8
visible
100
AcDbLine
 10
26.500000051075002
 20
10.519611079352343
 30
0.0
 11
26.500000051075002
 21
13.91932381576028
 31
0.0
  0
LINE
  5
147
330
17
100
AcDbEntity
  8
visible
100
AcDbLine
 10
26.500000048925
 20
11.078563851988047
 30
0.0
 11
26.500000048925
 21
14.478276588395985
 31
0.0
  0
LINE
  5
148
330
17
100
AcDbEntity
  8
visible
100
AcDbLine
 10
-26.499999948924998
 20
10.519611079317894
 30
0.0
 11
-26.499999948924998
 21
11.078565057424257
 31
0.0
  0
LINE
  5
149
330
17
100
AcDbEntity
  8
visible
100
AcDbLine
 10
-26.499999951075
 20
11.078563851953602
 30
0.0
 11
-26.499999951075
 21
14.478276588361538
 31
0.0
  0
LINE
  5
14A
330
17
100
AcDbEntity
  8
visible
100
AcDbLine
 10
26.500000051075002
 20
13.919323815760293
 30
0.0
 11
26.500000048925003
 21
14.478276588396005
 31
0.0
  0
ELLIPSE
  5
14B
330
17
100
AcDbEntity
  8
visible
100
AcDbEllipse
 10
24.500000048925
 20
15.278208996961268
 30
0.0
 11
-1.2
 21
-0.0
 31
0.0
 40
0.012998901689202595
 41
3.141592653639793
 42
4.71238898043469
  0
LINE
  5
14C
330
17
100
AcDbEntity
  8
visible
100
AcDbLine
 10
24.500000048865
 20
15.293807678988301
 30
0.0
 11
20.00000004789
 21
15.293807678985377
 31
0.0
  0
LINE
  5
14D
330
17
100
AcDbEntity
  8
visible
100
AcDbLine
 10
-19.999999953459994
 20
15.293807678959379
 30
0.0
 11
-24.499999951135
 21
15.293807678956455
 31
0.0
  0
ELLIPSE
  5
14E
330
17
100
AcDbEntity
  8
visible
100
AcDbEllipse
 10
-24.499999951075
 20
15.278208996929422
 30
0.0
 11
-1.2
 21
-0.0
 31
0.0
 40
0.012998901689202595
 41
4.71238898043469
 42
6.283185307229586
  0
LINE
  5
14F
330
17
100
AcDbEntity
  8
visible
100
AcDbLine
 10
29.00000005306
 20
-50.31134855287373
 30
0.0
 11
29.00000005306
 21
-47.87855483608671
 31
0.0
  0
LINE
  5
150
330
17
100
AcDbEntity
  8
visible
100
AcDbLine
 10
21.25000004641
 20
-50.088367758194686
 30
0.0
 11
10.750000046410001
 21
-50.08836775820151
 31
0.0
  0
LINE
  5
151
330
17
100
AcDbEntity
  8
visible
100
AcDbLine
 10
31.00000004641
 20
-55.061947508351025
 30
0.0
 11
31.00000004641
 21
-43.062961379852425
 31
0.0
  0
LINE
  5
152
330
17
100
AcDbEntity
  8
visible
100
AcDbLine
 10
31.00000004651
 20
-55.087945311729435
 30
0.0
 11
31.00000004641
 21
-55.06194750835103
 31
0.0
  0
LINE
  5
153
330
17
100
AcDbEntity
  8
visible
100
AcDbLine
 10
31.00000004651
 20
-55.087945311729435
 30
0.0
 11
1.0000000465099994
 21
-55.08794531174893
 31
0.0
  0
ELLIPSE
  5
154
330
17
100
AcDbEntity
  8
visible
100
AcDbEllipse
 10
28.00000004651
 20
-49.08845224748208
 30
0.0
 11
1.6
 21
6.154338849255968e-09
 31
0.0
 40
0.999915510708217
 41
0.008125089429924515
 42
3.1334675641595844
  0
LINE
  5
155
330
17
100
AcDbEntity
  8
visible
100
AcDbLine
 10
21.25000004651
 20
-46.83864234839298
 30
0.0
 11
10.75000004651
 21
-46.8386423483998
 31
0.0
  0
ELLIPSE
  5
156
330
17
100
AcDbEntity
  8
visible
100
AcDbEllipse
 10
4.000000046510001
 20
-49.08845224749768
 30
0.0
 11
1.6
 21
6.154338849255968e-09
 31
0.0
 40
0.999915510708217
 41
0.008125089430088828
 42
3.1334675641597673
  0
LINE
  5
157
330
17
100
AcDbEntity
  8
visible
100
AcDbLine
 10
31.00000004641
 20
-43.062961379852425
 30
0.0
 11
1.0000000464100012
 21
-43.06296137987192
 31
0.0
  0
LINE
  5
158
330
17
100
AcDbEntity
  8
visible
100
AcDbLine
 10
31.00000004641
 20
-55.061947508351025
 30
0.0
 11
1.0000000464100012
 21
-55.06194750837052
 31
0.0
  0
LINE
  5
159
330
17
100
AcDbEntity
  8
visible
100
AcDbLine
 10
1.0000000464100005
 20
-55.06194750837052
 30
0.0
 11
1.0000000464100005
 21
-43.06296137987192
 31
0.0
  0
ELLIPSE
  5
15A
330
17
100
AcDbEntity
  8
visible
100
AcDbEllipse
 10
28.00000004641
 20
-49.06245444410368
 30
0.0
 11
1.6
 21
6.154338849255968e-09
 31
0.0
 40
0.999915510708217
 41
3.1415926497436564
 42
6.283185307179586
  0
ELLIPSE
  5
15B
330
17
100
AcDbEntity
  8
visible
100
AcDbEllipse
 10
28.00000004641
 20
-49.06245444410368
 30
0.0
 11
1.6
 21
6.154338849255968e-09
 31
0.0
 40
0.999915510708217
 41
0.0
 42
3.1415926497436573
  0
LINE
  5
15C
330
17
100
AcDbEntity
  8
visible
100
AcDbLine
 10
21.25000004641
 20
-46.81264454501458
 30
0.0
 11
10.750000046410001
 21
-46.8126445450214
 31
0.0
  0
LINE
  5
15D
330
17
100
AcDbEntity
  8
visible
100
AcDbLine
 10
21.25000004641
 20
-46.81264454501457
 30
0.0
 11
21.25000004641
 21
-51.31226434320155
 31
0.0
  0
LINE
  5
15E
330
17
100
AcDbEntity
  8
visible
100
AcDbLine
 10
10.750000046410001
 20
-46.8126445450214
 30
0.0
 11
10.750000046410001
 21
-51.312264343208376
 31
0.0
  0
LINE
  5
15F
330
17
100
AcDbEntity
  8
visible
100
AcDbLine
 10
21.25000004641
 20
-51.31226434320155
 30
0.0
 11
10.750000046410001
 21
-51.31226434320837
 31
0.0
  0
ELLIPSE
  5
160
330
17
100
AcDbEntity
  8
visible
100
AcDbEllipse
 10
4.000000046410001
 20
-49.06245444411927
 30
0.0
 11
1.6
 21
6.154338849255968e-09
 31
0.0
 40
0.999915510708217
 41
3.1415926497436564
 42
6.283185307179586
  0
ELLIPSE
  5
161
330
17
100
AcDbEntity
  8
visible
100
AcDbEllipse
 10
4.000000046410001
 20
-49.06245444411927
 30
0.0
 11
1.6
 21
6.154338849255968e-09
 31
0.0
 40
0.999915510708217
 41
0.0
 42
3.1415926497436573
  0
LINE
  5
162
330
17
100
AcDbEntity
  8
visible
100
AcDbLine
 10
1.0000000465100005
 20
-55.08794531174893
 30
0.0
 11
1.000000046410001
 21
-55.06194750837053
 31
0.0
  0
LINE
  5
163
330
17
100
AcDbEntity
  8
visible
100
AcDbLine
 10
-27.499999948825
 20
18.69292046374622
 30
0.0
 11
-27.499999948825
 21
19.30387062546069
 31
0.0
  0
LINE
  5
164
330
17
100
AcDbEntity
  8
visible
100
AcDbLine
 10
27.500000051175
 20
18.69292046378196
 30
0.0
 11
27.500000051175
 21
60.689371913527076
 31
0.0
  0
LINE
  5
165
330
17
100
AcDbEntity
  8
visible
100
AcDbLine
 10
-27.499999948825
 20
18.692920463746212
 30
0.0
 11
-27.499999951175
 21
19.303868843138734
 31
0.0
  0
LINE
  5
166
330
17
100
AcDbEntity
  8
visible
100
AcDbLine
 10
-27.499999951175
 20
19.303868843138744
 30
0.0
 11
-27.499999951175
 21
61.30032029288386
 31
0.0
  0
LINE
  5
167
330
17
100
AcDbEntity
  8
visible
100
AcDbLine
 10
27.500000051175
 20
18.692920463781967
 30
0.0
 11
27.500000048825
 21
19.303868843174488
 31
0.0
  0
LINE
  5
168
330
17
100
AcDbEntity
  8
visible
100
AcDbLine
 10
27.500000051175
 20
60.68937191352709
 30
0.0
 11
27.500000048825
 21
61.30032029291961
 31
0.0
  0
LINE
  5
169
330
17
100
AcDbEntity
  8
visible
100
AcDbLine
 10
27.500000048825
 20
19.303868843174484
 30
0.0
 11
27.500000048825
 21
61.3003202929196
 31
0.0
  0
ELLIPSE
  5
16A
330
17
100
AcDbEntity
  8
visible
100
AcDbEllipse
 10
-29.49999995
 20
39.99662037831375
 30
0.0
 11
7.476921855849828e-12
 21
-11.5
 31
0.0
 40
1e-10
 41
4.699389712593781
 42
6.283185307179586
  0
ELLIPSE
  5
16B
330
17
100
AcDbEntity
  8
visible
100
AcDbEllipse
 10
-29.49999995
 20
39.99662037831375
 30
0.0
 11
7.476921855849828e-12
 21
-11.5
 31
0.0
 40
1e-10
 41
3.1415926535897936
 42
4.699389712593781
  0
LINE
  5
16C
330
17
100
AcDbEntity
  8
visible
100
AcDbLine
 10
-37.999999946399996
 20
-67.068732977908
 30
0.0
 11
-37.999999946399996
 21
-66.25840144799007
 31
0.0
  0
LINE
  5
16D
330
17
100
AcDbEntity
  8
visible
100
AcDbLine
 10
38.000000053600004
 20
-67.0687329778586
 30
0.0
 11
38.000000053600004
 21
-66.25840144794067
 31
0.0
  0
ELLIPSE
  5
16E
330
17
100
AcDbEntity
  8
visible
100
AcDbEllipse
 10
-37.99999994644
 20
-68.11984416988388
 30
0.0
 11
-5.19956073644361e-13
 21
0.8
 31
0.0
 40
1e-10
 41
-3.141592653589793
 42
-3.1285933857988826
  0
ELLIPSE
  5
16F
330
17
100
AcDbEntity
  8
visible
100
AcDbEllipse
 10
-37.99999994644
 20
-68.11984416988388
 30
0.0
 11
-5.19956073644361e-13
 21
0.8
 31
0.0
 40
1e-10
 41
-3.154591921380701
 42
-3.141592653589793
  0
LINE
  5
170
330
17
100
AcDbEntity
  8
visible
100
AcDbLine
 10
-37.99999994644
 20
-68.91977657845045
 30
0.0
 11
38.00000005356
 21
-68.91977657840106
 31
0.0
  0
ELLIPSE
  5
171
330
17
100
AcDbEntity
  8
visible
100
AcDbEllipse
 10
38.00000005356
 20
-68.11984416983448
 30
0.0
 11
-5.19956073644361e-13
 21
0.8
 31
0.0
 40
1e-10
 41
-3.141592653589793
 42
-3.1285933857988826
  0
ELLIPSE
  5
172
330
17
100
AcDbEntity
  8
visible
100
AcDbEllipse
 10
38.00000005356
 20
-68.11984416983448
 30
0.0
 11
-5.19956073644361e-13
 21
0.8
 31
0.0
 40
1e-10
 41
-3.154591921380701
 42
-3.141592653589793
  0
ELLIPSE
  5
173
330
17
100
AcDbEntity
  8
visible
100
AcDbEllipse
 10
-59.199999947500004
 20
-67.84426745408656
 30
0.0
 11
0.8
 21
3.0771830900659476e-09
 31
0.0
 40
0.999915510708217
 41
3.141592649743639
 42
4.712388976538536
  0
ELLIPSE
  5
174
330
17
100
AcDbEntity
  8
visible
100
AcDbEllipse
 10
-37.9999999475
 20
-68.64419986263935
 30
0.0
 11
-21.2
 21
2.1408338299418545e-27
 31
0.0
 40
0.012998901689202595
 41
5.0000101513670755e-11
 42
1.5707963268448966
  0
LINE
  5
175
330
17
100
AcDbEntity
  8
visible
100
AcDbLine
 10
-59.999999952500005
 20
-66.54437728516682
 30
0.0
 11
-59.99999994750001
 21
-67.84426745408707
 31
0.0
  0
LINE
  5
176
330
17
100
AcDbEntity
  8
visible
100
AcDbLine
 10
-59.999999952500005
 20
-66.54437728516682
 30
0.0
 11
-59.999999952500005
 21
-34.34709784036223
 31
0.0
  0
LINE
  5
177
330
17
100
AcDbEntity
  8
visible
100
AcDbLine
 10
60.0000000525
 20
-67.84426745400908
 30
0.0
 11
60.0000000475
 21
-66.54437728508883
 31
0.0
  0
LINE
  5
178
330
17
100
AcDbEntity
  8
visible
100
AcDbLine
 10
60.000000047499995
 20
-66.54437728508883
 30
0.0
 11
60.000000047499995
 21
-34.34709784028424
 31
0.0
  0
ELLIPSE
  5
179
330
17
100
AcDbEntity
  8
visible
100
AcDbEllipse
 10
38.000000047499995
 20
-66.54437728510312
 30
0.0
 11
-22.0
 21
-0.0
 31
0.0
 40
0.012998901689202593
 41
3.141592653639793
 42
4.71238898043469
  0
ELLIPSE
  5
17A
330
17
100
AcDbEntity
  8
visible
100
AcDbEllipse
 10
-37.999999952500005
 20
-66.54437728515252
 30
0.0
 11
-22.0
 21
-0.0
 31
0.0
 40
0.012998901689202593
 41
4.71238898043469
 42
6.283185307229586
  0
ELLIPSE
  5
17B
330
17
100
AcDbEntity
  8
visible
100
AcDbEllipse
 10
-58.899999952499996
 20
-34.24710628929069
 30
0.0
 11
0.5
 21
1.923237076002231e-09
 31
0.0
 40
0.999915510708217
 41
3.141592649743644
 42
3.2088437053872894
  0
ELLIPSE
  5
17C
330
17
100
AcDbEntity
  8
visible
100
AcDbEllipse
 10
-37.999999953544986
 20
-33.975429243972776
 30
0.0
 11
3.2497254602772566e-13
 21
-0.5
 31
0.0
 40
1e-10
 41
4.699389712593781
 42
4.900747633384118
  0
ELLIPSE
  5
17D
330
17
100
AcDbEntity
  8
visible
100
AcDbEllipse
 10
-37.999999952500005
 20
-34.24710628927711
 30
0.0
 11
-21.4
 21
-0.0
 31
0.0
 40
0.012998901689202596
 41
4.71238898043469
 42
6.283185307229586
  0
LINE
  5
17E
330
17
100
AcDbEntity
  8
visible
100
AcDbLine
 10
38.00000004643
 20
-33.96892979307878
 30
0.0
 11
-37.99999995357
 21
-33.968929793128176
 31
0.0
  0
ELLIPSE
  5
17F
330
17
100
AcDbEntity
  8
visible
100
AcDbEllipse
 10
38.000000046455014
 20
-33.97542924392338
 30
0.0
 11
3.24972148051142e-13
 21
-0.5
 31
0.0
 40
1e-10
 41
4.699389712593781
 42
4.900747633384118
  0
ELLIPSE
  5
180
330
17
100
AcDbEntity
  8
visible
100
AcDbEllipse
 10
58.9000000475
 20
-34.24710628921413
 30
0.0
 11
-0.5
 21
-1.923239431291217e-09
 31
0.0
 40
0.999915510708217
 41
-3.208843713135149
 42
-3.141592657435947
  0
ELLIPSE
  5
181
330
17
100
AcDbEntity
  8
visible
100
AcDbEllipse
 10
38.00000004750001
 20
-34.247106289227716
 30
0.0
 11
-21.4
 21
-0.0
 31
0.0
 40
0.012998901689202596
 41
3.141592653639793
 42
4.71238898043469
  0
ELLIPSE
  5
182
330
17
100
AcDbEntity
  8
visible
100
AcDbEllipse
 10
38.0000000525
 20
-68.64419986258996
 30
0.0
 11
-21.2
 21
-0.0
 31
0.0
 40
0.012998901689202595
 41
1.5707963268448966
 42
3.141592653639793
  0
ELLIPSE
  5
183
330
17
100
AcDbEntity
  8
visible
100
AcDbEllipse
 10
59.2000000525
 20
-67.84426745400961
 30
0.0
 11
-0.8
 21
-3.0771793216035696e-09
 31
0.0
 40
0.999915510708217
 41
-4.712388984230839
 42
-3.1415926574359423
  0
LINE
  5
184
330
17
100
AcDbEntity
  8
visible
100
AcDbLine
 10
-59.19999995250001
 20
-67.34430969373287
 30
0.0
 11
-59.19999994750001
 21
-68.64419986265312
 31
0.0
  0
LINE
  5
185
330
17
100
AcDbEntity
  8
visible
100
AcDbLine
 10
59.2000000525
 20
-68.64419986257619
 30
0.0
 11
59.200000047500005
 21
-67.34430969365593
 31
0.0
  0
ELLIPSE
  5
186
330
17
100
AcDbEntity
  8
visible
100
AcDbEllipse
 10
-37.999999952500005
 20
-67.3443096937191
 30
0.0
 11
-21.2
 21
-0.0
 31
0.0
 40
0.012998901689202595
 41
4.71238898043469
 42
6.283185307229586
  0
ELLIPSE
  5
187
330
17
100
AcDbEntity
  8
visible
100
AcDbEllipse
 10
38.000000047499995
 20
-67.3443096936697
 30
0.0
 11
-21.2
 21
-0.0
 31
0.0
 40
0.012998901689202595
 41
3.141592653639793
 42
4.71238898043469
  0
LINE
  5
188
330
17
100
AcDbEntity
  8
visible
100
AcDbLine
 10
38.00000004644001
 20
-67.0687329778586
 30
0.0
 11
-37.99999995355999
 21
-67.068732977908
 31
0.0
  0
ELLIPSE
  5
189
330
17
100
AcDbEntity
  8
visible
100
AcDbEllipse
 10
-59.19999995250001
 20
-66.5443772851663
 30
0.0
 11
0.8
 21
3.0771793216035696e-09
 31
0.0
 40
0.999915510708217
 41
3.141592649743644
 42
4.7123889765385405
  0
ELLIPSE
  5
18A
330
17
100
AcDbEntity
  8
visible
100
AcDbEllipse
 10
59.2000000475
 20
-66.54437728508935
 30
0.0
 11
-0.8
 21
-3.0771830900659476e-09
 31
0.0
 40
0.999915510708217
 41
-4.712388984230843
 42
-3.141592657435947
  0
ELLIPSE
  5
18B
330
17
100
AcDbEntity
  8
visible
100
AcDbEllipse
 10
38.00000004644001
 20
-66.26880056929203
 30
0.0
 11
5.199554368818272e-13
 21
-0.8
 31
0.0
 40
1e-10
 41
4.699389712593781
 42
6.270186039388678
  0
ELLIPSE
  5
18C
330
17
100
AcDbEntity
  8
visible
100
AcDbEllipse
 10
-37.99999995355999
 20
-66.26880056934142
 30
0.0
 11
5.19956073644361e-13
 21
-0.8
 31
0.0
 40
1e-10
 41
4.699389712593781
 42
6.270186039388678
  0
LINE
  5
18D
330
17
100
AcDbEntity
  8
visible
100
AcDbLine
 10
-59.399999952499996
 20
-34.24710628929102
 30
0.0
 11
-59.399999952499996
 21
-33.247190778582805
 31
0.0
  0
LINE
  5
18E
330
17
100
AcDbEntity
  8
visible
100
AcDbLine
 10
-37.99999995357
 20
-33.968929793128176
 30
0.0
 11
-37.99999995357
 21
-32.96901428241996
 31
0.0
  0
ELLIPSE
  5
18F
330
17
100
AcDbEntity
  8
visible
100
AcDbEllipse
 10
-37.999999952500005
 20
-33.24719077856889
 30
0.0
 11
-21.4
 21
-0.0
 31
0.0
 40
0.012998901689202596
 41
4.71238898043469
 42
6.283185307229586
  0
LINE
  5
190
330
17
100
AcDbEntity
  8
visible
100
AcDbLine
 10
38.00000004643
 20
-32.96901428237056
 30
0.0
 11
-37.99999995357
 21
-32.969014282419955
 31
0.0
  0
LINE
  5
191
330
17
100
AcDbEntity
  8
visible
100
AcDbLine
 10
38.00000004643
 20
-33.96892979307878
 30
0.0
 11
38.00000004643
 21
-32.969014282370566
 31
0.0
  0
LINE
  5
192
330
17
100
AcDbEntity
  8
visible
100
AcDbLine
 10
59.40000005147563
 20
-34.28076522091026
 30
0.0
 11
59.40000004750001
 21
-33.24719077850559
 31
0.0
  0
LINE
  5
193
330
17
100
AcDbEntity
  8
visible
100
AcDbLine
 10
59.4000000475
 20
-34.247106289213804
 30
0.0
 11
59.4000000475
 21
-33.24719077850559
 31
0.0
  0
ELLIPSE
  5
194
330
17
100
AcDbEntity
  8
visible
100
AcDbEllipse
 10
38.00000004750001
 20
-33.247190778519496
 30
0.0
 11
-21.4
 21
-0.0
 31
0.0
 40
0.012998901689202596
 41
3.141592653639793
 42
4.71238898043469
  0
ELLIPSE
  5
195
330
17
100
AcDbEntity
  8
visible
100
AcDbEllipse
 10
-58.899999952499996
 20
-33.24719077858247
 30
0.0
 11
-0.5
 21
-1.923237076002231e-09
 31
0.0
 40
0.999915510708217
 41
-0.20135792463648158
 42
-3.846149166127497e-09
  0
ELLIPSE
  5
196
330
17
100
AcDbEntity
  8
visible
100
AcDbEllipse
 10
-37.999999953544986
 20
-32.975513733264556
 30
0.0
 11
-3.2497254602772566e-13
 21
0.5
 31
0.0
 40
1e-10
 41
-4.926746168965932
 42
-4.725388248175598
  0
ELLIPSE
  5
197
330
17
100
AcDbEntity
  8
visible
100
AcDbEllipse
 10
38.000000046455014
 20
-32.97551373321516
 30
0.0
 11
-3.24972148051142e-13
 21
0.5
 31
0.0
 40
1e-10
 41
-4.926746168965932
 42
-4.725388248175598
  0
ELLIPSE
  5
198
330
17
100
AcDbEntity
  8
visible
100
AcDbEllipse
 10
58.9000000475
 20
-33.24719077850591
 30
0.0
 11
0.5
 21
1.923239431291217e-09
 31
0.0
 40
0.999915510708217
 41
-3.846153617814707e-09
 42
0.20135791694417854
  0
ELLIPSE
  5
199
330
17
100
AcDbEntity
  8
visible
100
AcDbEllipse
 10
38.0000000525
 20
-29.447511842827844
 30
0.0
 11
-22.0
 21
-0.0
 31
0.0
 40
0.012998901689202593
 41
3.141571333508989
 42
3.141592653639793
  0
ELLIPSE
  5
19A
330
17
100
AcDbEntity
  8
visible
100
AcDbEllipse
 10
59.2000000525
 20
-29.447511842814066
 30
0.0
 11
0.8
 21
3.0771793216035696e-09
 31
0.0
 40
0.999915510708217
 41
-3.846149176922609e-09
 42
0.000613940283941794
  0
ELLIPSE
  5
19B
330
17
100
AcDbEntity
  8
visible
100
AcDbEllipse
 10
-37.99999995355999
 20
-27.872044958145885
 30
0.0
 11
-5.19956073644361e-13
 21
0.8
 31
0.0
 40
1e-10
 41
-6.283185307179586
 42
-4.725388248175598
  0
ELLIPSE
  5
19C
330
17
100
AcDbEntity
  8
visible
100
AcDbEllipse
 10
-37.99999995355999
 20
-27.872044958145885
 30
0.0
 11
-5.19956073644361e-13
 21
0.8
 31
0.0
 40
1e-10
 41
-0.012999267790907876
 42
-0.0
  0
ELLIPSE
  5
19D
330
17
100
AcDbEntity
  8
visible
100
AcDbEllipse
 10
-37.999999952500005
 20
-28.147621673956984
 30
0.0
 11
-22.0
 21
-0.0
 31
0.0
 40
0.012998901689202593
 41
4.71238898043469
 42
6.283185307229586
  0
ELLIPSE
  5
19E
330
17
100
AcDbEntity
  8
visible
100
AcDbEllipse
 10
38.000000047499995
 20
-28.147621673907587
 30
0.0
 11
-22.0
 21
-0.0
 31
0.0
 40
0.012998901689202593
 41
3.141592653639793
 42
4.71238898043469
  0
ELLIPSE
  5
19F
330
17
100
AcDbEntity
  8
visible
100
AcDbEllipse
 10
38.00000004644001
 20
-27.872044958096488
 30
0.0
 11
-5.199554368818272e-13
 21
0.8
 31
0.0
 40
1e-10
 41
-6.283185307179586
 42
-4.725388248175598
  0
ELLIPSE
  5
1A0
330
17
100
AcDbEntity
  8
visible
100
AcDbEllipse
 10
38.00000004644001
 20
-27.872044958096488
 30
0.0
 11
-5.199554368818272e-13
 21
0.8
 31
0.0
 40
1e-10
 41
-0.012999267790907876
 42
-0.0
  0
LINE
  5
1A1
330
17
100
AcDbEntity
  8
visible
100
AcDbLine
 10
38.000000046400004
 20
-27.861645836745126
 30
0.0
 11
-37.999999953599996
 21
-27.861645836794523
 31
0.0
  0
LINE
  5
1A2
330
17
100
AcDbEntity
  8
visible
100
AcDbLine
 10
-37.999999946550005
 20
-34.061122003185474
 30
0.0
 11
-37.999999946550005
 21
-33.96892979312818
 31
0.0
  0
LINE
  5
1A3
330
17
100
AcDbEntity
  8
visible
100
AcDbLine
 10
38.000000053449995
 20
-34.06112200313609
 30
0.0
 11
38.000000053449995
 21
-33.968929793078786
 31
0.0
  0
LINE
  5
1A4
330
17
100
AcDbEntity
  8
visible
100
AcDbLine
 10
60.000000047499995
 20
-33.14719922743438
 30
0.0
 11
60.000000047499995
 21
-28.14762167389329
 31
0.0
  0
LINE
  5
1A5
330
17
100
AcDbEntity
  8
visible
100
AcDbLine
 10
38.000000046400004
 20
-32.86122339028622
 30
0.0
 11
38.000000046400004
 21
-27.861645836745133
 31
0.0
  0
LINE
  5
1A6
330
17
100
AcDbEntity
  8
visible
100
AcDbLine
 10
-37.999999953599996
 20
-32.86122339033562
 30
0.0
 11
-37.999999953599996
 21
-27.86164583679453
 31
0.0
  0
LINE
  5
1A7
330
17
100
AcDbEntity
  8
visible
100
AcDbLine
 10
-37.999999946399996
 20
-27.072044958145888
 30
0.0
 11
-37.999999946399996
 21
-26.261781019661385
 31
0.0
  0
LINE
  5
1A8
330
17
100
AcDbEntity
  8
visible
100
AcDbLine
 10
38.000000053600004
 20
-27.07211254952992
 30
0.0
 11
38.000000053600004
 21
-26.261781019611995
 31
0.0
  0
ELLIPSE
  5
1A9
330
17
100
AcDbEntity
  8
visible
100
AcDbEllipse
 10
38.0000000525
 20
-25.447849799994977
 30
0.0
 11
-22.0
 21
-0.0
 31
0.0
 40
0.012998901689202593
 41
3.141571333508989
 42
3.141592653639793
  0
ELLIPSE
  5
1AA
330
17
100
AcDbEntity
  8
visible
100
AcDbEllipse
 10
-59.199999947500004
 20
-27.84764702575788
 30
0.0
 11
0.8
 21
3.0771830900659476e-09
 31
0.0
 40
0.999915510708217
 41
3.141592649743639
 42
3.329986794446289
  0
LINE
  5
1AB
330
17
100
AcDbEntity
  8
visible
100
AcDbLine
 10
-59.999999952500005
 20
-26.54775685683814
 30
0.0
 11
-59.99999994750001
 21
-27.847647025758402
 31
0.0
  0
LINE
  5
1AC
330
17
100
AcDbEntity
  8
visible
100
AcDbLine
 10
-59.999999952500005
 20
-26.547756856838138
 30
0.0
 11
-59.999999952500005
 21
-24.147959631138416
 31
0.0
  0
ELLIPSE
  5
1AD
330
17
100
AcDbEntity
  8
visible
100
AcDbEllipse
 10
-37.999999952500005
 20
-27.347689265390414
 30
0.0
 11
-21.2
 21
-0.0
 31
0.0
 40
0.012998901689202595
 41
4.71238898043469
 42
6.283185307229586
  0
ELLIPSE
  5
1AE
330
17
100
AcDbEntity
  8
visible
100
AcDbEllipse
 10
38.000000047499995
 20
-27.347689265341018
 30
0.0
 11
-21.2
 21
-0.0
 31
0.0
 40
0.012998901689202595
 41
3.141592653639793
 42
4.71238898043469
  0
ELLIPSE
  5
1AF
330
17
100
AcDbEntity
  8
visible
100
AcDbEllipse
 10
59.2000000525
 20
-27.847647025680928
 30
0.0
 11
-0.8
 21
-3.0771793216035696e-09
 31
0.0
 40
0.999915510708217
 41
-3.3299856969390675
 42
-3.1415926574359423
  0
ELLIPSE
  5
1B0
330
17
100
AcDbEntity
  8
visible
100
AcDbEllipse
 10
-37.999999952500005
 20
-23.348027222557548
 30
0.0
 11
-21.2
 21
-0.0
 31
0.0
 40
0.012998901689202595
 41
4.71238898043469
 42
6.283185307229586
  0
ELLIPSE
  5
1B1
330
17
100
AcDbEntity
  8
visible
100
AcDbEllipse
 10
38.000000047499995
 20
-23.34802722250815
 30
0.0
 11
-21.2
 21
-0.0
 31
0.0
 40
0.012998901689202595
 41
3.141592653639793
 42
4.71238898043469
  0
LINE
  5
1B2
330
17
100
AcDbEntity
  8
visible
100
AcDbLine
 10
38.00000004644001
 20
-23.072450506697052
 30
0.0
 11
-37.99999995355999
 21
-23.07245050674645
 31
0.0
  0
ELLIPSE
  5
1B3
330
17
100
AcDbEntity
  8
visible
100
AcDbEllipse
 10
59.2000000525
 20
-25.4478497999812
 30
0.0
 11
0.8
 21
3.0771793216035696e-09
 31
0.0
 40
0.999915510708217
 41
-3.846149176922609e-09
 42
0.0001754115894270214
  0
LINE
  5
1B4
330
17
100
AcDbEntity
  8
visible
100
AcDbLine
 10
60.0000000525
 20
-27.84764702568041
 30
0.0
 11
60.0000000475
 21
-26.54775685676015
 31
0.0
  0
LINE
  5
1B5
330
17
100
AcDbEntity
  8
visible
100
AcDbLine
 10
60.0000000525
 20
-25.44784979998068
 30
0.0
 11
60.0000000475
 21
-24.14795963106042
 31
0.0
  0
LINE
  5
1B6
330
17
100
AcDbEntity
  8
visible
100
AcDbLine
 10
60.000000047499995
 20
-26.54775685676015
 30
0.0
 11
60.000000047499995
 21
-24.147959631060427
 31
0.0
  0
ELLIPSE
  5
1B7
330
17
100
AcDbEntity
  8
visible
100
AcDbEllipse
 10
-59.19999995250001
 20
-26.547756856837623
 30
0.0
 11
0.8
 21
3.0771793216035696e-09
 31
0.0
 40
0.999915510708217
 41
3.141592649743644
 42
4.593019507423853
  0
LINE
  5
1B8
330
17
100
AcDbEntity
  8
visible
100
AcDbLine
 10
-37.999999953599996
 20
-26.26178101966138
 30
0.0
 11
-37.999999953599996
 21
-23.86198379396166
 31
0.0
  0
ELLIPSE
  5
1B9
330
17
100
AcDbEntity
  8
visible
100
AcDbEllipse
 10
-37.999999952500005
 20
-26.547756856823845
 30
0.0
 11
-22.0
 21
-0.0
 31
0.0
 40
0.012998901689202593
 41
4.71238898043469
 42
6.283185307229586
  0
ELLIPSE
  5
1BA
330
17
100
AcDbEntity
  8
visible
100
AcDbEllipse
 10
-37.999999952500005
 20
-24.147959631124117
 30
0.0
 11
-22.0
 21
-0.0
 31
0.0
 40
0.012998901689202593
 41
4.71238898043469
 42
6.283185307229586
  0
ELLIPSE
  5
1BB
330
17
100
AcDbEntity
  8
visible
100
AcDbEllipse
 10
59.2000000475
 20
-26.54775685676067
 30
0.0
 11
-0.8
 21
-3.0771830900659476e-09
 31
0.0
 40
0.999915510708217
 41
-4.593001474491967
 42
-3.141592657435947
  0
ELLIPSE
  5
1BC
330
17
100
AcDbEntity
  8
visible
100
AcDbEllipse
 10
-37.99999995355999
 20
-26.272180141012747
 30
0.0
 11
5.19956073644361e-13
 21
-0.8
 31
0.0
 40
1e-10
 41
4.699389712593781
 42
6.270186039388678
  0
ELLIPSE
  5
1BD
330
17
100
AcDbEntity
  8
visible
100
AcDbEllipse
 10
38.000000047499995
 20
-26.54775685677445
 30
0.0
 11
-22.0
 21
-0.0
 31
0.0
 40
0.012998901689202593
 41
3.141592653639793
 42
4.71238898043469
  0
ELLIPSE
  5
1BE
330
17
100
AcDbEntity
  8
visible
100
AcDbEllipse
 10
38.00000004644001
 20
-26.27218014096335
 30
0.0
 11
5.199554368818272e-13
 21
-0.8
 31
0.0
 40
1e-10
 41
4.699389712593781
 42
6.270186039388678
  0
LINE
  5
1BF
330
17
100
AcDbEntity
  8
visible
100
AcDbLine
 10
38.000000046400004
 20
-26.261781019611988
 30
0.0
 11
-37.999999953599996
 21
-26.261781019661385
 31
0.0
  0
ELLIPSE
  5
1C0
330
17
100
AcDbEntity
  8
visible
100
AcDbEllipse
 10
-37.99999995355999
 20
-23.87238291531302
 30
0.0
 11
-5.19956073644361e-13
 21
0.8
 31
0.0
 40
1e-10
 41
-6.283185307179586
 42
-4.725388248175598
  0
ELLIPSE
  5
1C1
330
17
100
AcDbEntity
  8
visible
100
AcDbEllipse
 10
-37.99999995355999
 20
-23.87238291531302
 30
0.0
 11
-5.19956073644361e-13
 21
0.8
 31
0.0
 40
1e-10
 41
-0.012999267790907876
 42
-0.0
  0
ELLIPSE
  5
1C2
330
17
100
AcDbEntity
  8
visible
100
AcDbEllipse
 10
38.000000047499995
 20
-24.14795963107472
 30
0.0
 11
-22.0
 21
-0.0
 31
0.0
 40
0.012998901689202593
 41
3.141592653639793
 42
4.71238898043469
  0
ELLIPSE
  5
1C3
330
17
100
AcDbEntity
  8
visible
100
AcDbEllipse
 10
38.00000004644001
 20
-23.87238291526362
 30
0.0
 11
-5.199554368818272e-13
 21
0.8
 31
0.0
 40
1e-10
 41
-6.283185307179586
 42
-4.725388248175598
  0
ELLIPSE
  5
1C4
330
17
100
AcDbEntity
  8
visible
100
AcDbEllipse
 10
38.00000004644001
 20
-23.87238291526362
 30
0.0
 11
-5.199554368818272e-13
 21
0.8
 31
0.0
 40
1e-10
 41
-0.012999267790907876
 42
-0.0
  0
LINE
  5
1C5
330
17
100
AcDbEntity
  8
visible
100
AcDbLine
 10
38.000000046400004
 20
-23.86198379391226
 30
0.0
 11
-37.999999953599996
 21
-23.861983793961656
 31
0.0
  0
LINE
  5
1C6
330
17
100
AcDbEntity
  8
visible
100
AcDbLine
 10
38.000000046400004
 20
-26.261781019611984
 30
0.0
 11
38.000000046400004
 21
-23.861983793912263
 31
0.0
  0
ELLIPSE
  5
1C7
330
17
100
AcDbEntity
  8
visible
100
AcDbEllipse
 10
-1.9999999518899996
 20
10.990471296291076
 30
0.0
 11
18.0
 21
6.923661952648382e-08
 31
0.0
 40
0.9999155107082172
 41
3.141592649743639
 42
3.726974716906855
  0
LINE
  5
1C8
330
17
100
AcDbEntity
  8
visible
100
AcDbLine
 10
-19.999999952299998
 20
-6.2014760451213276
 30
0.0
 11
-19.999999952299998
 21
0.19798322341126173
 31
0.0
  0
ELLIPSE
  5
1C9
330
17
100
AcDbEntity
  8
visible
100
AcDbEllipse
 10
19.20000004811
 20
50.48713396927941
 30
0.0
 11
0.8
 21
0.0
 31
0.0
 40
0.012998901689202595
 41
-2.345195195285754e-05
 42
5.000000413701855e-11
  0
ELLIPSE
  5
1CA
330
17
100
AcDbEntity
  8
visible
100
AcDbEllipse
 10
2.0000000481100004
 20
50.48713396926824
 30
0.0
 11
18.0
 21
6.923661952648382e-08
 31
0.0
 40
0.9999155107082172
 41
-3.846153617814707e-09
 42
0.00012992436944259111
  0
ELLIPSE
  5
1CB
330
17
100
AcDbEntity
  8
visible
100
AcDbEllipse
 10
15.0000000479
 20
0.14598761667718918
 30
0.0
 11
-5.0
 21
-0.0
 31
0.0
 40
0.012998901689202595
 41
3.141583709354751
 42
3.141592653639793
  0
ELLIPSE
  5
1CC
330
17
100
AcDbEntity
  8
visible
100
AcDbEllipse
 10
2.0000000481100004
 20
10.990471296293677
 30
0.0
 11
18.0
 21
6.923661952648382e-08
 31
0.0
 40
0.9999155107082172
 41
5.697803236141028
 42
6.283185303333433
  0
ELLIPSE
  5
1CD
330
17
100
AcDbEntity
  8
visible
100
AcDbEllipse
 10
-1.9999999521099996
 20
11.047666463723559
 30
0.0
 11
18.0
 21
6.923661952648382e-08
 31
0.0
 40
0.9999155107082172
 41
3.141592649743639
 42
3.730774540089148
  0
ELLIPSE
  5
1CE
330
17
100
AcDbEntity
  8
visible
100
AcDbEllipse
 10
-19.199999952299997
 20
0.1979832234117822
 30
0.0
 11
-0.8
 21
-3.0771793216035696e-09
 31
0.0
 40
0.999915510708217
 41
-1.5707963306410457
 42
-3.846149166127497e-09
  0
ELLIPSE
  5
1CF
330
17
100
AcDbEntity
  8
visible
100
AcDbEllipse
 10
15.0000000477
 20
0.9979156320005984
 30
0.0
 11
-4.2
 21
4.241274568752731e-28
 31
0.0
 40
0.012998901689202595
 41
3.1415926536397936
 42
4.2447730068302745
  0
ELLIPSE
  5
1D0
330
17
100
AcDbEntity
  8
visible
100
AcDbEllipse
 10
-14.9999999523
 20
0.9979156319811011
 30
0.0
 11
-4.2
 21
-0.0
 31
0.0
 40
0.012998901689202595
 41
5.180004954057567
 42
6.283185307229586
  0
LINE
  5
1D1
330
17
100
AcDbEntity
  8
visible
100
AcDbLine
 10
-14.999999952549999
 20
-6.1364815366720675
 30
0.0
 11
-14.999999952549999
 21
-1.2867909162088438
 31
0.0
  0
ELLIPSE
  5
1D2
330
17
100
AcDbEntity
  8
visible
100
AcDbEllipse
 10
-14.9999999523
 20
0.1979832234145107
 30
0.0
 11
-5.0
 21
-0.0
 31
0.0
 40
0.012998901689202595
 41
4.980479783804494
 42
6.283185307229586
  0
LINE
  5
1D3
330
17
100
AcDbEntity
  8
visible
100
AcDbLine
 10
20.000000047900002
 20
0.14598761668044347
 30
0.0
 11
20.000000047700002
 21
0.19798322343725389
 31
0.0
  0
LINE
  5
1D4
330
17
100
AcDbEntity
  8
visible
100
AcDbLine
 10
20.000000047700002
 20
-6.201476045095329
 30
0.0
 11
20.000000047700002
 21
0.1979832234372605
 31
0.0
  0
LINE
  5
1D5
330
17
100
AcDbEntity
  8
visible
100
AcDbLine
 10
15.000000047450001
 20
-6.13648153665257
 30
0.0
 11
15.000000047450001
 21
-1.2867909388787524
 31
0.0
  0
ELLIPSE
  5
1D6
330
17
100
AcDbEntity
  8
visible
100
AcDbEllipse
 10
15.0000000477
 20
0.19798322343400798
 30
0.0
 11
-5.0
 21
5.049136391372298e-28
 31
0.0
 40
0.012998901689202595
 41
3.1415926536397936
 42
4.444298177064879
  0
LINE
  5
1D7
330
17
100
AcDbEntity
  8
visible
100
AcDbLine
 10
-19.99999995211
 20
11.398637413454907
 30
0.0
 11
-19.99999995211
 21
11.39629829901888
 31
0.0
  0
LINE
  5
1D8
330
17
100
AcDbEntity
  8
visible
100
AcDbLine
 10
-19.99999995211
 20
11.066126196113132
 30
0.0
 11
-19.99999995211
 21
11.047666463711856
 31
0.0
  0
ELLIPSE
  5
1D9
330
17
100
AcDbEntity
  8
visible
100
AcDbEllipse
 10
2.0000000478900004
 20
50.544329136700725
 30
0.0
 11
18.0
 21
6.923661952648382e-08
 31
0.0
 40
0.9999155107082172
 41
-3.846153617814707e-09
 42
0.00012992436944259111
  0
LINE
  5
1DA
330
17
100
AcDbEntity
  8
visible
100
AcDbLine
 10
20.00000004811
 20
10.990471296305365
 30
0.0
 11
20.00000004789
 21
11.047666463737857
 31
0.0
  0
LINE
  5
1DB
330
17
100
AcDbEntity
  8
visible
100
AcDbLine
 10
20.00000004789
 20
11.047666463737869
 30
0.0
 11
20.00000004789
 21
50.54432913671244
 31
0.0
  0
ELLIPSE
  5
1DC
330
17
100
AcDbEntity
  8
visible
100
AcDbEllipse
 10
19.2000000479
 20
0.14598761667991766
 30
0.0
 11
0.8
 21
3.0771793216035696e-09
 31
0.0
 40
0.999915510708217
 41
-3.846149176922609e-09
 42
0.0002631172575551233
  0
ELLIPSE
  5
1DD
330
17
100
AcDbEntity
  8
visible
100
AcDbEllipse
 10
2.0000000478900004
 20
11.04766646372616
 30
0.0
 11
18.0
 21
6.923661952648382e-08
 31
0.0
 40
0.9999155107082172
 41
5.694003412966162
 42
6.283185303333433
  0
ELLIPSE
  5
1DE
330
17
100
AcDbEntity
  8
visible
100
AcDbEllipse
 10
2.0000000478500004
 20
50.554728258052094
 30
0.0
 11
17.2
 21
6.615943643641787e-08
 31
0.0
 40
0.999915510708217
 41
-3.846153617814707e-09
 42
0.00013291152767003211
  0
ELLIPSE
  5
1DF
330
17
100
AcDbEntity
  8
visible
100
AcDbEllipse
 10
19.2000000477
 20
0.19798322343673647
 30
0.0
 11
0.8
 21
3.0771830900659476e-09
 31
0.0
 40
0.999915510708217
 41
-3.846153617814707e-09
 42
1.5707963229487427
  0
ELLIPSE
  5
1E0
330
17
100
AcDbEntity
  8
visible
100
AcDbEllipse
 10
19.20000004789
 20
50.54432913671191
 30
0.0
 11
-0.8
 21
-0.0
 31
0.0
 40
0.012998901689202595
 41
3.141592653639793
 42
3.1416507483099343
  0
ELLIPSE
  5
1E1
330
17
100
AcDbEntity
  8
visible
100
AcDbEllipse
 10
5.000000058430487e-08
 20
-7.499366380307393
 30
0.0
 11
57.2
 21
0.0
 31
0.0
 40
0.012998901689202596
 41
-6.835703867831503
 42
-4.71238898033469
  0
ELLIPSE
  5
1E2
330
17
100
AcDbEntity
  8
visible
100
AcDbEllipse
 10
5.000000058430487e-08
 20
-7.499366380307393
 30
0.0
 11
57.2
 21
0.0
 31
0.0
 40
0.012998901689202596
 41
-4.71238898033469
 42
-2.5890740929378753
  0
ELLIPSE
  5
1E3
330
17
100
AcDbEntity
  8
visible
100
AcDbEllipse
 10
5.000000058430487e-08
 20
-23.19803989842641
 30
0.0
 11
57.2
 21
0.0
 31
0.0
 40
0.012998901689202596
 41
-6.325391473040612
 42
-4.71238898033469
  0
ELLIPSE
  5
1E4
330
17
100
AcDbEntity
  8
visible
100
AcDbEllipse
 10
5.000000058430487e-08
 20
-23.19803989842641
 30
0.0
 11
57.2
 21
0.0
 31
0.0
 40
0.012998901689202596
 41
-4.71238898033469
 42
-3.0993882703646447
  0
ELLIPSE
  5
1E5
330
17
100
AcDbEntity
  8
visible
100
AcDbEllipse
 10
5.000000058430487e-08
 20
-23.19803989842641
 30
0.0
 11
55.8
 21
0.0
 31
0.0
 40
0.012998901689202595
 41
-6.283286864021141
 42
-4.71238898033469
  0
ELLIPSE
  5
1E6
330
17
100
AcDbEntity
  8
visible
100
AcDbEllipse
 10
5.000000058430487e-08
 20
-23.19803989842641
 30
0.0
 11
55.8
 21
0.0
 31
0.0
 40
0.012998901689202595
 41
-4.71238898033469
 42
-3.141491048961309
  0
ELLIPSE
  5
1E7
330
17
100
AcDbEntity
  8
visible
100
AcDbEllipse
 10
5.000000058430487e-08
 20
-22.398107489859832
 30
0.0
 11
55.0
 21
0.0
 31
0.0
 40
0.012998901689202595
 41
-1.1493387583275956
 42
-0.5781743982573282
  0
ELLIPSE
  5
1E8
330
17
100
AcDbEntity
  8
visible
100
AcDbEllipse
 10
5.000000058430487e-08
 20
-22.398107489859832
 30
0.0
 11
55.0
 21
0.0
 31
0.0
 40
0.012998901689202595
 41
-2.5634147450847538
 42
-1.9922538952621984
  0
LINE
  5
1E9
330
17
100
AcDbEntity
  8
visible
100
AcDbLine
 10
-19.99999995219
 20
11.068464706414595
 30
0.0
 11
-19.999999953459998
 21
11.39863680932034
 31
0.0
  0
LINE
  5
1EA
330
17
100
AcDbEntity
  8
visible
100
AcDbLine
 10
-19.99999995219
 20
11.398637395281256
 30
0.0
 11
-19.99999995219
 21
11.39629829901888
 31
0.0
  0
LINE
  5
1EB
330
17
100
AcDbEntity
  8
visible
100
AcDbLine
 10
-19.999999953459998
 20
50.8952994822949
 30
0.0
 11
-19.999999953459998
 21
11.39863680932033
 31
0.0
  0
ELLIPSE
  5
1EC
330
17
100
AcDbEntity
  8
visible
100
AcDbEllipse
 10
-1.9999999521899996
 20
11.068464706426283
 30
0.0
 11
18.0
 21
6.923661952648382e-08
 31
0.0
 40
0.9999155107082172
 41
3.141592649743639
 42
3.7173192977238294
  0
LINE
  5
1ED
330
17
100
AcDbEntity
  8
visible
100
AcDbLine
 10
-1.9999999528585148
 20
-6.756216126555913
 30
0.0
 11
-1.9999999534600033
 21
-6.599842383415872
 31
0.0
  0
ELLIPSE
  5
1EE
330
17
100
AcDbEntity
  8
visible
100
AcDbEllipse
 10
-1.9999999534599993
 20
11.398636809332032
 30
0.0
 11
18.0
 21
6.923661952648382e-08
 31
0.0
 40
0.9999155107082172
 41
3.141592649743639
 42
4.712388976538536
  0
ELLIPSE
  5
1EF
330
17
100
AcDbEntity
  8
visible
100
AcDbEllipse
 10
-19.199999953459997
 20
50.89529948229543
 30
0.0
 11
0.8
 21
-9.833742596420368e-17
 31
0.0
 40
0.012998901689202595
 41
-4.71238898033469
 42
-3.141592653539793
  0
LINE
  5
1F0
330
17
100
AcDbEntity
  8
visible
100
AcDbLine
 10
-19.199999953499997
 20
50.90569860364678
 30
0.0
 11
-19.199999953499997
 21
11.40903593067221
 31
0.0
  0
ELLIPSE
  5
1F1
330
17
100
AcDbEntity
  8
visible
100
AcDbEllipse
 10
-19.199999953459997
 20
11.398636809320863
 30
0.0
 11
0.8
 21
0.0
 31
0.0
 40
0.012998901689202595
 41
-4.71238898033469
 42
-3.141592653539793
  0
ELLIPSE
  5
1F2
330
17
100
AcDbEntity
  8
visible
100
AcDbEllipse
 10
-1.9999999534599993
 20
50.8952994823066
 30
0.0
 11
18.0
 21
6.923661952648382e-08
 31
0.0
 40
0.9999155107082172
 41
1.5707963229487427
 42
3.1415926497436395
  0
ELLIPSE
  5
1F3
330
17
100
AcDbEntity
  8
visible
100
AcDbEllipse
 10
-14.9999999523
 20
1.2978902851935459
 30
0.0
 11
-4.2
 21
-0.0
 31
0.0
 40
0.012998901689202595
 41
5.23546846105323
 42
5.235532610895435
  0
LINE
  5
1F4
330
17
100
AcDbEntity
  8
visible
100
AcDbLine
 10
2.000000047141485
 20
-6.756216126553319
 30
0.0
 11
2.0000000465399967
 21
-6.599842383413272
 31
0.0
  0
LINE
  5
1F5
330
17
100
AcDbEntity
  8
visible
100
AcDbLine
 10
-1.9999999534600028
 20
-6.599842383415876
 30
0.0
 11
2.000000046539997
 21
-6.599842383413276
 31
0.0
  0
ELLIPSE
  5
1F6
330
17
100
AcDbEntity
  8
visible
100
AcDbEllipse
 10
-1.9999999534999993
 20
11.409035930683402
 30
0.0
 11
17.2
 21
6.615943643641787e-08
 31
0.0
 40
0.999915510708217
 41
3.141592649743639
 42
4.712388976538536
  0
ELLIPSE
  5
1F7
330
17
100
AcDbEntity
  8
visible
100
AcDbEllipse
 10
-1.9999999534600001
 20
-5.799909974849307
 30
0.0
 11
-5.199070919111768e-13
 21
0.8
 31
0.0
 40
1e-10
 41
-4.725388248175598
 42
-3.154591921380701
  0
ELLIPSE
  5
1F8
330
17
100
AcDbEntity
  8
visible
100
AcDbEllipse
 10
-1.9999999534599993
 20
68.09384626648793
 30
0.0
 11
5.19956073644361e-13
 21
-0.8
 31
0.0
 40
1e-10
 41
3.1285933857988852
 42
3.141592653589793
  0
ELLIPSE
  5
1F9
330
17
100
AcDbEntity
  8
visible
100
AcDbEllipse
 10
-1.9999999534599993
 20
68.09384626648793
 30
0.0
 11
5.19956073644361e-13
 21
-0.8
 31
0.0
 40
1e-10
 41
3.141592653589793
 42
4.699389712593781
  0
ELLIPSE
  5
1FA
330
17
100
AcDbEntity
  8
visible
100
AcDbEllipse
 10
-1.9999999534999993
 20
50.90569860365797
 30
0.0
 11
17.2
 21
6.615943643641787e-08
 31
0.0
 40
0.999915510708217
 41
1.5707963229487427
 42
3.1415926497436395
  0
LINE
  5
1FB
330
17
100
AcDbEntity
  8
visible
100
AcDbLine
 10
-1.9999999535000028
 20
-5.789510853497944
 30
0.0
 11
2.000000046499997
 21
-5.7895108534953446
 31
0.0
  0
ELLIPSE
  5
1FC
330
17
100
AcDbEntity
  8
visible
100
AcDbEllipse
 10
2.0000000465000003
 20
11.409035930686002
 30
0.0
 11
17.2
 21
6.615943643641787e-08
 31
0.0
 40
0.999915510708217
 41
4.712388976538536
 42
6.283185303333433
  0
LINE
  5
1FD
330
17
100
AcDbEntity
  8
visible
100
AcDbLine
 10
2.0000000465000003
 20
68.10424538784187
 30
0.0
 11
-1.9999999534999997
 21
68.10424538783927
 31
0.0
  0
LINE
  5
1FE
330
17
100
AcDbEntity
  8
visible
100
AcDbLine
 10
19.2000000465
 20
11.409035930697172
 30
0.0
 11
19.2000000465
 21
50.905698603671745
 31
0.0
  0
ELLIPSE
  5
1FF
330
17
100
AcDbEntity
  8
visible
100
AcDbEllipse
 10
2.0000000465000003
 20
50.90569860366057
 30
0.0
 11
17.2
 21
6.615943643641787e-08
 31
0.0
 40
0.999915510708217
 41
-3.846153617814707e-09
 42
1.5707963229487427
  0
LINE
  5
200
330
17
100
AcDbEntity
  8
visible
100
AcDbLine
 10
2.0000000465400003
 20
68.89377867505712
 30
0.0
 11
-1.9999999534599997
 21
68.89377867505452
 31
0.0
  0
ELLIPSE
  5
201
330
17
100
AcDbEntity
  8
visible
100
AcDbEllipse
 10
2.0000000478100004
 20
11.068464706428884
 30
0.0
 11
18.0
 21
6.923661952648382e-08
 31
0.0
 40
0.9999155107082172
 41
5.707458655353242
 42
6.283185303333433
  0
ELLIPSE
  5
202
330
17
100
AcDbEntity
  8
visible
100
AcDbEllipse
 10
2.0000000465400003
 20
11.398636809334633
 30
0.0
 11
18.0
 21
6.923661952648382e-08
 31
0.0
 40
0.9999155107082172
 41
4.712388976538536
 42
6.283185303333433
  0
ELLIPSE
  5
203
330
17
100
AcDbEntity
  8
visible
100
AcDbEllipse
 10
2.0000000465399967
 20
-5.799909974846706
 30
0.0
 11
-5.19956073644361e-13
 21
0.8
 31
0.0
 40
1e-10
 41
-4.725388248175598
 42
-3.154591921380701
  0
ELLIPSE
  5
204
330
17
100
AcDbEntity
  8
visible
100
AcDbEllipse
 10
19.20000004781
 20
50.56512737941463
 30
0.0
 11
0.8
 21
0.0
 31
0.0
 40
0.012998901689202595
 41
-5.634710622803851e-05
 42
5.000000413701855e-11
  0
ELLIPSE
  5
205
330
17
100
AcDbEntity
  8
visible
100
AcDbEllipse
 10
2.0000000478100004
 20
50.56512737940345
 30
0.0
 11
18.0
 21
6.923661952648382e-08
 31
0.0
 40
0.9999155107082172
 41
-3.846153617814707e-09
 42
0.00012992436944259111
  0
ELLIPSE
  5
206
330
17
100
AcDbEntity
  8
visible
100
AcDbEllipse
 10
15.0000000477
 20
1.2978902852130432
 30
0.0
 11
-4.2
 21
4.241274568752731e-28
 31
0.0
 40
0.012998901689202595
 41
4.189245349973945
 42
4.189309499816854
  0
ELLIPSE
  5
207
330
17
100
AcDbEntity
  8
visible
100
AcDbEllipse
 10
2.000000046540001
 20
68.09384626649052
 30
0.0
 11
5.199070919111768e-13
 21
-0.8
 31
0.0
 40
1e-10
 41
3.1285933857988852
 42
3.141592653589793
  0
ELLIPSE
  5
208
330
17
100
AcDbEntity
  8
visible
100
AcDbEllipse
 10
2.000000046540001
 20
68.09384626649052
 30
0.0
 11
5.199070919111768e-13
 21
-0.8
 31
0.0
 40
1e-10
 41
3.141592653589793
 42
4.699389712593781
  0
ELLIPSE
  5
209
330
17
100
AcDbEntity
  8
visible
100
AcDbEllipse
 10
19.20000004654
 20
11.398636809345817
 30
0.0
 11
-0.8
 21
1.871627727249372e-16
 31
0.0
 40
0.012998901689202595
 41
3.141592653639793
 42
4.71238898043469
  0
ELLIPSE
  5
20A
330
17
100
AcDbEntity
  8
visible
100
AcDbEllipse
 10
19.20000004654
 20
50.89529948232038
 30
0.0
 11
-0.8
 21
-0.0
 31
0.0
 40
0.012998901689202595
 41
3.141592653639793
 42
4.71238898043469
  0
ELLIPSE
  5
20B
330
17
100
AcDbEntity
  8
visible
100
AcDbEllipse
 10
2.0000000465400003
 20
50.8952994823092
 30
0.0
 11
18.0
 21
6.923661952648382e-08
 31
0.0
 40
0.9999155107082172
 41
-3.846153617814707e-09
 42
1.5707963229487427
  0
ELLIPSE
  5
20C
330
17
100
AcDbEntity
  8
visible
100
AcDbEllipse
 10
4.645500054287766e-08
 20
42.918073529513805
 30
0.0
 11
14.0
 21
5.3850704076153154e-08
 31
0.0
 40
0.999915510708217
 41
4.712388976538536
 42
6.283185307179586
  0
ELLIPSE
  5
20D
330
17
100
AcDbEntity
  8
visible
100
AcDbEllipse
 10
4.645500054287766e-08
 20
42.918073529513805
 30
0.0
 11
14.0
 21
5.3850704076153154e-08
 31
0.0
 40
0.999915510708217
 41
0.0
 42
3.141592653589793
  0
ELLIPSE
  5
20E
330
17
100
AcDbEntity
  8
visible
100
AcDbEllipse
 10
4.645500054287766e-08
 20
42.918073529513805
 30
0.0
 11
14.0
 21
5.3850704076153154e-08
 31
0.0
 40
0.999915510708217
 41
3.141592653589793
 42
4.712388976538536
  0
ELLIPSE
  5
20F
330
17
100
AcDbEntity
  8
visible
100
AcDbEllipse
 10
4.6435000542643934e-08
 20
42.9232730901895
 30
0.0
 11
13.6
 21
5.2312112531120206e-08
 31
0.0
 40
0.999915510708217
 41
4.712388976538536
 42
10.995574283718122
  0
ELLIPSE
  5
210
330
17
100
AcDbEntity
  8
visible
100
AcDbEllipse
 10
-1.9999999481099995
 20
10.007754328587353
 30
0.0
 11
18.0
 21
6.923661952648382e-08
 31
0.0
 40
0.9999155107082172
 41
3.446737705619845
 42
3.663119498729306
  0
ELLIPSE
  5
211
330
17
100
AcDbEntity
  8
visible
100
AcDbEllipse
 10
-1.9999999478899995
 20
9.950559161154871
 30
0.0
 11
18.0
 21
6.923661952648382e-08
 31
0.0
 40
0.9999155107082172
 41
3.443407755192867
 42
3.659479855250192
  0
ELLIPSE
  5
212
330
17
100
AcDbEntity
  8
visible
100
AcDbEllipse
 10
2.0000000521100003
 20
9.950559161157472
 30
0.0
 11
18.0
 21
6.923661952648382e-08
 31
0.0
 40
0.9999155107082172
 41
5.7652980978218
 42
5.981370197884205
  0
ELLIPSE
  5
213
330
17
100
AcDbEntity
  8
visible
100
AcDbEllipse
 10
2.0000000518900003
 20
10.007754328589954
 30
0.0
 11
18.0
 21
6.923661952648382e-08
 31
0.0
 40
0.9999155107082172
 41
5.761658454344498
 42
5.978040247457227
  0
ELLIPSE
  5
214
330
17
100
AcDbEntity
  8
visible
100
AcDbEllipse
 10
19.2000000521
 20
-0.8459285741422633
 30
0.0
 11
0.8
 21
3.0771868585283256e-09
 31
0.0
 40
0.999915510708217
 41
-3.846158946885225e-09
 42
0.0002649384366648633
  0
ELLIPSE
  5
215
330
17
100
AcDbEntity
  8
visible
100
AcDbEllipse
 10
15.0000000521
 20
-0.8459285741449918
 30
0.0
 11
5.0
 21
0.0
 31
0.0
 40
0.012998901689202595
 41
-6.283185307129586
 42
-6.283143354831851
  0
ELLIPSE
  5
216
330
17
100
AcDbEntity
  8
visible
100
AcDbEllipse
 10
19.2000000523
 20
-0.8979241808990821
 30
0.0
 11
0.8
 21
3.0771830900659476e-09
 31
0.0
 40
0.999915510708217
 41
-3.846153617814707e-09
 42
0.00026311740903484093
  0
ELLIPSE
  5
217
330
17
100
AcDbEntity
  8
visible
100
AcDbEllipse
 10
15.0000000523
 20
-0.8979241809018106
 30
0.0
 11
5.0
 21
5.049136391372298e-28
 31
0.0
 40
0.012998901689202595
 41
-8.944309517922022e-06
 42
5.000000413701855e-11
  0
LINE
  5
218
330
17
100
AcDbEntity
  8
visible
100
AcDbLine
 10
20.0000000523
 20
-6.802686014199139
 30
0.0
 11
20.0000000523
 21
-0.897924180898551
 31
0.0
  0
ELLIPSE
  5
219
330
17
100
AcDbEntity
  8
visible
100
AcDbEllipse
 10
-1.9999999478099995
 20
9.929760918452146
 30
0.0
 11
18.0
 21
6.923661952648382e-08
 31
0.0
 40
0.9999155107082172
 41
3.4421977216552033
 42
3.658158283367599
  0
ELLIPSE
  5
21A
330
17
100
AcDbEntity
  8
visible
100
AcDbEllipse
 10
-1.9999999465399994
 20
9.599588815546397
 30
0.0
 11
18.0
 21
6.923661952648382e-08
 31
0.0
 40
0.9999155107082172
 41
3.4230477164507787
 42
3.637312590554286
  0
ELLIPSE
  5
21B
330
17
100
AcDbEntity
  8
visible
100
AcDbEllipse
 10
2.0000000521900003
 20
9.929760918454747
 30
0.0
 11
18.0
 21
6.923661952648382e-08
 31
0.0
 40
0.9999155107082172
 41
5.766619669703966
 42
5.982580231421869
  0
ELLIPSE
  5
21C
330
17
100
AcDbEntity
  8
visible
100
AcDbEllipse
 10
2.0000000534600004
 20
9.599588815548998
 30
0.0
 11
18.0
 21
6.923661952648382e-08
 31
0.0
 40
0.9999155107082172
 41
5.787465362507093
 42
6.001730236626293
  0
ELLIPSE
  5
21D
330
17
100
AcDbEntity
  8
visible
100
AcDbEllipse
 10
26.500000051425
 20
8.828753950394784
 30
0.0
 11
-3.0
 21
-0.0
 31
0.0
 40
0.012998901689202596
 41
3.141549064592173
 42
3.141592653639793
  0
ELLIPSE
  5
21E
330
17
100
AcDbEntity
  8
visible
100
AcDbEllipse
 10
-28.699999948574998
 20
5.429041213950953
 30
0.0
 11
0.8
 21
3.0771830900659476e-09
 31
0.0
 40
0.999915510708217
 41
3.141592649743639
 42
4.712388976538536
  0
LINE
  5
21F
330
17
100
AcDbEntity
  8
visible
100
AcDbLine
 10
-29.499999951425
 20
6.169978610234992
 30
0.0
 11
-29.499999948575
 21
5.429041213950444
 31
0.0
  0
LINE
  5
220
330
17
100
AcDbEntity
  8
visible
100
AcDbLine
 10
-29.499999951425
 20
6.169978610234989
 30
0.0
 11
-29.499999951425
 21
9.569691346642927
 31
0.0
  0
ELLIPSE
  5
221
330
17
100
AcDbEntity
  8
visible
100
AcDbEllipse
 10
28.700000051425
 20
5.42904121398827
 30
0.0
 11
-0.8
 21
-3.0771793216035696e-09
 31
0.0
 40
0.999915510708217
 41
-4.712388984230839
 42
-3.1415926574359423
  0
ELLIPSE
  5
222
330
17
100
AcDbEntity
  8
visible
100
AcDbEllipse
 10
28.700000051425
 20
8.82875395039622
 30
0.0
 11
0.8
 21
3.0771793216035696e-09
 31
0.0
 40
0.999915510708217
 41
-3.846149176922609e-09
 42
0.00020095913571882562
  0
LINE
  5
223
330
17
100
AcDbEntity
  8
visible
100
AcDbLine
 10
29.500000051425
 20
5.429041213988782
 30
0.0
 11
29.500000048575
 21
6.16997861027333
 31
0.0
  0
LINE
  5
224
330
17
100
AcDbEntity
  8
visible
100
AcDbLine
 10
29.500000051425
 20
8.828753950396731
 30
0.0
 11
29.500000048575
 21
9.569691346681278
 31
0.0
  0
LINE
  5
225
330
17
100
AcDbEntity
  8
visible
100
AcDbLine
 10
29.500000048575
 20
6.16997861027333
 30
0.0
 11
29.500000048575
 21
9.569691346681267
 31
0.0
  0
ELLIPSE
  5
226
330
17
100
AcDbEntity
  8
visible
100
AcDbEllipse
 10
-28.699999951425
 20
6.169978610235503
 30
0.0
 11
0.8
 21
3.0771793216035696e-09
 31
0.0
 40
0.999915510708217
 41
3.141592649743644
 42
4.7123889765385405
  0
ELLIPSE
  5
227
330
17
100
AcDbEntity
  8
visible
100
AcDbEllipse
 10
-28.699999951425
 20
9.569691346643452
 30
0.0
 11
-0.8
 21
-3.0771793216035696e-09
 31
0.0
 40
0.999915510708217
 41
-1.5707963306410457
 42
-3.846149166127497e-09
  0
LINE
  5
228
330
17
100
AcDbEntity
  8
visible
100
AcDbLine
 10
-26.499999951575
 20
6.2089753153045395
 30
0.0
 11
-26.499999951575
 21
9.608688051712477
 31
0.0
  0
ELLIPSE
  5
229
330
17
100
AcDbEntity
  8
visible
100
AcDbEllipse
 10
-26.499999951425
 20
6.169978610236939
 30
0.0
 11
-3.0
 21
-0.0
 31
0.0
 40
0.012998901689202596
 41
4.71238898043469
 42
6.283185307229586
  0
ELLIPSE
  5
22A
330
17
100
AcDbEntity
  8
visible
100
AcDbEllipse
 10
-26.499999951425
 20
9.569691346644888
 30
0.0
 11
-3.0
 21
-0.0
 31
0.0
 40
0.012998901689202596
 41
4.71238898043469
 42
6.283185307229586
  0
ELLIPSE
  5
22B
330
17
100
AcDbEntity
  8
visible
100
AcDbEllipse
 10
-26.499999951535
 20
6.198576193953187
 30
0.0
 11
5.19956073644361e-13
 21
-0.8
 31
0.0
 40
1e-10
 41
4.699389712593781
 42
6.270186039388678
  0
ELLIPSE
  5
22C
330
17
100
AcDbEntity
  8
visible
100
AcDbEllipse
 10
26.500000048465
 20
6.198576193987634
 30
0.0
 11
5.199554368818272e-13
 21
-0.8
 31
0.0
 40
1e-10
 41
4.699389712593781
 42
6.270186039388678
  0
LINE
  5
22D
330
17
100
AcDbEntity
  8
visible
100
AcDbLine
 10
26.500000048425
 20
6.208975315338989
 30
0.0
 11
19.35320207244555
 21
6.208975315334344
 31
0.0
  0
LINE
  5
22E
330
17
100
AcDbEntity
  8
visible
100
AcDbLine
 10
-19.353202055773913
 20
6.208975315309187
 30
0.0
 11
-26.499999951575
 21
6.208975315304542
 31
0.0
  0
ELLIPSE
  5
22F
330
17
100
AcDbEntity
  8
visible
100
AcDbEllipse
 10
28.700000048575
 20
6.169978610272821
 30
0.0
 11
-0.8
 21
-3.0771830900659476e-09
 31
0.0
 40
0.999915510708217
 41
-4.712388984230843
 42
-3.141592657435947
  0
ELLIPSE
  5
230
330
17
100
AcDbEntity
  8
visible
100
AcDbEllipse
 10
26.500000048575
 20
6.169978610271386
 30
0.0
 11
-3.0
 21
-0.0
 31
0.0
 40
0.012998901689202596
 41
3.141592653639793
 42
4.71238898043469
  0
ELLIPSE
  5
231
330
17
100
AcDbEntity
  8
visible
100
AcDbEllipse
 10
28.700000048575
 20
9.56969134668077
 30
0.0
 11
0.8
 21
3.0771830900659476e-09
 31
0.0
 40
0.999915510708217
 41
-3.846153617814707e-09
 42
1.5707963229487427
  0
LINE
  5
232
330
17
100
AcDbEntity
  8
visible
100
AcDbLine
 10
26.500000048425
 20
6.208975315338987
 30
0.0
 11
26.500000048425
 21
9.608688051746924
 31
0.0
  0
ELLIPSE
  5
233
330
17
100
AcDbEntity
  8
visible
100
AcDbEllipse
 10
26.500000048575
 20
9.569691346679335
 30
0.0
 11
-3.0
 21
-0.0
 31
0.0
 40
0.012998901689202596
 41
3.141592653639793
 42
4.71238898043469
  0
ELLIPSE
  5
234
330
17
100
AcDbEntity
  8
visible
100
AcDbEllipse
 10
25.700000051075
 20
10.519611079351819
 30
0.0
 11
-0.8
 21
-3.0771793216035696e-09
 31
0.0
 40
0.999915510708217
 41
-3.2938457057484207
 42
-3.1415926574359423
  0
ELLIPSE
  5
235
330
17
100
AcDbEntity
  8
visible
100
AcDbEllipse
 10
25.700000048925
 20
11.07856385198754
 30
0.0
 11
-0.8
 21
-3.0771830900659476e-09
 31
0.0
 40
0.999915510708217
 41
-4.158367209880535
 42
-3.141592657435947
  0
ELLIPSE
  5
236
330
17
100
AcDbEntity
  8
visible
100
AcDbEllipse
 10
24.500000048925
 20
11.078563851986758
 30
0.0
 11
-2.0
 21
-0.0
 31
0.0
 40
0.012998901689202595
 41
3.141592653639793
 42
4.71238898043469
  0
ELLIPSE
  5
237
330
17
100
AcDbEntity
  8
visible
100
AcDbEllipse
 10
24.500000048865
 20
11.09416253401379
 30
0.0
 11
5.199554368818272e-13
 21
-0.8
 31
0.0
 40
1e-10
 41
4.699389712593781
 42
5.767270947451304
  0
LINE
  5
238
330
17
100
AcDbEntity
  8
visible
100
AcDbLine
 10
24.500000048825
 20
11.10456165536516
 30
0.0
 11
20.00000004789
 21
11.104561655362236
 31
0.0
  0
LINE
  5
239
330
17
100
AcDbEntity
  8
visible
100
AcDbLine
 10
-19.999999952328842
 20
11.104561655336237
 30
0.0
 11
-24.499999951175
 21
11.104561655333313
 31
0.0
  0
ELLIPSE
  5
23A
330
17
100
AcDbEntity
  8
visible
100
AcDbEllipse
 10
-24.499999951135
 20
11.094162533981944
 30
0.0
 11
5.19956073644361e-13
 21
-0.8
 31
0.0
 40
1e-10
 41
4.699389712593781
 42
5.76727094745134
  0
LINE
  5
23B
330
17
100
AcDbEntity
  8
visible
100
AcDbLine
 10
26.500000048425
 20
9.608688051746938
 30
0.0
 11
19.946876237204584
 21
9.608688051742678
 31
0.0
  0
ELLIPSE
  5
23C
330
17
100
AcDbEntity
  8
visible
100
AcDbEllipse
 10
26.500000048465
 20
9.598288930395583
 30
0.0
 11
-5.199554368818272e-13
 21
0.8
 31
0.0
 40
1e-10
 41
-6.283185307179586
 42
-4.725388248175598
  0
ELLIPSE
  5
23D
330
17
100
AcDbEntity
  8
visible
100
AcDbEllipse
 10
26.500000048465
 20
9.598288930395583
 30
0.0
 11
-5.199554368818272e-13
 21
0.8
 31
0.0
 40
1e-10
 41
-0.012999267790907876
 42
-0.0
  0
ELLIPSE
  5
23E
330
17
100
AcDbEntity
  8
visible
100
AcDbEllipse
 10
-25.699999948924997
 20
10.519611079318409
 30
0.0
 11
0.8
 21
3.0771830900659476e-09
 31
0.0
 40
0.999915510708217
 41
3.141592649743639
 42
3.29384569805611
  0
ELLIPSE
  5
23F
330
17
100
AcDbEntity
  8
visible
100
AcDbEllipse
 10
-26.499999951535
 20
9.598288930361136
 30
0.0
 11
-5.19956073644361e-13
 21
0.8
 31
0.0
 40
1e-10
 41
-6.283185307179586
 42
-4.725388248175598
  0
ELLIPSE
  5
240
330
17
100
AcDbEntity
  8
visible
100
AcDbEllipse
 10
-26.499999951535
 20
9.598288930361136
 30
0.0
 11
-5.19956073644361e-13
 21
0.8
 31
0.0
 40
1e-10
 41
-0.012999267790907876
 42
-0.0
  0
LINE
  5
241
330
17
100
AcDbEntity
  8
visible
100
AcDbLine
 10
-19.946876150949784
 20
9.60868805171675
 30
0.0
 11
-26.499999951575
 21
9.608688051712491
 31
0.0
  0
ELLIPSE
  5
242
330
17
100
AcDbEntity
  8
visible
100
AcDbEllipse
 10
-24.499999951075
 20
11.078563851954911
 30
0.0
 11
-2.0
 21
-0.0
 31
0.0
 40
0.012998901689202595
 41
4.71238898043469
 42
6.283185307229586
  0
ELLIPSE
  5
243
330
17
100
AcDbEntity
  8
visible
100
AcDbEllipse
 10
-25.699999951075
 20
11.07856385195413
 30
0.0
 11
0.8
 21
3.0771793216035696e-09
 31
0.0
 40
0.999915510708217
 41
3.141592649743644
 42
4.158367202188203
  0
ELLIPSE
  5
244
330
17
100
AcDbEntity
  8
visible
100
AcDbEllipse
 10
24.500000051075002
 20
13.919323815758986
 30
0.0
 11
-2.0
 21
-0.0
 31
0.0
 40
0.012998901689202595
 41
3.1415462854666485
 42
3.141592653639793
  0
LINE
  5
245
330
17
100
AcDbEntity
  8
visible
100
AcDbLine
 10
26.500000051075002
 20
13.919323815760293
 30
0.0
 11
26.500000048925003
 21
14.478276588396005
 31
0.0
  0
LINE
  5
246
330
17
100
AcDbEntity
  8
visible
100
AcDbLine
 10
26.500000048925
 20
11.078563851988047
 30
0.0
 11
26.500000048925
 21
14.478276588395985
 31
0.0
  0
LINE
  5
247
330
17
100
AcDbEntity
  8
visible
100
AcDbLine
 10
24.500000048825
 20
11.104561655365158
 30
0.0
 11
24.500000048825
 21
14.504274391773095
 31
0.0
  0
ELLIPSE
  5
248
330
17
100
AcDbEntity
  8
visible
100
AcDbEllipse
 10
24.500000048925
 20
14.478276588394706
 30
0.0
 11
-2.0
 21
-0.0
 31
0.0
 40
0.012998901689202595
 41
3.141592653639793
 42
4.71238898043469
  0
LINE
  5
249
330
17
100
AcDbEntity
  8
visible
100
AcDbLine
 10
-24.499999951175
 20
11.10456165533331
 30
0.0
 11
-24.499999951175
 21
14.504274391741248
 31
0.0
  0
LINE
  5
24A
330
17
100
AcDbEntity
  8
visible
100
AcDbLine
 10
24.500000048825
 20
14.504274391773109
 30
0.0
 11
20.00000004789
 21
14.504274391770185
 31
0.0
  0
LINE
  5
24B
330
17
100
AcDbEntity
  8
visible
100
AcDbLine
 10
-19.999999953459998
 20
14.504274391744186
 30
0.0
 11
-24.499999951175
 21
14.504274391741262
 31
0.0
  0
ELLIPSE
  5
24C
330
17
100
AcDbEntity
  8
visible
100
AcDbEllipse
 10
-24.499999951075
 20
14.47827658836286
 30
0.0
 11
-2.0
 21
-0.0
 31
0.0
 40
0.012998901689202595
 41
4.71238898043469
 42
6.283185307229586
  0
ELLIPSE
  5
24D
330
17
100
AcDbEntity
  8
visible
100
AcDbEllipse
 10
25.700000051075
 20
13.919323815759768
 30
0.0
 11
0.8
 21
3.0771793216035696e-09
 31
0.0
 40
0.999915510708217
 41
-3.846149176922609e-09
 42
0.00020095915809381637
  0
ELLIPSE
  5
24E
330
17
100
AcDbEntity
  8
visible
100
AcDbEllipse
 10
25.700000048925
 20
14.478276588395488
 30
0.0
 11
0.8
 21
3.0771830900659476e-09
 31
0.0
 40
0.999915510708217
 41
-3.846153617814707e-09
 42
1.5707963229487427
  0
ELLIPSE
  5
24F
330
17
100
AcDbEntity
  8
visible
100
AcDbEllipse
 10
24.500000048865
 20
14.49387527042174
 30
0.0
 11
-5.199554368818272e-13
 21
0.8
 31
0.0
 40
1e-10
 41
-6.283185307179586
 42
-4.725388248175598
  0
ELLIPSE
  5
250
330
17
100
AcDbEntity
  8
visible
100
AcDbEllipse
 10
24.500000048865
 20
14.49387527042174
 30
0.0
 11
-5.199554368818272e-13
 21
0.8
 31
0.0
 40
1e-10
 41
-0.012999267790907876
 42
-0.0
  0
ELLIPSE
  5
251
330
17
100
AcDbEntity
  8
visible
100
AcDbEllipse
 10
-24.499999951135
 20
14.493875270389893
 30
0.0
 11
-5.19956073644361e-13
 21
0.8
 31
0.0
 40
1e-10
 41
-6.283185307179586
 42
-4.725388248175598
  0
ELLIPSE
  5
252
330
17
100
AcDbEntity
  8
visible
100
AcDbEllipse
 10
-24.499999951135
 20
14.493875270389893
 30
0.0
 11
-5.19956073644361e-13
 21
0.8
 31
0.0
 40
1e-10
 41
-0.012999267790907876
 42
-0.0
  0
ELLIPSE
  5
253
330
17
100
AcDbEntity
  8
visible
100
AcDbEllipse
 10
-25.699999951075
 20
14.478276588362078
 30
0.0
 11
-0.8
 21
-3.0771793216035696e-09
 31
0.0
 40
0.999915510708217
 41
-1.5707963306410457
 42
-3.846149166127497e-09
  0
LINE
  5
254
330
17
100
AcDbEntity
  8
visible
100
AcDbLine
 10
-23.499999948625
 20
18.640924856992
 30
0.0
 11
-23.499999948625
 21
19.35586444989815
 31
0.0
  0
LINE
  5
255
330
17
100
AcDbEntity
  8
visible
100
AcDbLine
 10
23.500000051375
 20
18.640924857022554
 30
0.0
 11
23.500000051375
 21
19.355864449928703
 31
0.0
  0
ELLIPSE
  5
256
330
17
100
AcDbEntity
  8
visible
100
AcDbEllipse
 10
-23.499999948825
 20
18.69292046374882
 30
0.0
 11
2.5997803682218053e-12
 21
-4.0
 31
0.0
 40
1e-10
 41
0.5601443680664016
 42
1.5577970590039882
  0
ELLIPSE
  5
257
330
17
100
AcDbEntity
  8
visible
100
AcDbEllipse
 10
23.500000051175
 20
18.69292046377936
 30
0.0
 11
2.5997803682218053e-12
 21
-4.0
 31
0.0
 40
1e-10
 41
0.5601443680664069
 42
1.5577970590039882
  0
ELLIPSE
  5
258
330
17
100
AcDbEntity
  8
visible
100
AcDbEllipse
 10
23.500000051175
 20
60.6893719135245
 30
0.0
 11
4.0
 21
0.0
 31
0.0
 40
0.012998901689202595
 41
-3.427826794943911e-05
 42
5.000000413701855e-11
  0
ELLIPSE
  5
259
330
17
100
AcDbEntity
  8
visible
100
AcDbEllipse
 10
-23.499999948825
 20
18.69292046374882
 30
0.0
 11
-4.0
 21
-1.5385934292641626e-08
 31
0.0
 40
0.999915510708217
 41
-6.283185311025745
 42
-5.263287319438729
  0
LINE
  5
25A
330
17
100
AcDbEntity
  8
visible
100
AcDbLine
 10
-27.499999948825
 20
18.692920463746212
 30
0.0
 11
-27.499999951175
 21
19.303868843138734
 31
0.0
  0
LINE
  5
25B
330
17
100
AcDbEntity
  8
visible
100
AcDbLine
 10
-27.499999951175
 20
19.303868843138744
 30
0.0
 11
-27.499999951175
 21
61.30032029288386
 31
0.0
  0
LINE
  5
25C
330
17
100
AcDbEntity
  8
visible
100
AcDbLine
 10
-23.49999995113526
 20
15.293875270390553
 30
0.0
 11
-23.499999951175
 21
15.304206800308467
 31
0.0
  0
LINE
  5
25D
330
17
100
AcDbEntity
  8
visible
100
AcDbLine
 10
23.50000004886474
 20
15.2938752704211
 30
0.0
 11
23.500000048825
 21
15.30420680033902
 31
0.0
  0
LINE
  5
25E
330
17
100
AcDbEntity
  8
visible
100
AcDbLine
 10
-23.499999951175
 20
15.304206800308478
 30
0.0
 11
-19.999999953459998
 21
15.304206800310752
 31
0.0
  0
LINE
  5
25F
330
17
100
AcDbEntity
  8
visible
100
AcDbLine
 10
20.000000047889998
 20
15.30420680033675
 30
0.0
 11
23.500000048825
 21
15.304206800339024
 31
0.0
  0
ELLIPSE
  5
260
330
17
100
AcDbEntity
  8
visible
100
AcDbEllipse
 10
23.500000051175
 20
18.69292046377936
 30
0.0
 11
4.0
 21
1.5385896608017848e-08
 31
0.0
 40
0.999915510708217
 41
5.263287317639255
 42
6.283185303333437
  0
LINE
  5
261
330
17
100
AcDbEntity
  8
visible
100
AcDbLine
 10
-23.499999951175
 20
65.29998233571932
 30
0.0
 11
-12.792195539555518
 21
65.29998233572628
 31
0.0
  0
LINE
  5
262
330
17
100
AcDbEntity
  8
visible
100
AcDbLine
 10
12.792202200237952
 20
65.29998233574291
 30
0.0
 11
23.500000048825
 21
65.29998233574987
 31
0.0
  0
ELLIPSE
  5
263
330
17
100
AcDbEntity
  8
visible
100
AcDbEllipse
 10
23.500000051175
 20
60.6893719135245
 30
0.0
 11
4.0
 21
1.5385915450329665e-08
 31
0.0
 40
0.999915510708217
 41
-3.846153617814707e-09
 42
0.0002974248462201956
  0
LINE
  5
264
330
17
100
AcDbEntity
  8
visible
100
AcDbLine
 10
27.500000051175
 20
18.692920463781967
 30
0.0
 11
27.500000048825
 21
19.303868843174488
 31
0.0
  0
LINE
  5
265
330
17
100
AcDbEntity
  8
visible
100
AcDbLine
 10
27.500000051175
 20
60.68937191352709
 30
0.0
 11
27.500000048825
 21
61.30032029291961
 31
0.0
  0
LINE
  5
266
330
17
100
AcDbEntity
  8
visible
100
AcDbLine
 10
27.500000048825
 20
19.303868843174484
 30
0.0
 11
27.500000048825
 21
61.3003202929196
 31
0.0
  0
ELLIPSE
  5
267
330
17
100
AcDbEntity
  8
visible
100
AcDbEllipse
 10
-23.499999951175
 20
19.303868843141345
 30
0.0
 11
-4.0
 21
-1.5385896608017848e-08
 31
0.0
 40
0.999915510708217
 41
-6.283185311025735
 42
-4.712388984230839
  0
ELLIPSE
  5
268
330
17
100
AcDbEntity
  8
visible
100
AcDbEllipse
 10
-23.499999951175
 20
61.300320292886454
 30
0.0
 11
4.0
 21
1.5385896608017848e-08
 31
0.0
 40
0.999915510708217
 41
1.5707963229487474
 42
3.141592649743643
  0
LINE
  5
269
330
17
100
AcDbEntity
  8
visible
100
AcDbLine
 10
-23.499999951375
 20
19.35586444989815
 30
0.0
 11
-23.499999951375
 21
61.352315899643266
 31
0.0
  0
ELLIPSE
  5
26A
330
17
100
AcDbEntity
  8
visible
100
AcDbEllipse
 10
-23.499999951175
 20
19.303868843141345
 30
0.0
 11
-4.0
 21
-0.0
 31
0.0
 40
0.012998901689202595
 41
4.71238898043469
 42
6.283185307229586
  0
ELLIPSE
  5
26B
330
17
100
AcDbEntity
  8
visible
100
AcDbEllipse
 10
-23.499999951175
 20
61.300320292886454
 30
0.0
 11
-4.0
 21
-0.0
 31
0.0
 40
0.012998901689202595
 41
4.71238898043469
 42
6.283185307229586
  0
ELLIPSE
  5
26C
330
17
100
AcDbEntity
  8
visible
100
AcDbEllipse
 10
23.500000048825
 20
19.303868843171884
 30
0.0
 11
4.0
 21
1.5385934292641626e-08
 31
0.0
 40
0.999915510708217
 41
4.712388976538531
 42
6.283185303333427
  0
ELLIPSE
  5
26D
330
17
100
AcDbEntity
  8
visible
100
AcDbEllipse
 10
-23.499999951175
 20
19.303868843141345
 30
0.0
 11
-2.5997803682218053e-12
 21
4.0
 31
0.0
 40
1e-10
 41
-4.725388248175598
 42
-3.154591921380701
  0
LINE
  5
26E
330
17
100
AcDbEntity
  8
visible
100
AcDbLine
 10
-23.499999951375
 20
19.35586444989815
 30
0.0
 11
-19.999999953459998
 21
19.355864449900423
 31
0.0
  0
LINE
  5
26F
330
17
100
AcDbEntity
  8
visible
100
AcDbLine
 10
20.00000004789
 20
19.355864449926422
 30
0.0
 11
23.500000048625
 21
19.355864449928696
 31
0.0
  0
ELLIPSE
  5
270
330
17
100
AcDbEntity
  8
visible
100
AcDbEllipse
 10
23.500000048825
 20
19.303868843171884
 30
0.0
 11
-2.5997803682218053e-12
 21
4.0
 31
0.0
 40
1e-10
 41
-4.725388248175598
 42
-3.154591921380701
  0
ELLIPSE
  5
271
330
17
100
AcDbEntity
  8
visible
100
AcDbEllipse
 10
23.500000048825
 20
61.30032029291701
 30
0.0
 11
4.0
 21
1.5385915450329807e-08
 31
0.0
 40
0.999915510708217
 41
-3.846153617814707e-09
 42
1.570796322948743
  0
ELLIPSE
  5
272
330
17
100
AcDbEntity
  8
visible
100
AcDbEllipse
 10
-23.499999951175
 20
61.300320292886454
 30
0.0
 11
2.5997803682218053e-12
 21
-4.0
 31
0.0
 40
1e-10
 41
3.1285933857988852
 42
3.1415926535897927
  0
ELLIPSE
  5
273
330
17
100
AcDbEntity
  8
visible
100
AcDbEllipse
 10
-23.499999951175
 20
61.300320292886454
 30
0.0
 11
2.5997803682218053e-12
 21
-4.0
 31
0.0
 40
1e-10
 41
3.1415926535897927
 42
4.699389712593781
  0
LINE
  5
274
330
17
100
AcDbEntity
  8
visible
100
AcDbLine
 10
-23.499999951375
 20
61.35231589964327
 30
0.0
 11
-16.650346388441424
 21
61.35231589964772
 31
0.0
  0
LINE
  5
275
330
17
100
AcDbEntity
  8
visible
100
AcDbLine
 10
16.65036488868405
 20
61.35231589966937
 30
0.0
 11
23.500000048625
 21
61.35231589967382
 31
0.0
  0
ELLIPSE
  5
276
330
17
100
AcDbEntity
  8
visible
100
AcDbEllipse
 10
23.500000048825
 20
61.30032029291701
 30
0.0
 11
-2.5997803682218053e-12
 21
4.0
 31
0.0
 40
1e-10
 41
-6.283185307179586
 42
-4.725388248175598
  0
ELLIPSE
  5
277
330
17
100
AcDbEntity
  8
visible
100
AcDbEllipse
 10
23.500000048825
 20
61.30032029291701
 30
0.0
 11
-2.5997803682218053e-12
 21
4.0
 31
0.0
 40
1e-10
 41
-0.012999267790907876
 42
-0.0
  0
LINE
  5
278
330
17
100
AcDbEntity
  8
visible
100
AcDbLine
 10
23.500000048625
 20
19.355864449928703
 30
0.0
 11
23.500000048625
 21
61.35231589967382
 31
0.0
  0
ELLIPSE
  5
279
330
17
100
AcDbEntity
  8
visible
100
AcDbEllipse
 10
23.500000048825
 20
19.303868843171884
 30
0.0
 11
4.0
 21
0.0
 31
0.0
 40
0.012998901689202595
 41
-6.283185307129586
 42
-4.71238898033469
  0
ELLIPSE
  5
27A
330
17
100
AcDbEntity
  8
visible
100
AcDbEllipse
 10
23.500000048825
 20
61.30032029291701
 30
0.0
 11
-4.0
 21
-0.0
 31
0.0
 40
0.012998901689202595
 41
3.141592653639793
 42
4.71238898043469
  0
LINE
  5
27B
330
17
100
AcDbEntity
  8
visible
100
AcDbLine
 10
-37.99999994643947
 20
-68.91984416988387
 30
0.0
 11
38.00000005356053
 21
-68.91984416983448
 31
0.0
  0
SPLINE
  5
27C
330
17
100
AcDbEntity
  8
visible
100
AcDbSpline
 70
0
 71
3
 72
32
 73
28
 74
0
 40
0.0
 40
0.0
 40
0.0
 40
0.0
 40
0.08867710657738792
 40
0.08867710657738792
 40
0.08867710657738792
 40
0.17735421315477584
 40
0.17735421315477584
 40
0.17735421315477584
 40
0.26603131973216376
 40
0.26603131973216376
 40
0.26603131973216376
 40
0.3103698730208577
 40
0.3103698730208577
 40
0.3103698730208577
 40
0.3547084263095517
 40
0.3547084263095517
 40
0.3547084263095517
 40
0.4433855328869396
 40
0.4433855328869396
 40
0.4433855328869396
 40
0.5320626394643275
 40
0.5320626394643275
 40
0.5320626394643275
 40
0.7235020727201251
 40
0.7235020727201251
 40
0.7235020727201251
 40
1.0
 40
1.0
 40
1.0
 40
1.0
 10
-59.9999999475
 20
-67.84426745408707
 30
0.0
 10
-60.00281664873104
 20
-68.08114493074162
 30
0.0
 10
-59.886197811638546
 20
-68.31622173101877
 30
0.0
 10
-59.717043193967925
 20
-68.45683738264374
 30
0.0
 10
-59.661668423237096
 20
-68.50288116781446
 30
0.0
 10
-59.608046829560806
 20
-68.53865573836944
 30
0.0
 10
-59.556178412939005
 20
-68.56416109430842
 30
0.0
 10
-59.49168244367893
 20
-68.59506064096935
 30
0.0
 10
-59.4402180775513
 20
-68.61530152566664
 30
0.0
 10
-59.40178531455602
 20
-68.62488374840012
 30
0.0
 10
-59.32600227996391
 20
-68.6462458476015
 30
0.0
 10
-59.28160909230541
 20
-68.6525408932783
 30
0.0
 10
-59.233942596534234
 20
-68.66001354905424
 30
0.0
 10
-59.18844825201842
 20
-68.66660602629982
 30
0.0
 10
-59.14102109675868
 20
-68.67223927967383
 30
0.0
 10
-59.091661130754915
 20
-68.67691330917617
 30
0.0
 10
-58.864364655811634
 20
-68.69880380252285
 30
0.0
 10
-58.521830187434546
 20
-68.71669323278019
 30
0.0
 10
-58.03322148574219
 20
-68.7349855888413
 30
0.0
 10
-57.566290486015504
 20
-68.7522525958971
 30
0.0
 10
-56.97750663262703
 20
-68.76869744463389
 30
0.0
 10
-56.26686992557674
 20
-68.78432013505163
 30
0.0
 10
-54.73797025078479
 20
-68.81798375155816
 30
0.0
 10
-52.655790699981914
 20
-68.84725997205197
 30
0.0
 10
-50.1998691669225
 20
-68.86967483087145
 30
0.0
 10
-46.65773950589299
 20
-68.90217977159834
 30
0.0
 10
-42.334676988287946
 20
-68.91995474156579
 30
0.0
 10
-37.99999994643947
 20
-68.91984416988389
 30
0.0
  0
SPLINE
  5
27D
330
17
100
AcDbEntity
  8
visible
100
AcDbSpline
 70
0
 71
3
 72
32
 73
28
 74
0
 40
0.0
 40
0.0
 40
0.0
 40
0.0
 40
0.16287456246263926
 40
0.16287456246263926
 40
0.16287456246263926
 40
0.2367174938052336
 40
0.2367174938052336
 40
0.2367174938052336
 40
0.2946090992880226
 40
0.2946090992880226
 40
0.2946090992880226
 40
0.34850175014944307
 40
0.34850175014944307
 40
0.34850175014944307
 40
0.42993903138076267
 40
0.42993903138076267
 40
0.42993903138076267
 40
0.5113763126120823
 40
0.5113763126120823
 40
0.5113763126120823
 40
0.6742508750747216
 40
0.6742508750747216
 40
0.6742508750747216
 40
0.8371254375373609
 40
0.8371254375373609
 40
0.8371254375373609
 40
1.0
 40
1.0
 40
1.0
 40
1.0
 10
38.00000005356053
 20
-68.91984416983448
 30
0.0
 10
42.53606618153035
 20
-68.91997615048004
 30
0.0
 10
47.05757943065608
 20
-68.90046328277147
 30
0.0
 10
50.68786437253674
 20
-68.8650793269022
 30
0.0
 10
52.335623258523206
 20
-68.8491001038607
 30
0.0
 10
53.80331154494607
 20
-68.82998427922551
 30
0.0
 10
55.03044164893725
 20
-68.80850826982076
 30
0.0
 10
55.99616928772869
 20
-68.7916059010907
 30
0.0
 10
56.804626143803496
 20
-68.77346697047756
 30
0.0
 10
57.45581221716178
 20
-68.7540914779812
 30
0.0
 10
58.0594189048535
 20
-68.73617781914551
 30
0.0
 10
58.51787642369871
 20
-68.71721757874154
 30
0.0
 10
58.831184773697416
 20
-68.69721075676912
 30
0.0
 10
58.93852220713532
 20
-68.69037654713446
 30
0.0
 10
59.03172739981834
 20
-68.6829780888775
 30
0.0
 10
59.11080035174635
 20
-68.67501538199798
 30
0.0
 10
59.19358638446782
 20
-68.66577899865649
 30
0.0
 10
59.25432302030916
 20
-68.66007453900912
 30
0.0
 10
59.35213452274036
 20
-68.63792380315107
 30
0.0
 10
59.39207095526118
 20
-68.62803538632245
 30
0.0
 10
59.44231243473137
 20
-68.61569895411206
 30
0.0
 10
59.517983372374786
 20
-68.5824211657588
 30
0.0
 10
59.57893260679868
 20
-68.55698020116078
 30
0.0
 10
59.644676181735214
 20
-68.5156380438484
 30
0.0
 10
59.7152140971842
 20
-68.45839469382148
 30
0.0
 10
59.88526042576644
 20
-68.31794604035845
 30
0.0
 10
60.00286922002954
 20
-68.08202352243775
 30
0.0
 10
60.0000000525
 20
-67.84426745400908
 30
0.0
  0
SPLINE
  5
27E
330
17
100
AcDbEntity
  8
visible
100
AcDbSpline
 70
0
 71
2
 72
6
 73
3
 74
0
 40
0.0
 40
0.0
 40
0.0
 40
1.0
 40
1.0
 40
1.0
 10
-59.389822590657786
 20
-33.14646140294256
 30
0.0
 10
-59.39998082763455
 20
-33.196263385218366
 30
0.0
 10
-59.399999952499996
 20
-33.24719077856889
 30
0.0
  0
SPLINE
  5
27F
330
17
100
AcDbEntity
  8
visible
100
AcDbSpline
 70
0
 71
2
 72
6
 73
3
 74
0
 40
0.0
 40
0.0
 40
0.0
 40
1.0
 40
1.0
 40
1.0
 10
59.38982268565779
 20
-33.146461402893166
 30
0.0
 10
59.39998092243993
 20
-33.19626338421133
 30
0.0
 10
59.4000000475
 20
-33.24719077658267
 30
0.0
  0
SPLINE
  5
280
330
17
100
AcDbEntity
  8
visible
100
AcDbSpline
 70
0
 71
3
 72
32
 73
28
 74
0
 40
0.0
 40
0.0
 40
0.0
 40
0.0
 40
0.1628745624626369
 40
0.1628745624626369
 40
0.1628745624626369
 40
0.2367174938052312
 40
0.2367174938052312
 40
0.2367174938052312
 40
0.2946090992880261
 40
0.2946090992880261
 40
0.2946090992880261
 40
0.3485017501494525
 40
0.3485017501494525
 40
0.3485017501494525
 40
0.42993903138077094
 40
0.42993903138077094
 40
0.42993903138077094
 40
0.5113763126120894
 40
0.5113763126120894
 40
0.5113763126120894
 40
0.6742508750747263
 40
0.6742508750747263
 40
0.6742508750747263
 40
0.8371254375373631
 40
0.8371254375373631
 40
0.8371254375373631
 40
1.0
 40
1.0
 40
1.0
 40
1.0
 10
-37.99999995356051
 20
-27.07204495814589
 30
0.0
 10
-42.53606608153042
 20
-27.07191297750033
 30
0.0
 10
-47.05757933065602
 20
-27.09142584520887
 30
0.0
 10
-50.68786427253674
 20
-27.12680980107817
 30
0.0
 10
-52.33562315852321
 20
-27.142789024119615
 30
0.0
 10
-53.803311444946104
 20
-27.161904848754887
 30
0.0
 10
-55.0304415489372
 20
-27.183380858159644
 30
0.0
 10
-55.99616918772864
 20
-27.200283226889635
 30
0.0
 10
-56.80462604380356
 20
-27.218422157502832
 30
0.0
 10
-57.45581211716173
 20
-27.23779764999916
 30
0.0
 10
-58.05941880485354
 20
-27.255711308834854
 30
0.0
 10
-58.5178763236987
 20
-27.274671549238832
 30
0.0
 10
-58.83118467369742
 20
-27.294678371211244
 30
0.0
 10
-58.93852210713535
 20
-27.30151258084584
 30
0.0
 10
-59.03172729981833
 20
-27.308911039102913
 30
0.0
 10
-59.1108002517463
 20
-27.31687374598237
 30
0.0
 10
-59.193586284467905
 20
-27.326110129323872
 30
0.0
 10
-59.25432292030911
 20
-27.331814588971262
 30
0.0
 10
-59.35213442274036
 20
-27.353965324829296
 30
0.0
 10
-59.39207085526121
 20
-27.363853741657834
 30
0.0
 10
-59.442312334731305
 20
-27.376190173868345
 30
0.0
 10
-59.51798327237478
 20
-27.409467962221576
 30
0.0
 10
-59.578932506798694
 20
-27.43490892681952
 30
0.0
 10
-59.6446760817352
 20
-27.476251084131995
 30
0.0
 10
-59.71521399718419
 20
-27.533494434158897
 30
0.0
 10
-59.885260325766495
 20
-27.673943087621826
 30
0.0
 10
-60.00286912002949
 20
-27.909865605542677
 30
0.0
 10
-59.999999952500005
 20
-28.147621673971287
 30
0.0
  0
SPLINE
  5
281
330
17
100
AcDbEntity
  8
visible
100
AcDbSpline
 70
0
 71
3
 72
32
 73
28
 74
0
 40
0.0
 40
0.0
 40
0.0
 40
0.0
 40
0.08867710657739503
 40
0.08867710657739503
 40
0.08867710657739503
 40
0.17735421315479005
 40
0.17735421315479005
 40
0.17735421315479005
 40
0.2660313197321851
 40
0.2660313197321851
 40
0.2660313197321851
 40
0.3103698730208826
 40
0.3103698730208826
 40
0.3103698730208826
 40
0.3547084263095801
 40
0.3547084263095801
 40
0.3547084263095801
 40
0.44338553288697513
 40
0.44338553288697513
 40
0.44338553288697513
 40
0.5320626394643702
 40
0.5320626394643702
 40
0.5320626394643702
 40
0.723502072720161
 40
0.723502072720161
 40
0.723502072720161
 40
1.0
 40
1.0
 40
1.0
 40
1.0
 10
60.000000047499995
 20
-28.14762167389329
 30
0.0
 10
60.00281674873109
 20
-27.910744197238706
 30
0.0
 10
59.88619791163847
 20
-27.675667396961593
 30
0.0
 10
59.71704329396793
 20
-27.535051745336624
 30
0.0
 10
59.66166852323719
 20
-27.489007960165868
 30
0.0
 10
59.60804692956078
 20
-27.45323338961097
 30
0.0
 10
59.55617851293901
 20
-27.427728033671933
 30
0.0
 10
59.49168254367899
 20
-27.396828487010996
 30
0.0
 10
59.44021817755127
 20
-27.376587602313734
 30
0.0
 10
59.40178541455603
 20
-27.367005379580245
 30
0.0
 10
59.32600237996388
 20
-27.34564328037882
 30
0.0
 10
59.281609192305496
 20
-27.339348234702047
 30
0.0
 10
59.23394269653424
 20
-27.331875578926134
 30
0.0
 10
59.18844835201841
 20
-27.32528310168051
 30
0.0
 10
59.14102119675867
 20
-27.319649848306554
 30
0.0
 10
59.09166123075492
 20
-27.3149758188042
 30
0.0
 10
58.864364755811636
 20
-27.293085325457483
 30
0.0
 10
58.52183028743458
 20
-27.275195895200213
 30
0.0
 10
58.03322158574219
 20
-27.25690353913906
 30
0.0
 10
57.56629058601557
 20
-27.23963653208323
 30
0.0
 10
56.97750673262706
 20
-27.22319168334648
 30
0.0
 10
56.2668700255767
 20
-27.207568992928753
 30
0.0
 10
54.73797035078488
 20
-27.173905376422173
 30
0.0
 10
52.655790799982036
 20
-27.144629155928374
 30
0.0
 10
50.19986926692249
 20
-27.122214297108947
 30
0.0
 10
46.657739605892985
 20
-27.089709356381977
 30
0.0
 10
42.33467708828797
 20
-27.07193438641458
 30
0.0
 10
38.000000046439474
 20
-27.072044958096495
 30
0.0
  0
LINE
  5
282
330
17
100
AcDbEntity
  8
visible
100
AcDbLine
 10
38.00000004643948
 20
-27.07204495809649
 30
0.0
 11
-37.99999995356052
 21
-27.072044958145888
 31
0.0
  0
SPLINE
  5
283
330
17
100
AcDbEntity
  8
visible
100
AcDbSpline
 70
0
 71
2
 72
6
 73
3
 74
0
 40
0.0
 40
0.0
 40
0.0
 40
0.01886362172692447
 40
0.01886362172692447
 40
0.01886362172692447
 10
-59.9999999475
 20
-27.8476470257584
 30
0.0
 10
-59.99990025931463
 20
-27.923350882429652
 30
0.0
 10
-59.98587819912578
 20
-27.997635242303783
 30
0.0
  0
SPLINE
  5
284
330
17
100
AcDbEntity
  8
visible
100
AcDbSpline
 70
0
 71
2
 72
6
 73
3
 74
0
 40
0.0
 40
0.0
 40
0.0
 40
1.0
 40
1.0
 40
1.0
 10
59.98587829912579
 20
-27.997633457347835
 30
0.0
 10
59.99989828325548
 20
-27.923349795529504
 30
0.0
 10
60.0000000525
 20
-27.847647025680402
 30
0.0
  0
SPLINE
  5
285
330
17
100
AcDbEntity
  8
visible
100
AcDbSpline
 70
0
 71
3
 72
32
 73
28
 74
0
 40
0.0
 40
0.0
 40
0.0
 40
0.0
 40
0.1628745624626369
 40
0.1628745624626369
 40
0.1628745624626369
 40
0.2367174938052312
 40
0.2367174938052312
 40
0.2367174938052312
 40
0.2946090992880261
 40
0.2946090992880261
 40
0.2946090992880261
 40
0.3485017501494525
 40
0.3485017501494525
 40
0.3485017501494525
 40
0.42993903138077094
 40
0.42993903138077094
 40
0.42993903138077094
 40
0.5113763126120894
 40
0.5113763126120894
 40
0.5113763126120894
 40
0.6742508750747263
 40
0.6742508750747263
 40
0.6742508750747263
 40
0.8371254375373631
 40
0.8371254375373631
 40
0.8371254375373631
 40
1.0
 40
1.0
 40
1.0
 40
1.0
 10
-37.99999995356051
 20
-23.072382915313028
 30
0.0
 10
-42.53606608153042
 20
-23.072250934667426
 30
0.0
 10
-47.05757933065602
 20
-23.091763802376054
 30
0.0
 10
-50.68786427253674
 20
-23.127147758245286
 30
0.0
 10
-52.33562315852321
 20
-23.14312698128677
 30
0.0
 10
-53.803311444946104
 20
-23.16224280592201
 30
0.0
 10
-55.0304415489372
 20
-23.183718815326777
 30
0.0
 10
-55.99616918772864
 20
-23.20062118405677
 30
0.0
 10
-56.80462604380356
 20
-23.21876011466997
 30
0.0
 10
-57.45581211716173
 20
-23.238135607166292
 30
0.0
 10
-58.05941880485354
 20
-23.256049266001988
 30
0.0
 10
-58.5178763236987
 20
-23.275009506405997
 30
0.0
 10
-58.83118467369742
 20
-23.295016328378367
 30
0.0
 10
-58.93852210713535
 20
-23.30185053801298
 30
0.0
 10
-59.03172729981834
 20
-23.309248996270036
 30
0.0
 10
-59.11080025174631
 20
-23.31721170314951
 30
0.0
 10
-59.19358628446789
 20
-23.326448086491027
 30
0.0
 10
-59.254322920309136
 20
-23.33215254613838
 30
0.0
 10
-59.35213442274036
 20
-23.354303281996437
 30
0.0
 10
-59.39207085526121
 20
-23.36419169882496
 30
0.0
 10
-59.442312334731305
 20
-23.37652813103548
 30
0.0
 10
-59.51798327237478
 20
-23.40980591938871
 30
0.0
 10
-59.5789325067987
 20
-23.435246883986668
 30
0.0
 10
-59.64467608173517
 20
-23.476589041299132
 30
0.0
 10
-59.71521399718419
 20
-23.53383239132603
 30
0.0
 10
-59.885260325766495
 20
-23.67428104478896
 30
0.0
 10
-60.00286912002949
 20
-23.910203562709814
 30
0.0
 10
-59.999999952500005
 20
-24.14795963113842
 30
0.0
  0
SPLINE
  5
286
330
17
100
AcDbEntity
  8
visible
100
AcDbSpline
 70
0
 71
3
 72
32
 73
28
 74
0
 40
0.0
 40
0.0
 40
0.0
 40
0.0
 40
0.08867710657739503
 40
0.08867710657739503
 40
0.08867710657739503
 40
0.17735421315479005
 40
0.17735421315479005
 40
0.17735421315479005
 40
0.2660313197321851
 40
0.2660313197321851
 40
0.2660313197321851
 40
0.3103698730208826
 40
0.3103698730208826
 40
0.3103698730208826
 40
0.3547084263095801
 40
0.3547084263095801
 40
0.3547084263095801
 40
0.44338553288697513
 40
0.44338553288697513
 40
0.44338553288697513
 40
0.5320626394643702
 40
0.5320626394643702
 40
0.5320626394643702
 40
0.723502072720161
 40
0.723502072720161
 40
0.723502072720161
 40
1.0
 40
1.0
 40
1.0
 40
1.0
 10
60.000000047499995
 20
-24.147959631060424
 30
0.0
 10
60.00281674873104
 20
-23.911082154405886
 30
0.0
 10
59.88619791163851
 20
-23.676005354128698
 30
0.0
 10
59.71704329396793
 20
-23.535389702503764
 30
0.0
 10
59.66166852323719
 20
-23.489345917332983
 30
0.0
 10
59.60804692956078
 20
-23.453571346778084
 30
0.0
 10
59.55617851293901
 20
-23.428065990839073
 30
0.0
 10
59.49168254367899
 20
-23.397166444178122
 30
0.0
 10
59.44021817755127
 20
-23.37692555948087
 30
0.0
 10
59.40178541455603
 20
-23.367343336747382
 30
0.0
 10
59.32600237996387
 20
-23.34598123754595
 30
0.0
 10
59.28160919230552
 20
-23.339686191869188
 30
0.0
 10
59.23394269653424
 20
-23.33221353609327
 30
0.0
 10
59.18844835201844
 20
-23.325621058847645
 30
0.0
 10
59.14102119675869
 20
-23.319987805473684
 30
0.0
 10
59.09166123075492
 20
-23.315313775971333
 30
0.0
 10
58.864364755811636
 20
-23.293423282624623
 30
0.0
 10
58.52183028743458
 20
-23.275533852367335
 30
0.0
 10
58.03322158574219
 20
-23.2572414963062
 30
0.0
 10
57.56629058601557
 20
-23.239974489250372
 30
0.0
 10
56.97750673262706
 20
-23.2235296405136
 30
0.0
 10
56.2668700255767
 20
-23.207906950095882
 30
0.0
 10
54.73797035078488
 20
-23.174243333589317
 30
0.0
 10
52.655790799982036
 20
-23.144967113095504
 30
0.0
 10
50.19986926692249
 20
-23.122552254276076
 30
0.0
 10
46.657739605892985
 20
-23.090047313549114
 30
0.0
 10
42.33467708828797
 20
-23.072272343581727
 30
0.0
 10
38.000000046439474
 20
-23.07238291526363
 30
0.0
  0
LINE
  5
287
330
17
100
AcDbEntity
  8
visible
100
AcDbLine
 10
38.00000004643948
 20
-23.072382915263624
 30
0.0
 11
-37.99999995356052
 21
-23.07238291531302
 31
0.0
  0
LINE
  5
288
330
17
100
AcDbEntity
  8
visible
100
AcDbLine
 10
22.50000005
 20
-23.0723829152737
 30
0.0
 11
22.50000005
 21
-22.53436210910823
 31
0.0
  0
LINE
  5
289
330
17
100
AcDbEntity
  8
visible
100
AcDbLine
 10
-22.49999995
 20
-23.072382915302946
 30
0.0
 11
-22.49999995
 21
-22.534363050014697
 31
0.0
  0
SPLINE
  5
28A
330
17
100
AcDbEntity
  8
visible
100
AcDbSpline
 70
0
 71
3
 72
8
 73
4
 74
0
 40
0.0
 40
0.0
 40
0.0
 40
0.0
 40
0.05408961117161075
 40
0.05408961117161075
 40
0.05408961117161075
 40
0.05408961117161075
 10
-19.999999952099998
 20
-6.2534716518781295
 30
0.0
 10
-20.000748988605782
 20
-6.455035333546823
 30
0.0
 10
-19.92130114331553
 20
-6.655380376143915
 30
0.0
 10
-19.782988839040673
 20
-6.801639813410437
 30
0.0
  0
SPLINE
  5
28B
330
17
100
AcDbEntity
  8
visible
100
AcDbSpline
 70
0
 71
3
 72
11
 73
7
 74
0
 40
0.0
 40
0.0
 40
0.0
 40
0.0
 40
0.4917719366224538
 40
0.4917719366224538
 40
0.4917719366224538
 40
0.9716596790033738
 40
0.9716596790033738
 40
0.9716596790033738
 40
0.9716596790033738
 10
-19.99999995189
 20
10.990471296279381
 30
0.0
 10
-20.000409005237277
 20
9.212945776734001
 30
0.0
 10
-19.735169630315937
 20
7.435680329172316
 30
0.0
 10
-19.215781264866415
 20
5.735717229441331
 30
0.0
 10
-18.70967989132349
 20
4.076613562817119
 30
0.0
 10
-17.96180590994469
 20
2.4915509327919714
 30
0.0
 10
-17.003043546709954
 20
1.045989627106199
 30
0.0
  0
SPLINE
  5
28C
330
17
100
AcDbEntity
  8
visible
100
AcDbSpline
 70
0
 71
3
 72
8
 73
4
 74
0
 40
0.0
 40
0.0
 40
0.0
 40
0.0
 40
1.0
 40
1.0
 40
1.0
 40
1.0
 10
19.782989494452362
 20
-6.8016398160714395
 30
0.0
 10
19.921301093837094
 20
-6.655379492145405
 30
0.0
 10
20.000749177342268
 20
-6.455035409339571
 30
0.0
 10
20.000000047900002
 20
-6.253471651852131
 30
0.0
  0
SPLINE
  5
28D
330
17
100
AcDbEntity
  8
visible
100
AcDbSpline
 70
0
 71
3
 72
11
 73
7
 74
0
 40
0.0
 40
0.0
 40
0.0
 40
0.0
 40
0.47694804939410734
 40
0.47694804939410734
 40
0.47694804939410734
 40
1.0
 40
1.0
 40
1.0
 40
1.0
 10
17.003043626168513
 20
1.045989626806132
 30
0.0
 10
17.928894120623056
 20
2.4419925041350186
 30
0.0
 10
18.658193814322086
 20
3.968038317591888
 30
0.0
 10
19.162833480718923
 20
5.565305752545171
 30
0.0
 10
19.717039859797072
 20
7.316743647735472
 30
0.0
 10
20.00046637047657
 20
9.153454236627034
 30
0.0
 10
20.00000004811
 20
10.990471296305373
 30
0.0
  0
SPLINE
  5
28E
330
17
100
AcDbEntity
  8
visible
100
AcDbSpline
 70
0
 71
3
 72
26
 73
22
 74
0
 40
0.0
 40
0.0
 40
0.0
 40
0.0
 40
0.11327175892532541
 40
0.11327175892532541
 40
0.11327175892532541
 40
0.20701610751455202
 40
0.20701610751455202
 40
0.20701610751455202
 40
0.36561288601164166
 40
0.36561288601164166
 40
0.36561288601164166
 40
0.5242096645087313
 40
0.5242096645087313
 40
0.5242096645087313
 40
0.6828064430058209
 40
0.6828064430058209
 40
0.6828064430058209
 40
0.8414032215029105
 40
0.8414032215029105
 40
0.8414032215029105
 40
1.0
 40
1.0
 40
1.0
 40
1.0
 10
-16.89324789789347
 20
1.0467343376571467
 30
0.0
 10
-17.418845380398277
 20
1.043300592690666
 30
0.0
 10
-17.88795699741757
 20
1.038419055925542
 30
0.0
 10
-18.262136551338376
 20
1.0324730780548061
 30
0.0
 10
-18.57363131554549
 20
1.02754538723781
 30
0.0
 10
-18.815592361973998
 20
1.0219492092852276
 30
0.0
 10
-18.98801969062394
 20
1.0156845441970574
 30
0.0
 10
-19.09607074315418
 20
1.0115033038858086
 30
0.0
 10
-19.168703902024667
 20
1.008321265628278
 30
0.0
 10
-19.244340102654732
 20
1.0010727775999584
 30
0.0
 10
-19.28207512012681
 20
0.9967355019334562
 30
0.0
 10
-19.335050734400518
 20
0.9926101827604334
 30
0.0
 10
-19.422641303448952
 20
0.9675901309418293
 30
0.0
 10
-19.472026204617432
 20
0.9532184636489145
 30
0.0
 10
-19.521430076826295
 20
0.9331916503457391
 30
0.0
 10
-19.57085292007554
 20
0.9075096910323026
 30
0.0
 10
-19.604357635639527
 20
0.8899147640469082
 30
0.0
 10
-19.636592662325715
 20
0.8699516918076404
 30
0.0
 10
-19.66755800013404
 20
0.8476204743144962
 30
0.0
 10
-19.873436768194892
 20
0.7013216688782749
 30
0.0
 10
-20.001860945579235
 20
0.45147524123941907
 30
0.0
 10
-19.999999952299998
 20
0.19798322341125635
 30
0.0
  0
SPLINE
  5
28F
330
17
100
AcDbEntity
  8
visible
100
AcDbSpline
 70
0
 71
3
 72
26
 73
22
 74
0
 40
0.0
 40
0.0
 40
0.0
 40
0.0
 40
0.06826844825862212
 40
0.06826844825862212
 40
0.06826844825862212
 40
0.13653689651724424
 40
0.13653689651724424
 40
0.13653689651724424
 40
0.20480534477586637
 40
0.20480534477586637
 40
0.20480534477586637
 40
0.23893956890517742
 40
0.23893956890517742
 40
0.23893956890517742
 40
0.2730737930344885
 40
0.2730737930344885
 40
0.2730737930344885
 40
0.3413422412931106
 40
0.3413422412931106
 40
0.3413422412931106
 40
0.730582908843346
 40
0.730582908843346
 40
0.730582908843346
 40
0.730582908843346
 10
20.000000047700006
 20
0.19798322343724806
 30
0.0
 10
20.001900981988292
 20
0.45281224771199746
 30
0.0
 10
19.872039084930922
 20
0.7039027951483061
 30
0.0
 10
19.66436027998703
 20
0.8499169609376906
 30
0.0
 10
19.617259867308768
 20
0.8834553394994125
 30
0.0
 10
19.567702792380214
 20
0.911444642534207
 30
0.0
 10
19.515689055201417
 20
0.9338848700420783
 30
0.0
 10
19.459872116095546
 20
0.9572664829501623
 30
0.0
 10
19.40815813935513
 20
0.9737700726492705
 30
0.0
 10
19.360547124980062
 20
0.9833956391394023
 30
0.0
 10
19.29914365827709
 20
0.9961477787758468
 30
0.0
 10
19.265656048383374
 20
0.9988227336566392
 30
0.0
 10
19.232815243005852
 20
1.0021653862542537
 30
0.0
 10
19.20187739756706
 20
1.0049682316823931
 30
0.0
 10
19.169811488660294
 20
1.0072595413704
 30
0.0
 10
19.136617516285558
 20
1.009039315318276
 30
0.0
 10
19.060189913108534
 20
1.0132630866020216
 30
0.0
 10
18.96032443976902
 20
1.0170881914798229
 30
0.0
 10
18.837021096266977
 20
1.0205146299516767
 30
0.0
 10
18.43355622793333
 20
1.0319453578766902
 30
0.0
 10
17.74074377478519
 20
1.0412050949347547
 30
0.0
 10
16.893247992785103
 20
1.0467343375864167
 30
0.0
  0
LINE
  5
290
330
17
100
AcDbEntity
  8
visible
100
AcDbLine
 10
58.00000005
 20
-22.39810748985984
 30
0.0
 11
58.00000005
 21
-19.99831026416011
 31
0.0
  0
LINE
  5
291
330
17
100
AcDbEntity
  8
visible
100
AcDbLine
 10
58.00000005
 20
-12.69892703599013
 30
0.0
 11
58.00000005
 21
-8.299298788873969
 31
0.0
  0
LINE
  5
292
330
17
100
AcDbEntity
  8
visible
100
AcDbLine
 10
-57.99999995
 20
-22.39810748985984
 30
0.0
 11
-57.99999995
 21
-8.299298788873969
 31
0.0
  0
SPLINE
  5
293
330
17
100
AcDbEntity
  8
visible
100
AcDbSpline
 70
0
 71
3
 72
41
 73
37
 74
0
 40
0.0
 40
0.0
 40
0.0
 40
0.0
 40
0.15318657607895342
 40
0.15318657607895342
 40
0.15318657607895342
 40
0.30637315215790684
 40
0.30637315215790684
 40
0.30637315215790684
 40
0.45955972823686025
 40
0.45955972823686025
 40
0.45955972823686025
 40
0.6127463043158137
 40
0.6127463043158137
 40
0.6127463043158137
 40
0.651042948335552
 40
0.651042948335552
 40
0.651042948335552
 40
0.6893395923552904
 40
0.6893395923552904
 40
0.6893395923552904
 40
0.7659328803947671
 40
0.7659328803947671
 40
0.7659328803947671
 40
0.8042295244145055
 40
0.8042295244145055
 40
0.8042295244145055
 40
0.8425261684342439
 40
0.8425261684342439
 40
0.8425261684342439
 40
0.8808228124539823
 40
0.8808228124539823
 40
0.8808228124539823
 40
0.9191194564737206
 40
0.9191194564737206
 40
0.9191194564737206
 40
1.0
 40
1.0
 40
1.0
 40
1.0
 10
58.00000005
 20
-8.299298788873976
 30
0.0
 10
58.000527685541854
 20
-8.160068708234155
 30
0.0
 10
57.962230567088184
 20
-8.02137625353076
 30
0.0
 10
57.89956676249939
 20
-7.9085495293694805
 30
0.0
 10
57.85487373791529
 20
-7.830100844092772
 30
0.0
 10
57.80552938872716
 20
-7.7655094380240675
 30
0.0
 10
57.75153371493525
 20
-7.714775311163393
 30
0.0
 10
57.69544169985246
 20
-7.662569283687245
 30
0.0
 10
57.64466359034499
 20
-7.623582072834768
 30
0.0
 10
57.59919938641305
 20
-7.597813678605995
 30
0.0
 10
57.488392005452425
 20
-7.5332514574150835
 30
0.0
 10
57.42294881184651
 20
-7.515806476470085
 30
0.0
 10
57.36574180785482
 20
-7.497747236845655
 30
0.0
 10
57.27863184130301
 20
-7.47295457341898
 30
0.0
 10
57.210508243785576
 20
-7.460861578888303
 30
0.0
 10
57.132693659069815
 20
-7.448224244760719
 30
0.0
 10
57.05663603131333
 20
-7.436288841684733
 30
0.0
 10
56.97196802073454
 20
-7.425332013532534
 30
0.0
 10
56.87868962733329
 20
-7.4153537603041055
 30
0.0
 10
56.69218364507997
 20
-7.395287189485491
 30
0.0
 10
56.45801160659812
 20
-7.375989747588266
 30
0.0
 10
56.176173511887896
 20
-7.357461434612439
 30
0.0
 10
55.328961454456035
 20
-7.301541004416541
 30
0.0
 10
54.0184058062706
 20
-7.247958193093147
 30
0.0
 10
52.263562467639105
 20
-7.196793058643658
 30
0.0
 10
50.51003771766252
 20
-7.145674975488204
 30
0.0
 10
48.314811098678135
 20
-7.097209013510605
 30
0.0
 10
45.73153231751252
 20
-7.052561274978464
 30
0.0
 10
43.14899074925445
 20
-7.007909474989618
 30
0.0
 10
40.17839767360868
 20
-6.9670715370554825
 30
0.0
 10
36.89329257296987
 20
-6.931046823674029
 30
0.0
 10
33.60893540913467
 20
-6.895008671143897
 30
0.0
 10
30.010125749932534
 20
-6.863840117886387
 30
0.0
 10
26.19216761239209
 20
-6.838289584239201
 30
0.0
 10
18.131644572679942
 20
-6.784186305709711
 30
0.0
 10
9.07023590453729
 20
-6.755655332071446
 30
0.0
 10
4.7139479875113466e-08
 20
-6.7557616122515824
 30
0.0
  0
SPLINE
  5
294
330
17
100
AcDbEntity
  8
visible
100
AcDbSpline
 70
0
 71
3
 72
41
 73
37
 74
0
 40
0.0
 40
0.0
 40
0.0
 40
0.0
 40
0.15318657608154967
 40
0.15318657608154967
 40
0.15318657608154967
 40
0.30637315216309935
 40
0.30637315216309935
 40
0.30637315216309935
 40
0.459559728244649
 40
0.459559728244649
 40
0.459559728244649
 40
0.6127463043261987
 40
0.6127463043261987
 40
0.6127463043261987
 40
0.651042948346586
 40
0.651042948346586
 40
0.651042948346586
 40
0.6893395923669735
 40
0.6893395923669735
 40
0.6893395923669735
 40
0.7659328804077483
 40
0.7659328804077483
 40
0.7659328804077483
 40
0.8042295244281357
 40
0.8042295244281357
 40
0.8042295244281357
 40
0.8425261684485231
 40
0.8425261684485231
 40
0.8425261684485231
 40
0.8808228124689106
 40
0.8808228124689106
 40
0.8808228124689106
 40
0.9191194564892979
 40
0.9191194564892979
 40
0.9191194564892979
 40
1.0
 40
1.0
 40
1.0
 40
1.0
 10
-57.99999995
 20
-8.299298788873976
 30
0.0
 10
-58.00052758554185
 20
-8.160068708234162
 30
0.0
 10
-57.96223046708816
 20
-8.021376253530754
 30
0.0
 10
-57.89956666249938
 20
-7.9085495293694805
 30
0.0
 10
-57.85487363791528
 20
-7.830100844092772
 30
0.0
 10
-57.80552928872716
 20
-7.765509438024068
 30
0.0
 10
-57.75153361493524
 20
-7.714775311163393
 30
0.0
 10
-57.69544159985248
 20
-7.66256928368726
 30
0.0
 10
-57.644663490345
 20
-7.623582072834786
 30
0.0
 10
-57.59919928641304
 20
-7.597813678605993
 30
0.0
 10
-57.48839190545238
 20
-7.533251457415094
 30
0.0
 10
-57.42294871184653
 20
-7.515806476470096
 30
0.0
 10
-57.36574170785481
 20
-7.497747236845655
 30
0.0
 10
-57.2786317413039
 20
-7.472954573418979
 30
0.0
 10
-57.210508143784544
 20
-7.460861578888303
 30
0.0
 10
-57.13269355906972
 20
-7.4482242447607225
 30
0.0
 10
-57.056635931313764
 20
-7.43628884168474
 30
0.0
 10
-56.97196792073492
 20
-7.4253320135325405
 30
0.0
 10
-56.87868952733316
 20
-7.4153537603041055
 30
0.0
 10
-56.69218354507997
 20
-7.395287189485496
 30
0.0
 10
-56.45801150659811
 20
-7.3759897475882665
 30
0.0
 10
-56.17617341188788
 20
-7.357461434612438
 30
0.0
 10
-55.328961354458436
 20
-7.301541004416582
 30
0.0
 10
-54.01840570626834
 20
-7.247958193093109
 30
0.0
 10
-52.2635623676388
 20
-7.196793058643647
 30
0.0
 10
-50.51003761766327
 20
-7.145674975488218
 30
0.0
 10
-48.31481099867921
 20
-7.097209013510619
 30
0.0
 10
-45.73153221751267
 20
-7.052561274978467
 30
0.0
 10
-43.148990649253705
 20
-7.0079094749896145
 30
0.0
 10
-40.17839757360809
 20
-6.967071537055469
 30
0.0
 10
-36.893292472970295
 20
-6.931046823674028
 30
0.0
 10
-33.60893530913693
 20
-6.895008671143924
 30
0.0
 10
-30.010125649930796
 20
-6.863840117886346
 30
0.0
 10
-26.19216751239191
 20
-6.838289584239176
 30
0.0
 10
-18.131644474374383
 20
-6.784186305721161
 30
0.0
 10
-9.070235808350803
 20
-6.755655332083329
 30
0.0
 10
4.7139479875113466e-08
 20
-6.7557616122515824
 30
0.0
  0
SPLINE
  5
295
330
17
100
AcDbEntity
  8
visible
100
AcDbSpline
 70
0
 71
3
 72
20
 73
16
 74
0
 40
0.0
 40
0.0
 40
0.0
 40
0.0
 40
0.07363659876611353
 40
0.07363659876611353
 40
0.07363659876611353
 40
0.14727319753222706
 40
0.14727319753222706
 40
0.14727319753222706
 40
0.2209097962983406
 40
0.2209097962983406
 40
0.2209097962983406
 40
0.2945463950644541
 40
0.2945463950644541
 40
0.2945463950644541
 40
0.3048622249821073
 40
0.3048622249821073
 40
0.3048622249821073
 40
0.3048622249821073
 10
58.00000005
 20
-22.398107489859846
 30
0.0
 10
58.00052768554214
 20
-22.537337570499606
 30
0.0
 10
57.96223056708793
 20
-22.67603002520307
 30
0.0
 10
57.89956676249939
 20
-22.788856749364314
 30
0.0
 10
57.85487373791523
 20
-22.86730543464103
 30
0.0
 10
57.80552938872721
 20
-22.93189684070976
 30
0.0
 10
57.751533714935235
 20
-22.9826309675704
 30
0.0
 10
57.69544169985241
 20
-23.03483699504655
 30
0.0
 10
57.64466359034506
 20
-23.07382420589904
 30
0.0
 10
57.59919938641305
 20
-23.09959260012782
 30
0.0
 10
57.488392005452376
 20
-23.16415482131872
 30
0.0
 10
57.42294881184656
 20
-23.1815998022637
 30
0.0
 10
57.36574180785482
 20
-23.199659041888136
 30
0.0
 10
57.317767598374246
 20
-23.21315086462573
 30
0.0
 10
57.27324377898062
 20
-23.223830968382266
 30
0.0
 10
57.23217034967399
 20
-23.231699353157694
 30
0.0
  0
SPLINE
  5
296
330
17
100
AcDbEntity
  8
visible
100
AcDbSpline
 70
0
 71
3
 72
14
 73
10
 74
0
 40
0.0
 40
0.0
 40
0.0
 40
0.0
 40
0.3782790715254799
 40
0.3782790715254799
 40
0.3782790715254799
 40
0.7565581430509591
 40
0.7565581430509591
 40
0.7565581430509591
 40
1.0
 40
1.0
 40
1.0
 40
1.0
 10
57.23048690905545
 20
-23.232031870841972
 30
0.0
 10
57.10390816024263
 20
-23.256416842333586
 30
0.0
 10
56.96900702237113
 20
-23.2731779642905
 30
0.0
 10
56.795926778259926
 20
-23.29068420895497
 30
0.0
 10
56.624921780529405
 20
-23.307546831818495
 30
0.0
 10
56.418337358405324
 20
-23.323967043540623
 30
0.0
 10
56.17617351188789
 20
-23.339944844121362
 30
0.0
 10
55.24087133377082
 20
-23.401685056059286
 30
0.0
 10
53.739077433717725
 20
-23.46064308352073
 30
0.0
 10
51.700000046975006
 20
-23.51653293805181
 30
0.0
  0
SPLINE
  5
297
330
17
100
AcDbEntity
  8
visible
100
AcDbSpline
 70
0
 71
3
 72
8
 73
4
 74
0
 40
0.0
 40
0.0
 40
0.0
 40
0.0
 40
1.0
 40
1.0
 40
1.0
 40
1.0
 10
45.300000046974986
 20
-23.65220897999244
 30
0.0
 10
40.101358489509764
 20
-23.739935720490347
 30
0.0
 10
33.36591396708209
 20
-23.812244801342175
 30
0.0
 10
25.759609126368858
 20
-23.86198379392021
 30
0.0
  0
SPLINE
  5
298
330
17
100
AcDbEntity
  8
visible
100
AcDbSpline
 70
0
 71
3
 72
8
 73
4
 74
0
 40
0.0
 40
0.0
 40
0.0
 40
0.0
 40
1.0
 40
1.0
 40
1.0
 40
1.0
 10
-25.761511241874253
 20
-23.861983793953698
 30
0.0
 10
-33.36889091089477
 20
-23.812213635880525
 30
0.0
 10
-40.099340158001745
 20
-23.739958765619694
 30
0.0
 10
-45.29999995302498
 20
-23.652208148968082
 30
0.0
  0
SPLINE
  5
299
330
17
100
AcDbEntity
  8
visible
100
AcDbSpline
 70
0
 71
3
 72
14
 73
10
 74
0
 40
0.0
 40
0.0
 40
0.0
 40
0.0
 40
0.28303443415507296
 40
0.28303443415507296
 40
0.28303443415507296
 40
0.5660688683101459
 40
0.5660688683101459
 40
0.5660688683101459
 40
1.0
 40
1.0
 40
1.0
 40
1.0
 10
-51.699999953025
 20
-23.516541281509966
 30
0.0
 10
-53.128295185383955
 20
-23.477400278307417
 30
0.0
 10
-54.28838942189091
 20
-23.436837091234082
 30
0.0
 10
-55.180282662545835
 20
-23.39485172028995
 30
0.0
 10
-56.07407671380524
 20
-23.352147343322116
 30
0.0
 10
-56.67770891073936
 20
-23.3113366370934
 30
0.0
 10
-57.0494178466438
 20
-23.26140393765172
 30
0.0
 10
-57.11241027091156
 20
-23.252990225592296
 30
0.0
 10
-57.17266869996588
 20
-23.243196794480678
 30
0.0
 10
-57.230193133806665
 20
-23.23202364431686
 30
0.0
  0
SPLINE
  5
29A
330
17
100
AcDbEntity
  8
visible
100
AcDbSpline
 70
0
 71
3
 72
20
 73
16
 74
0
 40
0.0
 40
0.0
 40
0.0
 40
0.0
 40
0.10907999272963088
 40
0.10907999272963088
 40
0.10907999272963088
 40
0.331809994547223
 40
0.331809994547223
 40
0.331809994547223
 40
0.5545399963648151
 40
0.5545399963648151
 40
0.5545399963648151
 40
0.7772699981824073
 40
0.7772699981824073
 40
0.7772699981824073
 40
1.0
 40
1.0
 40
1.0
 40
1.0
 10
-57.23188406454684
 20
-23.231689536234395
 30
0.0
 10
-57.2892731397186
 20
-23.220006781895353
 30
0.0
 10
-57.344373504728146
 20
-23.208165168373004
 30
0.0
 10
-57.421044696463284
 20
-23.182121131791575
 30
0.0
 10
-57.46736261160622
 20
-23.16557085597078
 30
0.0
 10
-57.523011081331184
 20
-23.14506671266872
 30
0.0
 10
-57.60165094086406
 20
-23.09811153549858
 30
0.0
 10
-57.64710275317019
 20
-23.07213095837525
 30
0.0
 10
-57.697716904555186
 20
-23.03300239957621
 30
0.0
 10
-57.753493395018936
 20
-22.980725859101454
 30
0.0
 10
-57.80598834724183
 20
-22.930996898448083
 30
0.0
 10
-57.854081260650005
 20
-22.868122642678664
 30
0.0
 10
-57.89777213524331
 20
-22.79210309179314
 30
0.0
 10
-57.96146342705007
 20
-22.678683543473927
 30
0.0
 10
-58.00054844574471
 20
-22.53867848739433
 30
0.0
 10
-57.99999995
 20
-22.398107489859846
 30
0.0
  0
SPLINE
  5
29B
330
17
100
AcDbEntity
  8
visible
100
AcDbSpline
 70
0
 71
3
 72
17
 73
13
 74
0
 40
0.0
 40
0.0
 40
0.0
 40
0.0
 40
0.04584824039477812
 40
0.04584824039477812
 40
0.04584824039477812
 40
0.3638988269298519
 40
0.3638988269298519
 40
0.3638988269298519
 40
0.6819494134649257
 40
0.6819494134649257
 40
0.6819494134649257
 40
1.0
 40
1.0
 40
1.0
 40
1.0
 10
57.576036731589134
 20
-13.413868688275823
 30
0.0
 10
57.58723891156584
 20
-13.407254356126458
 30
0.0
 10
57.59844109154269
 20
-13.400640023977108
 30
0.0
 10
57.60964327151942
 20
-13.39402569182775
 30
0.0
 10
57.65366959268003
 20
-13.36807210688414
 30
0.0
 10
57.70220246764092
 20
-13.330008581694832
 30
0.0
 10
57.75524189640171
 20
-13.279835116259749
 30
0.0
 10
57.80763165668296
 20
-13.229893260212732
 30
0.0
 10
57.85553014161092
 20
-13.166887853642269
 30
0.0
 10
57.89893735118592
 20
-13.090818896548427
 30
0.0
 10
57.96196196843798
 20
-12.977782319506634
 30
0.0
 10
58.00053494868801
 20
-12.838628396447806
 30
0.0
 10
58.00000005
 20
-12.698927035990124
 30
0.0
  0
SPLINE
  5
29C
330
17
100
AcDbEntity
  8
visible
100
AcDbSpline
 70
0
 71
3
 72
23
 73
19
 74
0
 40
0.0
 40
0.0
 40
0.0
 40
0.0
 40
0.1784659725713042
 40
0.1784659725713042
 40
0.1784659725713042
 40
0.3569319451426084
 40
0.3569319451426084
 40
0.3569319451426084
 40
0.49999999999999994
 40
0.49999999999999994
 40
0.49999999999999994
 40
0.6430680548573915
 40
0.6430680548573915
 40
0.6430680548573915
 40
0.8215340274286957
 40
0.8215340274286957
 40
0.8215340274286957
 40
1.0
 40
1.0
 40
1.0
 40
1.0
 10
4.721051993783476e-08
 20
-22.472768775602326
 30
0.0
 10
7.19499288764401
 20
-22.47271881071164
 30
0.0
 10
14.38978840956559
 20
-22.491042560268845
 30
0.0
 10
21.051183735773602
 20
-22.52637689827127
 30
0.0
 10
27.71536415400658
 20
-22.56162029519819
 30
0.0
 10
33.84613313848812
 20
-22.61387866080018
 30
0.0
 10
38.98825800521147
 20
-22.679247345656307
 30
0.0
 10
43.11300755680694
 20
-22.73163202380786
 30
0.0
 10
46.60539797402622
 20
-22.792367772154073
 30
0.0
 10
49.29817132271752
 20
-22.858550769070376
 30
0.0
 10
51.99174040881419
 20
-22.924509063573993
 30
0.0
 10
53.892413904531416
 20
-22.996733808342224
 30
0.0
 10
54.874255936754565
 20
-23.068581651409843
 30
0.0
 10
55.065825389327614
 20
-23.08261168592858
 30
0.0
 10
55.219635092988725
 20
-23.0961395817901
 30
0.0
 10
55.335685047737954
 20
-23.1091653389944
 30
0.0
 10
55.4489522900534
 20
-23.121244673154607
 30
0.0
 10
55.52907115325573
 20
-23.135524705433795
 30
0.0
 10
55.53182814452724
 20
-23.136834702784903
 30
0.0
  0
SPLINE
  5
29D
330
17
100
AcDbEntity
  8
visible
100
AcDbSpline
 70
0
 71
1
 72
4
 73
2
 74
0
 40
0.0
 40
0.0
 40
0.029532835445997267
 40
0.029532835445997267
 10
55.531828144527225
 20
-23.136834702784896
 30
0.0
 10
55.53089424027729
 20
-23.136614940178085
 30
0.0
  0
SPLINE
  5
29E
330
17
100
AcDbEntity
  8
visible
100
AcDbSpline
 70
0
 71
3
 72
8
 73
4
 74
0
 40
0.0
 40
0.0
 40
0.0
 40
0.0
 40
1.0
 40
1.0
 40
1.0
 40
1.0
 10
-55.48216412571809
 20
-23.12073253464035
 30
0.0
 10
-55.52049978808276
 20
-23.135054156434485
 30
0.0
 10
-55.53146344854764
 20
-23.136472673927468
 30
0.0
 10
-55.53182804452723
 20
-23.136834702784896
 30
0.0
  0
SPLINE
  5
29F
330
17
100
AcDbEntity
  8
visible
100
AcDbSpline
 70
0
 71
3
 72
26
 73
22
 74
0
 40
0.0
 40
0.0
 40
0.0
 40
0.0
 40
0.12465174489322253
 40
0.12465174489322253
 40
0.12465174489322253
 40
0.5000000000000001
 40
0.5000000000000001
 40
0.5000000000000001
 40
0.8753482551067776
 40
0.8753482551067776
 40
0.8753482551067776
 40
0.9065111913300832
 40
0.9065111913300832
 40
0.9065111913300832
 40
0.9376741275533889
 40
0.9376741275533889
 40
0.9376741275533889
 40
0.9688370637766944
 40
0.9688370637766944
 40
0.9688370637766944
 40
1.0
 40
1.0
 40
1.0
 40
1.0
 10
-55.53182804452723
 20
-23.136834702784896
 30
0.0
 10
-55.53097808421105
 20
-23.13639819560517
 30
0.0
 10
-55.492049522550374
 20
-23.128723862885863
 30
0.0
 10
-55.434678248809035
 20
-23.121219816349907
 30
0.0
 10
-55.2573656522539
 20
-23.097006910821552
 30
0.0
 10
-54.906843801716946
 20
-23.067314874649625
 30
0.0
 10
-54.42317032587954
 20
-23.039321405446742
 30
0.0
 10
-53.93645573017702
 20
-23.010839354536987
 30
0.0
 10
-53.31345518289917
 20
-22.98268684720998
 30
0.0
 10
-52.55416868404577
 20
-22.95486388346574
 30
0.0
 10
-50.65355986266686
 20
-22.88519400977928
 30
0.0
 10
-47.90668021472799
 20
-22.81897672741352
 30
0.0
 10
-44.4530335066422
 20
-22.75980025936682
 30
0.0
 10
-41.00136119238548
 20
-22.70058088120114
 30
0.0
 10
-36.84428898062643
 20
-22.648355359550436
 30
0.0
 10
-32.175921368896994
 20
-22.605535831709055
 30
0.0
 10
-27.509155835701936
 20
-22.56268540906818
 30
0.0
 10
-22.331316285149082
 20
-22.529236672677285
 30
0.0
 10
-16.880683117637457
 20
-22.506762103073832
 30
0.0
 10
-11.431816797755452
 20
-22.484248661688312
 30
0.0
 10
-5.709232463495027
 20
-22.472747729775605
 30
0.0
 10
4.72105217141916e-08
 20
-22.472768775602333
 30
0.0
  0
SPLINE
  5
2A0
330
17
100
AcDbEntity
  8
visible
100
AcDbSpline
 70
0
 71
3
 72
8
 73
4
 74
0
 40
0.0
 40
0.0
 40
0.0
 40
0.0
 40
1.0
 40
1.0
 40
1.0
 40
1.0
 10
-19.99999995219
 20
11.068464706414588
 30
0.0
 10
-20.00568566176102
 20
7.612959182896954
 30
0.0
 10
-18.98457834083615
 20
4.164585333878431
 30
0.0
 10
-17.09832034377409
 20
1.2692190999627977
 30
0.0
  0
SPLINE
  5
2A1
330
17
100
AcDbEntity
  8
visible
100
AcDbSpline
 70
0
 71
3
 72
17
 73
13
 74
0
 40
0.0
 40
0.0
 40
0.0
 40
0.0
 40
0.25
 40
0.25
 40
0.25
 40
0.5
 40
0.5
 40
0.5
 40
0.75
 40
0.75
 40
0.75
 40
1.0
 40
1.0
 40
1.0
 40
1.0
 10
-1.9999999534605193
 20
68.89384626648794
 30
0.0
 10
-4.323893823784597
 20
68.89509823511888
 30
0.0
 10
-6.647729762743081
 20
68.43932898099433
 30
0.0
 10
-8.798977183774696
 20
67.56051758680002
 30
0.0
 10
-10.951133798054544
 20
66.6839350630493
 30
0.0
 10
-12.930701894407528
 20
65.3843103992291
 30
0.0
 10
-14.590608297222925
 20
63.75803105044605
 30
0.0
 10
-16.298369399535396
 20
62.088627892825194
 30
0.0
 10
-17.66812492436311
 20
60.07400813458268
 30
0.0
 10
-18.592644973619482
 20
57.87217427792558
 30
0.0
 10
-19.519640221484636
 20
55.67138127828067
 30
0.0
 10
-20.00139999377845
 20
53.283374180221294
 30
0.0
 10
-19.999999953459998
 20
50.8952994822949
 30
0.0
  0
SPLINE
  5
2A2
330
17
100
AcDbEntity
  8
visible
100
AcDbSpline
 70
0
 71
3
 72
8
 73
4
 74
0
 40
0.0
 40
0.0
 40
0.0
 40
0.0
 40
1.0
 40
1.0
 40
1.0
 40
1.0
 10
17.098320439394087
 20
1.2692190999841415
 30
0.0
 10
18.984577390095374
 20
4.164583476782316
 30
0.0
 10
20.00568562386688
 20
7.612957055589542
 30
0.0
 10
20.00000004781
 20
11.068464706440594
 30
0.0
  0
LINE
  5
2A3
330
17
100
AcDbEntity
  8
visible
100
AcDbLine
 10
2.0000000465394807
 20
68.89384626649053
 30
0.0
 11
-1.9999999534605193
 21
68.89384626648793
 31
0.0
  0
SPLINE
  5
2A4
330
17
100
AcDbEntity
  8
visible
100
AcDbSpline
 70
0
 71
3
 72
17
 73
13
 74
0
 40
0.0
 40
0.0
 40
0.0
 40
0.0
 40
0.334995178322705
 40
0.334995178322705
 40
0.334995178322705
 40
0.500000766795548
 40
0.500000766795548
 40
0.500000766795548
 40
0.6650061808569886
 40
0.6650061808569886
 40
0.6650061808569886
 40
1.0
 40
1.0
 40
1.0
 40
1.0
 10
20.000000046540002
 20
50.895299482320894
 30
0.0
 10
20.003990994155938
 20
54.0532587470787
 30
0.0
 10
19.154540909026988
 20
57.20665463917866
 30
0.0
 10
17.564832413756815
 20
59.93537930680095
 30
0.0
 10
16.783948371126613
 20
61.280116505573204
 30
0.0
 10
15.827701577975255
 20
62.52284781251855
 30
0.0
 10
14.727896312697869
 20
63.62222016596547
 30
0.0
 10
13.628431849697158
 20
64.72193099191203
 30
0.0
 10
12.385598781119345
 20
65.67809366013464
 30
0.0
 10
11.04075386736957
 20
66.45890770841186
 30
0.0
 10
8.311818572088136
 20
68.04846875273374
 30
0.0
 10
5.158190708886471
 20
68.89783662069756
 30
0.0
 10
2.00000004653948
 20
68.89384626649053
 30
0.0
  0
SPLINE
  5
2A5
330
17
100
AcDbEntity
  8
visible
100
AcDbSpline
 70
0
 71
3
 72
23
 73
19
 74
0
 40
0.0
 40
0.0
 40
0.0
 40
0.0
 40
0.184249883096698
 40
0.184249883096698
 40
0.184249883096698
 40
0.3674551674467684
 40
0.3674551674467684
 40
0.3674551674467684
 40
0.5825980772718086
 40
0.5825980772718086
 40
0.5825980772718086
 40
0.6991740970875553
 40
0.6991740970875553
 40
0.6991740970875553
 40
0.8157501169033021
 40
0.8157501169033021
 40
0.8157501169033021
 40
0.8539064323441881
 40
0.8539064323441881
 40
0.8539064323441881
 40
0.8539064323441881
 10
-13.999999953509999
 20
42.90897424448066
 30
0.0
 10
-14.00293650332635
 20
40.48729631740994
 30
0.0
 10
-13.361050140947816
 20
38.068924008946965
 30
0.0
 10
-12.15758594034578
 20
35.967390335690936
 30
0.0
 10
-10.965950248345424
 20
33.874930505022235
 30
0.0
 10
-9.22245657749587
 20
32.1012722422638
 30
0.0
 10
-7.150685116450946
 20
30.873833906280893
 30
0.0
 10
-4.721516917540438
 20
29.424528625365216
 30
0.0
 10
-1.84533512128944
 20
28.741603677517826
 30
0.0
 10
0.9761233151355246
 20
28.944143475977334
 30
0.0
 10
2.504426190600931
 20
29.050485437401107
 30
0.0
 10
4.014985947309809
 20
29.410426693303087
 30
0.0
 10
5.426998105944202
 20
30.004690829172198
 30
0.0
 10
6.839385061141686
 20
30.598063390489507
 30
0.0
 10
8.153224418264694
 20
31.42575883177397
 30
0.0
 10
9.29820600176156
 20
32.44353665106425
 30
0.0
 10
9.909650962816984
 20
32.98682821480265
 30
0.0
 10
10.469362377532367
 20
33.57923259382581
 30
0.0
 10
10.977340245907717
 20
34.22074978813384
 30
0.0
  0
SPLINE
  5
2A6
330
17
100
AcDbEntity
  8
visible
100
AcDbSpline
 70
0
 71
3
 72
8
 73
4
 74
0
 40
0.0
 40
0.0
 40
0.0
 40
0.0
 40
1.0
 40
1.0
 40
1.0
 40
1.0
 10
11.81744487222408
 20
35.403078176748075
 30
0.0
 10
13.23740269774073
 20
37.63037660801015
 30
0.0
 10
14.004131311978796
 20
40.26741278887853
 30
0.0
 10
14.000000046490001
 20
42.908974352182085
 30
0.0
  0
LINE
  5
2A7
330
17
100
AcDbEntity
  8
visible
100
AcDbLine
 10
14.000000046490001
 20
42.90897435218207
 30
0.0
 11
14.000000046455002
 21
42.91807358336452
 31
0.0
  0
LINE
  5
2A8
330
17
100
AcDbEntity
  8
visible
100
AcDbLine
 10
-13.999999953509999
 20
42.90897424448066
 30
0.0
 11
-13.999999953544998
 21
42.91807347566311
 31
0.0
  0
SPLINE
  5
2A9
330
17
100
AcDbEntity
  8
visible
100
AcDbSpline
 70
0
 71
3
 72
29
 73
25
 74
0
 40
0.0
 40
0.0
 40
0.0
 40
0.0
 40
0.125
 40
0.125
 40
0.125
 40
0.25
 40
0.25
 40
0.25
 40
0.375
 40
0.375
 40
0.375
 40
0.5
 40
0.5
 40
0.5
 40
0.625
 40
0.625
 40
0.625
 40
0.75
 40
0.75
 40
0.75
 40
0.875
 40
0.875
 40
0.875
 40
1.0
 40
1.0
 40
1.0
 40
1.0
 10
14.000000046455
 20
42.91807358336452
 30
0.0
 10
14.00111740911289
 20
44.78666235735584
 30
0.0
 10
13.62181548485763
 20
46.65521340673196
 30
0.0
 10
12.892313801203791
 20
48.375515824091494
 30
0.0
 10
12.164781999154076
 20
50.09665330809857
 30
0.0
 10
11.08705043770577
 20
51.66954216008918
 30
0.0
 10
9.744495329288988
 20
52.96935333879327
 30
0.0
 10
8.428590249893569
 20
54.2463237220623
 30
0.0
 10
6.857931592862363
 20
55.26044834793925
 30
0.0
 10
5.152590690870874
 20
55.93434338163293
 30
0.0
 10
3.4479797972621173
 20
56.61008242109256
 30
0.0
 10
1.6086866586930892
 20
56.94559186836899
 30
0.0
 10
-0.2247771574442763
 20
56.91512005011822
 30
0.0
 10
-2.0138268616263013
 20
56.88731912000259
 30
0.0
 10
-3.797242374333507
 20
56.511363794321305
 30
0.0
 10
-5.445262752317348
 20
55.814665485708815
 30
0.0
 10
-7.093979799584417
 20
55.11962720768259
 30
0.0
 10
-8.607301712128129
 20
54.103845946725194
 30
0.0
 10
-9.874974286630518
 20
52.84121397188839
 30
0.0
 10
-11.17878079758213
 20
51.5454208455671
 30
0.0
 10
-12.223044769701126
 20
49.988890228326106
 30
0.0
 10
-12.927685724744443
 20
48.29120023271639
 30
0.0
 10
-13.634176386018106
 20
46.594279374278656
 30
0.0
 10
-14.001044030216082
 20
44.75619913747216
 30
0.0
 10
-13.999999953545
 20
42.91807347566311
 30
0.0
  0
SPLINE
  5
2AA
330
17
100
AcDbEntity
  8
visible
100
AcDbSpline
 70
0
 71
3
 72
8
 73
4
 74
0
 40
0.0
 40
0.0
 40
0.0
 40
0.0
 40
1.0
 40
1.0
 40
1.0
 40
1.0
 10
-19.186380103349563
 20
4.600443630240914
 30
0.0
 10
-18.801120003581293
 20
3.3626699405016174
 30
0.0
 10
-18.281519990599733
 20
2.1667773374839547
 30
0.0
 10
-17.639625711323923
 20
1.040492713374849
 30
0.0
  0
SPLINE
  5
2AB
330
17
100
AcDbEntity
  8
visible
100
AcDbSpline
 70
0
 71
3
 72
8
 73
4
 74
0
 40
0.0
 40
0.0
 40
0.0
 40
0.0
 40
1.0
 40
1.0
 40
1.0
 40
1.0
 10
17.639625820704342
 20
1.0404927132639699
 30
0.0
 10
18.281519923671176
 20
2.1667769457101227
 30
0.0
 10
18.80112053912704
 20
3.3626709418073255
 30
0.0
 10
19.18638022574022
 20
4.60044363026582
 30
0.0
  0
SPLINE
  5
2AC
330
17
100
AcDbEntity
  8
visible
100
AcDbSpline
 70
0
 71
1
 72
4
 73
2
 74
0
 40
0.0
 40
0.0
 40
1.0
 40
1.0
 10
20.000000047700006
 20
-0.8458395313440301
 30
0.0
 10
20.0000000521
 20
-0.8459285741417517
 30
0.0
  0
SPLINE
  5
2AD
330
17
100
AcDbEntity
  8
visible
100
AcDbSpline
 70
0
 71
3
 72
8
 73
4
 74
0
 40
0.0
 40
0.0
 40
0.0
 40
0.0
 40
1.0
 40
1.0
 40
1.0
 40
1.0
 10
-19.291748589904753
 20
4.600443630240829
 30
0.0
 10
-18.93478954033281
 20
3.365537612029636
 30
0.0
 10
-18.444902896311277
 20
2.169037661802243
 30
0.0
 10
-17.83330232790809
 20
1.0383409450960315
 30
0.0
  0
SPLINE
  5
2AE
330
17
100
AcDbEntity
  8
visible
100
AcDbSpline
 70
0
 71
3
 72
8
 73
4
 74
0
 40
0.0
 40
0.0
 40
0.0
 40
0.0
 40
1.0
 40
1.0
 40
1.0
 40
1.0
 10
17.833294101431683
 20
1.0383410432591251
 30
0.0
 10
18.444934615073247
 20
2.169063494760769
 30
0.0
 10
18.934771581581167
 20
3.3654394966958305
 30
0.0
 10
19.291742251124607
 20
4.600443630265891
 30
0.0
  0
LINE
  5
2AF
330
17
100
AcDbEntity
  8
visible
100
AcDbLine
 10
-26.49999994846448
 20
4.600443630236143
 30
0.0
 11
-18.827387164674327
 21
4.60044363024113
 31
0.0
  0
LINE
  5
2B0
330
17
100
AcDbEntity
  8
visible
100
AcDbLine
 10
18.827387321847308
 20
4.600443630265603
 30
0.0
 11
26.50000005153552
 21
4.60044363027059
 31
0.0
  0
SPLINE
  5
2B1
330
17
100
AcDbEntity
  8
visible
100
AcDbSpline
 70
0
 71
3
 72
29
 73
25
 74
0
 40
0.0
 40
0.0
 40
0.0
 40
0.0
 40
0.06773124290828915
 40
0.06773124290828915
 40
0.06773124290828915
 40
0.1354624858165783
 40
0.1354624858165783
 40
0.1354624858165783
 40
0.20319372872486746
 40
0.20319372872486746
 40
0.20319372872486746
 40
0.2709249716331566
 40
0.2709249716331566
 40
0.2709249716331566
 40
0.33865621454144573
 40
0.33865621454144573
 40
0.33865621454144573
 40
0.40638745744973487
 40
0.40638745744973487
 40
0.40638745744973487
 40
0.48299936491311746
 40
0.48299936491311746
 40
0.48299936491311746
 40
1.0
 40
1.0
 40
1.0
 40
1.0
 10
-29.499999948575
 20
5.429041213950441
 30
0.0
 10
-29.502042013451252
 20
5.166038632524843
 30
0.0
 10
-29.363587902396645
 20
4.907496010570105
 30
0.0
 10
-29.143957690291042
 20
4.7632543356571375
 30
0.0
 10
-29.101690016048757
 20
4.735054273729452
 30
0.0
 10
-29.057293614548335
 20
4.711112509773558
 30
0.0
 10
-29.010768485789736
 20
4.691429043789441
 30
0.0
 10
-28.96608048904764
 20
4.672682999712958
 30
0.0
 10
-28.921489351017964
 20
4.65822538325974
 30
0.0
 10
-28.876995071700676
 20
4.648056194429784
 30
0.0
 10
-28.79238594511251
 20
4.62944190453937
 30
0.0
 10
-28.747985351046964
 20
4.628294649761043
 30
0.0
 10
-28.710138345439486
 20
4.625180731824358
 30
0.0
 10
-28.662716583904114
 20
4.622201912164115
 30
0.0
 10
-28.604600937847746
 20
4.619750926183557
 30
0.0
 10
-28.53579140727045
 20
4.617827773882694
 30
0.0
 10
-28.498441071727253
 20
4.616730804457104
 30
0.0
 10
-28.45697028282281
 20
4.615681779857899
 30
0.0
 10
-28.41137904055705
 20
4.614680700085074
 30
0.0
 10
-28.35976085512747
 20
4.613546642739699
 30
0.0
 10
-28.302995663657416
 20
4.612469276042324
 30
0.0
 10
-28.241083466146957
 20
4.6114485999929435
 30
0.0
 10
-27.82640849285401
 20
4.604532409911053
 30
0.0
 10
-27.167969814499212
 20
4.600398937784353
 30
0.0
 10
-26.499999948464485
 20
4.600443630236143
 30
0.0
  0
SPLINE
  5
2B2
330
17
100
AcDbEntity
  8
visible
100
AcDbSpline
 70
0
 71
3
 72
23
 73
19
 74
0
 40
0.0
 40
0.0
 40
0.0
 40
0.0
 40
0.24375706053887763
 40
0.24375706053887763
 40
0.24375706053887763
 40
0.34848038130292563
 40
0.34848038130292563
 40
0.34848038130292563
 40
0.5113602859771942
 40
0.5113602859771942
 40
0.5113602859771942
 40
0.6742401906514628
 40
0.6742401906514628
 40
0.6742401906514628
 40
0.8371200953257314
 40
0.8371200953257314
 40
0.8371200953257314
 40
1.0
 40
1.0
 40
1.0
 40
1.0
 10
26.500000051535515
 20
4.60044363027059
 30
0.0
 10
27.16570709276754
 20
4.600399423731219
 30
0.0
 10
27.822045831697793
 20
4.604504189118903
 30
0.0
 10
28.236883088310286
 20
4.611379532252255
 30
0.0
 10
28.416272176280064
 20
4.614265744094477
 30
0.0
 10
28.55271617811568
 20
4.617727525241707
 30
0.0
 10
28.646215093817066
 20
4.621764875693927
 30
0.0
 10
28.704534650630993
 20
4.625193243313605
 30
0.0
 10
28.73517697250939
 20
4.624406462994961
 30
0.0
 10
28.821254032141805
 20
4.637109328324527
 30
0.0
 10
28.87099268283416
 20
4.6449501600571965
 30
0.0
 10
28.93365701144235
 20
4.6605717444925885
 30
0.0
 10
28.99092259389786
 20
4.683338830802441
 30
0.0
 10
29.03598954449851
 20
4.701003312627735
 30
0.0
 10
29.07926818518653
 20
4.7226662274268385
 30
0.0
 10
29.120758515961914
 20
4.748327575199738
 30
0.0
 10
29.353275243742804
 20
4.889573541476174
 30
0.0
 10
29.502336229713023
 20
5.156667242091779
 30
0.0
 10
29.500000051425
 20
5.429041213988782
 30
0.0
  0
SPLINE
  5
2B3
330
17
100
AcDbEntity
  8
visible
100
AcDbSpline
 70
0
 71
2
 72
6
 73
3
 74
0
 40
0.0
 40
0.0
 40
0.0
 40
1.0
 40
1.0
 40
1.0
 10
26.49075114612126
 20
10.398288930395584
 30
0.0
 10
26.50000302629784
 20
10.458620302124682
 30
0.0
 10
26.500000051075002
 20
10.519611079352345
 30
0.0
  0
LINE
  5
2B4
330
17
100
AcDbEntity
  8
visible
100
AcDbLine
 10
26.500000048464482
 20
10.39828893039558
 30
0.0
 11
19.990254773854353
 21
10.398288930391349
 31
0.0
  0
SPLINE
  5
2B5
330
17
100
AcDbEntity
  8
visible
100
AcDbSpline
 70
0
 71
3
 72
29
 73
25
 74
0
 40
0.0
 40
0.0
 40
0.0
 40
0.0
 40
0.06773124290829148
 40
0.06773124290829148
 40
0.06773124290829148
 40
0.13546248581658296
 40
0.13546248581658296
 40
0.13546248581658296
 40
0.20319372872487446
 40
0.20319372872487446
 40
0.20319372872487446
 40
0.2709249716331659
 40
0.2709249716331659
 40
0.2709249716331659
 40
0.3386562145414574
 40
0.3386562145414574
 40
0.3386562145414574
 40
0.40638745744974886
 40
0.40638745744974886
 40
0.40638745744974886
 40
0.482999364913137
 40
0.482999364913137
 40
0.482999364913137
 40
1.0
 40
1.0
 40
1.0
 40
1.0
 10
29.500000048575
 20
9.569691346681282
 30
0.0
 10
29.502042113451253
 20
9.832693928106858
 30
0.0
 10
29.36358800239665
 20
10.091236550061616
 30
0.0
 10
29.143957790291044
 20
10.235478224974585
 30
0.0
 10
29.101690116048747
 20
10.263678286902266
 30
0.0
 10
29.057293714548344
 20
10.287620050858164
 30
0.0
 10
29.010768585789737
 20
10.307303516842282
 30
0.0
 10
28.966080589047653
 20
10.326049560918777
 30
0.0
 10
28.92148945101796
 20
10.340507177371983
 30
0.0
 10
28.87699517170068
 20
10.350676366201924
 30
0.0
 10
28.792386045112515
 20
10.369290656092362
 30
0.0
 10
28.74798545104695
 20
10.370437910870685
 30
0.0
 10
28.710138445439487
 20
10.37355182880735
 30
0.0
 10
28.6627166839041
 20
10.37653064846761
 30
0.0
 10
28.604601037847758
 20
10.378981634448172
 30
0.0
 10
28.535791507270453
 20
10.380904786749028
 30
0.0
 10
28.49844117172725
 20
10.38200175617461
 30
0.0
 10
28.45697038282281
 20
10.38305078077382
 30
0.0
 10
28.41137914055705
 20
10.384051860546649
 30
0.0
 10
28.359760955127456
 20
10.385185917892013
 30
0.0
 10
28.302995763657435
 20
10.386263284589399
 30
0.0
 10
28.24108356614695
 20
10.387283960638786
 30
0.0
 10
27.826408592854094
 20
10.39420015072067
 30
0.0
 10
27.167969914499196
 20
10.39833362284736
 30
0.0
 10
26.500000048464482
 20
10.39828893039558
 30
0.0
  0
SPLINE
  5
2B6
330
17
100
AcDbEntity
  8
visible
100
AcDbSpline
 70
0
 71
2
 72
6
 73
3
 74
0
 40
0.0
 40
0.0
 40
0.0
 40
0.018503971533698
 40
0.018503971533698
 40
0.018503971533698
 10
-26.499999948924994
 20
10.519611079317897
 30
0.0
 10
-26.5000048343465
 20
10.458623434305474
 30
0.0
 10
-26.490751659010794
 20
10.398288930361137
 30
0.0
  0
SPLINE
  5
2B7
330
17
100
AcDbEntity
  8
visible
100
AcDbSpline
 70
0
 71
3
 72
23
 73
19
 74
0
 40
0.0
 40
0.0
 40
0.0
 40
0.0
 40
0.2437570605388914
 40
0.2437570605388914
 40
0.2437570605388914
 40
0.3484803813029157
 40
0.3484803813029157
 40
0.3484803813029157
 40
0.5113602859771867
 40
0.5113602859771867
 40
0.5113602859771867
 40
0.6742401906514578
 40
0.6742401906514578
 40
0.6742401906514578
 40
0.8371200953257288
 40
0.8371200953257288
 40
0.8371200953257288
 40
1.0
 40
1.0
 40
1.0
 40
1.0
 10
-26.499999951535518
 20
10.398288930361133
 30
0.0
 10
-27.16570699276755
 20
10.39833313690051
 30
0.0
 10
-27.822045731697887
 20
10.394228371512806
 30
0.0
 10
-28.236882988310292
 20
10.38735302837947
 30
0.0
 10
-28.416272076279995
 20
10.38446681653724
 30
0.0
 10
-28.552716078115612
 20
10.381005035390015
 30
0.0
 10
-28.646214993817054
 20
10.376967684937792
 30
0.0
 10
-28.704534550631045
 20
10.373539317318127
 30
0.0
 10
-28.735176872509356
 20
10.374326097636752
 30
0.0
 10
-28.821253932141804
 20
10.361623232307196
 30
0.0
 10
-28.87099258283417
 20
10.35378240057451
 30
0.0
 10
-28.933656911442338
 20
10.338160816139135
 30
0.0
 10
-28.990922493897862
 20
10.315393729829282
 30
0.0
 10
-29.0359894444985
 20
10.29772924800398
 30
0.0
 10
-29.079268085186545
 20
10.276066333204886
 30
0.0
 10
-29.120758415961912
 20
10.250404985431985
 30
0.0
 10
-29.35327514374281
 20
10.109159019155541
 30
0.0
 10
-29.502336129713004
 20
9.842065318539923
 30
0.0
 10
-29.499999951425
 20
9.56969134664294
 30
0.0
  0
LINE
  5
2B8
330
17
100
AcDbEntity
  8
visible
100
AcDbLine
 10
-19.99025466625781
 20
10.398288930365364
 30
0.0
 11
-26.499999951535518
 21
10.398288930361133
 31
0.0
  0
SPLINE
  5
2B9
330
17
100
AcDbEntity
  8
visible
100
AcDbSpline
 70
0
 71
3
 72
29
 73
25
 74
0
 40
0.0
 40
0.0
 40
0.0
 40
0.0
 40
0.1232208262609034
 40
0.1232208262609034
 40
0.1232208262609034
 40
0.2464416525218068
 40
0.2464416525218068
 40
0.2464416525218068
 40
0.3696624787827102
 40
0.3696624787827102
 40
0.3696624787827102
 40
0.4928833050436136
 40
0.4928833050436136
 40
0.4928833050436136
 40
0.616104131304517
 40
0.616104131304517
 40
0.616104131304517
 40
0.7393249575654204
 40
0.7393249575654204
 40
0.7393249575654204
 40
0.8767791737390966
 40
0.8767791737390966
 40
0.8767791737390966
 40
1.0
 40
1.0
 40
1.0
 40
1.0
 10
26.500000048925
 20
14.478276588396
 30
0.0
 10
26.50226907079471
 20
14.749672522488252
 30
0.0
 10
26.354436420450348
 20
15.01585166816488
 30
0.0
 10
26.122993194517292
 20
15.157465610784167
 30
0.0
 10
26.07270410508985
 20
15.188772360044993
 30
0.0
 10
26.019735335353527
 20
15.214190579486043
 30
0.0
 10
25.964086885308312
 20
15.233720269107323
 30
0.0
 10
25.90704512690595
 20
15.25410233271085
 30
0.0
 10
25.843338814848774
 20
15.267588406615353
 30
0.0
 10
25.79427871265454
 20
15.273525158717776
 30
0.0
 10
25.73995055370224
 20
15.27997996424554
 30
0.0
 10
25.715222188715273
 20
15.280391373123942
 30
0.0
 10
25.68080940992735
 20
15.282146445458581
 30
0.0
 10
25.648363682599154
 20
15.283493667980476
 30
0.0
 10
25.609977306225503
 20
15.28467182110695
 30
0.0
 10
25.56565028080637
 20
15.285680904837974
 30
0.0
 10
25.537658907145374
 20
15.286329863928177
 30
0.0
 10
25.506967515021206
 20
15.286943112062096
 30
0.0
 10
25.473576104433853
 20
15.28752064923971
 30
0.0
 10
25.436291571249154
 20
15.28816579738697
 30
0.0
 10
25.39583195666024
 20
15.288767494968807
 30
0.0
 10
25.352197260667182
 20
15.289325741985238
 30
0.0
 10
25.126341103889473
 20
15.292236116695639
 30
0.0
 10
24.814496537045798
 20
15.293888372243437
 30
0.0
 10
24.500000048864482
 20
15.29387527042175
 30
0.0
  0
LINE
  5
2BA
330
17
100
AcDbEntity
  8
visible
100
AcDbLine
 10
24.500000048864482
 20
15.29387527042175
 30
0.0
 11
20.00000004789
 21
15.293875270418827
 31
0.0
  0
LINE
  5
2BB
330
17
100
AcDbEntity
  8
visible
100
AcDbLine
 10
-19.99999995346
 20
15.293875270392828
 30
0.0
 11
-24.499999951135518
 21
15.293875270389904
 31
0.0
  0
SPLINE
  5
2BC
330
17
100
AcDbEntity
  8
visible
100
AcDbSpline
 70
0
 71
3
 72
29
 73
25
 74
0
 40
0.0
 40
0.0
 40
0.0
 40
0.0
 40
0.11100823791956815
 40
0.11100823791956815
 40
0.11100823791956815
 40
0.2220164758391363
 40
0.2220164758391363
 40
0.2220164758391363
 40
0.44495881040215923
 40
0.44495881040215923
 40
0.44495881040215923
 40
0.5559670483217274
 40
0.5559670483217274
 40
0.5559670483217274
 40
0.6669752862412955
 40
0.6669752862412955
 40
0.6669752862412955
 40
0.7779835241608637
 40
0.7779835241608637
 40
0.7779835241608637
 40
0.8889917620804318
 40
0.8889917620804318
 40
0.8889917620804318
 40
1.0
 40
1.0
 40
1.0
 40
1.0
 10
-24.499999951135518
 20
15.293875270389904
 30
0.0
 10
-24.813265946467737
 20
15.293888202929715
 30
0.0
 10
-25.123932608034124
 20
15.292249139009286
 30
0.0
 10
-25.34955185475943
 20
15.289359499631528
 30
0.0
 10
-25.393306468214067
 20
15.288803080045069
 30
0.0
 10
-25.433892505504488
 20
15.288203169693553
 30
0.0
 10
-25.47130996663067
 20
15.287559768576969
 30
0.0
 10
-25.546151876795786
 20
15.286291381063295
 30
0.0
 10
-25.607875311757894
 20
15.284801910165221
 30
0.0
 10
-25.656480271516934
 20
15.283091355882762
 30
0.0
 10
-25.680174851721237
 20
15.281966649591869
 30
0.0
 10
-25.703869431925582
 20
15.280841943300977
 30
0.0
 10
-25.7275640121299
 20
15.27971723701009
 30
0.0
 10
-25.755912323282928
 20
15.27926735356887
 30
0.0
 10
-25.801179751867796
 20
15.273328493698475
 30
0.0
 10
-25.8633662978845
 20
15.261900657398868
 30
0.0
 10
-25.916620147395445
 20
15.25073058779277
 30
0.0
 10
-25.969043590445633
 20
15.233911026058403
 30
0.0
 10
-26.020636627035014
 20
15.211441972195681
 30
0.0
 10
-26.064960682614874
 20
15.192009365292105
 30
0.0
 10
-26.10721671284254
 20
15.168736318604376
 30
0.0
 10
-26.147404717717997
 20
15.141622832132535
 30
0.0
 10
-26.365221462902515
 20
14.996962122729881
 30
0.0
 10
-26.50197313964845
 20
14.73979905418428
 30
0.0
 10
-26.499999951075
 20
14.478276588361553
 30
0.0
  0
ARC
  5
2BD
330
17
100
AcDbEntity
  8
visible
100
AcDbCircle
 10
-23.499999948825
 20
18.69292046374882
 30
0.0
 40
4.0
100
AcDbArc
 50
180.00000000003723
 51
238.42829129841283
  0
ARC
  5
2BE
330
17
100
AcDbEntity
  8
visible
100
AcDbCircle
 10
23.500000051175
 20
18.69292046377936
 30
0.0
 40
4.0
100
AcDbArc
 50
301.5717088932542
 51
360.00000000003723
  0
LINE
  5
2BF
330
17
100
AcDbEntity
  8
visible
100
AcDbLine
 10
-23.4999999511776
 20
65.3003202928865
 30
0.0
 11
-12.79174435455228
 21
65.30032029289346
 31
0.0
  0
LINE
  5
2C0
330
17
100
AcDbEntity
  8
visible
100
AcDbLine
 10
12.791751031755673
 20
65.30032029291009
 30
0.0
 11
23.5000000488224
 21
65.30032029291705
 31
0.0
  0
ARC
  5
2C1
330
17
100
AcDbEntity
  8
visible
100
AcDbCircle
 10
-23.499999951175
 20
61.300320292886454
 30
0.0
 40
4.0
100
AcDbArc
 50
90.00000000003725
 51
180.00000000003726
  0
ARC
  5
2C2
330
17
100
AcDbEntity
  8
visible
100
AcDbCircle
 10
23.500000048825
 20
61.30032029291701
 30
0.0
 40
4.0
100
AcDbArc
 50
3.7225211991849e-11
 51
90.00000000003725
  0
LINE
  5
2C3
330
17
100
AcDbEntity
  8
visible
100
AcDbLine
 10
-29.49999994999252
 20
28.496620378313736
 30
0.0
 11
-27.49999994999252
 21
28.496620378315036
 31
0.0
  0
LINE
  5
2C4
330
17
100
AcDbEntity
  8
visible
100
AcDbLine
 10
-29.499999950007478
 20
51.49662037831375
 30
0.0
 11
-27.499999950007478
 21
51.49662037831505
 31
0.0
  0
ENDSEC
  0
SECTION
  2
OBJECTS
  0
DICTIONARY
  5
A
330
0
100
AcDbDictionary
281
1
  3
ACAD_COLOR
350
B
  3
ACAD_GROUP
350
C
  3
ACAD_LAYOUT
350
D
  3
ACAD_MATERIAL
350
E
  3
ACAD_MLEADERSTYLE
350
F
  3
ACAD_MLINESTYLE
350
10
  3
ACAD_PLOTSETTINGS
350
11
  3
ACAD_PLOTSTYLENAME
350
12
  3
ACAD_SCALELIST
350
14
  3
ACAD_TABLESTYLE
350
15
  3
ACAD_VISUALSTYLE
350
16
  3
EZDXF_META
350
2D
  0
DICTIONARY
  5
B
330
A
100
AcDbDictionary
281
1
  0
DICTIONARY
  5
C
330
A
100
AcDbDictionary
281
1
  0
DICTIONARY
  5
D
330
A
100
AcDbDictionary
281
1
  3
Model
350
1A
  3
Layout1
350
1E
  0
DICTIONARY
  5
E
330
A
100
AcDbDictionary
281
1
  3
ByBlock
350
1F
  3
ByLayer
350
20
  3
Global
350
21
  0
DICTIONARY
  5
F
330
A
100
AcDbDictionary
281
1
  3
Standard
350
2C
  0
DICTIONARY
  5
10
330
A
100
AcDbDictionary
281
1
  3
Standard
350
22
  0
DICTIONARY
  5
11
330
A
100
AcDbDictionary
281
1
  0
ACDBDICTIONARYWDFLT
  5
12
330
A
100
AcDbDictionary
281
1
  3
Normal
350
13
100
AcDbDictionaryWithDefault
340
13
  0
ACDBPLACEHOLDER
  5
13
330
12
  0
DICTIONARY
  5
14
330
A
100
AcDbDictionary
281
1
  0
DICTIONARY
  5
15
330
A
100
AcDbDictionary
281
1
  0
DICTIONARY
  5
16
330
A
100
AcDbDictionary
281
1
  0
LAYOUT
  5
1A
330
D
100
AcDbPlotSettings
  1

  4
A3
  6

 40
7.5
 41
20.0
 42
7.5
 43
20.0
 44
420.0
 45
297.0
 46
0.0
 47
0.0
 48
0.0
 49
0.0
140
0.0
141
0.0
142
1.0
143
1.0
 70
1024
 72
1
 73
0
 74
5
  7

 75
16
 76
0
 77
2
 78
300
147
1.0
148
0.0
149
0.0
100
AcDbLayout
  1
Model
 70
1
 71
0
 10
0.0
 20
0.0
 11
420.0
 21
297.0
 12
0.0
 22
0.0
 32
0.0
 14
1e+20
 24
1e+20
 34
1e+20
 15
-1e+20
 25
-1e+20
 35
-1e+20
146
0.0
 13
0.0
 23
0.0
 33
0.0
 16
1.0
 26
0.0
 36
0.0
 17
0.0
 27
1.0
 37
0.0
 76
1
330
17
  0
LAYOUT
  5
1E
330
D
100
AcDbPlotSettings
  1

  4
A3
  6

 40
7.5
 41
20.0
 42
7.5
 43
20.0
 44
420.0
 45
297.0
 46
0.0
 47
0.0
 48
0.0
 49
0.0
140
0.0
141
0.0
142
1.0
143
1.0
 70
0
 72
1
 73
0
 74
5
  7

 75
16
 76
0
 77
2
 78
300
147
1.0
148
0.0
149
0.0
100
AcDbLayout
  1
Layout1
 70
1
 71
1
 10
0.0
 20
0.0
 11
420.0
 21
297.0
 12
0.0
 22
0.0
 32
0.0
 14
1e+20
 24
1e+20
 34
1e+20
 15
-1e+20
 25
-1e+20
 35
-1e+20
146
0.0
 13
0.0
 23
0.0
 33
0.0
 16
1.0
 26
0.0
 36
0.0
 17
0.0
 27
1.0
 37
0.0
 76
1
330
1B
  0
MATERIAL
  5
1F
102
{ACAD_REACTORS
330
E
102
}
330
E
100
AcDbMaterial
  1
ByBlock
  2

 70
0
 40
1.0
 71
1
 41
1.0
 91
-1023410177
 42
1.0
 72
1
  3

 73
1
 74
1
 75
1
 44
0.5
 73
0
 45
1.0
 46
1.0
 77
1
  4

 78
1
 79
1
170
1
 48
1.0
171
1
  6

172
1
173
1
174
1
140
1.0
141
1.0
175
1
  7

176
1
177
1
178
1
143
1.0
179
1
  8

270
1
271
1
272
1
145
1.0
146
1.0
273
1
  9

274
1
275
1
276
1
 42
1.0
 72
1
  3

 73
1
 74
1
 75
1
 94
63
  0
MATERIAL
  5
20
102
{ACAD_REACTORS
330
E
102
}
330
E
100
AcDbMaterial
  1
ByLayer
  2

 70
0
 40
1.0
 71
1
 41
1.0
 91
-1023410177
 42
1.0
 72
1
  3

 73
1
 74
1
 75
1
 44
0.5
 73
0
 45
1.0
 46
1.0
 77
1
  4

 78
1
 79
1
170
1
 48
1.0
171
1
  6

172
1
173
1
174
1
140
1.0
141
1.0
175
1
  7

176
1
177
1
178
1
143
1.0
179
1
  8

270
1
271
1
272
1
145
1.0
146
1.0
273
1
  9

274
1
275
1
276
1
 42
1.0
 72
1
  3

 73
1
 74
1
 75
1
 94
63
  0
MATERIAL
  5
21
102
{ACAD_REACTORS
330
E
102
}
330
E
100
AcDbMaterial
  1
Global
  2

 70
0
 40
1.0
 71
1
 41
1.0
 91
-1023410177
 42
1.0
 72
1
  3

 73
1
 74
1
 75
1
 44
0.5
 73
0
 45
1.0
 46
1.0
 77
1
  4

 78
1
 79
1
170
1
 48
1.0
171
1
  6

172
1
173
1
174
1
140
1.0
141
1.0
175
1
  7

176
1
177
1
178
1
143
1.0
179
1
  8

270
1
271
1
272
1
145
1.0
146
1.0
273
1
  9

274
1
275
1
276
1
 42
1.0
 72
1
  3

 73
1
 74
1
 75
1
 94
63
  0
MLINESTYLE
  5
22
102
{ACAD_REACTORS
330
10
102
}
330
10
100
AcDbMlineStyle
  2
Standard
 70
0
  3

 62
256
 51
90.0
 52
90.0
 71
2
 49
0.5
 62
256
  6
BYLAYER
 49
-0.5
 62
256
  6
BYLAYER
  0
MLEADERSTYLE
  5
2C
102
{ACAD_REACTORS
330
F
102
}
330
F
100
AcDbMLeaderStyle
179
2
170
2
171
1
172
0
 90
2
 40
0.0
 41
0.0
173
1
 91
-1056964608
 92
-2
290
1
 42
2.0
291
1
 43
8.0
  3
Standard
 44
4.0
300

342
29
174
1
175
1
176
0
178
1
 93
-1056964608
 45
4.0
292
0
297
0
 46
4.0
 94
-1056964608
 47
1.0
 49
1.0
140
1.0
294
1
141
0.0
177
0
142
1.0
295
0
296
0
143
3.75
271
0
272
9
273
9
  0
DICTIONARY
  5
2D
330
A
100
AcDbDictionary
280
1
281
1
  3
CREATED_BY_EZDXF
350
2E
  3
WRITTEN_BY_EZDXF
350
2C8
  0
DICTIONARYVAR
  5
2E
330
2D
100
DictionaryVariables
280
0
  1
1.4.4 @ 2026-10-02T15:36:09.913743+00:00
  0
DICTIONARYVAR
  5
2C8
330
2D
100
DictionaryVariables
280
0
  1
1.4.4 @ 2026-10-02T15:36:10.030586+00:00
  0
ENDSEC
  0
EOF
