  0
SECTION
  2
HEADER
  9
$ACADVER
  1
AC1027
  9
$ACADMAINTVER
 70
105
  9
$DWGCODEPAGE
  3
ANSI_1252
  9
$LASTSAVEDBY
  1
ezdxf
  9
$REQUIREDVERSIONS
160
0
  9
$INSBASE
 10
0.0
 20
0.0
 30
0.0
  9
$EXTMIN
 10
1e+20
 20
1e+20
 30
1e+20
  9
$EXTMAX
 10
-1e+20
 20
-1e+20
 30
-1e+20
  9
$LIMMIN
 10
0.0
 20
0.0
  9
$LIMMAX
 10
420.0
 20
297.0
  9
$ORTHOMODE
 70
0
  9
$REGENMODE
 70
1
  9
$FILLMODE
 70
1
  9
$QTEXTMODE
 70
0
  9
$MIRRTEXT
 70
1
  9
$LTSCALE
 40
1.0
  9
$ATTMODE
 70
1
  9
$TEXTSIZE
 40
2.5
  9
$TRACEWID
 40
1.0
  9
$TEXTSTYLE
  7
Standard
  9
$CLAYER
  8
0
  9
$CELTYPE
  6
ByLayer
  9
$CECOLOR
 62
256
  9
$CELTSCALE
 40
1.0
  9
$DISPSILH
 70
0
  9
$DIMSCALE
 40
1.0
  9
$DIMASZ
 40
2.5
  9
$DIMEXO
 40
0.625
  9
$DIMDLI
 40
3.75
  9
$DIMRND
 40
0.0
  9
$DIMDLE
 40
0.0
  9
$DIMEXE
 40
1.25
  9
$DIMTP
 40
0.0
  9
$DIMTM
 40
0.0
  9
$DIMTXT
 40
2.5
  9
$DIMCEN
 40
2.5
  9
$DIMTSZ
 40
0.0
  9
$DIMTOL
 70
0
  9
$DIMLIM
 70
0
  9
$DIMTIH
 70
0
  9
$DIMTOH
 70
0
  9
$DIMSE1
 70
0
  9
$DIMSE2
 70
0
  9
$DIMTAD
 70
1
  9
$DIMZIN
 70
8
  9
$DIMBLK
  1

  9
$DIMASO
 70
1
  9
$DIMSHO
 70
1
  9
$DIMPOST
  1

  9
$DIMAPOST
  1

  9
$DIMALT
 70
0
  9
$DIMALTD
 70
3
  9
$DIMALTF
 40
0.03937007874
  9
$DIMLFAC
 40
1.0
  9
$DIMTOFL
 70
1
  9
$DIMTVP
 40
0.0
  9
$DIMTIX
 70
0
  9
$DIMSOXD
 70
0
  9
$DIMSAH
 70
0
  9
$DIMBLK1
  1

  9
$DIMBLK2
  1

  9
$DIMSTYLE
  2
ISO-25
  9
$DIMCLRD
 70
0
  9
$DIMCLRE
 70
0
  9
$DIMCLRT
 70
0
  9
$DIMTFAC
 40
1.0
  9
$DIMGAP
 40
0.625
  9
$DIMJUST
 70
0
  9
$DIMSD1
 70
0
  9
$DIMSD2
 70
0
  9
$DIMTOLJ
 70
0
  9
$DIMTZIN
 70
8
  9
$DIMALTZ
 70
0
  9
$DIMALTTZ
 70
0
  9
$DIMUPT
 70
0
  9
$DIMDEC
 70
2
  9
$DIMTDEC
 70
2
  9
$DIMALTU
 70
2
  9
$DIMALTTD
 70
3
  9
$DIMTXSTY
  7
Standard
  9
$DIMAUNIT
 70
0
  9
$DIMADEC
 70
0
  9
$DIMALTRND
 40
0.0
  9
$DIMAZIN
 70
0
  9
$DIMDSEP
 70
44
  9
$DIMATFIT
 70
3
  9
$DIMFRAC
 70
0
  9
$DIMLDRBLK
  1

  9
$DIMLUNIT
 70
2
  9
$DIMLWD
 70
-2
  9
$DIMLWE
 70
-2
  9
$DIMTMOVE
 70
0
  9
$DIMFXL
 40
1.0
  9
$DIMFXLON
 70
0
  9
$DIMJOGANG
 40
0.785398163397
  9
$DIMTFILL
 70
0
  9
$DIMTFILLCLR
 70
0
  9
$DIMARCSYM
 70
0
  9
$DIMLTYPE
  6

  9
$DIMLTEX1
  6

  9
$DIMLTEX2
  6

  9
$DIMTXTDIRECTION
 70
0
  9
$LUNITS
 70
2
  9
$LUPREC
 70
4
  9
$SKETCHINC
 40
1.0
  9
$FILLETRAD
 40
10.0
  9
$AUNITS
 70
0
  9
$AUPREC
 70
2
  9
$MENU
  1
.
  9
$ELEVATION
 40
0.0
  9
$PELEVATION
 40
0.0
  9
$THICKNESS
 40
0.0
  9
$LIMCHECK
 70
0
  9
$CHAMFERA
 40
0.0
  9
$CHAMFERB
 40
0.0
  9
$CHAMFERC
 40
0.0
  9
$CHAMFERD
 40
0.0
  9
$SKPOLY
 70
0
  9
$TDCREATE
 40
2461317.746261574
  9
$TDUCREATE
 40
2458532.153996898
  9
$TDUPDATE
 40
2461317.746261574
  9
$TDUUPDATE
 40
2458532.1544311
  9
$TDINDWG
 40
0.0
  9
$TDUSRTIMER
 40
0.0
  9
$USRTIMER
 70
1
  9
$ANGBASE
 50
0.0
  9
$ANGDIR
 70
0
  9
$PDMODE
 70
0
  9
$PDSIZE
 40
0.0
  9
$PLINEWID
 40
0.0
  9
$SPLFRAME
 70
0
  9
$SPLINETYPE
 70
6
  9
$SPLINESEGS
 70
8
  9
$HANDSEED
  5
2EE
  9
$SURFTAB1
 70
6
  9
$SURFTAB2
 70
6
  9
$SURFTYPE
 70
6
  9
$SURFU
 70
6
  9
$SURFV
 70
6
  9
$UCSBASE
  2

  9
$UCSNAME
  2

  9
$UCSORG
 10
0.0
 20
0.0
 30
0.0
  9
$UCSXDIR
 10
1.0
 20
0.0
 30
0.0
  9
$UCSYDIR
 10
0.0
 20
1.0
 30
0.0
  9
$UCSORTHOREF
  2

  9
$UCSORTHOVIEW
 70
0
  9
$UCSORGTOP
 10
0.0
 20
0.0
 30
0.0
  9
$UCSORGBOTTOM
 10
0.0
 20
0.0
 30
0.0
  9
$UCSORGLEFT
 10
0.0
 20
0.0
 30
0.0
  9
$UCSORGRIGHT
 10
0.0
 20
0.0
 30
0.0
  9
$UCSORGFRONT
 10
0.0
 20
0.0
 30
0.0
  9
$UCSORGBACK
 10
0.0
 20
0.0
 30
0.0
  9
$PUCSBASE
  2

  9
$PUCSNAME
  2

  9
$PUCSORG
 10
0.0
 20
0.0
 30
0.0
  9
$PUCSXDIR
 10
1.0
 20
0.0
 30
0.0
  9
$PUCSYDIR
 10
0.0
 20
1.0
 30
0.0
  9
$PUCSORTHOREF
  2

  9
$PUCSORTHOVIEW
 70
0
  9
$PUCSORGTOP
 10
0.0
 20
0.0
 30
0.0
  9
$PUCSORGBOTTOM
 10
0.0
 20
0.0
 30
0.0
  9
$PUCSORGLEFT
 10
0.0
 20
0.0
 30
0.0
  9
$PUCSORGRIGHT
 10
0.0
 20
0.0
 30
0.0
  9
$PUCSORGFRONT
 10
0.0
 20
0.0
 30
0.0
  9
$PUCSORGBACK
 10
0.0
 20
0.0
 30
0.0
  9
$USERI1
 70
0
  9
$USERI2
 70
0
  9
$USERI3
 70
0
  9
$USERI4
 70
0
  9
$USERI5
 70
0
  9
$USERR1
 40
0.0
  9
$USERR2
 40
0.0
  9
$USERR3
 40
0.0
  9
$USERR4
 40
0.0
  9
$USERR5
 40
0.0
  9
$WORLDVIEW
 70
1
  9
$SHADEDGE
 70
3
  9
$SHADEDIF
 70
70
  9
$TILEMODE
 70
1
  9
$MAXACTVP
 70
64
  9
$PINSBASE
 10
0.0
 20
0.0
 30
0.0
  9
$PLIMCHECK
 70
0
  9
$PEXTMIN
 10
1e+20
 20
1e+20
 30
1e+20
  9
$PEXTMAX
 10
-1e+20
 20
-1e+20
 30
-1e+20
  9
$PLIMMIN
 10
0.0
 20
0.0
  9
$PLIMMAX
 10
420.0
 20
297.0
  9
$UNITMODE
 70
0
  9
$VISRETAIN
 70
1
  9
$PLINEGEN
 70
0
  9
$PSLTSCALE
 70
1
  9
$TREEDEPTH
 70
3020
  9
$CMLSTYLE
  2
Standard
  9
$CMLJUST
 70
0
  9
$CMLSCALE
 40
20.0
  9
$PROXYGRAPHICS
 70
1
  9
$MEASUREMENT
 70
1
  9
$CELWEIGHT
370
-1
  9
$ENDCAPS
280
0
  9
$JOINSTYLE
280
0
  9
$LWDISPLAY
290
0
  9
$INSUNITS
 70
4
  9
$HYPERLINKBASE
  1

  9
$STYLESHEET
  1

  9
$XEDIT
290
1
  9
$CEPSNTYPE
380
0
  9
$PSTYLEMODE
290
1
  9
$FINGERPRINTGUID
  2
{9ABA91B8-9518-4C33-B5C6-3DC3553EC537}
  9
$VERSIONGUID
  2
{F26EFE43-C92C-48C9-952E-560CE38DDB1F}
  9
$EXTNAMES
290
1
  9
$PSVPSCALE
 40
0.0
  9
$OLESTARTUP
290
0
  9
$SORTENTS
280
127
  9
$INDEXCTL
280
0
  9
$HIDETEXT
280
1
  9
$XCLIPFRAME
280
1
  9
$HALOGAP
280
0
  9
$OBSCOLOR
 70
257
  9
$OBSLTYPE
280
0
  9
$INTERSECTIONDISPLAY
280
0
  9
$INTERSECTIONCOLOR
 70
257
  9
$DIMASSOC
280
2
  9
$PROJECTNAME
  1

  9
$CAMERADISPLAY
290
0
  9
$LENSLENGTH
 40
50.0
  9
$CAMERAHEIGHT
 40
0.0
  9
$STEPSPERSEC
 40
24.0
  9
$STEPSIZE
 40
100.0
  9
$3DDWFPREC
 40
2.0
  9
$PSOLWIDTH
 40
0.005
  9
$PSOLHEIGHT
 40
0.08
  9
$LOFTANG1
 40
1.570796326795
  9
$LOFTANG2
 40
1.570796326795
  9
$LOFTMAG1
 40
0.0
  9
$LOFTMAG2
 40
0.0
  9
$LOFTPARAM
 70
7
  9
$LOFTNORMALS
280
1
  9
$LATITUDE
 40
37.795
  9
$LONGITUDE
 40
-122.394
  9
$NORTHDIRECTION
 40
0.0
  9
$TIMEZONE
 70
-8000
  9
$LIGHTGLYPHDISPLAY
280
1
  9
$TILEMODELIGHTSYNCH
280
1
  9
$CMATERIAL
347
20
  9
$SOLIDHIST
280
0
  9
$SHOWHIST
280
1
  9
$DWFFRAME
280
2
  9
$DGNFRAME
280
2
  9
$REALWORLDSCALE
290
1
  9
$INTERFERECOLOR
 62
256
  9
$CSHADOW
280
0
  9
$SHADOWPLANELOCATION
 40
0.0
  0
ENDSEC
  0
SECTION
  2
CLASSES
  0
CLASS
  1
ACDBDICTIONARYWDFLT
  2
AcDbDictionaryWithDefault
  3
ObjectDBX Classes
 90
0
 91
0
280
0
281
0
  0
CLASS
  1
SUN
  2
AcDbSun
  3
SCENEOE
 90
1153
 91
0
280
0
281
0
  0
CLASS
  1
VISUALSTYLE
  2
AcDbVisualStyle
  3
ObjectDBX Classes
 90
4095
 91
0
280
0
281
0
  0
CLASS
  1
MATERIAL
  2
AcDbMaterial
  3
ObjectDBX Classes
 90
1153
 91
0
280
0
281
0
  0
CLASS
  1
SCALE
  2
AcDbScale
  3
ObjectDBX Classes
 90
1153
 91
0
280
0
281
0
  0
CLASS
  1
TABLESTYLE
  2
AcDbTableStyle
  3
ObjectDBX Classes
 90
4095
 91
0
280
0
281
0
  0
CLASS
  1
MLEADERSTYLE
  2
AcDbMLeaderStyle
  3
ACDB_MLEADERSTYLE_CLASS
 90
4095
 91
0
280
0
281
0
  0
CLASS
  1
DICTIONARYVAR
  2
AcDbDictionaryVar
  3
ObjectDBX Classes
 90
0
 91
0
280
0
281
0
  0
CLASS
  1
CELLSTYLEMAP
  2
AcDbCellStyleMap
  3
ObjectDBX Classes
 90
1152
 91
0
280
0
281
0
  0
CLASS
  1
MENTALRAYRENDERSETTINGS
  2
AcDbMentalRayRenderSettings
  3
SCENEOE
 90
1024
 91
0
280
0
281
0
  0
CLASS
  1
ACDBDETAILVIEWSTYLE
  2
AcDbDetailViewStyle
  3
ObjectDBX Classes
 90
1025
 91
0
280
0
281
0
  0
CLASS
  1
ACDBSECTIONVIEWSTYLE
  2
AcDbSectionViewStyle
  3
ObjectDBX Classes
 90
1025
 91
0
280
0
281
0
  0
CLASS
  1
RASTERVARIABLES
  2
AcDbRasterVariables
  3
ISM
 90
0
 91
0
280
0
281
0
  0
CLASS
  1
LAYOUT
  2
AcDbLayout
  3
ObjectDBX Classes
 90
0
 91
0
280
0
281
0
  0
CLASS
  1
ACDBPLACEHOLDER
  2
AcDbPlaceHolder
  3
ObjectDBX Classes
 90
0
 91
0
280
0
281
0
  0
ENDSEC
  0
SECTION
  2
TABLES
  0
TABLE
  2
VPORT
  5
8
330
0
100
AcDbSymbolTable
 70
1
  0
VPORT
  5
2EA
330
8
100
AcDbSymbolTableRecord
100
AcDbViewportTableRecord
  2
*Active
 70
0
 10
0.0
 20
0.0
 11
1.0
 21
1.0
 12
-3.7056565882099974
 22
-6.828373459525949
 13
0.0
 23
0.0
 14
0.5
 24
0.5
 15
0.5
 25
0.5
 16
0.0
 26
0.0
 36
1.0
 17
0.0
 27
0.0
 37
0.0
 40
152.5935176803194
 41
1.34
 42
50.0
 43
0.0
 44
0.0
 50
0.0
 51
0.0
 71
0
 72
1000
 73
1
 74
3
 75
0
 76
0
 77
0
 78
0
281
0
 65
1
110
0.0
120
0.0
130
0.0
111
1.0
121
0.0
131
0.0
112
0.0
122
1.0
132
0.0
 79
0
146
0.0
  0
ENDTAB
  0
TABLE
  2
LTYPE
  5
2
330
0
100
AcDbSymbolTable
 70
3
  0
LTYPE
  5
24
330
2
100
AcDbSymbolTableRecord
100
AcDbLinetypeTableRecord
  2
ByBlock
 70
0
  3

 72
65
 73
0
 40
0.0
  0
LTYPE
  5
25
330
2
100
AcDbSymbolTableRecord
100
AcDbLinetypeTableRecord
  2
ByLayer
 70
0
  3

 72
65
 73
0
 40
0.0
  0
LTYPE
  5
26
330
2
100
AcDbSymbolTableRecord
100
AcDbLinetypeTableRecord
  2
Continuous
 70
0
  3

 72
65
 73
0
 40
0.0
  0
ENDTAB
  0
TABLE
  2
LAYER
  5
1
330
0
100
AcDbSymbolTable
 70
3
  0
LAYER
  5
27
330
1
100
AcDbSymbolTableRecord
100
AcDbLayerTableRecord
  2
0
 70
0
 62
7
  6
Continuous
370
-3
390
13
347
21
  0
LAYER
  5
28
330
1
100
AcDbSymbolTableRecord
100
AcDbLayerTableRecord
  2
Defpoints
 70
0
 62
7
  6
Continuous
290
0
370
-3
390
13
347
21
  0
LAYER
  5
2F
330
1
100
AcDbSymbolTableRecord
100
AcDbLayerTableRecord
  2
visible
 70
0
 62
7
  6
Continuous
370
-3
390
13
347
21
  0
ENDTAB
  0
TABLE
  2
STYLE
  5
5
330
0
100
AcDbSymbolTable
 70
1
  0
STYLE
  5
29
330
5
100
AcDbSymbolTableRecord
100
AcDbTextStyleTableRecord
  2
Standard
 70
0
 40
0.0
 41
1.0
 50
0.0
 71
0
 42
2.5
  3
txt
  4

  0
ENDTAB
  0
TABLE
  2
VIEW
  5
7
330
0
100
AcDbSymbolTable
 70
0
  0
ENDTAB
  0
TABLE
  2
UCS
  5
6
330
0
100
AcDbSymbolTable
 70
0
  0
ENDTAB
  0
TABLE
  2
APPID
  5
3
330
0
100
AcDbSymbolTable
 70
3
  0
APPID
  5
2A
330
3
100
AcDbSymbolTableRecord
100
AcDbRegAppTableRecord
  2
ACAD
 70
0
  0
APPID
  5
2EB
330
3
100
AcDbSymbolTableRecord
100
AcDbRegAppTableRecord
  2
HATCHBACKGROUNDCOLOR
 70
0
  0
APPID
  5
2EC
330
3
100
AcDbSymbolTableRecord
100
AcDbRegAppTableRecord
  2
EZDXF
 70
0
  0
ENDTAB
  0
TABLE
  2
DIMSTYLE
  5
4
330
0
100
AcDbSymbolTable
 70
1
100
AcDbDimStyleTable
  0
DIMSTYLE
105
2B
330
4
100
AcDbSymbolTableRecord
100
AcDbDimStyleTableRecord
  2
Standard
 70
0
 40
1.0
 41
2.5
 42
0.625
 43
3.75
 44
1.25
 45
0.0
 46
0.0
 47
0.0
 48
0.0
 49
2.5
140
2.5
141
2.5
142
0.0
143
0.03937007874
144
1.0
145
0.0
146
1.0
147
0.625
148
0.0
 69
0
 70
0
 71
0
 72
0
 73
0
 74
0
 75
0
 76
0
 77
1
 78
8
 79
3
170
0
171
3
172
1
173
0
174
0
175
0
176
0
177
0
178
0
179
2
271
2
272
2
273
2
274
3
275
0
276
0
277
2
278
44
279
0
280
0
281
0
282
0
283
0
284
8
285
0
286
0
288
0
289
3
290
0
371
-2
372
-2
  0
ENDTAB
  0
TABLE
  2
BLOCK_RECORD
  5
9
330
0
100
AcDbSymbolTable
 70
2
  0
BLOCK_RECORD
  5
17
330
9
100
AcDbSymbolTableRecord
100
AcDbBlockTableRecord
  2
*Model_Space
340
1A
 70
0
280
1
281
0
  0
BLOCK_RECORD
  5
1B
330
9
100
AcDbSymbolTableRecord
100
AcDbBlockTableRecord
  2
*Paper_Space
340
1E
 70
0
280
1
281
0
  0
ENDTAB
  0
ENDSEC
  0
SECTION
  2
BLOCKS
  0
BLOCK
  5
18
330
17
100
AcDbEntity
  8
0
100
AcDbBlockBegin
  2
*Model_Space
 70
0
 10
0.0
 20
0.0
 30
0.0
  3
*Model_Space
  1

  0
ENDBLK
  5
19
330
17
100
AcDbEntity
  8
0
100
AcDbBlockEnd
  0
BLOCK
  5
1C
330
1B
100
AcDbEntity
  8
0
100
AcDbBlockBegin
  2
*Paper_Space
 70
0
 10
0.0
 20
0.0
 30
0.0
  3
*Paper_Space
  1

  0
ENDBLK
  5
1D
330
1B
100
AcDbEntity
  8
0
100
AcDbBlockEnd
  0
ENDSEC
  0
SECTION
  2
ENTITIES
  0
ELLIPSE
  5
30
330
17
100
AcDbEntity
  8
visible
100
AcDbEllipse
 10
-51.38784997037623
 20
-33.40892329438272
 30
0.0
 11
12.0
 21
3.6292099870939615e-16
 31
0.0
 40
0.39718302370189007
 41
3.0258030423351157
 42
3.141592653589793
  0
ELLIPSE
  5
31
330
17
100
AcDbEntity
  8
visible
100
AcDbEllipse
 10
-51.38784997037623
 20
-33.40892329438272
 30
0.0
 11
12.0
 21
3.6292099870939615e-16
 31
0.0
 40
0.39718302370189007
 41
3.141592653589793
 42
4.131238191904857
  0
ELLIPSE
  5
32
330
17
100
AcDbEntity
  8
visible
100
AcDbEllipse
 10
-51.38784997037623
 20
-38.45649011235665
 30
0.0
 11
12.0
 21
3.6292099870939615e-16
 31
0.0
 40
0.39718302370189007
 41
3.4739740386593407
 42
4.131238191904857
  0
LINE
  5
33
330
17
100
AcDbEntity
  8
visible
100
AcDbLine
 10
-62.7310658567203
 20
-51.02454917949197
 30
0.0
 11
-62.7310658567203
 21
-40.0116761220943
 31
0.0
  0
ELLIPSE
  5
34
330
17
100
AcDbEntity
  8
visible
100
AcDbEllipse
 10
-51.38784997037623
 20
-49.46936316975432
 30
0.0
 11
12.0
 21
3.6292099870939615e-16
 31
0.0
 40
0.39718302370189007
 41
3.4739740386593407
 42
4.131238191904857
  0
ELLIPSE
  5
35
330
17
100
AcDbEntity
  8
visible
100
AcDbEllipse
 10
-51.38784997037623
 20
-33.40892329438272
 30
0.0
 11
-11.389897948556635
 21
-3.4446942822402306e-16
 31
0.0
 40
0.39718302370189007
 41
-6.178786755558971
 42
-5.293539768864522
  0
LINE
  5
36
330
17
100
AcDbEntity
  8
visible
100
AcDbLine
 10
5.882442809808872
 20
-53.76176635531552
 30
0.0
 11
-57.64074636811749
 21
-37.190119487901455
 31
0.0
  0
ELLIPSE
  5
37
330
17
100
AcDbEntity
  8
visible
100
AcDbEllipse
 10
12.13533920755014
 20
-49.98057016179678
 30
0.0
 11
-11.389897948556635
 21
-3.4446942822402306e-16
 31
0.0
 40
0.39718302370189007
 41
-5.293539768864522
 42
-3.7227434420696257
  0
LINE
  5
38
330
17
100
AcDbEntity
  8
visible
100
AcDbLine
 10
53.49657155847519
 20
-33.20938713801465
 30
0.0
 11
21.655373972069064
 21
-52.464114459946316
 31
0.0
  0
ELLIPSE
  5
39
330
17
100
AcDbEntity
  8
visible
100
AcDbEllipse
 10
43.97653679395626
 20
-30.725842839865116
 30
0.0
 11
-11.389897948556635
 21
-3.4446942822402306e-16
 31
0.0
 40
0.39718302370189007
 41
-3.7227434420696253
 42
-3.2459912052104074
  0
ELLIPSE
  5
3A
330
17
100
AcDbEntity
  8
visible
100
AcDbEllipse
 10
43.97653679395625
 20
-30.725842839865116
 30
0.0
 11
12.0
 21
3.6292099870939615e-16
 31
0.0
 40
0.39718302370189007
 41
5.702034518699754
 42
6.283185307179586
  0
ELLIPSE
  5
3B
330
17
100
AcDbEntity
  8
visible
100
AcDbEllipse
 10
43.97653679395625
 20
-30.725842839865116
 30
0.0
 11
12.0
 21
3.6292099870939615e-16
 31
0.0
 40
0.39718302370189007
 41
0.0
 42
0.11578961125467735
  0
LINE
  5
3C
330
17
100
AcDbEntity
  8
visible
100
AcDbLine
 10
54.0065140325762
 20
-33.342418661035765
 30
0.0
 11
22.16531644617009
 21
-52.597145982967426
 31
0.0
  0
ELLIPSE
  5
3D
330
17
100
AcDbEntity
  8
visible
100
AcDbEllipse
 10
12.135339207550134
 20
-49.98057016179678
 30
0.0
 11
12.0
 21
3.6292099870939615e-16
 31
0.0
 40
0.39718302370189007
 41
4.131238191904857
 42
5.702034518699754
  0
LINE
  5
3E
330
17
100
AcDbEntity
  8
visible
100
AcDbLine
 10
-57.9756839537706
 20
-37.392659981678925
 30
0.0
 11
5.5475052241557705
 21
-53.96430684909299
 31
0.0
  0
LINE
  5
3F
330
17
100
AcDbEntity
  8
visible
100
AcDbLine
 10
-57.9756839537706
 20
-53.45309985705052
 30
0.0
 11
-52.960695334460624
 21
-54.76138776763584
 31
0.0
  0
LINE
  5
40
330
17
100
AcDbEntity
  8
visible
100
AcDbLine
 10
-57.9756839537706
 20
-42.44022679965285
 30
0.0
 11
-52.960695334460624
 21
-43.74851471023817
 31
0.0
  0
LINE
  5
41
330
17
100
AcDbEntity
  8
visible
100
AcDbLine
 10
-52.960695334460624
 20
-43.74851471023817
 30
0.0
 11
-52.960695334460624
 21
-54.76138776763584
 31
0.0
  0
LINE
  5
42
330
17
100
AcDbEntity
  8
visible
100
AcDbLine
 10
-45.020296687219826
 20
-58.20945275823731
 30
0.0
 11
-40.84113950446151
 21
-59.29969268372508
 31
0.0
  0
LINE
  5
43
330
17
100
AcDbEntity
  8
visible
100
AcDbLine
 10
-45.020296687219826
 20
-58.20945275823731
 30
0.0
 11
-45.020296687219826
 21
-60.962671022586726
 31
0.0
  0
LINE
  5
44
330
17
100
AcDbEntity
  8
visible
100
AcDbLine
 10
-40.84113950446151
 20
-59.29969268372508
 30
0.0
 11
-40.84113950446151
 21
-62.05291094807449
 31
0.0
  0
LINE
  5
45
330
17
100
AcDbEntity
  8
visible
100
AcDbLine
 10
-45.020296687219826
 20
-60.962671022586726
 30
0.0
 11
-40.84113950446151
 21
-62.05291094807449
 31
0.0
  0
LINE
  5
46
330
17
100
AcDbEntity
  8
visible
100
AcDbLine
 10
-36.6619823217032
 20
-60.38993260921284
 30
0.0
 11
-32.48282513894489
 21
-61.480172534700614
 31
0.0
  0
LINE
  5
47
330
17
100
AcDbEntity
  8
visible
100
AcDbLine
 10
-36.6619823217032
 20
-60.38993260921284
 30
0.0
 11
-36.6619823217032
 21
-63.143150873562256
 31
0.0
  0
LINE
  5
48
330
17
100
AcDbEntity
  8
visible
100
AcDbLine
 10
-32.48282513894488
 20
-61.48017253470061
 30
0.0
 11
-32.48282513894488
 21
-64.23339079905003
 31
0.0
  0
LINE
  5
49
330
17
100
AcDbEntity
  8
visible
100
AcDbLine
 10
-36.6619823217032
 20
-63.143150873562256
 30
0.0
 11
-32.48282513894489
 21
-64.23339079905003
 31
0.0
  0
LINE
  5
4A
330
17
100
AcDbEntity
  8
visible
100
AcDbLine
 10
-31.090724984810677
 20
-49.76417484163695
 30
0.0
 11
-31.090724984810677
 21
-50.432314234889716
 31
0.0
  0
SPLINE
  5
4B
330
17
100
AcDbEntity
  8
visible
100
AcDbSpline
 70
0
 71
2
 72
6
 73
3
 74
0
 40
0.0
 40
0.0
 40
0.0
 40
1.0
 40
1.0
 40
1.0
 10
-31.09072498481068
 20
-49.76417484163696
 30
0.0
 10
-31.38664886641252
 20
-49.46491857061558
 30
0.0
 10
-31.726373159824945
 20
-49.26428007821885
 30
0.0
  0
SPLINE
  5
4C
330
17
100
AcDbEntity
  8
visible
100
AcDbSpline
 70
0
 71
2
 72
6
 73
3
 74
0
 40
0.0
 40
0.0
 40
0.0
 40
1.0
 40
1.0
 40
1.0
 10
-31.712088931172936
 20
-49.8247893119248
 30
0.0
 10
-31.3743134230591
 20
-50.066004937652586
 30
0.0
 10
-31.090724984810677
 20
-50.432314234889716
 30
0.0
  0
SPLINE
  5
4D
330
17
100
AcDbEntity
  8
visible
100
AcDbSpline
 70
0
 71
2
 72
6
 73
3
 74
0
 40
0.0
 40
0.0
 40
0.0
 40
1.0
 40
1.0
 40
1.0
 10
-31.726373159824945
 20
-49.26428007821885
 30
0.0
 10
-32.07124950414168
 20
-49.06200335736673
 30
0.0
 10
-32.44772670675124
 20
-48.964740009913086
 30
0.0
  0
SPLINE
  5
4E
330
17
100
AcDbEntity
  8
visible
100
AcDbSpline
 70
0
 71
2
 72
6
 73
3
 74
0
 40
0.0
 40
0.0
 40
0.0
 40
1.0
 40
1.0
 40
1.0
 10
-32.41344455798643
 20
-49.49439295838617
 30
0.0
 10
-32.04524687227785
 20
-49.58983633636018
 30
0.0
 10
-31.71208893117294
 20
-49.8247893119248
 30
0.0
  0
SPLINE
  5
4F
330
17
100
AcDbEntity
  8
visible
100
AcDbSpline
 70
0
 71
3
 72
8
 73
4
 74
0
 40
0.0
 40
0.0
 40
0.0
 40
0.0
 40
0.838736042111983
 40
0.838736042111983
 40
0.838736042111983
 40
0.838736042111983
 10
-32.44772670675125
 20
-48.964740009913086
 30
0.0
 10
-32.929278909594515
 20
-48.83612654120774
 30
0.0
 10
-33.40872567891923
 20
-48.84374717129178
 30
0.0
 10
-33.77510075213718
 20
-49.06954784744647
 30
0.0
  0
SPLINE
  5
50
330
17
100
AcDbEntity
  8
visible
100
AcDbSpline
 70
0
 71
2
 72
6
 73
3
 74
0
 40
0.0
 40
0.0
 40
0.0
 40
1.0
 40
1.0
 40
1.0
 10
-33.77510075213717
 20
-49.069547847446465
 30
0.0
 10
-33.880756823955025
 20
-49.133555574947806
 30
0.0
 10
-33.97328232678548
 20
-49.21764681721836
 30
0.0
  0
SPLINE
  5
51
330
17
100
AcDbEntity
  8
visible
100
AcDbSpline
 70
0
 71
2
 72
6
 73
3
 74
0
 40
0.0
 40
0.0
 40
0.0
 40
0.18796734690868203
 40
0.18796734690868203
 40
0.18796734690868203
 10
-33.5333280843037
 20
-49.69315265813743
 30
0.0
 10
-33.45762369328696
 20
-49.617134235500984
 30
0.0
 10
-33.367596107815075
 20
-49.56258680878963
 30
0.0
  0
SPLINE
  5
52
330
17
100
AcDbEntity
  8
visible
100
AcDbSpline
 70
0
 71
3
 72
8
 73
4
 74
0
 40
0.0
 40
0.0
 40
0.0
 40
0.0
 40
1.0
 40
1.0
 40
1.0
 40
1.0
 10
-33.36759610781507
 20
-49.56258680878963
 30
0.0
 10
-33.10839717272233
 20
-49.403351783961845
 30
0.0
 10
-32.76518452708496
 20
-49.40092344659757
 30
0.0
 10
-32.41344455798642
 20
-49.49439295838617
 30
0.0
  0
SPLINE
  5
53
330
17
100
AcDbEntity
  8
visible
100
AcDbSpline
 70
0
 71
3
 72
11
 73
7
 74
0
 40
0.0
 40
0.0
 40
0.0
 40
0.0
 40
0.6298555326701425
 40
0.6298555326701425
 40
0.6298555326701425
 40
1.0
 40
1.0
 40
1.0
 40
1.0
 10
-33.97328232678549
 20
-49.21764681721835
 30
0.0
 10
-34.22388491936811
 20
-49.442650542087165
 30
0.0
 10
-34.38690030364461
 20
-49.77194483014368
 30
0.0
 10
-34.464444043424926
 20
-50.14933513177135
 30
0.0
 10
-34.50962345014644
 20
-50.37241768859734
 30
0.0
 10
-34.5315978504094
 20
-50.606790521254695
 30
0.0
 10
-34.53036724421371
 20
-50.85245362974335
 30
0.0
  0
SPLINE
  5
54
330
17
100
AcDbEntity
  8
visible
100
AcDbSpline
 70
0
 71
3
 72
8
 73
4
 74
0
 40
0.0
 40
0.0
 40
0.0
 40
0.0
 40
1.0
 40
1.0
 40
1.0
 40
1.0
 10
-33.921859103638255
 20
-51.01119852514397
 30
0.0
 10
-33.92305978669306
 20
-50.48489814800774
 30
0.0
 10
-33.82547238512046
 20
-49.98417317776526
 30
0.0
 10
-33.533328084303704
 20
-49.69315265813743
 30
0.0
  0
SPLINE
  5
55
330
17
100
AcDbEntity
  8
visible
100
AcDbSpline
 70
0
 71
3
 72
11
 73
7
 74
0
 40
0.0
 40
0.0
 40
0.0
 40
0.0
 40
0.36781947571318296
 40
0.36781947571318296
 40
0.36781947571318296
 40
1.0
 40
1.0
 40
1.0
 40
1.0
 10
-34.53036724421371
 20
-50.85245362974335
 30
0.0
 10
-34.53156992290763
 20
-51.09552037794692
 30
0.0
 10
-34.50985029614695
 20
-51.33941212515528
 30
0.0
 10
-34.46520836393163
 20
-51.58412887136835
 30
0.0
 10
-34.38786121284472
 20
-52.00288037131443
 30
0.0
 10
-34.224493602270336
 20
-52.41818330149032
 30
0.0
 10
-33.97328232678548
 20
-52.77478330524011
 30
0.0
  0
SPLINE
  5
56
330
17
100
AcDbEntity
  8
visible
100
AcDbSpline
 70
0
 71
3
 72
8
 73
4
 74
0
 40
0.0
 40
0.0
 40
0.0
 40
0.0
 40
1.0
 40
1.0
 40
1.0
 40
1.0
 10
-33.533328084303704
 20
-52.52882407363272
 30
0.0
 10
-33.82506513900553
 20
-52.0861178229976
 30
0.0
 10
-33.92310686675531
 20
-51.535791743197194
 30
0.0
 10
-33.921859103638255
 20
-51.01119852514397
 30
0.0
  0
SPLINE
  5
57
330
17
100
AcDbEntity
  8
visible
100
AcDbSpline
 70
0
 71
3
 72
11
 73
7
 74
0
 40
0.0
 40
0.0
 40
0.0
 40
0.0
 40
0.45830463551269063
 40
0.45830463551269063
 40
0.45830463551269063
 40
1.0
 40
1.0
 40
1.0
 40
1.0
 10
-33.97328232678548
 20
-52.774783305240106
 30
0.0
 10
-33.79848800784341
 20
-53.025495731769986
 30
0.0
 10
-33.58507375646251
 20
-53.24253316132749
 30
0.0
 10
-33.348221119243235
 20
-53.410696997320855
 30
0.0
 10
-33.06823743547812
 20
-53.610517640325206
 30
0.0
 10
-32.75935323200445
 20
-53.74258669104356
 30
0.0
 10
-32.44772670675124
 20
-53.82365043314563
 30
0.0
  0
SPLINE
  5
58
330
17
100
AcDbEntity
  8
visible
100
AcDbSpline
 70
0
 71
3
 72
11
 73
7
 74
0
 40
0.0
 40
0.0
 40
0.0
 40
0.0
 40
0.5601545193542434
 40
0.5601545193542434
 40
0.5601545193542434
 40
1.0
 40
1.0
 40
1.0
 40
1.0
 10
-32.41344455798642
 20
-53.31188423345009
 30
0.0
 10
-32.6564467751779
 20
-53.24867653627521
 30
0.0
 10
-32.894249087961555
 20
-53.145244497261274
 30
0.0
 10
-33.10443063471535
 20
-52.98794285199455
 30
0.0
 10
-33.271045919135794
 20
-52.86347044215216
 30
0.0
 10
-33.41401173566525
 20
-52.710430849364926
 30
0.0
 10
-33.53332808430369
 20
-52.52882407363272
 30
0.0
  0
SPLINE
  5
59
330
17
100
AcDbEntity
  8
visible
100
AcDbSpline
 70
0
 71
2
 72
6
 73
3
 74
0
 40
0.0
 40
0.0
 40
0.0
 40
1.0
 40
1.0
 40
1.0
 10
-32.44772670675124
 20
-53.82365043314563
 30
0.0
 10
-32.075599991204356
 20
-53.92148635134399
 30
0.0
 10
-31.73208685128574
 20
-53.89741840563743
 30
0.0
  0
SPLINE
  5
5A
330
17
100
AcDbEntity
  8
visible
100
AcDbSpline
 70
0
 71
2
 72
6
 73
3
 74
0
 40
0.0
 40
0.0
 40
0.0
 40
1.0
 40
1.0
 40
1.0
 10
-31.71208893117294
 20
-53.347420948651816
 30
0.0
 10
-32.04524686900831
 20
-53.408548402383445
 30
0.0
 10
-32.41344455798643
 20
-53.31188423345009
 30
0.0
  0
SPLINE
  5
5B
330
17
100
AcDbEntity
  8
visible
100
AcDbSpline
 70
0
 71
2
 72
6
 73
3
 74
0
 40
0.0
 40
0.0
 40
0.0
 40
1.0
 40
1.0
 40
1.0
 10
-31.732086851285743
 20
-53.89741840563743
 30
0.0
 10
-31.391219674644034
 20
-53.87215523593435
 30
0.0
 10
-31.090724984810677
 20
-53.72595913120615
 30
0.0
  0
SPLINE
  5
5C
330
17
100
AcDbEntity
  8
visible
100
AcDbSpline
 70
0
 71
2
 72
6
 73
3
 74
0
 40
0.0
 40
0.0
 40
0.0
 40
0.2539835933036398
 40
0.2539835933036398
 40
0.2539835933036398
 10
-31.090724984810677
 20
-53.06409334727971
 30
0.0
 10
-31.162564827259846
 20
-53.118870828519164
 30
0.0
 10
-31.23810954209177
 20
-53.16460476474108
 30
0.0
  0
SPLINE
  5
5D
330
17
100
AcDbEntity
  8
visible
100
AcDbSpline
 70
0
 71
2
 72
6
 73
3
 74
0
 40
0.0
 40
0.0
 40
0.0
 40
1.0
 40
1.0
 40
1.0
 10
-31.23810954209177
 20
-53.16460476474108
 30
0.0
 10
-31.46039883061808
 20
-53.29983987981615
 30
0.0
 10
-31.712088931172936
 20
-53.347420948651816
 30
0.0
  0
LINE
  5
5E
330
17
100
AcDbEntity
  8
visible
100
AcDbLine
 10
-31.090724984810677
 20
-53.064093347279716
 30
0.0
 11
-31.090724984810677
 21
-53.72595913120616
 31
0.0
  0
LINE
  5
5F
330
17
100
AcDbEntity
  8
visible
100
AcDbLine
 10
-30.72790557704972
 20
-54.181342379750504
 30
0.0
 11
-29.099503510721043
 21
-49.922903301121266
 31
0.0
  0
LINE
  5
60
330
17
100
AcDbEntity
  8
visible
100
AcDbLine
 10
-30.11939743647427
 20
-54.34008727515112
 30
0.0
 11
-30.72790557704972
 21
-54.18134237975051
 31
0.0
  0
LINE
  5
61
330
17
100
AcDbEntity
  8
visible
100
AcDbLine
 10
-29.099503510721046
 20
-49.922903301121266
 30
0.0
 11
-28.44528583845917
 21
-50.093572695706904
 31
0.0
  0
LINE
  5
62
330
17
100
AcDbEntity
  8
visible
100
AcDbLine
 10
-29.7308664171397
 20
-53.2400493322341
 30
0.0
 11
-30.119397436474262
 21
-54.34008727515112
 31
0.0
  0
LINE
  5
63
330
17
100
AcDbEntity
  8
visible
100
AcDbLine
 10
-28.44528583845917
 20
-50.0935726957069
 30
0.0
 11
-26.819740617860894
 21
-55.200887060069924
 31
0.0
  0
LINE
  5
64
330
17
100
AcDbEntity
  8
visible
100
AcDbLine
 10
-27.8082092405797
 20
-53.7416235792041
 30
0.0
 11
-29.7308664171397
 21
-53.2400493322341
 31
0.0
  0
LINE
  5
65
330
17
100
AcDbEntity
  8
visible
100
AcDbLine
 10
-26.819740617860894
 20
-55.20088706006993
 30
0.0
 11
-27.419678221245142
 21
-55.04437800826651
 31
0.0
  0
LINE
  5
66
330
17
100
AcDbEntity
  8
visible
100
AcDbLine
 10
-27.419678221245142
 20
-55.044378008266506
 30
0.0
 11
-27.808209240579707
 21
-53.7416235792041
 31
0.0
  0
LINE
  5
67
330
17
100
AcDbEntity
  8
visible
100
AcDbLine
 10
-28.30366795618657
 20
-62.57041246018838
 30
0.0
 11
-24.124510773428256
 21
-63.660652385676144
 31
0.0
  0
LINE
  5
68
330
17
100
AcDbEntity
  8
visible
100
AcDbLine
 10
-28.303667956186572
 20
-62.57041246018837
 30
0.0
 11
-28.303667956186572
 21
-65.3236307245378
 31
0.0
  0
LINE
  5
69
330
17
100
AcDbEntity
  8
visible
100
AcDbLine
 10
-24.124510773428256
 20
-63.66065238567614
 30
0.0
 11
-24.124510773428256
 21
-66.41387065002556
 31
0.0
  0
LINE
  5
6A
330
17
100
AcDbEntity
  8
visible
100
AcDbLine
 10
-28.30366795618657
 20
-65.3236307245378
 30
0.0
 11
-24.124510773428256
 21
-66.41387065002556
 31
0.0
  0
LINE
  5
6B
330
17
100
AcDbEntity
  8
visible
100
AcDbLine
 10
-19.94535359066994
 20
-64.75089231116391
 30
0.0
 11
-15.766196407911625
 21
-65.84113223665167
 31
0.0
  0
LINE
  5
6C
330
17
100
AcDbEntity
  8
visible
100
AcDbLine
 10
-19.945353590669946
 20
-64.75089231116391
 30
0.0
 11
-19.945353590669946
 21
-67.50411057551334
 31
0.0
  0
LINE
  5
6D
330
17
100
AcDbEntity
  8
visible
100
AcDbLine
 10
-15.76619640791163
 20
-65.84113223665167
 30
0.0
 11
-15.76619640791163
 21
-68.5943505010011
 31
0.0
  0
LINE
  5
6E
330
17
100
AcDbEntity
  8
visible
100
AcDbLine
 10
-19.94535359066994
 20
-67.50411057551334
 30
0.0
 11
-15.766196407911625
 21
-68.5943505010011
 31
0.0
  0
LINE
  5
6F
330
17
100
AcDbEntity
  8
visible
100
AcDbLine
 10
-11.587039225153315
 20
-66.93137216213945
 30
0.0
 11
-7.407882042395002
 21
-68.02161208762722
 31
0.0
  0
LINE
  5
70
330
17
100
AcDbEntity
  8
visible
100
AcDbLine
 10
-7.407882042395002
 20
-68.0216120876272
 30
0.0
 11
-7.407882042395002
 21
-70.77483035197663
 31
0.0
  0
LINE
  5
71
330
17
100
AcDbEntity
  8
visible
100
AcDbLine
 10
-11.587039225153315
 20
-69.68459042648887
 30
0.0
 11
-7.407882042395002
 21
-70.77483035197663
 31
0.0
  0
LINE
  5
72
330
17
100
AcDbEntity
  8
visible
100
AcDbLine
 10
-11.587039225153317
 20
-66.93137216213944
 30
0.0
 11
-11.587039225153317
 21
-69.68459042648887
 31
0.0
  0
LINE
  5
73
330
17
100
AcDbEntity
  8
visible
100
AcDbLine
 10
-26.196948248633436
 20
-55.36335836146585
 30
0.0
 11
-26.196948248633436
 21
-50.680108999370184
 31
0.0
  0
LINE
  5
74
330
17
100
AcDbEntity
  8
visible
100
AcDbLine
 10
-25.637006485474796
 20
-55.509433476482386
 30
0.0
 11
-26.19694824863343
 21
-55.363358361465856
 31
0.0
  0
LINE
  5
75
330
17
100
AcDbEntity
  8
visible
100
AcDbLine
 10
-26.19694824863343
 20
-50.68010899937019
 30
0.0
 11
-25.337037683782672
 21
-50.904438640288426
 31
0.0
  0
LINE
  5
76
330
17
100
AcDbEntity
  8
visible
100
AcDbLine
 10
-25.637006485474803
 20
-51.39708256308157
 30
0.0
 11
-25.637006485474803
 21
-55.509433476482386
 31
0.0
  0
LINE
  5
77
330
17
100
AcDbEntity
  8
visible
100
AcDbLine
 10
-25.33703768378268
 20
-50.90443864028843
 30
0.0
 11
-24.248579460499826
 21
-54.37538431490083
 31
0.0
  0
LINE
  5
78
330
17
100
AcDbEntity
  8
visible
100
AcDbLine
 10
-24.537120879270347
 20
-54.8961037997955
 30
0.0
 11
-25.637006485474807
 21
-51.39708256308157
 31
0.0
  0
LINE
  5
79
330
17
100
AcDbEntity
  8
visible
100
AcDbLine
 10
-24.24857946049982
 20
-54.37538431490082
 30
0.0
 11
-23.154407545756165
 21
-51.473833476373244
 31
0.0
  0
LINE
  5
7A
330
17
100
AcDbEntity
  8
visible
100
AcDbLine
 10
-23.957181195998896
 20
-55.04739588320546
 30
0.0
 11
-24.53712087927034
 21
-54.89610379979549
 31
0.0
  0
LINE
  5
7B
330
17
100
AcDbEntity
  8
visible
100
AcDbLine
 10
-23.154407545756168
 20
-51.473833476373244
 30
0.0
 11
-22.294496980905407
 21
-51.698163117291486
 31
0.0
  0
LINE
  5
7C
330
17
100
AcDbEntity
  8
visible
100
AcDbLine
 10
-22.857295589794447
 20
-52.12224116977073
 30
0.0
 11
-23.957181195998906
 21
-55.04739588320545
 31
0.0
  0
LINE
  5
7D
330
17
100
AcDbEntity
  8
visible
100
AcDbLine
 10
-22.29449698090541
 20
-51.69816311729148
 30
0.0
 11
-22.29449698090541
 21
-56.381412479387144
 31
0.0
  0
LINE
  5
7E
330
17
100
AcDbEntity
  8
visible
100
AcDbLine
 10
-22.857295589794443
 20
-56.234592083171556
 30
0.0
 11
-22.857295589794443
 21
-52.122241169770746
 31
0.0
  0
LINE
  5
7F
330
17
100
AcDbEntity
  8
visible
100
AcDbLine
 10
-22.294496980905404
 20
-56.38141247938715
 30
0.0
 11
-22.85729558979444
 21
-56.23459208317156
 31
0.0
  0
LINE
  5
80
330
17
100
AcDbEntity
  8
visible
100
AcDbLine
 10
-20.026161470966862
 20
-54.473132434906546
 30
0.0
 11
-21.354594735603413
 21
-51.943360631783506
 31
0.0
  0
LINE
  5
81
330
17
100
AcDbEntity
  8
visible
100
AcDbLine
 10
-21.548860245270696
 20
-56.57593087234282
 30
0.0
 11
-20.026161470966862
 21
-54.473132434906546
 31
0.0
  0
LINE
  5
82
330
17
100
AcDbEntity
  8
visible
100
AcDbLine
 10
-21.35459473560341
 20
-51.943360631783506
 30
0.0
 11
-20.73465921210635
 21
-52.10508665198037
 31
0.0
  0
LINE
  5
83
330
17
100
AcDbEntity
  8
visible
100
AcDbLine
 10
-20.926067876043234
 20
-56.73840217373876
 30
0.0
 11
-21.548860245270692
 21
-56.57593087234283
 31
0.0
  0
LINE
  5
84
330
17
100
AcDbEntity
  8
visible
100
AcDbLine
 10
-20.73465921210635
 20
-52.10508665198037
 30
0.0
 11
-19.67476944612751
 21
-54.12251256488606
 31
0.0
  0
LINE
  5
85
330
17
100
AcDbEntity
  8
visible
100
AcDbLine
 10
-19.717622132083527
 20
-55.06178515983713
 30
0.0
 11
-20.92606787604323
 21
-56.73840217373876
 31
0.0
  0
LINE
  5
86
330
17
100
AcDbEntity
  8
visible
100
AcDbLine
 10
-19.674769446127513
 20
-54.12251256488605
 30
0.0
 11
-18.60916598868787
 21
-52.65957586408391
 31
0.0
  0
LINE
  5
87
330
17
100
AcDbEntity
  8
visible
100
AcDbLine
 10
-18.51774692531503
 20
-57.366674224549634
 30
0.0
 11
-19.71762213208353
 21
-55.061785159837136
 31
0.0
  0
LINE
  5
88
330
17
100
AcDbEntity
  8
visible
100
AcDbLine
 10
-18.60916598868787
 20
-52.65957586408392
 30
0.0
 11
-17.989230465190815
 21
-52.821301884280786
 31
0.0
  0
LINE
  5
89
330
17
100
AcDbEntity
  8
visible
100
AcDbLine
 10
-17.89781140181797
 20
-57.52840024474649
 30
0.0
 11
-18.517746925315027
 21
-57.36667422454963
 31
0.0
  0
LINE
  5
8A
330
17
100
AcDbEntity
  8
visible
100
AcDbLine
 10
-17.989230465190808
 20
-52.82130188428078
 30
0.0
 11
-19.36051641578338
 21
-54.71265585221476
 31
0.0
  0
LINE
  5
8B
330
17
100
AcDbEntity
  8
visible
100
AcDbLine
 10
-19.360516415783383
 20
-54.712655852214766
 30
0.0
 11
-17.897811401817975
 21
-57.52840024474649
 31
0.0
  0
LINE
  5
8C
330
17
100
AcDbEntity
  8
visible
100
AcDbLine
 10
-62.731065856720306
 20
-51.02454917949197
 30
0.0
 11
-52.960695334460624
 21
-53.57339995594105
 31
0.0
  0
LINE
  5
8D
330
17
100
AcDbEntity
  8
visible
100
AcDbLine
 10
54.0065140325762
 20
-61.05814918881989
 30
0.0
 11
54.0065140325762
 21
-33.342418661035765
 31
0.0
  0
LINE
  5
8E
330
17
100
AcDbEntity
  8
visible
100
AcDbLine
 10
22.16531644617009
 20
-80.31287651075155
 30
0.0
 11
22.16531644617009
 21
-52.59714598296742
 31
0.0
  0
LINE
  5
8F
330
17
100
AcDbEntity
  8
visible
100
AcDbLine
 10
54.0065140325762
 20
-61.05814918881989
 30
0.0
 11
22.16531644617008
 21
-80.31287651075155
 31
0.0
  0
LINE
  5
90
330
17
100
AcDbEntity
  8
visible
100
AcDbLine
 10
48.40685514669099
 20
-44.71292781185085
 30
0.0
 11
36.548753976581125
 21
-51.88365384898402
 31
0.0
  0
LINE
  5
91
330
17
100
AcDbEntity
  8
visible
100
AcDbLine
 10
48.40685514669099
 20
-44.71292781185084
 30
0.0
 11
48.40685514669099
 21
-52.605486836319166
 31
0.0
  0
LINE
  5
92
330
17
100
AcDbEntity
  8
visible
100
AcDbLine
 10
36.548753976581125
 20
-51.88365384898402
 30
0.0
 11
36.548753976581125
 21
-59.776212873452344
 31
0.0
  0
LINE
  5
93
330
17
100
AcDbEntity
  8
visible
100
AcDbLine
 10
48.40685514669099
 20
-52.60548683631917
 30
0.0
 11
36.548753976581125
 21
-59.776212873452344
 31
0.0
  0
ELLIPSE
  5
94
330
17
100
AcDbEntity
  8
visible
100
AcDbEllipse
 10
26.008219603150135
 20
-66.79260916814114
 30
0.0
 11
-0.7572819553776586
 21
-2.9028475743757873
 31
0.0
 40
0.503826245710643
 41
0.47777710346995755
 42
3.1415926535897936
  0
ELLIPSE
  5
95
330
17
100
AcDbEntity
  8
visible
100
AcDbEllipse
 10
26.008219603150135
 20
-66.79260916814114
 30
0.0
 11
-0.7572819553776586
 21
-2.9028475743757873
 31
0.0
 40
0.503826245710643
 41
3.1415926535897936
 42
6.283185307179586
  0
ELLIPSE
  5
96
330
17
100
AcDbEntity
  8
visible
100
AcDbEllipse
 10
26.008219603150135
 20
-66.79260916814114
 30
0.0
 11
-0.7572819553776586
 21
-2.9028475743757873
 31
0.0
 40
0.503826245710643
 41
0.0
 42
0.4777771034699576
  0
LINE
  5
97
330
17
100
AcDbEntity
  8
visible
100
AcDbLine
 10
-43.37333819137123
 20
-58.63910396044701
 30
0.0
 11
-43.37333819137123
 21
-59.96673685076268
 31
0.0
  0
LINE
  5
98
330
17
100
AcDbEntity
  8
visible
100
AcDbLine
 10
-45.020296687219826
 20
-60.962671022586726
 30
0.0
 11
-43.37333819137123
 21
-59.96673685076267
 31
0.0
  0
LINE
  5
99
330
17
100
AcDbEntity
  8
visible
100
AcDbLine
 10
-43.37333819137124
 20
-59.96673685076268
 30
0.0
 11
-40.84113950446151
 21
-60.627325574040746
 31
0.0
  0
LINE
  5
9A
330
17
100
AcDbEntity
  8
visible
100
AcDbLine
 10
-35.015023825854605
 20
-60.81958381142255
 30
0.0
 11
-35.015023825854605
 21
-62.147216701738216
 31
0.0
  0
LINE
  5
9B
330
17
100
AcDbEntity
  8
visible
100
AcDbLine
 10
-36.6619823217032
 20
-63.143150873562256
 30
0.0
 11
-35.015023825854605
 21
-62.1472167017382
 31
0.0
  0
LINE
  5
9C
330
17
100
AcDbEntity
  8
visible
100
AcDbLine
 10
-35.015023825854605
 20
-62.14721670173821
 30
0.0
 11
-32.48282513894488
 21
-62.80780542501628
 31
0.0
  0
SPLINE
  5
9D
330
17
100
AcDbEntity
  8
visible
100
AcDbSpline
 70
0
 71
2
 72
6
 73
3
 74
0
 40
0.0
 40
0.0
 40
0.0
 40
1.0
 40
1.0
 40
1.0
 10
-31.090724984810677
 20
-49.86688741212036
 30
0.0
 10
-31.232727658811214
 20
-49.731732801458314
 30
0.0
 10
-31.382697232003217
 20
-49.62560247756
 30
0.0
  0
SPLINE
  5
9E
330
17
100
AcDbEntity
  8
visible
100
AcDbSpline
 70
0
 71
2
 72
6
 73
3
 74
0
 40
0.0
 40
0.0
 40
0.0
 40
1.0
 40
1.0
 40
1.0
 10
-31.382697232003217
 20
-49.62560247756
 30
0.0
 10
-31.712662913864552
 20
-49.39209267989967
 30
0.0
 10
-32.084052858816705
 20
-49.29520612402136
 30
0.0
  0
SPLINE
  5
9F
330
17
100
AcDbEntity
  8
visible
100
AcDbSpline
 70
0
 71
2
 72
6
 73
3
 74
0
 40
0.0
 40
0.0
 40
0.0
 40
0.03596616770768558
 40
0.03596616770768558
 40
0.03596616770768558
 10
-33.64389062761576
 20
-49.01845998285355
 30
0.0
 10
-33.62385441804812
 20
-49.000277030193914
 30
0.0
 10
-33.60328605413694
 20
-48.98307486833411
 30
0.0
  0
SPLINE
  5
A0
330
17
100
AcDbEntity
  8
visible
100
AcDbSpline
 70
0
 71
2
 72
6
 73
3
 74
0
 40
0.0
 40
0.0
 40
0.0
 40
0.8037169786273726
 40
0.8037169786273726
 40
0.8037169786273726
 10
-32.084052858816705
 20
-49.29520612402136
 30
0.0
 10
-32.6718532860404
 20
-49.14186336471527
 30
0.0
 10
-33.03820440854342
 20
-49.36339997459739
 30
0.0
  0
SPLINE
  5
A1
330
17
100
AcDbEntity
  8
visible
100
AcDbSpline
 70
0
 71
2
 72
6
 73
3
 74
0
 40
0.0
 40
0.0
 40
0.0
 40
1.0
 40
1.0
 40
1.0
 10
-34.20097554504399
 20
-50.65326679537854
 30
0.0
 10
-34.20097554504399
 20
-49.524017116641474
 30
0.0
 10
-33.64389062761576
 20
-49.01845998285355
 30
0.0
  0
SPLINE
  5
A2
330
17
100
AcDbEntity
  8
visible
100
AcDbSpline
 70
0
 71
2
 72
6
 73
3
 74
0
 40
0.0
 40
0.0
 40
0.0
 40
1.0
 40
1.0
 40
1.0
 10
-33.64389062761576
 20
-52.57559647087531
 30
0.0
 10
-34.20097554504399
 20
-51.77937966945245
 30
0.0
 10
-34.20097554504399
 20
-50.65326679537854
 30
0.0
  0
SPLINE
  5
A3
330
17
100
AcDbEntity
  8
visible
100
AcDbSpline
 70
0
 71
2
 72
6
 73
3
 74
0
 40
0.0
 40
0.0
 40
0.0
 40
1.0
 40
1.0
 40
1.0
 10
-32.11833500758152
 20
-53.62446359878082
 30
0.0
 10
-33.08680571018753
 20
-53.371813272298155
 30
0.0
 10
-33.64389062761576
 20
-52.57559647087531
 30
0.0
  0
SPLINE
  5
A4
330
17
100
AcDbEntity
  8
visible
100
AcDbSpline
 70
0
 71
2
 72
6
 73
3
 74
0
 40
0.0
 40
0.0
 40
0.0
 40
1.0
 40
1.0
 40
1.0
 10
-31.402695152116024
 20
-53.69823157127262
 30
0.0
 10
-31.741231371168563
 20
-53.72284071705726
 30
0.0
 10
-32.11833500758152
 20
-53.62446359878082
 30
0.0
  0
SPLINE
  5
A5
330
17
100
AcDbEntity
  8
visible
100
AcDbSpline
 70
0
 71
2
 72
6
 73
3
 74
0
 40
0.0
 40
0.0
 40
0.0
 40
1.0
 40
1.0
 40
1.0
 10
-31.090724984810677
 20
-53.647678194611984
 30
0.0
 10
-31.242723081072178
 20
-53.686602753449804
 30
0.0
 10
-31.402695152116024
 20
-53.69823157127262
 30
0.0
  0
LINE
  5
A6
330
17
100
AcDbEntity
  8
visible
100
AcDbLine
 10
-30.398513877880006
 20
-53.982155545385694
 30
0.0
 11
-28.869249226167476
 21
-49.98297101407319
 31
0.0
  0
LINE
  5
A7
330
17
100
AcDbEntity
  8
visible
100
AcDbLine
 10
-30.398513877880006
 20
-53.982155545385694
 30
0.0
 11
-30.727905577049725
 21
-54.181342379750504
 31
0.0
  0
LINE
  5
A8
330
17
100
AcDbEntity
  8
visible
100
AcDbLine
 10
-30.02719069485464
 20
-54.07902468470969
 30
0.0
 11
-30.398513877880003
 21
-53.9821555453857
 31
0.0
  0
LINE
  5
A9
330
17
100
AcDbEntity
  8
visible
100
AcDbLine
 10
-29.40147471796999
 20
-53.040862497869284
 30
0.0
 11
-29.73086641713971
 21
-53.24004933223409
 31
0.0
  0
LINE
  5
AA
330
17
100
AcDbEntity
  8
visible
100
AcDbLine
 10
-27.478817541409988
 20
-53.54243674483929
 30
0.0
 11
-29.40147471796999
 21
-53.040862497869284
 31
0.0
  0
LINE
  5
AB
330
17
100
AcDbEntity
  8
visible
100
AcDbLine
 10
-27.478817541409988
 20
-53.54243674483929
 30
0.0
 11
-27.808209240579707
 21
-53.7416235792041
 31
0.0
  0
LINE
  5
AC
330
17
100
AcDbEntity
  8
visible
100
AcDbLine
 10
-26.918704107188244
 20
-54.88995283062841
 30
0.0
 11
-27.090286522075427
 21
-54.845191173901696
 31
0.0
  0
LINE
  5
AD
330
17
100
AcDbEntity
  8
visible
100
AcDbLine
 10
-27.090286522075427
 20
-54.845191173901696
 30
0.0
 11
-27.419678221245146
 21
-55.044378008266506
 31
0.0
  0
LINE
  5
AE
330
17
100
AcDbEntity
  8
visible
100
AcDbLine
 10
-27.090286522075427
 20
-54.845191173901696
 30
0.0
 11
-27.478817541409988
 21
-53.54243674483929
 31
0.0
  0
LINE
  5
AF
330
17
100
AcDbEntity
  8
visible
100
AcDbLine
 10
-26.65670946033798
 20
-63.00006366239808
 30
0.0
 11
-26.65670946033798
 21
-64.32769655271375
 31
0.0
  0
LINE
  5
B0
330
17
100
AcDbEntity
  8
visible
100
AcDbLine
 10
-28.30366795618657
 20
-65.3236307245378
 30
0.0
 11
-26.65670946033798
 21
-64.32769655271373
 31
0.0
  0
LINE
  5
B1
330
17
100
AcDbEntity
  8
visible
100
AcDbLine
 10
-26.65670946033798
 20
-64.32769655271375
 30
0.0
 11
-24.124510773428252
 21
-64.98828527599181
 31
0.0
  0
LINE
  5
B2
330
17
100
AcDbEntity
  8
visible
100
AcDbLine
 10
-18.298395094821352
 20
-65.1805435133736
 30
0.0
 11
-18.298395094821352
 21
-66.50817640368928
 31
0.0
  0
LINE
  5
B3
330
17
100
AcDbEntity
  8
visible
100
AcDbLine
 10
-19.945353590669942
 20
-67.50411057551334
 30
0.0
 11
-18.298395094821352
 21
-66.50817640368928
 31
0.0
  0
LINE
  5
B4
330
17
100
AcDbEntity
  8
visible
100
AcDbLine
 10
-18.298395094821352
 20
-66.50817640368928
 30
0.0
 11
-15.766196407911625
 21
-67.16876512696734
 31
0.0
  0
LINE
  5
B5
330
17
100
AcDbEntity
  8
visible
100
AcDbLine
 10
-11.587039225153319
 20
-69.68459042648887
 30
0.0
 11
-9.940080729304725
 21
-68.6886562546648
 31
0.0
  0
LINE
  5
B6
330
17
100
AcDbEntity
  8
visible
100
AcDbLine
 10
-9.940080729304725
 20
-68.6886562546648
 30
0.0
 11
-7.4078820423949985
 21
-69.34924497794289
 31
0.0
  0
LINE
  5
B7
330
17
100
AcDbEntity
  8
visible
100
AcDbLine
 10
-9.940080729304727
 20
-67.36102336434915
 30
0.0
 11
-9.940080729304727
 21
-68.68865625466482
 31
0.0
  0
LINE
  5
B8
330
17
100
AcDbEntity
  8
visible
100
AcDbLine
 10
-25.867556549463718
 20
-55.16417152710105
 30
0.0
 11
-25.867556549463718
 21
-50.76603923981213
 31
0.0
  0
LINE
  5
B9
330
17
100
AcDbEntity
  8
visible
100
AcDbLine
 10
-25.867556549463718
 20
-55.16417152710105
 30
0.0
 11
-26.196948248633436
 21
-55.363358361465856
 31
0.0
  0
LINE
  5
BA
330
17
100
AcDbEntity
  8
visible
100
AcDbLine
 10
-25.637006485474803
 20
-55.22431640167564
 30
0.0
 11
-25.867556549463718
 21
-55.164171527101054
 31
0.0
  0
LINE
  5
BB
330
17
100
AcDbEntity
  8
visible
100
AcDbLine
 10
-25.307614786305084
 20
-51.19789572871676
 30
0.0
 11
-25.637006485474803
 21
-51.39708256308157
 31
0.0
  0
LINE
  5
BC
330
17
100
AcDbEntity
  8
visible
100
AcDbLine
 10
-23.919187761330104
 20
-54.17619748053602
 30
0.0
 11
-24.248579460499823
 21
-54.37538431490083
 31
0.0
  0
LINE
  5
BD
330
17
100
AcDbEntity
  8
visible
100
AcDbLine
 10
-24.207729180100625
 20
-54.69691696543068
 30
0.0
 11
-25.307614786305084
 21
-51.19789572871676
 31
0.0
  0
LINE
  5
BE
330
17
100
AcDbEntity
  8
visible
100
AcDbLine
 10
-24.207729180100625
 20
-54.69691696543068
 30
0.0
 11
-24.537120879270343
 21
-54.89610379979549
 31
0.0
  0
LINE
  5
BF
330
17
100
AcDbEntity
  8
visible
100
AcDbLine
 10
-23.919187761330104
 20
-54.17619748053602
 30
0.0
 11
-22.92290342996881
 21
-51.534227239734776
 31
0.0
  0
LINE
  5
C0
330
17
100
AcDbEntity
  8
visible
100
AcDbLine
 10
-23.859551190501996
 20
-54.78774808970678
 30
0.0
 11
-24.207729180100625
 21
-54.69691696543068
 31
0.0
  0
LINE
  5
C1
330
17
100
AcDbEntity
  8
visible
100
AcDbLine
 10
-22.527903890624724
 20
-51.923054335405936
 30
0.0
 11
-22.857295589794443
 21
-52.122241169770746
 31
0.0
  0
LINE
  5
C2
330
17
100
AcDbEntity
  8
visible
100
AcDbLine
 10
-22.527903890624724
 20
-56.035405248806754
 30
0.0
 11
-22.527903890624724
 21
-51.923054335405936
 31
0.0
  0
LINE
  5
C3
330
17
100
AcDbEntity
  8
visible
100
AcDbLine
 10
-22.527903890624724
 20
-56.035405248806754
 30
0.0
 11
-22.857295589794443
 21
-56.23459208317156
 31
0.0
  0
LINE
  5
C4
330
17
100
AcDbEntity
  8
visible
100
AcDbLine
 10
-22.29449698090541
 20
-56.0962954045804
 30
0.0
 11
-22.527903890624724
 21
-56.035405248806754
 31
0.0
  0
LINE
  5
C5
330
17
100
AcDbEntity
  8
visible
100
AcDbLine
 10
-19.696769771797143
 20
-54.273945600541744
 30
0.0
 11
-20.85171630924528
 21
-52.0745493174697
 31
0.0
  0
LINE
  5
C6
330
17
100
AcDbEntity
  8
visible
100
AcDbLine
 10
-19.696769771797143
 20
-54.273945600541744
 30
0.0
 11
-20.026161470966862
 21
-54.47313243490655
 31
0.0
  0
LINE
  5
C7
330
17
100
AcDbEntity
  8
visible
100
AcDbLine
 10
-21.219468546100977
 20
-56.376744037978014
 30
0.0
 11
-19.696769771797143
 21
-54.27394560054174
 31
0.0
  0
LINE
  5
C8
330
17
100
AcDbEntity
  8
visible
100
AcDbLine
 10
-21.219468546100977
 20
-56.376744037978014
 30
0.0
 11
-21.548860245270696
 21
-56.57593087234282
 31
0.0
  0
LINE
  5
C9
330
17
100
AcDbEntity
  8
visible
100
AcDbLine
 10
-20.753090548541454
 20
-56.49841065425322
 30
0.0
 11
-21.219468546100977
 21
-56.376744037978014
 31
0.0
  0
LINE
  5
CA
330
17
100
AcDbEntity
  8
visible
100
AcDbLine
 10
-19.345377746957798
 20
-53.923325730521256
 30
0.0
 11
-19.674769446127517
 21
-54.122512564886065
 31
0.0
  0
LINE
  5
CB
330
17
100
AcDbEntity
  8
visible
100
AcDbLine
 10
-19.388230432913815
 20
-54.86259832547232
 30
0.0
 11
-19.717622132083534
 21
-55.06178515983713
 31
0.0
  0
LINE
  5
CC
330
17
100
AcDbEntity
  8
visible
100
AcDbLine
 10
-19.345377746957798
 20
-53.923325730521256
 30
0.0
 11
-18.454291551058134
 21
-52.69997881806661
 31
0.0
  0
LINE
  5
CD
330
17
100
AcDbEntity
  8
visible
100
AcDbLine
 10
-18.188355226145315
 20
-57.16748739018482
 30
0.0
 11
-19.388230432913815
 21
-54.86259832547232
 31
0.0
  0
LINE
  5
CE
330
17
100
AcDbEntity
  8
visible
100
AcDbLine
 10
-18.188355226145315
 20
-57.16748739018482
 30
0.0
 11
-18.517746925315034
 21
-57.36667422454963
 31
0.0
  0
LINE
  5
CF
330
17
100
AcDbEntity
  8
visible
100
AcDbLine
 10
-18.069140362595736
 20
-57.198587633193036
 30
0.0
 11
-18.188355226145315
 21
-57.16748739018482
 31
0.0
  0
ELLIPSE
  5
D0
330
17
100
AcDbEntity
  8
visible
100
AcDbEllipse
 10
43.97653679395625
 20
-29.62455553412535
 30
0.0
 11
12.0
 21
3.6292099870939615e-16
 31
0.0
 40
0.39718302370189007
 41
5.702034518699754
 42
6.283185307179586
  0
LINE
  5
D1
330
17
100
AcDbEntity
  8
visible
100
AcDbLine
 10
54.0065140325762
 20
-32.24113135529599
 30
0.0
 11
22.16531644617009
 21
-51.49585867722765
 31
0.0
  0
ELLIPSE
  5
D2
330
17
100
AcDbEntity
  8
visible
100
AcDbEllipse
 10
12.135339207550134
 20
-48.87928285605701
 30
0.0
 11
12.0
 21
3.6292099870939615e-16
 31
0.0
 40
0.39718302370189007
 41
4.131238191904857
 42
5.702034518699754
  0
LINE
  5
D3
330
17
100
AcDbEntity
  8
visible
100
AcDbLine
 10
-57.9756839537706
 20
-36.29137267593915
 30
0.0
 11
5.5475052241557705
 21
-52.86301954335322
 31
0.0
  0
ELLIPSE
  5
D4
330
17
100
AcDbEntity
  8
visible
100
AcDbEllipse
 10
-51.38784997037623
 20
-32.30763598864294
 30
0.0
 11
12.0
 21
3.6292099870939615e-16
 31
0.0
 40
0.39718302370189007
 41
3.141592653589793
 42
4.131238191904857
  0
LINE
  5
D5
330
17
100
AcDbEntity
  8
visible
100
AcDbLine
 10
47.92161347126375
 20
-52.47889914771919
 30
0.0
 11
48.40685514669099
 21
-52.605486836319166
 31
0.0
  0
ELLIPSE
  5
D6
330
17
100
AcDbEntity
  8
visible
100
AcDbEllipse
 10
23.500725293495147
 20
-66.13846521284847
 30
0.0
 11
-0.7572819553776586
 21
-2.9028475743757873
 31
0.0
 40
0.503826245710643
 41
1.0298950635162107
 42
2.1116975900735833
  0
LINE
  5
D7
330
17
100
AcDbEntity
  8
visible
100
AcDbLine
 10
-7.407882042395002
 20
-68.44054732348982
 30
0.0
 11
-7.794505548261533
 21
-68.33968670404083
 31
0.0
  0
LINE
  5
D8
330
17
100
AcDbEntity
  8
visible
100
AcDbLine
 10
-7.794505548261535
 20
-68.33968670404083
 30
0.0
 11
-7.407882042395002
 21
-68.10589115783036
 31
0.0
  0
LINE
  5
D9
330
17
100
AcDbEntity
  8
visible
100
AcDbLine
 10
-27.658798822425265
 20
-52.96850084588763
 30
0.0
 11
-28.44443139828559
 21
-50.43290265141828
 31
0.0
  0
LINE
  5
DA
330
17
100
AcDbEntity
  8
visible
100
AcDbLine
 10
24.633572053040037
 20
-66.10748895440965
 30
0.0
 11
25.034873885636976
 21
-66.21217879040664
 31
0.0
  0
LINE
  5
DB
330
17
100
AcDbEntity
  8
visible
100
AcDbLine
 10
-28.44443139828559
 20
-50.43290265141829
 30
0.0
 11
-28.77382309745531
 21
-50.6320894857831
 31
0.0
  0
LINE
  5
DC
330
17
100
AcDbEntity
  8
visible
100
AcDbLine
 10
-27.988190521594976
 20
-53.16768768025244
 30
0.0
 11
-28.773823097455303
 21
-50.63208948578309
 31
0.0
  0
LINE
  5
DD
330
17
100
AcDbEntity
  8
visible
100
AcDbLine
 10
-27.658798822425265
 20
-52.96850084588763
 30
0.0
 11
-27.988190521594984
 21
-53.16768768025244
 31
0.0
  0
LINE
  5
DE
330
17
100
AcDbEntity
  8
visible
100
AcDbLine
 10
-28.773823097455303
 20
-50.63208948578309
 30
0.0
 11
-29.55659882758523
 21
-52.75852830196636
 31
0.0
  0
LINE
  5
DF
330
17
100
AcDbEntity
  8
visible
100
AcDbLine
 10
-29.55659882758523
 20
-52.758528301966365
 30
0.0
 11
-27.988190521594976
 21
-53.16768768025245
 31
0.0
  0
ELLIPSE
  5
E0
330
17
100
AcDbEntity
  8
visible
100
AcDbEllipse
 10
-46.073663891170085
 20
-25.888118682401995
 30
0.0
 11
3.2
 21
9.677893298917231e-17
 31
0.0
 40
0.39718302370189007
 41
2.3836867166028126
 42
3.141592653589793
  0
ELLIPSE
  5
E1
330
17
100
AcDbEntity
  8
visible
100
AcDbEllipse
 10
-46.073663891170085
 20
-25.888118682401995
 30
0.0
 11
3.2
 21
9.677893298917231e-17
 31
0.0
 40
0.39718302370189007
 41
3.141592653589793
 42
4.4753376305844945
  0
ELLIPSE
  5
E2
330
17
100
AcDbEntity
  8
visible
100
AcDbEllipse
 10
4.076222301929672
 20
-38.970997788255204
 30
0.0
 11
3.2
 21
9.677893298917231e-17
 31
0.0
 40
0.39718302370189007
 41
5.702034518699754
 42
6.283185307179586
  0
ELLIPSE
  5
E3
330
17
100
AcDbEntity
  8
visible
100
AcDbEllipse
 10
4.076222301929672
 20
-38.970997788255204
 30
0.0
 11
3.2
 21
9.677893298917231e-17
 31
0.0
 40
0.39718302370189007
 41
0.0
 42
0.1921267349289093
  0
ELLIPSE
  5
E4
330
17
100
AcDbEntity
  8
visible
100
AcDbEllipse
 10
4.076222301929672
 20
-38.970997788255204
 30
0.0
 11
3.2
 21
9.677893298917231e-17
 31
0.0
 40
0.39718302370189007
 41
3.293435192702627
 42
5.702034518699754
  0
ELLIPSE
  5
E5
330
17
100
AcDbEntity
  8
visible
100
AcDbEllipse
 10
-46.073663891170085
 20
-27.7235975253016
 30
0.0
 11
3.2
 21
9.677893298917231e-17
 31
0.0
 40
0.39718302370189007
 41
1.9699077192325751
 42
2.33480425100415
  0
ELLIPSE
  5
E6
330
17
100
AcDbEntity
  8
visible
100
AcDbEllipse
 10
4.076222301929672
 20
-40.80647663115481
 30
0.0
 11
3.2
 21
9.677893298917231e-17
 31
0.0
 40
0.39718302370189007
 41
0.8067884025856469
 42
2.3348042510041456
  0
ELLIPSE
  5
E7
330
17
100
AcDbEntity
  8
visible
100
AcDbEllipse
 10
4.076222301929672
 20
-40.80647663115481
 30
0.0
 11
1.65
 21
4.990163732254197e-17
 31
0.0
 40
0.39718302370189007
 41
1.1371239148013317
 42
2.0044687387884617
  0
ELLIPSE
  5
E8
330
17
100
AcDbEntity
  8
visible
100
AcDbEllipse
 10
19.821145521510232
 20
-19.45262567506669
 30
0.0
 11
-5.0
 21
-1.5121708279558175e-16
 31
0.0
 40
0.39718302370189007
 41
-5.293539768864522
 42
-3.7227434420696257
  0
ELLIPSE
  5
E9
330
17
100
AcDbEntity
  8
visible
100
AcDbEllipse
 10
17.5154036273222
 20
-20.846933515620364
 30
0.0
 11
-0.20194185476737583
 21
-0.7740926865002099
 31
0.0
 40
0.5038262457106429
 41
5.190166083854647
 42
6.25560190036539
  0
ELLIPSE
  5
EA
330
17
100
AcDbEntity
  8
visible
100
AcDbEllipse
 10
23.331637555027214
 20
-20.36842721247642
 30
0.0
 11
-0.41396554366777655
 21
0.6845674025659142
 31
0.0
 40
0.7670754590104828
 41
3.141592653589793
 42
4.044802454112045
  0
LINE
  5
EB
330
17
100
AcDbEntity
  8
visible
100
AcDbLine
 10
17.07621469509591
 20
-21.11251596144011
 30
0.0
 11
13.732888948889256
 21
-20.240324021049894
 31
0.0
  0
ELLIPSE
  5
EC
330
17
100
AcDbEntity
  8
visible
100
AcDbEllipse
 10
14.172077881115555
 20
-19.974741575230148
 30
0.0
 11
-0.20194185476737583
 21
-0.7740926865002099
 31
0.0
 40
0.5038262457106429
 41
5.190166083854647
 42
6.255601900365364
  0
LINE
  5
ED
330
17
100
AcDbEntity
  8
visible
100
AcDbLine
 10
40.469887662754466
 20
-10.58352388231394
 30
0.0
 11
24.000302704268545
 21
-20.542865600554457
 31
0.0
  0
ELLIPSE
  5
EE
330
17
100
AcDbEntity
  8
visible
100
AcDbEllipse
 10
39.80122251351314
 20
-10.409085494235896
 30
0.0
 11
-0.4139655436677774
 21
0.6845674025659136
 31
0.0
 40
0.7670754590104856
 41
3.1415926535897922
 42
4.044802454112044
  0
ELLIPSE
  5
EF
330
17
100
AcDbEntity
  8
visible
100
AcDbEllipse
 10
16.47781977530358
 20
-18.580433734676475
 30
0.0
 11
-5.0
 21
-3.024341655911636e-16
 31
0.0
 40
0.3971830237018901
 41
-6.283185307179586
 42
-5.293539768864522
  0
ELLIPSE
  5
F0
330
17
100
AcDbEntity
  8
visible
100
AcDbEllipse
 10
36.29073047999615
 20
-9.493283956826176
 30
0.0
 11
-5.0
 21
-3.024341655911636e-16
 31
0.0
 40
0.3971830237018901
 41
-3.722743442069626
 42
-3.141592653589793
  0
SPLINE
  5
F1
330
17
100
AcDbEntity
  8
visible
100
AcDbSpline
 70
0
 71
3
 72
8
 73
4
 74
0
 40
0.0
 40
0.0
 40
0.0
 40
0.0
 40
0.7235244618992702
 40
0.7235244618992702
 40
0.7235244618992702
 40
0.7235244618992702
 10
15.602280803965625
 20
-12.646854996995884
 30
0.0
 10
15.869463164827488
 20
-12.718556980304404
 30
0.0
 10
16.25428813895971
 20
-12.69928797933632
 30
0.0
 10
16.531386522512932
 20
-12.614221581993775
 30
0.0
  0
LINE
  5
F2
330
17
100
AcDbEntity
  8
visible
100
AcDbLine
 10
15.602281305464487
 20
-12.64685512782468
 30
0.0
 11
12.3040861685947
 21
-11.78643665993357
 31
0.0
  0
SPLINE
  5
F3
330
17
100
AcDbEntity
  8
visible
100
AcDbSpline
 70
0
 71
2
 72
6
 73
3
 74
0
 40
0.0
 40
0.0
 40
0.0
 40
1.0
 40
1.0
 40
1.0
 10
11.96111464549135
 20
-11.754736952378844
 30
0.0
 10
12.110195237835136
 20
-11.736832316563703
 30
0.0
 10
12.304086168594706
 20
-11.786436659933578
 30
0.0
  0
SPLINE
  5
F4
330
17
100
AcDbEntity
  8
visible
100
AcDbSpline
 70
0
 71
2
 72
6
 73
3
 74
0
 40
0.0
 40
0.0
 40
0.0
 40
0.43481364950561385
 40
0.43481364950561385
 40
0.43481364950561385
 10
11.961114645491392
 20
-11.754736952378877
 30
0.0
 10
11.791235233544052
 20
-11.776745210092292
 30
0.0
 10
11.784749902566826
 20
-11.788777824794803
 30
0.0
  0
SPLINE
  5
F5
330
17
100
AcDbEntity
  8
visible
100
AcDbSpline
 70
0
 71
1
 72
4
 73
2
 74
0
 40
0.0
 40
0.0
 40
1.0
 40
1.0
 10
11.784749902566826
 20
-11.788777824794803
 30
0.0
 10
11.784563950705657
 20
-11.790907910886734
 30
0.0
  0
ELLIPSE
  5
F6
330
17
100
AcDbEntity
  8
visible
100
AcDbEllipse
 10
-3.7056565882099903
 20
-20.50386635685637
 30
0.0
 11
46.0
 21
2.7823943234387053e-15
 31
0.0
 40
0.39718302370189024
 41
3.141592653589793
 42
6.283185307179586
  0
ELLIPSE
  5
F7
330
17
100
AcDbEntity
  8
visible
100
AcDbEllipse
 10
-3.7056565882099903
 20
-7.563740514414107
 30
0.0
 11
-46.0
 21
-0.0
 31
0.0
 40
0.39718302370189007
 41
-6.283185307179586
 42
-3.1415926535897922
  0
ELLIPSE
  5
F8
330
17
100
AcDbEntity
  8
visible
100
AcDbEllipse
 10
-3.7056565882099903
 20
-6.829548977254262
 30
0.0
 11
-45.2
 21
-2.7340048569441187e-15
 31
0.0
 40
0.39718302370189
 41
-6.449731342013781
 42
-4.132830890974317
  0
SPLINE
  5
F9
330
17
100
AcDbEntity
  8
visible
100
AcDbSpline
 70
0
 71
2
 72
6
 73
3
 74
0
 40
0.0
 40
0.0
 40
0.0
 40
1.0
 40
1.0
 40
1.0
 10
21.945230406611685
 20
-21.71100137962237
 30
0.0
 10
21.508402263169614
 20
-21.801536870557115
 30
0.0
 10
21.048315131687925
 20
-21.850635401398478
 30
0.0
  0
ELLIPSE
  5
FA
330
17
100
AcDbEntity
  8
visible
100
AcDbEllipse
 10
-3.7056565882099903
 20
-6.829548977254262
 30
0.0
 11
-45.2
 21
-2.7340048569441187e-15
 31
0.0
 40
0.39718302370189
 41
-4.0636846435134135
 42
-3.3821968141815115
  0
ELLIPSE
  5
FB
330
17
100
AcDbEntity
  8
visible
100
AcDbEllipse
 10
-3.7056565882099903
 20
-6.829548977254262
 30
0.0
 11
-45.2
 21
-2.7340048569441187e-15
 31
0.0
 40
0.39718302370189
 41
-3.2365462951106863
 42
-3.0466390120689
  0
ELLIPSE
  5
FC
330
17
100
AcDbEntity
  8
visible
100
AcDbEllipse
 10
19.821145521510232
 20
-20.095043270081554
 30
0.0
 11
-4.587298334620749
 21
-1.3873557441487603e-16
 31
0.0
 40
0.39718302370189007
 41
-5.293539768864522
 42
-4.441576210792912
  0
LINE
  5
FD
330
17
100
AcDbEntity
  8
visible
100
AcDbLine
 10
17.302782199778317
 20
-21.617925659348344
 30
0.0
 11
13.959456453571667
 21
-20.74573371895813
 31
0.0
  0
ELLIPSE
  5
FE
330
17
100
AcDbEntity
  8
visible
100
AcDbEllipse
 10
16.47781977530358
 20
-19.222851329691338
 30
0.0
 11
-4.587298334620749
 21
-2.7747114882975215e-16
 31
0.0
 40
0.3971830237018901
 41
-5.384979105046639
 42
-5.293539768864523
  0
ELLIPSE
  5
FF
330
17
100
AcDbEntity
  8
visible
100
AcDbEllipse
 10
-8.097545910472903
 20
-9.485373435451734
 30
0.0
 11
2.25
 21
6.804768725801178e-17
 31
0.0
 40
0.39718302370189007
 41
5.702034518699754
 42
6.283185307179586
  0
ELLIPSE
  5
100
330
17
100
AcDbEntity
  8
visible
100
AcDbEllipse
 10
-8.097545910472903
 20
-9.485373435451734
 30
0.0
 11
2.25
 21
6.804768725801178e-17
 31
0.0
 40
0.39718302370189007
 41
0.0
 42
3.141592653589793
  0
ELLIPSE
  5
101
330
17
100
AcDbEntity
  8
visible
100
AcDbEllipse
 10
-8.097545910472903
 20
-9.485373435451734
 30
0.0
 11
2.25
 21
6.804768725801178e-17
 31
0.0
 40
0.39718302370189007
 41
3.141592653589793
 42
5.702034518699754
  0
LINE
  5
102
330
17
100
AcDbEntity
  8
visible
100
AcDbLine
 10
32.49723607752557
 20
47.54154213250954
 30
0.0
 11
30.30129141639412
 21
46.213629903410805
 31
0.0
  0
ELLIPSE
  5
103
330
17
100
AcDbEntity
  8
visible
100
AcDbEllipse
 10
30.301291416394122
 20
29.694320317314308
 30
0.0
 11
4.543691732265956
 21
17.41708544625472
 31
0.0
 40
0.5038262457106429
 41
-5.805408203709629
 42
-4.234611876914732
  0
LINE
  5
104
330
17
100
AcDbEntity
  8
visible
100
AcDbLine
 10
20.419540441302566
 20
23.718715286369992
 30
0.0
 11
20.419540441302566
 21
20.04775760057077
 31
0.0
  0
LINE
  5
105
330
17
100
AcDbEntity
  8
visible
100
AcDbLine
 10
20.419540441302566
 20
20.04775760057077
 30
0.0
 11
20.419540441302566
 21
-6.107815910748691
 31
0.0
  0
ELLIPSE
  5
106
330
17
100
AcDbEntity
  8
visible
100
AcDbEllipse
 10
30.301291416394122
 20
-0.13221087980437574
 30
0.0
 11
4.543691732265956
 21
17.41708544625472
 31
0.0
 40
0.5038262457106429
 41
-4.234611876914732
 42
-3.6550275364963767
  0
SPLINE
  5
107
330
17
100
AcDbEntity
  8
visible
100
AcDbSpline
 70
0
 71
2
 72
6
 73
3
 74
0
 40
0.0
 40
0.0
 40
0.0
 40
1.0
 40
1.0
 40
1.0
 10
22.033325546185623
 20
-14.179174854080609
 30
0.0
 10
21.863022244177596
 20
-14.09984814422011
 30
0.0
 10
21.71015739931652
 20
-14.0594999971634
 30
0.0
  0
LINE
  5
108
330
17
100
AcDbEntity
  8
visible
100
AcDbLine
 10
21.71015739931651
 20
-14.05949999716341
 30
0.0
 11
16.83035438132903
 21
-12.786478704574874
 31
0.0
  0
SPLINE
  5
109
330
17
100
AcDbEntity
  8
visible
100
AcDbSpline
 70
0
 71
2
 72
6
 73
3
 74
0
 40
0.0
 40
0.0
 40
0.0
 40
1.0
 40
1.0
 40
1.0
 10
22.033325546086985
 20
-14.179174853248316
 30
0.0
 10
22.2372585037571
 20
-13.99790257264198
 30
0.0
 10
22.461425943529285
 20
-13.86691130354965
 30
0.0
  0
ELLIPSE
  5
10A
330
17
100
AcDbEntity
  8
visible
100
AcDbEllipse
 10
32.49723607752557
 20
1.1957013492943531
 30
0.0
 11
4.543691732265956
 21
17.41708544625472
 31
0.0
 40
0.5038262457106429
 41
-1.6726035637432948
 42
-1.3244835141427354
  0
SPLINE
  5
10B
330
17
100
AcDbEntity
  8
visible
100
AcDbSpline
 70
0
 71
3
 72
8
 73
4
 74
0
 40
0.0
 40
0.0
 40
0.0
 40
0.0
 40
1.0
 40
1.0
 40
1.0
 40
1.0
 10
40.76520194783269
 20
-2.8518002667559
 30
0.0
 10
40.63014385948331
 20
-2.891786353156557
 30
0.0
 10
40.485649293474516
 20
-2.967469437282821
 30
0.0
 10
40.33710155039041
 20
-3.057290887376574
 30
0.0
  0
LINE
  5
10C
330
17
100
AcDbEntity
  8
visible
100
AcDbLine
 10
40.337101550390415
 20
-3.057290887376576
 30
0.0
 11
22.46142594352928
 21
-13.866911303549651
 31
0.0
  0
ELLIPSE
  5
10D
330
17
100
AcDbEntity
  8
visible
100
AcDbEllipse
 10
31.399263746959846
 20
26.68731874606445
 30
0.0
 11
-5.0485463691843915
 21
-19.352317162505248
 31
0.0
 40
0.503826245710643
 41
5.190166083854647
 42
6.283185307179586
  0
ELLIPSE
  5
10E
330
17
100
AcDbEntity
  8
visible
100
AcDbEllipse
 10
36.88912539978848
 20
1.0983075431424112
 30
0.0
 11
-0.567961466533244
 21
-2.1771356807818405
 31
0.0
 40
0.503826245710643
 41
0.47777710346995755
 42
3.1415926535897936
  0
ELLIPSE
  5
10F
330
17
100
AcDbEntity
  8
visible
100
AcDbEllipse
 10
36.88912539978848
 20
1.0983075431424112
 30
0.0
 11
-0.567961466533244
 21
-2.1771356807818405
 31
0.0
 40
0.503826245710643
 41
3.1415926535897936
 42
6.283185307179586
  0
ELLIPSE
  5
110
330
17
100
AcDbEntity
  8
visible
100
AcDbEllipse
 10
36.88912539978848
 20
1.0983075431424112
 30
0.0
 11
-0.567961466533244
 21
-2.1771356807818405
 31
0.0
 40
0.503826245710643
 41
0.0
 42
0.4777771034699576
  0
ELLIPSE
  5
111
330
17
100
AcDbEntity
  8
visible
100
AcDbEllipse
 10
25.909402094131206
 20
-5.5412536023512615
 30
0.0
 11
-0.567961466533244
 21
-2.1771356807818405
 31
0.0
 40
0.503826245710643
 41
0.47777710346995755
 42
3.1415926535897936
  0
ELLIPSE
  5
112
330
17
100
AcDbEntity
  8
visible
100
AcDbEllipse
 10
25.909402094131206
 20
-5.5412536023512615
 30
0.0
 11
-0.567961466533244
 21
-2.1771356807818405
 31
0.0
 40
0.503826245710643
 41
3.1415926535897936
 42
6.283185307179586
  0
ELLIPSE
  5
113
330
17
100
AcDbEntity
  8
visible
100
AcDbEllipse
 10
25.909402094131206
 20
-5.5412536023512615
 30
0.0
 11
-0.567961466533244
 21
-2.1771356807818405
 31
0.0
 40
0.503826245710643
 41
0.0
 42
0.4777771034699576
  0
ELLIPSE
  5
114
330
17
100
AcDbEntity
  8
visible
100
AcDbEllipse
 10
24.404905508338214
 20
-5.148767229175668
 30
0.0
 11
-0.567961466533244
 21
-2.1771356807818405
 31
0.0
 40
0.503826245710643
 41
0.7556968097388035
 42
2.385895843850991
  0
ELLIPSE
  5
115
330
17
100
AcDbEntity
  8
visible
100
AcDbEllipse
 10
24.404905508338214
 20
-5.148767229175668
 30
0.0
 11
-0.29029141622810245
 21
-1.1127582368440516
 31
0.0
 40
0.503826245710643
 41
0.9524960221121657
 42
2.1890966314776326
  0
ELLIPSE
  5
116
330
17
100
AcDbEntity
  8
visible
100
AcDbEllipse
 10
35.38462881399549
 20
1.4907939163180117
 30
0.0
 11
-0.29029141622810245
 21
-1.1127582368440516
 31
0.0
 40
0.503826245710643
 41
0.9524960221121626
 42
2.189096631477629
  0
ELLIPSE
  5
117
330
17
100
AcDbEntity
  8
visible
100
AcDbEllipse
 10
35.38462881399549
 20
1.4907939163180117
 30
0.0
 11
-0.567961466533244
 21
-2.1771356807818405
 31
0.0
 40
0.503826245710643
 41
0.7556968097388035
 42
2.385895843850988
  0
ELLIPSE
  5
118
330
17
100
AcDbEntity
  8
visible
100
AcDbEllipse
 10
52.101257545028744
 20
33.38054136163426
 30
0.0
 11
-0.29029141622810245
 21
-1.1127582368440516
 31
0.0
 40
0.503826245710643
 41
0.9524960221121596
 42
2.1890966314776157
  0
ELLIPSE
  5
119
330
17
100
AcDbEntity
  8
visible
100
AcDbEllipse
 10
52.101257545028744
 20
33.38054136163426
 30
0.0
 11
-0.567961466533244
 21
-2.1771356807818405
 31
0.0
 40
0.503826245710643
 41
0.973241290052545
 42
2.3858958438509883
  0
ELLIPSE
  5
11A
330
17
100
AcDbEntity
  8
visible
100
AcDbEllipse
 10
53.60575413082174
 20
32.98805498845866
 30
0.0
 11
-0.567961466533244
 21
-2.1771356807818405
 31
0.0
 40
0.503826245710643
 41
0.7581135176116162
 42
3.1415926535897936
  0
ELLIPSE
  5
11B
330
17
100
AcDbEntity
  8
visible
100
AcDbEllipse
 10
53.60575413082174
 20
32.98805498845866
 30
0.0
 11
-0.567961466533244
 21
-2.1771356807818405
 31
0.0
 40
0.503826245710643
 41
3.1415926535897936
 42
5.303716953373753
  0
ELLIPSE
  5
11C
330
17
100
AcDbEntity
  8
visible
100
AcDbEllipse
 10
48.1158924779931
 20
22.326359044113374
 30
0.0
 11
-5.0485463691843915
 21
-19.352317162505248
 31
0.0
 40
0.503826245710643
 41
5.473960193062986
 42
6.283185307179586
  0
ELLIPSE
  5
11D
330
17
100
AcDbEntity
  8
visible
100
AcDbEllipse
 10
48.1158924779931
 20
22.326359044113374
 30
0.0
 11
-5.0485463691843915
 21
-19.352317162505248
 31
0.0
 40
0.503826245710643
 41
0.0
 42
0.4777771034699576
  0
ELLIPSE
  5
11E
330
17
100
AcDbEntity
  8
visible
100
AcDbEllipse
 10
48.1158924779931
 20
22.326359044113374
 30
0.0
 11
-5.0485463691843915
 21
-19.352317162505248
 31
0.0
 40
0.503826245710643
 41
0.47777710346995755
 42
1.764779321056524
  0
ELLIPSE
  5
11F
330
17
100
AcDbEntity
  8
visible
100
AcDbEllipse
 10
48.1158924779931
 20
22.326359044113374
 30
0.0
 11
-5.0485463691843915
 21
-19.352317162505248
 31
0.0
 40
0.503826245710643
 41
2.352060723832195
 42
3.1415926535897936
  0
ELLIPSE
  5
120
330
17
100
AcDbEntity
  8
visible
100
AcDbEllipse
 10
48.1158924779931
 20
22.326359044113374
 30
0.0
 11
-5.0485463691843915
 21
-19.352317162505248
 31
0.0
 40
0.503826245710643
 41
3.1415926535897936
 42
4.886678790287307
  0
ELLIPSE
  5
121
330
17
100
AcDbEntity
  8
visible
100
AcDbEllipse
 10
42.62603082516446
 20
26.348493842964984
 30
0.0
 11
-0.567961466533244
 21
-2.1771356807818405
 31
0.0
 40
0.503826245710643
 41
1.854711306234904
 42
3.1415926535897936
  0
ELLIPSE
  5
122
330
17
100
AcDbEntity
  8
visible
100
AcDbEllipse
 10
42.62603082516446
 20
26.348493842964984
 30
0.0
 11
-0.567961466533244
 21
-2.1771356807818405
 31
0.0
 40
0.503826245710643
 41
3.1415926535897936
 42
6.283185307179586
  0
ELLIPSE
  5
123
330
17
100
AcDbEntity
  8
visible
100
AcDbEllipse
 10
42.62603082516446
 20
26.348493842964984
 30
0.0
 11
-0.567961466533244
 21
-2.1771356807818405
 31
0.0
 40
0.503826245710643
 41
0.0
 42
0.4777771034699576
  0
ELLIPSE
  5
124
330
17
100
AcDbEntity
  8
visible
100
AcDbEllipse
 10
42.62603082516446
 20
26.348493842964984
 30
0.0
 11
-0.567961466533244
 21
-2.1771356807818405
 31
0.0
 40
0.503826245710643
 41
0.47777710346995755
 42
0.4903194530984189
  0
ELLIPSE
  5
125
330
17
100
AcDbEntity
  8
visible
100
AcDbEllipse
 10
48.1158924779931
 20
18.65540135831415
 30
0.0
 11
3.520454919203337
 21
13.49476763620003
 31
0.0
 40
0.5038262457106429
 41
-3.485053208608263
 42
-3.2863900322790016
  0
ELLIPSE
  5
126
330
17
100
AcDbEntity
  8
visible
100
AcDbEllipse
 10
48.1158924779931
 20
18.65540135831415
 30
0.0
 11
3.520454919203337
 21
13.49476763620003
 31
0.0
 40
0.5038262457106429
 41
-5.008774129452069
 42
-3.485053208608263
  0
ELLIPSE
  5
127
330
17
100
AcDbEntity
  8
visible
100
AcDbEllipse
 10
48.1158924779931
 20
18.65540135831415
 30
0.0
 11
3.520454919203337
 21
13.49476763620003
 31
0.0
 40
0.5038262457106429
 41
-5.939724752161116
 42
-5.212565725573782
  0
ELLIPSE
  5
128
330
17
100
AcDbEntity
  8
visible
100
AcDbEllipse
 10
48.1158924779931
 20
18.65540135831415
 30
0.0
 11
3.520454919203337
 21
13.49476763620003
 31
0.0
 40
0.5038262457106429
 41
-6.138387928490374
 42
-5.939724752161116
  0
LINE
  5
129
330
17
100
AcDbEntity
  8
visible
100
AcDbLine
 10
42.65921857821853
 20
24.27492227139631
 30
0.0
 11
42.943285190711194
 21
24.200816237836413
 31
0.0
  0
SPLINE
  5
12A
330
17
100
AcDbEntity
  8
visible
100
AcDbSpline
 70
0
 71
1
 72
4
 73
2
 74
0
 40
0.0
 40
0.0
 40
1.0
 40
1.0
 10
42.6592185782185
 20
24.274922271396306
 30
0.0
 10
42.641522965936375
 20
24.29311082922895
 30
0.0
  0
LINE
  5
12B
330
17
100
AcDbEntity
  8
visible
100
AcDbLine
 10
41.617309430637206
 20
24.546730892548567
 30
0.0
 11
42.62603082516446
 21
24.283580144702928
 31
0.0
  0
ELLIPSE
  5
12C
330
17
100
AcDbEntity
  8
visible
100
AcDbEllipse
 10
41.12153423937147
 20
26.740980216140585
 30
0.0
 11
-0.567961466533244
 21
-2.1771356807818405
 31
0.0
 40
0.503826245710643
 41
0.7556968097388035
 42
2.3858958438509843
  0
SPLINE
  5
12D
330
17
100
AcDbEntity
  8
visible
100
AcDbSpline
 70
0
 71
2
 72
6
 73
3
 74
0
 40
0.0
 40
0.0
 40
0.0
 40
1.0
 40
1.0
 40
1.0
 10
44.01249309765837
 20
26.711721150803527
 30
0.0
 10
43.923016580070964
 20
26.734948302114702
 30
0.0
 10
43.83811098012996
 20
26.683646402835706
 30
0.0
  0
LINE
  5
12E
330
17
100
AcDbEntity
  8
visible
100
AcDbLine
 10
44.01249309765837
 20
26.711721150803527
 30
0.0
 11
44.17965938496871
 21
26.668111553784016
 31
0.0
  0
ELLIPSE
  5
12F
330
17
100
AcDbEntity
  8
visible
100
AcDbEllipse
 10
41.12153423937147
 20
26.740980216140585
 30
0.0
 11
-0.29029141622810245
 21
-1.1127582368440516
 31
0.0
 40
0.503826245710643
 41
0.9524960221121657
 42
2.1890966314776157
  0
LINE
  5
130
330
17
100
AcDbEntity
  8
visible
100
AcDbLine
 10
42.76777729103391
 20
24.22503619368257
 30
0.0
 11
42.934943578344246
 21
24.18142659666306
 31
0.0
  0
SPLINE
  5
131
330
17
100
AcDbEntity
  8
visible
100
AcDbSpline
 70
0
 71
2
 72
6
 73
3
 74
0
 40
0.0
 40
0.0
 40
0.0
 40
1.0
 40
1.0
 40
1.0
 10
42.767777291033894
 20
24.225036193682556
 30
0.0
 10
42.69783953799098
 20
24.24315466273503
 30
0.0
 10
42.6592185782185
 20
24.274922271396306
 30
0.0
  0
ELLIPSE
  5
132
330
17
100
AcDbEntity
  8
visible
100
AcDbEllipse
 10
48.450225052613774
 20
18.56818216427513
 30
0.0
 11
-3.5339824584290738
 21
-13.546622013753673
 31
0.0
 40
0.503826245710643
 41
4.208506084484696
 42
4.41970998202821
  0
SPLINE
  5
133
330
17
100
AcDbEntity
  8
visible
100
AcDbSpline
 70
0
 71
3
 72
8
 73
4
 74
0
 40
0.0
 40
0.0
 40
0.0
 40
0.0
 40
1.0
 40
1.0
 40
1.0
 40
1.0
 10
58.786152692778074
 20
32.5255914054074
 30
0.0
 10
58.77582368017159
 20
33.06724357189078
 30
0.0
 10
58.706019320620406
 20
33.61535658208194
 30
0.0
 10
58.5938437074748
 20
34.14782047166251
 30
0.0
  0
SPLINE
  5
134
330
17
100
AcDbEntity
  8
visible
100
AcDbSpline
 70
0
 71
1
 72
4
 73
2
 74
0
 40
0.0
 40
0.0
 40
1.0
 40
1.0
 10
58.78776170702203
 20
32.345513102377794
 30
0.0
 10
58.786152692788264
 20
32.525591405505764
 30
0.0
  0
SPLINE
  5
135
330
17
100
AcDbEntity
  8
visible
100
AcDbSpline
 70
0
 71
3
 72
8
 73
4
 74
0
 40
0.0
 40
0.0
 40
0.0
 40
0.0
 40
1.0
 40
1.0
 40
1.0
 40
1.0
 10
58.78776169903184
 20
25.40403928478491
 30
0.0
 10
58.787433695307826
 20
24.78981531663893
 30
0.0
 10
58.751976684333464
 20
24.169675388124887
 30
0.0
 10
58.65642685142409
 20
23.56099698366839
 30
0.0
  0
SPLINE
  5
136
330
17
100
AcDbEntity
  8
visible
100
AcDbSpline
 70
0
 71
3
 72
8
 73
4
 74
0
 40
0.0
 40
0.0
 40
0.0
 40
0.0
 40
1.0
 40
1.0
 40
1.0
 40
1.0
 10
37.6379412485114
 20
21.475552522651626
 30
0.0
 10
37.52491189261556
 20
20.806904676507017
 30
0.0
 10
37.40706710063468
 20
20.145318131253063
 30
0.0
 10
37.27037700013412
 20
19.514761867432597
 30
0.0
  0
SPLINE
  5
137
330
17
100
AcDbEntity
  8
visible
100
AcDbSpline
 70
0
 71
3
 72
8
 73
4
 74
0
 40
0.0
 40
0.0
 40
0.0
 40
0.0
 40
0.9999998493091817
 40
0.9999998493091817
 40
0.9999998493091817
 40
0.9999998493091817
 10
36.46750402309449
 20
15.861236286697757
 30
0.0
 10
36.68923641875238
 20
17.027003620281207
 30
0.0
 10
36.990210272952865
 20
18.237952196247875
 30
0.0
 10
37.27037699999096
 20
19.514761867438242
 30
0.0
  0
SPLINE
  5
138
330
17
100
AcDbEntity
  8
visible
100
AcDbSpline
 70
0
 71
3
 72
11
 73
7
 74
0
 40
0.0
 40
0.0
 40
0.0
 40
0.0
 40
0.6557507204090933
 40
0.6557507204090933
 40
0.6557507204090933
 40
1.0
 40
1.0
 40
1.0
 40
1.0
 10
36.46750402309449
 20
15.86123628669776
 30
0.0
 10
36.672165877440584
 20
14.680369985523706
 30
0.0
 10
36.94275938475095
 20
13.534055728851234
 30
0.0
 10
37.20414386528135
 20
12.449209868676395
 30
0.0
 10
37.33968072108699
 20
11.882590176252329
 30
0.0
 10
37.4735976695972
 20
11.331539032781402
 30
0.0
 10
37.57535810456211
 20
10.813039584320535
 30
0.0
  0
ELLIPSE
  5
139
330
17
100
AcDbEntity
  8
visible
100
AcDbEllipse
 10
48.28305876530342
 20
18.61179176129464
 30
0.0
 11
-3.5339824584290738
 21
-13.546622013753673
 31
0.0
 40
0.503826245710643
 41
3.1415926535897927
 42
4.208506084484696
  0
ELLIPSE
  5
13A
330
17
100
AcDbEntity
  8
visible
100
AcDbEllipse
 10
48.28305876530342
 20
18.61179176129464
 30
0.0
 11
-3.5339824584290738
 21
-13.546622013753673
 31
0.0
 40
0.503826245710643
 41
4.419709982028211
 42
6.283185307179586
  0
ELLIPSE
  5
13B
330
17
100
AcDbEntity
  8
visible
100
AcDbEllipse
 10
31.399263746959846
 20
26.68731874606445
 30
0.0
 11
-5.0485463691843915
 21
-19.352317162505248
 31
0.0
 40
0.503826245710643
 41
3.1415926535897936
 42
5.190166083854647
  0
ELLIPSE
  5
13C
330
17
100
AcDbEntity
  8
visible
100
AcDbEllipse
 10
32.49723607752557
 20
31.022232546413036
 30
0.0
 11
4.543691732265956
 21
17.41708544625472
 31
0.0
 40
0.5038262457106429
 41
-6.283185307179586
 42
-5.805408203709629
  0
ELLIPSE
  5
13D
330
17
100
AcDbEntity
  8
visible
100
AcDbEllipse
 10
32.49723607752557
 20
31.022232546413036
 30
0.0
 11
4.543691732265956
 21
17.41708544625472
 31
0.0
 40
0.5038262457106429
 41
-0.5302435663713325
 42
-0.0
  0
SPLINE
  5
13E
330
17
100
AcDbEntity
  8
visible
100
AcDbSpline
 70
0
 71
3
 72
8
 73
4
 74
0
 40
0.0
 40
0.0
 40
0.0
 40
0.0
 40
0.43077362424185944
 40
0.43077362424185944
 40
0.43077362424185944
 40
0.43077362424185944
 10
16.83035438132903
 20
-12.786478704574868
 30
0.0
 10
16.672150327034725
 20
-12.74560844543107
 30
0.0
 10
16.562349981114725
 20
-12.677342988190128
 30
0.0
 10
16.52345994705109
 20
-12.60039265539461
 30
0.0
  0
LINE
  5
13F
330
17
100
AcDbEntity
  8
visible
100
AcDbLine
 10
-41.60553711261076
 20
2.337058899965206
 30
0.0
 11
-39.79785639660423
 21
1.8654792002938325
 31
0.0
  0
LINE
  5
140
330
17
100
AcDbEntity
  8
visible
100
AcDbLine
 10
-38.4853026216392
 20
39.46570467411604
 30
0.0
 11
-38.4853026216392
 21
9.63917347699736
 31
0.0
  0
ELLIPSE
  5
141
330
17
100
AcDbEntity
  8
visible
100
AcDbEllipse
 10
-29.042740578773937
 20
15.34919606212192
 30
0.0
 11
4.3417498774985805
 21
16.64299275975451
 31
0.0
 40
0.5038262457106428
 41
-4.234611876914732
 42
-4.006904732417652
  0
SPLINE
  5
142
330
17
100
AcDbEntity
  8
visible
100
AcDbSpline
 70
0
 71
3
 72
8
 73
4
 74
0
 40
0.0
 40
0.0
 40
0.0
 40
0.0
 40
0.422570192841988
 40
0.422570192841988
 40
0.422570192841988
 40
0.422570192841988
 10
-41.605536611111894
 20
2.337058769136412
 30
0.0
 10
-41.76108872812499
 20
2.377252501568881
 30
0.0
 10
-41.869486652133396
 20
2.444155324481832
 30
0.0
 10
-41.90924578117417
 20
2.519796728086425
 30
0.0
  0
ELLIPSE
  5
143
330
17
100
AcDbEntity
  8
visible
100
AcDbEllipse
 10
-26.84679591764248
 20
46.50363948833933
 30
0.0
 11
4.3417498774985805
 21
16.64299275975451
 31
0.0
 40
0.5038262457106429
 41
-6.970591619644216
 42
-5.805408203709629
  0
LINE
  5
144
330
17
100
AcDbEntity
  8
visible
100
AcDbLine
 10
-29.042740578773937
 20
60.960845308177255
 30
0.0
 11
-26.84679591764248
 21
62.28875753727599
 31
0.0
  0
ELLIPSE
  5
145
330
17
100
AcDbEntity
  8
visible
100
AcDbEllipse
 10
-29.042740578773937
 20
45.1757272592406
 30
0.0
 11
4.3417498774985805
 21
16.64299275975451
 31
0.0
 40
0.5038262457106429
 41
-5.805408203709629
 42
-4.234611876914732
  0
LINE
  5
146
330
17
100
AcDbEntity
  8
visible
100
AcDbLine
 10
-36.17956072745117
 20
-4.751636731385624
 30
0.0
 11
-36.17956072745117
 21
-0.584190722225328
 31
0.0
  0
LINE
  5
147
330
17
100
AcDbEntity
  8
visible
100
AcDbLine
 10
-31.36496965785006
 20
-1.84019981196038
 30
0.0
 11
-36.179560727451175
 21
-4.751636731385622
 31
0.0
  0
ELLIPSE
  5
148
330
17
100
AcDbEntity
  8
visible
100
AcDbEllipse
 10
-33.43462990103685
 20
9.940153339575033
 30
0.0
 11
-0.2271845866132976
 21
-0.8708542723127362
 31
0.0
 40
0.503826245710643
 41
0.6735689376970893
 42
1.6112839387427427
  0
ELLIPSE
  5
149
330
17
100
AcDbEntity
  8
visible
100
AcDbEllipse
 10
-33.43462990103685
 20
9.940153339575033
 30
0.0
 11
-0.2271845866132976
 21
-0.8708542723127362
 31
0.0
 40
0.503826245710643
 41
4.671901368436844
 42
6.283185307179586
  0
ELLIPSE
  5
14A
330
17
100
AcDbEntity
  8
visible
100
AcDbEllipse
 10
-33.43462990103685
 20
9.940153339575033
 30
0.0
 11
-0.2271845866132976
 21
-0.8708542723127362
 31
0.0
 40
0.503826245710643
 41
0.0
 42
0.2819852692428251
  0
ELLIPSE
  5
14B
330
17
100
AcDbEntity
  8
visible
100
AcDbEllipse
 10
-36.848225876692496
 20
-4.577198343307586
 30
0.0
 11
0.41396554366777655
 21
-0.6845674025659142
 31
0.0
 40
0.7670754590104828
 41
-6.283185307179586
 42
-5.379975506657335
  0
LINE
  5
14C
330
17
100
AcDbEntity
  8
visible
100
AcDbLine
 10
-33.838118458847745
 20
9.21944815940846
 30
0.0
 11
-33.45286141194399
 21
9.118944015691913
 31
0.0
  0
LINE
  5
14D
330
17
100
AcDbEntity
  8
visible
100
AcDbLine
 10
-37.712604592814095
 20
65.85757288070404
 30
0.0
 11
-39.90854925394555
 21
64.5296606516053
 31
0.0
  0
ELLIPSE
  5
14E
330
17
100
AcDbEntity
  8
visible
100
AcDbEllipse
 10
-39.90854925394555
 20
48.0103510655088
 30
0.0
 11
4.543691732265956
 21
17.41708544625472
 31
0.0
 40
0.5038262457106429
 41
-5.805408203709629
 42
-4.234611876914732
  0
LINE
  5
14F
330
17
100
AcDbEntity
  8
visible
100
AcDbLine
 10
-49.79030022903711
 20
42.03474603456449
 30
0.0
 11
-49.79030022903711
 21
38.36378834876527
 31
0.0
  0
LINE
  5
150
330
17
100
AcDbEntity
  8
visible
100
AcDbLine
 10
-49.79030022903711
 20
38.36378834876527
 30
0.0
 11
-49.79030022903711
 21
12.208214837445809
 31
0.0
  0
ELLIPSE
  5
151
330
17
100
AcDbEntity
  8
visible
100
AcDbEllipse
 10
-39.90854925394555
 20
18.183819868390117
 30
0.0
 11
4.543691732265956
 21
17.41708544625472
 31
0.0
 40
0.5038262457106429
 41
-4.234611876914732
 42
-3.6550275364963767
  0
SPLINE
  5
152
330
17
100
AcDbEntity
  8
visible
100
AcDbSpline
 70
0
 71
2
 72
6
 73
3
 74
0
 40
0.0
 40
0.0
 40
0.0
 40
1.0
 40
1.0
 40
1.0
 10
-48.17651512415407
 20
4.136855894113893
 30
0.0
 10
-48.04739678204673
 20
4.138070818106049
 30
0.0
 10
-47.894979493757475
 20
4.098778320998505
 30
0.0
  0
LINE
  5
153
330
17
100
AcDbEntity
  8
visible
100
AcDbLine
 10
-47.894979493757496
 20
4.098778320998495
 30
0.0
 11
-43.01517647577001
 21
2.8257570284099573
 31
0.0
  0
ELLIPSE
  5
154
330
17
100
AcDbEntity
  8
visible
100
AcDbEllipse
 10
-55.52720565441308
 20
49.364309196210016
 30
0.0
 11
-5.048546369184398
 21
-19.352317162505244
 31
0.0
 40
0.5038262457106427
 41
5.473960193062986
 42
6.283185307179586
  0
ELLIPSE
  5
155
330
17
100
AcDbEntity
  8
visible
100
AcDbEllipse
 10
-55.52720565441308
 20
49.364309196210016
 30
0.0
 11
-5.048546369184398
 21
-19.352317162505244
 31
0.0
 40
0.5038262457106427
 41
3.141592653589793
 42
4.886678790287307
  0
SPLINE
  5
156
330
17
100
AcDbEntity
  8
visible
100
AcDbSpline
 70
0
 71
3
 72
8
 73
4
 74
0
 40
0.0
 40
0.0
 40
0.0
 40
0.0
 40
1.0
 40
1.0
 40
1.0
 40
1.0
 10
-66.00515688389478
 20
48.51350267474825
 30
0.0
 10
-66.11733249703721
 20
47.84463210799393
 30
0.0
 10
-66.18713685660327
 20
47.17051298854718
 30
0.0
 10
-66.19746586919806
 20
46.50699220651444
 30
0.0
  0
SPLINE
  5
157
330
17
100
AcDbEntity
  8
visible
100
AcDbSpline
 70
0
 71
3
 72
8
 73
4
 74
0
 40
0.0
 40
0.0
 40
0.0
 40
0.0
 40
0.9452087187905789
 40
0.9452087187905789
 40
0.9452087187905789
 40
0.9452087187905789
 10
-65.83826381082903
 20
42.55030966263831
 30
0.0
 10
-66.04807810185558
 20
43.762302550110874
 30
0.0
 10
-66.19744632659351
 20
45.01483009459998
 30
0.0
 10
-66.19907488344202
 20
46.28662909632664
 30
0.0
  0
SPLINE
  5
158
330
17
100
AcDbEntity
  8
visible
100
AcDbSpline
 70
0
 71
1
 72
4
 73
2
 74
0
 40
0.0
 40
0.0
 40
1.0
 40
1.0
 10
-66.19907488344202
 20
46.28662909632665
 30
0.0
 10
-66.19746586920826
 20
46.50699220648538
 30
0.0
  0
SPLINE
  5
159
330
17
100
AcDbEntity
  8
visible
100
AcDbSpline
 70
0
 71
3
 72
8
 73
4
 74
0
 40
0.0
 40
0.0
 40
0.0
 40
0.0
 40
0.6729053705840723
 40
0.6729053705840723
 40
0.6729053705840723
 40
0.6729053705840723
 10
-65.83826381082903
 20
42.55030966263831
 30
0.0
 10
-66.04807698420768
 20
41.448293554601186
 30
0.0
 10
-66.19756787021439
 20
40.384198040514114
 30
0.0
 10
-66.19907487545184
 20
39.34515525000399
 30
0.0
  0
SPLINE
  5
15A
330
17
100
AcDbEntity
  8
visible
100
AcDbSpline
 70
0
 71
3
 72
8
 73
4
 74
0
 40
0.0
 40
0.0
 40
0.0
 40
0.0
 40
1.0
 40
1.0
 40
1.0
 40
1.0
 10
-66.19907487545183
 20
39.345155250003984
 30
0.0
 10
-66.19874687172778
 20
38.84209521884569
 30
0.0
 10
-66.16328986075351
 20
38.34321242035208
 30
0.0
 10
-66.06774002784407
 20
37.850989736417176
 30
0.0
  0
ELLIPSE
  5
15B
330
17
100
AcDbEntity
  8
visible
100
AcDbEllipse
 10
-37.7126045928141
 20
49.33826329460753
 30
0.0
 11
4.543691732265956
 21
17.41708544625472
 31
0.0
 40
0.5038262457106429
 41
-6.283185307179586
 42
-5.805408203709629
  0
SPLINE
  5
15C
330
17
100
AcDbEntity
  8
visible
100
AcDbSpline
 70
0
 71
3
 72
8
 73
4
 74
0
 40
0.0
 40
0.0
 40
0.0
 40
0.0
 40
0.730772359337864
 40
0.730772359337864
 40
0.730772359337864
 40
0.730772359337864
 10
-43.01517647577001
 20
2.82575702840996
 30
0.0
 10
-42.74645237136165
 20
2.753612171353874
 30
0.0
 10
-42.3595621760117
 20
2.772356404495601
 30
0.0
 10
-42.083090571556696
 20
2.857935762788829
 30
0.0
  0
LINE
  5
15D
330
17
100
AcDbEntity
  8
visible
100
AcDbLine
 10
-43.500291240949174
 20
40.77399258470136
 30
0.0
 11
-43.500291240949174
 21
41.049314411136294
 31
0.0
  0
ELLIPSE
  5
15E
330
17
100
AcDbEntity
  8
visible
100
AcDbEllipse
 10
-38.636685557017884
 20
5.049330753285048
 30
0.0
 11
0.41396554366777655
 21
-0.6845674025659142
 31
0.0
 40
0.7670754590104828
 41
-3.809179179862438
 42
-3.141592653589793
  0
LINE
  5
15F
330
17
100
AcDbEntity
  8
visible
100
AcDbLine
 10
-38.636685557017884
 20
5.783522290444893
 30
0.0
 11
-32.22326878968364
 21
9.66178694182365
 31
0.0
  0
ELLIPSE
  5
160
330
17
100
AcDbEntity
  8
visible
100
AcDbEllipse
 10
-36.79785639660423
 20
5.303816723230284
 30
0.0
 11
-2.2
 21
-6.653551643005597e-17
 31
0.0
 40
0.39718302370189007
 41
-6.864336095659419
 42
-5.293539768864522
  0
LINE
  5
161
330
17
100
AcDbEntity
  8
visible
100
AcDbLine
 10
1.2784515577016133
 20
-5.6747903023590425
 30
0.0
 11
-38.00562596022653
 21
4.573464997225974
 31
0.0
  0
ELLIPSE
  5
162
330
17
100
AcDbEntity
  8
visible
100
AcDbEllipse
 10
2.486221121323915
 20
-4.9444385763547345
 30
0.0
 11
-2.2
 21
-6.653551643005597e-17
 31
0.0
 40
0.39718302370189007
 41
-5.293539768864522
 42
-3.7227434420696257
  0
LINE
  5
163
330
17
100
AcDbEntity
  8
visible
100
AcDbLine
 10
9.861585847598569
 20
-2.0761393350334174
 30
0.0
 11
4.325050281737564
 21
-5.424144143569347
 31
0.0
  0
LINE
  5
164
330
17
100
AcDbEntity
  8
visible
100
AcDbLine
 10
9.861585847598569
 20
1.4474237815635291
 30
0.0
 11
7.477528828366719
 21
2.069365965918129
 31
0.0
  0
LINE
  5
165
330
17
100
AcDbEntity
  8
visible
100
AcDbLine
 10
-30.85206173403886
 20
9.291791631462871
 30
0.0
 11
-30.837873765885547
 21
9.300371254050965
 31
0.0
  0
ELLIPSE
  5
166
330
17
100
AcDbEntity
  8
visible
100
AcDbEllipse
 10
-29.849064010176864
 20
9.030134049345804
 30
0.0
 11
-1.2
 21
-3.629209987093962e-17
 31
0.0
 40
0.39718302370189007
 41
-6.864336095659419
 42
-5.293539768864522
  0
LINE
  5
167
330
17
100
AcDbEntity
  8
visible
100
AcDbLine
 10
-2.925410002311434
 20
1.4361768723969206
 30
0.0
 11
-30.507847408516305
 21
8.631760380616189
 31
0.0
  0
ELLIPSE
  5
168
330
17
100
AcDbEntity
  8
visible
100
AcDbEllipse
 10
-2.2666266039719964
 20
1.8345505411265393
 30
0.0
 11
-1.2
 21
-3.629209987093962e-17
 31
0.0
 40
0.39718302370189007
 41
-5.293539768864522
 42
-3.7227434420696257
  0
LINE
  5
169
330
17
100
AcDbEntity
  8
visible
100
AcDbLine
 10
-1.2494409119566896
 20
1.5814725815975716
 30
0.0
 11
-1.263628880110005
 21
1.5728929590094758
 31
0.0
  0
ELLIPSE
  5
16A
330
17
100
AcDbEntity
  8
visible
100
AcDbEllipse
 10
-30.85206173403886
 20
8.557600094303027
 30
0.0
 11
0.41396554366777655
 21
-0.6845674025659142
 31
0.0
 40
0.7670754590104828
 41
-3.809179179862438
 42
-3.141592653589793
  0
ELLIPSE
  5
16B
330
17
100
AcDbEntity
  8
visible
100
AcDbEllipse
 10
7.078490394464058
 20
9.515380708136007
 30
0.0
 11
4.139655436677767
 21
-6.84567402565914
 31
0.0
 40
0.7670754590104826
 41
-0.605419174793659
 42
-0.23830611231539134
  0
LINE
  5
16C
330
17
100
AcDbEntity
  8
visible
100
AcDbLine
 10
43.25671089198876
 20
-49.56394638342939
 30
0.0
 11
43.52115276895743
 21
-49.63293280333042
 31
0.0
  0
LINE
  5
16D
330
17
100
AcDbEntity
  8
visible
100
AcDbLine
 10
43.52115276895743
 20
-50.9397193961947
 30
0.0
 11
39.42846090659068
 21
-53.41461581328813
 31
0.0
  0
LINE
  5
16E
330
17
100
AcDbEntity
  8
visible
100
AcDbLine
 10
47.924083908989225
 20
-45.004864963887734
 30
0.0
 11
48.07499300979579
 21
-45.04423345844868
 31
0.0
  0
LINE
  5
16F
330
17
100
AcDbEntity
  8
visible
100
AcDbLine
 10
48.07499300979579
 20
-52.38614883004713
 30
0.0
 11
48.07499300979579
 21
-45.04423345844868
 31
0.0
  0
LINE
  5
170
330
17
100
AcDbEntity
  8
visible
100
AcDbLine
 10
43.52115276895743
 20
-49.40403543096868
 30
0.0
 11
43.52115276895743
 21
-52.08689367300695
 31
0.0
  0
LINE
  5
171
330
17
100
AcDbEntity
  8
visible
100
AcDbLine
 10
43.52115276895742
 20
-52.08689367300695
 30
0.0
 11
39.42846090659068
 21
-54.561790090100374
 31
0.0
  0
LINE
  5
172
330
17
100
AcDbEntity
  8
visible
100
AcDbLine
 10
48.07499300979579
 20
-45.04423345844868
 30
0.0
 11
36.548753976581125
 21
-52.01427875997037
 31
0.0
  0
LINE
  5
173
330
17
100
AcDbEntity
  8
visible
100
AcDbLine
 10
48.07499300979579
 20
-52.38614883004713
 30
0.0
 11
36.548753976581125
 21
-59.35619413156881
 31
0.0
  0
ELLIPSE
  5
174
330
17
100
AcDbEntity
  8
visible
100
AcDbEllipse
 10
46.428034513947196
 20
-49.71112531607195
 30
0.0
 11
-0.40388370953475106
 21
-1.54818537300042
 31
0.0
 40
0.5038262457106428
 41
5.190166083854647
 42
6.283185307179586
  0
ELLIPSE
  5
175
330
17
100
AcDbEntity
  8
visible
100
AcDbEllipse
 10
46.428034513947196
 20
-49.71112531607195
 30
0.0
 11
-0.40388370953475106
 21
-1.54818537300042
 31
0.0
 40
0.5038262457106428
 41
0.0
 42
3.141592653589793
  0
ELLIPSE
  5
176
330
17
100
AcDbEntity
  8
visible
100
AcDbEllipse
 10
46.428034513947196
 20
-49.71112531607195
 30
0.0
 11
-0.40388370953475106
 21
-1.54818537300042
 31
0.0
 40
0.5038262457106428
 41
3.141592653589793
 42
5.190166083854647
  0
LINE
  5
177
330
17
100
AcDbEntity
  8
visible
100
AcDbLine
 10
45.19281564206075
 20
-48.39316224667793
 30
0.0
 11
39.428460906590686
 21
-51.87893184806211
 31
0.0
  0
LINE
  5
178
330
17
100
AcDbEntity
  8
visible
100
AcDbLine
 10
45.19281564206075
 20
-48.39316224667793
 30
0.0
 11
45.19281564206075
 21
-52.52298964320205
 31
0.0
  0
LINE
  5
179
330
17
100
AcDbEntity
  8
visible
100
AcDbLine
 10
39.42846090659068
 20
-51.87893184806211
 30
0.0
 11
39.42846090659068
 21
-56.00875924458623
 31
0.0
  0
LINE
  5
17A
330
17
100
AcDbEntity
  8
visible
100
AcDbLine
 10
45.19281564206075
 20
-52.52298964320206
 30
0.0
 11
39.428460906590686
 21
-56.00875924458624
 31
0.0
  0
ELLIPSE
  5
17B
330
17
100
AcDbEntity
  8
visible
100
AcDbEllipse
 10
38.19324203470424
 20
-54.69079617519221
 30
0.0
 11
-0.40388370953475106
 21
-1.54818537300042
 31
0.0
 40
0.5038262457106428
 41
5.190166083854647
 42
6.283185307179586
  0
ELLIPSE
  5
17C
330
17
100
AcDbEntity
  8
visible
100
AcDbEllipse
 10
38.19324203470424
 20
-54.69079617519221
 30
0.0
 11
-0.40388370953475106
 21
-1.54818537300042
 31
0.0
 40
0.5038262457106428
 41
0.0
 42
3.141592653589793
  0
ELLIPSE
  5
17D
330
17
100
AcDbEntity
  8
visible
100
AcDbEllipse
 10
38.19324203470424
 20
-54.69079617519221
 30
0.0
 11
-0.40388370953475106
 21
-1.54818537300042
 31
0.0
 40
0.5038262457106428
 41
3.141592653589793
 42
5.190166083854647
  0
LINE
  5
17E
330
17
100
AcDbEntity
  8
visible
100
AcDbLine
 10
43.52115276895743
 20
-52.08689367300695
 30
0.0
 11
45.19281564206075
 21
-52.52298964320205
 31
0.0
  0
ELLIPSE
  5
17F
330
17
100
AcDbEntity
  8
visible
100
AcDbEllipse
 10
-17.704803802923024
 20
23.250066263133135
 30
0.0
 11
5.95075469022429
 21
-9.840656411885014
 31
0.0
 40
0.7670754590104826
 41
-6.283185307179586
 42
-5.379975506657335
  0
ELLIPSE
  5
180
330
17
100
AcDbEntity
  8
visible
100
AcDbEllipse
 10
-17.704803802923024
 20
23.250066263133135
 30
0.0
 11
5.95075469022429
 21
-9.840656411885014
 31
0.0
 40
0.7670754590104826
 41
-5.379975506657335
 42
-3.141592653589793
  0
ELLIPSE
  5
181
330
17
100
AcDbEntity
  8
visible
100
AcDbEllipse
 10
-18.802776133488752
 20
22.58611014858377
 30
0.0
 11
5.95075469022429
 21
-9.840656411885014
 31
0.0
 40
0.7670754590104826
 41
-6.283185307179586
 42
-5.379975506657335
  0
ELLIPSE
  5
182
330
17
100
AcDbEntity
  8
visible
100
AcDbEllipse
 10
-18.802776133488752
 20
22.58611014858377
 30
0.0
 11
5.95075469022429
 21
-9.840656411885014
 31
0.0
 40
0.7670754590104826
 41
-3.141592653589793
 42
-2.220446049250313e-16
  0
ELLIPSE
  5
183
330
17
100
AcDbEntity
  8
visible
100
AcDbEllipse
 10
-18.802776133488752
 20
22.58611014858377
 30
0.0
 11
5.95075469022429
 21
-9.840656411885014
 31
0.0
 40
0.7670754590104826
 41
-5.379975506657335
 42
-3.141592653589793
  0
LINE
  5
184
330
17
100
AcDbEntity
  8
visible
100
AcDbLine
 10
-57.9756839537706
 20
-42.44022679965285
 30
0.0
 11
-57.9756839537706
 21
-37.39265998167892
 31
0.0
  0
LINE
  5
185
330
17
100
AcDbEntity
  8
visible
100
AcDbLine
 10
-57.9756839537706
 20
-65.10839050946305
 30
0.0
 11
-57.9756839537706
 21
-53.45309985705052
 31
0.0
  0
ELLIPSE
  5
186
330
17
100
AcDbEntity
  8
visible
100
AcDbEllipse
 10
-51.38784997037623
 20
-61.12465382216684
 30
0.0
 11
-12.0
 21
-3.6292099870939615e-16
 31
0.0
 40
0.39718302370189007
 41
-6.283185307179586
 42
-5.293539768864522
  0
LINE
  5
187
330
17
100
AcDbEntity
  8
visible
100
AcDbLine
 10
5.547505224155767
 20
-81.68003737687711
 30
0.0
 11
5.547505224155767
 21
-53.96430684909298
 31
0.0
  0
LINE
  5
188
330
17
100
AcDbEntity
  8
visible
100
AcDbLine
 10
5.547505224155767
 20
-81.68003737687712
 30
0.0
 11
-57.9756839537706
 21
-65.10839050946305
 31
0.0
  0
ELLIPSE
  5
189
330
17
100
AcDbEntity
  8
visible
100
AcDbEllipse
 10
-57.53649502154431
 20
-64.8428080636433
 30
0.0
 11
-0.20194185476737583
 21
-0.7740926865002099
 31
0.0
 40
0.5038262457106429
 41
5.190166083854647
 42
6.283185307179586
  0
ELLIPSE
  5
18A
330
17
100
AcDbEntity
  8
visible
100
AcDbEllipse
 10
-57.37179917195944
 20
-36.935710176531785
 30
0.0
 11
-0.1262136592296099
 21
-0.48380792906263115
 31
0.0
 40
0.5038262457106429
 41
5.190166083854647
 42
5.39152400464498
  0
ELLIPSE
  5
18B
330
17
100
AcDbEntity
  8
visible
100
AcDbEllipse
 10
-51.38784997037623
 20
-33.317149352237735
 30
0.0
 11
-11.4
 21
-3.4477494877392637e-16
 31
0.0
 40
0.39718302370189007
 41
-6.1520105113319445
 42
-5.293539768864522
  0
LINE
  5
18C
330
17
100
AcDbEntity
  8
visible
100
AcDbLine
 10
5.876896923325493
 20
-53.6733460725832
 30
0.0
 11
-57.646292254600866
 21
-37.10169920516913
 31
0.0
  0
ELLIPSE
  5
18D
330
17
100
AcDbEntity
  8
visible
100
AcDbEllipse
 10
6.151390005966924
 20
-53.50735704394586
 30
0.0
 11
-0.1262136592296099
 21
-0.48380792906263115
 31
0.0
 40
0.5038262457106429
 41
5.190166083854647
 42
5.39152400464498
  0
ELLIPSE
  5
18E
330
17
100
AcDbEntity
  8
visible
100
AcDbEllipse
 10
21.245901865963262
 20
-52.26551925721513
 30
0.0
 11
0.25872846479236034
 21
-0.42785462660369633
 31
0.0
 40
0.7670754590104828
 41
-5.581333427447667
 42
-5.379975506657335
  0
ELLIPSE
  5
18F
330
17
100
AcDbEntity
  8
visible
100
AcDbEllipse
 10
12.13533920755014
 20
-49.888796219651795
 30
0.0
 11
-11.4
 21
-3.4477494877392637e-16
 31
0.0
 40
0.39718302370189007
 41
-5.293539768864522
 42
-3.7227434420696257
  0
LINE
  5
190
330
17
100
AcDbEntity
  8
visible
100
AcDbLine
 10
53.50501517064521
 20
-33.11981592783224
 30
0.0
 11
21.66381758423909
 21
-52.3745432497639
 31
0.0
  0
ELLIPSE
  5
191
330
17
100
AcDbEntity
  8
visible
100
AcDbEllipse
 10
53.08709945236938
 20
-33.010791935283464
 30
0.0
 11
0.2587284647923606
 21
-0.4278546266036961
 31
0.0
 40
0.7670754590104831
 41
-5.581333427447667
 42
-5.379975506657335
  0
ELLIPSE
  5
192
330
17
100
AcDbEntity
  8
visible
100
AcDbEllipse
 10
43.97653679395626
 20
-30.634068897720134
 30
0.0
 11
-11.4
 21
-3.4477494877392637e-16
 31
0.0
 40
0.39718302370189007
 41
-3.7227434420696253
 42
-3.2727674494374344
  0
ELLIPSE
  5
193
330
17
100
AcDbEntity
  8
visible
100
AcDbEllipse
 10
43.97653679395625
 20
-58.44157336764925
 30
0.0
 11
-12.0
 21
-3.6292099870939615e-16
 31
0.0
 40
0.39718302370189007
 41
-3.722743442069626
 42
-3.141592653589793
  0
ELLIPSE
  5
194
330
17
100
AcDbEntity
  8
visible
100
AcDbEllipse
 10
12.135339207550134
 20
-77.69630068958091
 30
0.0
 11
-12.0
 21
-3.6292099870939615e-16
 31
0.0
 40
0.39718302370189007
 41
-5.293539768864522
 42
-3.7227434420696257
  0
ELLIPSE
  5
195
330
17
100
AcDbEntity
  8
visible
100
AcDbEllipse
 10
5.986694156382054
 20
-81.41445493105738
 30
0.0
 11
-0.20194185476737583
 21
-0.7740926865002099
 31
0.0
 40
0.5038262457106429
 41
5.190166083854647
 42
6.283185307179586
  0
LINE
  5
196
330
17
100
AcDbEntity
  8
visible
100
AcDbLine
 10
-31.382697232003217
 20
-49.62560247756
 30
0.0
 11
-31.712088931172936
 21
-49.82478931192481
 31
0.0
  0
LINE
  5
197
330
17
100
AcDbEntity
  8
visible
100
AcDbLine
 10
-32.084052858816705
 20
-49.29520612402136
 30
0.0
 11
-32.41344455798642
 21
-49.49439295838617
 31
0.0
  0
LINE
  5
198
330
17
100
AcDbEntity
  8
visible
100
AcDbLine
 10
-33.64389062761576
 20
-49.01845998285355
 30
0.0
 11
-33.97328232678548
 21
-49.21764681721836
 31
0.0
  0
LINE
  5
199
330
17
100
AcDbEntity
  8
visible
100
AcDbLine
 10
-34.20097554504399
 20
-50.65326679537854
 30
0.0
 11
-34.53036724421371
 21
-50.85245362974335
 31
0.0
  0
LINE
  5
19A
330
17
100
AcDbEntity
  8
visible
100
AcDbLine
 10
-33.64389062761576
 20
-52.57559647087531
 30
0.0
 11
-33.97328232678548
 21
-52.77478330524012
 31
0.0
  0
LINE
  5
19B
330
17
100
AcDbEntity
  8
visible
100
AcDbLine
 10
-32.11833500758152
 20
-53.62446359878082
 30
0.0
 11
-32.44772670675124
 21
-53.82365043314563
 31
0.0
  0
LINE
  5
19C
330
17
100
AcDbEntity
  8
visible
100
AcDbLine
 10
-31.402695152116024
 20
-53.69823157127262
 30
0.0
 11
-31.732086851285743
 21
-53.89741840563743
 31
0.0
  0
LINE
  5
19D
330
17
100
AcDbEntity
  8
visible
100
AcDbLine
 10
-57.64629225460088
 20
-37.10169920516913
 30
0.0
 11
-57.64629225460088
 21
-36.3773029163811
 31
0.0
  0
LINE
  5
19E
330
17
100
AcDbEntity
  8
visible
100
AcDbLine
 10
5.876896923325486
 20
-53.67334607258319
 30
0.0
 11
5.876896923325486
 21
-52.94593857346577
 31
0.0
  0
LINE
  5
19F
330
17
100
AcDbEntity
  8
visible
100
AcDbLine
 10
21.66381758423909
 20
-52.37454324976391
 30
0.0
 11
21.66381758423909
 21
-51.776490034068544
 31
0.0
  0
LINE
  5
1A0
330
17
100
AcDbEntity
  8
visible
100
AcDbLine
 10
53.5050151706452
 20
-33.11981592783224
 30
0.0
 11
53.5050151706452
 21
-32.54439331058322
 31
0.0
  0
ELLIPSE
  5
1A1
330
17
100
AcDbEntity
  8
visible
100
AcDbEllipse
 10
53.33784888333487
 20
-60.883710800741845
 30
0.0
 11
0.41396554366777655
 21
-0.6845674025659142
 31
0.0
 40
0.7670754590104828
 41
-6.283185307179586
 42
-5.379975506657335
  0
ELLIPSE
  5
1A2
330
17
100
AcDbEntity
  8
visible
100
AcDbEllipse
 10
21.49665129692876
 20
-80.1384381226735
 30
0.0
 11
0.41396554366777655
 21
-0.6845674025659142
 31
0.0
 40
0.7670754590104828
 41
-6.283185307179586
 42
-5.379975506657335
  0
LINE
  5
1A3
330
17
100
AcDbEntity
  8
visible
100
AcDbLine
 10
54.0065140325762
 20
-32.24113135529599
 30
0.0
 11
54.0065140325762
 21
-27.652434248046966
 31
0.0
  0
ELLIPSE
  5
1A4
330
17
100
AcDbEntity
  8
visible
100
AcDbEllipse
 10
43.97653679395625
 20
-25.035858426876324
 30
0.0
 11
-12.0
 21
-3.6292099870939615e-16
 31
0.0
 40
0.39718302370189007
 41
-3.722743442069626
 42
-3.141592653589793
  0
LINE
  5
1A5
330
17
100
AcDbEntity
  8
visible
100
AcDbLine
 10
22.16531644617009
 20
-51.49585867722765
 30
0.0
 11
22.16531644617009
 21
-46.907161569978626
 31
0.0
  0
LINE
  5
1A6
330
17
100
AcDbEntity
  8
visible
100
AcDbLine
 10
54.0065140325762
 20
-27.652434248046966
 30
0.0
 11
22.16531644617008
 21
-46.907161569978626
 31
0.0
  0
ELLIPSE
  5
1A7
330
17
100
AcDbEntity
  8
visible
100
AcDbEllipse
 10
12.135339207550134
 20
-44.290585748807985
 30
0.0
 11
-12.0
 21
-3.6292099870939615e-16
 31
0.0
 40
0.39718302370189007
 41
-5.293539768864522
 42
-3.7227434420696257
  0
LINE
  5
1A8
330
17
100
AcDbEntity
  8
visible
100
AcDbLine
 10
5.547505224155767
 20
-52.86301954335321
 30
0.0
 11
5.547505224155767
 21
-48.274322436104185
 31
0.0
  0
LINE
  5
1A9
330
17
100
AcDbEntity
  8
visible
100
AcDbLine
 10
5.547505224155767
 20
-48.27432243610419
 30
0.0
 11
-57.9756839537706
 21
-31.702675568690125
 31
0.0
  0
LINE
  5
1AA
330
17
100
AcDbEntity
  8
visible
100
AcDbLine
 10
-57.9756839537706
 20
-36.29137267593915
 30
0.0
 11
-57.9756839537706
 21
-31.702675568690125
 31
0.0
  0
ELLIPSE
  5
1AB
330
17
100
AcDbEntity
  8
visible
100
AcDbEllipse
 10
-51.38784997037623
 20
-27.718938881393917
 30
0.0
 11
-12.0
 21
-3.6292099870939615e-16
 31
0.0
 40
0.39718302370189007
 41
-6.283185307179586
 42
-5.293539768864522
  0
ELLIPSE
  5
1AC
330
17
100
AcDbEntity
  8
visible
100
AcDbEllipse
 10
12.135339207550134
 20
-43.55639421164814
 30
0.0
 11
-11.2
 21
-3.387262654621031e-16
 31
0.0
 40
0.39718302370189007
 41
-5.293539768864522
 42
-3.7227434420696257
  0
ELLIPSE
  5
1AD
330
17
100
AcDbEntity
  8
visible
100
AcDbEllipse
 10
53.33784888333487
 20
-27.47799585996892
 30
0.0
 11
-0.41396554366777655
 21
0.6845674025659142
 31
0.0
 40
0.7670754590104828
 41
4.044802454112045
 42
5.319669380827165
  0
ELLIPSE
  5
1AE
330
17
100
AcDbEntity
  8
visible
100
AcDbEllipse
 10
21.49665129692876
 20
-46.73272318190058
 30
0.0
 11
-0.41396554366777655
 21
0.6845674025659142
 31
0.0
 40
0.7670754590104828
 41
4.044802454112045
 42
5.325668569761727
  0
ELLIPSE
  5
1AF
330
17
100
AcDbEntity
  8
visible
100
AcDbEllipse
 10
5.986694156382054
 20
-48.00873999028445
 30
0.0
 11
0.20194185476737583
 21
0.7740926865002099
 31
0.0
 40
0.5038262457106429
 41
-5.601456586836598
 42
-4.234611876914732
  0
ELLIPSE
  5
1B0
330
17
100
AcDbEntity
  8
visible
100
AcDbEllipse
 10
-57.53649502154431
 20
-31.43709312287038
 30
0.0
 11
0.20194185476737583
 21
0.7740926865002099
 31
0.0
 40
0.5038262457106429
 41
-5.600748930253476
 42
-4.234611876914732
  0
ELLIPSE
  5
1B1
330
17
100
AcDbEntity
  8
visible
100
AcDbEllipse
 10
-51.38784997037623
 20
-26.250555807074235
 30
0.0
 11
-12.0
 21
-3.6292099870939615e-16
 31
0.0
 40
0.39718302370189007
 41
-6.283185307179586
 42
-5.293539768864522
  0
ELLIPSE
  5
1B2
330
17
100
AcDbEntity
  8
visible
100
AcDbEllipse
 10
-51.38784997037623
 20
-24.047981195594694
 30
0.0
 11
-12.0
 21
-3.6292099870939615e-16
 31
0.0
 40
0.39718302370189007
 41
-6.283185307179586
 42
-5.293539768864522
  0
LINE
  5
1B3
330
17
100
AcDbEntity
  8
visible
100
AcDbLine
 10
-57.9756839537706
 20
-30.234292494370436
 30
0.0
 11
-57.9756839537706
 21
-28.031717882890902
 31
0.0
  0
ELLIPSE
  5
1B4
330
17
100
AcDbEntity
  8
visible
100
AcDbEllipse
 10
-60.74916205975485
 20
-21.605843762502097
 30
0.0
 11
0.41396554366777655
 21
-0.6845674025659142
 31
0.0
 40
0.7670754590104828
 41
-3.809179179862438
 42
-3.141592653589793
  0
LINE
  5
1B5
330
17
100
AcDbEntity
  8
visible
100
AcDbLine
 10
-60.74916205975485
 20
-20.871652225342253
 30
0.0
 11
-49.70565658821
 21
-14.193521292740702
 31
0.0
  0
ELLIPSE
  5
1B6
330
17
100
AcDbEntity
  8
visible
100
AcDbEllipse
 10
-57.53649502154431
 20
-29.968710048550697
 30
0.0
 11
-0.20194185476737583
 21
-0.7740926865002099
 31
0.0
 40
0.5038262457106429
 41
5.190166083854647
 42
6.283185307179586
  0
ELLIPSE
  5
1B7
330
17
100
AcDbEntity
  8
visible
100
AcDbEllipse
 10
-57.53649502154431
 20
-27.766135437071156
 30
0.0
 11
0.20194185476737583
 21
0.7740926865002099
 31
0.0
 40
0.5038262457106429
 41
-5.805408203709629
 42
-4.234611876914732
  0
ELLIPSE
  5
1B8
330
17
100
AcDbEntity
  8
visible
100
AcDbEllipse
 10
-51.38784997037623
 20
-23.31378965843485
 30
0.0
 11
-11.2
 21
-3.387262654621031e-16
 31
0.0
 40
0.39718302370189007
 41
-6.864336095659419
 42
-5.293539768864522
  0
LINE
  5
1B9
330
17
100
AcDbEntity
  8
visible
100
AcDbLine
 10
5.547505224155767
 20
-46.80593936178451
 30
0.0
 11
-57.9756839537706
 21
-30.234292494370443
 31
0.0
  0
LINE
  5
1BA
330
17
100
AcDbEntity
  8
visible
100
AcDbLine
 10
5.547505224155767
 20
-44.60336475030497
 30
0.0
 11
-18.948810182503827
 21
-38.2128750137944
 31
0.0
  0
LINE
  5
1BB
330
17
100
AcDbEntity
  8
visible
100
AcDbLine
 10
-37.07478224657589
 20
-33.48425209574367
 30
0.0
 11
-57.9756839537706
 21
-28.031717882890902
 31
0.0
  0
LINE
  5
1BC
330
17
100
AcDbEntity
  8
visible
100
AcDbLine
 10
5.547505224155767
 20
-46.8059393617845
 30
0.0
 11
5.547505224155767
 21
-44.60336475030497
 31
0.0
  0
LINE
  5
1BD
330
17
100
AcDbEntity
  8
visible
100
AcDbLine
 10
5.986694156382054
 20
-43.60359076732538
 30
0.0
 11
-11.774155102704075
 21
-38.97021946157199
 31
0.0
  0
LINE
  5
1BE
330
17
100
AcDbEntity
  8
visible
100
AcDbLine
 10
-41.701032969649106
 20
-31.163028760454356
 30
0.0
 11
-57.53649502154431
 21
-27.03194389991131
 31
0.0
  0
LINE
  5
1BF
330
17
100
AcDbEntity
  8
visible
100
AcDbLine
 10
42.294343411790024
 20
-14.86968068499372
 30
0.0
 11
50.12518184512433
 21
-16.912554962440794
 31
0.0
  0
ELLIPSE
  5
1C0
330
17
100
AcDbEntity
  8
visible
100
AcDbEllipse
 10
12.135339207550134
 20
-39.88543652584892
 30
0.0
 11
-11.2
 21
-3.387262654621031e-16
 31
0.0
 40
0.39718302370189007
 41
-5.293539768864522
 42
-3.7227434420696257
  0
ELLIPSE
  5
1C1
330
17
100
AcDbEntity
  8
visible
100
AcDbEllipse
 10
43.97653679395625
 20
-20.630709203917256
 30
0.0
 11
-11.2
 21
-3.387262654621031e-16
 31
0.0
 40
0.39718302370189007
 41
-3.722743442069626
 42
-2.1519471152747296
  0
LINE
  5
1C2
330
17
100
AcDbEntity
  8
visible
100
AcDbLine
 10
53.33784888333487
 20
-23.072846637009853
 30
0.0
 11
21.496651296928754
 21
-42.327573958941514
 31
0.0
  0
ELLIPSE
  5
1C3
330
17
100
AcDbEntity
  8
visible
100
AcDbEllipse
 10
5.986694156382054
 20
-46.540356915964765
 30
0.0
 11
-0.20194185476737583
 21
-0.7740926865002099
 31
0.0
 40
0.5038262457106429
 41
5.190166083854647
 42
6.283185307179586
  0
ELLIPSE
  5
1C4
330
17
100
AcDbEntity
  8
visible
100
AcDbEllipse
 10
5.986694156382054
 20
-44.33778230448522
 30
0.0
 11
0.20194185476737583
 21
0.7740926865002099
 31
0.0
 40
0.5038262457106429
 41
-5.805408203709629
 42
-4.234611876914732
  0
LINE
  5
1C5
330
17
100
AcDbEntity
  8
visible
100
AcDbLine
 10
22.16531644617009
 20
-45.43877849565894
 30
0.0
 11
22.16531644617009
 21
-43.2362038841794
 31
0.0
  0
ELLIPSE
  5
1C6
330
17
100
AcDbEntity
  8
visible
100
AcDbEllipse
 10
12.135339207550134
 20
-42.8222026744883
 30
0.0
 11
-12.0
 21
-3.6292099870939615e-16
 31
0.0
 40
0.39718302370189007
 41
-5.293539768864522
 42
-3.7227434420696257
  0
ELLIPSE
  5
1C7
330
17
100
AcDbEntity
  8
visible
100
AcDbEllipse
 10
12.135339207550134
 20
-40.61962806300876
 30
0.0
 11
-12.0
 21
-3.6292099870939615e-16
 31
0.0
 40
0.39718302370189007
 41
-5.293539768864522
 42
-3.7227434420696257
  0
ELLIPSE
  5
1C8
330
17
100
AcDbEntity
  8
visible
100
AcDbEllipse
 10
21.49665129692876
 20
-45.26434010758091
 30
0.0
 11
0.41396554366777655
 21
-0.6845674025659142
 31
0.0
 40
0.7670754590104828
 41
-6.283185307179586
 42
-5.379975506657335
  0
ELLIPSE
  5
1C9
330
17
100
AcDbEntity
  8
visible
100
AcDbEllipse
 10
43.97653679395625
 20
-23.56747535255664
 30
0.0
 11
-12.0
 21
-3.6292099870939615e-16
 31
0.0
 40
0.39718302370189007
 41
-3.722743442069626
 42
-3.141592653589793
  0
ELLIPSE
  5
1CA
330
17
100
AcDbEntity
  8
visible
100
AcDbEllipse
 10
53.33784888333487
 20
-26.00961278564924
 30
0.0
 11
0.41396554366777655
 21
-0.6845674025659142
 31
0.0
 40
0.7670754590104828
 41
-6.283185307179586
 42
-5.379975506657335
  0
LINE
  5
1CB
330
17
100
AcDbEntity
  8
visible
100
AcDbLine
 10
54.0065140325762
 20
-26.184051173727283
 30
0.0
 11
22.16531644617008
 21
-45.43877849565895
 31
0.0
  0
ELLIPSE
  5
1CC
330
17
100
AcDbEntity
  8
visible
100
AcDbEllipse
 10
50.12518184512433
 20
-17.64674649960064
 30
0.0
 11
-0.20194185476737583
 21
-0.7740926865002099
 31
0.0
 40
0.5038262457106429
 41
3.141592653589793
 42
3.6193697570597507
  0
ELLIPSE
  5
1CD
330
17
100
AcDbEntity
  8
visible
100
AcDbEllipse
 10
21.49665129692876
 20
-43.06176549610136
 30
0.0
 11
-0.41396554366777655
 21
0.6845674025659142
 31
0.0
 40
0.7670754590104828
 41
4.044802454112045
 42
5.615598780906941
  0
ELLIPSE
  5
1CE
330
17
100
AcDbEntity
  8
visible
100
AcDbEllipse
 10
43.97653679395625
 20
-21.3649007410771
 30
0.0
 11
-12.0
 21
-3.6292099870939615e-16
 31
0.0
 40
0.39718302370189007
 41
-3.722743442069626
 42
-3.141592653589793
  0
ELLIPSE
  5
1CF
330
17
100
AcDbEntity
  8
visible
100
AcDbEllipse
 10
53.33784888333487
 20
-23.807038174169698
 30
0.0
 11
-0.41396554366777655
 21
0.6845674025659142
 31
0.0
 40
0.7670754590104828
 41
4.044802454112045
 42
5.615598780906941
  0
LINE
  5
1D0
330
17
100
AcDbEntity
  8
visible
100
AcDbLine
 10
54.0065140325762
 20
-23.981476562247742
 30
0.0
 11
22.16531644617008
 21
-43.2362038841794
 31
0.0
  0
LINE
  5
1D1
330
17
100
AcDbEntity
  8
visible
100
AcDbLine
 10
54.0065140325762
 20
-26.184051173727276
 30
0.0
 11
54.0065140325762
 21
-23.981476562247742
 31
0.0
  0
LINE
  5
1D2
330
17
100
AcDbEntity
  8
visible
100
AcDbLine
 10
24.00030270426854
 20
-20.542865600554457
 30
0.0
 11
24.00030270426854
 21
-14.669333303275701
 31
0.0
  0
ELLIPSE
  5
1D3
330
17
100
AcDbEntity
  8
visible
100
AcDbEllipse
 10
19.821145521510232
 20
-13.579093377787942
 30
0.0
 11
-5.0
 21
-1.5121708279558175e-16
 31
0.0
 40
0.39718302370189007
 41
-5.293539768864522
 42
-3.7227434420696257
  0
LINE
  5
1D4
330
17
100
AcDbEntity
  8
visible
100
AcDbLine
 10
17.07621469509591
 20
-21.11251596144011
 30
0.0
 11
17.07621469509591
 21
-15.238983664161355
 31
0.0
  0
LINE
  5
1D5
330
17
100
AcDbEntity
  8
visible
100
AcDbLine
 10
40.469887662754466
 20
-4.7099915850351906
 30
0.0
 11
24.000302704268545
 21
-14.669333303275705
 31
0.0
  0
LINE
  5
1D6
330
17
100
AcDbEntity
  8
visible
100
AcDbLine
 10
40.469887662754466
 20
-10.58352388231394
 30
0.0
 11
40.469887662754466
 21
-4.709991585035185
 31
0.0
  0
ELLIPSE
  5
1D7
330
17
100
AcDbEntity
  8
visible
100
AcDbEllipse
 10
23.331637555027214
 20
-14.494894915197662
 30
0.0
 11
-0.41396554366777655
 21
0.6845674025659142
 31
0.0
 40
0.7670754590104828
 41
4.044802454112045
 42
5.615598780906941
  0
ELLIPSE
  5
1D8
330
17
100
AcDbEntity
  8
visible
100
AcDbEllipse
 10
19.821145521510232
 20
-12.844901840628083
 30
0.0
 11
-4.2
 21
-1.2702234954828867e-16
 31
0.0
 40
0.39718302370189007
 41
-5.293539768864522
 42
-3.7227434420696257
  0
ELLIPSE
  5
1D9
330
17
100
AcDbEntity
  8
visible
100
AcDbEllipse
 10
17.5154036273222
 20
-14.973401218341614
 30
0.0
 11
0.20194185476737583
 21
0.7740926865002099
 31
0.0
 40
0.5038262457106429
 41
-5.805408203709629
 42
-4.234611876914732
  0
LINE
  5
1DA
330
17
100
AcDbEntity
  8
visible
100
AcDbLine
 10
13.732888948889261
 20
-20.2403240210499
 30
0.0
 11
13.732888948889261
 21
-14.366791723771145
 31
0.0
  0
LINE
  5
1DB
330
17
100
AcDbEntity
  8
visible
100
AcDbLine
 10
17.07621469509591
 20
-15.23898366416136
 30
0.0
 11
13.732888948889256
 21
-14.366791723771145
 31
0.0
  0
ELLIPSE
  5
1DC
330
17
100
AcDbEntity
  8
visible
100
AcDbEllipse
 10
39.80122251351314
 20
-4.535553196957153
 30
0.0
 11
-0.4139655436677765
 21
0.6845674025659142
 31
0.0
 40
0.7670754590104826
 41
4.044802454112045
 42
5.615598780906941
  0
LINE
  5
1DD
330
17
100
AcDbEntity
  8
visible
100
AcDbLine
 10
39.80122251351314
 20
-3.801361659797294
 30
0.0
 11
23.331637555027218
 21
-13.760703378037809
 31
0.0
  0
ELLIPSE
  5
1DE
330
17
100
AcDbEntity
  8
visible
100
AcDbEllipse
 10
36.29073047999615
 20
-3.6197516595474255
 30
0.0
 11
-5.0
 21
-3.024341655911636e-16
 31
0.0
 40
0.3971830237018901
 41
-3.722743442069626
 42
-3.141592653589793
  0
ELLIPSE
  5
1DF
330
17
100
AcDbEntity
  8
visible
100
AcDbEllipse
 10
36.29073047999615
 20
-2.8855601223875667
 30
0.0
 11
-4.2
 21
-2.5404469909657743e-16
 31
0.0
 40
0.3971830237018901
 41
-3.722743442069626
 42
-3.193723825345246
  0
LINE
  5
1E0
330
17
100
AcDbEntity
  8
visible
100
AcDbLine
 10
17.5154036273222
 20
-14.239209681181755
 30
0.0
 11
14.172077881115547
 21
-13.36701774079154
 31
0.0
  0
ELLIPSE
  5
1E1
330
17
100
AcDbEntity
  8
visible
100
AcDbEllipse
 10
16.47781977530358
 20
-11.972709900237867
 30
0.0
 11
-4.2
 21
-2.5404469909657743e-16
 31
0.0
 40
0.3971830237018901
 41
-6.395081979232776
 42
-5.293539768864522
  0
ELLIPSE
  5
1E2
330
17
100
AcDbEntity
  8
visible
100
AcDbEllipse
 10
14.172077881115555
 20
-14.101209277951398
 30
0.0
 11
0.20194185476737583
 21
0.7740926865002099
 31
0.0
 40
0.5038262457106429
 41
-5.805408203709629
 42
-4.234611876914732
  0
ELLIPSE
  5
1E3
330
17
100
AcDbEntity
  8
visible
100
AcDbEllipse
 10
16.47781977530358
 20
-12.706901437397725
 30
0.0
 11
-5.0
 21
-3.024341655911636e-16
 31
0.0
 40
0.3971830237018901
 41
-6.283185307179586
 42
-5.293539768864522
  0
ELLIPSE
  5
1E4
330
17
100
AcDbEntity
  8
visible
100
AcDbEllipse
 10
14.339244168425886
 20
-4.141459181168024
 30
0.0
 11
0.8
 21
1.451683994837585e-16
 31
0.0
 40
0.3971830237018903
 41
4.131238191904856
 42
5.4488400172976865
  0
ELLIPSE
  5
1E5
330
17
100
AcDbEntity
  8
visible
100
AcDbEllipse
 10
23.781806211291148
 20
1.5685634039565386
 30
0.0
 11
4.543691732265956
 21
17.41708544625472
 31
0.0
 40
0.5038262457106428
 41
-4.234611876914732
 42
-3.6388843443453713
  0
ELLIPSE
  5
1E6
330
17
100
AcDbEntity
  8
visible
100
AcDbEllipse
 10
20.10414789046383
 20
2.52797453838577
 30
0.0
 11
4.543691732265956
 21
17.41708544625472
 31
0.0
 40
0.5038262457106428
 41
-4.234611876914732
 42
-3.632334561939466
  0
LINE
  5
1E7
330
17
100
AcDbEntity
  8
visible
100
AcDbLine
 10
10.22239691537228
 20
-3.4476304925585364
 30
0.0
 11
13.900055236199595
 21
-4.407041626987772
 31
0.0
  0
ELLIPSE
  5
1E8
330
17
100
AcDbEntity
  8
visible
100
AcDbEllipse
 10
10.661585847598571
 20
-3.1820480467387853
 30
0.0
 11
-0.8
 21
-1.451683994837585e-16
 31
0.0
 40
0.3971830237018903
 41
-6.283185307179586
 42
-5.293539768864522
  0
ELLIPSE
  5
1E9
330
17
100
AcDbEntity
  8
visible
100
AcDbEllipse
 10
22.300092551595288
 20
49.46753601353984
 30
0.0
 11
-0.41396554366777655
 21
0.6845674025659142
 31
0.0
 40
0.7670754590104828
 41
5.615598780906941
 42
6.283185307179586
  0
ELLIPSE
  5
1EA
330
17
100
AcDbEntity
  8
visible
100
AcDbEllipse
 10
22.300092551595288
 20
33.68241796460319
 30
0.0
 11
4.543691732265955
 21
17.41708544625472
 31
0.0
 40
0.5038262457106428
 41
-6.283185307179586
 42
-5.805408203709629
  0
ELLIPSE
  5
1EB
330
17
100
AcDbEntity
  8
visible
100
AcDbEllipse
 10
20.10414789046383
 20
48.13962378444111
 30
0.0
 11
-0.41396554366777655
 21
0.6845674025659141
 31
0.0
 40
0.7670754590104826
 41
5.615598780906941
 42
6.283185307179586
  0
LINE
  5
1EC
330
17
100
AcDbEntity
  8
visible
100
AcDbLine
 10
20.10414789046383
 20
48.87381532160096
 30
0.0
 11
22.300092551595288
 21
50.201727550699694
 31
0.0
  0
ELLIPSE
  5
1ED
330
17
100
AcDbEntity
  8
visible
100
AcDbEllipse
 10
10.661585847598571
 20
26.644483150379898
 30
0.0
 11
-0.8
 21
-2.4194733247293078e-17
 31
0.0
 40
0.39718302370189007
 41
-6.283185307179586
 42
-5.293539768864522
  0
ELLIPSE
  5
1EE
330
17
100
AcDbEntity
  8
visible
100
AcDbEllipse
 10
20.10414789046383
 20
32.35450573550446
 30
0.0
 11
4.543691732265956
 21
17.41708544625472
 31
0.0
 40
0.5038262457106429
 41
-5.805408203709629
 42
-4.234611876914732
  0
LINE
  5
1EF
330
17
100
AcDbEntity
  8
visible
100
AcDbLine
 10
10.22239691537228
 20
-3.447630492558538
 30
0.0
 11
10.22239691537228
 21
26.37890070456014
 31
0.0
  0
ELLIPSE
  5
1F0
330
17
100
AcDbEntity
  8
visible
100
AcDbEllipse
 10
14.339244168425886
 20
25.685072015950652
 30
0.0
 11
0.8
 21
2.4194733247293078e-17
 31
0.0
 40
0.39718302370189007
 41
4.131238191904856
 42
5.449239256539418
  0
LINE
  5
1F1
330
17
100
AcDbEntity
  8
visible
100
AcDbLine
 10
13.900055236199595
 20
-4.407041626987777
 30
0.0
 11
13.900055236199595
 21
25.419489570130903
 31
0.0
  0
ELLIPSE
  5
1F2
330
17
100
AcDbEntity
  8
visible
100
AcDbEllipse
 10
23.781806211291148
 20
31.395094601075215
 30
0.0
 11
4.543691732265956
 21
17.41708544625472
 31
0.0
 40
0.5038262457106429
 41
-5.805408203709629
 42
-4.234611876914732
  0
ELLIPSE
  5
1F3
330
17
100
AcDbEntity
  8
visible
100
AcDbEllipse
 10
23.781806211291148
 20
47.18021265001187
 30
0.0
 11
0.41396554366777655
 21
-0.6845674025659141
 31
0.0
 40
0.7670754590104826
 41
-4.9616494515659335
 42
-3.809179179862438
  0
LINE
  5
1F4
330
17
100
AcDbEntity
  8
visible
100
AcDbLine
 10
23.781806211291148
 20
47.91440418717171
 30
0.0
 11
25.977750872422604
 21
49.24231641627045
 31
0.0
  0
ELLIPSE
  5
1F5
330
17
100
AcDbEntity
  8
visible
100
AcDbEllipse
 10
25.977750872422604
 20
48.50812487911061
 30
0.0
 11
0.41396554366777655
 21
-0.6845674025659142
 31
0.0
 40
0.7670754590104828
 41
-4.952885509405623
 42
-3.809179179862438
  0
ELLIPSE
  5
1F6
330
17
100
AcDbEntity
  8
visible
100
AcDbEllipse
 10
25.977750872422604
 20
32.72300683017396
 30
0.0
 11
4.543691732265955
 21
17.41708544625472
 31
0.0
 40
0.5038262457106428
 41
-6.283185307179586
 42
-5.805408203709629
  0
LINE
  5
1F7
330
17
100
AcDbEntity
  8
visible
100
AcDbLine
 10
10.22239691537228
 20
26.378900704560152
 30
0.0
 11
13.900055236199595
 21
25.419489570130917
 31
0.0
  0
LINE
  5
1F8
330
17
100
AcDbEntity
  8
visible
100
AcDbLine
 10
22.300092551595288
 20
50.20172755069969
 30
0.0
 11
25.977750872422604
 21
49.242316416270455
 31
0.0
  0
LINE
  5
1F9
330
17
100
AcDbEntity
  8
visible
100
AcDbLine
 10
20.10414789046383
 20
48.87381532160096
 30
0.0
 11
23.781806211291148
 21
47.914404187171726
 31
0.0
  0
ELLIPSE
  5
1FA
330
17
100
AcDbEntity
  8
visible
100
AcDbEllipse
 10
23.331637555027214
 20
-20.36842721247642
 30
0.0
 11
0.41396554366777655
 21
-0.6845674025659142
 31
0.0
 40
0.7670754590104828
 41
-0.6675865262726449
 42
-0.16222601598847397
  0
ELLIPSE
  5
1FB
330
17
100
AcDbEntity
  8
visible
100
AcDbEllipse
 10
19.821145521510232
 20
-20.186817212226536
 30
0.0
 11
-4.2
 21
-1.2702234954828867e-16
 31
0.0
 40
0.39718302370189007
 41
-5.293539768864522
 42
-3.7227434420696257
  0
ELLIPSE
  5
1FC
330
17
100
AcDbEntity
  8
visible
100
AcDbEllipse
 10
17.5154036273222
 20
-20.846933515620364
 30
0.0
 11
-0.20194185476737583
 21
-0.7740926865002099
 31
0.0
 40
0.5038262457106429
 41
0.0
 42
0.4777771034699574
  0
ELLIPSE
  5
1FD
330
17
100
AcDbEntity
  8
visible
100
AcDbEllipse
 10
39.80122251351314
 20
-10.409085494235896
 30
0.0
 11
0.4139655436677765
 21
-0.6845674025659142
 31
0.0
 40
0.7670754590104826
 41
-0.6675865262726447
 42
-0.16222601598847375
  0
ELLIPSE
  5
1FE
330
17
100
AcDbEntity
  8
visible
100
AcDbEllipse
 10
14.172077881115555
 20
-19.974741575230148
 30
0.0
 11
-0.20194185476737583
 21
-0.7740926865002099
 31
0.0
 40
0.5038262457106429
 41
0.027583406814107647
 42
0.4777771034699576
  0
ELLIPSE
  5
1FF
330
17
100
AcDbEntity
  8
visible
100
AcDbEllipse
 10
25.119136509773803
 20
46.83133587385579
 30
0.0
 11
-0.41396554366777655
 21
0.6845674025659141
 31
0.0
 40
0.7670754590104826
 41
5.615598780906941
 42
6.283185307179586
  0
LINE
  5
200
330
17
100
AcDbEntity
  8
visible
100
AcDbLine
 10
25.119136509773803
 20
47.56552741101564
 30
0.0
 11
27.31508117090526
 21
48.89343964011437
 31
0.0
  0
ELLIPSE
  5
201
330
17
100
AcDbEntity
  8
visible
100
AcDbEllipse
 10
27.31508117090526
 20
48.15924810295452
 30
0.0
 11
-0.41396554366777655
 21
0.6845674025659142
 31
0.0
 40
0.7670754590104828
 41
5.615598780906941
 42
6.283185307179586
  0
LINE
  5
202
330
17
100
AcDbEntity
  8
visible
100
AcDbLine
 10
27.31508117090526
 20
48.893439640114366
 30
0.0
 11
32.49723607752557
 21
47.541542132509534
 31
0.0
  0
LINE
  5
203
330
17
100
AcDbEntity
  8
visible
100
AcDbLine
 10
25.119136509773803
 20
47.56552741101564
 30
0.0
 11
30.301291416394115
 21
46.213629903410805
 31
0.0
  0
ELLIPSE
  5
204
330
17
100
AcDbEntity
  8
visible
100
AcDbEllipse
 10
25.119136509773803
 20
31.04621782491914
 30
0.0
 11
4.543691732265956
 21
17.41708544625472
 31
0.0
 40
0.5038262457106429
 41
-5.805408203709629
 42
-4.234611876914732
  0
LINE
  5
205
330
17
100
AcDbEntity
  8
visible
100
AcDbLine
 10
15.23738553468225
 20
25.07061279397482
 30
0.0
 11
20.419540441302562
 21
23.71871528636999
 31
0.0
  0
LINE
  5
206
330
17
100
AcDbEntity
  8
visible
100
AcDbLine
 10
15.23738553468225
 20
-4.755918403143859
 30
0.0
 11
15.23738553468225
 21
25.07061279397482
 31
0.0
  0
LINE
  5
207
330
17
100
AcDbEntity
  8
visible
100
AcDbLine
 10
15.23738553468225
 20
-4.755918403143856
 30
0.0
 11
20.419540441302562
 21
-6.107815910748689
 31
0.0
  0
ELLIPSE
  5
208
330
17
100
AcDbEntity
  8
visible
100
AcDbEllipse
 10
25.119136509773803
 20
1.2196866278004563
 30
0.0
 11
4.543691732265956
 21
17.41708544625472
 31
0.0
 40
0.5038262457106428
 41
-4.234611876914732
 42
-3.6588852289345417
  0
LINE
  5
209
330
17
100
AcDbEntity
  8
visible
100
AcDbLine
 10
37.57535810456211
 20
10.813039584320332
 30
0.0
 11
37.57535810456211
 21
19.623338030238667
 31
0.0
  0
ELLIPSE
  5
20A
330
17
100
AcDbEntity
  8
visible
100
AcDbEllipse
 10
47.017920147427375
 20
25.333360615363233
 30
0.0
 11
4.3417498774985805
 21
16.64299275975451
 31
0.0
 40
0.5038262457106429
 41
-4.349808280770822
 42
-4.234611876914732
  0
LINE
  5
20B
330
17
100
AcDbEntity
  8
visible
100
AcDbLine
 10
58.65642685142409
 20
32.371295429586525
 30
0.0
 11
58.65642685142409
 21
23.560996983668346
 31
0.0
  0
ELLIPSE
  5
20C
330
17
100
AcDbEntity
  8
visible
100
AcDbEllipse
 10
49.213864808558824
 20
26.661272844461962
 30
0.0
 11
4.341749877498579
 21
16.64299275975451
 31
0.0
 40
0.5038262457106428
 41
-1.093019223324939
 42
-0.9778228194688494
  0
ELLIPSE
  5
20D
330
17
100
AcDbEntity
  8
visible
100
AcDbEllipse
 10
57.98776170218276
 20
32.54573381766457
 30
0.0
 11
-0.8
 21
-7.258419974187925e-17
 31
0.0
 40
0.3971830237018902
 41
-3.722743442069626
 42
-3.2050266557232527
  0
ELLIPSE
  5
20E
330
17
100
AcDbEntity
  8
visible
100
AcDbEllipse
 10
36.906692955320786
 20
19.797776418316715
 30
0.0
 11
0.8
 21
2.4194733247293078e-17
 31
0.0
 40
0.39718302370189007
 41
5.18431773235338
 42
5.702034518699753
  0
ELLIPSE
  5
20F
330
17
100
AcDbEntity
  8
visible
100
AcDbEllipse
 10
48.86814077088959
 20
18.459158171726358
 30
0.0
 11
-3.5339824584290738
 21
-13.546622013753673
 31
0.0
 40
0.503826245710643
 41
3.1415926535897936
 42
6.283185307179586
  0
ELLIPSE
  5
210
330
17
100
AcDbEntity
  8
visible
100
AcDbEllipse
 10
49.202473345510256
 20
18.371938977687336
 30
0.0
 11
-3.433011531045386
 21
-13.159575670503568
 31
0.0
 40
0.503826245710643
 41
0.47777710346995755
 42
6.760962410649544
  0
ELLIPSE
  5
211
330
17
100
AcDbEntity
  8
visible
100
AcDbEllipse
 10
27.31508117090526
 20
32.37413005401787
 30
0.0
 11
4.543691732265955
 21
17.41708544625472
 31
0.0
 40
0.5038262457106428
 41
-6.283185307179586
 42
-5.805408203709629
  0
ELLIPSE
  5
212
330
17
100
AcDbEntity
  8
visible
100
AcDbEllipse
 10
15.67657446690854
 20
-4.490335957324106
 30
0.0
 11
-0.8
 21
-1.451683994837585e-16
 31
0.0
 40
0.3971830237018903
 41
-6.283185307179586
 42
-5.293539768864522
  0
ELLIPSE
  5
213
330
17
100
AcDbEntity
  8
visible
100
AcDbEllipse
 10
15.67657446690854
 20
25.336195239794577
 30
0.0
 11
-0.8
 21
-2.4194733247293078e-17
 31
0.0
 40
0.39718302370189007
 41
-6.283185307179586
 42
-5.293539768864522
  0
LINE
  5
214
330
17
100
AcDbEntity
  8
visible
100
AcDbLine
 10
-39.59315670310682
 20
9.548029419255654
 30
0.0
 11
-43.27081502393414
 21
10.50744055368489
 31
0.0
  0
LINE
  5
215
330
17
100
AcDbEntity
  8
visible
100
AcDbLine
 10
-39.59315670310682
 20
9.548029419255656
 30
0.0
 11
-39.59315670310682
 21
39.37456061637434
 31
0.0
  0
LINE
  5
216
330
17
100
AcDbEntity
  8
visible
100
AcDbLine
 10
-43.270815023934134
 20
10.507440553684887
 30
0.0
 11
-43.270815023934134
 21
40.33397175080357
 31
0.0
  0
LINE
  5
217
330
17
100
AcDbEntity
  8
visible
100
AcDbLine
 10
-39.59315670310682
 20
39.37456061637434
 30
0.0
 11
-43.27081502393414
 21
40.33397175080357
 31
0.0
  0
ELLIPSE
  5
218
330
17
100
AcDbEntity
  8
visible
100
AcDbEllipse
 10
-29.71140572801527
 20
15.523634450199964
 30
0.0
 11
4.543691732265956
 21
17.41708544625472
 31
0.0
 40
0.5038262457106428
 41
-4.234611876914732
 42
-3.9798627737661127
  0
ELLIPSE
  5
219
330
17
100
AcDbEntity
  8
visible
100
AcDbEllipse
 10
-33.389064048842584
 20
16.483045584629195
 30
0.0
 11
4.543691732265956
 21
17.41708544625472
 31
0.0
 40
0.5038262457106428
 41
-4.234611876914732
 42
-3.6455809066984584
  0
ELLIPSE
  5
21A
330
17
100
AcDbEntity
  8
visible
100
AcDbEllipse
 10
-39.15396777088053
 20
9.813611865075401
 30
0.0
 11
0.8
 21
1.451683994837585e-16
 31
0.0
 40
0.3971830237018903
 41
4.131238191904856
 42
5.702034518699753
  0
ELLIPSE
  5
21B
330
17
100
AcDbEntity
  8
visible
100
AcDbEllipse
 10
-39.15396777088053
 20
39.640143062194085
 30
0.0
 11
0.8
 21
2.4194733247293078e-17
 31
0.0
 40
0.39718302370189007
 41
4.131238191904856
 42
5.702034518699753
  0
ELLIPSE
  5
21C
330
17
100
AcDbEntity
  8
visible
100
AcDbEllipse
 10
-42.83162609170785
 20
10.773022999504633
 30
0.0
 11
-0.8
 21
-1.451683994837585e-16
 31
0.0
 40
0.3971830237018903
 41
-6.283185307179586
 42
-5.293539768864522
  0
ELLIPSE
  5
21D
330
17
100
AcDbEntity
  8
visible
100
AcDbEllipse
 10
-42.83162609170785
 20
40.599554196623316
 30
0.0
 11
-0.8
 21
-2.4194733247293078e-17
 31
0.0
 40
0.39718302370189007
 41
-6.283185307179586
 42
-5.293539768864522
  0
ELLIPSE
  5
21E
330
17
100
AcDbEntity
  8
visible
100
AcDbEllipse
 10
-29.71140572801527
 20
45.35016564731865
 30
0.0
 11
4.543691732265956
 21
17.41708544625472
 31
0.0
 40
0.5038262457106429
 41
-5.805408203709629
 42
-4.234611876914732
  0
ELLIPSE
  5
21F
330
17
100
AcDbEntity
  8
visible
100
AcDbEllipse
 10
-33.389064048842584
 20
46.30957678174788
 30
0.0
 11
4.543691732265956
 21
17.41708544625472
 31
0.0
 40
0.5038262457106429
 41
-5.805408203709629
 42
-4.234611876914732
  0
LINE
  5
220
330
17
100
AcDbEntity
  8
visible
100
AcDbLine
 10
-29.71140572801527
 20
61.869475233415145
 30
0.0
 11
-33.389064048842584
 21
62.828886367844376
 31
0.0
  0
ELLIPSE
  5
221
330
17
100
AcDbEntity
  8
visible
100
AcDbEllipse
 10
-43.70204365641613
 20
3.8185189689309595
 30
0.0
 11
4.2
 21
1.2702234954828867e-16
 31
0.0
 40
0.39718302370189007
 41
2.9803095210826984
 42
4.131238191904857
  0
LINE
  5
222
330
17
100
AcDbEntity
  8
visible
100
AcDbLine
 10
-46.00778555060416
 20
2.424211128377287
 30
0.0
 11
-42.66445980439751
 21
1.5520191879870722
 31
0.0
  0
ELLIPSE
  5
223
330
17
100
AcDbEntity
  8
visible
100
AcDbEllipse
 10
-40.358717910209485
 20
2.9463270285407432
 30
0.0
 11
4.2
 21
0.0
 31
0.0
 40
0.39718302370189007
 41
4.131238191904857
 42
4.848873603149441
  0
ELLIPSE
  5
224
330
17
100
AcDbEntity
  8
visible
100
AcDbEllipse
 10
-42.66445980439751
 20
0.8178276508272262
 30
0.0
 11
0.20194185476737583
 21
0.7740926865002099
 31
0.0
 40
0.5038262457106429
 41
-5.805408203709629
 42
-4.234611876914732
  0
ELLIPSE
  5
225
330
17
100
AcDbEntity
  8
visible
100
AcDbEllipse
 10
-40.358717910209485
 20
2.2121354913808986
 30
0.0
 11
5.0
 21
0.0
 31
0.0
 40
0.39718302370189007
 41
4.131238191904857
 42
4.974092874932235
  0
ELLIPSE
  5
226
330
17
100
AcDbEntity
  8
visible
100
AcDbEllipse
 10
-29.71140572801527
 20
61.1352836962553
 30
0.0
 11
0.41396554366777655
 21
-0.6845674025659141
 31
0.0
 40
0.7670754590104826
 41
-5.379975506657335
 42
-3.809179179862438
  0
ELLIPSE
  5
227
330
17
100
AcDbEntity
  8
visible
100
AcDbEllipse
 10
-33.389064048842584
 20
62.09469483068453
 30
0.0
 11
-0.41396554366777655
 21
0.6845674025659141
 31
0.0
 40
0.7670754590104826
 41
5.615598780906941
 42
6.283185307179586
  0
LINE
  5
228
330
17
100
AcDbEntity
  8
visible
100
AcDbLine
 10
-29.71140572801527
 20
61.869475233415145
 30
0.0
 11
-27.515461066883812
 21
63.19738746251388
 31
0.0
  0
LINE
  5
229
330
17
100
AcDbEntity
  8
visible
100
AcDbLine
 10
-33.389064048842584
 20
62.828886367844376
 30
0.0
 11
-31.19311938771113
 21
64.1567985969431
 31
0.0
  0
LINE
  5
22A
330
17
100
AcDbEntity
  8
visible
100
AcDbLine
 10
-27.515461066883812
 20
63.19738746251387
 30
0.0
 11
-31.19311938771113
 21
64.1567985969431
 31
0.0
  0
LINE
  5
22B
330
17
100
AcDbEntity
  8
visible
100
AcDbLine
 10
-43.1036487366238
 20
-5.321287092271277
 30
0.0
 11
-43.1036487366238
 21
0.5522452050074786
 31
0.0
  0
ELLIPSE
  5
22C
330
17
100
AcDbEntity
  8
visible
100
AcDbEllipse
 10
-40.358717910209485
 20
-3.6613968058978585
 30
0.0
 11
5.0
 21
0.0
 31
0.0
 40
0.39718302370189007
 41
4.131238191904857
 42
5.702034518699754
  0
ELLIPSE
  5
22D
330
17
100
AcDbEntity
  8
visible
100
AcDbEllipse
 10
-43.70204365641613
 20
3.084327431771115
 30
0.0
 11
5.0
 21
1.5121708279558175e-16
 31
0.0
 40
0.39718302370189007
 41
3.141592653589793
 42
4.131238191904857
  0
ELLIPSE
  5
22E
330
17
100
AcDbEntity
  8
visible
100
AcDbEllipse
 10
-46.00778555060416
 20
1.6900195912174425
 30
0.0
 11
0.20194185476737583
 21
0.7740926865002099
 31
0.0
 40
0.5038262457106429
 41
-5.805408203709629
 42
-4.234611876914732
  0
LINE
  5
22F
330
17
100
AcDbEntity
  8
visible
100
AcDbLine
 10
-46.446974482830456
 20
1.4244371453976967
 30
0.0
 11
-43.1036487366238
 21
0.5522452050074818
 31
0.0
  0
ELLIPSE
  5
230
330
17
100
AcDbEntity
  8
visible
100
AcDbEllipse
 10
-27.515461066883812
 20
62.46319592535403
 30
0.0
 11
0.41396554366777655
 21
-0.6845674025659142
 31
0.0
 40
0.7670754590104828
 41
-5.379975506657335
 42
-3.809179179862438
  0
ELLIPSE
  5
231
330
17
100
AcDbEntity
  8
visible
100
AcDbEllipse
 10
-27.515461066883812
 20
46.678077876417376
 30
0.0
 11
4.543691732265955
 21
17.41708544625472
 31
0.0
 40
0.5038262457106428
 41
-6.283185307179586
 42
-5.805408203709629
  0
ELLIPSE
  5
232
330
17
100
AcDbEntity
  8
visible
100
AcDbEllipse
 10
-31.19311938771113
 20
63.422607059783275
 30
0.0
 11
-0.41396554366777655
 21
0.6845674025659142
 31
0.0
 40
0.7670754590104828
 41
5.615598780906941
 42
6.283185307179586
  0
ELLIPSE
  5
233
330
17
100
AcDbEntity
  8
visible
100
AcDbEllipse
 10
-31.19311938771113
 20
47.63748901084662
 30
0.0
 11
4.543691732265955
 21
17.41708544625472
 31
0.0
 40
0.5038262457106428
 41
-6.283185307179586
 42
-5.805408203709629
  0
LINE
  5
234
330
17
100
AcDbEntity
  8
visible
100
AcDbLine
 10
-46.446974482830456
 20
-4.44909515188106
 30
0.0
 11
-43.1036487366238
 21
-5.321287092271275
 31
0.0
  0
LINE
  5
235
330
17
100
AcDbEntity
  8
visible
100
AcDbLine
 10
-46.446974482830456
 20
-4.44909515188106
 30
0.0
 11
-46.446974482830456
 21
1.424437145397695
 31
0.0
  0
ELLIPSE
  5
236
330
17
100
AcDbEntity
  8
visible
100
AcDbEllipse
 10
-42.66445980439751
 20
-5.055704646451531
 30
0.0
 11
-0.20194185476737583
 21
-0.7740926865002099
 31
0.0
 40
0.5038262457106429
 41
5.190166083854647
 42
6.283185307179586
  0
ELLIPSE
  5
237
330
17
100
AcDbEntity
  8
visible
100
AcDbEllipse
 10
-43.70204365641613
 20
-2.7892048655076422
 30
0.0
 11
5.0
 21
1.5121708279558175e-16
 31
0.0
 40
0.39718302370189007
 41
3.141592653589793
 42
4.131238191904857
  0
ELLIPSE
  5
238
330
17
100
AcDbEntity
  8
visible
100
AcDbEllipse
 10
-46.00778555060416
 20
-4.183512706061315
 30
0.0
 11
-0.20194185476737583
 21
-0.7740926865002099
 31
0.0
 40
0.5038262457106429
 41
5.190166083854647
 42
6.283185307179586
  0
ELLIPSE
  5
239
330
17
100
AcDbEntity
  8
visible
100
AcDbEllipse
 10
-34.72639434732524
 20
62.44357160684062
 30
0.0
 11
0.41396554366777655
 21
-0.6845674025659141
 31
0.0
 40
0.7670754590104826
 41
-4.961649451565952
 42
-3.809179179862438
  0
LINE
  5
23A
330
17
100
AcDbEntity
  8
visible
100
AcDbLine
 10
-34.72639434732524
 20
63.177763144000465
 30
0.0
 11
-32.53044968619378
 21
64.5056753730992
 31
0.0
  0
ELLIPSE
  5
23B
330
17
100
AcDbEntity
  8
visible
100
AcDbEllipse
 10
-32.53044968619378
 20
63.77148383593935
 30
0.0
 11
0.41396554366777655
 21
-0.6845674025659142
 31
0.0
 40
0.7670754590104828
 41
-4.952885509405604
 42
-3.809179179862438
  0
LINE
  5
23C
330
17
100
AcDbEntity
  8
visible
100
AcDbLine
 10
-32.53044968619378
 20
64.5056753730992
 30
0.0
 11
-37.712604592814095
 21
65.85757288070403
 31
0.0
  0
LINE
  5
23D
330
17
100
AcDbEntity
  8
visible
100
AcDbLine
 10
-34.72639434732524
 20
63.177763144000465
 30
0.0
 11
-39.90854925394555
 21
64.5296606516053
 31
0.0
  0
ELLIPSE
  5
23E
330
17
100
AcDbEntity
  8
visible
100
AcDbEllipse
 10
-34.72639434732524
 20
46.65845355790397
 30
0.0
 11
4.543691732265956
 21
17.41708544625472
 31
0.0
 40
0.5038262457106429
 41
-5.805408203709629
 42
-4.234611876914732
  0
LINE
  5
23F
330
17
100
AcDbEntity
  8
visible
100
AcDbLine
 10
-44.608145322416796
 20
40.68284852695966
 30
0.0
 11
-49.79030022903711
 21
42.03474603456449
 31
0.0
  0
LINE
  5
240
330
17
100
AcDbEntity
  8
visible
100
AcDbLine
 10
-44.60814532241679
 20
10.856317329840977
 30
0.0
 11
-44.60814532241679
 21
40.68284852695966
 31
0.0
  0
LINE
  5
241
330
17
100
AcDbEntity
  8
visible
100
AcDbLine
 10
-44.608145322416796
 20
10.856317329840975
 30
0.0
 11
-49.79030022903711
 21
12.208214837445807
 31
0.0
  0
ELLIPSE
  5
242
330
17
100
AcDbEntity
  8
visible
100
AcDbEllipse
 10
-34.72639434732524
 20
16.831922360785285
 30
0.0
 11
4.543691732265956
 21
17.41708544625472
 31
0.0
 40
0.5038262457106428
 41
-4.234611876914732
 42
-3.6588852289345417
  0
ELLIPSE
  5
243
330
17
100
AcDbEntity
  8
visible
100
AcDbEllipse
 10
-32.53044968619378
 20
47.9863657870027
 30
0.0
 11
4.543691732265955
 21
17.41708544625472
 31
0.0
 40
0.5038262457106428
 41
-6.283185307179586
 42
-5.805408203709629
  0
ELLIPSE
  5
244
330
17
100
AcDbEntity
  8
visible
100
AcDbEllipse
 10
-44.1689563901905
 20
11.121899775660722
 30
0.0
 11
0.8
 21
1.451683994837585e-16
 31
0.0
 40
0.3971830237018903
 41
4.131238191904856
 42
5.4488400172976865
  0
ELLIPSE
  5
245
330
17
100
AcDbEntity
  8
visible
100
AcDbEllipse
 10
-44.1689563901905
 20
40.948430972779406
 30
0.0
 11
0.8
 21
2.4194733247293078e-17
 31
0.0
 40
0.39718302370189007
 41
4.131238191904856
 42
5.449239256539361
  0
LINE
  5
246
330
17
100
AcDbEntity
  8
visible
100
AcDbLine
 10
0.2674252722630719
 20
1.1857592826382888
 30
0.0
 11
-0.5949637308686739
 21
0.6642630337715865
 31
0.0
  0
ELLIPSE
  5
247
330
17
100
AcDbEntity
  8
visible
100
AcDbEllipse
 10
-1.2636288801100015
 20
0.8387014218496347
 30
0.0
 11
-0.41396554366777655
 21
0.6845674025659142
 31
0.0
 40
0.7670754590104828
 41
4.044802454112045
 42
5.615598780906941
  0
ELLIPSE
  5
248
330
17
100
AcDbEntity
  8
visible
100
AcDbEllipse
 10
-2.2666266039719964
 20
1.1003590039666946
 30
0.0
 11
-2.0
 21
-6.04868331182327e-17
 31
0.0
 40
0.39718302370189007
 41
-5.293539768864522
 42
-3.7227434420696257
  0
ELLIPSE
  5
249
330
17
100
AcDbEntity
  8
visible
100
AcDbEllipse
 10
-2.925410002311434
 20
0.701985335237076
 30
0.0
 11
0.20194185476737583
 21
0.7740926865002099
 31
0.0
 40
0.5038262457106429
 41
-5.805408203709629
 42
-4.234611876914732
  0
LINE
  5
24A
330
17
100
AcDbEntity
  8
visible
100
AcDbLine
 10
-0.5949637308686704
 20
-2.4560509991577533
 30
0.0
 11
-0.5949637308686704
 21
0.6642630337715856
 31
0.0
  0
ELLIPSE
  5
24B
330
17
100
AcDbEntity
  8
visible
100
AcDbEllipse
 10
-2.2666266039719964
 20
-2.0199550289626487
 30
0.0
 11
-2.0
 21
-6.04868331182327e-17
 31
0.0
 40
0.39718302370189007
 41
-5.293539768864522
 42
-3.7227434420696257
  0
LINE
  5
24C
330
17
100
AcDbEntity
  8
visible
100
AcDbLine
 10
-3.3645989345377245
 20
-2.683911143512013
 30
0.0
 11
-3.3645989345377245
 21
0.43640288941732575
 31
0.0
  0
LINE
  5
24D
330
17
100
AcDbEntity
  8
visible
100
AcDbLine
 10
-30.947036340742592
 20
4.511672364707252
 30
0.0
 11
-30.947036340742592
 21
7.631986397636591
 31
0.0
  0
LINE
  5
24E
330
17
100
AcDbEntity
  8
visible
100
AcDbLine
 10
-3.3645989345377245
 20
-2.683911143512013
 30
0.0
 11
-30.947036340742596
 21
4.5116723647072545
 31
0.0
  0
LINE
  5
24F
330
17
100
AcDbEntity
  8
visible
100
AcDbLine
 10
-3.3645989345377245
 20
0.4364028894173302
 30
0.0
 11
-30.947036340742596
 21
7.631986397636598
 31
0.0
  0
ELLIPSE
  5
250
330
17
100
AcDbEntity
  8
visible
100
AcDbEllipse
 10
-29.849064010176864
 20
5.175628479256616
 30
0.0
 11
-2.0
 21
-6.04868331182327e-17
 31
0.0
 40
0.39718302370189007
 41
-6.283185307179586
 42
-5.293539768864522
  0
ELLIPSE
  5
251
330
17
100
AcDbEntity
  8
visible
100
AcDbEllipse
 10
-29.849064010176864
 20
8.29594251218596
 30
0.0
 11
-2.0
 21
-6.04868331182327e-17
 31
0.0
 40
0.39718302370189007
 41
-6.283185307179586
 42
-5.293539768864522
  0
ELLIPSE
  5
252
330
17
100
AcDbEntity
  8
visible
100
AcDbEllipse
 10
-30.5078474085163
 20
7.897568843456341
 30
0.0
 11
0.20194185476737583
 21
0.7740926865002099
 31
0.0
 40
0.5038262457106429
 41
-5.805408203709629
 42
-4.234611876914732
  0
LINE
  5
253
330
17
100
AcDbEntity
  8
visible
100
AcDbLine
 10
9.861585847598569
 20
3.867141158275512
 30
0.0
 11
-0.5949637308686739
 21
-2.456050999157757
 31
0.0
  0
LINE
  5
254
330
17
100
AcDbEntity
  8
visible
100
AcDbLine
 10
4.993715430978902
 20
-9.453088101736583
 30
0.0
 11
4.993715430978902
 21
-6.332774068807244
 31
0.0
  0
LINE
  5
255
330
17
100
AcDbEntity
  8
visible
100
AcDbLine
 10
9.862370129558048
 20
-3.38864426993921
 30
0.0
 11
4.993715430978899
 21
-6.332774068807236
 31
0.0
  0
LINE
  5
256
330
17
100
AcDbEntity
  8
visible
100
AcDbLine
 10
10.066830556639449
 20
-6.385318802158983
 30
0.0
 11
4.993715430978899
 21
-9.45308810173658
 31
0.0
  0
ELLIPSE
  5
257
330
17
100
AcDbEntity
  8
visible
100
AcDbEllipse
 10
2.486221121323915
 20
-8.798944146443922
 30
0.0
 11
-3.0
 21
-9.073024967734904e-17
 31
0.0
 40
0.39718302370189007
 41
-5.293539768864522
 42
-3.7227434420696257
  0
ELLIPSE
  5
258
330
17
100
AcDbEntity
  8
visible
100
AcDbEllipse
 10
2.486221121323915
 20
-5.678630113514579
 30
0.0
 11
-3.0
 21
-9.073024967734904e-17
 31
0.0
 40
0.39718302370189007
 41
-5.293539768864522
 42
-3.7227434420696257
  0
LINE
  5
259
330
17
100
AcDbEntity
  8
visible
100
AcDbLine
 10
0.839262625475321
 20
-9.794878318267976
 30
0.0
 11
0.839262625475321
 21
-6.674564285338637
 31
0.0
  0
LINE
  5
25A
330
17
100
AcDbEntity
  8
visible
100
AcDbLine
 10
-38.444814892452825
 20
0.45337698131704207
 30
0.0
 11
-38.444814892452825
 21
3.573691014246381
 31
0.0
  0
LINE
  5
25B
330
17
100
AcDbEntity
  8
visible
100
AcDbLine
 10
0.839262625475321
 20
-9.794878318267976
 30
0.0
 11
-38.444814892452825
 21
0.4533769813170405
 31
0.0
  0
LINE
  5
25C
330
17
100
AcDbEntity
  8
visible
100
AcDbLine
 10
0.839262625475321
 20
-6.674564285338633
 30
0.0
 11
-38.444814892452825
 21
3.573691014246384
 31
0.0
  0
ELLIPSE
  5
25D
330
17
100
AcDbEntity
  8
visible
100
AcDbEllipse
 10
4.325050281737571
 20
-9.278649713658538
 30
0.0
 11
0.41396554366777655
 21
-0.6845674025659142
 31
0.0
 40
0.7670754590104828
 41
-6.283185307179586
 42
-5.379975506657335
  0
ELLIPSE
  5
25E
330
17
100
AcDbEntity
  8
visible
100
AcDbEllipse
 10
1.2784515577016133
 20
-9.52929587244823
 30
0.0
 11
-0.20194185476737583
 21
-0.7740926865002099
 31
0.0
 40
0.5038262457106429
 41
5.190166083854647
 42
6.283185307179586
  0
ELLIPSE
  5
25F
330
17
100
AcDbEntity
  8
visible
100
AcDbEllipse
 10
-38.00562596022653
 20
0.7189594271367881
 30
0.0
 11
-0.20194185476737583
 21
-0.7740926865002099
 31
0.0
 40
0.5038262457106429
 41
5.190166083854647
 42
6.283185307179586
  0
ELLIPSE
  5
260
330
17
100
AcDbEntity
  8
visible
100
AcDbEllipse
 10
-36.79785639660423
 20
1.449311153141096
 30
0.0
 11
-3.0
 21
-9.073024967734904e-17
 31
0.0
 40
0.39718302370189007
 41
-6.283185307179586
 42
-5.293539768864522
  0
ELLIPSE
  5
261
330
17
100
AcDbEntity
  8
visible
100
AcDbEllipse
 10
-30.5078474085163
 20
4.777254810526998
 30
0.0
 11
-0.20194185476737583
 21
-0.7740926865002099
 31
0.0
 40
0.5038262457106429
 41
5.190166083854647
 42
6.283185307179586
  0
ELLIPSE
  5
262
330
17
100
AcDbEntity
  8
visible
100
AcDbEllipse
 10
-2.925410002311434
 20
-2.4183286976922673
 30
0.0
 11
-0.20194185476737583
 21
-0.7740926865002099
 31
0.0
 40
0.5038262457106429
 41
5.190166083854647
 42
6.283185307179586
  0
ELLIPSE
  5
263
330
17
100
AcDbEntity
  8
visible
100
AcDbEllipse
 10
-1.2636288801100015
 20
-2.2816126110797086
 30
0.0
 11
0.41396554366777655
 21
-0.6845674025659142
 31
0.0
 40
0.7670754590104828
 41
-6.283185307179586
 42
-5.379975506657335
  0
ELLIPSE
  5
264
330
17
100
AcDbEntity
  8
visible
100
AcDbEllipse
 10
4.325050281737571
 20
-6.158335680729195
 30
0.0
 11
-0.41396554366777655
 21
0.6845674025659142
 31
0.0
 40
0.7670754590104828
 41
4.044802454112045
 42
5.615598780906941
  0
ELLIPSE
  5
265
330
17
100
AcDbEntity
  8
visible
100
AcDbEllipse
 10
1.2784515577016133
 20
-6.408981839518887
 30
0.0
 11
0.20194185476737583
 21
0.7740926865002099
 31
0.0
 40
0.5038262457106429
 41
-5.805408203709629
 42
-4.234611876914732
  0
ELLIPSE
  5
266
330
17
100
AcDbEntity
  8
visible
100
AcDbEllipse
 10
-38.00562596022653
 20
3.8392734600661242
 30
0.0
 11
0.20194185476737583
 21
0.7740926865002099
 31
0.0
 40
0.5038262457106429
 41
-5.805408203709629
 42
-4.234611876914732
  0
ELLIPSE
  5
267
330
17
100
AcDbEntity
  8
visible
100
AcDbEllipse
 10
-36.79785639660423
 20
4.569625186070439
 30
0.0
 11
-3.0
 21
-9.073024967734904e-17
 31
0.0
 40
0.39718302370189007
 41
-6.283185307179586
 42
-5.293539768864522
  0
ELLIPSE
  5
268
330
17
100
AcDbEntity
  8
visible
100
AcDbEllipse
 10
-33.061319309376486
 20
14.014285725358704
 30
0.0
 11
4.0
 21
1.209736662364654e-16
 31
0.0
 40
0.39718302370189007
 41
3.141592653589793
 42
4.131238191904857
  0
ELLIPSE
  5
269
330
17
100
AcDbEntity
  8
visible
100
AcDbEllipse
 10
-33.061319309376486
 20
44.299686633202285
 30
0.0
 11
4.0
 21
1.209736662364654e-16
 31
0.0
 40
0.39718302370189007
 41
3.141592653589793
 42
4.131238191904857
  0
LINE
  5
26A
330
17
100
AcDbEntity
  8
visible
100
AcDbLine
 10
-35.25726397050794
 20
12.686373496259973
 30
0.0
 11
-35.25726397050794
 21
42.971774404103556
 31
0.0
  0
ELLIPSE
  5
26B
330
17
100
AcDbEntity
  8
visible
100
AcDbEllipse
 10
-33.061319309376486
 20
44.299686633202285
 30
0.0
 11
-2.0698277183388827
 21
3.4228370128295706
 31
0.0
 40
0.7670754590104828
 41
5.615598780906941
 42
6.283185307179586
  0
LINE
  5
26C
330
17
100
AcDbEntity
  8
visible
100
AcDbLine
 10
-33.061319309376486
 20
47.970644319001515
 30
0.0
 11
-9.454914202213335
 21
62.24570078181292
 31
0.0
  0
ELLIPSE
  5
26D
330
17
100
AcDbEntity
  8
visible
100
AcDbEllipse
 10
-9.454914202213331
 20
58.57474309601369
 30
0.0
 11
2.0698277183388827
 21
-3.4228370128295706
 31
0.0
 40
0.7670754590104828
 41
-3.809179179862438
 42
-3.141592653589793
  0
ELLIPSE
  5
26E
330
17
100
AcDbEntity
  8
visible
100
AcDbEllipse
 10
-33.061319309376486
 20
14.014285725358704
 30
0.0
 11
1.0097092738368791
 21
3.870463432501049
 31
0.0
 40
0.5038262457106429
 41
-4.234611876914732
 42
-3.141592653589793
  0
ELLIPSE
  5
26F
330
17
100
AcDbEntity
  8
visible
100
AcDbEllipse
 10
-33.061319309376486
 20
44.299686633202285
 30
0.0
 11
-1.0097092738368791
 21
-3.870463432501049
 31
0.0
 40
0.5038262457106429
 41
3.6193697570597507
 42
5.190166083854647
  0
LINE
  5
270
330
17
100
AcDbEntity
  8
visible
100
AcDbLine
 10
-35.25726397050794
 20
12.68637349625997
 30
0.0
 11
-0.1523436353381129
 21
3.5283581221627216
 31
0.0
  0
LINE
  5
271
330
17
100
AcDbEntity
  8
visible
100
AcDbLine
 10
-35.25726397050794
 20
42.97177440410355
 30
0.0
 11
-0.1523436353381129
 21
33.8137590300063
 31
0.0
  0
LINE
  5
272
330
17
100
AcDbEntity
  8
visible
100
AcDbLine
 10
-0.1523436353381058
 20
3.52835812216272
 30
0.0
 11
-0.1523436353381058
 21
33.8137590300063
 31
0.0
  0
LINE
  5
273
330
17
100
AcDbEntity
  8
visible
100
AcDbLine
 10
-33.06131930937648
 20
47.9706443190015
 30
0.0
 11
2.0436010257933503
 21
38.812628944904255
 31
0.0
  0
LINE
  5
274
330
17
100
AcDbEntity
  8
visible
100
AcDbLine
 10
-9.45491420221333
 20
62.24570078181291
 30
0.0
 11
25.650006132956502
 21
53.08768540771566
 31
0.0
  0
LINE
  5
275
330
17
100
AcDbEntity
  8
visible
100
AcDbLine
 10
2.0436010257933503
 20
38.812628944904255
 30
0.0
 11
25.650006132956502
 21
53.08768540771566
 31
0.0
  0
ELLIPSE
  5
276
330
17
100
AcDbEntity
  8
visible
100
AcDbEllipse
 10
-9.454914202213331
 20
58.57474309601369
 30
0.0
 11
-1.009709273836879
 21
-3.870463432501049
 31
0.0
 40
0.5038262457106429
 41
3.1415926535897922
 42
3.6193697570597507
  0
ELLIPSE
  5
277
330
17
100
AcDbEntity
  8
visible
100
AcDbEllipse
 10
2.0436010257933503
 20
4.856270351261458
 30
0.0
 11
1.0097092738368791
 21
3.870463432501049
 31
0.0
 40
0.5038262457106429
 41
-4.234611876914732
 42
-3.141592653589793
  0
ELLIPSE
  5
278
330
17
100
AcDbEntity
  8
visible
100
AcDbEllipse
 10
2.0436010257933503
 20
35.14167125910504
 30
0.0
 11
-1.0097092738368791
 21
-3.870463432501049
 31
0.0
 40
0.5038262457106429
 41
3.6193697570597507
 42
5.190166083854647
  0
LINE
  5
279
330
17
100
AcDbEntity
  8
visible
100
AcDbLine
 10
5.386926771999999
 20
3.9840784108712395
 30
0.0
 11
5.386926771999999
 21
34.26947931871482
 31
0.0
  0
ELLIPSE
  5
27A
330
17
100
AcDbEntity
  8
visible
100
AcDbEllipse
 10
2.0436010257933503
 20
4.856270351261458
 30
0.0
 11
-4.0
 21
-1.209736662364654e-16
 31
0.0
 40
0.39718302370189007
 41
-5.293539768864522
 42
-3.7227434420696257
  0
ELLIPSE
  5
27B
330
17
100
AcDbEntity
  8
visible
100
AcDbEllipse
 10
2.0436010257933503
 20
35.14167125910504
 30
0.0
 11
-4.0
 21
-1.209736662364654e-16
 31
0.0
 40
0.39718302370189007
 41
-5.293539768864522
 42
-3.7227434420696257
  0
ELLIPSE
  5
27C
330
17
100
AcDbEntity
  8
visible
100
AcDbEllipse
 10
2.0436010257933503
 20
4.856270351261458
 30
0.0
 11
-2.0698277183388827
 21
3.4228370128295706
 31
0.0
 40
0.7670754590104828
 41
3.141592653589793
 42
4.044802454112045
  0
LINE
  5
27D
330
17
100
AcDbEntity
  8
visible
100
AcDbLine
 10
5.386926771999999
 20
3.9840784108712404
 30
0.0
 11
9.86158584759857
 21
6.689954662084879
 31
0.0
  0
ELLIPSE
  5
27E
330
17
100
AcDbEntity
  8
visible
100
AcDbEllipse
 10
25.650006132956506
 20
49.416727721916445
 30
0.0
 11
-1.0097092738368794
 21
-3.870463432501049
 31
0.0
 40
0.5038262457106428
 41
3.141592653589793
 42
3.6193697570597507
  0
ELLIPSE
  5
27F
330
17
100
AcDbEntity
  8
visible
100
AcDbEllipse
 10
2.0436010257933503
 20
35.14167125910504
 30
0.0
 11
2.0698277183388827
 21
-3.4228370128295706
 31
0.0
 40
0.7670754590104828
 41
-5.379975506657335
 42
-3.809179179862438
  0
LINE
  5
280
330
17
100
AcDbEntity
  8
visible
100
AcDbLine
 10
5.386926771999999
 20
34.26947931871482
 30
0.0
 11
12.088845107727064
 21
38.32220408630871
 31
0.0
  0
ELLIPSE
  5
281
330
17
100
AcDbEntity
  8
visible
100
AcDbEllipse
 10
25.650006132956506
 20
49.416727721916445
 30
0.0
 11
-2.0698277183388827
 21
3.4228370128295706
 31
0.0
 40
0.7670754590104828
 41
4.619091309451388
 42
5.615598780906941
  0
LINE
  5
282
330
17
100
AcDbEntity
  8
visible
100
AcDbLine
 10
-63.38784997037623
 20
-61.12465382216685
 30
0.0
 11
-63.38784997037623
 21
-33.40892329438272
 31
0.0
  0
SPLINE
  5
283
330
17
100
AcDbEntity
  8
visible
100
AcDbSpline
 70
0
 71
3
 72
17
 73
13
 74
0
 40
0.0
 40
0.0
 40
0.0
 40
0.0
 40
0.3561106017951985
 40
0.3561106017951985
 40
0.3561106017951985
 40
0.5664676422210579
 40
0.5664676422210579
 40
0.5664676422210579
 40
0.6438893982048015
 40
0.6438893982048015
 40
0.6438893982048015
 40
1.0
 40
1.0
 40
1.0
 40
1.0
 10
-57.73843687631168
 20
-65.61690075014351
 30
0.0
 10
-59.12677275985773
 20
-65.25457825658377
 30
0.0
 10
-60.32931241766154
 20
-64.77324387066554
 30
0.0
 10
-61.26325060803249
 20
-64.18978313539178
 30
0.0
 10
-61.817874390302954
 20
-63.8456902626443
 30
0.0
 10
-62.27369710760123
 20
-63.46239441166301
 30
0.0
 10
-62.63071875992716
 20
-63.03989558244788
 30
0.0
 10
-62.76133520944856
 20
-62.88401016134739
 30
0.0
 10
-62.87653299979078
 20
-62.72231497878773
 30
0.0
 10
-62.976312130953865
 20
-62.55481003476881
 30
0.0
 10
-63.240628173176106
 20
-62.11188840861054
 30
0.0
 10
-63.388698271349206
 20
-61.62130536862733
 30
0.0
 10
-63.38784997037623
 20
-61.12465382216685
 30
0.0
  0
LINE
  5
284
330
17
100
AcDbEntity
  8
visible
100
AcDbLine
 10
55.97653679395625
 20
-58.44157336764924
 30
0.0
 11
55.97653679395625
 21
-30.725842839865113
 31
0.0
  0
LINE
  5
285
330
17
100
AcDbEntity
  8
visible
100
AcDbLine
 10
5.784752301614681
 20
-82.18854761755757
 30
0.0
 11
-57.73843687631168
 21
-65.61690075014351
 31
0.0
  0
SPLINE
  5
286
330
17
100
AcDbEntity
  8
visible
100
AcDbSpline
 70
0
 71
1
 72
4
 73
2
 74
0
 40
0.0
 40
0.0
 40
1.0
 40
1.0
 10
-33.03820440854342
 20
-49.36339997459739
 30
0.0
 10
-33.36759610771314
 20
-49.5625868089622
 30
0.0
  0
SPLINE
  5
287
330
17
100
AcDbEntity
  8
visible
100
AcDbSpline
 70
0
 71
1
 72
4
 73
2
 74
0
 40
0.0
 40
0.0
 40
1.0
 40
1.0
 10
-31.090724984810674
 20
-53.075479724885
 30
0.0
 10
-31.238109532491666
 20
-53.16460480472418
 30
0.0
  0
SPLINE
  5
288
330
17
100
AcDbEntity
  8
visible
100
AcDbSpline
 70
0
 71
3
 72
11
 73
7
 74
0
 40
0.0
 40
0.0
 40
0.0
 40
0.0
 40
0.5
 40
0.5
 40
0.5
 40
1.0
 40
1.0
 40
1.0
 40
1.0
 10
55.97653679395625
 20
-58.441573367649234
 30
0.0
 10
55.977422380301526
 20
-58.94644513156459
 30
0.0
 10
55.82437112588556
 20
-59.44479845120232
 30
0.0
 10
55.55190768865582
 20
-59.89357812560544
 30
0.0
 10
55.1632151534027
 20
-60.534499957548455
 30
0.0
 10
54.54592316267039
 20
-61.08718122670714
 30
0.0
 10
53.75181442700264
 20
-61.568278203307756
 30
0.0
  0
LINE
  5
289
330
17
100
AcDbEntity
  8
visible
100
AcDbLine
 10
53.75181442700265
 20
-61.56827820330776
 30
0.0
 11
21.910616840596532
 21
-80.82300552523942
 31
0.0
  0
SPLINE
  5
28A
330
17
100
AcDbEntity
  8
visible
100
AcDbSpline
 70
0
 71
3
 72
14
 73
10
 74
0
 40
0.0
 40
0.0
 40
0.0
 40
0.0
 40
0.4071140922212231
 40
0.4071140922212231
 40
0.4071140922212231
 40
0.6313966446163403
 40
0.6313966446163403
 40
0.6313966446163403
 40
1.0
 40
1.0
 40
1.0
 40
1.0
 10
21.910616840596532
 20
-80.82300552523942
 30
0.0
 10
20.485064590837023
 20
-81.68643527831276
 30
0.0
 10
18.444123538022872
 20
-82.32310675936606
 30
0.0
 10
16.119451682000232
 20
-82.66257202966327
 30
0.0
 10
14.841400483790984
 20
-82.84959303856063
 30
0.0
 10
13.483880443370392
 20
-82.94536576488964
 30
0.0
 10
12.126018029630531
 20
-82.94475040026373
 30
0.0
 10
9.89331960896861
 20
-82.94522296721209
 30
0.0
 10
7.66752653121448
 20
-82.6812020060442
 30
0.0
 10
5.7847523016146845
 20
-82.18854761755757
 30
0.0
  0
LINE
  5
28B
330
17
100
AcDbEntity
  8
visible
100
AcDbLine
 10
55.97653679395625
 20
-29.624555534125342
 30
0.0
 11
55.97653679395625
 21
-25.035858426876317
 31
0.0
  0
LINE
  5
28C
330
17
100
AcDbEntity
  8
visible
100
AcDbLine
 10
-63.38784997037623
 20
-32.30763598864295
 30
0.0
 11
-63.38784997037623
 21
-27.718938881393925
 31
0.0
  0
SPLINE
  5
28D
330
17
100
AcDbEntity
  8
visible
100
AcDbSpline
 70
0
 71
2
 72
6
 73
3
 74
0
 40
0.0
 40
0.0
 40
0.0
 40
1.0
 40
1.0
 40
1.0
 10
55.870632168470294
 20
-24.301664837785374
 30
0.0
 10
55.97601337043196
 20
-24.662967541989595
 30
0.0
 10
55.97653679395625
 20
-25.035858426876317
 30
0.0
  0
SPLINE
  5
28E
330
17
100
AcDbEntity
  8
visible
100
AcDbSpline
 70
0
 71
2
 72
6
 73
3
 74
0
 40
0.0
 40
0.0
 40
0.0
 40
0.24555354065364485
 40
0.24555354065364485
 40
0.24555354065364485
 10
-63.38784997037624
 20
-27.718938881393928
 30
0.0
 10
-63.38732758752607
 20
-27.346050313394542
 30
0.0
 10
-63.28194534489027
 20
-26.98474939616517
 30
0.0
  0
LINE
  5
28F
330
17
100
AcDbEntity
  8
visible
100
AcDbLine
 10
-41.573663891170085
 20
-60.43622787231323
 30
0.0
 11
-41.573663891170085
 21
-59.10859498199756
 31
0.0
  0
LINE
  5
290
330
17
100
AcDbEntity
  8
visible
100
AcDbLine
 10
-63.38784997037623
 20
-26.25055580707424
 30
0.0
 11
-63.38784997037623
 21
-24.0479811955947
 31
0.0
  0
LINE
  5
291
330
17
100
AcDbEntity
  8
visible
100
AcDbLine
 10
-61.16312760342263
 20
-20.92127635993618
 30
0.0
 11
-49.70565658821
 21
-13.992815845905781
 31
0.0
  0
SPLINE
  5
292
330
17
100
AcDbEntity
  8
visible
100
AcDbSpline
 70
0
 71
3
 72
17
 73
13
 74
0
 40
0.0
 40
0.0
 40
0.0
 40
0.0
 40
0.35611060179519466
 40
0.35611060179519466
 40
0.35611060179519466
 40
0.5664676422210547
 40
0.5664676422210547
 40
0.5664676422210547
 40
0.6438893982048054
 40
0.6438893982048054
 40
0.6438893982048054
 40
1.0
 40
1.0
 40
1.0
 40
1.0
 10
-57.73843687631168
 20
-30.7428027350509
 30
0.0
 10
-59.12677275985773
 20
-30.38048024149119
 30
0.0
 10
-60.32931241766151
 20
-29.899145855572893
 30
0.0
 10
-61.2632506080325
 20
-29.315685120299168
 30
0.0
 10
-61.81787439030296
 20
-28.97159224755173
 30
0.0
 10
-62.27369710760121
 20
-28.58829639657039
 30
0.0
 10
-62.630718759927184
 20
-28.165797567355273
 30
0.0
 10
-62.76133520944848
 20
-28.00991214625476
 30
0.0
 10
-62.876532999790854
 20
-27.848216963695144
 30
0.0
 10
-62.976312130953865
 20
-27.680712019676207
 30
0.0
 10
-63.24062817317615
 20
-27.237790393517926
 30
0.0
 10
-63.38869827134918
 20
-26.74720735353468
 30
0.0
 10
-63.38784997037623
 20
-26.250555807074235
 30
0.0
  0
SPLINE
  5
293
330
17
100
AcDbEntity
  8
visible
100
AcDbSpline
 70
0
 71
3
 72
11
 73
7
 74
0
 40
0.0
 40
0.0
 40
0.0
 40
0.0
 40
0.5
 40
0.5
 40
0.5
 40
1.0
 40
1.0
 40
1.0
 40
1.0
 10
-63.38784997037623
 20
-24.0479811955947
 30
0.0
 10
-63.388735556721514
 20
-23.543109431679305
 30
0.0
 10
-63.23568430230555
 20
-23.04475611204162
 30
0.0
 10
-62.9632208650758
 20
-22.595976437638505
 30
0.0
 10
-62.574528329822684
 20
-21.955054605695466
 30
0.0
 10
-61.95723633909039
 20
-21.402373336536808
 30
0.0
 10
-61.16312760342262
 20
-20.921276359936186
 30
0.0
  0
LINE
  5
294
330
17
100
AcDbEntity
  8
visible
100
AcDbLine
 10
5.784752301614681
 20
-47.31444960246497
 30
0.0
 11
-57.73843687631168
 21
-30.7428027350509
 31
0.0
  0
SPLINE
  5
295
330
17
100
AcDbEntity
  8
visible
100
AcDbSpline
 70
0
 71
3
 72
14
 73
10
 74
0
 40
0.0
 40
0.0
 40
0.0
 40
0.0
 40
0.4071140922212399
 40
0.4071140922212399
 40
0.4071140922212399
 40
0.6313966446163463
 40
0.6313966446163463
 40
0.6313966446163463
 40
1.0
 40
1.0
 40
1.0
 40
1.0
 10
21.910616840596532
 20
-45.94890751014681
 30
0.0
 10
20.48506459083715
 20
-46.81233726322004
 30
0.0
 10
18.444123538023327
 20
-47.44900874427341
 30
0.0
 10
16.11945168200023
 20
-47.78847401457064
 30
0.0
 10
14.841400483790967
 20
-47.97549502346794
 30
0.0
 10
13.48388044337041
 20
-48.071267749797045
 30
0.0
 10
12.126018029630533
 20
-48.07065238517108
 30
0.0
 10
9.89331960896861
 20
-48.07112495211949
 30
0.0
 10
7.667526531214485
 20
-47.80710399095158
 30
0.0
 10
5.7847523016146845
 20
-47.31444960246497
 30
0.0
  0
SPLINE
  5
296
330
17
100
AcDbEntity
  8
visible
100
AcDbSpline
 70
0
 71
3
 72
11
 73
7
 74
0
 40
0.0
 40
0.0
 40
0.0
 40
0.0
 40
0.5
 40
0.5
 40
0.5
 40
1.0
 40
1.0
 40
1.0
 40
1.0
 10
55.97653679395625
 20
-23.56747535255664
 30
0.0
 10
55.977422380301526
 20
-24.072347116471978
 30
0.0
 10
55.82437112588556
 20
-24.570700436109718
 30
0.0
 10
55.55190768865582
 20
-25.019480110512824
 30
0.0
 10
55.1632151534027
 20
-25.660401942455877
 30
0.0
 10
54.54592316267039
 20
-26.213083211614528
 30
0.0
 10
53.75181442700264
 20
-26.694180188215142
 30
0.0
  0
LINE
  5
297
330
17
100
AcDbEntity
  8
visible
100
AcDbLine
 10
53.75181442700265
 20
-26.694180188215157
 30
0.0
 11
21.910616840596532
 21
-45.948907510146825
 31
0.0
  0
LINE
  5
298
330
17
100
AcDbEntity
  8
visible
100
AcDbLine
 10
42.29434341179003
 20
-14.77709784337273
 30
0.0
 11
50.3271236998917
 21
-16.872653813100428
 31
0.0
  0
SPLINE
  5
299
330
17
100
AcDbEntity
  8
visible
100
AcDbSpline
 70
0
 71
3
 72
17
 73
13
 74
0
 40
0.0
 40
0.0
 40
0.0
 40
0.0
 40
0.3561106017952157
 40
0.3561106017952157
 40
0.3561106017952157
 40
0.5664676422210622
 40
0.5664676422210622
 40
0.5664676422210622
 40
0.6438893982047844
 40
0.6438893982047844
 40
0.6438893982047844
 40
1.0
 40
1.0
 40
1.0
 40
1.0
 10
50.3271236998917
 20
-16.872653813100435
 30
0.0
 10
51.715459583437756
 20
-17.234976306660126
 30
0.0
 10
52.91799924124156
 20
-17.716310692578435
 30
0.0
 10
53.85193743161251
 20
-18.29977142785217
 30
0.0
 10
54.40656121388297
 20
-18.64386430059961
 30
0.0
 10
54.86238393118124
 20
-19.02716015158093
 30
0.0
 10
55.219405583507175
 20
-19.449658980796073
 30
0.0
 10
55.35002203302859
 20
-19.605544401896534
 30
0.0
 10
55.46521982337083
 20
-19.767239584456217
 30
0.0
 10
55.564998954533884
 20
-19.93474452847513
 30
0.0
 10
55.82931499675622
 20
-20.37766615463341
 30
0.0
 10
55.97738509492916
 20
-20.86824919461665
 30
0.0
 10
55.97653679395625
 20
-21.364900741077093
 30
0.0
  0
LINE
  5
29A
330
17
100
AcDbEntity
  8
visible
100
AcDbLine
 10
55.97653679395625
 20
-23.56747535255663
 30
0.0
 11
55.97653679395625
 21
-21.364900741077093
 31
0.0
  0
SPLINE
  5
29B
330
17
100
AcDbEntity
  8
visible
100
AcDbSpline
 70
0
 71
3
 72
8
 73
4
 74
0
 40
0.0
 40
0.0
 40
0.0
 40
0.0
 40
1.0
 40
1.0
 40
1.0
 40
1.0
 10
21.02969858647161
 20
-21.855472564487464
 30
0.0
 10
22.103320681772516
 20
-21.736574096811264
 30
0.0
 10
23.06267069536704
 20
-21.465641602419026
 30
0.0
 10
23.745603098694986
 20
-21.052994615042333
 30
0.0
  0
LINE
  5
29C
330
17
100
AcDbEntity
  8
visible
100
AcDbLine
 10
40.21518805718092
 20
-11.093652896801814
 30
0.0
 11
23.745603098694996
 21
-21.05299461504233
 31
0.0
  0
SPLINE
  5
29D
330
17
100
AcDbEntity
  8
visible
100
AcDbSpline
 70
0
 71
3
 72
14
 73
10
 74
0
 40
0.0
 40
0.0
 40
0.0
 40
0.0
 40
0.2656469924923313
 40
0.2656469924923313
 40
0.2656469924923313
 40
0.6328234962461656
 40
0.6328234962461656
 40
0.6328234962461656
 40
1.0
 40
1.0
 40
1.0
 40
1.0
 10
13.6344384135678
 20
-20.652626828564546
 30
0.0
 10
13.348725107202622
 20
-20.563202928303333
 30
0.0
 10
13.085988361023585
 20
-20.459316346931146
 30
0.0
 10
12.846228175030703
 20
-20.34096708444796
 30
0.0
 10
12.464769795789314
 20
-20.151578527279806
 30
0.0
 10
12.14429254059711
 20
-19.925870835424934
 30
0.0
 10
11.902545893468996
 20
-19.6480059697611
 30
0.0
 10
11.640247960203949
 20
-19.349062408036644
 30
0.0
 10
11.476287016508829
 20
-18.97205806492227
 30
0.0
 10
11.47781977530358
 20
-18.580433734676475
 30
0.0
  0
SPLINE
  5
29E
330
17
100
AcDbEntity
  8
visible
100
AcDbSpline
 70
0
 71
3
 72
11
 73
7
 74
0
 40
0.0
 40
0.0
 40
0.0
 40
0.0
 40
0.5
 40
0.5
 40
0.5
 40
1.0
 40
1.0
 40
1.0
 40
1.0
 10
41.29073047999616
 20
-9.493283956826176
 30
0.0
 10
41.29220435964601
 20
-9.877312445516628
 30
0.0
 10
41.13451305711626
 20
-10.247889509498231
 30
0.0
 10
40.88080621053925
 20
-10.543603013578846
 30
0.0
 10
40.69999321843093
 20
-10.753325418827567
 30
0.0
 10
40.47812050064485
 20
-10.936675379901887
 30
0.0
 10
40.21518805718091
 20
-11.093652896801814
 30
0.0
  0
LINE
  5
29F
330
17
100
AcDbEntity
  8
visible
100
AcDbLine
 10
41.29073047999616
 20
-9.493283956826179
 30
0.0
 11
41.29073047999616
 21
-3.6197516595474237
 31
0.0
  0
LINE
  5
2A0
330
17
100
AcDbEntity
  8
visible
100
AcDbLine
 10
11.47781977530358
 20
-18.58043373467648
 30
0.0
 11
11.47781977530358
 21
-12.706901437397724
 31
0.0
  0
SPLINE
  5
2A1
330
17
100
AcDbEntity
  8
visible
100
AcDbSpline
 70
0
 71
3
 72
11
 73
7
 74
0
 40
0.0
 40
0.0
 40
0.0
 40
0.0
 40
0.00749091945897383
 40
0.00749091945897383
 40
0.00749091945897383
 40
1.0
 40
1.0
 40
1.0
 40
1.0
 10
40.86052886549953
 20
-2.5458926983184798
 30
0.0
 10
40.86235403094328
 20
-2.54798827369992
 30
0.0
 10
40.864179196386985
 20
-2.5500838490813593
 30
0.0
 10
40.86600436183073
 20
-2.5521794244627998
 30
0.0
 10
41.128302295095736
 20
-2.851122986187239
 30
0.0
 10
41.29226323879094
 20
-3.2281273293016275
 30
0.0
 10
41.29073047999616
 20
-3.6197516595474255
 30
0.0
  0
SPLINE
  5
2A2
330
17
100
AcDbEntity
  8
visible
100
AcDbSpline
 70
0
 71
3
 72
8
 73
4
 74
0
 40
0.0
 40
0.0
 40
0.0
 40
0.0
 40
1.0
 40
1.0
 40
1.0
 40
1.0
 10
11.784749905503258
 20
-11.78877782940991
 30
0.0
 10
11.591690813437443
 20
-12.057604925457522
 30
0.0
 10
11.47680841679395
 20
-12.378876649373026
 30
0.0
 10
11.47781977530358
 20
-12.706901437397725
 30
0.0
  0
SPLINE
  5
2A3
330
17
100
AcDbEntity
  8
visible
100
AcDbSpline
 70
0
 71
3
 72
8
 73
4
 74
0
 40
0.0
 40
0.0
 40
0.0
 40
0.0
 40
1.0
 40
1.0
 40
1.0
 40
1.0
 10
11.783960119633637
 20
-11.789887786879662
 30
0.0
 10
10.519235634010855
 20
-9.658715777924517
 30
0.0
 10
9.859802438959234
 20
-6.618493715536597
 30
0.0
 10
9.86158584759857
 20
-3.1820480467387853
 30
0.0
  0
SPLINE
  5
2A4
330
17
100
AcDbEntity
  8
visible
100
AcDbSpline
 70
0
 71
3
 72
11
 73
7
 74
0
 40
0.0
 40
0.0
 40
0.0
 40
0.0
 40
0.5656233441999557
 40
0.5656233441999557
 40
0.5656233441999557
 40
1.0
 40
1.0
 40
1.0
 40
1.0
 10
21.886127007927513
 20
50.152103416105746
 30
0.0
 10
22.81981727564425
 20
50.71691844752211
 30
0.0
 10
23.774154387479324
 20
51.08043335741529
 30
0.0
 10
24.718542098251497
 20
51.21249121728039
 30
0.0
 10
25.44324637147
 20
51.31427078740005
 30
0.0
 10
26.16139542957368
 20
51.277883114255545
 30
0.0
 10
26.843784283861243
 20
51.09950341085792
 30
0.0
  0
LINE
  5
2A5
330
17
100
AcDbEntity
  8
visible
100
AcDbLine
 10
19.690182346796057
 20
48.82419118700702
 30
0.0
 11
21.886127007927513
 21
50.15210341610575
 31
0.0
  0
SPLINE
  5
2A6
330
17
100
AcDbEntity
  8
visible
100
AcDbSpline
 70
0
 71
3
 72
17
 73
13
 74
0
 40
0.0
 40
0.0
 40
0.0
 40
0.0
 40
0.30428186445715244
 40
0.30428186445715244
 40
0.30428186445715244
 40
0.48304078744806966
 40
0.48304078744806966
 40
0.48304078744806966
 40
0.6626860648896418
 40
0.6626860648896418
 40
0.6626860648896418
 40
1.0
 40
1.0
 40
1.0
 40
1.0
 10
9.861585847598572
 20
26.644483150379898
 30
0.0
 10
9.860258116544646
 20
29.23788922171679
 30
0.0
 10
10.237649584458884
 20
32.045672261514035
 30
0.0
 10
10.951204578337066
 20
34.76815357035011
 30
0.0
 10
11.369490092545782
 20
36.36743856892478
 30
0.0
 10
11.901970029373528
 20
37.93635926424808
 30
0.0
 10
12.528731889739399
 20
39.41547928160906
 30
0.0
 10
13.158391753966118
 20
40.90220387780442
 30
0.0
 10
13.883026411683785
 20
42.29783176865109
 30
0.0
 10
14.676542404316173
 20
43.54989981013784
 30
0.0
 10
16.166994575616126
 20
45.90364801748445
 30
0.0
 10
17.89625615653807
 20
47.74087886346241
 30
0.0
 10
19.690182346796057
 20
48.82419118700702
 30
0.0
  0
LINE
  5
2A7
330
17
100
AcDbEntity
  8
visible
100
AcDbLine
 10
9.86158584759857
 20
-3.1820480467387853
 30
0.0
 11
9.86158584759857
 21
26.644483150379894
 31
0.0
  0
SPLINE
  5
2A8
330
17
100
AcDbEntity
  8
visible
100
AcDbSpline
 70
0
 71
2
 72
6
 73
3
 74
0
 40
0.0
 40
0.0
 40
0.0
 40
0.06270083266454608
 40
0.06270083266454608
 40
0.06270083266454608
 10
30.52144260468856
 20
50.140092276428675
 30
0.0
 10
30.856565522102812
 20
50.05265600229834
 30
0.0
 10
31.178412343858497
 20
49.92085644755919
 30
0.0
  0
LINE
  5
2A9
330
17
100
AcDbEntity
  8
visible
100
AcDbLine
 10
30.52144260468856
 20
50.14009227642869
 30
0.0
 11
26.843784283861243
 21
51.09950341085792
 31
0.0
  0
LINE
  5
2AA
330
17
100
AcDbEntity
  8
visible
100
AcDbLine
 10
42.29434341179002
 20
-20.50386635685637
 30
0.0
 11
42.29434341179002
 21
-7.563740514414105
 31
0.0
  0
LINE
  5
2AB
330
17
100
AcDbEntity
  8
visible
100
AcDbLine
 10
-49.70565658821
 20
-20.50386635685637
 30
0.0
 11
-49.70565658821
 21
-7.563740514414105
 31
0.0
  0
SPLINE
  5
2AC
330
17
100
AcDbEntity
  8
visible
100
AcDbSpline
 70
0
 71
3
 72
35
 73
31
 74
0
 40
0.0
 40
0.0
 40
0.0
 40
0.0
 40
0.13140048995797216
 40
0.13140048995797216
 40
0.13140048995797216
 40
0.24150242902459648
 40
0.24150242902459648
 40
0.24150242902459648
 40
0.40785511530733987
 40
0.40785511530733987
 40
0.40785511530733987
 40
0.5980194328453476
 40
0.5980194328453476
 40
0.5980194328453476
 40
0.7881837503833553
 40
0.7881837503833553
 40
0.7881837503833553
 40
0.834508392433561
 40
0.834508392433561
 40
0.834508392433561
 40
0.8808330344837668
 40
0.8808330344837668
 40
0.8808330344837668
 40
0.9273756282226242
 40
0.9273756282226242
 40
0.9273756282226242
 40
0.9613374261273369
 40
0.9613374261273369
 40
0.9613374261273369
 40
1.0
 40
1.0
 40
1.0
 40
1.0
 10
-49.70565658821
 20
-20.503866356856363
 30
0.0
 10
-49.70753652149127
 20
-22.321882002415386
 30
0.0
 10
-49.07364665010701
 20
-24.12451757758975
 30
0.0
 10
-47.88420990496321
 20
-25.807198373317917
 30
0.0
 10
-46.88806981012486
 20
-27.219556362336977
 30
0.0
 10
-45.504868788631256
 20
-28.558014160380733
 30
0.0
 10
-43.776931113706716
 20
-29.805607698524476
 30
0.0
 10
-41.167611574080745
 20
-31.690442836587973
 30
0.0
 10
-37.76261939760045
 20
-33.36876157621512
 30
0.0
 10
-33.75066423604963
 20
-34.76410080404053
 30
0.0
 10
-29.167420766525318
 20
-36.360198685625754
 30
0.0
 10
-23.78744061915744
 20
-37.581992233552945
 30
0.0
 10
-18.024357840770307
 20
-38.338894150464164
 30
0.0
 10
-12.263659683483041
 20
-39.09820080966875
 30
0.0
 10
-6.119858895176572
 20
-39.3926158378573
 30
0.0
 10
-0.07335891347191027
 20
-39.19888472188636
 30
0.0
 10
4.879279983819741
 20
-39.04207463828154
 30
0.0
 10
9.76698872534142
 20
-38.55961790014014
 30
0.0
 10
14.33323681670981
 20
-37.776644029472706
 30
0.0
 10
18.900840530571237
 20
-36.99468002595926
 30
0.0
 10
23.146983594279362
 20
-35.91219888991979
 30
0.0
 10
26.853092943255746
 20
-34.58260642367669
 30
0.0
 10
30.57854165320029
 20
-33.24713680290021
 30
0.0
 10
33.75878957798115
 20
-31.664123874664597
 30
0.0
 10
36.237851236634704
 20
-29.89724744620138
 30
0.0
 10
38.047586809662405
 20
-28.6078754608562
 30
0.0
 10
39.48758323981418
 20
-27.220290473827276
 30
0.0
 10
40.510585598431454
 20
-25.753455225519133
 30
0.0
 10
41.67577805469125
 20
-24.08637789232367
 30
0.0
 10
42.29617426222035
 20
-22.302482469777058
 30
0.0
 10
42.29434341179002
 20
-20.503866356856367
 30
0.0
  0
SPLINE
  5
2AD
330
17
100
AcDbEntity
  8
visible
100
AcDbSpline
 70
0
 71
3
 72
8
 73
4
 74
0
 40
0.0
 40
0.0
 40
0.0
 40
0.0
 40
0.24241506147565978
 40
0.24241506147565978
 40
0.24241506147565978
 40
0.24241506147565978
 10
42.29434341179001
 20
-7.5637405144141
 30
0.0
 10
42.295161929240614
 20
-6.2225640227242955
 30
0.0
 10
41.951134719896594
 20
-4.885553184911845
 30
0.0
 10
41.29066131469159
 20
-3.6036834949486236
 30
0.0
  0
SPLINE
  5
2AE
330
17
100
AcDbEntity
  8
visible
100
AcDbSpline
 70
0
 71
3
 72
8
 73
4
 74
0
 40
0.0
 40
0.0
 40
0.0
 40
0.0
 40
0.20536192202757245
 40
0.20536192202757245
 40
0.20536192202757245
 40
0.20536192202757245
 10
-49.70565658821
 20
-7.563740514414107
 30
0.0
 10
-49.70663569325698
 20
-6.142870042015913
 30
0.0
 10
-49.32023552100713
 20
-4.727369025642179
 30
0.0
 10
-48.58130536580069
 20
-3.376060359408925
 30
0.0
  0
LINE
  5
2AF
330
17
100
AcDbEntity
  8
visible
100
AcDbLine
 10
24.705170966106024
 20
47.515903276421696
 30
0.0
 11
26.90111562723748
 21
48.84381550552043
 31
0.0
  0
LINE
  5
2B0
330
17
100
AcDbEntity
  8
visible
100
AcDbLine
 10
58.787761702182756
 20
32.34551311151457
 30
0.0
 11
58.787761702182756
 21
25.404039279098114
 31
0.0
  0
SPLINE
  5
2B1
330
17
100
AcDbEntity
  8
visible
100
AcDbSpline
 70
0
 71
3
 72
8
 73
4
 74
0
 40
0.0
 40
0.0
 40
0.0
 40
0.0
 40
1.0
 40
1.0
 40
1.0
 40
1.0
 10
51.8170412237325
 20
32.1584137750483
 30
0.0
 10
50.97188714914484
 20
32.379947134160666
 30
0.0
 10
50.055656973112484
 20
32.30694129434858
 30
0.0
 10
49.14118248436142
 20
31.959295023177987
 30
0.0
  0
LINE
  5
2B2
330
17
100
AcDbEntity
  8
visible
100
AcDbLine
 10
44.74907630687436
 20
5.065169747540965
 30
0.0
 11
45.334158312460524
 21
4.912536157972677
 31
0.0
  0
LINE
  5
2B3
330
17
100
AcDbEntity
  8
visible
100
AcDbLine
 10
51.8170412237325
 20
32.15841377504832
 30
0.0
 11
52.40212322931867
 21
32.00578018548003
 31
0.0
  0
SPLINE
  5
2B4
330
17
100
AcDbEntity
  8
visible
100
AcDbSpline
 70
0
 71
3
 72
23
 73
19
 74
0
 40
0.0
 40
0.0
 40
0.0
 40
0.0
 40
0.15435820579012285
 40
0.15435820579012285
 40
0.15435820579012285
 40
0.659173977704017
 40
0.659173977704017
 40
0.659173977704017
 40
0.7363530805990783
 40
0.7363530805990783
 40
0.7363530805990783
 40
0.8135321834941398
 40
0.8135321834941398
 40
0.8135321834941398
 40
0.9296907270028567
 40
0.9296907270028567
 40
0.9296907270028567
 40
1.0
 40
1.0
 40
1.0
 40
1.0
 10
49.07512354272348
 20
5.635618338726047
 30
0.0
 10
49.57677512572107
 20
5.939439744950437
 30
0.0
 10
50.07053447551176
 20
6.316793058218
 30
0.0
 10
50.55640159209547
 20
6.767678278528736
 30
0.0
 10
52.14230833157576
 20
8.234064913976104
 30
0.0
 10
53.603091141256535
 20
10.470580686381853
 30
0.0
 10
54.689105032610094
 20
13.07425475319684
 30
0.0
 10
55.41598066808546
 20
14.810725146646908
 30
0.0
 10
55.97585907586496
 20
16.704420710343456
 30
0.0
 10
56.321120413754635
 20
18.59292304739916
 30
0.0
 10
56.667640343399555
 20
20.481524318009797
 30
0.0
 10
56.79954320315473
 20
22.364932361979648
 30
0.0
 10
56.70444971997352
 20
24.083498921959684
 30
0.0
 10
56.56406874304693
 20
26.67386414868787
 30
0.0
 10
55.90720846461188
 20
28.877950459856745
 30
0.0
 10
54.81279879491443
 20
30.308417518982637
 30
0.0
 10
54.15292107744237
 20
31.176548498735364
 30
0.0
 10
53.327254299928626
 20
31.76580907443204
 30
0.0
 10
52.40212322931866
 20
32.005780185480035
 30
0.0
  0
SPLINE
  5
2B5
330
17
100
AcDbEntity
  8
visible
100
AcDbSpline
 70
0
 71
3
 72
8
 73
4
 74
0
 40
0.0
 40
0.0
 40
0.0
 40
0.0
 40
1.0
 40
1.0
 40
1.0
 40
1.0
 10
45.33415831246051
 20
4.912536157972681
 30
0.0
 10
46.509467090748586
 20
4.6033577963410774
 30
0.0
 10
47.81326525322123
 20
4.868995333383021
 30
0.0
 10
49.07512354272348
 20
5.635618338726047
 30
0.0
  0
SPLINE
  5
2B6
330
17
100
AcDbEntity
  8
visible
100
AcDbSpline
 70
0
 71
3
 72
8
 73
4
 74
0
 40
0.0
 40
0.0
 40
0.0
 40
0.0
 40
1.0
 40
1.0
 40
1.0
 40
1.0
 10
44.74907630687434
 20
5.065169747540978
 30
0.0
 10
43.903407677045756
 20
5.284730690141166
 30
0.0
 10
43.13960479559253
 20
5.79601607659648
 30
0.0
 10
42.51149717900454
 20
6.5460843017730355
 30
0.0
  0
LINE
  5
2B7
330
17
100
AcDbEntity
  8
visible
100
AcDbLine
 10
26.35071737777545
 20
7.335001583559198
 30
0.0
 11
43.06734610880871
 21
2.974041881608133
 31
0.0
  0
LINE
  5
2B8
330
17
100
AcDbEntity
  8
visible
100
AcDbLine
 10
36.44781011614424
 20
46.0396359085697
 30
0.0
 11
53.16443884717749
 21
41.67867620661863
 31
0.0
  0
LINE
  5
2B9
330
17
100
AcDbEntity
  8
visible
100
AcDbLine
 10
37.040927809791526
 20
48.43931799266777
 30
0.0
 11
31.858772903171214
 21
49.7912155002726
 31
0.0
  0
SPLINE
  5
2BA
330
17
100
AcDbEntity
  8
visible
100
AcDbSpline
 70
0
 71
3
 72
11
 73
7
 74
0
 40
0.0
 40
0.0
 40
0.0
 40
0.0
 40
0.5656233441999566
 40
0.5656233441999566
 40
0.5656233441999566
 40
1.0
 40
1.0
 40
1.0
 40
1.0
 10
26.90111562723748
 20
48.84381550552044
 30
0.0
 10
27.834805894954226
 20
49.4086305369368
 30
0.0
 10
28.78914300678929
 20
49.77214544682995
 30
0.0
 10
29.733530717561457
 20
49.90420330669507
 30
0.0
 10
30.458234990779992
 20
50.00598287681471
 30
0.0
 10
31.176384048883637
 20
49.96959520367023
 30
0.0
 10
31.858772903171214
 20
49.7912155002726
 30
0.0
  0
SPLINE
  5
2BB
330
17
100
AcDbEntity
  8
visible
100
AcDbSpline
 70
0
 71
3
 72
8
 73
4
 74
0
 40
0.0
 40
0.0
 40
0.0
 40
0.0
 40
1.0
 40
1.0
 40
1.0
 40
1.0
 10
16.523459946747558
 20
-12.600392686826126
 30
0.0
 10
15.438249211926
 20
-10.507921480755778
 30
0.0
 10
14.875130233931326
 20
-7.66688739489575
 30
0.0
 10
14.876574466908544
 20
-4.490335957324106
 30
0.0
  0
LINE
  5
2BC
330
17
100
AcDbEntity
  8
visible
100
AcDbLine
 10
14.876574466908544
 20
-4.490335957324106
 30
0.0
 11
14.876574466908544
 21
25.336195239794574
 31
0.0
  0
SPLINE
  5
2BD
330
17
100
AcDbEntity
  8
visible
100
AcDbSpline
 70
0
 71
3
 72
17
 73
13
 74
0
 40
0.0
 40
0.0
 40
0.0
 40
0.0
 40
0.30428186445716604
 40
0.30428186445716604
 40
0.30428186445716604
 40
0.4830407874480901
 40
0.4830407874480901
 40
0.4830407874480901
 40
0.662686064889668
 40
0.662686064889668
 40
0.662686064889668
 40
1.0
 40
1.0
 40
1.0
 40
1.0
 10
14.876574466908544
 20
25.336195239794577
 30
0.0
 10
14.875246735854608
 20
27.929601311131396
 30
0.0
 10
15.252638203768853
 20
30.737384350928707
 30
0.0
 10
15.966193197647044
 20
33.4598656597648
 30
0.0
 10
16.384478711855742
 20
35.059150658339455
 30
0.0
 10
16.916958648683508
 20
36.628071353662776
 30
0.0
 10
17.54372050904937
 20
38.10719137102374
 30
0.0
 10
18.173380373276093
 20
39.59391596721907
 30
0.0
 10
18.89801503099375
 20
40.989543858065744
 30
0.0
 10
19.691531023626148
 20
42.241611899552524
 30
0.0
 10
21.18198319492599
 20
44.5953601068989
 30
0.0
 10
22.91124477584773
 20
46.43259095287693
 30
0.0
 10
24.705170966106024
 20
47.5159032764217
 30
0.0
  0
LINE
  5
2BE
330
17
100
AcDbEntity
  8
visible
100
AcDbLine
 10
-43.631626091707844
 20
10.773022999504633
 30
0.0
 11
-43.631626091707844
 21
40.599554196623316
 31
0.0
  0
SPLINE
  5
2BF
330
17
100
AcDbEntity
  8
visible
100
AcDbSpline
 70
0
 71
3
 72
8
 73
4
 74
0
 40
0.0
 40
0.0
 40
0.0
 40
0.0
 40
1.0
 40
1.0
 40
1.0
 40
1.0
 10
-41.90924578109948
 20
2.519796700318799
 30
0.0
 10
-43.043695257448036
 20
4.625638727225332
 30
0.0
 10
-43.63316297756057
 20
7.523308017839804
 30
0.0
 10
-43.631626091707844
 20
10.773022999504633
 30
0.0
  0
SPLINE
  5
2C0
330
17
100
AcDbEntity
  8
visible
100
AcDbSpline
 70
0
 71
3
 72
17
 73
13
 74
0
 40
0.0
 40
0.0
 40
0.0
 40
0.0
 40
0.30428186445716604
 40
0.30428186445716604
 40
0.30428186445716604
 40
0.4830407874480901
 40
0.4830407874480901
 40
0.4830407874480901
 40
0.662686064889668
 40
0.662686064889668
 40
0.662686064889668
 40
1.0
 40
1.0
 40
1.0
 40
1.0
 10
-43.631626091707844
 20
40.599554196623316
 30
0.0
 10
-43.63295382276178
 20
43.19296026796013
 30
0.0
 10
-43.25556235484751
 20
46.00074330775746
 30
0.0
 10
-42.542007360969365
 20
48.72322461659354
 30
0.0
 10
-42.12372184676061
 20
50.322509615168194
 30
0.0
 10
-41.5912419099329
 20
51.89143031049153
 30
0.0
 10
-40.96448004956704
 20
53.370550327852484
 30
0.0
 10
-40.33482018534027
 20
54.85727492404779
 30
0.0
 10
-39.61018552762264
 20
56.252902814894505
 30
0.0
 10
-38.81666953499025
 20
57.50497085638126
 30
0.0
 10
-37.32621736369037
 20
59.85871906372762
 30
0.0
 10
-35.59695578276872
 20
61.695949909705696
 30
0.0
 10
-33.80302959251037
 20
62.779262233250435
 30
0.0
  0
SPLINE
  5
2C1
330
17
100
AcDbEntity
  8
visible
100
AcDbSpline
 70
0
 71
3
 72
11
 73
7
 74
0
 40
0.0
 40
0.0
 40
0.0
 40
0.0
 40
0.11670214485456949
 40
0.11670214485456949
 40
0.11670214485456949
 40
1.0
 40
1.0
 40
1.0
 40
1.0
 10
-48.217632281010424
 20
4.21788055297467
 30
0.0
 10
-48.24206157317798
 20
4.190606566094206
 30
0.0
 10
-48.26649086534543
 20
4.163332579213735
 30
0.0
 10
-48.29092015751296
 20
4.136058592333271
 30
0.0
 10
-48.54532406850326
 20
3.840078322770342
 30
0.0
 10
-48.703522443578876
 20
3.468974947687596
 30
0.0
 10
-48.70204365641613
 20
3.084327431771115
 30
0.0
  0
SPLINE
  5
2C2
330
17
100
AcDbEntity
  8
visible
100
AcDbSpline
 70
0
 71
3
 72
11
 73
7
 74
0
 40
0.0
 40
0.0
 40
0.0
 40
0.0
 40
0.39665286091730595
 40
0.39665286091730595
 40
0.39665286091730595
 40
0.653009159580273
 40
0.653009159580273
 40
0.653009159580273
 40
0.653009159580273
 10
-22.971769334617854
 20
64.09516332267211
 30
0.0
 10
-21.553634849549226
 20
63.72818381290893
 30
0.0
 10
-20.324803639702687
 20
62.75026262123931
 30
0.0
 10
-19.407920851550536
 20
61.338131024084966
 30
0.0
 10
-18.81218414773267
 20
60.42524142327768
 30
0.0
 10
-18.33650385128309
 20
59.329346000640584
 30
0.0
 10
-17.986895248326647
 20
58.08984391578212
 30
0.0
  0
LINE
  5
2C3
330
17
100
AcDbEntity
  8
visible
100
AcDbLine
 10
-30.953561625520614
 20
-1.947526108363495
 30
0.0
 11
-36.434260333024724
 21
-5.261765745873498
 31
0.0
  0
SPLINE
  5
2C4
330
17
100
AcDbEntity
  8
visible
100
AcDbSpline
 70
0
 71
3
 72
11
 73
7
 74
0
 40
0.0
 40
0.0
 40
0.0
 40
0.0
 40
0.5656233441999566
 40
0.5656233441999566
 40
0.5656233441999566
 40
1.0
 40
1.0
 40
1.0
 40
1.0
 10
-31.607084931378907
 20
64.10717446234916
 30
0.0
 10
-30.67339466366213
 20
64.67198949376551
 30
0.0
 10
-29.7190575518271
 20
65.03550440365872
 30
0.0
 10
-28.77466984105493
 20
65.1675622635238
 30
0.0
 10
-28.049965567836374
 20
65.26934183364344
 30
0.0
 10
-27.331816509732764
 20
65.23295416049899
 30
0.0
 10
-26.649427655445173
 20
65.05457445710134
 30
0.0
  0
LINE
  5
2C5
330
17
100
AcDbEntity
  8
visible
100
AcDbLine
 10
-33.80302959251036
 20
62.779262233250435
 30
0.0
 11
-31.607084931378907
 21
64.10717446234916
 31
0.0
  0
LINE
  5
2C6
330
17
100
AcDbEntity
  8
visible
100
AcDbLine
 10
-26.649427655445173
 20
65.05457445710134
 30
0.0
 11
-22.971769334617857
 21
64.09516332267211
 31
0.0
  0
SPLINE
  5
2C7
330
17
100
AcDbEntity
  8
visible
100
AcDbSpline
 70
0
 71
3
 72
11
 73
7
 74
0
 40
0.0
 40
0.0
 40
0.0
 40
0.0
 40
0.5490479358332672
 40
0.5490479358332672
 40
0.5490479358332672
 40
1.0
 40
1.0
 40
1.0
 40
1.0
 10
-42.866401659164886
 20
-5.829797332951735
 30
0.0
 10
-41.74407972795778
 20
-6.124904882946921
 30
0.0
 10
-40.337872025033114
 20
-6.206246669263046
 30
0.0
 10
-39.07158282304724
 20
-6.0552963972071225
 30
0.0
 10
-38.02921091912967
 20
-5.9318097698801955
 30
0.0
 10
-37.10068725826573
 20
-5.664382188669483
 30
0.0
 10
-36.43426033302473
 20
-5.261765745873497
 30
0.0
  0
LINE
  5
2C8
330
17
100
AcDbEntity
  8
visible
100
AcDbLine
 10
-48.70204365641614
 20
-2.789204865507645
 30
0.0
 11
-48.70204365641614
 21
3.084327431771116
 31
0.0
  0
LINE
  5
2C9
330
17
100
AcDbEntity
  8
visible
100
AcDbLine
 10
-46.20972740537154
 20
-4.9576053925615255
 30
0.0
 11
-42.866401659164886
 21
-5.82979733295174
 31
0.0
  0
SPLINE
  5
2CA
330
17
100
AcDbEntity
  8
visible
100
AcDbSpline
 70
0
 71
3
 72
14
 73
10
 74
0
 40
0.0
 40
0.0
 40
0.0
 40
0.0
 40
0.3333333333333333
 40
0.3333333333333333
 40
0.3333333333333333
 40
0.6666666666666666
 40
0.6666666666666666
 40
0.6666666666666666
 40
1.0
 40
1.0
 40
1.0
 40
1.0
 10
-48.70204365641614
 20
-2.7892048655076422
 30
0.0
 10
-48.70356628129749
 20
-3.1795104678885657
 30
0.0
 10
-48.540701521637196
 20
-3.555403704040541
 30
0.0
 10
-48.279900851311154
 20
-3.853793229517969
 30
0.0
 10
-48.03866575238576
 20
-4.132123553937859
 30
0.0
 10
-47.71853229952467
 20
-4.358192973467691
 30
0.0
 10
-47.337370591409794
 20
-4.5478859971790015
 30
0.0
 10
-47.004184637094994
 20
-4.712288956901437
 30
0.0
 10
-46.62830357508229
 20
-4.848862088695612
 30
0.0
 10
-46.20972740537154
 20
-4.957605392561518
 30
0.0
  0
LINE
  5
2CB
330
17
100
AcDbEntity
  8
visible
100
AcDbLine
 10
-66.19907487860274
 20
39.34515525569083
 30
0.0
 11
-66.19907487860274
 21
46.28662908810729
 31
0.0
  0
LINE
  5
2CC
330
17
100
AcDbEntity
  8
visible
100
AcDbLine
 10
-38.2570885251782
 20
65.52831737389107
 30
0.0
 11
-50.47865928522868
 21
68.71662635871527
 31
0.0
  0
LINE
  5
2CD
330
17
100
AcDbEntity
  8
visible
100
AcDbLine
 10
-49.79030022903711
 20
27.19833137280269
 30
0.0
 11
-60.575752023597474
 21
30.011992033704765
 31
0.0
  0
LINE
  5
2CE
330
17
100
AcDbEntity
  8
visible
100
AcDbLine
 10
-33.16891286054814
 20
66.75534874086226
 30
0.0
 11
-27.986757953927828
 21
65.40345123325743
 31
0.0
  0
SPLINE
  5
2CF
330
17
100
AcDbEntity
  8
visible
100
AcDbSpline
 70
0
 71
2
 72
6
 73
3
 74
0
 40
0.0
 40
0.0
 40
0.0
 40
0.0627008326645434
 40
0.0627008326645434
 40
0.0627008326645434
 10
-27.986757953927828
 20
65.40345123325743
 30
0.0
 10
-27.651635036513596
 20
65.31601495912707
 30
0.0
 10
-27.329788214757915
 20
65.18421540438794
 30
0.0
  0
LINE
  5
2D0
330
17
100
AcDbEntity
  8
visible
100
AcDbLine
 10
-39.05065110068566
 20
5.733898155850966
 30
0.0
 11
-32.45514093627598
 21
9.72227671542357
 31
0.0
  0
LINE
  5
2D1
330
17
100
AcDbEntity
  8
visible
100
AcDbLine
 10
-31.849064010176868
 20
5.175628479256614
 30
0.0
 11
-31.849064010176868
 21
8.295942512185958
 31
0.0
  0
SPLINE
  5
2D2
330
17
100
AcDbEntity
  8
visible
100
AcDbSpline
 70
0
 71
3
 72
11
 73
7
 74
0
 40
0.0
 40
0.0
 40
0.0
 40
0.0
 40
0.6281955861826147
 40
0.6281955861826147
 40
0.6281955861826147
 40
1.0
 40
1.0
 40
1.0
 40
1.0
 10
-31.849064010176868
 20
8.29594251218596
 30
0.0
 10
-31.85032584274452
 20
8.560137191506222
 30
0.0
 10
-31.739158785281575
 20
8.81969523490653
 30
0.0
 10
-31.553273540866265
 20
9.013647100691358
 30
0.0
 10
-31.469181051717243
 20
9.101624340489005
 30
0.0
 10
-31.373432297330687
 20
9.177797805881537
 30
0.0
 10
-31.266027277706637
 20
9.24216749686893
 30
0.0
  0
LINE
  5
2D3
330
17
100
AcDbEntity
  8
visible
100
AcDbLine
 10
-31.266027277706634
 20
9.24216749686893
 30
0.0
 11
-31.069745912477874
 21
9.36086102765088
 31
0.0
  0
LINE
  5
2D4
330
17
100
AcDbEntity
  8
visible
100
AcDbLine
 10
10.1136366366562
 20
-6.713123965720721
 30
0.0
 11
4.7390158254053425
 21
-9.963217116224452
 31
0.0
  0
SPLINE
  5
2D5
330
17
100
AcDbEntity
  8
visible
100
AcDbSpline
 70
0
 71
3
 72
11
 73
7
 74
0
 40
0.0
 40
0.0
 40
0.0
 40
0.0
 40
0.4294745168507618
 40
0.4294745168507618
 40
0.4294745168507618
 40
1.0
 40
1.0
 40
1.0
 40
1.0
 10
4.73901582540535
 20
-9.96321711622445
 30
0.0
 10
4.356139166523029
 20
-10.194061616119475
 30
0.0
 10
3.859867207707856
 20
-10.342534910383495
 30
0.0
 10
3.304749187074586
 20
-10.418596291302304
 30
0.0
 10
2.568754219199356
 20
-10.51923010263817
 30
0.0
 10
1.7445394493569688
 20
-10.478722841841988
 30
0.0
 10
1.0765097029342388
 20
-10.303388558948427
 30
0.0
  0
LINE
  5
2D6
330
17
100
AcDbEntity
  8
visible
100
AcDbLine
 10
1.0765097029342385
 20
-10.303388558948427
 30
0.0
 11
-38.20756781499391
 21
-0.0551332593634104
 31
0.0
  0
SPLINE
  5
2D7
330
17
100
AcDbEntity
  8
visible
100
AcDbSpline
 70
0
 71
3
 72
17
 73
13
 74
0
 40
0.0
 40
0.0
 40
0.0
 40
0.0
 40
0.25
 40
0.25
 40
0.25
 40
0.5
 40
0.5
 40
0.5
 40
0.75
 40
0.75
 40
0.75
 40
1.0
 40
1.0
 40
1.0
 40
1.0
 10
-38.2075678149939
 20
-0.05513325936340863
 30
0.0
 10
-38.356814585913746
 20
-0.016287534293933526
 30
0.0
 10
-38.49829967253621
 20
0.02919996851855814
 30
0.0
 10
-38.6320230748613
 20
0.08132924907406647
 30
0.0
 10
-38.87118653140405
 20
0.17341135552043985
 30
0.0
 10
-39.08099332986754
 20
0.2898783918627137
 30
0.0
 10
-39.26144347025167
 20
0.4307303581008881
 30
0.0
 10
-39.438849544442725
 20
0.5710124545204037
 30
0.0
 10
-39.585026635936124
 20
0.7414989126055995
 30
0.0
 10
-39.67964936715284
 20
0.9384402519896966
 30
0.0
 10
-39.75761234070152
 20
1.100340197874217
 30
0.0
 10
-39.79701468385199
 20
1.270630498258016
 30
0.0
 10
-39.79785639660423
 20
1.449311153141096
 30
0.0
  0
SPLINE
  5
2D8
330
17
100
AcDbEntity
  8
visible
100
AcDbSpline
 70
0
 71
3
 72
14
 73
10
 74
0
 40
0.0
 40
0.0
 40
0.0
 40
0.0
 40
0.22484651937729677
 40
0.22484651937729677
 40
0.22484651937729677
 40
0.44969303875459354
 40
0.44969303875459354
 40
0.44969303875459354
 40
1.0
 40
1.0
 40
1.0
 40
1.0
 10
-30.709789263283675
 20
4.003162124026787
 30
0.0
 10
-30.897276360267337
 20
4.051228955490822
 30
0.0
 10
-31.068536672897988
 20
4.118374997585713
 30
0.0
 10
-31.223570201175523
 20
4.204600250311443
 30
0.0
 10
-31.347256282307935
 20
4.2735991590597875
 30
0.0
 10
-31.456566255627006
 20
4.357417235800743
 30
0.0
 10
-31.551500121132843
 20
4.456054480534336
 30
0.0
 10
-31.738428820047275
 20
4.650239206774398
 30
0.0
 10
-31.850340347445183
 20
4.910577680662552
 30
0.0
 10
-31.849064010176868
 20
5.175628479256616
 30
0.0
  0
LINE
  5
2D9
330
17
100
AcDbEntity
  8
visible
100
AcDbLine
 10
-3.127351857078809
 20
-3.1924213841924782
 30
0.0
 11
-30.70978926328368
 21
4.003162124026789
 31
0.0
  0
SPLINE
  5
2DA
330
17
100
AcDbEntity
  8
visible
100
AcDbSpline
 70
0
 71
3
 72
11
 73
7
 74
0
 40
0.0
 40
0.0
 40
0.0
 40
0.0
 40
0.43042448769909775
 40
0.43042448769909775
 40
0.43042448769909775
 40
1.0
 40
1.0
 40
1.0
 40
1.0
 10
-0.8496633364422232
 20
-2.9661800136456193
 30
0.0
 10
-1.10567816919637
 20
-3.120382946875404
 30
0.0
 10
-1.4178050075028996
 20
-3.2139776367554616
 30
0.0
 10
-1.7596537462815354
 20
-3.262141098228316
 30
0.0
 10
-2.2115852733080055
 20
-3.3250066949897423
 30
0.0
 10
-2.708643825851939
 20
-3.3017799567012482
 30
0.0
 10
-3.127351857078809
 20
-3.1924213841924782
 30
0.0
  0
LINE
  5
2DB
330
17
100
AcDbEntity
  8
visible
100
AcDbLine
 10
9.861585847598572
 20
3.5110318360751105
 30
0.0
 11
-0.8496633364422301
 21
-2.966180013645616
 31
0.0
  0
SPLINE
  5
2DC
330
17
100
AcDbEntity
  8
visible
100
AcDbSpline
 70
0
 71
2
 72
10
 73
7
 74
0
 40
0.0
 40
0.0
 40
0.0
 40
0.3333333333333333
 40
0.3333333333333333
 40
0.6666666666666666
 40
0.6666666666666666
 40
1.0
 40
1.0
 40
1.0
 10
-39.79785639660424
 20
4.569625186070439
 30
0.0
 10
-39.79660609877982
 20
4.8369567080351175
 30
0.0
 10
-39.68022473497643
 20
5.0792986206887605
 30
0.0
 10
-39.587372707875986
 20
5.270486072631634
 30
0.0
 10
-39.438092232800564
 20
5.427110413317635
 30
0.0
 10
-39.270449710810084
 20
5.602287696439637
 30
0.0
 10
-39.05065110068567
 20
5.733898155850966
 30
0.0
  0
LINE
  5
2DD
330
17
100
AcDbEntity
  8
visible
100
AcDbLine
 10
-39.79785639660423
 20
1.4493111531410934
 30
0.0
 11
-39.79785639660423
 21
4.5696251860704376
 31
0.0
  0
LINE
  5
2DE
330
17
100
AcDbEntity
  8
visible
100
AcDbLine
 10
-37.061319309376486
 20
14.014285725358704
 30
0.0
 11
-37.061319309376486
 21
44.299686633202285
 31
0.0
  0
LINE
  5
2DF
330
17
100
AcDbEntity
  8
visible
100
AcDbLine
 10
-35.131147027715365
 20
47.72252364603185
 30
0.0
 11
-11.524741920552213
 21
61.99758010884326
 31
0.0
  0
ARC
  5
2E0
330
17
100
AcDbEntity
  8
visible
100
AcDbCircle
 10
-33.061319309376486
 20
14.014285725358704
 30
0.0
 40
4.0
100
AcDbArc
 50
180.0
 51
255.37880499752814
  0
ARC
  5
2E1
330
17
100
AcDbEntity
  8
visible
100
AcDbCircle
 10
-33.061319309376486
 20
44.299686633202285
 30
0.0
 40
4.0
100
AcDbArc
 50
121.16182143619447
 51
180.0
  0
ARC
  5
2E2
330
17
100
AcDbEntity
  8
visible
100
AcDbCircle
 10
-9.454914202213331
 20
58.57474309601369
 30
0.0
 40
4.0
100
AcDbArc
 50
75.37880499752815
 51
121.16182143619447
  0
LINE
  5
2E3
330
17
100
AcDbEntity
  8
visible
100
AcDbLine
 10
-34.07102858321336
 20
10.143822292857644
 30
0.0
 11
1.0338917519564674
 21
0.985806918760396
 31
0.0
  0
LINE
  5
2E4
330
17
100
AcDbEntity
  8
visible
100
AcDbLine
 10
4.113428744132232
 20
1.433433338431889
 30
0.0
 11
9.861585847598572
 21
4.9094080510828
 31
0.0
  0
LINE
  5
2E5
330
17
100
AcDbEntity
  8
visible
100
AcDbLine
 10
-8.44520492837645
 20
62.44520652851474
 30
0.0
 11
26.65971540679338
 21
53.28719115441749
 31
0.0
  0
ARC
  5
2E6
330
17
100
AcDbEntity
  8
visible
100
AcDbCircle
 10
2.0436010257933503
 20
4.856270351261458
 30
0.0
 40
4.0
100
AcDbArc
 50
255.37880499752814
 51
301.16182143619443
  0
ARC
  5
2E7
330
17
100
AcDbEntity
  8
visible
100
AcDbCircle
 10
25.650006132956506
 20
49.416727721916445
 30
0.0
 40
4.0
100
AcDbArc
 50
374.22144300382314
 51
435.37880499752816
  0
LINE
  5
2E8
330
17
100
AcDbEntity
  8
visible
100
AcDbLine
 10
-12.852021443264459
 20
12.745453736698764
 30
0.0
 11
-11.75404911269873
 21
13.409409851248132
 31
0.0
  0
LINE
  5
2E9
330
17
100
AcDbEntity
  8
visible
100
AcDbLine
 10
-24.753530823713042
 20
32.42676656046878
 30
0.0
 11
-23.655558493147314
 21
33.09072267501815
 31
0.0
  0
ENDSEC
  0
SECTION
  2
OBJECTS
  0
DICTIONARY
  5
A
330
0
100
AcDbDictionary
281
1
  3
ACAD_COLOR
350
B
  3
ACAD_GROUP
350
C
  3
ACAD_LAYOUT
350
D
  3
ACAD_MATERIAL
350
E
  3
ACAD_MLEADERSTYLE
350
F
  3
ACAD_MLINESTYLE
350
10
  3
ACAD_PLOTSETTINGS
350
11
  3
ACAD_PLOTSTYLENAME
350
12
  3
ACAD_SCALELIST
350
14
  3
ACAD_TABLESTYLE
350
15
  3
ACAD_VISUALSTYLE
350
16
  3
EZDXF_META
350
2D
  0
DICTIONARY
  5
B
330
A
100
AcDbDictionary
281
1
  0
DICTIONARY
  5
C
330
A
100
AcDbDictionary
281
1
  0
DICTIONARY
  5
D
330
A
100
AcDbDictionary
281
1
  3
Model
350
1A
  3
Layout1
350
1E
  0
DICTIONARY
  5
E
330
A
100
AcDbDictionary
281
1
  3
ByBlock
350
1F
  3
ByLayer
350
20
  3
Global
350
21
  0
DICTIONARY
  5
F
330
A
100
AcDbDictionary
281
1
  3
Standard
350
2C
  0
DICTIONARY
  5
10
330
A
100
AcDbDictionary
281
1
  3
Standard
350
22
  0
DICTIONARY
  5
11
330
A
100
AcDbDictionary
281
1
  0
ACDBDICTIONARYWDFLT
  5
12
330
A
100
AcDbDictionary
281
1
  3
Normal
350
13
100
AcDbDictionaryWithDefault
340
13
  0
ACDBPLACEHOLDER
  5
13
330
12
  0
DICTIONARY
  5
14
330
A
100
AcDbDictionary
281
1
  0
DICTIONARY
  5
15
330
A
100
AcDbDictionary
281
1
  0
DICTIONARY
  5
16
330
A
100
AcDbDictionary
281
1
  0
LAYOUT
  5
1A
330
D
100
AcDbPlotSettings
  1

  4
A3
  6

 40
7.5
 41
20.0
 42
7.5
 43
20.0
 44
420.0
 45
297.0
 46
0.0
 47
0.0
 48
0.0
 49
0.0
140
0.0
141
0.0
142
1.0
143
1.0
 70
1024
 72
1
 73
0
 74
5
  7

 75
16
 76
0
 77
2
 78
300
147
1.0
148
0.0
149
0.0
100
AcDbLayout
  1
Model
 70
1
 71
0
 10
0.0
 20
0.0
 11
420.0
 21
297.0
 12
0.0
 22
0.0
 32
0.0
 14
1e+20
 24
1e+20
 34
1e+20
 15
-1e+20
 25
-1e+20
 35
-1e+20
146
0.0
 13
0.0
 23
0.0
 33
0.0
 16
1.0
 26
0.0
 36
0.0
 17
0.0
 27
1.0
 37
0.0
 76
1
330
17
  0
LAYOUT
  5
1E
330
D
100
AcDbPlotSettings
  1

  4
A3
  6

 40
7.5
 41
20.0
 42
7.5
 43
20.0
 44
420.0
 45
297.0
 46
0.0
 47
0.0
 48
0.0
 49
0.0
140
0.0
141
0.0
142
1.0
143
1.0
 70
0
 72
1
 73
0
 74
5
  7

 75
16
 76
0
 77
2
 78
300
147
1.0
148
0.0
149
0.0
100
AcDbLayout
  1
Layout1
 70
1
 71
1
 10
0.0
 20
0.0
 11
420.0
 21
297.0
 12
0.0
 22
0.0
 32
0.0
 14
1e+20
 24
1e+20
 34
1e+20
 15
-1e+20
 25
-1e+20
 35
-1e+20
146
0.0
 13
0.0
 23
0.0
 33
0.0
 16
1.0
 26
0.0
 36
0.0
 17
0.0
 27
1.0
 37
0.0
 76
1
330
1B
  0
MATERIAL
  5
1F
102
{ACAD_REACTORS
330
E
102
}
330
E
100
AcDbMaterial
  1
ByBlock
  2

 70
0
 40
1.0
 71
1
 41
1.0
 91
-1023410177
 42
1.0
 72
1
  3

 73
1
 74
1
 75
1
 44
0.5
 73
0
 45
1.0
 46
1.0
 77
1
  4

 78
1
 79
1
170
1
 48
1.0
171
1
  6

172
1
173
1
174
1
140
1.0
141
1.0
175
1
  7

176
1
177
1
178
1
143
1.0
179
1
  8

270
1
271
1
272
1
145
1.0
146
1.0
273
1
  9

274
1
275
1
276
1
 42
1.0
 72
1
  3

 73
1
 74
1
 75
1
 94
63
  0
MATERIAL
  5
20
102
{ACAD_REACTORS
330
E
102
}
330
E
100
AcDbMaterial
  1
ByLayer
  2

 70
0
 40
1.0
 71
1
 41
1.0
 91
-1023410177
 42
1.0
 72
1
  3

 73
1
 74
1
 75
1
 44
0.5
 73
0
 45
1.0
 46
1.0
 77
1
  4

 78
1
 79
1
170
1
 48
1.0
171
1
  6

172
1
173
1
174
1
140
1.0
141
1.0
175
1
  7

176
1
177
1
178
1
143
1.0
179
1
  8

270
1
271
1
272
1
145
1.0
146
1.0
273
1
  9

274
1
275
1
276
1
 42
1.0
 72
1
  3

 73
1
 74
1
 75
1
 94
63
  0
MATERIAL
  5
21
102
{ACAD_REACTORS
330
E
102
}
330
E
100
AcDbMaterial
  1
Global
  2

 70
0
 40
1.0
 71
1
 41
1.0
 91
-1023410177
 42
1.0
 72
1
  3

 73
1
 74
1
 75
1
 44
0.5
 73
0
 45
1.0
 46
1.0
 77
1
  4

 78
1
 79
1
170
1
 48
1.0
171
1
  6

172
1
173
1
174
1
140
1.0
141
1.0
175
1
  7

176
1
177
1
178
1
143
1.0
179
1
  8

270
1
271
1
272
1
145
1.0
146
1.0
273
1
  9

274
1
275
1
276
1
 42
1.0
 72
1
  3

 73
1
 74
1
 75
1
 94
63
  0
MLINESTYLE
  5
22
102
{ACAD_REACTORS
330
10
102
}
330
10
100
AcDbMlineStyle
  2
Standard
 70
0
  3

 62
256
 51
90.0
 52
90.0
 71
2
 49
0.5
 62
256
  6
BYLAYER
 49
-0.5
 62
256
  6
BYLAYER
  0
MLEADERSTYLE
  5
2C
102
{ACAD_REACTORS
330
F
102
}
330
F
100
AcDbMLeaderStyle
179
2
170
2
171
1
172
0
 90
2
 40
0.0
 41
0.0
173
1
 91
-1056964608
 92
-2
290
1
 42
2.0
291
1
 43
8.0
  3
Standard
 44
4.0
300

342
29
174
1
175
1
176
0
178
1
 93
-1056964608
 45
4.0
292
0
297
0
 46
4.0
 94
-1056964608
 47
1.0
 49
1.0
140
1.0
294
1
141
0.0
177
0
142
1.0
295
0
296
0
143
3.75
271
0
272
9
273
9
  0
DICTIONARY
  5
2D
330
A
100
AcDbDictionary
280
1
281
1
  3
CREATED_BY_EZDXF
350
2E
  3
WRITTEN_BY_EZDXF
350
2ED
  0
DICTIONARYVAR
  5
2E
330
2D
100
DictionaryVariables
280
0
  1
1.4.4 @ 2026-10-03T14:54:37.441114+00:00
  0
DICTIONARYVAR
  5
2ED
330
2D
100
DictionaryVariables
280
0
  1
1.4.4 @ 2026-10-03T14:54:37.581168+00:00
  0
ENDSEC
  0
EOF
