  0
SECTION
  2
HEADER
  9
$ACADVER
  1
AC1027
  9
$ACADMAINTVER
 70
105
  9
$DWGCODEPAGE
  3
ANSI_1252
  9
$LASTSAVEDBY
  1
ezdxf
  9
$REQUIREDVERSIONS
160
0
  9
$INSBASE
 10
0.0
 20
0.0
 30
0.0
  9
$EXTMIN
 10
1e+20
 20
1e+20
 30
1e+20
  9
$EXTMAX
 10
-1e+20
 20
-1e+20
 30
-1e+20
  9
$LIMMIN
 10
0.0
 20
0.0
  9
$LIMMAX
 10
420.0
 20
297.0
  9
$ORTHOMODE
 70
0
  9
$REGENMODE
 70
1
  9
$FILLMODE
 70
1
  9
$QTEXTMODE
 70
0
  9
$MIRRTEXT
 70
1
  9
$LTSCALE
 40
1.0
  9
$ATTMODE
 70
1
  9
$TEXTSIZE
 40
2.5
  9
$TRACEWID
 40
1.0
  9
$TEXTSTYLE
  7
Standard
  9
$CLAYER
  8
0
  9
$CELTYPE
  6
ByLayer
  9
$CECOLOR
 62
256
  9
$CELTSCALE
 40
1.0
  9
$DISPSILH
 70
0
  9
$DIMSCALE
 40
1.0
  9
$DIMASZ
 40
2.5
  9
$DIMEXO
 40
0.625
  9
$DIMDLI
 40
3.75
  9
$DIMRND
 40
0.0
  9
$DIMDLE
 40
0.0
  9
$DIMEXE
 40
1.25
  9
$DIMTP
 40
0.0
  9
$DIMTM
 40
0.0
  9
$DIMTXT
 40
2.5
  9
$DIMCEN
 40
2.5
  9
$DIMTSZ
 40
0.0
  9
$DIMTOL
 70
0
  9
$DIMLIM
 70
0
  9
$DIMTIH
 70
0
  9
$DIMTOH
 70
0
  9
$DIMSE1
 70
0
  9
$DIMSE2
 70
0
  9
$DIMTAD
 70
1
  9
$DIMZIN
 70
8
  9
$DIMBLK
  1

  9
$DIMASO
 70
1
  9
$DIMSHO
 70
1
  9
$DIMPOST
  1

  9
$DIMAPOST
  1

  9
$DIMALT
 70
0
  9
$DIMALTD
 70
3
  9
$DIMALTF
 40
0.03937007874
  9
$DIMLFAC
 40
1.0
  9
$DIMTOFL
 70
1
  9
$DIMTVP
 40
0.0
  9
$DIMTIX
 70
0
  9
$DIMSOXD
 70
0
  9
$DIMSAH
 70
0
  9
$DIMBLK1
  1

  9
$DIMBLK2
  1

  9
$DIMSTYLE
  2
ISO-25
  9
$DIMCLRD
 70
0
  9
$DIMCLRE
 70
0
  9
$DIMCLRT
 70
0
  9
$DIMTFAC
 40
1.0
  9
$DIMGAP
 40
0.625
  9
$DIMJUST
 70
0
  9
$DIMSD1
 70
0
  9
$DIMSD2
 70
0
  9
$DIMTOLJ
 70
0
  9
$DIMTZIN
 70
8
  9
$DIMALTZ
 70
0
  9
$DIMALTTZ
 70
0
  9
$DIMUPT
 70
0
  9
$DIMDEC
 70
2
  9
$DIMTDEC
 70
2
  9
$DIMALTU
 70
2
  9
$DIMALTTD
 70
3
  9
$DIMTXSTY
  7
Standard
  9
$DIMAUNIT
 70
0
  9
$DIMADEC
 70
0
  9
$DIMALTRND
 40
0.0
  9
$DIMAZIN
 70
0
  9
$DIMDSEP
 70
44
  9
$DIMATFIT
 70
3
  9
$DIMFRAC
 70
0
  9
$DIMLDRBLK
  1

  9
$DIMLUNIT
 70
2
  9
$DIMLWD
 70
-2
  9
$DIMLWE
 70
-2
  9
$DIMTMOVE
 70
0
  9
$DIMFXL
 40
1.0
  9
$DIMFXLON
 70
0
  9
$DIMJOGANG
 40
0.785398163397
  9
$DIMTFILL
 70
0
  9
$DIMTFILLCLR
 70
0
  9
$DIMARCSYM
 70
0
  9
$DIMLTYPE
  6

  9
$DIMLTEX1
  6

  9
$DIMLTEX2
  6

  9
$DIMTXTDIRECTION
 70
0
  9
$LUNITS
 70
2
  9
$LUPREC
 70
4
  9
$SKETCHINC
 40
1.0
  9
$FILLETRAD
 40
10.0
  9
$AUNITS
 70
0
  9
$AUPREC
 70
2
  9
$MENU
  1
.
  9
$ELEVATION
 40
0.0
  9
$PELEVATION
 40
0.0
  9
$THICKNESS
 40
0.0
  9
$LIMCHECK
 70
0
  9
$CHAMFERA
 40
0.0
  9
$CHAMFERB
 40
0.0
  9
$CHAMFERC
 40
0.0
  9
$CHAMFERD
 40
0.0
  9
$SKPOLY
 70
0
  9
$TDCREATE
 40
2461315.8954976853
  9
$TDUCREATE
 40
2458532.153996898
  9
$TDUPDATE
 40
2461315.8954976853
  9
$TDUUPDATE
 40
2458532.1544311
  9
$TDINDWG
 40
0.0
  9
$TDUSRTIMER
 40
0.0
  9
$USRTIMER
 70
1
  9
$ANGBASE
 50
0.0
  9
$ANGDIR
 70
0
  9
$PDMODE
 70
0
  9
$PDSIZE
 40
0.0
  9
$PLINEWID
 40
0.0
  9
$SPLFRAME
 70
0
  9
$SPLINETYPE
 70
6
  9
$SPLINESEGS
 70
8
  9
$HANDSEED
  5
178
  9
$SURFTAB1
 70
6
  9
$SURFTAB2
 70
6
  9
$SURFTYPE
 70
6
  9
$SURFU
 70
6
  9
$SURFV
 70
6
  9
$UCSBASE
  2

  9
$UCSNAME
  2

  9
$UCSORG
 10
0.0
 20
0.0
 30
0.0
  9
$UCSXDIR
 10
1.0
 20
0.0
 30
0.0
  9
$UCSYDIR
 10
0.0
 20
1.0
 30
0.0
  9
$UCSORTHOREF
  2

  9
$UCSORTHOVIEW
 70
0
  9
$UCSORGTOP
 10
0.0
 20
0.0
 30
0.0
  9
$UCSORGBOTTOM
 10
0.0
 20
0.0
 30
0.0
  9
$UCSORGLEFT
 10
0.0
 20
0.0
 30
0.0
  9
$UCSORGRIGHT
 10
0.0
 20
0.0
 30
0.0
  9
$UCSORGFRONT
 10
0.0
 20
0.0
 30
0.0
  9
$UCSORGBACK
 10
0.0
 20
0.0
 30
0.0
  9
$PUCSBASE
  2

  9
$PUCSNAME
  2

  9
$PUCSORG
 10
0.0
 20
0.0
 30
0.0
  9
$PUCSXDIR
 10
1.0
 20
0.0
 30
0.0
  9
$PUCSYDIR
 10
0.0
 20
1.0
 30
0.0
  9
$PUCSORTHOREF
  2

  9
$PUCSORTHOVIEW
 70
0
  9
$PUCSORGTOP
 10
0.0
 20
0.0
 30
0.0
  9
$PUCSORGBOTTOM
 10
0.0
 20
0.0
 30
0.0
  9
$PUCSORGLEFT
 10
0.0
 20
0.0
 30
0.0
  9
$PUCSORGRIGHT
 10
0.0
 20
0.0
 30
0.0
  9
$PUCSORGFRONT
 10
0.0
 20
0.0
 30
0.0
  9
$PUCSORGBACK
 10
0.0
 20
0.0
 30
0.0
  9
$USERI1
 70
0
  9
$USERI2
 70
0
  9
$USERI3
 70
0
  9
$USERI4
 70
0
  9
$USERI5
 70
0
  9
$USERR1
 40
0.0
  9
$USERR2
 40
0.0
  9
$USERR3
 40
0.0
  9
$USERR4
 40
0.0
  9
$USERR5
 40
0.0
  9
$WORLDVIEW
 70
1
  9
$SHADEDGE
 70
3
  9
$SHADEDIF
 70
70
  9
$TILEMODE
 70
1
  9
$MAXACTVP
 70
64
  9
$PINSBASE
 10
0.0
 20
0.0
 30
0.0
  9
$PLIMCHECK
 70
0
  9
$PEXTMIN
 10
1e+20
 20
1e+20
 30
1e+20
  9
$PEXTMAX
 10
-1e+20
 20
-1e+20
 30
-1e+20
  9
$PLIMMIN
 10
0.0
 20
0.0
  9
$PLIMMAX
 10
420.0
 20
297.0
  9
$UNITMODE
 70
0
  9
$VISRETAIN
 70
1
  9
$PLINEGEN
 70
0
  9
$PSLTSCALE
 70
1
  9
$TREEDEPTH
 70
3020
  9
$CMLSTYLE
  2
Standard
  9
$CMLJUST
 70
0
  9
$CMLSCALE
 40
20.0
  9
$PROXYGRAPHICS
 70
1
  9
$MEASUREMENT
 70
1
  9
$CELWEIGHT
370
-1
  9
$ENDCAPS
280
0
  9
$JOINSTYLE
280
0
  9
$LWDISPLAY
290
0
  9
$INSUNITS
 70
4
  9
$HYPERLINKBASE
  1

  9
$STYLESHEET
  1

  9
$XEDIT
290
1
  9
$CEPSNTYPE
380
0
  9
$PSTYLEMODE
290
1
  9
$FINGERPRINTGUID
  2
{72A6D54A-946D-4F2F-A8A7-E7C58E52B154}
  9
$VERSIONGUID
  2
{8FBCAC8B-4947-4760-96CA-8318A333A46D}
  9
$EXTNAMES
290
1
  9
$PSVPSCALE
 40
0.0
  9
$OLESTARTUP
290
0
  9
$SORTENTS
280
127
  9
$INDEXCTL
280
0
  9
$HIDETEXT
280
1
  9
$XCLIPFRAME
280
1
  9
$HALOGAP
280
0
  9
$OBSCOLOR
 70
257
  9
$OBSLTYPE
280
0
  9
$INTERSECTIONDISPLAY
280
0
  9
$INTERSECTIONCOLOR
 70
257
  9
$DIMASSOC
280
2
  9
$PROJECTNAME
  1

  9
$CAMERADISPLAY
290
0
  9
$LENSLENGTH
 40
50.0
  9
$CAMERAHEIGHT
 40
0.0
  9
$STEPSPERSEC
 40
24.0
  9
$STEPSIZE
 40
100.0
  9
$3DDWFPREC
 40
2.0
  9
$PSOLWIDTH
 40
0.005
  9
$PSOLHEIGHT
 40
0.08
  9
$LOFTANG1
 40
1.570796326795
  9
$LOFTANG2
 40
1.570796326795
  9
$LOFTMAG1
 40
0.0
  9
$LOFTMAG2
 40
0.0
  9
$LOFTPARAM
 70
7
  9
$LOFTNORMALS
280
1
  9
$LATITUDE
 40
37.795
  9
$LONGITUDE
 40
-122.394
  9
$NORTHDIRECTION
 40
0.0
  9
$TIMEZONE
 70
-8000
  9
$LIGHTGLYPHDISPLAY
280
1
  9
$TILEMODELIGHTSYNCH
280
1
  9
$CMATERIAL
347
20
  9
$SOLIDHIST
280
0
  9
$SHOWHIST
280
1
  9
$DWFFRAME
280
2
  9
$DGNFRAME
280
2
  9
$REALWORLDSCALE
290
1
  9
$INTERFERECOLOR
 62
256
  9
$CSHADOW
280
0
  9
$SHADOWPLANELOCATION
 40
0.0
  0
ENDSEC
  0
SECTION
  2
CLASSES
  0
CLASS
  1
ACDBDICTIONARYWDFLT
  2
AcDbDictionaryWithDefault
  3
ObjectDBX Classes
 90
0
 91
0
280
0
281
0
  0
CLASS
  1
SUN
  2
AcDbSun
  3
SCENEOE
 90
1153
 91
0
280
0
281
0
  0
CLASS
  1
VISUALSTYLE
  2
AcDbVisualStyle
  3
ObjectDBX Classes
 90
4095
 91
0
280
0
281
0
  0
CLASS
  1
MATERIAL
  2
AcDbMaterial
  3
ObjectDBX Classes
 90
1153
 91
0
280
0
281
0
  0
CLASS
  1
SCALE
  2
AcDbScale
  3
ObjectDBX Classes
 90
1153
 91
0
280
0
281
0
  0
CLASS
  1
TABLESTYLE
  2
AcDbTableStyle
  3
ObjectDBX Classes
 90
4095
 91
0
280
0
281
0
  0
CLASS
  1
MLEADERSTYLE
  2
AcDbMLeaderStyle
  3
ACDB_MLEADERSTYLE_CLASS
 90
4095
 91
0
280
0
281
0
  0
CLASS
  1
DICTIONARYVAR
  2
AcDbDictionaryVar
  3
ObjectDBX Classes
 90
0
 91
0
280
0
281
0
  0
CLASS
  1
CELLSTYLEMAP
  2
AcDbCellStyleMap
  3
ObjectDBX Classes
 90
1152
 91
0
280
0
281
0
  0
CLASS
  1
MENTALRAYRENDERSETTINGS
  2
AcDbMentalRayRenderSettings
  3
SCENEOE
 90
1024
 91
0
280
0
281
0
  0
CLASS
  1
ACDBDETAILVIEWSTYLE
  2
AcDbDetailViewStyle
  3
ObjectDBX Classes
 90
1025
 91
0
280
0
281
0
  0
CLASS
  1
ACDBSECTIONVIEWSTYLE
  2
AcDbSectionViewStyle
  3
ObjectDBX Classes
 90
1025
 91
0
280
0
281
0
  0
CLASS
  1
RASTERVARIABLES
  2
AcDbRasterVariables
  3
ISM
 90
0
 91
0
280
0
281
0
  0
CLASS
  1
LAYOUT
  2
AcDbLayout
  3
ObjectDBX Classes
 90
0
 91
0
280
0
281
0
  0
CLASS
  1
ACDBPLACEHOLDER
  2
AcDbPlaceHolder
  3
ObjectDBX Classes
 90
0
 91
0
280
0
281
0
  0
ENDSEC
  0
SECTION
  2
TABLES
  0
TABLE
  2
VPORT
  5
8
330
0
100
AcDbSymbolTable
 70
1
  0
VPORT
  5
174
330
8
100
AcDbSymbolTableRecord
100
AcDbViewportTableRecord
  2
*Active
 70
0
 10
0.0
 20
0.0
 11
1.0
 21
1.0
 12
3.00000237984932e-08
 22
6.322163415006798e-08
 13
0.0
 23
0.0
 14
0.5
 24
0.5
 15
0.5
 25
0.5
 16
0.0
 26
0.0
 36
1.0
 17
0.0
 27
0.0
 37
0.0
 40
99.33718641318936
 41
1.34
 42
50.0
 43
0.0
 44
0.0
 50
0.0
 51
0.0
 71
0
 72
1000
 73
1
 74
3
 75
0
 76
0
 77
0
 78
0
281
0
 65
1
110
0.0
120
0.0
130
0.0
111
1.0
121
0.0
131
0.0
112
0.0
122
1.0
132
0.0
 79
0
146
0.0
  0
ENDTAB
  0
TABLE
  2
LTYPE
  5
2
330
0
100
AcDbSymbolTable
 70
3
  0
LTYPE
  5
24
330
2
100
AcDbSymbolTableRecord
100
AcDbLinetypeTableRecord
  2
ByBlock
 70
0
  3

 72
65
 73
0
 40
0.0
  0
LTYPE
  5
25
330
2
100
AcDbSymbolTableRecord
100
AcDbLinetypeTableRecord
  2
ByLayer
 70
0
  3

 72
65
 73
0
 40
0.0
  0
LTYPE
  5
26
330
2
100
AcDbSymbolTableRecord
100
AcDbLinetypeTableRecord
  2
Continuous
 70
0
  3

 72
65
 73
0
 40
0.0
  0
ENDTAB
  0
TABLE
  2
LAYER
  5
1
330
0
100
AcDbSymbolTable
 70
3
  0
LAYER
  5
27
330
1
100
AcDbSymbolTableRecord
100
AcDbLayerTableRecord
  2
0
 70
0
 62
7
  6
Continuous
370
-3
390
13
347
21
  0
LAYER
  5
28
330
1
100
AcDbSymbolTableRecord
100
AcDbLayerTableRecord
  2
Defpoints
 70
0
 62
7
  6
Continuous
290
0
370
-3
390
13
347
21
  0
LAYER
  5
2F
330
1
100
AcDbSymbolTableRecord
100
AcDbLayerTableRecord
  2
visible
 70
0
 62
7
  6
Continuous
370
-3
390
13
347
21
  0
ENDTAB
  0
TABLE
  2
STYLE
  5
5
330
0
100
AcDbSymbolTable
 70
1
  0
STYLE
  5
29
330
5
100
AcDbSymbolTableRecord
100
AcDbTextStyleTableRecord
  2
Standard
 70
0
 40
0.0
 41
1.0
 50
0.0
 71
0
 42
2.5
  3
txt
  4

  0
ENDTAB
  0
TABLE
  2
VIEW
  5
7
330
0
100
AcDbSymbolTable
 70
0
  0
ENDTAB
  0
TABLE
  2
UCS
  5
6
330
0
100
AcDbSymbolTable
 70
0
  0
ENDTAB
  0
TABLE
  2
APPID
  5
3
330
0
100
AcDbSymbolTable
 70
3
  0
APPID
  5
2A
330
3
100
AcDbSymbolTableRecord
100
AcDbRegAppTableRecord
  2
ACAD
 70
0
  0
APPID
  5
175
330
3
100
AcDbSymbolTableRecord
100
AcDbRegAppTableRecord
  2
HATCHBACKGROUNDCOLOR
 70
0
  0
APPID
  5
176
330
3
100
AcDbSymbolTableRecord
100
AcDbRegAppTableRecord
  2
EZDXF
 70
0
  0
ENDTAB
  0
TABLE
  2
DIMSTYLE
  5
4
330
0
100
AcDbSymbolTable
 70
1
100
AcDbDimStyleTable
  0
DIMSTYLE
105
2B
330
4
100
AcDbSymbolTableRecord
100
AcDbDimStyleTableRecord
  2
Standard
 70
0
 40
1.0
 41
2.5
 42
0.625
 43
3.75
 44
1.25
 45
0.0
 46
0.0
 47
0.0
 48
0.0
 49
2.5
140
2.5
141
2.5
142
0.0
143
0.03937007874
144
1.0
145
0.0
146
1.0
147
0.625
148
0.0
 69
0
 70
0
 71
0
 72
0
 73
0
 74
0
 75
0
 76
0
 77
1
 78
8
 79
3
170
0
171
3
172
1
173
0
174
0
175
0
176
0
177
0
178
0
179
2
271
2
272
2
273
2
274
3
275
0
276
0
277
2
278
44
279
0
280
0
281
0
282
0
283
0
284
8
285
0
286
0
288
0
289
3
290
0
371
-2
372
-2
  0
ENDTAB
  0
TABLE
  2
BLOCK_RECORD
  5
9
330
0
100
AcDbSymbolTable
 70
2
  0
BLOCK_RECORD
  5
17
330
9
100
AcDbSymbolTableRecord
100
AcDbBlockTableRecord
  2
*Model_Space
340
1A
 70
0
280
1
281
0
  0
BLOCK_RECORD
  5
1B
330
9
100
AcDbSymbolTableRecord
100
AcDbBlockTableRecord
  2
*Paper_Space
340
1E
 70
0
280
1
281
0
  0
ENDTAB
  0
ENDSEC
  0
SECTION
  2
BLOCKS
  0
BLOCK
  5
18
330
17
100
AcDbEntity
  8
0
100
AcDbBlockBegin
  2
*Model_Space
 70
0
 10
0.0
 20
0.0
 30
0.0
  3
*Model_Space
  1

  0
ENDBLK
  5
19
330
17
100
AcDbEntity
  8
0
100
AcDbBlockEnd
  0
BLOCK
  5
1C
330
1B
100
AcDbEntity
  8
0
100
AcDbBlockBegin
  2
*Paper_Space
 70
0
 10
0.0
 20
0.0
 30
0.0
  3
*Paper_Space
  1

  0
ENDBLK
  5
1D
330
1B
100
AcDbEntity
  8
0
100
AcDbBlockEnd
  0
ENDSEC
  0
SECTION
  2
ENTITIES
  0
LINE
  5
30
330
17
100
AcDbEntity
  8
visible
100
AcDbLine
 10
-64.79999996963998
 20
19.175289041286177
 30
0.0
 11
-21.599999963879974
 21
47.57281319444321
 31
0.0
  0
ELLIPSE
  5
31
330
17
100
AcDbEntity
  8
visible
100
AcDbEllipse
 10
-58.39999997011998
 20
16.808828694696743
 30
0.0
 11
8.0
 21
0.0
 31
0.0
 40
0.4930125721403967
 41
2.4980915446965084
 42
3.1415926535897927
  0
ELLIPSE
  5
32
330
17
100
AcDbEntity
  8
visible
100
AcDbEllipse
 10
-58.39999997011998
 20
16.808828694696743
 30
0.0
 11
8.0
 21
0.0
 31
0.0
 40
0.4930125721403967
 41
3.1415926535897927
 42
4.068887871491405
  0
ELLIPSE
  5
33
330
17
100
AcDbEntity
  8
visible
100
AcDbEllipse
 10
-15.199999964359975
 20
45.20635284785378
 30
0.0
 11
-8.0
 21
-0.0
 31
0.0
 40
0.4930125721403967
 41
-2.214297435688181
 42
-0.6435011088932845
  0
LINE
  5
34
330
17
100
AcDbEntity
  8
visible
100
AcDbLine
 10
-63.19999997075998
 20
13.653548233234853
 30
0.0
 11
10.400000023720025
 21
-13.560745752543617
 31
0.0
  0
LINE
  5
35
330
17
100
AcDbEntity
  8
visible
100
AcDbLine
 10
-10.399999963719969
 20
48.361633309315664
 30
0.0
 11
63.20000003076004
 21
21.147339323537196
 31
0.0
  0
ELLIPSE
  5
36
330
17
100
AcDbEntity
  8
visible
100
AcDbEllipse
 10
15.200000024360023
 20
-10.405465291081725
 30
0.0
 11
-8.0
 21
-0.0
 31
0.0
 40
0.4930125721403967
 41
-5.355890089277974
 42
-3.7850937624830774
  0
ELLIPSE
  5
37
330
17
100
AcDbEntity
  8
visible
100
AcDbEllipse
 10
58.400000030120026
 20
17.99205886207531
 30
0.0
 11
8.0
 21
0.0
 31
0.0
 40
0.4930125721403967
 41
5.639684198286302
 42
6.283185307179586
  0
ELLIPSE
  5
38
330
17
100
AcDbEntity
  8
visible
100
AcDbEllipse
 10
58.400000030120026
 20
17.99205886207531
 30
0.0
 11
8.0
 21
0.0
 31
0.0
 40
0.4930125721403967
 41
0.0
 42
0.9272952179016118
  0
LINE
  5
39
330
17
100
AcDbEntity
  8
visible
100
AcDbLine
 10
21.600000023880018
 20
-12.77192563767116
 30
0.0
 11
64.80000002964002
 21
15.625598515485873
 31
0.0
  0
ELLIPSE
  5
3A
330
17
100
AcDbEntity
  8
visible
100
AcDbEllipse
 10
-59.79999997013998
 20
16.710226180337685
 30
0.0
 11
1.3
 21
0.0
 31
0.0
 40
0.4930125721403967
 41
5.639684198286302
 42
6.283185307179586
  0
ELLIPSE
  5
3B
330
17
100
AcDbEntity
  8
visible
100
AcDbEllipse
 10
-59.79999997013998
 20
16.710226180337685
 30
0.0
 11
1.3
 21
0.0
 31
0.0
 40
0.4930125721403967
 41
0.0
 42
3.141592653589793
  0
ELLIPSE
  5
3C
330
17
100
AcDbEntity
  8
visible
100
AcDbEllipse
 10
-59.79999997013998
 20
16.710226180337685
 30
0.0
 11
1.3
 21
0.0
 31
0.0
 40
0.4930125721403967
 41
3.141592653589793
 42
5.639684198286302
  0
ELLIPSE
  5
3D
330
17
100
AcDbEntity
  8
visible
100
AcDbEllipse
 10
15.40000002422002
 20
-11.095682892088142
 30
0.0
 11
1.3
 21
0.0
 31
0.0
 40
0.4930125721403967
 41
5.639684198286302
 42
6.283185307179586
  0
ELLIPSE
  5
3E
330
17
100
AcDbEntity
  8
visible
100
AcDbEllipse
 10
15.40000002422002
 20
-11.095682892088142
 30
0.0
 11
1.3
 21
0.0
 31
0.0
 40
0.4930125721403967
 41
0.0
 42
3.141592653589793
  0
ELLIPSE
  5
3F
330
17
100
AcDbEntity
  8
visible
100
AcDbEllipse
 10
15.40000002422002
 20
-11.095682892088142
 30
0.0
 11
1.3
 21
0.0
 31
0.0
 40
0.4930125721403967
 41
3.141592653589793
 42
5.639684198286302
  0
LINE
  5
40
330
17
100
AcDbEntity
  8
visible
100
AcDbLine
 10
19.836931711830104
 20
-11.465815901567014
 30
0.0
 11
61.76306834204995
 21
16.094334039323797
 31
0.0
  0
ELLIPSE
  5
41
330
17
100
AcDbEntity
  8
visible
100
AcDbEllipse
 10
15.40000002422002
 20
-11.095682892088142
 30
0.0
 11
4.5
 21
0.0
 31
0.0
 40
0.49301257214039673
 41
6.115566447946666
 42
6.283185307179586
  0
ELLIPSE
  5
42
330
17
100
AcDbEntity
  8
visible
100
AcDbEllipse
 10
15.40000002422002
 20
-11.095682892088142
 30
0.0
 11
4.5
 21
0.0
 31
0.0
 40
0.49301257214039673
 41
0.0
 42
3.141592653589793
  0
ELLIPSE
  5
43
330
17
100
AcDbEntity
  8
visible
100
AcDbEllipse
 10
15.40000002422002
 20
-11.095682892088142
 30
0.0
 11
4.5
 21
0.0
 31
0.0
 40
0.49301257214039673
 41
3.141592653589793
 42
3.593005621831052
  0
ELLIPSE
  5
44
330
17
100
AcDbEntity
  8
visible
100
AcDbEllipse
 10
59.800000030140026
 20
18.09066137643437
 30
0.0
 11
4.5
 21
0.0
 31
0.0
 40
0.49301257214039673
 41
1.4031774675619648
 42
3.141592653589793
  0
ELLIPSE
  5
45
330
17
100
AcDbEntity
  8
visible
100
AcDbEllipse
 10
59.800000030140026
 20
18.09066137643437
 30
0.0
 11
4.5
 21
0.0
 31
0.0
 40
0.49301257214039673
 41
3.141592653589793
 42
5.163801948625936
  0
LINE
  5
46
330
17
100
AcDbEntity
  8
visible
100
AcDbLine
 10
11.350757773776877
 20
-12.063500249830167
 30
0.0
 11
-60.550757720336776
 21
14.522763076617805
 31
0.0
  0
LINE
  5
47
330
17
100
AcDbEntity
  8
visible
100
AcDbLine
 10
60.550757780336895
 20
20.27812448015423
 30
0.0
 11
-11.350757713776762
 21
46.8643878066022
 31
0.0
  0
ELLIPSE
  5
48
330
17
100
AcDbEntity
  8
visible
100
AcDbEllipse
 10
-59.79999997013998
 20
16.710226180337685
 30
0.0
 11
4.5
 21
-1.4355966125332808e-16
 31
0.0
 40
0.49301257214039673
 41
4.544770121151778
 42
6.283185307179586
  0
ELLIPSE
  5
49
330
17
100
AcDbEntity
  8
visible
100
AcDbEllipse
 10
-59.79999997013998
 20
16.710226180337685
 30
0.0
 11
4.5
 21
-1.4355966125332808e-16
 31
0.0
 40
0.49301257214039673
 41
4.440892098500626e-16
 42
2.0222092950361117
  0
ELLIPSE
  5
4A
330
17
100
AcDbEntity
  8
visible
100
AcDbEllipse
 10
-15.399999964219973
 20
45.896570448860196
 30
0.0
 11
4.5
 21
7.177983062666406e-17
 31
0.0
 40
0.49301257214039673
 41
2.9739737943569047
 42
3.141592653589793
  0
ELLIPSE
  5
4B
330
17
100
AcDbEntity
  8
visible
100
AcDbEllipse
 10
-15.399999964219973
 20
45.896570448860196
 30
0.0
 11
4.5
 21
7.177983062666406e-17
 31
0.0
 40
0.49301257214039673
 41
3.141592653589793
 42
6.283185307179586
  0
ELLIPSE
  5
4C
330
17
100
AcDbEntity
  8
visible
100
AcDbEllipse
 10
-15.399999964219973
 20
45.896570448860196
 30
0.0
 11
4.5
 21
7.177983062666406e-17
 31
0.0
 40
0.49301257214039673
 41
0.0
 42
0.45141296824123955
  0
LINE
  5
4D
330
17
100
AcDbEntity
  8
visible
100
AcDbLine
 10
-61.763068282049815
 20
18.706553517448306
 30
0.0
 11
-19.83693165183014
 21
46.266703458339
 31
0.0
  0
ELLIPSE
  5
4E
330
17
100
AcDbEntity
  8
visible
100
AcDbEllipse
 10
-15.399999964219973
 20
45.896570448860196
 30
0.0
 11
1.3
 21
0.0
 31
0.0
 40
0.4930125721403967
 41
5.639684198286302
 42
6.283185307179586
  0
ELLIPSE
  5
4F
330
17
100
AcDbEntity
  8
visible
100
AcDbEllipse
 10
-15.399999964219973
 20
45.896570448860196
 30
0.0
 11
1.3
 21
0.0
 31
0.0
 40
0.4930125721403967
 41
0.0
 42
3.141592653589793
  0
ELLIPSE
  5
50
330
17
100
AcDbEntity
  8
visible
100
AcDbEllipse
 10
-15.399999964219973
 20
45.896570448860196
 30
0.0
 11
1.3
 21
0.0
 31
0.0
 40
0.4930125721403967
 41
3.141592653589793
 42
5.639684198286302
  0
ELLIPSE
  5
51
330
17
100
AcDbEntity
  8
visible
100
AcDbEllipse
 10
59.800000030140026
 20
18.09066137643437
 30
0.0
 11
1.3
 21
0.0
 31
0.0
 40
0.4930125721403967
 41
5.639684198286302
 42
6.283185307179586
  0
ELLIPSE
  5
52
330
17
100
AcDbEntity
  8
visible
100
AcDbEllipse
 10
59.800000030140026
 20
18.09066137643437
 30
0.0
 11
1.3
 21
0.0
 31
0.0
 40
0.4930125721403967
 41
0.0
 42
3.141592653589793
  0
ELLIPSE
  5
53
330
17
100
AcDbEntity
  8
visible
100
AcDbEllipse
 10
59.800000030140026
 20
18.09066137643437
 30
0.0
 11
1.3
 21
0.0
 31
0.0
 40
0.4930125721403967
 41
3.141592653589793
 42
5.639684198286302
  0
ELLIPSE
  5
54
330
17
100
AcDbEntity
  8
visible
100
AcDbEllipse
 10
58.400000030120026
 20
12.945930184677636
 30
0.0
 11
8.0
 21
0.0
 31
0.0
 40
0.4930125721403967
 41
5.639684198286302
 42
6.283185307179586
  0
LINE
  5
55
330
17
100
AcDbEntity
  8
visible
100
AcDbLine
 10
64.80000002964003
 20
10.579469838088198
 30
0.0
 11
21.60000002388002
 21
-17.81805431506883
 31
0.0
  0
ELLIPSE
  5
56
330
17
100
AcDbEntity
  8
visible
100
AcDbEllipse
 10
15.200000024360023
 20
-15.451593968479397
 30
0.0
 11
8.0
 21
0.0
 31
0.0
 40
0.4930125721403967
 41
4.068887871491405
 42
5.639684198286302
  0
LINE
  5
57
330
17
100
AcDbEntity
  8
visible
100
AcDbLine
 10
-63.19999997075999
 20
8.607419555837179
 30
0.0
 11
10.400000023720025
 21
-18.60687442994129
 31
0.0
  0
ELLIPSE
  5
58
330
17
100
AcDbEntity
  8
visible
100
AcDbEllipse
 10
-58.39999997011998
 20
11.762700017299075
 30
0.0
 11
8.0
 21
0.0
 31
0.0
 40
0.4930125721403967
 41
3.141592653589793
 42
4.068887871491405
  0
ELLIPSE
  5
59
330
17
100
AcDbEntity
  8
visible
100
AcDbEllipse
 10
27.600000025180023
 20
-29.853361215613745
 30
0.0
 11
-1.0404312138914413
 21
-2.8138057660685076
 31
0.0
 40
0.5220133115245338
 41
0.9561352660052507
 42
2.185457387584541
  0
LINE
  5
5A
330
17
100
AcDbEntity
  8
visible
100
AcDbLine
 10
-42.59999997192998
 20
-18.324117208718697
 30
0.0
 11
-42.59999997192998
 21
-19.085386620328205
 31
0.0
  0
LINE
  5
5B
330
17
100
AcDbEntity
  8
visible
100
AcDbLine
 10
-42.59999997192998
 20
-19.085386620328205
 30
0.0
 11
-40.399999972469985
 21
-19.89885736432966
 31
0.0
  0
LINE
  5
5C
330
17
100
AcDbEntity
  8
visible
100
AcDbLine
 10
-34.599999972529986
 20
-21.282192641955486
 30
0.0
 11
-34.599999972529986
 21
-22.043462053564998
 31
0.0
  0
LINE
  5
5D
330
17
100
AcDbEntity
  8
visible
100
AcDbLine
 10
-34.599999972529986
 20
-22.043462053564994
 30
0.0
 11
-32.39999997306998
 21
-22.856932797566454
 31
0.0
  0
LINE
  5
5E
330
17
100
AcDbEntity
  8
visible
100
AcDbLine
 10
-26.599999973129982
 20
-24.240268075192276
 30
0.0
 11
-26.599999973129982
 21
-25.001537486801787
 31
0.0
  0
LINE
  5
5F
330
17
100
AcDbEntity
  8
visible
100
AcDbLine
 10
-26.59999997312998
 20
-25.001537486801784
 30
0.0
 11
-24.39999997366998
 21
-25.81500823080324
 31
0.0
  0
LINE
  5
60
330
17
100
AcDbEntity
  8
visible
100
AcDbLine
 10
-18.599999973729982
 20
-27.198343508429065
 30
0.0
 11
-18.599999973729982
 21
-27.959612920038577
 31
0.0
  0
LINE
  5
61
330
17
100
AcDbEntity
  8
visible
100
AcDbLine
 10
-18.599999973729986
 20
-27.959612920038573
 30
0.0
 11
-16.39999997426998
 21
-28.773083664040037
 31
0.0
  0
LINE
  5
62
330
17
100
AcDbEntity
  8
visible
100
AcDbLine
 10
-10.599999974329975
 20
-30.917688353275366
 30
0.0
 11
-8.399999974869981
 21
-31.731159097276823
 31
0.0
  0
LINE
  5
63
330
17
100
AcDbEntity
  8
visible
100
AcDbLine
 10
-10.59999997432998
 20
-30.15641894166586
 30
0.0
 11
-10.59999997432998
 21
-30.91768835327537
 31
0.0
  0
LINE
  5
64
330
17
100
AcDbEntity
  8
visible
100
AcDbLine
 10
0.7600000310180235
 20
10.195500062867252
 30
0.0
 11
9.87294121915134
 21
6.825904130970926
 31
0.0
  0
LINE
  5
65
330
17
100
AcDbEntity
  8
visible
100
AcDbLine
 10
23.160000029338025
 20
1.9128888498042382
 30
0.0
 11
24.035294153959068
 21
1.5892405939177152
 31
0.0
  0
LINE
  5
66
330
17
100
AcDbEntity
  8
visible
100
AcDbLine
 10
34.20000003256003
 20
8.27101097953858
 30
0.0
 11
35.800000032440025
 21
7.679395892891223
 31
0.0
  0
LINE
  5
67
330
17
100
AcDbEntity
  8
visible
100
AcDbLine
 10
35.80000003244003
 20
-0.9724914077574152
 30
0.0
 11
35.80000003244003
 21
7.679395892891224
 31
0.0
  0
ELLIPSE
  5
68
330
17
100
AcDbEntity
  8
visible
100
AcDbEllipse
 10
32.60000003268003
 20
11.472692623460603
 30
0.0
 11
0.8788781222642679
 21
-1.3370015879591302
 31
0.0
 40
0.6960177485543743
 41
-6.283185307179586
 42
-5.469223486090197
  0
ELLIPSE
  5
69
330
17
100
AcDbEntity
  8
visible
100
AcDbEllipse
 10
32.60000003268003
 20
11.472692623460603
 30
0.0
 11
0.8788781222642679
 21
-1.3370015879591302
 31
0.0
 40
0.6960177485543743
 41
-3.141592653589793
 42
-1.1102230246251565e-16
  0
ELLIPSE
  5
6A
330
17
100
AcDbEntity
  8
visible
100
AcDbEllipse
 10
32.60000003268003
 20
11.472692623460603
 30
0.0
 11
0.8788781222642679
 21
-1.3370015879591302
 31
0.0
 40
0.6960177485543743
 41
-5.469223486090197
 42
-3.141592653589793
  0
LINE
  5
6B
330
17
100
AcDbEntity
  8
visible
100
AcDbLine
 10
38.000000032275025
 20
11.433541623981762
 30
0.0
 11
46.400000031645035
 21
8.327562419083133
 31
0.0
  0
LINE
  5
6C
330
17
100
AcDbEntity
  8
visible
100
AcDbLine
 10
38.000000032275025
 20
11.433541623981762
 30
0.0
 11
38.000000032275025
 21
7.518441788069773
 31
0.0
  0
LINE
  5
6D
330
17
100
AcDbEntity
  8
visible
100
AcDbLine
 10
46.400000031645035
 20
8.327562419083131
 30
0.0
 11
46.400000031645035
 21
5.995419609852618
 31
0.0
  0
LINE
  5
6E
330
17
100
AcDbEntity
  8
visible
100
AcDbLine
 10
38.000000032275025
 20
7.518441788069774
 30
0.0
 11
44.85882356721392
 21
4.982327112928436
 31
0.0
  0
LINE
  5
6F
330
17
100
AcDbEntity
  8
visible
100
AcDbLine
 10
-15.237258264872725
 20
38.284518549256205
 30
0.0
 11
-15.237258264872725
 21
41.06939861045473
 31
0.0
  0
ELLIPSE
  5
70
330
17
100
AcDbEntity
  8
visible
100
AcDbEllipse
 10
-15.399999964219973
 20
43.28650389158554
 30
0.0
 11
4.5
 21
0.0
 31
0.0
 40
0.49301257214039673
 41
4.504783247728623
 42
4.74856169039966
  0
LINE
  5
71
330
17
100
AcDbEntity
  8
visible
100
AcDbLine
 10
-16.327529331184852
 20
39.37554152336888
 30
0.0
 11
-16.327529331184852
 21
41.11558589488533
 31
0.0
  0
ELLIPSE
  5
72
330
17
100
AcDbEntity
  8
visible
100
AcDbEllipse
 10
-15.399999964219973
 20
41.5464595200691
 30
0.0
 11
4.5
 21
0.0
 31
0.0
 40
0.49301257214039673
 41
3.957546857150442
 42
4.504783247728628
  0
LINE
  5
73
330
17
100
AcDbEntity
  8
visible
100
AcDbLine
 10
-34.05882351120032
 20
4.727120605511654
 30
0.0
 11
-20.599999964829976
 21
13.574279556441532
 31
0.0
  0
ELLIPSE
  5
74
330
17
100
AcDbEntity
  8
visible
100
AcDbEllipse
 10
-58.39999997011998
 20
10.71867339438921
 30
0.0
 11
7.4
 21
0.0
 31
0.0
 40
0.4930125721403967
 41
3.2939165811926667
 42
4.068887871491405
  0
LINE
  5
75
330
17
100
AcDbEntity
  8
visible
100
AcDbLine
 10
10.760000023768043
 20
-19.414255018241512
 30
0.0
 11
-62.83999997071198
 21
7.8000389675369615
 31
0.0
  0
ELLIPSE
  5
76
330
17
100
AcDbEntity
  8
visible
100
AcDbEllipse
 10
15.200000024360023
 20
-16.49562059138926
 30
0.0
 11
7.4
 21
0.0
 31
0.0
 40
0.4930125721403967
 41
4.068887871491405
 42
5.639684198286302
  0
LINE
  5
77
330
17
100
AcDbEntity
  8
visible
100
AcDbLine
 10
21.120000023916027
 20
-18.684596411984487
 30
0.0
 11
64.32000002967604
 21
9.71292774117255
 31
0.0
  0
ELLIPSE
  5
78
330
17
100
AcDbEntity
  8
visible
100
AcDbEllipse
 10
58.400000030120026
 20
11.90190356176777
 30
0.0
 11
7.4
 21
0.0
 31
0.0
 40
0.4930125721403967
 41
5.639684198286302
 42
6.130861379576714
  0
LINE
  5
79
330
17
100
AcDbEntity
  8
visible
100
AcDbLine
 10
-15.159999969937978
 20
8.522544064290557
 30
0.0
 11
-25.658823511830327
 21
1.6211414006130216
 31
0.0
  0
ELLIPSE
  5
7A
330
17
100
AcDbEntity
  8
visible
100
AcDbEllipse
 10
30.00000002500002
 20
-30.74078384558478
 30
0.0
 11
-1.0404312138914413
 21
-2.8138057660685076
 31
0.0
 40
0.5220133115245338
 41
0.6162969376330654
 42
3.141592653589793
  0
ELLIPSE
  5
7B
330
17
100
AcDbEntity
  8
visible
100
AcDbEllipse
 10
30.00000002500002
 20
-30.74078384558478
 30
0.0
 11
-1.0404312138914413
 21
-2.8138057660685076
 31
0.0
 40
0.5220133115245338
 41
3.141592653589793
 42
6.283185307179586
  0
ELLIPSE
  5
7C
330
17
100
AcDbEntity
  8
visible
100
AcDbEllipse
 10
30.00000002500002
 20
-30.74078384558478
 30
0.0
 11
-1.0404312138914413
 21
-2.8138057660685076
 31
0.0
 40
0.5220133115245338
 41
0.0
 42
0.6162969376330656
  0
LINE
  5
7D
330
17
100
AcDbEntity
  8
visible
100
AcDbLine
 10
-44.39999997216998
 20
-17.65855023610176
 30
0.0
 11
-40.39999997246998
 21
-19.137587952720153
 31
0.0
  0
LINE
  5
7E
330
17
100
AcDbEntity
  8
visible
100
AcDbLine
 10
-44.39999997216999
 20
-20.268616793376413
 30
0.0
 11
-42.59999997192998
 21
-19.085386620328205
 31
0.0
  0
LINE
  5
7F
330
17
100
AcDbEntity
  8
visible
100
AcDbLine
 10
-44.39999997216998
 20
-17.658550236101757
 30
0.0
 11
-44.39999997216998
 21
-20.268616793376417
 31
0.0
  0
LINE
  5
80
330
17
100
AcDbEntity
  8
visible
100
AcDbLine
 10
-40.399999972469985
 20
-19.137587952720157
 30
0.0
 11
-40.399999972469985
 21
-21.747654509994817
 31
0.0
  0
LINE
  5
81
330
17
100
AcDbEntity
  8
visible
100
AcDbLine
 10
-44.39999997216998
 20
-20.268616793376417
 30
0.0
 11
-40.39999997246998
 21
-21.747654509994813
 31
0.0
  0
LINE
  5
82
330
17
100
AcDbEntity
  8
visible
100
AcDbLine
 10
-36.39999997276998
 20
-20.61662566933855
 30
0.0
 11
-32.39999997306998
 21
-22.095663385956946
 31
0.0
  0
LINE
  5
83
330
17
100
AcDbEntity
  8
visible
100
AcDbLine
 10
-36.39999997276998
 20
-23.226692226613206
 30
0.0
 11
-34.59999997252998
 21
-22.043462053564998
 31
0.0
  0
LINE
  5
84
330
17
100
AcDbEntity
  8
visible
100
AcDbLine
 10
-36.39999997276998
 20
-20.61662566933855
 30
0.0
 11
-36.39999997276998
 21
-23.22669222661321
 31
0.0
  0
LINE
  5
85
330
17
100
AcDbEntity
  8
visible
100
AcDbLine
 10
-32.39999997306998
 20
-22.095663385956943
 30
0.0
 11
-32.39999997306998
 21
-24.705729943231603
 31
0.0
  0
LINE
  5
86
330
17
100
AcDbEntity
  8
visible
100
AcDbLine
 10
-36.39999997276998
 20
-23.22669222661321
 30
0.0
 11
-32.39999997306998
 21
-24.705729943231603
 31
0.0
  0
LINE
  5
87
330
17
100
AcDbEntity
  8
visible
100
AcDbLine
 10
-28.399999973369983
 20
-23.57470110257534
 30
0.0
 11
-24.39999997366998
 21
-25.053738819193732
 31
0.0
  0
LINE
  5
88
330
17
100
AcDbEntity
  8
visible
100
AcDbLine
 10
-28.39999997336998
 20
-26.184767659849996
 30
0.0
 11
-26.599999973129982
 21
-25.001537486801787
 31
0.0
  0
LINE
  5
89
330
17
100
AcDbEntity
  8
visible
100
AcDbLine
 10
-28.399999973369983
 20
-23.574701102575343
 30
0.0
 11
-28.399999973369983
 21
-26.184767659850003
 31
0.0
  0
LINE
  5
8A
330
17
100
AcDbEntity
  8
visible
100
AcDbLine
 10
-24.39999997366998
 20
-25.053738819193736
 30
0.0
 11
-24.39999997366998
 21
-27.663805376468396
 31
0.0
  0
LINE
  5
8B
330
17
100
AcDbEntity
  8
visible
100
AcDbLine
 10
-28.399999973369983
 20
-26.184767659849996
 30
0.0
 11
-24.39999997366998
 21
-27.663805376468392
 31
0.0
  0
LINE
  5
8C
330
17
100
AcDbEntity
  8
visible
100
AcDbLine
 10
-20.39999997396998
 20
-26.53277653581213
 30
0.0
 11
-16.39999997426998
 21
-28.011814252430526
 31
0.0
  0
LINE
  5
8D
330
17
100
AcDbEntity
  8
visible
100
AcDbLine
 10
-20.39999997396998
 20
-29.142843093086785
 30
0.0
 11
-18.59999997372998
 21
-27.959612920038577
 31
0.0
  0
LINE
  5
8E
330
17
100
AcDbEntity
  8
visible
100
AcDbLine
 10
-20.399999973969983
 20
-26.53277653581213
 30
0.0
 11
-20.399999973969983
 21
-29.14284309308679
 31
0.0
  0
LINE
  5
8F
330
17
100
AcDbEntity
  8
visible
100
AcDbLine
 10
-16.39999997426998
 20
-28.01181425243053
 30
0.0
 11
-16.39999997426998
 21
-30.62188080970519
 31
0.0
  0
LINE
  5
90
330
17
100
AcDbEntity
  8
visible
100
AcDbLine
 10
-20.39999997396998
 20
-29.14284309308679
 30
0.0
 11
-16.39999997426998
 21
-30.621880809705182
 31
0.0
  0
LINE
  5
91
330
17
100
AcDbEntity
  8
visible
100
AcDbLine
 10
-12.39999997456998
 20
-29.49085196904892
 30
0.0
 11
-8.399999974869978
 21
-30.96988968566731
 31
0.0
  0
LINE
  5
92
330
17
100
AcDbEntity
  8
visible
100
AcDbLine
 10
-8.399999974869981
 20
-30.969889685667315
 30
0.0
 11
-8.399999974869981
 21
-33.579956242941975
 31
0.0
  0
LINE
  5
93
330
17
100
AcDbEntity
  8
visible
100
AcDbLine
 10
-12.39999997456998
 20
-32.100918526323575
 30
0.0
 11
-10.599999974329979
 21
-30.917688353275363
 31
0.0
  0
LINE
  5
94
330
17
100
AcDbEntity
  8
visible
100
AcDbLine
 10
-12.39999997456998
 20
-32.100918526323575
 30
0.0
 11
-8.399999974869978
 21
-33.579956242941975
 31
0.0
  0
LINE
  5
95
330
17
100
AcDbEntity
  8
visible
100
AcDbLine
 10
-12.399999974569981
 20
-29.490851969048922
 30
0.0
 11
-12.399999974569981
 21
-32.10091852632358
 31
0.0
  0
LINE
  5
96
330
17
100
AcDbEntity
  8
visible
100
AcDbLine
 10
23.160000029338025
 20
1.0138659170258637
 30
0.0
 11
34.20000003256003
 21
8.27101097953858
 31
0.0
  0
LINE
  5
97
330
17
100
AcDbEntity
  8
visible
100
AcDbLine
 10
23.160000029338025
 20
-0.6295093232230053
 30
0.0
 11
35.800000032440025
 21
7.679395892891224
 31
0.0
  0
ELLIPSE
  5
98
330
17
100
AcDbEntity
  8
visible
100
AcDbEllipse
 10
34.40000003292003
 20
12.655922796508811
 30
0.0
 11
0.8788781222642679
 21
-1.3370015879591302
 31
0.0
 40
0.6960177485543743
 41
-1.8278545734972458
 42
-1.3137380800925558
  0
LINE
  5
99
330
17
100
AcDbEntity
  8
visible
100
AcDbLine
 10
39.80000003251503
 20
10.767974651364826
 30
0.0
 11
39.80000003251503
 21
8.701671961117984
 31
0.0
  0
LINE
  5
9A
330
17
100
AcDbEntity
  8
visible
100
AcDbLine
 10
38.000000032275025
 20
7.518441788069774
 30
0.0
 11
39.80000003251502
 21
8.701671961117983
 31
0.0
  0
LINE
  5
9B
330
17
100
AcDbEntity
  8
visible
100
AcDbLine
 10
39.80000003251503
 20
8.701671961117984
 30
0.0
 11
46.400000031645035
 21
6.261259728836292
 31
0.0
  0
LINE
  5
9C
330
17
100
AcDbEntity
  8
visible
100
AcDbLine
 10
-20.599999964829973
 20
38.539082830269045
 30
0.0
 11
-18.48328153754749
 21
39.930507891754516
 31
0.0
  0
LINE
  5
9D
330
17
100
AcDbEntity
  8
visible
100
AcDbLine
 10
-20.599999964829973
 20
12.438417257522449
 30
0.0
 11
-20.599999964829973
 21
38.539082830269045
 31
0.0
  0
LINE
  5
9E
330
17
100
AcDbEntity
  8
visible
100
AcDbLine
 10
-32.95294115784381
 20
4.318210177791741
 30
0.0
 11
-20.59999996482997
 21
12.438417257522449
 31
0.0
  0
LINE
  5
9F
330
17
100
AcDbEntity
  8
visible
100
AcDbLine
 10
-55.29999997013998
 20
15.626323541999833
 30
0.0
 11
-53.47999996961398
 21
14.953361380693496
 31
0.0
  0
LINE
  5
A0
330
17
100
AcDbEntity
  8
visible
100
AcDbLine
 10
-55.29999997013998
 20
13.75698420553628
 30
0.0
 11
-53.479999969613985
 21
14.953361380693494
 31
0.0
  0
LINE
  5
A1
330
17
100
AcDbEntity
  8
visible
100
AcDbLine
 10
-53.479999969613985
 20
14.953361380693496
 30
0.0
 11
-53.479999969613985
 21
13.145648616419729
 31
0.0
  0
LINE
  5
A2
330
17
100
AcDbEntity
  8
visible
100
AcDbLine
 10
-27.352941158263818
 20
2.247557374525984
 30
0.0
 11
-15.159999969937978
 21
10.262588435806993
 31
0.0
  0
LINE
  5
A3
330
17
100
AcDbEntity
  8
visible
100
AcDbLine
 10
-16.919999965105973
 20
11.077702558233526
 30
0.0
 11
-15.159999969937978
 21
10.426925964659302
 31
0.0
  0
LINE
  5
A4
330
17
100
AcDbEntity
  8
visible
100
AcDbLine
 10
-16.919999965105976
 20
12.885415322507285
 30
0.0
 11
-18.679999964973977
 21
11.728479153545619
 31
0.0
  0
LINE
  5
A5
330
17
100
AcDbEntity
  8
visible
100
AcDbLine
 10
-20.599999964829973
 20
12.438417257522449
 30
0.0
 11
-18.679999964973973
 21
11.728479153545619
 31
0.0
  0
LINE
  5
A6
330
17
100
AcDbEntity
  8
visible
100
AcDbLine
 10
-52.19999997020998
 20
11.434991657691
 30
0.0
 11
-52.19999997020998
 21
12.015006450673624
 31
0.0
  0
LINE
  5
A7
330
17
100
AcDbEntity
  8
visible
100
AcDbLine
 10
-54.119999970065976
 20
12.724944554650452
 30
0.0
 11
-52.19999997020998
 21
12.015006450673622
 31
0.0
  0
LINE
  5
A8
330
17
100
AcDbEntity
  8
visible
100
AcDbLine
 10
-54.11999997006598
 20
12.724944554650452
 30
0.0
 11
-54.11999997006598
 21
12.144929761667829
 31
0.0
  0
LINE
  5
A9
330
17
100
AcDbEntity
  8
visible
100
AcDbLine
 10
-12.599999964929971
 20
16.169845735735713
 30
0.0
 11
-12.599999964929971
 21
38.04607025773424
 31
0.0
  0
LINE
  5
AA
330
17
100
AcDbEntity
  8
visible
100
AcDbLine
 10
-14.519999964785969
 20
38.75600836171107
 30
0.0
 11
-12.59999996492997
 21
38.04607025773424
 31
0.0
  0
LINE
  5
AB
330
17
100
AcDbEntity
  8
visible
100
AcDbLine
 10
-15.979999964613977
 20
37.79627722159077
 30
0.0
 11
-15.979999964613977
 21
41.08645220559737
 31
0.0
  0
LINE
  5
AC
330
17
100
AcDbEntity
  8
visible
100
AcDbLine
 10
-18.679999964973977
 20
37.82914472629221
 30
0.0
 11
-16.327529331184852
 21
39.37554152336888
 31
0.0
  0
LINE
  5
AD
330
17
100
AcDbEntity
  8
visible
100
AcDbLine
 10
-18.679999964973977
 20
37.82914472629221
 30
0.0
 11
-18.679999964973977
 21
11.728479153545617
 31
0.0
  0
LINE
  5
AE
330
17
100
AcDbEntity
  8
visible
100
AcDbLine
 10
-20.599999964829973
 20
38.539082830269045
 30
0.0
 11
-18.679999964973973
 21
37.82914472629221
 31
0.0
  0
ELLIPSE
  5
AF
330
17
100
AcDbEntity
  8
visible
100
AcDbEllipse
 10
58.400000030120026
 20
11.90190356176777
 30
0.0
 11
8.0
 21
0.0
 31
0.0
 40
0.4930125721403967
 41
5.639684198286302
 42
6.283185307179586
  0
ELLIPSE
  5
B0
330
17
100
AcDbEntity
  8
visible
100
AcDbEllipse
 10
58.400000030120026
 20
11.90190356176777
 30
0.0
 11
8.0
 21
0.0
 31
0.0
 40
0.4930125721403967
 41
0.0
 42
0.1327424303112017
  0
LINE
  5
B1
330
17
100
AcDbEntity
  8
visible
100
AcDbLine
 10
64.80000002964003
 20
9.535443215178333
 30
0.0
 11
21.60000002388002
 21
-18.862080937978696
 31
0.0
  0
ELLIPSE
  5
B2
330
17
100
AcDbEntity
  8
visible
100
AcDbEllipse
 10
15.200000024360023
 20
-16.49562059138926
 30
0.0
 11
8.0
 21
0.0
 31
0.0
 40
0.4930125721403967
 41
4.068887871491405
 42
5.639684198286302
  0
LINE
  5
B3
330
17
100
AcDbEntity
  8
visible
100
AcDbLine
 10
-63.19999997075999
 20
7.563392932927315
 30
0.0
 11
10.400000023720025
 21
-19.650901052851154
 31
0.0
  0
ELLIPSE
  5
B4
330
17
100
AcDbEntity
  8
visible
100
AcDbEllipse
 10
-58.39999997011998
 20
10.71867339438921
 30
0.0
 11
8.0
 21
0.0
 31
0.0
 40
0.4930125721403967
 41
3.0088502232785914
 42
3.141592653589793
  0
ELLIPSE
  5
B5
330
17
100
AcDbEntity
  8
visible
100
AcDbEllipse
 10
-58.39999997011998
 20
10.71867339438921
 30
0.0
 11
8.0
 21
0.0
 31
0.0
 40
0.4930125721403967
 41
3.141592653589793
 42
4.068887871491405
  0
LINE
  5
B6
330
17
100
AcDbEntity
  8
visible
100
AcDbLine
 10
-49.79999996988998
 20
10.547569027535081
 30
0.0
 11
-49.79999996988998
 21
13.592646681404572
 31
0.0
  0
LINE
  5
B7
330
17
100
AcDbEntity
  8
visible
100
AcDbLine
 10
-52.19999997020998
 20
12.015006450673624
 30
0.0
 11
-49.79999996988998
 21
13.59264668140457
 31
0.0
  0
LINE
  5
B8
330
17
100
AcDbEntity
  8
visible
100
AcDbLine
 10
-14.999999965249973
 20
36.46843002700329
 30
0.0
 11
-12.599999964929973
 21
38.04607025773424
 31
0.0
  0
LINE
  5
B9
330
17
100
AcDbEntity
  8
visible
100
AcDbLine
 10
-14.999999965249973
 20
14.592205505004767
 30
0.0
 11
-14.999999965249973
 21
36.46843002700329
 31
0.0
  0
LINE
  5
BA
330
17
100
AcDbEntity
  8
visible
100
AcDbLine
 10
-15.159999969937978
 20
-2.260897599323105
 30
0.0
 11
-15.159999969937978
 21
14.487029486555066
 31
0.0
  0
LINE
  5
BB
330
17
100
AcDbEntity
  8
visible
100
AcDbLine
 10
-15.159999969937978
 20
14.487029486555066
 30
0.0
 11
-4.839999968561978
 21
21.270882478698134
 31
0.0
  0
LINE
  5
BC
330
17
100
AcDbEntity
  8
visible
100
AcDbLine
 10
0.7600000310180244
 20
-6.742430327213871
 30
0.0
 11
0.7600000310180244
 21
19.200229675432382
 31
0.0
  0
LINE
  5
BD
330
17
100
AcDbEntity
  8
visible
100
AcDbLine
 10
-4.839999968561976
 20
21.270882478698134
 30
0.0
 11
0.7600000310180253
 21
19.200229675432382
 31
0.0
  0
LINE
  5
BE
330
17
100
AcDbEntity
  8
visible
100
AcDbLine
 10
-0.5299999691539767
 20
18.3522480514145
 30
0.0
 11
0.7600000310180217
 21
19.200229675432382
 31
0.0
  0
LINE
  5
BF
330
17
100
AcDbEntity
  8
visible
100
AcDbLine
 10
0.6109879575451762
 20
-6.73738234239677
 30
0.0
 11
-0.5299999691539758
 21
-7.48741086560463
 31
0.0
  0
LINE
  5
C0
330
17
100
AcDbEntity
  8
visible
100
AcDbLine
 10
-0.5299999691539763
 20
-7.487410865604629
 30
0.0
 11
-0.5299999691539763
 21
18.3522480514145
 31
0.0
  0
ELLIPSE
  5
C1
330
17
100
AcDbEntity
  8
visible
100
AcDbEllipse
 10
3.00000237984932e-08
 20
-11.658297225938515
 30
0.0
 11
-10.0
 21
-7.975536736296004e-17
 31
0.0
 40
0.49301257214039673
 41
-2.3803799201247613
 42
-1.6319331978194376
  0
LINE
  5
C2
330
17
100
AcDbEntity
  8
visible
100
AcDbLine
 10
-9.559999970357978
 20
12.416376683289315
 30
0.0
 11
-8.269999970185978
 21
13.264358307307198
 31
0.0
  0
LINE
  5
C3
330
17
100
AcDbEntity
  8
visible
100
AcDbLine
 10
-8.269999970185976
 20
-4.808540066297663
 30
0.0
 11
-8.269999970185976
 21
13.264358307307198
 31
0.0
  0
LINE
  5
C4
330
17
100
AcDbEntity
  8
visible
100
AcDbLine
 10
-9.559999970357978
 20
-4.33155040258886
 30
0.0
 11
-9.559999970357978
 21
12.416376683289315
 31
0.0
  0
LINE
  5
C5
330
17
100
AcDbEntity
  8
visible
100
AcDbLine
 10
-15.159999969937978
 20
14.487029486555066
 30
0.0
 11
-9.559999970357977
 21
12.416376683289313
 31
0.0
  0
LINE
  5
C6
330
17
100
AcDbEntity
  8
visible
100
AcDbLine
 10
7.240000028382024
 20
6.2044182734920525
 30
0.0
 11
8.530000028554024
 21
7.052399897509936
 31
0.0
  0
LINE
  5
C7
330
17
100
AcDbEntity
  8
visible
100
AcDbLine
 10
7.240000028382024
 20
-10.543508812386122
 30
0.0
 11
7.240000028382024
 21
6.2044182734920525
 31
0.0
  0
LINE
  5
C8
330
17
100
AcDbEntity
  8
visible
100
AcDbLine
 10
9.610000028473024
 20
6.653059714022973
 30
0.0
 11
8.530000028554024
 21
7.05239989750994
 31
0.0
  0
LINE
  5
C9
330
17
100
AcDbEntity
  8
visible
100
AcDbLine
 10
9.610000028473024
 20
6.6530597140229695
 30
0.0
 11
17.350000029505026
 21
11.74094945813027
 31
0.0
  0
LINE
  5
CA
330
17
100
AcDbEntity
  8
visible
100
AcDbLine
 10
17.350000029505026
 20
11.740949458130274
 30
0.0
 11
16.270000029586026
 21
12.14028964161724
 31
0.0
  0
LINE
  5
CB
330
17
100
AcDbEntity
  8
visible
100
AcDbLine
 10
16.270000029586026
 20
11.031011354449252
 30
0.0
 11
16.270000029586026
 21
12.14028964161724
 31
0.0
  0
LINE
  5
CC
330
17
100
AcDbEntity
  8
visible
100
AcDbLine
 10
16.270000029586026
 20
12.140289641617237
 30
0.0
 11
17.560000029758022
 21
12.98827126563512
 31
0.0
  0
LINE
  5
CD
330
17
100
AcDbEntity
  8
visible
100
AcDbLine
 10
23.160000029338025
 20
-9.281396623871649
 30
0.0
 11
23.160000029338025
 21
10.917618462369369
 31
0.0
  0
LINE
  5
CE
330
17
100
AcDbEntity
  8
visible
100
AcDbLine
 10
17.560000029758026
 20
12.988271265635124
 30
0.0
 11
23.16000002933803
 21
10.91761846236937
 31
0.0
  0
LINE
  5
CF
330
17
100
AcDbEntity
  8
visible
100
AcDbLine
 10
12.840000027962024
 20
-9.271110034462964
 30
0.0
 11
12.840000027962024
 21
4.133765470226301
 31
0.0
  0
LINE
  5
D0
330
17
100
AcDbEntity
  8
visible
100
AcDbLine
 10
12.840000027962024
 20
4.133765470226301
 30
0.0
 11
23.160000029338022
 21
10.917618462369369
 31
0.0
  0
LINE
  5
D1
330
17
100
AcDbEntity
  8
visible
100
AcDbLine
 10
7.240000028382024
 20
6.2044182734920525
 30
0.0
 11
12.840000027962025
 21
4.133765470226299
 31
0.0
  0
LINE
  5
D2
330
17
100
AcDbEntity
  8
visible
100
AcDbLine
 10
21.600000023880018
 20
-47.57281306799995
 30
0.0
 11
64.80000002964002
 21
-19.17528891484292
 31
0.0
  0
LINE
  5
D3
330
17
100
AcDbEntity
  8
visible
100
AcDbLine
 10
-63.19999997075998
 20
-21.147339197093938
 30
0.0
 11
10.400000023720025
 21
-48.36163318287241
 31
0.0
  0
LINE
  5
D4
330
17
100
AcDbEntity
  8
visible
100
AcDbLine
 10
-63.19999997075998
 20
-9.402039689357972
 30
0.0
 11
-55.19999997135998
 21
-12.360115122594761
 31
0.0
  0
LINE
  5
D5
330
17
100
AcDbEntity
  8
visible
100
AcDbLine
 10
-55.199999971359986
 20
-1.9198488934961233
 30
0.0
 11
-55.199999971359986
 21
-12.360115122594761
 31
0.0
  0
LINE
  5
D6
330
17
100
AcDbEntity
  8
visible
100
AcDbLine
 10
-63.19999997075998
 20
1.038226539740668
 30
0.0
 11
-55.19999997135998
 21
-1.9198488934961215
 31
0.0
  0
LINE
  5
D7
330
17
100
AcDbEntity
  8
visible
100
AcDbLine
 10
-31.067578058169914
 20
-11.13722419277436
 30
0.0
 11
-31.067578058169914
 21
-11.770624133675486
 31
0.0
  0
SPLINE
  5
D8
330
17
100
AcDbEntity
  8
visible
100
AcDbSpline
 70
0
 71
2
 72
6
 73
3
 74
0
 40
0.0
 40
0.0
 40
0.0
 40
1.0
 40
1.0
 40
1.0
 10
-31.067578058169914
 20
-11.13722419277436
 30
0.0
 10
-31.35081591560254
 20
-10.821983059004795
 30
0.0
 10
-31.675976495624287
 20
-10.59556316337525
 30
0.0
  0
SPLINE
  5
D9
330
17
100
AcDbEntity
  8
visible
100
AcDbSpline
 70
0
 71
2
 72
6
 73
3
 74
0
 40
0.0
 40
0.0
 40
0.0
 40
1.0
 40
1.0
 40
1.0
 10
-31.662304620625314
 20
-11.12845175215499
 30
0.0
 10
-31.339009283008394
 20
-11.393131266779305
 30
0.0
 10
-31.067578058169914
 20
-11.770624133675486
 30
0.0
  0
SPLINE
  5
DA
330
17
100
AcDbEntity
  8
visible
100
AcDbSpline
 70
0
 71
2
 72
6
 73
3
 74
0
 40
0.0
 40
0.0
 40
0.0
 40
1.0
 40
1.0
 40
1.0
 10
-31.675976495624287
 20
-10.595563163375248
 30
0.0
 10
-32.006068262178275
 20
-10.367041026596969
 30
0.0
 10
-32.366406183072506
 20
-10.234703619437004
 30
0.0
  0
SPLINE
  5
DB
330
17
100
AcDbEntity
  8
visible
100
AcDbSpline
 70
0
 71
2
 72
6
 73
3
 74
0
 40
0.0
 40
0.0
 40
0.0
 40
1.0
 40
1.0
 40
1.0
 10
-32.333593683074966
 20
-10.740471985399036
 30
0.0
 10
-31.981180342700956
 20
-10.87020148255027
 30
0.0
 10
-31.662304620625314
 20
-11.12845175215499
 30
0.0
  0
SPLINE
  5
DC
330
17
100
AcDbEntity
  8
visible
100
AcDbSpline
 70
0
 71
3
 72
11
 73
7
 74
0
 40
0.0
 40
0.0
 40
0.0
 40
0.0
 40
0.541695364487221
 40
0.541695364487221
 40
0.541695364487221
 40
0.9342833766295805
 40
0.9342833766295805
 40
0.9342833766295805
 40
0.9342833766295805
 10
-32.36640618307251
 20
-10.234703619437003
 30
0.0
 10
-32.66467352416749
 20
-10.12419652143467
 30
0.0
 10
-32.960316104661835
 20
-10.063691483494145
 30
0.0
 10
-33.22829710800787
 20
-10.084790899917866
 30
0.0
 10
-33.42404444353663
 20
-10.099862894386522
 30
0.0
 10
-33.59871425094142
 20
-10.15770465912092
 30
0.0
 10
-33.75230653022218
 20
-10.258316194121049
 30
0.0
  0
SPLINE
  5
DD
330
17
100
AcDbEntity
  8
visible
100
AcDbSpline
 70
0
 71
1
 72
4
 73
2
 74
0
 40
0.0
 40
0.0
 40
1.0
 40
1.0
 10
-33.752306530222185
 20
-10.25831619412105
 30
0.0
 10
-33.826562432963
 20
-10.311841621326604
 30
0.0
  0
SPLINE
  5
DE
330
17
100
AcDbEntity
  8
visible
100
AcDbSpline
 70
0
 71
2
 72
6
 73
3
 74
0
 40
0.0
 40
0.0
 40
0.0
 40
0.09987941503521791
 40
0.09987941503521791
 40
0.09987941503521791
 10
-33.405468682994574
 20
-10.809521499860926
 30
0.0
 10
-33.367006377310304
 20
-10.775585998379222
 30
0.0
 10
-33.324591081901126
 20
-10.74768217923015
 30
0.0
  0
SPLINE
  5
DF
330
17
100
AcDbEntity
  8
visible
100
AcDbSpline
 70
0
 71
3
 72
8
 73
4
 74
0
 40
0.0
 40
0.0
 40
0.0
 40
0.0
 40
1.0
 40
1.0
 40
1.0
 40
1.0
 10
-33.324591081901126
 20
-10.74768217923015
 30
0.0
 10
-33.07003982602932
 20
-10.575803546684977
 30
0.0
 10
-32.70671235203035
 20
-10.59964210457561
 30
0.0
 10
-32.333593683074966
 20
-10.740471985399036
 30
0.0
  0
SPLINE
  5
E0
330
17
100
AcDbEntity
  8
visible
100
AcDbSpline
 70
0
 71
3
 72
11
 73
7
 74
0
 40
0.0
 40
0.0
 40
0.0
 40
0.0
 40
0.6298555326701425
 40
0.6298555326701425
 40
0.6298555326701425
 40
1.0
 40
1.0
 40
1.0
 40
1.0
 10
-33.826562432963
 20
-10.311841621326602
 30
0.0
 10
-34.06642188940815
 20
-10.498433038981872
 30
0.0
 10
-34.222448932312254
 20
-10.79322900433395
 30
0.0
 10
-34.296668432927724
 20
-11.142731253098562
 30
0.0
 10
-34.33991103400006
 20
-11.349398811921303
 30
0.0
 10
-34.360943408998494
 20
-11.569243191872271
 30
0.0
 10
-34.359765557923
 20
-11.80226439295146
 30
0.0
  0
SPLINE
  5
E1
330
17
100
AcDbEntity
  8
visible
100
AcDbSpline
 70
0
 71
3
 72
8
 73
4
 74
0
 40
0.0
 40
0.0
 40
0.0
 40
0.0
 40
1.0
 40
1.0
 40
1.0
 40
1.0
 10
-33.77734368296669
 20
-12.017620372978612
 30
0.0
 10
-33.77849289368285
 20
-11.518556636460193
 30
0.0
 10
-33.685088987299096
 20
-11.054269007915975
 30
0.0
 10
-33.40546868299458
 20
-10.809521499860924
 30
0.0
  0
SPLINE
  5
E2
330
17
100
AcDbEntity
  8
visible
100
AcDbSpline
 70
0
 71
3
 72
11
 73
7
 74
0
 40
0.0
 40
0.0
 40
0.0
 40
0.0
 40
0.36781947571318296
 40
0.36781947571318296
 40
0.36781947571318296
 40
1.0
 40
1.0
 40
1.0
 40
1.0
 10
-34.359765557923005
 20
-11.802264392951463
 30
0.0
 10
-34.36091667872677
 20
-12.032564849759254
 30
0.0
 10
-34.34012815529087
 20
-12.266090850829826
 30
0.0
 10
-34.29739998761518
 20
-12.502842396163155
 30
0.0
 10
-34.22336864809034
 20
-12.908066142953542
 30
0.0
 10
-34.06700447855288
 20
-13.319190117122183
 30
0.0
 10
-33.826562432962994
 20
-13.684027222180484
 30
0.0
  0
SPLINE
  5
E3
330
17
100
AcDbEntity
  8
visible
100
AcDbSpline
 70
0
 71
3
 72
8
 73
4
 74
0
 40
0.0
 40
0.0
 40
0.0
 40
0.0
 40
1.0
 40
1.0
 40
1.0
 40
1.0
 10
-33.40546868299458
 20
-13.4977541128873
 30
0.0
 10
-33.68469919950499
 20
-13.04696788505818
 30
0.0
 10
-33.778537955459825
 20
-12.5148047168757
 30
0.0
 10
-33.77734368296669
 20
-12.017620372978612
 30
0.0
  0
SPLINE
  5
E4
330
17
100
AcDbEntity
  8
visible
100
AcDbSpline
 70
0
 71
3
 72
11
 73
7
 74
0
 40
0.0
 40
0.0
 40
0.0
 40
0.0
 40
0.45830463551269063
 40
0.45830463551269063
 40
0.45830463551269063
 40
1.0
 40
1.0
 40
1.0
 40
1.0
 10
-33.826562432962994
 20
-13.684027222180486
 30
0.0
 10
-33.65926140906269
 20
-13.940336512362821
 30
0.0
 10
-33.454996058866826
 20
-14.168838468746028
 30
0.0
 10
-33.228297108007865
 20
-14.353506433699206
 30
0.0
 10
-32.96031610466179
 20
-14.57278285578081
 30
0.0
 10
-32.66467352416748
 20
-14.730911081451438
 30
0.0
 10
-32.366406183072506
 20
-14.840978307023127
 30
0.0
  0
SPLINE
  5
E5
330
17
100
AcDbEntity
  8
visible
100
AcDbSpline
 70
0
 71
3
 72
11
 73
7
 74
0
 40
0.0
 40
0.0
 40
0.0
 40
0.0
 40
0.5601545193542434
 40
0.5601545193542434
 40
0.5601545193542434
 40
1.0
 40
1.0
 40
1.0
 40
1.0
 10
-32.333593683074966
 20
-14.359475403599365
 30
0.0
 10
-32.56617858624711
 20
-14.273650930061917
 30
0.0
 10
-32.79378650082559
 20
-14.150247844210089
 30
0.0
 10
-32.99495772990035
 20
-13.97872034614893
 30
0.0
 10
-33.15443034805918
 20
-13.842959166549672
 30
0.0
 10
-33.29126733242393
 20
-13.6826370887958
 30
0.0
 10
-33.405468682994574
 20
-13.4977541128873
 30
0.0
  0
SPLINE
  5
E6
330
17
100
AcDbEntity
  8
visible
100
AcDbSpline
 70
0
 71
2
 72
6
 73
3
 74
0
 40
0.0
 40
0.0
 40
0.0
 40
1.0
 40
1.0
 40
1.0
 10
-32.36640618307251
 20
-14.840978307023127
 30
0.0
 10
-32.010232247280626
 20
-14.973394767241375
 30
0.0
 10
-31.68144524562388
 20
-14.987195561128107
 30
0.0
  0
SPLINE
  5
E7
330
17
100
AcDbEntity
  8
visible
100
AcDbSpline
 70
0
 71
2
 72
6
 73
3
 74
0
 40
0.0
 40
0.0
 40
0.0
 40
1.0
 40
1.0
 40
1.0
 10
-31.662304620625314
 20
-14.46792655793886
 30
0.0
 10
-31.981180339571587
 20
-14.490362217864602
 30
0.0
 10
-32.333593683074966
 20
-14.359475403599365
 30
0.0
  0
SPLINE
  5
E8
330
17
100
AcDbEntity
  8
visible
100
AcDbSpline
 70
0
 71
2
 72
6
 73
3
 74
0
 40
0.0
 40
0.0
 40
0.0
 40
1.0
 40
1.0
 40
1.0
 10
-31.681445245623877
 20
-14.987195561128107
 30
0.0
 10
-31.355190776878416
 20
-14.999581225106265
 30
0.0
 10
-31.067578058169914
 20
-14.893018208540191
 30
0.0
  0
SPLINE
  5
E9
330
17
100
AcDbEntity
  8
visible
100
AcDbSpline
 70
0
 71
2
 72
6
 73
3
 74
0
 40
0.0
 40
0.0
 40
0.0
 40
1.0
 40
1.0
 40
1.0
 10
-31.067578058169914
 20
-14.265565684924521
 30
0.0
 10
-31.339009281988513
 20
-14.442330042023709
 30
0.0
 10
-31.662304620625314
 20
-14.46792655793886
 30
0.0
  0
LINE
  5
EA
330
17
100
AcDbEntity
  8
visible
100
AcDbLine
 10
-31.067578058169914
 20
-14.26556568492452
 30
0.0
 11
-31.067578058169914
 21
-14.89301820854019
 31
0.0
  0
LINE
  5
EB
330
17
100
AcDbEntity
  8
visible
100
AcDbLine
 10
-30.720312433195964
 20
-15.363399441718958
 30
0.0
 11
-29.161718683312856
 21
-11.499957173409545
 31
0.0
  0
LINE
  5
EC
330
17
100
AcDbEntity
  8
visible
100
AcDbLine
 10
-30.13789055823964
 20
-15.57875542174611
 30
0.0
 11
-30.72031243319596
 21
-15.363399441718958
 31
0.0
  0
LINE
  5
ED
330
17
100
AcDbEntity
  8
visible
100
AcDbLine
 10
-29.16171868331285
 20
-11.499957173409548
 30
0.0
 11
-28.535546808359815
 21
-11.731490128462212
 31
0.0
  0
LINE
  5
EE
330
17
100
AcDbEntity
  8
visible
100
AcDbLine
 10
-29.766015558267526
 20
-14.577329299298041
 30
0.0
 11
-30.137890558239636
 21
-15.578755421746111
 31
0.0
  0
LINE
  5
EF
330
17
100
AcDbEntity
  8
visible
100
AcDbLine
 10
-28.53554680835982
 20
-11.73149012846221
 30
0.0
 11
-26.979687433476506
 21
-16.74653080640038
 31
0.0
  0
LINE
  5
F0
330
17
100
AcDbEntity
  8
visible
100
AcDbLine
 10
-27.925781183405544
 20
-15.25777331130871
 30
0.0
 11
-29.766015558267526
 21
-14.57732929929804
 31
0.0
  0
LINE
  5
F1
330
17
100
AcDbEntity
  8
visible
100
AcDbLine
 10
-26.979687433476503
 20
-16.74653080640038
 30
0.0
 11
-27.55390618343344
 21
-16.53420800919051
 31
0.0
  0
LINE
  5
F2
330
17
100
AcDbEntity
  8
visible
100
AcDbLine
 10
-27.553906183433437
 20
-16.53420800919051
 30
0.0
 11
-27.925781183405547
 21
-15.25777331130871
 31
0.0
  0
LINE
  5
F3
330
17
100
AcDbEntity
  8
visible
100
AcDbLine
 10
-26.383593683521212
 20
-16.966942091123002
 30
0.0
 11
-26.383593683521212
 21
-12.527195087529666
 31
0.0
  0
LINE
  5
F4
330
17
100
AcDbEntity
  8
visible
100
AcDbLine
 10
-25.847656183561405
 20
-17.165110035185545
 30
0.0
 11
-26.383593683521212
 21
-16.966942091123002
 31
0.0
  0
LINE
  5
F5
330
17
100
AcDbEntity
  8
visible
100
AcDbLine
 10
-26.383593683521205
 20
-12.52719508752967
 30
0.0
 11
-25.560546808582938
 21
-12.831524430197144
 31
0.0
  0
LINE
  5
F6
330
17
100
AcDbEntity
  8
visible
100
AcDbLine
 10
-25.84765618356141
 20
-13.266578004568757
 30
0.0
 11
-25.84765618356141
 21
-17.165110035185545
 31
0.0
  0
LINE
  5
F7
330
17
100
AcDbEntity
  8
visible
100
AcDbLine
 10
-25.56054680858294
 20
-12.831524430197144
 30
0.0
 11
-24.518749933661073
 21
-16.238026629004132
 31
0.0
  0
LINE
  5
F8
330
17
100
AcDbEntity
  8
visible
100
AcDbLine
 10
-24.794921808640368
 20
-16.700914116273953
 30
0.0
 11
-25.847656183561412
 21
-13.26657800456876
 31
0.0
  0
LINE
  5
F9
330
17
100
AcDbEntity
  8
visible
100
AcDbLine
 10
-24.51874993366107
 20
-16.238026629004132
 30
0.0
 11
-23.471484308739615
 21
-13.60397498766542
 31
0.0
  0
LINE
  5
FA
330
17
100
AcDbEntity
  8
visible
100
AcDbLine
 10
-24.23984368368199
 20
-16.906159486910155
 30
0.0
 11
-24.79492180864036
 21
-16.70091411627395
 31
0.0
  0
LINE
  5
FB
330
17
100
AcDbEntity
  8
visible
100
AcDbLine
 10
-23.471484308739623
 20
-13.603974987665422
 30
0.0
 11
-22.64843743380135
 21
-13.9083043303329
 31
0.0
  0
LINE
  5
FC
330
17
100
AcDbEntity
  8
visible
100
AcDbLine
 10
-23.18710930876095
 20
-14.25034029830781
 30
0.0
 11
-24.239843683681997
 21
-16.906159486910155
 31
0.0
  0
LINE
  5
FD
330
17
100
AcDbEntity
  8
visible
100
AcDbLine
 10
-22.64843743380135
 20
-13.9083043303329
 30
0.0
 11
-22.64843743380135
 21
-18.348051333926236
 31
0.0
  0
LINE
  5
FE
330
17
100
AcDbEntity
  8
visible
100
AcDbLine
 10
-23.18710930876095
 20
-18.148872328924597
 30
0.0
 11
-23.18710930876095
 21
-14.25034029830781
 31
0.0
  0
LINE
  5
FF
330
17
100
AcDbEntity
  8
visible
100
AcDbLine
 10
-22.648437433801345
 20
-18.348051333926236
 30
0.0
 11
-23.18710930876094
 21
-18.148872328924597
 31
0.0
  0
LINE
  5
100
330
17
100
AcDbEntity
  8
visible
100
AcDbLine
 10
-20.477343683964182
 20
-16.780787931312904
 30
0.0
 11
-21.74882805886882
 21
-14.240943379295022
 31
0.0
  0
LINE
  5
101
330
17
100
AcDbEntity
  8
visible
100
AcDbLine
 10
-21.93476555885487
 20
-18.611938239029925
 30
0.0
 11
-20.47734368396418
 21
-16.780787931312908
 31
0.0
  0
LINE
  5
102
330
17
100
AcDbEntity
  8
visible
100
AcDbLine
 10
-21.748828058868817
 20
-14.240943379295025
 30
0.0
 11
-21.15546868391332
 21
-14.460343603078554
 31
0.0
  0
LINE
  5
103
330
17
100
AcDbEntity
  8
visible
100
AcDbLine
 10
-21.338671808899583
 20
-18.83234952375255
 30
0.0
 11
-21.934765558854874
 21
-18.611938239029925
 31
0.0
  0
LINE
  5
104
330
17
100
AcDbEntity
  8
visible
100
AcDbLine
 10
-21.15546868391332
 20
-14.460343603078552
 30
0.0
 11
-20.1410155589894
 21
-16.485855508196856
 31
0.0
  0
LINE
  5
105
330
17
100
AcDbEntity
  8
visible
100
AcDbLine
 10
-20.182031183986325
 20
-17.371723312857103
 30
0.0
 11
-21.338671808899576
 21
-18.83234952375255
 31
0.0
  0
LINE
  5
106
330
17
100
AcDbEntity
  8
visible
100
AcDbLine
 10
-20.1410155589894
 20
-16.485855508196853
 30
0.0
 11
-19.121093684065897
 21
-15.21257294176494
 31
0.0
  0
LINE
  5
107
330
17
100
AcDbEntity
  8
visible
100
AcDbLine
 10
-19.03359368407246
 20
-19.684673895409304
 30
0.0
 11
-20.18203118398633
 21
-17.371723312857107
 31
0.0
  0
LINE
  5
108
330
17
100
AcDbEntity
  8
visible
100
AcDbLine
 10
-19.121093684065894
 20
-15.21257294176494
 30
0.0
 11
-18.527734309110393
 21
-15.43197316554847
 31
0.0
  0
LINE
  5
109
330
17
100
AcDbEntity
  8
visible
100
AcDbLine
 10
-18.440234309116956
 20
-19.904074119192835
 30
0.0
 11
-19.033593684072457
 21
-19.684673895409304
 31
0.0
  0
LINE
  5
10A
330
17
100
AcDbEntity
  8
visible
100
AcDbLine
 10
-18.5277343091104
 20
-15.431973165548467
 30
0.0
 11
-19.84023430901196
 21
-17.07881301161924
 31
0.0
  0
LINE
  5
10B
330
17
100
AcDbEntity
  8
visible
100
AcDbLine
 10
-19.84023430901196
 20
-17.078813011619243
 30
0.0
 11
-18.440234309116963
 21
-19.904074119192835
 31
0.0
  0
LINE
  5
10C
330
17
100
AcDbEntity
  8
visible
100
AcDbLine
 10
-54.11999997006598
 20
12.724944554650452
 30
0.0
 11
-51.719999969745984
 21
14.302584785381399
 31
0.0
  0
LINE
  5
10D
330
17
100
AcDbEntity
  8
visible
100
AcDbLine
 10
-51.71999996974597
 20
14.302584785381402
 30
0.0
 11
-49.799999969889974
 21
13.592646681404572
 31
0.0
  0
LINE
  5
10E
330
17
100
AcDbEntity
  8
visible
100
AcDbLine
 10
-16.919999965105973
 20
37.17836813098012
 30
0.0
 11
-14.999999965249971
 21
36.46843002700329
 31
0.0
  0
LINE
  5
10F
330
17
100
AcDbEntity
  8
visible
100
AcDbLine
 10
-16.919999965105976
 20
37.17836813098012
 30
0.0
 11
-16.919999965105976
 21
11.077702558233522
 31
0.0
  0
LINE
  5
110
330
17
100
AcDbEntity
  8
visible
100
AcDbLine
 10
-16.919999965105976
 20
37.17836813098012
 30
0.0
 11
-14.519999964785976
 21
38.75600836171107
 31
0.0
  0
ELLIPSE
  5
111
330
17
100
AcDbEntity
  8
visible
100
AcDbEllipse
 10
58.400000030120026
 20
-16.808828568253485
 30
0.0
 11
8.0
 21
0.0
 31
0.0
 40
0.4930125721403967
 41
5.639684198286302
 42
6.283185307179586
  0
ELLIPSE
  5
112
330
17
100
AcDbEntity
  8
visible
100
AcDbEllipse
 10
15.200000024360023
 20
-45.20635272141052
 30
0.0
 11
-8.0
 21
-0.0
 31
0.0
 40
0.4930125721403967
 41
-5.355890089277974
 42
-3.7850937624830774
  0
ELLIPSE
  5
113
330
17
100
AcDbEntity
  8
visible
100
AcDbEllipse
 10
-58.39999997011998
 20
4.193507001202562
 30
0.0
 11
8.0
 21
0.0
 31
0.0
 40
0.4930125721403967
 41
3.2561323101227453
 42
4.068887871491405
  0
LINE
  5
114
330
17
100
AcDbEntity
  8
visible
100
AcDbLine
 10
-66.3475799856603
 20
-6.697528011688423
 30
0.0
 11
-66.3475799856603
 21
3.742738217410217
 31
0.0
  0
ELLIPSE
  5
115
330
17
100
AcDbEntity
  8
visible
100
AcDbEllipse
 10
-58.39999997011998
 20
-6.246759227896078
 30
0.0
 11
8.0
 21
0.0
 31
0.0
 40
0.4930125721403967
 41
3.2561323101227453
 42
4.068887871491405
  0
ELLIPSE
  5
116
330
17
100
AcDbEntity
  8
visible
100
AcDbEllipse
 10
-58.39999997011998
 20
-17.992058735632046
 30
0.0
 11
8.0
 21
0.0
 31
0.0
 40
0.4930125721403967
 41
3.1415926535897927
 42
4.068887871491405
  0
LINE
  5
117
330
17
100
AcDbEntity
  8
visible
100
AcDbLine
 10
-0.5299999691539763
 20
18.352248051414502
 30
0.0
 11
-1.6099999690729758
 21
18.75158823490147
 31
0.0
  0
LINE
  5
118
330
17
100
AcDbEntity
  8
visible
100
AcDbLine
 10
-9.349999970104978
 20
13.663698490794165
 30
0.0
 11
-1.6099999690729785
 21
18.751588234901465
 31
0.0
  0
LINE
  5
119
330
17
100
AcDbEntity
  8
visible
100
AcDbLine
 10
-8.269999970185978
 20
13.264358307307198
 30
0.0
 11
-9.349999970104976
 21
13.663698490794165
 31
0.0
  0
ELLIPSE
  5
11A
330
17
100
AcDbEntity
  8
visible
100
AcDbEllipse
 10
-7.199999969459976
 20
16.843629580993728
 30
0.0
 11
1.05
 21
0.0
 31
0.0
 40
0.49301257214039673
 41
5.639684198286302
 42
6.283185307179586
  0
ELLIPSE
  5
11B
330
17
100
AcDbEntity
  8
visible
100
AcDbEllipse
 10
-7.199999969459976
 20
16.843629580993728
 30
0.0
 11
1.05
 21
0.0
 31
0.0
 40
0.49301257214039673
 41
0.0
 42
3.141592653589793
  0
ELLIPSE
  5
11C
330
17
100
AcDbEntity
  8
visible
100
AcDbEllipse
 10
-7.199999969459976
 20
16.843629580993728
 30
0.0
 11
1.05
 21
0.0
 31
0.0
 40
0.49301257214039673
 41
3.141592653589793
 42
5.639684198286302
  0
LINE
  5
11D
330
17
100
AcDbEntity
  8
visible
100
AcDbLine
 10
-1.6099999690729767
 20
-7.088070682117664
 30
0.0
 11
-1.7882352774296102
 21
-7.205233679185442
 31
0.0
  0
LINE
  5
11E
330
17
100
AcDbEntity
  8
visible
100
AcDbLine
 10
-1.6099999690729763
 20
-7.088070682117664
 30
0.0
 11
-0.5299999691539765
 21
-7.48741086560463
 31
0.0
  0
ELLIPSE
  5
11F
330
17
100
AcDbEntity
  8
visible
100
AcDbEllipse
 10
4.380000030584024
 20
-8.779103804854538
 30
0.0
 11
0.9
 21
0.0
 31
0.0
 40
0.4930125721403967
 41
5.639684198286302
 42
6.283185307179586
  0
ELLIPSE
  5
120
330
17
100
AcDbEntity
  8
visible
100
AcDbEllipse
 10
4.380000030584024
 20
-8.779103804854538
 30
0.0
 11
0.9
 21
0.0
 31
0.0
 40
0.4930125721403967
 41
0.0
 42
3.141592653589793
  0
ELLIPSE
  5
121
330
17
100
AcDbEntity
  8
visible
100
AcDbEllipse
 10
4.380000030584024
 20
-8.779103804854538
 30
0.0
 11
0.9
 21
0.0
 31
0.0
 40
0.4930125721403967
 41
3.141592653589793
 42
5.639684198286302
  0
LINE
  5
122
330
17
100
AcDbEntity
  8
visible
100
AcDbLine
 10
-1.6099999690729763
 20
-7.088070682117663
 30
0.0
 11
-1.6099999690729763
 21
18.751588234901465
 31
0.0
  0
ELLIPSE
  5
123
330
17
100
AcDbEntity
  8
visible
100
AcDbEllipse
 10
15.200000028860025
 20
8.561018367930714
 30
0.0
 11
1.05
 21
0.0
 31
0.0
 40
0.49301257214039673
 41
5.639684198286302
 42
6.283185307179586
  0
ELLIPSE
  5
124
330
17
100
AcDbEntity
  8
visible
100
AcDbEllipse
 10
15.200000028860025
 20
8.561018367930714
 30
0.0
 11
1.05
 21
0.0
 31
0.0
 40
0.49301257214039673
 41
0.0
 42
3.141592653589793
  0
ELLIPSE
  5
125
330
17
100
AcDbEntity
  8
visible
100
AcDbEllipse
 10
15.200000028860025
 20
8.561018367930714
 30
0.0
 11
1.05
 21
0.0
 31
0.0
 40
0.49301257214039673
 41
3.141592653589793
 42
5.639684198286302
  0
LINE
  5
126
330
17
100
AcDbEntity
  8
visible
100
AcDbLine
 10
-66.3475799856603
 20
-6.697528011688425
 30
0.0
 11
-55.199999971359986
 21
-10.819450834540469
 31
0.0
  0
SPLINE
  5
127
330
17
100
AcDbEntity
  8
visible
100
AcDbSpline
 70
0
 71
2
 72
6
 73
3
 74
0
 40
0.0
 40
0.0
 40
0.0
 40
1.0
 40
1.0
 40
1.0
 10
-31.352657459760373
 20
-10.851893755024102
 30
0.0
 10
-31.64632163384458
 20
-10.624837876882399
 30
0.0
 10
-31.97359368302696
 20
-10.503825950789391
 30
0.0
  0
SPLINE
  5
128
330
17
100
AcDbEntity
  8
visible
100
AcDbSpline
 70
0
 71
2
 72
6
 73
3
 74
0
 40
0.0
 40
0.0
 40
0.0
 40
0.896026353869134
 40
0.896026353869134
 40
0.896026353869134
 10
-31.97359368302696
 20
-10.503825950789391
 30
0.0
 10
-32.60081213068831
 20
-10.271906015609503
 30
0.0
 10
-32.96459108206648
 20
-10.511036144238997
 30
0.0
  0
SPLINE
  5
129
330
17
100
AcDbEntity
  8
visible
100
AcDbSpline
 70
0
 71
2
 72
6
 73
3
 74
0
 40
0.0
 40
0.0
 40
0.0
 40
0.9063524265659191
 40
0.9063524265659191
 40
0.9063524265659191
 10
-33.999765557874994
 20
-11.565618358341817
 30
0.0
 10
-33.999765557874994
 20
-10.595336262416557
 30
0.0
 10
-33.56175266948647
 20
-10.159544599977837
 30
0.0
  0
SPLINE
  5
12A
330
17
100
AcDbEntity
  8
visible
100
AcDbSpline
 70
0
 71
2
 72
6
 73
3
 74
0
 40
0.0
 40
0.0
 40
0.0
 40
1.0
 40
1.0
 40
1.0
 10
-33.466562432914984
 20
-13.447381187570842
 30
0.0
 10
-33.999765557874994
 20
-12.633179761081275
 30
0.0
 10
-33.999765557874994
 20
-11.565618358341817
 30
0.0
  0
SPLINE
  5
12B
330
17
100
AcDbEntity
  8
visible
100
AcDbSpline
 70
0
 71
2
 72
6
 73
3
 74
0
 40
0.0
 40
0.0
 40
0.0
 40
1.0
 40
1.0
 40
1.0
 10
-32.006406183024495
 20
-14.604332272413483
 30
0.0
 10
-32.93335930795497
 20
-14.26158261406041
 30
0.0
 10
-33.466562432914984
 20
-13.447381187570842
 30
0.0
  0
SPLINE
  5
12C
330
17
100
AcDbEntity
  8
visible
100
AcDbSpline
 70
0
 71
2
 72
6
 73
3
 74
0
 40
0.0
 40
0.0
 40
0.0
 40
1.0
 40
1.0
 40
1.0
 10
-31.32144524557587
 20
-14.750549526518462
 30
0.0
 10
-31.64546868305157
 20
-14.73779231637397
 30
0.0
 10
-32.006406183024495
 20
-14.604332272413483
 30
0.0
  0
SPLINE
  5
12D
330
17
100
AcDbEntity
  8
visible
100
AcDbSpline
 70
0
 71
2
 72
6
 73
3
 74
0
 40
0.0
 40
0.0
 40
0.0
 40
1.0
 40
1.0
 40
1.0
 10
-31.067578058169914
 20
-14.741591345596538
 30
0.0
 10
-31.19177469501627
 20
-14.755654819135342
 30
0.0
 10
-31.32144524557587
 20
-14.750549526518462
 30
0.0
  0
LINE
  5
12E
330
17
100
AcDbEntity
  8
visible
100
AcDbLine
 10
-30.360312433147953
 20
-15.126753407109312
 30
0.0
 11
-28.93152444353467
 21
-11.58507366411099
 31
0.0
  0
LINE
  5
12F
330
17
100
AcDbEntity
  8
visible
100
AcDbLine
 10
-30.360312433147953
 20
-15.126753407109312
 30
0.0
 11
-30.720312433195954
 21
-15.363399441718954
 31
0.0
  0
LINE
  5
130
330
17
100
AcDbEntity
  8
visible
100
AcDbLine
 10
-30.017159487691945
 20
-15.253637444343363
 30
0.0
 11
-30.360312433147953
 21
-15.126753407109312
 31
0.0
  0
LINE
  5
131
330
17
100
AcDbEntity
  8
visible
100
AcDbLine
 10
-29.40601555821953
 20
-14.340683264688394
 30
0.0
 11
-29.76601555826753
 21
-14.577329299298036
 31
0.0
  0
LINE
  5
132
330
17
100
AcDbEntity
  8
visible
100
AcDbLine
 10
-27.565781183357544
 20
-15.021127276699065
 30
0.0
 11
-29.406015558219526
 21
-14.340683264688396
 31
0.0
  0
LINE
  5
133
330
17
100
AcDbEntity
  8
visible
100
AcDbLine
 10
-27.565781183357544
 20
-15.021127276699065
 30
0.0
 11
-27.925781183405544
 21
-15.257773311308707
 31
0.0
  0
LINE
  5
134
330
17
100
AcDbEntity
  8
visible
100
AcDbLine
 10
-27.109265464342347
 20
-16.32885867853982
 30
0.0
 11
-27.193906183385437
 21
-16.297561974580866
 31
0.0
  0
LINE
  5
135
330
17
100
AcDbEntity
  8
visible
100
AcDbLine
 10
-27.193906183385437
 20
-16.297561974580866
 30
0.0
 11
-27.553906183433437
 21
-16.534208009190507
 31
0.0
  0
LINE
  5
136
330
17
100
AcDbEntity
  8
visible
100
AcDbLine
 10
-27.193906183385437
 20
-16.297561974580866
 30
0.0
 11
-27.565781183357547
 21
-15.021127276699064
 31
0.0
  0
LINE
  5
137
330
17
100
AcDbEntity
  8
visible
100
AcDbLine
 10
-26.02359368347321
 20
-16.730296056513357
 30
0.0
 11
-26.02359368347321
 21
-12.660308482053054
 31
0.0
  0
LINE
  5
138
330
17
100
AcDbEntity
  8
visible
100
AcDbLine
 10
-26.02359368347321
 20
-16.730296056513357
 30
0.0
 11
-26.38359368352121
 21
-16.966942091123
 31
0.0
  0
LINE
  5
139
330
17
100
AcDbEntity
  8
visible
100
AcDbLine
 10
-25.84765618356141
 20
-16.795350606052512
 30
0.0
 11
-26.02359368347321
 21
-16.730296056513357
 31
0.0
  0
LINE
  5
13A
330
17
100
AcDbEntity
  8
visible
100
AcDbLine
 10
-25.497824452845325
 20
-13.036616082781114
 30
0.0
 11
-25.847656183561405
 21
-13.266578004568753
 31
0.0
  0
LINE
  5
13B
330
17
100
AcDbEntity
  8
visible
100
AcDbLine
 10
-24.158749933613073
 20
-16.001380594394483
 30
0.0
 11
-24.518749933661073
 21
-16.238026629004125
 31
0.0
  0
LINE
  5
13C
330
17
100
AcDbEntity
  8
visible
100
AcDbLine
 10
-24.43492180859236
 20
-16.464268081664308
 30
0.0
 11
-24.506700110222692
 21
-16.230105676409515
 31
0.0
  0
LINE
  5
13D
330
17
100
AcDbEntity
  8
visible
100
AcDbLine
 10
-24.43492180859236
 20
-16.464268081664308
 30
0.0
 11
-24.79492180864036
 21
-16.70091411627395
 31
0.0
  0
LINE
  5
13E
330
17
100
AcDbEntity
  8
visible
100
AcDbLine
 10
-24.158749933613073
 20
-16.001380594394483
 30
0.0
 11
-23.23965360008499
 21
-13.689696578164495
 31
0.0
  0
LINE
  5
13F
330
17
100
AcDbEntity
  8
visible
100
AcDbLine
 10
-24.11201165237735
 20
-16.583667156703548
 30
0.0
 11
-24.43492180859236
 21
-16.464268081664308
 31
0.0
  0
LINE
  5
140
330
17
100
AcDbEntity
  8
visible
100
AcDbLine
 10
-22.827109308712945
 20
-14.013694263698163
 30
0.0
 11
-23.187109308760945
 21
-14.250340298307805
 31
0.0
  0
LINE
  5
141
330
17
100
AcDbEntity
  8
visible
100
AcDbLine
 10
-22.827109308712945
 20
-17.91222629431495
 30
0.0
 11
-22.827109308712945
 21
-14.013694263698163
 31
0.0
  0
LINE
  5
142
330
17
100
AcDbEntity
  8
visible
100
AcDbLine
 10
-22.827109308712945
 20
-17.91222629431495
 30
0.0
 11
-23.187109308760945
 21
-18.148872328924593
 31
0.0
  0
LINE
  5
143
330
17
100
AcDbEntity
  8
visible
100
AcDbLine
 10
-22.64843743380135
 20
-17.9782919047932
 30
0.0
 11
-22.827109308712945
 21
-17.91222629431495
 31
0.0
  0
LINE
  5
144
330
17
100
AcDbEntity
  8
visible
100
AcDbLine
 10
-20.11734368391618
 20
-16.54414189670326
 30
0.0
 11
-21.161672886309923
 21
-14.458049540741856
 31
0.0
  0
LINE
  5
145
330
17
100
AcDbEntity
  8
visible
100
AcDbLine
 10
-20.11734368391618
 20
-16.54414189670326
 30
0.0
 11
-20.47734368396418
 21
-16.7807879313129
 31
0.0
  0
LINE
  5
146
330
17
100
AcDbEntity
  8
visible
100
AcDbLine
 10
-21.57476555880687
 20
-18.375292204420283
 30
0.0
 11
-20.117343683916175
 21
-16.54414189670326
 31
0.0
  0
LINE
  5
147
330
17
100
AcDbEntity
  8
visible
100
AcDbLine
 10
-21.57476555880687
 20
-18.375292204420283
 30
0.0
 11
-21.93476555885487
 21
-18.611938239029925
 31
0.0
  0
LINE
  5
148
330
17
100
AcDbEntity
  8
visible
100
AcDbLine
 10
-21.112183619826386
 20
-18.54633623812776
 30
0.0
 11
-21.574765558806874
 21
-18.375292204420283
 31
0.0
  0
LINE
  5
149
330
17
100
AcDbEntity
  8
visible
100
AcDbLine
 10
-19.7810155589414
 20
-16.249209473587207
 30
0.0
 11
-20.1410155589894
 21
-16.48585550819685
 31
0.0
  0
LINE
  5
14A
330
17
100
AcDbEntity
  8
visible
100
AcDbLine
 10
-19.822031183938325
 20
-17.135077278247458
 30
0.0
 11
-20.182031183986325
 21
-17.3717233128571
 31
0.0
  0
LINE
  5
14B
330
17
100
AcDbEntity
  8
visible
100
AcDbLine
 10
-19.7810155589414
 20
-16.249209473587207
 30
0.0
 11
-18.989598188620075
 21
-15.261194641101033
 31
0.0
  0
LINE
  5
14C
330
17
100
AcDbEntity
  8
visible
100
AcDbLine
 10
-18.673593684024457
 20
-19.44802786079966
 30
0.0
 11
-19.822031183938325
 21
-17.135077278247458
 31
0.0
  0
LINE
  5
14D
330
17
100
AcDbEntity
  8
visible
100
AcDbLine
 10
-18.673593684024457
 20
-19.44802786079966
 30
0.0
 11
-19.033593684072457
 21
-19.6846738954093
 31
0.0
  0
LINE
  5
14E
330
17
100
AcDbEntity
  8
visible
100
AcDbLine
 10
-18.664564206120072
 20
-19.4513665953954
 30
0.0
 11
-18.673593684024457
 21
-19.44802786079966
 31
0.0
  0
LINE
  5
14F
330
17
100
AcDbEntity
  8
visible
100
AcDbLine
 10
-27.738046808344624
 20
-14.457847385557752
 30
0.0
 11
-28.489999933288228
 21
-11.970340105759615
 31
0.0
  0
LINE
  5
150
330
17
100
AcDbEntity
  8
visible
100
AcDbLine
 10
-28.489999933288228
 20
-11.970340105759615
 30
0.0
 11
-28.84999993333623
 21
-12.206986140369256
 31
0.0
  0
LINE
  5
151
330
17
100
AcDbEntity
  8
visible
100
AcDbLine
 10
-28.098046808392624
 20
-14.6944934201674
 30
0.0
 11
-28.84999993333623
 21
-12.206986140369263
 31
0.0
  0
LINE
  5
152
330
17
100
AcDbEntity
  8
visible
100
AcDbLine
 10
-27.738046808344624
 20
-14.457847385557752
 30
0.0
 11
-28.098046808392624
 21
-14.694493420167394
 31
0.0
  0
LINE
  5
153
330
17
100
AcDbEntity
  8
visible
100
AcDbLine
 10
-28.849999933336225
 20
-12.20698614036926
 30
0.0
 11
-29.599218683280036
 21
-14.13942096460446
 31
0.0
  0
LINE
  5
154
330
17
100
AcDbEntity
  8
visible
100
AcDbLine
 10
-29.599218683280036
 20
-14.139420964604458
 30
0.0
 11
-28.098046808392624
 21
-14.694493420167397
 31
0.0
  0
LINE
  5
155
330
17
100
AcDbEntity
  8
visible
100
AcDbLine
 10
-63.19999997075998
 20
8.607419555837179
 30
0.0
 11
-63.19999997075998
 21
13.65354823323485
 31
0.0
  0
LINE
  5
156
330
17
100
AcDbEntity
  8
visible
100
AcDbLine
 10
10.400000023720018
 20
-18.60687442994129
 30
0.0
 11
10.400000023720018
 21
-13.560745752543617
 31
0.0
  0
LINE
  5
157
330
17
100
AcDbEntity
  8
visible
100
AcDbLine
 10
21.60000002388002
 20
-17.81805431506883
 30
0.0
 11
21.60000002388002
 21
-12.77192563767116
 31
0.0
  0
LINE
  5
158
330
17
100
AcDbEntity
  8
visible
100
AcDbLine
 10
64.80000002964002
 20
10.579469838088205
 30
0.0
 11
64.80000002964002
 21
15.625598515485876
 31
0.0
  0
LINE
  5
159
330
17
100
AcDbEntity
  8
visible
100
AcDbLine
 10
-62.83999997071198
 20
7.800038967536961
 30
0.0
 11
-62.83999997071198
 21
8.47430616131379
 31
0.0
  0
LINE
  5
15A
330
17
100
AcDbEntity
  8
visible
100
AcDbLine
 10
10.760000023768022
 20
-19.414255018241512
 30
0.0
 11
10.760000023768022
 21
-18.732495402432086
 31
0.0
  0
LINE
  5
15B
330
17
100
AcDbEntity
  8
visible
100
AcDbLine
 10
21.12000002391602
 20
-18.684596411984487
 30
0.0
 11
21.12000002391602
 21
-18.104423108257567
 31
0.0
  0
LINE
  5
15C
330
17
100
AcDbEntity
  8
visible
100
AcDbLine
 10
64.32000002967602
 20
9.712927741172546
 30
0.0
 11
64.32000002967602
 21
10.263941792007744
 31
0.0
  0
LINE
  5
15D
330
17
100
AcDbEntity
  8
visible
100
AcDbLine
 10
64.80000002964002
 20
-19.175288914842916
 30
0.0
 11
64.80000002964002
 21
9.53544321517834
 31
0.0
  0
LINE
  5
15E
330
17
100
AcDbEntity
  8
visible
100
AcDbLine
 10
21.60000002388002
 20
-47.57281306799995
 30
0.0
 11
21.60000002388002
 21
-18.862080937978696
 31
0.0
  0
LINE
  5
15F
330
17
100
AcDbEntity
  8
visible
100
AcDbLine
 10
-63.19999997075998
 20
-21.14733919709394
 30
0.0
 11
-63.19999997075998
 21
-9.402039689357974
 31
0.0
  0
LINE
  5
160
330
17
100
AcDbEntity
  8
visible
100
AcDbLine
 10
10.400000023720018
 20
-48.36163318287241
 30
0.0
 11
10.400000023720018
 21
-19.650901052851154
 31
0.0
  0
LINE
  5
161
330
17
100
AcDbEntity
  8
visible
100
AcDbLine
 10
-63.19999997075998
 20
1.0382265397406663
 30
0.0
 11
-63.19999997075998
 21
7.563392932927314
 31
0.0
  0
LINE
  5
162
330
17
100
AcDbEntity
  8
visible
100
AcDbLine
 10
-31.306155311369448
 20
-10.894336969507421
 30
0.0
 11
-31.662304620625306
 21
-11.128451752154987
 31
0.0
  0
LINE
  5
163
330
17
100
AcDbEntity
  8
visible
100
AcDbLine
 10
-31.97359368302696
 20
-10.503825950789391
 30
0.0
 11
-32.33359368307496
 21
-10.740471985399033
 31
0.0
  0
LINE
  5
164
330
17
100
AcDbEntity
  8
visible
100
AcDbLine
 10
-33.67441691985832
 20
-10.211828753673634
 30
0.0
 11
-33.82656243296299
 21
-10.311841621326602
 31
0.0
  0
LINE
  5
165
330
17
100
AcDbEntity
  8
visible
100
AcDbLine
 10
-33.999765557874994
 20
-11.565618358341817
 30
0.0
 11
-34.359765557923
 21
-11.802264392951459
 31
0.0
  0
LINE
  5
166
330
17
100
AcDbEntity
  8
visible
100
AcDbLine
 10
-33.466562432914984
 20
-13.447381187570842
 30
0.0
 11
-33.82656243296299
 21
-13.684027222180484
 31
0.0
  0
LINE
  5
167
330
17
100
AcDbEntity
  8
visible
100
AcDbLine
 10
-32.006406183024495
 20
-14.604332272413483
 30
0.0
 11
-32.3664061830725
 21
-14.840978307023125
 31
0.0
  0
LINE
  5
168
330
17
100
AcDbEntity
  8
visible
100
AcDbLine
 10
-31.32144524557587
 20
-14.750549526518462
 30
0.0
 11
-31.68144524562387
 21
-14.987195561128104
 31
0.0
  0
LINE
  5
169
330
17
100
AcDbEntity
  8
visible
100
AcDbLine
 10
-66.39999997011998
 20
11.762700017299078
 30
0.0
 11
-66.39999997011998
 21
16.80882869469675
 31
0.0
  0
LINE
  5
16A
330
17
100
AcDbEntity
  8
visible
100
AcDbLine
 10
66.40000003012003
 20
12.945930184677632
 30
0.0
 11
66.40000003012003
 21
17.992058862075304
 31
0.0
  0
LINE
  5
16B
330
17
100
AcDbEntity
  8
visible
100
AcDbLine
 10
19.900000024220027
 20
-11.424357940359766
 30
0.0
 11
19.900000024220027
 21
-11.095682892088135
 31
0.0
  0
LINE
  5
16C
330
17
100
AcDbEntity
  8
visible
100
AcDbLine
 10
10.90000002422002
 20
-11.896828321654507
 30
0.0
 11
10.90000002422002
 21
-11.095682892088135
 31
0.0
  0
LINE
  5
16D
330
17
100
AcDbEntity
  8
visible
100
AcDbLine
 10
55.300000030140026
 20
11.845835463710504
 30
0.0
 11
55.300000030140026
 21
18.09066137643437
 31
0.0
  0
LINE
  5
16E
330
17
100
AcDbEntity
  8
visible
100
AcDbLine
 10
-55.29999997013998
 20
12.581245888130333
 30
0.0
 11
-55.29999997013998
 21
16.710226180337692
 31
0.0
  0
LINE
  5
16F
330
17
100
AcDbEntity
  8
visible
100
AcDbLine
 10
-10.899999964219973
 20
17.28734089948785
 30
0.0
 11
-10.899999964219973
 21
45.8965704488602
 31
0.0
  0
LINE
  5
170
330
17
100
AcDbEntity
  8
visible
100
AcDbLine
 10
-19.89999996421998
 20
38.9992278979052
 30
0.0
 11
-19.89999996421998
 21
45.8965704488602
 31
0.0
  0
LINE
  5
171
330
17
100
AcDbEntity
  8
visible
100
AcDbLine
 10
66.40000003012003
 20
-16.80882856825349
 30
0.0
 11
66.40000003012003
 21
11.901903561767767
 31
0.0
  0
LINE
  5
172
330
17
100
AcDbEntity
  8
visible
100
AcDbLine
 10
-66.39999997011998
 20
-17.992058735632042
 30
0.0
 11
-66.39999997011998
 21
10.718673394389214
 31
0.0
  0
SPLINE
  5
173
330
17
100
AcDbEntity
  8
visible
100
AcDbSpline
 70
0
 71
1
 72
4
 73
2
 74
0
 40
0.0
 40
0.0
 40
1.0
 40
1.0
 10
-32.96459108206648
 20
-10.511036144238997
 30
0.0
 10
-33.32459108211448
 20
-10.747682178848642
 30
0.0
  0
ENDSEC
  0
SECTION
  2
OBJECTS
  0
DICTIONARY
  5
A
330
0
100
AcDbDictionary
281
1
  3
ACAD_COLOR
350
B
  3
ACAD_GROUP
350
C
  3
ACAD_LAYOUT
350
D
  3
ACAD_MATERIAL
350
E
  3
ACAD_MLEADERSTYLE
350
F
  3
ACAD_MLINESTYLE
350
10
  3
ACAD_PLOTSETTINGS
350
11
  3
ACAD_PLOTSTYLENAME
350
12
  3
ACAD_SCALELIST
350
14
  3
ACAD_TABLESTYLE
350
15
  3
ACAD_VISUALSTYLE
350
16
  3
EZDXF_META
350
2D
  0
DICTIONARY
  5
B
330
A
100
AcDbDictionary
281
1
  0
DICTIONARY
  5
C
330
A
100
AcDbDictionary
281
1
  0
DICTIONARY
  5
D
330
A
100
AcDbDictionary
281
1
  3
Model
350
1A
  3
Layout1
350
1E
  0
DICTIONARY
  5
E
330
A
100
AcDbDictionary
281
1
  3
ByBlock
350
1F
  3
ByLayer
350
20
  3
Global
350
21
  0
DICTIONARY
  5
F
330
A
100
AcDbDictionary
281
1
  3
Standard
350
2C
  0
DICTIONARY
  5
10
330
A
100
AcDbDictionary
281
1
  3
Standard
350
22
  0
DICTIONARY
  5
11
330
A
100
AcDbDictionary
281
1
  0
ACDBDICTIONARYWDFLT
  5
12
330
A
100
AcDbDictionary
281
1
  3
Normal
350
13
100
AcDbDictionaryWithDefault
340
13
  0
ACDBPLACEHOLDER
  5
13
330
12
  0
DICTIONARY
  5
14
330
A
100
AcDbDictionary
281
1
  0
DICTIONARY
  5
15
330
A
100
AcDbDictionary
281
1
  0
DICTIONARY
  5
16
330
A
100
AcDbDictionary
281
1
  0
LAYOUT
  5
1A
330
D
100
AcDbPlotSettings
  1

  4
A3
  6

 40
7.5
 41
20.0
 42
7.5
 43
20.0
 44
420.0
 45
297.0
 46
0.0
 47
0.0
 48
0.0
 49
0.0
140
0.0
141
0.0
142
1.0
143
1.0
 70
1024
 72
1
 73
0
 74
5
  7

 75
16
 76
0
 77
2
 78
300
147
1.0
148
0.0
149
0.0
100
AcDbLayout
  1
Model
 70
1
 71
0
 10
0.0
 20
0.0
 11
420.0
 21
297.0
 12
0.0
 22
0.0
 32
0.0
 14
1e+20
 24
1e+20
 34
1e+20
 15
-1e+20
 25
-1e+20
 35
-1e+20
146
0.0
 13
0.0
 23
0.0
 33
0.0
 16
1.0
 26
0.0
 36
0.0
 17
0.0
 27
1.0
 37
0.0
 76
1
330
17
  0
LAYOUT
  5
1E
330
D
100
AcDbPlotSettings
  1

  4
A3
  6

 40
7.5
 41
20.0
 42
7.5
 43
20.0
 44
420.0
 45
297.0
 46
0.0
 47
0.0
 48
0.0
 49
0.0
140
0.0
141
0.0
142
1.0
143
1.0
 70
0
 72
1
 73
0
 74
5
  7

 75
16
 76
0
 77
2
 78
300
147
1.0
148
0.0
149
0.0
100
AcDbLayout
  1
Layout1
 70
1
 71
1
 10
0.0
 20
0.0
 11
420.0
 21
297.0
 12
0.0
 22
0.0
 32
0.0
 14
1e+20
 24
1e+20
 34
1e+20
 15
-1e+20
 25
-1e+20
 35
-1e+20
146
0.0
 13
0.0
 23
0.0
 33
0.0
 16
1.0
 26
0.0
 36
0.0
 17
0.0
 27
1.0
 37
0.0
 76
1
330
1B
  0
MATERIAL
  5
1F
102
{ACAD_REACTORS
330
E
102
}
330
E
100
AcDbMaterial
  1
ByBlock
  2

 70
0
 40
1.0
 71
1
 41
1.0
 91
-1023410177
 42
1.0
 72
1
  3

 73
1
 74
1
 75
1
 44
0.5
 73
0
 45
1.0
 46
1.0
 77
1
  4

 78
1
 79
1
170
1
 48
1.0
171
1
  6

172
1
173
1
174
1
140
1.0
141
1.0
175
1
  7

176
1
177
1
178
1
143
1.0
179
1
  8

270
1
271
1
272
1
145
1.0
146
1.0
273
1
  9

274
1
275
1
276
1
 42
1.0
 72
1
  3

 73
1
 74
1
 75
1
 94
63
  0
MATERIAL
  5
20
102
{ACAD_REACTORS
330
E
102
}
330
E
100
AcDbMaterial
  1
ByLayer
  2

 70
0
 40
1.0
 71
1
 41
1.0
 91
-1023410177
 42
1.0
 72
1
  3

 73
1
 74
1
 75
1
 44
0.5
 73
0
 45
1.0
 46
1.0
 77
1
  4

 78
1
 79
1
170
1
 48
1.0
171
1
  6

172
1
173
1
174
1
140
1.0
141
1.0
175
1
  7

176
1
177
1
178
1
143
1.0
179
1
  8

270
1
271
1
272
1
145
1.0
146
1.0
273
1
  9

274
1
275
1
276
1
 42
1.0
 72
1
  3

 73
1
 74
1
 75
1
 94
63
  0
MATERIAL
  5
21
102
{ACAD_REACTORS
330
E
102
}
330
E
100
AcDbMaterial
  1
Global
  2

 70
0
 40
1.0
 71
1
 41
1.0
 91
-1023410177
 42
1.0
 72
1
  3

 73
1
 74
1
 75
1
 44
0.5
 73
0
 45
1.0
 46
1.0
 77
1
  4

 78
1
 79
1
170
1
 48
1.0
171
1
  6

172
1
173
1
174
1
140
1.0
141
1.0
175
1
  7

176
1
177
1
178
1
143
1.0
179
1
  8

270
1
271
1
272
1
145
1.0
146
1.0
273
1
  9

274
1
275
1
276
1
 42
1.0
 72
1
  3

 73
1
 74
1
 75
1
 94
63
  0
MLINESTYLE
  5
22
102
{ACAD_REACTORS
330
10
102
}
330
10
100
AcDbMlineStyle
  2
Standard
 70
0
  3

 62
256
 51
90.0
 52
90.0
 71
2
 49
0.5
 62
256
  6
BYLAYER
 49
-0.5
 62
256
  6
BYLAYER
  0
MLEADERSTYLE
  5
2C
102
{ACAD_REACTORS
330
F
102
}
330
F
100
AcDbMLeaderStyle
179
2
170
2
171
1
172
0
 90
2
 40
0.0
 41
0.0
173
1
 91
-1056964608
 92
-2
290
1
 42
2.0
291
1
 43
8.0
  3
Standard
 44
4.0
300

342
29
174
1
175
1
176
0
178
1
 93
-1056964608
 45
4.0
292
0
297
0
 46
4.0
 94
-1056964608
 47
1.0
 49
1.0
140
1.0
294
1
141
0.0
177
0
142
1.0
295
0
296
0
143
3.75
271
0
272
9
273
9
  0
DICTIONARY
  5
2D
330
A
100
AcDbDictionary
280
1
281
1
  3
CREATED_BY_EZDXF
350
2E
  3
WRITTEN_BY_EZDXF
350
177
  0
DICTIONARYVAR
  5
2E
330
2D
100
DictionaryVariables
280
0
  1
1.4.4 @ 2026-10-01T18:29:31.933155+00:00
  0
DICTIONARYVAR
  5
177
330
2D
100
DictionaryVariables
280
0
  1
1.4.4 @ 2026-10-01T18:29:31.991217+00:00
  0
ENDSEC
  0
EOF
