  0
SECTION
  2
HEADER
  9
$ACADVER
  1
AC1027
  9
$ACADMAINTVER
 70
105
  9
$DWGCODEPAGE
  3
ANSI_1252
  9
$LASTSAVEDBY
  1
ezdxf
  9
$REQUIREDVERSIONS
160
0
  9
$INSBASE
 10
0.0
 20
0.0
 30
0.0
  9
$EXTMIN
 10
1e+20
 20
1e+20
 30
1e+20
  9
$EXTMAX
 10
-1e+20
 20
-1e+20
 30
-1e+20
  9
$LIMMIN
 10
0.0
 20
0.0
  9
$LIMMAX
 10
420.0
 20
297.0
  9
$ORTHOMODE
 70
0
  9
$REGENMODE
 70
1
  9
$FILLMODE
 70
1
  9
$QTEXTMODE
 70
0
  9
$MIRRTEXT
 70
1
  9
$LTSCALE
 40
1.0
  9
$ATTMODE
 70
1
  9
$TEXTSIZE
 40
2.5
  9
$TRACEWID
 40
1.0
  9
$TEXTSTYLE
  7
Standard
  9
$CLAYER
  8
0
  9
$CELTYPE
  6
ByLayer
  9
$CECOLOR
 62
256
  9
$CELTSCALE
 40
1.0
  9
$DISPSILH
 70
0
  9
$DIMSCALE
 40
1.0
  9
$DIMASZ
 40
2.5
  9
$DIMEXO
 40
0.625
  9
$DIMDLI
 40
3.75
  9
$DIMRND
 40
0.0
  9
$DIMDLE
 40
0.0
  9
$DIMEXE
 40
1.25
  9
$DIMTP
 40
0.0
  9
$DIMTM
 40
0.0
  9
$DIMTXT
 40
2.5
  9
$DIMCEN
 40
2.5
  9
$DIMTSZ
 40
0.0
  9
$DIMTOL
 70
0
  9
$DIMLIM
 70
0
  9
$DIMTIH
 70
0
  9
$DIMTOH
 70
0
  9
$DIMSE1
 70
0
  9
$DIMSE2
 70
0
  9
$DIMTAD
 70
1
  9
$DIMZIN
 70
8
  9
$DIMBLK
  1

  9
$DIMASO
 70
1
  9
$DIMSHO
 70
1
  9
$DIMPOST
  1

  9
$DIMAPOST
  1

  9
$DIMALT
 70
0
  9
$DIMALTD
 70
3
  9
$DIMALTF
 40
0.03937007874
  9
$DIMLFAC
 40
1.0
  9
$DIMTOFL
 70
1
  9
$DIMTVP
 40
0.0
  9
$DIMTIX
 70
0
  9
$DIMSOXD
 70
0
  9
$DIMSAH
 70
0
  9
$DIMBLK1
  1

  9
$DIMBLK2
  1

  9
$DIMSTYLE
  2
ISO-25
  9
$DIMCLRD
 70
0
  9
$DIMCLRE
 70
0
  9
$DIMCLRT
 70
0
  9
$DIMTFAC
 40
1.0
  9
$DIMGAP
 40
0.625
  9
$DIMJUST
 70
0
  9
$DIMSD1
 70
0
  9
$DIMSD2
 70
0
  9
$DIMTOLJ
 70
0
  9
$DIMTZIN
 70
8
  9
$DIMALTZ
 70
0
  9
$DIMALTTZ
 70
0
  9
$DIMUPT
 70
0
  9
$DIMDEC
 70
2
  9
$DIMTDEC
 70
2
  9
$DIMALTU
 70
2
  9
$DIMALTTD
 70
3
  9
$DIMTXSTY
  7
Standard
  9
$DIMAUNIT
 70
0
  9
$DIMADEC
 70
0
  9
$DIMALTRND
 40
0.0
  9
$DIMAZIN
 70
0
  9
$DIMDSEP
 70
44
  9
$DIMATFIT
 70
3
  9
$DIMFRAC
 70
0
  9
$DIMLDRBLK
  1

  9
$DIMLUNIT
 70
2
  9
$DIMLWD
 70
-2
  9
$DIMLWE
 70
-2
  9
$DIMTMOVE
 70
0
  9
$DIMFXL
 40
1.0
  9
$DIMFXLON
 70
0
  9
$DIMJOGANG
 40
0.785398163397
  9
$DIMTFILL
 70
0
  9
$DIMTFILLCLR
 70
0
  9
$DIMARCSYM
 70
0
  9
$DIMLTYPE
  6

  9
$DIMLTEX1
  6

  9
$DIMLTEX2
  6

  9
$DIMTXTDIRECTION
 70
0
  9
$LUNITS
 70
2
  9
$LUPREC
 70
4
  9
$SKETCHINC
 40
1.0
  9
$FILLETRAD
 40
10.0
  9
$AUNITS
 70
0
  9
$AUPREC
 70
2
  9
$MENU
  1
.
  9
$ELEVATION
 40
0.0
  9
$PELEVATION
 40
0.0
  9
$THICKNESS
 40
0.0
  9
$LIMCHECK
 70
0
  9
$CHAMFERA
 40
0.0
  9
$CHAMFERB
 40
0.0
  9
$CHAMFERC
 40
0.0
  9
$CHAMFERD
 40
0.0
  9
$SKPOLY
 70
0
  9
$TDCREATE
 40
2461316.774849537
  9
$TDUCREATE
 40
2458532.153996898
  9
$TDUPDATE
 40
2461316.774849537
  9
$TDUUPDATE
 40
2458532.1544311
  9
$TDINDWG
 40
0.0
  9
$TDUSRTIMER
 40
0.0
  9
$USRTIMER
 70
1
  9
$ANGBASE
 50
0.0
  9
$ANGDIR
 70
0
  9
$PDMODE
 70
0
  9
$PDSIZE
 40
0.0
  9
$PLINEWID
 40
0.0
  9
$SPLFRAME
 70
0
  9
$SPLINETYPE
 70
6
  9
$SPLINESEGS
 70
8
  9
$HANDSEED
  5
1CD
  9
$SURFTAB1
 70
6
  9
$SURFTAB2
 70
6
  9
$SURFTYPE
 70
6
  9
$SURFU
 70
6
  9
$SURFV
 70
6
  9
$UCSBASE
  2

  9
$UCSNAME
  2

  9
$UCSORG
 10
0.0
 20
0.0
 30
0.0
  9
$UCSXDIR
 10
1.0
 20
0.0
 30
0.0
  9
$UCSYDIR
 10
0.0
 20
1.0
 30
0.0
  9
$UCSORTHOREF
  2

  9
$UCSORTHOVIEW
 70
0
  9
$UCSORGTOP
 10
0.0
 20
0.0
 30
0.0
  9
$UCSORGBOTTOM
 10
0.0
 20
0.0
 30
0.0
  9
$UCSORGLEFT
 10
0.0
 20
0.0
 30
0.0
  9
$UCSORGRIGHT
 10
0.0
 20
0.0
 30
0.0
  9
$UCSORGFRONT
 10
0.0
 20
0.0
 30
0.0
  9
$UCSORGBACK
 10
0.0
 20
0.0
 30
0.0
  9
$PUCSBASE
  2

  9
$PUCSNAME
  2

  9
$PUCSORG
 10
0.0
 20
0.0
 30
0.0
  9
$PUCSXDIR
 10
1.0
 20
0.0
 30
0.0
  9
$PUCSYDIR
 10
0.0
 20
1.0
 30
0.0
  9
$PUCSORTHOREF
  2

  9
$PUCSORTHOVIEW
 70
0
  9
$PUCSORGTOP
 10
0.0
 20
0.0
 30
0.0
  9
$PUCSORGBOTTOM
 10
0.0
 20
0.0
 30
0.0
  9
$PUCSORGLEFT
 10
0.0
 20
0.0
 30
0.0
  9
$PUCSORGRIGHT
 10
0.0
 20
0.0
 30
0.0
  9
$PUCSORGFRONT
 10
0.0
 20
0.0
 30
0.0
  9
$PUCSORGBACK
 10
0.0
 20
0.0
 30
0.0
  9
$USERI1
 70
0
  9
$USERI2
 70
0
  9
$USERI3
 70
0
  9
$USERI4
 70
0
  9
$USERI5
 70
0
  9
$USERR1
 40
0.0
  9
$USERR2
 40
0.0
  9
$USERR3
 40
0.0
  9
$USERR4
 40
0.0
  9
$USERR5
 40
0.0
  9
$WORLDVIEW
 70
1
  9
$SHADEDGE
 70
3
  9
$SHADEDIF
 70
70
  9
$TILEMODE
 70
1
  9
$MAXACTVP
 70
64
  9
$PINSBASE
 10
0.0
 20
0.0
 30
0.0
  9
$PLIMCHECK
 70
0
  9
$PEXTMIN
 10
1e+20
 20
1e+20
 30
1e+20
  9
$PEXTMAX
 10
-1e+20
 20
-1e+20
 30
-1e+20
  9
$PLIMMIN
 10
0.0
 20
0.0
  9
$PLIMMAX
 10
420.0
 20
297.0
  9
$UNITMODE
 70
0
  9
$VISRETAIN
 70
1
  9
$PLINEGEN
 70
0
  9
$PSLTSCALE
 70
1
  9
$TREEDEPTH
 70
3020
  9
$CMLSTYLE
  2
Standard
  9
$CMLJUST
 70
0
  9
$CMLSCALE
 40
20.0
  9
$PROXYGRAPHICS
 70
1
  9
$MEASUREMENT
 70
1
  9
$CELWEIGHT
370
-1
  9
$ENDCAPS
280
0
  9
$JOINSTYLE
280
0
  9
$LWDISPLAY
290
0
  9
$INSUNITS
 70
4
  9
$HYPERLINKBASE
  1

  9
$STYLESHEET
  1

  9
$XEDIT
290
1
  9
$CEPSNTYPE
380
0
  9
$PSTYLEMODE
290
1
  9
$FINGERPRINTGUID
  2
{536A34A5-3F3C-4F00-A8C8-133900B7E1BE}
  9
$VERSIONGUID
  2
{5067E2BC-FC48-46CC-906B-64C2BC4A974F}
  9
$EXTNAMES
290
1
  9
$PSVPSCALE
 40
0.0
  9
$OLESTARTUP
290
0
  9
$SORTENTS
280
127
  9
$INDEXCTL
280
0
  9
$HIDETEXT
280
1
  9
$XCLIPFRAME
280
1
  9
$HALOGAP
280
0
  9
$OBSCOLOR
 70
257
  9
$OBSLTYPE
280
0
  9
$INTERSECTIONDISPLAY
280
0
  9
$INTERSECTIONCOLOR
 70
257
  9
$DIMASSOC
280
2
  9
$PROJECTNAME
  1

  9
$CAMERADISPLAY
290
0
  9
$LENSLENGTH
 40
50.0
  9
$CAMERAHEIGHT
 40
0.0
  9
$STEPSPERSEC
 40
24.0
  9
$STEPSIZE
 40
100.0
  9
$3DDWFPREC
 40
2.0
  9
$PSOLWIDTH
 40
0.005
  9
$PSOLHEIGHT
 40
0.08
  9
$LOFTANG1
 40
1.570796326795
  9
$LOFTANG2
 40
1.570796326795
  9
$LOFTMAG1
 40
0.0
  9
$LOFTMAG2
 40
0.0
  9
$LOFTPARAM
 70
7
  9
$LOFTNORMALS
280
1
  9
$LATITUDE
 40
37.795
  9
$LONGITUDE
 40
-122.394
  9
$NORTHDIRECTION
 40
0.0
  9
$TIMEZONE
 70
-8000
  9
$LIGHTGLYPHDISPLAY
280
1
  9
$TILEMODELIGHTSYNCH
280
1
  9
$CMATERIAL
347
20
  9
$SOLIDHIST
280
0
  9
$SHOWHIST
280
1
  9
$DWFFRAME
280
2
  9
$DGNFRAME
280
2
  9
$REALWORLDSCALE
290
1
  9
$INTERFERECOLOR
 62
256
  9
$CSHADOW
280
0
  9
$SHADOWPLANELOCATION
 40
0.0
  0
ENDSEC
  0
SECTION
  2
CLASSES
  0
CLASS
  1
ACDBDICTIONARYWDFLT
  2
AcDbDictionaryWithDefault
  3
ObjectDBX Classes
 90
0
 91
0
280
0
281
0
  0
CLASS
  1
SUN
  2
AcDbSun
  3
SCENEOE
 90
1153
 91
0
280
0
281
0
  0
CLASS
  1
VISUALSTYLE
  2
AcDbVisualStyle
  3
ObjectDBX Classes
 90
4095
 91
0
280
0
281
0
  0
CLASS
  1
MATERIAL
  2
AcDbMaterial
  3
ObjectDBX Classes
 90
1153
 91
0
280
0
281
0
  0
CLASS
  1
SCALE
  2
AcDbScale
  3
ObjectDBX Classes
 90
1153
 91
0
280
0
281
0
  0
CLASS
  1
TABLESTYLE
  2
AcDbTableStyle
  3
ObjectDBX Classes
 90
4095
 91
0
280
0
281
0
  0
CLASS
  1
MLEADERSTYLE
  2
AcDbMLeaderStyle
  3
ACDB_MLEADERSTYLE_CLASS
 90
4095
 91
0
280
0
281
0
  0
CLASS
  1
DICTIONARYVAR
  2
AcDbDictionaryVar
  3
ObjectDBX Classes
 90
0
 91
0
280
0
281
0
  0
CLASS
  1
CELLSTYLEMAP
  2
AcDbCellStyleMap
  3
ObjectDBX Classes
 90
1152
 91
0
280
0
281
0
  0
CLASS
  1
MENTALRAYRENDERSETTINGS
  2
AcDbMentalRayRenderSettings
  3
SCENEOE
 90
1024
 91
0
280
0
281
0
  0
CLASS
  1
ACDBDETAILVIEWSTYLE
  2
AcDbDetailViewStyle
  3
ObjectDBX Classes
 90
1025
 91
0
280
0
281
0
  0
CLASS
  1
ACDBSECTIONVIEWSTYLE
  2
AcDbSectionViewStyle
  3
ObjectDBX Classes
 90
1025
 91
0
280
0
281
0
  0
CLASS
  1
RASTERVARIABLES
  2
AcDbRasterVariables
  3
ISM
 90
0
 91
0
280
0
281
0
  0
CLASS
  1
LAYOUT
  2
AcDbLayout
  3
ObjectDBX Classes
 90
0
 91
0
280
0
281
0
  0
CLASS
  1
ACDBPLACEHOLDER
  2
AcDbPlaceHolder
  3
ObjectDBX Classes
 90
0
 91
0
280
0
281
0
  0
ENDSEC
  0
SECTION
  2
TABLES
  0
TABLE
  2
VPORT
  5
8
330
0
100
AcDbSymbolTable
 70
1
  0
VPORT
  5
1C9
330
8
100
AcDbSymbolTableRecord
100
AcDbViewportTableRecord
  2
*Active
 70
0
 10
0.0
 20
0.0
 11
1.0
 21
1.0
 12
2.999999537678377e-08
 22
0.12489682957362902
 13
0.0
 23
0.0
 14
0.5
 24
0.5
 15
0.5
 25
0.5
 16
0.0
 26
0.0
 36
1.0
 17
0.0
 27
0.0
 37
0.0
 40
117.75688664420521
 41
1.34
 42
50.0
 43
0.0
 44
0.0
 50
0.0
 51
0.0
 71
0
 72
1000
 73
1
 74
3
 75
0
 76
0
 77
0
 78
0
281
0
 65
1
110
0.0
120
0.0
130
0.0
111
1.0
121
0.0
131
0.0
112
0.0
122
1.0
132
0.0
 79
0
146
0.0
  0
ENDTAB
  0
TABLE
  2
LTYPE
  5
2
330
0
100
AcDbSymbolTable
 70
3
  0
LTYPE
  5
24
330
2
100
AcDbSymbolTableRecord
100
AcDbLinetypeTableRecord
  2
ByBlock
 70
0
  3

 72
65
 73
0
 40
0.0
  0
LTYPE
  5
25
330
2
100
AcDbSymbolTableRecord
100
AcDbLinetypeTableRecord
  2
ByLayer
 70
0
  3

 72
65
 73
0
 40
0.0
  0
LTYPE
  5
26
330
2
100
AcDbSymbolTableRecord
100
AcDbLinetypeTableRecord
  2
Continuous
 70
0
  3

 72
65
 73
0
 40
0.0
  0
ENDTAB
  0
TABLE
  2
LAYER
  5
1
330
0
100
AcDbSymbolTable
 70
3
  0
LAYER
  5
27
330
1
100
AcDbSymbolTableRecord
100
AcDbLayerTableRecord
  2
0
 70
0
 62
7
  6
Continuous
370
-3
390
13
347
21
  0
LAYER
  5
28
330
1
100
AcDbSymbolTableRecord
100
AcDbLayerTableRecord
  2
Defpoints
 70
0
 62
7
  6
Continuous
290
0
370
-3
390
13
347
21
  0
LAYER
  5
2F
330
1
100
AcDbSymbolTableRecord
100
AcDbLayerTableRecord
  2
visible
 70
0
 62
7
  6
Continuous
370
-3
390
13
347
21
  0
ENDTAB
  0
TABLE
  2
STYLE
  5
5
330
0
100
AcDbSymbolTable
 70
1
  0
STYLE
  5
29
330
5
100
AcDbSymbolTableRecord
100
AcDbTextStyleTableRecord
  2
Standard
 70
0
 40
0.0
 41
1.0
 50
0.0
 71
0
 42
2.5
  3
txt
  4

  0
ENDTAB
  0
TABLE
  2
VIEW
  5
7
330
0
100
AcDbSymbolTable
 70
0
  0
ENDTAB
  0
TABLE
  2
UCS
  5
6
330
0
100
AcDbSymbolTable
 70
0
  0
ENDTAB
  0
TABLE
  2
APPID
  5
3
330
0
100
AcDbSymbolTable
 70
3
  0
APPID
  5
2A
330
3
100
AcDbSymbolTableRecord
100
AcDbRegAppTableRecord
  2
ACAD
 70
0
  0
APPID
  5
1CA
330
3
100
AcDbSymbolTableRecord
100
AcDbRegAppTableRecord
  2
HATCHBACKGROUNDCOLOR
 70
0
  0
APPID
  5
1CB
330
3
100
AcDbSymbolTableRecord
100
AcDbRegAppTableRecord
  2
EZDXF
 70
0
  0
ENDTAB
  0
TABLE
  2
DIMSTYLE
  5
4
330
0
100
AcDbSymbolTable
 70
1
100
AcDbDimStyleTable
  0
DIMSTYLE
105
2B
330
4
100
AcDbSymbolTableRecord
100
AcDbDimStyleTableRecord
  2
Standard
 70
0
 40
1.0
 41
2.5
 42
0.625
 43
3.75
 44
1.25
 45
0.0
 46
0.0
 47
0.0
 48
0.0
 49
2.5
140
2.5
141
2.5
142
0.0
143
0.03937007874
144
1.0
145
0.0
146
1.0
147
0.625
148
0.0
 69
0
 70
0
 71
0
 72
0
 73
0
 74
0
 75
0
 76
0
 77
1
 78
8
 79
3
170
0
171
3
172
1
173
0
174
0
175
0
176
0
177
0
178
0
179
2
271
2
272
2
273
2
274
3
275
0
276
0
277
2
278
44
279
0
280
0
281
0
282
0
283
0
284
8
285
0
286
0
288
0
289
3
290
0
371
-2
372
-2
  0
ENDTAB
  0
TABLE
  2
BLOCK_RECORD
  5
9
330
0
100
AcDbSymbolTable
 70
2
  0
BLOCK_RECORD
  5
17
330
9
100
AcDbSymbolTableRecord
100
AcDbBlockTableRecord
  2
*Model_Space
340
1A
 70
0
280
1
281
0
  0
BLOCK_RECORD
  5
1B
330
9
100
AcDbSymbolTableRecord
100
AcDbBlockTableRecord
  2
*Paper_Space
340
1E
 70
0
280
1
281
0
  0
ENDTAB
  0
ENDSEC
  0
SECTION
  2
BLOCKS
  0
BLOCK
  5
18
330
17
100
AcDbEntity
  8
0
100
AcDbBlockBegin
  2
*Model_Space
 70
0
 10
0.0
 20
0.0
 30
0.0
  3
*Model_Space
  1

  0
ENDBLK
  5
19
330
17
100
AcDbEntity
  8
0
100
AcDbBlockEnd
  0
BLOCK
  5
1C
330
1B
100
AcDbEntity
  8
0
100
AcDbBlockBegin
  2
*Paper_Space
 70
0
 10
0.0
 20
0.0
 30
0.0
  3
*Paper_Space
  1

  0
ENDBLK
  5
1D
330
1B
100
AcDbEntity
  8
0
100
AcDbBlockEnd
  0
ENDSEC
  0
SECTION
  2
ENTITIES
  0
ELLIPSE
  5
30
330
17
100
AcDbEntity
  8
visible
100
AcDbEllipse
 10
-62.799999970040005
 20
11.113083367021105
 30
0.0
 11
22.0
 21
0.0
 31
0.0
 40
0.49301257192087866
 41
3.0934457116962184
 42
3.141592653589793
  0
ELLIPSE
  5
31
330
17
100
AcDbEntity
  8
visible
100
AcDbEllipse
 10
-62.799999970040005
 20
11.113083367021105
 30
0.0
 11
22.0
 21
0.0
 31
0.0
 40
0.49301257192087866
 41
3.141592653589793
 42
4.068887871491405
  0
LINE
  5
32
330
17
100
AcDbEntity
  8
visible
100
AcDbLine
 10
-78.97998456320103
 20
-13.201513200325758
 30
0.0
 11
-78.97998456320103
 21
-2.761246969734401
 31
0.0
  0
ELLIPSE
  5
33
330
17
100
AcDbEntity
  8
visible
100
AcDbEllipse
 10
-62.799999970040005
 20
4.587916972901503
 30
0.0
 11
22.0
 21
0.0
 31
0.0
 40
0.49301257192087866
 41
3.587522587032878
 42
3.886052734498497
  0
LINE
  5
34
330
17
100
AcDbEntity
  8
visible
100
AcDbLine
 10
-82.6486194859742
 20
-10.530316480161305
 30
0.0
 11
-82.6486194859742
 21
-0.09005024956994845
 31
0.0
  0
ELLIPSE
  5
35
330
17
100
AcDbEntity
  8
visible
100
AcDbEllipse
 10
-62.799999970040005
 20
-5.852349257689852
 30
0.0
 11
22.0
 21
0.0
 31
0.0
 40
0.49301257192087866
 41
3.587522587032878
 42
3.886052734498497
  0
ELLIPSE
  5
36
330
17
100
AcDbEntity
  8
visible
100
AcDbEllipse
 10
62.800000030039996
 20
11.507493418365577
 30
0.0
 11
22.0
 21
0.0
 31
0.0
 40
0.49301257192087866
 41
5.639684198286302
 42
6.283185307179586
  0
ELLIPSE
  5
37
330
17
100
AcDbEntity
  8
visible
100
AcDbEllipse
 10
62.800000030039996
 20
11.507493418365577
 30
0.0
 11
22.0
 21
0.0
 31
0.0
 40
0.49301257192087866
 41
0.0
 42
0.048146941893572937
  0
LINE
  5
38
330
17
100
AcDbEntity
  8
visible
100
AcDbLine
 10
80.40000002872
 20
4.999727468142275
 30
0.0
 11
34.80000002264
 21
-24.975436902399018
 31
0.0
  0
ELLIPSE
  5
39
330
17
100
AcDbEntity
  8
visible
100
AcDbEllipse
 10
17.200000023959998
 20
-18.467670952175713
 30
0.0
 11
22.0
 21
0.0
 31
0.0
 40
0.49301257192087866
 41
4.068887871491405
 42
5.639684198286302
  0
LINE
  5
3A
330
17
100
AcDbEntity
  8
visible
100
AcDbLine
 10
-75.99999997180001
 20
2.4360621018644206
 30
0.0
 11
4.000000022199998
 21
-27.144692217332402
 31
0.0
  0
ELLIPSE
  5
3B
330
17
100
AcDbEntity
  8
visible
100
AcDbEllipse
 10
-62.79999997004002
 20
11.113083367021112
 30
0.0
 11
-21.389897948556634
 21
-6.823836673997785e-16
 31
0.0
 40
0.49301257192087866
 41
-6.038025432496683
 42
-5.355890089277974
  0
LINE
  5
3C
330
17
100
AcDbEntity
  8
visible
100
AcDbLine
 10
4.366061253114836
 20
-26.90406183213742
 30
0.0
 11
-75.6339387408852
 21
2.6766924870594124
 31
0.0
  0
ELLIPSE
  5
3D
330
17
100
AcDbEntity
  8
visible
100
AcDbEllipse
 10
17.200000023960005
 20
-18.46767095217572
 30
0.0
 11
-21.389897948556634
 21
-0.0
 31
0.0
 40
0.49301257192087866
 41
-5.355890089277974
 42
-3.7850937624830774
  0
LINE
  5
3E
330
17
100
AcDbEntity
  8
visible
100
AcDbLine
 10
79.91191838760193
 20
5.180200257076116
 30
0.0
 11
34.31191838152193
 21
-24.79496411346517
 31
0.0
  0
ELLIPSE
  5
3F
330
17
100
AcDbEntity
  8
visible
100
AcDbEllipse
 10
62.80000003004001
 20
11.50749341836557
 30
0.0
 11
-21.389897948556634
 21
-0.0
 31
0.0
 40
0.49301257192087866
 41
-3.7850937624830774
 42
-3.386752528272692
  0
LINE
  5
40
330
17
100
AcDbEntity
  8
visible
100
AcDbLine
 10
-53.99999997345
 20
-23.96911123944958
 30
0.0
 11
-49.99999997375001
 21
-25.448148955409422
 31
0.0
  0
LINE
  5
41
330
17
100
AcDbEntity
  8
visible
100
AcDbLine
 10
-53.99999997345
 20
-23.969111239449585
 30
0.0
 11
-53.99999997345
 21
-26.579177797097422
 31
0.0
  0
LINE
  5
42
330
17
100
AcDbEntity
  8
visible
100
AcDbLine
 10
-49.99999997375001
 20
-25.448148955409426
 30
0.0
 11
-49.99999997375001
 21
-28.058215513057263
 31
0.0
  0
LINE
  5
43
330
17
100
AcDbEntity
  8
visible
100
AcDbLine
 10
-53.99999997345
 20
-26.579177797097422
 30
0.0
 11
-49.99999997375001
 21
-28.058215513057263
 31
0.0
  0
LINE
  5
44
330
17
100
AcDbEntity
  8
visible
100
AcDbLine
 10
-45.99999997405
 20
-26.927186671369267
 30
0.0
 11
-41.99999997435
 21
-28.406224387329107
 31
0.0
  0
LINE
  5
45
330
17
100
AcDbEntity
  8
visible
100
AcDbLine
 10
-45.999999974050006
 20
-26.927186671369267
 30
0.0
 11
-45.999999974050006
 21
-29.537253229017104
 31
0.0
  0
LINE
  5
46
330
17
100
AcDbEntity
  8
visible
100
AcDbLine
 10
-41.999999974350004
 20
-28.406224387329107
 30
0.0
 11
-41.999999974350004
 21
-31.016290944976944
 31
0.0
  0
LINE
  5
47
330
17
100
AcDbEntity
  8
visible
100
AcDbLine
 10
-45.99999997405
 20
-29.537253229017107
 30
0.0
 11
-41.99999997435
 21
-31.016290944976948
 31
0.0
  0
LINE
  5
48
330
17
100
AcDbEntity
  8
visible
100
AcDbLine
 10
-40.66757805944994
 20
-17.447785192289906
 30
0.0
 11
-40.66757805944994
 21
-18.081185133281593
 31
0.0
  0
SPLINE
  5
49
330
17
100
AcDbEntity
  8
visible
100
AcDbSpline
 70
0
 71
2
 72
6
 73
3
 74
0
 40
0.0
 40
0.0
 40
0.0
 40
1.0
 40
1.0
 40
1.0
 10
-40.66757805944994
 20
-17.447785192289906
 30
0.0
 10
-40.95081591688258
 20
-17.132544058536865
 30
0.0
 10
-41.275976496904306
 20
-16.90612416294568
 30
0.0
  0
SPLINE
  5
4A
330
17
100
AcDbEntity
  8
visible
100
AcDbSpline
 70
0
 71
2
 72
6
 73
3
 74
0
 40
0.0
 40
0.0
 40
0.0
 40
1.0
 40
1.0
 40
1.0
 10
-41.26230462190534
 20
-17.439012751798643
 30
0.0
 10
-40.93900928428842
 20
-17.703692266390483
 30
0.0
 10
-40.667578059449944
 20
-18.081185133281593
 30
0.0
  0
SPLINE
  5
4B
330
17
100
AcDbEntity
  8
visible
100
AcDbSpline
 70
0
 71
2
 72
6
 73
3
 74
0
 40
0.0
 40
0.0
 40
0.0
 40
1.0
 40
1.0
 40
1.0
 10
-41.275976496904306
 20
-16.90612416294568
 30
0.0
 10
-41.6060682634583
 20
-16.67760202620653
 30
0.0
 10
-41.96640618435253
 20
-16.545264619106014
 30
0.0
  0
SPLINE
  5
4C
330
17
100
AcDbEntity
  8
visible
100
AcDbSpline
 70
0
 71
2
 72
6
 73
3
 74
0
 40
0.0
 40
0.0
 40
0.0
 40
1.0
 40
1.0
 40
1.0
 10
-41.93359368435499
 20
-17.05103298513322
 30
0.0
 10
-41.58118034398099
 20
-17.18076248222635
 30
0.0
 10
-41.262304621905336
 20
-17.439012751798643
 30
0.0
  0
SPLINE
  5
4D
330
17
100
AcDbEntity
  8
visible
100
AcDbSpline
 70
0
 71
3
 72
11
 73
7
 74
0
 40
0.0
 40
0.0
 40
0.0
 40
0.0
 40
0.5416953644872162
 40
0.5416953644872162
 40
0.5416953644872162
 40
0.9342833763104592
 40
0.9342833763104592
 40
0.9342833763104592
 40
0.9342833763104592
 10
-41.96640618435253
 20
-16.545264619106014
 30
0.0
 10
-42.2646735254475
 20
-16.434757521152754
 30
0.0
 10
-42.56031610594188
 20
-16.374252483267878
 30
0.0
 10
-42.82829710928789
 20
-16.39535189975291
 30
0.0
 10
-43.02404444465508
 20
-16.410423894253107
 30
0.0
 10
-43.19871425193621
 20
-16.468265658952497
 30
0.0
 10
-43.3523065311313
 20
-16.56887719385106
 30
0.0
  0
SPLINE
  5
4E
330
17
100
AcDbEntity
  8
visible
100
AcDbSpline
 70
0
 71
1
 72
4
 73
2
 74
0
 40
0.0
 40
0.0
 40
1.0
 40
1.0
 10
-43.3523065311313
 20
-16.56887719385106
 30
0.0
 10
-43.42656243424302
 20
-16.622402621324234
 30
0.0
  0
SPLINE
  5
4F
330
17
100
AcDbEntity
  8
visible
100
AcDbSpline
 70
0
 71
2
 72
6
 73
3
 74
0
 40
0.0
 40
0.0
 40
0.0
 40
0.09987941532754692
 40
0.09987941532754692
 40
0.09987941532754692
 10
-43.0054686842746
 20
-17.12008249983812
 30
0.0
 10
-42.96700637847769
 20
-17.08614699824369
 30
0.0
 10
-42.92459108293292
 20
-17.058243179017747
 30
0.0
  0
SPLINE
  5
50
330
17
100
AcDbEntity
  8
visible
100
AcDbSpline
 70
0
 71
3
 72
8
 73
4
 74
0
 40
0.0
 40
0.0
 40
0.0
 40
0.0
 40
1.0
 40
1.0
 40
1.0
 40
1.0
 10
-42.92459108293292
 20
-17.05824317901775
 30
0.0
 10
-42.67003982707344
 20
-16.886364546563833
 30
0.0
 10
-42.306712353189035
 20
-16.910203104420734
 30
0.0
 10
-41.93359368435499
 20
-17.05103298513322
 30
0.0
  0
SPLINE
  5
51
330
17
100
AcDbEntity
  8
visible
100
AcDbSpline
 70
0
 71
3
 72
11
 73
7
 74
0
 40
0.0
 40
0.0
 40
0.0
 40
0.0
 40
0.6298555326701425
 40
0.6298555326701425
 40
0.6298555326701425
 40
1.0
 40
1.0
 40
1.0
 40
1.0
 10
-43.426562434243024
 20
-16.62240262132423
 30
0.0
 10
-43.66642189068814
 20
-16.80899403905836
 30
0.0
 10
-43.82244893359227
 20
-17.10379000448652
 30
0.0
 10
-43.89666843420775
 20
-17.453292253317237
 30
0.0
 10
-43.93991103528009
 20
-17.65995981217893
 30
0.0
 10
-43.96094341027851
 20
-17.879804192165913
 30
0.0
 10
-43.95976555920302
 20
-18.11282539327816
 30
0.0
  0
SPLINE
  5
52
330
17
100
AcDbEntity
  8
visible
100
AcDbSpline
 70
0
 71
3
 72
8
 73
4
 74
0
 40
0.0
 40
0.0
 40
0.0
 40
0.0
 40
1.0
 40
1.0
 40
1.0
 40
1.0
 10
-43.37734368424671
 20
-18.328181373209425
 30
0.0
 10
-43.37849289496285
 20
-17.829117636619905
 30
0.0
 10
-43.28508898857913
 20
-17.36483000798897
 30
0.0
 10
-43.005468684274604
 20
-17.120082499838123
 30
0.0
  0
SPLINE
  5
53
330
17
100
AcDbEntity
  8
visible
100
AcDbSpline
 70
0
 71
3
 72
11
 73
7
 74
0
 40
0.0
 40
0.0
 40
0.0
 40
0.0
 40
0.36781947571318296
 40
0.36781947571318296
 40
0.36781947571318296
 40
1.0
 40
1.0
 40
1.0
 40
1.0
 10
-43.95976555920303
 20
-18.11282539327816
 30
0.0
 10
-43.96091668000679
 20
-18.34312585011914
 30
0.0
 10
-43.94012815657088
 20
-18.576651851218575
 30
0.0
 10
-43.8973999888952
 20
-18.813403396576454
 30
0.0
 10
-43.82336864937037
 20
-19.218627143408693
 30
0.0
 10
-43.66700447983288
 20
-19.62975111760209
 30
0.0
 10
-43.42656243424302
 20
-19.99458822266026
 30
0.0
  0
SPLINE
  5
54
330
17
100
AcDbEntity
  8
visible
100
AcDbSpline
 70
0
 71
3
 72
8
 73
4
 74
0
 40
0.0
 40
0.0
 40
0.0
 40
0.0
 40
1.0
 40
1.0
 40
1.0
 40
1.0
 10
-43.005468684274604
 20
-19.80831511324886
 30
0.0
 10
-43.284699200785035
 20
-19.357528885416002
 30
0.0
 10
-43.37853795673983
 20
-18.82536571717786
 30
0.0
 10
-43.37734368424671
 20
-18.32818137320943
 30
0.0
  0
SPLINE
  5
55
330
17
100
AcDbEntity
  8
visible
100
AcDbSpline
 70
0
 71
3
 72
11
 73
7
 74
0
 40
0.0
 40
0.0
 40
0.0
 40
0.0
 40
0.45830463551261696
 40
0.45830463551261696
 40
0.45830463551261696
 40
1.0
 40
1.0
 40
1.0
 40
1.0
 10
-43.42656243424302
 20
-19.994588222660262
 30
0.0
 10
-43.2592614103427
 20
-20.250897512842858
 30
0.0
 10
-43.05499606014685
 20
-20.479399469214297
 30
0.0
 10
-42.8282971092879
 20
-20.664067434144584
 30
0.0
 10
-42.56031610594168
 20
-20.88334385619934
 30
0.0
 10
-42.26467352544741
 20
-21.041472081828218
 30
0.0
 10
-41.966406184352536
 20
-21.151539307350724
 30
0.0
  0
SPLINE
  5
56
330
17
100
AcDbEntity
  8
visible
100
AcDbSpline
 70
0
 71
3
 72
11
 73
7
 74
0
 40
0.0
 40
0.0
 40
0.0
 40
0.0
 40
0.5601545193542448
 40
0.5601545193542448
 40
0.5601545193542448
 40
1.0
 40
1.0
 40
1.0
 40
1.0
 10
-41.93359368435498
 20
-20.670036403850986
 30
0.0
 10
-42.16617858752711
 20
-20.58421193035187
 30
0.0
 10
-42.39378650210554
 20
-20.46080884453191
 30
0.0
 10
-42.59495773118038
 20
-20.289281346489965
 30
0.0
 10
-42.754430349339216
 20
-20.153520166905977
 30
0.0
 10
-42.89126733370392
 20
-19.99319808915895
 30
0.0
 10
-43.0054686842746
 20
-19.808315113248856
 30
0.0
  0
SPLINE
  5
57
330
17
100
AcDbEntity
  8
visible
100
AcDbSpline
 70
0
 71
2
 72
6
 73
3
 74
0
 40
0.0
 40
0.0
 40
0.0
 40
1.0
 40
1.0
 40
1.0
 10
-41.96640618435253
 20
-21.151539307350728
 30
0.0
 10
-41.61023224856065
 20
-21.283955767510434
 30
0.0
 10
-41.2814452469039
 20
-21.29775656132763
 30
0.0
  0
SPLINE
  5
58
330
17
100
AcDbEntity
  8
visible
100
AcDbSpline
 70
0
 71
2
 72
6
 73
3
 74
0
 40
0.0
 40
0.0
 40
0.0
 40
1.0
 40
1.0
 40
1.0
 10
-41.26230462190533
 20
-20.77848755805998
 30
0.0
 10
-41.58118034085163
 20
-20.800923218058287
 30
0.0
 10
-41.93359368435498
 20
-20.670036403850986
 30
0.0
  0
SPLINE
  5
59
330
17
100
AcDbEntity
  8
visible
100
AcDbSpline
 70
0
 71
2
 72
6
 73
3
 74
0
 40
0.0
 40
0.0
 40
0.0
 40
1.0
 40
1.0
 40
1.0
 10
-41.2814452469039
 20
-21.29775656132763
 30
0.0
 10
-40.95519077815845
 20
-21.31014222523659
 30
0.0
 10
-40.66757805944994
 20
-21.20357920859273
 30
0.0
  0
SPLINE
  5
5A
330
17
100
AcDbEntity
  8
visible
100
AcDbSpline
 70
0
 71
2
 72
6
 73
3
 74
0
 40
0.0
 40
0.0
 40
0.0
 40
1.0
 40
1.0
 40
1.0
 10
-40.66757805944994
 20
-20.57612668488735
 30
0.0
 10
-40.93900928326853
 20
-20.752891042070853
 30
0.0
 10
-41.262304621905336
 20
-20.77848755805998
 30
0.0
  0
LINE
  5
5B
330
17
100
AcDbEntity
  8
visible
100
AcDbLine
 10
-40.66757805944994
 20
-20.57612668488735
 30
0.0
 11
-40.66757805944994
 21
-21.20357920859273
 31
0.0
  0
LINE
  5
5C
330
17
100
AcDbEntity
  8
visible
100
AcDbLine
 10
-40.32031243447598
 20
-21.67396044176322
 30
0.0
 11
-38.76171868459288
 21
-17.81051817256242
 31
0.0
  0
LINE
  5
5D
330
17
100
AcDbEntity
  8
visible
100
AcDbLine
 10
-39.73789055951966
 20
-21.889316421694485
 30
0.0
 11
-40.32031243447598
 21
-21.67396044176322
 31
0.0
  0
LINE
  5
5E
330
17
100
AcDbEntity
  8
visible
100
AcDbLine
 10
-38.76171868459287
 20
-17.810518172562425
 30
0.0
 11
-38.135546809639834
 21
-18.042051127511996
 31
0.0
  0
LINE
  5
5F
330
17
100
AcDbEntity
  8
visible
100
AcDbLine
 10
-39.366015559547556
 20
-20.88789029902235
 30
0.0
 11
-39.73789055951966
 21
-21.88931642169448
 31
0.0
  0
LINE
  5
60
330
17
100
AcDbEntity
  8
visible
100
AcDbLine
 10
-38.13554680963984
 20
-18.042051127511993
 30
0.0
 11
-36.57968743475653
 21
-23.05709180582879
 31
0.0
  0
LINE
  5
61
330
17
100
AcDbEntity
  8
visible
100
AcDbLine
 10
-37.52578118468557
 20
-21.568334310730044
 30
0.0
 11
-39.366015559547556
 21
-20.887890299022345
 31
0.0
  0
LINE
  5
62
330
17
100
AcDbEntity
  8
visible
100
AcDbLine
 10
-36.57968743475653
 20
-23.05709180582879
 30
0.0
 11
-37.15390618471346
 21
-22.844769008713463
 31
0.0
  0
LINE
  5
63
330
17
100
AcDbEntity
  8
visible
100
AcDbLine
 10
-37.15390618471346
 20
-22.844769008713463
 30
0.0
 11
-37.52578118468557
 21
-21.568334310730044
 31
0.0
  0
LINE
  5
64
330
17
100
AcDbEntity
  8
visible
100
AcDbLine
 10
-37.99999997465
 20
-29.885262103288948
 30
0.0
 11
-33.99999997495
 21
-31.36429981924879
 31
0.0
  0
LINE
  5
65
330
17
100
AcDbEntity
  8
visible
100
AcDbLine
 10
-37.99999997465
 20
-29.885262103288948
 30
0.0
 11
-37.99999997465
 21
-32.495328660936785
 31
0.0
  0
LINE
  5
66
330
17
100
AcDbEntity
  8
visible
100
AcDbLine
 10
-33.99999997495001
 20
-31.36429981924879
 30
0.0
 11
-33.99999997495001
 21
-33.974366376896626
 31
0.0
  0
LINE
  5
67
330
17
100
AcDbEntity
  8
visible
100
AcDbLine
 10
-37.99999997465
 20
-32.49532866093679
 30
0.0
 11
-33.99999997495
 21
-33.974366376896626
 31
0.0
  0
LINE
  5
68
330
17
100
AcDbEntity
  8
visible
100
AcDbLine
 10
-29.99999997525001
 20
-32.84333753520863
 30
0.0
 11
-25.999999975550004
 21
-34.322375251168474
 31
0.0
  0
LINE
  5
69
330
17
100
AcDbEntity
  8
visible
100
AcDbLine
 10
-29.999999975250006
 20
-32.843337535208626
 30
0.0
 11
-29.999999975250006
 21
-35.453404092856466
 31
0.0
  0
LINE
  5
6A
330
17
100
AcDbEntity
  8
visible
100
AcDbLine
 10
-25.999999975550004
 20
-34.32237525116847
 30
0.0
 11
-25.999999975550004
 21
-36.93244180881631
 31
0.0
  0
LINE
  5
6B
330
17
100
AcDbEntity
  8
visible
100
AcDbLine
 10
-29.99999997525001
 20
-35.45340409285647
 30
0.0
 11
-25.999999975550004
 21
-36.932441808816314
 31
0.0
  0
LINE
  5
6C
330
17
100
AcDbEntity
  8
visible
100
AcDbLine
 10
-21.999999975850002
 20
-35.801412967128314
 30
0.0
 11
-17.99999997615
 21
-37.280450683088155
 31
0.0
  0
LINE
  5
6D
330
17
100
AcDbEntity
  8
visible
100
AcDbLine
 10
-17.999999976150004
 20
-37.28045068308815
 30
0.0
 11
-17.999999976150004
 21
-39.89051724073599
 31
0.0
  0
LINE
  5
6E
330
17
100
AcDbEntity
  8
visible
100
AcDbLine
 10
-21.999999975850002
 20
-38.411479524776155
 30
0.0
 11
-17.99999997615
 21
-39.890517240735996
 31
0.0
  0
LINE
  5
6F
330
17
100
AcDbEntity
  8
visible
100
AcDbLine
 10
-21.999999975850002
 20
-35.80141296712831
 30
0.0
 11
-21.999999975850002
 21
-38.41147952477615
 31
0.0
  0
LINE
  5
70
330
17
100
AcDbEntity
  8
visible
100
AcDbLine
 10
-35.983593684801235
 20
-23.27750309045328
 30
0.0
 11
-35.983593684801235
 21
-18.837756086225156
 31
0.0
  0
LINE
  5
71
330
17
100
AcDbEntity
  8
visible
100
AcDbLine
 10
-35.447656184841435
 20
-23.475671034427585
 30
0.0
 11
-35.98359368480124
 21
-23.277503090453273
 31
0.0
  0
LINE
  5
72
330
17
100
AcDbEntity
  8
visible
100
AcDbLine
 10
-35.983593684801235
 20
-18.837756086225156
 30
0.0
 11
-35.160546809862964
 21
-19.142085428757127
 31
0.0
  0
LINE
  5
73
330
17
100
AcDbEntity
  8
visible
100
AcDbLine
 10
-35.447656184841435
 20
-19.577139003253386
 30
0.0
 11
-35.447656184841435
 21
-23.475671034427577
 31
0.0
  0
LINE
  5
74
330
17
100
AcDbEntity
  8
visible
100
AcDbLine
 10
-35.160546809862964
 20
-19.142085428757127
 30
0.0
 11
-34.1187499349411
 21
-22.54858762782457
 31
0.0
  0
LINE
  5
75
330
17
100
AcDbEntity
  8
visible
100
AcDbLine
 10
-34.39492180992039
 20
-23.01147511522064
 30
0.0
 11
-35.447656184841435
 21
-19.577139003253393
 31
0.0
  0
LINE
  5
76
330
17
100
AcDbEntity
  8
visible
100
AcDbLine
 10
-34.11874993494109
 20
-22.54858762782457
 30
0.0
 11
-33.07148431001964
 21
-19.914535985881464
 31
0.0
  0
LINE
  5
77
330
17
100
AcDbEntity
  8
visible
100
AcDbLine
 10
-33.83984368496202
 20
-23.216720485765457
 30
0.0
 11
-34.39492180992038
 21
-23.01147511522064
 31
0.0
  0
LINE
  5
78
330
17
100
AcDbEntity
  8
visible
100
AcDbLine
 10
-33.07148431001964
 20
-19.914535985881464
 30
0.0
 11
-32.24843743508137
 21
-20.218865328413436
 31
0.0
  0
LINE
  5
79
330
17
100
AcDbEntity
  8
visible
100
AcDbLine
 10
-32.787109310040975
 20
-20.560901296554412
 30
0.0
 11
-33.83984368496202
 21
-23.216720485765457
 31
0.0
  0
LINE
  5
7A
330
17
100
AcDbEntity
  8
visible
100
AcDbLine
 10
-32.24843743508137
 20
-20.218865328413436
 30
0.0
 11
-32.24843743508137
 21
-24.658612332641557
 31
0.0
  0
LINE
  5
7B
330
17
100
AcDbEntity
  8
visible
100
AcDbLine
 10
-32.787109310040975
 20
-24.45943332772861
 30
0.0
 11
-32.787109310040975
 21
-20.56090129655442
 31
0.0
  0
LINE
  5
7C
330
17
100
AcDbEntity
  8
visible
100
AcDbLine
 10
-32.24843743508137
 20
-24.65861233264156
 30
0.0
 11
-32.787109310040975
 21
-24.459433327728604
 31
0.0
  0
LINE
  5
7D
330
17
100
AcDbEntity
  8
visible
100
AcDbLine
 10
-30.077343685244205
 20
-23.091348929331918
 30
0.0
 11
-31.348828060148847
 21
-20.551504377227452
 31
0.0
  0
LINE
  5
7E
330
17
100
AcDbEntity
  8
visible
100
AcDbLine
 10
-31.534765560134893
 20
-24.92249923762775
 30
0.0
 11
-30.0773436852442
 21
-23.091348929331918
 31
0.0
  0
LINE
  5
7F
330
17
100
AcDbEntity
  8
visible
100
AcDbLine
 10
-31.34882806014884
 20
-20.551504377227452
 30
0.0
 11
-30.75546868519334
 21
-20.77090460091329
 31
0.0
  0
LINE
  5
80
330
17
100
AcDbEntity
  8
visible
100
AcDbLine
 10
-30.938671810179603
 20
-25.142910522252237
 30
0.0
 11
-31.534765560134897
 21
-24.922499237627754
 31
0.0
  0
LINE
  5
81
330
17
100
AcDbEntity
  8
visible
100
AcDbLine
 10
-30.755468685193335
 20
-20.77090460091329
 30
0.0
 11
-29.741015560269418
 21
-22.79641650610054
 31
0.0
  0
LINE
  5
82
330
17
100
AcDbEntity
  8
visible
100
AcDbLine
 10
-29.782031185266348
 20
-23.68228431089637
 30
0.0
 11
-30.9386718101796
 21
-25.14291052225223
 31
0.0
  0
LINE
  5
83
330
17
100
AcDbEntity
  8
visible
100
AcDbLine
 10
-29.741015560269425
 20
-22.79641650610055
 30
0.0
 11
-28.72109368534592
 21
-21.523133939264746
 31
0.0
  0
LINE
  5
84
330
17
100
AcDbEntity
  8
visible
100
AcDbLine
 10
-28.63359368535248
 20
-25.995234893529485
 30
0.0
 11
-29.782031185266348
 21
-23.682284310896378
 31
0.0
  0
LINE
  5
85
330
17
100
AcDbEntity
  8
visible
100
AcDbLine
 10
-28.72109368534592
 20
-21.523133939264746
 30
0.0
 11
-28.127734310390416
 21
-21.742534162950584
 31
0.0
  0
LINE
  5
86
330
17
100
AcDbEntity
  8
visible
100
AcDbLine
 10
-28.040234310396983
 20
-26.214635117215327
 30
0.0
 11
-28.63359368535248
 21
-25.995234893529485
 31
0.0
  0
LINE
  5
87
330
17
100
AcDbEntity
  8
visible
100
AcDbLine
 10
-28.127734310390416
 20
-21.742534162950573
 30
0.0
 11
-29.440234310291977
 21
-23.389374009542287
 31
0.0
  0
LINE
  5
88
330
17
100
AcDbEntity
  8
visible
100
AcDbLine
 10
-29.440234310291984
 20
-23.38937400954229
 30
0.0
 11
-28.040234310396983
 21
-26.214635117215323
 31
0.0
  0
LINE
  5
89
330
17
100
AcDbEntity
  8
visible
100
AcDbLine
 10
-82.64861948597421
 20
-10.530316480161307
 30
0.0
 11
-78.97998456320103
 21
-11.886828834480282
 31
0.0
  0
LINE
  5
8A
330
17
100
AcDbEntity
  8
visible
100
AcDbLine
 10
80.40000002872
 20
-23.014986917277874
 30
0.0
 11
80.40000002872
 21
4.999727468142272
 31
0.0
  0
LINE
  5
8B
330
17
100
AcDbEntity
  8
visible
100
AcDbLine
 10
34.80000002263999
 20
-52.99015128781916
 30
0.0
 11
34.80000002263999
 21
-24.975436902399014
 31
0.0
  0
LINE
  5
8C
330
17
100
AcDbEntity
  8
visible
100
AcDbLine
 10
80.40000002872
 20
-23.014986917277874
 30
0.0
 11
34.80000002264
 21
-52.99015128781916
 31
0.0
  0
LINE
  5
8D
330
17
100
AcDbEntity
  8
visible
100
AcDbLine
 10
76.380000028184
 20
-5.212012934334183
 30
0.0
 11
58.020000025735996
 21
-17.280960694052126
 31
0.0
  0
LINE
  5
8E
330
17
100
AcDbEntity
  8
visible
100
AcDbLine
 10
76.38000002818399
 20
-5.212012934334183
 30
0.0
 11
76.38000002818399
 21
-16.174292476455108
 31
0.0
  0
LINE
  5
8F
330
17
100
AcDbEntity
  8
visible
100
AcDbLine
 10
58.020000025735996
 20
-17.280960694052126
 30
0.0
 11
58.020000025735996
 21
-28.24324023617305
 31
0.0
  0
LINE
  5
90
330
17
100
AcDbEntity
  8
visible
100
AcDbLine
 10
76.380000028184
 20
-16.174292476455108
 30
0.0
 11
58.020000025735996
 21
-28.24324023617305
 31
0.0
  0
ELLIPSE
  5
91
330
17
100
AcDbEntity
  8
visible
100
AcDbEllipse
 10
44.40000002392
 20
-36.06531969993733
 30
0.0
 11
-1.0404312134839009
 21
-2.8138057662192
 31
0.0
 40
0.5220133115991697
 41
0.6162969373556088
 42
3.1415926535897936
  0
ELLIPSE
  5
92
330
17
100
AcDbEntity
  8
visible
100
AcDbEllipse
 10
44.40000002392
 20
-36.06531969993733
 30
0.0
 11
-1.0404312134839009
 21
-2.8138057662192
 31
0.0
 40
0.5220133115991697
 41
3.1415926535897936
 42
6.283185307179586
  0
ELLIPSE
  5
93
330
17
100
AcDbEntity
  8
visible
100
AcDbEllipse
 10
44.40000002392
 20
-36.06531969993733
 30
0.0
 11
-1.0404312134839009
 21
-2.8138057662192
 31
0.0
 40
0.5220133115991697
 41
0.0
 42
0.6162969373556084
  0
LINE
  5
94
330
17
100
AcDbEntity
  8
visible
100
AcDbLine
 10
-52.19999997321
 20
-24.634678211770176
 30
0.0
 11
-52.19999997321
 21
-25.395947624576056
 31
0.0
  0
LINE
  5
95
330
17
100
AcDbEntity
  8
visible
100
AcDbLine
 10
-53.99999997345001
 20
-26.579177797097426
 30
0.0
 11
-52.199999973210005
 21
-25.39594762457606
 31
0.0
  0
LINE
  5
96
330
17
100
AcDbEntity
  8
visible
100
AcDbLine
 10
-52.19999997321
 20
-25.39594762457606
 30
0.0
 11
-49.99999997375001
 21
-26.209418368215307
 31
0.0
  0
LINE
  5
97
330
17
100
AcDbEntity
  8
visible
100
AcDbLine
 10
-44.19999997381
 20
-27.592753643689854
 30
0.0
 11
-44.19999997381
 21
-28.35402305649574
 31
0.0
  0
LINE
  5
98
330
17
100
AcDbEntity
  8
visible
100
AcDbLine
 10
-45.999999974050006
 20
-29.537253229017107
 30
0.0
 11
-44.19999997381
 21
-28.35402305649574
 31
0.0
  0
LINE
  5
99
330
17
100
AcDbEntity
  8
visible
100
AcDbLine
 10
-44.19999997381
 20
-28.35402305649574
 30
0.0
 11
-41.999999974350004
 21
-29.167493800134995
 31
0.0
  0
SPLINE
  5
9A
330
17
100
AcDbEntity
  8
visible
100
AcDbSpline
 70
0
 71
2
 72
6
 73
3
 74
0
 40
0.0
 40
0.0
 40
0.0
 40
1.0
 40
1.0
 40
1.0
 10
-40.952657459278015
 20
-17.16245475614101
 30
0.0
 10
-41.246321634142575
 20
-16.935398877031194
 30
0.0
 10
-41.573593684306985
 20
-16.81438695062895
 30
0.0
  0
SPLINE
  5
9B
330
17
100
AcDbEntity
  8
visible
100
AcDbSpline
 70
0
 71
2
 72
6
 73
3
 74
0
 40
0.0
 40
0.0
 40
0.0
 40
0.8960263535634373
 40
0.8960263535634373
 40
0.8960263535634373
 10
-41.573593684306985
 20
-16.81438695062895
 30
0.0
 10
-42.20081213175434
 20
-16.582467015631448
 30
0.0
 10
-42.564591083098286
 20
-16.821597144131967
 30
0.0
  0
SPLINE
  5
9C
330
17
100
AcDbEntity
  8
visible
100
AcDbSpline
 70
0
 71
2
 72
6
 73
3
 74
0
 40
0.0
 40
0.0
 40
0.0
 40
0.9063524269400756
 40
0.9063524269400756
 40
0.9063524269400756
 10
-43.59976555915502
 20
-17.876179358773893
 30
0.0
 10
-43.59976555915502
 20
-16.90589726230936
 30
0.0
 10
-43.161752670404844
 20
-16.4701055997538
 30
0.0
  0
SPLINE
  5
9D
330
17
100
AcDbEntity
  8
visible
100
AcDbSpline
 70
0
 71
2
 72
6
 73
3
 74
0
 40
0.0
 40
0.0
 40
0.0
 40
1.0
 40
1.0
 40
1.0
 10
-43.066562434195006
 20
-19.75794218815599
 30
0.0
 10
-43.59976555915502
 20
-18.943740761665985
 30
0.0
 10
-43.59976555915502
 20
-17.876179358773893
 30
0.0
  0
SPLINE
  5
9E
330
17
100
AcDbEntity
  8
visible
100
AcDbSpline
 70
0
 71
2
 72
6
 73
3
 74
0
 40
0.0
 40
0.0
 40
0.0
 40
1.0
 40
1.0
 40
1.0
 10
-41.60640618430452
 20
-20.91489327284646
 30
0.0
 10
-42.533359309234996
 20
-20.572143614646
 30
0.0
 10
-43.066562434195006
 20
-19.75794218815599
 30
0.0
  0
SPLINE
  5
9F
330
17
100
AcDbEntity
  8
visible
100
AcDbSpline
 70
0
 71
2
 72
6
 73
3
 74
0
 40
0.0
 40
0.0
 40
0.0
 40
1.0
 40
1.0
 40
1.0
 10
-40.921445246855896
 20
-21.06111052682336
 30
0.0
 10
-41.24546868433159
 20
-21.048353316747523
 30
0.0
 10
-41.60640618430452
 20
-20.91489327284646
 30
0.0
  0
SPLINE
  5
A0
330
17
100
AcDbEntity
  8
visible
100
AcDbSpline
 70
0
 71
2
 72
6
 73
3
 74
0
 40
0.0
 40
0.0
 40
0.0
 40
1.0
 40
1.0
 40
1.0
 10
-40.66757805944994
 20
-21.052152345844938
 30
0.0
 10
-40.7917746962963
 20
-21.06621581941277
 30
0.0
 10
-40.921445246855896
 20
-21.06111052682336
 30
0.0
  0
LINE
  5
A1
330
17
100
AcDbEntity
  8
visible
100
AcDbLine
 10
-39.960312434427976
 20
-21.43731440725895
 30
0.0
 11
-38.53152444473833
 21
-17.8956346632542
 31
0.0
  0
LINE
  5
A2
330
17
100
AcDbEntity
  8
visible
100
AcDbLine
 10
-39.960312434427976
 20
-21.43731440725895
 30
0.0
 11
-40.32031243447598
 21
-21.673960441763224
 31
0.0
  0
LINE
  5
A3
330
17
100
AcDbEntity
  8
visible
100
AcDbLine
 10
-39.61715948904299
 20
-21.56419844441024
 30
0.0
 11
-39.960312434427976
 21
-21.437314407258953
 31
0.0
  0
LINE
  5
A4
330
17
100
AcDbEntity
  8
visible
100
AcDbLine
 10
-39.00601555949955
 20
-20.651244264518077
 30
0.0
 11
-39.366015559547556
 21
-20.887890299022352
 31
0.0
  0
LINE
  5
A5
330
17
100
AcDbEntity
  8
visible
100
AcDbLine
 10
-37.16578118463757
 20
-21.331688276225773
 30
0.0
 11
-39.00601555949955
 21
-20.651244264518077
 31
0.0
  0
LINE
  5
A6
330
17
100
AcDbEntity
  8
visible
100
AcDbLine
 10
-37.16578118463757
 20
-21.331688276225773
 30
0.0
 11
-37.52578118468557
 21
-21.568334310730048
 31
0.0
  0
LINE
  5
A7
330
17
100
AcDbEntity
  8
visible
100
AcDbLine
 10
-36.709265465546146
 20
-22.6394196781824
 30
0.0
 11
-36.79390618466546
 21
-22.608122974209195
 31
0.0
  0
LINE
  5
A8
330
17
100
AcDbEntity
  8
visible
100
AcDbLine
 10
-36.79390618466546
 20
-22.60812297420919
 30
0.0
 11
-37.15390618471346
 21
-22.844769008713467
 31
0.0
  0
LINE
  5
A9
330
17
100
AcDbEntity
  8
visible
100
AcDbLine
 10
-36.79390618466546
 20
-22.60812297420919
 30
0.0
 11
-37.16578118463757
 21
-21.331688276225773
 31
0.0
  0
LINE
  5
AA
330
17
100
AcDbEntity
  8
visible
100
AcDbLine
 10
-36.19999997441
 20
-30.55082907560954
 30
0.0
 11
-36.19999997441
 21
-31.312098488415423
 31
0.0
  0
LINE
  5
AB
330
17
100
AcDbEntity
  8
visible
100
AcDbLine
 10
-37.99999997465
 20
-32.495328660936785
 30
0.0
 11
-36.19999997441
 21
-31.31209848841542
 31
0.0
  0
LINE
  5
AC
330
17
100
AcDbEntity
  8
visible
100
AcDbLine
 10
-36.19999997441
 20
-31.312098488415423
 30
0.0
 11
-33.999999974950015
 21
-32.12556923205467
 31
0.0
  0
LINE
  5
AD
330
17
100
AcDbEntity
  8
visible
100
AcDbLine
 10
-28.19999997501
 20
-33.508904507529216
 30
0.0
 11
-28.19999997501
 21
-34.270173920335104
 31
0.0
  0
LINE
  5
AE
330
17
100
AcDbEntity
  8
visible
100
AcDbLine
 10
-29.999999975250002
 20
-35.453404092856466
 30
0.0
 11
-28.199999975010005
 21
-34.2701739203351
 31
0.0
  0
LINE
  5
AF
330
17
100
AcDbEntity
  8
visible
100
AcDbLine
 10
-28.199999975009998
 20
-34.27017392033511
 30
0.0
 11
-25.999999975550004
 21
-35.083644663974354
 31
0.0
  0
LINE
  5
B0
330
17
100
AcDbEntity
  8
visible
100
AcDbLine
 10
-21.99999997585
 20
-38.41147952477615
 30
0.0
 11
-20.19999997561
 21
-37.22824935225478
 31
0.0
  0
LINE
  5
B1
330
17
100
AcDbEntity
  8
visible
100
AcDbLine
 10
-20.199999975610005
 20
-37.22824935225479
 30
0.0
 11
-17.999999976150008
 21
-38.041720095894036
 31
0.0
  0
LINE
  5
B2
330
17
100
AcDbEntity
  8
visible
100
AcDbLine
 10
-20.199999975609998
 20
-36.4669799394489
 30
0.0
 11
-20.199999975609998
 21
-37.228249352254785
 31
0.0
  0
LINE
  5
B3
330
17
100
AcDbEntity
  8
visible
100
AcDbLine
 10
-35.62359368475323
 20
-23.040857055949004
 30
0.0
 11
-35.62359368475323
 21
-18.970869480689277
 31
0.0
  0
LINE
  5
B4
330
17
100
AcDbEntity
  8
visible
100
AcDbLine
 10
-35.62359368475323
 20
-23.040857055949004
 30
0.0
 11
-35.983593684801235
 21
-23.27750309045328
 31
0.0
  0
LINE
  5
B5
330
17
100
AcDbEntity
  8
visible
100
AcDbLine
 10
-35.447656184841435
 20
-23.10591160545919
 30
0.0
 11
-35.62359368475323
 21
-23.040857055949004
 31
0.0
  0
LINE
  5
B6
330
17
100
AcDbEntity
  8
visible
100
AcDbLine
 10
-35.09782445407153
 20
-19.34717708153277
 30
0.0
 11
-35.44765618484143
 21
-19.577139003253397
 31
0.0
  0
LINE
  5
B7
330
17
100
AcDbEntity
  8
visible
100
AcDbLine
 10
-33.758749934893096
 20
-22.3119415933203
 30
0.0
 11
-34.1187499349411
 21
-22.548587627824574
 31
0.0
  0
LINE
  5
B8
330
17
100
AcDbEntity
  8
visible
100
AcDbLine
 10
-34.03492180987238
 20
-22.77482908071637
 30
0.0
 11
-34.10670011155634
 21
-22.540666675268742
 31
0.0
  0
LINE
  5
B9
330
17
100
AcDbEntity
  8
visible
100
AcDbLine
 10
-34.03492180987238
 20
-22.77482908071637
 30
0.0
 11
-34.39492180992038
 21
-23.011475115220644
 31
0.0
  0
LINE
  5
BA
330
17
100
AcDbEntity
  8
visible
100
AcDbLine
 10
-33.758749934893096
 20
-22.3119415933203
 30
0.0
 11
-32.83965360128961
 21
-20.00025757637025
 31
0.0
  0
LINE
  5
BB
330
17
100
AcDbEntity
  8
visible
100
AcDbLine
 10
-33.712011653732574
 20
-22.89422815567464
 30
0.0
 11
-34.03492180987239
 21
-22.774829080716366
 31
0.0
  0
LINE
  5
BC
330
17
100
AcDbEntity
  8
visible
100
AcDbLine
 10
-32.42710930999297
 20
-20.324255262050144
 30
0.0
 11
-32.787109310040975
 21
-20.56090129655442
 31
0.0
  0
LINE
  5
BD
330
17
100
AcDbEntity
  8
visible
100
AcDbLine
 10
-32.42710930999297
 20
-24.222787293224336
 30
0.0
 11
-32.42710930999297
 21
-20.324255262050144
 31
0.0
  0
LINE
  5
BE
330
17
100
AcDbEntity
  8
visible
100
AcDbLine
 10
-32.42710930999297
 20
-24.222787293224336
 30
0.0
 11
-32.787109310040975
 21
-24.45943332772861
 31
0.0
  0
LINE
  5
BF
330
17
100
AcDbEntity
  8
visible
100
AcDbLine
 10
-32.24843743508137
 20
-24.288852903673167
 30
0.0
 11
-32.427109309992964
 21
-24.222787293224332
 31
0.0
  0
LINE
  5
C0
330
17
100
AcDbEntity
  8
visible
100
AcDbLine
 10
-29.7173436851962
 20
-22.854702894827646
 30
0.0
 11
-30.76167288772357
 21
-20.768610538528204
 31
0.0
  0
LINE
  5
C1
330
17
100
AcDbEntity
  8
visible
100
AcDbLine
 10
-29.7173436851962
 20
-22.854702894827646
 30
0.0
 11
-30.0773436852442
 21
-23.09134892933192
 31
0.0
  0
LINE
  5
C2
330
17
100
AcDbEntity
  8
visible
100
AcDbLine
 10
-31.174765560086893
 20
-24.68585320312348
 30
0.0
 11
-29.717343685196198
 21
-22.854702894827646
 31
0.0
  0
LINE
  5
C3
330
17
100
AcDbEntity
  8
visible
100
AcDbLine
 10
-31.174765560086893
 20
-24.68585320312348
 30
0.0
 11
-31.534765560134893
 21
-24.922499237627754
 31
0.0
  0
LINE
  5
C4
330
17
100
AcDbEntity
  8
visible
100
AcDbLine
 10
-30.712183621239642
 20
-24.85689723670554
 30
0.0
 11
-31.174765560086897
 21
-24.685853203123482
 31
0.0
  0
LINE
  5
C5
330
17
100
AcDbEntity
  8
visible
100
AcDbLine
 10
-29.381015560221424
 20
-22.559770471596273
 30
0.0
 11
-29.741015560269425
 21
-22.79641650610055
 31
0.0
  0
LINE
  5
C6
330
17
100
AcDbEntity
  8
visible
100
AcDbLine
 10
-29.422031185218348
 20
-23.445638276392106
 30
0.0
 11
-29.782031185266348
 21
-23.68228431089638
 31
0.0
  0
LINE
  5
C7
330
17
100
AcDbEntity
  8
visible
100
AcDbLine
 10
-29.381015560221424
 20
-22.559770471596273
 30
0.0
 11
-28.58959818976568
 21
-21.57175563862889
 31
0.0
  0
LINE
  5
C8
330
17
100
AcDbEntity
  8
visible
100
AcDbLine
 10
-28.27359368530448
 20
-25.758588859025213
 30
0.0
 11
-29.422031185218348
 21
-23.445638276392106
 31
0.0
  0
LINE
  5
C9
330
17
100
AcDbEntity
  8
visible
100
AcDbLine
 10
-28.27359368530448
 20
-25.758588859025213
 30
0.0
 11
-28.63359368535248
 21
-25.99523489352949
 31
0.0
  0
LINE
  5
CA
330
17
100
AcDbEntity
  8
visible
100
AcDbLine
 10
-28.264564207268133
 20
-25.76192759366826
 30
0.0
 11
-28.27359368530448
 21
-25.758588859025213
 31
0.0
  0
LINE
  5
CB
330
17
100
AcDbEntity
  8
visible
100
AcDbLine
 10
74.620000028316
 20
-15.523515881432775
 30
0.0
 11
76.380000028184
 21
-16.174292476455108
 31
0.0
  0
LINE
  5
CC
330
17
100
AcDbEntity
  8
visible
100
AcDbLine
 10
74.620000028316
 20
-15.523515881432775
 30
0.0
 11
74.620000028316
 21
-6.368949102780711
 31
0.0
  0
LINE
  5
CD
330
17
100
AcDbEntity
  8
visible
100
AcDbLine
 10
74.620000028316
 20
-15.523515881432775
 30
0.0
 11
58.020000025735996
 21
-26.435527472704187
 31
0.0
  0
ELLIPSE
  5
CE
330
17
100
AcDbEntity
  8
visible
100
AcDbEllipse
 10
42.000000024100004
 20
-35.17789707036142
 30
0.0
 11
-1.0404312134839009
 21
-2.8138057662192
 31
0.0
 40
0.5220133115991697
 41
0.9561352657268292
 42
2.1854573878629595
  0
ELLIPSE
  5
CF
330
17
100
AcDbEntity
  8
visible
100
AcDbEllipse
 10
2.999999537678377e-08
 20
-16.53042155555028
 30
0.0
 11
3.4
 21
0.0
 31
0.0
 40
0.49301257192087866
 41
1.7831704550615513
 42
1.8112694243243155
  0
LINE
  5
D0
330
17
100
AcDbEntity
  8
visible
100
AcDbLine
 10
5.800000022440003
 20
-19.871306743632744
 30
0.0
 11
-74.19999997156
 21
9.709447575564075
 31
0.0
  0
LINE
  5
D1
330
17
100
AcDbEntity
  8
visible
100
AcDbLine
 10
-37.33804680962465
 20
-20.76840838504139
 30
0.0
 11
-38.089999934568255
 21
-18.28090110505115
 31
0.0
  0
LINE
  5
D2
330
17
100
AcDbEntity
  8
visible
100
AcDbLine
 10
70.240000027732
 20
-17.27168045958737
 30
0.0
 11
60.640000026452
 21
-23.582241379701326
 31
0.0
  0
LINE
  5
D3
330
17
100
AcDbEntity
  8
visible
100
AcDbLine
 10
60.64000002645199
 20
-23.582241379701323
 30
0.0
 11
60.64000002645199
 21
-21.842197007936097
 31
0.0
  0
LINE
  5
D4
330
17
100
AcDbEntity
  8
visible
100
AcDbLine
 10
60.64000002645199
 20
-21.8421970079361
 30
0.0
 11
60.46000002642799
 21
-21.960520025188238
 31
0.0
  0
LINE
  5
D5
330
17
100
AcDbEntity
  8
visible
100
AcDbLine
 10
60.460000026428
 20
-15.677026459948797
 30
0.0
 11
60.460000026428
 21
-21.960520025188238
 31
0.0
  0
LINE
  5
D6
330
17
100
AcDbEntity
  8
visible
100
AcDbLine
 10
70.420000027756
 20
-9.129819505330563
 30
0.0
 11
70.420000027756
 21
-15.413313070570005
 31
0.0
  0
LINE
  5
D7
330
17
100
AcDbEntity
  8
visible
100
AcDbLine
 10
70.42000002775599
 20
-15.413313070570004
 30
0.0
 11
70.24000002773198
 21
-15.531636087822141
 31
0.0
  0
LINE
  5
D8
330
17
100
AcDbEntity
  8
visible
100
AcDbLine
 10
70.24000002773198
 20
-17.271680459587365
 30
0.0
 11
70.24000002773198
 21
-15.53163608782214
 31
0.0
  0
ELLIPSE
  5
D9
330
17
100
AcDbEntity
  8
visible
100
AcDbEllipse
 10
72.640000028052
 20
-11.343929300145817
 30
0.0
 11
-0.5548966471914135
 21
-1.5006964086502401
 31
0.0
 40
0.5220133115991696
 41
5.328685917740298
 42
6.283185307179586
  0
ELLIPSE
  5
DA
330
17
100
AcDbEntity
  8
visible
100
AcDbEllipse
 10
72.640000028052
 20
-11.343929300145817
 30
0.0
 11
-0.5548966471914135
 21
-1.5006964086502401
 31
0.0
 40
0.5220133115991696
 41
0.0
 42
3.141592653589793
  0
ELLIPSE
  5
DB
330
17
100
AcDbEntity
  8
visible
100
AcDbEllipse
 10
72.640000028052
 20
-11.343929300145817
 30
0.0
 11
-0.5548966471914135
 21
-1.5006964086502401
 31
0.0
 40
0.5220133115991696
 41
3.141592653589793
 42
5.328685917740298
  0
ELLIPSE
  5
DC
330
17
100
AcDbEntity
  8
visible
100
AcDbEllipse
 10
58.240000026131995
 20
-20.80977068031675
 30
0.0
 11
-0.5548966471914135
 21
-1.5006964086502401
 31
0.0
 40
0.5220133115991696
 41
0.3850754575058737
 42
3.141592653589793
  0
ELLIPSE
  5
DD
330
17
100
AcDbEntity
  8
visible
100
AcDbEllipse
 10
58.240000026131995
 20
-20.80977068031675
 30
0.0
 11
-0.5548966471914135
 21
-1.5006964086502401
 31
0.0
 40
0.5220133115991696
 41
3.141592653589793
 42
3.9891110707951363
  0
LINE
  5
DE
330
17
100
AcDbEntity
  8
visible
100
AcDbLine
 10
32.40000002282
 20
-17.997858971644828
 30
0.0
 11
78.0000000289
 21
11.977305398896462
 31
0.0
  0
LINE
  5
DF
330
17
100
AcDbEntity
  8
visible
100
AcDbLine
 10
-57.41882349301237
 20
3.5044493426111742
 30
0.0
 11
-34.99999996375001
 21
18.24146513634356
 31
0.0
  0
LINE
  5
E0
330
17
100
AcDbEntity
  8
visible
100
AcDbLine
 10
-6.279999962504007
 20
22.16584520771363
 30
0.0
 11
57.57882355290037
 21
-1.4465569130838674
 31
0.0
  0
ELLIPSE
  5
E1
330
17
100
AcDbEntity
  8
visible
100
AcDbEllipse
 10
-17.199999963960007
 20
14.987582161084
 30
0.0
 11
-18.2
 21
-0.0
 31
0.0
 40
0.4930125719208787
 41
-2.214297435688181
 42
-1.7030496609979173
  0
ELLIPSE
  5
E2
330
17
100
AcDbEntity
  8
visible
100
AcDbEllipse
 10
-19.299999962490006
 20
22.23486696842445
 30
0.0
 11
-4.5
 21
2.8711932246560457e-16
 31
0.0
 40
0.49301257192087866
 41
-6.283185307179586
 42
-3.141592653589793
  0
ELLIPSE
  5
E3
330
17
100
AcDbEntity
  8
visible
100
AcDbEllipse
 10
-17.199999963960007
 20
14.987582161084
 30
0.0
 11
-18.2
 21
-0.0
 31
0.0
 40
0.4930125719208787
 41
-1.1996999864105478
 42
-1.002186026537887
  0
LINE
  5
E4
330
17
100
AcDbEntity
  8
visible
100
AcDbLine
 10
-26.999999963850005
 20
15.529895990680117
 30
0.0
 11
-49.65882349359437
 21
0.6351161736490791
 31
0.0
  0
ELLIPSE
  5
E5
330
17
100
AcDbEntity
  8
visible
100
AcDbEllipse
 10
2.999999537678377e-08
 20
-14.790377183785054
 30
0.0
 11
-10.0
 21
1.5951073470311365e-16
 31
0.0
 40
0.4930125719208787
 41
-4.281729698855406
 42
-3.9028053870548254
  0
LINE
  5
E6
330
17
100
AcDbEntity
  8
visible
100
AcDbLine
 10
22.847271300167023
 20
-18.259692671109768
 30
0.0
 11
23.160000029337994
 21
-18.05412041104309
 31
0.0
  0
LINE
  5
E7
330
17
100
AcDbEntity
  8
visible
100
AcDbLine
 10
3.022333688114117
 20
-14.104430062328431
 30
0.0
 11
0.7941887923869038
 21
-13.28055247791565
 31
0.0
  0
LINE
  5
E8
330
17
100
AcDbEntity
  8
visible
100
AcDbLine
 10
0.7941887923869042
 20
-13.280552477915652
 30
0.0
 11
-3.0223336281141244
 21
-14.084288807829498
 31
0.0
  0
LINE
  5
E9
330
17
100
AcDbEntity
  8
visible
100
AcDbLine
 10
60.460000026428
 20
-21.775640310704045
 30
0.0
 11
60.64000002645199
 21
-21.8421970079361
 31
0.0
  0
LINE
  5
EA
330
17
100
AcDbEntity
  8
visible
100
AcDbLine
 10
67.840000027912
 20
-16.38425783001147
 30
0.0
 11
70.240000027732
 21
-17.271680459587373
 31
0.0
  0
LINE
  5
EB
330
17
100
AcDbEntity
  8
visible
100
AcDbLine
 10
64.12235296705033
 20
-13.269578403732734
 30
0.0
 11
70.24000002773198
 21
-15.531636087822143
 31
0.0
  0
LINE
  5
EC
330
17
100
AcDbEntity
  8
visible
100
AcDbLine
 10
65.32235296721034
 20
-12.48075828871849
 30
0.0
 11
68.020000027936
 21
-13.478238725583669
 31
0.0
  0
ELLIPSE
  5
ED
330
17
100
AcDbEntity
  8
visible
100
AcDbEllipse
 10
17.200000023959998
 20
-12.377515650997424
 30
0.0
 11
19.0
 21
0.0
 31
0.0
 40
0.4930125719208787
 41
4.068887871491405
 42
4.750758571688245
  0
ELLIPSE
  5
EE
330
17
100
AcDbEntity
  8
visible
100
AcDbEllipse
 10
-62.799999970040005
 20
17.203238668199397
 30
0.0
 11
19.0
 21
0.0
 31
0.0
 40
0.4930125719208787
 41
3.3870171712945667
 42
4.068887871491405
  0
LINE
  5
EF
330
17
100
AcDbEntity
  8
visible
100
AcDbLine
 10
-79.75999996876801
 20
23.474358583869126
 30
0.0
 11
-34.15999996268801
 21
53.44952295441041
 31
0.0
  0
ELLIPSE
  5
F0
330
17
100
AcDbEntity
  8
visible
100
AcDbEllipse
 10
-62.799999970040005
 20
17.203238668199397
 30
0.0
 11
-21.2
 21
-6.763255151412019e-16
 31
0.0
 40
0.49301257192087866
 41
-6.9266864160728705
 42
-5.355890089277974
  0
ELLIPSE
  5
F1
330
17
100
AcDbEntity
  8
visible
100
AcDbEllipse
 10
-17.199999963960007
 20
47.17840303874068
 30
0.0
 11
-21.2
 21
-0.0
 31
0.0
 40
0.49301257192087866
 41
-2.214297435688181
 42
-0.6435011088932844
  0
LINE
  5
F2
330
17
100
AcDbEntity
  8
visible
100
AcDbLine
 10
4.480000022264001
 20
-20.739008870148417
 30
0.0
 11
-75.51999997173601
 21
8.841745449048403
 31
0.0
  0
LINE
  5
F3
330
17
100
AcDbEntity
  8
visible
100
AcDbLine
 10
-4.47999996226401
 20
55.539896257891684
 30
0.0
 11
75.520000031736
 21
25.959141938694863
 31
0.0
  0
ELLIPSE
  5
F4
330
17
100
AcDbEntity
  8
visible
100
AcDbEllipse
 10
17.200000023959998
 20
-12.377515650997424
 30
0.0
 11
-21.2
 21
-0.0
 31
0.0
 40
0.49301257192087866
 41
-5.355890089277974
 42
-3.7850937624830774
  0
ELLIPSE
  5
F5
330
17
100
AcDbEntity
  8
visible
100
AcDbEllipse
 10
62.800000030039996
 20
17.597648719543862
 30
0.0
 11
-21.2
 21
-0.0
 31
0.0
 40
0.49301257192087866
 41
-3.7850937624830774
 42
-2.214297435688181
  0
LINE
  5
F6
330
17
100
AcDbEntity
  8
visible
100
AcDbLine
 10
79.760000028768
 20
11.326528803874133
 30
0.0
 11
34.160000022688
 21
-18.648635566667153
 31
0.0
  0
ELLIPSE
  5
F7
330
17
100
AcDbEntity
  8
visible
100
AcDbEllipse
 10
-77.49999997025
 20
16.16791226789028
 30
0.0
 11
1.3
 21
0.0
 31
0.0
 40
0.4930125719208787
 41
5.639684198286302
 42
6.283185307179586
  0
ELLIPSE
  5
F8
330
17
100
AcDbEntity
  8
visible
100
AcDbEllipse
 10
-77.49999997025
 20
16.16791226789028
 30
0.0
 11
1.3
 21
0.0
 31
0.0
 40
0.4930125719208787
 41
0.0
 42
3.1415926535897936
  0
ELLIPSE
  5
F9
330
17
100
AcDbEntity
  8
visible
100
AcDbEllipse
 10
-77.49999997025
 20
16.16791226789028
 30
0.0
 11
1.3
 21
0.0
 31
0.0
 40
0.4930125719208787
 41
3.1415926535897936
 42
5.639684198286302
  0
ELLIPSE
  5
FA
330
17
100
AcDbEntity
  8
visible
100
AcDbEllipse
 10
19.300000022489996
 20
-19.624800458337873
 30
0.0
 11
1.3
 21
0.0
 31
0.0
 40
0.4930125719208787
 41
5.639684198286302
 42
6.283185307179586
  0
ELLIPSE
  5
FB
330
17
100
AcDbEntity
  8
visible
100
AcDbEllipse
 10
19.300000022489996
 20
-19.624800458337873
 30
0.0
 11
1.3
 21
0.0
 31
0.0
 40
0.4930125719208787
 41
0.0
 42
3.1415926535897936
  0
ELLIPSE
  5
FC
330
17
100
AcDbEntity
  8
visible
100
AcDbEllipse
 10
19.300000022489996
 20
-19.624800458337873
 30
0.0
 11
1.3
 21
0.0
 31
0.0
 40
0.4930125719208787
 41
3.1415926535897936
 42
5.639684198286302
  0
ELLIPSE
  5
FD
330
17
100
AcDbEntity
  8
visible
100
AcDbEllipse
 10
-19.299999962490006
 20
54.42568784608113
 30
0.0
 11
1.3
 21
0.0
 31
0.0
 40
0.4930125719208787
 41
5.639684198286302
 42
6.283185307179586
  0
ELLIPSE
  5
FE
330
17
100
AcDbEntity
  8
visible
100
AcDbEllipse
 10
-19.299999962490006
 20
54.42568784608113
 30
0.0
 11
1.3
 21
0.0
 31
0.0
 40
0.4930125719208787
 41
0.0
 42
3.1415926535897936
  0
ELLIPSE
  5
FF
330
17
100
AcDbEntity
  8
visible
100
AcDbEllipse
 10
-19.299999962490006
 20
54.42568784608113
 30
0.0
 11
1.3
 21
0.0
 31
0.0
 40
0.4930125719208787
 41
3.1415926535897936
 42
5.639684198286302
  0
ELLIPSE
  5
100
330
17
100
AcDbEntity
  8
visible
100
AcDbEllipse
 10
-62.799999970040005
 20
17.203238668199397
 30
0.0
 11
19.0
 21
0.0
 31
0.0
 40
0.4930125719208787
 41
2.498091544696509
 42
3.141592653589793
  0
ELLIPSE
  5
101
330
17
100
AcDbEntity
  8
visible
100
AcDbEllipse
 10
-62.799999970040005
 20
17.203238668199397
 30
0.0
 11
19.0
 21
0.0
 31
0.0
 40
0.4930125719208787
 41
3.141592653589793
 42
3.179962244893347
  0
LINE
  5
102
330
17
100
AcDbEntity
  8
visible
100
AcDbLine
 10
-77.9999999689
 20
22.823581988846794
 30
0.0
 11
-32.39999996282
 21
52.79874635938808
 31
0.0
  0
ELLIPSE
  5
103
330
17
100
AcDbEntity
  8
visible
100
AcDbEllipse
 10
-77.49999997025
 20
16.16791226789028
 30
0.0
 11
4.5
 21
-1.4355966123280226e-16
 31
0.0
 40
0.49301257192087866
 41
3.735011745529179
 42
6.283185307179586
  0
ELLIPSE
  5
104
330
17
100
AcDbEntity
  8
visible
100
AcDbEllipse
 10
-77.49999997025
 20
16.16791226789028
 30
0.0
 11
4.5
 21
-1.4355966123280226e-16
 31
0.0
 40
0.49301257192087866
 41
4.440892098500626e-16
 42
2.8319676706587344
  0
ELLIPSE
  5
105
330
17
100
AcDbEntity
  8
visible
100
AcDbEllipse
 10
-17.199999963960007
 20
47.17840303874068
 30
0.0
 11
19.0
 21
0.0
 31
0.0
 40
0.4930125719208787
 41
1.816220844499668
 42
2.498091544696509
  0
ELLIPSE
  5
106
330
17
100
AcDbEntity
  8
visible
100
AcDbEllipse
 10
-19.299999962490006
 20
54.42568784608113
 30
0.0
 11
4.5
 21
0.0
 31
0.0
 40
0.4930125719208788
 41
2.1642154187342753
 42
3.1415926535897936
  0
ELLIPSE
  5
107
330
17
100
AcDbEntity
  8
visible
100
AcDbEllipse
 10
-19.299999962490006
 20
54.42568784608113
 30
0.0
 11
4.5
 21
0.0
 31
0.0
 40
0.4930125719208788
 41
3.1415926535897936
 42
6.283185307179586
  0
ELLIPSE
  5
108
330
17
100
AcDbEntity
  8
visible
100
AcDbEllipse
 10
-19.299999962490006
 20
54.42568784608113
 30
0.0
 11
4.5
 21
0.0
 31
0.0
 40
0.4930125719208788
 41
0.0
 42
1.2611713438638477
  0
ELLIPSE
  5
109
330
17
100
AcDbEntity
  8
visible
100
AcDbEllipse
 10
-17.199999963960007
 20
47.17840303874068
 30
0.0
 11
19.0
 21
0.0
 31
0.0
 40
0.4930125719208787
 41
0.9272952179016123
 42
1.6091659180984532
  0
LINE
  5
10A
330
17
100
AcDbEntity
  8
visible
100
AcDbLine
 10
74.20000003156
 20
25.09143981217919
 30
0.0
 11
-5.799999962440008
 21
54.67219413137601
 31
0.0
  0
ELLIPSE
  5
10B
330
17
100
AcDbEntity
  8
visible
100
AcDbEllipse
 10
19.300000022489996
 20
-19.624800458337873
 30
0.0
 11
4.5
 21
-1.4355966123280226e-16
 31
0.0
 40
0.49301257192087866
 41
5.305808072324078
 42
6.283185307179586
  0
ELLIPSE
  5
10C
330
17
100
AcDbEntity
  8
visible
100
AcDbEllipse
 10
19.300000022489996
 20
-19.624800458337873
 30
0.0
 11
4.5
 21
-1.4355966123280226e-16
 31
0.0
 40
0.49301257192087866
 41
1.1102230246251565e-16
 42
3.1415926535897944
  0
ELLIPSE
  5
10D
330
17
100
AcDbEntity
  8
visible
100
AcDbEllipse
 10
19.300000022489996
 20
-19.624800458337873
 30
0.0
 11
4.5
 21
-1.4355966123280226e-16
 31
0.0
 40
0.49301257192087866
 41
3.1415926535897944
 42
4.4027639974536354
  0
ELLIPSE
  5
10E
330
17
100
AcDbEntity
  8
visible
100
AcDbEllipse
 10
62.800000030039996
 20
17.597648719543862
 30
0.0
 11
19.0
 21
0.0
 31
0.0
 40
0.4930125719208787
 41
0.2454245177047737
 42
0.9272952179016122
  0
ELLIPSE
  5
10F
330
17
100
AcDbEntity
  8
visible
100
AcDbEllipse
 10
17.200000023959998
 20
-12.377515650997424
 30
0.0
 11
19.0
 21
0.0
 31
0.0
 40
0.4930125719208787
 41
4.957813498089464
 42
5.639684198286302
  0
ELLIPSE
  5
110
330
17
100
AcDbEntity
  8
visible
100
AcDbEllipse
 10
77.50000003024999
 20
18.63297511985298
 30
0.0
 11
4.5
 21
0.0
 31
0.0
 40
0.49301257192087866
 41
0.5934190919393861
 42
3.141592653589793
  0
ELLIPSE
  5
111
330
17
100
AcDbEntity
  8
visible
100
AcDbEllipse
 10
77.50000003024999
 20
18.63297511985298
 30
0.0
 11
4.5
 21
0.0
 31
0.0
 40
0.49301257192087866
 41
3.141592653589793
 42
5.973560324248528
  0
ELLIPSE
  5
112
330
17
100
AcDbEntity
  8
visible
100
AcDbEllipse
 10
62.800000030039996
 20
17.597648719543862
 30
0.0
 11
19.0
 21
0.0
 31
0.0
 40
0.4930125719208787
 41
5.639684198286302
 42
6.283185307179586
  0
ELLIPSE
  5
113
330
17
100
AcDbEntity
  8
visible
100
AcDbEllipse
 10
62.800000030039996
 20
17.597648719543862
 30
0.0
 11
19.0
 21
0.0
 31
0.0
 40
0.4930125719208787
 41
0.0
 42
0.03836959130355411
  0
ELLIPSE
  5
114
330
17
100
AcDbEntity
  8
visible
100
AcDbEllipse
 10
77.50000003024999
 20
18.63297511985298
 30
0.0
 11
1.3
 21
0.0
 31
0.0
 40
0.4930125719208787
 41
5.639684198286302
 42
6.283185307179586
  0
ELLIPSE
  5
115
330
17
100
AcDbEntity
  8
visible
100
AcDbEllipse
 10
77.50000003024999
 20
18.63297511985298
 30
0.0
 11
1.3
 21
0.0
 31
0.0
 40
0.4930125719208787
 41
0.0
 42
3.1415926535897936
  0
ELLIPSE
  5
116
330
17
100
AcDbEntity
  8
visible
100
AcDbEllipse
 10
77.50000003024999
 20
18.63297511985298
 30
0.0
 11
1.3
 21
0.0
 31
0.0
 40
0.4930125719208787
 41
3.1415926535897936
 42
5.639684198286302
  0
LINE
  5
117
330
17
100
AcDbEntity
  8
visible
100
AcDbLine
 10
-38.089999934568255
 20
-18.28090110505115
 30
0.0
 11
-38.44999993461626
 21
-18.517547139555425
 31
0.0
  0
LINE
  5
118
330
17
100
AcDbEntity
  8
visible
100
AcDbLine
 10
-37.698046809672654
 20
-21.005054419545665
 30
0.0
 11
-38.44999993461625
 21
-18.517547139555425
 31
0.0
  0
LINE
  5
119
330
17
100
AcDbEntity
  8
visible
100
AcDbLine
 10
-37.33804680962465
 20
-20.76840838504139
 30
0.0
 11
-37.698046809672654
 21
-21.005054419545665
 31
0.0
  0
LINE
  5
11A
330
17
100
AcDbEntity
  8
visible
100
AcDbLine
 10
-38.449999934616244
 20
-18.517547139555422
 30
0.0
 11
-39.19921868456006
 21
-20.449981964229877
 31
0.0
  0
LINE
  5
11B
330
17
100
AcDbEntity
  8
visible
100
AcDbLine
 10
-39.199218684560066
 20
-20.449981964229877
 30
0.0
 11
-37.698046809672654
 21
-21.005054419545665
 31
0.0
  0
LINE
  5
11C
330
17
100
AcDbEntity
  8
visible
100
AcDbLine
 10
67.840000027912
 20
-16.384257830011475
 30
0.0
 11
60.460000026428
 21
-21.235501537677756
 31
0.0
  0
LINE
  5
11D
330
17
100
AcDbEntity
  8
visible
100
AcDbLine
 10
70.42000002775599
 20
-15.413313070570009
 30
0.0
 11
68.02000002793599
 21
-14.525890440994106
 31
0.0
  0
LINE
  5
11E
330
17
100
AcDbEntity
  8
visible
100
AcDbLine
 10
68.020000027936
 20
-10.707459735030376
 30
0.0
 11
68.020000027936
 21
-14.52589044099411
 31
0.0
  0
LINE
  5
11F
330
17
100
AcDbEntity
  8
visible
100
AcDbLine
 10
81.78601560325254
 20
17.23831977661417
 30
0.0
 11
81.78601560325254
 21
17.956977662473566
 31
0.0
  0
ELLIPSE
  5
120
330
17
100
AcDbEntity
  8
visible
100
AcDbEllipse
 10
62.800000030039996
 20
12.551520041424709
 30
0.0
 11
22.0
 21
0.0
 31
0.0
 40
0.49301257192087866
 41
5.639684198286302
 42
6.283185307179586
  0
LINE
  5
121
330
17
100
AcDbEntity
  8
visible
100
AcDbLine
 10
80.40000002872
 20
6.043754091201414
 30
0.0
 11
34.80000002264
 21
-23.93141027933988
 31
0.0
  0
ELLIPSE
  5
122
330
17
100
AcDbEntity
  8
visible
100
AcDbEllipse
 10
17.200000023959998
 20
-17.423644329116577
 30
0.0
 11
22.0
 21
0.0
 31
0.0
 40
0.49301257192087866
 41
4.068887871491405
 42
5.639684198286302
  0
LINE
  5
123
330
17
100
AcDbEntity
  8
visible
100
AcDbLine
 10
-75.99999997180001
 20
3.480088724923556
 30
0.0
 11
4.000000022199998
 21
-26.100665594273266
 31
0.0
  0
ELLIPSE
  5
124
330
17
100
AcDbEntity
  8
visible
100
AcDbEllipse
 10
-62.799999970040005
 20
12.157109990080244
 30
0.0
 11
22.0
 21
0.0
 31
0.0
 40
0.49301257192087866
 41
3.141592653589793
 42
4.068887871491405
  0
LINE
  5
125
330
17
100
AcDbEntity
  8
visible
100
AcDbLine
 10
-66.59999996913001
 20
6.899275914131106
 30
0.0
 11
-66.59999996913001
 21
17.339542143453674
 31
0.0
  0
LINE
  5
126
330
17
100
AcDbEntity
  8
visible
100
AcDbLine
 10
-68.519999968986
 20
18.049480247114396
 30
0.0
 11
-66.59999996913
 21
17.339542143453674
 31
0.0
  0
LINE
  5
127
330
17
100
AcDbEntity
  8
visible
100
AcDbLine
 10
-68.51999996898601
 20
18.049480247114396
 30
0.0
 11
-68.51999996898601
 21
7.609214017791828
 31
0.0
  0
LINE
  5
128
330
17
100
AcDbEntity
  8
visible
100
AcDbLine
 10
-70.27999996885401
 20
18.700256842136728
 30
0.0
 11
-70.27999996885401
 21
8.25999061281416
 31
0.0
  0
LINE
  5
129
330
17
100
AcDbEntity
  8
visible
100
AcDbLine
 10
-72.19999996871
 20
19.41019494579745
 30
0.0
 11
-70.279999968854
 21
18.700256842136728
 31
0.0
  0
LINE
  5
12A
330
17
100
AcDbEntity
  8
visible
100
AcDbLine
 10
-72.19999996871
 20
8.969928716474879
 30
0.0
 11
-72.19999996871
 21
19.41019494579745
 31
0.0
  0
LINE
  5
12B
330
17
100
AcDbEntity
  8
visible
100
AcDbLine
 10
-34.99999996375001
 20
17.76295293476063
 30
0.0
 11
-34.99999996375001
 21
43.863618511239025
 31
0.0
  0
LINE
  5
12C
330
17
100
AcDbEntity
  8
visible
100
AcDbLine
 10
-56.95294114060439
 20
3.3321849499953817
 30
0.0
 11
-34.99999996375
 21
17.76295293476063
 31
0.0
  0
LINE
  5
12D
330
17
100
AcDbEntity
  8
visible
100
AcDbLine
 10
-72.19999996871
 20
19.41019494579745
 30
0.0
 11
-69.79999996839
 21
20.98783517582594
 31
0.0
  0
LINE
  5
12E
330
17
100
AcDbEntity
  8
visible
100
AcDbLine
 10
-34.99999996375001
 20
43.863618511239025
 30
0.0
 11
-32.59999996343001
 21
45.44125874126751
 31
0.0
  0
LINE
  5
12F
330
17
100
AcDbEntity
  8
visible
100
AcDbLine
 10
-26.999999963850005
 20
15.529895990680117
 30
0.0
 11
-26.999999963850005
 21
43.37060593892374
 31
0.0
  0
LINE
  5
130
330
17
100
AcDbEntity
  8
visible
100
AcDbLine
 10
-28.919999963706005
 20
44.080544042584464
 30
0.0
 11
-26.99999996385001
 21
43.37060593892374
 31
0.0
  0
LINE
  5
131
330
17
100
AcDbEntity
  8
visible
100
AcDbLine
 10
-30.67999996357401
 20
44.731320637606785
 30
0.0
 11
-30.67999996357401
 21
42.92360787413793
 31
0.0
  0
LINE
  5
132
330
17
100
AcDbEntity
  8
visible
100
AcDbLine
 10
-32.59999996343001
 20
45.44125874126752
 30
0.0
 11
-30.67999996357401
 21
44.73132063760679
 31
0.0
  0
LINE
  5
133
330
17
100
AcDbEntity
  8
visible
100
AcDbLine
 10
-66.59999996913001
 20
17.339542143453677
 30
0.0
 11
-64.19999996881
 21
18.917182373482166
 31
0.0
  0
LINE
  5
134
330
17
100
AcDbEntity
  8
visible
100
AcDbLine
 10
-29.399999964170007
 20
41.79296570889525
 30
0.0
 11
-26.99999996385001
 21
43.37060593892374
 31
0.0
  0
LINE
  5
135
330
17
100
AcDbEntity
  8
visible
100
AcDbLine
 10
-29.399999964170007
 20
15.692300132416857
 30
0.0
 11
-29.399999964170007
 21
41.79296570889525
 31
0.0
  0
LINE
  5
136
330
17
100
AcDbEntity
  8
visible
100
AcDbLine
 10
-51.352941141024395
 20
1.2615321476516055
 30
0.0
 11
-29.399999964170007
 21
15.692300132416854
 31
0.0
  0
LINE
  5
137
330
17
100
AcDbEntity
  8
visible
100
AcDbLine
 10
-64.19999996881
 20
6.011853284370316
 30
0.0
 11
-64.19999996881
 21
18.917182373482163
 31
0.0
  0
LINE
  5
138
330
17
100
AcDbEntity
  8
visible
100
AcDbLine
 10
-15.159999969938006
 20
-12.12114911424022
 30
0.0
 11
-15.159999969938006
 21
14.487029401444314
 31
0.0
  0
LINE
  5
139
330
17
100
AcDbEntity
  8
visible
100
AcDbLine
 10
-15.159999969938006
 20
14.48702940144431
 30
0.0
 11
-4.839999968562006
 21
21.27088239056681
 31
0.0
  0
LINE
  5
13A
330
17
100
AcDbEntity
  8
visible
100
AcDbLine
 10
0.7600000310179951
 20
-6.742430418071833
 30
0.0
 11
0.7600000310179951
 21
19.20022958822304
 31
0.0
  0
LINE
  5
13B
330
17
100
AcDbEntity
  8
visible
100
AcDbLine
 10
-4.839999968562005
 20
21.27088239056681
 30
0.0
 11
0.7600000310179951
 21
19.200229588223035
 31
0.0
  0
LINE
  5
13C
330
17
100
AcDbEntity
  8
visible
100
AcDbLine
 10
-0.5299999691540052
 20
18.352247964582723
 30
0.0
 11
0.7600000310179951
 21
19.200229588223035
 31
0.0
  0
LINE
  5
13D
330
17
100
AcDbEntity
  8
visible
100
AcDbLine
 10
0.6109879575451469
 20
-6.7373824332569825
 30
0.0
 11
-0.5299999691540043
 21
-7.487410956130885
 31
0.0
  0
LINE
  5
13E
330
17
100
AcDbEntity
  8
visible
100
AcDbLine
 10
-0.5299999691540056
 20
-7.487410956130885
 30
0.0
 11
-0.5299999691540056
 21
18.352247964582723
 31
0.0
  0
ELLIPSE
  5
13F
330
17
100
AcDbEntity
  8
visible
100
AcDbEllipse
 10
2.999999537678377e-08
 20
-11.658297314607648
 30
0.0
 11
-10.0
 21
-3.987768367577841e-17
 31
0.0
 40
0.4930125719208788
 41
-2.3803799201247613
 42
-1.6319331978194376
  0
ELLIPSE
  5
140
330
17
100
AcDbEntity
  8
visible
100
AcDbEllipse
 10
2.999999537678377e-08
 20
-11.658297314607648
 30
0.0
 11
-10.0
 21
-3.987768367577841e-17
 31
0.0
 40
0.4930125719208788
 41
-5.180771484652579
 42
-3.9028053870548245
  0
ELLIPSE
  5
141
330
17
100
AcDbEntity
  8
visible
100
AcDbEllipse
 10
2.999999537678377e-08
 20
-11.658297314607648
 30
0.0
 11
-10.0
 21
-3.987768367577841e-17
 31
0.0
 40
0.4930125719208788
 41
-5.938254327146717
 42
-5.5310086939033685
  0
LINE
  5
142
330
17
100
AcDbEntity
  8
visible
100
AcDbLine
 10
-9.410987896885157
 20
-14.246900535788058
 30
0.0
 11
-9.410987896885157
 21
-13.325329220846665
 31
0.0
  0
LINE
  5
143
330
17
100
AcDbEntity
  8
visible
100
AcDbLine
 10
-9.559999970358005
 20
12.416376599100534
 30
0.0
 11
-8.269999970186005
 21
13.264358222740848
 31
0.0
  0
LINE
  5
144
330
17
100
AcDbEntity
  8
visible
100
AcDbLine
 10
-8.269999970186005
 20
-12.57530069797276
 30
0.0
 11
-8.269999970186005
 21
13.26435822274085
 31
0.0
  0
LINE
  5
145
330
17
100
AcDbEntity
  8
visible
100
AcDbLine
 10
-8.269999970186005
 20
-12.57530069797276
 30
0.0
 11
-9.410987896885155
 21
-13.325329220846665
 31
0.0
  0
LINE
  5
146
330
17
100
AcDbEntity
  8
visible
100
AcDbLine
 10
-9.559999970358005
 20
-14.191801916583996
 30
0.0
 11
-9.559999970358005
 21
12.416376599100538
 31
0.0
  0
LINE
  5
147
330
17
100
AcDbEntity
  8
visible
100
AcDbLine
 10
-15.159999969938006
 20
14.48702940144431
 30
0.0
 11
-9.559999970358007
 21
12.416376599100532
 31
0.0
  0
LINE
  5
148
330
17
100
AcDbEntity
  8
visible
100
AcDbLine
 10
7.2400000283819965
 20
6.204418192069198
 30
0.0
 11
8.530000028553996
 21
7.052399815709511
 31
0.0
  0
LINE
  5
149
330
17
100
AcDbEntity
  8
visible
100
AcDbLine
 10
7.2400000283819965
 20
-20.354550476973593
 30
0.0
 11
7.2400000283819965
 21
6.204418192069202
 31
0.0
  0
LINE
  5
14A
330
17
100
AcDbEntity
  8
visible
100
AcDbLine
 10
9.610000028472996
 20
6.653059632400357
 30
0.0
 11
8.530000028553998
 21
7.052399815709513
 31
0.0
  0
LINE
  5
14B
330
17
100
AcDbEntity
  8
visible
100
AcDbLine
 10
9.610000028472996
 20
6.653059632400356
 30
0.0
 11
17.350000029504997
 21
11.74094937424223
 31
0.0
  0
LINE
  5
14C
330
17
100
AcDbEntity
  8
visible
100
AcDbLine
 10
17.350000029504994
 20
11.74094937424223
 30
0.0
 11
16.270000029585997
 21
12.140289557551387
 31
0.0
  0
LINE
  5
14D
330
17
100
AcDbEntity
  8
visible
100
AcDbLine
 10
16.270000029585997
 20
11.031011270877322
 30
0.0
 11
16.270000029585997
 21
12.140289557551391
 31
0.0
  0
LINE
  5
14E
330
17
100
AcDbEntity
  8
visible
100
AcDbLine
 10
16.270000029585997
 20
12.140289557551387
 30
0.0
 11
17.560000029757997
 21
12.988271181191699
 31
0.0
  0
LINE
  5
14F
330
17
100
AcDbEntity
  8
visible
100
AcDbLine
 10
23.160000029337997
 20
-18.05412041104309
 30
0.0
 11
23.160000029337997
 21
10.917618378847926
 31
0.0
  0
LINE
  5
150
330
17
100
AcDbEntity
  8
visible
100
AcDbLine
 10
17.560000029757997
 20
12.988271181191703
 30
0.0
 11
23.160000029337997
 21
10.917618378847925
 31
0.0
  0
LINE
  5
151
330
17
100
AcDbEntity
  8
visible
100
AcDbLine
 10
12.840000027961995
 20
-21.494788493010955
 30
0.0
 11
12.840000027961995
 21
4.133765389725426
 31
0.0
  0
LINE
  5
152
330
17
100
AcDbEntity
  8
visible
100
AcDbLine
 10
12.840000027961995
 20
4.133765389725426
 30
0.0
 11
23.160000029337994
 21
10.917618378847926
 31
0.0
  0
LINE
  5
153
330
17
100
AcDbEntity
  8
visible
100
AcDbLine
 10
7.2400000283819965
 20
6.204418192069198
 30
0.0
 11
12.840000027961997
 21
4.13376538972542
 31
0.0
  0
LINE
  5
154
330
17
100
AcDbEntity
  8
visible
100
AcDbLine
 10
6.105811268533089
 20
-10.372450730910373
 30
0.0
 11
5.311622506146181
 21
-13.622319808545003
 31
0.0
  0
LINE
  5
155
330
17
100
AcDbEntity
  8
visible
100
AcDbLine
 10
5.311622506146182
 20
-13.622319808545003
 30
0.0
 11
-0.7941887323869112
 21
-14.90816639224228
 31
0.0
  0
LINE
  5
156
330
17
100
AcDbEntity
  8
visible
100
AcDbLine
 10
0.7941887923869042
 20
-13.280552477915652
 30
0.0
 11
0.7941887923869042
 21
-8.40842823697302
 31
0.0
  0
LINE
  5
157
330
17
100
AcDbEntity
  8
visible
100
AcDbLine
 10
0.7941887923869042
 20
-8.40842823697302
 30
0.0
 11
6.105811268533088
 21
-10.372450730910375
 31
0.0
  0
LINE
  5
158
330
17
100
AcDbEntity
  8
visible
100
AcDbLine
 10
-0.7941887323869095
 20
-14.90816639224228
 30
0.0
 11
-6.105811208533099
 21
-12.944143898304922
 31
0.0
  0
LINE
  5
159
330
17
100
AcDbEntity
  8
visible
100
AcDbLine
 10
-5.311622446146189
 20
-13.237802681617374
 30
0.0
 11
-5.311622446146189
 21
-9.694274820670294
 31
0.0
  0
LINE
  5
15A
330
17
100
AcDbEntity
  8
visible
100
AcDbLine
 10
-5.31162244614619
 20
-9.694274820670294
 30
0.0
 11
0.7941887923869044
 21
-8.408428236973018
 31
0.0
  0
LINE
  5
15B
330
17
100
AcDbEntity
  8
visible
100
AcDbLine
 10
-6.105811208533099
 20
-12.944143898304922
 30
0.0
 11
-5.31162244614619
 21
-9.694274820670294
 31
0.0
  0
LINE
  5
15C
330
17
100
AcDbEntity
  8
visible
100
AcDbLine
 10
-66.11999996866601
 20
19.62712047714288
 30
0.0
 11
-64.19999996881
 21
18.91718237348216
 31
0.0
  0
LINE
  5
15D
330
17
100
AcDbEntity
  8
visible
100
AcDbLine
 10
-68.519999968986
 20
18.049480247114396
 30
0.0
 11
-66.119999968666
 21
19.627120477142885
 31
0.0
  0
LINE
  5
15E
330
17
100
AcDbEntity
  8
visible
100
AcDbLine
 10
-31.319999964026003
 20
16.40223823607758
 30
0.0
 11
-29.399999964170007
 21
15.692300132416856
 31
0.0
  0
LINE
  5
15F
330
17
100
AcDbEntity
  8
visible
100
AcDbLine
 10
-31.31999996402601
 20
18.209950999546432
 30
0.0
 11
-33.07999996389401
 21
17.053014831099905
 31
0.0
  0
LINE
  5
160
330
17
100
AcDbEntity
  8
visible
100
AcDbLine
 10
-34.99999996375001
 20
17.762952934760634
 30
0.0
 11
-33.07999996389401
 21
17.05301483109991
 31
0.0
  0
LINE
  5
161
330
17
100
AcDbEntity
  8
visible
100
AcDbLine
 10
-67.87999996853401
 20
20.277897072165214
 30
0.0
 11
-67.87999996853401
 21
18.470184308696346
 31
0.0
  0
LINE
  5
162
330
17
100
AcDbEntity
  8
visible
100
AcDbLine
 10
-70.279999968854
 20
18.700256842136724
 30
0.0
 11
-67.879999968534
 21
20.277897072165214
 31
0.0
  0
LINE
  5
163
330
17
100
AcDbEntity
  8
visible
100
AcDbLine
 10
-69.79999996839001
 20
20.987835175825936
 30
0.0
 11
-67.87999996853401
 21
20.277897072165214
 31
0.0
  0
LINE
  5
164
330
17
100
AcDbEntity
  8
visible
100
AcDbLine
 10
-33.07999996389401
 20
43.15368040757831
 30
0.0
 11
-33.07999996389401
 21
17.05301483109991
 31
0.0
  0
LINE
  5
165
330
17
100
AcDbEntity
  8
visible
100
AcDbLine
 10
-34.99999996375001
 20
43.863618511239025
 30
0.0
 11
-33.07999996389401
 21
43.1536804075783
 31
0.0
  0
LINE
  5
166
330
17
100
AcDbEntity
  8
visible
100
AcDbLine
 10
-33.07999996389401
 20
43.15368040757831
 30
0.0
 11
-30.679999963574012
 21
44.7313206376068
 31
0.0
  0
LINE
  5
167
330
17
100
AcDbEntity
  8
visible
100
AcDbLine
 10
-31.319999964026003
 20
42.50290381255597
 30
0.0
 11
-29.399999964170007
 21
41.792965708895245
 31
0.0
  0
LINE
  5
168
330
17
100
AcDbEntity
  8
visible
100
AcDbLine
 10
-31.31999996402601
 20
42.50290381255597
 30
0.0
 11
-28.91999996370601
 21
44.080544042584464
 31
0.0
  0
LINE
  5
169
330
17
100
AcDbEntity
  8
visible
100
AcDbLine
 10
-31.31999996402601
 20
42.50290381255597
 30
0.0
 11
-31.31999996402601
 21
16.402238236077583
 31
0.0
  0
LINE
  5
16A
330
17
100
AcDbEntity
  8
visible
100
AcDbLine
 10
-0.5299999691540056
 20
18.352247964582723
 30
0.0
 11
-1.6099999690730051
 21
18.75158814789188
 31
0.0
  0
LINE
  5
16B
330
17
100
AcDbEntity
  8
visible
100
AcDbLine
 10
-9.349999970105005
 20
13.663698406050004
 30
0.0
 11
-1.6099999690730051
 21
18.75158814789188
 31
0.0
  0
LINE
  5
16C
330
17
100
AcDbEntity
  8
visible
100
AcDbLine
 10
-8.269999970186003
 20
13.264358222740846
 30
0.0
 11
-9.349999970105003
 21
13.663698406050003
 31
0.0
  0
ELLIPSE
  5
16D
330
17
100
AcDbEntity
  8
visible
100
AcDbEllipse
 10
-7.199999969460005
 20
16.84362949483367
 30
0.0
 11
1.05
 21
0.0
 31
0.0
 40
0.49301257192087866
 41
5.639684198286302
 42
6.283185307179586
  0
ELLIPSE
  5
16E
330
17
100
AcDbEntity
  8
visible
100
AcDbEllipse
 10
-7.199999969460005
 20
16.84362949483367
 30
0.0
 11
1.05
 21
0.0
 31
0.0
 40
0.49301257192087866
 41
0.0
 42
3.1415926535897936
  0
ELLIPSE
  5
16F
330
17
100
AcDbEntity
  8
visible
100
AcDbEllipse
 10
-7.199999969460005
 20
16.84362949483367
 30
0.0
 11
1.05
 21
0.0
 31
0.0
 40
0.49301257192087866
 41
3.1415926535897936
 42
5.639684198286302
  0
LINE
  5
170
330
17
100
AcDbEntity
  8
visible
100
AcDbLine
 10
-1.6099999690730051
 20
-7.0880707728217285
 30
0.0
 11
-8.269999970186005
 21
-11.466022411298688
 31
0.0
  0
LINE
  5
171
330
17
100
AcDbEntity
  8
visible
100
AcDbLine
 10
-1.6099999690730056
 20
-7.0880707728217285
 30
0.0
 11
-0.5299999691540056
 21
-7.487410956130885
 31
0.0
  0
ELLIPSE
  5
172
330
17
100
AcDbEntity
  8
visible
100
AcDbEllipse
 10
-4.379999970584004
 20
-14.53749073440964
 30
0.0
 11
0.9
 21
0.0
 31
0.0
 40
0.49301257192087866
 41
5.639684198286302
 42
6.283185307179586
  0
ELLIPSE
  5
173
330
17
100
AcDbEntity
  8
visible
100
AcDbEllipse
 10
-4.379999970584004
 20
-14.53749073440964
 30
0.0
 11
0.9
 21
0.0
 31
0.0
 40
0.49301257192087866
 41
0.0
 42
3.1415926535897936
  0
ELLIPSE
  5
174
330
17
100
AcDbEntity
  8
visible
100
AcDbEllipse
 10
-4.379999970584004
 20
-14.53749073440964
 30
0.0
 11
0.9
 21
0.0
 31
0.0
 40
0.49301257192087866
 41
3.1415926535897936
 42
5.639684198286302
  0
ELLIPSE
  5
175
330
17
100
AcDbEntity
  8
visible
100
AcDbEllipse
 10
4.380000030583995
 20
-8.779103894805656
 30
0.0
 11
0.9
 21
0.0
 31
0.0
 40
0.49301257192087866
 41
5.639684198286302
 42
6.283185307179586
  0
ELLIPSE
  5
176
330
17
100
AcDbEntity
  8
visible
100
AcDbEllipse
 10
4.380000030583995
 20
-8.779103894805656
 30
0.0
 11
0.9
 21
0.0
 31
0.0
 40
0.49301257192087866
 41
0.0
 42
3.1415926535897936
  0
ELLIPSE
  5
177
330
17
100
AcDbEntity
  8
visible
100
AcDbEllipse
 10
4.380000030583995
 20
-8.779103894805656
 30
0.0
 11
0.9
 21
0.0
 31
0.0
 40
0.49301257192087866
 41
3.1415926535897936
 42
5.639684198286302
  0
LINE
  5
178
330
17
100
AcDbEntity
  8
visible
100
AcDbLine
 10
-1.6099999690730056
 20
-7.0880707728217285
 30
0.0
 11
-1.6099999690730056
 21
18.75158814789188
 31
0.0
  0
ELLIPSE
  5
179
330
17
100
AcDbEntity
  8
visible
100
AcDbEllipse
 10
15.200000028859996
 20
8.561018285458562
 30
0.0
 11
1.05
 21
0.0
 31
0.0
 40
0.49301257192087866
 41
5.639684198286302
 42
6.283185307179586
  0
ELLIPSE
  5
17A
330
17
100
AcDbEntity
  8
visible
100
AcDbEllipse
 10
15.200000028859996
 20
8.561018285458562
 30
0.0
 11
1.05
 21
0.0
 31
0.0
 40
0.49301257192087866
 41
0.0
 42
3.1415926535897936
  0
ELLIPSE
  5
17B
330
17
100
AcDbEntity
  8
visible
100
AcDbEllipse
 10
15.200000028859996
 20
8.561018285458562
 30
0.0
 11
1.05
 21
0.0
 31
0.0
 40
0.49301257192087866
 41
3.1415926535897936
 42
5.639684198286302
  0
ELLIPSE
  5
17C
330
17
100
AcDbEntity
  8
visible
100
AcDbEllipse
 10
-62.799999970040005
 20
-16.901631018399037
 30
0.0
 11
-22.0
 21
-7.018472326937001e-16
 31
0.0
 40
0.49301257192087866
 41
-6.283185307179586
 42
-5.355890089277974
  0
LINE
  5
17D
330
17
100
AcDbEntity
  8
visible
100
AcDbLine
 10
-75.99999997180001
 20
-25.578652283555726
 30
0.0
 11
-75.99999997180001
 21
2.436062101864419
 31
0.0
  0
ELLIPSE
  5
17E
330
17
100
AcDbEntity
  8
visible
100
AcDbEllipse
 10
-75.51999997173601
 20
-25.26312423755003
 30
0.0
 11
-0.27744832359570704
 21
-0.75034820432512
 31
0.0
 40
0.5220133115991696
 41
5.328685917740298
 42
6.283185307179586
  0
LINE
  5
17F
330
17
100
AcDbEntity
  8
visible
100
AcDbLine
 10
4.000000022199998
 20
-55.15940660275255
 30
0.0
 11
-75.99999997180001
 21
-25.578652283555726
 31
0.0
  0
LINE
  5
180
330
17
100
AcDbEntity
  8
visible
100
AcDbLine
 10
4.000000022199998
 20
-55.15940660275255
 30
0.0
 11
4.000000022199998
 21
-27.144692217332402
 31
0.0
  0
ELLIPSE
  5
181
330
17
100
AcDbEntity
  8
visible
100
AcDbEllipse
 10
62.800000030039996
 20
-16.507220967054568
 30
0.0
 11
-22.0
 21
-0.0
 31
0.0
 40
0.49301257192087866
 41
-3.7850937624830774
 42
-3.141592653589793
  0
ELLIPSE
  5
182
330
17
100
AcDbEntity
  8
visible
100
AcDbEllipse
 10
17.200000023959998
 20
-46.48238533759586
 30
0.0
 11
-22.0
 21
-0.0
 31
0.0
 40
0.49301257192087866
 41
-5.355890089277974
 42
-3.7850937624830774
  0
ELLIPSE
  5
183
330
17
100
AcDbEntity
  8
visible
100
AcDbEllipse
 10
-75.33999997171202
 20
2.956915383710516
 30
0.0
 11
-0.1734052022473169
 21
-0.46896762770319994
 31
0.0
 40
0.5220133115991696
 41
5.328685917740298
 42
5.530043838530631
  0
ELLIPSE
  5
184
330
17
100
AcDbEntity
  8
visible
100
AcDbEllipse
 10
-62.79999997004002
 20
11.200085585609372
 30
0.0
 11
-21.4
 21
-6.827059445293264e-16
 31
0.0
 40
0.49301257192087866
 41
-6.011796813721068
 42
-5.355890089277974
  0
LINE
  5
185
330
17
100
AcDbEntity
  8
visible
100
AcDbLine
 10
4.360000022248009
 20
-26.821043964239873
 30
0.0
 11
-75.63999997175202
 21
2.759710354956958
 31
0.0
  0
ELLIPSE
  5
186
330
17
100
AcDbEntity
  8
visible
100
AcDbEllipse
 10
4.66000002228801
 20
-26.623838935486315
 30
0.0
 11
-0.1734052022473169
 21
-0.46896762770319994
 31
0.0
 40
0.5220133115991696
 41
5.328685917740298
 42
5.530043838530631
  0
ELLIPSE
  5
187
330
17
100
AcDbEntity
  8
visible
100
AcDbEllipse
 10
33.920000022706006
 20
-24.563046386299586
 30
0.0
 11
0.27464941312219215
 21
-0.4178129962933602
 31
0.0
 40
0.6960177486538892
 41
-5.670581406586894
 42
-5.469223485796559
  0
ELLIPSE
  5
188
330
17
100
AcDbEntity
  8
visible
100
AcDbEllipse
 10
17.200000023960005
 20
-18.38066873358746
 30
0.0
 11
-21.4
 21
-0.0
 31
0.0
 40
0.49301257192087866
 41
-5.355890089277974
 42
-3.7850937624830774
  0
LINE
  5
189
330
17
100
AcDbEntity
  8
visible
100
AcDbLine
 10
79.92000002875601
 20
5.264214212645715
 30
0.0
 11
34.320000022676005
 21
-24.71095015789557
 31
0.0
  0
ELLIPSE
  5
18A
330
17
100
AcDbEntity
  8
visible
100
AcDbEllipse
 10
79.520000028786
 20
5.4121179842417
 30
0.0
 11
0.27464941312219215
 21
-0.4178129962933602
 31
0.0
 40
0.6960177486538892
 41
-5.670581406586894
 42
-5.469223485796559
  0
ELLIPSE
  5
18B
330
17
100
AcDbEntity
  8
visible
100
AcDbEllipse
 10
62.80000003004001
 20
11.59449563695383
 30
0.0
 11
-21.4
 21
-0.0
 31
0.0
 40
0.49301257192087866
 41
-3.7850937624830774
 42
-3.412981147048312
  0
ELLIPSE
  5
18C
330
17
100
AcDbEntity
  8
visible
100
AcDbEllipse
 10
4.480000022264001
 20
-54.84387855674685
 30
0.0
 11
-0.27744832359570704
 21
-0.75034820432512
 31
0.0
 40
0.5220133115991696
 41
5.328685917740298
 42
6.283185307179586
  0
LINE
  5
18D
330
17
100
AcDbEntity
  8
visible
100
AcDbLine
 10
-40.906155312513825
 20
-17.204897969166154
 30
0.0
 11
-41.26230462190533
 21
-17.439012751798646
 31
0.0
  0
LINE
  5
18E
330
17
100
AcDbEntity
  8
visible
100
AcDbLine
 10
-41.573593684306985
 20
-16.81438695062895
 30
0.0
 11
-41.93359368435499
 21
-17.051032985133226
 31
0.0
  0
LINE
  5
18F
330
17
100
AcDbEntity
  8
visible
100
AcDbLine
 10
-43.27441692036107
 20
-16.522389753204862
 30
0.0
 11
-43.42656243424301
 21
-16.622402621324238
 31
0.0
  0
LINE
  5
190
330
17
100
AcDbEntity
  8
visible
100
AcDbLine
 10
-43.59976555915502
 20
-17.876179358773893
 30
0.0
 11
-43.95976555920302
 21
-18.112825393278168
 31
0.0
  0
LINE
  5
191
330
17
100
AcDbEntity
  8
visible
100
AcDbLine
 10
-43.066562434195006
 20
-19.75794218815599
 30
0.0
 11
-43.42656243424301
 21
-19.994588222660266
 31
0.0
  0
LINE
  5
192
330
17
100
AcDbEntity
  8
visible
100
AcDbLine
 10
-41.60640618430452
 20
-20.91489327284646
 30
0.0
 11
-41.96640618435252
 21
-21.151539307350735
 31
0.0
  0
LINE
  5
193
330
17
100
AcDbEntity
  8
visible
100
AcDbLine
 10
-40.921445246855896
 20
-21.06111052682336
 30
0.0
 11
-41.2814452469039
 21
-21.297756561327635
 31
0.0
  0
ELLIPSE
  5
194
330
17
100
AcDbEntity
  8
visible
100
AcDbEllipse
 10
79.760000028768
 20
-22.7783408827243
 30
0.0
 11
0.43943906099550745
 21
-0.6685007940693763
 31
0.0
 40
0.6960177486538891
 41
-6.283185307179586
 42
-5.469223485796559
  0
ELLIPSE
  5
195
330
17
100
AcDbEntity
  8
visible
100
AcDbEllipse
 10
34.160000022687996
 20
-52.75350525326559
 30
0.0
 11
0.43943906099550745
 21
-0.6685007940693763
 31
0.0
 40
0.6960177486538891
 41
-6.283185307179586
 42
-5.469223485796559
  0
LINE
  5
196
330
17
100
AcDbEntity
  8
visible
100
AcDbLine
 10
-75.63999997175202
 20
2.7597103549569555
 30
0.0
 11
-75.63999997175202
 21
3.346975330459443
 31
0.0
  0
LINE
  5
197
330
17
100
AcDbEntity
  8
visible
100
AcDbLine
 10
4.360000022248009
 20
-26.821043964239873
 30
0.0
 11
4.360000022248009
 21
-26.2309851757017
 31
0.0
  0
LINE
  5
198
330
17
100
AcDbEntity
  8
visible
100
AcDbLine
 10
34.320000022676
 20
-24.710950157895578
 30
0.0
 11
34.320000022676
 21
-24.235529652920583
 31
0.0
  0
LINE
  5
199
330
17
100
AcDbEntity
  8
visible
100
AcDbLine
 10
79.92000002875601
 20
5.264214212645716
 30
0.0
 11
79.92000002875601
 21
5.728226045261448
 31
0.0
  0
LINE
  5
19A
330
17
100
AcDbEntity
  8
visible
100
AcDbLine
 10
-58.73647055193638
 20
3.991661766765759
 30
0.0
 11
-34.99999996375001
 21
19.594832980856502
 31
0.0
  0
ELLIPSE
  5
19B
330
17
100
AcDbEntity
  8
visible
100
AcDbEllipse
 10
-6.279999962504007
 20
22.86186295641972
 30
0.0
 11
0.27744832359570704
 21
0.75034820432512
 31
0.0
 40
0.5220133115991696
 41
-2.5252957162341847
 42
-0.9544993894392879
  0
LINE
  5
19C
330
17
100
AcDbEntity
  8
visible
100
AcDbLine
 10
-5.799999962440012
 20
23.177391002425416
 30
0.0
 11
58.73647061193638
 21
-0.6855775079730932
 31
0.0
  0
ELLIPSE
  5
19D
330
17
100
AcDbEntity
  8
visible
100
AcDbEllipse
 10
-17.199999963960007
 20
15.68359990979009
 30
0.0
 11
-19.0
 21
-0.0
 31
0.0
 40
0.4930125719208787
 41
-2.214297435688181
 42
-1.69745046037464
  0
ELLIPSE
  5
19E
330
17
100
AcDbEntity
  8
visible
100
AcDbEllipse
 10
-17.199999963960007
 20
15.68359990979009
 30
0.0
 11
-19.0
 21
-0.0
 31
0.0
 40
0.4930125719208787
 41
-1.2160330199714802
 42
-1.0288674206822055
  0
ELLIPSE
  5
19F
330
17
100
AcDbEntity
  8
visible
100
AcDbEllipse
 10
-79.75999996876801
 20
22.778340835163043
 30
0.0
 11
0.43943906099550745
 21
-0.6685007940693763
 31
0.0
 40
0.6960177486538891
 41
-3.8984271590016624
 42
-3.141592653589793
  0
ELLIPSE
  5
1A0
330
17
100
AcDbEntity
  8
visible
100
AcDbEllipse
 10
-34.159999962688005
 20
52.75350520570433
 30
0.0
 11
0.43943906099550745
 21
-0.6685007940693763
 31
0.0
 40
0.6960177486538891
 41
-3.8984271590016624
 42
-3.141592653589793
  0
ELLIPSE
  5
1A1
330
17
100
AcDbEntity
  8
visible
100
AcDbEllipse
 10
-75.51999997173601
 20
8.14572770034232
 30
0.0
 11
0.27744832359570704
 21
0.75034820432512
 31
0.0
 40
0.5220133115991696
 41
-5.666888369823978
 42
-4.096092043029081
  0
ELLIPSE
  5
1A2
330
17
100
AcDbEntity
  8
visible
100
AcDbEllipse
 10
-62.799999970040005
 20
16.507220919493314
 30
0.0
 11
-22.0
 21
-7.018472326937001e-16
 31
0.0
 40
0.49301257192087866
 41
-6.283185307179586
 42
-5.355890089277974
  0
ELLIPSE
  5
1A3
330
17
100
AcDbEntity
  8
visible
100
AcDbEllipse
 10
-4.47999996226401
 20
54.8438785091856
 30
0.0
 11
-0.27744832359570704
 21
-0.75034820432512
 31
0.0
 40
0.5220133115991696
 41
3.141592653589793
 42
3.757889590945402
  0
ELLIPSE
  5
1A4
330
17
100
AcDbEntity
  8
visible
100
AcDbEllipse
 10
4.480000022264001
 20
-21.4350266188545
 30
0.0
 11
0.27744832359570704
 21
0.75034820432512
 31
0.0
 40
0.5220133115991696
 41
-5.666888369823978
 42
-4.096092043029081
  0
LINE
  5
1A5
330
17
100
AcDbEntity
  8
visible
100
AcDbLine
 10
4.000000022199998
 20
-21.750554664860196
 30
0.0
 11
-75.99999997180001
 21
7.830199654336624
 31
0.0
  0
ELLIPSE
  5
1A6
330
17
100
AcDbEntity
  8
visible
100
AcDbEllipse
 10
75.520000031736
 20
25.263124189988773
 30
0.0
 11
-0.27744832359570704
 21
-0.75034820432512
 31
0.0
 40
0.5220133115991696
 41
3.141592653589793
 42
3.757889590945402
  0
ELLIPSE
  5
1A7
330
17
100
AcDbEntity
  8
visible
100
AcDbEllipse
 10
34.160000022687996
 20
-19.344653315373236
 30
0.0
 11
-0.43943906099550745
 21
0.6685007940693763
 31
0.0
 40
0.6960177486538891
 41
3.9555544749728204
 42
5.526350801767717
  0
ELLIPSE
  5
1A8
330
17
100
AcDbEntity
  8
visible
100
AcDbEllipse
 10
17.200000023959998
 20
-13.073533399703507
 30
0.0
 11
-22.0
 21
-0.0
 31
0.0
 40
0.49301257192087866
 41
-5.355890089277974
 42
-3.7850937624830774
  0
ELLIPSE
  5
1A9
330
17
100
AcDbEntity
  8
visible
100
AcDbEllipse
 10
62.800000030039996
 20
16.90163097083778
 30
0.0
 11
-22.0
 21
-0.0
 31
0.0
 40
0.49301257192087866
 41
-3.7850937624830774
 42
-3.141592653589793
  0
ELLIPSE
  5
1AA
330
17
100
AcDbEntity
  8
visible
100
AcDbEllipse
 10
79.760000028768
 20
10.63051105516805
 30
0.0
 11
-0.43943906099550745
 21
0.6685007940693763
 31
0.0
 40
0.6960177486538891
 41
3.9555544749728204
 42
5.526350801767717
  0
LINE
  5
1AB
330
17
100
AcDbEntity
  8
visible
100
AcDbLine
 10
80.40000002872
 20
10.393865020614477
 30
0.0
 11
34.80000002264
 21
-19.58129934992681
 31
0.0
  0
LINE
  5
1AC
330
17
100
AcDbEntity
  8
visible
100
AcDbLine
 10
-77.99999996890001
 20
18.372731517118872
 30
0.0
 11
-77.99999996890001
 21
22.82358198884679
 31
0.0
  0
LINE
  5
1AD
330
17
100
AcDbEntity
  8
visible
100
AcDbLine
 10
-32.399999962820004
 20
45.367306855238425
 30
0.0
 11
-32.399999962820004
 21
52.79874635938808
 31
0.0
  0
LINE
  5
1AE
330
17
100
AcDbEntity
  8
visible
100
AcDbLine
 10
-5.799999962440012
 20
23.177391002425416
 30
0.0
 11
-5.799999962440012
 21
54.67219413137601
 31
0.0
  0
LINE
  5
1AF
330
17
100
AcDbEntity
  8
visible
100
AcDbLine
 10
74.20000003156
 20
20.141303555352295
 30
0.0
 11
74.20000003156
 21
25.091439812179186
 31
0.0
  0
LINE
  5
1B0
330
17
100
AcDbEntity
  8
visible
100
AcDbLine
 10
80.40000002872
 20
6.043754091201407
 30
0.0
 11
80.40000002872
 21
10.393865020614477
 31
0.0
  0
LINE
  5
1B1
330
17
100
AcDbEntity
  8
visible
100
AcDbLine
 10
34.80000002263999
 20
-23.93141027933988
 30
0.0
 11
34.80000002263999
 21
-19.58129934992681
 31
0.0
  0
LINE
  5
1B2
330
17
100
AcDbEntity
  8
visible
100
AcDbLine
 10
4.000000022199998
 20
-26.100665594273266
 30
0.0
 11
4.000000022199998
 21
-21.750554664860196
 31
0.0
  0
LINE
  5
1B3
330
17
100
AcDbEntity
  8
visible
100
AcDbLine
 10
-75.99999997180001
 20
3.4800887249235544
 30
0.0
 11
-75.99999997180001
 21
7.830199654336624
 31
0.0
  0
LINE
  5
1B4
330
17
100
AcDbEntity
  8
visible
100
AcDbLine
 10
-84.79999997004
 20
-16.901631018399037
 30
0.0
 11
-84.79999997004
 21
11.113083367021108
 31
0.0
  0
SPLINE
  5
1B5
330
17
100
AcDbEntity
  8
visible
100
AcDbSpline
 70
0
 71
3
 72
11
 73
7
 74
0
 40
0.0
 40
0.0
 40
0.0
 40
0.0
 40
0.6201086654575352
 40
0.6201086654575352
 40
0.6201086654575352
 40
1.0
 40
1.0
 40
1.0
 40
1.0
 10
-75.79744829533172
 20
-26.01347244187514
 30
0.0
 10
-79.18256766531303
 20
-24.763018799860237
 30
0.0
 10
-81.8398099091246
 20
-23.017212838460093
 30
0.0
 10
-83.36073348948793
 20
-20.957427535502344
 30
0.0
 10
-84.29487721690731
 20
-19.698278442846096
 30
0.0
 10
-84.80202529349931
 20
-18.307222659003113
 30
0.0
 10
-84.79999997004
 20
-16.901631018399033
 30
0.0
  0
LINE
  5
1B6
330
17
100
AcDbEntity
  8
visible
100
AcDbLine
 10
84.80000003004
 20
-16.50722096705457
 30
0.0
 11
84.80000003004
 21
11.507493418365573
 31
0.0
  0
LINE
  5
1B7
330
17
100
AcDbEntity
  8
visible
100
AcDbLine
 10
4.202551698668287
 20
-55.59422676107197
 30
0.0
 11
-75.79744829533172
 21
-26.01347244187515
 31
0.0
  0
SPLINE
  5
1B8
330
17
100
AcDbEntity
  8
visible
100
AcDbSpline
 70
0
 71
1
 72
4
 73
2
 74
0
 40
0.0
 40
0.0
 40
1.0
 40
1.0
 10
-42.56459108309828
 20
-16.821597144131964
 30
0.0
 10
-42.92459108314628
 20
-17.05824317863624
 30
0.0
  0
SPLINE
  5
1B9
330
17
100
AcDbEntity
  8
visible
100
AcDbSpline
 70
0
 71
3
 72
11
 73
7
 74
0
 40
0.0
 40
0.0
 40
0.0
 40
0.0
 40
0.5
 40
0.5
 40
0.5
 40
1.0
 40
1.0
 40
1.0
 40
1.0
 10
84.80000003004
 20
-16.50722096705457
 30
0.0
 10
84.8007324913032
 20
-17.502676980991865
 30
0.0
 10
84.54763333199426
 20
-18.494861329564973
 30
0.0
 10
84.0654077753282
 20
-19.433636035155097
 30
0.0
 10
83.30164309352588
 20
-20.923550960436025
 30
0.0
 10
81.97159399073476
 20
-22.282281440973218
 30
0.0
 10
80.1994390897635
 20
-23.446841676793678
 30
0.0
  0
LINE
  5
1BA
330
17
100
AcDbEntity
  8
visible
100
AcDbLine
 10
80.1994390897635
 20
-23.446841676793674
 30
0.0
 11
34.5994390836835
 21
-53.42200604733496
 31
0.0
  0
SPLINE
  5
1BB
330
17
100
AcDbEntity
  8
visible
100
AcDbSpline
 70
0
 71
3
 72
17
 73
13
 74
0
 40
0.0
 40
0.0
 40
0.0
 40
0.0
 40
0.3261077077235002
 40
0.3261077077235002
 40
0.3261077077235002
 40
0.5907778236891438
 40
0.5907778236891438
 40
0.5907778236891438
 40
0.793787405816269
 40
0.793787405816269
 40
0.793787405816269
 40
1.0
 40
1.0
 40
1.0
 40
1.0
 10
34.59943908368351
 20
-53.422006047334975
 30
0.0
 10
32.33499969790284
 20
-54.91297134298224
 30
0.0
 10
29.330797090106156
 20
-56.08659836394784
 30
0.0
 10
25.940149910263244
 20
-56.823887858837196
 30
0.0
 10
23.191091035278493
 20
-57.42382106127079
 30
0.0
 10
20.194405884170095
 20
-57.73538600470823
 30
0.0
 10
17.195894233850893
 20
-57.73425295306732
 30
0.0
 10
14.896136186849098
 20
-57.73433658153465
 30
0.0
 10
12.596968555979473
 20
-57.55160464916541
 30
0.0
 10
10.41063098789441
 20
-57.19457899980458
 30
0.0
 10
8.189300704630792
 20
-56.832453789595554
 30
0.0
 10
6.085456978618522
 20
-56.29080976272786
 30
0.0
 10
4.2025516986682945
 20
-55.594226761071965
 30
0.0
  0
LINE
  5
1BC
330
17
100
AcDbEntity
  8
visible
100
AcDbLine
 10
-72.99999997025
 20
9.26573626025846
 30
0.0
 11
-72.99999997025
 21
16.16791226789028
 31
0.0
  0
LINE
  5
1BD
330
17
100
AcDbEntity
  8
visible
100
AcDbLine
 10
23.80000002249
 20
-21.16144470204426
 30
0.0
 11
23.80000002249
 21
-19.62480045833788
 31
0.0
  0
LINE
  5
1BE
330
17
100
AcDbEntity
  8
visible
100
AcDbLine
 10
14.800000022489996
 20
-21.66972369531694
 30
0.0
 11
14.800000022489996
 21
-19.62480045833788
 31
0.0
  0
LINE
  5
1BF
330
17
100
AcDbEntity
  8
visible
100
AcDbLine
 10
73.00000003024999
 20
8.690554920996089
 30
0.0
 11
73.00000003024999
 21
18.63297511985298
 31
0.0
  0
LINE
  5
1C0
330
17
100
AcDbEntity
  8
visible
100
AcDbLine
 10
-14.799999962490006
 20
22.234866968424456
 30
0.0
 11
-14.799999962490006
 21
54.42568784608114
 31
0.0
  0
LINE
  5
1C1
330
17
100
AcDbEntity
  8
visible
100
AcDbLine
 10
-23.79999996249001
 20
22.234866968424456
 30
0.0
 11
-23.79999996249001
 21
54.42568784608114
 31
0.0
  0
LINE
  5
1C2
330
17
100
AcDbEntity
  8
visible
100
AcDbLine
 10
-80.19943902976351
 20
23.44684162923241
 30
0.0
 11
-34.59943902368351
 21
53.422005999773695
 31
0.0
  0
SPLINE
  5
1C3
330
17
100
AcDbEntity
  8
visible
100
AcDbSpline
 70
0
 71
3
 72
11
 73
7
 74
0
 40
0.0
 40
0.0
 40
0.0
 40
0.0
 40
0.5
 40
0.5
 40
0.5
 40
1.0
 40
1.0
 40
1.0
 40
1.0
 10
-84.79999997004
 20
16.50722091949332
 30
0.0
 10
-84.80073243130323
 20
17.50267693343061
 30
0.0
 10
-84.54763327199427
 20
18.49486128200372
 30
0.0
 10
-84.0654077153282
 20
19.43363598759383
 30
0.0
 10
-83.30164303352585
 20
20.923550912874745
 30
0.0
 10
-81.9715939307348
 20
22.282281393411964
 30
0.0
 10
-80.19943902976351
 20
23.446841629232416
 30
0.0
  0
SPLINE
  5
1C4
330
17
100
AcDbEntity
  8
visible
100
AcDbSpline
 70
0
 71
3
 72
17
 73
13
 74
0
 40
0.0
 40
0.0
 40
0.0
 40
0.0
 40
0.3261077077235134
 40
0.3261077077235134
 40
0.3261077077235134
 40
0.5907778236891738
 40
0.5907778236891738
 40
0.5907778236891738
 40
0.7937874058162859
 40
0.7937874058162859
 40
0.7937874058162859
 40
1.0
 40
1.0
 40
1.0
 40
1.0
 10
-34.599439023683516
 20
53.4220059997737
 30
0.0
 10
-32.33499963790295
 20
54.912971295420846
 30
0.0
 10
-29.330797030106705
 20
56.086598316386464
 30
0.0
 10
-25.94014985026323
 20
56.82388781127591
 30
0.0
 10
-23.191090975278065
 20
57.42382101370963
 30
0.0
 10
-20.19440582417004
 20
57.7353859571469
 30
0.0
 10
-17.195894173850906
 20
57.73425290550609
 30
0.0
 10
-14.896136126849067
 20
57.73433653397335
 30
0.0
 10
-12.596968495979505
 20
57.551604601604176
 30
0.0
 10
-10.410630927894406
 20
57.194578952243326
 30
0.0
 10
-8.189300644630782
 20
56.83245374203429
 30
0.0
 10
-6.085456918618535
 20
56.29080971516659
 30
0.0
 10
-4.202551638668304
 20
55.59422671351071
 30
0.0
  0
LINE
  5
1C5
330
17
100
AcDbEntity
  8
visible
100
AcDbLine
 10
-4.202551638668297
 20
55.59422671351072
 30
0.0
 11
75.79744835533171
 21
26.0134723943139
 31
0.0
  0
SPLINE
  5
1C6
330
17
100
AcDbEntity
  8
visible
100
AcDbSpline
 70
0
 71
3
 72
11
 73
7
 74
0
 40
0.0
 40
0.0
 40
0.0
 40
0.0
 40
0.6201086654575472
 40
0.6201086654575472
 40
0.6201086654575472
 40
1.0
 40
1.0
 40
1.0
 40
1.0
 10
75.79744835533171
 20
26.013472394313897
 30
0.0
 10
79.18256772531286
 20
24.76301875229897
 30
0.0
 10
81.83980996912456
 20
23.01721279089892
 30
0.0
 10
83.36073354948792
 20
20.957427487941082
 30
0.0
 10
84.29487727690719
 20
19.698278395284852
 30
0.0
 10
84.80202535349936
 20
18.307222611441862
 30
0.0
 10
84.80000003004001
 20
16.901630970837775
 30
0.0
  0
LINE
  5
1C7
330
17
100
AcDbEntity
  8
visible
100
AcDbLine
 10
84.80000003004
 20
12.551520041424709
 30
0.0
 11
84.80000003004
 21
16.90163097083778
 31
0.0
  0
LINE
  5
1C8
330
17
100
AcDbEntity
  8
visible
100
AcDbLine
 10
-84.79999997004
 20
12.157109990080244
 30
0.0
 11
-84.79999997004
 21
16.507220919493314
 31
0.0
  0
ENDSEC
  0
SECTION
  2
OBJECTS
  0
DICTIONARY
  5
A
330
0
100
AcDbDictionary
281
1
  3
ACAD_COLOR
350
B
  3
ACAD_GROUP
350
C
  3
ACAD_LAYOUT
350
D
  3
ACAD_MATERIAL
350
E
  3
ACAD_MLEADERSTYLE
350
F
  3
ACAD_MLINESTYLE
350
10
  3
ACAD_PLOTSETTINGS
350
11
  3
ACAD_PLOTSTYLENAME
350
12
  3
ACAD_SCALELIST
350
14
  3
ACAD_TABLESTYLE
350
15
  3
ACAD_VISUALSTYLE
350
16
  3
EZDXF_META
350
2D
  0
DICTIONARY
  5
B
330
A
100
AcDbDictionary
281
1
  0
DICTIONARY
  5
C
330
A
100
AcDbDictionary
281
1
  0
DICTIONARY
  5
D
330
A
100
AcDbDictionary
281
1
  3
Model
350
1A
  3
Layout1
350
1E
  0
DICTIONARY
  5
E
330
A
100
AcDbDictionary
281
1
  3
ByBlock
350
1F
  3
ByLayer
350
20
  3
Global
350
21
  0
DICTIONARY
  5
F
330
A
100
AcDbDictionary
281
1
  3
Standard
350
2C
  0
DICTIONARY
  5
10
330
A
100
AcDbDictionary
281
1
  3
Standard
350
22
  0
DICTIONARY
  5
11
330
A
100
AcDbDictionary
281
1
  0
ACDBDICTIONARYWDFLT
  5
12
330
A
100
AcDbDictionary
281
1
  3
Normal
350
13
100
AcDbDictionaryWithDefault
340
13
  0
ACDBPLACEHOLDER
  5
13
330
12
  0
DICTIONARY
  5
14
330
A
100
AcDbDictionary
281
1
  0
DICTIONARY
  5
15
330
A
100
AcDbDictionary
281
1
  0
DICTIONARY
  5
16
330
A
100
AcDbDictionary
281
1
  0
LAYOUT
  5
1A
330
D
100
AcDbPlotSettings
  1

  4
A3
  6

 40
7.5
 41
20.0
 42
7.5
 43
20.0
 44
420.0
 45
297.0
 46
0.0
 47
0.0
 48
0.0
 49
0.0
140
0.0
141
0.0
142
1.0
143
1.0
 70
1024
 72
1
 73
0
 74
5
  7

 75
16
 76
0
 77
2
 78
300
147
1.0
148
0.0
149
0.0
100
AcDbLayout
  1
Model
 70
1
 71
0
 10
0.0
 20
0.0
 11
420.0
 21
297.0
 12
0.0
 22
0.0
 32
0.0
 14
1e+20
 24
1e+20
 34
1e+20
 15
-1e+20
 25
-1e+20
 35
-1e+20
146
0.0
 13
0.0
 23
0.0
 33
0.0
 16
1.0
 26
0.0
 36
0.0
 17
0.0
 27
1.0
 37
0.0
 76
1
330
17
  0
LAYOUT
  5
1E
330
D
100
AcDbPlotSettings
  1

  4
A3
  6

 40
7.5
 41
20.0
 42
7.5
 43
20.0
 44
420.0
 45
297.0
 46
0.0
 47
0.0
 48
0.0
 49
0.0
140
0.0
141
0.0
142
1.0
143
1.0
 70
0
 72
1
 73
0
 74
5
  7

 75
16
 76
0
 77
2
 78
300
147
1.0
148
0.0
149
0.0
100
AcDbLayout
  1
Layout1
 70
1
 71
1
 10
0.0
 20
0.0
 11
420.0
 21
297.0
 12
0.0
 22
0.0
 32
0.0
 14
1e+20
 24
1e+20
 34
1e+20
 15
-1e+20
 25
-1e+20
 35
-1e+20
146
0.0
 13
0.0
 23
0.0
 33
0.0
 16
1.0
 26
0.0
 36
0.0
 17
0.0
 27
1.0
 37
0.0
 76
1
330
1B
  0
MATERIAL
  5
1F
102
{ACAD_REACTORS
330
E
102
}
330
E
100
AcDbMaterial
  1
ByBlock
  2

 70
0
 40
1.0
 71
1
 41
1.0
 91
-1023410177
 42
1.0
 72
1
  3

 73
1
 74
1
 75
1
 44
0.5
 73
0
 45
1.0
 46
1.0
 77
1
  4

 78
1
 79
1
170
1
 48
1.0
171
1
  6

172
1
173
1
174
1
140
1.0
141
1.0
175
1
  7

176
1
177
1
178
1
143
1.0
179
1
  8

270
1
271
1
272
1
145
1.0
146
1.0
273
1
  9

274
1
275
1
276
1
 42
1.0
 72
1
  3

 73
1
 74
1
 75
1
 94
63
  0
MATERIAL
  5
20
102
{ACAD_REACTORS
330
E
102
}
330
E
100
AcDbMaterial
  1
ByLayer
  2

 70
0
 40
1.0
 71
1
 41
1.0
 91
-1023410177
 42
1.0
 72
1
  3

 73
1
 74
1
 75
1
 44
0.5
 73
0
 45
1.0
 46
1.0
 77
1
  4

 78
1
 79
1
170
1
 48
1.0
171
1
  6

172
1
173
1
174
1
140
1.0
141
1.0
175
1
  7

176
1
177
1
178
1
143
1.0
179
1
  8

270
1
271
1
272
1
145
1.0
146
1.0
273
1
  9

274
1
275
1
276
1
 42
1.0
 72
1
  3

 73
1
 74
1
 75
1
 94
63
  0
MATERIAL
  5
21
102
{ACAD_REACTORS
330
E
102
}
330
E
100
AcDbMaterial
  1
Global
  2

 70
0
 40
1.0
 71
1
 41
1.0
 91
-1023410177
 42
1.0
 72
1
  3

 73
1
 74
1
 75
1
 44
0.5
 73
0
 45
1.0
 46
1.0
 77
1
  4

 78
1
 79
1
170
1
 48
1.0
171
1
  6

172
1
173
1
174
1
140
1.0
141
1.0
175
1
  7

176
1
177
1
178
1
143
1.0
179
1
  8

270
1
271
1
272
1
145
1.0
146
1.0
273
1
  9

274
1
275
1
276
1
 42
1.0
 72
1
  3

 73
1
 74
1
 75
1
 94
63
  0
MLINESTYLE
  5
22
102
{ACAD_REACTORS
330
10
102
}
330
10
100
AcDbMlineStyle
  2
Standard
 70
0
  3

 62
256
 51
90.0
 52
90.0
 71
2
 49
0.5
 62
256
  6
BYLAYER
 49
-0.5
 62
256
  6
BYLAYER
  0
MLEADERSTYLE
  5
2C
102
{ACAD_REACTORS
330
F
102
}
330
F
100
AcDbMLeaderStyle
179
2
170
2
171
1
172
0
 90
2
 40
0.0
 41
0.0
173
1
 91
-1056964608
 92
-2
290
1
 42
2.0
291
1
 43
8.0
  3
Standard
 44
4.0
300

342
29
174
1
175
1
176
0
178
1
 93
-1056964608
 45
4.0
292
0
297
0
 46
4.0
 94
-1056964608
 47
1.0
 49
1.0
140
1.0
294
1
141
0.0
177
0
142
1.0
295
0
296
0
143
3.75
271
0
272
9
273
9
  0
DICTIONARY
  5
2D
330
A
100
AcDbDictionary
280
1
281
1
  3
CREATED_BY_EZDXF
350
2E
  3
WRITTEN_BY_EZDXF
350
1CC
  0
DICTIONARYVAR
  5
2E
330
2D
100
DictionaryVariables
280
0
  1
1.4.4 @ 2026-10-02T15:35:47.018961+00:00
  0
DICTIONARYVAR
  5
1CC
330
2D
100
DictionaryVariables
280
0
  1
1.4.4 @ 2026-10-02T15:35:47.083789+00:00
  0
ENDSEC
  0
EOF
