  0
SECTION
  2
HEADER
  9
$ACADVER
  1
AC1027
  9
$ACADMAINTVER
 70
105
  9
$DWGCODEPAGE
  3
ANSI_1252
  9
$LASTSAVEDBY
  1
ezdxf
  9
$REQUIREDVERSIONS
160
0
  9
$INSBASE
 10
0.0
 20
0.0
 30
0.0
  9
$EXTMIN
 10
1e+20
 20
1e+20
 30
1e+20
  9
$EXTMAX
 10
-1e+20
 20
-1e+20
 30
-1e+20
  9
$LIMMIN
 10
0.0
 20
0.0
  9
$LIMMAX
 10
420.0
 20
297.0
  9
$ORTHOMODE
 70
0
  9
$REGENMODE
 70
1
  9
$FILLMODE
 70
1
  9
$QTEXTMODE
 70
0
  9
$MIRRTEXT
 70
1
  9
$LTSCALE
 40
1.0
  9
$ATTMODE
 70
1
  9
$TEXTSIZE
 40
2.5
  9
$TRACEWID
 40
1.0
  9
$TEXTSTYLE
  7
Standard
  9
$CLAYER
  8
0
  9
$CELTYPE
  6
ByLayer
  9
$CECOLOR
 62
256
  9
$CELTSCALE
 40
1.0
  9
$DISPSILH
 70
0
  9
$DIMSCALE
 40
1.0
  9
$DIMASZ
 40
2.5
  9
$DIMEXO
 40
0.625
  9
$DIMDLI
 40
3.75
  9
$DIMRND
 40
0.0
  9
$DIMDLE
 40
0.0
  9
$DIMEXE
 40
1.25
  9
$DIMTP
 40
0.0
  9
$DIMTM
 40
0.0
  9
$DIMTXT
 40
2.5
  9
$DIMCEN
 40
2.5
  9
$DIMTSZ
 40
0.0
  9
$DIMTOL
 70
0
  9
$DIMLIM
 70
0
  9
$DIMTIH
 70
0
  9
$DIMTOH
 70
0
  9
$DIMSE1
 70
0
  9
$DIMSE2
 70
0
  9
$DIMTAD
 70
1
  9
$DIMZIN
 70
8
  9
$DIMBLK
  1

  9
$DIMASO
 70
1
  9
$DIMSHO
 70
1
  9
$DIMPOST
  1

  9
$DIMAPOST
  1

  9
$DIMALT
 70
0
  9
$DIMALTD
 70
3
  9
$DIMALTF
 40
0.03937007874
  9
$DIMLFAC
 40
1.0
  9
$DIMTOFL
 70
1
  9
$DIMTVP
 40
0.0
  9
$DIMTIX
 70
0
  9
$DIMSOXD
 70
0
  9
$DIMSAH
 70
0
  9
$DIMBLK1
  1

  9
$DIMBLK2
  1

  9
$DIMSTYLE
  2
ISO-25
  9
$DIMCLRD
 70
0
  9
$DIMCLRE
 70
0
  9
$DIMCLRT
 70
0
  9
$DIMTFAC
 40
1.0
  9
$DIMGAP
 40
0.625
  9
$DIMJUST
 70
0
  9
$DIMSD1
 70
0
  9
$DIMSD2
 70
0
  9
$DIMTOLJ
 70
0
  9
$DIMTZIN
 70
8
  9
$DIMALTZ
 70
0
  9
$DIMALTTZ
 70
0
  9
$DIMUPT
 70
0
  9
$DIMDEC
 70
2
  9
$DIMTDEC
 70
2
  9
$DIMALTU
 70
2
  9
$DIMALTTD
 70
3
  9
$DIMTXSTY
  7
Standard
  9
$DIMAUNIT
 70
0
  9
$DIMADEC
 70
0
  9
$DIMALTRND
 40
0.0
  9
$DIMAZIN
 70
0
  9
$DIMDSEP
 70
44
  9
$DIMATFIT
 70
3
  9
$DIMFRAC
 70
0
  9
$DIMLDRBLK
  1

  9
$DIMLUNIT
 70
2
  9
$DIMLWD
 70
-2
  9
$DIMLWE
 70
-2
  9
$DIMTMOVE
 70
0
  9
$DIMFXL
 40
1.0
  9
$DIMFXLON
 70
0
  9
$DIMJOGANG
 40
0.785398163397
  9
$DIMTFILL
 70
0
  9
$DIMTFILLCLR
 70
0
  9
$DIMARCSYM
 70
0
  9
$DIMLTYPE
  6

  9
$DIMLTEX1
  6

  9
$DIMLTEX2
  6

  9
$DIMTXTDIRECTION
 70
0
  9
$LUNITS
 70
2
  9
$LUPREC
 70
4
  9
$SKETCHINC
 40
1.0
  9
$FILLETRAD
 40
10.0
  9
$AUNITS
 70
0
  9
$AUPREC
 70
2
  9
$MENU
  1
.
  9
$ELEVATION
 40
0.0
  9
$PELEVATION
 40
0.0
  9
$THICKNESS
 40
0.0
  9
$LIMCHECK
 70
0
  9
$CHAMFERA
 40
0.0
  9
$CHAMFERB
 40
0.0
  9
$CHAMFERC
 40
0.0
  9
$CHAMFERD
 40
0.0
  9
$SKPOLY
 70
0
  9
$TDCREATE
 40
2461317.689016204
  9
$TDUCREATE
 40
2458532.153996898
  9
$TDUPDATE
 40
2461317.689016204
  9
$TDUUPDATE
 40
2458532.1544311
  9
$TDINDWG
 40
0.0
  9
$TDUSRTIMER
 40
0.0
  9
$USRTIMER
 70
1
  9
$ANGBASE
 50
0.0
  9
$ANGDIR
 70
0
  9
$PDMODE
 70
0
  9
$PDSIZE
 40
0.0
  9
$PLINEWID
 40
0.0
  9
$SPLFRAME
 70
0
  9
$SPLINETYPE
 70
6
  9
$SPLINESEGS
 70
8
  9
$HANDSEED
  5
1BE
  9
$SURFTAB1
 70
6
  9
$SURFTAB2
 70
6
  9
$SURFTYPE
 70
6
  9
$SURFU
 70
6
  9
$SURFV
 70
6
  9
$UCSBASE
  2

  9
$UCSNAME
  2

  9
$UCSORG
 10
0.0
 20
0.0
 30
0.0
  9
$UCSXDIR
 10
1.0
 20
0.0
 30
0.0
  9
$UCSYDIR
 10
0.0
 20
1.0
 30
0.0
  9
$UCSORTHOREF
  2

  9
$UCSORTHOVIEW
 70
0
  9
$UCSORGTOP
 10
0.0
 20
0.0
 30
0.0
  9
$UCSORGBOTTOM
 10
0.0
 20
0.0
 30
0.0
  9
$UCSORGLEFT
 10
0.0
 20
0.0
 30
0.0
  9
$UCSORGRIGHT
 10
0.0
 20
0.0
 30
0.0
  9
$UCSORGFRONT
 10
0.0
 20
0.0
 30
0.0
  9
$UCSORGBACK
 10
0.0
 20
0.0
 30
0.0
  9
$PUCSBASE
  2

  9
$PUCSNAME
  2

  9
$PUCSORG
 10
0.0
 20
0.0
 30
0.0
  9
$PUCSXDIR
 10
1.0
 20
0.0
 30
0.0
  9
$PUCSYDIR
 10
0.0
 20
1.0
 30
0.0
  9
$PUCSORTHOREF
  2

  9
$PUCSORTHOVIEW
 70
0
  9
$PUCSORGTOP
 10
0.0
 20
0.0
 30
0.0
  9
$PUCSORGBOTTOM
 10
0.0
 20
0.0
 30
0.0
  9
$PUCSORGLEFT
 10
0.0
 20
0.0
 30
0.0
  9
$PUCSORGRIGHT
 10
0.0
 20
0.0
 30
0.0
  9
$PUCSORGFRONT
 10
0.0
 20
0.0
 30
0.0
  9
$PUCSORGBACK
 10
0.0
 20
0.0
 30
0.0
  9
$USERI1
 70
0
  9
$USERI2
 70
0
  9
$USERI3
 70
0
  9
$USERI4
 70
0
  9
$USERI5
 70
0
  9
$USERR1
 40
0.0
  9
$USERR2
 40
0.0
  9
$USERR3
 40
0.0
  9
$USERR4
 40
0.0
  9
$USERR5
 40
0.0
  9
$WORLDVIEW
 70
1
  9
$SHADEDGE
 70
3
  9
$SHADEDIF
 70
70
  9
$TILEMODE
 70
1
  9
$MAXACTVP
 70
64
  9
$PINSBASE
 10
0.0
 20
0.0
 30
0.0
  9
$PLIMCHECK
 70
0
  9
$PEXTMIN
 10
1e+20
 20
1e+20
 30
1e+20
  9
$PEXTMAX
 10
-1e+20
 20
-1e+20
 30
-1e+20
  9
$PLIMMIN
 10
0.0
 20
0.0
  9
$PLIMMAX
 10
420.0
 20
297.0
  9
$UNITMODE
 70
0
  9
$VISRETAIN
 70
1
  9
$PLINEGEN
 70
0
  9
$PSLTSCALE
 70
1
  9
$TREEDEPTH
 70
3020
  9
$CMLSTYLE
  2
Standard
  9
$CMLJUST
 70
0
  9
$CMLSCALE
 40
20.0
  9
$PROXYGRAPHICS
 70
1
  9
$MEASUREMENT
 70
1
  9
$CELWEIGHT
370
-1
  9
$ENDCAPS
280
0
  9
$JOINSTYLE
280
0
  9
$LWDISPLAY
290
0
  9
$INSUNITS
 70
4
  9
$HYPERLINKBASE
  1

  9
$STYLESHEET
  1

  9
$XEDIT
290
1
  9
$CEPSNTYPE
380
0
  9
$PSTYLEMODE
290
1
  9
$FINGERPRINTGUID
  2
{3A71C7E6-6832-4050-A7B3-41F55D57B32A}
  9
$VERSIONGUID
  2
{565D221F-7FFB-4990-B423-3DE57DD929C3}
  9
$EXTNAMES
290
1
  9
$PSVPSCALE
 40
0.0
  9
$OLESTARTUP
290
0
  9
$SORTENTS
280
127
  9
$INDEXCTL
280
0
  9
$HIDETEXT
280
1
  9
$XCLIPFRAME
280
1
  9
$HALOGAP
280
0
  9
$OBSCOLOR
 70
257
  9
$OBSLTYPE
280
0
  9
$INTERSECTIONDISPLAY
280
0
  9
$INTERSECTIONCOLOR
 70
257
  9
$DIMASSOC
280
2
  9
$PROJECTNAME
  1

  9
$CAMERADISPLAY
290
0
  9
$LENSLENGTH
 40
50.0
  9
$CAMERAHEIGHT
 40
0.0
  9
$STEPSPERSEC
 40
24.0
  9
$STEPSIZE
 40
100.0
  9
$3DDWFPREC
 40
2.0
  9
$PSOLWIDTH
 40
0.005
  9
$PSOLHEIGHT
 40
0.08
  9
$LOFTANG1
 40
1.570796326795
  9
$LOFTANG2
 40
1.570796326795
  9
$LOFTMAG1
 40
0.0
  9
$LOFTMAG2
 40
0.0
  9
$LOFTPARAM
 70
7
  9
$LOFTNORMALS
280
1
  9
$LATITUDE
 40
37.795
  9
$LONGITUDE
 40
-122.394
  9
$NORTHDIRECTION
 40
0.0
  9
$TIMEZONE
 70
-8000
  9
$LIGHTGLYPHDISPLAY
280
1
  9
$TILEMODELIGHTSYNCH
280
1
  9
$CMATERIAL
347
20
  9
$SOLIDHIST
280
0
  9
$SHOWHIST
280
1
  9
$DWFFRAME
280
2
  9
$DGNFRAME
280
2
  9
$REALWORLDSCALE
290
1
  9
$INTERFERECOLOR
 62
256
  9
$CSHADOW
280
0
  9
$SHADOWPLANELOCATION
 40
0.0
  0
ENDSEC
  0
SECTION
  2
CLASSES
  0
CLASS
  1
ACDBDICTIONARYWDFLT
  2
AcDbDictionaryWithDefault
  3
ObjectDBX Classes
 90
0
 91
0
280
0
281
0
  0
CLASS
  1
SUN
  2
AcDbSun
  3
SCENEOE
 90
1153
 91
0
280
0
281
0
  0
CLASS
  1
VISUALSTYLE
  2
AcDbVisualStyle
  3
ObjectDBX Classes
 90
4095
 91
0
280
0
281
0
  0
CLASS
  1
MATERIAL
  2
AcDbMaterial
  3
ObjectDBX Classes
 90
1153
 91
0
280
0
281
0
  0
CLASS
  1
SCALE
  2
AcDbScale
  3
ObjectDBX Classes
 90
1153
 91
0
280
0
281
0
  0
CLASS
  1
TABLESTYLE
  2
AcDbTableStyle
  3
ObjectDBX Classes
 90
4095
 91
0
280
0
281
0
  0
CLASS
  1
MLEADERSTYLE
  2
AcDbMLeaderStyle
  3
ACDB_MLEADERSTYLE_CLASS
 90
4095
 91
0
280
0
281
0
  0
CLASS
  1
DICTIONARYVAR
  2
AcDbDictionaryVar
  3
ObjectDBX Classes
 90
0
 91
0
280
0
281
0
  0
CLASS
  1
CELLSTYLEMAP
  2
AcDbCellStyleMap
  3
ObjectDBX Classes
 90
1152
 91
0
280
0
281
0
  0
CLASS
  1
MENTALRAYRENDERSETTINGS
  2
AcDbMentalRayRenderSettings
  3
SCENEOE
 90
1024
 91
0
280
0
281
0
  0
CLASS
  1
ACDBDETAILVIEWSTYLE
  2
AcDbDetailViewStyle
  3
ObjectDBX Classes
 90
1025
 91
0
280
0
281
0
  0
CLASS
  1
ACDBSECTIONVIEWSTYLE
  2
AcDbSectionViewStyle
  3
ObjectDBX Classes
 90
1025
 91
0
280
0
281
0
  0
CLASS
  1
RASTERVARIABLES
  2
AcDbRasterVariables
  3
ISM
 90
0
 91
0
280
0
281
0
  0
CLASS
  1
ACDBPLACEHOLDER
  2
AcDbPlaceHolder
  3
ObjectDBX Classes
 90
0
 91
0
280
0
281
0
  0
CLASS
  1
LAYOUT
  2
AcDbLayout
  3
ObjectDBX Classes
 90
0
 91
0
280
0
281
0
  0
ENDSEC
  0
SECTION
  2
TABLES
  0
TABLE
  2
VPORT
  5
8
330
0
100
AcDbSymbolTable
 70
1
  0
VPORT
  5
1BA
330
8
100
AcDbSymbolTableRecord
100
AcDbViewportTableRecord
  2
*Active
 70
0
 10
0.0
 20
0.0
 11
1.0
 21
1.0
 12
3.00000237984932e-08
 22
0.12340761234492703
 13
0.0
 23
0.0
 14
0.5
 24
0.5
 15
0.5
 25
0.5
 16
0.0
 26
0.0
 36
1.0
 17
0.0
 27
0.0
 37
0.0
 40
90.87518680556197
 41
1.34
 42
50.0
 43
0.0
 44
0.0
 50
0.0
 51
0.0
 71
0
 72
1000
 73
1
 74
3
 75
0
 76
0
 77
0
 78
0
281
0
 65
1
110
0.0
120
0.0
130
0.0
111
1.0
121
0.0
131
0.0
112
0.0
122
1.0
132
0.0
 79
0
146
0.0
  0
ENDTAB
  0
TABLE
  2
LTYPE
  5
2
330
0
100
AcDbSymbolTable
 70
3
  0
LTYPE
  5
24
330
2
100
AcDbSymbolTableRecord
100
AcDbLinetypeTableRecord
  2
ByBlock
 70
0
  3

 72
65
 73
0
 40
0.0
  0
LTYPE
  5
25
330
2
100
AcDbSymbolTableRecord
100
AcDbLinetypeTableRecord
  2
ByLayer
 70
0
  3

 72
65
 73
0
 40
0.0
  0
LTYPE
  5
26
330
2
100
AcDbSymbolTableRecord
100
AcDbLinetypeTableRecord
  2
Continuous
 70
0
  3

 72
65
 73
0
 40
0.0
  0
ENDTAB
  0
TABLE
  2
LAYER
  5
1
330
0
100
AcDbSymbolTable
 70
3
  0
LAYER
  5
27
330
1
100
AcDbSymbolTableRecord
100
AcDbLayerTableRecord
  2
0
 70
0
 62
7
  6
Continuous
370
-3
390
13
347
21
  0
LAYER
  5
28
330
1
100
AcDbSymbolTableRecord
100
AcDbLayerTableRecord
  2
Defpoints
 70
0
 62
7
  6
Continuous
290
0
370
-3
390
13
347
21
  0
LAYER
  5
2F
330
1
100
AcDbSymbolTableRecord
100
AcDbLayerTableRecord
  2
visible
 70
0
 62
7
  6
Continuous
370
-3
390
13
347
21
  0
ENDTAB
  0
TABLE
  2
STYLE
  5
5
330
0
100
AcDbSymbolTable
 70
1
  0
STYLE
  5
29
330
5
100
AcDbSymbolTableRecord
100
AcDbTextStyleTableRecord
  2
Standard
 70
0
 40
0.0
 41
1.0
 50
0.0
 71
0
 42
2.5
  3
txt
  4

  0
ENDTAB
  0
TABLE
  2
VIEW
  5
7
330
0
100
AcDbSymbolTable
 70
0
  0
ENDTAB
  0
TABLE
  2
UCS
  5
6
330
0
100
AcDbSymbolTable
 70
0
  0
ENDTAB
  0
TABLE
  2
APPID
  5
3
330
0
100
AcDbSymbolTable
 70
3
  0
APPID
  5
2A
330
3
100
AcDbSymbolTableRecord
100
AcDbRegAppTableRecord
  2
ACAD
 70
0
  0
APPID
  5
1BB
330
3
100
AcDbSymbolTableRecord
100
AcDbRegAppTableRecord
  2
HATCHBACKGROUNDCOLOR
 70
0
  0
APPID
  5
1BC
330
3
100
AcDbSymbolTableRecord
100
AcDbRegAppTableRecord
  2
EZDXF
 70
0
  0
ENDTAB
  0
TABLE
  2
DIMSTYLE
  5
4
330
0
100
AcDbSymbolTable
 70
1
100
AcDbDimStyleTable
  0
DIMSTYLE
105
2B
330
4
100
AcDbSymbolTableRecord
100
AcDbDimStyleTableRecord
  2
Standard
 70
0
 40
1.0
 41
2.5
 42
0.625
 43
3.75
 44
1.25
 45
0.0
 46
0.0
 47
0.0
 48
0.0
 49
2.5
140
2.5
141
2.5
142
0.0
143
0.03937007874
144
1.0
145
0.0
146
1.0
147
0.625
148
0.0
 69
0
 70
0
 71
0
 72
0
 73
0
 74
0
 75
0
 76
0
 77
1
 78
8
 79
3
170
0
171
3
172
1
173
0
174
0
175
0
176
0
177
0
178
0
179
2
271
2
272
2
273
2
274
3
275
0
276
0
277
2
278
44
279
0
280
0
281
0
282
0
283
0
284
8
285
0
286
0
288
0
289
3
290
0
371
-2
372
-2
  0
ENDTAB
  0
TABLE
  2
BLOCK_RECORD
  5
9
330
0
100
AcDbSymbolTable
 70
2
  0
BLOCK_RECORD
  5
17
330
9
100
AcDbSymbolTableRecord
100
AcDbBlockTableRecord
  2
*Model_Space
340
1A
 70
0
280
1
281
0
  0
BLOCK_RECORD
  5
1B
330
9
100
AcDbSymbolTableRecord
100
AcDbBlockTableRecord
  2
*Paper_Space
340
1E
 70
0
280
1
281
0
  0
ENDTAB
  0
ENDSEC
  0
SECTION
  2
BLOCKS
  0
BLOCK
  5
18
330
17
100
AcDbEntity
  8
0
100
AcDbBlockBegin
  2
*Model_Space
 70
0
 10
0.0
 20
0.0
 30
0.0
  3
*Model_Space
  1

  0
ENDBLK
  5
19
330
17
100
AcDbEntity
  8
0
100
AcDbBlockEnd
  0
BLOCK
  5
1C
330
1B
100
AcDbEntity
  8
0
100
AcDbBlockBegin
  2
*Paper_Space
 70
0
 10
0.0
 20
0.0
 30
0.0
  3
*Paper_Space
  1

  0
ENDBLK
  5
1D
330
1B
100
AcDbEntity
  8
0
100
AcDbBlockEnd
  0
ENDSEC
  0
SECTION
  2
ENTITIES
  0
ELLIPSE
  5
30
330
17
100
AcDbEntity
  8
visible
100
AcDbEllipse
 10
-47.79999997003998
 20
10.227246046522389
 30
0.0
 11
12.0
 21
-3.833743340506318e-16
 31
0.0
 40
0.49520304405965215
 41
3.05376046878323
 42
3.141592653589793
  0
ELLIPSE
  5
31
330
17
100
AcDbEntity
  8
visible
100
AcDbEllipse
 10
-47.79999997003998
 20
10.227246046522389
 30
0.0
 11
12.0
 21
-3.833743340506318e-16
 31
0.0
 40
0.49520304405965215
 41
3.141592653589793
 42
4.068887871491405
  0
ELLIPSE
  5
32
330
17
100
AcDbEntity
  8
visible
100
AcDbEllipse
 10
-47.79999997003998
 20
5.448971060618987
 30
0.0
 11
12.0
 21
-3.833743340506318e-16
 31
0.0
 40
0.49520304405965215
 41
3.411623718245889
 42
4.068887871491405
  0
LINE
  5
33
330
17
100
AcDbEntity
  8
visible
100
AcDbLine
 10
-59.36515128980616
 20
-6.561568725187577
 30
0.0
 11
-59.36515128980616
 21
3.863758516783477
 31
0.0
  0
ELLIPSE
  5
34
330
17
100
AcDbEntity
  8
visible
100
AcDbEllipse
 10
-47.79999997003998
 20
-4.976356181352067
 30
0.0
 11
12.0
 21
-3.833743340506318e-16
 31
0.0
 40
0.49520304405965215
 41
3.411623718245889
 42
4.068887871491405
  0
LINE
  5
35
330
17
100
AcDbEntity
  8
visible
100
AcDbLine
 10
19.440000033592025
 20
28.584422886511796
 30
0.0
 11
19.80000003364002
 21
28.450718064570005
 31
0.0
  0
LINE
  5
36
330
17
100
AcDbEntity
  8
visible
100
AcDbLine
 10
19.433938802725198
 20
28.20901855013871
 30
0.0
 11
19.800000033640025
 21
28.450718064570015
 31
0.0
  0
ELLIPSE
  5
37
330
17
100
AcDbEntity
  8
visible
100
AcDbEllipse
 10
-47.79999997003998
 20
10.227246046522389
 30
0.0
 11
-11.389897948556635
 21
3.638828784110464e-16
 31
0.0
 40
0.4952030440596522
 41
-6.076576485254451
 42
-5.355890089277974
  0
LINE
  5
38
330
17
100
AcDbEntity
  8
visible
100
AcDbLine
 10
6.166061255354851
 20
-16.866262473793395
 30
0.0
 11
-54.633938740085156
 21
5.714996338337588
 31
0.0
  0
ELLIPSE
  5
39
330
17
100
AcDbEntity
  8
visible
100
AcDbEllipse
 10
13.000000025400027
 20
-12.35401276560859
 30
0.0
 11
-11.389897948556635
 21
3.638828784110464e-16
 31
0.0
 40
0.4952030440596522
 41
-5.355890089277974
 42
-3.7850937624830774
  0
LINE
  5
3A
330
17
100
AcDbEntity
  8
visible
100
AcDbLine
 10
56.91191838820195
 20
7.239221195192324
 30
0.0
 11
22.111918383561935
 21
-15.738200047452235
 31
0.0
  0
ELLIPSE
  5
3B
330
17
100
AcDbEntity
  8
visible
100
AcDbEllipse
 10
47.800000030040025
 20
10.623408477035966
 30
0.0
 11
-11.389897948556635
 21
7.27765756822093e-16
 31
0.0
 40
0.4952030440596522
 41
-3.785093762483077
 42
-3.3482014755149287
  0
ELLIPSE
  5
3C
330
17
100
AcDbEntity
  8
visible
100
AcDbEllipse
 10
47.800000030040025
 20
10.623408477035966
 30
0.0
 11
12.0
 21
-3.833743340506318e-16
 31
0.0
 40
0.49520304405965215
 41
5.639684198286302
 42
6.283185307179586
  0
ELLIPSE
  5
3D
330
17
100
AcDbEntity
  8
visible
100
AcDbEllipse
 10
47.800000030040025
 20
10.623408477035966
 30
0.0
 11
12.0
 21
-3.833743340506318e-16
 31
0.0
 40
0.49520304405965215
 41
0.0
 42
0.08783218480656296
  0
LINE
  5
3E
330
17
100
AcDbEntity
  8
visible
100
AcDbLine
 10
57.400000029320026
 20
7.057946559331079
 30
0.0
 11
22.60000002468002
 21
-15.919474683313478
 31
0.0
  0
ELLIPSE
  5
3F
330
17
100
AcDbEntity
  8
visible
100
AcDbEllipse
 10
13.000000025400023
 20
-12.354012765608587
 30
0.0
 11
12.0
 21
-3.833743340506318e-16
 31
0.0
 40
0.49520304405965215
 41
4.068887871491405
 42
5.639684198286302
  0
LINE
  5
40
330
17
100
AcDbEntity
  8
visible
100
AcDbLine
 10
-54.99999997099997
 20
5.473296823906275
 30
0.0
 11
5.800000024440024
 21
-17.10796198822471
 31
0.0
  0
LINE
  5
41
330
17
100
AcDbEntity
  8
visible
100
AcDbLine
 10
-54.999999970999966
 20
-9.730305403968183
 30
0.0
 11
-50.19999997135997
 21
-11.513036362820628
 31
0.0
  0
LINE
  5
42
330
17
100
AcDbEntity
  8
visible
100
AcDbLine
 10
-54.999999970999966
 20
0.6950218380028717
 30
0.0
 11
-50.19999997135997
 21
-1.0877091208495742
 31
0.0
  0
LINE
  5
43
330
17
100
AcDbEntity
  8
visible
100
AcDbLine
 10
-50.19999997135997
 20
-1.0877091208495706
 30
0.0
 11
-50.19999997135997
 21
-11.513036362820626
 31
0.0
  0
LINE
  5
44
330
17
100
AcDbEntity
  8
visible
100
AcDbLine
 10
-42.599999971929975
 20
-15.638859619583382
 30
0.0
 11
-38.59999997222997
 21
-17.12446875196042
 31
0.0
  0
LINE
  5
45
330
17
100
AcDbEntity
  8
visible
100
AcDbLine
 10
-42.599999971929975
 20
-15.63885961958338
 30
0.0
 11
-42.599999971929975
 21
-18.245191430076144
 31
0.0
  0
LINE
  5
46
330
17
100
AcDbEntity
  8
visible
100
AcDbLine
 10
-38.59999997222997
 20
-17.12446875196042
 30
0.0
 11
-38.59999997222997
 21
-19.730800562453183
 31
0.0
  0
LINE
  5
47
330
17
100
AcDbEntity
  8
visible
100
AcDbLine
 10
-42.599999971929975
 20
-18.245191430076144
 30
0.0
 11
-38.59999997222997
 21
-19.730800562453183
 31
0.0
  0
LINE
  5
48
330
17
100
AcDbEntity
  8
visible
100
AcDbLine
 10
-34.59999997252997
 20
-18.610077884337457
 30
0.0
 11
-30.59999997282997
 21
-20.095687016714496
 31
0.0
  0
LINE
  5
49
330
17
100
AcDbEntity
  8
visible
100
AcDbLine
 10
-34.59999997252997
 20
-18.610077884337457
 30
0.0
 11
-34.59999997252997
 21
-21.216409694830222
 31
0.0
  0
LINE
  5
4A
330
17
100
AcDbEntity
  8
visible
100
AcDbLine
 10
-30.599999972829973
 20
-20.095687016714493
 30
0.0
 11
-30.599999972829973
 21
-22.702018827207258
 31
0.0
  0
LINE
  5
4B
330
17
100
AcDbEntity
  8
visible
100
AcDbLine
 10
-34.59999997252997
 20
-21.216409694830222
 30
0.0
 11
-30.59999997282997
 21
-22.702018827207258
 31
0.0
  0
LINE
  5
4C
330
17
100
AcDbEntity
  8
visible
100
AcDbLine
 10
-29.267578057929907
 20
-9.1558222094002
 30
0.0
 11
-29.267578057929907
 21
-9.78831581770826
 31
0.0
  0
SPLINE
  5
4D
330
17
100
AcDbEntity
  8
visible
100
AcDbSpline
 70
0
 71
2
 72
6
 73
3
 74
0
 40
0.0
 40
0.0
 40
0.0
 40
1.0
 40
1.0
 40
1.0
 10
-29.26757805792991
 20
-9.155822209400199
 30
0.0
 10
-29.55081591536252
 20
-8.840416977975423
 30
0.0
 10
-29.87597649538428
 20
-8.61361483652769
 30
0.0
  0
SPLINE
  5
4E
330
17
100
AcDbEntity
  8
visible
100
AcDbSpline
 70
0
 71
2
 72
6
 73
3
 74
0
 40
0.0
 40
0.0
 40
0.0
 40
1.0
 40
1.0
 40
1.0
 10
-29.862304620385302
 20
-9.145770609040252
 30
0.0
 10
-29.539009282768383
 20
-9.410773572556316
 30
0.0
 10
-29.26757805792991
 20
-9.788315817708256
 30
0.0
  0
SPLINE
  5
4F
330
17
100
AcDbEntity
  8
visible
100
AcDbSpline
 70
0
 71
2
 72
6
 73
3
 74
0
 40
0.0
 40
0.0
 40
0.0
 40
1.0
 40
1.0
 40
1.0
 10
-29.87597649538428
 20
-8.613614836527692
 30
0.0
 10
-30.20606826193827
 20
-8.384702751773737
 30
0.0
 10
-30.566406182832495
 20
-8.251772072889457
 30
0.0
  0
SPLINE
  5
50
330
17
100
AcDbEntity
  8
visible
100
AcDbSpline
 70
0
 71
2
 72
6
 73
3
 74
0
 40
0.0
 40
0.0
 40
0.0
 40
1.0
 40
1.0
 40
1.0
 10
-30.533593682834955
 20
-8.756888001285358
 30
0.0
 10
-30.181180342460955
 20
-8.887197290084153
 30
0.0
 10
-29.862304620385302
 20
-9.145770609040254
 30
0.0
  0
SPLINE
  5
51
330
17
100
AcDbEntity
  8
visible
100
AcDbSpline
 70
0
 71
3
 72
11
 73
7
 74
0
 40
0.0
 40
0.0
 40
0.0
 40
0.0
 40
0.541695364487221
 40
0.541695364487221
 40
0.541695364487221
 40
0.9374677269213141
 40
0.9374677269213141
 40
0.9374677269213141
 40
0.9374677269213141
 10
-30.566406182832495
 20
-8.251772072889455
 30
0.0
 10
-30.864673523927486
 20
-8.14077527991764
 30
0.0
 10
-31.160316104421845
 20
-8.079714699841725
 30
0.0
 10
-31.428297107767857
 20
-8.100201885607461
 30
0.0
 10
-31.62565707039485
 20
-8.11495526824616
 30
0.0
 10
-31.80155894541029
 20
-8.173144671434436
 30
0.0
 10
-31.95600273281422
 20
-8.274770095172329
 30
0.0
  0
SPLINE
  5
52
330
17
100
AcDbEntity
  8
visible
100
AcDbSpline
 70
0
 71
1
 72
4
 73
2
 74
0
 40
0.0
 40
0.0
 40
1.0
 40
1.0
 10
-31.95600273281422
 20
-8.274770095172329
 30
0.0
 10
-32.02656243272298
 20
-8.325628321692438
 30
0.0
  0
SPLINE
  5
53
330
17
100
AcDbEntity
  8
visible
100
AcDbSpline
 70
0
 71
2
 72
6
 73
3
 74
0
 40
0.0
 40
0.0
 40
0.0
 40
0.09696287823475755
 40
0.09696287823475755
 40
0.09696287823475755
 10
-31.60546868275457
 20
-8.82351066125431
 30
0.0
 10
-31.56813021901702
 20
-8.790696066842422
 30
0.0
 10
-31.527064116232165
 20
-8.763560891101294
 30
0.0
  0
SPLINE
  5
54
330
17
100
AcDbEntity
  8
visible
100
AcDbSpline
 70
0
 71
3
 72
8
 73
4
 74
0
 40
0.0
 40
0.0
 40
0.0
 40
0.0
 40
1.0
 40
1.0
 40
1.0
 40
1.0
 10
-31.52706411623216
 20
-8.763560891101294
 30
0.0
 10
-31.27239251989991
 20
-8.590772371684476
 30
0.0
 10
-30.907921879777575
 20
-8.614949422352167
 30
0.0
 10
-30.533593682834955
 20
-8.756888001285356
 30
0.0
  0
SPLINE
  5
55
330
17
100
AcDbEntity
  8
visible
100
AcDbSpline
 70
0
 71
3
 72
11
 73
7
 74
0
 40
0.0
 40
0.0
 40
0.0
 40
0.0
 40
0.6298555326701425
 40
0.6298555326701425
 40
0.6298555326701425
 40
1.0
 40
1.0
 40
1.0
 40
1.0
 10
-32.02656243272298
 20
-8.325628321692436
 30
0.0
 10
-32.266421889168136
 20
-8.511431784422626
 30
0.0
 10
-32.42244893207222
 20
-8.805467044086242
 30
0.0
 10
-32.49666843268773
 20
-9.154307989212448
 30
0.0
 10
-32.539911033760056
 20
-9.360585906756125
 30
0.0
 10
-32.560943408758476
 20
-9.580070030048383
 30
0.0
 10
-32.559765557682994
 20
-9.812760359089204
 30
0.0
  0
SPLINE
  5
56
330
17
100
AcDbEntity
  8
visible
100
AcDbSpline
 70
0
 71
3
 72
8
 73
4
 74
0
 40
0.0
 40
0.0
 40
0.0
 40
0.0
 40
1.0
 40
1.0
 40
1.0
 40
1.0
 10
-31.977343682726676
 20
-10.029073173188243
 30
0.0
 10
-31.978492893442812
 20
-9.530721051436796
 30
0.0
 10
-31.885088987059106
 20
-9.067300640479946
 30
0.0
 10
-31.60546868275457
 20
-8.823510661254309
 30
0.0
  0
SPLINE
  5
57
330
17
100
AcDbEntity
  8
visible
100
AcDbSpline
 70
0
 71
3
 72
11
 73
7
 74
0
 40
0.0
 40
0.0
 40
0.0
 40
0.0
 40
0.36781947571318296
 40
0.36781947571318296
 40
0.36781947571318296
 40
1.0
 40
1.0
 40
1.0
 40
1.0
 10
-32.559765557682994
 20
-9.812760359089204
 30
0.0
 10
-32.560916678486784
 20
-10.04272877857993
 30
0.0
 10
-32.540128155050844
 20
-10.275965778557222
 30
0.0
 10
-32.497399987375175
 20
-10.512471359021049
 30
0.0
 10
-32.423368647850324
 20
-10.917276062611675
 30
0.0
 10
-32.26700447831287
 20
-11.328151373158835
 30
0.0
 10
-32.02656243272299
 20
-11.692988658881818
 30
0.0
  0
SPLINE
  5
58
330
17
100
AcDbEntity
  8
visible
100
AcDbSpline
 70
0
 71
3
 72
8
 73
4
 74
0
 40
0.0
 40
0.0
 40
0.0
 40
0.0
 40
1.0
 40
1.0
 40
1.0
 40
1.0
 10
-31.60546868275457
 20
-11.507896679613394
 30
0.0
 10
-31.884699199265004
 20
-11.05714900945265
 30
0.0
 10
-31.9785379552198
 20
-10.525543501630978
 30
0.0
 10
-31.977343682726676
 20
-10.029073173188243
 30
0.0
  0
SPLINE
  5
59
330
17
100
AcDbEntity
  8
visible
100
AcDbSpline
 70
0
 71
3
 72
11
 73
7
 74
0
 40
0.0
 40
0.0
 40
0.0
 40
0.0
 40
0.45830463551269063
 40
0.45830463551269063
 40
0.45830463551269063
 40
1.0
 40
1.0
 40
1.0
 40
1.0
 10
-32.02656243272298
 20
-11.69298865888182
 30
0.0
 10
-31.859261408822675
 20
-11.94929456414996
 30
0.0
 10
-31.65499605862682
 20
-12.177913209572264
 30
0.0
 10
-31.42829710776785
 20
-12.362809310169062
 30
0.0
 10
-31.160316104421806
 20
-12.58235400888694
 30
0.0
 10
-30.86467352392747
 20
-12.74089808757845
 30
0.0
 10
-30.566406182832495
 20
-12.851455637533505
 30
0.0
  0
SPLINE
  5
5A
330
17
100
AcDbEntity
  8
visible
100
AcDbSpline
 70
0
 71
3
 72
11
 73
7
 74
0
 40
0.0
 40
0.0
 40
0.0
 40
0.0
 40
0.5601545193542434
 40
0.5601545193542434
 40
0.5601545193542434
 40
1.0
 40
1.0
 40
1.0
 40
1.0
 10
-30.533593682834955
 20
-12.370712983965669
 30
0.0
 10
-30.766178586007108
 20
-12.284506155583035
 30
0.0
 10
-30.993786500585557
 20
-12.160785295894886
 30
0.0
 10
-31.19495772966034
 20
-11.989066304241586
 30
0.0
 10
-31.354430347819182
 20
-11.85315301999913
 30
0.0
 10
-31.491267332183906
 20
-11.692763145123056
 30
0.0
 10
-31.605468682754562
 20
-11.507896679613395
 30
0.0
  0
SPLINE
  5
5B
330
17
100
AcDbEntity
  8
visible
100
AcDbSpline
 70
0
 71
2
 72
6
 73
3
 74
0
 40
0.0
 40
0.0
 40
0.0
 40
1.0
 40
1.0
 40
1.0
 10
-30.566406182832495
 20
-12.851455637533505
 30
0.0
 10
-30.210232247040622
 20
-12.984456212420396
 30
0.0
 10
-29.88144524538387
 20
-12.998951365386649
 30
0.0
  0
SPLINE
  5
5C
330
17
100
AcDbEntity
  8
visible
100
AcDbSpline
 70
0
 71
2
 72
6
 73
3
 74
0
 40
0.0
 40
0.0
 40
0.0
 40
1.0
 40
1.0
 40
1.0
 10
-29.862304620385302
 20
-12.480466957068185
 30
0.0
 10
-30.181180339331586
 20
-12.502177933879086
 30
0.0
 10
-30.533593682834955
 20
-12.370712983965669
 30
0.0
  0
SPLINE
  5
5D
330
17
100
AcDbEntity
  8
visible
100
AcDbSpline
 70
0
 71
2
 72
6
 73
3
 74
0
 40
0.0
 40
0.0
 40
0.0
 40
1.0
 40
1.0
 40
1.0
 10
-29.88144524538387
 20
-12.998951365386649
 30
0.0
 10
-29.555190776638398
 20
-13.01202791283779
 30
0.0
 10
-29.26757805792991
 20
-12.906242055846572
 30
0.0
  0
SPLINE
  5
5E
330
17
100
AcDbEntity
  8
visible
100
AcDbSpline
 70
0
 71
2
 72
6
 73
3
 74
0
 40
0.0
 40
0.0
 40
0.0
 40
1.0
 40
1.0
 40
1.0
 10
-29.26757805792991
 20
-12.279687354658776
 30
0.0
 10
-29.539009281748505
 20
-12.455609246302144
 30
0.0
 10
-29.862304620385302
 20
-12.480466957068185
 30
0.0
  0
LINE
  5
5F
330
17
100
AcDbEntity
  8
visible
100
AcDbLine
 10
-29.267578057929907
 20
-12.279687354658778
 30
0.0
 11
-29.267578057929907
 21
-12.906242055846574
 31
0.0
  0
LINE
  5
60
330
17
100
AcDbEntity
  8
visible
100
AcDbLine
 10
-28.920312432955946
 20
-13.376704461226883
 30
0.0
 11
-27.361718683072837
 21
-9.522175573116652
 31
0.0
  0
LINE
  5
61
330
17
100
AcDbEntity
  8
visible
100
AcDbLine
 10
-28.337890557999632
 20
-13.59301727532592
 30
0.0
 11
-28.92031243295595
 21
-13.376704461226879
 31
0.0
  0
LINE
  5
62
330
17
100
AcDbEntity
  8
visible
100
AcDbLine
 10
-27.361718683072844
 20
-9.522175573116652
 30
0.0
 11
-26.735546808119807
 21
-9.754737237101065
 31
0.0
  0
LINE
  5
63
330
17
100
AcDbEntity
  8
visible
100
AcDbLine
 10
-27.96601555802752
 20
-12.593831785821143
 30
0.0
 11
-28.33789055799963
 21
-13.593017275325918
 31
0.0
  0
LINE
  5
64
330
17
100
AcDbEntity
  8
visible
100
AcDbLine
 10
-26.735546808119807
 20
-9.754737237101061
 30
0.0
 11
-25.179687433236495
 21
-14.765981126426343
 31
0.0
  0
LINE
  5
65
330
17
100
AcDbEntity
  8
visible
100
AcDbLine
 10
-26.125781183165543
 20
-13.277299034124685
 30
0.0
 11
-27.966015558027525
 21
-12.593831785821145
 31
0.0
  0
LINE
  5
66
330
17
100
AcDbEntity
  8
visible
100
AcDbLine
 10
-25.1796874332365
 20
-14.765981126426347
 30
0.0
 11
-25.753906183193433
 21
-14.552714971680814
 31
0.0
  0
LINE
  5
67
330
17
100
AcDbEntity
  8
visible
100
AcDbLine
 10
-25.753906183193433
 20
-14.552714971680809
 30
0.0
 11
-26.125781183165543
 21
-13.277299034124677
 31
0.0
  0
LINE
  5
68
330
17
100
AcDbEntity
  8
visible
100
AcDbLine
 10
-26.599999973129975
 20
-21.581296149091536
 30
0.0
 11
-22.599999973429977
 21
-23.06690528146857
 31
0.0
  0
LINE
  5
69
330
17
100
AcDbEntity
  8
visible
100
AcDbLine
 10
-26.599999973129975
 20
-21.58129614909153
 30
0.0
 11
-26.599999973129975
 21
-24.187627959584294
 31
0.0
  0
LINE
  5
6A
330
17
100
AcDbEntity
  8
visible
100
AcDbLine
 10
-22.599999973429973
 20
-23.06690528146857
 30
0.0
 11
-22.599999973429973
 21
-25.673237091961333
 31
0.0
  0
LINE
  5
6B
330
17
100
AcDbEntity
  8
visible
100
AcDbLine
 10
-26.599999973129975
 20
-24.187627959584297
 30
0.0
 11
-22.599999973429977
 21
-25.673237091961337
 31
0.0
  0
LINE
  5
6C
330
17
100
AcDbEntity
  8
visible
100
AcDbLine
 10
-18.599999973729975
 20
-24.55251441384561
 30
0.0
 11
-14.599999974029974
 21
-26.03812354622265
 31
0.0
  0
LINE
  5
6D
330
17
100
AcDbEntity
  8
visible
100
AcDbLine
 10
-18.599999973729975
 20
-24.552514413845607
 30
0.0
 11
-18.599999973729975
 21
-27.158846224338372
 31
0.0
  0
LINE
  5
6E
330
17
100
AcDbEntity
  8
visible
100
AcDbLine
 10
-14.599999974029975
 20
-26.03812354622265
 30
0.0
 11
-14.599999974029975
 21
-28.644455356715415
 31
0.0
  0
LINE
  5
6F
330
17
100
AcDbEntity
  8
visible
100
AcDbLine
 10
-18.599999973729975
 20
-27.158846224338372
 30
0.0
 11
-14.599999974029974
 21
-28.64445535671541
 31
0.0
  0
LINE
  5
70
330
17
100
AcDbEntity
  8
visible
100
AcDbLine
 10
-10.599999974329972
 20
-27.523732678599686
 30
0.0
 11
-6.599999974629974
 21
-29.00934181097672
 31
0.0
  0
LINE
  5
71
330
17
100
AcDbEntity
  8
visible
100
AcDbLine
 10
-6.599999974629977
 20
-29.00934181097672
 30
0.0
 11
-6.599999974629977
 21
-31.615673621469487
 31
0.0
  0
LINE
  5
72
330
17
100
AcDbEntity
  8
visible
100
AcDbLine
 10
-10.599999974329972
 20
-30.130064489092447
 30
0.0
 11
-6.599999974629974
 21
-31.61567362146949
 31
0.0
  0
LINE
  5
73
330
17
100
AcDbEntity
  8
visible
100
AcDbLine
 10
-10.599999974329975
 20
-27.523732678599686
 30
0.0
 11
-10.599999974329975
 21
-30.13006448909245
 31
0.0
  0
LINE
  5
74
330
17
100
AcDbEntity
  8
visible
100
AcDbLine
 10
-24.583593683281205
 20
-14.98737170611456
 30
0.0
 11
-24.583593683281205
 21
-10.553977540837888
 31
0.0
  0
LINE
  5
75
330
17
100
AcDbEntity
  8
visible
100
AcDbLine
 10
-24.0476561833214
 20
-15.186420117210393
 30
0.0
 11
-24.583593683281205
 21
-14.987371706114562
 31
0.0
  0
LINE
  5
76
330
17
100
AcDbEntity
  8
visible
100
AcDbLine
 10
-24.5835936832812
 20
-10.553977540837893
 30
0.0
 11
-23.760546808342934
 21
-10.859659029306489
 31
0.0
  0
LINE
  5
77
330
17
100
AcDbEntity
  8
visible
100
AcDbLine
 10
-24.0476561833214
 20
-11.293466499877692
 30
0.0
 11
-24.0476561833214
 21
-15.186420117210389
 31
0.0
  0
LINE
  5
78
330
17
100
AcDbEntity
  8
visible
100
AcDbLine
 10
-23.760546808342934
 20
-10.859659029306483
 30
0.0
 11
-22.71874993342107
 21
-14.263549584295786
 31
0.0
  0
LINE
  5
79
330
17
100
AcDbEntity
  8
visible
100
AcDbLine
 10
-22.99492180840036
 20
-14.725174895819391
 30
0.0
 11
-24.047656183321404
 21
-11.293466499877692
 31
0.0
  0
LINE
  5
7A
330
17
100
AcDbEntity
  8
visible
100
AcDbLine
 10
-22.718749933421066
 20
-14.263549584295786
 30
0.0
 11
-21.67148430849961
 21
-11.635541611333085
 31
0.0
  0
LINE
  5
7B
330
17
100
AcDbEntity
  8
visible
100
AcDbLine
 10
-22.439843683441985
 20
-14.931332178740075
 30
0.0
 11
-22.994921808400353
 21
-14.725174895819395
 31
0.0
  0
LINE
  5
7C
330
17
100
AcDbEntity
  8
visible
100
AcDbLine
 10
-21.671484308499608
 20
-11.635541611333089
 30
0.0
 11
-20.848437433561337
 21
-11.941223099801684
 31
0.0
  0
LINE
  5
7D
330
17
100
AcDbEntity
  8
visible
100
AcDbLine
 10
-21.38710930852094
 20
-12.28159968353199
 30
0.0
 11
-22.439843683441985
 21
-14.931332178740073
 31
0.0
  0
LINE
  5
7E
330
17
100
AcDbEntity
  8
visible
100
AcDbLine
 10
-20.848437433561344
 20
-11.941223099801682
 30
0.0
 11
-20.848437433561344
 21
-16.374617265078356
 31
0.0
  0
LINE
  5
7F
330
17
100
AcDbEntity
  8
visible
100
AcDbLine
 10
-21.38710930852094
 20
-16.174553300864687
 30
0.0
 11
-21.38710930852094
 21
-12.281599683531992
 31
0.0
  0
LINE
  5
80
330
17
100
AcDbEntity
  8
visible
100
AcDbLine
 10
-20.848437433561347
 20
-16.374617265078356
 30
0.0
 11
-21.387109308520944
 21
-16.17455330086469
 31
0.0
  0
LINE
  5
81
330
17
100
AcDbEntity
  8
visible
100
AcDbLine
 10
-18.67734368372417
 20
-14.814311953215046
 30
0.0
 11
-19.948828058628813
 21
-12.275340075569684
 31
0.0
  0
LINE
  5
82
330
17
100
AcDbEntity
  8
visible
100
AcDbLine
 10
-20.134765558614866
 20
-16.639676628833513
 30
0.0
 11
-18.677343683724175
 21
-14.814311953215043
 31
0.0
  0
LINE
  5
83
330
17
100
AcDbEntity
  8
visible
100
AcDbLine
 10
-19.948828058628813
 20
-12.275340075569684
 30
0.0
 11
-19.355468683673315
 21
-12.495715102140066
 31
0.0
  0
LINE
  5
84
330
17
100
AcDbEntity
  8
visible
100
AcDbLine
 10
-19.53867180865957
 20
-16.861067208521735
 30
0.0
 11
-20.134765558614863
 21
-16.639676628833517
 31
0.0
  0
LINE
  5
85
330
17
100
AcDbEntity
  8
visible
100
AcDbLine
 10
-19.35546868367331
 20
-12.495715102140064
 30
0.0
 11
-18.34101555874939
 21
-14.52053203473028
 31
0.0
  0
LINE
  5
86
330
17
100
AcDbEntity
  8
visible
100
AcDbLine
 10
-18.382031183746317
 20
-15.405043166682656
 30
0.0
 11
-19.538671808659572
 21
-16.86106720852174
 31
0.0
  0
LINE
  5
87
330
17
100
AcDbEntity
  8
visible
100
AcDbLine
 10
-18.341015558749397
 20
-14.520532034730275
 30
0.0
 11
-17.321093683825893
 21
-13.251286621809944
 31
0.0
  0
LINE
  5
88
330
17
100
AcDbEntity
  8
visible
100
AcDbLine
 10
-17.233593683832453
 20
-17.717178486857367
 30
0.0
 11
-18.382031183746317
 21
-15.405043166682656
 31
0.0
  0
LINE
  5
89
330
17
100
AcDbEntity
  8
visible
100
AcDbLine
 10
-17.321093683825893
 20
-13.251286621809951
 30
0.0
 11
-16.727734308870396
 21
-13.471661648380334
 31
0.0
  0
LINE
  5
8A
330
17
100
AcDbEntity
  8
visible
100
AcDbLine
 10
-16.640234308876956
 20
-17.93755351342775
 30
0.0
 11
-17.23359368383246
 21
-17.71717848685737
 31
0.0
  0
LINE
  5
8B
330
17
100
AcDbEntity
  8
visible
100
AcDbLine
 10
-16.727734308870392
 20
-13.471661648380332
 30
0.0
 11
-18.040234308771957
 21
-15.113294354433567
 31
0.0
  0
LINE
  5
8C
330
17
100
AcDbEntity
  8
visible
100
AcDbLine
 10
-18.040234308771954
 20
-15.113294354433567
 30
0.0
 11
-16.640234308876956
 21
-17.93755351342775
 31
0.0
  0
LINE
  5
8D
330
17
100
AcDbEntity
  8
visible
100
AcDbLine
 10
-59.36515128980616
 20
-6.561568725187578
 30
0.0
 11
-50.19999997135997
 21
-9.965526850018154
 31
0.0
  0
LINE
  5
8E
330
17
100
AcDbEntity
  8
visible
100
AcDbLine
 10
19.800000033640025
 20
24.106831713748743
 30
0.0
 11
27.60000003268003
 21
21.209893905752793
 31
0.0
  0
LINE
  5
8F
330
17
100
AcDbEntity
  8
visible
100
AcDbLine
 10
19.80000003364002
 20
28.45071806457002
 30
0.0
 11
19.80000003364002
 21
24.106831713748747
 31
0.0
  0
LINE
  5
90
330
17
100
AcDbEntity
  8
visible
100
AcDbLine
 10
19.433938802725198
 20
29.251551274335817
 30
0.0
 11
19.51578950697055
 21
29.30559489819219
 31
0.0
  0
ELLIPSE
  5
91
330
17
100
AcDbEntity
  8
visible
100
AcDbEllipse
 10
19.14000003355202
 20
28.970594383010877
 30
0.0
 11
-0.17408243680360475
 21
-0.46871665769046333
 31
0.0
 40
0.521266362168055
 41
2.189862381475981
 42
2.391220302266313
  0
LINE
  5
92
330
17
100
AcDbEntity
  8
visible
100
AcDbLine
 10
19.44000003359202
 20
29.168675600619892
 30
0.0
 11
19.44000003359202
 21
28.299898330455637
 31
0.0
  0
ELLIPSE
  5
93
330
17
100
AcDbEntity
  8
visible
100
AcDbEllipse
 10
19.14000003355202
 20
28.101817112846632
 30
0.0
 11
-0.17408243680360475
 21
-0.46871665769046333
 31
0.0
 40
0.521266362168055
 41
1.9885044606856486
 42
2.1898623814759812
  0
LINE
  5
94
330
17
100
AcDbEntity
  8
visible
100
AcDbLine
 10
18.000000033400024
 20
22.918344408094715
 30
0.0
 11
19.800000033640025
 21
24.106831713748743
 31
0.0
  0
LINE
  5
95
330
17
100
AcDbEntity
  8
visible
100
AcDbLine
 10
18.000000033400024
 20
29.868562569408752
 30
0.0
 11
18.000000033400024
 21
22.918344408094715
 31
0.0
  0
LINE
  5
96
330
17
100
AcDbEntity
  8
visible
100
AcDbLine
 10
27.600000032680025
 20
26.303100651703858
 30
0.0
 11
27.600000032680025
 21
19.35288249038982
 31
0.0
  0
LINE
  5
97
330
17
100
AcDbEntity
  8
visible
100
AcDbLine
 10
57.40000002932002
 20
-19.179126999629414
 30
0.0
 11
57.40000002932002
 21
7.057946559331075
 31
0.0
  0
LINE
  5
98
330
17
100
AcDbEntity
  8
visible
100
AcDbLine
 10
22.60000002468002
 20
-42.15654824227397
 30
0.0
 11
22.60000002468002
 21
-15.919474683313478
 31
0.0
  0
LINE
  5
99
330
17
100
AcDbEntity
  8
visible
100
AcDbLine
 10
57.40000002932002
 20
-19.179126999629414
 30
0.0
 11
22.60000002468002
 21
-42.15654824227397
 31
0.0
  0
LINE
  5
9A
330
17
100
AcDbEntity
  8
visible
100
AcDbLine
 10
51.28000002850402
 20
-4.541272530321637
 30
0.0
 11
38.32000002677602
 21
-13.098381131030644
 31
0.0
  0
LINE
  5
9B
330
17
100
AcDbEntity
  8
visible
100
AcDbLine
 10
51.28000002850402
 20
-4.541272530321635
 30
0.0
 11
51.28000002850402
 21
-12.012757053734225
 31
0.0
  0
LINE
  5
9C
330
17
100
AcDbEntity
  8
visible
100
AcDbLine
 10
38.32000002677602
 20
-13.098381131030642
 30
0.0
 11
38.32000002677602
 21
-20.569865654443234
 31
0.0
  0
LINE
  5
9D
330
17
100
AcDbEntity
  8
visible
100
AcDbLine
 10
51.28000002850402
 20
-12.012757053734225
 30
0.0
 11
38.32000002677602
 21
-20.56986565444323
 31
0.0
  0
ELLIPSE
  5
9E
330
17
100
AcDbEntity
  8
visible
100
AcDbEllipse
 10
26.80000002524002
 20
-28.784328499743992
 30
0.0
 11
-1.0444946208216277
 21
-2.8122999461427804
 31
0.0
 40
0.521266362168055
 41
0.619066054681084
 42
3.141592653589793
  0
ELLIPSE
  5
9F
330
17
100
AcDbEntity
  8
visible
100
AcDbEllipse
 10
26.80000002524002
 20
-28.784328499743992
 30
0.0
 11
-1.0444946208216277
 21
-2.8122999461427804
 31
0.0
 40
0.521266362168055
 41
3.141592653589793
 42
6.283185307179586
  0
ELLIPSE
  5
A0
330
17
100
AcDbEntity
  8
visible
100
AcDbEllipse
 10
26.80000002524002
 20
-28.784328499743992
 30
0.0
 11
-1.0444946208216277
 21
-2.8122999461427804
 31
0.0
 40
0.521266362168055
 41
0.0
 42
0.6190660546810838
  0
LINE
  5
A1
330
17
100
AcDbEntity
  8
visible
100
AcDbLine
 10
-40.79999997168997
 20
-16.307383729292326
 30
0.0
 11
-40.79999997168997
 21
-17.056704124422115
 31
0.0
  0
LINE
  5
A2
330
17
100
AcDbEntity
  8
visible
100
AcDbLine
 10
-42.599999971929975
 20
-18.245191430076144
 30
0.0
 11
-40.79999997168997
 21
-17.056704124422115
 31
0.0
  0
LINE
  5
A3
330
17
100
AcDbEntity
  8
visible
100
AcDbLine
 10
-40.79999997168998
 20
-17.05670412442212
 30
0.0
 11
-38.59999997222997
 21
-17.873789147090214
 31
0.0
  0
LINE
  5
A4
330
17
100
AcDbEntity
  8
visible
100
AcDbLine
 10
-32.799999972289974
 20
-19.278601994046397
 30
0.0
 11
-32.799999972289974
 21
-20.02792238917619
 31
0.0
  0
LINE
  5
A5
330
17
100
AcDbEntity
  8
visible
100
AcDbLine
 10
-34.59999997252998
 20
-21.216409694830222
 30
0.0
 11
-32.799999972289974
 21
-20.027922389176194
 31
0.0
  0
LINE
  5
A6
330
17
100
AcDbEntity
  8
visible
100
AcDbLine
 10
-32.799999972289974
 20
-20.027922389176194
 30
0.0
 11
-30.599999972829973
 21
-20.84500741184429
 31
0.0
  0
SPLINE
  5
A7
330
17
100
AcDbEntity
  8
visible
100
AcDbSpline
 70
0
 71
2
 72
6
 73
3
 74
0
 40
0.0
 40
0.0
 40
0.0
 40
1.0
 40
1.0
 40
1.0
 10
-29.570181507917184
 20
-8.854657948303508
 30
0.0
 10
-29.856069797244007
 20
-8.637119636191006
 30
0.0
 10
-30.173593682786954
 20
-8.51919054015455
 30
0.0
  0
SPLINE
  5
A8
330
17
100
AcDbEntity
  8
visible
100
AcDbSpline
 70
0
 71
2
 72
6
 73
3
 74
0
 40
0.0
 40
0.0
 40
0.0
 40
0.899075785582255
 40
0.899075785582255
 40
0.899075785582255
 10
-30.173593682786954
 20
-8.51919054015455
 30
0.0
 10
-30.802946732647328
 20
-8.28544738054654
 30
0.0
 10
-31.1670641163928
 20
-8.525863429597509
 30
0.0
  0
SPLINE
  5
A9
330
17
100
AcDbEntity
  8
visible
100
AcDbSpline
 70
0
 71
2
 72
6
 73
3
 74
0
 40
0.0
 40
0.0
 40
0.0
 40
0.902618383222179
 40
0.902618383222179
 40
0.902618383222179
 10
-32.19976555763499
 20
-9.575062897958396
 30
0.0
 10
-32.19976555763499
 20
-8.610160884218594
 30
0.0
 10
-31.765354336604172
 20
-8.175539328895923
 30
0.0
  0
SPLINE
  5
AA
330
17
100
AcDbEntity
  8
visible
100
AcDbSpline
 70
0
 71
2
 72
6
 73
3
 74
0
 40
0.0
 40
0.0
 40
0.0
 40
1.0
 40
1.0
 40
1.0
 10
-31.66656243267498
 20
-11.455291197751015
 30
0.0
 10
-32.19976555763499
 20
-10.641096726045685
 30
0.0
 10
-32.19976555763499
 20
-9.575062897958396
 30
0.0
  0
SPLINE
  5
AB
330
17
100
AcDbEntity
  8
visible
100
AcDbSpline
 70
0
 71
2
 72
6
 73
3
 74
0
 40
0.0
 40
0.0
 40
0.0
 40
1.0
 40
1.0
 40
1.0
 10
-30.20640618278449
 20
-12.6137581764027
 30
0.0
 10
-31.133359307714972
 20
-12.26948566945634
 30
0.0
 10
-31.66656243267498
 20
-11.455291197751015
 30
0.0
  0
SPLINE
  5
AC
330
17
100
AcDbEntity
  8
visible
100
AcDbSpline
 70
0
 71
2
 72
6
 73
3
 74
0
 40
0.0
 40
0.0
 40
0.0
 40
1.0
 40
1.0
 40
1.0
 10
-29.521445245335865
 20
-12.761253904255842
 30
0.0
 10
-29.845468682811564
 20
-12.747811187957033
 30
0.0
 10
-30.20640618278449
 20
-12.6137581764027
 30
0.0
  0
SPLINE
  5
AD
330
17
100
AcDbEntity
  8
visible
100
AcDbSpline
 70
0
 71
2
 72
6
 73
3
 74
0
 40
0.0
 40
0.0
 40
0.0
 40
1.0
 40
1.0
 40
1.0
 10
-29.267578057929907
 20
-12.752859926681502
 30
0.0
 10
-29.391774694776267
 20
-12.766633528757893
 30
0.0
 10
-29.521445245335865
 20
-12.761253904255842
 30
0.0
  0
LINE
  5
AE
330
17
100
AcDbEntity
  8
visible
100
AcDbLine
 10
-28.56031243290795
 20
-13.13900700009607
 30
0.0
 11
-27.132288006551967
 21
-9.607386650194758
 31
0.0
  0
LINE
  5
AF
330
17
100
AcDbEntity
  8
visible
100
AcDbLine
 10
-28.56031243290795
 20
-13.13900700009607
 30
0.0
 11
-28.92031243295595
 21
-13.376704461226876
 31
0.0
  0
LINE
  5
B0
330
17
100
AcDbEntity
  8
visible
100
AcDbLine
 10
-28.216449304719728
 20
-13.266718550986688
 30
0.0
 11
-28.56031243290795
 21
-13.13900700009607
 31
0.0
  0
LINE
  5
B1
330
17
100
AcDbEntity
  8
visible
100
AcDbLine
 10
-27.60601555797952
 20
-12.356134324690338
 30
0.0
 11
-27.96601555802752
 21
-12.593831785821143
 31
0.0
  0
LINE
  5
B2
330
17
100
AcDbEntity
  8
visible
100
AcDbLine
 10
-25.76578118311754
 20
-13.039601572993874
 30
0.0
 11
-27.60601555797952
 21
-12.356134324690336
 31
0.0
  0
LINE
  5
B3
330
17
100
AcDbEntity
  8
visible
100
AcDbLine
 10
-25.76578118311754
 20
-13.039601572993874
 30
0.0
 11
-26.12578118316554
 21
-13.27729903412468
 31
0.0
  0
LINE
  5
B4
330
17
100
AcDbEntity
  8
visible
100
AcDbLine
 10
-25.310027687774973
 20
-14.346170175235438
 30
0.0
 11
-25.393906183145432
 21
-14.315017510550003
 31
0.0
  0
LINE
  5
B5
330
17
100
AcDbEntity
  8
visible
100
AcDbLine
 10
-25.393906183145432
 20
-14.315017510550003
 30
0.0
 11
-25.753906183193433
 21
-14.552714971680809
 31
0.0
  0
LINE
  5
B6
330
17
100
AcDbEntity
  8
visible
100
AcDbLine
 10
-25.393906183145432
 20
-14.315017510550003
 30
0.0
 11
-25.765781183117543
 21
-13.039601572993874
 31
0.0
  0
LINE
  5
B7
330
17
100
AcDbEntity
  8
visible
100
AcDbLine
 10
-24.799999972889978
 20
-22.249820258800476
 30
0.0
 11
-24.799999972889978
 21
-22.999140653930265
 31
0.0
  0
LINE
  5
B8
330
17
100
AcDbEntity
  8
visible
100
AcDbLine
 10
-26.599999973129975
 20
-24.187627959584297
 30
0.0
 11
-24.799999972889978
 21
-22.99914065393027
 31
0.0
  0
LINE
  5
B9
330
17
100
AcDbEntity
  8
visible
100
AcDbLine
 10
-24.79999997288998
 20
-22.99914065393027
 30
0.0
 11
-22.599999973429973
 21
-23.816225676598364
 31
0.0
  0
LINE
  5
BA
330
17
100
AcDbEntity
  8
visible
100
AcDbLine
 10
-16.799999973489978
 20
-25.22103852355455
 30
0.0
 11
-16.799999973489978
 21
-25.970358918684344
 31
0.0
  0
LINE
  5
BB
330
17
100
AcDbEntity
  8
visible
100
AcDbLine
 10
-18.59999997372998
 20
-27.158846224338372
 30
0.0
 11
-16.799999973489975
 21
-25.970358918684344
 31
0.0
  0
LINE
  5
BC
330
17
100
AcDbEntity
  8
visible
100
AcDbLine
 10
-16.799999973489978
 20
-25.970358918684347
 30
0.0
 11
-14.599999974029974
 21
-26.787443941352443
 31
0.0
  0
LINE
  5
BD
330
17
100
AcDbEntity
  8
visible
100
AcDbLine
 10
-10.599999974329977
 20
-30.130064489092447
 30
0.0
 11
-8.799999974089976
 21
-28.94157718343842
 31
0.0
  0
LINE
  5
BE
330
17
100
AcDbEntity
  8
visible
100
AcDbLine
 10
-8.799999974089975
 20
-28.94157718343842
 30
0.0
 11
-6.599999974629974
 21
-29.758662206106514
 31
0.0
  0
LINE
  5
BF
330
17
100
AcDbEntity
  8
visible
100
AcDbLine
 10
-8.799999974089978
 20
-28.192256788308626
 30
0.0
 11
-8.799999974089978
 21
-28.94157718343842
 31
0.0
  0
LINE
  5
C0
330
17
100
AcDbEntity
  8
visible
100
AcDbLine
 10
-24.223593683233204
 20
-14.749674244983755
 30
0.0
 11
-24.223593683233204
 21
-10.687682362779682
 31
0.0
  0
LINE
  5
C1
330
17
100
AcDbEntity
  8
visible
100
AcDbLine
 10
-24.223593683233204
 20
-14.749674244983755
 30
0.0
 11
-24.583593683281205
 21
-14.98737170611456
 31
0.0
  0
LINE
  5
C2
330
17
100
AcDbEntity
  8
visible
100
AcDbLine
 10
-24.0476561833214
 20
-14.815017834137793
 30
0.0
 11
-24.223593683233204
 21
-14.749674244983751
 31
0.0
  0
LINE
  5
C3
330
17
100
AcDbEntity
  8
visible
100
AcDbLine
 10
-23.69836182850889
 20
-11.062837662891061
 30
0.0
 11
-24.0476561833214
 21
-11.29346649987769
 31
0.0
  0
LINE
  5
C4
330
17
100
AcDbEntity
  8
visible
100
AcDbLine
 10
-22.35874993337307
 20
-14.02585212316498
 30
0.0
 11
-22.71874993342107
 21
-14.263549584295786
 31
0.0
  0
LINE
  5
C5
330
17
100
AcDbEntity
  8
visible
100
AcDbLine
 10
-22.634921808352356
 20
-14.487477434688586
 30
0.0
 11
-22.70616459875446
 21
-14.255239856247632
 31
0.0
  0
LINE
  5
C6
330
17
100
AcDbEntity
  8
visible
100
AcDbLine
 10
-22.634921808352356
 20
-14.487477434688586
 30
0.0
 11
-22.994921808400356
 21
-14.725174895819391
 31
0.0
  0
LINE
  5
C7
330
17
100
AcDbEntity
  8
visible
100
AcDbLine
 10
-22.35874993337307
 20
-14.02585212316498
 30
0.0
 11
-21.44040753681526
 21
-11.721364051913143
 31
0.0
  0
LINE
  5
C8
330
17
100
AcDbEntity
  8
visible
100
AcDbLine
 10
-22.31125969904984
 20
-14.607686281043659
 30
0.0
 11
-22.634921808352356
 21
-14.487477434688586
 31
0.0
  0
LINE
  5
C9
330
17
100
AcDbEntity
  8
visible
100
AcDbLine
 10
-21.02710930847294
 20
-12.043902222401183
 30
0.0
 11
-21.38710930852094
 21
-12.281599683531988
 31
0.0
  0
LINE
  5
CA
330
17
100
AcDbEntity
  8
visible
100
AcDbLine
 10
-21.02710930847294
 20
-15.93685583973388
 30
0.0
 11
-21.02710930847294
 21
-12.043902222401183
 31
0.0
  0
LINE
  5
CB
330
17
100
AcDbEntity
  8
visible
100
AcDbLine
 10
-21.02710930847294
 20
-15.93685583973388
 30
0.0
 11
-21.38710930852094
 21
-16.174553300864687
 31
0.0
  0
LINE
  5
CC
330
17
100
AcDbEntity
  8
visible
100
AcDbLine
 10
-20.848437433561344
 20
-16.003214982005755
 30
0.0
 11
-21.02710930847294
 21
-15.93685583973388
 31
0.0
  0
LINE
  5
CD
330
17
100
AcDbEntity
  8
visible
100
AcDbLine
 10
-18.317343683676174
 20
-14.576614492084236
 30
0.0
 11
-19.36033667924
 21
-12.49390711747237
 31
0.0
  0
LINE
  5
CE
330
17
100
AcDbEntity
  8
visible
100
AcDbLine
 10
-18.317343683676174
 20
-14.576614492084236
 30
0.0
 11
-18.677343683724175
 21
-14.814311953215041
 31
0.0
  0
LINE
  5
CF
330
17
100
AcDbEntity
  8
visible
100
AcDbLine
 10
-19.77476555856687
 20
-16.401979167702706
 30
0.0
 11
-18.317343683676174
 21
-14.576614492084232
 31
0.0
  0
LINE
  5
D0
330
17
100
AcDbEntity
  8
visible
100
AcDbLine
 10
-19.77476555856687
 20
-16.401979167702706
 30
0.0
 11
-20.13476555861487
 21
-16.639676628833513
 31
0.0
  0
LINE
  5
D1
330
17
100
AcDbEntity
  8
visible
100
AcDbLine
 10
-19.310851336188247
 20
-16.574277969066944
 30
0.0
 11
-19.77476555856687
 21
-16.401979167702706
 31
0.0
  0
LINE
  5
D2
330
17
100
AcDbEntity
  8
visible
100
AcDbLine
 10
-17.9810155587014
 20
-14.282834573599473
 30
0.0
 11
-18.3410155587494
 21
-14.520532034730278
 31
0.0
  0
LINE
  5
D3
330
17
100
AcDbEntity
  8
visible
100
AcDbLine
 10
-18.022031183698324
 20
-15.167345705551849
 30
0.0
 11
-18.382031183746324
 21
-15.405043166682654
 31
0.0
  0
LINE
  5
D4
330
17
100
AcDbEntity
  8
visible
100
AcDbLine
 10
-17.9810155587014
 20
-14.282834573599473
 30
0.0
 11
-17.190942332457194
 21
-13.299625130859715
 31
0.0
  0
LINE
  5
D5
330
17
100
AcDbEntity
  8
visible
100
AcDbLine
 10
-16.873593683784456
 20
-17.47948102572656
 30
0.0
 11
-18.022031183698324
 21
-15.167345705551847
 31
0.0
  0
LINE
  5
D6
330
17
100
AcDbEntity
  8
visible
100
AcDbLine
 10
-16.873593683784456
 20
-17.47948102572656
 30
0.0
 11
-17.233593683832456
 21
-17.717178486857367
 31
0.0
  0
LINE
  5
D7
330
17
100
AcDbEntity
  8
visible
100
AcDbLine
 10
-16.865883793443125
 20
-17.482344496601954
 30
0.0
 11
-16.873593683784456
 21
-17.47948102572656
 31
0.0
  0
LINE
  5
D8
330
17
100
AcDbEntity
  8
visible
100
AcDbLine
 10
18.000000033400028
 20
22.918344408094715
 30
0.0
 11
27.60000003268003
 21
19.352882490389824
 31
0.0
  0
LINE
  5
D9
330
17
100
AcDbEntity
  8
visible
100
AcDbLine
 10
18.000000033400028
 20
29.86856256940875
 30
0.0
 11
27.60000003268003
 21
26.303100651703858
 31
0.0
  0
ELLIPSE
  5
DA
330
17
100
AcDbEntity
  8
visible
100
AcDbEllipse
 10
47.800000030040025
 20
11.665941201233075
 30
0.0
 11
12.0
 21
-3.833743340506318e-16
 31
0.0
 40
0.49520304405965215
 41
5.639684198286302
 42
6.283185307179586
  0
LINE
  5
DB
330
17
100
AcDbEntity
  8
visible
100
AcDbLine
 10
57.400000029320026
 20
8.100479283528188
 30
0.0
 11
22.60000002468002
 21
-14.876941959116369
 31
0.0
  0
ELLIPSE
  5
DC
330
17
100
AcDbEntity
  8
visible
100
AcDbEllipse
 10
13.000000025400023
 20
-11.311480041411478
 30
0.0
 11
12.0
 21
-3.833743340506318e-16
 31
0.0
 40
0.49520304405965215
 41
4.068887871491405
 42
5.639684198286302
  0
LINE
  5
DD
330
17
100
AcDbEntity
  8
visible
100
AcDbLine
 10
-54.99999997099997
 20
6.515829548103384
 30
0.0
 11
5.800000024440024
 21
-16.0654292640276
 31
0.0
  0
ELLIPSE
  5
DE
330
17
100
AcDbEntity
  8
visible
100
AcDbEllipse
 10
-47.79999997003998
 20
11.269778770719498
 30
0.0
 11
12.0
 21
-3.833743340506318e-16
 31
0.0
 40
0.49520304405965215
 41
3.141592653589793
 42
4.068887871491405
  0
LINE
  5
DF
330
17
100
AcDbEntity
  8
visible
100
AcDbLine
 10
53.20000003076002
 20
20.27031128514783
 30
0.0
 11
-7.599999964679972
 21
42.85157009727881
 31
0.0
  0
LINE
  5
E0
330
17
100
AcDbEntity
  8
visible
100
AcDbLine
 10
49.52000002863602
 20
-11.35908903548833
 30
0.0
 11
51.28000002850402
 21
-12.012757053734227
 31
0.0
  0
LINE
  5
E1
330
17
100
AcDbEntity
  8
visible
100
AcDbLine
 10
49.52000002863602
 20
-11.35908903548833
 30
0.0
 11
49.52000002863602
 21
-5.703349006719035
 31
0.0
  0
LINE
  5
E2
330
17
100
AcDbEntity
  8
visible
100
AcDbLine
 10
49.52000002863602
 20
-11.35908903548833
 30
0.0
 11
38.32000002677602
 21
-18.754121159799944
 31
0.0
  0
ELLIPSE
  5
E3
330
17
100
AcDbEntity
  8
visible
100
AcDbEllipse
 10
24.400000025420024
 20
-27.892963020317772
 30
0.0
 11
-1.0444946208216277
 21
-2.8122999461427804
 31
0.0
 40
0.521266362168055
 41
0.9589304575834814
 42
2.1826621960063126
  0
LINE
  5
E4
330
17
100
AcDbEntity
  8
visible
100
AcDbLine
 10
26.126315821264235
 20
-5.033695483635123
 30
0.0
 11
24.000000031950023
 21
-4.243976944845224
 31
0.0
  0
LINE
  5
E5
330
17
100
AcDbEntity
  8
visible
100
AcDbLine
 10
24.000000031950027
 20
-4.243976944845221
 30
0.0
 11
26.400000032270025
 21
-2.6593272039731843
 31
0.0
  0
LINE
  5
E6
330
17
100
AcDbEntity
  8
visible
100
AcDbLine
 10
26.40000003227002
 20
-4.852989811137921
 30
0.0
 11
26.40000003227002
 21
-2.659327203973186
 31
0.0
  0
LINE
  5
E7
330
17
100
AcDbEntity
  8
visible
100
AcDbLine
 10
28.526315821584234
 20
-3.4490457427630847
 30
0.0
 11
26.40000003227002
 21
-2.659327203973186
 31
0.0
  0
LINE
  5
E8
330
17
100
AcDbEntity
  8
visible
100
AcDbLine
 10
7.600000024680028
 20
-9.838033791420894
 30
0.0
 11
-53.19999997075997
 21
12.743225020710085
 31
0.0
  0
LINE
  5
E9
330
17
100
AcDbEntity
  8
visible
100
AcDbLine
 10
-25.93804680810462
 20
-12.476753528468086
 30
0.0
 11
-26.689999933048224
 21
-9.991172425885347
 31
0.0
  0
LINE
  5
EA
330
17
100
AcDbEntity
  8
visible
100
AcDbLine
 10
0.7600000310180253
 20
8.84423951213
 30
0.0
 11
8.362105297180769
 21
6.020800259742505
 31
0.0
  0
LINE
  5
EB
330
17
100
AcDbEntity
  8
visible
100
AcDbLine
 10
23.16000002933803
 20
0.5248283708185841
 30
0.0
 11
30.446315821840233
 21
-2.181325950065455
 31
0.0
  0
ELLIPSE
  5
EC
330
17
100
AcDbEntity
  8
visible
100
AcDbEllipse
 10
-12.999999965399976
 20
39.28610818031673
 30
0.0
 11
9.0
 21
-2.875307505379738e-16
 31
0.0
 40
0.4952030440596522
 41
0.9272952179016123
 42
2.498091544696509
  0
ELLIPSE
  5
ED
330
17
100
AcDbEntity
  8
visible
100
AcDbEllipse
 10
47.800000030040025
 20
16.704849368185748
 30
0.0
 11
9.0
 21
-2.875307505379738e-16
 31
0.0
 40
0.4952030440596522
 41
5.639684198286302
 42
6.283185307179586
  0
ELLIPSE
  5
EE
330
17
100
AcDbEntity
  8
visible
100
AcDbEllipse
 10
47.800000030040025
 20
16.704849368185748
 30
0.0
 11
9.0
 21
-2.875307505379738e-16
 31
0.0
 40
0.4952030440596522
 41
0.0
 42
0.9272952179016121
  0
ELLIPSE
  5
EF
330
17
100
AcDbEntity
  8
visible
100
AcDbEllipse
 10
-47.79999997003998
 20
16.308686937672178
 30
0.0
 11
9.0
 21
-2.875307505379738e-16
 31
0.0
 40
0.4952030440596522
 41
2.498091544696509
 42
3.141592653589793
  0
ELLIPSE
  5
F0
330
17
100
AcDbEntity
  8
visible
100
AcDbEllipse
 10
-47.79999997003998
 20
16.308686937672178
 30
0.0
 11
9.0
 21
-2.875307505379738e-16
 31
0.0
 40
0.4952030440596522
 41
3.141592653589793
 42
4.068887871491405
  0
ELLIPSE
  5
F1
330
17
100
AcDbEntity
  8
visible
100
AcDbEllipse
 10
13.000000025400023
 20
-6.2725718744588015
 30
0.0
 11
9.0
 21
-2.875307505379738e-16
 31
0.0
 40
0.4952030440596522
 41
4.068887871491405
 42
5.639684198286302
  0
LINE
  5
F2
330
17
100
AcDbEntity
  8
visible
100
AcDbLine
 10
20.200000024860024
 20
-8.946668312737469
 30
0.0
 11
55.00000002950002
 21
14.030752929907088
 31
0.0
  0
LINE
  5
F3
330
17
100
AcDbEntity
  8
visible
100
AcDbLine
 10
-54.999999969499974
 20
18.98278337595084
 30
0.0
 11
-20.199999964859977
 21
41.9602046185954
 31
0.0
  0
ELLIPSE
  5
F4
330
17
100
AcDbEntity
  8
visible
100
AcDbEllipse
 10
47.54000002837203
 20
-8.930682810001468
 30
0.0
 11
-0.5570637977715347
 21
-1.499893304609483
 31
0.0
 40
0.521266362168055
 41
1.1426648302793825
 42
3.141592653589793
  0
ELLIPSE
  5
F5
330
17
100
AcDbEntity
  8
visible
100
AcDbEllipse
 10
47.54000002837203
 20
-8.930682810001468
 30
0.0
 11
-0.5570637977715347
 21
-1.499893304609483
 31
0.0
 40
0.521266362168055
 41
3.141592653589793
 42
3.2370599326725786
  0
LINE
  5
F6
330
17
100
AcDbEntity
  8
visible
100
AcDbLine
 10
48.020000028436016
 20
-9.817565959735445
 30
0.0
 11
48.020000028436016
 21
-11.220084672319825
 31
0.0
  0
LINE
  5
F7
330
17
100
AcDbEntity
  8
visible
100
AcDbLine
 10
48.020000028436016
 20
-11.220084672319825
 30
0.0
 11
38.32000002677602
 21
-17.624710708586413
 31
0.0
  0
LINE
  5
F8
330
17
100
AcDbEntity
  8
visible
100
AcDbLine
 10
48.020000028436016
 20
-6.693755094764059
 30
0.0
 11
48.020000028436016
 21
-7.409939763918675
 31
0.0
  0
LINE
  5
F9
330
17
100
AcDbEntity
  8
visible
100
AcDbLine
 10
-30.28631576195218
 20
4.233030390819726
 30
0.0
 11
-19.559999964907973
 21
11.315302701666154
 31
0.0
  0
ELLIPSE
  5
FA
330
17
100
AcDbEntity
  8
visible
100
AcDbEllipse
 10
-12.999999965399976
 20
8.878903724567813
 30
0.0
 11
-8.2
 21
2.61972461601265e-16
 31
0.0
 40
0.4952030440596521
 41
-1.0044109612205048
 42
-0.6435011088932845
  0
LINE
  5
FB
330
17
100
AcDbEntity
  8
visible
100
AcDbLine
 10
-15.159999969937974
 20
6.2147113449927645
 30
0.0
 11
-22.526315762534185
 21
1.3509486740082703
 31
0.0
  0
LINE
  5
FC
330
17
100
AcDbEntity
  8
visible
100
AcDbLine
 10
45.44000002859201
 20
-10.447567923459005
 30
0.0
 11
43.45263160768844
 21
-9.709454754530626
 31
0.0
  0
LINE
  5
FD
330
17
100
AcDbEntity
  8
visible
100
AcDbLine
 10
44.65263160784844
 20
-8.917129884094606
 30
0.0
 11
45.62000002861601
 21
-9.276412724187917
 31
0.0
  0
LINE
  5
FE
330
17
100
AcDbEntity
  8
visible
100
AcDbLine
 10
-26.689999933048224
 20
-9.991172425885345
 30
0.0
 11
-27.049999933096224
 21
-10.22886988701615
 31
0.0
  0
LINE
  5
FF
330
17
100
AcDbEntity
  8
visible
100
AcDbLine
 10
-26.298046808152616
 20
-12.714450989598891
 30
0.0
 11
-27.04999993309622
 21
-10.228869887016153
 31
0.0
  0
LINE
  5
100
330
17
100
AcDbEntity
  8
visible
100
AcDbLine
 10
-25.93804680810462
 20
-12.476753528468086
 30
0.0
 11
-26.29804680815262
 21
-12.714450989598891
 31
0.0
  0
LINE
  5
101
330
17
100
AcDbEntity
  8
visible
100
AcDbLine
 10
-27.049999933096213
 20
-10.228869887016153
 30
0.0
 11
-27.799218683040024
 21
-12.156912327907003
 31
0.0
  0
LINE
  5
102
330
17
100
AcDbEntity
  8
visible
100
AcDbLine
 10
-27.79921868304003
 20
-12.156912327907005
 30
0.0
 11
-26.298046808152616
 21
-12.714450989598895
 31
0.0
  0
LINE
  5
103
330
17
100
AcDbEntity
  8
visible
100
AcDbLine
 10
47.32580267779764
 20
-7.15211328295426
 30
0.0
 11
48.020000028436016
 21
-7.4099397639186755
 31
0.0
  0
ELLIPSE
  5
104
330
17
100
AcDbEntity
  8
visible
100
AcDbEllipse
 10
45.14000002855202
 20
-8.039317330575248
 30
0.0
 11
-0.5570637977715347
 21
-1.499893304609483
 31
0.0
 40
0.521266362168055
 41
1.1426648302793834
 42
1.7783455354084978
  0
LINE
  5
105
330
17
100
AcDbEntity
  8
visible
100
AcDbLine
 10
45.62000002861602
 20
-8.926200480309223
 30
0.0
 11
48.020000028436016
 21
-9.817565959735445
 31
0.0
  0
LINE
  5
106
330
17
100
AcDbEntity
  8
visible
100
AcDbLine
 10
45.62000002861601
 20
-8.926200480309221
 30
0.0
 11
45.62000002861601
 21
-10.328719192893601
 31
0.0
  0
LINE
  5
107
330
17
100
AcDbEntity
  8
visible
100
AcDbLine
 10
45.62000002861601
 20
-10.328719192893601
 30
0.0
 11
48.020000028436016
 21
-11.220084672319823
 31
0.0
  0
LINE
  5
108
330
17
100
AcDbEntity
  8
visible
100
AcDbLine
 10
45.44000002859201
 20
-10.447567923459005
 30
0.0
 11
38.32000002677602
 21
-15.14869548861828
 31
0.0
  0
ELLIPSE
  5
109
330
17
100
AcDbEntity
  8
visible
100
AcDbEllipse
 10
-42.899999970719975
 20
12.941306237823888
 30
0.0
 11
4.5
 21
-1.437653752689869e-16
 31
0.0
 40
0.4952030440596522
 41
5.639684198286302
 42
6.283185307179586
  0
ELLIPSE
  5
10A
330
17
100
AcDbEntity
  8
visible
100
AcDbEllipse
 10
-42.899999970719975
 20
12.941306237823888
 30
0.0
 11
4.5
 21
-1.437653752689869e-16
 31
0.0
 40
0.4952030440596522
 41
0.0
 42
3.141592653589793
  0
ELLIPSE
  5
10B
330
17
100
AcDbEntity
  8
visible
100
AcDbEllipse
 10
-42.899999970719975
 20
12.941306237823888
 30
0.0
 11
4.5
 21
-1.437653752689869e-16
 31
0.0
 40
0.4952030440596522
 41
3.141592653589793
 42
5.639684198286302
  0
ELLIPSE
  5
10C
330
17
100
AcDbEntity
  8
visible
100
AcDbEllipse
 10
5.100000025680021
 20
-4.8860033507005625
 30
0.0
 11
4.5
 21
-1.437653752689869e-16
 31
0.0
 40
0.4952030440596522
 41
5.639684198286302
 42
6.283185307179586
  0
ELLIPSE
  5
10D
330
17
100
AcDbEntity
  8
visible
100
AcDbEllipse
 10
5.100000025680021
 20
-4.8860033507005625
 30
0.0
 11
4.5
 21
-1.437653752689869e-16
 31
0.0
 40
0.4952030440596522
 41
0.0
 42
3.141592653589793
  0
ELLIPSE
  5
10E
330
17
100
AcDbEntity
  8
visible
100
AcDbEllipse
 10
5.100000025680021
 20
-4.8860033507005625
 30
0.0
 11
4.5
 21
-1.437653752689869e-16
 31
0.0
 40
0.4952030440596522
 41
3.141592653589793
 42
5.639684198286302
  0
LINE
  5
10F
330
17
100
AcDbEntity
  8
visible
100
AcDbLine
 10
-48.99999997044998
 20
11.183335431482071
 30
0.0
 11
-48.99999997044998
 21
11.672022646594257
 31
0.0
  0
LINE
  5
110
330
17
100
AcDbEntity
  8
visible
100
AcDbLine
 10
-50.919999970305966
 20
12.385115030135237
 30
0.0
 11
-48.99999997044997
 21
11.67202264659426
 31
0.0
  0
LINE
  5
111
330
17
100
AcDbEntity
  8
visible
100
AcDbLine
 10
-50.91999997030597
 20
12.385115030135236
 30
0.0
 11
-50.91999997030597
 21
11.89642781502305
 31
0.0
  0
LINE
  5
112
330
17
100
AcDbEntity
  8
visible
100
AcDbLine
 10
-52.67999997017398
 20
13.038783048381132
 30
0.0
 11
-52.67999997017398
 21
12.550095833268946
 31
0.0
  0
LINE
  5
113
330
17
100
AcDbEntity
  8
visible
100
AcDbLine
 10
-54.59999997002997
 20
13.751875431922112
 30
0.0
 11
-52.679999970173974
 21
13.038783048381134
 31
0.0
  0
LINE
  5
114
330
17
100
AcDbEntity
  8
visible
100
AcDbLine
 10
-54.59999997002997
 20
13.389088049729098
 30
0.0
 11
-54.59999997002997
 21
13.75187543192211
 31
0.0
  0
LINE
  5
115
330
17
100
AcDbEntity
  8
visible
100
AcDbLine
 10
-17.399999965069973
 20
12.250628310511065
 30
0.0
 11
-17.399999965069973
 21
38.31394641543871
 31
0.0
  0
LINE
  5
116
330
17
100
AcDbEntity
  8
visible
100
AcDbLine
 10
-29.81052628830365
 20
4.056321094021195
 30
0.0
 11
-17.399999965069966
 21
12.250628310511063
 31
0.0
  0
LINE
  5
117
330
17
100
AcDbEntity
  8
visible
100
AcDbLine
 10
-54.59999997002997
 20
13.751875431922112
 30
0.0
 11
-52.19999996970997
 21
15.33652517279415
 31
0.0
  0
LINE
  5
118
330
17
100
AcDbEntity
  8
visible
100
AcDbLine
 10
-17.399999965069973
 20
38.31394641543871
 30
0.0
 11
-14.999999964749973
 21
39.898596156310745
 31
0.0
  0
LINE
  5
119
330
17
100
AcDbEntity
  8
visible
100
AcDbLine
 10
-11.31999996502597
 20
38.53183575452387
 30
0.0
 11
-9.599999965679977
 21
37.89302382779673
 31
0.0
  0
LINE
  5
11A
330
17
100
AcDbEntity
  8
visible
100
AcDbLine
 10
-13.079999964893975
 20
39.18550377276976
 30
0.0
 11
-13.079999964893975
 21
37.36975927812648
 31
0.0
  0
LINE
  5
11B
330
17
100
AcDbEntity
  8
visible
100
AcDbLine
 10
-14.999999964749971
 20
39.898596156310745
 30
0.0
 11
-13.079999964893972
 21
39.18550377276977
 31
0.0
  0
LINE
  5
11C
330
17
100
AcDbEntity
  8
visible
100
AcDbLine
 10
-48.99999997044998
 20
11.672022646594257
 30
0.0
 11
-47.399999970719975
 21
12.728455806856488
 31
0.0
  0
LINE
  5
11D
330
17
100
AcDbEntity
  8
visible
100
AcDbLine
 10
-11.799999965489974
 20
36.23409363011085
 30
0.0
 11
-9.599999965679977
 21
37.68668922559108
 31
0.0
  0
LINE
  5
11E
330
17
100
AcDbEntity
  8
visible
100
AcDbLine
 10
-11.799999965489974
 20
15.817827781250864
 30
0.0
 11
-11.799999965489974
 21
36.23409363011085
 31
0.0
  0
LINE
  5
11F
330
17
100
AcDbEntity
  8
visible
100
AcDbLine
 10
-24.210526288723656
 20
1.9764683086933417
 30
0.0
 11
-15.15999996993797
 21
7.952265885321275
 31
0.0
  0
ELLIPSE
  5
120
330
17
100
AcDbEntity
  8
visible
100
AcDbEllipse
 10
-5.099999965679974
 20
37.89953965655849
 30
0.0
 11
4.5
 21
-1.437653752689869e-16
 31
0.0
 40
0.4952030440596522
 41
5.639684198286302
 42
6.283185307179586
  0
ELLIPSE
  5
121
330
17
100
AcDbEntity
  8
visible
100
AcDbEllipse
 10
-5.099999965679974
 20
37.89953965655849
 30
0.0
 11
4.5
 21
-1.437653752689869e-16
 31
0.0
 40
0.4952030440596522
 41
0.0
 42
3.141592653589793
  0
ELLIPSE
  5
122
330
17
100
AcDbEntity
  8
visible
100
AcDbEllipse
 10
-5.099999965679974
 20
37.89953965655849
 30
0.0
 11
4.5
 21
-1.437653752689869e-16
 31
0.0
 40
0.4952030440596522
 41
3.141592653589793
 42
5.639684198286302
  0
LINE
  5
123
330
17
100
AcDbEntity
  8
visible
100
AcDbLine
 10
-15.159999969937974
 20
-1.3849178295604538
 30
0.0
 11
-15.159999969937974
 21
13.59931814138893
 31
0.0
  0
LINE
  5
124
330
17
100
AcDbEntity
  8
visible
100
AcDbLine
 10
-15.159999969937974
 20
13.599318141388927
 30
0.0
 11
-4.839999968561974
 21
20.41331202713869
 31
0.0
  0
LINE
  5
125
330
17
100
AcDbEntity
  8
visible
100
AcDbLine
 10
0.7600000310180244
 20
-4.297065541304379
 30
0.0
 11
0.7600000310180244
 21
18.33345924181084
 31
0.0
  0
LINE
  5
126
330
17
100
AcDbEntity
  8
visible
100
AcDbLine
 10
-4.839999968561975
 20
20.413312027138687
 30
0.0
 11
0.7600000310180244
 21
18.333459241810832
 31
0.0
  0
LINE
  5
127
330
17
100
AcDbEntity
  8
visible
100
AcDbLine
 10
-0.529999969153975
 20
17.48171000609212
 30
0.0
 11
0.7600000310180253
 21
18.33345924181084
 31
0.0
  0
LINE
  5
128
330
17
100
AcDbEntity
  8
visible
100
AcDbLine
 10
0.6000000256800249
 20
-5.837314461307587
 30
0.0
 11
-0.5299999691539758
 21
-6.583420377457732
 31
0.0
  0
LINE
  5
129
330
17
100
AcDbEntity
  8
visible
100
AcDbLine
 10
-0.5299999691539763
 20
-6.583420377457733
 30
0.0
 11
-0.5299999691539763
 21
17.481710006092122
 31
0.0
  0
LINE
  5
12A
330
17
100
AcDbEntity
  8
visible
100
AcDbLine
 10
-9.559999970357975
 20
11.519465356061076
 30
0.0
 11
-8.269999970185975
 21
12.371214591779797
 31
0.0
  0
LINE
  5
12B
330
17
100
AcDbEntity
  8
visible
100
AcDbLine
 10
-8.269999970185975
 20
-3.9438795601797114
 30
0.0
 11
-8.269999970185975
 21
12.371214591779797
 31
0.0
  0
LINE
  5
12C
330
17
100
AcDbEntity
  8
visible
100
AcDbLine
 10
-9.559999970357975
 20
-3.4647706148883
 30
0.0
 11
-9.559999970357975
 21
11.519465356061076
 31
0.0
  0
LINE
  5
12D
330
17
100
AcDbEntity
  8
visible
100
AcDbLine
 10
-15.159999969937974
 20
13.599318141388927
 30
0.0
 11
-9.559999970357975
 21
11.519465356061074
 31
0.0
  0
LINE
  5
12E
330
17
100
AcDbEntity
  8
visible
100
AcDbLine
 10
7.240000028382023
 20
5.279907000077515
 30
0.0
 11
8.530000028554024
 21
6.131656235796235
 31
0.0
  0
LINE
  5
12F
330
17
100
AcDbEntity
  8
visible
100
AcDbLine
 10
7.240000028382023
 20
-2.9256997091638794
 30
0.0
 11
7.240000028382023
 21
5.279907000077515
 31
0.0
  0
LINE
  5
130
330
17
100
AcDbEntity
  8
visible
100
AcDbLine
 10
9.610000028473024
 20
5.730541770054435
 30
0.0
 11
8.530000028554026
 21
6.131656235796235
 31
0.0
  0
LINE
  5
131
330
17
100
AcDbEntity
  8
visible
100
AcDbLine
 10
9.610000028473024
 20
5.730541770054433
 30
0.0
 11
17.350000029505026
 21
10.841037184366755
 31
0.0
  0
LINE
  5
132
330
17
100
AcDbEntity
  8
visible
100
AcDbLine
 10
17.350000029505022
 20
10.841037184366757
 30
0.0
 11
16.270000029586022
 21
11.242151650108557
 31
0.0
  0
LINE
  5
133
330
17
100
AcDbEntity
  8
visible
100
AcDbLine
 10
16.270000029586022
 20
10.127944801122897
 30
0.0
 11
16.270000029586022
 21
11.24215165010856
 31
0.0
  0
LINE
  5
134
330
17
100
AcDbEntity
  8
visible
100
AcDbLine
 10
16.270000029586022
 20
11.242151650108557
 30
0.0
 11
17.560000029758022
 21
12.093900885827278
 31
0.0
  0
LINE
  5
135
330
17
100
AcDbEntity
  8
visible
100
AcDbLine
 10
23.160000029338022
 20
-6.992266962965852
 30
0.0
 11
23.160000029338022
 21
10.014048100499426
 31
0.0
  0
LINE
  5
136
330
17
100
AcDbEntity
  8
visible
100
AcDbLine
 10
17.560000029758022
 20
12.093900885827278
 30
0.0
 11
23.160000029338022
 21
10.014048100499425
 31
0.0
  0
LINE
  5
137
330
17
100
AcDbEntity
  8
visible
100
AcDbLine
 10
12.84000002796202
 20
-10.728694926588155
 30
0.0
 11
12.84000002796202
 21
3.200054214749663
 31
0.0
  0
LINE
  5
138
330
17
100
AcDbEntity
  8
visible
100
AcDbLine
 10
12.84000002796202
 20
3.200054214749663
 30
0.0
 11
23.160000029338022
 21
10.014048100499426
 31
0.0
  0
LINE
  5
139
330
17
100
AcDbEntity
  8
visible
100
AcDbLine
 10
7.240000028382023
 20
5.279907000077515
 30
0.0
 11
12.840000027962024
 21
3.200054214749661
 31
0.0
  0
ELLIPSE
  5
13A
330
17
100
AcDbEntity
  8
visible
100
AcDbEllipse
 10
42.90000003072002
 20
20.072230068034038
 30
0.0
 11
4.5
 21
-1.437653752689869e-16
 31
0.0
 40
0.4952030440596522
 41
5.639684198286302
 42
6.283185307179586
  0
ELLIPSE
  5
13B
330
17
100
AcDbEntity
  8
visible
100
AcDbEllipse
 10
42.90000003072002
 20
20.072230068034038
 30
0.0
 11
4.5
 21
-1.437653752689869e-16
 31
0.0
 40
0.4952030440596522
 41
0.0
 42
3.141592653589793
  0
ELLIPSE
  5
13C
330
17
100
AcDbEntity
  8
visible
100
AcDbEllipse
 10
42.90000003072002
 20
20.072230068034038
 30
0.0
 11
4.5
 21
-1.437653752689869e-16
 31
0.0
 40
0.4952030440596522
 41
3.141592653589793
 42
5.639684198286302
  0
ELLIPSE
  5
13D
330
17
100
AcDbEntity
  8
visible
100
AcDbEllipse
 10
-42.899999970719975
 20
12.941306237823888
 30
0.0
 11
1.3
 21
-4.153221952215178e-17
 31
0.0
 40
0.4952030440596522
 41
5.639684198286302
 42
6.283185307179586
  0
ELLIPSE
  5
13E
330
17
100
AcDbEntity
  8
visible
100
AcDbEllipse
 10
-42.899999970719975
 20
12.941306237823888
 30
0.0
 11
1.3
 21
-4.153221952215178e-17
 31
0.0
 40
0.4952030440596522
 41
0.0
 42
3.141592653589793
  0
ELLIPSE
  5
13F
330
17
100
AcDbEntity
  8
visible
100
AcDbEllipse
 10
-42.899999970719975
 20
12.941306237823888
 30
0.0
 11
1.3
 21
-4.153221952215178e-17
 31
0.0
 40
0.4952030440596522
 41
3.141592653589793
 42
5.639684198286302
  0
ELLIPSE
  5
140
330
17
100
AcDbEntity
  8
visible
100
AcDbEllipse
 10
5.100000025680021
 20
-4.8860033507005625
 30
0.0
 11
1.3
 21
-4.153221952215178e-17
 31
0.0
 40
0.4952030440596522
 41
5.639684198286302
 42
6.283185307179586
  0
ELLIPSE
  5
141
330
17
100
AcDbEntity
  8
visible
100
AcDbEllipse
 10
5.100000025680021
 20
-4.8860033507005625
 30
0.0
 11
1.3
 21
-4.153221952215178e-17
 31
0.0
 40
0.4952030440596522
 41
0.0
 42
3.141592653589793
  0
ELLIPSE
  5
142
330
17
100
AcDbEntity
  8
visible
100
AcDbEllipse
 10
5.100000025680021
 20
-4.8860033507005625
 30
0.0
 11
1.3
 21
-4.153221952215178e-17
 31
0.0
 40
0.4952030440596522
 41
3.141592653589793
 42
5.639684198286302
  0
LINE
  5
143
330
17
100
AcDbEntity
  8
visible
100
AcDbLine
 10
-48.51999996998597
 20
13.969764771007275
 30
0.0
 11
-47.25609410422475
 21
13.500347246812126
 31
0.0
  0
LINE
  5
144
330
17
100
AcDbEntity
  8
visible
100
AcDbLine
 10
-50.919999970305966
 20
12.385115030135237
 30
0.0
 11
-48.51999996998597
 21
13.969764771007275
 31
0.0
  0
LINE
  5
145
330
17
100
AcDbEntity
  8
visible
100
AcDbLine
 10
-15.159999969937974
 20
11.748822555939068
 30
0.0
 11
-15.479999965213976
 21
11.537535926970087
 31
0.0
  0
LINE
  5
146
330
17
100
AcDbEntity
  8
visible
100
AcDbLine
 10
-17.399999965069973
 20
12.250628310511061
 30
0.0
 11
-15.479999965213974
 21
11.537535926970083
 31
0.0
  0
LINE
  5
147
330
17
100
AcDbEntity
  8
visible
100
AcDbLine
 10
-50.279999969853975
 20
14.62343278925317
 30
0.0
 11
-50.279999969853975
 21
12.80768829460987
 31
0.0
  0
LINE
  5
148
330
17
100
AcDbEntity
  8
visible
100
AcDbLine
 10
-52.679999970173974
 20
13.038783048381136
 30
0.0
 11
-50.279999969853975
 21
14.623432789253174
 31
0.0
  0
LINE
  5
149
330
17
100
AcDbEntity
  8
visible
100
AcDbLine
 10
-52.19999996970997
 20
15.33652517279415
 30
0.0
 11
-50.279999969853975
 21
14.623432789253172
 31
0.0
  0
LINE
  5
14A
330
17
100
AcDbEntity
  8
visible
100
AcDbLine
 10
-15.479999965213977
 20
37.600854031897725
 30
0.0
 11
-15.479999965213977
 21
11.537535926970083
 31
0.0
  0
LINE
  5
14B
330
17
100
AcDbEntity
  8
visible
100
AcDbLine
 10
-17.399999965069973
 20
38.31394641543871
 30
0.0
 11
-15.479999965213974
 21
37.60085403189773
 31
0.0
  0
LINE
  5
14C
330
17
100
AcDbEntity
  8
visible
100
AcDbLine
 10
-15.479999965213977
 20
37.600854031897725
 30
0.0
 11
-13.079999964893977
 21
39.18550377276976
 31
0.0
  0
LINE
  5
14D
330
17
100
AcDbEntity
  8
visible
100
AcDbLine
 10
-13.719999965345972
 20
36.94718601365183
 30
0.0
 11
-11.799999965489974
 21
36.234093630110856
 31
0.0
  0
LINE
  5
14E
330
17
100
AcDbEntity
  8
visible
100
AcDbLine
 10
-13.719999965345973
 20
36.94718601365183
 30
0.0
 11
-11.319999965025973
 21
38.53183575452387
 31
0.0
  0
LINE
  5
14F
330
17
100
AcDbEntity
  8
visible
100
AcDbLine
 10
-13.719999965345973
 20
36.94718601365183
 30
0.0
 11
-13.719999965345973
 21
14.550107988817341
 31
0.0
  0
ELLIPSE
  5
150
330
17
100
AcDbEntity
  8
visible
100
AcDbEllipse
 10
-5.099999965679974
 20
37.89953965655849
 30
0.0
 11
1.3
 21
-4.153221952215178e-17
 31
0.0
 40
0.4952030440596522
 41
5.639684198286302
 42
6.283185307179586
  0
ELLIPSE
  5
151
330
17
100
AcDbEntity
  8
visible
100
AcDbEllipse
 10
-5.099999965679974
 20
37.89953965655849
 30
0.0
 11
1.3
 21
-4.153221952215178e-17
 31
0.0
 40
0.4952030440596522
 41
0.0
 42
3.141592653589793
  0
ELLIPSE
  5
152
330
17
100
AcDbEntity
  8
visible
100
AcDbEllipse
 10
-5.099999965679974
 20
37.89953965655849
 30
0.0
 11
1.3
 21
-4.153221952215178e-17
 31
0.0
 40
0.4952030440596522
 41
3.141592653589793
 42
5.639684198286302
  0
LINE
  5
153
330
17
100
AcDbEntity
  8
visible
100
AcDbLine
 10
-0.5299999691539763
 20
17.481710006092115
 30
0.0
 11
-1.6099999690729763
 21
17.882824471833917
 31
0.0
  0
LINE
  5
154
330
17
100
AcDbEntity
  8
visible
100
AcDbLine
 10
-9.349999970104975
 20
12.772329057521596
 30
0.0
 11
-1.609999969072975
 21
17.882824471833917
 31
0.0
  0
LINE
  5
155
330
17
100
AcDbEntity
  8
visible
100
AcDbLine
 10
-8.269999970185975
 20
12.371214591779795
 30
0.0
 11
-9.349999970104975
 21
12.772329057521596
 31
0.0
  0
ELLIPSE
  5
156
330
17
100
AcDbEntity
  8
visible
100
AcDbEllipse
 10
-7.1999999694599754
 20
15.966388691599882
 30
0.0
 11
1.05
 21
-3.354525422943028e-17
 31
0.0
 40
0.49520304405965215
 41
5.639684198286302
 42
6.283185307179586
  0
ELLIPSE
  5
157
330
17
100
AcDbEntity
  8
visible
100
AcDbEllipse
 10
-7.1999999694599754
 20
15.966388691599882
 30
0.0
 11
1.05
 21
-3.354525422943028e-17
 31
0.0
 40
0.49520304405965215
 41
0.0
 42
3.141592653589793
  0
ELLIPSE
  5
158
330
17
100
AcDbEntity
  8
visible
100
AcDbEllipse
 10
-7.1999999694599754
 20
15.966388691599882
 30
0.0
 11
1.05
 21
-3.354525422943028e-17
 31
0.0
 40
0.49520304405965215
 41
3.141592653589793
 42
5.639684198286302
  0
LINE
  5
159
330
17
100
AcDbEntity
  8
visible
100
AcDbLine
 10
-1.6099999690729758
 20
-6.1823059117159325
 30
0.0
 11
-1.8378947114542372
 21
-6.332778138554438
 31
0.0
  0
LINE
  5
15A
330
17
100
AcDbEntity
  8
visible
100
AcDbLine
 10
-1.6099999690729763
 20
-6.182305911715933
 30
0.0
 11
-0.5299999691539767
 21
-6.583420377457733
 31
0.0
  0
LINE
  5
15B
330
17
100
AcDbEntity
  8
visible
100
AcDbLine
 10
-1.6099999690729763
 20
-6.182305911715934
 30
0.0
 11
-1.6099999690729763
 21
17.88282447183392
 31
0.0
  0
ELLIPSE
  5
15C
330
17
100
AcDbEntity
  8
visible
100
AcDbEllipse
 10
15.200000028860023
 20
7.646977550288469
 30
0.0
 11
1.05
 21
-3.354525422943028e-17
 31
0.0
 40
0.49520304405965215
 41
5.639684198286302
 42
6.283185307179586
  0
ELLIPSE
  5
15D
330
17
100
AcDbEntity
  8
visible
100
AcDbEllipse
 10
15.200000028860023
 20
7.646977550288469
 30
0.0
 11
1.05
 21
-3.354525422943028e-17
 31
0.0
 40
0.49520304405965215
 41
0.0
 42
3.141592653589793
  0
ELLIPSE
  5
15E
330
17
100
AcDbEntity
  8
visible
100
AcDbEllipse
 10
15.200000028860023
 20
7.646977550288469
 30
0.0
 11
1.05
 21
-3.354525422943028e-17
 31
0.0
 40
0.49520304405965215
 41
3.141592653589793
 42
5.639684198286302
  0
ELLIPSE
  5
15F
330
17
100
AcDbEntity
  8
visible
100
AcDbEllipse
 10
42.90000003072002
 20
20.072230068034038
 30
0.0
 11
1.3
 21
-4.153221952215178e-17
 31
0.0
 40
0.4952030440596522
 41
5.639684198286302
 42
6.283185307179586
  0
ELLIPSE
  5
160
330
17
100
AcDbEntity
  8
visible
100
AcDbEllipse
 10
42.90000003072002
 20
20.072230068034038
 30
0.0
 11
1.3
 21
-4.153221952215178e-17
 31
0.0
 40
0.4952030440596522
 41
0.0
 42
3.141592653589793
  0
ELLIPSE
  5
161
330
17
100
AcDbEntity
  8
visible
100
AcDbEllipse
 10
42.90000003072002
 20
20.072230068034038
 30
0.0
 11
1.3
 21
-4.153221952215178e-17
 31
0.0
 40
0.4952030440596522
 41
3.141592653589793
 42
5.639684198286302
  0
LINE
  5
162
330
17
100
AcDbEntity
  8
visible
100
AcDbLine
 10
-54.99999997099997
 20
0.695021838002873
 30
0.0
 11
-54.99999997099997
 21
5.473296823906274
 31
0.0
  0
LINE
  5
163
330
17
100
AcDbEntity
  8
visible
100
AcDbLine
 10
-54.99999997099997
 20
-20.763776735054215
 30
0.0
 11
-54.99999997099997
 21
-9.730305403968181
 31
0.0
  0
ELLIPSE
  5
164
330
17
100
AcDbEntity
  8
visible
100
AcDbEllipse
 10
-47.79999997003998
 20
-16.0098275124381
 30
0.0
 11
-12.0
 21
3.833743340506318e-16
 31
0.0
 40
0.49520304405965215
 41
-6.283185307179586
 42
-5.355890089277974
  0
LINE
  5
165
330
17
100
AcDbEntity
  8
visible
100
AcDbLine
 10
5.800000024440024
 20
-43.34503554718519
 30
0.0
 11
5.800000024440024
 21
-17.107961988224698
 31
0.0
  0
LINE
  5
166
330
17
100
AcDbEntity
  8
visible
100
AcDbLine
 10
5.800000024440024
 20
-43.34503554718519
 30
0.0
 11
-54.99999997099998
 21
-20.763776735054208
 31
0.0
  0
ELLIPSE
  5
167
330
17
100
AcDbEntity
  8
visible
100
AcDbEllipse
 10
-54.51999997093598
 20
-20.44684678687981
 30
0.0
 11
-0.2785318988857676
 21
-0.7499466523047413
 31
0.0
 40
0.521266362168055
 41
5.3314550350657735
 42
6.283185307179586
  0
ELLIPSE
  5
168
330
17
100
AcDbEntity
  8
visible
100
AcDbEllipse
 10
-54.33999997091196
 20
5.995953229662511
 30
0.0
 11
-0.17408243680360475
 21
-0.46871665769046333
 31
0.0
 40
0.521266362168055
 41
5.3314550350657735
 42
5.532812955856106
  0
ELLIPSE
  5
169
330
17
100
AcDbEntity
  8
visible
100
AcDbEllipse
 10
-47.79999997003998
 20
10.314123773538817
 30
0.0
 11
-11.4
 21
3.642056173481002e-16
 31
0.0
 40
0.49520304405965215
 41
-6.046533080598638
 42
-5.355890089277974
  0
LINE
  5
16A
330
17
100
AcDbEntity
  8
visible
100
AcDbLine
 10
6.160000024488028
 20
-16.78338680007747
 30
0.0
 11
-54.639999970951976
 21
5.797872012053514
 31
0.0
  0
ELLIPSE
  5
16B
330
17
100
AcDbEntity
  8
visible
100
AcDbEllipse
 10
6.4600000245280285
 20
-16.58530558246846
 30
0.0
 11
-0.17408243680360475
 21
-0.46871665769046333
 31
0.0
 40
0.521266362168055
 41
5.3314550350657735
 42
5.532812955856106
  0
ELLIPSE
  5
16C
330
17
100
AcDbEntity
  8
visible
100
AcDbEllipse
 10
21.72000002474602
 20
-15.505762947174102
 30
0.0
 11
0.2754997847452147
 21
-0.41725276344841666
 31
0.0
 40
0.695021816079277
 41
-5.6735096560507925
 42
-5.472151735260461
  0
ELLIPSE
  5
16D
330
17
100
AcDbEntity
  8
visible
100
AcDbEllipse
 10
13.000000025400027
 20
-12.267135038592162
 30
0.0
 11
-11.4
 21
3.642056173481002e-16
 31
0.0
 40
0.49520304405965215
 41
-5.355890089277974
 42
-3.7850937624830774
  0
LINE
  5
16E
330
17
100
AcDbEntity
  8
visible
100
AcDbLine
 10
56.92000002935602
 20
7.323097382232753
 30
0.0
 11
22.120000024716013
 21
-15.654323860411804
 31
0.0
  0
ELLIPSE
  5
16F
330
17
100
AcDbEntity
  8
visible
100
AcDbEllipse
 10
56.52000002938604
 20
7.471658295470455
 30
0.0
 11
0.27549978474521497
 21
-0.41725276344841655
 31
0.0
 40
0.6950218160792773
 41
-5.673509656050793
 42
-5.472151735260461
  0
ELLIPSE
  5
170
330
17
100
AcDbEntity
  8
visible
100
AcDbEllipse
 10
47.800000030040025
 20
10.710286204052395
 30
0.0
 11
-11.4
 21
7.284112346962005e-16
 31
0.0
 40
0.49520304405965215
 41
-3.785093762483077
 42
-3.378244880170742
  0
ELLIPSE
  5
171
330
17
100
AcDbEntity
  8
visible
100
AcDbEllipse
 10
47.800000030040025
 20
-15.613665081924525
 30
0.0
 11
-12.0
 21
3.833743340506318e-16
 31
0.0
 40
0.49520304405965215
 41
-3.7850937624830774
 42
-3.141592653589793
  0
ELLIPSE
  5
172
330
17
100
AcDbEntity
  8
visible
100
AcDbEllipse
 10
13.000000025400023
 20
-38.591086324569076
 30
0.0
 11
-12.0
 21
3.833743340506318e-16
 31
0.0
 40
0.49520304405965215
 41
-5.355890089277974
 42
-3.7850937624830774
  0
ELLIPSE
  5
173
330
17
100
AcDbEntity
  8
visible
100
AcDbEllipse
 10
6.2800000245040195
 20
-43.028105599010786
 30
0.0
 11
-0.2785318988857676
 21
-0.7499466523047413
 31
0.0
 40
0.521266362168055
 41
5.3314550350657735
 42
6.283185307179586
  0
LINE
  5
174
330
17
100
AcDbEntity
  8
visible
100
AcDbLine
 10
-29.50750701958012
 20
-8.911508139830675
 30
0.0
 11
-29.8623046203853
 21
-9.14577060904025
 31
0.0
  0
LINE
  5
175
330
17
100
AcDbEntity
  8
visible
100
AcDbLine
 10
-30.173593682786954
 20
-8.51919054015455
 30
0.0
 11
-30.533593682834955
 21
-8.756888001285356
 31
0.0
  0
LINE
  5
176
330
17
100
AcDbEntity
  8
visible
100
AcDbLine
 10
-31.882154247087605
 20
-8.23027982422728
 30
0.0
 11
-32.02656243272298
 21
-8.325628321692438
 31
0.0
  0
LINE
  5
177
330
17
100
AcDbEntity
  8
visible
100
AcDbLine
 10
-32.19976555763499
 20
-9.575062897958396
 30
0.0
 11
-32.559765557682994
 21
-9.812760359089202
 31
0.0
  0
LINE
  5
178
330
17
100
AcDbEntity
  8
visible
100
AcDbLine
 10
-31.66656243267498
 20
-11.455291197751015
 30
0.0
 11
-32.02656243272298
 21
-11.69298865888182
 31
0.0
  0
LINE
  5
179
330
17
100
AcDbEntity
  8
visible
100
AcDbLine
 10
-30.20640618278449
 20
-12.6137581764027
 30
0.0
 11
-30.56640618283249
 21
-12.851455637533505
 31
0.0
  0
LINE
  5
17A
330
17
100
AcDbEntity
  8
visible
100
AcDbLine
 10
-29.521445245335865
 20
-12.761253904255842
 30
0.0
 11
-29.881445245383865
 21
-12.998951365386647
 31
0.0
  0
LINE
  5
17B
330
17
100
AcDbEntity
  8
visible
100
AcDbLine
 10
0.7600000310180253
 20
10.034464372358194
 30
0.0
 11
10.595789507639555
 21
6.381429704432487
 31
0.0
  0
LINE
  5
17C
330
17
100
AcDbEntity
  8
visible
100
AcDbLine
 10
23.160000029338022
 20
1.715053231046781
 30
0.0
 11
31.600000032380017
 21
-1.4195820396336707
 31
0.0
  0
LINE
  5
17D
330
17
100
AcDbEntity
  8
visible
100
AcDbLine
 10
-7.599999964679974
 20
39.7524197846481
 30
0.0
 11
-7.599999964679974
 21
42.85157009727881
 31
0.0
  0
LINE
  5
17E
330
17
100
AcDbEntity
  8
visible
100
AcDbLine
 10
53.20000003076002
 20
12.842265625243462
 30
0.0
 11
53.20000003076002
 21
20.270311285147834
 31
0.0
  0
LINE
  5
17F
330
17
100
AcDbEntity
  8
visible
100
AcDbLine
 10
-54.639999970951976
 20
5.797872012053508
 30
0.0
 11
-54.639999970951976
 21
6.382124726161596
 31
0.0
  0
LINE
  5
180
330
17
100
AcDbEntity
  8
visible
100
AcDbLine
 10
6.160000024488024
 20
-16.78338680007747
 30
0.0
 11
6.160000024488024
 21
-16.194051472855797
 31
0.0
  0
LINE
  5
181
330
17
100
AcDbEntity
  8
visible
100
AcDbLine
 10
22.12000002471602
 20
-15.654323860411806
 30
0.0
 11
22.12000002471602
 21
-15.173606647919488
 31
0.0
  0
LINE
  5
182
330
17
100
AcDbEntity
  8
visible
100
AcDbLine
 10
56.92000002935602
 20
7.323097382232747
 30
0.0
 11
56.92000002935602
 21
7.783549335419801
 31
0.0
  0
ELLIPSE
  5
183
330
17
100
AcDbEntity
  8
visible
100
AcDbEllipse
 10
56.76000002936802
 20
-18.94142953844909
 30
0.0
 11
0.4407996555923435
 21
-0.6676044215174667
 31
0.0
 40
0.695021816079277
 41
-6.283185307179586
 42
-5.472151735260461
  0
ELLIPSE
  5
184
330
17
100
AcDbEntity
  8
visible
100
AcDbEllipse
 10
21.960000024728025
 20
-41.91885078109364
 30
0.0
 11
0.4407996555923435
 21
-0.6676044215174667
 31
0.0
 40
0.695021816079277
 41
-6.283185307179586
 42
-5.472151735260461
  0
LINE
  5
185
330
17
100
AcDbEntity
  8
visible
100
AcDbLine
 10
57.40000002932002
 20
8.100479283528184
 30
0.0
 11
57.40000002932002
 21
12.44436563434946
 31
0.0
  0
ELLIPSE
  5
186
330
17
100
AcDbEntity
  8
visible
100
AcDbEllipse
 10
47.800000030040025
 20
16.009827552054347
 30
0.0
 11
-12.0
 21
3.833743340506318e-16
 31
0.0
 40
0.49520304405965215
 41
-3.7850937624830774
 42
-3.141592653589793
  0
ELLIPSE
  5
187
330
17
100
AcDbEntity
  8
visible
100
AcDbEllipse
 10
-6.279999964503972
 20
43.02810563862703
 30
0.0
 11
-0.2785318988857676
 21
-0.7499466523047413
 31
0.0
 40
0.521266362168055
 41
3.141592653589793
 42
3.7606587082708773
  0
LINE
  5
188
330
17
100
AcDbEntity
  8
visible
100
AcDbLine
 10
-6.279999964503972
 20
43.72312745475843
 30
0.0
 11
54.52000003093603
 21
21.14186864262745
 31
0.0
  0
ELLIPSE
  5
189
330
17
100
AcDbEntity
  8
visible
100
AcDbEllipse
 10
54.520000030936025
 20
20.446846826496056
 30
0.0
 11
-0.2785318988857676
 21
-0.7499466523047413
 31
0.0
 40
0.521266362168055
 41
3.141592653589793
 42
3.7606587082708773
  0
LINE
  5
18A
330
17
100
AcDbEntity
  8
visible
100
AcDbLine
 10
22.60000002468002
 20
-14.876941959116369
 30
0.0
 11
22.60000002468002
 21
-10.533055608295093
 31
0.0
  0
LINE
  5
18B
330
17
100
AcDbEntity
  8
visible
100
AcDbLine
 10
57.40000002932002
 20
12.44436563434946
 30
0.0
 11
22.60000002468002
 21
-10.533055608295093
 31
0.0
  0
ELLIPSE
  5
18C
330
17
100
AcDbEntity
  8
visible
100
AcDbEllipse
 10
13.000000025400023
 20
-6.967593690590203
 30
0.0
 11
-12.0
 21
3.833743340506318e-16
 31
0.0
 40
0.49520304405965215
 41
-5.355890089277974
 42
-3.7850937624830774
  0
LINE
  5
18D
330
17
100
AcDbEntity
  8
visible
100
AcDbLine
 10
5.800000024440024
 20
-16.06542926402759
 30
0.0
 11
5.800000024440024
 21
-11.721542913206314
 31
0.0
  0
LINE
  5
18E
330
17
100
AcDbEntity
  8
visible
100
AcDbLine
 10
5.800000024440024
 20
-11.721542913206317
 30
0.0
 11
-54.99999997099998
 21
10.859715898924666
 31
0.0
  0
LINE
  5
18F
330
17
100
AcDbEntity
  8
visible
100
AcDbLine
 10
-54.99999997099997
 20
6.515829548103383
 30
0.0
 11
-54.99999997099997
 21
10.859715898924659
 31
0.0
  0
ELLIPSE
  5
190
330
17
100
AcDbEntity
  8
visible
100
AcDbEllipse
 10
-47.79999997003998
 20
15.613665121540777
 30
0.0
 11
-12.0
 21
3.833743340506318e-16
 31
0.0
 40
0.49520304405965215
 41
-6.283185307179586
 42
-5.355890089277974
  0
LINE
  5
191
330
17
100
AcDbEntity
  8
visible
100
AcDbLine
 10
-20.199999964859977
 20
12.248021978977887
 30
0.0
 11
-20.199999964859977
 21
41.9602046185954
 31
0.0
  0
ELLIPSE
  5
192
330
17
100
AcDbEntity
  8
visible
100
AcDbEllipse
 10
-12.999999965399976
 20
9.573925540699214
 30
0.0
 11
-9.0
 21
2.875307505379738e-16
 31
0.0
 40
0.4952030440596522
 41
-1.0599807336770752
 42
-0.6435011088932845
  0
LINE
  5
193
330
17
100
AcDbEntity
  8
visible
100
AcDbLine
 10
-56.759999969367975
 20
19.63645139419674
 30
0.0
 11
-21.959999964727977
 21
42.61387263684129
 31
0.0
  0
ELLIPSE
  5
194
330
17
100
AcDbEntity
  8
visible
100
AcDbEllipse
 10
-47.79999997003998
 20
16.308686937672178
 30
0.0
 11
-11.2
 21
3.57816045113923e-16
 31
0.0
 40
0.49520304405965215
 41
-6.9266864160728705
 42
-5.355890089277974
  0
ELLIPSE
  5
195
330
17
100
AcDbEntity
  8
visible
100
AcDbEllipse
 10
-12.999999965399976
 20
39.28610818031673
 30
0.0
 11
-11.2
 21
3.57816045113923e-16
 31
0.0
 40
0.49520304405965215
 41
-2.214297435688181
 42
-0.6435011088932845
  0
LINE
  5
196
330
17
100
AcDbEntity
  8
visible
100
AcDbLine
 10
6.2800000245040195
 20
-10.709591148900508
 30
0.0
 11
-54.519999970935984
 21
11.871667663230475
 31
0.0
  0
ELLIPSE
  5
197
330
17
100
AcDbEntity
  8
visible
100
AcDbEllipse
 10
13.000000025400023
 20
-6.2725718744588015
 30
0.0
 11
-11.2
 21
3.57816045113923e-16
 31
0.0
 40
0.49520304405965215
 41
-5.355890089277974
 42
-3.7850937624830774
  0
ELLIPSE
  5
198
330
17
100
AcDbEntity
  8
visible
100
AcDbEllipse
 10
47.800000030040025
 20
16.704849368185748
 30
0.0
 11
-11.2
 21
3.57816045113923e-16
 31
0.0
 40
0.49520304405965215
 41
-3.7850937624830774
 42
-2.214297435688181
  0
LINE
  5
199
330
17
100
AcDbEntity
  8
visible
100
AcDbLine
 10
56.76000002936802
 20
13.377084911661186
 30
0.0
 11
21.960000024728025
 21
-9.600336330983367
 31
0.0
  0
LINE
  5
19A
330
17
100
AcDbEntity
  8
visible
100
AcDbLine
 10
-54.999999969499974
 20
13.63459049939351
 30
0.0
 11
-54.999999969499974
 21
18.98278337595084
 31
0.0
  0
ELLIPSE
  5
19B
330
17
100
AcDbEntity
  8
visible
100
AcDbEllipse
 10
56.76000002936802
 20
12.682063095529784
 30
0.0
 11
-0.4407996555923435
 21
0.6676044215174667
 31
0.0
 40
0.695021816079277
 41
3.952626225508919
 42
5.523422552303815
  0
ELLIPSE
  5
19C
330
17
100
AcDbEntity
  8
visible
100
AcDbEllipse
 10
-21.959999964727977
 20
41.91885082070989
 30
0.0
 11
0.4407996555923435
 21
-0.6676044215174667
 31
0.0
 40
0.695021816079277
 41
-3.9013554084655637
 42
-3.141592653589793
  0
ELLIPSE
  5
19D
330
17
100
AcDbEntity
  8
visible
100
AcDbEllipse
 10
21.960000024728025
 20
-10.295358147114769
 30
0.0
 11
-0.4407996555923435
 21
0.6676044215174667
 31
0.0
 40
0.695021816079277
 41
3.952626225508919
 42
5.523422552303815
  0
ELLIPSE
  5
19E
330
17
100
AcDbEntity
  8
visible
100
AcDbEllipse
 10
6.2800000245040195
 20
-11.404612965031909
 30
0.0
 11
0.2785318988857676
 21
0.7499466523047413
 31
0.0
 40
0.521266362168055
 41
-5.664119252498502
 42
-4.093322925703605
  0
ELLIPSE
  5
19F
330
17
100
AcDbEntity
  8
visible
100
AcDbEllipse
 10
-54.51999997093598
 20
11.176645847099067
 30
0.0
 11
0.2785318988857676
 21
0.7499466523047413
 31
0.0
 40
0.521266362168055
 41
-5.664119252498502
 42
-4.093322925703605
  0
ELLIPSE
  5
1A0
330
17
100
AcDbEntity
  8
visible
100
AcDbEllipse
 10
-56.759999969367975
 20
18.94142957806534
 30
0.0
 11
0.4407996555923435
 21
-0.6676044215174667
 31
0.0
 40
0.695021816079277
 41
-3.9013554084655637
 42
-3.141592653589793
  0
ELLIPSE
  5
1A1
330
17
100
AcDbEntity
  8
visible
100
AcDbEllipse
 10
-19.559999964907973
 20
12.010324517797557
 30
0.0
 11
-0.4407996555923435
 21
0.6676044215174667
 31
0.0
 40
0.695021816079277
 41
0.8110335719191258
 42
2.3818298987140225
  0
LINE
  5
1A2
330
17
100
AcDbEntity
  8
visible
100
AcDbLine
 10
-31.599999972379972
 20
4.720935705874082
 30
0.0
 11
-20.199999964859977
 21
12.248021978977885
 31
0.0
  0
LINE
  5
1A3
330
17
100
AcDbEntity
  8
visible
100
AcDbLine
 10
-59.79999997003998
 20
-16.0098275124381
 30
0.0
 11
-59.79999997003998
 21
10.227246046522389
 31
0.0
  0
SPLINE
  5
1A4
330
17
100
AcDbEntity
  8
visible
100
AcDbSpline
 70
0
 71
3
 72
14
 73
10
 74
0
 40
0.0
 40
0.0
 40
0.0
 40
0.0
 40
0.3333333333333333
 40
0.3333333333333333
 40
0.3333333333333333
 40
0.6666666666666666
 40
0.6666666666666666
 40
0.6666666666666666
 40
1.0
 40
1.0
 40
1.0
 40
1.0
 10
-54.798531869821744
 20
-21.19679343918455
 30
0.0
 10
-55.61844662001474
 20
-20.89229581819297
 30
0.0
 10
-56.364018079156146
 20
-20.53290260302373
 30
0.0
 10
-57.01388130550342
 20
-20.125448963749225
 30
0.0
 10
-58.02825494802694
 20
-19.489389112452425
 30
0.0
 10
-58.812729862075635
 20
-18.73522800173588
 30
0.0
 10
-59.29023554077801
 20
-17.88365571372915
 30
0.0
 10
-59.621861217002696
 20
-17.293539120690532
 30
0.0
 10
-59.80076111885167
 20
-16.653763227371
 30
0.0
 10
-59.79999997003998
 20
-16.0098275124381
 30
0.0
  0
LINE
  5
1A5
330
17
100
AcDbEntity
  8
visible
100
AcDbLine
 10
59.800000030040025
 20
-15.613665081924525
 30
0.0
 11
59.800000030040025
 21
10.623408477035966
 31
0.0
  0
LINE
  5
1A6
330
17
100
AcDbEntity
  8
visible
100
AcDbLine
 10
6.001468125618253
 20
-43.77805225131553
 30
0.0
 11
-54.79853186982175
 21
-21.196793439184546
 31
0.0
  0
SPLINE
  5
1A7
330
17
100
AcDbEntity
  8
visible
100
AcDbSpline
 70
0
 71
1
 72
4
 73
2
 74
0
 40
0.0
 40
0.0
 40
1.0
 40
1.0
 10
-31.167064116392794
 20
-8.525863429597507
 30
0.0
 10
-31.527064116440798
 20
-8.763560890728314
 30
0.0
  0
SPLINE
  5
1A8
330
17
100
AcDbEntity
  8
visible
100
AcDbSpline
 70
0
 71
3
 72
11
 73
7
 74
0
 40
0.0
 40
0.0
 40
0.0
 40
0.0
 40
0.5
 40
0.5
 40
0.5
 40
1.0
 40
1.0
 40
1.0
 40
1.0
 10
59.800000030040025
 20
-15.613665081924523
 30
0.0
 10
59.8007199615701
 20
-16.245908770026258
 30
0.0
 10
59.628320007342005
 20
-16.874319073211186
 30
0.0
 10
59.30805237364968
 20
-17.455385998550195
 30
0.0
 10
58.86180629725186
 20
-18.26681746890514
 30
0.0
 10
58.13699139411937
 20
-18.990819832788016
 30
0.0
 10
57.20079968496037
 20
-19.609033959966553
 30
0.0
  0
LINE
  5
1A9
330
17
100
AcDbEntity
  8
visible
100
AcDbLine
 10
57.200799684960366
 20
-19.609033959966556
 30
0.0
 11
22.400799680320368
 21
-42.586455202611106
 31
0.0
  0
SPLINE
  5
1AA
330
17
100
AcDbEntity
  8
visible
100
AcDbSpline
 70
0
 71
3
 72
14
 73
10
 74
0
 40
0.0
 40
0.0
 40
0.0
 40
0.0
 40
0.41665111828219353
 40
0.41665111828219353
 40
0.41665111828219353
 40
0.7937905265443421
 40
0.7937905265443421
 40
0.7937905265443421
 40
1.0
 40
1.0
 40
1.0
 40
1.0
 10
22.400799680320368
 20
-42.586455202611106
 30
0.0
 10
20.818700775764473
 20
-43.63393172135233
 30
0.0
 10
18.601467264996796
 20
-44.38090505106524
 30
0.0
 10
16.14897957480162
 20
-44.72168951279365
 30
0.0
 10
13.932679962229969
 20
-45.03289349009523
 30
0.0
 10
11.539307444039592
 20
-45.00636186916133
 30
0.0
 10
9.351833577331355
 20
-44.64599180914243
 30
0.0
 10
8.155373737362295
 20
-44.45004744256701
 30
0.0
 10
7.02074123503871
 20
-44.15677860728032
 30
0.0
 10
6.001468125618253
 20
-43.77805225131552
 30
0.0
  0
LINE
  5
1AB
330
17
100
AcDbEntity
  8
visible
100
AcDbLine
 10
59.800000030040025
 20
11.665941201233075
 30
0.0
 11
59.800000030040025
 21
16.00982755205435
 31
0.0
  0
LINE
  5
1AC
330
17
100
AcDbEntity
  8
visible
100
AcDbLine
 10
-6.001468065618205
 20
43.77805229093177
 30
0.0
 11
54.7985319298218
 21
21.196793478800785
 31
0.0
  0
LINE
  5
1AD
330
17
100
AcDbEntity
  8
visible
100
AcDbLine
 10
-59.79999997003998
 20
11.269778770719498
 30
0.0
 11
-59.79999997003998
 21
15.613665121540773
 31
0.0
  0
SPLINE
  5
1AE
330
17
100
AcDbEntity
  8
visible
100
AcDbSpline
 70
0
 71
3
 72
14
 73
10
 74
0
 40
0.0
 40
0.0
 40
0.0
 40
0.0
 40
0.3333333333333333
 40
0.3333333333333333
 40
0.3333333333333333
 40
0.6666666666666666
 40
0.6666666666666666
 40
0.6666666666666666
 40
1.0
 40
1.0
 40
1.0
 40
1.0
 10
54.79853192982179
 20
21.196793478800792
 30
0.0
 10
55.618446680014785
 20
20.89229585780924
 30
0.0
 10
56.364018139156194
 20
20.53290264263996
 30
0.0
 10
57.013881365503465
 20
20.125449003365468
 30
0.0
 10
58.02825500802698
 20
19.489389152068654
 30
0.0
 10
58.81272992207571
 20
18.73522804135215
 30
0.0
 10
59.29023560077806
 20
17.883655753345394
 30
0.0
 10
59.621861277002765
 20
17.29353916030678
 30
0.0
 10
59.800761178851715
 20
16.653763266987237
 30
0.0
 10
59.800000030040025
 20
16.009827552054347
 30
0.0
  0
SPLINE
  5
1AF
330
17
100
AcDbEntity
  8
visible
100
AcDbSpline
 70
0
 71
3
 72
14
 73
10
 74
0
 40
0.0
 40
0.0
 40
0.0
 40
0.0
 40
0.41665111828226337
 40
0.41665111828226337
 40
0.41665111828226337
 40
0.7937905265443583
 40
0.7937905265443583
 40
0.7937905265443583
 40
1.0
 40
1.0
 40
1.0
 40
1.0
 10
-22.40079962032032
 20
42.58645524222736
 30
0.0
 10
-20.818700715764475
 20
43.63393176096844
 30
0.0
 10
-18.60146720499731
 20
44.38090509068138
 30
0.0
 10
-16.14897951480157
 20
44.72168955240989
 30
0.0
 10
-13.932679902229822
 20
45.03289352971149
 30
0.0
 10
-11.539307384039493
 20
45.006361908777556
 30
0.0
 10
-9.351833517331304
 20
44.64599184875868
 30
0.0
 10
-8.155373677362268
 20
44.45004748218327
 30
0.0
 10
-7.020741175038648
 20
44.15677864689656
 30
0.0
 10
-6.001468065618205
 20
43.77805229093177
 30
0.0
  0
SPLINE
  5
1B0
330
17
100
AcDbEntity
  8
visible
100
AcDbSpline
 70
0
 71
3
 72
11
 73
7
 74
0
 40
0.0
 40
0.0
 40
0.0
 40
0.0
 40
0.5
 40
0.5
 40
0.5
 40
1.0
 40
1.0
 40
1.0
 40
1.0
 10
-59.79999997003998
 20
15.613665121540775
 30
0.0
 10
-59.800719901570034
 20
16.2459088096425
 30
0.0
 10
-59.628319947342
 20
16.874319112827436
 30
0.0
 10
-59.308052313649625
 20
17.455386038166445
 30
0.0
 10
-58.86180623725183
 20
18.266817508521374
 30
0.0
 10
-58.136991334119344
 20
18.990819872404266
 30
0.0
 10
-57.20079962496032
 20
19.609033999582806
 30
0.0
  0
LINE
  5
1B1
330
17
100
AcDbEntity
  8
visible
100
AcDbLine
 10
-57.20079962496032
 20
19.609033999582806
 30
0.0
 11
-22.40079962032032
 21
42.58645524222736
 31
0.0
  0
LINE
  5
1B2
330
17
100
AcDbEntity
  8
visible
100
AcDbLine
 10
-38.399999970719975
 20
7.246471230487931
 30
0.0
 11
-38.399999970719975
 21
12.941306237823888
 31
0.0
  0
LINE
  5
1B3
330
17
100
AcDbEntity
  8
visible
100
AcDbLine
 10
-47.399999970719975
 20
10.589091778586969
 30
0.0
 11
-47.399999970719975
 21
12.941306237823891
 31
0.0
  0
LINE
  5
1B4
330
17
100
AcDbEntity
  8
visible
100
AcDbLine
 10
9.600000025680025
 20
-10.399131852087795
 30
0.0
 11
9.600000025680025
 21
-4.886003350700566
 31
0.0
  0
LINE
  5
1B5
330
17
100
AcDbEntity
  8
visible
100
AcDbLine
 10
0.6000000256800249
 20
-7.238217809937481
 30
0.0
 11
0.6000000256800249
 21
-4.886003350700559
 31
0.0
  0
LINE
  5
1B6
330
17
100
AcDbEntity
  8
visible
100
AcDbLine
 10
-0.5999999656799773
 20
18.83856634563054
 30
0.0
 11
-0.5999999656799773
 21
37.89953965655849
 31
0.0
  0
LINE
  5
1B7
330
17
100
AcDbEntity
  8
visible
100
AcDbLine
 10
-9.599999965679977
 20
17.270423376731102
 30
0.0
 11
-9.599999965679977
 21
37.89953965655849
 31
0.0
  0
LINE
  5
1B8
330
17
100
AcDbEntity
  8
visible
100
AcDbLine
 10
47.40000003072002
 20
9.012695418620234
 30
0.0
 11
47.40000003072002
 21
20.07223006803403
 31
0.0
  0
LINE
  5
1B9
330
17
100
AcDbEntity
  8
visible
100
AcDbLine
 10
38.40000003072002
 20
3.070258891142416
 30
0.0
 11
38.40000003072002
 21
20.072230068034035
 31
0.0
  0
ENDSEC
  0
SECTION
  2
OBJECTS
  0
DICTIONARY
  5
A
330
0
100
AcDbDictionary
281
1
  3
ACAD_COLOR
350
B
  3
ACAD_GROUP
350
C
  3
ACAD_LAYOUT
350
D
  3
ACAD_MATERIAL
350
E
  3
ACAD_MLEADERSTYLE
350
F
  3
ACAD_MLINESTYLE
350
10
  3
ACAD_PLOTSETTINGS
350
11
  3
ACAD_PLOTSTYLENAME
350
12
  3
ACAD_SCALELIST
350
14
  3
ACAD_TABLESTYLE
350
15
  3
ACAD_VISUALSTYLE
350
16
  3
EZDXF_META
350
2D
  0
DICTIONARY
  5
B
330
A
100
AcDbDictionary
281
1
  0
DICTIONARY
  5
C
330
A
100
AcDbDictionary
281
1
  0
DICTIONARY
  5
D
330
A
100
AcDbDictionary
281
1
  3
Model
350
1A
  3
Layout1
350
1E
  0
DICTIONARY
  5
E
330
A
100
AcDbDictionary
281
1
  3
ByBlock
350
1F
  3
ByLayer
350
20
  3
Global
350
21
  0
DICTIONARY
  5
F
330
A
100
AcDbDictionary
281
1
  3
Standard
350
2C
  0
DICTIONARY
  5
10
330
A
100
AcDbDictionary
281
1
  3
Standard
350
22
  0
DICTIONARY
  5
11
330
A
100
AcDbDictionary
281
1
  0
ACDBDICTIONARYWDFLT
  5
12
330
A
100
AcDbDictionary
281
1
  3
Normal
350
13
100
AcDbDictionaryWithDefault
340
13
  0
ACDBPLACEHOLDER
  5
13
330
12
  0
DICTIONARY
  5
14
330
A
100
AcDbDictionary
281
1
  0
DICTIONARY
  5
15
330
A
100
AcDbDictionary
281
1
  0
DICTIONARY
  5
16
330
A
100
AcDbDictionary
281
1
  0
LAYOUT
  5
1A
330
D
100
AcDbPlotSettings
  1

  4
A3
  6

 40
7.5
 41
20.0
 42
7.5
 43
20.0
 44
420.0
 45
297.0
 46
0.0
 47
0.0
 48
0.0
 49
0.0
140
0.0
141
0.0
142
1.0
143
1.0
 70
1024
 72
1
 73
0
 74
5
  7

 75
16
 76
0
 77
2
 78
300
147
1.0
148
0.0
149
0.0
100
AcDbLayout
  1
Model
 70
1
 71
0
 10
0.0
 20
0.0
 11
420.0
 21
297.0
 12
0.0
 22
0.0
 32
0.0
 14
1e+20
 24
1e+20
 34
1e+20
 15
-1e+20
 25
-1e+20
 35
-1e+20
146
0.0
 13
0.0
 23
0.0
 33
0.0
 16
1.0
 26
0.0
 36
0.0
 17
0.0
 27
1.0
 37
0.0
 76
1
330
17
  0
LAYOUT
  5
1E
330
D
100
AcDbPlotSettings
  1

  4
A3
  6

 40
7.5
 41
20.0
 42
7.5
 43
20.0
 44
420.0
 45
297.0
 46
0.0
 47
0.0
 48
0.0
 49
0.0
140
0.0
141
0.0
142
1.0
143
1.0
 70
0
 72
1
 73
0
 74
5
  7

 75
16
 76
0
 77
2
 78
300
147
1.0
148
0.0
149
0.0
100
AcDbLayout
  1
Layout1
 70
1
 71
1
 10
0.0
 20
0.0
 11
420.0
 21
297.0
 12
0.0
 22
0.0
 32
0.0
 14
1e+20
 24
1e+20
 34
1e+20
 15
-1e+20
 25
-1e+20
 35
-1e+20
146
0.0
 13
0.0
 23
0.0
 33
0.0
 16
1.0
 26
0.0
 36
0.0
 17
0.0
 27
1.0
 37
0.0
 76
1
330
1B
  0
MATERIAL
  5
1F
102
{ACAD_REACTORS
330
E
102
}
330
E
100
AcDbMaterial
  1
ByBlock
  2

 70
0
 40
1.0
 71
1
 41
1.0
 91
-1023410177
 42
1.0
 72
1
  3

 73
1
 74
1
 75
1
 44
0.5
 73
0
 45
1.0
 46
1.0
 77
1
  4

 78
1
 79
1
170
1
 48
1.0
171
1
  6

172
1
173
1
174
1
140
1.0
141
1.0
175
1
  7

176
1
177
1
178
1
143
1.0
179
1
  8

270
1
271
1
272
1
145
1.0
146
1.0
273
1
  9

274
1
275
1
276
1
 42
1.0
 72
1
  3

 73
1
 74
1
 75
1
 94
63
  0
MATERIAL
  5
20
102
{ACAD_REACTORS
330
E
102
}
330
E
100
AcDbMaterial
  1
ByLayer
  2

 70
0
 40
1.0
 71
1
 41
1.0
 91
-1023410177
 42
1.0
 72
1
  3

 73
1
 74
1
 75
1
 44
0.5
 73
0
 45
1.0
 46
1.0
 77
1
  4

 78
1
 79
1
170
1
 48
1.0
171
1
  6

172
1
173
1
174
1
140
1.0
141
1.0
175
1
  7

176
1
177
1
178
1
143
1.0
179
1
  8

270
1
271
1
272
1
145
1.0
146
1.0
273
1
  9

274
1
275
1
276
1
 42
1.0
 72
1
  3

 73
1
 74
1
 75
1
 94
63
  0
MATERIAL
  5
21
102
{ACAD_REACTORS
330
E
102
}
330
E
100
AcDbMaterial
  1
Global
  2

 70
0
 40
1.0
 71
1
 41
1.0
 91
-1023410177
 42
1.0
 72
1
  3

 73
1
 74
1
 75
1
 44
0.5
 73
0
 45
1.0
 46
1.0
 77
1
  4

 78
1
 79
1
170
1
 48
1.0
171
1
  6

172
1
173
1
174
1
140
1.0
141
1.0
175
1
  7

176
1
177
1
178
1
143
1.0
179
1
  8

270
1
271
1
272
1
145
1.0
146
1.0
273
1
  9

274
1
275
1
276
1
 42
1.0
 72
1
  3

 73
1
 74
1
 75
1
 94
63
  0
MLINESTYLE
  5
22
102
{ACAD_REACTORS
330
10
102
}
330
10
100
AcDbMlineStyle
  2
Standard
 70
0
  3

 62
256
 51
90.0
 52
90.0
 71
2
 49
0.5
 62
256
  6
BYLAYER
 49
-0.5
 62
256
  6
BYLAYER
  0
MLEADERSTYLE
  5
2C
102
{ACAD_REACTORS
330
F
102
}
330
F
100
AcDbMLeaderStyle
179
2
170
2
171
1
172
0
 90
2
 40
0.0
 41
0.0
173
1
 91
-1056964608
 92
-2
290
1
 42
2.0
291
1
 43
8.0
  3
Standard
 44
4.0
300

342
29
174
1
175
1
176
0
178
1
 93
-1056964608
 45
4.0
292
0
297
0
 46
4.0
 94
-1056964608
 47
1.0
 49
1.0
140
1.0
294
1
141
0.0
177
0
142
1.0
295
0
296
0
143
3.75
271
0
272
9
273
9
  0
DICTIONARY
  5
2D
330
A
100
AcDbDictionary
280
1
281
1
  3
CREATED_BY_EZDXF
350
2E
  3
WRITTEN_BY_EZDXF
350
1BD
  0
DICTIONARYVAR
  5
2E
330
2D
100
DictionaryVariables
280
0
  1
1.4.4 @ 2026-10-03T13:32:11.694815+00:00
  0
DICTIONARYVAR
  5
1BD
330
2D
100
DictionaryVariables
280
0
  1
1.4.4 @ 2026-10-03T13:32:11.757903+00:00
  0
ENDSEC
  0
EOF
