  0
SECTION
  2
HEADER
  9
$ACADVER
  1
AC1027
  9
$ACADMAINTVER
 70
105
  9
$DWGCODEPAGE
  3
ANSI_1252
  9
$LASTSAVEDBY
  1
ezdxf
  9
$REQUIREDVERSIONS
160
0
  9
$INSBASE
 10
0.0
 20
0.0
 30
0.0
  9
$EXTMIN
 10
1e+20
 20
1e+20
 30
1e+20
  9
$EXTMAX
 10
-1e+20
 20
-1e+20
 30
-1e+20
  9
$LIMMIN
 10
0.0
 20
0.0
  9
$LIMMAX
 10
420.0
 20
297.0
  9
$ORTHOMODE
 70
0
  9
$REGENMODE
 70
1
  9
$FILLMODE
 70
1
  9
$QTEXTMODE
 70
0
  9
$MIRRTEXT
 70
1
  9
$LTSCALE
 40
1.0
  9
$ATTMODE
 70
1
  9
$TEXTSIZE
 40
2.5
  9
$TRACEWID
 40
1.0
  9
$TEXTSTYLE
  7
Standard
  9
$CLAYER
  8
0
  9
$CELTYPE
  6
ByLayer
  9
$CECOLOR
 62
256
  9
$CELTSCALE
 40
1.0
  9
$DISPSILH
 70
0
  9
$DIMSCALE
 40
1.0
  9
$DIMASZ
 40
2.5
  9
$DIMEXO
 40
0.625
  9
$DIMDLI
 40
3.75
  9
$DIMRND
 40
0.0
  9
$DIMDLE
 40
0.0
  9
$DIMEXE
 40
1.25
  9
$DIMTP
 40
0.0
  9
$DIMTM
 40
0.0
  9
$DIMTXT
 40
2.5
  9
$DIMCEN
 40
2.5
  9
$DIMTSZ
 40
0.0
  9
$DIMTOL
 70
0
  9
$DIMLIM
 70
0
  9
$DIMTIH
 70
0
  9
$DIMTOH
 70
0
  9
$DIMSE1
 70
0
  9
$DIMSE2
 70
0
  9
$DIMTAD
 70
1
  9
$DIMZIN
 70
8
  9
$DIMBLK
  1

  9
$DIMASO
 70
1
  9
$DIMSHO
 70
1
  9
$DIMPOST
  1

  9
$DIMAPOST
  1

  9
$DIMALT
 70
0
  9
$DIMALTD
 70
3
  9
$DIMALTF
 40
0.03937007874
  9
$DIMLFAC
 40
1.0
  9
$DIMTOFL
 70
1
  9
$DIMTVP
 40
0.0
  9
$DIMTIX
 70
0
  9
$DIMSOXD
 70
0
  9
$DIMSAH
 70
0
  9
$DIMBLK1
  1

  9
$DIMBLK2
  1

  9
$DIMSTYLE
  2
ISO-25
  9
$DIMCLRD
 70
0
  9
$DIMCLRE
 70
0
  9
$DIMCLRT
 70
0
  9
$DIMTFAC
 40
1.0
  9
$DIMGAP
 40
0.625
  9
$DIMJUST
 70
0
  9
$DIMSD1
 70
0
  9
$DIMSD2
 70
0
  9
$DIMTOLJ
 70
0
  9
$DIMTZIN
 70
8
  9
$DIMALTZ
 70
0
  9
$DIMALTTZ
 70
0
  9
$DIMUPT
 70
0
  9
$DIMDEC
 70
2
  9
$DIMTDEC
 70
2
  9
$DIMALTU
 70
2
  9
$DIMALTTD
 70
3
  9
$DIMTXSTY
  7
Standard
  9
$DIMAUNIT
 70
0
  9
$DIMADEC
 70
0
  9
$DIMALTRND
 40
0.0
  9
$DIMAZIN
 70
0
  9
$DIMDSEP
 70
44
  9
$DIMATFIT
 70
3
  9
$DIMFRAC
 70
0
  9
$DIMLDRBLK
  1

  9
$DIMLUNIT
 70
2
  9
$DIMLWD
 70
-2
  9
$DIMLWE
 70
-2
  9
$DIMTMOVE
 70
0
  9
$DIMFXL
 40
1.0
  9
$DIMFXLON
 70
0
  9
$DIMJOGANG
 40
0.785398163397
  9
$DIMTFILL
 70
0
  9
$DIMTFILLCLR
 70
0
  9
$DIMARCSYM
 70
0
  9
$DIMLTYPE
  6

  9
$DIMLTEX1
  6

  9
$DIMLTEX2
  6

  9
$DIMTXTDIRECTION
 70
0
  9
$LUNITS
 70
2
  9
$LUPREC
 70
4
  9
$SKETCHINC
 40
1.0
  9
$FILLETRAD
 40
10.0
  9
$AUNITS
 70
0
  9
$AUPREC
 70
2
  9
$MENU
  1
.
  9
$ELEVATION
 40
0.0
  9
$PELEVATION
 40
0.0
  9
$THICKNESS
 40
0.0
  9
$LIMCHECK
 70
0
  9
$CHAMFERA
 40
0.0
  9
$CHAMFERB
 40
0.0
  9
$CHAMFERC
 40
0.0
  9
$CHAMFERD
 40
0.0
  9
$SKPOLY
 70
0
  9
$TDCREATE
 40
2461315.9224305553
  9
$TDUCREATE
 40
2458532.153996898
  9
$TDUPDATE
 40
2461315.9224305553
  9
$TDUUPDATE
 40
2458532.1544311
  9
$TDINDWG
 40
0.0
  9
$TDUSRTIMER
 40
0.0
  9
$USRTIMER
 70
1
  9
$ANGBASE
 50
0.0
  9
$ANGDIR
 70
0
  9
$PDMODE
 70
0
  9
$PDSIZE
 40
0.0
  9
$PLINEWID
 40
0.0
  9
$SPLFRAME
 70
0
  9
$SPLINETYPE
 70
6
  9
$SPLINESEGS
 70
8
  9
$HANDSEED
  5
1D2
  9
$SURFTAB1
 70
6
  9
$SURFTAB2
 70
6
  9
$SURFTYPE
 70
6
  9
$SURFU
 70
6
  9
$SURFV
 70
6
  9
$UCSBASE
  2

  9
$UCSNAME
  2

  9
$UCSORG
 10
0.0
 20
0.0
 30
0.0
  9
$UCSXDIR
 10
1.0
 20
0.0
 30
0.0
  9
$UCSYDIR
 10
0.0
 20
1.0
 30
0.0
  9
$UCSORTHOREF
  2

  9
$UCSORTHOVIEW
 70
0
  9
$UCSORGTOP
 10
0.0
 20
0.0
 30
0.0
  9
$UCSORGBOTTOM
 10
0.0
 20
0.0
 30
0.0
  9
$UCSORGLEFT
 10
0.0
 20
0.0
 30
0.0
  9
$UCSORGRIGHT
 10
0.0
 20
0.0
 30
0.0
  9
$UCSORGFRONT
 10
0.0
 20
0.0
 30
0.0
  9
$UCSORGBACK
 10
0.0
 20
0.0
 30
0.0
  9
$PUCSBASE
  2

  9
$PUCSNAME
  2

  9
$PUCSORG
 10
0.0
 20
0.0
 30
0.0
  9
$PUCSXDIR
 10
1.0
 20
0.0
 30
0.0
  9
$PUCSYDIR
 10
0.0
 20
1.0
 30
0.0
  9
$PUCSORTHOREF
  2

  9
$PUCSORTHOVIEW
 70
0
  9
$PUCSORGTOP
 10
0.0
 20
0.0
 30
0.0
  9
$PUCSORGBOTTOM
 10
0.0
 20
0.0
 30
0.0
  9
$PUCSORGLEFT
 10
0.0
 20
0.0
 30
0.0
  9
$PUCSORGRIGHT
 10
0.0
 20
0.0
 30
0.0
  9
$PUCSORGFRONT
 10
0.0
 20
0.0
 30
0.0
  9
$PUCSORGBACK
 10
0.0
 20
0.0
 30
0.0
  9
$USERI1
 70
0
  9
$USERI2
 70
0
  9
$USERI3
 70
0
  9
$USERI4
 70
0
  9
$USERI5
 70
0
  9
$USERR1
 40
0.0
  9
$USERR2
 40
0.0
  9
$USERR3
 40
0.0
  9
$USERR4
 40
0.0
  9
$USERR5
 40
0.0
  9
$WORLDVIEW
 70
1
  9
$SHADEDGE
 70
3
  9
$SHADEDIF
 70
70
  9
$TILEMODE
 70
1
  9
$MAXACTVP
 70
64
  9
$PINSBASE
 10
0.0
 20
0.0
 30
0.0
  9
$PLIMCHECK
 70
0
  9
$PEXTMIN
 10
1e+20
 20
1e+20
 30
1e+20
  9
$PEXTMAX
 10
-1e+20
 20
-1e+20
 30
-1e+20
  9
$PLIMMIN
 10
0.0
 20
0.0
  9
$PLIMMAX
 10
420.0
 20
297.0
  9
$UNITMODE
 70
0
  9
$VISRETAIN
 70
1
  9
$PLINEGEN
 70
0
  9
$PSLTSCALE
 70
1
  9
$TREEDEPTH
 70
3020
  9
$CMLSTYLE
  2
Standard
  9
$CMLJUST
 70
0
  9
$CMLSCALE
 40
20.0
  9
$PROXYGRAPHICS
 70
1
  9
$MEASUREMENT
 70
1
  9
$CELWEIGHT
370
-1
  9
$ENDCAPS
280
0
  9
$JOINSTYLE
280
0
  9
$LWDISPLAY
290
0
  9
$INSUNITS
 70
4
  9
$HYPERLINKBASE
  1

  9
$STYLESHEET
  1

  9
$XEDIT
290
1
  9
$CEPSNTYPE
380
0
  9
$PSTYLEMODE
290
1
  9
$FINGERPRINTGUID
  2
{C0F4490D-0175-4CC8-A603-AC9B16A5B01F}
  9
$VERSIONGUID
  2
{8B0462DA-62AC-4374-9B2B-DF7A2D487D76}
  9
$EXTNAMES
290
1
  9
$PSVPSCALE
 40
0.0
  9
$OLESTARTUP
290
0
  9
$SORTENTS
280
127
  9
$INDEXCTL
280
0
  9
$HIDETEXT
280
1
  9
$XCLIPFRAME
280
1
  9
$HALOGAP
280
0
  9
$OBSCOLOR
 70
257
  9
$OBSLTYPE
280
0
  9
$INTERSECTIONDISPLAY
280
0
  9
$INTERSECTIONCOLOR
 70
257
  9
$DIMASSOC
280
2
  9
$PROJECTNAME
  1

  9
$CAMERADISPLAY
290
0
  9
$LENSLENGTH
 40
50.0
  9
$CAMERAHEIGHT
 40
0.0
  9
$STEPSPERSEC
 40
24.0
  9
$STEPSIZE
 40
100.0
  9
$3DDWFPREC
 40
2.0
  9
$PSOLWIDTH
 40
0.005
  9
$PSOLHEIGHT
 40
0.08
  9
$LOFTANG1
 40
1.570796326795
  9
$LOFTANG2
 40
1.570796326795
  9
$LOFTMAG1
 40
0.0
  9
$LOFTMAG2
 40
0.0
  9
$LOFTPARAM
 70
7
  9
$LOFTNORMALS
280
1
  9
$LATITUDE
 40
37.795
  9
$LONGITUDE
 40
-122.394
  9
$NORTHDIRECTION
 40
0.0
  9
$TIMEZONE
 70
-8000
  9
$LIGHTGLYPHDISPLAY
280
1
  9
$TILEMODELIGHTSYNCH
280
1
  9
$CMATERIAL
347
20
  9
$SOLIDHIST
280
0
  9
$SHOWHIST
280
1
  9
$DWFFRAME
280
2
  9
$DGNFRAME
280
2
  9
$REALWORLDSCALE
290
1
  9
$INTERFERECOLOR
 62
256
  9
$CSHADOW
280
0
  9
$SHADOWPLANELOCATION
 40
0.0
  0
ENDSEC
  0
SECTION
  2
CLASSES
  0
CLASS
  1
ACDBDICTIONARYWDFLT
  2
AcDbDictionaryWithDefault
  3
ObjectDBX Classes
 90
0
 91
0
280
0
281
0
  0
CLASS
  1
SUN
  2
AcDbSun
  3
SCENEOE
 90
1153
 91
0
280
0
281
0
  0
CLASS
  1
VISUALSTYLE
  2
AcDbVisualStyle
  3
ObjectDBX Classes
 90
4095
 91
0
280
0
281
0
  0
CLASS
  1
MATERIAL
  2
AcDbMaterial
  3
ObjectDBX Classes
 90
1153
 91
0
280
0
281
0
  0
CLASS
  1
SCALE
  2
AcDbScale
  3
ObjectDBX Classes
 90
1153
 91
0
280
0
281
0
  0
CLASS
  1
TABLESTYLE
  2
AcDbTableStyle
  3
ObjectDBX Classes
 90
4095
 91
0
280
0
281
0
  0
CLASS
  1
MLEADERSTYLE
  2
AcDbMLeaderStyle
  3
ACDB_MLEADERSTYLE_CLASS
 90
4095
 91
0
280
0
281
0
  0
CLASS
  1
DICTIONARYVAR
  2
AcDbDictionaryVar
  3
ObjectDBX Classes
 90
0
 91
0
280
0
281
0
  0
CLASS
  1
CELLSTYLEMAP
  2
AcDbCellStyleMap
  3
ObjectDBX Classes
 90
1152
 91
0
280
0
281
0
  0
CLASS
  1
MENTALRAYRENDERSETTINGS
  2
AcDbMentalRayRenderSettings
  3
SCENEOE
 90
1024
 91
0
280
0
281
0
  0
CLASS
  1
ACDBDETAILVIEWSTYLE
  2
AcDbDetailViewStyle
  3
ObjectDBX Classes
 90
1025
 91
0
280
0
281
0
  0
CLASS
  1
ACDBSECTIONVIEWSTYLE
  2
AcDbSectionViewStyle
  3
ObjectDBX Classes
 90
1025
 91
0
280
0
281
0
  0
CLASS
  1
RASTERVARIABLES
  2
AcDbRasterVariables
  3
ISM
 90
0
 91
0
280
0
281
0
  0
CLASS
  1
LAYOUT
  2
AcDbLayout
  3
ObjectDBX Classes
 90
0
 91
0
280
0
281
0
  0
CLASS
  1
ACDBPLACEHOLDER
  2
AcDbPlaceHolder
  3
ObjectDBX Classes
 90
0
 91
0
280
0
281
0
  0
ENDSEC
  0
SECTION
  2
TABLES
  0
TABLE
  2
VPORT
  5
8
330
0
100
AcDbSymbolTable
 70
1
  0
VPORT
  5
1CE
330
8
100
AcDbSymbolTableRecord
100
AcDbViewportTableRecord
  2
*Active
 70
0
 10
0.0
 20
0.0
 11
1.0
 21
1.0
 12
0.0
 22
0.004832479404676349
 13
0.0
 23
0.0
 14
0.5
 24
0.5
 15
0.5
 25
0.5
 16
0.0
 26
0.0
 36
1.0
 17
0.0
 27
0.0
 37
0.0
 40
96.36556535297129
 41
1.34
 42
50.0
 43
0.0
 44
0.0
 50
0.0
 51
0.0
 71
0
 72
1000
 73
1
 74
3
 75
0
 76
0
 77
0
 78
0
281
0
 65
1
110
0.0
120
0.0
130
0.0
111
1.0
121
0.0
131
0.0
112
0.0
122
1.0
132
0.0
 79
0
146
0.0
  0
ENDTAB
  0
TABLE
  2
LTYPE
  5
2
330
0
100
AcDbSymbolTable
 70
3
  0
LTYPE
  5
24
330
2
100
AcDbSymbolTableRecord
100
AcDbLinetypeTableRecord
  2
ByBlock
 70
0
  3

 72
65
 73
0
 40
0.0
  0
LTYPE
  5
25
330
2
100
AcDbSymbolTableRecord
100
AcDbLinetypeTableRecord
  2
ByLayer
 70
0
  3

 72
65
 73
0
 40
0.0
  0
LTYPE
  5
26
330
2
100
AcDbSymbolTableRecord
100
AcDbLinetypeTableRecord
  2
Continuous
 70
0
  3

 72
65
 73
0
 40
0.0
  0
ENDTAB
  0
TABLE
  2
LAYER
  5
1
330
0
100
AcDbSymbolTable
 70
3
  0
LAYER
  5
27
330
1
100
AcDbSymbolTableRecord
100
AcDbLayerTableRecord
  2
0
 70
0
 62
7
  6
Continuous
370
-3
390
13
347
21
  0
LAYER
  5
28
330
1
100
AcDbSymbolTableRecord
100
AcDbLayerTableRecord
  2
Defpoints
 70
0
 62
7
  6
Continuous
290
0
370
-3
390
13
347
21
  0
LAYER
  5
2F
330
1
100
AcDbSymbolTableRecord
100
AcDbLayerTableRecord
  2
visible
 70
0
 62
7
  6
Continuous
370
-3
390
13
347
21
  0
ENDTAB
  0
TABLE
  2
STYLE
  5
5
330
0
100
AcDbSymbolTable
 70
1
  0
STYLE
  5
29
330
5
100
AcDbSymbolTableRecord
100
AcDbTextStyleTableRecord
  2
Standard
 70
0
 40
0.0
 41
1.0
 50
0.0
 71
0
 42
2.5
  3
txt
  4

  0
ENDTAB
  0
TABLE
  2
VIEW
  5
7
330
0
100
AcDbSymbolTable
 70
0
  0
ENDTAB
  0
TABLE
  2
UCS
  5
6
330
0
100
AcDbSymbolTable
 70
0
  0
ENDTAB
  0
TABLE
  2
APPID
  5
3
330
0
100
AcDbSymbolTable
 70
3
  0
APPID
  5
2A
330
3
100
AcDbSymbolTableRecord
100
AcDbRegAppTableRecord
  2
ACAD
 70
0
  0
APPID
  5
1CF
330
3
100
AcDbSymbolTableRecord
100
AcDbRegAppTableRecord
  2
HATCHBACKGROUNDCOLOR
 70
0
  0
APPID
  5
1D0
330
3
100
AcDbSymbolTableRecord
100
AcDbRegAppTableRecord
  2
EZDXF
 70
0
  0
ENDTAB
  0
TABLE
  2
DIMSTYLE
  5
4
330
0
100
AcDbSymbolTable
 70
1
100
AcDbDimStyleTable
  0
DIMSTYLE
105
2B
330
4
100
AcDbSymbolTableRecord
100
AcDbDimStyleTableRecord
  2
Standard
 70
0
 40
1.0
 41
2.5
 42
0.625
 43
3.75
 44
1.25
 45
0.0
 46
0.0
 47
0.0
 48
0.0
 49
2.5
140
2.5
141
2.5
142
0.0
143
0.03937007874
144
1.0
145
0.0
146
1.0
147
0.625
148
0.0
 69
0
 70
0
 71
0
 72
0
 73
0
 74
0
 75
0
 76
0
 77
1
 78
8
 79
3
170
0
171
3
172
1
173
0
174
0
175
0
176
0
177
0
178
0
179
2
271
2
272
2
273
2
274
3
275
0
276
0
277
2
278
44
279
0
280
0
281
0
282
0
283
0
284
8
285
0
286
0
288
0
289
3
290
0
371
-2
372
-2
  0
ENDTAB
  0
TABLE
  2
BLOCK_RECORD
  5
9
330
0
100
AcDbSymbolTable
 70
2
  0
BLOCK_RECORD
  5
17
330
9
100
AcDbSymbolTableRecord
100
AcDbBlockTableRecord
  2
*Model_Space
340
1A
 70
0
280
1
281
0
  0
BLOCK_RECORD
  5
1B
330
9
100
AcDbSymbolTableRecord
100
AcDbBlockTableRecord
  2
*Paper_Space
340
1E
 70
0
280
1
281
0
  0
ENDTAB
  0
ENDSEC
  0
SECTION
  2
BLOCKS
  0
BLOCK
  5
18
330
17
100
AcDbEntity
  8
0
100
AcDbBlockBegin
  2
*Model_Space
 70
0
 10
0.0
 20
0.0
 30
0.0
  3
*Model_Space
  1

  0
ENDBLK
  5
19
330
17
100
AcDbEntity
  8
0
100
AcDbBlockEnd
  0
BLOCK
  5
1C
330
1B
100
AcDbEntity
  8
0
100
AcDbBlockBegin
  2
*Paper_Space
 70
0
 10
0.0
 20
0.0
 30
0.0
  3
*Paper_Space
  1

  0
ENDBLK
  5
1D
330
1B
100
AcDbEntity
  8
0
100
AcDbBlockEnd
  0
ENDSEC
  0
SECTION
  2
ENTITIES
  0
LINE
  5
30
330
17
100
AcDbEntity
  8
visible
100
AcDbLine
 10
-63.376729274419944
 20
-16.826889980674775
 30
0.0
 11
-63.376729274419944
 21
9.273775596649497
 31
0.0
  0
ELLIPSE
  5
31
330
17
100
AcDbEntity
  8
visible
100
AcDbEllipse
 10
-50.0
 20
11.310288373339397
 30
0.0
 11
14.0
 21
0.0
 31
0.0
 40
0.49301257187112135
 41
3.441104405392186
 42
4.068887871591405
  0
ELLIPSE
  5
32
330
17
100
AcDbEntity
  8
visible
100
AcDbEllipse
 10
-50.0
 20
4.785121979008331
 30
0.0
 11
14.0
 21
0.0
 31
0.0
 40
0.49301257187112135
 41
3.46200296091471
 42
4.068887871591405
  0
LINE
  5
33
330
17
100
AcDbEntity
  8
visible
100
AcDbLine
 10
-63.28748776906852
 20
-7.8290260835178405
 30
0.0
 11
-63.28748776906852
 21
2.6112401474118663
 31
0.0
  0
ELLIPSE
  5
34
330
17
100
AcDbEntity
  8
visible
100
AcDbEllipse
 10
-50.0
 20
-5.655144251921378
 30
0.0
 11
14.0
 21
0.0
 31
0.0
 40
0.49301257187112135
 41
3.46200296091471
 42
4.068887871591405
  0
ELLIPSE
  5
35
330
17
100
AcDbEntity
  8
visible
100
AcDbEllipse
 10
-59.8
 20
16.710226074095495
 30
0.0
 11
4.5
 21
0.0
 31
0.0
 40
0.49301257187112135
 41
2.392222901213901
 42
3.141592653589793
  0
ELLIPSE
  5
36
330
17
100
AcDbEntity
  8
visible
100
AcDbEllipse
 10
-59.8
 20
16.710226074095495
 30
0.0
 11
4.5
 21
0.0
 31
0.0
 40
0.49301257187112135
 41
3.141592653589793
 42
4.17475651517401
  0
SPLINE
  5
37
330
17
100
AcDbEntity
  8
visible
100
AcDbSpline
 70
0
 71
3
 72
14
 73
10
 74
0
 40
0.0
 40
0.0
 40
0.0
 40
0.0
 40
0.2891503397376298
 40
0.2891503397376298
 40
0.2891503397376298
 40
0.6069235624019693
 40
0.6069235624019693
 40
0.6069235624019693
 40
1.0
 40
1.0
 40
1.0
 40
1.0
 10
-63.376729274419944
 20
14.667913149296526
 30
0.0
 10
-63.37723498018247
 20
14.792139992954601
 30
0.0
 10
-63.30790736894397
 20
14.862505805016319
 30
0.0
 10
-63.209254132695634
 20
14.898223488067185
 30
0.0
 10
-63.10005442904889
 20
14.937872607308218
 30
0.0
 10
-62.955586951357205
 20
14.943727942882234
 30
0.0
 10
-62.79146197168442
 20
14.932889306586379
 30
0.0
 10
-62.58843261156147
 20
14.918497927192558
 30
0.0
 10
-62.35110227751878
 20
14.876727825692846
 30
0.0
 10
-62.10446753868548
 20
14.80465567214425
 30
0.0
  0
LINE
  5
38
330
17
100
AcDbEntity
  8
visible
100
AcDbLine
 10
-63.376729274419944
 20
10.317802219742468
 30
0.0
 11
-63.376729274419944
 21
14.667913149296517
 31
0.0
  0
LINE
  5
39
330
17
100
AcDbEntity
  8
visible
100
AcDbLine
 10
-62.403744040291265
 20
8.89760824710533
 30
0.0
 11
-62.403744040291265
 21
9.153636759613132
 31
0.0
  0
SPLINE
  5
3A
330
17
100
AcDbEntity
  8
visible
100
AcDbSpline
 70
0
 71
2
 72
6
 73
3
 74
0
 40
0.0
 40
0.0
 40
0.0
 40
1.0
 40
1.0
 40
1.0
 10
-62.40374404029127
 20
8.897608247105332
 30
0.0
 10
-62.403696396894325
 20
8.853519688934542
 30
0.0
 10
-62.38838670795731
 20
8.805258464383709
 30
0.0
  0
ELLIPSE
  5
3B
330
17
100
AcDbEntity
  8
visible
100
AcDbEllipse
 10
-59.8
 20
10.620070772719828
 30
0.0
 11
4.5
 21
0.0
 31
0.0
 40
0.49301257187112135
 41
3.793663692368815
 42
4.099543969324461
  0
ELLIPSE
  5
3C
330
17
100
AcDbEntity
  8
visible
100
AcDbEllipse
 10
-59.8
 20
-15.480594804604442
 30
0.0
 11
4.5
 21
0.0
 31
0.0
 40
0.49301257187112135
 41
3.141592653589793
 42
3.793663692368815
  0
ELLIPSE
  5
3D
330
17
100
AcDbEntity
  8
visible
100
AcDbEllipse
 10
13.999999999999996
 20
-12.354315076474425
 30
0.0
 11
14.0
 21
0.0
 31
0.0
 40
0.49301257187112135
 41
4.068887871591405
 42
4.696671337790625
  0
LINE
  5
3E
330
17
100
AcDbEntity
  8
visible
100
AcDbLine
 10
-58.4
 20
5.788547568382837
 30
0.0
 11
5.599999999999994
 21
-17.876055881430993
 31
0.0
  0
ELLIPSE
  5
3F
330
17
100
AcDbEntity
  8
visible
100
AcDbEllipse
 10
-50.0
 20
11.310288373339397
 30
0.0
 11
-13.389897948556635
 21
-0.0
 31
0.0
 40
0.49301257187112135
 41
-5.893961728966464
 42
-5.355890089177974
  0
LINE
  5
40
330
17
100
AcDbEntity
  8
visible
100
AcDbLine
 10
5.966061230866018
 20
-17.635425496242238
 30
0.0
 11
-58.03393876913398
 21
6.029177953571594
 31
0.0
  0
ELLIPSE
  5
41
330
17
100
AcDbEntity
  8
visible
100
AcDbEllipse
 10
14.0
 20
-12.354315076474428
 30
0.0
 11
-13.389897948556635
 21
-0.0
 31
0.0
 40
0.49301257187112135
 41
-5.355890089177974
 42
-4.817818449389469
  0
ELLIPSE
  5
42
330
17
100
AcDbEntity
  8
visible
100
AcDbEllipse
 10
15.399999999999995
 20
-17.185838280811414
 30
0.0
 11
4.5
 21
0.0
 31
0.0
 40
0.49301257187112135
 41
4.0382317738583895
 42
4.344112050813997
  0
LINE
  5
43
330
17
100
AcDbEntity
  8
visible
100
AcDbLine
 10
-58.4
 20
-11.176885056877937
 30
0.0
 11
-55.199999999999996
 21
-12.360115229368628
 31
0.0
  0
LINE
  5
44
330
17
100
AcDbEntity
  8
visible
100
AcDbLine
 10
-58.4
 20
-0.736618825948232
 30
0.0
 11
-55.199999999999996
 21
-1.9198489984389235
 31
0.0
  0
LINE
  5
45
330
17
100
AcDbEntity
  8
visible
100
AcDbLine
 10
-55.199999999999996
 20
-1.919848998438919
 30
0.0
 11
-55.199999999999996
 21
-12.360115229368628
 31
0.0
  0
LINE
  5
46
330
17
100
AcDbEntity
  8
visible
100
AcDbLine
 10
-44.4
 20
-17.658550340390924
 30
0.0
 11
-40.400000000000006
 21
-19.13758805600429
 31
0.0
  0
LINE
  5
47
330
17
100
AcDbEntity
  8
visible
100
AcDbLine
 10
-44.4
 20
-17.658550340390924
 30
0.0
 11
-44.4
 21
-20.268616898123348
 31
0.0
  0
LINE
  5
48
330
17
100
AcDbEntity
  8
visible
100
AcDbLine
 10
-40.4
 20
-19.13758805600429
 30
0.0
 11
-40.4
 21
-21.747654613736714
 31
0.0
  0
LINE
  5
49
330
17
100
AcDbEntity
  8
visible
100
AcDbLine
 10
-44.4
 20
-20.26861689812335
 30
0.0
 11
-40.400000000000006
 21
-21.747654613736717
 31
0.0
  0
LINE
  5
4A
330
17
100
AcDbEntity
  8
visible
100
AcDbLine
 10
-36.400000000000006
 20
-20.616625771617656
 30
0.0
 11
-32.400000000000006
 21
-22.09566348723102
 31
0.0
  0
LINE
  5
4B
330
17
100
AcDbEntity
  8
visible
100
AcDbLine
 10
-36.4
 20
-20.616625771617656
 30
0.0
 11
-36.4
 21
-23.22669232935008
 31
0.0
  0
LINE
  5
4C
330
17
100
AcDbEntity
  8
visible
100
AcDbLine
 10
-32.4
 20
-22.095663487231022
 30
0.0
 11
-32.4
 21
-24.705730044963445
 31
0.0
  0
LINE
  5
4D
330
17
100
AcDbEntity
  8
visible
100
AcDbLine
 10
-36.400000000000006
 20
-23.22669232935008
 30
0.0
 11
-32.400000000000006
 21
-24.705730044963445
 31
0.0
  0
LINE
  5
4E
330
17
100
AcDbEntity
  8
visible
100
AcDbLine
 10
-31.067578085
 20
-11.13722429170529
 30
0.0
 11
-31.067578085
 21
-11.770624232717507
 31
0.0
  0
SPLINE
  5
4F
330
17
100
AcDbEntity
  8
visible
100
AcDbSpline
 70
0
 71
2
 72
6
 73
3
 74
0
 40
0.0
 40
0.0
 40
0.0
 40
1.0
 40
1.0
 40
1.0
 10
-31.067578085
 20
-11.13722429170529
 30
0.0
 10
-31.350815942453867
 20
-10.821983157969976
 30
0.0
 10
-31.6759765225
 20
-10.595563262403498
 30
0.0
  0
SPLINE
  5
50
330
17
100
AcDbEntity
  8
visible
100
AcDbSpline
 70
0
 71
2
 72
6
 73
3
 74
0
 40
0.0
 40
0.0
 40
0.0
 40
1.0
 40
1.0
 40
1.0
 10
-31.6623046475
 20
-11.128451851272384
 30
0.0
 10
-31.33900930985884
 20
-11.39313136584093
 30
0.0
 10
-31.067578085
 20
-11.770624232717507
 30
0.0
  0
SPLINE
  5
51
330
17
100
AcDbEntity
  8
visible
100
AcDbSpline
 70
0
 71
2
 72
6
 73
3
 74
0
 40
0.0
 40
0.0
 40
0.0
 40
1.0
 40
1.0
 40
1.0
 10
-31.6759765225
 20
-10.595563262403498
 30
0.0
 10
-32.00606828907874
 20
-10.367041125689491
 30
0.0
 10
-32.36640621
 20
-10.234703718620217
 30
0.0
  0
SPLINE
  5
52
330
17
100
AcDbEntity
  8
visible
100
AcDbSpline
 70
0
 71
2
 72
6
 73
3
 74
0
 40
0.0
 40
0.0
 40
0.0
 40
1.0
 40
1.0
 40
1.0
 10
-32.33359371
 20
-10.740472084660581
 30
0.0
 10
-31.98118036959956
 20
-10.870201581723169
 30
0.0
 10
-31.6623046475
 20
-11.128451851272382
 30
0.0
  0
SPLINE
  5
53
330
17
100
AcDbEntity
  8
visible
100
AcDbSpline
 70
0
 71
3
 72
11
 73
7
 74
0
 40
0.0
 40
0.0
 40
0.0
 40
0.0
 40
0.541695364487221
 40
0.541695364487221
 40
0.541695364487221
 40
0.9342833763104598
 40
0.9342833763104598
 40
0.9342833763104598
 40
0.9342833763104598
 10
-32.36640621
 20
-10.234703718620217
 30
0.0
 10
-32.66467355111736
 20
-10.12419662069279
 30
0.0
 10
-32.9603161316339
 20
-10.063691582835098
 30
0.0
 10
-33.228297135000005
 20
-10.084790999347243
 30
0.0
 10
-33.42404447038187
 20
-10.09986299386723
 30
0.0
 10
-33.59871427767612
 20
-10.157704758585712
 30
0.0
 10
-33.7523065568827
 20
-10.258316293502677
 30
0.0
  0
SPLINE
  5
54
330
17
100
AcDbEntity
  8
visible
100
AcDbSpline
 70
0
 71
1
 72
4
 73
2
 74
0
 40
0.0
 40
0.0
 40
1.0
 40
1.0
 10
-33.75230655688271
 20
-10.258316293502679
 30
0.0
 10
-33.82656246
 20
-10.311841720984914
 30
0.0
  0
SPLINE
  5
55
330
17
100
AcDbEntity
  8
visible
100
AcDbSpline
 70
0
 71
2
 72
6
 73
3
 74
0
 40
0.0
 40
0.0
 40
0.0
 40
0.09987941532756274
 40
0.09987941532756274
 40
0.09987941532756274
 10
-33.40546871
 20
-10.80952159947341
 30
0.0
 10
-33.367006404200204
 20
-10.77558609787409
 30
0.0
 10
-33.32459110865226
 20
-10.747682278643056
 30
0.0
  0
SPLINE
  5
56
330
17
100
AcDbEntity
  8
visible
100
AcDbSpline
 70
0
 71
3
 72
8
 73
4
 74
0
 40
0.0
 40
0.0
 40
0.0
 40
0.0
 40
1.0
 40
1.0
 40
1.0
 40
1.0
 10
-33.32459110865226
 20
-10.747682278643058
 30
0.0
 10
-33.07003985277374
 20
-10.575803646158505
 30
0.0
 10
-32.706712378862136
 20
-10.599642203980276
 30
0.0
 10
-32.33359371
 20
-10.740472084660581
 30
0.0
  0
SPLINE
  5
57
330
17
100
AcDbEntity
  8
visible
100
AcDbSpline
 70
0
 71
3
 72
11
 73
7
 74
0
 40
0.0
 40
0.0
 40
0.0
 40
0.0
 40
0.6298555326701425
 40
0.6298555326701425
 40
0.6298555326701425
 40
1.0
 40
1.0
 40
1.0
 40
1.0
 10
-33.826562460000005
 20
-10.311841720984912
 30
0.0
 10
-34.06642191646314
 20
-10.498433138748732
 30
0.0
 10
-34.22244895937893
 20
-10.793229104201837
 30
0.0
 10
-34.29666846
 20
-11.142731353051202
 30
0.0
 10
-34.33991106107556
 20
-11.349398911923858
 30
0.0
 10
-34.36094343607559
 20
-11.569243291920035
 30
0.0
 10
-34.359765585
 20
-11.802264493039722
 30
0.0
  0
SPLINE
  5
58
330
17
100
AcDbEntity
  8
visible
100
AcDbSpline
 70
0
 71
3
 72
8
 73
4
 74
0
 40
0.0
 40
0.0
 40
0.0
 40
0.0
 40
1.0
 40
1.0
 40
1.0
 40
1.0
 10
-33.77734371
 20
-12.017620472920534
 30
0.0
 10
-33.77849292071621
 20
-11.518556736314943
 30
0.0
 10
-33.68508901432551
 20
-11.054269107659778
 30
0.0
 10
-33.40546871000001
 20
-10.80952159947341
 30
0.0
  0
SPLINE
  5
59
330
17
100
AcDbEntity
  8
visible
100
AcDbSpline
 70
0
 71
3
 72
11
 73
7
 74
0
 40
0.0
 40
0.0
 40
0.0
 40
0.0
 40
0.36781947571318296
 40
0.36781947571318296
 40
0.36781947571318296
 40
1.0
 40
1.0
 40
1.0
 40
1.0
 10
-34.359765585
 20
-11.802264493039722
 30
0.0
 10
-34.36091670580385
 20
-12.032564949888268
 30
0.0
 10
-34.340128182366385
 20
-12.266090950993222
 30
0.0
 10
-34.297400014687504
 20
-12.502842496354571
 30
0.0
 10
-34.22336867515711
 20
-12.908066243192627
 30
0.0
 10
-34.06700450560789
 20
-13.319190217383943
 30
0.0
 10
-33.826562460000005
 20
-13.684027322430229
 30
0.0
  0
SPLINE
  5
5A
330
17
100
AcDbEntity
  8
visible
100
AcDbSpline
 70
0
 71
3
 72
8
 73
4
 74
0
 40
0.0
 40
0.0
 40
0.0
 40
0.0
 40
1.0
 40
1.0
 40
1.0
 40
1.0
 10
-33.40546871000001
 20
-13.497754212971262
 30
0.0
 10
-33.68469922653137
 20
-13.046967985151335
 30
0.0
 10
-33.77853798249321
 20
-12.514804816905215
 30
0.0
 10
-33.77734371
 20
-12.017620472920534
 30
0.0
  0
SPLINE
  5
5B
330
17
100
AcDbEntity
  8
visible
100
AcDbSpline
 70
0
 71
3
 72
11
 73
7
 74
0
 40
0.0
 40
0.0
 40
0.0
 40
0.0
 40
0.45830463551269063
 40
0.45830463551269063
 40
0.45830463551269063
 40
1.0
 40
1.0
 40
1.0
 40
1.0
 10
-33.82656246
 20
-13.684027322430232
 30
0.0
 10
-33.659261436087135
 20
-13.940336612604623
 30
0.0
 10
-33.45499608587598
 20
-14.168838568963347
 30
0.0
 10
-33.22829713499999
 20
-14.353506533877251
 30
0.0
 10
-32.96031613163387
 20
-14.5727829559126
 30
0.0
 10
-32.664673551117325
 20
-14.730911181517506
 30
0.0
 10
-32.36640621
 20
-14.840978407014212
 30
0.0
  0
SPLINE
  5
5C
330
17
100
AcDbEntity
  8
visible
100
AcDbSpline
 70
0
 71
3
 72
11
 73
7
 74
0
 40
0.0
 40
0.0
 40
0.0
 40
0.0
 40
0.5601545193542434
 40
0.5601545193542434
 40
0.5601545193542434
 40
1.0
 40
1.0
 40
1.0
 40
1.0
 10
-32.33359371
 20
-14.35947550349563
 30
0.0
 10
-32.5661786131896
 20
-14.273651030016653
 30
0.0
 10
-32.79378652778513
 20
-14.150247944215131
 30
0.0
 10
-32.99495775687499
 20
-13.978720446187483
 30
0.0
 10
-33.15443037504579
 20
-13.842959266614821
 30
0.0
 10
-33.291267359420765
 20
-13.682637188876086
 30
0.0
 10
-33.40546871
 20
-13.497754212971264
 30
0.0
  0
SPLINE
  5
5D
330
17
100
AcDbEntity
  8
visible
100
AcDbSpline
 70
0
 71
2
 72
6
 73
3
 74
0
 40
0.0
 40
0.0
 40
0.0
 40
1.0
 40
1.0
 40
1.0
 10
-32.36640621
 20
-14.840978407014212
 30
0.0
 10
-32.01023227418141
 20
-14.9733948671431
 30
0.0
 10
-31.681445272499996
 20
-14.987195660928316
 30
0.0
  0
SPLINE
  5
5E
330
17
100
AcDbEntity
  8
visible
100
AcDbSpline
 70
0
 71
2
 72
6
 73
3
 74
0
 40
0.0
 40
0.0
 40
0.0
 40
1.0
 40
1.0
 40
1.0
 10
-31.6623046475
 20
-14.467926657641948
 30
0.0
 10
-31.981180366470184
 20
-14.490362317672428
 30
0.0
 10
-32.33359371
 20
-14.35947550349563
 30
0.0
  0
SPLINE
  5
5F
330
17
100
AcDbEntity
  8
visible
100
AcDbSpline
 70
0
 71
2
 72
6
 73
3
 74
0
 40
0.0
 40
0.0
 40
0.0
 40
1.0
 40
1.0
 40
1.0
 10
-31.6814452725
 20
-14.987195660928316
 30
0.0
 10
-31.35519080373007
 20
-14.99958132480551
 30
0.0
 10
-31.067578085
 20
-14.893018308129836
 30
0.0
  0
SPLINE
  5
60
330
17
100
AcDbEntity
  8
visible
100
AcDbSpline
 70
0
 71
2
 72
6
 73
3
 74
0
 40
0.0
 40
0.0
 40
0.0
 40
1.0
 40
1.0
 40
1.0
 10
-31.067578085
 20
-14.265565784404123
 30
0.0
 10
-31.339009308838957
 20
-14.442330141620113
 30
0.0
 10
-31.6623046475
 20
-14.46792665764195
 30
0.0
  0
LINE
  5
61
330
17
100
AcDbEntity
  8
visible
100
AcDbLine
 10
-31.067578085
 20
-14.26556578440412
 30
0.0
 11
-31.067578085
 21
-14.893018308129836
 31
0.0
  0
LINE
  5
62
330
17
100
AcDbEntity
  8
visible
100
AcDbLine
 10
-30.720312460000002
 20
-15.363399541281325
 30
0.0
 11
-29.161718710000002
 21
-11.499957271801637
 31
0.0
  0
LINE
  5
63
330
17
100
AcDbEntity
  8
visible
100
AcDbLine
 10
-30.137890585
 20
-15.578755521162142
 30
0.0
 11
-30.72031246
 21
-15.363399541281328
 31
0.0
  0
LINE
  5
64
330
17
100
AcDbEntity
  8
visible
100
AcDbLine
 10
-29.16171871
 20
-11.499957271801643
 30
0.0
 11
-28.535546834999998
 21
-11.731490226696977
 31
0.0
  0
LINE
  5
65
330
17
100
AcDbEntity
  8
visible
100
AcDbLine
 10
-29.766015584999998
 20
-14.577329398420886
 30
0.0
 11
-30.137890584999997
 21
-15.578755521162142
 31
0.0
  0
LINE
  5
66
330
17
100
AcDbEntity
  8
visible
100
AcDbLine
 10
-28.535546834999998
 20
-11.731490226696973
 30
0.0
 11
-26.97968746
 21
-16.746530905022887
 31
0.0
  0
LINE
  5
67
330
17
100
AcDbEntity
  8
visible
100
AcDbLine
 10
-27.925781209999997
 20
-15.257773409969182
 30
0.0
 11
-29.76601558499999
 21
-14.577329398420886
 31
0.0
  0
LINE
  5
68
330
17
100
AcDbEntity
  8
visible
100
AcDbLine
 10
-26.97968746
 20
-16.74653090502289
 30
0.0
 11
-27.55390621
 21
-16.534208107957298
 31
0.0
  0
LINE
  5
69
330
17
100
AcDbEntity
  8
visible
100
AcDbLine
 10
-27.553906209999997
 20
-16.534208107957298
 30
0.0
 11
-27.925781209999997
 21
-15.257773409969182
 31
0.0
  0
LINE
  5
6A
330
17
100
AcDbEntity
  8
visible
100
AcDbLine
 10
-28.400000000000002
 20
-23.57470120284438
 30
0.0
 11
-24.400000000000002
 21
-25.053738918457746
 31
0.0
  0
LINE
  5
6B
330
17
100
AcDbEntity
  8
visible
100
AcDbLine
 10
-28.4
 20
-23.57470120284438
 30
0.0
 11
-28.4
 21
-26.184767760576804
 31
0.0
  0
LINE
  5
6C
330
17
100
AcDbEntity
  8
visible
100
AcDbLine
 10
-24.4
 20
-25.053738918457746
 30
0.0
 11
-24.4
 21
-27.66380547619017
 31
0.0
  0
LINE
  5
6D
330
17
100
AcDbEntity
  8
visible
100
AcDbLine
 10
-28.400000000000002
 20
-26.18476776057681
 30
0.0
 11
-24.400000000000002
 21
-27.663805476190177
 31
0.0
  0
LINE
  5
6E
330
17
100
AcDbEntity
  8
visible
100
AcDbLine
 10
-20.400000000000002
 20
-26.532776634071112
 30
0.0
 11
-16.400000000000002
 21
-28.011814349684474
 31
0.0
  0
LINE
  5
6F
330
17
100
AcDbEntity
  8
visible
100
AcDbLine
 10
-20.4
 20
-26.532776634071112
 30
0.0
 11
-20.4
 21
-29.142843191803536
 31
0.0
  0
LINE
  5
70
330
17
100
AcDbEntity
  8
visible
100
AcDbLine
 10
-16.4
 20
-28.011814349684478
 30
0.0
 11
-16.4
 21
-30.6218809074169
 31
0.0
  0
LINE
  5
71
330
17
100
AcDbEntity
  8
visible
100
AcDbLine
 10
-20.400000000000002
 20
-29.142843191803536
 30
0.0
 11
-16.400000000000002
 21
-30.6218809074169
 31
0.0
  0
LINE
  5
72
330
17
100
AcDbEntity
  8
visible
100
AcDbLine
 10
-12.400000000000002
 20
-29.49085206529784
 30
0.0
 11
-8.399999999999999
 21
-30.969889780911206
 31
0.0
  0
LINE
  5
73
330
17
100
AcDbEntity
  8
visible
100
AcDbLine
 10
-8.399999999999999
 20
-30.969889780911203
 30
0.0
 11
-8.399999999999999
 21
-33.579956338643626
 31
0.0
  0
LINE
  5
74
330
17
100
AcDbEntity
  8
visible
100
AcDbLine
 10
-12.400000000000002
 20
-32.10091862303027
 30
0.0
 11
-8.399999999999999
 21
-33.57995633864363
 31
0.0
  0
LINE
  5
75
330
17
100
AcDbEntity
  8
visible
100
AcDbLine
 10
-12.4
 20
-29.490852065297837
 30
0.0
 11
-12.4
 21
-32.10091862303026
 31
0.0
  0
LINE
  5
76
330
17
100
AcDbEntity
  8
visible
100
AcDbLine
 10
-26.38359371
 20
-16.96694218959574
 30
0.0
 11
-26.38359371
 21
-12.527195185223736
 31
0.0
  0
LINE
  5
77
330
17
100
AcDbEntity
  8
visible
100
AcDbLine
 10
-25.847656209999997
 20
-17.165110133523623
 30
0.0
 11
-26.383593709999996
 21
-16.966942189595738
 31
0.0
  0
LINE
  5
78
330
17
100
AcDbEntity
  8
visible
100
AcDbLine
 10
-26.383593709999996
 20
-12.52719518522374
 30
0.0
 11
-25.560546834999997
 21
-12.831524527684417
 31
0.0
  0
LINE
  5
79
330
17
100
AcDbEntity
  8
visible
100
AcDbLine
 10
-25.84765621
 20
-13.266578102223091
 30
0.0
 11
-25.84765621
 21
-17.165110133523626
 31
0.0
  0
LINE
  5
7A
330
17
100
AcDbEntity
  8
visible
100
AcDbLine
 10
-25.560546835
 20
-12.831524527684415
 30
0.0
 11
-24.518749959999997
 21
-16.238026726759532
 31
0.0
  0
LINE
  5
7B
330
17
100
AcDbEntity
  8
visible
100
AcDbLine
 10
-24.794921835
 20
-16.700914214197834
 30
0.0
 11
-25.84765621
 21
-13.266578102223086
 31
0.0
  0
LINE
  5
7C
330
17
100
AcDbEntity
  8
visible
100
AcDbLine
 10
-24.518749959999994
 20
-16.238026726759536
 30
0.0
 11
-23.471484334999996
 21
-13.603975084627802
 31
0.0
  0
LINE
  5
7D
330
17
100
AcDbEntity
  8
visible
100
AcDbLine
 10
-24.23984371
 20
-16.90615958469457
 30
0.0
 11
-24.794921834999997
 21
-16.700914214197837
 31
0.0
  0
LINE
  5
7E
330
17
100
AcDbEntity
  8
visible
100
AcDbLine
 10
-23.471484334999996
 20
-13.603975084627802
 30
0.0
 11
-22.648437459999997
 21
-13.908304427088481
 31
0.0
  0
LINE
  5
7F
330
17
100
AcDbEntity
  8
visible
100
AcDbLine
 10
-23.187109335
 20
-14.250340395293657
 30
0.0
 11
-24.239843709999995
 21
-16.90615958469457
 31
0.0
  0
LINE
  5
80
330
17
100
AcDbEntity
  8
visible
100
AcDbLine
 10
-22.64843746
 20
-13.908304427088483
 30
0.0
 11
-22.64843746
 21
-18.348051431460487
 31
0.0
  0
LINE
  5
81
330
17
100
AcDbEntity
  8
visible
100
AcDbLine
 10
-23.187109335
 20
-18.148872426594195
 30
0.0
 11
-23.187109335
 21
-14.25034039529366
 31
0.0
  0
LINE
  5
82
330
17
100
AcDbEntity
  8
visible
100
AcDbLine
 10
-22.648437459999997
 20
-18.348051431460483
 30
0.0
 11
-23.187109334999995
 21
-18.148872426594195
 31
0.0
  0
LINE
  5
83
330
17
100
AcDbEntity
  8
visible
100
AcDbLine
 10
-20.477343709999996
 20
-16.780788027885976
 30
0.0
 11
-21.748828084999996
 21
-14.240943475824569
 31
0.0
  0
LINE
  5
84
330
17
100
AcDbEntity
  8
visible
100
AcDbLine
 10
-21.934765584999994
 20
-18.61193833638486
 30
0.0
 11
-20.477343709999992
 21
-16.780788027885976
 31
0.0
  0
LINE
  5
85
330
17
100
AcDbEntity
  8
visible
100
AcDbLine
 10
-21.748828084999996
 20
-14.240943475824574
 30
0.0
 11
-21.155468709999994
 21
-14.460343699459019
 31
0.0
  0
LINE
  5
86
330
17
100
AcDbEntity
  8
visible
100
AcDbLine
 10
-21.338671834999996
 20
-18.83234962095771
 30
0.0
 11
-21.934765584999994
 21
-18.61193833638486
 31
0.0
  0
LINE
  5
87
330
17
100
AcDbEntity
  8
visible
100
AcDbLine
 10
-21.155468709999994
 20
-14.460343699459013
 30
0.0
 11
-20.141015584999995
 21
-16.48585560461188
 31
0.0
  0
LINE
  5
88
330
17
100
AcDbEntity
  8
visible
100
AcDbLine
 10
-20.18203120999999
 20
-17.371723409440463
 30
0.0
 11
-21.338671834999992
 21
-18.832349620957707
 31
0.0
  0
LINE
  5
89
330
17
100
AcDbEntity
  8
visible
100
AcDbLine
 10
-20.141015584999998
 20
-16.485855604611885
 30
0.0
 11
-19.121093709999997
 21
-15.212573037634247
 31
0.0
  0
LINE
  5
8A
330
17
100
AcDbEntity
  8
visible
100
AcDbLine
 10
-19.033593709999998
 20
-19.684673992035297
 30
0.0
 11
-20.182031209999998
 21
-17.37172340944047
 31
0.0
  0
LINE
  5
8B
330
17
100
AcDbEntity
  8
visible
100
AcDbLine
 10
-19.121093709999993
 20
-15.212573037634252
 30
0.0
 11
-18.52773433499999
 21
-15.431973261268697
 31
0.0
  0
LINE
  5
8C
330
17
100
AcDbEntity
  8
visible
100
AcDbLine
 10
-18.440234334999996
 20
-19.90407421566974
 30
0.0
 11
-19.033593709999995
 21
-19.684673992035297
 31
0.0
  0
LINE
  5
8D
330
17
100
AcDbEntity
  8
visible
100
AcDbLine
 10
-18.527734334999995
 20
-15.43197326126869
 30
0.0
 11
-19.84023433499999
 21
-17.078813108043185
 31
0.0
  0
LINE
  5
8E
330
17
100
AcDbEntity
  8
visible
100
AcDbLine
 10
-19.840234334999998
 20
-17.078813108043192
 30
0.0
 11
-18.440234335
 21
-19.904074215669745
 31
0.0
  0
LINE
  5
8F
330
17
100
AcDbEntity
  8
visible
100
AcDbLine
 10
-63.28748776906853
 20
-7.829026083517841
 30
0.0
 11
-55.199999999999996
 21
-10.819450942271377
 31
0.0
  0
ELLIPSE
  5
90
330
17
100
AcDbEntity
  8
visible
100
AcDbEllipse
 10
-15.399999999999995
 20
45.89657032886588
 30
0.0
 11
4.5
 21
0.0
 31
0.0
 40
0.49301257187112135
 41
0.8214265744190079
 42
2.6039601883791157
  0
ELLIPSE
  5
91
330
17
100
AcDbEntity
  8
visible
100
AcDbEllipse
 10
34.4
 20
12.65592268331401
 30
0.0
 11
0.878878122056931
 21
-1.337001588095423
 31
0.0
 40
0.6960177487286471
 41
-1.8278545753447264
 42
-1.3137380782450583
  0
LINE
  5
92
330
17
100
AcDbEntity
  8
visible
100
AcDbLine
 10
39.8
 20
10.767974541018585
 30
0.0
 11
39.8
 21
8.701671848936648
 31
0.0
  0
LINE
  5
93
330
17
100
AcDbEntity
  8
visible
100
AcDbLine
 10
39.8
 20
8.701671848936645
 30
0.0
 11
46.39999999999999
 21
6.261259618174595
 31
0.0
  0
ELLIPSE
  5
94
330
17
100
AcDbEntity
  8
visible
100
AcDbEllipse
 10
-50.0
 20
17.400443674715063
 30
0.0
 11
-13.2
 21
-0.0
 31
0.0
 40
0.49301257187112135
 41
-0.6435011087932843
 42
-0.12649606874474473
  0
LINE
  5
95
330
17
100
AcDbEntity
  8
visible
100
AcDbLine
 10
-60.56
 20
21.30510324393434
 30
0.0
 11
-24.560000000000002
 21
44.969706693748165
 31
0.0
  0
ELLIPSE
  5
96
330
17
100
AcDbEntity
  8
visible
100
AcDbEllipse
 10
-50.0
 20
17.400443674715063
 30
0.0
 11
-13.2
 21
-0.0
 31
0.0
 40
0.49301257187112135
 41
-5.872895129226515
 42
-5.355890089177974
  0
ELLIPSE
  5
97
330
17
100
AcDbEntity
  8
visible
100
AcDbEllipse
 10
-13.999999999999996
 20
41.06504712452889
 30
0.0
 11
-13.2
 21
-0.0
 31
0.0
 40
0.49301257187112135
 41
-1.160506148841824
 42
-0.6435011087932845
  0
LINE
  5
98
330
17
100
AcDbEntity
  8
visible
100
AcDbLine
 10
6.079999999999995
 20
-11.470372534057805
 30
0.0
 11
-57.92
 21
12.194230915756027
 31
0.0
  0
ELLIPSE
  5
99
330
17
100
AcDbEntity
  8
visible
100
AcDbEllipse
 10
13.999999999999996
 20
-6.264159775098761
 30
0.0
 11
-13.2
 21
-0.0
 31
0.0
 40
0.49301257187112135
 41
-5.355890089177974
 42
-4.838885049129436
  0
ELLIPSE
  5
9A
330
17
100
AcDbEntity
  8
visible
100
AcDbEllipse
 10
-13.999999999999996
 20
41.06504712452889
 30
0.0
 11
-13.2
 21
-0.0
 31
0.0
 40
0.49301257187112135
 41
-2.214297435588181
 42
-1.6972923955396406
  0
ELLIPSE
  5
9B
330
17
100
AcDbEntity
  8
visible
100
AcDbEllipse
 10
15.399999999999995
 20
-11.09568297943575
 30
0.0
 11
-4.5
 21
-1.4355966122814976e-16
 31
0.0
 40
0.49301257187112135
 41
-5.461758732760588
 42
-3.679225118800473
  0
LINE
  5
9C
330
17
100
AcDbEntity
  8
visible
100
AcDbLine
 10
-6.079999999999995
 20
46.27125988348793
 30
0.0
 11
57.92
 21
22.606656433674097
 31
0.0
  0
ELLIPSE
  5
9D
330
17
100
AcDbEntity
  8
visible
100
AcDbEllipse
 10
13.999999999999996
 20
-6.264159775098761
 30
0.0
 11
-13.2
 21
-0.0
 31
0.0
 40
0.49301257187112135
 41
-4.302098802431618
 42
-3.7850937623830774
  0
ELLIPSE
  5
9E
330
17
100
AcDbEntity
  8
visible
100
AcDbEllipse
 10
50.0
 20
17.400443674715063
 30
0.0
 11
-13.2
 21
-0.0
 31
0.0
 40
0.49301257187112135
 41
-2.731302475636719
 42
-2.214297435588181
  0
LINE
  5
9F
330
17
100
AcDbEntity
  8
visible
100
AcDbLine
 10
60.56
 20
13.495784105495783
 30
0.0
 11
24.560000000000002
 21
-10.168819344318045
 31
0.0
  0
ELLIPSE
  5
A0
330
17
100
AcDbEntity
  8
visible
100
AcDbEllipse
 10
59.8
 20
18.090661275334632
 30
0.0
 11
4.5
 21
-1.4355966122814976e-16
 31
0.0
 40
0.49301257187112135
 41
5.533815554803698
 42
6.283185307179586
  0
ELLIPSE
  5
A1
330
17
100
AcDbEntity
  8
visible
100
AcDbEllipse
 10
59.8
 20
18.090661275334632
 30
0.0
 11
4.5
 21
-1.4355966122814976e-16
 31
0.0
 40
0.49301257187112135
 41
0.0
 42
1.0331638615842242
  0
ELLIPSE
  5
A2
330
17
100
AcDbEntity
  8
visible
100
AcDbEllipse
 10
50.0
 20
17.400443674715063
 30
0.0
 11
-13.2
 21
-0.0
 31
0.0
 40
0.49301257187112135
 41
-3.7850937623830774
 42
-3.2680887223345367
  0
ELLIPSE
  5
A3
330
17
100
AcDbEntity
  8
visible
100
AcDbEllipse
 10
-59.8
 20
16.710226074095495
 30
0.0
 11
1.3
 21
0.0
 31
0.0
 40
0.4930125718711213
 41
5.639684198386302
 42
6.283185307179586
  0
ELLIPSE
  5
A4
330
17
100
AcDbEntity
  8
visible
100
AcDbEllipse
 10
-59.8
 20
16.710226074095495
 30
0.0
 11
1.3
 21
0.0
 31
0.0
 40
0.4930125718711213
 41
0.0
 42
3.141592653589793
  0
ELLIPSE
  5
A5
330
17
100
AcDbEntity
  8
visible
100
AcDbEllipse
 10
-59.8
 20
16.710226074095495
 30
0.0
 11
1.3
 21
0.0
 31
0.0
 40
0.4930125718711213
 41
3.141592653589793
 42
5.639684198386302
  0
ELLIPSE
  5
A6
330
17
100
AcDbEntity
  8
visible
100
AcDbEllipse
 10
15.399999999999995
 20
-11.09568297943575
 30
0.0
 11
1.3
 21
0.0
 31
0.0
 40
0.4930125718711213
 41
5.639684198386302
 42
6.283185307179586
  0
ELLIPSE
  5
A7
330
17
100
AcDbEntity
  8
visible
100
AcDbEllipse
 10
15.399999999999995
 20
-11.09568297943575
 30
0.0
 11
1.3
 21
0.0
 31
0.0
 40
0.4930125718711213
 41
0.0
 42
3.141592653589793
  0
ELLIPSE
  5
A8
330
17
100
AcDbEntity
  8
visible
100
AcDbEllipse
 10
15.399999999999995
 20
-11.09568297943575
 30
0.0
 11
1.3
 21
0.0
 31
0.0
 40
0.4930125718711213
 41
3.141592653589793
 42
5.639684198386302
  0
ELLIPSE
  5
A9
330
17
100
AcDbEntity
  8
visible
100
AcDbEllipse
 10
-15.399999999999995
 20
45.89657032886588
 30
0.0
 11
1.3
 21
0.0
 31
0.0
 40
0.4930125718711213
 41
5.639684198386302
 42
6.283185307179586
  0
ELLIPSE
  5
AA
330
17
100
AcDbEntity
  8
visible
100
AcDbEllipse
 10
-15.399999999999995
 20
45.89657032886588
 30
0.0
 11
1.3
 21
0.0
 31
0.0
 40
0.4930125718711213
 41
0.0
 42
3.141592653589793
  0
ELLIPSE
  5
AB
330
17
100
AcDbEntity
  8
visible
100
AcDbEllipse
 10
-15.399999999999995
 20
45.89657032886588
 30
0.0
 11
1.3
 21
0.0
 31
0.0
 40
0.4930125718711213
 41
3.141592653589793
 42
5.639684198386302
  0
ELLIPSE
  5
AC
330
17
100
AcDbEntity
  8
visible
100
AcDbEllipse
 10
50.0
 20
17.400443674715063
 30
0.0
 11
11.0
 21
0.0
 31
0.0
 40
0.49301257187112135
 41
0.5631410251766447
 42
0.9272952180016121
  0
ELLIPSE
  5
AD
330
17
100
AcDbEntity
  8
visible
100
AcDbEllipse
 10
59.8
 20
18.090661275334632
 30
0.0
 11
4.5
 21
0.0
 31
0.0
 40
0.49301257187112135
 41
1.6818227061530504
 42
3.141592653589793
  0
ELLIPSE
  5
AE
330
17
100
AcDbEntity
  8
visible
100
AcDbEllipse
 10
59.8
 20
18.090661275334632
 30
0.0
 11
4.5
 21
0.0
 31
0.0
 40
0.49301257187112135
 41
3.141592653589793
 42
4.885156710234841
  0
LINE
  5
AF
330
17
100
AcDbEntity
  8
visible
100
AcDbLine
 10
56.599999999999994
 20
21.738954307180936
 30
0.0
 11
-7.400000000000002
 21
45.403557756994765
 31
0.0
  0
ELLIPSE
  5
B0
330
17
100
AcDbEntity
  8
visible
100
AcDbEllipse
 10
50.0
 20
17.400443674715063
 30
0.0
 11
11.0
 21
0.0
 31
0.0
 40
0.49301257187112135
 41
5.639684198386302
 42
6.0038383912112625
  0
ELLIPSE
  5
B1
330
17
100
AcDbEntity
  8
visible
100
AcDbEllipse
 10
-13.999999999999996
 20
41.06504712452889
 30
0.0
 11
11.0
 21
0.0
 31
0.0
 40
0.49301257187112135
 41
0.9272952180016123
 42
1.291449410826571
  0
LINE
  5
B2
330
17
100
AcDbEntity
  8
visible
100
AcDbLine
 10
22.799999999999997
 20
-9.518042749448163
 30
0.0
 11
58.8
 21
14.146560700365661
 31
0.0
  0
ELLIPSE
  5
B3
330
17
100
AcDbEntity
  8
visible
100
AcDbEllipse
 10
-15.399999999999995
 20
45.89657032886588
 30
0.0
 11
4.5
 21
7.17798306140749e-17
 31
0.0
 40
0.49301257187112146
 41
3.252619032947932
 42
6.283185307179586
  0
ELLIPSE
  5
B4
330
17
100
AcDbEntity
  8
visible
100
AcDbEllipse
 10
-15.399999999999995
 20
45.89657032886588
 30
0.0
 11
4.5
 21
7.17798306140749e-17
 31
0.0
 40
0.49301257187112146
 41
0.0
 42
0.1727677298501491
  0
ELLIPSE
  5
B5
330
17
100
AcDbEntity
  8
visible
100
AcDbEllipse
 10
13.999999999999996
 20
-6.264159775098761
 30
0.0
 11
11.0
 21
0.0
 31
0.0
 40
0.49301257187112135
 41
5.275530005561341
 42
5.639684198386302
  0
ELLIPSE
  5
B6
330
17
100
AcDbEntity
  8
visible
100
AcDbEllipse
 10
-13.999999999999996
 20
41.06504712452889
 30
0.0
 11
11.0
 21
0.0
 31
0.0
 40
0.49301257187112135
 41
2.1339373519715377
 42
2.498091544796509
  0
ELLIPSE
  5
B7
330
17
100
AcDbEntity
  8
visible
100
AcDbEllipse
 10
15.399999999999995
 20
-11.09568297943575
 30
0.0
 11
4.5
 21
0.0
 31
0.0
 40
0.49301257187112135
 41
0.11102637935817639
 42
3.141592653589793
  0
ELLIPSE
  5
B8
330
17
100
AcDbEntity
  8
visible
100
AcDbEllipse
 10
15.399999999999995
 20
-11.09568297943575
 30
0.0
 11
4.5
 21
0.0
 31
0.0
 40
0.49301257187112135
 41
3.141592653589793
 42
3.314360383439965
  0
LINE
  5
B9
330
17
100
AcDbEntity
  8
visible
100
AcDbLine
 10
-58.8
 20
20.654326649064462
 30
0.0
 11
-22.799999999999997
 21
44.31893009887828
 31
0.0
  0
ELLIPSE
  5
BA
330
17
100
AcDbEntity
  8
visible
100
AcDbEllipse
 10
13.999999999999996
 20
-6.264159775098761
 30
0.0
 11
11.0
 21
0.0
 31
0.0
 40
0.49301257187112135
 41
4.068887871591405
 42
4.433042064416371
  0
ELLIPSE
  5
BB
330
17
100
AcDbEntity
  8
visible
100
AcDbEllipse
 10
-50.0
 20
17.400443674715063
 30
0.0
 11
11.0
 21
0.0
 31
0.0
 40
0.49301257187112135
 41
2.498091544796509
 42
2.86224573762148
  0
LINE
  5
BC
330
17
100
AcDbEntity
  8
visible
100
AcDbLine
 10
7.400000000000006
 20
-10.602670407564634
 30
0.0
 11
-56.599999999999994
 21
13.061933042249194
 31
0.0
  0
ELLIPSE
  5
BD
330
17
100
AcDbEntity
  8
visible
100
AcDbEllipse
 10
-59.8
 20
16.710226074095495
 30
0.0
 11
4.5
 21
-1.0766974592111234e-16
 31
0.0
 40
0.49301257187112124
 41
4.8234153597428655
 42
6.283185307179586
  0
ELLIPSE
  5
BE
330
17
100
AcDbEntity
  8
visible
100
AcDbEllipse
 10
-59.8
 20
16.710226074095495
 30
0.0
 11
4.5
 21
-1.0766974592111234e-16
 31
0.0
 40
0.49301257187112124
 41
0.0
 42
1.7435640566450852
  0
ELLIPSE
  5
BF
330
17
100
AcDbEntity
  8
visible
100
AcDbEllipse
 10
-50.0
 20
17.400443674715063
 30
0.0
 11
11.0
 21
0.0
 31
0.0
 40
0.49301257187112135
 41
3.704733678766445
 42
4.068887871591405
  0
ELLIPSE
  5
C0
330
17
100
AcDbEntity
  8
visible
100
AcDbEllipse
 10
59.8
 20
18.090661275334632
 30
0.0
 11
1.3
 21
0.0
 31
0.0
 40
0.4930125718711213
 41
5.639684198386302
 42
6.283185307179586
  0
ELLIPSE
  5
C1
330
17
100
AcDbEntity
  8
visible
100
AcDbEllipse
 10
59.8
 20
18.090661275334632
 30
0.0
 11
1.3
 21
0.0
 31
0.0
 40
0.4930125718711213
 41
0.0
 42
3.141592653589793
  0
ELLIPSE
  5
C2
330
17
100
AcDbEntity
  8
visible
100
AcDbEllipse
 10
59.8
 20
18.090661275334632
 30
0.0
 11
1.3
 21
0.0
 31
0.0
 40
0.4930125718711213
 41
3.141592653589793
 42
5.639684198386302
  0
ELLIPSE
  5
C3
330
17
100
AcDbEntity
  8
visible
100
AcDbEllipse
 10
-50.0
 20
12.354314996432372
 30
0.0
 11
14.0
 21
0.0
 31
0.0
 40
0.49301257187112135
 41
3.441104405392186
 42
4.068887871591405
  0
ELLIPSE
  5
C4
330
17
100
AcDbEntity
  8
visible
100
AcDbEllipse
 10
13.999999999999996
 20
-11.310288453381453
 30
0.0
 11
14.0
 21
0.0
 31
0.0
 40
0.49301257187112135
 41
4.068887871591405
 42
4.696671337790625
  0
LINE
  5
C5
330
17
100
AcDbEntity
  8
visible
100
AcDbLine
 10
-58.4
 20
6.832574191475809
 30
0.0
 11
5.599999999999994
 21
-16.83202925833802
 31
0.0
  0
ELLIPSE
  5
C6
330
17
100
AcDbEntity
  8
visible
100
AcDbEllipse
 10
13.999999999999996
 20
-12.354315076474425
 30
0.0
 11
14.0
 21
0.0
 31
0.0
 40
0.49301257187112135
 41
5.011900732187083
 42
5.639684198386302
  0
LINE
  5
C7
330
17
100
AcDbEntity
  8
visible
100
AcDbLine
 10
18.130752221917508
 20
-45.0498763566042
 30
0.0
 11
18.130752221917508
 21
-18.949210779279927
 31
0.0
  0
LINE
  5
C8
330
17
100
AcDbEntity
  8
visible
100
AcDbLine
 10
13.779962063796773
 20
-45.35630410596515
 30
0.0
 11
13.779962063796773
 21
-19.255638528640876
 31
0.0
  0
SPLINE
  5
C9
330
17
100
AcDbEntity
  8
visible
100
AcDbSpline
 70
0
 71
2
 72
6
 73
3
 74
0
 40
0.0
 40
0.0
 40
0.0
 40
1.0
 40
1.0
 40
1.0
 10
12.605636853467665
 20
-18.83781759456409
 30
0.0
 10
12.605573033054872
 20
-18.8818649379404
 30
0.0
 10
12.59092395932608
 20
-18.919048627517117
 30
0.0
  0
SPLINE
  5
CA
330
17
100
AcDbEntity
  8
visible
100
AcDbSpline
 70
0
 71
3
 72
14
 73
10
 74
0
 40
0.0
 40
0.0
 40
0.0
 40
0.0
 40
0.24687859746922186
 40
0.24687859746922186
 40
0.24687859746922186
 40
0.7751909675143145
 40
0.7751909675143145
 40
0.7751909675143145
 40
1.0
 40
1.0
 40
1.0
 40
1.0
 10
18.130752221917493
 20
-13.555073226632915
 30
0.0
 10
18.13024638196897
 20
-13.473012270304594
 30
0.0
 10
18.171306854545694
 20
-13.377217136362148
 30
0.0
 10
18.23330100248109
 20
-13.281968677034639
 30
0.0
 10
18.368696615295384
 20
-13.077236431080298
 30
0.0
 10
18.573792005381915
 20
-12.874847649638966
 30
0.0
 10
18.76171909474393
 20
-12.690478330451704
 30
0.0
 10
18.843286308430603
 20
-12.611514914124355
 30
0.0
 10
18.922713276849294
 20
-12.536514487060172
 30
0.0
 10
18.999999999999996
 20
-12.465477049259134
 30
0.0
  0
SPLINE
  5
CB
330
17
100
AcDbEntity
  8
visible
100
AcDbSpline
 70
0
 71
2
 72
6
 73
3
 74
0
 40
0.0
 40
0.0
 40
0.0
 40
1.0
 40
1.0
 40
1.0
 10
18.999999999999996
 20
-12.465477049259135
 30
0.0
 10
19.1428469577291
 20
-12.333644953672772
 30
0.0
 10
19.265155800630136
 20
-12.231814447476598
 30
0.0
  0
SPLINE
  5
CC
330
17
100
AcDbEntity
  8
visible
100
AcDbSpline
 70
0
 71
3
 72
14
 73
10
 74
0
 40
0.0
 40
0.0
 40
0.0
 40
0.0
 40
0.2891503397377161
 40
0.2891503397377161
 40
0.2891503397377161
 40
0.60692356240226
 40
0.60692356240226
 40
0.60692356240226
 40
1.0
 40
1.0
 40
1.0
 40
1.0
 10
13.779962063796784
 20
-13.861500975993856
 30
0.0
 10
13.781031198210883
 20
-13.737856444340107
 30
0.0
 10
13.672391748721846
 20
-13.601685633540168
 30
0.0
 10
13.534904909357733
 20
-13.478652930989636
 30
0.0
 10
13.382316204250733
 20
-13.342205079234258
 30
0.0
 10
13.19616628179703
 20
-13.214100842597018
 30
0.0
 10
13.010359021117468
 20
-13.095548733545339
 30
0.0
 10
12.779546639998953
 20
-12.949523038463285
 30
0.0
 10
12.544475077656493
 20
-12.816618084542753
 30
0.0
 10
12.334701342227003
 20
-12.719928901301312
 30
0.0
  0
LINE
  5
CD
330
17
100
AcDbEntity
  8
visible
100
AcDbLine
 10
13.779962063796773
 20
-18.211611905547905
 30
0.0
 11
13.779962063796773
 21
-13.861500975993856
 31
0.0
  0
LINE
  5
CE
330
17
100
AcDbEntity
  8
visible
100
AcDbLine
 10
12.605636853467452
 20
-18.837817594564072
 30
0.0
 11
12.605636853467452
 21
-18.178145604295533
 31
0.0
  0
ELLIPSE
  5
CF
330
17
100
AcDbEntity
  8
visible
100
AcDbEllipse
 10
15.399999999999995
 20
-43.28650385813569
 30
0.0
 11
4.5
 21
0.0
 31
0.0
 40
0.49301257187112135
 41
4.344112050813996
 42
5.364460019163712
  0
ELLIPSE
  5
D0
330
17
100
AcDbEntity
  8
visible
100
AcDbEllipse
 10
15.399999999999995
 20
-17.185838280811414
 30
0.0
 11
-4.5
 21
1.435596612281498e-16
 31
0.0
 40
0.49301257187112146
 41
-4.060317941605666
 42
-3.7544376646500615
  0
SPLINE
  5
D1
330
17
100
AcDbEntity
  8
visible
100
AcDbSpline
 70
0
 71
2
 72
6
 73
3
 74
0
 40
0.0
 40
0.0
 40
0.0
 40
1.0
 40
1.0
 40
1.0
 10
19.07022028938949
 20
-18.382514608018482
 30
0.0
 10
19.070272872995332
 20
-18.426553753016982
 30
0.0
 10
19.08106699885624
 20
-18.461945468698513
 30
0.0
  0
LINE
  5
D2
330
17
100
AcDbEntity
  8
visible
100
AcDbLine
 10
19.070220289389688
 20
-18.382514608018433
 30
0.0
 11
19.070220289389688
 21
-17.743920537630057
 31
0.0
  0
LINE
  5
D3
330
17
100
AcDbEntity
  8
visible
100
AcDbLine
 10
18.130752221917508
 20
-17.905184156186955
 30
0.0
 11
18.130752221917508
 21
-13.555073226632906
 31
0.0
  0
LINE
  5
D4
330
17
100
AcDbEntity
  8
visible
100
AcDbLine
 10
-42.599999999999994
 20
-18.32411731241694
 30
0.0
 11
-42.599999999999994
 21
-19.08538672563266
 31
0.0
  0
LINE
  5
D5
330
17
100
AcDbEntity
  8
visible
100
AcDbLine
 10
-44.4
 20
-20.268616898123348
 30
0.0
 11
-42.6
 21
-19.08538672563266
 31
0.0
  0
LINE
  5
D6
330
17
100
AcDbEntity
  8
visible
100
AcDbLine
 10
-42.6
 20
-19.08538672563266
 30
0.0
 11
-40.4
 21
-19.89885746922001
 31
0.0
  0
LINE
  5
D7
330
17
100
AcDbEntity
  8
visible
100
AcDbLine
 10
-34.599999999999994
 20
-21.28219274364367
 30
0.0
 11
-34.599999999999994
 21
-22.043462156859388
 31
0.0
  0
LINE
  5
D8
330
17
100
AcDbEntity
  8
visible
100
AcDbLine
 10
-36.4
 20
-23.226692329350076
 30
0.0
 11
-34.6
 21
-22.043462156859384
 31
0.0
  0
LINE
  5
D9
330
17
100
AcDbEntity
  8
visible
100
AcDbLine
 10
-34.6
 20
-22.04346215685939
 30
0.0
 11
-32.4
 21
-22.85693290044674
 31
0.0
  0
SPLINE
  5
DA
330
17
100
AcDbEntity
  8
visible
100
AcDbSpline
 70
0
 71
2
 72
6
 73
3
 74
0
 40
0.0
 40
0.0
 40
0.0
 40
1.0
 40
1.0
 40
1.0
 10
-31.352657483980174
 20
-10.851893856354657
 30
0.0
 10
-31.64632165928487
 20
-10.624837976730895
 30
0.0
 10
-31.97359371
 20
-10.503826050162443
 30
0.0
  0
SPLINE
  5
DB
330
17
100
AcDbEntity
  8
visible
100
AcDbSpline
 70
0
 71
2
 72
6
 73
3
 74
0
 40
0.0
 40
0.0
 40
0.0
 40
0.8960263535634373
 40
0.8960263535634373
 40
0.8960263535634373
 10
-31.97359371
 20
-10.503826050162443
 30
0.0
 10
-32.6008121574944
 20
-10.27190611521927
 30
0.0
 10
-32.96459110886562
 20
-10.511036243763412
 30
0.0
  0
SPLINE
  5
DC
330
17
100
AcDbEntity
  8
visible
100
AcDbSpline
 70
0
 71
2
 72
6
 73
3
 74
0
 40
0.0
 40
0.0
 40
0.0
 40
0.9063524269741107
 40
0.9063524269741107
 40
0.9063524269741107
 10
-33.999765585
 20
-11.565618458541582
 30
0.0
 10
-33.999765585
 20
-10.595336362009164
 30
0.0
 10
-33.56175269618408
 20
-10.159544699400001
 30
0.0
  0
SPLINE
  5
DD
330
17
100
AcDbEntity
  8
visible
100
AcDbSpline
 70
0
 71
2
 72
6
 73
3
 74
0
 40
0.0
 40
0.0
 40
0.0
 40
1.0
 40
1.0
 40
1.0
 10
-33.46656246
 20
-13.44738128793209
 30
0.0
 10
-33.999765585
 20
-12.633179861468271
 30
0.0
 10
-33.999765585
 20
-11.565618458541582
 30
0.0
  0
SPLINE
  5
DE
330
17
100
AcDbEntity
  8
visible
100
AcDbSpline
 70
0
 71
2
 72
6
 73
3
 74
0
 40
0.0
 40
0.0
 40
0.0
 40
1.0
 40
1.0
 40
1.0
 10
-32.006406209999994
 20
-14.604332372516074
 30
0.0
 10
-32.933359335
 20
-14.261582714395907
 30
0.0
 10
-33.46656246
 20
-13.44738128793209
 30
0.0
  0
SPLINE
  5
DF
330
17
100
AcDbEntity
  8
visible
100
AcDbSpline
 70
0
 71
2
 72
6
 73
3
 74
0
 40
0.0
 40
0.0
 40
0.0
 40
1.0
 40
1.0
 40
1.0
 10
-31.3214452725
 20
-14.750549626430177
 30
0.0
 10
-31.64546871
 20
-14.737792416385874
 30
0.0
 10
-32.006406209999994
 20
-14.604332372516074
 30
0.0
  0
SPLINE
  5
E0
330
17
100
AcDbEntity
  8
visible
100
AcDbSpline
 70
0
 71
2
 72
6
 73
3
 74
0
 40
0.0
 40
0.0
 40
0.0
 40
1.0
 40
1.0
 40
1.0
 10
-31.067578085
 20
-14.741591445417939
 30
0.0
 10
-31.191774721891523
 20
-14.755654919008503
 30
0.0
 10
-31.3214452725
 20
-14.750549626430177
 30
0.0
  0
LINE
  5
E1
330
17
100
AcDbEntity
  8
visible
100
AcDbLine
 10
-30.36031246
 20
-15.126753506783187
 30
0.0
 11
-28.931524470176157
 21
-11.585073762455744
 31
0.0
  0
LINE
  5
E2
330
17
100
AcDbEntity
  8
visible
100
AcDbLine
 10
-30.36031246
 20
-15.126753506783187
 30
0.0
 11
-30.72031246
 21
-15.363399541281325
 31
0.0
  0
LINE
  5
E3
330
17
100
AcDbEntity
  8
visible
100
AcDbLine
 10
-30.017159514539422
 20
-15.253637543923189
 30
0.0
 11
-30.36031246
 21
-15.126753506783187
 31
0.0
  0
LINE
  5
E4
330
17
100
AcDbEntity
  8
visible
100
AcDbLine
 10
-29.406015585
 20
-14.340683363922743
 30
0.0
 11
-29.766015584999998
 21
-14.577329398420881
 31
0.0
  0
LINE
  5
E5
330
17
100
AcDbEntity
  8
visible
100
AcDbLine
 10
-27.56578121
 20
-15.021127375471039
 30
0.0
 11
-29.406015585000002
 21
-14.340683363922743
 31
0.0
  0
LINE
  5
E6
330
17
100
AcDbEntity
  8
visible
100
AcDbLine
 10
-27.56578121
 20
-15.021127375471039
 30
0.0
 11
-27.92578121
 21
-15.257773409969177
 31
0.0
  0
LINE
  5
E7
330
17
100
AcDbEntity
  8
visible
100
AcDbLine
 10
-27.109265490772337
 20
-16.328858777462745
 30
0.0
 11
-27.193906209999998
 21
-16.297562073459158
 31
0.0
  0
LINE
  5
E8
330
17
100
AcDbEntity
  8
visible
100
AcDbLine
 10
-27.193906209999998
 20
-16.297562073459158
 30
0.0
 11
-27.553906209999997
 21
-16.534208107957298
 31
0.0
  0
LINE
  5
E9
330
17
100
AcDbEntity
  8
visible
100
AcDbLine
 10
-27.193906209999998
 20
-16.297562073459158
 30
0.0
 11
-27.565781209999997
 21
-15.02112737547104
 31
0.0
  0
LINE
  5
EA
330
17
100
AcDbEntity
  8
visible
100
AcDbLine
 10
-26.599999999999998
 20
-24.240268174870398
 30
0.0
 11
-26.599999999999998
 21
-25.001537588086116
 31
0.0
  0
LINE
  5
EB
330
17
100
AcDbEntity
  8
visible
100
AcDbLine
 10
-28.4
 20
-26.184767760576804
 30
0.0
 11
-26.6
 21
-25.001537588086116
 31
0.0
  0
LINE
  5
EC
330
17
100
AcDbEntity
  8
visible
100
AcDbLine
 10
-26.599999999999998
 20
-25.00153758808612
 30
0.0
 11
-24.4
 21
-25.81500833167347
 31
0.0
  0
LINE
  5
ED
330
17
100
AcDbEntity
  8
visible
100
AcDbLine
 10
-18.599999999999998
 20
-27.198343606097126
 30
0.0
 11
-18.599999999999998
 21
-27.959613019312844
 31
0.0
  0
LINE
  5
EE
330
17
100
AcDbEntity
  8
visible
100
AcDbLine
 10
-20.4
 20
-29.142843191803532
 30
0.0
 11
-18.6
 21
-27.95961301931284
 31
0.0
  0
LINE
  5
EF
330
17
100
AcDbEntity
  8
visible
100
AcDbLine
 10
-18.599999999999998
 20
-27.959613019312847
 30
0.0
 11
-16.399999999999995
 21
-28.7730837629002
 31
0.0
  0
LINE
  5
F0
330
17
100
AcDbEntity
  8
visible
100
AcDbLine
 10
-12.400000000000002
 20
-32.10091862303027
 30
0.0
 11
-10.600000000000001
 21
-30.917688450539572
 31
0.0
  0
LINE
  5
F1
330
17
100
AcDbEntity
  8
visible
100
AcDbLine
 10
-10.599999999999998
 20
-30.91768845053958
 30
0.0
 11
-8.399999999999995
 21
-31.73115919412693
 31
0.0
  0
LINE
  5
F2
330
17
100
AcDbEntity
  8
visible
100
AcDbLine
 10
-10.6
 20
-30.15641903732385
 30
0.0
 11
-10.6
 21
-30.91768845053957
 31
0.0
  0
LINE
  5
F3
330
17
100
AcDbEntity
  8
visible
100
AcDbLine
 10
-26.02359371
 20
-16.730296155097598
 30
0.0
 11
-26.02359371
 21
-12.66030857962894
 31
0.0
  0
LINE
  5
F4
330
17
100
AcDbEntity
  8
visible
100
AcDbLine
 10
-26.02359371
 20
-16.730296155097598
 30
0.0
 11
-26.38359371
 21
-16.966942189595738
 31
0.0
  0
LINE
  5
F5
330
17
100
AcDbEntity
  8
visible
100
AcDbLine
 10
-25.84765621
 20
-16.79535070462028
 30
0.0
 11
-26.02359371
 21
-16.730296155097598
 31
0.0
  0
LINE
  5
F6
330
17
100
AcDbEntity
  8
visible
100
AcDbLine
 10
-25.49782447920386
 20
-13.036616180460513
 30
0.0
 11
-25.84765621
 21
-13.266578102223088
 31
0.0
  0
LINE
  5
F7
330
17
100
AcDbEntity
  8
visible
100
AcDbLine
 10
-24.158749959999998
 20
-16.001380692261392
 30
0.0
 11
-24.518749959999997
 21
-16.238026726759532
 31
0.0
  0
LINE
  5
F8
330
17
100
AcDbEntity
  8
visible
100
AcDbLine
 10
-24.434921835
 20
-16.464268179699694
 30
0.0
 11
-24.506700136689346
 21
-16.230105774251562
 31
0.0
  0
LINE
  5
F9
330
17
100
AcDbEntity
  8
visible
100
AcDbLine
 10
-24.434921835
 20
-16.464268179699694
 30
0.0
 11
-24.794921835
 21
-16.700914214197834
 31
0.0
  0
LINE
  5
FA
330
17
100
AcDbEntity
  8
visible
100
AcDbLine
 10
-24.158749959999998
 20
-16.001380692261392
 30
0.0
 11
-23.239653626300885
 21
-13.689696675078643
 31
0.0
  0
LINE
  5
FB
330
17
100
AcDbEntity
  8
visible
100
AcDbLine
 10
-24.112011678787596
 20
-16.58366725464788
 30
0.0
 11
-24.434921835
 21
-16.464268179699694
 31
0.0
  0
LINE
  5
FC
330
17
100
AcDbEntity
  8
visible
100
AcDbLine
 10
-22.827109335
 20
-14.013694360795519
 30
0.0
 11
-23.187109335
 21
-14.250340395293657
 31
0.0
  0
LINE
  5
FD
330
17
100
AcDbEntity
  8
visible
100
AcDbLine
 10
-22.827109335
 20
-17.912226392096052
 30
0.0
 11
-22.827109335
 21
-14.013694360795517
 31
0.0
  0
LINE
  5
FE
330
17
100
AcDbEntity
  8
visible
100
AcDbLine
 10
-22.827109335
 20
-17.912226392096052
 30
0.0
 11
-23.187109335
 21
-18.148872426594192
 31
0.0
  0
LINE
  5
FF
330
17
100
AcDbEntity
  8
visible
100
AcDbLine
 10
-22.64843746
 20
-17.97829200255714
 30
0.0
 11
-22.827109335
 21
-17.912226392096052
 31
0.0
  0
LINE
  5
100
330
17
100
AcDbEntity
  8
visible
100
AcDbLine
 10
-20.11734371
 20
-16.544141993387836
 30
0.0
 11
-21.161672912653014
 21
-14.458049637029239
 31
0.0
  0
LINE
  5
101
330
17
100
AcDbEntity
  8
visible
100
AcDbLine
 10
-20.11734371
 20
-16.544141993387836
 30
0.0
 11
-20.47734371
 21
-16.780788027885976
 31
0.0
  0
LINE
  5
102
330
17
100
AcDbEntity
  8
visible
100
AcDbLine
 10
-21.574765585
 20
-18.37529230188672
 30
0.0
 11
-20.11734371
 21
-16.544141993387836
 31
0.0
  0
LINE
  5
103
330
17
100
AcDbEntity
  8
visible
100
AcDbLine
 10
-21.574765585
 20
-18.37529230188672
 30
0.0
 11
-21.934765585
 21
-18.61193833638486
 31
0.0
  0
LINE
  5
104
330
17
100
AcDbEntity
  8
visible
100
AcDbLine
 10
-21.112183646090234
 20
-18.546336335438994
 30
0.0
 11
-21.574765585
 21
-18.37529230188672
 31
0.0
  0
LINE
  5
105
330
17
100
AcDbEntity
  8
visible
100
AcDbLine
 10
-19.781015585
 20
-16.249209570113745
 30
0.0
 11
-20.141015584999998
 21
-16.485855604611885
 31
0.0
  0
LINE
  5
106
330
17
100
AcDbEntity
  8
visible
100
AcDbLine
 10
-19.82203121
 20
-17.13507737494233
 30
0.0
 11
-20.182031209999998
 21
-17.37172340944047
 31
0.0
  0
LINE
  5
107
330
17
100
AcDbEntity
  8
visible
100
AcDbLine
 10
-19.781015585
 20
-16.249209570113745
 30
0.0
 11
-18.989598214437297
 21
-15.261194736976877
 31
0.0
  0
LINE
  5
108
330
17
100
AcDbEntity
  8
visible
100
AcDbLine
 10
-18.67359371
 20
-19.448027957537153
 30
0.0
 11
-19.82203121
 21
-17.135077374942327
 31
0.0
  0
LINE
  5
109
330
17
100
AcDbEntity
  8
visible
100
AcDbLine
 10
-18.67359371
 20
-19.448027957537153
 30
0.0
 11
-19.033593709999998
 21
-19.684673992035293
 31
0.0
  0
LINE
  5
10A
330
17
100
AcDbEntity
  8
visible
100
AcDbLine
 10
-18.66456423184124
 20
-19.451366692224433
 30
0.0
 11
-18.67359371
 21
-19.448027957537153
 31
0.0
  0
ELLIPSE
  5
10B
330
17
100
AcDbEntity
  8
visible
100
AcDbEllipse
 10
50.0
 20
11.310288373339404
 30
0.0
 11
14.0
 21
0.0
 31
0.0
 40
0.49301257187112135
 41
5.639684198386302
 42
6.267467664585521
  0
LINE
  5
10C
330
17
100
AcDbEntity
  8
visible
100
AcDbLine
 10
63.998270725580056
 20
-14.898858672821635
 30
0.0
 11
63.998270725580056
 21
11.201806904502636
 31
0.0
  0
SPLINE
  5
10D
330
17
100
AcDbEntity
  8
visible
100
AcDbSpline
 70
0
 71
2
 72
6
 73
3
 74
0
 40
0.0
 40
0.0
 40
0.0
 40
1.0
 40
1.0
 40
1.0
 10
63.39999999999999
 20
16.720867205511247
 30
0.0
 10
63.25715092145571
 20
16.664896984275583
 30
0.0
 10
63.0945324613145
 20
16.57943050051287
 30
0.0
  0
SPLINE
  5
10E
330
17
100
AcDbEntity
  8
visible
100
AcDbSpline
 70
0
 71
3
 72
14
 73
10
 74
0
 40
0.0
 40
0.0
 40
0.0
 40
0.0
 40
0.24687859746912508
 40
0.24687859746912508
 40
0.24687859746912508
 40
0.7751909675148003
 40
0.7751909675148003
 40
0.7751909675148003
 40
1.0
 40
1.0
 40
1.0
 40
1.0
 10
63.998270725580056
 20
16.595944457149656
 30
0.0
 10
63.99749630426138
 20
16.67794852585698
 30
0.0
 10
63.98125197867738
 20
16.735835016500243
 30
0.0
 10
63.94953774882801
 20
16.769603929079434
 30
0.0
 10
63.882970473827044
 20
16.841575851374678
 30
0.0
 10
63.76463396333817
 20
16.831356641978903
 30
0.0
 10
63.61308483934536
 20
16.79257123978598
 30
0.0
 10
63.54810286815471
 20
16.77520053539069
 30
0.0
 10
63.47707458837297
 20
16.75129919063246
 30
0.0
 10
63.39999999999999
 20
16.720867205511247
 30
0.0
  0
LINE
  5
10F
330
17
100
AcDbEntity
  8
visible
100
AcDbLine
 10
63.998270725580056
 20
12.245833527595607
 30
0.0
 11
63.998270725580056
 21
16.595944457149656
 31
0.0
  0
ELLIPSE
  5
110
330
17
100
AcDbEntity
  8
visible
100
AcDbEllipse
 10
59.8
 20
12.000505973958973
 30
0.0
 11
4.5
 21
-2.871193224562996e-16
 31
0.0
 40
0.49301257187112135
 41
5.748853484278953
 42
5.914908377608892
  0
ELLIPSE
  5
111
330
17
100
AcDbEntity
  8
visible
100
AcDbEllipse
 10
59.8
 20
-14.1001596033653
 30
0.0
 11
4.5
 21
0.0
 31
0.0
 40
0.49301257187112135
 41
5.914908377608892
 42
6.283185307179586
  0
ELLIPSE
  5
112
330
17
100
AcDbEntity
  8
visible
100
AcDbEllipse
 10
32.599999999999994
 20
11.472692510823318
 30
0.0
 11
0.878878122056931
 21
-1.337001588095423
 31
0.0
 40
0.6960177487286471
 41
-6.283185307179586
 42
-5.469223485796559
  0
ELLIPSE
  5
113
330
17
100
AcDbEntity
  8
visible
100
AcDbEllipse
 10
32.599999999999994
 20
11.472692510823318
 30
0.0
 11
0.878878122056931
 21
-1.337001588095423
 31
0.0
 40
0.6960177487286471
 41
-3.141592653589793
 42
-0.0
  0
ELLIPSE
  5
114
330
17
100
AcDbEntity
  8
visible
100
AcDbEllipse
 10
32.599999999999994
 20
11.472692510823318
 30
0.0
 11
0.878878122056931
 21
-1.337001588095423
 31
0.0
 40
0.6960177487286471
 41
-5.469223485796559
 42
-3.141592653589793
  0
LINE
  5
115
330
17
100
AcDbEntity
  8
visible
100
AcDbLine
 10
38.0
 20
11.433541513044597
 30
0.0
 11
46.4
 21
8.327562310256534
 31
0.0
  0
LINE
  5
116
330
17
100
AcDbEntity
  8
visible
100
AcDbLine
 10
38.0
 20
7.518441676445955
 30
0.0
 11
39.800000000000004
 21
8.701671848936646
 31
0.0
  0
LINE
  5
117
330
17
100
AcDbEntity
  8
visible
100
AcDbLine
 10
38.0
 20
11.433541513044595
 30
0.0
 11
38.0
 21
7.5184416764459545
 31
0.0
  0
LINE
  5
118
330
17
100
AcDbEntity
  8
visible
100
AcDbLine
 10
46.39999999999999
 20
8.327562310256532
 30
0.0
 11
46.39999999999999
 21
5.995419512096455
 31
0.0
  0
LINE
  5
119
330
17
100
AcDbEntity
  8
visible
100
AcDbLine
 10
38.0
 20
7.5184416764459545
 30
0.0
 11
44.85882352337024
 21
4.982327007495771
 31
0.0
  0
LINE
  5
11A
330
17
100
AcDbEntity
  8
visible
100
AcDbLine
 10
34.199999999999996
 20
8.271010866845543
 30
0.0
 11
35.8
 21
7.679395780600197
 31
0.0
  0
LINE
  5
11B
330
17
100
AcDbEntity
  8
visible
100
AcDbLine
 10
35.8
 20
-0.9724915036820583
 30
0.0
 11
35.8
 21
7.679395780600199
 31
0.0
  0
ELLIPSE
  5
11C
330
17
100
AcDbEntity
  8
visible
100
AcDbEllipse
 10
27.599999999999998
 20
-29.853361309064834
 30
0.0
 11
-1.0404312132008393
 21
-2.8138057663238647
 31
0.0
 40
0.5220133115464854
 41
0.9561352659233643
 42
2.185457387666428
  0
LINE
  5
11D
330
17
100
AcDbEntity
  8
visible
100
AcDbLine
 10
-19.872293051128455
 20
39.01744094347353
 30
0.0
 11
-19.872293051128455
 21
45.65075776838684
 31
0.0
  0
LINE
  5
11E
330
17
100
AcDbEntity
  8
visible
100
AcDbLine
 10
-15.237258300203049
 20
38.28451843014926
 30
0.0
 11
-15.237258300203049
 21
41.06939849122162
 31
0.0
  0
ELLIPSE
  5
11F
330
17
100
AcDbEntity
  8
visible
100
AcDbEllipse
 10
-15.399999999999995
 20
43.286503771133454
 30
0.0
 11
4.5
 21
0.0
 31
0.0
 40
0.49301257187112135
 41
4.504783247828623
 42
4.74856169049966
  0
LINE
  5
120
330
17
100
AcDbEntity
  8
visible
100
AcDbLine
 10
-16.327529366524537
 20
39.37554140375161
 30
0.0
 11
-16.327529366524537
 21
41.11558577557323
 31
0.0
  0
ELLIPSE
  5
121
330
17
100
AcDbEntity
  8
visible
100
AcDbEllipse
 10
-15.399999999999995
 20
41.54645939931183
 30
0.0
 11
4.5
 21
0.0
 31
0.0
 40
0.49301257187112135
 41
3.957546857250442
 42
4.504783247828628
  0
LINE
  5
122
330
17
100
AcDbEntity
  8
visible
100
AcDbLine
 10
61.19999999999999
 20
7.168982769621977
 30
0.0
 11
25.199999999999996
 21
-16.49562068019185
 31
0.0
  0
ELLIPSE
  5
123
330
17
100
AcDbEntity
  8
visible
100
AcDbEllipse
 10
29.999999999999996
 20
-30.740783938432852
 30
0.0
 11
-1.0404312132008393
 21
-2.8138057663238647
 31
0.0
 40
0.5220133115464854
 41
0.6162969372573429
 42
3.1415926535897936
  0
ELLIPSE
  5
124
330
17
100
AcDbEntity
  8
visible
100
AcDbEllipse
 10
29.999999999999996
 20
-30.740783938432852
 30
0.0
 11
-1.0404312132008393
 21
-2.8138057663238647
 31
0.0
 40
0.5220133115464854
 41
3.1415926535897936
 42
6.283185307179587
  0
ELLIPSE
  5
125
330
17
100
AcDbEntity
  8
visible
100
AcDbEllipse
 10
29.999999999999996
 20
-30.740783938432852
 30
0.0
 11
-1.0404312132008393
 21
-2.8138057663238647
 31
0.0
 40
0.5220133115464854
 41
8.881784197001252e-16
 42
0.616296937257343
  0
ELLIPSE
  5
126
330
17
100
AcDbEntity
  8
visible
100
AcDbEllipse
 10
50.0
 20
11.310288373339404
 30
0.0
 11
-13.389897948556635
 21
-8.54332983721906e-16
 31
0.0
 40
0.49301257187112135
 41
-3.785093762383077
 42
-3.3588897590765274
  0
LINE
  5
127
330
17
100
AcDbEntity
  8
visible
100
AcDbLine
 10
60.71191835884532
 20
7.34945555851355
 30
0.0
 11
24.711918358845303
 21
-16.315147891300285
 31
0.0
  0
ELLIPSE
  5
128
330
17
100
AcDbEntity
  8
visible
100
AcDbEllipse
 10
14.0
 20
-12.354315076474428
 30
0.0
 11
-13.389897948556635
 21
-0.0
 31
0.0
 40
0.49301257187112135
 41
-4.3231654021715835
 42
-3.7850937623830774
  0
ELLIPSE
  5
129
330
17
100
AcDbEntity
  8
visible
100
AcDbEllipse
 10
50.0
 20
12.354314996432372
 30
0.0
 11
14.0
 21
0.0
 31
0.0
 40
0.49301257187112135
 41
5.639684198386302
 42
6.267467664585521
  0
ELLIPSE
  5
12A
330
17
100
AcDbEntity
  8
visible
100
AcDbEllipse
 10
13.999999999999996
 20
-11.310288453381453
 30
0.0
 11
14.0
 21
0.0
 31
0.0
 40
0.49301257187112135
 41
5.011900732187083
 42
5.639684198386302
  0
LINE
  5
12B
330
17
100
AcDbEntity
  8
visible
100
AcDbLine
 10
61.19999999999999
 20
8.213009392714948
 30
0.0
 11
25.199999999999996
 21
-15.451594057098879
 31
0.0
  0
LINE
  5
12C
330
17
100
AcDbEntity
  8
visible
100
AcDbLine
 10
-27.738046835
 20
-14.457847484285391
 30
0.0
 11
-28.48999996
 21
-11.97034020428868
 31
0.0
  0
LINE
  5
12D
330
17
100
AcDbEntity
  8
visible
100
AcDbLine
 10
-15.16
 20
8.522543944560885
 30
0.0
 11
-25.65882352019377
 21
1.6211412974785517
 31
0.0
  0
LINE
  5
12E
330
17
100
AcDbEntity
  8
visible
100
AcDbLine
 10
0.7600000000000016
 20
9.70248736657244
 30
0.0
 11
8.312941168174394
 21
6.909716153687742
 31
0.0
  0
LINE
  5
12F
330
17
100
AcDbEntity
  8
visible
100
AcDbLine
 10
23.160000000000004
 20
1.4198761591375977
 30
0.0
 11
23.555294114657443
 21
1.2737124330530118
 31
0.0
  0
LINE
  5
130
330
17
100
AcDbEntity
  8
visible
100
AcDbLine
 10
23.16
 20
-0.6295094306677653
 30
0.0
 11
35.8
 21
7.679395780600201
 31
0.0
  0
LINE
  5
131
330
17
100
AcDbEntity
  8
visible
100
AcDbLine
 10
23.16
 20
1.0138658089026409
 30
0.0
 11
34.199999999999996
 21
8.271010866845547
 31
0.0
  0
LINE
  5
132
330
17
100
AcDbEntity
  8
visible
100
AcDbLine
 10
-12.599999999999998
 20
16.169845626725255
 30
0.0
 11
-12.599999999999998
 21
38.04607013902687
 31
0.0
  0
LINE
  5
133
330
17
100
AcDbEntity
  8
visible
100
AcDbLine
 10
-14.519999999999998
 20
38.75600824252128
 30
0.0
 11
-12.6
 21
38.04607013902687
 31
0.0
  0
LINE
  5
134
330
17
100
AcDbEntity
  8
visible
100
AcDbLine
 10
-16.919999999999995
 20
12.885415198736878
 30
0.0
 11
-18.68
 21
11.72847903007931
 31
0.0
  0
LINE
  5
135
330
17
100
AcDbEntity
  8
visible
100
AcDbLine
 10
-20.6
 20
12.438417133573722
 30
0.0
 11
-18.680000000000003
 21
11.728479030079308
 31
0.0
  0
LINE
  5
136
330
17
100
AcDbEntity
  8
visible
100
AcDbLine
 10
-32.952941167750865
 20
4.318210073193043
 30
0.0
 11
-20.599999999999994
 21
12.438417133573724
 31
0.0
  0
LINE
  5
137
330
17
100
AcDbEntity
  8
visible
100
AcDbLine
 10
-27.352941167750867
 20
2.247557271334337
 30
0.0
 11
-15.159999999999997
 21
10.26258831638251
 31
0.0
  0
LINE
  5
138
330
17
100
AcDbEntity
  8
visible
100
AcDbLine
 10
-16.92
 20
11.077702435209426
 30
0.0
 11
-15.16
 21
10.426925840339546
 31
0.0
  0
LINE
  5
139
330
17
100
AcDbEntity
  8
visible
100
AcDbLine
 10
-15.98
 20
37.796277102612166
 30
0.0
 11
-15.98
 21
41.08645208632167
 31
0.0
  0
LINE
  5
13A
330
17
100
AcDbEntity
  8
visible
100
AcDbLine
 10
-18.68
 20
37.82914460740358
 30
0.0
 11
-16.327529366524537
 21
39.37554140375161
 31
0.0
  0
LINE
  5
13B
330
17
100
AcDbEntity
  8
visible
100
AcDbLine
 10
-18.68
 20
37.82914460740358
 30
0.0
 11
-18.68
 21
11.72847903007931
 31
0.0
  0
LINE
  5
13C
330
17
100
AcDbEntity
  8
visible
100
AcDbLine
 10
-20.6
 20
38.53908271089799
 30
0.0
 11
-18.48328157299975
 21
39.93050777172785
 31
0.0
  0
LINE
  5
13D
330
17
100
AcDbEntity
  8
visible
100
AcDbLine
 10
-20.6
 20
38.53908271089799
 30
0.0
 11
-18.680000000000003
 21
37.82914460740358
 31
0.0
  0
LINE
  5
13E
330
17
100
AcDbEntity
  8
visible
100
AcDbLine
 10
-20.6
 20
12.438417133573722
 30
0.0
 11
-20.6
 21
38.53908271089799
 31
0.0
  0
LINE
  5
13F
330
17
100
AcDbEntity
  8
visible
100
AcDbLine
 10
-33.41882352019377
 20
4.490474465768479
 30
0.0
 11
-22.159999999999997
 21
11.89146318568022
 31
0.0
  0
ELLIPSE
  5
140
330
17
100
AcDbEntity
  8
visible
100
AcDbEllipse
 10
-13.999999999999996
 20
8.874226245828954
 30
0.0
 11
-10.2
 21
-0.0
 31
0.0
 40
0.49301257187112135
 41
-0.8670758187116727
 42
-0.6435011087932845
  0
LINE
  5
141
330
17
100
AcDbEntity
  8
visible
100
AcDbLine
 10
-55.3
 20
15.626323433187624
 30
0.0
 11
-53.48
 21
14.953361272583544
 31
0.0
  0
LINE
  5
142
330
17
100
AcDbEntity
  8
visible
100
AcDbLine
 10
-55.3
 20
13.756984098176295
 30
0.0
 11
-53.480000000000004
 21
14.953361272583548
 31
0.0
  0
LINE
  5
143
330
17
100
AcDbEntity
  8
visible
100
AcDbLine
 10
-53.48
 20
14.953361272583548
 30
0.0
 11
-53.48
 21
13.145648509056103
 31
0.0
  0
LINE
  5
144
330
17
100
AcDbEntity
  8
visible
100
AcDbLine
 10
-52.2
 20
11.434991555074495
 30
0.0
 11
-52.2
 21
12.015006344231663
 31
0.0
  0
LINE
  5
145
330
17
100
AcDbEntity
  8
visible
100
AcDbLine
 10
-54.12
 20
12.724944447726076
 30
0.0
 11
-52.199999999999996
 21
12.015006344231661
 31
0.0
  0
LINE
  5
146
330
17
100
AcDbEntity
  8
visible
100
AcDbLine
 10
-54.11999999999999
 20
12.724944447726077
 30
0.0
 11
-54.11999999999999
 21
12.144929658568905
 31
0.0
  0
LINE
  5
147
330
17
100
AcDbEntity
  8
visible
100
AcDbLine
 10
-28.48999996
 20
-11.970340204288679
 30
0.0
 11
-28.849999959999998
 21
-12.206986238786817
 31
0.0
  0
LINE
  5
148
330
17
100
AcDbEntity
  8
visible
100
AcDbLine
 10
-28.098046834999995
 20
-14.694493518783533
 30
0.0
 11
-28.849999959999995
 21
-12.206986238786822
 31
0.0
  0
LINE
  5
149
330
17
100
AcDbEntity
  8
visible
100
AcDbLine
 10
-27.738046835
 20
-14.457847484285391
 30
0.0
 11
-28.098046834999998
 21
-14.69449351878353
 31
0.0
  0
LINE
  5
14A
330
17
100
AcDbEntity
  8
visible
100
AcDbLine
 10
-28.849999959999995
 20
-12.206986238786822
 30
0.0
 11
-29.599218709999995
 21
-14.139421063597775
 31
0.0
  0
LINE
  5
14B
330
17
100
AcDbEntity
  8
visible
100
AcDbLine
 10
-29.59921871
 20
-14.139421063597775
 30
0.0
 11
-28.098046834999998
 21
-14.694493518783533
 31
0.0
  0
LINE
  5
14C
330
17
100
AcDbEntity
  8
visible
100
AcDbLine
 10
-49.8
 20
10.547568925706475
 30
0.0
 11
-49.8
 21
13.592646574219252
 31
0.0
  0
LINE
  5
14D
330
17
100
AcDbEntity
  8
visible
100
AcDbLine
 10
-52.2
 20
12.015006344231665
 30
0.0
 11
-49.800000000000004
 21
13.592646574219254
 31
0.0
  0
LINE
  5
14E
330
17
100
AcDbEntity
  8
visible
100
AcDbLine
 10
-15.0
 20
36.46842990903929
 30
0.0
 11
-12.6
 21
38.046070139026874
 31
0.0
  0
LINE
  5
14F
330
17
100
AcDbEntity
  8
visible
100
AcDbLine
 10
-15.0
 20
14.592205396737668
 30
0.0
 11
-15.0
 21
36.46842990903929
 31
0.0
  0
LINE
  5
150
330
17
100
AcDbEntity
  8
visible
100
AcDbLine
 10
-15.16
 20
-2.26089769150526
 30
0.0
 11
-15.16
 21
14.487029381405163
 31
0.0
  0
LINE
  5
151
330
17
100
AcDbEntity
  8
visible
100
AcDbLine
 10
-15.16
 20
14.487029381405161
 30
0.0
 11
-4.840000000000002
 21
21.270882370351792
 31
0.0
  0
LINE
  5
152
330
17
100
AcDbEntity
  8
visible
100
AcDbLine
 10
0.7599999999999998
 20
-6.742430438628028
 30
0.0
 11
0.7599999999999998
 21
19.200229568493082
 31
0.0
  0
LINE
  5
153
330
17
100
AcDbEntity
  8
visible
100
AcDbLine
 10
-4.840000000000001
 20
21.270882370351792
 30
0.0
 11
0.7599999999999989
 21
19.200229568493082
 31
0.0
  0
LINE
  5
154
330
17
100
AcDbEntity
  8
visible
100
AcDbLine
 10
-0.5299999999999994
 20
18.352247944874755
 30
0.0
 11
0.7599999999999998
 21
19.200229568493082
 31
0.0
  0
LINE
  5
155
330
17
100
AcDbEntity
  8
visible
100
AcDbLine
 10
0.6109879265470202
 20
-6.737382453821813
 30
0.0
 11
-0.5299999999999985
 21
-7.487410976676272
 31
0.0
  0
LINE
  5
156
330
17
100
AcDbEntity
  8
visible
100
AcDbLine
 10
-0.5300000000000002
 20
-7.487410976676271
 30
0.0
 11
-0.5300000000000002
 21
18.352247944874755
 31
0.0
  0
ELLIPSE
  5
157
330
17
100
AcDbEntity
  8
visible
100
AcDbEllipse
 10
0.0
 20
-11.65829733470596
 30
0.0
 11
-10.0
 21
1.5951073469794422e-16
 31
0.0
 40
0.49301257187112124
 41
-2.3803799203593217
 42
-1.6319331977194376
  0
LINE
  5
158
330
17
100
AcDbEntity
  8
visible
100
AcDbLine
 10
-9.559999999999999
 20
12.416376579546451
 30
0.0
 11
-8.269999999999998
 21
13.26435820316478
 31
0.0
  0
LINE
  5
159
330
17
100
AcDbEntity
  8
visible
100
AcDbLine
 10
-8.27
 20
-4.808540156649279
 30
0.0
 11
-8.27
 21
13.264358203164782
 31
0.0
  0
LINE
  5
15A
330
17
100
AcDbEntity
  8
visible
100
AcDbLine
 10
-9.559999999999999
 20
-4.331550493363972
 30
0.0
 11
-9.559999999999999
 21
12.416376579546451
 31
0.0
  0
LINE
  5
15B
330
17
100
AcDbEntity
  8
visible
100
AcDbLine
 10
-15.16
 20
14.487029381405161
 30
0.0
 11
-9.56
 21
12.416376579546451
 31
0.0
  0
LINE
  5
15C
330
17
100
AcDbEntity
  8
visible
100
AcDbLine
 10
7.239999999999999
 20
6.204418173970325
 30
0.0
 11
8.53
 21
7.052399797588654
 31
0.0
  0
LINE
  5
15D
330
17
100
AcDbEntity
  8
visible
100
AcDbLine
 10
7.239999999999999
 20
-10.543508898940102
 30
0.0
 11
7.239999999999999
 21
6.204418173970325
 31
0.0
  0
LINE
  5
15E
330
17
100
AcDbEntity
  8
visible
100
AcDbLine
 10
9.61
 20
6.653059614373045
 30
0.0
 11
8.530000000000001
 21
7.052399797588652
 31
0.0
  0
LINE
  5
15F
330
17
100
AcDbEntity
  8
visible
100
AcDbLine
 10
9.61
 20
6.653059614373045
 30
0.0
 11
17.349999999999998
 21
11.740949356083016
 31
0.0
  0
LINE
  5
160
330
17
100
AcDbEntity
  8
visible
100
AcDbLine
 10
17.349999999999998
 20
11.740949356083014
 30
0.0
 11
16.27
 21
12.140289539298621
 31
0.0
  0
LINE
  5
161
330
17
100
AcDbEntity
  8
visible
100
AcDbLine
 10
16.269999999999996
 20
11.031011252588598
 30
0.0
 11
16.269999999999996
 21
12.140289539298625
 31
0.0
  0
LINE
  5
162
330
17
100
AcDbEntity
  8
visible
100
AcDbLine
 10
16.27
 20
12.140289539298626
 30
0.0
 11
17.56
 21
12.988271162916956
 31
0.0
  0
LINE
  5
163
330
17
100
AcDbEntity
  8
visible
100
AcDbLine
 10
23.16
 20
-9.28139671495002
 30
0.0
 11
23.16
 21
10.917618361058246
 31
0.0
  0
LINE
  5
164
330
17
100
AcDbEntity
  8
visible
100
AcDbLine
 10
17.56
 20
12.988271162916952
 30
0.0
 11
23.159999999999997
 21
10.917618361058242
 31
0.0
  0
LINE
  5
165
330
17
100
AcDbEntity
  8
visible
100
AcDbLine
 10
12.84
 20
-9.271110124083267
 30
0.0
 11
12.84
 21
4.133765372111615
 31
0.0
  0
LINE
  5
166
330
17
100
AcDbEntity
  8
visible
100
AcDbLine
 10
12.84
 20
4.133765372111615
 30
0.0
 11
23.159999999999997
 21
10.917618361058246
 31
0.0
  0
LINE
  5
167
330
17
100
AcDbEntity
  8
visible
100
AcDbLine
 10
7.239999999999999
 20
6.204418173970325
 30
0.0
 11
12.84
 21
4.133765372111615
 31
0.0
  0
LINE
  5
168
330
17
100
AcDbEntity
  8
visible
100
AcDbLine
 10
-16.919999999999995
 20
37.178368012533696
 30
0.0
 11
-14.519999999999992
 21
38.75600824252129
 31
0.0
  0
LINE
  5
169
330
17
100
AcDbEntity
  8
visible
100
AcDbLine
 10
-16.92
 20
37.178368012533696
 30
0.0
 11
-15.000000000000002
 21
36.46842990903929
 31
0.0
  0
LINE
  5
16A
330
17
100
AcDbEntity
  8
visible
100
AcDbLine
 10
-16.919999999999995
 20
37.178368012533696
 30
0.0
 11
-16.919999999999995
 21
11.077702435209428
 31
0.0
  0
LINE
  5
16B
330
17
100
AcDbEntity
  8
visible
100
AcDbLine
 10
-54.12
 20
12.724944447726077
 30
0.0
 11
-51.72
 21
14.302584677713666
 31
0.0
  0
LINE
  5
16C
330
17
100
AcDbEntity
  8
visible
100
AcDbLine
 10
-51.72
 20
14.302584677713662
 30
0.0
 11
-49.8
 21
13.592646574219248
 31
0.0
  0
LINE
  5
16D
330
17
100
AcDbEntity
  8
visible
100
AcDbLine
 10
-0.5300000000000007
 20
18.35224794487475
 30
0.0
 11
-1.6100000000000003
 21
18.75158812809036
 31
0.0
  0
LINE
  5
16E
330
17
100
AcDbEntity
  8
visible
100
AcDbLine
 10
-9.35
 20
13.663698386380391
 30
0.0
 11
-1.6100000000000012
 21
18.75158812809036
 31
0.0
  0
LINE
  5
16F
330
17
100
AcDbEntity
  8
visible
100
AcDbLine
 10
-8.27
 20
13.264358203164782
 30
0.0
 11
-9.349999999999998
 21
13.663698386380391
 31
0.0
  0
ELLIPSE
  5
170
330
17
100
AcDbEntity
  8
visible
100
AcDbEllipse
 10
-7.199999999999999
 20
16.843629474949125
 30
0.0
 11
1.05
 21
0.0
 31
0.0
 40
0.4930125718711213
 41
5.639684198386302
 42
6.283185307179586
  0
ELLIPSE
  5
171
330
17
100
AcDbEntity
  8
visible
100
AcDbEllipse
 10
-7.199999999999999
 20
16.843629474949125
 30
0.0
 11
1.05
 21
0.0
 31
0.0
 40
0.4930125718711213
 41
0.0
 42
3.141592653589793
  0
ELLIPSE
  5
172
330
17
100
AcDbEntity
  8
visible
100
AcDbEllipse
 10
-7.199999999999999
 20
16.843629474949125
 30
0.0
 11
1.05
 21
0.0
 31
0.0
 40
0.4930125718711213
 41
3.141592653589793
 42
5.639684198386302
  0
LINE
  5
173
330
17
100
AcDbEntity
  8
visible
100
AcDbLine
 10
-1.6099999999999994
 20
-7.088070793460664
 30
0.0
 11
-1.788235285796536
 21
-7.205233775658977
 31
0.0
  0
LINE
  5
174
330
17
100
AcDbEntity
  8
visible
100
AcDbLine
 10
-1.6100000000000003
 20
-7.0880707934606635
 30
0.0
 11
-0.5300000000000007
 21
-7.487410976676272
 31
0.0
  0
ELLIPSE
  5
175
330
17
100
AcDbEntity
  8
visible
100
AcDbEllipse
 10
4.38
 20
-8.77910391497861
 30
0.0
 11
0.9
 21
0.0
 31
0.0
 40
0.49301257187112135
 41
5.639684198386302
 42
6.283185307179586
  0
ELLIPSE
  5
176
330
17
100
AcDbEntity
  8
visible
100
AcDbEllipse
 10
4.38
 20
-8.77910391497861
 30
0.0
 11
0.9
 21
0.0
 31
0.0
 40
0.49301257187112135
 41
0.0
 42
3.141592653589793
  0
ELLIPSE
  5
177
330
17
100
AcDbEntity
  8
visible
100
AcDbEllipse
 10
4.38
 20
-8.77910391497861
 30
0.0
 11
0.9
 21
0.0
 31
0.0
 40
0.49301257187112135
 41
3.141592653589793
 42
5.639684198386302
  0
LINE
  5
178
330
17
100
AcDbEntity
  8
visible
100
AcDbLine
 10
-1.6100000000000003
 20
-7.088070793460664
 30
0.0
 11
-1.6100000000000003
 21
18.75158812809036
 31
0.0
  0
ELLIPSE
  5
179
330
17
100
AcDbEntity
  8
visible
100
AcDbEllipse
 10
15.2
 20
8.561018267514285
 30
0.0
 11
1.05
 21
0.0
 31
0.0
 40
0.4930125718711213
 41
5.639684198386302
 42
6.283185307179586
  0
ELLIPSE
  5
17A
330
17
100
AcDbEntity
  8
visible
100
AcDbEllipse
 10
15.2
 20
8.561018267514285
 30
0.0
 11
1.05
 21
0.0
 31
0.0
 40
0.4930125718711213
 41
0.0
 42
3.141592653589793
  0
ELLIPSE
  5
17B
330
17
100
AcDbEntity
  8
visible
100
AcDbEllipse
 10
15.2
 20
8.561018267514285
 30
0.0
 11
1.05
 21
0.0
 31
0.0
 40
0.4930125718711213
 41
3.141592653589793
 42
5.639684198386302
  0
LINE
  5
17C
330
17
100
AcDbEntity
  8
visible
100
AcDbLine
 10
-58.39999999999999
 20
-0.7366188259482307
 30
0.0
 11
-58.39999999999999
 21
5.788547568382839
 31
0.0
  0
LINE
  5
17D
330
17
100
AcDbEntity
  8
visible
100
AcDbLine
 10
-58.39999999999999
 20
-22.226166817945213
 30
0.0
 11
-58.39999999999999
 21
-11.176885056877937
 31
0.0
  0
ELLIPSE
  5
17E
330
17
100
AcDbEntity
  8
visible
100
AcDbEllipse
 10
-50.0
 20
-16.70442601298865
 30
0.0
 11
-14.0
 21
-0.0
 31
0.0
 40
0.49301257187112135
 41
-6.283185307179586
 42
-5.355890089177974
  0
LINE
  5
17F
330
17
100
AcDbEntity
  8
visible
100
AcDbLine
 10
5.599999999999998
 20
-45.89077026775904
 30
0.0
 11
5.599999999999998
 21
-17.87605588143099
 31
0.0
  0
LINE
  5
180
330
17
100
AcDbEntity
  8
visible
100
AcDbLine
 10
5.599999999999998
 20
-45.89077026775904
 30
0.0
 11
-58.400000000000006
 21
-22.226166817945206
 31
0.0
  0
ELLIPSE
  5
181
330
17
100
AcDbEntity
  8
visible
100
AcDbEllipse
 10
-57.92
 20
-21.910638771947696
 30
0.0
 11
-0.277448323520224
 21
-0.7503482043530305
 31
0.0
 40
0.5220133115464854
 41
5.328685917642033
 42
6.283185307179586
  0
ELLIPSE
  5
182
330
17
100
AcDbEntity
  8
visible
100
AcDbEllipse
 10
-57.92
 20
11.498213167027377
 30
0.0
 11
0.277448323520224
 21
0.7503482043530305
 31
0.0
 40
0.5220133115464854
 41
-5.666888369922243
 42
-4.096092043127347
  0
ELLIPSE
  5
183
330
17
100
AcDbEntity
  8
visible
100
AcDbEllipse
 10
-50.0
 20
16.70442592598642
 30
0.0
 11
-14.0
 21
-0.0
 31
0.0
 40
0.49301257187112135
 41
-5.983673555377193
 42
-5.355890089177974
  0
LINE
  5
184
330
17
100
AcDbEntity
  8
visible
100
AcDbLine
 10
-58.39999999999999
 20
6.8325741914758105
 30
0.0
 11
-58.39999999999999
 21
11.18268512102986
 31
0.0
  0
LINE
  5
185
330
17
100
AcDbEntity
  8
visible
100
AcDbLine
 10
-58.03999999999999
 20
6.112195821472062
 30
0.0
 11
-58.03999999999999
 21
6.699460797070603
 31
0.0
  0
ELLIPSE
  5
186
330
17
100
AcDbEntity
  8
visible
100
AcDbEllipse
 10
-50.0
 20
11.397290591930478
 30
0.0
 11
-13.4
 21
-0.0
 31
0.0
 40
0.49301257187112135
 41
-5.895145540311286
 42
-5.355890089177974
  0
ELLIPSE
  5
187
330
17
100
AcDbEntity
  8
visible
100
AcDbEllipse
 10
-57.739999999999995
 20
6.309400850220506
 30
0.0
 11
-0.17340520220014
 21
-0.46896762772064404
 31
0.0
 40
0.5220133115464854
 41
5.328685917642033
 42
5.530043838432365
  0
ELLIPSE
  5
188
330
17
100
AcDbEntity
  8
visible
100
AcDbEllipse
 10
-60.56
 20
20.609085495205704
 30
0.0
 11
0.43943906102846536
 21
-0.6685007940477115
 31
0.0
 40
0.6960177487286471
 41
-3.8984271590016624
 42
-3.141592653589793
  0
LINE
  5
189
330
17
100
AcDbEntity
  8
visible
100
AcDbLine
 10
25.199999999999996
 20
-44.51033506651989
 30
0.0
 11
25.199999999999996
 21
-16.495620680191845
 31
0.0
  0
ELLIPSE
  5
18A
330
17
100
AcDbEntity
  8
visible
100
AcDbEllipse
 10
13.999999999999996
 20
-40.36902946280247
 30
0.0
 11
-14.0
 21
-0.0
 31
0.0
 40
0.49301257187112135
 41
-5.355890089177974
 42
-3.7850937623830774
  0
LINE
  5
18B
330
17
100
AcDbEntity
  8
visible
100
AcDbLine
 10
5.960000000000001
 20
-17.552407628341765
 30
0.0
 11
-58.04
 21
6.112195821472067
 31
0.0
  0
ELLIPSE
  5
18C
330
17
100
AcDbEntity
  8
visible
100
AcDbEllipse
 10
6.260000000000002
 20
-17.355202599593316
 30
0.0
 11
-0.17340520220014
 21
-0.46896762772064404
 31
0.0
 40
0.5220133115464854
 41
5.328685917642033
 42
5.530043838432365
  0
ELLIPSE
  5
18D
330
17
100
AcDbEntity
  8
visible
100
AcDbEllipse
 10
14.0
 20
-12.267312857883347
 30
0.0
 11
-13.4
 21
-0.0
 31
0.0
 40
0.49301257187112135
 41
-5.355890089177974
 42
-4.816634638044647
  0
ELLIPSE
  5
18E
330
17
100
AcDbEntity
  8
visible
100
AcDbEllipse
 10
6.079999999999995
 20
-45.57524222176152
 30
0.0
 11
-0.277448323520224
 21
-0.7503482043530305
 31
0.0
 40
0.5220133115464854
 41
5.328685917642033
 42
6.283185307179586
  0
LINE
  5
18F
330
17
100
AcDbEntity
  8
visible
100
AcDbLine
 10
-31.306155338081783
 20
-10.894337068597185
 30
0.0
 11
-31.662304647499997
 21
-11.128451851272382
 31
0.0
  0
LINE
  5
190
330
17
100
AcDbEntity
  8
visible
100
AcDbLine
 10
-31.97359371
 20
-10.503826050162443
 30
0.0
 11
-32.33359371
 21
-10.740472084660581
 31
0.0
  0
LINE
  5
191
330
17
100
AcDbEntity
  8
visible
100
AcDbLine
 10
-33.674416946106696
 20
-10.211828852847326
 30
0.0
 11
-33.82656246
 21
-10.311841720984912
 31
0.0
  0
LINE
  5
192
330
17
100
AcDbEntity
  8
visible
100
AcDbLine
 10
-33.999765585
 20
-11.565618458541582
 30
0.0
 11
-34.359765585
 21
-11.80226449303972
 31
0.0
  0
LINE
  5
193
330
17
100
AcDbEntity
  8
visible
100
AcDbLine
 10
-33.46656246
 20
-13.44738128793209
 30
0.0
 11
-33.82656246
 21
-13.684027322430229
 31
0.0
  0
LINE
  5
194
330
17
100
AcDbEntity
  8
visible
100
AcDbLine
 10
-32.006406209999994
 20
-14.604332372516074
 30
0.0
 11
-32.366406209999994
 21
-14.840978407014212
 31
0.0
  0
LINE
  5
195
330
17
100
AcDbEntity
  8
visible
100
AcDbLine
 10
-31.3214452725
 20
-14.750549626430177
 30
0.0
 11
-31.6814452725
 21
-14.987195660928315
 31
0.0
  0
ELLIPSE
  5
196
330
17
100
AcDbEntity
  8
visible
100
AcDbEllipse
 10
-24.560000000000002
 20
44.27368894501953
 30
0.0
 11
0.43943906102846536
 21
-0.6685007940477115
 31
0.0
 40
0.6960177487286471
 41
-3.8984271590016624
 42
-3.141592653589793
  0
ELLIPSE
  5
197
330
17
100
AcDbEntity
  8
visible
100
AcDbEllipse
 10
-6.079999999999995
 20
45.57524213475929
 30
0.0
 11
-0.277448323520224
 21
-0.7503482043530305
 31
0.0
 40
0.5220133115464854
 41
3.141592653589793
 42
3.757889590847136
  0
LINE
  5
198
330
17
100
AcDbEntity
  8
visible
100
AcDbLine
 10
61.199999999999996
 20
-20.84573161670607
 30
0.0
 11
61.199999999999996
 21
7.16898276962198
 31
0.0
  0
ELLIPSE
  5
199
330
17
100
AcDbEntity
  8
visible
100
AcDbEllipse
 10
50.0
 20
-16.704426012988648
 30
0.0
 11
-14.0
 21
-0.0
 31
0.0
 40
0.49301257187112135
 41
-3.7850937623830774
 42
-3.141592653589793
  0
ELLIPSE
  5
19A
330
17
100
AcDbEntity
  8
visible
100
AcDbEllipse
 10
24.560000000000002
 20
-44.273689032021764
 30
0.0
 11
0.43943906102846536
 21
-0.6685007940477115
 31
0.0
 40
0.6960177487286471
 41
-6.283185307179586
 42
-5.469223485796559
  0
ELLIPSE
  5
19B
330
17
100
AcDbEntity
  8
visible
100
AcDbEllipse
 10
60.56
 20
-20.609085582207932
 30
0.0
 11
0.43943906102846536
 21
-0.6685007940477115
 31
0.0
 40
0.6960177487286471
 41
-6.283185307179586
 42
-5.469223485796559
  0
LINE
  5
19C
330
17
100
AcDbEntity
  8
visible
100
AcDbLine
 10
61.199999999999996
 20
-20.845731616706068
 30
0.0
 11
25.199999999999996
 21
-44.5103350665199
 31
0.0
  0
ELLIPSE
  5
19D
330
17
100
AcDbEntity
  8
visible
100
AcDbEllipse
 10
6.079999999999995
 20
-12.166390282786448
 30
0.0
 11
0.277448323520224
 21
0.7503482043530305
 31
0.0
 40
0.5220133115464854
 41
-5.666888369922243
 42
-4.096092043127347
  0
LINE
  5
19E
330
17
100
AcDbEntity
  8
visible
100
AcDbLine
 10
5.599999999999998
 20
-12.481918328783966
 30
0.0
 11
-58.400000000000006
 21
11.182685121029866
 31
0.0
  0
ELLIPSE
  5
19F
330
17
100
AcDbEntity
  8
visible
100
AcDbEllipse
 10
13.999999999999996
 20
-6.960177523827404
 30
0.0
 11
-14.0
 21
-0.0
 31
0.0
 40
0.49301257187112135
 41
-5.355890089177974
 42
-4.728106622978755
  0
ELLIPSE
  5
1A0
330
17
100
AcDbEntity
  8
visible
100
AcDbEllipse
 10
57.92
 20
21.910638684945468
 30
0.0
 11
-0.277448323520224
 21
-0.7503482043530305
 31
0.0
 40
0.5220133115464854
 41
3.141592653589793
 42
3.757889590847136
  0
ELLIPSE
  5
1A1
330
17
100
AcDbEntity
  8
visible
100
AcDbEllipse
 10
24.560000000000002
 20
-10.864837093046688
 30
0.0
 11
-0.43943906102846536
 21
0.6685007940477115
 31
0.0
 40
0.6960177487286471
 41
3.9555544749728204
 42
5.526350801767717
  0
ELLIPSE
  5
1A2
330
17
100
AcDbEntity
  8
visible
100
AcDbEllipse
 10
13.999999999999996
 20
-6.960177523827404
 30
0.0
 11
-14.0
 21
-0.0
 31
0.0
 40
0.49301257187112135
 41
-4.412877228582296
 42
-3.7850937623830774
  0
ELLIPSE
  5
1A3
330
17
100
AcDbEntity
  8
visible
100
AcDbEllipse
 10
60.56
 20
12.79976635676714
 30
0.0
 11
-0.43943906102846536
 21
0.6685007940477115
 31
0.0
 40
0.6960177487286471
 41
3.9555544749728204
 42
5.526350801767717
  0
LINE
  5
1A4
330
17
100
AcDbEntity
  8
visible
100
AcDbLine
 10
61.199999999999996
 20
12.563120322269
 30
0.0
 11
25.199999999999996
 21
-11.101483127544828
 31
0.0
  0
ELLIPSE
  5
1A5
330
17
100
AcDbEntity
  8
visible
100
AcDbEllipse
 10
50.0
 20
16.70442592598642
 30
0.0
 11
-14.0
 21
-0.0
 31
0.0
 40
0.49301257187112135
 41
-3.7850937623830774
 42
-3.157310296183858
  0
LINE
  5
1A6
330
17
100
AcDbEntity
  8
visible
100
AcDbLine
 10
56.599999999999994
 20
19.65048324408299
 30
0.0
 11
56.599999999999994
 21
21.738954307180936
 31
0.0
  0
LINE
  5
1A7
330
17
100
AcDbEntity
  8
visible
100
AcDbLine
 10
0.7599999999999998
 20
10.891517687172207
 30
0.0
 11
10.550588227197231
 21
7.271355375655983
 31
0.0
  0
LINE
  5
1A8
330
17
100
AcDbEntity
  8
visible
100
AcDbLine
 10
23.160000000000004
 20
2.608906479737364
 30
0.0
 11
24.71294117368027
 21
2.0346918382368635
 31
0.0
  0
LINE
  5
1A9
330
17
100
AcDbEntity
  8
visible
100
AcDbLine
 10
-7.399999999999999
 20
19.5880661250317
 30
0.0
 11
-7.399999999999999
 21
45.40355775699476
 31
0.0
  0
LINE
  5
1AA
330
17
100
AcDbEntity
  8
visible
100
AcDbLine
 10
-22.799999999999997
 20
12.824126968907002
 30
0.0
 11
-22.799999999999997
 21
44.3189300988783
 31
0.0
  0
ELLIPSE
  5
1AB
330
17
100
AcDbEntity
  8
visible
100
AcDbEllipse
 10
-13.999999999999996
 20
9.5702439945576
 30
0.0
 11
-11.0
 21
-0.0
 31
0.0
 40
0.49301257187112135
 41
-0.9272952180016119
 42
-0.6435011087932845
  0
LINE
  5
1AC
330
17
100
AcDbEntity
  8
visible
100
AcDbLine
 10
-58.8
 20
18.873309954448338
 30
0.0
 11
-58.8
 21
20.654326649064465
 31
0.0
  0
LINE
  5
1AD
330
17
100
AcDbEntity
  8
visible
100
AcDbLine
 10
-34.7364705792166
 20
4.977686889808934
 30
0.0
 11
-22.799999999999997
 21
12.824126968907004
 31
0.0
  0
LINE
  5
1AE
330
17
100
AcDbEntity
  8
visible
100
AcDbLine
 10
5.599999999999998
 20
-16.832029258338018
 30
0.0
 11
5.599999999999998
 21
-12.48191832878397
 31
0.0
  0
LINE
  5
1AF
330
17
100
AcDbEntity
  8
visible
100
AcDbLine
 10
5.959999999999997
 20
-17.55240762834176
 30
0.0
 11
5.959999999999997
 21
-16.960788969560944
 31
0.0
  0
ELLIPSE
  5
1B0
330
17
100
AcDbEntity
  8
visible
100
AcDbEllipse
 10
24.319999999999993
 20
-16.083230164165823
 30
0.0
 11
0.27464941314279084
 21
-0.41781299627981966
 31
0.0
 40
0.6960177487286472
 41
-5.670581406586892
 42
-5.469223485796559
  0
ELLIPSE
  5
1B1
330
17
100
AcDbEntity
  8
visible
100
AcDbEllipse
 10
14.0
 20
-12.267312857883347
 30
0.0
 11
-13.4
 21
-0.0
 31
0.0
 40
0.49301257187112135
 41
-4.324349213516406
 42
-3.7850937623830774
  0
LINE
  5
1B2
330
17
100
AcDbEntity
  8
visible
100
AcDbLine
 10
24.71999999999999
 20
-16.23113393572716
 30
0.0
 11
24.71999999999999
 21
-15.749636027944264
 31
0.0
  0
LINE
  5
1B3
330
17
100
AcDbEntity
  8
visible
100
AcDbLine
 10
25.199999999999996
 20
-15.451594057098873
 30
0.0
 11
25.199999999999996
 21
-11.101483127544824
 31
0.0
  0
LINE
  5
1B4
330
17
100
AcDbEntity
  8
visible
100
AcDbLine
 10
61.199999999999996
 20
8.213009392714952
 30
0.0
 11
61.199999999999996
 21
12.563120322269
 31
0.0
  0
LINE
  5
1B5
330
17
100
AcDbEntity
  8
visible
100
AcDbLine
 10
60.71999999999999
 20
7.433469514086669
 30
0.0
 11
60.71999999999999
 21
7.897481346717431
 31
0.0
  0
ELLIPSE
  5
1B6
330
17
100
AcDbEntity
  8
visible
100
AcDbEllipse
 10
50.0
 20
11.397290591930485
 30
0.0
 11
-13.4
 21
-8.54977537980981e-16
 31
0.0
 40
0.49301257187112135
 41
-3.785093762383077
 42
-3.3876468414838286
  0
ELLIPSE
  5
1B7
330
17
100
AcDbEntity
  8
visible
100
AcDbEllipse
 10
60.32000000000001
 20
7.581373285648006
 30
0.0
 11
0.2746494131427911
 21
-0.4178129962798195
 31
0.0
 40
0.6960177487286475
 41
-5.6705814065868925
 42
-5.46922348579656
  0
ELLIPSE
  5
1B8
330
17
100
AcDbEntity
  8
visible
100
AcDbEllipse
 10
-22.159999999999997
 20
12.587480934408866
 30
0.0
 11
-0.43943906102846536
 21
0.6685007940477115
 31
0.0
 40
0.6960177487286471
 41
0.8139618213830272
 42
2.384758148177924
  0
LINE
  5
1B9
330
17
100
AcDbEntity
  8
visible
100
AcDbLine
 10
60.72
 20
7.433469514086667
 30
0.0
 11
24.71999999999999
 21
-16.231133935727165
 31
0.0
  0
LINE
  5
1BA
330
17
100
AcDbEntity
  8
visible
100
AcDbLine
 10
-64.0
 20
-16.70442601298865
 30
0.0
 11
-64.0
 21
-16.27708099005901
 31
0.0
  0
LINE
  5
1BB
330
17
100
AcDbEntity
  8
visible
100
AcDbLine
 10
-64.3
 20
-15.480594804604443
 30
0.0
 11
-64.3
 21
16.710226074095495
 31
0.0
  0
SPLINE
  5
1BC
330
17
100
AcDbEntity
  8
visible
100
AcDbSpline
 70
0
 71
3
 72
14
 73
10
 74
0
 40
0.0
 40
0.0
 40
0.0
 40
0.0
 40
0.5993034143665519
 40
0.5993034143665519
 40
0.5993034143665519
 40
0.7102304952687271
 40
0.7102304952687271
 40
0.7102304952687271
 40
1.0
 40
1.0
 40
1.0
 40
1.0
 10
-58.19744832352021
 20
-22.660986976300723
 30
0.0
 10
-60.30013586069292
 20
-21.88339290327903
 30
0.0
 10
-61.97263189800749
 20
-20.803685709361893
 30
0.0
 10
-62.97496989434018
 20
-19.501624385283197
 30
0.0
 10
-63.1608927144816
 20
-19.260369001578542
 30
0.0
 10
-63.322922484957665
 20
-19.011862882013876
 30
0.0
 10
-63.46105920576818
 20
-18.75610602658916
 30
0.0
 10
-63.81272508997611
 20
-18.10564559017154
 30
0.0
 10
-64.00071945498563
 20
-17.406890068405076
 30
0.0
 10
-64.0
 20
-16.70442601298866
 30
0.0
  0
SPLINE
  5
1BD
330
17
100
AcDbEntity
  8
visible
100
AcDbSpline
 70
0
 71
3
 72
11
 73
7
 74
0
 40
0.0
 40
0.0
 40
0.0
 40
0.0
 40
0.3726618465981923
 40
0.3726618465981923
 40
0.3726618465981923
 40
1.0
 40
1.0
 40
1.0
 40
1.0
 10
-63.89173095480598
 20
17.633587132926984
 30
0.0
 10
-63.80023166892005
 20
18.021484407609353
 30
0.0
 10
-63.65529436037596
 20
18.398211403335424
 30
0.0
 10
-63.45691902917351
 20
18.763768120105183
 30
0.0
 10
-62.945725729022485
 20
19.707366653199124
 30
0.0
 10
-62.10040823121855
 20
20.553833230907237
 30
0.0
 10
-60.99943906102846
 20
21.277586289253406
 30
0.0
  0
LINE
  5
1BE
330
17
100
AcDbEntity
  8
visible
100
AcDbLine
 10
5.802551676479769
 20
-46.32559042611455
 30
0.0
 11
-58.197448323520234
 21
-22.66098697630072
 31
0.0
  0
SPLINE
  5
1BF
330
17
100
AcDbEntity
  8
visible
100
AcDbSpline
 70
0
 71
1
 72
4
 73
2
 74
0
 40
0.0
 40
0.0
 40
1.0
 40
1.0
 10
-32.96459110886562
 20
-10.51103624376341
 30
0.0
 10
-33.32459110886562
 20
-10.74768227826155
 30
0.0
  0
SPLINE
  5
1C0
330
17
100
AcDbEntity
  8
visible
100
AcDbSpline
 70
0
 71
3
 72
8
 73
4
 74
0
 40
0.0
 40
0.0
 40
0.0
 40
0.0
 40
0.9678161345496783
 40
0.9678161345496783
 40
0.9678161345496783
 40
0.9678161345496783
 10
-24.99943906102846
 20
44.942189739067246
 30
0.0
 10
-23.449349254142952
 20
45.9627842134455
 30
0.0
 10
-21.374053127250804
 20
46.741727515072654
 30
0.0
 10
-19.04290218595292
 20
47.199025537033144
 30
0.0
  0
SPLINE
  5
1C1
330
17
100
AcDbEntity
  8
visible
100
AcDbSpline
 70
0
 71
3
 72
8
 73
4
 74
0
 40
0.0
 40
0.0
 40
0.0
 40
0.0
 40
1.0
 40
1.0
 40
1.0
 40
1.0
 10
-12.623080559028935
 20
47.64233045073397
 30
0.0
 10
-10.172429863774743
 20
47.520662741729986
 30
0.0
 10
-7.7938763844876
 20
47.063608153971316
 30
0.0
 10
-5.802551676479772
 20
46.32559033911232
 30
0.0
  0
LINE
  5
1C2
330
17
100
AcDbEntity
  8
visible
100
AcDbLine
 10
64.0
 20
-16.70442601298865
 30
0.0
 11
64.0
 21
-14.896645788819868
 31
0.0
  0
LINE
  5
1C3
330
17
100
AcDbEntity
  8
visible
100
AcDbLine
 10
64.3
 20
-14.100159603365299
 30
0.0
 11
64.3
 21
18.09066127533464
 31
0.0
  0
SPLINE
  5
1C4
330
17
100
AcDbEntity
  8
visible
100
AcDbSpline
 70
0
 71
3
 72
14
 73
10
 74
0
 40
0.0
 40
0.0
 40
0.0
 40
0.0
 40
0.3315638869938267
 40
0.3315638869938267
 40
0.3315638869938267
 40
0.590990818992633
 40
0.590990818992633
 40
0.590990818992633
 40
1.0
 40
1.0
 40
1.0
 40
1.0
 10
24.99943906102846
 20
-44.942189826069466
 30
0.0
 10
23.530414637204327
 20
-45.90912867136833
 30
0.0
 10
21.591150271205436
 20
-46.65934436140452
 30
0.0
 10
19.407773974988707
 20
-47.12427371026865
 30
0.0
 10
17.701267497423803
 20
-47.48875118008823
 30
0.0
 10
15.849902539401093
 20
-47.67744125518983
 30
0.0
 10
13.997415263807625
 20
-47.67679629207153
 30
0.0
 10
11.074893285953785
 20
-47.67917317122798
 30
0.0
 10
8.164079985823339
 20
-47.20221780935803
 30
0.0
 10
5.802551676479775
 20
-46.325590426114545
 30
0.0
  0
SPLINE
  5
1C5
330
17
100
AcDbEntity
  8
visible
100
AcDbSpline
 70
0
 71
3
 72
11
 73
7
 74
0
 40
0.0
 40
0.0
 40
0.0
 40
0.0
 40
0.5
 40
0.5
 40
0.5
 40
1.0
 40
1.0
 40
1.0
 40
1.0
 10
64.0
 20
-16.704426012988645
 30
0.0
 10
64.00070863969954
 20
-17.403462731707005
 30
0.0
 10
63.81456156331039
 20
-18.098871209281256
 30
0.0
 10
63.46617049090522
 20
-18.746602769250018
 30
0.0
 10
62.955993849950644
 20
-19.697067900841084
 30
0.0
 10
62.107072627489096
 20
-20.549458932868113
 30
0.0
 10
60.999439061028454
 20
-21.27758637625564
 30
0.0
  0
LINE
  5
1C6
330
17
100
AcDbEntity
  8
visible
100
AcDbLine
 10
60.99943906102846
 20
-21.27758637625564
 30
0.0
 11
24.99943906102846
 21
-44.942189826069466
 31
0.0
  0
LINE
  5
1C7
330
17
100
AcDbEntity
  8
visible
100
AcDbLine
 10
-60.99943906102846
 20
21.277586289253406
 30
0.0
 11
-24.99943906102846
 21
44.94218973906723
 31
0.0
  0
LINE
  5
1C8
330
17
100
AcDbEntity
  8
visible
100
AcDbLine
 10
-5.802551676479769
 20
46.325590339112324
 30
0.0
 11
58.197448323520234
 21
22.660986889298492
 31
0.0
  0
SPLINE
  5
1C9
330
17
100
AcDbEntity
  8
visible
100
AcDbSpline
 70
0
 71
3
 72
8
 73
4
 74
0
 40
0.0
 40
0.0
 40
0.0
 40
0.0
 40
0.8633979910190364
 40
0.8633979910190364
 40
0.8633979910190364
 40
0.8633979910190364
 10
58.19744832352023
 20
22.660986889298492
 30
0.0
 10
60.159697551858116
 20
21.935391538365806
 30
0.0
 10
61.747695535974245
 20
20.94624944013936
 30
0.0
 10
62.76531500907702
 20
19.75941283997094
 30
0.0
  0
LINE
  5
1CA
330
17
100
AcDbEntity
  8
visible
100
AcDbLine
 10
55.3
 20
11.845835364967098
 30
0.0
 11
55.3
 21
18.090661275334636
 31
0.0
  0
LINE
  5
1CB
330
17
100
AcDbEntity
  8
visible
100
AcDbLine
 10
-10.899999999999999
 20
17.28734078963313
 30
0.0
 11
-10.899999999999999
 21
45.896570328865884
 31
0.0
  0
LINE
  5
1CC
330
17
100
AcDbEntity
  8
visible
100
AcDbLine
 10
10.899999999999999
 20
-11.467486490095567
 30
0.0
 11
10.899999999999999
 21
-11.09568297943575
 31
0.0
  0
LINE
  5
1CD
330
17
100
AcDbEntity
  8
visible
100
AcDbLine
 10
-55.3
 20
12.581245784674856
 30
0.0
 11
-55.3
 21
16.710226074095498
 31
0.0
  0
ENDSEC
  0
SECTION
  2
OBJECTS
  0
DICTIONARY
  5
A
330
0
100
AcDbDictionary
281
1
  3
ACAD_COLOR
350
B
  3
ACAD_GROUP
350
C
  3
ACAD_LAYOUT
350
D
  3
ACAD_MATERIAL
350
E
  3
ACAD_MLEADERSTYLE
350
F
  3
ACAD_MLINESTYLE
350
10
  3
ACAD_PLOTSETTINGS
350
11
  3
ACAD_PLOTSTYLENAME
350
12
  3
ACAD_SCALELIST
350
14
  3
ACAD_TABLESTYLE
350
15
  3
ACAD_VISUALSTYLE
350
16
  3
EZDXF_META
350
2D
  0
DICTIONARY
  5
B
330
A
100
AcDbDictionary
281
1
  0
DICTIONARY
  5
C
330
A
100
AcDbDictionary
281
1
  0
DICTIONARY
  5
D
330
A
100
AcDbDictionary
281
1
  3
Model
350
1A
  3
Layout1
350
1E
  0
DICTIONARY
  5
E
330
A
100
AcDbDictionary
281
1
  3
ByBlock
350
1F
  3
ByLayer
350
20
  3
Global
350
21
  0
DICTIONARY
  5
F
330
A
100
AcDbDictionary
281
1
  3
Standard
350
2C
  0
DICTIONARY
  5
10
330
A
100
AcDbDictionary
281
1
  3
Standard
350
22
  0
DICTIONARY
  5
11
330
A
100
AcDbDictionary
281
1
  0
ACDBDICTIONARYWDFLT
  5
12
330
A
100
AcDbDictionary
281
1
  3
Normal
350
13
100
AcDbDictionaryWithDefault
340
13
  0
ACDBPLACEHOLDER
  5
13
330
12
  0
DICTIONARY
  5
14
330
A
100
AcDbDictionary
281
1
  0
DICTIONARY
  5
15
330
A
100
AcDbDictionary
281
1
  0
DICTIONARY
  5
16
330
A
100
AcDbDictionary
281
1
  0
LAYOUT
  5
1A
330
D
100
AcDbPlotSettings
  1

  4
A3
  6

 40
7.5
 41
20.0
 42
7.5
 43
20.0
 44
420.0
 45
297.0
 46
0.0
 47
0.0
 48
0.0
 49
0.0
140
0.0
141
0.0
142
1.0
143
1.0
 70
1024
 72
1
 73
0
 74
5
  7

 75
16
 76
0
 77
2
 78
300
147
1.0
148
0.0
149
0.0
100
AcDbLayout
  1
Model
 70
1
 71
0
 10
0.0
 20
0.0
 11
420.0
 21
297.0
 12
0.0
 22
0.0
 32
0.0
 14
1e+20
 24
1e+20
 34
1e+20
 15
-1e+20
 25
-1e+20
 35
-1e+20
146
0.0
 13
0.0
 23
0.0
 33
0.0
 16
1.0
 26
0.0
 36
0.0
 17
0.0
 27
1.0
 37
0.0
 76
1
330
17
  0
LAYOUT
  5
1E
330
D
100
AcDbPlotSettings
  1

  4
A3
  6

 40
7.5
 41
20.0
 42
7.5
 43
20.0
 44
420.0
 45
297.0
 46
0.0
 47
0.0
 48
0.0
 49
0.0
140
0.0
141
0.0
142
1.0
143
1.0
 70
0
 72
1
 73
0
 74
5
  7

 75
16
 76
0
 77
2
 78
300
147
1.0
148
0.0
149
0.0
100
AcDbLayout
  1
Layout1
 70
1
 71
1
 10
0.0
 20
0.0
 11
420.0
 21
297.0
 12
0.0
 22
0.0
 32
0.0
 14
1e+20
 24
1e+20
 34
1e+20
 15
-1e+20
 25
-1e+20
 35
-1e+20
146
0.0
 13
0.0
 23
0.0
 33
0.0
 16
1.0
 26
0.0
 36
0.0
 17
0.0
 27
1.0
 37
0.0
 76
1
330
1B
  0
MATERIAL
  5
1F
102
{ACAD_REACTORS
330
E
102
}
330
E
100
AcDbMaterial
  1
ByBlock
  2

 70
0
 40
1.0
 71
1
 41
1.0
 91
-1023410177
 42
1.0
 72
1
  3

 73
1
 74
1
 75
1
 44
0.5
 73
0
 45
1.0
 46
1.0
 77
1
  4

 78
1
 79
1
170
1
 48
1.0
171
1
  6

172
1
173
1
174
1
140
1.0
141
1.0
175
1
  7

176
1
177
1
178
1
143
1.0
179
1
  8

270
1
271
1
272
1
145
1.0
146
1.0
273
1
  9

274
1
275
1
276
1
 42
1.0
 72
1
  3

 73
1
 74
1
 75
1
 94
63
  0
MATERIAL
  5
20
102
{ACAD_REACTORS
330
E
102
}
330
E
100
AcDbMaterial
  1
ByLayer
  2

 70
0
 40
1.0
 71
1
 41
1.0
 91
-1023410177
 42
1.0
 72
1
  3

 73
1
 74
1
 75
1
 44
0.5
 73
0
 45
1.0
 46
1.0
 77
1
  4

 78
1
 79
1
170
1
 48
1.0
171
1
  6

172
1
173
1
174
1
140
1.0
141
1.0
175
1
  7

176
1
177
1
178
1
143
1.0
179
1
  8

270
1
271
1
272
1
145
1.0
146
1.0
273
1
  9

274
1
275
1
276
1
 42
1.0
 72
1
  3

 73
1
 74
1
 75
1
 94
63
  0
MATERIAL
  5
21
102
{ACAD_REACTORS
330
E
102
}
330
E
100
AcDbMaterial
  1
Global
  2

 70
0
 40
1.0
 71
1
 41
1.0
 91
-1023410177
 42
1.0
 72
1
  3

 73
1
 74
1
 75
1
 44
0.5
 73
0
 45
1.0
 46
1.0
 77
1
  4

 78
1
 79
1
170
1
 48
1.0
171
1
  6

172
1
173
1
174
1
140
1.0
141
1.0
175
1
  7

176
1
177
1
178
1
143
1.0
179
1
  8

270
1
271
1
272
1
145
1.0
146
1.0
273
1
  9

274
1
275
1
276
1
 42
1.0
 72
1
  3

 73
1
 74
1
 75
1
 94
63
  0
MLINESTYLE
  5
22
102
{ACAD_REACTORS
330
10
102
}
330
10
100
AcDbMlineStyle
  2
Standard
 70
0
  3

 62
256
 51
90.0
 52
90.0
 71
2
 49
0.5
 62
256
  6
BYLAYER
 49
-0.5
 62
256
  6
BYLAYER
  0
MLEADERSTYLE
  5
2C
102
{ACAD_REACTORS
330
F
102
}
330
F
100
AcDbMLeaderStyle
179
2
170
2
171
1
172
0
 90
2
 40
0.0
 41
0.0
173
1
 91
-1056964608
 92
-2
290
1
 42
2.0
291
1
 43
8.0
  3
Standard
 44
4.0
300

342
29
174
1
175
1
176
0
178
1
 93
-1056964608
 45
4.0
292
0
297
0
 46
4.0
 94
-1056964608
 47
1.0
 49
1.0
140
1.0
294
1
141
0.0
177
0
142
1.0
295
0
296
0
143
3.75
271
0
272
9
273
9
  0
DICTIONARY
  5
2D
330
A
100
AcDbDictionary
280
1
281
1
  3
CREATED_BY_EZDXF
350
2E
  3
WRITTEN_BY_EZDXF
350
1D1
  0
DICTIONARYVAR
  5
2E
330
2D
100
DictionaryVariables
280
0
  1
1.4.4 @ 2026-10-01T19:08:18.397890+00:00
  0
DICTIONARYVAR
  5
1D1
330
2D
100
DictionaryVariables
280
0
  1
1.4.4 @ 2026-10-01T19:08:18.478565+00:00
  0
ENDSEC
  0
EOF
