  0
SECTION
  2
HEADER
  9
$ACADVER
  1
AC1027
  9
$ACADMAINTVER
 70
105
  9
$DWGCODEPAGE
  3
ANSI_1252
  9
$LASTSAVEDBY
  1
ezdxf
  9
$REQUIREDVERSIONS
160
0
  9
$INSBASE
 10
0.0
 20
0.0
 30
0.0
  9
$EXTMIN
 10
1e+20
 20
1e+20
 30
1e+20
  9
$EXTMAX
 10
-1e+20
 20
-1e+20
 30
-1e+20
  9
$LIMMIN
 10
0.0
 20
0.0
  9
$LIMMAX
 10
420.0
 20
297.0
  9
$ORTHOMODE
 70
0
  9
$REGENMODE
 70
1
  9
$FILLMODE
 70
1
  9
$QTEXTMODE
 70
0
  9
$MIRRTEXT
 70
1
  9
$LTSCALE
 40
1.0
  9
$ATTMODE
 70
1
  9
$TEXTSIZE
 40
2.5
  9
$TRACEWID
 40
1.0
  9
$TEXTSTYLE
  7
Standard
  9
$CLAYER
  8
0
  9
$CELTYPE
  6
ByLayer
  9
$CECOLOR
 62
256
  9
$CELTSCALE
 40
1.0
  9
$DISPSILH
 70
0
  9
$DIMSCALE
 40
1.0
  9
$DIMASZ
 40
2.5
  9
$DIMEXO
 40
0.625
  9
$DIMDLI
 40
3.75
  9
$DIMRND
 40
0.0
  9
$DIMDLE
 40
0.0
  9
$DIMEXE
 40
1.25
  9
$DIMTP
 40
0.0
  9
$DIMTM
 40
0.0
  9
$DIMTXT
 40
2.5
  9
$DIMCEN
 40
2.5
  9
$DIMTSZ
 40
0.0
  9
$DIMTOL
 70
0
  9
$DIMLIM
 70
0
  9
$DIMTIH
 70
0
  9
$DIMTOH
 70
0
  9
$DIMSE1
 70
0
  9
$DIMSE2
 70
0
  9
$DIMTAD
 70
1
  9
$DIMZIN
 70
8
  9
$DIMBLK
  1

  9
$DIMASO
 70
1
  9
$DIMSHO
 70
1
  9
$DIMPOST
  1

  9
$DIMAPOST
  1

  9
$DIMALT
 70
0
  9
$DIMALTD
 70
3
  9
$DIMALTF
 40
0.03937007874
  9
$DIMLFAC
 40
1.0
  9
$DIMTOFL
 70
1
  9
$DIMTVP
 40
0.0
  9
$DIMTIX
 70
0
  9
$DIMSOXD
 70
0
  9
$DIMSAH
 70
0
  9
$DIMBLK1
  1

  9
$DIMBLK2
  1

  9
$DIMSTYLE
  2
ISO-25
  9
$DIMCLRD
 70
0
  9
$DIMCLRE
 70
0
  9
$DIMCLRT
 70
0
  9
$DIMTFAC
 40
1.0
  9
$DIMGAP
 40
0.625
  9
$DIMJUST
 70
0
  9
$DIMSD1
 70
0
  9
$DIMSD2
 70
0
  9
$DIMTOLJ
 70
0
  9
$DIMTZIN
 70
8
  9
$DIMALTZ
 70
0
  9
$DIMALTTZ
 70
0
  9
$DIMUPT
 70
0
  9
$DIMDEC
 70
2
  9
$DIMTDEC
 70
2
  9
$DIMALTU
 70
2
  9
$DIMALTTD
 70
3
  9
$DIMTXSTY
  7
Standard
  9
$DIMAUNIT
 70
0
  9
$DIMADEC
 70
0
  9
$DIMALTRND
 40
0.0
  9
$DIMAZIN
 70
0
  9
$DIMDSEP
 70
44
  9
$DIMATFIT
 70
3
  9
$DIMFRAC
 70
0
  9
$DIMLDRBLK
  1

  9
$DIMLUNIT
 70
2
  9
$DIMLWD
 70
-2
  9
$DIMLWE
 70
-2
  9
$DIMTMOVE
 70
0
  9
$DIMFXL
 40
1.0
  9
$DIMFXLON
 70
0
  9
$DIMJOGANG
 40
0.785398163397
  9
$DIMTFILL
 70
0
  9
$DIMTFILLCLR
 70
0
  9
$DIMARCSYM
 70
0
  9
$DIMLTYPE
  6

  9
$DIMLTEX1
  6

  9
$DIMLTEX2
  6

  9
$DIMTXTDIRECTION
 70
0
  9
$LUNITS
 70
2
  9
$LUPREC
 70
4
  9
$SKETCHINC
 40
1.0
  9
$FILLETRAD
 40
10.0
  9
$AUNITS
 70
0
  9
$AUPREC
 70
2
  9
$MENU
  1
.
  9
$ELEVATION
 40
0.0
  9
$PELEVATION
 40
0.0
  9
$THICKNESS
 40
0.0
  9
$LIMCHECK
 70
0
  9
$CHAMFERA
 40
0.0
  9
$CHAMFERB
 40
0.0
  9
$CHAMFERC
 40
0.0
  9
$CHAMFERD
 40
0.0
  9
$SKPOLY
 70
0
  9
$TDCREATE
 40
2461315.8955092593
  9
$TDUCREATE
 40
2458532.153996898
  9
$TDUPDATE
 40
2461315.8955092593
  9
$TDUUPDATE
 40
2458532.1544311
  9
$TDINDWG
 40
0.0
  9
$TDUSRTIMER
 40
0.0
  9
$USRTIMER
 70
1
  9
$ANGBASE
 50
0.0
  9
$ANGDIR
 70
0
  9
$PDMODE
 70
0
  9
$PDSIZE
 40
0.0
  9
$PLINEWID
 40
0.0
  9
$SPLFRAME
 70
0
  9
$SPLINETYPE
 70
6
  9
$SPLINESEGS
 70
8
  9
$HANDSEED
  5
AE
  9
$SURFTAB1
 70
6
  9
$SURFTAB2
 70
6
  9
$SURFTYPE
 70
6
  9
$SURFU
 70
6
  9
$SURFV
 70
6
  9
$UCSBASE
  2

  9
$UCSNAME
  2

  9
$UCSORG
 10
0.0
 20
0.0
 30
0.0
  9
$UCSXDIR
 10
1.0
 20
0.0
 30
0.0
  9
$UCSYDIR
 10
0.0
 20
1.0
 30
0.0
  9
$UCSORTHOREF
  2

  9
$UCSORTHOVIEW
 70
0
  9
$UCSORGTOP
 10
0.0
 20
0.0
 30
0.0
  9
$UCSORGBOTTOM
 10
0.0
 20
0.0
 30
0.0
  9
$UCSORGLEFT
 10
0.0
 20
0.0
 30
0.0
  9
$UCSORGRIGHT
 10
0.0
 20
0.0
 30
0.0
  9
$UCSORGFRONT
 10
0.0
 20
0.0
 30
0.0
  9
$UCSORGBACK
 10
0.0
 20
0.0
 30
0.0
  9
$PUCSBASE
  2

  9
$PUCSNAME
  2

  9
$PUCSORG
 10
0.0
 20
0.0
 30
0.0
  9
$PUCSXDIR
 10
1.0
 20
0.0
 30
0.0
  9
$PUCSYDIR
 10
0.0
 20
1.0
 30
0.0
  9
$PUCSORTHOREF
  2

  9
$PUCSORTHOVIEW
 70
0
  9
$PUCSORGTOP
 10
0.0
 20
0.0
 30
0.0
  9
$PUCSORGBOTTOM
 10
0.0
 20
0.0
 30
0.0
  9
$PUCSORGLEFT
 10
0.0
 20
0.0
 30
0.0
  9
$PUCSORGRIGHT
 10
0.0
 20
0.0
 30
0.0
  9
$PUCSORGFRONT
 10
0.0
 20
0.0
 30
0.0
  9
$PUCSORGBACK
 10
0.0
 20
0.0
 30
0.0
  9
$USERI1
 70
0
  9
$USERI2
 70
0
  9
$USERI3
 70
0
  9
$USERI4
 70
0
  9
$USERI5
 70
0
  9
$USERR1
 40
0.0
  9
$USERR2
 40
0.0
  9
$USERR3
 40
0.0
  9
$USERR4
 40
0.0
  9
$USERR5
 40
0.0
  9
$WORLDVIEW
 70
1
  9
$SHADEDGE
 70
3
  9
$SHADEDIF
 70
70
  9
$TILEMODE
 70
1
  9
$MAXACTVP
 70
64
  9
$PINSBASE
 10
0.0
 20
0.0
 30
0.0
  9
$PLIMCHECK
 70
0
  9
$PEXTMIN
 10
1e+20
 20
1e+20
 30
1e+20
  9
$PEXTMAX
 10
-1e+20
 20
-1e+20
 30
-1e+20
  9
$PLIMMIN
 10
0.0
 20
0.0
  9
$PLIMMAX
 10
420.0
 20
297.0
  9
$UNITMODE
 70
0
  9
$VISRETAIN
 70
1
  9
$PLINEGEN
 70
0
  9
$PSLTSCALE
 70
1
  9
$TREEDEPTH
 70
3020
  9
$CMLSTYLE
  2
Standard
  9
$CMLJUST
 70
0
  9
$CMLSCALE
 40
20.0
  9
$PROXYGRAPHICS
 70
1
  9
$MEASUREMENT
 70
1
  9
$CELWEIGHT
370
-1
  9
$ENDCAPS
280
0
  9
$JOINSTYLE
280
0
  9
$LWDISPLAY
290
0
  9
$INSUNITS
 70
4
  9
$HYPERLINKBASE
  1

  9
$STYLESHEET
  1

  9
$XEDIT
290
1
  9
$CEPSNTYPE
380
0
  9
$PSTYLEMODE
290
1
  9
$FINGERPRINTGUID
  2
{25C908CE-69E9-45E6-8986-FE0EBABDA3E4}
  9
$VERSIONGUID
  2
{B5087574-3C67-4858-87FC-64119A3C74C8}
  9
$EXTNAMES
290
1
  9
$PSVPSCALE
 40
0.0
  9
$OLESTARTUP
290
0
  9
$SORTENTS
280
127
  9
$INDEXCTL
280
0
  9
$HIDETEXT
280
1
  9
$XCLIPFRAME
280
1
  9
$HALOGAP
280
0
  9
$OBSCOLOR
 70
257
  9
$OBSLTYPE
280
0
  9
$INTERSECTIONDISPLAY
280
0
  9
$INTERSECTIONCOLOR
 70
257
  9
$DIMASSOC
280
2
  9
$PROJECTNAME
  1

  9
$CAMERADISPLAY
290
0
  9
$LENSLENGTH
 40
50.0
  9
$CAMERAHEIGHT
 40
0.0
  9
$STEPSPERSEC
 40
24.0
  9
$STEPSIZE
 40
100.0
  9
$3DDWFPREC
 40
2.0
  9
$PSOLWIDTH
 40
0.005
  9
$PSOLHEIGHT
 40
0.08
  9
$LOFTANG1
 40
1.570796326795
  9
$LOFTANG2
 40
1.570796326795
  9
$LOFTMAG1
 40
0.0
  9
$LOFTMAG2
 40
0.0
  9
$LOFTPARAM
 70
7
  9
$LOFTNORMALS
280
1
  9
$LATITUDE
 40
37.795
  9
$LONGITUDE
 40
-122.394
  9
$NORTHDIRECTION
 40
0.0
  9
$TIMEZONE
 70
-8000
  9
$LIGHTGLYPHDISPLAY
280
1
  9
$TILEMODELIGHTSYNCH
280
1
  9
$CMATERIAL
347
20
  9
$SOLIDHIST
280
0
  9
$SHOWHIST
280
1
  9
$DWFFRAME
280
2
  9
$DGNFRAME
280
2
  9
$REALWORLDSCALE
290
1
  9
$INTERFERECOLOR
 62
256
  9
$CSHADOW
280
0
  9
$SHADOWPLANELOCATION
 40
0.0
  0
ENDSEC
  0
SECTION
  2
CLASSES
  0
CLASS
  1
ACDBDICTIONARYWDFLT
  2
AcDbDictionaryWithDefault
  3
ObjectDBX Classes
 90
0
 91
0
280
0
281
0
  0
CLASS
  1
SUN
  2
AcDbSun
  3
SCENEOE
 90
1153
 91
0
280
0
281
0
  0
CLASS
  1
VISUALSTYLE
  2
AcDbVisualStyle
  3
ObjectDBX Classes
 90
4095
 91
0
280
0
281
0
  0
CLASS
  1
MATERIAL
  2
AcDbMaterial
  3
ObjectDBX Classes
 90
1153
 91
0
280
0
281
0
  0
CLASS
  1
SCALE
  2
AcDbScale
  3
ObjectDBX Classes
 90
1153
 91
0
280
0
281
0
  0
CLASS
  1
TABLESTYLE
  2
AcDbTableStyle
  3
ObjectDBX Classes
 90
4095
 91
0
280
0
281
0
  0
CLASS
  1
MLEADERSTYLE
  2
AcDbMLeaderStyle
  3
ACDB_MLEADERSTYLE_CLASS
 90
4095
 91
0
280
0
281
0
  0
CLASS
  1
DICTIONARYVAR
  2
AcDbDictionaryVar
  3
ObjectDBX Classes
 90
0
 91
0
280
0
281
0
  0
CLASS
  1
CELLSTYLEMAP
  2
AcDbCellStyleMap
  3
ObjectDBX Classes
 90
1152
 91
0
280
0
281
0
  0
CLASS
  1
MENTALRAYRENDERSETTINGS
  2
AcDbMentalRayRenderSettings
  3
SCENEOE
 90
1024
 91
0
280
0
281
0
  0
CLASS
  1
ACDBDETAILVIEWSTYLE
  2
AcDbDetailViewStyle
  3
ObjectDBX Classes
 90
1025
 91
0
280
0
281
0
  0
CLASS
  1
ACDBSECTIONVIEWSTYLE
  2
AcDbSectionViewStyle
  3
ObjectDBX Classes
 90
1025
 91
0
280
0
281
0
  0
CLASS
  1
RASTERVARIABLES
  2
AcDbRasterVariables
  3
ISM
 90
0
 91
0
280
0
281
0
  0
CLASS
  1
LAYOUT
  2
AcDbLayout
  3
ObjectDBX Classes
 90
0
 91
0
280
0
281
0
  0
CLASS
  1
ACDBPLACEHOLDER
  2
AcDbPlaceHolder
  3
ObjectDBX Classes
 90
0
 91
0
280
0
281
0
  0
ENDSEC
  0
SECTION
  2
TABLES
  0
TABLE
  2
VPORT
  5
8
330
0
100
AcDbSymbolTable
 70
1
  0
VPORT
  5
AA
330
8
100
AcDbSymbolTableRecord
100
AcDbViewportTableRecord
  2
*Active
 70
0
 10
0.0
 20
0.0
 11
1.0
 21
1.0
 12
-1.8081037742948354
 22
-7.785512765272461
 13
0.0
 23
0.0
 14
0.5
 24
0.5
 15
0.5
 25
0.5
 16
0.0
 26
0.0
 36
1.0
 17
0.0
 27
0.0
 37
0.0
 40
54.475449774733285
 41
1.34
 42
50.0
 43
0.0
 44
0.0
 50
0.0
 51
0.0
 71
0
 72
1000
 73
1
 74
3
 75
0
 76
0
 77
0
 78
0
281
0
 65
1
110
0.0
120
0.0
130
0.0
111
1.0
121
0.0
131
0.0
112
0.0
122
1.0
132
0.0
 79
0
146
0.0
  0
ENDTAB
  0
TABLE
  2
LTYPE
  5
2
330
0
100
AcDbSymbolTable
 70
3
  0
LTYPE
  5
24
330
2
100
AcDbSymbolTableRecord
100
AcDbLinetypeTableRecord
  2
ByBlock
 70
0
  3

 72
65
 73
0
 40
0.0
  0
LTYPE
  5
25
330
2
100
AcDbSymbolTableRecord
100
AcDbLinetypeTableRecord
  2
ByLayer
 70
0
  3

 72
65
 73
0
 40
0.0
  0
LTYPE
  5
26
330
2
100
AcDbSymbolTableRecord
100
AcDbLinetypeTableRecord
  2
Continuous
 70
0
  3

 72
65
 73
0
 40
0.0
  0
ENDTAB
  0
TABLE
  2
LAYER
  5
1
330
0
100
AcDbSymbolTable
 70
3
  0
LAYER
  5
27
330
1
100
AcDbSymbolTableRecord
100
AcDbLayerTableRecord
  2
0
 70
0
 62
7
  6
Continuous
370
-3
390
13
347
21
  0
LAYER
  5
28
330
1
100
AcDbSymbolTableRecord
100
AcDbLayerTableRecord
  2
Defpoints
 70
0
 62
7
  6
Continuous
290
0
370
-3
390
13
347
21
  0
LAYER
  5
2F
330
1
100
AcDbSymbolTableRecord
100
AcDbLayerTableRecord
  2
visible
 70
0
 62
7
  6
Continuous
370
-3
390
13
347
21
  0
ENDTAB
  0
TABLE
  2
STYLE
  5
5
330
0
100
AcDbSymbolTable
 70
1
  0
STYLE
  5
29
330
5
100
AcDbSymbolTableRecord
100
AcDbTextStyleTableRecord
  2
Standard
 70
0
 40
0.0
 41
1.0
 50
0.0
 71
0
 42
2.5
  3
txt
  4

  0
ENDTAB
  0
TABLE
  2
VIEW
  5
7
330
0
100
AcDbSymbolTable
 70
0
  0
ENDTAB
  0
TABLE
  2
UCS
  5
6
330
0
100
AcDbSymbolTable
 70
0
  0
ENDTAB
  0
TABLE
  2
APPID
  5
3
330
0
100
AcDbSymbolTable
 70
3
  0
APPID
  5
2A
330
3
100
AcDbSymbolTableRecord
100
AcDbRegAppTableRecord
  2
ACAD
 70
0
  0
APPID
  5
AB
330
3
100
AcDbSymbolTableRecord
100
AcDbRegAppTableRecord
  2
HATCHBACKGROUNDCOLOR
 70
0
  0
APPID
  5
AC
330
3
100
AcDbSymbolTableRecord
100
AcDbRegAppTableRecord
  2
EZDXF
 70
0
  0
ENDTAB
  0
TABLE
  2
DIMSTYLE
  5
4
330
0
100
AcDbSymbolTable
 70
1
100
AcDbDimStyleTable
  0
DIMSTYLE
105
2B
330
4
100
AcDbSymbolTableRecord
100
AcDbDimStyleTableRecord
  2
Standard
 70
0
 40
1.0
 41
2.5
 42
0.625
 43
3.75
 44
1.25
 45
0.0
 46
0.0
 47
0.0
 48
0.0
 49
2.5
140
2.5
141
2.5
142
0.0
143
0.03937007874
144
1.0
145
0.0
146
1.0
147
0.625
148
0.0
 69
0
 70
0
 71
0
 72
0
 73
0
 74
0
 75
0
 76
0
 77
1
 78
8
 79
3
170
0
171
3
172
1
173
0
174
0
175
0
176
0
177
0
178
0
179
2
271
2
272
2
273
2
274
3
275
0
276
0
277
2
278
44
279
0
280
0
281
0
282
0
283
0
284
8
285
0
286
0
288
0
289
3
290
0
371
-2
372
-2
  0
ENDTAB
  0
TABLE
  2
BLOCK_RECORD
  5
9
330
0
100
AcDbSymbolTable
 70
2
  0
BLOCK_RECORD
  5
17
330
9
100
AcDbSymbolTableRecord
100
AcDbBlockTableRecord
  2
*Model_Space
340
1A
 70
0
280
1
281
0
  0
BLOCK_RECORD
  5
1B
330
9
100
AcDbSymbolTableRecord
100
AcDbBlockTableRecord
  2
*Paper_Space
340
1E
 70
0
280
1
281
0
  0
ENDTAB
  0
ENDSEC
  0
SECTION
  2
BLOCKS
  0
BLOCK
  5
18
330
17
100
AcDbEntity
  8
0
100
AcDbBlockBegin
  2
*Model_Space
 70
0
 10
0.0
 20
0.0
 30
0.0
  3
*Model_Space
  1

  0
ENDBLK
  5
19
330
17
100
AcDbEntity
  8
0
100
AcDbBlockEnd
  0
BLOCK
  5
1C
330
1B
100
AcDbEntity
  8
0
100
AcDbBlockBegin
  2
*Paper_Space
 70
0
 10
0.0
 20
0.0
 30
0.0
  3
*Paper_Space
  1

  0
ENDBLK
  5
1D
330
1B
100
AcDbEntity
  8
0
100
AcDbBlockEnd
  0
ENDSEC
  0
SECTION
  2
ENTITIES
  0
LINE
  5
30
330
17
100
AcDbEntity
  8
visible
100
AcDbLine
 10
-42.89349516228216
 20
-18.742307757478976
 30
0.0
 11
-35.66714340289427
 21
-15.848494549244105
 31
0.0
  0
LINE
  5
31
330
17
100
AcDbEntity
  8
visible
100
AcDbLine
 10
32.05093585430461
 20
-14.536564751442606
 30
0.0
 11
38.65198505841552
 21
-15.986541713122225
 31
0.0
  0
ELLIPSE
  5
32
330
17
100
AcDbEntity
  8
visible
100
AcDbEllipse
 10
36.86648258129935
 20
-16.70155128138775
 30
0.0
 11
3.0
 21
0.0
 31
0.0
 40
0.2965853972669738
 41
5.645711247456299
 42
6.283185307179586
  0
ELLIPSE
  5
33
330
17
100
AcDbEntity
  8
visible
100
AcDbEllipse
 10
36.86648258129935
 20
-16.70155128138775
 30
0.0
 11
3.0
 21
0.0
 31
0.0
 40
0.2965853972669738
 41
0.0
 42
0.9333222670716101
  0
LINE
  5
34
330
17
100
AcDbEntity
  8
visible
100
AcDbLine
 10
29.257332553912264
 20
-21.24362487427971
 30
0.0
 11
39.27728761369249
 21
-17.23110524288441
 31
0.0
  0
LINE
  5
35
330
17
100
AcDbEntity
  8
visible
100
AcDbLine
 10
30.78484918204184
 20
-16.645345877509335
 30
0.0
 11
31.65813920923336
 21
-16.295634391070337
 31
0.0
  0
ELLIPSE
  5
36
330
17
100
AcDbEntity
  8
visible
100
AcDbEllipse
 10
30.050935854304605
 20
-15.94259841673923
 30
0.0
 11
2.0
 21
0.0
 31
0.0
 40
0.2965853972669738
 41
5.645711247456299
 42
6.283185307179586
  0
ELLIPSE
  5
37
330
17
100
AcDbEntity
  8
visible
100
AcDbEllipse
 10
-33.667143402894276
 20
-20.030814583624164
 30
0.0
 11
2.0
 21
0.0
 31
0.0
 40
0.2965853972669738
 41
3.1415926535897927
 42
4.074914920661403
  0
LINE
  5
38
330
17
100
AcDbEntity
  8
visible
100
AcDbLine
 10
-34.85747838763838
 20
-20.50748762913452
 30
0.0
 11
-0.30260625667016683
 21
-28.097761077253356
 31
0.0
  0
ELLIPSE
  5
39
330
17
100
AcDbEntity
  8
visible
100
AcDbEllipse
 10
0.8877287280739399
 20
-27.621088031743
 30
0.0
 11
-2.0
 21
-0.0
 31
0.0
 40
0.2965853972669738
 41
-5.3498630401079765
 42
-3.7790667133130795
  0
LINE
  5
3A
330
17
100
AcDbEntity
  8
visible
100
AcDbLine
 10
2.494932083002693
 20
-27.974124006074103
 30
0.0
 11
12.910363199513645
 21
-23.80323485785847
 31
0.0
  0
LINE
  5
3B
330
17
100
AcDbEntity
  8
visible
100
AcDbLine
 10
19.339176619228663
 20
-25.215378755182904
 30
0.0
 11
12.910363199513647
 21
-23.80323485785847
 31
0.0
  0
LINE
  5
3C
330
17
100
AcDbEntity
  8
visible
100
AcDbLine
 10
7.733410517973601
 20
-29.862940948908893
 30
0.0
 11
19.33917661922866
 21
-25.215378755182904
 31
0.0
  0
ELLIPSE
  5
3D
330
17
100
AcDbEntity
  8
visible
100
AcDbEllipse
 10
5.322605485580469
 20
-29.333386987412233
 30
0.0
 11
-3.0
 21
-0.0
 31
0.0
 40
0.2965853972669738
 41
-5.3498630401079765
 42
-3.7790667133130795
  0
LINE
  5
3E
330
17
100
AcDbEntity
  8
visible
100
AcDbLine
 10
-42.26819260700519
 20
-19.986871287241176
 30
0.0
 11
3.537103008464314
 21
-30.048396555677773
 31
0.0
  0
ELLIPSE
  5
3F
330
17
100
AcDbEntity
  8
visible
100
AcDbEllipse
 10
-40.48269012988902
 20
-19.271861718975643
 30
0.0
 11
3.0
 21
0.0
 31
0.0
 40
0.2965853972669738
 41
2.5041185938665067
 42
3.1415926535897927
  0
ELLIPSE
  5
40
330
17
100
AcDbEntity
  8
visible
100
AcDbEllipse
 10
-40.48269012988902
 20
-19.271861718975643
 30
0.0
 11
3.0
 21
0.0
 31
0.0
 40
0.2965853972669738
 41
3.1415926535897927
 42
4.074914920661403
  0
ELLIPSE
  5
41
330
17
100
AcDbEntity
  8
visible
100
AcDbEllipse
 10
-40.48269012988902
 20
-24.046893399833877
 30
0.0
 11
3.0
 21
0.0
 31
0.0
 40
0.2965853972669738
 41
3.1415926535897927
 42
4.074914920661403
  0
LINE
  5
42
330
17
100
AcDbEntity
  8
visible
100
AcDbLine
 10
-42.26819260700519
 20
-24.76190296809941
 30
0.0
 11
3.537103008464314
 21
-34.823428236536
 31
0.0
  0
ELLIPSE
  5
43
330
17
100
AcDbEntity
  8
visible
100
AcDbEllipse
 10
5.322605485580469
 20
-34.10841866827047
 30
0.0
 11
-3.0
 21
-0.0
 31
0.0
 40
0.2965853972669738
 41
-5.3498630401079765
 42
-3.7790667133130795
  0
ELLIPSE
  5
44
330
17
100
AcDbEntity
  8
visible
100
AcDbEllipse
 10
36.86648258129935
 20
-21.476582962245985
 30
0.0
 11
3.0
 21
0.0
 31
0.0
 40
0.2965853972669738
 41
5.645711247456299
 42
6.283185307179586
  0
LINE
  5
45
330
17
100
AcDbEntity
  8
visible
100
AcDbLine
 10
7.733410517973601
 20
-34.63797262976713
 30
0.0
 11
39.27728761369249
 21
-22.006136923742645
 31
0.0
  0
LINE
  5
46
330
17
100
AcDbEntity
  8
visible
100
AcDbLine
 10
19.33917661922866
 20
-26.53408160563119
 30
0.0
 11
19.33917661922866
 21
-25.215378755182915
 31
0.0
  0
LINE
  5
47
330
17
100
AcDbEntity
  8
visible
100
AcDbLine
 10
19.33917661922866
 20
-26.534081605631187
 30
0.0
 11
27.67152151243742
 21
-23.197370287058682
 31
0.0
  0
LINE
  5
48
330
17
100
AcDbEntity
  8
visible
100
AcDbLine
 10
29.801783483761177
 20
11.078624052671211
 30
0.0
 11
31.28772906102712
 21
10.75222338715223
 31
0.0
  0
LINE
  5
49
330
17
100
AcDbEntity
  8
visible
100
AcDbLine
 10
31.287729061027115
 20
5.022185370122344
 30
0.0
 11
31.287729061027115
 21
10.752223387152222
 31
0.0
  0
LINE
  5
4A
330
17
100
AcDbEntity
  8
visible
100
AcDbLine
 10
30.88592822229493
 20
4.861283076279178
 30
0.0
 11
30.88592822229493
 21
-15.42219186398528
 31
0.0
  0
ELLIPSE
  5
4B
330
17
100
AcDbEntity
  8
visible
100
AcDbEllipse
 10
20.43910641525803
 20
-12.64995486274725
 30
0.0
 11
4.83278982150676
 21
-12.068311503318958
 31
0.0
 40
0.7674446937366436
 41
-5.999438474881117
 42
-5.232189692556295
  0
LINE
  5
4C
330
17
100
AcDbEntity
  8
visible
100
AcDbLine
 10
2.494932083002693
 20
-23.19909232521587
 30
0.0
 11
18.53557494176429
 21
-16.775571063196015
 31
0.0
  0
LINE
  5
4D
330
17
100
AcDbEntity
  8
visible
100
AcDbLine
 10
30.885928222294936
 20
-11.829836806191924
 30
0.0
 11
31.65813920923336
 21
-11.520602710212103
 31
0.0
  0
LINE
  5
4E
330
17
100
AcDbEntity
  8
visible
100
AcDbLine
 10
12.910363199513645
 20
-23.743311966488687
 30
0.0
 11
16.87907005942398
 21
-22.154031965566936
 31
0.0
  0
LINE
  5
4F
330
17
100
AcDbEntity
  8
visible
100
AcDbLine
 10
12.910363199513643
 20
-23.80323485785847
 30
0.0
 11
12.910363199513643
 21
-23.743311966488676
 31
0.0
  0
ELLIPSE
  5
50
330
17
100
AcDbEntity
  8
visible
100
AcDbEllipse
 10
30.050935854304605
 20
-11.167566735880996
 30
0.0
 11
2.0
 21
0.0
 31
0.0
 40
0.2965853972669738
 41
5.645711247456299
 42
6.283185307179586
  0
ELLIPSE
  5
51
330
17
100
AcDbEntity
  8
visible
100
AcDbEllipse
 10
30.050935854304605
 20
-11.167566735880996
 30
0.0
 11
2.0
 21
0.0
 31
0.0
 40
0.2965853972669738
 41
0.0
 42
0.9333222670716101
  0
LINE
  5
52
330
17
100
AcDbEntity
  8
visible
100
AcDbLine
 10
-3.3136012919195013
 20
-3.1006202422518094
 30
0.0
 11
18.53557494176429
 21
-7.899978827670264
 31
0.0
  0
LINE
  5
53
330
17
100
AcDbEntity
  8
visible
100
AcDbLine
 10
30.885928222294936
 20
-10.612839642920877
 30
0.0
 11
31.241270839048717
 21
-10.690893690370647
 31
0.0
  0
ELLIPSE
  5
54
330
17
100
AcDbEntity
  8
visible
100
AcDbEllipse
 10
-4.503936276663611
 20
-3.57729328776216
 30
0.0
 11
-2.0
 21
-0.0
 31
0.0
 40
0.2965853972669738
 41
-2.208270386518183
 42
-0.6374740597232864
  0
LINE
  5
55
330
17
100
AcDbEntity
  8
visible
100
AcDbLine
 10
-35.274346757823025
 20
-14.902746928434818
 30
0.0
 11
-6.111139631592362
 21
-3.2242573134310533
 31
0.0
  0
ELLIPSE
  5
56
330
17
100
AcDbEntity
  8
visible
100
AcDbEllipse
 10
-33.667143402894276
 20
-15.25578290276593
 30
0.0
 11
2.0
 21
0.0
 31
0.0
 40
0.2965853972669738
 41
2.5041185938665067
 42
3.1415926535897927
  0
ELLIPSE
  5
57
330
17
100
AcDbEntity
  8
visible
100
AcDbEllipse
 10
-33.667143402894276
 20
-15.25578290276593
 30
0.0
 11
2.0
 21
0.0
 31
0.0
 40
0.2965853972669738
 41
3.1415926535897927
 42
4.074914920661403
  0
LINE
  5
58
330
17
100
AcDbEntity
  8
visible
100
AcDbLine
 10
-34.85747838763838
 20
-15.732455948276284
 30
0.0
 11
-0.30260625667016683
 21
-23.322729396395122
 31
0.0
  0
ELLIPSE
  5
59
330
17
100
AcDbEntity
  8
visible
100
AcDbEllipse
 10
0.8877287280739399
 20
-22.846056350884766
 30
0.0
 11
-2.0
 21
-0.0
 31
0.0
 40
0.2965853972669738
 41
-5.3498630401079765
 42
-3.7790667133130795
  0
ELLIPSE
  5
5A
330
17
100
AcDbEntity
  8
visible
100
AcDbEllipse
 10
12.106761522049268
 20
-15.986666181319748
 30
0.0
 11
2.974024505542622
 21
-7.426653232811666
 31
0.0
 40
0.7674446937366436
 41
-6.283185307179586
 42
-5.193324325948891
  0
ELLIPSE
  5
5B
330
17
100
AcDbEntity
  8
visible
100
AcDbEllipse
 10
12.106761522049268
 20
-15.986666181319748
 30
0.0
 11
2.974024505542622
 21
-7.426653232811666
 31
0.0
 40
0.7674446937366436
 41
-0.35560751439613547
 42
-0.0
  0
LINE
  5
5C
330
17
100
AcDbEntity
  8
visible
100
AcDbLine
 10
18.535574941764285
 20
8.386360997990266
 30
0.0
 11
18.535574941764285
 21
-17.398810078644185
 31
0.0
  0
LINE
  5
5D
330
17
100
AcDbEntity
  8
visible
100
AcDbLine
 10
18.535574941764285
 20
8.386360997990266
 30
0.0
 11
22.95538416781836
 21
7.415512068579718
 31
0.0
  0
LINE
  5
5E
330
17
100
AcDbEntity
  8
visible
100
AcDbLine
 10
22.955384167818355
 20
1.685474051549832
 30
0.0
 11
22.955384167818355
 21
7.4155120685797105
 31
0.0
  0
LINE
  5
5F
330
17
100
AcDbEntity
  8
visible
100
AcDbLine
 10
22.55358332908617
 20
1.7737330451326108
 30
0.0
 11
22.95538416781836
 21
1.6854740515498334
 31
0.0
  0
LINE
  5
60
330
17
100
AcDbEntity
  8
visible
100
AcDbLine
 10
22.55358332908617
 20
-18.758903182557788
 30
0.0
 11
22.55358332908617
 21
1.7737330451326088
 31
0.0
  0
LINE
  5
61
330
17
100
AcDbEntity
  8
visible
100
AcDbLine
 10
22.545853530168337
 20
-18.757205266059565
 30
0.0
 11
22.55358332908617
 21
-18.75890318255779
 31
0.0
  0
ELLIPSE
  5
62
330
17
100
AcDbEntity
  8
visible
100
AcDbEllipse
 10
12.106761522049268
 20
-15.986666181319748
 30
0.0
 11
4.83278982150676
 21
-12.068311503318958
 31
0.0
 40
0.7674446937366436
 41
-5.999438474881117
 42
-5.231795353356245
  0
LINE
  5
63
330
17
100
AcDbEntity
  8
visible
100
AcDbLine
 10
18.535574941764285
 20
8.386360997990266
 30
0.0
 11
20.105975451534626
 21
9.015232368870935
 31
0.0
  0
LINE
  5
64
330
17
100
AcDbEntity
  8
visible
100
AcDbLine
 10
30.214137621827973
 20
10.322300627999748
 30
0.0
 11
31.287729061027118
 21
10.75222338715222
 31
0.0
  0
LINE
  5
65
330
17
100
AcDbEntity
  8
visible
100
AcDbLine
 10
20.01096721969557
 20
8.728024763559944
 30
0.0
 11
24.028975607017454
 21
7.8454348277321735
 31
0.0
  0
LINE
  5
66
330
17
100
AcDbEntity
  8
visible
100
AcDbLine
 10
22.955384167818355
 20
7.415512068579716
 30
0.0
 11
24.028975607017497
 21
7.845434827732188
 31
0.0
  0
ELLIPSE
  5
67
330
17
100
AcDbEntity
  8
visible
100
AcDbEllipse
 10
27.121556614422737
 20
6.21884871935103
 30
0.0
 11
-1.2872620650501112
 21
-5.860286373197383
 31
0.0
 40
0.5683887262987017
 41
2.4631733994317764
 42
3.141592653589793
  0
ELLIPSE
  5
68
330
17
100
AcDbEntity
  8
visible
100
AcDbEllipse
 10
27.121556614422737
 20
6.21884871935103
 30
0.0
 11
-1.2872620650501112
 21
-5.860286373197383
 31
0.0
 40
0.5683887262987017
 41
3.141592653589793
 42
4.557568501824944
  0
LINE
  5
69
330
17
100
AcDbEntity
  8
visible
100
AcDbLine
 10
30.214137621827987
 20
4.592262610969868
 30
0.0
 11
31.287729061027118
 21
5.022185370122337
 31
0.0
  0
ELLIPSE
  5
6A
330
17
100
AcDbEntity
  8
visible
100
AcDbEllipse
 10
27.121556614422737
 20
6.21884871935103
 30
0.0
 11
-1.287262065050112
 21
-5.860286373197382
 31
0.0
 40
0.5683887262987017
 41
5.6047660530215655
 42
6.283185307179587
  0
ELLIPSE
  5
6B
330
17
100
AcDbEntity
  8
visible
100
AcDbEllipse
 10
27.121556614422737
 20
6.21884871935103
 30
0.0
 11
-1.287262065050112
 21
-5.860286373197382
 31
0.0
 40
0.5683887262987017
 41
1.2212453270876722e-15
 42
1.4159758482351539
  0
LINE
  5
6C
330
17
100
AcDbEntity
  8
visible
100
AcDbLine
 10
22.955384167818355
 20
1.685474051549832
 30
0.0
 11
24.028975607017486
 21
2.1153968107023
 31
0.0
  0
ELLIPSE
  5
6D
330
17
100
AcDbEntity
  8
visible
100
AcDbEllipse
 10
27.121556614422737
 20
6.21884871935103
 30
0.0
 11
-0.5363591937708796
 21
-2.4417859888322426
 31
0.0
 40
0.5683887262987017
 41
0.36877829703856646
 42
3.141592653589793
  0
ELLIPSE
  5
6E
330
17
100
AcDbEntity
  8
visible
100
AcDbEllipse
 10
27.121556614422737
 20
6.21884871935103
 30
0.0
 11
-0.5363591937708796
 21
-2.4417859888322426
 31
0.0
 40
0.5683887262987017
 41
3.141592653589793
 42
6.283185307179586
  0
ELLIPSE
  5
6F
330
17
100
AcDbEntity
  8
visible
100
AcDbEllipse
 10
27.121556614422737
 20
6.21884871935103
 30
0.0
 11
-0.5363591937708796
 21
-2.4417859888322426
 31
0.0
 40
0.5683887262987017
 41
0.0
 42
0.3687782970385669
  0
LINE
  5
70
330
17
100
AcDbEntity
  8
visible
100
AcDbLine
 10
22.55358332908617
 20
-18.758903182557788
 30
0.0
 11
30.885928222294933
 21
-15.422191863985283
 31
0.0
  0
ELLIPSE
  5
71
330
17
100
AcDbEntity
  8
visible
100
AcDbEllipse
 10
26.71975577569055
 20
6.307107712933799
 30
0.0
 11
1.287262065050112
 21
5.860286373197382
 31
0.0
 40
0.5683887262987017
 41
-3.769029402922304
 42
-3.141592653589793
  0
ELLIPSE
  5
72
330
17
100
AcDbEntity
  8
visible
100
AcDbEllipse
 10
26.71975577569055
 20
-1.3329429764393694
 30
0.0
 11
-0.23599804525918705
 21
-1.0743858350861868
 31
0.0
 40
0.5683887262987017
 41
0.36877829703856646
 42
3.141592653589793
  0
ELLIPSE
  5
73
330
17
100
AcDbEntity
  8
visible
100
AcDbEllipse
 10
26.71975577569055
 20
-1.3329429764393694
 30
0.0
 11
-0.23599804525918705
 21
-1.0743858350861868
 31
0.0
 40
0.5683887262987017
 41
3.141592653589793
 42
6.283185307179586
  0
ELLIPSE
  5
74
330
17
100
AcDbEntity
  8
visible
100
AcDbEllipse
 10
26.71975577569055
 20
-1.3329429764393694
 30
0.0
 11
-0.23599804525918705
 21
-1.0743858350861868
 31
0.0
 40
0.5683887262987017
 41
0.0
 42
0.3687782970385669
  0
ELLIPSE
  5
75
330
17
100
AcDbEntity
  8
visible
100
AcDbEllipse
 10
-6.56944371327127
 20
-15.118367001364888
 30
0.0
 11
3.4
 21
0.0
 31
0.0
 40
0.2965853972669738
 41
2.5041185938665067
 42
3.141592653589793
  0
ELLIPSE
  5
76
330
17
100
AcDbEntity
  8
visible
100
AcDbEllipse
 10
-6.56944371327127
 20
-15.118367001364888
 30
0.0
 11
3.4
 21
0.0
 31
0.0
 40
0.2965853972669738
 41
3.141592653589793
 42
5.645711247456299
  0
LINE
  5
77
330
17
100
AcDbEntity
  8
visible
100
AcDbLine
 10
-3.837198009892389
 20
-15.718528157727777
 30
0.0
 11
5.6854818680604815
 21
-11.905143793644914
 31
0.0
  0
ELLIPSE
  5
78
330
17
100
AcDbEntity
  8
visible
100
AcDbEllipse
 10
2.9532361646815994
 20
-11.304982637282038
 30
0.0
 11
3.4
 21
0.0
 31
0.0
 40
0.2965853972669738
 41
5.645711247456299
 42
6.283185307179586
  0
ELLIPSE
  5
79
330
17
100
AcDbEntity
  8
visible
100
AcDbEllipse
 10
2.9532361646815994
 20
-11.304982637282038
 30
0.0
 11
3.4
 21
0.0
 31
0.0
 40
0.2965853972669738
 41
0.0
 42
2.5041185938665067
  0
LINE
  5
7A
330
17
100
AcDbEntity
  8
visible
100
AcDbLine
 10
-9.301689416650152
 20
-14.518205845002003
 30
0.0
 11
0.22099046130271915
 21
-10.70482148091914
 31
0.0
  0
ELLIPSE
  5
7B
330
17
100
AcDbEntity
  8
visible
100
AcDbEllipse
 10
24.71075158202961
 20
6.74840268084769
 30
0.0
 11
-0.5363591937708796
 21
-2.4417859888322426
 31
0.0
 40
0.5683887262987017
 41
1.0522053521379462
 42
2.0893873014518447
  0
ELLIPSE
  5
7C
330
17
100
AcDbEntity
  8
visible
100
AcDbEllipse
 10
23.103548227100852
 20
7.1014386551787965
 30
0.0
 11
-1.2872620650501112
 21
-5.860286373197383
 31
0.0
 40
0.5683887262987017
 41
4.30176714631608
 42
4.5575685018249565
  0
ELLIPSE
  5
7D
330
17
100
AcDbEntity
  8
visible
100
AcDbEllipse
 10
25.514353259493983
 20
6.5718846936821365
 30
0.0
 11
-1.2872620650501112
 21
-5.860286373197383
 31
0.0
 40
0.5683887262987017
 41
4.174872309131221
 42
4.233105198441774
  0
LINE
  5
7E
330
17
100
AcDbEntity
  8
visible
100
AcDbLine
 10
23.312233537717383
 20
10.200865176653364
 30
0.0
 11
24.43727588616751
 21
9.953739994621587
 31
0.0
  0
ELLIPSE
  5
7F
330
17
100
AcDbEntity
  8
visible
100
AcDbEllipse
 10
26.63939560794411
 20
6.324759511650356
 30
0.0
 11
-1.2872620650501112
 21
-5.860286373197383
 31
0.0
 40
0.5683887262987017
 41
3.141592653589793
 42
4.174872309131201
  0
ELLIPSE
  5
80
330
17
100
AcDbEntity
  8
visible
100
AcDbEllipse
 10
26.63939560794411
 20
6.324759511650356
 30
0.0
 11
-0.5363591937708796
 21
-2.4417859888322426
 31
0.0
 40
0.5683887262987017
 41
0.36877829703856646
 42
2.9670033625193115
  0
ELLIPSE
  5
81
330
17
100
AcDbEntity
  8
visible
100
AcDbEllipse
 10
26.63939560794411
 20
6.324759511650356
 30
0.0
 11
-0.5363591937708796
 21
-2.4417859888322426
 31
0.0
 40
0.5683887262987017
 41
0.17458929107049492
 42
0.3687782970385669
  0
ELLIPSE
  5
82
330
17
100
AcDbEntity
  8
visible
100
AcDbEllipse
 10
26.63939560794411
 20
-1.3152911777228127
 30
0.0
 11
-0.23599804525918705
 21
-1.0743858350861868
 31
0.0
 40
0.5683887262987017
 41
0.36877829703856646
 42
3.0757482348473273
  0
ELLIPSE
  5
83
330
17
100
AcDbEntity
  8
visible
100
AcDbEllipse
 10
26.63939560794411
 20
-1.3152911777228127
 30
0.0
 11
-0.23599804525918705
 21
-1.0743858350861868
 31
0.0
 40
0.5683887262987017
 41
0.065844418742385
 42
0.3687782970385669
  0
LINE
  5
84
330
17
100
AcDbEntity
  8
visible
100
AcDbLine
 10
-9.301689416650152
 20
-15.718528157727775
 30
0.0
 11
-9.301689416650152
 21
-14.518205845002024
 31
0.0
  0
LINE
  5
85
330
17
100
AcDbEntity
  8
visible
100
AcDbLine
 10
0.22099046130271738
 20
-14.093414989911873
 30
0.0
 11
0.22099046130271738
 21
-10.70482148091916
 31
0.0
  0
LINE
  5
86
330
17
100
AcDbEntity
  8
visible
100
AcDbLine
 10
22.508631860253008
 20
16.849130412627453
 30
0.0
 11
26.912871303806213
 21
18.612820681015776
 31
0.0
  0
LINE
  5
87
330
17
100
AcDbEntity
  8
visible
100
AcDbLine
 10
26.91287130380621
 20
-2.1602415408002997
 30
0.0
 11
26.91287130380621
 21
-0.25184470165396533
 31
0.0
  0
LINE
  5
88
330
17
100
AcDbEntity
  8
visible
100
AcDbLine
 10
26.91287130380621
 20
4.087431192595915
 30
0.0
 11
26.91287130380621
 21
8.499196948346892
 31
0.0
  0
LINE
  5
89
330
17
100
AcDbEntity
  8
visible
100
AcDbLine
 10
26.91287130380621
 20
12.147484049835285
 30
0.0
 11
26.91287130380621
 21
18.61282068101578
 31
0.0
  0
ELLIPSE
  5
8A
330
17
100
AcDbEntity
  8
visible
100
AcDbEllipse
 10
24.71075158202961
 20
14.388453370220859
 30
0.0
 11
-0.23599804525918705
 21
-1.0743858350861868
 31
0.0
 40
0.5683887262987017
 41
0.36877829703856646
 42
3.141592653589793
  0
ELLIPSE
  5
8B
330
17
100
AcDbEntity
  8
visible
100
AcDbEllipse
 10
24.71075158202961
 20
14.388453370220859
 30
0.0
 11
-0.23599804525918705
 21
-1.0743858350861868
 31
0.0
 40
0.5683887262987017
 41
3.141592653589793
 42
6.283185307179586
  0
ELLIPSE
  5
8C
330
17
100
AcDbEntity
  8
visible
100
AcDbEllipse
 10
24.71075158202961
 20
14.388453370220859
 30
0.0
 11
-0.23599804525918705
 21
-1.0743858350861868
 31
0.0
 40
0.5683887262987017
 41
0.0
 42
0.3687782970385669
  0
LINE
  5
8D
330
17
100
AcDbEntity
  8
visible
100
AcDbLine
 10
28.487656320411027
 20
12.06008091213177
 30
0.0
 11
28.490190721354253
 21
12.061095820230445
 31
0.0
  0
LINE
  5
8E
330
17
100
AcDbEntity
  8
visible
100
AcDbLine
 10
22.53851579763371
 20
9.677730592678657
 30
0.0
 11
23.152355499624402
 21
9.923544455123416
 31
0.0
  0
LINE
  5
8F
330
17
100
AcDbEntity
  8
visible
100
AcDbLine
 10
19.324109087776204
 20
10.38380254134087
 30
0.0
 11
22.538515797633714
 21
9.677730592678653
 31
0.0
  0
LINE
  5
90
330
17
100
AcDbEntity
  8
visible
100
AcDbLine
 10
22.53851579763371
 20
16.362774945880176
 30
0.0
 11
23.312233537717383
 21
16.672612425461907
 31
0.0
  0
LINE
  5
91
330
17
100
AcDbEntity
  8
visible
100
AcDbLine
 10
23.312233537717383
 20
10.200865176653364
 30
0.0
 11
23.312233537717383
 21
16.672612425461907
 31
0.0
  0
LINE
  5
92
330
17
100
AcDbEntity
  8
visible
100
AcDbLine
 10
22.53851579763371
 20
9.677730592678657
 30
0.0
 11
22.53851579763371
 21
16.362774945880183
 31
0.0
  0
LINE
  5
93
330
17
100
AcDbEntity
  8
visible
100
AcDbLine
 10
23.312233537717383
 20
16.67261242546191
 30
0.0
 11
22.508631860253004
 21
16.849130412627467
 31
0.0
  0
LINE
  5
94
330
17
100
AcDbEntity
  8
visible
100
AcDbLine
 10
27.716472981270584
 20
12.219262825062017
 30
0.0
 11
27.716472981270584
 21
18.436302693850223
 31
0.0
  0
LINE
  5
95
330
17
100
AcDbEntity
  8
visible
100
AcDbLine
 10
27.716472981270584
 20
18.436302693850227
 30
0.0
 11
26.912871303806206
 21
18.612820681015783
 31
0.0
  0
LINE
  5
96
330
17
100
AcDbEntity
  8
visible
100
AcDbLine
 10
27.716472981270584
 20
18.43630269385023
 30
0.0
 11
28.490190721354253
 21
18.746140173431964
 31
0.0
  0
LINE
  5
97
330
17
100
AcDbEntity
  8
visible
100
AcDbLine
 10
28.490190721354256
 20
12.061095820230435
 30
0.0
 11
28.490190721354256
 21
18.74614017343196
 31
0.0
  0
LINE
  5
98
330
17
100
AcDbEntity
  8
visible
100
AcDbLine
 10
25.27578401149675
 20
19.45221212209418
 30
0.0
 11
28.49019072135426
 21
18.746140173431964
 31
0.0
  0
LINE
  5
99
330
17
100
AcDbEntity
  8
visible
100
AcDbLine
 10
19.324109087776204
 20
17.06884689454239
 30
0.0
 11
22.538515797633714
 21
16.362774945880172
 31
0.0
  0
LINE
  5
9A
330
17
100
AcDbEntity
  8
visible
100
AcDbLine
 10
19.324109087776204
 20
17.06884689454239
 30
0.0
 11
25.275784011496746
 21
19.452212122094178
 31
0.0
  0
LINE
  5
9B
330
17
100
AcDbEntity
  8
visible
100
AcDbLine
 10
19.324109087776204
 20
10.38380254134087
 30
0.0
 11
19.324109087776204
 21
17.068846894542396
 31
0.0
  0
LINE
  5
9C
330
17
100
AcDbEntity
  8
visible
100
AcDbLine
 10
-42.26819260700518
 20
-24.761902968099406
 30
0.0
 11
-42.26819260700518
 21
-19.986871287241176
 31
0.0
  0
LINE
  5
9D
330
17
100
AcDbEntity
  8
visible
100
AcDbLine
 10
39.27728761369248
 20
-22.00613692374266
 30
0.0
 11
39.27728761369248
 21
-17.23110524288443
 31
0.0
  0
LINE
  5
9E
330
17
100
AcDbEntity
  8
visible
100
AcDbLine
 10
7.733410517973601
 20
-34.637972629767134
 30
0.0
 11
7.733410517973601
 21
-29.862940948908903
 31
0.0
  0
LINE
  5
9F
330
17
100
AcDbEntity
  8
visible
100
AcDbLine
 10
31.658139209233354
 20
-16.295634391070337
 30
0.0
 11
31.658139209233354
 21
-11.520602710212106
 31
0.0
  0
LINE
  5
A0
330
17
100
AcDbEntity
  8
visible
100
AcDbLine
 10
2.494932083002693
 20
-27.974124006074106
 30
0.0
 11
2.494932083002693
 21
-23.199092325215876
 31
0.0
  0
LINE
  5
A1
330
17
100
AcDbEntity
  8
visible
100
AcDbLine
 10
-34.85747838763838
 20
-20.507487629134516
 30
0.0
 11
-34.85747838763838
 21
-15.732455948276286
 31
0.0
  0
LINE
  5
A2
330
17
100
AcDbEntity
  8
visible
100
AcDbLine
 10
-0.3026062566701686
 20
-28.097761077253352
 30
0.0
 11
-0.3026062566701686
 21
-23.322729396395122
 31
0.0
  0
LINE
  5
A3
330
17
100
AcDbEntity
  8
visible
100
AcDbLine
 10
3.5371030084643067
 20
-34.823428236536
 30
0.0
 11
3.5371030084643067
 21
-30.048396555677773
 31
0.0
  0
LINE
  5
A4
330
17
100
AcDbEntity
  8
visible
100
AcDbLine
 10
-43.48269012988902
 20
-24.046893399833877
 30
0.0
 11
-43.48269012988902
 21
-19.271861718975646
 31
0.0
  0
LINE
  5
A5
330
17
100
AcDbEntity
  8
visible
100
AcDbLine
 10
39.86648258129935
 20
-21.476582962245985
 30
0.0
 11
39.86648258129935
 21
-16.701551281387754
 31
0.0
  0
LINE
  5
A6
330
17
100
AcDbEntity
  8
visible
100
AcDbLine
 10
32.0509358543046
 20
-15.94259841673923
 30
0.0
 11
32.0509358543046
 21
-11.167566735881
 31
0.0
  0
LINE
  5
A7
330
17
100
AcDbEntity
  8
visible
100
AcDbLine
 10
-35.66714340289427
 20
-20.030814583624164
 30
0.0
 11
-35.66714340289427
 21
-15.255782902765933
 31
0.0
  0
LINE
  5
A8
330
17
100
AcDbEntity
  8
visible
100
AcDbLine
 10
27.92665767299422
 20
12.18504588484774
 30
0.0
 11
28.408818679472848
 21
12.079135092548409
 31
0.0
  0
LINE
  5
A9
330
17
100
AcDbEntity
  8
visible
100
AcDbLine
 10
25.432493710640436
 20
0.44682133973640603
 30
0.0
 11
25.834294549372625
 21
0.35856234615362903
 31
0.0
  0
ENDSEC
  0
SECTION
  2
OBJECTS
  0
DICTIONARY
  5
A
330
0
100
AcDbDictionary
281
1
  3
ACAD_COLOR
350
B
  3
ACAD_GROUP
350
C
  3
ACAD_LAYOUT
350
D
  3
ACAD_MATERIAL
350
E
  3
ACAD_MLEADERSTYLE
350
F
  3
ACAD_MLINESTYLE
350
10
  3
ACAD_PLOTSETTINGS
350
11
  3
ACAD_PLOTSTYLENAME
350
12
  3
ACAD_SCALELIST
350
14
  3
ACAD_TABLESTYLE
350
15
  3
ACAD_VISUALSTYLE
350
16
  3
EZDXF_META
350
2D
  0
DICTIONARY
  5
B
330
A
100
AcDbDictionary
281
1
  0
DICTIONARY
  5
C
330
A
100
AcDbDictionary
281
1
  0
DICTIONARY
  5
D
330
A
100
AcDbDictionary
281
1
  3
Model
350
1A
  3
Layout1
350
1E
  0
DICTIONARY
  5
E
330
A
100
AcDbDictionary
281
1
  3
ByBlock
350
1F
  3
ByLayer
350
20
  3
Global
350
21
  0
DICTIONARY
  5
F
330
A
100
AcDbDictionary
281
1
  3
Standard
350
2C
  0
DICTIONARY
  5
10
330
A
100
AcDbDictionary
281
1
  3
Standard
350
22
  0
DICTIONARY
  5
11
330
A
100
AcDbDictionary
281
1
  0
ACDBDICTIONARYWDFLT
  5
12
330
A
100
AcDbDictionary
281
1
  3
Normal
350
13
100
AcDbDictionaryWithDefault
340
13
  0
ACDBPLACEHOLDER
  5
13
330
12
  0
DICTIONARY
  5
14
330
A
100
AcDbDictionary
281
1
  0
DICTIONARY
  5
15
330
A
100
AcDbDictionary
281
1
  0
DICTIONARY
  5
16
330
A
100
AcDbDictionary
281
1
  0
LAYOUT
  5
1A
330
D
100
AcDbPlotSettings
  1

  4
A3
  6

 40
7.5
 41
20.0
 42
7.5
 43
20.0
 44
420.0
 45
297.0
 46
0.0
 47
0.0
 48
0.0
 49
0.0
140
0.0
141
0.0
142
1.0
143
1.0
 70
1024
 72
1
 73
0
 74
5
  7

 75
16
 76
0
 77
2
 78
300
147
1.0
148
0.0
149
0.0
100
AcDbLayout
  1
Model
 70
1
 71
0
 10
0.0
 20
0.0
 11
420.0
 21
297.0
 12
0.0
 22
0.0
 32
0.0
 14
1e+20
 24
1e+20
 34
1e+20
 15
-1e+20
 25
-1e+20
 35
-1e+20
146
0.0
 13
0.0
 23
0.0
 33
0.0
 16
1.0
 26
0.0
 36
0.0
 17
0.0
 27
1.0
 37
0.0
 76
1
330
17
  0
LAYOUT
  5
1E
330
D
100
AcDbPlotSettings
  1

  4
A3
  6

 40
7.5
 41
20.0
 42
7.5
 43
20.0
 44
420.0
 45
297.0
 46
0.0
 47
0.0
 48
0.0
 49
0.0
140
0.0
141
0.0
142
1.0
143
1.0
 70
0
 72
1
 73
0
 74
5
  7

 75
16
 76
0
 77
2
 78
300
147
1.0
148
0.0
149
0.0
100
AcDbLayout
  1
Layout1
 70
1
 71
1
 10
0.0
 20
0.0
 11
420.0
 21
297.0
 12
0.0
 22
0.0
 32
0.0
 14
1e+20
 24
1e+20
 34
1e+20
 15
-1e+20
 25
-1e+20
 35
-1e+20
146
0.0
 13
0.0
 23
0.0
 33
0.0
 16
1.0
 26
0.0
 36
0.0
 17
0.0
 27
1.0
 37
0.0
 76
1
330
1B
  0
MATERIAL
  5
1F
102
{ACAD_REACTORS
330
E
102
}
330
E
100
AcDbMaterial
  1
ByBlock
  2

 70
0
 40
1.0
 71
1
 41
1.0
 91
-1023410177
 42
1.0
 72
1
  3

 73
1
 74
1
 75
1
 44
0.5
 73
0
 45
1.0
 46
1.0
 77
1
  4

 78
1
 79
1
170
1
 48
1.0
171
1
  6

172
1
173
1
174
1
140
1.0
141
1.0
175
1
  7

176
1
177
1
178
1
143
1.0
179
1
  8

270
1
271
1
272
1
145
1.0
146
1.0
273
1
  9

274
1
275
1
276
1
 42
1.0
 72
1
  3

 73
1
 74
1
 75
1
 94
63
  0
MATERIAL
  5
20
102
{ACAD_REACTORS
330
E
102
}
330
E
100
AcDbMaterial
  1
ByLayer
  2

 70
0
 40
1.0
 71
1
 41
1.0
 91
-1023410177
 42
1.0
 72
1
  3

 73
1
 74
1
 75
1
 44
0.5
 73
0
 45
1.0
 46
1.0
 77
1
  4

 78
1
 79
1
170
1
 48
1.0
171
1
  6

172
1
173
1
174
1
140
1.0
141
1.0
175
1
  7

176
1
177
1
178
1
143
1.0
179
1
  8

270
1
271
1
272
1
145
1.0
146
1.0
273
1
  9

274
1
275
1
276
1
 42
1.0
 72
1
  3

 73
1
 74
1
 75
1
 94
63
  0
MATERIAL
  5
21
102
{ACAD_REACTORS
330
E
102
}
330
E
100
AcDbMaterial
  1
Global
  2

 70
0
 40
1.0
 71
1
 41
1.0
 91
-1023410177
 42
1.0
 72
1
  3

 73
1
 74
1
 75
1
 44
0.5
 73
0
 45
1.0
 46
1.0
 77
1
  4

 78
1
 79
1
170
1
 48
1.0
171
1
  6

172
1
173
1
174
1
140
1.0
141
1.0
175
1
  7

176
1
177
1
178
1
143
1.0
179
1
  8

270
1
271
1
272
1
145
1.0
146
1.0
273
1
  9

274
1
275
1
276
1
 42
1.0
 72
1
  3

 73
1
 74
1
 75
1
 94
63
  0
MLINESTYLE
  5
22
102
{ACAD_REACTORS
330
10
102
}
330
10
100
AcDbMlineStyle
  2
Standard
 70
0
  3

 62
256
 51
90.0
 52
90.0
 71
2
 49
0.5
 62
256
  6
BYLAYER
 49
-0.5
 62
256
  6
BYLAYER
  0
MLEADERSTYLE
  5
2C
102
{ACAD_REACTORS
330
F
102
}
330
F
100
AcDbMLeaderStyle
179
2
170
2
171
1
172
0
 90
2
 40
0.0
 41
0.0
173
1
 91
-1056964608
 92
-2
290
1
 42
2.0
291
1
 43
8.0
  3
Standard
 44
4.0
300

342
29
174
1
175
1
176
0
178
1
 93
-1056964608
 45
4.0
292
0
297
0
 46
4.0
 94
-1056964608
 47
1.0
 49
1.0
140
1.0
294
1
141
0.0
177
0
142
1.0
295
0
296
0
143
3.75
271
0
272
9
273
9
  0
DICTIONARY
  5
2D
330
A
100
AcDbDictionary
280
1
281
1
  3
CREATED_BY_EZDXF
350
2E
  3
WRITTEN_BY_EZDXF
350
AD
  0
DICTIONARYVAR
  5
2E
330
2D
100
DictionaryVariables
280
0
  1
1.4.4 @ 2026-10-01T18:29:32.697397+00:00
  0
DICTIONARYVAR
  5
AD
330
2D
100
DictionaryVariables
280
0
  1
1.4.4 @ 2026-10-01T18:29:32.711944+00:00
  0
ENDSEC
  0
EOF
