  0
SECTION
  2
HEADER
  9
$ACADVER
  1
AC1027
  9
$ACADMAINTVER
 70
105
  9
$DWGCODEPAGE
  3
ANSI_1252
  9
$LASTSAVEDBY
  1
ezdxf
  9
$REQUIREDVERSIONS
160
0
  9
$INSBASE
 10
0.0
 20
0.0
 30
0.0
  9
$EXTMIN
 10
1e+20
 20
1e+20
 30
1e+20
  9
$EXTMAX
 10
-1e+20
 20
-1e+20
 30
-1e+20
  9
$LIMMIN
 10
0.0
 20
0.0
  9
$LIMMAX
 10
420.0
 20
297.0
  9
$ORTHOMODE
 70
0
  9
$REGENMODE
 70
1
  9
$FILLMODE
 70
1
  9
$QTEXTMODE
 70
0
  9
$MIRRTEXT
 70
1
  9
$LTSCALE
 40
1.0
  9
$ATTMODE
 70
1
  9
$TEXTSIZE
 40
2.5
  9
$TRACEWID
 40
1.0
  9
$TEXTSTYLE
  7
Standard
  9
$CLAYER
  8
0
  9
$CELTYPE
  6
ByLayer
  9
$CECOLOR
 62
256
  9
$CELTSCALE
 40
1.0
  9
$DISPSILH
 70
0
  9
$DIMSCALE
 40
1.0
  9
$DIMASZ
 40
2.5
  9
$DIMEXO
 40
0.625
  9
$DIMDLI
 40
3.75
  9
$DIMRND
 40
0.0
  9
$DIMDLE
 40
0.0
  9
$DIMEXE
 40
1.25
  9
$DIMTP
 40
0.0
  9
$DIMTM
 40
0.0
  9
$DIMTXT
 40
2.5
  9
$DIMCEN
 40
2.5
  9
$DIMTSZ
 40
0.0
  9
$DIMTOL
 70
0
  9
$DIMLIM
 70
0
  9
$DIMTIH
 70
0
  9
$DIMTOH
 70
0
  9
$DIMSE1
 70
0
  9
$DIMSE2
 70
0
  9
$DIMTAD
 70
1
  9
$DIMZIN
 70
8
  9
$DIMBLK
  1

  9
$DIMASO
 70
1
  9
$DIMSHO
 70
1
  9
$DIMPOST
  1

  9
$DIMAPOST
  1

  9
$DIMALT
 70
0
  9
$DIMALTD
 70
3
  9
$DIMALTF
 40
0.03937007874
  9
$DIMLFAC
 40
1.0
  9
$DIMTOFL
 70
1
  9
$DIMTVP
 40
0.0
  9
$DIMTIX
 70
0
  9
$DIMSOXD
 70
0
  9
$DIMSAH
 70
0
  9
$DIMBLK1
  1

  9
$DIMBLK2
  1

  9
$DIMSTYLE
  2
ISO-25
  9
$DIMCLRD
 70
0
  9
$DIMCLRE
 70
0
  9
$DIMCLRT
 70
0
  9
$DIMTFAC
 40
1.0
  9
$DIMGAP
 40
0.625
  9
$DIMJUST
 70
0
  9
$DIMSD1
 70
0
  9
$DIMSD2
 70
0
  9
$DIMTOLJ
 70
0
  9
$DIMTZIN
 70
8
  9
$DIMALTZ
 70
0
  9
$DIMALTTZ
 70
0
  9
$DIMUPT
 70
0
  9
$DIMDEC
 70
2
  9
$DIMTDEC
 70
2
  9
$DIMALTU
 70
2
  9
$DIMALTTD
 70
3
  9
$DIMTXSTY
  7
Standard
  9
$DIMAUNIT
 70
0
  9
$DIMADEC
 70
0
  9
$DIMALTRND
 40
0.0
  9
$DIMAZIN
 70
0
  9
$DIMDSEP
 70
44
  9
$DIMATFIT
 70
3
  9
$DIMFRAC
 70
0
  9
$DIMLDRBLK
  1

  9
$DIMLUNIT
 70
2
  9
$DIMLWD
 70
-2
  9
$DIMLWE
 70
-2
  9
$DIMTMOVE
 70
0
  9
$DIMFXL
 40
1.0
  9
$DIMFXLON
 70
0
  9
$DIMJOGANG
 40
0.785398163397
  9
$DIMTFILL
 70
0
  9
$DIMTFILLCLR
 70
0
  9
$DIMARCSYM
 70
0
  9
$DIMLTYPE
  6

  9
$DIMLTEX1
  6

  9
$DIMLTEX2
  6

  9
$DIMTXTDIRECTION
 70
0
  9
$LUNITS
 70
2
  9
$LUPREC
 70
4
  9
$SKETCHINC
 40
1.0
  9
$FILLETRAD
 40
10.0
  9
$AUNITS
 70
0
  9
$AUPREC
 70
2
  9
$MENU
  1
.
  9
$ELEVATION
 40
0.0
  9
$PELEVATION
 40
0.0
  9
$THICKNESS
 40
0.0
  9
$LIMCHECK
 70
0
  9
$CHAMFERA
 40
0.0
  9
$CHAMFERB
 40
0.0
  9
$CHAMFERC
 40
0.0
  9
$CHAMFERD
 40
0.0
  9
$SKPOLY
 70
0
  9
$TDCREATE
 40
2461315.9225
  9
$TDUCREATE
 40
2458532.153996898
  9
$TDUPDATE
 40
2461315.9225
  9
$TDUUPDATE
 40
2458532.1544311
  9
$TDINDWG
 40
0.0
  9
$TDUSRTIMER
 40
0.0
  9
$USRTIMER
 70
1
  9
$ANGBASE
 50
0.0
  9
$ANGDIR
 70
0
  9
$PDMODE
 70
0
  9
$PDSIZE
 40
0.0
  9
$PLINEWID
 40
0.0
  9
$SPLFRAME
 70
0
  9
$SPLINETYPE
 70
6
  9
$SPLINESEGS
 70
8
  9
$HANDSEED
  5
175
  9
$SURFTAB1
 70
6
  9
$SURFTAB2
 70
6
  9
$SURFTYPE
 70
6
  9
$SURFU
 70
6
  9
$SURFV
 70
6
  9
$UCSBASE
  2

  9
$UCSNAME
  2

  9
$UCSORG
 10
0.0
 20
0.0
 30
0.0
  9
$UCSXDIR
 10
1.0
 20
0.0
 30
0.0
  9
$UCSYDIR
 10
0.0
 20
1.0
 30
0.0
  9
$UCSORTHOREF
  2

  9
$UCSORTHOVIEW
 70
0
  9
$UCSORGTOP
 10
0.0
 20
0.0
 30
0.0
  9
$UCSORGBOTTOM
 10
0.0
 20
0.0
 30
0.0
  9
$UCSORGLEFT
 10
0.0
 20
0.0
 30
0.0
  9
$UCSORGRIGHT
 10
0.0
 20
0.0
 30
0.0
  9
$UCSORGFRONT
 10
0.0
 20
0.0
 30
0.0
  9
$UCSORGBACK
 10
0.0
 20
0.0
 30
0.0
  9
$PUCSBASE
  2

  9
$PUCSNAME
  2

  9
$PUCSORG
 10
0.0
 20
0.0
 30
0.0
  9
$PUCSXDIR
 10
1.0
 20
0.0
 30
0.0
  9
$PUCSYDIR
 10
0.0
 20
1.0
 30
0.0
  9
$PUCSORTHOREF
  2

  9
$PUCSORTHOVIEW
 70
0
  9
$PUCSORGTOP
 10
0.0
 20
0.0
 30
0.0
  9
$PUCSORGBOTTOM
 10
0.0
 20
0.0
 30
0.0
  9
$PUCSORGLEFT
 10
0.0
 20
0.0
 30
0.0
  9
$PUCSORGRIGHT
 10
0.0
 20
0.0
 30
0.0
  9
$PUCSORGFRONT
 10
0.0
 20
0.0
 30
0.0
  9
$PUCSORGBACK
 10
0.0
 20
0.0
 30
0.0
  9
$USERI1
 70
0
  9
$USERI2
 70
0
  9
$USERI3
 70
0
  9
$USERI4
 70
0
  9
$USERI5
 70
0
  9
$USERR1
 40
0.0
  9
$USERR2
 40
0.0
  9
$USERR3
 40
0.0
  9
$USERR4
 40
0.0
  9
$USERR5
 40
0.0
  9
$WORLDVIEW
 70
1
  9
$SHADEDGE
 70
3
  9
$SHADEDIF
 70
70
  9
$TILEMODE
 70
1
  9
$MAXACTVP
 70
64
  9
$PINSBASE
 10
0.0
 20
0.0
 30
0.0
  9
$PLIMCHECK
 70
0
  9
$PEXTMIN
 10
1e+20
 20
1e+20
 30
1e+20
  9
$PEXTMAX
 10
-1e+20
 20
-1e+20
 30
-1e+20
  9
$PLIMMIN
 10
0.0
 20
0.0
  9
$PLIMMAX
 10
420.0
 20
297.0
  9
$UNITMODE
 70
0
  9
$VISRETAIN
 70
1
  9
$PLINEGEN
 70
0
  9
$PSLTSCALE
 70
1
  9
$TREEDEPTH
 70
3020
  9
$CMLSTYLE
  2
Standard
  9
$CMLJUST
 70
0
  9
$CMLSCALE
 40
20.0
  9
$PROXYGRAPHICS
 70
1
  9
$MEASUREMENT
 70
1
  9
$CELWEIGHT
370
-1
  9
$ENDCAPS
280
0
  9
$JOINSTYLE
280
0
  9
$LWDISPLAY
290
0
  9
$INSUNITS
 70
4
  9
$HYPERLINKBASE
  1

  9
$STYLESHEET
  1

  9
$XEDIT
290
1
  9
$CEPSNTYPE
380
0
  9
$PSTYLEMODE
290
1
  9
$FINGERPRINTGUID
  2
{EFBEE165-BC07-424B-8D98-B97655D9EABE}
  9
$VERSIONGUID
  2
{5E79C7C6-91D2-4DA2-A6B9-5A3F43DE7C9F}
  9
$EXTNAMES
290
1
  9
$PSVPSCALE
 40
0.0
  9
$OLESTARTUP
290
0
  9
$SORTENTS
280
127
  9
$INDEXCTL
280
0
  9
$HIDETEXT
280
1
  9
$XCLIPFRAME
280
1
  9
$HALOGAP
280
0
  9
$OBSCOLOR
 70
257
  9
$OBSLTYPE
280
0
  9
$INTERSECTIONDISPLAY
280
0
  9
$INTERSECTIONCOLOR
 70
257
  9
$DIMASSOC
280
2
  9
$PROJECTNAME
  1

  9
$CAMERADISPLAY
290
0
  9
$LENSLENGTH
 40
50.0
  9
$CAMERAHEIGHT
 40
0.0
  9
$STEPSPERSEC
 40
24.0
  9
$STEPSIZE
 40
100.0
  9
$3DDWFPREC
 40
2.0
  9
$PSOLWIDTH
 40
0.005
  9
$PSOLHEIGHT
 40
0.08
  9
$LOFTANG1
 40
1.570796326795
  9
$LOFTANG2
 40
1.570796326795
  9
$LOFTMAG1
 40
0.0
  9
$LOFTMAG2
 40
0.0
  9
$LOFTPARAM
 70
7
  9
$LOFTNORMALS
280
1
  9
$LATITUDE
 40
37.795
  9
$LONGITUDE
 40
-122.394
  9
$NORTHDIRECTION
 40
0.0
  9
$TIMEZONE
 70
-8000
  9
$LIGHTGLYPHDISPLAY
280
1
  9
$TILEMODELIGHTSYNCH
280
1
  9
$CMATERIAL
347
20
  9
$SOLIDHIST
280
0
  9
$SHOWHIST
280
1
  9
$DWFFRAME
280
2
  9
$DGNFRAME
280
2
  9
$REALWORLDSCALE
290
1
  9
$INTERFERECOLOR
 62
256
  9
$CSHADOW
280
0
  9
$SHADOWPLANELOCATION
 40
0.0
  0
ENDSEC
  0
SECTION
  2
CLASSES
  0
CLASS
  1
ACDBDICTIONARYWDFLT
  2
AcDbDictionaryWithDefault
  3
ObjectDBX Classes
 90
0
 91
0
280
0
281
0
  0
CLASS
  1
SUN
  2
AcDbSun
  3
SCENEOE
 90
1153
 91
0
280
0
281
0
  0
CLASS
  1
VISUALSTYLE
  2
AcDbVisualStyle
  3
ObjectDBX Classes
 90
4095
 91
0
280
0
281
0
  0
CLASS
  1
MATERIAL
  2
AcDbMaterial
  3
ObjectDBX Classes
 90
1153
 91
0
280
0
281
0
  0
CLASS
  1
SCALE
  2
AcDbScale
  3
ObjectDBX Classes
 90
1153
 91
0
280
0
281
0
  0
CLASS
  1
TABLESTYLE
  2
AcDbTableStyle
  3
ObjectDBX Classes
 90
4095
 91
0
280
0
281
0
  0
CLASS
  1
MLEADERSTYLE
  2
AcDbMLeaderStyle
  3
ACDB_MLEADERSTYLE_CLASS
 90
4095
 91
0
280
0
281
0
  0
CLASS
  1
DICTIONARYVAR
  2
AcDbDictionaryVar
  3
ObjectDBX Classes
 90
0
 91
0
280
0
281
0
  0
CLASS
  1
CELLSTYLEMAP
  2
AcDbCellStyleMap
  3
ObjectDBX Classes
 90
1152
 91
0
280
0
281
0
  0
CLASS
  1
MENTALRAYRENDERSETTINGS
  2
AcDbMentalRayRenderSettings
  3
SCENEOE
 90
1024
 91
0
280
0
281
0
  0
CLASS
  1
ACDBDETAILVIEWSTYLE
  2
AcDbDetailViewStyle
  3
ObjectDBX Classes
 90
1025
 91
0
280
0
281
0
  0
CLASS
  1
ACDBSECTIONVIEWSTYLE
  2
AcDbSectionViewStyle
  3
ObjectDBX Classes
 90
1025
 91
0
280
0
281
0
  0
CLASS
  1
RASTERVARIABLES
  2
AcDbRasterVariables
  3
ISM
 90
0
 91
0
280
0
281
0
  0
CLASS
  1
LAYOUT
  2
AcDbLayout
  3
ObjectDBX Classes
 90
0
 91
0
280
0
281
0
  0
CLASS
  1
ACDBPLACEHOLDER
  2
AcDbPlaceHolder
  3
ObjectDBX Classes
 90
0
 91
0
280
0
281
0
  0
ENDSEC
  0
SECTION
  2
TABLES
  0
TABLE
  2
VPORT
  5
8
330
0
100
AcDbSymbolTable
 70
1
  0
VPORT
  5
171
330
8
100
AcDbSymbolTableRecord
100
AcDbViewportTableRecord
  2
*Active
 70
0
 10
0.0
 20
0.0
 11
1.0
 21
1.0
 12
-1.0427047505406364
 22
-3.8200106789787895
 13
0.0
 23
0.0
 14
0.5
 24
0.5
 15
0.5
 25
0.5
 16
0.0
 26
0.0
 36
1.0
 17
0.0
 27
0.0
 37
0.0
 40
62.26628910684097
 41
1.34
 42
50.0
 43
0.0
 44
0.0
 50
0.0
 51
0.0
 71
0
 72
1000
 73
1
 74
3
 75
0
 76
0
 77
0
 78
0
281
0
 65
1
110
0.0
120
0.0
130
0.0
111
1.0
121
0.0
131
0.0
112
0.0
122
1.0
132
0.0
 79
0
146
0.0
  0
ENDTAB
  0
TABLE
  2
LTYPE
  5
2
330
0
100
AcDbSymbolTable
 70
3
  0
LTYPE
  5
24
330
2
100
AcDbSymbolTableRecord
100
AcDbLinetypeTableRecord
  2
ByBlock
 70
0
  3

 72
65
 73
0
 40
0.0
  0
LTYPE
  5
25
330
2
100
AcDbSymbolTableRecord
100
AcDbLinetypeTableRecord
  2
ByLayer
 70
0
  3

 72
65
 73
0
 40
0.0
  0
LTYPE
  5
26
330
2
100
AcDbSymbolTableRecord
100
AcDbLinetypeTableRecord
  2
Continuous
 70
0
  3

 72
65
 73
0
 40
0.0
  0
ENDTAB
  0
TABLE
  2
LAYER
  5
1
330
0
100
AcDbSymbolTable
 70
3
  0
LAYER
  5
27
330
1
100
AcDbSymbolTableRecord
100
AcDbLayerTableRecord
  2
0
 70
0
 62
7
  6
Continuous
370
-3
390
13
347
21
  0
LAYER
  5
28
330
1
100
AcDbSymbolTableRecord
100
AcDbLayerTableRecord
  2
Defpoints
 70
0
 62
7
  6
Continuous
290
0
370
-3
390
13
347
21
  0
LAYER
  5
2F
330
1
100
AcDbSymbolTableRecord
100
AcDbLayerTableRecord
  2
visible
 70
0
 62
7
  6
Continuous
370
-3
390
13
347
21
  0
ENDTAB
  0
TABLE
  2
STYLE
  5
5
330
0
100
AcDbSymbolTable
 70
1
  0
STYLE
  5
29
330
5
100
AcDbSymbolTableRecord
100
AcDbTextStyleTableRecord
  2
Standard
 70
0
 40
0.0
 41
1.0
 50
0.0
 71
0
 42
2.5
  3
txt
  4

  0
ENDTAB
  0
TABLE
  2
VIEW
  5
7
330
0
100
AcDbSymbolTable
 70
0
  0
ENDTAB
  0
TABLE
  2
UCS
  5
6
330
0
100
AcDbSymbolTable
 70
0
  0
ENDTAB
  0
TABLE
  2
APPID
  5
3
330
0
100
AcDbSymbolTable
 70
3
  0
APPID
  5
2A
330
3
100
AcDbSymbolTableRecord
100
AcDbRegAppTableRecord
  2
ACAD
 70
0
  0
APPID
  5
172
330
3
100
AcDbSymbolTableRecord
100
AcDbRegAppTableRecord
  2
HATCHBACKGROUNDCOLOR
 70
0
  0
APPID
  5
173
330
3
100
AcDbSymbolTableRecord
100
AcDbRegAppTableRecord
  2
EZDXF
 70
0
  0
ENDTAB
  0
TABLE
  2
DIMSTYLE
  5
4
330
0
100
AcDbSymbolTable
 70
1
100
AcDbDimStyleTable
  0
DIMSTYLE
105
2B
330
4
100
AcDbSymbolTableRecord
100
AcDbDimStyleTableRecord
  2
Standard
 70
0
 40
1.0
 41
2.5
 42
0.625
 43
3.75
 44
1.25
 45
0.0
 46
0.0
 47
0.0
 48
0.0
 49
2.5
140
2.5
141
2.5
142
0.0
143
0.03937007874
144
1.0
145
0.0
146
1.0
147
0.625
148
0.0
 69
0
 70
0
 71
0
 72
0
 73
0
 74
0
 75
0
 76
0
 77
1
 78
8
 79
3
170
0
171
3
172
1
173
0
174
0
175
0
176
0
177
0
178
0
179
2
271
2
272
2
273
2
274
3
275
0
276
0
277
2
278
44
279
0
280
0
281
0
282
0
283
0
284
8
285
0
286
0
288
0
289
3
290
0
371
-2
372
-2
  0
ENDTAB
  0
TABLE
  2
BLOCK_RECORD
  5
9
330
0
100
AcDbSymbolTable
 70
2
  0
BLOCK_RECORD
  5
17
330
9
100
AcDbSymbolTableRecord
100
AcDbBlockTableRecord
  2
*Model_Space
340
1A
 70
0
280
1
281
0
  0
BLOCK_RECORD
  5
1B
330
9
100
AcDbSymbolTableRecord
100
AcDbBlockTableRecord
  2
*Paper_Space
340
1E
 70
0
280
1
281
0
  0
ENDTAB
  0
ENDSEC
  0
SECTION
  2
BLOCKS
  0
BLOCK
  5
18
330
17
100
AcDbEntity
  8
0
100
AcDbBlockBegin
  2
*Model_Space
 70
0
 10
0.0
 20
0.0
 30
0.0
  3
*Model_Space
  1

  0
ENDBLK
  5
19
330
17
100
AcDbEntity
  8
0
100
AcDbBlockEnd
  0
BLOCK
  5
1C
330
1B
100
AcDbEntity
  8
0
100
AcDbBlockBegin
  2
*Paper_Space
 70
0
 10
0.0
 20
0.0
 30
0.0
  3
*Paper_Space
  1

  0
ENDBLK
  5
1D
330
1B
100
AcDbEntity
  8
0
100
AcDbBlockEnd
  0
ENDSEC
  0
SECTION
  2
ENTITIES
  0
LINE
  5
30
330
17
100
AcDbEntity
  8
visible
100
AcDbLine
 10
19.400658164626336
 20
-25.24775031504469
 30
0.0
 11
13.140615427250689
 21
-23.867716294941896
 31
0.0
  0
LINE
  5
31
330
17
100
AcDbEntity
  8
visible
100
AcDbLine
 10
-21.824595799380695
 20
20.81009077648132
 30
0.0
 11
-21.824595799380695
 21
16.232932062034063
 31
0.0
  0
LINE
  5
32
330
17
100
AcDbEntity
  8
visible
100
AcDbLine
 10
-24.303041493370067
 20
22.113150501253788
 30
0.0
 11
-21.824595799380695
 21
20.810090776481296
 31
0.0
  0
LINE
  5
33
330
17
100
AcDbEntity
  8
visible
100
AcDbLine
 10
-26.78148718735944
 20
18.839051511579033
 30
0.0
 11
-24.303041493370067
 21
22.1131505012538
 31
0.0
  0
LINE
  5
34
330
17
100
AcDbEntity
  8
visible
100
AcDbLine
 10
-26.781487187359442
 20
14.261892797131765
 30
0.0
 11
-26.78148718735944
 21
18.839051511579022
 31
0.0
  0
LINE
  5
35
330
17
100
AcDbEntity
  8
visible
100
AcDbLine
 10
-24.303041493370067
 20
12.958833072359297
 30
0.0
 11
-26.78148718735944
 21
14.261892797131786
 31
0.0
  0
LINE
  5
36
330
17
100
AcDbEntity
  8
visible
100
AcDbLine
 10
-21.824595799380695
 20
16.232932062034052
 30
0.0
 11
-24.303041493370067
 21
12.958833072359287
 31
0.0
  0
ELLIPSE
  5
37
330
17
100
AcDbEntity
  8
visible
100
AcDbEllipse
 10
21.184619048724368
 20
-12.831862872201398
 30
0.0
 11
4.803452189837272
 21
-12.080018504122728
 31
0.0
 40
0.7661194828751398
 41
-5.997255665411743
 42
-5.191141516479515
  0
LINE
  5
38
330
17
100
AcDbEntity
  8
visible
100
AcDbLine
 10
31.212370146914772
 20
-15.042492773815678
 30
0.0
 11
31.61166655413067
 21
-15.130518151465697
 31
0.0
  0
LINE
  5
39
330
17
100
AcDbEntity
  8
visible
100
AcDbLine
 10
32.49395518920351
 20
9.986858966634934
 30
0.0
 11
32.49395518920351
 21
5.211032793304035
 31
0.0
  0
ELLIPSE
  5
3A
330
17
100
AcDbEntity
  8
visible
100
AcDbEllipse
 10
12.82359743044697
 20
-16.15650741541006
 30
0.0
 11
2.955970578361398
 21
-7.433857540998602
 31
0.0
 40
0.7661194828751398
 41
-6.283185307179586
 42
-5.191141516479515
  0
ELLIPSE
  5
3B
330
17
100
AcDbEntity
  8
visible
100
AcDbEllipse
 10
12.82359743044697
 20
-16.15650741541006
 30
0.0
 11
2.955970578361398
 21
-7.433857540998602
 31
0.0
 40
0.7661194828751398
 41
-0.4267154796548249
 42
-0.0
  0
ELLIPSE
  5
3C
330
17
100
AcDbEntity
  8
visible
100
AcDbEllipse
 10
19.400658164626332
 20
-26.011882502777624
 30
0.0
 11
-0.2955970578361396
 21
0.7433857540998603
 31
0.0
 40
0.76611948287514
 41
4.233636444289864
 42
5.804432771084761
  0
LINE
  5
3D
330
17
100
AcDbEntity
  8
visible
100
AcDbLine
 10
20.042322626497487
 20
-26.708128287035827
 30
0.0
 11
20.042322626497487
 21
-26.153338212270818
 31
0.0
  0
ELLIPSE
  5
3E
330
17
100
AcDbEntity
  8
visible
100
AcDbEllipse
 10
12.82359743044697
 20
-16.15650741541006
 30
0.0
 11
4.803452189837272
 21
-12.080018504122728
 31
0.0
 40
0.7661194828751398
 41
-5.997255665411743
 42
-5.191141516479515
  0
LINE
  5
3F
330
17
100
AcDbEntity
  8
visible
100
AcDbLine
 10
22.448564358514325
 20
-18.278343057807877
 30
0.0
 11
23.250644935853273
 21
-18.45516269467436
 31
0.0
  0
LINE
  5
40
330
17
100
AcDbEntity
  8
visible
100
AcDbLine
 10
22.44856435851433
 20
-18.27834305780788
 30
0.0
 11
22.44856435851433
 21
2.257709487514987
 31
0.0
  0
LINE
  5
41
330
17
100
AcDbEntity
  8
visible
100
AcDbLine
 10
24.132933570926117
 20
1.8863882500953653
 30
0.0
 11
22.448564358514325
 21
2.2577094875149832
 31
0.0
  0
LINE
  5
42
330
17
100
AcDbEntity
  8
visible
100
AcDbLine
 10
24.132933570926113
 20
6.662214423426271
 30
0.0
 11
24.132933570926113
 21
1.8863882500953721
 31
0.0
  0
LINE
  5
43
330
17
100
AcDbEntity
  8
visible
100
AcDbLine
 10
24.132933570926117
 20
6.6622144234262635
 30
0.0
 11
20.042322626497487
 21
7.563994571445336
 31
0.0
  0
LINE
  5
44
330
17
100
AcDbEntity
  8
visible
100
AcDbLine
 10
20.042322626497487
 20
7.563994571445335
 30
0.0
 11
20.042322626497487
 21
-17.747884147208435
 31
0.0
  0
LINE
  5
45
330
17
100
AcDbEntity
  8
visible
100
AcDbLine
 10
19.24024204915854
 20
-17.571064510341937
 30
0.0
 11
20.042322626497487
 21
-17.747884147208424
 31
0.0
  0
ELLIPSE
  5
46
330
17
100
AcDbEntity
  8
visible
100
AcDbEllipse
 10
-28.313444380064798
 20
18.42008997113895
 30
0.0
 11
-0.570497444151759
 21
-2.5878625671036537
 31
0.0
 40
0.5704397982907812
 41
1.6858603851165996
 42
1.8819237283892438
  0
LINE
  5
47
330
17
100
AcDbEntity
  8
visible
100
AcDbLine
 10
20.042322626497487
 20
-26.70812828703582
 30
0.0
 11
28.403344244774885
 21
-23.383483743827153
 31
0.0
  0
LINE
  5
48
330
17
100
AcDbEntity
  8
visible
100
AcDbLine
 10
-24.712085877800902
 20
16.869482754753392
 30
0.0
 11
-24.712085877800902
 21
21.44664146920065
 31
0.0
  0
LINE
  5
49
330
17
100
AcDbEntity
  8
visible
100
AcDbLine
 10
-24.712085877800902
 20
21.446641469200642
 30
0.0
 11
-21.824595799380695
 21
20.8100907764813
 31
0.0
  0
LINE
  5
4A
330
17
100
AcDbEntity
  8
visible
100
AcDbLine
 10
-24.712085877800902
 20
16.869482754753392
 30
0.0
 11
-21.824595799380695
 21
16.23293206203405
 31
0.0
  0
LINE
  5
4B
330
17
100
AcDbEntity
  8
visible
100
AcDbLine
 10
-24.712085877800902
 20
21.446641469200642
 30
0.0
 11
-24.7803934577223
 21
21.482554645151243
 31
0.0
  0
LINE
  5
4C
330
17
100
AcDbEntity
  8
visible
100
AcDbLine
 10
-26.713179607438036
 20
14.225979621181182
 30
0.0
 11
-24.712085877800902
 21
16.869482754753392
 31
0.0
  0
LINE
  5
4D
330
17
100
AcDbEntity
  8
visible
100
AcDbLine
 10
19.240242049158542
 20
-17.571064510341937
 30
0.0
 11
19.639538456374446
 21
-17.412289819642513
 31
0.0
  0
LINE
  5
4E
330
17
100
AcDbEntity
  8
visible
100
AcDbLine
 10
23.250644935853273
 20
-18.455162694674357
 30
0.0
 11
23.847860765730232
 21
-18.217688084445168
 31
0.0
  0
LINE
  5
4F
330
17
100
AcDbEntity
  8
visible
100
AcDbLine
 10
31.014450724253713
 20
-15.367992761694893
 30
0.0
 11
23.84786076573023
 21
-18.217688084445175
 31
0.0
  0
LINE
  5
50
330
17
100
AcDbEntity
  8
visible
100
AcDbLine
 10
31.014450724253717
 20
-15.36799276169488
 30
0.0
 11
31.61166655413067
 21
-15.13051815146569
 31
0.0
  0
ELLIPSE
  5
51
330
17
100
AcDbEntity
  8
visible
100
AcDbEllipse
 10
30.212370146914772
 20
-15.19117312482841
 30
0.0
 11
-1.0
 21
2.905840226202243e-17
 31
0.0
 40
0.2960732586457299
 41
-3.781618072883316
 42
-3.141592653589793
  0
ELLIPSE
  5
52
330
17
100
AcDbEntity
  8
visible
100
AcDbEllipse
 10
32.19534727426504
 20
5.092295488189436
 30
0.0
 11
-0.10764102719844519
 21
-0.48827595605729307
 31
0.0
 40
0.5704397982907813
 41
0.36877829721982813
 42
1.9395746240147247
  0
LINE
  5
53
330
17
100
AcDbEntity
  8
visible
100
AcDbLine
 10
31.41666886135872
 20
4.3050821756403375
 30
0.0
 11
32.19534727426504
 21
4.614712870856354
 31
0.0
  0
ELLIPSE
  5
54
330
17
100
AcDbEntity
  8
visible
100
AcDbEllipse
 10
28.313444380064816
 20
5.936623608365139
 30
0.0
 11
-1.2916923263813411
 21
-5.8593114726875175
 31
0.0
 40
0.5704397982907812
 41
1.0332796557226889
 42
1.4159758484164264
  0
LINE
  5
55
330
17
100
AcDbEntity
  8
visible
100
AcDbLine
 10
30.523142950609557
 20
11.326855815990235
 30
0.0
 11
30.523142950609557
 21
2.3037035164360624
 31
0.0
  0
ELLIPSE
  5
56
330
17
100
AcDbEntity
  8
visible
100
AcDbEllipse
 10
28.313444380064816
 20
5.936623608365139
 30
0.0
 11
-1.2916923263813411
 21
-5.8593114726875175
 31
0.0
 40
0.5704397982907812
 41
2.463173399613024
 42
2.84586959230676
  0
LINE
  5
57
330
17
100
AcDbEntity
  8
visible
100
AcDbLine
 10
31.41666886135872
 20
10.036073583637418
 30
0.0
 11
32.19534727426504
 21
10.345704278853436
 31
0.0
  0
ELLIPSE
  5
58
330
17
100
AcDbEntity
  8
visible
100
AcDbEllipse
 10
32.19534727426504
 20
9.868121661520334
 30
0.0
 11
-0.10764102719844519
 21
-0.48827595605729307
 31
0.0
 40
0.5704397982907813
 41
1.9395746240147251
 42
3.141592653589793
  0
ELLIPSE
  5
59
330
17
100
AcDbEntity
  8
visible
100
AcDbEllipse
 10
32.19534727426504
 20
9.868121661520334
 30
0.0
 11
-0.10764102719844519
 21
-0.48827595605729307
 31
0.0
 40
0.5704397982907813
 41
3.141592653589793
 42
3.5103709508096217
  0
ELLIPSE
  5
5A
330
17
100
AcDbEntity
  8
visible
100
AcDbEllipse
 10
23.045780188391284
 20
-18.04086844757869
 30
0.0
 11
-1.0
 21
-0.0
 31
0.0
 40
0.2960732586457299
 41
-5.352414399678213
 42
-3.781618072883316
  0
SPLINE
  5
5B
330
17
100
AcDbEntity
  8
visible
100
AcDbSpline
 70
0
 71
3
 72
8
 73
4
 74
0
 40
0.0
 40
0.0
 40
0.0
 40
0.0
 40
1.0
 40
1.0
 40
1.0
 40
1.0
 10
23.227449291192706
 20
1.7585635927079872
 30
0.0
 10
22.94136052708131
 20
1.82370554398769
 30
0.0
 10
22.659480089458544
 20
2.0341232002931604
 30
0.0
 10
22.44856435851433
 20
2.257709487514987
 30
0.0
  0
ELLIPSE
  5
5C
330
17
100
AcDbEntity
  8
visible
100
AcDbEllipse
 10
24.431541485864596
 20
2.0051255552099576
 30
0.0
 11
0.10764102719844519
 21
0.48827595605729307
 31
0.0
 40
0.5704397982907813
 41
-3.1415926535897927
 42
-2.7728143563699645
  0
ELLIPSE
  5
5D
330
17
100
AcDbEntity
  8
visible
100
AcDbEllipse
 10
24.431541485864596
 20
2.0051255552099576
 30
0.0
 11
0.10764102719844519
 21
0.48827595605729307
 31
0.0
 40
0.5704397982907813
 41
-4.3436106831648615
 42
-3.1415926535897927
  0
ELLIPSE
  5
5E
330
17
100
AcDbEntity
  8
visible
100
AcDbEllipse
 10
24.431541485864596
 20
6.780951728540856
 30
0.0
 11
0.10764102719844519
 21
0.48827595605729307
 31
0.0
 40
0.5704397982907813
 41
-5.914407009959758
 42
-4.3436106831648615
  0
LINE
  5
5F
330
17
100
AcDbEntity
  8
visible
100
AcDbLine
 10
24.431541485864596
 20
7.2585343458739615
 30
0.0
 11
25.210219898770916
 21
7.568165041089978
 31
0.0
  0
ELLIPSE
  5
60
330
17
100
AcDbEntity
  8
visible
100
AcDbEllipse
 10
28.313444380064816
 20
5.936623608365139
 30
0.0
 11
-1.2916923263813411
 21
-5.8593114726875175
 31
0.0
 40
0.5704397982907812
 41
4.174872309312483
 42
4.557568502006219
  0
LINE
  5
61
330
17
100
AcDbEntity
  8
visible
100
AcDbLine
 10
26.103745809520074
 20
9.569543700294226
 30
0.0
 11
26.103745809520074
 21
0.5463914007400525
 31
0.0
  0
ELLIPSE
  5
62
330
17
100
AcDbEntity
  8
visible
100
AcDbEllipse
 10
28.313444380064816
 20
5.936623608365139
 30
0.0
 11
-1.2916923263813411
 21
-5.8593114726875175
 31
0.0
 40
0.5704397982907812
 41
5.604766053202816
 42
5.987462245896554
  0
LINE
  5
63
330
17
100
AcDbEntity
  8
visible
100
AcDbLine
 10
24.431541485864596
 20
1.5275429378768806
 30
0.0
 11
25.210219898770916
 21
1.8371736330928974
 31
0.0
  0
ELLIPSE
  5
64
330
17
100
AcDbEntity
  8
visible
100
AcDbEllipse
 10
20.639538456374446
 20
-17.51040953697924
 30
0.0
 11
-1.0
 21
-2.905840226202243e-17
 31
0.0
 40
0.29607325864573
 41
-6.283185307179586
 42
-5.352414399678213
  0
ELLIPSE
  5
65
330
17
100
AcDbEntity
  8
visible
100
AcDbEllipse
 10
20.639538456374446
 20
7.80146918167452
 30
0.0
 11
-1.0
 21
2.905840226202243e-17
 31
0.0
 40
0.2960732586457299
 41
-6.283185307179586
 42
-5.352414399678213
  0
ELLIPSE
  5
66
330
17
100
AcDbEntity
  8
visible
100
AcDbEllipse
 10
-27.190531571790274
 20
18.172542479525873
 30
0.0
 11
-0.570497444151759
 21
-2.5878625671036537
 31
0.0
 40
0.5704397982907812
 41
0.6302059373725354
 42
2.506347832914618
  0
ELLIPSE
  5
67
330
17
100
AcDbEntity
  8
visible
100
AcDbEllipse
 10
27.431155744991973
 20
6.131125208918277
 30
0.0
 11
1.2916923263813425
 21
5.859311472687517
 31
0.0
 40
0.5704397982907813
 41
-3.706152390438513
 42
-3.4955486041833805
  0
LINE
  5
68
330
17
100
AcDbEntity
  8
visible
100
AcDbLine
 10
25.061028897663743
 20
0.8904335108828301
 30
0.0
 11
24.764840803020203
 21
0.7726584138220363
 31
0.0
  0
SPLINE
  5
69
330
17
100
AcDbEntity
  8
visible
100
AcDbSpline
 70
0
 71
3
 72
11
 73
7
 74
0
 40
0.0
 40
0.0
 40
0.0
 40
0.0
 40
0.5875698726832677
 40
0.5875698726832677
 40
0.5875698726832677
 40
1.0
 40
1.0
 40
1.0
 40
1.0
 10
24.479942146108446
 20
0.2773063115808583
 30
0.0
 10
24.479244780405544
 20
0.40424438154830733
 30
0.0
 10
24.524979089475927
 20
0.5466015539556902
 30
0.0
 10
24.597150684820438
 20
0.6414599843735016
 30
0.0
 10
24.650264403925615
 20
0.7084541145049053
 30
0.0
 10
24.70616110999221
 20
0.7521869243210814
 30
0.0
 10
24.764840803020203
 20
0.7726584138220288
 30
0.0
  0
LINE
  5
6A
330
17
100
AcDbEntity
  8
visible
100
AcDbLine
 10
24.479942146108446
 20
-5.6447181433494436
 30
0.0
 11
24.479942146108446
 21
0.27730631158086183
 31
0.0
  0
SPLINE
  5
6B
330
17
100
AcDbEntity
  8
visible
100
AcDbSpline
 70
0
 71
3
 72
8
 73
4
 74
0
 40
0.0
 40
0.0
 40
0.0
 40
0.0
 40
0.7732080598423473
 40
0.7732080598423473
 40
0.7732080598423473
 40
0.7732080598423473
 10
24.479942146108446
 20
-5.644718143349451
 30
0.0
 10
24.47786354648595
 20
-5.814725074453905
 30
0.0
 10
24.561141924035255
 20
-5.937993234432419
 30
0.0
 10
24.670319095605656
 20
-5.933945195878153
 30
0.0
  0
LINE
  5
6C
330
17
100
AcDbEntity
  8
visible
100
AcDbLine
 10
25.22145717444723
 20
-6.400546711857121
 30
0.0
 11
25.22145717444723
 21
-5.829903458392936
 31
0.0
  0
LINE
  5
6D
330
17
100
AcDbEntity
  8
visible
100
AcDbLine
 10
29.640854315536714
 20
-4.643234596161113
 30
0.0
 11
25.22145717444723
 21
-6.40054671185712
 31
0.0
  0
LINE
  5
6E
330
17
100
AcDbEntity
  8
visible
100
AcDbLine
 10
29.640854315536714
 20
-4.643234596161111
 30
0.0
 11
29.640854315536714
 21
-3.974618931894782
 31
0.0
  0
LINE
  5
6F
330
17
100
AcDbEntity
  8
visible
100
AcDbLine
 10
30.00891149294461
 20
2.417066465469573
 30
0.0
 11
30.523142950609554
 21
2.3037035164360686
 31
0.0
  0
LINE
  5
70
330
17
100
AcDbEntity
  8
visible
100
AcDbLine
 10
29.23981402686724
 20
-4.554824777727873
 30
0.0
 11
29.640854315536714
 21
-4.643234596161116
 31
0.0
  0
LINE
  5
71
330
17
100
AcDbEntity
  8
visible
100
AcDbLine
 10
29.72106237327061
 20
-3.9923008955814323
 30
0.0
 11
29.64085431553671
 21
-3.9746189318947835
 31
0.0
  0
ELLIPSE
  5
72
330
17
100
AcDbEntity
  8
visible
100
AcDbEllipse
 10
29.72106237327061
 20
-3.6102348017149666
 30
0.0
 11
-0.1477985289180698
 21
0.37169287704993015
 31
0.0
 40
0.76611948287514
 41
2.662840117494967
 42
3.1415926535897927
  0
ELLIPSE
  5
73
330
17
100
AcDbEntity
  8
visible
100
AcDbEllipse
 10
29.72106237327061
 20
-3.6102348017149666
 30
0.0
 11
-0.1477985289180698
 21
0.37169287704993015
 31
0.0
 40
0.76611948287514
 41
3.1415926535897927
 42
4.233636444289864
  0
LINE
  5
74
330
17
100
AcDbEntity
  8
visible
100
AcDbLine
 10
30.04189460420619
 20
-3.680962656461564
 30
0.0
 11
30.04189460420619
 21
2.241061798468893
 31
0.0
  0
ELLIPSE
  5
75
330
17
100
AcDbEntity
  8
visible
100
AcDbEllipse
 10
29.72106237327061
 20
2.3117896532153424
 30
0.0
 11
-0.1477985289180698
 21
0.37169287704993015
 31
0.0
 40
0.76611948287514
 41
4.233636444289864
 42
4.691055892010068
  0
LINE
  5
76
330
17
100
AcDbEntity
  8
visible
100
AcDbLine
 10
30.00891149294461
 20
11.440218765023742
 30
0.0
 11
30.523142950609554
 21
11.326855815990239
 31
0.0
  0
ELLIPSE
  5
77
330
17
100
AcDbEntity
  8
visible
100
AcDbEllipse
 10
29.72106237327061
 20
11.672408952943911
 30
0.0
 11
-0.1477985289180698
 21
0.37169287704993015
 31
0.0
 40
0.76611948287514
 41
3.776216996569692
 42
4.233636444289864
  0
LINE
  5
78
330
17
100
AcDbEntity
  8
visible
100
AcDbLine
 10
30.04189460420619
 20
11.601681098197323
 30
0.0
 11
30.04189460420619
 21
17.523705553127638
 31
0.0
  0
ELLIPSE
  5
79
330
17
100
AcDbEntity
  8
visible
100
AcDbEllipse
 10
29.72106237327061
 20
17.59443340787422
 30
0.0
 11
-0.1477985289180698
 21
0.37169287704993015
 31
0.0
 40
0.76611948287514
 41
4.233636444289864
 42
5.804432771084761
  0
LINE
  5
7A
330
17
100
AcDbEntity
  8
visible
100
AcDbLine
 10
29.72106237327061
 20
17.976499501740708
 30
0.0
 11
29.23981402686724
 21
18.082591283860598
 31
0.0
  0
LINE
  5
7B
330
17
100
AcDbEntity
  8
visible
100
AcDbLine
 10
29.23981402686724
 20
-4.554824777727873
 30
0.0
 11
29.23981402686724
 21
18.082591283860594
 31
0.0
  0
LINE
  5
7C
330
17
100
AcDbEntity
  8
visible
100
AcDbLine
 10
22.322729820350702
 20
8.204715733809323
 30
0.0
 11
25.21021989877091
 21
7.568165041089979
 31
0.0
  0
ELLIPSE
  5
7D
330
17
100
AcDbEntity
  8
visible
100
AcDbEllipse
 10
25.425954301644605
 20
6.573174301084492
 30
0.0
 11
-1.2916923263813411
 21
-5.8593114726875175
 31
0.0
 40
0.5704397982907812
 41
4.280343516375557
 42
4.557568502006219
  0
SPLINE
  5
7E
330
17
100
AcDbEntity
  8
visible
100
AcDbSpline
 70
0
 71
3
 72
8
 73
4
 74
0
 40
0.0
 40
0.0
 40
0.0
 40
0.0
 40
1.0
 40
1.0
 40
1.0
 40
1.0
 10
25.58951435185512
 20
9.682906649442515
 30
0.0
 10
25.505662235727282
 20
9.597781506042988
 30
0.0
 10
25.410736510475388
 20
9.527810396966505
 30
0.0
 10
25.31984189069071
 20
9.491861617882558
 30
0.0
  0
LINE
  5
7F
330
17
100
AcDbEntity
  8
visible
100
AcDbLine
 10
25.58951435185512
 20
9.682906649327734
 30
0.0
 11
26.10374580952007
 21
9.56954370029423
 31
0.0
  0
ELLIPSE
  5
80
330
17
100
AcDbEntity
  8
visible
100
AcDbEllipse
 10
25.301665232181126
 20
-5.367546917410962
 30
0.0
 11
-0.1477985289180698
 21
0.37169287704993015
 31
0.0
 40
0.76611948287514
 41
3.1415926535897927
 42
4.233636444289864
  0
LINE
  5
81
330
17
100
AcDbEntity
  8
visible
100
AcDbLine
 10
25.622497463116705
 20
-5.438274772157559
 30
0.0
 11
25.622497463116705
 21
0.4837496827728973
 31
0.0
  0
ELLIPSE
  5
82
330
17
100
AcDbEntity
  8
visible
100
AcDbEllipse
 10
25.301665232181126
 20
0.5544775375193467
 30
0.0
 11
-0.1477985289180698
 21
0.37169287704993015
 31
0.0
 40
0.76611948287514
 41
4.233636444289864
 42
4.691055892010052
  0
LINE
  5
83
330
17
100
AcDbEntity
  8
visible
100
AcDbLine
 10
25.589514351855136
 20
0.6597543497735605
 30
0.0
 11
26.10374580952007
 21
0.5463914007400588
 31
0.0
  0
ELLIPSE
  5
84
330
17
100
AcDbEntity
  8
visible
100
AcDbEllipse
 10
25.301665232181126
 20
9.915096837247916
 30
0.0
 11
-0.1477985289180698
 21
0.37169287704993015
 31
0.0
 40
0.76611948287514
 41
3.776216996569588
 42
4.233636444289864
  0
LINE
  5
85
330
17
100
AcDbEntity
  8
visible
100
AcDbLine
 10
25.622497463116705
 20
9.844368982501328
 30
0.0
 11
25.622497463116705
 21
15.766393437431642
 31
0.0
  0
ELLIPSE
  5
86
330
17
100
AcDbEntity
  8
visible
100
AcDbEllipse
 10
25.301665232181126
 20
15.837121292178225
 30
0.0
 11
-0.1477985289180698
 21
0.37169287704993015
 31
0.0
 40
0.76611948287514
 41
4.233636444289864
 42
5.804432771084761
  0
LINE
  5
87
330
17
100
AcDbEntity
  8
visible
100
AcDbLine
 10
25.301665232181126
 20
16.2191873860447
 30
0.0
 11
24.820416885777757
 21
16.325279168164588
 31
0.0
  0
SPLINE
  5
88
330
17
100
AcDbEntity
  8
visible
100
AcDbSpline
 70
0
 71
3
 72
8
 73
4
 74
0
 40
0.0
 40
0.0
 40
0.0
 40
0.0
 40
1.0
 40
1.0
 40
1.0
 40
1.0
 10
25.589514351855133
 20
0.6597543496587643
 30
0.0
 10
25.44687434753764
 20
0.7519671434862158
 30
0.0
 10
25.2658822582978
 20
0.8464758044115362
 30
0.0
 10
25.14123695539764
 20
0.8727515471961738
 30
0.0
  0
LINE
  5
89
330
17
100
AcDbEntity
  8
visible
100
AcDbLine
 10
25.061028897663743
 20
0.8904335108828334
 30
0.0
 11
25.141236955397638
 21
0.8727515471961846
 31
0.0
  0
LINE
  5
8A
330
17
100
AcDbEntity
  8
visible
100
AcDbLine
 10
-8.547505352508697
 20
-15.882222665487944
 30
0.0
 11
-8.547505352508697
 21
-14.679849134795859
 31
0.0
  0
ELLIPSE
  5
8B
330
17
100
AcDbEntity
  8
visible
100
AcDbEllipse
 10
-5.820431389556279
 20
-15.281035900141902
 30
0.0
 11
3.4
 21
0.0
 31
0.0
 40
0.2960732586457299
 41
2.50156723429627
 42
3.141592653589793
  0
ELLIPSE
  5
8C
330
17
100
AcDbEntity
  8
visible
100
AcDbEllipse
 10
-5.820431389556279
 20
-15.281035900141902
 30
0.0
 11
3.4
 21
0.0
 31
0.0
 40
0.2960732586457299
 41
3.141592653589793
 42
5.643159887886063
  0
LINE
  5
8D
330
17
100
AcDbEntity
  8
visible
100
AcDbLine
 10
-3.0933574266038617
 20
-15.88222266548794
 30
0.0
 11
6.462095851427451
 21
-12.082628901820897
 31
0.0
  0
ELLIPSE
  5
8E
330
17
100
AcDbEntity
  8
visible
100
AcDbEllipse
 10
3.7350218884750346
 20
-11.481442136474854
 30
0.0
 11
3.4
 21
0.0
 31
0.0
 40
0.2960732586457299
 41
5.643159887886063
 42
6.283185307179586
  0
ELLIPSE
  5
8F
330
17
100
AcDbEntity
  8
visible
100
AcDbEllipse
 10
3.7350218884750346
 20
-11.481442136474854
 30
0.0
 11
3.4
 21
0.0
 31
0.0
 40
0.2960732586457299
 41
0.0
 42
2.50156723429627
  0
LINE
  5
90
330
17
100
AcDbEntity
  8
visible
100
AcDbLine
 10
1.007947925522617
 20
-14.251395347786417
 30
0.0
 11
1.007947925522617
 21
-10.880255371128811
 31
0.0
  0
LINE
  5
91
330
17
100
AcDbEntity
  8
visible
100
AcDbLine
 10
-8.547505352508697
 20
-14.679849134795855
 30
0.0
 11
1.0079479255226165
 21
-10.880255371128811
 31
0.0
  0
ELLIPSE
  5
92
330
17
100
AcDbEntity
  8
visible
100
AcDbEllipse
 10
27.0301154563225
 20
-1.4217868499779058
 30
0.0
 11
-0.23681025983657922
 21
-1.074207103326045
 31
0.0
 40
0.5704397982907812
 41
0.3687782972198283
 42
3.141592653589793
  0
ELLIPSE
  5
93
330
17
100
AcDbEntity
  8
visible
100
AcDbEllipse
 10
27.0301154563225
 20
-1.4217868499779058
 30
0.0
 11
-0.23681025983657922
 21
-1.074207103326045
 31
0.0
 40
0.5704397982907812
 41
3.141592653589793
 42
6.283185307179586
  0
ELLIPSE
  5
94
330
17
100
AcDbEntity
  8
visible
100
AcDbEllipse
 10
27.0301154563225
 20
-1.4217868499779058
 30
0.0
 11
-0.23681025983657922
 21
-1.074207103326045
 31
0.0
 40
0.5704397982907812
 41
0.0
 42
0.36877829721982813
  0
ELLIPSE
  5
95
330
17
100
AcDbEntity
  8
visible
100
AcDbEllipse
 10
27.0301154563225
 20
6.219535027351526
 30
0.0
 11
-0.5382051359922255
 21
-2.4413797802864656
 31
0.0
 40
0.5704397982907812
 41
0.3687782972198283
 42
3.141592653589793
  0
ELLIPSE
  5
96
330
17
100
AcDbEntity
  8
visible
100
AcDbEllipse
 10
27.0301154563225
 20
6.219535027351526
 30
0.0
 11
-0.5382051359922255
 21
-2.4413797802864656
 31
0.0
 40
0.5704397982907812
 41
3.141592653589793
 42
4.179698633190596
  0
ELLIPSE
  5
97
330
17
100
AcDbEntity
  8
visible
100
AcDbEllipse
 10
27.0301154563225
 20
6.219535027351526
 30
0.0
 11
-0.5382051359922255
 21
-2.4413797802864656
 31
0.0
 40
0.5704397982907812
 41
5.9826359220184395
 42
6.283185307179586
  0
ELLIPSE
  5
98
330
17
100
AcDbEntity
  8
visible
100
AcDbEllipse
 10
27.0301154563225
 20
6.219535027351526
 30
0.0
 11
-0.5382051359922255
 21
-2.4413797802864656
 31
0.0
 40
0.5704397982907812
 41
0.0
 42
0.36877829721982813
  0
LINE
  5
99
330
17
100
AcDbEntity
  8
visible
100
AcDbLine
 10
25.22145717444723
 20
-6.152668772396992
 30
0.0
 11
29.23981402686724
 21
-4.554824777727861
 31
0.0
  0
LINE
  5
9A
330
17
100
AcDbEntity
  8
visible
100
AcDbLine
 10
24.820416885777757
 20
16.32527916816459
 30
0.0
 11
29.239814026867244
 21
18.082591283860598
 31
0.0
  0
ELLIPSE
  5
9B
330
17
100
AcDbEntity
  8
visible
100
AcDbEllipse
 10
27.0301154563225
 20
13.860856904680972
 30
0.0
 11
-0.23681025983657922
 21
-1.074207103326045
 31
0.0
 40
0.5704397982907812
 41
0.3687782972198283
 42
3.141592653589793
  0
ELLIPSE
  5
9C
330
17
100
AcDbEntity
  8
visible
100
AcDbEllipse
 10
27.0301154563225
 20
13.860856904680972
 30
0.0
 11
-0.23681025983657922
 21
-1.074207103326045
 31
0.0
 40
0.5704397982907812
 41
3.141592653589793
 42
6.283185307179586
  0
ELLIPSE
  5
9D
330
17
100
AcDbEntity
  8
visible
100
AcDbEllipse
 10
27.0301154563225
 20
13.860856904680972
 30
0.0
 11
-0.23681025983657922
 21
-1.074207103326045
 31
0.0
 40
0.5704397982907812
 41
0.0
 42
0.36877829721982813
  0
ELLIPSE
  5
9E
330
17
100
AcDbEntity
  8
visible
100
AcDbEllipse
 10
-39.728220696439955
 20
-23.422476697615963
 30
0.0
 11
-3.0
 21
-0.0
 31
0.0
 40
0.2960732586457299
 41
-6.283185307179586
 42
-5.352414399678213
  0
ELLIPSE
  5
9F
330
17
100
AcDbEntity
  8
visible
100
AcDbEllipse
 10
-39.728220696439955
 20
-20.174914899750945
 30
0.0
 11
-3.0
 21
-0.0
 31
0.0
 40
0.2960732586457299
 41
-6.283185307179586
 42
-5.352414399678213
  0
LINE
  5
A0
330
17
100
AcDbEntity
  8
visible
100
AcDbLine
 10
-41.51986818607082
 20
-24.13490052830353
 30
0.0
 11
-41.51986818607082
 21
-20.887338730438515
 31
0.0
  0
LINE
  5
A1
330
17
100
AcDbEntity
  8
visible
100
AcDbLine
 10
-41.49279796658564
 20
-19.021779510911742
 30
0.0
 11
-34.919224995313414
 21
-16.407889186725875
 31
0.0
  0
ELLIPSE
  5
A2
330
17
100
AcDbEntity
  8
visible
100
AcDbEllipse
 10
-41.49279796658564
 20
-19.785911698644682
 30
0.0
 11
0.2955970578361396
 21
-0.7433857540998603
 31
0.0
 40
0.76611948287514
 41
-3.620345189684619
 42
-3.141592653589793
  0
LINE
  5
A3
330
17
100
AcDbEntity
  8
visible
100
AcDbLine
 10
-29.92729734171887
 20
-13.516345447858644
 30
0.0
 11
-29.92729734171887
 21
23.06913455115837
 31
0.0
  0
LINE
  5
A4
330
17
100
AcDbEntity
  8
visible
100
AcDbLine
 10
-29.92729734171887
 20
23.069134551158385
 30
0.0
 11
-31.050210149993394
 21
23.316682042771465
 31
0.0
  0
LINE
  5
A5
330
17
100
AcDbEntity
  8
visible
100
AcDbLine
 10
-31.050210149993397
 20
-13.962856186733898
 30
0.0
 11
-31.050210149993397
 21
23.31668204277146
 31
0.0
  0
ELLIPSE
  5
A6
330
17
100
AcDbEntity
  8
visible
100
AcDbEllipse
 10
-41.04209552216926
 20
-23.94492084012019
 30
0.0
 11
-0.17222564351751232
 21
-0.7812415296916689
 31
0.0
 40
0.5704397982907813
 41
5.081167277604518
 42
6.283185307179586
  0
ELLIPSE
  5
A7
330
17
100
AcDbEntity
  8
visible
100
AcDbEllipse
 10
-41.04209552216926
 20
-20.697359042255172
 30
0.0
 11
0.17222564351751232
 21
0.7812415296916689
 31
0.0
 40
0.5704397982907813
 41
-5.914407009959758
 42
-4.3436106831648615
  0
ELLIPSE
  5
A8
330
17
100
AcDbEntity
  8
visible
100
AcDbEllipse
 10
-39.728220696439955
 20
-19.410782712018005
 30
0.0
 11
-2.2
 21
-0.0
 31
0.0
 40
0.2960732586457299
 41
-6.923210726473109
 42
-5.352414399678213
  0
LINE
  5
A9
330
17
100
AcDbEntity
  8
visible
100
AcDbLine
 10
4.198724722249114
 20
-34.21361982969316
 30
0.0
 11
-41.51986818607082
 21
-24.13490052830354
 31
0.0
  0
LINE
  5
AA
330
17
100
AcDbEntity
  8
visible
100
AcDbLine
 10
4.198724722249114
 20
-30.96605803182814
 30
0.0
 11
-41.51986818607082
 21
-20.887338730438522
 31
0.0
  0
LINE
  5
AB
330
17
100
AcDbEntity
  8
visible
100
AcDbLine
 10
4.198724722249114
 20
-34.21361982969315
 30
0.0
 11
4.198724722249114
 21
-30.96605803182814
 31
0.0
  0
LINE
  5
AC
330
17
100
AcDbEntity
  8
visible
100
AcDbLine
 10
-27.408563808730243
 20
-12.514805913749345
 30
0.0
 11
-27.408563808730243
 21
23.178313503211243
 31
0.0
  0
ELLIPSE
  5
AD
330
17
100
AcDbEntity
  8
visible
100
AcDbEllipse
 10
-28.852308847940346
 20
23.496588849570912
 30
0.0
 11
-1.8
 21
-0.0
 31
0.0
 40
0.2960732586457299
 41
-5.352414399678213
 42
-3.781618072883316
  0
LINE
  5
AE
330
17
100
AcDbEntity
  8
visible
100
AcDbLine
 10
32.83381549423217
 20
-15.031109288966821
 30
0.0
 11
38.95668602108802
 21
-16.380903528756328
 31
0.0
  0
ELLIPSE
  5
AF
330
17
100
AcDbEntity
  8
visible
100
AcDbEllipse
 10
37.64281119535871
 20
-16.903347671260548
 30
0.0
 11
-2.2
 21
-0.0
 31
0.0
 40
0.2960732586457299
 41
-3.7816180728833166
 42
-2.21082174608842
  0
LINE
  5
B0
330
17
100
AcDbEntity
  8
visible
100
AcDbLine
 10
39.4073884655044
 20
-17.29235087236681
 30
0.0
 11
30.27143029482542
 21
-20.925138211743203
 31
0.0
  0
LINE
  5
B1
330
17
100
AcDbEntity
  8
visible
100
AcDbLine
 10
19.400658164626336
 20
-25.247750315044684
 30
0.0
 11
7.754949482025673
 21
-29.878505214513893
 31
0.0
  0
ELLIPSE
  5
B2
330
17
100
AcDbEntity
  8
visible
100
AcDbEllipse
 10
5.990372211879986
 20
-29.48950201340763
 30
0.0
 11
-2.2
 21
-0.0
 31
0.0
 40
0.2960732586457299
 41
-5.352414399678213
 42
-3.781618072883316
  0
LINE
  5
B3
330
17
100
AcDbEntity
  8
visible
100
AcDbLine
 10
4.676497386150679
 20
-30.011946155911843
 30
0.0
 11
-41.04209552216926
 21
-19.933226854522225
 31
0.0
  0
ELLIPSE
  5
B4
330
17
100
AcDbEntity
  8
visible
100
AcDbEllipse
 10
-29.449524677817305
 20
23.259114239341727
 30
0.0
 11
0.17222564351751232
 21
0.7812415296916689
 31
0.0
 40
0.5704397982907813
 41
-5.914407009959758
 42
-4.3436106831648615
  0
LINE
  5
B5
330
17
100
AcDbEntity
  8
visible
100
AcDbLine
 10
-29.449524677817305
 20
24.023246427074668
 30
0.0
 11
-30.57243748609183
 21
24.270793918687747
 31
0.0
  0
ELLIPSE
  5
B6
330
17
100
AcDbEntity
  8
visible
100
AcDbEllipse
 10
-30.572437486091832
 20
23.506661730954804
 30
0.0
 11
0.17222564351751232
 21
0.7812415296916689
 31
0.0
 40
0.5704397982907813
 41
-5.914407009959758
 42
-4.3436106831648615
  0
ELLIPSE
  5
B7
330
17
100
AcDbEntity
  8
visible
100
AcDbEllipse
 10
-29.975221656214874
 20
23.744136341184003
 30
0.0
 11
-1.8
 21
-0.0
 31
0.0
 40
0.2960732586457299
 41
-6.283185307179586
 42
-5.352414399678213
  0
ELLIPSE
  5
B8
330
17
100
AcDbEntity
  8
visible
100
AcDbEllipse
 10
4.676497386150679
 20
-34.0236401415098
 30
0.0
 11
-0.17222564351751232
 21
-0.7812415296916689
 31
0.0
 40
0.5704397982907813
 41
5.081167277604518
 42
6.283185307179586
  0
ELLIPSE
  5
B9
330
17
100
AcDbEntity
  8
visible
100
AcDbEllipse
 10
4.676497386150679
 20
-30.776078343644784
 30
0.0
 11
0.17222564351751232
 21
0.7812415296916689
 31
0.0
 40
0.5704397982907813
 41
-5.914407009959758
 42
-4.3436106831648615
  0
LINE
  5
BA
330
17
100
AcDbEntity
  8
visible
100
AcDbLine
 10
8.396613943896824
 20
-34.03165490960504
 30
0.0
 11
8.396613943896824
 21
-30.78409311174002
 31
0.0
  0
ELLIPSE
  5
BB
330
17
100
AcDbEntity
  8
visible
100
AcDbEllipse
 10
5.990372211879986
 20
-33.50119599900559
 30
0.0
 11
-3.0
 21
-0.0
 31
0.0
 40
0.2960732586457299
 41
-5.352414399678213
 42
-3.781618072883316
  0
ELLIPSE
  5
BC
330
17
100
AcDbEntity
  8
visible
100
AcDbEllipse
 10
5.990372211879986
 20
-30.25363420114057
 30
0.0
 11
-3.0
 21
-0.0
 31
0.0
 40
0.2960732586457299
 41
-5.352414399678213
 42
-3.781618072883316
  0
LINE
  5
BD
330
17
100
AcDbEntity
  8
visible
100
AcDbLine
 10
-21.19751917800989
 20
25.648049449594822
 30
0.0
 11
-27.408563808730243
 21
23.178313503211243
 31
0.0
  0
LINE
  5
BE
330
17
100
AcDbEntity
  8
visible
100
AcDbLine
 10
-21.19751917800989
 20
-10.045069967365766
 30
0.0
 11
-21.19751917800989
 21
25.648049449594822
 31
0.0
  0
ELLIPSE
  5
BF
330
17
100
AcDbEntity
  8
visible
100
AcDbEllipse
 10
-28.050228270601398
 20
23.319769212704443
 30
0.0
 11
-0.2955970578361396
 21
0.7433857540998603
 31
0.0
 40
0.76611948287514
 41
4.233636444289864
 42
5.804432771084761
  0
ELLIPSE
  5
C0
330
17
100
AcDbEntity
  8
visible
100
AcDbEllipse
 10
-28.852308847940346
 20
24.260721037303853
 30
0.0
 11
-1.0
 21
-0.0
 31
0.0
 40
0.2960732586457299
 41
-5.352414399678213
 42
-3.781618072883316
  0
ELLIPSE
  5
C1
330
17
100
AcDbEntity
  8
visible
100
AcDbEllipse
 10
-22.641264217219994
 20
25.966324795954492
 30
0.0
 11
-1.8
 21
-5.230512407164039e-17
 31
0.0
 40
0.29607325864573
 41
-3.7816180728833166
 42
-3.1415926535897936
  0
ELLIPSE
  5
C2
330
17
100
AcDbEntity
  8
visible
100
AcDbEllipse
 10
38.95668602108802
 20
-17.14503571648926
 30
0.0
 11
-0.17222564351751232
 21
-0.7812415296916689
 31
0.0
 40
0.5704397982907813
 41
3.141592653589793
 42
3.5103709508096217
  0
ELLIPSE
  5
C3
330
17
100
AcDbEntity
  8
visible
100
AcDbEllipse
 10
37.64281119535871
 20
-17.667479858993488
 30
0.0
 11
-3.0
 21
-0.0
 31
0.0
 40
0.2960732586457299
 41
-3.7816180728833166
 42
-3.1415926535897936
  0
ELLIPSE
  5
C4
330
17
100
AcDbEntity
  8
visible
100
AcDbEllipse
 10
39.4073884655044
 20
-18.05648306009975
 30
0.0
 11
-0.2955970578361396
 21
0.7433857540998603
 31
0.0
 40
0.76611948287514
 41
4.233636444289864
 42
5.804432771084761
  0
LINE
  5
C5
330
17
100
AcDbEntity
  8
visible
100
AcDbLine
 10
40.04905292737555
 20
-18.197938769592938
 30
0.0
 11
29.235226809978165
 21
-22.49790707894646
 31
0.0
  0
LINE
  5
C6
330
17
100
AcDbEntity
  8
visible
100
AcDbLine
 10
32.437976648910066
 20
-15.730066519653562
 30
0.0
 11
31.581305650221392
 21
-16.07070988731205
 31
0.0
  0
LINE
  5
C7
330
17
100
AcDbEntity
  8
visible
100
AcDbLine
 10
18.295625491041008
 20
-21.353576749834875
 30
0.0
 11
3.1744009849391723
 21
-27.366322420883883
 31
0.0
  0
ELLIPSE
  5
C8
330
17
100
AcDbEntity
  8
visible
100
AcDbEllipse
 10
2.53273652306801
 20
-27.22486671139069
 30
0.0
 11
0.2955970578361396
 21
-0.7433857540998603
 31
0.0
 40
0.76611948287514
 41
-6.283185307179586
 42
-5.191141516479515
  0
ELLIPSE
  5
C9
330
17
100
AcDbEntity
  8
visible
100
AcDbEllipse
 10
31.796312187038907
 20
-15.588610810160375
 30
0.0
 11
0.2955970578361396
 21
-0.7433857540998603
 31
0.0
 40
0.76611948287514
 41
-6.283185307179586
 42
-5.191141516479515
  0
ELLIPSE
  5
CA
330
17
100
AcDbEntity
  8
visible
100
AcDbEllipse
 10
30.833815494232173
 20
-15.376427245920596
 30
0.0
 11
-2.0
 21
-0.0
 31
0.0
 40
0.2960732586457299
 41
-3.7816180728833166
 42
-3.1415926535897936
  0
ELLIPSE
  5
CB
330
17
100
AcDbEntity
  8
visible
100
AcDbEllipse
 10
-33.63588399116577
 20
-19.694408294167104
 30
0.0
 11
-0.17222564351751232
 21
-0.7812415296916689
 31
0.0
 40
0.5704397982907813
 41
5.081167277604518
 42
6.283185307179586
  0
ELLIPSE
  5
CC
330
17
100
AcDbEntity
  8
visible
100
AcDbEllipse
 10
-32.919224995313414
 20
-19.409438761892076
 30
0.0
 11
-2.0
 21
-0.0
 31
0.0
 40
0.2960732586457299
 41
-6.283185307179586
 42
-5.352414399678213
  0
ELLIPSE
  5
CD
330
17
100
AcDbEntity
  8
visible
100
AcDbEllipse
 10
0.8535808344089268
 20
-27.297652679425937
 30
0.0
 11
-0.17222564351751232
 21
-0.7812415296916689
 31
0.0
 40
0.5704397982907813
 41
5.081167277604518
 42
6.283185307179586
  0
LINE
  5
CE
330
17
100
AcDbEntity
  8
visible
100
AcDbLine
 10
0.37580817050736215
 20
-27.487632367609294
 30
0.0
 11
-34.11365665506733
 21
-19.88438798235046
 31
0.0
  0
ELLIPSE
  5
CF
330
17
100
AcDbEntity
  8
visible
100
AcDbEllipse
 10
1.5702398302612757
 20
-27.01268314715091
 30
0.0
 11
-2.0
 21
-0.0
 31
0.0
 40
0.2960732586457299
 41
-5.352414399678213
 42
-3.781618072883316
  0
LINE
  5
D0
330
17
100
AcDbEntity
  8
visible
100
AcDbLine
 10
20.042322626497487
 20
-26.15333821227081
 30
0.0
 11
8.396613943896824
 21
-30.78409311174002
 31
0.0
  0
ELLIPSE
  5
D1
330
17
100
AcDbEntity
  8
visible
100
AcDbEllipse
 10
7.754949482025669
 20
-30.642637402246834
 30
0.0
 11
-0.2955970578361396
 21
0.7433857540998603
 31
0.0
 40
0.76611948287514
 41
4.233636444289864
 42
5.804432771084761
  0
LINE
  5
D2
330
17
100
AcDbEntity
  8
visible
100
AcDbLine
 10
-30.77730223355382
 20
24.685088165783426
 30
0.0
 11
-24.566257602833467
 21
27.154824112167006
 31
0.0
  0
ELLIPSE
  5
D3
330
17
100
AcDbEntity
  8
visible
100
AcDbEllipse
 10
-29.975221656214874
 20
24.508268528916943
 30
0.0
 11
-1.0
 21
-0.0
 31
0.0
 40
0.2960732586457299
 41
-6.923210726473109
 42
-5.352414399678213
  0
ELLIPSE
  5
D4
330
17
100
AcDbEntity
  8
visible
100
AcDbEllipse
 10
-23.764177025494522
 20
26.978004475300523
 30
0.0
 11
-1.0
 21
-0.0
 31
0.0
 40
0.29607325864573
 41
-2.21082174608842
 42
-0.6400254192935236
  0
LINE
  5
D5
330
17
100
AcDbEntity
  8
visible
100
AcDbLine
 10
-23.166961195617564
 20
27.215479085529708
 30
0.0
 11
-22.04404838734304
 21
26.967931593916628
 31
0.0
  0
ELLIPSE
  5
D6
330
17
100
AcDbEntity
  8
visible
100
AcDbEllipse
 10
-22.641264217219994
 20
26.730456983687432
 30
0.0
 11
-1.0
 21
-2.905840226202244e-17
 31
0.0
 40
0.29607325864573
 41
-3.7816180728833166
 42
-2.21082174608842
  0
LINE
  5
D7
330
17
100
AcDbEntity
  8
visible
100
AcDbLine
 10
-21.839183639881046
 20
26.55363734682095
 30
0.0
 11
-28.050228270601398
 21
24.08390140043737
 31
0.0
  0
ELLIPSE
  5
D8
330
17
100
AcDbEntity
  8
visible
100
AcDbEllipse
 10
-30.77730223355382
 20
23.920955978050486
 30
0.0
 11
0.2955970578361396
 21
-0.7433857540998603
 31
0.0
 40
0.76611948287514
 41
-3.620345189684619
 42
-3.1415926535897936
  0
ELLIPSE
  5
D9
330
17
100
AcDbEntity
  8
visible
100
AcDbEllipse
 10
37.64281119535871
 20
-20.915041656858506
 30
0.0
 11
-3.0
 21
-0.0
 31
0.0
 40
0.2960732586457299
 41
-3.7816180728833166
 42
-3.1415926535897936
  0
ELLIPSE
  5
DA
330
17
100
AcDbEntity
  8
visible
100
AcDbEllipse
 10
39.4073884655044
 20
-21.30404485796477
 30
0.0
 11
0.2955970578361396
 21
-0.7433857540998603
 31
0.0
 40
0.76611948287514
 41
-6.283185307179586
 42
-5.191141516479515
  0
LINE
  5
DB
330
17
100
AcDbEntity
  8
visible
100
AcDbLine
 10
40.04905292737555
 20
-21.445500567457955
 30
0.0
 11
8.396613943896824
 21
-34.03165490960504
 31
0.0
  0
ELLIPSE
  5
DC
330
17
100
AcDbEntity
  8
visible
100
AcDbEllipse
 10
7.754949482025669
 20
-33.89019920011185
 30
0.0
 11
0.2955970578361396
 21
-0.7433857540998603
 31
0.0
 40
0.76611948287514
 41
-6.283185307179586
 42
-5.191141516479515
  0
LINE
  5
DD
330
17
100
AcDbEntity
  8
visible
100
AcDbLine
 10
40.04905292737555
 20
-21.44550056745795
 30
0.0
 11
40.04905292737555
 21
-18.197938769592938
 31
0.0
  0
ELLIPSE
  5
DE
330
17
100
AcDbEntity
  8
visible
100
AcDbEllipse
 10
-21.839183639881046
 20
25.78950515908801
 30
0.0
 11
-0.29559705783613954
 21
0.7433857540998603
 31
0.0
 40
0.76611948287514
 41
4.233636444289864
 42
5.804432771084761
  0
ELLIPSE
  5
DF
330
17
100
AcDbEntity
  8
visible
100
AcDbEllipse
 10
-22.044048387343036
 20
26.20379940618369
 30
0.0
 11
-0.17222564351751232
 21
-0.7812415296916689
 31
0.0
 40
0.5704397982907813
 41
3.141592653589793
 42
3.5103709508096217
  0
LINE
  5
E0
330
17
100
AcDbEntity
  8
visible
100
AcDbLine
 10
31.014450724253713
 20
-15.367992761694902
 30
0.0
 11
31.014450724253713
 21
3.2446351297985245
 31
0.0
  0
LINE
  5
E1
330
17
100
AcDbEntity
  8
visible
100
AcDbLine
 10
31.14323668517141
 20
10.57764333530599
 30
0.0
 11
32.19534727426503
 21
10.345704278853432
 31
0.0
  0
LINE
  5
E2
330
17
100
AcDbEntity
  8
visible
100
AcDbLine
 10
3.174400984939169
 20
-27.366322420883872
 30
0.0
 11
3.174400984939169
 21
-24.118760623018858
 31
0.0
  0
LINE
  5
E3
330
17
100
AcDbEntity
  8
visible
100
AcDbLine
 10
32.437976648910066
 20
-12.482504721788544
 30
0.0
 11
31.212370146914772
 21
-12.969850186853758
 31
0.0
  0
LINE
  5
E4
330
17
100
AcDbEntity
  8
visible
100
AcDbLine
 10
19.238831591729266
 20
-17.73096209851002
 30
0.0
 11
3.1744009849391723
 21
-24.118760623018865
 31
0.0
  0
LINE
  5
E5
330
17
100
AcDbEntity
  8
visible
100
AcDbLine
 10
32.437976648910066
 20
-15.730066519653558
 30
0.0
 11
32.437976648910066
 21
-12.482504721788546
 31
0.0
  0
ELLIPSE
  5
E6
330
17
100
AcDbEntity
  8
visible
100
AcDbEllipse
 10
30.833815494232173
 20
-12.128865448055578
 30
0.0
 11
-2.0
 21
-0.0
 31
0.0
 40
0.2960732586457299
 41
-3.7816180728833166
 42
-3.1415926535897936
  0
ELLIPSE
  5
E7
330
17
100
AcDbEntity
  8
visible
100
AcDbEllipse
 10
-32.919224995313414
 20
-16.16187696402706
 30
0.0
 11
-2.0
 21
-0.0
 31
0.0
 40
0.2960732586457299
 41
-6.283185307179586
 42
-5.352414399678213
  0
LINE
  5
E8
330
17
100
AcDbEntity
  8
visible
100
AcDbLine
 10
-34.11365665506733
 20
-19.884387982350457
 30
0.0
 11
-34.11365665506733
 21
-16.636826184485443
 31
0.0
  0
LINE
  5
E9
330
17
100
AcDbEntity
  8
visible
100
AcDbLine
 10
0.37580817050736215
 20
-24.240070569744276
 30
0.0
 11
-34.11365665506733
 21
-16.636826184485443
 31
0.0
  0
LINE
  5
EA
330
17
100
AcDbEntity
  8
visible
100
AcDbLine
 10
0.37580817050736215
 20
-27.48763236760929
 30
0.0
 11
0.37580817050736215
 21
-24.240070569744276
 31
0.0
  0
ELLIPSE
  5
EB
330
17
100
AcDbEntity
  8
visible
100
AcDbEllipse
 10
1.5702398302612757
 20
-23.76512134928589
 30
0.0
 11
-2.0
 21
-0.0
 31
0.0
 40
0.2960732586457299
 41
-5.352414399678213
 42
-3.781618072883316
  0
LINE
  5
EC
330
17
100
AcDbEntity
  8
visible
100
AcDbLine
 10
23.847860765730232
 20
-18.21768808444518
 30
0.0
 11
23.847860765730232
 21
1.6217931272932304
 31
0.0
  0
ELLIPSE
  5
ED
330
17
100
AcDbEntity
  8
visible
100
AcDbEllipse
 10
20.340930541435966
 20
7.682731876559927
 30
0.0
 11
0.10764102719844519
 21
0.48827595605729307
 31
0.0
 40
0.5704397982907813
 41
-5.914407009959758
 42
-4.3436106831648615
  0
LINE
  5
EE
330
17
100
AcDbEntity
  8
visible
100
AcDbLine
 10
24.431541485864596
 20
7.258534345873954
 30
0.0
 11
20.340930541435966
 21
8.160314493893026
 31
0.0
  0
ELLIPSE
  5
EF
330
17
100
AcDbEntity
  8
visible
100
AcDbEllipse
 10
-24.566257602833467
 20
26.390691924434066
 30
0.0
 11
0.2955970578361396
 21
-0.7433857540998603
 31
0.0
 40
0.76611948287514
 41
-3.620345189684619
 42
-3.141592653589793
  0
ELLIPSE
  5
F0
330
17
100
AcDbEntity
  8
visible
100
AcDbEllipse
 10
-23.166961195617564
 20
26.451346897796768
 30
0.0
 11
-0.17222564351751246
 21
-0.7812415296916689
 31
0.0
 40
0.5704397982907815
 41
3.141592653589793
 42
3.5103709508096217
  0
LINE
  5
F1
330
17
100
AcDbEntity
  8
visible
100
AcDbLine
 10
20.238498167704975
 20
8.367461617440867
 30
0.0
 11
22.775625697263575
 21
9.37631526974243
 31
0.0
  0
ELLIPSE
  5
F2
330
17
100
AcDbEntity
  8
visible
100
AcDbEllipse
 10
20.639538456374446
 20
8.279051799007618
 30
0.0
 11
-0.5
 21
1.4529201131011214e-17
 31
0.0
 40
0.2960732586457299
 41
-6.923210726473109
 42
-5.352414399678213
  0
ELLIPSE
  5
F3
330
17
100
AcDbEntity
  8
visible
100
AcDbEllipse
 10
31.796312187038907
 20
-12.341049012295358
 30
0.0
 11
-0.2955970578361396
 21
0.7433857540998603
 31
0.0
 40
0.76611948287514
 41
4.233636444289864
 42
5.804432771084761
  0
LINE
  5
F4
330
17
100
AcDbEntity
  8
visible
100
AcDbLine
 10
31.796312187038907
 20
-11.576916824562417
 30
0.0
 11
31.212370146914772
 21
-11.809113295984629
 31
0.0
  0
LINE
  5
F5
330
17
100
AcDbEntity
  8
visible
100
AcDbLine
 10
19.639538456374446
 20
-16.410889668063213
 30
0.0
 11
2.5327365230680137
 21
-23.213172725792738
 31
0.0
  0
ELLIPSE
  5
F6
330
17
100
AcDbEntity
  8
visible
100
AcDbEllipse
 10
2.53273652306801
 20
-23.97730491352567
 30
0.0
 11
-0.2955970578361396
 21
0.7433857540998603
 31
0.0
 40
0.76611948287514
 41
4.233636444289864
 42
5.804432771084761
  0
ELLIPSE
  5
F7
330
17
100
AcDbEntity
  8
visible
100
AcDbEllipse
 10
31.550474490084525
 20
-11.84389591578055
 30
0.0
 11
-0.17222564351751232
 21
-0.7812415296916689
 31
0.0
 40
0.5704397982907813
 41
3.141592653589793
 42
3.5103709508096217
  0
ELLIPSE
  5
F8
330
17
100
AcDbEntity
  8
visible
100
AcDbEllipse
 10
30.833815494232173
 20
-11.364733260322637
 30
0.0
 11
-1.2
 21
-0.0
 31
0.0
 40
0.2960732586457299
 41
-3.7816180728833166
 42
-2.21082174608842
  0
ELLIPSE
  5
F9
330
17
100
AcDbEntity
  8
visible
100
AcDbEllipse
 10
-2.938990335490171
 20
-4.240651530521717
 30
0.0
 11
-0.17222564351751232
 21
-0.7812415296916689
 31
0.0
 40
0.5704397982907813
 41
3.141592653589793
 42
3.5103709508096217
  0
LINE
  5
FA
330
17
100
AcDbEntity
  8
visible
100
AcDbLine
 10
-2.938990335490171
 20
-3.4765193427887766
 30
0.0
 11
19.639538456374446
 21
-8.453983421525436
 31
0.0
  0
LINE
  5
FB
330
17
100
AcDbEntity
  8
visible
100
AcDbLine
 10
31.21237014691477
 20
-11.00522821519353
 30
0.0
 11
31.55047449008452
 21
-11.079763728047611
 31
0.0
  0
ELLIPSE
  5
FC
330
17
100
AcDbEntity
  8
visible
100
AcDbEllipse
 10
-4.6181460241492545
 20
-4.313437498556965
 30
0.0
 11
0.2955970578361396
 21
-0.7433857540998603
 31
0.0
 40
0.76611948287514
 41
-3.620345189684619
 42
-3.141592653589793
  0
ELLIPSE
  5
FD
330
17
100
AcDbEntity
  8
visible
100
AcDbEllipse
 10
-3.65564933134252
 20
-3.7614888750638045
 30
0.0
 11
-1.2
 21
-0.0
 31
0.0
 40
0.2960732586457299
 41
-2.2108217460884196
 42
-0.6400254192935231
  0
ELLIPSE
  5
FE
330
17
100
AcDbEntity
  8
visible
100
AcDbEllipse
 10
-33.88172168812015
 20
-15.949693399787279
 30
0.0
 11
0.2955970578361396
 21
-0.7433857540998603
 31
0.0
 40
0.76611948287514
 41
-3.620345189684619
 42
-3.141592653589793
  0
LINE
  5
FF
330
17
100
AcDbEntity
  8
visible
100
AcDbLine
 10
-33.88172168812015
 20
-15.185561212054338
 30
0.0
 11
-4.618146024149258
 21
-3.5493053108240176
 31
0.0
  0
ELLIPSE
  5
100
330
17
100
AcDbEntity
  8
visible
100
AcDbEllipse
 10
-33.63588399116577
 20
-16.446846496302086
 30
0.0
 11
0.17222564351751232
 21
0.7812415296916689
 31
0.0
 40
0.5704397982907813
 41
-5.914407009959758
 42
-4.3436106831648615
  0
ELLIPSE
  5
101
330
17
100
AcDbEntity
  8
visible
100
AcDbEllipse
 10
-32.919224995313414
 20
-15.397744776294118
 30
0.0
 11
-1.2
 21
-0.0
 31
0.0
 40
0.2960732586457299
 41
-6.923210726473109
 42
-5.352414399678213
  0
ELLIPSE
  5
102
330
17
100
AcDbEntity
  8
visible
100
AcDbEllipse
 10
0.8535808344089268
 20
-24.05009088156092
 30
0.0
 11
0.17222564351751232
 21
0.7812415296916689
 31
0.0
 40
0.5704397982907813
 41
-5.914407009959758
 42
-4.3436106831648615
  0
LINE
  5
103
330
17
100
AcDbEntity
  8
visible
100
AcDbLine
 10
0.8535808344089268
 20
-23.28595869382798
 30
0.0
 11
-33.63588399116577
 21
-15.682714308569144
 31
0.0
  0
ELLIPSE
  5
104
330
17
100
AcDbEntity
  8
visible
100
AcDbEllipse
 10
1.5702398302612757
 20
-23.00098916155295
 30
0.0
 11
-1.2
 21
-0.0
 31
0.0
 40
0.2960732586457299
 41
-5.352414399678213
 42
-3.781618072883316
  0
ELLIPSE
  5
105
330
17
100
AcDbEntity
  8
visible
100
AcDbEllipse
 10
20.238498167704975
 20
7.8898790001077685
 30
0.0
 11
0.18474816114758724
 21
-0.4646160963124127
 31
0.0
 40
0.7661194828751399
 41
-3.620345189684619
 42
-3.1415926535897936
  0
LINE
  5
106
330
17
100
AcDbEntity
  8
visible
100
AcDbLine
 10
25.141236955397595
 20
0.8727515471961687
 30
0.0
 11
25.00305731724265
 21
0.8178063262712358
 31
0.0
  0
ELLIPSE
  5
107
330
17
100
AcDbEntity
  8
visible
100
AcDbEllipse
 10
24.68222508630707
 20
0.8885341810178176
 30
0.0
 11
-0.4
 21
-0.0
 31
0.0
 40
0.2960732586457299
 41
-4.504352320696743
 42
-3.781618072883316
  0
ELLIPSE
  5
108
330
17
100
AcDbEntity
  8
visible
100
AcDbEllipse
 10
25.003057317242646
 20
0.4357402324047399
 30
0.0
 11
-0.1477985289180698
 21
0.37169287704993015
 31
0.0
 40
0.76611948287514
 41
4.233636444289864
 42
5.804432771084761
  0
ELLIPSE
  5
109
330
17
100
AcDbEntity
  8
visible
100
AcDbEllipse
 10
24.68222508630707
 20
0.5064680871513332
 30
0.0
 11
-0.8
 21
-0.0
 31
0.0
 40
0.2960732586457299
 41
-4.968017625182577
 42
-3.781618072883316
  0
LINE
  5
10A
330
17
100
AcDbEntity
  8
visible
100
AcDbLine
 10
25.323889548178226
 20
-5.5570120772721605
 30
0.0
 11
25.323889548178226
 21
0.36501237765815464
 31
0.0
  0
ELLIPSE
  5
10B
330
17
100
AcDbEntity
  8
visible
100
AcDbEllipse
 10
24.68222508630707
 20
-5.415556367778976
 30
0.0
 11
-0.8
 21
-0.0
 31
0.0
 40
0.2960732586457299
 41
-4.968017625182577
 42
-3.781618072883316
  0
ELLIPSE
  5
10C
330
17
100
AcDbEntity
  8
visible
100
AcDbEllipse
 10
25.003057317242646
 20
-5.486284222525569
 30
0.0
 11
0.1477985289180698
 21
-0.37169287704993015
 31
0.0
 40
0.76611948287514
 41
-6.283185307179586
 42
-5.191141516479515
  0
ELLIPSE
  5
10D
330
17
100
AcDbEntity
  8
visible
100
AcDbEllipse
 10
30.01967028820909
 20
-3.49149749660036
 30
0.0
 11
0.1477985289180698
 21
-0.37169287704993015
 31
0.0
 40
0.76611948287514
 41
-6.283185307179586
 42
-5.191141516479515
  0
ELLIPSE
  5
10E
330
17
100
AcDbEntity
  8
visible
100
AcDbEllipse
 10
29.698838057273512
 20
-3.4207696418537665
 30
0.0
 11
-0.8
 21
-0.0
 31
0.0
 40
0.2960732586457299
 41
-3.7816180728833166
 42
-3.1415926535897936
  0
LINE
  5
10F
330
17
100
AcDbEntity
  8
visible
100
AcDbLine
 10
30.340502519144668
 20
-3.5622253513469513
 30
0.0
 11
30.340502519144668
 21
2.343966821247541
 31
0.0
  0
LINE
  5
110
330
17
100
AcDbEntity
  8
visible
100
AcDbLine
 10
30.314887560862857
 20
2.349613669893055
 30
0.0
 11
30.04189460420619
 21
2.241061798468761
 31
0.0
  0
LINE
  5
111
330
17
100
AcDbEntity
  8
visible
100
AcDbLine
 10
30.340502519144668
 20
-3.562225351346953
 30
0.0
 11
30.04189460420619
 21
-3.680962656461548
 31
0.0
  0
LINE
  5
112
330
17
100
AcDbEntity
  8
visible
100
AcDbLine
 10
30.340502519144668
 20
11.720418403311925
 30
0.0
 11
30.04189460420619
 21
11.60168109819733
 31
0.0
  0
ELLIPSE
  5
113
330
17
100
AcDbEntity
  8
visible
100
AcDbEllipse
 10
30.01967028820909
 20
11.791146258058518
 30
0.0
 11
0.1477985289180698
 21
-0.37169287704993015
 31
0.0
 40
0.76611948287514
 41
-6.283185307179586
 42
-5.191141516479515
  0
LINE
  5
114
330
17
100
AcDbEntity
  8
visible
100
AcDbLine
 10
30.340502519144668
 20
17.642442858242234
 30
0.0
 11
30.04189460420619
 21
17.523705553127638
 31
0.0
  0
LINE
  5
115
330
17
100
AcDbEntity
  8
visible
100
AcDbLine
 10
30.340502519144668
 20
11.720418403311927
 30
0.0
 11
30.340502519144668
 21
17.64244285824224
 31
0.0
  0
LINE
  5
116
330
17
100
AcDbEntity
  8
visible
100
AcDbLine
 10
30.01967028820909
 20
18.09523680685531
 30
0.0
 11
29.72106237327061
 21
17.976499501740715
 31
0.0
  0
ELLIPSE
  5
117
330
17
100
AcDbEntity
  8
visible
100
AcDbEllipse
 10
30.01967028820909
 20
17.713170712988827
 30
0.0
 11
-0.1477985289180698
 21
0.37169287704993015
 31
0.0
 40
0.76611948287514
 41
4.233636444289864
 42
5.804432771084761
  0
LINE
  5
118
330
17
100
AcDbEntity
  8
visible
100
AcDbLine
 10
22.436399469758015
 20
16.666272918902862
 30
0.0
 11
27.453012440724454
 21
18.66105964482806
 31
0.0
  0
ELLIPSE
  5
119
330
17
100
AcDbEntity
  8
visible
100
AcDbEllipse
 10
27.773844671660036
 20
18.590331790081464
 30
0.0
 11
-0.4
 21
1.1623360904808973e-17
 31
0.0
 40
0.2960732586457299
 41
-2.2108217460884205
 42
-0.6400254192935242
  0
LINE
  5
11A
330
17
100
AcDbEntity
  8
visible
100
AcDbLine
 10
28.012731003610817
 20
18.685321634173135
 30
0.0
 11
29.93772438922429
 21
18.260954505693572
 31
0.0
  0
ELLIPSE
  5
11B
330
17
100
AcDbEntity
  8
visible
100
AcDbEllipse
 10
29.698838057273512
 20
18.165964661601905
 30
0.0
 11
-0.4
 21
-0.0
 31
0.0
 40
0.2960732586457299
 41
-3.7816180728833166
 42
-2.21082174608842
  0
LINE
  5
11C
330
17
100
AcDbEntity
  8
visible
100
AcDbLine
 10
25.30166523218113
 20
16.21918738604471
 30
0.0
 11
25.00305731724265
 21
16.100450080930113
 31
0.0
  0
ELLIPSE
  5
11D
330
17
100
AcDbEntity
  8
visible
100
AcDbEllipse
 10
24.68222508630707
 20
16.171177935676695
 30
0.0
 11
-0.4
 21
-0.0
 31
0.0
 40
0.2960732586457299
 41
-5.352414399678213
 42
-3.781618072883316
  0
LINE
  5
11E
330
17
100
AcDbEntity
  8
visible
100
AcDbLine
 10
24.44333875435629
 20
16.076188091585024
 30
0.0
 11
22.518345368742818
 21
16.500555220064587
 31
0.0
  0
ELLIPSE
  5
11F
330
17
100
AcDbEntity
  8
visible
100
AcDbEllipse
 10
22.757231700693595
 20
16.59554506415627
 30
0.0
 11
-0.4
 21
-0.0
 31
0.0
 40
0.2960732586457299
 41
-6.923210726473109
 42
-5.352414399678213
  0
LINE
  5
120
330
17
100
AcDbEntity
  8
visible
100
AcDbLine
 10
25.62249746311671
 20
9.844368982501322
 30
0.0
 11
25.32388954817823
 21
9.725631677386726
 31
0.0
  0
ELLIPSE
  5
121
330
17
100
AcDbEntity
  8
visible
100
AcDbEllipse
 10
25.003057317242646
 20
9.796359532133309
 30
0.0
 11
0.1477985289180698
 21
-0.37169287704993015
 31
0.0
 40
0.76611948287514
 41
-6.283185307179586
 42
-5.191141516479515
  0
LINE
  5
122
330
17
100
AcDbEntity
  8
visible
100
AcDbLine
 10
25.62249746311671
 20
-5.4382747721575555
 30
0.0
 11
25.32388954817823
 21
-5.557012077272151
 31
0.0
  0
LINE
  5
123
330
17
100
AcDbEntity
  8
visible
100
AcDbLine
 10
25.62249746311671
 20
0.483749682772753
 30
0.0
 11
25.32388954817823
 21
0.3650123776581582
 31
0.0
  0
LINE
  5
124
330
17
100
AcDbEntity
  8
visible
100
AcDbLine
 10
25.323889548178226
 20
9.725631677386717
 30
0.0
 11
25.323889548178226
 21
15.647656132317032
 31
0.0
  0
LINE
  5
125
330
17
100
AcDbEntity
  8
visible
100
AcDbLine
 10
25.62249746311671
 20
15.766393437431631
 30
0.0
 11
25.32388954817823
 21
15.647656132317035
 31
0.0
  0
ELLIPSE
  5
126
330
17
100
AcDbEntity
  8
visible
100
AcDbEllipse
 10
25.003057317242646
 20
15.718383987063618
 30
0.0
 11
-0.1477985289180698
 21
0.37169287704993015
 31
0.0
 40
0.76611948287514
 41
4.233636444289864
 42
5.804432771084761
  0
ELLIPSE
  5
127
330
17
100
AcDbEntity
  8
visible
100
AcDbEllipse
 10
29.698838057273512
 20
11.861874112805111
 30
0.0
 11
-0.8
 21
-0.0
 31
0.0
 40
0.2960732586457299
 41
-3.7816180728833166
 42
-3.1415926535897936
  0
ELLIPSE
  5
128
330
17
100
AcDbEntity
  8
visible
100
AcDbEllipse
 10
29.698838057273512
 20
17.78389856773542
 30
0.0
 11
-0.8
 21
-0.0
 31
0.0
 40
0.2960732586457299
 41
-3.7816180728833166
 42
-3.1415926535897936
  0
ELLIPSE
  5
129
330
17
100
AcDbEntity
  8
visible
100
AcDbEllipse
 10
29.937724389224293
 20
17.87888841182709
 30
0.0
 11
-0.08611282175875616
 21
-0.39062076484583447
 31
0.0
 40
0.5704397982907813
 41
3.141592653589793
 42
3.5103709508096217
  0
ELLIPSE
  5
12A
330
17
100
AcDbEntity
  8
visible
100
AcDbEllipse
 10
22.436399469758015
 20
16.284206825036378
 30
0.0
 11
0.1477985289180698
 21
-0.37169287704993015
 31
0.0
 40
0.76611948287514
 41
-3.620345189684619
 42
-3.141592653589793
  0
ELLIPSE
  5
12B
330
17
100
AcDbEntity
  8
visible
100
AcDbEllipse
 10
27.453012440724454
 20
18.278993550961573
 30
0.0
 11
0.1477985289180698
 21
-0.37169287704993015
 31
0.0
 40
0.76611948287514
 41
-3.620345189684619
 42
-3.141592653589793
  0
ELLIPSE
  5
12C
330
17
100
AcDbEntity
  8
visible
100
AcDbEllipse
 10
28.012731003610817
 20
18.30325554030665
 30
0.0
 11
-0.08611282175875634
 21
-0.3906207648458344
 31
0.0
 40
0.5704397982907821
 41
3.141592653589793
 42
3.510370950809622
  0
ELLIPSE
  5
12D
330
17
100
AcDbEntity
  8
visible
100
AcDbEllipse
 10
24.68222508630707
 20
15.789111841810211
 30
0.0
 11
-0.8
 21
-0.0
 31
0.0
 40
0.2960732586457299
 41
-5.352414399678213
 42
-3.781618072883316
  0
ELLIPSE
  5
12E
330
17
100
AcDbEntity
  8
visible
100
AcDbEllipse
 10
24.44333875435629
 20
15.69412199771854
 30
0.0
 11
0.08611282175875616
 21
0.39062076484583447
 31
0.0
 40
0.5704397982907813
 41
-5.914407009959758
 42
-4.3436106831648615
  0
LINE
  5
12F
330
17
100
AcDbEntity
  8
visible
100
AcDbLine
 10
24.204452422405506
 20
15.599132153626869
 30
0.0
 11
22.279459036792034
 21
16.02349928210643
 31
0.0
  0
ELLIPSE
  5
130
330
17
100
AcDbEntity
  8
visible
100
AcDbEllipse
 10
22.518345368742814
 20
16.1184891261981
 30
0.0
 11
0.08611282175875616
 21
0.39062076484583447
 31
0.0
 40
0.5704397982907813
 41
-5.914407009959758
 42
-4.3436106831648615
  0
ELLIPSE
  5
131
330
17
100
AcDbEntity
  8
visible
100
AcDbEllipse
 10
22.757231700693595
 20
16.213478970289785
 30
0.0
 11
-0.8
 21
-0.0
 31
0.0
 40
0.2960732586457299
 41
-6.283185307179586
 42
-5.352414399678213
  0
ELLIPSE
  5
132
330
17
100
AcDbEntity
  8
visible
100
AcDbEllipse
 10
24.68222508630707
 20
9.867087386879902
 30
0.0
 11
-0.8
 21
-0.0
 31
0.0
 40
0.2960732586457299
 41
-5.352414399678213
 42
-3.781618072883316
  0
ELLIPSE
  5
133
330
17
100
AcDbEntity
  8
visible
100
AcDbEllipse
 10
24.44333875435629
 20
9.77209754278823
 30
0.0
 11
-0.08611282175875616
 21
-0.39062076484583447
 31
0.0
 40
0.5704397982907813
 41
5.081167277604518
 42
6.283185307179586
  0
LINE
  5
134
330
17
100
AcDbEntity
  8
visible
100
AcDbLine
 10
24.204452422405506
 20
9.67710769869656
 30
0.0
 11
22.279459036792034
 21
10.101474827176123
 31
0.0
  0
ELLIPSE
  5
135
330
17
100
AcDbEntity
  8
visible
100
AcDbEllipse
 10
22.518345368742814
 20
10.19646467126779
 30
0.0
 11
-0.08611282175875616
 21
-0.39062076484583447
 31
0.0
 40
0.5704397982907813
 41
5.081167277604518
 42
6.283185307179586
  0
ELLIPSE
  5
136
330
17
100
AcDbEntity
  8
visible
100
AcDbEllipse
 10
22.757231700693595
 20
10.291454515359476
 30
0.0
 11
-0.8
 21
-0.0
 31
0.0
 40
0.2960732586457299
 41
-6.283185307179586
 42
-5.352414399678213
  0
LINE
  5
137
330
17
100
AcDbEntity
  8
visible
100
AcDbLine
 10
24.204452422405506
 20
9.677107698696561
 30
0.0
 11
24.204452422405506
 21
15.599132153626876
 31
0.0
  0
LINE
  5
138
330
17
100
AcDbEntity
  8
visible
100
AcDbLine
 10
22.27945903679203
 20
10.101474827176121
 30
0.0
 11
22.27945903679203
 21
16.023499282106435
 31
0.0
  0
LINE
  5
139
330
17
100
AcDbEntity
  8
visible
100
AcDbLine
 10
-42.728220696439955
 20
-23.422476697615963
 30
0.0
 11
-42.728220696439955
 21
-20.174914899750945
 31
0.0
  0
LINE
  5
13A
330
17
100
AcDbEntity
  8
visible
100
AcDbLine
 10
-41.788395024421774
 20
-19.042525944544835
 30
0.0
 11
-34.919224995313414
 21
-16.311095540905622
 31
0.0
  0
SPLINE
  5
13B
330
17
100
AcDbEntity
  8
visible
100
AcDbSpline
 70
0
 71
3
 72
17
 73
13
 74
0
 40
0.0
 40
0.0
 40
0.0
 40
0.0
 40
0.14226887817551157
 40
0.14226887817551157
 40
0.14226887817551157
 40
0.28453775635102313
 40
0.28453775635102313
 40
0.28453775635102313
 40
0.5607938144779034
 40
0.5607938144779034
 40
0.5607938144779034
 40
1.0
 40
1.0
 40
1.0
 40
1.0
 10
-41.21432116568677
 20
-24.726162369811846
 30
0.0
 10
-41.35967508528111
 20
-24.694228901373183
 30
0.0
 10
-41.49658830248684
 20
-24.65694530190044
 30
0.0
 10
-41.625060817303826
 20
-24.614311571393582
 30
0.0
 10
-41.81936387367308
 20
-24.550866426024225
 30
0.0
 10
-41.99411559044979
 20
-24.470806356822845
 30
0.0
 10
-42.14931596763391
 20
-24.3741313637894
 30
0.0
 10
-42.27865266618776
 20
-24.293743390011695
 30
0.0
 10
-42.39130360916438
 20
-24.195802227692536
 30
0.0
 10
-42.487268796564
 20
-24.080307876831988
 30
0.0
 10
-42.63820821919899
 20
-23.897104298581706
 30
0.0
 10
-42.72929733327862
 20
-23.66166198250949
 30
0.0
 10
-42.72822069643996
 20
-23.422476697615963
 30
0.0
  0
SPLINE
  5
13C
330
17
100
AcDbEntity
  8
visible
100
AcDbSpline
 70
0
 71
3
 72
14
 73
10
 74
0
 40
0.0
 40
0.0
 40
0.0
 40
0.0
 40
0.3333333333333333
 40
0.3333333333333333
 40
0.3333333333333333
 40
0.6666666666666666
 40
0.6666666666666666
 40
0.6666666666666666
 40
1.0
 40
1.0
 40
1.0
 40
1.0
 10
-42.72822069643995
 20
-20.174914899750945
 30
0.0
 10
-42.72932631753322
 20
-19.933922004214597
 30
0.0
 10
-42.63680613702898
 20
-19.696815079260595
 30
0.0
 10
-42.48389592268795
 20
-19.512960740441727
 30
0.0
 10
-42.421529697802065
 20
-19.43772471746291
 30
0.0
 10
-42.35148742450614
 20
-19.370206003429754
 30
0.0
 10
-42.2737691028001
 20
-19.310404598342245
 30
0.0
 10
-42.13123601937293
 20
-19.202117028429747
 30
0.0
 10
-41.96944465991353
 20
-19.112824143830636
 30
0.0
 10
-41.78839502442178
 20
-19.042525944544835
 30
0.0
  0
LINE
  5
13D
330
17
100
AcDbEntity
  8
visible
100
AcDbLine
 10
-31.775221656214867
 20
-14.25114697917169
 30
0.0
 11
-31.775221656214867
 21
23.744136341184003
 31
0.0
  0
LINE
  5
13E
330
17
100
AcDbEntity
  8
visible
100
AcDbLine
 10
4.504271742633168
 20
-34.804881671201485
 30
0.0
 11
-41.21432116568677
 21
-24.726162369811867
 31
0.0
  0
LINE
  5
13F
330
17
100
AcDbEntity
  8
visible
100
AcDbLine
 10
-20.841264217219994
 20
-9.903410112212185
 30
0.0
 11
-20.841264217219994
 21
25.966324795954492
 31
0.0
  0
LINE
  5
140
330
17
100
AcDbEntity
  8
visible
100
AcDbLine
 10
32.83381549423217
 20
-14.976032594841419
 30
0.0
 11
39.128911664605525
 21
-16.363794186797584
 31
0.0
  0
SPLINE
  5
141
330
17
100
AcDbEntity
  8
visible
100
AcDbSpline
 70
0
 71
3
 72
17
 73
13
 74
0
 40
0.0
 40
0.0
 40
0.0
 40
0.0
 40
0.1422688781755181
 40
0.1422688781755181
 40
0.1422688781755181
 40
0.2845377563510362
 40
0.2845377563510362
 40
0.2845377563510362
 40
0.5607938144779231
 40
0.5607938144779231
 40
0.5607938144779231
 40
1.0
 40
1.0
 40
1.0
 40
1.0
 10
39.128911664605525
 20
-16.36379418679759
 30
0.0
 10
39.27426558419988
 20
-16.39572765523626
 30
0.0
 10
39.41117880140558
 20
-16.433011254709026
 30
0.0
 10
39.53965131622259
 20
-16.475644985215865
 30
0.0
 10
39.733954372591846
 20
-16.539090130585215
 30
0.0
 10
39.908706089368536
 20
-16.619150199786606
 30
0.0
 10
40.063906466552666
 20
-16.71582519282005
 30
0.0
 10
40.19324316510645
 20
-16.79621316659776
 30
0.0
 10
40.30589410808319
 20
-16.894154328916905
 30
0.0
 10
40.40185929548275
 20
-17.00964867977747
 30
0.0
 10
40.55279871811774
 20
-17.192852258027745
 30
0.0
 10
40.64388783219738
 20
-17.428294574099944
 30
0.0
 10
40.64281119535871
 20
-17.667479858993488
 30
0.0
  0
LINE
  5
142
330
17
100
AcDbEntity
  8
visible
100
AcDbLine
 10
32.09190924487505
 20
-16.331996564260237
 30
0.0
 11
31.54173862335811
 21
-16.55076429841625
 31
0.0
  0
LINE
  5
143
330
17
100
AcDbEntity
  8
visible
100
AcDbLine
 10
17.871662582114162
 20
-21.986480864011348
 30
0.0
 11
2.828333580904154
 21
-27.968252465490558
 31
0.0
  0
SPLINE
  5
144
330
17
100
AcDbEntity
  8
visible
100
AcDbSpline
 70
0
 71
3
 72
14
 73
10
 74
0
 40
0.0
 40
0.0
 40
0.0
 40
0.0
 40
0.3333333333333333
 40
0.3333333333333333
 40
0.3333333333333333
 40
0.6666666666666666
 40
0.6666666666666666
 40
0.6666666666666666
 40
1.0
 40
1.0
 40
1.0
 40
1.0
 10
32.83381549423217
 20
-15.376427245920596
 30
0.0
 10
32.83426809142957
 20
-15.56263796427956
 30
0.0
 10
32.774810140673
 20
-15.747922953234163
 30
0.0
 10
32.66811712368588
 20
-15.901705525734426
 30
0.0
 10
32.609948338910385
 20
-15.985291140205113
 30
0.0
 10
32.54094570916751
 20
-16.058963766531033
 30
0.0
 10
32.46110923445729
 20
-16.12272340471212
 30
0.0
 10
32.35026894592825
 20
-16.20990590340431
 30
0.0
 10
32.22720228273417
 20
-16.279663623253697
 30
0.0
 10
32.091909244875055
 20
-16.331996564260237
 30
0.0
  0
SPLINE
  5
145
330
17
100
AcDbEntity
  8
visible
100
AcDbSpline
 70
0
 71
3
 72
17
 73
13
 74
0
 40
0.0
 40
0.0
 40
0.0
 40
0.0
 40
0.25
 40
0.25
 40
0.25
 40
0.5
 40
0.5
 40
0.5
 40
0.75
 40
0.75
 40
0.75
 40
1.0
 40
1.0
 40
1.0
 40
1.0
 10
-33.80810963468328
 20
-20.475649823858774
 30
0.0
 10
-33.973156722209396
 20
-20.440135017421404
 30
0.0
 10
-34.125401995108604
 20
-20.390747811829673
 30
0.0
 10
-34.2648454533808
 20
-20.32748820708352
 30
0.0
 10
-34.364665542453004
 20
-20.28209817023236
 30
0.0
 10
-34.45703866427128
 20
-20.22606107551059
 30
0.0
 10
-34.54196481883561
 20
-20.159376922918185
 30
0.0
 10
-34.62270443802529
 20
-20.095572829280826
 30
0.0
 10
-34.69252976303991
 20
-20.021690288886703
 30
0.0
 10
-34.75144079387945
 20
-19.937729301735814
 30
0.0
 10
-34.859424955204716
 20
-19.783343801043717
 30
0.0
 10
-34.91968950822696
 20
-19.596869819931662
 30
0.0
 10
-34.919224995313414
 20
-19.409438761892076
 30
0.0
  0
LINE
  5
146
330
17
100
AcDbEntity
  8
visible
100
AcDbLine
 10
0.6813551908914146
 20
-28.07889420911762
 30
0.0
 11
-33.80810963468328
 21
-20.475649823858788
 31
0.0
  0
SPLINE
  5
147
330
17
100
AcDbEntity
  8
visible
100
AcDbSpline
 70
0
 71
3
 72
11
 73
7
 74
0
 40
0.0
 40
0.0
 40
0.0
 40
0.0
 40
0.5953085703610753
 40
0.5953085703610753
 40
0.5953085703610753
 40
1.0
 40
1.0
 40
1.0
 40
1.0
 10
2.8283335809041503
 20
-27.968252465490565
 30
0.0
 10
2.481340395417253
 20
-28.105280189946217
 30
0.0
 10
2.037484643694927
 20
-28.16618300141323
 30
0.0
 10
1.5752499665053379
 20
-28.16797022199121
 30
0.0
 10
1.2628723735864864
 20
-28.16820882001722
 30
0.0
 10
0.9528959493507545
 20
-28.138721577825844
 30
0.0
 10
0.6813551908914146
 20
-28.078894209117607
 30
0.0
  0
SPLINE
  5
148
330
17
100
AcDbEntity
  8
visible
100
AcDbSpline
 70
0
 71
3
 72
14
 73
10
 74
0
 40
0.0
 40
0.0
 40
0.0
 40
0.0
 40
0.3333333333333333
 40
0.3333333333333333
 40
0.3333333333333333
 40
0.6666666666666666
 40
0.6666666666666666
 40
0.6666666666666666
 40
1.0
 40
1.0
 40
1.0
 40
1.0
 10
-31.775221656214867
 20
23.744136341184003
 30
0.0
 10
-31.775815658677423
 20
23.942119402808107
 30
0.0
 10
-31.70697800724853
 20
24.13887605942304
 30
0.0
 10
-31.58524037643026
 20
24.296496687574617
 30
0.0
 10
-31.523041434039655
 20
24.376832648697885
 30
0.0
 10
-31.4505804874936
 20
24.446574940968357
 30
0.0
 10
-31.36785753679202
 20
24.505723564385917
 30
0.0
 10
-31.276661075318255
 20
24.570386226725617
 30
0.0
 10
-31.178341660184252
 20
24.62325894931378
 30
0.0
 10
-31.072899291389955
 20
24.664341732150334
 30
0.0
  0
SPLINE
  5
149
330
17
100
AcDbEntity
  8
visible
100
AcDbSpline
 70
0
 71
3
 72
14
 73
10
 74
0
 40
0.0
 40
0.0
 40
0.0
 40
0.0
 40
0.3333333333333333
 40
0.3333333333333333
 40
0.3333333333333333
 40
0.6666666666666666
 40
0.6666666666666666
 40
0.6666666666666666
 40
1.0
 40
1.0
 40
1.0
 40
1.0
 10
40.64281119535871
 20
-20.915041656858506
 30
0.0
 10
40.643916816451956
 20
-21.156034552394825
 30
0.0
 10
40.55139663594776
 20
-21.393141477348856
 30
0.0
 10
40.398486421606705
 20
-21.576995816167724
 30
0.0
 10
40.336120196720806
 20
-21.652231839146523
 30
0.0
 10
40.266077923424895
 20
-21.719750553179722
 30
0.0
 10
40.18835960171886
 20
-21.77955195826722
 30
0.0
 10
40.04582651829169
 20
-21.88783952817968
 30
0.0
 10
39.88403515883228
 20
-21.977132412778836
 30
0.0
 10
39.70298552334054
 20
-22.04743061206463
 30
0.0
  0
LINE
  5
14A
330
17
100
AcDbEntity
  8
visible
100
AcDbLine
 10
39.70298552334053
 20
-22.04743061206463
 30
0.0
 11
8.050546539861806
 21
-34.63358495421171
 31
0.0
  0
SPLINE
  5
14B
330
17
100
AcDbEntity
  8
visible
100
AcDbSpline
 70
0
 71
3
 72
17
 73
13
 74
0
 40
0.0
 40
0.0
 40
0.0
 40
0.0
 40
0.11759287268598875
 40
0.11759287268598875
 40
0.11759287268598875
 40
0.2351857453719775
 40
0.2351857453719775
 40
0.2351857453719775
 40
0.520525395120268
 40
0.520525395120268
 40
0.520525395120268
 40
1.0
 40
1.0
 40
1.0
 40
1.0
 10
8.050546539861806
 20
-34.63358495421173
 30
0.0
 10
7.821375337306871
 20
-34.723556915955925
 30
0.0
 10
7.562288841550867
 20
-34.79416814093212
 30
0.0
 10
7.273287052593787
 20
-34.84541862914037
 30
0.0
 10
7.159010105759441
 20
-34.865932346342824
 30
0.0
 10
7.041133054809271
 20
-34.88354107741262
 30
0.0
 10
6.9196558997432795
 20
-34.89824482234968
 30
0.0
 10
6.622316625225153
 20
-34.934033607789125
 30
0.0
 10
6.315387732145528
 20
-34.95213660408641
 30
0.0
 10
5.998869220504438
 20
-34.9525538112417
 30
0.0
 10
5.471453507538965
 20
-34.953155232399276
 30
0.0
 10
4.947390015155888
 20
-34.90271837738422
 30
0.0
 10
4.504271742633168
 20
-34.80488167120147
 30
0.0
  0
SPLINE
  5
14C
330
17
100
AcDbEntity
  8
visible
100
AcDbSpline
 70
0
 71
3
 72
17
 73
13
 74
0
 40
0.0
 40
0.0
 40
0.0
 40
0.0
 40
0.25
 40
0.25
 40
0.25
 40
0.5
 40
0.5
 40
0.5
 40
0.75
 40
0.75
 40
0.75
 40
1.0
 40
1.0
 40
1.0
 40
1.0
 10
-21.871822743825525
 20
26.985040935875347
 30
0.0
 10
-21.743189097154325
 20
26.957246488906403
 30
0.0
 10
-21.622151184950795
 20
26.919633785249985
 30
0.0
 10
-21.50870900721494
 20
26.872202824906097
 30
0.0
 10
-21.41505409670097
 20
26.833099724316803
 30
0.0
 10
-21.32731364794049
 20
26.78424576297702
 30
0.0
 10
-21.245487660933456
 20
26.725640940886677
 30
0.0
 10
-21.16281667370276
 20
26.66610031498042
 30
0.0
 10
-21.090512954642435
 20
26.5959493494968
 30
0.0
 10
-21.028576503752443
 20
26.51518804443579
 30
0.0
 10
-20.908474347123583
 20
26.358178642534764
 30
0.0
 10
-20.84068767627646
 20
26.16284206790291
 30
0.0
 10
-20.841264217219994
 20
25.966324795954506
 30
0.0
  0
LINE
  5
14D
330
17
100
AcDbEntity
  8
visible
100
AcDbLine
 10
40.64281119535871
 20
-20.915041656858506
 30
0.0
 11
40.64281119535871
 21
-17.667479858993488
 31
0.0
  0
LINE
  5
14E
330
17
100
AcDbEntity
  8
visible
100
AcDbLine
 10
31.212370146914772
 20
-15.191173124828419
 30
0.0
 11
31.212370146914772
 21
3.7207033772145905
 31
0.0
  0
LINE
  5
14F
330
17
100
AcDbEntity
  8
visible
100
AcDbLine
 10
31.118954543275514
 20
10.617419296789768
 30
0.0
 11
32.30298830146348
 21
10.356397617577628
 31
0.0
  0
LINE
  5
150
330
17
100
AcDbEntity
  8
visible
100
AcDbLine
 10
32.83381549423217
 20
-15.376427245920596
 30
0.0
 11
32.83381549423217
 21
-12.128865448055578
 31
0.0
  0
LINE
  5
151
330
17
100
AcDbEntity
  8
visible
100
AcDbLine
 10
-34.919224995313414
 20
-19.409438761892076
 30
0.0
 11
-34.919224995313414
 21
-16.16187696402706
 31
0.0
  0
LINE
  5
152
330
17
100
AcDbEntity
  8
visible
100
AcDbLine
 10
24.32390045866615
 20
1.5168495991526785
 30
0.0
 11
23.22744928896118
 21
1.7585635904230805
 31
0.0
  0
LINE
  5
153
330
17
100
AcDbEntity
  8
visible
100
AcDbLine
 10
19.639538456374446
 20
-17.510409536979246
 30
0.0
 11
19.639538456374446
 21
7.801469181674523
 31
0.0
  0
LINE
  5
154
330
17
100
AcDbEntity
  8
visible
100
AcDbLine
 10
-31.07289929138996
 20
24.664341732150334
 30
0.0
 11
-24.861854660669607
 21
27.134077678533913
 31
0.0
  0
SPLINE
  5
155
330
17
100
AcDbEntity
  8
visible
100
AcDbSpline
 70
0
 71
3
 72
11
 73
7
 74
0
 40
0.0
 40
0.0
 40
0.0
 40
0.0
 40
0.595919816602409
 40
0.595919816602409
 40
0.595919816602409
 40
1.0
 40
1.0
 40
1.0
 40
1.0
 10
-24.8618546606696
 20
27.13407767853391
 30
0.0
 10
-24.551344944513485
 20
27.256404596850093
 30
0.0
 10
-24.167866177852122
 20
27.308154872551086
 30
0.0
 10
-23.768489788034096
 20
27.30994403797661
 30
0.0
 10
-23.49925708133055
 20
27.310107600601558
 30
0.0
 10
-23.232181117624563
 20
27.284855761969673
 30
0.0
 10
-22.994735552100053
 20
27.232588427488434
 30
0.0
  0
LINE
  5
156
330
17
100
AcDbEntity
  8
visible
100
AcDbLine
 10
-22.994735552100053
 20
27.232588427488437
 30
0.0
 11
-21.87182274382553
 21
26.98504093587536
 31
0.0
  0
SPLINE
  5
157
330
17
100
AcDbEntity
  8
visible
100
AcDbSpline
 70
0
 71
3
 72
17
 73
13
 74
0
 40
0.0
 40
0.0
 40
0.0
 40
0.0
 40
0.25
 40
0.25
 40
0.25
 40
0.5
 40
0.5
 40
0.5
 40
0.75
 40
0.75
 40
0.75
 40
1.0
 40
1.0
 40
1.0
 40
1.0
 10
31.722700133602032
 20
-11.062654386088866
 30
0.0
 10
31.887747221128155
 20
-11.098169192526242
 30
0.0
 10
32.03999249402734
 20
-11.147556398118004
 30
0.0
 10
32.179435952299556
 20
-11.210816002864135
 30
0.0
 10
32.27925604137176
 20
-11.256206039715291
 30
0.0
 10
32.37162916319004
 20
-11.312243134437074
 30
0.0
 10
32.456555317754365
 20
-11.37892728702947
 30
0.0
 10
32.53729493694405
 20
-11.442731380666823
 30
0.0
 10
32.607120261958656
 20
-11.516613921060951
 30
0.0
 10
32.66603129279821
 20
-11.60057490821184
 30
0.0
 10
32.77401545412347
 20
-11.754960408903944
 30
0.0
 10
32.83428000714571
 20
-11.941434390015983
 30
0.0
 10
32.83381549423217
 20
-12.128865448055578
 30
0.0
  0
LINE
  5
158
330
17
100
AcDbEntity
  8
visible
100
AcDbLine
 10
-2.766764691972659
 20
-3.459410000830033
 30
0.0
 11
19.639538456374446
 21
-8.398906727400037
 31
0.0
  0
LINE
  5
159
330
17
100
AcDbEntity
  8
visible
100
AcDbLine
 10
31.212370146914772
 20
-10.950151521068129
 30
0.0
 11
31.722700133602032
 21
-11.062654386088868
 31
0.0
  0
SPLINE
  5
15A
330
17
100
AcDbEntity
  8
visible
100
AcDbSpline
 70
0
 71
3
 72
11
 73
7
 74
0
 40
0.0
 40
0.0
 40
0.0
 40
0.0
 40
0.5953085703611141
 40
0.5953085703611141
 40
0.5953085703611141
 40
1.0
 40
1.0
 40
1.0
 40
1.0
 10
-4.913743081985395
 20
-3.570051744457089
 30
0.0
 10
-4.566749896498587
 20
-3.433024020001499
 30
0.0
 10
-4.122894144776247
 20
-3.372121208534417
 30
0.0
 10
-3.660659467586582
 20
-3.370333987956448
 30
0.0
 10
-3.3482818746677427
 20
-3.3700953899303894
 30
0.0
 10
-3.0383054504320435
 20
-3.3995826321218443
 30
0.0
 10
-2.7667646919726594
 20
-3.459410000830033
 30
0.0
  0
LINE
  5
15B
330
17
100
AcDbEntity
  8
visible
100
AcDbLine
 10
-34.17731874595629
 20
-15.206307645687417
 30
0.0
 11
-4.913743081985398
 21
-3.5700517444570963
 31
0.0
  0
SPLINE
  5
15C
330
17
100
AcDbEntity
  8
visible
100
AcDbSpline
 70
0
 71
3
 72
14
 73
10
 74
0
 40
0.0
 40
0.0
 40
0.0
 40
0.0
 40
0.3333333333333333
 40
0.3333333333333333
 40
0.3333333333333333
 40
0.6666666666666666
 40
0.6666666666666666
 40
0.6666666666666666
 40
1.0
 40
1.0
 40
1.0
 40
1.0
 10
-34.919224995313414
 20
-16.16187696402706
 30
0.0
 10
-34.91967759251084
 20
-15.975666245668071
 30
0.0
 10
-34.86021964175421
 20
-15.790381256713486
 30
0.0
 10
-34.753526624767126
 20
-15.636598684213226
 30
0.0
 10
-34.69535783999163
 20
-15.553013069742514
 30
0.0
 10
-34.62635521024877
 20
-15.47934044341664
 30
0.0
 10
-34.54651873553853
 20
-15.415580805235535
 30
0.0
 10
-34.43567844700947
 20
-15.328398306543326
 30
0.0
 10
-34.31261178381541
 20
-15.258640586693957
 30
0.0
 10
-34.17731874595629
 20
-15.206307645687417
 30
0.0
  0
SPLINE
  5
15D
330
17
100
AcDbEntity
  8
visible
100
AcDbSpline
 70
0
 71
3
 72
11
 73
7
 74
0
 40
0.0
 40
0.0
 40
0.0
 40
0.0
 40
0.5
 40
0.5
 40
0.5
 40
1.0
 40
1.0
 40
1.0
 40
1.0
 10
19.639538456374442
 20
7.80146918167452
 30
0.0
 10
19.639089862699297
 20
7.936447728307123
 30
0.0
 10
19.691278133595958
 20
8.070481857396064
 30
0.0
 10
19.78374388941651
 20
8.172947753871895
 30
0.0
 10
19.858975845303704
 20
8.254032932078207
 30
0.0
 10
19.948977884350665
 20
8.31454871292764
 30
0.0
 10
20.053750006557387
 20
8.35449509642018
 30
0.0
  0
LINE
  5
15E
330
17
100
AcDbEntity
  8
visible
100
AcDbLine
 10
20.053750006557387
 20
8.35449509642018
 30
0.0
 11
22.810543441956554
 21
9.450695856350952
 31
0.0
  0
SPLINE
  5
15F
330
17
100
AcDbEntity
  8
visible
100
AcDbSpline
 70
0
 71
2
 72
8
 73
5
 74
0
 40
0.0
 40
0.0
 40
0.0
 40
0.5
 40
0.5
 40
1.0
 40
1.0
 40
1.0
 10
25.15085584616072
 20
-5.8579770995754785
 30
0.0
 10
24.97260313376947
 20
-5.924616505964446
 30
0.0
 10
24.761581237582597
 20
-5.9321790618572265
 30
0.0
 10
24.71595018228572
 20
-5.933062125929034
 30
0.0
 10
24.670319126988836
 20
-5.933945190000841
 30
0.0
  0
SPLINE
  5
160
330
17
100
AcDbEntity
  8
visible
100
AcDbSpline
 70
0
 71
3
 72
14
 73
10
 74
0
 40
0.0
 40
0.0
 40
0.0
 40
0.0
 40
0.3333333333333333
 40
0.3333333333333333
 40
0.3333333333333333
 40
0.6666666666666666
 40
0.6666666666666666
 40
0.6666666666666666
 40
1.0
 40
1.0
 40
1.0
 40
1.0
 10
30.167468817127162
 20
-3.8631903736502835
 30
0.0
 10
30.196352792973777
 20
-3.8517867217230357
 30
0.0
 10
30.224261031139967
 20
-3.8384788475749207
 30
0.0
 10
30.25119353162574
 20
-3.823266751205935
 30
0.0
 10
30.300820893929934
 20
-3.7953244814237665
 30
0.0
 10
30.344451525939043
 20
-3.76073427139255
 30
0.0
 10
30.382085427652964
 20
-3.7194961211122717
 30
0.0
 10
30.45718703059034
 20
-3.636947195769137
 30
0.0
 10
30.499170240883704
 20
-3.529219894552668
 30
0.0
 10
30.498838057273506
 20
-3.4207696418537665
 30
0.0
  0
LINE
  5
161
330
17
100
AcDbEntity
  8
visible
100
AcDbLine
 10
30.498838057273513
 20
-3.4207696418537594
 30
0.0
 11
30.498838057273513
 21
2.3090615596740873
 31
0.0
  0
LINE
  5
162
330
17
100
AcDbEntity
  8
visible
100
AcDbLine
 10
30.167468817127162
 20
-3.8631903736502835
 30
0.0
 11
29.868860902188683
 21
-3.9819276787648783
 31
0.0
  0
LINE
  5
163
330
17
100
AcDbEntity
  8
visible
100
AcDbLine
 10
30.167468817127162
 20
11.419453381008594
 30
0.0
 11
30.144512887063897
 21
11.410325273092658
 31
0.0
  0
LINE
  5
164
330
17
100
AcDbEntity
  8
visible
100
AcDbLine
 10
25.319841891188904
 20
9.491861617389583
 30
0.0
 11
25.150855846160724
 21
9.424666655083396
 31
0.0
  0
LINE
  5
165
330
17
100
AcDbEntity
  8
visible
100
AcDbLine
 10
25.449463761099203
 20
-5.739239794460886
 30
0.0
 11
25.150855846160724
 21
-5.857977099575481
 31
0.0
  0
SPLINE
  5
166
330
17
100
AcDbEntity
  8
visible
100
AcDbSpline
 70
0
 71
3
 72
11
 73
7
 74
0
 40
0.0
 40
0.0
 40
0.0
 40
0.0
 40
0.5
 40
0.5
 40
0.5
 40
1.0
 40
1.0
 40
1.0
 40
1.0
 10
30.498838057273506
 20
11.861874112805111
 30
0.0
 10
30.499178584907085
 20
11.752778553732712
 30
0.0
 10
30.456677125913203
 20
11.644427480374969
 30
0.0
 10
30.38075497641156
 20
11.561680897065287
 30
0.0
 10
30.321378774156415
 20
11.498566978771258
 30
0.0
 10
30.25028338772831
 20
11.451157806752365
 30
0.0
 10
30.167468817127162
 20
11.419453381008594
 30
0.0
  0
LINE
  5
167
330
17
100
AcDbEntity
  8
visible
100
AcDbLine
 10
30.498838057273513
 20
11.861874112805118
 30
0.0
 11
30.498838057273513
 21
17.783898567735424
 31
0.0
  0
SPLINE
  5
168
330
17
100
AcDbEntity
  8
visible
100
AcDbSpline
 70
0
 71
3
 72
17
 73
13
 74
0
 40
0.0
 40
0.0
 40
0.0
 40
0.0
 40
0.21733970434053004
 40
0.21733970434053004
 40
0.21733970434053004
 40
0.4346794086810601
 40
0.4346794086810601
 40
0.4346794086810601
 40
0.7826602956594699
 40
0.7826602956594699
 40
0.7826602956594699
 40
1.0
 40
1.0
 40
1.0
 40
1.0
 10
30.02383721098305
 20
18.269509176672926
 30
0.0
 10
30.060901408082266
 20
18.261417786012608
 30
0.0
 10
30.096924787212195
 20
18.25140645294489
 30
0.0
 10
30.131907348372717
 20
18.239475177469753
 30
0.0
 10
30.172706005265436
 20
18.225657374873272
 30
0.0
 10
30.21177943210224
 20
18.208353729445776
 30
0.0
 10
30.249127628883123
 20
18.187564241187314
 30
0.0
 10
30.299622356436764
 20
18.159404652271412
 30
0.0
 10
30.34396743476848
 20
18.124396338958324
 30
0.0
 10
30.382162863878406
 20
18.08253930124815
 30
0.0
 10
30.457216680013563
 20
18.000002056202177
 30
0.0
 10
30.49916975936989
 20
17.89231116759368
 30
0.0
 10
30.498838057273506
 20
17.78389856773542
 30
0.0
  0
LINE
  5
169
330
17
100
AcDbEntity
  8
visible
100
AcDbLine
 10
22.288600940839945
 20
16.6558997020863
 30
0.0
 11
27.305213911806383
 21
18.6506864280115
 31
0.0
  0
SPLINE
  5
16A
330
17
100
AcDbEntity
  8
visible
100
AcDbSpline
 70
0
 71
2
 72
10
 73
7
 74
0
 40
0.0
 40
0.0
 40
0.0
 40
0.45694040952387793
 40
0.45694040952387793
 40
0.7284702047619389
 40
0.7284702047619389
 40
1.0
 40
1.0
 40
1.0
 10
27.30521391180639
 20
18.65068642801151
 30
0.0
 10
27.384938721439596
 20
18.681827351406007
 30
0.0
 10
27.47222015067355
 20
18.698779931001937
 30
0.0
 10
27.618076466527214
 20
18.727112555321646
 30
0.0
 10
27.776108701905986
 20
18.72669353599464
 30
0.0
 10
27.944912689704818
 20
18.726792211250178
 30
0.0
 10
28.098843825369578
 20
18.693876305152486
 30
0.0
  0
LINE
  5
16B
330
17
100
AcDbEntity
  8
visible
100
AcDbLine
 10
28.098843825369574
 20
18.693876305152486
 30
0.0
 11
30.023837210983043
 21
18.269509176672923
 31
0.0
  0
SPLINE
  5
16C
330
17
100
AcDbEntity
  8
visible
100
AcDbSpline
 70
0
 71
3
 72
11
 73
7
 74
0
 40
0.0
 40
0.0
 40
0.0
 40
0.0
 40
0.5
 40
0.5
 40
0.5
 40
1.0
 40
1.0
 40
1.0
 40
1.0
 10
21.9572317006936
 20
16.213478970289785
 30
0.0
 10
21.956891173060004
 20
16.322574529362186
 30
0.0
 10
21.99939263205389
 20
16.4309256027199
 30
0.0
 10
22.075314781555548
 20
16.513672186029623
 30
0.0
 10
22.13469098381068
 20
16.576786104323638
 30
0.0
 10
22.205786370238815
 20
16.624195276342526
 30
0.0
 10
22.288600940839945
 20
16.6558997020863
 30
0.0
  0
SPLINE
  5
16D
330
17
100
AcDbEntity
  8
visible
100
AcDbSpline
 70
0
 71
2
 72
10
 73
7
 74
0
 40
0.0
 40
0.0
 40
0.0
 40
0.4569404095238807
 40
0.4569404095238807
 40
0.7284702047619404
 40
0.7284702047619404
 40
1.0
 40
1.0
 40
1.0
 10
25.15085584616072
 20
9.4246666550834
 30
0.0
 10
25.071131036527515
 20
9.393525731688865
 30
0.0
 10
24.983849607293557
 20
9.37657315209296
 30
0.0
 10
24.837993291439897
 20
9.348240527773243
 30
0.0
 10
24.679961056061117
 20
9.348659547100254
 30
0.0
 10
24.511157068262285
 20
9.348560871844743
 30
0.0
 10
24.357225932597533
 20
9.381476777942396
 30
0.0
  0
LINE
  5
16E
330
17
100
AcDbEntity
  8
visible
100
AcDbLine
 10
24.357225932597533
 20
9.38147677794241
 30
0.0
 11
22.432232546984064
 21
9.805843906421973
 31
0.0
  0
SPLINE
  5
16F
330
17
100
AcDbEntity
  8
visible
100
AcDbSpline
 70
0
 71
3
 72
20
 73
16
 74
0
 40
0.0
 40
0.0
 40
0.0
 40
0.0
 40
0.21733970434053004
 40
0.21733970434053004
 40
0.21733970434053004
 40
0.4346794086810601
 40
0.4346794086810601
 40
0.4346794086810601
 40
0.6520191130215901
 40
0.6520191130215901
 40
0.6520191130215901
 40
0.78266029565947
 40
0.78266029565947
 40
0.78266029565947
 40
1.0
 40
1.0
 40
1.0
 40
1.0
 10
22.432232546984057
 20
9.805843906421956
 30
0.0
 10
22.3951683498848
 20
9.81393529708228
 30
0.0
 10
22.35914497075494
 20
9.823946630150012
 30
0.0
 10
22.324162409594372
 20
9.835877905625122
 30
0.0
 10
22.28336375270167
 20
9.849695708221631
 30
0.0
 10
22.244290325864867
 20
9.866999353649113
 30
0.0
 10
22.20694212908398
 20
9.887788841907565
 30
0.0
 10
22.175649933884326
 20
9.905315628112744
 30
0.0
 10
22.14647290382375
 20
9.925583565292856
 30
0.0
 10
22.11941103890219
 20
9.9485926534479
 30
0.0
 10
22.103215417294585
 20
9.96242420396653
 30
0.0
 10
22.088047369023435
 20
9.977164580099465
 30
0.0
 10
22.073906894088708
 20
9.992813781846738
 30
0.0
 10
21.998853077953523
 20
10.075351026892692
 30
0.0
 10
21.956899998597198
 20
10.18304191550123
 30
0.0
 10
21.9572317006936
 20
10.291454515359476
 30
0.0
  0
LINE
  5
170
330
17
100
AcDbEntity
  8
visible
100
AcDbLine
 10
21.957231700693594
 20
10.291454515359483
 30
0.0
 11
21.957231700693594
 21
16.21347897028979
 31
0.0
  0
ENDSEC
  0
SECTION
  2
OBJECTS
  0
DICTIONARY
  5
A
330
0
100
AcDbDictionary
281
1
  3
ACAD_COLOR
350
B
  3
ACAD_GROUP
350
C
  3
ACAD_LAYOUT
350
D
  3
ACAD_MATERIAL
350
E
  3
ACAD_MLEADERSTYLE
350
F
  3
ACAD_MLINESTYLE
350
10
  3
ACAD_PLOTSETTINGS
350
11
  3
ACAD_PLOTSTYLENAME
350
12
  3
ACAD_SCALELIST
350
14
  3
ACAD_TABLESTYLE
350
15
  3
ACAD_VISUALSTYLE
350
16
  3
EZDXF_META
350
2D
  0
DICTIONARY
  5
B
330
A
100
AcDbDictionary
281
1
  0
DICTIONARY
  5
C
330
A
100
AcDbDictionary
281
1
  0
DICTIONARY
  5
D
330
A
100
AcDbDictionary
281
1
  3
Model
350
1A
  3
Layout1
350
1E
  0
DICTIONARY
  5
E
330
A
100
AcDbDictionary
281
1
  3
ByBlock
350
1F
  3
ByLayer
350
20
  3
Global
350
21
  0
DICTIONARY
  5
F
330
A
100
AcDbDictionary
281
1
  3
Standard
350
2C
  0
DICTIONARY
  5
10
330
A
100
AcDbDictionary
281
1
  3
Standard
350
22
  0
DICTIONARY
  5
11
330
A
100
AcDbDictionary
281
1
  0
ACDBDICTIONARYWDFLT
  5
12
330
A
100
AcDbDictionary
281
1
  3
Normal
350
13
100
AcDbDictionaryWithDefault
340
13
  0
ACDBPLACEHOLDER
  5
13
330
12
  0
DICTIONARY
  5
14
330
A
100
AcDbDictionary
281
1
  0
DICTIONARY
  5
15
330
A
100
AcDbDictionary
281
1
  0
DICTIONARY
  5
16
330
A
100
AcDbDictionary
281
1
  0
LAYOUT
  5
1A
330
D
100
AcDbPlotSettings
  1

  4
A3
  6

 40
7.5
 41
20.0
 42
7.5
 43
20.0
 44
420.0
 45
297.0
 46
0.0
 47
0.0
 48
0.0
 49
0.0
140
0.0
141
0.0
142
1.0
143
1.0
 70
1024
 72
1
 73
0
 74
5
  7

 75
16
 76
0
 77
2
 78
300
147
1.0
148
0.0
149
0.0
100
AcDbLayout
  1
Model
 70
1
 71
0
 10
0.0
 20
0.0
 11
420.0
 21
297.0
 12
0.0
 22
0.0
 32
0.0
 14
1e+20
 24
1e+20
 34
1e+20
 15
-1e+20
 25
-1e+20
 35
-1e+20
146
0.0
 13
0.0
 23
0.0
 33
0.0
 16
1.0
 26
0.0
 36
0.0
 17
0.0
 27
1.0
 37
0.0
 76
1
330
17
  0
LAYOUT
  5
1E
330
D
100
AcDbPlotSettings
  1

  4
A3
  6

 40
7.5
 41
20.0
 42
7.5
 43
20.0
 44
420.0
 45
297.0
 46
0.0
 47
0.0
 48
0.0
 49
0.0
140
0.0
141
0.0
142
1.0
143
1.0
 70
0
 72
1
 73
0
 74
5
  7

 75
16
 76
0
 77
2
 78
300
147
1.0
148
0.0
149
0.0
100
AcDbLayout
  1
Layout1
 70
1
 71
1
 10
0.0
 20
0.0
 11
420.0
 21
297.0
 12
0.0
 22
0.0
 32
0.0
 14
1e+20
 24
1e+20
 34
1e+20
 15
-1e+20
 25
-1e+20
 35
-1e+20
146
0.0
 13
0.0
 23
0.0
 33
0.0
 16
1.0
 26
0.0
 36
0.0
 17
0.0
 27
1.0
 37
0.0
 76
1
330
1B
  0
MATERIAL
  5
1F
102
{ACAD_REACTORS
330
E
102
}
330
E
100
AcDbMaterial
  1
ByBlock
  2

 70
0
 40
1.0
 71
1
 41
1.0
 91
-1023410177
 42
1.0
 72
1
  3

 73
1
 74
1
 75
1
 44
0.5
 73
0
 45
1.0
 46
1.0
 77
1
  4

 78
1
 79
1
170
1
 48
1.0
171
1
  6

172
1
173
1
174
1
140
1.0
141
1.0
175
1
  7

176
1
177
1
178
1
143
1.0
179
1
  8

270
1
271
1
272
1
145
1.0
146
1.0
273
1
  9

274
1
275
1
276
1
 42
1.0
 72
1
  3

 73
1
 74
1
 75
1
 94
63
  0
MATERIAL
  5
20
102
{ACAD_REACTORS
330
E
102
}
330
E
100
AcDbMaterial
  1
ByLayer
  2

 70
0
 40
1.0
 71
1
 41
1.0
 91
-1023410177
 42
1.0
 72
1
  3

 73
1
 74
1
 75
1
 44
0.5
 73
0
 45
1.0
 46
1.0
 77
1
  4

 78
1
 79
1
170
1
 48
1.0
171
1
  6

172
1
173
1
174
1
140
1.0
141
1.0
175
1
  7

176
1
177
1
178
1
143
1.0
179
1
  8

270
1
271
1
272
1
145
1.0
146
1.0
273
1
  9

274
1
275
1
276
1
 42
1.0
 72
1
  3

 73
1
 74
1
 75
1
 94
63
  0
MATERIAL
  5
21
102
{ACAD_REACTORS
330
E
102
}
330
E
100
AcDbMaterial
  1
Global
  2

 70
0
 40
1.0
 71
1
 41
1.0
 91
-1023410177
 42
1.0
 72
1
  3

 73
1
 74
1
 75
1
 44
0.5
 73
0
 45
1.0
 46
1.0
 77
1
  4

 78
1
 79
1
170
1
 48
1.0
171
1
  6

172
1
173
1
174
1
140
1.0
141
1.0
175
1
  7

176
1
177
1
178
1
143
1.0
179
1
  8

270
1
271
1
272
1
145
1.0
146
1.0
273
1
  9

274
1
275
1
276
1
 42
1.0
 72
1
  3

 73
1
 74
1
 75
1
 94
63
  0
MLINESTYLE
  5
22
102
{ACAD_REACTORS
330
10
102
}
330
10
100
AcDbMlineStyle
  2
Standard
 70
0
  3

 62
256
 51
90.0
 52
90.0
 71
2
 49
0.5
 62
256
  6
BYLAYER
 49
-0.5
 62
256
  6
BYLAYER
  0
MLEADERSTYLE
  5
2C
102
{ACAD_REACTORS
330
F
102
}
330
F
100
AcDbMLeaderStyle
179
2
170
2
171
1
172
0
 90
2
 40
0.0
 41
0.0
173
1
 91
-1056964608
 92
-2
290
1
 42
2.0
291
1
 43
8.0
  3
Standard
 44
4.0
300

342
29
174
1
175
1
176
0
178
1
 93
-1056964608
 45
4.0
292
0
297
0
 46
4.0
 94
-1056964608
 47
1.0
 49
1.0
140
1.0
294
1
141
0.0
177
0
142
1.0
295
0
296
0
143
3.75
271
0
272
9
273
9
  0
DICTIONARY
  5
2D
330
A
100
AcDbDictionary
280
1
281
1
  3
CREATED_BY_EZDXF
350
2E
  3
WRITTEN_BY_EZDXF
350
174
  0
DICTIONARYVAR
  5
2E
330
2D
100
DictionaryVariables
280
0
  1
1.4.4 @ 2026-10-01T19:08:24.861966+00:00
  0
DICTIONARYVAR
  5
174
330
2D
100
DictionaryVariables
280
0
  1
1.4.4 @ 2026-10-01T19:08:24.915631+00:00
  0
ENDSEC
  0
EOF
