  0
SECTION
  2
HEADER
  9
$ACADVER
  1
AC1027
  9
$ACADMAINTVER
 70
105
  9
$DWGCODEPAGE
  3
ANSI_1252
  9
$LASTSAVEDBY
  1
ezdxf
  9
$REQUIREDVERSIONS
160
0
  9
$INSBASE
 10
0.0
 20
0.0
 30
0.0
  9
$EXTMIN
 10
1e+20
 20
1e+20
 30
1e+20
  9
$EXTMAX
 10
-1e+20
 20
-1e+20
 30
-1e+20
  9
$LIMMIN
 10
0.0
 20
0.0
  9
$LIMMAX
 10
420.0
 20
297.0
  9
$ORTHOMODE
 70
0
  9
$REGENMODE
 70
1
  9
$FILLMODE
 70
1
  9
$QTEXTMODE
 70
0
  9
$MIRRTEXT
 70
1
  9
$LTSCALE
 40
1.0
  9
$ATTMODE
 70
1
  9
$TEXTSIZE
 40
2.5
  9
$TRACEWID
 40
1.0
  9
$TEXTSTYLE
  7
Standard
  9
$CLAYER
  8
0
  9
$CELTYPE
  6
ByLayer
  9
$CECOLOR
 62
256
  9
$CELTSCALE
 40
1.0
  9
$DISPSILH
 70
0
  9
$DIMSCALE
 40
1.0
  9
$DIMASZ
 40
2.5
  9
$DIMEXO
 40
0.625
  9
$DIMDLI
 40
3.75
  9
$DIMRND
 40
0.0
  9
$DIMDLE
 40
0.0
  9
$DIMEXE
 40
1.25
  9
$DIMTP
 40
0.0
  9
$DIMTM
 40
0.0
  9
$DIMTXT
 40
2.5
  9
$DIMCEN
 40
2.5
  9
$DIMTSZ
 40
0.0
  9
$DIMTOL
 70
0
  9
$DIMLIM
 70
0
  9
$DIMTIH
 70
0
  9
$DIMTOH
 70
0
  9
$DIMSE1
 70
0
  9
$DIMSE2
 70
0
  9
$DIMTAD
 70
1
  9
$DIMZIN
 70
8
  9
$DIMBLK
  1

  9
$DIMASO
 70
1
  9
$DIMSHO
 70
1
  9
$DIMPOST
  1

  9
$DIMAPOST
  1

  9
$DIMALT
 70
0
  9
$DIMALTD
 70
3
  9
$DIMALTF
 40
0.03937007874
  9
$DIMLFAC
 40
1.0
  9
$DIMTOFL
 70
1
  9
$DIMTVP
 40
0.0
  9
$DIMTIX
 70
0
  9
$DIMSOXD
 70
0
  9
$DIMSAH
 70
0
  9
$DIMBLK1
  1

  9
$DIMBLK2
  1

  9
$DIMSTYLE
  2
ISO-25
  9
$DIMCLRD
 70
0
  9
$DIMCLRE
 70
0
  9
$DIMCLRT
 70
0
  9
$DIMTFAC
 40
1.0
  9
$DIMGAP
 40
0.625
  9
$DIMJUST
 70
0
  9
$DIMSD1
 70
0
  9
$DIMSD2
 70
0
  9
$DIMTOLJ
 70
0
  9
$DIMTZIN
 70
8
  9
$DIMALTZ
 70
0
  9
$DIMALTTZ
 70
0
  9
$DIMUPT
 70
0
  9
$DIMDEC
 70
2
  9
$DIMTDEC
 70
2
  9
$DIMALTU
 70
2
  9
$DIMALTTD
 70
3
  9
$DIMTXSTY
  7
Standard
  9
$DIMAUNIT
 70
0
  9
$DIMADEC
 70
0
  9
$DIMALTRND
 40
0.0
  9
$DIMAZIN
 70
0
  9
$DIMDSEP
 70
44
  9
$DIMATFIT
 70
3
  9
$DIMFRAC
 70
0
  9
$DIMLDRBLK
  1

  9
$DIMLUNIT
 70
2
  9
$DIMLWD
 70
-2
  9
$DIMLWE
 70
-2
  9
$DIMTMOVE
 70
0
  9
$DIMFXL
 40
1.0
  9
$DIMFXLON
 70
0
  9
$DIMJOGANG
 40
0.785398163397
  9
$DIMTFILL
 70
0
  9
$DIMTFILLCLR
 70
0
  9
$DIMARCSYM
 70
0
  9
$DIMLTYPE
  6

  9
$DIMLTEX1
  6

  9
$DIMLTEX2
  6

  9
$DIMTXTDIRECTION
 70
0
  9
$LUNITS
 70
2
  9
$LUPREC
 70
4
  9
$SKETCHINC
 40
1.0
  9
$FILLETRAD
 40
10.0
  9
$AUNITS
 70
0
  9
$AUPREC
 70
2
  9
$MENU
  1
.
  9
$ELEVATION
 40
0.0
  9
$PELEVATION
 40
0.0
  9
$THICKNESS
 40
0.0
  9
$LIMCHECK
 70
0
  9
$CHAMFERA
 40
0.0
  9
$CHAMFERB
 40
0.0
  9
$CHAMFERC
 40
0.0
  9
$CHAMFERD
 40
0.0
  9
$SKPOLY
 70
0
  9
$TDCREATE
 40
2461315.9833101854
  9
$TDUCREATE
 40
2458532.153996898
  9
$TDUPDATE
 40
2461315.9833101854
  9
$TDUUPDATE
 40
2458532.1544311
  9
$TDINDWG
 40
0.0
  9
$TDUSRTIMER
 40
0.0
  9
$USRTIMER
 70
1
  9
$ANGBASE
 50
0.0
  9
$ANGDIR
 70
0
  9
$PDMODE
 70
0
  9
$PDSIZE
 40
0.0
  9
$PLINEWID
 40
0.0
  9
$SPLFRAME
 70
0
  9
$SPLINETYPE
 70
6
  9
$SPLINESEGS
 70
8
  9
$HANDSEED
  5
1C0
  9
$SURFTAB1
 70
6
  9
$SURFTAB2
 70
6
  9
$SURFTYPE
 70
6
  9
$SURFU
 70
6
  9
$SURFV
 70
6
  9
$UCSBASE
  2

  9
$UCSNAME
  2

  9
$UCSORG
 10
0.0
 20
0.0
 30
0.0
  9
$UCSXDIR
 10
1.0
 20
0.0
 30
0.0
  9
$UCSYDIR
 10
0.0
 20
1.0
 30
0.0
  9
$UCSORTHOREF
  2

  9
$UCSORTHOVIEW
 70
0
  9
$UCSORGTOP
 10
0.0
 20
0.0
 30
0.0
  9
$UCSORGBOTTOM
 10
0.0
 20
0.0
 30
0.0
  9
$UCSORGLEFT
 10
0.0
 20
0.0
 30
0.0
  9
$UCSORGRIGHT
 10
0.0
 20
0.0
 30
0.0
  9
$UCSORGFRONT
 10
0.0
 20
0.0
 30
0.0
  9
$UCSORGBACK
 10
0.0
 20
0.0
 30
0.0
  9
$PUCSBASE
  2

  9
$PUCSNAME
  2

  9
$PUCSORG
 10
0.0
 20
0.0
 30
0.0
  9
$PUCSXDIR
 10
1.0
 20
0.0
 30
0.0
  9
$PUCSYDIR
 10
0.0
 20
1.0
 30
0.0
  9
$PUCSORTHOREF
  2

  9
$PUCSORTHOVIEW
 70
0
  9
$PUCSORGTOP
 10
0.0
 20
0.0
 30
0.0
  9
$PUCSORGBOTTOM
 10
0.0
 20
0.0
 30
0.0
  9
$PUCSORGLEFT
 10
0.0
 20
0.0
 30
0.0
  9
$PUCSORGRIGHT
 10
0.0
 20
0.0
 30
0.0
  9
$PUCSORGFRONT
 10
0.0
 20
0.0
 30
0.0
  9
$PUCSORGBACK
 10
0.0
 20
0.0
 30
0.0
  9
$USERI1
 70
0
  9
$USERI2
 70
0
  9
$USERI3
 70
0
  9
$USERI4
 70
0
  9
$USERI5
 70
0
  9
$USERR1
 40
0.0
  9
$USERR2
 40
0.0
  9
$USERR3
 40
0.0
  9
$USERR4
 40
0.0
  9
$USERR5
 40
0.0
  9
$WORLDVIEW
 70
1
  9
$SHADEDGE
 70
3
  9
$SHADEDIF
 70
70
  9
$TILEMODE
 70
1
  9
$MAXACTVP
 70
64
  9
$PINSBASE
 10
0.0
 20
0.0
 30
0.0
  9
$PLIMCHECK
 70
0
  9
$PEXTMIN
 10
1e+20
 20
1e+20
 30
1e+20
  9
$PEXTMAX
 10
-1e+20
 20
-1e+20
 30
-1e+20
  9
$PLIMMIN
 10
0.0
 20
0.0
  9
$PLIMMAX
 10
420.0
 20
297.0
  9
$UNITMODE
 70
0
  9
$VISRETAIN
 70
1
  9
$PLINEGEN
 70
0
  9
$PSLTSCALE
 70
1
  9
$TREEDEPTH
 70
3020
  9
$CMLSTYLE
  2
Standard
  9
$CMLJUST
 70
0
  9
$CMLSCALE
 40
20.0
  9
$PROXYGRAPHICS
 70
1
  9
$MEASUREMENT
 70
1
  9
$CELWEIGHT
370
-1
  9
$ENDCAPS
280
0
  9
$JOINSTYLE
280
0
  9
$LWDISPLAY
290
0
  9
$INSUNITS
 70
4
  9
$HYPERLINKBASE
  1

  9
$STYLESHEET
  1

  9
$XEDIT
290
1
  9
$CEPSNTYPE
380
0
  9
$PSTYLEMODE
290
1
  9
$FINGERPRINTGUID
  2
{3A04E59E-775F-442C-AAE6-D642272DD1E2}
  9
$VERSIONGUID
  2
{45CAE934-182E-4358-A3CB-EDADCB9E68B2}
  9
$EXTNAMES
290
1
  9
$PSVPSCALE
 40
0.0
  9
$OLESTARTUP
290
0
  9
$SORTENTS
280
127
  9
$INDEXCTL
280
0
  9
$HIDETEXT
280
1
  9
$XCLIPFRAME
280
1
  9
$HALOGAP
280
0
  9
$OBSCOLOR
 70
257
  9
$OBSLTYPE
280
0
  9
$INTERSECTIONDISPLAY
280
0
  9
$INTERSECTIONCOLOR
 70
257
  9
$DIMASSOC
280
2
  9
$PROJECTNAME
  1

  9
$CAMERADISPLAY
290
0
  9
$LENSLENGTH
 40
50.0
  9
$CAMERAHEIGHT
 40
0.0
  9
$STEPSPERSEC
 40
24.0
  9
$STEPSIZE
 40
100.0
  9
$3DDWFPREC
 40
2.0
  9
$PSOLWIDTH
 40
0.005
  9
$PSOLHEIGHT
 40
0.08
  9
$LOFTANG1
 40
1.570796326795
  9
$LOFTANG2
 40
1.570796326795
  9
$LOFTMAG1
 40
0.0
  9
$LOFTMAG2
 40
0.0
  9
$LOFTPARAM
 70
7
  9
$LOFTNORMALS
280
1
  9
$LATITUDE
 40
37.795
  9
$LONGITUDE
 40
-122.394
  9
$NORTHDIRECTION
 40
0.0
  9
$TIMEZONE
 70
-8000
  9
$LIGHTGLYPHDISPLAY
280
1
  9
$TILEMODELIGHTSYNCH
280
1
  9
$CMATERIAL
347
20
  9
$SOLIDHIST
280
0
  9
$SHOWHIST
280
1
  9
$DWFFRAME
280
2
  9
$DGNFRAME
280
2
  9
$REALWORLDSCALE
290
1
  9
$INTERFERECOLOR
 62
256
  9
$CSHADOW
280
0
  9
$SHADOWPLANELOCATION
 40
0.0
  0
ENDSEC
  0
SECTION
  2
CLASSES
  0
CLASS
  1
ACDBDICTIONARYWDFLT
  2
AcDbDictionaryWithDefault
  3
ObjectDBX Classes
 90
0
 91
0
280
0
281
0
  0
CLASS
  1
SUN
  2
AcDbSun
  3
SCENEOE
 90
1153
 91
0
280
0
281
0
  0
CLASS
  1
VISUALSTYLE
  2
AcDbVisualStyle
  3
ObjectDBX Classes
 90
4095
 91
0
280
0
281
0
  0
CLASS
  1
MATERIAL
  2
AcDbMaterial
  3
ObjectDBX Classes
 90
1153
 91
0
280
0
281
0
  0
CLASS
  1
SCALE
  2
AcDbScale
  3
ObjectDBX Classes
 90
1153
 91
0
280
0
281
0
  0
CLASS
  1
TABLESTYLE
  2
AcDbTableStyle
  3
ObjectDBX Classes
 90
4095
 91
0
280
0
281
0
  0
CLASS
  1
MLEADERSTYLE
  2
AcDbMLeaderStyle
  3
ACDB_MLEADERSTYLE_CLASS
 90
4095
 91
0
280
0
281
0
  0
CLASS
  1
DICTIONARYVAR
  2
AcDbDictionaryVar
  3
ObjectDBX Classes
 90
0
 91
0
280
0
281
0
  0
CLASS
  1
CELLSTYLEMAP
  2
AcDbCellStyleMap
  3
ObjectDBX Classes
 90
1152
 91
0
280
0
281
0
  0
CLASS
  1
MENTALRAYRENDERSETTINGS
  2
AcDbMentalRayRenderSettings
  3
SCENEOE
 90
1024
 91
0
280
0
281
0
  0
CLASS
  1
ACDBDETAILVIEWSTYLE
  2
AcDbDetailViewStyle
  3
ObjectDBX Classes
 90
1025
 91
0
280
0
281
0
  0
CLASS
  1
ACDBSECTIONVIEWSTYLE
  2
AcDbSectionViewStyle
  3
ObjectDBX Classes
 90
1025
 91
0
280
0
281
0
  0
CLASS
  1
RASTERVARIABLES
  2
AcDbRasterVariables
  3
ISM
 90
0
 91
0
280
0
281
0
  0
CLASS
  1
LAYOUT
  2
AcDbLayout
  3
ObjectDBX Classes
 90
0
 91
0
280
0
281
0
  0
CLASS
  1
ACDBPLACEHOLDER
  2
AcDbPlaceHolder
  3
ObjectDBX Classes
 90
0
 91
0
280
0
281
0
  0
ENDSEC
  0
SECTION
  2
TABLES
  0
TABLE
  2
VPORT
  5
8
330
0
100
AcDbSymbolTable
 70
1
  0
VPORT
  5
1BC
330
8
100
AcDbSymbolTableRecord
100
AcDbViewportTableRecord
  2
*Active
 70
0
 10
0.0
 20
0.0
 11
1.0
 21
1.0
 12
-1.4210854715202004e-14
 22
-2.315795207104209
 13
0.0
 23
0.0
 14
0.5
 24
0.5
 15
0.5
 25
0.5
 16
0.0
 26
0.0
 36
1.0
 17
0.0
 27
0.0
 37
0.0
 40
65.70111082985045
 41
1.34
 42
50.0
 43
0.0
 44
0.0
 50
0.0
 51
0.0
 71
0
 72
1000
 73
1
 74
3
 75
0
 76
0
 77
0
 78
0
281
0
 65
1
110
0.0
120
0.0
130
0.0
111
1.0
121
0.0
131
0.0
112
0.0
122
1.0
132
0.0
 79
0
146
0.0
  0
ENDTAB
  0
TABLE
  2
LTYPE
  5
2
330
0
100
AcDbSymbolTable
 70
3
  0
LTYPE
  5
24
330
2
100
AcDbSymbolTableRecord
100
AcDbLinetypeTableRecord
  2
ByBlock
 70
0
  3

 72
65
 73
0
 40
0.0
  0
LTYPE
  5
25
330
2
100
AcDbSymbolTableRecord
100
AcDbLinetypeTableRecord
  2
ByLayer
 70
0
  3

 72
65
 73
0
 40
0.0
  0
LTYPE
  5
26
330
2
100
AcDbSymbolTableRecord
100
AcDbLinetypeTableRecord
  2
Continuous
 70
0
  3

 72
65
 73
0
 40
0.0
  0
ENDTAB
  0
TABLE
  2
LAYER
  5
1
330
0
100
AcDbSymbolTable
 70
3
  0
LAYER
  5
27
330
1
100
AcDbSymbolTableRecord
100
AcDbLayerTableRecord
  2
0
 70
0
 62
7
  6
Continuous
370
-3
390
13
347
21
  0
LAYER
  5
28
330
1
100
AcDbSymbolTableRecord
100
AcDbLayerTableRecord
  2
Defpoints
 70
0
 62
7
  6
Continuous
290
0
370
-3
390
13
347
21
  0
LAYER
  5
2F
330
1
100
AcDbSymbolTableRecord
100
AcDbLayerTableRecord
  2
visible
 70
0
 62
7
  6
Continuous
370
-3
390
13
347
21
  0
ENDTAB
  0
TABLE
  2
STYLE
  5
5
330
0
100
AcDbSymbolTable
 70
1
  0
STYLE
  5
29
330
5
100
AcDbSymbolTableRecord
100
AcDbTextStyleTableRecord
  2
Standard
 70
0
 40
0.0
 41
1.0
 50
0.0
 71
0
 42
2.5
  3
txt
  4

  0
ENDTAB
  0
TABLE
  2
VIEW
  5
7
330
0
100
AcDbSymbolTable
 70
0
  0
ENDTAB
  0
TABLE
  2
UCS
  5
6
330
0
100
AcDbSymbolTable
 70
0
  0
ENDTAB
  0
TABLE
  2
APPID
  5
3
330
0
100
AcDbSymbolTable
 70
3
  0
APPID
  5
2A
330
3
100
AcDbSymbolTableRecord
100
AcDbRegAppTableRecord
  2
ACAD
 70
0
  0
APPID
  5
1BD
330
3
100
AcDbSymbolTableRecord
100
AcDbRegAppTableRecord
  2
HATCHBACKGROUNDCOLOR
 70
0
  0
APPID
  5
1BE
330
3
100
AcDbSymbolTableRecord
100
AcDbRegAppTableRecord
  2
EZDXF
 70
0
  0
ENDTAB
  0
TABLE
  2
DIMSTYLE
  5
4
330
0
100
AcDbSymbolTable
 70
1
100
AcDbDimStyleTable
  0
DIMSTYLE
105
2B
330
4
100
AcDbSymbolTableRecord
100
AcDbDimStyleTableRecord
  2
Standard
 70
0
 40
1.0
 41
2.5
 42
0.625
 43
3.75
 44
1.25
 45
0.0
 46
0.0
 47
0.0
 48
0.0
 49
2.5
140
2.5
141
2.5
142
0.0
143
0.03937007874
144
1.0
145
0.0
146
1.0
147
0.625
148
0.0
 69
0
 70
0
 71
0
 72
0
 73
0
 74
0
 75
0
 76
0
 77
1
 78
8
 79
3
170
0
171
3
172
1
173
0
174
0
175
0
176
0
177
0
178
0
179
2
271
2
272
2
273
2
274
3
275
0
276
0
277
2
278
44
279
0
280
0
281
0
282
0
283
0
284
8
285
0
286
0
288
0
289
3
290
0
371
-2
372
-2
  0
ENDTAB
  0
TABLE
  2
BLOCK_RECORD
  5
9
330
0
100
AcDbSymbolTable
 70
2
  0
BLOCK_RECORD
  5
17
330
9
100
AcDbSymbolTableRecord
100
AcDbBlockTableRecord
  2
*Model_Space
340
1A
 70
0
280
1
281
0
  0
BLOCK_RECORD
  5
1B
330
9
100
AcDbSymbolTableRecord
100
AcDbBlockTableRecord
  2
*Paper_Space
340
1E
 70
0
280
1
281
0
  0
ENDTAB
  0
ENDSEC
  0
SECTION
  2
BLOCKS
  0
BLOCK
  5
18
330
17
100
AcDbEntity
  8
0
100
AcDbBlockBegin
  2
*Model_Space
 70
0
 10
0.0
 20
0.0
 30
0.0
  3
*Model_Space
  1

  0
ENDBLK
  5
19
330
17
100
AcDbEntity
  8
0
100
AcDbBlockEnd
  0
BLOCK
  5
1C
330
1B
100
AcDbEntity
  8
0
100
AcDbBlockBegin
  2
*Paper_Space
 70
0
 10
0.0
 20
0.0
 30
0.0
  3
*Paper_Space
  1

  0
ENDBLK
  5
1D
330
1B
100
AcDbEntity
  8
0
100
AcDbBlockEnd
  0
ENDSEC
  0
SECTION
  2
ENTITIES
  0
ELLIPSE
  5
30
330
17
100
AcDbEntity
  8
visible
100
AcDbEllipse
 10
-13.8
 20
-5.10643829105247
 30
0.0
 11
-2.931489836478738
 21
7.443545347388022
 31
0.0
 40
0.7643057746750568
 41
1.095001330556404
 42
1.8868204860811817
  0
LINE
  5
31
330
17
100
AcDbEntity
  8
visible
100
AcDbLine
 10
-20.200000000000003
 20
-3.688651078265934
 30
0.0
 11
-20.6
 21
-3.6000393774667754
 31
0.0
  0
ELLIPSE
  5
32
330
17
100
AcDbEntity
  8
visible
100
AcDbEllipse
 10
-22.2
 20
-8.414608454221067
 30
0.0
 11
-4.763670984277949
 21
12.095761189505536
 31
0.0
 40
0.7643057746750568
 41
1.095001330556404
 42
1.7632373561444519
  0
LINE
  5
33
330
17
100
AcDbEntity
  8
visible
100
AcDbLine
 10
-32.6
 20
-6.110704233442945
 30
0.0
 11
-32.199999999999996
 21
-5.953172320911105
 31
0.0
  0
ELLIPSE
  5
34
330
17
100
AcDbEntity
  8
visible
100
AcDbEllipse
 10
-22.2
 20
-8.414608454221067
 30
0.0
 11
-2.931489836478738
 21
7.443545347388022
 31
0.0
 40
0.7643057746750568
 41
1.095001330556404
 42
1.8868204860811797
  0
LINE
  5
35
330
17
100
AcDbEntity
  8
visible
100
AcDbLine
 10
-31.799999999999997
 20
-6.287927635041264
 30
0.0
 11
-32.6
 21
-6.110704233442946
 31
0.0
  0
LINE
  5
36
330
17
100
AcDbEntity
  8
visible
100
AcDbLine
 10
-31.8
 20
-6.287927635041246
 30
0.0
 11
-31.8
 21
14.252790059350904
 31
0.0
  0
LINE
  5
37
330
17
100
AcDbEntity
  8
visible
100
AcDbLine
 10
-33.480000000000004
 20
14.62495920270736
 30
0.0
 11
-31.800000000000004
 21
14.252790059350893
 31
0.0
  0
LINE
  5
38
330
17
100
AcDbEntity
  8
visible
100
AcDbLine
 10
-33.480000000000004
 20
14.624959202707355
 30
0.0
 11
-33.480000000000004
 21
19.40187029442646
 31
0.0
  0
LINE
  5
39
330
17
100
AcDbEntity
  8
visible
100
AcDbLine
 10
-33.480000000000004
 20
19.40187029442646
 30
0.0
 11
-29.400000000000006
 21
18.498030946275044
 31
0.0
  0
LINE
  5
3A
330
17
100
AcDbEntity
  8
visible
100
AcDbLine
 10
-29.400000000000002
 20
18.49803094627505
 30
0.0
 11
-29.400000000000002
 21
-6.819597839836206
 31
0.0
  0
LINE
  5
3B
330
17
100
AcDbEntity
  8
visible
100
AcDbLine
 10
-28.6
 20
-6.996821241434532
 30
0.0
 11
-29.4
 21
-6.819597839836214
 31
0.0
  0
ELLIPSE
  5
3C
330
17
100
AcDbEntity
  8
visible
100
AcDbEllipse
 10
-40.46
 20
-19.976548524096728
 30
0.0
 11
0.29314898364787356
 21
-0.7443545347388023
 31
0.0
 40
0.7643057746750566
 41
-3.6173876498282858
 42
-3.141592653589793
  0
LINE
  5
3D
330
17
100
AcDbEntity
  8
visible
100
AcDbLine
 10
-40.46
 20
-19.212242749421662
 30
0.0
 11
-33.9
 21
-16.62871938389953
 31
0.0
  0
ELLIPSE
  5
3E
330
17
100
AcDbEntity
  8
visible
100
AcDbEllipse
 10
-38.7
 20
-19.602134232937956
 30
0.0
 11
-2.2
 21
-0.0
 31
0.0
 40
0.295372335997195
 41
-6.9266864159728705
 42
-5.355890089177974
  0
LINE
  5
3F
330
17
100
AcDbEntity
  8
visible
100
AcDbLine
 10
40.46
 20
-17.569972561277254
 30
0.0
 11
31.255784428996265
 21
-21.194866766916093
 31
0.0
  0
ELLIPSE
  5
40
330
17
100
AcDbEntity
  8
visible
100
AcDbEllipse
 10
38.7
 20
-17.18008107776096
 30
0.0
 11
-2.2
 21
-0.0
 31
0.0
 40
0.295372335997195
 41
-3.7850937623830774
 42
-2.214297435588181
  0
LINE
  5
41
330
17
100
AcDbEntity
  8
visible
100
AcDbLine
 10
33.900000000000006
 20
-15.304466744178772
 30
0.0
 11
40.019999999999996
 21
-16.660225766405894
 31
0.0
  0
LINE
  5
42
330
17
100
AcDbEntity
  8
visible
100
AcDbLine
 10
-28.6
 20
-6.9968212414345246
 30
0.0
 11
-28.000000000000004
 21
-6.760523372636768
 31
0.0
  0
LINE
  5
43
330
17
100
AcDbEntity
  8
visible
100
AcDbLine
 10
-28.0
 20
-6.760523372636769
 30
0.0
 11
-20.799999999999997
 21
-3.924948947063696
 31
0.0
  0
LINE
  5
44
330
17
100
AcDbEntity
  8
visible
100
AcDbLine
 10
-20.800000000000004
 20
-3.924948947063693
 30
0.0
 11
-20.200000000000003
 21
-3.6886510782659365
 31
0.0
  0
ELLIPSE
  5
45
330
17
100
AcDbEntity
  8
visible
100
AcDbEllipse
 10
-33.18
 20
14.743108137106248
 30
0.0
 11
-0.10814284064167105
 21
-0.488165060218314
 31
0.0
 40
0.5732293310062926
 41
5.081167277604518
 42
6.283185307179586
  0
ELLIPSE
  5
46
330
17
100
AcDbEntity
  8
visible
100
AcDbEllipse
 10
-33.18
 20
19.520019228825348
 30
0.0
 11
-0.10814284064167105
 21
-0.488165060218314
 31
0.0
 40
0.5732293310062926
 41
3.5103709508096212
 42
5.081167277604518
  0
LINE
  5
47
330
17
100
AcDbEntity
  8
visible
100
AcDbLine
 10
-32.39769145362398
 20
20.305806741748796
 30
0.0
 11
-33.18
 21
19.997710337997255
 31
0.0
  0
ELLIPSE
  5
48
330
17
100
AcDbEntity
  8
visible
100
AcDbEllipse
 10
-29.28
 20
18.66749983015123
 30
0.0
 11
1.2977140877000541
 21
5.857980722619768
 31
0.0
 40
0.5732293310062925
 41
-5.256943453578113
 42
-4.867209458763158
  0
LINE
  5
49
330
17
100
AcDbEntity
  8
visible
100
AcDbLine
 10
-20.800000000000004
 20
-3.9249489470636973
 30
0.0
 11
-20.800000000000004
 21
21.39267983904756
 31
0.0
  0
ELLIPSE
  5
4A
330
17
100
AcDbEntity
  8
visible
100
AcDbEllipse
 10
-21.6
 20
-3.7477255454653857
 30
0.0
 11
1.0
 21
0.0
 31
0.0
 40
0.295372335997195
 41
5.639684198386302
 42
6.283185307179586
  0
ELLIPSE
  5
4B
330
17
100
AcDbEntity
  8
visible
100
AcDbEllipse
 10
-21.6
 20
21.56990324064587
 30
0.0
 11
1.0
 21
0.0
 31
0.0
 40
0.295372335997195
 41
5.639684198386302
 42
6.283185307179586
  0
ELLIPSE
  5
4C
330
17
100
AcDbEntity
  8
visible
100
AcDbEllipse
 10
-31.200000000000003
 20
-6.051629766243494
 30
0.0
 11
1.0
 21
0.0
 31
0.0
 40
0.295372335997195
 41
3.141592653589793
 42
4.068887871591405
  0
LINE
  5
4D
330
17
100
AcDbEntity
  8
visible
100
AcDbLine
 10
5.580000000000002
 20
-30.22372343539709
 30
0.0
 11
-40.019999999999996
 21
-20.121989544293022
 31
0.0
  0
ELLIPSE
  5
4E
330
17
100
AcDbEntity
  8
visible
100
AcDbEllipse
 10
6.900000000000002
 20
-29.703868124042025
 30
0.0
 11
-2.2
 21
-0.0
 31
0.0
 40
0.295372335997195
 41
-5.355890089177974
 42
-3.7850937623830774
  0
LINE
  5
4F
330
17
100
AcDbEntity
  8
visible
100
AcDbLine
 10
20.359999999999996
 20
-25.48595116600208
 30
0.0
 11
8.659999999999997
 21
-30.093759607558326
 31
0.0
  0
LINE
  5
50
330
17
100
AcDbEntity
  8
visible
100
AcDbLine
 10
20.360000000000007
 20
-25.485951166002078
 30
0.0
 11
14.115193236823716
 21
-24.10254379488423
 31
0.0
  0
SPLINE
  5
51
330
17
100
AcDbEntity
  8
visible
100
AcDbSpline
 70
0
 71
2
 72
6
 73
3
 74
0
 40
0.0
 40
0.0
 40
0.0
 40
1.0
 40
1.0
 40
1.0
 10
-32.200000003868254
 20
14.021048137840491
 30
0.0
 10
-32.19999752291604
 20
14.013825174125657
 30
0.0
 10
-32.19453583612807
 20
14.01267713797585
 30
0.0
  0
SPLINE
  5
52
330
17
100
AcDbEntity
  8
visible
100
AcDbSpline
 70
0
 71
3
 72
8
 73
4
 74
0
 40
0.0
 40
0.0
 40
0.0
 40
0.0
 40
1.0
 40
1.0
 40
1.0
 40
1.0
 10
-32.19453583612806
 20
14.01267713797585
 30
0.0
 10
-32.164085822463605
 20
14.008005376189825
 30
0.0
 10
-32.0111750800582
 20
14.122441629324568
 30
0.0
 10
-31.799999999999997
 20
14.2527900593509
 30
0.0
  0
ELLIPSE
  5
53
330
17
100
AcDbEntity
  8
visible
100
AcDbEllipse
 10
-28.800000000000004
 20
-6.583299971038457
 30
0.0
 11
1.0
 21
0.0
 31
0.0
 40
0.295372335997195
 41
4.068887871591405
 42
5.639684198386302
  0
ELLIPSE
  5
54
330
17
100
AcDbEntity
  8
visible
100
AcDbEllipse
 10
-28.800000000000004
 20
18.7343288150728
 30
0.0
 11
1.0
 21
2.9051802600789344e-17
 31
0.0
 40
0.295372335997195
 41
4.068887871591405
 42
5.639684198386302
  0
LINE
  5
55
330
17
100
AcDbEntity
  8
visible
100
AcDbLine
 10
-28.0
 20
18.55710541347449
 30
0.0
 11
-28.0
 21
-6.760523372636769
 31
0.0
  0
ELLIPSE
  5
56
330
17
100
AcDbEntity
  8
visible
100
AcDbEllipse
 10
22.2
 20
-13.081491362976735
 30
0.0
 11
4.763670984277949
 21
-12.095761189505536
 31
0.0
 40
0.7643057746750568
 41
-5.994298125555409
 42
-5.188183976623183
  0
LINE
  5
57
330
17
100
AcDbEntity
  8
visible
100
AcDbLine
 10
32.199999999999996
 20
-15.296783882955697
 30
0.0
 11
32.6
 21
-15.385395583754857
 31
0.0
  0
LINE
  5
58
330
17
100
AcDbEntity
  8
visible
100
AcDbLine
 10
33.48
 20
9.737287460598253
 30
0.0
 11
33.48
 21
4.96037636887915
 31
0.0
  0
LINE
  5
59
330
17
100
AcDbEntity
  8
visible
100
AcDbLine
 10
-28.0
 20
18.55710541347449
 30
0.0
 11
-26.781923788646683
 21
19.036820101434543
 31
0.0
  0
LINE
  5
5A
330
17
100
AcDbEntity
  8
visible
100
AcDbLine
 10
-26.890000000000004
 20
18.894900175790916
 30
0.0
 11
-26.781923788646527
 21
19.03682010143477
 31
0.0
  0
LINE
  5
5B
330
17
100
AcDbEntity
  8
visible
100
AcDbLine
 10
-26.890000000000004
 20
14.31670167399067
 30
0.0
 11
-26.890000000000004
 21
18.8949001757909
 31
0.0
  0
LINE
  5
5C
330
17
100
AcDbEntity
  8
visible
100
AcDbLine
 10
-24.4
 20
13.008238578601262
 30
0.0
 11
-26.89
 21
14.31670167399069
 31
0.0
  0
LINE
  5
5D
330
17
100
AcDbEntity
  8
visible
100
AcDbLine
 10
-21.91
 20
16.277973985012046
 30
0.0
 11
-24.400000000000002
 21
13.008238578601244
 31
0.0
  0
LINE
  5
5E
330
17
100
AcDbEntity
  8
visible
100
AcDbLine
 10
-21.910000000000004
 20
20.856172486812277
 30
0.0
 11
-21.910000000000004
 21
16.277973985012046
 31
0.0
  0
LINE
  5
5F
330
17
100
AcDbEntity
  8
visible
100
AcDbLine
 10
-22.01807621135349
 20
20.91296515108758
 30
0.0
 11
-21.910000000000004
 21
20.85617248681226
 31
0.0
  0
LINE
  5
60
330
17
100
AcDbEntity
  8
visible
100
AcDbLine
 10
-22.01807621135332
 20
20.9129651510875
 30
0.0
 11
-20.799999999999997
 21
21.39267983904756
 31
0.0
  0
LINE
  5
61
330
17
100
AcDbEntity
  8
visible
100
AcDbLine
 10
-27.942308546376026
 20
20.091320311201894
 30
0.0
 11
-26.662308546376025
 21
19.807762868644588
 31
0.0
  0
LINE
  5
62
330
17
100
AcDbEntity
  8
visible
100
AcDbLine
 10
-24.217691453623996
 20
21.558185446376907
 30
0.0
 11
-27.942308546376037
 21
20.091320311201905
 31
0.0
  0
LINE
  5
63
330
17
100
AcDbEntity
  8
visible
100
AcDbLine
 10
-22.93769145362398
 20
21.2746280038196
 30
0.0
 11
-24.217691453623985
 21
21.558185446376907
 31
0.0
  0
LINE
  5
64
330
17
100
AcDbEntity
  8
visible
100
AcDbLine
 10
-29.517691453623982
 20
19.667802495994863
 30
0.0
 11
-23.282308546376022
 21
22.12348198286261
 31
0.0
  0
LINE
  5
65
330
17
100
AcDbEntity
  8
visible
100
AcDbLine
 10
-29.517691453623982
 20
19.667802495994863
 30
0.0
 11
-32.397691453623985
 21
20.305806741748807
 31
0.0
  0
ELLIPSE
  5
66
330
17
100
AcDbEntity
  8
visible
100
AcDbEllipse
 10
-26.400000000000002
 20
18.02949558439728
 30
0.0
 11
-1.2977140877000541
 21
-5.857980722619768
 31
0.0
 40
0.5732293310062925
 41
4.277841516738468
 42
4.557568502006219
  0
ELLIPSE
  5
67
330
17
100
AcDbEntity
  8
visible
100
AcDbEllipse
 10
-26.400000000000002
 20
18.02949558439728
 30
0.0
 11
-1.2977140877000541
 21
-5.857980722619768
 31
0.0
 40
0.5732293310062925
 41
2.4631733996130243
 42
2.701260240201582
  0
ELLIPSE
  5
68
330
17
100
AcDbEntity
  8
visible
100
AcDbEllipse
 10
-26.080000000000002
 20
17.95860622375794
 30
0.0
 11
-0.5731570554008559
 21
-2.5872748191570647
 31
0.0
 40
0.5732293310062925
 41
0.36877829721982824
 42
3.141592653589793
  0
ELLIPSE
  5
69
330
17
100
AcDbEntity
  8
visible
100
AcDbEllipse
 10
-26.080000000000002
 20
17.95860622375794
 30
0.0
 11
-0.5731570554008559
 21
-2.5872748191570647
 31
0.0
 40
0.5732293310062925
 41
3.141592653589793
 42
4.025995128129081
  0
ELLIPSE
  5
6A
330
17
100
AcDbEntity
  8
visible
100
AcDbEllipse
 10
-26.080000000000002
 20
17.95860622375794
 30
0.0
 11
-0.5731570554008559
 21
-2.5872748191570647
 31
0.0
 40
0.5732293310062925
 41
6.1174367358156605
 42
6.283185307179586
  0
ELLIPSE
  5
6B
330
17
100
AcDbEntity
  8
visible
100
AcDbEllipse
 10
-26.080000000000002
 20
17.95860622375794
 30
0.0
 11
-0.5731570554008559
 21
-2.5872748191570647
 31
0.0
 40
0.5732293310062925
 41
0.0
 42
0.36877829721982813
  0
ELLIPSE
  5
6C
330
17
100
AcDbEntity
  8
visible
100
AcDbEllipse
 10
20.360000000000003
 20
-26.250256940677147
 30
0.0
 11
-0.29314898364787356
 21
0.7443545347388023
 31
0.0
 40
0.7643057746750566
 41
4.236593984146197
 42
5.807390310941093
  0
ELLIPSE
  5
6D
330
17
100
AcDbEntity
  8
visible
100
AcDbEllipse
 10
13.8
 20
-16.389661526145332
 30
0.0
 11
2.931489836478738
 21
-7.443545347388022
 31
0.0
 40
0.7643057746750568
 41
-6.283185307179586
 42
-5.188183976623183
  0
ELLIPSE
  5
6E
330
17
100
AcDbEntity
  8
visible
100
AcDbEllipse
 10
13.8
 20
-16.389661526145332
 30
0.0
 11
2.931489836478738
 21
-7.443545347388022
 31
0.0
 40
0.7643057746750568
 41
-0.4239112561231462
 42
-0.0
  0
LINE
  5
6F
330
17
100
AcDbEntity
  8
visible
100
AcDbLine
 10
21.000000000000004
 20
-26.946951767680027
 30
0.0
 11
21.000000000000004
 21
-26.392035661955795
 31
0.0
  0
ELLIPSE
  5
70
330
17
100
AcDbEntity
  8
visible
100
AcDbEllipse
 10
13.8
 20
-16.389661526145332
 30
0.0
 11
4.763670984277949
 21
-12.095761189505536
 31
0.0
 40
0.7643057746750568
 41
-5.994298125555409
 42
-5.188183976623183
  0
LINE
  5
71
330
17
100
AcDbEntity
  8
visible
100
AcDbLine
 10
23.4
 20
-18.516342345325135
 30
0.0
 11
24.200000000000003
 21
-18.693565746923454
 31
0.0
  0
LINE
  5
72
330
17
100
AcDbEntity
  8
visible
100
AcDbLine
 10
23.400000000000002
 20
-18.516342345325118
 30
0.0
 11
23.400000000000002
 21
2.024375349067032
 31
0.0
  0
LINE
  5
73
330
17
100
AcDbEntity
  8
visible
100
AcDbLine
 10
25.080000000000002
 20
1.652206205710569
 30
0.0
 11
23.400000000000002
 21
2.024375349067035
 31
0.0
  0
LINE
  5
74
330
17
100
AcDbEntity
  8
visible
100
AcDbLine
 10
25.08
 20
6.429117297429656
 30
0.0
 11
25.08
 21
1.6522062057105522
 31
0.0
  0
LINE
  5
75
330
17
100
AcDbEntity
  8
visible
100
AcDbLine
 10
25.080000000000002
 20
6.429117297429655
 30
0.0
 11
21.0
 21
7.3329566455810715
 31
0.0
  0
LINE
  5
76
330
17
100
AcDbEntity
  8
visible
100
AcDbLine
 10
21.000000000000004
 20
7.332956645581078
 30
0.0
 11
21.000000000000004
 21
-17.98467214053018
 31
0.0
  0
LINE
  5
77
330
17
100
AcDbEntity
  8
visible
100
AcDbLine
 10
20.200000000000003
 20
-17.807448738931868
 30
0.0
 11
21.0
 21
-17.984672140530186
 31
0.0
  0
LINE
  5
78
330
17
100
AcDbEntity
  8
visible
100
AcDbLine
 10
21.000000000000004
 20
-26.946951767680034
 30
0.0
 11
29.400000000000006
 21
-23.638781604511447
 31
0.0
  0
LINE
  5
79
330
17
100
AcDbEntity
  8
visible
100
AcDbLine
 10
20.200000000000003
 20
-17.80744873893186
 30
0.0
 11
20.6
 21
-17.649916826400023
 31
0.0
  0
LINE
  5
7A
330
17
100
AcDbEntity
  8
visible
100
AcDbLine
 10
24.200000000000003
 20
-18.69356574692344
 30
0.0
 11
24.800000000000004
 21
-18.457267878125684
 31
0.0
  0
LINE
  5
7B
330
17
100
AcDbEntity
  8
visible
100
AcDbLine
 10
32.0
 20
-15.62169345255262
 30
0.0
 11
24.799999999999997
 21
-18.45726787812569
 31
0.0
  0
LINE
  5
7C
330
17
100
AcDbEntity
  8
visible
100
AcDbLine
 10
32.0
 20
-15.62169345255261
 30
0.0
 11
32.6
 21
-15.385395583754853
 31
0.0
  0
ELLIPSE
  5
7D
330
17
100
AcDbEntity
  8
visible
100
AcDbEllipse
 10
31.200000000000003
 20
-15.444470050954308
 30
0.0
 11
-1.0
 21
-0.0
 31
0.0
 40
0.2953723359971949
 41
-3.7850937623830774
 42
-3.141592653589793
  0
ELLIPSE
  5
7E
330
17
100
AcDbEntity
  8
visible
100
AcDbEllipse
 10
33.18
 20
4.8422274344802645
 30
0.0
 11
-0.10814284064167105
 21
-0.488165060218314
 31
0.0
 40
0.5732293310062926
 41
0.36877829721982813
 42
1.9395746240147247
  0
LINE
  5
7F
330
17
100
AcDbEntity
  8
visible
100
AcDbLine
 10
32.39769145362398
 20
4.056439921556811
 30
0.0
 11
33.18
 21
4.364536325308352
 31
0.0
  0
ELLIPSE
  5
80
330
17
100
AcDbEntity
  8
visible
100
AcDbEllipse
 10
29.28
 20
5.6947468331544115
 30
0.0
 11
-1.2977140877000513
 21
-5.857980722619769
 31
0.0
 40
0.5732293310062925
 41
1.0332796557226889
 42
1.4159758484164264
  0
LINE
  5
81
330
17
100
AcDbEntity
  8
visible
100
AcDbLine
 10
31.5
 20
11.081649986527943
 30
0.0
 11
31.5
 21
2.0564479088842695
 31
0.0
  0
ELLIPSE
  5
82
330
17
100
AcDbEntity
  8
visible
100
AcDbEllipse
 10
29.28
 20
5.6947468331544115
 30
0.0
 11
-1.2977140877000513
 21
-5.857980722619769
 31
0.0
 40
0.5732293310062925
 41
2.463173399613024
 42
2.84586959230676
  0
LINE
  5
83
330
17
100
AcDbEntity
  8
visible
100
AcDbLine
 10
32.39769145362398
 20
9.78873323161974
 30
0.0
 11
33.18
 21
10.09682963537128
 31
0.0
  0
ELLIPSE
  5
84
330
17
100
AcDbEntity
  8
visible
100
AcDbEllipse
 10
33.18
 20
9.619138526199364
 30
0.0
 11
-0.10814284064167105
 21
-0.488165060218314
 31
0.0
 40
0.5732293310062926
 41
1.9395746240147251
 42
3.141592653589793
  0
ELLIPSE
  5
85
330
17
100
AcDbEntity
  8
visible
100
AcDbEllipse
 10
33.18
 20
9.619138526199364
 30
0.0
 11
-0.10814284064167105
 21
-0.488165060218314
 31
0.0
 40
0.5732293310062926
 41
3.141592653589793
 42
3.5103709508096217
  0
SPLINE
  5
86
330
17
100
AcDbEntity
  8
visible
100
AcDbSpline
 70
0
 71
2
 72
28
 73
25
 74
0
 40
0.0
 40
0.0
 40
0.0
 40
0.07142857142857142
 40
0.07142857142857142
 40
0.14285714285714285
 40
0.14285714285714285
 40
0.21428571428571427
 40
0.21428571428571427
 40
0.2857142857142857
 40
0.2857142857142857
 40
0.35714285714285715
 40
0.35714285714285715
 40
0.42857142857142855
 40
0.42857142857142855
 40
0.5
 40
0.5
 40
0.5714285714285714
 40
0.5714285714285714
 40
0.6428571428571429
 40
0.6428571428571429
 40
0.7142857142857143
 40
0.7142857142857143
 40
0.8571428571428571
 40
0.8571428571428571
 40
1.0
 40
1.0
 40
1.0
 10
-26.662308546376032
 20
19.807762868644588
 30
0.0
 10
-26.641549266945212
 20
19.80065701005184
 30
0.0
 10
-26.620789987514378
 20
19.793551151459084
 30
0.0
 10
-26.603558999646882
 20
19.78224429863213
 30
0.0
 10
-26.58632801177938
 20
19.770937445805174
 30
0.0
 10
-26.572842005145297
 20
19.755571788978727
 30
0.0
 10
-26.559355998511208
 20
19.74020613215228
 30
0.0
 10
-26.54978456746872
 20
19.720974903376266
 30
0.0
 10
-26.54021313642623
 20
19.70174367460025
 30
0.0
 10
-26.53467664727418
 20
19.67888871773478
 30
0.0
 10
-26.529140158122125
 20
19.656033760869306
 30
0.0
 10
-26.52770823542394
 20
19.629842490257694
 30
0.0
 10
-26.52627631272575
 20
19.603651219646082
 30
0.0
 10
-26.528966963740178
 20
19.574453005712805
 30
0.0
 10
-26.5316576147546
 20
19.545254791779527
 30
0.0
 10
-26.53843700298399
 20
19.513416819005997
 30
0.0
 10
-26.545216391213373
 20
19.481578846232466
 30
0.0
 10
-26.555999261917236
 20
19.447501495599134
 30
0.0
 10
-26.5667821326211
 20
19.413424144965802
 30
0.0
 10
-26.58143288494398
 20
19.377535958929002
 30
0.0
 10
-26.596083637266858
 20
19.341647772892202
 30
0.0
 10
-26.63081580802622
 20
19.267652126985283
 30
0.0
 10
-26.676327354765963
 20
19.19087472794385
 30
0.0
 10
-26.724653592033334
 20
19.11373300358138
 30
0.0
 10
-26.781923788646697
 20
19.036820101434543
 30
0.0
  0
LINE
  5
87
330
17
100
AcDbEntity
  8
visible
100
AcDbLine
 10
-25.80226699371014
 20
13.74511191641347
 30
0.0
 11
-23.590000000000003
 21
16.650143128368498
 31
0.0
  0
LINE
  5
88
330
17
100
AcDbEntity
  8
visible
100
AcDbLine
 10
-23.590000000000003
 20
16.650143128368512
 30
0.0
 11
-21.91
 21
16.277973985012046
 31
0.0
  0
LINE
  5
89
330
17
100
AcDbEntity
  8
visible
100
AcDbLine
 10
-23.590000000000003
 20
16.650143128368512
 30
0.0
 11
-23.590000000000003
 21
21.228341630168742
 31
0.0
  0
LINE
  5
8A
330
17
100
AcDbEntity
  8
visible
100
AcDbLine
 10
-23.590000000000003
 20
21.228341630168742
 30
0.0
 11
-21.91
 21
20.856172486812277
 31
0.0
  0
LINE
  5
8B
330
17
100
AcDbEntity
  8
visible
100
AcDbLine
 10
-23.590000000000003
 20
21.228341630168742
 30
0.0
 11
-24.21769145362399
 21
21.558185446376907
 31
0.0
  0
SPLINE
  5
8C
330
17
100
AcDbEntity
  8
visible
100
AcDbSpline
 70
0
 71
3
 72
11
 73
7
 74
0
 40
0.0
 40
0.0
 40
0.0
 40
0.0
 40
0.5000000000000001
 40
0.5000000000000001
 40
0.5000000000000001
 40
1.0
 40
1.0
 40
1.0
 40
1.0
 10
-22.018076211353314
 20
20.912965151087505
 30
0.0
 10
-22.154775108273967
 20
20.984693245592183
 30
0.0
 10
-22.33194749575973
 20
21.064775014426502
 30
0.0
 10
-22.502656960296164
 20
21.131995238501688
 30
0.0
 10
-22.67321974556452
 20
21.198989292038856
 30
0.0
 10
-22.832277033724825
 20
21.251138676058364
 30
0.0
 10
-22.937691453623966
 20
21.274628003819604
 30
0.0
  0
ELLIPSE
  5
8D
330
17
100
AcDbEntity
  8
visible
100
AcDbEllipse
 10
-32.86
 20
-16.144828907568638
 30
0.0
 11
0.29314898364787356
 21
-0.7443545347388023
 31
0.0
 40
0.7643057746750566
 41
-3.6173876498282858
 42
-3.141592653589793
  0
LINE
  5
8E
330
17
100
AcDbEntity
  8
visible
100
AcDbLine
 10
-32.86
 20
-15.380523132893586
 30
0.0
 11
-3.4599999999999973
 21
-3.8019275618035397
 31
0.0
  0
ELLIPSE
  5
8F
330
17
100
AcDbEntity
  8
visible
100
AcDbEllipse
 10
-3.460000000000001
 20
-4.566233336478589
 30
0.0
 11
0.29314898364787356
 21
-0.7443545347388023
 31
0.0
 40
0.7643057746750566
 41
-3.6173876498282858
 42
-3.141592653589793
  0
LINE
  5
90
330
17
100
AcDbEntity
  8
visible
100
AcDbLine
 10
-25.616537180435962
 20
22.341894221856034
 30
0.0
 11
-25.68889816885145
 21
22.357924297493543
 31
0.0
  0
ELLIPSE
  5
91
330
17
100
AcDbEntity
  8
visible
100
AcDbEllipse
 10
24.0
 20
-18.28004447652738
 30
0.0
 11
-1.0
 21
-0.0
 31
0.0
 40
0.295372335997195
 41
-5.355890089177974
 42
-3.7850937623830774
  0
SPLINE
  5
92
330
17
100
AcDbEntity
  8
visible
100
AcDbSpline
 70
0
 71
3
 72
8
 73
4
 74
0
 40
0.0
 40
0.0
 40
0.0
 40
0.0
 40
1.0
 40
1.0
 40
1.0
 40
1.0
 10
24.178250159328595
 20
1.5244560233648576
 30
0.0
 10
23.891979706421637
 20
1.5899471096308224
 30
0.0
 10
23.610365697944122
 20
1.8006433058032392
 30
0.0
 10
23.400000000000002
 20
2.0243753490670287
 30
0.0
  0
ELLIPSE
  5
93
330
17
100
AcDbEntity
  8
visible
100
AcDbEllipse
 10
25.380000000000003
 20
1.7703551401094444
 30
0.0
 11
0.10814284064167105
 21
0.488165060218314
 31
0.0
 40
0.5732293310062926
 41
-3.1415926535897927
 42
-2.7728143563699645
  0
ELLIPSE
  5
94
330
17
100
AcDbEntity
  8
visible
100
AcDbEllipse
 10
25.380000000000003
 20
1.7703551401094444
 30
0.0
 11
0.10814284064167105
 21
0.488165060218314
 31
0.0
 40
0.5732293310062926
 41
-4.3436106831648615
 42
-3.1415926535897927
  0
ELLIPSE
  5
95
330
17
100
AcDbEntity
  8
visible
100
AcDbEllipse
 10
25.380000000000003
 20
6.547266231828544
 30
0.0
 11
0.10814284064167105
 21
0.488165060218314
 31
0.0
 40
0.5732293310062926
 41
-5.914407009959758
 42
-4.3436106831648615
  0
LINE
  5
96
330
17
100
AcDbEntity
  8
visible
100
AcDbLine
 10
25.38
 20
7.0249573410004515
 30
0.0
 11
26.16230854637602
 21
7.333053744751993
 31
0.0
  0
ELLIPSE
  5
97
330
17
100
AcDbEntity
  8
visible
100
AcDbEllipse
 10
29.28
 20
5.6947468331544115
 30
0.0
 11
-1.2977140877000513
 21
-5.857980722619769
 31
0.0
 40
0.5732293310062925
 41
4.174872309312483
 42
4.557568502006219
  0
LINE
  5
98
330
17
100
AcDbEntity
  8
visible
100
AcDbLine
 10
27.060000000000002
 20
9.33304575742455
 30
0.0
 11
27.060000000000002
 21
0.307843679780877
 31
0.0
  0
ELLIPSE
  5
99
330
17
100
AcDbEntity
  8
visible
100
AcDbEllipse
 10
29.28
 20
5.6947468331544115
 30
0.0
 11
-1.2977140877000513
 21
-5.857980722619769
 31
0.0
 40
0.5732293310062925
 41
5.604766053202816
 42
5.987462245896554
  0
LINE
  5
9A
330
17
100
AcDbEntity
  8
visible
100
AcDbLine
 10
25.38
 20
1.2926640309375235
 30
0.0
 11
26.16230854637602
 21
1.600760434689064
 31
0.0
  0
ELLIPSE
  5
9B
330
17
100
AcDbEntity
  8
visible
100
AcDbEllipse
 10
21.6
 20
-17.748374271732416
 30
0.0
 11
-1.0
 21
-2.9051802600789344e-17
 31
0.0
 40
0.295372335997195
 41
-6.283185307179586
 42
-5.355890089177974
  0
ELLIPSE
  5
9C
330
17
100
AcDbEntity
  8
visible
100
AcDbEllipse
 10
21.6
 20
7.569254514378841
 30
0.0
 11
-1.0
 21
-0.0
 31
0.0
 40
0.2953723359971949
 41
-6.283185307179586
 42
-5.355890089177974
  0
LINE
  5
9D
330
17
100
AcDbEntity
  8
visible
100
AcDbLine
 10
-7.52
 20
-16.107139079446682
 30
0.0
 11
-7.52
 21
-14.902019948578127
 31
0.0
  0
ELLIPSE
  5
9E
330
17
100
AcDbEntity
  8
visible
100
AcDbEllipse
 10
-4.8
 20
-15.504579514012406
 30
0.0
 11
3.4
 21
0.0
 31
0.0
 40
0.295372335997195
 41
2.498091544796509
 42
3.141592653589793
  0
ELLIPSE
  5
9F
330
17
100
AcDbEntity
  8
visible
100
AcDbEllipse
 10
-4.8
 20
-15.504579514012406
 30
0.0
 11
3.4
 21
0.0
 31
0.0
 40
0.295372335997195
 41
3.141592653589793
 42
5.639684198386302
  0
LINE
  5
A0
330
17
100
AcDbEntity
  8
visible
100
AcDbLine
 10
-2.079999999999999
 20
-16.107139079446686
 30
0.0
 11
7.520000000000002
 21
-12.32637317868259
 31
0.0
  0
ELLIPSE
  5
A1
330
17
100
AcDbEntity
  8
visible
100
AcDbEllipse
 10
4.8
 20
-11.72381361324831
 30
0.0
 11
3.4
 21
0.0
 31
0.0
 40
0.295372335997195
 41
5.639684198386302
 42
6.283185307179586
  0
ELLIPSE
  5
A2
330
17
100
AcDbEntity
  8
visible
100
AcDbEllipse
 10
4.8
 20
-11.72381361324831
 30
0.0
 11
3.4
 21
0.0
 31
0.0
 40
0.295372335997195
 41
0.0
 42
2.498091544796509
  0
LINE
  5
A3
330
17
100
AcDbEntity
  8
visible
100
AcDbLine
 10
2.0799999999999996
 20
-14.46880718911558
 30
0.0
 11
2.0799999999999996
 21
-11.121254047814032
 31
0.0
  0
LINE
  5
A4
330
17
100
AcDbEntity
  8
visible
100
AcDbLine
 10
-7.52
 20
-14.902019948578133
 30
0.0
 11
2.080000000000002
 21
-11.121254047814038
 31
0.0
  0
ELLIPSE
  5
A5
330
17
100
AcDbEntity
  8
visible
100
AcDbEllipse
 10
-2.5
 20
-4.0145956437215204
 30
0.0
 11
-1.2
 21
-0.0
 31
0.0
 40
0.295372335997195
 41
-2.214297435588181
 42
-0.6435011087932845
  0
LINE
  5
A6
330
17
100
AcDbEntity
  8
visible
100
AcDbLine
 10
-1.7800000000000011
 20
-3.7310382011642105
 30
0.0
 11
20.600000000000005
 21
-8.68886286087713
 31
0.0
  0
LINE
  5
A7
330
17
100
AcDbEntity
  8
visible
100
AcDbLine
 10
32.2
 20
-11.258602184052727
 30
0.0
 11
32.62
 21
-11.351644469891841
 31
0.0
  0
ELLIPSE
  5
A8
330
17
100
AcDbEntity
  8
visible
100
AcDbEllipse
 10
31.9
 20
-11.635201912449148
 30
0.0
 11
-1.2
 21
-0.0
 31
0.0
 40
0.295372335997195
 41
-3.7850937623830774
 42
-2.214297435588181
  0
LINE
  5
A9
330
17
100
AcDbEntity
  8
visible
100
AcDbLine
 10
32.86
 20
-11.84786999436713
 30
0.0
 11
32.199999999999996
 21
-12.107797650044663
 31
0.0
  0
LINE
  5
AA
330
17
100
AcDbEntity
  8
visible
100
AcDbLine
 10
20.6
 20
-16.676223113467945
 30
0.0
 11
3.4599999999999973
 21
-23.42646556545718
 31
0.0
  0
ELLIPSE
  5
AB
330
17
100
AcDbEntity
  8
visible
100
AcDbEllipse
 10
28.400000000000002
 20
5.889692574912559
 30
0.0
 11
1.2977140877000526
 21
5.857980722619768
 31
0.0
 40
0.5732293310062926
 41
-3.7070072963717795
 42
-3.49554860418338
  0
LINE
  5
AC
330
17
100
AcDbEntity
  8
visible
100
AcDbLine
 10
26.018823820041874
 20
0.6526944981052116
 30
0.0
 11
25.721254921336126
 21
0.5355030037974399
 31
0.0
  0
SPLINE
  5
AD
330
17
100
AcDbEntity
  8
visible
100
AcDbSpline
 70
0
 71
3
 72
11
 73
7
 74
0
 40
0.0
 40
0.0
 40
0.0
 40
0.0
 40
0.5875698726832677
 40
0.5875698726832677
 40
0.5875698726832677
 40
1.0
 40
1.0
 40
1.0
 40
1.0
 10
25.43502809077426
 20
0.04062546636906461
 30
0.0
 10
25.43432747401094
 20
0.16759380976523858
 30
0.0
 10
25.480274992595422
 20
0.3098890761535378
 30
0.0
 10
25.552783045865937
 20
0.40462033076037374
 30
0.0
 10
25.60614437667605
 20
0.47152022792655
 30
0.0
 10
25.66230166849946
 20
0.5151477856055736
 30
0.0
 10
25.721254921336126
 20
0.5355030037974444
 30
0.0
  0
LINE
  5
AE
330
17
100
AcDbEntity
  8
visible
100
AcDbLine
 10
25.43502809077426
 20
-5.882744287362605
 30
0.0
 11
25.43502809077426
 21
0.04062546636907438
 31
0.0
  0
SPLINE
  5
AF
330
17
100
AcDbEntity
  8
visible
100
AcDbSpline
 70
0
 71
3
 72
8
 73
4
 74
0
 40
0.0
 40
0.0
 40
0.0
 40
0.0
 40
0.7736878678757072
 40
0.7736878678757072
 40
0.7736878678757072
 40
0.7736878678757072
 10
25.43502809077426
 20
-5.882744287362612
 30
0.0
 10
25.43293458636162
 20
-6.0528996740344025
 30
0.0
 10
25.516717260975902
 20
-6.176391112715406
 30
0.0
 10
25.62649284915861
 20
-6.1724310095279975
 30
0.0
  0
LINE
  5
B0
330
17
100
AcDbEntity
  8
visible
100
AcDbLine
 10
26.180000000000003
 20
-6.640272603433757
 30
0.0
 11
26.180000000000003
 21
-6.0684835533546595
 31
0.0
  0
LINE
  5
B1
330
17
100
AcDbEntity
  8
visible
100
AcDbLine
 10
30.62
 20
-4.89166837433036
 30
0.0
 11
26.18
 21
-6.640272603433754
 31
0.0
  0
LINE
  5
B2
330
17
100
AcDbEntity
  8
visible
100
AcDbLine
 10
30.62
 20
-4.891668374330364
 30
0.0
 11
30.62
 21
-4.222900821489687
 31
0.0
  0
LINE
  5
B3
330
17
100
AcDbEntity
  8
visible
100
AcDbLine
 10
30.987102446119813
 20
2.170069720346902
 30
0.0
 11
31.500000000000004
 21
2.0564479088842726
 31
0.0
  0
LINE
  5
B4
330
17
100
AcDbEntity
  8
visible
100
AcDbLine
 10
30.22
 20
-4.803056673531202
 30
0.0
 11
30.619999999999997
 21
-4.891668374330361
 31
0.0
  0
LINE
  5
B5
330
17
100
AcDbEntity
  8
visible
100
AcDbLine
 10
30.7
 20
-4.240623161649516
 30
0.0
 11
30.619999999999997
 21
-4.222900821489684
 31
0.0
  0
ELLIPSE
  5
B6
330
17
100
AcDbEntity
  8
visible
100
AcDbEllipse
 10
30.700000000000003
 20
-3.8584702743119976
 30
0.0
 11
-0.14657449182393678
 21
0.37217726736940115
 31
0.0
 40
0.7643057746750566
 41
2.6657976573513005
 42
3.1415926535897927
  0
ELLIPSE
  5
B7
330
17
100
AcDbEntity
  8
visible
100
AcDbEllipse
 10
30.700000000000003
 20
-3.8584702743119976
 30
0.0
 11
-0.14657449182393678
 21
0.37217726736940115
 31
0.0
 40
0.7643057746750566
 41
3.1415926535897927
 42
4.236593984146197
  0
LINE
  5
B8
330
17
100
AcDbEntity
  8
visible
100
AcDbLine
 10
31.02
 20
-3.929359634951329
 30
0.0
 11
31.02
 21
1.9940101187805013
 31
0.0
  0
ELLIPSE
  5
B9
330
17
100
AcDbEntity
  8
visible
100
AcDbEllipse
 10
30.700000000000003
 20
2.0648994794196796
 30
0.0
 11
-0.14657449182393678
 21
0.37217726736940115
 31
0.0
 40
0.7643057746750566
 41
4.236593984146197
 42
4.6940134318664
  0
LINE
  5
BA
330
17
100
AcDbEntity
  8
visible
100
AcDbLine
 10
30.987102446119813
 20
11.195271797990571
 30
0.0
 11
31.500000000000004
 21
11.081649986527943
 31
0.0
  0
ELLIPSE
  5
BB
330
17
100
AcDbEntity
  8
visible
100
AcDbEllipse
 10
30.700000000000003
 20
11.427645219189145
 30
0.0
 11
-0.14657449182393678
 21
0.37217726736940115
 31
0.0
 40
0.7643057746750566
 41
3.779174536426025
 42
4.236593984146197
  0
LINE
  5
BC
330
17
100
AcDbEntity
  8
visible
100
AcDbLine
 10
31.02
 20
11.35675585854981
 30
0.0
 11
31.02
 21
17.280125612281502
 31
0.0
  0
ELLIPSE
  5
BD
330
17
100
AcDbEntity
  8
visible
100
AcDbEllipse
 10
30.700000000000003
 20
17.351014972920822
 30
0.0
 11
-0.14657449182393678
 21
0.37217726736940115
 31
0.0
 40
0.7643057746750566
 41
4.236593984146197
 42
5.807390310941093
  0
LINE
  5
BE
330
17
100
AcDbEntity
  8
visible
100
AcDbLine
 10
30.7
 20
17.733167860258355
 30
0.0
 11
30.22
 21
17.839501901217346
 31
0.0
  0
LINE
  5
BF
330
17
100
AcDbEntity
  8
visible
100
AcDbLine
 10
30.22
 20
-4.803056673531202
 30
0.0
 11
30.22
 21
17.839501901217357
 31
0.0
  0
LINE
  5
C0
330
17
100
AcDbEntity
  8
visible
100
AcDbLine
 10
23.282308546376022
 20
7.97105799050594
 30
0.0
 11
26.162308546376025
 21
7.333053744752
 31
0.0
  0
ELLIPSE
  5
C1
330
17
100
AcDbEntity
  8
visible
100
AcDbEllipse
 10
-31.9
 20
-15.593191214811569
 30
0.0
 11
-1.2
 21
-0.0
 31
0.0
 40
0.295372335997195
 41
-6.9266864159728705
 42
-5.355890089177974
  0
LINE
  5
C2
330
17
100
AcDbEntity
  8
visible
100
AcDbLine
 10
1.7800000000000011
 20
-23.497354926096506
 30
0.0
 11
-32.62
 21
-15.876748657368875
 31
0.0
  0
ELLIPSE
  5
C3
330
17
100
AcDbEntity
  8
visible
100
AcDbEllipse
 10
2.5
 20
-23.213797483539196
 30
0.0
 11
-1.2
 21
-0.0
 31
0.0
 40
0.295372335997195
 41
-5.355890089177974
 42
-3.7850937623830774
  0
SPLINE
  5
C4
330
17
100
AcDbEntity
  8
visible
100
AcDbSpline
 70
0
 71
2
 72
6
 73
3
 74
0
 40
0.0
 40
0.0
 40
0.0
 40
0.47579499623857646
 40
0.47579499623857646
 40
0.47579499623857646
 10
-25.616537180435994
 20
22.341894221856023
 30
0.0
 10
-25.539468710251146
 20
22.324956583272076
 30
0.0
 10
-25.51613409517865
 20
22.33368616687237
 30
0.0
  0
SPLINE
  5
C5
330
17
100
AcDbEntity
  8
visible
100
AcDbSpline
 70
0
 71
3
 72
8
 73
4
 74
0
 40
0.0
 40
0.0
 40
0.0
 40
0.0
 40
1.0
 40
1.0
 40
1.0
 40
1.0
 10
-25.516134095178653
 20
22.333686166872372
 30
0.0
 10
-25.489963734627754
 20
22.343690882897985
 30
0.0
 10
-25.525463694949533
 20
22.380550788841933
 30
0.0
 10
-25.61188307408916
 20
22.433103133113434
 30
0.0
  0
SPLINE
  5
C6
330
17
100
AcDbEntity
  8
visible
100
AcDbSpline
 70
0
 71
3
 72
8
 73
4
 74
0
 40
0.0
 40
0.0
 40
0.0
 40
0.0
 40
1.0
 40
1.0
 40
1.0
 40
1.0
 10
-25.611883074090095
 20
22.433103133113082
 30
0.0
 10
-25.745283084518242
 20
22.293979366716073
 30
0.0
 10
-25.900570223055286
 20
22.181981819348085
 30
0.0
 10
-26.030716921173507
 20
22.131028125034845
 30
0.0
  0
ELLIPSE
  5
C7
330
17
100
AcDbEntity
  8
visible
100
AcDbEllipse
 10
26.400000000000002
 20
6.332751078908359
 30
0.0
 11
-1.2977140877000513
 21
-5.857980722619769
 31
0.0
 40
0.5732293310062925
 41
4.280343516375557
 42
4.557568502006219
  0
SPLINE
  5
C8
330
17
100
AcDbEntity
  8
visible
100
AcDbSpline
 70
0
 71
3
 72
8
 73
4
 74
0
 40
0.0
 40
0.0
 40
0.0
 40
0.0
 40
1.0
 40
1.0
 40
1.0
 40
1.0
 10
26.547102446119794
 20
9.446667569001994
 30
0.0
 10
26.46269182240274
 20
9.361267508766552
 30
0.0
 10
26.36719394917932
 20
9.291156854462047
 30
0.0
 10
26.275970061820615
 20
9.255427809370024
 30
0.0
  0
LINE
  5
C9
330
17
100
AcDbEntity
  8
visible
100
AcDbLine
 10
26.54710244611981
 20
9.44666756888718
 30
0.0
 11
27.060000000000006
 21
9.33304575742455
 31
0.0
  0
ELLIPSE
  5
CA
330
17
100
AcDbEntity
  8
visible
100
AcDbEllipse
 10
26.260000000000005
 20
-5.60707450341539
 30
0.0
 11
-0.14657449182393678
 21
0.37217726736940115
 31
0.0
 40
0.7643057746750566
 41
3.1415926535897927
 42
4.236593984146197
  0
LINE
  5
CB
330
17
100
AcDbEntity
  8
visible
100
AcDbLine
 10
26.580000000000002
 20
-5.677963864054722
 30
0.0
 11
26.580000000000002
 21
0.24540588967710875
 31
0.0
  0
ELLIPSE
  5
CC
330
17
100
AcDbEntity
  8
visible
100
AcDbEllipse
 10
26.260000000000005
 20
0.316295250316287
 30
0.0
 11
-0.14657449182393678
 21
0.37217726736940115
 31
0.0
 40
0.7643057746750566
 41
4.236593984146197
 42
4.694013431866385
  0
LINE
  5
CD
330
17
100
AcDbEntity
  8
visible
100
AcDbLine
 10
26.547102446119826
 20
0.42146549124349264
 30
0.0
 11
27.060000000000006
 21
0.3078436797808659
 31
0.0
  0
ELLIPSE
  5
CE
330
17
100
AcDbEntity
  8
visible
100
AcDbEllipse
 10
26.260000000000005
 20
9.679040990085753
 30
0.0
 11
-0.14657449182393678
 21
0.37217726736940115
 31
0.0
 40
0.7643057746750566
 41
3.7791745364259213
 42
4.236593984146197
  0
LINE
  5
CF
330
17
100
AcDbEntity
  8
visible
100
AcDbLine
 10
26.580000000000002
 20
9.608151629446418
 30
0.0
 11
26.580000000000002
 21
15.531521383178108
 31
0.0
  0
ELLIPSE
  5
D0
330
17
100
AcDbEntity
  8
visible
100
AcDbEllipse
 10
26.260000000000005
 20
15.60241074381743
 30
0.0
 11
-0.14657449182393678
 21
0.37217726736940115
 31
0.0
 40
0.7643057746750566
 41
4.236593984146197
 42
5.807390310941093
  0
LINE
  5
D1
330
17
100
AcDbEntity
  8
visible
100
AcDbLine
 10
26.26
 20
15.984563631154963
 30
0.0
 11
25.78
 21
16.090897672113954
 31
0.0
  0
SPLINE
  5
D2
330
17
100
AcDbEntity
  8
visible
100
AcDbSpline
 70
0
 71
3
 72
8
 73
4
 74
0
 40
0.0
 40
0.0
 40
0.0
 40
0.0
 40
1.0
 40
1.0
 40
1.0
 40
1.0
 10
26.54710244611982
 20
0.42146549112868026
 30
0.0
 10
26.404138463214174
 20
0.5139176315648792
 30
0.0
 10
26.223138223031707
 20
0.6086356199393615
 30
0.0
 10
26.098823820041872
 20
0.6349721579453842
 30
0.0
  0
LINE
  5
D3
330
17
100
AcDbEntity
  8
visible
100
AcDbLine
 10
26.01882382004187
 20
0.6526944981052137
 30
0.0
 11
26.098823820041872
 21
0.6349721579453818
 31
0.0
  0
ELLIPSE
  5
D4
330
17
100
AcDbEntity
  8
visible
100
AcDbEllipse
 10
28.0
 20
-1.6647534710388499
 30
0.0
 11
-0.2379142494116761
 21
-1.073963132480291
 31
0.0
 40
0.5732293310062925
 41
0.36877829721982824
 42
3.141592653589793
  0
ELLIPSE
  5
D5
330
17
100
AcDbEntity
  8
visible
100
AcDbEllipse
 10
28.0
 20
-1.6647534710388499
 30
0.0
 11
-0.2379142494116761
 21
-1.073963132480291
 31
0.0
 40
0.5732293310062925
 41
3.141592653589793
 42
6.283185307179586
  0
ELLIPSE
  5
D6
330
17
100
AcDbEntity
  8
visible
100
AcDbEllipse
 10
28.0
 20
-1.6647534710388499
 30
0.0
 11
-0.2379142494116761
 21
-1.073963132480291
 31
0.0
 40
0.5732293310062925
 41
0.0
 42
0.36877829721982813
  0
ELLIPSE
  5
D7
330
17
100
AcDbEntity
  8
visible
100
AcDbEllipse
 10
28.0
 20
5.9783042757117215
 30
0.0
 11
-0.5407142032083547
 21
-2.4408253010915706
 31
0.0
 40
0.5732293310062925
 41
0.36877829721982824
 42
3.141592653589793
  0
ELLIPSE
  5
D8
330
17
100
AcDbEntity
  8
visible
100
AcDbEllipse
 10
28.0
 20
5.9783042757117215
 30
0.0
 11
-0.5407142032083547
 21
-2.4408253010915706
 31
0.0
 40
0.5732293310062925
 41
3.141592653589793
 42
4.18763935537401
  0
ELLIPSE
  5
D9
330
17
100
AcDbEntity
  8
visible
100
AcDbEllipse
 10
28.0
 20
5.9783042757117215
 30
0.0
 11
-0.5407142032083547
 21
-2.4408253010915706
 31
0.0
 40
0.5732293310062925
 41
5.974695199835025
 42
6.283185307179586
  0
ELLIPSE
  5
DA
330
17
100
AcDbEntity
  8
visible
100
AcDbEllipse
 10
28.0
 20
5.9783042757117215
 30
0.0
 11
-0.5407142032083547
 21
-2.4408253010915706
 31
0.0
 40
0.5732293310062925
 41
0.0
 42
0.36877829721982813
  0
LINE
  5
DB
330
17
100
AcDbEntity
  8
visible
100
AcDbLine
 10
26.180000000000003
 20
-6.3941289901027565
 30
0.0
 11
30.220000000000002
 21
-4.8030566735312
 31
0.0
  0
LINE
  5
DC
330
17
100
AcDbEntity
  8
visible
100
AcDbLine
 10
25.78
 20
16.09089767211395
 30
0.0
 11
30.220000000000002
 21
17.839501901217346
 31
0.0
  0
ELLIPSE
  5
DD
330
17
100
AcDbEntity
  8
visible
100
AcDbEllipse
 10
28.0
 20
13.621362022462279
 30
0.0
 11
-0.2379142494116761
 21
-1.073963132480291
 31
0.0
 40
0.5732293310062925
 41
0.36877829721982824
 42
3.141592653589793
  0
ELLIPSE
  5
DE
330
17
100
AcDbEntity
  8
visible
100
AcDbEllipse
 10
28.0
 20
13.621362022462279
 30
0.0
 11
-0.2379142494116761
 21
-1.073963132480291
 31
0.0
 40
0.5732293310062925
 41
3.141592653589793
 42
6.283185307179586
  0
ELLIPSE
  5
DF
330
17
100
AcDbEntity
  8
visible
100
AcDbEllipse
 10
28.0
 20
13.621362022462279
 30
0.0
 11
-0.2379142494116761
 21
-1.073963132480291
 31
0.0
 40
0.5732293310062925
 41
0.0
 42
0.36877829721982813
  0
ELLIPSE
  5
E0
330
17
100
AcDbEntity
  8
visible
100
AcDbEllipse
 10
-38.7
 20
-23.61473954998202
 30
0.0
 11
-3.0
 21
-0.0
 31
0.0
 40
0.295372335997195
 41
-6.283185307179586
 42
-5.355890089177974
  0
ELLIPSE
  5
E1
330
17
100
AcDbEntity
  8
visible
100
AcDbEllipse
 10
-38.7
 20
-20.366440007613022
 30
0.0
 11
-3.0
 21
-0.0
 31
0.0
 40
0.295372335997195
 41
-6.283185307179586
 42
-5.355890089177974
  0
LINE
  5
E2
330
17
100
AcDbEntity
  8
visible
100
AcDbLine
 10
-40.5
 20
-24.32363315637529
 30
0.0
 11
-40.5
 21
-21.075333614006297
 31
0.0
  0
ELLIPSE
  5
E3
330
17
100
AcDbEntity
  8
visible
100
AcDbEllipse
 10
-40.019999999999996
 20
-24.134594861337078
 30
0.0
 11
-0.1730285450266737
 21
-0.7810640963493025
 31
0.0
 40
0.5732293310062926
 41
5.081167277604518
 42
6.283185307179586
  0
ELLIPSE
  5
E4
330
17
100
AcDbEntity
  8
visible
100
AcDbEllipse
 10
-40.019999999999996
 20
-20.88629531896808
 30
0.0
 11
0.1730285450266737
 21
0.7810640963493025
 31
0.0
 40
0.5732293310062926
 41
-5.914407009959758
 42
-4.3436106831648615
  0
LINE
  5
E5
330
17
100
AcDbEntity
  8
visible
100
AcDbLine
 10
5.100000000000001
 20
-34.425367047479355
 30
0.0
 11
-40.5
 21
-24.323633156375287
 31
0.0
  0
LINE
  5
E6
330
17
100
AcDbEntity
  8
visible
100
AcDbLine
 10
5.100000000000001
 20
-31.177067505110358
 30
0.0
 11
-40.5
 21
-21.07533361400629
 31
0.0
  0
LINE
  5
E7
330
17
100
AcDbEntity
  8
visible
100
AcDbLine
 10
5.100000000000001
 20
-34.42536704747935
 30
0.0
 11
5.100000000000001
 21
-31.177067505110358
 31
0.0
  0
LINE
  5
E8
330
17
100
AcDbEntity
  8
visible
100
AcDbLine
 10
-21.300000000000004
 20
22.165743284216674
 30
0.0
 11
-23.557015440441745
 21
22.665738226485434
 31
0.0
  0
ELLIPSE
  5
E9
330
17
100
AcDbEntity
  8
visible
100
AcDbEllipse
 10
-21.300000000000004
 20
21.68805217504476
 30
0.0
 11
-0.10814284064167105
 21
-0.488165060218314
 31
0.0
 40
0.5732293310062926
 41
3.141592653589793
 42
3.5103709508096217
  0
ELLIPSE
  5
EA
330
17
100
AcDbEntity
  8
visible
100
AcDbEllipse
 10
-29.1
 20
18.616179880673926
 30
0.0
 11
0.10814284064167105
 21
0.488165060218314
 31
0.0
 40
0.5732293310062926
 41
-5.914407009959758
 42
-4.3436106831648615
  0
LINE
  5
EB
330
17
100
AcDbEntity
  8
visible
100
AcDbLine
 10
-33.18
 20
19.997710337997262
 30
0.0
 11
-29.1
 21
19.093870989845847
 31
0.0
  0
ELLIPSE
  5
EC
330
17
100
AcDbEntity
  8
visible
100
AcDbEllipse
 10
5.580000000000002
 20
-34.23632875244115
 30
0.0
 11
-0.1730285450266737
 21
-0.7810640963493025
 31
0.0
 40
0.5732293310062926
 41
5.081167277604518
 42
6.283185307179586
  0
ELLIPSE
  5
ED
330
17
100
AcDbEntity
  8
visible
100
AcDbEllipse
 10
5.580000000000002
 20
-30.988029210072156
 30
0.0
 11
0.1730285450266737
 21
0.7810640963493025
 31
0.0
 40
0.5732293310062926
 41
-5.914407009959758
 42
-4.3436106831648615
  0
LINE
  5
EE
330
17
100
AcDbEntity
  8
visible
100
AcDbLine
 10
9.300000000000004
 20
-34.248143645881036
 30
0.0
 11
9.300000000000004
 21
-30.999844103512046
 31
0.0
  0
ELLIPSE
  5
EF
330
17
100
AcDbEntity
  8
visible
100
AcDbEllipse
 10
6.900000000000002
 20
-33.71647344108609
 30
0.0
 11
-3.0
 21
-0.0
 31
0.0
 40
0.295372335997195
 41
-5.355890089177974
 42
-3.7850937623830774
  0
ELLIPSE
  5
F0
330
17
100
AcDbEntity
  8
visible
100
AcDbEllipse
 10
6.900000000000002
 20
-30.46817389871709
 30
0.0
 11
-3.0
 21
-0.0
 31
0.0
 40
0.295372335997195
 41
-5.355890089177974
 42
-3.7850937623830774
  0
ELLIPSE
  5
F1
330
17
100
AcDbEntity
  8
visible
100
AcDbEllipse
 10
8.660000000000004
 20
-34.10636492460239
 30
0.0
 11
0.29314898364787356
 21
-0.7443545347388023
 31
0.0
 40
0.7643057746750566
 41
-6.283185307179586
 42
-5.188183976623182
  0
ELLIPSE
  5
F2
330
17
100
AcDbEntity
  8
visible
100
AcDbEllipse
 10
40.46
 20
-21.582577878321317
 30
0.0
 11
0.29314898364787356
 21
-0.7443545347388023
 31
0.0
 40
0.7643057746750566
 41
-6.283185307179586
 42
-5.188183976623182
  0
LINE
  5
F3
330
17
100
AcDbEntity
  8
visible
100
AcDbLine
 10
41.1
 20
-21.72435659959997
 30
0.0
 11
9.299999999999997
 21
-34.24814364588104
 31
0.0
  0
ELLIPSE
  5
F4
330
17
100
AcDbEntity
  8
visible
100
AcDbEllipse
 10
38.7
 20
-21.192686394805023
 30
0.0
 11
-3.0
 21
-0.0
 31
0.0
 40
0.295372335997195
 41
-3.7850937623830774
 42
-3.141592653589793
  0
ELLIPSE
  5
F5
330
17
100
AcDbEntity
  8
visible
100
AcDbEllipse
 10
40.019999999999996
 20
-17.424531541080967
 30
0.0
 11
-0.1730285450266737
 21
-0.7810640963493025
 31
0.0
 40
0.5732293310062926
 41
3.141592653589793
 42
3.5103709508096217
  0
LINE
  5
F6
330
17
100
AcDbEntity
  8
visible
100
AcDbLine
 10
41.1
 20
-21.724356599599965
 30
0.0
 11
41.1
 21
-18.476057057230975
 31
0.0
  0
ELLIPSE
  5
F7
330
17
100
AcDbEntity
  8
visible
100
AcDbEllipse
 10
38.7
 20
-17.944386852436025
 30
0.0
 11
-3.0
 21
-0.0
 31
0.0
 40
0.295372335997195
 41
-3.7850937623830774
 42
-3.141592653589793
  0
ELLIPSE
  5
F8
330
17
100
AcDbEntity
  8
visible
100
AcDbEllipse
 10
31.9
 20
-15.647807229493196
 30
0.0
 11
-2.0
 21
-0.0
 31
0.0
 40
0.295372335997195
 41
-3.7850937623830774
 42
-3.141592653589793
  0
ELLIPSE
  5
F9
330
17
100
AcDbEntity
  8
visible
100
AcDbEllipse
 10
32.86
 20
-15.860475311411179
 30
0.0
 11
0.29314898364787356
 21
-0.7443545347388023
 31
0.0
 40
0.7643057746750566
 41
-6.283185307179586
 42
-5.188183976623182
  0
LINE
  5
FA
330
17
100
AcDbEntity
  8
visible
100
AcDbLine
 10
33.5
 20
-16.002254032689834
 30
0.0
 11
32.56679125898607
 21
-16.369779427098212
 31
0.0
  0
LINE
  5
FB
330
17
100
AcDbEntity
  8
visible
100
AcDbLine
 10
19.24209029665804
 20
-21.617443493374083
 30
0.0
 11
4.099999999999998
 21
-27.580849603779882
 31
0.0
  0
ELLIPSE
  5
FC
330
17
100
AcDbEntity
  8
visible
100
AcDbEllipse
 10
3.460000000000001
 20
-27.439070882501227
 30
0.0
 11
0.29314898364787356
 21
-0.7443545347388023
 31
0.0
 40
0.7643057746750566
 41
-6.283185307179586
 42
-5.188183976623182
  0
LINE
  5
FD
330
17
100
AcDbEntity
  8
visible
100
AcDbLine
 10
41.1
 20
-18.476057057230975
 30
0.0
 11
30.22527380343783
 21
-22.758848097242254
 31
0.0
  0
ELLIPSE
  5
FE
330
17
100
AcDbEntity
  8
visible
100
AcDbEllipse
 10
40.46
 20
-18.33427833595232
 30
0.0
 11
-0.29314898364787356
 21
0.7443545347388023
 31
0.0
 40
0.7643057746750566
 41
4.236593984146197
 42
5.807390310941093
  0
ELLIPSE
  5
FF
330
17
100
AcDbEntity
  8
visible
100
AcDbEllipse
 10
-32.62
 20
-19.889353974412927
 30
0.0
 11
-0.1730285450266737
 21
-0.7810640963493025
 31
0.0
 40
0.5732293310062926
 41
5.081167277604518
 42
6.283185307179586
  0
ELLIPSE
  5
100
330
17
100
AcDbEntity
  8
visible
100
AcDbEllipse
 10
-31.9
 20
-19.605796531855617
 30
0.0
 11
-2.0
 21
-0.0
 31
0.0
 40
0.295372335997195
 41
-6.283185307179586
 42
-5.355890089177974
  0
LINE
  5
101
330
17
100
AcDbEntity
  8
visible
100
AcDbLine
 10
-28.4
 20
19.123408223445566
 30
0.0
 11
-26.66230854637603
 21
19.8077628686446
 31
0.0
  0
LINE
  5
102
330
17
100
AcDbEntity
  8
visible
100
AcDbLine
 10
-22.937691453623987
 20
21.2746280038196
 30
0.0
 11
-21.199999999999996
 21
21.958982649018637
 31
0.0
  0
ELLIPSE
  5
103
330
17
100
AcDbEntity
  8
visible
100
AcDbEllipse
 10
-21.6
 20
22.047594349817786
 30
0.0
 11
0.5
 21
0.0
 31
0.0
 40
0.295372335997195
 41
5.639684198386302
 42
7.2104805251811985
  0
ELLIPSE
  5
104
330
17
100
AcDbEntity
  8
visible
100
AcDbEllipse
 10
-28.800000000000004
 20
19.212019924244714
 30
0.0
 11
0.5
 21
1.4525901300394672e-17
 31
0.0
 40
0.295372335997195
 41
4.068887871591405
 42
5.639684198386302
  0
ELLIPSE
  5
105
330
17
100
AcDbEntity
  8
visible
100
AcDbEllipse
 10
-21.200000000000003
 20
21.481291539846723
 30
0.0
 11
-0.18321811477992098
 21
0.4652215842117514
 31
0.0
 40
0.7643057746750566
 41
4.236593984146197
 42
5.807390310941093
  0
ELLIPSE
  5
106
330
17
100
AcDbEntity
  8
visible
100
AcDbEllipse
 10
8.660000000000004
 20
-30.85806538223339
 30
0.0
 11
-0.29314898364787356
 21
0.7443545347388023
 31
0.0
 40
0.7643057746750566
 41
4.236593984146197
 42
5.807390310941093
  0
LINE
  5
107
330
17
100
AcDbEntity
  8
visible
100
AcDbLine
 10
20.999999999999996
 20
-26.392035661955802
 30
0.0
 11
9.299999999999997
 21
-30.999844103512046
 31
0.0
  0
ELLIPSE
  5
108
330
17
100
AcDbEntity
  8
visible
100
AcDbEllipse
 10
2.5
 20
-27.226402800583244
 30
0.0
 11
-2.0
 21
-0.0
 31
0.0
 40
0.295372335997195
 41
-5.355890089177974
 42
-3.7850937623830774
  0
ELLIPSE
  5
109
330
17
100
AcDbEntity
  8
visible
100
AcDbEllipse
 10
1.7800000000000011
 20
-27.509960243140554
 30
0.0
 11
-0.1730285450266737
 21
-0.7810640963493025
 31
0.0
 40
0.5732293310062926
 41
5.081167277604518
 42
6.283185307179586
  0
LINE
  5
10A
330
17
100
AcDbEntity
  8
visible
100
AcDbLine
 10
1.3000000000000007
 20
-27.698998538178756
 30
0.0
 11
-33.099999999999994
 21
-20.078392269451125
 31
0.0
  0
ELLIPSE
  5
10B
330
17
100
AcDbEntity
  8
visible
100
AcDbEllipse
 10
-28.4
 20
18.64571711427365
 30
0.0
 11
-0.18321811477992098
 21
0.4652215842117514
 31
0.0
 40
0.7643057746750566
 41
4.236593984146197
 42
5.807390310941093
  0
LINE
  5
10C
330
17
100
AcDbEntity
  8
visible
100
AcDbLine
 10
33.5
 20
-16.002254032689827
 30
0.0
 11
33.5
 21
-12.753954490320837
 31
0.0
  0
ELLIPSE
  5
10D
330
17
100
AcDbEntity
  8
visible
100
AcDbEllipse
 10
31.9
 20
-12.3995076871242
 30
0.0
 11
-2.0
 21
-0.0
 31
0.0
 40
0.295372335997195
 41
-3.7850937623830774
 42
-3.141592653589793
  0
LINE
  5
10E
330
17
100
AcDbEntity
  8
visible
100
AcDbLine
 10
4.100000000000001
 20
-27.58084960377988
 30
0.0
 11
4.100000000000001
 21
-24.332550061410885
 31
0.0
  0
LINE
  5
10F
330
17
100
AcDbEntity
  8
visible
100
AcDbLine
 10
33.5
 20
-12.753954490320837
 30
0.0
 11
32.199999999999996
 21
-13.26593320604931
 31
0.0
  0
LINE
  5
110
330
17
100
AcDbEntity
  8
visible
100
AcDbLine
 10
20.198112657028748
 20
-17.99263387387409
 30
0.0
 11
4.099999999999998
 21
-24.332550061410885
 31
0.0
  0
LINE
  5
111
330
17
100
AcDbEntity
  8
visible
100
AcDbLine
 10
32.0
 20
-15.62169345255261
 30
0.0
 11
32.0
 21
3.0108269025328553
 31
0.0
  0
LINE
  5
112
330
17
100
AcDbEntity
  8
visible
100
AcDbLine
 10
32.12298455955826
 20
10.33098947524257
 30
0.0
 11
33.18000000000001
 21
10.096829635371284
 31
0.0
  0
ELLIPSE
  5
113
330
17
100
AcDbEntity
  8
visible
100
AcDbEllipse
 10
-31.9
 20
-16.35749698948662
 30
0.0
 11
-2.0
 21
-0.0
 31
0.0
 40
0.295372335997195
 41
-6.283185307179586
 42
-5.355890089177974
  0
LINE
  5
114
330
17
100
AcDbEntity
  8
visible
100
AcDbLine
 10
-33.099999999999994
 20
-20.078392269451125
 30
0.0
 11
-33.099999999999994
 21
-16.830092727082132
 31
0.0
  0
LINE
  5
115
330
17
100
AcDbEntity
  8
visible
100
AcDbLine
 10
24.800000000000004
 20
-18.45726787812568
 30
0.0
 11
24.800000000000004
 21
1.3867202434536239
 31
0.0
  0
ELLIPSE
  5
116
330
17
100
AcDbEntity
  8
visible
100
AcDbEllipse
 10
21.300000000000004
 20
7.451105579979952
 30
0.0
 11
0.10814284064167105
 21
0.488165060218314
 31
0.0
 40
0.5732293310062926
 41
-5.914407009959758
 42
-4.3436106831648615
  0
LINE
  5
117
330
17
100
AcDbEntity
  8
visible
100
AcDbLine
 10
25.380000000000003
 20
7.024957341000458
 30
0.0
 11
21.300000000000004
 21
7.928796689151874
 31
0.0
  0
ELLIPSE
  5
118
330
17
100
AcDbEntity
  8
visible
100
AcDbEllipse
 10
2.5
 20
-23.978103258214247
 30
0.0
 11
-2.0
 21
-0.0
 31
0.0
 40
0.295372335997195
 41
-5.355890089177974
 42
-3.7850937623830774
  0
LINE
  5
119
330
17
100
AcDbEntity
  8
visible
100
AcDbLine
 10
1.3000000000000007
 20
-27.69899853817875
 30
0.0
 11
1.3000000000000007
 21
-24.45069899580976
 31
0.0
  0
LINE
  5
11A
330
17
100
AcDbEntity
  8
visible
100
AcDbLine
 10
1.3000000000000007
 20
-24.45069899580976
 30
0.0
 11
-33.099999999999994
 21
-16.83009272708213
 31
0.0
  0
ELLIPSE
  5
11B
330
17
100
AcDbEntity
  8
visible
100
AcDbEllipse
 10
-1.7800000000000011
 20
-4.495343975839262
 30
0.0
 11
-0.1730285450266737
 21
-0.7810640963493025
 31
0.0
 40
0.5732293310062926
 41
3.141592653589793
 42
3.5103709508096212
  0
ELLIPSE
  5
11C
330
17
100
AcDbEntity
  8
visible
100
AcDbEllipse
 10
32.62
 20
-12.11595024456689
 30
0.0
 11
-0.1730285450266737
 21
-0.7810640963493025
 31
0.0
 40
0.5732293310062926
 41
3.141592653589793
 42
3.5103709508096217
  0
ELLIPSE
  5
11D
330
17
100
AcDbEntity
  8
visible
100
AcDbEllipse
 10
32.86
 20
-12.612175769042182
 30
0.0
 11
-0.29314898364787356
 21
0.7443545347388023
 31
0.0
 40
0.7643057746750566
 41
4.236593984146197
 42
5.807390310941093
  0
ELLIPSE
  5
11E
330
17
100
AcDbEntity
  8
visible
100
AcDbEllipse
 10
3.460000000000001
 20
-24.19077134013223
 30
0.0
 11
-0.29314898364787356
 21
0.7443545347388023
 31
0.0
 40
0.7643057746750566
 41
4.236593984146197
 42
5.807390310941093
  0
LINE
  5
11F
330
17
100
AcDbEntity
  8
visible
100
AcDbLine
 10
21.200000000000003
 20
8.135557324349904
 30
0.0
 11
23.733229689816415
 21
9.133218619147934
 31
0.0
  0
ELLIPSE
  5
120
330
17
100
AcDbEntity
  8
visible
100
AcDbEllipse
 10
21.6
 20
8.046945623550755
 30
0.0
 11
-0.5
 21
-0.0
 31
0.0
 40
0.2953723359971949
 41
-6.9266864159728705
 42
-5.355890089177974
  0
ELLIPSE
  5
121
330
17
100
AcDbEntity
  8
visible
100
AcDbEllipse
 10
-32.62
 20
-16.64105443204393
 30
0.0
 11
0.1730285450266737
 21
0.7810640963493025
 31
0.0
 40
0.5732293310062926
 41
-5.914407009959758
 42
-4.3436106831648615
  0
LINE
  5
122
330
17
100
AcDbEntity
  8
visible
100
AcDbLine
 10
-28.12
 20
21.54119400373311
 30
0.0
 11
-23.080000000000002
 21
23.526096101634263
 31
0.0
  0
ELLIPSE
  5
123
330
17
100
AcDbEntity
  8
visible
100
AcDbEllipse
 10
-23.400000000000006
 20
23.59698546227358
 30
0.0
 11
0.14657449182393678
 21
-0.37217726736940115
 31
0.0
 40
0.7643057746750566
 41
-6.283185307179586
 42
-5.188183976623182
  0
ELLIPSE
  5
124
330
17
100
AcDbEntity
  8
visible
100
AcDbEllipse
 10
-28.440000000000005
 20
21.612083364372438
 30
0.0
 11
0.14657449182393678
 21
-0.37217726736940115
 31
0.0
 40
0.7643057746750566
 41
-6.283185307179586
 42
-5.188183976623182
  0
ELLIPSE
  5
125
330
17
100
AcDbEntity
  8
visible
100
AcDbEllipse
 10
-23.72
 20
23.667874822912907
 30
0.0
 11
0.8
 21
2.3241442080631477e-17
 31
0.0
 40
0.295372335997195
 41
5.639684198386303
 42
6.283185307179586
  0
ELLIPSE
  5
126
330
17
100
AcDbEntity
  8
visible
100
AcDbEllipse
 10
-30.680000000000003
 20
22.108308888847716
 30
0.0
 11
0.8
 21
0.0
 31
0.0
 40
0.295372335997195
 41
3.141592653589793
 42
4.068887871591405
  0
ELLIPSE
  5
127
330
17
100
AcDbEntity
  8
visible
100
AcDbEllipse
 10
-30.920000000000005
 20
22.013789741328623
 30
0.0
 11
-0.08651427251333685
 21
-0.39053204817465126
 31
0.0
 40
0.5732293310062926
 41
5.081167277604518
 42
6.283185307179586
  0
LINE
  5
128
330
17
100
AcDbEntity
  8
visible
100
AcDbLine
 10
-31.160000000000004
 20
21.919270593809514
 30
0.0
 11
-29.240000000000002
 21
21.493934429973553
 31
0.0
  0
ELLIPSE
  5
129
330
17
100
AcDbEntity
  8
visible
100
AcDbEllipse
 10
-29.0
 20
21.588453577492658
 30
0.0
 11
-0.08651427251333685
 21
-0.39053204817465126
 31
0.0
 40
0.5732293310062926
 41
5.081167277604518
 42
6.283185307179586
  0
ELLIPSE
  5
12A
330
17
100
AcDbEntity
  8
visible
100
AcDbEllipse
 10
-28.759999999999998
 20
21.682972725011766
 30
0.0
 11
0.8
 21
0.0
 31
0.0
 40
0.29537233599719503
 41
4.068887871591405
 42
5.639684198386302
  0
ELLIPSE
  5
12B
330
17
100
AcDbEntity
  8
visible
100
AcDbEllipse
 10
-30.680000000000003
 20
28.031678642579394
 30
0.0
 11
0.8
 21
0.0
 31
0.0
 40
0.295372335997195
 41
3.141592653589793
 42
4.068887871591405
  0
LINE
  5
12C
330
17
100
AcDbEntity
  8
visible
100
AcDbLine
 10
-31.160000000000004
 20
21.919270593809504
 30
0.0
 11
-31.160000000000004
 21
27.84264034754119
 31
0.0
  0
ELLIPSE
  5
12D
330
17
100
AcDbEntity
  8
visible
100
AcDbEllipse
 10
-25.959999999999997
 20
30.087470101119877
 30
0.0
 11
0.14657449182393678
 21
-0.37217726736940115
 31
0.0
 40
0.7643057746750566
 41
-3.6173876498282858
 42
-3.141592653589793
  0
LINE
  5
12E
330
17
100
AcDbEntity
  8
visible
100
AcDbLine
 10
-25.959999999999997
 20
30.469622988457402
 30
0.0
 11
-30.999999999999996
 21
28.48472089055625
 31
0.0
  0
ELLIPSE
  5
12F
330
17
100
AcDbEntity
  8
visible
100
AcDbEllipse
 10
-30.999999999999996
 20
28.10256800321872
 30
0.0
 11
0.14657449182393678
 21
-0.37217726736940115
 31
0.0
 40
0.7643057746750566
 41
-3.6173876498282858
 42
-3.141592653589793
  0
ELLIPSE
  5
130
330
17
100
AcDbEntity
  8
visible
100
AcDbEllipse
 10
21.200000000000003
 20
7.6578662151779895
 30
0.0
 11
0.18321811477992098
 21
-0.4652215842117514
 31
0.0
 40
0.7643057746750566
 41
-3.6173876498282858
 42
-3.1415926535897936
  0
ELLIPSE
  5
131
330
17
100
AcDbEntity
  8
visible
100
AcDbEllipse
 10
1.7800000000000011
 20
-24.261660700771557
 30
0.0
 11
0.1730285450266737
 21
0.7810640963493025
 31
0.0
 40
0.5732293310062926
 41
-5.914407009959758
 42
-4.3436106831648615
  0
LINE
  5
132
330
17
100
AcDbEntity
  8
visible
100
AcDbLine
 10
26.09882382004183
 20
0.6349721579453684
 30
0.0
 11
25.960000000000004
 21
0.5802992032549577
 31
0.0
  0
ELLIPSE
  5
133
330
17
100
AcDbEntity
  8
visible
100
AcDbEllipse
 10
25.640000000000004
 20
0.65118856389428
 30
0.0
 11
-0.4
 21
-0.0
 31
0.0
 40
0.295372335997195
 41
-4.507828010196504
 42
-3.7850937623830774
  0
ELLIPSE
  5
134
330
17
100
AcDbEntity
  8
visible
100
AcDbEllipse
 10
25.960000000000004
 20
0.1981463159174126
 30
0.0
 11
-0.14657449182393678
 21
0.37217726736940115
 31
0.0
 40
0.7643057746750566
 41
4.236593984146197
 42
5.807390310941093
  0
ELLIPSE
  5
135
330
17
100
AcDbEntity
  8
visible
100
AcDbEllipse
 10
25.640000000000004
 20
0.2690356765567401
 30
0.0
 11
-0.8
 21
-0.0
 31
0.0
 40
0.295372335997195
 41
-4.971493314682339
 42
-3.7850937623830774
  0
LINE
  5
136
330
17
100
AcDbEntity
  8
visible
100
AcDbLine
 10
26.28
 20
-5.796112798453589
 30
0.0
 11
26.28
 21
0.12725695527810021
 31
0.0
  0
ELLIPSE
  5
137
330
17
100
AcDbEntity
  8
visible
100
AcDbEllipse
 10
25.640000000000004
 20
-5.654334077174937
 30
0.0
 11
-0.8
 21
-0.0
 31
0.0
 40
0.295372335997195
 41
-4.971493314682339
 42
-3.7850937623830774
  0
ELLIPSE
  5
138
330
17
100
AcDbEntity
  8
visible
100
AcDbEllipse
 10
25.960000000000004
 20
-5.725223437814265
 30
0.0
 11
0.14657449182393678
 21
-0.37217726736940115
 31
0.0
 40
0.7643057746750566
 41
-6.283185307179586
 42
-5.188183976623182
  0
ELLIPSE
  5
139
330
17
100
AcDbEntity
  8
visible
100
AcDbEllipse
 10
31.000000000000004
 20
-3.740321339913109
 30
0.0
 11
0.14657449182393678
 21
-0.37217726736940115
 31
0.0
 40
0.7643057746750566
 41
-6.283185307179586
 42
-5.188183976623182
  0
ELLIPSE
  5
13A
330
17
100
AcDbEntity
  8
visible
100
AcDbEllipse
 10
30.680000000000003
 20
-3.6694319792737815
 30
0.0
 11
-0.8
 21
-0.0
 31
0.0
 40
0.295372335997195
 41
-3.7850937623830774
 42
-3.141592653589793
  0
LINE
  5
13B
330
17
100
AcDbEntity
  8
visible
100
AcDbLine
 10
31.32
 20
-3.811210700552434
 30
0.0
 11
31.32
 21
2.096323174243894
 31
0.0
  0
LINE
  5
13C
330
17
100
AcDbEntity
  8
visible
100
AcDbLine
 10
31.294265626930486
 20
2.102024090660619
 30
0.0
 11
31.02
 21
1.994010118780363
 31
0.0
  0
LINE
  5
13D
330
17
100
AcDbEntity
  8
visible
100
AcDbLine
 10
31.32
 20
-3.8112107005524365
 30
0.0
 11
31.02
 21
-3.9293596349513145
 31
0.0
  0
LINE
  5
13E
330
17
100
AcDbEntity
  8
visible
100
AcDbLine
 10
31.32
 20
11.474904792948706
 30
0.0
 11
31.02
 21
11.356755858549828
 31
0.0
  0
ELLIPSE
  5
13F
330
17
100
AcDbEntity
  8
visible
100
AcDbEllipse
 10
31.000000000000004
 20
11.545794153588034
 30
0.0
 11
0.14657449182393678
 21
-0.37217726736940115
 31
0.0
 40
0.7643057746750566
 41
-6.283185307179586
 42
-5.188183976623182
  0
LINE
  5
140
330
17
100
AcDbEntity
  8
visible
100
AcDbLine
 10
31.32
 20
17.398274546680383
 30
0.0
 11
31.02
 21
17.280125612281505
 31
0.0
  0
LINE
  5
141
330
17
100
AcDbEntity
  8
visible
100
AcDbLine
 10
31.32
 20
11.474904792948696
 30
0.0
 11
31.32
 21
17.398274546680383
 31
0.0
  0
LINE
  5
142
330
17
100
AcDbEntity
  8
visible
100
AcDbLine
 10
31.000000000000004
 20
17.851316794657237
 30
0.0
 11
30.700000000000003
 21
17.73316786025836
 31
0.0
  0
ELLIPSE
  5
143
330
17
100
AcDbEntity
  8
visible
100
AcDbEllipse
 10
31.000000000000004
 20
17.46916390731971
 30
0.0
 11
-0.14657449182393678
 21
0.37217726736940115
 31
0.0
 40
0.7643057746750566
 41
4.236593984146197
 42
5.807390310941093
  0
LINE
  5
144
330
17
100
AcDbEntity
  8
visible
100
AcDbLine
 10
23.400000000000002
 20
16.4335295818707
 30
0.0
 11
28.44
 21
18.418431679771853
 31
0.0
  0
ELLIPSE
  5
145
330
17
100
AcDbEntity
  8
visible
100
AcDbEllipse
 10
28.759999999999998
 20
18.347542319132515
 30
0.0
 11
-0.4
 21
-0.0
 31
0.0
 40
0.29537233599719503
 41
-2.214297435588182
 42
-0.6435011087932856
  0
LINE
  5
146
330
17
100
AcDbEntity
  8
visible
100
AcDbLine
 10
29.0
 20
18.442061466651623
 30
0.0
 11
30.92
 21
18.01672530281566
 31
0.0
  0
ELLIPSE
  5
147
330
17
100
AcDbEntity
  8
visible
100
AcDbEllipse
 10
30.680000000000003
 20
17.922206155296564
 30
0.0
 11
-0.4
 21
-0.0
 31
0.0
 40
0.295372335997195
 41
-3.7850937623830774
 42
-2.214297435588181
  0
LINE
  5
148
330
17
100
AcDbEntity
  8
visible
100
AcDbLine
 10
26.260000000000005
 20
15.984563631154964
 30
0.0
 11
25.960000000000004
 21
15.866414696756086
 31
0.0
  0
ELLIPSE
  5
149
330
17
100
AcDbEntity
  8
visible
100
AcDbEllipse
 10
25.640000000000004
 20
15.937304057395409
 30
0.0
 11
-0.4
 21
-0.0
 31
0.0
 40
0.295372335997195
 41
-5.355890089177974
 42
-3.7850937623830774
  0
LINE
  5
14A
330
17
100
AcDbEntity
  8
visible
100
AcDbLine
 10
25.400000000000006
 20
15.8427849098763
 30
0.0
 11
23.480000000000004
 21
16.268121073712262
 31
0.0
  0
ELLIPSE
  5
14B
330
17
100
AcDbEntity
  8
visible
100
AcDbEllipse
 10
23.72
 20
16.362640221231374
 30
0.0
 11
-0.4
 21
-1.1620721040315739e-17
 31
0.0
 40
0.295372335997195
 41
-6.9266864159728705
 42
-5.355890089177974
  0
LINE
  5
14C
330
17
100
AcDbEntity
  8
visible
100
AcDbLine
 10
-28.12
 20
21.5411940037331
 30
0.0
 11
-28.12
 21
27.464563757464788
 31
0.0
  0
LINE
  5
14D
330
17
100
AcDbEntity
  8
visible
100
AcDbLine
 10
-28.12
 20
27.464563757464788
 30
0.0
 11
-23.080000000000002
 21
29.44946585536594
 31
0.0
  0
LINE
  5
14E
330
17
100
AcDbEntity
  8
visible
100
AcDbLine
 10
-23.080000000000002
 20
23.52609610163424
 30
0.0
 11
-23.080000000000002
 21
29.44946585536593
 31
0.0
  0
ELLIPSE
  5
14F
330
17
100
AcDbEntity
  8
visible
100
AcDbEllipse
 10
-23.72
 20
29.591244576644584
 30
0.0
 11
0.8
 21
2.3241442080631477e-17
 31
0.0
 40
0.295372335997195
 41
5.639684198386303
 42
6.283185307179587
  0
LINE
  5
150
330
17
100
AcDbEntity
  8
visible
100
AcDbLine
 10
-29.24
 20
21.49393442997354
 30
0.0
 11
-29.24
 21
27.417304183705227
 31
0.0
  0
LINE
  5
151
330
17
100
AcDbEntity
  8
visible
100
AcDbLine
 10
-31.160000000000004
 20
27.84264034754119
 30
0.0
 11
-29.240000000000002
 21
27.41730418370523
 31
0.0
  0
ELLIPSE
  5
152
330
17
100
AcDbEntity
  8
visible
100
AcDbEllipse
 10
-28.759999999999998
 20
27.606342478743443
 30
0.0
 11
0.8
 21
0.0
 31
0.0
 40
0.29537233599719503
 41
4.068887871591405
 42
5.639684198386302
  0
ELLIPSE
  5
153
330
17
100
AcDbEntity
  8
visible
100
AcDbEllipse
 10
-30.680000000000003
 20
28.41383152991692
 30
0.0
 11
0.4
 21
0.0
 31
0.0
 40
0.295372335997195
 41
2.498091544796509
 42
4.068887871591405
  0
ELLIPSE
  5
154
330
17
100
AcDbEntity
  8
visible
100
AcDbEllipse
 10
-30.920000000000005
 20
27.9371594950603
 30
0.0
 11
0.08651427251333685
 21
0.39053204817465126
 31
0.0
 40
0.5732293310062926
 41
-5.914407009959758
 42
-4.3436106831648615
  0
ELLIPSE
  5
155
330
17
100
AcDbEntity
  8
visible
100
AcDbEllipse
 10
-25.400000000000006
 20
30.111099887999657
 30
0.0
 11
-0.08651427251333685
 21
-0.39053204817465126
 31
0.0
 40
0.5732293310062926
 41
3.141592653589793
 42
3.5103709508096217
  0
ELLIPSE
  5
156
330
17
100
AcDbEntity
  8
visible
100
AcDbEllipse
 10
-25.640000000000004
 20
30.398733627818075
 30
0.0
 11
0.4
 21
0.0
 31
0.0
 40
0.295372335997195
 41
0.9272952180016123
 42
2.498091544796509
  0
LINE
  5
157
330
17
100
AcDbEntity
  8
visible
100
AcDbLine
 10
-28.440000000000005
 20
27.91760600544164
 30
0.0
 11
-23.400000000000006
 21
29.902508103342793
 31
0.0
  0
ELLIPSE
  5
158
330
17
100
AcDbEntity
  8
visible
100
AcDbEllipse
 10
-28.759999999999998
 20
27.98849536608097
 30
0.0
 11
0.4
 21
0.0
 31
0.0
 40
0.29537233599719503
 41
4.068887871591405
 42
5.639684198386302
  0
ELLIPSE
  5
159
330
17
100
AcDbEntity
  8
visible
100
AcDbEllipse
 10
-23.72
 20
29.97339746398211
 30
0.0
 11
0.4
 21
1.1620721040315739e-17
 31
0.0
 40
0.295372335997195
 41
5.639684198386303
 42
7.210480525181199
  0
LINE
  5
15A
330
17
100
AcDbEntity
  8
visible
100
AcDbLine
 10
-30.92
 20
28.319312382397825
 30
0.0
 11
-29.0
 21
27.893976218561864
 31
0.0
  0
LINE
  5
15B
330
17
100
AcDbEntity
  8
visible
100
AcDbLine
 10
-23.479999999999997
 20
30.067916611501218
 30
0.0
 11
-25.4
 21
30.49325277533718
 31
0.0
  0
LINE
  5
15C
330
17
100
AcDbEntity
  8
visible
100
AcDbLine
 10
26.58
 20
9.608151629446434
 30
0.0
 11
26.28
 21
9.490002695047556
 31
0.0
  0
ELLIPSE
  5
15D
330
17
100
AcDbEntity
  8
visible
100
AcDbEllipse
 10
25.960000000000004
 20
9.560892055686878
 30
0.0
 11
0.14657449182393678
 21
-0.37217726736940115
 31
0.0
 40
0.7643057746750566
 41
-6.283185307179586
 42
-5.188183976623182
  0
LINE
  5
15E
330
17
100
AcDbEntity
  8
visible
100
AcDbLine
 10
26.58
 20
-5.677963864054709
 30
0.0
 11
26.28
 21
-5.796112798453587
 31
0.0
  0
LINE
  5
15F
330
17
100
AcDbEntity
  8
visible
100
AcDbLine
 10
26.58
 20
0.2454058896769682
 30
0.0
 11
26.28
 21
0.12725695527809022
 31
0.0
  0
LINE
  5
160
330
17
100
AcDbEntity
  8
visible
100
AcDbLine
 10
26.28
 20
9.490002695047538
 30
0.0
 11
26.28
 21
15.413372448779228
 31
0.0
  0
LINE
  5
161
330
17
100
AcDbEntity
  8
visible
100
AcDbLine
 10
26.58
 20
15.531521383178111
 30
0.0
 11
26.28
 21
15.413372448779233
 31
0.0
  0
ELLIPSE
  5
162
330
17
100
AcDbEntity
  8
visible
100
AcDbEllipse
 10
25.960000000000004
 20
15.484261809418555
 30
0.0
 11
-0.14657449182393678
 21
0.37217726736940115
 31
0.0
 40
0.7643057746750566
 41
4.236593984146197
 42
5.807390310941093
  0
ELLIPSE
  5
163
330
17
100
AcDbEntity
  8
visible
100
AcDbEllipse
 10
30.680000000000003
 20
11.616683514227361
 30
0.0
 11
-0.8
 21
-0.0
 31
0.0
 40
0.295372335997195
 41
-3.7850937623830774
 42
-3.141592653589793
  0
ELLIPSE
  5
164
330
17
100
AcDbEntity
  8
visible
100
AcDbEllipse
 10
30.680000000000003
 20
17.54005326795904
 30
0.0
 11
-0.8
 21
-0.0
 31
0.0
 40
0.295372335997195
 41
-3.7850937623830774
 42
-3.141592653589793
  0
ELLIPSE
  5
165
330
17
100
AcDbEntity
  8
visible
100
AcDbEllipse
 10
30.92
 20
17.634572415478132
 30
0.0
 11
-0.08651427251333685
 21
-0.39053204817465126
 31
0.0
 40
0.5732293310062926
 41
3.141592653589793
 42
3.5103709508096217
  0
ELLIPSE
  5
166
330
17
100
AcDbEntity
  8
visible
100
AcDbEllipse
 10
23.400000000000002
 20
16.051376694533175
 30
0.0
 11
0.14657449182393678
 21
-0.37217726736940115
 31
0.0
 40
0.7643057746750566
 41
-3.6173876498282858
 42
-3.141592653589793
  0
ELLIPSE
  5
167
330
17
100
AcDbEntity
  8
visible
100
AcDbEllipse
 10
28.44
 20
18.036278792434317
 30
0.0
 11
0.14657449182393678
 21
-0.37217726736940115
 31
0.0
 40
0.7643057746750566
 41
-3.6173876498282858
 42
-3.141592653589793
  0
ELLIPSE
  5
168
330
17
100
AcDbEntity
  8
visible
100
AcDbEllipse
 10
29.0
 20
18.059908579314097
 30
0.0
 11
-0.08651427251333704
 21
-0.3905320481746512
 31
0.0
 40
0.5732293310062933
 41
3.141592653589793
 42
3.510370950809622
  0
ELLIPSE
  5
169
330
17
100
AcDbEntity
  8
visible
100
AcDbEllipse
 10
25.640000000000004
 20
15.555151170057883
 30
0.0
 11
-0.8
 21
-0.0
 31
0.0
 40
0.295372335997195
 41
-5.355890089177974
 42
-3.7850937623830774
  0
ELLIPSE
  5
16A
330
17
100
AcDbEntity
  8
visible
100
AcDbEllipse
 10
25.400000000000002
 20
15.460632022538775
 30
0.0
 11
0.08651427251333685
 21
0.39053204817465126
 31
0.0
 40
0.5732293310062926
 41
-5.914407009959758
 42
-4.3436106831648615
  0
LINE
  5
16B
330
17
100
AcDbEntity
  8
visible
100
AcDbLine
 10
25.160000000000004
 20
15.366112875019681
 30
0.0
 11
23.240000000000002
 21
15.791449038855642
 31
0.0
  0
ELLIPSE
  5
16C
330
17
100
AcDbEntity
  8
visible
100
AcDbEllipse
 10
23.479999999999997
 20
15.88596818637474
 30
0.0
 11
0.08651427251333685
 21
0.39053204817465126
 31
0.0
 40
0.5732293310062926
 41
-5.914407009959758
 42
-4.3436106831648615
  0
ELLIPSE
  5
16D
330
17
100
AcDbEntity
  8
visible
100
AcDbEllipse
 10
23.72
 20
15.980487333893848
 30
0.0
 11
-0.8
 21
-2.3241442080631477e-17
 31
0.0
 40
0.295372335997195
 41
-6.283185307179586
 42
-5.355890089177974
  0
ELLIPSE
  5
16E
330
17
100
AcDbEntity
  8
visible
100
AcDbEllipse
 10
25.640000000000004
 20
9.631781416326206
 30
0.0
 11
-0.8
 21
-0.0
 31
0.0
 40
0.295372335997195
 41
-5.355890089177974
 42
-3.7850937623830774
  0
ELLIPSE
  5
16F
330
17
100
AcDbEntity
  8
visible
100
AcDbEllipse
 10
25.400000000000002
 20
9.537262268807098
 30
0.0
 11
-0.08651427251333685
 21
-0.39053204817465126
 31
0.0
 40
0.5732293310062926
 41
5.081167277604518
 42
6.283185307179586
  0
LINE
  5
170
330
17
100
AcDbEntity
  8
visible
100
AcDbLine
 10
25.160000000000004
 20
9.442743121288004
 30
0.0
 11
23.240000000000002
 21
9.868079285123965
 31
0.0
  0
ELLIPSE
  5
171
330
17
100
AcDbEntity
  8
visible
100
AcDbEllipse
 10
23.479999999999997
 20
9.962598432643063
 30
0.0
 11
-0.08651427251333685
 21
-0.39053204817465126
 31
0.0
 40
0.5732293310062926
 41
5.081167277604518
 42
6.283185307179586
  0
ELLIPSE
  5
172
330
17
100
AcDbEntity
  8
visible
100
AcDbEllipse
 10
23.72
 20
10.05711758016217
 30
0.0
 11
-0.8
 21
-2.3241442080631477e-17
 31
0.0
 40
0.295372335997195
 41
-6.283185307179586
 42
-5.355890089177974
  0
ELLIPSE
  5
173
330
17
100
AcDbEntity
  8
visible
100
AcDbEllipse
 10
-28.440000000000005
 20
27.535453118104115
 30
0.0
 11
-0.14657449182393678
 21
0.37217726736940115
 31
0.0
 40
0.7643057746750566
 41
4.236593984146197
 42
5.807390310941093
  0
ELLIPSE
  5
174
330
17
100
AcDbEntity
  8
visible
100
AcDbEllipse
 10
-23.400000000000006
 20
29.520355216005257
 30
0.0
 11
-0.14657449182393678
 21
0.37217726736940115
 31
0.0
 40
0.7643057746750566
 41
4.236593984146197
 42
5.807390310941093
  0
ELLIPSE
  5
175
330
17
100
AcDbEntity
  8
visible
100
AcDbEllipse
 10
-23.479999999999997
 20
29.685763724163692
 30
0.0
 11
-0.08651427251333667
 21
-0.39053204817465126
 31
0.0
 40
0.5732293310062917
 41
3.141592653589794
 42
3.5103709508096212
  0
ELLIPSE
  5
176
330
17
100
AcDbEntity
  8
visible
100
AcDbEllipse
 10
-29.0
 20
27.511823331224335
 30
0.0
 11
0.08651427251333685
 21
0.39053204817465126
 31
0.0
 40
0.5732293310062926
 41
-5.914407009959758
 42
-4.3436106831648615
  0
LINE
  5
177
330
17
100
AcDbEntity
  8
visible
100
AcDbLine
 10
25.160000000000004
 20
9.442743121287993
 30
0.0
 11
25.160000000000004
 21
15.366112875019681
 31
0.0
  0
LINE
  5
178
330
17
100
AcDbEntity
  8
visible
100
AcDbLine
 10
23.24
 20
9.868079285123956
 30
0.0
 11
23.24
 21
15.791449038855646
 31
0.0
  0
LINE
  5
179
330
17
100
AcDbEntity
  8
visible
100
AcDbLine
 10
-41.7
 20
-23.614739549982016
 30
0.0
 11
-41.7
 21
-20.36644000761302
 31
0.0
  0
LINE
  5
17A
330
17
100
AcDbEntity
  8
visible
100
AcDbLine
 10
-40.753148983647876
 20
-19.23219398935791
 30
0.0
 11
-33.9
 21
-16.53321982370874
 31
0.0
  0
SPLINE
  5
17B
330
17
100
AcDbEntity
  8
visible
100
AcDbSpline
 70
0
 71
3
 72
17
 73
13
 74
0
 40
0.0
 40
0.0
 40
0.0
 40
0.0
 40
0.14235496799877917
 40
0.14235496799877917
 40
0.14235496799877917
 40
0.28470993599755834
 40
0.28470993599755834
 40
0.28470993599755834
 40
0.5605817790155704
 40
0.5605817790155704
 40
0.5605817790155704
 40
1.0
 40
1.0
 40
1.0
 40
1.0
 10
-40.19302854502668
 20
-24.915658957686375
 30
0.0
 10
-40.33245584175389
 20
-24.8848693892487
 30
0.0
 10
-40.464082654511714
 20
-24.849151302036624
 30
0.0
 10
-40.587908983300196
 20
-24.808504696050164
 30
0.0
 10
-40.782352857365744
 20
-24.745700077813705
 30
0.0
 10
-40.95733574283895
 20
-24.666505328914305
 30
0.0
 10
-41.11285763971978
 20
-24.570920449351934
 30
0.0
 10
-41.24363551880266
 20
-24.490773976785963
 30
0.0
 10
-41.35766389588085
 20
-24.392873436729698
 30
0.0
 10
-41.45494277095443
 20
-24.27721882918325
 30
0.0
 10
-41.60826691338221
 20
-24.093390800298337
 30
0.0
 10
-41.70111384937918
 20
-23.856024434877313
 30
0.0
 10
-41.7
 20
-23.61473954998202
 30
0.0
  0
SPLINE
  5
17C
330
17
100
AcDbEntity
  8
visible
100
AcDbSpline
 70
0
 71
3
 72
14
 73
10
 74
0
 40
0.0
 40
0.0
 40
0.0
 40
0.0
 40
0.49943802087716815
 40
0.49943802087716815
 40
0.49943802087716815
 40
0.7116469501178371
 40
0.7116469501178371
 40
0.7116469501178371
 40
1.0
 40
1.0
 40
1.0
 40
1.0
 10
-41.7
 20
-20.366440007613022
 30
0.0
 10
-41.70110409886917
 20
-20.12577180975192
 30
0.0
 10
-41.60874725503705
 20
-19.888974238284483
 30
0.0
 10
-41.456096490235346
 20
-19.70536111588025
 30
0.0
 10
-41.391062529948215
 20
-19.626940997896735
 30
0.0
 10
-41.317746175766345
 20
-19.556906224982885
 30
0.0
 10
-41.236147427689716
 20
-19.49525679713871
 30
0.0
 10
-41.09400595304956
 20
-19.389088921445484
 30
0.0
 10
-40.93300647170231
 20
-19.301401318851887
 30
0.0
 10
-40.75314898364788
 20
-19.23219398935791
 30
0.0
  0
LINE
  5
17D
330
17
100
AcDbEntity
  8
visible
100
AcDbLine
 10
-21.19185715935833
 20
22.176217235263067
 30
0.0
 11
-23.581410783647122
 21
22.705573262260625
 31
0.0
  0
LINE
  5
17E
330
17
100
AcDbEntity
  8
visible
100
AcDbLine
 10
-20.6
 20
-3.747725545465375
 30
0.0
 11
-20.6
 21
21.569903240645882
 31
0.0
  0
LINE
  5
17F
330
17
100
AcDbEntity
  8
visible
100
AcDbLine
 10
-32.199999999999996
 20
-6.051629766243497
 30
0.0
 11
-32.199999999999996
 21
14.01388760733371
 31
0.0
  0
LINE
  5
180
330
17
100
AcDbEntity
  8
visible
100
AcDbLine
 10
-33.28814284064167
 20
14.254943076887928
 30
0.0
 11
-32.19453583837
 21
14.012677135695021
 31
0.0
  0
LINE
  5
181
330
17
100
AcDbEntity
  8
visible
100
AcDbLine
 10
5.406971454973327
 20
-35.01739284879046
 30
0.0
 11
-40.19302854502668
 21
-24.91565895768639
 31
0.0
  0
SPLINE
  5
182
330
17
100
AcDbEntity
  8
visible
100
AcDbSpline
 70
0
 71
3
 72
17
 73
13
 74
0
 40
0.0
 40
0.0
 40
0.0
 40
0.0
 40
0.1123703186954662
 40
0.1123703186954662
 40
0.1123703186954662
 40
0.2247406373909324
 40
0.2247406373909324
 40
0.2247406373909324
 40
0.5176304614830635
 40
0.5176304614830635
 40
0.5176304614830635
 40
1.0
 40
1.0
 40
1.0
 40
1.0
 10
8.953148983647875
 20
-34.85071945934119
 30
0.0
 10
8.723591947269433
 20
-34.93999136806848
 30
0.0
 10
8.464207531731205
 20
-35.01001561155913
 30
0.0
 10
8.174995737033148
 20
-35.060792189813014
 30
0.0
 10
8.066307672375348
 20
-35.08010665100281
 30
0.0
 10
7.954367430202121
 20
-35.096806605138994
 30
0.0
 10
7.8391750105135065
 20
-35.11089205222164
 30
0.0
 10
7.5361400043277404
 20
-35.14772551548791
 30
0.0
 10
7.223099093830063
 20
-35.16619273144092
 30
0.0
 10
6.900052279020461
 20
-35.16629370008061
 30
0.0
 10
6.372672848098426
 20
-35.166350622029434
 30
0.0
 10
5.849196135848893
 20
-35.11550687567997
 30
0.0
 10
5.406971454973326
 20
-35.01739284879044
 30
0.0
  0
LINE
  5
183
330
17
100
AcDbEntity
  8
visible
100
AcDbLine
 10
40.753148983647876
 20
-22.32693241306012
 30
0.0
 11
8.953148983647871
 21
-34.85071945934119
 31
0.0
  0
SPLINE
  5
184
330
17
100
AcDbEntity
  8
visible
100
AcDbSpline
 70
0
 71
3
 72
14
 73
10
 74
0
 40
0.0
 40
0.0
 40
0.0
 40
0.0
 40
0.4994380208771788
 40
0.4994380208771788
 40
0.4994380208771788
 40
0.7116469501178273
 40
0.7116469501178273
 40
0.7116469501178273
 40
1.0
 40
1.0
 40
1.0
 40
1.0
 10
41.7
 20
-21.192686394805023
 30
0.0
 10
41.701104098869166
 20
-21.4333545926661
 30
0.0
 10
41.60874725503706
 20
-21.67015216413354
 30
0.0
 10
41.45609649023534
 20
-21.85376528653778
 30
0.0
 10
41.39106252994822
 20
-21.932185404521285
 30
0.0
 10
41.31774617576634
 20
-22.00222017743515
 30
0.0
 10
41.23614742768971
 20
-22.063869605279322
 30
0.0
 10
41.09400595304955
 20
-22.170037480972535
 30
0.0
 10
40.93300647170229
 20
-22.257725083566143
 30
0.0
 10
40.753148983647876
 20
-22.32693241306012
 30
0.0
  0
LINE
  5
185
330
17
100
AcDbEntity
  8
visible
100
AcDbLine
 10
33.89999999999999
 20
-15.24937753835048
 30
0.0
 11
40.19302854502668
 21
-16.643467444731648
 31
0.0
  0
LINE
  5
186
330
17
100
AcDbEntity
  8
visible
100
AcDbLine
 10
41.7
 20
-21.19268639480502
 30
0.0
 11
41.7
 21
-17.944386852436022
 31
0.0
  0
SPLINE
  5
187
330
17
100
AcDbEntity
  8
visible
100
AcDbSpline
 70
0
 71
3
 72
14
 73
10
 74
0
 40
0.0
 40
0.0
 40
0.0
 40
0.0
 40
0.3333333333333333
 40
0.3333333333333333
 40
0.3333333333333333
 40
0.6666666666666666
 40
0.6666666666666666
 40
0.6666666666666666
 40
1.0
 40
1.0
 40
1.0
 40
1.0
 10
33.9
 20
-15.647807229493196
 30
0.0
 10
33.90045172584972
 20
-15.833851757656957
 30
0.0
 10
33.84106847018752
 20
-16.018974419395725
 30
0.0
 10
33.73449923594063
 20
-16.172630882245514
 30
0.0
 10
33.67444606857483
 20
-16.258891124229628
 30
0.0
 10
33.60293395822021
 20
-16.33456520075369
 30
0.0
 10
33.5199629048767
 20
-16.399653111817685
 30
0.0
 10
33.40956103404927
 20
-16.48502856449409
 30
0.0
 10
33.287289726973064
 20
-16.553420809271536
 30
0.0
 10
33.15314898364788
 20
-16.604829846149997
 30
0.0
  0
LINE
  5
188
330
17
100
AcDbEntity
  8
visible
100
AcDbLine
 10
33.153148983647874
 20
-16.604829846149997
 30
0.0
 11
32.52558806299724
 21
-16.85198202630084
 31
0.0
  0
LINE
  5
189
330
17
100
AcDbEntity
  8
visible
100
AcDbLine
 10
18.812123387995005
 20
-22.252752820528066
 30
0.0
 11
3.753148983647872
 21
-28.183425417240045
 31
0.0
  0
SPLINE
  5
18A
330
17
100
AcDbEntity
  8
visible
100
AcDbSpline
 70
0
 71
3
 72
17
 73
13
 74
0
 40
0.0
 40
0.0
 40
0.0
 40
0.0
 40
0.14235496799877362
 40
0.14235496799877362
 40
0.14235496799877362
 40
0.28470993599754724
 40
0.28470993599754724
 40
0.28470993599754724
 40
0.5605817790155665
 40
0.5605817790155665
 40
0.5605817790155665
 40
1.0
 40
1.0
 40
1.0
 40
1.0
 10
40.19302854502668
 20
-16.643467444731655
 30
0.0
 10
40.33245584175389
 20
-16.67425701316932
 30
0.0
 10
40.464082654511714
 20
-16.709975100381413
 30
0.0
 10
40.587908983300196
 20
-16.75062170636788
 30
0.0
 10
40.78235285736575
 20
-16.813426324604308
 30
0.0
 10
40.95733574283897
 20
-16.8926210735037
 30
0.0
 10
41.11285763971977
 20
-16.9882059530661
 30
0.0
 10
41.24363551880262
 20
-17.068352425632078
 30
0.0
 10
41.35766389588086
 20
-17.16625296568833
 30
0.0
 10
41.45494277095443
 20
-17.281907573234783
 30
0.0
 10
41.6082669133822
 20
-17.46573560211972
 30
0.0
 10
41.701113849379155
 20
-17.703101967540697
 30
0.0
 10
41.7
 20
-17.944386852436025
 30
0.0
  0
SPLINE
  5
18B
330
17
100
AcDbEntity
  8
visible
100
AcDbSpline
 70
0
 71
3
 72
17
 73
13
 74
0
 40
0.0
 40
0.0
 40
0.0
 40
0.0
 40
0.25
 40
0.25
 40
0.25
 40
0.5
 40
0.5
 40
0.5
 40
0.75
 40
0.75
 40
0.75
 40
1.0
 40
1.0
 40
1.0
 40
1.0
 10
-32.79302854502667
 20
-20.67041807076221
 30
0.0
 10
-32.95793826148595
 20
-20.63476963158058
 30
0.0
 10
-33.110034815295144
 20
-20.585190637255945
 30
0.0
 10
-33.249318206454156
 20
-20.521681087788295
 30
0.0
 10
-33.348866969085876
 20
-20.476175152835467
 30
0.0
 10
-33.44096100952217
 20
-20.4200014354074
 30
0.0
 10
-33.525600327762966
 20
-20.35315993550411
 30
0.0
 10
-33.60587770479939
 20
-20.28934775738384
 30
0.0
 10
-33.675263072468475
 20
-20.21552645641875
 30
0.0
 10
-33.73375643077025
 20
-20.131696032608843
 30
0.0
 10
-33.84078565597954
 20
-19.977823554622496
 30
0.0
 10
-33.90045594802581
 20
-19.792276501179177
 30
0.0
 10
-33.9
 20
-19.605796531855617
 30
0.0
  0
SPLINE
  5
18C
330
17
100
AcDbEntity
  8
visible
100
AcDbSpline
 70
0
 71
3
 72
17
 73
13
 74
0
 40
0.0
 40
0.0
 40
0.0
 40
0.0
 40
0.2178011962144214
 40
0.2178011962144214
 40
0.2178011962144214
 40
0.4356023924288428
 40
0.4356023924288428
 40
0.4356023924288428
 40
0.7821988037855786
 40
0.7821988037855786
 40
0.7821988037855786
 40
1.0
 40
1.0
 40
1.0
 40
1.0
 10
-20.599999999999998
 20
21.56990324064587
 30
0.0
 10
-20.599552164595554
 20
21.704781997066235
 30
0.0
 10
-20.651682318080397
 20
21.83871873876044
 30
0.0
 10
-20.744050291468835
 20
21.941118826216876
 30
0.0
 10
-20.761517871663443
 20
21.960615396471145
 30
0.0
 10
-20.78022903810923
 20
21.97897061372267
 30
0.0
 10
-20.800183790806212
 20
21.99618447797144
 30
0.0
 10
-20.832057750726378
 20
22.02356970407652
 30
0.0
 10
-20.86626680112977
 20
22.047837149048423
 30
0.0
 10
-20.902810942016497
 20
22.06898681288725
 30
0.0
 10
-20.992018585599553
 20
22.118965107573427
 30
0.0
 10
-21.088367324713506
 20
22.15470858169871
 30
0.0
 10
-21.191857159358328
 20
22.176217235263067
 30
0.0
  0
SPLINE
  5
18D
330
17
100
AcDbEntity
  8
visible
100
AcDbSpline
 70
0
 71
3
 72
11
 73
7
 74
0
 40
0.0
 40
0.0
 40
0.0
 40
0.0
 40
0.5951216209985117
 40
0.5951216209985117
 40
0.5951216209985117
 40
1.0
 40
1.0
 40
1.0
 40
1.0
 10
3.7531489836478755
 20
-28.183425417240045
 30
0.0
 10
3.4058814405642446
 20
-28.319267109963565
 30
0.0
 10
2.9618035845372916
 20
-28.379564906993014
 30
0.0
 10
2.500030817073239
 20
-28.380851475506418
 30
0.0
 10
2.187701821708963
 20
-28.380766825928827
 30
0.0
 10
1.8780608431924566
 20
-28.351042321432953
 30
0.0
 10
1.6069714549733265
 20
-28.29102433948985
 30
0.0
  0
LINE
  5
18E
330
17
100
AcDbEntity
  8
visible
100
AcDbLine
 10
1.6069714549733263
 20
-28.29102433948985
 30
0.0
 11
-32.79302854502667
 21
-20.67041807076222
 31
0.0
  0
LINE
  5
18F
330
17
100
AcDbEntity
  8
visible
100
AcDbLine
 10
33.9
 20
-15.647807229493193
 30
0.0
 11
33.9
 21
-12.399507687124196
 31
0.0
  0
LINE
  5
190
330
17
100
AcDbEntity
  8
visible
100
AcDbLine
 10
32.199999999999996
 20
-15.444470050954283
 30
0.0
 11
32.199999999999996
 21
3.4919567384296357
 31
0.0
  0
LINE
  5
191
330
17
100
AcDbEntity
  8
visible
100
AcDbLine
 10
32.09858921635286
 20
10.370824511017778
 30
0.0
 11
33.288142840641676
 21
10.107303586417691
 31
0.0
  0
LINE
  5
192
330
17
100
AcDbEntity
  8
visible
100
AcDbLine
 10
-33.9
 20
-19.605796531855614
 30
0.0
 11
-33.9
 21
-16.357496989486616
 31
0.0
  0
LINE
  5
193
330
17
100
AcDbEntity
  8
visible
100
AcDbLine
 10
-33.153148983647874
 20
-15.400474372829834
 30
0.0
 11
-3.753148983647872
 21
-3.8218788017397873
 31
0.0
  0
LINE
  5
194
330
17
100
AcDbEntity
  8
visible
100
AcDbLine
 10
25.27185715935833
 20
1.282190079891122
 30
0.0
 11
24.17825015708666
 21
1.5244560210840268
 31
0.0
  0
LINE
  5
195
330
17
100
AcDbEntity
  8
visible
100
AcDbLine
 10
20.6
 20
-17.748374271732406
 30
0.0
 11
20.6
 21
7.569254514378851
 31
0.0
  0
SPLINE
  5
196
330
17
100
AcDbEntity
  8
visible
100
AcDbSpline
 70
0
 71
3
 72
11
 73
7
 74
0
 40
0.0
 40
0.0
 40
0.0
 40
0.0
 40
0.5951216209985332
 40
0.5951216209985332
 40
0.5951216209985332
 40
1.0
 40
1.0
 40
1.0
 40
1.0
 10
-3.7531489836478755
 20
-3.8218788017397856
 30
0.0
 10
-3.4058814405642517
 20
-3.686037109016258
 30
0.0
 10
-2.9618035845373427
 20
-3.6257393119868
 30
0.0
 10
-2.5000308170732404
 20
-3.624452743473398
 30
0.0
 10
-2.1877018217089685
 20
-3.6245373930509475
 30
0.0
 10
-1.878060843192485
 20
-3.654261897546901
 30
0.0
 10
-1.6069714549733263
 20
-3.7142798794899505
 30
0.0
  0
LINE
  5
197
330
17
100
AcDbEntity
  8
visible
100
AcDbLine
 10
-1.6069714549733263
 20
-3.7142798794899505
 30
0.0
 11
20.600000000000005
 21
-8.633773655048827
 31
0.0
  0
LINE
  5
198
330
17
100
AcDbEntity
  8
visible
100
AcDbLine
 10
32.2
 20
-11.20351297822442
 30
0.0
 11
32.79302854502667
 21
-11.334886148217581
 31
0.0
  0
SPLINE
  5
199
330
17
100
AcDbEntity
  8
visible
100
AcDbSpline
 70
0
 71
3
 72
17
 73
13
 74
0
 40
0.0
 40
0.0
 40
0.0
 40
0.0
 40
0.25
 40
0.25
 40
0.25
 40
0.5
 40
0.5
 40
0.5
 40
0.75
 40
0.75
 40
0.75
 40
1.0
 40
1.0
 40
1.0
 40
1.0
 10
32.79302854502667
 20
-11.334886148217592
 30
0.0
 10
32.95793826148595
 20
-11.37053458739924
 30
0.0
 10
33.110034815295144
 20
-11.420113581723884
 30
0.0
 10
33.249318206454156
 20
-11.483623131191521
 30
0.0
 10
33.348866969085876
 20
-11.529129066144359
 30
0.0
 10
33.44096100952217
 20
-11.585302783572434
 30
0.0
 10
33.525600327762966
 20
-11.652144283475721
 30
0.0
 10
33.60587770479939
 20
-11.715956461595994
 30
0.0
 10
33.675263072468475
 20
-11.789777762561078
 30
0.0
 10
33.73375643077025
 20
-11.873608186370987
 30
0.0
 10
33.84078565597954
 20
-12.027480664357316
 30
0.0
 10
33.90045594802581
 20
-12.21302771780066
 30
0.0
 10
33.9
 20
-12.3995076871242
 30
0.0
  0
SPLINE
  5
19A
330
17
100
AcDbEntity
  8
visible
100
AcDbSpline
 70
0
 71
3
 72
14
 73
10
 74
0
 40
0.0
 40
0.0
 40
0.0
 40
0.0
 40
0.3333333333333333
 40
0.3333333333333333
 40
0.3333333333333333
 40
0.6666666666666666
 40
0.6666666666666666
 40
0.6666666666666666
 40
1.0
 40
1.0
 40
1.0
 40
1.0
 10
-33.9
 20
-16.35749698948662
 30
0.0
 10
-33.90045172584972
 20
-16.171452461322843
 30
0.0
 10
-33.84106847018752
 20
-15.986329799584075
 30
0.0
 10
-33.73449923594063
 20
-15.832673336734317
 30
0.0
 10
-33.67444606857481
 20
-15.746413094750181
 30
0.0
 10
-33.60293395822021
 20
-15.670739018226138
 30
0.0
 10
-33.5199629048767
 20
-15.605651107162132
 30
0.0
 10
-33.40956103404927
 20
-15.520275654485731
 30
0.0
 10
-33.287289726973064
 20
-15.451883409708303
 30
0.0
 10
-33.15314898364788
 20
-15.400474372829834
 30
0.0
  0
LINE
  5
19B
330
17
100
AcDbEntity
  8
visible
100
AcDbLine
 10
-28.29342550817607
 20
21.239906097003043
 30
0.0
 11
-26.03071694266383
 21
22.131028116571326
 31
0.0
  0
LINE
  5
19C
330
17
100
AcDbEntity
  8
visible
100
AcDbLine
 10
-25.516134073688644
 20
22.333686175335778
 30
0.0
 11
-23.253425508176072
 21
23.224808194904195
 31
0.0
  0
SPLINE
  5
19D
330
17
100
AcDbEntity
  8
visible
100
AcDbSpline
 70
0
 71
3
 72
14
 73
10
 74
0
 40
0.0
 40
0.0
 40
0.0
 40
0.0
 40
0.3333333333333333
 40
0.3333333333333333
 40
0.3333333333333333
 40
0.6666666666666666
 40
0.6666666666666666
 40
0.6666666666666666
 40
1.0
 40
1.0
 40
1.0
 40
1.0
 10
-23.253425508176065
 20
23.22480819490417
 30
0.0
 10
-23.22372097642253
 20
23.236418150681605
 30
0.0
 10
-23.195039170671542
 20
23.250034557768785
 30
0.0
 10
-23.16738009092309
 20
23.265657416165723
 30
0.0
 10
-23.118430678194166
 20
23.293231814426466
 30
0.0
 10
-23.075304297264726
 20
23.327294242569597
 30
0.0
 10
-23.03800094813467
 20
23.367844700595057
 30
0.0
 10
-22.962132311405863
 20
23.450543633457634
 30
0.0
 10
-22.91965970185654
 20
23.558837368856246
 30
0.0
 10
-22.919999999999995
 20
23.667874822912907
 30
0.0
  0
SPLINE
  5
19E
330
17
100
AcDbEntity
  8
visible
100
AcDbSpline
 70
0
 71
3
 72
17
 73
13
 74
0
 40
0.0
 40
0.0
 40
0.0
 40
0.0
 40
0.21803171992378093
 40
0.21803171992378093
 40
0.21803171992378093
 40
0.43606343984756185
 40
0.43606343984756185
 40
0.43606343984756185
 40
0.7819682800762191
 40
0.7819682800762191
 40
0.7819682800762191
 40
1.0
 40
1.0
 40
1.0
 40
1.0
 10
-31.480000000000004
 20
22.108308888847716
 30
0.0
 10
-31.480340011493183
 20
21.999293585929806
 30
0.0
 10
-31.437885243400075
 20
21.89102126247067
 30
0.0
 10
-31.362044824101766
 20
21.808329031355356
 30
0.0
 10
-31.347883020801486
 20
21.792787568092237
 30
0.0
 10
-31.332705184667496
 20
21.778152640173708
 30
0.0
 10
-31.316511315699827
 20
21.76442424759974
 30
0.0
 10
-31.29072255053017
 20
21.74264733935683
 30
0.0
 10
-31.263016590782858
 20
21.72334990871315
 30
0.0
 10
-31.233393436457813
 20
21.706531955668723
 30
0.0
 10
-31.163198048623855
 20
21.667912823092607
 30
0.0
 10
-31.08757166064239
 20
21.640154735587707
 30
0.0
 10
-31.00651427251334
 20
21.623257693153946
 30
0.0
  0
LINE
  5
19F
330
17
100
AcDbEntity
  8
visible
100
AcDbLine
 10
-31.00651427251334
 20
21.62325769315396
 30
0.0
 11
-29.08651427251334
 21
21.197921529318
 31
0.0
  0
SPLINE
  5
1A0
330
17
100
AcDbEntity
  8
visible
100
AcDbSpline
 70
0
 71
2
 72
10
 73
7
 74
0
 40
0.0
 40
0.0
 40
0.0
 40
0.22630808363962282
 40
0.22630808363962282
 40
0.45261616727924564
 40
0.45261616727924564
 40
1.0
 40
1.0
 40
1.0
 10
-29.086514272513334
 20
21.197921529317995
 30
0.0
 10
-28.930704041034623
 20
21.164467294084623
 30
0.0
 10
-28.75966569907318
 20
21.164823822466616
 30
0.0
 10
-28.602267181654057
 20
21.164633806539552
 30
0.0
 10
-28.457107289952443
 20
21.192944153747874
 30
0.0
 10
-28.371643204330386
 20
21.20962754488786
 30
0.0
 10
-28.293425508176064
 20
21.23990609700303
 30
0.0
  0
LINE
  5
1A1
330
17
100
AcDbEntity
  8
visible
100
AcDbLine
 10
-31.480000000000004
 20
22.10830888884771
 30
0.0
 11
-31.480000000000004
 21
28.03167864257939
 31
0.0
  0
LINE
  5
1A2
330
17
100
AcDbEntity
  8
visible
100
AcDbLine
 10
-26.10657449182393
 20
30.45964736848927
 30
0.0
 11
-31.14657449182393
 21
28.47474527058812
 31
0.0
  0
SPLINE
  5
1A3
330
17
100
AcDbEntity
  8
visible
100
AcDbSpline
 70
0
 71
3
 72
11
 73
7
 74
0
 40
0.0
 40
0.0
 40
0.0
 40
0.0
 40
0.5
 40
0.5
 40
0.5
 40
1.0
 40
1.0
 40
1.0
 40
1.0
 10
20.599999999999998
 20
7.569254514378841
 30
0.0
 10
20.599552164595554
 20
7.704133270799198
 30
0.0
 10
20.651682318080397
 20
7.8380700124933895
 30
0.0
 10
20.74405029146883
 20
7.940470099949835
 30
0.0
 10
20.819997973058513
 20
8.022289931283119
 30
0.0
 10
20.910908504308928
 20
8.083162497763096
 30
0.0
 10
21.016781885220073
 20
8.12308779938975
 30
0.0
  0
LINE
  5
1A4
330
17
100
AcDbEntity
  8
visible
100
AcDbLine
 10
21.016781885220077
 20
8.12308779938975
 30
0.0
 11
23.767708759930624
 21
9.206484728910707
 31
0.0
  0
SPLINE
  5
1A5
330
17
100
AcDbEntity
  8
visible
100
AcDbSpline
 70
0
 71
2
 72
8
 73
5
 74
0
 40
0.0
 40
0.0
 40
0.0
 40
0.5
 40
0.5
 40
1.0
 40
1.0
 40
1.0
 10
26.106574491823938
 20
-6.097400705183674
 30
0.0
 10
25.926994017589937
 20
-6.163868384236789
 30
0.0
 10
25.71446209885614
 20
-6.170896150655324
 30
0.0
 10
25.670477489656196
 20
-6.171663577175664
 30
0.0
 10
25.626492880456247
 20
-6.172431003696005
 30
0.0
  0
SPLINE
  5
1A6
330
17
100
AcDbEntity
  8
visible
100
AcDbSpline
 70
0
 71
3
 72
14
 73
10
 74
0
 40
0.0
 40
0.0
 40
0.0
 40
0.0
 40
0.3333333333333333
 40
0.3333333333333333
 40
0.3333333333333333
 40
0.6666666666666666
 40
0.6666666666666666
 40
0.6666666666666666
 40
1.0
 40
1.0
 40
1.0
 40
1.0
 10
31.146574491823937
 20
-4.112498607282518
 30
0.0
 10
31.17537061814069
 20
-4.10123870471753
 30
0.0
 10
31.203212292837122
 20
-4.088097211175029
 30
0.0
 10
31.230099515913206
 20
-4.0730741266550154
 30
0.0
 10
31.27975029555834
 20
-4.045428280568588
 30
0.0
 10
31.323490061054724
 20
-4.011139377787208
 30
0.0
 10
31.36131881240223
 20
-3.9702074183108635
 30
0.0
 10
31.43760662216971
 20
-3.8874096443798614
 30
0.0
 10
31.480344612789477
 20
-3.7787982499248587
 30
0.0
 10
31.48
 20
-3.6694319792737815
 30
0.0
  0
LINE
  5
1A7
330
17
100
AcDbEntity
  8
visible
100
AcDbLine
 10
31.480000000000004
 20
-3.6694319792737735
 30
0.0
 11
31.480000000000004
 21
2.06087849392423
 31
0.0
  0
LINE
  5
1A8
330
17
100
AcDbEntity
  8
visible
100
AcDbLine
 10
31.146574491823937
 20
-4.112498607282504
 30
0.0
 11
30.846574491823937
 21
-4.230647541681382
 31
0.0
  0
LINE
  5
1A9
330
17
100
AcDbEntity
  8
visible
100
AcDbLine
 10
31.146574491823937
 20
11.173616886218639
 30
0.0
 11
31.124355249906674
 21
11.164866287033053
 31
0.0
  0
LINE
  5
1AA
330
17
100
AcDbEntity
  8
visible
100
AcDbLine
 10
-22.919999999999998
 20
23.6678748229129
 30
0.0
 11
-22.919999999999998
 21
29.59124457664458
 31
0.0
  0
SPLINE
  5
1AB
330
17
100
AcDbEntity
  8
visible
100
AcDbSpline
 70
0
 71
3
 72
14
 73
10
 74
0
 40
0.0
 40
0.0
 40
0.0
 40
0.0
 40
0.3333333333333333
 40
0.3333333333333333
 40
0.3333333333333333
 40
0.6666666666666666
 40
0.6666666666666666
 40
0.6666666666666666
 40
1.0
 40
1.0
 40
1.0
 40
1.0
 10
-31.146574491823944
 20
28.47474527058813
 30
0.0
 10
-31.17627902357745
 20
28.463135314810685
 30
0.0
 10
-31.204960829328463
 20
28.449518907723522
 30
0.0
 10
-31.232619909076913
 20
28.433896049326577
 30
0.0
 10
-31.281569321805808
 20
28.40632165106581
 30
0.0
 10
-31.324695702735294
 20
28.37225922292272
 30
0.0
 10
-31.361999051865325
 20
28.331708764897243
 30
0.0
 10
-31.437867688594125
 20
28.249009832034602
 30
0.0
 10
-31.480340298143492
 20
28.140716096636087
 30
0.0
 10
-31.48
 20
28.031678642579394
 30
0.0
  0
SPLINE
  5
1AC
330
17
100
AcDbEntity
  8
visible
100
AcDbSpline
 70
0
 71
2
 72
10
 73
7
 74
0
 40
0.0
 40
0.0
 40
0.0
 40
0.22630808363962215
 40
0.22630808363962215
 40
0.4526161672792443
 40
0.4526161672792443
 40
1.0
 40
1.0
 40
1.0
 10
-25.31348572748667
 20
30.501631936174306
 30
0.0
 10
-25.46929595896539
 20
30.53508617140767
 30
0.0
 10
-25.64033430092682
 20
30.5347296430257
 30
0.0
 10
-25.797732818345963
 20
30.534919658952763
 30
0.0
 10
-25.942892710047563
 20
30.506609311744427
 30
0.0
 10
-26.02835679566962
 20
30.48992592060445
 30
0.0
 10
-26.106574491823945
 20
30.459647368489286
 30
0.0
  0
LINE
  5
1AD
330
17
100
AcDbEntity
  8
visible
100
AcDbLine
 10
26.275970062353572
 20
9.255427808817377
 30
0.0
 11
26.106574491823938
 21
9.188714788317489
 31
0.0
  0
LINE
  5
1AE
330
17
100
AcDbEntity
  8
visible
100
AcDbLine
 10
26.40657449182394
 20
-5.979251770784776
 30
0.0
 11
26.106574491823938
 21
-6.097400705183654
 31
0.0
  0
SPLINE
  5
1AF
330
17
100
AcDbEntity
  8
visible
100
AcDbSpline
 70
0
 71
3
 72
11
 73
7
 74
0
 40
0.0
 40
0.0
 40
0.0
 40
0.0
 40
0.5
 40
0.5
 40
0.5
 40
1.0
 40
1.0
 40
1.0
 40
1.0
 10
31.480000000000004
 20
11.616683514227361
 30
0.0
 10
31.480340011493176
 20
11.50766821130944
 30
0.0
 10
31.437885243400064
 20
11.399395887850309
 30
0.0
 10
31.362044824101762
 20
11.316703656734987
 30
0.0
 10
31.30209719109158
 20
11.253008218366707
 30
0.0
 10
31.23027374699897
 20
11.205312628194598
 30
0.0
 10
31.146574491823934
 20
11.173616886218625
 30
0.0
  0
LINE
  5
1B0
330
17
100
AcDbEntity
  8
visible
100
AcDbLine
 10
31.480000000000004
 20
11.616683514227356
 30
0.0
 11
31.480000000000004
 21
17.540053267959035
 31
0.0
  0
SPLINE
  5
1B1
330
17
100
AcDbEntity
  8
visible
100
AcDbSpline
 70
0
 71
3
 72
20
 73
16
 74
0
 40
0.0
 40
0.0
 40
0.0
 40
0.0
 40
0.2159705347315056
 40
0.2159705347315056
 40
0.2159705347315056
 40
0.4319410694630112
 40
0.4319410694630112
 40
0.4319410694630112
 40
0.6479116041945168
 40
0.6479116041945168
 40
0.6479116041945168
 40
0.7840294652684945
 40
0.7840294652684945
 40
0.7840294652684945
 40
1.0
 40
1.0
 40
1.0
 40
1.0
 10
31.006514272513343
 20
18.025104463652795
 30
0.0
 10
31.042184118471415
 20
18.01727365413941
 30
0.0
 10
31.076889085939477
 20
18.007665632373104
 30
0.0
 10
31.11062917491747
 20
17.99628039835387
 30
0.0
 10
31.15286977718242
 20
17.982149948536573
 30
0.0
 10
31.193271347317154
 20
17.964295387307104
 30
0.0
 10
31.231833885321745
 20
17.942716714665483
 30
0.0
 10
31.261685091474423
 20
17.92588855813839
 30
0.0
 10
31.289609323431478
 20
17.90655084816
 30
0.0
 10
31.315606581192856
 20
17.884703584730204
 30
0.0
 10
31.331929119498014
 20
17.870931548390622
 30
0.0
 10
31.34722653586292
 20
17.856240944961016
 30
0.0
 10
31.361498830287548
 20
17.840631774441434
 30
0.0
 10
31.437675734089623
 20
17.757860013823933
 30
0.0
 10
31.480343467602967
 20
17.649332597549225
 30
0.0
 10
31.480000000000004
 20
17.54005326795904
 30
0.0
  0
LINE
  5
1B2
330
17
100
AcDbEntity
  8
visible
100
AcDbLine
 10
23.253425508176065
 20
16.42355396190257
 30
0.0
 11
28.293425508176064
 21
18.408456059803722
 31
0.0
  0
SPLINE
  5
1B3
330
17
100
AcDbEntity
  8
visible
100
AcDbSpline
 70
0
 71
2
 72
10
 73
7
 74
0
 40
0.0
 40
0.0
 40
0.0
 40
0.4570356586465386
 40
0.4570356586465386
 40
0.7285178293232693
 40
0.7285178293232693
 40
1.0
 40
1.0
 40
1.0
 10
28.293425508176064
 20
18.408456059803726
 30
0.0
 10
28.373089279831778
 20
18.439277921522795
 30
0.0
 10
28.460266072633083
 20
18.456045905035722
 30
0.0
 10
28.604184489788416
 20
18.483745874820343
 30
0.0
 10
28.75998888379518
 20
18.48353836615867
 30
0.0
 10
28.930857741774105
 20
18.483863475352123
 30
0.0
 10
29.08651427251334
 20
18.450440627488746
 30
0.0
  0
LINE
  5
1B4
330
17
100
AcDbEntity
  8
visible
100
AcDbLine
 10
29.086514272513334
 20
18.45044062748873
 30
0.0
 11
31.006514272513332
 21
18.02510446365277
 31
0.0
  0
SPLINE
  5
1B5
330
17
100
AcDbEntity
  8
visible
100
AcDbSpline
 70
0
 71
3
 72
11
 73
7
 74
0
 40
0.0
 40
0.0
 40
0.0
 40
0.0
 40
0.5
 40
0.5
 40
0.5
 40
1.0
 40
1.0
 40
1.0
 40
1.0
 10
22.919999999999998
 20
15.980487333893846
 30
0.0
 10
22.919659988506805
 20
16.089502636811744
 30
0.0
 10
22.962114756599952
 20
16.197774960270863
 30
0.0
 10
23.037955175898237
 20
16.280467191386208
 30
0.0
 10
23.097902808908426
 20
16.344162629754468
 30
0.0
 10
23.169726253001038
 20
16.3918582199266
 30
0.0
 10
23.253425508176065
 20
16.423553961902584
 30
0.0
  0
SPLINE
  5
1B6
330
17
100
AcDbEntity
  8
visible
100
AcDbSpline
 70
0
 71
2
 72
10
 73
7
 74
0
 40
0.0
 40
0.0
 40
0.0
 40
0.45703565864654283
 40
0.45703565864654283
 40
0.7285178293232715
 40
0.7285178293232715
 40
1.0
 40
1.0
 40
1.0
 10
26.106574491823938
 20
9.18871478831747
 30
0.0
 10
26.026910720168228
 20
9.1578929265984
 30
0.0
 10
25.939733927366923
 20
9.141124943085472
 30
0.0
 10
25.795815510211582
 20
9.113424973300852
 30
0.0
 10
25.640011116204825
 20
9.11363248196254
 30
0.0
 10
25.4691422582259
 20
9.113307372769079
 30
0.0
 10
25.31348572748667
 20
9.146730220632435
 30
0.0
  0
LINE
  5
1B7
330
17
100
AcDbEntity
  8
visible
100
AcDbLine
 10
25.31348572748667
 20
9.146730220632449
 30
0.0
 11
23.39348572748667
 21
9.57206638446841
 31
0.0
  0
SPLINE
  5
1B8
330
17
100
AcDbEntity
  8
visible
100
AcDbSpline
 70
0
 71
3
 72
17
 73
13
 74
0
 40
0.0
 40
0.0
 40
0.0
 40
0.0
 40
0.2159705347315158
 40
0.2159705347315158
 40
0.2159705347315158
 40
0.4319410694630316
 40
0.4319410694630316
 40
0.4319410694630316
 40
0.7840294652684842
 40
0.7840294652684842
 40
0.7840294652684842
 40
1.0
 40
1.0
 40
1.0
 40
1.0
 10
23.393485727486663
 20
9.5720663844684
 30
0.0
 10
23.35781588152856
 20
9.579897193981783
 30
0.0
 10
23.323110914060535
 20
9.5895052157481
 30
0.0
 10
23.289370825082525
 20
9.600890449767302
 30
0.0
 10
23.247130222817592
 20
9.615020899584618
 30
0.0
 10
23.206728652682838
 20
9.632875460814095
 30
0.0
 10
23.168166114678257
 20
9.654454133455713
 30
0.0
 10
23.119127931143662
 20
9.681979164654251
 30
0.0
 10
23.07590628282171
 20
9.716007478062247
 30
0.0
 10
23.03850116971245
 20
9.756539073679747
 30
0.0
 10
22.962324265910354
 20
9.839310834297262
 30
0.0
 10
22.919656532397056
 20
9.947838250571982
 30
0.0
 10
22.919999999999995
 20
10.05711758016217
 30
0.0
  0
SPLINE
  5
1B9
330
17
100
AcDbEntity
  8
visible
100
AcDbSpline
 70
0
 71
3
 72
17
 73
13
 74
0
 40
0.0
 40
0.0
 40
0.0
 40
0.0
 40
0.21803171992376336
 40
0.21803171992376336
 40
0.21803171992376336
 40
0.4360634398475267
 40
0.4360634398475267
 40
0.4360634398475267
 40
0.7819682800762366
 40
0.7819682800762366
 40
0.7819682800762366
 40
1.0
 40
1.0
 40
1.0
 40
1.0
 10
-22.919999999999998
 20
29.591244576644584
 30
0.0
 10
-22.919659988506805
 20
29.700259879562477
 30
0.0
 10
-22.96211475659993
 20
29.808532203021613
 30
0.0
 10
-23.03795517589824
 20
29.89122443413696
 30
0.0
 10
-23.05211697919853
 20
29.90676589740005
 30
0.0
 10
-23.067294815332502
 20
29.921400825318607
 30
0.0
 10
-23.083488684300175
 20
29.93512921789257
 30
0.0
 10
-23.10927744946981
 20
29.95690612613545
 30
0.0
 10
-23.13698340921716
 20
29.976203556779147
 30
0.0
 10
-23.166606563542192
 20
29.993021509823585
 30
0.0
 10
-23.23680195137613
 20
30.031640642399662
 30
0.0
 10
-23.312428339357623
 20
30.05939872990461
 30
0.0
 10
-23.393485727486663
 20
30.07629577233834
 30
0.0
  0
LINE
  5
1BA
330
17
100
AcDbEntity
  8
visible
100
AcDbLine
 10
-23.393485727486663
 20
30.076295772338327
 30
0.0
 11
-25.31348572748666
 21
30.501631936174288
 31
0.0
  0
LINE
  5
1BB
330
17
100
AcDbEntity
  8
visible
100
AcDbLine
 10
22.919999999999998
 20
10.057117580162165
 30
0.0
 11
22.919999999999998
 21
15.980487333893844
 31
0.0
  0
ENDSEC
  0
SECTION
  2
OBJECTS
  0
DICTIONARY
  5
A
330
0
100
AcDbDictionary
281
1
  3
ACAD_COLOR
350
B
  3
ACAD_GROUP
350
C
  3
ACAD_LAYOUT
350
D
  3
ACAD_MATERIAL
350
E
  3
ACAD_MLEADERSTYLE
350
F
  3
ACAD_MLINESTYLE
350
10
  3
ACAD_PLOTSETTINGS
350
11
  3
ACAD_PLOTSTYLENAME
350
12
  3
ACAD_SCALELIST
350
14
  3
ACAD_TABLESTYLE
350
15
  3
ACAD_VISUALSTYLE
350
16
  3
EZDXF_META
350
2D
  0
DICTIONARY
  5
B
330
A
100
AcDbDictionary
281
1
  0
DICTIONARY
  5
C
330
A
100
AcDbDictionary
281
1
  0
DICTIONARY
  5
D
330
A
100
AcDbDictionary
281
1
  3
Model
350
1A
  3
Layout1
350
1E
  0
DICTIONARY
  5
E
330
A
100
AcDbDictionary
281
1
  3
ByBlock
350
1F
  3
ByLayer
350
20
  3
Global
350
21
  0
DICTIONARY
  5
F
330
A
100
AcDbDictionary
281
1
  3
Standard
350
2C
  0
DICTIONARY
  5
10
330
A
100
AcDbDictionary
281
1
  3
Standard
350
22
  0
DICTIONARY
  5
11
330
A
100
AcDbDictionary
281
1
  0
ACDBDICTIONARYWDFLT
  5
12
330
A
100
AcDbDictionary
281
1
  3
Normal
350
13
100
AcDbDictionaryWithDefault
340
13
  0
ACDBPLACEHOLDER
  5
13
330
12
  0
DICTIONARY
  5
14
330
A
100
AcDbDictionary
281
1
  0
DICTIONARY
  5
15
330
A
100
AcDbDictionary
281
1
  0
DICTIONARY
  5
16
330
A
100
AcDbDictionary
281
1
  0
LAYOUT
  5
1A
330
D
100
AcDbPlotSettings
  1

  4
A3
  6

 40
7.5
 41
20.0
 42
7.5
 43
20.0
 44
420.0
 45
297.0
 46
0.0
 47
0.0
 48
0.0
 49
0.0
140
0.0
141
0.0
142
1.0
143
1.0
 70
1024
 72
1
 73
0
 74
5
  7

 75
16
 76
0
 77
2
 78
300
147
1.0
148
0.0
149
0.0
100
AcDbLayout
  1
Model
 70
1
 71
0
 10
0.0
 20
0.0
 11
420.0
 21
297.0
 12
0.0
 22
0.0
 32
0.0
 14
1e+20
 24
1e+20
 34
1e+20
 15
-1e+20
 25
-1e+20
 35
-1e+20
146
0.0
 13
0.0
 23
0.0
 33
0.0
 16
1.0
 26
0.0
 36
0.0
 17
0.0
 27
1.0
 37
0.0
 76
1
330
17
  0
LAYOUT
  5
1E
330
D
100
AcDbPlotSettings
  1

  4
A3
  6

 40
7.5
 41
20.0
 42
7.5
 43
20.0
 44
420.0
 45
297.0
 46
0.0
 47
0.0
 48
0.0
 49
0.0
140
0.0
141
0.0
142
1.0
143
1.0
 70
0
 72
1
 73
0
 74
5
  7

 75
16
 76
0
 77
2
 78
300
147
1.0
148
0.0
149
0.0
100
AcDbLayout
  1
Layout1
 70
1
 71
1
 10
0.0
 20
0.0
 11
420.0
 21
297.0
 12
0.0
 22
0.0
 32
0.0
 14
1e+20
 24
1e+20
 34
1e+20
 15
-1e+20
 25
-1e+20
 35
-1e+20
146
0.0
 13
0.0
 23
0.0
 33
0.0
 16
1.0
 26
0.0
 36
0.0
 17
0.0
 27
1.0
 37
0.0
 76
1
330
1B
  0
MATERIAL
  5
1F
102
{ACAD_REACTORS
330
E
102
}
330
E
100
AcDbMaterial
  1
ByBlock
  2

 70
0
 40
1.0
 71
1
 41
1.0
 91
-1023410177
 42
1.0
 72
1
  3

 73
1
 74
1
 75
1
 44
0.5
 73
0
 45
1.0
 46
1.0
 77
1
  4

 78
1
 79
1
170
1
 48
1.0
171
1
  6

172
1
173
1
174
1
140
1.0
141
1.0
175
1
  7

176
1
177
1
178
1
143
1.0
179
1
  8

270
1
271
1
272
1
145
1.0
146
1.0
273
1
  9

274
1
275
1
276
1
 42
1.0
 72
1
  3

 73
1
 74
1
 75
1
 94
63
  0
MATERIAL
  5
20
102
{ACAD_REACTORS
330
E
102
}
330
E
100
AcDbMaterial
  1
ByLayer
  2

 70
0
 40
1.0
 71
1
 41
1.0
 91
-1023410177
 42
1.0
 72
1
  3

 73
1
 74
1
 75
1
 44
0.5
 73
0
 45
1.0
 46
1.0
 77
1
  4

 78
1
 79
1
170
1
 48
1.0
171
1
  6

172
1
173
1
174
1
140
1.0
141
1.0
175
1
  7

176
1
177
1
178
1
143
1.0
179
1
  8

270
1
271
1
272
1
145
1.0
146
1.0
273
1
  9

274
1
275
1
276
1
 42
1.0
 72
1
  3

 73
1
 74
1
 75
1
 94
63
  0
MATERIAL
  5
21
102
{ACAD_REACTORS
330
E
102
}
330
E
100
AcDbMaterial
  1
Global
  2

 70
0
 40
1.0
 71
1
 41
1.0
 91
-1023410177
 42
1.0
 72
1
  3

 73
1
 74
1
 75
1
 44
0.5
 73
0
 45
1.0
 46
1.0
 77
1
  4

 78
1
 79
1
170
1
 48
1.0
171
1
  6

172
1
173
1
174
1
140
1.0
141
1.0
175
1
  7

176
1
177
1
178
1
143
1.0
179
1
  8

270
1
271
1
272
1
145
1.0
146
1.0
273
1
  9

274
1
275
1
276
1
 42
1.0
 72
1
  3

 73
1
 74
1
 75
1
 94
63
  0
MLINESTYLE
  5
22
102
{ACAD_REACTORS
330
10
102
}
330
10
100
AcDbMlineStyle
  2
Standard
 70
0
  3

 62
256
 51
90.0
 52
90.0
 71
2
 49
0.5
 62
256
  6
BYLAYER
 49
-0.5
 62
256
  6
BYLAYER
  0
MLEADERSTYLE
  5
2C
102
{ACAD_REACTORS
330
F
102
}
330
F
100
AcDbMLeaderStyle
179
2
170
2
171
1
172
0
 90
2
 40
0.0
 41
0.0
173
1
 91
-1056964608
 92
-2
290
1
 42
2.0
291
1
 43
8.0
  3
Standard
 44
4.0
300

342
29
174
1
175
1
176
0
178
1
 93
-1056964608
 45
4.0
292
0
297
0
 46
4.0
 94
-1056964608
 47
1.0
 49
1.0
140
1.0
294
1
141
0.0
177
0
142
1.0
295
0
296
0
143
3.75
271
0
272
9
273
9
  0
DICTIONARY
  5
2D
330
A
100
AcDbDictionary
280
1
281
1
  3
CREATED_BY_EZDXF
350
2E
  3
WRITTEN_BY_EZDXF
350
1BF
  0
DICTIONARYVAR
  5
2E
330
2D
100
DictionaryVariables
280
0
  1
1.4.4 @ 2026-10-01T20:35:58.298160+00:00
  0
DICTIONARYVAR
  5
1BF
330
2D
100
DictionaryVariables
280
0
  1
1.4.4 @ 2026-10-01T20:35:58.371165+00:00
  0
ENDSEC
  0
EOF
