  0
SECTION
  2
HEADER
  9
$ACADVER
  1
AC1027
  9
$ACADMAINTVER
 70
105
  9
$DWGCODEPAGE
  3
ANSI_1252
  9
$LASTSAVEDBY
  1
ezdxf
  9
$REQUIREDVERSIONS
160
0
  9
$INSBASE
 10
0.0
 20
0.0
 30
0.0
  9
$EXTMIN
 10
1e+20
 20
1e+20
 30
1e+20
  9
$EXTMAX
 10
-1e+20
 20
-1e+20
 30
-1e+20
  9
$LIMMIN
 10
0.0
 20
0.0
  9
$LIMMAX
 10
420.0
 20
297.0
  9
$ORTHOMODE
 70
0
  9
$REGENMODE
 70
1
  9
$FILLMODE
 70
1
  9
$QTEXTMODE
 70
0
  9
$MIRRTEXT
 70
1
  9
$LTSCALE
 40
1.0
  9
$ATTMODE
 70
1
  9
$TEXTSIZE
 40
2.5
  9
$TRACEWID
 40
1.0
  9
$TEXTSTYLE
  7
Standard
  9
$CLAYER
  8
0
  9
$CELTYPE
  6
ByLayer
  9
$CECOLOR
 62
256
  9
$CELTSCALE
 40
1.0
  9
$DISPSILH
 70
0
  9
$DIMSCALE
 40
1.0
  9
$DIMASZ
 40
2.5
  9
$DIMEXO
 40
0.625
  9
$DIMDLI
 40
3.75
  9
$DIMRND
 40
0.0
  9
$DIMDLE
 40
0.0
  9
$DIMEXE
 40
1.25
  9
$DIMTP
 40
0.0
  9
$DIMTM
 40
0.0
  9
$DIMTXT
 40
2.5
  9
$DIMCEN
 40
2.5
  9
$DIMTSZ
 40
0.0
  9
$DIMTOL
 70
0
  9
$DIMLIM
 70
0
  9
$DIMTIH
 70
0
  9
$DIMTOH
 70
0
  9
$DIMSE1
 70
0
  9
$DIMSE2
 70
0
  9
$DIMTAD
 70
1
  9
$DIMZIN
 70
8
  9
$DIMBLK
  1

  9
$DIMASO
 70
1
  9
$DIMSHO
 70
1
  9
$DIMPOST
  1

  9
$DIMAPOST
  1

  9
$DIMALT
 70
0
  9
$DIMALTD
 70
3
  9
$DIMALTF
 40
0.03937007874
  9
$DIMLFAC
 40
1.0
  9
$DIMTOFL
 70
1
  9
$DIMTVP
 40
0.0
  9
$DIMTIX
 70
0
  9
$DIMSOXD
 70
0
  9
$DIMSAH
 70
0
  9
$DIMBLK1
  1

  9
$DIMBLK2
  1

  9
$DIMSTYLE
  2
ISO-25
  9
$DIMCLRD
 70
0
  9
$DIMCLRE
 70
0
  9
$DIMCLRT
 70
0
  9
$DIMTFAC
 40
1.0
  9
$DIMGAP
 40
0.625
  9
$DIMJUST
 70
0
  9
$DIMSD1
 70
0
  9
$DIMSD2
 70
0
  9
$DIMTOLJ
 70
0
  9
$DIMTZIN
 70
8
  9
$DIMALTZ
 70
0
  9
$DIMALTTZ
 70
0
  9
$DIMUPT
 70
0
  9
$DIMDEC
 70
2
  9
$DIMTDEC
 70
2
  9
$DIMALTU
 70
2
  9
$DIMALTTD
 70
3
  9
$DIMTXSTY
  7
Standard
  9
$DIMAUNIT
 70
0
  9
$DIMADEC
 70
0
  9
$DIMALTRND
 40
0.0
  9
$DIMAZIN
 70
0
  9
$DIMDSEP
 70
44
  9
$DIMATFIT
 70
3
  9
$DIMFRAC
 70
0
  9
$DIMLDRBLK
  1

  9
$DIMLUNIT
 70
2
  9
$DIMLWD
 70
-2
  9
$DIMLWE
 70
-2
  9
$DIMTMOVE
 70
0
  9
$DIMFXL
 40
1.0
  9
$DIMFXLON
 70
0
  9
$DIMJOGANG
 40
0.785398163397
  9
$DIMTFILL
 70
0
  9
$DIMTFILLCLR
 70
0
  9
$DIMARCSYM
 70
0
  9
$DIMLTYPE
  6

  9
$DIMLTEX1
  6

  9
$DIMLTEX2
  6

  9
$DIMTXTDIRECTION
 70
0
  9
$LUNITS
 70
2
  9
$LUPREC
 70
4
  9
$SKETCHINC
 40
1.0
  9
$FILLETRAD
 40
10.0
  9
$AUNITS
 70
0
  9
$AUPREC
 70
2
  9
$MENU
  1
.
  9
$ELEVATION
 40
0.0
  9
$PELEVATION
 40
0.0
  9
$THICKNESS
 40
0.0
  9
$LIMCHECK
 70
0
  9
$CHAMFERA
 40
0.0
  9
$CHAMFERB
 40
0.0
  9
$CHAMFERC
 40
0.0
  9
$CHAMFERD
 40
0.0
  9
$SKPOLY
 70
0
  9
$TDCREATE
 40
2461316.839756944
  9
$TDUCREATE
 40
2458532.153996898
  9
$TDUPDATE
 40
2461316.839756944
  9
$TDUUPDATE
 40
2458532.1544311
  9
$TDINDWG
 40
0.0
  9
$TDUSRTIMER
 40
0.0
  9
$USRTIMER
 70
1
  9
$ANGBASE
 50
0.0
  9
$ANGDIR
 70
0
  9
$PDMODE
 70
0
  9
$PDSIZE
 40
0.0
  9
$PLINEWID
 40
0.0
  9
$SPLFRAME
 70
0
  9
$SPLINETYPE
 70
6
  9
$SPLINESEGS
 70
8
  9
$HANDSEED
  5
1A4
  9
$SURFTAB1
 70
6
  9
$SURFTAB2
 70
6
  9
$SURFTYPE
 70
6
  9
$SURFU
 70
6
  9
$SURFV
 70
6
  9
$UCSBASE
  2

  9
$UCSNAME
  2

  9
$UCSORG
 10
0.0
 20
0.0
 30
0.0
  9
$UCSXDIR
 10
1.0
 20
0.0
 30
0.0
  9
$UCSYDIR
 10
0.0
 20
1.0
 30
0.0
  9
$UCSORTHOREF
  2

  9
$UCSORTHOVIEW
 70
0
  9
$UCSORGTOP
 10
0.0
 20
0.0
 30
0.0
  9
$UCSORGBOTTOM
 10
0.0
 20
0.0
 30
0.0
  9
$UCSORGLEFT
 10
0.0
 20
0.0
 30
0.0
  9
$UCSORGRIGHT
 10
0.0
 20
0.0
 30
0.0
  9
$UCSORGFRONT
 10
0.0
 20
0.0
 30
0.0
  9
$UCSORGBACK
 10
0.0
 20
0.0
 30
0.0
  9
$PUCSBASE
  2

  9
$PUCSNAME
  2

  9
$PUCSORG
 10
0.0
 20
0.0
 30
0.0
  9
$PUCSXDIR
 10
1.0
 20
0.0
 30
0.0
  9
$PUCSYDIR
 10
0.0
 20
1.0
 30
0.0
  9
$PUCSORTHOREF
  2

  9
$PUCSORTHOVIEW
 70
0
  9
$PUCSORGTOP
 10
0.0
 20
0.0
 30
0.0
  9
$PUCSORGBOTTOM
 10
0.0
 20
0.0
 30
0.0
  9
$PUCSORGLEFT
 10
0.0
 20
0.0
 30
0.0
  9
$PUCSORGRIGHT
 10
0.0
 20
0.0
 30
0.0
  9
$PUCSORGFRONT
 10
0.0
 20
0.0
 30
0.0
  9
$PUCSORGBACK
 10
0.0
 20
0.0
 30
0.0
  9
$USERI1
 70
0
  9
$USERI2
 70
0
  9
$USERI3
 70
0
  9
$USERI4
 70
0
  9
$USERI5
 70
0
  9
$USERR1
 40
0.0
  9
$USERR2
 40
0.0
  9
$USERR3
 40
0.0
  9
$USERR4
 40
0.0
  9
$USERR5
 40
0.0
  9
$WORLDVIEW
 70
1
  9
$SHADEDGE
 70
3
  9
$SHADEDIF
 70
70
  9
$TILEMODE
 70
1
  9
$MAXACTVP
 70
64
  9
$PINSBASE
 10
0.0
 20
0.0
 30
0.0
  9
$PLIMCHECK
 70
0
  9
$PEXTMIN
 10
1e+20
 20
1e+20
 30
1e+20
  9
$PEXTMAX
 10
-1e+20
 20
-1e+20
 30
-1e+20
  9
$PLIMMIN
 10
0.0
 20
0.0
  9
$PLIMMAX
 10
420.0
 20
297.0
  9
$UNITMODE
 70
0
  9
$VISRETAIN
 70
1
  9
$PLINEGEN
 70
0
  9
$PSLTSCALE
 70
1
  9
$TREEDEPTH
 70
3020
  9
$CMLSTYLE
  2
Standard
  9
$CMLJUST
 70
0
  9
$CMLSCALE
 40
20.0
  9
$PROXYGRAPHICS
 70
1
  9
$MEASUREMENT
 70
1
  9
$CELWEIGHT
370
-1
  9
$ENDCAPS
280
0
  9
$JOINSTYLE
280
0
  9
$LWDISPLAY
290
0
  9
$INSUNITS
 70
4
  9
$HYPERLINKBASE
  1

  9
$STYLESHEET
  1

  9
$XEDIT
290
1
  9
$CEPSNTYPE
380
0
  9
$PSTYLEMODE
290
1
  9
$FINGERPRINTGUID
  2
{D8CF83C4-B08E-416B-9B42-79188471BAD5}
  9
$VERSIONGUID
  2
{A3535FC9-A715-482E-8913-3069E5186688}
  9
$EXTNAMES
290
1
  9
$PSVPSCALE
 40
0.0
  9
$OLESTARTUP
290
0
  9
$SORTENTS
280
127
  9
$INDEXCTL
280
0
  9
$HIDETEXT
280
1
  9
$XCLIPFRAME
280
1
  9
$HALOGAP
280
0
  9
$OBSCOLOR
 70
257
  9
$OBSLTYPE
280
0
  9
$INTERSECTIONDISPLAY
280
0
  9
$INTERSECTIONCOLOR
 70
257
  9
$DIMASSOC
280
2
  9
$PROJECTNAME
  1

  9
$CAMERADISPLAY
290
0
  9
$LENSLENGTH
 40
50.0
  9
$CAMERAHEIGHT
 40
0.0
  9
$STEPSPERSEC
 40
24.0
  9
$STEPSIZE
 40
100.0
  9
$3DDWFPREC
 40
2.0
  9
$PSOLWIDTH
 40
0.005
  9
$PSOLHEIGHT
 40
0.08
  9
$LOFTANG1
 40
1.570796326795
  9
$LOFTANG2
 40
1.570796326795
  9
$LOFTMAG1
 40
0.0
  9
$LOFTMAG2
 40
0.0
  9
$LOFTPARAM
 70
7
  9
$LOFTNORMALS
280
1
  9
$LATITUDE
 40
37.795
  9
$LONGITUDE
 40
-122.394
  9
$NORTHDIRECTION
 40
0.0
  9
$TIMEZONE
 70
-8000
  9
$LIGHTGLYPHDISPLAY
280
1
  9
$TILEMODELIGHTSYNCH
280
1
  9
$CMATERIAL
347
20
  9
$SOLIDHIST
280
0
  9
$SHOWHIST
280
1
  9
$DWFFRAME
280
2
  9
$DGNFRAME
280
2
  9
$REALWORLDSCALE
290
1
  9
$INTERFERECOLOR
 62
256
  9
$CSHADOW
280
0
  9
$SHADOWPLANELOCATION
 40
0.0
  0
ENDSEC
  0
SECTION
  2
CLASSES
  0
CLASS
  1
ACDBDICTIONARYWDFLT
  2
AcDbDictionaryWithDefault
  3
ObjectDBX Classes
 90
0
 91
0
280
0
281
0
  0
CLASS
  1
SUN
  2
AcDbSun
  3
SCENEOE
 90
1153
 91
0
280
0
281
0
  0
CLASS
  1
VISUALSTYLE
  2
AcDbVisualStyle
  3
ObjectDBX Classes
 90
4095
 91
0
280
0
281
0
  0
CLASS
  1
MATERIAL
  2
AcDbMaterial
  3
ObjectDBX Classes
 90
1153
 91
0
280
0
281
0
  0
CLASS
  1
SCALE
  2
AcDbScale
  3
ObjectDBX Classes
 90
1153
 91
0
280
0
281
0
  0
CLASS
  1
TABLESTYLE
  2
AcDbTableStyle
  3
ObjectDBX Classes
 90
4095
 91
0
280
0
281
0
  0
CLASS
  1
MLEADERSTYLE
  2
AcDbMLeaderStyle
  3
ACDB_MLEADERSTYLE_CLASS
 90
4095
 91
0
280
0
281
0
  0
CLASS
  1
DICTIONARYVAR
  2
AcDbDictionaryVar
  3
ObjectDBX Classes
 90
0
 91
0
280
0
281
0
  0
CLASS
  1
CELLSTYLEMAP
  2
AcDbCellStyleMap
  3
ObjectDBX Classes
 90
1152
 91
0
280
0
281
0
  0
CLASS
  1
MENTALRAYRENDERSETTINGS
  2
AcDbMentalRayRenderSettings
  3
SCENEOE
 90
1024
 91
0
280
0
281
0
  0
CLASS
  1
ACDBDETAILVIEWSTYLE
  2
AcDbDetailViewStyle
  3
ObjectDBX Classes
 90
1025
 91
0
280
0
281
0
  0
CLASS
  1
ACDBSECTIONVIEWSTYLE
  2
AcDbSectionViewStyle
  3
ObjectDBX Classes
 90
1025
 91
0
280
0
281
0
  0
CLASS
  1
RASTERVARIABLES
  2
AcDbRasterVariables
  3
ISM
 90
0
 91
0
280
0
281
0
  0
CLASS
  1
LAYOUT
  2
AcDbLayout
  3
ObjectDBX Classes
 90
0
 91
0
280
0
281
0
  0
CLASS
  1
ACDBPLACEHOLDER
  2
AcDbPlaceHolder
  3
ObjectDBX Classes
 90
0
 91
0
280
0
281
0
  0
ENDSEC
  0
SECTION
  2
TABLES
  0
TABLE
  2
VPORT
  5
8
330
0
100
AcDbSymbolTable
 70
1
  0
VPORT
  5
1A0
330
8
100
AcDbSymbolTableRecord
100
AcDbViewportTableRecord
  2
*Active
 70
0
 10
0.0
 20
0.0
 11
1.0
 21
1.0
 12
2.1316282072803006e-14
 22
-2.4832026868228105
 13
0.0
 23
0.0
 14
0.5
 24
0.5
 15
0.5
 25
0.5
 16
0.0
 26
0.0
 36
1.0
 17
0.0
 27
0.0
 37
0.0
 40
59.80836022311477
 41
1.34
 42
50.0
 43
0.0
 44
0.0
 50
0.0
 51
0.0
 71
0
 72
1000
 73
1
 74
3
 75
0
 76
0
 77
0
 78
0
281
0
 65
1
110
0.0
120
0.0
130
0.0
111
1.0
121
0.0
131
0.0
112
0.0
122
1.0
132
0.0
 79
0
146
0.0
  0
ENDTAB
  0
TABLE
  2
LTYPE
  5
2
330
0
100
AcDbSymbolTable
 70
3
  0
LTYPE
  5
24
330
2
100
AcDbSymbolTableRecord
100
AcDbLinetypeTableRecord
  2
ByBlock
 70
0
  3

 72
65
 73
0
 40
0.0
  0
LTYPE
  5
25
330
2
100
AcDbSymbolTableRecord
100
AcDbLinetypeTableRecord
  2
ByLayer
 70
0
  3

 72
65
 73
0
 40
0.0
  0
LTYPE
  5
26
330
2
100
AcDbSymbolTableRecord
100
AcDbLinetypeTableRecord
  2
Continuous
 70
0
  3

 72
65
 73
0
 40
0.0
  0
ENDTAB
  0
TABLE
  2
LAYER
  5
1
330
0
100
AcDbSymbolTable
 70
3
  0
LAYER
  5
27
330
1
100
AcDbSymbolTableRecord
100
AcDbLayerTableRecord
  2
0
 70
0
 62
7
  6
Continuous
370
-3
390
13
347
21
  0
LAYER
  5
28
330
1
100
AcDbSymbolTableRecord
100
AcDbLayerTableRecord
  2
Defpoints
 70
0
 62
7
  6
Continuous
290
0
370
-3
390
13
347
21
  0
LAYER
  5
2F
330
1
100
AcDbSymbolTableRecord
100
AcDbLayerTableRecord
  2
visible
 70
0
 62
7
  6
Continuous
370
-3
390
13
347
21
  0
ENDTAB
  0
TABLE
  2
STYLE
  5
5
330
0
100
AcDbSymbolTable
 70
1
  0
STYLE
  5
29
330
5
100
AcDbSymbolTableRecord
100
AcDbTextStyleTableRecord
  2
Standard
 70
0
 40
0.0
 41
1.0
 50
0.0
 71
0
 42
2.5
  3
txt
  4

  0
ENDTAB
  0
TABLE
  2
VIEW
  5
7
330
0
100
AcDbSymbolTable
 70
0
  0
ENDTAB
  0
TABLE
  2
UCS
  5
6
330
0
100
AcDbSymbolTable
 70
0
  0
ENDTAB
  0
TABLE
  2
APPID
  5
3
330
0
100
AcDbSymbolTable
 70
3
  0
APPID
  5
2A
330
3
100
AcDbSymbolTableRecord
100
AcDbRegAppTableRecord
  2
ACAD
 70
0
  0
APPID
  5
1A1
330
3
100
AcDbSymbolTableRecord
100
AcDbRegAppTableRecord
  2
HATCHBACKGROUNDCOLOR
 70
0
  0
APPID
  5
1A2
330
3
100
AcDbSymbolTableRecord
100
AcDbRegAppTableRecord
  2
EZDXF
 70
0
  0
ENDTAB
  0
TABLE
  2
DIMSTYLE
  5
4
330
0
100
AcDbSymbolTable
 70
1
100
AcDbDimStyleTable
  0
DIMSTYLE
105
2B
330
4
100
AcDbSymbolTableRecord
100
AcDbDimStyleTableRecord
  2
Standard
 70
0
 40
1.0
 41
2.5
 42
0.625
 43
3.75
 44
1.25
 45
0.0
 46
0.0
 47
0.0
 48
0.0
 49
2.5
140
2.5
141
2.5
142
0.0
143
0.03937007874
144
1.0
145
0.0
146
1.0
147
0.625
148
0.0
 69
0
 70
0
 71
0
 72
0
 73
0
 74
0
 75
0
 76
0
 77
1
 78
8
 79
3
170
0
171
3
172
1
173
0
174
0
175
0
176
0
177
0
178
0
179
2
271
2
272
2
273
2
274
3
275
0
276
0
277
2
278
44
279
0
280
0
281
0
282
0
283
0
284
8
285
0
286
0
288
0
289
3
290
0
371
-2
372
-2
  0
ENDTAB
  0
TABLE
  2
BLOCK_RECORD
  5
9
330
0
100
AcDbSymbolTable
 70
2
  0
BLOCK_RECORD
  5
17
330
9
100
AcDbSymbolTableRecord
100
AcDbBlockTableRecord
  2
*Model_Space
340
1A
 70
0
280
1
281
0
  0
BLOCK_RECORD
  5
1B
330
9
100
AcDbSymbolTableRecord
100
AcDbBlockTableRecord
  2
*Paper_Space
340
1E
 70
0
280
1
281
0
  0
ENDTAB
  0
ENDSEC
  0
SECTION
  2
BLOCKS
  0
BLOCK
  5
18
330
17
100
AcDbEntity
  8
0
100
AcDbBlockBegin
  2
*Model_Space
 70
0
 10
0.0
 20
0.0
 30
0.0
  3
*Model_Space
  1

  0
ENDBLK
  5
19
330
17
100
AcDbEntity
  8
0
100
AcDbBlockEnd
  0
BLOCK
  5
1C
330
1B
100
AcDbEntity
  8
0
100
AcDbBlockBegin
  2
*Paper_Space
 70
0
 10
0.0
 20
0.0
 30
0.0
  3
*Paper_Space
  1

  0
ENDBLK
  5
1D
330
1B
100
AcDbEntity
  8
0
100
AcDbBlockEnd
  0
ENDSEC
  0
SECTION
  2
ENTITIES
  0
ELLIPSE
  5
30
330
17
100
AcDbEntity
  8
visible
100
AcDbEllipse
 10
-13.79999999999997
 20
-1.864503710069755
 30
0.0
 11
-3.0782950181337414
 21
7.384043592865158
 31
0.0
 40
0.7598911526908056
 41
1.0690200664356369
 42
1.8801278620493236
  0
LINE
  5
31
330
17
100
AcDbEntity
  8
visible
100
AcDbLine
 10
-20.19999999999997
 20
-0.36371868274552277
 30
0.0
 11
-20.599999999999973
 21
-0.2699196185377579
 31
0.0
  0
ELLIPSE
  5
32
330
17
100
AcDbEntity
  8
visible
100
AcDbEllipse
 10
-22.199999999999974
 20
-5.366335440492961
 30
0.0
 11
-5.00222940446733
 21
11.999070838405881
 31
0.0
 40
0.7598911526908056
 41
1.6164862953178463
 42
1.7592463602579569
  0
ELLIPSE
  5
33
330
17
100
AcDbEntity
  8
visible
100
AcDbEllipse
 10
-22.199999999999974
 20
-5.366335440492961
 30
0.0
 11
-3.0782950181337414
 21
7.384043592865158
 31
0.0
 40
0.7598911526908056
 41
1.0690200664356369
 42
1.8801278620493256
  0
LINE
  5
34
330
17
100
AcDbEntity
  8
visible
100
AcDbLine
 10
-31.079999999999973
 20
-9.711564850788372
 30
0.0
 11
-31.079999999999977
 21
16.188214572621302
 31
0.0
  0
LINE
  5
35
330
17
100
AcDbEntity
  8
visible
100
AcDbLine
 10
-31.079999999999977
 20
16.188214572621316
 30
0.0
 11
-29.399999999999977
 21
15.794258502948704
 31
0.0
  0
LINE
  5
36
330
17
100
AcDbEntity
  8
visible
100
AcDbLine
 10
-29.399999999999977
 20
15.794258502948708
 30
0.0
 11
-29.399999999999977
 21
-3.677952284753186
 31
0.0
  0
LINE
  5
37
330
17
100
AcDbEntity
  8
visible
100
AcDbLine
 10
-28.599999999999973
 20
-3.8655504131687284
 30
0.0
 11
-29.399999999999974
 21
-3.677952284753199
 31
0.0
  0
ELLIPSE
  5
38
330
17
100
AcDbEntity
  8
visible
100
AcDbEllipse
 10
-39.25999999999998
 20
-16.5641231301135
 30
0.0
 11
0.3078295018133739
 21
-0.738404359286516
 31
0.0
 40
0.7598911526908056
 41
-3.643368913949053
 42
-3.1415926535897936
  0
LINE
  5
39
330
17
100
AcDbEntity
  8
visible
100
AcDbLine
 10
-39.25999999999998
 20
-15.804231977422688
 30
0.0
 11
-32.699999999999974
 21
-13.069468149854087
 31
0.0
  0
ELLIPSE
  5
3A
330
17
100
AcDbEntity
  8
visible
100
AcDbEllipse
 10
-37.49999999999997
 20
-16.21694785993685
 30
0.0
 11
-2.2
 21
6.428527679329822e-17
 31
0.0
 40
0.31266354735921503
 41
-6.9266864159728705
 42
-5.355890089177974
  0
LINE
  5
3B
330
17
100
AcDbEntity
  8
visible
100
AcDbLine
 10
39.26000000000003
 20
-15.066346005654935
 30
0.0
 11
31.080000000000034
 21
-18.476463095519442
 31
0.0
  0
ELLIPSE
  5
3C
330
17
100
AcDbEntity
  8
visible
100
AcDbEllipse
 10
37.50000000000003
 20
-14.653630123140772
 30
0.0
 11
-2.2
 21
6.428527679329822e-17
 31
0.0
 40
0.31266354735921503
 41
-3.785093762383078
 42
-2.2142974355881813
  0
LINE
  5
3D
330
17
100
AcDbEntity
  8
visible
100
AcDbLine
 10
32.70000000000003
 20
-12.668216597409758
 30
0.0
 11
38.820000000000036
 21
-14.103342279788556
 31
0.0
  0
LINE
  5
3E
330
17
100
AcDbEntity
  8
visible
100
AcDbLine
 10
-28.599999999999973
 20
-3.86555041316873
 30
0.0
 11
-27.999999999999975
 21
-3.615419575281358
 31
0.0
  0
LINE
  5
3F
330
17
100
AcDbEntity
  8
visible
100
AcDbLine
 10
-27.999999999999975
 20
-3.6154195752813507
 30
0.0
 11
-20.799999999999976
 21
-0.6138495206328867
 31
0.0
  0
LINE
  5
40
330
17
100
AcDbEntity
  8
visible
100
AcDbLine
 10
-20.799999999999976
 20
-0.6138495206328911
 30
0.0
 11
-20.199999999999974
 21
-0.3637186827455188
 31
0.0
  0
ELLIPSE
  5
41
330
17
100
AcDbEntity
  8
visible
100
AcDbEllipse
 10
-30.779999999999973
 20
16.313279991564997
 30
0.0
 11
-0.11415226193415959
 21
-0.48679488606117777
 31
0.0
 40
0.5699183645181043
 41
3.5319377116188795
 42
5.102734038413776
  0
LINE
  5
42
330
17
100
AcDbEntity
  8
visible
100
AcDbLine
 10
-29.997691453623954
 20
17.114344448982557
 30
0.0
 11
-30.779999999999973
 21
16.788211961996744
 31
0.0
  0
ELLIPSE
  5
43
330
17
100
AcDbEntity
  8
visible
100
AcDbEllipse
 10
-26.879999999999974
 20
15.56447058567413
 30
0.0
 11
1.3698271432099163
 21
5.841538632734133
 31
0.0
 40
0.5699183645181043
 41
-5.235376692768856
 42
-4.845642697953904
  0
ELLIPSE
  5
44
330
17
100
AcDbEntity
  8
visible
100
AcDbEllipse
 10
-26.879999999999974
 20
15.564470585674144
 30
0.0
 11
-0.605006988251045
 21
-2.580012896124242
 31
0.0
 40
0.5699183645181043
 41
1.3671098569412086
 42
1.7744827966485812
  0
LINE
  5
45
330
17
100
AcDbEntity
  8
visible
100
AcDbLine
 10
-20.799999999999972
 20
-0.6138495206328969
 30
0.0
 11
-20.799999999999972
 21
4.935563753738734
 31
0.0
  0
LINE
  5
46
330
17
100
AcDbEntity
  8
visible
100
AcDbLine
 10
-20.799999999999972
 20
11.670908511836146
 30
0.0
 11
-20.799999999999972
 21
13.612222220013763
 31
0.0
  0
LINE
  5
47
330
17
100
AcDbEntity
  8
visible
100
AcDbLine
 10
-20.799999999999972
 20
18.834074697541325
 30
0.0
 11
-20.799999999999972
 21
18.858361267068997
 31
0.0
  0
ELLIPSE
  5
48
330
17
100
AcDbEntity
  8
visible
100
AcDbEllipse
 10
-21.599999999999973
 20
-0.42625139221736674
 30
0.0
 11
1.0
 21
-2.92205803605901e-17
 31
0.0
 40
0.31266354735921503
 41
5.639684198386302
 42
6.283185307179586
  0
ELLIPSE
  5
49
330
17
100
AcDbEntity
  8
visible
100
AcDbEllipse
 10
-21.599999999999973
 20
19.04595939548453
 30
0.0
 11
1.0
 21
-2.92205803605901e-17
 31
0.0
 40
0.31266354735921503
 41
5.639684198386302
 42
6.283185307179586
  0
LINE
  5
4A
330
17
100
AcDbEntity
  8
visible
100
AcDbLine
 10
6.780000000000026
 20
-27.46032902297422
 30
0.0
 11
-38.81999999999998
 21
-16.767235703289067
 31
0.0
  0
ELLIPSE
  5
4B
330
17
100
AcDbEntity
  8
visible
100
AcDbEllipse
 10
8.100000000000026
 20
-26.910041179622
 30
0.0
 11
-2.2
 21
6.428527679329822e-17
 31
0.0
 40
0.31266354735921503
 41
-5.355890089177974
 42
-3.7850937623830774
  0
LINE
  5
4C
330
17
100
AcDbEntity
  8
visible
100
AcDbLine
 10
20.36000000000003
 20
-22.945467399107155
 30
0.0
 11
9.860000000000031
 21
-27.322757062136162
 31
0.0
  0
LINE
  5
4D
330
17
100
AcDbEntity
  8
visible
100
AcDbLine
 10
20.36000000000003
 20
-22.94546739910715
 30
0.0
 11
14.124024430001928
 21
-21.483145716886394
 31
0.0
  0
ELLIPSE
  5
4E
330
17
100
AcDbEntity
  8
visible
100
AcDbEllipse
 10
-28.799999999999976
 20
-3.4278214468658206
 30
0.0
 11
1.0
 21
-2.9220580360590104e-17
 31
0.0
 40
0.31266354735921503
 41
4.068887871591405
 42
5.639684198386302
  0
ELLIPSE
  5
4F
330
17
100
AcDbEntity
  8
visible
100
AcDbEllipse
 10
-28.799999999999976
 20
16.044389340836076
 30
0.0
 11
1.0
 21
-2.9220580360590104e-17
 31
0.0
 40
0.31266354735921503
 41
4.068887871591405
 42
5.639684198386302
  0
LINE
  5
50
330
17
100
AcDbEntity
  8
visible
100
AcDbLine
 10
-27.999999999999975
 20
15.856791212420546
 30
0.0
 11
-27.999999999999975
 21
13.482131360261778
 31
0.0
  0
LINE
  5
51
330
17
100
AcDbEntity
  8
visible
100
AcDbLine
 10
-27.999999999999975
 20
13.482131360261778
 30
0.0
 11
-27.999999999999975
 21
-3.615419575281347
 31
0.0
  0
ELLIPSE
  5
52
330
17
100
AcDbEntity
  8
visible
100
AcDbEllipse
 10
22.20000000000003
 20
-10.306419488768555
 30
0.0
 11
5.00222940446733
 21
-11.999070838405881
 31
0.0
 40
0.7598911526908056
 41
-6.020279389676176
 42
-5.761631469626159
  0
LINE
  5
53
330
17
100
AcDbEntity
  8
visible
100
AcDbLine
 10
31.08000000000003
 20
7.08345207352097
 30
0.0
 11
31.080000000000034
 21
-18.816327349888702
 31
0.0
  0
ELLIPSE
  5
54
330
17
100
AcDbEntity
  8
visible
100
AcDbEllipse
 10
-24.399999999999974
 20
14.982916387586002
 30
0.0
 11
-1.3698271432099163
 21
-5.841538632734133
 31
0.0
 40
0.5699183645181043
 41
5.102734038413776
 42
5.950796117395257
  0
LINE
  5
55
330
17
100
AcDbEntity
  8
visible
100
AcDbLine
 10
-26.78117617995811
 20
9.715852665282918
 30
0.0
 11
-27.159999999999975
 21
9.557926799418308
 31
0.0
  0
ELLIPSE
  5
56
330
17
100
AcDbEntity
  8
visible
100
AcDbEllipse
 10
-27.159999999999975
 20
9.17798122307289
 30
0.0
 11
0.09132180954732767
 21
0.38943590884894225
 31
0.0
 40
0.5699183645181043
 41
-5.8928402491505
 42
-4.322043922355603
  0
LINE
  5
57
330
17
100
AcDbEntity
  8
visible
100
AcDbLine
 10
-27.399999999999974
 20
3.188772454564221
 30
0.0
 11
-27.399999999999974
 21
9.077928887917965
 31
0.0
  0
ELLIPSE
  5
58
330
17
100
AcDbEntity
  8
visible
100
AcDbEllipse
 10
-27.159999999999975
 20
3.288824789719172
 30
0.0
 11
0.09132180954732767
 21
0.38943590884894225
 31
0.0
 40
0.5699183645181043
 41
-4.322043922355603
 42
-3.141592653589793
  0
LINE
  5
59
330
17
100
AcDbEntity
  8
visible
100
AcDbLine
 10
-27.917691453623952
 20
16.62658931510218
 30
0.0
 11
-29.997691453623954
 21
17.114344448982557
 31
0.0
  0
SPLINE
  5
5A
330
17
100
AcDbEntity
  8
visible
100
AcDbSpline
 70
0
 71
3
 72
11
 73
7
 74
0
 40
0.0
 40
0.0
 40
0.0
 40
0.0
 40
0.29246757156252107
 40
0.29246757156252107
 40
0.29246757156252107
 40
1.0
 40
1.0
 40
1.0
 40
1.0
 10
-27.672613634390686
 20
15.993273588991798
 30
0.0
 10
-27.65071357666777
 20
16.079226266555082
 30
0.0
 10
-27.643271398145117
 20
16.163666522111214
 30
0.0
 10
-27.65028709882272
 20
16.24659435566019
 30
0.0
 10
-27.666382567369777
 20
16.444460048288008
 30
0.0
 10
-27.770962835589962
 20
16.593817411476238
 30
0.0
 10
-27.917691453623952
 20
16.62658931510218
 30
0.0
  0
ELLIPSE
  5
5B
330
17
100
AcDbEntity
  8
visible
100
AcDbEllipse
 10
-24.399999999999974
 20
14.982916387586002
 30
0.0
 11
-1.3698271432099163
 21
-5.841538632734133
 31
0.0
 40
0.5699183645181043
 41
4.672958607109249
 42
5.102734038413776
  0
LINE
  5
5C
330
17
100
AcDbEntity
  8
visible
100
AcDbLine
 10
-26.381176179958103
 20
9.622053601075152
 30
0.0
 11
-26.781176179958102
 21
9.715852665282917
 31
0.0
  0
ELLIPSE
  5
5D
330
17
100
AcDbEntity
  8
visible
100
AcDbEllipse
 10
-23.99999999999997
 20
14.88911732337823
 30
0.0
 11
-1.3698271432099163
 21
-5.841538632734133
 31
0.0
 40
0.5699183645181043
 41
4.301767602907832
 42
5.950796117395257
  0
ELLIPSE
  5
5E
330
17
100
AcDbEntity
  8
visible
100
AcDbEllipse
 10
-23.99999999999997
 20
14.88911732337823
 30
0.0
 11
-1.3698271432099163
 21
-5.841538632734133
 31
0.0
 40
0.5699183645181043
 41
1.1130793058425024
 42
2.7167961743230196
  0
ELLIPSE
  5
5F
330
17
100
AcDbEntity
  8
visible
100
AcDbEllipse
 10
-23.99999999999997
 20
14.889117323378244
 30
0.0
 11
-0.605006988251045
 21
-2.580012896124242
 31
0.0
 40
0.5699183645181043
 41
0.39034505802908626
 42
3.141592653589793
  0
ELLIPSE
  5
60
330
17
100
AcDbEntity
  8
visible
100
AcDbEllipse
 10
-23.99999999999997
 20
14.889117323378244
 30
0.0
 11
-0.605006988251045
 21
-2.580012896124242
 31
0.0
 40
0.5699183645181043
 41
3.141592653589793
 42
6.283185307179586
  0
ELLIPSE
  5
61
330
17
100
AcDbEntity
  8
visible
100
AcDbEllipse
 10
-23.99999999999997
 20
14.889117323378244
 30
0.0
 11
-0.605006988251045
 21
-2.580012896124242
 31
0.0
 40
0.5699183645181043
 41
0.0
 42
0.39034505802908637
  0
LINE
  5
62
330
17
100
AcDbEntity
  8
visible
100
AcDbLine
 10
-20.807953270061414
 20
18.85504567022832
 30
0.0
 11
-20.799999999999976
 21
18.85836126706901
 31
0.0
  0
ELLIPSE
  5
63
330
17
100
AcDbEntity
  8
visible
100
AcDbEllipse
 10
20.360000000000028
 20
-23.70535855179797
 30
0.0
 11
-0.3078295018133739
 21
0.738404359286516
 31
0.0
 40
0.7598911526908056
 41
4.21061272002543
 42
5.781409046820326
  0
ELLIPSE
  5
64
330
17
100
AcDbEntity
  8
visible
100
AcDbEllipse
 10
13.800000000000027
 20
-13.80825121919176
 30
0.0
 11
3.0782950181337414
 21
-7.384043592865158
 31
0.0
 40
0.7598911526908056
 41
-6.283185307179586
 42
-5.21416524074395
  0
ELLIPSE
  5
65
330
17
100
AcDbEntity
  8
visible
100
AcDbEllipse
 10
13.800000000000027
 20
-13.80825121919176
 30
0.0
 11
3.0782950181337414
 21
-7.384043592865158
 31
0.0
 40
0.7598911526908056
 41
-0.4485399266699899
 42
-0.0
  0
LINE
  5
66
330
17
100
AcDbEntity
  8
visible
100
AcDbLine
 10
21.000000000000032
 20
-24.407147970759894
 30
0.0
 11
21.000000000000032
 21
-23.855437054530388
 31
0.0
  0
ELLIPSE
  5
67
330
17
100
AcDbEntity
  8
visible
100
AcDbEllipse
 10
13.800000000000027
 20
-13.80825121919176
 30
0.0
 11
5.00222940446733
 21
-11.999070838405881
 31
0.0
 40
0.7598911526908056
 41
-6.020279389676176
 42
-5.761631469626159
  0
LINE
  5
68
330
17
100
AcDbEntity
  8
visible
100
AcDbLine
 10
22.680000000000028
 20
3.5816203430977502
 30
0.0
 11
22.68000000000003
 21
-22.318159080311922
 31
0.0
  0
LINE
  5
69
330
17
100
AcDbEntity
  8
visible
100
AcDbLine
 10
22.680000000000028
 20
3.5816203430977587
 30
0.0
 11
21.00000000000003
 21
3.97557641277037
 31
0.0
  0
LINE
  5
6A
330
17
100
AcDbEntity
  8
visible
100
AcDbLine
 10
21.00000000000003
 20
3.9755764127703657
 30
0.0
 11
21.00000000000003
 21
-15.496634374931528
 31
0.0
  0
LINE
  5
6B
330
17
100
AcDbEntity
  8
visible
100
AcDbLine
 10
20.200000000000028
 20
-15.309036246515992
 30
0.0
 11
21.00000000000003
 21
-15.49663437493152
 31
0.0
  0
LINE
  5
6C
330
17
100
AcDbEntity
  8
visible
100
AcDbLine
 10
-27.999999999999975
 20
15.856791212420546
 30
0.0
 11
-27.67261363439069
 21
15.9932735889918
 31
0.0
  0
LINE
  5
6D
330
17
100
AcDbEntity
  8
visible
100
AcDbLine
 10
21.000000000000032
 20
-24.4071479707599
 30
0.0
 11
29.400000000000034
 21
-20.90531624033669
 31
0.0
  0
LINE
  5
6E
330
17
100
AcDbEntity
  8
visible
100
AcDbLine
 10
20.20000000000003
 20
-15.309036246515998
 30
0.0
 11
20.60000000000003
 21
-15.142282354591083
 31
0.0
  0
LINE
  5
6F
330
17
100
AcDbEntity
  8
visible
100
AcDbLine
 10
22.68000000000003
 20
-22.318159080311915
 30
0.0
 11
31.080000000000034
 21
-18.816327349888702
 31
0.0
  0
ELLIPSE
  5
70
330
17
100
AcDbEntity
  8
visible
100
AcDbEllipse
 10
22.980000000000032
 20
3.7066857620414453
 30
0.0
 11
0.11415226193415959
 21
0.48679488606117777
 31
0.0
 40
0.5699183645181043
 41
-5.8928402491505
 42
-4.322043922355603
  0
LINE
  5
71
330
17
100
AcDbEntity
  8
visible
100
AcDbLine
 10
22.980000000000032
 20
4.1816177324732084
 30
0.0
 11
23.76230854637605
 21
4.507750219459018
 31
0.0
  0
ELLIPSE
  5
72
330
17
100
AcDbEntity
  8
visible
100
AcDbEllipse
 10
26.88000000000003
 20
2.9578763561505923
 30
0.0
 11
-1.3698271432099134
 21
-5.841538632734133
 31
0.0
 40
0.5699183645181043
 41
4.19643907012174
 42
4.579135262815477
  0
LINE
  5
73
330
17
100
AcDbEntity
  8
visible
100
AcDbLine
 10
24.660000000000032
 20
6.51892855942771
 30
0.0
 11
24.660000000000032
 21
-9.55594782256746
 31
0.0
  0
LINE
  5
74
330
17
100
AcDbEntity
  8
visible
100
AcDbLine
 10
24.660000000000032
 20
-9.555947822567475
 30
0.0
 11
29.100000000000033
 21
-7.704979622200923
 31
0.0
  0
LINE
  5
75
330
17
100
AcDbEntity
  8
visible
100
AcDbLine
 10
29.10000000000003
 20
8.369896759794248
 30
0.0
 11
29.10000000000003
 21
-7.704979622200922
 31
0.0
  0
ELLIPSE
  5
76
330
17
100
AcDbEntity
  8
visible
100
AcDbEllipse
 10
26.88000000000003
 20
2.9578763561505923
 30
0.0
 11
-1.3698271432099134
 21
-5.841538632734133
 31
0.0
 40
0.5699183645181043
 41
2.484740160422282
 42
2.8674363531160183
  0
LINE
  5
77
330
17
100
AcDbEntity
  8
visible
100
AcDbLine
 10
29.99769145362401
 20
7.107186138023234
 30
0.0
 11
30.78000000000003
 21
7.433318625009044
 31
0.0
  0
ELLIPSE
  5
78
330
17
100
AcDbEntity
  8
visible
100
AcDbEllipse
 10
30.78000000000003
 20
6.958386654577282
 30
0.0
 11
-0.11415226193415959
 21
-0.48679488606117777
 31
0.0
 40
0.5699183645181043
 41
1.961141384823983
 42
3.141592653589793
  0
ELLIPSE
  5
79
330
17
100
AcDbEntity
  8
visible
100
AcDbEllipse
 10
30.78000000000003
 20
6.958386654577282
 30
0.0
 11
-0.11415226193415959
 21
-0.48679488606117777
 31
0.0
 40
0.5699183645181043
 41
3.141592653589793
 42
3.5319377116188795
  0
LINE
  5
7A
330
17
100
AcDbEntity
  8
visible
100
AcDbLine
 10
-23.983462819563997
 20
10.413181322584212
 30
0.0
 11
-23.823462819563993
 21
10.375661696901105
 31
0.0
  0
LINE
  5
7B
330
17
100
AcDbEntity
  8
visible
100
AcDbLine
 10
-23.37653718043594
 20
10.666199353668263
 30
0.0
 11
-23.983462819564
 21
10.413181322584213
 31
0.0
  0
LINE
  5
7C
330
17
100
AcDbEntity
  8
visible
100
AcDbLine
 10
-23.21653718043593
 20
10.62867972798516
 30
0.0
 11
-23.376537180435935
 21
10.666199353668267
 31
0.0
  0
LINE
  5
7D
330
17
100
AcDbEntity
  8
visible
100
AcDbLine
 10
-21.61882382004184
 20
11.607405577909756
 30
0.0
 11
-26.381176179958103
 21
9.622053601075157
 31
0.0
  0
ELLIPSE
  5
7E
330
17
100
AcDbEntity
  8
visible
100
AcDbEllipse
 10
-31.659999999999975
 20
-12.815326777345447
 30
0.0
 11
0.3078295018133739
 21
-0.738404359286516
 31
0.0
 40
0.7598911526908056
 41
-3.643368913949053
 42
-3.1415926535897936
  0
LINE
  5
7F
330
17
100
AcDbEntity
  8
visible
100
AcDbLine
 10
-31.659999999999975
 20
-12.055435624654649
 30
0.0
 11
-4.659999999999968
 21
-0.7995479197229081
 31
0.0
  0
ELLIPSE
  5
80
330
17
100
AcDbEntity
  8
visible
100
AcDbEllipse
 10
-4.65999999999997
 20
-1.55943907241371
 30
0.0
 11
0.3078295018133739
 21
-0.738404359286516
 31
0.0
 40
0.7598911526908056
 41
-3.643368913949053
 42
-3.1415926535897936
  0
LINE
  5
81
330
17
100
AcDbEntity
  8
visible
100
AcDbLine
 10
-23.21653718043594
 20
19.17745519575672
 30
0.0
 11
-23.276585253573735
 21
19.191536328426235
 31
0.0
  0
ELLIPSE
  5
82
330
17
100
AcDbEntity
  8
visible
100
AcDbEllipse
 10
21.60000000000003
 20
-15.246503537044148
 30
0.0
 11
-1.0
 21
-0.0
 31
0.0
 40
0.312663547359215
 41
-6.283185307179586
 42
-5.355890089177974
  0
ELLIPSE
  5
83
330
17
100
AcDbEntity
  8
visible
100
AcDbEllipse
 10
21.60000000000003
 20
4.225707250657749
 30
0.0
 11
-1.0
 21
-0.0
 31
0.0
 40
0.312663547359215
 41
-6.283185307179586
 42
-5.355890089177974
  0
LINE
  5
84
330
17
100
AcDbEntity
  8
visible
100
AcDbLine
 10
-7.519999999999973
 20
-13.324849626933059
 30
0.0
 11
-7.519999999999973
 21
-12.049182353707469
 31
0.0
  0
ELLIPSE
  5
85
330
17
100
AcDbEntity
  8
visible
100
AcDbEllipse
 10
-4.799999999999972
 20
-12.687015990320262
 30
0.0
 11
3.4
 21
-9.934997322600634e-17
 31
0.0
 40
0.31266354735921503
 41
2.498091544796509
 42
3.141592653589793
  0
ELLIPSE
  5
86
330
17
100
AcDbEntity
  8
visible
100
AcDbEllipse
 10
-4.799999999999972
 20
-12.687015990320262
 30
0.0
 11
3.4
 21
-9.934997322600634e-17
 31
0.0
 40
0.31266354735921503
 41
3.141592653589793
 42
5.639684198386302
  0
LINE
  5
87
330
17
100
AcDbEntity
  8
visible
100
AcDbLine
 10
-2.0799999999999725
 20
-13.324849626933057
 30
0.0
 11
7.520000000000029
 21
-9.322756220735105
 31
0.0
  0
ELLIPSE
  5
88
330
17
100
AcDbEntity
  8
visible
100
AcDbEllipse
 10
4.800000000000029
 20
-8.684922584122305
 30
0.0
 11
3.4
 21
-9.934997322600634e-17
 31
0.0
 40
0.31266354735921503
 41
5.639684198386302
 42
6.283185307179586
  0
ELLIPSE
  5
89
330
17
100
AcDbEntity
  8
visible
100
AcDbEllipse
 10
4.800000000000029
 20
-8.684922584122305
 30
0.0
 11
3.4
 21
-9.934997322600634e-17
 31
0.0
 40
0.31266354735921503
 41
0.0
 42
2.498091544796509
  0
LINE
  5
8A
330
17
100
AcDbEntity
  8
visible
100
AcDbLine
 10
2.080000000000029
 20
-11.590609150913945
 30
0.0
 11
2.080000000000029
 21
-8.047088947509511
 31
0.0
  0
LINE
  5
8B
330
17
100
AcDbEntity
  8
visible
100
AcDbLine
 10
-7.519999999999973
 20
-12.049182353707463
 30
0.0
 11
2.0800000000000285
 21
-8.047088947509511
 31
0.0
  0
ELLIPSE
  5
8C
330
17
100
AcDbEntity
  8
visible
100
AcDbEllipse
 10
-3.699999999999969
 20
-1.024665673821545
 30
0.0
 11
-1.2
 21
3.506469643270812e-17
 31
0.0
 40
0.31266354735921503
 41
-2.214297435588181
 42
-0.6435011087932845
  0
LINE
  5
8D
330
17
100
AcDbEntity
  8
visible
100
AcDbLine
 10
-2.9799999999999685
 20
-0.724508668356691
 30
0.0
 11
20.52000000000003
 21
-6.235203690562856
 31
0.0
  0
LINE
  5
8E
330
17
100
AcDbEntity
  8
visible
100
AcDbLine
 10
31.080000000000034
 20
-8.71149898564784
 30
0.0
 11
31.420000000000037
 21
-8.79122819022444
 31
0.0
  0
ELLIPSE
  5
8F
330
17
100
AcDbEntity
  8
visible
100
AcDbEllipse
 10
30.70000000000003
 20
-9.091385195689284
 30
0.0
 11
-1.2
 21
3.506469643270812e-17
 31
0.0
 40
0.31266354735921503
 41
-3.785093762383078
 42
-2.2142974355881813
  0
LINE
  5
90
330
17
100
AcDbEntity
  8
visible
100
AcDbLine
 10
31.660000000000032
 20
-9.316502949787917
 30
0.0
 11
31.080000000000034
 21
-9.558296093079043
 31
0.0
  0
LINE
  5
91
330
17
100
AcDbEntity
  8
visible
100
AcDbLine
 10
20.60000000000003
 20
-13.927248061511808
 30
0.0
 11
4.660000000000025
 21
-20.57239065471966
 31
0.0
  0
LINE
  5
92
330
17
100
AcDbEntity
  8
visible
100
AcDbLine
 10
21.68230854637605
 20
4.995505353339384
 30
0.0
 11
23.76230854637605
 21
4.507750219459009
 31
0.0
  0
SPLINE
  5
93
330
17
100
AcDbEntity
  8
visible
100
AcDbSpline
 70
0
 71
2
 72
6
 73
3
 74
0
 40
0.0
 40
0.0
 40
0.0
 40
1.0
 40
1.0
 40
1.0
 10
21.468854500684202
 20
4.97329626094281
 30
0.0
 10
21.579624536239507
 20
5.01892248780238
 30
0.0
 10
21.682308546376046
 20
4.995505353339382
 30
0.0
  0
ELLIPSE
  5
94
330
17
100
AcDbEntity
  8
visible
100
AcDbEllipse
 10
24.00000000000003
 20
3.6332296184464923
 30
0.0
 11
-1.3698271432099134
 21
-5.841538632734133
 31
0.0
 40
0.5699183645181043
 41
4.304310743554552
 42
4.689502149595651
  0
ELLIPSE
  5
95
330
17
100
AcDbEntity
  8
visible
100
AcDbEllipse
 10
24.00000000000003
 20
3.6332296184464923
 30
0.0
 11
-1.3698271432099134
 21
-5.841538632734133
 31
0.0
 40
0.5699183645181043
 41
4.767837879974402
 42
5.437630196853149
  0
SPLINE
  5
96
330
17
100
AcDbEntity
  8
visible
100
AcDbSpline
 70
0
 71
3
 72
8
 73
4
 74
0
 40
0.0
 40
0.0
 40
0.0
 40
0.0
 40
1.0
 40
1.0
 40
1.0
 40
1.0
 10
24.147102446119824
 20
6.63920183601288
 30
0.0
 10
24.065982972295146
 20
6.556669481493188
 30
0.0
 10
23.974711723222327
 20
6.488609744258966
 30
0.0
 10
23.886710821065293
 20
6.45209213906456
 30
0.0
  0
LINE
  5
97
330
17
100
AcDbEntity
  8
visible
100
AcDbLine
 10
24.147102446119835
 20
6.639201835898737
 30
0.0
 11
24.660000000000032
 21
6.518928559427703
 31
0.0
  0
ELLIPSE
  5
98
330
17
100
AcDbEntity
  8
visible
100
AcDbEllipse
 10
23.860000000000028
 20
6.874323694614034
 30
0.0
 11
-0.15391475090668694
 21
0.369202179643258
 31
0.0
 40
0.7598911526908056
 41
3.753193272305186
 42
4.21061272002543
  0
LINE
  5
99
330
17
100
AcDbEntity
  8
visible
100
AcDbLine
 10
24.180000000000028
 20
6.799284443247684
 30
0.0
 11
24.180000000000028
 21
12.688440876601566
 31
0.0
  0
ELLIPSE
  5
9A
330
17
100
AcDbEntity
  8
visible
100
AcDbEllipse
 10
23.860000000000028
 20
12.763480127967767
 30
0.0
 11
-0.15391475090668694
 21
0.369202179643258
 31
0.0
 40
0.7598911526908056
 41
4.21061272002543
 42
5.781409046820326
  0
LINE
  5
9B
330
17
100
AcDbEntity
  8
visible
100
AcDbLine
 10
23.860000000000028
 20
13.143425704313174
 30
0.0
 11
23.380000000000027
 21
13.255984581362492
 31
0.0
  0
LINE
  5
9C
330
17
100
AcDbEntity
  8
visible
100
AcDbLine
 10
27.82000000000003
 20
-7.40482261673607
 30
0.0
 11
29.10000000000003
 21
-7.704979622200916
 31
0.0
  0
LINE
  5
9D
330
17
100
AcDbEntity
  8
visible
100
AcDbLine
 10
24.660000000000032
 20
-8.722178362942895
 30
0.0
 11
27.820000000000032
 21
-7.404822616736068
 31
0.0
  0
LINE
  5
9E
330
17
100
AcDbEntity
  8
visible
100
AcDbLine
 10
28.587102446119843
 20
8.490170036265287
 30
0.0
 11
29.10000000000003
 21
8.369896759794255
 31
0.0
  0
ELLIPSE
  5
9F
330
17
100
AcDbEntity
  8
visible
100
AcDbEllipse
 10
28.300000000000033
 20
8.725291894980586
 30
0.0
 11
-0.15391475090668694
 21
0.369202179643258
 31
0.0
 40
0.7598911526908056
 41
3.753193272305266
 42
4.21061272002543
  0
LINE
  5
A0
330
17
100
AcDbEntity
  8
visible
100
AcDbLine
 10
28.62000000000003
 20
8.650252643614236
 30
0.0
 11
28.62000000000003
 21
14.539409076968118
 31
0.0
  0
ELLIPSE
  5
A1
330
17
100
AcDbEntity
  8
visible
100
AcDbEllipse
 10
28.300000000000033
 20
14.614448328334333
 30
0.0
 11
-0.15391475090668694
 21
0.369202179643258
 31
0.0
 40
0.7598911526908056
 41
4.21061272002543
 42
5.781409046820326
  0
LINE
  5
A2
330
17
100
AcDbEntity
  8
visible
100
AcDbLine
 10
28.30000000000003
 20
14.994393904679725
 30
0.0
 11
27.82000000000003
 21
15.106952781729044
 31
0.0
  0
LINE
  5
A3
330
17
100
AcDbEntity
  8
visible
100
AcDbLine
 10
27.82000000000003
 20
-7.40482261673607
 30
0.0
 11
27.82000000000003
 21
15.10695278172905
 31
0.0
  0
SPLINE
  5
A4
330
17
100
AcDbEntity
  8
visible
100
AcDbSpline
 70
0
 71
3
 72
11
 73
7
 74
0
 40
0.0
 40
0.0
 40
0.0
 40
0.0
 40
0.49999999999999795
 40
0.49999999999999795
 40
0.49999999999999795
 40
1.0
 40
1.0
 40
1.0
 40
1.0
 10
-23.211883074089382
 20
10.152550871842834
 30
0.0
 10
-23.144245917833665
 20
10.272221546562937
 30
0.0
 10
-23.10721656780938
 20
10.3853364982966
 30
0.0
 10
-23.107648432673734
 20
10.470960361206465
 30
0.0
 10
-23.10888456768352
 20
10.555977822966392
 30
0.0
 10
-23.14756728870444
 20
10.6120076184235
 30
0.0
 10
-23.21653718043594
 20
10.628679727985158
 30
0.0
  0
SPLINE
  5
A5
330
17
100
AcDbEntity
  8
visible
100
AcDbSpline
 70
0
 71
3
 72
8
 73
4
 74
0
 40
0.0
 40
0.0
 40
0.0
 40
0.0
 40
1.0
 40
1.0
 40
1.0
 40
1.0
 10
-23.823462819563982
 20
10.375661696901119
 30
0.0
 10
-23.685895276552394
 20
10.343993331542015
 30
0.0
 10
-23.423454614747897
 20
10.248252174289243
 30
0.0
 10
-23.21188307408964
 20
10.152550871842735
 30
0.0
  0
LINE
  5
A6
330
17
100
AcDbEntity
  8
visible
100
AcDbLine
 10
-23.636451991408187
 20
10.320280880444395
 30
0.0
 11
-23.376537180435943
 21
10.666199353668267
 31
0.0
  0
ELLIPSE
  5
A7
330
17
100
AcDbEntity
  8
visible
100
AcDbEllipse
 10
-30.699999999999974
 20
-12.280553378753282
 30
0.0
 11
-1.2
 21
3.506469643270812e-17
 31
0.0
 40
0.31266354735921503
 41
-6.9266864159728705
 42
-5.355890089177974
  0
LINE
  5
A8
330
17
100
AcDbEntity
  8
visible
100
AcDbLine
 10
2.9800000000000253
 20
-20.647429906085875
 30
0.0
 11
-31.41999999999998
 21
-12.580710384218127
 31
0.0
  0
ELLIPSE
  5
A9
330
17
100
AcDbEntity
  8
visible
100
AcDbEllipse
 10
3.700000000000026
 20
-20.34727290062102
 30
0.0
 11
-1.2
 21
3.506469643270812e-17
 31
0.0
 40
0.31266354735921503
 41
-5.355890089177974
 42
-3.7850937623830774
  0
SPLINE
  5
AA
330
17
100
AcDbEntity
  8
visible
100
AcDbSpline
 70
0
 71
2
 72
6
 73
3
 74
0
 40
0.0
 40
0.0
 40
0.0
 40
0.5017762603593054
 40
0.5017762603593054
 40
0.5017762603593054
 10
-23.216537180435957
 20
19.17745519575672
 30
0.0
 10
-23.135168070954833
 20
19.158515394545503
 30
0.0
 10
-23.113864975311262
 20
19.166836357605646
 30
0.0
  0
SPLINE
  5
AB
330
17
100
AcDbEntity
  8
visible
100
AcDbSpline
 70
0
 71
2
 72
6
 73
3
 74
0
 40
0.0
 40
0.0
 40
0.0
 40
1.0
 40
1.0
 40
1.0
 10
-23.11386497531126
 20
19.166836357605646
 30
0.0
 10
-23.083856521601867
 20
19.18238119734864
 30
0.0
 10
-23.211883074089382
 20
19.256060624230244
 30
0.0
  0
SPLINE
  5
AC
330
17
100
AcDbEntity
  8
visible
100
AcDbSpline
 70
0
 71
3
 72
8
 73
4
 74
0
 40
0.0
 40
0.0
 40
0.0
 40
0.0
 40
1.0
 40
1.0
 40
1.0
 40
1.0
 10
-23.211883074089645
 20
19.256060624230145
 30
0.0
 10
-23.34105456183062
 20
19.11979027578017
 30
0.0
 10
-23.49077798737246
 20
19.009449827428146
 30
0.0
 10
-23.6183055228753
 20
18.95654279622805
 30
0.0
  0
ELLIPSE
  5
AD
330
17
100
AcDbEntity
  8
visible
100
AcDbEllipse
 10
24.00000000000003
 20
3.6332296184464923
 30
0.0
 11
-0.5707613096707973
 21
-2.433974430305889
 31
0.0
 40
0.5699183645181043
 41
0.8459437314249074
 42
2.526890649113792
  0
LINE
  5
AE
330
17
100
AcDbEntity
  8
visible
100
AcDbLine
 10
23.38000000000003
 20
13.255984581362494
 30
0.0
 11
27.820000000000032
 21
15.106952781729047
 31
0.0
  0
ELLIPSE
  5
AF
330
17
100
AcDbEntity
  8
visible
100
AcDbEllipse
 10
25.60000000000003
 20
-4.340878165292622
 30
0.0
 11
-0.2511349762551508
 21
-1.0709487493345913
 31
0.0
 40
0.5699183645181043
 41
0.39034505802908626
 42
3.141592653589793
  0
ELLIPSE
  5
B0
330
17
100
AcDbEntity
  8
visible
100
AcDbEllipse
 10
25.60000000000003
 20
-4.340878165292622
 30
0.0
 11
-0.2511349762551508
 21
-1.0709487493345913
 31
0.0
 40
0.5699183645181043
 41
3.141592653589793
 42
6.283185307179586
  0
ELLIPSE
  5
B1
330
17
100
AcDbEntity
  8
visible
100
AcDbEllipse
 10
25.60000000000003
 20
-4.340878165292622
 30
0.0
 11
-0.2511349762551508
 21
-1.0709487493345913
 31
0.0
 40
0.5699183645181043
 41
0.0
 42
0.39034505802908637
  0
ELLIPSE
  5
B2
330
17
100
AcDbEntity
  8
visible
100
AcDbEllipse
 10
25.60000000000003
 20
3.258033361615446
 30
0.0
 11
-0.5707613096707973
 21
-2.433974430305889
 31
0.0
 40
0.5699183645181043
 41
0.39034505802908626
 42
3.141592653589793
  0
ELLIPSE
  5
B3
330
17
100
AcDbEntity
  8
visible
100
AcDbEllipse
 10
25.60000000000003
 20
3.258033361615446
 30
0.0
 11
-0.5707613096707973
 21
-2.433974430305889
 31
0.0
 40
0.5699183645181043
 41
3.141592653589793
 42
4.209206116183274
  0
ELLIPSE
  5
B4
330
17
100
AcDbEntity
  8
visible
100
AcDbEllipse
 10
25.60000000000003
 20
3.258033361615446
 30
0.0
 11
-0.5707613096707973
 21
-2.433974430305889
 31
0.0
 40
0.5699183645181043
 41
5.9962619606442775
 42
6.283185307179586
  0
ELLIPSE
  5
B5
330
17
100
AcDbEntity
  8
visible
100
AcDbEllipse
 10
25.60000000000003
 20
3.258033361615446
 30
0.0
 11
-0.5707613096707973
 21
-2.433974430305889
 31
0.0
 40
0.5699183645181043
 41
0.0
 42
0.39034505802908637
  0
ELLIPSE
  5
B6
330
17
100
AcDbEntity
  8
visible
100
AcDbEllipse
 10
25.60000000000003
 20
10.856944888523486
 30
0.0
 11
-0.2511349762551508
 21
-1.0709487493345913
 31
0.0
 40
0.5699183645181043
 41
0.39034505802908626
 42
3.141592653589793
  0
ELLIPSE
  5
B7
330
17
100
AcDbEntity
  8
visible
100
AcDbEllipse
 10
25.60000000000003
 20
10.856944888523486
 30
0.0
 11
-0.2511349762551508
 21
-1.0709487493345913
 31
0.0
 40
0.5699183645181043
 41
3.141592653589793
 42
6.283185307179586
  0
ELLIPSE
  5
B8
330
17
100
AcDbEntity
  8
visible
100
AcDbEllipse
 10
25.60000000000003
 20
10.856944888523486
 30
0.0
 11
-0.2511349762551508
 21
-1.0709487493345913
 31
0.0
 40
0.5699183645181043
 41
0.0
 42
0.39034505802908637
  0
ELLIPSE
  5
B9
330
17
100
AcDbEntity
  8
visible
100
AcDbEllipse
 10
-37.49999999999997
 20
-20.206376411563582
 30
0.0
 11
-3.0
 21
8.76617410817703e-17
 31
0.0
 40
0.31266354735921503
 41
-6.283185307179586
 42
-5.355890089177974
  0
ELLIPSE
  5
BA
330
17
100
AcDbEntity
  8
visible
100
AcDbEllipse
 10
-37.49999999999997
 20
-16.976839012627664
 30
0.0
 11
-3.0
 21
8.76617410817703e-17
 31
0.0
 40
0.31266354735921503
 41
-6.283185307179586
 42
-5.355890089177974
  0
LINE
  5
BB
330
17
100
AcDbEntity
  8
visible
100
AcDbLine
 10
-39.299999999999976
 20
-20.95676892522571
 30
0.0
 11
-39.299999999999976
 21
-17.727231526289785
 31
0.0
  0
ELLIPSE
  5
BC
330
17
100
AcDbEntity
  8
visible
100
AcDbEllipse
 10
-38.81999999999998
 20
-20.75666425491579
 30
0.0
 11
-0.18264361909465535
 21
-0.7788718176978845
 31
0.0
 40
0.5699183645181043
 41
5.102734038413776
 42
6.283185307179586
  0
ELLIPSE
  5
BD
330
17
100
AcDbEntity
  8
visible
100
AcDbEllipse
 10
-38.81999999999998
 20
-17.527126855979873
 30
0.0
 11
0.18264361909465535
 21
0.7788718176978845
 31
0.0
 40
0.5699183645181043
 41
-5.8928402491505
 42
-4.322043922355603
  0
LINE
  5
BE
330
17
100
AcDbEntity
  8
visible
100
AcDbLine
 10
6.300000000000026
 20
-31.64986224491085
 30
0.0
 11
-39.299999999999976
 21
-20.956768925225695
 31
0.0
  0
LINE
  5
BF
330
17
100
AcDbEntity
  8
visible
100
AcDbLine
 10
6.300000000000026
 20
-28.420324845974932
 30
0.0
 11
-39.299999999999976
 21
-17.727231526289778
 31
0.0
  0
LINE
  5
C0
330
17
100
AcDbEntity
  8
visible
100
AcDbLine
 10
6.300000000000026
 20
-31.649862244910857
 30
0.0
 11
6.300000000000026
 21
-28.420324845974932
 31
0.0
  0
ELLIPSE
  5
C1
330
17
100
AcDbEntity
  8
visible
100
AcDbEllipse
 10
-21.299999999999976
 20
19.171024814428222
 30
0.0
 11
-0.11415226193415959
 21
-0.48679488606117777
 31
0.0
 40
0.5699183645181043
 41
3.141592653589793
 42
3.245713222915528
  0
ELLIPSE
  5
C2
330
17
100
AcDbEntity
  8
visible
100
AcDbEllipse
 10
-29.099999999999973
 20
15.919323921892385
 30
0.0
 11
0.11415226193415959
 21
0.48679488606117777
 31
0.0
 40
0.5699183645181043
 41
-5.8928402491505
 42
-4.322043922355603
  0
LINE
  5
C3
330
17
100
AcDbEntity
  8
visible
100
AcDbLine
 10
-30.779999999999973
 20
16.788211961996748
 30
0.0
 11
-29.099999999999973
 21
16.394255892324136
 31
0.0
  0
ELLIPSE
  5
C4
330
17
100
AcDbEntity
  8
visible
100
AcDbEllipse
 10
6.780000000000026
 20
-31.44975757460095
 30
0.0
 11
-0.18264361909465535
 21
-0.7788718176978845
 31
0.0
 40
0.5699183645181043
 41
5.102734038413776
 42
6.283185307179586
  0
ELLIPSE
  5
C5
330
17
100
AcDbEntity
  8
visible
100
AcDbEllipse
 10
6.780000000000026
 20
-28.220220175665034
 30
0.0
 11
0.18264361909465535
 21
0.7788718176978845
 31
0.0
 40
0.5699183645181043
 41
-5.8928402491505
 42
-4.322043922355603
  0
LINE
  5
C6
330
17
100
AcDbEntity
  8
visible
100
AcDbLine
 10
10.500000000000028
 20
-31.462264116495327
 30
0.0
 11
10.500000000000028
 21
-28.2327267175594
 31
0.0
  0
ELLIPSE
  5
C7
330
17
100
AcDbEntity
  8
visible
100
AcDbEllipse
 10
8.100000000000026
 20
-30.89946973124873
 30
0.0
 11
-3.0
 21
8.76617410817703e-17
 31
0.0
 40
0.31266354735921503
 41
-5.355890089177974
 42
-3.7850937623830774
  0
ELLIPSE
  5
C8
330
17
100
AcDbEntity
  8
visible
100
AcDbEllipse
 10
8.100000000000026
 20
-27.66993233231281
 30
0.0
 11
-3.0
 21
8.76617410817703e-17
 31
0.0
 40
0.31266354735921503
 41
-5.355890089177974
 42
-3.7850937623830774
  0
ELLIPSE
  5
C9
330
17
100
AcDbEntity
  8
visible
100
AcDbEllipse
 10
9.860000000000028
 20
-31.3121856137629
 30
0.0
 11
0.3078295018133739
 21
-0.738404359286516
 31
0.0
 40
0.7598911526908056
 41
-6.283185307179586
 42
-5.21416524074395
  0
ELLIPSE
  5
CA
330
17
100
AcDbEntity
  8
visible
100
AcDbEllipse
 10
39.26000000000003
 20
-19.055774557281666
 30
0.0
 11
0.3078295018133739
 21
-0.738404359286516
 31
0.0
 40
0.7598911526908056
 41
-6.283185307179586
 42
-5.214165240743949
  0
LINE
  5
CB
330
17
100
AcDbEntity
  8
visible
100
AcDbLine
 10
39.900000000000034
 20
-19.205853060014093
 30
0.0
 11
10.500000000000032
 21
-31.46226411649532
 31
0.0
  0
ELLIPSE
  5
CC
330
17
100
AcDbEntity
  8
visible
100
AcDbEllipse
 10
37.50000000000003
 20
-18.643058674767502
 30
0.0
 11
-3.0
 21
8.76617410817703e-17
 31
0.0
 40
0.31266354735921503
 41
-3.785093762383078
 42
-3.141592653589793
  0
ELLIPSE
  5
CD
330
17
100
AcDbEntity
  8
visible
100
AcDbEllipse
 10
38.820000000000036
 20
-14.863233432479376
 30
0.0
 11
-0.18264361909465535
 21
-0.7788718176978845
 31
0.0
 40
0.5699183645181043
 41
3.141592653589793
 42
3.5319377116188795
  0
LINE
  5
CE
330
17
100
AcDbEntity
  8
visible
100
AcDbLine
 10
39.900000000000034
 20
-19.2058530600141
 30
0.0
 11
39.900000000000034
 21
-15.976315661078175
 31
0.0
  0
ELLIPSE
  5
CF
330
17
100
AcDbEntity
  8
visible
100
AcDbEllipse
 10
37.50000000000003
 20
-15.413521275831584
 30
0.0
 11
-3.0
 21
8.76617410817703e-17
 31
0.0
 40
0.31266354735921503
 41
-3.785093762383078
 42
-3.141592653589793
  0
ELLIPSE
  5
D0
330
17
100
AcDbEntity
  8
visible
100
AcDbEllipse
 10
30.70000000000003
 20
-13.080813747316014
 30
0.0
 11
-2.0
 21
5.84411607211802e-17
 31
0.0
 40
0.31266354735921503
 41
-3.785093762383078
 42
-3.1415926535897936
  0
ELLIPSE
  5
D1
330
17
100
AcDbEntity
  8
visible
100
AcDbEllipse
 10
31.660000000000032
 20
-13.305931501414648
 30
0.0
 11
0.3078295018133739
 21
-0.738404359286516
 31
0.0
 40
0.7598911526908056
 41
-6.283185307179586
 42
-5.214165240743949
  0
LINE
  5
D2
330
17
100
AcDbEntity
  8
visible
100
AcDbLine
 10
32.30000000000003
 20
-13.456010004147075
 30
0.0
 11
31.080000000000034
 21
-13.964609374518064
 31
0.0
  0
LINE
  5
D3
330
17
100
AcDbEntity
  8
visible
100
AcDbLine
 10
19.377254537268605
 20
-18.84330525481082
 30
0.0
 11
5.300000000000026
 21
-24.711897709078816
 31
0.0
  0
ELLIPSE
  5
D4
330
17
100
AcDbEntity
  8
visible
100
AcDbEllipse
 10
4.660000000000027
 20
-24.561819206346392
 30
0.0
 11
0.3078295018133739
 21
-0.738404359286516
 31
0.0
 40
0.7598911526908056
 41
-6.283185307179586
 42
-5.21416524074395
  0
LINE
  5
D5
330
17
100
AcDbEntity
  8
visible
100
AcDbLine
 10
39.900000000000034
 20
-15.976315661078175
 30
0.0
 11
30.266189887381394
 21
-19.992503986940072
 31
0.0
  0
ELLIPSE
  5
D6
330
17
100
AcDbEntity
  8
visible
100
AcDbEllipse
 10
39.26000000000003
 20
-15.826237158345748
 30
0.0
 11
-0.3078295018133739
 21
0.738404359286516
 31
0.0
 40
0.7598911526908056
 41
4.210612720025431
 42
5.781409046820327
  0
ELLIPSE
  5
D7
330
17
100
AcDbEntity
  8
visible
100
AcDbEllipse
 10
-31.419999999999973
 20
-16.570138935844852
 30
0.0
 11
-0.18264361909465535
 21
-0.7788718176978845
 31
0.0
 40
0.5699183645181043
 41
5.102734038413776
 42
6.283185307179586
  0
ELLIPSE
  5
D8
330
17
100
AcDbEntity
  8
visible
100
AcDbEllipse
 10
-30.699999999999974
 20
-16.269981930380013
 30
0.0
 11
-2.0
 21
5.84411607211802e-17
 31
0.0
 40
0.31266354735921503
 41
-6.283185307179586
 42
-5.355890089177974
  0
LINE
  5
D9
330
17
100
AcDbEntity
  8
visible
100
AcDbLine
 10
-28.399999999999974
 20
16.42552224706006
 30
0.0
 11
-27.917691453623952
 21
16.626589315102184
 31
0.0
  0
ELLIPSE
  5
DA
330
17
100
AcDbEntity
  8
visible
100
AcDbEllipse
 10
-28.799999999999976
 20
16.51932131126783
 30
0.0
 11
0.5
 21
-1.4610290180295052e-17
 31
0.0
 40
0.31266354735921503
 41
4.068887871591405
 42
5.639684198386302
  0
ELLIPSE
  5
DB
330
17
100
AcDbEntity
  8
visible
100
AcDbEllipse
 10
-21.599999999999973
 20
19.520891365916285
 30
0.0
 11
0.5
 21
-1.461029018029505e-17
 31
0.0
 40
0.31266354735921503
 41
6.090431950020431
 42
6.8511389672105
  0
ELLIPSE
  5
DC
330
17
100
AcDbEntity
  8
visible
100
AcDbEllipse
 10
-21.19999999999997
 20
18.952160331276772
 30
0.0
 11
-0.19239343863335867
 21
0.4615027245540725
 31
0.0
 40
0.7598911526908056
 41
4.21061272002543
 42
5.327657405201111
  0
ELLIPSE
  5
DD
330
17
100
AcDbEntity
  8
visible
100
AcDbEllipse
 10
9.860000000000028
 20
-28.082648214826982
 30
0.0
 11
-0.3078295018133739
 21
0.738404359286516
 31
0.0
 40
0.7598911526908056
 41
4.21061272002543
 42
5.781409046820326
  0
LINE
  5
DE
330
17
100
AcDbEntity
  8
visible
100
AcDbLine
 10
21.000000000000032
 20
-23.855437054530395
 30
0.0
 11
10.500000000000032
 21
-28.2327267175594
 31
0.0
  0
ELLIPSE
  5
DF
330
17
100
AcDbEntity
  8
visible
100
AcDbEllipse
 10
3.700000000000026
 20
-24.33670145224776
 30
0.0
 11
-2.0
 21
5.84411607211802e-17
 31
0.0
 40
0.31266354735921503
 41
-5.355890089177974
 42
-3.7850937623830774
  0
ELLIPSE
  5
E0
330
17
100
AcDbEntity
  8
visible
100
AcDbEllipse
 10
2.9800000000000253
 20
-24.636858457712606
 30
0.0
 11
-0.18264361909465535
 21
-0.7788718176978845
 31
0.0
 40
0.5699183645181043
 41
5.102734038413776
 42
6.283185307179586
  0
LINE
  5
E1
330
17
100
AcDbEntity
  8
visible
100
AcDbLine
 10
2.500000000000025
 20
-24.836963128022504
 30
0.0
 11
-31.89999999999998
 21
-16.770243606154757
 31
0.0
  0
ELLIPSE
  5
E2
330
17
100
AcDbEntity
  8
visible
100
AcDbEllipse
 10
-28.399999999999974
 20
15.950590276628304
 30
0.0
 11
-0.19239343863335867
 21
0.4615027245540725
 31
0.0
 40
0.7598911526908056
 41
4.21061272002543
 42
5.781409046820326
  0
LINE
  5
E3
330
17
100
AcDbEntity
  8
visible
100
AcDbLine
 10
32.30000000000003
 20
-13.456010004147068
 30
0.0
 11
32.30000000000003
 21
-10.226472605211143
 31
0.0
  0
ELLIPSE
  5
E4
330
17
100
AcDbEntity
  8
visible
100
AcDbEllipse
 10
30.70000000000003
 20
-9.851276348380082
 30
0.0
 11
-2.0
 21
5.84411607211802e-17
 31
0.0
 40
0.31266354735921503
 41
-3.785093762383078
 42
-3.141592653589793
  0
LINE
  5
E5
330
17
100
AcDbEntity
  8
visible
100
AcDbLine
 10
5.300000000000027
 20
-24.711897709078805
 30
0.0
 11
5.300000000000027
 21
-21.48236031014288
 31
0.0
  0
LINE
  5
E6
330
17
100
AcDbEntity
  8
visible
100
AcDbLine
 10
32.30000000000003
 20
-10.226472605211143
 30
0.0
 11
31.080000000000034
 21
-10.735071975582132
 31
0.0
  0
LINE
  5
E7
330
17
100
AcDbEntity
  8
visible
100
AcDbLine
 10
20.60000000000003
 20
-15.104023944014898
 30
0.0
 11
5.300000000000026
 21
-21.482360310142884
 31
0.0
  0
LINE
  5
E8
330
17
100
AcDbEntity
  8
visible
100
AcDbLine
 10
29.692172352454307
 20
7.688411663406844
 30
0.0
 11
30.78000000000003
 21
7.433318625009037
 31
0.0
  0
LINE
  5
E9
330
17
100
AcDbEntity
  8
visible
100
AcDbLine
 10
-26.03999999999997
 20
9.451621193316171
 30
0.0
 11
-23.823462819564
 21
10.375661696901108
 31
0.0
  0
LINE
  5
EA
330
17
100
AcDbEntity
  8
visible
100
AcDbLine
 10
-23.21653718043593
 20
10.628679727985162
 30
0.0
 11
-20.99999999999997
 21
11.552720231570095
 31
0.0
  0
ELLIPSE
  5
EB
330
17
100
AcDbEntity
  8
visible
100
AcDbEllipse
 10
-21.319999999999972
 20
11.627759482936312
 30
0.0
 11
0.4
 21
0.0
 31
0.0
 40
0.31266354735921503
 41
5.639684198386303
 42
7.210480525181199
  0
LINE
  5
EC
330
17
100
AcDbEntity
  8
visible
100
AcDbLine
 10
-21.07999999999997
 20
11.727811818091254
 30
0.0
 11
-21.50192903020565
 21
11.82675318857971
 31
0.0
  0
LINE
  5
ED
330
17
100
AcDbEntity
  8
visible
100
AcDbLine
 10
-27.159999999999975
 20
9.557926799418302
 30
0.0
 11
-26.599999999999977
 21
9.426608109527432
 31
0.0
  0
ELLIPSE
  5
EE
330
17
100
AcDbEntity
  8
visible
100
AcDbEllipse
 10
-26.35999999999997
 20
9.526660444682378
 30
0.0
 11
0.4
 21
0.0
 31
0.0
 40
0.312663547359215
 41
4.068887871591405
 42
5.639684198386302
  0
LINE
  5
EF
330
17
100
AcDbEntity
  8
visible
100
AcDbLine
 10
-27.399999999999974
 20
9.077928887917954
 30
0.0
 11
-26.839999999999975
 21
8.946610198027084
 31
0.0
  0
ELLIPSE
  5
F0
330
17
100
AcDbEntity
  8
visible
100
AcDbEllipse
 10
-26.599999999999973
 20
9.04666253318203
 30
0.0
 11
0.09132180954732767
 21
0.38943590884894225
 31
0.0
 40
0.5699183645181043
 41
-5.8928402491505
 42
-4.322043922355603
  0
LINE
  5
F1
330
17
100
AcDbEntity
  8
visible
100
AcDbLine
 10
-27.399999999999974
 20
3.1887724545642215
 30
0.0
 11
-26.839999999999975
 21
3.0574537646733515
 31
0.0
  0
LINE
  5
F2
330
17
100
AcDbEntity
  8
visible
100
AcDbLine
 10
-26.83999999999997
 20
3.057453764673337
 30
0.0
 11
-26.83999999999997
 21
8.94661019802708
 31
0.0
  0
ELLIPSE
  5
F3
330
17
100
AcDbEntity
  8
visible
100
AcDbEllipse
 10
-26.599999999999973
 20
3.1575060998282964
 30
0.0
 11
-0.09132180954732767
 21
-0.38943590884894225
 31
0.0
 40
0.5699183645181043
 41
5.102734038413776
 42
6.283185307179586
  0
ELLIPSE
  5
F4
330
17
100
AcDbEntity
  8
visible
100
AcDbEllipse
 10
-21.07999999999997
 20
11.347866241745848
 30
0.0
 11
-0.09132180954732748
 21
-0.3894359088489423
 31
0.0
 40
0.5699183645181034
 41
3.141592653589793
 42
3.5319377116188795
  0
ELLIPSE
  5
F5
330
17
100
AcDbEntity
  8
visible
100
AcDbEllipse
 10
-30.699999999999974
 20
-13.04044453144408
 30
0.0
 11
-2.0
 21
5.84411607211802e-17
 31
0.0
 40
0.31266354735921503
 41
-6.283185307179586
 42
-5.355890089177974
  0
LINE
  5
F6
330
17
100
AcDbEntity
  8
visible
100
AcDbLine
 10
-31.899999999999974
 20
-16.770243606154743
 30
0.0
 11
-31.899999999999974
 21
-13.540706207218818
 31
0.0
  0
ELLIPSE
  5
F7
330
17
100
AcDbEntity
  8
visible
100
AcDbEllipse
 10
21.300000000000033
 20
4.100641831714057
 30
0.0
 11
0.11415226193415959
 21
0.48679488606117777
 31
0.0
 40
0.5699183645181043
 41
-5.8928402491505
 42
-4.322043922355603
  0
LINE
  5
F8
330
17
100
AcDbEntity
  8
visible
100
AcDbLine
 10
22.980000000000032
 20
4.181617732473205
 30
0.0
 11
21.300000000000033
 21
4.575573802145816
 31
0.0
  0
ELLIPSE
  5
F9
330
17
100
AcDbEntity
  8
visible
100
AcDbEllipse
 10
3.700000000000026
 20
-21.107164053311834
 30
0.0
 11
-2.0
 21
5.84411607211802e-17
 31
0.0
 40
0.31266354735921503
 41
-5.355890089177974
 42
-3.7850937623830774
  0
LINE
  5
FA
330
17
100
AcDbEntity
  8
visible
100
AcDbLine
 10
2.500000000000025
 20
-24.836963128022497
 30
0.0
 11
2.500000000000025
 21
-21.60742572908657
 31
0.0
  0
LINE
  5
FB
330
17
100
AcDbEntity
  8
visible
100
AcDbLine
 10
2.500000000000025
 20
-21.60742572908657
 30
0.0
 11
-31.89999999999998
 21
-13.540706207218824
 31
0.0
  0
ELLIPSE
  5
FC
330
17
100
AcDbEntity
  8
visible
100
AcDbEllipse
 10
-2.9799999999999685
 20
-1.4843998210474894
 30
0.0
 11
-0.18264361909465535
 21
-0.7788718176978845
 31
0.0
 40
0.5699183645181043
 41
3.141592653589793
 42
3.5319377116188795
  0
ELLIPSE
  5
FD
330
17
100
AcDbEntity
  8
visible
100
AcDbEllipse
 10
31.42000000000003
 20
-9.551119342915243
 30
0.0
 11
-0.18264361909465535
 21
-0.7788718176978845
 31
0.0
 40
0.5699183645181043
 41
3.141592653589793
 42
3.5319377116188795
  0
ELLIPSE
  5
FE
330
17
100
AcDbEntity
  8
visible
100
AcDbEllipse
 10
31.660000000000032
 20
-10.076394102478716
 30
0.0
 11
-0.3078295018133739
 21
0.738404359286516
 31
0.0
 40
0.7598911526908056
 41
4.210612720025431
 42
5.781409046820327
  0
ELLIPSE
  5
FF
330
17
100
AcDbEntity
  8
visible
100
AcDbEllipse
 10
4.660000000000027
 20
-21.332281807410453
 30
0.0
 11
-0.3078295018133739
 21
0.738404359286516
 31
0.0
 40
0.7598911526908056
 41
4.21061272002543
 42
5.781409046820326
  0
LINE
  5
100
330
17
100
AcDbEntity
  8
visible
100
AcDbLine
 10
21.200000000000028
 20
4.794438285297261
 30
0.0
 11
21.68230854637605
 21
4.995505353339385
 31
0.0
  0
ELLIPSE
  5
101
330
17
100
AcDbEntity
  8
visible
100
AcDbEllipse
 10
21.60000000000003
 20
4.700639221089503
 30
0.0
 11
-0.5
 21
-0.0
 31
0.0
 40
0.312663547359215
 41
-6.9266864159728705
 42
-5.355890089177974
  0
LINE
  5
102
330
17
100
AcDbEntity
  8
visible
100
AcDbLine
 10
-25.719999999999974
 20
8.996636365604559
 30
0.0
 11
-20.679999999999975
 21
11.097735403858483
 31
0.0
  0
ELLIPSE
  5
103
330
17
100
AcDbEntity
  8
visible
100
AcDbEllipse
 10
-20.99999999999997
 20
11.172774655224686
 30
0.0
 11
-0.15391475090668694
 21
0.369202179643258
 31
0.0
 40
0.7598911526908056
 41
4.21061272002543
 42
5.781409046820326
  0
ELLIPSE
  5
104
330
17
100
AcDbEntity
  8
visible
100
AcDbEllipse
 10
-26.03999999999997
 20
9.071675616970765
 30
0.0
 11
-0.15391475090668694
 21
0.369202179643258
 31
0.0
 40
0.7598911526908056
 41
4.21061272002543
 42
5.781409046820326
  0
ELLIPSE
  5
105
330
17
100
AcDbEntity
  8
visible
100
AcDbEllipse
 10
-21.319999999999972
 20
11.247813906590906
 30
0.0
 11
0.8
 21
0.0
 31
0.0
 40
0.31266354735921503
 41
5.639684198386303
 42
6.283185307179586
  0
ELLIPSE
  5
106
330
17
100
AcDbEntity
  8
visible
100
AcDbEllipse
 10
-26.35999999999997
 20
9.146714868336971
 30
0.0
 11
0.8
 21
0.0
 31
0.0
 40
0.312663547359215
 41
4.068887871591405
 42
5.639684198386302
  0
LINE
  5
107
330
17
100
AcDbEntity
  8
visible
100
AcDbLine
 10
-25.719999999999974
 20
3.107479932250822
 30
0.0
 11
-25.719999999999974
 21
8.996636365604566
 31
0.0
  0
ELLIPSE
  5
108
330
17
100
AcDbEntity
  8
visible
100
AcDbEllipse
 10
-26.35999999999997
 20
3.2575584349832383
 30
0.0
 11
0.8
 21
0.0
 31
0.0
 40
0.312663547359215
 41
4.068887871591405
 42
5.639684198386302
  0
ELLIPSE
  5
109
330
17
100
AcDbEntity
  8
visible
100
AcDbEllipse
 10
-26.03999999999997
 20
3.182519183617032
 30
0.0
 11
0.15391475090668694
 21
-0.369202179643258
 31
0.0
 40
0.7598911526908056
 41
-6.283185307179586
 42
-5.21416524074395
  0
LINE
  5
10A
330
17
100
AcDbEntity
  8
visible
100
AcDbLine
 10
-25.719999999999974
 20
3.1074799322508255
 30
0.0
 11
-20.679999999999975
 21
5.20857897050475
 31
0.0
  0
ELLIPSE
  5
10B
330
17
100
AcDbEntity
  8
visible
100
AcDbEllipse
 10
-20.99999999999997
 20
5.283618221870952
 30
0.0
 11
0.15391475090668694
 21
-0.369202179643258
 31
0.0
 40
0.7598911526908056
 41
-6.283185307179586
 42
-5.21416524074395
  0
ELLIPSE
  5
10C
330
17
100
AcDbEntity
  8
visible
100
AcDbEllipse
 10
-21.319999999999972
 20
5.358657473237173
 30
0.0
 11
0.8
 21
0.0
 31
0.0
 40
0.31266354735921503
 41
5.639684198386303
 42
6.283185307179586
  0
LINE
  5
10D
330
17
100
AcDbEntity
  8
visible
100
AcDbLine
 10
-20.679999999999975
 20
5.2085789705047425
 30
0.0
 11
-20.679999999999975
 21
11.097735403858486
 31
0.0
  0
ELLIPSE
  5
10E
330
17
100
AcDbEntity
  8
visible
100
AcDbEllipse
 10
-31.419999999999973
 20
-13.34060153690892
 30
0.0
 11
0.18264361909465535
 21
0.7788718176978845
 31
0.0
 40
0.5699183645181043
 41
-5.8928402491505
 42
-4.322043922355603
  0
LINE
  5
10F
330
17
100
AcDbEntity
  8
visible
100
AcDbLine
 10
-25.719999999999974
 20
18.30530298606695
 30
0.0
 11
-20.679999999999975
 21
20.406402024320872
 31
0.0
  0
ELLIPSE
  5
110
330
17
100
AcDbEntity
  8
visible
100
AcDbEllipse
 10
-20.99999999999997
 20
20.481441275687075
 30
0.0
 11
0.15391475090668694
 21
-0.369202179643258
 31
0.0
 40
0.7598911526908056
 41
-6.283185307179586
 42
-5.21416524074395
  0
ELLIPSE
  5
111
330
17
100
AcDbEntity
  8
visible
100
AcDbEllipse
 10
-26.03999999999997
 20
18.380342237433155
 30
0.0
 11
0.15391475090668694
 21
-0.369202179643258
 31
0.0
 40
0.7598911526908056
 41
-6.283185307179586
 42
-5.21416524074395
  0
ELLIPSE
  5
112
330
17
100
AcDbEntity
  8
visible
100
AcDbEllipse
 10
-21.319999999999972
 20
20.556480527053296
 30
0.0
 11
0.8
 21
0.0
 31
0.0
 40
0.31266354735921503
 41
5.639684198386303
 42
6.283185307179586
  0
ELLIPSE
  5
113
330
17
100
AcDbEntity
  8
visible
100
AcDbEllipse
 10
-28.279999999999976
 20
18.905616996996642
 30
0.0
 11
0.8
 21
-2.337646428847208e-17
 31
0.0
 40
0.31266354735921503
 41
3.141592653589793
 42
4.068887871591405
  0
ELLIPSE
  5
114
330
17
100
AcDbEntity
  8
visible
100
AcDbEllipse
 10
-28.51999999999998
 20
18.805564661841686
 30
0.0
 11
-0.09132180954732767
 21
-0.38943590884894225
 31
0.0
 40
0.5699183645181043
 41
5.102734038413776
 42
6.283185307179586
  0
LINE
  5
115
330
17
100
AcDbEntity
  8
visible
100
AcDbLine
 10
-28.759999999999977
 20
18.705512326686744
 30
0.0
 11
-26.839999999999975
 21
18.255276818489474
 31
0.0
  0
ELLIPSE
  5
116
330
17
100
AcDbEntity
  8
visible
100
AcDbEllipse
 10
-26.599999999999973
 20
18.35532915364442
 30
0.0
 11
-0.09132180954732767
 21
-0.38943590884894225
 31
0.0
 40
0.5699183645181043
 41
5.102734038413776
 42
6.283185307179586
  0
ELLIPSE
  5
117
330
17
100
AcDbEntity
  8
visible
100
AcDbEllipse
 10
-26.35999999999997
 20
18.45538148879936
 30
0.0
 11
0.8
 21
0.0
 31
0.0
 40
0.312663547359215
 41
4.068887871591405
 42
5.639684198386302
  0
ELLIPSE
  5
118
330
17
100
AcDbEntity
  8
visible
100
AcDbEllipse
 10
-28.279999999999976
 20
24.794773430350375
 30
0.0
 11
0.8
 21
-2.337646428847208e-17
 31
0.0
 40
0.31266354735921503
 41
3.141592653589793
 42
4.068887871591405
  0
LINE
  5
119
330
17
100
AcDbEntity
  8
visible
100
AcDbLine
 10
-28.759999999999977
 20
18.705512326686726
 30
0.0
 11
-28.759999999999977
 21
24.59466876004047
 31
0.0
  0
ELLIPSE
  5
11A
330
17
100
AcDbEntity
  8
visible
100
AcDbEllipse
 10
-23.559999999999974
 20
26.970911719970502
 30
0.0
 11
0.15391475090668694
 21
-0.369202179643258
 31
0.0
 40
0.7598911526908056
 41
-3.643368913949053
 42
-3.1415926535897936
  0
LINE
  5
11B
330
17
100
AcDbEntity
  8
visible
100
AcDbLine
 10
-23.559999999999974
 20
27.35085729631591
 30
0.0
 11
-28.599999999999973
 21
25.249758258061984
 31
0.0
  0
ELLIPSE
  5
11C
330
17
100
AcDbEntity
  8
visible
100
AcDbEllipse
 10
-28.599999999999973
 20
24.86981268171658
 30
0.0
 11
0.15391475090668694
 21
-0.369202179643258
 31
0.0
 40
0.7598911526908056
 41
-3.643368913949053
 42
-3.1415926535897936
  0
ELLIPSE
  5
11D
330
17
100
AcDbEntity
  8
visible
100
AcDbEllipse
 10
21.200000000000028
 20
4.319506314865507
 30
0.0
 11
0.19239343863335867
 21
-0.4615027245540725
 31
0.0
 40
0.7598911526908056
 41
-3.643368913949053
 42
-3.1415926535897936
  0
ELLIPSE
  5
11E
330
17
100
AcDbEntity
  8
visible
100
AcDbEllipse
 10
2.9800000000000253
 20
-21.407321058776674
 30
0.0
 11
0.18264361909465535
 21
0.7788718176978845
 31
0.0
 40
0.5699183645181043
 41
-5.8928402491505
 42
-4.322043922355603
  0
LINE
  5
11F
330
17
100
AcDbEntity
  8
visible
100
AcDbLine
 10
24.180000000000028
 20
6.799284443247832
 30
0.0
 11
23.88000000000003
 21
6.674219024304147
 31
0.0
  0
ELLIPSE
  5
120
330
17
100
AcDbEntity
  8
visible
100
AcDbEllipse
 10
23.56000000000003
 20
6.749258275670357
 30
0.0
 11
0.15391475090668694
 21
-0.369202179643258
 31
0.0
 40
0.7598911526908056
 41
-6.283185307179586
 42
-5.21416524074395
  0
LINE
  5
121
330
17
100
AcDbEntity
  8
visible
100
AcDbLine
 10
23.88000000000003
 20
6.674219024304119
 30
0.0
 11
23.88000000000003
 21
12.563375457657862
 31
0.0
  0
LINE
  5
122
330
17
100
AcDbEntity
  8
visible
100
AcDbLine
 10
24.180000000000028
 20
12.688440876601565
 30
0.0
 11
23.88000000000003
 21
12.56337545765788
 31
0.0
  0
ELLIPSE
  5
123
330
17
100
AcDbEntity
  8
visible
100
AcDbEllipse
 10
23.56000000000003
 20
12.63841470902409
 30
0.0
 11
-0.15391475090668694
 21
0.369202179643258
 31
0.0
 40
0.7598911526908056
 41
4.21061272002543
 42
5.781409046820326
  0
LINE
  5
124
330
17
100
AcDbEntity
  8
visible
100
AcDbLine
 10
23.860000000000028
 20
13.143425704313177
 30
0.0
 11
23.56000000000003
 21
13.018360285369493
 31
0.0
  0
LINE
  5
125
330
17
100
AcDbEntity
  8
visible
100
AcDbLine
 10
21.00000000000003
 20
13.61867429629919
 30
0.0
 11
26.040000000000028
 21
15.719773334553114
 31
0.0
  0
ELLIPSE
  5
126
330
17
100
AcDbEntity
  8
visible
100
AcDbEllipse
 10
26.36000000000003
 20
15.644734083186904
 30
0.0
 11
-0.4
 21
1.1688232144236042e-17
 31
0.0
 40
0.312663547359215
 41
-2.214297435588182
 42
-0.6435011087932856
  0
LINE
  5
127
330
17
100
AcDbEntity
  8
visible
100
AcDbLine
 10
26.600000000000033
 20
15.744786418341846
 30
0.0
 11
28.520000000000035
 21
15.294550910144576
 31
0.0
  0
ELLIPSE
  5
128
330
17
100
AcDbEntity
  8
visible
100
AcDbEllipse
 10
28.280000000000033
 20
15.194498574989623
 30
0.0
 11
-0.4
 21
1.168823214423604e-17
 31
0.0
 40
0.31266354735921503
 41
-3.785093762383078
 42
-2.2142974355881813
  0
LINE
  5
129
330
17
100
AcDbEntity
  8
visible
100
AcDbLine
 10
28.60000000000003
 20
15.119459323623417
 30
0.0
 11
28.30000000000003
 21
14.99439390467973
 31
0.0
  0
ELLIPSE
  5
12A
330
17
100
AcDbEntity
  8
visible
100
AcDbEllipse
 10
23.240000000000034
 20
13.093399536735703
 30
0.0
 11
-0.4
 21
1.168823214423604e-17
 31
0.0
 40
0.31266354735921503
 41
-5.355890089177974
 42
-3.7850937623830774
  0
LINE
  5
12B
330
17
100
AcDbEntity
  8
visible
100
AcDbLine
 10
23.000000000000032
 20
12.993347201580761
 30
0.0
 11
21.08000000000003
 21
13.443582709778031
 31
0.0
  0
ELLIPSE
  5
12C
330
17
100
AcDbEntity
  8
visible
100
AcDbEllipse
 10
21.320000000000032
 20
13.54363504493297
 30
0.0
 11
-0.4
 21
1.1688232144236042e-17
 31
0.0
 40
0.31266354735921503
 41
-6.9266864159728705
 42
-5.355890089177974
  0
LINE
  5
12D
330
17
100
AcDbEntity
  8
visible
100
AcDbLine
 10
28.92000000000003
 20
8.775318062558071
 30
0.0
 11
28.62000000000003
 21
8.650252643614385
 31
0.0
  0
ELLIPSE
  5
12E
330
17
100
AcDbEntity
  8
visible
100
AcDbEllipse
 10
28.60000000000003
 20
8.850357313924277
 30
0.0
 11
0.15391475090668694
 21
-0.369202179643258
 31
0.0
 40
0.7598911526908056
 41
-6.283185307179586
 42
-5.214165240743949
  0
LINE
  5
12F
330
17
100
AcDbEntity
  8
visible
100
AcDbLine
 10
28.92000000000003
 20
14.664474495911804
 30
0.0
 11
28.62000000000003
 21
14.539409076968118
 31
0.0
  0
LINE
  5
130
330
17
100
AcDbEntity
  8
visible
100
AcDbLine
 10
28.92000000000003
 20
8.775318062558053
 30
0.0
 11
28.92000000000003
 21
14.664474495911797
 31
0.0
  0
ELLIPSE
  5
131
330
17
100
AcDbEntity
  8
visible
100
AcDbEllipse
 10
28.60000000000003
 20
14.73951374727801
 30
0.0
 11
-0.15391475090668694
 21
0.369202179643258
 31
0.0
 40
0.7598911526908056
 41
4.210612720025431
 42
5.781409046820327
  0
LINE
  5
132
330
17
100
AcDbEntity
  8
visible
100
AcDbLine
 10
-25.719999999999974
 20
18.30530298606693
 30
0.0
 11
-25.719999999999974
 21
24.194459419420674
 31
0.0
  0
LINE
  5
133
330
17
100
AcDbEntity
  8
visible
100
AcDbLine
 10
-25.719999999999974
 20
24.19445941942068
 30
0.0
 11
-20.679999999999975
 21
26.295558457674606
 31
0.0
  0
LINE
  5
134
330
17
100
AcDbEntity
  8
visible
100
AcDbLine
 10
-20.679999999999975
 20
20.40640202432085
 30
0.0
 11
-20.679999999999975
 21
26.295558457674595
 31
0.0
  0
ELLIPSE
  5
135
330
17
100
AcDbEntity
  8
visible
100
AcDbEllipse
 10
-21.319999999999972
 20
26.44563696040703
 30
0.0
 11
0.8
 21
0.0
 31
0.0
 40
0.31266354735921503
 41
5.639684198386303
 42
6.283185307179587
  0
LINE
  5
136
330
17
100
AcDbEntity
  8
visible
100
AcDbLine
 10
-26.83999999999997
 20
18.255276818489445
 30
0.0
 11
-26.83999999999997
 21
24.14443325184319
 31
0.0
  0
LINE
  5
137
330
17
100
AcDbEntity
  8
visible
100
AcDbLine
 10
-28.759999999999977
 20
24.594668760040477
 30
0.0
 11
-26.839999999999975
 21
24.144433251843207
 31
0.0
  0
ELLIPSE
  5
138
330
17
100
AcDbEntity
  8
visible
100
AcDbEllipse
 10
-26.35999999999997
 20
24.344537922153094
 30
0.0
 11
0.8
 21
0.0
 31
0.0
 40
0.312663547359215
 41
4.068887871591405
 42
5.639684198386302
  0
ELLIPSE
  5
139
330
17
100
AcDbEntity
  8
visible
100
AcDbEllipse
 10
-28.279999999999976
 20
25.17471900669578
 30
0.0
 11
0.4
 21
-1.168823214423604e-17
 31
0.0
 40
0.31266354735921503
 41
2.498091544796509
 42
4.068887871591405
  0
ELLIPSE
  5
13A
330
17
100
AcDbEntity
  8
visible
100
AcDbEllipse
 10
-28.51999999999998
 20
24.69472109519542
 30
0.0
 11
0.09132180954732767
 21
0.38943590884894225
 31
0.0
 40
0.5699183645181043
 41
-5.8928402491505
 42
-4.322043922355603
  0
ELLIPSE
  5
13B
330
17
100
AcDbEntity
  8
visible
100
AcDbEllipse
 10
-22.999999999999975
 20
26.995924803759237
 30
0.0
 11
-0.09132180954732767
 21
-0.38943590884894225
 31
0.0
 40
0.5699183645181043
 41
3.141592653589793
 42
3.5319377116188795
  0
ELLIPSE
  5
13C
330
17
100
AcDbEntity
  8
visible
100
AcDbEllipse
 10
-23.239999999999977
 20
27.275818044949702
 30
0.0
 11
0.4
 21
-1.168823214423604e-17
 31
0.0
 40
0.31266354735921503
 41
0.9272952180016121
 42
2.498091544796509
  0
LINE
  5
13D
330
17
100
AcDbEntity
  8
visible
100
AcDbLine
 10
-26.03999999999997
 20
24.649444247132294
 30
0.0
 11
-20.99999999999997
 21
26.750543285386218
 31
0.0
  0
ELLIPSE
  5
13E
330
17
100
AcDbEntity
  8
visible
100
AcDbEllipse
 10
-26.35999999999997
 20
24.7244834984985
 30
0.0
 11
0.4
 21
0.0
 31
0.0
 40
0.312663547359215
 41
4.068887871591405
 42
5.639684198386302
  0
ELLIPSE
  5
13F
330
17
100
AcDbEntity
  8
visible
100
AcDbEllipse
 10
-21.319999999999972
 20
26.825582536752435
 30
0.0
 11
0.4
 21
0.0
 31
0.0
 40
0.31266354735921503
 41
5.639684198386303
 42
7.210480525181199
  0
LINE
  5
140
330
17
100
AcDbEntity
  8
visible
100
AcDbLine
 10
-28.51999999999998
 20
25.074666671540825
 30
0.0
 11
-26.599999999999977
 21
24.624431163343555
 31
0.0
  0
LINE
  5
141
330
17
100
AcDbEntity
  8
visible
100
AcDbLine
 10
-21.07999999999997
 20
26.925634871907377
 30
0.0
 11
-22.99999999999997
 21
27.375870380104647
 31
0.0
  0
ELLIPSE
  5
142
330
17
100
AcDbEntity
  8
visible
100
AcDbEllipse
 10
21.320000000000032
 20
-2.0341335852285596
 30
0.0
 11
-0.8
 21
2.3376464288472084e-17
 31
0.0
 40
0.31266354735921503
 41
-6.283185307179586
 42
-5.8321584953833305
  0
ELLIPSE
  5
143
330
17
100
AcDbEntity
  8
visible
100
AcDbEllipse
 10
21.320000000000032
 20
-7.923290018582293
 30
0.0
 11
-0.8
 21
2.3376464288472084e-17
 31
0.0
 40
0.31266354735921503
 41
-6.283185307179586
 42
-5.8321584953833305
  0
ELLIPSE
  5
144
330
17
100
AcDbEntity
  8
visible
100
AcDbEllipse
 10
28.280000000000033
 20
8.925396565290484
 30
0.0
 11
-0.8
 21
2.337646428847208e-17
 31
0.0
 40
0.31266354735921503
 41
-3.785093762383078
 42
-3.1415926535897936
  0
ELLIPSE
  5
145
330
17
100
AcDbEntity
  8
visible
100
AcDbEllipse
 10
23.240000000000034
 20
6.824297527036563
 30
0.0
 11
-0.8
 21
2.337646428847208e-17
 31
0.0
 40
0.31266354735921503
 41
-5.355890089177974
 42
-3.7850937623830774
  0
ELLIPSE
  5
146
330
17
100
AcDbEntity
  8
visible
100
AcDbEllipse
 10
23.000000000000032
 20
6.7242451918816215
 30
0.0
 11
-0.09132180954732767
 21
-0.38943590884894225
 31
0.0
 40
0.5699183645181043
 41
5.102734038413776
 42
6.283185307179586
  0
LINE
  5
147
330
17
100
AcDbEntity
  8
visible
100
AcDbLine
 10
22.760000000000034
 20
6.6241928567266655
 30
0.0
 11
20.840000000000032
 21
7.074428364923935
 31
0.0
  0
ELLIPSE
  5
148
330
17
100
AcDbEntity
  8
visible
100
AcDbEllipse
 10
21.08000000000003
 20
7.174480700078888
 30
0.0
 11
-0.09132180954732767
 21
-0.38943590884894225
 31
0.0
 40
0.5699183645181043
 41
5.102734038413776
 42
6.283185307179586
  0
ELLIPSE
  5
149
330
17
100
AcDbEntity
  8
visible
100
AcDbEllipse
 10
21.320000000000032
 20
7.27453303523383
 30
0.0
 11
-0.8
 21
2.3376464288472084e-17
 31
0.0
 40
0.31266354735921503
 41
-6.283185307179586
 42
-5.355890089177974
  0
ELLIPSE
  5
14A
330
17
100
AcDbEntity
  8
visible
100
AcDbEllipse
 10
23.240000000000034
 20
12.713453960390297
 30
0.0
 11
-0.8
 21
2.337646428847208e-17
 31
0.0
 40
0.31266354735921503
 41
-5.355890089177974
 42
-3.7850937623830774
  0
LINE
  5
14B
330
17
100
AcDbEntity
  8
visible
100
AcDbLine
 10
22.760000000000034
 20
6.624192856726648
 30
0.0
 11
22.760000000000034
 21
12.513349290080392
 31
0.0
  0
ELLIPSE
  5
14C
330
17
100
AcDbEntity
  8
visible
100
AcDbEllipse
 10
23.000000000000032
 20
12.613401625235355
 30
0.0
 11
0.09132180954732767
 21
0.38943590884894225
 31
0.0
 40
0.5699183645181043
 41
-5.8928402491505
 42
-4.322043922355603
  0
ELLIPSE
  5
14D
330
17
100
AcDbEntity
  8
visible
100
AcDbEllipse
 10
21.00000000000003
 20
13.238728719953784
 30
0.0
 11
0.15391475090668694
 21
-0.369202179643258
 31
0.0
 40
0.7598911526908056
 41
-3.643368913949053
 42
-3.1415926535897936
  0
ELLIPSE
  5
14E
330
17
100
AcDbEntity
  8
visible
100
AcDbEllipse
 10
26.040000000000028
 20
15.339827758207704
 30
0.0
 11
0.15391475090668694
 21
-0.369202179643258
 31
0.0
 40
0.7598911526908056
 41
-3.643368913949053
 42
-3.1415926535897936
  0
ELLIPSE
  5
14F
330
17
100
AcDbEntity
  8
visible
100
AcDbEllipse
 10
26.600000000000033
 20
15.36484084199644
 30
0.0
 11
-0.09132180954732788
 21
-0.3894359088489422
 31
0.0
 40
0.5699183645181051
 41
3.1415926535897927
 42
3.5319377116188795
  0
ELLIPSE
  5
150
330
17
100
AcDbEntity
  8
visible
100
AcDbEllipse
 10
28.520000000000035
 20
14.914605333799173
 30
0.0
 11
-0.09132180954732767
 21
-0.38943590884894225
 31
0.0
 40
0.5699183645181043
 41
3.141592653589793
 42
3.5319377116188795
  0
ELLIPSE
  5
151
330
17
100
AcDbEntity
  8
visible
100
AcDbEllipse
 10
28.280000000000033
 20
14.814552998644217
 30
0.0
 11
-0.8
 21
2.337646428847208e-17
 31
0.0
 40
0.31266354735921503
 41
-3.785093762383078
 42
-3.1415926535897936
  0
LINE
  5
152
330
17
100
AcDbEntity
  8
visible
100
AcDbLine
 10
22.760000000000034
 20
12.513349290080399
 30
0.0
 11
20.840000000000032
 21
12.963584798277669
 31
0.0
  0
ELLIPSE
  5
153
330
17
100
AcDbEntity
  8
visible
100
AcDbEllipse
 10
21.08000000000003
 20
13.063637133432621
 30
0.0
 11
0.09132180954732767
 21
0.38943590884894225
 31
0.0
 40
0.5699183645181043
 41
-5.8928402491505
 42
-4.322043922355603
  0
ELLIPSE
  5
154
330
17
100
AcDbEntity
  8
visible
100
AcDbEllipse
 10
21.320000000000032
 20
13.163689468587563
 30
0.0
 11
-0.8
 21
2.3376464288472084e-17
 31
0.0
 40
0.31266354735921503
 41
-6.283185307179586
 42
-5.355890089177974
  0
ELLIPSE
  5
155
330
17
100
AcDbEntity
  8
visible
100
AcDbEllipse
 10
-26.03999999999997
 20
24.269498670786888
 30
0.0
 11
-0.15391475090668694
 21
0.369202179643258
 31
0.0
 40
0.7598911526908056
 41
4.21061272002543
 42
5.781409046820326
  0
ELLIPSE
  5
156
330
17
100
AcDbEntity
  8
visible
100
AcDbEllipse
 10
-20.99999999999997
 20
26.37059770904081
 30
0.0
 11
-0.15391475090668694
 21
0.369202179643258
 31
0.0
 40
0.7598911526908056
 41
4.21061272002543
 42
5.781409046820326
  0
ELLIPSE
  5
157
330
17
100
AcDbEntity
  8
visible
100
AcDbEllipse
 10
-21.07999999999997
 20
26.54568929556197
 30
0.0
 11
-0.09132180954732748
 21
-0.3894359088489423
 31
0.0
 40
0.5699183645181034
 41
3.1415926535897936
 42
3.5319377116188795
  0
ELLIPSE
  5
158
330
17
100
AcDbEntity
  8
visible
100
AcDbEllipse
 10
-26.599999999999973
 20
24.244485586998152
 30
0.0
 11
0.09132180954732767
 21
0.38943590884894225
 31
0.0
 40
0.5699183645181043
 41
-5.8928402491505
 42
-4.322043922355603
  0
LINE
  5
159
330
17
100
AcDbEntity
  8
visible
100
AcDbLine
 10
20.840000000000032
 20
7.074428364923914
 30
0.0
 11
20.840000000000032
 21
12.963584798277658
 31
0.0
  0
LINE
  5
15A
330
17
100
AcDbEntity
  8
visible
100
AcDbLine
 10
-40.49999999999997
 20
-20.206376411563593
 30
0.0
 11
-40.49999999999997
 21
-16.976839012627664
 31
0.0
  0
LINE
  5
15B
330
17
100
AcDbEntity
  8
visible
100
AcDbLine
 10
-39.56782950181335
 20
-15.825718770826981
 30
0.0
 11
-32.696571138461266
 21
-12.961196084550533
 31
0.0
  0
SPLINE
  5
15C
330
17
100
AcDbEntity
  8
visible
100
AcDbSpline
 70
0
 71
3
 72
20
 73
16
 74
0
 40
0.0
 40
0.0
 40
0.0
 40
0.0
 40
0.20030626189767164
 40
0.20030626189767164
 40
0.20030626189767164
 40
0.4006125237953433
 40
0.4006125237953433
 40
0.4006125237953433
 40
0.6009187856930149
 40
0.6009187856930149
 40
0.6009187856930149
 40
0.7996937381023284
 40
0.7996937381023284
 40
0.7996937381023284
 40
1.0
 40
1.0
 40
1.0
 40
1.0
 10
-39.00264361909463
 20
-21.535536072613695
 30
0.0
 10
-39.13755882424822
 20
-21.50398852581851
 30
0.0
 10
-39.26525569498092
 20
-21.467604899963302
 30
0.0
 10
-39.38573423129273
 20
-21.426385195048056
 30
0.0
 10
-39.58848950197405
 20
-21.358127363327696
 30
0.0
 10
-39.76998721001299
 20
-21.271881758452906
 30
0.0
 10
-39.930227355409485
 20
-21.16764838042366
 30
0.0
 10
-39.99674974945442
 20
-21.123857323013716
 30
0.0
 10
-40.05910715756819
 20
-21.07569548288209
 30
0.0
 10
-40.117299579750764
 20
-21.02316286002873
 30
0.0
 10
-40.175130541342284
 20
-20.970937078675124
 30
0.0
 10
-40.22771335473121
 20
-20.914036273277652
 30
0.0
 10
-40.27504801991748
 20
-20.852460443836293
 30
0.0
 10
-40.41682983278077
 20
-20.66896996386869
 30
0.0
 10
-40.500904980305116
 20
-20.439236840865483
 30
0.0
 10
-40.49999999999997
 20
-20.206376411563582
 30
0.0
  0
SPLINE
  5
15D
330
17
100
AcDbEntity
  8
visible
100
AcDbSpline
 70
0
 71
3
 72
14
 73
10
 74
0
 40
0.0
 40
0.0
 40
0.0
 40
0.0
 40
0.3333333333333333
 40
0.3333333333333333
 40
0.3333333333333333
 40
0.6666666666666666
 40
0.6666666666666666
 40
0.6666666666666666
 40
1.0
 40
1.0
 40
1.0
 40
1.0
 10
-40.49999999999997
 20
-16.976839012627664
 30
0.0
 10
-40.5008880619626
 20
-16.74521938561952
 30
0.0
 10
-40.417735356388945
 20
-16.5166447245322
 30
0.0
 10
-40.27727415380771
 20
-16.333674298199227
 30
0.0
 10
-40.21228255158593
 20
-16.248972127034662
 30
0.0
 10
-40.13782903034284
 20
-16.17302902633581
 30
0.0
 10
-40.05391359007827
 20
-16.105844996102604
 30
0.0
 10
-39.91183560590094
 20
-15.993345082070181
 30
0.0
 10
-39.749807576479355
 20
-15.899969673644991
 30
0.0
 10
-39.56782950181335
 20
-15.825718770826981
 30
0.0
  0
LINE
  5
15E
330
17
100
AcDbEntity
  8
visible
100
AcDbLine
 10
-21.185847738065814
 20
19.657819700489398
 30
0.0
 11
-21.21747491683149
 21
19.665236199918777
 31
0.0
  0
LINE
  5
15F
330
17
100
AcDbEntity
  8
visible
100
AcDbLine
 10
-20.599999999999973
 20
-0.4262513922173675
 30
0.0
 11
-20.599999999999973
 21
5.104767358641652
 31
0.0
  0
LINE
  5
160
330
17
100
AcDbEntity
  8
visible
100
AcDbLine
 10
-20.599999999999973
 20
11.501704065513806
 30
0.0
 11
-20.599999999999973
 21
14.433368452327356
 31
0.0
  0
LINE
  5
161
330
17
100
AcDbEntity
  8
visible
100
AcDbLine
 10
-20.599999999999973
 20
18.179682357152657
 30
0.0
 11
-20.599999999999973
 21
19.045959395484527
 31
0.0
  0
LINE
  5
162
330
17
100
AcDbEntity
  8
visible
100
AcDbLine
 10
6.597356380905374
 20
-32.22862939229884
 30
0.0
 11
-39.00264361909463
 21
-21.535536072613688
 31
0.0
  0
SPLINE
  5
163
330
17
100
AcDbEntity
  8
visible
100
AcDbSpline
 70
0
 71
3
 72
17
 73
13
 74
0
 40
0.0
 40
0.0
 40
0.0
 40
0.0
 40
0.11365898242068294
 40
0.11365898242068294
 40
0.11365898242068294
 40
0.22731796484136588
 40
0.22731796484136588
 40
0.22731796484136588
 40
0.5117808917959762
 40
0.5117808917959762
 40
0.5117808917959762
 40
1.0
 40
1.0
 40
1.0
 40
1.0
 10
10.1678295018134
 20
-32.05058997304942
 30
0.0
 10
9.926926873264609
 20
-32.14968418691592
 30
0.0
 10
9.65367291955525
 20
-32.226611466253004
 30
0.0
 10
9.348067640685311
 20
-32.281371811060566
 30
0.0
 10
9.237938149449738
 20
-32.301357415249946
 30
0.0
 10
9.124649675366186
 20
-32.31855331398413
 30
0.0
 10
9.00820221843466
 20
-32.332959507263055
 30
0.0
 10
8.71431500680259
 20
-32.36911966699578
 30
0.0
 10
8.41157231250662
 20
-32.3872433448737
 30
0.0
 10
8.09997413554672
 20
-32.38733054089674
 30
0.0
 10
7.56942375784807
 20
-32.387382798380195
 30
0.0
 10
7.042772173261324
 20
-32.33323182511373
 30
0.0
 10
6.597356380905371
 20
-32.22862939229884
 30
0.0
  0
LINE
  5
164
330
17
100
AcDbEntity
  8
visible
100
AcDbLine
 10
39.56782950181341
 20
-19.794178916568185
 30
0.0
 11
10.167829501813404
 21
-32.05058997304941
 31
0.0
  0
SPLINE
  5
165
330
17
100
AcDbEntity
  8
visible
100
AcDbSpline
 70
0
 71
3
 72
14
 73
10
 74
0
 40
0.0
 40
0.0
 40
0.0
 40
0.0
 40
0.3333333333333333
 40
0.3333333333333333
 40
0.3333333333333333
 40
0.6666666666666666
 40
0.6666666666666666
 40
0.6666666666666666
 40
1.0
 40
1.0
 40
1.0
 40
1.0
 10
40.50000000000003
 20
-18.643058674767502
 30
0.0
 10
40.50088806196265
 20
-18.874678301775624
 30
0.0
 10
40.41773535638902
 20
-19.103252962862946
 30
0.0
 10
40.27727415380777
 20
-19.28622338919594
 30
0.0
 10
40.212282551586
 20
-19.37092556036048
 30
0.0
 10
40.13782903034289
 20
-19.446868661059373
 30
0.0
 10
40.053913590078324
 20
-19.514052691292562
 30
0.0
 10
39.91183560590099
 20
-19.626552605324964
 30
0.0
 10
39.749807576479405
 20
-19.719928013750188
 30
0.0
 10
39.56782950181341
 20
-19.794178916568185
 30
0.0
  0
LINE
  5
166
330
17
100
AcDbEntity
  8
visible
100
AcDbLine
 10
32.70000000000003
 20
-12.606406431016188
 30
0.0
 11
39.002643619094684
 21
-14.084361614781479
 31
0.0
  0
LINE
  5
167
330
17
100
AcDbEntity
  8
visible
100
AcDbLine
 10
40.50000000000003
 20
-18.643058674767513
 30
0.0
 11
40.50000000000003
 21
-15.413521275831583
 31
0.0
  0
SPLINE
  5
168
330
17
100
AcDbEntity
  8
visible
100
AcDbSpline
 70
0
 71
3
 72
14
 73
10
 74
0
 40
0.0
 40
0.0
 40
0.0
 40
0.0
 40
0.3333333333333333
 40
0.3333333333333333
 40
0.3333333333333333
 40
0.6666666666666666
 40
0.6666666666666666
 40
0.6666666666666666
 40
1.0
 40
1.0
 40
1.0
 40
1.0
 10
32.70000000000003
 20
-13.080813747316014
 30
0.0
 10
32.70039648281365
 20
-13.262729021025077
 30
0.0
 10
32.64452462301435
 20
-13.443831637631138
 30
0.0
 10
32.54352833881133
 20
-13.596400024920413
 30
0.0
 10
32.48622363360287
 20
-13.682674663858801
 30
0.0
 10
32.41752402767809
 20
-13.759115399560383
 30
0.0
 10
32.33742952103685
 20
-13.825722232025086
 30
0.0
 10
32.22723691633025
 20
-13.916064613570002
 30
0.0
 10
32.104036909922485
 20
-13.98893582312871
 30
0.0
 10
31.967829501813405
 20
-14.044335860701153
 30
0.0
  0
LINE
  5
169
330
17
100
AcDbEntity
  8
visible
100
AcDbLine
 10
31.967829501813405
 20
-14.044335860701153
 30
0.0
 11
31.080000000000034
 21
-14.414458422683998
 31
0.0
  0
LINE
  5
16A
330
17
100
AcDbEntity
  8
visible
100
AcDbLine
 10
19.00703606255385
 20
-19.447492731779732
 30
0.0
 11
4.967829501813398
 21
-25.300223565632894
 31
0.0
  0
SPLINE
  5
16B
330
17
100
AcDbEntity
  8
visible
100
AcDbSpline
 70
0
 71
3
 72
20
 73
16
 74
0
 40
0.0
 40
0.0
 40
0.0
 40
0.0
 40
0.20030626189767667
 40
0.20030626189767667
 40
0.20030626189767667
 40
0.40061252379535334
 40
0.40061252379535334
 40
0.40061252379535334
 40
0.60091878569303
 40
0.60091878569303
 40
0.60091878569303
 40
0.7996937381023235
 40
0.7996937381023235
 40
0.7996937381023235
 40
1.0
 40
1.0
 40
1.0
 40
1.0
 10
39.002643619094684
 20
-14.084361614781471
 30
0.0
 10
39.137558824248266
 20
-14.11590916157665
 30
0.0
 10
39.26525569498099
 20
-14.15229278743187
 30
0.0
 10
39.38573423129279
 20
-14.19351249234711
 30
0.0
 10
39.588489501974124
 20
-14.261770324067452
 30
0.0
 10
39.76998721001305
 20
-14.348015928942257
 30
0.0
 10
39.93022735540954
 20
-14.452249306971511
 30
0.0
 10
39.996749749454466
 20
-14.496040364381432
 30
0.0
 10
40.05910715756827
 20
-14.544202204513086
 30
0.0
 10
40.11729957975082
 20
-14.59673482736644
 30
0.0
 10
40.175130541342355
 20
-14.648960608720037
 30
0.0
 10
40.227713354731264
 20
-14.705861414117509
 30
0.0
 10
40.27504801991754
 20
-14.76743724355888
 30
0.0
 10
40.41682983278087
 20
-14.950927723526489
 30
0.0
 10
40.50090498030516
 20
-15.180660846529673
 30
0.0
 10
40.50000000000003
 20
-15.413521275831584
 30
0.0
  0
SPLINE
  5
16C
330
17
100
AcDbEntity
  8
visible
100
AcDbSpline
 70
0
 71
3
 72
17
 73
13
 74
0
 40
0.0
 40
0.0
 40
0.0
 40
0.0
 40
0.25
 40
0.25
 40
0.25
 40
0.5
 40
0.5
 40
0.5
 40
0.75
 40
0.75
 40
0.75
 40
1.0
 40
1.0
 40
1.0
 40
1.0
 10
-31.60264361909463
 20
-17.349010753542743
 30
0.0
 10
-31.76619569426709
 20
-17.31149354934642
 30
0.0
 10
-31.917084036613502
 20
-17.259902278759366
 30
0.0
 10
-32.05530864613382
 20
-17.19423694178157
 30
0.0
 10
-32.15612103371938
 20
-17.14621902435944
 30
0.0
 10
-32.24891573541299
 20
-17.08747458929801
 30
0.0
 10
-32.33369275121461
 20
-17.018003636597257
 30
0.0
 10
-32.41680975082266
 20
-16.94949237484833
 30
0.0
 10
-32.487753904815854
 20
-16.87048749258175
 30
0.0
 10
-32.5465252131942
 20
-16.780988989797464
 30
0.0
 10
-32.645653629632946
 20
-16.629399258619458
 30
0.0
 10
-32.700380996674795
 20
-16.450076641433014
 30
0.0
 10
-32.699999999999974
 20
-16.269981930380013
 30
0.0
  0
SPLINE
  5
16D
330
17
100
AcDbEntity
  8
visible
100
AcDbSpline
 70
0
 71
3
 72
14
 73
10
 74
0
 40
0.0
 40
0.0
 40
0.0
 40
0.0
 40
0.3333333333333333
 40
0.3333333333333333
 40
0.3333333333333333
 40
0.6666666666666666
 40
0.6666666666666666
 40
0.6666666666666666
 40
1.0
 40
1.0
 40
1.0
 40
1.0
 10
-20.599999999999973
 20
19.04595939548453
 30
0.0
 10
-20.599600148387502
 20
19.178310159879842
 30
0.0
 10
-20.64920186981566
 20
19.309829845929045
 30
0.0
 10
-20.737783099590406
 20
19.4122530131539
 30
0.0
 10
-20.783222711723386
 20
19.464634550895582
 30
0.0
 10
-20.836137631501437
 20
19.508967592535942
 30
0.0
 10
-20.896527858924514
 20
19.545252138074943
 30
0.0
 10
-20.985349928136817
 20
19.59724066092333
 30
0.0
 10
-21.0817898878506
 20
19.634763181728168
 30
0.0
 10
-21.185847738065814
 20
19.657819700489398
 30
0.0
  0
SPLINE
  5
16E
330
17
100
AcDbEntity
  8
visible
100
AcDbSpline
 70
0
 71
3
 72
11
 73
7
 74
0
 40
0.0
 40
0.0
 40
0.0
 40
0.0
 40
0.5953688542637882
 40
0.5953688542637882
 40
0.5953688542637882
 40
1.0
 40
1.0
 40
1.0
 40
1.0
 10
4.9678295018134
 20
-25.3002235656329
 30
0.0
 10
4.616533530835661
 20
-25.445736455054174
 30
0.0
 10
4.166792303642927
 20
-25.51059115041307
 30
0.0
 10
3.6999846881528278
 20
-25.51189924160793
 30
0.0
 10
3.384466865791916
 20
-25.51180629402806
 30
0.0
 10
3.0716007849280893
 20
-25.480000282371904
 30
0.0
 10
2.79735638090537
 20
-25.415730275410496
 30
0.0
  0
LINE
  5
16F
330
17
100
AcDbEntity
  8
visible
100
AcDbLine
 10
2.797356380905372
 20
-25.415730275410496
 30
0.0
 11
-31.602643619094636
 21
-17.34901075354275
 31
0.0
  0
LINE
  5
170
330
17
100
AcDbEntity
  8
visible
100
AcDbLine
 10
32.70000000000003
 20
-13.080813747316009
 30
0.0
 11
32.70000000000003
 21
-9.85127634838008
 31
0.0
  0
LINE
  5
171
330
17
100
AcDbEntity
  8
visible
100
AcDbLine
 10
29.66252508316852
 20
7.733995232691131
 30
0.0
 11
30.89415226193419
 21
7.445181540638459
 31
0.0
  0
LINE
  5
172
330
17
100
AcDbEntity
  8
visible
100
AcDbLine
 10
-27.251321809547303
 20
2.8993888808702253
 30
0.0
 11
-26.691321809547308
 21
2.7680701909793557
 31
0.0
  0
LINE
  5
173
330
17
100
AcDbEntity
  8
visible
100
AcDbLine
 10
-20.988678190452642
 20
11.7373021505948
 30
0.0
 11
-21.48778715312803
 21
11.854342034686448
 31
0.0
  0
LINE
  5
174
330
17
100
AcDbEntity
  8
visible
100
AcDbLine
 10
-32.699999999999974
 20
-16.26998193038001
 30
0.0
 11
-32.699999999999974
 21
-13.040444531444079
 31
0.0
  0
LINE
  5
175
330
17
100
AcDbEntity
  8
visible
100
AcDbLine
 10
-31.96782950181335
 20
-12.076922418058942
 30
0.0
 11
-4.967829501813341
 21
-0.8210347131272009
 31
0.0
  0
LINE
  5
176
330
17
100
AcDbEntity
  8
visible
100
AcDbLine
 10
20.60000000000003
 20
-15.246503537044148
 30
0.0
 11
20.60000000000003
 21
4.225707250657745
 31
0.0
  0
SPLINE
  5
177
330
17
100
AcDbEntity
  8
visible
100
AcDbSpline
 70
0
 71
3
 72
11
 73
7
 74
0
 40
0.0
 40
0.0
 40
0.0
 40
0.0
 40
0.5953688542637825
 40
0.5953688542637825
 40
0.5953688542637825
 40
1.0
 40
1.0
 40
1.0
 40
1.0
 10
-4.967829501813343
 20
-0.8210347131271902
 30
0.0
 10
-4.616533530835578
 20
-0.6755218237059104
 30
0.0
 10
-4.166792303642878
 20
-0.6106671283470186
 30
0.0
 10
-3.6999846881527687
 20
-0.6093590371521707
 30
0.0
 10
-3.3844668657918464
 20
-0.6094519847320399
 30
0.0
 10
-3.071600784928008
 20
-0.641257996388182
 30
0.0
 10
-2.7973563809053132
 20
-0.705528003349599
 30
0.0
  0
LINE
  5
178
330
17
100
AcDbEntity
  8
visible
100
AcDbLine
 10
-2.797356380905315
 20
-0.705528003349599
 30
0.0
 11
20.52000000000003
 21
-6.173393524169268
 31
0.0
  0
LINE
  5
179
330
17
100
AcDbEntity
  8
visible
100
AcDbLine
 10
31.080000000000034
 20
-8.649688819254251
 30
0.0
 11
31.602643619094692
 21
-8.772247525217347
 31
0.0
  0
SPLINE
  5
17A
330
17
100
AcDbEntity
  8
visible
100
AcDbSpline
 70
0
 71
3
 72
17
 73
13
 74
0
 40
0.0
 40
0.0
 40
0.0
 40
0.0
 40
0.25
 40
0.25
 40
0.25
 40
0.5
 40
0.5
 40
0.5
 40
0.75
 40
0.75
 40
0.75
 40
1.0
 40
1.0
 40
1.0
 40
1.0
 10
31.602643619094685
 20
-8.772247525217352
 30
0.0
 10
31.766195694267154
 20
-8.80976472941368
 30
0.0
 10
31.91708403661356
 20
-8.861356000000729
 30
0.0
 10
32.055308646133874
 20
-8.927021336978527
 30
0.0
 10
32.15612103371944
 20
-8.975039254400658
 30
0.0
 10
32.24891573541305
 20
-9.0337836894621
 30
0.0
 10
32.33369275121468
 20
-9.103254642162838
 30
0.0
 10
32.416809750822715
 20
-9.171765903911758
 30
0.0
 10
32.48775390481593
 20
-9.250770786178341
 30
0.0
 10
32.54652521319426
 20
-9.340269288962617
 30
0.0
 10
32.645653629633024
 20
-9.49185902014064
 30
0.0
 10
32.700380996674845
 20
-9.671181637327088
 30
0.0
 10
32.70000000000003
 20
-9.851276348380082
 30
0.0
  0
SPLINE
  5
17B
330
17
100
AcDbEntity
  8
visible
100
AcDbSpline
 70
0
 71
3
 72
17
 73
13
 74
0
 40
0.0
 40
0.0
 40
0.0
 40
0.0
 40
0.21463309865305316
 40
0.21463309865305316
 40
0.21463309865305316
 40
0.4292661973061063
 40
0.4292661973061063
 40
0.4292661973061063
 40
0.7853669013469469
 40
0.7853669013469469
 40
0.7853669013469469
 40
1.0
 40
1.0
 40
1.0
 40
1.0
 10
-20.51999999999997
 20
11.247813906590906
 30
0.0
 10
-20.519697341822166
 20
11.354829294182121
 30
0.0
 10
-20.560126658659005
 20
11.461194724368944
 30
0.0
 10
-20.632922410717867
 20
11.543961023206037
 30
0.0
 10
-20.64698495622722
 20
11.560043560215036
 30
0.0
 10
-20.66211334739029
 20
11.57522595211983
 30
0.0
 10
-20.678307584207047
 20
11.58950819892042
 30
0.0
 10
-20.705288733526107
 20
11.613206428729711
 30
0.0
 10
-20.734503534714847
 20
11.63418300592597
 30
0.0
 10
-20.765951987773217
 20
11.652437930509153
 30
0.0
 10
-20.834677057482562
 20
11.691249452133667
 30
0.0
 10
-20.9089191250424
 20
11.719537525495554
 30
0.0
 10
-20.988678190452646
 20
11.7373021505948
 30
0.0
  0
SPLINE
  5
17C
330
17
100
AcDbEntity
  8
visible
100
AcDbSpline
 70
0
 71
2
 72
10
 73
7
 74
0
 40
0.0
 40
0.0
 40
0.0
 40
0.22704596892033074
 40
0.22704596892033074
 40
0.4540919378406615
 40
0.4540919378406615
 40
1.0
 40
1.0
 40
1.0
 10
-26.6913218095473
 20
2.7680701909793584
 30
0.0
 10
-26.533103722209088
 20
2.732106585659843
 30
0.0
 10
-26.359655444288286
 20
2.7324930513865837
 30
0.0
 10
-26.204453982318036
 20
2.7323145835020632
 30
0.0
 10
-26.060581306512837
 20
2.7610702652058876
 30
0.0
 10
-25.969121111901224
 20
2.779316326644853
 30
0.0
 10
-25.886085249093284
 20
2.813317003973765
 30
0.0
  0
LINE
  5
17D
330
17
100
AcDbEntity
  8
visible
100
AcDbLine
 10
-25.886085249093284
 20
2.813317003973779
 30
0.0
 11
-20.846085249093285
 21
4.914416042227703
 31
0.0
  0
SPLINE
  5
17E
330
17
100
AcDbEntity
  8
visible
100
AcDbSpline
 70
0
 71
3
 72
14
 73
10
 74
0
 40
0.0
 40
0.0
 40
0.0
 40
0.0
 40
0.3333333333333333
 40
0.3333333333333333
 40
0.3333333333333333
 40
0.6666666666666666
 40
0.6666666666666666
 40
0.6666666666666666
 40
1.0
 40
1.0
 40
1.0
 40
1.0
 10
-20.846085249093285
 20
4.9144160422276855
 30
0.0
 10
-20.818948836439763
 20
4.925666073039485
 30
0.0
 10
-20.79273601653548
 20
4.938582229976812
 30
0.0
 10
-20.767446789380394
 20
4.953164513039667
 30
0.0
 10
-20.716309150298308
 20
4.98253722654472
 30
0.0
 10
-20.67164799224016
 20
5.01877984141133
 30
0.0
 10
-20.633463315205898
 20
5.061892357639479
 30
0.0
 10
-20.560332182931457
 20
5.144750243194025
 30
0.0
 10
-20.519694176726247
 20
5.251374845033016
 30
0.0
 10
-20.51999999999997
 20
5.358657473237173
 30
0.0
  0
LINE
  5
17F
330
17
100
AcDbEntity
  8
visible
100
AcDbLine
 10
-20.51999999999997
 20
5.358657473237175
 30
0.0
 11
-20.51999999999997
 21
11.247813906590908
 31
0.0
  0
SPLINE
  5
180
330
17
100
AcDbEntity
  8
visible
100
AcDbSpline
 70
0
 71
3
 72
14
 73
10
 74
0
 40
0.0
 40
0.0
 40
0.0
 40
0.0
 40
0.3333333333333333
 40
0.3333333333333333
 40
0.3333333333333333
 40
0.6666666666666666
 40
0.6666666666666666
 40
0.6666666666666666
 40
1.0
 40
1.0
 40
1.0
 40
1.0
 10
-32.699999999999974
 20
-13.04044453144408
 30
0.0
 10
-32.700396482813595
 20
-12.85852925773503
 30
0.0
 10
-32.64452462301429
 20
-12.677426641128934
 30
0.0
 10
-32.54352833881127
 20
-12.524858253839668
 30
0.0
 10
-32.48622363360282
 20
-12.438583614901273
 30
0.0
 10
-32.41752402767803
 20
-12.362142879199734
 30
0.0
 10
-32.3374295210368
 20
-12.295536046735009
 30
0.0
 10
-32.2272369163302
 20
-12.205193665190066
 30
0.0
 10
-32.10403690992244
 20
-12.132322455631387
 30
0.0
 10
-31.967829501813352
 20
-12.076922418058942
 30
0.0
  0
LINE
  5
181
330
17
100
AcDbEntity
  8
visible
100
AcDbLine
 10
-25.886085249093284
 20
18.011140057789888
 30
0.0
 11
-23.618305540938504
 21
18.956542788697778
 31
0.0
  0
LINE
  5
182
330
17
100
AcDbEntity
  8
visible
100
AcDbLine
 10
-23.113864957248396
 20
19.166836365135783
 30
0.0
 11
-20.846085249093285
 21
20.11223909604381
 31
0.0
  0
SPLINE
  5
183
330
17
100
AcDbEntity
  8
visible
100
AcDbSpline
 70
0
 71
3
 72
14
 73
10
 74
0
 40
0.0
 40
0.0
 40
0.0
 40
0.0
 40
0.3333333333333333
 40
0.3333333333333333
 40
0.3333333333333333
 40
0.6666666666666666
 40
0.6666666666666666
 40
0.6666666666666666
 40
1.0
 40
1.0
 40
1.0
 40
1.0
 10
-20.846085249093285
 20
20.112239096043794
 30
0.0
 10
-20.818948836439763
 20
20.1234891268556
 30
0.0
 10
-20.79273601653548
 20
20.136405283792918
 30
0.0
 10
-20.767446789380394
 20
20.150987566855775
 30
0.0
 10
-20.716309150298308
 20
20.18036028036082
 30
0.0
 10
-20.67164799224016
 20
20.216602895227446
 30
0.0
 10
-20.633463315205898
 20
20.259715411455588
 30
0.0
 10
-20.560332182931457
 20
20.34257329701012
 30
0.0
 10
-20.519694176726247
 20
20.449197898849125
 30
0.0
 10
-20.51999999999997
 20
20.556480527053296
 30
0.0
  0
SPLINE
  5
184
330
17
100
AcDbEntity
  8
visible
100
AcDbSpline
 70
0
 71
3
 72
17
 73
13
 74
0
 40
0.0
 40
0.0
 40
0.0
 40
0.0
 40
0.21463309865305844
 40
0.21463309865305844
 40
0.21463309865305844
 40
0.42926619730611687
 40
0.42926619730611687
 40
0.42926619730611687
 40
0.7853669013469415
 40
0.7853669013469415
 40
0.7853669013469415
 40
1.0
 40
1.0
 40
1.0
 40
1.0
 10
-29.079999999999977
 20
18.905616996996642
 30
0.0
 10
-29.08030265817774
 20
18.79860160940541
 30
0.0
 10
-29.03987334134096
 20
18.692236179218586
 30
0.0
 10
-28.96707758928207
 20
18.609469880381493
 30
0.0
 10
-28.953015043772727
 20
18.593387343372505
 30
0.0
 10
-28.937886652609667
 20
18.57820495146771
 30
0.0
 10
-28.921692415792894
 20
18.56392270466711
 30
0.0
 10
-28.89471126647386
 20
18.540224474857833
 30
0.0
 10
-28.8654964652851
 20
18.519247897661558
 30
0.0
 10
-28.834048012226745
 20
18.500992973078386
 30
0.0
 10
-28.76532294251737
 20
18.46218145145386
 30
0.0
 10
-28.691080874957567
 20
18.433893378091977
 30
0.0
 10
-28.611321809547302
 20
18.416128752992734
 30
0.0
  0
LINE
  5
185
330
17
100
AcDbEntity
  8
visible
100
AcDbLine
 10
-28.611321809547306
 20
18.416128752992734
 30
0.0
 11
-26.691321809547308
 21
17.965893244795463
 31
0.0
  0
SPLINE
  5
186
330
17
100
AcDbEntity
  8
visible
100
AcDbSpline
 70
0
 71
2
 72
10
 73
7
 74
0
 40
0.0
 40
0.0
 40
0.0
 40
0.22704596892033074
 40
0.22704596892033074
 40
0.4540919378406615
 40
0.4540919378406615
 40
1.0
 40
1.0
 40
1.0
 10
-26.6913218095473
 20
17.965893244795467
 30
0.0
 10
-26.533103722209088
 20
17.929929639475958
 30
0.0
 10
-26.359655444288286
 20
17.930316105202692
 30
0.0
 10
-26.204453982318036
 20
17.93013763731817
 30
0.0
 10
-26.060581306512837
 20
17.958893319021996
 30
0.0
 10
-25.969121111901224
 20
17.97713938046096
 30
0.0
 10
-25.886085249093284
 20
18.011140057789873
 30
0.0
  0
LINE
  5
187
330
17
100
AcDbEntity
  8
visible
100
AcDbLine
 10
-29.079999999999977
 20
18.90561699699663
 30
0.0
 11
-29.079999999999977
 21
24.79477343035036
 31
0.0
  0
LINE
  5
188
330
17
100
AcDbEntity
  8
visible
100
AcDbLine
 10
-23.713914750906664
 20
27.340113899613755
 30
0.0
 11
-28.753914750906663
 21
25.23901486135983
 31
0.0
  0
SPLINE
  5
189
330
17
100
AcDbEntity
  8
visible
100
AcDbSpline
 70
0
 71
3
 72
11
 73
7
 74
0
 40
0.0
 40
0.0
 40
0.0
 40
0.0
 40
0.5
 40
0.5
 40
0.5
 40
1.0
 40
1.0
 40
1.0
 40
1.0
 10
20.600000000000033
 20
4.225707250657749
 30
0.0
 10
20.59960014838756
 20
4.358058015053039
 30
0.0
 10
20.64920186981573
 20
4.48957770110225
 30
0.0
 10
20.737783099590462
 20
4.592000868327105
 30
0.0
 10
20.81191806352951
 20
4.675497995794979
 30
0.0
 10
20.90185921745491
 20
4.738500719492469
 30
0.0
 10
21.007606561366668
 20
4.781009039419573
 30
0.0
  0
LINE
  5
18A
330
17
100
AcDbEntity
  8
visible
100
AcDbLine
 10
21.007606561366668
 20
4.781009039419573
 30
0.0
 11
21.46885450876822
 21
4.973296265348541
 31
0.0
  0
LINE
  5
18B
330
17
100
AcDbEntity
  8
visible
100
AcDbLine
 10
23.88671082120291
 20
6.4520921391051385
 30
0.0
 11
23.71391475090672
 21
6.3800560960270865
 31
0.0
  0
LINE
  5
18C
330
17
100
AcDbEntity
  8
visible
100
AcDbLine
 10
28.75391475090672
 20
8.48115513428101
 30
0.0
 11
28.70770196763088
 21
8.461889730611189
 31
0.0
  0
LINE
  5
18D
330
17
100
AcDbEntity
  8
visible
100
AcDbLine
 10
-20.51999999999997
 20
20.556480527053285
 30
0.0
 11
-20.51999999999997
 21
26.445636960407015
 31
0.0
  0
SPLINE
  5
18E
330
17
100
AcDbEntity
  8
visible
100
AcDbSpline
 70
0
 71
3
 72
14
 73
10
 74
0
 40
0.0
 40
0.0
 40
0.0
 40
0.0
 40
0.3333333333333333
 40
0.3333333333333333
 40
0.3333333333333333
 40
0.6666666666666666
 40
0.6666666666666666
 40
0.6666666666666666
 40
1.0
 40
1.0
 40
1.0
 40
1.0
 10
-28.753914750906663
 20
25.239014861359834
 30
0.0
 10
-28.781051163560146
 20
25.227764830548036
 30
0.0
 10
-28.807263983464473
 20
25.214848673610728
 30
0.0
 10
-28.832553210619555
 20
25.20026639054788
 30
0.0
 10
-28.883690849701605
 20
25.1708936770428
 30
0.0
 10
-28.9283520077598
 20
25.13465106217621
 30
0.0
 10
-28.966536684794047
 20
25.091538545948055
 30
0.0
 10
-29.03966781706848
 20
25.00868066039348
 30
0.0
 10
-29.080305823273697
 20
24.902056058554514
 30
0.0
 10
-29.079999999999977
 20
24.794773430350375
 30
0.0
  0
SPLINE
  5
18F
330
17
100
AcDbEntity
  8
visible
100
AcDbSpline
 70
0
 71
2
 72
10
 73
7
 74
0
 40
0.0
 40
0.0
 40
0.0
 40
0.22704596892033282
 40
0.22704596892033282
 40
0.45409193784066565
 40
0.45409193784066565
 40
1.0
 40
1.0
 40
1.0
 10
-22.908678190452648
 20
27.385360712608176
 30
0.0
 10
-23.06689627779086
 20
27.42132431792769
 30
0.0
 10
-23.24034455571166
 20
27.42093785220095
 30
0.0
 10
-23.395546017681916
 20
27.421116320085474
 30
0.0
 10
-23.53941869348711
 20
27.392360638381646
 30
0.0
 10
-23.630878888098714
 20
27.374114576942695
 30
0.0
 10
-23.713914750906667
 20
27.340113899613755
 30
0.0
  0
SPLINE
  5
190
330
17
100
AcDbEntity
  8
visible
100
AcDbSpline
 70
0
 71
2
 72
6
 73
3
 74
0
 40
0.0
 40
0.0
 40
0.0
 40
0.4185360896498612
 40
0.4185360896498612
 40
0.4185360896498612
 10
20.52000000000003
 20
-2.0341335852285596
 30
0.0
 10
20.52080110217449
 20
-1.8963768798177467
 30
0.0
 10
20.600000000000037
 20
-1.7802434263056597
 30
0.0
  0
LINE
  5
191
330
17
100
AcDbEntity
  8
visible
100
AcDbLine
 10
20.52000000000003
 20
-7.923290018582291
 30
0.0
 11
20.52000000000003
 21
-2.034133585228558
 31
0.0
  0
SPLINE
  5
192
330
17
100
AcDbEntity
  8
visible
100
AcDbSpline
 70
0
 71
2
 72
6
 73
3
 74
0
 40
0.0
 40
0.0
 40
0.0
 40
1.0
 40
1.0
 40
1.0
 10
20.60000000000003
 20
-8.17718031037171
 30
0.0
 10
20.52080112063977
 20
-8.061046704521436
 30
0.0
 10
20.52000000000003
 20
-7.923290018582293
 30
0.0
  0
SPLINE
  5
193
330
17
100
AcDbEntity
  8
visible
100
AcDbSpline
 70
0
 71
3
 72
11
 73
7
 74
0
 40
0.0
 40
0.0
 40
0.0
 40
0.0
 40
0.5
 40
0.5
 40
0.5
 40
1.0
 40
1.0
 40
1.0
 40
1.0
 10
29.08000000000003
 20
8.925396565290484
 30
0.0
 10
29.080302658177803
 20
8.818381177699266
 30
0.0
 10
29.039873341341007
 20
8.712015747512442
 30
0.0
 10
28.967077589282137
 20
8.629249448675353
 30
0.0
 10
28.908546585214168
 20
8.564246228019625
 30
0.0
 10
28.837492305755706
 20
8.514881456554836
 30
0.0
 10
28.75391475090672
 20
8.481155134280996
 30
0.0
  0
SPLINE
  5
194
330
17
100
AcDbEntity
  8
visible
100
AcDbSpline
 70
0
 71
2
 72
10
 73
7
 74
0
 40
0.0
 40
0.0
 40
0.0
 40
0.45285009739759663
 40
0.45285009739759663
 40
0.7264250486987983
 40
0.7264250486987983
 40
1.0
 40
1.0
 40
1.0
 10
23.71391475090672
 20
6.380056096027076
 30
0.0
 10
23.631200726030727
 20
6.346183218391177
 30
0.0
 10
23.54012448542866
 20
6.327954118901857
 30
0.0
 10
23.395769773118506
 20
6.299018892339306
 30
0.0
 10
23.23999445465303
 20
6.299232108102032
 30
0.0
 10
23.066729624684136
 20
6.298881711872755
 30
0.0
 10
22.9086781904527
 20
6.334809283032669
 30
0.0
  0
LINE
  5
195
330
17
100
AcDbEntity
  8
visible
100
AcDbLine
 10
22.908678190452704
 20
6.334809283032669
 30
0.0
 11
20.988678190452706
 21
6.7850447912299385
 31
0.0
  0
SPLINE
  5
196
330
17
100
AcDbEntity
  8
visible
100
AcDbSpline
 70
0
 71
3
 72
20
 73
16
 74
0
 40
0.0
 40
0.0
 40
0.0
 40
0.0
 40
0.2185151470509145
 40
0.2185151470509145
 40
0.2185151470509145
 40
0.437030294101829
 40
0.437030294101829
 40
0.437030294101829
 40
0.6555454411527435
 40
0.6555454411527435
 40
0.6555454411527435
 40
0.7814848529490854
 40
0.7814848529490854
 40
0.7814848529490854
 40
1.0
 40
1.0
 40
1.0
 40
1.0
 10
20.9886781904527
 20
6.785044791229936
 30
0.0
 10
20.953720813801926
 20
6.793177296987243
 30
0.0
 10
20.919707458804318
 20
6.80306118062781
 30
0.0
 10
20.88663812545987
 20
6.814696442151629
 30
0.0
 10
20.84530186812209
 20
6.829140498325906
 30
0.0
 10
20.805837203763566
 20
6.847101312658648
 30
0.0
 10
20.768244132384314
 20
6.868578885149858
 30
0.0
 10
20.73519900106045
 20
6.88756108617674
 30
0.0
 10
20.704603489588962
 20
6.909527837327503
 30
0.0
 10
20.676457597969822
 20
6.934479138602146
 30
0.0
 10
20.660313590676893
 20
6.948856531787399
 30
0.0
 10
20.645245035291275
 20
6.96413281808351
 30
0.0
 10
20.631251931812997
 20
6.9803079974904705
 30
0.0
 10
20.559492843340443
 20
7.062785230770832
 30
0.0
 10
20.51970699671314
 20
7.168346427417186
 30
0.0
 10
20.52000000000003
 20
7.27453303523383
 30
0.0
  0
LINE
  5
197
330
17
100
AcDbEntity
  8
visible
100
AcDbLine
 10
20.846085249093342
 20
13.607930899597037
 30
0.0
 11
25.88608524909334
 21
15.70902993785096
 31
0.0
  0
SPLINE
  5
198
330
17
100
AcDbEntity
  8
visible
100
AcDbSpline
 70
0
 71
2
 72
10
 73
7
 74
0
 40
0.0
 40
0.0
 40
0.0
 40
0.4528500973975961
 40
0.4528500973975961
 40
0.726425048698798
 40
0.726425048698798
 40
1.0
 40
1.0
 40
1.0
 10
25.88608524909334
 20
15.709029937850957
 30
0.0
 10
25.968799273969324
 20
15.74290281548689
 30
0.0
 10
26.059875514571402
 20
15.76113191497619
 30
0.0
 10
26.204230226881553
 20
15.790067141538735
 30
0.0
 10
26.360005545347033
 20
15.789853925776015
 30
0.0
 10
26.533270375315922
 20
15.790204322005295
 30
0.0
 10
26.69132180954736
 20
15.754276750845378
 30
0.0
  0
LINE
  5
199
330
17
100
AcDbEntity
  8
visible
100
AcDbLine
 10
26.69132180954736
 20
15.754276750845378
 30
0.0
 11
28.611321809547363
 21
15.304041242648108
 31
0.0
  0
SPLINE
  5
19A
330
17
100
AcDbEntity
  8
visible
100
AcDbSpline
 70
0
 71
3
 72
17
 73
13
 74
0
 40
0.0
 40
0.0
 40
0.0
 40
0.0
 40
0.2185151470509012
 40
0.2185151470509012
 40
0.2185151470509012
 40
0.4370302941018024
 40
0.4370302941018024
 40
0.4370302941018024
 40
0.7814848529490989
 40
0.7814848529490989
 40
0.7814848529490989
 40
1.0
 40
1.0
 40
1.0
 40
1.0
 10
28.611321809547363
 20
15.304041242648111
 30
0.0
 10
28.646279186198118
 20
15.295908736890798
 30
0.0
 10
28.680292541195747
 20
15.286024853250234
 30
0.0
 10
28.713361874540183
 20
15.274389591726413
 30
0.0
 10
28.75469813187798
 20
15.259945535552141
 30
0.0
 10
28.794162796236492
 20
15.241984721219406
 30
0.0
 10
28.831755867615744
 20
15.220507148728185
 30
0.0
 10
28.88425069770999
 20
15.190468242961916
 30
0.0
 10
28.929914764567044
 20
15.153225205515037
 30
0.0
 10
28.96874806818706
 20
15.108778036387577
 30
0.0
 10
29.040507156659594
 20
15.026300803107192
 30
0.0
 10
29.080293003286933
 20
14.920739606460867
 30
0.0
 10
29.080000000000034
 20
14.814552998644217
 30
0.0
  0
SPLINE
  5
19B
330
17
100
AcDbEntity
  8
visible
100
AcDbSpline
 70
0
 71
3
 72
11
 73
7
 74
0
 40
0.0
 40
0.0
 40
0.0
 40
0.0
 40
0.5
 40
0.5
 40
0.5
 40
1.0
 40
1.0
 40
1.0
 40
1.0
 10
20.52000000000003
 20
13.163689468587563
 30
0.0
 10
20.51969734182223
 20
13.270704856178762
 30
0.0
 10
20.560126658659062
 20
13.377070286365601
 30
0.0
 10
20.632922410717924
 20
13.459836585202694
 30
0.0
 10
20.691453414785894
 20
13.524839805858427
 30
0.0
 10
20.762507694244366
 20
13.574204577323206
 30
0.0
 10
20.846085249093345
 20
13.607930899597037
 30
0.0
  0
LINE
  5
19C
330
17
100
AcDbEntity
  8
visible
100
AcDbLine
 10
29.080000000000034
 20
8.925396565290471
 30
0.0
 11
29.080000000000034
 21
14.814552998644205
 31
0.0
  0
SPLINE
  5
19D
330
17
100
AcDbEntity
  8
visible
100
AcDbSpline
 70
0
 71
3
 72
17
 73
13
 74
0
 40
0.0
 40
0.0
 40
0.0
 40
0.0
 40
0.21463309865305316
 40
0.21463309865305316
 40
0.21463309865305316
 40
0.4292661973061063
 40
0.4292661973061063
 40
0.4292661973061063
 40
0.7853669013469469
 40
0.7853669013469469
 40
0.7853669013469469
 40
1.0
 40
1.0
 40
1.0
 40
1.0
 10
-20.51999999999997
 20
26.44563696040703
 30
0.0
 10
-20.519697341822166
 20
26.552652347998222
 30
0.0
 10
-20.560126658659005
 20
26.659017778185046
 30
0.0
 10
-20.632922410717867
 20
26.741784077022146
 30
0.0
 10
-20.64698495622722
 20
26.757866614031144
 30
0.0
 10
-20.66211334739029
 20
26.77304900593594
 30
0.0
 10
-20.678307584207047
 20
26.78733125273653
 30
0.0
 10
-20.705288733526107
 20
26.81102948254581
 30
0.0
 10
-20.734503534714847
 20
26.83200605974209
 30
0.0
 10
-20.765951987773217
 20
26.850260984325267
 30
0.0
 10
-20.834677057482562
 20
26.889072505949777
 30
0.0
 10
-20.9089191250424
 20
26.91736057931166
 30
0.0
 10
-20.988678190452646
 20
26.93512520441091
 30
0.0
  0
LINE
  5
19E
330
17
100
AcDbEntity
  8
visible
100
AcDbLine
 10
-20.988678190452642
 20
26.93512520441091
 30
0.0
 11
-22.90867819045264
 21
27.38536071260818
 31
0.0
  0
LINE
  5
19F
330
17
100
AcDbEntity
  8
visible
100
AcDbLine
 10
20.52000000000003
 20
7.274533035233818
 30
0.0
 11
20.52000000000003
 21
13.16368946858755
 31
0.0
  0
ENDSEC
  0
SECTION
  2
OBJECTS
  0
DICTIONARY
  5
A
330
0
100
AcDbDictionary
281
1
  3
ACAD_COLOR
350
B
  3
ACAD_GROUP
350
C
  3
ACAD_LAYOUT
350
D
  3
ACAD_MATERIAL
350
E
  3
ACAD_MLEADERSTYLE
350
F
  3
ACAD_MLINESTYLE
350
10
  3
ACAD_PLOTSETTINGS
350
11
  3
ACAD_PLOTSTYLENAME
350
12
  3
ACAD_SCALELIST
350
14
  3
ACAD_TABLESTYLE
350
15
  3
ACAD_VISUALSTYLE
350
16
  3
EZDXF_META
350
2D
  0
DICTIONARY
  5
B
330
A
100
AcDbDictionary
281
1
  0
DICTIONARY
  5
C
330
A
100
AcDbDictionary
281
1
  0
DICTIONARY
  5
D
330
A
100
AcDbDictionary
281
1
  3
Model
350
1A
  3
Layout1
350
1E
  0
DICTIONARY
  5
E
330
A
100
AcDbDictionary
281
1
  3
ByBlock
350
1F
  3
ByLayer
350
20
  3
Global
350
21
  0
DICTIONARY
  5
F
330
A
100
AcDbDictionary
281
1
  3
Standard
350
2C
  0
DICTIONARY
  5
10
330
A
100
AcDbDictionary
281
1
  3
Standard
350
22
  0
DICTIONARY
  5
11
330
A
100
AcDbDictionary
281
1
  0
ACDBDICTIONARYWDFLT
  5
12
330
A
100
AcDbDictionary
281
1
  3
Normal
350
13
100
AcDbDictionaryWithDefault
340
13
  0
ACDBPLACEHOLDER
  5
13
330
12
  0
DICTIONARY
  5
14
330
A
100
AcDbDictionary
281
1
  0
DICTIONARY
  5
15
330
A
100
AcDbDictionary
281
1
  0
DICTIONARY
  5
16
330
A
100
AcDbDictionary
281
1
  0
LAYOUT
  5
1A
330
D
100
AcDbPlotSettings
  1

  4
A3
  6

 40
7.5
 41
20.0
 42
7.5
 43
20.0
 44
420.0
 45
297.0
 46
0.0
 47
0.0
 48
0.0
 49
0.0
140
0.0
141
0.0
142
1.0
143
1.0
 70
1024
 72
1
 73
0
 74
5
  7

 75
16
 76
0
 77
2
 78
300
147
1.0
148
0.0
149
0.0
100
AcDbLayout
  1
Model
 70
1
 71
0
 10
0.0
 20
0.0
 11
420.0
 21
297.0
 12
0.0
 22
0.0
 32
0.0
 14
1e+20
 24
1e+20
 34
1e+20
 15
-1e+20
 25
-1e+20
 35
-1e+20
146
0.0
 13
0.0
 23
0.0
 33
0.0
 16
1.0
 26
0.0
 36
0.0
 17
0.0
 27
1.0
 37
0.0
 76
1
330
17
  0
LAYOUT
  5
1E
330
D
100
AcDbPlotSettings
  1

  4
A3
  6

 40
7.5
 41
20.0
 42
7.5
 43
20.0
 44
420.0
 45
297.0
 46
0.0
 47
0.0
 48
0.0
 49
0.0
140
0.0
141
0.0
142
1.0
143
1.0
 70
0
 72
1
 73
0
 74
5
  7

 75
16
 76
0
 77
2
 78
300
147
1.0
148
0.0
149
0.0
100
AcDbLayout
  1
Layout1
 70
1
 71
1
 10
0.0
 20
0.0
 11
420.0
 21
297.0
 12
0.0
 22
0.0
 32
0.0
 14
1e+20
 24
1e+20
 34
1e+20
 15
-1e+20
 25
-1e+20
 35
-1e+20
146
0.0
 13
0.0
 23
0.0
 33
0.0
 16
1.0
 26
0.0
 36
0.0
 17
0.0
 27
1.0
 37
0.0
 76
1
330
1B
  0
MATERIAL
  5
1F
102
{ACAD_REACTORS
330
E
102
}
330
E
100
AcDbMaterial
  1
ByBlock
  2

 70
0
 40
1.0
 71
1
 41
1.0
 91
-1023410177
 42
1.0
 72
1
  3

 73
1
 74
1
 75
1
 44
0.5
 73
0
 45
1.0
 46
1.0
 77
1
  4

 78
1
 79
1
170
1
 48
1.0
171
1
  6

172
1
173
1
174
1
140
1.0
141
1.0
175
1
  7

176
1
177
1
178
1
143
1.0
179
1
  8

270
1
271
1
272
1
145
1.0
146
1.0
273
1
  9

274
1
275
1
276
1
 42
1.0
 72
1
  3

 73
1
 74
1
 75
1
 94
63
  0
MATERIAL
  5
20
102
{ACAD_REACTORS
330
E
102
}
330
E
100
AcDbMaterial
  1
ByLayer
  2

 70
0
 40
1.0
 71
1
 41
1.0
 91
-1023410177
 42
1.0
 72
1
  3

 73
1
 74
1
 75
1
 44
0.5
 73
0
 45
1.0
 46
1.0
 77
1
  4

 78
1
 79
1
170
1
 48
1.0
171
1
  6

172
1
173
1
174
1
140
1.0
141
1.0
175
1
  7

176
1
177
1
178
1
143
1.0
179
1
  8

270
1
271
1
272
1
145
1.0
146
1.0
273
1
  9

274
1
275
1
276
1
 42
1.0
 72
1
  3

 73
1
 74
1
 75
1
 94
63
  0
MATERIAL
  5
21
102
{ACAD_REACTORS
330
E
102
}
330
E
100
AcDbMaterial
  1
Global
  2

 70
0
 40
1.0
 71
1
 41
1.0
 91
-1023410177
 42
1.0
 72
1
  3

 73
1
 74
1
 75
1
 44
0.5
 73
0
 45
1.0
 46
1.0
 77
1
  4

 78
1
 79
1
170
1
 48
1.0
171
1
  6

172
1
173
1
174
1
140
1.0
141
1.0
175
1
  7

176
1
177
1
178
1
143
1.0
179
1
  8

270
1
271
1
272
1
145
1.0
146
1.0
273
1
  9

274
1
275
1
276
1
 42
1.0
 72
1
  3

 73
1
 74
1
 75
1
 94
63
  0
MLINESTYLE
  5
22
102
{ACAD_REACTORS
330
10
102
}
330
10
100
AcDbMlineStyle
  2
Standard
 70
0
  3

 62
256
 51
90.0
 52
90.0
 71
2
 49
0.5
 62
256
  6
BYLAYER
 49
-0.5
 62
256
  6
BYLAYER
  0
MLEADERSTYLE
  5
2C
102
{ACAD_REACTORS
330
F
102
}
330
F
100
AcDbMLeaderStyle
179
2
170
2
171
1
172
0
 90
2
 40
0.0
 41
0.0
173
1
 91
-1056964608
 92
-2
290
1
 42
2.0
291
1
 43
8.0
  3
Standard
 44
4.0
300

342
29
174
1
175
1
176
0
178
1
 93
-1056964608
 45
4.0
292
0
297
0
 46
4.0
 94
-1056964608
 47
1.0
 49
1.0
140
1.0
294
1
141
0.0
177
0
142
1.0
295
0
296
0
143
3.75
271
0
272
9
273
9
  0
DICTIONARY
  5
2D
330
A
100
AcDbDictionary
280
1
281
1
  3
CREATED_BY_EZDXF
350
2E
  3
WRITTEN_BY_EZDXF
350
1A3
  0
DICTIONARYVAR
  5
2E
330
2D
100
DictionaryVariables
280
0
  1
1.4.4 @ 2026-10-02T17:09:15.241873+00:00
  0
DICTIONARYVAR
  5
1A3
330
2D
100
DictionaryVariables
280
0
  1
1.4.4 @ 2026-10-02T17:09:15.309644+00:00
  0
ENDSEC
  0
EOF
