  0
SECTION
  2
HEADER
  9
$ACADVER
  1
AC1027
  9
$ACADMAINTVER
 70
105
  9
$DWGCODEPAGE
  3
ANSI_1252
  9
$LASTSAVEDBY
  1
ezdxf
  9
$REQUIREDVERSIONS
160
0
  9
$INSBASE
 10
0.0
 20
0.0
 30
0.0
  9
$EXTMIN
 10
1e+20
 20
1e+20
 30
1e+20
  9
$EXTMAX
 10
-1e+20
 20
-1e+20
 30
-1e+20
  9
$LIMMIN
 10
0.0
 20
0.0
  9
$LIMMAX
 10
420.0
 20
297.0
  9
$ORTHOMODE
 70
0
  9
$REGENMODE
 70
1
  9
$FILLMODE
 70
1
  9
$QTEXTMODE
 70
0
  9
$MIRRTEXT
 70
1
  9
$LTSCALE
 40
1.0
  9
$ATTMODE
 70
1
  9
$TEXTSIZE
 40
2.5
  9
$TRACEWID
 40
1.0
  9
$TEXTSTYLE
  7
Standard
  9
$CLAYER
  8
0
  9
$CELTYPE
  6
ByLayer
  9
$CECOLOR
 62
256
  9
$CELTSCALE
 40
1.0
  9
$DISPSILH
 70
0
  9
$DIMSCALE
 40
1.0
  9
$DIMASZ
 40
2.5
  9
$DIMEXO
 40
0.625
  9
$DIMDLI
 40
3.75
  9
$DIMRND
 40
0.0
  9
$DIMDLE
 40
0.0
  9
$DIMEXE
 40
1.25
  9
$DIMTP
 40
0.0
  9
$DIMTM
 40
0.0
  9
$DIMTXT
 40
2.5
  9
$DIMCEN
 40
2.5
  9
$DIMTSZ
 40
0.0
  9
$DIMTOL
 70
0
  9
$DIMLIM
 70
0
  9
$DIMTIH
 70
0
  9
$DIMTOH
 70
0
  9
$DIMSE1
 70
0
  9
$DIMSE2
 70
0
  9
$DIMTAD
 70
1
  9
$DIMZIN
 70
8
  9
$DIMBLK
  1

  9
$DIMASO
 70
1
  9
$DIMSHO
 70
1
  9
$DIMPOST
  1

  9
$DIMAPOST
  1

  9
$DIMALT
 70
0
  9
$DIMALTD
 70
3
  9
$DIMALTF
 40
0.03937007874
  9
$DIMLFAC
 40
1.0
  9
$DIMTOFL
 70
1
  9
$DIMTVP
 40
0.0
  9
$DIMTIX
 70
0
  9
$DIMSOXD
 70
0
  9
$DIMSAH
 70
0
  9
$DIMBLK1
  1

  9
$DIMBLK2
  1

  9
$DIMSTYLE
  2
ISO-25
  9
$DIMCLRD
 70
0
  9
$DIMCLRE
 70
0
  9
$DIMCLRT
 70
0
  9
$DIMTFAC
 40
1.0
  9
$DIMGAP
 40
0.625
  9
$DIMJUST
 70
0
  9
$DIMSD1
 70
0
  9
$DIMSD2
 70
0
  9
$DIMTOLJ
 70
0
  9
$DIMTZIN
 70
8
  9
$DIMALTZ
 70
0
  9
$DIMALTTZ
 70
0
  9
$DIMUPT
 70
0
  9
$DIMDEC
 70
2
  9
$DIMTDEC
 70
2
  9
$DIMALTU
 70
2
  9
$DIMALTTD
 70
3
  9
$DIMTXSTY
  7
Standard
  9
$DIMAUNIT
 70
0
  9
$DIMADEC
 70
0
  9
$DIMALTRND
 40
0.0
  9
$DIMAZIN
 70
0
  9
$DIMDSEP
 70
44
  9
$DIMATFIT
 70
3
  9
$DIMFRAC
 70
0
  9
$DIMLDRBLK
  1

  9
$DIMLUNIT
 70
2
  9
$DIMLWD
 70
-2
  9
$DIMLWE
 70
-2
  9
$DIMTMOVE
 70
0
  9
$DIMFXL
 40
1.0
  9
$DIMFXLON
 70
0
  9
$DIMJOGANG
 40
0.785398163397
  9
$DIMTFILL
 70
0
  9
$DIMTFILLCLR
 70
0
  9
$DIMARCSYM
 70
0
  9
$DIMLTYPE
  6

  9
$DIMLTEX1
  6

  9
$DIMLTEX2
  6

  9
$DIMTXTDIRECTION
 70
0
  9
$LUNITS
 70
2
  9
$LUPREC
 70
4
  9
$SKETCHINC
 40
1.0
  9
$FILLETRAD
 40
10.0
  9
$AUNITS
 70
0
  9
$AUPREC
 70
2
  9
$MENU
  1
.
  9
$ELEVATION
 40
0.0
  9
$PELEVATION
 40
0.0
  9
$THICKNESS
 40
0.0
  9
$LIMCHECK
 70
0
  9
$CHAMFERA
 40
0.0
  9
$CHAMFERB
 40
0.0
  9
$CHAMFERC
 40
0.0
  9
$CHAMFERD
 40
0.0
  9
$SKPOLY
 70
0
  9
$TDCREATE
 40
2461317.7883680556
  9
$TDUCREATE
 40
2458532.153996898
  9
$TDUPDATE
 40
2461317.7883680556
  9
$TDUUPDATE
 40
2458532.1544311
  9
$TDINDWG
 40
0.0
  9
$TDUSRTIMER
 40
0.0
  9
$USRTIMER
 70
1
  9
$ANGBASE
 50
0.0
  9
$ANGDIR
 70
0
  9
$PDMODE
 70
0
  9
$PDSIZE
 40
0.0
  9
$PLINEWID
 40
0.0
  9
$SPLFRAME
 70
0
  9
$SPLINETYPE
 70
6
  9
$SPLINESEGS
 70
8
  9
$HANDSEED
  5
15F
  9
$SURFTAB1
 70
6
  9
$SURFTAB2
 70
6
  9
$SURFTYPE
 70
6
  9
$SURFU
 70
6
  9
$SURFV
 70
6
  9
$UCSBASE
  2

  9
$UCSNAME
  2

  9
$UCSORG
 10
0.0
 20
0.0
 30
0.0
  9
$UCSXDIR
 10
1.0
 20
0.0
 30
0.0
  9
$UCSYDIR
 10
0.0
 20
1.0
 30
0.0
  9
$UCSORTHOREF
  2

  9
$UCSORTHOVIEW
 70
0
  9
$UCSORGTOP
 10
0.0
 20
0.0
 30
0.0
  9
$UCSORGBOTTOM
 10
0.0
 20
0.0
 30
0.0
  9
$UCSORGLEFT
 10
0.0
 20
0.0
 30
0.0
  9
$UCSORGRIGHT
 10
0.0
 20
0.0
 30
0.0
  9
$UCSORGFRONT
 10
0.0
 20
0.0
 30
0.0
  9
$UCSORGBACK
 10
0.0
 20
0.0
 30
0.0
  9
$PUCSBASE
  2

  9
$PUCSNAME
  2

  9
$PUCSORG
 10
0.0
 20
0.0
 30
0.0
  9
$PUCSXDIR
 10
1.0
 20
0.0
 30
0.0
  9
$PUCSYDIR
 10
0.0
 20
1.0
 30
0.0
  9
$PUCSORTHOREF
  2

  9
$PUCSORTHOVIEW
 70
0
  9
$PUCSORGTOP
 10
0.0
 20
0.0
 30
0.0
  9
$PUCSORGBOTTOM
 10
0.0
 20
0.0
 30
0.0
  9
$PUCSORGLEFT
 10
0.0
 20
0.0
 30
0.0
  9
$PUCSORGRIGHT
 10
0.0
 20
0.0
 30
0.0
  9
$PUCSORGFRONT
 10
0.0
 20
0.0
 30
0.0
  9
$PUCSORGBACK
 10
0.0
 20
0.0
 30
0.0
  9
$USERI1
 70
0
  9
$USERI2
 70
0
  9
$USERI3
 70
0
  9
$USERI4
 70
0
  9
$USERI5
 70
0
  9
$USERR1
 40
0.0
  9
$USERR2
 40
0.0
  9
$USERR3
 40
0.0
  9
$USERR4
 40
0.0
  9
$USERR5
 40
0.0
  9
$WORLDVIEW
 70
1
  9
$SHADEDGE
 70
3
  9
$SHADEDIF
 70
70
  9
$TILEMODE
 70
1
  9
$MAXACTVP
 70
64
  9
$PINSBASE
 10
0.0
 20
0.0
 30
0.0
  9
$PLIMCHECK
 70
0
  9
$PEXTMIN
 10
1e+20
 20
1e+20
 30
1e+20
  9
$PEXTMAX
 10
-1e+20
 20
-1e+20
 30
-1e+20
  9
$PLIMMIN
 10
0.0
 20
0.0
  9
$PLIMMAX
 10
420.0
 20
297.0
  9
$UNITMODE
 70
0
  9
$VISRETAIN
 70
1
  9
$PLINEGEN
 70
0
  9
$PSLTSCALE
 70
1
  9
$TREEDEPTH
 70
3020
  9
$CMLSTYLE
  2
Standard
  9
$CMLJUST
 70
0
  9
$CMLSCALE
 40
20.0
  9
$PROXYGRAPHICS
 70
1
  9
$MEASUREMENT
 70
1
  9
$CELWEIGHT
370
-1
  9
$ENDCAPS
280
0
  9
$JOINSTYLE
280
0
  9
$LWDISPLAY
290
0
  9
$INSUNITS
 70
4
  9
$HYPERLINKBASE
  1

  9
$STYLESHEET
  1

  9
$XEDIT
290
1
  9
$CEPSNTYPE
380
0
  9
$PSTYLEMODE
290
1
  9
$FINGERPRINTGUID
  2
{3B1E5CD4-4C64-4EC4-B1E6-BBB210692FF7}
  9
$VERSIONGUID
  2
{8C753ADA-7AA2-4E54-8720-EED1DA1F55AD}
  9
$EXTNAMES
290
1
  9
$PSVPSCALE
 40
0.0
  9
$OLESTARTUP
290
0
  9
$SORTENTS
280
127
  9
$INDEXCTL
280
0
  9
$HIDETEXT
280
1
  9
$XCLIPFRAME
280
1
  9
$HALOGAP
280
0
  9
$OBSCOLOR
 70
257
  9
$OBSLTYPE
280
0
  9
$INTERSECTIONDISPLAY
280
0
  9
$INTERSECTIONCOLOR
 70
257
  9
$DIMASSOC
280
2
  9
$PROJECTNAME
  1

  9
$CAMERADISPLAY
290
0
  9
$LENSLENGTH
 40
50.0
  9
$CAMERAHEIGHT
 40
0.0
  9
$STEPSPERSEC
 40
24.0
  9
$STEPSIZE
 40
100.0
  9
$3DDWFPREC
 40
2.0
  9
$PSOLWIDTH
 40
0.005
  9
$PSOLHEIGHT
 40
0.08
  9
$LOFTANG1
 40
1.570796326795
  9
$LOFTANG2
 40
1.570796326795
  9
$LOFTMAG1
 40
0.0
  9
$LOFTMAG2
 40
0.0
  9
$LOFTPARAM
 70
7
  9
$LOFTNORMALS
280
1
  9
$LATITUDE
 40
37.795
  9
$LONGITUDE
 40
-122.394
  9
$NORTHDIRECTION
 40
0.0
  9
$TIMEZONE
 70
-8000
  9
$LIGHTGLYPHDISPLAY
280
1
  9
$TILEMODELIGHTSYNCH
280
1
  9
$CMATERIAL
347
20
  9
$SOLIDHIST
280
0
  9
$SHOWHIST
280
1
  9
$DWFFRAME
280
2
  9
$DGNFRAME
280
2
  9
$REALWORLDSCALE
290
1
  9
$INTERFERECOLOR
 62
256
  9
$CSHADOW
280
0
  9
$SHADOWPLANELOCATION
 40
0.0
  0
ENDSEC
  0
SECTION
  2
CLASSES
  0
CLASS
  1
ACDBDICTIONARYWDFLT
  2
AcDbDictionaryWithDefault
  3
ObjectDBX Classes
 90
0
 91
0
280
0
281
0
  0
CLASS
  1
SUN
  2
AcDbSun
  3
SCENEOE
 90
1153
 91
0
280
0
281
0
  0
CLASS
  1
VISUALSTYLE
  2
AcDbVisualStyle
  3
ObjectDBX Classes
 90
4095
 91
0
280
0
281
0
  0
CLASS
  1
MATERIAL
  2
AcDbMaterial
  3
ObjectDBX Classes
 90
1153
 91
0
280
0
281
0
  0
CLASS
  1
SCALE
  2
AcDbScale
  3
ObjectDBX Classes
 90
1153
 91
0
280
0
281
0
  0
CLASS
  1
TABLESTYLE
  2
AcDbTableStyle
  3
ObjectDBX Classes
 90
4095
 91
0
280
0
281
0
  0
CLASS
  1
MLEADERSTYLE
  2
AcDbMLeaderStyle
  3
ACDB_MLEADERSTYLE_CLASS
 90
4095
 91
0
280
0
281
0
  0
CLASS
  1
DICTIONARYVAR
  2
AcDbDictionaryVar
  3
ObjectDBX Classes
 90
0
 91
0
280
0
281
0
  0
CLASS
  1
CELLSTYLEMAP
  2
AcDbCellStyleMap
  3
ObjectDBX Classes
 90
1152
 91
0
280
0
281
0
  0
CLASS
  1
MENTALRAYRENDERSETTINGS
  2
AcDbMentalRayRenderSettings
  3
SCENEOE
 90
1024
 91
0
280
0
281
0
  0
CLASS
  1
ACDBDETAILVIEWSTYLE
  2
AcDbDetailViewStyle
  3
ObjectDBX Classes
 90
1025
 91
0
280
0
281
0
  0
CLASS
  1
ACDBSECTIONVIEWSTYLE
  2
AcDbSectionViewStyle
  3
ObjectDBX Classes
 90
1025
 91
0
280
0
281
0
  0
CLASS
  1
RASTERVARIABLES
  2
AcDbRasterVariables
  3
ISM
 90
0
 91
0
280
0
281
0
  0
CLASS
  1
LAYOUT
  2
AcDbLayout
  3
ObjectDBX Classes
 90
0
 91
0
280
0
281
0
  0
CLASS
  1
ACDBPLACEHOLDER
  2
AcDbPlaceHolder
  3
ObjectDBX Classes
 90
0
 91
0
280
0
281
0
  0
ENDSEC
  0
SECTION
  2
TABLES
  0
TABLE
  2
VPORT
  5
8
330
0
100
AcDbSymbolTable
 70
1
  0
VPORT
  5
15B
330
8
100
AcDbSymbolTableRecord
100
AcDbViewportTableRecord
  2
*Active
 70
0
 10
0.0
 20
0.0
 11
1.0
 21
1.0
 12
2.1316282072803006e-14
 22
-2.483202686822814
 13
0.0
 23
0.0
 14
0.5
 24
0.5
 15
0.5
 25
0.5
 16
0.0
 26
0.0
 36
1.0
 17
0.0
 27
0.0
 37
0.0
 40
57.932378938959516
 41
1.34
 42
50.0
 43
0.0
 44
0.0
 50
0.0
 51
0.0
 71
0
 72
1000
 73
1
 74
3
 75
0
 76
0
 77
0
 78
0
281
0
 65
1
110
0.0
120
0.0
130
0.0
111
1.0
121
0.0
131
0.0
112
0.0
122
1.0
132
0.0
 79
0
146
0.0
  0
ENDTAB
  0
TABLE
  2
LTYPE
  5
2
330
0
100
AcDbSymbolTable
 70
3
  0
LTYPE
  5
24
330
2
100
AcDbSymbolTableRecord
100
AcDbLinetypeTableRecord
  2
ByBlock
 70
0
  3

 72
65
 73
0
 40
0.0
  0
LTYPE
  5
25
330
2
100
AcDbSymbolTableRecord
100
AcDbLinetypeTableRecord
  2
ByLayer
 70
0
  3

 72
65
 73
0
 40
0.0
  0
LTYPE
  5
26
330
2
100
AcDbSymbolTableRecord
100
AcDbLinetypeTableRecord
  2
Continuous
 70
0
  3

 72
65
 73
0
 40
0.0
  0
ENDTAB
  0
TABLE
  2
LAYER
  5
1
330
0
100
AcDbSymbolTable
 70
3
  0
LAYER
  5
27
330
1
100
AcDbSymbolTableRecord
100
AcDbLayerTableRecord
  2
0
 70
0
 62
7
  6
Continuous
370
-3
390
13
347
21
  0
LAYER
  5
28
330
1
100
AcDbSymbolTableRecord
100
AcDbLayerTableRecord
  2
Defpoints
 70
0
 62
7
  6
Continuous
290
0
370
-3
390
13
347
21
  0
LAYER
  5
2F
330
1
100
AcDbSymbolTableRecord
100
AcDbLayerTableRecord
  2
visible
 70
0
 62
7
  6
Continuous
370
-3
390
13
347
21
  0
ENDTAB
  0
TABLE
  2
STYLE
  5
5
330
0
100
AcDbSymbolTable
 70
1
  0
STYLE
  5
29
330
5
100
AcDbSymbolTableRecord
100
AcDbTextStyleTableRecord
  2
Standard
 70
0
 40
0.0
 41
1.0
 50
0.0
 71
0
 42
2.5
  3
txt
  4

  0
ENDTAB
  0
TABLE
  2
VIEW
  5
7
330
0
100
AcDbSymbolTable
 70
0
  0
ENDTAB
  0
TABLE
  2
UCS
  5
6
330
0
100
AcDbSymbolTable
 70
0
  0
ENDTAB
  0
TABLE
  2
APPID
  5
3
330
0
100
AcDbSymbolTable
 70
3
  0
APPID
  5
2A
330
3
100
AcDbSymbolTableRecord
100
AcDbRegAppTableRecord
  2
ACAD
 70
0
  0
APPID
  5
15C
330
3
100
AcDbSymbolTableRecord
100
AcDbRegAppTableRecord
  2
HATCHBACKGROUNDCOLOR
 70
0
  0
APPID
  5
15D
330
3
100
AcDbSymbolTableRecord
100
AcDbRegAppTableRecord
  2
EZDXF
 70
0
  0
ENDTAB
  0
TABLE
  2
DIMSTYLE
  5
4
330
0
100
AcDbSymbolTable
 70
1
100
AcDbDimStyleTable
  0
DIMSTYLE
105
2B
330
4
100
AcDbSymbolTableRecord
100
AcDbDimStyleTableRecord
  2
Standard
 70
0
 40
1.0
 41
2.5
 42
0.625
 43
3.75
 44
1.25
 45
0.0
 46
0.0
 47
0.0
 48
0.0
 49
2.5
140
2.5
141
2.5
142
0.0
143
0.03937007874
144
1.0
145
0.0
146
1.0
147
0.625
148
0.0
 69
0
 70
0
 71
0
 72
0
 73
0
 74
0
 75
0
 76
0
 77
1
 78
8
 79
3
170
0
171
3
172
1
173
0
174
0
175
0
176
0
177
0
178
0
179
2
271
2
272
2
273
2
274
3
275
0
276
0
277
2
278
44
279
0
280
0
281
0
282
0
283
0
284
8
285
0
286
0
288
0
289
3
290
0
371
-2
372
-2
  0
ENDTAB
  0
TABLE
  2
BLOCK_RECORD
  5
9
330
0
100
AcDbSymbolTable
 70
2
  0
BLOCK_RECORD
  5
17
330
9
100
AcDbSymbolTableRecord
100
AcDbBlockTableRecord
  2
*Model_Space
340
1A
 70
0
280
1
281
0
  0
BLOCK_RECORD
  5
1B
330
9
100
AcDbSymbolTableRecord
100
AcDbBlockTableRecord
  2
*Paper_Space
340
1E
 70
0
280
1
281
0
  0
ENDTAB
  0
ENDSEC
  0
SECTION
  2
BLOCKS
  0
BLOCK
  5
18
330
17
100
AcDbEntity
  8
0
100
AcDbBlockBegin
  2
*Model_Space
 70
0
 10
0.0
 20
0.0
 30
0.0
  3
*Model_Space
  1

  0
ENDBLK
  5
19
330
17
100
AcDbEntity
  8
0
100
AcDbBlockEnd
  0
BLOCK
  5
1C
330
1B
100
AcDbEntity
  8
0
100
AcDbBlockBegin
  2
*Paper_Space
 70
0
 10
0.0
 20
0.0
 30
0.0
  3
*Paper_Space
  1

  0
ENDBLK
  5
1D
330
1B
100
AcDbEntity
  8
0
100
AcDbBlockEnd
  0
ENDSEC
  0
SECTION
  2
ENTITIES
  0
ELLIPSE
  5
30
330
17
100
AcDbEntity
  8
visible
100
AcDbEllipse
 10
-35.25999999999998
 20
-17.502113772191137
 30
0.0
 11
0.3078295018133739
 21
-0.738404359286516
 31
0.0
 40
0.7598911526908056
 41
-3.643368913949053
 42
-3.1415926535897936
  0
LINE
  5
31
330
17
100
AcDbEntity
  8
visible
100
AcDbLine
 10
-35.25999999999998
 20
-16.742222619500325
 30
0.0
 11
-28.699999999999974
 21
-14.007458791931723
 31
0.0
  0
ELLIPSE
  5
32
330
17
100
AcDbEntity
  8
visible
100
AcDbEllipse
 10
-33.49999999999997
 20
-17.154938502014488
 30
0.0
 11
-2.2
 21
6.428527679329822e-17
 31
0.0
 40
0.31266354735921503
 41
-6.9266864159728705
 42
-5.355890089177974
  0
LINE
  5
33
330
17
100
AcDbEntity
  8
visible
100
AcDbLine
 10
2.780000000000026
 20
-26.522338380896578
 30
0.0
 11
-34.81999999999998
 21
-17.70522634536671
 31
0.0
  0
ELLIPSE
  5
34
330
17
100
AcDbEntity
  8
visible
100
AcDbEllipse
 10
4.100000000000026
 20
-25.972050537544362
 30
0.0
 11
-2.2
 21
6.428527679329822e-17
 31
0.0
 40
0.31266354735921503
 41
-5.355890089177974
 42
-3.7850937623830774
  0
LINE
  5
35
330
17
100
AcDbEntity
  8
visible
100
AcDbLine
 10
16.36000000000003
 20
-22.00747675702952
 30
0.0
 11
5.860000000000031
 21
-26.384766420058526
 31
0.0
  0
LINE
  5
36
330
17
100
AcDbEntity
  8
visible
100
AcDbLine
 10
16.360000000000035
 20
-22.007476757029508
 30
0.0
 11
10.124024430001942
 21
-20.54515507480875
 31
0.0
  0
LINE
  5
37
330
17
100
AcDbEntity
  8
visible
100
AcDbLine
 10
1.0200000000000298
 20
-1.6624993104343417
 30
0.0
 11
16.60000000000003
 21
-5.3159728613267685
 31
0.0
  0
LINE
  5
38
330
17
100
AcDbEntity
  8
visible
100
AcDbLine
 10
27.080000000000027
 20
-7.773508343570199
 30
0.0
 11
27.42000000000003
 21
-7.853237548146799
 31
0.0
  0
LINE
  5
39
330
17
100
AcDbEntity
  8
visible
100
AcDbLine
 10
-27.659999999999975
 20
-12.993426266732286
 30
0.0
 11
-0.6599999999999682
 21
-1.7375385618005446
 31
0.0
  0
ELLIPSE
  5
3A
330
17
100
AcDbEntity
  8
visible
100
AcDbEllipse
 10
-26.699999999999974
 20
-13.218544020830919
 30
0.0
 11
-1.2
 21
3.506469643270812e-17
 31
0.0
 40
0.31266354735921503
 41
-6.9266864159728705
 42
-5.355890089177974
  0
ELLIPSE
  5
3B
330
17
100
AcDbEntity
  8
visible
100
AcDbEllipse
 10
0.30000000000002913
 20
-1.9626563158991814
 30
0.0
 11
-1.2
 21
3.506469643270812e-17
 31
0.0
 40
0.31266354735921503
 41
-2.214297435588181
 42
-0.6435011087932845
  0
LINE
  5
3C
330
17
100
AcDbEntity
  8
visible
100
AcDbLine
 10
-1.019999999999973
 20
-19.709439264008225
 30
0.0
 11
-27.419999999999973
 21
-13.518701026295767
 31
0.0
  0
ELLIPSE
  5
3D
330
17
100
AcDbEntity
  8
visible
100
AcDbEllipse
 10
-0.2999999999999723
 20
-19.409282258543385
 30
0.0
 11
-1.2
 21
3.506469643270812e-17
 31
0.0
 40
0.31266354735921503
 41
-5.355890089177974
 42
-3.7850937623830774
  0
ELLIPSE
  5
3E
330
17
100
AcDbEntity
  8
visible
100
AcDbEllipse
 10
26.70000000000003
 20
-8.153394553611648
 30
0.0
 11
-1.2
 21
3.506469643270812e-17
 31
0.0
 40
0.31266354735921503
 41
-3.785093762383078
 42
-2.2142974355881813
  0
LINE
  5
3F
330
17
100
AcDbEntity
  8
visible
100
AcDbLine
 10
27.660000000000032
 20
-8.378512307710281
 30
0.0
 11
27.080000000000034
 21
-8.620305451001407
 31
0.0
  0
LINE
  5
40
330
17
100
AcDbEntity
  8
visible
100
AcDbLine
 10
16.60000000000003
 20
-12.989257419434171
 30
0.0
 11
0.660000000000025
 21
-19.634400012642022
 31
0.0
  0
ELLIPSE
  5
41
330
17
100
AcDbEntity
  8
visible
100
AcDbEllipse
 10
-4.799999999999972
 20
-12.687015990320262
 30
0.0
 11
3.4
 21
-9.934997322600634e-17
 31
0.0
 40
0.31266354735921503
 41
2.498091544796509
 42
3.141592653589793
  0
ELLIPSE
  5
42
330
17
100
AcDbEntity
  8
visible
100
AcDbEllipse
 10
-4.799999999999972
 20
-12.687015990320262
 30
0.0
 11
3.4
 21
-9.934997322600634e-17
 31
0.0
 40
0.31266354735921503
 41
3.141592653589793
 42
5.639684198386302
  0
LINE
  5
43
330
17
100
AcDbEntity
  8
visible
100
AcDbLine
 10
-2.0799999999999725
 20
-13.324849626933057
 30
0.0
 11
7.520000000000029
 21
-9.322756220735105
 31
0.0
  0
ELLIPSE
  5
44
330
17
100
AcDbEntity
  8
visible
100
AcDbEllipse
 10
4.800000000000029
 20
-8.684922584122305
 30
0.0
 11
3.4
 21
-9.934997322600634e-17
 31
0.0
 40
0.31266354735921503
 41
5.639684198386302
 42
6.283185307179586
  0
ELLIPSE
  5
45
330
17
100
AcDbEntity
  8
visible
100
AcDbEllipse
 10
4.800000000000029
 20
-8.684922584122305
 30
0.0
 11
3.4
 21
-9.934997322600634e-17
 31
0.0
 40
0.31266354735921503
 41
0.0
 42
2.498091544796509
  0
LINE
  5
46
330
17
100
AcDbEntity
  8
visible
100
AcDbLine
 10
-7.519999999999973
 20
-12.049182353707463
 30
0.0
 11
2.0800000000000285
 21
-8.047088947509511
 31
0.0
  0
LINE
  5
47
330
17
100
AcDbEntity
  8
visible
100
AcDbLine
 10
-7.519999999999973
 20
-13.324849626933059
 30
0.0
 11
-7.519999999999973
 21
-12.049182353707469
 31
0.0
  0
LINE
  5
48
330
17
100
AcDbEntity
  8
visible
100
AcDbLine
 10
2.080000000000029
 20
-11.590609150913945
 30
0.0
 11
2.080000000000029
 21
-8.047088947509511
 31
0.0
  0
ELLIPSE
  5
49
330
17
100
AcDbEntity
  8
visible
100
AcDbEllipse
 10
-27.659999999999975
 20
-13.753317419423084
 30
0.0
 11
0.3078295018133739
 21
-0.738404359286516
 31
0.0
 40
0.7598911526908056
 41
-3.643368913949053
 42
-3.1415926535897936
  0
ELLIPSE
  5
4A
330
17
100
AcDbEntity
  8
visible
100
AcDbEllipse
 10
-0.6599999999999699
 20
-2.4974297144913464
 30
0.0
 11
0.3078295018133739
 21
-0.738404359286516
 31
0.0
 40
0.7598911526908056
 41
-3.643368913949053
 42
-3.1415926535897936
  0
LINE
  5
4B
330
17
100
AcDbEntity
  8
visible
100
AcDbLine
 10
28.700000000000035
 20
-11.73022595533212
 30
0.0
 11
34.820000000000036
 21
-13.165351637710918
 31
0.0
  0
ELLIPSE
  5
4C
330
17
100
AcDbEntity
  8
visible
100
AcDbEllipse
 10
33.50000000000003
 20
-13.715639481063135
 30
0.0
 11
-2.2
 21
6.428527679329822e-17
 31
0.0
 40
0.31266354735921503
 41
-3.785093762383078
 42
-2.2142974355881813
  0
LINE
  5
4D
330
17
100
AcDbEntity
  8
visible
100
AcDbLine
 10
35.26000000000003
 20
-14.128355363577299
 30
0.0
 11
27.080000000000034
 21
-17.538472453441805
 31
0.0
  0
ELLIPSE
  5
4E
330
17
100
AcDbEntity
  8
visible
100
AcDbEllipse
 10
18.20000000000003
 20
-9.368428846690918
 30
0.0
 11
5.00222940446733
 21
-11.999070838405881
 31
0.0
 40
0.7598911526908056
 41
-6.020279389676176
 42
-5.761631469626159
  0
LINE
  5
4F
330
17
100
AcDbEntity
  8
visible
100
AcDbLine
 10
27.08000000000003
 20
8.021442715598607
 30
0.0
 11
27.080000000000034
 21
-17.878336707811066
 31
0.0
  0
LINE
  5
50
330
17
100
AcDbEntity
  8
visible
100
AcDbLine
 10
25.99769145362401
 20
8.04517678010087
 30
0.0
 11
26.78000000000003
 21
8.37130926708668
 31
0.0
  0
ELLIPSE
  5
51
330
17
100
AcDbEntity
  8
visible
100
AcDbEllipse
 10
22.88000000000003
 20
3.895866998228243
 30
0.0
 11
-1.3698271432099134
 21
-5.841538632734133
 31
0.0
 40
0.5699183645181043
 41
2.484740160422282
 42
2.8674363531160183
  0
LINE
  5
52
330
17
100
AcDbEntity
  8
visible
100
AcDbLine
 10
24.58710244611985
 20
9.428160678342921
 30
0.0
 11
25.10000000000003
 21
9.307887401871891
 31
0.0
  0
ELLIPSE
  5
53
330
17
100
AcDbEntity
  8
visible
100
AcDbEllipse
 10
23.160000000000032
 20
16.171512794183215
 30
0.0
 11
-0.09132180954732767
 21
-0.38943590884894225
 31
0.0
 40
0.5699183645181043
 41
3.141592653589793
 42
3.5319377116188795
  0
LINE
  5
54
330
17
100
AcDbEntity
  8
visible
100
AcDbLine
 10
17.64000000000003
 20
14.250254661964808
 30
0.0
 11
23.160000000000032
 21
16.551458370528632
 31
0.0
  0
LINE
  5
55
330
17
100
AcDbEntity
  8
visible
100
AcDbLine
 10
24.30000000000003
 20
15.932384546757376
 30
0.0
 11
23.82000000000003
 21
16.044943423806693
 31
0.0
  0
LINE
  5
56
330
17
100
AcDbEntity
  8
visible
100
AcDbLine
 10
19.38000000000003
 20
14.193975223440145
 30
0.0
 11
23.820000000000032
 21
16.0449434238067
 31
0.0
  0
LINE
  5
57
330
17
100
AcDbEntity
  8
visible
100
AcDbLine
 10
19.860000000000028
 20
14.081416346390824
 30
0.0
 11
19.380000000000027
 21
14.193975223440143
 31
0.0
  0
ELLIPSE
  5
58
330
17
100
AcDbEntity
  8
visible
100
AcDbEllipse
 10
17.64000000000003
 20
13.870309085619397
 30
0.0
 11
0.09132180954732767
 21
0.38943590884894225
 31
0.0
 40
0.5699183645181043
 41
-5.8928402491505
 42
-4.322043922355603
  0
LINE
  5
59
330
17
100
AcDbEntity
  8
visible
100
AcDbLine
 10
17.40000000000003
 20
13.770256750464444
 30
0.0
 11
17.40000000000003
 21
7.881100317110699
 31
0.0
  0
ELLIPSE
  5
5A
330
17
100
AcDbEntity
  8
visible
100
AcDbEllipse
 10
22.88000000000003
 20
3.895866998228243
 30
0.0
 11
-1.3698271432099134
 21
-5.841538632734133
 31
0.0
 40
0.5699183645181043
 41
4.19643907012174
 42
4.579135262815477
  0
LINE
  5
5B
330
17
100
AcDbEntity
  8
visible
100
AcDbLine
 10
17.68230854637605
 20
5.933495995417035
 30
0.0
 11
19.76230854637605
 21
5.44574086153666
 31
0.0
  0
SPLINE
  5
5C
330
17
100
AcDbEntity
  8
visible
100
AcDbSpline
 70
0
 71
2
 72
6
 73
3
 74
0
 40
0.0
 40
0.0
 40
0.0
 40
1.0
 40
1.0
 40
1.0
 10
17.468854500684202
 20
5.91128690302045
 30
0.0
 10
17.579624536239507
 20
5.956913129880023
 30
0.0
 10
17.68230854637605
 20
5.933495995417033
 30
0.0
  0
ELLIPSE
  5
5D
330
17
100
AcDbEntity
  8
visible
100
AcDbEllipse
 10
20.40000000000003
 20
4.477421196316385
 30
0.0
 11
-1.3698271432099134
 21
-5.841538632734133
 31
0.0
 40
0.5699183645181043
 41
4.304310743554554
 42
4.617970352118503
  0
SPLINE
  5
5E
330
17
100
AcDbEntity
  8
visible
100
AcDbSpline
 70
0
 71
3
 72
8
 73
4
 74
0
 40
0.0
 40
0.0
 40
0.0
 40
0.0
 40
1.0
 40
1.0
 40
1.0
 40
1.0
 10
20.147102446119856
 20
7.577192478090553
 30
0.0
 10
20.06598297229516
 20
7.494660123570829
 30
0.0
 10
19.974711723222285
 20
7.426600386336618
 30
0.0
 10
19.886710821065297
 20
7.390082781142208
 30
0.0
  0
LINE
  5
5F
330
17
100
AcDbEntity
  8
visible
100
AcDbLine
 10
20.147102446119852
 20
7.57719247797637
 30
0.0
 11
20.660000000000032
 21
7.45691920150534
 31
0.0
  0
ELLIPSE
  5
60
330
17
100
AcDbEntity
  8
visible
100
AcDbEllipse
 10
17.60000000000003
 20
5.163697892735385
 30
0.0
 11
-1.0
 21
-0.0
 31
0.0
 40
0.312663547359215
 41
-6.283185307179586
 42
-5.355890089177974
  0
ELLIPSE
  5
61
330
17
100
AcDbEntity
  8
visible
100
AcDbEllipse
 10
17.60000000000003
 20
-14.308512894966512
 30
0.0
 11
-1.0
 21
-0.0
 31
0.0
 40
0.312663547359215
 41
-6.283185307179586
 42
-5.355890089177974
  0
LINE
  5
62
330
17
100
AcDbEntity
  8
visible
100
AcDbLine
 10
17.00000000000003
 20
4.913567054848016
 30
0.0
 11
17.00000000000003
 21
-14.558643732853877
 31
0.0
  0
LINE
  5
63
330
17
100
AcDbEntity
  8
visible
100
AcDbLine
 10
16.200000000000028
 20
-14.371045604438356
 30
0.0
 11
17.00000000000003
 21
-14.558643732853884
 31
0.0
  0
LINE
  5
64
330
17
100
AcDbEntity
  8
visible
100
AcDbLine
 10
16.20000000000003
 20
-14.371045604438347
 30
0.0
 11
16.60000000000003
 21
-14.204291712513433
 31
0.0
  0
LINE
  5
65
330
17
100
AcDbEntity
  8
visible
100
AcDbLine
 10
18.680000000000028
 20
4.51961098517541
 30
0.0
 11
17.00000000000003
 21
4.913567054848021
 31
0.0
  0
ELLIPSE
  5
66
330
17
100
AcDbEntity
  8
visible
100
AcDbEllipse
 10
18.980000000000032
 20
4.644676404119096
 30
0.0
 11
0.11415226193415959
 21
0.48679488606117777
 31
0.0
 40
0.5699183645181043
 41
-5.8928402491505
 42
-4.322043922355603
  0
LINE
  5
67
330
17
100
AcDbEntity
  8
visible
100
AcDbLine
 10
18.980000000000032
 20
5.119608374550845
 30
0.0
 11
19.76230854637605
 21
5.445740861536654
 31
0.0
  0
ELLIPSE
  5
68
330
17
100
AcDbEntity
  8
visible
100
AcDbEllipse
 10
19.860000000000028
 20
7.812314336691685
 30
0.0
 11
-0.15391475090668694
 21
0.369202179643258
 31
0.0
 40
0.7598911526908056
 41
3.753193272305337
 42
4.21061272002543
  0
LINE
  5
69
330
17
100
AcDbEntity
  8
visible
100
AcDbLine
 10
20.180000000000028
 20
7.737275085325335
 30
0.0
 11
20.180000000000028
 21
13.626431518679217
 31
0.0
  0
ELLIPSE
  5
6A
330
17
100
AcDbEntity
  8
visible
100
AcDbEllipse
 10
17.64000000000003
 20
7.9811526522656635
 30
0.0
 11
0.09132180954732767
 21
0.38943590884894225
 31
0.0
 40
0.5699183645181043
 41
-4.322043922355603
 42
-3.141592653589793
  0
ELLIPSE
  5
6B
330
17
100
AcDbEntity
  8
visible
100
AcDbEllipse
 10
19.860000000000028
 20
13.701470770045418
 30
0.0
 11
-0.15391475090668694
 21
0.369202179643258
 31
0.0
 40
0.7598911526908056
 41
4.21061272002543
 42
5.781409046820326
  0
LINE
  5
6C
330
17
100
AcDbEntity
  8
visible
100
AcDbLine
 10
20.660000000000032
 20
7.456919201505347
 30
0.0
 11
20.660000000000032
 21
-8.617957180489823
 31
0.0
  0
LINE
  5
6D
330
17
100
AcDbEntity
  8
visible
100
AcDbLine
 10
23.82000000000003
 20
-6.466831974658419
 30
0.0
 11
25.10000000000003
 21
-6.766988980123266
 31
0.0
  0
LINE
  5
6E
330
17
100
AcDbEntity
  8
visible
100
AcDbLine
 10
20.66000000000003
 20
-8.617957180489825
 30
0.0
 11
25.10000000000003
 21
-6.766988980123272
 31
0.0
  0
LINE
  5
6F
330
17
100
AcDbEntity
  8
visible
100
AcDbLine
 10
20.660000000000032
 20
-7.784187720865243
 30
0.0
 11
23.820000000000032
 21
-6.466831974658417
 31
0.0
  0
LINE
  5
70
330
17
100
AcDbEntity
  8
visible
100
AcDbLine
 10
23.82000000000003
 20
-6.466831974658419
 30
0.0
 11
23.82000000000003
 21
16.0449434238067
 31
0.0
  0
ELLIPSE
  5
71
330
17
100
AcDbEntity
  8
visible
100
AcDbEllipse
 10
21.60000000000003
 20
-3.4028875232149716
 30
0.0
 11
-0.2511349762551508
 21
-1.0709487493345913
 31
0.0
 40
0.5699183645181043
 41
0.39034505802908626
 42
3.141592653589793
  0
ELLIPSE
  5
72
330
17
100
AcDbEntity
  8
visible
100
AcDbEllipse
 10
21.60000000000003
 20
-3.4028875232149716
 30
0.0
 11
-0.2511349762551508
 21
-1.0709487493345913
 31
0.0
 40
0.5699183645181043
 41
3.141592653589793
 42
6.283185307179586
  0
ELLIPSE
  5
73
330
17
100
AcDbEntity
  8
visible
100
AcDbEllipse
 10
21.60000000000003
 20
-3.4028875232149716
 30
0.0
 11
-0.2511349762551508
 21
-1.0709487493345913
 31
0.0
 40
0.5699183645181043
 41
0.0
 42
0.39034505802908637
  0
ELLIPSE
  5
74
330
17
100
AcDbEntity
  8
visible
100
AcDbEllipse
 10
21.60000000000003
 20
4.196024003693083
 30
0.0
 11
-0.5707613096707973
 21
-2.433974430305889
 31
0.0
 40
0.5699183645181043
 41
0.39034505802908626
 42
3.141592653589793
  0
ELLIPSE
  5
75
330
17
100
AcDbEntity
  8
visible
100
AcDbEllipse
 10
21.60000000000003
 20
4.196024003693083
 30
0.0
 11
-0.5707613096707973
 21
-2.433974430305889
 31
0.0
 40
0.5699183645181043
 41
3.141592653589793
 42
4.209206116183271
  0
ELLIPSE
  5
76
330
17
100
AcDbEntity
  8
visible
100
AcDbEllipse
 10
21.60000000000003
 20
4.196024003693083
 30
0.0
 11
-0.5707613096707973
 21
-2.433974430305889
 31
0.0
 40
0.5699183645181043
 41
5.996261960644281
 42
6.283185307179586
  0
ELLIPSE
  5
77
330
17
100
AcDbEntity
  8
visible
100
AcDbEllipse
 10
21.60000000000003
 20
4.196024003693083
 30
0.0
 11
-0.5707613096707973
 21
-2.433974430305889
 31
0.0
 40
0.5699183645181043
 41
0.0
 42
0.39034505802908637
  0
ELLIPSE
  5
78
330
17
100
AcDbEntity
  8
visible
100
AcDbEllipse
 10
21.60000000000003
 20
11.794935530601137
 30
0.0
 11
-0.2511349762551508
 21
-1.0709487493345913
 31
0.0
 40
0.5699183645181043
 41
0.39034505802908626
 42
3.141592653589793
  0
ELLIPSE
  5
79
330
17
100
AcDbEntity
  8
visible
100
AcDbEllipse
 10
21.60000000000003
 20
11.794935530601137
 30
0.0
 11
-0.2511349762551508
 21
-1.0709487493345913
 31
0.0
 40
0.5699183645181043
 41
3.141592653589793
 42
6.283185307179586
  0
ELLIPSE
  5
7A
330
17
100
AcDbEntity
  8
visible
100
AcDbEllipse
 10
21.60000000000003
 20
11.794935530601137
 30
0.0
 11
-0.2511349762551508
 21
-1.0709487493345913
 31
0.0
 40
0.5699183645181043
 41
0.0
 42
0.39034505802908637
  0
ELLIPSE
  5
7B
330
17
100
AcDbEntity
  8
visible
100
AcDbEllipse
 10
20.40000000000003
 20
12.076332723224425
 30
0.0
 11
-0.2511349762551508
 21
-1.0709487493345913
 31
0.0
 40
0.5699183645181043
 41
1.3863454154863897
 42
1.7552472381034088
  0
ELLIPSE
  5
7C
330
17
100
AcDbEntity
  8
visible
100
AcDbEllipse
 10
20.40000000000003
 20
4.477421196316385
 30
0.0
 11
-0.5707613096707973
 21
-2.433974430305889
 31
0.0
 40
0.5699183645181043
 41
0.5645582909187234
 42
2.694288680795979
  0
ELLIPSE
  5
7D
330
17
100
AcDbEntity
  8
visible
100
AcDbEllipse
 10
20.40000000000003
 20
-3.1214903305916835
 30
0.0
 11
-0.2511349762551508
 21
-1.0709487493345913
 31
0.0
 40
0.5699183645181043
 41
1.3863454154863897
 42
1.7552472381034088
  0
ELLIPSE
  5
7E
330
17
100
AcDbEntity
  8
visible
100
AcDbEllipse
 10
24.300000000000033
 20
15.55243897041197
 30
0.0
 11
-0.15391475090668694
 21
0.369202179643258
 31
0.0
 40
0.7598911526908056
 41
4.21061272002543
 42
5.781409046820326
  0
LINE
  5
7F
330
17
100
AcDbEntity
  8
visible
100
AcDbLine
 10
24.62000000000003
 20
9.588243285691886
 30
0.0
 11
24.62000000000003
 21
15.477399719045769
 31
0.0
  0
ELLIPSE
  5
80
330
17
100
AcDbEntity
  8
visible
100
AcDbEllipse
 10
24.300000000000033
 20
9.663282537058237
 30
0.0
 11
-0.15391475090668694
 21
0.369202179643258
 31
0.0
 40
0.7598911526908056
 41
3.753193272305337
 42
4.21061272002543
  0
LINE
  5
81
330
17
100
AcDbEntity
  8
visible
100
AcDbLine
 10
25.10000000000003
 20
9.307887401871898
 30
0.0
 11
25.10000000000003
 21
-6.766988980123271
 31
0.0
  0
ELLIPSE
  5
82
330
17
100
AcDbEntity
  8
visible
100
AcDbEllipse
 10
26.78000000000003
 20
7.896377296654933
 30
0.0
 11
-0.11415226193415959
 21
-0.48679488606117777
 31
0.0
 40
0.5699183645181043
 41
1.961141384823983
 42
3.141592653589793
  0
ELLIPSE
  5
83
330
17
100
AcDbEntity
  8
visible
100
AcDbEllipse
 10
26.78000000000003
 20
7.896377296654933
 30
0.0
 11
-0.11415226193415959
 21
-0.48679488606117777
 31
0.0
 40
0.5699183645181043
 41
3.141592653589793
 42
3.5319377116188795
  0
LINE
  5
84
330
17
100
AcDbEntity
  8
visible
100
AcDbLine
 10
18.68000000000003
 20
-21.38016843823428
 30
0.0
 11
27.080000000000034
 21
-17.878336707811066
 31
0.0
  0
LINE
  5
85
330
17
100
AcDbEntity
  8
visible
100
AcDbLine
 10
18.680000000000028
 20
4.519610985175401
 30
0.0
 11
18.68000000000003
 21
-21.38016843823427
 31
0.0
  0
LINE
  5
86
330
17
100
AcDbEntity
  8
visible
100
AcDbLine
 10
17.000000000000032
 20
-23.469157328682257
 30
0.0
 11
25.400000000000034
 21
-19.967325598259045
 31
0.0
  0
ELLIPSE
  5
87
330
17
100
AcDbEntity
  8
visible
100
AcDbEllipse
 10
9.800000000000027
 20
-12.870260577114124
 30
0.0
 11
5.00222940446733
 21
-11.999070838405881
 31
0.0
 40
0.7598911526908056
 41
-6.020279389676176
 42
-5.761631469626159
  0
ELLIPSE
  5
88
330
17
100
AcDbEntity
  8
visible
100
AcDbEllipse
 10
9.800000000000027
 20
-12.870260577114124
 30
0.0
 11
3.0782950181337414
 21
-7.384043592865158
 31
0.0
 40
0.7598911526908056
 41
-6.283185307179586
 42
-5.5985620152395885
  0
ELLIPSE
  5
89
330
17
100
AcDbEntity
  8
visible
100
AcDbEllipse
 10
9.800000000000027
 20
-12.870260577114124
 30
0.0
 11
3.0782950181337414
 21
-7.384043592865158
 31
0.0
 40
0.7598911526908056
 41
-0.44853992666999165
 42
-0.0
  0
LINE
  5
8A
330
17
100
AcDbEntity
  8
visible
100
AcDbLine
 10
15.732958789676562
 20
-17.111117355841866
 30
0.0
 11
16.20000000000003
 21
-16.916415007064963
 31
0.0
  0
LINE
  5
8B
330
17
100
AcDbEntity
  8
visible
100
AcDbLine
 10
15.732958789676559
 20
-17.11111735584187
 30
0.0
 11
16.200000000000028
 21
-17.22063742702888
 31
0.0
  0
LINE
  5
8C
330
17
100
AcDbEntity
  8
visible
100
AcDbLine
 10
16.20000000000003
 20
-14.371045604438352
 30
0.0
 11
16.20000000000003
 21
-17.220637427028873
 31
0.0
  0
LINE
  5
8D
330
17
100
AcDbEntity
  8
visible
100
AcDbLine
 10
17.000000000000032
 20
-23.469157328682243
 30
0.0
 11
17.000000000000032
 21
-22.917446412452737
 31
0.0
  0
ELLIPSE
  5
8E
330
17
100
AcDbEntity
  8
visible
100
AcDbEllipse
 10
-9.79999999999997
 20
-2.8024943521473915
 30
0.0
 11
-3.0782950181337414
 21
7.384043592865158
 31
0.0
 40
0.7598911526908056
 41
1.453416840931276
 42
1.8801278620493256
  0
ELLIPSE
  5
8F
330
17
100
AcDbEntity
  8
visible
100
AcDbEllipse
 10
-18.199999999999974
 20
-6.304326082570597
 30
0.0
 11
-3.0782950181337414
 21
7.384043592865158
 31
0.0
 40
0.7598911526908056
 41
1.453416840931276
 42
1.8801278620493256
  0
LINE
  5
90
330
17
100
AcDbEntity
  8
visible
100
AcDbLine
 10
-24.132958789676504
 20
-7.762652949023899
 30
0.0
 11
-15.732958789676504
 21
-4.260821218600688
 31
0.0
  0
LINE
  5
91
330
17
100
AcDbEntity
  8
visible
100
AcDbLine
 10
-24.59999999999997
 20
-7.6531328778368914
 30
0.0
 11
-16.199999999999967
 21
-4.151301147413683
 31
0.0
  0
LINE
  5
92
330
17
100
AcDbEntity
  8
visible
100
AcDbLine
 10
-15.7329587896765
 20
-4.260821218600703
 30
0.0
 11
-16.19999999999997
 21
-4.151301147413695
 31
0.0
  0
LINE
  5
93
330
17
100
AcDbEntity
  8
visible
100
AcDbLine
 10
-24.1329587896765
 20
-7.7626529490239085
 30
0.0
 11
-24.59999999999997
 21
-7.6531328778369
 31
0.0
  0
LINE
  5
94
330
17
100
AcDbEntity
  8
visible
100
AcDbLine
 10
-24.599999999999973
 20
-7.653132877836893
 30
0.0
 11
-24.599999999999973
 21
-4.803541055246373
 31
0.0
  0
LINE
  5
95
330
17
100
AcDbEntity
  8
visible
100
AcDbLine
 10
-16.199999999999974
 20
-4.151301147413688
 30
0.0
 11
-16.199999999999974
 21
-1.301709324823167
 31
0.0
  0
LINE
  5
96
330
17
100
AcDbEntity
  8
visible
100
AcDbLine
 10
-16.799999999999976
 20
-1.5518401627105276
 30
0.0
 11
-16.199999999999974
 21
-1.3017093248231553
 31
0.0
  0
LINE
  5
97
330
17
100
AcDbEntity
  8
visible
100
AcDbLine
 10
-16.799999999999972
 20
-1.5518401627105334
 30
0.0
 11
-16.799999999999972
 21
17.92037062499136
 31
0.0
  0
LINE
  5
98
330
17
100
AcDbEntity
  8
visible
100
AcDbLine
 10
-17.12738636560926
 20
17.783888248420105
 30
0.0
 11
-16.799999999999976
 21
17.92037062499136
 31
0.0
  0
ELLIPSE
  5
99
330
17
100
AcDbEntity
  8
visible
100
AcDbEllipse
 10
-20.399999999999974
 20
14.044925745508351
 30
0.0
 11
1.3698271432099163
 21
5.841538632734133
 31
0.0
 40
0.5699183645181043
 41
-0.7506758374612801
 42
-0.33238918978432785
  0
LINE
  5
9A
330
17
100
AcDbEntity
  8
visible
100
AcDbLine
 10
-17.639999999999972
 20
19.469915333676038
 30
0.0
 11
-18.018823820041842
 21
19.311989467811422
 31
0.0
  0
ELLIPSE
  5
9B
330
17
100
AcDbEntity
  8
visible
100
AcDbEllipse
 10
-17.639999999999972
 20
19.849860910021462
 30
0.0
 11
0.09132180954732767
 21
0.38943590884894225
 31
0.0
 40
0.5699183645181043
 41
-2.7512475955607067
 42
-1.1804512687658102
  0
LINE
  5
9C
330
17
100
AcDbEntity
  8
visible
100
AcDbLine
 10
-17.399999999999974
 20
19.94991324517641
 30
0.0
 11
-17.399999999999974
 21
25.839069678530155
 31
0.0
  0
ELLIPSE
  5
9D
330
17
100
AcDbEntity
  8
visible
100
AcDbEllipse
 10
-17.639999999999972
 20
25.739017343375195
 30
0.0
 11
0.09132180954732767
 21
0.38943590884894225
 31
0.0
 40
0.5699183645181043
 41
-6.283185307179586
 42
-5.8928402491505
  0
ELLIPSE
  5
9E
330
17
100
AcDbEntity
  8
visible
100
AcDbEllipse
 10
-17.639999999999972
 20
25.739017343375195
 30
0.0
 11
0.09132180954732767
 21
0.38943590884894225
 31
0.0
 40
0.5699183645181043
 41
-1.1804512687658102
 42
-0.0
  0
LINE
  5
9F
330
17
100
AcDbEntity
  8
visible
100
AcDbLine
 10
-17.639999999999972
 20
26.118962919720598
 30
0.0
 11
-23.159999999999975
 21
23.817759211156776
 31
0.0
  0
ELLIPSE
  5
A0
330
17
100
AcDbEntity
  8
visible
100
AcDbEllipse
 10
-23.159999999999975
 20
23.437813634811377
 30
0.0
 11
-0.09132180954732767
 21
-0.38943590884894225
 31
0.0
 40
0.5699183645181043
 41
3.5319377116188795
 42
5.102734038413776
  0
LINE
  5
A1
330
17
100
AcDbEntity
  8
visible
100
AcDbLine
 10
-23.399999999999974
 20
17.44860486630268
 30
0.0
 11
-23.399999999999974
 21
23.337761299656425
 31
0.0
  0
ELLIPSE
  5
A2
330
17
100
AcDbEntity
  8
visible
100
AcDbEllipse
 10
-23.159999999999975
 20
17.548657201457644
 30
0.0
 11
-0.09132180954732767
 21
-0.38943590884894225
 31
0.0
 40
0.5699183645181043
 41
5.102734038413776
 42
6.283185307179586
  0
ELLIPSE
  5
A3
330
17
100
AcDbEntity
  8
visible
100
AcDbEllipse
 10
-23.159999999999975
 20
17.548657201457644
 30
0.0
 11
-0.09132180954732767
 21
-0.38943590884894225
 31
0.0
 40
0.5699183645181043
 41
0.0
 42
0.39034505802908637
  0
LINE
  5
A4
330
17
100
AcDbEntity
  8
visible
100
AcDbLine
 10
-22.781176179958106
 20
17.32663749097683
 30
0.0
 11
-23.159999999999975
 21
17.168711625112216
 31
0.0
  0
ELLIPSE
  5
A5
330
17
100
AcDbEntity
  8
visible
100
AcDbEllipse
 10
-20.399999999999974
 20
14.044925745508351
 30
0.0
 11
1.3698271432099163
 21
5.841538632734133
 31
0.0
 40
0.5699183645181043
 41
-5.170106001337086
 42
-4.751819353660133
  0
LINE
  5
A6
330
17
100
AcDbEntity
  8
visible
100
AcDbLine
 10
-23.999999999999975
 20
14.918800570342896
 30
0.0
 11
-23.67261363439069
 21
15.055282946914149
 31
0.0
  0
LINE
  5
A7
330
17
100
AcDbEntity
  8
visible
100
AcDbLine
 10
-23.999999999999975
 20
14.918800570342896
 30
0.0
 11
-23.999999999999975
 21
-4.553410217358998
 31
0.0
  0
LINE
  5
A8
330
17
100
AcDbEntity
  8
visible
100
AcDbLine
 10
-24.599999999999973
 20
-4.803541055246367
 30
0.0
 11
-23.999999999999975
 21
-4.553410217358994
 31
0.0
  0
ELLIPSE
  5
A9
330
17
100
AcDbEntity
  8
visible
100
AcDbEllipse
 10
-20.399999999999974
 20
14.044925745508351
 30
0.0
 11
-0.605006988251045
 21
-2.580012896124242
 31
0.0
 40
0.5699183645181043
 41
0.39034505802908626
 42
3.141592653589793
  0
ELLIPSE
  5
AA
330
17
100
AcDbEntity
  8
visible
100
AcDbEllipse
 10
-20.399999999999974
 20
14.044925745508351
 30
0.0
 11
-0.605006988251045
 21
-2.580012896124242
 31
0.0
 40
0.5699183645181043
 41
3.141592653589793
 42
6.283185307179586
  0
ELLIPSE
  5
AB
330
17
100
AcDbEntity
  8
visible
100
AcDbEllipse
 10
-20.399999999999974
 20
14.044925745508351
 30
0.0
 11
-0.605006988251045
 21
-2.580012896124242
 31
0.0
 40
0.5699183645181043
 41
0.0
 42
0.39034505802908637
  0
ELLIPSE
  5
AC
330
17
100
AcDbEntity
  8
visible
100
AcDbEllipse
 10
-20.719999999999974
 20
14.119964996874572
 30
0.0
 11
-0.605006988251045
 21
-2.580012896124242
 31
0.0
 40
0.5699183645181043
 41
0.39034505802908626
 42
3.0325625950115374
  0
ELLIPSE
  5
AD
330
17
100
AcDbEntity
  8
visible
100
AcDbEllipse
 10
-20.719999999999974
 20
14.119964996874572
 30
0.0
 11
-0.605006988251045
 21
-2.580012896124242
 31
0.0
 40
0.5699183645181043
 41
0.10903005857822201
 42
0.39034505802908637
  0
LINE
  5
AE
330
17
100
AcDbEntity
  8
visible
100
AcDbLine
 10
-27.079999999999973
 20
-10.649555492866009
 30
0.0
 11
-27.079999999999977
 21
15.250223930543665
 31
0.0
  0
ELLIPSE
  5
AF
330
17
100
AcDbEntity
  8
visible
100
AcDbEllipse
 10
-26.779999999999973
 20
15.375289349487346
 30
0.0
 11
-0.11415226193415959
 21
-0.48679488606117777
 31
0.0
 40
0.5699183645181043
 41
3.5319377116188795
 42
5.102734038413776
  0
LINE
  5
B0
330
17
100
AcDbEntity
  8
visible
100
AcDbLine
 10
-25.997691453623954
 20
16.17635380690492
 30
0.0
 11
-26.779999999999973
 21
15.85022131991911
 31
0.0
  0
ELLIPSE
  5
B1
330
17
100
AcDbEntity
  8
visible
100
AcDbEllipse
 10
-22.879999999999974
 20
14.626479943596479
 30
0.0
 11
1.3698271432099163
 21
5.841538632734133
 31
0.0
 40
0.5699183645181043
 41
-5.235376692768856
 42
-4.845642697953904
  0
LINE
  5
B2
330
17
100
AcDbEntity
  8
visible
100
AcDbLine
 10
-21.55679626669958
 20
11.835765977211675
 30
0.0
 11
-20.38999999999998
 21
13.388645482732176
 31
0.0
  0
LINE
  5
B3
330
17
100
AcDbEntity
  8
visible
100
AcDbLine
 10
-20.389999999999972
 20
13.388645482732176
 30
0.0
 11
-20.389999999999972
 21
16.56618425237704
 31
0.0
  0
ELLIPSE
  5
B4
330
17
100
AcDbEntity
  8
visible
100
AcDbEllipse
 10
-17.599999999999973
 20
18.107968753406894
 30
0.0
 11
1.0
 21
-2.92205803605901e-17
 31
0.0
 40
0.31266354735921503
 41
5.639684198386302
 42
6.283185307179586
  0
LINE
  5
B5
330
17
100
AcDbEntity
  8
visible
100
AcDbLine
 10
-23.917691453623952
 20
15.688598673024543
 30
0.0
 11
-25.997691453623954
 21
16.17635380690492
 31
0.0
  0
ELLIPSE
  5
B6
330
17
100
AcDbEntity
  8
visible
100
AcDbEllipse
 10
-24.799999999999976
 20
15.106398698758426
 30
0.0
 11
1.0
 21
-2.9220580360590104e-17
 31
0.0
 40
0.31266354735921503
 41
4.068887871591405
 42
5.639684198386302
  0
LINE
  5
B7
330
17
100
AcDbEntity
  8
visible
100
AcDbLine
 10
-27.079999999999977
 20
15.250223930543664
 30
0.0
 11
-25.399999999999977
 21
14.856267860871053
 31
0.0
  0
LINE
  5
B8
330
17
100
AcDbEntity
  8
visible
100
AcDbLine
 10
-20.389999999999972
 20
13.388645482732185
 30
0.0
 11
-19.438023385577967
 21
13.165409193781036
 31
0.0
  0
LINE
  5
B9
330
17
100
AcDbEntity
  8
visible
100
AcDbLine
 10
-24.599999999999973
 20
-4.803541055246365
 30
0.0
 11
-25.399999999999974
 21
-4.615942926830836
 31
0.0
  0
ELLIPSE
  5
BA
330
17
100
AcDbEntity
  8
visible
100
AcDbEllipse
 10
-24.799999999999976
 20
-4.365812088943471
 30
0.0
 11
1.0
 21
-2.9220580360590104e-17
 31
0.0
 40
0.31266354735921503
 41
4.068887871591405
 42
5.639684198386302
  0
LINE
  5
BB
330
17
100
AcDbEntity
  8
visible
100
AcDbLine
 10
-25.399999999999977
 20
14.856267860871057
 30
0.0
 11
-25.399999999999977
 21
-4.6159429268308365
 31
0.0
  0
SPLINE
  5
BC
330
17
100
AcDbEntity
  8
visible
100
AcDbSpline
 70
0
 71
3
 72
11
 73
7
 74
0
 40
0.0
 40
0.0
 40
0.0
 40
0.0
 40
0.29246757156252934
 40
0.29246757156252934
 40
0.29246757156252934
 40
1.0
 40
1.0
 40
1.0
 40
1.0
 10
-23.67261363439069
 20
15.055282946914147
 30
0.0
 10
-23.65071357666777
 20
15.14123562447742
 30
0.0
 10
-23.643271398145128
 20
15.22567588003357
 30
0.0
 10
-23.65028709882271
 20
15.30860371358255
 30
0.0
 10
-23.666382567369766
 20
15.506469406210357
 30
0.0
 10
-23.770962835589977
 20
15.655826769398605
 30
0.0
 10
-23.91769145362395
 20
15.688598673024543
 30
0.0
  0
ELLIPSE
  5
BD
330
17
100
AcDbEntity
  8
visible
100
AcDbEllipse
 10
-17.599999999999973
 20
-1.3642420342950032
 30
0.0
 11
1.0
 21
-2.92205803605901e-17
 31
0.0
 40
0.31266354735921503
 41
5.639684198386302
 42
6.283185307179586
  0
LINE
  5
BE
330
17
100
AcDbEntity
  8
visible
100
AcDbLine
 10
-16.19999999999997
 20
-1.3017093248231593
 30
0.0
 11
-16.599999999999973
 21
-1.2079102606153944
 31
0.0
  0
ELLIPSE
  5
BF
330
17
100
AcDbEntity
  8
visible
100
AcDbEllipse
 10
16.360000000000028
 20
-22.76736790972032
 30
0.0
 11
-0.3078295018133739
 21
0.738404359286516
 31
0.0
 40
0.7598911526908056
 41
4.21061272002543
 42
5.781409046820326
  0
ELLIPSE
  5
C0
330
17
100
AcDbEntity
  8
visible
100
AcDbEllipse
 10
-18.199999999999974
 20
-6.304326082570597
 30
0.0
 11
-5.00222940446733
 21
11.999070838405881
 31
0.0
 40
0.7598911526908056
 41
1.6164862953178463
 42
1.7592463602579569
  0
ELLIPSE
  5
C1
330
17
100
AcDbEntity
  8
visible
100
AcDbEllipse
 10
26.70000000000003
 20
-12.142823105238378
 30
0.0
 11
-2.0
 21
5.84411607211802e-17
 31
0.0
 40
0.31266354735921503
 41
-3.785093762383078
 42
-3.1415926535897936
  0
ELLIPSE
  5
C2
330
17
100
AcDbEntity
  8
visible
100
AcDbEllipse
 10
27.660000000000032
 20
-12.367940859337011
 30
0.0
 11
0.3078295018133739
 21
-0.738404359286516
 31
0.0
 40
0.7598911526908056
 41
-6.283185307179586
 42
-5.214165240743949
  0
LINE
  5
C3
330
17
100
AcDbEntity
  8
visible
100
AcDbLine
 10
28.300000000000033
 20
-12.518019362069417
 30
0.0
 11
28.300000000000033
 21
-9.288481963133492
 31
0.0
  0
ELLIPSE
  5
C4
330
17
100
AcDbEntity
  8
visible
100
AcDbEllipse
 10
26.70000000000003
 20
-8.913285706302446
 30
0.0
 11
-2.0
 21
5.84411607211802e-17
 31
0.0
 40
0.31266354735921503
 41
-3.785093762383078
 42
-3.141592653589793
  0
ELLIPSE
  5
C5
330
17
100
AcDbEntity
  8
visible
100
AcDbEllipse
 10
1.0200000000000298
 20
-2.42239046312514
 30
0.0
 11
-0.18264361909465535
 21
-0.7788718176978845
 31
0.0
 40
0.5699183645181043
 41
3.141592653589793
 42
3.5319377116188795
  0
ELLIPSE
  5
C6
330
17
100
AcDbEntity
  8
visible
100
AcDbEllipse
 10
27.42000000000003
 20
-8.613128700837592
 30
0.0
 11
-0.18264361909465535
 21
-0.7788718176978845
 31
0.0
 40
0.5699183645181043
 41
3.141592653589793
 42
3.5319377116188795
  0
ELLIPSE
  5
C7
330
17
100
AcDbEntity
  8
visible
100
AcDbEllipse
 10
27.660000000000032
 20
-9.13840346040108
 30
0.0
 11
-0.3078295018133739
 21
0.738404359286516
 31
0.0
 40
0.7598911526908056
 41
4.210612720025431
 42
5.781409046820327
  0
LINE
  5
C8
330
17
100
AcDbEntity
  8
visible
100
AcDbLine
 10
28.300000000000033
 20
-9.288481963133492
 30
0.0
 11
27.080000000000034
 21
-9.797081333504481
 31
0.0
  0
LINE
  5
C9
330
17
100
AcDbEntity
  8
visible
100
AcDbLine
 10
16.60000000000003
 20
-14.166033301937247
 30
0.0
 11
1.3000000000000256
 21
-20.544369668065233
 31
0.0
  0
ELLIPSE
  5
CA
330
17
100
AcDbEntity
  8
visible
100
AcDbEllipse
 10
0.6600000000000268
 20
-20.394291165332817
 30
0.0
 11
-0.3078295018133739
 21
0.738404359286516
 31
0.0
 40
0.7598911526908056
 41
4.21061272002543
 42
5.781409046820326
  0
ELLIPSE
  5
CB
330
17
100
AcDbEntity
  8
visible
100
AcDbEllipse
 10
-0.2999999999999723
 20
-20.169173411234183
 30
0.0
 11
-2.0
 21
5.84411607211802e-17
 31
0.0
 40
0.31266354735921503
 41
-5.355890089177974
 42
-3.7850937623830774
  0
ELLIPSE
  5
CC
330
17
100
AcDbEntity
  8
visible
100
AcDbEllipse
 10
-1.019999999999973
 20
-20.469330416699023
 30
0.0
 11
0.18264361909465535
 21
0.7788718176978845
 31
0.0
 40
0.5699183645181043
 41
-5.8928402491505
 42
-4.322043922355603
  0
LINE
  5
CD
330
17
100
AcDbEntity
  8
visible
100
AcDbLine
 10
1.3000000000000274
 20
-23.77390706700117
 30
0.0
 11
1.3000000000000274
 21
-20.544369668065244
 31
0.0
  0
ELLIPSE
  5
CE
330
17
100
AcDbEntity
  8
visible
100
AcDbEllipse
 10
-0.2999999999999723
 20
-23.398710810170115
 30
0.0
 11
-2.0
 21
5.84411607211802e-17
 31
0.0
 40
0.31266354735921503
 41
-5.355890089177974
 42
-3.7850937623830774
  0
LINE
  5
CF
330
17
100
AcDbEntity
  8
visible
100
AcDbLine
 10
-1.4999999999999734
 20
-23.898972485944846
 30
0.0
 11
-1.4999999999999734
 21
-20.66943508700892
 31
0.0
  0
LINE
  5
D0
330
17
100
AcDbEntity
  8
visible
100
AcDbLine
 10
-27.899999999999977
 20
-17.708234248232394
 30
0.0
 11
-27.899999999999977
 21
-14.478696849296469
 31
0.0
  0
LINE
  5
D1
330
17
100
AcDbEntity
  8
visible
100
AcDbLine
 10
-1.4999999999999734
 20
-23.898972485944853
 30
0.0
 11
-27.899999999999977
 21
-17.708234248232394
 31
0.0
  0
LINE
  5
D2
330
17
100
AcDbEntity
  8
visible
100
AcDbLine
 10
-1.4999999999999734
 20
-20.66943508700892
 30
0.0
 11
-27.899999999999977
 21
-14.478696849296464
 31
0.0
  0
ELLIPSE
  5
D3
330
17
100
AcDbEntity
  8
visible
100
AcDbEllipse
 10
-26.699999999999974
 20
-17.20797257245765
 30
0.0
 11
-2.0
 21
5.84411607211802e-17
 31
0.0
 40
0.31266354735921503
 41
-6.283185307179586
 42
-5.355890089177974
  0
ELLIPSE
  5
D4
330
17
100
AcDbEntity
  8
visible
100
AcDbEllipse
 10
-26.699999999999974
 20
-13.978435173521717
 30
0.0
 11
-2.0
 21
5.84411607211802e-17
 31
0.0
 40
0.31266354735921503
 41
-6.283185307179586
 42
-5.355890089177974
  0
ELLIPSE
  5
D5
330
17
100
AcDbEntity
  8
visible
100
AcDbEllipse
 10
-27.419999999999973
 20
-14.278592178986571
 30
0.0
 11
0.18264361909465535
 21
0.7788718176978845
 31
0.0
 40
0.5699183645181043
 41
-5.8928402491505
 42
-4.322043922355603
  0
LINE
  5
D6
330
17
100
AcDbEntity
  8
visible
100
AcDbLine
 10
28.300000000000033
 20
-12.518019362069424
 30
0.0
 11
27.080000000000034
 21
-13.026618732440413
 31
0.0
  0
LINE
  5
D7
330
17
100
AcDbEntity
  8
visible
100
AcDbLine
 10
15.37725453726863
 20
-17.905314612733157
 30
0.0
 11
1.3000000000000256
 21
-23.773907067001165
 31
0.0
  0
ELLIPSE
  5
D8
330
17
100
AcDbEntity
  8
visible
100
AcDbEllipse
 10
33.50000000000003
 20
-17.705068032689866
 30
0.0
 11
-3.0
 21
8.76617410817703e-17
 31
0.0
 40
0.31266354735921503
 41
-3.785093762383078
 42
-3.141592653589793
  0
ELLIPSE
  5
D9
330
17
100
AcDbEntity
  8
visible
100
AcDbEllipse
 10
35.26000000000003
 20
-18.11778391520403
 30
0.0
 11
0.3078295018133739
 21
-0.738404359286516
 31
0.0
 40
0.7598911526908056
 41
-6.283185307179586
 42
-5.214165240743949
  0
LINE
  5
DA
330
17
100
AcDbEntity
  8
visible
100
AcDbLine
 10
35.900000000000034
 20
-18.26786241793645
 30
0.0
 11
35.900000000000034
 21
-15.038325019000524
 31
0.0
  0
ELLIPSE
  5
DB
330
17
100
AcDbEntity
  8
visible
100
AcDbEllipse
 10
33.50000000000003
 20
-14.475530633753948
 30
0.0
 11
-3.0
 21
8.76617410817703e-17
 31
0.0
 40
0.31266354735921503
 41
-3.785093762383078
 42
-3.141592653589793
  0
ELLIPSE
  5
DC
330
17
100
AcDbEntity
  8
visible
100
AcDbEllipse
 10
34.820000000000036
 20
-13.925242790401725
 30
0.0
 11
-0.18264361909465535
 21
-0.7788718176978845
 31
0.0
 40
0.5699183645181043
 41
3.141592653589793
 42
3.5319377116188795
  0
ELLIPSE
  5
DD
330
17
100
AcDbEntity
  8
visible
100
AcDbEllipse
 10
35.26000000000003
 20
-14.888246516268111
 30
0.0
 11
-0.3078295018133739
 21
0.738404359286516
 31
0.0
 40
0.7598911526908056
 41
4.210612720025431
 42
5.781409046820327
  0
LINE
  5
DE
330
17
100
AcDbEntity
  8
visible
100
AcDbLine
 10
35.900000000000034
 20
-15.038325019000524
 30
0.0
 11
26.266189887381408
 21
-19.054513344862414
 31
0.0
  0
LINE
  5
DF
330
17
100
AcDbEntity
  8
visible
100
AcDbLine
 10
25.69217235245432
 20
8.626402305484492
 30
0.0
 11
26.78000000000003
 21
8.371309267086687
 31
0.0
  0
ELLIPSE
  5
E0
330
17
100
AcDbEntity
  8
visible
100
AcDbEllipse
 10
24.28000000000003
 20
9.863387207368135
 30
0.0
 11
-0.8
 21
2.337646428847208e-17
 31
0.0
 40
0.31266354735921503
 41
-3.785093762383078
 42
-3.1415926535897936
  0
ELLIPSE
  5
E1
330
17
100
AcDbEntity
  8
visible
100
AcDbEllipse
 10
24.60000000000003
 20
9.788347956001928
 30
0.0
 11
0.15391475090668694
 21
-0.369202179643258
 31
0.0
 40
0.7598911526908056
 41
-6.283185307179586
 42
-5.214165240743949
  0
LINE
  5
E2
330
17
100
AcDbEntity
  8
visible
100
AcDbLine
 10
24.92000000000003
 20
9.71330870463569
 30
0.0
 11
24.92000000000003
 21
15.602465137989434
 31
0.0
  0
ELLIPSE
  5
E3
330
17
100
AcDbEntity
  8
visible
100
AcDbEllipse
 10
24.28000000000003
 20
15.752543640721868
 30
0.0
 11
-0.8
 21
2.337646428847208e-17
 31
0.0
 40
0.31266354735921503
 41
-3.785093762383078
 42
-3.141592653589793
  0
ELLIPSE
  5
E4
330
17
100
AcDbEntity
  8
visible
100
AcDbEllipse
 10
24.52000000000003
 20
15.852595975876824
 30
0.0
 11
-0.09132180954732767
 21
-0.38943590884894225
 31
0.0
 40
0.5699183645181043
 41
3.141592653589793
 42
3.5319377116188795
  0
LINE
  5
E5
330
17
100
AcDbEntity
  8
visible
100
AcDbLine
 10
23.160000000000032
 20
16.551458370528625
 30
0.0
 11
24.520000000000035
 21
16.232541552222226
 31
0.0
  0
ELLIPSE
  5
E6
330
17
100
AcDbEntity
  8
visible
100
AcDbEllipse
 10
24.28000000000003
 20
16.132489217067274
 30
0.0
 11
-0.4
 21
1.168823214423604e-17
 31
0.0
 40
0.31266354735921503
 41
-3.785093762383078
 42
-2.2142974355881813
  0
LINE
  5
E7
330
17
100
AcDbEntity
  8
visible
100
AcDbLine
 10
24.60000000000003
 20
16.057449965701068
 30
0.0
 11
24.30000000000003
 21
15.932384546757381
 31
0.0
  0
LINE
  5
E8
330
17
100
AcDbEntity
  8
visible
100
AcDbLine
 10
19.860000000000028
 20
14.081416346390828
 30
0.0
 11
19.56000000000003
 21
13.956350927447144
 31
0.0
  0
ELLIPSE
  5
E9
330
17
100
AcDbEntity
  8
visible
100
AcDbEllipse
 10
19.24000000000003
 20
14.031390178813353
 30
0.0
 11
-0.4
 21
1.168823214423604e-17
 31
0.0
 40
0.31266354735921503
 41
-5.355890089177974
 42
-3.7850937623830774
  0
LINE
  5
EA
330
17
100
AcDbEntity
  8
visible
100
AcDbLine
 10
19.00000000000003
 20
13.931337843658397
 30
0.0
 11
17.64000000000003
 21
14.250254661964796
 31
0.0
  0
LINE
  5
EB
330
17
100
AcDbEntity
  8
visible
100
AcDbLine
 10
18.76000000000003
 20
13.45133993215805
 30
0.0
 11
17.40000000000003
 21
13.770256750464448
 31
0.0
  0
ELLIPSE
  5
EC
330
17
100
AcDbEntity
  8
visible
100
AcDbEllipse
 10
19.00000000000003
 20
13.551392267312991
 30
0.0
 11
0.09132180954732767
 21
0.38943590884894225
 31
0.0
 40
0.5699183645181043
 41
-5.8928402491505
 42
-4.322043922355603
  0
LINE
  5
ED
330
17
100
AcDbEntity
  8
visible
100
AcDbLine
 10
18.76000000000003
 20
7.562183498804316
 30
0.0
 11
17.40000000000003
 21
7.8811003171107155
 31
0.0
  0
LINE
  5
EE
330
17
100
AcDbEntity
  8
visible
100
AcDbLine
 10
18.76000000000003
 20
7.562183498804298
 30
0.0
 11
18.76000000000003
 21
13.451339932158042
 31
0.0
  0
LINE
  5
EF
330
17
100
AcDbEntity
  8
visible
100
AcDbLine
 10
19.88000000000003
 20
7.612209666381769
 30
0.0
 11
19.88000000000003
 21
13.501366099735513
 31
0.0
  0
ELLIPSE
  5
F0
330
17
100
AcDbEntity
  8
visible
100
AcDbEllipse
 10
19.24000000000003
 20
7.762288169114214
 30
0.0
 11
-0.8
 21
2.337646428847208e-17
 31
0.0
 40
0.31266354735921503
 41
-5.355890089177974
 42
-3.7850937623830774
  0
ELLIPSE
  5
F1
330
17
100
AcDbEntity
  8
visible
100
AcDbEllipse
 10
19.24000000000003
 20
13.651444602467947
 30
0.0
 11
-0.8
 21
2.337646428847208e-17
 31
0.0
 40
0.31266354735921503
 41
-5.355890089177974
 42
-3.7850937623830774
  0
ELLIPSE
  5
F2
330
17
100
AcDbEntity
  8
visible
100
AcDbEllipse
 10
19.56000000000003
 20
7.6872489177479935
 30
0.0
 11
0.15391475090668694
 21
-0.369202179643258
 31
0.0
 40
0.7598911526908056
 41
-6.283185307179586
 42
-5.21416524074395
  0
ELLIPSE
  5
F3
330
17
100
AcDbEntity
  8
visible
100
AcDbEllipse
 10
19.00000000000003
 20
7.662235833959258
 30
0.0
 11
-0.09132180954732767
 21
-0.38943590884894225
 31
0.0
 40
0.5699183645181043
 41
5.102734038413776
 42
6.283185307179586
  0
LINE
  5
F4
330
17
100
AcDbEntity
  8
visible
100
AcDbLine
 10
17.200000000000028
 20
5.732428927374912
 30
0.0
 11
17.68230854637605
 21
5.933495995417036
 31
0.0
  0
ELLIPSE
  5
F5
330
17
100
AcDbEntity
  8
visible
100
AcDbEllipse
 10
17.200000000000028
 20
5.257496956943157
 30
0.0
 11
0.19239343863335867
 21
-0.4615027245540725
 31
0.0
 40
0.7598911526908056
 41
-3.643368913949053
 42
-3.1415926535897936
  0
ELLIPSE
  5
F6
330
17
100
AcDbEntity
  8
visible
100
AcDbEllipse
 10
17.300000000000033
 20
5.038632473791708
 30
0.0
 11
0.11415226193415959
 21
0.48679488606117777
 31
0.0
 40
0.5699183645181043
 41
-5.8928402491505
 42
-4.322043922355603
  0
ELLIPSE
  5
F7
330
17
100
AcDbEntity
  8
visible
100
AcDbEllipse
 10
17.60000000000003
 20
5.638629863167139
 30
0.0
 11
-0.5
 21
-0.0
 31
0.0
 40
0.312663547359215
 41
-6.9266864159728705
 42
-5.355890089177974
  0
LINE
  5
F8
330
17
100
AcDbEntity
  8
visible
100
AcDbLine
 10
18.980000000000032
 20
5.119608374550841
 30
0.0
 11
17.300000000000033
 21
5.513564444223452
 31
0.0
  0
LINE
  5
F9
330
17
100
AcDbEntity
  8
visible
100
AcDbLine
 10
20.180000000000028
 20
7.737275085325469
 30
0.0
 11
19.88000000000003
 21
7.6122096663817835
 31
0.0
  0
LINE
  5
FA
330
17
100
AcDbEntity
  8
visible
100
AcDbLine
 10
20.180000000000028
 20
13.626431518679201
 30
0.0
 11
19.88000000000003
 21
13.501366099735517
 31
0.0
  0
ELLIPSE
  5
FB
330
17
100
AcDbEntity
  8
visible
100
AcDbEllipse
 10
19.56000000000003
 20
13.576405351101727
 30
0.0
 11
-0.15391475090668694
 21
0.369202179643258
 31
0.0
 40
0.7598911526908056
 41
4.21061272002543
 42
5.781409046820326
  0
LINE
  5
FC
330
17
100
AcDbEntity
  8
visible
100
AcDbLine
 10
24.92000000000003
 20
15.60246513798944
 30
0.0
 11
24.62000000000003
 21
15.477399719045755
 31
0.0
  0
ELLIPSE
  5
FD
330
17
100
AcDbEntity
  8
visible
100
AcDbEllipse
 10
24.60000000000003
 20
15.677504389355661
 30
0.0
 11
-0.15391475090668694
 21
0.369202179643258
 31
0.0
 40
0.7598911526908056
 41
4.210612720025431
 42
5.781409046820327
  0
LINE
  5
FE
330
17
100
AcDbEntity
  8
visible
100
AcDbLine
 10
24.92000000000003
 20
9.713308704635708
 30
0.0
 11
24.62000000000003
 21
9.588243285692021
 31
0.0
  0
LINE
  5
FF
330
17
100
AcDbEntity
  8
visible
100
AcDbLine
 10
6.500000000000028
 20
-30.524273474417683
 30
0.0
 11
6.500000000000028
 21
-27.294736075481758
 31
0.0
  0
LINE
  5
100
330
17
100
AcDbEntity
  8
visible
100
AcDbLine
 10
17.000000000000032
 20
-22.917446412452744
 30
0.0
 11
6.500000000000032
 21
-27.29473607548175
 31
0.0
  0
LINE
  5
101
330
17
100
AcDbEntity
  8
visible
100
AcDbLine
 10
35.900000000000034
 20
-18.267862417936442
 30
0.0
 11
6.500000000000032
 21
-30.52427347441767
 31
0.0
  0
ELLIPSE
  5
102
330
17
100
AcDbEntity
  8
visible
100
AcDbEllipse
 10
4.100000000000026
 20
-29.961479089171092
 30
0.0
 11
-3.0
 21
8.76617410817703e-17
 31
0.0
 40
0.31266354735921503
 41
-5.355890089177974
 42
-3.7850937623830774
  0
ELLIPSE
  5
103
330
17
100
AcDbEntity
  8
visible
100
AcDbEllipse
 10
4.100000000000026
 20
-26.731941690235175
 30
0.0
 11
-3.0
 21
8.76617410817703e-17
 31
0.0
 40
0.31266354735921503
 41
-5.355890089177974
 42
-3.7850937623830774
  0
LINE
  5
104
330
17
100
AcDbEntity
  8
visible
100
AcDbLine
 10
2.3000000000000256
 20
-30.711871602833213
 30
0.0
 11
2.3000000000000256
 21
-27.482334203897288
 31
0.0
  0
LINE
  5
105
330
17
100
AcDbEntity
  8
visible
100
AcDbLine
 10
-35.299999999999976
 20
-21.894759567303346
 30
0.0
 11
-35.299999999999976
 21
-18.66522216836742
 31
0.0
  0
LINE
  5
106
330
17
100
AcDbEntity
  8
visible
100
AcDbLine
 10
2.3000000000000256
 20
-30.711871602833206
 30
0.0
 11
-35.299999999999976
 21
-21.89475956730334
 31
0.0
  0
LINE
  5
107
330
17
100
AcDbEntity
  8
visible
100
AcDbLine
 10
2.3000000000000256
 20
-27.482334203897288
 30
0.0
 11
-35.299999999999976
 21
-18.66522216836742
 31
0.0
  0
ELLIPSE
  5
108
330
17
100
AcDbEntity
  8
visible
100
AcDbEllipse
 10
5.860000000000028
 20
-30.374194971685256
 30
0.0
 11
0.3078295018133739
 21
-0.738404359286516
 31
0.0
 40
0.7598911526908056
 41
-6.283185307179586
 42
-5.21416524074395
  0
ELLIPSE
  5
109
330
17
100
AcDbEntity
  8
visible
100
AcDbEllipse
 10
2.780000000000026
 20
-30.511766932523308
 30
0.0
 11
-0.18264361909465535
 21
-0.7788718176978845
 31
0.0
 40
0.5699183645181043
 41
5.102734038413776
 42
6.283185307179586
  0
ELLIPSE
  5
10A
330
17
100
AcDbEntity
  8
visible
100
AcDbEllipse
 10
-34.81999999999998
 20
-21.69465489699344
 30
0.0
 11
-0.18264361909465535
 21
-0.7788718176978845
 31
0.0
 40
0.5699183645181043
 41
5.102734038413776
 42
6.283185307179586
  0
ELLIPSE
  5
10B
330
17
100
AcDbEntity
  8
visible
100
AcDbEllipse
 10
-33.49999999999997
 20
-21.14436705364122
 30
0.0
 11
-3.0
 21
8.76617410817703e-17
 31
0.0
 40
0.31266354735921503
 41
-6.283185307179586
 42
-5.355890089177974
  0
LINE
  5
10C
330
17
100
AcDbEntity
  8
visible
100
AcDbLine
 10
-17.299999999999976
 20
18.707966142782325
 30
0.0
 11
-17.587827647545694
 21
18.7754610527646
 31
0.0
  0
ELLIPSE
  5
10D
330
17
100
AcDbEntity
  8
visible
100
AcDbEllipse
 10
-17.299999999999976
 20
18.23303417235057
 30
0.0
 11
-0.11415226193415959
 21
-0.48679488606117777
 31
0.0
 40
0.5699183645181043
 41
3.141592653589793
 42
3.5319377116188795
  0
ELLIPSE
  5
10E
330
17
100
AcDbEntity
  8
visible
100
AcDbEllipse
 10
-17.19999999999997
 20
18.01416968919912
 30
0.0
 11
-0.19239343863335867
 21
0.4615027245540725
 31
0.0
 40
0.7598911526908056
 41
4.21061272002543
 42
5.781409046820326
  0
ELLIPSE
  5
10F
330
17
100
AcDbEntity
  8
visible
100
AcDbEllipse
 10
-17.599999999999973
 20
18.582900723838648
 30
0.0
 11
0.5
 21
-1.461029018029505e-17
 31
0.0
 40
0.31266354735921503
 41
5.639684198386302
 42
7.2104805251811985
  0
LINE
  5
110
330
17
100
AcDbEntity
  8
visible
100
AcDbLine
 10
-17.383311032595245
 20
18.412682089335796
 30
0.0
 11
-17.199999999999974
 21
18.489101659630887
 31
0.0
  0
LINE
  5
111
330
17
100
AcDbEntity
  8
visible
100
AcDbLine
 10
-24.399999999999974
 20
15.487531604982422
 30
0.0
 11
-23.917691453623952
 21
15.688598673024547
 31
0.0
  0
LINE
  5
112
330
17
100
AcDbEntity
  8
visible
100
AcDbLine
 10
-26.779999999999973
 20
15.85022131991911
 30
0.0
 11
-25.099999999999973
 21
15.4562652502465
 31
0.0
  0
ELLIPSE
  5
113
330
17
100
AcDbEntity
  8
visible
100
AcDbEllipse
 10
-24.799999999999976
 20
15.58133066919018
 30
0.0
 11
0.5
 21
-1.4610290180295052e-17
 31
0.0
 40
0.31266354735921503
 41
4.068887871591405
 42
5.639684198386302
  0
ELLIPSE
  5
114
330
17
100
AcDbEntity
  8
visible
100
AcDbEllipse
 10
-25.099999999999973
 20
14.981333279814734
 30
0.0
 11
0.11415226193415959
 21
0.48679488606117777
 31
0.0
 40
0.5699183645181043
 41
-5.8928402491505
 42
-4.322043922355603
  0
ELLIPSE
  5
115
330
17
100
AcDbEntity
  8
visible
100
AcDbEllipse
 10
-24.399999999999974
 20
15.012599634550668
 30
0.0
 11
-0.19239343863335867
 21
0.4615027245540725
 31
0.0
 40
0.7598911526908056
 41
4.21061272002543
 42
5.781409046820326
  0
ELLIPSE
  5
116
330
17
100
AcDbEntity
  8
visible
100
AcDbEllipse
 10
-24.279999999999976
 20
17.96762635491899
 30
0.0
 11
0.8
 21
-2.337646428847208e-17
 31
0.0
 40
0.31266354735921503
 41
3.141592653589793
 42
4.068887871591405
  0
ELLIPSE
  5
117
330
17
100
AcDbEntity
  8
visible
100
AcDbEllipse
 10
-24.51999999999998
 20
17.867574019764035
 30
0.0
 11
-0.09132180954732767
 21
-0.38943590884894225
 31
0.0
 40
0.5699183645181043
 41
5.102734038413776
 42
6.283185307179586
  0
ELLIPSE
  5
118
330
17
100
AcDbEntity
  8
visible
100
AcDbEllipse
 10
-24.279999999999976
 20
23.856782788272724
 30
0.0
 11
0.8
 21
-2.337646428847208e-17
 31
0.0
 40
0.31266354735921503
 41
3.141592653589793
 42
4.068887871591405
  0
LINE
  5
119
330
17
100
AcDbEntity
  8
visible
100
AcDbLine
 10
-24.759999999999977
 20
17.767521684609076
 30
0.0
 11
-24.759999999999977
 21
23.65667811796282
 31
0.0
  0
ELLIPSE
  5
11A
330
17
100
AcDbEntity
  8
visible
100
AcDbEllipse
 10
-24.599999999999973
 20
23.93182203963893
 30
0.0
 11
0.15391475090668694
 21
-0.369202179643258
 31
0.0
 40
0.7598911526908056
 41
-3.643368913949053
 42
-3.1415926535897936
  0
ELLIPSE
  5
11B
330
17
100
AcDbEntity
  8
visible
100
AcDbEllipse
 10
-24.279999999999976
 20
24.23672836461813
 30
0.0
 11
0.4
 21
-1.168823214423604e-17
 31
0.0
 40
0.31266354735921503
 41
2.498091544796509
 42
4.068887871591405
  0
ELLIPSE
  5
11C
330
17
100
AcDbEntity
  8
visible
100
AcDbEllipse
 10
-24.51999999999998
 20
23.75673045311777
 30
0.0
 11
0.09132180954732767
 21
0.38943590884894225
 31
0.0
 40
0.5699183645181043
 41
-5.8928402491505
 42
-4.322043922355603
  0
ELLIPSE
  5
11D
330
17
100
AcDbEntity
  8
visible
100
AcDbEllipse
 10
-19.559999999999974
 20
26.032921077892865
 30
0.0
 11
0.15391475090668694
 21
-0.369202179643258
 31
0.0
 40
0.7598911526908056
 41
-3.643368913949053
 42
-3.1415926535897936
  0
LINE
  5
11E
330
17
100
AcDbEntity
  8
visible
100
AcDbLine
 10
-19.559999999999974
 20
26.41286665423827
 30
0.0
 11
-24.599999999999973
 21
24.311767615984348
 31
0.0
  0
ELLIPSE
  5
11F
330
17
100
AcDbEntity
  8
visible
100
AcDbEllipse
 10
-18.999999999999975
 20
26.0579341616816
 30
0.0
 11
-0.09132180954732767
 21
-0.38943590884894225
 31
0.0
 40
0.5699183645181043
 41
3.141592653589793
 42
3.5319377116188795
  0
ELLIPSE
  5
120
330
17
100
AcDbEntity
  8
visible
100
AcDbEllipse
 10
-19.239999999999977
 20
26.33782740287205
 30
0.0
 11
0.4
 21
-1.168823214423604e-17
 31
0.0
 40
0.31266354735921503
 41
0.9272952180016121
 42
2.498091544796509
  0
LINE
  5
121
330
17
100
AcDbEntity
  8
visible
100
AcDbLine
 10
-24.759999999999977
 20
17.767521684609093
 30
0.0
 11
-23.399999999999974
 21
17.448604866302695
 31
0.0
  0
LINE
  5
122
330
17
100
AcDbEntity
  8
visible
100
AcDbLine
 10
-24.759999999999977
 20
23.656678117962826
 30
0.0
 11
-23.399999999999974
 21
23.337761299656428
 31
0.0
  0
LINE
  5
123
330
17
100
AcDbEntity
  8
visible
100
AcDbLine
 10
-24.51999999999998
 20
24.13667602946319
 30
0.0
 11
-23.159999999999975
 21
23.81775921115679
 31
0.0
  0
LINE
  5
124
330
17
100
AcDbEntity
  8
visible
100
AcDbLine
 10
-17.639999999999972
 20
26.118962919720598
 30
0.0
 11
-18.99999999999997
 21
26.437879738026997
 31
0.0
  0
ELLIPSE
  5
125
330
17
100
AcDbEntity
  8
visible
100
AcDbEllipse
 10
-27.419999999999973
 20
-17.508129577922503
 30
0.0
 11
-0.18264361909465535
 21
-0.7788718176978845
 31
0.0
 40
0.5699183645181043
 41
5.102734038413776
 42
6.283185307179586
  0
ELLIPSE
  5
126
330
17
100
AcDbEntity
  8
visible
100
AcDbEllipse
 10
-1.019999999999973
 20
-23.698867815634955
 30
0.0
 11
-0.18264361909465535
 21
-0.7788718176978845
 31
0.0
 40
0.5699183645181043
 41
5.102734038413776
 42
6.283185307179586
  0
ELLIPSE
  5
127
330
17
100
AcDbEntity
  8
visible
100
AcDbEllipse
 10
0.6600000000000268
 20
-23.62382856426875
 30
0.0
 11
0.3078295018133739
 21
-0.738404359286516
 31
0.0
 40
0.7598911526908056
 41
-6.283185307179586
 42
-5.21416524074395
  0
ELLIPSE
  5
128
330
17
100
AcDbEntity
  8
visible
100
AcDbEllipse
 10
5.860000000000028
 20
-27.144657572749338
 30
0.0
 11
-0.3078295018133739
 21
0.738404359286516
 31
0.0
 40
0.7598911526908056
 41
4.21061272002543
 42
5.781409046820326
  0
ELLIPSE
  5
129
330
17
100
AcDbEntity
  8
visible
100
AcDbEllipse
 10
2.780000000000026
 20
-27.28222953358739
 30
0.0
 11
0.18264361909465535
 21
0.7788718176978845
 31
0.0
 40
0.5699183645181043
 41
-5.8928402491505
 42
-4.322043922355603
  0
ELLIPSE
  5
12A
330
17
100
AcDbEntity
  8
visible
100
AcDbEllipse
 10
-34.81999999999998
 20
-18.465117498057523
 30
0.0
 11
0.18264361909465535
 21
0.7788718176978845
 31
0.0
 40
0.5699183645181043
 41
-5.8928402491505
 42
-4.322043922355603
  0
ELLIPSE
  5
12B
330
17
100
AcDbEntity
  8
visible
100
AcDbEllipse
 10
-33.49999999999997
 20
-17.9148296547053
 30
0.0
 11
-3.0
 21
8.76617410817703e-17
 31
0.0
 40
0.31266354735921503
 41
-6.283185307179586
 42
-5.355890089177974
  0
LINE
  5
12C
330
17
100
AcDbEntity
  8
visible
100
AcDbLine
 10
-35.56782950181335
 20
-16.763709412904618
 30
0.0
 11
-28.696571138461277
 21
-13.899186726628173
 31
0.0
  0
SPLINE
  5
12D
330
17
100
AcDbEntity
  8
visible
100
AcDbSpline
 70
0
 71
3
 72
14
 73
10
 74
0
 40
0.0
 40
0.0
 40
0.0
 40
0.0
 40
0.3333333333333333
 40
0.3333333333333333
 40
0.3333333333333333
 40
0.6666666666666666
 40
0.6666666666666666
 40
0.6666666666666666
 40
1.0
 40
1.0
 40
1.0
 40
1.0
 10
28.70000000000003
 20
-12.142823105238378
 30
0.0
 10
28.700396482813662
 20
-12.324738378947435
 30
0.0
 10
28.644524623014348
 20
-12.50584099555349
 30
0.0
 10
28.543528338811328
 20
-12.658409382842763
 30
0.0
 10
28.486223633602886
 20
-12.744684021781158
 30
0.0
 10
28.417524027678073
 20
-12.821124757482728
 30
0.0
 10
28.337429521036853
 20
-12.88773158994745
 30
0.0
 10
28.227236916330266
 20
-12.978073971492359
 30
0.0
 10
28.104036909922485
 20
-13.050945181051071
 30
0.0
 10
27.967829501813405
 20
-13.106345218623517
 30
0.0
  0
LINE
  5
12E
330
17
100
AcDbEntity
  8
visible
100
AcDbLine
 10
28.70000000000003
 20
-12.142823105238373
 30
0.0
 11
28.70000000000003
 21
-8.913285706302444
 31
0.0
  0
LINE
  5
12F
330
17
100
AcDbEntity
  8
visible
100
AcDbLine
 10
1.2026436190946832
 20
-1.6435186454272497
 30
0.0
 11
16.60000000000003
 21
-5.254162694933182
 31
0.0
  0
LINE
  5
130
330
17
100
AcDbEntity
  8
visible
100
AcDbLine
 10
27.08000000000003
 20
-7.711698177176612
 30
0.0
 11
27.602643619094685
 21
-7.834256883139707
 31
0.0
  0
LINE
  5
131
330
17
100
AcDbEntity
  8
visible
100
AcDbLine
 10
-28.699999999999974
 20
-17.207972572457646
 30
0.0
 11
-28.699999999999974
 21
-13.978435173521715
 31
0.0
  0
SPLINE
  5
132
330
17
100
AcDbEntity
  8
visible
100
AcDbSpline
 70
0
 71
3
 72
14
 73
10
 74
0
 40
0.0
 40
0.0
 40
0.0
 40
0.0
 40
0.3333333333333333
 40
0.3333333333333333
 40
0.3333333333333333
 40
0.6666666666666666
 40
0.6666666666666666
 40
0.6666666666666666
 40
1.0
 40
1.0
 40
1.0
 40
1.0
 10
-28.699999999999974
 20
-13.978435173521717
 30
0.0
 10
-28.700396482813602
 20
-13.796519899812669
 30
0.0
 10
-28.644524623014274
 20
-13.615417283206588
 30
0.0
 10
-28.54352833881127
 20
-13.462848895917318
 30
0.0
 10
-28.48622363360283
 20
-13.376574256978918
 30
0.0
 10
-28.417524027678027
 20
-13.300133521277372
 30
0.0
 10
-28.337429521036796
 20
-13.233526688812645
 30
0.0
 10
-28.22723691633022
 20
-13.143184307267708
 30
0.0
 10
-28.104036909922428
 20
-13.070313097709034
 30
0.0
 10
-27.96782950181335
 20
-13.014913060136578
 30
0.0
  0
LINE
  5
133
330
17
100
AcDbEntity
  8
visible
100
AcDbLine
 10
-27.96782950181335
 20
-13.014913060136578
 30
0.0
 11
-0.9678295018133412
 21
-1.7590253552048374
 31
0.0
  0
SPLINE
  5
134
330
17
100
AcDbEntity
  8
visible
100
AcDbSpline
 70
0
 71
3
 72
11
 73
7
 74
0
 40
0.0
 40
0.0
 40
0.0
 40
0.0
 40
0.5953688542637825
 40
0.5953688542637825
 40
0.5953688542637825
 40
1.0
 40
1.0
 40
1.0
 40
1.0
 10
-0.9678295018133429
 20
-1.759025355204841
 30
0.0
 10
-0.6165335308355817
 20
-1.613512465783549
 30
0.0
 10
-0.16679230364287617
 20
-1.5486577704246647
 30
0.0
 10
0.3000153118472306
 20
-1.5473496792298214
 30
0.0
 10
0.6155331342081459
 20
-1.5474426268096737
 30
0.0
 10
0.9283992150719954
 20
-1.5792486384658173
 30
0.0
 10
1.202643619094685
 20
-1.6435186454272497
 30
0.0
  0
SPLINE
  5
135
330
17
100
AcDbEntity
  8
visible
100
AcDbSpline
 70
0
 71
3
 72
17
 73
13
 74
0
 40
0.0
 40
0.0
 40
0.0
 40
0.0
 40
0.25
 40
0.25
 40
0.25
 40
0.5
 40
0.5
 40
0.5
 40
0.75
 40
0.75
 40
0.75
 40
1.0
 40
1.0
 40
1.0
 40
1.0
 10
27.602643619094685
 20
-7.834256883139702
 30
0.0
 10
27.766195694267164
 20
-7.871774087336022
 30
0.0
 10
27.917084036613563
 20
-7.9233653579230925
 30
0.0
 10
28.055308646133874
 20
-7.98903069490089
 30
0.0
 10
28.156121033719437
 20
-8.037048612323003
 30
0.0
 10
28.248915735413043
 20
-8.095793047384443
 30
0.0
 10
28.333692751214677
 20
-8.165264000085187
 30
0.0
 10
28.41680975082271
 20
-8.2337752618341
 30
0.0
 10
28.48775390481591
 20
-8.312780144100705
 30
0.0
 10
28.546525213194258
 20
-8.40227864688498
 30
0.0
 10
28.64565362963302
 20
-8.553868378063006
 30
0.0
 10
28.700380996674838
 20
-8.733190995249437
 30
0.0
 10
28.70000000000003
 20
-8.913285706302446
 30
0.0
  0
SPLINE
  5
136
330
17
100
AcDbEntity
  8
visible
100
AcDbSpline
 70
0
 71
3
 72
14
 73
10
 74
0
 40
0.0
 40
0.0
 40
0.0
 40
0.0
 40
0.3333333333333333
 40
0.3333333333333333
 40
0.3333333333333333
 40
0.6666666666666666
 40
0.6666666666666666
 40
0.6666666666666666
 40
1.0
 40
1.0
 40
1.0
 40
1.0
 10
36.50000000000003
 20
-17.705068032689866
 30
0.0
 10
36.50088806196266
 20
-17.936687659697974
 30
0.0
 10
36.417735356389
 20
-18.16526232078531
 30
0.0
 10
36.27727415380777
 20
-18.34823274711829
 30
0.0
 10
36.21228255158601
 20
-18.432934918282836
 30
0.0
 10
36.13782903034289
 20
-18.50887801898172
 30
0.0
 10
36.053913590078324
 20
-18.57606204921491
 30
0.0
 10
35.911835605901
 20
-18.688561963247317
 30
0.0
 10
35.74980757647941
 20
-18.781937371672537
 30
0.0
 10
35.56782950181341
 20
-18.85618827449055
 30
0.0
  0
LINE
  5
137
330
17
100
AcDbEntity
  8
visible
100
AcDbLine
 10
36.50000000000003
 20
-17.705068032689876
 30
0.0
 11
36.50000000000003
 21
-14.475530633753946
 31
0.0
  0
LINE
  5
138
330
17
100
AcDbEntity
  8
visible
100
AcDbLine
 10
28.700000000000028
 20
-11.668415788938532
 30
0.0
 11
35.002643619094684
 21
-13.146370972703826
 31
0.0
  0
SPLINE
  5
139
330
17
100
AcDbEntity
  8
visible
100
AcDbSpline
 70
0
 71
3
 72
20
 73
16
 74
0
 40
0.0
 40
0.0
 40
0.0
 40
0.0
 40
0.20030626189767667
 40
0.20030626189767667
 40
0.20030626189767667
 40
0.40061252379535334
 40
0.40061252379535334
 40
0.40061252379535334
 40
0.60091878569303
 40
0.60091878569303
 40
0.60091878569303
 40
0.7996937381023235
 40
0.7996937381023235
 40
0.7996937381023235
 40
1.0
 40
1.0
 40
1.0
 40
1.0
 10
35.002643619094684
 20
-13.146370972703835
 30
0.0
 10
35.13755882424828
 20
-13.177918519499004
 30
0.0
 10
35.26525569498098
 20
-13.214302145354221
 30
0.0
 10
35.38573423129279
 20
-13.255521850269474
 30
0.0
 10
35.58848950197413
 20
-13.32377968198981
 30
0.0
 10
35.76998721001305
 20
-13.410025286864604
 30
0.0
 10
35.93022735540954
 20
-13.514258664893859
 30
0.0
 10
35.99674974945447
 20
-13.558049722303792
 30
0.0
 10
36.059107157568256
 20
-13.606211562435444
 30
0.0
 10
36.11729957975082
 20
-13.658744185288796
 30
0.0
 10
36.17513054134237
 20
-13.710969966642383
 30
0.0
 10
36.22771335473125
 20
-13.767870772039869
 30
0.0
 10
36.27504801991755
 20
-13.829446601481242
 30
0.0
 10
36.41682983278086
 20
-14.012937081448856
 30
0.0
 10
36.50090498030516
 20
-14.242670204452036
 30
0.0
 10
36.50000000000003
 20
-14.475530633753948
 30
0.0
  0
SPLINE
  5
13A
330
17
100
AcDbEntity
  8
visible
100
AcDbSpline
 70
0
 71
3
 72
11
 73
7
 74
0
 40
0.0
 40
0.0
 40
0.0
 40
0.0
 40
0.5
 40
0.5
 40
0.5
 40
1.0
 40
1.0
 40
1.0
 40
1.0
 10
25.08000000000003
 20
9.863387207368135
 30
0.0
 10
25.080302658177814
 20
9.756371819776906
 30
0.0
 10
25.039873341341
 20
9.650006389590102
 30
0.0
 10
24.967077589282134
 20
9.567240090753003
 30
0.0
 10
24.908546585214165
 20
9.50223687009726
 30
0.0
 10
24.8374923057557
 20
9.452872098632486
 30
0.0
 10
24.753914750906716
 20
9.419145776358647
 30
0.0
  0
LINE
  5
13B
330
17
100
AcDbEntity
  8
visible
100
AcDbLine
 10
25.08000000000003
 20
9.863387207368122
 30
0.0
 11
25.08000000000003
 21
15.752543640721855
 31
0.0
  0
LINE
  5
13C
330
17
100
AcDbEntity
  8
visible
100
AcDbLine
 10
23.25132180954736
 20
16.560948703032157
 30
0.0
 11
24.611321809547363
 21
16.24203188472576
 31
0.0
  0
SPLINE
  5
13D
330
17
100
AcDbEntity
  8
visible
100
AcDbSpline
 70
0
 71
2
 72
10
 73
7
 74
0
 40
0.0
 40
0.0
 40
0.0
 40
0.4528500973975874
 40
0.4528500973975874
 40
0.7264250486987937
 40
0.7264250486987937
 40
1.0
 40
1.0
 40
1.0
 10
19.713914750906714
 20
7.318046738104712
 30
0.0
 10
19.631200726030734
 20
7.284173860468822
 30
0.0
 10
19.540124485428663
 20
7.265944760979508
 30
0.0
 10
19.395769773118502
 20
7.237009534416956
 30
0.0
 10
19.23999445465303
 20
7.237222750179683
 30
0.0
 10
19.06672962468413
 20
7.236872353950403
 30
0.0
 10
18.9086781904527
 20
7.272799925110306
 30
0.0
  0
LINE
  5
13E
330
17
100
AcDbEntity
  8
visible
100
AcDbLine
 10
17.007606561366668
 20
5.718999681497223
 30
0.0
 11
17.46885450876822
 21
5.911286907426192
 31
0.0
  0
SPLINE
  5
13F
330
17
100
AcDbEntity
  8
visible
100
AcDbSpline
 70
0
 71
3
 72
11
 73
7
 74
0
 40
0.0
 40
0.0
 40
0.0
 40
0.0
 40
0.5
 40
0.5
 40
0.5
 40
1.0
 40
1.0
 40
1.0
 40
1.0
 10
16.600000000000033
 20
5.163697892735385
 30
0.0
 10
16.599600148387566
 20
5.296048657130687
 30
0.0
 10
16.64920186981572
 20
5.4275683431799
 30
0.0
 10
16.737783099590462
 20
5.5299915104047415
 30
0.0
 10
16.81191806352951
 20
5.613488637872617
 30
0.0
 10
16.90185921745491
 20
5.676491361570113
 30
0.0
 10
17.007606561366668
 20
5.718999681497223
 30
0.0
  0
LINE
  5
140
330
17
100
AcDbEntity
  8
visible
100
AcDbLine
 10
16.60000000000003
 20
-14.308512894966512
 30
0.0
 11
16.60000000000003
 21
5.163697892735382
 31
0.0
  0
LINE
  5
141
330
17
100
AcDbEntity
  8
visible
100
AcDbLine
 10
19.88671082120291
 20
7.390082781182789
 30
0.0
 11
19.71391475090672
 21
7.318046738104737
 31
0.0
  0
LINE
  5
142
330
17
100
AcDbEntity
  8
visible
100
AcDbLine
 10
18.9086781904527
 20
7.272799925110306
 30
0.0
 11
17.5486781904527
 21
7.591716743416705
 31
0.0
  0
SPLINE
  5
143
330
17
100
AcDbEntity
  8
visible
100
AcDbSpline
 70
0
 71
3
 72
17
 73
13
 74
0
 40
0.0
 40
0.0
 40
0.0
 40
0.0
 40
0.2185151470509089
 40
0.2185151470509089
 40
0.2185151470509089
 40
0.4370302941018178
 40
0.4370302941018178
 40
0.4370302941018178
 40
0.781484852949091
 40
0.781484852949091
 40
0.781484852949091
 40
1.0
 40
1.0
 40
1.0
 40
1.0
 10
24.611321809547356
 20
16.242031884725762
 30
0.0
 10
24.64627918619811
 20
16.233899378968438
 30
0.0
 10
24.680292541195747
 20
16.22401549532789
 30
0.0
 10
24.71336187454019
 20
16.21238023380407
 30
0.0
 10
24.75469813187799
 20
16.19793617762978
 30
0.0
 10
24.79416279623648
 20
16.17997536329703
 30
0.0
 10
24.831755867615747
 20
16.15849779080584
 30
0.0
 10
24.884250697709977
 20
16.12845888503957
 30
0.0
 10
24.929914764567062
 20
16.091215847592682
 30
0.0
 10
24.968748068187065
 20
16.046768678465227
 30
0.0
 10
25.040507156659594
 20
15.964291445184852
 30
0.0
 10
25.080293003286943
 20
15.858730248538516
 30
0.0
 10
25.080000000000034
 20
15.752543640721868
 30
0.0
  0
LINE
  5
144
330
17
100
AcDbEntity
  8
visible
100
AcDbLine
 10
24.75391475090672
 20
9.419145776358661
 30
0.0
 11
24.707701967630857
 21
9.39988037268883
 31
0.0
  0
LINE
  5
145
330
17
100
AcDbEntity
  8
visible
100
AcDbLine
 10
25.66252508316852
 20
8.671985874768783
 30
0.0
 11
26.89415226193419
 21
8.383172182716109
 31
0.0
  0
LINE
  5
146
330
17
100
AcDbEntity
  8
visible
100
AcDbLine
 10
35.56782950181341
 20
-18.85618827449055
 30
0.0
 11
6.167829501813404
 21
-31.112599330971776
 31
0.0
  0
SPLINE
  5
147
330
17
100
AcDbEntity
  8
visible
100
AcDbSpline
 70
0
 71
3
 72
17
 73
13
 74
0
 40
0.0
 40
0.0
 40
0.0
 40
0.0
 40
0.11365898242068294
 40
0.11365898242068294
 40
0.11365898242068294
 40
0.22731796484136588
 40
0.22731796484136588
 40
0.22731796484136588
 40
0.5117808917959762
 40
0.5117808917959762
 40
0.5117808917959762
 40
1.0
 40
1.0
 40
1.0
 40
1.0
 10
6.167829501813401
 20
-31.112599330971776
 30
0.0
 10
5.926926873264609
 20
-31.211693544838283
 30
0.0
 10
5.653672919555252
 20
-31.288620824175354
 30
0.0
 10
5.348067640685313
 20
-31.34338116898292
 30
0.0
 10
5.2379381494497395
 20
-31.36336677317231
 30
0.0
 10
5.124649675366187
 20
-31.380562671906482
 30
0.0
 10
5.0082022184346595
 20
-31.3949688651854
 30
0.0
 10
4.7143150068025905
 20
-31.431129024918135
 30
0.0
 10
4.4115723125066175
 20
-31.449252702796066
 30
0.0
 10
4.09997413554672
 20
-31.449339898819083
 30
0.0
 10
3.5694237578480656
 20
-31.449392156302572
 30
0.0
 10
3.0427721732613238
 20
-31.39524118303606
 30
0.0
 10
2.597356380905371
 20
-31.2906387502212
 30
0.0
  0
LINE
  5
148
330
17
100
AcDbEntity
  8
visible
100
AcDbLine
 10
2.5973563809053744
 20
-31.2906387502212
 30
0.0
 11
-35.00264361909463
 21
-22.47352671469133
 31
0.0
  0
SPLINE
  5
149
330
17
100
AcDbEntity
  8
visible
100
AcDbSpline
 70
0
 71
3
 72
20
 73
16
 74
0
 40
0.0
 40
0.0
 40
0.0
 40
0.0
 40
0.20030626189767164
 40
0.20030626189767164
 40
0.20030626189767164
 40
0.4006125237953433
 40
0.4006125237953433
 40
0.4006125237953433
 40
0.6009187856930149
 40
0.6009187856930149
 40
0.6009187856930149
 40
0.7996937381023284
 40
0.7996937381023284
 40
0.7996937381023284
 40
1.0
 40
1.0
 40
1.0
 40
1.0
 10
-35.00264361909463
 20
-22.47352671469133
 30
0.0
 10
-35.13755882424822
 20
-22.441979167896157
 30
0.0
 10
-35.26525569498094
 20
-22.40559554204095
 30
0.0
 10
-35.38573423129273
 20
-22.364375837125692
 30
0.0
 10
-35.58848950197407
 20
-22.296118005405333
 30
0.0
 10
-35.769987210013
 20
-22.20987240053055
 30
0.0
 10
-35.930227355409485
 20
-22.105639022501308
 30
0.0
 10
-35.99674974945441
 20
-22.061847965091367
 30
0.0
 10
-36.059107157568214
 20
-22.013686124959726
 30
0.0
 10
-36.117299579750764
 20
-21.96115350210637
 30
0.0
 10
-36.175130541342284
 20
-21.908927720752768
 30
0.0
 10
-36.227713354731215
 20
-21.8520269153553
 30
0.0
 10
-36.27504801991748
 20
-21.79045108591393
 30
0.0
 10
-36.41682983278076
 20
-21.606960605946327
 30
0.0
 10
-36.500904980305116
 20
-21.377227482943113
 30
0.0
 10
-36.49999999999997
 20
-21.14436705364122
 30
0.0
  0
LINE
  5
14A
330
17
100
AcDbEntity
  8
visible
100
AcDbLine
 10
-17.185847738065814
 20
18.71982905841176
 30
0.0
 11
-17.6174749168315
 21
18.82104462204891
 31
0.0
  0
SPLINE
  5
14B
330
17
100
AcDbEntity
  8
visible
100
AcDbSpline
 70
0
 71
3
 72
14
 73
10
 74
0
 40
0.0
 40
0.0
 40
0.0
 40
0.0
 40
0.3333333333333333
 40
0.3333333333333333
 40
0.3333333333333333
 40
0.6666666666666666
 40
0.6666666666666666
 40
0.6666666666666666
 40
1.0
 40
1.0
 40
1.0
 40
1.0
 10
-16.599999999999973
 20
18.107968753406894
 30
0.0
 10
-16.599600148387502
 20
18.240319517802202
 30
0.0
 10
-16.64920186981566
 20
18.3718392038514
 30
0.0
 10
-16.737783099590406
 20
18.47426237107625
 30
0.0
 10
-16.783222711723383
 20
18.526643908817924
 30
0.0
 10
-16.836137631501433
 20
18.570976950458302
 30
0.0
 10
-16.896527858924518
 20
18.607261495997307
 30
0.0
 10
-16.98534992813681
 20
18.659250018845682
 30
0.0
 10
-17.08178988785061
 20
18.69677253965052
 30
0.0
 10
-17.185847738065817
 20
18.71982905841176
 30
0.0
  0
SPLINE
  5
14C
330
17
100
AcDbEntity
  8
visible
100
AcDbSpline
 70
0
 71
3
 72
17
 73
13
 74
0
 40
0.0
 40
0.0
 40
0.0
 40
0.0
 40
0.21463309865305844
 40
0.21463309865305844
 40
0.21463309865305844
 40
0.42926619730611687
 40
0.42926619730611687
 40
0.42926619730611687
 40
0.7853669013469415
 40
0.7853669013469415
 40
0.7853669013469415
 40
1.0
 40
1.0
 40
1.0
 40
1.0
 10
-25.079999999999977
 20
17.96762635491899
 30
0.0
 10
-25.08030265817775
 20
17.860610967327766
 30
0.0
 10
-25.039873341340964
 20
17.754245537140946
 30
0.0
 10
-24.96707758928207
 20
17.671479238303842
 30
0.0
 10
-24.95301504377271
 20
17.65539670129486
 30
0.0
 10
-24.93788665260968
 20
17.640214309390064
 30
0.0
 10
-24.92169241579289
 20
17.625932062589463
 30
0.0
 10
-24.894711266473852
 20
17.602233832780197
 30
0.0
 10
-24.865496465285098
 20
17.58125725558391
 30
0.0
 10
-24.834048012226745
 20
17.563002331000753
 30
0.0
 10
-24.76532294251738
 20
17.524190809376204
 30
0.0
 10
-24.691080874957553
 20
17.495902736014344
 30
0.0
 10
-24.611321809547302
 20
17.478138110915083
 30
0.0
  0
LINE
  5
14D
330
17
100
AcDbEntity
  8
visible
100
AcDbLine
 10
-25.079999999999977
 20
17.96762635491898
 30
0.0
 11
-25.079999999999977
 21
23.85678278827271
 31
0.0
  0
SPLINE
  5
14E
330
17
100
AcDbEntity
  8
visible
100
AcDbSpline
 70
0
 71
3
 72
14
 73
10
 74
0
 40
0.0
 40
0.0
 40
0.0
 40
0.0
 40
0.3333333333333333
 40
0.3333333333333333
 40
0.3333333333333333
 40
0.6666666666666666
 40
0.6666666666666666
 40
0.6666666666666666
 40
1.0
 40
1.0
 40
1.0
 40
1.0
 10
-24.753914750906663
 20
24.301024219282183
 30
0.0
 10
-24.781051163560157
 20
24.289774188470393
 30
0.0
 10
-24.80726398346448
 20
24.276858031533074
 30
0.0
 10
-24.832553210619555
 20
24.26227574847023
 30
0.0
 10
-24.88369084970161
 20
24.232903034965148
 30
0.0
 10
-24.928352007759802
 20
24.196660420098556
 30
0.0
 10
-24.966536684794047
 20
24.153547903870404
 30
0.0
 10
-25.03966781706847
 20
24.070690018315847
 30
0.0
 10
-25.08030582327371
 20
23.964065416476878
 30
0.0
 10
-25.079999999999977
 20
23.856782788272724
 30
0.0
  0
LINE
  5
14F
330
17
100
AcDbEntity
  8
visible
100
AcDbLine
 10
-19.713914750906664
 20
26.402123257536118
 30
0.0
 11
-24.753914750906663
 21
24.301024219282194
 31
0.0
  0
SPLINE
  5
150
330
17
100
AcDbEntity
  8
visible
100
AcDbSpline
 70
0
 71
2
 72
10
 73
7
 74
0
 40
0.0
 40
0.0
 40
0.0
 40
0.22704596892033282
 40
0.22704596892033282
 40
0.45409193784066565
 40
0.45409193784066565
 40
1.0
 40
1.0
 40
1.0
 10
-18.908678190452648
 20
26.44737007053054
 30
0.0
 10
-19.06689627779086
 20
26.483333675850055
 30
0.0
 10
-19.24034455571166
 20
26.482947210123314
 30
0.0
 10
-19.395546017681916
 20
26.483125678007816
 30
0.0
 10
-19.53941869348711
 20
26.454369996303996
 30
0.0
 10
-19.63087888809871
 20
26.43612393486505
 30
0.0
 10
-19.713914750906667
 20
26.402123257536118
 30
0.0
  0
LINE
  5
151
330
17
100
AcDbEntity
  8
visible
100
AcDbLine
 10
-24.611321809547306
 20
17.478138110915083
 30
0.0
 11
-23.251321809547303
 21
17.159221292608684
 31
0.0
  0
LINE
  5
152
330
17
100
AcDbEntity
  8
visible
100
AcDbLine
 10
-17.548678190452645
 20
26.12845325222413
 30
0.0
 11
-18.90867819045264
 21
26.44737007053053
 31
0.0
  0
LINE
  5
153
330
17
100
AcDbEntity
  8
visible
100
AcDbLine
 10
-16.599999999999973
 20
-1.3642420342950041
 30
0.0
 11
-16.599999999999973
 21
18.10796875340689
 31
0.0
  0
SPLINE
  5
154
330
17
100
AcDbEntity
  8
visible
100
AcDbSpline
 70
0
 71
3
 72
17
 73
13
 74
0
 40
0.0
 40
0.0
 40
0.0
 40
0.0
 40
0.25
 40
0.25
 40
0.25
 40
0.5
 40
0.5
 40
0.5
 40
0.75
 40
0.75
 40
0.75
 40
1.0
 40
1.0
 40
1.0
 40
1.0
 10
-27.60264361909463
 20
-18.287001395620393
 30
0.0
 10
-27.766195694267104
 20
-18.24948419142407
 30
0.0
 10
-27.917084036613502
 20
-18.197892920837006
 30
0.0
 10
-28.055308646133817
 20
-18.132227583859205
 30
0.0
 10
-28.15612103371938
 20
-18.08420966643708
 30
0.0
 10
-28.24891573541299
 20
-18.02546523137566
 30
0.0
 10
-28.33369275121462
 20
-17.955994278674908
 30
0.0
 10
-28.416809750822654
 20
-17.88748301692599
 30
0.0
 10
-28.487753904815847
 20
-17.80847813465938
 30
0.0
 10
-28.5465252131942
 20
-17.7189796318751
 30
0.0
 10
-28.645653629632946
 20
-17.567389900697094
 30
0.0
 10
-28.700380996674802
 20
-17.388067283510654
 30
0.0
 10
-28.699999999999974
 20
-17.20797257245765
 30
0.0
  0
LINE
  5
155
330
17
100
AcDbEntity
  8
visible
100
AcDbLine
 10
-1.2026436190946264
 20
-24.477739633332853
 30
0.0
 11
-27.60264361909463
 21
-18.287001395620393
 31
0.0
  0
SPLINE
  5
156
330
17
100
AcDbEntity
  8
visible
100
AcDbSpline
 70
0
 71
3
 72
11
 73
7
 74
0
 40
0.0
 40
0.0
 40
0.0
 40
0.0
 40
0.5953688542637882
 40
0.5953688542637882
 40
0.5953688542637882
 40
1.0
 40
1.0
 40
1.0
 40
1.0
 10
0.9678295018134
 20
-24.362232923555254
 30
0.0
 10
0.6165335308356623
 20
-24.50774581297652
 30
0.0
 10
0.16679230364292946
 20
-24.572600508335437
 30
0.0
 10
-0.3000153118471739
 20
-24.57390859953028
 30
0.0
 10
-0.6155331342080811
 20
-24.573815651950394
 30
0.0
 10
-0.928399215071912
 20
-24.542009640294268
 30
0.0
 10
-1.2026436190946281
 20
-24.477739633332853
 30
0.0
  0
LINE
  5
157
330
17
100
AcDbEntity
  8
visible
100
AcDbLine
 10
27.967829501813405
 20
-13.106345218623517
 30
0.0
 11
27.080000000000034
 21
-13.476467780606361
 31
0.0
  0
LINE
  5
158
330
17
100
AcDbEntity
  8
visible
100
AcDbLine
 10
15.007036062553857
 20
-18.50950208970209
 30
0.0
 11
0.967829501813398
 21
-24.362232923555258
 31
0.0
  0
SPLINE
  5
159
330
17
100
AcDbEntity
  8
visible
100
AcDbSpline
 70
0
 71
3
 72
14
 73
10
 74
0
 40
0.0
 40
0.0
 40
0.0
 40
0.0
 40
0.3333333333333333
 40
0.3333333333333333
 40
0.3333333333333333
 40
0.6666666666666666
 40
0.6666666666666666
 40
0.6666666666666666
 40
1.0
 40
1.0
 40
1.0
 40
1.0
 10
-36.49999999999997
 20
-17.9148296547053
 30
0.0
 10
-36.5008880619626
 20
-17.683210027697175
 30
0.0
 10
-36.417735356388945
 20
-17.454635366609846
 30
0.0
 10
-36.27727415380771
 20
-17.271664940276878
 30
0.0
 10
-36.21228255158593
 20
-17.186962769112313
 30
0.0
 10
-36.137829030342836
 20
-17.111019668413466
 30
0.0
 10
-36.05391359007827
 20
-17.043835638180255
 30
0.0
 10
-35.91183560590095
 20
-16.931335724147832
 30
0.0
 10
-35.74980757647935
 20
-16.837960315722636
 30
0.0
 10
-35.56782950181335
 20
-16.763709412904618
 30
0.0
  0
LINE
  5
15A
330
17
100
AcDbEntity
  8
visible
100
AcDbLine
 10
-36.49999999999997
 20
-21.14436705364123
 30
0.0
 11
-36.49999999999997
 21
-17.9148296547053
 31
0.0
  0
ENDSEC
  0
SECTION
  2
OBJECTS
  0
DICTIONARY
  5
A
330
0
100
AcDbDictionary
281
1
  3
ACAD_COLOR
350
B
  3
ACAD_GROUP
350
C
  3
ACAD_LAYOUT
350
D
  3
ACAD_MATERIAL
350
E
  3
ACAD_MLEADERSTYLE
350
F
  3
ACAD_MLINESTYLE
350
10
  3
ACAD_PLOTSETTINGS
350
11
  3
ACAD_PLOTSTYLENAME
350
12
  3
ACAD_SCALELIST
350
14
  3
ACAD_TABLESTYLE
350
15
  3
ACAD_VISUALSTYLE
350
16
  3
EZDXF_META
350
2D
  0
DICTIONARY
  5
B
330
A
100
AcDbDictionary
281
1
  0
DICTIONARY
  5
C
330
A
100
AcDbDictionary
281
1
  0
DICTIONARY
  5
D
330
A
100
AcDbDictionary
281
1
  3
Model
350
1A
  3
Layout1
350
1E
  0
DICTIONARY
  5
E
330
A
100
AcDbDictionary
281
1
  3
ByBlock
350
1F
  3
ByLayer
350
20
  3
Global
350
21
  0
DICTIONARY
  5
F
330
A
100
AcDbDictionary
281
1
  3
Standard
350
2C
  0
DICTIONARY
  5
10
330
A
100
AcDbDictionary
281
1
  3
Standard
350
22
  0
DICTIONARY
  5
11
330
A
100
AcDbDictionary
281
1
  0
ACDBDICTIONARYWDFLT
  5
12
330
A
100
AcDbDictionary
281
1
  3
Normal
350
13
100
AcDbDictionaryWithDefault
340
13
  0
ACDBPLACEHOLDER
  5
13
330
12
  0
DICTIONARY
  5
14
330
A
100
AcDbDictionary
281
1
  0
DICTIONARY
  5
15
330
A
100
AcDbDictionary
281
1
  0
DICTIONARY
  5
16
330
A
100
AcDbDictionary
281
1
  0
LAYOUT
  5
1A
330
D
100
AcDbPlotSettings
  1

  4
A3
  6

 40
7.5
 41
20.0
 42
7.5
 43
20.0
 44
420.0
 45
297.0
 46
0.0
 47
0.0
 48
0.0
 49
0.0
140
0.0
141
0.0
142
1.0
143
1.0
 70
1024
 72
1
 73
0
 74
5
  7

 75
16
 76
0
 77
2
 78
300
147
1.0
148
0.0
149
0.0
100
AcDbLayout
  1
Model
 70
1
 71
0
 10
0.0
 20
0.0
 11
420.0
 21
297.0
 12
0.0
 22
0.0
 32
0.0
 14
1e+20
 24
1e+20
 34
1e+20
 15
-1e+20
 25
-1e+20
 35
-1e+20
146
0.0
 13
0.0
 23
0.0
 33
0.0
 16
1.0
 26
0.0
 36
0.0
 17
0.0
 27
1.0
 37
0.0
 76
1
330
17
  0
LAYOUT
  5
1E
330
D
100
AcDbPlotSettings
  1

  4
A3
  6

 40
7.5
 41
20.0
 42
7.5
 43
20.0
 44
420.0
 45
297.0
 46
0.0
 47
0.0
 48
0.0
 49
0.0
140
0.0
141
0.0
142
1.0
143
1.0
 70
0
 72
1
 73
0
 74
5
  7

 75
16
 76
0
 77
2
 78
300
147
1.0
148
0.0
149
0.0
100
AcDbLayout
  1
Layout1
 70
1
 71
1
 10
0.0
 20
0.0
 11
420.0
 21
297.0
 12
0.0
 22
0.0
 32
0.0
 14
1e+20
 24
1e+20
 34
1e+20
 15
-1e+20
 25
-1e+20
 35
-1e+20
146
0.0
 13
0.0
 23
0.0
 33
0.0
 16
1.0
 26
0.0
 36
0.0
 17
0.0
 27
1.0
 37
0.0
 76
1
330
1B
  0
MATERIAL
  5
1F
102
{ACAD_REACTORS
330
E
102
}
330
E
100
AcDbMaterial
  1
ByBlock
  2

 70
0
 40
1.0
 71
1
 41
1.0
 91
-1023410177
 42
1.0
 72
1
  3

 73
1
 74
1
 75
1
 44
0.5
 73
0
 45
1.0
 46
1.0
 77
1
  4

 78
1
 79
1
170
1
 48
1.0
171
1
  6

172
1
173
1
174
1
140
1.0
141
1.0
175
1
  7

176
1
177
1
178
1
143
1.0
179
1
  8

270
1
271
1
272
1
145
1.0
146
1.0
273
1
  9

274
1
275
1
276
1
 42
1.0
 72
1
  3

 73
1
 74
1
 75
1
 94
63
  0
MATERIAL
  5
20
102
{ACAD_REACTORS
330
E
102
}
330
E
100
AcDbMaterial
  1
ByLayer
  2

 70
0
 40
1.0
 71
1
 41
1.0
 91
-1023410177
 42
1.0
 72
1
  3

 73
1
 74
1
 75
1
 44
0.5
 73
0
 45
1.0
 46
1.0
 77
1
  4

 78
1
 79
1
170
1
 48
1.0
171
1
  6

172
1
173
1
174
1
140
1.0
141
1.0
175
1
  7

176
1
177
1
178
1
143
1.0
179
1
  8

270
1
271
1
272
1
145
1.0
146
1.0
273
1
  9

274
1
275
1
276
1
 42
1.0
 72
1
  3

 73
1
 74
1
 75
1
 94
63
  0
MATERIAL
  5
21
102
{ACAD_REACTORS
330
E
102
}
330
E
100
AcDbMaterial
  1
Global
  2

 70
0
 40
1.0
 71
1
 41
1.0
 91
-1023410177
 42
1.0
 72
1
  3

 73
1
 74
1
 75
1
 44
0.5
 73
0
 45
1.0
 46
1.0
 77
1
  4

 78
1
 79
1
170
1
 48
1.0
171
1
  6

172
1
173
1
174
1
140
1.0
141
1.0
175
1
  7

176
1
177
1
178
1
143
1.0
179
1
  8

270
1
271
1
272
1
145
1.0
146
1.0
273
1
  9

274
1
275
1
276
1
 42
1.0
 72
1
  3

 73
1
 74
1
 75
1
 94
63
  0
MLINESTYLE
  5
22
102
{ACAD_REACTORS
330
10
102
}
330
10
100
AcDbMlineStyle
  2
Standard
 70
0
  3

 62
256
 51
90.0
 52
90.0
 71
2
 49
0.5
 62
256
  6
BYLAYER
 49
-0.5
 62
256
  6
BYLAYER
  0
MLEADERSTYLE
  5
2C
102
{ACAD_REACTORS
330
F
102
}
330
F
100
AcDbMLeaderStyle
179
2
170
2
171
1
172
0
 90
2
 40
0.0
 41
0.0
173
1
 91
-1056964608
 92
-2
290
1
 42
2.0
291
1
 43
8.0
  3
Standard
 44
4.0
300

342
29
174
1
175
1
176
0
178
1
 93
-1056964608
 45
4.0
292
0
297
0
 46
4.0
 94
-1056964608
 47
1.0
 49
1.0
140
1.0
294
1
141
0.0
177
0
142
1.0
295
0
296
0
143
3.75
271
0
272
9
273
9
  0
DICTIONARY
  5
2D
330
A
100
AcDbDictionary
280
1
281
1
  3
CREATED_BY_EZDXF
350
2E
  3
WRITTEN_BY_EZDXF
350
15E
  0
DICTIONARYVAR
  5
2E
330
2D
100
DictionaryVariables
280
0
  1
1.4.4 @ 2026-10-03T15:55:15.401132+00:00
  0
DICTIONARYVAR
  5
15E
330
2D
100
DictionaryVariables
280
0
  1
1.4.4 @ 2026-10-03T15:55:15.449940+00:00
  0
ENDSEC
  0
EOF
