  0
SECTION
  2
HEADER
  9
$ACADVER
  1
AC1027
  9
$ACADMAINTVER
 70
105
  9
$DWGCODEPAGE
  3
ANSI_1252
  9
$LASTSAVEDBY
  1
ezdxf
  9
$REQUIREDVERSIONS
160
0
  9
$INSBASE
 10
0.0
 20
0.0
 30
0.0
  9
$EXTMIN
 10
1e+20
 20
1e+20
 30
1e+20
  9
$EXTMAX
 10
-1e+20
 20
-1e+20
 30
-1e+20
  9
$LIMMIN
 10
0.0
 20
0.0
  9
$LIMMAX
 10
420.0
 20
297.0
  9
$ORTHOMODE
 70
0
  9
$REGENMODE
 70
1
  9
$FILLMODE
 70
1
  9
$QTEXTMODE
 70
0
  9
$MIRRTEXT
 70
1
  9
$LTSCALE
 40
1.0
  9
$ATTMODE
 70
1
  9
$TEXTSIZE
 40
2.5
  9
$TRACEWID
 40
1.0
  9
$TEXTSTYLE
  7
Standard
  9
$CLAYER
  8
0
  9
$CELTYPE
  6
ByLayer
  9
$CECOLOR
 62
256
  9
$CELTSCALE
 40
1.0
  9
$DISPSILH
 70
0
  9
$DIMSCALE
 40
1.0
  9
$DIMASZ
 40
2.5
  9
$DIMEXO
 40
0.625
  9
$DIMDLI
 40
3.75
  9
$DIMRND
 40
0.0
  9
$DIMDLE
 40
0.0
  9
$DIMEXE
 40
1.25
  9
$DIMTP
 40
0.0
  9
$DIMTM
 40
0.0
  9
$DIMTXT
 40
2.5
  9
$DIMCEN
 40
2.5
  9
$DIMTSZ
 40
0.0
  9
$DIMTOL
 70
0
  9
$DIMLIM
 70
0
  9
$DIMTIH
 70
0
  9
$DIMTOH
 70
0
  9
$DIMSE1
 70
0
  9
$DIMSE2
 70
0
  9
$DIMTAD
 70
1
  9
$DIMZIN
 70
8
  9
$DIMBLK
  1

  9
$DIMASO
 70
1
  9
$DIMSHO
 70
1
  9
$DIMPOST
  1

  9
$DIMAPOST
  1

  9
$DIMALT
 70
0
  9
$DIMALTD
 70
3
  9
$DIMALTF
 40
0.03937007874
  9
$DIMLFAC
 40
1.0
  9
$DIMTOFL
 70
1
  9
$DIMTVP
 40
0.0
  9
$DIMTIX
 70
0
  9
$DIMSOXD
 70
0
  9
$DIMSAH
 70
0
  9
$DIMBLK1
  1

  9
$DIMBLK2
  1

  9
$DIMSTYLE
  2
ISO-25
  9
$DIMCLRD
 70
0
  9
$DIMCLRE
 70
0
  9
$DIMCLRT
 70
0
  9
$DIMTFAC
 40
1.0
  9
$DIMGAP
 40
0.625
  9
$DIMJUST
 70
0
  9
$DIMSD1
 70
0
  9
$DIMSD2
 70
0
  9
$DIMTOLJ
 70
0
  9
$DIMTZIN
 70
8
  9
$DIMALTZ
 70
0
  9
$DIMALTTZ
 70
0
  9
$DIMUPT
 70
0
  9
$DIMDEC
 70
2
  9
$DIMTDEC
 70
2
  9
$DIMALTU
 70
2
  9
$DIMALTTD
 70
3
  9
$DIMTXSTY
  7
Standard
  9
$DIMAUNIT
 70
0
  9
$DIMADEC
 70
0
  9
$DIMALTRND
 40
0.0
  9
$DIMAZIN
 70
0
  9
$DIMDSEP
 70
44
  9
$DIMATFIT
 70
3
  9
$DIMFRAC
 70
0
  9
$DIMLDRBLK
  1

  9
$DIMLUNIT
 70
2
  9
$DIMLWD
 70
-2
  9
$DIMLWE
 70
-2
  9
$DIMTMOVE
 70
0
  9
$DIMFXL
 40
1.0
  9
$DIMFXLON
 70
0
  9
$DIMJOGANG
 40
0.785398163397
  9
$DIMTFILL
 70
0
  9
$DIMTFILLCLR
 70
0
  9
$DIMARCSYM
 70
0
  9
$DIMLTYPE
  6

  9
$DIMLTEX1
  6

  9
$DIMLTEX2
  6

  9
$DIMTXTDIRECTION
 70
0
  9
$LUNITS
 70
2
  9
$LUPREC
 70
4
  9
$SKETCHINC
 40
1.0
  9
$FILLETRAD
 40
10.0
  9
$AUNITS
 70
0
  9
$AUPREC
 70
2
  9
$MENU
  1
.
  9
$ELEVATION
 40
0.0
  9
$PELEVATION
 40
0.0
  9
$THICKNESS
 40
0.0
  9
$LIMCHECK
 70
0
  9
$CHAMFERA
 40
0.0
  9
$CHAMFERB
 40
0.0
  9
$CHAMFERC
 40
0.0
  9
$CHAMFERD
 40
0.0
  9
$SKPOLY
 70
0
  9
$TDCREATE
 40
2461316.839699074
  9
$TDUCREATE
 40
2458532.153996898
  9
$TDUPDATE
 40
2461316.839699074
  9
$TDUUPDATE
 40
2458532.1544311
  9
$TDINDWG
 40
0.0
  9
$TDUSRTIMER
 40
0.0
  9
$USRTIMER
 70
1
  9
$ANGBASE
 50
0.0
  9
$ANGDIR
 70
0
  9
$PDMODE
 70
0
  9
$PDSIZE
 40
0.0
  9
$PLINEWID
 40
0.0
  9
$SPLFRAME
 70
0
  9
$SPLINETYPE
 70
6
  9
$SPLINESEGS
 70
8
  9
$HANDSEED
  5
D9
  9
$SURFTAB1
 70
6
  9
$SURFTAB2
 70
6
  9
$SURFTYPE
 70
6
  9
$SURFU
 70
6
  9
$SURFV
 70
6
  9
$UCSBASE
  2

  9
$UCSNAME
  2

  9
$UCSORG
 10
0.0
 20
0.0
 30
0.0
  9
$UCSXDIR
 10
1.0
 20
0.0
 30
0.0
  9
$UCSYDIR
 10
0.0
 20
1.0
 30
0.0
  9
$UCSORTHOREF
  2

  9
$UCSORTHOVIEW
 70
0
  9
$UCSORGTOP
 10
0.0
 20
0.0
 30
0.0
  9
$UCSORGBOTTOM
 10
0.0
 20
0.0
 30
0.0
  9
$UCSORGLEFT
 10
0.0
 20
0.0
 30
0.0
  9
$UCSORGRIGHT
 10
0.0
 20
0.0
 30
0.0
  9
$UCSORGFRONT
 10
0.0
 20
0.0
 30
0.0
  9
$UCSORGBACK
 10
0.0
 20
0.0
 30
0.0
  9
$PUCSBASE
  2

  9
$PUCSNAME
  2

  9
$PUCSORG
 10
0.0
 20
0.0
 30
0.0
  9
$PUCSXDIR
 10
1.0
 20
0.0
 30
0.0
  9
$PUCSYDIR
 10
0.0
 20
1.0
 30
0.0
  9
$PUCSORTHOREF
  2

  9
$PUCSORTHOVIEW
 70
0
  9
$PUCSORGTOP
 10
0.0
 20
0.0
 30
0.0
  9
$PUCSORGBOTTOM
 10
0.0
 20
0.0
 30
0.0
  9
$PUCSORGLEFT
 10
0.0
 20
0.0
 30
0.0
  9
$PUCSORGRIGHT
 10
0.0
 20
0.0
 30
0.0
  9
$PUCSORGFRONT
 10
0.0
 20
0.0
 30
0.0
  9
$PUCSORGBACK
 10
0.0
 20
0.0
 30
0.0
  9
$USERI1
 70
0
  9
$USERI2
 70
0
  9
$USERI3
 70
0
  9
$USERI4
 70
0
  9
$USERI5
 70
0
  9
$USERR1
 40
0.0
  9
$USERR2
 40
0.0
  9
$USERR3
 40
0.0
  9
$USERR4
 40
0.0
  9
$USERR5
 40
0.0
  9
$WORLDVIEW
 70
1
  9
$SHADEDGE
 70
3
  9
$SHADEDIF
 70
70
  9
$TILEMODE
 70
1
  9
$MAXACTVP
 70
64
  9
$PINSBASE
 10
0.0
 20
0.0
 30
0.0
  9
$PLIMCHECK
 70
0
  9
$PEXTMIN
 10
1e+20
 20
1e+20
 30
1e+20
  9
$PEXTMAX
 10
-1e+20
 20
-1e+20
 30
-1e+20
  9
$PLIMMIN
 10
0.0
 20
0.0
  9
$PLIMMAX
 10
420.0
 20
297.0
  9
$UNITMODE
 70
0
  9
$VISRETAIN
 70
1
  9
$PLINEGEN
 70
0
  9
$PSLTSCALE
 70
1
  9
$TREEDEPTH
 70
3020
  9
$CMLSTYLE
  2
Standard
  9
$CMLJUST
 70
0
  9
$CMLSCALE
 40
20.0
  9
$PROXYGRAPHICS
 70
1
  9
$MEASUREMENT
 70
1
  9
$CELWEIGHT
370
-1
  9
$ENDCAPS
280
0
  9
$JOINSTYLE
280
0
  9
$LWDISPLAY
290
0
  9
$INSUNITS
 70
4
  9
$HYPERLINKBASE
  1

  9
$STYLESHEET
  1

  9
$XEDIT
290
1
  9
$CEPSNTYPE
380
0
  9
$PSTYLEMODE
290
1
  9
$FINGERPRINTGUID
  2
{3D674A78-F59F-4FFE-954F-2699FBBC613F}
  9
$VERSIONGUID
  2
{07F7B0FE-25AF-462D-B95A-CE0BD7AB0838}
  9
$EXTNAMES
290
1
  9
$PSVPSCALE
 40
0.0
  9
$OLESTARTUP
290
0
  9
$SORTENTS
280
127
  9
$INDEXCTL
280
0
  9
$HIDETEXT
280
1
  9
$XCLIPFRAME
280
1
  9
$HALOGAP
280
0
  9
$OBSCOLOR
 70
257
  9
$OBSLTYPE
280
0
  9
$INTERSECTIONDISPLAY
280
0
  9
$INTERSECTIONCOLOR
 70
257
  9
$DIMASSOC
280
2
  9
$PROJECTNAME
  1

  9
$CAMERADISPLAY
290
0
  9
$LENSLENGTH
 40
50.0
  9
$CAMERAHEIGHT
 40
0.0
  9
$STEPSPERSEC
 40
24.0
  9
$STEPSIZE
 40
100.0
  9
$3DDWFPREC
 40
2.0
  9
$PSOLWIDTH
 40
0.005
  9
$PSOLHEIGHT
 40
0.08
  9
$LOFTANG1
 40
1.570796326795
  9
$LOFTANG2
 40
1.570796326795
  9
$LOFTMAG1
 40
0.0
  9
$LOFTMAG2
 40
0.0
  9
$LOFTPARAM
 70
7
  9
$LOFTNORMALS
280
1
  9
$LATITUDE
 40
37.795
  9
$LONGITUDE
 40
-122.394
  9
$NORTHDIRECTION
 40
0.0
  9
$TIMEZONE
 70
-8000
  9
$LIGHTGLYPHDISPLAY
280
1
  9
$TILEMODELIGHTSYNCH
280
1
  9
$CMATERIAL
347
20
  9
$SOLIDHIST
280
0
  9
$SHOWHIST
280
1
  9
$DWFFRAME
280
2
  9
$DGNFRAME
280
2
  9
$REALWORLDSCALE
290
1
  9
$INTERFERECOLOR
 62
256
  9
$CSHADOW
280
0
  9
$SHADOWPLANELOCATION
 40
0.0
  0
ENDSEC
  0
SECTION
  2
CLASSES
  0
CLASS
  1
ACDBDICTIONARYWDFLT
  2
AcDbDictionaryWithDefault
  3
ObjectDBX Classes
 90
0
 91
0
280
0
281
0
  0
CLASS
  1
SUN
  2
AcDbSun
  3
SCENEOE
 90
1153
 91
0
280
0
281
0
  0
CLASS
  1
VISUALSTYLE
  2
AcDbVisualStyle
  3
ObjectDBX Classes
 90
4095
 91
0
280
0
281
0
  0
CLASS
  1
MATERIAL
  2
AcDbMaterial
  3
ObjectDBX Classes
 90
1153
 91
0
280
0
281
0
  0
CLASS
  1
SCALE
  2
AcDbScale
  3
ObjectDBX Classes
 90
1153
 91
0
280
0
281
0
  0
CLASS
  1
TABLESTYLE
  2
AcDbTableStyle
  3
ObjectDBX Classes
 90
4095
 91
0
280
0
281
0
  0
CLASS
  1
MLEADERSTYLE
  2
AcDbMLeaderStyle
  3
ACDB_MLEADERSTYLE_CLASS
 90
4095
 91
0
280
0
281
0
  0
CLASS
  1
DICTIONARYVAR
  2
AcDbDictionaryVar
  3
ObjectDBX Classes
 90
0
 91
0
280
0
281
0
  0
CLASS
  1
CELLSTYLEMAP
  2
AcDbCellStyleMap
  3
ObjectDBX Classes
 90
1152
 91
0
280
0
281
0
  0
CLASS
  1
MENTALRAYRENDERSETTINGS
  2
AcDbMentalRayRenderSettings
  3
SCENEOE
 90
1024
 91
0
280
0
281
0
  0
CLASS
  1
ACDBDETAILVIEWSTYLE
  2
AcDbDetailViewStyle
  3
ObjectDBX Classes
 90
1025
 91
0
280
0
281
0
  0
CLASS
  1
ACDBSECTIONVIEWSTYLE
  2
AcDbSectionViewStyle
  3
ObjectDBX Classes
 90
1025
 91
0
280
0
281
0
  0
CLASS
  1
RASTERVARIABLES
  2
AcDbRasterVariables
  3
ISM
 90
0
 91
0
280
0
281
0
  0
CLASS
  1
LAYOUT
  2
AcDbLayout
  3
ObjectDBX Classes
 90
0
 91
0
280
0
281
0
  0
CLASS
  1
ACDBPLACEHOLDER
  2
AcDbPlaceHolder
  3
ObjectDBX Classes
 90
0
 91
0
280
0
281
0
  0
ENDSEC
  0
SECTION
  2
TABLES
  0
TABLE
  2
VPORT
  5
8
330
0
100
AcDbSymbolTable
 70
1
  0
VPORT
  5
D5
330
8
100
AcDbSymbolTableRecord
100
AcDbViewportTableRecord
  2
*Active
 70
0
 10
0.0
 20
0.0
 11
1.0
 21
1.0
 12
-1.5279159499960357
 22
-0.5994803022128465
 13
0.0
 23
0.0
 14
0.5
 24
0.5
 15
0.5
 25
0.5
 16
0.0
 26
0.0
 36
1.0
 17
0.0
 27
0.0
 37
0.0
 40
73.39449572603469
 41
1.34
 42
50.0
 43
0.0
 44
0.0
 50
0.0
 51
0.0
 71
0
 72
1000
 73
1
 74
3
 75
0
 76
0
 77
0
 78
0
281
0
 65
1
110
0.0
120
0.0
130
0.0
111
1.0
121
0.0
131
0.0
112
0.0
122
1.0
132
0.0
 79
0
146
0.0
  0
ENDTAB
  0
TABLE
  2
LTYPE
  5
2
330
0
100
AcDbSymbolTable
 70
3
  0
LTYPE
  5
24
330
2
100
AcDbSymbolTableRecord
100
AcDbLinetypeTableRecord
  2
ByBlock
 70
0
  3

 72
65
 73
0
 40
0.0
  0
LTYPE
  5
25
330
2
100
AcDbSymbolTableRecord
100
AcDbLinetypeTableRecord
  2
ByLayer
 70
0
  3

 72
65
 73
0
 40
0.0
  0
LTYPE
  5
26
330
2
100
AcDbSymbolTableRecord
100
AcDbLinetypeTableRecord
  2
Continuous
 70
0
  3

 72
65
 73
0
 40
0.0
  0
ENDTAB
  0
TABLE
  2
LAYER
  5
1
330
0
100
AcDbSymbolTable
 70
3
  0
LAYER
  5
27
330
1
100
AcDbSymbolTableRecord
100
AcDbLayerTableRecord
  2
0
 70
0
 62
7
  6
Continuous
370
-3
390
13
347
21
  0
LAYER
  5
28
330
1
100
AcDbSymbolTableRecord
100
AcDbLayerTableRecord
  2
Defpoints
 70
0
 62
7
  6
Continuous
290
0
370
-3
390
13
347
21
  0
LAYER
  5
2F
330
1
100
AcDbSymbolTableRecord
100
AcDbLayerTableRecord
  2
visible
 70
0
 62
7
  6
Continuous
370
-3
390
13
347
21
  0
ENDTAB
  0
TABLE
  2
STYLE
  5
5
330
0
100
AcDbSymbolTable
 70
1
  0
STYLE
  5
29
330
5
100
AcDbSymbolTableRecord
100
AcDbTextStyleTableRecord
  2
Standard
 70
0
 40
0.0
 41
1.0
 50
0.0
 71
0
 42
2.5
  3
txt
  4

  0
ENDTAB
  0
TABLE
  2
VIEW
  5
7
330
0
100
AcDbSymbolTable
 70
0
  0
ENDTAB
  0
TABLE
  2
UCS
  5
6
330
0
100
AcDbSymbolTable
 70
0
  0
ENDTAB
  0
TABLE
  2
APPID
  5
3
330
0
100
AcDbSymbolTable
 70
3
  0
APPID
  5
2A
330
3
100
AcDbSymbolTableRecord
100
AcDbRegAppTableRecord
  2
ACAD
 70
0
  0
APPID
  5
D6
330
3
100
AcDbSymbolTableRecord
100
AcDbRegAppTableRecord
  2
HATCHBACKGROUNDCOLOR
 70
0
  0
APPID
  5
D7
330
3
100
AcDbSymbolTableRecord
100
AcDbRegAppTableRecord
  2
EZDXF
 70
0
  0
ENDTAB
  0
TABLE
  2
DIMSTYLE
  5
4
330
0
100
AcDbSymbolTable
 70
1
100
AcDbDimStyleTable
  0
DIMSTYLE
105
2B
330
4
100
AcDbSymbolTableRecord
100
AcDbDimStyleTableRecord
  2
Standard
 70
0
 40
1.0
 41
2.5
 42
0.625
 43
3.75
 44
1.25
 45
0.0
 46
0.0
 47
0.0
 48
0.0
 49
2.5
140
2.5
141
2.5
142
0.0
143
0.03937007874
144
1.0
145
0.0
146
1.0
147
0.625
148
0.0
 69
0
 70
0
 71
0
 72
0
 73
0
 74
0
 75
0
 76
0
 77
1
 78
8
 79
3
170
0
171
3
172
1
173
0
174
0
175
0
176
0
177
0
178
0
179
2
271
2
272
2
273
2
274
3
275
0
276
0
277
2
278
44
279
0
280
0
281
0
282
0
283
0
284
8
285
0
286
0
288
0
289
3
290
0
371
-2
372
-2
  0
ENDTAB
  0
TABLE
  2
BLOCK_RECORD
  5
9
330
0
100
AcDbSymbolTable
 70
2
  0
BLOCK_RECORD
  5
17
330
9
100
AcDbSymbolTableRecord
100
AcDbBlockTableRecord
  2
*Model_Space
340
1A
 70
0
280
1
281
0
  0
BLOCK_RECORD
  5
1B
330
9
100
AcDbSymbolTableRecord
100
AcDbBlockTableRecord
  2
*Paper_Space
340
1E
 70
0
280
1
281
0
  0
ENDTAB
  0
ENDSEC
  0
SECTION
  2
BLOCKS
  0
BLOCK
  5
18
330
17
100
AcDbEntity
  8
0
100
AcDbBlockBegin
  2
*Model_Space
 70
0
 10
0.0
 20
0.0
 30
0.0
  3
*Model_Space
  1

  0
ENDBLK
  5
19
330
17
100
AcDbEntity
  8
0
100
AcDbBlockEnd
  0
BLOCK
  5
1C
330
1B
100
AcDbEntity
  8
0
100
AcDbBlockBegin
  2
*Paper_Space
 70
0
 10
0.0
 20
0.0
 30
0.0
  3
*Paper_Space
  1

  0
ENDBLK
  5
1D
330
1B
100
AcDbEntity
  8
0
100
AcDbBlockEnd
  0
ENDSEC
  0
SECTION
  2
ENTITIES
  0
ELLIPSE
  5
30
330
17
100
AcDbEntity
  8
visible
100
AcDbEllipse
 10
-17.85061385858627
 20
-35.626254885178255
 30
0.0
 11
-0.1441331931318231
 21
-0.7869089036461747
 31
0.0
 40
0.4517913902011324
 41
5.0975561583957285
 42
6.283185307179586
  0
ELLIPSE
  5
31
330
17
100
AcDbEntity
  8
visible
100
AcDbEllipse
 10
-15.836584252822213
 20
-34.39090126462474
 30
0.0
 11
-5.0
 21
1.4729867912735372e-16
 31
0.0
 40
0.33518339496615324
 41
-6.283185307179586
 42
-5.212508995718428
  0
ELLIPSE
  5
32
330
17
100
AcDbEntity
  8
visible
100
AcDbEllipse
 10
-14.340513789969137
 20
-36.26917800977096
 30
0.0
 11
-0.14413319313182307
 21
-0.7869089036461747
 31
0.0
 40
0.45179139020113235
 41
5.0975561583957285
 42
6.283185307179586
  0
LINE
  5
33
330
17
100
AcDbEntity
  8
visible
100
AcDbLine
 10
-14.724138476781341
 20
-36.50448346130497
 30
0.0
 11
-18.234238545398476
 21
-35.861560336712266
 31
0.0
  0
LINE
  5
34
330
17
100
AcDbEntity
  8
visible
100
AcDbLine
 10
-9.938272423441468
 20
5.650124003670108
 30
0.0
 11
-9.938272423441468
 21
13.822323038701082
 31
0.0
  0
LINE
  5
35
330
17
100
AcDbEntity
  8
visible
100
AcDbLine
 10
-9.938272423441468
 20
20.430457698133168
 30
0.0
 11
-9.938272423441468
 21
23.78525633883624
 31
0.0
  0
LINE
  5
36
330
17
100
AcDbEntity
  8
visible
100
AcDbLine
 10
-9.938272423441472
 20
5.650124003670108
 30
0.0
 11
-10.859070395362522
 21
5.085330365505354
 31
0.0
  0
ELLIPSE
  5
37
330
17
100
AcDbEntity
  8
visible
100
AcDbEllipse
 10
-10.8063549087831
 20
-28.409024152591698
 30
0.0
 11
3.2
 21
0.0
 31
0.0
 40
0.3351833949661533
 41
0.9871765444840895
 42
2.1544161091057057
  0
ELLIPSE
  5
38
330
17
100
AcDbEntity
  8
visible
100
AcDbEllipse
 10
-1.2157377384780617
 20
-22.526387864241613
 30
0.0
 11
3.2
 21
0.0
 31
0.0
 40
0.3351833949661533
 41
0.9871765444840895
 42
2.1544161091057057
  0
SPLINE
  5
39
330
17
100
AcDbEntity
  8
visible
100
AcDbSpline
 70
0
 71
2
 72
6
 73
3
 74
0
 40
0.0
 40
0.0
 40
0.0
 40
0.47306130968043403
 40
0.47306130968043403
 40
0.47306130968043403
 10
-20.401100780985164
 20
-27.563170067934344
 30
0.0
 10
-20.604128943966685
 20
-27.610291874647245
 30
0.0
 10
-20.62667268731954
 20
-27.64995569499169
 30
0.0
  0
LINE
  5
3A
330
17
100
AcDbEntity
  8
visible
100
AcDbLine
 10
0.27605479068422056
 20
-15.168191681729496
 30
0.0
 11
-0.024485283239835676
 21
-15.113143631925976
 31
0.0
  0
ELLIPSE
  5
3B
330
17
100
AcDbEntity
  8
visible
100
AcDbEllipse
 10
0.27605479068422056
 20
-14.3202540694557
 30
0.0
 11
-0.16214984227330076
 21
-0.8852725166019466
 31
0.0
 40
0.4517913902011324
 41
0.38516717801103895
 42
3.141592653589793
  0
ELLIPSE
  5
3C
330
17
100
AcDbEntity
  8
visible
100
AcDbEllipse
 10
0.27605479068422056
 20
-14.3202540694557
 30
0.0
 11
-0.16214984227330076
 21
-0.8852725166019466
 31
0.0
 40
0.4517913902011324
 41
3.141592653589793
 42
6.283185307179586
  0
ELLIPSE
  5
3D
330
17
100
AcDbEntity
  8
visible
100
AcDbEllipse
 10
0.27605479068422056
 20
-14.3202540694557
 30
0.0
 11
-0.16214984227330076
 21
-0.8852725166019466
 31
0.0
 40
0.4517913902011324
 41
0.0
 42
0.38516717801103884
  0
LINE
  5
3E
330
17
100
AcDbEntity
  8
visible
100
AcDbLine
 10
-9.938272423441468
 20
5.650124003670111
 30
0.0
 11
-4.673122320515769
 21
4.685739316781053
 31
0.0
  0
LINE
  5
3F
330
17
100
AcDbEntity
  8
visible
100
AcDbLine
 10
-4.673122320515773
 20
4.685739316781046
 30
0.0
 11
-4.673122320515773
 21
12.857938351812027
 31
0.0
  0
LINE
  5
40
330
17
100
AcDbEntity
  8
visible
100
AcDbLine
 10
-4.673122320515773
 20
19.466073011244113
 30
0.0
 11
-4.673122320515773
 21
27.014763106657277
 31
0.0
  0
LINE
  5
41
330
17
100
AcDbEntity
  8
visible
100
AcDbLine
 10
-4.673122320515773
 20
4.68573931678106
 30
0.0
 11
-10.859070395362524
 21
0.8914389107952516
 31
0.0
  0
LINE
  5
42
330
17
100
AcDbEntity
  8
visible
100
AcDbLine
 10
-4.673122320515773
 20
27.01476310665729
 30
0.0
 11
-10.859070395362524
 21
23.220462700671483
 31
0.0
  0
LINE
  5
43
330
17
100
AcDbEntity
  8
visible
100
AcDbLine
 10
-10.859070395362522
 20
0.8914389107952374
 30
0.0
 11
-10.859070395362522
 21
13.99097985692659
 31
0.0
  0
LINE
  5
44
330
17
100
AcDbEntity
  8
visible
100
AcDbLine
 10
-10.859070395362522
 20
20.599114516358675
 30
0.0
 11
-10.859070395362522
 21
23.22046270067147
 31
0.0
  0
LINE
  5
45
330
17
100
AcDbEntity
  8
visible
100
AcDbLine
 10
-9.314562379620817
 20
-21.05082797007958
 30
0.0
 11
-9.615102453544864
 21
-20.995779920276064
 31
0.0
  0
ELLIPSE
  5
46
330
17
100
AcDbEntity
  8
visible
100
AcDbEllipse
 10
-9.314562379620817
 20
-20.202890357805785
 30
0.0
 11
-0.16214984227330076
 21
-0.8852725166019466
 31
0.0
 40
0.4517913902011324
 41
0.38516717801103895
 42
3.141592653589793
  0
ELLIPSE
  5
47
330
17
100
AcDbEntity
  8
visible
100
AcDbEllipse
 10
-9.314562379620817
 20
-20.202890357805785
 30
0.0
 11
-0.16214984227330076
 21
-0.8852725166019466
 31
0.0
 40
0.4517913902011324
 41
3.141592653589793
 42
6.283185307179586
  0
ELLIPSE
  5
48
330
17
100
AcDbEntity
  8
visible
100
AcDbEllipse
 10
-9.314562379620817
 20
-20.202890357805785
 30
0.0
 11
-0.16214984227330076
 21
-0.8852725166019466
 31
0.0
 40
0.4517913902011324
 41
0.0
 42
0.38516717801103884
  0
SPLINE
  5
49
330
17
100
AcDbEntity
  8
visible
100
AcDbSpline
 70
0
 71
2
 72
6
 73
3
 74
0
 40
0.0
 40
0.0
 40
0.0
 40
1.0
 40
1.0
 40
1.0
 10
-20.401100780985207
 20
-27.56317006793431
 30
0.0
 10
-20.23822753238246
 20
-27.527746670233995
 30
0.0
 10
-20.034583733852713
 20
-27.56395517110684
 30
0.0
  0
LINE
  5
4A
330
17
100
AcDbEntity
  8
visible
100
AcDbLine
 10
-13.759272643730874
 20
-27.032213112416184
 30
0.0
 11
-13.759272643730874
 21
-26.84378253191091
 31
0.0
  0
ELLIPSE
  5
4B
330
17
100
AcDbEntity
  8
visible
100
AcDbEllipse
 10
-10.8063549087831
 20
-26.618933637791486
 30
0.0
 11
3.2
 21
0.0
 31
0.0
 40
0.3351833949661533
 41
3.5371374321139117
 42
5.783065291845848
  0
ELLIPSE
  5
4C
330
17
100
AcDbEntity
  8
visible
100
AcDbEllipse
 10
-10.8063549087831
 20
-26.618933637791486
 30
0.0
 11
3.2
 21
0.0
 31
0.0
 40
0.3351833949661533
 41
5.783065291845848
 42
6.283185307179586
  0
ELLIPSE
  5
4D
330
17
100
AcDbEntity
  8
visible
100
AcDbEllipse
 10
-10.8063549087831
 20
-26.618933637791486
 30
0.0
 11
3.2
 21
0.0
 31
0.0
 40
0.3351833949661533
 41
0.0
 42
1.7458078443981981
  0
LINE
  5
4E
330
17
100
AcDbEntity
  8
visible
100
AcDbLine
 10
-11.363537242452463
 20
-25.562731038574103
 30
0.0
 11
-11.363537242452463
 21
-25.37430045806883
 31
0.0
  0
LINE
  5
4F
330
17
100
AcDbEntity
  8
visible
100
AcDbLine
 10
-4.168655473425829
 20
-21.14957682406609
 30
0.0
 11
-4.168655473425829
 21
-20.96114624356082
 31
0.0
  0
ELLIPSE
  5
50
330
17
100
AcDbEntity
  8
visible
100
AcDbEllipse
 10
-1.2157377384780617
 20
-20.7362973494414
 30
0.0
 11
3.2
 21
0.0
 31
0.0
 40
0.3351833949661533
 41
3.537137432113911
 42
5.783065291845848
  0
ELLIPSE
  5
51
330
17
100
AcDbEntity
  8
visible
100
AcDbEllipse
 10
-1.2157377384780617
 20
-20.7362973494414
 30
0.0
 11
3.2
 21
0.0
 31
0.0
 40
0.3351833949661533
 41
5.783065291845848
 42
6.283185307179586
  0
ELLIPSE
  5
52
330
17
100
AcDbEntity
  8
visible
100
AcDbEllipse
 10
-1.2157377384780617
 20
-20.7362973494414
 30
0.0
 11
3.2
 21
0.0
 31
0.0
 40
0.3351833949661533
 41
0.0
 42
1.745807844398199
  0
LINE
  5
53
330
17
100
AcDbEntity
  8
visible
100
AcDbLine
 10
-1.7729200721474214
 20
-19.680094750224004
 30
0.0
 11
-1.7729200721474214
 21
-19.49166416971873
 31
0.0
  0
SPLINE
  5
54
330
17
100
AcDbEntity
  8
visible
100
AcDbSpline
 70
0
 71
3
 72
11
 73
7
 74
0
 40
0.0
 40
0.0
 40
0.0
 40
0.0
 40
0.4840802426547395
 40
0.4840802426547395
 40
0.4840802426547395
 40
1.0
 40
1.0
 40
1.0
 40
1.0
 10
-16.571866040530896
 20
-28.198199561709053
 30
0.0
 10
-16.385383843117662
 20
-28.232852033849973
 30
0.0
 10
-16.150360965204325
 20
-28.234390539382343
 30
0.0
 10
-15.941077999775207
 20
-28.20584493570511
 30
0.0
 10
-15.716729113997324
 20
-28.175943495740132
 30
0.0
 10
-15.522736491835673
 20
-28.1142764929172
 30
0.0
 10
-15.401323015602792
 20
-28.039404300776923
 30
0.0
  0
LINE
  5
55
330
17
100
AcDbEntity
  8
visible
100
AcDbLine
 10
-13.759272643730855
 20
-27.032213112416166
 30
0.0
 11
-15.401323015602792
 21
-28.039404300776923
 31
0.0
  0
LINE
  5
56
330
17
100
AcDbEntity
  8
visible
100
AcDbLine
 10
-4.168655473425808
 20
-21.149576824066074
 30
0.0
 11
-11.363537242452482
 21
-25.562731038574107
 31
0.0
  0
LINE
  5
57
330
17
100
AcDbEntity
  8
visible
100
AcDbLine
 10
-0.13086970027550038
 20
-18.672903561863258
 30
0.0
 11
-1.772920072147441
 21
-19.680094750224015
 31
0.0
  0
SPLINE
  5
58
330
17
100
AcDbEntity
  8
visible
100
AcDbSpline
 70
0
 71
2
 72
6
 73
3
 74
0
 40
0.0
 40
0.0
 40
0.0
 40
1.0
 40
1.0
 40
1.0
 10
0.007397527569167811
 20
-18.52506978318376
 30
0.0
 10
-0.016586307346473095
 20
-18.602705526029318
 30
0.0
 10
-0.13086970027550393
 20
-18.672903561863258
 30
0.0
  0
LINE
  5
59
330
17
100
AcDbEntity
  8
visible
100
AcDbLine
 10
-16.57186551401589
 20
-28.198199658147523
 30
0.0
 11
-20.034583733852717
 21
-27.563955171106826
 31
0.0
  0
ELLIPSE
  5
5A
330
17
100
AcDbEntity
  8
visible
100
AcDbEllipse
 10
-6.807034640908647
 20
-13.252145986968216
 30
0.0
 11
3.098863652334196
 21
16.918541428392757
 31
0.0
 40
0.4517913902011324
 41
-1.3910553466323765
 42
-1.1856291487838575
  0
ELLIPSE
  5
5B
330
17
100
AcDbEntity
  8
visible
100
AcDbEllipse
 10
-6.807034640908647
 20
-13.252145986968216
 30
0.0
 11
3.098863652334196
 21
16.918541428392757
 31
0.0
 40
0.4517913902011324
 41
-1.813235950149211
 42
-1.7215832461523108
  0
LINE
  5
5C
330
17
100
AcDbEntity
  8
visible
100
AcDbLine
 10
-1.7729200721474179
 20
-19.49166416971873
 30
0.0
 11
-4.168655473425832
 21
-20.961146243560815
 31
0.0
  0
LINE
  5
5D
330
17
100
AcDbEntity
  8
visible
100
AcDbLine
 10
-11.363537242452463
 20
-25.37430045806882
 30
0.0
 11
-13.759272643730876
 21
-26.843782531910904
 31
0.0
  0
ELLIPSE
  5
5E
330
17
100
AcDbEntity
  8
visible
100
AcDbEllipse
 10
-8.725158074969649
 20
-14.428673244638233
 30
0.0
 11
3.0988636523341966
 21
16.918541428392757
 31
0.0
 40
0.45179139020113235
 41
-4.32722180237365
 42
-3.699615001008297
  0
LINE
  5
5F
330
17
100
AcDbEntity
  8
visible
100
AcDbLine
 10
-16.973088841431988
 20
-19.487740452619306
 30
0.0
 11
-16.973088841431988
 21
11.132228879489446
 31
0.0
  0
ELLIPSE
  5
60
330
17
100
AcDbEntity
  8
visible
100
AcDbEllipse
 10
-8.725158074969649
 20
16.19129608747052
 30
0.0
 11
-3.098863652334196
 21
-16.918541428392757
 31
0.0
 40
0.4517913902011324
 41
3.526759831600832
 42
5.0975561583957285
  0
LINE
  5
61
330
17
100
AcDbEntity
  8
visible
100
AcDbLine
 10
-8.725158074969649
 20
32.396326010924994
 30
0.0
 11
-6.80703464090864
 21
33.57285326859501
 31
0.0
  0
ELLIPSE
  5
62
330
17
100
AcDbEntity
  8
visible
100
AcDbEllipse
 10
-6.807034640908647
 20
17.367823345140536
 30
0.0
 11
-3.098863652334196
 21
-16.918541428392757
 31
0.0
 40
0.4517913902011324
 41
2.188572909566219
 42
3.526759831600832
  0
LINE
  5
63
330
17
100
AcDbEntity
  8
visible
100
AcDbLine
 10
1.4408961255536923
 20
-8.193078778987129
 30
0.0
 11
1.4408961255536923
 21
11.738071747919722
 31
0.0
  0
LINE
  5
64
330
17
100
AcDbEntity
  8
visible
100
AcDbLine
 10
1.4408961255536923
 20
18.346206407351808
 30
0.0
 11
1.4408961255536923
 21
19.37736153257146
 31
0.0
  0
ELLIPSE
  5
65
330
17
100
AcDbEntity
  8
visible
100
AcDbEllipse
 10
-2.970787772786629
 20
-13.725550179207445
 30
0.0
 11
-0.5855410970980305
 21
-3.1968174210625846
 31
0.0
 40
0.4517913902011324
 41
3.141592653589793
 42
6.283185307179586
  0
ELLIPSE
  5
66
330
17
100
AcDbEntity
  8
visible
100
AcDbEllipse
 10
-2.970787772786629
 20
23.489489470586264
 30
0.0
 11
-0.5855410970980305
 21
-3.1968174210625846
 31
0.0
 40
0.4517913902011324
 41
3.141592653589793
 42
6.283185307179586
  0
ELLIPSE
  5
67
330
17
100
AcDbEntity
  8
visible
100
AcDbEllipse
 10
-7.766096357939148
 20
0.7629603733563357
 30
0.0
 11
-0.20719146512699538
 21
-1.1311815489913761
 31
0.0
 40
0.45179139020113246
 41
0.38516717801103895
 42
3.141592653589793
  0
ELLIPSE
  5
68
330
17
100
AcDbEntity
  8
visible
100
AcDbEllipse
 10
-7.766096357939148
 20
0.7629603733563357
 30
0.0
 11
-0.20719146512699538
 21
-1.1311815489913761
 31
0.0
 40
0.45179139020113246
 41
3.141592653589793
 42
6.283185307179586
  0
ELLIPSE
  5
69
330
17
100
AcDbEntity
  8
visible
100
AcDbEllipse
 10
-7.766096357939148
 20
0.7629603733563357
 30
0.0
 11
-0.20719146512699538
 21
-1.1311815489913761
 31
0.0
 40
0.45179139020113246
 41
0.0
 42
0.38516717801103884
  0
ELLIPSE
  5
6A
330
17
100
AcDbEntity
  8
visible
100
AcDbEllipse
 10
-12.56140494309167
 20
-19.60818646755753
 30
0.0
 11
-0.5855410970980305
 21
-3.1968174210625846
 31
0.0
 40
0.4517913902011324
 41
3.141592653589793
 42
6.283185307179586
  0
ELLIPSE
  5
6B
330
17
100
AcDbEntity
  8
visible
100
AcDbEllipse
 10
-7.766096357939148
 20
27.14324164409618
 30
0.0
 11
-0.20719146512699538
 21
-1.1311815489913761
 31
0.0
 40
0.45179139020113246
 41
0.38516717801103895
 42
3.141592653589793
  0
ELLIPSE
  5
6C
330
17
100
AcDbEntity
  8
visible
100
AcDbEllipse
 10
-7.766096357939148
 20
27.14324164409618
 30
0.0
 11
-0.20719146512699538
 21
-1.1311815489913761
 31
0.0
 40
0.45179139020113246
 41
3.141592653589793
 42
6.283185307179586
  0
ELLIPSE
  5
6D
330
17
100
AcDbEntity
  8
visible
100
AcDbEllipse
 10
-7.766096357939148
 20
27.14324164409618
 30
0.0
 11
-0.20719146512699538
 21
-1.1311815489913761
 31
0.0
 40
0.45179139020113246
 41
0.0
 42
0.38516717801103884
  0
ELLIPSE
  5
6E
330
17
100
AcDbEntity
  8
visible
100
AcDbEllipse
 10
-12.56140494309167
 20
17.60685318223618
 30
0.0
 11
-0.5855410970980305
 21
-3.1968174210625846
 31
0.0
 40
0.4517913902011324
 41
3.141592653589793
 42
6.283185307179586
  0
ELLIPSE
  5
6F
330
17
100
AcDbEntity
  8
visible
100
AcDbEllipse
 10
17.826555133769887
 20
19.68016995737449
 30
0.0
 11
-0.16214984227330076
 21
-0.8852725166019466
 31
0.0
 40
0.4517913902011324
 41
0.38516717801103895
 42
3.141592653589793
  0
ELLIPSE
  5
70
330
17
100
AcDbEntity
  8
visible
100
AcDbEllipse
 10
17.826555133769887
 20
19.68016995737449
 30
0.0
 11
-0.16214984227330076
 21
-0.8852725166019466
 31
0.0
 40
0.4517913902011324
 41
3.141592653589793
 42
6.283185307179586
  0
ELLIPSE
  5
71
330
17
100
AcDbEntity
  8
visible
100
AcDbEllipse
 10
17.826555133769887
 20
19.68016995737449
 30
0.0
 11
-0.16214984227330076
 21
-0.8852725166019466
 31
0.0
 40
0.4517913902011324
 41
0.0
 42
0.38516717801103884
  0
ELLIPSE
  5
72
330
17
100
AcDbEntity
  8
visible
100
AcDbEllipse
 10
8.235937963464849
 20
13.797533669024403
 30
0.0
 11
-0.16214984227330076
 21
-0.8852725166019466
 31
0.0
 40
0.4517913902011324
 41
0.38516717801103895
 42
3.141592653589793
  0
ELLIPSE
  5
73
330
17
100
AcDbEntity
  8
visible
100
AcDbEllipse
 10
8.235937963464849
 20
13.797533669024403
 30
0.0
 11
-0.16214984227330076
 21
-0.8852725166019466
 31
0.0
 40
0.4517913902011324
 41
3.141592653589793
 42
6.283185307179586
  0
ELLIPSE
  5
74
330
17
100
AcDbEntity
  8
visible
100
AcDbEllipse
 10
8.235937963464849
 20
13.797533669024403
 30
0.0
 11
-0.16214984227330076
 21
-0.8852725166019466
 31
0.0
 40
0.4517913902011324
 41
0.0
 42
0.38516717801103884
  0
ELLIPSE
  5
75
330
17
100
AcDbEntity
  8
visible
100
AcDbEllipse
 10
2.059441571252485
 20
-26.20986995669231
 30
0.0
 11
-5.0
 21
1.4729867912735372e-16
 31
0.0
 40
0.33518339496615324
 41
-3.6417126689235317
 42
-3.141592653589793
  0
ELLIPSE
  5
76
330
17
100
AcDbEntity
  8
visible
100
AcDbEllipse
 10
5.745046643300476
 20
-26.884939237514644
 30
0.0
 11
0.41828304963127305
 21
-0.6819378933533186
 31
0.0
 40
0.826762741951457
 41
-6.283185307179586
 42
-5.350684992096421
  0
LINE
  5
77
330
17
100
AcDbEntity
  8
visible
100
AcDbLine
 10
6.447066657023903
 20
-27.01352386243319
 30
0.0
 11
-7.938859098433662
 21
-35.83747829495833
 31
0.0
  0
ELLIPSE
  5
78
330
17
100
AcDbEntity
  8
visible
100
AcDbEllipse
 10
-8.640879112157087
 20
-35.708893670039785
 30
0.0
 11
0.4182830496312733
 21
-0.6819378933533184
 31
0.0
 40
0.8267627419514573
 41
-6.283185307179586
 42
-5.350684992096421
  0
ELLIPSE
  5
79
330
17
100
AcDbEntity
  8
visible
100
AcDbEllipse
 10
-12.326484184205079
 20
-35.03382438921744
 30
0.0
 11
-5.0
 21
-0.0
 31
0.0
 40
0.3351833949661533
 41
-5.212508995718428
 42
-3.6417126689235313
  0
LINE
  5
7A
330
17
100
AcDbEntity
  8
visible
100
AcDbLine
 10
6.447066657023903
 20
-27.01352386243319
 30
0.0
 11
6.447066657023903
 21
-20.98374528626408
 31
0.0
  0
ELLIPSE
  5
7B
330
17
100
AcDbEntity
  8
visible
100
AcDbEllipse
 10
2.059441571252485
 20
-20.1800913805232
 30
0.0
 11
-5.0
 21
1.4729867912735372e-16
 31
0.0
 40
0.33518339496615324
 41
-3.6417126689235317
 42
-3.1415926535897936
  0
LINE
  5
7C
330
17
100
AcDbEntity
  8
visible
100
AcDbLine
 10
-7.93885909843366
 20
-35.83747829495832
 30
0.0
 11
-7.93885909843366
 21
-29.807699718789216
 31
0.0
  0
LINE
  5
7D
330
17
100
AcDbEntity
  8
visible
100
AcDbLine
 10
6.447066657023903
 20
-20.98374528626408
 30
0.0
 11
-7.938859098433662
 21
-29.80769971878922
 31
0.0
  0
ELLIPSE
  5
7E
330
17
100
AcDbEntity
  8
visible
100
AcDbEllipse
 10
-15.836584252822213
 20
-28.36112268845563
 30
0.0
 11
-5.0
 21
1.4729867912735372e-16
 31
0.0
 40
0.33518339496615324
 41
-6.283185307179586
 42
-5.212508995718428
  0
LINE
  5
7F
330
17
100
AcDbEntity
  8
visible
100
AcDbLine
 10
-18.234238545398476
 20
-35.861560336712266
 30
0.0
 11
-18.234238545398476
 21
-29.83178176054316
 31
0.0
  0
ELLIPSE
  5
80
330
17
100
AcDbEntity
  8
visible
100
AcDbEllipse
 10
-12.326484184205079
 20
-29.004045813048336
 30
0.0
 11
-5.0
 21
-0.0
 31
0.0
 40
0.3351833949661533
 41
-5.212508995718428
 42
-3.6417126689235313
  0
LINE
  5
81
330
17
100
AcDbEntity
  8
visible
100
AcDbLine
 10
-14.724138476781341
 20
-36.504483461304964
 30
0.0
 11
-14.724138476781341
 21
-30.474704885135857
 31
0.0
  0
LINE
  5
82
330
17
100
AcDbEntity
  8
visible
100
AcDbLine
 10
-14.724138476781341
 20
-30.474704885135864
 30
0.0
 11
-18.234238545398476
 21
-29.83178176054316
 31
0.0
  0
ELLIPSE
  5
83
330
17
100
AcDbEntity
  8
visible
100
AcDbEllipse
 10
0.5633711083994086
 20
-18.301814635376978
 30
0.0
 11
-0.14413319313182307
 21
-0.7869089036461747
 31
0.0
 40
0.45179139020113235
 41
3.141592653589793
 42
3.526759831600832
  0
LINE
  5
84
330
17
100
AcDbEntity
  8
visible
100
AcDbLine
 10
0.5633711083994086
 20
-17.54809231335583
 30
0.0
 11
4.073471177016545
 21
-18.191015437948536
 31
0.0
  0
ELLIPSE
  5
85
330
17
100
AcDbEntity
  8
visible
100
AcDbEllipse
 10
4.073471177016543
 20
-18.944737759969684
 30
0.0
 11
-0.1441331931318231
 21
-0.7869089036461747
 31
0.0
 40
0.4517913902011324
 41
3.141592653589793
 42
3.526759831600832
  0
ELLIPSE
  5
86
330
17
100
AcDbEntity
  8
visible
100
AcDbEllipse
 10
-1.4506584973646497
 20
-18.78344593390935
 30
0.0
 11
-4.2
 21
-0.0
 31
0.0
 40
0.3351833949661533
 41
-2.0709163421286347
 42
-1.99849562015917
  0
ELLIPSE
  5
87
330
17
100
AcDbEntity
  8
visible
100
AcDbEllipse
 10
2.059441571252485
 20
-19.426369058502054
 30
0.0
 11
-4.2
 21
1.2373089046697714e-16
 31
0.0
 40
0.33518339496615324
 41
-3.6417126689235317
 42
-2.070916342128635
  0
ELLIPSE
  5
88
330
17
100
AcDbEntity
  8
visible
100
AcDbEllipse
 10
5.745046643300476
 20
-20.855160661345536
 30
0.0
 11
-0.41828304963127305
 21
0.6819378933533186
 31
0.0
 40
0.826762741951457
 41
4.074092968672958
 42
5.644889295467855
  0
ELLIPSE
  5
89
330
17
100
AcDbEntity
  8
visible
100
AcDbEllipse
 10
-11.370164730110918
 20
34.40865333056553
 30
0.0
 11
-0.4182830496312733
 21
0.6819378933533184
 31
0.0
 40
0.8267627419514573
 41
5.644889295467855
 42
6.283185307179586
  0
ELLIPSE
  5
8A
330
17
100
AcDbEntity
  8
visible
100
AcDbEllipse
 10
-11.370164730110918
 20
18.203623407111053
 30
0.0
 11
3.2429968454660196
 21
17.705450332038932
 31
0.0
 40
0.4517913902011324
 41
-6.283185307179586
 42
-5.898018129168547
  0
ELLIPSE
  5
8B
330
17
100
AcDbEntity
  8
visible
100
AcDbEllipse
 10
-13.288288164171927
 20
33.23212607289551
 30
0.0
 11
-0.4182830496312733
 21
0.6819378933533184
 31
0.0
 40
0.8267627419514573
 41
5.644889295467855
 42
6.283185307179586
  0
LINE
  5
8C
330
17
100
AcDbEntity
  8
visible
100
AcDbLine
 10
-13.288288164171927
 20
33.98584839491666
 30
0.0
 11
-11.370164730110918
 21
35.162375652586675
 31
0.0
  0
ELLIPSE
  5
8D
330
17
100
AcDbEntity
  8
visible
100
AcDbEllipse
 10
-21.536218930634263
 20
11.968028941459963
 30
0.0
 11
-0.8
 21
-0.0
 31
0.0
 40
0.3351833949661533
 41
-6.283185307179586
 42
-5.212508995718428
  0
ELLIPSE
  5
8E
330
17
100
AcDbEntity
  8
visible
100
AcDbEllipse
 10
-13.288288164171927
 20
17.027096149441036
 30
0.0
 11
3.2429968454660196
 21
17.705450332038932
 31
0.0
 40
0.4517913902011324
 41
-5.898018129168547
 42
-4.327221802373651
  0
ELLIPSE
  5
8F
330
17
100
AcDbEntity
  8
visible
100
AcDbEllipse
 10
-21.536218930634263
 20
-18.65194039064879
 30
0.0
 11
-0.8
 21
-9.427115464150639e-17
 31
0.0
 40
0.33518339496615346
 41
-6.283185307179586
 42
-5.212508995718428
  0
LINE
  5
90
330
17
100
AcDbEntity
  8
visible
100
AcDbLine
 10
-21.919843617446467
 20
-18.887245842182793
 30
0.0
 11
-21.919843617446467
 21
11.73272348992596
 31
0.0
  0
ELLIPSE
  5
91
330
17
100
AcDbEntity
  8
visible
100
AcDbEllipse
 10
-13.288288164171927
 20
-13.592873182667716
 30
0.0
 11
3.24299684546602
 21
17.705450332038932
 31
0.0
 40
0.4517913902011323
 41
-4.32722180237365
 42
-3.724944487398384
  0
LINE
  5
92
330
17
100
AcDbEntity
  8
visible
100
AcDbLine
 10
5.745046643300476
 20
-20.10143833932439
 30
0.0
 11
-8.640879112157089
 21
-28.925392771849527
 31
0.0
  0
ELLIPSE
  5
93
330
17
100
AcDbEntity
  8
visible
100
AcDbEllipse
 10
-8.640879112157087
 20
-29.679115093870678
 30
0.0
 11
-0.4182830496312733
 21
0.6819378933533184
 31
0.0
 40
0.8267627419514573
 41
4.074092968672958
 42
5.644889295467855
  0
ELLIPSE
  5
94
330
17
100
AcDbEntity
  8
visible
100
AcDbEllipse
 10
-17.85061385858627
 20
-29.596476309009148
 30
0.0
 11
0.1441331931318231
 21
0.7869089036461747
 31
0.0
 40
0.4517913902011324
 41
-5.898018129168547
 42
-4.327221802373651
  0
ELLIPSE
  5
95
330
17
100
AcDbEntity
  8
visible
100
AcDbEllipse
 10
-15.836584252822213
 20
-27.607400366434483
 30
0.0
 11
-4.2
 21
1.2373089046697714e-16
 31
0.0
 40
0.33518339496615324
 41
-6.314051206086681
 42
-5.212508995718428
  0
ELLIPSE
  5
96
330
17
100
AcDbEntity
  8
visible
100
AcDbEllipse
 10
-12.326484184205079
 20
-28.25032349102719
 30
0.0
 11
-4.2
 21
-0.0
 31
0.0
 40
0.3351833949661533
 41
-5.212508995718428
 42
-3.6417126689235313
  0
ELLIPSE
  5
97
330
17
100
AcDbEntity
  8
visible
100
AcDbEllipse
 10
-14.340513789969137
 20
-30.239399433601854
 30
0.0
 11
0.14413319313182307
 21
0.7869089036461747
 31
0.0
 40
0.45179139020113235
 41
-5.898018129168547
 42
-4.327221802373651
  0
LINE
  5
98
330
17
100
AcDbEntity
  8
visible
100
AcDbLine
 10
-14.340513789969137
 20
-29.485677111580706
 30
0.0
 11
-17.85061385858627
 21
-28.842753986988
 31
0.0
  0
LINE
  5
99
330
17
100
AcDbEntity
  8
visible
100
AcDbLine
 10
-11.370164730110918
 20
35.16237565258668
 30
0.0
 11
-7.509054654632066
 21
34.455160215534704
 31
0.0
  0
ELLIPSE
  5
9A
330
17
100
AcDbEntity
  8
visible
100
AcDbEllipse
 10
-7.509054654632067
 20
17.49640797005908
 30
0.0
 11
3.2429968454660196
 21
17.705450332038932
 31
0.0
 40
0.4517913902011324
 41
-6.283185307179586
 42
-5.898018129168547
  0
LINE
  5
9B
330
17
100
AcDbEntity
  8
visible
100
AcDbLine
 10
-13.288288164171927
 20
33.985848394916665
 30
0.0
 11
-9.427178088693076
 21
33.27863295786469
 31
0.0
  0
LINE
  5
9C
330
17
100
AcDbEntity
  8
visible
100
AcDbLine
 10
-9.427178088693069
 20
33.27863295786469
 30
0.0
 11
-7.50905465463206
 21
34.455160215534704
 31
0.0
  0
LINE
  5
9D
330
17
100
AcDbEntity
  8
visible
100
AcDbLine
 10
-21.919843617446464
 20
11.73272348992595
 30
0.0
 11
-18.058733541967612
 21
11.025508052873974
 31
0.0
  0
ELLIPSE
  5
9E
330
17
100
AcDbEntity
  8
visible
100
AcDbEllipse
 10
-9.427178088693069
 20
16.319880712389065
 30
0.0
 11
3.2429968454660196
 21
17.705450332038932
 31
0.0
 40
0.4517913902011324
 41
-5.898018129168547
 42
-4.327221802373651
  0
LINE
  5
9F
330
17
100
AcDbEntity
  8
visible
100
AcDbLine
 10
-21.919843617446464
 20
-18.887245842182796
 30
0.0
 11
-18.058733541967612
 21
-19.59446127923477
 31
0.0
  0
LINE
  5
A0
330
17
100
AcDbEntity
  8
visible
100
AcDbLine
 10
-18.058733541967612
 20
-19.59446127923478
 30
0.0
 11
-18.058733541967612
 21
11.025508052873974
 31
0.0
  0
ELLIPSE
  5
A1
330
17
100
AcDbEntity
  8
visible
100
AcDbEllipse
 10
-9.427178088693069
 20
-14.300088619719688
 30
0.0
 11
3.24299684546602
 21
17.705450332038932
 31
0.0
 40
0.4517913902011323
 41
-4.32722180237365
 42
-3.7314942698042897
  0
ELLIPSE
  5
A2
330
17
100
AcDbEntity
  8
visible
100
AcDbEllipse
 10
0.27605479068422056
 20
-14.3202540694557
 30
0.0
 11
-0.5134745005321191
 21
-2.8033629692394975
 31
0.0
 40
0.4517913902011324
 41
0.38516717801103895
 42
6.668352485190625
  0
ELLIPSE
  5
A3
330
17
100
AcDbEntity
  8
visible
100
AcDbEllipse
 10
-9.314562379620817
 20
-20.202890357805785
 30
0.0
 11
-0.5134745005321191
 21
-2.8033629692394975
 31
0.0
 40
0.4517913902011324
 41
0.38516717801103895
 42
6.668352485190625
  0
ELLIPSE
  5
A4
330
17
100
AcDbEntity
  8
visible
100
AcDbEllipse
 10
-17.675108855155408
 20
-19.359155827700768
 30
0.0
 11
0.8
 21
9.427115464150639e-17
 31
0.0
 40
0.33518339496615346
 41
4.212268965050951
 42
5.783065291845848
  0
ELLIPSE
  5
A5
330
17
100
AcDbEntity
  8
visible
100
AcDbEllipse
 10
0.7388761118302725
 20
-8.064494154068598
 30
0.0
 11
-0.8
 21
-0.0
 31
0.0
 40
0.3351833949661533
 41
-3.6417126689235313
 42
-3.141592653589793
  0
ELLIPSE
  5
A6
330
17
100
AcDbEntity
  8
visible
100
AcDbEllipse
 10
-7.509054654632067
 20
33.70143789351356
 30
0.0
 11
0.4182830496312733
 21
-0.6819378933533184
 31
0.0
 40
0.8267627419514573
 41
-5.350684992096421
 42
-3.7798886653015247
  0
ELLIPSE
  5
A7
330
17
100
AcDbEntity
  8
visible
100
AcDbEllipse
 10
-9.427178088693076
 20
32.52491063584354
 30
0.0
 11
0.4182830496312733
 21
-0.6819378933533184
 31
0.0
 40
0.8267627419514573
 41
-5.350684992096422
 42
-3.779888665301525
  0
ELLIPSE
  5
A8
330
17
100
AcDbEntity
  8
visible
100
AcDbEllipse
 10
-17.675108855155408
 20
11.260813504407977
 30
0.0
 11
0.8
 21
0.0
 31
0.0
 40
0.3351833949661533
 41
4.212268965050951
 42
5.783065291845848
  0
ELLIPSE
  5
A9
330
17
100
AcDbEntity
  8
visible
100
AcDbEllipse
 10
-0.0749552161774929
 20
-14.255961756996427
 30
0.0
 11
-0.5855410970980305
 21
-3.1968174210625846
 31
0.0
 40
0.4517913902011324
 41
3.141592653589793
 42
6.283185307179586
  0
ELLIPSE
  5
AA
330
17
100
AcDbEntity
  8
visible
100
AcDbEllipse
 10
17.47554512690818
 20
19.74446226983376
 30
0.0
 11
-0.5855410970980305
 21
-3.1968174210625846
 31
0.0
 40
0.4517913902011324
 41
3.141592653589793
 42
6.283185307179586
  0
ELLIPSE
  5
AB
330
17
100
AcDbEntity
  8
visible
100
AcDbEllipse
 10
-9.66557238648253
 20
-20.138598045346512
 30
0.0
 11
-0.5855410970980305
 21
-3.1968174210625846
 31
0.0
 40
0.4517913902011324
 41
3.141592653589793
 42
6.283185307179586
  0
ELLIPSE
  5
AC
330
17
100
AcDbEntity
  8
visible
100
AcDbEllipse
 10
7.884927956603143
 20
13.861825981483662
 30
0.0
 11
-0.5855410970980305
 21
-3.1968174210625846
 31
0.0
 40
0.4517913902011324
 41
3.141592653589793
 42
6.283185307179586
  0
ELLIPSE
  5
AD
330
17
100
AcDbEntity
  8
visible
100
AcDbEllipse
 10
17.826555133769887
 20
19.68016995737449
 30
0.0
 11
-0.5134745005321191
 21
-2.8033629692394975
 31
0.0
 40
0.4517913902011324
 41
0.38516717801103895
 42
6.668352485190625
  0
ELLIPSE
  5
AE
330
17
100
AcDbEntity
  8
visible
100
AcDbEllipse
 10
8.235937963464849
 20
13.797533669024403
 30
0.0
 11
-0.5134745005321191
 21
-2.8033629692394975
 31
0.0
 40
0.4517913902011324
 41
0.38516717801103895
 42
6.668352485190625
  0
SPLINE
  5
AF
330
17
100
AcDbEntity
  8
visible
100
AcDbSpline
 70
0
 71
3
 72
14
 73
10
 74
0
 40
0.0
 40
0.0
 40
0.0
 40
0.0
 40
0.5
 40
0.5
 40
0.5
 40
0.75
 40
0.75
 40
0.75
 40
1.0
 40
1.0
 40
1.0
 40
1.0
 10
7.059441571252492
 20
-26.2098699566923
 30
0.0
 10
7.059417085252174
 20
-26.281110395791924
 30
0.0
 10
7.053492122898506
 20
-26.35182366095065
 30
0.0
 10
7.041666684191483
 20
-26.422009752168407
 30
0.0
 10
7.001274248521582
 20
-26.66459544939798
 30
0.0
 10
6.8899462968389855
 20
-26.89032476648641
 30
0.0
 10
6.736378683753909
 20
-27.07980632187089
 30
0.0
 10
6.580464790492809
 20
-27.268535814733795
 30
0.0
 10
6.389448460218753
 20
-27.43089275106617
 30
0.0
 10
6.163329692931747
 20
-27.56687713086797
 30
0.0
  0
LINE
  5
B0
330
17
100
AcDbEntity
  8
visible
100
AcDbLine
 10
6.163329692931747
 20
-27.566877130867972
 30
0.0
 11
-8.222596062525819
 21
-36.39083156339311
 31
0.0
  0
SPLINE
  5
B1
330
17
100
AcDbEntity
  8
visible
100
AcDbSpline
 70
0
 71
3
 72
17
 73
13
 74
0
 40
0.0
 40
0.0
 40
0.0
 40
0.0
 40
0.3333333333333333
 40
0.3333333333333333
 40
0.3333333333333333
 40
0.6666666666666666
 40
0.6666666666666666
 40
0.6666666666666666
 40
0.8333333333333333
 40
0.8333333333333333
 40
0.8333333333333333
 40
1.0
 40
1.0
 40
1.0
 40
1.0
 10
-17.994747051718093
 20
-36.41316378882444
 30
0.0
 10
-18.58082567320825
 20
-36.30560931113639
 30
0.0
 10
-19.103540696992667
 20
-36.15492273865314
 30
0.0
 10
-19.53616168184662
 20
-35.960033562386606
 30
0.0
 10
-19.77976973406286
 20
-35.851342870286324
 30
0.0
 10
-19.995380105175805
 20
-35.72497988599345
 30
0.0
 10
-20.182992795185463
 20
-35.580944609507796
 30
0.0
 10
-20.37268080492232
 20
-35.432818082960246
 30
0.0
 10
-20.536348741366364
 20
-35.261309042407234
 30
0.0
 10
-20.65262793185883
 20
-35.05891514587689
 30
0.0
 10
-20.76886369202868
 20
-34.85778978864467
 30
0.0
 10
-20.83771070624702
 20
-34.625779575435224
 30
0.0
 10
-20.836584252822213
 20
-34.39090126462473
 30
0.0
  0
SPLINE
  5
B2
330
17
100
AcDbEntity
  8
visible
100
AcDbSpline
 70
0
 71
3
 72
14
 73
10
 74
0
 40
0.0
 40
0.0
 40
0.0
 40
0.0
 40
0.2920870390913678
 40
0.2920870390913678
 40
0.2920870390913678
 40
0.4812253609696388
 40
0.4812253609696388
 40
0.4812253609696388
 40
1.0
 40
1.0
 40
1.0
 40
1.0
 10
-8.222596062525817
 20
-36.39083156339311
 30
0.0
 10
-8.617020194336488
 20
-36.632009087678966
 30
0.0
 10
-9.11314411928996
 20
-36.815956343757925
 30
0.0
 10
-9.692317588037021
 20
-36.95578545203997
 30
0.0
 10
-10.069110323760778
 20
-37.04603801743611
 30
0.0
 10
-10.472402199561442
 20
-37.11530517519378
 30
0.0
 10
-10.902193215438984
 20
-37.16358692531307
 30
0.0
 10
-12.074630268144897
 20
-37.29672816523019
 30
0.0
 10
-13.390436989442074
 20
-37.2580836430715
 30
0.0
 10
-14.484646983100959
 20
-37.05608691341713
 30
0.0
  0
LINE
  5
B3
330
17
100
AcDbEntity
  8
visible
100
AcDbLine
 10
-14.484646983100959
 20
-37.05608691341714
 30
0.0
 11
-17.994747051718093
 21
-36.413163788824434
 31
0.0
  0
LINE
  5
B4
330
17
100
AcDbEntity
  8
visible
100
AcDbLine
 10
7.059441571252492
 20
-26.209869956692312
 30
0.0
 11
7.059441571252492
 21
-20.18009138052321
 31
0.0
  0
LINE
  5
B5
330
17
100
AcDbEntity
  8
visible
100
AcDbLine
 10
-20.836584252822213
 20
-34.390901264624745
 30
0.0
 11
-20.836584252822213
 21
-28.361122688455637
 31
0.0
  0
LINE
  5
B6
330
17
100
AcDbEntity
  8
visible
100
AcDbLine
 10
0.7075043015312303
 20
-17.514905731730806
 30
0.0
 11
4.217604370148363
 21
-18.157828856323512
 31
0.0
  0
SPLINE
  5
B7
330
17
100
AcDbEntity
  8
visible
100
AcDbSpline
 70
0
 71
2
 72
6
 73
3
 74
0
 40
0.0
 40
0.0
 40
0.0
 40
1.0
 40
1.0
 40
1.0
 10
0.3052531004860324
 20
-17.449591758468927
 30
0.0
 10
0.5105145870859313
 20
-17.478833446080614
 30
0.0
 10
0.7075043015312303
 20
-17.514905731730792
 30
0.0
  0
SPLINE
  5
B8
330
17
100
AcDbEntity
  8
visible
100
AcDbSpline
 70
0
 71
3
 72
17
 73
13
 74
0
 40
0.0
 40
0.0
 40
0.0
 40
0.0
 40
0.3333333333333333
 40
0.3333333333333333
 40
0.3333333333333333
 40
0.6666666666666666
 40
0.6666666666666666
 40
0.6666666666666666
 40
0.8333333333333333
 40
0.8333333333333333
 40
0.8333333333333333
 40
1.0
 40
1.0
 40
1.0
 40
1.0
 10
4.217604370148365
 20
-18.157828856323498
 30
0.0
 10
4.803682991638535
 20
-18.26538333401153
 30
0.0
 10
5.32639801542293
 20
-18.4160699064948
 30
0.0
 10
5.7590190002768935
 20
-18.610959082761333
 30
0.0
 10
6.002627052493134
 20
-18.71964977486157
 30
0.0
 10
6.218237423606089
 20
-18.846012759154508
 30
0.0
 10
6.405850113615735
 20
-18.990048035640136
 30
0.0
 10
6.595538123352575
 20
-19.138174562187658
 30
0.0
 10
6.7592060597966315
 20
-19.309683602740723
 30
0.0
 10
6.875485250289106
 20
-19.51207749927105
 30
0.0
 10
6.9917210104589795
 20
-19.713202856503234
 30
0.0
 10
7.060568024677275
 20
-19.94521306971273
 30
0.0
 10
7.059441571252492
 20
-20.1800913805232
 30
0.0
  0
SPLINE
  5
B9
330
17
100
AcDbEntity
  8
visible
100
AcDbSpline
 70
0
 71
3
 72
11
 73
7
 74
0
 40
0.0
 40
0.0
 40
0.0
 40
0.0
 40
0.5548371360996198
 40
0.5548371360996198
 40
0.5548371360996198
 40
1.0
 40
1.0
 40
1.0
 40
1.0
 10
-11.788447779742192
 20
35.09059122391883
 30
0.0
 10
-11.126006889465627
 20
35.49701886405251
 30
0.0
 10
-10.445377074802805
 20
35.773769481868236
 30
0.0
 10
-9.760583334179941
 20
35.90070749566678
 30
0.0
 10
-9.211607542565558
 20
36.00275586819306
 30
0.0
 10
-8.660490051075648
 20
36.007014570309856
 30
0.0
 10
-8.127167884644898
 20
35.90907373914998
 30
0.0
  0
LINE
  5
BA
330
17
100
AcDbEntity
  8
visible
100
AcDbLine
 10
-13.706571213803201
 20
33.91406396624883
 30
0.0
 11
-11.788447779742192
 21
35.09059122391885
 31
0.0
  0
SPLINE
  5
BB
330
17
100
AcDbEntity
  8
visible
100
AcDbSpline
 70
0
 71
3
 72
17
 73
13
 74
0
 40
0.0
 40
0.0
 40
0.0
 40
0.0
 40
0.24411549526678203
 40
0.24411549526678203
 40
0.24411549526678203
 40
0.5309165259881102
 40
0.5309165259881102
 40
0.5309165259881102
 40
0.8608967517317175
 40
0.8608967517317175
 40
0.8608967517317175
 40
1.0
 40
1.0
 40
1.0
 40
1.0
 10
-22.336218930634264
 20
11.968028941459963
 30
0.0
 10
-22.336709866651894
 20
14.097243887630558
 30
0.0
 10
-22.12603243273209
 20
16.349240496706695
 30
0.0
 10
-21.719695136203548
 20
18.566660496561283
 30
0.0
 10
-21.243636503816013
 20
21.172268917493863
 30
0.0
 10
-20.496956604104742
 20
23.725934004636137
 30
0.0
 10
-19.54951969886683
 20
25.983179389347992
 30
0.0
 10
-18.459974309113274
 20
28.58387979443668
 30
0.0
 10
-17.110327935324072
 20
30.783794621133715
 30
0.0
 10
-15.635249574954319
 20
32.32307894905198
 30
0.0
 10
-15.012035153710698
 20
32.97549223855092
 30
0.0
 10
-14.369142366660308
 20
33.50582057761648
 30
0.0
 10
-13.706571213803201
 20
33.91406396624882
 30
0.0
  0
LINE
  5
BC
330
17
100
AcDbEntity
  8
visible
100
AcDbLine
 10
-22.336218930634264
 20
-18.65194039064879
 30
0.0
 11
-22.336218930634264
 21
11.968028941459963
 31
0.0
  0
SPLINE
  5
BD
330
17
100
AcDbEntity
  8
visible
100
AcDbSpline
 70
0
 71
3
 72
11
 73
7
 74
0
 40
0.0
 40
0.0
 40
0.0
 40
0.0
 40
0.4960855603660441
 40
0.4960855603660441
 40
0.4960855603660441
 40
1.0
 40
1.0
 40
1.0
 40
1.0
 10
-20.63256429128249
 20
-27.65948480400086
 30
0.0
 10
-20.725590268692777
 20
-27.469936012131217
 30
0.0
 10
-20.81493421114895
 20
-27.274386768644142
 30
0.0
 10
-20.900596118651002
 20
-27.072837073539525
 30
0.0
 10
-21.844113366030626
 20
-24.859084525843407
 30
0.0
 10
-22.337619774340684
 20
-21.908039440315317
 30
0.0
 10
-22.336218930634264
 20
-18.65194039064879
 30
0.0
  0
SPLINE
  5
BE
330
17
100
AcDbEntity
  8
visible
100
AcDbSpline
 70
0
 71
3
 72
8
 73
4
 74
0
 40
0.0
 40
0.0
 40
0.0
 40
0.0
 40
1.0
 40
1.0
 40
1.0
 40
1.0
 10
-20.626672678956197
 20
-27.649955703424787
 30
0.0
 10
-20.759272293947355
 20
-27.86101447099073
 30
0.0
 10
-20.83730401678013
 20
-28.10931318751328
 30
0.0
 10
-20.836584252822213
 20
-28.36112268845563
 30
0.0
  0
LINE
  5
BF
330
17
100
AcDbEntity
  8
visible
100
AcDbLine
 10
-4.266057809166049
 20
35.20185830209802
 30
0.0
 11
-8.127167884644901
 21
35.909073739149996
 31
0.0
  0
SPLINE
  5
C0
330
17
100
AcDbEntity
  8
visible
100
AcDbSpline
 70
0
 71
3
 72
8
 73
4
 74
0
 40
0.0
 40
0.0
 40
0.0
 40
0.0
 40
0.35227180893323734
 40
0.35227180893323734
 40
0.35227180893323734
 40
0.35227180893323734
 10
1.5388761118302696
 20
-8.064494154068598
 30
0.0
 10
1.5389234839244914
 20
-9.25795659888488
 30
0.0
 10
1.4732373677161414
 20
-10.489772083611562
 30
0.0
 10
1.3434793420142443
 20
-11.732620292946859
 30
0.0
  0
SPLINE
  5
C1
330
17
100
AcDbEntity
  8
visible
100
AcDbSpline
 70
0
 71
2
 72
6
 73
3
 74
0
 40
0.0
 40
0.0
 40
0.0
 40
1.0
 40
1.0
 40
1.0
 10
0.3995649426262652
 20
-17.080540184287628
 30
0.0
 10
0.21676378199873875
 20
-17.811130733163296
 30
0.0
 10
0.007397538243999691
 20
-18.5250697872377
 30
0.0
  0
LINE
  5
C2
330
17
100
AcDbEntity
  8
visible
100
AcDbLine
 10
1.5388761118302696
 20
19.35941514993477
 30
0.0
 11
1.5388761118302696
 21
18.32826002471511
 31
0.0
  0
LINE
  5
C3
330
17
100
AcDbEntity
  8
visible
100
AcDbLine
 10
1.5388761118302696
 20
11.72012536528303
 30
0.0
 11
1.5388761118302696
 21
-8.064494154068598
 31
0.0
  0
SPLINE
  5
C4
330
17
100
AcDbEntity
  8
visible
100
AcDbSpline
 70
0
 71
3
 72
14
 73
10
 74
0
 40
0.0
 40
0.0
 40
0.0
 40
0.0
 40
0.20205850934929429
 40
0.20205850934929429
 40
0.20205850934929429
 40
0.3387726818004232
 40
0.3387726818004232
 40
0.3387726818004232
 40
0.8201692125859009
 40
0.8201692125859009
 40
0.8201692125859009
 40
0.8201692125859009
 10
-4.266057809166043
 20
35.20185830209802
 30
0.0
 10
-3.530413277071905
 20
35.067845334178585
 30
0.0
 10
-2.834428906996238
 20
34.73917490233937
 30
0.0
 10
-2.21578684446182
 20
34.24857705608533
 30
0.0
 10
-1.7963042164811442
 20
33.915334415028155
 30
0.0
 10
-1.4109399761943537
 20
33.51348727746063
 30
0.0
 10
-1.0596941236014532
 20
33.04303564338286
 30
0.0
 10
0.17525087344643928
 20
31.394213176080978
 30
0.0
 10
0.990482551137013
 20
28.936397659256123
 30
0.0
 10
1.341844722788481
 20
26.003638819312254
 30
0.0
  0
SPLINE
  5
C5
330
17
100
AcDbEntity
  8
visible
100
AcDbSpline
 70
0
 71
3
 72
26
 73
22
 74
0
 40
0.0
 40
0.0
 40
0.0
 40
0.0
 40
0.1273062948039716
 40
0.1273062948039716
 40
0.1273062948039716
 40
0.40460700697721236
 40
0.40460700697721236
 40
0.40460700697721236
 40
0.5319133017811839
 40
0.5319133017811839
 40
0.5319133017811839
 40
0.6592195965851555
 40
0.6592195965851555
 40
0.6592195965851555
 40
0.7865258913891271
 40
0.7865258913891271
 40
0.7865258913891271
 40
0.8726937051960282
 40
0.8726937051960282
 40
0.8726937051960282
 40
1.0
 40
1.0
 40
1.0
 40
1.0
 10
0.13418630863814943
 20
-17.282066475873393
 30
0.0
 10
0.2180085622409407
 20
-17.230559078367563
 30
0.0
 10
0.2996719140172913
 20
-17.169495907248823
 30
0.0
 10
0.37917636396720145
 20
-17.098876962517195
 30
0.0
 10
0.5527594827894259
 20
-16.944025248271302
 30
0.0
 10
0.7138240232677051
 20
-16.749543945373944
 30
0.0
 10
0.8623699854020401
 20
-16.51543305382517
 30
0.0
 10
1.1850529578605618
 20
-16.009562804828878
 30
0.0
 10
1.438830569355388
 20
-15.327489975051922
 30
0.0
 10
1.5749248845850161
 20
-14.613959667221735
 30
0.0
 10
1.7208258765151832
 20
-13.856863243711205
 30
0.0
 10
1.7312875312629523
 20
-13.076510753384177
 30
0.0
 10
1.598376625120025
 20
-12.45640447141534
 30
0.0
 10
1.5361436444922247
 20
-12.161831897967762
 30
0.0
 10
1.443383236079109
 20
-11.906634661429017
 30
0.0
 10
1.3200953998806844
 20
-11.690812761799151
 30
0.0
 10
1.2365585748704253
 20
-11.54530713684338
 30
0.0
 10
1.1392904077151682
 20
-11.422166033355209
 30
0.0
 10
1.0282908984149088
 20
-11.321389451334625
 30
0.0
 10
0.8743684907738221
 20
-11.182545934438247
 30
0.0
 10
0.7018001516090343
 20
-11.095130895971314
 30
0.0
 10
0.5105858809205444
 20
-11.059144335933837
 30
0.0
  0
SPLINE
  5
C6
330
17
100
AcDbEntity
  8
visible
100
AcDbSpline
 70
0
 71
3
 72
8
 73
4
 74
0
 40
0.0
 40
0.0
 40
0.0
 40
0.0
 40
1.0
 40
1.0
 40
1.0
 40
1.0
 10
-0.660496313275523
 20
-17.452779178059004
 30
0.0
 10
-0.3982728572336884
 20
-17.50143054688181
 30
0.0
 10
-0.12037158377751654
 20
-17.43926788366284
 30
0.0
 10
0.13418630863814945
 20
-17.282066475873393
 30
0.0
  0
LINE
  5
C7
330
17
100
AcDbEntity
  8
visible
100
AcDbLine
 10
-3.556328869884659
 20
-16.92236760027002
 30
0.0
 11
-0.6604963132755204
 21
-17.452779178059004
 31
0.0
  0
LINE
  5
C8
330
17
100
AcDbEntity
  8
visible
100
AcDbLine
 10
-2.3852466756885917
 20
-10.528732758144855
 30
0.0
 11
0.510585880920547
 21
-11.059144335933837
 31
0.0
  0
LINE
  5
C9
330
17
100
AcDbEntity
  8
visible
100
AcDbLine
 10
-3.556328869884659
 20
20.292672049523688
 30
0.0
 11
16.89000402981014
 21
16.547644848771185
 31
0.0
  0
LINE
  5
CA
330
17
100
AcDbEntity
  8
visible
100
AcDbLine
 10
-2.3852466756885917
 20
26.686306891648854
 30
0.0
 11
18.061086224006207
 21
22.94127969089635
 31
0.0
  0
LINE
  5
CB
330
17
100
AcDbEntity
  8
visible
100
AcDbLine
 10
-13.1469460401897
 20
-22.805003888620107
 30
0.0
 11
-10.25111348358056
 21
-23.33541546640909
 31
0.0
  0
LINE
  5
CC
330
17
100
AcDbEntity
  8
visible
100
AcDbLine
 10
-11.975863845993636
 20
-16.411369046494954
 30
0.0
 11
-9.080031289384497
 21
-16.941780624283936
 31
0.0
  0
LINE
  5
CD
330
17
100
AcDbEntity
  8
visible
100
AcDbLine
 10
-13.1469460401897
 20
14.410035761173603
 30
0.0
 11
7.299386859505098
 21
10.665008560421098
 31
0.0
  0
LINE
  5
CE
330
17
100
AcDbEntity
  8
visible
100
AcDbLine
 10
-11.975863845993636
 20
20.803670603298755
 30
0.0
 11
8.470469053701162
 21
17.058643402546252
 31
0.0
  0
SPLINE
  5
CF
330
17
100
AcDbEntity
  8
visible
100
AcDbSpline
 70
0
 71
3
 72
26
 73
22
 74
0
 40
0.0
 40
0.0
 40
0.0
 40
0.0
 40
0.12730629480397151
 40
0.12730629480397151
 40
0.12730629480397151
 40
0.4046070069772121
 40
0.4046070069772121
 40
0.4046070069772121
 40
0.5319133017811836
 40
0.5319133017811836
 40
0.5319133017811836
 40
0.659219596585155
 40
0.659219596585155
 40
0.659219596585155
 40
0.7865258913891265
 40
0.7865258913891265
 40
0.7865258913891265
 40
0.8726937051960285
 40
0.8726937051960285
 40
0.8726937051960285
 40
1.0
 40
1.0
 40
1.0
 40
1.0
 10
-9.456430861666888
 20
-23.16470276422349
 30
0.0
 10
-9.3726086080641
 20
-23.11319536671765
 30
0.0
 10
-9.290945256287753
 20
-23.052132195598922
 30
0.0
 10
-9.211440806337842
 20
-22.98151325086728
 30
0.0
 10
-9.037857687515624
 20
-22.826661536621398
 30
0.0
 10
-8.876793147037338
 20
-22.632180233724032
 30
0.0
 10
-8.728247184903005
 20
-22.398069342175262
 30
0.0
 10
-8.405564212444466
 20
-21.89219909317898
 30
0.0
 10
-8.151786600949661
 20
-21.210126263402003
 30
0.0
 10
-8.015692285720029
 20
-20.49659595557182
 30
0.0
 10
-7.869791293789861
 20
-19.739499532061277
 30
0.0
 10
-7.859329639042093
 20
-18.95914704173428
 30
0.0
 10
-7.99224054518502
 20
-18.33904075976544
 30
0.0
 10
-8.054473525812828
 20
-18.04446818631785
 30
0.0
 10
-8.14723393422593
 20
-17.789270949779112
 30
0.0
 10
-8.27052177042435
 20
-17.573449050149225
 30
0.0
 10
-8.35405859543462
 20
-17.427943425193472
 30
0.0
 10
-8.451326762589881
 20
-17.304802321705303
 30
0.0
 10
-8.562326271890136
 20
-17.20402573968471
 30
0.0
 10
-8.716248679531217
 20
-17.06518222278833
 30
0.0
 10
-8.88881701869601
 20
-16.977767184321397
 30
0.0
 10
-9.0800312893845
 20
-16.941780624283936
 30
0.0
  0
SPLINE
  5
D0
330
17
100
AcDbEntity
  8
visible
100
AcDbSpline
 70
0
 71
3
 72
8
 73
4
 74
0
 40
0.0
 40
0.0
 40
0.0
 40
0.0
 40
1.0
 40
1.0
 40
1.0
 40
1.0
 10
-10.251113483580568
 20
-23.33541546640909
 30
0.0
 10
-9.988890027538725
 20
-23.38406683523191
 30
0.0
 10
-9.710988754082573
 20
-23.32190417201293
 30
0.0
 10
-9.456430861666888
 20
-23.16470276422349
 30
0.0
  0
SPLINE
  5
D1
330
17
100
AcDbEntity
  8
visible
100
AcDbSpline
 70
0
 71
3
 72
26
 73
22
 74
0
 40
0.0
 40
0.0
 40
0.0
 40
0.0
 40
0.1273062948039716
 40
0.1273062948039716
 40
0.1273062948039716
 40
0.40460700697721236
 40
0.40460700697721236
 40
0.40460700697721236
 40
0.5319133017811839
 40
0.5319133017811839
 40
0.5319133017811839
 40
0.6592195965851555
 40
0.6592195965851555
 40
0.6592195965851555
 40
0.7865258913891271
 40
0.7865258913891271
 40
0.7865258913891271
 40
0.8726937051960282
 40
0.8726937051960282
 40
0.8726937051960282
 40
1.0
 40
1.0
 40
1.0
 40
1.0
 10
17.684686651723815
 20
16.718357550956796
 30
0.0
 10
17.768508905326588
 20
16.76986494846262
 30
0.0
 10
17.850172257102955
 20
16.830928119581365
 30
0.0
 10
17.92967670705287
 20
16.901547064313
 30
0.0
 10
18.10325982587511
 20
17.05639877855892
 30
0.0
 10
18.264324366353367
 20
17.250880081456234
 30
0.0
 10
18.412870328487706
 20
17.48499097300501
 30
0.0
 10
18.735553300946226
 20
17.990861222001293
 30
0.0
 10
18.989330912441055
 20
18.672934051778288
 30
0.0
 10
19.125425227670682
 20
19.386464359608453
 30
0.0
 10
19.271326219600873
 20
20.143560783118996
 30
0.0
 10
19.281787874348613
 20
20.923913273446
 30
0.0
 10
19.14887696820569
 20
21.544019555414835
 30
0.0
 10
19.086643987577904
 20
21.83859212886246
 30
0.0
 10
18.99388357916476
 20
22.093789365401165
 30
0.0
 10
18.870595742966344
 20
22.309611265031037
 30
0.0
 10
18.787058917956085
 20
22.455116889986783
 30
0.0
 10
18.68979075080083
 20
22.57825799347498
 30
0.0
 10
18.578791241500575
 20
22.679034575495564
 30
0.0
 10
18.424868833859477
 20
22.817878092391958
 30
0.0
 10
18.25230049469471
 20
22.905293130858876
 30
0.0
 10
18.061086224006218
 20
22.941279690896337
 30
0.0
  0
SPLINE
  5
D2
330
17
100
AcDbEntity
  8
visible
100
AcDbSpline
 70
0
 71
3
 72
8
 73
4
 74
0
 40
0.0
 40
0.0
 40
0.0
 40
0.0
 40
1.0
 40
1.0
 40
1.0
 40
1.0
 10
16.89000402981015
 20
16.547644848771185
 30
0.0
 10
17.152227485851956
 20
16.498993479948354
 30
0.0
 10
17.43012875930815
 20
16.561156143167356
 30
0.0
 10
17.684686651723815
 20
16.718357550956796
 30
0.0
  0
SPLINE
  5
D3
330
17
100
AcDbEntity
  8
visible
100
AcDbSpline
 70
0
 71
3
 72
26
 73
22
 74
0
 40
0.0
 40
0.0
 40
0.0
 40
0.0
 40
0.12730629480397151
 40
0.12730629480397151
 40
0.12730629480397151
 40
0.4046070069772121
 40
0.4046070069772121
 40
0.4046070069772121
 40
0.5319133017811836
 40
0.5319133017811836
 40
0.5319133017811836
 40
0.659219596585155
 40
0.659219596585155
 40
0.659219596585155
 40
0.7865258913891265
 40
0.7865258913891265
 40
0.7865258913891265
 40
0.8726937051960285
 40
0.8726937051960285
 40
0.8726937051960285
 40
1.0
 40
1.0
 40
1.0
 40
1.0
 10
8.094069481418778
 20
10.835721262606711
 30
0.0
 10
8.177891735021557
 20
10.88722866011253
 30
0.0
 10
8.259555086797917
 20
10.948291831231272
 30
0.0
 10
8.339059536747822
 20
11.018910775962905
 30
0.0
 10
8.51264265557006
 20
11.173762490208828
 30
0.0
 10
8.673707196048321
 20
11.368243793106155
 30
0.0
 10
8.822253158182662
 20
11.602354684654927
 30
0.0
 10
9.144936130641197
 20
12.108224933651217
 30
0.0
 10
9.39871374213601
 20
12.790297763428176
 30
0.0
 10
9.534808057365638
 20
13.503828071258354
 30
0.0
 10
9.680709049295807
 20
14.260924494768892
 30
0.0
 10
9.691170704043577
 20
15.041276985095907
 30
0.0
 10
9.558259797900647
 20
15.661383267064751
 30
0.0
 10
9.496026817272842
 20
15.955955840512328
 30
0.0
 10
9.403266408859734
 20
16.211153077051076
 30
0.0
 10
9.279978572661312
 20
16.426974976680963
 30
0.0
 10
9.196441747651047
 20
16.572480601636702
 30
0.0
 10
9.099173580495789
 20
16.695621705124893
 30
0.0
 10
8.98817407119553
 20
16.79639828714548
 30
0.0
 10
8.834251663554445
 20
16.935241804041844
 30
0.0
 10
8.661683324389655
 20
17.02265684250878
 30
0.0
 10
8.470469053701173
 20
17.058643402546252
 30
0.0
  0
SPLINE
  5
D4
330
17
100
AcDbEntity
  8
visible
100
AcDbSpline
 70
0
 71
3
 72
8
 73
4
 74
0
 40
0.0
 40
0.0
 40
0.0
 40
0.0
 40
1.0
 40
1.0
 40
1.0
 40
1.0
 10
7.2993868595051055
 20
10.665008560421086
 30
0.0
 10
7.561610315546925
 20
10.616357191598292
 30
0.0
 10
7.839511589003103
 20
10.678519854817246
 30
0.0
 10
8.094069481418778
 20
10.835721262606711
 30
0.0
  0
ENDSEC
  0
SECTION
  2
OBJECTS
  0
DICTIONARY
  5
A
330
0
100
AcDbDictionary
281
1
  3
ACAD_COLOR
350
B
  3
ACAD_GROUP
350
C
  3
ACAD_LAYOUT
350
D
  3
ACAD_MATERIAL
350
E
  3
ACAD_MLEADERSTYLE
350
F
  3
ACAD_MLINESTYLE
350
10
  3
ACAD_PLOTSETTINGS
350
11
  3
ACAD_PLOTSTYLENAME
350
12
  3
ACAD_SCALELIST
350
14
  3
ACAD_TABLESTYLE
350
15
  3
ACAD_VISUALSTYLE
350
16
  3
EZDXF_META
350
2D
  0
DICTIONARY
  5
B
330
A
100
AcDbDictionary
281
1
  0
DICTIONARY
  5
C
330
A
100
AcDbDictionary
281
1
  0
DICTIONARY
  5
D
330
A
100
AcDbDictionary
281
1
  3
Model
350
1A
  3
Layout1
350
1E
  0
DICTIONARY
  5
E
330
A
100
AcDbDictionary
281
1
  3
ByBlock
350
1F
  3
ByLayer
350
20
  3
Global
350
21
  0
DICTIONARY
  5
F
330
A
100
AcDbDictionary
281
1
  3
Standard
350
2C
  0
DICTIONARY
  5
10
330
A
100
AcDbDictionary
281
1
  3
Standard
350
22
  0
DICTIONARY
  5
11
330
A
100
AcDbDictionary
281
1
  0
ACDBDICTIONARYWDFLT
  5
12
330
A
100
AcDbDictionary
281
1
  3
Normal
350
13
100
AcDbDictionaryWithDefault
340
13
  0
ACDBPLACEHOLDER
  5
13
330
12
  0
DICTIONARY
  5
14
330
A
100
AcDbDictionary
281
1
  0
DICTIONARY
  5
15
330
A
100
AcDbDictionary
281
1
  0
DICTIONARY
  5
16
330
A
100
AcDbDictionary
281
1
  0
LAYOUT
  5
1A
330
D
100
AcDbPlotSettings
  1

  4
A3
  6

 40
7.5
 41
20.0
 42
7.5
 43
20.0
 44
420.0
 45
297.0
 46
0.0
 47
0.0
 48
0.0
 49
0.0
140
0.0
141
0.0
142
1.0
143
1.0
 70
1024
 72
1
 73
0
 74
5
  7

 75
16
 76
0
 77
2
 78
300
147
1.0
148
0.0
149
0.0
100
AcDbLayout
  1
Model
 70
1
 71
0
 10
0.0
 20
0.0
 11
420.0
 21
297.0
 12
0.0
 22
0.0
 32
0.0
 14
1e+20
 24
1e+20
 34
1e+20
 15
-1e+20
 25
-1e+20
 35
-1e+20
146
0.0
 13
0.0
 23
0.0
 33
0.0
 16
1.0
 26
0.0
 36
0.0
 17
0.0
 27
1.0
 37
0.0
 76
1
330
17
  0
LAYOUT
  5
1E
330
D
100
AcDbPlotSettings
  1

  4
A3
  6

 40
7.5
 41
20.0
 42
7.5
 43
20.0
 44
420.0
 45
297.0
 46
0.0
 47
0.0
 48
0.0
 49
0.0
140
0.0
141
0.0
142
1.0
143
1.0
 70
0
 72
1
 73
0
 74
5
  7

 75
16
 76
0
 77
2
 78
300
147
1.0
148
0.0
149
0.0
100
AcDbLayout
  1
Layout1
 70
1
 71
1
 10
0.0
 20
0.0
 11
420.0
 21
297.0
 12
0.0
 22
0.0
 32
0.0
 14
1e+20
 24
1e+20
 34
1e+20
 15
-1e+20
 25
-1e+20
 35
-1e+20
146
0.0
 13
0.0
 23
0.0
 33
0.0
 16
1.0
 26
0.0
 36
0.0
 17
0.0
 27
1.0
 37
0.0
 76
1
330
1B
  0
MATERIAL
  5
1F
102
{ACAD_REACTORS
330
E
102
}
330
E
100
AcDbMaterial
  1
ByBlock
  2

 70
0
 40
1.0
 71
1
 41
1.0
 91
-1023410177
 42
1.0
 72
1
  3

 73
1
 74
1
 75
1
 44
0.5
 73
0
 45
1.0
 46
1.0
 77
1
  4

 78
1
 79
1
170
1
 48
1.0
171
1
  6

172
1
173
1
174
1
140
1.0
141
1.0
175
1
  7

176
1
177
1
178
1
143
1.0
179
1
  8

270
1
271
1
272
1
145
1.0
146
1.0
273
1
  9

274
1
275
1
276
1
 42
1.0
 72
1
  3

 73
1
 74
1
 75
1
 94
63
  0
MATERIAL
  5
20
102
{ACAD_REACTORS
330
E
102
}
330
E
100
AcDbMaterial
  1
ByLayer
  2

 70
0
 40
1.0
 71
1
 41
1.0
 91
-1023410177
 42
1.0
 72
1
  3

 73
1
 74
1
 75
1
 44
0.5
 73
0
 45
1.0
 46
1.0
 77
1
  4

 78
1
 79
1
170
1
 48
1.0
171
1
  6

172
1
173
1
174
1
140
1.0
141
1.0
175
1
  7

176
1
177
1
178
1
143
1.0
179
1
  8

270
1
271
1
272
1
145
1.0
146
1.0
273
1
  9

274
1
275
1
276
1
 42
1.0
 72
1
  3

 73
1
 74
1
 75
1
 94
63
  0
MATERIAL
  5
21
102
{ACAD_REACTORS
330
E
102
}
330
E
100
AcDbMaterial
  1
Global
  2

 70
0
 40
1.0
 71
1
 41
1.0
 91
-1023410177
 42
1.0
 72
1
  3

 73
1
 74
1
 75
1
 44
0.5
 73
0
 45
1.0
 46
1.0
 77
1
  4

 78
1
 79
1
170
1
 48
1.0
171
1
  6

172
1
173
1
174
1
140
1.0
141
1.0
175
1
  7

176
1
177
1
178
1
143
1.0
179
1
  8

270
1
271
1
272
1
145
1.0
146
1.0
273
1
  9

274
1
275
1
276
1
 42
1.0
 72
1
  3

 73
1
 74
1
 75
1
 94
63
  0
MLINESTYLE
  5
22
102
{ACAD_REACTORS
330
10
102
}
330
10
100
AcDbMlineStyle
  2
Standard
 70
0
  3

 62
256
 51
90.0
 52
90.0
 71
2
 49
0.5
 62
256
  6
BYLAYER
 49
-0.5
 62
256
  6
BYLAYER
  0
MLEADERSTYLE
  5
2C
102
{ACAD_REACTORS
330
F
102
}
330
F
100
AcDbMLeaderStyle
179
2
170
2
171
1
172
0
 90
2
 40
0.0
 41
0.0
173
1
 91
-1056964608
 92
-2
290
1
 42
2.0
291
1
 43
8.0
  3
Standard
 44
4.0
300

342
29
174
1
175
1
176
0
178
1
 93
-1056964608
 45
4.0
292
0
297
0
 46
4.0
 94
-1056964608
 47
1.0
 49
1.0
140
1.0
294
1
141
0.0
177
0
142
1.0
295
0
296
0
143
3.75
271
0
272
9
273
9
  0
DICTIONARY
  5
2D
330
A
100
AcDbDictionary
280
1
281
1
  3
CREATED_BY_EZDXF
350
2E
  3
WRITTEN_BY_EZDXF
350
D8
  0
DICTIONARYVAR
  5
2E
330
2D
100
DictionaryVariables
280
0
  1
1.4.4 @ 2026-10-02T17:09:10.423646+00:00
  0
DICTIONARYVAR
  5
D8
330
2D
100
DictionaryVariables
280
0
  1
1.4.4 @ 2026-10-02T17:09:10.457985+00:00
  0
ENDSEC
  0
EOF
