  0
SECTION
  2
HEADER
  9
$ACADVER
  1
AC1027
  9
$ACADMAINTVER
 70
105
  9
$DWGCODEPAGE
  3
ANSI_1252
  9
$LASTSAVEDBY
  1
ezdxf
  9
$REQUIREDVERSIONS
160
0
  9
$INSBASE
 10
0.0
 20
0.0
 30
0.0
  9
$EXTMIN
 10
1e+20
 20
1e+20
 30
1e+20
  9
$EXTMAX
 10
-1e+20
 20
-1e+20
 30
-1e+20
  9
$LIMMIN
 10
0.0
 20
0.0
  9
$LIMMAX
 10
420.0
 20
297.0
  9
$ORTHOMODE
 70
0
  9
$REGENMODE
 70
1
  9
$FILLMODE
 70
1
  9
$QTEXTMODE
 70
0
  9
$MIRRTEXT
 70
1
  9
$LTSCALE
 40
1.0
  9
$ATTMODE
 70
1
  9
$TEXTSIZE
 40
2.5
  9
$TRACEWID
 40
1.0
  9
$TEXTSTYLE
  7
Standard
  9
$CLAYER
  8
0
  9
$CELTYPE
  6
ByLayer
  9
$CECOLOR
 62
256
  9
$CELTSCALE
 40
1.0
  9
$DISPSILH
 70
0
  9
$DIMSCALE
 40
1.0
  9
$DIMASZ
 40
2.5
  9
$DIMEXO
 40
0.625
  9
$DIMDLI
 40
3.75
  9
$DIMRND
 40
0.0
  9
$DIMDLE
 40
0.0
  9
$DIMEXE
 40
1.25
  9
$DIMTP
 40
0.0
  9
$DIMTM
 40
0.0
  9
$DIMTXT
 40
2.5
  9
$DIMCEN
 40
2.5
  9
$DIMTSZ
 40
0.0
  9
$DIMTOL
 70
0
  9
$DIMLIM
 70
0
  9
$DIMTIH
 70
0
  9
$DIMTOH
 70
0
  9
$DIMSE1
 70
0
  9
$DIMSE2
 70
0
  9
$DIMTAD
 70
1
  9
$DIMZIN
 70
8
  9
$DIMBLK
  1

  9
$DIMASO
 70
1
  9
$DIMSHO
 70
1
  9
$DIMPOST
  1

  9
$DIMAPOST
  1

  9
$DIMALT
 70
0
  9
$DIMALTD
 70
3
  9
$DIMALTF
 40
0.03937007874
  9
$DIMLFAC
 40
1.0
  9
$DIMTOFL
 70
1
  9
$DIMTVP
 40
0.0
  9
$DIMTIX
 70
0
  9
$DIMSOXD
 70
0
  9
$DIMSAH
 70
0
  9
$DIMBLK1
  1

  9
$DIMBLK2
  1

  9
$DIMSTYLE
  2
ISO-25
  9
$DIMCLRD
 70
0
  9
$DIMCLRE
 70
0
  9
$DIMCLRT
 70
0
  9
$DIMTFAC
 40
1.0
  9
$DIMGAP
 40
0.625
  9
$DIMJUST
 70
0
  9
$DIMSD1
 70
0
  9
$DIMSD2
 70
0
  9
$DIMTOLJ
 70
0
  9
$DIMTZIN
 70
8
  9
$DIMALTZ
 70
0
  9
$DIMALTTZ
 70
0
  9
$DIMUPT
 70
0
  9
$DIMDEC
 70
2
  9
$DIMTDEC
 70
2
  9
$DIMALTU
 70
2
  9
$DIMALTTD
 70
3
  9
$DIMTXSTY
  7
Standard
  9
$DIMAUNIT
 70
0
  9
$DIMADEC
 70
0
  9
$DIMALTRND
 40
0.0
  9
$DIMAZIN
 70
0
  9
$DIMDSEP
 70
44
  9
$DIMATFIT
 70
3
  9
$DIMFRAC
 70
0
  9
$DIMLDRBLK
  1

  9
$DIMLUNIT
 70
2
  9
$DIMLWD
 70
-2
  9
$DIMLWE
 70
-2
  9
$DIMTMOVE
 70
0
  9
$DIMFXL
 40
1.0
  9
$DIMFXLON
 70
0
  9
$DIMJOGANG
 40
0.785398163397
  9
$DIMTFILL
 70
0
  9
$DIMTFILLCLR
 70
0
  9
$DIMARCSYM
 70
0
  9
$DIMLTYPE
  6

  9
$DIMLTEX1
  6

  9
$DIMLTEX2
  6

  9
$DIMTXTDIRECTION
 70
0
  9
$LUNITS
 70
2
  9
$LUPREC
 70
4
  9
$SKETCHINC
 40
1.0
  9
$FILLETRAD
 40
10.0
  9
$AUNITS
 70
0
  9
$AUPREC
 70
2
  9
$MENU
  1
.
  9
$ELEVATION
 40
0.0
  9
$PELEVATION
 40
0.0
  9
$THICKNESS
 40
0.0
  9
$LIMCHECK
 70
0
  9
$CHAMFERA
 40
0.0
  9
$CHAMFERB
 40
0.0
  9
$CHAMFERC
 40
0.0
  9
$CHAMFERD
 40
0.0
  9
$SKPOLY
 70
0
  9
$TDCREATE
 40
2461316.6496180557
  9
$TDUCREATE
 40
2458532.153996898
  9
$TDUPDATE
 40
2461316.6496180557
  9
$TDUUPDATE
 40
2458532.1544311
  9
$TDINDWG
 40
0.0
  9
$TDUSRTIMER
 40
0.0
  9
$USRTIMER
 70
1
  9
$ANGBASE
 50
0.0
  9
$ANGDIR
 70
0
  9
$PDMODE
 70
0
  9
$PDSIZE
 40
0.0
  9
$PLINEWID
 40
0.0
  9
$SPLFRAME
 70
0
  9
$SPLINETYPE
 70
6
  9
$SPLINESEGS
 70
8
  9
$HANDSEED
  5
B5
  9
$SURFTAB1
 70
6
  9
$SURFTAB2
 70
6
  9
$SURFTYPE
 70
6
  9
$SURFU
 70
6
  9
$SURFV
 70
6
  9
$UCSBASE
  2

  9
$UCSNAME
  2

  9
$UCSORG
 10
0.0
 20
0.0
 30
0.0
  9
$UCSXDIR
 10
1.0
 20
0.0
 30
0.0
  9
$UCSYDIR
 10
0.0
 20
1.0
 30
0.0
  9
$UCSORTHOREF
  2

  9
$UCSORTHOVIEW
 70
0
  9
$UCSORGTOP
 10
0.0
 20
0.0
 30
0.0
  9
$UCSORGBOTTOM
 10
0.0
 20
0.0
 30
0.0
  9
$UCSORGLEFT
 10
0.0
 20
0.0
 30
0.0
  9
$UCSORGRIGHT
 10
0.0
 20
0.0
 30
0.0
  9
$UCSORGFRONT
 10
0.0
 20
0.0
 30
0.0
  9
$UCSORGBACK
 10
0.0
 20
0.0
 30
0.0
  9
$PUCSBASE
  2

  9
$PUCSNAME
  2

  9
$PUCSORG
 10
0.0
 20
0.0
 30
0.0
  9
$PUCSXDIR
 10
1.0
 20
0.0
 30
0.0
  9
$PUCSYDIR
 10
0.0
 20
1.0
 30
0.0
  9
$PUCSORTHOREF
  2

  9
$PUCSORTHOVIEW
 70
0
  9
$PUCSORGTOP
 10
0.0
 20
0.0
 30
0.0
  9
$PUCSORGBOTTOM
 10
0.0
 20
0.0
 30
0.0
  9
$PUCSORGLEFT
 10
0.0
 20
0.0
 30
0.0
  9
$PUCSORGRIGHT
 10
0.0
 20
0.0
 30
0.0
  9
$PUCSORGFRONT
 10
0.0
 20
0.0
 30
0.0
  9
$PUCSORGBACK
 10
0.0
 20
0.0
 30
0.0
  9
$USERI1
 70
0
  9
$USERI2
 70
0
  9
$USERI3
 70
0
  9
$USERI4
 70
0
  9
$USERI5
 70
0
  9
$USERR1
 40
0.0
  9
$USERR2
 40
0.0
  9
$USERR3
 40
0.0
  9
$USERR4
 40
0.0
  9
$USERR5
 40
0.0
  9
$WORLDVIEW
 70
1
  9
$SHADEDGE
 70
3
  9
$SHADEDIF
 70
70
  9
$TILEMODE
 70
1
  9
$MAXACTVP
 70
64
  9
$PINSBASE
 10
0.0
 20
0.0
 30
0.0
  9
$PLIMCHECK
 70
0
  9
$PEXTMIN
 10
1e+20
 20
1e+20
 30
1e+20
  9
$PEXTMAX
 10
-1e+20
 20
-1e+20
 30
-1e+20
  9
$PLIMMIN
 10
0.0
 20
0.0
  9
$PLIMMAX
 10
420.0
 20
297.0
  9
$UNITMODE
 70
0
  9
$VISRETAIN
 70
1
  9
$PLINEGEN
 70
0
  9
$PSLTSCALE
 70
1
  9
$TREEDEPTH
 70
3020
  9
$CMLSTYLE
  2
Standard
  9
$CMLJUST
 70
0
  9
$CMLSCALE
 40
20.0
  9
$PROXYGRAPHICS
 70
1
  9
$MEASUREMENT
 70
1
  9
$CELWEIGHT
370
-1
  9
$ENDCAPS
280
0
  9
$JOINSTYLE
280
0
  9
$LWDISPLAY
290
0
  9
$INSUNITS
 70
4
  9
$HYPERLINKBASE
  1

  9
$STYLESHEET
  1

  9
$XEDIT
290
1
  9
$CEPSNTYPE
380
0
  9
$PSTYLEMODE
290
1
  9
$FINGERPRINTGUID
  2
{9C7DBEC9-145D-4024-96D7-8920986E794A}
  9
$VERSIONGUID
  2
{4AE3EC4C-AC88-45EA-B5C1-2867E9EF7807}
  9
$EXTNAMES
290
1
  9
$PSVPSCALE
 40
0.0
  9
$OLESTARTUP
290
0
  9
$SORTENTS
280
127
  9
$INDEXCTL
280
0
  9
$HIDETEXT
280
1
  9
$XCLIPFRAME
280
1
  9
$HALOGAP
280
0
  9
$OBSCOLOR
 70
257
  9
$OBSLTYPE
280
0
  9
$INTERSECTIONDISPLAY
280
0
  9
$INTERSECTIONCOLOR
 70
257
  9
$DIMASSOC
280
2
  9
$PROJECTNAME
  1

  9
$CAMERADISPLAY
290
0
  9
$LENSLENGTH
 40
50.0
  9
$CAMERAHEIGHT
 40
0.0
  9
$STEPSPERSEC
 40
24.0
  9
$STEPSIZE
 40
100.0
  9
$3DDWFPREC
 40
2.0
  9
$PSOLWIDTH
 40
0.005
  9
$PSOLHEIGHT
 40
0.08
  9
$LOFTANG1
 40
1.570796326795
  9
$LOFTANG2
 40
1.570796326795
  9
$LOFTMAG1
 40
0.0
  9
$LOFTMAG2
 40
0.0
  9
$LOFTPARAM
 70
7
  9
$LOFTNORMALS
280
1
  9
$LATITUDE
 40
37.795
  9
$LONGITUDE
 40
-122.394
  9
$NORTHDIRECTION
 40
0.0
  9
$TIMEZONE
 70
-8000
  9
$LIGHTGLYPHDISPLAY
280
1
  9
$TILEMODELIGHTSYNCH
280
1
  9
$CMATERIAL
347
20
  9
$SOLIDHIST
280
0
  9
$SHOWHIST
280
1
  9
$DWFFRAME
280
2
  9
$DGNFRAME
280
2
  9
$REALWORLDSCALE
290
1
  9
$INTERFERECOLOR
 62
256
  9
$CSHADOW
280
0
  9
$SHADOWPLANELOCATION
 40
0.0
  0
ENDSEC
  0
SECTION
  2
CLASSES
  0
CLASS
  1
ACDBDICTIONARYWDFLT
  2
AcDbDictionaryWithDefault
  3
ObjectDBX Classes
 90
0
 91
0
280
0
281
0
  0
CLASS
  1
SUN
  2
AcDbSun
  3
SCENEOE
 90
1153
 91
0
280
0
281
0
  0
CLASS
  1
VISUALSTYLE
  2
AcDbVisualStyle
  3
ObjectDBX Classes
 90
4095
 91
0
280
0
281
0
  0
CLASS
  1
MATERIAL
  2
AcDbMaterial
  3
ObjectDBX Classes
 90
1153
 91
0
280
0
281
0
  0
CLASS
  1
SCALE
  2
AcDbScale
  3
ObjectDBX Classes
 90
1153
 91
0
280
0
281
0
  0
CLASS
  1
TABLESTYLE
  2
AcDbTableStyle
  3
ObjectDBX Classes
 90
4095
 91
0
280
0
281
0
  0
CLASS
  1
MLEADERSTYLE
  2
AcDbMLeaderStyle
  3
ACDB_MLEADERSTYLE_CLASS
 90
4095
 91
0
280
0
281
0
  0
CLASS
  1
DICTIONARYVAR
  2
AcDbDictionaryVar
  3
ObjectDBX Classes
 90
0
 91
0
280
0
281
0
  0
CLASS
  1
CELLSTYLEMAP
  2
AcDbCellStyleMap
  3
ObjectDBX Classes
 90
1152
 91
0
280
0
281
0
  0
CLASS
  1
MENTALRAYRENDERSETTINGS
  2
AcDbMentalRayRenderSettings
  3
SCENEOE
 90
1024
 91
0
280
0
281
0
  0
CLASS
  1
ACDBDETAILVIEWSTYLE
  2
AcDbDetailViewStyle
  3
ObjectDBX Classes
 90
1025
 91
0
280
0
281
0
  0
CLASS
  1
ACDBSECTIONVIEWSTYLE
  2
AcDbSectionViewStyle
  3
ObjectDBX Classes
 90
1025
 91
0
280
0
281
0
  0
CLASS
  1
RASTERVARIABLES
  2
AcDbRasterVariables
  3
ISM
 90
0
 91
0
280
0
281
0
  0
CLASS
  1
LAYOUT
  2
AcDbLayout
  3
ObjectDBX Classes
 90
0
 91
0
280
0
281
0
  0
CLASS
  1
ACDBPLACEHOLDER
  2
AcDbPlaceHolder
  3
ObjectDBX Classes
 90
0
 91
0
280
0
281
0
  0
ENDSEC
  0
SECTION
  2
TABLES
  0
TABLE
  2
VPORT
  5
8
330
0
100
AcDbSymbolTable
 70
1
  0
VPORT
  5
B1
330
8
100
AcDbSymbolTableRecord
100
AcDbViewportTableRecord
  2
*Active
 70
0
 10
0.0
 20
0.0
 11
1.0
 21
1.0
 12
-0.7634083982688846
 22
-1.6221906269665425
 13
0.0
 23
0.0
 14
0.5
 24
0.5
 15
0.5
 25
0.5
 16
0.0
 26
0.0
 36
1.0
 17
0.0
 27
0.0
 37
0.0
 40
80.08796079514707
 41
1.34
 42
50.0
 43
0.0
 44
0.0
 50
0.0
 51
0.0
 71
0
 72
1000
 73
1
 74
3
 75
0
 76
0
 77
0
 78
0
281
0
 65
1
110
0.0
120
0.0
130
0.0
111
1.0
121
0.0
131
0.0
112
0.0
122
1.0
132
0.0
 79
0
146
0.0
  0
ENDTAB
  0
TABLE
  2
LTYPE
  5
2
330
0
100
AcDbSymbolTable
 70
3
  0
LTYPE
  5
24
330
2
100
AcDbSymbolTableRecord
100
AcDbLinetypeTableRecord
  2
ByBlock
 70
0
  3

 72
65
 73
0
 40
0.0
  0
LTYPE
  5
25
330
2
100
AcDbSymbolTableRecord
100
AcDbLinetypeTableRecord
  2
ByLayer
 70
0
  3

 72
65
 73
0
 40
0.0
  0
LTYPE
  5
26
330
2
100
AcDbSymbolTableRecord
100
AcDbLinetypeTableRecord
  2
Continuous
 70
0
  3

 72
65
 73
0
 40
0.0
  0
ENDTAB
  0
TABLE
  2
LAYER
  5
1
330
0
100
AcDbSymbolTable
 70
3
  0
LAYER
  5
27
330
1
100
AcDbSymbolTableRecord
100
AcDbLayerTableRecord
  2
0
 70
0
 62
7
  6
Continuous
370
-3
390
13
347
21
  0
LAYER
  5
28
330
1
100
AcDbSymbolTableRecord
100
AcDbLayerTableRecord
  2
Defpoints
 70
0
 62
7
  6
Continuous
290
0
370
-3
390
13
347
21
  0
LAYER
  5
2F
330
1
100
AcDbSymbolTableRecord
100
AcDbLayerTableRecord
  2
visible
 70
0
 62
7
  6
Continuous
370
-3
390
13
347
21
  0
ENDTAB
  0
TABLE
  2
STYLE
  5
5
330
0
100
AcDbSymbolTable
 70
1
  0
STYLE
  5
29
330
5
100
AcDbSymbolTableRecord
100
AcDbTextStyleTableRecord
  2
Standard
 70
0
 40
0.0
 41
1.0
 50
0.0
 71
0
 42
2.5
  3
txt
  4

  0
ENDTAB
  0
TABLE
  2
VIEW
  5
7
330
0
100
AcDbSymbolTable
 70
0
  0
ENDTAB
  0
TABLE
  2
UCS
  5
6
330
0
100
AcDbSymbolTable
 70
0
  0
ENDTAB
  0
TABLE
  2
APPID
  5
3
330
0
100
AcDbSymbolTable
 70
3
  0
APPID
  5
2A
330
3
100
AcDbSymbolTableRecord
100
AcDbRegAppTableRecord
  2
ACAD
 70
0
  0
APPID
  5
B2
330
3
100
AcDbSymbolTableRecord
100
AcDbRegAppTableRecord
  2
HATCHBACKGROUNDCOLOR
 70
0
  0
APPID
  5
B3
330
3
100
AcDbSymbolTableRecord
100
AcDbRegAppTableRecord
  2
EZDXF
 70
0
  0
ENDTAB
  0
TABLE
  2
DIMSTYLE
  5
4
330
0
100
AcDbSymbolTable
 70
1
100
AcDbDimStyleTable
  0
DIMSTYLE
105
2B
330
4
100
AcDbSymbolTableRecord
100
AcDbDimStyleTableRecord
  2
Standard
 70
0
 40
1.0
 41
2.5
 42
0.625
 43
3.75
 44
1.25
 45
0.0
 46
0.0
 47
0.0
 48
0.0
 49
2.5
140
2.5
141
2.5
142
0.0
143
0.03937007874
144
1.0
145
0.0
146
1.0
147
0.625
148
0.0
 69
0
 70
0
 71
0
 72
0
 73
0
 74
0
 75
0
 76
0
 77
1
 78
8
 79
3
170
0
171
3
172
1
173
0
174
0
175
0
176
0
177
0
178
0
179
2
271
2
272
2
273
2
274
3
275
0
276
0
277
2
278
44
279
0
280
0
281
0
282
0
283
0
284
8
285
0
286
0
288
0
289
3
290
0
371
-2
372
-2
  0
ENDTAB
  0
TABLE
  2
BLOCK_RECORD
  5
9
330
0
100
AcDbSymbolTable
 70
2
  0
BLOCK_RECORD
  5
17
330
9
100
AcDbSymbolTableRecord
100
AcDbBlockTableRecord
  2
*Model_Space
340
1A
 70
0
280
1
281
0
  0
BLOCK_RECORD
  5
1B
330
9
100
AcDbSymbolTableRecord
100
AcDbBlockTableRecord
  2
*Paper_Space
340
1E
 70
0
280
1
281
0
  0
ENDTAB
  0
ENDSEC
  0
SECTION
  2
BLOCKS
  0
BLOCK
  5
18
330
17
100
AcDbEntity
  8
0
100
AcDbBlockBegin
  2
*Model_Space
 70
0
 10
0.0
 20
0.0
 30
0.0
  3
*Model_Space
  1

  0
ENDBLK
  5
19
330
17
100
AcDbEntity
  8
0
100
AcDbBlockEnd
  0
BLOCK
  5
1C
330
1B
100
AcDbEntity
  8
0
100
AcDbBlockBegin
  2
*Paper_Space
 70
0
 10
0.0
 20
0.0
 30
0.0
  3
*Paper_Space
  1

  0
ENDBLK
  5
1D
330
1B
100
AcDbEntity
  8
0
100
AcDbBlockEnd
  0
ENDSEC
  0
SECTION
  2
ENTITIES
  0
LINE
  5
30
330
17
100
AcDbEntity
  8
visible
100
AcDbLine
 10
-8.120207027318752
 20
-40.91274677562298
 30
0.0
 11
-11.600295770402221
 21
-40.29005576161727
 31
0.0
  0
ELLIPSE
  5
31
330
17
100
AcDbEntity
  8
visible
100
AcDbEllipse
 10
-7.725796969624291
 20
-40.69297347664294
 30
0.0
 11
0.1409058715398079
 21
0.787493197028144
 31
0.0
 40
0.46778989951020533
 41
-4.347059235004174
 42
-3.141592653589793
  0
ELLIPSE
  5
32
330
17
100
AcDbEntity
  8
visible
100
AcDbEllipse
 10
-11.205885712707754
 20
-40.07028246263724
 30
0.0
 11
-0.1409058715398079
 21
-0.787493197028144
 31
0.0
 40
0.46778989951020533
 41
5.077718725765205
 42
6.283185307179586
  0
ELLIPSE
  5
33
330
17
100
AcDbEntity
  8
visible
100
AcDbEllipse
 10
-5.655144166728363
 20
-39.53916365699774
 30
0.0
 11
-5.0
 21
-1.4626061549433382e-16
 31
0.0
 40
0.31575818205330114
 41
-5.227937988001364
 42
-3.6571416612064676
  0
ELLIPSE
  5
34
330
17
100
AcDbEntity
  8
visible
100
AcDbEllipse
 10
-2.0010509864907107
 20
-40.192989221703726
 30
0.0
 11
-0.3894030368516418
 21
0.6988313636999409
 31
0.0
 40
0.825511587067454
 41
3.1415926535897927
 42
4.118639313844403
  0
ELLIPSE
  5
35
330
17
100
AcDbEntity
  8
visible
100
AcDbEllipse
 10
-9.135232909811823
 20
-38.916472642992034
 30
0.0
 11
-5.0
 21
-0.0
 31
0.0
 40
0.31575818205330114
 41
-6.283185307179586
 42
-5.227937988001364
  0
LINE
  5
36
330
17
100
AcDbEntity
  8
visible
100
AcDbLine
 10
13.485343925668346
 20
-32.07602871275342
 30
0.0
 11
-1.305033237874019
 21
-40.31752742450487
 31
0.0
  0
ELLIPSE
  5
37
330
17
100
AcDbEntity
  8
visible
100
AcDbEllipse
 10
12.789326177051649
 20
-31.95149050995228
 30
0.0
 11
-0.3894030368516423
 21
0.6988313636999406
 31
0.0
 40
0.8255115870674564
 41
3.1415926535897922
 42
4.118639313844403
  0
ELLIPSE
  5
38
330
17
100
AcDbEntity
  8
visible
100
AcDbEllipse
 10
9.135232996814011
 20
-31.29766494524629
 30
0.0
 11
-5.0
 21
-0.0
 31
0.0
 40
0.31575818205330114
 41
-3.657141661206468
 42
-3.141592653589793
  0
LINE
  5
39
330
17
100
AcDbEntity
  8
visible
100
AcDbLine
 10
-2.9102241667333644
 20
7.558387989546457
 30
0.0
 11
-2.9102241667333644
 21
26.203088035594188
 31
0.0
  0
LINE
  5
3A
330
17
100
AcDbEntity
  8
visible
100
AcDbLine
 10
-2.910224166733366
 20
7.558387989546455
 30
0.0
 11
-4.049953232431385
 21
6.923307793630328
 31
0.0
  0
SPLINE
  5
3B
330
17
100
AcDbEntity
  8
visible
100
AcDbSpline
 70
0
 71
2
 72
6
 73
3
 74
0
 40
0.0
 40
0.0
 40
0.0
 40
1.0
 40
1.0
 40
1.0
 10
-13.90536664555313
 20
-32.11886484714938
 30
0.0
 10
-13.877000497698837
 20
-32.073875915758414
 30
0.0
 10
-13.692947598339737
 20
-32.026906069277985
 30
0.0
  0
SPLINE
  5
3C
330
17
100
AcDbEntity
  8
visible
100
AcDbSpline
 70
0
 71
2
 72
6
 73
3
 74
0
 40
0.0
 40
0.0
 40
0.0
 40
1.0
 40
1.0
 40
1.0
 10
-13.692947598339781
 20
-32.026906069277956
 30
0.0
 10
-13.532620888399244
 20
-31.988447068662367
 30
0.0
 10
-13.330732958000084
 20
-32.02345319257016
 30
0.0
  0
SPLINE
  5
3D
330
17
100
AcDbEntity
  8
visible
100
AcDbSpline
 70
0
 71
3
 72
11
 73
7
 74
0
 40
0.0
 40
0.0
 40
0.0
 40
0.0
 40
0.4840802426560994
 40
0.4840802426560994
 40
0.4840802426560994
 40
1.0
 40
1.0
 40
1.0
 40
1.0
 10
-9.897621471308842
 20
-32.637738583162864
 30
0.0
 10
-9.712756511614694
 20
-32.67128739466635
 30
0.0
 10
-9.47783242408833
 20
-32.67388151137697
 30
0.0
 10
-9.267260423828976
 20
-32.64801299055593
 30
0.0
 10
-9.04156188774308
 20
-32.62094075728529
 30
0.0
 10
-8.844753843845089
 20
-32.56379957911922
 30
0.0
 10
-8.719908476705847
 20
-32.49386640633971
 30
0.0
  0
LINE
  5
3E
330
17
100
AcDbEntity
  8
visible
100
AcDbLine
 10
-7.0316928738756
 20
-31.55315836610256
 30
0.0
 11
-8.719908476705847
 21
-32.493866406339706
 31
0.0
  0
ELLIPSE
  5
3F
330
17
100
AcDbEntity
  8
visible
100
AcDbEllipse
 10
-4.060103491908826
 20
-31.178261966989545
 30
0.0
 11
3.2
 21
9.360679391637365e-17
 31
0.0
 40
0.3157581820533011
 41
3.5217084398309755
 42
5.767636299562912
  0
ELLIPSE
  5
40
330
17
100
AcDbEntity
  8
visible
100
AcDbEllipse
 10
-4.060103491908826
 20
-31.178261966989545
 30
0.0
 11
3.2
 21
9.360679391637365e-17
 31
0.0
 40
0.3157581820533011
 41
5.767636299562912
 42
6.283185307179586
  0
ELLIPSE
  5
41
330
17
100
AcDbEntity
  8
visible
100
AcDbEllipse
 10
-4.060103491908826
 20
-31.178261966989545
 30
0.0
 11
3.2
 21
9.360679391637365e-17
 31
0.0
 40
0.3157581820533011
 41
0.0
 42
1.7303788521152623
  0
LINE
  5
42
330
17
100
AcDbEntity
  8
visible
100
AcDbLine
 10
2.8285585684859775
 20
-26.058825891601597
 30
0.0
 11
-4.568602853025524
 21
-30.180674553870833
 31
0.0
  0
ELLIPSE
  5
43
330
17
100
AcDbEntity
  8
visible
100
AcDbEllipse
 10
5.800147950452747
 20
-25.68392949248858
 30
0.0
 11
3.2
 21
9.360679391637365e-17
 31
0.0
 40
0.3157581820533011
 41
3.5217084398309755
 42
5.767636299562912
  0
ELLIPSE
  5
44
330
17
100
AcDbEntity
  8
visible
100
AcDbEllipse
 10
5.800147950452747
 20
-25.68392949248858
 30
0.0
 11
3.2
 21
9.360679391637365e-17
 31
0.0
 40
0.3157581820533011
 41
5.767636299562912
 42
6.283185307179586
  0
ELLIPSE
  5
45
330
17
100
AcDbEntity
  8
visible
100
AcDbEllipse
 10
5.800147950452747
 20
-25.68392949248858
 30
0.0
 11
3.2
 21
9.360679391637365e-17
 31
0.0
 40
0.3157581820533011
 41
0.0
 42
1.7303788521152619
  0
LINE
  5
46
330
17
100
AcDbEntity
  8
visible
100
AcDbLine
 10
6.979864192166302
 20
-23.74563403913272
 30
0.0
 11
5.291648589336052
 21
-24.68634207936987
 31
0.0
  0
SPLINE
  5
47
330
17
100
AcDbEntity
  8
visible
100
AcDbSpline
 70
0
 71
2
 72
6
 73
3
 74
0
 40
0.0
 40
0.0
 40
0.0
 40
1.0
 40
1.0
 40
1.0
 10
7.126905054076218
 20
-23.601076280652272
 30
0.0
 10
7.1023966940978305
 20
-23.677242579542458
 30
0.0
 10
6.979864192166296
 20
-23.74563403913272
 30
0.0
  0
LINE
  5
48
330
17
100
AcDbEntity
  8
visible
100
AcDbLine
 10
-9.897621471308842
 20
-32.63773858316286
 30
0.0
 11
-13.330732958000088
 21
-32.02345319257012
 31
0.0
  0
ELLIPSE
  5
49
330
17
100
AcDbEntity
  8
visible
100
AcDbEllipse
 10
-4.060103491908826
 20
-32.98105739115273
 30
0.0
 11
3.2
 21
9.360679391637365e-17
 31
0.0
 40
0.3157581820533011
 41
1.1019641043018957
 42
2.0396285492878987
  0
ELLIPSE
  5
4A
330
17
100
AcDbEntity
  8
visible
100
AcDbEllipse
 10
5.800147950452747
 20
-27.486724916651767
 30
0.0
 11
3.2
 21
9.360679391637365e-17
 31
0.0
 40
0.3157581820533011
 41
1.1019641043018957
 42
2.0396285492878987
  0
ELLIPSE
  5
4B
330
17
100
AcDbEntity
  8
visible
100
AcDbEllipse
 10
-5.800147863450562
 20
-24.130154611798005
 30
0.0
 11
-0.15851910548228373
 21
-0.8859298466566621
 31
0.0
 40
0.46778989951020544
 41
0.36532974538051555
 42
3.1415926535897936
  0
ELLIPSE
  5
4C
330
17
100
AcDbEntity
  8
visible
100
AcDbEllipse
 10
-5.800147863450562
 20
-24.130154611798005
 30
0.0
 11
-0.15851910548228373
 21
-0.8859298466566621
 31
0.0
 40
0.46778989951020544
 41
3.1415926535897936
 42
6.283185307179586
  0
ELLIPSE
  5
4D
330
17
100
AcDbEntity
  8
visible
100
AcDbEllipse
 10
-5.800147863450562
 20
-24.130154611798005
 30
0.0
 11
-0.15851910548228373
 21
-0.8859298466566621
 31
0.0
 40
0.46778989951020544
 41
0.0
 42
0.36532974538051555
  0
ELLIPSE
  5
4E
330
17
100
AcDbEntity
  8
visible
100
AcDbEllipse
 10
4.060103578911011
 20
-18.63582213729704
 30
0.0
 11
-0.15851910548228373
 21
-0.8859298466566621
 31
0.0
 40
0.46778989951020544
 41
0.36532974538051555
 42
3.1415926535897936
  0
ELLIPSE
  5
4F
330
17
100
AcDbEntity
  8
visible
100
AcDbEllipse
 10
4.060103578911011
 20
-18.63582213729704
 30
0.0
 11
-0.15851910548228373
 21
-0.8859298466566621
 31
0.0
 40
0.46778989951020544
 41
3.1415926535897936
 42
6.283185307179586
  0
ELLIPSE
  5
50
330
17
100
AcDbEntity
  8
visible
100
AcDbEllipse
 10
4.060103578911011
 20
-18.63582213729704
 30
0.0
 11
-0.15851910548228373
 21
-0.8859298466566621
 31
0.0
 40
0.46778989951020544
 41
0.0
 42
0.36532974538051555
  0
LINE
  5
51
330
17
100
AcDbEntity
  8
visible
100
AcDbLine
 10
-2.910224166733367
 20
7.558387989546462
 30
0.0
 11
2.3099089478918318
 21
6.624351468537903
 31
0.0
  0
LINE
  5
52
330
17
100
AcDbEntity
  8
visible
100
AcDbLine
 10
2.3099089478918344
 20
6.624351468537892
 30
0.0
 11
2.3099089478918344
 21
29.111852285731185
 31
0.0
  0
LINE
  5
53
330
17
100
AcDbEntity
  8
visible
100
AcDbLine
 10
2.309908947891836
 20
6.62435146853789
 30
0.0
 11
-4.04995323243138
 21
3.0805070224847686
 31
0.0
  0
LINE
  5
54
330
17
100
AcDbEntity
  8
visible
100
AcDbLine
 10
2.309908947891836
 20
29.11185228573118
 30
0.0
 11
-4.04995323243138
 21
25.56800783967806
 31
0.0
  0
LINE
  5
55
330
17
100
AcDbEntity
  8
visible
100
AcDbLine
 10
-4.049953232431385
 20
3.080507022484763
 30
0.0
 11
-4.049953232431385
 21
25.568007839678057
 31
0.0
  0
ELLIPSE
  5
56
330
17
100
AcDbEntity
  8
visible
100
AcDbEllipse
 10
-5.800147863450562
 20
19.990891295353393
 30
0.0
 11
-0.15851910548228373
 21
-0.8859298466566621
 31
0.0
 40
0.46778989951020544
 41
0.36532974538051555
 42
3.1415926535897936
  0
ELLIPSE
  5
57
330
17
100
AcDbEntity
  8
visible
100
AcDbEllipse
 10
-5.800147863450562
 20
19.990891295353393
 30
0.0
 11
-0.15851910548228373
 21
-0.8859298466566621
 31
0.0
 40
0.46778989951020544
 41
3.1415926535897936
 42
6.283185307179586
  0
ELLIPSE
  5
58
330
17
100
AcDbEntity
  8
visible
100
AcDbEllipse
 10
-5.800147863450562
 20
19.990891295353393
 30
0.0
 11
-0.15851910548228373
 21
-0.8859298466566621
 31
0.0
 40
0.46778989951020544
 41
0.0
 42
0.36532974538051555
  0
ELLIPSE
  5
59
330
17
100
AcDbEntity
  8
visible
100
AcDbEllipse
 10
4.060103578911011
 20
25.485223769854358
 30
0.0
 11
-0.15851910548228373
 21
-0.8859298466566621
 31
0.0
 40
0.46778989951020544
 41
0.36532974538051555
 42
3.1415926535897936
  0
ELLIPSE
  5
5A
330
17
100
AcDbEntity
  8
visible
100
AcDbEllipse
 10
4.060103578911011
 20
25.485223769854358
 30
0.0
 11
-0.15851910548228373
 21
-0.8859298466566621
 31
0.0
 40
0.46778989951020544
 41
3.1415926535897936
 42
6.283185307179586
  0
ELLIPSE
  5
5B
330
17
100
AcDbEntity
  8
visible
100
AcDbEllipse
 10
4.060103578911011
 20
25.485223769854358
 30
0.0
 11
-0.15851910548228373
 21
-0.8859298466566621
 31
0.0
 40
0.46778989951020544
 41
0.0
 42
0.36532974538051555
  0
LINE
  5
5C
330
17
100
AcDbEntity
  8
visible
100
AcDbLine
 10
5.29164858933607
 20
-24.686342079369854
 30
0.0
 11
5.29164858933607
 21
-24.49657413998427
 31
0.0
  0
LINE
  5
5D
330
17
100
AcDbEntity
  8
visible
100
AcDbLine
 10
5.291648589336073
 20
-24.496574139984272
 30
0.0
 11
2.8285585684859536
 21
-25.86905795221603
 31
0.0
  0
LINE
  5
5E
330
17
100
AcDbEntity
  8
visible
100
AcDbLine
 10
2.8285585684859527
 20
-26.05882589160161
 30
0.0
 11
2.8285585684859527
 21
-25.869057952216025
 31
0.0
  0
LINE
  5
5F
330
17
100
AcDbEntity
  8
visible
100
AcDbLine
 10
-4.568602853025503
 20
-30.18067455387082
 30
0.0
 11
-4.568602853025503
 21
-29.990906614485233
 31
0.0
  0
LINE
  5
60
330
17
100
AcDbEntity
  8
visible
100
AcDbLine
 10
-4.568602853025503
 20
-29.990906614485237
 30
0.0
 11
-7.031692873875621
 21
-31.36339042671699
 31
0.0
  0
LINE
  5
61
330
17
100
AcDbEntity
  8
visible
100
AcDbLine
 10
-7.031692873875624
 20
-31.553158366102576
 30
0.0
 11
-7.031692873875624
 21
-31.36339042671699
 31
0.0
  0
ELLIPSE
  5
62
330
17
100
AcDbEntity
  8
visible
100
AcDbEllipse
 10
-0.8700221422697751
 20
2.8124238971161475
 30
0.0
 11
-0.20255219033847363
 21
-1.132021470727957
 31
0.0
 40
0.4677898995102055
 41
0.36532974538051555
 42
3.1415926535897936
  0
ELLIPSE
  5
63
330
17
100
AcDbEntity
  8
visible
100
AcDbEllipse
 10
-0.8700221422697751
 20
2.8124238971161475
 30
0.0
 11
-0.20255219033847363
 21
-1.132021470727957
 31
0.0
 40
0.4677898995102055
 41
3.1415926535897936
 42
6.283185307179586
  0
ELLIPSE
  5
64
330
17
100
AcDbEntity
  8
visible
100
AcDbEllipse
 10
-0.8700221422697751
 20
2.8124238971161475
 30
0.0
 11
-0.20255219033847363
 21
-1.132021470727957
 31
0.0
 40
0.4677898995102055
 41
0.0
 42
0.36532974538051555
  0
ELLIPSE
  5
65
330
17
100
AcDbEntity
  8
visible
100
AcDbEllipse
 10
-0.8700221422697751
 20
29.379935411099794
 30
0.0
 11
-0.20255219033847363
 21
-1.132021470727957
 31
0.0
 40
0.4677898995102055
 41
0.36532974538051555
 42
3.1415926535897936
  0
ELLIPSE
  5
66
330
17
100
AcDbEntity
  8
visible
100
AcDbEllipse
 10
-0.8700221422697751
 20
29.379935411099794
 30
0.0
 11
-0.20255219033847363
 21
-1.132021470727957
 31
0.0
 40
0.4677898995102055
 41
3.1415926535897936
 42
6.283185307179586
  0
ELLIPSE
  5
67
330
17
100
AcDbEntity
  8
visible
100
AcDbEllipse
 10
-0.8700221422697751
 20
29.379935411099794
 30
0.0
 11
-0.20255219033847363
 21
-1.132021470727957
 31
0.0
 40
0.4677898995102055
 41
0.0
 42
0.36532974538051555
  0
LINE
  5
68
330
17
100
AcDbEntity
  8
visible
100
AcDbLine
 10
-11.600295770402216
 20
-40.29005576161727
 30
0.0
 11
-11.600295770402216
 21
-34.217481701278146
 31
0.0
  0
LINE
  5
69
330
17
100
AcDbEntity
  8
visible
100
AcDbLine
 10
-8.120207027318752
 20
-34.840172715283856
 30
0.0
 11
-11.600295770402221
 21
-34.217481701278146
 31
0.0
  0
LINE
  5
6A
330
17
100
AcDbEntity
  8
visible
100
AcDbLine
 10
-8.120207027318752
 20
-40.91274677562298
 30
0.0
 11
-8.120207027318752
 21
-34.840172715283856
 31
0.0
  0
ELLIPSE
  5
6B
330
17
100
AcDbEntity
  8
visible
100
AcDbEllipse
 10
-9.135232909811823
 20
-32.84389858265291
 30
0.0
 11
-5.0
 21
-0.0
 31
0.0
 40
0.31575818205330114
 41
-6.283185307179586
 42
-5.227937988001364
  0
ELLIPSE
  5
6C
330
17
100
AcDbEntity
  8
visible
100
AcDbEllipse
 10
-7.725796969624291
 20
-34.62039941630382
 30
0.0
 11
0.1409058715398079
 21
0.787493197028144
 31
0.0
 40
0.4677898995102052
 41
-5.917855561799071
 42
-4.347059235004174
  0
LINE
  5
6D
330
17
100
AcDbEntity
  8
visible
100
AcDbLine
 10
-7.725796969624291
 20
-33.86132765876142
 30
0.0
 11
-11.20588571270776
 21
-33.23863664475571
 31
0.0
  0
ELLIPSE
  5
6E
330
17
100
AcDbEntity
  8
visible
100
AcDbEllipse
 10
-11.205885712707754
 20
-33.997708402298116
 30
0.0
 11
0.1409058715398079
 21
0.787493197028144
 31
0.0
 40
0.46778989951020533
 41
-5.917855561799071
 42
-4.347059235004174
  0
LINE
  5
6F
330
17
100
AcDbEntity
  8
visible
100
AcDbLine
 10
-1.305033237874028
 20
-40.317527424504874
 30
0.0
 11
-1.305033237874028
 21
-34.24495336416575
 31
0.0
  0
ELLIPSE
  5
70
330
17
100
AcDbEntity
  8
visible
100
AcDbEllipse
 10
-5.655144166728363
 20
-33.466589596658615
 30
0.0
 11
-5.0
 21
-1.4626061549433382e-16
 31
0.0
 40
0.31575818205330114
 41
-5.227937988001364
 42
-3.6571416612064676
  0
ELLIPSE
  5
71
330
17
100
AcDbEntity
  8
visible
100
AcDbEllipse
 10
-14.8599788929454
 20
-23.001530141077055
 30
0.0
 11
-0.8
 21
-2.3401698479093413e-17
 31
0.0
 40
0.3157581820533011
 41
-6.283185307179586
 42
-5.227937988001364
  0
ELLIPSE
  5
72
330
17
100
AcDbEntity
  8
visible
100
AcDbEllipse
 10
-6.380162652514443
 20
-18.27640421300623
 30
0.0
 11
-3.170382109645678
 21
-17.71859693313324
 31
0.0
 40
0.4677898995102053
 41
5.077718725765205
 42
5.6799960407404715
  0
ELLIPSE
  5
73
330
17
100
AcDbEntity
  8
visible
100
AcDbEllipse
 10
-9.135232909811823
 20
-32.08482682511051
 30
0.0
 11
-4.2
 21
-0.0
 31
0.0
 40
0.31575818205330114
 41
-6.329480198369618
 42
-5.227937988001364
  0
ELLIPSE
  5
74
330
17
100
AcDbEntity
  8
visible
100
AcDbEllipse
 10
-2.0010509864907107
 20
-34.120415161364605
 30
0.0
 11
-0.3894030368516418
 21
0.6988313636999409
 31
0.0
 40
0.825511587067454
 41
4.118639313844403
 42
5.689435640639299
  0
ELLIPSE
  5
75
330
17
100
AcDbEntity
  8
visible
100
AcDbEllipse
 10
-5.655144166728363
 20
-32.707517839116214
 30
0.0
 11
-4.2
 21
-1.2285891701524042e-16
 31
0.0
 40
0.31575818205330114
 41
-5.227937988001364
 42
-3.6571416612064676
  0
ELLIPSE
  5
76
330
17
100
AcDbEntity
  8
visible
100
AcDbEllipse
 10
5.6551442537305405
 20
-23.843328113359064
 30
0.0
 11
-4.2
 21
-1.2285891701524042e-16
 31
0.0
 40
0.31575818205330114
 41
-2.086345334411571
 42
-2.000284783643305
  0
LINE
  5
77
330
17
100
AcDbEntity
  8
visible
100
AcDbLine
 10
7.725797056626476
 20
-22.68951829371386
 30
0.0
 11
11.205885799709945
 21
-23.312209307719566
 31
0.0
  0
ELLIPSE
  5
78
330
17
100
AcDbEntity
  8
visible
100
AcDbEllipse
 10
9.135232996814011
 20
-24.466019127364767
 30
0.0
 11
-4.2
 21
-0.0
 31
0.0
 40
0.31575818205330114
 41
-3.657141661206468
 42
-2.0863453344115714
  0
LINE
  5
79
330
17
100
AcDbEntity
  8
visible
100
AcDbLine
 10
12.789326177051649
 20
-25.119844692070757
 30
0.0
 11
-2.001050986490716
 21
-33.361343403822204
 31
0.0
  0
LINE
  5
7A
330
17
100
AcDbEntity
  8
visible
100
AcDbLine
 10
13.485343925668346
 20
-26.003454652414298
 30
0.0
 11
-1.305033237874019
 21
-34.244953364165745
 31
0.0
  0
LINE
  5
7B
330
17
100
AcDbEntity
  8
visible
100
AcDbLine
 10
13.485343925668346
 20
-32.07602871275342
 30
0.0
 11
13.485343925668346
 21
-26.003454652414298
 31
0.0
  0
ELLIPSE
  5
7C
330
17
100
AcDbEntity
  8
visible
100
AcDbEllipse
 10
9.135232996814011
 20
-25.225090884907168
 30
0.0
 11
-5.0
 21
-0.0
 31
0.0
 40
0.31575818205330114
 41
-3.657141661206468
 42
-3.141592653589793
  0
ELLIPSE
  5
7D
330
17
100
AcDbEntity
  8
visible
100
AcDbEllipse
 10
-14.8599788929454
 20
14.477637887578425
 30
0.0
 11
-0.8
 21
2.3401698479093416e-17
 31
0.0
 40
0.3157581820533011
 41
-6.283185307179586
 42
-5.227937988001364
  0
LINE
  5
7E
330
17
100
AcDbEntity
  8
visible
100
AcDbLine
 10
-15.25438895063986
 20
14.25786458859838
 30
0.0
 11
-15.25438895063986
 21
-23.221303440057106
 31
0.0
  0
ELLIPSE
  5
7F
330
17
100
AcDbEntity
  8
visible
100
AcDbEllipse
 10
-6.380162652514443
 20
35.52280660281063
 30
0.0
 11
-0.3894030368516418
 21
0.6988313636999409
 31
0.0
 40
0.825511587067454
 41
5.689435640639299
 42
6.283185307179586
  0
ELLIPSE
  5
80
330
17
100
AcDbEntity
  8
visible
100
AcDbEllipse
 10
-6.380162652514443
 20
19.20276381564925
 30
0.0
 11
-3.170382109645678
 21
-17.718596933133238
 31
0.0
 40
0.4677898995102053
 41
3.5069223989703087
 42
5.077718725765205
  0
ELLIPSE
  5
81
330
17
100
AcDbEntity
  8
visible
100
AcDbEllipse
 10
-4.408112364042125
 20
36.621673097710826
 30
0.0
 11
-0.38940303685164174
 21
0.6988313636999409
 31
0.0
 40
0.825511587067454
 41
5.689435640639299
 42
6.283185307179586
  0
LINE
  5
82
330
17
100
AcDbEntity
  8
visible
100
AcDbLine
 10
-4.408112364042125
 20
37.38074485525321
 30
0.0
 11
-6.380162652514441
 21
36.28187836035302
 31
0.0
  0
ELLIPSE
  5
83
330
17
100
AcDbEntity
  8
visible
100
AcDbEllipse
 10
-4.408112364042125
 20
20.30163031054944
 30
0.0
 11
-3.170382109645678
 21
-17.71859693313324
 31
0.0
 40
0.4677898995102053
 41
3.141592653589793
 42
3.5069223989703087
  0
ELLIPSE
  5
84
330
17
100
AcDbEntity
  8
visible
100
AcDbEllipse
 10
-2.5520650351226237
 20
-18.9613643284125
 30
0.0
 11
-3.170382109645678
 21
-17.71859693313324
 31
0.0
 40
0.4677898995102053
 41
5.077718725765205
 42
5.673446258334566
  0
LINE
  5
85
330
17
100
AcDbEntity
  8
visible
100
AcDbLine
 10
-15.25438895063986
 20
-23.221303440057092
 30
0.0
 11
-11.426291333248042
 21
-23.90626355546337
 31
0.0
  0
ELLIPSE
  5
86
330
17
100
AcDbEntity
  8
visible
100
AcDbEllipse
 10
12.789326177051649
 20
-25.878916449613158
 30
0.0
 11
-0.3894030368516416
 21
0.698831363699941
 31
0.0
 40
0.8255115870674536
 41
4.118639313844403
 42
5.689435640639299
  0
ELLIPSE
  5
87
330
17
100
AcDbEntity
  8
visible
100
AcDbEllipse
 10
-11.03188127555358
 20
-23.68649025648333
 30
0.0
 11
0.8
 21
2.3401698479093413e-17
 31
0.0
 40
0.3157581820533011
 41
4.196839972768015
 42
5.767636299562912
  0
ELLIPSE
  5
88
330
17
100
AcDbEntity
  8
visible
100
AcDbEllipse
 10
-1.8560472865059339
 20
-19.085902531213648
 30
0.0
 11
-3.02947623810587
 21
-16.931103736105097
 31
0.0
 40
0.46778989951020533
 41
5.077718725765205
 42
5.705325527130559
  0
LINE
  5
89
330
17
100
AcDbEntity
  8
visible
100
AcDbLine
 10
0.11600300196638358
 20
35.81217477950341
 30
0.0
 11
-1.8560472865059319
 21
34.713308284603215
 31
0.0
  0
ELLIPSE
  5
8A
330
17
100
AcDbEntity
  8
visible
100
AcDbEllipse
 10
0.11600300196638358
 20
19.492131992342024
 30
0.0
 11
-3.02947623810587
 21
-16.931103736105097
 31
0.0
 40
0.46778989951020533
 41
1.936126072175412
 42
3.5069223989703087
  0
LINE
  5
8B
330
17
100
AcDbEntity
  8
visible
100
AcDbLine
 10
8.59581924239734
 20
-13.261910108242617
 30
0.0
 11
8.59581924239734
 21
24.21725792041287
 31
0.0
  0
ELLIPSE
  5
8C
330
17
100
AcDbEntity
  8
visible
100
AcDbEllipse
 10
0.11600300196638358
 20
-17.987036036313455
 30
0.0
 11
-3.0294762381058704
 21
-16.931103736105094
 31
0.0
 40
0.46778989951020544
 41
1.3085192708100586
 42
1.936126072175412
  0
LINE
  5
8D
330
17
100
AcDbEntity
  8
visible
100
AcDbLine
 10
-10.33586352693689
 20
13.668139569371007
 30
0.0
 11
-10.33586352693689
 21
-23.81102845928448
 31
0.0
  0
ELLIPSE
  5
8E
330
17
100
AcDbEntity
  8
visible
100
AcDbEllipse
 10
-1.8560472865059339
 20
18.39326549744183
 30
0.0
 11
-3.02947623810587
 21
-16.931103736105094
 31
0.0
 40
0.46778989951020533
 41
3.5069223989703087
 42
5.077718725765205
  0
ELLIPSE
  5
8F
330
17
100
AcDbEntity
  8
visible
100
AcDbEllipse
 10
7.89980149378065
 20
-13.137371905441483
 30
0.0
 11
-0.8
 21
9.360679391637363e-17
 31
0.0
 40
0.3157581820533009
 41
-3.6571416612064676
 42
-3.141592653589793
  0
ELLIPSE
  5
90
330
17
100
AcDbEntity
  8
visible
100
AcDbEllipse
 10
7.725797056626476
 20
-23.44859005125626
 30
0.0
 11
-0.1409058715398079
 21
-0.787493197028144
 31
0.0
 40
0.4677898995102052
 41
3.141592653589793
 42
3.5069223989703087
  0
ELLIPSE
  5
91
330
17
100
AcDbEntity
  8
visible
100
AcDbEllipse
 10
11.20588579970994
 20
-24.071281065261964
 30
0.0
 11
-0.1409058715398079
 21
-0.787493197028144
 31
0.0
 40
0.46778989951020533
 41
3.141592653589793
 42
3.5069223989703087
  0
LINE
  5
92
330
17
100
AcDbEntity
  8
visible
100
AcDbLine
 10
-11.426291333248042
 20
13.57290447319211
 30
0.0
 11
-11.426291333248042
 21
-23.906263555463376
 31
0.0
  0
LINE
  5
93
330
17
100
AcDbEntity
  8
visible
100
AcDbLine
 10
-15.25438895063986
 20
14.257864588598387
 30
0.0
 11
-11.426291333248042
 21
13.572904473192109
 31
0.0
  0
LINE
  5
94
330
17
100
AcDbEntity
  8
visible
100
AcDbLine
 10
-6.380162652514442
 20
36.281878360353026
 30
0.0
 11
-2.5520650351226246
 21
35.59691824494675
 31
0.0
  0
ELLIPSE
  5
95
330
17
100
AcDbEntity
  8
visible
100
AcDbEllipse
 10
-2.5520650351226237
 20
18.51780370024298
 30
0.0
 11
-3.170382109645678
 21
-17.718596933133238
 31
0.0
 40
0.4677898995102053
 41
3.5069223989703087
 42
5.077718725765205
  0
LINE
  5
96
330
17
100
AcDbEntity
  8
visible
100
AcDbLine
 10
-0.5800147466503063
 20
36.69578473984694
 30
0.0
 11
-2.552065035122622
 21
35.59691824494675
 31
0.0
  0
LINE
  5
97
330
17
100
AcDbEntity
  8
visible
100
AcDbLine
 10
-4.4081123640421245
 20
37.38074485525322
 30
0.0
 11
-0.5800147466503072
 21
36.69578473984694
 31
0.0
  0
ELLIPSE
  5
98
330
17
100
AcDbEntity
  8
visible
100
AcDbEllipse
 10
-0.5800147466503063
 20
19.616670195143172
 30
0.0
 11
-3.170382109645678
 21
-17.71859693313324
 31
0.0
 40
0.4677898995102053
 41
3.141592653589793
 42
3.5069223989703087
  0
ELLIPSE
  5
99
330
17
100
AcDbEntity
  8
visible
100
AcDbEllipse
 10
-11.03188127555358
 20
13.79267777217214
 30
0.0
 11
0.8
 21
-2.3401698479093416e-17
 31
0.0
 40
0.3157581820533011
 41
4.196839972768015
 42
5.767636299562912
  0
ELLIPSE
  5
9A
330
17
100
AcDbEntity
  8
visible
100
AcDbEllipse
 10
-0.5800147466503063
 20
35.936712982304556
 30
0.0
 11
0.38940303685164174
 21
-0.6988313636999409
 31
0.0
 40
0.825511587067454
 41
-5.3061386469249765
 42
-3.73534232013008
  0
ELLIPSE
  5
9B
330
17
100
AcDbEntity
  8
visible
100
AcDbEllipse
 10
-2.5520650351226237
 20
34.83784648740436
 30
0.0
 11
0.3894030368516418
 21
-0.6988313636999409
 31
0.0
 40
0.825511587067454
 41
-5.3061386469249765
 42
-3.73534232013008
  0
ELLIPSE
  5
9C
330
17
100
AcDbEntity
  8
visible
100
AcDbEllipse
 10
7.89980149378065
 20
24.341796123213996
 30
0.0
 11
-0.8
 21
-2.3401698479093413e-17
 31
0.0
 40
0.3157581820533011
 41
-3.6571416612064676
 42
-3.141592653589793
  0
LINE
  5
9D
330
17
100
AcDbEntity
  8
visible
100
AcDbLine
 10
-7.8667028411640985
 20
-41.48046667367109
 30
0.0
 11
-11.346791584247564
 21
-40.857775659665386
 31
0.0
  0
SPLINE
  5
9E
330
17
100
AcDbEntity
  8
visible
100
AcDbSpline
 70
0
 71
3
 72
17
 73
13
 74
0
 40
0.0
 40
0.0
 40
0.0
 40
0.0
 40
0.39192523840801485
 40
0.39192523840801485
 40
0.39192523840801485
 40
0.6548373318530364
 40
0.6548373318530364
 40
0.6548373318530364
 40
0.8850359572022288
 40
0.8850359572022288
 40
0.8850359572022288
 40
1.0
 40
1.0
 40
1.0
 40
1.0
 10
-7.8667028411640985
 20
-41.48046667367109
 30
0.0
 10
-7.195020747556488
 20
-41.6008631529074
 30
0.0
 10
-6.437479969380347
 20
-41.66430522896674
 30
0.0
 10
-5.677283177490621
 20
-41.66533180541572
 30
0.0
 10
-5.167520553469249
 20
-41.66617102454008
 30
0.0
 10
-4.657590339542954
 20
-41.63914186885616
 30
0.0
 10
-4.173794387037193
 20
-41.58538782721844
 30
0.0
 10
-3.7477525064476906
 20
-41.53810838211793
 30
0.0
 10
-3.348872862814961
 20
-41.471238393370164
 30
0.0
 10
-2.977155456139002
 20
-41.38477786097502
 30
0.0
 10
-2.442265344457618
 20
-41.26177533150143
 30
0.0
 10
-1.9870961756243095
 20
-41.09745623964434
 30
0.0
 10
-1.611647949639078
 20
-40.891820585403664
 30
0.0
  0
SPLINE
  5
9F
330
17
100
AcDbEntity
  8
visible
100
AcDbSpline
 70
0
 71
3
 72
17
 73
13
 74
0
 40
0.0
 40
0.0
 40
0.0
 40
0.0
 40
0.25
 40
0.25
 40
0.25
 40
0.5
 40
0.5
 40
0.5
 40
0.75
 40
0.75
 40
0.75
 40
1.0
 40
1.0
 40
1.0
 40
1.0
 10
-11.346791584247562
 20
-40.85777565966538
 30
0.0
 10
-11.926483761294959
 20
-40.75381775992568
 30
0.0
 10
-12.440961099954237
 20
-40.60983185830853
 30
0.0
 10
-12.865618437703745
 20
-40.423730502434516
 30
0.0
 10
-13.174184274463137
 20
-40.28782927293207
 30
0.0
 10
-13.438694891549872
 20
-40.13026401961382
 30
0.0
 10
-13.654659297429824
 20
-39.930890107429924
 30
0.0
 10
-13.855668825655934
 20
-39.745403610217444
 30
0.0
 10
-14.01515503469207
 20
-39.51471705547962
 30
0.0
 10
-14.089303373507231
 20
-39.24890492757071
 30
0.0
 10
-14.119748926892647
 20
-39.14037548353305
 30
0.0
 10
-14.135058772327513
 20
-39.0295647220068
 30
0.0
 10
-14.135232909811823
 20
-38.916472642992034
 30
0.0
  0
LINE
  5
A0
330
17
100
AcDbEntity
  8
visible
100
AcDbLine
 10
-14.135232909811823
 20
-38.916472642992034
 30
0.0
 11
-14.135232909811823
 21
-32.84389858265292
 31
0.0
  0
LINE
  5
A1
330
17
100
AcDbEntity
  8
visible
100
AcDbLine
 10
13.178729213903296
 20
-32.65032187365222
 30
0.0
 11
-1.6116479496390692
 21
-40.891820585403664
 31
0.0
  0
SPLINE
  5
A2
330
17
100
AcDbEntity
  8
visible
100
AcDbSpline
 70
0
 71
3
 72
14
 73
10
 74
0
 40
0.0
 40
0.0
 40
0.0
 40
0.0
 40
0.5
 40
0.5
 40
0.5
 40
0.75
 40
0.75
 40
0.75
 40
1.0
 40
1.0
 40
1.0
 40
1.0
 10
14.135232996814011
 20
-31.297664945246282
 30
0.0
 10
14.135057512586194
 20
-31.41098121388231
 30
0.0
 10
14.119688530034368
 20
-31.522003012715125
 30
0.0
 10
14.089126049158502
 20
-31.630730341744695
 30
0.0
 10
14.026652728598668
 20
-31.854384773524718
 30
0.0
 10
13.902838729920113
 20
-32.05475718210212
 30
0.0
 10
13.745548523309068
 20
-32.221891232619186
 30
0.0
 10
13.58650556908959
 20
-32.38786481628681
 30
0.0
 10
13.397565799287664
 20
-32.530675029964485
 30
0.0
 10
13.178729213903281
 20
-32.650321873652224
 30
0.0
  0
SPLINE
  5
A3
330
17
100
AcDbEntity
  8
visible
100
AcDbSpline
 70
0
 71
3
 72
8
 73
4
 74
0
 40
0.0
 40
0.0
 40
0.0
 40
0.0
 40
0.997977928692397
 40
0.997977928692397
 40
0.997977928692397
 40
0.997977928692397
 10
-15.65997889294539
 20
-23.001530141077055
 30
0.0
 10
-15.662049793351782
 20
-26.575554088593307
 30
0.0
 10
-15.058006630210087
 20
-29.80621705173445
 30
0.0
 10
-13.915340546133226
 20
-32.13381059853722
 30
0.0
  0
SPLINE
  5
A4
330
17
100
AcDbEntity
  8
visible
100
AcDbSpline
 70
0
 71
3
 72
8
 73
4
 74
0
 40
0.0
 40
0.0
 40
0.0
 40
0.0
 40
1.0
 40
1.0
 40
1.0
 40
1.0
 10
-13.905366641655625
 20
-32.11886485121735
 30
0.0
 10
-14.04917100034275
 20
-32.32953109833613
 30
0.0
 10
-14.136140431355567
 20
-32.584355229857515
 30
0.0
 10
-14.135232909811823
 20
-32.84389858265291
 30
0.0
  0
LINE
  5
A5
330
17
100
AcDbEntity
  8
visible
100
AcDbLine
 10
14.135232996814011
 20
-31.29766494524629
 30
0.0
 11
14.135232996814011
 21
-25.225090884907175
 31
0.0
  0
LINE
  5
A6
330
17
100
AcDbEntity
  8
visible
100
AcDbLine
 10
-15.65997889294539
 20
14.477637887578425
 30
0.0
 11
-15.65997889294539
 21
-23.001530141077062
 31
0.0
  0
SPLINE
  5
A7
330
17
100
AcDbEntity
  8
visible
100
AcDbSpline
 70
0
 71
3
 72
17
 73
13
 74
0
 40
0.0
 40
0.0
 40
0.0
 40
0.0
 40
0.16076278228388227
 40
0.16076278228388227
 40
0.16076278228388227
 40
0.49152393025540136
 40
0.49152393025540136
 40
0.49152393025540136
 40
0.7655186074322664
 40
0.7655186074322664
 40
0.7655186074322664
 40
1.0
 40
1.0
 40
1.0
 40
1.0
 10
-6.7695656893660825
 20
36.22163796651057
 30
0.0
 10
-7.557380900499387
 20
35.7825817698734
 30
0.0
 10
-8.323436988900927
 20
35.1675810771611
 30
0.0
 10
-9.05584828515409
 20
34.39979099035965
 30
0.0
 10
-10.562271984297071
 20
32.82260717088531
 30
0.0
 10
-11.928981520604173
 20
30.583761496947105
 30
0.0
 10
-13.016114789512972
 20
27.95105298374221
 30
0.0
 10
-13.91720884616708
 20
25.77302878905511
 30
0.0
 10
-14.623285246183467
 20
23.330803046774225
 30
0.0
 10
-15.073895770398103
 20
20.83838646607643
 30
0.0
 10
-15.460518834670676
 20
18.70573670252873
 30
0.0
 10
-15.660410396135651
 20
16.538808976929207
 30
0.0
 10
-15.65997889294539
 20
14.477637887578426
 30
0.0
  0
LINE
  5
A8
330
17
100
AcDbEntity
  8
visible
100
AcDbLine
 10
-4.797515400893765
 20
37.32050446141076
 30
0.0
 11
-6.769565689366081
 21
36.22163796651057
 31
0.0
  0
SPLINE
  5
A9
330
17
100
AcDbEntity
  8
visible
100
AcDbSpline
 70
0
 71
3
 72
8
 73
4
 74
0
 40
0.0
 40
0.0
 40
0.0
 40
0.0
 40
1.0
 40
1.0
 40
1.0
 40
1.0
 10
-1.2377302543964461
 20
38.0202272436827
 30
0.0
 10
-2.40491135008339
 20
38.23119870755533
 30
0.0
 10
-3.634469226560474
 20
37.97179137394202
 30
0.0
 10
-4.797515400893765
 20
37.32050446141076
 30
0.0
  0
SPLINE
  5
AA
330
17
100
AcDbEntity
  8
visible
100
AcDbSpline
 70
0
 71
3
 72
8
 73
4
 74
0
 40
0.0
 40
0.0
 40
0.0
 40
0.0
 40
1.0
 40
1.0
 40
1.0
 40
1.0
 10
7.126905061854771
 20
-23.601076284017793
 30
0.0
 10
8.146434104930117
 20
-20.247418069516023
 30
0.0
 10
8.702984671746194
 20
-16.54736391842361
 30
0.0
 10
8.699801493780647
 20
-13.137371905441483
 30
0.0
  0
SPLINE
  5
AB
330
17
100
AcDbEntity
  8
visible
100
AcDbSpline
 70
0
 71
2
 72
6
 73
3
 74
0
 40
0.0
 40
0.0
 40
0.0
 40
1.0
 40
1.0
 40
1.0
 10
7.4168040372394355
 20
-22.590658825527726
 30
0.0
 10
7.647103680482509
 20
-22.621816874286207
 30
0.0
 10
7.8667029281662835
 20
-22.66109685422812
 30
0.0
  0
LINE
  5
AC
330
17
100
AcDbEntity
  8
visible
100
AcDbLine
 10
7.8667029281662835
 20
-22.661096854228134
 30
0.0
 11
11.346791671249749
 21
-23.28378786823384
 31
0.0
  0
SPLINE
  5
AD
330
17
100
AcDbEntity
  8
visible
100
AcDbSpline
 70
0
 71
3
 72
17
 73
13
 74
0
 40
0.0
 40
0.0
 40
0.0
 40
0.0
 40
0.25
 40
0.25
 40
0.25
 40
0.5
 40
0.5
 40
0.5
 40
0.75
 40
0.75
 40
0.75
 40
1.0
 40
1.0
 40
1.0
 40
1.0
 10
11.346791671249747
 20
-23.28378786823383
 30
0.0
 10
11.926483848297154
 20
-23.38774576797351
 30
0.0
 10
12.440961186956416
 20
-23.531731669590666
 30
0.0
 10
12.86561852470593
 20
-23.717833025464678
 30
0.0
 10
13.174184361465317
 20
-23.853734254967137
 30
0.0
 10
13.438694978552057
 20
-24.011299508285404
 30
0.0
 10
13.654659384432009
 20
-24.210673420469277
 30
0.0
 10
13.855668912658128
 20
-24.396159917681732
 30
0.0
 10
14.015155121694246
 20
-24.626846472419608
 30
0.0
 10
14.089303460509413
 20
-24.892658600328474
 30
0.0
 10
14.119749013894822
 20
-25.001188044366156
 30
0.0
 10
14.135058859329694
 20
-25.111998805892394
 30
0.0
 10
14.135232996814011
 20
-25.225090884907168
 30
0.0
  0
LINE
  5
AE
330
17
100
AcDbEntity
  8
visible
100
AcDbLine
 10
2.590367362995372
 20
37.33526712827643
 30
0.0
 11
-1.2377302543964452
 21
38.020227243682704
 31
0.0
  0
SPLINE
  5
AF
330
17
100
AcDbEntity
  8
visible
100
AcDbSpline
 70
0
 71
3
 72
14
 73
10
 74
0
 40
0.0
 40
0.0
 40
0.0
 40
0.0
 40
0.4836183543880492
 40
0.4836183543880492
 40
0.4836183543880492
 40
0.7971080743770835
 40
0.7971080743770835
 40
0.7971080743770835
 40
1.0
 40
1.0
 40
1.0
 40
1.0
 10
8.699801493780647
 20
24.341796123213996
 30
0.0
 10
8.701432329467373
 20
27.63966367727109
 30
0.0
 10
8.187669279706402
 20
30.64898376441584
 30
0.0
 10
7.209204220738408
 20
32.92009898345247
 30
0.0
 10
6.5757270942651065
 20
34.39443493349535
 30
0.0
 10
5.748410266256651
 20
35.57102904310051
 30
0.0
 10
4.740276886789206
 20
36.35410246372809
 30
0.0
 10
4.089108839367861
 20
36.86068710436408
 30
0.0
 10
3.359548169795706
 20
37.19835290046366
 30
0.0
 10
2.590367362995373
 20
37.33526712827643
 30
0.0
  0
LINE
  5
B0
330
17
100
AcDbEntity
  8
visible
100
AcDbLine
 10
8.699801493780647
 20
-13.137371905441483
 30
0.0
 11
8.699801493780647
 21
24.341796123214003
 31
0.0
  0
ENDSEC
  0
SECTION
  2
OBJECTS
  0
DICTIONARY
  5
A
330
0
100
AcDbDictionary
281
1
  3
ACAD_COLOR
350
B
  3
ACAD_GROUP
350
C
  3
ACAD_LAYOUT
350
D
  3
ACAD_MATERIAL
350
E
  3
ACAD_MLEADERSTYLE
350
F
  3
ACAD_MLINESTYLE
350
10
  3
ACAD_PLOTSETTINGS
350
11
  3
ACAD_PLOTSTYLENAME
350
12
  3
ACAD_SCALELIST
350
14
  3
ACAD_TABLESTYLE
350
15
  3
ACAD_VISUALSTYLE
350
16
  3
EZDXF_META
350
2D
  0
DICTIONARY
  5
B
330
A
100
AcDbDictionary
281
1
  0
DICTIONARY
  5
C
330
A
100
AcDbDictionary
281
1
  0
DICTIONARY
  5
D
330
A
100
AcDbDictionary
281
1
  3
Model
350
1A
  3
Layout1
350
1E
  0
DICTIONARY
  5
E
330
A
100
AcDbDictionary
281
1
  3
ByBlock
350
1F
  3
ByLayer
350
20
  3
Global
350
21
  0
DICTIONARY
  5
F
330
A
100
AcDbDictionary
281
1
  3
Standard
350
2C
  0
DICTIONARY
  5
10
330
A
100
AcDbDictionary
281
1
  3
Standard
350
22
  0
DICTIONARY
  5
11
330
A
100
AcDbDictionary
281
1
  0
ACDBDICTIONARYWDFLT
  5
12
330
A
100
AcDbDictionary
281
1
  3
Normal
350
13
100
AcDbDictionaryWithDefault
340
13
  0
ACDBPLACEHOLDER
  5
13
330
12
  0
DICTIONARY
  5
14
330
A
100
AcDbDictionary
281
1
  0
DICTIONARY
  5
15
330
A
100
AcDbDictionary
281
1
  0
DICTIONARY
  5
16
330
A
100
AcDbDictionary
281
1
  0
LAYOUT
  5
1A
330
D
100
AcDbPlotSettings
  1

  4
A3
  6

 40
7.5
 41
20.0
 42
7.5
 43
20.0
 44
420.0
 45
297.0
 46
0.0
 47
0.0
 48
0.0
 49
0.0
140
0.0
141
0.0
142
1.0
143
1.0
 70
1024
 72
1
 73
0
 74
5
  7

 75
16
 76
0
 77
2
 78
300
147
1.0
148
0.0
149
0.0
100
AcDbLayout
  1
Model
 70
1
 71
0
 10
0.0
 20
0.0
 11
420.0
 21
297.0
 12
0.0
 22
0.0
 32
0.0
 14
1e+20
 24
1e+20
 34
1e+20
 15
-1e+20
 25
-1e+20
 35
-1e+20
146
0.0
 13
0.0
 23
0.0
 33
0.0
 16
1.0
 26
0.0
 36
0.0
 17
0.0
 27
1.0
 37
0.0
 76
1
330
17
  0
LAYOUT
  5
1E
330
D
100
AcDbPlotSettings
  1

  4
A3
  6

 40
7.5
 41
20.0
 42
7.5
 43
20.0
 44
420.0
 45
297.0
 46
0.0
 47
0.0
 48
0.0
 49
0.0
140
0.0
141
0.0
142
1.0
143
1.0
 70
0
 72
1
 73
0
 74
5
  7

 75
16
 76
0
 77
2
 78
300
147
1.0
148
0.0
149
0.0
100
AcDbLayout
  1
Layout1
 70
1
 71
1
 10
0.0
 20
0.0
 11
420.0
 21
297.0
 12
0.0
 22
0.0
 32
0.0
 14
1e+20
 24
1e+20
 34
1e+20
 15
-1e+20
 25
-1e+20
 35
-1e+20
146
0.0
 13
0.0
 23
0.0
 33
0.0
 16
1.0
 26
0.0
 36
0.0
 17
0.0
 27
1.0
 37
0.0
 76
1
330
1B
  0
MATERIAL
  5
1F
102
{ACAD_REACTORS
330
E
102
}
330
E
100
AcDbMaterial
  1
ByBlock
  2

 70
0
 40
1.0
 71
1
 41
1.0
 91
-1023410177
 42
1.0
 72
1
  3

 73
1
 74
1
 75
1
 44
0.5
 73
0
 45
1.0
 46
1.0
 77
1
  4

 78
1
 79
1
170
1
 48
1.0
171
1
  6

172
1
173
1
174
1
140
1.0
141
1.0
175
1
  7

176
1
177
1
178
1
143
1.0
179
1
  8

270
1
271
1
272
1
145
1.0
146
1.0
273
1
  9

274
1
275
1
276
1
 42
1.0
 72
1
  3

 73
1
 74
1
 75
1
 94
63
  0
MATERIAL
  5
20
102
{ACAD_REACTORS
330
E
102
}
330
E
100
AcDbMaterial
  1
ByLayer
  2

 70
0
 40
1.0
 71
1
 41
1.0
 91
-1023410177
 42
1.0
 72
1
  3

 73
1
 74
1
 75
1
 44
0.5
 73
0
 45
1.0
 46
1.0
 77
1
  4

 78
1
 79
1
170
1
 48
1.0
171
1
  6

172
1
173
1
174
1
140
1.0
141
1.0
175
1
  7

176
1
177
1
178
1
143
1.0
179
1
  8

270
1
271
1
272
1
145
1.0
146
1.0
273
1
  9

274
1
275
1
276
1
 42
1.0
 72
1
  3

 73
1
 74
1
 75
1
 94
63
  0
MATERIAL
  5
21
102
{ACAD_REACTORS
330
E
102
}
330
E
100
AcDbMaterial
  1
Global
  2

 70
0
 40
1.0
 71
1
 41
1.0
 91
-1023410177
 42
1.0
 72
1
  3

 73
1
 74
1
 75
1
 44
0.5
 73
0
 45
1.0
 46
1.0
 77
1
  4

 78
1
 79
1
170
1
 48
1.0
171
1
  6

172
1
173
1
174
1
140
1.0
141
1.0
175
1
  7

176
1
177
1
178
1
143
1.0
179
1
  8

270
1
271
1
272
1
145
1.0
146
1.0
273
1
  9

274
1
275
1
276
1
 42
1.0
 72
1
  3

 73
1
 74
1
 75
1
 94
63
  0
MLINESTYLE
  5
22
102
{ACAD_REACTORS
330
10
102
}
330
10
100
AcDbMlineStyle
  2
Standard
 70
0
  3

 62
256
 51
90.0
 52
90.0
 71
2
 49
0.5
 62
256
  6
BYLAYER
 49
-0.5
 62
256
  6
BYLAYER
  0
MLEADERSTYLE
  5
2C
102
{ACAD_REACTORS
330
F
102
}
330
F
100
AcDbMLeaderStyle
179
2
170
2
171
1
172
0
 90
2
 40
0.0
 41
0.0
173
1
 91
-1056964608
 92
-2
290
1
 42
2.0
291
1
 43
8.0
  3
Standard
 44
4.0
300

342
29
174
1
175
1
176
0
178
1
 93
-1056964608
 45
4.0
292
0
297
0
 46
4.0
 94
-1056964608
 47
1.0
 49
1.0
140
1.0
294
1
141
0.0
177
0
142
1.0
295
0
296
0
143
3.75
271
0
272
9
273
9
  0
DICTIONARY
  5
2D
330
A
100
AcDbDictionary
280
1
281
1
  3
CREATED_BY_EZDXF
350
2E
  3
WRITTEN_BY_EZDXF
350
B4
  0
DICTIONARYVAR
  5
2E
330
2D
100
DictionaryVariables
280
0
  1
1.4.4 @ 2026-10-02T12:35:27.709125+00:00
  0
DICTIONARYVAR
  5
B4
330
2D
100
DictionaryVariables
280
0
  1
1.4.4 @ 2026-10-02T12:35:27.735121+00:00
  0
ENDSEC
  0
EOF
