  0
SECTION
  2
HEADER
  9
$ACADVER
  1
AC1027
  9
$ACADMAINTVER
 70
105
  9
$DWGCODEPAGE
  3
ANSI_1252
  9
$LASTSAVEDBY
  1
ezdxf
  9
$REQUIREDVERSIONS
160
0
  9
$INSBASE
 10
0.0
 20
0.0
 30
0.0
  9
$EXTMIN
 10
1e+20
 20
1e+20
 30
1e+20
  9
$EXTMAX
 10
-1e+20
 20
-1e+20
 30
-1e+20
  9
$LIMMIN
 10
0.0
 20
0.0
  9
$LIMMAX
 10
420.0
 20
297.0
  9
$ORTHOMODE
 70
0
  9
$REGENMODE
 70
1
  9
$FILLMODE
 70
1
  9
$QTEXTMODE
 70
0
  9
$MIRRTEXT
 70
1
  9
$LTSCALE
 40
1.0
  9
$ATTMODE
 70
1
  9
$TEXTSIZE
 40
2.5
  9
$TRACEWID
 40
1.0
  9
$TEXTSTYLE
  7
Standard
  9
$CLAYER
  8
0
  9
$CELTYPE
  6
ByLayer
  9
$CECOLOR
 62
256
  9
$CELTSCALE
 40
1.0
  9
$DISPSILH
 70
0
  9
$DIMSCALE
 40
1.0
  9
$DIMASZ
 40
2.5
  9
$DIMEXO
 40
0.625
  9
$DIMDLI
 40
3.75
  9
$DIMRND
 40
0.0
  9
$DIMDLE
 40
0.0
  9
$DIMEXE
 40
1.25
  9
$DIMTP
 40
0.0
  9
$DIMTM
 40
0.0
  9
$DIMTXT
 40
2.5
  9
$DIMCEN
 40
2.5
  9
$DIMTSZ
 40
0.0
  9
$DIMTOL
 70
0
  9
$DIMLIM
 70
0
  9
$DIMTIH
 70
0
  9
$DIMTOH
 70
0
  9
$DIMSE1
 70
0
  9
$DIMSE2
 70
0
  9
$DIMTAD
 70
1
  9
$DIMZIN
 70
8
  9
$DIMBLK
  1

  9
$DIMASO
 70
1
  9
$DIMSHO
 70
1
  9
$DIMPOST
  1

  9
$DIMAPOST
  1

  9
$DIMALT
 70
0
  9
$DIMALTD
 70
3
  9
$DIMALTF
 40
0.03937007874
  9
$DIMLFAC
 40
1.0
  9
$DIMTOFL
 70
1
  9
$DIMTVP
 40
0.0
  9
$DIMTIX
 70
0
  9
$DIMSOXD
 70
0
  9
$DIMSAH
 70
0
  9
$DIMBLK1
  1

  9
$DIMBLK2
  1

  9
$DIMSTYLE
  2
ISO-25
  9
$DIMCLRD
 70
0
  9
$DIMCLRE
 70
0
  9
$DIMCLRT
 70
0
  9
$DIMTFAC
 40
1.0
  9
$DIMGAP
 40
0.625
  9
$DIMJUST
 70
0
  9
$DIMSD1
 70
0
  9
$DIMSD2
 70
0
  9
$DIMTOLJ
 70
0
  9
$DIMTZIN
 70
8
  9
$DIMALTZ
 70
0
  9
$DIMALTTZ
 70
0
  9
$DIMUPT
 70
0
  9
$DIMDEC
 70
2
  9
$DIMTDEC
 70
2
  9
$DIMALTU
 70
2
  9
$DIMALTTD
 70
3
  9
$DIMTXSTY
  7
Standard
  9
$DIMAUNIT
 70
0
  9
$DIMADEC
 70
0
  9
$DIMALTRND
 40
0.0
  9
$DIMAZIN
 70
0
  9
$DIMDSEP
 70
44
  9
$DIMATFIT
 70
3
  9
$DIMFRAC
 70
0
  9
$DIMLDRBLK
  1

  9
$DIMLUNIT
 70
2
  9
$DIMLWD
 70
-2
  9
$DIMLWE
 70
-2
  9
$DIMTMOVE
 70
0
  9
$DIMFXL
 40
1.0
  9
$DIMFXLON
 70
0
  9
$DIMJOGANG
 40
0.785398163397
  9
$DIMTFILL
 70
0
  9
$DIMTFILLCLR
 70
0
  9
$DIMARCSYM
 70
0
  9
$DIMLTYPE
  6

  9
$DIMLTEX1
  6

  9
$DIMLTEX2
  6

  9
$DIMTXTDIRECTION
 70
0
  9
$LUNITS
 70
2
  9
$LUPREC
 70
4
  9
$SKETCHINC
 40
1.0
  9
$FILLETRAD
 40
10.0
  9
$AUNITS
 70
0
  9
$AUPREC
 70
2
  9
$MENU
  1
.
  9
$ELEVATION
 40
0.0
  9
$PELEVATION
 40
0.0
  9
$THICKNESS
 40
0.0
  9
$LIMCHECK
 70
0
  9
$CHAMFERA
 40
0.0
  9
$CHAMFERB
 40
0.0
  9
$CHAMFERC
 40
0.0
  9
$CHAMFERD
 40
0.0
  9
$SKPOLY
 70
0
  9
$TDCREATE
 40
2461317.745960648
  9
$TDUCREATE
 40
2458532.153996898
  9
$TDUPDATE
 40
2461317.745960648
  9
$TDUUPDATE
 40
2458532.1544311
  9
$TDINDWG
 40
0.0
  9
$TDUSRTIMER
 40
0.0
  9
$USRTIMER
 70
1
  9
$ANGBASE
 50
0.0
  9
$ANGDIR
 70
0
  9
$PDMODE
 70
0
  9
$PDSIZE
 40
0.0
  9
$PLINEWID
 40
0.0
  9
$SPLFRAME
 70
0
  9
$SPLINETYPE
 70
6
  9
$SPLINESEGS
 70
8
  9
$HANDSEED
  5
100
  9
$SURFTAB1
 70
6
  9
$SURFTAB2
 70
6
  9
$SURFTYPE
 70
6
  9
$SURFU
 70
6
  9
$SURFV
 70
6
  9
$UCSBASE
  2

  9
$UCSNAME
  2

  9
$UCSORG
 10
0.0
 20
0.0
 30
0.0
  9
$UCSXDIR
 10
1.0
 20
0.0
 30
0.0
  9
$UCSYDIR
 10
0.0
 20
1.0
 30
0.0
  9
$UCSORTHOREF
  2

  9
$UCSORTHOVIEW
 70
0
  9
$UCSORGTOP
 10
0.0
 20
0.0
 30
0.0
  9
$UCSORGBOTTOM
 10
0.0
 20
0.0
 30
0.0
  9
$UCSORGLEFT
 10
0.0
 20
0.0
 30
0.0
  9
$UCSORGRIGHT
 10
0.0
 20
0.0
 30
0.0
  9
$UCSORGFRONT
 10
0.0
 20
0.0
 30
0.0
  9
$UCSORGBACK
 10
0.0
 20
0.0
 30
0.0
  9
$PUCSBASE
  2

  9
$PUCSNAME
  2

  9
$PUCSORG
 10
0.0
 20
0.0
 30
0.0
  9
$PUCSXDIR
 10
1.0
 20
0.0
 30
0.0
  9
$PUCSYDIR
 10
0.0
 20
1.0
 30
0.0
  9
$PUCSORTHOREF
  2

  9
$PUCSORTHOVIEW
 70
0
  9
$PUCSORGTOP
 10
0.0
 20
0.0
 30
0.0
  9
$PUCSORGBOTTOM
 10
0.0
 20
0.0
 30
0.0
  9
$PUCSORGLEFT
 10
0.0
 20
0.0
 30
0.0
  9
$PUCSORGRIGHT
 10
0.0
 20
0.0
 30
0.0
  9
$PUCSORGFRONT
 10
0.0
 20
0.0
 30
0.0
  9
$PUCSORGBACK
 10
0.0
 20
0.0
 30
0.0
  9
$USERI1
 70
0
  9
$USERI2
 70
0
  9
$USERI3
 70
0
  9
$USERI4
 70
0
  9
$USERI5
 70
0
  9
$USERR1
 40
0.0
  9
$USERR2
 40
0.0
  9
$USERR3
 40
0.0
  9
$USERR4
 40
0.0
  9
$USERR5
 40
0.0
  9
$WORLDVIEW
 70
1
  9
$SHADEDGE
 70
3
  9
$SHADEDIF
 70
70
  9
$TILEMODE
 70
1
  9
$MAXACTVP
 70
64
  9
$PINSBASE
 10
0.0
 20
0.0
 30
0.0
  9
$PLIMCHECK
 70
0
  9
$PEXTMIN
 10
1e+20
 20
1e+20
 30
1e+20
  9
$PEXTMAX
 10
-1e+20
 20
-1e+20
 30
-1e+20
  9
$PLIMMIN
 10
0.0
 20
0.0
  9
$PLIMMAX
 10
420.0
 20
297.0
  9
$UNITMODE
 70
0
  9
$VISRETAIN
 70
1
  9
$PLINEGEN
 70
0
  9
$PSLTSCALE
 70
1
  9
$TREEDEPTH
 70
3020
  9
$CMLSTYLE
  2
Standard
  9
$CMLJUST
 70
0
  9
$CMLSCALE
 40
20.0
  9
$PROXYGRAPHICS
 70
1
  9
$MEASUREMENT
 70
1
  9
$CELWEIGHT
370
-1
  9
$ENDCAPS
280
0
  9
$JOINSTYLE
280
0
  9
$LWDISPLAY
290
0
  9
$INSUNITS
 70
4
  9
$HYPERLINKBASE
  1

  9
$STYLESHEET
  1

  9
$XEDIT
290
1
  9
$CEPSNTYPE
380
0
  9
$PSTYLEMODE
290
1
  9
$FINGERPRINTGUID
  2
{C0E61DB2-6B0A-44D0-9CB5-2E7A5DE40F2B}
  9
$VERSIONGUID
  2
{B165FB99-D5CE-49D5-A532-6E1302AD931C}
  9
$EXTNAMES
290
1
  9
$PSVPSCALE
 40
0.0
  9
$OLESTARTUP
290
0
  9
$SORTENTS
280
127
  9
$INDEXCTL
280
0
  9
$HIDETEXT
280
1
  9
$XCLIPFRAME
280
1
  9
$HALOGAP
280
0
  9
$OBSCOLOR
 70
257
  9
$OBSLTYPE
280
0
  9
$INTERSECTIONDISPLAY
280
0
  9
$INTERSECTIONCOLOR
 70
257
  9
$DIMASSOC
280
2
  9
$PROJECTNAME
  1

  9
$CAMERADISPLAY
290
0
  9
$LENSLENGTH
 40
50.0
  9
$CAMERAHEIGHT
 40
0.0
  9
$STEPSPERSEC
 40
24.0
  9
$STEPSIZE
 40
100.0
  9
$3DDWFPREC
 40
2.0
  9
$PSOLWIDTH
 40
0.005
  9
$PSOLHEIGHT
 40
0.08
  9
$LOFTANG1
 40
1.570796326795
  9
$LOFTANG2
 40
1.570796326795
  9
$LOFTMAG1
 40
0.0
  9
$LOFTMAG2
 40
0.0
  9
$LOFTPARAM
 70
7
  9
$LOFTNORMALS
280
1
  9
$LATITUDE
 40
37.795
  9
$LONGITUDE
 40
-122.394
  9
$NORTHDIRECTION
 40
0.0
  9
$TIMEZONE
 70
-8000
  9
$LIGHTGLYPHDISPLAY
280
1
  9
$TILEMODELIGHTSYNCH
280
1
  9
$CMATERIAL
347
20
  9
$SOLIDHIST
280
0
  9
$SHOWHIST
280
1
  9
$DWFFRAME
280
2
  9
$DGNFRAME
280
2
  9
$REALWORLDSCALE
290
1
  9
$INTERFERECOLOR
 62
256
  9
$CSHADOW
280
0
  9
$SHADOWPLANELOCATION
 40
0.0
  0
ENDSEC
  0
SECTION
  2
CLASSES
  0
CLASS
  1
ACDBDICTIONARYWDFLT
  2
AcDbDictionaryWithDefault
  3
ObjectDBX Classes
 90
0
 91
0
280
0
281
0
  0
CLASS
  1
SUN
  2
AcDbSun
  3
SCENEOE
 90
1153
 91
0
280
0
281
0
  0
CLASS
  1
VISUALSTYLE
  2
AcDbVisualStyle
  3
ObjectDBX Classes
 90
4095
 91
0
280
0
281
0
  0
CLASS
  1
MATERIAL
  2
AcDbMaterial
  3
ObjectDBX Classes
 90
1153
 91
0
280
0
281
0
  0
CLASS
  1
SCALE
  2
AcDbScale
  3
ObjectDBX Classes
 90
1153
 91
0
280
0
281
0
  0
CLASS
  1
TABLESTYLE
  2
AcDbTableStyle
  3
ObjectDBX Classes
 90
4095
 91
0
280
0
281
0
  0
CLASS
  1
MLEADERSTYLE
  2
AcDbMLeaderStyle
  3
ACDB_MLEADERSTYLE_CLASS
 90
4095
 91
0
280
0
281
0
  0
CLASS
  1
DICTIONARYVAR
  2
AcDbDictionaryVar
  3
ObjectDBX Classes
 90
0
 91
0
280
0
281
0
  0
CLASS
  1
CELLSTYLEMAP
  2
AcDbCellStyleMap
  3
ObjectDBX Classes
 90
1152
 91
0
280
0
281
0
  0
CLASS
  1
MENTALRAYRENDERSETTINGS
  2
AcDbMentalRayRenderSettings
  3
SCENEOE
 90
1024
 91
0
280
0
281
0
  0
CLASS
  1
ACDBDETAILVIEWSTYLE
  2
AcDbDetailViewStyle
  3
ObjectDBX Classes
 90
1025
 91
0
280
0
281
0
  0
CLASS
  1
ACDBSECTIONVIEWSTYLE
  2
AcDbSectionViewStyle
  3
ObjectDBX Classes
 90
1025
 91
0
280
0
281
0
  0
CLASS
  1
RASTERVARIABLES
  2
AcDbRasterVariables
  3
ISM
 90
0
 91
0
280
0
281
0
  0
CLASS
  1
LAYOUT
  2
AcDbLayout
  3
ObjectDBX Classes
 90
0
 91
0
280
0
281
0
  0
CLASS
  1
ACDBPLACEHOLDER
  2
AcDbPlaceHolder
  3
ObjectDBX Classes
 90
0
 91
0
280
0
281
0
  0
ENDSEC
  0
SECTION
  2
TABLES
  0
TABLE
  2
VPORT
  5
8
330
0
100
AcDbSymbolTable
 70
1
  0
VPORT
  5
FC
330
8
100
AcDbSymbolTableRecord
100
AcDbViewportTableRecord
  2
*Active
 70
0
 10
0.0
 20
0.0
 11
1.0
 21
1.0
 12
-2.545375282442226
 22
-1.1133779005747684
 13
0.0
 23
0.0
 14
0.5
 24
0.5
 15
0.5
 25
0.5
 16
0.0
 26
0.0
 36
1.0
 17
0.0
 27
0.0
 37
0.0
 40
73.39706413550927
 41
1.34
 42
50.0
 43
0.0
 44
0.0
 50
0.0
 51
0.0
 71
0
 72
1000
 73
1
 74
3
 75
0
 76
0
 77
0
 78
0
281
0
 65
1
110
0.0
120
0.0
130
0.0
111
1.0
121
0.0
131
0.0
112
0.0
122
1.0
132
0.0
 79
0
146
0.0
  0
ENDTAB
  0
TABLE
  2
LTYPE
  5
2
330
0
100
AcDbSymbolTable
 70
3
  0
LTYPE
  5
24
330
2
100
AcDbSymbolTableRecord
100
AcDbLinetypeTableRecord
  2
ByBlock
 70
0
  3

 72
65
 73
0
 40
0.0
  0
LTYPE
  5
25
330
2
100
AcDbSymbolTableRecord
100
AcDbLinetypeTableRecord
  2
ByLayer
 70
0
  3

 72
65
 73
0
 40
0.0
  0
LTYPE
  5
26
330
2
100
AcDbSymbolTableRecord
100
AcDbLinetypeTableRecord
  2
Continuous
 70
0
  3

 72
65
 73
0
 40
0.0
  0
ENDTAB
  0
TABLE
  2
LAYER
  5
1
330
0
100
AcDbSymbolTable
 70
3
  0
LAYER
  5
27
330
1
100
AcDbSymbolTableRecord
100
AcDbLayerTableRecord
  2
0
 70
0
 62
7
  6
Continuous
370
-3
390
13
347
21
  0
LAYER
  5
28
330
1
100
AcDbSymbolTableRecord
100
AcDbLayerTableRecord
  2
Defpoints
 70
0
 62
7
  6
Continuous
290
0
370
-3
390
13
347
21
  0
LAYER
  5
2F
330
1
100
AcDbSymbolTableRecord
100
AcDbLayerTableRecord
  2
visible
 70
0
 62
7
  6
Continuous
370
-3
390
13
347
21
  0
ENDTAB
  0
TABLE
  2
STYLE
  5
5
330
0
100
AcDbSymbolTable
 70
1
  0
STYLE
  5
29
330
5
100
AcDbSymbolTableRecord
100
AcDbTextStyleTableRecord
  2
Standard
 70
0
 40
0.0
 41
1.0
 50
0.0
 71
0
 42
2.5
  3
txt
  4

  0
ENDTAB
  0
TABLE
  2
VIEW
  5
7
330
0
100
AcDbSymbolTable
 70
0
  0
ENDTAB
  0
TABLE
  2
UCS
  5
6
330
0
100
AcDbSymbolTable
 70
0
  0
ENDTAB
  0
TABLE
  2
APPID
  5
3
330
0
100
AcDbSymbolTable
 70
3
  0
APPID
  5
2A
330
3
100
AcDbSymbolTableRecord
100
AcDbRegAppTableRecord
  2
ACAD
 70
0
  0
APPID
  5
FD
330
3
100
AcDbSymbolTableRecord
100
AcDbRegAppTableRecord
  2
HATCHBACKGROUNDCOLOR
 70
0
  0
APPID
  5
FE
330
3
100
AcDbSymbolTableRecord
100
AcDbRegAppTableRecord
  2
EZDXF
 70
0
  0
ENDTAB
  0
TABLE
  2
DIMSTYLE
  5
4
330
0
100
AcDbSymbolTable
 70
1
100
AcDbDimStyleTable
  0
DIMSTYLE
105
2B
330
4
100
AcDbSymbolTableRecord
100
AcDbDimStyleTableRecord
  2
Standard
 70
0
 40
1.0
 41
2.5
 42
0.625
 43
3.75
 44
1.25
 45
0.0
 46
0.0
 47
0.0
 48
0.0
 49
2.5
140
2.5
141
2.5
142
0.0
143
0.03937007874
144
1.0
145
0.0
146
1.0
147
0.625
148
0.0
 69
0
 70
0
 71
0
 72
0
 73
0
 74
0
 75
0
 76
0
 77
1
 78
8
 79
3
170
0
171
3
172
1
173
0
174
0
175
0
176
0
177
0
178
0
179
2
271
2
272
2
273
2
274
3
275
0
276
0
277
2
278
44
279
0
280
0
281
0
282
0
283
0
284
8
285
0
286
0
288
0
289
3
290
0
371
-2
372
-2
  0
ENDTAB
  0
TABLE
  2
BLOCK_RECORD
  5
9
330
0
100
AcDbSymbolTable
 70
2
  0
BLOCK_RECORD
  5
17
330
9
100
AcDbSymbolTableRecord
100
AcDbBlockTableRecord
  2
*Model_Space
340
1A
 70
0
280
1
281
0
  0
BLOCK_RECORD
  5
1B
330
9
100
AcDbSymbolTableRecord
100
AcDbBlockTableRecord
  2
*Paper_Space
340
1E
 70
0
280
1
281
0
  0
ENDTAB
  0
ENDSEC
  0
SECTION
  2
BLOCKS
  0
BLOCK
  5
18
330
17
100
AcDbEntity
  8
0
100
AcDbBlockBegin
  2
*Model_Space
 70
0
 10
0.0
 20
0.0
 30
0.0
  3
*Model_Space
  1

  0
ENDBLK
  5
19
330
17
100
AcDbEntity
  8
0
100
AcDbBlockEnd
  0
BLOCK
  5
1C
330
1B
100
AcDbEntity
  8
0
100
AcDbBlockBegin
  2
*Paper_Space
 70
0
 10
0.0
 20
0.0
 30
0.0
  3
*Paper_Space
  1

  0
ENDBLK
  5
1D
330
1B
100
AcDbEntity
  8
0
100
AcDbBlockEnd
  0
ENDSEC
  0
SECTION
  2
ENTITIES
  0
ELLIPSE
  5
30
330
17
100
AcDbEntity
  8
visible
100
AcDbEllipse
 10
-13.434095503937165
 20
-35.56625863063564
 30
0.0
 11
-5.0
 21
1.4705158553280206e-16
 31
0.0
 40
0.3306997496085914
 41
-5.224856913087789
 42
-3.654060586292893
  0
ELLIPSE
  5
31
330
17
100
AcDbEntity
  8
visible
100
AcDbEllipse
 10
-15.493479961447338
 20
-36.77677040163425
 30
0.0
 11
-0.14633109236762817
 21
-0.7865031540982508
 31
0.0
 40
0.4627417361330394
 41
5.094675221843142
 42
6.283185307179586
  0
ELLIPSE
  5
32
330
17
100
AcDbEntity
  8
visible
100
AcDbEllipse
 10
-9.773639841568674
 20
-36.24729655508208
 30
0.0
 11
-0.4053944331674673
 21
0.689677717167104
 31
0.0
 40
0.8225009186921284
 41
3.141592653589793
 42
4.091896363046224
  0
LINE
  5
33
330
17
100
AcDbEntity
  8
visible
100
AcDbLine
 10
-15.885743667639751
 20
-37.007344072300654
 30
0.0
 11
-19.371891917514503
 21
-36.358736525208805
 31
0.0
  0
ELLIPSE
  5
34
330
17
100
AcDbEntity
  8
visible
100
AcDbEllipse
 10
-18.979628211322087
 20
-36.1281628545424
 30
0.0
 11
-0.14633109236762817
 21
-0.7865031540982508
 31
0.0
 40
0.4627417361330394
 41
5.094675221843142
 42
6.283185307179586
  0
LINE
  5
35
330
17
100
AcDbEntity
  8
visible
100
AcDbLine
 10
5.633478790621808
 20
-27.730505414510382
 30
0.0
 11
-9.076410191593723
 21
-36.37701806450045
 31
0.0
  0
ELLIPSE
  5
36
330
17
100
AcDbEntity
  8
visible
100
AcDbEllipse
 10
4.936249140646858
 20
-27.600783905092015
 30
0.0
 11
-0.4053944331674679
 21
0.6896777171671037
 31
0.0
 40
0.8225009186921312
 41
3.1415926535897922
 42
4.091896363046223
  0
ELLIPSE
  5
37
330
17
100
AcDbEntity
  8
visible
100
AcDbEllipse
 10
-16.920243753811913
 20
-34.91765108354379
 30
0.0
 11
-5.0
 21
1.4705158553280203e-16
 31
0.0
 40
0.33069974960859133
 41
-6.283185307179586
 42
-5.224856913087789
  0
ELLIPSE
  5
38
330
17
100
AcDbEntity
  8
visible
100
AcDbEllipse
 10
1.2757934782783664
 20
-26.919745980645573
 30
0.0
 11
-5.0
 21
1.4705158553280203e-16
 31
0.0
 40
0.33069974960859133
 41
-3.6540605862928937
 42
-3.141592653589793
  0
SPLINE
  5
39
330
17
100
AcDbEntity
  8
visible
100
AcDbSpline
 70
0
 71
3
 72
11
 73
7
 74
0
 40
0.0
 40
0.0
 40
0.0
 40
0.0
 40
0.4840802426547395
 40
0.4840802426547395
 40
0.4840802426547395
 40
1.0
 40
1.0
 40
1.0
 40
1.0
 10
-17.67723355582301
 20
-28.702601145463767
 30
0.0
 10
-17.492042114733998
 20
-28.737548947717837
 30
0.0
 10
-17.257093829694046
 20
-28.74002643794674
 30
0.0
 10
-17.046775245889577
 20
-28.712719402571288
 30
0.0
 10
-16.82134194350698
 20
-28.68413628890981
 30
0.0
 10
-16.625092399586542
 20
-28.624090964580276
 30
0.0
 10
-16.500930011154868
 20
-28.55072171990888
 30
0.0
  0
LINE
  5
3A
330
17
100
AcDbEntity
  8
visible
100
AcDbLine
 10
-14.821901557648598
 20
-27.56378423992603
 30
0.0
 11
-16.500930011154868
 21
-28.550721719908875
 31
0.0
  0
ELLIPSE
  5
3B
330
17
100
AcDbEntity
  8
visible
100
AcDbEllipse
 10
-11.853984402703265
 20
-27.168121957574442
 30
0.0
 11
3.2
 21
-9.411301474099331e-17
 31
0.0
 40
0.33069974960859133
 41
3.52478951474455
 42
5.770717374476487
  0
ELLIPSE
  5
3C
330
17
100
AcDbEntity
  8
visible
100
AcDbEllipse
 10
-11.853984402703265
 20
-27.168121957574442
 30
0.0
 11
3.2
 21
-9.411301474099331e-17
 31
0.0
 40
0.33069974960859133
 41
5.770717374476487
 42
6.283185307179586
  0
ELLIPSE
  5
3D
330
17
100
AcDbEntity
  8
visible
100
AcDbEllipse
 10
-11.853984402703265
 20
-27.168121957574442
 30
0.0
 11
3.2
 21
-9.411301474099331e-17
 31
0.0
 40
0.33069974960859133
 41
0.0
 42
1.7334599270288362
  0
LINE
  5
3E
330
17
100
AcDbEntity
  8
visible
100
AcDbLine
 10
-5.0153089028382425
 20
-21.799442473265984
 30
0.0
 11
-12.372215497632677
 21
-26.123852128131002
 31
0.0
  0
ELLIPSE
  5
3F
330
17
100
AcDbEntity
  8
visible
100
AcDbEllipse
 10
-2.0473917478929096
 20
-21.403780190914397
 30
0.0
 11
3.2
 21
-9.411301474099331e-17
 31
0.0
 40
0.33069974960859133
 41
3.524789514744549
 42
5.770717374476487
  0
ELLIPSE
  5
40
330
17
100
AcDbEntity
  8
visible
100
AcDbEllipse
 10
-2.0473917478929096
 20
-21.403780190914397
 30
0.0
 11
3.2
 21
-9.411301474099331e-17
 31
0.0
 40
0.33069974960859133
 41
5.770717374476487
 42
6.283185307179586
  0
ELLIPSE
  5
41
330
17
100
AcDbEntity
  8
visible
100
AcDbEllipse
 10
-2.0473917478929096
 20
-21.403780190914397
 30
0.0
 11
3.2
 21
-9.411301474099331e-17
 31
0.0
 40
0.33069974960859133
 41
0.0
 42
1.733459927028837
  0
LINE
  5
42
330
17
100
AcDbEntity
  8
visible
100
AcDbLine
 10
-0.886594389316052
 20
-19.37257288148811
 30
0.0
 11
-2.565622842822325
 21
-20.35951036147096
 31
0.0
  0
SPLINE
  5
43
330
17
100
AcDbEntity
  8
visible
100
AcDbSpline
 70
0
 71
2
 72
6
 73
3
 74
0
 40
0.0
 40
0.0
 40
0.0
 40
1.0
 40
1.0
 40
1.0
 10
-0.7416379559338246
 20
-19.223345647028665
 30
0.0
 10
-0.7665841369268329
 20
-19.301919916455397
 30
0.0
 10
-0.886594389316052
 20
-19.372572881488107
 30
0.0
  0
LINE
  5
44
330
17
100
AcDbEntity
  8
visible
100
AcDbLine
 10
-17.677233032900773
 20
-28.7026012427549
 30
0.0
 11
-21.116322752827013
 21
-28.06274906562781
 31
0.0
  0
LINE
  5
45
330
17
100
AcDbEntity
  8
visible
100
AcDbLine
 10
-10.760358443871247
 20
5.058938797089105
 30
0.0
 11
-10.760358443871247
 21
13.300732569944074
 31
0.0
  0
LINE
  5
46
330
17
100
AcDbEntity
  8
visible
100
AcDbLine
 10
-10.760358443871247
 20
19.91227630362681
 30
0.0
 11
-10.760358443871247
 21
23.378820054306885
 31
0.0
  0
LINE
  5
47
330
17
100
AcDbEntity
  8
visible
100
AcDbLine
 10
-10.760358443871247
 20
5.058938797089103
 30
0.0
 11
-11.8563883314118
 21
4.414689455789231
 31
0.0
  0
ELLIPSE
  5
48
330
17
100
AcDbEntity
  8
visible
100
AcDbEllipse
 10
-11.853984402703265
 20
-28.961220395738906
 30
0.0
 11
3.2
 21
-9.411301474099331e-17
 31
0.0
 40
0.33069974960859133
 41
1.0107085393189617
 42
2.1308841142708315
  0
ELLIPSE
  5
49
330
17
100
AcDbEntity
  8
visible
100
AcDbEllipse
 10
-2.0473917478929096
 20
-23.19687862907886
 30
0.0
 11
3.2
 21
-9.411301474099331e-17
 31
0.0
 40
0.33069974960859133
 41
1.0107085393189608
 42
2.1308841142708324
  0
ELLIPSE
  5
4A
330
17
100
AcDbEntity
  8
visible
100
AcDbEllipse
 10
-9.674421465716495
 20
-15.006347674490272
 30
0.0
 11
3.146118485904006
 21
16.90981781311239
 31
0.0
 40
0.4627417361330394
 41
-4.330102738926238
 42
-3.7024959375608844
  0
ELLIPSE
  5
4B
330
17
100
AcDbEntity
  8
visible
100
AcDbEllipse
 10
-7.713102934754428
 20
-13.853479321158275
 30
0.0
 11
3.146118485904006
 21
16.90981781311239
 31
0.0
 40
0.4627417361330394
 41
-1.399773288528873
 42
-1.188510085336445
  0
LINE
  5
4C
330
17
100
AcDbEntity
  8
visible
100
AcDbLine
 10
2.5838193527964464
 20
-11.575864546511454
 30
0.0
 11
0.6652738496328487
 21
-12.703590798065196
 31
0.0
  0
LINE
  5
4D
330
17
100
AcDbEntity
  8
visible
100
AcDbLine
 10
2.5838193527964464
 20
-15.350808626857686
 30
0.0
 11
2.5838193527964464
 21
-11.575864546511458
 31
0.0
  0
LINE
  5
4E
330
17
100
AcDbEntity
  8
visible
100
AcDbLine
 10
2.5838193527964464
 20
-15.350808626857685
 30
0.0
 11
0.31418343339201416
 21
-16.68490677754587
 31
0.0
  0
ELLIPSE
  5
4F
330
17
100
AcDbEntity
  8
visible
100
AcDbEllipse
 10
-7.713102934754428
 20
-13.853479321158275
 30
0.0
 11
3.146118485904006
 21
16.90981781311239
 31
0.0
 40
0.4627417361330394
 41
-1.8161168867017987
 42
-1.7157251274594907
  0
LINE
  5
50
330
17
100
AcDbEntity
  8
visible
100
AcDbLine
 10
-2.5656228428223002
 20
-20.359510361470946
 30
0.0
 11
-2.5656228428223002
 21
-20.170763157453646
 31
0.0
  0
LINE
  5
51
330
17
100
AcDbEntity
  8
visible
100
AcDbLine
 10
-2.5656228428223056
 20
-20.170763157453646
 30
0.0
 11
-5.015308902838269
 21
-21.610695269248698
 31
0.0
  0
LINE
  5
52
330
17
100
AcDbEntity
  8
visible
100
AcDbLine
 10
-5.015308902838264
 20
-21.799442473265998
 30
0.0
 11
-5.015308902838264
 21
-21.610695269248698
 31
0.0
  0
LINE
  5
53
330
17
100
AcDbEntity
  8
visible
100
AcDbLine
 10
-12.372215497632656
 20
-26.12385212813099
 30
0.0
 11
-12.372215497632656
 21
-25.93510492411369
 31
0.0
  0
LINE
  5
54
330
17
100
AcDbEntity
  8
visible
100
AcDbLine
 10
-12.372215497632657
 20
-25.935104924113695
 30
0.0
 11
-14.821901557648621
 21
-27.375037035908747
 31
0.0
  0
LINE
  5
55
330
17
100
AcDbEntity
  8
visible
100
AcDbLine
 10
-14.82190155764862
 20
-27.563784239926044
 30
0.0
 11
-14.82190155764862
 21
-27.375037035908743
 31
0.0
  0
LINE
  5
56
330
17
100
AcDbEntity
  8
visible
100
AcDbLine
 10
-18.1080911488534
 20
-19.963681593817917
 30
0.0
 11
-18.1080911488534
 21
10.707739058995195
 31
0.0
  0
ELLIPSE
  5
57
330
17
100
AcDbEntity
  8
visible
100
AcDbEllipse
 10
-9.674421465716495
 20
15.66507297832284
 30
0.0
 11
-3.146118485904006
 21
-16.90981781311239
 31
0.0
 40
0.4627417361330394
 41
3.5238788950482447
 42
5.094675221843142
  0
LINE
  5
58
330
17
100
AcDbEntity
  8
visible
100
AcDbLine
 10
-9.674421465716495
 20
31.897332523811627
 30
0.0
 11
-7.713102934754424
 21
33.05020087714364
 31
0.0
  0
ELLIPSE
  5
59
330
17
100
AcDbEntity
  8
visible
100
AcDbEllipse
 10
-7.713102934754428
 20
16.817941331654836
 30
0.0
 11
-3.146118485904006
 21
-16.90981781311239
 31
0.0
 40
0.4627417361330394
 41
2.1873568837636514
 42
3.523878895048245
  0
LINE
  5
5A
330
17
100
AcDbEntity
  8
visible
100
AcDbLine
 10
0.7205667483824811
 20
-1.8181252511814572
 30
0.0
 11
0.7205667483824811
 21
11.164674607532344
 31
0.0
  0
LINE
  5
5B
330
17
100
AcDbEntity
  8
visible
100
AcDbLine
 10
0.7205667483824811
 20
17.776218341215085
 30
0.0
 11
0.7205667483824811
 21
18.753560125994674
 31
0.0
  0
LINE
  5
5C
330
17
100
AcDbEntity
  8
visible
100
AcDbLine
 10
2.5838193527964464
 20
-0.7229003155160427
 30
0.0
 11
0.7205667483824789
 21
-1.8181252511814516
 31
0.0
  0
LINE
  5
5D
330
17
100
AcDbEntity
  8
visible
100
AcDbLine
 10
2.5838193527964464
 20
-4.497844395862275
 30
0.0
 11
2.5838193527964464
 21
-0.7229003155160463
 31
0.0
  0
LINE
  5
5E
330
17
100
AcDbEntity
  8
visible
100
AcDbLine
 10
2.5838193527964464
 20
-4.497844395862273
 30
0.0
 11
0.7205667483824789
 21
-5.5930693315276825
 31
0.0
  0
LINE
  5
5F
330
17
100
AcDbEntity
  8
visible
100
AcDbLine
 10
0.7205667483824811
 20
-8.896145401830637
 30
0.0
 11
0.7205667483824811
 21
-5.593069331527687
 31
0.0
  0
ELLIPSE
  5
60
330
17
100
AcDbEntity
  8
visible
100
AcDbEllipse
 10
-3.790465872830282
 20
-14.378950674753924
 30
0.0
 11
-0.5944700627434888
 21
-3.1951690635241436
 31
0.0
 40
0.46274173613303937
 41
3.141592653589793
 42
6.283185307179586
  0
ELLIPSE
  5
61
330
17
100
AcDbEntity
  8
visible
100
AcDbEllipse
 10
-3.790465872830282
 20
22.898622118665088
 30
0.0
 11
-0.5944700627434888
 21
-3.1951690635241436
 31
0.0
 40
0.46274173613303937
 41
3.141592653589793
 42
6.283185307179586
  0
ELLIPSE
  5
62
330
17
100
AcDbEntity
  8
visible
100
AcDbEllipse
 10
-8.693762200235462
 20
0.19799481351736858
 30
0.0
 11
-0.21035094527846523
 21
-1.1305982840162354
 31
0.0
 40
0.4627417361330394
 41
0.3822862414584516
 42
3.141592653589793
  0
ELLIPSE
  5
63
330
17
100
AcDbEntity
  8
visible
100
AcDbEllipse
 10
-8.693762200235462
 20
0.19799481351736858
 30
0.0
 11
-0.21035094527846523
 21
-1.1305982840162354
 31
0.0
 40
0.4627417361330394
 41
3.141592653589793
 42
6.283185307179586
  0
ELLIPSE
  5
64
330
17
100
AcDbEntity
  8
visible
100
AcDbEllipse
 10
-8.693762200235462
 20
0.19799481351736858
 30
0.0
 11
-0.21035094527846523
 21
-1.1305982840162354
 31
0.0
 40
0.4627417361330394
 41
0.0
 42
0.382286241458452
  0
ELLIPSE
  5
65
330
17
100
AcDbEntity
  8
visible
100
AcDbEllipse
 10
-13.597058527640637
 20
-20.143292441413962
 30
0.0
 11
-0.5944700627434888
 21
-3.1951690635241436
 31
0.0
 40
0.46274173613303937
 41
3.141592653589793
 42
6.283185307179586
  0
LINE
  5
66
330
17
100
AcDbEntity
  8
visible
100
AcDbLine
 10
-5.531136069059123
 20
4.086027476451325
 30
0.0
 11
-11.8563883314118
 21
0.368027036955596
 31
0.0
  0
LINE
  5
67
330
17
100
AcDbEntity
  8
visible
100
AcDbLine
 10
-5.531136069059123
 20
4.086027476451342
 30
0.0
 11
-5.531136069059123
 21
12.327821249306304
 31
0.0
  0
LINE
  5
68
330
17
100
AcDbEntity
  8
visible
100
AcDbLine
 10
-5.531136069059123
 20
18.93936498298904
 30
0.0
 11
-5.531136069059123
 21
26.452571152502756
 31
0.0
  0
LINE
  5
69
330
17
100
AcDbEntity
  8
visible
100
AcDbLine
 10
-11.8563883314118
 20
0.3680270369556027
 30
0.0
 11
-11.8563883314118
 21
13.504651969218784
 31
0.0
  0
LINE
  5
6A
330
17
100
AcDbEntity
  8
visible
100
AcDbLine
 10
-11.8563883314118
 20
20.11619570290152
 30
0.0
 11
-11.8563883314118
 21
22.734570713007017
 31
0.0
  0
LINE
  5
6B
330
17
100
AcDbEntity
  8
visible
100
AcDbLine
 10
-5.531136069059123
 20
26.452571152502745
 30
0.0
 11
-11.8563883314118
 21
22.734570713007017
 31
0.0
  0
ELLIPSE
  5
6C
330
17
100
AcDbEntity
  8
visible
100
AcDbEllipse
 10
-8.693762200235462
 20
26.62260337594097
 30
0.0
 11
-0.21035094527846523
 21
-1.1305982840162354
 31
0.0
 40
0.4627417361330394
 41
0.3822862414584516
 42
3.141592653589793
  0
ELLIPSE
  5
6D
330
17
100
AcDbEntity
  8
visible
100
AcDbEllipse
 10
-8.693762200235462
 20
26.62260337594097
 30
0.0
 11
-0.21035094527846523
 21
-1.1305982840162354
 31
0.0
 40
0.4627417361330394
 41
3.141592653589793
 42
6.283185307179586
  0
ELLIPSE
  5
6E
330
17
100
AcDbEntity
  8
visible
100
AcDbEllipse
 10
-8.693762200235462
 20
26.62260337594097
 30
0.0
 11
-0.21035094527846523
 21
-1.1305982840162354
 31
0.0
 40
0.4627417361330394
 41
0.0
 42
0.382286241458452
  0
ELLIPSE
  5
6F
330
17
100
AcDbEntity
  8
visible
100
AcDbEllipse
 10
-13.597058527640637
 20
17.13428035200505
 30
0.0
 11
-0.5944700627434888
 21
-3.1951690635241436
 31
0.0
 40
0.46274173613303937
 41
3.141592653589793
 42
6.283185307179586
  0
SPLINE
  5
70
330
17
100
AcDbEntity
  8
visible
100
AcDbSpline
 70
0
 71
2
 72
6
 73
3
 74
0
 40
0.0
 40
0.0
 40
0.0
 40
1.0
 40
1.0
 40
1.0
 10
-21.479403480445733
 20
-28.061866098307604
 30
0.0
 10
-21.31856517314268
 20
-28.026217446351207
 30
0.0
 10
-21.116322752827006
 20
-28.06274906562782
 30
0.0
  0
SPLINE
  5
71
330
17
100
AcDbEntity
  8
visible
100
AcDbSpline
 70
0
 71
2
 72
6
 73
3
 74
0
 40
0.0
 40
0.0
 40
0.0
 40
0.45359946219079644
 40
0.45359946219079644
 40
0.45359946219079644
 10
-21.479403480445693
 20
-28.061866098307647
 30
0.0
 10
-21.671545918154745
 20
-28.10727274062409
 30
0.0
 10
-21.695723470180916
 20
-28.14758317162014
 30
0.0
  0
LINE
  5
72
330
17
100
AcDbEntity
  8
visible
100
AcDbLine
 10
-0.5657787416961355
 20
-15.828275073891788
 30
0.0
 11
-0.8712568873790556
 21
-15.771440017961885
 31
0.0
  0
ELLIPSE
  5
73
330
17
100
AcDbEntity
  8
visible
100
AcDbEllipse
 10
-0.5657787416961355
 20
-14.978912655813886
 30
0.0
 11
-0.1646224789135815
 21
-0.8848160483605322
 31
0.0
 40
0.4627417361330394
 41
0.3822862414584516
 42
3.141592653589793
  0
ELLIPSE
  5
74
330
17
100
AcDbEntity
  8
visible
100
AcDbEllipse
 10
-0.5657787416961355
 20
-14.978912655813886
 30
0.0
 11
-0.1646224789135815
 21
-0.8848160483605322
 31
0.0
 40
0.4627417361330394
 41
3.141592653589793
 42
6.283185307179586
  0
ELLIPSE
  5
75
330
17
100
AcDbEntity
  8
visible
100
AcDbEllipse
 10
-0.5657787416961355
 20
-14.978912655813886
 30
0.0
 11
-0.1646224789135815
 21
-0.8848160483605322
 31
0.0
 40
0.4627417361330394
 41
0.0
 42
0.382286241458452
  0
LINE
  5
76
330
17
100
AcDbEntity
  8
visible
100
AcDbLine
 10
-10.760358443871247
 20
5.0589387970890956
 30
0.0
 11
-5.531136069059123
 21
4.086027476451325
 31
0.0
  0
LINE
  5
77
330
17
100
AcDbEntity
  8
visible
100
AcDbLine
 10
-10.372371396506491
 20
-21.592616840551827
 30
0.0
 11
-10.677849542189422
 21
-21.53578178462192
 31
0.0
  0
ELLIPSE
  5
78
330
17
100
AcDbEntity
  8
visible
100
AcDbEllipse
 10
-10.372371396506491
 20
-20.743254422473925
 30
0.0
 11
-0.1646224789135815
 21
-0.8848160483605322
 31
0.0
 40
0.4627417361330394
 41
0.3822862414584516
 42
3.141592653589793
  0
ELLIPSE
  5
79
330
17
100
AcDbEntity
  8
visible
100
AcDbEllipse
 10
-10.372371396506491
 20
-20.743254422473925
 30
0.0
 11
-0.1646224789135815
 21
-0.8848160483605322
 31
0.0
 40
0.4627417361330394
 41
3.141592653589793
 42
6.283185307179586
  0
ELLIPSE
  5
7A
330
17
100
AcDbEntity
  8
visible
100
AcDbEllipse
 10
-10.372371396506491
 20
-20.743254422473925
 30
0.0
 11
-0.1646224789135815
 21
-0.8848160483605322
 31
0.0
 40
0.4627417361330394
 41
0.0
 42
0.382286241458452
  0
SPLINE
  5
7B
330
17
100
AcDbEntity
  8
visible
100
AcDbSpline
 70
0
 71
2
 72
6
 73
3
 74
0
 40
0.0
 40
0.0
 40
0.0
 40
1.0
 40
1.0
 40
1.0
 10
0.6289286576864603
 20
-12.38809590899237
 30
0.0
 10
0.6209327636471776
 20
-12.463164422801665
 30
0.0
 10
0.5987015381813432
 20
-12.54216045612995
 30
0.0
  0
SPLINE
  5
7C
330
17
100
AcDbEntity
  8
visible
100
AcDbSpline
 70
0
 71
3
 72
8
 73
4
 74
0
 40
0.0
 40
0.0
 40
0.0
 40
0.0
 40
0.4486168919199498
 40
0.4486168919199498
 40
0.4486168919199498
 40
0.4486168919199498
 10
0.7205667483824811
 20
-1.8181252511814563
 30
0.0
 10
0.7865632262593812
 20
-1.6789604651746914
 30
0.0
 10
0.8233001203207923
 20
-1.5332926879088449
 30
0.0
 10
0.82333710728885
 20
-1.4018300813263993
 30
0.0
  0
SPLINE
  5
7D
330
17
100
AcDbEntity
  8
visible
100
AcDbSpline
 70
0
 71
2
 72
6
 73
3
 74
0
 40
0.0
 40
0.0
 40
0.0
 40
0.4486168919203952
 40
0.4486168919203952
 40
0.4486168919203952
 10
0.7205667483824811
 20
-5.593069331527687
 30
0.0
 10
0.8214215460172866
 20
-5.688707805691915
 30
0.0
 10
0.8233371072888482
 20
-5.749921474435753
 30
0.0
  0
LINE
  5
7E
330
17
100
AcDbEntity
  8
visible
100
AcDbLine
 10
0.7479562931227965
 20
-11.002845284604048
 30
0.0
 11
0.8134646771059804
 21
-10.964339278781992
 31
0.0
  0
LINE
  5
7F
330
17
100
AcDbEntity
  8
visible
100
AcDbLine
 10
0.813464677105983
 20
-10.964339278781988
 30
0.0
 11
0.7512463374871579
 21
-10.95276338419812
 31
0.0
  0
ELLIPSE
  5
80
330
17
100
AcDbEntity
  8
visible
100
AcDbEllipse
 10
16.864962507677618
 20
19.0556224021459
 30
0.0
 11
-0.1646224789135815
 21
-0.8848160483605322
 31
0.0
 40
0.4627417361330394
 41
0.3822862414584516
 42
3.141592653589793
  0
ELLIPSE
  5
81
330
17
100
AcDbEntity
  8
visible
100
AcDbEllipse
 10
16.864962507677618
 20
19.0556224021459
 30
0.0
 11
-0.1646224789135815
 21
-0.8848160483605322
 31
0.0
 40
0.4627417361330394
 41
3.141592653589793
 42
6.283185307179586
  0
ELLIPSE
  5
82
330
17
100
AcDbEntity
  8
visible
100
AcDbEllipse
 10
16.864962507677618
 20
19.0556224021459
 30
0.0
 11
-0.1646224789135815
 21
-0.8848160483605322
 31
0.0
 40
0.4627417361330394
 41
0.0
 42
0.382286241458452
  0
ELLIPSE
  5
83
330
17
100
AcDbEntity
  8
visible
100
AcDbEllipse
 10
7.0583698528672585
 20
13.291280635485847
 30
0.0
 11
-0.1646224789135815
 21
-0.8848160483605322
 31
0.0
 40
0.4627417361330394
 41
0.3822862414584516
 42
3.141592653589793
  0
ELLIPSE
  5
84
330
17
100
AcDbEntity
  8
visible
100
AcDbEllipse
 10
7.0583698528672585
 20
13.291280635485847
 30
0.0
 11
-0.1646224789135815
 21
-0.8848160483605322
 31
0.0
 40
0.4627417361330394
 41
3.141592653589793
 42
6.283185307179586
  0
ELLIPSE
  5
85
330
17
100
AcDbEntity
  8
visible
100
AcDbEllipse
 10
7.0583698528672585
 20
13.291280635485847
 30
0.0
 11
-0.1646224789135815
 21
-0.8848160483605322
 31
0.0
 40
0.4627417361330394
 41
0.0
 42
0.382286241458452
  0
LINE
  5
86
330
17
100
AcDbEntity
  8
visible
100
AcDbLine
 10
-9.076410191593723
 20
-36.37701806450045
 30
0.0
 11
-9.076410191593723
 21
-30.33710753594648
 31
0.0
  0
ELLIPSE
  5
87
330
17
100
AcDbEntity
  8
visible
100
AcDbEllipse
 10
-13.434095503937165
 20
-29.52634810208167
 30
0.0
 11
-5.0
 21
1.4705158553280206e-16
 31
0.0
 40
0.3306997496085914
 41
-5.224856913087789
 42
-3.654060586292893
  0
LINE
  5
88
330
17
100
AcDbEntity
  8
visible
100
AcDbLine
 10
-15.885743667639751
 20
-37.007344072300654
 30
0.0
 11
-15.885743667639751
 21
-30.967433543746687
 31
0.0
  0
LINE
  5
89
330
17
100
AcDbEntity
  8
visible
100
AcDbLine
 10
5.633478790621808
 20
-21.690594885956415
 30
0.0
 11
-9.076410191593723
 21
-30.337107535946483
 31
0.0
  0
LINE
  5
8A
330
17
100
AcDbEntity
  8
visible
100
AcDbLine
 10
5.633478790621808
 20
-27.73050541451038
 30
0.0
 11
5.633478790621808
 21
-21.690594885956415
 31
0.0
  0
ELLIPSE
  5
8B
330
17
100
AcDbEntity
  8
visible
100
AcDbEllipse
 10
-9.773639841568674
 20
-30.207386026528113
 30
0.0
 11
-0.4053944331674673
 21
0.689677717167104
 31
0.0
 40
0.8225009186921284
 41
4.091896363046224
 42
5.662692689841121
  0
ELLIPSE
  5
8C
330
17
100
AcDbEntity
  8
visible
100
AcDbEllipse
 10
-13.434095503937165
 20
-28.771359286012412
 30
0.0
 11
-4.2
 21
1.2352333184755373e-16
 31
0.0
 40
0.3306997496085914
 41
-5.224856913087789
 42
-3.654060586292893
  0
ELLIPSE
  5
8D
330
17
100
AcDbEntity
  8
visible
100
AcDbEllipse
 10
-15.493479961447338
 20
-30.736859873080277
 30
0.0
 11
0.14633109236762817
 21
0.7865031540982508
 31
0.0
 40
0.4627417361330394
 41
-5.900899065721134
 42
-4.330102738926238
  0
LINE
  5
8E
330
17
100
AcDbEntity
  8
visible
100
AcDbLine
 10
-19.371891917514503
 20
-36.358736525208805
 30
0.0
 11
-19.371891917514503
 21
-30.318825996654837
 31
0.0
  0
LINE
  5
8F
330
17
100
AcDbEntity
  8
visible
100
AcDbLine
 10
-15.885743667639751
 20
-30.96743354374668
 30
0.0
 11
-19.371891917514503
 21
-30.31882599665483
 31
0.0
  0
ELLIPSE
  5
90
330
17
100
AcDbEntity
  8
visible
100
AcDbEllipse
 10
4.936249140646858
 20
-21.56087337653804
 30
0.0
 11
-0.40539443316746726
 21
0.6896777171671041
 31
0.0
 40
0.8225009186921285
 41
4.091896363046224
 42
5.662692689841121
  0
LINE
  5
91
330
17
100
AcDbEntity
  8
visible
100
AcDbLine
 10
4.936249140646858
 20
-20.805884560468783
 30
0.0
 11
-9.773639841568674
 21
-29.45239721045885
 31
0.0
  0
ELLIPSE
  5
92
330
17
100
AcDbEntity
  8
visible
100
AcDbEllipse
 10
1.2757934782783664
 20
-20.879835452091605
 30
0.0
 11
-5.0
 21
1.4705158553280203e-16
 31
0.0
 40
0.33069974960859133
 41
-3.6540605862928937
 42
-3.1415926535897936
  0
ELLIPSE
  5
93
330
17
100
AcDbEntity
  8
visible
100
AcDbEllipse
 10
-2.2103547715963856
 20
-19.476239088930498
 30
0.0
 11
-4.2
 21
1.2352333184755373e-16
 31
0.0
 40
0.3306997496085914
 41
-2.0832642594979967
 42
-2.0020946018531243
  0
LINE
  5
94
330
17
100
AcDbEntity
  8
visible
100
AcDbLine
 10
-0.15097031408620865
 20
-18.26572731793189
 30
0.0
 11
3.3351779357885447
 21
-18.91433486502374
 31
0.0
  0
ELLIPSE
  5
95
330
17
100
AcDbEntity
  8
visible
100
AcDbEllipse
 10
1.2757934782783664
 20
-20.124846636022347
 30
0.0
 11
-4.2
 21
1.235233318475537e-16
 31
0.0
 40
0.33069974960859133
 41
-3.6540605862928937
 42
-2.083264259497997
  0
LINE
  5
96
330
17
100
AcDbEntity
  8
visible
100
AcDbLine
 10
-15.493479961447338
 20
-29.98187105701102
 30
0.0
 11
-18.97962821132209
 21
-29.33326350991917
 31
0.0
  0
ELLIPSE
  5
97
330
17
100
AcDbEntity
  8
visible
100
AcDbEllipse
 10
-16.920243753811913
 20
-28.12275173892057
 30
0.0
 11
-4.2
 21
1.235233318475537e-16
 31
0.0
 40
0.33069974960859133
 41
-6.326399123456043
 42
-5.224856913087789
  0
ELLIPSE
  5
98
330
17
100
AcDbEntity
  8
visible
100
AcDbEllipse
 10
-18.979628211322087
 20
-30.088252325988435
 30
0.0
 11
0.14633109236762817
 21
0.7865031540982508
 31
0.0
 40
0.4627417361330394
 41
-5.900899065721134
 42
-4.330102738926238
  0
ELLIPSE
  5
99
330
17
100
AcDbEntity
  8
visible
100
AcDbEllipse
 10
-16.920243753811913
 20
-28.877740554989828
 30
0.0
 11
-5.0
 21
1.4705158553280203e-16
 31
0.0
 40
0.33069974960859133
 41
-6.283185307179586
 42
-5.224856913087789
  0
ELLIPSE
  5
9A
330
17
100
AcDbEntity
  8
visible
100
AcDbEllipse
 10
3.3351779357885363
 20
-19.669323681092997
 30
0.0
 11
-0.14633109236762817
 21
-0.7865031540982508
 31
0.0
 40
0.4627417361330394
 41
3.141592653589793
 42
3.523878895048245
  0
ELLIPSE
  5
9B
330
17
100
AcDbEntity
  8
visible
100
AcDbEllipse
 10
-18.805320798828348
 20
-19.83396008439955
 30
0.0
 11
0.8
 21
9.411301474099331e-17
 31
0.0
 40
0.33069974960859155
 41
4.19992104768159
 42
5.770717374476487
  0
ELLIPSE
  5
9C
330
17
100
AcDbEntity
  8
visible
100
AcDbEllipse
 10
-10.371651115691442
 20
-14.876626165071912
 30
0.0
 11
3.292449578271634
 21
17.696320967210642
 31
0.0
 40
0.4627417361330395
 41
-4.330102738926238
 42
-3.734375206356877
  0
ELLIPSE
  5
9D
330
17
100
AcDbEntity
  8
visible
100
AcDbEllipse
 10
-0.15097031408620865
 20
-19.020716134001148
 30
0.0
 11
-0.14633109236762817
 21
-0.7865031540982508
 31
0.0
 40
0.4627417361330394
 41
3.141592653589793
 42
3.523878895048245
  0
ELLIPSE
  5
9E
330
17
100
AcDbEntity
  8
visible
100
AcDbEllipse
 10
-14.20641419055367
 20
-14.163157863270882
 30
0.0
 11
3.292449578271634
 21
17.696320967210642
 31
0.0
 40
0.4627417361330395
 41
-4.330102738926238
 42
-3.7278254239509714
  0
LINE
  5
9F
330
17
100
AcDbEntity
  8
visible
100
AcDbLine
 10
-23.032347579882988
 20
-19.35106545326492
 30
0.0
 11
-19.19758450502076
 21
-20.064533755065952
 31
0.0
  0
ELLIPSE
  5
A0
330
17
100
AcDbEntity
  8
visible
100
AcDbEllipse
 10
-22.640083873690575
 20
-19.120491782598513
 30
0.0
 11
-0.8
 21
-9.411301474099331e-17
 31
0.0
 40
0.33069974960859155
 41
-6.283185307179586
 42
-5.224856913087789
  0
ELLIPSE
  5
A1
330
17
100
AcDbEntity
  8
visible
100
AcDbEllipse
 10
-12.245095659591602
 20
33.89339068836303
 30
0.0
 11
-0.4053944331674673
 21
0.689677717167104
 31
0.0
 40
0.8225009186921284
 41
5.66269268984112
 42
6.283185307179586
  0
ELLIPSE
  5
A2
330
17
100
AcDbEntity
  8
visible
100
AcDbEllipse
 10
-12.245095659591602
 20
17.66113114287424
 30
0.0
 11
3.292449578271634
 21
17.696320967210642
 31
0.0
 40
0.4627417361330395
 41
-6.283185307179586
 42
-5.900899065721134
  0
ELLIPSE
  5
A3
330
17
100
AcDbEntity
  8
visible
100
AcDbEllipse
 10
-14.206414190553673
 20
32.74052233503102
 30
0.0
 11
-0.4053944331674673
 21
0.689677717167104
 31
0.0
 40
0.8225009186921285
 41
5.66269268984112
 42
6.283185307179586
  0
LINE
  5
A4
330
17
100
AcDbEntity
  8
visible
100
AcDbLine
 10
-14.20641419055367
 20
33.49551115110026
 30
0.0
 11
-12.245095659591598
 21
34.64837950443227
 31
0.0
  0
ELLIPSE
  5
A5
330
17
100
AcDbEntity
  8
visible
100
AcDbEllipse
 10
-22.640083873690575
 20
11.550928870214591
 30
0.0
 11
-0.8
 21
2.3528253685248328e-17
 31
0.0
 40
0.33069974960859133
 41
-6.283185307179586
 42
-5.224856913087789
  0
ELLIPSE
  5
A6
330
17
100
AcDbEntity
  8
visible
100
AcDbEllipse
 10
-14.20641419055367
 20
16.50826278954223
 30
0.0
 11
3.292449578271634
 21
17.696320967210642
 31
0.0
 40
0.4627417361330395
 41
-5.900899065721134
 42
-4.330102738926238
  0
LINE
  5
A7
330
17
100
AcDbEntity
  8
visible
100
AcDbLine
 10
-23.032347579882988
 20
-19.351065453264916
 30
0.0
 11
-23.032347579882988
 21
11.320355199548196
 31
0.0
  0
ELLIPSE
  5
A8
330
17
100
AcDbEntity
  8
visible
100
AcDbEllipse
 10
-18.805320798828348
 20
10.837460568413562
 30
0.0
 11
0.8
 21
-2.3528253685248328e-17
 31
0.0
 40
0.33069974960859133
 41
4.19992104768159
 42
5.770717374476487
  0
LINE
  5
A9
330
17
100
AcDbEntity
  8
visible
100
AcDbLine
 10
-19.197584505020764
 20
-20.064533755065952
 30
0.0
 11
-19.197584505020764
 21
10.60688689774716
 31
0.0
  0
ELLIPSE
  5
AA
330
17
100
AcDbEntity
  8
visible
100
AcDbEllipse
 10
0.023337098407530732
 20
-8.766423892412263
 30
0.0
 11
-0.8
 21
2.3528253685248328e-17
 31
0.0
 40
0.33069974960859133
 41
-3.654060586292893
 42
-3.141592653589793
  0
LINE
  5
AB
330
17
100
AcDbEntity
  8
visible
100
AcDbLine
 10
2.1480508215621015
 20
-11.022920593081693
 30
0.0
 11
0.6781952646684166
 21
-11.886905676973553
 31
0.0
  0
ELLIPSE
  5
AC
330
17
100
AcDbEntity
  8
visible
100
AcDbEllipse
 10
2.1480508215621015
 20
-11.494788603124974
 30
0.0
 11
-0.25337152072966707
 21
0.43104857322944
 31
0.0
 40
0.8225009186921286
 41
4.091896363046224
 42
5.662692689841121
  0
ELLIPSE
  5
AD
330
17
100
AcDbEntity
  8
visible
100
AcDbEllipse
 10
1.7122822903277566
 20
-15.188656740084724
 30
0.0
 11
-1.0
 21
2.941031710656041e-17
 31
0.0
 40
0.3306997496085914
 41
-3.654060586292893
 42
-3.141592653589793
  0
ELLIPSE
  5
AE
330
17
100
AcDbEntity
  8
visible
100
AcDbEllipse
 10
1.7122822903277566
 20
-11.413712659738493
 30
0.0
 11
-1.0
 21
2.941031710656041e-17
 31
0.0
 40
0.3306997496085914
 41
-3.654060586292893
 42
-3.141592653589793
  0
ELLIPSE
  5
AF
330
17
100
AcDbEntity
  8
visible
100
AcDbEllipse
 10
2.1480508215621015
 20
-15.269732683471204
 30
0.0
 11
0.25337152072966707
 21
-0.43104857322944
 31
0.0
 40
0.8225009186921286
 41
-6.283185307179586
 42
-5.332881597723156
  0
ELLIPSE
  5
B0
330
17
100
AcDbEntity
  8
visible
100
AcDbEllipse
 10
-10.371651115691442
 20
15.7947944877412
 30
0.0
 11
3.292449578271634
 21
17.696320967210642
 31
0.0
 40
0.4627417361330395
 41
-5.900899065721134
 42
-4.330102738926238
  0
ELLIPSE
  5
B1
330
17
100
AcDbEntity
  8
visible
100
AcDbEllipse
 10
-10.371651115691446
 20
32.02705403322999
 30
0.0
 11
0.4053944331674673
 21
-0.689677717167104
 31
0.0
 40
0.8225009186921285
 41
-5.332881597723155
 42
-3.762085270928259
  0
LINE
  5
B2
330
17
100
AcDbEntity
  8
visible
100
AcDbLine
 10
-10.371651115691442
 20
32.78204284929923
 30
0.0
 11
-8.410332584729371
 21
33.93491120263124
 31
0.0
  0
ELLIPSE
  5
B3
330
17
100
AcDbEntity
  8
visible
100
AcDbEllipse
 10
-8.410332584729375
 20
33.179922386562
 30
0.0
 11
0.4053944331674673
 21
-0.689677717167104
 31
0.0
 40
0.8225009186921284
 41
-5.332881597723155
 42
-3.762085270928259
  0
ELLIPSE
  5
B4
330
17
100
AcDbEntity
  8
visible
100
AcDbEllipse
 10
-8.410332584729375
 20
16.94766284107321
 30
0.0
 11
3.292449578271634
 21
17.696320967210642
 31
0.0
 40
0.4627417361330395
 41
-6.283185307179586
 42
-5.900899065721134
  0
LINE
  5
B5
330
17
100
AcDbEntity
  8
visible
100
AcDbLine
 10
2.1480508215621015
 20
-0.16995636208628184
 30
0.0
 11
0.8233370984075279
 21
-0.9486266823531242
 31
0.0
  0
ELLIPSE
  5
B6
330
17
100
AcDbEntity
  8
visible
100
AcDbEllipse
 10
2.1480508215621015
 20
-0.6418243721295624
 30
0.0
 11
-0.25337152072966707
 21
0.43104857322944
 31
0.0
 40
0.8225009186921286
 41
4.091896363046224
 42
5.662692689841121
  0
ELLIPSE
  5
B7
330
17
100
AcDbEntity
  8
visible
100
AcDbEllipse
 10
1.7122822903277566
 20
-4.335692509089313
 30
0.0
 11
-1.0
 21
2.941031710656041e-17
 31
0.0
 40
0.3306997496085914
 41
-3.654060586292893
 42
-3.141592653589793
  0
ELLIPSE
  5
B8
330
17
100
AcDbEntity
  8
visible
100
AcDbEllipse
 10
1.7122822903277566
 20
-0.5607484287430822
 30
0.0
 11
-1.0
 21
2.941031710656041e-17
 31
0.0
 40
0.3306997496085914
 41
-3.654060586292893
 42
-3.141592653589793
  0
ELLIPSE
  5
B9
330
17
100
AcDbEntity
  8
visible
100
AcDbEllipse
 10
2.1480508215621015
 20
-4.416768452475793
 30
0.0
 11
0.25337152072966707
 21
-0.43104857322944
 31
0.0
 40
0.8225009186921286
 41
-6.283185307179586
 42
-5.332881597723156
  0
ELLIPSE
  5
BA
330
17
100
AcDbEntity
  8
visible
100
AcDbEllipse
 10
-0.9143935666836072
 20
-14.914051901104699
 30
0.0
 11
-0.5944700627434888
 21
-3.1951690635241436
 31
0.0
 40
0.46274173613303937
 41
3.141592653589793
 42
6.283185307179586
  0
ELLIPSE
  5
BB
330
17
100
AcDbEntity
  8
visible
100
AcDbEllipse
 10
16.516347682690146
 20
19.120483156855087
 30
0.0
 11
-0.5944700627434888
 21
-3.1951690635241436
 31
0.0
 40
0.46274173613303937
 41
3.141592653589793
 42
6.283185307179586
  0
ELLIPSE
  5
BC
330
17
100
AcDbEntity
  8
visible
100
AcDbEllipse
 10
-10.720986221493963
 20
-20.678393667764738
 30
0.0
 11
-0.5944700627434888
 21
-3.1951690635241436
 31
0.0
 40
0.46274173613303937
 41
3.141592653589793
 42
6.283185307179586
  0
ELLIPSE
  5
BD
330
17
100
AcDbEntity
  8
visible
100
AcDbEllipse
 10
6.709755027879787
 20
13.356141390195035
 30
0.0
 11
-0.5944700627434888
 21
-3.1951690635241436
 31
0.0
 40
0.46274173613303937
 41
3.141592653589793
 42
6.283185307179586
  0
LINE
  5
BE
330
17
100
AcDbEntity
  8
visible
100
AcDbLine
 10
-23.032347579882988
 20
11.320355199548194
 30
0.0
 11
-19.19758450502076
 21
10.606886897747161
 31
0.0
  0
LINE
  5
BF
330
17
100
AcDbEntity
  8
visible
100
AcDbLine
 10
0.8233370984075279
 20
0.266232436782509
 30
0.0
 11
1.9574471066980177
 21
0.0552281254667073
 31
0.0
  0
ELLIPSE
  5
C0
330
17
100
AcDbEntity
  8
visible
100
AcDbEllipse
 10
1.7122822903277566
 20
-0.08888041869980157
 30
0.0
 11
-0.5
 21
1.4705158553280205e-17
 31
0.0
 40
0.3306997496085914
 41
-3.654060586292893
 42
-2.0832642594979967
  0
LINE
  5
C1
330
17
100
AcDbEntity
  8
visible
100
AcDbLine
 10
-12.245095659591602
 20
34.64837950443228
 30
0.0
 11
-8.410332584729375
 21
33.93491120263124
 31
0.0
  0
LINE
  5
C2
330
17
100
AcDbEntity
  8
visible
100
AcDbLine
 10
-14.20641419055367
 20
33.49551115110027
 30
0.0
 11
-10.371651115691442
 21
32.78204284929923
 31
0.0
  0
LINE
  5
C3
330
17
100
AcDbEntity
  8
visible
100
AcDbLine
 10
0.7736144545520296
 20
-10.577480758469601
 30
0.0
 11
1.9574471066980177
 21
-10.797736105528704
 31
0.0
  0
ELLIPSE
  5
C4
330
17
100
AcDbEntity
  8
visible
100
AcDbEllipse
 10
1.7122822903277566
 20
-10.941844649695213
 30
0.0
 11
-0.5
 21
1.4705158553280205e-17
 31
0.0
 40
0.3306997496085914
 41
-3.654060586292893
 42
-2.0832642594979967
  0
ELLIPSE
  5
C5
330
17
100
AcDbEntity
  8
visible
100
AcDbEllipse
 10
-0.5657787416961355
 20
-14.978912655813886
 30
0.0
 11
-0.5213045165596748
 21
-2.8019174864750185
 31
0.0
 40
0.4627417361330395
 41
0.3822862414584516
 42
6.665471548638038
  0
ELLIPSE
  5
C6
330
17
100
AcDbEntity
  8
visible
100
AcDbEllipse
 10
-10.372371396506491
 20
-20.743254422473925
 30
0.0
 11
-0.5213045165596748
 21
-2.8019174864750185
 31
0.0
 40
0.4627417361330395
 41
0.3822862414584516
 42
6.665471548638038
  0
ELLIPSE
  5
C7
330
17
100
AcDbEntity
  8
visible
100
AcDbEllipse
 10
1.9574471066980195
 20
-11.269604115571994
 30
0.0
 11
-0.09145693272976761
 21
-0.49156447131140674
 31
0.0
 40
0.4627417361330394
 41
3.141592653589793
 42
3.523878895048245
  0
ELLIPSE
  5
C8
330
17
100
AcDbEntity
  8
visible
100
AcDbEllipse
 10
1.9574471066980195
 20
-0.41663988457658263
 30
0.0
 11
-0.09145693272976761
 21
-0.49156447131140674
 31
0.0
 40
0.4627417361330394
 41
3.141592653589793
 42
3.523878895048245
  0
ELLIPSE
  5
C9
330
17
100
AcDbEntity
  8
visible
100
AcDbEllipse
 10
16.864962507677618
 20
19.0556224021459
 30
0.0
 11
-0.5213045165596748
 21
-2.8019174864750185
 31
0.0
 40
0.4627417361330395
 41
0.3822862414584516
 42
6.665471548638038
  0
ELLIPSE
  5
CA
330
17
100
AcDbEntity
  8
visible
100
AcDbEllipse
 10
7.0583698528672585
 20
13.291280635485847
 30
0.0
 11
-0.5213045165596748
 21
-2.8019174864750185
 31
0.0
 40
0.4627417361330395
 41
0.3822862414584516
 42
6.665471548638038
  0
SPLINE
  5
CB
330
17
100
AcDbEntity
  8
visible
100
AcDbSpline
 70
0
 71
3
 72
14
 73
10
 74
0
 40
0.0
 40
0.0
 40
0.0
 40
0.0
 40
0.5291809980360088
 40
0.5291809980360088
 40
0.5291809980360088
 40
0.7183032872094037
 40
0.7183032872094037
 40
0.7183032872094037
 40
1.0
 40
1.0
 40
1.0
 40
1.0
 10
-15.639811053814967
 20
-37.5632735557325
 30
0.0
 10
-14.532030463550802
 20
-37.77106623768168
 30
0.0
 10
-13.188554156833696
 20
-37.8119099683294
 30
0.0
 10
-11.995564803708763
 20
-37.67657840130786
 30
0.0
 10
-11.566899710406972
 20
-37.62849854000952
 30
0.0
 10
-11.164864782007724
 20
-37.559781127741246
 30
0.0
 10
-10.789460018511036
 20
-37.470426164503046
 30
0.0
 10
-10.232932459486733
 20
-37.336980084828255
 30
0.0
 10
-9.75368588844188
 20
-37.162913270777956
 30
0.0
 10
-9.368245408401208
 20
-36.93697427224918
 30
0.0
  0
LINE
  5
CC
330
17
100
AcDbEntity
  8
visible
100
AcDbLine
 10
-15.639811053814967
 20
-37.5632735557325
 30
0.0
 11
-19.12595930368972
 21
-36.91466600864065
 31
0.0
  0
LINE
  5
CD
330
17
100
AcDbEntity
  8
visible
100
AcDbLine
 10
5.341643573814331
 20
-28.290461622259116
 30
0.0
 11
-9.3682454084012
 21
-36.93697427224919
 31
0.0
  0
SPLINE
  5
CE
330
17
100
AcDbEntity
  8
visible
100
AcDbSpline
 70
0
 71
3
 72
14
 73
10
 74
0
 40
0.0
 40
0.0
 40
0.0
 40
0.0
 40
0.3333333333333333
 40
0.3333333333333333
 40
0.3333333333333333
 40
0.6666666666666666
 40
0.6666666666666666
 40
0.6666666666666666
 40
1.0
 40
1.0
 40
1.0
 40
1.0
 10
-19.12595930368971
 20
-36.91466600864065
 30
0.0
 10
-19.697698679665148
 20
-36.80808740830172
 30
0.0
 10
-20.20718206699809
 20
-36.66069374122914
 30
0.0
 10
-20.62993079262416
 20
-36.4710336883741
 30
0.0
 10
-20.95125013277598
 20
-36.32622344810263
 30
0.0
 10
-21.225816280092292
 20
-36.157545208180984
 30
0.0
 10
-21.447074668129705
 20
-35.94539070629638
 30
0.0
 10
-21.72885136930245
 20
-35.67921462679885
 30
0.0
 10
-21.922331569888996
 20
-35.31164793085699
 30
0.0
 10
-21.92024375381191
 20
-34.91765108354378
 30
0.0
  0
SPLINE
  5
CF
330
17
100
AcDbEntity
  8
visible
100
AcDbSpline
 70
0
 71
3
 72
14
 73
10
 74
0
 40
0.0
 40
0.0
 40
0.0
 40
0.0
 40
0.5
 40
0.5
 40
0.5
 40
0.75
 40
0.75
 40
0.75
 40
1.0
 40
1.0
 40
1.0
 40
1.0
 10
6.275793478278359
 20
-26.919745980645565
 30
0.0
 10
6.275751008204323
 20
-27.000930089225648
 30
0.0
 10
6.268005645962569
 20
-27.081318541949713
 30
0.0
 10
6.252557391553097
 20
-27.160911338817726
 30
0.0
 10
6.205935827982721
 20
-27.40352338482376
 30
0.0
 10
6.088083034027196
 20
-27.62675953007044
 30
0.0
 10
5.929243331087195
 20
-27.81305599423922
 30
0.0
 10
5.768157596525881
 20
-27.9984251109644
 30
0.0
 10
5.572291010768258
 20
-28.157560320304377
 30
0.0
 10
5.3416435738143235
 20
-28.290461622259116
 30
0.0
  0
LINE
  5
D0
330
17
100
AcDbEntity
  8
visible
100
AcDbLine
 10
6.275793478278359
 20
-26.919745980645573
 30
0.0
 11
6.275793478278359
 21
-20.879835452091605
 31
0.0
  0
LINE
  5
D1
330
17
100
AcDbEntity
  8
visible
100
AcDbLine
 10
-21.920243753811913
 20
-34.91765108354379
 30
0.0
 11
-21.920243753811913
 21
-28.87774055498982
 31
0.0
  0
SPLINE
  5
D2
330
17
100
AcDbEntity
  8
visible
100
AcDbSpline
 70
0
 71
3
 72
14
 73
10
 74
0
 40
0.0
 40
0.0
 40
0.0
 40
0.0
 40
0.3333333333333333
 40
0.3333333333333333
 40
0.3333333333333333
 40
0.6666666666666666
 40
0.6666666666666666
 40
0.6666666666666666
 40
1.0
 40
1.0
 40
1.0
 40
1.0
 10
3.4815090281561676
 20
-18.882820526994742
 30
0.0
 10
4.05324840413161
 20
-18.9893991273336
 30
0.0
 10
4.562731791464537
 20
-19.136792794406283
 30
0.0
 10
4.985480517090615
 20
-19.326452847261287
 30
0.0
 10
5.306799857242443
 20
-19.471263087532737
 30
0.0
 10
5.581366004558747
 20
-19.639941327454423
 30
0.0
 10
5.802624392596158
 20
-19.852095829339007
 30
0.0
 10
6.084401093768913
 20
-20.118271908836498
 30
0.0
 10
6.27788129435546
 20
-20.48583860477842
 30
0.0
 10
6.275793478278359
 20
-20.879835452091605
 30
0.0
  0
SPLINE
  5
D3
330
17
100
AcDbEntity
  8
visible
100
AcDbSpline
 70
0
 71
2
 72
6
 73
3
 74
0
 40
0.0
 40
0.0
 40
0.0
 40
1.0
 40
1.0
 40
1.0
 10
-0.2981441958978932
 20
-17.613103204250237
 30
0.0
 10
-0.5029485588998144
 20
-18.428608660844258
 30
0.0
 10
-0.741637946743225
 20
-19.223345650599335
 30
0.0
  0
SPLINE
  5
D4
330
17
100
AcDbEntity
  8
visible
100
AcDbSpline
 70
0
 71
2
 72
6
 73
3
 74
0
 40
0.0
 40
0.0
 40
0.0
 40
1.0
 40
1.0
 40
1.0
 10
-0.44070626469957885
 20
-18.162922439208195
 30
0.0
 10
-0.21769548309828865
 20
-18.194585388627416
 30
0.0
 10
-0.004639221718576891
 20
-18.234212979902892
 30
0.0
  0
LINE
  5
D5
330
17
100
AcDbEntity
  8
visible
100
AcDbLine
 10
-0.004639221718576891
 20
-18.234212979902892
 30
0.0
 11
3.4815090281561734
 21
-18.88282052699474
 31
0.0
  0
SPLINE
  5
D6
330
17
100
AcDbEntity
  8
visible
100
AcDbSpline
 70
0
 71
3
 72
8
 73
4
 74
0
 40
0.0
 40
0.0
 40
0.0
 40
0.0
 40
1.0
 40
1.0
 40
1.0
 40
1.0
 10
-21.695723461831506
 20
-28.147583180288123
 30
0.0
 10
-21.83689820554214
 20
-28.362094519526718
 30
0.0
 10
-21.921062965450556
 20
-28.61780550871957
 30
0.0
 10
-21.92024375381191
 20
-28.877740554989828
 30
0.0
  0
SPLINE
  5
D7
330
17
100
AcDbEntity
  8
visible
100
AcDbSpline
 70
0
 71
3
 72
8
 73
4
 74
0
 40
0.0
 40
0.0
 40
0.0
 40
0.0
 40
1.0
 40
1.0
 40
1.0
 40
1.0
 10
-21.702780200833104
 20
-28.15849954855117
 30
0.0
 10
-22.841727575945384
 20
-25.8722338943347
 30
0.0
 10
-23.441987239391104
 20
-22.676130671729254
 30
0.0
 10
-23.440083873690575
 20
-19.120491782598513
 30
0.0
  0
SPLINE
  5
D8
330
17
100
AcDbEntity
  8
visible
100
AcDbSpline
 70
0
 71
3
 72
8
 73
4
 74
0
 40
0.0
 40
0.0
 40
0.0
 40
0.0
 40
1.0
 40
1.0
 40
1.0
 40
1.0
 10
-12.650490092759068
 20
34.58306840553013
 30
0.0
 10
-11.4443403363073
 20
35.29577955822093
 30
0.0
 10
-10.164068694975441
 20
35.585154167179866
 30
0.0
 10
-8.952646081319969
 20
35.35745211008488
 30
0.0
  0
LINE
  5
D9
330
17
100
AcDbEntity
  8
visible
100
AcDbLine
 10
-14.611808623721135
 20
33.430200052198145
 30
0.0
 11
-12.650490092759064
 21
34.583068405530156
 31
0.0
  0
SPLINE
  5
DA
330
17
100
AcDbEntity
  8
visible
100
AcDbSpline
 70
0
 71
3
 72
17
 73
13
 74
0
 40
0.0
 40
0.0
 40
0.0
 40
0.0
 40
0.23912691363313135
 40
0.23912691363313135
 40
0.23912691363313135
 40
0.5248974171998904
 40
0.5248974171998904
 40
0.5248974171998904
 40
0.8548469243282263
 40
0.8548469243282263
 40
0.8548469243282263
 40
1.0
 40
1.0
 40
1.0
 40
1.0
 10
-23.440083873690575
 20
11.550928870214591
 30
0.0
 10
-23.440546258056553
 20
13.641222207146932
 30
0.0
 10
-23.233815149523156
 20
15.84687355290915
 30
0.0
 10
-22.834526166020975
 20
18.019915698629582
 30
0.0
 10
-22.358671995451516
 20
20.617279080361545
 30
0.0
 10
-21.607088959461553
 20
23.16400420395845
 30
0.0
 10
-20.649646419357968
 20
25.417921049594547
 30
0.0
 10
-19.544827654756112
 20
28.023832742077868
 30
0.0
 10
-18.170922485470953
 20
30.231124179192047
 30
0.0
 10
-16.666777107581986
 20
31.777698311937485
 30
0.0
 10
-16.003404659551776
 20
32.461987817754384
 30
0.0
 10
-15.318415164931485
 20
33.01282173117462
 30
0.0
 10
-14.611808623721135
 20
33.43020005219814
 30
0.0
  0
LINE
  5
DB
330
17
100
AcDbEntity
  8
visible
100
AcDbLine
 10
-23.440083873690575
 20
-19.120491782598513
 30
0.0
 11
-23.440083873690575
 21
11.550928870214598
 31
0.0
  0
SPLINE
  5
DC
330
17
100
AcDbEntity
  8
visible
100
AcDbSpline
 70
0
 71
3
 72
8
 73
4
 74
0
 40
0.0
 40
0.0
 40
0.0
 40
0.0
 40
1.0
 40
1.0
 40
1.0
 40
1.0
 10
0.8233370984075279
 20
-8.766423892412263
 30
0.0
 10
0.8233834330108295
 20
-9.945872496275893
 30
0.0
 10
0.7580430684076683
 20
-11.161817468065111
 30
0.0
 10
0.6289286582122173
 20
-12.388095908824795
 30
0.0
  0
LINE
  5
DD
330
17
100
AcDbEntity
  8
visible
100
AcDbLine
 10
2.7122822903277637
 20
-15.188656740084726
 30
0.0
 11
2.7122822903277637
 21
-11.413712659738497
 31
0.0
  0
LINE
  5
DE
330
17
100
AcDbEntity
  8
visible
100
AcDbLine
 10
2.4014223422917667
 20
-15.700781256700637
 30
0.0
 11
0.1281856528155334
 21
-17.036995949805505
 31
0.0
  0
SPLINE
  5
DF
330
17
100
AcDbEntity
  8
visible
100
AcDbSpline
 70
0
 71
3
 72
14
 73
10
 74
0
 40
0.0
 40
0.0
 40
0.0
 40
0.0
 40
0.20338969213765964
 40
0.20338969213765964
 40
0.20338969213765964
 40
0.34278194520475264
 40
0.34278194520475264
 40
0.34278194520475264
 40
0.8194283259691834
 40
0.8194283259691834
 40
0.8194283259691834
 40
0.8194283259691834
 10
-5.117883006457737
 20
34.64398380828385
 30
0.0
 10
-4.364051146403466
 20
34.50444036864295
 30
0.0
 10
-3.650496920675223
 20
34.168357227546466
 30
0.0
 10
-3.0149960781268623
 20
33.667510631487545
 30
0.0
 10
-2.578492418103944
 20
33.322886860951186
 30
0.0
 10
-2.1777310350648116
 20
32.90665561631165
 30
0.0
 10
-1.81271192900947
 20
32.41881689756894
 30
0.0
 10
-0.5663158445759094
 20
30.75839622014022
 30
0.0
 10
0.26058092754056456
 20
28.302599800156454
 30
0.0
 10
0.6192298497332845
 20
25.38395787062347
 30
0.0
  0
LINE
  5
E0
330
17
100
AcDbEntity
  8
visible
100
AcDbLine
 10
0.8233370984075279
 20
18.734439417445945
 30
0.0
 11
0.8233370984075279
 21
17.75709763266635
 31
0.0
  0
LINE
  5
E1
330
17
100
AcDbEntity
  8
visible
100
AcDbLine
 10
0.8233370984075279
 20
11.145553898983618
 30
0.0
 11
0.8233370984075279
 21
-1.401830085381519
 31
0.0
  0
LINE
  5
E2
330
17
100
AcDbEntity
  8
visible
100
AcDbLine
 10
2.7122822903277637
 20
-4.335692509089315
 30
0.0
 11
2.7122822903277637
 21
-0.5607484287430857
 31
0.0
  0
LINE
  5
E3
330
17
100
AcDbEntity
  8
visible
100
AcDbLine
 10
2.4014223422917667
 20
-4.84781702570524
 30
0.0
 11
0.8233370984075279
 21
-5.775419813224891
 31
0.0
  0
LINE
  5
E4
330
17
100
AcDbEntity
  8
visible
100
AcDbLine
 10
0.8233370984075279
 20
-5.749921478490865
 30
0.0
 11
0.8233370984075279
 21
-8.766423892412263
 31
0.0
  0
LINE
  5
E5
330
17
100
AcDbEntity
  8
visible
100
AcDbLine
 10
-4.384935935573773
 20
-17.57411973827807
 30
0.0
 11
-1.5088636294271
 21
-18.109220964628847
 31
0.0
  0
LINE
  5
E6
330
17
100
AcDbEntity
  8
visible
100
AcDbLine
 10
-3.1959958100868002
 20
-11.18378161122979
 30
0.0
 11
-0.3199235039401276
 21
-11.718882837580564
 31
0.0
  0
LINE
  5
E7
330
17
100
AcDbEntity
  8
visible
100
AcDbLine
 10
-4.384935935573773
 20
19.703453055140955
 30
0.0
 11
15.921877619946649
 21
15.92531409333095
 31
0.0
  0
LINE
  5
E8
330
17
100
AcDbEntity
  8
visible
100
AcDbLine
 10
-3.1959958100868002
 20
26.093791182189236
 30
0.0
 11
17.11081774543362
 21
22.31565222037923
 31
0.0
  0
LINE
  5
E9
330
17
100
AcDbEntity
  8
visible
100
AcDbLine
 10
-14.191528590384129
 20
-23.338461504938117
 30
0.0
 11
-11.315456284237456
 21
-23.873562731288892
 31
0.0
  0
LINE
  5
EA
330
17
100
AcDbEntity
  8
visible
100
AcDbLine
 10
-13.00258846489715
 20
-16.94812337788983
 30
0.0
 11
-10.126516158750476
 21
-17.483224604240604
 31
0.0
  0
LINE
  5
EB
330
17
100
AcDbEntity
  8
visible
100
AcDbLine
 10
-14.191528590384129
 20
13.939111288480916
 30
0.0
 11
6.1152849651362935
 21
10.160972326670912
 31
0.0
  0
LINE
  5
EC
330
17
100
AcDbEntity
  8
visible
100
AcDbLine
 10
-13.00258846489715
 20
20.329449415529197
 30
0.0
 11
7.304225090623273
 21
16.551310453719193
 31
0.0
  0
LINE
  5
ED
330
17
100
AcDbEntity
  8
visible
100
AcDbLine
 10
-5.117883006457742
 20
34.64398380828385
 30
0.0
 11
-8.952646081319969
 21
35.357452110084886
 31
0.0
  0
SPLINE
  5
EE
330
17
100
AcDbEntity
  8
visible
100
AcDbSpline
 70
0
 71
3
 72
14
 73
10
 74
0
 40
0.0
 40
0.0
 40
0.0
 40
0.0
 40
0.43458053485206655
 40
0.43458053485206655
 40
0.43458053485206655
 40
0.7827097325739666
 40
0.7827097325739666
 40
0.7827097325739666
 40
1.0
 40
1.0
 40
1.0
 40
1.0
 10
2.048904039427782
 20
-10.778039644260573
 30
0.0
 10
2.18533107148275
 20
-10.803705834460471
 30
0.0
 10
2.308695324462319
 20
-10.844509729356492
 30
0.0
 10
2.4142059483466976
 20
-10.90926945457059
 30
0.0
 10
2.4778037057159823
 20
-10.948002150564257
 30
0.0
 10
2.533014789879541
 20
-10.995377457813731
 30
0.0
 10
2.5798392008373696
 20
-11.051395376318993
 30
0.0
 10
2.6651808299233446
 20
-11.153901899960713
 30
0.0
 10
2.712643006432556
 20
-11.283436984972417
 30
0.0
 10
2.7122822903277637
 20
-11.413712659738493
 30
0.0
  0
SPLINE
  5
EF
330
17
100
AcDbEntity
  8
visible
100
AcDbSpline
 70
0
 71
3
 72
11
 73
7
 74
0
 40
0.0
 40
0.0
 40
0.0
 40
0.0
 40
0.5
 40
0.5
 40
0.5
 40
1.0
 40
1.0
 40
1.0
 40
1.0
 10
2.7122822903277637
 20
-15.188656740084724
 30
0.0
 10
2.7126388019868393
 20
-15.318562984368949
 30
0.0
 10
2.6654540788944345
 20
-15.447739113715176
 30
0.0
 10
2.5805578763279513
 20
-15.550103543635856
 30
0.0
 10
2.530323715897299
 20
-15.61030366669351
 30
0.0
 10
2.4706118712185696
 20
-15.66052957104845
 30
0.0
 10
2.4014223422917667
 20
-15.700781256700637
 30
0.0
  0
SPLINE
  5
F0
330
17
100
AcDbEntity
  8
visible
100
AcDbSpline
 70
0
 71
3
 72
14
 73
10
 74
0
 40
0.0
 40
0.0
 40
0.0
 40
0.0
 40
0.43458053485206655
 40
0.43458053485206655
 40
0.43458053485206655
 40
0.7827097325739666
 40
0.7827097325739666
 40
0.7827097325739666
 40
1.0
 40
1.0
 40
1.0
 40
1.0
 10
2.048904039427782
 20
0.07492458673483782
 30
0.0
 10
2.18533107148275
 20
0.04925839653494286
 30
0.0
 10
2.308695324462319
 20
0.008454501638916628
 30
0.0
 10
2.4142059483466976
 20
-0.05630522357517976
 30
0.0
 10
2.4778037057159823
 20
-0.09503791956884981
 30
0.0
 10
2.533014789879541
 20
-0.14241322681832208
 30
0.0
 10
2.5798392008373696
 20
-0.19843114532359607
 30
0.0
 10
2.6651808299233446
 20
-0.3009376689653075
 30
0.0
 10
2.712643006432556
 20
-0.430472753977004
 30
0.0
 10
2.7122822903277637
 20
-0.5607484287430822
 30
0.0
  0
SPLINE
  5
F1
330
17
100
AcDbEntity
  8
visible
100
AcDbSpline
 70
0
 71
3
 72
11
 73
7
 74
0
 40
0.0
 40
0.0
 40
0.0
 40
0.0
 40
0.5
 40
0.5
 40
0.5
 40
1.0
 40
1.0
 40
1.0
 40
1.0
 10
2.7122822903277637
 20
-4.335692509089313
 30
0.0
 10
2.7126388019868393
 20
-4.46559875337355
 30
0.0
 10
2.6654540788944345
 20
-4.594774882719761
 30
0.0
 10
2.5805578763279513
 20
-4.697139312640445
 30
0.0
 10
2.530323715897299
 20
-4.757339435698105
 30
0.0
 10
2.4706118712185696
 20
-4.807565340053039
 30
0.0
 10
2.4014223422917667
 20
-4.84781702570524
 30
0.0
  0
SPLINE
  5
F2
330
17
100
AcDbEntity
  8
visible
100
AcDbSpline
 70
0
 71
3
 72
26
 73
22
 74
0
 40
0.0
 40
0.0
 40
0.0
 40
0.0
 40
0.12553895931166018
 40
0.12553895931166018
 40
0.12553895931166018
 40
0.4105994926815997
 40
0.4105994926815997
 40
0.4105994926815997
 40
0.5361384519932598
 40
0.5361384519932598
 40
0.5361384519932598
 40
0.66167741130492
 40
0.66167741130492
 40
0.66167741130492
 40
0.7872163706165801
 40
0.7872163706165801
 40
0.7872163706165801
 40
0.8744610406883397
 40
0.8744610406883397
 40
0.8744610406883397
 40
1.0
 40
1.0
 40
1.0
 40
1.0
 10
-0.7116963500998779
 20
-17.94853841693493
 30
0.0
 10
-0.6262287149822203
 20
-17.89821208606332
 30
0.0
 10
-0.5428802136644961
 20
-17.83825641866713
 30
0.0
 10
-0.4616508461467068
 20
-17.768671414746322
 30
0.0
 10
-0.2766841574616593
 20
-17.609450398683762
 30
0.0
 10
-0.10557095629304215
 20
-17.407046494803616
 30
0.0
 10
0.05168875735914463
 20
-17.16145970310587
 30
0.0
 10
0.3809590338515055
 20
-16.649973212624815
 30
0.0
 10
0.6380060290647257
 20
-15.961357099470243
 30
0.0
 10
0.7726178064059184
 20
-15.243423012575278
 30
0.0
 10
0.911717465681056
 20
-14.509304230059023
 30
0.0
 10
0.9204954251329043
 20
-13.755370250286543
 30
0.0
 10
0.7920339645959089
 20
-13.148579392882667
 30
0.0
 10
0.7289339913317381
 20
-12.846536471104278
 30
0.0
 10
0.6338497734637236
 20
-12.584765013751223
 30
0.0
 10
0.5067813109918686
 20
-12.363265020823548
 30
0.0
 10
0.41838321087561325
 20
-12.209951004791513
 30
0.0
 10
0.3150328708041604
 20
-12.081025480450041
 30
0.0
 10
0.1967302907775093
 20
-11.97648844779913
 30
0.0
 10
0.042331562817995036
 20
-11.840970168245912
 30
0.0
 10
-0.1298863687545469
 20
-11.755101631506392
 30
0.0
 10
-0.31992350394011737
 20
-11.718882837580566
 30
0.0
  0
SPLINE
  5
F3
330
17
100
AcDbEntity
  8
visible
100
AcDbSpline
 70
0
 71
3
 72
8
 73
4
 74
0
 40
0.0
 40
0.0
 40
0.0
 40
0.0
 40
1.0
 40
1.0
 40
1.0
 40
1.0
 10
-1.508863629427097
 20
-18.109220964628847
 30
0.0
 10
-1.246543985807604
 20
-18.15861309276662
 30
0.0
 10
-0.9682745267213193
 20
-18.100317357272964
 30
0.0
 10
-0.7116963500998779
 20
-17.94853841693493
 30
0.0
  0
SPLINE
  5
F4
330
17
100
AcDbEntity
  8
visible
100
AcDbSpline
 70
0
 71
3
 72
26
 73
22
 74
0
 40
0.0
 40
0.0
 40
0.0
 40
0.0
 40
0.12553895931166018
 40
0.12553895931166018
 40
0.12553895931166018
 40
0.4105994926815997
 40
0.4105994926815997
 40
0.4105994926815997
 40
0.5361384519932598
 40
0.5361384519932598
 40
0.5361384519932598
 40
0.66167741130492
 40
0.66167741130492
 40
0.66167741130492
 40
0.7872163706165801
 40
0.7872163706165801
 40
0.7872163706165801
 40
0.8744610406883397
 40
0.8744610406883397
 40
0.8744610406883397
 40
1.0
 40
1.0
 40
1.0
 40
1.0
 10
16.719044899273875
 20
16.08599664102485
 30
0.0
 10
16.804512534391524
 20
16.136322971896433
 30
0.0
 10
16.887861035709253
 20
16.196278639292643
 30
0.0
 10
16.969090403227042
 20
16.265863643213457
 30
0.0
 10
17.154057091912094
 20
16.425084659276003
 30
0.0
 10
17.325170293080713
 20
16.62748856315617
 30
0.0
 10
17.48243000673289
 20
16.87307535485391
 30
0.0
 10
17.811700283225264
 20
17.384561845334964
 30
0.0
 10
18.068747278438476
 20
18.073177958489534
 30
0.0
 10
18.20335905577967
 20
18.791112045384494
 30
0.0
 10
18.34245871505482
 20
19.52523082790078
 30
0.0
 10
18.35123667450665
 20
20.279164807673215
 30
0.0
 10
18.22277521396966
 20
20.88595566507712
 30
0.0
 10
18.159675240705504
 20
21.187998586855528
 30
0.0
 10
18.064591022837465
 20
21.44977004420854
 30
0.0
 10
17.937522560365622
 20
21.67127003713623
 30
0.0
 10
17.849124460249353
 20
21.824584053168266
 30
0.0
 10
17.74577412017792
 20
21.953509577509735
 30
0.0
 10
17.627471540151266
 20
22.058046610160645
 30
0.0
 10
17.47307281219173
 20
22.19356488971385
 30
0.0
 10
17.300854880619205
 20
22.279433426453384
 30
0.0
 10
17.110817745433636
 20
22.315652220379235
 30
0.0
  0
SPLINE
  5
F5
330
17
100
AcDbEntity
  8
visible
100
AcDbSpline
 70
0
 71
3
 72
8
 73
4
 74
0
 40
0.0
 40
0.0
 40
0.0
 40
0.0
 40
1.0
 40
1.0
 40
1.0
 40
1.0
 10
15.921877619946656
 20
15.92531409333094
 30
0.0
 10
16.184197263566137
 20
15.87592196519313
 30
0.0
 10
16.462466722652437
 20
15.934217700686823
 30
0.0
 10
16.719044899273875
 20
16.08599664102485
 30
0.0
  0
SPLINE
  5
F6
330
17
100
AcDbEntity
  8
visible
100
AcDbSpline
 70
0
 71
3
 72
23
 73
19
 74
0
 40
0.0
 40
0.0
 40
0.0
 40
0.0
 40
0.41059949268160056
 40
0.41059949268160056
 40
0.41059949268160056
 40
0.536138451993261
 40
0.536138451993261
 40
0.536138451993261
 40
0.6616774113049215
 40
0.6616774113049215
 40
0.6616774113049215
 40
0.787216370616582
 40
0.787216370616582
 40
0.787216370616582
 40
0.8744610406883396
 40
0.8744610406883396
 40
0.8744610406883396
 40
1.0
 40
1.0
 40
1.0
 40
1.0
 10
-10.518289004910233
 20
-23.712880183594976
 30
0.0
 10
-10.23893090608331
 20
-23.548725062678376
 30
0.0
 10
-9.980443142919116
 20
-23.27736823407723
 30
0.0
 10
-9.754903897451207
 20
-22.925801469765915
 30
0.0
 10
-9.425633620958859
 20
-22.414314979284875
 30
0.0
 10
-9.168586625745625
 20
-21.725698866130276
 30
0.0
 10
-9.033974848404437
 20
-21.00776477923533
 30
0.0
 10
-8.894875189129307
 20
-20.273645996719075
 30
0.0
 10
-8.886097229677445
 20
-19.519712016946592
 30
0.0
 10
-9.014558690214443
 20
-18.912921159542705
 30
0.0
 10
-9.077658663478616
 20
-18.61087823776431
 30
0.0
 10
-9.172742881346622
 20
-18.349106780411265
 30
0.0
 10
-9.299811343818487
 20
-18.1276067874836
 30
0.0
 10
-9.388209443934743
 20
-17.974292771451562
 30
0.0
 10
-9.491559784006192
 20
-17.845367247110094
 30
0.0
 10
-9.609862364032843
 20
-17.74083021445918
 30
0.0
 10
-9.764261091992356
 20
-17.605311934905963
 30
0.0
 10
-9.936479023564898
 20
-17.519443398166448
 30
0.0
 10
-10.126516158750473
 20
-17.483224604240604
 30
0.0
  0
SPLINE
  5
F7
330
17
100
AcDbEntity
  8
visible
100
AcDbSpline
 70
0
 71
3
 72
8
 73
4
 74
0
 40
0.0
 40
0.0
 40
0.0
 40
0.0
 40
1.0
 40
1.0
 40
1.0
 40
1.0
 10
-11.315456284237452
 20
-23.873562731288892
 30
0.0
 10
-11.053136640617955
 20
-23.92295485942667
 30
0.0
 10
-10.774867181531668
 20
-23.864659123933002
 30
0.0
 10
-10.518289004910233
 20
-23.712880183594976
 30
0.0
  0
SPLINE
  5
F8
330
17
100
AcDbEntity
  8
visible
100
AcDbSpline
 70
0
 71
3
 72
23
 73
19
 74
0
 40
0.0
 40
0.0
 40
0.0
 40
0.0
 40
0.41059949268160056
 40
0.41059949268160056
 40
0.41059949268160056
 40
0.536138451993261
 40
0.536138451993261
 40
0.536138451993261
 40
0.6616774113049215
 40
0.6616774113049215
 40
0.6616774113049215
 40
0.787216370616582
 40
0.787216370616582
 40
0.787216370616582
 40
0.8744610406883396
 40
0.8744610406883396
 40
0.8744610406883396
 40
1.0
 40
1.0
 40
1.0
 40
1.0
 10
6.912452244463516
 20
10.32165487436481
 30
0.0
 10
7.1918103432904354
 20
10.485809995281373
 30
0.0
 10
7.450298106454641
 20
10.757166823882555
 30
0.0
 10
7.675837351922539
 20
11.108733588193871
 30
0.0
 10
8.00510762841491
 20
11.620220078674912
 30
0.0
 10
8.262154623628126
 20
12.308836191829503
 30
0.0
 10
8.39676640096932
 20
13.026770278724442
 30
0.0
 10
8.535866060244459
 20
13.760889061240741
 30
0.0
 10
8.544644019696301
 20
14.514823041013166
 30
0.0
 10
8.41618255915931
 20
15.121613898417067
 30
0.0
 10
8.353082585895143
 20
15.423656820195463
 30
0.0
 10
8.257998368027122
 20
15.685428277548501
 30
0.0
 10
8.130929905555261
 20
15.9069282704762
 30
0.0
 10
8.042531805439008
 20
16.06024228650821
 30
0.0
 10
7.9391814653675645
 20
16.1891678108497
 30
0.0
 10
7.82087888534091
 20
16.293704843500592
 30
0.0
 10
7.666480157381395
 20
16.429223123053816
 30
0.0
 10
7.494262225808849
 20
16.51509165979335
 30
0.0
 10
7.304225090623277
 20
16.551310453719182
 30
0.0
  0
SPLINE
  5
F9
330
17
100
AcDbEntity
  8
visible
100
AcDbSpline
 70
0
 71
3
 72
8
 73
4
 74
0
 40
0.0
 40
0.0
 40
0.0
 40
0.0
 40
1.0
 40
1.0
 40
1.0
 40
1.0
 10
6.115284965136297
 20
10.160972326670901
 30
0.0
 10
6.377604608755786
 20
10.111580198533089
 30
0.0
 10
6.655874067842082
 20
10.16987593402678
 30
0.0
 10
6.912452244463516
 20
10.32165487436481
 30
0.0
  0
LINE
  5
FA
330
17
100
AcDbEntity
  8
visible
100
AcDbLine
 10
0.8233370984075279
 20
0.30294471394559164
 30
0.0
 11
2.0489040394277804
 21
0.07492458673483293
 31
0.0
  0
LINE
  5
FB
330
17
100
AcDbEntity
  8
visible
100
AcDbLine
 10
0.7755657611001148
 20
-10.541131527299708
 30
0.0
 11
2.0489040394277804
 21
-10.778039644260579
 31
0.0
  0
ENDSEC
  0
SECTION
  2
OBJECTS
  0
DICTIONARY
  5
A
330
0
100
AcDbDictionary
281
1
  3
ACAD_COLOR
350
B
  3
ACAD_GROUP
350
C
  3
ACAD_LAYOUT
350
D
  3
ACAD_MATERIAL
350
E
  3
ACAD_MLEADERSTYLE
350
F
  3
ACAD_MLINESTYLE
350
10
  3
ACAD_PLOTSETTINGS
350
11
  3
ACAD_PLOTSTYLENAME
350
12
  3
ACAD_SCALELIST
350
14
  3
ACAD_TABLESTYLE
350
15
  3
ACAD_VISUALSTYLE
350
16
  3
EZDXF_META
350
2D
  0
DICTIONARY
  5
B
330
A
100
AcDbDictionary
281
1
  0
DICTIONARY
  5
C
330
A
100
AcDbDictionary
281
1
  0
DICTIONARY
  5
D
330
A
100
AcDbDictionary
281
1
  3
Model
350
1A
  3
Layout1
350
1E
  0
DICTIONARY
  5
E
330
A
100
AcDbDictionary
281
1
  3
ByBlock
350
1F
  3
ByLayer
350
20
  3
Global
350
21
  0
DICTIONARY
  5
F
330
A
100
AcDbDictionary
281
1
  3
Standard
350
2C
  0
DICTIONARY
  5
10
330
A
100
AcDbDictionary
281
1
  3
Standard
350
22
  0
DICTIONARY
  5
11
330
A
100
AcDbDictionary
281
1
  0
ACDBDICTIONARYWDFLT
  5
12
330
A
100
AcDbDictionary
281
1
  3
Normal
350
13
100
AcDbDictionaryWithDefault
340
13
  0
ACDBPLACEHOLDER
  5
13
330
12
  0
DICTIONARY
  5
14
330
A
100
AcDbDictionary
281
1
  0
DICTIONARY
  5
15
330
A
100
AcDbDictionary
281
1
  0
DICTIONARY
  5
16
330
A
100
AcDbDictionary
281
1
  0
LAYOUT
  5
1A
330
D
100
AcDbPlotSettings
  1

  4
A3
  6

 40
7.5
 41
20.0
 42
7.5
 43
20.0
 44
420.0
 45
297.0
 46
0.0
 47
0.0
 48
0.0
 49
0.0
140
0.0
141
0.0
142
1.0
143
1.0
 70
1024
 72
1
 73
0
 74
5
  7

 75
16
 76
0
 77
2
 78
300
147
1.0
148
0.0
149
0.0
100
AcDbLayout
  1
Model
 70
1
 71
0
 10
0.0
 20
0.0
 11
420.0
 21
297.0
 12
0.0
 22
0.0
 32
0.0
 14
1e+20
 24
1e+20
 34
1e+20
 15
-1e+20
 25
-1e+20
 35
-1e+20
146
0.0
 13
0.0
 23
0.0
 33
0.0
 16
1.0
 26
0.0
 36
0.0
 17
0.0
 27
1.0
 37
0.0
 76
1
330
17
  0
LAYOUT
  5
1E
330
D
100
AcDbPlotSettings
  1

  4
A3
  6

 40
7.5
 41
20.0
 42
7.5
 43
20.0
 44
420.0
 45
297.0
 46
0.0
 47
0.0
 48
0.0
 49
0.0
140
0.0
141
0.0
142
1.0
143
1.0
 70
0
 72
1
 73
0
 74
5
  7

 75
16
 76
0
 77
2
 78
300
147
1.0
148
0.0
149
0.0
100
AcDbLayout
  1
Layout1
 70
1
 71
1
 10
0.0
 20
0.0
 11
420.0
 21
297.0
 12
0.0
 22
0.0
 32
0.0
 14
1e+20
 24
1e+20
 34
1e+20
 15
-1e+20
 25
-1e+20
 35
-1e+20
146
0.0
 13
0.0
 23
0.0
 33
0.0
 16
1.0
 26
0.0
 36
0.0
 17
0.0
 27
1.0
 37
0.0
 76
1
330
1B
  0
MATERIAL
  5
1F
102
{ACAD_REACTORS
330
E
102
}
330
E
100
AcDbMaterial
  1
ByBlock
  2

 70
0
 40
1.0
 71
1
 41
1.0
 91
-1023410177
 42
1.0
 72
1
  3

 73
1
 74
1
 75
1
 44
0.5
 73
0
 45
1.0
 46
1.0
 77
1
  4

 78
1
 79
1
170
1
 48
1.0
171
1
  6

172
1
173
1
174
1
140
1.0
141
1.0
175
1
  7

176
1
177
1
178
1
143
1.0
179
1
  8

270
1
271
1
272
1
145
1.0
146
1.0
273
1
  9

274
1
275
1
276
1
 42
1.0
 72
1
  3

 73
1
 74
1
 75
1
 94
63
  0
MATERIAL
  5
20
102
{ACAD_REACTORS
330
E
102
}
330
E
100
AcDbMaterial
  1
ByLayer
  2

 70
0
 40
1.0
 71
1
 41
1.0
 91
-1023410177
 42
1.0
 72
1
  3

 73
1
 74
1
 75
1
 44
0.5
 73
0
 45
1.0
 46
1.0
 77
1
  4

 78
1
 79
1
170
1
 48
1.0
171
1
  6

172
1
173
1
174
1
140
1.0
141
1.0
175
1
  7

176
1
177
1
178
1
143
1.0
179
1
  8

270
1
271
1
272
1
145
1.0
146
1.0
273
1
  9

274
1
275
1
276
1
 42
1.0
 72
1
  3

 73
1
 74
1
 75
1
 94
63
  0
MATERIAL
  5
21
102
{ACAD_REACTORS
330
E
102
}
330
E
100
AcDbMaterial
  1
Global
  2

 70
0
 40
1.0
 71
1
 41
1.0
 91
-1023410177
 42
1.0
 72
1
  3

 73
1
 74
1
 75
1
 44
0.5
 73
0
 45
1.0
 46
1.0
 77
1
  4

 78
1
 79
1
170
1
 48
1.0
171
1
  6

172
1
173
1
174
1
140
1.0
141
1.0
175
1
  7

176
1
177
1
178
1
143
1.0
179
1
  8

270
1
271
1
272
1
145
1.0
146
1.0
273
1
  9

274
1
275
1
276
1
 42
1.0
 72
1
  3

 73
1
 74
1
 75
1
 94
63
  0
MLINESTYLE
  5
22
102
{ACAD_REACTORS
330
10
102
}
330
10
100
AcDbMlineStyle
  2
Standard
 70
0
  3

 62
256
 51
90.0
 52
90.0
 71
2
 49
0.5
 62
256
  6
BYLAYER
 49
-0.5
 62
256
  6
BYLAYER
  0
MLEADERSTYLE
  5
2C
102
{ACAD_REACTORS
330
F
102
}
330
F
100
AcDbMLeaderStyle
179
2
170
2
171
1
172
0
 90
2
 40
0.0
 41
0.0
173
1
 91
-1056964608
 92
-2
290
1
 42
2.0
291
1
 43
8.0
  3
Standard
 44
4.0
300

342
29
174
1
175
1
176
0
178
1
 93
-1056964608
 45
4.0
292
0
297
0
 46
4.0
 94
-1056964608
 47
1.0
 49
1.0
140
1.0
294
1
141
0.0
177
0
142
1.0
295
0
296
0
143
3.75
271
0
272
9
273
9
  0
DICTIONARY
  5
2D
330
A
100
AcDbDictionary
280
1
281
1
  3
CREATED_BY_EZDXF
350
2E
  3
WRITTEN_BY_EZDXF
350
FF
  0
DICTIONARYVAR
  5
2E
330
2D
100
DictionaryVariables
280
0
  1
1.4.4 @ 2026-10-03T14:54:11.755654+00:00
  0
DICTIONARYVAR
  5
FF
330
2D
100
DictionaryVariables
280
0
  1
1.4.4 @ 2026-10-03T14:54:11.798513+00:00
  0
ENDSEC
  0
EOF
