  0
SECTION
  2
HEADER
  9
$ACADVER
  1
AC1027
  9
$ACADMAINTVER
 70
105
  9
$DWGCODEPAGE
  3
ANSI_1252
  9
$LASTSAVEDBY
  1
ezdxf
  9
$REQUIREDVERSIONS
160
0
  9
$INSBASE
 10
0.0
 20
0.0
 30
0.0
  9
$EXTMIN
 10
1e+20
 20
1e+20
 30
1e+20
  9
$EXTMAX
 10
-1e+20
 20
-1e+20
 30
-1e+20
  9
$LIMMIN
 10
0.0
 20
0.0
  9
$LIMMAX
 10
420.0
 20
297.0
  9
$ORTHOMODE
 70
0
  9
$REGENMODE
 70
1
  9
$FILLMODE
 70
1
  9
$QTEXTMODE
 70
0
  9
$MIRRTEXT
 70
1
  9
$LTSCALE
 40
1.0
  9
$ATTMODE
 70
1
  9
$TEXTSIZE
 40
2.5
  9
$TRACEWID
 40
1.0
  9
$TEXTSTYLE
  7
Standard
  9
$CLAYER
  8
0
  9
$CELTYPE
  6
ByLayer
  9
$CECOLOR
 62
256
  9
$CELTSCALE
 40
1.0
  9
$DISPSILH
 70
0
  9
$DIMSCALE
 40
1.0
  9
$DIMASZ
 40
2.5
  9
$DIMEXO
 40
0.625
  9
$DIMDLI
 40
3.75
  9
$DIMRND
 40
0.0
  9
$DIMDLE
 40
0.0
  9
$DIMEXE
 40
1.25
  9
$DIMTP
 40
0.0
  9
$DIMTM
 40
0.0
  9
$DIMTXT
 40
2.5
  9
$DIMCEN
 40
2.5
  9
$DIMTSZ
 40
0.0
  9
$DIMTOL
 70
0
  9
$DIMLIM
 70
0
  9
$DIMTIH
 70
0
  9
$DIMTOH
 70
0
  9
$DIMSE1
 70
0
  9
$DIMSE2
 70
0
  9
$DIMTAD
 70
1
  9
$DIMZIN
 70
8
  9
$DIMBLK
  1

  9
$DIMASO
 70
1
  9
$DIMSHO
 70
1
  9
$DIMPOST
  1

  9
$DIMAPOST
  1

  9
$DIMALT
 70
0
  9
$DIMALTD
 70
3
  9
$DIMALTF
 40
0.03937007874
  9
$DIMLFAC
 40
1.0
  9
$DIMTOFL
 70
1
  9
$DIMTVP
 40
0.0
  9
$DIMTIX
 70
0
  9
$DIMSOXD
 70
0
  9
$DIMSAH
 70
0
  9
$DIMBLK1
  1

  9
$DIMBLK2
  1

  9
$DIMSTYLE
  2
ISO-25
  9
$DIMCLRD
 70
0
  9
$DIMCLRE
 70
0
  9
$DIMCLRT
 70
0
  9
$DIMTFAC
 40
1.0
  9
$DIMGAP
 40
0.625
  9
$DIMJUST
 70
0
  9
$DIMSD1
 70
0
  9
$DIMSD2
 70
0
  9
$DIMTOLJ
 70
0
  9
$DIMTZIN
 70
8
  9
$DIMALTZ
 70
0
  9
$DIMALTTZ
 70
0
  9
$DIMUPT
 70
0
  9
$DIMDEC
 70
2
  9
$DIMTDEC
 70
2
  9
$DIMALTU
 70
2
  9
$DIMALTTD
 70
3
  9
$DIMTXSTY
  7
Standard
  9
$DIMAUNIT
 70
0
  9
$DIMADEC
 70
0
  9
$DIMALTRND
 40
0.0
  9
$DIMAZIN
 70
0
  9
$DIMDSEP
 70
44
  9
$DIMATFIT
 70
3
  9
$DIMFRAC
 70
0
  9
$DIMLDRBLK
  1

  9
$DIMLUNIT
 70
2
  9
$DIMLWD
 70
-2
  9
$DIMLWE
 70
-2
  9
$DIMTMOVE
 70
0
  9
$DIMFXL
 40
1.0
  9
$DIMFXLON
 70
0
  9
$DIMJOGANG
 40
0.785398163397
  9
$DIMTFILL
 70
0
  9
$DIMTFILLCLR
 70
0
  9
$DIMARCSYM
 70
0
  9
$DIMLTYPE
  6

  9
$DIMLTEX1
  6

  9
$DIMLTEX2
  6

  9
$DIMTXTDIRECTION
 70
0
  9
$LUNITS
 70
2
  9
$LUPREC
 70
4
  9
$SKETCHINC
 40
1.0
  9
$FILLETRAD
 40
10.0
  9
$AUNITS
 70
0
  9
$AUPREC
 70
2
  9
$MENU
  1
.
  9
$ELEVATION
 40
0.0
  9
$PELEVATION
 40
0.0
  9
$THICKNESS
 40
0.0
  9
$LIMCHECK
 70
0
  9
$CHAMFERA
 40
0.0
  9
$CHAMFERB
 40
0.0
  9
$CHAMFERC
 40
0.0
  9
$CHAMFERD
 40
0.0
  9
$SKPOLY
 70
0
  9
$TDCREATE
 40
2461316.86775463
  9
$TDUCREATE
 40
2458532.153996898
  9
$TDUPDATE
 40
2461316.86775463
  9
$TDUUPDATE
 40
2458532.1544311
  9
$TDINDWG
 40
0.0
  9
$TDUSRTIMER
 40
0.0
  9
$USRTIMER
 70
1
  9
$ANGBASE
 50
0.0
  9
$ANGDIR
 70
0
  9
$PDMODE
 70
0
  9
$PDSIZE
 40
0.0
  9
$PLINEWID
 40
0.0
  9
$SPLFRAME
 70
0
  9
$SPLINETYPE
 70
6
  9
$SPLINESEGS
 70
8
  9
$HANDSEED
  5
FF
  9
$SURFTAB1
 70
6
  9
$SURFTAB2
 70
6
  9
$SURFTYPE
 70
6
  9
$SURFU
 70
6
  9
$SURFV
 70
6
  9
$UCSBASE
  2

  9
$UCSNAME
  2

  9
$UCSORG
 10
0.0
 20
0.0
 30
0.0
  9
$UCSXDIR
 10
1.0
 20
0.0
 30
0.0
  9
$UCSYDIR
 10
0.0
 20
1.0
 30
0.0
  9
$UCSORTHOREF
  2

  9
$UCSORTHOVIEW
 70
0
  9
$UCSORGTOP
 10
0.0
 20
0.0
 30
0.0
  9
$UCSORGBOTTOM
 10
0.0
 20
0.0
 30
0.0
  9
$UCSORGLEFT
 10
0.0
 20
0.0
 30
0.0
  9
$UCSORGRIGHT
 10
0.0
 20
0.0
 30
0.0
  9
$UCSORGFRONT
 10
0.0
 20
0.0
 30
0.0
  9
$UCSORGBACK
 10
0.0
 20
0.0
 30
0.0
  9
$PUCSBASE
  2

  9
$PUCSNAME
  2

  9
$PUCSORG
 10
0.0
 20
0.0
 30
0.0
  9
$PUCSXDIR
 10
1.0
 20
0.0
 30
0.0
  9
$PUCSYDIR
 10
0.0
 20
1.0
 30
0.0
  9
$PUCSORTHOREF
  2

  9
$PUCSORTHOVIEW
 70
0
  9
$PUCSORGTOP
 10
0.0
 20
0.0
 30
0.0
  9
$PUCSORGBOTTOM
 10
0.0
 20
0.0
 30
0.0
  9
$PUCSORGLEFT
 10
0.0
 20
0.0
 30
0.0
  9
$PUCSORGRIGHT
 10
0.0
 20
0.0
 30
0.0
  9
$PUCSORGFRONT
 10
0.0
 20
0.0
 30
0.0
  9
$PUCSORGBACK
 10
0.0
 20
0.0
 30
0.0
  9
$USERI1
 70
0
  9
$USERI2
 70
0
  9
$USERI3
 70
0
  9
$USERI4
 70
0
  9
$USERI5
 70
0
  9
$USERR1
 40
0.0
  9
$USERR2
 40
0.0
  9
$USERR3
 40
0.0
  9
$USERR4
 40
0.0
  9
$USERR5
 40
0.0
  9
$WORLDVIEW
 70
1
  9
$SHADEDGE
 70
3
  9
$SHADEDIF
 70
70
  9
$TILEMODE
 70
1
  9
$MAXACTVP
 70
64
  9
$PINSBASE
 10
0.0
 20
0.0
 30
0.0
  9
$PLIMCHECK
 70
0
  9
$PEXTMIN
 10
1e+20
 20
1e+20
 30
1e+20
  9
$PEXTMAX
 10
-1e+20
 20
-1e+20
 30
-1e+20
  9
$PLIMMIN
 10
0.0
 20
0.0
  9
$PLIMMAX
 10
420.0
 20
297.0
  9
$UNITMODE
 70
0
  9
$VISRETAIN
 70
1
  9
$PLINEGEN
 70
0
  9
$PSLTSCALE
 70
1
  9
$TREEDEPTH
 70
3020
  9
$CMLSTYLE
  2
Standard
  9
$CMLJUST
 70
0
  9
$CMLSCALE
 40
20.0
  9
$PROXYGRAPHICS
 70
1
  9
$MEASUREMENT
 70
1
  9
$CELWEIGHT
370
-1
  9
$ENDCAPS
280
0
  9
$JOINSTYLE
280
0
  9
$LWDISPLAY
290
0
  9
$INSUNITS
 70
4
  9
$HYPERLINKBASE
  1

  9
$STYLESHEET
  1

  9
$XEDIT
290
1
  9
$CEPSNTYPE
380
0
  9
$PSTYLEMODE
290
1
  9
$FINGERPRINTGUID
  2
{8CC0B04E-0FFC-4DE1-9CE7-C292A1B89774}
  9
$VERSIONGUID
  2
{D0279BB2-868C-4892-B374-6215B8E31820}
  9
$EXTNAMES
290
1
  9
$PSVPSCALE
 40
0.0
  9
$OLESTARTUP
290
0
  9
$SORTENTS
280
127
  9
$INDEXCTL
280
0
  9
$HIDETEXT
280
1
  9
$XCLIPFRAME
280
1
  9
$HALOGAP
280
0
  9
$OBSCOLOR
 70
257
  9
$OBSLTYPE
280
0
  9
$INTERSECTIONDISPLAY
280
0
  9
$INTERSECTIONCOLOR
 70
257
  9
$DIMASSOC
280
2
  9
$PROJECTNAME
  1

  9
$CAMERADISPLAY
290
0
  9
$LENSLENGTH
 40
50.0
  9
$CAMERAHEIGHT
 40
0.0
  9
$STEPSPERSEC
 40
24.0
  9
$STEPSIZE
 40
100.0
  9
$3DDWFPREC
 40
2.0
  9
$PSOLWIDTH
 40
0.005
  9
$PSOLHEIGHT
 40
0.08
  9
$LOFTANG1
 40
1.570796326795
  9
$LOFTANG2
 40
1.570796326795
  9
$LOFTMAG1
 40
0.0
  9
$LOFTMAG2
 40
0.0
  9
$LOFTPARAM
 70
7
  9
$LOFTNORMALS
280
1
  9
$LATITUDE
 40
37.795
  9
$LONGITUDE
 40
-122.394
  9
$NORTHDIRECTION
 40
0.0
  9
$TIMEZONE
 70
-8000
  9
$LIGHTGLYPHDISPLAY
280
1
  9
$TILEMODELIGHTSYNCH
280
1
  9
$CMATERIAL
347
20
  9
$SOLIDHIST
280
0
  9
$SHOWHIST
280
1
  9
$DWFFRAME
280
2
  9
$DGNFRAME
280
2
  9
$REALWORLDSCALE
290
1
  9
$INTERFERECOLOR
 62
256
  9
$CSHADOW
280
0
  9
$SHADOWPLANELOCATION
 40
0.0
  0
ENDSEC
  0
SECTION
  2
CLASSES
  0
CLASS
  1
ACDBDICTIONARYWDFLT
  2
AcDbDictionaryWithDefault
  3
ObjectDBX Classes
 90
0
 91
0
280
0
281
0
  0
CLASS
  1
SUN
  2
AcDbSun
  3
SCENEOE
 90
1153
 91
0
280
0
281
0
  0
CLASS
  1
VISUALSTYLE
  2
AcDbVisualStyle
  3
ObjectDBX Classes
 90
4095
 91
0
280
0
281
0
  0
CLASS
  1
MATERIAL
  2
AcDbMaterial
  3
ObjectDBX Classes
 90
1153
 91
0
280
0
281
0
  0
CLASS
  1
SCALE
  2
AcDbScale
  3
ObjectDBX Classes
 90
1153
 91
0
280
0
281
0
  0
CLASS
  1
TABLESTYLE
  2
AcDbTableStyle
  3
ObjectDBX Classes
 90
4095
 91
0
280
0
281
0
  0
CLASS
  1
MLEADERSTYLE
  2
AcDbMLeaderStyle
  3
ACDB_MLEADERSTYLE_CLASS
 90
4095
 91
0
280
0
281
0
  0
CLASS
  1
DICTIONARYVAR
  2
AcDbDictionaryVar
  3
ObjectDBX Classes
 90
0
 91
0
280
0
281
0
  0
CLASS
  1
CELLSTYLEMAP
  2
AcDbCellStyleMap
  3
ObjectDBX Classes
 90
1152
 91
0
280
0
281
0
  0
CLASS
  1
MENTALRAYRENDERSETTINGS
  2
AcDbMentalRayRenderSettings
  3
SCENEOE
 90
1024
 91
0
280
0
281
0
  0
CLASS
  1
ACDBDETAILVIEWSTYLE
  2
AcDbDetailViewStyle
  3
ObjectDBX Classes
 90
1025
 91
0
280
0
281
0
  0
CLASS
  1
ACDBSECTIONVIEWSTYLE
  2
AcDbSectionViewStyle
  3
ObjectDBX Classes
 90
1025
 91
0
280
0
281
0
  0
CLASS
  1
RASTERVARIABLES
  2
AcDbRasterVariables
  3
ISM
 90
0
 91
0
280
0
281
0
  0
CLASS
  1
ACDBPLACEHOLDER
  2
AcDbPlaceHolder
  3
ObjectDBX Classes
 90
0
 91
0
280
0
281
0
  0
CLASS
  1
LAYOUT
  2
AcDbLayout
  3
ObjectDBX Classes
 90
0
 91
0
280
0
281
0
  0
ENDSEC
  0
SECTION
  2
TABLES
  0
TABLE
  2
VPORT
  5
8
330
0
100
AcDbSymbolTable
 70
1
  0
VPORT
  5
FB
330
8
100
AcDbSymbolTableRecord
100
AcDbViewportTableRecord
  2
*Active
 70
0
 10
0.0
 20
0.0
 11
1.0
 21
1.0
 12
-2.4723492742700017
 22
-1.1975200637885592
 13
0.0
 23
0.0
 14
0.5
 24
0.5
 15
0.5
 25
0.5
 16
0.0
 26
0.0
 36
1.0
 17
0.0
 27
0.0
 37
0.0
 40
73.38763971432131
 41
1.34
 42
50.0
 43
0.0
 44
0.0
 50
0.0
 51
0.0
 71
0
 72
1000
 73
1
 74
3
 75
0
 76
0
 77
0
 78
0
281
0
 65
1
110
0.0
120
0.0
130
0.0
111
1.0
121
0.0
131
0.0
112
0.0
122
1.0
132
0.0
 79
0
146
0.0
  0
ENDTAB
  0
TABLE
  2
LTYPE
  5
2
330
0
100
AcDbSymbolTable
 70
3
  0
LTYPE
  5
24
330
2
100
AcDbSymbolTableRecord
100
AcDbLinetypeTableRecord
  2
ByBlock
 70
0
  3

 72
65
 73
0
 40
0.0
  0
LTYPE
  5
25
330
2
100
AcDbSymbolTableRecord
100
AcDbLinetypeTableRecord
  2
ByLayer
 70
0
  3

 72
65
 73
0
 40
0.0
  0
LTYPE
  5
26
330
2
100
AcDbSymbolTableRecord
100
AcDbLinetypeTableRecord
  2
Continuous
 70
0
  3

 72
65
 73
0
 40
0.0
  0
ENDTAB
  0
TABLE
  2
LAYER
  5
1
330
0
100
AcDbSymbolTable
 70
3
  0
LAYER
  5
27
330
1
100
AcDbSymbolTableRecord
100
AcDbLayerTableRecord
  2
0
 70
0
 62
7
  6
Continuous
370
-3
390
13
347
21
  0
LAYER
  5
28
330
1
100
AcDbSymbolTableRecord
100
AcDbLayerTableRecord
  2
Defpoints
 70
0
 62
7
  6
Continuous
290
0
370
-3
390
13
347
21
  0
LAYER
  5
2F
330
1
100
AcDbSymbolTableRecord
100
AcDbLayerTableRecord
  2
visible
 70
0
 62
7
  6
Continuous
370
-3
390
13
347
21
  0
ENDTAB
  0
TABLE
  2
STYLE
  5
5
330
0
100
AcDbSymbolTable
 70
1
  0
STYLE
  5
29
330
5
100
AcDbSymbolTableRecord
100
AcDbTextStyleTableRecord
  2
Standard
 70
0
 40
0.0
 41
1.0
 50
0.0
 71
0
 42
2.5
  3
txt
  4

  0
ENDTAB
  0
TABLE
  2
VIEW
  5
7
330
0
100
AcDbSymbolTable
 70
0
  0
ENDTAB
  0
TABLE
  2
UCS
  5
6
330
0
100
AcDbSymbolTable
 70
0
  0
ENDTAB
  0
TABLE
  2
APPID
  5
3
330
0
100
AcDbSymbolTable
 70
3
  0
APPID
  5
2A
330
3
100
AcDbSymbolTableRecord
100
AcDbRegAppTableRecord
  2
ACAD
 70
0
  0
APPID
  5
FC
330
3
100
AcDbSymbolTableRecord
100
AcDbRegAppTableRecord
  2
HATCHBACKGROUNDCOLOR
 70
0
  0
APPID
  5
FD
330
3
100
AcDbSymbolTableRecord
100
AcDbRegAppTableRecord
  2
EZDXF
 70
0
  0
ENDTAB
  0
TABLE
  2
DIMSTYLE
  5
4
330
0
100
AcDbSymbolTable
 70
1
100
AcDbDimStyleTable
  0
DIMSTYLE
105
2B
330
4
100
AcDbSymbolTableRecord
100
AcDbDimStyleTableRecord
  2
Standard
 70
0
 40
1.0
 41
2.5
 42
0.625
 43
3.75
 44
1.25
 45
0.0
 46
0.0
 47
0.0
 48
0.0
 49
2.5
140
2.5
141
2.5
142
0.0
143
0.03937007874
144
1.0
145
0.0
146
1.0
147
0.625
148
0.0
 69
0
 70
0
 71
0
 72
0
 73
0
 74
0
 75
0
 76
0
 77
1
 78
8
 79
3
170
0
171
3
172
1
173
0
174
0
175
0
176
0
177
0
178
0
179
2
271
2
272
2
273
2
274
3
275
0
276
0
277
2
278
44
279
0
280
0
281
0
282
0
283
0
284
8
285
0
286
0
288
0
289
3
290
0
371
-2
372
-2
  0
ENDTAB
  0
TABLE
  2
BLOCK_RECORD
  5
9
330
0
100
AcDbSymbolTable
 70
2
  0
BLOCK_RECORD
  5
17
330
9
100
AcDbSymbolTableRecord
100
AcDbBlockTableRecord
  2
*Model_Space
340
1A
 70
0
280
1
281
0
  0
BLOCK_RECORD
  5
1B
330
9
100
AcDbSymbolTableRecord
100
AcDbBlockTableRecord
  2
*Paper_Space
340
1E
 70
0
280
1
281
0
  0
ENDTAB
  0
ENDSEC
  0
SECTION
  2
BLOCKS
  0
BLOCK
  5
18
330
17
100
AcDbEntity
  8
0
100
AcDbBlockBegin
  2
*Model_Space
 70
0
 10
0.0
 20
0.0
 30
0.0
  3
*Model_Space
  1

  0
ENDBLK
  5
19
330
17
100
AcDbEntity
  8
0
100
AcDbBlockEnd
  0
BLOCK
  5
1C
330
1B
100
AcDbEntity
  8
0
100
AcDbBlockBegin
  2
*Paper_Space
 70
0
 10
0.0
 20
0.0
 30
0.0
  3
*Paper_Space
  1

  0
ENDBLK
  5
1D
330
1B
100
AcDbEntity
  8
0
100
AcDbBlockEnd
  0
ENDSEC
  0
SECTION
  2
ENTITIES
  0
LINE
  5
30
330
17
100
AcDbEntity
  8
visible
100
AcDbLine
 10
-15.625613174233038
 20
-37.10214312027987
 30
0.0
 11
-19.14237523243036
 21
-36.46694617296491
 31
0.0
  0
ELLIPSE
  5
31
330
17
100
AcDbEntity
  8
visible
100
AcDbEllipse
 10
-15.244436856709306
 20
-36.86772808229305
 30
0.0
 11
-0.14219502351960306
 21
-0.7872614402384126
 31
0.0
 40
0.44922916368941834
 41
5.094675221843142
 42
6.283185307179586
  0
ELLIPSE
  5
32
330
17
100
AcDbEntity
  8
visible
100
AcDbEllipse
 10
-18.761198914906622
 20
-36.23253113497809
 30
0.0
 11
-0.1421950235196031
 21
-0.7872614402384126
 31
0.0
 40
0.4492291636894184
 41
5.094675221843142
 42
6.283185307179586
  0
ELLIPSE
  5
33
330
17
100
AcDbEntity
  8
visible
100
AcDbEllipse
 10
-16.760023247907053
 20
-35.0018521855473
 30
0.0
 11
-5.0
 21
-0.0
 31
0.0
 40
0.3332824827321104
 41
-6.283185307179586
 42
-5.209024699645318
  0
LINE
  5
34
330
17
100
AcDbEntity
  8
visible
100
AcDbLine
 10
-10.935685807048749
 20
5.029201499160095
 30
0.0
 11
-10.935685807048749
 21
13.263056818956656
 31
0.0
  0
LINE
  5
35
330
17
100
AcDbEntity
  8
visible
100
AcDbLine
 10
-10.935685807048749
 20
19.868232347971812
 30
0.0
 11
-10.935685807048749
 21
23.177309627642202
 31
0.0
  0
LINE
  5
36
330
17
100
AcDbEntity
  8
visible
100
AcDbLine
 10
-10.935685807048749
 20
5.029201499160098
 30
0.0
 11
-11.80701083982288
 21
4.493355799239617
 31
0.0
  0
SPLINE
  5
37
330
17
100
AcDbEntity
  8
visible
100
AcDbSpline
 70
0
 71
2
 72
6
 73
3
 74
0
 40
0.0
 40
0.0
 40
0.0
 40
0.47577613542329406
 40
0.47577613542329406
 40
0.47577613542329406
 10
-21.325925476864015
 20
-28.175405478290713
 30
0.0
 10
-21.53087894451989
 20
-28.223563133517583
 30
0.0
 10
-21.553852458870963
 20
-28.264238515507195
 30
0.0
  0
SPLINE
  5
38
330
17
100
AcDbEntity
  8
visible
100
AcDbSpline
 70
0
 71
2
 72
6
 73
3
 74
0
 40
0.0
 40
0.0
 40
0.0
 40
1.0
 40
1.0
 40
1.0
 10
-21.325925476864057
 20
-28.175405478290678
 30
0.0
 10
-21.162482493979688
 20
-28.13941661593597
 30
0.0
 10
-20.958448866712157
 20
-28.1751740460434
 30
0.0
  0
SPLINE
  5
39
330
17
100
AcDbEntity
  8
visible
100
AcDbSpline
 70
0
 71
3
 72
11
 73
7
 74
0
 40
0.0
 40
0.0
 40
0.0
 40
0.0
 40
0.4840802426547395
 40
0.4840802426547395
 40
0.4840802426547395
 40
1.0
 40
1.0
 40
1.0
 40
1.0
 10
-17.48915911312395
 20
-28.801796554010252
 30
0.0
 10
-17.3023178292801
 20
-28.836035740896353
 30
0.0
 10
-17.067280384962174
 20
-28.83729259097396
 30
0.0
 10
-16.85829542637118
 20
-28.808666018769088
 30
0.0
 10
-16.634258733035235
 20
-28.77867381242264
 30
0.0
 10
-16.440908327536103
 20
-28.717131637004506
 30
0.0
 10
-16.320273897612676
 20
-28.642543524750437
 30
0.0
  0
LINE
  5
3A
330
17
100
AcDbEntity
  8
visible
100
AcDbLine
 10
-14.68870341882068
 20
-27.63916362368828
 30
0.0
 11
-16.320273897612676
 21
-28.642543524750437
 31
0.0
  0
ELLIPSE
  5
3B
330
17
100
AcDbEntity
  8
visible
100
AcDbEllipse
 10
-11.740099719735767
 20
-27.224801375834687
 30
0.0
 11
3.2
 21
0.0
 31
0.0
 40
0.3332824827321104
 41
3.5406217281870216
 42
5.786549587918958
  0
ELLIPSE
  5
3C
330
17
100
AcDbEntity
  8
visible
100
AcDbEllipse
 10
-11.740099719735767
 20
-27.224801375834687
 30
0.0
 11
3.2
 21
0.0
 31
0.0
 40
0.3332824827321104
 41
5.786549587918958
 42
6.283185307179586
  0
ELLIPSE
  5
3D
330
17
100
AcDbEntity
  8
visible
100
AcDbEllipse
 10
-11.740099719735767
 20
-27.224801375834687
 30
0.0
 11
3.2
 21
0.0
 31
0.0
 40
0.3332824827321104
 41
0.0
 42
1.749292140471308
  0
LINE
  5
3E
330
17
100
AcDbEntity
  8
visible
100
AcDbLine
 10
-5.159295480727479
 20
-21.778787674017828
 30
0.0
 11
-12.30825807884817
 21
-26.175242180666142
 31
0.0
  0
ELLIPSE
  5
3F
330
17
100
AcDbEntity
  8
visible
100
AcDbEllipse
 10
-2.2106917816425664
 20
-21.36442542616424
 30
0.0
 11
3.2
 21
0.0
 31
0.0
 40
0.3332824827321104
 41
3.5406217281870207
 42
5.786549587918958
  0
ELLIPSE
  5
40
330
17
100
AcDbEntity
  8
visible
100
AcDbEllipse
 10
-2.2106917816425664
 20
-21.36442542616424
 30
0.0
 11
3.2
 21
0.0
 31
0.0
 40
0.3332824827321104
 41
5.786549587918958
 42
6.283185307179586
  0
ELLIPSE
  5
41
330
17
100
AcDbEntity
  8
visible
100
AcDbEllipse
 10
-2.2106917816425664
 20
-21.36442542616424
 30
0.0
 11
3.2
 21
0.0
 31
0.0
 40
0.3332824827321104
 41
0.0
 42
1.7492921404713089
  0
LINE
  5
42
330
17
100
AcDbEntity
  8
visible
100
AcDbLine
 10
-1.1472796619629726
 20
-19.311486329933537
 30
0.0
 11
-2.778850140754969
 21
-20.314866230995694
 31
0.0
  0
SPLINE
  5
43
330
17
100
AcDbEntity
  8
visible
100
AcDbSpline
 70
0
 71
2
 72
6
 73
3
 74
0
 40
0.0
 40
0.0
 40
0.0
 40
1.0
 40
1.0
 40
1.0
 10
-1.0107872342635944
 20
-19.165155117134574
 30
0.0
 10
-1.034358716920939
 20
-19.241945728891523
 30
0.0
 10
-1.147279661962969
 20
-19.31148632993353
 30
0.0
  0
LINE
  5
44
330
17
100
AcDbEntity
  8
visible
100
AcDbLine
 10
-17.489158585609637
 20
-28.801796649289788
 30
0.0
 11
-20.958448866712164
 21
-28.175174046043388
 31
0.0
  0
ELLIPSE
  5
45
330
17
100
AcDbEntity
  8
visible
100
AcDbEllipse
 10
-11.740099719735767
 20
-29.01617271087418
 30
0.0
 11
3.2
 21
0.0
 31
0.0
 40
0.3332824827321104
 41
0.9969763052885013
 42
2.144616348301291
  0
ELLIPSE
  5
46
330
17
100
AcDbEntity
  8
visible
100
AcDbEllipse
 10
-2.2106917816425664
 20
-23.15579676120373
 30
0.0
 11
3.2
 21
0.0
 31
0.0
 40
0.3332824827321104
 41
0.9969763052885031
 42
2.14461634830129
  0
LINE
  5
47
330
17
100
AcDbEntity
  8
visible
100
AcDbLine
 10
-0.7160679069086981
 20
-15.788856614433726
 30
0.0
 11
-1.01291166996201
 21
-15.735240745915855
 31
0.0
  0
ELLIPSE
  5
48
330
17
100
AcDbEntity
  8
visible
100
AcDbEllipse
 10
-0.7160679069086981
 20
-14.940312297836073
 30
0.0
 11
-0.15996940145955324
 21
-0.8856691202682141
 31
0.0
 40
0.44922916368941834
 41
0.3822862414584516
 42
3.141592653589793
  0
ELLIPSE
  5
49
330
17
100
AcDbEntity
  8
visible
100
AcDbEllipse
 10
-0.7160679069086981
 20
-14.940312297836073
 30
0.0
 11
-0.15996940145955324
 21
-0.8856691202682141
 31
0.0
 40
0.44922916368941834
 41
3.141592653589793
 42
6.283185307179586
  0
ELLIPSE
  5
4A
330
17
100
AcDbEntity
  8
visible
100
AcDbEllipse
 10
-0.7160679069086981
 20
-14.940312297836073
 30
0.0
 11
-0.15996940145955324
 21
-0.8856691202682141
 31
0.0
 40
0.44922916368941834
 41
0.0
 42
0.382286241458452
  0
LINE
  5
4B
330
17
100
AcDbEntity
  8
visible
100
AcDbLine
 10
-10.93568580704875
 20
5.0292014991601
 30
0.0
 11
-5.66054271975277
 21
4.076406078187665
 31
0.0
  0
LINE
  5
4C
330
17
100
AcDbEntity
  8
visible
100
AcDbLine
 10
-5.660542719752769
 20
4.076406078187659
 30
0.0
 11
-5.660542719752769
 21
12.310261397984224
 31
0.0
  0
LINE
  5
4D
330
17
100
AcDbEntity
  8
visible
100
AcDbLine
 10
-5.660542719752769
 20
18.915436926999377
 30
0.0
 11
-5.660542719752769
 21
26.421406415259156
 31
0.0
  0
LINE
  5
4E
330
17
100
AcDbEntity
  8
visible
100
AcDbLine
 10
-5.660542719752769
 20
4.076406078187662
 30
0.0
 11
-11.80701083982288
 21
0.2964635906502249
 31
0.0
  0
LINE
  5
4F
330
17
100
AcDbEntity
  8
visible
100
AcDbLine
 10
-5.660542719752769
 20
26.42140641525916
 30
0.0
 11
-11.80701083982288
 21
22.641463927721723
 31
0.0
  0
LINE
  5
50
330
17
100
AcDbEntity
  8
visible
100
AcDbLine
 10
-11.80701083982288
 20
0.29646359065022665
 30
0.0
 11
-11.80701083982288
 21
13.420435393844077
 31
0.0
  0
LINE
  5
51
330
17
100
AcDbEntity
  8
visible
100
AcDbLine
 10
-11.80701083982288
 20
20.02561092285923
 30
0.0
 11
-11.80701083982288
 21
22.641463927721723
 31
0.0
  0
LINE
  5
52
330
17
100
AcDbEntity
  8
visible
100
AcDbLine
 10
-10.245475845001899
 20
-21.649232564104175
 30
0.0
 11
-10.542319608055209
 21
-21.5956166955863
 31
0.0
  0
ELLIPSE
  5
53
330
17
100
AcDbEntity
  8
visible
100
AcDbEllipse
 10
-10.245475845001899
 20
-20.80068824750652
 30
0.0
 11
-0.15996940145955324
 21
-0.8856691202682141
 31
0.0
 40
0.44922916368941834
 41
0.3822862414584516
 42
3.141592653589793
  0
ELLIPSE
  5
54
330
17
100
AcDbEntity
  8
visible
100
AcDbEllipse
 10
-10.245475845001899
 20
-20.80068824750652
 30
0.0
 11
-0.15996940145955324
 21
-0.8856691202682141
 31
0.0
 40
0.44922916368941834
 41
3.141592653589793
 42
6.283185307179586
  0
ELLIPSE
  5
55
330
17
100
AcDbEntity
  8
visible
100
AcDbEllipse
 10
-10.245475845001899
 20
-20.80068824750652
 30
0.0
 11
-0.15996940145955324
 21
-0.8856691202682141
 31
0.0
 40
0.44922916368941834
 41
0.0
 42
0.382286241458452
  0
ELLIPSE
  5
56
330
17
100
AcDbEntity
  8
visible
100
AcDbEllipse
 10
-9.686717573597143
 20
-15.04049963604649
 30
0.0
 11
3.0571930056714667
 21
16.926120965125868
 31
0.0
 40
0.4492291636894183
 41
-4.330102738926238
 42
-3.7024959375608844
  0
ELLIPSE
  5
57
330
17
100
AcDbEntity
  8
visible
100
AcDbEllipse
 10
-7.780835985978506
 20
-13.868424446112414
 30
0.0
 11
3.057193005671466
 21
16.926120965125868
 31
0.0
 40
0.4492291636894184
 41
-1.3911123865108848
 42
-1.188510085336445
  0
LINE
  5
58
330
17
100
AcDbEntity
  8
visible
100
AcDbLine
 10
2.225042349019354
 20
-11.486337772725776
 30
0.0
 11
0.44842302111209453
 21
-12.57891952057681
 31
0.0
  0
LINE
  5
59
330
17
100
AcDbEntity
  8
visible
100
AcDbLine
 10
2.225042349019354
 20
-15.25764584649311
 30
0.0
 11
2.225042349019354
 21
-11.486337772725769
 31
0.0
  0
LINE
  5
5A
330
17
100
AcDbEntity
  8
visible
100
AcDbLine
 10
2.225042349019354
 20
-15.25764584649312
 30
0.0
 11
0.19415811698904628
 21
-16.50659490894
 31
0.0
  0
ELLIPSE
  5
5B
330
17
100
AcDbEntity
  8
visible
100
AcDbEllipse
 10
-7.780835985978506
 20
-13.868424446112414
 30
0.0
 11
3.057193005671466
 21
16.926120965125868
 31
0.0
 40
0.4492291636894184
 41
-1.8161168867017987
 42
-1.7247555674311792
  0
LINE
  5
5C
330
17
100
AcDbEntity
  8
visible
100
AcDbLine
 10
-2.7788501407549475
 20
-20.314866230995676
 30
0.0
 11
-2.7788501407549475
 21
-20.126300827307322
 31
0.0
  0
LINE
  5
5D
330
17
100
AcDbEntity
  8
visible
100
AcDbLine
 10
-2.778850140754951
 20
-20.126300827307322
 30
0.0
 11
-5.159295480727505
 21
-21.590222270329484
 31
0.0
  0
LINE
  5
5E
330
17
100
AcDbEntity
  8
visible
100
AcDbLine
 10
-5.159295480727501
 20
-21.778787674017842
 30
0.0
 11
-5.159295480727501
 21
-21.590222270329487
 31
0.0
  0
LINE
  5
5F
330
17
100
AcDbEntity
  8
visible
100
AcDbLine
 10
-12.308258078848148
 20
-26.175242180666125
 30
0.0
 11
-12.308258078848148
 21
-25.98667677697777
 31
0.0
  0
LINE
  5
60
330
17
100
AcDbEntity
  8
visible
100
AcDbLine
 10
-12.308258078848148
 20
-25.986676776977767
 30
0.0
 11
-14.688703418820701
 21
-27.45059821999993
 31
0.0
  0
LINE
  5
61
330
17
100
AcDbEntity
  8
visible
100
AcDbLine
 10
-14.688703418820701
 20
-27.63916362368829
 30
0.0
 11
-14.688703418820701
 21
-27.450598219999936
 31
0.0
  0
LINE
  5
62
330
17
100
AcDbEntity
  8
visible
100
AcDbLine
 10
-17.882008400357293
 20
-20.080422952763087
 30
0.0
 11
-17.882008400357293
 21
10.561455146596558
 31
0.0
  0
ELLIPSE
  5
63
330
17
100
AcDbEntity
  8
visible
100
AcDbEllipse
 10
-9.686717573597143
 20
15.601378463313154
 30
0.0
 11
-3.057193005671466
 21
-16.926120965125868
 31
0.0
 40
0.4492291636894184
 41
3.5238788950482447
 42
5.094675221843142
  0
LINE
  5
64
330
17
100
AcDbEntity
  8
visible
100
AcDbLine
 10
-9.686717573597143
 20
31.81800318051272
 30
0.0
 11
-7.780835985978503
 21
32.99007837044681
 31
0.0
  0
ELLIPSE
  5
65
330
17
100
AcDbEntity
  8
visible
100
AcDbEllipse
 10
-7.780835985978506
 20
16.77345365324723
 30
0.0
 11
-3.057193005671466
 21
-16.926120965125868
 31
0.0
 40
0.4492291636894184
 41
2.1873568837636537
 42
3.523878895048245
  0
LINE
  5
66
330
17
100
AcDbEntity
  8
visible
100
AcDbLine
 10
0.4144548407816444
 20
-1.7572984910820537
 30
0.0
 11
0.4144548407816444
 21
11.212996402076232
 31
0.0
  0
LINE
  5
67
330
17
100
AcDbEntity
  8
visible
100
AcDbLine
 10
0.4144548407816444
 20
17.818171931091392
 30
0.0
 11
0.4144548407816444
 21
18.79457234532785
 31
0.0
  0
LINE
  5
68
330
17
100
AcDbEntity
  8
visible
100
AcDbLine
 10
2.225042349019354
 20
-0.6438270606446679
 30
0.0
 11
0.41445484078164596
 21
-1.757298491082053
 31
0.0
  0
LINE
  5
69
330
17
100
AcDbEntity
  8
visible
100
AcDbLine
 10
2.225042349019354
 20
-4.415135134412003
 30
0.0
 11
2.225042349019354
 21
-0.6438270606446617
 31
0.0
  0
LINE
  5
6A
330
17
100
AcDbEntity
  8
visible
100
AcDbLine
 10
2.225042349019354
 20
-4.4151351344120116
 30
0.0
 11
0.41445484078164596
 21
-5.5286065648493965
 31
0.0
  0
LINE
  5
6B
330
17
100
AcDbEntity
  8
visible
100
AcDbLine
 10
0.4144548407816444
 20
-8.828501129395818
 30
0.0
 11
0.4144548407816444
 21
-5.528606564849394
 31
0.0
  0
ELLIPSE
  5
6C
330
17
100
AcDbEntity
  8
visible
100
AcDbEllipse
 10
-3.969072810741224
 20
-14.352755121569743
 30
0.0
 11
-0.5776672830483867
 21
-3.198249600968551
 31
0.0
 40
0.4492291636894184
 41
3.141592653589793
 42
6.283185307179586
  0
ELLIPSE
  5
6D
330
17
100
AcDbEntity
  8
visible
100
AcDbEllipse
 10
-3.969072810741224
 20
22.888912106882756
 30
0.0
 11
-0.5776672830483867
 21
-3.198249600968551
 31
0.0
 40
0.4492291636894184
 41
3.141592653589793
 42
6.283185307179586
  0
ELLIPSE
  5
6E
330
17
100
AcDbEntity
  8
visible
100
AcDbEllipse
 10
-8.733776779787824
 20
0.1593567447689992
 30
0.0
 11
-0.2044053463094291
 21
-1.131688320342718
 31
0.0
 40
0.44922916368941834
 41
0.3822862414584516
 42
3.141592653589793
  0
ELLIPSE
  5
6F
330
17
100
AcDbEntity
  8
visible
100
AcDbEllipse
 10
-8.733776779787824
 20
0.1593567447689992
 30
0.0
 11
-0.2044053463094291
 21
-1.131688320342718
 31
0.0
 40
0.44922916368941834
 41
3.141592653589793
 42
6.283185307179586
  0
ELLIPSE
  5
70
330
17
100
AcDbEntity
  8
visible
100
AcDbEllipse
 10
-8.733776779787824
 20
0.1593567447689992
 30
0.0
 11
-0.2044053463094291
 21
-1.131688320342718
 31
0.0
 40
0.44922916368941834
 41
0.0
 42
0.382286241458452
  0
ELLIPSE
  5
71
330
17
100
AcDbEntity
  8
visible
100
AcDbEllipse
 10
-13.498480748834425
 20
-20.213131071240184
 30
0.0
 11
-0.5776672830483867
 21
-3.198249600968551
 31
0.0
 40
0.4492291636894184
 41
3.141592653589793
 42
6.283185307179586
  0
ELLIPSE
  5
72
330
17
100
AcDbEntity
  8
visible
100
AcDbEllipse
 10
-8.733776779787824
 20
26.558513261140376
 30
0.0
 11
-0.2044053463094291
 21
-1.131688320342718
 31
0.0
 40
0.44922916368941834
 41
0.3822862414584516
 42
3.141592653589793
  0
ELLIPSE
  5
73
330
17
100
AcDbEntity
  8
visible
100
AcDbEllipse
 10
-8.733776779787824
 20
26.558513261140376
 30
0.0
 11
-0.2044053463094291
 21
-1.131688320342718
 31
0.0
 40
0.44922916368941834
 41
3.141592653589793
 42
6.283185307179586
  0
ELLIPSE
  5
74
330
17
100
AcDbEntity
  8
visible
100
AcDbEllipse
 10
-8.733776779787824
 20
26.558513261140376
 30
0.0
 11
-0.2044053463094291
 21
-1.131688320342718
 31
0.0
 40
0.44922916368941834
 41
0.0
 42
0.382286241458452
  0
ELLIPSE
  5
75
330
17
100
AcDbEntity
  8
visible
100
AcDbEllipse
 10
-13.498480748834425
 20
17.028536157212315
 30
0.0
 11
-0.5776672830483867
 21
-3.198249600968551
 31
0.0
 40
0.4492291636894184
 41
3.141592653589793
 42
6.283185307179586
  0
LINE
  5
76
330
17
100
AcDbEntity
  8
visible
100
AcDbLine
 10
0.44090429255148544
 20
-10.888036302944979
 30
0.0
 11
0.44822375010570026
 21
-10.883534997796326
 31
0.0
  0
LINE
  5
77
330
17
100
AcDbEntity
  8
visible
100
AcDbLine
 10
0.4482237501057007
 20
-10.88353499779632
 30
0.0
 11
0.4412679701578375
 21
-10.8822786460398
 31
0.0
  0
SPLINE
  5
78
330
17
100
AcDbEntity
  8
visible
100
AcDbSpline
 70
0
 71
2
 72
6
 73
3
 74
0
 40
0.0
 40
0.0
 40
0.0
 40
0.43509569223925415
 40
0.43509569223925415
 40
0.43509569223925415
 10
0.4144548407816444
 20
-1.7572984910820537
 30
0.0
 10
0.509404784752882
 20
-1.549321668309258
 30
0.0
 10
0.5111024359363461
 20
-1.351675117055609
 30
0.0
  0
SPLINE
  5
79
330
17
100
AcDbEntity
  8
visible
100
AcDbSpline
 70
0
 71
2
 72
6
 73
3
 74
0
 40
0.0
 40
0.0
 40
0.0
 40
0.4350956922396845
 40
0.4350956922396845
 40
0.4350956922396845
 10
0.4144548407816444
 20
-5.528606564849397
 30
0.0
 10
0.5094047847528786
 20
-5.620066524950819
 30
0.0
 10
0.5111024359363432
 20
-5.680151153407413
 30
0.0
  0
ELLIPSE
  5
7A
330
17
100
AcDbEntity
  8
visible
100
AcDbEllipse
 10
16.8677423840779
 20
19.125370194041636
 30
0.0
 11
-0.15996940145955324
 21
-0.8856691202682141
 31
0.0
 40
0.44922916368941834
 41
0.3822862414584516
 42
3.141592653589793
  0
ELLIPSE
  5
7B
330
17
100
AcDbEntity
  8
visible
100
AcDbEllipse
 10
16.8677423840779
 20
19.125370194041636
 30
0.0
 11
-0.15996940145955324
 21
-0.8856691202682141
 31
0.0
 40
0.44922916368941834
 41
3.141592653589793
 42
6.283185307179586
  0
ELLIPSE
  5
7C
330
17
100
AcDbEntity
  8
visible
100
AcDbEllipse
 10
16.8677423840779
 20
19.125370194041636
 30
0.0
 11
-0.15996940145955324
 21
-0.8856691202682141
 31
0.0
 40
0.44922916368941834
 41
0.0
 42
0.382286241458452
  0
ELLIPSE
  5
7D
330
17
100
AcDbEntity
  8
visible
100
AcDbEllipse
 10
7.3383344459846995
 20
13.264994244371195
 30
0.0
 11
-0.15996940145955324
 21
-0.8856691202682141
 31
0.0
 40
0.44922916368941834
 41
0.3822862414584516
 42
3.141592653589793
  0
ELLIPSE
  5
7E
330
17
100
AcDbEntity
  8
visible
100
AcDbEllipse
 10
7.3383344459846995
 20
13.264994244371195
 30
0.0
 11
-0.15996940145955324
 21
-0.8856691202682141
 31
0.0
 40
0.44922916368941834
 41
3.141592653589793
 42
6.283185307179586
  0
ELLIPSE
  5
7F
330
17
100
AcDbEntity
  8
visible
100
AcDbEllipse
 10
7.3383344459846995
 20
13.264994244371195
 30
0.0
 11
-0.15996940145955324
 21
-0.8856691202682141
 31
0.0
 40
0.44922916368941834
 41
0.0
 42
0.382286241458452
  0
LINE
  5
80
330
17
100
AcDbEntity
  8
visible
100
AcDbLine
 10
-19.142375232430354
 20
-36.46694617296491
 30
0.0
 11
-19.142375232430354
 21
-30.432853254937164
 31
0.0
  0
LINE
  5
81
330
17
100
AcDbEntity
  8
visible
100
AcDbLine
 10
-15.625613174233038
 20
-31.06805020225213
 30
0.0
 11
-19.14237523243036
 21
-30.432853254937175
 31
0.0
  0
LINE
  5
82
330
17
100
AcDbEntity
  8
visible
100
AcDbLine
 10
-15.625613174233038
 20
-37.10214312027987
 30
0.0
 11
-15.625613174233038
 21
-31.068050202252124
 31
0.0
  0
ELLIPSE
  5
83
330
17
100
AcDbEntity
  8
visible
100
AcDbEllipse
 10
-9.55066102860254
 20
-36.30400592754296
 30
0.0
 11
0.41907692936795843
 21
-0.6814503116673463
 31
0.0
 40
0.8289245714748877
 41
-6.283185307179586
 42
-5.350684992096421
  0
ELLIPSE
  5
84
330
17
100
AcDbEntity
  8
visible
100
AcDbEllipse
 10
-13.243261189709738
 20
-35.63704913286226
 30
0.0
 11
-5.0
 21
-0.0
 31
0.0
 40
0.3332824827321104
 41
-5.209024699645318
 42
-3.6382283728504214
  0
ELLIPSE
  5
85
330
17
100
AcDbEntity
  8
visible
100
AcDbEllipse
 10
-16.760023247907053
 20
-28.96775926751956
 30
0.0
 11
-5.0
 21
-0.0
 31
0.0
 40
0.3332824827321104
 41
-6.283185307179586
 42
-5.209024699645318
  0
ELLIPSE
  5
86
330
17
100
AcDbEntity
  8
visible
100
AcDbEllipse
 10
-15.244436856709306
 20
-30.83363516426531
 30
0.0
 11
0.14219502351960306
 21
0.7872614402384126
 31
0.0
 40
0.44922916368941834
 41
-5.900899065721134
 42
-4.330102738926238
  0
LINE
  5
87
330
17
100
AcDbEntity
  8
visible
100
AcDbLine
 10
-15.244436856709306
 20
-30.07937354951183
 30
0.0
 11
-18.76119891490663
 21
-29.444176602196872
 31
0.0
  0
ELLIPSE
  5
88
330
17
100
AcDbEntity
  8
visible
100
AcDbEllipse
 10
-18.761198914906622
 20
-30.19843821695035
 30
0.0
 11
0.1421950235196031
 21
0.7872614402384126
 31
0.0
 40
0.4492291636894184
 41
-5.900899065721134
 42
-4.330102738926238
  0
LINE
  5
89
330
17
100
AcDbEntity
  8
visible
100
AcDbLine
 10
-8.847308616963083
 20
-36.43104531700595
 30
0.0
 11
-8.847308616963083
 21
-30.396952398978208
 31
0.0
  0
ELLIPSE
  5
8A
330
17
100
AcDbEntity
  8
visible
100
AcDbEllipse
 10
-13.243261189709738
 20
-29.60295621483452
 30
0.0
 11
-5.0
 21
-0.0
 31
0.0
 40
0.3332824827321104
 41
-5.209024699645318
 42
-3.6382283728504214
  0
ELLIPSE
  5
8B
330
17
100
AcDbEntity
  8
visible
100
AcDbEllipse
 10
4.743450878537253
 20
-27.51344200303729
 30
0.0
 11
0.41907692936795826
 21
-0.6814503116673464
 31
0.0
 40
0.8289245714748877
 41
-6.283185307179586
 42
-5.350684992096421
  0
LINE
  5
8C
330
17
100
AcDbEntity
  8
visible
100
AcDbLine
 10
5.44680329017671
 20
-27.640481392500277
 30
0.0
 11
-8.847308616963089
 21
-36.431045317005946
 31
0.0
  0
ELLIPSE
  5
8D
330
17
100
AcDbEntity
  8
visible
100
AcDbEllipse
 10
1.050850717430059
 20
-26.846485208356583
 30
0.0
 11
-5.0
 21
-0.0
 31
0.0
 40
0.3332824827321104
 41
-3.6382283728504214
 42
-3.141592653589793
  0
ELLIPSE
  5
8E
330
17
100
AcDbEntity
  8
visible
100
AcDbEllipse
 10
-22.453799076013816
 20
-19.254666921253637
 30
0.0
 11
-0.8
 21
-9.420375130614892e-17
 31
0.0
 40
0.3332824827321106
 41
-6.283185307179586
 42
-5.209024699645318
  0
ELLIPSE
  5
8F
330
17
100
AcDbEntity
  8
visible
100
AcDbEllipse
 10
-14.258508249253662
 20
-14.214743604537048
 30
0.0
 11
3.19938802919107
 21
17.713382405364282
 31
0.0
 40
0.44922916368941823
 41
-4.330102738926238
 42
-3.7278254239509714
  0
ELLIPSE
  5
90
330
17
100
AcDbEntity
  8
visible
100
AcDbEllipse
 10
-16.760023247907053
 20
-28.21349765276608
 30
0.0
 11
-4.2
 21
-0.0
 31
0.0
 40
0.3332824827321104
 41
-6.310566910013572
 42
-5.209024699645318
  0
ELLIPSE
  5
91
330
17
100
AcDbEntity
  8
visible
100
AcDbEllipse
 10
-9.55066102860254
 20
-30.26991300951522
 30
0.0
 11
-0.41907692936795843
 21
0.6814503116673463
 31
0.0
 40
0.8289245714748877
 41
4.074092968672958
 42
5.644889295467855
  0
ELLIPSE
  5
92
330
17
100
AcDbEntity
  8
visible
100
AcDbEllipse
 10
-13.243261189709738
 20
-28.848694600081032
 30
0.0
 11
-4.2
 21
-0.0
 31
0.0
 40
0.3332824827321104
 41
-5.209024699645318
 42
-3.6382283728504214
  0
ELLIPSE
  5
93
330
17
100
AcDbEntity
  8
visible
100
AcDbEllipse
 10
-2.4659113407672564
 20
-19.42293372826041
 30
0.0
 11
-4.2
 21
-0.0
 31
0.0
 40
0.3332824827321104
 41
-2.067432046055525
 42
-1.996876705268706
  0
LINE
  5
94
330
17
100
AcDbEntity
  8
visible
100
AcDbLine
 10
-0.46473567376768443
 20
-18.192254778829614
 30
0.0
 11
3.052026384429639
 21
-18.82745172614457
 31
0.0
  0
ELLIPSE
  5
95
330
17
100
AcDbEntity
  8
visible
100
AcDbEllipse
 10
1.050850717430059
 20
-20.058130675575363
 30
0.0
 11
-4.2
 21
-0.0
 31
0.0
 40
0.3332824827321104
 41
-3.6382283728504214
 42
-2.067432046055525
  0
LINE
  5
96
330
17
100
AcDbEntity
  8
visible
100
AcDbLine
 10
4.743450878537253
 20
-20.72508747025607
 30
0.0
 11
-9.550661028602546
 21
-29.51565139476174
 31
0.0
  0
LINE
  5
97
330
17
100
AcDbEntity
  8
visible
100
AcDbLine
 10
5.44680329017671
 20
-21.60638847447254
 30
0.0
 11
-8.847308616963089
 21
-30.396952398978208
 31
0.0
  0
LINE
  5
98
330
17
100
AcDbEntity
  8
visible
100
AcDbLine
 10
5.44680329017671
 20
-27.640481392500284
 30
0.0
 11
5.44680329017671
 21
-21.60638847447254
 31
0.0
  0
ELLIPSE
  5
99
330
17
100
AcDbEntity
  8
visible
100
AcDbEllipse
 10
1.050850717430059
 20
-20.812392290328845
 30
0.0
 11
-5.0
 21
-0.0
 31
0.0
 40
0.3332824827321104
 41
-3.6382283728504214
 42
-3.141592653589793
  0
ELLIPSE
  5
9A
330
17
100
AcDbEntity
  8
visible
100
AcDbEllipse
 10
-12.352626661635025
 20
33.81583440195625
 30
0.0
 11
-0.41907692936795843
 21
0.6814503116673463
 31
0.0
 40
0.8289245714748877
 41
5.644889295467855
 42
6.283185307179586
  0
ELLIPSE
  5
9B
330
17
100
AcDbEntity
  8
visible
100
AcDbEllipse
 10
-12.352626661635025
 20
17.599209684756687
 30
0.0
 11
3.199388029191069
 21
17.713382405364282
 31
0.0
 40
0.44922916368941845
 41
-6.283185307179586
 42
-5.900899065721134
  0
ELLIPSE
  5
9C
330
17
100
AcDbEntity
  8
visible
100
AcDbEllipse
 10
-14.258508249253666
 20
32.64375921202216
 30
0.0
 11
-0.41907692936795843
 21
0.6814503116673462
 31
0.0
 40
0.8289245714748877
 41
5.644889295467855
 42
6.283185307179586
  0
LINE
  5
9D
330
17
100
AcDbEntity
  8
visible
100
AcDbLine
 10
-14.258508249253662
 20
33.398020826775635
 30
0.0
 11
-12.352626661635021
 21
34.570096016709726
 31
0.0
  0
ELLIPSE
  5
9E
330
17
100
AcDbEntity
  8
visible
100
AcDbEllipse
 10
-22.453799076013816
 20
11.387211178106
 30
0.0
 11
-0.8
 21
-0.0
 31
0.0
 40
0.3332824827321104
 41
-6.283185307179586
 42
-5.209024699645318
  0
ELLIPSE
  5
9F
330
17
100
AcDbEntity
  8
visible
100
AcDbEllipse
 10
-14.258508249253662
 20
16.427134494822596
 30
0.0
 11
3.199388029191069
 21
17.713382405364282
 31
0.0
 40
0.44922916368941845
 41
-5.900899065721134
 42
-4.330102738926238
  0
LINE
  5
A0
330
17
100
AcDbEntity
  8
visible
100
AcDbLine
 10
-22.834975393537544
 20
-19.48908195924045
 30
0.0
 11
-22.834975393537544
 21
11.152796140119193
 31
0.0
  0
LINE
  5
A1
330
17
100
AcDbEntity
  8
visible
100
AcDbLine
 10
-22.834975393537544
 20
-19.489081959240455
 30
0.0
 11
-18.966537129520486
 21
-20.187798601286907
 31
0.0
  0
ELLIPSE
  5
A2
330
17
100
AcDbEntity
  8
visible
100
AcDbEllipse
 10
-10.390069985236607
 20
-14.913460246583512
 30
0.0
 11
3.19938802919107
 21
17.713382405364282
 31
0.0
 40
0.44922916368941823
 41
-4.330102738926238
 42
-3.734375206356877
  0
ELLIPSE
  5
A3
330
17
100
AcDbEntity
  8
visible
100
AcDbEllipse
 10
4.743450878537253
 20
-21.479349085009552
 30
0.0
 11
-0.41907692936795826
 21
0.6814503116673464
 31
0.0
 40
0.8289245714748877
 41
4.074092968672958
 42
5.644889295467855
  0
ELLIPSE
  5
A4
330
17
100
AcDbEntity
  8
visible
100
AcDbEllipse
 10
-18.585360811996757
 20
-19.953383563300093
 30
0.0
 11
0.8
 21
9.420375130614892e-17
 31
0.0
 40
0.3332824827321106
 41
4.215753261124061
 42
5.786549587918958
  0
ELLIPSE
  5
A5
330
17
100
AcDbEntity
  8
visible
100
AcDbEllipse
 10
-0.46473567376768443
 20
-18.946516393583096
 30
0.0
 11
-0.14219502351960306
 21
-0.7872614402384126
 31
0.0
 40
0.44922916368941834
 41
3.141592653589793
 42
3.523878895048245
  0
ELLIPSE
  5
A6
330
17
100
AcDbEntity
  8
visible
100
AcDbEllipse
 10
3.052026384429631
 20
-19.581713340898048
 30
0.0
 11
-0.1421950235196031
 21
-0.7872614402384126
 31
0.0
 40
0.4492291636894184
 41
3.141592653589793
 42
3.523878895048245
  0
LINE
  5
A7
330
17
100
AcDbEntity
  8
visible
100
AcDbLine
 10
0.5111024291421842
 20
0.3266973754471944
 30
0.0
 11
1.5840870329223526
 21
0.1328950841467489
 31
0.0
  0
ELLIPSE
  5
A8
330
17
100
AcDbEntity
  8
visible
100
AcDbEllipse
 10
1.3458518344700252
 20
-0.013614314595017163
 30
0.0
 11
-0.5
 21
-0.0
 31
0.0
 40
0.3332824827321104
 41
-3.6382283728504214
 42
-2.067432046055525
  0
LINE
  5
A9
330
17
100
AcDbEntity
  8
visible
100
AcDbLine
 10
1.785447091744686
 20
-0.09301393300937377
 30
0.0
 11
0.5111024291421842
 21
-0.8767078267772327
 31
0.0
  0
LINE
  5
AA
330
17
100
AcDbEntity
  8
visible
100
AcDbLine
 10
-12.352626661635025
 20
34.57009601670971
 30
0.0
 11
-8.484188397617967
 21
33.87137937466326
 31
0.0
  0
ELLIPSE
  5
AB
330
17
100
AcDbEntity
  8
visible
100
AcDbEllipse
 10
-8.48418839761797
 20
16.900493042710224
 30
0.0
 11
3.199388029191069
 21
17.713382405364282
 31
0.0
 40
0.44922916368941845
 41
-6.283185307179586
 42
-5.900899065721134
  0
LINE
  5
AC
330
17
100
AcDbEntity
  8
visible
100
AcDbLine
 10
-14.258508249253662
 20
33.398020826775635
 30
0.0
 11
-10.390069985236604
 21
32.699304184729186
 31
0.0
  0
LINE
  5
AD
330
17
100
AcDbEntity
  8
visible
100
AcDbLine
 10
-10.390069985236607
 20
32.69930418472917
 30
0.0
 11
-8.484188397617967
 21
33.87137937466326
 31
0.0
  0
LINE
  5
AE
330
17
100
AcDbEntity
  8
visible
100
AcDbLine
 10
-22.834975393537544
 20
11.15279614011918
 30
0.0
 11
-18.966537129520486
 21
10.454079498072728
 31
0.0
  0
ELLIPSE
  5
AF
330
17
100
AcDbEntity
  8
visible
100
AcDbEllipse
 10
-10.390069985236607
 20
15.728417852776133
 30
0.0
 11
3.199388029191069
 21
17.713382405364282
 31
0.0
 40
0.44922916368941845
 41
-5.900899065721134
 42
-4.330102738926238
  0
LINE
  5
B0
330
17
100
AcDbEntity
  8
visible
100
AcDbLine
 10
-18.96653712952049
 20
-20.187798601286907
 30
0.0
 11
-18.96653712952049
 21
10.454079498072737
 31
0.0
  0
LINE
  5
B1
330
17
100
AcDbEntity
  8
visible
100
AcDbLine
 10
0.4629740788629566
 20
-10.507120402431722
 30
0.0
 11
1.5840870329223526
 21
-10.709615627934358
 31
0.0
  0
ELLIPSE
  5
B2
330
17
100
AcDbEntity
  8
visible
100
AcDbEllipse
 10
1.3458518344700252
 20
-10.85612502667611
 30
0.0
 11
-0.5
 21
-0.0
 31
0.0
 40
0.3332824827321104
 41
-3.6382283728504214
 42
-2.067432046055525
  0
LINE
  5
B3
330
17
100
AcDbEntity
  8
visible
100
AcDbLine
 10
1.785447091744686
 20
-10.935524645090481
 30
0.0
 11
0.37132739804902326
 21
-11.8051771037455
 31
0.0
  0
ELLIPSE
  5
B4
330
17
100
AcDbEntity
  8
visible
100
AcDbEllipse
 10
-0.7160679069086981
 20
-14.940312297836073
 30
0.0
 11
-0.5065697712885853
 21
-2.8046188808493446
 31
0.0
 40
0.4492291636894184
 41
0.3822862414584516
 42
6.665471548638038
  0
ELLIPSE
  5
B5
330
17
100
AcDbEntity
  8
visible
100
AcDbEllipse
 10
-10.245475845001899
 20
-20.80068824750652
 30
0.0
 11
-0.5065697712885853
 21
-2.8046188808493446
 31
0.0
 40
0.4492291636894184
 41
0.3822862414584516
 42
6.665471548638038
  0
ELLIPSE
  5
B6
330
17
100
AcDbEntity
  8
visible
100
AcDbEllipse
 10
-18.585360811996757
 20
10.688494536059551
 30
0.0
 11
0.8
 21
0.0
 31
0.0
 40
0.3332824827321104
 41
4.215753261124061
 42
5.786549587918958
  0
ELLIPSE
  5
B7
330
17
100
AcDbEntity
  8
visible
100
AcDbEllipse
 10
-0.2888975708578201
 20
-8.701461739932824
 30
0.0
 11
-0.8
 21
-0.0
 31
0.0
 40
0.3332824827321104
 41
-3.6382283728504214
 42
-3.141592653589793
  0
ELLIPSE
  5
B8
330
17
100
AcDbEntity
  8
visible
100
AcDbEllipse
 10
1.785447091744686
 20
-11.406938154311405
 30
0.0
 11
-0.261923080854974
 21
0.4259064447920914
 31
0.0
 40
0.8289245714748877
 41
4.074092968672958
 42
5.644889295467855
  0
ELLIPSE
  5
B9
330
17
100
AcDbEntity
  8
visible
100
AcDbEllipse
 10
1.3458518344700252
 20
-15.098846609664392
 30
0.0
 11
-1.0
 21
-0.0
 31
0.0
 40
0.3332824827321104
 41
-3.6382283728504214
 42
-3.141592653589793
  0
ELLIPSE
  5
BA
330
17
100
AcDbEntity
  8
visible
100
AcDbEllipse
 10
1.3458518344700252
 20
-11.327538535897034
 30
0.0
 11
-1.0
 21
-0.0
 31
0.0
 40
0.3332824827321104
 41
-3.6382283728504214
 42
-3.141592653589793
  0
ELLIPSE
  5
BB
330
17
100
AcDbEntity
  8
visible
100
AcDbEllipse
 10
1.785447091744686
 20
-15.178246228078748
 30
0.0
 11
0.261923080854974
 21
-0.4259064447920914
 31
0.0
 40
0.8289245714748877
 41
-6.283185307179586
 42
-5.350684992096421
  0
ELLIPSE
  5
BC
330
17
100
AcDbEntity
  8
visible
100
AcDbEllipse
 10
-10.390069985236607
 20
31.945042569975698
 30
0.0
 11
0.41907692936795843
 21
-0.6814503116673462
 31
0.0
 40
0.8289245714748877
 41
-5.350684992096421
 42
-3.7798886653015247
  0
ELLIPSE
  5
BD
330
17
100
AcDbEntity
  8
visible
100
AcDbEllipse
 10
-8.48418839761797
 20
33.11711775990979
 30
0.0
 11
0.41907692936795843
 21
-0.6814503116673463
 31
0.0
 40
0.8289245714748877
 41
-5.350684992096421
 42
-3.7798886653015247
  0
ELLIPSE
  5
BE
330
17
100
AcDbEntity
  8
visible
100
AcDbEllipse
 10
1.785447091744686
 20
-0.5644274422302971
 30
0.0
 11
-0.261923080854974
 21
0.4259064447920914
 31
0.0
 40
0.8289245714748877
 41
4.074092968672958
 42
5.644889295467855
  0
ELLIPSE
  5
BF
330
17
100
AcDbEntity
  8
visible
100
AcDbEllipse
 10
1.3458518344700252
 20
-4.25633589758327
 30
0.0
 11
-1.0
 21
-0.0
 31
0.0
 40
0.3332824827321104
 41
-3.6382283728504214
 42
-3.141592653589793
  0
ELLIPSE
  5
C0
330
17
100
AcDbEntity
  8
visible
100
AcDbEllipse
 10
1.3458518344700252
 20
-0.48502782381594045
 30
0.0
 11
-1.0
 21
-0.0
 31
0.0
 40
0.3332824827321104
 41
-3.6382283728504214
 42
-3.141592653589793
  0
ELLIPSE
  5
C1
330
17
100
AcDbEntity
  8
visible
100
AcDbEllipse
 10
1.785447091744686
 20
-4.335735515997641
 30
0.0
 11
0.261923080854974
 21
-0.4259064447920914
 31
0.0
 40
0.8289245714748877
 41
-6.283185307179586
 42
-5.350684992096421
  0
ELLIPSE
  5
C2
330
17
100
AcDbEntity
  8
visible
100
AcDbEllipse
 10
-1.067744112728434
 20
-14.876792603104576
 30
0.0
 11
-0.5776672830483867
 21
-3.198249600968551
 31
0.0
 40
0.4492291636894184
 41
3.141592653589793
 42
6.283185307179586
  0
ELLIPSE
  5
C3
330
17
100
AcDbEntity
  8
visible
100
AcDbEllipse
 10
16.51606617825817
 20
19.188889888773133
 30
0.0
 11
-0.5776672830483867
 21
-3.198249600968551
 31
0.0
 40
0.4492291636894184
 41
3.141592653589793
 42
6.283185307179586
  0
ELLIPSE
  5
C4
330
17
100
AcDbEntity
  8
visible
100
AcDbEllipse
 10
-10.597152050821634
 20
-20.737168552775024
 30
0.0
 11
-0.5776672830483867
 21
-3.198249600968551
 31
0.0
 40
0.4492291636894184
 41
3.141592653589793
 42
6.283185307179586
  0
ELLIPSE
  5
C5
330
17
100
AcDbEntity
  8
visible
100
AcDbEllipse
 10
6.986658240164971
 20
13.328513939102692
 30
0.0
 11
-0.5776672830483867
 21
-3.198249600968551
 31
0.0
 40
0.4492291636894184
 41
3.141592653589793
 42
6.283185307179586
  0
ELLIPSE
  5
C6
330
17
100
AcDbEntity
  8
visible
100
AcDbEllipse
 10
1.5840870329223549
 20
-0.3385184250741702
 30
0.0
 11
-0.08887188969975192
 21
-0.49203840014900785
 31
0.0
 40
0.4492291636894184
 41
3.141592653589793
 42
3.523878895048245
  0
ELLIPSE
  5
C7
330
17
100
AcDbEntity
  8
visible
100
AcDbEllipse
 10
1.5840870329223549
 20
-11.181029137155278
 30
0.0
 11
-0.08887188969975192
 21
-0.49203840014900785
 31
0.0
 40
0.4492291636894184
 41
3.141592653589793
 42
3.523878895048245
  0
ELLIPSE
  5
C8
330
17
100
AcDbEntity
  8
visible
100
AcDbEllipse
 10
16.8677423840779
 20
19.125370194041636
 30
0.0
 11
-0.5065697712885853
 21
-2.8046188808493446
 31
0.0
 40
0.4492291636894184
 41
0.3822862414584516
 42
6.665471548638038
  0
ELLIPSE
  5
C9
330
17
100
AcDbEntity
  8
visible
100
AcDbEllipse
 10
7.3383344459846995
 20
13.264994244371195
 30
0.0
 11
-0.5065697712885853
 21
-2.8046188808493446
 31
0.0
 40
0.4492291636894184
 41
0.3822862414584516
 42
6.665471548638038
  0
LINE
  5
CA
330
17
100
AcDbEntity
  8
visible
100
AcDbLine
 10
-15.386631880228911
 20
-37.654989522531466
 30
0.0
 11
-18.90339393842623
 21
-37.019792575216506
 31
0.0
  0
SPLINE
  5
CB
330
17
100
AcDbEntity
  8
visible
100
AcDbSpline
 70
0
 71
3
 72
14
 73
10
 74
0
 40
0.0
 40
0.0
 40
0.0
 40
0.0
 40
0.29216253413493554
 40
0.29216253413493554
 40
0.29216253413493554
 40
0.4812999390031648
 40
0.4812999390031648
 40
0.4812999390031648
 40
1.0
 40
1.0
 40
1.0
 40
1.0
 10
-9.131584099234585
 20
-36.9854562392103
 30
0.0
 10
-9.5245119060071
 20
-37.226323044804715
 30
0.0
 10
-10.019016138572363
 20
-37.40983371117124
 30
0.0
 10
-10.596971520987566
 20
-37.54961416826347
 30
0.0
 10
-10.97286185175226
 20
-37.639796855114845
 30
0.0
 10
-11.375420433483658
 20
-37.709136204585334
 30
0.0
 10
-11.804647266181762
 20
-37.7576322166749
 30
0.0
 10
-12.975360892274898
 20
-37.891339920949214
 30
0.0
 10
-14.291076863269774
 20
-37.85443574632916
 30
0.0
 10
-15.386631880228911
 20
-37.65498952253146
 30
0.0
  0
SPLINE
  5
CC
330
17
100
AcDbEntity
  8
visible
100
AcDbSpline
 70
0
 71
3
 72
17
 73
13
 74
0
 40
0.0
 40
0.0
 40
0.0
 40
0.0
 40
0.3333333333333333
 40
0.3333333333333333
 40
0.3333333333333333
 40
0.6666666666666666
 40
0.6666666666666666
 40
0.6666666666666666
 40
0.8333333333333333
 40
0.8333333333333333
 40
0.8333333333333333
 40
1.0
 40
1.0
 40
1.0
 40
1.0
 10
-18.903393938426227
 20
-37.0197925752165
 30
0.0
 10
-19.500917604949286
 20
-36.911644487206445
 30
0.0
 10
-20.032955969593132
 20
-36.759084101367336
 30
0.0
 10
-20.47142729886859
 20
-36.56089358891437
 30
0.0
 10
-20.706178324848157
 20
-36.45573415440516
 30
0.0
 10
-20.91475597720841
 20
-36.33405843211848
 30
0.0
 10
-21.097160255949298
 20
-36.19586642205424
 30
0.0
 10
-21.289124462723116
 20
-36.04797520245455
 30
0.0
 10
-21.455006700513273
 20
-35.876598482563125
 30
0.0
 10
-21.573054828684363
 20
-35.673529874806725
 30
0.0
 10
-21.691040973120028
 20
-35.471777724636695
 30
0.0
 10
-21.761193007936644
 20
-35.23833368660182
 30
0.0
 10
-21.760023247907057
 20
-35.00185218554729
 30
0.0
  0
LINE
  5
CD
330
17
100
AcDbEntity
  8
visible
100
AcDbLine
 10
-21.760023247907057
 20
-35.0018521855473
 30
0.0
 11
-21.760023247907057
 21
-28.967759267519558
 31
0.0
  0
LINE
  5
CE
330
17
100
AcDbEntity
  8
visible
100
AcDbLine
 10
5.162527807905207
 20
-28.19489231470464
 30
0.0
 11
-9.131584099234592
 21
-36.98545623921031
 31
0.0
  0
SPLINE
  5
CF
330
17
100
AcDbEntity
  8
visible
100
AcDbSpline
 70
0
 71
3
 72
14
 73
10
 74
0
 40
0.0
 40
0.0
 40
0.0
 40
0.0
 40
0.5
 40
0.5
 40
0.5
 40
0.75
 40
0.75
 40
0.75
 40
1.0
 40
1.0
 40
1.0
 40
1.0
 10
6.050850717430066
 20
-26.846485208356576
 30
0.0
 10
6.050821069354174
 20
-26.92097905417716
 30
0.0
 10
6.044322130178788
 20
-26.99486470497018
 30
0.0
 10
6.031353899903905
 20
-27.068142160735558
 30
0.0
 10
5.989541271401979
 20
-27.307011280521962
 30
0.0
 10
5.878767124050825
 20
-27.52885815593012
 30
0.0
 10
5.727012799805845
 20
-27.71529486169775
 30
0.0
 10
5.572979536843018
 20
-27.900972152791145
 30
0.0
 10
5.384817872876141
 20
-28.060837970460117
 30
0.0
 10
5.162527807905207
 20
-28.194892314704642
 30
0.0
  0
SPLINE
  5
D0
330
17
100
AcDbEntity
  8
visible
100
AcDbSpline
 70
0
 71
3
 72
11
 73
7
 74
0
 40
0.0
 40
0.0
 40
0.0
 40
0.0
 40
0.4927315462675242
 40
0.4927315462675242
 40
0.4927315462675242
 40
1.0
 40
1.0
 40
1.0
 40
1.0
 10
-21.55990310883468
 20
-28.27410440762103
 30
0.0
 10
-22.106953936654083
 20
-27.151301577981073
 30
0.0
 10
-22.52692253817498
 20
-25.812603081569577
 30
0.0
 10
-22.811729028205086
 20
-24.313004388395264
 30
0.0
 10
-23.105051991101785
 20
-22.76986613835525
 30
0.0
 10
-23.253994879278775
 20
-21.056384665865224
 30
0.0
 10
-23.253799076013813
 20
-19.254666921253637
 30
0.0
  0
SPLINE
  5
D1
330
17
100
AcDbEntity
  8
visible
100
AcDbSpline
 70
0
 71
3
 72
8
 73
4
 74
0
 40
0.0
 40
0.0
 40
0.0
 40
0.0
 40
1.0
 40
1.0
 40
1.0
 40
1.0
 10
-21.55385245096356
 20
-28.264238523369073
 30
0.0
 10
-21.684153881627335
 20
-28.473265018548766
 30
0.0
 10
-21.760727258021248
 20
-28.71882233316972
 30
0.0
 10
-21.760023247907057
 20
-28.96775926751956
 30
0.0
  0
LINE
  5
D2
330
17
100
AcDbEntity
  8
visible
100
AcDbLine
 10
6.050850717430066
 20
-26.846485208356583
 30
0.0
 11
6.050850717430066
 21
-20.81239229032884
 31
0.0
  0
SPLINE
  5
D3
330
17
100
AcDbEntity
  8
visible
100
AcDbSpline
 70
0
 71
3
 72
11
 73
7
 74
0
 40
0.0
 40
0.0
 40
0.0
 40
0.0
 40
0.5546824266531214
 40
0.5546824266531214
 40
0.5546824266531214
 40
1.0
 40
1.0
 40
1.0
 40
1.0
 10
-12.771703591002982
 20
34.497284713623586
 30
0.0
 10
-12.117779519143436
 20
34.89953444396417
 30
0.0
 10
-11.445688564951244
 20
35.17402806325778
 30
0.0
 10
-10.769045235567422
 20
35.30080002841787
 30
0.0
 10
-10.22626802322099
 20
35.4027745789105
 30
0.0
 10
-9.68109147130842
 20
35.40818648686479
 30
0.0
 10
-9.153238632443959
 20
35.31259209012096
 30
0.0
  0
LINE
  5
D4
330
17
100
AcDbEntity
  8
visible
100
AcDbLine
 10
-14.67758517862162
 20
33.32520952368951
 30
0.0
 11
-12.771703591002979
 21
34.4972847136236
 31
0.0
  0
SPLINE
  5
D5
330
17
100
AcDbEntity
  8
visible
100
AcDbSpline
 70
0
 71
3
 72
17
 73
13
 74
0
 40
0.0
 40
0.0
 40
0.0
 40
0.0
 40
0.23912550539443492
 40
0.23912550539443492
 40
0.23912550539443492
 40
0.5299076731559178
 40
0.5299076731559178
 40
0.5299076731559178
 40
0.8598805121284498
 40
0.8598805121284498
 40
0.8598805121284498
 40
1.0
 40
1.0
 40
1.0
 40
1.0
 10
-23.253799076013813
 20
11.387211178106
 30
0.0
 10
-23.25424850338794
 20
13.474121431010229
 30
0.0
 10
-23.05348896164715
 20
15.678401081635172
 30
0.0
 10
-22.665731144831863
 20
17.852123608647943
 30
0.0
 10
-22.195549384556728
 20
20.495911575833915
 30
0.0
 10
-21.447982237900916
 20
23.090138480618076
 30
0.0
 10
-20.494899038216225
 20
25.37964688132258
 30
0.0
 10
-19.413909643739057
 20
27.98139063080485
 30
0.0
 10
-18.07413405814396
 20
30.182440345786677
 30
0.0
 10
-16.608792801387956
 20
31.723193846522744
 30
0.0
 10
-15.985158252339236
 20
32.38105019769363
 30
0.0
 10
-15.341422378083815
 20
32.91505542341589
 30
0.0
 10
-14.67758517862162
 20
33.325209523689495
 30
0.0
  0
LINE
  5
D6
330
17
100
AcDbEntity
  8
visible
100
AcDbLine
 10
-23.253799076013813
 20
-19.254666921253637
 30
0.0
 11
-23.253799076013813
 21
11.387211178106007
 31
0.0
  0
SPLINE
  5
D7
330
17
100
AcDbEntity
  8
visible
100
AcDbSpline
 70
0
 71
2
 72
6
 73
3
 74
0
 40
0.0
 40
0.0
 40
0.0
 40
1.0
 40
1.0
 40
1.0
 10
-0.6232772614834583
 20
-17.729537213274757
 30
0.0
 10
-0.8039941593207403
 20
-18.455620952336364
 30
0.0
 10
-1.0107872234446944
 20
-19.16515512132446
 30
0.0
  0
SPLINE
  5
D8
330
17
100
AcDbEntity
  8
visible
100
AcDbSpline
 70
0
 71
2
 72
6
 73
3
 74
0
 40
0.0
 40
0.0
 40
0.0
 40
1.0
 40
1.0
 40
1.0
 10
-0.7164353833073138
 20
-18.096055960228075
 30
0.0
 10
-0.5155454757242761
 20
-18.124402813039403
 30
0.0
 10
-0.32254065024807943
 20
-18.15925495334468
 30
0.0
  0
LINE
  5
D9
330
17
100
AcDbEntity
  8
visible
100
AcDbLine
 10
-0.32254065024807943
 20
-18.15925495334468
 30
0.0
 11
3.194221407949241
 21
-18.794451900659634
 31
0.0
  0
SPLINE
  5
DA
330
17
100
AcDbEntity
  8
visible
100
AcDbSpline
 70
0
 71
3
 72
17
 73
13
 74
0
 40
0.0
 40
0.0
 40
0.0
 40
0.0
 40
0.3333333333333333
 40
0.3333333333333333
 40
0.3333333333333333
 40
0.6666666666666666
 40
0.6666666666666666
 40
0.6666666666666666
 40
0.8333333333333333
 40
0.8333333333333333
 40
0.8333333333333333
 40
1.0
 40
1.0
 40
1.0
 40
1.0
 10
3.194221407949236
 20
-18.794451900659638
 30
0.0
 10
3.791745074472305
 20
-18.90259998866965
 30
0.0
 10
4.323783439116145
 20
-19.055160374508834
 30
0.0
 10
4.7622547683916
 20
-19.25335088696177
 30
0.0
 10
4.997005794371175
 20
-19.35851032147095
 30
0.0
 10
5.205583446731416
 20
-19.480186043757683
 30
0.0
 10
5.387987725472314
 20
-19.6183780538219
 30
0.0
 10
5.579951932246127
 20
-19.76626927342156
 30
0.0
 10
5.74583417003629
 20
-19.937645993313033
 30
0.0
 10
5.863882298207374
 20
-20.140714601069412
 30
0.0
 10
5.981868442643041
 20
-20.342466751239403
 30
0.0
 10
6.052020477459651
 20
-20.575910789274367
 30
0.0
 10
6.050850717430066
 20
-20.812392290328845
 30
0.0
  0
LINE
  5
DB
330
17
100
AcDbEntity
  8
visible
100
AcDbLine
 10
-5.284800368426897
 20
34.61387544807451
 30
0.0
 11
-9.153238632443955
 21
35.31259209012096
 31
0.0
  0
SPLINE
  5
DC
330
17
100
AcDbEntity
  8
visible
100
AcDbSpline
 70
0
 71
3
 72
8
 73
4
 74
0
 40
0.0
 40
0.0
 40
0.0
 40
0.0
 40
0.9963465464013139
 40
0.9963465464013139
 40
0.9963465464013139
 40
0.9963465464013139
 10
0.5111024291421842
 20
-8.701461739932839
 30
0.0
 10
0.5111473040169794
 20
-9.878046820538637
 30
0.0
 10
0.44779826092160285
 20
-11.09170075881351
 30
0.0
 10
0.32261518301295555
 20
-12.316345180403108
 30
0.0
  0
LINE
  5
DD
330
17
100
AcDbEntity
  8
visible
100
AcDbLine
 10
2.345851834470018
 20
-15.098846609664383
 30
0.0
 11
2.345851834470018
 21
-11.327538535897041
 31
0.0
  0
LINE
  5
DE
330
17
100
AcDbEntity
  8
visible
100
AcDbLine
 10
2.0473701725996634
 20
-15.604152672870839
 30
0.0
 11
0.03694450751056522
 21
-16.840520167349815
 31
0.0
  0
SPLINE
  5
DF
330
17
100
AcDbEntity
  8
visible
100
AcDbSpline
 70
0
 71
3
 72
14
 73
10
 74
0
 40
0.0
 40
0.0
 40
0.0
 40
0.0
 40
0.20015447862196317
 40
0.20015447862196317
 40
0.20015447862196317
 40
0.33549038393989705
 40
0.33549038393989705
 40
0.33549038393989705
 40
0.8191163359295575
 40
0.8191163359295575
 40
0.8191163359295575
 40
0.8191163359295575
 10
-5.284800368426899
 20
34.6138754480745
 30
0.0
 10
-4.556760865885694
 20
34.48310157834962
 30
0.0
 10
-3.8674543063022666
 20
34.15996431524885
 30
0.0
 10
-3.2541800734006876
 20
33.676835064764
 30
0.0
 10
-2.838623015191203
 20
33.3488854684289
 30
0.0
 10
-2.456509224990489
 20
32.953238371889114
 30
0.0
 10
-2.1078387027985377
 20
32.48989377514465
 30
0.0
 10
-0.863797201417613
 20
30.841913041501428
 30
0.0
 10
-0.042395998270069915
 20
28.371476232230854
 30
0.0
 10
0.31209944267481693
 20
25.41823528843094
 30
0.0
  0
LINE
  5
E0
330
17
100
AcDbEntity
  8
visible
100
AcDbLine
 10
0.5111024291421842
 20
18.777115874837087
 30
0.0
 11
0.5111024291421842
 21
17.800715460600625
 31
0.0
  0
LINE
  5
E1
330
17
100
AcDbEntity
  8
visible
100
AcDbLine
 10
0.5111024291421842
 20
11.195539931585467
 30
0.0
 11
0.5111024291421842
 21
-1.3516751203268456
 31
0.0
  0
LINE
  5
E2
330
17
100
AcDbEntity
  8
visible
100
AcDbLine
 10
2.345851834470018
 20
-4.256335897583275
 30
0.0
 11
2.345851834470018
 21
-0.48502782381593423
 31
0.0
  0
LINE
  5
E3
330
17
100
AcDbEntity
  8
visible
100
AcDbLine
 10
2.0473701725996634
 20
-4.761641960789731
 30
0.0
 11
0.5111024291421842
 21
-5.706412779134421
 31
0.0
  0
LINE
  5
E4
330
17
100
AcDbEntity
  8
visible
100
AcDbLine
 10
0.5111024291421842
 20
-5.680151156678647
 30
0.0
 11
0.5111024291421842
 21
-8.701461739932839
 31
0.0
  0
LINE
  5
E5
330
17
100
AcDbEntity
  8
visible
100
AcDbLine
 10
-4.546740093789611
 20
-17.551004722538288
 30
0.0
 11
-1.6454113957768186
 21
-18.075042204073124
 31
0.0
  0
LINE
  5
E6
330
17
100
AcDbEntity
  8
visible
100
AcDbLine
 10
-3.3914055276928425
 20
-11.154505520601175
 30
0.0
 11
-0.4900768296800493
 21
-11.678543002136015
 31
0.0
  0
LINE
  5
E7
330
17
100
AcDbEntity
  8
visible
100
AcDbLine
 10
-4.546740093789611
 20
19.69066250591422
 30
0.0
 11
15.938398895209776
 21
15.990640287804604
 31
0.0
  0
LINE
  5
E8
330
17
100
AcDbEntity
  8
visible
100
AcDbLine
 10
-3.3914055276928425
 20
26.08716170785131
 30
0.0
 11
17.093733461306545
 21
22.387139489741692
 31
0.0
  0
LINE
  5
E9
330
17
100
AcDbEntity
  8
visible
100
AcDbLine
 10
-14.076148031882813
 20
-23.411380672208736
 30
0.0
 11
-11.174819333870019
 21
-23.935418153743573
 31
0.0
  0
LINE
  5
EA
330
17
100
AcDbEntity
  8
visible
100
AcDbLine
 10
-12.92081346578604
 20
-17.014881470271632
 30
0.0
 11
-10.019484767773246
 21
-17.53891895180647
 31
0.0
  0
LINE
  5
EB
330
17
100
AcDbEntity
  8
visible
100
AcDbLine
 10
-14.076148031882813
 20
13.830286556243765
 30
0.0
 11
6.4089909571165755
 21
10.130264338134149
 31
0.0
  0
LINE
  5
EC
330
17
100
AcDbEntity
  8
visible
100
AcDbLine
 10
-12.92081346578604
 20
20.226785758180853
 30
0.0
 11
7.564325523213348
 21
16.526763540071236
 31
0.0
  0
LINE
  5
ED
330
17
100
AcDbEntity
  8
visible
100
AcDbLine
 10
0.5111024291421842
 20
0.3633742915351361
 30
0.0
 11
1.6729589226221058
 21
0.15351997507483905
 31
0.0
  0
SPLINE
  5
EE
330
17
100
AcDbEntity
  8
visible
100
AcDbSpline
 70
0
 71
3
 72
17
 73
13
 74
0
 40
0.0
 40
0.0
 40
0.0
 40
0.0
 40
0.43455988156882086
 40
0.43455988156882086
 40
0.43455988156882086
 40
0.6518398223532313
 40
0.6518398223532313
 40
0.6518398223532313
 40
0.7827200592155896
 40
0.7827200592155896
 40
0.7827200592155896
 40
1.0
 40
1.0
 40
1.0
 40
1.0
 10
1.672958922622108
 20
0.15351997507484327
 30
0.0
 10
1.8131580901166515
 20
0.1278956372451279
 30
0.0
 10
1.9404186687021672
 20
0.08637254319323759
 30
0.0
 10
2.0491623781249757
 20
0.019172655531065175
 30
0.0
 10
2.0885612646917804
 20
-0.005098792268081829
 30
0.0
 10
2.1250063166578483
 20
-0.03283228323194172
 30
0.0
 10
2.1584975340231765
 20
-0.06402781736051455
 30
0.0
 10
2.178589005095903
 20
-0.08281647540079773
 30
0.0
 10
2.197289511690088
 20
-0.10274530797676766
 30
0.0
 10
2.2145990538057276
 20
-0.12381431508842411
 30
0.0
 10
2.2992108994381333
 20
-0.22623683730271923
 30
0.0
 10
2.3462047091663454
 20
-0.35527137688771165
 30
0.0
 10
2.345851834470018
 20
-0.48502782381594045
 30
0.0
  0
SPLINE
  5
EF
330
17
100
AcDbEntity
  8
visible
100
AcDbSpline
 70
0
 71
3
 72
11
 73
7
 74
0
 40
0.0
 40
0.0
 40
0.0
 40
0.0
 40
0.5
 40
0.5
 40
0.5
 40
1.0
 40
1.0
 40
1.0
 40
1.0
 10
2.345851834470018
 20
-4.256335897583284
 30
0.0
 10
2.346210753059146
 20
-4.386626945131871
 30
0.0
 10
2.298816390042898
 20
-4.516181016710435
 30
0.0
 10
2.2135607468953538
 20
-4.618810840316911
 30
0.0
 10
2.166615069385994
 20
-4.675095929508034
 30
0.0
 10
2.111218211287431
 20
-4.722706302998977
 30
0.0
 10
2.0473701725996634
 20
-4.761641960789731
 30
0.0
  0
LINE
  5
F0
330
17
100
AcDbEntity
  8
visible
100
AcDbLine
 10
0.4648671902744006
 20
-10.470785419795511
 30
0.0
 11
1.6729589226221058
 21
-10.688990737006268
 31
0.0
  0
SPLINE
  5
F1
330
17
100
AcDbEntity
  8
visible
100
AcDbSpline
 70
0
 71
3
 72
17
 73
13
 74
0
 40
0.0
 40
0.0
 40
0.0
 40
0.0
 40
0.43455988156882086
 40
0.43455988156882086
 40
0.43455988156882086
 40
0.6518398223532313
 40
0.6518398223532313
 40
0.6518398223532313
 40
0.7827200592155896
 40
0.7827200592155896
 40
0.7827200592155896
 40
1.0
 40
1.0
 40
1.0
 40
1.0
 10
1.672958922622108
 20
-10.688990737006264
 30
0.0
 10
1.8131580901166515
 20
-10.71461507483598
 30
0.0
 10
1.9404186687021672
 20
-10.75613816888786
 30
0.0
 10
2.0491623781249757
 20
-10.823338056550043
 30
0.0
 10
2.0885612646917804
 20
-10.847609504349187
 30
0.0
 10
2.1250063166578483
 20
-10.875342995313051
 30
0.0
 10
2.1584975340231765
 20
-10.906538529441622
 30
0.0
 10
2.178589005095903
 20
-10.925327187481903
 30
0.0
 10
2.197289511690088
 20
-10.945256020057876
 30
0.0
 10
2.2145990538057276
 20
-10.966325027169532
 30
0.0
 10
2.2992108994381333
 20
-11.068747549383826
 30
0.0
 10
2.3462047091663454
 20
-11.197782088968822
 30
0.0
 10
2.345851834470018
 20
-11.327538535897048
 30
0.0
  0
SPLINE
  5
F2
330
17
100
AcDbEntity
  8
visible
100
AcDbSpline
 70
0
 71
3
 72
11
 73
7
 74
0
 40
0.0
 40
0.0
 40
0.0
 40
0.0
 40
0.5
 40
0.5
 40
0.5
 40
1.0
 40
1.0
 40
1.0
 40
1.0
 10
2.345851834470018
 20
-15.098846609664392
 30
0.0
 10
2.346210753059146
 20
-15.22913765721297
 30
0.0
 10
2.298816390042898
 20
-15.358691728791555
 30
0.0
 10
2.2135607468953538
 20
-15.461321552398019
 30
0.0
 10
2.166615069385994
 20
-15.517606641589142
 30
0.0
 10
2.111218211287431
 20
-15.565217015080085
 30
0.0
 10
2.0473701725996634
 20
-15.604152672870839
 30
0.0
  0
SPLINE
  5
F3
330
17
100
AcDbEntity
  8
visible
100
AcDbSpline
 70
0
 71
3
 72
26
 73
22
 74
0
 40
0.0
 40
0.0
 40
0.0
 40
0.0
 40
0.12742663448041605
 40
0.12742663448041605
 40
0.12742663448041605
 40
0.4040427451671329
 40
0.4040427451671329
 40
0.4040427451671329
 40
0.5314693796475489
 40
0.5314693796475489
 40
0.5314693796475489
 40
0.658896014127965
 40
0.658896014127965
 40
0.658896014127965
 40
0.786322648608381
 40
0.786322648608381
 40
0.786322648608381
 40
0.8725733655195839
 40
0.8725733655195839
 40
0.8725733655195839
 40
1.0
 40
1.0
 40
1.0
 40
1.0
 10
-0.8582056480444535
 20
-17.90457476149748
 30
0.0
 10
-0.775416012348858
 20
-17.853568783302247
 30
0.0
 10
-0.6947670787785145
 20
-17.793154484356066
 30
0.0
 10
-0.6162588473334203
 20
-17.723331864658952
 30
0.0
 10
-0.4454609400773796
 20
-17.57077896269355
 30
0.0
 10
-0.28686696637419085
 20
-17.37940045974891
 30
0.0
 10
-0.1404769262238546
 20
-17.149196355825005
 30
0.0
 10
0.1930653969483961
 20
-16.62769594959034
 30
0.0
 10
0.4531092548218732
 20
-15.915238604452803
 30
0.0
 10
0.5861029234388937
 20
-15.173795435265063
 30
0.0
 10
0.7208442908567358
 20
-14.430823340900822
 30
0.0
 10
0.72573966386135
 20
-13.670822123918105
 30
0.0
 10
0.5943674383358442
 20
-13.065284796305576
 30
0.0
 10
0.5317845857854199
 20
-12.77281726929078
 30
0.0
 10
0.43911336029204756
 20
-12.51953214191198
 30
0.0
 10
0.31635376185572983
 20
-12.305429414169229
 30
0.0
 10
0.2331709966892622
 20
-12.161068187293258
 30
0.0
 10
0.13642020969597207
 20
-12.038907389244077
 30
0.0
 10
0.026101400875859368
 20
-11.93894702002167
 30
0.0
 10
-0.12742004617773373
 20
-11.8007400578521
 30
0.0
 10
-0.29947945636303647
 20
-11.713938718556891
 30
0.0
 10
-0.4900768296800493
 20
-11.678543002136024
 30
0.0
  0
SPLINE
  5
F4
330
17
100
AcDbEntity
  8
visible
100
AcDbSpline
 70
0
 71
3
 72
8
 73
4
 74
0
 40
0.0
 40
0.0
 40
0.0
 40
0.0
 40
1.0
 40
1.0
 40
1.0
 40
1.0
 10
-1.6454113957768186
 20
-18.075042204073128
 30
0.0
 10
-1.3853931448156964
 20
-18.122621390594936
 30
0.0
 10
-1.1101469324756459
 20
-18.060566619635093
 30
0.0
 10
-0.8582056480444537
 20
-17.90457476149748
 30
0.0
  0
SPLINE
  5
F5
330
17
100
AcDbEntity
  8
visible
100
AcDbSpline
 70
0
 71
3
 72
23
 73
19
 74
0
 40
0.0
 40
0.0
 40
0.0
 40
0.0
 40
0.40404274516711935
 40
0.40404274516711935
 40
0.40404274516711935
 40
0.5314693796475312
 40
0.5314693796475312
 40
0.5314693796475312
 40
0.658896014127943
 40
0.658896014127943
 40
0.658896014127943
 40
0.7863226486083548
 40
0.7863226486083548
 40
0.7863226486083548
 40
0.8725733655195883
 40
0.8725733655195883
 40
0.8725733655195883
 40
1.0
 40
1.0
 40
1.0
 40
1.0
 10
-10.387613586137654
 20
-23.764950711167927
 30
0.0
 10
-10.125264308689873
 20
-23.6036191461716
 30
0.0
 10
-9.882996455666001
 20
-23.34397793863847
 30
0.0
 10
-9.669884864317055
 20
-23.009572305495453
 30
0.0
 10
-9.336342541144797
 20
-22.488071899260767
 30
0.0
 10
-9.07629868327133
 20
-21.77561455412325
 30
0.0
 10
-8.943305014654307
 20
-21.03417138493552
 30
0.0
 10
-8.808563647236458
 20
-20.29119929057123
 30
0.0
 10
-8.803668274231855
 20
-19.53119807358858
 30
0.0
 10
-8.935040499757354
 20
-18.925660745976018
 30
0.0
 10
-8.997623352307778
 20
-18.633193218961225
 30
0.0
 10
-9.090294577801147
 20
-18.37990809158244
 30
0.0
 10
-9.213054176237458
 20
-18.165805363839652
 30
0.0
 10
-9.296236941403928
 20
-18.02144413696371
 30
0.0
 10
-9.392987728397241
 20
-17.899283338914525
 30
0.0
 10
-9.50330653721734
 20
-17.799322969692117
 30
0.0
 10
-9.656827984270933
 20
-17.661116007522555
 30
0.0
 10
-9.828887394456235
 20
-17.574314668227345
 30
0.0
 10
-10.01948476777325
 20
-17.538918951806465
 30
0.0
  0
SPLINE
  5
F6
330
17
100
AcDbEntity
  8
visible
100
AcDbSpline
 70
0
 71
3
 72
8
 73
4
 74
0
 40
0.0
 40
0.0
 40
0.0
 40
0.0
 40
1.0
 40
1.0
 40
1.0
 40
1.0
 10
-11.174819333870019
 20
-23.93541815374357
 30
0.0
 10
-10.914801082908888
 20
-23.982997340265374
 30
0.0
 10
-10.639554870568855
 20
-23.920942569305552
 30
0.0
 10
-10.387613586137654
 20
-23.764950711167927
 30
0.0
  0
SPLINE
  5
F7
330
17
100
AcDbEntity
  8
visible
100
AcDbSpline
 70
0
 71
3
 72
26
 73
22
 74
0
 40
0.0
 40
0.0
 40
0.0
 40
0.0
 40
0.12742663448041605
 40
0.12742663448041605
 40
0.12742663448041605
 40
0.4040427451671329
 40
0.4040427451671329
 40
0.4040427451671329
 40
0.5314693796475489
 40
0.5314693796475489
 40
0.5314693796475489
 40
0.658896014127965
 40
0.658896014127965
 40
0.658896014127965
 40
0.786322648608381
 40
0.786322648608381
 40
0.786322648608381
 40
0.8725733655195839
 40
0.8725733655195839
 40
0.8725733655195839
 40
1.0
 40
1.0
 40
1.0
 40
1.0
 10
16.725604642942145
 20
16.161107730380238
 30
0.0
 10
16.808394278637735
 20
16.212113708575455
 30
0.0
 10
16.889043212208087
 20
16.272528007521636
 30
0.0
 10
16.96755144365318
 20
16.342350627218746
 30
0.0
 10
17.138349350909216
 20
16.494903529184143
 30
0.0
 10
17.29694332461241
 20
16.6862820321288
 30
0.0
 10
17.443333364762744
 20
16.916486136052697
 30
0.0
 10
17.776875687935014
 20
17.437986542287383
 30
0.0
 10
18.036919545808466
 20
18.15044388742491
 30
0.0
 10
18.169913214425492
 20
18.891887056612646
 30
0.0
 10
18.304654581843362
 20
19.634859150976922
 30
0.0
 10
18.30954995484794
 20
20.39486036795959
 30
0.0
 10
18.178177729322442
 20
21.000397695572133
 30
0.0
 10
18.115594876772036
 20
21.292865222586936
 30
0.0
 10
18.02292365127864
 20
21.546150349965693
 30
0.0
 10
17.900164052842328
 20
21.760253077708477
 30
0.0
 10
17.816981287675855
 20
21.90461430458444
 30
0.0
 10
17.720230500682582
 20
22.026775102633636
 30
0.0
 10
17.60991169186245
 20
22.12673547185603
 30
0.0
 10
17.456390244808855
 20
22.26494243402558
 30
0.0
 10
17.284330834623578
 20
22.351743773320827
 30
0.0
 10
17.093733461306556
 20
22.387139489741685
 30
0.0
  0
SPLINE
  5
F8
330
17
100
AcDbEntity
  8
visible
100
AcDbSpline
 70
0
 71
3
 72
8
 73
4
 74
0
 40
0.0
 40
0.0
 40
0.0
 40
0.0
 40
1.0
 40
1.0
 40
1.0
 40
1.0
 10
15.938398895209788
 20
15.990640287804595
 30
0.0
 10
16.198417146170893
 20
15.943061101282751
 30
0.0
 10
16.473663358510965
 20
16.00511587224259
 30
0.0
 10
16.725604642942145
 20
16.161107730380238
 30
0.0
  0
SPLINE
  5
F9
330
17
100
AcDbEntity
  8
visible
100
AcDbSpline
 70
0
 71
3
 72
23
 73
19
 74
0
 40
0.0
 40
0.0
 40
0.0
 40
0.0
 40
0.40404274516711935
 40
0.40404274516711935
 40
0.40404274516711935
 40
0.5314693796475312
 40
0.5314693796475312
 40
0.5314693796475312
 40
0.658896014127943
 40
0.658896014127943
 40
0.658896014127943
 40
0.7863226486083548
 40
0.7863226486083548
 40
0.7863226486083548
 40
0.8725733655195883
 40
0.8725733655195883
 40
0.8725733655195883
 40
1.0
 40
1.0
 40
1.0
 40
1.0
 10
7.196196704848944
 20
10.300731780709796
 30
0.0
 10
7.458545982296718
 20
10.46206334570606
 30
0.0
 10
7.7008138353206075
 20
10.721704553239258
 30
0.0
 10
7.913925426669543
 20
11.056110186382256
 30
0.0
 10
8.247467749841789
 20
11.577610592616933
 30
0.0
 10
8.507511607715273
 20
12.290067937754454
 30
0.0
 10
8.640505276332291
 20
13.031511106942204
 30
0.0
 10
8.77524664375014
 20
13.774483201306465
 30
0.0
 10
8.780142016754745
 20
14.53448441828915
 30
0.0
 10
8.648769791229242
 20
15.140021745901677
 30
0.0
 10
8.586186938678814
 20
15.432489272916483
 30
0.0
 10
8.493515713185454
 20
15.685774400295271
 30
0.0
 10
8.370756114749142
 20
15.899877128038046
 30
0.0
 10
8.287573349582662
 20
16.044238354913993
 30
0.0
 10
8.19082256258937
 20
16.16639915296318
 30
0.0
 10
8.080503753769257
 20
16.26635952218558
 30
0.0
 10
7.926982306715673
 20
16.404566484355165
 30
0.0
 10
7.7549228965303625
 20
16.491367823650375
 30
0.0
 10
7.5643255232133555
 20
16.52676354007123
 30
0.0
  0
SPLINE
  5
FA
330
17
100
AcDbEntity
  8
visible
100
AcDbSpline
 70
0
 71
3
 72
8
 73
4
 74
0
 40
0.0
 40
0.0
 40
0.0
 40
0.0
 40
1.0
 40
1.0
 40
1.0
 40
1.0
 10
6.408990957116586
 20
10.13026433813414
 30
0.0
 10
6.669009208077696
 20
10.082685151612301
 30
0.0
 10
6.944255420417759
 20
10.14473992257215
 30
0.0
 10
7.196196704848944
 20
10.300731780709796
 30
0.0
  0
ENDSEC
  0
SECTION
  2
OBJECTS
  0
DICTIONARY
  5
A
330
0
100
AcDbDictionary
281
1
  3
ACAD_COLOR
350
B
  3
ACAD_GROUP
350
C
  3
ACAD_LAYOUT
350
D
  3
ACAD_MATERIAL
350
E
  3
ACAD_MLEADERSTYLE
350
F
  3
ACAD_MLINESTYLE
350
10
  3
ACAD_PLOTSETTINGS
350
11
  3
ACAD_PLOTSTYLENAME
350
12
  3
ACAD_SCALELIST
350
14
  3
ACAD_TABLESTYLE
350
15
  3
ACAD_VISUALSTYLE
350
16
  3
EZDXF_META
350
2D
  0
DICTIONARY
  5
B
330
A
100
AcDbDictionary
281
1
  0
DICTIONARY
  5
C
330
A
100
AcDbDictionary
281
1
  0
DICTIONARY
  5
D
330
A
100
AcDbDictionary
281
1
  3
Model
350
1A
  3
Layout1
350
1E
  0
DICTIONARY
  5
E
330
A
100
AcDbDictionary
281
1
  3
ByBlock
350
1F
  3
ByLayer
350
20
  3
Global
350
21
  0
DICTIONARY
  5
F
330
A
100
AcDbDictionary
281
1
  3
Standard
350
2C
  0
DICTIONARY
  5
10
330
A
100
AcDbDictionary
281
1
  3
Standard
350
22
  0
DICTIONARY
  5
11
330
A
100
AcDbDictionary
281
1
  0
ACDBDICTIONARYWDFLT
  5
12
330
A
100
AcDbDictionary
281
1
  3
Normal
350
13
100
AcDbDictionaryWithDefault
340
13
  0
ACDBPLACEHOLDER
  5
13
330
12
  0
DICTIONARY
  5
14
330
A
100
AcDbDictionary
281
1
  0
DICTIONARY
  5
15
330
A
100
AcDbDictionary
281
1
  0
DICTIONARY
  5
16
330
A
100
AcDbDictionary
281
1
  0
LAYOUT
  5
1A
330
D
100
AcDbPlotSettings
  1

  4
A3
  6

 40
7.5
 41
20.0
 42
7.5
 43
20.0
 44
420.0
 45
297.0
 46
0.0
 47
0.0
 48
0.0
 49
0.0
140
0.0
141
0.0
142
1.0
143
1.0
 70
1024
 72
1
 73
0
 74
5
  7

 75
16
 76
0
 77
2
 78
300
147
1.0
148
0.0
149
0.0
100
AcDbLayout
  1
Model
 70
1
 71
0
 10
0.0
 20
0.0
 11
420.0
 21
297.0
 12
0.0
 22
0.0
 32
0.0
 14
1e+20
 24
1e+20
 34
1e+20
 15
-1e+20
 25
-1e+20
 35
-1e+20
146
0.0
 13
0.0
 23
0.0
 33
0.0
 16
1.0
 26
0.0
 36
0.0
 17
0.0
 27
1.0
 37
0.0
 76
1
330
17
  0
LAYOUT
  5
1E
330
D
100
AcDbPlotSettings
  1

  4
A3
  6

 40
7.5
 41
20.0
 42
7.5
 43
20.0
 44
420.0
 45
297.0
 46
0.0
 47
0.0
 48
0.0
 49
0.0
140
0.0
141
0.0
142
1.0
143
1.0
 70
0
 72
1
 73
0
 74
5
  7

 75
16
 76
0
 77
2
 78
300
147
1.0
148
0.0
149
0.0
100
AcDbLayout
  1
Layout1
 70
1
 71
1
 10
0.0
 20
0.0
 11
420.0
 21
297.0
 12
0.0
 22
0.0
 32
0.0
 14
1e+20
 24
1e+20
 34
1e+20
 15
-1e+20
 25
-1e+20
 35
-1e+20
146
0.0
 13
0.0
 23
0.0
 33
0.0
 16
1.0
 26
0.0
 36
0.0
 17
0.0
 27
1.0
 37
0.0
 76
1
330
1B
  0
MATERIAL
  5
1F
102
{ACAD_REACTORS
330
E
102
}
330
E
100
AcDbMaterial
  1
ByBlock
  2

 70
0
 40
1.0
 71
1
 41
1.0
 91
-1023410177
 42
1.0
 72
1
  3

 73
1
 74
1
 75
1
 44
0.5
 73
0
 45
1.0
 46
1.0
 77
1
  4

 78
1
 79
1
170
1
 48
1.0
171
1
  6

172
1
173
1
174
1
140
1.0
141
1.0
175
1
  7

176
1
177
1
178
1
143
1.0
179
1
  8

270
1
271
1
272
1
145
1.0
146
1.0
273
1
  9

274
1
275
1
276
1
 42
1.0
 72
1
  3

 73
1
 74
1
 75
1
 94
63
  0
MATERIAL
  5
20
102
{ACAD_REACTORS
330
E
102
}
330
E
100
AcDbMaterial
  1
ByLayer
  2

 70
0
 40
1.0
 71
1
 41
1.0
 91
-1023410177
 42
1.0
 72
1
  3

 73
1
 74
1
 75
1
 44
0.5
 73
0
 45
1.0
 46
1.0
 77
1
  4

 78
1
 79
1
170
1
 48
1.0
171
1
  6

172
1
173
1
174
1
140
1.0
141
1.0
175
1
  7

176
1
177
1
178
1
143
1.0
179
1
  8

270
1
271
1
272
1
145
1.0
146
1.0
273
1
  9

274
1
275
1
276
1
 42
1.0
 72
1
  3

 73
1
 74
1
 75
1
 94
63
  0
MATERIAL
  5
21
102
{ACAD_REACTORS
330
E
102
}
330
E
100
AcDbMaterial
  1
Global
  2

 70
0
 40
1.0
 71
1
 41
1.0
 91
-1023410177
 42
1.0
 72
1
  3

 73
1
 74
1
 75
1
 44
0.5
 73
0
 45
1.0
 46
1.0
 77
1
  4

 78
1
 79
1
170
1
 48
1.0
171
1
  6

172
1
173
1
174
1
140
1.0
141
1.0
175
1
  7

176
1
177
1
178
1
143
1.0
179
1
  8

270
1
271
1
272
1
145
1.0
146
1.0
273
1
  9

274
1
275
1
276
1
 42
1.0
 72
1
  3

 73
1
 74
1
 75
1
 94
63
  0
MLINESTYLE
  5
22
102
{ACAD_REACTORS
330
10
102
}
330
10
100
AcDbMlineStyle
  2
Standard
 70
0
  3

 62
256
 51
90.0
 52
90.0
 71
2
 49
0.5
 62
256
  6
BYLAYER
 49
-0.5
 62
256
  6
BYLAYER
  0
MLEADERSTYLE
  5
2C
102
{ACAD_REACTORS
330
F
102
}
330
F
100
AcDbMLeaderStyle
179
2
170
2
171
1
172
0
 90
2
 40
0.0
 41
0.0
173
1
 91
-1056964608
 92
-2
290
1
 42
2.0
291
1
 43
8.0
  3
Standard
 44
4.0
300

342
29
174
1
175
1
176
0
178
1
 93
-1056964608
 45
4.0
292
0
297
0
 46
4.0
 94
-1056964608
 47
1.0
 49
1.0
140
1.0
294
1
141
0.0
177
0
142
1.0
295
0
296
0
143
3.75
271
0
272
9
273
9
  0
DICTIONARY
  5
2D
330
A
100
AcDbDictionary
280
1
281
1
  3
CREATED_BY_EZDXF
350
2E
  3
WRITTEN_BY_EZDXF
350
FE
  0
DICTIONARYVAR
  5
2E
330
2D
100
DictionaryVariables
280
0
  1
1.4.4 @ 2026-10-02T17:49:34.254724+00:00
  0
DICTIONARYVAR
  5
FE
330
2D
100
DictionaryVariables
280
0
  1
1.4.4 @ 2026-10-02T17:49:34.296820+00:00
  0
ENDSEC
  0
EOF
