  0
SECTION
  2
HEADER
  9
$ACADVER
  1
AC1027
  9
$ACADMAINTVER
 70
105
  9
$DWGCODEPAGE
  3
ANSI_1252
  9
$LASTSAVEDBY
  1
ezdxf
  9
$REQUIREDVERSIONS
160
0
  9
$INSBASE
 10
0.0
 20
0.0
 30
0.0
  9
$EXTMIN
 10
1e+20
 20
1e+20
 30
1e+20
  9
$EXTMAX
 10
-1e+20
 20
-1e+20
 30
-1e+20
  9
$LIMMIN
 10
0.0
 20
0.0
  9
$LIMMAX
 10
420.0
 20
297.0
  9
$ORTHOMODE
 70
0
  9
$REGENMODE
 70
1
  9
$FILLMODE
 70
1
  9
$QTEXTMODE
 70
0
  9
$MIRRTEXT
 70
1
  9
$LTSCALE
 40
1.0
  9
$ATTMODE
 70
1
  9
$TEXTSIZE
 40
2.5
  9
$TRACEWID
 40
1.0
  9
$TEXTSTYLE
  7
Standard
  9
$CLAYER
  8
0
  9
$CELTYPE
  6
ByLayer
  9
$CECOLOR
 62
256
  9
$CELTSCALE
 40
1.0
  9
$DISPSILH
 70
0
  9
$DIMSCALE
 40
1.0
  9
$DIMASZ
 40
2.5
  9
$DIMEXO
 40
0.625
  9
$DIMDLI
 40
3.75
  9
$DIMRND
 40
0.0
  9
$DIMDLE
 40
0.0
  9
$DIMEXE
 40
1.25
  9
$DIMTP
 40
0.0
  9
$DIMTM
 40
0.0
  9
$DIMTXT
 40
2.5
  9
$DIMCEN
 40
2.5
  9
$DIMTSZ
 40
0.0
  9
$DIMTOL
 70
0
  9
$DIMLIM
 70
0
  9
$DIMTIH
 70
0
  9
$DIMTOH
 70
0
  9
$DIMSE1
 70
0
  9
$DIMSE2
 70
0
  9
$DIMTAD
 70
1
  9
$DIMZIN
 70
8
  9
$DIMBLK
  1

  9
$DIMASO
 70
1
  9
$DIMSHO
 70
1
  9
$DIMPOST
  1

  9
$DIMAPOST
  1

  9
$DIMALT
 70
0
  9
$DIMALTD
 70
3
  9
$DIMALTF
 40
0.03937007874
  9
$DIMLFAC
 40
1.0
  9
$DIMTOFL
 70
1
  9
$DIMTVP
 40
0.0
  9
$DIMTIX
 70
0
  9
$DIMSOXD
 70
0
  9
$DIMSAH
 70
0
  9
$DIMBLK1
  1

  9
$DIMBLK2
  1

  9
$DIMSTYLE
  2
ISO-25
  9
$DIMCLRD
 70
0
  9
$DIMCLRE
 70
0
  9
$DIMCLRT
 70
0
  9
$DIMTFAC
 40
1.0
  9
$DIMGAP
 40
0.625
  9
$DIMJUST
 70
0
  9
$DIMSD1
 70
0
  9
$DIMSD2
 70
0
  9
$DIMTOLJ
 70
0
  9
$DIMTZIN
 70
8
  9
$DIMALTZ
 70
0
  9
$DIMALTTZ
 70
0
  9
$DIMUPT
 70
0
  9
$DIMDEC
 70
2
  9
$DIMTDEC
 70
2
  9
$DIMALTU
 70
2
  9
$DIMALTTD
 70
3
  9
$DIMTXSTY
  7
Standard
  9
$DIMAUNIT
 70
0
  9
$DIMADEC
 70
0
  9
$DIMALTRND
 40
0.0
  9
$DIMAZIN
 70
0
  9
$DIMDSEP
 70
44
  9
$DIMATFIT
 70
3
  9
$DIMFRAC
 70
0
  9
$DIMLDRBLK
  1

  9
$DIMLUNIT
 70
2
  9
$DIMLWD
 70
-2
  9
$DIMLWE
 70
-2
  9
$DIMTMOVE
 70
0
  9
$DIMFXL
 40
1.0
  9
$DIMFXLON
 70
0
  9
$DIMJOGANG
 40
0.785398163397
  9
$DIMTFILL
 70
0
  9
$DIMTFILLCLR
 70
0
  9
$DIMARCSYM
 70
0
  9
$DIMLTYPE
  6

  9
$DIMLTEX1
  6

  9
$DIMLTEX2
  6

  9
$DIMTXTDIRECTION
 70
0
  9
$LUNITS
 70
2
  9
$LUPREC
 70
4
  9
$SKETCHINC
 40
1.0
  9
$FILLETRAD
 40
10.0
  9
$AUNITS
 70
0
  9
$AUPREC
 70
2
  9
$MENU
  1
.
  9
$ELEVATION
 40
0.0
  9
$PELEVATION
 40
0.0
  9
$THICKNESS
 40
0.0
  9
$LIMCHECK
 70
0
  9
$CHAMFERA
 40
0.0
  9
$CHAMFERB
 40
0.0
  9
$CHAMFERC
 40
0.0
  9
$CHAMFERD
 40
0.0
  9
$SKPOLY
 70
0
  9
$TDCREATE
 40
2461316.7748726853
  9
$TDUCREATE
 40
2458532.153996898
  9
$TDUPDATE
 40
2461316.7748726853
  9
$TDUUPDATE
 40
2458532.1544311
  9
$TDINDWG
 40
0.0
  9
$TDUSRTIMER
 40
0.0
  9
$USRTIMER
 70
1
  9
$ANGBASE
 50
0.0
  9
$ANGDIR
 70
0
  9
$PDMODE
 70
0
  9
$PDSIZE
 40
0.0
  9
$PLINEWID
 40
0.0
  9
$SPLFRAME
 70
0
  9
$SPLINETYPE
 70
6
  9
$SPLINESEGS
 70
8
  9
$HANDSEED
  5
CC
  9
$SURFTAB1
 70
6
  9
$SURFTAB2
 70
6
  9
$SURFTYPE
 70
6
  9
$SURFU
 70
6
  9
$SURFV
 70
6
  9
$UCSBASE
  2

  9
$UCSNAME
  2

  9
$UCSORG
 10
0.0
 20
0.0
 30
0.0
  9
$UCSXDIR
 10
1.0
 20
0.0
 30
0.0
  9
$UCSYDIR
 10
0.0
 20
1.0
 30
0.0
  9
$UCSORTHOREF
  2

  9
$UCSORTHOVIEW
 70
0
  9
$UCSORGTOP
 10
0.0
 20
0.0
 30
0.0
  9
$UCSORGBOTTOM
 10
0.0
 20
0.0
 30
0.0
  9
$UCSORGLEFT
 10
0.0
 20
0.0
 30
0.0
  9
$UCSORGRIGHT
 10
0.0
 20
0.0
 30
0.0
  9
$UCSORGFRONT
 10
0.0
 20
0.0
 30
0.0
  9
$UCSORGBACK
 10
0.0
 20
0.0
 30
0.0
  9
$PUCSBASE
  2

  9
$PUCSNAME
  2

  9
$PUCSORG
 10
0.0
 20
0.0
 30
0.0
  9
$PUCSXDIR
 10
1.0
 20
0.0
 30
0.0
  9
$PUCSYDIR
 10
0.0
 20
1.0
 30
0.0
  9
$PUCSORTHOREF
  2

  9
$PUCSORTHOVIEW
 70
0
  9
$PUCSORGTOP
 10
0.0
 20
0.0
 30
0.0
  9
$PUCSORGBOTTOM
 10
0.0
 20
0.0
 30
0.0
  9
$PUCSORGLEFT
 10
0.0
 20
0.0
 30
0.0
  9
$PUCSORGRIGHT
 10
0.0
 20
0.0
 30
0.0
  9
$PUCSORGFRONT
 10
0.0
 20
0.0
 30
0.0
  9
$PUCSORGBACK
 10
0.0
 20
0.0
 30
0.0
  9
$USERI1
 70
0
  9
$USERI2
 70
0
  9
$USERI3
 70
0
  9
$USERI4
 70
0
  9
$USERI5
 70
0
  9
$USERR1
 40
0.0
  9
$USERR2
 40
0.0
  9
$USERR3
 40
0.0
  9
$USERR4
 40
0.0
  9
$USERR5
 40
0.0
  9
$WORLDVIEW
 70
1
  9
$SHADEDGE
 70
3
  9
$SHADEDIF
 70
70
  9
$TILEMODE
 70
1
  9
$MAXACTVP
 70
64
  9
$PINSBASE
 10
0.0
 20
0.0
 30
0.0
  9
$PLIMCHECK
 70
0
  9
$PEXTMIN
 10
1e+20
 20
1e+20
 30
1e+20
  9
$PEXTMAX
 10
-1e+20
 20
-1e+20
 30
-1e+20
  9
$PLIMMIN
 10
0.0
 20
0.0
  9
$PLIMMAX
 10
420.0
 20
297.0
  9
$UNITMODE
 70
0
  9
$VISRETAIN
 70
1
  9
$PLINEGEN
 70
0
  9
$PSLTSCALE
 70
1
  9
$TREEDEPTH
 70
3020
  9
$CMLSTYLE
  2
Standard
  9
$CMLJUST
 70
0
  9
$CMLSCALE
 40
20.0
  9
$PROXYGRAPHICS
 70
1
  9
$MEASUREMENT
 70
1
  9
$CELWEIGHT
370
-1
  9
$ENDCAPS
280
0
  9
$JOINSTYLE
280
0
  9
$LWDISPLAY
290
0
  9
$INSUNITS
 70
4
  9
$HYPERLINKBASE
  1

  9
$STYLESHEET
  1

  9
$XEDIT
290
1
  9
$CEPSNTYPE
380
0
  9
$PSTYLEMODE
290
1
  9
$FINGERPRINTGUID
  2
{D10F8929-14B6-4C18-B8BB-7180E5361BAD}
  9
$VERSIONGUID
  2
{A3D4116E-A798-4C04-A3D0-632361EC1E00}
  9
$EXTNAMES
290
1
  9
$PSVPSCALE
 40
0.0
  9
$OLESTARTUP
290
0
  9
$SORTENTS
280
127
  9
$INDEXCTL
280
0
  9
$HIDETEXT
280
1
  9
$XCLIPFRAME
280
1
  9
$HALOGAP
280
0
  9
$OBSCOLOR
 70
257
  9
$OBSLTYPE
280
0
  9
$INTERSECTIONDISPLAY
280
0
  9
$INTERSECTIONCOLOR
 70
257
  9
$DIMASSOC
280
2
  9
$PROJECTNAME
  1

  9
$CAMERADISPLAY
290
0
  9
$LENSLENGTH
 40
50.0
  9
$CAMERAHEIGHT
 40
0.0
  9
$STEPSPERSEC
 40
24.0
  9
$STEPSIZE
 40
100.0
  9
$3DDWFPREC
 40
2.0
  9
$PSOLWIDTH
 40
0.005
  9
$PSOLHEIGHT
 40
0.08
  9
$LOFTANG1
 40
1.570796326795
  9
$LOFTANG2
 40
1.570796326795
  9
$LOFTMAG1
 40
0.0
  9
$LOFTMAG2
 40
0.0
  9
$LOFTPARAM
 70
7
  9
$LOFTNORMALS
280
1
  9
$LATITUDE
 40
37.795
  9
$LONGITUDE
 40
-122.394
  9
$NORTHDIRECTION
 40
0.0
  9
$TIMEZONE
 70
-8000
  9
$LIGHTGLYPHDISPLAY
280
1
  9
$TILEMODELIGHTSYNCH
280
1
  9
$CMATERIAL
347
20
  9
$SOLIDHIST
280
0
  9
$SHOWHIST
280
1
  9
$DWFFRAME
280
2
  9
$DGNFRAME
280
2
  9
$REALWORLDSCALE
290
1
  9
$INTERFERECOLOR
 62
256
  9
$CSHADOW
280
0
  9
$SHADOWPLANELOCATION
 40
0.0
  0
ENDSEC
  0
SECTION
  2
CLASSES
  0
CLASS
  1
ACDBDICTIONARYWDFLT
  2
AcDbDictionaryWithDefault
  3
ObjectDBX Classes
 90
0
 91
0
280
0
281
0
  0
CLASS
  1
SUN
  2
AcDbSun
  3
SCENEOE
 90
1153
 91
0
280
0
281
0
  0
CLASS
  1
VISUALSTYLE
  2
AcDbVisualStyle
  3
ObjectDBX Classes
 90
4095
 91
0
280
0
281
0
  0
CLASS
  1
MATERIAL
  2
AcDbMaterial
  3
ObjectDBX Classes
 90
1153
 91
0
280
0
281
0
  0
CLASS
  1
SCALE
  2
AcDbScale
  3
ObjectDBX Classes
 90
1153
 91
0
280
0
281
0
  0
CLASS
  1
TABLESTYLE
  2
AcDbTableStyle
  3
ObjectDBX Classes
 90
4095
 91
0
280
0
281
0
  0
CLASS
  1
MLEADERSTYLE
  2
AcDbMLeaderStyle
  3
ACDB_MLEADERSTYLE_CLASS
 90
4095
 91
0
280
0
281
0
  0
CLASS
  1
DICTIONARYVAR
  2
AcDbDictionaryVar
  3
ObjectDBX Classes
 90
0
 91
0
280
0
281
0
  0
CLASS
  1
CELLSTYLEMAP
  2
AcDbCellStyleMap
  3
ObjectDBX Classes
 90
1152
 91
0
280
0
281
0
  0
CLASS
  1
MENTALRAYRENDERSETTINGS
  2
AcDbMentalRayRenderSettings
  3
SCENEOE
 90
1024
 91
0
280
0
281
0
  0
CLASS
  1
ACDBDETAILVIEWSTYLE
  2
AcDbDetailViewStyle
  3
ObjectDBX Classes
 90
1025
 91
0
280
0
281
0
  0
CLASS
  1
ACDBSECTIONVIEWSTYLE
  2
AcDbSectionViewStyle
  3
ObjectDBX Classes
 90
1025
 91
0
280
0
281
0
  0
CLASS
  1
RASTERVARIABLES
  2
AcDbRasterVariables
  3
ISM
 90
0
 91
0
280
0
281
0
  0
CLASS
  1
LAYOUT
  2
AcDbLayout
  3
ObjectDBX Classes
 90
0
 91
0
280
0
281
0
  0
CLASS
  1
ACDBPLACEHOLDER
  2
AcDbPlaceHolder
  3
ObjectDBX Classes
 90
0
 91
0
280
0
281
0
  0
ENDSEC
  0
SECTION
  2
TABLES
  0
TABLE
  2
VPORT
  5
8
330
0
100
AcDbSymbolTable
 70
1
  0
VPORT
  5
C8
330
8
100
AcDbSymbolTableRecord
100
AcDbViewportTableRecord
  2
*Active
 70
0
 10
0.0
 20
0.0
 11
1.0
 21
1.0
 12
-1.5019663780789543
 22
-0.6111327722786513
 13
0.0
 23
0.0
 14
0.5
 24
0.5
 15
0.5
 25
0.5
 16
0.0
 26
0.0
 36
1.0
 17
0.0
 27
0.0
 37
0.0
 40
79.98177726673995
 41
1.34
 42
50.0
 43
0.0
 44
0.0
 50
0.0
 51
0.0
 71
0
 72
1000
 73
1
 74
3
 75
0
 76
0
 77
0
 78
0
281
0
 65
1
110
0.0
120
0.0
130
0.0
111
1.0
121
0.0
131
0.0
112
0.0
122
1.0
132
0.0
 79
0
146
0.0
  0
ENDTAB
  0
TABLE
  2
LTYPE
  5
2
330
0
100
AcDbSymbolTable
 70
3
  0
LTYPE
  5
24
330
2
100
AcDbSymbolTableRecord
100
AcDbLinetypeTableRecord
  2
ByBlock
 70
0
  3

 72
65
 73
0
 40
0.0
  0
LTYPE
  5
25
330
2
100
AcDbSymbolTableRecord
100
AcDbLinetypeTableRecord
  2
ByLayer
 70
0
  3

 72
65
 73
0
 40
0.0
  0
LTYPE
  5
26
330
2
100
AcDbSymbolTableRecord
100
AcDbLinetypeTableRecord
  2
Continuous
 70
0
  3

 72
65
 73
0
 40
0.0
  0
ENDTAB
  0
TABLE
  2
LAYER
  5
1
330
0
100
AcDbSymbolTable
 70
3
  0
LAYER
  5
27
330
1
100
AcDbSymbolTableRecord
100
AcDbLayerTableRecord
  2
0
 70
0
 62
7
  6
Continuous
370
-3
390
13
347
21
  0
LAYER
  5
28
330
1
100
AcDbSymbolTableRecord
100
AcDbLayerTableRecord
  2
Defpoints
 70
0
 62
7
  6
Continuous
290
0
370
-3
390
13
347
21
  0
LAYER
  5
2F
330
1
100
AcDbSymbolTableRecord
100
AcDbLayerTableRecord
  2
visible
 70
0
 62
7
  6
Continuous
370
-3
390
13
347
21
  0
ENDTAB
  0
TABLE
  2
STYLE
  5
5
330
0
100
AcDbSymbolTable
 70
1
  0
STYLE
  5
29
330
5
100
AcDbSymbolTableRecord
100
AcDbTextStyleTableRecord
  2
Standard
 70
0
 40
0.0
 41
1.0
 50
0.0
 71
0
 42
2.5
  3
txt
  4

  0
ENDTAB
  0
TABLE
  2
VIEW
  5
7
330
0
100
AcDbSymbolTable
 70
0
  0
ENDTAB
  0
TABLE
  2
UCS
  5
6
330
0
100
AcDbSymbolTable
 70
0
  0
ENDTAB
  0
TABLE
  2
APPID
  5
3
330
0
100
AcDbSymbolTable
 70
3
  0
APPID
  5
2A
330
3
100
AcDbSymbolTableRecord
100
AcDbRegAppTableRecord
  2
ACAD
 70
0
  0
APPID
  5
C9
330
3
100
AcDbSymbolTableRecord
100
AcDbRegAppTableRecord
  2
HATCHBACKGROUNDCOLOR
 70
0
  0
APPID
  5
CA
330
3
100
AcDbSymbolTableRecord
100
AcDbRegAppTableRecord
  2
EZDXF
 70
0
  0
ENDTAB
  0
TABLE
  2
DIMSTYLE
  5
4
330
0
100
AcDbSymbolTable
 70
1
100
AcDbDimStyleTable
  0
DIMSTYLE
105
2B
330
4
100
AcDbSymbolTableRecord
100
AcDbDimStyleTableRecord
  2
Standard
 70
0
 40
1.0
 41
2.5
 42
0.625
 43
3.75
 44
1.25
 45
0.0
 46
0.0
 47
0.0
 48
0.0
 49
2.5
140
2.5
141
2.5
142
0.0
143
0.03937007874
144
1.0
145
0.0
146
1.0
147
0.625
148
0.0
 69
0
 70
0
 71
0
 72
0
 73
0
 74
0
 75
0
 76
0
 77
1
 78
8
 79
3
170
0
171
3
172
1
173
0
174
0
175
0
176
0
177
0
178
0
179
2
271
2
272
2
273
2
274
3
275
0
276
0
277
2
278
44
279
0
280
0
281
0
282
0
283
0
284
8
285
0
286
0
288
0
289
3
290
0
371
-2
372
-2
  0
ENDTAB
  0
TABLE
  2
BLOCK_RECORD
  5
9
330
0
100
AcDbSymbolTable
 70
2
  0
BLOCK_RECORD
  5
17
330
9
100
AcDbSymbolTableRecord
100
AcDbBlockTableRecord
  2
*Model_Space
340
1A
 70
0
280
1
281
0
  0
BLOCK_RECORD
  5
1B
330
9
100
AcDbSymbolTableRecord
100
AcDbBlockTableRecord
  2
*Paper_Space
340
1E
 70
0
280
1
281
0
  0
ENDTAB
  0
ENDSEC
  0
SECTION
  2
BLOCKS
  0
BLOCK
  5
18
330
17
100
AcDbEntity
  8
0
100
AcDbBlockBegin
  2
*Model_Space
 70
0
 10
0.0
 20
0.0
 30
0.0
  3
*Model_Space
  1

  0
ENDBLK
  5
19
330
17
100
AcDbEntity
  8
0
100
AcDbBlockEnd
  0
BLOCK
  5
1C
330
1B
100
AcDbEntity
  8
0
100
AcDbBlockBegin
  2
*Paper_Space
 70
0
 10
0.0
 20
0.0
 30
0.0
  3
*Paper_Space
  1

  0
ENDBLK
  5
1D
330
1B
100
AcDbEntity
  8
0
100
AcDbBlockEnd
  0
ENDSEC
  0
SECTION
  2
ENTITIES
  0
ELLIPSE
  5
30
330
17
100
AcDbEntity
  8
visible
100
AcDbEllipse
 10
-15.754181696055248
 20
-37.8051503968298
 30
0.0
 11
-5.0
 21
1.4646472380075822e-16
 31
0.0
 40
0.3197041251701763
 41
-6.283185307179586
 42
-5.2028327722123
  0
ELLIPSE
  5
31
330
17
100
AcDbEntity
  8
visible
100
AcDbEllipse
 10
-17.732454834540352
 20
-38.98962874159505
 30
0.0
 11
0.13461952691063708
 21
0.7885921524935158
 31
0.0
 40
0.4462972075876179
 41
-4.347059235004174
 42
-3.141592653589793
  0
LINE
  5
32
330
17
100
AcDbEntity
  8
visible
100
AcDbLine
 10
-14.580773118457596
 20
-39.81758850544275
 30
0.0
 11
-18.10926876568038
 21
-39.215243664407474
 31
0.0
  0
ELLIPSE
  5
33
330
17
100
AcDbEntity
  8
visible
100
AcDbEllipse
 10
-14.203959187317576
 20
-39.591973582630324
 30
0.0
 11
0.13461952691063708
 21
0.7885921524935158
 31
0.0
 40
0.4462972075876179
 41
-4.347059235004174
 42
-3.141592653589793
  0
LINE
  5
34
330
17
100
AcDbEntity
  8
visible
100
AcDbLine
 10
-10.061477726391935
 20
8.745436788102932
 30
0.0
 11
-10.061477726391935
 21
17.347227380026403
 31
0.0
  0
LINE
  5
35
330
17
100
AcDbEntity
  8
visible
100
AcDbLine
 10
-10.061477726391935
 20
23.94125698526364
 30
0.0
 11
-10.061477726391935
 21
27.129086336533003
 31
0.0
  0
LINE
  5
36
330
17
100
AcDbEntity
  8
visible
100
AcDbLine
 10
-10.061477726391935
 20
8.745436788102937
 30
0.0
 11
-10.84485889519059
 21
8.276392341161984
 31
0.0
  0
SPLINE
  5
37
330
17
100
AcDbEntity
  8
visible
100
AcDbSpline
 70
0
 71
2
 72
6
 73
3
 74
0
 40
0.0
 40
0.0
 40
0.0
 40
1.0
 40
1.0
 40
1.0
 10
-20.553565963117123
 20
-31.0577913636592
 30
0.0
 10
-20.526958674724238
 20
-31.01142006458619
 30
0.0
 10
-20.322409655857637
 20
-30.959722482597
 30
0.0
  0
SPLINE
  5
38
330
17
100
AcDbEntity
  8
visible
100
AcDbSpline
 70
0
 71
2
 72
6
 73
3
 74
0
 40
0.0
 40
0.0
 40
0.0
 40
1.0
 40
1.0
 40
1.0
 10
-20.322409655857687
 20
-30.959722482596973
 30
0.0
 10
-20.157959101355267
 20
-30.920742992121376
 30
0.0
 10
-19.95323882641371
 20
-30.954574467774208
 30
0.0
  0
ELLIPSE
  5
39
330
17
100
AcDbEntity
  8
visible
100
AcDbEllipse
 10
-12.225686048832472
 20
-38.40749523786508
 30
0.0
 11
-5.0
 21
2.929294476015164e-16
 31
0.0
 40
0.31970412517017627
 41
-5.2028327722123
 42
-3.6320364454174037
  0
ELLIPSE
  5
3A
330
17
100
AcDbEntity
  8
visible
100
AcDbEllipse
 10
-8.52076561924855
 20
-39.03995732095213
 30
0.0
 11
-0.4109623304120981
 21
0.6863745063609644
 31
0.0
 40
0.8358277782226833
 41
3.141592653589793
 42
4.090775238952743
  0
ELLIPSE
  5
3B
330
17
100
AcDbEntity
  8
visible
100
AcDbEllipse
 10
1.9048363689182821
 20
-29.946935632399075
 30
0.0
 11
-5.0
 21
1.4646472380075822e-16
 31
0.0
 40
0.3197041251701763
 41
-3.6320364454174037
 42
-3.141592653589793
  0
ELLIPSE
  5
3C
330
17
100
AcDbEntity
  8
visible
100
AcDbEllipse
 10
5.609756798502204
 20
-30.579397715486117
 30
0.0
 11
-0.41096233041209884
 21
0.6863745063609641
 31
0.0
 40
0.8358277782226858
 41
3.1415926535897922
 42
4.090775238952742
  0
LINE
  5
3D
330
17
100
AcDbEntity
  8
visible
100
AcDbLine
 10
6.315455927946758
 20
-30.699866683693173
 30
0.0
 11
-7.8150664898039945
 21
-39.160426289159176
 31
0.0
  0
LINE
  5
3E
330
17
100
AcDbEntity
  8
visible
100
AcDbLine
 10
-10.061477726391937
 20
8.745436788102928
 30
0.0
 11
-4.768734255557766
 21
7.841919526550014
 31
0.0
  0
LINE
  5
3F
330
17
100
AcDbEntity
  8
visible
100
AcDbLine
 10
-4.768734255557767
 20
7.841919526550011
 30
0.0
 11
-4.768734255557767
 21
16.44371011847349
 31
0.0
  0
LINE
  5
40
330
17
100
AcDbEntity
  8
visible
100
AcDbLine
 10
-4.768734255557767
 20
23.037739723710725
 30
0.0
 11
-4.768734255557767
 21
30.298082519942415
 31
0.0
  0
LINE
  5
41
330
17
100
AcDbEntity
  8
visible
100
AcDbLine
 10
-4.768734255557771
 20
7.841919526550017
 30
0.0
 11
-10.844858895190594
 21
4.203878896199635
 31
0.0
  0
LINE
  5
42
330
17
100
AcDbEntity
  8
visible
100
AcDbLine
 10
-4.768734255557771
 20
30.298082519942426
 30
0.0
 11
-10.844858895190594
 21
26.660041889592048
 31
0.0
  0
LINE
  5
43
330
17
100
AcDbEntity
  8
visible
100
AcDbLine
 10
-10.84485889519059
 20
4.203878896199636
 30
0.0
 11
-10.84485889519059
 21
17.48095734677908
 31
0.0
  0
LINE
  5
44
330
17
100
AcDbEntity
  8
visible
100
AcDbLine
 10
-10.84485889519059
 20
24.07498695201631
 30
0.0
 11
-10.84485889519059
 21
26.66004188959204
 31
0.0
  0
LINE
  5
45
330
17
100
AcDbEntity
  8
visible
100
AcDbLine
 10
-16.47237387396211
 20
-31.548788335686975
 30
0.0
 11
-19.953238826413713
 21
-30.954574467774176
 31
0.0
  0
SPLINE
  5
46
330
17
100
AcDbEntity
  8
visible
100
AcDbSpline
 70
0
 71
3
 72
11
 73
7
 74
0
 40
0.0
 40
0.0
 40
0.0
 40
0.0
 40
0.4840802426560994
 40
0.4840802426560994
 40
0.4840802426560994
 40
1.0
 40
1.0
 40
1.0
 40
1.0
 10
-16.47237387396211
 20
-31.54878833568697
 30
0.0
 10
-16.284900059192854
 20
-31.581262078591834
 30
0.0
 10
-16.049843770137162
 20
-31.582002426300754
 30
0.0
 10
-15.841394656479197
 20
-31.55412896313338
 30
0.0
 10
-15.617919468048827
 20
-31.524915732636714
 30
0.0
 10
-15.425716130232068
 20
-31.465499245328616
 30
0.0
 10
-15.306469747939687
 20
-31.39371251586912
 30
0.0
  0
LINE
  5
47
330
17
100
AcDbEntity
  8
visible
100
AcDbLine
 10
-13.693571837493437
 20
-30.428000243850082
 30
0.0
 11
-15.306469747939683
 21
-31.39371251586912
 31
0.0
  0
ELLIPSE
  5
48
330
17
100
AcDbEntity
  8
visible
100
AcDbEllipse
 10
-10.752722891013036
 20
-30.024690293681523
 30
0.0
 11
3.2
 21
-1.874748464649705e-16
 31
0.0
 40
0.31970412517017627
 41
3.5468136556200394
 42
5.792741515351976
  0
ELLIPSE
  5
49
330
17
100
AcDbEntity
  8
visible
100
AcDbEllipse
 10
-10.752722891013036
 20
-30.024690293681523
 30
0.0
 11
3.2
 21
-1.874748464649705e-16
 31
0.0
 40
0.31970412517017627
 41
5.792741515351976
 42
6.283185307179586
  0
ELLIPSE
  5
4A
330
17
100
AcDbEntity
  8
visible
100
AcDbEllipse
 10
-10.752722891013036
 20
-30.024690293681523
 30
0.0
 11
3.2
 21
-1.874748464649705e-16
 31
0.0
 40
0.31970412517017627
 41
0.0
 42
1.7554840679043264
  0
LINE
  5
4B
330
17
100
AcDbEntity
  8
visible
100
AcDbLine
 10
-8.058787819011943
 20
-27.054209477812826
 30
0.0
 11
-11.34036959175542
 21
-29.019035502477692
 31
0.0
  0
ELLIPSE
  5
4C
330
17
100
AcDbEntity
  8
visible
100
AcDbEllipse
 10
-10.752722891013036
 20
-31.82497340285645
 30
0.0
 11
3.2
 21
-1.874748464649705e-16
 31
0.0
 40
0.31970412517017627
 41
1.0755633432577916
 42
2.0660293103320013
  0
LINE
  5
4D
330
17
100
AcDbEntity
  8
visible
100
AcDbLine
 10
-11.340369591755405
 20
-29.01903550247768
 30
0.0
 11
-11.340369591755405
 21
-28.829532017301386
 31
0.0
  0
LINE
  5
4E
330
17
100
AcDbEntity
  8
visible
100
AcDbLine
 10
-11.340369591755403
 20
-28.829532017301386
 30
0.0
 11
-13.69357183749346
 21
-30.238496758673797
 31
0.0
  0
LINE
  5
4F
330
17
100
AcDbEntity
  8
visible
100
AcDbLine
 10
-13.693571837493458
 20
-30.428000243850096
 30
0.0
 11
-13.693571837493458
 21
-30.2384967586738
 31
0.0
  0
ELLIPSE
  5
50
330
17
100
AcDbEntity
  8
visible
100
AcDbEllipse
 10
-12.516970714624428
 20
-22.996144149404984
 30
0.0
 11
-0.5468918280744623
 21
-3.2036556195049077
 31
0.0
 40
0.44629720758761793
 41
3.1415926535897936
 42
6.283185307179587
  0
ELLIPSE
  5
51
330
17
100
AcDbEntity
  8
visible
100
AcDbEllipse
 10
-3.09662243612393
 20
-17.35577107909431
 30
0.0
 11
-0.5468918280744623
 21
-3.2036556195049077
 31
0.0
 40
0.44629720758761793
 41
3.1415926535897936
 42
6.283185307179587
  0
ELLIPSE
  5
52
330
17
100
AcDbEntity
  8
visible
100
AcDbEllipse
 10
-7.806796575374179
 20
3.985736745729511
 30
0.0
 11
-0.19351556993404054
 21
-1.1336012192094287
 31
0.0
 40
0.4462972075876179
 41
0.36532974538051544
 42
3.1415926535897936
  0
ELLIPSE
  5
53
330
17
100
AcDbEntity
  8
visible
100
AcDbEllipse
 10
-7.806796575374179
 20
3.985736745729511
 30
0.0
 11
-0.19351556993404054
 21
-1.1336012192094287
 31
0.0
 40
0.4462972075876179
 41
3.1415926535897936
 42
6.283185307179587
  0
ELLIPSE
  5
54
330
17
100
AcDbEntity
  8
visible
100
AcDbEllipse
 10
-7.806796575374179
 20
3.985736745729511
 30
0.0
 11
-0.19351556993404054
 21
-1.1336012192094287
 31
0.0
 40
0.4462972075876179
 41
8.881784197001252e-16
 42
0.36532974538051555
  0
ELLIPSE
  5
55
330
17
100
AcDbEntity
  8
visible
100
AcDbEllipse
 10
-12.516970714624428
 20
21.06341615408644
 30
0.0
 11
-0.5468918280744623
 21
-3.2036556195049077
 31
0.0
 40
0.44629720758761793
 41
3.1415926535897936
 42
6.283185307179587
  0
ELLIPSE
  5
56
330
17
100
AcDbEntity
  8
visible
100
AcDbEllipse
 10
-7.806796575374179
 20
30.51622467041254
 30
0.0
 11
-0.19351556993404054
 21
-1.1336012192094287
 31
0.0
 40
0.4462972075876179
 41
0.36532974538051544
 42
3.1415926535897936
  0
ELLIPSE
  5
57
330
17
100
AcDbEntity
  8
visible
100
AcDbEllipse
 10
-7.806796575374179
 20
30.51622467041254
 30
0.0
 11
-0.19351556993404054
 21
-1.1336012192094287
 31
0.0
 40
0.4462972075876179
 41
3.1415926535897936
 42
6.283185307179587
  0
ELLIPSE
  5
58
330
17
100
AcDbEntity
  8
visible
100
AcDbEllipse
 10
-7.806796575374179
 20
30.51622467041254
 30
0.0
 11
-0.19351556993404054
 21
-1.1336012192094287
 31
0.0
 40
0.4462972075876179
 41
8.881784197001252e-16
 42
0.36532974538051555
  0
ELLIPSE
  5
59
330
17
100
AcDbEntity
  8
visible
100
AcDbEllipse
 10
-3.09662243612393
 20
26.703789224397113
 30
0.0
 11
-0.5468918280744623
 21
-3.2036556195049077
 31
0.0
 40
0.44629720758761793
 41
3.1415926535897936
 42
6.283185307179587
  0
ELLIPSE
  5
5A
330
17
100
AcDbEntity
  8
visible
100
AcDbEllipse
 10
8.389365995170543
 20
-26.565037332538992
 30
0.0
 11
-0.1514469677744665
 21
-0.8871661715552052
 31
0.0
 40
0.44629720758761793
 41
0.36532974538051544
 42
3.1415926535897936
  0
ELLIPSE
  5
5B
330
17
100
AcDbEntity
  8
visible
100
AcDbEllipse
 10
8.389365995170543
 20
-26.565037332538992
 30
0.0
 11
-0.1514469677744665
 21
-0.8871661715552052
 31
0.0
 40
0.44629720758761793
 41
3.1415926535897936
 42
6.283185307179587
  0
ELLIPSE
  5
5C
330
17
100
AcDbEntity
  8
visible
100
AcDbEllipse
 10
8.389365995170543
 20
-26.565037332538992
 30
0.0
 11
-0.1514469677744665
 21
-0.8871661715552052
 31
0.0
 40
0.44629720758761793
 41
8.881784197001252e-16
 42
0.36532974538051555
  0
ELLIPSE
  5
5D
330
17
100
AcDbEntity
  8
visible
100
AcDbEllipse
 10
17.80971427367104
 20
-20.92466426222832
 30
0.0
 11
-0.1514469677744665
 21
-0.8871661715552052
 31
0.0
 40
0.44629720758761793
 41
0.36532974538051544
 42
3.1415926535897936
  0
ELLIPSE
  5
5E
330
17
100
AcDbEntity
  8
visible
100
AcDbEllipse
 10
17.80971427367104
 20
-20.92466426222832
 30
0.0
 11
-0.1514469677744665
 21
-0.8871661715552052
 31
0.0
 40
0.44629720758761793
 41
3.1415926535897936
 42
6.283185307179587
  0
ELLIPSE
  5
5F
330
17
100
AcDbEntity
  8
visible
100
AcDbEllipse
 10
17.80971427367104
 20
-20.92466426222832
 30
0.0
 11
-0.1514469677744665
 21
-0.8871661715552052
 31
0.0
 40
0.44629720758761793
 41
8.881784197001252e-16
 42
0.36532974538051555
  0
ELLIPSE
  5
60
330
17
100
AcDbEntity
  8
visible
100
AcDbEllipse
 10
8.389365995170543
 20
17.49452297095243
 30
0.0
 11
-0.1514469677744665
 21
-0.8871661715552052
 31
0.0
 40
0.44629720758761793
 41
0.36532974538051544
 42
3.1415926535897936
  0
ELLIPSE
  5
61
330
17
100
AcDbEntity
  8
visible
100
AcDbEllipse
 10
8.389365995170543
 20
17.49452297095243
 30
0.0
 11
-0.1514469677744665
 21
-0.8871661715552052
 31
0.0
 40
0.44629720758761793
 41
3.1415926535897936
 42
6.283185307179587
  0
ELLIPSE
  5
62
330
17
100
AcDbEntity
  8
visible
100
AcDbEllipse
 10
8.389365995170543
 20
17.49452297095243
 30
0.0
 11
-0.1514469677744665
 21
-0.8871661715552052
 31
0.0
 40
0.44629720758761793
 41
8.881784197001252e-16
 42
0.36532974538051555
  0
ELLIPSE
  5
63
330
17
100
AcDbEntity
  8
visible
100
AcDbEllipse
 10
17.80971427367104
 20
23.134896041263104
 30
0.0
 11
-0.1514469677744665
 21
-0.8871661715552052
 31
0.0
 40
0.44629720758761793
 41
0.36532974538051544
 42
3.1415926535897936
  0
ELLIPSE
  5
64
330
17
100
AcDbEntity
  8
visible
100
AcDbEllipse
 10
17.80971427367104
 20
23.134896041263104
 30
0.0
 11
-0.1514469677744665
 21
-0.8871661715552052
 31
0.0
 40
0.44629720758761793
 41
3.1415926535897936
 42
6.283185307179587
  0
ELLIPSE
  5
65
330
17
100
AcDbEntity
  8
visible
100
AcDbEllipse
 10
17.80971427367104
 20
23.134896041263104
 30
0.0
 11
-0.1514469677744665
 21
-0.8871661715552052
 31
0.0
 40
0.44629720758761793
 41
8.881784197001252e-16
 42
0.36532974538051555
  0
ELLIPSE
  5
66
330
17
100
AcDbEntity
  8
visible
100
AcDbEllipse
 10
-15.754181696055248
 20
-31.741038871187968
 30
0.0
 11
-5.0
 21
1.4646472380075822e-16
 31
0.0
 40
0.3197041251701763
 41
-6.283185307179586
 42
-5.2028327722123
  0
LINE
  5
67
330
17
100
AcDbEntity
  8
visible
100
AcDbLine
 10
-18.109268765680373
 20
-39.215243664407474
 30
0.0
 11
-18.109268765680373
 21
-33.15113213876564
 31
0.0
  0
ELLIPSE
  5
68
330
17
100
AcDbEntity
  8
visible
100
AcDbEllipse
 10
-21.437375264124274
 20
-21.96511519075743
 30
0.0
 11
-0.8
 21
4.6868711616242624e-17
 31
0.0
 40
0.31970412517017627
 41
-6.283185307179586
 42
-5.2028327722123
  0
ELLIPSE
  5
69
330
17
100
AcDbEntity
  8
visible
100
AcDbEllipse
 10
-13.335875744613844
 20
-17.114394350290254
 30
0.0
 11
-3.0289393554893342
 21
-17.743323431104105
 31
0.0
 40
0.4462972075876178
 41
5.077718725765205
 42
5.6799960407404715
  0
ELLIPSE
  5
6A
330
17
100
AcDbEntity
  8
visible
100
AcDbEllipse
 10
-17.732454834540352
 20
-32.925517215953214
 30
0.0
 11
0.13461952691063708
 21
0.7885921524935158
 31
0.0
 40
0.4462972075876179
 41
-5.917855561799071
 42
-4.347059235004174
  0
ELLIPSE
  5
6B
330
17
100
AcDbEntity
  8
visible
100
AcDbEllipse
 10
-15.754181696055248
 20
-30.983024930482728
 30
0.0
 11
-4.2
 21
1.2303036799263691e-16
 31
0.0
 40
0.3197041251701763
 41
-6.304374982580553
 42
-5.2028327722123
  0
LINE
  5
6C
330
17
100
AcDbEntity
  8
visible
100
AcDbLine
 10
-14.580773118457596
 20
-33.753476979800915
 30
0.0
 11
-18.10926876568038
 21
-33.15113213876564
 31
0.0
  0
LINE
  5
6D
330
17
100
AcDbEntity
  8
visible
100
AcDbLine
 10
-14.580773118457596
 20
-39.81758850544275
 30
0.0
 11
-14.580773118457596
 21
-33.753476979800915
 31
0.0
  0
ELLIPSE
  5
6E
330
17
100
AcDbEntity
  8
visible
100
AcDbEllipse
 10
-21.437375264124274
 20
15.46182313156325
 30
0.0
 11
-0.8
 21
7.030306742436394e-17
 31
0.0
 40
0.31970412517017616
 41
-6.283185307179586
 42
-5.2028327722123
  0
LINE
  5
6F
330
17
100
AcDbEntity
  8
visible
100
AcDbLine
 10
-21.814189195264294
 20
15.236208208750824
 30
0.0
 11
-21.814189195264294
 21
-22.19073011356985
 31
0.0
  0
ELLIPSE
  5
70
330
17
100
AcDbEntity
  8
visible
100
AcDbEllipse
 10
-13.335875744613844
 20
36.609843697192844
 30
0.0
 11
-0.4109623304120981
 21
0.6863745063609644
 31
0.0
 40
0.8358277782226833
 41
5.661571565747639
 42
6.283185307179586
  0
ELLIPSE
  5
71
330
17
100
AcDbEntity
  8
visible
100
AcDbEllipse
 10
-13.335875744613844
 20
20.312543972030426
 30
0.0
 11
-3.0289393554893347
 21
-17.743323431104105
 31
0.0
 40
0.4462972075876178
 41
3.5069223989703087
 42
5.077718725765205
  0
ELLIPSE
  5
72
330
17
100
AcDbEntity
  8
visible
100
AcDbEllipse
 10
-11.451806088913742
 20
37.73791831125497
 30
0.0
 11
-0.4109623304120981
 21
0.6863745063609645
 31
0.0
 40
0.8358277782226834
 41
5.661571565747639
 42
6.283185307179586
  0
LINE
  5
73
330
17
100
AcDbEntity
  8
visible
100
AcDbLine
 10
-11.451806088913742
 20
38.49593225196021
 30
0.0
 11
-13.335875744613842
 21
37.36785763789808
 31
0.0
  0
ELLIPSE
  5
74
330
17
100
AcDbEntity
  8
visible
100
AcDbEllipse
 10
-11.451806088913742
 20
21.440618586092555
 30
0.0
 11
-3.0289393554893342
 21
-17.743323431104105
 31
0.0
 40
0.4462972075876178
 41
3.141592653589793
 42
3.5069223989703087
  0
ELLIPSE
  5
75
330
17
100
AcDbEntity
  8
visible
100
AcDbEllipse
 10
-9.454530532668784
 20
-17.776973675429062
 30
0.0
 11
-3.0289393554893342
 21
-17.743323431104105
 31
0.0
 40
0.4462972075876178
 41
5.077718725765205
 42
5.673446258334566
  0
LINE
  5
76
330
17
100
AcDbEntity
  8
visible
100
AcDbLine
 10
-21.814189195264294
 20
-22.190730113569863
 30
0.0
 11
-17.93284398331923
 21
-22.853309438708667
 31
0.0
  0
ELLIPSE
  5
77
330
17
100
AcDbEntity
  8
visible
100
AcDbEllipse
 10
-14.203959187317576
 20
-33.52786205698849
 30
0.0
 11
0.13461952691063706
 21
0.7885921524935158
 31
0.0
 40
0.44629720758761776
 41
-5.917855561799071
 42
-4.347059235004174
  0
LINE
  5
78
330
17
100
AcDbEntity
  8
visible
100
AcDbLine
 10
-14.203959187317576
 20
-32.76984811628325
 30
0.0
 11
-17.73245483454036
 21
-32.167503275247974
 31
0.0
  0
ELLIPSE
  5
79
330
17
100
AcDbEntity
  8
visible
100
AcDbEllipse
 10
-1.623659278304494
 20
-22.522465325016725
 30
0.0
 11
-4.2
 21
2.460607359852738e-16
 31
0.0
 40
0.31970412517017627
 41
-2.061240118622507
 42
-1.9921162474731755
  0
LINE
  5
7A
330
17
100
AcDbEntity
  8
visible
100
AcDbLine
 10
0.35461386018060637
 20
-21.337986980251486
 30
0.0
 11
3.8831095074033897
 21
-21.94033182128676
 31
0.0
  0
ELLIPSE
  5
7B
330
17
100
AcDbEntity
  8
visible
100
AcDbEllipse
 10
1.9048363689182821
 20
-23.124810166052
 30
0.0
 11
-4.2
 21
1.2303036799263691e-16
 31
0.0
 40
0.3197041251701763
 41
-2.9464368216717
 42
-2.061240118622507
  0
LINE
  5
7C
330
17
100
AcDbEntity
  8
visible
100
AcDbLine
 10
-1.7074956540109385
 20
-28.138430191676317
 30
0.0
 11
-8.520765619248548
 21
-32.217831854605045
 31
0.0
  0
ELLIPSE
  5
7D
330
17
100
AcDbEntity
  8
visible
100
AcDbEllipse
 10
-12.225686048832472
 20
-31.585369771518003
 30
0.0
 11
-4.2
 21
2.460607359852738e-16
 31
0.0
 40
0.31970412517017627
 41
-5.2028327722123
 42
-3.6320364454174037
  0
LINE
  5
7E
330
17
100
AcDbEntity
  8
visible
100
AcDbLine
 10
-7.815066489803996
 20
-39.160426289159176
 30
0.0
 11
-7.815066489803996
 21
-33.09631476351734
 31
0.0
  0
ELLIPSE
  5
7F
330
17
100
AcDbEntity
  8
visible
100
AcDbEllipse
 10
-12.225686048832472
 20
-32.34338371222324
 30
0.0
 11
-5.0
 21
2.929294476015164e-16
 31
0.0
 40
0.31970412517017627
 41
-5.2028327722123
 42
-3.6320364454174037
  0
LINE
  5
80
330
17
100
AcDbEntity
  8
visible
100
AcDbLine
 10
6.315455927946758
 20
-30.69986668369317
 30
0.0
 11
6.315455927946758
 21
-29.508017681197998
 31
0.0
  0
LINE
  5
81
330
17
100
AcDbEntity
  8
visible
100
AcDbLine
 10
-0.01666206406958448
 20
-28.42707016513128
 30
0.0
 11
-7.8150664898039945
 21
-33.09631476351734
 31
0.0
  0
LINE
  5
82
330
17
100
AcDbEntity
  8
visible
100
AcDbLine
 10
-17.932843983319234
 20
14.573628883612017
 30
0.0
 11
-17.932843983319234
 21
-22.853309438708656
 31
0.0
  0
LINE
  5
83
330
17
100
AcDbEntity
  8
visible
100
AcDbLine
 10
-21.814189195264294
 20
15.236208208750819
 30
0.0
 11
-17.93284398331923
 21
14.573628883612015
 31
0.0
  0
LINE
  5
84
330
17
100
AcDbEntity
  8
visible
100
AcDbLine
 10
-13.335875744613844
 20
37.36785763789808
 30
0.0
 11
-9.45453053266878
 21
36.705278312759276
 31
0.0
  0
ELLIPSE
  5
85
330
17
100
AcDbEntity
  8
visible
100
AcDbEllipse
 10
-9.454530532668784
 20
19.64996464689162
 30
0.0
 11
-3.0289393554893347
 21
-17.743323431104105
 31
0.0
 40
0.4462972075876178
 41
3.5069223989703087
 42
5.077718725765205
  0
LINE
  5
86
330
17
100
AcDbEntity
  8
visible
100
AcDbLine
 10
-7.570460876968681
 20
37.83335292682142
 30
0.0
 11
-9.454530532668782
 21
36.70527831275928
 31
0.0
  0
LINE
  5
87
330
17
100
AcDbEntity
  8
visible
100
AcDbLine
 10
-11.451806088913742
 20
38.49593225196022
 30
0.0
 11
-7.570460876968679
 21
37.83335292682142
 31
0.0
  0
ELLIPSE
  5
88
330
17
100
AcDbEntity
  8
visible
100
AcDbEllipse
 10
-7.570460876968681
 20
20.77803926095376
 30
0.0
 11
-3.0289393554893342
 21
-17.743323431104105
 31
0.0
 40
0.4462972075876178
 41
3.141592653589793
 42
3.5069223989703087
  0
ELLIPSE
  5
89
330
17
100
AcDbEntity
  8
visible
100
AcDbEllipse
 10
0.35461386018060637
 20
-22.096000920956726
 30
0.0
 11
-0.13461952691063706
 21
-0.7885921524935158
 31
0.0
 40
0.44629720758761776
 41
3.141592653589793
 42
3.5069223989703087
  0
LINE
  5
8A
330
17
100
AcDbEntity
  8
visible
100
AcDbLine
 10
-6.864761747524128
 20
36.954870017909116
 30
0.0
 11
-8.748831403224228
 21
35.82679540384698
 31
0.0
  0
ELLIPSE
  5
8B
330
17
100
AcDbEntity
  8
visible
100
AcDbEllipse
 10
-6.864761747524128
 20
20.657570292746698
 30
0.0
 11
-2.894319828578697
 21
-16.954731278610588
 31
0.0
 40
0.4462972075876178
 41
2.1801412112514935
 42
3.5069223989703087
  0
LINE
  5
8C
330
17
100
AcDbEntity
  8
visible
100
AcDbLine
 10
1.2367377719862986
 20
-11.918647189106807
 30
0.0
 11
1.2367377719862986
 21
15.418523904450531
 31
0.0
  0
LINE
  5
8D
330
17
100
AcDbEntity
  8
visible
100
AcDbLine
 10
1.2367377719862986
 20
22.012553509687763
 30
0.0
 11
1.2367377719862986
 21
22.66703221244429
 31
0.0
  0
ELLIPSE
  5
8E
330
17
100
AcDbEntity
  8
visible
100
AcDbEllipse
 10
-6.864761747524128
 20
-16.769368029573982
 30
0.0
 11
-2.894319828578697
 21
-16.954731278610588
 31
0.0
 40
0.4462972075876178
 41
1.3456963539097941
 42
1.38401687619357
  0
ELLIPSE
  5
8F
330
17
100
AcDbEntity
  8
visible
100
AcDbEllipse
 10
-6.864761747524128
 20
-16.769368029573982
 30
0.0
 11
-2.894319828578697
 21
-16.954731278610588
 31
0.0
 40
0.4462972075876178
 41
1.7642116500223302
 42
1.9361260721754119
  0
ELLIPSE
  5
90
330
17
100
AcDbEntity
  8
visible
100
AcDbEllipse
 10
-8.74883140322423
 20
-17.89744264363611
 30
0.0
 11
-2.894319828578697
 21
-16.954731278610588
 31
0.0
 40
0.4462972075876178
 41
5.077718725765205
 42
5.705325527130559
  0
LINE
  5
91
330
17
100
AcDbEntity
  8
visible
100
AcDbLine
 10
-16.85033092273466
 20
14.678774838217393
 30
0.0
 11
-16.85033092273466
 21
-22.74816348410328
 31
0.0
  0
ELLIPSE
  5
92
330
17
100
AcDbEntity
  8
visible
100
AcDbEllipse
 10
-8.74883140322423
 20
19.52949567868457
 30
0.0
 11
-2.8943198285786975
 21
-16.954731278610588
 31
0.0
 40
0.4462972075876178
 41
3.5069223989703087
 42
5.077718725765205
  0
ELLIPSE
  5
93
330
17
100
AcDbEntity
  8
visible
100
AcDbEllipse
 10
-17.556030052179214
 20
-22.627694515896238
 30
0.0
 11
0.8
 21
-4.6868711616242624e-17
 31
0.0
 40
0.31970412517017627
 41
4.221945188557079
 42
5.792741515351976
  0
ELLIPSE
  5
94
330
17
100
AcDbEntity
  8
visible
100
AcDbEllipse
 10
-8.52076561924855
 20
-32.97584579531029
 30
0.0
 11
-0.4109623304120981
 21
0.6863745063609644
 31
0.0
 40
0.8358277782226833
 41
4.090775238952743
 42
5.661571565747639
  0
ELLIPSE
  5
95
330
17
100
AcDbEntity
  8
visible
100
AcDbEllipse
 10
0.5310386425417448
 20
-11.798178220899743
 30
0.0
 11
-0.8
 21
1.1717177904060656e-16
 31
0.0
 40
0.3197041251701761
 41
-3.6320364454174032
 42
-3.141592653589793
  0
ELLIPSE
  5
96
330
17
100
AcDbEntity
  8
visible
100
AcDbEllipse
 10
3.8831095074033897
 20
-22.698345761992
 30
0.0
 11
-0.13461952691063708
 21
-0.7885921524935158
 31
0.0
 40
0.4462972075876179
 41
3.141592653589793
 42
3.5069223989703087
  0
ELLIPSE
  5
97
330
17
100
AcDbEntity
  8
visible
100
AcDbEllipse
 10
-17.556030052179214
 20
14.799243806424442
 30
0.0
 11
0.8
 21
-7.030306742436394e-17
 31
0.0
 40
0.31970412517017616
 41
4.221945188557079
 42
5.792741515351976
  0
ELLIPSE
  5
98
330
17
100
AcDbEntity
  8
visible
100
AcDbEllipse
 10
-9.454530532668784
 20
35.947264372054036
 30
0.0
 11
0.4109623304120981
 21
-0.6863745063609644
 31
0.0
 40
0.8358277782226833
 41
-5.334002721816637
 42
-3.76320639502174
  0
ELLIPSE
  5
99
330
17
100
AcDbEntity
  8
visible
100
AcDbEllipse
 10
-7.570460876968681
 20
37.07533898611618
 30
0.0
 11
0.4109623304120981
 21
-0.6863745063609645
 31
0.0
 40
0.8358277782226834
 41
-5.334002721816637
 42
-3.76320639502174
  0
ELLIPSE
  5
9A
330
17
100
AcDbEntity
  8
visible
100
AcDbEllipse
 10
8.036516430448266
 20
-26.50480284843546
 30
0.0
 11
-0.5468918280744623
 21
-3.2036556195049077
 31
0.0
 40
0.44629720758761793
 41
3.1415926535897936
 42
6.283185307179587
  0
ELLIPSE
  5
9B
330
17
100
AcDbEntity
  8
visible
100
AcDbEllipse
 10
17.456864708948764
 20
-20.8644297781248
 30
0.0
 11
-0.5468918280744623
 21
-3.2036556195049077
 31
0.0
 40
0.44629720758761793
 41
3.1415926535897936
 42
6.283185307179587
  0
ELLIPSE
  5
9C
330
17
100
AcDbEntity
  8
visible
100
AcDbEllipse
 10
8.036516430448266
 20
17.554757455055963
 30
0.0
 11
-0.5468918280744623
 21
-3.2036556195049077
 31
0.0
 40
0.44629720758761793
 41
3.1415926535897936
 42
6.283185307179587
  0
ELLIPSE
  5
9D
330
17
100
AcDbEntity
  8
visible
100
AcDbEllipse
 10
17.456864708948764
 20
23.195130525366622
 30
0.0
 11
-0.5468918280744623
 21
-3.2036556195049077
 31
0.0
 40
0.44629720758761793
 41
3.1415926535897936
 42
6.283185307179587
  0
ELLIPSE
  5
9E
330
17
100
AcDbEntity
  8
visible
100
AcDbEllipse
 10
8.389365995170543
 20
-26.565037332538992
 30
0.0
 11
-0.479582064619144
 21
-2.8093595432581497
 31
0.0
 40
0.44629720758761793
 41
0.36532974538051544
 42
6.648515052560102
  0
ELLIPSE
  5
9F
330
17
100
AcDbEntity
  8
visible
100
AcDbEllipse
 10
17.80971427367104
 20
-20.92466426222832
 30
0.0
 11
-0.479582064619144
 21
-2.8093595432581497
 31
0.0
 40
0.44629720758761793
 41
0.36532974538051544
 42
6.648515052560102
  0
ELLIPSE
  5
A0
330
17
100
AcDbEntity
  8
visible
100
AcDbEllipse
 10
8.389365995170543
 20
17.49452297095243
 30
0.0
 11
-0.479582064619144
 21
-2.8093595432581497
 31
0.0
 40
0.44629720758761793
 41
0.36532974538051544
 42
6.648515052560102
  0
ELLIPSE
  5
A1
330
17
100
AcDbEntity
  8
visible
100
AcDbEllipse
 10
17.80971427367104
 20
23.134896041263104
 30
0.0
 11
-0.479582064619144
 21
-2.8093595432581497
 31
0.0
 40
0.44629720758761793
 41
0.36532974538051544
 42
6.648515052560102
  0
SPLINE
  5
A2
330
17
100
AcDbEntity
  8
visible
100
AcDbSpline
 70
0
 71
3
 72
17
 73
13
 74
0
 40
0.0
 40
0.0
 40
0.0
 40
0.0
 40
0.25
 40
0.25
 40
0.25
 40
0.5
 40
0.5
 40
0.5
 40
0.75
 40
0.75
 40
0.75
 40
1.0
 40
1.0
 40
1.0
 40
1.0
 10
-20.754181696055248
 20
-37.8051503968298
 30
0.0
 10
-20.75404403975229
 20
-37.91241473266352
 30
0.0
 10
-20.740345553794835
 20
-38.017764473828365
 30
0.0
 10
-20.713086238182886
 20
-38.12119962032419
 30
0.0
 10
-20.642049731439627
 20
-38.39240538321655
 30
0.0
 10
-20.482546513212235
 20
-38.62912693571619
 30
0.0
 10
-20.279553899970406
 20
-38.81935019828089
 30
0.0
 10
-20.064534972685763
 20
-39.02101754687435
 30
0.0
 10
-19.800386069661773
 20
-39.18088289538111
 30
0.0
 10
-19.492208777502555
 20
-39.318700823441944
 30
0.0
 10
-19.042021359371493
 20
-39.51904115345961
 30
0.0
 10
-18.49004778463314
 20
-39.671600410888615
 30
0.0
 10
-17.86707436145099
 20
-39.77822089408856
 30
0.0
  0
LINE
  5
A3
330
17
100
AcDbEntity
  8
visible
100
AcDbLine
 10
-20.754181696055248
 20
-37.8051503968298
 30
0.0
 11
-20.754181696055248
 21
-31.74103887118797
 31
0.0
  0
LINE
  5
A4
330
17
100
AcDbEntity
  8
visible
100
AcDbLine
 10
-14.338578714228213
 20
-40.38056573512384
 30
0.0
 11
-17.867074361450992
 21
-39.77822089408856
 31
0.0
  0
SPLINE
  5
A5
330
17
100
AcDbEntity
  8
visible
100
AcDbSpline
 70
0
 71
3
 72
11
 73
7
 74
0
 40
0.0
 40
0.0
 40
0.0
 40
0.0
 40
0.8351022329260441
 40
0.8351022329260441
 40
0.8351022329260441
 40
0.9982298020766986
 40
0.9982298020766986
 40
0.9982298020766986
 40
0.9982298020766986
 10
-22.237375264124275
 20
-21.96511519075743
 30
0.0
 10
-22.238496101834563
 20
-24.955299337551015
 30
0.0
 10
-21.83413234386193
 20
-27.703723058602158
 30
0.0
 10
-21.057879091701288
 20
-29.86774524603387
 30
0.0
 10
-20.906380696903963
 20
-30.291325856987847
 30
0.0
 10
-20.74093630015873
 20
-30.692344257187827
 30
0.0
 10
-20.561545901465557
 20
-31.070800446633775
 30
0.0
  0
SPLINE
  5
A6
330
17
100
AcDbEntity
  8
visible
100
AcDbSpline
 70
0
 71
3
 72
8
 73
4
 74
0
 40
0.0
 40
0.0
 40
0.0
 40
0.0
 40
1.0
 40
1.0
 40
1.0
 40
1.0
 10
-20.55356595408174
 20
-31.057791372222283
 30
0.0
 10
-20.680160712835686
 20
-31.26013278468227
 30
0.0
 10
-20.754893827200622
 20
-31.49893362874343
 30
0.0
 10
-20.754181696055248
 20
-31.741038871187968
 30
0.0
  0
SPLINE
  5
A7
330
17
100
AcDbEntity
  8
visible
100
AcDbSpline
 70
0
 71
3
 72
14
 73
10
 74
0
 40
0.0
 40
0.0
 40
0.0
 40
0.0
 40
0.520169878633115
 40
0.520169878633115
 40
0.520169878633115
 40
0.7091957829590338
 40
0.7091957829590338
 40
0.7091957829590338
 40
1.0
 40
1.0
 40
1.0
 40
1.0
 10
-14.338578714228213
 20
-40.38056573512384
 30
0.0
 10
-13.239853569046026
 20
-40.56965321720039
 30
0.0
 10
-11.922174093606912
 20
-40.60202140564863
 30
0.0
 10
-10.754392780463915
 20
-40.47048007816627
 30
0.0
 10
-10.327685863997301
 20
-40.422933936789164
 30
0.0
 10
-9.928014502905668
 20
-40.355525461760024
 30
0.0
 10
-9.55537869718897
 20
-40.26825465307876
 30
0.0
 10
-8.984667501131243
 20
-40.13345986735481
 30
0.0
 10
-8.49765002977842
 20
-39.95774048968299
 30
0.0
 10
-8.109803288836451
 20
-39.72633182731309
 30
0.0
  0
SPLINE
  5
A8
330
17
100
AcDbEntity
  8
visible
100
AcDbSpline
 70
0
 71
3
 72
14
 73
10
 74
0
 40
0.0
 40
0.0
 40
0.0
 40
0.0
 40
0.5
 40
0.5
 40
0.5
 40
0.75
 40
0.75
 40
0.75
 40
1.0
 40
1.0
 40
1.0
 40
1.0
 10
6.904836368918282
 20
-29.946935632399075
 30
0.0
 10
6.90469871261533
 20
-30.054199968232815
 30
0.0
 10
6.891000226657882
 20
-30.159549709397623
 30
0.0
 10
6.863740911045923
 20
-30.262984855893464
 30
0.0
 10
6.807313341043101
 20
-30.478494162428653
 30
0.0
 10
6.6940415097346655
 20
-30.674225541948275
 30
0.0
 10
6.548189220209099
 20
-30.8394112182797
 30
0.0
 10
6.400579469401029
 20
-31.003680324180223
 30
0.0
 10
6.2247561056361
 20
-31.14580065870269
 30
0.0
 10
6.020719128914301
 20
-31.265772221847087
 30
0.0
  0
LINE
  5
A9
330
17
100
AcDbEntity
  8
visible
100
AcDbLine
 10
6.020719128914301
 20
-31.265772221847087
 30
0.0
 11
-8.109803288836451
 21
-39.72633182731309
 31
0.0
  0
LINE
  5
AA
330
17
100
AcDbEntity
  8
visible
100
AcDbLine
 10
-22.237375264124275
 20
15.46182313156325
 30
0.0
 11
-22.237375264124275
 21
-21.965115190757423
 31
0.0
  0
SPLINE
  5
AB
330
17
100
AcDbEntity
  8
visible
100
AcDbSpline
 70
0
 71
3
 72
17
 73
13
 74
0
 40
0.0
 40
0.0
 40
0.0
 40
0.0
 40
0.14462721720486302
 40
0.14462721720486302
 40
0.14462721720486302
 40
0.48054754072991834
 40
0.48054754072991834
 40
0.48054754072991834
 40
0.7694948986182617
 40
0.7694948986182617
 40
0.7694948986182617
 40
1.0
 40
1.0
 40
1.0
 40
1.0
 10
-13.746838075025941
 20
37.296218203553806
 30
0.0
 10
-14.42741957524086
 20
36.88650874384292
 30
0.0
 10
-15.08584100608154
 20
36.34415596174782
 30
0.0
 10
-15.722102367547976
 20
35.66915985726856
 30
0.0
 10
-17.196537714029866
 20
34.11057664667133
 30
0.0
 10
-18.538004797170405
 20
31.864964268364908
 30
0.0
 10
-19.60981330622126
 20
29.205845673669963
 30
0.0
 10
-20.532185327369056
 20
26.921894421255512
 30
0.0
 10
-21.25050396905353
 20
24.33892244229212
 30
0.0
 10
-21.69659043688455
 20
21.707938721728837
 30
0.0
 10
-22.05345372162831
 20
19.609496414472073
 30
0.0
 10
-22.237760397354357
 20
17.483148065898373
 30
0.0
 10
-22.237375264124275
 20
15.46182313156325
 30
0.0
  0
LINE
  5
AC
330
17
100
AcDbEntity
  8
visible
100
AcDbLine
 10
-11.862768419325839
 20
38.42429281761595
 30
0.0
 11
-13.74683807502594
 21
37.29621820355381
 31
0.0
  0
SPLINE
  5
AD
330
17
100
AcDbEntity
  8
visible
100
AcDbSpline
 70
0
 71
3
 72
8
 73
4
 74
0
 40
0.0
 40
0.0
 40
0.0
 40
0.0
 40
1.0
 40
1.0
 40
1.0
 40
1.0
 10
-8.422866733424407
 20
39.18394201719667
 30
0.0
 10
-9.557401942475627
 20
39.37975586109132
 30
0.0
 10
-10.747059843538699
 20
39.09586347521699
 30
0.0
 10
-11.862768419325839
 20
38.42429281761595
 30
0.0
  0
LINE
  5
AE
330
17
100
AcDbEntity
  8
visible
100
AcDbLine
 10
6.904836368918282
 20
-29.946935632399075
 30
0.0
 11
6.904836368918282
 21
-29.60863003941522
 31
0.0
  0
LINE
  5
AF
330
17
100
AcDbEntity
  8
visible
100
AcDbLine
 10
-4.541521521479344
 20
38.52136269205786
 30
0.0
 11
-8.422866733424407
 21
39.183942017196664
 31
0.0
  0
SPLINE
  5
B0
330
17
100
AcDbEntity
  8
visible
100
AcDbSpline
 70
0
 71
2
 72
6
 73
3
 74
0
 40
0.0
 40
0.0
 40
0.0
 40
1.0
 40
1.0
 40
1.0
 10
0.10640123034395854
 20
-21.24922383095484
 30
0.0
 10
0.30151318770487234
 20
-21.27537039959503
 30
0.0
 10
0.48923338709124664
 20
-21.307408768463205
 30
0.0
  0
SPLINE
  5
B1
330
17
100
AcDbEntity
  8
visible
100
AcDbSpline
 70
0
 71
2
 72
6
 73
3
 74
0
 40
0.0
 40
0.0
 40
0.0
 40
1.0
 40
1.0
 40
1.0
 10
-0.04792288290459904
 20
-21.827704066715533
 30
0.0
 10
0.03782596857972284
 20
-21.51631389403171
 30
0.0
 10
0.11865173643397309
 20
-21.201661097664665
 30
0.0
  0
SPLINE
  5
B2
330
17
100
AcDbEntity
  8
visible
100
AcDbSpline
 70
0
 71
2
 72
6
 73
3
 74
0
 40
0.0
 40
0.0
 40
0.0
 40
1.0
 40
1.0
 40
1.0
 10
1.203150260849716
 20
-14.792764806055398
 30
0.0
 10
1.330883555417186
 20
-13.269900534813129
 30
0.0
 10
1.3310386425417493
 20
-11.798178220899743
 30
0.0
  0
LINE
  5
B3
330
17
100
AcDbEntity
  8
visible
100
AcDbLine
 10
0.48923338709124664
 20
-21.30740876846322
 30
0.0
 11
4.017729034314026
 21
-21.909753609498495
 31
0.0
  0
SPLINE
  5
B4
330
17
100
AcDbEntity
  8
visible
100
AcDbSpline
 70
0
 71
3
 72
14
 73
10
 74
0
 40
0.0
 40
0.0
 40
0.0
 40
0.0
 40
0.25
 40
0.25
 40
0.25
 40
0.5
 40
0.5
 40
0.5
 40
0.5828344389578709
 40
0.5828344389578709
 40
0.5828344389578709
 40
0.5828344389578709
 10
4.017729034314023
 20
-21.90975360949848
 30
0.0
 10
4.636553675415826
 20
-22.0156549529136
 30
0.0
 10
5.1853829361525845
 20
-22.1669335110474
 30
0.0
 10
5.633876514669865
 20
-22.3652819736486
 30
0.0
 10
5.85780805380869
 20
-22.46344588740885
 30
0.0
 10
6.057747417153368
 20
-22.576787259904982
 30
0.0
 10
6.233694604703892
 20
-22.70530609113699
 30
0.0
 10
6.333922023925329
 20
-22.778948247048557
 30
0.0
 10
6.4256039463826236
 20
-22.859507352886325
 30
0.0
 10
6.508740372075749
 20
-22.94698340865024
 30
0.0
  0
SPLINE
  5
B5
330
17
100
AcDbEntity
  8
visible
100
AcDbSpline
 70
0
 71
3
 72
14
 73
10
 74
0
 40
0.0
 40
0.0
 40
0.0
 40
0.0
 40
0.5515101207311411
 40
0.5515101207311411
 40
0.5515101207311411
 40
0.7049375417973351
 40
0.7049375417973351
 40
0.7049375417973351
 40
1.0
 40
1.0
 40
1.0
 40
1.0
 10
1.1157458880965128
 20
29.281716182701235
 30
0.0
 10
0.7460938194881939
 20
32.26742045667299
 30
0.0
 10
-0.09201274602391435
 20
34.76143722741713
 30
0.0
 10
-1.351173802963404
 20
36.41534168377814
 30
0.0
 10
-1.702031840082821
 20
36.87767471871792
 30
0.0
 10
-2.085924461058157
 20
37.27176931193244
 30
0.0
 10
-2.502851665889409
 20
37.59762546342165
 30
0.0
 10
-3.119411275817201
 20
38.078549634939534
 30
0.0
 10
-3.811710473199096
 20
38.39752635781282
 30
0.0
 10
-4.541521521479346
 20
38.52136269205786
 30
0.0
  0
LINE
  5
B6
330
17
100
AcDbEntity
  8
visible
100
AcDbLine
 10
1.331038642541749
 20
-11.798178220899743
 30
0.0
 11
1.331038642541749
 21
15.402425927135774
 31
0.0
  0
LINE
  5
B7
330
17
100
AcDbEntity
  8
visible
100
AcDbLine
 10
1.331038642541749
 20
21.996455532373012
 30
0.0
 11
1.331038642541749
 21
22.650934235129526
 31
0.0
  0
LINE
  5
B8
330
17
100
AcDbEntity
  8
visible
100
AcDbLine
 10
-13.06386254269889
 20
-26.199799768909887
 30
0.0
 11
7.489624602373798
 21
-29.708458467940368
 31
0.0
  0
LINE
  5
B9
330
17
100
AcDbEntity
  8
visible
100
AcDbLine
 10
-11.970078886549969
 20
-19.792488529900087
 30
0.0
 11
8.58340825852272
 21
-23.301147228930567
 31
0.0
  0
LINE
  5
BA
330
17
100
AcDbEntity
  8
visible
100
AcDbLine
 10
-3.643514264198386
 20
-20.559426698599214
 30
0.0
 11
16.909972880874303
 21
-24.068085397629694
 31
0.0
  0
LINE
  5
BB
330
17
100
AcDbEntity
  8
visible
100
AcDbLine
 10
-2.549730608049464
 20
-14.152115459589416
 30
0.0
 11
18.003756537023225
 21
-17.660774158619894
 31
0.0
  0
LINE
  5
BC
330
17
100
AcDbEntity
  8
visible
100
AcDbLine
 10
-13.06386254269889
 20
17.859760534581536
 30
0.0
 11
7.489624602373798
 21
14.351101835551058
 31
0.0
  0
LINE
  5
BD
330
17
100
AcDbEntity
  8
visible
100
AcDbLine
 10
-11.970078886549969
 20
24.26707177359135
 30
0.0
 11
8.58340825852272
 21
20.75841307456087
 31
0.0
  0
LINE
  5
BE
330
17
100
AcDbEntity
  8
visible
100
AcDbLine
 10
-3.643514264198386
 20
23.50013360489221
 30
0.0
 11
16.909972880874303
 21
19.99147490586173
 31
0.0
  0
LINE
  5
BF
330
17
100
AcDbEntity
  8
visible
100
AcDbLine
 10
-2.549730608049464
 20
29.907444843902024
 30
0.0
 11
18.003756537023225
 21
26.398786144871544
 31
0.0
  0
SPLINE
  5
C0
330
17
100
AcDbEntity
  8
visible
100
AcDbSpline
 70
0
 71
3
 72
26
 73
22
 74
0
 40
0.0
 40
0.0
 40
0.0
 40
0.0
 40
0.1294436661439973
 40
0.1294436661439973
 40
0.1294436661439973
 40
0.3989895441098614
 40
0.3989895441098614
 40
0.3989895441098614
 40
0.5284332102538587
 40
0.5284332102538587
 40
0.5284332102538587
 40
0.657876876397856
 40
0.657876876397856
 40
0.657876876397856
 40
0.7873205425418532
 40
0.7873205425418532
 40
0.7873205425418532
 40
0.8705563338560026
 40
0.8705563338560026
 40
0.8705563338560026
 40
1.0
 40
1.0
 40
1.0
 40
1.0
 10
8.241997595654318
 20
-29.548414765378325
 30
0.0
 10
8.331447071638022
 20
-29.494736249153295
 30
0.0
 10
8.41830196676279
 20
-29.4299456775388
 30
0.0
 10
8.502562281028606
 20
-29.354043050534813
 30
0.0
 10
8.678402521290426
 20
-29.19491199286918
 30
0.0
 10
8.84069508497894
 20
-28.99391396941055
 30
0.0
 10
8.989439972094175
 20
-28.7510489801589
 30
0.0
 10
9.303759661310483
 20
-28.240683478547076
 30
0.0
 10
9.548060503929337
 20
-27.554595951819337
 30
0.0
 10
9.675437269149455
 20
-26.838704796311575
 30
0.0
 10
9.809859766310302
 20
-26.091219582665698
 30
0.0
 10
9.814215067176173
 20
-25.322954506565676
 30
0.0
 10
9.682412988735727
 20
-24.710052114590653
 30
0.0
 10
9.617122420994352
 20
-24.402081269359847
 30
0.0
 10
9.519425758078564
 20
-24.137097262178635
 30
0.0
 10
9.389322999988346
 20
-23.915100093047023
 30
0.0
 10
9.30557634034039
 20
-23.773016879024418
 30
0.0
 10
9.208639475268203
 20
-23.65298563990819
 30
0.0
 10
9.098512404771768
 20
-23.555006375698262
 30
0.0
 10
8.944776578186696
 20
-23.419113180717595
 30
0.0
 10
8.773075196103683
 20
-23.334493465128364
 30
0.0
 10
8.583408258522724
 20
-23.301147228930567
 30
0.0
  0
SPLINE
  5
C1
330
17
100
AcDbEntity
  8
visible
100
AcDbSpline
 70
0
 71
3
 72
8
 73
4
 74
0
 40
0.0
 40
0.0
 40
0.0
 40
0.0
 40
1.0
 40
1.0
 40
1.0
 40
1.0
 10
7.489624602373802
 20
-29.708458467940375
 30
0.0
 10
7.738690680366775
 20
-29.75152655802328
 30
0.0
 10
8.001127683352244
 20
-29.693553171747986
 30
0.0
 10
8.241997595654318
 20
-29.548414765378325
 30
0.0
  0
SPLINE
  5
C2
330
17
100
AcDbEntity
  8
visible
100
AcDbSpline
 70
0
 71
3
 72
26
 73
22
 74
0
 40
0.0
 40
0.0
 40
0.0
 40
0.0
 40
0.12944366614399963
 40
0.12944366614399963
 40
0.12944366614399963
 40
0.39898954410986853
 40
0.39898954410986853
 40
0.39898954410986853
 40
0.5284332102538681
 40
0.5284332102538681
 40
0.5284332102538681
 40
0.6578768763978677
 40
0.6578768763978677
 40
0.6578768763978677
 40
0.7873205425418673
 40
0.7873205425418673
 40
0.7873205425418673
 40
0.8705563338560003
 40
0.8705563338560003
 40
0.8705563338560003
 40
1.0
 40
1.0
 40
1.0
 40
1.0
 10
17.662345874154813
 20
-23.908041695067652
 30
0.0
 10
17.751795350138522
 20
-23.854363178842632
 30
0.0
 10
17.8386502452633
 20
-23.789572607228124
 30
0.0
 10
17.92291055952911
 20
-23.713669980224147
 30
0.0
 10
18.09875079979093
 20
-23.554538922558542
 30
0.0
 10
18.261043363479434
 20
-23.353540899099876
 30
0.0
 10
18.409788250594673
 20
-23.110675909848226
 30
0.0
 10
18.724107939810988
 20
-22.600310408236375
 30
0.0
 10
18.968408782429858
 20
-21.9142228815087
 30
0.0
 10
19.095785547649953
 20
-21.1983317260009
 30
0.0
 10
19.230208044810826
 20
-20.450846512355017
 30
0.0
 10
19.23456334567666
 20
-19.682581436255006
 30
0.0
 10
19.102761267236232
 20
-19.069679044279983
 30
0.0
 10
19.037470699494868
 20
-18.76170819904919
 30
0.0
 10
18.939774036579053
 20
-18.49672419186796
 30
0.0
 10
18.80967127848885
 20
-18.27472702273634
 30
0.0
 10
18.72592461884089
 20
-18.132643808713745
 30
0.0
 10
18.6289877537687
 20
-18.012612569597493
 30
0.0
 10
18.518860683272266
 20
-17.914633305387596
 30
0.0
 10
18.365124856687178
 20
-17.77874011040693
 30
0.0
 10
18.193423474604188
 20
-17.694120394817695
 30
0.0
 10
18.00375653702323
 20
-17.6607741586199
 30
0.0
  0
SPLINE
  5
C3
330
17
100
AcDbEntity
  8
visible
100
AcDbSpline
 70
0
 71
3
 72
8
 73
4
 74
0
 40
0.0
 40
0.0
 40
0.0
 40
0.0
 40
1.0
 40
1.0
 40
1.0
 40
1.0
 10
16.909972880874307
 20
-24.0680853976297
 30
0.0
 10
17.159038958867267
 20
-24.111153487712624
 30
0.0
 10
17.42147596185276
 20
-24.053180101437306
 30
0.0
 10
17.662345874154816
 20
-23.908041695067652
 30
0.0
  0
SPLINE
  5
C4
330
17
100
AcDbEntity
  8
visible
100
AcDbSpline
 70
0
 71
3
 72
26
 73
22
 74
0
 40
0.0
 40
0.0
 40
0.0
 40
0.0
 40
0.1294436661439973
 40
0.1294436661439973
 40
0.1294436661439973
 40
0.3989895441098614
 40
0.3989895441098614
 40
0.3989895441098614
 40
0.5284332102538587
 40
0.5284332102538587
 40
0.5284332102538587
 40
0.657876876397856
 40
0.657876876397856
 40
0.657876876397856
 40
0.7873205425418532
 40
0.7873205425418532
 40
0.7873205425418532
 40
0.8705563338560026
 40
0.8705563338560026
 40
0.8705563338560026
 40
1.0
 40
1.0
 40
1.0
 40
1.0
 10
8.241997595654318
 20
14.511145538113098
 30
0.0
 10
8.331447071638022
 20
14.564824054338112
 30
0.0
 10
8.41830196676279
 20
14.629614625952637
 30
0.0
 10
8.502562281028606
 20
14.705517252956621
 30
0.0
 10
8.678402521290426
 20
14.86464831062224
 30
0.0
 10
8.84069508497894
 20
15.065646334080878
 30
0.0
 10
8.989439972094175
 20
15.308511323332537
 30
0.0
 10
9.303759661310483
 20
15.8188768249444
 30
0.0
 10
9.548060503929337
 20
16.504964351672076
 30
0.0
 10
9.675437269149455
 20
17.220855507179863
 30
0.0
 10
9.809859766310302
 20
17.96834072082576
 30
0.0
 10
9.814215067176173
 20
18.736605796925726
 30
0.0
 10
9.682412988735727
 20
19.349508188900785
 30
0.0
 10
9.617122420994352
 20
19.657479034131576
 30
0.0
 10
9.519425758078564
 20
19.922463041312795
 30
0.0
 10
9.389322999988346
 20
20.14446021044441
 30
0.0
 10
9.30557634034039
 20
20.286543424466984
 30
0.0
 10
9.208639475268203
 20
20.40657466358325
 30
0.0
 10
9.098512404771768
 20
20.504553927793168
 30
0.0
 10
8.944776578186696
 20
20.64044712277383
 30
0.0
 10
8.773075196103683
 20
20.72506683836307
 30
0.0
 10
8.583408258522724
 20
20.758413074560863
 30
0.0
  0
SPLINE
  5
C5
330
17
100
AcDbEntity
  8
visible
100
AcDbSpline
 70
0
 71
3
 72
8
 73
4
 74
0
 40
0.0
 40
0.0
 40
0.0
 40
0.0
 40
1.0
 40
1.0
 40
1.0
 40
1.0
 10
7.489624602373802
 20
14.351101835551049
 30
0.0
 10
7.738690680366775
 20
14.308033745468133
 30
0.0
 10
8.001127683352244
 20
14.366007131743462
 30
0.0
 10
8.241997595654318
 20
14.511145538113098
 30
0.0
  0
SPLINE
  5
C6
330
17
100
AcDbEntity
  8
visible
100
AcDbSpline
 70
0
 71
3
 72
26
 73
22
 74
0
 40
0.0
 40
0.0
 40
0.0
 40
0.0
 40
0.12944366614399963
 40
0.12944366614399963
 40
0.12944366614399963
 40
0.39898954410986853
 40
0.39898954410986853
 40
0.39898954410986853
 40
0.5284332102538681
 40
0.5284332102538681
 40
0.5284332102538681
 40
0.6578768763978677
 40
0.6578768763978677
 40
0.6578768763978677
 40
0.7873205425418673
 40
0.7873205425418673
 40
0.7873205425418673
 40
0.8705563338560003
 40
0.8705563338560003
 40
0.8705563338560003
 40
1.0
 40
1.0
 40
1.0
 40
1.0
 10
17.662345874154813
 20
20.15151860842377
 30
0.0
 10
17.751795350138522
 20
20.205197124648784
 30
0.0
 10
17.8386502452633
 20
20.269987696263293
 30
0.0
 10
17.92291055952911
 20
20.345890323267284
 30
0.0
 10
18.09875079979093
 20
20.50502138093292
 30
0.0
 10
18.261043363479434
 20
20.706019404391547
 30
0.0
 10
18.409788250594673
 20
20.948884393643212
 30
0.0
 10
18.724107939810988
 20
21.45924989525506
 30
0.0
 10
18.968408782429858
 20
22.145337421982738
 30
0.0
 10
19.095785547649953
 20
22.861228577490536
 30
0.0
 10
19.230208044810826
 20
23.608713791136452
 30
0.0
 10
19.23456334567666
 20
24.3769788672364
 30
0.0
 10
19.102761267236232
 20
24.989881259211458
 30
0.0
 10
19.037470699494868
 20
25.297852104442278
 30
0.0
 10
18.939774036579053
 20
25.562836111623447
 30
0.0
 10
18.80967127848885
 20
25.784833280755088
 30
0.0
 10
18.72592461884089
 20
25.926916494777664
 30
0.0
 10
18.6289877537687
 20
26.046947733893923
 30
0.0
 10
18.518860683272266
 20
26.14492699810384
 30
0.0
 10
18.365124856687178
 20
26.28082019308449
 30
0.0
 10
18.193423474604188
 20
26.365439908673743
 30
0.0
 10
18.00375653702323
 20
26.398786144871536
 30
0.0
  0
SPLINE
  5
C7
330
17
100
AcDbEntity
  8
visible
100
AcDbSpline
 70
0
 71
3
 72
8
 73
4
 74
0
 40
0.0
 40
0.0
 40
0.0
 40
0.0
 40
1.0
 40
1.0
 40
1.0
 40
1.0
 10
16.909972880874307
 20
19.991474905861722
 30
0.0
 10
17.159038958867267
 20
19.948406815778803
 30
0.0
 10
17.42147596185276
 20
20.00638020205412
 30
0.0
 10
17.662345874154816
 20
20.15151860842377
 30
0.0
  0
ENDSEC
  0
SECTION
  2
OBJECTS
  0
DICTIONARY
  5
A
330
0
100
AcDbDictionary
281
1
  3
ACAD_COLOR
350
B
  3
ACAD_GROUP
350
C
  3
ACAD_LAYOUT
350
D
  3
ACAD_MATERIAL
350
E
  3
ACAD_MLEADERSTYLE
350
F
  3
ACAD_MLINESTYLE
350
10
  3
ACAD_PLOTSETTINGS
350
11
  3
ACAD_PLOTSTYLENAME
350
12
  3
ACAD_SCALELIST
350
14
  3
ACAD_TABLESTYLE
350
15
  3
ACAD_VISUALSTYLE
350
16
  3
EZDXF_META
350
2D
  0
DICTIONARY
  5
B
330
A
100
AcDbDictionary
281
1
  0
DICTIONARY
  5
C
330
A
100
AcDbDictionary
281
1
  0
DICTIONARY
  5
D
330
A
100
AcDbDictionary
281
1
  3
Model
350
1A
  3
Layout1
350
1E
  0
DICTIONARY
  5
E
330
A
100
AcDbDictionary
281
1
  3
ByBlock
350
1F
  3
ByLayer
350
20
  3
Global
350
21
  0
DICTIONARY
  5
F
330
A
100
AcDbDictionary
281
1
  3
Standard
350
2C
  0
DICTIONARY
  5
10
330
A
100
AcDbDictionary
281
1
  3
Standard
350
22
  0
DICTIONARY
  5
11
330
A
100
AcDbDictionary
281
1
  0
ACDBDICTIONARYWDFLT
  5
12
330
A
100
AcDbDictionary
281
1
  3
Normal
350
13
100
AcDbDictionaryWithDefault
340
13
  0
ACDBPLACEHOLDER
  5
13
330
12
  0
DICTIONARY
  5
14
330
A
100
AcDbDictionary
281
1
  0
DICTIONARY
  5
15
330
A
100
AcDbDictionary
281
1
  0
DICTIONARY
  5
16
330
A
100
AcDbDictionary
281
1
  0
LAYOUT
  5
1A
330
D
100
AcDbPlotSettings
  1

  4
A3
  6

 40
7.5
 41
20.0
 42
7.5
 43
20.0
 44
420.0
 45
297.0
 46
0.0
 47
0.0
 48
0.0
 49
0.0
140
0.0
141
0.0
142
1.0
143
1.0
 70
1024
 72
1
 73
0
 74
5
  7

 75
16
 76
0
 77
2
 78
300
147
1.0
148
0.0
149
0.0
100
AcDbLayout
  1
Model
 70
1
 71
0
 10
0.0
 20
0.0
 11
420.0
 21
297.0
 12
0.0
 22
0.0
 32
0.0
 14
1e+20
 24
1e+20
 34
1e+20
 15
-1e+20
 25
-1e+20
 35
-1e+20
146
0.0
 13
0.0
 23
0.0
 33
0.0
 16
1.0
 26
0.0
 36
0.0
 17
0.0
 27
1.0
 37
0.0
 76
1
330
17
  0
LAYOUT
  5
1E
330
D
100
AcDbPlotSettings
  1

  4
A3
  6

 40
7.5
 41
20.0
 42
7.5
 43
20.0
 44
420.0
 45
297.0
 46
0.0
 47
0.0
 48
0.0
 49
0.0
140
0.0
141
0.0
142
1.0
143
1.0
 70
0
 72
1
 73
0
 74
5
  7

 75
16
 76
0
 77
2
 78
300
147
1.0
148
0.0
149
0.0
100
AcDbLayout
  1
Layout1
 70
1
 71
1
 10
0.0
 20
0.0
 11
420.0
 21
297.0
 12
0.0
 22
0.0
 32
0.0
 14
1e+20
 24
1e+20
 34
1e+20
 15
-1e+20
 25
-1e+20
 35
-1e+20
146
0.0
 13
0.0
 23
0.0
 33
0.0
 16
1.0
 26
0.0
 36
0.0
 17
0.0
 27
1.0
 37
0.0
 76
1
330
1B
  0
MATERIAL
  5
1F
102
{ACAD_REACTORS
330
E
102
}
330
E
100
AcDbMaterial
  1
ByBlock
  2

 70
0
 40
1.0
 71
1
 41
1.0
 91
-1023410177
 42
1.0
 72
1
  3

 73
1
 74
1
 75
1
 44
0.5
 73
0
 45
1.0
 46
1.0
 77
1
  4

 78
1
 79
1
170
1
 48
1.0
171
1
  6

172
1
173
1
174
1
140
1.0
141
1.0
175
1
  7

176
1
177
1
178
1
143
1.0
179
1
  8

270
1
271
1
272
1
145
1.0
146
1.0
273
1
  9

274
1
275
1
276
1
 42
1.0
 72
1
  3

 73
1
 74
1
 75
1
 94
63
  0
MATERIAL
  5
20
102
{ACAD_REACTORS
330
E
102
}
330
E
100
AcDbMaterial
  1
ByLayer
  2

 70
0
 40
1.0
 71
1
 41
1.0
 91
-1023410177
 42
1.0
 72
1
  3

 73
1
 74
1
 75
1
 44
0.5
 73
0
 45
1.0
 46
1.0
 77
1
  4

 78
1
 79
1
170
1
 48
1.0
171
1
  6

172
1
173
1
174
1
140
1.0
141
1.0
175
1
  7

176
1
177
1
178
1
143
1.0
179
1
  8

270
1
271
1
272
1
145
1.0
146
1.0
273
1
  9

274
1
275
1
276
1
 42
1.0
 72
1
  3

 73
1
 74
1
 75
1
 94
63
  0
MATERIAL
  5
21
102
{ACAD_REACTORS
330
E
102
}
330
E
100
AcDbMaterial
  1
Global
  2

 70
0
 40
1.0
 71
1
 41
1.0
 91
-1023410177
 42
1.0
 72
1
  3

 73
1
 74
1
 75
1
 44
0.5
 73
0
 45
1.0
 46
1.0
 77
1
  4

 78
1
 79
1
170
1
 48
1.0
171
1
  6

172
1
173
1
174
1
140
1.0
141
1.0
175
1
  7

176
1
177
1
178
1
143
1.0
179
1
  8

270
1
271
1
272
1
145
1.0
146
1.0
273
1
  9

274
1
275
1
276
1
 42
1.0
 72
1
  3

 73
1
 74
1
 75
1
 94
63
  0
MLINESTYLE
  5
22
102
{ACAD_REACTORS
330
10
102
}
330
10
100
AcDbMlineStyle
  2
Standard
 70
0
  3

 62
256
 51
90.0
 52
90.0
 71
2
 49
0.5
 62
256
  6
BYLAYER
 49
-0.5
 62
256
  6
BYLAYER
  0
MLEADERSTYLE
  5
2C
102
{ACAD_REACTORS
330
F
102
}
330
F
100
AcDbMLeaderStyle
179
2
170
2
171
1
172
0
 90
2
 40
0.0
 41
0.0
173
1
 91
-1056964608
 92
-2
290
1
 42
2.0
291
1
 43
8.0
  3
Standard
 44
4.0
300

342
29
174
1
175
1
176
0
178
1
 93
-1056964608
 45
4.0
292
0
297
0
 46
4.0
 94
-1056964608
 47
1.0
 49
1.0
140
1.0
294
1
141
0.0
177
0
142
1.0
295
0
296
0
143
3.75
271
0
272
9
273
9
  0
DICTIONARY
  5
2D
330
A
100
AcDbDictionary
280
1
281
1
  3
CREATED_BY_EZDXF
350
2E
  3
WRITTEN_BY_EZDXF
350
CB
  0
DICTIONARYVAR
  5
2E
330
2D
100
DictionaryVariables
280
0
  1
1.4.4 @ 2026-10-02T15:35:49.665761+00:00
  0
DICTIONARYVAR
  5
CB
330
2D
100
DictionaryVariables
280
0
  1
1.4.4 @ 2026-10-02T15:35:49.699335+00:00
  0
ENDSEC
  0
EOF
