  0
SECTION
  2
HEADER
  9
$ACADVER
  1
AC1027
  9
$ACADMAINTVER
 70
105
  9
$DWGCODEPAGE
  3
ANSI_1252
  9
$LASTSAVEDBY
  1
ezdxf
  9
$REQUIREDVERSIONS
160
0
  9
$INSBASE
 10
0.0
 20
0.0
 30
0.0
  9
$EXTMIN
 10
1e+20
 20
1e+20
 30
1e+20
  9
$EXTMAX
 10
-1e+20
 20
-1e+20
 30
-1e+20
  9
$LIMMIN
 10
0.0
 20
0.0
  9
$LIMMAX
 10
420.0
 20
297.0
  9
$ORTHOMODE
 70
0
  9
$REGENMODE
 70
1
  9
$FILLMODE
 70
1
  9
$QTEXTMODE
 70
0
  9
$MIRRTEXT
 70
1
  9
$LTSCALE
 40
1.0
  9
$ATTMODE
 70
1
  9
$TEXTSIZE
 40
2.5
  9
$TRACEWID
 40
1.0
  9
$TEXTSTYLE
  7
Standard
  9
$CLAYER
  8
0
  9
$CELTYPE
  6
ByLayer
  9
$CECOLOR
 62
256
  9
$CELTSCALE
 40
1.0
  9
$DISPSILH
 70
0
  9
$DIMSCALE
 40
1.0
  9
$DIMASZ
 40
2.5
  9
$DIMEXO
 40
0.625
  9
$DIMDLI
 40
3.75
  9
$DIMRND
 40
0.0
  9
$DIMDLE
 40
0.0
  9
$DIMEXE
 40
1.25
  9
$DIMTP
 40
0.0
  9
$DIMTM
 40
0.0
  9
$DIMTXT
 40
2.5
  9
$DIMCEN
 40
2.5
  9
$DIMTSZ
 40
0.0
  9
$DIMTOL
 70
0
  9
$DIMLIM
 70
0
  9
$DIMTIH
 70
0
  9
$DIMTOH
 70
0
  9
$DIMSE1
 70
0
  9
$DIMSE2
 70
0
  9
$DIMTAD
 70
1
  9
$DIMZIN
 70
8
  9
$DIMBLK
  1

  9
$DIMASO
 70
1
  9
$DIMSHO
 70
1
  9
$DIMPOST
  1

  9
$DIMAPOST
  1

  9
$DIMALT
 70
0
  9
$DIMALTD
 70
3
  9
$DIMALTF
 40
0.03937007874
  9
$DIMLFAC
 40
1.0
  9
$DIMTOFL
 70
1
  9
$DIMTVP
 40
0.0
  9
$DIMTIX
 70
0
  9
$DIMSOXD
 70
0
  9
$DIMSAH
 70
0
  9
$DIMBLK1
  1

  9
$DIMBLK2
  1

  9
$DIMSTYLE
  2
ISO-25
  9
$DIMCLRD
 70
0
  9
$DIMCLRE
 70
0
  9
$DIMCLRT
 70
0
  9
$DIMTFAC
 40
1.0
  9
$DIMGAP
 40
0.625
  9
$DIMJUST
 70
0
  9
$DIMSD1
 70
0
  9
$DIMSD2
 70
0
  9
$DIMTOLJ
 70
0
  9
$DIMTZIN
 70
8
  9
$DIMALTZ
 70
0
  9
$DIMALTTZ
 70
0
  9
$DIMUPT
 70
0
  9
$DIMDEC
 70
2
  9
$DIMTDEC
 70
2
  9
$DIMALTU
 70
2
  9
$DIMALTTD
 70
3
  9
$DIMTXSTY
  7
Standard
  9
$DIMAUNIT
 70
0
  9
$DIMADEC
 70
0
  9
$DIMALTRND
 40
0.0
  9
$DIMAZIN
 70
0
  9
$DIMDSEP
 70
44
  9
$DIMATFIT
 70
3
  9
$DIMFRAC
 70
0
  9
$DIMLDRBLK
  1

  9
$DIMLUNIT
 70
2
  9
$DIMLWD
 70
-2
  9
$DIMLWE
 70
-2
  9
$DIMTMOVE
 70
0
  9
$DIMFXL
 40
1.0
  9
$DIMFXLON
 70
0
  9
$DIMJOGANG
 40
0.785398163397
  9
$DIMTFILL
 70
0
  9
$DIMTFILLCLR
 70
0
  9
$DIMARCSYM
 70
0
  9
$DIMLTYPE
  6

  9
$DIMLTEX1
  6

  9
$DIMLTEX2
  6

  9
$DIMTXTDIRECTION
 70
0
  9
$LUNITS
 70
2
  9
$LUPREC
 70
4
  9
$SKETCHINC
 40
1.0
  9
$FILLETRAD
 40
10.0
  9
$AUNITS
 70
0
  9
$AUPREC
 70
2
  9
$MENU
  1
.
  9
$ELEVATION
 40
0.0
  9
$PELEVATION
 40
0.0
  9
$THICKNESS
 40
0.0
  9
$LIMCHECK
 70
0
  9
$CHAMFERA
 40
0.0
  9
$CHAMFERB
 40
0.0
  9
$CHAMFERC
 40
0.0
  9
$CHAMFERD
 40
0.0
  9
$SKPOLY
 70
0
  9
$TDCREATE
 40
2461317.7883564816
  9
$TDUCREATE
 40
2458532.153996898
  9
$TDUPDATE
 40
2461317.7883564816
  9
$TDUUPDATE
 40
2458532.1544311
  9
$TDINDWG
 40
0.0
  9
$TDUSRTIMER
 40
0.0
  9
$USRTIMER
 70
1
  9
$ANGBASE
 50
0.0
  9
$ANGDIR
 70
0
  9
$PDMODE
 70
0
  9
$PDSIZE
 40
0.0
  9
$PLINEWID
 40
0.0
  9
$SPLFRAME
 70
0
  9
$SPLINETYPE
 70
6
  9
$SPLINESEGS
 70
8
  9
$HANDSEED
  5
97
  9
$SURFTAB1
 70
6
  9
$SURFTAB2
 70
6
  9
$SURFTYPE
 70
6
  9
$SURFU
 70
6
  9
$SURFV
 70
6
  9
$UCSBASE
  2

  9
$UCSNAME
  2

  9
$UCSORG
 10
0.0
 20
0.0
 30
0.0
  9
$UCSXDIR
 10
1.0
 20
0.0
 30
0.0
  9
$UCSYDIR
 10
0.0
 20
1.0
 30
0.0
  9
$UCSORTHOREF
  2

  9
$UCSORTHOVIEW
 70
0
  9
$UCSORGTOP
 10
0.0
 20
0.0
 30
0.0
  9
$UCSORGBOTTOM
 10
0.0
 20
0.0
 30
0.0
  9
$UCSORGLEFT
 10
0.0
 20
0.0
 30
0.0
  9
$UCSORGRIGHT
 10
0.0
 20
0.0
 30
0.0
  9
$UCSORGFRONT
 10
0.0
 20
0.0
 30
0.0
  9
$UCSORGBACK
 10
0.0
 20
0.0
 30
0.0
  9
$PUCSBASE
  2

  9
$PUCSNAME
  2

  9
$PUCSORG
 10
0.0
 20
0.0
 30
0.0
  9
$PUCSXDIR
 10
1.0
 20
0.0
 30
0.0
  9
$PUCSYDIR
 10
0.0
 20
1.0
 30
0.0
  9
$PUCSORTHOREF
  2

  9
$PUCSORTHOVIEW
 70
0
  9
$PUCSORGTOP
 10
0.0
 20
0.0
 30
0.0
  9
$PUCSORGBOTTOM
 10
0.0
 20
0.0
 30
0.0
  9
$PUCSORGLEFT
 10
0.0
 20
0.0
 30
0.0
  9
$PUCSORGRIGHT
 10
0.0
 20
0.0
 30
0.0
  9
$PUCSORGFRONT
 10
0.0
 20
0.0
 30
0.0
  9
$PUCSORGBACK
 10
0.0
 20
0.0
 30
0.0
  9
$USERI1
 70
0
  9
$USERI2
 70
0
  9
$USERI3
 70
0
  9
$USERI4
 70
0
  9
$USERI5
 70
0
  9
$USERR1
 40
0.0
  9
$USERR2
 40
0.0
  9
$USERR3
 40
0.0
  9
$USERR4
 40
0.0
  9
$USERR5
 40
0.0
  9
$WORLDVIEW
 70
1
  9
$SHADEDGE
 70
3
  9
$SHADEDIF
 70
70
  9
$TILEMODE
 70
1
  9
$MAXACTVP
 70
64
  9
$PINSBASE
 10
0.0
 20
0.0
 30
0.0
  9
$PLIMCHECK
 70
0
  9
$PEXTMIN
 10
1e+20
 20
1e+20
 30
1e+20
  9
$PEXTMAX
 10
-1e+20
 20
-1e+20
 30
-1e+20
  9
$PLIMMIN
 10
0.0
 20
0.0
  9
$PLIMMAX
 10
420.0
 20
297.0
  9
$UNITMODE
 70
0
  9
$VISRETAIN
 70
1
  9
$PLINEGEN
 70
0
  9
$PSLTSCALE
 70
1
  9
$TREEDEPTH
 70
3020
  9
$CMLSTYLE
  2
Standard
  9
$CMLJUST
 70
0
  9
$CMLSCALE
 40
20.0
  9
$PROXYGRAPHICS
 70
1
  9
$MEASUREMENT
 70
1
  9
$CELWEIGHT
370
-1
  9
$ENDCAPS
280
0
  9
$JOINSTYLE
280
0
  9
$LWDISPLAY
290
0
  9
$INSUNITS
 70
4
  9
$HYPERLINKBASE
  1

  9
$STYLESHEET
  1

  9
$XEDIT
290
1
  9
$CEPSNTYPE
380
0
  9
$PSTYLEMODE
290
1
  9
$FINGERPRINTGUID
  2
{AD6434B9-04FA-47C8-A9A5-73A2DDF21DB2}
  9
$VERSIONGUID
  2
{D3B01D4F-2856-403B-922F-71B8B5374CC6}
  9
$EXTNAMES
290
1
  9
$PSVPSCALE
 40
0.0
  9
$OLESTARTUP
290
0
  9
$SORTENTS
280
127
  9
$INDEXCTL
280
0
  9
$HIDETEXT
280
1
  9
$XCLIPFRAME
280
1
  9
$HALOGAP
280
0
  9
$OBSCOLOR
 70
257
  9
$OBSLTYPE
280
0
  9
$INTERSECTIONDISPLAY
280
0
  9
$INTERSECTIONCOLOR
 70
257
  9
$DIMASSOC
280
2
  9
$PROJECTNAME
  1

  9
$CAMERADISPLAY
290
0
  9
$LENSLENGTH
 40
50.0
  9
$CAMERAHEIGHT
 40
0.0
  9
$STEPSPERSEC
 40
24.0
  9
$STEPSIZE
 40
100.0
  9
$3DDWFPREC
 40
2.0
  9
$PSOLWIDTH
 40
0.005
  9
$PSOLHEIGHT
 40
0.08
  9
$LOFTANG1
 40
1.570796326795
  9
$LOFTANG2
 40
1.570796326795
  9
$LOFTMAG1
 40
0.0
  9
$LOFTMAG2
 40
0.0
  9
$LOFTPARAM
 70
7
  9
$LOFTNORMALS
280
1
  9
$LATITUDE
 40
37.795
  9
$LONGITUDE
 40
-122.394
  9
$NORTHDIRECTION
 40
0.0
  9
$TIMEZONE
 70
-8000
  9
$LIGHTGLYPHDISPLAY
280
1
  9
$TILEMODELIGHTSYNCH
280
1
  9
$CMATERIAL
347
20
  9
$SOLIDHIST
280
0
  9
$SHOWHIST
280
1
  9
$DWFFRAME
280
2
  9
$DGNFRAME
280
2
  9
$REALWORLDSCALE
290
1
  9
$INTERFERECOLOR
 62
256
  9
$CSHADOW
280
0
  9
$SHADOWPLANELOCATION
 40
0.0
  0
ENDSEC
  0
SECTION
  2
CLASSES
  0
CLASS
  1
ACDBDICTIONARYWDFLT
  2
AcDbDictionaryWithDefault
  3
ObjectDBX Classes
 90
0
 91
0
280
0
281
0
  0
CLASS
  1
SUN
  2
AcDbSun
  3
SCENEOE
 90
1153
 91
0
280
0
281
0
  0
CLASS
  1
VISUALSTYLE
  2
AcDbVisualStyle
  3
ObjectDBX Classes
 90
4095
 91
0
280
0
281
0
  0
CLASS
  1
MATERIAL
  2
AcDbMaterial
  3
ObjectDBX Classes
 90
1153
 91
0
280
0
281
0
  0
CLASS
  1
SCALE
  2
AcDbScale
  3
ObjectDBX Classes
 90
1153
 91
0
280
0
281
0
  0
CLASS
  1
TABLESTYLE
  2
AcDbTableStyle
  3
ObjectDBX Classes
 90
4095
 91
0
280
0
281
0
  0
CLASS
  1
MLEADERSTYLE
  2
AcDbMLeaderStyle
  3
ACDB_MLEADERSTYLE_CLASS
 90
4095
 91
0
280
0
281
0
  0
CLASS
  1
DICTIONARYVAR
  2
AcDbDictionaryVar
  3
ObjectDBX Classes
 90
0
 91
0
280
0
281
0
  0
CLASS
  1
CELLSTYLEMAP
  2
AcDbCellStyleMap
  3
ObjectDBX Classes
 90
1152
 91
0
280
0
281
0
  0
CLASS
  1
MENTALRAYRENDERSETTINGS
  2
AcDbMentalRayRenderSettings
  3
SCENEOE
 90
1024
 91
0
280
0
281
0
  0
CLASS
  1
ACDBDETAILVIEWSTYLE
  2
AcDbDetailViewStyle
  3
ObjectDBX Classes
 90
1025
 91
0
280
0
281
0
  0
CLASS
  1
ACDBSECTIONVIEWSTYLE
  2
AcDbSectionViewStyle
  3
ObjectDBX Classes
 90
1025
 91
0
280
0
281
0
  0
CLASS
  1
RASTERVARIABLES
  2
AcDbRasterVariables
  3
ISM
 90
0
 91
0
280
0
281
0
  0
CLASS
  1
LAYOUT
  2
AcDbLayout
  3
ObjectDBX Classes
 90
0
 91
0
280
0
281
0
  0
CLASS
  1
ACDBPLACEHOLDER
  2
AcDbPlaceHolder
  3
ObjectDBX Classes
 90
0
 91
0
280
0
281
0
  0
ENDSEC
  0
SECTION
  2
TABLES
  0
TABLE
  2
VPORT
  5
8
330
0
100
AcDbSymbolTable
 70
1
  0
VPORT
  5
93
330
8
100
AcDbSymbolTableRecord
100
AcDbViewportTableRecord
  2
*Active
 70
0
 10
0.0
 20
0.0
 11
1.0
 21
1.0
 12
0.4720190198890677
 22
-2.1671716152674634
 13
0.0
 23
0.0
 14
0.5
 24
0.5
 15
0.5
 25
0.5
 16
0.0
 26
0.0
 36
1.0
 17
0.0
 27
0.0
 37
0.0
 40
65.45188772381167
 41
1.34
 42
50.0
 43
0.0
 44
0.0
 50
0.0
 51
0.0
 71
0
 72
1000
 73
1
 74
3
 75
0
 76
0
 77
0
 78
0
281
0
 65
1
110
0.0
120
0.0
130
0.0
111
1.0
121
0.0
131
0.0
112
0.0
122
1.0
132
0.0
 79
0
146
0.0
  0
ENDTAB
  0
TABLE
  2
LTYPE
  5
2
330
0
100
AcDbSymbolTable
 70
3
  0
LTYPE
  5
24
330
2
100
AcDbSymbolTableRecord
100
AcDbLinetypeTableRecord
  2
ByBlock
 70
0
  3

 72
65
 73
0
 40
0.0
  0
LTYPE
  5
25
330
2
100
AcDbSymbolTableRecord
100
AcDbLinetypeTableRecord
  2
ByLayer
 70
0
  3

 72
65
 73
0
 40
0.0
  0
LTYPE
  5
26
330
2
100
AcDbSymbolTableRecord
100
AcDbLinetypeTableRecord
  2
Continuous
 70
0
  3

 72
65
 73
0
 40
0.0
  0
ENDTAB
  0
TABLE
  2
LAYER
  5
1
330
0
100
AcDbSymbolTable
 70
3
  0
LAYER
  5
27
330
1
100
AcDbSymbolTableRecord
100
AcDbLayerTableRecord
  2
0
 70
0
 62
7
  6
Continuous
370
-3
390
13
347
21
  0
LAYER
  5
28
330
1
100
AcDbSymbolTableRecord
100
AcDbLayerTableRecord
  2
Defpoints
 70
0
 62
7
  6
Continuous
290
0
370
-3
390
13
347
21
  0
LAYER
  5
2F
330
1
100
AcDbSymbolTableRecord
100
AcDbLayerTableRecord
  2
visible
 70
0
 62
7
  6
Continuous
370
-3
390
13
347
21
  0
ENDTAB
  0
TABLE
  2
STYLE
  5
5
330
0
100
AcDbSymbolTable
 70
1
  0
STYLE
  5
29
330
5
100
AcDbSymbolTableRecord
100
AcDbTextStyleTableRecord
  2
Standard
 70
0
 40
0.0
 41
1.0
 50
0.0
 71
0
 42
2.5
  3
txt
  4

  0
ENDTAB
  0
TABLE
  2
VIEW
  5
7
330
0
100
AcDbSymbolTable
 70
0
  0
ENDTAB
  0
TABLE
  2
UCS
  5
6
330
0
100
AcDbSymbolTable
 70
0
  0
ENDTAB
  0
TABLE
  2
APPID
  5
3
330
0
100
AcDbSymbolTable
 70
3
  0
APPID
  5
2A
330
3
100
AcDbSymbolTableRecord
100
AcDbRegAppTableRecord
  2
ACAD
 70
0
  0
APPID
  5
94
330
3
100
AcDbSymbolTableRecord
100
AcDbRegAppTableRecord
  2
HATCHBACKGROUNDCOLOR
 70
0
  0
APPID
  5
95
330
3
100
AcDbSymbolTableRecord
100
AcDbRegAppTableRecord
  2
EZDXF
 70
0
  0
ENDTAB
  0
TABLE
  2
DIMSTYLE
  5
4
330
0
100
AcDbSymbolTable
 70
1
100
AcDbDimStyleTable
  0
DIMSTYLE
105
2B
330
4
100
AcDbSymbolTableRecord
100
AcDbDimStyleTableRecord
  2
Standard
 70
0
 40
1.0
 41
2.5
 42
0.625
 43
3.75
 44
1.25
 45
0.0
 46
0.0
 47
0.0
 48
0.0
 49
2.5
140
2.5
141
2.5
142
0.0
143
0.03937007874
144
1.0
145
0.0
146
1.0
147
0.625
148
0.0
 69
0
 70
0
 71
0
 72
0
 73
0
 74
0
 75
0
 76
0
 77
1
 78
8
 79
3
170
0
171
3
172
1
173
0
174
0
175
0
176
0
177
0
178
0
179
2
271
2
272
2
273
2
274
3
275
0
276
0
277
2
278
44
279
0
280
0
281
0
282
0
283
0
284
8
285
0
286
0
288
0
289
3
290
0
371
-2
372
-2
  0
ENDTAB
  0
TABLE
  2
BLOCK_RECORD
  5
9
330
0
100
AcDbSymbolTable
 70
2
  0
BLOCK_RECORD
  5
17
330
9
100
AcDbSymbolTableRecord
100
AcDbBlockTableRecord
  2
*Model_Space
340
1A
 70
0
280
1
281
0
  0
BLOCK_RECORD
  5
1B
330
9
100
AcDbSymbolTableRecord
100
AcDbBlockTableRecord
  2
*Paper_Space
340
1E
 70
0
280
1
281
0
  0
ENDTAB
  0
ENDSEC
  0
SECTION
  2
BLOCKS
  0
BLOCK
  5
18
330
17
100
AcDbEntity
  8
0
100
AcDbBlockBegin
  2
*Model_Space
 70
0
 10
0.0
 20
0.0
 30
0.0
  3
*Model_Space
  1

  0
ENDBLK
  5
19
330
17
100
AcDbEntity
  8
0
100
AcDbBlockEnd
  0
BLOCK
  5
1C
330
1B
100
AcDbEntity
  8
0
100
AcDbBlockBegin
  2
*Paper_Space
 70
0
 10
0.0
 20
0.0
 30
0.0
  3
*Paper_Space
  1

  0
ENDBLK
  5
1D
330
1B
100
AcDbEntity
  8
0
100
AcDbBlockEnd
  0
ENDSEC
  0
SECTION
  2
ENTITIES
  0
ELLIPSE
  5
30
330
17
100
AcDbEntity
  8
visible
100
AcDbEllipse
 10
8.853084459941936
 20
8.69276856167734
 30
0.0
 11
4.298876782575223
 21
16.654118361781737
 31
0.0
 40
0.6648537863539725
 41
-5.912852407721808
 42
-4.342056080926912
  0
LINE
  5
31
330
17
100
AcDbEntity
  8
visible
100
AcDbLine
 10
-3.0247009376337033
 20
-25.96020070997281
 30
0.0
 11
-3.0247009376337033
 21
5.329577151119743
 31
0.0
  0
ELLIPSE
  5
32
330
17
100
AcDbEntity
  8
visible
100
AcDbEllipse
 10
8.853084459941936
 20
-22.597009299415205
 30
0.0
 11
4.298876782575223
 21
16.65411836178174
 31
0.0
 40
0.6648537863539725
 41
-4.342056080926911
 42
-3.7358332377232513
  0
LINE
  5
33
330
17
100
AcDbEntity
  8
visible
100
AcDbLine
 10
-0.9081505614780028
 20
-34.79597157717062
 30
0.0
 11
1.3914474244575565
 21
-34.14484108986508
 31
0.0
  0
ELLIPSE
  5
34
330
17
100
AcDbEntity
  8
visible
100
AcDbEllipse
 10
8.853084459941936
 20
-22.597009299415205
 30
0.0
 11
3.645871984372056
 21
14.124336804848582
 31
0.0
 40
0.6648537863539725
 41
-4.342056080926912
 42
-3.605396523451766
  0
LINE
  5
35
330
17
100
AcDbEntity
  8
visible
100
AcDbLine
 10
-1.2204503743044484
 20
5.840450162710027
 30
0.0
 11
-1.2204503743044484
 21
-25.449327698382525
 31
0.0
  0
ELLIPSE
  5
36
330
17
100
AcDbEntity
  8
visible
100
AcDbEllipse
 10
8.853084459941936
 20
8.69276856167734
 30
0.0
 11
3.645871984372056
 21
14.124336804848582
 31
0.0
 40
0.6648537863539725
 41
-5.442009586052812
 42
-4.342056080926912
  0
LINE
  5
37
330
17
100
AcDbEntity
  8
visible
100
AcDbLine
 10
16.18509387831171
 20
23.284735997131534
 30
0.0
 11
4.283350715426957
 21
19.91476095243619
 31
0.0
  0
ELLIPSE
  5
38
330
17
100
AcDbEntity
  8
visible
100
AcDbEllipse
 10
11.615360133796738
 20
9.474906099016323
 30
0.0
 11
3.645871984372056
 21
14.124336804848582
 31
0.0
 40
0.6648537863539725
 41
-1.2004634273371186
 42
-0.10050992221121735
  0
LINE
  5
39
330
17
100
AcDbEntity
  8
visible
100
AcDbLine
 10
21.688894968043122
 20
-18.96255336310891
 30
0.0
 11
21.688894968043122
 21
12.327224497983643
 31
0.0
  0
ELLIPSE
  5
3A
330
17
100
AcDbEntity
  8
visible
100
AcDbEllipse
 10
11.615360133796738
 20
-21.814871762076223
 30
0.0
 11
3.645871984372057
 21
14.124336804848582
 31
0.0
 40
0.6648537863539727
 41
-1.9371229848122642
 42
-1.2004634273371186
  0
LINE
  5
3B
330
17
100
AcDbEntity
  8
visible
100
AcDbLine
 10
19.07699716928111
 20
-29.137182927854496
 30
0.0
 11
21.376595155216677
 21
-28.486052440548956
 31
0.0
  0
ELLIPSE
  5
3C
330
17
100
AcDbEntity
  8
visible
100
AcDbEllipse
 10
11.615360133796738
 20
-21.814871762076223
 30
0.0
 11
4.298876782575223
 21
16.654118361781737
 31
0.0
 40
0.6648537863539725
 41
-1.8066862705407787
 42
-1.2004634273371184
  0
LINE
  5
3D
330
17
100
AcDbEntity
  8
visible
100
AcDbLine
 10
23.493145531372377
 20
12.838097509573927
 30
0.0
 11
23.493145531372377
 21
-18.451680351518625
 31
0.0
  0
ELLIPSE
  5
3E
330
17
100
AcDbEntity
  8
visible
100
AcDbEllipse
 10
11.615360133796738
 20
9.474906099016323
 30
0.0
 11
4.298876782575223
 21
16.654118361781737
 31
0.0
 40
0.6648537863539725
 41
-7.483648734516705
 42
-5.912852407721808
  0
LINE
  5
3F
330
17
100
AcDbEntity
  8
visible
100
AcDbLine
 10
8.853084459941936
 20
25.252281768163257
 30
0.0
 11
11.615360133796736
 21
26.034419305502233
 31
0.0
  0
LINE
  5
40
330
17
100
AcDbEntity
  8
visible
100
AcDbLine
 10
6.552493961978454
 20
28.11149142676508
 30
0.0
 11
3.790218288123655
 21
27.329353889426105
 31
0.0
  0
ELLIPSE
  5
41
330
17
100
AcDbEntity
  8
visible
100
AcDbEllipse
 10
3.790218288123654
 20
9.999630766359473
 30
0.0
 11
4.498824539904303
 21
17.428728518143682
 31
0.0
 40
0.6648537863539725
 41
-5.912852407721808
 42
-4.342056080926912
  0
LINE
  5
42
330
17
100
AcDbEntity
  8
visible
100
AcDbLine
 10
-8.640022244222948
 20
6.48001184833408
 30
0.0
 11
-8.640022244222948
 21
2.6289622654303813
 31
0.0
  0
LINE
  5
43
330
17
100
AcDbEntity
  8
visible
100
AcDbLine
 10
-8.640022244222948
 20
2.6289622654303813
 30
0.0
 11
-8.640022244222948
 21
-24.809766012758473
 31
0.0
  0
ELLIPSE
  5
44
330
17
100
AcDbEntity
  8
visible
100
AcDbEllipse
 10
3.790218288123654
 20
-21.290147094733072
 30
0.0
 11
4.498824539904303
 21
17.428728518143682
 31
0.0
 40
0.6648537863539725
 41
-4.342056080926912
 42
-3.7624717405085564
  0
SPLINE
  5
45
330
17
100
AcDbEntity
  8
visible
100
AcDbSpline
 70
0
 71
2
 72
6
 73
3
 74
0
 40
0.0
 40
0.0
 40
0.0
 40
1.0
 40
1.0
 40
1.0
 10
-6.61004425026439
 20
-33.72605535282189
 30
0.0
 10
-6.506398848687286
 20
-33.71152000009113
 30
0.0
 10
-6.374596069688636
 20
-33.74499853445236
 30
0.0
  0
LINE
  5
46
330
17
100
AcDbEntity
  8
visible
100
AcDbLine
 10
-6.374596069688647
 20
-33.744998534452364
 30
0.0
 11
-2.1519760969287427
 21
-34.834970550274754
 31
0.0
  0
ELLIPSE
  5
47
330
17
100
AcDbEntity
  8
visible
100
AcDbEllipse
 10
5.171356125051055
 20
6.539649952125259
 30
0.0
 11
-4.248889843242958
 21
-16.460465822691255
 31
0.0
 40
0.6648537863539725
 41
0.7150340792564243
 42
1.5804165058891502
  0
ELLIPSE
  5
48
330
17
100
AcDbEntity
  8
visible
100
AcDbEllipse
 10
-0.4324531868326744
 20
-26.078759637792785
 30
0.0
 11
-0.287424901160553
 21
-1.1135020997702907
 31
0.0
 40
0.6648537863539725
 41
0.6880479889759151
 42
2.453544664613884
  0
ELLIPSE
  5
49
330
17
100
AcDbEntity
  8
visible
100
AcDbEllipse
 10
0.5077933879335816
 20
-26.321462618662324
 30
0.0
 11
-0.287424901160553
 21
-1.1135020997702907
 31
0.0
 40
0.6648537863539725
 41
0.3703328994577783
 42
3.1415926535897936
  0
ELLIPSE
  5
4A
330
17
100
AcDbEntity
  8
visible
100
AcDbEllipse
 10
0.5077933879335816
 20
-26.321462618662324
 30
0.0
 11
-0.287424901160553
 21
-1.1135020997702907
 31
0.0
 40
0.6648537863539725
 41
3.1415926535897936
 42
6.283185307179586
  0
ELLIPSE
  5
4B
330
17
100
AcDbEntity
  8
visible
100
AcDbEllipse
 10
0.5077933879335816
 20
-26.321462618662324
 30
0.0
 11
-0.287424901160553
 21
-1.1135020997702907
 31
0.0
 40
0.6648537863539725
 41
0.0
 42
0.3703328994577779
  0
ELLIPSE
  5
4C
330
17
100
AcDbEntity
  8
visible
100
AcDbEllipse
 10
7.4134825725705795
 20
5.96089669005174
 30
0.0
 11
-4.248889843242958
 21
-16.460465822691255
 31
0.0
 40
0.6648537863539725
 41
5.8271887093893895
 42
6.283185307179586
  0
ELLIPSE
  5
4D
330
17
100
AcDbEntity
  8
visible
100
AcDbEllipse
 10
7.4134825725705795
 20
5.96089669005174
 30
0.0
 11
-4.248889843242958
 21
-16.460465822691255
 31
0.0
 40
0.6648537863539725
 41
0.0
 42
0.3703328994577779
  0
ELLIPSE
  5
4E
330
17
100
AcDbEntity
  8
visible
100
AcDbEllipse
 10
7.4134825725705795
 20
5.96089669005174
 30
0.0
 11
-4.248889843242958
 21
-16.460465822691255
 31
0.0
 40
0.6648537863539725
 41
0.3703328994577783
 42
1.941129226252675
  0
LINE
  5
4F
330
17
100
AcDbEntity
  8
visible
100
AcDbLine
 10
19.15315418645348
 20
9.284981223742413
 30
0.0
 11
19.15315418645348
 21
-18.15374705444644
 31
0.0
  0
ELLIPSE
  5
50
330
17
100
AcDbEntity
  8
visible
100
AcDbEllipse
 10
8.79462040949798
 20
-21.08676281946761
 30
0.0
 11
3.7490204499202533
 21
14.5239404317864
 31
0.0
 40
0.6648537863539725
 41
-1.9124424822496866
 42
-1.2004634273371184
  0
LINE
  5
51
330
17
100
AcDbEntity
  8
visible
100
AcDbLine
 10
16.63675947998519
 20
-28.301334946949865
 30
0.0
 11
0.5284464990543869
 21
-32.862398987313625
 31
0.0
  0
ELLIPSE
  5
52
330
17
100
AcDbEntity
  8
visible
100
AcDbEllipse
 10
14.319171757207581
 20
-22.41077493196744
 30
0.0
 11
-0.287424901160553
 21
-1.1135020997702907
 31
0.0
 40
0.6648537863539725
 41
0.3703328994577783
 42
3.1415926535897936
  0
ELLIPSE
  5
53
330
17
100
AcDbEntity
  8
visible
100
AcDbEllipse
 10
14.319171757207581
 20
-22.41077493196744
 30
0.0
 11
-0.287424901160553
 21
-1.1135020997702907
 31
0.0
 40
0.6648537863539725
 41
3.1415926535897936
 42
6.283185307179586
  0
ELLIPSE
  5
54
330
17
100
AcDbEntity
  8
visible
100
AcDbEllipse
 10
14.319171757207581
 20
-22.41077493196744
 30
0.0
 11
-0.287424901160553
 21
-1.1135020997702907
 31
0.0
 40
0.6648537863539725
 41
0.0
 42
0.3703328994577779
  0
ELLIPSE
  5
55
330
17
100
AcDbEntity
  8
visible
100
AcDbEllipse
 10
13.378925182441325
 20
-22.1680719510979
 30
0.0
 11
-0.287424901160553
 21
-1.1135020997702907
 31
0.0
 40
0.6648537863539725
 41
0.688047988975911
 42
2.453544664613883
  0
LINE
  5
56
330
17
100
AcDbEntity
  8
visible
100
AcDbLine
 10
16.63675947998519
 20
-28.30133494694987
 30
0.0
 11
18.951212587102123
 21
-28.89875766909027
 31
0.0
  0
LINE
  5
57
330
17
100
AcDbEntity
  8
visible
100
AcDbLine
 10
19.15315418645348
 20
13.136030806646112
 30
0.0
 11
19.15315418645348
 21
9.284981223742413
 31
0.0
  0
ELLIPSE
  5
58
330
17
100
AcDbEntity
  8
visible
100
AcDbEllipse
 10
8.79462040949798
 20
10.203015041624937
 30
0.0
 11
3.7490204499202533
 21
14.5239404317864
 31
0.0
 40
0.6648537863539725
 41
-1.2004634273371186
 42
-0.33569803108414575
  0
ELLIPSE
  5
59
330
17
100
AcDbEntity
  8
visible
100
AcDbEllipse
 10
7.4134825725705795
 20
5.96089669005174
 30
0.0
 11
-4.248889843242958
 21
-16.460465822691255
 31
0.0
 40
0.6648537863539725
 41
1.941129226252675
 42
3.076556535916391
  0
LINE
  5
5A
330
17
100
AcDbEntity
  8
visible
100
AcDbLine
 10
16.155527194388757
 20
3.8732403564692897
 30
0.0
 11
7.476328042700272
 21
6.11357556449579
 31
0.0
  0
ELLIPSE
  5
5B
330
17
100
AcDbEntity
  8
visible
100
AcDbEllipse
 10
-3.507843026637431
 20
8.779985160151753
 30
0.0
 11
-4.99869393322701
 21
-19.365253909048533
 31
0.0
 40
0.6648537863539725
 41
1.0138340082510626
 42
1.5789734440231473
  0
LINE
  5
5C
330
17
100
AcDbEntity
  8
visible
100
AcDbLine
 10
0.4591733872293058
 20
-5.500953651099858
 30
0.0
 11
4.7789839949269695
 21
-4.277800559446108
 31
0.0
  0
ELLIPSE
  5
5D
330
17
100
AcDbEntity
  8
visible
100
AcDbEllipse
 10
-3.507843026637431
 20
8.779985160151753
 30
0.0
 11
-4.248889843242958
 21
-16.460465822691255
 31
0.0
 40
0.6648537863539725
 41
0.7150340792564243
 42
1.5804165058891502
  0
LINE
  5
5E
330
17
100
AcDbEntity
  8
visible
100
AcDbLine
 10
7.413482572570569
 20
-10.406064037288944
 30
0.0
 11
-0.5082063909334753
 21
-8.361262623955728
 31
0.0
  0
ELLIPSE
  5
5F
330
17
100
AcDbEntity
  8
visible
100
AcDbEllipse
 10
-7.051849346910224
 20
9.69478870342924
 30
0.0
 11
-4.248889843242958
 21
-16.460465822691255
 31
0.0
 40
0.6648537863539725
 41
0.8901551805102368
 42
1.6331272285414666
  0
SPLINE
  5
60
330
17
100
AcDbEntity
  8
visible
100
AcDbSpline
 70
0
 71
3
 72
11
 73
7
 74
0
 40
0.0
 40
0.0
 40
0.0
 40
0.0
 40
0.6190548357282678
 40
0.6190548357282678
 40
0.6190548357282678
 40
1.0
 40
1.0
 40
1.0
 40
1.0
 10
5.266435543751907
 20
12.869517556584796
 30
0.0
 10
5.099265583050896
 20
11.884235700711338
 30
0.0
 10
4.860340773144617
 20
10.878740567012777
 30
0.0
 10
4.6016072374956405
 20
9.842207986520286
 30
0.0
 10
4.444102731840427
 20
9.207001067869777
 30
0.0
 10
4.277110056196511
 20
8.558065844287011
 30
0.0
 10
4.135367132201715
 20
7.900715426887628
 30
0.0
  0
SPLINE
  5
61
330
17
100
AcDbEntity
  8
visible
100
AcDbSpline
 70
0
 71
3
 72
11
 73
7
 74
0
 40
0.0
 40
0.0
 40
0.0
 40
0.0
 40
0.4999999243322487
 40
0.4999999243322487
 40
0.4999999243322487
 40
0.9999998486644974
 40
0.9999998486644974
 40
0.9999998486644974
 40
0.9999998486644974
 10
5.266435543751907
 20
12.869517556584796
 30
0.0
 10
5.159736871173441
 20
13.54026664256894
 30
0.0
 10
5.0316433594008405
 20
14.20078095181502
 30
0.0
 10
4.882155008434092
 20
14.851060484322977
 30
0.0
 10
4.734686644090381
 20
15.501589148364202
 30
0.0
 10
4.569175888808937
 20
16.145732618180578
 30
0.0
 10
4.4073874904909855
 20
16.76390553518926
 30
0.0
  0
SPLINE
  5
62
330
17
100
AcDbEntity
  8
visible
100
AcDbSpline
 70
0
 71
2
 72
6
 73
3
 74
0
 40
0.0
 40
0.0
 40
0.0
 40
1.0
 40
1.0
 40
1.0
 10
4.090801314308774
 20
18.00278877946272
 30
0.0
 10
4.243951008234596
 20
17.39696913047986
 30
0.0
 10
4.40738749040116
 20
16.763905535154407
 30
0.0
  0
ELLIPSE
  5
63
330
17
100
AcDbEntity
  8
visible
100
AcDbEllipse
 10
-7.051849346910224
 20
9.69478870342924
 30
0.0
 11
-4.248889843242958
 21
-16.460465822691255
 31
0.0
 40
0.6648537863539725
 41
2.2614165259654992
 42
2.3537895272208407
  0
LINE
  5
64
330
17
100
AcDbEntity
  8
visible
100
AcDbLine
 10
9.138372538917789
 20
-7.741288859126349
 30
0.0
 11
0.45917338722930445
 21
-5.500953651099849
 31
0.0
  0
ELLIPSE
  5
65
330
17
100
AcDbEntity
  8
visible
100
AcDbEllipse
 10
-9.293975794429755
 20
10.273541965502758
 30
0.0
 11
-4.99869393322701
 21
-19.365253909048533
 31
0.0
 40
0.6648537863539725
 41
5.366515989050806
 42
6.283185307179586
  0
ELLIPSE
  5
66
330
17
100
AcDbEntity
  8
visible
100
AcDbEllipse
 10
-9.293975794429755
 20
10.273541965502758
 30
0.0
 11
-4.99869393322701
 21
-19.365253909048533
 31
0.0
 40
0.6648537863539725
 41
3.1415926535897936
 42
4.779234586275127
  0
SPLINE
  5
67
330
17
100
AcDbEntity
  8
visible
100
AcDbSpline
 70
0
 71
3
 72
8
 73
4
 74
0
 40
0.0
 40
0.0
 40
0.0
 40
0.0
 40
1.0
 40
1.0
 40
1.0
 40
1.0
 10
-22.474175780945565
 20
12.296001968432236
 30
0.0
 10
-22.61544890361205
 20
11.62566549008259
 30
0.0
 10
-22.712685388991552
 20
10.945785863239543
 30
0.0
 10
-22.75048119438111
 20
10.273342945286473
 30
0.0
  0
SPLINE
  5
68
330
17
100
AcDbEntity
  8
visible
100
AcDbSpline
 70
0
 71
3
 72
8
 73
4
 74
0
 40
0.0
 40
0.0
 40
0.0
 40
0.0
 40
0.78382716727026
 40
0.78382716727026
 40
0.78382716727026
 40
0.78382716727026
 10
-22.52674088692452
 20
6.213498598272778
 30
0.0
 10
-22.67775833675138
 20
7.260534523820348
 30
0.0
 10
-22.7736317472479
 20
8.319315000185863
 30
0.0
 10
-22.774285748921166
 20
9.390072882086137
 30
0.0
  0
SPLINE
  5
69
330
17
100
AcDbEntity
  8
visible
100
AcDbSpline
 70
0
 71
2
 72
6
 73
3
 74
0
 40
0.0
 40
0.0
 40
0.0
 40
1.0
 40
1.0
 40
1.0
 10
-22.774285748921162
 20
9.390072882086137
 30
0.0
 10
-22.774602944661893
 20
9.832628238725643
 30
0.0
 10
-22.75048119442001
 20
10.273342945280671
 30
0.0
  0
SPLINE
  5
6A
330
17
100
AcDbEntity
  8
visible
100
AcDbSpline
 70
0
 71
3
 72
8
 73
4
 74
0
 40
0.0
 40
0.0
 40
0.0
 40
0.0
 40
0.5579112661952329
 40
0.5579112661952329
 40
0.5579112661952329
 40
0.5579112661952329
 10
-22.52674088692452
 20
6.213498598272778
 30
0.0
 10
-22.677699698100877
 20
5.245234034646749
 30
0.0
 10
-22.773698106635408
 20
4.295069234794167
 30
0.0
 10
-22.77428575262917
 20
3.349779245212627
 30
0.0
  0
SPLINE
  5
6B
330
17
100
AcDbEntity
  8
visible
100
AcDbSpline
 70
0
 71
3
 72
8
 73
4
 74
0
 40
0.0
 40
0.0
 40
0.0
 40
0.0
 40
1.0
 40
1.0
 40
1.0
 40
1.0
 10
-22.77428575262917
 20
3.349779245212628
 30
0.0
 10
-22.773459896873
 20
2.602273395115402
 30
0.0
 10
-22.715140109103327
 20
1.8630184294988743
 30
0.0
 10
-22.5528990289328
 20
1.1278123702104779
 30
0.0
  0
LINE
  5
6C
330
17
100
AcDbEntity
  8
visible
100
AcDbLine
 10
11.099102411467666
 20
-5.909193451809709
 30
0.0
 11
4.778983994926971
 21
-4.2778005594461055
 31
0.0
  0
ELLIPSE
  5
6D
330
17
100
AcDbEntity
  8
visible
100
AcDbEllipse
 10
6.552493961978456
 20
10.781768303698442
 30
0.0
 11
4.498824539904303
 21
17.428728518143682
 31
0.0
 40
0.6648537863539725
 41
-6.283185307179586
 42
-5.912852407721808
  0
LINE
  5
6E
330
17
100
AcDbEntity
  8
visible
100
AcDbLine
 10
23.493145531372377
 20
12.838097509573931
 30
0.0
 11
23.493145531372377
 21
13.126926228291705
 31
0.0
  0
SPLINE
  5
6F
330
17
100
AcDbEntity
  8
visible
100
AcDbSpline
 70
0
 71
3
 72
8
 73
4
 74
0
 40
0.0
 40
0.0
 40
0.0
 40
0.0
 40
1.0
 40
1.0
 40
1.0
 40
1.0
 10
21.675178907193448
 20
-28.319836216983973
 30
0.0
 10
21.65013385910654
 20
-28.380424788192244
 30
0.0
 10
21.539729096963512
 20
-28.440035659825718
 30
0.0
 10
21.376595155216677
 20
-28.486052440548946
 30
0.0
  0
SPLINE
  5
70
330
17
100
AcDbEntity
  8
visible
100
AcDbSpline
 70
0
 71
2
 72
6
 73
3
 74
0
 40
0.0
 40
0.0
 40
0.0
 40
0.5087368688075037
 40
0.5087368688075037
 40
0.5087368688075037
 10
18.95121258710212
 20
-28.89875766909026
 30
0.0
 10
19.117809139107536
 20
-28.942967808127353
 30
0.0
 10
19.146597391536208
 20
-29.009372168337073
 30
0.0
  0
SPLINE
  5
71
330
17
100
AcDbEntity
  8
visible
100
AcDbSpline
 70
0
 71
3
 72
11
 73
7
 74
0
 40
0.0
 40
0.0
 40
0.0
 40
0.0
 40
0.4872284038671597
 40
0.4872284038671597
 40
0.4872284038671597
 40
1.0
 40
1.0
 40
1.0
 40
1.0
 10
-2.1519760969287347
 20
-34.83497055027476
 30
0.0
 10
-1.9982486716963743
 20
-34.875130070242705
 30
0.0
 10
-1.772522617684288
 20
-34.893115477173296
 30
0.0
 10
-1.5485144225106229
 20
-34.88577960287125
 30
0.0
 10
-1.3119888243786157
 20
-34.87855631336668
 30
0.0
 10
-1.0802762526764307
 20
-34.844938422754566
 30
0.0
 10
-0.9081505614779958
 20
-34.795971577170604
 30
0.0
  0
LINE
  5
72
330
17
100
AcDbEntity
  8
visible
100
AcDbLine
 10
-3.0247009376337033
 20
5.329577151119743
 30
0.0
 11
-3.0247009376337033
 21
5.618405869837517
 31
0.0
  0
ELLIPSE
  5
73
330
17
100
AcDbEntity
  8
visible
100
AcDbEllipse
 10
8.274471183162706
 20
25.401637448698366
 30
0.0
 11
0.21795121148875843
 21
-0.7697384422065606
 31
0.0
 40
0.6963338806885014
 41
-5.098597107145865
 42
-3.5278007803509692
  0
LINE
  5
74
330
17
100
AcDbEntity
  8
visible
100
AcDbLine
 10
8.274471183162706
 20
26.171847365279092
 30
0.0
 11
11.036746857017507
 21
26.953984902618068
 31
0.0
  0
ELLIPSE
  5
75
330
17
100
AcDbEntity
  8
visible
100
AcDbEllipse
 10
11.036746857017508
 20
26.18377498603735
 30
0.0
 11
0.2179512114887584
 21
-0.7697384422065606
 31
0.0
 40
0.6963338806885014
 41
-5.098597107145865
 42
-3.5278007803509692
  0
LINE
  5
76
330
17
100
AcDbEntity
  8
visible
100
AcDbLine
 10
11.036746857017508
 20
26.95398490261805
 30
0.0
 11
6.552493961978456
 21
28.111491426765074
 31
0.0
  0
LINE
  5
77
330
17
100
AcDbEntity
  8
visible
100
AcDbLine
 10
8.274471183162706
 20
26.17184736527908
 30
0.0
 11
3.790218288123654
 21
27.329353889426105
 31
0.0
  0
ELLIPSE
  5
78
330
17
100
AcDbEntity
  8
visible
100
AcDbEllipse
 10
8.274471183162706
 20
8.84212424221245
 30
0.0
 11
4.498824539904303
 21
17.428728518143682
 31
0.0
 40
0.6648537863539725
 41
-5.912852407721808
 42
-4.342056080926912
  0
LINE
  5
79
330
17
100
AcDbEntity
  8
visible
100
AcDbLine
 10
-4.155769349183893
 20
5.322505324187039
 30
0.0
 11
-8.640022244222944
 21
6.480011848334063
 31
0.0
  0
LINE
  5
7A
330
17
100
AcDbEntity
  8
visible
100
AcDbLine
 10
-4.155769349183892
 20
-25.967272536905497
 30
0.0
 11
-4.155769349183892
 21
5.3225053241870555
 31
0.0
  0
LINE
  5
7B
330
17
100
AcDbEntity
  8
visible
100
AcDbLine
 10
-4.155769349183893
 20
-25.967272536905508
 30
0.0
 11
-8.640022244222944
 21
-24.809766012758484
 31
0.0
  0
ELLIPSE
  5
7C
330
17
100
AcDbEntity
  8
visible
100
AcDbEllipse
 10
8.274471183162706
 20
-22.447653618880096
 30
0.0
 11
4.498824539904303
 21
17.428728518143682
 31
0.0
 40
0.6648537863539725
 41
-4.342056080926911
 42
-3.766329432946721
  0
ELLIPSE
  5
7D
330
17
100
AcDbEntity
  8
visible
100
AcDbEllipse
 10
11.109073516614913
 20
-21.684185541608016
 30
0.0
 11
-3.7490204499202537
 21
-14.5239404317864
 31
0.0
 40
0.6648537863539727
 41
1.2291501713401065
 42
1.9411292262526745
  0
LINE
  5
7E
330
17
100
AcDbEntity
  8
visible
100
AcDbLine
 10
21.467607293570413
 20
-18.751169776586845
 30
0.0
 11
19.15315418645348
 21
-18.153747054446445
 31
0.0
  0
LINE
  5
7F
330
17
100
AcDbEntity
  8
visible
100
AcDbLine
 10
21.467607293570413
 20
-18.75116977658685
 30
0.0
 11
21.467607293570413
 21
12.538608084505704
 31
0.0
  0
LINE
  5
80
330
17
100
AcDbEntity
  8
visible
100
AcDbLine
 10
21.467607293570413
 20
12.5386080845057
 30
0.0
 11
19.15315418645348
 21
13.136030806646101
 31
0.0
  0
ELLIPSE
  5
81
330
17
100
AcDbEntity
  8
visible
100
AcDbEllipse
 10
11.109073516614913
 20
9.60559231948453
 30
0.0
 11
-3.7490204499202533
 21
-14.5239404317864
 31
0.0
 40
0.6648537863539725
 41
1.9411292262526747
 42
2.5666883588480625
  0
ELLIPSE
  5
82
330
17
100
AcDbEntity
  8
visible
100
AcDbEllipse
 10
4.7139804089809445
 20
16.564139632020698
 30
0.0
 11
0.8
 21
0.0
 31
0.0
 40
0.27034897702058747
 41
1.9640991513182953
 42
2.37931730012419
  0
ELLIPSE
  5
83
330
17
100
AcDbEntity
  8
visible
100
AcDbEllipse
 10
-5.670711509982823
 20
13.936907055002422
 30
0.0
 11
-3.5490726925911726
 21
-13.749330275424459
 31
0.0
 40
0.6648537863539725
 41
1.9411292262526747
 42
2.0365038567565357
  0
LINE
  5
84
330
17
100
AcDbEntity
  8
visible
100
AcDbLine
 10
4.135367132201715
 20
7.900715426887324
 30
0.0
 11
4.135367132201715
 21
16.7134953125558
 31
0.0
  0
ELLIPSE
  5
85
330
17
100
AcDbEntity
  8
visible
100
AcDbEllipse
 10
11.036746857017508
 20
9.624261779551418
 30
0.0
 11
4.498824539904304
 21
17.428728518143682
 31
0.0
 40
0.6648537863539725
 41
-6.283185307179586
 42
-5.912852407721808
  0
ELLIPSE
  5
86
330
17
100
AcDbEntity
  8
visible
100
AcDbEllipse
 10
22.914532254593148
 20
12.987453190109022
 30
0.0
 11
-0.8
 21
-6.918984556649907e-17
 31
0.0
 40
0.2703489770205876
 41
-3.903868007055397
 42
-3.1415926535897936
  0
ELLIPSE
  5
87
330
17
100
AcDbEntity
  8
visible
100
AcDbEllipse
 10
22.914532254593148
 20
-18.302324670983523
 30
0.0
 11
-0.8
 21
-0.0
 31
0.0
 40
0.27034897702058747
 41
-3.903868007055397
 42
-3.1415926535897936
  0
ELLIPSE
  5
88
330
17
100
AcDbEntity
  8
visible
100
AcDbEllipse
 10
20.91515215879945
 20
-18.907597284054646
 30
0.0
 11
-0.8
 21
1.3837969113299812e-16
 31
0.0
 40
0.27034897702058736
 41
-2.8846778104083564
 42
-2.3330716802605003
  0
ELLIPSE
  5
89
330
17
100
AcDbEntity
  8
visible
100
AcDbEllipse
 10
20.91515215879945
 20
12.3821805770379
 30
0.0
 11
-0.8
 21
-0.0
 31
0.0
 40
0.27034897702058747
 41
-2.883153329083792
 42
-2.3330716802605003
  0
ELLIPSE
  5
8A
330
17
100
AcDbEntity
  8
visible
100
AcDbEllipse
 10
-3.603314214412933
 20
-25.8108450294377
 30
0.0
 11
0.8
 21
1.3837969113299817e-16
 31
0.0
 40
0.2703489770205877
 41
3.950113626919086
 42
5.520909953713982
  0
ELLIPSE
  5
8B
330
17
100
AcDbEntity
  8
visible
100
AcDbEllipse
 10
-3.603314214412933
 20
5.478932831654845
 30
0.0
 11
0.8
 21
0.0
 31
0.0
 40
0.27034897702058747
 41
3.950113626919086
 42
5.520909953713982
  0
LINE
  5
8C
330
17
100
AcDbEntity
  8
visible
100
AcDbLine
 10
-22.77428575215356
 20
3.3497792436415246
 30
0.0
 11
-22.77428575215356
 21
9.39007288579607
 31
0.0
  0
LINE
  5
8D
330
17
100
AcDbEntity
  8
visible
100
AcDbLine
 10
4.201018363309656
 20
27.445671808808953
 30
0.0
 11
-4.295281861202749
 21
29.638795874551302
 31
0.0
  0
LINE
  5
8E
330
17
100
AcDbEntity
  8
visible
100
AcDbLine
 10
-8.64002224422295
 20
-10.55081259953607
 30
0.0
 11
-14.292669727656762
 21
-9.091711943545766
 31
0.0
  0
LINE
  5
8F
330
17
100
AcDbEntity
  8
visible
100
AcDbLine
 10
11.051318501882758
 20
28.21049682184213
 30
0.0
 11
15.53557139692181
 21
27.052990297695107
 31
0.0
  0
SPLINE
  5
90
330
17
100
AcDbEntity
  8
visible
100
AcDbSpline
 70
0
 71
3
 72
14
 73
10
 74
0
 40
0.0
 40
0.0
 40
0.0
 40
0.0
 40
0.40367043690896337
 40
0.40367043690896337
 40
0.40367043690896337
 40
0.737255447126704
 40
0.737255447126704
 40
0.737255447126704
 40
1.0
 40
1.0
 40
1.0
 40
1.0
 10
15.535571396921812
 20
27.052990297695118
 30
0.0
 10
17.498745571465218
 20
26.550053505360918
 30
0.0
 10
19.26159187469633
 20
25.320457953907056
 30
0.0
 10
20.61196283017895
 20
23.54477074109793
 30
0.0
 10
21.731237705345478
 20
22.07968549130027
 30
0.0
 10
22.576595202471857
 20
20.246144525495914
 30
0.0
 10
23.096116577383352
 20
18.18655955603717
 30
0.0
 10
23.506177870450273
 20
16.56498449583
 30
0.0
 10
23.714843572201573
 20
14.804092328073008
 30
0.0
 10
23.714532254593145
 20
12.987453190109022
 30
0.0
  0
LINE
  5
91
330
17
100
AcDbEntity
  8
visible
100
AcDbLine
 10
23.714532254593145
 20
12.987453190109022
 30
0.0
 11
23.714532254593145
 21
-18.30232467098353
 31
0.0
  0
SPLINE
  5
92
330
17
100
AcDbEntity
  8
visible
100
AcDbSpline
 70
0
 71
3
 72
8
 73
4
 74
0
 40
0.0
 40
0.0
 40
0.0
 40
0.0
 40
1.0
 40
1.0
 40
1.0
 40
1.0
 10
23.714532254593145
 20
-18.302324670983523
 30
0.0
 10
23.7183237924073
 20
-21.642156622737563
 30
0.0
 10
23.00015378047899
 20
-25.167195009582315
 30
0.0
 10
21.675178918288154
 20
-28.31983622131989
 30
0.0
  0
ENDSEC
  0
SECTION
  2
OBJECTS
  0
DICTIONARY
  5
A
330
0
100
AcDbDictionary
281
1
  3
ACAD_COLOR
350
B
  3
ACAD_GROUP
350
C
  3
ACAD_LAYOUT
350
D
  3
ACAD_MATERIAL
350
E
  3
ACAD_MLEADERSTYLE
350
F
  3
ACAD_MLINESTYLE
350
10
  3
ACAD_PLOTSETTINGS
350
11
  3
ACAD_PLOTSTYLENAME
350
12
  3
ACAD_SCALELIST
350
14
  3
ACAD_TABLESTYLE
350
15
  3
ACAD_VISUALSTYLE
350
16
  3
EZDXF_META
350
2D
  0
DICTIONARY
  5
B
330
A
100
AcDbDictionary
281
1
  0
DICTIONARY
  5
C
330
A
100
AcDbDictionary
281
1
  0
DICTIONARY
  5
D
330
A
100
AcDbDictionary
281
1
  3
Model
350
1A
  3
Layout1
350
1E
  0
DICTIONARY
  5
E
330
A
100
AcDbDictionary
281
1
  3
ByBlock
350
1F
  3
ByLayer
350
20
  3
Global
350
21
  0
DICTIONARY
  5
F
330
A
100
AcDbDictionary
281
1
  3
Standard
350
2C
  0
DICTIONARY
  5
10
330
A
100
AcDbDictionary
281
1
  3
Standard
350
22
  0
DICTIONARY
  5
11
330
A
100
AcDbDictionary
281
1
  0
ACDBDICTIONARYWDFLT
  5
12
330
A
100
AcDbDictionary
281
1
  3
Normal
350
13
100
AcDbDictionaryWithDefault
340
13
  0
ACDBPLACEHOLDER
  5
13
330
12
  0
DICTIONARY
  5
14
330
A
100
AcDbDictionary
281
1
  0
DICTIONARY
  5
15
330
A
100
AcDbDictionary
281
1
  0
DICTIONARY
  5
16
330
A
100
AcDbDictionary
281
1
  0
LAYOUT
  5
1A
330
D
100
AcDbPlotSettings
  1

  4
A3
  6

 40
7.5
 41
20.0
 42
7.5
 43
20.0
 44
420.0
 45
297.0
 46
0.0
 47
0.0
 48
0.0
 49
0.0
140
0.0
141
0.0
142
1.0
143
1.0
 70
1024
 72
1
 73
0
 74
5
  7

 75
16
 76
0
 77
2
 78
300
147
1.0
148
0.0
149
0.0
100
AcDbLayout
  1
Model
 70
1
 71
0
 10
0.0
 20
0.0
 11
420.0
 21
297.0
 12
0.0
 22
0.0
 32
0.0
 14
1e+20
 24
1e+20
 34
1e+20
 15
-1e+20
 25
-1e+20
 35
-1e+20
146
0.0
 13
0.0
 23
0.0
 33
0.0
 16
1.0
 26
0.0
 36
0.0
 17
0.0
 27
1.0
 37
0.0
 76
1
330
17
  0
LAYOUT
  5
1E
330
D
100
AcDbPlotSettings
  1

  4
A3
  6

 40
7.5
 41
20.0
 42
7.5
 43
20.0
 44
420.0
 45
297.0
 46
0.0
 47
0.0
 48
0.0
 49
0.0
140
0.0
141
0.0
142
1.0
143
1.0
 70
0
 72
1
 73
0
 74
5
  7

 75
16
 76
0
 77
2
 78
300
147
1.0
148
0.0
149
0.0
100
AcDbLayout
  1
Layout1
 70
1
 71
1
 10
0.0
 20
0.0
 11
420.0
 21
297.0
 12
0.0
 22
0.0
 32
0.0
 14
1e+20
 24
1e+20
 34
1e+20
 15
-1e+20
 25
-1e+20
 35
-1e+20
146
0.0
 13
0.0
 23
0.0
 33
0.0
 16
1.0
 26
0.0
 36
0.0
 17
0.0
 27
1.0
 37
0.0
 76
1
330
1B
  0
MATERIAL
  5
1F
102
{ACAD_REACTORS
330
E
102
}
330
E
100
AcDbMaterial
  1
ByBlock
  2

 70
0
 40
1.0
 71
1
 41
1.0
 91
-1023410177
 42
1.0
 72
1
  3

 73
1
 74
1
 75
1
 44
0.5
 73
0
 45
1.0
 46
1.0
 77
1
  4

 78
1
 79
1
170
1
 48
1.0
171
1
  6

172
1
173
1
174
1
140
1.0
141
1.0
175
1
  7

176
1
177
1
178
1
143
1.0
179
1
  8

270
1
271
1
272
1
145
1.0
146
1.0
273
1
  9

274
1
275
1
276
1
 42
1.0
 72
1
  3

 73
1
 74
1
 75
1
 94
63
  0
MATERIAL
  5
20
102
{ACAD_REACTORS
330
E
102
}
330
E
100
AcDbMaterial
  1
ByLayer
  2

 70
0
 40
1.0
 71
1
 41
1.0
 91
-1023410177
 42
1.0
 72
1
  3

 73
1
 74
1
 75
1
 44
0.5
 73
0
 45
1.0
 46
1.0
 77
1
  4

 78
1
 79
1
170
1
 48
1.0
171
1
  6

172
1
173
1
174
1
140
1.0
141
1.0
175
1
  7

176
1
177
1
178
1
143
1.0
179
1
  8

270
1
271
1
272
1
145
1.0
146
1.0
273
1
  9

274
1
275
1
276
1
 42
1.0
 72
1
  3

 73
1
 74
1
 75
1
 94
63
  0
MATERIAL
  5
21
102
{ACAD_REACTORS
330
E
102
}
330
E
100
AcDbMaterial
  1
Global
  2

 70
0
 40
1.0
 71
1
 41
1.0
 91
-1023410177
 42
1.0
 72
1
  3

 73
1
 74
1
 75
1
 44
0.5
 73
0
 45
1.0
 46
1.0
 77
1
  4

 78
1
 79
1
170
1
 48
1.0
171
1
  6

172
1
173
1
174
1
140
1.0
141
1.0
175
1
  7

176
1
177
1
178
1
143
1.0
179
1
  8

270
1
271
1
272
1
145
1.0
146
1.0
273
1
  9

274
1
275
1
276
1
 42
1.0
 72
1
  3

 73
1
 74
1
 75
1
 94
63
  0
MLINESTYLE
  5
22
102
{ACAD_REACTORS
330
10
102
}
330
10
100
AcDbMlineStyle
  2
Standard
 70
0
  3

 62
256
 51
90.0
 52
90.0
 71
2
 49
0.5
 62
256
  6
BYLAYER
 49
-0.5
 62
256
  6
BYLAYER
  0
MLEADERSTYLE
  5
2C
102
{ACAD_REACTORS
330
F
102
}
330
F
100
AcDbMLeaderStyle
179
2
170
2
171
1
172
0
 90
2
 40
0.0
 41
0.0
173
1
 91
-1056964608
 92
-2
290
1
 42
2.0
291
1
 43
8.0
  3
Standard
 44
4.0
300

342
29
174
1
175
1
176
0
178
1
 93
-1056964608
 45
4.0
292
0
297
0
 46
4.0
 94
-1056964608
 47
1.0
 49
1.0
140
1.0
294
1
141
0.0
177
0
142
1.0
295
0
296
0
143
3.75
271
0
272
9
273
9
  0
DICTIONARY
  5
2D
330
A
100
AcDbDictionary
280
1
281
1
  3
CREATED_BY_EZDXF
350
2E
  3
WRITTEN_BY_EZDXF
350
96
  0
DICTIONARYVAR
  5
2E
330
2D
100
DictionaryVariables
280
0
  1
1.4.4 @ 2026-10-03T15:55:14.050764+00:00
  0
DICTIONARYVAR
  5
96
330
2D
100
DictionaryVariables
280
0
  1
1.4.4 @ 2026-10-03T15:55:14.071614+00:00
  0
ENDSEC
  0
EOF
