  0
SECTION
  2
HEADER
  9
$ACADVER
  1
AC1027
  9
$ACADMAINTVER
 70
105
  9
$DWGCODEPAGE
  3
ANSI_1252
  9
$LASTSAVEDBY
  1
ezdxf
  9
$REQUIREDVERSIONS
160
0
  9
$INSBASE
 10
0.0
 20
0.0
 30
0.0
  9
$EXTMIN
 10
1e+20
 20
1e+20
 30
1e+20
  9
$EXTMAX
 10
-1e+20
 20
-1e+20
 30
-1e+20
  9
$LIMMIN
 10
0.0
 20
0.0
  9
$LIMMAX
 10
420.0
 20
297.0
  9
$ORTHOMODE
 70
0
  9
$REGENMODE
 70
1
  9
$FILLMODE
 70
1
  9
$QTEXTMODE
 70
0
  9
$MIRRTEXT
 70
1
  9
$LTSCALE
 40
1.0
  9
$ATTMODE
 70
1
  9
$TEXTSIZE
 40
2.5
  9
$TRACEWID
 40
1.0
  9
$TEXTSTYLE
  7
Standard
  9
$CLAYER
  8
0
  9
$CELTYPE
  6
ByLayer
  9
$CECOLOR
 62
256
  9
$CELTSCALE
 40
1.0
  9
$DISPSILH
 70
0
  9
$DIMSCALE
 40
1.0
  9
$DIMASZ
 40
2.5
  9
$DIMEXO
 40
0.625
  9
$DIMDLI
 40
3.75
  9
$DIMRND
 40
0.0
  9
$DIMDLE
 40
0.0
  9
$DIMEXE
 40
1.25
  9
$DIMTP
 40
0.0
  9
$DIMTM
 40
0.0
  9
$DIMTXT
 40
2.5
  9
$DIMCEN
 40
2.5
  9
$DIMTSZ
 40
0.0
  9
$DIMTOL
 70
0
  9
$DIMLIM
 70
0
  9
$DIMTIH
 70
0
  9
$DIMTOH
 70
0
  9
$DIMSE1
 70
0
  9
$DIMSE2
 70
0
  9
$DIMTAD
 70
1
  9
$DIMZIN
 70
8
  9
$DIMBLK
  1

  9
$DIMASO
 70
1
  9
$DIMSHO
 70
1
  9
$DIMPOST
  1

  9
$DIMAPOST
  1

  9
$DIMALT
 70
0
  9
$DIMALTD
 70
3
  9
$DIMALTF
 40
0.03937007874
  9
$DIMLFAC
 40
1.0
  9
$DIMTOFL
 70
1
  9
$DIMTVP
 40
0.0
  9
$DIMTIX
 70
0
  9
$DIMSOXD
 70
0
  9
$DIMSAH
 70
0
  9
$DIMBLK1
  1

  9
$DIMBLK2
  1

  9
$DIMSTYLE
  2
ISO-25
  9
$DIMCLRD
 70
0
  9
$DIMCLRE
 70
0
  9
$DIMCLRT
 70
0
  9
$DIMTFAC
 40
1.0
  9
$DIMGAP
 40
0.625
  9
$DIMJUST
 70
0
  9
$DIMSD1
 70
0
  9
$DIMSD2
 70
0
  9
$DIMTOLJ
 70
0
  9
$DIMTZIN
 70
8
  9
$DIMALTZ
 70
0
  9
$DIMALTTZ
 70
0
  9
$DIMUPT
 70
0
  9
$DIMDEC
 70
2
  9
$DIMTDEC
 70
2
  9
$DIMALTU
 70
2
  9
$DIMALTTD
 70
3
  9
$DIMTXSTY
  7
Standard
  9
$DIMAUNIT
 70
0
  9
$DIMADEC
 70
0
  9
$DIMALTRND
 40
0.0
  9
$DIMAZIN
 70
0
  9
$DIMDSEP
 70
44
  9
$DIMATFIT
 70
3
  9
$DIMFRAC
 70
0
  9
$DIMLDRBLK
  1

  9
$DIMLUNIT
 70
2
  9
$DIMLWD
 70
-2
  9
$DIMLWE
 70
-2
  9
$DIMTMOVE
 70
0
  9
$DIMFXL
 40
1.0
  9
$DIMFXLON
 70
0
  9
$DIMJOGANG
 40
0.785398163397
  9
$DIMTFILL
 70
0
  9
$DIMTFILLCLR
 70
0
  9
$DIMARCSYM
 70
0
  9
$DIMLTYPE
  6

  9
$DIMLTEX1
  6

  9
$DIMLTEX2
  6

  9
$DIMTXTDIRECTION
 70
0
  9
$LUNITS
 70
2
  9
$LUPREC
 70
4
  9
$SKETCHINC
 40
1.0
  9
$FILLETRAD
 40
10.0
  9
$AUNITS
 70
0
  9
$AUPREC
 70
2
  9
$MENU
  1
.
  9
$ELEVATION
 40
0.0
  9
$PELEVATION
 40
0.0
  9
$THICKNESS
 40
0.0
  9
$LIMCHECK
 70
0
  9
$CHAMFERA
 40
0.0
  9
$CHAMFERB
 40
0.0
  9
$CHAMFERC
 40
0.0
  9
$CHAMFERD
 40
0.0
  9
$SKPOLY
 70
0
  9
$TDCREATE
 40
2461316.839722222
  9
$TDUCREATE
 40
2458532.153996898
  9
$TDUPDATE
 40
2461316.839722222
  9
$TDUUPDATE
 40
2458532.1544311
  9
$TDINDWG
 40
0.0
  9
$TDUSRTIMER
 40
0.0
  9
$USRTIMER
 70
1
  9
$ANGBASE
 50
0.0
  9
$ANGDIR
 70
0
  9
$PDMODE
 70
0
  9
$PDSIZE
 40
0.0
  9
$PLINEWID
 40
0.0
  9
$SPLFRAME
 70
0
  9
$SPLINETYPE
 70
6
  9
$SPLINESEGS
 70
8
  9
$HANDSEED
  5
A8
  9
$SURFTAB1
 70
6
  9
$SURFTAB2
 70
6
  9
$SURFTYPE
 70
6
  9
$SURFU
 70
6
  9
$SURFV
 70
6
  9
$UCSBASE
  2

  9
$UCSNAME
  2

  9
$UCSORG
 10
0.0
 20
0.0
 30
0.0
  9
$UCSXDIR
 10
1.0
 20
0.0
 30
0.0
  9
$UCSYDIR
 10
0.0
 20
1.0
 30
0.0
  9
$UCSORTHOREF
  2

  9
$UCSORTHOVIEW
 70
0
  9
$UCSORGTOP
 10
0.0
 20
0.0
 30
0.0
  9
$UCSORGBOTTOM
 10
0.0
 20
0.0
 30
0.0
  9
$UCSORGLEFT
 10
0.0
 20
0.0
 30
0.0
  9
$UCSORGRIGHT
 10
0.0
 20
0.0
 30
0.0
  9
$UCSORGFRONT
 10
0.0
 20
0.0
 30
0.0
  9
$UCSORGBACK
 10
0.0
 20
0.0
 30
0.0
  9
$PUCSBASE
  2

  9
$PUCSNAME
  2

  9
$PUCSORG
 10
0.0
 20
0.0
 30
0.0
  9
$PUCSXDIR
 10
1.0
 20
0.0
 30
0.0
  9
$PUCSYDIR
 10
0.0
 20
1.0
 30
0.0
  9
$PUCSORTHOREF
  2

  9
$PUCSORTHOVIEW
 70
0
  9
$PUCSORGTOP
 10
0.0
 20
0.0
 30
0.0
  9
$PUCSORGBOTTOM
 10
0.0
 20
0.0
 30
0.0
  9
$PUCSORGLEFT
 10
0.0
 20
0.0
 30
0.0
  9
$PUCSORGRIGHT
 10
0.0
 20
0.0
 30
0.0
  9
$PUCSORGFRONT
 10
0.0
 20
0.0
 30
0.0
  9
$PUCSORGBACK
 10
0.0
 20
0.0
 30
0.0
  9
$USERI1
 70
0
  9
$USERI2
 70
0
  9
$USERI3
 70
0
  9
$USERI4
 70
0
  9
$USERI5
 70
0
  9
$USERR1
 40
0.0
  9
$USERR2
 40
0.0
  9
$USERR3
 40
0.0
  9
$USERR4
 40
0.0
  9
$USERR5
 40
0.0
  9
$WORLDVIEW
 70
1
  9
$SHADEDGE
 70
3
  9
$SHADEDIF
 70
70
  9
$TILEMODE
 70
1
  9
$MAXACTVP
 70
64
  9
$PINSBASE
 10
0.0
 20
0.0
 30
0.0
  9
$PLIMCHECK
 70
0
  9
$PEXTMIN
 10
1e+20
 20
1e+20
 30
1e+20
  9
$PEXTMAX
 10
-1e+20
 20
-1e+20
 30
-1e+20
  9
$PLIMMIN
 10
0.0
 20
0.0
  9
$PLIMMAX
 10
420.0
 20
297.0
  9
$UNITMODE
 70
0
  9
$VISRETAIN
 70
1
  9
$PLINEGEN
 70
0
  9
$PSLTSCALE
 70
1
  9
$TREEDEPTH
 70
3020
  9
$CMLSTYLE
  2
Standard
  9
$CMLJUST
 70
0
  9
$CMLSCALE
 40
20.0
  9
$PROXYGRAPHICS
 70
1
  9
$MEASUREMENT
 70
1
  9
$CELWEIGHT
370
-1
  9
$ENDCAPS
280
0
  9
$JOINSTYLE
280
0
  9
$LWDISPLAY
290
0
  9
$INSUNITS
 70
4
  9
$HYPERLINKBASE
  1

  9
$STYLESHEET
  1

  9
$XEDIT
290
1
  9
$CEPSNTYPE
380
0
  9
$PSTYLEMODE
290
1
  9
$FINGERPRINTGUID
  2
{E0074CCC-4414-4A2D-9AF4-8F415EDAE91B}
  9
$VERSIONGUID
  2
{5161EC4A-63FD-4CFA-A0F7-0338DA9D9645}
  9
$EXTNAMES
290
1
  9
$PSVPSCALE
 40
0.0
  9
$OLESTARTUP
290
0
  9
$SORTENTS
280
127
  9
$INDEXCTL
280
0
  9
$HIDETEXT
280
1
  9
$XCLIPFRAME
280
1
  9
$HALOGAP
280
0
  9
$OBSCOLOR
 70
257
  9
$OBSLTYPE
280
0
  9
$INTERSECTIONDISPLAY
280
0
  9
$INTERSECTIONCOLOR
 70
257
  9
$DIMASSOC
280
2
  9
$PROJECTNAME
  1

  9
$CAMERADISPLAY
290
0
  9
$LENSLENGTH
 40
50.0
  9
$CAMERAHEIGHT
 40
0.0
  9
$STEPSPERSEC
 40
24.0
  9
$STEPSIZE
 40
100.0
  9
$3DDWFPREC
 40
2.0
  9
$PSOLWIDTH
 40
0.005
  9
$PSOLHEIGHT
 40
0.08
  9
$LOFTANG1
 40
1.570796326795
  9
$LOFTANG2
 40
1.570796326795
  9
$LOFTMAG1
 40
0.0
  9
$LOFTMAG2
 40
0.0
  9
$LOFTPARAM
 70
7
  9
$LOFTNORMALS
280
1
  9
$LATITUDE
 40
37.795
  9
$LONGITUDE
 40
-122.394
  9
$NORTHDIRECTION
 40
0.0
  9
$TIMEZONE
 70
-8000
  9
$LIGHTGLYPHDISPLAY
280
1
  9
$TILEMODELIGHTSYNCH
280
1
  9
$CMATERIAL
347
20
  9
$SOLIDHIST
280
0
  9
$SHOWHIST
280
1
  9
$DWFFRAME
280
2
  9
$DGNFRAME
280
2
  9
$REALWORLDSCALE
290
1
  9
$INTERFERECOLOR
 62
256
  9
$CSHADOW
280
0
  9
$SHADOWPLANELOCATION
 40
0.0
  0
ENDSEC
  0
SECTION
  2
CLASSES
  0
CLASS
  1
ACDBDICTIONARYWDFLT
  2
AcDbDictionaryWithDefault
  3
ObjectDBX Classes
 90
0
 91
0
280
0
281
0
  0
CLASS
  1
SUN
  2
AcDbSun
  3
SCENEOE
 90
1153
 91
0
280
0
281
0
  0
CLASS
  1
VISUALSTYLE
  2
AcDbVisualStyle
  3
ObjectDBX Classes
 90
4095
 91
0
280
0
281
0
  0
CLASS
  1
MATERIAL
  2
AcDbMaterial
  3
ObjectDBX Classes
 90
1153
 91
0
280
0
281
0
  0
CLASS
  1
SCALE
  2
AcDbScale
  3
ObjectDBX Classes
 90
1153
 91
0
280
0
281
0
  0
CLASS
  1
TABLESTYLE
  2
AcDbTableStyle
  3
ObjectDBX Classes
 90
4095
 91
0
280
0
281
0
  0
CLASS
  1
MLEADERSTYLE
  2
AcDbMLeaderStyle
  3
ACDB_MLEADERSTYLE_CLASS
 90
4095
 91
0
280
0
281
0
  0
CLASS
  1
DICTIONARYVAR
  2
AcDbDictionaryVar
  3
ObjectDBX Classes
 90
0
 91
0
280
0
281
0
  0
CLASS
  1
CELLSTYLEMAP
  2
AcDbCellStyleMap
  3
ObjectDBX Classes
 90
1152
 91
0
280
0
281
0
  0
CLASS
  1
MENTALRAYRENDERSETTINGS
  2
AcDbMentalRayRenderSettings
  3
SCENEOE
 90
1024
 91
0
280
0
281
0
  0
CLASS
  1
ACDBDETAILVIEWSTYLE
  2
AcDbDetailViewStyle
  3
ObjectDBX Classes
 90
1025
 91
0
280
0
281
0
  0
CLASS
  1
ACDBSECTIONVIEWSTYLE
  2
AcDbSectionViewStyle
  3
ObjectDBX Classes
 90
1025
 91
0
280
0
281
0
  0
CLASS
  1
RASTERVARIABLES
  2
AcDbRasterVariables
  3
ISM
 90
0
 91
0
280
0
281
0
  0
CLASS
  1
LAYOUT
  2
AcDbLayout
  3
ObjectDBX Classes
 90
0
 91
0
280
0
281
0
  0
CLASS
  1
ACDBPLACEHOLDER
  2
AcDbPlaceHolder
  3
ObjectDBX Classes
 90
0
 91
0
280
0
281
0
  0
ENDSEC
  0
SECTION
  2
TABLES
  0
TABLE
  2
VPORT
  5
8
330
0
100
AcDbSymbolTable
 70
1
  0
VPORT
  5
A4
330
8
100
AcDbSymbolTableRecord
100
AcDbViewportTableRecord
  2
*Active
 70
0
 10
0.0
 20
0.0
 11
1.0
 21
1.0
 12
2.1604086287908686
 22
-3.5583196190797537
 13
0.0
 23
0.0
 14
0.5
 24
0.5
 15
0.5
 25
0.5
 16
0.0
 26
0.0
 36
1.0
 17
0.0
 27
0.0
 37
0.0
 40
70.9802014980582
 41
1.34
 42
50.0
 43
0.0
 44
0.0
 50
0.0
 51
0.0
 71
0
 72
1000
 73
1
 74
3
 75
0
 76
0
 77
0
 78
0
281
0
 65
1
110
0.0
120
0.0
130
0.0
111
1.0
121
0.0
131
0.0
112
0.0
122
1.0
132
0.0
 79
0
146
0.0
  0
ENDTAB
  0
TABLE
  2
LTYPE
  5
2
330
0
100
AcDbSymbolTable
 70
3
  0
LTYPE
  5
24
330
2
100
AcDbSymbolTableRecord
100
AcDbLinetypeTableRecord
  2
ByBlock
 70
0
  3

 72
65
 73
0
 40
0.0
  0
LTYPE
  5
25
330
2
100
AcDbSymbolTableRecord
100
AcDbLinetypeTableRecord
  2
ByLayer
 70
0
  3

 72
65
 73
0
 40
0.0
  0
LTYPE
  5
26
330
2
100
AcDbSymbolTableRecord
100
AcDbLinetypeTableRecord
  2
Continuous
 70
0
  3

 72
65
 73
0
 40
0.0
  0
ENDTAB
  0
TABLE
  2
LAYER
  5
1
330
0
100
AcDbSymbolTable
 70
3
  0
LAYER
  5
27
330
1
100
AcDbSymbolTableRecord
100
AcDbLayerTableRecord
  2
0
 70
0
 62
7
  6
Continuous
370
-3
390
13
347
21
  0
LAYER
  5
28
330
1
100
AcDbSymbolTableRecord
100
AcDbLayerTableRecord
  2
Defpoints
 70
0
 62
7
  6
Continuous
290
0
370
-3
390
13
347
21
  0
LAYER
  5
2F
330
1
100
AcDbSymbolTableRecord
100
AcDbLayerTableRecord
  2
visible
 70
0
 62
7
  6
Continuous
370
-3
390
13
347
21
  0
ENDTAB
  0
TABLE
  2
STYLE
  5
5
330
0
100
AcDbSymbolTable
 70
1
  0
STYLE
  5
29
330
5
100
AcDbSymbolTableRecord
100
AcDbTextStyleTableRecord
  2
Standard
 70
0
 40
0.0
 41
1.0
 50
0.0
 71
0
 42
2.5
  3
txt
  4

  0
ENDTAB
  0
TABLE
  2
VIEW
  5
7
330
0
100
AcDbSymbolTable
 70
0
  0
ENDTAB
  0
TABLE
  2
UCS
  5
6
330
0
100
AcDbSymbolTable
 70
0
  0
ENDTAB
  0
TABLE
  2
APPID
  5
3
330
0
100
AcDbSymbolTable
 70
3
  0
APPID
  5
2A
330
3
100
AcDbSymbolTableRecord
100
AcDbRegAppTableRecord
  2
ACAD
 70
0
  0
APPID
  5
A5
330
3
100
AcDbSymbolTableRecord
100
AcDbRegAppTableRecord
  2
HATCHBACKGROUNDCOLOR
 70
0
  0
APPID
  5
A6
330
3
100
AcDbSymbolTableRecord
100
AcDbRegAppTableRecord
  2
EZDXF
 70
0
  0
ENDTAB
  0
TABLE
  2
DIMSTYLE
  5
4
330
0
100
AcDbSymbolTable
 70
1
100
AcDbDimStyleTable
  0
DIMSTYLE
105
2B
330
4
100
AcDbSymbolTableRecord
100
AcDbDimStyleTableRecord
  2
Standard
 70
0
 40
1.0
 41
2.5
 42
0.625
 43
3.75
 44
1.25
 45
0.0
 46
0.0
 47
0.0
 48
0.0
 49
2.5
140
2.5
141
2.5
142
0.0
143
0.03937007874
144
1.0
145
0.0
146
1.0
147
0.625
148
0.0
 69
0
 70
0
 71
0
 72
0
 73
0
 74
0
 75
0
 76
0
 77
1
 78
8
 79
3
170
0
171
3
172
1
173
0
174
0
175
0
176
0
177
0
178
0
179
2
271
2
272
2
273
2
274
3
275
0
276
0
277
2
278
44
279
0
280
0
281
0
282
0
283
0
284
8
285
0
286
0
288
0
289
3
290
0
371
-2
372
-2
  0
ENDTAB
  0
TABLE
  2
BLOCK_RECORD
  5
9
330
0
100
AcDbSymbolTable
 70
2
  0
BLOCK_RECORD
  5
17
330
9
100
AcDbSymbolTableRecord
100
AcDbBlockTableRecord
  2
*Model_Space
340
1A
 70
0
280
1
281
0
  0
BLOCK_RECORD
  5
1B
330
9
100
AcDbSymbolTableRecord
100
AcDbBlockTableRecord
  2
*Paper_Space
340
1E
 70
0
280
1
281
0
  0
ENDTAB
  0
ENDSEC
  0
SECTION
  2
BLOCKS
  0
BLOCK
  5
18
330
17
100
AcDbEntity
  8
0
100
AcDbBlockBegin
  2
*Model_Space
 70
0
 10
0.0
 20
0.0
 30
0.0
  3
*Model_Space
  1

  0
ENDBLK
  5
19
330
17
100
AcDbEntity
  8
0
100
AcDbBlockEnd
  0
BLOCK
  5
1C
330
1B
100
AcDbEntity
  8
0
100
AcDbBlockBegin
  2
*Paper_Space
 70
0
 10
0.0
 20
0.0
 30
0.0
  3
*Paper_Space
  1

  0
ENDBLK
  5
1D
330
1B
100
AcDbEntity
  8
0
100
AcDbBlockEnd
  0
ENDSEC
  0
SECTION
  2
ENTITIES
  0
LINE
  5
30
330
17
100
AcDbEntity
  8
visible
100
AcDbLine
 10
-4.724714368442594
 20
-30.518606464668203
 30
0.0
 11
-1.8941691238446878
 21
-31.27813287388072
 31
0.0
  0
SPLINE
  5
31
330
17
100
AcDbEntity
  8
visible
100
AcDbSpline
 70
0
 71
2
 72
6
 73
3
 74
0
 40
0.0
 40
0.0
 40
0.0
 40
1.0
 40
1.0
 40
1.0
 10
-1.4887880112619254
 20
-31.464311442210217
 30
0.0
 10
-1.7115295401014197
 20
-31.32846788603456
 30
0.0
 10
-1.8941691238446907
 20
-31.278132873880725
 30
0.0
  0
LINE
  5
32
330
17
100
AcDbEntity
  8
visible
100
AcDbLine
 10
-2.502617850663313
 20
8.799250462810463
 30
0.0
 11
-2.502617850663313
 21
-22.38738704874112
 31
0.0
  0
SPLINE
  5
33
330
17
100
AcDbEntity
  8
visible
100
AcDbSpline
 70
0
 71
3
 72
11
 73
7
 74
0
 40
0.0
 40
0.0
 40
0.0
 40
0.0
 40
0.7367417200852806
 40
0.7367417200852806
 40
0.7367417200852806
 40
1.0
 40
1.0
 40
1.0
 40
1.0
 10
-1.4887880112619243
 20
-31.464311442210246
 30
0.0
 10
-1.2323364050139827
 20
-31.62252359389961
 30
0.0
 10
-0.8599528444382225
 20
-31.78127721870605
 30
0.0
 10
-0.5264657584818362
 20
-31.902245725650687
 30
0.0
 10
-0.40710750132655305
 20
-31.947897012585045
 30
0.0
 10
-0.2874701335751053
 20
-31.98635225036972
 30
0.0
 10
-0.1847407660702416
 20
-32.042104992471835
 30
0.0
  0
SPLINE
  5
34
330
17
100
AcDbEntity
  8
visible
100
AcDbSpline
 70
0
 71
2
 72
6
 73
3
 74
0
 40
0.0
 40
0.0
 40
0.0
 40
1.0
 40
1.0
 40
1.0
 10
-0.18474076607023304
 20
-32.042104992471735
 30
0.0
 10
0.11626080084826143
 20
-32.212283510631295
 30
0.0
 10
0.3957833541485485
 20
-32.339224051395234
 30
0.0
  0
ELLIPSE
  5
35
330
17
100
AcDbEntity
  8
visible
100
AcDbEllipse
 10
9.367025371508486
 20
-18.884459997858656
 30
0.0
 11
4.457623595495259
 21
16.61233252378738
 31
0.0
 40
0.66220797953724
 41
-4.327400740130106
 42
-3.6135007250034823
  0
SPLINE
  5
36
330
17
100
AcDbEntity
  8
visible
100
AcDbSpline
 70
0
 71
2
 72
6
 73
3
 74
0
 40
0.0
 40
0.0
 40
0.0
 40
0.34594751547499664
 40
0.34594751547499664
 40
0.34594751547499664
 10
-4.724713934211628
 20
-30.51860658118636
 30
0.0
 10
-4.892238871531332
 20
-30.47269357755554
 30
0.0
 10
-4.931132021045764
 20
-30.40532535633804
 30
0.0
  0
LINE
  5
37
330
17
100
AcDbEntity
  8
visible
100
AcDbLine
 10
23.997050738371403
 20
16.619738762455057
 30
0.0
 11
23.997050738371403
 21
-14.566898749096527
 31
0.0
  0
ELLIPSE
  5
38
330
17
100
AcDbEntity
  8
visible
100
AcDbEllipse
 10
12.1274075161996
 20
13.11681171157258
 30
0.0
 11
4.457623595495259
 21
16.612332523787376
 31
0.0
 40
0.66220797953724
 41
-7.468993393719899
 42
-5.898197066925002
  0
ELLIPSE
  5
39
330
17
100
AcDbEntity
  8
visible
100
AcDbEllipse
 10
12.1274075161996
 20
-18.069825799979014
 30
0.0
 11
4.457623595495259
 21
16.612332523787376
 31
0.0
 40
0.66220797953724
 41
-1.8997081016669357
 42
-1.1858080865403124
  0
LINE
  5
3A
330
17
100
AcDbEntity
  8
visible
100
AcDbLine
 10
9.367025371508486
 20
28.807105673652543
 30
0.0
 11
12.127407516199604
 21
29.62173987153219
 31
0.0
  0
LINE
  5
3B
330
17
100
AcDbEntity
  8
visible
100
AcDbLine
 10
21.09864948644573
 20
-31.927192816829773
 30
0.0
 11
21.09864948644573
 21
-26.2294676290134
 31
0.0
  0
ELLIPSE
  5
3C
330
17
100
AcDbEntity
  8
visible
100
AcDbEllipse
 10
9.367025371508486
 20
12.30217751369294
 30
0.0
 11
4.457623595495259
 21
16.612332523787376
 31
0.0
 40
0.66220797953724
 41
-5.898197066925002
 42
-4.327400740130106
  0
LINE
  5
3D
330
17
100
AcDbEntity
  8
visible
100
AcDbLine
 10
21.09864948644573
 20
-31.927192816829773
 30
0.0
 11
0.39578340126235645
 21
-38.03694930092712
 31
0.0
  0
LINE
  5
3E
330
17
100
AcDbEntity
  8
visible
100
AcDbLine
 10
0.39578340126235645
 20
-38.03694930092711
 30
0.0
 11
0.39578340126235645
 21
-32.33922411311074
 31
0.0
  0
ELLIPSE
  5
3F
330
17
100
AcDbEntity
  8
visible
100
AcDbEllipse
 10
17.648171805581836
 20
-19.31932394374755
 30
0.0
 11
-0.2332477462759145
 21
-0.8692499576400373
 31
0.0
 40
0.6622079795372401
 41
0.3849882402545839
 42
3.141592653589793
  0
ELLIPSE
  5
40
330
17
100
AcDbEntity
  8
visible
100
AcDbEllipse
 10
17.648171805581836
 20
-19.31932394374755
 30
0.0
 11
-0.2332477462759145
 21
-0.8692499576400373
 31
0.0
 40
0.6622079795372401
 41
3.141592653589793
 42
6.283185307179586
  0
ELLIPSE
  5
41
330
17
100
AcDbEntity
  8
visible
100
AcDbEllipse
 10
17.648171805581836
 20
-19.31932394374755
 30
0.0
 11
-0.2332477462759145
 21
-0.8692499576400373
 31
0.0
 40
0.6622079795372401
 41
0.0
 42
0.3849882402545841
  0
ELLIPSE
  5
42
330
17
100
AcDbEntity
  8
visible
100
AcDbEllipse
 10
10.747216443854043
 20
-3.603515778024999
 30
0.0
 11
-0.2332477462759145
 21
-0.8692499576400373
 31
0.0
 40
0.6622079795372401
 41
0.3849882402545839
 42
3.141592653589793
  0
ELLIPSE
  5
43
330
17
100
AcDbEntity
  8
visible
100
AcDbEllipse
 10
10.747216443854043
 20
-3.603515778024999
 30
0.0
 11
-0.2332477462759145
 21
-0.8692499576400373
 31
0.0
 40
0.6622079795372401
 41
3.141592653589793
 42
6.283185307179586
  0
ELLIPSE
  5
44
330
17
100
AcDbEntity
  8
visible
100
AcDbEllipse
 10
10.747216443854043
 20
-3.603515778024999
 30
0.0
 11
-0.2332477462759145
 21
-0.8692499576400373
 31
0.0
 40
0.6622079795372401
 41
0.0
 42
0.3849882402545841
  0
ELLIPSE
  5
45
330
17
100
AcDbEntity
  8
visible
100
AcDbEllipse
 10
17.648171805581836
 20
18.584435493368986
 30
0.0
 11
-0.2332477462759145
 21
-0.8692499576400373
 31
0.0
 40
0.6622079795372401
 41
0.3849882402545839
 42
3.141592653589793
  0
ELLIPSE
  5
46
330
17
100
AcDbEntity
  8
visible
100
AcDbEllipse
 10
17.648171805581836
 20
18.584435493368986
 30
0.0
 11
-0.2332477462759145
 21
-0.8692499576400373
 31
0.0
 40
0.6622079795372401
 41
3.141592653589793
 42
6.283185307179586
  0
ELLIPSE
  5
47
330
17
100
AcDbEntity
  8
visible
100
AcDbEllipse
 10
17.648171805581836
 20
18.584435493368986
 30
0.0
 11
-0.2332477462759145
 21
-0.8692499576400373
 31
0.0
 40
0.6622079795372401
 41
0.0
 42
0.3849882402545841
  0
ELLIPSE
  5
48
330
17
100
AcDbEntity
  8
visible
100
AcDbEllipse
 10
10.747216443854043
 20
5.032783840558508
 30
0.0
 11
-1.1662387313795723
 21
-4.346249788200187
 31
0.0
 40
0.66220797953724
 41
0.3849882402545839
 42
3.141592653589793
  0
ELLIPSE
  5
49
330
17
100
AcDbEntity
  8
visible
100
AcDbEllipse
 10
10.747216443854043
 20
5.032783840558508
 30
0.0
 11
-1.1662387313795723
 21
-4.346249788200187
 31
0.0
 40
0.66220797953724
 41
3.141592653589793
 42
6.283185307179586
  0
ELLIPSE
  5
4A
330
17
100
AcDbEntity
  8
visible
100
AcDbEllipse
 10
10.747216443854043
 20
5.032783840558508
 30
0.0
 11
-1.1662387313795723
 21
-4.346249788200187
 31
0.0
 40
0.66220797953724
 41
0.0
 42
0.3849882402545841
  0
ELLIPSE
  5
4B
330
17
100
AcDbEntity
  8
visible
100
AcDbEllipse
 10
10.747216443854043
 20
13.66908345914203
 30
0.0
 11
-0.2332477462759145
 21
-0.8692499576400373
 31
0.0
 40
0.6622079795372401
 41
0.3849882402545839
 42
3.141592653589793
  0
ELLIPSE
  5
4C
330
17
100
AcDbEntity
  8
visible
100
AcDbEllipse
 10
10.747216443854043
 20
13.66908345914203
 30
0.0
 11
-0.2332477462759145
 21
-0.8692499576400373
 31
0.0
 40
0.6622079795372401
 41
3.141592653589793
 42
6.283185307179586
  0
ELLIPSE
  5
4D
330
17
100
AcDbEntity
  8
visible
100
AcDbEllipse
 10
10.747216443854043
 20
13.66908345914203
 30
0.0
 11
-0.2332477462759145
 21
-0.8692499576400373
 31
0.0
 40
0.6622079795372401
 41
0.0
 42
0.3849882402545841
  0
ELLIPSE
  5
4E
330
17
100
AcDbEntity
  8
visible
100
AcDbEllipse
 10
3.846261082126251
 20
-23.392494933145784
 30
0.0
 11
-0.2332477462759145
 21
-0.8692499576400373
 31
0.0
 40
0.6622079795372401
 41
0.3849882402545839
 42
3.141592653589793
  0
ELLIPSE
  5
4F
330
17
100
AcDbEntity
  8
visible
100
AcDbEllipse
 10
3.846261082126251
 20
-23.392494933145784
 30
0.0
 11
-0.2332477462759145
 21
-0.8692499576400373
 31
0.0
 40
0.6622079795372401
 41
3.141592653589793
 42
6.283185307179586
  0
ELLIPSE
  5
50
330
17
100
AcDbEntity
  8
visible
100
AcDbEllipse
 10
3.846261082126251
 20
-23.392494933145784
 30
0.0
 11
-0.2332477462759145
 21
-0.8692499576400373
 31
0.0
 40
0.6622079795372401
 41
0.0
 42
0.3849882402545841
  0
ELLIPSE
  5
51
330
17
100
AcDbEntity
  8
visible
100
AcDbEllipse
 10
3.846261082126251
 20
14.51126450397075
 30
0.0
 11
-0.2332477462759145
 21
-0.8692499576400373
 31
0.0
 40
0.6622079795372401
 41
0.3849882402545839
 42
3.141592653589793
  0
ELLIPSE
  5
52
330
17
100
AcDbEntity
  8
visible
100
AcDbEllipse
 10
3.846261082126251
 20
14.51126450397075
 30
0.0
 11
-0.2332477462759145
 21
-0.8692499576400373
 31
0.0
 40
0.6622079795372401
 41
3.141592653589793
 42
6.283185307179586
  0
ELLIPSE
  5
53
330
17
100
AcDbEntity
  8
visible
100
AcDbEllipse
 10
3.846261082126251
 20
14.51126450397075
 30
0.0
 11
-0.2332477462759145
 21
-0.8692499576400373
 31
0.0
 40
0.6622079795372401
 41
0.0
 42
0.3849882402545841
  0
ELLIPSE
  5
54
330
17
100
AcDbEntity
  8
visible
100
AcDbEllipse
 10
6.404906754949007
 20
6.197965316458678
 30
0.0
 11
-2.11218792460967
 21
-7.871541283073672
 31
0.0
 40
0.66220797953724
 41
1.0117702390975696
 42
2.1298224144922178
  0
SPLINE
  5
55
330
17
100
AcDbEntity
  8
visible
100
AcDbSpline
 70
0
 71
3
 72
8
 73
4
 74
0
 40
0.0
 40
0.0
 40
0.0
 40
0.0
 40
0.3392335156167628
 40
0.3392335156167628
 40
0.3392335156167628
 40
0.3392335156167628
 10
21.591151697574123
 20
-25.615680765539537
 30
0.0
 10
21.685813738183896
 20
-25.47785786140742
 30
0.0
 10
21.76762370109968
 20
-25.359770443914478
 30
0.0
 10
21.823207538313696
 20
-25.23632977852146
 30
0.0
  0
SPLINE
  5
56
330
17
100
AcDbEntity
  8
visible
100
AcDbSpline
 70
0
 71
2
 72
6
 73
3
 74
0
 40
0.0
 40
0.0
 40
0.0
 40
1.0
 40
1.0
 40
1.0
 10
21.59115169757408
 20
-25.61568076553947
 30
0.0
 10
21.37662124810623
 20
-25.938001096019384
 30
0.0
 10
21.09864948644573
 20
-26.229467629014295
 30
0.0
  0
ELLIPSE
  5
57
330
17
100
AcDbEntity
  8
visible
100
AcDbEllipse
 10
20.519674861258395
 20
-31.771835286709745
 30
0.0
 11
0.22643831836857645
 21
-0.7672846199256254
 31
0.0
 40
0.6944719909270756
 41
-6.283185307179585
 42
-5.114217989189061
  0
ELLIPSE
  5
58
330
17
100
AcDbEntity
  8
visible
100
AcDbEllipse
 10
-0.18319122392497889
 20
-37.88159177080709
 30
0.0
 11
0.22643831836857645
 21
-0.7672846199256254
 31
0.0
 40
0.6944719909270756
 41
-6.283185307179585
 42
-5.114217989189061
  0
LINE
  5
59
330
17
100
AcDbEntity
  8
visible
100
AcDbLine
 10
17.21582245399764
 20
-20.066940656511658
 30
0.0
 11
17.648171805581836
 21
-20.182953905605913
 31
0.0
  0
ELLIPSE
  5
5A
330
17
100
AcDbEntity
  8
visible
100
AcDbEllipse
 10
10.023498162369869
 20
5.226980753208537
 30
0.0
 11
-1.1662387313795723
 21
-4.346249788200187
 31
0.0
 40
0.66220797953724
 41
0.3849882402545839
 42
3.015531486219505
  0
ELLIPSE
  5
5B
330
17
100
AcDbEntity
  8
visible
100
AcDbEllipse
 10
10.023498162369869
 20
5.226980753208537
 30
0.0
 11
-1.1662387313795723
 21
-4.346249788200187
 31
0.0
 40
0.66220797953724
 41
0.12606116737029094
 42
0.3849882402545841
  0
LINE
  5
5C
330
17
100
AcDbEntity
  8
visible
100
AcDbLine
 10
10.197111613215226
 20
13.10581514582933
 30
0.0
 11
10.217723562758058
 21
13.10028429623312
 31
0.0
  0
ELLIPSE
  5
5D
330
17
100
AcDbEntity
  8
visible
100
AcDbEllipse
 10
10.023498162369869
 20
13.863280371792058
 30
0.0
 11
-0.2332477462759145
 21
-0.8692499576400373
 31
0.0
 40
0.6622079795372401
 41
0.6798003304646828
 42
0.703042521256539
  0
LINE
  5
5E
330
17
100
AcDbEntity
  8
visible
100
AcDbLine
 10
3.413911730542096
 20
-24.140111645909904
 30
0.0
 11
3.8462610821262544
 21
-24.25612489500415
 31
0.0
  0
LINE
  5
5F
330
17
100
AcDbEntity
  8
visible
100
AcDbLine
 10
-3.6336689047888777
 20
-22.394956358197042
 30
0.0
 11
-6.8180293433192425
 21
-21.540489942536926
 31
0.0
  0
LINE
  5
60
330
17
100
AcDbEntity
  8
visible
100
AcDbLine
 10
-3.633668904788877
 20
-22.39495635819705
 30
0.0
 11
-3.633668904788877
 21
8.791681153354535
 31
0.0
  0
LINE
  5
61
330
17
100
AcDbEntity
  8
visible
100
AcDbLine
 10
-6.818029343319239
 20
-21.540489942536936
 30
0.0
 11
-6.818029343319239
 21
9.646147569014648
 31
0.0
  0
LINE
  5
62
330
17
100
AcDbEntity
  8
visible
100
AcDbLine
 10
-3.6336689047888777
 20
8.791681153354553
 30
0.0
 11
-6.8180293433192425
 21
9.64614756901467
 31
0.0
  0
ELLIPSE
  5
63
330
17
100
AcDbEntity
  8
visible
100
AcDbEllipse
 10
8.78805074632115
 20
-18.72910246773864
 30
0.0
 11
4.664954925518295
 21
17.38499915280075
 31
0.0
 40
0.66220797953724
 41
-4.327400740130106
 42
-3.7309387996687717
  0
ELLIPSE
  5
64
330
17
100
AcDbEntity
  8
visible
100
AcDbEllipse
 10
5.603690307790785
 20
-17.87463605207853
 30
0.0
 11
4.664954925518295
 21
17.38499915280075
 31
0.0
 40
0.66220797953724
 41
-4.327400740130106
 42
-3.738369769913832
  0
ELLIPSE
  5
65
330
17
100
AcDbEntity
  8
visible
100
AcDbEllipse
 10
-3.0815924758506554
 20
-22.23202951862112
 30
0.0
 11
0.8
 21
1.3883734001250758e-16
 31
0.0
 40
0.2814058379902422
 41
3.9507679285381383
 42
5.521564255333034
  0
ELLIPSE
  5
66
330
17
100
AcDbEntity
  8
visible
100
AcDbEllipse
 10
-3.0815924758506554
 20
8.954607992930477
 30
0.0
 11
0.8
 21
0.0
 31
0.0
 40
0.28140583799024205
 41
3.9507679285381383
 42
5.521564255333034
  0
ELLIPSE
  5
67
330
17
100
AcDbEntity
  8
visible
100
AcDbEllipse
 10
-6.2659529143810175
 20
-21.377563102961005
 30
0.0
 11
-0.8
 21
-1.3883734001250758e-16
 31
0.0
 40
0.2814058379902422
 41
-6.283185307179586
 42
-5.474010032231241
  0
ELLIPSE
  5
68
330
17
100
AcDbEntity
  8
visible
100
AcDbEllipse
 10
-6.2659529143810175
 20
9.80907440859059
 30
0.0
 11
-0.8
 21
-0.0
 31
0.0
 40
0.28140583799024205
 41
-6.283185307179586
 42
-5.474010032231241
  0
ELLIPSE
  5
69
330
17
100
AcDbEntity
  8
visible
100
AcDbEllipse
 10
8.78805074632115
 20
12.457535043812953
 30
0.0
 11
4.664954925518295
 21
17.384999152800745
 31
0.0
 40
0.66220797953724
 41
-5.898197066925002
 42
-4.327400740130106
  0
ELLIPSE
  5
6A
330
17
100
AcDbEntity
  8
visible
100
AcDbEllipse
 10
5.603690307790785
 20
13.312001459473066
 30
0.0
 11
4.664954925518295
 21
17.384999152800745
 31
0.0
 40
0.66220797953724
 41
-5.898197066925002
 42
-4.327400740130106
  0
LINE
  5
6B
330
17
100
AcDbEntity
  8
visible
100
AcDbLine
 10
8.78805074632115
 20
29.730134280979975
 30
0.0
 11
5.603690307790785
 21
30.58460069664009
 31
0.0
  0
LINE
  5
6C
330
17
100
AcDbEntity
  8
visible
100
AcDbLine
 10
-6.1248163241096165
 20
-27.6695751369463
 30
0.0
 11
-9.15729791432873
 21
-28.56451035907996
 31
0.0
  0
ELLIPSE
  5
6D
330
17
100
AcDbEntity
  8
visible
100
AcDbEllipse
 10
-6.1176811320952
 20
-29.38013739221006
 30
0.0
 11
4.2
 21
0.0
 31
0.0
 40
0.28140583799024205
 41
2.3799716017432417
 42
3.9507679285381383
  0
LINE
  5
6E
330
17
100
AcDbEntity
  8
visible
100
AcDbLine
 10
-9.016082384020876
 20
-30.23550329998369
 30
0.0
 11
-6.121209258084182
 21
-31.012290950583797
 31
0.0
  0
ELLIPSE
  5
6F
330
17
100
AcDbEntity
  8
visible
100
AcDbEllipse
 10
-3.222808006158509
 20
-30.156925042810172
 30
0.0
 11
4.2
 21
-1.2148267251094418e-16
 31
0.0
 40
0.2814058379902421
 41
3.9507679285381387
 42
5.034260573411611
  0
ELLIPSE
  5
70
330
17
100
AcDbEntity
  8
visible
100
AcDbEllipse
 10
-6.121209258084178
 20
-31.77996202779123
 30
0.0
 11
0.20733133002303533
 21
0.7726666290133665
 31
0.0
 40
0.66220797953724
 41
-5.898197066925002
 42
-4.327400740130106
  0
ELLIPSE
  5
71
330
17
100
AcDbEntity
  8
visible
100
AcDbEllipse
 10
-3.222808006158509
 20
-30.924596120017597
 30
0.0
 11
5.0
 21
-1.4462222917969543e-16
 31
0.0
 40
0.2814058379902421
 41
3.9507679285381387
 42
5.365441253433378
  0
ELLIPSE
  5
72
330
17
100
AcDbEntity
  8
visible
100
AcDbEllipse
 10
8.788050746321147
 20
28.962463203772558
 30
0.0
 11
0.22643831836857653
 21
-0.7672846199256254
 31
0.0
 40
0.6944719909270756
 41
-5.114217989189061
 42
-3.5434216623941652
  0
ELLIPSE
  5
73
330
17
100
AcDbEntity
  8
visible
100
AcDbEllipse
 10
5.603690307790782
 20
29.816929619432685
 30
0.0
 11
-0.22643831836857653
 21
0.7672846199256254
 31
0.0
 40
0.6944719909270756
 41
5.881356298375214
 42
6.283185307179586
  0
LINE
  5
74
330
17
100
AcDbEntity
  8
visible
100
AcDbLine
 10
8.78805074632115
 20
29.730134280979982
 30
0.0
 11
11.548432891012268
 21
30.544768478859627
 31
0.0
  0
LINE
  5
75
330
17
100
AcDbEntity
  8
visible
100
AcDbLine
 10
5.603690307790785
 20
30.584600696640095
 30
0.0
 11
8.364072452481903
 21
31.39923489451974
 31
0.0
  0
LINE
  5
76
330
17
100
AcDbEntity
  8
visible
100
AcDbLine
 10
11.548432891012265
 20
30.54476847885963
 30
0.0
 11
8.3640724524819
 21
31.399234894519747
 31
0.0
  0
LINE
  5
77
330
17
100
AcDbEntity
  8
visible
100
AcDbLine
 10
-6.673285687022407
 20
-38.08425748502654
 30
0.0
 11
-6.673285687022407
 21
-31.942888867367152
 31
0.0
  0
ELLIPSE
  5
78
330
17
100
AcDbEntity
  8
visible
100
AcDbEllipse
 10
-3.222808006158509
 20
-37.06596473767698
 30
0.0
 11
5.0
 21
-1.4462222917969543e-16
 31
0.0
 40
0.2814058379902421
 41
3.9507679285381387
 42
5.521564255333035
  0
ELLIPSE
  5
79
330
17
100
AcDbEntity
  8
visible
100
AcDbEllipse
 10
17.480058079024865
 20
-24.81483963592025
 30
0.0
 11
5.0
 21
0.0
 31
0.0
 40
0.28140583799024205
 41
5.677687257232689
 42
6.283185307179586
  0
ELLIPSE
  5
7A
330
17
100
AcDbEntity
  8
visible
100
AcDbEllipse
 10
-9.15729791432873
 20
-29.33218143628737
 30
0.0
 11
0.22643831836857645
 21
-0.7672846199256254
 31
0.0
 40
0.6944719909270756
 41
-3.5434216623941657
 42
-3.141592653589793
  0
ELLIPSE
  5
7B
330
17
100
AcDbEntity
  8
visible
100
AcDbEllipse
 10
-6.1176811320952
 20
-30.147808469417484
 30
0.0
 11
5.0
 21
0.0
 31
0.0
 40
0.28140583799024205
 41
3.141592653589793
 42
3.9507679285381383
  0
ELLIPSE
  5
7C
330
17
100
AcDbEntity
  8
visible
100
AcDbEllipse
 10
-9.016082384020876
 20
-31.003174377191115
 30
0.0
 11
0.20733133002303533
 21
0.7726666290133665
 31
0.0
 40
0.66220797953724
 41
-5.898197066925002
 42
-4.327400740130106
  0
LINE
  5
7D
330
17
100
AcDbEntity
  8
visible
100
AcDbLine
 10
-9.568158812959098
 20
-31.166101216767046
 30
0.0
 11
-6.673285687022403
 21
-31.942888867367152
 31
0.0
  0
ELLIPSE
  5
7E
330
17
100
AcDbEntity
  8
visible
100
AcDbEllipse
 10
23.418076113184068
 20
16.77509629257507
 30
0.0
 11
-0.8
 21
-4.627911333750252e-17
 31
0.0
 40
0.2814058379902421
 41
-3.9032137054363445
 42
-3.141592653589793
  0
ELLIPSE
  5
7F
330
17
100
AcDbEntity
  8
visible
100
AcDbEllipse
 10
23.418076113184068
 20
-14.411541218976524
 30
0.0
 11
-0.8
 21
-0.0
 31
0.0
 40
0.28140583799024205
 41
-3.9032137054363445
 42
-3.141592653589793
  0
ELLIPSE
  5
80
330
17
100
AcDbEntity
  8
visible
100
AcDbEllipse
 10
11.548432891012265
 20
29.7770974016522
 30
0.0
 11
0.22643831836857645
 21
-0.7672846199256254
 31
0.0
 40
0.6944719909270756
 41
-5.114217989189061
 42
-3.5434216623941652
  0
ELLIPSE
  5
81
330
17
100
AcDbEntity
  8
visible
100
AcDbEllipse
 10
11.548432891012265
 20
13.272169241692595
 30
0.0
 11
4.664954925518295
 21
17.384999152800745
 31
0.0
 40
0.66220797953724
 41
-6.283185307179586
 42
-5.898197066925002
  0
ELLIPSE
  5
82
330
17
100
AcDbEntity
  8
visible
100
AcDbEllipse
 10
17.480058079024865
 20
-30.956208253579632
 30
0.0
 11
5.0
 21
0.0
 31
0.0
 40
0.28140583799024205
 41
5.521564255333035
 42
6.283185307179586
  0
ELLIPSE
  5
83
330
17
100
AcDbEntity
  8
visible
100
AcDbEllipse
 10
8.3640724524819
 20
30.631563817312312
 30
0.0
 11
-0.22643831836857645
 21
0.7672846199256254
 31
0.0
 40
0.6944719909270756
 41
5.881356298375214
 42
6.283185307179586
  0
ELLIPSE
  5
84
330
17
100
AcDbEntity
  8
visible
100
AcDbEllipse
 10
8.3640724524819
 20
14.126635657352722
 30
0.0
 11
4.664954925518295
 21
17.384999152800745
 31
0.0
 40
0.66220797953724
 41
-6.283185307179586
 42
-5.898197066925002
  0
ELLIPSE
  5
85
330
17
100
AcDbEntity
  8
visible
100
AcDbEllipse
 10
-3.5567738419044304
 20
24.274405034014748
 30
0.0
 11
-0.8422835282185819
 21
-3.138958180366801
 31
0.0
 40
0.6622079795372399
 41
3.1415926535897936
 42
6.268313505504116
  0
ELLIPSE
  5
86
330
17
100
AcDbEntity
  8
visible
100
AcDbEllipse
 10
-17.358684565360022
 20
20.201234044616527
 30
0.0
 11
-0.8422835282185819
 21
-3.138958180366801
 31
0.0
 40
0.6622079795372399
 41
3.1415926535897936
 42
6.283185307179586
  0
LINE
  5
87
330
17
100
AcDbEntity
  8
visible
100
AcDbLine
 10
-9.568158812959098
 20
-37.307469834426435
 30
0.0
 11
-6.673285687022403
 21
-38.08425748502654
 31
0.0
  0
LINE
  5
88
330
17
100
AcDbEntity
  8
visible
100
AcDbLine
 10
-9.568158812959098
 20
-37.307469834426435
 30
0.0
 11
-9.568158812959098
 21
-31.166101216767046
 31
0.0
  0
ELLIPSE
  5
89
330
17
100
AcDbEntity
  8
visible
100
AcDbEllipse
 10
-6.121209258084178
 20
-37.92133064545061
 30
0.0
 11
-0.20733133002303533
 21
-0.7726666290133665
 31
0.0
 40
0.66220797953724
 41
5.097377220639274
 42
6.283185307179586
  0
ELLIPSE
  5
8A
330
17
100
AcDbEntity
  8
visible
100
AcDbEllipse
 10
-6.1176811320952
 20
-36.28917708707688
 30
0.0
 11
5.0
 21
0.0
 31
0.0
 40
0.28140583799024205
 41
3.141592653589793
 42
3.9507679285381383
  0
ELLIPSE
  5
8B
330
17
100
AcDbEntity
  8
visible
100
AcDbEllipse
 10
-9.016082384020876
 20
-37.144542994850504
 30
0.0
 11
-0.20733133002303533
 21
-0.7726666290133665
 31
0.0
 40
0.66220797953724
 41
5.097377220639274
 42
6.283185307179586
  0
LINE
  5
8C
330
17
100
AcDbEntity
  8
visible
100
AcDbLine
 10
-7.065952914381015
 20
-21.377563102961005
 30
0.0
 11
-7.065952914381015
 21
9.809074408590579
 31
0.0
  0
SPLINE
  5
8D
330
17
100
AcDbEntity
  8
visible
100
AcDbSpline
 70
0
 71
3
 72
8
 73
4
 74
0
 40
0.0
 40
0.0
 40
0.0
 40
0.0
 40
1.0
 40
1.0
 40
1.0
 40
1.0
 10
-4.931132017666492
 20
-30.405325336502003
 30
0.0
 10
-6.326218128622859
 20
-27.951274264591085
 30
0.0
 10
-7.069497429943931
 20
-24.771560089733743
 30
0.0
 10
-7.065952914381015
 20
-21.377563102961005
 30
0.0
  0
SPLINE
  5
8E
330
17
100
AcDbEntity
  8
visible
100
AcDbSpline
 70
0
 71
3
 72
17
 73
13
 74
0
 40
0.0
 40
0.0
 40
0.0
 40
0.0
 40
0.24429635923260773
 40
0.24429635923260773
 40
0.24429635923260773
 40
0.4915847719152018
 40
0.4915847719152018
 40
0.4915847719152018
 40
0.6863022143625812
 40
0.6863022143625812
 40
0.6863022143625812
 40
1.0
 40
1.0
 40
1.0
 40
1.0
 10
-7.065952914381015
 20
9.80907440859059
 30
0.0
 10
-7.066671490548494
 20
11.99851251657913
 30
0.0
 10
-6.76054544116952
 20
14.271913308670438
 30
0.0
 10
-6.170098550200147
 20
16.47007887631996
 30
0.0
 10
-5.573785115482799
 20
18.6955436633377
 30
0.0
 10
-4.686586608816053
 20
20.84189133833532
 30
0.0
 10
-3.5711384126800896
 20
22.754637643688397
 30
0.0
 10
-2.693446016429449
 20
24.26139171581695
 30
0.0
 10
-1.6754378623837316
 20
25.623471529032194
 30
0.0
 10
-0.5601040433454835
 20
26.77975875204334
 30
0.0
 10
1.2357144980934427
 20
28.644901517964925
 30
0.0
 10
3.286493357946953
 20
29.96937389695595
 30
0.0
 10
5.377251989422209
 20
30.584214239358303
 30
0.0
  0
SPLINE
  5
8F
330
17
100
AcDbEntity
  8
visible
100
AcDbSpline
 70
0
 71
2
 72
8
 73
5
 74
0
 40
0.0
 40
0.0
 40
0.0
 40
0.2443973120988606
 40
0.2443973120988606
 40
1.0
 40
1.0
 40
1.0
 10
22.284219871544146
 20
-24.169221087050033
 30
0.0
 10
22.34414990940491
 20
-24.2615814722927
 30
0.0
 10
22.387611164799413
 20
-24.36395184067044
 30
0.0
 10
22.47888274853098
 20
-24.578910429273023
 30
0.0
 10
22.480058079024865
 20
-24.81483963592025
 30
0.0
  0
LINE
  5
90
330
17
100
AcDbEntity
  8
visible
100
AcDbLine
 10
-6.144469145712833
 20
-27.60893579111073
 30
0.0
 11
-9.383736232697302
 21
-28.564896816361752
 31
0.0
  0
SPLINE
  5
91
330
17
100
AcDbEntity
  8
visible
100
AcDbSpline
 70
0
 71
3
 72
17
 73
13
 74
0
 40
0.0
 40
0.0
 40
0.0
 40
0.0
 40
0.25
 40
0.25
 40
0.25
 40
0.5
 40
0.5
 40
0.5
 40
0.75
 40
0.75
 40
0.75
 40
1.0
 40
1.0
 40
1.0
 40
1.0
 10
-9.383736232697302
 20
-28.564896816361752
 30
0.0
 10
-9.567337093861825
 20
-28.61893424672557
 30
0.0
 10
-9.738454212194132
 20
-28.678694560284534
 30
0.0
 10
-9.897087587694216
 20
-28.744177757038642
 30
0.0
 10
-10.172815267752954
 20
-28.85880884772056
 30
0.0
 10
-10.411335970261613
 20
-28.99016765085069
 30
0.0
 10
-10.612708746514926
 20
-29.158135137600155
 30
0.0
 10
-10.785942026053903
 20
-29.30295341810849
 30
0.0
 10
-10.932974769700976
 20
-29.48070693210332
 30
0.0
 10
-11.023482512990299
 20
-29.69279580209492
 30
0.0
 10
-11.08546797141332
 20
-29.83727878574461
 30
0.0
 10
-11.116867511114956
 20
-29.988949674852126
 30
0.0
 10
-11.1176811320952
 20
-30.147808469417484
 30
0.0
  0
LINE
  5
92
330
17
100
AcDbEntity
  8
visible
100
AcDbLine
 10
24.21807611318407
 20
16.775096292575085
 30
0.0
 11
24.21807611318407
 21
-14.411541218976499
 31
0.0
  0
SPLINE
  5
93
330
17
100
AcDbEntity
  8
visible
100
AcDbSpline
 70
0
 71
3
 72
14
 73
10
 74
0
 40
0.0
 40
0.0
 40
0.0
 40
0.0
 40
0.406981519753376
 40
0.406981519753376
 40
0.406981519753376
 40
0.744663162626332
 40
0.744663162626332
 40
0.744663162626332
 40
1.0
 40
1.0
 40
1.0
 40
1.0
 10
16.213387816530556
 20
30.657168394493326
 30
0.0
 10
18.15737908993474
 20
30.139310827541216
 30
0.0
 10
19.895554724726313
 20
28.902214109442326
 30
0.0
 10
21.220397127269777
 20
27.12661655229616
 30
0.0
 10
22.32302069067847
 20
25.65560542909544
 30
0.0
 10
23.14897041600917
 20
23.818181450596754
 30
0.0
 10
23.648058141511754
 20
21.75688130112503
 30
0.0
 10
24.026236891776495
 20
20.198818223042664
 30
0.0
 10
24.218339327447048
 20
18.51365296771298
 30
0.0
 10
24.21807611318407
 20
16.775096292575085
 30
0.0
  0
SPLINE
  5
94
330
17
100
AcDbEntity
  8
visible
100
AcDbSpline
 70
0
 71
3
 72
8
 73
4
 74
0
 40
0.0
 40
0.0
 40
0.0
 40
0.0
 40
1.0
 40
1.0
 40
1.0
 40
1.0
 10
24.21807611318407
 20
-14.41154121897651
 30
0.0
 10
24.22332532508315
 20
-18.03012957364157
 30
0.0
 10
23.371851324342856
 20
-21.87599592925141
 30
0.0
 10
21.823207537586768
 20
-25.236329778183745
 30
0.0
  0
LINE
  5
95
330
17
100
AcDbEntity
  8
visible
100
AcDbLine
 10
22.480058079024868
 20
-30.956208253579636
 30
0.0
 11
22.480058079024868
 21
-24.81483963592024
 31
0.0
  0
LINE
  5
96
330
17
100
AcDbEntity
  8
visible
100
AcDbLine
 10
20.746113179626967
 20
-32.53911990663537
 30
0.0
 11
0.04324709444359165
 21
-38.64887639073272
 31
0.0
  0
SPLINE
  5
97
330
17
100
AcDbEntity
  8
visible
100
AcDbSpline
 70
0
 71
3
 72
8
 73
4
 74
0
 40
0.0
 40
0.0
 40
0.0
 40
0.0
 40
1.0
 40
1.0
 40
1.0
 40
1.0
 10
8.137634134113323
 20
31.39884843723796
 30
0.0
 10
9.791170272709836
 20
31.88866320926594
 30
0.0
 10
11.469809950246232
 20
31.931781129949343
 30
0.0
 10
13.029027378000194
 20
31.511634810153467
 30
0.0
  0
LINE
  5
98
330
17
100
AcDbEntity
  8
visible
100
AcDbLine
 10
5.377251989422209
 20
30.584214239358303
 30
0.0
 11
8.137634134113327
 21
31.398848437237948
 31
0.0
  0
LINE
  5
99
330
17
100
AcDbEntity
  8
visible
100
AcDbLine
 10
-0.5174658663135059
 20
26.823830829181393
 30
0.0
 11
-2.714490313685843
 21
27.41336321438157
 31
0.0
  0
LINE
  5
9A
330
17
100
AcDbEntity
  8
visible
100
AcDbLine
 10
-4.860010884856332
 20
20.21240750801342
 30
0.0
 11
-16.516401037141424
 21
23.340192224983348
 31
0.0
  0
LINE
  5
9B
330
17
100
AcDbEntity
  8
visible
100
AcDbLine
 10
-6.712306472741673
 20
13.979498111735328
 30
0.0
 11
-18.20096809357859
 21
17.06227586424975
 31
0.0
  0
LINE
  5
9C
330
17
100
AcDbEntity
  8
visible
100
AcDbLine
 10
13.029027378000194
 20
31.511634810153463
 30
0.0
 11
16.21338781653056
 21
30.657168394493347
 31
0.0
  0
SPLINE
  5
9D
330
17
100
AcDbEntity
  8
visible
100
AcDbSpline
 70
0
 71
3
 72
11
 73
7
 74
0
 40
0.0
 40
0.0
 40
0.0
 40
0.0
 40
0.4848915232838215
 40
0.4848915232838215
 40
0.4848915232838215
 40
1.0
 40
1.0
 40
1.0
 40
1.0
 10
-6.3285405881072165
 20
-38.69399727446399
 30
0.0
 10
-5.474381623768101
 20
-38.92406327302028
 30
0.0
 10
-4.354369184928554
 20
-39.04842036810885
 30
0.0
 10
-3.2209556131494455
 20
-39.04786960194066
 30
0.0
 10
-2.016081151649362
 20
-39.04812410010251
 30
0.0
 10
-0.829953304209096
 20
-38.90761825895161
 30
0.0
 10
0.043247094443593426
 20
-38.64887639073272
 30
0.0
  0
LINE
  5
9E
330
17
100
AcDbEntity
  8
visible
100
AcDbLine
 10
-11.1176811320952
 20
-36.28917708707688
 30
0.0
 11
-11.1176811320952
 21
-30.147808469417487
 31
0.0
  0
SPLINE
  5
9F
330
17
100
AcDbEntity
  8
visible
100
AcDbSpline
 70
0
 71
3
 72
17
 73
13
 74
0
 40
0.0
 40
0.0
 40
0.0
 40
0.0
 40
0.25
 40
0.25
 40
0.25
 40
0.5
 40
0.5
 40
0.5
 40
0.75
 40
0.75
 40
0.75
 40
1.0
 40
1.0
 40
1.0
 40
1.0
 10
20.746113179626967
 20
-32.53911990663538
 30
0.0
 10
20.929714040791488
 20
-32.48508247627152
 30
0.0
 10
21.100831159123803
 20
-32.42532216271259
 30
0.0
 10
21.25946453462388
 20
-32.35983896595849
 30
0.0
 10
21.535192214682624
 20
-32.24520787527657
 30
0.0
 10
21.773712917191283
 20
-32.11384907214645
 30
0.0
 10
21.975085693444598
 20
-31.94588158539696
 30
0.0
 10
22.14831897298355
 20
-31.801063304888633
 30
0.0
 10
22.295351716630652
 20
-31.623309790893813
 30
0.0
 10
22.385859459919963
 20
-31.41122092090221
 30
0.0
 10
22.447844918342984
 20
-31.266737937252522
 30
0.0
 10
22.479244458044633
 20
-31.115067048144997
 30
0.0
 10
22.480058079024868
 20
-30.956208253579632
 30
0.0
  0
SPLINE
  5
A0
330
17
100
AcDbEntity
  8
visible
100
AcDbSpline
 70
0
 71
3
 72
20
 73
16
 74
0
 40
0.0
 40
0.0
 40
0.0
 40
0.0
 40
0.36121904271528416
 40
0.36121904271528416
 40
0.36121904271528416
 40
0.6231556154802627
 40
0.6231556154802627
 40
0.6231556154802627
 40
0.7487704103201751
 40
0.7487704103201751
 40
0.7487704103201751
 40
0.8743852051600876
 40
0.8743852051600876
 40
0.8743852051600876
 40
0.9969861195497348
 40
0.9969861195497348
 40
0.9969861195497348
 40
0.9969861195497348
 10
-2.7144903136858503
 20
27.41336321438156
 30
0.0
 10
-3.1379446046696406
 20
27.52810467425905
 30
0.0
 10
-3.604731864251707
 20
27.46723791572382
 30
0.0
 10
-4.03755502912832
 20
27.245510172038777
 30
0.0
 10
-4.351880469303292
 20
27.085667909257914
 30
0.0
 10
-4.64949681531835
 20
26.843290256632944
 30
0.0
 10
-4.909570548728169
 20
26.538392854410674
 30
0.0
 10
-5.441390748188036
 20
25.919890392770068
 30
0.0
 10
-5.807795765077165
 20
25.03406795556772
 30
0.0
 10
-5.898688421666364
 20
24.15648729495021
 30
0.0
 10
-5.988214429779097
 20
23.333434022480862
 30
0.0
 10
-5.836576655946112
 20
22.53083788214311
 30
0.0
 10
-5.472673100770117
 20
21.962278202868802
 30
0.0
 10
-5.214510656320332
 20
21.553623020113488
 30
0.0
 10
-4.847962846922638
 20
21.26390821401356
 30
0.0
 10
-4.429900302301494
 20
21.144039239128205
 30
0.0
  0
SPLINE
  5
A1
330
17
100
AcDbEntity
  8
visible
100
AcDbSpline
 70
0
 71
3
 72
20
 73
16
 74
0
 40
0.0
 40
0.0
 40
0.0
 40
0.0
 40
0.36121904271528416
 40
0.36121904271528416
 40
0.36121904271528416
 40
0.6231556154802627
 40
0.6231556154802627
 40
0.6231556154802627
 40
0.7487704103201751
 40
0.7487704103201751
 40
0.7487704103201751
 40
0.8743852051600876
 40
0.8743852051600876
 40
0.8743852051600876
 40
1.0
 40
1.0
 40
1.0
 40
1.0
 10
-16.516401037141435
 20
23.340192224983326
 30
0.0
 10
-16.939855328125223
 20
23.45493368486082
 30
0.0
 10
-17.406642587707285
 20
23.39406692632558
 30
0.0
 10
-17.839465752583905
 20
23.17233918264055
 30
0.0
 10
-18.15379119275888
 20
23.012496919859686
 30
0.0
 10
-18.45140753877393
 20
22.770119267234712
 30
0.0
 10
-18.711481272183754
 20
22.46522186501244
 30
0.0
 10
-19.24330147164363
 20
21.846719403371843
 30
0.0
 10
-19.609706488532733
 20
20.960896966169482
 30
0.0
 10
-19.700599145121956
 20
20.08331630555199
 30
0.0
 10
-19.790125153234676
 20
19.260263033082623
 30
0.0
 10
-19.63848737940169
 20
18.457666892744864
 30
0.0
 10
-19.2745838242257
 20
17.889107213470567
 30
0.0
 10
-19.01014940508656
 20
17.4703502753784
 30
0.0
 10
-18.631650831704743
 20
17.17666689843451
 30
0.0
 10
-18.200968093578602
 20
17.062275864249727
 30
0.0
  0
LINE
  5
A2
330
17
100
AcDbEntity
  8
visible
100
AcDbLine
 10
-9.223413714043907
 20
-37.91720962386387
 30
0.0
 11
-6.3285405881072165
 21
-38.693997274463975
 31
0.0
  0
SPLINE
  5
A3
330
17
100
AcDbEntity
  8
visible
100
AcDbSpline
 70
0
 71
3
 72
17
 73
13
 74
0
 40
0.0
 40
0.0
 40
0.0
 40
0.0
 40
0.25
 40
0.25
 40
0.25
 40
0.5
 40
0.5
 40
0.5
 40
0.75
 40
0.75
 40
0.75
 40
1.0
 40
1.0
 40
1.0
 40
1.0
 10
-11.1176811320952
 20
-36.28917708707688
 30
0.0
 10
-11.116880091766948
 20
-36.447382939049085
 30
0.0
 10
-11.085723534505261
 20
-36.598483366522046
 30
0.0
 10
-11.02421146031012
 20
-36.742478369495686
 30
0.0
 10
-10.934462185642408
 20
-36.95369894834716
 30
0.0
 10
-10.788577889972888
 20
-37.13101934652329
 30
0.0
 10
-10.616602531340718
 20
-37.275579840007765
 30
0.0
 10
-10.410411660832414
 20
-37.44846739619305
 30
0.0
 10
-10.1650856683803
 20
-37.58270799902415
 30
0.0
 10
-9.880523821804282
 20
-37.699622990112054
 30
0.0
 10
-9.680899356799873
 20
-37.78093605503132
 30
0.0
 10
-9.461862654213098
 20
-37.85346493294862
 30
0.0
 10
-9.223413714043915
 20
-37.91720962386388
 30
0.0
  0
ENDSEC
  0
SECTION
  2
OBJECTS
  0
DICTIONARY
  5
A
330
0
100
AcDbDictionary
281
1
  3
ACAD_COLOR
350
B
  3
ACAD_GROUP
350
C
  3
ACAD_LAYOUT
350
D
  3
ACAD_MATERIAL
350
E
  3
ACAD_MLEADERSTYLE
350
F
  3
ACAD_MLINESTYLE
350
10
  3
ACAD_PLOTSETTINGS
350
11
  3
ACAD_PLOTSTYLENAME
350
12
  3
ACAD_SCALELIST
350
14
  3
ACAD_TABLESTYLE
350
15
  3
ACAD_VISUALSTYLE
350
16
  3
EZDXF_META
350
2D
  0
DICTIONARY
  5
B
330
A
100
AcDbDictionary
281
1
  0
DICTIONARY
  5
C
330
A
100
AcDbDictionary
281
1
  0
DICTIONARY
  5
D
330
A
100
AcDbDictionary
281
1
  3
Model
350
1A
  3
Layout1
350
1E
  0
DICTIONARY
  5
E
330
A
100
AcDbDictionary
281
1
  3
ByBlock
350
1F
  3
ByLayer
350
20
  3
Global
350
21
  0
DICTIONARY
  5
F
330
A
100
AcDbDictionary
281
1
  3
Standard
350
2C
  0
DICTIONARY
  5
10
330
A
100
AcDbDictionary
281
1
  3
Standard
350
22
  0
DICTIONARY
  5
11
330
A
100
AcDbDictionary
281
1
  0
ACDBDICTIONARYWDFLT
  5
12
330
A
100
AcDbDictionary
281
1
  3
Normal
350
13
100
AcDbDictionaryWithDefault
340
13
  0
ACDBPLACEHOLDER
  5
13
330
12
  0
DICTIONARY
  5
14
330
A
100
AcDbDictionary
281
1
  0
DICTIONARY
  5
15
330
A
100
AcDbDictionary
281
1
  0
DICTIONARY
  5
16
330
A
100
AcDbDictionary
281
1
  0
LAYOUT
  5
1A
330
D
100
AcDbPlotSettings
  1

  4
A3
  6

 40
7.5
 41
20.0
 42
7.5
 43
20.0
 44
420.0
 45
297.0
 46
0.0
 47
0.0
 48
0.0
 49
0.0
140
0.0
141
0.0
142
1.0
143
1.0
 70
1024
 72
1
 73
0
 74
5
  7

 75
16
 76
0
 77
2
 78
300
147
1.0
148
0.0
149
0.0
100
AcDbLayout
  1
Model
 70
1
 71
0
 10
0.0
 20
0.0
 11
420.0
 21
297.0
 12
0.0
 22
0.0
 32
0.0
 14
1e+20
 24
1e+20
 34
1e+20
 15
-1e+20
 25
-1e+20
 35
-1e+20
146
0.0
 13
0.0
 23
0.0
 33
0.0
 16
1.0
 26
0.0
 36
0.0
 17
0.0
 27
1.0
 37
0.0
 76
1
330
17
  0
LAYOUT
  5
1E
330
D
100
AcDbPlotSettings
  1

  4
A3
  6

 40
7.5
 41
20.0
 42
7.5
 43
20.0
 44
420.0
 45
297.0
 46
0.0
 47
0.0
 48
0.0
 49
0.0
140
0.0
141
0.0
142
1.0
143
1.0
 70
0
 72
1
 73
0
 74
5
  7

 75
16
 76
0
 77
2
 78
300
147
1.0
148
0.0
149
0.0
100
AcDbLayout
  1
Layout1
 70
1
 71
1
 10
0.0
 20
0.0
 11
420.0
 21
297.0
 12
0.0
 22
0.0
 32
0.0
 14
1e+20
 24
1e+20
 34
1e+20
 15
-1e+20
 25
-1e+20
 35
-1e+20
146
0.0
 13
0.0
 23
0.0
 33
0.0
 16
1.0
 26
0.0
 36
0.0
 17
0.0
 27
1.0
 37
0.0
 76
1
330
1B
  0
MATERIAL
  5
1F
102
{ACAD_REACTORS
330
E
102
}
330
E
100
AcDbMaterial
  1
ByBlock
  2

 70
0
 40
1.0
 71
1
 41
1.0
 91
-1023410177
 42
1.0
 72
1
  3

 73
1
 74
1
 75
1
 44
0.5
 73
0
 45
1.0
 46
1.0
 77
1
  4

 78
1
 79
1
170
1
 48
1.0
171
1
  6

172
1
173
1
174
1
140
1.0
141
1.0
175
1
  7

176
1
177
1
178
1
143
1.0
179
1
  8

270
1
271
1
272
1
145
1.0
146
1.0
273
1
  9

274
1
275
1
276
1
 42
1.0
 72
1
  3

 73
1
 74
1
 75
1
 94
63
  0
MATERIAL
  5
20
102
{ACAD_REACTORS
330
E
102
}
330
E
100
AcDbMaterial
  1
ByLayer
  2

 70
0
 40
1.0
 71
1
 41
1.0
 91
-1023410177
 42
1.0
 72
1
  3

 73
1
 74
1
 75
1
 44
0.5
 73
0
 45
1.0
 46
1.0
 77
1
  4

 78
1
 79
1
170
1
 48
1.0
171
1
  6

172
1
173
1
174
1
140
1.0
141
1.0
175
1
  7

176
1
177
1
178
1
143
1.0
179
1
  8

270
1
271
1
272
1
145
1.0
146
1.0
273
1
  9

274
1
275
1
276
1
 42
1.0
 72
1
  3

 73
1
 74
1
 75
1
 94
63
  0
MATERIAL
  5
21
102
{ACAD_REACTORS
330
E
102
}
330
E
100
AcDbMaterial
  1
Global
  2

 70
0
 40
1.0
 71
1
 41
1.0
 91
-1023410177
 42
1.0
 72
1
  3

 73
1
 74
1
 75
1
 44
0.5
 73
0
 45
1.0
 46
1.0
 77
1
  4

 78
1
 79
1
170
1
 48
1.0
171
1
  6

172
1
173
1
174
1
140
1.0
141
1.0
175
1
  7

176
1
177
1
178
1
143
1.0
179
1
  8

270
1
271
1
272
1
145
1.0
146
1.0
273
1
  9

274
1
275
1
276
1
 42
1.0
 72
1
  3

 73
1
 74
1
 75
1
 94
63
  0
MLINESTYLE
  5
22
102
{ACAD_REACTORS
330
10
102
}
330
10
100
AcDbMlineStyle
  2
Standard
 70
0
  3

 62
256
 51
90.0
 52
90.0
 71
2
 49
0.5
 62
256
  6
BYLAYER
 49
-0.5
 62
256
  6
BYLAYER
  0
MLEADERSTYLE
  5
2C
102
{ACAD_REACTORS
330
F
102
}
330
F
100
AcDbMLeaderStyle
179
2
170
2
171
1
172
0
 90
2
 40
0.0
 41
0.0
173
1
 91
-1056964608
 92
-2
290
1
 42
2.0
291
1
 43
8.0
  3
Standard
 44
4.0
300

342
29
174
1
175
1
176
0
178
1
 93
-1056964608
 45
4.0
292
0
297
0
 46
4.0
 94
-1056964608
 47
1.0
 49
1.0
140
1.0
294
1
141
0.0
177
0
142
1.0
295
0
296
0
143
3.75
271
0
272
9
273
9
  0
DICTIONARY
  5
2D
330
A
100
AcDbDictionary
280
1
281
1
  3
CREATED_BY_EZDXF
350
2E
  3
WRITTEN_BY_EZDXF
350
A7
  0
DICTIONARYVAR
  5
2E
330
2D
100
DictionaryVariables
280
0
  1
1.4.4 @ 2026-10-02T17:09:12.508581+00:00
  0
DICTIONARYVAR
  5
A7
330
2D
100
DictionaryVariables
280
0
  1
1.4.4 @ 2026-10-02T17:09:12.535028+00:00
  0
ENDSEC
  0
EOF
