  0
SECTION
  2
HEADER
  9
$ACADVER
  1
AC1027
  9
$ACADMAINTVER
 70
105
  9
$DWGCODEPAGE
  3
ANSI_1252
  9
$LASTSAVEDBY
  1
ezdxf
  9
$REQUIREDVERSIONS
160
0
  9
$INSBASE
 10
0.0
 20
0.0
 30
0.0
  9
$EXTMIN
 10
1e+20
 20
1e+20
 30
1e+20
  9
$EXTMAX
 10
-1e+20
 20
-1e+20
 30
-1e+20
  9
$LIMMIN
 10
0.0
 20
0.0
  9
$LIMMAX
 10
420.0
 20
297.0
  9
$ORTHOMODE
 70
0
  9
$REGENMODE
 70
1
  9
$FILLMODE
 70
1
  9
$QTEXTMODE
 70
0
  9
$MIRRTEXT
 70
1
  9
$LTSCALE
 40
1.0
  9
$ATTMODE
 70
1
  9
$TEXTSIZE
 40
2.5
  9
$TRACEWID
 40
1.0
  9
$TEXTSTYLE
  7
Standard
  9
$CLAYER
  8
0
  9
$CELTYPE
  6
ByLayer
  9
$CECOLOR
 62
256
  9
$CELTSCALE
 40
1.0
  9
$DISPSILH
 70
0
  9
$DIMSCALE
 40
1.0
  9
$DIMASZ
 40
2.5
  9
$DIMEXO
 40
0.625
  9
$DIMDLI
 40
3.75
  9
$DIMRND
 40
0.0
  9
$DIMDLE
 40
0.0
  9
$DIMEXE
 40
1.25
  9
$DIMTP
 40
0.0
  9
$DIMTM
 40
0.0
  9
$DIMTXT
 40
2.5
  9
$DIMCEN
 40
2.5
  9
$DIMTSZ
 40
0.0
  9
$DIMTOL
 70
0
  9
$DIMLIM
 70
0
  9
$DIMTIH
 70
0
  9
$DIMTOH
 70
0
  9
$DIMSE1
 70
0
  9
$DIMSE2
 70
0
  9
$DIMTAD
 70
1
  9
$DIMZIN
 70
8
  9
$DIMBLK
  1

  9
$DIMASO
 70
1
  9
$DIMSHO
 70
1
  9
$DIMPOST
  1

  9
$DIMAPOST
  1

  9
$DIMALT
 70
0
  9
$DIMALTD
 70
3
  9
$DIMALTF
 40
0.03937007874
  9
$DIMLFAC
 40
1.0
  9
$DIMTOFL
 70
1
  9
$DIMTVP
 40
0.0
  9
$DIMTIX
 70
0
  9
$DIMSOXD
 70
0
  9
$DIMSAH
 70
0
  9
$DIMBLK1
  1

  9
$DIMBLK2
  1

  9
$DIMSTYLE
  2
ISO-25
  9
$DIMCLRD
 70
0
  9
$DIMCLRE
 70
0
  9
$DIMCLRT
 70
0
  9
$DIMTFAC
 40
1.0
  9
$DIMGAP
 40
0.625
  9
$DIMJUST
 70
0
  9
$DIMSD1
 70
0
  9
$DIMSD2
 70
0
  9
$DIMTOLJ
 70
0
  9
$DIMTZIN
 70
8
  9
$DIMALTZ
 70
0
  9
$DIMALTTZ
 70
0
  9
$DIMUPT
 70
0
  9
$DIMDEC
 70
2
  9
$DIMTDEC
 70
2
  9
$DIMALTU
 70
2
  9
$DIMALTTD
 70
3
  9
$DIMTXSTY
  7
Standard
  9
$DIMAUNIT
 70
0
  9
$DIMADEC
 70
0
  9
$DIMALTRND
 40
0.0
  9
$DIMAZIN
 70
0
  9
$DIMDSEP
 70
44
  9
$DIMATFIT
 70
3
  9
$DIMFRAC
 70
0
  9
$DIMLDRBLK
  1

  9
$DIMLUNIT
 70
2
  9
$DIMLWD
 70
-2
  9
$DIMLWE
 70
-2
  9
$DIMTMOVE
 70
0
  9
$DIMFXL
 40
1.0
  9
$DIMFXLON
 70
0
  9
$DIMJOGANG
 40
0.785398163397
  9
$DIMTFILL
 70
0
  9
$DIMTFILLCLR
 70
0
  9
$DIMARCSYM
 70
0
  9
$DIMLTYPE
  6

  9
$DIMLTEX1
  6

  9
$DIMLTEX2
  6

  9
$DIMTXTDIRECTION
 70
0
  9
$LUNITS
 70
2
  9
$LUPREC
 70
4
  9
$SKETCHINC
 40
1.0
  9
$FILLETRAD
 40
10.0
  9
$AUNITS
 70
0
  9
$AUPREC
 70
2
  9
$MENU
  1
.
  9
$ELEVATION
 40
0.0
  9
$PELEVATION
 40
0.0
  9
$THICKNESS
 40
0.0
  9
$LIMCHECK
 70
0
  9
$CHAMFERA
 40
0.0
  9
$CHAMFERB
 40
0.0
  9
$CHAMFERC
 40
0.0
  9
$CHAMFERD
 40
0.0
  9
$SKPOLY
 70
0
  9
$TDCREATE
 40
2461317.689074074
  9
$TDUCREATE
 40
2458532.153996898
  9
$TDUPDATE
 40
2461317.689074074
  9
$TDUUPDATE
 40
2458532.1544311
  9
$TDINDWG
 40
0.0
  9
$TDUSRTIMER
 40
0.0
  9
$USRTIMER
 70
1
  9
$ANGBASE
 50
0.0
  9
$ANGDIR
 70
0
  9
$PDMODE
 70
0
  9
$PDSIZE
 40
0.0
  9
$PLINEWID
 40
0.0
  9
$SPLFRAME
 70
0
  9
$SPLINETYPE
 70
6
  9
$SPLINESEGS
 70
8
  9
$HANDSEED
  5
D5
  9
$SURFTAB1
 70
6
  9
$SURFTAB2
 70
6
  9
$SURFTYPE
 70
6
  9
$SURFU
 70
6
  9
$SURFV
 70
6
  9
$UCSBASE
  2

  9
$UCSNAME
  2

  9
$UCSORG
 10
0.0
 20
0.0
 30
0.0
  9
$UCSXDIR
 10
1.0
 20
0.0
 30
0.0
  9
$UCSYDIR
 10
0.0
 20
1.0
 30
0.0
  9
$UCSORTHOREF
  2

  9
$UCSORTHOVIEW
 70
0
  9
$UCSORGTOP
 10
0.0
 20
0.0
 30
0.0
  9
$UCSORGBOTTOM
 10
0.0
 20
0.0
 30
0.0
  9
$UCSORGLEFT
 10
0.0
 20
0.0
 30
0.0
  9
$UCSORGRIGHT
 10
0.0
 20
0.0
 30
0.0
  9
$UCSORGFRONT
 10
0.0
 20
0.0
 30
0.0
  9
$UCSORGBACK
 10
0.0
 20
0.0
 30
0.0
  9
$PUCSBASE
  2

  9
$PUCSNAME
  2

  9
$PUCSORG
 10
0.0
 20
0.0
 30
0.0
  9
$PUCSXDIR
 10
1.0
 20
0.0
 30
0.0
  9
$PUCSYDIR
 10
0.0
 20
1.0
 30
0.0
  9
$PUCSORTHOREF
  2

  9
$PUCSORTHOVIEW
 70
0
  9
$PUCSORGTOP
 10
0.0
 20
0.0
 30
0.0
  9
$PUCSORGBOTTOM
 10
0.0
 20
0.0
 30
0.0
  9
$PUCSORGLEFT
 10
0.0
 20
0.0
 30
0.0
  9
$PUCSORGRIGHT
 10
0.0
 20
0.0
 30
0.0
  9
$PUCSORGFRONT
 10
0.0
 20
0.0
 30
0.0
  9
$PUCSORGBACK
 10
0.0
 20
0.0
 30
0.0
  9
$USERI1
 70
0
  9
$USERI2
 70
0
  9
$USERI3
 70
0
  9
$USERI4
 70
0
  9
$USERI5
 70
0
  9
$USERR1
 40
0.0
  9
$USERR2
 40
0.0
  9
$USERR3
 40
0.0
  9
$USERR4
 40
0.0
  9
$USERR5
 40
0.0
  9
$WORLDVIEW
 70
1
  9
$SHADEDGE
 70
3
  9
$SHADEDIF
 70
70
  9
$TILEMODE
 70
1
  9
$MAXACTVP
 70
64
  9
$PINSBASE
 10
0.0
 20
0.0
 30
0.0
  9
$PLIMCHECK
 70
0
  9
$PEXTMIN
 10
1e+20
 20
1e+20
 30
1e+20
  9
$PEXTMAX
 10
-1e+20
 20
-1e+20
 30
-1e+20
  9
$PLIMMIN
 10
0.0
 20
0.0
  9
$PLIMMAX
 10
420.0
 20
297.0
  9
$UNITMODE
 70
0
  9
$VISRETAIN
 70
1
  9
$PLINEGEN
 70
0
  9
$PSLTSCALE
 70
1
  9
$TREEDEPTH
 70
3020
  9
$CMLSTYLE
  2
Standard
  9
$CMLJUST
 70
0
  9
$CMLSCALE
 40
20.0
  9
$PROXYGRAPHICS
 70
1
  9
$MEASUREMENT
 70
1
  9
$CELWEIGHT
370
-1
  9
$ENDCAPS
280
0
  9
$JOINSTYLE
280
0
  9
$LWDISPLAY
290
0
  9
$INSUNITS
 70
4
  9
$HYPERLINKBASE
  1

  9
$STYLESHEET
  1

  9
$XEDIT
290
1
  9
$CEPSNTYPE
380
0
  9
$PSTYLEMODE
290
1
  9
$FINGERPRINTGUID
  2
{B2BC1363-32D7-41BB-91A8-4CA633BCD892}
  9
$VERSIONGUID
  2
{7B2244A8-722D-470F-8D57-F615DF9E2656}
  9
$EXTNAMES
290
1
  9
$PSVPSCALE
 40
0.0
  9
$OLESTARTUP
290
0
  9
$SORTENTS
280
127
  9
$INDEXCTL
280
0
  9
$HIDETEXT
280
1
  9
$XCLIPFRAME
280
1
  9
$HALOGAP
280
0
  9
$OBSCOLOR
 70
257
  9
$OBSLTYPE
280
0
  9
$INTERSECTIONDISPLAY
280
0
  9
$INTERSECTIONCOLOR
 70
257
  9
$DIMASSOC
280
2
  9
$PROJECTNAME
  1

  9
$CAMERADISPLAY
290
0
  9
$LENSLENGTH
 40
50.0
  9
$CAMERAHEIGHT
 40
0.0
  9
$STEPSPERSEC
 40
24.0
  9
$STEPSIZE
 40
100.0
  9
$3DDWFPREC
 40
2.0
  9
$PSOLWIDTH
 40
0.005
  9
$PSOLHEIGHT
 40
0.08
  9
$LOFTANG1
 40
1.570796326795
  9
$LOFTANG2
 40
1.570796326795
  9
$LOFTMAG1
 40
0.0
  9
$LOFTMAG2
 40
0.0
  9
$LOFTPARAM
 70
7
  9
$LOFTNORMALS
280
1
  9
$LATITUDE
 40
37.795
  9
$LONGITUDE
 40
-122.394
  9
$NORTHDIRECTION
 40
0.0
  9
$TIMEZONE
 70
-8000
  9
$LIGHTGLYPHDISPLAY
280
1
  9
$TILEMODELIGHTSYNCH
280
1
  9
$CMATERIAL
347
20
  9
$SOLIDHIST
280
0
  9
$SHOWHIST
280
1
  9
$DWFFRAME
280
2
  9
$DGNFRAME
280
2
  9
$REALWORLDSCALE
290
1
  9
$INTERFERECOLOR
 62
256
  9
$CSHADOW
280
0
  9
$SHADOWPLANELOCATION
 40
0.0
  0
ENDSEC
  0
SECTION
  2
CLASSES
  0
CLASS
  1
ACDBDICTIONARYWDFLT
  2
AcDbDictionaryWithDefault
  3
ObjectDBX Classes
 90
0
 91
0
280
0
281
0
  0
CLASS
  1
SUN
  2
AcDbSun
  3
SCENEOE
 90
1153
 91
0
280
0
281
0
  0
CLASS
  1
VISUALSTYLE
  2
AcDbVisualStyle
  3
ObjectDBX Classes
 90
4095
 91
0
280
0
281
0
  0
CLASS
  1
MATERIAL
  2
AcDbMaterial
  3
ObjectDBX Classes
 90
1153
 91
0
280
0
281
0
  0
CLASS
  1
SCALE
  2
AcDbScale
  3
ObjectDBX Classes
 90
1153
 91
0
280
0
281
0
  0
CLASS
  1
TABLESTYLE
  2
AcDbTableStyle
  3
ObjectDBX Classes
 90
4095
 91
0
280
0
281
0
  0
CLASS
  1
MLEADERSTYLE
  2
AcDbMLeaderStyle
  3
ACDB_MLEADERSTYLE_CLASS
 90
4095
 91
0
280
0
281
0
  0
CLASS
  1
DICTIONARYVAR
  2
AcDbDictionaryVar
  3
ObjectDBX Classes
 90
0
 91
0
280
0
281
0
  0
CLASS
  1
CELLSTYLEMAP
  2
AcDbCellStyleMap
  3
ObjectDBX Classes
 90
1152
 91
0
280
0
281
0
  0
CLASS
  1
MENTALRAYRENDERSETTINGS
  2
AcDbMentalRayRenderSettings
  3
SCENEOE
 90
1024
 91
0
280
0
281
0
  0
CLASS
  1
ACDBDETAILVIEWSTYLE
  2
AcDbDetailViewStyle
  3
ObjectDBX Classes
 90
1025
 91
0
280
0
281
0
  0
CLASS
  1
ACDBSECTIONVIEWSTYLE
  2
AcDbSectionViewStyle
  3
ObjectDBX Classes
 90
1025
 91
0
280
0
281
0
  0
CLASS
  1
RASTERVARIABLES
  2
AcDbRasterVariables
  3
ISM
 90
0
 91
0
280
0
281
0
  0
CLASS
  1
ACDBPLACEHOLDER
  2
AcDbPlaceHolder
  3
ObjectDBX Classes
 90
0
 91
0
280
0
281
0
  0
CLASS
  1
LAYOUT
  2
AcDbLayout
  3
ObjectDBX Classes
 90
0
 91
0
280
0
281
0
  0
ENDSEC
  0
SECTION
  2
TABLES
  0
TABLE
  2
VPORT
  5
8
330
0
100
AcDbSymbolTable
 70
1
  0
VPORT
  5
D1
330
8
100
AcDbSymbolTableRecord
100
AcDbViewportTableRecord
  2
*Active
 70
0
 10
0.0
 20
0.0
 11
1.0
 21
1.0
 12
2.108257770275081
 22
-3.948148383227803
 13
0.0
 23
0.0
 14
0.5
 24
0.5
 15
0.5
 25
0.5
 16
0.0
 26
0.0
 36
1.0
 17
0.0
 27
0.0
 37
0.0
 40
70.99720929300088
 41
1.34
 42
50.0
 43
0.0
 44
0.0
 50
0.0
 51
0.0
 71
0
 72
1000
 73
1
 74
3
 75
0
 76
0
 77
0
 78
0
281
0
 65
1
110
0.0
120
0.0
130
0.0
111
1.0
121
0.0
131
0.0
112
0.0
122
1.0
132
0.0
 79
0
146
0.0
  0
ENDTAB
  0
TABLE
  2
LTYPE
  5
2
330
0
100
AcDbSymbolTable
 70
3
  0
LTYPE
  5
24
330
2
100
AcDbSymbolTableRecord
100
AcDbLinetypeTableRecord
  2
ByBlock
 70
0
  3

 72
65
 73
0
 40
0.0
  0
LTYPE
  5
25
330
2
100
AcDbSymbolTableRecord
100
AcDbLinetypeTableRecord
  2
ByLayer
 70
0
  3

 72
65
 73
0
 40
0.0
  0
LTYPE
  5
26
330
2
100
AcDbSymbolTableRecord
100
AcDbLinetypeTableRecord
  2
Continuous
 70
0
  3

 72
65
 73
0
 40
0.0
  0
ENDTAB
  0
TABLE
  2
LAYER
  5
1
330
0
100
AcDbSymbolTable
 70
3
  0
LAYER
  5
27
330
1
100
AcDbSymbolTableRecord
100
AcDbLayerTableRecord
  2
0
 70
0
 62
7
  6
Continuous
370
-3
390
13
347
21
  0
LAYER
  5
28
330
1
100
AcDbSymbolTableRecord
100
AcDbLayerTableRecord
  2
Defpoints
 70
0
 62
7
  6
Continuous
290
0
370
-3
390
13
347
21
  0
LAYER
  5
2F
330
1
100
AcDbSymbolTableRecord
100
AcDbLayerTableRecord
  2
visible
 70
0
 62
7
  6
Continuous
370
-3
390
13
347
21
  0
ENDTAB
  0
TABLE
  2
STYLE
  5
5
330
0
100
AcDbSymbolTable
 70
1
  0
STYLE
  5
29
330
5
100
AcDbSymbolTableRecord
100
AcDbTextStyleTableRecord
  2
Standard
 70
0
 40
0.0
 41
1.0
 50
0.0
 71
0
 42
2.5
  3
txt
  4

  0
ENDTAB
  0
TABLE
  2
VIEW
  5
7
330
0
100
AcDbSymbolTable
 70
0
  0
ENDTAB
  0
TABLE
  2
UCS
  5
6
330
0
100
AcDbSymbolTable
 70
0
  0
ENDTAB
  0
TABLE
  2
APPID
  5
3
330
0
100
AcDbSymbolTable
 70
3
  0
APPID
  5
2A
330
3
100
AcDbSymbolTableRecord
100
AcDbRegAppTableRecord
  2
ACAD
 70
0
  0
APPID
  5
D2
330
3
100
AcDbSymbolTableRecord
100
AcDbRegAppTableRecord
  2
HATCHBACKGROUNDCOLOR
 70
0
  0
APPID
  5
D3
330
3
100
AcDbSymbolTableRecord
100
AcDbRegAppTableRecord
  2
EZDXF
 70
0
  0
ENDTAB
  0
TABLE
  2
DIMSTYLE
  5
4
330
0
100
AcDbSymbolTable
 70
1
100
AcDbDimStyleTable
  0
DIMSTYLE
105
2B
330
4
100
AcDbSymbolTableRecord
100
AcDbDimStyleTableRecord
  2
Standard
 70
0
 40
1.0
 41
2.5
 42
0.625
 43
3.75
 44
1.25
 45
0.0
 46
0.0
 47
0.0
 48
0.0
 49
2.5
140
2.5
141
2.5
142
0.0
143
0.03937007874
144
1.0
145
0.0
146
1.0
147
0.625
148
0.0
 69
0
 70
0
 71
0
 72
0
 73
0
 74
0
 75
0
 76
0
 77
1
 78
8
 79
3
170
0
171
3
172
1
173
0
174
0
175
0
176
0
177
0
178
0
179
2
271
2
272
2
273
2
274
3
275
0
276
0
277
2
278
44
279
0
280
0
281
0
282
0
283
0
284
8
285
0
286
0
288
0
289
3
290
0
371
-2
372
-2
  0
ENDTAB
  0
TABLE
  2
BLOCK_RECORD
  5
9
330
0
100
AcDbSymbolTable
 70
2
  0
BLOCK_RECORD
  5
17
330
9
100
AcDbSymbolTableRecord
100
AcDbBlockTableRecord
  2
*Model_Space
340
1A
 70
0
280
1
281
0
  0
BLOCK_RECORD
  5
1B
330
9
100
AcDbSymbolTableRecord
100
AcDbBlockTableRecord
  2
*Paper_Space
340
1E
 70
0
280
1
281
0
  0
ENDTAB
  0
ENDSEC
  0
SECTION
  2
BLOCKS
  0
BLOCK
  5
18
330
17
100
AcDbEntity
  8
0
100
AcDbBlockBegin
  2
*Model_Space
 70
0
 10
0.0
 20
0.0
 30
0.0
  3
*Model_Space
  1

  0
ENDBLK
  5
19
330
17
100
AcDbEntity
  8
0
100
AcDbBlockEnd
  0
BLOCK
  5
1C
330
1B
100
AcDbEntity
  8
0
100
AcDbBlockBegin
  2
*Paper_Space
 70
0
 10
0.0
 20
0.0
 30
0.0
  3
*Paper_Space
  1

  0
ENDBLK
  5
1D
330
1B
100
AcDbEntity
  8
0
100
AcDbBlockEnd
  0
ENDSEC
  0
SECTION
  2
ENTITIES
  0
LINE
  5
30
330
17
100
AcDbEntity
  8
visible
100
AcDbLine
 10
-6.020377136868017
 20
-30.918622792959404
 30
0.0
 11
-3.178671809826497
 21
-31.671808357486476
 31
0.0
  0
SPLINE
  5
31
330
17
100
AcDbEntity
  8
visible
100
AcDbSpline
 70
0
 71
2
 72
6
 73
3
 74
0
 40
0.0
 40
0.0
 40
0.0
 40
1.0
 40
1.0
 40
1.0
 10
-2.7721202292536242
 20
-31.857232260875776
 30
0.0
 10
-2.9953175867578326
 20
-31.72173630459332
 30
0.0
 10
-3.178671809826497
 20
-31.67180835748647
 30
0.0
  0
LINE
  5
32
330
17
100
AcDbEntity
  8
visible
100
AcDbLine
 10
-3.7767317546357546
 20
8.421742126748754
 30
0.0
 11
-3.7767317546357546
 21
-22.77563113083887
 31
0.0
  0
SPLINE
  5
33
330
17
100
AcDbEntity
  8
visible
100
AcDbSpline
 70
0
 71
3
 72
11
 73
7
 74
0
 40
0.0
 40
0.0
 40
0.0
 40
0.0
 40
0.7367417200852806
 40
0.7367417200852806
 40
0.7367417200852806
 40
1.0
 40
1.0
 40
1.0
 40
1.0
 10
-2.7721202292536233
 20
-31.857232260875808
 30
0.0
 10
-2.51514911957586
 20
-32.015046403447734
 30
0.0
 10
-2.1429927627149112
 20
-32.17348857527603
 30
0.0
 10
-1.8101757797342897
 20
-32.29430916356315
 30
0.0
 10
-1.6910548862209491
 20
-32.33990758697065
 30
0.0
 10
-1.57171731444307
 20
-32.37832566299216
 30
0.0
 10
-1.469312597628857
 20
-32.43407424468063
 30
0.0
  0
SPLINE
  5
34
330
17
100
AcDbEntity
  8
visible
100
AcDbSpline
 70
0
 71
2
 72
6
 73
3
 74
0
 40
0.0
 40
0.0
 40
0.0
 40
1.0
 40
1.0
 40
1.0
 10
-1.469312597628842
 20
-32.43407424468055
 30
0.0
 10
-1.1692629594399035
 20
-32.60424312444467
 30
0.0
 10
-0.8909511009998782
 20
-32.731260836955045
 30
0.0
  0
ELLIPSE
  5
35
330
17
100
AcDbEntity
  8
visible
100
AcDbEllipse
 10
8.041227304737095
 20
-19.273000623765427
 30
0.0
 11
4.406652348712233
 21
16.625925991582815
 31
0.0
 40
0.6595514846478426
 41
-4.330280610979255
 42
-3.616380595852632
  0
SPLINE
  5
36
330
17
100
AcDbEntity
  8
visible
100
AcDbSpline
 70
0
 71
2
 72
6
 73
3
 74
0
 40
0.0
 40
0.0
 40
0.0
 40
0.3491350423599851
 40
0.3491350423599851
 40
0.3491350423599851
 10
-6.0203767009249916
 20
-30.9186229085048
 30
0.0
 10
-6.19016171539899
 20
-30.872634719712135
 30
0.0
 10
-6.2291510162604204
 20
-30.80483472899369
 30
0.0
  0
LINE
  5
37
330
17
100
AcDbEntity
  8
visible
100
AcDbLine
 10
22.60754893605712
 20
16.24156837509875
 30
0.0
 11
22.60754893605712
 21
-7.756411053814805
 31
0.0
  0
ELLIPSE
  5
38
330
17
100
AcDbEntity
  8
visible
100
AcDbEllipse
 10
10.789589876684271
 20
12.738937868025317
 30
0.0
 11
4.406652348712233
 21
16.625925991582815
 31
0.0
 40
0.6595514846478426
 41
-7.471873264569049
 42
-5.901076937774152
  0
LINE
  5
39
330
17
100
AcDbEntity
  8
visible
100
AcDbLine
 10
22.60754893605712
 20
-7.756411053814798
 30
0.0
 11
25.218493379406937
 21
-6.982574081321828
 31
0.0
  0
LINE
  5
3A
330
17
100
AcDbEntity
  8
visible
100
AcDbLine
 10
8.041227304737095
 20
28.434982480914726
 30
0.0
 11
10.789589876684271
 21
29.249547715117853
 31
0.0
  0
LINE
  5
3B
330
17
100
AcDbEntity
  8
visible
100
AcDbLine
 10
25.21849337940694
 20
-10.822250789947997
 30
0.0
 11
25.21849337940694
 21
-6.982574081321828
 31
0.0
  0
ELLIPSE
  5
3C
330
17
100
AcDbEntity
  8
visible
100
AcDbEllipse
 10
8.041227304737095
 20
11.924372633822188
 30
0.0
 11
4.406652348712233
 21
16.625925991582815
 31
0.0
 40
0.6595514846478426
 41
-5.901076937774152
 42
-4.330280610979256
  0
LINE
  5
3D
330
17
100
AcDbEntity
  8
visible
100
AcDbLine
 10
22.60754893605712
 20
-11.59608776244097
 30
0.0
 11
25.218493379406937
 21
-10.822250789948
 31
0.0
  0
LINE
  5
3E
330
17
100
AcDbEntity
  8
visible
100
AcDbLine
 10
22.60754893605712
 20
-11.596087762440977
 30
0.0
 11
22.60754893605712
 21
-14.955804882488874
 31
0.0
  0
ELLIPSE
  5
3F
330
17
100
AcDbEntity
  8
visible
100
AcDbEllipse
 10
10.789589876684271
 20
-18.458435389562297
 30
0.0
 11
4.406652348712233
 21
16.625925991582815
 31
0.0
 40
0.6595514846478426
 41
-1.423395071225622
 42
-1.1886879573894626
  0
LINE
  5
40
330
17
100
AcDbEntity
  8
visible
100
AcDbLine
 10
-0.8909510540912251
 20
-38.43094748201811
 30
0.0
 11
-0.8909510540912251
 21
-32.731260898697755
 31
0.0
  0
LINE
  5
41
330
17
100
AcDbEntity
  8
visible
100
AcDbLine
 10
22.283529997553796
 20
-18.891514976674205
 30
0.0
 11
25.218493379406937
 21
-18.021644618622062
 31
0.0
  0
LINE
  5
42
330
17
100
AcDbEntity
  8
visible
100
AcDbLine
 10
19.72176823551259
 20
-32.321708225494675
 30
0.0
 11
-0.8909510540912216
 21
-38.43094748201812
 31
0.0
  0
LINE
  5
43
330
17
100
AcDbEntity
  8
visible
100
AcDbLine
 10
25.21849337940694
 20
-21.86132132724823
 30
0.0
 11
25.21849337940694
 21
-18.021644618622062
 31
0.0
  0
LINE
  5
44
330
17
100
AcDbEntity
  8
visible
100
AcDbLine
 10
19.72176823551259
 20
-32.321708225494675
 30
0.0
 11
19.72176823551259
 21
-26.622021642174314
 31
0.0
  0
LINE
  5
45
330
17
100
AcDbEntity
  8
visible
100
AcDbLine
 10
21.25143335771078
 20
-23.037086566032347
 30
0.0
 11
25.218493379406937
 21
-21.861321327248234
 31
0.0
  0
ELLIPSE
  5
46
330
17
100
AcDbEntity
  8
visible
100
AcDbEllipse
 10
10.789589876684271
 20
-18.458435389562297
 30
0.0
 11
4.406652348712233
 21
16.625925991582815
 31
0.0
 40
0.6595514846478426
 41
-1.902587972516086
 42
-1.6724539158101774
  0
ELLIPSE
  5
47
330
17
100
AcDbEntity
  8
visible
100
AcDbEllipse
 10
16.28631502057862
 20
-19.709062452625687
 30
0.0
 11
-0.23058064615354687
 21
-0.8699612437456125
 31
0.0
 40
0.6595514846478426
 41
0.3821083694054338
 42
3.141592653589793
  0
ELLIPSE
  5
48
330
17
100
AcDbEntity
  8
visible
100
AcDbEllipse
 10
16.28631502057862
 20
-19.709062452625687
 30
0.0
 11
-0.23058064615354687
 21
-0.8699612437456125
 31
0.0
 40
0.6595514846478426
 41
3.141592653589793
 42
6.283185307179586
  0
ELLIPSE
  5
49
330
17
100
AcDbEntity
  8
visible
100
AcDbEllipse
 10
16.28631502057862
 20
-19.709062452625687
 30
0.0
 11
-0.23058064615354687
 21
-0.8699612437456125
 31
0.0
 40
0.6595514846478426
 41
0.0
 42
0.3821083694054339
  0
ELLIPSE
  5
4A
330
17
100
AcDbEntity
  8
visible
100
AcDbEllipse
 10
9.415408590710683
 20
-3.9869707607374636
 30
0.0
 11
-0.23058064615354687
 21
-0.8699612437456125
 31
0.0
 40
0.6595514846478426
 41
0.3821083694054338
 42
3.141592653589793
  0
ELLIPSE
  5
4B
330
17
100
AcDbEntity
  8
visible
100
AcDbEllipse
 10
9.415408590710683
 20
-3.9869707607374636
 30
0.0
 11
-0.23058064615354687
 21
-0.8699612437456125
 31
0.0
 40
0.6595514846478426
 41
3.141592653589793
 42
6.283185307179586
  0
ELLIPSE
  5
4C
330
17
100
AcDbEntity
  8
visible
100
AcDbEllipse
 10
9.415408590710683
 20
-3.9869707607374636
 30
0.0
 11
-0.23058064615354687
 21
-0.8699612437456125
 31
0.0
 40
0.6595514846478426
 41
0.0
 42
0.3821083694054339
  0
ELLIPSE
  5
4D
330
17
100
AcDbEntity
  8
visible
100
AcDbEllipse
 10
16.28631502057862
 20
18.207745045057735
 30
0.0
 11
-0.23058064615354687
 21
-0.8699612437456125
 31
0.0
 40
0.6595514846478426
 41
0.3821083694054338
 42
3.141592653589793
  0
ELLIPSE
  5
4E
330
17
100
AcDbEntity
  8
visible
100
AcDbEllipse
 10
16.28631502057862
 20
18.207745045057735
 30
0.0
 11
-0.23058064615354687
 21
-0.8699612437456125
 31
0.0
 40
0.6595514846478426
 41
3.141592653589793
 42
6.283185307179586
  0
ELLIPSE
  5
4F
330
17
100
AcDbEntity
  8
visible
100
AcDbEllipse
 10
16.28631502057862
 20
18.207745045057735
 30
0.0
 11
-0.23058064615354687
 21
-0.8699612437456125
 31
0.0
 40
0.6595514846478426
 41
0.0
 42
0.3821083694054339
  0
ELLIPSE
  5
50
330
17
100
AcDbEntity
  8
visible
100
AcDbEllipse
 10
9.415408590710683
 20
4.652301833671416
 30
0.0
 11
-1.1529032307677343
 21
-4.349806218728062
 31
0.0
 40
0.6595514846478426
 41
0.3821083694054338
 42
3.141592653589793
  0
ELLIPSE
  5
51
330
17
100
AcDbEntity
  8
visible
100
AcDbEllipse
 10
9.415408590710683
 20
4.652301833671416
 30
0.0
 11
-1.1529032307677343
 21
-4.349806218728062
 31
0.0
 40
0.6595514846478426
 41
3.141592653589793
 42
6.283185307179586
  0
ELLIPSE
  5
52
330
17
100
AcDbEntity
  8
visible
100
AcDbEllipse
 10
9.415408590710683
 20
4.652301833671416
 30
0.0
 11
-1.1529032307677343
 21
-4.349806218728062
 31
0.0
 40
0.6595514846478426
 41
0.0
 42
0.3821083694054339
  0
ELLIPSE
  5
53
330
17
100
AcDbEntity
  8
visible
100
AcDbEllipse
 10
9.415408590710683
 20
13.291574428080295
 30
0.0
 11
-0.23058064615354687
 21
-0.8699612437456125
 31
0.0
 40
0.6595514846478426
 41
0.3821083694054338
 42
3.141592653589793
  0
ELLIPSE
  5
54
330
17
100
AcDbEntity
  8
visible
100
AcDbEllipse
 10
9.415408590710683
 20
13.291574428080295
 30
0.0
 11
-0.23058064615354687
 21
-0.8699612437456125
 31
0.0
 40
0.6595514846478426
 41
3.141592653589793
 42
6.283185307179586
  0
ELLIPSE
  5
55
330
17
100
AcDbEntity
  8
visible
100
AcDbEllipse
 10
9.415408590710683
 20
13.291574428080295
 30
0.0
 11
-0.23058064615354687
 21
-0.8699612437456125
 31
0.0
 40
0.6595514846478426
 41
0.0
 42
0.3821083694054339
  0
ELLIPSE
  5
56
330
17
100
AcDbEntity
  8
visible
100
AcDbEllipse
 10
2.5445021608427467
 20
-23.781888623641308
 30
0.0
 11
-0.23058064615354687
 21
-0.8699612437456125
 31
0.0
 40
0.6595514846478426
 41
0.3821083694054338
 42
3.141592653589793
  0
ELLIPSE
  5
57
330
17
100
AcDbEntity
  8
visible
100
AcDbEllipse
 10
2.5445021608427467
 20
-23.781888623641308
 30
0.0
 11
-0.23058064615354687
 21
-0.8699612437456125
 31
0.0
 40
0.6595514846478426
 41
3.141592653589793
 42
6.283185307179586
  0
ELLIPSE
  5
58
330
17
100
AcDbEntity
  8
visible
100
AcDbEllipse
 10
2.5445021608427467
 20
-23.781888623641308
 30
0.0
 11
-0.23058064615354687
 21
-0.8699612437456125
 31
0.0
 40
0.6595514846478426
 41
0.0
 42
0.3821083694054339
  0
ELLIPSE
  5
59
330
17
100
AcDbEntity
  8
visible
100
AcDbEllipse
 10
2.5445021608427467
 20
14.134918874042114
 30
0.0
 11
-0.23058064615354687
 21
-0.8699612437456125
 31
0.0
 40
0.6595514846478426
 41
0.3821083694054338
 42
3.141592653589793
  0
ELLIPSE
  5
5A
330
17
100
AcDbEntity
  8
visible
100
AcDbEllipse
 10
2.5445021608427467
 20
14.134918874042114
 30
0.0
 11
-0.23058064615354687
 21
-0.8699612437456125
 31
0.0
 40
0.6595514846478426
 41
3.141592653589793
 42
6.283185307179586
  0
ELLIPSE
  5
5B
330
17
100
AcDbEntity
  8
visible
100
AcDbEllipse
 10
2.5445021608427467
 20
14.134918874042114
 30
0.0
 11
-0.23058064615354687
 21
-0.8699612437456125
 31
0.0
 40
0.6595514846478426
 41
0.0
 42
0.3821083694054339
  0
ELLIPSE
  5
5C
330
17
100
AcDbEntity
  8
visible
100
AcDbEllipse
 10
5.055978336707323
 20
5.807755886430755
 30
0.0
 11
-2.088035851279341
 21
-7.877982373918602
 31
0.0
 40
0.6595514846478426
 41
1.0097477059385327
 42
2.131844947651258
  0
SPLINE
  5
5D
330
17
100
AcDbEntity
  8
visible
100
AcDbSpline
 70
0
 71
3
 72
8
 73
4
 74
0
 40
0.0
 40
0.0
 40
0.0
 40
0.0
 40
0.3364659689172451
 40
0.3364659689172451
 40
0.3364659689172451
 40
0.3364659689172451
 10
20.211760775827436
 20
-26.008194053148173
 30
0.0
 10
20.305070924819262
 20
-25.871471507690128
 30
0.0
 10
20.38568493944748
 20
-25.75434841553001
 30
0.0
 10
20.440556144261794
 20
-25.631990521146577
 30
0.0
  0
SPLINE
  5
5E
330
17
100
AcDbEntity
  8
visible
100
AcDbSpline
 70
0
 71
3
 72
8
 73
4
 74
0
 40
0.0
 40
0.0
 40
0.0
 40
0.0
 40
0.653940455142405
 40
0.653940455142405
 40
0.653940455142405
 40
0.653940455142405
 10
22.60754893605712
 20
-7.7564110538148014
 30
0.0
 10
22.742199238142614
 20
-7.568324538291351
 30
0.0
 10
22.82614763822011
 20
-7.361299617917943
 30
0.0
 10
22.826291568854874
 20
-7.205526040214234
 30
0.0
  0
SPLINE
  5
5F
330
17
100
AcDbEntity
  8
visible
100
AcDbSpline
 70
0
 71
3
 72
8
 73
4
 74
0
 40
0.0
 40
0.0
 40
0.0
 40
0.0
 40
0.6539404551486132
 40
0.6539404551486132
 40
0.6539404551486132
 40
0.6539404551486132
 10
22.60754893605712
 20
-11.596087762440973
 30
0.0
 10
22.742199238142742
 20
-11.704503673662044
 30
0.0
 10
22.826147638220053
 20
-11.802376356190814
 30
0.0
 10
22.826291568854863
 20
-11.83885169530671
 30
0.0
  0
SPLINE
  5
60
330
17
100
AcDbEntity
  8
visible
100
AcDbSpline
 70
0
 71
3
 72
8
 73
4
 74
0
 40
0.0
 40
0.0
 40
0.0
 40
0.0
 40
1.0
 40
1.0
 40
1.0
 40
1.0
 10
22.572520989552338
 20
-18.33711098032228
 30
0.0
 10
22.549696024742456
 20
-18.496969277720154
 30
0.0
 10
22.44041499394605
 20
-18.703137681934777
 30
0.0
 10
22.283529997691662
 20
-18.891514975827477
 30
0.0
  0
ELLIPSE
  5
61
330
17
100
AcDbEntity
  8
visible
100
AcDbEllipse
 10
19.14051086831214
 20
-32.16764768512677
 30
0.0
 11
0.22733110406285553
 21
-0.7670205793364109
 31
0.0
 40
0.6974501170490401
 41
-6.283185307179585
 42
-5.114217989189061
  0
ELLIPSE
  5
62
330
17
100
AcDbEntity
  8
visible
100
AcDbEllipse
 10
-1.4722084212916684
 20
-38.276886941650204
 30
0.0
 11
0.22733110406285553
 21
-0.7670205793364109
 31
0.0
 40
0.6974501170490401
 41
-6.283185307179585
 42
-5.114217989189061
  0
SPLINE
  5
63
330
17
100
AcDbEntity
  8
visible
100
AcDbSpline
 70
0
 71
2
 72
6
 73
3
 74
0
 40
0.0
 40
0.0
 40
0.0
 40
1.0
 40
1.0
 40
1.0
 10
20.211760775827397
 20
-26.008194053148102
 30
0.0
 10
19.998523186209173
 20
-26.330491865469796
 30
0.0
 10
19.72176823551259
 20
-26.62202164217521
 30
0.0
  0
SPLINE
  5
64
330
17
100
AcDbEntity
  8
visible
100
AcDbSpline
 70
0
 71
3
 72
8
 73
4
 74
0
 40
0.0
 40
0.0
 40
0.0
 40
0.0
 40
1.0
 40
1.0
 40
1.0
 40
1.0
 10
21.371719279717684
 20
-23.303915008241596
 30
0.0
 10
21.3876746518241
 20
-23.259722912247746
 30
0.0
 10
21.34636546825875
 20
-23.155110520577207
 30
0.0
 10
21.25143334158151
 20
-23.037086613700605
 30
0.0
  0
LINE
  5
65
330
17
100
AcDbEntity
  8
visible
100
AcDbLine
 10
15.858412434077271
 20
-20.459575401261823
 30
0.0
 11
16.28631502057862
 21
-20.572989712066576
 31
0.0
  0
ELLIPSE
  5
66
330
17
100
AcDbEntity
  8
visible
100
AcDbEllipse
 10
8.688836881710124
 20
4.844877509131308
 30
0.0
 11
-1.1529032307677343
 21
-4.349806218728062
 31
0.0
 40
0.6595514846478426
 41
0.3821083694054338
 42
3.0146237446128814
  0
ELLIPSE
  5
67
330
17
100
AcDbEntity
  8
visible
100
AcDbEllipse
 10
8.688836881710124
 20
4.844877509131308
 30
0.0
 11
-1.1529032307677343
 21
-4.349806218728062
 31
0.0
 40
0.6595514846478426
 41
0.1269689089769166
 42
0.3821083694054339
  0
LINE
  5
68
330
17
100
AcDbEntity
  8
visible
100
AcDbLine
 10
8.869361623544384
 20
12.724273952458086
 30
0.0
 11
8.882216563568656
 21
12.72086678875008
 31
0.0
  0
ELLIPSE
  5
69
330
17
100
AcDbEntity
  8
visible
100
AcDbEllipse
 10
8.688836881710124
 20
13.484150103540188
 30
0.0
 11
-0.23058064615354687
 21
-0.8699612437456125
 31
0.0
 40
0.6595514846478426
 41
0.68560340779477
 42
0.700162650407389
  0
LINE
  5
6A
330
17
100
AcDbEntity
  8
visible
100
AcDbLine
 10
2.116599574341407
 20
-24.532401572277443
 30
0.0
 11
2.544502160842746
 21
-24.645815883082197
 31
0.0
  0
LINE
  5
6B
330
17
100
AcDbEntity
  8
visible
100
AcDbLine
 10
22.826291568856675
 20
-6.061444823726446
 30
0.0
 11
23.60344756716256
 21
-6.267427714964157
 31
0.0
  0
LINE
  5
6C
330
17
100
AcDbEntity
  8
visible
100
AcDbLine
 10
22.826291568856682
 20
-6.49776277491364
 30
0.0
 11
23.603447567162565
 21
-6.267427714964146
 31
0.0
  0
LINE
  5
6D
330
17
100
AcDbEntity
  8
visible
100
AcDbLine
 10
22.720678030412255
 20
-17.072522806056956
 30
0.0
 11
23.60344756716256
 21
-17.30649825226439
 31
0.0
  0
LINE
  5
6E
330
17
100
AcDbEntity
  8
visible
100
AcDbLine
 10
22.66839399362921
 20
-17.583631313561327
 30
0.0
 11
23.603447567162565
 21
-17.30649825226438
 31
0.0
  0
LINE
  5
6F
330
17
100
AcDbEntity
  8
visible
100
AcDbLine
 10
-4.907661636225636
 20
-22.784483637311578
 30
0.0
 11
-8.104577155828103
 21
-21.93715066528807
 31
0.0
  0
LINE
  5
70
330
17
100
AcDbEntity
  8
visible
100
AcDbLine
 10
-4.90766163622564
 20
-22.78448363731158
 30
0.0
 11
-4.90766163622564
 21
8.412889620276044
 31
0.0
  0
LINE
  5
71
330
17
100
AcDbEntity
  8
visible
100
AcDbLine
 10
-8.10457715582811
 20
-21.937150665288073
 30
0.0
 11
-8.10457715582811
 21
9.260222592299552
 31
0.0
  0
LINE
  5
72
330
17
100
AcDbEntity
  8
visible
100
AcDbLine
 10
-4.907661636225636
 20
8.412889620276035
 30
0.0
 11
-8.104577155828103
 21
9.260222592299547
 31
0.0
  0
ELLIPSE
  5
73
330
17
100
AcDbEntity
  8
visible
100
AcDbEllipse
 10
7.459969937536648
 20
-19.11894008339752
 30
0.0
 11
4.6116129230709415
 21
17.399224874912246
 31
0.0
 40
0.6595514846478426
 41
-4.330280610979255
 42
-3.7338186705179215
  0
ELLIPSE
  5
74
330
17
100
AcDbEntity
  8
visible
100
AcDbEllipse
 10
4.263054417934182
 20
-18.27160711137401
 30
0.0
 11
4.6116129230709415
 21
17.399224874912246
 31
0.0
 40
0.6595514846478426
 41
-4.330280610979255
 42
-3.7412496407629816
  0
ELLIPSE
  5
75
330
17
100
AcDbEntity
  8
visible
100
AcDbEllipse
 10
-4.357989121836205
 20
-22.621570590470952
 30
0.0
 11
0.8
 21
1.3878956283555151e-16
 31
0.0
 40
0.2802769582522027
 41
3.9549117741218947
 42
5.525708100916791
  0
ELLIPSE
  5
76
330
17
100
AcDbEntity
  8
visible
100
AcDbEllipse
 10
-4.357989121836205
 20
8.575802667116662
 30
0.0
 11
0.8
 21
0.0
 31
0.0
 40
0.2802769582522025
 41
3.9549117741218947
 42
5.525708100916791
  0
ELLIPSE
  5
77
330
17
100
AcDbEntity
  8
visible
100
AcDbEllipse
 10
-7.554904641438668
 20
-21.774237618447444
 30
0.0
 11
-0.8
 21
-1.3878956283555151e-16
 31
0.0
 40
0.2802769582522027
 41
-6.283185307179586
 42
-5.469866186647485
  0
ELLIPSE
  5
78
330
17
100
AcDbEntity
  8
visible
100
AcDbEllipse
 10
-7.554904641438668
 20
9.42313563914017
 30
0.0
 11
-0.8
 21
-0.0
 31
0.0
 40
0.2802769582522025
 41
-6.283185307179586
 42
-5.469866186647485
  0
ELLIPSE
  5
79
330
17
100
AcDbEntity
  8
visible
100
AcDbEllipse
 10
7.459969937536648
 20
12.078433174190096
 30
0.0
 11
4.6116129230709415
 21
17.399224874912246
 31
0.0
 40
0.6595514846478426
 41
-5.901076937774152
 42
-4.330280610979256
  0
ELLIPSE
  5
7A
330
17
100
AcDbEntity
  8
visible
100
AcDbEllipse
 10
4.263054417934182
 20
12.925766146213604
 30
0.0
 11
4.6116129230709415
 21
17.399224874912246
 31
0.0
 40
0.6595514846478426
 41
-5.901076937774152
 42
-4.330280610979256
  0
LINE
  5
7B
330
17
100
AcDbEntity
  8
visible
100
AcDbLine
 10
7.459969937536649
 20
29.356978363007872
 30
0.0
 11
4.263054417934182
 21
30.20431133503138
 31
0.0
  0
LINE
  5
7C
330
17
100
AcDbEntity
  8
visible
100
AcDbLine
 10
-7.417407453607538
 20
-28.069330001610577
 30
0.0
 11
-10.481697612898618
 21
-28.97753049042048
 31
0.0
  0
ELLIPSE
  5
7D
330
17
100
AcDbEntity
  8
visible
100
AcDbEllipse
 10
-7.43009643509626
 20
-29.786348327352016
 30
0.0
 11
4.2
 21
0.0
 31
0.0
 40
0.2802769582522025
 41
2.3841154473269985
 42
3.954911774121895
  0
LINE
  5
7E
330
17
100
AcDbEntity
  8
visible
100
AcDbLine
 10
-10.315877135640797
 20
-30.641641823265303
 30
0.0
 11
-7.409590299638554
 21
-31.411944525104857
 31
0.0
  0
ELLIPSE
  5
7F
330
17
100
AcDbEntity
  8
visible
100
AcDbEllipse
 10
-4.523809599094022
 20
-30.55665102919157
 30
0.0
 11
4.2
 21
-1.2144086748110754e-16
 31
0.0
 40
0.2802769582522025
 41
3.9549117741218947
 42
5.038404418995368
  0
ELLIPSE
  5
80
330
17
100
AcDbEntity
  8
visible
100
AcDbEllipse
 10
-7.409590299638559
 20
-32.17987986683008
 30
0.0
 11
0.2049605743587085
 21
0.7732988833294332
 31
0.0
 40
0.6595514846478426
 41
-5.901076937774152
 42
-4.330280610979256
  0
ELLIPSE
  5
81
330
17
100
AcDbEntity
  8
visible
100
AcDbEllipse
 10
-4.523809599094022
 20
-31.32458637091679
 30
0.0
 11
5.0
 21
-1.4457246128703278e-16
 31
0.0
 40
0.2802769582522025
 41
3.9549117741218947
 42
5.369585099017134
  0
ELLIPSE
  5
82
330
17
100
AcDbEntity
  8
visible
100
AcDbEllipse
 10
7.459969937536648
 20
28.589043021282635
 30
0.0
 11
0.2273311040628555
 21
-0.7670205793364109
 31
0.0
 40
0.6974501170490401
 41
-5.114217989189061
 42
-3.5434216623941652
  0
ELLIPSE
  5
83
330
17
100
AcDbEntity
  8
visible
100
AcDbEllipse
 10
4.263054417934182
 20
29.436375993306143
 30
0.0
 11
-0.2273311040628555
 21
0.7670205793364109
 31
0.0
 40
0.6974501170490401
 41
5.881356298375215
 42
6.283185307179586
  0
LINE
  5
84
330
17
100
AcDbEntity
  8
visible
100
AcDbLine
 10
7.459969937536648
 20
29.35697836300787
 30
0.0
 11
10.208332509483824
 21
30.171543597210995
 31
0.0
  0
LINE
  5
85
330
17
100
AcDbEntity
  8
visible
100
AcDbLine
 10
4.263054417934182
 20
30.204311335031377
 30
0.0
 11
7.011416989881357
 21
31.018876569234504
 31
0.0
  0
LINE
  5
86
330
17
100
AcDbEntity
  8
visible
100
AcDbLine
 10
10.208332509483826
 20
30.171543597210988
 30
0.0
 11
7.011416989881358
 21
31.018876569234497
 31
0.0
  0
LINE
  5
87
330
17
100
AcDbEntity
  8
visible
100
AcDbLine
 10
-7.959262814027994
 20
-38.48627564747258
 30
0.0
 11
-7.959262814027994
 21
-32.34279291367071
 31
0.0
  0
ELLIPSE
  5
88
330
17
100
AcDbEntity
  8
visible
100
AcDbEllipse
 10
-4.523809599094022
 20
-37.46806910471867
 30
0.0
 11
5.0
 21
-1.4457246128703278e-16
 31
0.0
 40
0.2802769582522025
 41
3.9549117741218947
 42
5.525708100916791
  0
ELLIPSE
  5
89
330
17
100
AcDbEntity
  8
visible
100
AcDbEllipse
 10
16.088909690509787
 20
-25.215347114393353
 30
0.0
 11
5.0
 21
0.0
 31
0.0
 40
0.2802769582522025
 41
5.681831102816445
 42
6.283185307179586
  0
ELLIPSE
  5
8A
330
17
100
AcDbEntity
  8
visible
100
AcDbEllipse
 10
-10.481697612898621
 20
-29.74546583214571
 30
0.0
 11
0.22733110406285553
 21
-0.7670205793364109
 31
0.0
 40
0.6974501170490401
 41
-3.5434216623941652
 42
-3.141592653589793
  0
ELLIPSE
  5
8B
330
17
100
AcDbEntity
  8
visible
100
AcDbEllipse
 10
-7.43009643509626
 20
-30.55428366907725
 30
0.0
 11
5.0
 21
0.0
 31
0.0
 40
0.2802769582522025
 41
3.141592653589793
 42
3.954911774121895
  0
ELLIPSE
  5
8C
330
17
100
AcDbEntity
  8
visible
100
AcDbEllipse
 10
-10.315877135640797
 20
-31.409577164990523
 30
0.0
 11
0.2049605743587085
 21
0.7732988833294332
 31
0.0
 40
0.6595514846478426
 41
-5.901076937774152
 42
-4.330280610979256
  0
LINE
  5
8D
330
17
100
AcDbEntity
  8
visible
100
AcDbLine
 10
-10.865549650030232
 20
-31.572490211831152
 30
0.0
 11
-7.959262814027989
 21
-32.342792913670706
 31
0.0
  0
ELLIPSE
  5
8E
330
17
100
AcDbEntity
  8
visible
100
AcDbEllipse
 10
22.026291568856678
 20
16.39562891546666
 30
0.0
 11
-0.8
 21
-4.6263187611850497e-17
 31
0.0
 40
0.28027695825220256
 41
-3.899069859852588
 42
-3.1415926535897936
  0
ELLIPSE
  5
8F
330
17
100
AcDbEntity
  8
visible
100
AcDbEllipse
 10
10.208332509483824
 20
29.40360825548575
 30
0.0
 11
0.22733110406285553
 21
-0.7670205793364109
 31
0.0
 40
0.6974501170490401
 41
-5.114217989189061
 42
-3.5434216623941652
  0
ELLIPSE
  5
90
330
17
100
AcDbEntity
  8
visible
100
AcDbEllipse
 10
10.208332509483824
 20
12.892998408393225
 30
0.0
 11
4.6116129230709415
 21
17.399224874912246
 31
0.0
 40
0.6595514846478426
 41
-6.283185307179586
 42
-5.901076937774152
  0
ELLIPSE
  5
91
330
17
100
AcDbEntity
  8
visible
100
AcDbEllipse
 10
24.85520752490666
 20
-6.886286243591883
 30
0.0
 11
-0.1420819400392847
 21
0.47938786208525674
 31
0.0
 40
0.6974501170490401
 41
4.310559971580318
 42
5.881356298375215
  0
LINE
  5
92
330
17
100
AcDbEntity
  8
visible
100
AcDbLine
 10
22.826291568856682
 20
-7.007660852250702
 30
0.0
 11
24.85520752490666
 21
-6.406326655013614
 31
0.0
  0
ELLIPSE
  5
93
330
17
100
AcDbEntity
  8
visible
100
AcDbEllipse
 10
24.49192167040638
 20
-10.629675114488109
 30
0.0
 11
1.0
 21
0.0
 31
0.0
 40
0.2802769582522025
 41
5.525708100916791
 42
6.283185307179586
  0
ELLIPSE
  5
94
330
17
100
AcDbEntity
  8
visible
100
AcDbEllipse
 10
24.49192167040638
 20
-6.789998405861937
 30
0.0
 11
1.0
 21
0.0
 31
0.0
 40
0.2802769582522025
 41
5.525708100916791
 42
6.283185307179586
  0
ELLIPSE
  5
95
330
17
100
AcDbEntity
  8
visible
100
AcDbEllipse
 10
24.85520752490666
 20
-10.725962952218055
 30
0.0
 11
0.1420819400392847
 21
-0.47938786208525674
 31
0.0
 40
0.6974501170490401
 41
-6.283185307179586
 42
-5.114217989189061
  0
ELLIPSE
  5
96
330
17
100
AcDbEntity
  8
visible
100
AcDbEllipse
 10
22.026291568856678
 20
-14.801744342120955
 30
0.0
 11
-0.8
 21
-0.0
 31
0.0
 40
0.2802769582522025
 41
-3.899069859852588
 42
-3.1415926535897936
  0
ELLIPSE
  5
97
330
17
100
AcDbEntity
  8
visible
100
AcDbEllipse
 10
24.85520752490666
 20
-17.925356780892116
 30
0.0
 11
-0.1420819400392847
 21
0.47938786208525674
 31
0.0
 40
0.6974501170490401
 41
4.310559971580318
 42
5.881356298375215
  0
LINE
  5
98
330
17
100
AcDbEntity
  8
visible
100
AcDbLine
 10
22.603400162428194
 20
-18.1127923934856
 30
0.0
 11
24.85520752490666
 21
-17.445397192313848
 31
0.0
  0
ELLIPSE
  5
99
330
17
100
AcDbEntity
  8
visible
100
AcDbEllipse
 10
24.49192167040638
 20
-21.668745651788342
 30
0.0
 11
1.0
 21
0.0
 31
0.0
 40
0.2802769582522025
 41
5.525708100916791
 42
6.283185307179586
  0
ELLIPSE
  5
9A
330
17
100
AcDbEntity
  8
visible
100
AcDbEllipse
 10
24.49192167040638
 20
-17.82906894316217
 30
0.0
 11
1.0
 21
0.0
 31
0.0
 40
0.2802769582522025
 41
5.525708100916791
 42
6.283185307179586
  0
ELLIPSE
  5
9B
330
17
100
AcDbEntity
  8
visible
100
AcDbEllipse
 10
16.088909690509787
 20
-31.358829848195228
 30
0.0
 11
5.0
 21
0.0
 31
0.0
 40
0.2802769582522025
 41
5.525708100916791
 42
6.283185307179586
  0
ELLIPSE
  5
9C
330
17
100
AcDbEntity
  8
visible
100
AcDbEllipse
 10
24.85520752490666
 20
-21.765033489518288
 30
0.0
 11
0.1420819400392847
 21
-0.47938786208525674
 31
0.0
 40
0.6974501170490401
 41
-6.283185307179586
 42
-5.114217989189061
  0
ELLIPSE
  5
9D
330
17
100
AcDbEntity
  8
visible
100
AcDbEllipse
 10
7.011416989881358
 20
30.250941227509287
 30
0.0
 11
-0.22733110406285553
 21
0.7670205793364109
 31
0.0
 40
0.6974501170490401
 41
5.881356298375215
 42
6.283185307179586
  0
ELLIPSE
  5
9E
330
17
100
AcDbEntity
  8
visible
100
AcDbEllipse
 10
7.011416989881358
 20
13.740331380416734
 30
0.0
 11
4.6116129230709415
 21
17.399224874912246
 31
0.0
 40
0.6595514846478426
 41
-6.283185307179586
 42
-5.901076937774152
  0
ELLIPSE
  5
9F
330
17
100
AcDbEntity
  8
visible
100
AcDbEllipse
 10
-5.002236053137786
 20
23.85021233603247
 30
0.0
 11
-0.832652333332254
 21
-3.141526713525822
 31
0.0
 40
0.6595514846478425
 41
3.1415926535897936
 42
6.283185307179586
  0
ELLIPSE
  5
A0
330
17
100
AcDbEntity
  8
visible
100
AcDbEllipse
 10
-18.74404891287366
 20
19.77738616501685
 30
0.0
 11
-0.832652333332254
 21
-3.141526713525822
 31
0.0
 40
0.6595514846478425
 41
3.1415926535897936
 42
6.283185307179586
  0
LINE
  5
A1
330
17
100
AcDbEntity
  8
visible
100
AcDbLine
 10
-10.865549650030232
 20
-37.71597294563303
 30
0.0
 11
-7.959262814027989
 21
-38.48627564747258
 31
0.0
  0
LINE
  5
A2
330
17
100
AcDbEntity
  8
visible
100
AcDbLine
 10
-10.865549650030232
 20
-37.71597294563303
 30
0.0
 11
-10.865549650030232
 21
-31.572490211831155
 31
0.0
  0
ELLIPSE
  5
A3
330
17
100
AcDbEntity
  8
visible
100
AcDbEllipse
 10
-7.409590299638559
 20
-38.32336260063195
 30
0.0
 11
-0.2049605743587085
 21
-0.7732988833294332
 31
0.0
 40
0.6595514846478426
 41
5.094497349790124
 42
6.283185307179586
  0
ELLIPSE
  5
A4
330
17
100
AcDbEntity
  8
visible
100
AcDbEllipse
 10
-7.43009643509626
 20
-36.69776640287912
 30
0.0
 11
5.0
 21
0.0
 31
0.0
 40
0.2802769582522025
 41
3.141592653589793
 42
3.954911774121895
  0
ELLIPSE
  5
A5
330
17
100
AcDbEntity
  8
visible
100
AcDbEllipse
 10
24.49192167040638
 20
-6.310038817283669
 30
0.0
 11
0.5
 21
0.0
 31
0.0
 40
0.2802769582522025
 41
5.525708100916791
 42
7.096504427711688
  0
LINE
  5
A6
330
17
100
AcDbEntity
  8
visible
100
AcDbLine
 10
24.83546699189978
 20
-6.208218163008283
 30
0.0
 11
22.82629156885668
 21
-5.675692179107588
 31
0.0
  0
ELLIPSE
  5
A7
330
17
100
AcDbEntity
  8
visible
100
AcDbEllipse
 10
24.83546699189978
 20
-6.688177751586551
 30
0.0
 11
-0.1281003589741928
 21
-0.48331180208089575
 31
0.0
 40
0.6595514846478426
 41
3.141592653589793
 42
3.523701022995227
  0
ELLIPSE
  5
A8
330
17
100
AcDbEntity
  8
visible
100
AcDbEllipse
 10
24.49192167040638
 20
-17.349109354583902
 30
0.0
 11
0.5
 21
0.0
 31
0.0
 40
0.2802769582522025
 41
5.525708100916791
 42
7.096504427711688
  0
LINE
  5
A9
330
17
100
AcDbEntity
  8
visible
100
AcDbLine
 10
24.83546699189978
 20
-17.247288700308516
 30
0.0
 11
22.752627468337632
 21
-16.695238265154256
 31
0.0
  0
ELLIPSE
  5
AA
330
17
100
AcDbEntity
  8
visible
100
AcDbEllipse
 10
24.83546699189978
 20
-17.727248288886784
 30
0.0
 11
-0.1281003589741928
 21
-0.48331180208089575
 31
0.0
 40
0.6595514846478426
 41
3.141592653589793
 42
3.523701022995227
  0
ELLIPSE
  5
AB
330
17
100
AcDbEntity
  8
visible
100
AcDbEllipse
 10
-10.315877135640797
 20
-37.5530598987924
 30
0.0
 11
-0.2049605743587085
 21
-0.7732988833294332
 31
0.0
 40
0.6595514846478426
 41
5.094497349790124
 42
6.283185307179586
  0
LINE
  5
AC
330
17
100
AcDbEntity
  8
visible
100
AcDbLine
 10
-8.354904641438672
 20
-21.774237618447444
 30
0.0
 11
-8.354904641438672
 21
9.423135639140181
 31
0.0
  0
SPLINE
  5
AD
330
17
100
AcDbEntity
  8
visible
100
AcDbSpline
 70
0
 71
3
 72
8
 73
4
 74
0
 40
0.0
 40
0.0
 40
0.0
 40
0.0
 40
1.0
 40
1.0
 40
1.0
 40
1.0
 10
-6.229151012589668
 20
-30.804834707202488
 30
0.0
 10
-7.618344663308164
 20
-28.34993454604471
 30
0.0
 10
-8.358422698795898
 20
-25.16930984773109
 30
0.0
 10
-8.354904641438672
 20
-21.774237618447444
 30
0.0
  0
SPLINE
  5
AE
330
17
100
AcDbEntity
  8
visible
100
AcDbSpline
 70
0
 71
3
 72
17
 73
13
 74
0
 40
0.0
 40
0.0
 40
0.0
 40
0.0
 40
0.23930010187548573
 40
0.23930010187548573
 40
0.23930010187548573
 40
0.49285112906773165
 40
0.49285112906773165
 40
0.49285112906773165
 40
0.6875715745928697
 40
0.6875715745928697
 40
0.6875715745928697
 40
1.0
 40
1.0
 40
1.0
 40
1.0
 10
-8.35490464143867
 20
9.42313563914017
 30
0.0
 10
-8.35556327544096
 20
11.568314576716654
 30
0.0
 10
-8.063250453172111
 20
13.794054889606942
 30
0.0
 10
-7.498655896156093
 20
15.950716770213958
 30
0.0
 10
-6.9018275399487035
 20
18.236227903797044
 30
0.0
 10
-5.999408318598029
 20
20.441921061273945
 30
0.0
 10
-4.858269785270996
 20
22.401100065591514
 30
0.0
 10
-3.9825790476986307
 20
23.906331369592383
 30
0.0
 10
-2.9674193806579607
 20
25.26641090296232
 30
0.0
 10
-1.8555858522707576
 20
26.420332921832994
 30
0.0
 10
-0.07266545353357723
 20
28.27406653745899
 30
0.0
 10
1.9614603421635362
 20
29.590749364902003
 30
0.0
 10
4.035723313871326
 20
30.203396572642532
 30
0.0
  0
SPLINE
  5
AF
330
17
100
AcDbEntity
  8
visible
100
AcDbSpline
 70
0
 71
2
 72
8
 73
5
 74
0
 40
0.0
 40
0.0
 40
0.0
 40
0.2371124978062526
 40
0.2371124978062526
 40
1.0
 40
1.0
 40
1.0
 10
20.895680632521806
 20
-24.574621331043282
 30
0.0
 10
20.95185262073939
 20
-24.661770754857997
 30
0.0
 10
20.993409571189844
 20
-24.757865614069388
 30
0.0
 10
21.0876511904883
 20
-24.97557514263439
 30
0.0
 10
21.088909690509798
 20
-25.215347114393353
 30
0.0
  0
LINE
  5
B0
330
17
100
AcDbEntity
  8
visible
100
AcDbLine
 10
-7.436982092284069
 20
-28.00866948437219
 30
0.0
 11
-10.709028716961466
 21
-28.978445252809312
 31
0.0
  0
SPLINE
  5
B1
330
17
100
AcDbEntity
  8
visible
100
AcDbSpline
 70
0
 71
3
 72
17
 73
13
 74
0
 40
0.0
 40
0.0
 40
0.0
 40
0.0
 40
0.25
 40
0.25
 40
0.25
 40
0.5
 40
0.5
 40
0.5
 40
0.75
 40
0.75
 40
0.75
 40
1.0
 40
1.0
 40
1.0
 40
1.0
 10
-10.70902871696147
 20
-28.97844525280931
 30
0.0
 10
-10.88322385625661
 20
-29.029947135011398
 30
0.0
 10
-11.046097969226686
 20
-29.08661497708543
 30
0.0
 10
-11.197651055871695
 20
-29.148448779031398
 30
0.0
 10
-11.480943381022866
 20
-29.26486765558628
 30
0.0
 10
-11.725220867363817
 20
-29.398501263390894
 30
0.0
 10
-11.930664726869281
 20
-29.570767781875944
 30
0.0
 10
-12.099729238984018
 20
-29.71290996746177
 30
0.0
 10
-12.243525554813527
 20
-29.886800991333875
 30
0.0
 10
-12.333314702835906
 20
-30.093836973394914
 30
0.0
 10
-12.396974113306124
 20
-30.2398179766836
 30
0.0
 10
-12.42923469072624
 20
-30.393300208577696
 30
0.0
 10
-12.430096435096267
 20
-30.554283669077236
 30
0.0
  0
LINE
  5
B2
330
17
100
AcDbEntity
  8
visible
100
AcDbLine
 10
22.82629156885668
 20
16.39562891546666
 30
0.0
 11
22.82629156885668
 21
-7.205526040213748
 31
0.0
  0
SPLINE
  5
B3
330
17
100
AcDbEntity
  8
visible
100
AcDbSpline
 70
0
 71
3
 72
14
 73
10
 74
0
 40
0.0
 40
0.0
 40
0.0
 40
0.0
 40
0.40432580156069853
 40
0.40432580156069853
 40
0.40432580156069853
 40
0.7346249510758054
 40
0.7346249510758054
 40
0.7346249510758054
 40
1.0
 40
1.0
 40
1.0
 40
1.0
 10
14.819945432554766
 20
30.29222328330547
 30
0.0
 10
16.75102237295679
 20
29.784128079059375
 30
0.0
 10
18.47995400688037
 20
28.5617832435151
 30
0.0
 10
19.801599303324515
 20
26.803414181004673
 30
0.0
 10
20.884524242471183
 20
25.36912239199329
 30
0.0
 10
21.703430219600058
 20
23.581321920868458
 30
0.0
 10
22.210594166823107
 20
21.57357173535849
 30
0.0
 10
22.618892943050753
 20
19.96107246480954
 30
0.0
 10
22.82659903114193
 20
18.207380008088602
 30
0.0
 10
22.82629156885668
 20
16.39562891546666
 30
0.0
  0
LINE
  5
B4
330
17
100
AcDbEntity
  8
visible
100
AcDbLine
 10
25.491921670406377
 20
-10.629675114488105
 30
0.0
 11
25.491921670406377
 21
-6.789998405861936
 31
0.0
  0
LINE
  5
B5
330
17
100
AcDbEntity
  8
visible
100
AcDbLine
 10
22.826291568856675
 20
-11.848795543078507
 30
0.0
 11
24.997289464945936
 21
-11.205350814303316
 31
0.0
  0
LINE
  5
B6
330
17
100
AcDbEntity
  8
visible
100
AcDbLine
 10
22.82629156885668
 20
-11.838851695306218
 30
0.0
 11
22.82629156885668
 21
-14.801744342120966
 31
0.0
  0
SPLINE
  5
B7
330
17
100
AcDbEntity
  8
visible
100
AcDbSpline
 70
0
 71
3
 72
8
 73
4
 74
0
 40
0.0
 40
0.0
 40
0.0
 40
0.0
 40
1.0
 40
1.0
 40
1.0
 40
1.0
 10
22.82629156885668
 20
-14.801744342120953
 30
0.0
 10
22.82634829060119
 20
-15.96450650074227
 30
0.0
 10
22.74110879472336
 20
-17.150853804639244
 30
0.0
 10
22.572520992139182
 20
-18.3371109798303
 30
0.0
  0
LINE
  5
B8
330
17
100
AcDbEntity
  8
visible
100
AcDbLine
 10
19.367841972374997
 20
-32.934668264463184
 30
0.0
 11
-1.2448773172288163
 21
-39.04390752098662
 31
0.0
  0
LINE
  5
B9
330
17
100
AcDbEntity
  8
visible
100
AcDbLine
 10
25.491921670406377
 20
-21.66874565178834
 30
0.0
 11
25.491921670406377
 21
-17.82906894316217
 31
0.0
  0
LINE
  5
BA
330
17
100
AcDbEntity
  8
visible
100
AcDbLine
 10
21.088909690509787
 20
-31.35882984819523
 30
0.0
 11
21.088909690509787
 21
-25.215347114393353
 31
0.0
  0
LINE
  5
BB
330
17
100
AcDbEntity
  8
visible
100
AcDbLine
 10
21.365912564500565
 20
-23.320696150854438
 30
0.0
 11
24.997289464945936
 21
-22.24442135160355
 31
0.0
  0
SPLINE
  5
BC
330
17
100
AcDbEntity
  8
visible
100
AcDbSpline
 70
0
 71
2
 72
6
 73
3
 74
0
 40
0.0
 40
0.0
 40
0.0
 40
1.0
 40
1.0
 40
1.0
 10
21.371719284301946
 20
-23.30391501192551
 30
0.0
 10
20.958790492240194
 20
-24.4983490343756
 30
0.0
 10
20.44055614439828
 20
-25.631990521205182
 30
0.0
  0
SPLINE
  5
BD
330
17
100
AcDbEntity
  8
visible
100
AcDbSpline
 70
0
 71
3
 72
8
 73
4
 74
0
 40
0.0
 40
0.0
 40
0.0
 40
0.0
 40
1.0
 40
1.0
 40
1.0
 40
1.0
 10
6.784085885818502
 20
31.017961806845676
 30
0.0
 10
8.419119421245552
 20
31.50434937405748
 30
0.0
 10
10.079226783422527
 20
31.550456263272633
 30
0.0
 10
11.623029912952298
 20
31.139556255328984
 30
0.0
  0
LINE
  5
BE
330
17
100
AcDbEntity
  8
visible
100
AcDbLine
 10
4.035723313871326
 20
30.203396572642532
 30
0.0
 11
6.784085885818501
 21
31.01796180684566
 31
0.0
  0
LINE
  5
BF
330
17
100
AcDbEntity
  8
visible
100
AcDbLine
 10
-1.8876797990861824
 20
26.386927186636235
 30
0.0
 11
-4.16958371980553
 21
26.9917390495583
 31
0.0
  0
LINE
  5
C0
330
17
100
AcDbEntity
  8
visible
100
AcDbLine
 10
-5.764487417464576
 20
20.69002605457785
 30
0.0
 11
-5.834888386470038
 21
20.708685622506675
 31
0.0
  0
LINE
  5
C1
330
17
100
AcDbEntity
  8
visible
100
AcDbLine
 10
-6.168372478509895
 20
19.806459186520172
 30
0.0
 11
-17.911396579541403
 21
22.91891287854268
 31
0.0
  0
LINE
  5
C2
330
17
100
AcDbEntity
  8
visible
100
AcDbLine
 10
-8.007009342375245
 20
13.569346943995003
 30
0.0
 11
-19.576701246205914
 21
16.635859451491054
 31
0.0
  0
LINE
  5
C3
330
17
100
AcDbEntity
  8
visible
100
AcDbLine
 10
11.623029912952298
 20
31.139556255328987
 30
0.0
 11
14.819945432554766
 21
30.29222328330548
 31
0.0
  0
SPLINE
  5
C4
330
17
100
AcDbEntity
  8
visible
100
AcDbSpline
 70
0
 71
3
 72
11
 73
7
 74
0
 40
0.0
 40
0.0
 40
0.0
 40
0.0
 40
0.4798583621507459
 40
0.4798583621507459
 40
0.4798583621507459
 40
1.0
 40
1.0
 40
1.0
 40
1.0
 10
-7.614550873997267
 20
-39.096661483961384
 30
0.0
 10
-6.766772908113566
 20
-39.3221937777092
 30
0.0
 10
-5.659741916595693
 20
-39.444593233784715
 30
0.0
 10
-4.538396153579243
 20
-39.445227063413896
 30
0.0
 10
-3.3219141124785083
 20
-39.44675302972824
 30
0.0
 10
-2.1231976422895857
 20
-39.30531093142973
 30
0.0
 10
-1.2448773172288128
 20
-39.043907520986615
 30
0.0
  0
LINE
  5
C5
330
17
100
AcDbEntity
  8
visible
100
AcDbLine
 10
-12.43009643509626
 20
-36.69776640287912
 30
0.0
 11
-12.43009643509626
 21
-30.554283669077243
 31
0.0
  0
SPLINE
  5
C6
330
17
100
AcDbEntity
  8
visible
100
AcDbSpline
 70
0
 71
3
 72
14
 73
10
 74
0
 40
0.0
 40
0.0
 40
0.0
 40
0.0
 40
0.3333333333333333
 40
0.3333333333333333
 40
0.3333333333333333
 40
0.6666666666666666
 40
0.6666666666666666
 40
0.6666666666666666
 40
1.0
 40
1.0
 40
1.0
 40
1.0
 10
25.491921670406388
 20
-6.789998405861951
 30
0.0
 10
25.49242424700106
 20
-6.6523042190249
 30
0.0
 10
25.437526614552795
 20
-6.515679331641482
 30
0.0
 10
25.341065730342386
 20
-6.4132592239993755
 30
0.0
 10
25.29605116806285
 20
-6.3655644619480105
 30
0.0
 10
25.244723435370513
 20
-6.32552115934681
 30
0.0
 10
25.18708253226527
 20
-6.293129316195746
 30
0.0
 10
25.11686270195159
 20
-6.254325092255664
 30
0.0
 10
25.04235764148784
 20
-6.224903970025639
 30
0.0
 10
24.963567350873966
 20
-6.20486594950566
 30
0.0
  0
SPLINE
  5
C7
330
17
100
AcDbEntity
  8
visible
100
AcDbSpline
 70
0
 71
3
 72
14
 73
10
 74
0
 40
0.0
 40
0.0
 40
0.0
 40
0.0
 40
0.5588476217003046
 40
0.5588476217003046
 40
0.5588476217003046
 40
0.7794238108501522
 40
0.7794238108501522
 40
0.7794238108501522
 40
1.0
 40
1.0
 40
1.0
 40
1.0
 10
24.99728946494594
 20
-11.205350814303316
 30
0.0
 10
25.06341652437792
 20
-11.186309315371622
 30
0.0
 10
25.126370088504622
 20
-11.160216568428122
 30
0.0
 10
25.186150157326004
 20
-11.127072573472818
 30
0.0
 10
25.244186088829352
 20
-11.094574800263828
 30
0.0
 10
25.29584475439363
 20
-11.054333802881724
 30
0.0
 10
25.341126154018827
 20
-11.006349581326505
 30
0.0
 10
25.437550275263014
 20
-10.903937131998173
 30
0.0
 10
25.492423800511226
 20
-10.767340202035577
 30
0.0
 10
25.491921670406388
 20
-10.629675114488123
 30
0.0
  0
SPLINE
  5
C8
330
17
100
AcDbEntity
  8
visible
100
AcDbSpline
 70
0
 71
3
 72
14
 73
10
 74
0
 40
0.0
 40
0.0
 40
0.0
 40
0.0
 40
0.3333333333333333
 40
0.3333333333333333
 40
0.3333333333333333
 40
0.6666666666666666
 40
0.6666666666666666
 40
0.6666666666666666
 40
1.0
 40
1.0
 40
1.0
 40
1.0
 10
25.491921670406388
 20
-17.829068943162184
 30
0.0
 10
25.49242424700106
 20
-17.691374756325125
 30
0.0
 10
25.437526614552795
 20
-17.554749868941734
 30
0.0
 10
25.341065730342386
 20
-17.45232976129961
 30
0.0
 10
25.29605116806285
 20
-17.404634999248234
 30
0.0
 10
25.244723435370513
 20
-17.364591696647054
 30
0.0
 10
25.18708253226527
 20
-17.33219985349598
 30
0.0
 10
25.11686270195159
 20
-17.293395629555913
 30
0.0
 10
25.04235764148784
 20
-17.263974507325887
 30
0.0
 10
24.963567350873966
 20
-17.243936486805893
 30
0.0
  0
SPLINE
  5
C9
330
17
100
AcDbEntity
  8
visible
100
AcDbSpline
 70
0
 71
3
 72
17
 73
13
 74
0
 40
0.0
 40
0.0
 40
0.0
 40
0.0
 40
0.25
 40
0.25
 40
0.25
 40
0.5
 40
0.5
 40
0.5
 40
0.75
 40
0.75
 40
0.75
 40
1.0
 40
1.0
 40
1.0
 40
1.0
 10
19.367841972374997
 20
-32.93466826446317
 30
0.0
 10
19.542037111670123
 20
-32.88316638226106
 30
0.0
 10
19.704911224640217
 20
-32.826498540187075
 30
0.0
 10
19.856464311285222
 20
-32.764664738241095
 30
0.0
 10
20.13975663643639
 20
-32.64824586168619
 30
0.0
 10
20.38403412277735
 20
-32.51461225388161
 30
0.0
 10
20.589477982282812
 20
-32.342345735396535
 30
0.0
 10
20.758542494397542
 20
-32.200203549810695
 30
0.0
 10
20.90233881022705
 20
-32.026312525938586
 30
0.0
 10
20.992127958249434
 20
-31.819276543877564
 30
0.0
 10
21.055787368719653
 20
-31.673295540588875
 30
0.0
 10
21.088047946139763
 20
-31.51981330869479
 30
0.0
 10
21.088909690509794
 20
-31.358829848195228
 30
0.0
  0
SPLINE
  5
CA
330
17
100
AcDbEntity
  8
visible
100
AcDbSpline
 70
0
 71
3
 72
14
 73
10
 74
0
 40
0.0
 40
0.0
 40
0.0
 40
0.0
 40
0.5588476217003046
 40
0.5588476217003046
 40
0.5588476217003046
 40
0.7794238108501522
 40
0.7794238108501522
 40
0.7794238108501522
 40
1.0
 40
1.0
 40
1.0
 40
1.0
 10
24.99728946494594
 20
-22.24442135160355
 30
0.0
 10
25.06341652437792
 20
-22.225379852671846
 30
0.0
 10
25.126370088504622
 20
-22.19928710572837
 30
0.0
 10
25.186150157326004
 20
-22.166143110773053
 30
0.0
 10
25.244186088829352
 20
-22.13364533756406
 30
0.0
 10
25.29584475439363
 20
-22.093404340181948
 30
0.0
 10
25.341126154018827
 20
-22.04542011862674
 30
0.0
 10
25.437550275263014
 20
-21.943007669298414
 30
0.0
 10
25.492423800511226
 20
-21.80641073933583
 30
0.0
 10
25.491921670406388
 20
-21.668745651788356
 30
0.0
  0
SPLINE
  5
CB
330
17
100
AcDbEntity
  8
visible
100
AcDbSpline
 70
0
 71
3
 72
23
 73
19
 74
0
 40
0.0
 40
0.0
 40
0.0
 40
0.0
 40
0.2042282023887861
 40
0.2042282023887861
 40
0.2042282023887861
 40
0.3447465695632608
 40
0.3447465695632608
 40
0.3447465695632608
 40
0.5593728354756812
 40
0.5593728354756812
 40
0.5593728354756812
 40
0.7842671310080471
 40
0.7842671310080471
 40
0.7842671310080471
 40
0.9275073121251862
 40
0.9275073121251862
 40
0.9275073121251862
 40
1.0
 40
1.0
 40
1.0
 40
1.0
 10
-4.16958371980553
 20
26.99173904955828
 30
0.0
 10
-4.5973584727570636
 20
27.106283525267898
 30
0.0
 10
-5.068861531029438
 20
27.040533236648535
 30
0.0
 10
-5.504264440813388
 20
26.810574930039802
 30
0.0
 10
-5.804305285361502
 20
26.653260327698124
 30
0.0
 10
-6.088434520981351
 20
26.420213640965006
 30
0.0
 10
-6.33834209726737
 20
26.129205090268336
 30
0.0
 10
-6.720673190551927
 20
25.68554988033504
 30
0.0
 10
-7.021305579352992
 20
25.10468195156941
 30
0.0
 10
-7.192361307566531
 20
24.484191709775857
 30
0.0
 10
-7.373079068976682
 20
23.83437492585811
 30
0.0
 10
-7.409911267000911
 20
23.145262308017656
 30
0.0
 10
-7.293632987679562
 20
22.542078099687927
 30
0.0
 10
-7.220297227932637
 20
22.15761765006028
 30
0.0
 10
-7.086177778829958
 20
21.807639248128762
 30
0.0
 10
-6.898813389104752
 20
21.518090978554362
 30
0.0
 10
-6.634825679055791
 20
21.10746658350286
 30
0.0
 10
-6.260106590585635
 20
20.820255825317094
 30
0.0
 10
-5.834888386470034
 20
20.708685622506664
 30
0.0
  0
SPLINE
  5
CC
330
17
100
AcDbEntity
  8
visible
100
AcDbSpline
 70
0
 71
3
 72
23
 73
19
 74
0
 40
0.0
 40
0.0
 40
0.0
 40
0.0
 40
0.2042282023887897
 40
0.2042282023887897
 40
0.2042282023887897
 40
0.34474656956325894
 40
0.34474656956325894
 40
0.34474656956325894
 40
0.5593728354756711
 40
0.5593728354756711
 40
0.5593728354756711
 40
0.7842671310080407
 40
0.7842671310080407
 40
0.7842671310080407
 40
0.9275073121251804
 40
0.9275073121251804
 40
0.9275073121251804
 40
1.0
 40
1.0
 40
1.0
 40
1.0
 10
-17.911396579541403
 20
22.91891287854266
 30
0.0
 10
-18.339171332492885
 20
23.03345735425228
 30
0.0
 10
-18.81067439076531
 20
22.967707065632904
 30
0.0
 10
-19.24607730054926
 20
22.737748759024168
 30
0.0
 10
-19.546118145097385
 20
22.580434156682475
 30
0.0
 10
-19.83024738071722
 20
22.34738746994938
 30
0.0
 10
-20.08015495700324
 20
22.056378919252715
 30
0.0
 10
-20.46248605028781
 20
21.61272370931943
 30
0.0
 10
-20.76311843908887
 20
21.03185578055376
 30
0.0
 10
-20.9341741673024
 20
20.411365538760226
 30
0.0
 10
-21.114891928712556
 20
19.76154875484248
 30
0.0
 10
-21.151724126736788
 20
19.07243613700204
 30
0.0
 10
-21.03544584741544
 20
18.469251928672307
 30
0.0
 10
-20.96211008766854
 20
18.084791479044657
 30
0.0
 10
-20.827990638565822
 20
17.734813077113127
 30
0.0
 10
-20.640626248840626
 20
17.445264807538734
 30
0.0
 10
-20.37663853879168
 20
17.034640412487214
 30
0.0
 10
-20.001919450321513
 20
16.747429654301502
 30
0.0
 10
-19.576701246205914
 20
16.63585945149103
 30
0.0
  0
LINE
  5
CD
330
17
100
AcDbEntity
  8
visible
100
AcDbLine
 10
-10.520837709999505
 20
-38.32635878212183
 30
0.0
 11
-7.614550873997265
 21
-39.096661483961384
 31
0.0
  0
SPLINE
  5
CE
330
17
100
AcDbEntity
  8
visible
100
AcDbSpline
 70
0
 71
3
 72
17
 73
13
 74
0
 40
0.0
 40
0.0
 40
0.0
 40
0.0
 40
0.25
 40
0.25
 40
0.25
 40
0.5
 40
0.5
 40
0.5
 40
0.75
 40
0.75
 40
0.75
 40
1.0
 40
1.0
 40
1.0
 40
1.0
 10
-12.430096435096267
 20
-36.69776640287911
 30
0.0
 10
-12.429298092173802
 20
-36.855529068763396
 30
0.0
 10
-12.398243112424444
 20
-37.00620317718102
 30
0.0
 10
-12.33693149584817
 20
-37.14978872813204
 30
0.0
 10
-12.247554071185544
 20
-37.36022761794278
 30
0.0
 10
-12.102306246981815
 20
-37.53688755442822
 30
0.0
 10
-11.93119220656419
 20
-37.68083780986309
 30
0.0
 10
-11.725710725294547
 20
-37.85326425943437
 30
0.0
 10
-11.481348550095516
 20
-37.986991089380496
 30
0.0
 10
-11.197935868271749
 20
-38.10348478116341
 30
0.0
 10
-10.992813900563757
 20
-38.18705005328148
 30
0.0
 10
-10.767114514473016
 20
-38.26134138693431
 30
0.0
 10
-10.520837709999505
 20
-38.32635878212183
 30
0.0
  0
LINE
  5
CF
330
17
100
AcDbEntity
  8
visible
100
AcDbLine
 10
24.96356735087397
 20
-6.20486594950566
 30
0.0
 11
22.82629156885668
 21
-5.6383873455806555
 31
0.0
  0
LINE
  5
D0
330
17
100
AcDbEntity
  8
visible
100
AcDbLine
 10
24.96356735087397
 20
-17.243936486805893
 30
0.0
 11
22.755422570808545
 21
-16.65867426524312
 31
0.0
  0
ENDSEC
  0
SECTION
  2
OBJECTS
  0
DICTIONARY
  5
A
330
0
100
AcDbDictionary
281
1
  3
ACAD_COLOR
350
B
  3
ACAD_GROUP
350
C
  3
ACAD_LAYOUT
350
D
  3
ACAD_MATERIAL
350
E
  3
ACAD_MLEADERSTYLE
350
F
  3
ACAD_MLINESTYLE
350
10
  3
ACAD_PLOTSETTINGS
350
11
  3
ACAD_PLOTSTYLENAME
350
12
  3
ACAD_SCALELIST
350
14
  3
ACAD_TABLESTYLE
350
15
  3
ACAD_VISUALSTYLE
350
16
  3
EZDXF_META
350
2D
  0
DICTIONARY
  5
B
330
A
100
AcDbDictionary
281
1
  0
DICTIONARY
  5
C
330
A
100
AcDbDictionary
281
1
  0
DICTIONARY
  5
D
330
A
100
AcDbDictionary
281
1
  3
Model
350
1A
  3
Layout1
350
1E
  0
DICTIONARY
  5
E
330
A
100
AcDbDictionary
281
1
  3
ByBlock
350
1F
  3
ByLayer
350
20
  3
Global
350
21
  0
DICTIONARY
  5
F
330
A
100
AcDbDictionary
281
1
  3
Standard
350
2C
  0
DICTIONARY
  5
10
330
A
100
AcDbDictionary
281
1
  3
Standard
350
22
  0
DICTIONARY
  5
11
330
A
100
AcDbDictionary
281
1
  0
ACDBDICTIONARYWDFLT
  5
12
330
A
100
AcDbDictionary
281
1
  3
Normal
350
13
100
AcDbDictionaryWithDefault
340
13
  0
ACDBPLACEHOLDER
  5
13
330
12
  0
DICTIONARY
  5
14
330
A
100
AcDbDictionary
281
1
  0
DICTIONARY
  5
15
330
A
100
AcDbDictionary
281
1
  0
DICTIONARY
  5
16
330
A
100
AcDbDictionary
281
1
  0
LAYOUT
  5
1A
330
D
100
AcDbPlotSettings
  1

  4
A3
  6

 40
7.5
 41
20.0
 42
7.5
 43
20.0
 44
420.0
 45
297.0
 46
0.0
 47
0.0
 48
0.0
 49
0.0
140
0.0
141
0.0
142
1.0
143
1.0
 70
1024
 72
1
 73
0
 74
5
  7

 75
16
 76
0
 77
2
 78
300
147
1.0
148
0.0
149
0.0
100
AcDbLayout
  1
Model
 70
1
 71
0
 10
0.0
 20
0.0
 11
420.0
 21
297.0
 12
0.0
 22
0.0
 32
0.0
 14
1e+20
 24
1e+20
 34
1e+20
 15
-1e+20
 25
-1e+20
 35
-1e+20
146
0.0
 13
0.0
 23
0.0
 33
0.0
 16
1.0
 26
0.0
 36
0.0
 17
0.0
 27
1.0
 37
0.0
 76
1
330
17
  0
LAYOUT
  5
1E
330
D
100
AcDbPlotSettings
  1

  4
A3
  6

 40
7.5
 41
20.0
 42
7.5
 43
20.0
 44
420.0
 45
297.0
 46
0.0
 47
0.0
 48
0.0
 49
0.0
140
0.0
141
0.0
142
1.0
143
1.0
 70
0
 72
1
 73
0
 74
5
  7

 75
16
 76
0
 77
2
 78
300
147
1.0
148
0.0
149
0.0
100
AcDbLayout
  1
Layout1
 70
1
 71
1
 10
0.0
 20
0.0
 11
420.0
 21
297.0
 12
0.0
 22
0.0
 32
0.0
 14
1e+20
 24
1e+20
 34
1e+20
 15
-1e+20
 25
-1e+20
 35
-1e+20
146
0.0
 13
0.0
 23
0.0
 33
0.0
 16
1.0
 26
0.0
 36
0.0
 17
0.0
 27
1.0
 37
0.0
 76
1
330
1B
  0
MATERIAL
  5
1F
102
{ACAD_REACTORS
330
E
102
}
330
E
100
AcDbMaterial
  1
ByBlock
  2

 70
0
 40
1.0
 71
1
 41
1.0
 91
-1023410177
 42
1.0
 72
1
  3

 73
1
 74
1
 75
1
 44
0.5
 73
0
 45
1.0
 46
1.0
 77
1
  4

 78
1
 79
1
170
1
 48
1.0
171
1
  6

172
1
173
1
174
1
140
1.0
141
1.0
175
1
  7

176
1
177
1
178
1
143
1.0
179
1
  8

270
1
271
1
272
1
145
1.0
146
1.0
273
1
  9

274
1
275
1
276
1
 42
1.0
 72
1
  3

 73
1
 74
1
 75
1
 94
63
  0
MATERIAL
  5
20
102
{ACAD_REACTORS
330
E
102
}
330
E
100
AcDbMaterial
  1
ByLayer
  2

 70
0
 40
1.0
 71
1
 41
1.0
 91
-1023410177
 42
1.0
 72
1
  3

 73
1
 74
1
 75
1
 44
0.5
 73
0
 45
1.0
 46
1.0
 77
1
  4

 78
1
 79
1
170
1
 48
1.0
171
1
  6

172
1
173
1
174
1
140
1.0
141
1.0
175
1
  7

176
1
177
1
178
1
143
1.0
179
1
  8

270
1
271
1
272
1
145
1.0
146
1.0
273
1
  9

274
1
275
1
276
1
 42
1.0
 72
1
  3

 73
1
 74
1
 75
1
 94
63
  0
MATERIAL
  5
21
102
{ACAD_REACTORS
330
E
102
}
330
E
100
AcDbMaterial
  1
Global
  2

 70
0
 40
1.0
 71
1
 41
1.0
 91
-1023410177
 42
1.0
 72
1
  3

 73
1
 74
1
 75
1
 44
0.5
 73
0
 45
1.0
 46
1.0
 77
1
  4

 78
1
 79
1
170
1
 48
1.0
171
1
  6

172
1
173
1
174
1
140
1.0
141
1.0
175
1
  7

176
1
177
1
178
1
143
1.0
179
1
  8

270
1
271
1
272
1
145
1.0
146
1.0
273
1
  9

274
1
275
1
276
1
 42
1.0
 72
1
  3

 73
1
 74
1
 75
1
 94
63
  0
MLINESTYLE
  5
22
102
{ACAD_REACTORS
330
10
102
}
330
10
100
AcDbMlineStyle
  2
Standard
 70
0
  3

 62
256
 51
90.0
 52
90.0
 71
2
 49
0.5
 62
256
  6
BYLAYER
 49
-0.5
 62
256
  6
BYLAYER
  0
MLEADERSTYLE
  5
2C
102
{ACAD_REACTORS
330
F
102
}
330
F
100
AcDbMLeaderStyle
179
2
170
2
171
1
172
0
 90
2
 40
0.0
 41
0.0
173
1
 91
-1056964608
 92
-2
290
1
 42
2.0
291
1
 43
8.0
  3
Standard
 44
4.0
300

342
29
174
1
175
1
176
0
178
1
 93
-1056964608
 45
4.0
292
0
297
0
 46
4.0
 94
-1056964608
 47
1.0
 49
1.0
140
1.0
294
1
141
0.0
177
0
142
1.0
295
0
296
0
143
3.75
271
0
272
9
273
9
  0
DICTIONARY
  5
2D
330
A
100
AcDbDictionary
280
1
281
1
  3
CREATED_BY_EZDXF
350
2E
  3
WRITTEN_BY_EZDXF
350
D4
  0
DICTIONARYVAR
  5
2E
330
2D
100
DictionaryVariables
280
0
  1
1.4.4 @ 2026-10-03T13:32:16.864038+00:00
  0
DICTIONARYVAR
  5
D4
330
2D
100
DictionaryVariables
280
0
  1
1.4.4 @ 2026-10-03T13:32:16.900411+00:00
  0
ENDSEC
  0
EOF
