  0
SECTION
  2
HEADER
  9
$ACADVER
  1
AC1027
  9
$ACADMAINTVER
 70
105
  9
$DWGCODEPAGE
  3
ANSI_1252
  9
$LASTSAVEDBY
  1
ezdxf
  9
$REQUIREDVERSIONS
160
0
  9
$INSBASE
 10
0.0
 20
0.0
 30
0.0
  9
$EXTMIN
 10
1e+20
 20
1e+20
 30
1e+20
  9
$EXTMAX
 10
-1e+20
 20
-1e+20
 30
-1e+20
  9
$LIMMIN
 10
0.0
 20
0.0
  9
$LIMMAX
 10
420.0
 20
297.0
  9
$ORTHOMODE
 70
0
  9
$REGENMODE
 70
1
  9
$FILLMODE
 70
1
  9
$QTEXTMODE
 70
0
  9
$MIRRTEXT
 70
1
  9
$LTSCALE
 40
1.0
  9
$ATTMODE
 70
1
  9
$TEXTSIZE
 40
2.5
  9
$TRACEWID
 40
1.0
  9
$TEXTSTYLE
  7
Standard
  9
$CLAYER
  8
0
  9
$CELTYPE
  6
ByLayer
  9
$CECOLOR
 62
256
  9
$CELTSCALE
 40
1.0
  9
$DISPSILH
 70
0
  9
$DIMSCALE
 40
1.0
  9
$DIMASZ
 40
2.5
  9
$DIMEXO
 40
0.625
  9
$DIMDLI
 40
3.75
  9
$DIMRND
 40
0.0
  9
$DIMDLE
 40
0.0
  9
$DIMEXE
 40
1.25
  9
$DIMTP
 40
0.0
  9
$DIMTM
 40
0.0
  9
$DIMTXT
 40
2.5
  9
$DIMCEN
 40
2.5
  9
$DIMTSZ
 40
0.0
  9
$DIMTOL
 70
0
  9
$DIMLIM
 70
0
  9
$DIMTIH
 70
0
  9
$DIMTOH
 70
0
  9
$DIMSE1
 70
0
  9
$DIMSE2
 70
0
  9
$DIMTAD
 70
1
  9
$DIMZIN
 70
8
  9
$DIMBLK
  1

  9
$DIMASO
 70
1
  9
$DIMSHO
 70
1
  9
$DIMPOST
  1

  9
$DIMAPOST
  1

  9
$DIMALT
 70
0
  9
$DIMALTD
 70
3
  9
$DIMALTF
 40
0.03937007874
  9
$DIMLFAC
 40
1.0
  9
$DIMTOFL
 70
1
  9
$DIMTVP
 40
0.0
  9
$DIMTIX
 70
0
  9
$DIMSOXD
 70
0
  9
$DIMSAH
 70
0
  9
$DIMBLK1
  1

  9
$DIMBLK2
  1

  9
$DIMSTYLE
  2
ISO-25
  9
$DIMCLRD
 70
0
  9
$DIMCLRE
 70
0
  9
$DIMCLRT
 70
0
  9
$DIMTFAC
 40
1.0
  9
$DIMGAP
 40
0.625
  9
$DIMJUST
 70
0
  9
$DIMSD1
 70
0
  9
$DIMSD2
 70
0
  9
$DIMTOLJ
 70
0
  9
$DIMTZIN
 70
8
  9
$DIMALTZ
 70
0
  9
$DIMALTTZ
 70
0
  9
$DIMUPT
 70
0
  9
$DIMDEC
 70
2
  9
$DIMTDEC
 70
2
  9
$DIMALTU
 70
2
  9
$DIMALTTD
 70
3
  9
$DIMTXSTY
  7
Standard
  9
$DIMAUNIT
 70
0
  9
$DIMADEC
 70
0
  9
$DIMALTRND
 40
0.0
  9
$DIMAZIN
 70
0
  9
$DIMDSEP
 70
44
  9
$DIMATFIT
 70
3
  9
$DIMFRAC
 70
0
  9
$DIMLDRBLK
  1

  9
$DIMLUNIT
 70
2
  9
$DIMLWD
 70
-2
  9
$DIMLWE
 70
-2
  9
$DIMTMOVE
 70
0
  9
$DIMFXL
 40
1.0
  9
$DIMFXLON
 70
0
  9
$DIMJOGANG
 40
0.785398163397
  9
$DIMTFILL
 70
0
  9
$DIMTFILLCLR
 70
0
  9
$DIMARCSYM
 70
0
  9
$DIMLTYPE
  6

  9
$DIMLTEX1
  6

  9
$DIMLTEX2
  6

  9
$DIMTXTDIRECTION
 70
0
  9
$LUNITS
 70
2
  9
$LUPREC
 70
4
  9
$SKETCHINC
 40
1.0
  9
$FILLETRAD
 40
10.0
  9
$AUNITS
 70
0
  9
$AUPREC
 70
2
  9
$MENU
  1
.
  9
$ELEVATION
 40
0.0
  9
$PELEVATION
 40
0.0
  9
$THICKNESS
 40
0.0
  9
$LIMCHECK
 70
0
  9
$CHAMFERA
 40
0.0
  9
$CHAMFERB
 40
0.0
  9
$CHAMFERC
 40
0.0
  9
$CHAMFERD
 40
0.0
  9
$SKPOLY
 70
0
  9
$TDCREATE
 40
2461316.7749074074
  9
$TDUCREATE
 40
2458532.153996898
  9
$TDUPDATE
 40
2461316.7749074074
  9
$TDUUPDATE
 40
2458532.1544311
  9
$TDINDWG
 40
0.0
  9
$TDUSRTIMER
 40
0.0
  9
$USRTIMER
 70
1
  9
$ANGBASE
 50
0.0
  9
$ANGDIR
 70
0
  9
$PDMODE
 70
0
  9
$PDSIZE
 40
0.0
  9
$PLINEWID
 40
0.0
  9
$SPLFRAME
 70
0
  9
$SPLINETYPE
 70
6
  9
$SPLINESEGS
 70
8
  9
$HANDSEED
  5
AA
  9
$SURFTAB1
 70
6
  9
$SURFTAB2
 70
6
  9
$SURFTYPE
 70
6
  9
$SURFU
 70
6
  9
$SURFV
 70
6
  9
$UCSBASE
  2

  9
$UCSNAME
  2

  9
$UCSORG
 10
0.0
 20
0.0
 30
0.0
  9
$UCSXDIR
 10
1.0
 20
0.0
 30
0.0
  9
$UCSYDIR
 10
0.0
 20
1.0
 30
0.0
  9
$UCSORTHOREF
  2

  9
$UCSORTHOVIEW
 70
0
  9
$UCSORGTOP
 10
0.0
 20
0.0
 30
0.0
  9
$UCSORGBOTTOM
 10
0.0
 20
0.0
 30
0.0
  9
$UCSORGLEFT
 10
0.0
 20
0.0
 30
0.0
  9
$UCSORGRIGHT
 10
0.0
 20
0.0
 30
0.0
  9
$UCSORGFRONT
 10
0.0
 20
0.0
 30
0.0
  9
$UCSORGBACK
 10
0.0
 20
0.0
 30
0.0
  9
$PUCSBASE
  2

  9
$PUCSNAME
  2

  9
$PUCSORG
 10
0.0
 20
0.0
 30
0.0
  9
$PUCSXDIR
 10
1.0
 20
0.0
 30
0.0
  9
$PUCSYDIR
 10
0.0
 20
1.0
 30
0.0
  9
$PUCSORTHOREF
  2

  9
$PUCSORTHOVIEW
 70
0
  9
$PUCSORGTOP
 10
0.0
 20
0.0
 30
0.0
  9
$PUCSORGBOTTOM
 10
0.0
 20
0.0
 30
0.0
  9
$PUCSORGLEFT
 10
0.0
 20
0.0
 30
0.0
  9
$PUCSORGRIGHT
 10
0.0
 20
0.0
 30
0.0
  9
$PUCSORGFRONT
 10
0.0
 20
0.0
 30
0.0
  9
$PUCSORGBACK
 10
0.0
 20
0.0
 30
0.0
  9
$USERI1
 70
0
  9
$USERI2
 70
0
  9
$USERI3
 70
0
  9
$USERI4
 70
0
  9
$USERI5
 70
0
  9
$USERR1
 40
0.0
  9
$USERR2
 40
0.0
  9
$USERR3
 40
0.0
  9
$USERR4
 40
0.0
  9
$USERR5
 40
0.0
  9
$WORLDVIEW
 70
1
  9
$SHADEDGE
 70
3
  9
$SHADEDIF
 70
70
  9
$TILEMODE
 70
1
  9
$MAXACTVP
 70
64
  9
$PINSBASE
 10
0.0
 20
0.0
 30
0.0
  9
$PLIMCHECK
 70
0
  9
$PEXTMIN
 10
1e+20
 20
1e+20
 30
1e+20
  9
$PEXTMAX
 10
-1e+20
 20
-1e+20
 30
-1e+20
  9
$PLIMMIN
 10
0.0
 20
0.0
  9
$PLIMMAX
 10
420.0
 20
297.0
  9
$UNITMODE
 70
0
  9
$VISRETAIN
 70
1
  9
$PLINEGEN
 70
0
  9
$PSLTSCALE
 70
1
  9
$TREEDEPTH
 70
3020
  9
$CMLSTYLE
  2
Standard
  9
$CMLJUST
 70
0
  9
$CMLSCALE
 40
20.0
  9
$PROXYGRAPHICS
 70
1
  9
$MEASUREMENT
 70
1
  9
$CELWEIGHT
370
-1
  9
$ENDCAPS
280
0
  9
$JOINSTYLE
280
0
  9
$LWDISPLAY
290
0
  9
$INSUNITS
 70
4
  9
$HYPERLINKBASE
  1

  9
$STYLESHEET
  1

  9
$XEDIT
290
1
  9
$CEPSNTYPE
380
0
  9
$PSTYLEMODE
290
1
  9
$FINGERPRINTGUID
  2
{F625949C-9977-42FF-91E5-F76891C3CC92}
  9
$VERSIONGUID
  2
{A5EAC42C-544B-4F1F-A477-C3614B4EDCB4}
  9
$EXTNAMES
290
1
  9
$PSVPSCALE
 40
0.0
  9
$OLESTARTUP
290
0
  9
$SORTENTS
280
127
  9
$INDEXCTL
280
0
  9
$HIDETEXT
280
1
  9
$XCLIPFRAME
280
1
  9
$HALOGAP
280
0
  9
$OBSCOLOR
 70
257
  9
$OBSLTYPE
280
0
  9
$INTERSECTIONDISPLAY
280
0
  9
$INTERSECTIONCOLOR
 70
257
  9
$DIMASSOC
280
2
  9
$PROJECTNAME
  1

  9
$CAMERADISPLAY
290
0
  9
$LENSLENGTH
 40
50.0
  9
$CAMERAHEIGHT
 40
0.0
  9
$STEPSPERSEC
 40
24.0
  9
$STEPSIZE
 40
100.0
  9
$3DDWFPREC
 40
2.0
  9
$PSOLWIDTH
 40
0.005
  9
$PSOLHEIGHT
 40
0.08
  9
$LOFTANG1
 40
1.570796326795
  9
$LOFTANG2
 40
1.570796326795
  9
$LOFTMAG1
 40
0.0
  9
$LOFTMAG2
 40
0.0
  9
$LOFTPARAM
 70
7
  9
$LOFTNORMALS
280
1
  9
$LATITUDE
 40
37.795
  9
$LONGITUDE
 40
-122.394
  9
$NORTHDIRECTION
 40
0.0
  9
$TIMEZONE
 70
-8000
  9
$LIGHTGLYPHDISPLAY
280
1
  9
$TILEMODELIGHTSYNCH
280
1
  9
$CMATERIAL
347
20
  9
$SOLIDHIST
280
0
  9
$SHOWHIST
280
1
  9
$DWFFRAME
280
2
  9
$DGNFRAME
280
2
  9
$REALWORLDSCALE
290
1
  9
$INTERFERECOLOR
 62
256
  9
$CSHADOW
280
0
  9
$SHADOWPLANELOCATION
 40
0.0
  0
ENDSEC
  0
SECTION
  2
CLASSES
  0
CLASS
  1
ACDBDICTIONARYWDFLT
  2
AcDbDictionaryWithDefault
  3
ObjectDBX Classes
 90
0
 91
0
280
0
281
0
  0
CLASS
  1
SUN
  2
AcDbSun
  3
SCENEOE
 90
1153
 91
0
280
0
281
0
  0
CLASS
  1
VISUALSTYLE
  2
AcDbVisualStyle
  3
ObjectDBX Classes
 90
4095
 91
0
280
0
281
0
  0
CLASS
  1
MATERIAL
  2
AcDbMaterial
  3
ObjectDBX Classes
 90
1153
 91
0
280
0
281
0
  0
CLASS
  1
SCALE
  2
AcDbScale
  3
ObjectDBX Classes
 90
1153
 91
0
280
0
281
0
  0
CLASS
  1
TABLESTYLE
  2
AcDbTableStyle
  3
ObjectDBX Classes
 90
4095
 91
0
280
0
281
0
  0
CLASS
  1
MLEADERSTYLE
  2
AcDbMLeaderStyle
  3
ACDB_MLEADERSTYLE_CLASS
 90
4095
 91
0
280
0
281
0
  0
CLASS
  1
DICTIONARYVAR
  2
AcDbDictionaryVar
  3
ObjectDBX Classes
 90
0
 91
0
280
0
281
0
  0
CLASS
  1
CELLSTYLEMAP
  2
AcDbCellStyleMap
  3
ObjectDBX Classes
 90
1152
 91
0
280
0
281
0
  0
CLASS
  1
MENTALRAYRENDERSETTINGS
  2
AcDbMentalRayRenderSettings
  3
SCENEOE
 90
1024
 91
0
280
0
281
0
  0
CLASS
  1
ACDBDETAILVIEWSTYLE
  2
AcDbDetailViewStyle
  3
ObjectDBX Classes
 90
1025
 91
0
280
0
281
0
  0
CLASS
  1
ACDBSECTIONVIEWSTYLE
  2
AcDbSectionViewStyle
  3
ObjectDBX Classes
 90
1025
 91
0
280
0
281
0
  0
CLASS
  1
RASTERVARIABLES
  2
AcDbRasterVariables
  3
ISM
 90
0
 91
0
280
0
281
0
  0
CLASS
  1
LAYOUT
  2
AcDbLayout
  3
ObjectDBX Classes
 90
0
 91
0
280
0
281
0
  0
CLASS
  1
ACDBPLACEHOLDER
  2
AcDbPlaceHolder
  3
ObjectDBX Classes
 90
0
 91
0
280
0
281
0
  0
ENDSEC
  0
SECTION
  2
TABLES
  0
TABLE
  2
VPORT
  5
8
330
0
100
AcDbSymbolTable
 70
1
  0
VPORT
  5
A6
330
8
100
AcDbSymbolTableRecord
100
AcDbViewportTableRecord
  2
*Active
 70
0
 10
0.0
 20
0.0
 11
1.0
 21
1.0
 12
2.1775634928602052
 22
-3.373667218045661
 13
0.0
 23
0.0
 14
0.5
 24
0.5
 15
0.5
 25
0.5
 16
0.0
 26
0.0
 36
1.0
 17
0.0
 27
0.0
 37
0.0
 40
77.6859877549708
 41
1.34
 42
50.0
 43
0.0
 44
0.0
 50
0.0
 51
0.0
 71
0
 72
1000
 73
1
 74
3
 75
0
 76
0
 77
0
 78
0
281
0
 65
1
110
0.0
120
0.0
130
0.0
111
1.0
121
0.0
131
0.0
112
0.0
122
1.0
132
0.0
 79
0
146
0.0
  0
ENDTAB
  0
TABLE
  2
LTYPE
  5
2
330
0
100
AcDbSymbolTable
 70
3
  0
LTYPE
  5
24
330
2
100
AcDbSymbolTableRecord
100
AcDbLinetypeTableRecord
  2
ByBlock
 70
0
  3

 72
65
 73
0
 40
0.0
  0
LTYPE
  5
25
330
2
100
AcDbSymbolTableRecord
100
AcDbLinetypeTableRecord
  2
ByLayer
 70
0
  3

 72
65
 73
0
 40
0.0
  0
LTYPE
  5
26
330
2
100
AcDbSymbolTableRecord
100
AcDbLinetypeTableRecord
  2
Continuous
 70
0
  3

 72
65
 73
0
 40
0.0
  0
ENDTAB
  0
TABLE
  2
LAYER
  5
1
330
0
100
AcDbSymbolTable
 70
3
  0
LAYER
  5
27
330
1
100
AcDbSymbolTableRecord
100
AcDbLayerTableRecord
  2
0
 70
0
 62
7
  6
Continuous
370
-3
390
13
347
21
  0
LAYER
  5
28
330
1
100
AcDbSymbolTableRecord
100
AcDbLayerTableRecord
  2
Defpoints
 70
0
 62
7
  6
Continuous
290
0
370
-3
390
13
347
21
  0
LAYER
  5
2F
330
1
100
AcDbSymbolTableRecord
100
AcDbLayerTableRecord
  2
visible
 70
0
 62
7
  6
Continuous
370
-3
390
13
347
21
  0
ENDTAB
  0
TABLE
  2
STYLE
  5
5
330
0
100
AcDbSymbolTable
 70
1
  0
STYLE
  5
29
330
5
100
AcDbSymbolTableRecord
100
AcDbTextStyleTableRecord
  2
Standard
 70
0
 40
0.0
 41
1.0
 50
0.0
 71
0
 42
2.5
  3
txt
  4

  0
ENDTAB
  0
TABLE
  2
VIEW
  5
7
330
0
100
AcDbSymbolTable
 70
0
  0
ENDTAB
  0
TABLE
  2
UCS
  5
6
330
0
100
AcDbSymbolTable
 70
0
  0
ENDTAB
  0
TABLE
  2
APPID
  5
3
330
0
100
AcDbSymbolTable
 70
3
  0
APPID
  5
2A
330
3
100
AcDbSymbolTableRecord
100
AcDbRegAppTableRecord
  2
ACAD
 70
0
  0
APPID
  5
A7
330
3
100
AcDbSymbolTableRecord
100
AcDbRegAppTableRecord
  2
HATCHBACKGROUNDCOLOR
 70
0
  0
APPID
  5
A8
330
3
100
AcDbSymbolTableRecord
100
AcDbRegAppTableRecord
  2
EZDXF
 70
0
  0
ENDTAB
  0
TABLE
  2
DIMSTYLE
  5
4
330
0
100
AcDbSymbolTable
 70
1
100
AcDbDimStyleTable
  0
DIMSTYLE
105
2B
330
4
100
AcDbSymbolTableRecord
100
AcDbDimStyleTableRecord
  2
Standard
 70
0
 40
1.0
 41
2.5
 42
0.625
 43
3.75
 44
1.25
 45
0.0
 46
0.0
 47
0.0
 48
0.0
 49
2.5
140
2.5
141
2.5
142
0.0
143
0.03937007874
144
1.0
145
0.0
146
1.0
147
0.625
148
0.0
 69
0
 70
0
 71
0
 72
0
 73
0
 74
0
 75
0
 76
0
 77
1
 78
8
 79
3
170
0
171
3
172
1
173
0
174
0
175
0
176
0
177
0
178
0
179
2
271
2
272
2
273
2
274
3
275
0
276
0
277
2
278
44
279
0
280
0
281
0
282
0
283
0
284
8
285
0
286
0
288
0
289
3
290
0
371
-2
372
-2
  0
ENDTAB
  0
TABLE
  2
BLOCK_RECORD
  5
9
330
0
100
AcDbSymbolTable
 70
2
  0
BLOCK_RECORD
  5
17
330
9
100
AcDbSymbolTableRecord
100
AcDbBlockTableRecord
  2
*Model_Space
340
1A
 70
0
280
1
281
0
  0
BLOCK_RECORD
  5
1B
330
9
100
AcDbSymbolTableRecord
100
AcDbBlockTableRecord
  2
*Paper_Space
340
1E
 70
0
280
1
281
0
  0
ENDTAB
  0
ENDSEC
  0
SECTION
  2
BLOCKS
  0
BLOCK
  5
18
330
17
100
AcDbEntity
  8
0
100
AcDbBlockBegin
  2
*Model_Space
 70
0
 10
0.0
 20
0.0
 30
0.0
  3
*Model_Space
  1

  0
ENDBLK
  5
19
330
17
100
AcDbEntity
  8
0
100
AcDbBlockEnd
  0
BLOCK
  5
1C
330
1B
100
AcDbEntity
  8
0
100
AcDbBlockBegin
  2
*Paper_Space
 70
0
 10
0.0
 20
0.0
 30
0.0
  3
*Paper_Space
  1

  0
ENDBLK
  5
1D
330
1B
100
AcDbEntity
  8
0
100
AcDbBlockEnd
  0
ENDSEC
  0
SECTION
  2
ENTITIES
  0
SPLINE
  5
30
330
17
100
AcDbEntity
  8
visible
100
AcDbSpline
 70
0
 71
2
 72
6
 73
3
 74
0
 40
0.0
 40
0.0
 40
0.0
 40
1.0
 40
1.0
 40
1.0
 10
-1.6313809367039145
 20
-34.60121125525016
 30
0.0
 10
-1.8533990393558626
 20
-34.46627874624076
 30
0.0
 10
-2.034910220760196
 20
-34.4184378497798
 30
0.0
  0
LINE
  5
31
330
17
100
AcDbEntity
  8
visible
100
AcDbLine
 10
-4.847834218333068
 20
-33.698025084943076
 30
0.0
 11
-2.034910220760192
 21
-34.4184378497798
 31
0.0
  0
LINE
  5
32
330
17
100
AcDbEntity
  8
visible
100
AcDbLine
 10
-2.659649572218491
 20
12.647102494735407
 30
0.0
 11
-2.659649572218491
 21
-25.439505894068333
 31
0.0
  0
ELLIPSE
  5
33
330
17
100
AcDbEntity
  8
visible
100
AcDbEllipse
 10
9.290733092808498
 20
-22.159961633213356
 30
0.0
 11
-4.2673326421161875
 21
-16.662228906167677
 31
0.0
 40
0.6699286792158252
 41
5.0775369699606765
 42
5.7914369850873
  0
SPLINE
  5
34
330
17
100
AcDbEntity
  8
visible
100
AcDbSpline
 70
0
 71
2
 72
6
 73
3
 74
0
 40
0.0
 40
0.0
 40
0.0
 40
1.0
 40
1.0
 40
1.0
 10
-0.325432522474441
 20
-35.189276099931845
 30
0.0
 10
-0.022946911404665316
 20
-35.36484007506483
 30
0.0
 10
0.2584671250555388
 20
-35.498024212686936
 30
0.0
  0
SPLINE
  5
35
330
17
100
AcDbEntity
  8
visible
100
AcDbSpline
 70
0
 71
3
 72
14
 73
10
 74
0
 40
0.0
 40
0.0
 40
0.0
 40
0.0
 40
0.2630592085465261
 40
0.2630592085465261
 40
0.2630592085465261
 40
0.7361716059260691
 40
0.7361716059260691
 40
0.7361716059260691
 40
1.0
 40
1.0
 40
1.0
 40
1.0
 10
-0.32543252247445764
 20
-35.18927609993193
 30
0.0
 10
-0.4286223846169299
 20
-35.13172069053384
 30
0.0
 10
-0.5486816839844009
 20
-35.09161006100348
 30
0.0
 10
-0.6683597906618897
 20
-35.0445458698908
 30
0.0
 10
-0.8846594724387801
 20
-34.96256377990082
 30
0.0
 10
-1.1123779829842988
 20
-34.87073135998999
 30
0.0
 10
-1.3186987847263723
 20
-34.76992846918106
 30
0.0
 10
-1.4351645482050535
 20
-34.71325607535577
 30
0.0
 10
-1.53939193219757
 20
-34.65701700404551
 30
0.0
 10
-1.63138093670392
 20
-34.601211255250206
 30
0.0
  0
SPLINE
  5
36
330
17
100
AcDbEntity
  8
visible
100
AcDbSpline
 70
0
 71
2
 72
6
 73
3
 74
0
 40
0.0
 40
0.0
 40
0.0
 40
0.3481937140150711
 40
0.3481937140150711
 40
0.3481937140150711
 10
-4.84783421833307
 20
-33.69802508494307
 30
0.0
 10
-5.015399017408649
 20
-33.6541767757749
 30
0.0
 10
-5.052085119135999
 20
-33.59014725484276
 30
0.0
  0
ELLIPSE
  5
37
330
17
100
AcDbEntity
  8
visible
100
AcDbEllipse
 10
9.290733092808498
 20
15.926646755590397
 30
0.0
 11
-4.267332642116188
 21
-16.662228906167677
 31
0.0
 40
0.6699286792158253
 41
3.50674064316578
 42
5.0775369699606765
  0
LINE
  5
38
330
17
100
AcDbEntity
  8
visible
100
AcDbLine
 10
12.069891852117099
 20
33.273879930389896
 30
0.0
 11
9.290733092808498
 21
32.51119521856315
 31
0.0
  0
LINE
  5
39
330
17
100
AcDbEntity
  8
visible
100
AcDbLine
 10
0.2584671250555459
 20
-41.22323540962303
 30
0.0
 11
0.2584671250555459
 21
-35.49802421268605
 31
0.0
  0
ELLIPSE
  5
3A
330
17
100
AcDbEntity
  8
visible
100
AcDbEllipse
 10
12.069891852117099
 20
16.689331467417134
 30
0.0
 11
-4.2673326421161875
 21
-16.662228906167677
 31
0.0
 40
0.6699286792158252
 41
1.9359443163708836
 42
3.50674064316578
  0
LINE
  5
3B
330
17
100
AcDbEntity
  8
visible
100
AcDbLine
 10
21.102157819870055
 20
-35.503100070922486
 30
0.0
 11
0.25846712505554237
 21
-41.223235409623044
 31
0.0
  0
LINE
  5
3C
330
17
100
AcDbEntity
  8
visible
100
AcDbLine
 10
24.020274517144088
 20
-18.11773266053163
 30
0.0
 11
24.020274517144088
 21
19.96887572827211
 31
0.0
  0
LINE
  5
3D
330
17
100
AcDbEntity
  8
visible
100
AcDbLine
 10
21.102157819870055
 20
-35.50310007092247
 30
0.0
 11
21.102157819870055
 21
-29.777888873985486
 31
0.0
  0
ELLIPSE
  5
3E
330
17
100
AcDbEntity
  8
visible
100
AcDbEllipse
 10
12.069891852117099
 20
-21.39727692138662
 30
0.0
 11
-4.267332642116189
 21
-16.662228906167677
 31
0.0
 40
0.6699286792158254
 41
1.2220443012442601
 42
1.9359443163708834
  0
ELLIPSE
  5
3F
330
17
100
AcDbEntity
  8
visible
100
AcDbEllipse
 10
3.732415574191293
 20
-26.577984858548135
 30
0.0
 11
-0.22329066150607943
 21
-0.8718608148576111
 31
0.0
 40
0.6699286792158254
 41
0.3651479895759867
 42
3.1415926535897936
  0
ELLIPSE
  5
40
330
17
100
AcDbEntity
  8
visible
100
AcDbEllipse
 10
3.732415574191293
 20
-26.577984858548135
 30
0.0
 11
-0.22329066150607943
 21
-0.8718608148576111
 31
0.0
 40
0.6699286792158254
 41
3.1415926535897936
 42
6.283185307179586
  0
ELLIPSE
  5
41
330
17
100
AcDbEntity
  8
visible
100
AcDbEllipse
 10
3.732415574191293
 20
-26.577984858548135
 30
0.0
 11
-0.22329066150607943
 21
-0.8718608148576111
 31
0.0
 40
0.6699286792158254
 41
0.0
 42
0.3651479895759868
  0
ELLIPSE
  5
42
330
17
100
AcDbEntity
  8
visible
100
AcDbEllipse
 10
17.628209370734304
 20
-22.764561299414424
 30
0.0
 11
-0.22329066150607943
 21
-0.8718608148576111
 31
0.0
 40
0.6699286792158254
 41
0.3651479895759867
 42
3.1415926535897936
  0
ELLIPSE
  5
43
330
17
100
AcDbEntity
  8
visible
100
AcDbEllipse
 10
17.628209370734304
 20
-22.764561299414424
 30
0.0
 11
-0.22329066150607943
 21
-0.8718608148576111
 31
0.0
 40
0.6699286792158254
 41
3.1415926535897936
 42
6.283185307179586
  0
ELLIPSE
  5
44
330
17
100
AcDbEntity
  8
visible
100
AcDbEllipse
 10
17.628209370734304
 20
-22.764561299414424
 30
0.0
 11
-0.22329066150607943
 21
-0.8718608148576111
 31
0.0
 40
0.6699286792158254
 41
0.0
 42
0.3651479895759868
  0
ELLIPSE
  5
45
330
17
100
AcDbEntity
  8
visible
100
AcDbEllipse
 10
10.680312472462798
 20
-0.0837157646902682
 30
0.0
 11
-0.22329066150607943
 21
-0.8718608148576111
 31
0.0
 40
0.6699286792158254
 41
0.3651479895759867
 42
3.1415926535897936
  0
ELLIPSE
  5
46
330
17
100
AcDbEntity
  8
visible
100
AcDbEllipse
 10
10.680312472462798
 20
-0.0837157646902682
 30
0.0
 11
-0.22329066150607943
 21
-0.8718608148576111
 31
0.0
 40
0.6699286792158254
 41
3.1415926535897936
 42
6.283185307179586
  0
ELLIPSE
  5
47
330
17
100
AcDbEntity
  8
visible
100
AcDbEllipse
 10
10.680312472462798
 20
-0.0837157646902682
 30
0.0
 11
-0.22329066150607943
 21
-0.8718608148576111
 31
0.0
 40
0.6699286792158254
 41
0.0
 42
0.3651479895759868
  0
ELLIPSE
  5
48
330
17
100
AcDbEntity
  8
visible
100
AcDbEllipse
 10
10.680312472462798
 20
8.594245640353634
 30
0.0
 11
-1.116453307530397
 21
-4.3593040742880556
 31
0.0
 40
0.6699286792158254
 41
0.3651479895759867
 42
3.1415926535897936
  0
ELLIPSE
  5
49
330
17
100
AcDbEntity
  8
visible
100
AcDbEllipse
 10
10.680312472462798
 20
8.594245640353634
 30
0.0
 11
-1.116453307530397
 21
-4.3593040742880556
 31
0.0
 40
0.6699286792158254
 41
3.1415926535897936
 42
6.283185307179586
  0
ELLIPSE
  5
4A
330
17
100
AcDbEntity
  8
visible
100
AcDbEllipse
 10
10.680312472462798
 20
8.594245640353634
 30
0.0
 11
-1.116453307530397
 21
-4.3593040742880556
 31
0.0
 40
0.6699286792158254
 41
0.0
 42
0.3651479895759868
  0
ELLIPSE
  5
4B
330
17
100
AcDbEntity
  8
visible
100
AcDbEllipse
 10
3.732415574191293
 20
18.258149067511965
 30
0.0
 11
-0.22329066150607943
 21
-0.8718608148576111
 31
0.0
 40
0.6699286792158254
 41
0.3651479895759867
 42
3.1415926535897936
  0
ELLIPSE
  5
4C
330
17
100
AcDbEntity
  8
visible
100
AcDbEllipse
 10
3.732415574191293
 20
18.258149067511965
 30
0.0
 11
-0.22329066150607943
 21
-0.8718608148576111
 31
0.0
 40
0.6699286792158254
 41
3.1415926535897936
 42
6.283185307179586
  0
ELLIPSE
  5
4D
330
17
100
AcDbEntity
  8
visible
100
AcDbEllipse
 10
3.732415574191293
 20
18.258149067511965
 30
0.0
 11
-0.22329066150607943
 21
-0.8718608148576111
 31
0.0
 40
0.6699286792158254
 41
0.0
 42
0.3651479895759868
  0
ELLIPSE
  5
4E
330
17
100
AcDbEntity
  8
visible
100
AcDbEllipse
 10
10.680312472462798
 20
17.272207045397522
 30
0.0
 11
-0.22329066150607943
 21
-0.8718608148576111
 31
0.0
 40
0.6699286792158254
 41
0.3651479895759867
 42
3.1415926535897936
  0
ELLIPSE
  5
4F
330
17
100
AcDbEntity
  8
visible
100
AcDbEllipse
 10
10.680312472462798
 20
17.272207045397522
 30
0.0
 11
-0.22329066150607943
 21
-0.8718608148576111
 31
0.0
 40
0.6699286792158254
 41
3.1415926535897936
 42
6.283185307179586
  0
ELLIPSE
  5
50
330
17
100
AcDbEntity
  8
visible
100
AcDbEllipse
 10
10.680312472462798
 20
17.272207045397522
 30
0.0
 11
-0.22329066150607943
 21
-0.8718608148576111
 31
0.0
 40
0.6699286792158254
 41
0.0
 42
0.3651479895759868
  0
ELLIPSE
  5
51
330
17
100
AcDbEntity
  8
visible
100
AcDbEllipse
 10
17.628209370734304
 20
22.071572626645676
 30
0.0
 11
-0.22329066150607943
 21
-0.8718608148576111
 31
0.0
 40
0.6699286792158254
 41
0.3651479895759867
 42
3.1415926535897936
  0
ELLIPSE
  5
52
330
17
100
AcDbEntity
  8
visible
100
AcDbEllipse
 10
17.628209370734304
 20
22.071572626645676
 30
0.0
 11
-0.22329066150607943
 21
-0.8718608148576111
 31
0.0
 40
0.6699286792158254
 41
3.1415926535897936
 42
6.283185307179586
  0
ELLIPSE
  5
53
330
17
100
AcDbEntity
  8
visible
100
AcDbEllipse
 10
17.628209370734304
 20
22.071572626645676
 30
0.0
 11
-0.22329066150607943
 21
-0.8718608148576111
 31
0.0
 40
0.6699286792158254
 41
0.0
 42
0.3651479895759868
  0
ELLIPSE
  5
54
330
17
100
AcDbEntity
  8
visible
100
AcDbEllipse
 10
6.3650346912816005
 20
9.699423455346732
 30
0.0
 11
-2.0220209903050526
 21
-7.895184045655034
 31
0.0
 40
0.6699286792158254
 41
1.0181836330324736
 42
2.1234090205573235
  0
SPLINE
  5
55
330
17
100
AcDbEntity
  8
visible
100
AcDbSpline
 70
0
 71
3
 72
8
 73
4
 74
0
 40
0.0
 40
0.0
 40
0.0
 40
0.0
 40
1.0
 40
1.0
 40
1.0
 40
1.0
 10
21.839236090718142
 20
-28.788021588805712
 30
0.0
 10
21.782375903343166
 20
-28.913223981865055
 30
0.0
 10
21.69737085227625
 20
-29.032407906156827
 30
0.0
 10
21.598583468750313
 20
-29.17266702269015
 30
0.0
  0
ELLIPSE
  5
56
330
17
100
AcDbEntity
  8
visible
100
AcDbEllipse
 10
-0.3169032457686143
 20
-41.07587836762396
 30
0.0
 11
0.21171637707560842
 21
-0.7714766203054886
 31
0.0
 40
0.6934780377247011
 41
-6.283185307179586
 42
-5.089208909924853
  0
ELLIPSE
  5
57
330
17
100
AcDbEntity
  8
visible
100
AcDbEllipse
 10
20.526787449045898
 20
-35.3557430289234
 30
0.0
 11
0.21171637707560842
 21
-0.7714766203054886
 31
0.0
 40
0.6934780377247011
 41
-6.283185307179586
 42
-5.089208909924853
  0
SPLINE
  5
58
330
17
100
AcDbEntity
  8
visible
100
AcDbSpline
 70
0
 71
2
 72
6
 73
3
 74
0
 40
0.0
 40
0.0
 40
0.0
 40
1.0
 40
1.0
 40
1.0
 10
21.598583468750256
 20
-29.172667022690078
 30
0.0
 10
21.382030344888022
 20
-29.490671000340043
 30
0.0
 10
21.10215786730433
 20
-29.77788878498374
 30
0.0
  0
ELLIPSE
  5
59
330
17
100
AcDbEntity
  8
visible
100
AcDbEllipse
 10
9.961099508932598
 20
8.778441942852496
 30
0.0
 11
-1.116453307530397
 21
-4.3593040742880556
 31
0.0
 40
0.6699286792158254
 41
0.3651479895759867
 42
3.018144269182695
  0
ELLIPSE
  5
5A
330
17
100
AcDbEntity
  8
visible
100
AcDbEllipse
 10
9.961099508932598
 20
8.778441942852496
 30
0.0
 11
-1.116453307530397
 21
-4.3593040742880556
 31
0.0
 40
0.6699286792158254
 41
0.12344838440708727
 42
0.3651479895759868
  0
LINE
  5
5B
330
17
100
AcDbEntity
  8
visible
100
AcDbLine
 10
10.138417462177802
 20
16.690463281116333
 30
0.0
 11
10.156646065342258
 21
16.685794787258644
 31
0.0
  0
ELLIPSE
  5
5C
330
17
100
AcDbEntity
  8
visible
100
AcDbEllipse
 10
9.961099508932595
 20
17.456403347896384
 30
0.0
 11
-0.22329066150607943
 21
-0.8718608148576111
 31
0.0
 40
0.6699286792158254
 41
0.6632427519853837
 42
0.6832022705778845
  0
LINE
  5
5D
330
17
100
AcDbEntity
  8
visible
100
AcDbLine
 10
-3.790851694904366
 20
-25.444685794434612
 30
0.0
 11
-6.955388734437248
 21
-24.634222063439672
 31
0.0
  0
LINE
  5
5E
330
17
100
AcDbEntity
  8
visible
100
AcDbLine
 10
-3.7908516949043616
 20
12.641922594369134
 30
0.0
 11
-3.7908516949043616
 21
-25.444685794434605
 31
0.0
  0
LINE
  5
5F
330
17
100
AcDbEntity
  8
visible
100
AcDbLine
 10
-6.95538873443725
 20
13.452386325364074
 30
0.0
 11
-6.95538873443725
 21
-24.634222063439665
 31
0.0
  0
LINE
  5
60
330
17
100
AcDbEntity
  8
visible
100
AcDbLine
 10
-3.790851694904366
 20
12.641922594369142
 30
0.0
 11
-6.955388734437248
 21
13.452386325364081
 31
0.0
  0
ELLIPSE
  5
61
330
17
100
AcDbEntity
  8
visible
100
AcDbEllipse
 10
8.715362721984341
 20
-22.012604591214284
 30
0.0
 11
-4.465813230121592
 21
-17.43721629715222
 31
0.0
 40
0.6699286792158252
 41
5.0775369699606765
 42
5.673998910422012
  0
ELLIPSE
  5
62
330
17
100
AcDbEntity
  8
visible
100
AcDbEllipse
 10
5.55082568245146
 20
-21.202140860219345
 30
0.0
 11
-4.465813230121592
 21
-17.43721629715222
 31
0.0
 40
0.6699286792158252
 41
5.0775369699606765
 42
5.66656794017695
  0
ELLIPSE
  5
63
330
17
100
AcDbEntity
  8
visible
100
AcDbEllipse
 10
-3.2350199430426443
 20
12.794459536734479
 30
0.0
 11
0.8
 21
-6.908539982087559e-17
 31
0.0
 40
0.2651108748385055
 41
3.9442615380074293
 42
5.515057864802326
  0
ELLIPSE
  5
64
330
17
100
AcDbEntity
  8
visible
100
AcDbEllipse
 10
-3.2350199430426443
 20
-25.292148852069275
 30
0.0
 11
0.8
 21
0.0
 31
0.0
 40
0.2651108748385056
 41
3.9442615380074293
 42
5.515057864802326
  0
ELLIPSE
  5
65
330
17
100
AcDbEntity
  8
visible
100
AcDbEllipse
 10
-6.399556982575525
 20
13.604923267729419
 30
0.0
 11
-0.8
 21
6.908539982087559e-17
 31
0.0
 40
0.2651108748385055
 41
-6.283185307179586
 42
-5.48051642276195
  0
ELLIPSE
  5
66
330
17
100
AcDbEntity
  8
visible
100
AcDbEllipse
 10
-6.399556982575525
 20
-24.481685121074335
 30
0.0
 11
-0.8
 21
-0.0
 31
0.0
 40
0.2651108748385056
 41
-6.283185307179586
 42
-5.48051642276195
  0
LINE
  5
67
330
17
100
AcDbEntity
  8
visible
100
AcDbLine
 10
8.71536272198434
 20
33.42992660767725
 30
0.0
 11
5.550825682451459
 21
34.24039033867219
 31
0.0
  0
ELLIPSE
  5
68
330
17
100
AcDbEntity
  8
visible
100
AcDbEllipse
 10
8.715362721984341
 20
16.07400379758947
 30
0.0
 11
-4.465813230121593
 21
-17.43721629715222
 31
0.0
 40
0.6699286792158253
 41
3.50674064316578
 42
5.0775369699606765
  0
ELLIPSE
  5
69
330
17
100
AcDbEntity
  8
visible
100
AcDbEllipse
 10
5.55082568245146
 20
16.88446752858441
 30
0.0
 11
-4.465813230121593
 21
-17.43721629715222
 31
0.0
 40
0.6699286792158253
 41
3.50674064316578
 42
5.0775369699606765
  0
ELLIPSE
  5
6A
330
17
100
AcDbEntity
  8
visible
100
AcDbEllipse
 10
-6.255714389869489
 20
-34.93207806762676
 30
0.0
 11
0.1984805880054041
 21
0.7749873909845432
 31
0.0
 40
0.6699286792158252
 41
-5.918037317603599
 42
-4.347240990808703
  0
ELLIPSE
  5
6B
330
17
100
AcDbEntity
  8
visible
100
AcDbEllipse
 10
-3.337597692595452
 20
-33.35988477309367
 30
0.0
 11
4.2
 21
0.0
 31
0.0
 40
0.2651108748385056
 41
3.9442615380074297
 42
5.027754182880902
  0
ELLIPSE
  5
6C
330
17
100
AcDbEntity
  8
visible
100
AcDbEllipse
 10
-3.337597692595452
 20
-34.13125912020868
 30
0.0
 11
5.0
 21
0.0
 31
0.0
 40
0.2651108748385056
 41
3.9442615380074297
 42
5.3589348629026725
  0
LINE
  5
6D
330
17
100
AcDbEntity
  8
visible
100
AcDbLine
 10
-6.1885709756185285
 20
-31.013403869089057
 30
0.0
 11
-9.23514399354309
 21
-31.849475092603104
 31
0.0
  0
ELLIPSE
  5
6E
330
17
100
AcDbEntity
  8
visible
100
AcDbEllipse
 10
-6.214449546716253
 20
-32.62309956309828
 30
0.0
 11
4.2
 21
0.0
 31
0.0
 40
0.2651108748385056
 41
2.3734652112125327
 42
3.9442615380074293
  0
LINE
  5
6F
330
17
100
AcDbEntity
  8
visible
100
AcDbLine
 10
-9.132566243990283
 20
-33.42391851051636
 30
0.0
 11
-6.255714389869482
 21
-34.160703720511755
 31
0.0
  0
ELLIPSE
  5
70
330
17
100
AcDbEntity
  8
visible
100
AcDbEllipse
 10
8.715362721984341
 20
32.65855226056222
 30
0.0
 11
0.21171637707560842
 21
-0.7714766203054886
 31
0.0
 40
0.6934780377247011
 41
-5.089208909924853
 42
-3.5184125831299564
  0
ELLIPSE
  5
71
330
17
100
AcDbEntity
  8
visible
100
AcDbEllipse
 10
5.55082568245146
 20
33.46901599155716
 30
0.0
 11
-0.21171637707560842
 21
0.7714766203054886
 31
0.0
 40
0.6934780377247011
 41
5.906365377639423
 42
6.283185307179586
  0
LINE
  5
72
330
17
100
AcDbEntity
  8
visible
100
AcDbLine
 10
11.494521481292942
 20
34.192611319503996
 30
0.0
 11
8.715362721984341
 21
33.42992660767725
 31
0.0
  0
LINE
  5
73
330
17
100
AcDbEntity
  8
visible
100
AcDbLine
 10
8.329984441760061
 20
35.003075050498936
 30
0.0
 11
5.5508256824514595
 21
34.24039033867219
 31
0.0
  0
LINE
  5
74
330
17
100
AcDbEntity
  8
visible
100
AcDbLine
 10
11.49452148129294
 20
34.192611319504
 30
0.0
 11
8.32998444176006
 21
35.00307505049894
 31
0.0
  0
LINE
  5
75
330
17
100
AcDbEntity
  8
visible
100
AcDbLine
 10
-6.811546141731206
 20
-41.25560978691221
 30
0.0
 11
-6.811546141731206
 21
-35.08461500999211
 31
0.0
  0
ELLIPSE
  5
76
330
17
100
AcDbEntity
  8
visible
100
AcDbEllipse
 10
-3.337597692595452
 20
-40.30225389712879
 30
0.0
 11
5.0
 21
0.0
 31
0.0
 40
0.2651108748385056
 41
3.9442615380074297
 42
5.515057864802326
  0
ELLIPSE
  5
77
330
17
100
AcDbEntity
  8
visible
100
AcDbEllipse
 10
-9.132566243990283
 20
-34.19529285763137
 30
0.0
 11
0.1984805880054041
 21
0.7749873909845432
 31
0.0
 40
0.6699286792158252
 41
-5.918037317603599
 42
-4.347240990808703
  0
LINE
  5
78
330
17
100
AcDbEntity
  8
visible
100
AcDbLine
 10
-9.688397995852
 20
-34.34782979999672
 30
0.0
 11
-6.811546141731199
 21
-35.08461500999211
 31
0.0
  0
ELLIPSE
  5
79
330
17
100
AcDbEntity
  8
visible
100
AcDbEllipse
 10
17.506093002219057
 20
-28.411123781508124
 30
0.0
 11
5.0
 21
0.0
 31
0.0
 40
0.2651108748385056
 41
5.671180866701977
 42
6.283185307179586
  0
ELLIPSE
  5
7A
330
17
100
AcDbEntity
  8
visible
100
AcDbEllipse
 10
-9.23514399354309
 20
-32.620849439718114
 30
0.0
 11
0.21171637707560842
 21
-0.7714766203054886
 31
0.0
 40
0.6934780377247011
 41
-3.5184125831299564
 42
-3.141592653589793
  0
ELLIPSE
  5
7B
330
17
100
AcDbEntity
  8
visible
100
AcDbEllipse
 10
-6.214449546716253
 20
-33.39447391021329
 30
0.0
 11
5.0
 21
0.0
 31
0.0
 40
0.2651108748385056
 41
3.141592653589793
 42
3.9442615380074293
  0
ELLIPSE
  5
7C
330
17
100
AcDbEntity
  8
visible
100
AcDbEllipse
 10
11.494521481292942
 20
33.42123697238897
 30
0.0
 11
0.21171637707560836
 21
-0.7714766203054886
 31
0.0
 40
0.6934780377247011
 41
-5.089208909924853
 42
-3.5184125831299564
  0
ELLIPSE
  5
7D
330
17
100
AcDbEntity
  8
visible
100
AcDbEllipse
 10
23.444904146319928
 20
20.116232770271196
 30
0.0
 11
-0.8
 21
-0.0
 31
0.0
 40
0.2651108748385056
 41
-3.9097200959670535
 42
-3.141592653589793
  0
ELLIPSE
  5
7E
330
17
100
AcDbEntity
  8
visible
100
AcDbEllipse
 10
11.494521481292942
 20
16.83668850941622
 30
0.0
 11
-4.465813230121592
 21
-17.43721629715222
 31
0.0
 40
0.6699286792158252
 41
3.141592653589793
 42
3.50674064316578
  0
ELLIPSE
  5
7F
330
17
100
AcDbEntity
  8
visible
100
AcDbEllipse
 10
23.444904146319928
 20
-17.970375618532543
 30
0.0
 11
-0.8
 21
1.3817079964175123e-16
 31
0.0
 40
0.26511087483850543
 41
-3.9097200959670535
 42
-3.141592653589793
  0
ELLIPSE
  5
80
330
17
100
AcDbEntity
  8
visible
100
AcDbEllipse
 10
17.506093002219057
 20
-34.582118558428235
 30
0.0
 11
5.0
 21
0.0
 31
0.0
 40
0.2651108748385056
 41
5.515057864802326
 42
6.283185307179586
  0
ELLIPSE
  5
81
330
17
100
AcDbEntity
  8
visible
100
AcDbEllipse
 10
8.329984441760061
 20
34.23170070338391
 30
0.0
 11
-0.21171637707560836
 21
0.7714766203054886
 31
0.0
 40
0.6934780377247011
 41
5.906365377639423
 42
6.283185307179586
  0
ELLIPSE
  5
82
330
17
100
AcDbEntity
  8
visible
100
AcDbEllipse
 10
8.329984441760061
 20
17.64715224041116
 30
0.0
 11
-4.465813230121592
 21
-17.43721629715222
 31
0.0
 40
0.6699286792158252
 41
3.141592653589793
 42
3.50674064316578
  0
ELLIPSE
  5
83
330
17
100
AcDbEntity
  8
visible
100
AcDbEllipse
 10
-17.340524257243544
 20
-21.181033195331835
 30
0.0
 11
-0.806327388771955
 21
-3.148386275874706
 31
0.0
 40
0.6699286792158252
 41
3.1415926535897936
 42
6.283185307179586
  0
ELLIPSE
  5
84
330
17
100
AcDbEntity
  8
visible
100
AcDbEllipse
 10
-17.340524257243544
 20
23.655100730728265
 30
0.0
 11
-0.806327388771955
 21
-3.148386275874706
 31
0.0
 40
0.6699286792158252
 41
3.1415926535897936
 42
6.283185307179586
  0
ELLIPSE
  5
85
330
17
100
AcDbEntity
  8
visible
100
AcDbEllipse
 10
-3.4447304607005407
 20
27.468524289861975
 30
0.0
 11
-0.806327388771955
 21
-3.148386275874706
 31
0.0
 40
0.6699286792158252
 41
3.1415926535897936
 42
6.03897529816455
  0
LINE
  5
86
330
17
100
AcDbEntity
  8
visible
100
AcDbLine
 10
-9.688397995852
 20
-40.51882457691682
 30
0.0
 11
-6.811546141731199
 21
-41.25560978691222
 31
0.0
  0
LINE
  5
87
330
17
100
AcDbEntity
  8
visible
100
AcDbLine
 10
-9.688397995852
 20
-40.51882457691681
 30
0.0
 11
-9.688397995852
 21
-34.34782979999672
 31
0.0
  0
ELLIPSE
  5
88
330
17
100
AcDbEntity
  8
visible
100
AcDbEllipse
 10
-6.255714389869489
 20
-41.10307284454687
 30
0.0
 11
-0.1984805880054041
 21
-0.7749873909845432
 31
0.0
 40
0.6699286792158252
 41
5.0775369699606765
 42
6.283185307179586
  0
ELLIPSE
  5
89
330
17
100
AcDbEntity
  8
visible
100
AcDbEllipse
 10
-6.214449546716253
 20
-39.56546868713339
 30
0.0
 11
5.0
 21
0.0
 31
0.0
 40
0.2651108748385056
 41
3.141592653589793
 42
3.9442615380074293
  0
ELLIPSE
  5
8A
330
17
100
AcDbEntity
  8
visible
100
AcDbEllipse
 10
-9.132566243990283
 20
-40.36628763455147
 30
0.0
 11
-0.1984805880054041
 21
-0.7749873909845432
 31
0.0
 40
0.6699286792158252
 41
5.0775369699606765
 42
6.283185307179586
  0
LINE
  5
8B
330
17
100
AcDbEntity
  8
visible
100
AcDbLine
 10
-7.19955698257553
 20
13.604923267729419
 30
0.0
 11
-7.19955698257553
 21
-24.48168512107432
 31
0.0
  0
SPLINE
  5
8C
330
17
100
AcDbEntity
  8
visible
100
AcDbSpline
 70
0
 71
3
 72
8
 73
4
 74
0
 40
0.0
 40
0.0
 40
0.0
 40
0.0
 40
1.0
 40
1.0
 40
1.0
 40
1.0
 10
-7.19955698257553
 20
-24.481685121074335
 30
0.0
 10
-7.203183961809254
 20
-27.89143088438789
 30
0.0
 10
-6.454762718004616
 20
-31.099913444141563
 30
0.0
 10
-5.052085115277862
 20
-33.59014723397347
 30
0.0
  0
SPLINE
  5
8D
330
17
100
AcDbEntity
  8
visible
100
AcDbSpline
 70
0
 71
3
 72
17
 73
13
 74
0
 40
0.0
 40
0.0
 40
0.0
 40
0.0
 40
0.3372556385045482
 40
0.3372556385045482
 40
0.3372556385045482
 40
0.5272075291668219
 40
0.5272075291668219
 40
0.5272075291668219
 40
0.766488750576749
 40
0.766488750576749
 40
0.766488750576749
 40
1.0
 40
1.0
 40
1.0
 40
1.0
 10
5.33910930537585
 20
34.24049261186268
 30
0.0
 10
3.0744074614654044
 20
33.62197162256352
 30
0.0
 10
0.8555479130898036
 20
32.17500843886597
 30
0.0
 10
-1.0478825094074244
 20
30.111469530196903
 30
0.0
 10
-2.12074391852562
 20
28.950905125157572
 30
0.0
 10
-3.0947784653194197
 20
27.597920909817056
 30
0.0
 10
-3.930688328431202
 20
26.11036546029826
 30
0.0
 10
-4.984422068880372
 20
24.237174021054678
 30
0.0
 10
-5.817279576537433
 20
22.150271333602976
 30
0.0
 10
-6.3741262138387995
 20
19.99054249388537
 30
0.0
 10
-6.918702589242818
 20
17.883214766689036
 30
0.0
 10
-7.200163418881799
 20
15.708165835842795
 30
0.0
 10
-7.199556982575529
 20
13.604923267729419
 30
0.0
  0
SPLINE
  5
8E
330
17
100
AcDbEntity
  8
visible
100
AcDbSpline
 70
0
 71
3
 72
11
 73
7
 74
0
 40
0.0
 40
0.0
 40
0.0
 40
0.0
 40
0.23623546383233993
 40
0.23623546383233993
 40
0.23623546383233993
 40
1.0
 40
1.0
 40
1.0
 40
1.0
 10
22.29210487548003
 20
-27.750821390123626
 30
0.0
 10
22.328758649513226
 20
-27.803158773441574
 30
0.0
 10
22.36133563510912
 20
-27.85834485835606
 30
0.0
 10
22.389835832267753
 20
-27.91637964486715
 30
0.0
 10
22.46442068406242
 20
-28.068030496239704
 30
0.0
 10
22.506416875386485
 20
-28.23912295090325
 30
0.0
 10
22.506093002219057
 20
-28.411123781508124
 30
0.0
  0
LINE
  5
8F
330
17
100
AcDbEntity
  8
visible
100
AcDbLine
 10
-6.206482654887353
 20
-30.960115760579747
 30
0.0
 11
-9.446860370618701
 21
-31.84937281941261
 31
0.0
  0
SPLINE
  5
90
330
17
100
AcDbEntity
  8
visible
100
AcDbSpline
 70
0
 71
3
 72
17
 73
13
 74
0
 40
0.0
 40
0.0
 40
0.0
 40
0.0
 40
0.25
 40
0.25
 40
0.25
 40
0.5
 40
0.5
 40
0.5
 40
0.75
 40
0.75
 40
0.75
 40
1.0
 40
1.0
 40
1.0
 40
1.0
 10
-9.446860370618694
 20
-31.849372819412622
 30
0.0
 10
-9.647847963436408
 20
-31.904348369213903
 30
0.0
 10
-9.833929416203855
 20
-31.96576618523261
 30
0.0
 10
-10.005104728920998
 20
-32.03362626746862
 30
0.0
 10
-10.27570176134394
 20
-32.14180870209721
 30
0.0
 10
-10.509707762542435
 20
-32.26542088379257
 30
0.0
 10
-10.709134084638727
 20
-32.42606978535569
 30
0.0
 10
-10.867642249995088
 20
-32.554204808799895
 30
0.0
 10
-11.005423301163606
 20
-32.71055083758506
 30
0.0
 10
-11.097735547247595
 20
-32.898796940714575
 30
0.0
 10
-11.172601933313423
 20
-33.05068256433081
 30
0.0
 10
-11.21477584847114
 20
-33.22211942907059
 30
0.0
 10
-11.214449546716253
 20
-33.39447391021329
 30
0.0
  0
SPLINE
  5
91
330
17
100
AcDbEntity
  8
visible
100
AcDbSpline
 70
0
 71
3
 72
14
 73
10
 74
0
 40
0.0
 40
0.0
 40
0.0
 40
0.0
 40
0.5051126885937773
 40
0.5051126885937773
 40
0.5051126885937773
 40
0.7070985769786418
 40
0.7070985769786418
 40
0.7070985769786418
 40
1.0
 40
1.0
 40
1.0
 40
1.0
 10
24.244904146319932
 20
20.116232770271196
 30
0.0
 10
24.2489832841578
 20
23.631512701011726
 30
0.0
 10
23.452559676285972
 20
26.931877308640573
 30
0.0
 10
21.96603181085699
 20
29.453559867512624
 30
0.0
 10
21.373289262611742
 20
30.463251250646465
 30
0.0
 10
20.67295833964571
 20
31.350864674549893
 30
0.0
 10
19.882489105245437
 20
32.087780628540195
 30
0.0
 10
18.737309711993408
 20
33.15741832561629
 30
0.0
 10
17.3992262192028
 20
33.906626784500666
 30
0.0
 10
15.960334711414532
 20
34.27390480656841
 30
0.0
  0
LINE
  5
92
330
17
100
AcDbEntity
  8
visible
100
AcDbLine
 10
-0.10518686869300353
 20
-41.84735498792945
 30
0.0
 11
20.73850382612151
 21
-36.127219649228884
 31
0.0
  0
LINE
  5
93
330
17
100
AcDbEntity
  8
visible
100
AcDbLine
 10
24.244904146319932
 20
-17.970375618532557
 30
0.0
 11
24.244904146319932
 21
20.116232770271182
 31
0.0
  0
LINE
  5
94
330
17
100
AcDbEntity
  8
visible
100
AcDbLine
 10
22.506093002219057
 20
-34.58211855842823
 30
0.0
 11
22.506093002219057
 21
-28.411123781508117
 31
0.0
  0
SPLINE
  5
95
330
17
100
AcDbEntity
  8
visible
100
AcDbSpline
 70
0
 71
3
 72
8
 73
4
 74
0
 40
0.0
 40
0.0
 40
0.0
 40
0.0
 40
1.0
 40
1.0
 40
1.0
 40
1.0
 10
21.839236087271964
 20
-28.78802158722675
 30
0.0
 10
23.395155948280376
 20
-25.444438243665605
 30
0.0
 10
24.25016782261156
 20
-21.601637832478016
 30
0.0
 10
24.244904146319932
 20
-17.970375618532557
 30
0.0
  0
LINE
  5
96
330
17
100
AcDbEntity
  8
visible
100
AcDbLine
 10
8.11826806468445
 20
35.0031773236894
 30
0.0
 11
5.339109305375849
 21
34.240492611862656
 31
0.0
  0
SPLINE
  5
97
330
17
100
AcDbEntity
  8
visible
100
AcDbSpline
 70
0
 71
3
 72
8
 73
4
 74
0
 40
0.0
 40
0.0
 40
0.0
 40
0.0
 40
1.0
 40
1.0
 40
1.0
 40
1.0
 10
12.795797671881651
 20
35.08436853756335
 30
0.0
 10
11.29827041574735
 20
35.46932665943973
 30
0.0
 10
9.697755877483246
 20
35.43811043638714
 30
0.0
 10
8.11826806468445
 20
35.00317732368943
 30
0.0
  0
LINE
  5
98
330
17
100
AcDbEntity
  8
visible
100
AcDbLine
 10
-7.199556982575531
 20
-20.423324283920582
 30
0.0
 11
-16.534196868471597
 21
-18.032646919457108
 31
0.0
  0
LINE
  5
99
330
17
100
AcDbEntity
  8
visible
100
AcDbLine
 10
-7.041674161566001
 20
-27.17354594688731
 30
0.0
 11
-18.146851646015506
 21
-24.32941947120652
 31
0.0
  0
LINE
  5
9A
330
17
100
AcDbEntity
  8
visible
100
AcDbLine
 10
-5.045837684705354
 20
23.861224574288556
 30
0.0
 11
-16.534196868471597
 21
26.803487006603007
 31
0.0
  0
LINE
  5
9B
330
17
100
AcDbEntity
  8
visible
100
AcDbLine
 10
-6.871512516680513
 20
17.619008194874713
 30
0.0
 11
-18.146851646015506
 21
20.50671445485358
 31
0.0
  0
LINE
  5
9C
330
17
100
AcDbEntity
  8
visible
100
AcDbLine
 10
-0.9742323187966377
 20
30.190702870662598
 30
0.0
 11
-2.638403071928586
 21
30.616910565736717
 31
0.0
  0
LINE
  5
9D
330
17
100
AcDbEntity
  8
visible
100
AcDbLine
 10
12.795797671881653
 20
35.08436853756336
 30
0.0
 11
15.960334711414534
 21
34.27390480656842
 31
0.0
  0
SPLINE
  5
9E
330
17
100
AcDbEntity
  8
visible
100
AcDbSpline
 70
0
 71
3
 72
11
 73
7
 74
0
 40
0.0
 40
0.0
 40
0.0
 40
0.0
 40
0.48995343714332945
 40
0.48995343714332945
 40
0.48995343714332945
 40
1.0
 40
1.0
 40
1.0
 40
1.0
 10
-6.454194977874891
 20
-41.87806023553141
 30
0.0
 10
-5.599573356119373
 20
-42.09779983252683
 30
0.0
 10
-4.471442109918941
 20
-42.21666109553106
 30
0.0
 10
-3.329854108312955
 20
-42.21571822693688
 30
0.0
 10
-2.140871159667681
 20
-42.21555613394753
 30
0.0
 10
-0.9703036975799151
 20
-42.08574219655948
 30
0.0
 10
-0.10518686869301064
 20
-41.84735498792944
 30
0.0
  0
LINE
  5
9F
330
17
100
AcDbEntity
  8
visible
100
AcDbLine
 10
-11.214449546716253
 20
-39.56546868713339
 30
0.0
 11
-11.214449546716253
 21
-33.39447391021328
 31
0.0
  0
SPLINE
  5
A0
330
17
100
AcDbEntity
  8
visible
100
AcDbSpline
 70
0
 71
3
 72
17
 73
13
 74
0
 40
0.0
 40
0.0
 40
0.0
 40
0.0
 40
0.25
 40
0.25
 40
0.25
 40
0.5
 40
0.5
 40
0.5
 40
0.75
 40
0.75
 40
0.75
 40
1.0
 40
1.0
 40
1.0
 40
1.0
 10
20.738503826121505
 20
-36.12721964922888
 30
0.0
 10
20.93949141893921
 20
-36.07224409942755
 30
0.0
 10
21.12557287170666
 20
-36.010826283408946
 30
0.0
 10
21.2967481844238
 20
-35.94296620117288
 30
0.0
 10
21.56734521684676
 20
-35.8347837665443
 30
0.0
 10
21.801351218045223
 20
-35.711171584848955
 30
0.0
 10
22.000777540141534
 20
-35.550522683285806
 30
0.0
 10
22.159285705497897
 20
-35.42238765984165
 30
0.0
 10
22.297066756666414
 20
-35.26604163105646
 30
0.0
 10
22.389379002750395
 20
-35.07779552792694
 30
0.0
 10
22.464245388816227
 20
-34.925909904310664
 30
0.0
 10
22.50641930397394
 20
-34.754473039570925
 30
0.0
 10
22.506093002219057
 20
-34.582118558428235
 30
0.0
  0
SPLINE
  5
A1
330
17
100
AcDbEntity
  8
visible
100
AcDbSpline
 70
0
 71
3
 72
20
 73
16
 74
0
 40
0.0
 40
0.0
 40
0.0
 40
0.0
 40
0.26080283924431846
 40
0.26080283924431846
 40
0.26080283924431846
 40
0.4521739052543131
 40
0.4521739052543131
 40
0.4521739052543131
 40
0.8300757662323877
 40
0.8300757662323877
 40
0.8300757662323877
 40
0.9150378831161938
 40
0.9150378831161938
 40
0.9150378831161938
 40
1.0
 40
1.0
 40
1.0
 40
1.0
 10
-16.53419686847159
 20
-18.03264691945712
 30
0.0
 10
-16.963111735596502
 20
-17.921684747943942
 30
0.0
 10
-17.433577736551683
 20
-17.98712716682875
 30
0.0
 10
-17.867862365006864
 20
-18.21369417164001
 30
0.0
 10
-18.18699739127836
 20
-18.378981272954846
 30
0.0
 10
-18.48775013421965
 20
-18.62896610066685
 30
0.0
 10
-18.7483579366711
 20
-18.94248152818878
 30
0.0
 10
-19.265370796449773
 20
-19.559651645257777
 30
0.0
 10
-19.616439542284933
 20
-20.43192225407904
 30
0.0
 10
-19.699367934024266
 20
-21.296383693215375
 30
0.0
 10
-19.771211831101873
 20
-22.012601200289375
 30
0.0
 10
-19.661477774075145
 20
-22.715266463127044
 30
0.0
 10
-19.386225908803723
 20
-23.259939239877696
 30
0.0
 10
-19.11241608386989
 20
-23.80988588266897
 30
0.0
 10
-18.666771505036404
 20
-24.198413082375705
 30
0.0
 10
-18.1468516460155
 20
-24.329419471206535
 30
0.0
  0
SPLINE
  5
A2
330
17
100
AcDbEntity
  8
visible
100
AcDbSpline
 70
0
 71
3
 72
20
 73
16
 74
0
 40
0.0
 40
0.0
 40
0.0
 40
0.0
 40
0.26080283924431846
 40
0.26080283924431846
 40
0.26080283924431846
 40
0.4521739052543131
 40
0.4521739052543131
 40
0.4521739052543131
 40
0.8300757662323877
 40
0.8300757662323877
 40
0.8300757662323877
 40
0.9150378831161938
 40
0.9150378831161938
 40
0.9150378831161938
 40
1.0
 40
1.0
 40
1.0
 40
1.0
 10
-16.53419686847159
 20
26.803487006602992
 30
0.0
 10
-16.963111735596502
 20
26.914449178116108
 30
0.0
 10
-17.433577736551683
 20
26.84900675923137
 30
0.0
 10
-17.867862365006864
 20
26.622439754420085
 30
0.0
 10
-18.18699739127836
 20
26.457152653105222
 30
0.0
 10
-18.48775013421965
 20
26.20716782539323
 30
0.0
 10
-18.7483579366711
 20
25.89365239787132
 30
0.0
 10
-19.265370796449773
 20
25.276482280802327
 30
0.0
 10
-19.616439542284933
 20
24.404211671981052
 30
0.0
 10
-19.699367934024266
 20
23.539750232844725
 30
0.0
 10
-19.771211831101873
 20
22.823532725770725
 30
0.0
 10
-19.661477774075145
 20
22.12086746293308
 30
0.0
 10
-19.386225908803723
 20
21.57619468618242
 30
0.0
 10
-19.11241608386989
 20
21.026248043391128
 30
0.0
 10
-18.666771505036404
 20
20.637720843684406
 30
0.0
 10
-18.1468516460155
 20
20.506714454853565
 30
0.0
  0
SPLINE
  5
A3
330
17
100
AcDbEntity
  8
visible
100
AcDbSpline
 70
0
 71
3
 72
20
 73
16
 74
0
 40
0.0
 40
0.0
 40
0.0
 40
0.0
 40
0.26080283924432
 40
0.26080283924432
 40
0.26080283924432
 40
0.4521739052543159
 40
0.4521739052543159
 40
0.4521739052543159
 40
0.8300757662323865
 40
0.8300757662323865
 40
0.8300757662323865
 40
0.9150378831161932
 40
0.9150378831161932
 40
0.9150378831161932
 40
0.9717019564806243
 40
0.9717019564806243
 40
0.9717019564806243
 40
0.9717019564806243
 10
-2.6384030719285865
 20
30.61691056573669
 30
0.0
 10
-3.067317939053495
 20
30.72787273724985
 30
0.0
 10
-3.537783940008676
 20
30.662430318365033
 30
0.0
 10
-3.9720685684638606
 20
30.435863313553792
 30
0.0
 10
-4.291203594735354
 20
30.27057621223897
 30
0.0
 10
-4.59195633767664
 20
30.020591384526966
 30
0.0
 10
-4.8525641401280915
 20
29.707075957005042
 30
0.0
 10
-5.36957699990676
 20
29.089905839935998
 30
0.0
 10
-5.720645745741924
 20
28.217635231114784
 30
0.0
 10
-5.803574137481262
 20
27.353173791978442
 30
0.0
 10
-5.875418034558869
 20
26.636956284904432
 30
0.0
 10
-5.765683977532139
 20
25.93429102206677
 30
0.0
 10
-5.49043211226072
 20
25.38961824531612
 30
0.0
 10
-5.306869152949784
 20
25.023510376706785
 30
0.0
 10
-5.049708278786304
 20
24.727203380049236
 30
0.0
 10
-4.7422876317533404
 20
24.533156893864454
 30
0.0
  0
LINE
  5
A4
330
17
100
AcDbEntity
  8
visible
100
AcDbLine
 10
-9.331046831995685
 20
-41.14127502553601
 30
0.0
 11
-6.454194977874887
 21
-41.87806023553141
 31
0.0
  0
SPLINE
  5
A5
330
17
100
AcDbEntity
  8
visible
100
AcDbSpline
 70
0
 71
3
 72
17
 73
13
 74
0
 40
0.0
 40
0.0
 40
0.0
 40
0.0
 40
0.25
 40
0.25
 40
0.25
 40
0.5
 40
0.5
 40
0.5
 40
0.75
 40
0.75
 40
0.75
 40
1.0
 40
1.0
 40
1.0
 40
1.0
 10
-11.214449546716253
 20
-39.56546868713339
 30
0.0
 10
-11.214757292586462
 20
-39.73507582351154
 30
0.0
 10
-11.173953672498484
 20
-39.903835189723566
 30
0.0
 10
-11.101264339238668
 20
-40.05388601525809
 30
0.0
 10
-11.00887841548472
 20
-40.24555263190583
 30
0.0
 10
-10.869315712760741
 20
-40.40451793012272
 30
0.0
 10
-10.708516488230956
 20
-40.53437248565875
 30
0.0
 10
-10.508769381288719
 20
-40.695134623511365
 30
0.0
 10
-10.274366689218555
 20
-40.81881165676482
 30
0.0
 10
-10.003267799740868
 20
-40.927046545388194
 30
0.0
 10
-9.800085042271638
 20
-41.007395582363074
 30
0.0
 10
-9.576011386356582
 20
-41.078805075745684
 30
0.0
 10
-9.331046831995685
 20
-41.14127502553601
 30
0.0
  0
ENDSEC
  0
SECTION
  2
OBJECTS
  0
DICTIONARY
  5
A
330
0
100
AcDbDictionary
281
1
  3
ACAD_COLOR
350
B
  3
ACAD_GROUP
350
C
  3
ACAD_LAYOUT
350
D
  3
ACAD_MATERIAL
350
E
  3
ACAD_MLEADERSTYLE
350
F
  3
ACAD_MLINESTYLE
350
10
  3
ACAD_PLOTSETTINGS
350
11
  3
ACAD_PLOTSTYLENAME
350
12
  3
ACAD_SCALELIST
350
14
  3
ACAD_TABLESTYLE
350
15
  3
ACAD_VISUALSTYLE
350
16
  3
EZDXF_META
350
2D
  0
DICTIONARY
  5
B
330
A
100
AcDbDictionary
281
1
  0
DICTIONARY
  5
C
330
A
100
AcDbDictionary
281
1
  0
DICTIONARY
  5
D
330
A
100
AcDbDictionary
281
1
  3
Model
350
1A
  3
Layout1
350
1E
  0
DICTIONARY
  5
E
330
A
100
AcDbDictionary
281
1
  3
ByBlock
350
1F
  3
ByLayer
350
20
  3
Global
350
21
  0
DICTIONARY
  5
F
330
A
100
AcDbDictionary
281
1
  3
Standard
350
2C
  0
DICTIONARY
  5
10
330
A
100
AcDbDictionary
281
1
  3
Standard
350
22
  0
DICTIONARY
  5
11
330
A
100
AcDbDictionary
281
1
  0
ACDBDICTIONARYWDFLT
  5
12
330
A
100
AcDbDictionary
281
1
  3
Normal
350
13
100
AcDbDictionaryWithDefault
340
13
  0
ACDBPLACEHOLDER
  5
13
330
12
  0
DICTIONARY
  5
14
330
A
100
AcDbDictionary
281
1
  0
DICTIONARY
  5
15
330
A
100
AcDbDictionary
281
1
  0
DICTIONARY
  5
16
330
A
100
AcDbDictionary
281
1
  0
LAYOUT
  5
1A
330
D
100
AcDbPlotSettings
  1

  4
A3
  6

 40
7.5
 41
20.0
 42
7.5
 43
20.0
 44
420.0
 45
297.0
 46
0.0
 47
0.0
 48
0.0
 49
0.0
140
0.0
141
0.0
142
1.0
143
1.0
 70
1024
 72
1
 73
0
 74
5
  7

 75
16
 76
0
 77
2
 78
300
147
1.0
148
0.0
149
0.0
100
AcDbLayout
  1
Model
 70
1
 71
0
 10
0.0
 20
0.0
 11
420.0
 21
297.0
 12
0.0
 22
0.0
 32
0.0
 14
1e+20
 24
1e+20
 34
1e+20
 15
-1e+20
 25
-1e+20
 35
-1e+20
146
0.0
 13
0.0
 23
0.0
 33
0.0
 16
1.0
 26
0.0
 36
0.0
 17
0.0
 27
1.0
 37
0.0
 76
1
330
17
  0
LAYOUT
  5
1E
330
D
100
AcDbPlotSettings
  1

  4
A3
  6

 40
7.5
 41
20.0
 42
7.5
 43
20.0
 44
420.0
 45
297.0
 46
0.0
 47
0.0
 48
0.0
 49
0.0
140
0.0
141
0.0
142
1.0
143
1.0
 70
0
 72
1
 73
0
 74
5
  7

 75
16
 76
0
 77
2
 78
300
147
1.0
148
0.0
149
0.0
100
AcDbLayout
  1
Layout1
 70
1
 71
1
 10
0.0
 20
0.0
 11
420.0
 21
297.0
 12
0.0
 22
0.0
 32
0.0
 14
1e+20
 24
1e+20
 34
1e+20
 15
-1e+20
 25
-1e+20
 35
-1e+20
146
0.0
 13
0.0
 23
0.0
 33
0.0
 16
1.0
 26
0.0
 36
0.0
 17
0.0
 27
1.0
 37
0.0
 76
1
330
1B
  0
MATERIAL
  5
1F
102
{ACAD_REACTORS
330
E
102
}
330
E
100
AcDbMaterial
  1
ByBlock
  2

 70
0
 40
1.0
 71
1
 41
1.0
 91
-1023410177
 42
1.0
 72
1
  3

 73
1
 74
1
 75
1
 44
0.5
 73
0
 45
1.0
 46
1.0
 77
1
  4

 78
1
 79
1
170
1
 48
1.0
171
1
  6

172
1
173
1
174
1
140
1.0
141
1.0
175
1
  7

176
1
177
1
178
1
143
1.0
179
1
  8

270
1
271
1
272
1
145
1.0
146
1.0
273
1
  9

274
1
275
1
276
1
 42
1.0
 72
1
  3

 73
1
 74
1
 75
1
 94
63
  0
MATERIAL
  5
20
102
{ACAD_REACTORS
330
E
102
}
330
E
100
AcDbMaterial
  1
ByLayer
  2

 70
0
 40
1.0
 71
1
 41
1.0
 91
-1023410177
 42
1.0
 72
1
  3

 73
1
 74
1
 75
1
 44
0.5
 73
0
 45
1.0
 46
1.0
 77
1
  4

 78
1
 79
1
170
1
 48
1.0
171
1
  6

172
1
173
1
174
1
140
1.0
141
1.0
175
1
  7

176
1
177
1
178
1
143
1.0
179
1
  8

270
1
271
1
272
1
145
1.0
146
1.0
273
1
  9

274
1
275
1
276
1
 42
1.0
 72
1
  3

 73
1
 74
1
 75
1
 94
63
  0
MATERIAL
  5
21
102
{ACAD_REACTORS
330
E
102
}
330
E
100
AcDbMaterial
  1
Global
  2

 70
0
 40
1.0
 71
1
 41
1.0
 91
-1023410177
 42
1.0
 72
1
  3

 73
1
 74
1
 75
1
 44
0.5
 73
0
 45
1.0
 46
1.0
 77
1
  4

 78
1
 79
1
170
1
 48
1.0
171
1
  6

172
1
173
1
174
1
140
1.0
141
1.0
175
1
  7

176
1
177
1
178
1
143
1.0
179
1
  8

270
1
271
1
272
1
145
1.0
146
1.0
273
1
  9

274
1
275
1
276
1
 42
1.0
 72
1
  3

 73
1
 74
1
 75
1
 94
63
  0
MLINESTYLE
  5
22
102
{ACAD_REACTORS
330
10
102
}
330
10
100
AcDbMlineStyle
  2
Standard
 70
0
  3

 62
256
 51
90.0
 52
90.0
 71
2
 49
0.5
 62
256
  6
BYLAYER
 49
-0.5
 62
256
  6
BYLAYER
  0
MLEADERSTYLE
  5
2C
102
{ACAD_REACTORS
330
F
102
}
330
F
100
AcDbMLeaderStyle
179
2
170
2
171
1
172
0
 90
2
 40
0.0
 41
0.0
173
1
 91
-1056964608
 92
-2
290
1
 42
2.0
291
1
 43
8.0
  3
Standard
 44
4.0
300

342
29
174
1
175
1
176
0
178
1
 93
-1056964608
 45
4.0
292
0
297
0
 46
4.0
 94
-1056964608
 47
1.0
 49
1.0
140
1.0
294
1
141
0.0
177
0
142
1.0
295
0
296
0
143
3.75
271
0
272
9
273
9
  0
DICTIONARY
  5
2D
330
A
100
AcDbDictionary
280
1
281
1
  3
CREATED_BY_EZDXF
350
2E
  3
WRITTEN_BY_EZDXF
350
A9
  0
DICTIONARYVAR
  5
2E
330
2D
100
DictionaryVariables
280
0
  1
1.4.4 @ 2026-10-02T15:35:52.389244+00:00
  0
DICTIONARYVAR
  5
A9
330
2D
100
DictionaryVariables
280
0
  1
1.4.4 @ 2026-10-02T15:35:52.420593+00:00
  0
ENDSEC
  0
EOF
