  0
SECTION
  2
HEADER
  9
$ACADVER
  1
AC1027
  9
$ACADMAINTVER
 70
105
  9
$DWGCODEPAGE
  3
ANSI_1252
  9
$LASTSAVEDBY
  1
ezdxf
  9
$REQUIREDVERSIONS
160
0
  9
$INSBASE
 10
0.0
 20
0.0
 30
0.0
  9
$EXTMIN
 10
1e+20
 20
1e+20
 30
1e+20
  9
$EXTMAX
 10
-1e+20
 20
-1e+20
 30
-1e+20
  9
$LIMMIN
 10
0.0
 20
0.0
  9
$LIMMAX
 10
420.0
 20
297.0
  9
$ORTHOMODE
 70
0
  9
$REGENMODE
 70
1
  9
$FILLMODE
 70
1
  9
$QTEXTMODE
 70
0
  9
$MIRRTEXT
 70
1
  9
$LTSCALE
 40
1.0
  9
$ATTMODE
 70
1
  9
$TEXTSIZE
 40
2.5
  9
$TRACEWID
 40
1.0
  9
$TEXTSTYLE
  7
Standard
  9
$CLAYER
  8
0
  9
$CELTYPE
  6
ByLayer
  9
$CECOLOR
 62
256
  9
$CELTSCALE
 40
1.0
  9
$DISPSILH
 70
0
  9
$DIMSCALE
 40
1.0
  9
$DIMASZ
 40
2.5
  9
$DIMEXO
 40
0.625
  9
$DIMDLI
 40
3.75
  9
$DIMRND
 40
0.0
  9
$DIMDLE
 40
0.0
  9
$DIMEXE
 40
1.25
  9
$DIMTP
 40
0.0
  9
$DIMTM
 40
0.0
  9
$DIMTXT
 40
2.5
  9
$DIMCEN
 40
2.5
  9
$DIMTSZ
 40
0.0
  9
$DIMTOL
 70
0
  9
$DIMLIM
 70
0
  9
$DIMTIH
 70
0
  9
$DIMTOH
 70
0
  9
$DIMSE1
 70
0
  9
$DIMSE2
 70
0
  9
$DIMTAD
 70
1
  9
$DIMZIN
 70
8
  9
$DIMBLK
  1

  9
$DIMASO
 70
1
  9
$DIMSHO
 70
1
  9
$DIMPOST
  1

  9
$DIMAPOST
  1

  9
$DIMALT
 70
0
  9
$DIMALTD
 70
3
  9
$DIMALTF
 40
0.03937007874
  9
$DIMLFAC
 40
1.0
  9
$DIMTOFL
 70
1
  9
$DIMTVP
 40
0.0
  9
$DIMTIX
 70
0
  9
$DIMSOXD
 70
0
  9
$DIMSAH
 70
0
  9
$DIMBLK1
  1

  9
$DIMBLK2
  1

  9
$DIMSTYLE
  2
ISO-25
  9
$DIMCLRD
 70
0
  9
$DIMCLRE
 70
0
  9
$DIMCLRT
 70
0
  9
$DIMTFAC
 40
1.0
  9
$DIMGAP
 40
0.625
  9
$DIMJUST
 70
0
  9
$DIMSD1
 70
0
  9
$DIMSD2
 70
0
  9
$DIMTOLJ
 70
0
  9
$DIMTZIN
 70
8
  9
$DIMALTZ
 70
0
  9
$DIMALTTZ
 70
0
  9
$DIMUPT
 70
0
  9
$DIMDEC
 70
2
  9
$DIMTDEC
 70
2
  9
$DIMALTU
 70
2
  9
$DIMALTTD
 70
3
  9
$DIMTXSTY
  7
Standard
  9
$DIMAUNIT
 70
0
  9
$DIMADEC
 70
0
  9
$DIMALTRND
 40
0.0
  9
$DIMAZIN
 70
0
  9
$DIMDSEP
 70
44
  9
$DIMATFIT
 70
3
  9
$DIMFRAC
 70
0
  9
$DIMLDRBLK
  1

  9
$DIMLUNIT
 70
2
  9
$DIMLWD
 70
-2
  9
$DIMLWE
 70
-2
  9
$DIMTMOVE
 70
0
  9
$DIMFXL
 40
1.0
  9
$DIMFXLON
 70
0
  9
$DIMJOGANG
 40
0.785398163397
  9
$DIMTFILL
 70
0
  9
$DIMTFILLCLR
 70
0
  9
$DIMARCSYM
 70
0
  9
$DIMLTYPE
  6

  9
$DIMLTEX1
  6

  9
$DIMLTEX2
  6

  9
$DIMTXTDIRECTION
 70
0
  9
$LUNITS
 70
2
  9
$LUPREC
 70
4
  9
$SKETCHINC
 40
1.0
  9
$FILLETRAD
 40
10.0
  9
$AUNITS
 70
0
  9
$AUPREC
 70
2
  9
$MENU
  1
.
  9
$ELEVATION
 40
0.0
  9
$PELEVATION
 40
0.0
  9
$THICKNESS
 40
0.0
  9
$LIMCHECK
 70
0
  9
$CHAMFERA
 40
0.0
  9
$CHAMFERB
 40
0.0
  9
$CHAMFERC
 40
0.0
  9
$CHAMFERD
 40
0.0
  9
$SKPOLY
 70
0
  9
$TDCREATE
 40
2461316.6496527777
  9
$TDUCREATE
 40
2458532.153996898
  9
$TDUPDATE
 40
2461316.6496527777
  9
$TDUUPDATE
 40
2458532.1544311
  9
$TDINDWG
 40
0.0
  9
$TDUSRTIMER
 40
0.0
  9
$USRTIMER
 70
1
  9
$ANGBASE
 50
0.0
  9
$ANGDIR
 70
0
  9
$PDMODE
 70
0
  9
$PDSIZE
 40
0.0
  9
$PLINEWID
 40
0.0
  9
$SPLFRAME
 70
0
  9
$SPLINETYPE
 70
6
  9
$SPLINESEGS
 70
8
  9
$HANDSEED
  5
A6
  9
$SURFTAB1
 70
6
  9
$SURFTAB2
 70
6
  9
$SURFTYPE
 70
6
  9
$SURFU
 70
6
  9
$SURFV
 70
6
  9
$UCSBASE
  2

  9
$UCSNAME
  2

  9
$UCSORG
 10
0.0
 20
0.0
 30
0.0
  9
$UCSXDIR
 10
1.0
 20
0.0
 30
0.0
  9
$UCSYDIR
 10
0.0
 20
1.0
 30
0.0
  9
$UCSORTHOREF
  2

  9
$UCSORTHOVIEW
 70
0
  9
$UCSORGTOP
 10
0.0
 20
0.0
 30
0.0
  9
$UCSORGBOTTOM
 10
0.0
 20
0.0
 30
0.0
  9
$UCSORGLEFT
 10
0.0
 20
0.0
 30
0.0
  9
$UCSORGRIGHT
 10
0.0
 20
0.0
 30
0.0
  9
$UCSORGFRONT
 10
0.0
 20
0.0
 30
0.0
  9
$UCSORGBACK
 10
0.0
 20
0.0
 30
0.0
  9
$PUCSBASE
  2

  9
$PUCSNAME
  2

  9
$PUCSORG
 10
0.0
 20
0.0
 30
0.0
  9
$PUCSXDIR
 10
1.0
 20
0.0
 30
0.0
  9
$PUCSYDIR
 10
0.0
 20
1.0
 30
0.0
  9
$PUCSORTHOREF
  2

  9
$PUCSORTHOVIEW
 70
0
  9
$PUCSORGTOP
 10
0.0
 20
0.0
 30
0.0
  9
$PUCSORGBOTTOM
 10
0.0
 20
0.0
 30
0.0
  9
$PUCSORGLEFT
 10
0.0
 20
0.0
 30
0.0
  9
$PUCSORGRIGHT
 10
0.0
 20
0.0
 30
0.0
  9
$PUCSORGFRONT
 10
0.0
 20
0.0
 30
0.0
  9
$PUCSORGBACK
 10
0.0
 20
0.0
 30
0.0
  9
$USERI1
 70
0
  9
$USERI2
 70
0
  9
$USERI3
 70
0
  9
$USERI4
 70
0
  9
$USERI5
 70
0
  9
$USERR1
 40
0.0
  9
$USERR2
 40
0.0
  9
$USERR3
 40
0.0
  9
$USERR4
 40
0.0
  9
$USERR5
 40
0.0
  9
$WORLDVIEW
 70
1
  9
$SHADEDGE
 70
3
  9
$SHADEDIF
 70
70
  9
$TILEMODE
 70
1
  9
$MAXACTVP
 70
64
  9
$PINSBASE
 10
0.0
 20
0.0
 30
0.0
  9
$PLIMCHECK
 70
0
  9
$PEXTMIN
 10
1e+20
 20
1e+20
 30
1e+20
  9
$PEXTMAX
 10
-1e+20
 20
-1e+20
 30
-1e+20
  9
$PLIMMIN
 10
0.0
 20
0.0
  9
$PLIMMAX
 10
420.0
 20
297.0
  9
$UNITMODE
 70
0
  9
$VISRETAIN
 70
1
  9
$PLINEGEN
 70
0
  9
$PSLTSCALE
 70
1
  9
$TREEDEPTH
 70
3020
  9
$CMLSTYLE
  2
Standard
  9
$CMLJUST
 70
0
  9
$CMLSCALE
 40
20.0
  9
$PROXYGRAPHICS
 70
1
  9
$MEASUREMENT
 70
1
  9
$CELWEIGHT
370
-1
  9
$ENDCAPS
280
0
  9
$JOINSTYLE
280
0
  9
$LWDISPLAY
290
0
  9
$INSUNITS
 70
4
  9
$HYPERLINKBASE
  1

  9
$STYLESHEET
  1

  9
$XEDIT
290
1
  9
$CEPSNTYPE
380
0
  9
$PSTYLEMODE
290
1
  9
$FINGERPRINTGUID
  2
{589C59CF-F902-4208-9197-13EAB9616B9B}
  9
$VERSIONGUID
  2
{00A2295C-5A12-43B5-871D-C41CB19F3F1F}
  9
$EXTNAMES
290
1
  9
$PSVPSCALE
 40
0.0
  9
$OLESTARTUP
290
0
  9
$SORTENTS
280
127
  9
$INDEXCTL
280
0
  9
$HIDETEXT
280
1
  9
$XCLIPFRAME
280
1
  9
$HALOGAP
280
0
  9
$OBSCOLOR
 70
257
  9
$OBSLTYPE
280
0
  9
$INTERSECTIONDISPLAY
280
0
  9
$INTERSECTIONCOLOR
 70
257
  9
$DIMASSOC
280
2
  9
$PROJECTNAME
  1

  9
$CAMERADISPLAY
290
0
  9
$LENSLENGTH
 40
50.0
  9
$CAMERAHEIGHT
 40
0.0
  9
$STEPSPERSEC
 40
24.0
  9
$STEPSIZE
 40
100.0
  9
$3DDWFPREC
 40
2.0
  9
$PSOLWIDTH
 40
0.005
  9
$PSOLHEIGHT
 40
0.08
  9
$LOFTANG1
 40
1.570796326795
  9
$LOFTANG2
 40
1.570796326795
  9
$LOFTMAG1
 40
0.0
  9
$LOFTMAG2
 40
0.0
  9
$LOFTPARAM
 70
7
  9
$LOFTNORMALS
280
1
  9
$LATITUDE
 40
37.795
  9
$LONGITUDE
 40
-122.394
  9
$NORTHDIRECTION
 40
0.0
  9
$TIMEZONE
 70
-8000
  9
$LIGHTGLYPHDISPLAY
280
1
  9
$TILEMODELIGHTSYNCH
280
1
  9
$CMATERIAL
347
20
  9
$SOLIDHIST
280
0
  9
$SHOWHIST
280
1
  9
$DWFFRAME
280
2
  9
$DGNFRAME
280
2
  9
$REALWORLDSCALE
290
1
  9
$INTERFERECOLOR
 62
256
  9
$CSHADOW
280
0
  9
$SHADOWPLANELOCATION
 40
0.0
  0
ENDSEC
  0
SECTION
  2
CLASSES
  0
CLASS
  1
ACDBDICTIONARYWDFLT
  2
AcDbDictionaryWithDefault
  3
ObjectDBX Classes
 90
0
 91
0
280
0
281
0
  0
CLASS
  1
SUN
  2
AcDbSun
  3
SCENEOE
 90
1153
 91
0
280
0
281
0
  0
CLASS
  1
VISUALSTYLE
  2
AcDbVisualStyle
  3
ObjectDBX Classes
 90
4095
 91
0
280
0
281
0
  0
CLASS
  1
MATERIAL
  2
AcDbMaterial
  3
ObjectDBX Classes
 90
1153
 91
0
280
0
281
0
  0
CLASS
  1
SCALE
  2
AcDbScale
  3
ObjectDBX Classes
 90
1153
 91
0
280
0
281
0
  0
CLASS
  1
TABLESTYLE
  2
AcDbTableStyle
  3
ObjectDBX Classes
 90
4095
 91
0
280
0
281
0
  0
CLASS
  1
MLEADERSTYLE
  2
AcDbMLeaderStyle
  3
ACDB_MLEADERSTYLE_CLASS
 90
4095
 91
0
280
0
281
0
  0
CLASS
  1
DICTIONARYVAR
  2
AcDbDictionaryVar
  3
ObjectDBX Classes
 90
0
 91
0
280
0
281
0
  0
CLASS
  1
CELLSTYLEMAP
  2
AcDbCellStyleMap
  3
ObjectDBX Classes
 90
1152
 91
0
280
0
281
0
  0
CLASS
  1
MENTALRAYRENDERSETTINGS
  2
AcDbMentalRayRenderSettings
  3
SCENEOE
 90
1024
 91
0
280
0
281
0
  0
CLASS
  1
ACDBDETAILVIEWSTYLE
  2
AcDbDetailViewStyle
  3
ObjectDBX Classes
 90
1025
 91
0
280
0
281
0
  0
CLASS
  1
ACDBSECTIONVIEWSTYLE
  2
AcDbSectionViewStyle
  3
ObjectDBX Classes
 90
1025
 91
0
280
0
281
0
  0
CLASS
  1
RASTERVARIABLES
  2
AcDbRasterVariables
  3
ISM
 90
0
 91
0
280
0
281
0
  0
CLASS
  1
LAYOUT
  2
AcDbLayout
  3
ObjectDBX Classes
 90
0
 91
0
280
0
281
0
  0
CLASS
  1
ACDBPLACEHOLDER
  2
AcDbPlaceHolder
  3
ObjectDBX Classes
 90
0
 91
0
280
0
281
0
  0
ENDSEC
  0
SECTION
  2
TABLES
  0
TABLE
  2
VPORT
  5
8
330
0
100
AcDbSymbolTable
 70
1
  0
VPORT
  5
A2
330
8
100
AcDbSymbolTableRecord
100
AcDbViewportTableRecord
  2
*Active
 70
0
 10
0.0
 20
0.0
 11
1.0
 21
1.0
 12
0.4623564151376627
 22
0.5892342891391635
 13
0.0
 23
0.0
 14
0.5
 24
0.5
 15
0.5
 25
0.5
 16
0.0
 26
0.0
 36
1.0
 17
0.0
 27
0.0
 37
0.0
 40
77.76319767970162
 41
1.34
 42
50.0
 43
0.0
 44
0.0
 50
0.0
 51
0.0
 71
0
 72
1000
 73
1
 74
3
 75
0
 76
0
 77
0
 78
0
281
0
 65
1
110
0.0
120
0.0
130
0.0
111
1.0
121
0.0
131
0.0
112
0.0
122
1.0
132
0.0
 79
0
146
0.0
  0
ENDTAB
  0
TABLE
  2
LTYPE
  5
2
330
0
100
AcDbSymbolTable
 70
3
  0
LTYPE
  5
24
330
2
100
AcDbSymbolTableRecord
100
AcDbLinetypeTableRecord
  2
ByBlock
 70
0
  3

 72
65
 73
0
 40
0.0
  0
LTYPE
  5
25
330
2
100
AcDbSymbolTableRecord
100
AcDbLinetypeTableRecord
  2
ByLayer
 70
0
  3

 72
65
 73
0
 40
0.0
  0
LTYPE
  5
26
330
2
100
AcDbSymbolTableRecord
100
AcDbLinetypeTableRecord
  2
Continuous
 70
0
  3

 72
65
 73
0
 40
0.0
  0
ENDTAB
  0
TABLE
  2
LAYER
  5
1
330
0
100
AcDbSymbolTable
 70
3
  0
LAYER
  5
27
330
1
100
AcDbSymbolTableRecord
100
AcDbLayerTableRecord
  2
0
 70
0
 62
7
  6
Continuous
370
-3
390
13
347
21
  0
LAYER
  5
28
330
1
100
AcDbSymbolTableRecord
100
AcDbLayerTableRecord
  2
Defpoints
 70
0
 62
7
  6
Continuous
290
0
370
-3
390
13
347
21
  0
LAYER
  5
2F
330
1
100
AcDbSymbolTableRecord
100
AcDbLayerTableRecord
  2
visible
 70
0
 62
7
  6
Continuous
370
-3
390
13
347
21
  0
ENDTAB
  0
TABLE
  2
STYLE
  5
5
330
0
100
AcDbSymbolTable
 70
1
  0
STYLE
  5
29
330
5
100
AcDbSymbolTableRecord
100
AcDbTextStyleTableRecord
  2
Standard
 70
0
 40
0.0
 41
1.0
 50
0.0
 71
0
 42
2.5
  3
txt
  4

  0
ENDTAB
  0
TABLE
  2
VIEW
  5
7
330
0
100
AcDbSymbolTable
 70
0
  0
ENDTAB
  0
TABLE
  2
UCS
  5
6
330
0
100
AcDbSymbolTable
 70
0
  0
ENDTAB
  0
TABLE
  2
APPID
  5
3
330
0
100
AcDbSymbolTable
 70
3
  0
APPID
  5
2A
330
3
100
AcDbSymbolTableRecord
100
AcDbRegAppTableRecord
  2
ACAD
 70
0
  0
APPID
  5
A3
330
3
100
AcDbSymbolTableRecord
100
AcDbRegAppTableRecord
  2
HATCHBACKGROUNDCOLOR
 70
0
  0
APPID
  5
A4
330
3
100
AcDbSymbolTableRecord
100
AcDbRegAppTableRecord
  2
EZDXF
 70
0
  0
ENDTAB
  0
TABLE
  2
DIMSTYLE
  5
4
330
0
100
AcDbSymbolTable
 70
1
100
AcDbDimStyleTable
  0
DIMSTYLE
105
2B
330
4
100
AcDbSymbolTableRecord
100
AcDbDimStyleTableRecord
  2
Standard
 70
0
 40
1.0
 41
2.5
 42
0.625
 43
3.75
 44
1.25
 45
0.0
 46
0.0
 47
0.0
 48
0.0
 49
2.5
140
2.5
141
2.5
142
0.0
143
0.03937007874
144
1.0
145
0.0
146
1.0
147
0.625
148
0.0
 69
0
 70
0
 71
0
 72
0
 73
0
 74
0
 75
0
 76
0
 77
1
 78
8
 79
3
170
0
171
3
172
1
173
0
174
0
175
0
176
0
177
0
178
0
179
2
271
2
272
2
273
2
274
3
275
0
276
0
277
2
278
44
279
0
280
0
281
0
282
0
283
0
284
8
285
0
286
0
288
0
289
3
290
0
371
-2
372
-2
  0
ENDTAB
  0
TABLE
  2
BLOCK_RECORD
  5
9
330
0
100
AcDbSymbolTable
 70
2
  0
BLOCK_RECORD
  5
17
330
9
100
AcDbSymbolTableRecord
100
AcDbBlockTableRecord
  2
*Model_Space
340
1A
 70
0
280
1
281
0
  0
BLOCK_RECORD
  5
1B
330
9
100
AcDbSymbolTableRecord
100
AcDbBlockTableRecord
  2
*Paper_Space
340
1E
 70
0
280
1
281
0
  0
ENDTAB
  0
ENDSEC
  0
SECTION
  2
BLOCKS
  0
BLOCK
  5
18
330
17
100
AcDbEntity
  8
0
100
AcDbBlockBegin
  2
*Model_Space
 70
0
 10
0.0
 20
0.0
 30
0.0
  3
*Model_Space
  1

  0
ENDBLK
  5
19
330
17
100
AcDbEntity
  8
0
100
AcDbBlockEnd
  0
BLOCK
  5
1C
330
1B
100
AcDbEntity
  8
0
100
AcDbBlockBegin
  2
*Paper_Space
 70
0
 10
0.0
 20
0.0
 30
0.0
  3
*Paper_Space
  1

  0
ENDBLK
  5
1D
330
1B
100
AcDbEntity
  8
0
100
AcDbBlockEnd
  0
ENDSEC
  0
SECTION
  2
ENTITIES
  0
LINE
  5
30
330
17
100
AcDbEntity
  8
visible
100
AcDbLine
 10
-6.674694102526223
 20
-33.09137865568839
 30
0.0
 11
-2.5218354042416085
 21
-34.168156578201284
 31
0.0
  0
SPLINE
  5
31
330
17
100
AcDbEntity
  8
visible
100
AcDbSpline
 70
0
 71
3
 72
8
 73
4
 74
0
 40
0.0
 40
0.0
 40
0.0
 40
0.0
 40
0.5486750152965901
 40
0.5486750152965901
 40
0.5486750152965901
 40
0.5486750152965901
 10
-7.081685410497059
 20
-33.55474426882138
 30
0.0
 10
-7.171465660707188
 20
-33.349953944691855
 30
0.0
 10
-7.139035242628561
 20
-33.19741509584487
 30
0.0
 10
-7.037815664738726
 20
-33.12510857895276
 30
0.0
  0
SPLINE
  5
32
330
17
100
AcDbEntity
  8
visible
100
AcDbSpline
 70
0
 71
3
 72
8
 73
4
 74
0
 40
0.0
 40
0.0
 40
0.0
 40
0.0
 40
1.0
 40
1.0
 40
1.0
 40
1.0
 10
-7.037815664738726
 20
-33.12510857895276
 30
0.0
 10
-6.954614907659434
 20
-33.064548919692385
 30
0.0
 10
-6.826606721534273
 20
-33.052197711957575
 30
0.0
 10
-6.67469410252621
 20
-33.09137865568839
 30
0.0
  0
SPLINE
  5
33
330
17
100
AcDbEntity
  8
visible
100
AcDbSpline
 70
0
 71
3
 72
8
 73
4
 74
0
 40
0.0
 40
0.0
 40
0.0
 40
0.0
 40
0.9999996816477258
 40
0.9999996816477258
 40
0.9999996816477258
 40
0.9999996816477258
 10
-6.168457488642717
 20
-35.005612165175094
 30
0.0
 10
-6.570951259108501
 20
-34.535324208735894
 30
0.0
 10
-6.865516005863878
 20
-34.04871098698476
 30
0.0
 10
-7.0816854106479425
 20
-33.554744269149296
 30
0.0
  0
ELLIPSE
  5
34
330
17
100
AcDbEntity
  8
visible
100
AcDbEllipse
 10
2.9688618664596262
 20
-20.56550888793791
 30
0.0
 11
4.517754659743896
 21
17.423831175558444
 31
0.0
 40
0.6782411832293713
 41
-3.141592653589793
 42
-3.056243139940846
  0
ELLIPSE
  5
35
330
17
100
AcDbEntity
  8
visible
100
AcDbEllipse
 10
2.9688618664596262
 20
-20.56550888793791
 30
0.0
 11
4.517754659743896
 21
17.423831175558444
 31
0.0
 40
0.6782411832293713
 41
-3.583454494410872
 42
-3.141592653589793
  0
SPLINE
  5
36
330
17
100
AcDbEntity
  8
visible
100
AcDbSpline
 70
0
 71
3
 72
11
 73
7
 74
0
 40
0.0
 40
0.0
 40
0.0
 40
0.0
 40
0.49814708096346
 40
0.49814708096346
 40
0.49814708096346
 40
0.6065339348087813
 40
0.6065339348087813
 40
0.6065339348087813
 40
0.6065339348087813
 10
-0.5250490240077781
 20
-38.18712066215066
 30
0.0
 10
0.03718233262435331
 20
-38.259711123496764
 30
0.0
 10
0.673620425178147
 20
-38.292364550711646
 30
0.0
 10
1.3182889996927016
 20
-38.27052252918873
 30
0.0
 10
1.4596862216722708
 20
-38.265829715294316
 30
0.0
 10
1.6025023510275842
 20
-38.25836408442221
 30
0.0
 10
1.7467373877586425
 20
-38.2481256365725
 30
0.0
  0
SPLINE
  5
37
330
17
100
AcDbEntity
  8
visible
100
AcDbSpline
 70
0
 71
3
 72
11
 73
7
 74
0
 40
0.0
 40
0.0
 40
0.0
 40
0.0
 40
0.4872284038779271
 40
0.4872284038779271
 40
0.4872284038779271
 40
1.0
 40
1.0
 40
1.0
 40
1.0
 10
-2.5218354042416133
 20
-34.16815657820129
 30
0.0
 10
-2.3706780287232716
 20
-34.20782162909606
 30
0.0
 10
-2.1461260393730797
 20
-34.22629153794601
 30
0.0
 10
-1.921685448688326
 20
-34.22018037724568
 30
0.0
 10
-1.6847364374204514
 20
-34.214234803508894
 30
0.0
 10
-1.4509254532305411
 20
-34.182652616051094
 30
0.0
 10
-1.275718955011179
 20
-34.13590671417862
 30
0.0
  0
LINE
  5
38
330
17
100
AcDbEntity
  8
visible
100
AcDbLine
 10
-1.275718955011179
 20
-34.13590671417862
 30
0.0
 11
1.0648440909111976
 21
-33.514357448653826
 31
0.0
  0
ELLIPSE
  5
39
330
17
100
AcDbEntity
  8
visible
100
AcDbEllipse
 10
-2.611869406307747
 20
-34.142708867896744
 30
0.0
 11
5.0
 21
0.0
 31
0.0
 40
0.26240197585669367
 41
2.3633076296547775
 42
2.676908605066977
  0
LINE
  5
3A
330
17
100
AcDbEntity
  8
visible
100
AcDbLine
 10
-6.168457488642716
 20
-33.222638698227904
 30
0.0
 11
-6.168457488642716
 21
-35.00561216517507
 31
0.0
  0
ELLIPSE
  5
3B
330
17
100
AcDbEntity
  8
visible
100
AcDbEllipse
 10
2.9688618664596262
 20
-20.56550888793791
 30
0.0
 11
3.76479554978658
 21
14.51985931296537
 31
0.0
 40
0.6782411832293713
 41
-3.141592653589793
 42
-2.9101762534237476
  0
ELLIPSE
  5
3C
330
17
100
AcDbEntity
  8
visible
100
AcDbEllipse
 10
2.9688618664596262
 20
-20.56550888793791
 30
0.0
 11
3.76479554978658
 21
14.51985931296537
 31
0.0
 40
0.6782411832293713
 41
-3.3884367817548817
 42
-3.141592653589793
  0
LINE
  5
3D
330
17
100
AcDbEntity
  8
visible
100
AcDbLine
 10
1.5631204272131072
 20
-35.2839528660195
 30
0.0
 11
1.5631204272131072
 21
-37.632595890447206
 31
0.0
  0
LINE
  5
3E
330
17
100
AcDbEntity
  8
visible
100
AcDbLine
 10
1.563120427213109
 20
-37.63259589044721
 30
0.0
 11
-0.525049024007858
 21
-38.18712066215069
 31
0.0
  0
ELLIPSE
  5
3F
330
17
100
AcDbEntity
  8
visible
100
AcDbEllipse
 10
2.1321745203867124
 20
-37.780143622927966
 30
0.0
 11
0.20532785479659693
 21
-0.773201443379814
 31
0.0
 40
0.6863920894344031
 41
-1.9399466100968272
 42
-1.1132768648679985
  0
LINE
  5
40
330
17
100
AcDbEntity
  8
visible
100
AcDbLine
 10
0.14048519427912698
 20
-34.91508353481759
 30
0.0
 11
1.5631204272131143
 21
-35.28395286601951
 31
0.0
  0
ELLIPSE
  5
41
330
17
100
AcDbEntity
  8
visible
100
AcDbEllipse
 10
1.5462266335256416
 20
-20.196639556735988
 30
0.0
 11
3.76479554978658
 21
14.51985931296537
 31
0.0
 40
0.6782411832293713
 41
-2.9101762534237476
 42
-2.7764446640138063
  0
LINE
  5
42
330
17
100
AcDbEntity
  8
visible
100
AcDbLine
 10
1.546226633525634
 20
-34.671019360028545
 30
0.0
 11
4.357709512018662
 21
-33.924414767938096
 31
0.0
  0
ELLIPSE
  5
43
330
17
100
AcDbEntity
  8
visible
100
AcDbEllipse
 10
4.3577095120186655
 20
-19.45003496464554
 30
0.0
 11
3.76479554978658
 21
14.51985931296537
 31
0.0
 40
0.6782411832293713
 41
-2.7764446640138063
 42
-2.642713074603865
  0
LINE
  5
44
330
17
100
AcDbEntity
  8
visible
100
AcDbLine
 10
5.763450951265185
 20
-36.338437827166814
 30
0.0
 11
5.763450951265185
 21
-33.42187435063669
 31
0.0
  0
ELLIPSE
  5
45
330
17
100
AcDbEntity
  8
visible
100
AcDbEllipse
 10
4.3577095120186655
 20
-19.45003496464554
 30
0.0
 11
4.517754659743896
 21
17.423831175558444
 31
0.0
 40
0.6782411832293713
 41
-2.7764446640138063
 42
-2.6651036496728424
  0
LINE
  5
46
330
17
100
AcDbEntity
  8
visible
100
AcDbLine
 10
1.5631204272131072
 20
-37.5614090817555
 30
0.0
 11
4.357709512018662
 21
-36.819290728596606
 31
0.0
  0
LINE
  5
47
330
17
100
AcDbEntity
  8
visible
100
AcDbLine
 10
-3.4299735793244395
 20
12.864480856602526
 30
0.0
 11
-3.4299735793244395
 21
13.153968452668373
 31
0.0
  0
LINE
  5
48
330
17
100
AcDbEntity
  8
visible
100
AcDbLine
 10
19.065444383972988
 20
-28.734199994382497
 30
0.0
 11
21.406007429895368
 21
-28.112650728857705
 31
0.0
  0
ELLIPSE
  5
49
330
17
100
AcDbEntity
  8
visible
100
AcDbEllipse
 10
11.470885676688603
 20
-21.294381620655116
 30
0.0
 11
3.661213056905959
 21
14.120367971663153
 31
0.0
 40
0.6782411832293713
 41
-1.9423078946940553
 42
-1.2056483372189097
  0
LINE
  5
4A
330
17
100
AcDbEntity
  8
visible
100
AcDbLine
 10
21.723870554502625
 20
-18.571645639949807
 30
0.0
 11
21.723870554502625
 21
19.544221175387236
 31
0.0
  0
ELLIPSE
  5
4B
330
17
100
AcDbEntity
  8
visible
100
AcDbEllipse
 10
11.470885676688603
 20
16.821485194681912
 30
0.0
 11
3.661213056905959
 21
14.120367971663153
 31
0.0
 40
0.6782411832293713
 41
-7.488833644398496
 42
-5.918037317603599
  0
LINE
  5
4C
330
17
100
AcDbEntity
  8
visible
100
AcDbLine
 10
11.470885676688603
 20
30.897624954631056
 30
0.0
 11
8.659402798195575
 21
30.151020362540603
 31
0.0
  0
ELLIPSE
  5
4D
330
17
100
AcDbEntity
  8
visible
100
AcDbEllipse
 10
8.659402798195579
 20
16.074880602591463
 30
0.0
 11
3.661213056905959
 21
14.120367971663153
 31
0.0
 40
0.6782411832293713
 41
-5.918037317603599
 42
-4.347240990808703
  0
LINE
  5
4E
330
17
100
AcDbEntity
  8
visible
100
AcDbLine
 10
-1.593582079618443
 20
13.35214462188614
 30
0.0
 11
-1.593582079618443
 21
-24.763722193450903
 31
0.0
  0
ELLIPSE
  5
4F
330
17
100
AcDbEntity
  8
visible
100
AcDbEllipse
 10
8.659402798195579
 20
-22.040986212745565
 30
0.0
 11
3.661213056905959
 21
14.120367971663153
 31
0.0
 40
0.6782411832293713
 41
-4.347240990808703
 42
-3.6105814333335573
  0
ELLIPSE
  5
50
330
17
100
AcDbEntity
  8
visible
100
AcDbEllipse
 10
-2.1117242109341703
 20
-17.716312425906835
 30
0.0
 11
-0.5647193324679877
 21
-2.1779788969448055
 31
0.0
 40
0.6782411832293712
 41
1.4596226116943887
 42
1.6819700418953978
  0
LINE
  5
51
330
17
100
AcDbEntity
  8
visible
100
AcDbLine
 10
5.763450951265182
 20
-33.42187435063668
 30
0.0
 11
7.186086184199169
 21
-33.7907436818386
 31
0.0
  0
ELLIPSE
  5
52
330
17
100
AcDbEntity
  8
visible
100
AcDbEllipse
 10
5.78034474495265
 20
-19.818904295847446
 30
0.0
 11
3.76479554978658
 21
14.51985931296537
 31
0.0
 40
0.6782411832293713
 41
-2.642713074603865
 42
-1.9904242782335375
  0
SPLINE
  5
53
330
17
100
AcDbEntity
  8
visible
100
AcDbSpline
 70
0
 71
3
 72
8
 73
4
 74
0
 40
0.0
 40
0.0
 40
0.0
 40
0.0
 40
0.7760424028864323
 40
0.7760424028864323
 40
0.7760424028864323
 40
0.7760424028864323
 10
13.240051794928428
 20
-28.066500184531236
 30
0.0
 10
13.447713163022145
 20
-27.719976972010897
 30
0.0
 10
13.788875754387087
 20
-27.389037346366216
 30
0.0
 10
14.093063420805034
 20
-27.31091407590764
 30
0.0
  0
SPLINE
  5
54
330
17
100
AcDbEntity
  8
visible
100
AcDbSpline
 70
0
 71
2
 72
6
 73
3
 74
0
 40
0.0
 40
0.0
 40
0.0
 40
1.0
 40
1.0
 40
1.0
 10
14.093063420805034
 20
-27.31091407590764
 30
0.0
 10
14.22435225110727
 20
-27.27616793790841
 30
0.0
 10
14.331237847216757
 20
-27.303426008455858
 30
0.0
  0
LINE
  5
55
330
17
100
AcDbEntity
  8
visible
100
AcDbLine
 10
14.331237847216759
 20
-27.303426008455855
 30
0.0
 11
18.95480235425222
 21
-28.502251334862088
 31
0.0
  0
LINE
  5
56
330
17
100
AcDbEntity
  8
visible
100
AcDbLine
 10
7.186086184199169
 20
-33.7907436818386
 30
0.0
 11
7.186086184199169
 21
-36.13938670626631
 31
0.0
  0
ELLIPSE
  5
57
330
17
100
AcDbEntity
  8
visible
100
AcDbEllipse
 10
7.75514027737276
 20
-36.28693443874707
 30
0.0
 11
0.20532785479659693
 21
-0.773201443379814
 31
0.0
 40
0.6863920894344031
 41
-1.9399466100968272
 42
-1.1132768648679985
  0
LINE
  5
58
330
17
100
AcDbEntity
  8
visible
100
AcDbLine
 10
5.763450951265182
 20
-36.33843782716681
 30
0.0
 11
7.369703145792728
 21
-36.75491645712105
 31
0.0
  0
SPLINE
  5
59
330
17
100
AcDbEntity
  8
visible
100
AcDbSpline
 70
0
 71
3
 72
11
 73
7
 74
0
 40
0.0
 40
0.0
 40
0.0
 40
0.0
 40
0.49814708091922105
 40
0.49814708091922105
 40
0.49814708091922105
 40
0.6065339347741134
 40
0.6065339347741134
 40
0.6065339347741134
 40
0.6065339347741134
 10
9.274255635420054
 20
-35.584861934562866
 30
0.0
 10
8.713849144685978
 20
-35.95557499110979
 30
0.0
 10
8.207302333807592
 20
-36.291754285090136
 30
0.0
 10
7.703601543670129
 20
-36.57486800333879
 30
0.0
 10
7.5934502628701255
 20
-36.63697526450278
 30
0.0
 10
7.482150796208514
 20
-36.6969914142808
 30
0.0
 10
7.369703143685294
 20
-36.75491645267292
 30
0.0
  0
ELLIPSE
  5
5A
330
17
100
AcDbEntity
  8
visible
100
AcDbEllipse
 10
5.78034474495265
 20
-19.818904295847446
 30
0.0
 11
4.517754659743896
 21
17.423831175558444
 31
0.0
 40
0.6782411832293713
 41
-2.4966461880867667
 42
-1.9694348336167407
  0
SPLINE
  5
5B
330
17
100
AcDbEntity
  8
visible
100
AcDbSpline
 70
0
 71
3
 72
8
 73
4
 74
0
 40
0.0
 40
0.0
 40
0.0
 40
0.0
 40
0.8263987807216434
 40
0.8263987807216434
 40
0.8263987807216434
 40
0.8263987807216434
 10
14.917664100054992
 20
-29.406077724496697
 30
0.0
 10
15.250611414455038
 20
-28.84071765193435
 30
0.0
 10
15.603659830541478
 20
-28.278339937622782
 30
0.0
 10
15.957213671176655
 20
-27.72501869845104
 30
0.0
  0
LINE
  5
5C
330
17
100
AcDbEntity
  8
visible
100
AcDbLine
 10
23.56026205420862
 20
20.031884940670864
 30
0.0
 11
23.56026205420862
 21
20.32137253673671
 31
0.0
  0
SPLINE
  5
5D
330
17
100
AcDbEntity
  8
visible
100
AcDbSpline
 70
0
 71
3
 72
8
 73
4
 74
0
 40
0.0
 40
0.0
 40
0.0
 40
0.0
 40
1.0
 40
1.0
 40
1.0
 40
1.0
 10
21.71708846360599
 20
-27.948371751034024
 30
0.0
 10
21.69174622907822
 20
-28.008528742251308
 30
0.0
 10
21.576136218218444
 20
-28.067658633081194
 30
0.0
 10
21.40600742989536
 20
-28.1126507288577
 30
0.0
  0
SPLINE
  5
5E
330
17
100
AcDbEntity
  8
visible
100
AcDbSpline
 70
0
 71
2
 72
6
 73
3
 74
0
 40
0.0
 40
0.0
 40
0.0
 40
0.47331764020851874
 40
0.47331764020851874
 40
0.47331764020851874
 10
18.95480235425222
 20
-28.502251334862095
 30
0.0
 10
19.10700907132695
 20
-28.54262294592647
 30
0.0
 10
19.139172937408418
 20
-28.601804828022615
 30
0.0
  0
LINE
  5
5F
330
17
100
AcDbEntity
  8
visible
100
AcDbLine
 10
14.917664100054992
 20
-27.621001099213558
 30
0.0
 11
13.24005179492842
 21
-28.066500184531233
 31
0.0
  0
LINE
  5
60
330
17
100
AcDbEntity
  8
visible
100
AcDbLine
 10
14.917664100054992
 20
-27.621001099213558
 30
0.0
 11
14.917664100054992
 21
-29.406077724496676
 31
0.0
  0
LINE
  5
61
330
17
100
AcDbEntity
  8
visible
100
AcDbLine
 10
9.274255635420133
 20
-35.58486193456283
 30
0.0
 11
7.186086184199165
 21
-36.13938670626631
 31
0.0
  0
ELLIPSE
  5
62
330
17
100
AcDbEntity
  8
visible
100
AcDbEllipse
 10
18.47425218238996
 20
-28.54317442721836
 30
0.0
 11
5.0
 21
0.0
 31
0.0
 40
0.26240197585669367
 41
2.272306755136763
 42
2.3621673837447563
  0
ELLIPSE
  5
63
330
17
100
AcDbEntity
  8
visible
100
AcDbEllipse
 10
-0.831352501293587
 20
-18.04829482398857
 30
0.0
 11
-0.2886343254836381
 21
-1.1131892139940116
 31
0.0
 40
0.6782411832293712
 41
0.6590725557270349
 42
2.482520097862757
  0
ELLIPSE
  5
64
330
17
100
AcDbEntity
  8
visible
100
AcDbEllipse
 10
0.09336040011350377
 20
-18.288059889269817
 30
0.0
 11
-0.2886343254836381
 21
-1.1131892139940116
 31
0.0
 40
0.6782411832293712
 41
0.3651479895759871
 42
3.1415926535897936
  0
ELLIPSE
  5
65
330
17
100
AcDbEntity
  8
visible
100
AcDbEllipse
 10
0.09336040011350377
 20
-18.288059889269817
 30
0.0
 11
-0.2886343254836381
 21
-1.1131892139940116
 31
0.0
 40
0.6782411832293712
 41
3.1415926535897936
 42
6.283185307179586
  0
ELLIPSE
  5
66
330
17
100
AcDbEntity
  8
visible
100
AcDbEllipse
 10
0.09336040011350377
 20
-18.288059889269817
 30
0.0
 11
-0.2886343254836381
 21
-1.1131892139940116
 31
0.0
 40
0.6782411832293712
 41
0.0
 42
0.3651479895759868
  0
LINE
  5
67
330
17
100
AcDbEntity
  8
visible
100
AcDbLine
 10
-4.561324248196643
 20
-25.253159144671834
 30
0.0
 11
-22.628791706458287
 21
-20.568518638407483
 31
0.0
  0
LINE
  5
68
330
17
100
AcDbEntity
  8
visible
100
AcDbLine
 10
-4.561324248196641
 20
12.862707670665188
 30
0.0
 11
-4.561324248196641
 21
-25.253159144671855
 31
0.0
  0
LINE
  5
69
330
17
100
AcDbEntity
  8
visible
100
AcDbLine
 10
-22.628791706458287
 20
17.547348176929546
 30
0.0
 11
-22.628791706458287
 21
-20.568518638407497
 31
0.0
  0
LINE
  5
6A
330
17
100
AcDbEntity
  8
visible
100
AcDbLine
 10
-4.561324248196643
 20
12.862707670665195
 30
0.0
 11
-22.628791706458287
 21
17.547348176929546
 31
0.0
  0
ELLIPSE
  5
6B
330
17
100
AcDbEntity
  8
visible
100
AcDbEllipse
 10
8.090348705021981
 20
-21.893438480264805
 30
0.0
 11
-4.517754659743896
 21
-17.423831175558444
 31
0.0
 40
0.6782411832293713
 41
5.0775369699606765
 42
5.653263617940867
  0
ELLIPSE
  5
6C
330
17
100
AcDbEntity
  8
visible
100
AcDbEllipse
 10
-9.977118753239658
 20
-17.208797974000447
 30
0.0
 11
-4.517754659743896
 21
-17.423831175558444
 31
0.0
 40
0.6782411832293713
 41
5.0775369699606765
 42
6.283185307179588
  0
ELLIPSE
  5
6D
330
17
100
AcDbEntity
  8
visible
100
AcDbEllipse
 10
-3.9990276724980376
 20
13.012028589083286
 30
0.0
 11
0.8
 21
-4.6021579081651964e-17
 31
0.0
 40
0.2624019758566936
 41
3.9329637105396524
 42
5.503760037334549
  0
LINE
  5
6E
330
17
100
AcDbEntity
  8
visible
100
AcDbLine
 10
-3.4299735793244395
 20
12.864480856602512
 30
0.0
 11
-3.4299735793244395
 21
-25.25138595873453
 31
0.0
  0
ELLIPSE
  5
6F
330
17
100
AcDbEntity
  8
visible
100
AcDbEllipse
 10
-3.9990276724980376
 20
-25.103838226253743
 30
0.0
 11
0.8
 21
0.0
 31
0.0
 40
0.26240197585669367
 41
3.9329637105396524
 42
5.503760037334549
  0
ELLIPSE
  5
70
330
17
100
AcDbEntity
  8
visible
100
AcDbEllipse
 10
-22.066495130759677
 20
17.69666909534763
 30
0.0
 11
-0.8
 21
4.6021579081651964e-17
 31
0.0
 40
0.2624019758566936
 41
-6.283185307179586
 42
-5.4918142502297265
  0
ELLIPSE
  5
71
330
17
100
AcDbEntity
  8
visible
100
AcDbEllipse
 10
-22.066495130759677
 20
-20.4191977199894
 30
0.0
 11
-0.8
 21
-0.0
 31
0.0
 40
0.26240197585669367
 41
-6.283185307179586
 42
-5.4918142502297265
  0
LINE
  5
72
330
17
100
AcDbEntity
  8
visible
100
AcDbLine
 10
8.090348705021986
 20
33.59168409902329
 30
0.0
 11
-9.977118753239658
 21
38.27632460528764
 31
0.0
  0
ELLIPSE
  5
73
330
17
100
AcDbEntity
  8
visible
100
AcDbEllipse
 10
8.090348705021981
 20
16.222428335072223
 30
0.0
 11
-4.517754659743896
 21
-17.423831175558444
 31
0.0
 40
0.6782411832293713
 41
3.50674064316578
 42
5.0775369699606765
  0
ELLIPSE
  5
74
330
17
100
AcDbEntity
  8
visible
100
AcDbEllipse
 10
-9.977118753239658
 20
20.90706884133658
 30
0.0
 11
-4.517754659743896
 21
-17.423831175558444
 31
0.0
 40
0.6782411832293713
 41
3.50674064316578
 42
5.0775369699606765
  0
ELLIPSE
  5
75
330
17
100
AcDbEntity
  8
visible
100
AcDbEllipse
 10
8.659402798195579
 20
-22.040986212745565
 30
0.0
 11
-4.316965563755279
 21
-16.649438678866957
 31
0.0
 40
0.6782411832293713
 41
5.0775369699606765
 42
5.683759813164337
  0
ELLIPSE
  5
76
330
17
100
AcDbEntity
  8
visible
100
AcDbEllipse
 10
8.090348705021981
 20
32.819717176181
 30
0.0
 11
0.20532785479659693
 21
-0.773201443379814
 31
0.0
 40
0.6863920894344031
 41
-5.08153926368662
 42
-3.5107429368917233
  0
ELLIPSE
  5
77
330
17
100
AcDbEntity
  8
visible
100
AcDbEllipse
 10
8.659402798195579
 20
16.074880602591463
 30
0.0
 11
-4.316965563755279
 21
-16.649438678866957
 31
0.0
 40
0.6782411832293713
 41
3.50674064316578
 42
5.0775369699606765
  0
LINE
  5
78
330
17
100
AcDbEntity
  8
visible
100
AcDbLine
 10
11.470885676688603
 20
33.418774035790676
 30
0.0
 11
8.659402798195575
 21
32.67216944370023
 31
0.0
  0
ELLIPSE
  5
79
330
17
100
AcDbEntity
  8
visible
100
AcDbEllipse
 10
11.470885676688603
 20
16.821485194681912
 30
0.0
 11
-4.316965563755279
 21
-16.649438678866957
 31
0.0
 40
0.6782411832293713
 41
1.9359443163708834
 42
3.50674064316578
  0
LINE
  5
7A
330
17
100
AcDbEntity
  8
visible
100
AcDbLine
 10
23.56026205420862
 20
-18.08398187466618
 30
0.0
 11
23.56026205420862
 21
20.031884940670864
 31
0.0
  0
ELLIPSE
  5
7B
330
17
100
AcDbEntity
  8
visible
100
AcDbEllipse
 10
11.470885676688603
 20
-21.294381620655116
 30
0.0
 11
-4.316965563755279
 21
-16.649438678866957
 31
0.0
 40
0.6782411832293713
 41
1.3297214731672231
 42
1.9359443163708834
  0
ELLIPSE
  5
7C
330
17
100
AcDbEntity
  8
visible
100
AcDbEllipse
 10
-9.977118753239658
 20
37.504357682445345
 30
0.0
 11
-0.20532785479659693
 21
0.773201443379814
 31
0.0
 40
0.6863920894344031
 41
5.914035023877656
 42
6.283185307179586
  0
LINE
  5
7D
330
17
100
AcDbEntity
  8
visible
100
AcDbLine
 10
10.901831583515012
 20
34.338288691113746
 30
0.0
 11
8.090348705021984
 21
33.5916840990233
 31
0.0
  0
LINE
  5
7E
330
17
100
AcDbEntity
  8
visible
100
AcDbLine
 10
-7.165635874746634
 20
39.02292919737809
 30
0.0
 11
-9.977118753239662
 21
38.27632460528764
 31
0.0
  0
LINE
  5
7F
330
17
100
AcDbEntity
  8
visible
100
AcDbLine
 10
10.90183158351501
 20
34.33828869111374
 30
0.0
 11
-7.165635874746634
 21
39.02292919737809
 31
0.0
  0
LINE
  5
80
330
17
100
AcDbEntity
  8
visible
100
AcDbLine
 10
1.546226633525639
 20
-34.671019360028545
 30
0.0
 11
-0.9011711319387441
 21
-34.03644349965844
 31
0.0
  0
LINE
  5
81
330
17
100
AcDbEntity
  8
visible
100
AcDbLine
 10
4.357709512018666
 20
-33.924414767938096
 30
0.0
 11
0.6561052819792295
 21
-32.964640789971256
 31
0.0
  0
ELLIPSE
  5
82
330
17
100
AcDbEntity
  8
visible
100
AcDbEllipse
 10
10.972963345161709
 20
-21.165277354734457
 30
0.0
 11
-3.76479554978658
 21
-14.51985931296537
 31
0.0
 40
0.6782411832293713
 41
1.2239652614583152
 42
1.9359443163708834
  0
LINE
  5
83
330
17
100
AcDbEntity
  8
visible
100
AcDbLine
 10
21.516024139510563
 20
-18.365510134395258
 30
0.0
 11
5.582509530649897
 21
-14.234173624933781
 31
0.0
  0
ELLIPSE
  5
84
330
17
100
AcDbEntity
  8
visible
100
AcDbEllipse
 10
-4.96055126369896
 20
-17.03394084527298
 30
0.0
 11
-3.76479554978658
 21
-14.51985931296537
 31
0.0
 40
0.6782411832293713
 41
0.7518952069808007
 42
1.9359443163708834
  0
ELLIPSE
  5
85
330
17
100
AcDbEntity
  8
visible
100
AcDbEllipse
 10
10.901831583515012
 20
33.56632176827145
 30
0.0
 11
0.20532785479659685
 21
-0.773201443379814
 31
0.0
 40
0.6863920894344031
 41
-5.08153926368662
 42
-3.5107429368917233
  0
ELLIPSE
  5
86
330
17
100
AcDbEntity
  8
visible
100
AcDbEllipse
 10
22.99120796103503
 20
20.17943267315161
 30
0.0
 11
-0.8
 21
-0.0
 31
0.0
 40
0.26240197585669367
 41
-3.9210179234348304
 42
-3.141592653589793
  0
ELLIPSE
  5
87
330
17
100
AcDbEntity
  8
visible
100
AcDbEllipse
 10
10.901831583515008
 20
16.969032927162672
 30
0.0
 11
-4.517754659743896
 21
-17.423831175558444
 31
0.0
 40
0.6782411832293713
 41
3.141592653589793
 42
3.50674064316578
  0
ELLIPSE
  5
88
330
17
100
AcDbEntity
  8
visible
100
AcDbEllipse
 10
22.99120796103503
 20
-17.93643414218542
 30
0.0
 11
-0.8
 21
1.3806473724495587e-16
 31
0.0
 40
0.26240197585669356
 41
-3.9210179234348304
 42
-3.141592653589793
  0
ELLIPSE
  5
89
330
17
100
AcDbEntity
  8
visible
100
AcDbEllipse
 10
20.95372756381196
 20
-18.51483105281335
 30
0.0
 11
-0.8
 21
1.3806473724495587e-16
 31
0.0
 40
0.26240197585669356
 41
-2.8675278940289135
 42
-2.350221596639934
  0
LINE
  5
8A
330
17
100
AcDbEntity
  8
visible
100
AcDbLine
 10
21.516024139510563
 20
-18.365510134395265
 30
0.0
 11
21.516024139510563
 21
19.750356680941778
 31
0.0
  0
ELLIPSE
  5
8B
330
17
100
AcDbEntity
  8
visible
100
AcDbEllipse
 10
20.95372756381196
 20
19.60103576252368
 30
0.0
 11
-0.8
 21
-0.0
 31
0.0
 40
0.26240197585669367
 41
-2.865978282055453
 42
-2.350221596639934
  0
ELLIPSE
  5
8C
330
17
100
AcDbEntity
  8
visible
100
AcDbEllipse
 10
10.972963345161709
 20
16.950589460602572
 30
0.0
 11
-3.76479554978658
 21
-14.51985931296537
 31
0.0
 40
0.6782411832293713
 41
1.9359443163708834
 42
2.5448407927128764
  0
ELLIPSE
  5
8D
330
17
100
AcDbEntity
  8
visible
100
AcDbEllipse
 10
-7.165635874746634
 20
38.250962274535794
 30
0.0
 11
-0.20532785479659685
 21
0.773201443379814
 31
0.0
 40
0.6863920894344031
 41
5.9140350238776564
 42
6.283185307179586
  0
ELLIPSE
  5
8E
330
17
100
AcDbEntity
  8
visible
100
AcDbEllipse
 10
-7.165635874746634
 20
21.65367343342703
 30
0.0
 11
-4.517754659743896
 21
-17.423831175558444
 31
0.0
 40
0.6782411832293713
 41
3.141592653589793
 42
3.50674064316578
  0
LINE
  5
8F
330
17
100
AcDbEntity
  8
visible
100
AcDbLine
 10
5.582509530649894
 20
-14.234173624933774
 30
0.0
 11
5.582509530649894
 21
23.88169319040327
 31
0.0
  0
LINE
  5
90
330
17
100
AcDbEntity
  8
visible
100
AcDbLine
 10
21.516024139510563
 20
19.75035668094177
 30
0.0
 11
5.582509530649897
 21
23.881693190403247
 31
0.0
  0
ELLIPSE
  5
91
330
17
100
AcDbEntity
  8
visible
100
AcDbEllipse
 10
-5.529605356872551
 20
-16.886393112792206
 30
0.0
 11
-3.5640064537979623
 21
-13.745466816273883
 31
0.0
 40
0.6782411832293714
 41
0.8053574629616003
 42
1.9359443163708834
  0
ELLIPSE
  5
92
330
17
100
AcDbEntity
  8
visible
100
AcDbEllipse
 10
5.02021295495129
 20
-14.383494543351873
 30
0.0
 11
0.8
 21
-1.3806473724495587e-16
 31
0.0
 40
0.26240197585669356
 41
0.7913710569498593
 42
2.362167383744756
  0
ELLIPSE
  5
93
330
17
100
AcDbEntity
  8
visible
100
AcDbEllipse
 10
15.48671819322859
 20
-27.768548831694332
 30
0.0
 11
0.20532785479659693
 21
-0.773201443379814
 31
0.0
 40
0.6863920894344031
 41
-2.156041743590589
 42
-1.939946610096827
  0
ELLIPSE
  5
94
330
17
100
AcDbEntity
  8
visible
100
AcDbEllipse
 10
-4.96055126369896
 20
21.08192597006405
 30
0.0
 11
-3.76479554978658
 21
-14.51985931296537
 31
0.0
 40
0.6782411832293713
 41
1.9359443163708834
 42
2.2557264777714505
  0
LINE
  5
95
330
17
100
AcDbEntity
  8
visible
100
AcDbLine
 10
4.451158861777699
 20
-14.235946810871098
 30
0.0
 11
4.451158861777699
 21
23.879920004465944
 31
0.0
  0
ELLIPSE
  5
96
330
17
100
AcDbEntity
  8
visible
100
AcDbEllipse
 10
-5.529605356872551
 20
21.229473702544823
 30
0.0
 11
-3.5640064537979623
 21
-13.745466816273883
 31
0.0
 40
0.6782411832293714
 41
1.9359443163708834
 42
2.207489999901988
  0
ELLIPSE
  5
97
330
17
100
AcDbEntity
  8
visible
100
AcDbEllipse
 10
5.02021295495129
 20
23.732372271985156
 30
0.0
 11
0.8
 21
0.0
 31
0.0
 40
0.26240197585669367
 41
0.7913710569498593
 42
2.362167383744756
  0
LINE
  5
98
330
17
100
AcDbEntity
  8
visible
100
AcDbLine
 10
-14.494873412983559
 20
-34.63262914955891
 30
0.0
 11
-1.5488927932842707
 21
-37.98934006349636
 31
0.0
  0
LINE
  5
99
330
17
100
AcDbEntity
  8
visible
100
AcDbLine
 10
-22.866495130759674
 20
17.69666909534763
 30
0.0
 11
-22.866495130759674
 21
-20.419197719989413
 31
0.0
  0
SPLINE
  5
9A
330
17
100
AcDbEntity
  8
visible
100
AcDbSpline
 70
0
 71
3
 72
14
 73
10
 74
0
 40
0.0
 40
0.0
 40
0.0
 40
0.0
 40
0.5051969432816437
 40
0.5051969432816437
 40
0.5051969432816437
 40
0.7071913521347635
 40
0.7071913521347635
 40
0.7071913521347635
 40
1.0
 40
1.0
 40
1.0
 40
1.0
 10
-22.866495130759674
 20
-20.4191977199894
 30
0.0
 10
-22.870673387677535
 20
-23.93820047971549
 30
0.0
 10
-22.064559863500847
 20
-27.24684317353274
 30
0.0
 10
-20.56101383644836
 20
-29.778741262640146
 30
0.0
 10
-19.961588081460206
 20
-30.792379934003037
 30
0.0
 10
-19.25352819115458
 20
-31.684230212983334
 30
0.0
 10
-18.454721472309696
 20
-32.42559832247241
 30
0.0
 10
-17.297829644952465
 20
-33.50130520006121
 30
0.0
 10
-15.947099450346268
 20
-34.257299606356796
 30
0.0
 10
-14.494873412983551
 20
-34.63262914955891
 30
0.0
  0
SPLINE
  5
9B
330
17
100
AcDbEntity
  8
visible
100
AcDbSpline
 70
0
 71
3
 72
17
 73
13
 74
0
 40
0.0
 40
0.0
 40
0.0
 40
0.0
 40
0.34722126644350304
 40
0.34722126644350304
 40
0.34722126644350304
 40
0.5321527292124412
 40
0.5321527292124412
 40
0.5321527292124412
 40
0.7664572349063915
 40
0.7664572349063915
 40
0.7664572349063915
 40
1.0
 40
1.0
 40
1.0
 40
1.0
 10
-10.182446608036258
 20
38.27755912582518
 30
0.0
 10
-12.539080725160314
 20
37.65515994920051
 30
0.0
 10
-14.848491059579315
 20
36.152281487986144
 30
0.0
 10
-16.811865770001305
 20
34.00057933322533
 30
0.0
 10
-17.858409686854284
 20
32.85635159764791
 30
0.0
 10
-18.808137701883474
 20
31.531514724798715
 30
0.0
 10
-19.624559833505288
 20
30.07985237087655
 30
0.0
 10
-20.659648210123287
 20
28.241235674907703
 30
0.0
 10
-21.47917340934946
 20
26.198851305003362
 30
0.0
 10
-22.03102633065804
 20
24.085059791192087
 30
0.0
 10
-22.582226164373164
 20
21.978444653704283
 30
0.0
 10
-22.86710972750826
 20
19.80242468655228
 30
0.0
 10
-22.866495130759674
 20
17.69666909534763
 30
0.0
  0
SPLINE
  5
9C
330
17
100
AcDbEntity
  8
visible
100
AcDbSpline
 70
0
 71
3
 72
14
 73
10
 74
0
 40
0.0
 40
0.0
 40
0.0
 40
0.0
 40
0.5051969432816984
 40
0.5051969432816984
 40
0.5051969432816984
 40
0.7071913521348042
 40
0.7071913521348042
 40
0.7071913521348042
 40
1.0
 40
1.0
 40
1.0
 40
1.0
 10
23.791207961035035
 20
20.17943267315161
 30
0.0
 10
23.795386217952856
 20
23.6984354328774
 30
0.0
 10
22.98927269377635
 20
27.00707812669469
 30
0.0
 10
21.485726666723693
 20
29.538976215802343
 30
0.0
 10
20.88630091173557
 20
30.55261488716524
 30
0.0
 10
20.178241021429947
 20
31.44446516614554
 30
0.0
 10
19.379434302585057
 20
32.185833275634636
 30
0.0
 10
18.222542475227844
 20
33.26154015322348
 30
0.0
 10
16.871812280621615
 20
34.017534559518985
 30
0.0
 10
15.419586243258905
 20
34.39286410272109
 30
0.0
  0
LINE
  5
9D
330
17
100
AcDbEntity
  8
visible
100
AcDbLine
 10
23.791207961035035
 20
-17.93643414218542
 30
0.0
 11
23.791207961035035
 21
20.179432673151624
 31
0.0
  0
SPLINE
  5
9E
330
17
100
AcDbEntity
  8
visible
100
AcDbSpline
 70
0
 71
3
 72
8
 73
4
 74
0
 40
0.0
 40
0.0
 40
0.0
 40
0.0
 40
1.0
 40
1.0
 40
1.0
 40
1.0
 10
21.717088469323187
 20
-27.94837175332711
 30
0.0
 10
23.064728278634064
 20
-24.806155303808406
 30
0.0
 10
23.795064144920204
 20
-21.283230662584582
 30
0.0
 10
23.791207961035035
 20
-17.93643414218542
 30
0.0
  0
LINE
  5
9F
330
17
100
AcDbEntity
  8
visible
100
AcDbLine
 10
-7.370963729543234
 20
39.02416371791563
 30
0.0
 11
-10.182446608036262
 21
38.27755912582518
 31
0.0
  0
SPLINE
  5
A0
330
17
100
AcDbEntity
  8
visible
100
AcDbSpline
 70
0
 71
3
 72
8
 73
4
 74
0
 40
0.0
 40
0.0
 40
0.0
 40
0.0
 40
1.0
 40
1.0
 40
1.0
 40
1.0
 10
-2.6478812150027413
 20
39.077504608985464
 30
0.0
 10
-4.159426879805399
 20
39.47083312898998
 30
0.0
 10
-5.775155087758432
 20
39.449379891388176
 30
0.0
 10
-7.370963729543234
 20
39.02416371791563
 30
0.0
  0
LINE
  5
A1
330
17
100
AcDbEntity
  8
visible
100
AcDbLine
 10
-2.6478812150027338
 20
39.077504608985464
 30
0.0
 11
15.41958624325891
 21
34.39286410272111
 31
0.0
  0
ENDSEC
  0
SECTION
  2
OBJECTS
  0
DICTIONARY
  5
A
330
0
100
AcDbDictionary
281
1
  3
ACAD_COLOR
350
B
  3
ACAD_GROUP
350
C
  3
ACAD_LAYOUT
350
D
  3
ACAD_MATERIAL
350
E
  3
ACAD_MLEADERSTYLE
350
F
  3
ACAD_MLINESTYLE
350
10
  3
ACAD_PLOTSETTINGS
350
11
  3
ACAD_PLOTSTYLENAME
350
12
  3
ACAD_SCALELIST
350
14
  3
ACAD_TABLESTYLE
350
15
  3
ACAD_VISUALSTYLE
350
16
  3
EZDXF_META
350
2D
  0
DICTIONARY
  5
B
330
A
100
AcDbDictionary
281
1
  0
DICTIONARY
  5
C
330
A
100
AcDbDictionary
281
1
  0
DICTIONARY
  5
D
330
A
100
AcDbDictionary
281
1
  3
Model
350
1A
  3
Layout1
350
1E
  0
DICTIONARY
  5
E
330
A
100
AcDbDictionary
281
1
  3
ByBlock
350
1F
  3
ByLayer
350
20
  3
Global
350
21
  0
DICTIONARY
  5
F
330
A
100
AcDbDictionary
281
1
  3
Standard
350
2C
  0
DICTIONARY
  5
10
330
A
100
AcDbDictionary
281
1
  3
Standard
350
22
  0
DICTIONARY
  5
11
330
A
100
AcDbDictionary
281
1
  0
ACDBDICTIONARYWDFLT
  5
12
330
A
100
AcDbDictionary
281
1
  3
Normal
350
13
100
AcDbDictionaryWithDefault
340
13
  0
ACDBPLACEHOLDER
  5
13
330
12
  0
DICTIONARY
  5
14
330
A
100
AcDbDictionary
281
1
  0
DICTIONARY
  5
15
330
A
100
AcDbDictionary
281
1
  0
DICTIONARY
  5
16
330
A
100
AcDbDictionary
281
1
  0
LAYOUT
  5
1A
330
D
100
AcDbPlotSettings
  1

  4
A3
  6

 40
7.5
 41
20.0
 42
7.5
 43
20.0
 44
420.0
 45
297.0
 46
0.0
 47
0.0
 48
0.0
 49
0.0
140
0.0
141
0.0
142
1.0
143
1.0
 70
1024
 72
1
 73
0
 74
5
  7

 75
16
 76
0
 77
2
 78
300
147
1.0
148
0.0
149
0.0
100
AcDbLayout
  1
Model
 70
1
 71
0
 10
0.0
 20
0.0
 11
420.0
 21
297.0
 12
0.0
 22
0.0
 32
0.0
 14
1e+20
 24
1e+20
 34
1e+20
 15
-1e+20
 25
-1e+20
 35
-1e+20
146
0.0
 13
0.0
 23
0.0
 33
0.0
 16
1.0
 26
0.0
 36
0.0
 17
0.0
 27
1.0
 37
0.0
 76
1
330
17
  0
LAYOUT
  5
1E
330
D
100
AcDbPlotSettings
  1

  4
A3
  6

 40
7.5
 41
20.0
 42
7.5
 43
20.0
 44
420.0
 45
297.0
 46
0.0
 47
0.0
 48
0.0
 49
0.0
140
0.0
141
0.0
142
1.0
143
1.0
 70
0
 72
1
 73
0
 74
5
  7

 75
16
 76
0
 77
2
 78
300
147
1.0
148
0.0
149
0.0
100
AcDbLayout
  1
Layout1
 70
1
 71
1
 10
0.0
 20
0.0
 11
420.0
 21
297.0
 12
0.0
 22
0.0
 32
0.0
 14
1e+20
 24
1e+20
 34
1e+20
 15
-1e+20
 25
-1e+20
 35
-1e+20
146
0.0
 13
0.0
 23
0.0
 33
0.0
 16
1.0
 26
0.0
 36
0.0
 17
0.0
 27
1.0
 37
0.0
 76
1
330
1B
  0
MATERIAL
  5
1F
102
{ACAD_REACTORS
330
E
102
}
330
E
100
AcDbMaterial
  1
ByBlock
  2

 70
0
 40
1.0
 71
1
 41
1.0
 91
-1023410177
 42
1.0
 72
1
  3

 73
1
 74
1
 75
1
 44
0.5
 73
0
 45
1.0
 46
1.0
 77
1
  4

 78
1
 79
1
170
1
 48
1.0
171
1
  6

172
1
173
1
174
1
140
1.0
141
1.0
175
1
  7

176
1
177
1
178
1
143
1.0
179
1
  8

270
1
271
1
272
1
145
1.0
146
1.0
273
1
  9

274
1
275
1
276
1
 42
1.0
 72
1
  3

 73
1
 74
1
 75
1
 94
63
  0
MATERIAL
  5
20
102
{ACAD_REACTORS
330
E
102
}
330
E
100
AcDbMaterial
  1
ByLayer
  2

 70
0
 40
1.0
 71
1
 41
1.0
 91
-1023410177
 42
1.0
 72
1
  3

 73
1
 74
1
 75
1
 44
0.5
 73
0
 45
1.0
 46
1.0
 77
1
  4

 78
1
 79
1
170
1
 48
1.0
171
1
  6

172
1
173
1
174
1
140
1.0
141
1.0
175
1
  7

176
1
177
1
178
1
143
1.0
179
1
  8

270
1
271
1
272
1
145
1.0
146
1.0
273
1
  9

274
1
275
1
276
1
 42
1.0
 72
1
  3

 73
1
 74
1
 75
1
 94
63
  0
MATERIAL
  5
21
102
{ACAD_REACTORS
330
E
102
}
330
E
100
AcDbMaterial
  1
Global
  2

 70
0
 40
1.0
 71
1
 41
1.0
 91
-1023410177
 42
1.0
 72
1
  3

 73
1
 74
1
 75
1
 44
0.5
 73
0
 45
1.0
 46
1.0
 77
1
  4

 78
1
 79
1
170
1
 48
1.0
171
1
  6

172
1
173
1
174
1
140
1.0
141
1.0
175
1
  7

176
1
177
1
178
1
143
1.0
179
1
  8

270
1
271
1
272
1
145
1.0
146
1.0
273
1
  9

274
1
275
1
276
1
 42
1.0
 72
1
  3

 73
1
 74
1
 75
1
 94
63
  0
MLINESTYLE
  5
22
102
{ACAD_REACTORS
330
10
102
}
330
10
100
AcDbMlineStyle
  2
Standard
 70
0
  3

 62
256
 51
90.0
 52
90.0
 71
2
 49
0.5
 62
256
  6
BYLAYER
 49
-0.5
 62
256
  6
BYLAYER
  0
MLEADERSTYLE
  5
2C
102
{ACAD_REACTORS
330
F
102
}
330
F
100
AcDbMLeaderStyle
179
2
170
2
171
1
172
0
 90
2
 40
0.0
 41
0.0
173
1
 91
-1056964608
 92
-2
290
1
 42
2.0
291
1
 43
8.0
  3
Standard
 44
4.0
300

342
29
174
1
175
1
176
0
178
1
 93
-1056964608
 45
4.0
292
0
297
0
 46
4.0
 94
-1056964608
 47
1.0
 49
1.0
140
1.0
294
1
141
0.0
177
0
142
1.0
295
0
296
0
143
3.75
271
0
272
9
273
9
  0
DICTIONARY
  5
2D
330
A
100
AcDbDictionary
280
1
281
1
  3
CREATED_BY_EZDXF
350
2E
  3
WRITTEN_BY_EZDXF
350
A5
  0
DICTIONARYVAR
  5
2E
330
2D
100
DictionaryVariables
280
0
  1
1.4.4 @ 2026-10-02T12:35:30.902212+00:00
  0
DICTIONARYVAR
  5
A5
330
2D
100
DictionaryVariables
280
0
  1
1.4.4 @ 2026-10-02T12:35:30.925834+00:00
  0
ENDSEC
  0
EOF
