  0
SECTION
  2
HEADER
  9
$ACADVER
  1
AC1027
  9
$ACADMAINTVER
 70
105
  9
$DWGCODEPAGE
  3
ANSI_1252
  9
$LASTSAVEDBY
  1
ezdxf
  9
$REQUIREDVERSIONS
160
0
  9
$INSBASE
 10
0.0
 20
0.0
 30
0.0
  9
$EXTMIN
 10
1e+20
 20
1e+20
 30
1e+20
  9
$EXTMAX
 10
-1e+20
 20
-1e+20
 30
-1e+20
  9
$LIMMIN
 10
0.0
 20
0.0
  9
$LIMMAX
 10
420.0
 20
297.0
  9
$ORTHOMODE
 70
0
  9
$REGENMODE
 70
1
  9
$FILLMODE
 70
1
  9
$QTEXTMODE
 70
0
  9
$MIRRTEXT
 70
1
  9
$LTSCALE
 40
1.0
  9
$ATTMODE
 70
1
  9
$TEXTSIZE
 40
2.5
  9
$TRACEWID
 40
1.0
  9
$TEXTSTYLE
  7
Standard
  9
$CLAYER
  8
0
  9
$CELTYPE
  6
ByLayer
  9
$CECOLOR
 62
256
  9
$CELTSCALE
 40
1.0
  9
$DISPSILH
 70
0
  9
$DIMSCALE
 40
1.0
  9
$DIMASZ
 40
2.5
  9
$DIMEXO
 40
0.625
  9
$DIMDLI
 40
3.75
  9
$DIMRND
 40
0.0
  9
$DIMDLE
 40
0.0
  9
$DIMEXE
 40
1.25
  9
$DIMTP
 40
0.0
  9
$DIMTM
 40
0.0
  9
$DIMTXT
 40
2.5
  9
$DIMCEN
 40
2.5
  9
$DIMTSZ
 40
0.0
  9
$DIMTOL
 70
0
  9
$DIMLIM
 70
0
  9
$DIMTIH
 70
0
  9
$DIMTOH
 70
0
  9
$DIMSE1
 70
0
  9
$DIMSE2
 70
0
  9
$DIMTAD
 70
1
  9
$DIMZIN
 70
8
  9
$DIMBLK
  1

  9
$DIMASO
 70
1
  9
$DIMSHO
 70
1
  9
$DIMPOST
  1

  9
$DIMAPOST
  1

  9
$DIMALT
 70
0
  9
$DIMALTD
 70
3
  9
$DIMALTF
 40
0.03937007874
  9
$DIMLFAC
 40
1.0
  9
$DIMTOFL
 70
1
  9
$DIMTVP
 40
0.0
  9
$DIMTIX
 70
0
  9
$DIMSOXD
 70
0
  9
$DIMSAH
 70
0
  9
$DIMBLK1
  1

  9
$DIMBLK2
  1

  9
$DIMSTYLE
  2
ISO-25
  9
$DIMCLRD
 70
0
  9
$DIMCLRE
 70
0
  9
$DIMCLRT
 70
0
  9
$DIMTFAC
 40
1.0
  9
$DIMGAP
 40
0.625
  9
$DIMJUST
 70
0
  9
$DIMSD1
 70
0
  9
$DIMSD2
 70
0
  9
$DIMTOLJ
 70
0
  9
$DIMTZIN
 70
8
  9
$DIMALTZ
 70
0
  9
$DIMALTTZ
 70
0
  9
$DIMUPT
 70
0
  9
$DIMDEC
 70
2
  9
$DIMTDEC
 70
2
  9
$DIMALTU
 70
2
  9
$DIMALTTD
 70
3
  9
$DIMTXSTY
  7
Standard
  9
$DIMAUNIT
 70
0
  9
$DIMADEC
 70
0
  9
$DIMALTRND
 40
0.0
  9
$DIMAZIN
 70
0
  9
$DIMDSEP
 70
44
  9
$DIMATFIT
 70
3
  9
$DIMFRAC
 70
0
  9
$DIMLDRBLK
  1

  9
$DIMLUNIT
 70
2
  9
$DIMLWD
 70
-2
  9
$DIMLWE
 70
-2
  9
$DIMTMOVE
 70
0
  9
$DIMFXL
 40
1.0
  9
$DIMFXLON
 70
0
  9
$DIMJOGANG
 40
0.785398163397
  9
$DIMTFILL
 70
0
  9
$DIMTFILLCLR
 70
0
  9
$DIMARCSYM
 70
0
  9
$DIMLTYPE
  6

  9
$DIMLTEX1
  6

  9
$DIMLTEX2
  6

  9
$DIMTXTDIRECTION
 70
0
  9
$LUNITS
 70
2
  9
$LUPREC
 70
4
  9
$SKETCHINC
 40
1.0
  9
$FILLETRAD
 40
10.0
  9
$AUNITS
 70
0
  9
$AUPREC
 70
2
  9
$MENU
  1
.
  9
$ELEVATION
 40
0.0
  9
$PELEVATION
 40
0.0
  9
$THICKNESS
 40
0.0
  9
$LIMCHECK
 70
0
  9
$CHAMFERA
 40
0.0
  9
$CHAMFERB
 40
0.0
  9
$CHAMFERC
 40
0.0
  9
$CHAMFERD
 40
0.0
  9
$SKPOLY
 70
0
  9
$TDCREATE
 40
2461316.867789352
  9
$TDUCREATE
 40
2458532.153996898
  9
$TDUPDATE
 40
2461316.867789352
  9
$TDUUPDATE
 40
2458532.1544311
  9
$TDINDWG
 40
0.0
  9
$TDUSRTIMER
 40
0.0
  9
$USRTIMER
 70
1
  9
$ANGBASE
 50
0.0
  9
$ANGDIR
 70
0
  9
$PDMODE
 70
0
  9
$PDSIZE
 40
0.0
  9
$PLINEWID
 40
0.0
  9
$SPLFRAME
 70
0
  9
$SPLINETYPE
 70
6
  9
$SPLINESEGS
 70
8
  9
$HANDSEED
  5
97
  9
$SURFTAB1
 70
6
  9
$SURFTAB2
 70
6
  9
$SURFTYPE
 70
6
  9
$SURFU
 70
6
  9
$SURFV
 70
6
  9
$UCSBASE
  2

  9
$UCSNAME
  2

  9
$UCSORG
 10
0.0
 20
0.0
 30
0.0
  9
$UCSXDIR
 10
1.0
 20
0.0
 30
0.0
  9
$UCSYDIR
 10
0.0
 20
1.0
 30
0.0
  9
$UCSORTHOREF
  2

  9
$UCSORTHOVIEW
 70
0
  9
$UCSORGTOP
 10
0.0
 20
0.0
 30
0.0
  9
$UCSORGBOTTOM
 10
0.0
 20
0.0
 30
0.0
  9
$UCSORGLEFT
 10
0.0
 20
0.0
 30
0.0
  9
$UCSORGRIGHT
 10
0.0
 20
0.0
 30
0.0
  9
$UCSORGFRONT
 10
0.0
 20
0.0
 30
0.0
  9
$UCSORGBACK
 10
0.0
 20
0.0
 30
0.0
  9
$PUCSBASE
  2

  9
$PUCSNAME
  2

  9
$PUCSORG
 10
0.0
 20
0.0
 30
0.0
  9
$PUCSXDIR
 10
1.0
 20
0.0
 30
0.0
  9
$PUCSYDIR
 10
0.0
 20
1.0
 30
0.0
  9
$PUCSORTHOREF
  2

  9
$PUCSORTHOVIEW
 70
0
  9
$PUCSORGTOP
 10
0.0
 20
0.0
 30
0.0
  9
$PUCSORGBOTTOM
 10
0.0
 20
0.0
 30
0.0
  9
$PUCSORGLEFT
 10
0.0
 20
0.0
 30
0.0
  9
$PUCSORGRIGHT
 10
0.0
 20
0.0
 30
0.0
  9
$PUCSORGFRONT
 10
0.0
 20
0.0
 30
0.0
  9
$PUCSORGBACK
 10
0.0
 20
0.0
 30
0.0
  9
$USERI1
 70
0
  9
$USERI2
 70
0
  9
$USERI3
 70
0
  9
$USERI4
 70
0
  9
$USERI5
 70
0
  9
$USERR1
 40
0.0
  9
$USERR2
 40
0.0
  9
$USERR3
 40
0.0
  9
$USERR4
 40
0.0
  9
$USERR5
 40
0.0
  9
$WORLDVIEW
 70
1
  9
$SHADEDGE
 70
3
  9
$SHADEDIF
 70
70
  9
$TILEMODE
 70
1
  9
$MAXACTVP
 70
64
  9
$PINSBASE
 10
0.0
 20
0.0
 30
0.0
  9
$PLIMCHECK
 70
0
  9
$PEXTMIN
 10
1e+20
 20
1e+20
 30
1e+20
  9
$PEXTMAX
 10
-1e+20
 20
-1e+20
 30
-1e+20
  9
$PLIMMIN
 10
0.0
 20
0.0
  9
$PLIMMAX
 10
420.0
 20
297.0
  9
$UNITMODE
 70
0
  9
$VISRETAIN
 70
1
  9
$PLINEGEN
 70
0
  9
$PSLTSCALE
 70
1
  9
$TREEDEPTH
 70
3020
  9
$CMLSTYLE
  2
Standard
  9
$CMLJUST
 70
0
  9
$CMLSCALE
 40
20.0
  9
$PROXYGRAPHICS
 70
1
  9
$MEASUREMENT
 70
1
  9
$CELWEIGHT
370
-1
  9
$ENDCAPS
280
0
  9
$JOINSTYLE
280
0
  9
$LWDISPLAY
290
0
  9
$INSUNITS
 70
4
  9
$HYPERLINKBASE
  1

  9
$STYLESHEET
  1

  9
$XEDIT
290
1
  9
$CEPSNTYPE
380
0
  9
$PSTYLEMODE
290
1
  9
$FINGERPRINTGUID
  2
{FF0B0D73-77DA-4D20-9953-2CC1CFC3888D}
  9
$VERSIONGUID
  2
{3EA64B8B-D469-4870-8913-BA229EA085B2}
  9
$EXTNAMES
290
1
  9
$PSVPSCALE
 40
0.0
  9
$OLESTARTUP
290
0
  9
$SORTENTS
280
127
  9
$INDEXCTL
280
0
  9
$HIDETEXT
280
1
  9
$XCLIPFRAME
280
1
  9
$HALOGAP
280
0
  9
$OBSCOLOR
 70
257
  9
$OBSLTYPE
280
0
  9
$INTERSECTIONDISPLAY
280
0
  9
$INTERSECTIONCOLOR
 70
257
  9
$DIMASSOC
280
2
  9
$PROJECTNAME
  1

  9
$CAMERADISPLAY
290
0
  9
$LENSLENGTH
 40
50.0
  9
$CAMERAHEIGHT
 40
0.0
  9
$STEPSPERSEC
 40
24.0
  9
$STEPSIZE
 40
100.0
  9
$3DDWFPREC
 40
2.0
  9
$PSOLWIDTH
 40
0.005
  9
$PSOLHEIGHT
 40
0.08
  9
$LOFTANG1
 40
1.570796326795
  9
$LOFTANG2
 40
1.570796326795
  9
$LOFTMAG1
 40
0.0
  9
$LOFTMAG2
 40
0.0
  9
$LOFTPARAM
 70
7
  9
$LOFTNORMALS
280
1
  9
$LATITUDE
 40
37.795
  9
$LONGITUDE
 40
-122.394
  9
$NORTHDIRECTION
 40
0.0
  9
$TIMEZONE
 70
-8000
  9
$LIGHTGLYPHDISPLAY
280
1
  9
$TILEMODELIGHTSYNCH
280
1
  9
$CMATERIAL
347
20
  9
$SOLIDHIST
280
0
  9
$SHOWHIST
280
1
  9
$DWFFRAME
280
2
  9
$DGNFRAME
280
2
  9
$REALWORLDSCALE
290
1
  9
$INTERFERECOLOR
 62
256
  9
$CSHADOW
280
0
  9
$SHADOWPLANELOCATION
 40
0.0
  0
ENDSEC
  0
SECTION
  2
CLASSES
  0
CLASS
  1
ACDBDICTIONARYWDFLT
  2
AcDbDictionaryWithDefault
  3
ObjectDBX Classes
 90
0
 91
0
280
0
281
0
  0
CLASS
  1
SUN
  2
AcDbSun
  3
SCENEOE
 90
1153
 91
0
280
0
281
0
  0
CLASS
  1
VISUALSTYLE
  2
AcDbVisualStyle
  3
ObjectDBX Classes
 90
4095
 91
0
280
0
281
0
  0
CLASS
  1
MATERIAL
  2
AcDbMaterial
  3
ObjectDBX Classes
 90
1153
 91
0
280
0
281
0
  0
CLASS
  1
SCALE
  2
AcDbScale
  3
ObjectDBX Classes
 90
1153
 91
0
280
0
281
0
  0
CLASS
  1
TABLESTYLE
  2
AcDbTableStyle
  3
ObjectDBX Classes
 90
4095
 91
0
280
0
281
0
  0
CLASS
  1
MLEADERSTYLE
  2
AcDbMLeaderStyle
  3
ACDB_MLEADERSTYLE_CLASS
 90
4095
 91
0
280
0
281
0
  0
CLASS
  1
DICTIONARYVAR
  2
AcDbDictionaryVar
  3
ObjectDBX Classes
 90
0
 91
0
280
0
281
0
  0
CLASS
  1
CELLSTYLEMAP
  2
AcDbCellStyleMap
  3
ObjectDBX Classes
 90
1152
 91
0
280
0
281
0
  0
CLASS
  1
MENTALRAYRENDERSETTINGS
  2
AcDbMentalRayRenderSettings
  3
SCENEOE
 90
1024
 91
0
280
0
281
0
  0
CLASS
  1
ACDBDETAILVIEWSTYLE
  2
AcDbDetailViewStyle
  3
ObjectDBX Classes
 90
1025
 91
0
280
0
281
0
  0
CLASS
  1
ACDBSECTIONVIEWSTYLE
  2
AcDbSectionViewStyle
  3
ObjectDBX Classes
 90
1025
 91
0
280
0
281
0
  0
CLASS
  1
RASTERVARIABLES
  2
AcDbRasterVariables
  3
ISM
 90
0
 91
0
280
0
281
0
  0
CLASS
  1
ACDBPLACEHOLDER
  2
AcDbPlaceHolder
  3
ObjectDBX Classes
 90
0
 91
0
280
0
281
0
  0
CLASS
  1
LAYOUT
  2
AcDbLayout
  3
ObjectDBX Classes
 90
0
 91
0
280
0
281
0
  0
ENDSEC
  0
SECTION
  2
TABLES
  0
TABLE
  2
VPORT
  5
8
330
0
100
AcDbSymbolTable
 70
1
  0
VPORT
  5
93
330
8
100
AcDbSymbolTableRecord
100
AcDbViewportTableRecord
  2
*Active
 70
0
 10
0.0
 20
0.0
 11
1.0
 21
1.0
 12
0.4671710407453382
 22
-2.1388043055750927
 13
0.0
 23
0.0
 14
0.5
 24
0.5
 15
0.5
 25
0.5
 16
0.0
 26
0.0
 36
1.0
 17
0.0
 27
0.0
 37
0.0
 40
65.42814881984026
 41
1.34
 42
50.0
 43
0.0
 44
0.0
 50
0.0
 51
0.0
 71
0
 72
1000
 73
1
 74
3
 75
0
 76
0
 77
0
 78
0
281
0
 65
1
110
0.0
120
0.0
130
0.0
111
1.0
121
0.0
131
0.0
112
0.0
122
1.0
132
0.0
 79
0
146
0.0
  0
ENDTAB
  0
TABLE
  2
LTYPE
  5
2
330
0
100
AcDbSymbolTable
 70
3
  0
LTYPE
  5
24
330
2
100
AcDbSymbolTableRecord
100
AcDbLinetypeTableRecord
  2
ByBlock
 70
0
  3

 72
65
 73
0
 40
0.0
  0
LTYPE
  5
25
330
2
100
AcDbSymbolTableRecord
100
AcDbLinetypeTableRecord
  2
ByLayer
 70
0
  3

 72
65
 73
0
 40
0.0
  0
LTYPE
  5
26
330
2
100
AcDbSymbolTableRecord
100
AcDbLinetypeTableRecord
  2
Continuous
 70
0
  3

 72
65
 73
0
 40
0.0
  0
ENDTAB
  0
TABLE
  2
LAYER
  5
1
330
0
100
AcDbSymbolTable
 70
3
  0
LAYER
  5
27
330
1
100
AcDbSymbolTableRecord
100
AcDbLayerTableRecord
  2
0
 70
0
 62
7
  6
Continuous
370
-3
390
13
347
21
  0
LAYER
  5
28
330
1
100
AcDbSymbolTableRecord
100
AcDbLayerTableRecord
  2
Defpoints
 70
0
 62
7
  6
Continuous
290
0
370
-3
390
13
347
21
  0
LAYER
  5
2F
330
1
100
AcDbSymbolTableRecord
100
AcDbLayerTableRecord
  2
visible
 70
0
 62
7
  6
Continuous
370
-3
390
13
347
21
  0
ENDTAB
  0
TABLE
  2
STYLE
  5
5
330
0
100
AcDbSymbolTable
 70
1
  0
STYLE
  5
29
330
5
100
AcDbSymbolTableRecord
100
AcDbTextStyleTableRecord
  2
Standard
 70
0
 40
0.0
 41
1.0
 50
0.0
 71
0
 42
2.5
  3
txt
  4

  0
ENDTAB
  0
TABLE
  2
VIEW
  5
7
330
0
100
AcDbSymbolTable
 70
0
  0
ENDTAB
  0
TABLE
  2
UCS
  5
6
330
0
100
AcDbSymbolTable
 70
0
  0
ENDTAB
  0
TABLE
  2
APPID
  5
3
330
0
100
AcDbSymbolTable
 70
3
  0
APPID
  5
2A
330
3
100
AcDbSymbolTableRecord
100
AcDbRegAppTableRecord
  2
ACAD
 70
0
  0
APPID
  5
94
330
3
100
AcDbSymbolTableRecord
100
AcDbRegAppTableRecord
  2
HATCHBACKGROUNDCOLOR
 70
0
  0
APPID
  5
95
330
3
100
AcDbSymbolTableRecord
100
AcDbRegAppTableRecord
  2
EZDXF
 70
0
  0
ENDTAB
  0
TABLE
  2
DIMSTYLE
  5
4
330
0
100
AcDbSymbolTable
 70
1
100
AcDbDimStyleTable
  0
DIMSTYLE
105
2B
330
4
100
AcDbSymbolTableRecord
100
AcDbDimStyleTableRecord
  2
Standard
 70
0
 40
1.0
 41
2.5
 42
0.625
 43
3.75
 44
1.25
 45
0.0
 46
0.0
 47
0.0
 48
0.0
 49
2.5
140
2.5
141
2.5
142
0.0
143
0.03937007874
144
1.0
145
0.0
146
1.0
147
0.625
148
0.0
 69
0
 70
0
 71
0
 72
0
 73
0
 74
0
 75
0
 76
0
 77
1
 78
8
 79
3
170
0
171
3
172
1
173
0
174
0
175
0
176
0
177
0
178
0
179
2
271
2
272
2
273
2
274
3
275
0
276
0
277
2
278
44
279
0
280
0
281
0
282
0
283
0
284
8
285
0
286
0
288
0
289
3
290
0
371
-2
372
-2
  0
ENDTAB
  0
TABLE
  2
BLOCK_RECORD
  5
9
330
0
100
AcDbSymbolTable
 70
2
  0
BLOCK_RECORD
  5
17
330
9
100
AcDbSymbolTableRecord
100
AcDbBlockTableRecord
  2
*Model_Space
340
1A
 70
0
280
1
281
0
  0
BLOCK_RECORD
  5
1B
330
9
100
AcDbSymbolTableRecord
100
AcDbBlockTableRecord
  2
*Paper_Space
340
1E
 70
0
280
1
281
0
  0
ENDTAB
  0
ENDSEC
  0
SECTION
  2
BLOCKS
  0
BLOCK
  5
18
330
17
100
AcDbEntity
  8
0
100
AcDbBlockBegin
  2
*Model_Space
 70
0
 10
0.0
 20
0.0
 30
0.0
  3
*Model_Space
  1

  0
ENDBLK
  5
19
330
17
100
AcDbEntity
  8
0
100
AcDbBlockEnd
  0
BLOCK
  5
1C
330
1B
100
AcDbEntity
  8
0
100
AcDbBlockBegin
  2
*Paper_Space
 70
0
 10
0.0
 20
0.0
 30
0.0
  3
*Paper_Space
  1

  0
ENDBLK
  5
1D
330
1B
100
AcDbEntity
  8
0
100
AcDbBlockEnd
  0
ENDSEC
  0
SECTION
  2
ENTITIES
  0
ELLIPSE
  5
30
330
17
100
AcDbEntity
  8
visible
100
AcDbEllipse
 10
8.731578476537326
 20
8.705361436252758
 30
0.0
 11
4.347187001512398
 21
16.64157339838639
 31
0.0
 40
0.6728321477171046
 41
-5.912852407721808
 42
-4.342056080926912
  0
LINE
  5
31
330
17
100
AcDbEntity
  8
visible
100
AcDbLine
 10
-3.2796879306293647
 20
-25.904380847502992
 30
0.0
 11
-3.2796879306293647
 21
5.408984273551049
 31
0.0
  0
ELLIPSE
  5
32
330
17
100
AcDbEntity
  8
visible
100
AcDbEllipse
 10
8.731578476537326
 20
-22.608003684801275
 30
0.0
 11
4.347187001512398
 21
16.641573398386395
 31
0.0
 40
0.6728321477171044
 41
-4.342056080926911
 42
-3.7358332377232513
  0
LINE
  5
33
330
17
100
AcDbEntity
  8
visible
100
AcDbLine
 10
-1.1393520362475726
 20
-34.759170080467214
 30
0.0
 11
1.1860885331782445
 21
-34.12097516192793
 31
0.0
  0
ELLIPSE
  5
34
330
17
100
AcDbEntity
  8
visible
100
AcDbEllipse
 10
8.731578476537326
 20
-22.608003684801275
 30
0.0
 11
3.6868438202003944
 21
14.113697437194814
 31
0.0
 40
0.6728321477171046
 41
-4.342056080926912
 42
-3.605396523451766
  0
LINE
  5
35
330
17
100
AcDbEntity
  8
visible
100
AcDbLine
 10
-1.4551614338085272
 20
5.909708116731792
 30
0.0
 11
-1.4551614338085272
 21
-25.40365700432225
 31
0.0
  0
ELLIPSE
  5
36
330
17
100
AcDbEntity
  8
visible
100
AcDbEllipse
 10
8.731578476537326
 20
8.705361436252758
 30
0.0
 11
3.6868438202003944
 21
14.113697437194814
 31
0.0
 40
0.6728321477171046
 41
-5.442009586052812
 42
-4.342056080926912
  0
LINE
  5
37
330
17
100
AcDbEntity
  8
visible
100
AcDbLine
 10
16.145984064456922
 20
23.26552017024128
 30
0.0
 11
4.110490657726252
 21
19.962494139270692
 31
0.0
  0
ELLIPSE
  5
38
330
17
100
AcDbEntity
  8
visible
100
AcDbEllipse
 10
11.52489624564586
 20
9.471960776415955
 30
0.0
 11
3.6868438202003944
 21
14.113697437194814
 31
0.0
 40
0.6728321477171046
 41
-1.2004634273371186
 42
-0.10050992221121735
  0
LINE
  5
39
330
17
100
AcDbEntity
  8
visible
100
AcDbLine
 10
21.711636155991716
 20
-19.045751025117113
 30
0.0
 11
21.711636155991716
 21
12.267614095936928
 31
0.0
  0
ELLIPSE
  5
3A
330
17
100
AcDbEntity
  8
visible
100
AcDbEllipse
 10
11.52489624564586
 20
-21.84140434463808
 30
0.0
 11
3.6868438202003944
 21
14.113697437194814
 31
0.0
 40
0.6728321477171046
 41
-1.9371229848122642
 42
-1.2004634273371186
  0
LINE
  5
3B
330
17
100
AcDbEntity
  8
visible
100
AcDbLine
 10
19.070386189004935
 20
-29.212800755900965
 30
0.0
 11
21.395826758430758
 21
-28.57460583736168
 31
0.0
  0
ELLIPSE
  5
3C
330
17
100
AcDbEntity
  8
visible
100
AcDbEllipse
 10
11.52489624564586
 20
-21.84140434463808
 30
0.0
 11
4.347187001512398
 21
16.64157339838639
 31
0.0
 40
0.6728321477171046
 41
-1.8066862705407787
 42
-1.2004634273371184
  0
LINE
  5
3D
330
17
100
AcDbEntity
  8
visible
100
AcDbLine
 10
23.536162652812546
 20
12.768337939117671
 30
0.0
 11
23.536162652812546
 21
-18.54502718193637
 31
0.0
  0
ELLIPSE
  5
3E
330
17
100
AcDbEntity
  8
visible
100
AcDbEllipse
 10
11.52489624564586
 20
9.471960776415955
 30
0.0
 11
4.347187001512398
 21
16.64157339838639
 31
0.0
 40
0.6728321477171046
 41
-7.483648734516705
 42
-5.912852407721808
  0
LINE
  5
3F
330
17
100
AcDbEntity
  8
visible
100
AcDbLine
 10
8.731578476537326
 20
25.277357746472134
 30
0.0
 11
11.524896245645857
 21
26.043957086635324
 31
0.0
  0
LINE
  5
40
330
17
100
AcDbEntity
  8
visible
100
AcDbLine
 10
6.514460784291574
 20
28.123596204594293
 30
0.0
 11
3.721143015183043
 21
27.3569968644311
 31
0.0
  0
ELLIPSE
  5
41
330
17
100
AcDbEntity
  8
visible
100
AcDbEllipse
 10
3.7211430151830456
 20
10.01421002815502
 30
0.0
 11
4.549381745768789
 21
17.41560006807878
 31
0.0
 40
0.6728321477171046
 41
-5.912852407721808
 42
-4.342056080926912
  0
LINE
  5
42
330
17
100
AcDbEntity
  8
visible
100
AcDbLine
 10
-8.848786945805351
 20
6.564512997420671
 30
0.0
 11
-8.848786945805351
 21
2.7105603671370915
 31
0.0
  0
LINE
  5
43
330
17
100
AcDbEntity
  8
visible
100
AcDbLine
 10
-8.848786945805351
 20
2.7105603671370915
 30
0.0
 11
-8.848786945805351
 21
-24.748852123633373
 31
0.0
  0
ELLIPSE
  5
44
330
17
100
AcDbEntity
  8
visible
100
AcDbEllipse
 10
3.7211430151830456
 20
-21.299155092899014
 30
0.0
 11
4.549381745768789
 21
17.41560006807878
 31
0.0
 40
0.6728321477171046
 41
-4.342056080926912
 42
-3.7624717405085564
  0
SPLINE
  5
45
330
17
100
AcDbEntity
  8
visible
100
AcDbSpline
 70
0
 71
2
 72
6
 73
3
 74
0
 40
0.0
 40
0.0
 40
0.0
 40
1.0
 40
1.0
 40
1.0
 10
-6.795996322807666
 20
-33.68371506618911
 30
0.0
 10
-6.693983615968569
 20
-33.669043137263664
 30
0.0
 10
-6.563551856364754
 20
-33.70257138629947
 30
0.0
  0
LINE
  5
46
330
17
100
AcDbEntity
  8
visible
100
AcDbLine
 10
-6.563551856364768
 20
-33.70257138629947
 30
0.0
 11
-2.3846610594664805
 21
-34.79420012344625
 31
0.0
  0
ELLIPSE
  5
47
330
17
100
AcDbEntity
  8
visible
100
AcDbEllipse
 10
5.117801899737309
 20
6.543557067953046
 30
0.0
 11
-4.296638315448305
 21
-16.448066730963294
 31
0.0
 40
0.6728321477171044
 41
0.7150340792564244
 42
1.5804165058891502
  0
ELLIPSE
  5
48
330
17
100
AcDbEntity
  8
visible
100
AcDbEllipse
 10
-0.5770948329714898
 20
-26.059379312427225
 30
0.0
 11
-0.29065494486856186
 21
-1.112663337682811
 31
0.0
 40
0.6728321477171044
 41
0.6706178525620742
 42
2.4709748010277273
  0
ELLIPSE
  5
49
330
17
100
AcDbEntity
  8
visible
100
AcDbEllipse
 10
0.35341460985144835
 20
-26.3024511937805
 30
0.0
 11
-0.29065494486856186
 21
-1.112663337682811
 31
0.0
 40
0.6728321477171044
 41
0.37033289945777836
 42
3.1415926535897936
  0
ELLIPSE
  5
4A
330
17
100
AcDbEntity
  8
visible
100
AcDbEllipse
 10
0.35341460985144835
 20
-26.3024511937805
 30
0.0
 11
-0.29065494486856186
 21
-1.112663337682811
 31
0.0
 40
0.6728321477171044
 41
3.1415926535897936
 42
6.283185307179586
  0
ELLIPSE
  5
4B
330
17
100
AcDbEntity
  8
visible
100
AcDbEllipse
 10
0.35341460985144835
 20
-26.3024511937805
 30
0.0
 11
-0.29065494486856186
 21
-1.112663337682811
 31
0.0
 40
0.6728321477171044
 41
0.0
 42
0.3703328994577788
  0
ELLIPSE
  5
4C
330
17
100
AcDbEntity
  8
visible
100
AcDbEllipse
 10
7.336709032622778
 20
5.963924120110619
 30
0.0
 11
-4.296638315448305
 21
-16.448066730963294
 31
0.0
 40
0.6728321477171044
 41
5.819585052771673
 42
6.283185307179586
  0
ELLIPSE
  5
4D
330
17
100
AcDbEntity
  8
visible
100
AcDbEllipse
 10
7.336709032622778
 20
5.963924120110619
 30
0.0
 11
-4.296638315448305
 21
-16.448066730963294
 31
0.0
 40
0.6728321477171044
 41
0.0
 42
0.3703328994577788
  0
ELLIPSE
  5
4E
330
17
100
AcDbEntity
  8
visible
100
AcDbEllipse
 10
7.336709032622778
 20
5.963924120110619
 30
0.0
 11
-4.296638315448305
 21
-16.448066730963294
 31
0.0
 40
0.6728321477171044
 41
0.37033289945777836
 42
1.941129226252675
  0
LINE
  5
4F
330
17
100
AcDbEntity
  8
visible
100
AcDbLine
 10
19.20830955133404
 20
9.221971315804183
 30
0.0
 11
19.20830955133404
 21
-18.237441174966282
 31
0.0
  0
ELLIPSE
  5
50
330
17
100
AcDbEntity
  8
visible
100
AcDbEllipse
 10
8.733367917177045
 20
-21.11218870057826
 30
0.0
 11
3.7911514548073244
 21
14.51300005673232
 31
0.0
 40
0.6728321477171046
 41
-1.9124424822496866
 42
-1.2004634273371184
  0
LINE
  5
51
330
17
100
AcDbEntity
  8
visible
100
AcDbLine
 10
16.663635927988068
 20
-28.377986452111102
 30
0.0
 11
0.3295520521459121
 21
-32.86071951594975
 31
0.0
  0
ELLIPSE
  5
52
330
17
100
AcDbEntity
  8
visible
100
AcDbEllipse
 10
14.320003455394108
 20
-22.469454492964545
 30
0.0
 11
-0.29065494486856186
 21
-1.112663337682811
 31
0.0
 40
0.6728321477171044
 41
0.37033289945777836
 42
3.1415926535897936
  0
ELLIPSE
  5
53
330
17
100
AcDbEntity
  8
visible
100
AcDbEllipse
 10
14.320003455394108
 20
-22.469454492964545
 30
0.0
 11
-0.29065494486856186
 21
-1.112663337682811
 31
0.0
 40
0.6728321477171044
 41
3.1415926535897936
 42
6.283185307179586
  0
ELLIPSE
  5
54
330
17
100
AcDbEntity
  8
visible
100
AcDbEllipse
 10
14.320003455394108
 20
-22.469454492964545
 30
0.0
 11
-0.29065494486856186
 21
-1.112663337682811
 31
0.0
 40
0.6728321477171044
 41
0.0
 42
0.3703328994577788
  0
ELLIPSE
  5
55
330
17
100
AcDbEntity
  8
visible
100
AcDbEllipse
 10
13.38949401257117
 20
-22.22638261161127
 30
0.0
 11
-0.29065494486856186
 21
-1.112663337682811
 31
0.0
 40
0.6728321477171044
 41
0.6706178525620702
 42
2.470974801027725
  0
LINE
  5
56
330
17
100
AcDbEntity
  8
visible
100
AcDbLine
 10
16.663635927988075
 20
-28.37798645211111
 30
0.0
 11
18.95412071032146
 21
-28.976317236980712
 31
0.0
  0
LINE
  5
57
330
17
100
AcDbEntity
  8
visible
100
AcDbLine
 10
19.20830955133404
 20
13.075923946087762
 30
0.0
 11
19.20830955133404
 21
9.221971315804183
 31
0.0
  0
ELLIPSE
  5
58
330
17
100
AcDbEntity
  8
visible
100
AcDbEllipse
 10
8.733367917177045
 20
10.201176420475775
 30
0.0
 11
3.7911514548073244
 21
14.51300005673232
 31
0.0
 40
0.6728321477171046
 41
-1.2004634273371186
 42
-0.3322113341088375
  0
ELLIPSE
  5
59
330
17
100
AcDbEntity
  8
visible
100
AcDbEllipse
 10
7.336709032622778
 20
5.963924120110619
 30
0.0
 11
-4.296638315448305
 21
-16.448066730963294
 31
0.0
 40
0.6728321477171044
 41
1.941129226252675
 42
3.0813040231746647
  0
LINE
  5
5A
330
17
100
AcDbEntity
  8
visible
100
AcDbLine
 10
16.225411656909472
 20
3.8110053622414215
 30
0.0
 11
7.636093723159272
 21
6.054745805502439
 31
0.0
  0
ELLIPSE
  5
5B
330
17
100
AcDbEntity
  8
visible
100
AcDbEllipse
 10
-3.471516034012886
 20
8.787297511214064
 30
0.0
 11
-5.054868606409771
 21
-19.35066674230976
 31
0.0
 40
0.6728321477171044
 41
1.0138340082510626
 42
1.5789734440231464
  0
LINE
  5
5C
330
17
100
AcDbEntity
  8
visible
100
AcDbLine
 10
0.5400811950700657
 20
-5.527568526329684
 30
0.0
 11
4.90843727331271
 21
-4.328714989430653
 31
0.0
  0
ELLIPSE
  5
5D
330
17
100
AcDbEntity
  8
visible
100
AcDbEllipse
 10
-3.471516034012886
 20
8.787297511214064
 30
0.0
 11
-4.296638315448305
 21
-16.448066730963294
 31
0.0
 40
0.6728321477171044
 41
0.7150340792564244
 42
1.5804165058891502
  0
LINE
  5
5E
330
17
100
AcDbEntity
  8
visible
100
AcDbLine
 10
7.336709032622771
 20
-10.41537455859455
 30
0.0
 11
-0.6740028425707241
 21
-8.322780204500674
 31
0.0
  0
ELLIPSE
  5
5F
330
17
100
AcDbEntity
  8
visible
100
AcDbEllipse
 10
-6.978820856960887
 20
9.703491525545644
 30
0.0
 11
-4.296638315448305
 21
-16.448066730963294
 31
0.0
 40
0.6728321477171044
 41
0.8542877245200698
 42
1.6331272285414666
  0
SPLINE
  5
60
330
17
100
AcDbEntity
  8
visible
100
AcDbSpline
 70
0
 71
3
 72
11
 73
7
 74
0
 40
0.0
 40
0.0
 40
0.0
 40
0.0
 40
0.6190548357282678
 40
0.6190548357282678
 40
0.6190548357282678
 40
1.0
 40
1.0
 40
1.0
 40
1.0
 10
5.465400857333719
 20
12.8119560250218
 30
0.0
 10
5.299960612242075
 20
11.825964878966117
 30
0.0
 10
5.062017314407034
 20
10.820148969932179
 30
0.0
 10
4.802913409510153
 20
9.783682866017767
 30
0.0
 10
4.645171717141396
 20
9.148516299597855
 30
0.0
 10
4.477435493829465
 20
8.499770897300394
 30
0.0
 10
4.334116107928672
 20
7.84274823553703
 30
0.0
  0
SPLINE
  5
61
330
17
100
AcDbEntity
  8
visible
100
AcDbSpline
 70
0
 71
3
 72
11
 73
7
 74
0
 40
0.0
 40
0.0
 40
0.0
 40
0.0
 40
0.4999999243322487
 40
0.4999999243322487
 40
0.4999999243322487
 40
0.9999998486644974
 40
0.9999998486644974
 40
0.9999998486644974
 40
0.9999998486644974
 10
5.465400857333719
 20
12.8119560250218
 30
0.0
 10
5.359808059194043
 20
13.483231606654426
 30
0.0
 10
5.232453641717269
 20
14.144422617078
 30
0.0
 10
5.083337604903379
 20
14.795529056292468
 30
0.0
 10
4.936219365579584
 20
15.446884747200722
 30
0.0
 10
4.770631744520797
 20
16.09201434775064
 30
0.0
 10
4.608131720533664
 20
16.711308826944105
 30
0.0
  0
SPLINE
  5
62
330
17
100
AcDbEntity
  8
visible
100
AcDbSpline
 70
0
 71
2
 72
6
 73
3
 74
0
 40
0.0
 40
0.0
 40
0.0
 40
1.0
 40
1.0
 40
1.0
 10
4.2890494651625275
 20
17.952697063650746
 30
0.0
 10
4.443946862388231
 20
17.345519593920358
 30
0.0
 10
4.608131720443438
 20
16.7113088269096
 30
0.0
  0
ELLIPSE
  5
63
330
17
100
AcDbEntity
  8
visible
100
AcDbEllipse
 10
-6.978820856960887
 20
9.703491525545644
 30
0.0
 11
-4.296638315448305
 21
-16.448066730963294
 31
0.0
 40
0.6728321477171044
 41
2.2614165259654992
 42
2.3801928624900874
  0
LINE
  5
64
330
17
100
AcDbEntity
  8
visible
100
AcDbLine
 10
9.129399128820264
 20
-7.771308969590701
 30
0.0
 11
0.5400811950700639
 21
-5.527568526329684
 31
0.0
  0
ELLIPSE
  5
65
330
17
100
AcDbEntity
  8
visible
100
AcDbEllipse
 10
-9.197727989846356
 20
10.283124473388071
 30
0.0
 11
-5.054868606409771
 21
-19.35066674230976
 31
0.0
 40
0.6728321477171044
 41
5.366515989050807
 42
6.283185307179586
  0
ELLIPSE
  5
66
330
17
100
AcDbEntity
  8
visible
100
AcDbEllipse
 10
-9.197727989846356
 20
10.283124473388071
 30
0.0
 11
-5.054868606409771
 21
-19.35066674230976
 31
0.0
 40
0.6728321477171044
 41
3.1415926535897936
 42
4.779234586275127
  0
SPLINE
  5
67
330
17
100
AcDbEntity
  8
visible
100
AcDbSpline
 70
0
 71
3
 72
8
 73
4
 74
0
 40
0.0
 40
0.0
 40
0.0
 40
0.0
 40
1.0
 40
1.0
 40
1.0
 40
1.0
 10
-22.526045351943907
 20
12.384062870893104
 30
0.0
 10
-22.668914059995462
 20
11.71404799055709
 30
0.0
 10
-22.76769211040763
 20
11.034340818701793
 30
0.0
 10
-22.807093231485283
 20
10.361920059671235
 30
0.0
  0
SPLINE
  5
68
330
17
100
AcDbEntity
  8
visible
100
AcDbSpline
 70
0
 71
3
 72
8
 73
4
 74
0
 40
0.0
 40
0.0
 40
0.0
 40
0.0
 40
0.7739974706334057
 40
0.7739974706334057
 40
0.7739974706334057
 40
0.7739974706334057
 10
-22.59169563980567
 20
6.300545076354723
 30
0.0
 10
-22.73929603656992
 20
7.335326960227529
 30
0.0
 10
-22.832415290545075
 20
8.380994216281497
 30
0.0
 10
-22.83303208256165
 20
9.438379601918555
 30
0.0
  0
SPLINE
  5
69
330
17
100
AcDbEntity
  8
visible
100
AcDbSpline
 70
0
 71
2
 72
6
 73
3
 74
0
 40
0.0
 40
0.0
 40
0.0
 40
1.0
 40
1.0
 40
1.0
 10
-22.83303208256165
 20
9.438379601918555
 30
0.0
 10
-22.833388886824192
 20
9.901144384077915
 30
0.0
 10
-22.807093231525904
 20
10.36192005966598
 30
0.0
  0
SPLINE
  5
6A
330
17
100
AcDbEntity
  8
visible
100
AcDbSpline
 70
0
 71
3
 72
8
 73
4
 74
0
 40
0.0
 40
0.0
 40
0.0
 40
0.0
 40
0.5509093048974995
 40
0.5509093048974995
 40
0.5509093048974995
 40
0.5509093048974995
 10
-22.59169563980567
 20
6.300545076354723
 30
0.0
 10
-22.73923563245455
 20
5.3436926188996035
 30
0.0
 10
-22.832478935868203
 20
4.404363112319707
 30
0.0
 10
-22.833032086086693
 20
3.4693501978165338
 30
0.0
  0
SPLINE
  5
6B
330
17
100
AcDbEntity
  8
visible
100
AcDbSpline
 70
0
 71
3
 72
8
 73
4
 74
0
 40
0.0
 40
0.0
 40
0.0
 40
0.0
 40
1.0
 40
1.0
 40
1.0
 40
1.0
 10
-22.833032086086693
 20
3.4693501978165338
 30
0.0
 10
-22.832171457259985
 20
2.708573314626861
 30
0.0
 10
-22.772305399348586
 20
1.956331472484745
 30
0.0
 10
-22.605653281567314
 20
1.2079139582077545
 30
0.0
  0
LINE
  5
6C
330
17
100
AcDbEntity
  8
visible
100
AcDbLine
 10
11.11216342901494
 20
-5.949280368640897
 30
0.0
 11
4.908437273312707
 21
-4.3287149894306465
 31
0.0
  0
ELLIPSE
  5
6D
330
17
100
AcDbEntity
  8
visible
100
AcDbEllipse
 10
6.514460784291572
 20
10.780809368318216
 30
0.0
 11
4.549381745768789
 21
17.41560006807878
 31
0.0
 40
0.6728321477171046
 41
-6.283185307179586
 42
-5.912852407721808
  0
LINE
  5
6E
330
17
100
AcDbEntity
  8
visible
100
AcDbLine
 10
23.536162652812546
 20
12.768337939117679
 30
0.0
 11
23.536162652812546
 21
13.057384386388943
 31
0.0
  0
SPLINE
  5
6F
330
17
100
AcDbEntity
  8
visible
100
AcDbSpline
 70
0
 71
3
 72
8
 73
4
 74
0
 40
0.0
 40
0.0
 40
0.0
 40
0.0
 40
1.0
 40
1.0
 40
1.0
 40
1.0
 10
21.702151751751316
 20
-28.408319748301665
 30
0.0
 10
21.676723838830817
 20
-28.469113645153577
 30
0.0
 10
21.56313362062199
 20
-28.528872665987443
 30
0.0
 10
21.39582675843076
 20
-28.574605837361673
 30
0.0
  0
SPLINE
  5
70
330
17
100
AcDbEntity
  8
visible
100
AcDbSpline
 70
0
 71
2
 72
6
 73
3
 74
0
 40
0.0
 40
0.0
 40
0.0
 40
0.4887379951004967
 40
0.4887379951004967
 40
0.4887379951004967
 10
18.95412071032146
 20
-28.976317236980705
 30
0.0
 10
19.11237138583896
 20
-29.018694306780453
 30
0.0
 10
19.142890368668496
 20
-29.08142111448666
 30
0.0
  0
SPLINE
  5
71
330
17
100
AcDbEntity
  8
visible
100
AcDbSpline
 70
0
 71
3
 72
11
 73
7
 74
0
 40
0.0
 40
0.0
 40
0.0
 40
0.0
 40
0.4872284038671597
 40
0.4872284038671597
 40
0.4872284038671597
 40
1.0
 40
1.0
 40
1.0
 40
1.0
 10
-2.384661059466481
 20
-34.79420012344626
 30
0.0
 10
-2.2325447079192378
 20
-34.83441533326232
 30
0.0
 10
-2.007549296569563
 20
-34.85287871549522
 30
0.0
 10
-1.7832614716240163
 20
-34.84626064949782
 30
0.0
 10
-1.5464614632598639
 20
-34.839790227514975
 30
0.0
 10
-1.3134212096161926
 20
-34.80716647556655
 30
0.0
 10
-1.1393520362475726
 20
-34.759170080467214
 30
0.0
  0
LINE
  5
72
330
17
100
AcDbEntity
  8
visible
100
AcDbLine
 10
-3.2796879306293647
 20
5.408984273551049
 30
0.0
 11
-3.2796879306293647
 21
5.698030720822313
 31
0.0
  0
ELLIPSE
  5
73
330
17
100
AcDbEntity
  8
visible
100
AcDbEllipse
 10
8.158957280953981
 20
25.426940442689542
 30
0.0
 11
0.2117238178931159
 21
-0.77147457828289
 31
0.0
 40
0.689642175898301
 41
-5.09112352535752
 42
-3.520327198562623
  0
LINE
  5
74
330
17
100
AcDbEntity
  8
visible
100
AcDbLine
 10
8.158957280953981
 20
26.197730968746257
 30
0.0
 11
10.952275050062513
 21
26.964330308909446
 31
0.0
  0
ELLIPSE
  5
75
330
17
100
AcDbEntity
  8
visible
100
AcDbEllipse
 10
10.952275050062514
 20
26.19353978285274
 30
0.0
 11
0.21172381789311578
 21
-0.77147457828289
 31
0.0
 40
0.689642175898301
 41
-5.09112352535752
 42
-3.520327198562623
  0
LINE
  5
76
330
17
100
AcDbEntity
  8
visible
100
AcDbLine
 10
10.952275050062514
 20
26.964330308909446
 30
0.0
 11
6.514460784291577
 21
28.123596204594303
 31
0.0
  0
LINE
  5
77
330
17
100
AcDbEntity
  8
visible
100
AcDbLine
 10
8.158957280953981
 20
26.19773096874625
 30
0.0
 11
3.721143015183044
 21
27.356996864431107
 31
0.0
  0
ELLIPSE
  5
78
330
17
100
AcDbEntity
  8
visible
100
AcDbEllipse
 10
8.158957280953981
 20
8.854944132470166
 30
0.0
 11
4.549381745768789
 21
17.41560006807878
 31
0.0
 40
0.6728321477171046
 41
-5.912852407721808
 42
-4.342056080926912
  0
LINE
  5
79
330
17
100
AcDbEntity
  8
visible
100
AcDbLine
 10
-4.410972680034412
 20
5.405247101735803
 30
0.0
 11
-8.84878694580535
 21
6.564512997420661
 31
0.0
  0
LINE
  5
7A
330
17
100
AcDbEntity
  8
visible
100
AcDbLine
 10
-4.410972680034412
 20
-25.908118019318238
 30
0.0
 11
-4.410972680034412
 21
5.405247101735803
 31
0.0
  0
LINE
  5
7B
330
17
100
AcDbEntity
  8
visible
100
AcDbLine
 10
-4.410972680034412
 20
-25.90811801931823
 30
0.0
 11
-8.84878694580535
 21
-24.748852123633373
 31
0.0
  0
ELLIPSE
  5
7C
330
17
100
AcDbEntity
  8
visible
100
AcDbEllipse
 10
8.158957280953981
 20
-22.458420988583867
 30
0.0
 11
4.549381745768789
 21
17.415600068078785
 31
0.0
 40
0.6728321477171044
 41
-4.342056080926911
 42
-3.766329432946721
  0
ELLIPSE
  5
7D
330
17
100
AcDbEntity
  8
visible
100
AcDbEllipse
 10
11.023852699510435
 20
-21.71051948544786
 30
0.0
 11
-3.7911514548073244
 21
-14.51300005673232
 31
0.0
 40
0.6728321477171046
 41
1.2291501713401067
 42
1.9411292262526745
  0
LINE
  5
7E
330
17
100
AcDbEntity
  8
visible
100
AcDbLine
 10
21.49879433366743
 20
-18.83577195983589
 30
0.0
 11
19.208309551334043
 21
-18.237441174966285
 31
0.0
  0
LINE
  5
7F
330
17
100
AcDbEntity
  8
visible
100
AcDbLine
 10
21.49879433366743
 20
-18.835771959835895
 30
0.0
 11
21.49879433366743
 21
12.477593161218145
 31
0.0
  0
LINE
  5
80
330
17
100
AcDbEntity
  8
visible
100
AcDbLine
 10
21.49879433366743
 20
12.477593161218145
 30
0.0
 11
19.208309551334043
 21
13.07592394608775
 31
0.0
  0
ELLIPSE
  5
81
330
17
100
AcDbEntity
  8
visible
100
AcDbEllipse
 10
11.023852699510435
 20
9.602845635606172
 30
0.0
 11
-3.7911514548073244
 21
-14.51300005673232
 31
0.0
 40
0.6728321477171046
 41
1.9411292262526747
 42
2.5538459476907134
  0
ELLIPSE
  5
82
330
17
100
AcDbEntity
  8
visible
100
AcDbEllipse
 10
4.90673730351201
 20
16.512588787272733
 30
0.0
 11
0.8
 21
0.0
 31
0.0
 40
0.2677509481227753
 41
1.9533135832780553
 42
2.36853173208395
  0
ELLIPSE
  5
83
330
17
100
AcDbEntity
  8
visible
100
AcDbEllipse
 10
-5.582161972406624
 20
13.9407438259108
 30
0.0
 11
-3.5889567105509337
 21
-13.738973387039929
 31
0.0
 40
0.6728321477171046
 41
1.9411292262526747
 42
2.0365038567565357
  0
LINE
  5
84
330
17
100
AcDbEntity
  8
visible
100
AcDbLine
 10
4.334116107928665
 20
7.842748235536714
 30
0.0
 11
4.334116107928665
 21
16.662171483490134
 31
0.0
  0
ELLIPSE
  5
85
330
17
100
AcDbEntity
  8
visible
100
AcDbEllipse
 10
10.952275050062514
 20
9.621543472633348
 30
0.0
 11
4.549381745768789
 21
17.41560006807878
 31
0.0
 40
0.6728321477171046
 41
-6.283185307179586
 42
-5.912852407721808
  0
ELLIPSE
  5
86
330
17
100
AcDbEntity
  8
visible
100
AcDbEllipse
 10
22.9635414572292
 20
12.91792063533508
 30
0.0
 11
-0.8
 21
-4.609181818795594e-17
 31
0.0
 40
0.26775094812277533
 41
-3.9146535750956364
 42
-3.141592653589793
  0
ELLIPSE
  5
87
330
17
100
AcDbEntity
  8
visible
100
AcDbEllipse
 10
22.9635414572292
 20
-18.395444485718954
 30
0.0
 11
-0.8
 21
-0.0
 31
0.0
 40
0.2677509481227753
 41
-3.9146535750956364
 42
-3.141592653589793
  0
ELLIPSE
  5
88
330
17
100
AcDbEntity
  8
visible
100
AcDbEllipse
 10
20.940130779845724
 20
-18.989091827868535
 30
0.0
 11
-0.8
 21
1.3827545456386778e-16
 31
0.0
 40
0.2677509481227751
 41
-2.8738922423681004
 42
-2.34385724830074
  0
ELLIPSE
  5
89
330
17
100
AcDbEntity
  8
visible
100
AcDbEllipse
 10
20.940130779845724
 20
12.324273293185499
 30
0.0
 11
-0.8
 21
-0.0
 31
0.0
 40
0.2677509481227753
 41
-2.872320531010084
 42
-2.34385724830074
  0
ELLIPSE
  5
8A
330
17
100
AcDbEntity
  8
visible
100
AcDbEllipse
 10
-3.8523091262127025
 20
-25.7547981512856
 30
0.0
 11
0.8
 21
1.382754545638678e-16
 31
0.0
 40
0.26775094812277545
 41
3.9393280588788464
 42
5.510124385673743
  0
ELLIPSE
  5
8B
330
17
100
AcDbEntity
  8
visible
100
AcDbEllipse
 10
-3.8523091262127025
 20
5.558566969768435
 30
0.0
 11
0.8
 21
0.0
 31
0.0
 40
0.2677509481227753
 41
3.9393280588788464
 42
5.510124385673743
  0
LINE
  5
8C
330
17
100
AcDbEntity
  8
visible
100
AcDbLine
 10
-22.833032085983966
 20
3.469350196816098
 30
0.0
 11
-22.833032085983966
 21
9.438379606256664
 31
0.0
  0
LINE
  5
8D
330
17
100
AcDbEntity
  8
visible
100
AcDbLine
 10
4.136559608258562
 20
27.471003974422803
 30
0.0
 11
-4.142859383436583
 21
29.633791215697837
 31
0.0
  0
LINE
  5
8E
330
17
100
AcDbEntity
  8
visible
100
AcDbLine
 10
-8.84878694580535
 20
-10.479149844042228
 30
0.0
 11
-14.252596596256122
 21
-9.067542268921677
 31
0.0
  0
LINE
  5
8F
330
17
100
AcDbEntity
  8
visible
100
AcDbLine
 10
11.063842530060365
 20
28.196409436397015
 30
0.0
 11
15.501656795831302
 21
27.037143540712158
 31
0.0
  0
SPLINE
  5
90
330
17
100
AcDbEntity
  8
visible
100
AcDbSpline
 70
0
 71
3
 72
14
 73
10
 74
0
 40
0.0
 40
0.0
 40
0.0
 40
0.0
 40
0.414843136594685
 40
0.414843136594685
 40
0.414843136594685
 40
0.7483549301830222
 40
0.7483549301830222
 40
0.7483549301830222
 40
1.0
 40
1.0
 40
1.0
 40
1.0
 10
15.501656795831302
 20
27.037143540712137
 30
0.0
 10
17.537967673079077
 20
26.509367391994537
 30
0.0
 10
19.360561960483068
 20
25.215332817857508
 30
0.0
 10
20.739934837865174
 20
23.351682822040665
 30
0.0
 10
21.85236281117307
 20
21.855861058652337
 30
0.0
 10
22.686208759041218
 20
19.99668535750496
 30
0.0
 10
23.189672045377485
 20
17.918336724308375
 30
0.0
 10
23.570363544164344
 20
16.350743728748913
 30
0.0
 10
23.763808727209454
 20
14.659334139400164
 30
0.0
 10
23.763541457229206
 20
12.91792063533508
 30
0.0
  0
LINE
  5
91
330
17
100
AcDbEntity
  8
visible
100
AcDbLine
 10
23.763541457229202
 20
12.91792063533508
 30
0.0
 11
23.763541457229202
 21
-18.39544448571896
 31
0.0
  0
SPLINE
  5
92
330
17
100
AcDbEntity
  8
visible
100
AcDbSpline
 70
0
 71
3
 72
8
 73
4
 74
0
 40
0.0
 40
0.0
 40
0.0
 40
0.0
 40
1.0
 40
1.0
 40
1.0
 40
1.0
 10
23.763541457229202
 20
-18.395444485718954
 30
0.0
 10
23.767374167577373
 20
-21.737587558305755
 30
0.0
 10
23.04146769471698
 20
-25.26090383050982
 30
0.0
 10
21.702151759922366
 20
-28.408319751510547
 30
0.0
  0
ENDSEC
  0
SECTION
  2
OBJECTS
  0
DICTIONARY
  5
A
330
0
100
AcDbDictionary
281
1
  3
ACAD_COLOR
350
B
  3
ACAD_GROUP
350
C
  3
ACAD_LAYOUT
350
D
  3
ACAD_MATERIAL
350
E
  3
ACAD_MLEADERSTYLE
350
F
  3
ACAD_MLINESTYLE
350
10
  3
ACAD_PLOTSETTINGS
350
11
  3
ACAD_PLOTSTYLENAME
350
12
  3
ACAD_SCALELIST
350
14
  3
ACAD_TABLESTYLE
350
15
  3
ACAD_VISUALSTYLE
350
16
  3
EZDXF_META
350
2D
  0
DICTIONARY
  5
B
330
A
100
AcDbDictionary
281
1
  0
DICTIONARY
  5
C
330
A
100
AcDbDictionary
281
1
  0
DICTIONARY
  5
D
330
A
100
AcDbDictionary
281
1
  3
Model
350
1A
  3
Layout1
350
1E
  0
DICTIONARY
  5
E
330
A
100
AcDbDictionary
281
1
  3
ByBlock
350
1F
  3
ByLayer
350
20
  3
Global
350
21
  0
DICTIONARY
  5
F
330
A
100
AcDbDictionary
281
1
  3
Standard
350
2C
  0
DICTIONARY
  5
10
330
A
100
AcDbDictionary
281
1
  3
Standard
350
22
  0
DICTIONARY
  5
11
330
A
100
AcDbDictionary
281
1
  0
ACDBDICTIONARYWDFLT
  5
12
330
A
100
AcDbDictionary
281
1
  3
Normal
350
13
100
AcDbDictionaryWithDefault
340
13
  0
ACDBPLACEHOLDER
  5
13
330
12
  0
DICTIONARY
  5
14
330
A
100
AcDbDictionary
281
1
  0
DICTIONARY
  5
15
330
A
100
AcDbDictionary
281
1
  0
DICTIONARY
  5
16
330
A
100
AcDbDictionary
281
1
  0
LAYOUT
  5
1A
330
D
100
AcDbPlotSettings
  1

  4
A3
  6

 40
7.5
 41
20.0
 42
7.5
 43
20.0
 44
420.0
 45
297.0
 46
0.0
 47
0.0
 48
0.0
 49
0.0
140
0.0
141
0.0
142
1.0
143
1.0
 70
1024
 72
1
 73
0
 74
5
  7

 75
16
 76
0
 77
2
 78
300
147
1.0
148
0.0
149
0.0
100
AcDbLayout
  1
Model
 70
1
 71
0
 10
0.0
 20
0.0
 11
420.0
 21
297.0
 12
0.0
 22
0.0
 32
0.0
 14
1e+20
 24
1e+20
 34
1e+20
 15
-1e+20
 25
-1e+20
 35
-1e+20
146
0.0
 13
0.0
 23
0.0
 33
0.0
 16
1.0
 26
0.0
 36
0.0
 17
0.0
 27
1.0
 37
0.0
 76
1
330
17
  0
LAYOUT
  5
1E
330
D
100
AcDbPlotSettings
  1

  4
A3
  6

 40
7.5
 41
20.0
 42
7.5
 43
20.0
 44
420.0
 45
297.0
 46
0.0
 47
0.0
 48
0.0
 49
0.0
140
0.0
141
0.0
142
1.0
143
1.0
 70
0
 72
1
 73
0
 74
5
  7

 75
16
 76
0
 77
2
 78
300
147
1.0
148
0.0
149
0.0
100
AcDbLayout
  1
Layout1
 70
1
 71
1
 10
0.0
 20
0.0
 11
420.0
 21
297.0
 12
0.0
 22
0.0
 32
0.0
 14
1e+20
 24
1e+20
 34
1e+20
 15
-1e+20
 25
-1e+20
 35
-1e+20
146
0.0
 13
0.0
 23
0.0
 33
0.0
 16
1.0
 26
0.0
 36
0.0
 17
0.0
 27
1.0
 37
0.0
 76
1
330
1B
  0
MATERIAL
  5
1F
102
{ACAD_REACTORS
330
E
102
}
330
E
100
AcDbMaterial
  1
ByBlock
  2

 70
0
 40
1.0
 71
1
 41
1.0
 91
-1023410177
 42
1.0
 72
1
  3

 73
1
 74
1
 75
1
 44
0.5
 73
0
 45
1.0
 46
1.0
 77
1
  4

 78
1
 79
1
170
1
 48
1.0
171
1
  6

172
1
173
1
174
1
140
1.0
141
1.0
175
1
  7

176
1
177
1
178
1
143
1.0
179
1
  8

270
1
271
1
272
1
145
1.0
146
1.0
273
1
  9

274
1
275
1
276
1
 42
1.0
 72
1
  3

 73
1
 74
1
 75
1
 94
63
  0
MATERIAL
  5
20
102
{ACAD_REACTORS
330
E
102
}
330
E
100
AcDbMaterial
  1
ByLayer
  2

 70
0
 40
1.0
 71
1
 41
1.0
 91
-1023410177
 42
1.0
 72
1
  3

 73
1
 74
1
 75
1
 44
0.5
 73
0
 45
1.0
 46
1.0
 77
1
  4

 78
1
 79
1
170
1
 48
1.0
171
1
  6

172
1
173
1
174
1
140
1.0
141
1.0
175
1
  7

176
1
177
1
178
1
143
1.0
179
1
  8

270
1
271
1
272
1
145
1.0
146
1.0
273
1
  9

274
1
275
1
276
1
 42
1.0
 72
1
  3

 73
1
 74
1
 75
1
 94
63
  0
MATERIAL
  5
21
102
{ACAD_REACTORS
330
E
102
}
330
E
100
AcDbMaterial
  1
Global
  2

 70
0
 40
1.0
 71
1
 41
1.0
 91
-1023410177
 42
1.0
 72
1
  3

 73
1
 74
1
 75
1
 44
0.5
 73
0
 45
1.0
 46
1.0
 77
1
  4

 78
1
 79
1
170
1
 48
1.0
171
1
  6

172
1
173
1
174
1
140
1.0
141
1.0
175
1
  7

176
1
177
1
178
1
143
1.0
179
1
  8

270
1
271
1
272
1
145
1.0
146
1.0
273
1
  9

274
1
275
1
276
1
 42
1.0
 72
1
  3

 73
1
 74
1
 75
1
 94
63
  0
MLINESTYLE
  5
22
102
{ACAD_REACTORS
330
10
102
}
330
10
100
AcDbMlineStyle
  2
Standard
 70
0
  3

 62
256
 51
90.0
 52
90.0
 71
2
 49
0.5
 62
256
  6
BYLAYER
 49
-0.5
 62
256
  6
BYLAYER
  0
MLEADERSTYLE
  5
2C
102
{ACAD_REACTORS
330
F
102
}
330
F
100
AcDbMLeaderStyle
179
2
170
2
171
1
172
0
 90
2
 40
0.0
 41
0.0
173
1
 91
-1056964608
 92
-2
290
1
 42
2.0
291
1
 43
8.0
  3
Standard
 44
4.0
300

342
29
174
1
175
1
176
0
178
1
 93
-1056964608
 45
4.0
292
0
297
0
 46
4.0
 94
-1056964608
 47
1.0
 49
1.0
140
1.0
294
1
141
0.0
177
0
142
1.0
295
0
296
0
143
3.75
271
0
272
9
273
9
  0
DICTIONARY
  5
2D
330
A
100
AcDbDictionary
280
1
281
1
  3
CREATED_BY_EZDXF
350
2E
  3
WRITTEN_BY_EZDXF
350
96
  0
DICTIONARYVAR
  5
2E
330
2D
100
DictionaryVariables
280
0
  1
1.4.4 @ 2026-10-02T17:49:37.588612+00:00
  0
DICTIONARYVAR
  5
96
330
2D
100
DictionaryVariables
280
0
  1
1.4.4 @ 2026-10-02T17:49:37.610196+00:00
  0
ENDSEC
  0
EOF
