  0
SECTION
  2
HEADER
  9
$ACADVER
  1
AC1027
  9
$ACADMAINTVER
 70
105
  9
$DWGCODEPAGE
  3
ANSI_1252
  9
$LASTSAVEDBY
  1
ezdxf
  9
$REQUIREDVERSIONS
160
0
  9
$INSBASE
 10
0.0
 20
0.0
 30
0.0
  9
$EXTMIN
 10
1e+20
 20
1e+20
 30
1e+20
  9
$EXTMAX
 10
-1e+20
 20
-1e+20
 30
-1e+20
  9
$LIMMIN
 10
0.0
 20
0.0
  9
$LIMMAX
 10
420.0
 20
297.0
  9
$ORTHOMODE
 70
0
  9
$REGENMODE
 70
1
  9
$FILLMODE
 70
1
  9
$QTEXTMODE
 70
0
  9
$MIRRTEXT
 70
1
  9
$LTSCALE
 40
1.0
  9
$ATTMODE
 70
1
  9
$TEXTSIZE
 40
2.5
  9
$TRACEWID
 40
1.0
  9
$TEXTSTYLE
  7
Standard
  9
$CLAYER
  8
0
  9
$CELTYPE
  6
ByLayer
  9
$CECOLOR
 62
256
  9
$CELTSCALE
 40
1.0
  9
$DISPSILH
 70
0
  9
$DIMSCALE
 40
1.0
  9
$DIMASZ
 40
2.5
  9
$DIMEXO
 40
0.625
  9
$DIMDLI
 40
3.75
  9
$DIMRND
 40
0.0
  9
$DIMDLE
 40
0.0
  9
$DIMEXE
 40
1.25
  9
$DIMTP
 40
0.0
  9
$DIMTM
 40
0.0
  9
$DIMTXT
 40
2.5
  9
$DIMCEN
 40
2.5
  9
$DIMTSZ
 40
0.0
  9
$DIMTOL
 70
0
  9
$DIMLIM
 70
0
  9
$DIMTIH
 70
0
  9
$DIMTOH
 70
0
  9
$DIMSE1
 70
0
  9
$DIMSE2
 70
0
  9
$DIMTAD
 70
1
  9
$DIMZIN
 70
8
  9
$DIMBLK
  1

  9
$DIMASO
 70
1
  9
$DIMSHO
 70
1
  9
$DIMPOST
  1

  9
$DIMAPOST
  1

  9
$DIMALT
 70
0
  9
$DIMALTD
 70
3
  9
$DIMALTF
 40
0.03937007874
  9
$DIMLFAC
 40
1.0
  9
$DIMTOFL
 70
1
  9
$DIMTVP
 40
0.0
  9
$DIMTIX
 70
0
  9
$DIMSOXD
 70
0
  9
$DIMSAH
 70
0
  9
$DIMBLK1
  1

  9
$DIMBLK2
  1

  9
$DIMSTYLE
  2
ISO-25
  9
$DIMCLRD
 70
0
  9
$DIMCLRE
 70
0
  9
$DIMCLRT
 70
0
  9
$DIMTFAC
 40
1.0
  9
$DIMGAP
 40
0.625
  9
$DIMJUST
 70
0
  9
$DIMSD1
 70
0
  9
$DIMSD2
 70
0
  9
$DIMTOLJ
 70
0
  9
$DIMTZIN
 70
8
  9
$DIMALTZ
 70
0
  9
$DIMALTTZ
 70
0
  9
$DIMUPT
 70
0
  9
$DIMDEC
 70
2
  9
$DIMTDEC
 70
2
  9
$DIMALTU
 70
2
  9
$DIMALTTD
 70
3
  9
$DIMTXSTY
  7
Standard
  9
$DIMAUNIT
 70
0
  9
$DIMADEC
 70
0
  9
$DIMALTRND
 40
0.0
  9
$DIMAZIN
 70
0
  9
$DIMDSEP
 70
44
  9
$DIMATFIT
 70
3
  9
$DIMFRAC
 70
0
  9
$DIMLDRBLK
  1

  9
$DIMLUNIT
 70
2
  9
$DIMLWD
 70
-2
  9
$DIMLWE
 70
-2
  9
$DIMTMOVE
 70
0
  9
$DIMFXL
 40
1.0
  9
$DIMFXLON
 70
0
  9
$DIMJOGANG
 40
0.785398163397
  9
$DIMTFILL
 70
0
  9
$DIMTFILLCLR
 70
0
  9
$DIMARCSYM
 70
0
  9
$DIMLTYPE
  6

  9
$DIMLTEX1
  6

  9
$DIMLTEX2
  6

  9
$DIMTXTDIRECTION
 70
0
  9
$LUNITS
 70
2
  9
$LUPREC
 70
4
  9
$SKETCHINC
 40
1.0
  9
$FILLETRAD
 40
10.0
  9
$AUNITS
 70
0
  9
$AUPREC
 70
2
  9
$MENU
  1
.
  9
$ELEVATION
 40
0.0
  9
$PELEVATION
 40
0.0
  9
$THICKNESS
 40
0.0
  9
$LIMCHECK
 70
0
  9
$CHAMFERA
 40
0.0
  9
$CHAMFERB
 40
0.0
  9
$CHAMFERC
 40
0.0
  9
$CHAMFERD
 40
0.0
  9
$SKPOLY
 70
0
  9
$TDCREATE
 40
2461315.983275463
  9
$TDUCREATE
 40
2458532.153996898
  9
$TDUPDATE
 40
2461315.983275463
  9
$TDUUPDATE
 40
2458532.1544311
  9
$TDINDWG
 40
0.0
  9
$TDUSRTIMER
 40
0.0
  9
$USRTIMER
 70
1
  9
$ANGBASE
 50
0.0
  9
$ANGDIR
 70
0
  9
$PDMODE
 70
0
  9
$PDSIZE
 40
0.0
  9
$PLINEWID
 40
0.0
  9
$SPLFRAME
 70
0
  9
$SPLINETYPE
 70
6
  9
$SPLINESEGS
 70
8
  9
$HANDSEED
  5
9D
  9
$SURFTAB1
 70
6
  9
$SURFTAB2
 70
6
  9
$SURFTYPE
 70
6
  9
$SURFU
 70
6
  9
$SURFV
 70
6
  9
$UCSBASE
  2

  9
$UCSNAME
  2

  9
$UCSORG
 10
0.0
 20
0.0
 30
0.0
  9
$UCSXDIR
 10
1.0
 20
0.0
 30
0.0
  9
$UCSYDIR
 10
0.0
 20
1.0
 30
0.0
  9
$UCSORTHOREF
  2

  9
$UCSORTHOVIEW
 70
0
  9
$UCSORGTOP
 10
0.0
 20
0.0
 30
0.0
  9
$UCSORGBOTTOM
 10
0.0
 20
0.0
 30
0.0
  9
$UCSORGLEFT
 10
0.0
 20
0.0
 30
0.0
  9
$UCSORGRIGHT
 10
0.0
 20
0.0
 30
0.0
  9
$UCSORGFRONT
 10
0.0
 20
0.0
 30
0.0
  9
$UCSORGBACK
 10
0.0
 20
0.0
 30
0.0
  9
$PUCSBASE
  2

  9
$PUCSNAME
  2

  9
$PUCSORG
 10
0.0
 20
0.0
 30
0.0
  9
$PUCSXDIR
 10
1.0
 20
0.0
 30
0.0
  9
$PUCSYDIR
 10
0.0
 20
1.0
 30
0.0
  9
$PUCSORTHOREF
  2

  9
$PUCSORTHOVIEW
 70
0
  9
$PUCSORGTOP
 10
0.0
 20
0.0
 30
0.0
  9
$PUCSORGBOTTOM
 10
0.0
 20
0.0
 30
0.0
  9
$PUCSORGLEFT
 10
0.0
 20
0.0
 30
0.0
  9
$PUCSORGRIGHT
 10
0.0
 20
0.0
 30
0.0
  9
$PUCSORGFRONT
 10
0.0
 20
0.0
 30
0.0
  9
$PUCSORGBACK
 10
0.0
 20
0.0
 30
0.0
  9
$USERI1
 70
0
  9
$USERI2
 70
0
  9
$USERI3
 70
0
  9
$USERI4
 70
0
  9
$USERI5
 70
0
  9
$USERR1
 40
0.0
  9
$USERR2
 40
0.0
  9
$USERR3
 40
0.0
  9
$USERR4
 40
0.0
  9
$USERR5
 40
0.0
  9
$WORLDVIEW
 70
1
  9
$SHADEDGE
 70
3
  9
$SHADEDIF
 70
70
  9
$TILEMODE
 70
1
  9
$MAXACTVP
 70
64
  9
$PINSBASE
 10
0.0
 20
0.0
 30
0.0
  9
$PLIMCHECK
 70
0
  9
$PEXTMIN
 10
1e+20
 20
1e+20
 30
1e+20
  9
$PEXTMAX
 10
-1e+20
 20
-1e+20
 30
-1e+20
  9
$PLIMMIN
 10
0.0
 20
0.0
  9
$PLIMMAX
 10
420.0
 20
297.0
  9
$UNITMODE
 70
0
  9
$VISRETAIN
 70
1
  9
$PLINEGEN
 70
0
  9
$PSLTSCALE
 70
1
  9
$TREEDEPTH
 70
3020
  9
$CMLSTYLE
  2
Standard
  9
$CMLJUST
 70
0
  9
$CMLSCALE
 40
20.0
  9
$PROXYGRAPHICS
 70
1
  9
$MEASUREMENT
 70
1
  9
$CELWEIGHT
370
-1
  9
$ENDCAPS
280
0
  9
$JOINSTYLE
280
0
  9
$LWDISPLAY
290
0
  9
$INSUNITS
 70
4
  9
$HYPERLINKBASE
  1

  9
$STYLESHEET
  1

  9
$XEDIT
290
1
  9
$CEPSNTYPE
380
0
  9
$PSTYLEMODE
290
1
  9
$FINGERPRINTGUID
  2
{A8CD1071-CCC1-42DF-91B7-49779FD278DC}
  9
$VERSIONGUID
  2
{46046516-F04D-4636-8B7B-7E86B8166A33}
  9
$EXTNAMES
290
1
  9
$PSVPSCALE
 40
0.0
  9
$OLESTARTUP
290
0
  9
$SORTENTS
280
127
  9
$INDEXCTL
280
0
  9
$HIDETEXT
280
1
  9
$XCLIPFRAME
280
1
  9
$HALOGAP
280
0
  9
$OBSCOLOR
 70
257
  9
$OBSLTYPE
280
0
  9
$INTERSECTIONDISPLAY
280
0
  9
$INTERSECTIONCOLOR
 70
257
  9
$DIMASSOC
280
2
  9
$PROJECTNAME
  1

  9
$CAMERADISPLAY
290
0
  9
$LENSLENGTH
 40
50.0
  9
$CAMERAHEIGHT
 40
0.0
  9
$STEPSPERSEC
 40
24.0
  9
$STEPSIZE
 40
100.0
  9
$3DDWFPREC
 40
2.0
  9
$PSOLWIDTH
 40
0.005
  9
$PSOLHEIGHT
 40
0.08
  9
$LOFTANG1
 40
1.570796326795
  9
$LOFTANG2
 40
1.570796326795
  9
$LOFTMAG1
 40
0.0
  9
$LOFTMAG2
 40
0.0
  9
$LOFTPARAM
 70
7
  9
$LOFTNORMALS
280
1
  9
$LATITUDE
 40
37.795
  9
$LONGITUDE
 40
-122.394
  9
$NORTHDIRECTION
 40
0.0
  9
$TIMEZONE
 70
-8000
  9
$LIGHTGLYPHDISPLAY
280
1
  9
$TILEMODELIGHTSYNCH
280
1
  9
$CMATERIAL
347
20
  9
$SOLIDHIST
280
0
  9
$SHOWHIST
280
1
  9
$DWFFRAME
280
2
  9
$DGNFRAME
280
2
  9
$REALWORLDSCALE
290
1
  9
$INTERFERECOLOR
 62
256
  9
$CSHADOW
280
0
  9
$SHADOWPLANELOCATION
 40
0.0
  0
ENDSEC
  0
SECTION
  2
CLASSES
  0
CLASS
  1
ACDBDICTIONARYWDFLT
  2
AcDbDictionaryWithDefault
  3
ObjectDBX Classes
 90
0
 91
0
280
0
281
0
  0
CLASS
  1
SUN
  2
AcDbSun
  3
SCENEOE
 90
1153
 91
0
280
0
281
0
  0
CLASS
  1
VISUALSTYLE
  2
AcDbVisualStyle
  3
ObjectDBX Classes
 90
4095
 91
0
280
0
281
0
  0
CLASS
  1
MATERIAL
  2
AcDbMaterial
  3
ObjectDBX Classes
 90
1153
 91
0
280
0
281
0
  0
CLASS
  1
SCALE
  2
AcDbScale
  3
ObjectDBX Classes
 90
1153
 91
0
280
0
281
0
  0
CLASS
  1
TABLESTYLE
  2
AcDbTableStyle
  3
ObjectDBX Classes
 90
4095
 91
0
280
0
281
0
  0
CLASS
  1
MLEADERSTYLE
  2
AcDbMLeaderStyle
  3
ACDB_MLEADERSTYLE_CLASS
 90
4095
 91
0
280
0
281
0
  0
CLASS
  1
DICTIONARYVAR
  2
AcDbDictionaryVar
  3
ObjectDBX Classes
 90
0
 91
0
280
0
281
0
  0
CLASS
  1
CELLSTYLEMAP
  2
AcDbCellStyleMap
  3
ObjectDBX Classes
 90
1152
 91
0
280
0
281
0
  0
CLASS
  1
MENTALRAYRENDERSETTINGS
  2
AcDbMentalRayRenderSettings
  3
SCENEOE
 90
1024
 91
0
280
0
281
0
  0
CLASS
  1
ACDBDETAILVIEWSTYLE
  2
AcDbDetailViewStyle
  3
ObjectDBX Classes
 90
1025
 91
0
280
0
281
0
  0
CLASS
  1
ACDBSECTIONVIEWSTYLE
  2
AcDbSectionViewStyle
  3
ObjectDBX Classes
 90
1025
 91
0
280
0
281
0
  0
CLASS
  1
RASTERVARIABLES
  2
AcDbRasterVariables
  3
ISM
 90
0
 91
0
280
0
281
0
  0
CLASS
  1
LAYOUT
  2
AcDbLayout
  3
ObjectDBX Classes
 90
0
 91
0
280
0
281
0
  0
CLASS
  1
ACDBPLACEHOLDER
  2
AcDbPlaceHolder
  3
ObjectDBX Classes
 90
0
 91
0
280
0
281
0
  0
ENDSEC
  0
SECTION
  2
TABLES
  0
TABLE
  2
VPORT
  5
8
330
0
100
AcDbSymbolTable
 70
1
  0
VPORT
  5
99
330
8
100
AcDbSymbolTableRecord
100
AcDbViewportTableRecord
  2
*Active
 70
0
 10
0.0
 20
0.0
 11
1.0
 21
1.0
 12
0.8706824889924327
 22
-1.9618702428892547
 13
0.0
 23
0.0
 14
0.5
 24
0.5
 15
0.5
 25
0.5
 16
0.0
 26
0.0
 36
1.0
 17
0.0
 27
0.0
 37
0.0
 40
77.75153799545602
 41
1.34
 42
50.0
 43
0.0
 44
0.0
 50
0.0
 51
0.0
 71
0
 72
1000
 73
1
 74
3
 75
0
 76
0
 77
0
 78
0
281
0
 65
1
110
0.0
120
0.0
130
0.0
111
1.0
121
0.0
131
0.0
112
0.0
122
1.0
132
0.0
 79
0
146
0.0
  0
ENDTAB
  0
TABLE
  2
LTYPE
  5
2
330
0
100
AcDbSymbolTable
 70
3
  0
LTYPE
  5
24
330
2
100
AcDbSymbolTableRecord
100
AcDbLinetypeTableRecord
  2
ByBlock
 70
0
  3

 72
65
 73
0
 40
0.0
  0
LTYPE
  5
25
330
2
100
AcDbSymbolTableRecord
100
AcDbLinetypeTableRecord
  2
ByLayer
 70
0
  3

 72
65
 73
0
 40
0.0
  0
LTYPE
  5
26
330
2
100
AcDbSymbolTableRecord
100
AcDbLinetypeTableRecord
  2
Continuous
 70
0
  3

 72
65
 73
0
 40
0.0
  0
ENDTAB
  0
TABLE
  2
LAYER
  5
1
330
0
100
AcDbSymbolTable
 70
3
  0
LAYER
  5
27
330
1
100
AcDbSymbolTableRecord
100
AcDbLayerTableRecord
  2
0
 70
0
 62
7
  6
Continuous
370
-3
390
13
347
21
  0
LAYER
  5
28
330
1
100
AcDbSymbolTableRecord
100
AcDbLayerTableRecord
  2
Defpoints
 70
0
 62
7
  6
Continuous
290
0
370
-3
390
13
347
21
  0
LAYER
  5
2F
330
1
100
AcDbSymbolTableRecord
100
AcDbLayerTableRecord
  2
visible
 70
0
 62
7
  6
Continuous
370
-3
390
13
347
21
  0
ENDTAB
  0
TABLE
  2
STYLE
  5
5
330
0
100
AcDbSymbolTable
 70
1
  0
STYLE
  5
29
330
5
100
AcDbSymbolTableRecord
100
AcDbTextStyleTableRecord
  2
Standard
 70
0
 40
0.0
 41
1.0
 50
0.0
 71
0
 42
2.5
  3
txt
  4

  0
ENDTAB
  0
TABLE
  2
VIEW
  5
7
330
0
100
AcDbSymbolTable
 70
0
  0
ENDTAB
  0
TABLE
  2
UCS
  5
6
330
0
100
AcDbSymbolTable
 70
0
  0
ENDTAB
  0
TABLE
  2
APPID
  5
3
330
0
100
AcDbSymbolTable
 70
3
  0
APPID
  5
2A
330
3
100
AcDbSymbolTableRecord
100
AcDbRegAppTableRecord
  2
ACAD
 70
0
  0
APPID
  5
9A
330
3
100
AcDbSymbolTableRecord
100
AcDbRegAppTableRecord
  2
HATCHBACKGROUNDCOLOR
 70
0
  0
APPID
  5
9B
330
3
100
AcDbSymbolTableRecord
100
AcDbRegAppTableRecord
  2
EZDXF
 70
0
  0
ENDTAB
  0
TABLE
  2
DIMSTYLE
  5
4
330
0
100
AcDbSymbolTable
 70
1
100
AcDbDimStyleTable
  0
DIMSTYLE
105
2B
330
4
100
AcDbSymbolTableRecord
100
AcDbDimStyleTableRecord
  2
Standard
 70
0
 40
1.0
 41
2.5
 42
0.625
 43
3.75
 44
1.25
 45
0.0
 46
0.0
 47
0.0
 48
0.0
 49
2.5
140
2.5
141
2.5
142
0.0
143
0.03937007874
144
1.0
145
0.0
146
1.0
147
0.625
148
0.0
 69
0
 70
0
 71
0
 72
0
 73
0
 74
0
 75
0
 76
0
 77
1
 78
8
 79
3
170
0
171
3
172
1
173
0
174
0
175
0
176
0
177
0
178
0
179
2
271
2
272
2
273
2
274
3
275
0
276
0
277
2
278
44
279
0
280
0
281
0
282
0
283
0
284
8
285
0
286
0
288
0
289
3
290
0
371
-2
372
-2
  0
ENDTAB
  0
TABLE
  2
BLOCK_RECORD
  5
9
330
0
100
AcDbSymbolTable
 70
2
  0
BLOCK_RECORD
  5
17
330
9
100
AcDbSymbolTableRecord
100
AcDbBlockTableRecord
  2
*Model_Space
340
1A
 70
0
280
1
281
0
  0
BLOCK_RECORD
  5
1B
330
9
100
AcDbSymbolTableRecord
100
AcDbBlockTableRecord
  2
*Paper_Space
340
1E
 70
0
280
1
281
0
  0
ENDTAB
  0
ENDSEC
  0
SECTION
  2
BLOCKS
  0
BLOCK
  5
18
330
17
100
AcDbEntity
  8
0
100
AcDbBlockBegin
  2
*Model_Space
 70
0
 10
0.0
 20
0.0
 30
0.0
  3
*Model_Space
  1

  0
ENDBLK
  5
19
330
17
100
AcDbEntity
  8
0
100
AcDbBlockEnd
  0
BLOCK
  5
1C
330
1B
100
AcDbEntity
  8
0
100
AcDbBlockBegin
  2
*Paper_Space
 70
0
 10
0.0
 20
0.0
 30
0.0
  3
*Paper_Space
  1

  0
ENDBLK
  5
1D
330
1B
100
AcDbEntity
  8
0
100
AcDbBlockEnd
  0
ENDSEC
  0
SECTION
  2
ENTITIES
  0
SPLINE
  5
30
330
17
100
AcDbEntity
  8
visible
100
AcDbSpline
 70
0
 71
2
 72
6
 73
3
 74
0
 40
0.0
 40
0.0
 40
0.0
 40
1.0
 40
1.0
 40
1.0
 10
-6.993114010481154
 20
-33.22143592668043
 30
0.0
 10
-7.217023856376619
 20
-33.087204798064434
 30
0.0
 10
-7.4015009358940285
 20
-33.03950799569059
 30
0.0
  0
LINE
  5
31
330
17
100
AcDbEntity
  8
visible
100
AcDbLine
 10
-10.260741539278659
 20
-32.32121507875432
 30
0.0
 11
-7.40150093589402
 21
-33.03950799569059
 31
0.0
  0
LINE
  5
32
330
17
100
AcDbEntity
  8
visible
100
AcDbLine
 10
-7.983123563670269
 20
13.957512065664929
 30
0.0
 11
-7.983123563670269
 21
-24.08473467652548
 31
0.0
  0
ELLIPSE
  5
33
330
17
100
AcDbEntity
  8
visible
100
AcDbEllipse
 10
3.7527503411218923
 20
-20.700248357240014
 30
0.0
 11
-4.190734238514533
 21
-16.68165898650797
 31
0.0
 40
0.6571371957923712
 41
5.0775369699606765
 42
5.7914369850873
  0
SPLINE
  5
34
330
17
100
AcDbEntity
  8
visible
100
AcDbSpline
 70
0
 71
2
 72
6
 73
3
 74
0
 40
0.0
 40
0.0
 40
0.0
 40
1.0
 40
1.0
 40
1.0
 10
-5.692310825874799
 20
-33.801526624369416
 30
0.0
 10
-5.393776104715204
 20
-33.97450462968272
 30
0.0
 10
-5.117386912500088
 20
-34.10497911886425
 30
0.0
  0
SPLINE
  5
35
330
17
100
AcDbEntity
  8
visible
100
AcDbSpline
 70
0
 71
3
 72
14
 73
10
 74
0
 40
0.0
 40
0.0
 40
0.0
 40
0.0
 40
0.2630592085465261
 40
0.2630592085465261
 40
0.2630592085465261
 40
0.7361716059260691
 40
0.7361716059260691
 40
0.7361716059260691
 40
1.0
 40
1.0
 40
1.0
 40
1.0
 10
-5.69231082587482
 20
-33.8015266243695
 30
0.0
 10
-5.794153834093304
 20
-33.74485043158899
 30
0.0
 10
-5.9129692108966605
 20
-33.705650302166305
 30
0.0
 10
-6.031662348761567
 20
-33.65943790615806
 30
0.0
 10
-6.246180051550259
 20
-33.57899216991429
 30
0.0
 10
-6.472863093171113
 20
-33.48857247284893
 30
0.0
 10
-6.679248825702486
 20
-33.388818059571065
 30
0.0
 10
-6.795744012140666
 20
-33.332739068172124
 30
0.0
 10
-6.900365740400228
 20
-33.276945023875285
 30
0.0
 10
-6.993114010481165
 20
-33.22143592668044
 30
0.0
  0
SPLINE
  5
36
330
17
100
AcDbEntity
  8
visible
100
AcDbSpline
 70
0
 71
2
 72
6
 73
3
 74
0
 40
0.0
 40
0.0
 40
0.0
 40
0.35790668832915207
 40
0.35790668832915207
 40
0.35790668832915207
 10
-10.260741539278662
 20
-32.32121507875432
 30
0.0
 10
-10.435991469131901
 20
-32.27615299601834
 30
0.0
 10
-10.474026514942
 20
-32.20912765439799
 30
0.0
  0
ELLIPSE
  5
37
330
17
100
AcDbEntity
  8
visible
100
AcDbEllipse
 10
3.7527503411218923
 20
17.341998384950386
 30
0.0
 11
-4.190734238514533
 21
-16.681658986507966
 31
0.0
 40
0.6571371957923713
 41
3.50674064316578
 42
5.0775369699606765
  0
LINE
  5
38
330
17
100
AcDbEntity
  8
visible
100
AcDbLine
 10
6.482023342236349
 20
34.69431971944658
 30
0.0
 11
3.7527503411218937
 21
33.907229877752286
 31
0.0
  0
LINE
  5
39
330
17
100
AcDbEntity
  8
visible
100
AcDbLine
 10
-5.117386912500088
 20
-39.82352183554838
 30
0.0
 11
-5.117386912500088
 21
-34.104979118863355
 31
0.0
  0
ELLIPSE
  5
3A
330
17
100
AcDbEntity
  8
visible
100
AcDbEllipse
 10
6.482023342236349
 20
18.129088226644683
 30
0.0
 11
-4.190734238514533
 21
-16.68165898650797
 31
0.0
 40
0.6571371957923712
 41
1.9359443163708836
 42
3.50674064316578
  0
LINE
  5
3B
330
17
100
AcDbEntity
  8
visible
100
AcDbLine
 10
15.35216059585833
 20
-33.92034802284117
 30
0.0
 11
-5.117386912500091
 21
-39.82352183554838
 31
0.0
  0
LINE
  5
3C
330
17
100
AcDbEntity
  8
visible
100
AcDbLine
 10
18.21789724702851
 20
-16.528672196260246
 30
0.0
 11
18.21789724702851
 21
21.51357454593016
 31
0.0
  0
LINE
  5
3D
330
17
100
AcDbEntity
  8
visible
100
AcDbLine
 10
15.35216059585833
 20
-33.920348022841175
 30
0.0
 11
15.35216059585833
 21
-28.201805306156157
 31
0.0
  0
ELLIPSE
  5
3E
330
17
100
AcDbEntity
  8
visible
100
AcDbEllipse
 10
6.482023342236349
 20
-19.913158515545717
 30
0.0
 11
-4.190734238514533
 21
-16.681658986507966
 31
0.0
 40
0.6571371957923713
 41
1.2220443012442601
 42
1.9359443163708834
  0
ELLIPSE
  5
3F
330
17
100
AcDbEntity
  8
visible
100
AcDbEllipse
 10
-1.7057956611070182
 20
-25.163712603326616
 30
0.0
 11
-0.2192826055036672
 21
-0.8728775051079751
 31
0.0
 40
0.6571371957923712
 41
0.36514798957598676
 42
3.141592653589793
  0
ELLIPSE
  5
40
330
17
100
AcDbEntity
  8
visible
100
AcDbEllipse
 10
-1.7057956611070182
 20
-25.163712603326616
 30
0.0
 11
-0.2192826055036672
 21
-0.8728775051079751
 31
0.0
 40
0.6571371957923712
 41
3.141592653589793
 42
6.283185307179586
  0
ELLIPSE
  5
41
330
17
100
AcDbEntity
  8
visible
100
AcDbEllipse
 10
-1.7057956611070182
 20
-25.163712603326616
 30
0.0
 11
-0.2192826055036672
 21
-0.8728775051079751
 31
0.0
 40
0.6571371957923712
 41
0.0
 42
0.3651479895759868
  0
ELLIPSE
  5
42
330
17
100
AcDbEntity
  8
visible
100
AcDbEllipse
 10
11.94056934446526
 20
-21.228263394855134
 30
0.0
 11
-0.2192826055036672
 21
-0.8728775051079751
 31
0.0
 40
0.6571371957923712
 41
0.36514798957598676
 42
3.141592653589793
  0
ELLIPSE
  5
43
330
17
100
AcDbEntity
  8
visible
100
AcDbEllipse
 10
11.94056934446526
 20
-21.228263394855134
 30
0.0
 11
-0.2192826055036672
 21
-0.8728775051079751
 31
0.0
 40
0.6571371957923712
 41
3.141592653589793
 42
6.283185307179586
  0
ELLIPSE
  5
44
330
17
100
AcDbEntity
  8
visible
100
AcDbEllipse
 10
11.94056934446526
 20
-21.228263394855134
 30
0.0
 11
-0.2192826055036672
 21
-0.8728775051079751
 31
0.0
 40
0.6571371957923712
 41
0.0
 42
0.3651479895759868
  0
ELLIPSE
  5
45
330
17
100
AcDbEntity
  8
visible
100
AcDbEllipse
 10
5.117386841679121
 20
1.3629307838421738
 30
0.0
 11
-0.2192826055036672
 21
-0.8728775051079751
 31
0.0
 40
0.6571371957923712
 41
0.36514798957598676
 42
3.141592653589793
  0
ELLIPSE
  5
46
330
17
100
AcDbEntity
  8
visible
100
AcDbEllipse
 10
5.117386841679121
 20
1.3629307838421738
 30
0.0
 11
-0.2192826055036672
 21
-0.8728775051079751
 31
0.0
 40
0.6571371957923712
 41
3.141592653589793
 42
6.283185307179586
  0
ELLIPSE
  5
47
330
17
100
AcDbEntity
  8
visible
100
AcDbEllipse
 10
5.117386841679121
 20
1.3629307838421738
 30
0.0
 11
-0.2192826055036672
 21
-0.8728775051079751
 31
0.0
 40
0.6571371957923712
 41
0.0
 42
0.3651479895759868
  0
ELLIPSE
  5
48
330
17
100
AcDbEntity
  8
visible
100
AcDbEllipse
 10
5.117386841679121
 20
10.030784471936187
 30
0.0
 11
-1.0964130275183361
 21
-4.364387525539875
 31
0.0
 40
0.6571371957923712
 41
0.36514798957598676
 42
3.141592653589793
  0
ELLIPSE
  5
49
330
17
100
AcDbEntity
  8
visible
100
AcDbEllipse
 10
5.117386841679121
 20
10.030784471936187
 30
0.0
 11
-1.0964130275183361
 21
-4.364387525539875
 31
0.0
 40
0.6571371957923712
 41
3.141592653589793
 42
6.283185307179586
  0
ELLIPSE
  5
4A
330
17
100
AcDbEntity
  8
visible
100
AcDbEllipse
 10
5.117386841679121
 20
10.030784471936187
 30
0.0
 11
-1.0964130275183361
 21
-4.364387525539875
 31
0.0
 40
0.6571371957923712
 41
0.0
 42
0.3651479895759868
  0
ELLIPSE
  5
4B
330
17
100
AcDbEntity
  8
visible
100
AcDbEllipse
 10
-1.7057956611070182
 20
19.620198118492482
 30
0.0
 11
-0.2192826055036672
 21
-0.8728775051079751
 31
0.0
 40
0.6571371957923712
 41
0.36514798957598676
 42
3.141592653589793
  0
ELLIPSE
  5
4C
330
17
100
AcDbEntity
  8
visible
100
AcDbEllipse
 10
-1.7057956611070182
 20
19.620198118492482
 30
0.0
 11
-0.2192826055036672
 21
-0.8728775051079751
 31
0.0
 40
0.6571371957923712
 41
3.141592653589793
 42
6.283185307179586
  0
ELLIPSE
  5
4D
330
17
100
AcDbEntity
  8
visible
100
AcDbEllipse
 10
-1.7057956611070182
 20
19.620198118492482
 30
0.0
 11
-0.2192826055036672
 21
-0.8728775051079751
 31
0.0
 40
0.6571371957923712
 41
0.0
 42
0.3651479895759868
  0
ELLIPSE
  5
4E
330
17
100
AcDbEntity
  8
visible
100
AcDbEllipse
 10
5.117386841679121
 20
18.698638160030214
 30
0.0
 11
-0.2192826055036672
 21
-0.8728775051079751
 31
0.0
 40
0.6571371957923712
 41
0.36514798957598676
 42
3.141592653589793
  0
ELLIPSE
  5
4F
330
17
100
AcDbEntity
  8
visible
100
AcDbEllipse
 10
5.117386841679121
 20
18.698638160030214
 30
0.0
 11
-0.2192826055036672
 21
-0.8728775051079751
 31
0.0
 40
0.6571371957923712
 41
3.141592653589793
 42
6.283185307179586
  0
ELLIPSE
  5
50
330
17
100
AcDbEntity
  8
visible
100
AcDbEllipse
 10
5.117386841679121
 20
18.698638160030214
 30
0.0
 11
-0.2192826055036672
 21
-0.8728775051079751
 31
0.0
 40
0.6571371957923712
 41
0.0
 42
0.3651479895759868
  0
ELLIPSE
  5
51
330
17
100
AcDbEntity
  8
visible
100
AcDbEllipse
 10
11.94056934446526
 20
23.55564732696395
 30
0.0
 11
-0.2192826055036672
 21
-0.8728775051079751
 31
0.0
 40
0.6571371957923712
 41
0.36514798957598676
 42
3.141592653589793
  0
ELLIPSE
  5
52
330
17
100
AcDbEntity
  8
visible
100
AcDbEllipse
 10
11.94056934446526
 20
23.55564732696395
 30
0.0
 11
-0.2192826055036672
 21
-0.8728775051079751
 31
0.0
 40
0.6571371957923712
 41
3.141592653589793
 42
6.283185307179586
  0
ELLIPSE
  5
53
330
17
100
AcDbEntity
  8
visible
100
AcDbEllipse
 10
11.94056934446526
 20
23.55564732696395
 30
0.0
 11
-0.2192826055036672
 21
-0.8728775051079751
 31
0.0
 40
0.6571371957923712
 41
0.0
 42
0.3651479895759868
  0
ELLIPSE
  5
54
330
17
100
AcDbEntity
  8
visible
100
AcDbEllipse
 10
0.7310552317660814
 20
11.132710250062232
 30
0.0
 11
-1.985725816505431
 21
-7.904390740699998
 31
0.0
 40
0.6571371957923712
 41
1.007988895282955
 42
2.1336037583068403
  0
SPLINE
  5
55
330
17
100
AcDbEntity
  8
visible
100
AcDbSpline
 70
0
 71
3
 72
8
 73
4
 74
0
 40
0.0
 40
0.0
 40
0.0
 40
0.0
 40
1.0
 40
1.0
 40
1.0
 40
1.0
 10
16.063579661142814
 20
-27.22090597308849
 30
0.0
 10
16.009720867868438
 20
-27.341640925697106
 30
0.0
 10
15.930349203620727
 20
-27.457022187081037
 30
0.0
 10
15.838170194841496
 20
-27.592392217046438
 30
0.0
  0
ELLIPSE
  5
56
330
17
100
AcDbEntity
  8
visible
100
AcDbEllipse
 10
-5.702231127155159
 20
-39.676598398464904
 30
0.0
 11
0.22167640319380275
 21
-0.7686739050254396
 31
0.0
 40
0.7040755670775574
 41
-6.283185307179586
 42
-5.101142197847732
  0
ELLIPSE
  5
57
330
17
100
AcDbEntity
  8
visible
100
AcDbEllipse
 10
14.767316381203258
 20
-33.773424585757695
 30
0.0
 11
0.22167640319380275
 21
-0.7686739050254396
 31
0.0
 40
0.7040755670775574
 41
-6.283185307179586
 42
-5.101142197847732
  0
SPLINE
  5
58
330
17
100
AcDbEntity
  8
visible
100
AcDbSpline
 70
0
 71
2
 72
6
 73
3
 74
0
 40
0.0
 40
0.0
 40
0.0
 40
1.0
 40
1.0
 40
1.0
 10
15.838170194841457
 20
-27.59239221704637
 30
0.0
 10
15.626982900316268
 20
-27.912368153570203
 30
0.0
 10
15.352160642441167
 20
-28.201805216826358
 30
0.0
  0
ELLIPSE
  5
59
330
17
100
AcDbEntity
  8
visible
100
AcDbEllipse
 10
4.38633157336028
 20
10.214438768290535
 30
0.0
 11
-1.0964130275183361
 21
-4.364387525539875
 31
0.0
 40
0.6571371957923712
 41
0.36514798957598676
 42
3.0137947660507494
  0
ELLIPSE
  5
5A
330
17
100
AcDbEntity
  8
visible
100
AcDbEllipse
 10
4.38633157336028
 20
10.214438768290535
 30
0.0
 11
-1.0964130275183361
 21
-4.364387525539875
 31
0.0
 40
0.6571371957923712
 41
0.1277978875390282
 42
0.3651479895759868
  0
LINE
  5
5B
330
17
100
AcDbEntity
  8
visible
100
AcDbLine
 10
-9.113822378548226
 20
-24.09522920778086
 30
0.0
 11
-12.330465559151126
 21
-23.287150303821758
 31
0.0
  0
LINE
  5
5C
330
17
100
AcDbEntity
  8
visible
100
AcDbLine
 10
-9.113822378548228
 20
13.94701753440954
 30
0.0
 11
-9.113822378548228
 21
-24.095229207780868
 31
0.0
  0
LINE
  5
5D
330
17
100
AcDbEntity
  8
visible
100
AcDbLine
 10
-12.330465559151122
 20
14.75509643836864
 30
0.0
 11
-12.330465559151122
 21
-23.287150303821768
 31
0.0
  0
LINE
  5
5E
330
17
100
AcDbEntity
  8
visible
100
AcDbLine
 10
-9.113822378548226
 20
13.94701753440954
 30
0.0
 11
-12.330465559151126
 21
14.755096438368641
 31
0.0
  0
ELLIPSE
  5
5F
330
17
100
AcDbEntity
  8
visible
100
AcDbEllipse
 10
3.1679061264668213
 20
-20.55332492015654
 30
0.0
 11
-4.385652110073349
 21
-17.4575501021595
 31
0.0
 40
0.6571371957923712
 41
5.0775369699606765
 42
5.673998910422012
  0
ELLIPSE
  5
60
330
17
100
AcDbEntity
  8
visible
100
AcDbEllipse
 10
-0.0487370541360761
 20
-19.74524601619744
 30
0.0
 11
-4.385652110073349
 21
-17.4575501021595
 31
0.0
 40
0.6571371957923712
 41
5.0775369699606765
 42
5.66656794017695
  0
ELLIPSE
  5
61
330
17
100
AcDbEntity
  8
visible
100
AcDbEllipse
 10
-8.56796777832534
 20
14.104435502748402
 30
0.0
 11
0.8
 21
-6.916596136377722e-17
 31
0.0
 40
0.26916222199735784
 41
3.9614599180980914
 42
5.532256244892988
  0
ELLIPSE
  5
62
330
17
100
AcDbEntity
  8
visible
100
AcDbEllipse
 10
-8.56796777832534
 20
-23.937811239442
 30
0.0
 11
0.8
 21
0.0
 31
0.0
 40
0.2691622219973579
 41
3.9614599180980914
 42
5.532256244892988
  0
ELLIPSE
  5
63
330
17
100
AcDbEntity
  8
visible
100
AcDbEllipse
 10
-11.784610958928234
 20
14.912514406707501
 30
0.0
 11
-0.8
 21
6.916596136377722e-17
 31
0.0
 40
0.26916222199735784
 41
-6.283185307179586
 42
-5.463318042671288
  0
ELLIPSE
  5
64
330
17
100
AcDbEntity
  8
visible
100
AcDbEllipse
 10
-11.784610958928234
 20
-23.1297323354829
 30
0.0
 11
-0.8
 21
-0.0
 31
0.0
 40
0.2691622219973579
 41
-6.283185307179586
 42
-5.463318042671288
  0
LINE
  5
65
330
17
100
AcDbEntity
  8
visible
100
AcDbLine
 10
3.1679061264668227
 20
34.82462919822191
 30
0.0
 11
-0.0487370541360761
 21
35.63270810218101
 31
0.0
  0
ELLIPSE
  5
66
330
17
100
AcDbEntity
  8
visible
100
AcDbEllipse
 10
3.1679061264668213
 20
17.48892182203386
 30
0.0
 11
-4.385652110073349
 21
-17.4575501021595
 31
0.0
 40
0.6571371957923713
 41
3.50674064316578
 42
5.0775369699606765
  0
ELLIPSE
  5
67
330
17
100
AcDbEntity
  8
visible
100
AcDbEllipse
 10
-0.0487370541360761
 20
18.29700072599296
 30
0.0
 11
-4.385652110073349
 21
-17.4575501021595
 31
0.0
 40
0.6571371957923713
 41
3.50674064316578
 42
5.0775369699606765
  0
ELLIPSE
  5
68
330
17
100
AcDbEntity
  8
visible
100
AcDbEllipse
 10
-11.638399905264464
 20
-33.56788762046659
 30
0.0
 11
0.19491787155881551
 21
0.7758911156515335
 31
0.0
 40
0.6571371957923712
 41
-5.918037317603599
 42
-4.347240990808703
  0
ELLIPSE
  5
69
330
17
100
AcDbEntity
  8
visible
100
AcDbEllipse
 10
-8.772663254094283
 20
-31.970967403301458
 30
0.0
 11
4.2
 21
0.0
 31
0.0
 40
0.2691622219973579
 41
3.9614599180980914
 42
5.044952562971565
  0
ELLIPSE
  5
6A
330
17
100
AcDbEntity
  8
visible
100
AcDbEllipse
 10
-8.772663254094283
 20
-32.741443286687584
 30
0.0
 11
5.0
 21
0.0
 31
0.0
 40
0.2691622219973579
 41
3.9614599180980914
 42
5.376133242993335
  0
LINE
  5
6B
330
17
100
AcDbEntity
  8
visible
100
AcDbLine
 10
-11.620090093865606
 20
-29.55737955838018
 30
0.0
 11
-14.76731645430878
 21
-30.465002173195856
 31
0.0
  0
ELLIPSE
  5
6C
330
17
100
AcDbEntity
  8
visible
100
AcDbEllipse
 10
-11.696884327369645
 20
-31.236350217884095
 30
0.0
 11
4.2
 21
0.0
 31
0.0
 40
0.2691622219973579
 41
2.390663591303195
 42
3.9614599180980914
  0
LINE
  5
6D
330
17
100
AcDbEntity
  8
visible
100
AcDbLine
 10
-14.562620978539826
 20
-32.0627945516631
 30
0.0
 11
-11.638399905264464
 21
-32.797411737080466
 31
0.0
  0
ELLIPSE
  5
6E
330
17
100
AcDbEntity
  8
visible
100
AcDbEllipse
 10
3.1679061264668213
 20
34.05415331483576
 30
0.0
 11
0.22167640319380275
 21
-0.7686739050254396
 31
0.0
 40
0.7040755670775574
 41
-5.101142197847732
 42
-3.5303458710528353
  0
ELLIPSE
  5
6F
330
17
100
AcDbEntity
  8
visible
100
AcDbEllipse
 10
-0.0487370541360761
 20
34.86223221879487
 30
0.0
 11
-0.22167640319380275
 21
0.7686739050254396
 31
0.0
 40
0.7040755670775574
 41
5.894432089716544
 42
6.283185307179586
  0
LINE
  5
70
330
17
100
AcDbEntity
  8
visible
100
AcDbLine
 10
5.897179127581278
 20
35.61171903991621
 30
0.0
 11
3.1679061264668227
 21
34.82462919822191
 31
0.0
  0
LINE
  5
71
330
17
100
AcDbEntity
  8
visible
100
AcDbLine
 10
2.680535946978381
 20
36.419797943875324
 30
0.0
 11
-0.048737054136074764
 21
35.63270810218103
 31
0.0
  0
LINE
  5
72
330
17
100
AcDbEntity
  8
visible
100
AcDbLine
 10
5.897179127581279
 20
35.61171903991621
 30
0.0
 11
2.680535946978381
 21
36.41979794387531
 31
0.0
  0
LINE
  5
73
330
17
100
AcDbEntity
  8
visible
100
AcDbLine
 10
-12.18425450548736
 20
-39.889112655894536
 30
0.0
 11
-12.18425450548736
 21
-33.725305588805455
 31
0.0
  0
ELLIPSE
  5
74
330
17
100
AcDbEntity
  8
visible
100
AcDbEllipse
 10
-8.772663254094283
 20
-38.905250353776665
 30
0.0
 11
5.0
 21
0.0
 31
0.0
 40
0.2691622219973579
 41
3.9614599180980914
 42
5.532256244892988
  0
ELLIPSE
  5
75
330
17
100
AcDbEntity
  8
visible
100
AcDbEllipse
 10
-14.562620978539826
 20
-32.83327043504923
 30
0.0
 11
0.19491787155881551
 21
0.7758911156515335
 31
0.0
 40
0.6571371957923712
 41
-5.918037317603599
 42
-4.347240990808703
  0
LINE
  5
76
330
17
100
AcDbEntity
  8
visible
100
AcDbLine
 10
-15.108475578762715
 20
-32.99068840338808
 30
0.0
 11
-12.184254505487353
 21
-33.72530558880544
 31
0.0
  0
ELLIPSE
  5
77
330
17
100
AcDbEntity
  8
visible
100
AcDbEllipse
 10
11.69688425426413
 20
-26.838269473980375
 30
0.0
 11
5.0
 21
0.0
 31
0.0
 40
0.2691622219973579
 41
5.688379246792639
 42
6.283185307179586
  0
ELLIPSE
  5
78
330
17
100
AcDbEntity
  8
visible
100
AcDbEllipse
 10
-14.767316454308776
 20
-31.235478056581982
 30
0.0
 11
0.22167640319380275
 21
-0.7686739050254396
 31
0.0
 40
0.7040755670775574
 41
-3.5303458710528357
 42
-3.141592653589793
  0
ELLIPSE
  5
79
330
17
100
AcDbEntity
  8
visible
100
AcDbEllipse
 10
-11.696884327369645
 20
-32.00682610127022
 30
0.0
 11
5.0
 21
0.0
 31
0.0
 40
0.2691622219973579
 41
3.141592653589793
 42
3.9614599180980914
  0
ELLIPSE
  5
7A
330
17
100
AcDbEntity
  8
visible
100
AcDbEllipse
 10
5.897179127581278
 20
34.841243156530055
 30
0.0
 11
0.2216764031938027
 21
-0.7686739050254398
 31
0.0
 40
0.7040755670775574
 41
-5.101142197847732
 42
-3.5303458710528353
  0
ELLIPSE
  5
7B
330
17
100
AcDbEntity
  8
visible
100
AcDbEllipse
 10
17.63305303237344
 20
21.660497983013627
 30
0.0
 11
-0.8
 21
-0.0
 31
0.0
 40
0.2691622219973579
 41
-3.8925217158763914
 42
-3.141592653589793
  0
ELLIPSE
  5
7C
330
17
100
AcDbEntity
  8
visible
100
AcDbEllipse
 10
5.897179127581278
 20
18.276011663728156
 30
0.0
 11
-4.385652110073349
 21
-17.4575501021595
 31
0.0
 40
0.6571371957923712
 41
3.141592653589793
 42
3.50674064316578
  0
ELLIPSE
  5
7D
330
17
100
AcDbEntity
  8
visible
100
AcDbEllipse
 10
17.63305303237344
 20
-16.381748759176773
 30
0.0
 11
-0.8
 21
1.383319227275544e-16
 31
0.0
 40
0.26916222199735773
 41
-3.8925217158763914
 42
-3.141592653589793
  0
ELLIPSE
  5
7E
330
17
100
AcDbEntity
  8
visible
100
AcDbEllipse
 10
11.69688425426413
 20
-33.00207654106946
 30
0.0
 11
5.0
 21
0.0
 31
0.0
 40
0.2691622219973579
 41
5.532256244892988
 42
6.283185307179586
  0
ELLIPSE
  5
7F
330
17
100
AcDbEntity
  8
visible
100
AcDbEllipse
 10
2.680535946978381
 20
35.64932206048917
 30
0.0
 11
-0.2216764031938027
 21
0.7686739050254398
 31
0.0
 40
0.7040755670775574
 41
5.894432089716544
 42
6.283185307179586
  0
ELLIPSE
  5
80
330
17
100
AcDbEntity
  8
visible
100
AcDbEllipse
 10
2.680535946978381
 20
19.084090567687255
 30
0.0
 11
-4.385652110073349
 21
-17.4575501021595
 31
0.0
 40
0.6571371957923712
 41
3.141592653589793
 42
3.50674064316578
  0
LINE
  5
81
330
17
100
AcDbEntity
  8
visible
100
AcDbLine
 10
-15.108475578762715
 20
-39.15449547047717
 30
0.0
 11
-12.184254505487353
 21
-39.889112655894536
 31
0.0
  0
LINE
  5
82
330
17
100
AcDbEntity
  8
visible
100
AcDbLine
 10
-15.108475578762715
 20
-39.15449547047717
 30
0.0
 11
-15.108475578762715
 21
-32.99068840338809
 31
0.0
  0
ELLIPSE
  5
83
330
17
100
AcDbEntity
  8
visible
100
AcDbEllipse
 10
-11.638399905264464
 20
-39.731694687555674
 30
0.0
 11
-0.19491787155881551
 21
-0.7758911156515335
 31
0.0
 40
0.6571371957923712
 41
5.0775369699606765
 42
6.283185307179586
  0
ELLIPSE
  5
84
330
17
100
AcDbEntity
  8
visible
100
AcDbEllipse
 10
-11.696884327369645
 20
-38.1706331683593
 30
0.0
 11
5.0
 21
0.0
 31
0.0
 40
0.2691622219973579
 41
3.141592653589793
 42
3.9614599180980914
  0
ELLIPSE
  5
85
330
17
100
AcDbEntity
  8
visible
100
AcDbEllipse
 10
-14.562620978539826
 20
-38.99707750213831
 30
0.0
 11
-0.19491787155881551
 21
-0.7758911156515335
 31
0.0
 40
0.6571371957923712
 41
5.0775369699606765
 42
6.283185307179586
  0
LINE
  5
86
330
17
100
AcDbEntity
  8
visible
100
AcDbLine
 10
-12.584610958928238
 20
14.912514406707501
 30
0.0
 11
-12.584610958928238
 21
-23.129732335482906
 31
0.0
  0
SPLINE
  5
87
330
17
100
AcDbEntity
  8
visible
100
AcDbSpline
 70
0
 71
3
 72
8
 73
4
 74
0
 40
0.0
 40
0.0
 40
0.0
 40
0.0
 40
1.0
 40
1.0
 40
1.0
 40
1.0
 10
-12.584610958928238
 20
-23.1297323354829
 30
0.0
 10
-12.588110635454065
 20
-26.53550835744415
 30
0.0
 10
-11.85303096066426
 20
-29.733307094660297
 30
0.0
 10
-10.47402651070643
 20
-32.20912762958761
 30
0.0
  0
SPLINE
  5
88
330
17
100
AcDbEntity
  8
visible
100
AcDbSpline
 70
0
 71
3
 72
17
 73
13
 74
0
 40
0.0
 40
0.0
 40
0.0
 40
0.0
 40
0.3223028518918934
 40
0.3223028518918934
 40
0.3223028518918934
 40
0.5172948416205441
 40
0.5172948416205441
 40
0.5172948416205441
 40
0.7665362650325962
 40
0.7665362650325962
 40
0.7665362650325962
 40
1.0
 40
1.0
 40
1.0
 40
1.0
 10
-0.27041345732987976
 20
35.630906123820296
 30
0.0
 10
-2.398873854453609
 20
35.01948293385049
 30
0.0
 10
-4.483535110655265
 20
33.65450622845498
 30
0.0
 10
-6.295019316691748
 20
31.720457947628514
 30
0.0
 10
-7.3916664686479905
 20
30.551878433024047
 30
0.0
 10
-8.389395121203169
 20
29.17768327198053
 30
0.0
 10
-9.246104987719505
 20
27.65963809189286
 30
0.0
 10
-10.341994051960986
 20
25.720036925131595
 30
0.0
 10
-11.205447494117003
 20
23.54513150465826
 30
0.0
 10
-11.774649892943227
 20
21.29386750701424
 30
0.0
 10
-12.309018918778833
 20
19.185479365659457
 30
0.0
 10
-12.585204949452407
 20
17.011922664900343
 30
0.0
 10
-12.584610958928238
 20
14.912514406707501
 30
0.0
  0
SPLINE
  5
89
330
17
100
AcDbEntity
  8
visible
100
AcDbSpline
 70
0
 71
2
 72
8
 73
5
 74
0
 40
0.0
 40
0.0
 40
0.0
 40
0.2134336787383098
 40
0.2134336787383098
 40
1.0
 40
1.0
 40
1.0
 10
16.50090344428412
 20
-26.201509212567288
 30
0.0
 10
16.54846585521015
 20
-26.273582838056925
 30
0.0
 10
16.585922658246268
 20
-26.352348027186622
 30
0.0
 10
16.69513040378202
 20
-26.58118852692484
 30
0.0
 10
16.696884254264134
 20
-26.838269473980375
 30
0.0
  0
LINE
  5
8A
330
17
100
AcDbEntity
  8
visible
100
AcDbLine
 10
-11.638580203834767
 20
-29.5005850286952
 30
0.0
 11
-14.988992857502584
 21
-30.466804151556545
 31
0.0
  0
SPLINE
  5
8B
330
17
100
AcDbEntity
  8
visible
100
AcDbSpline
 70
0
 71
3
 72
17
 73
13
 74
0
 40
0.0
 40
0.0
 40
0.0
 40
0.0
 40
0.25
 40
0.25
 40
0.25
 40
0.5
 40
0.5
 40
0.5
 40
0.75
 40
0.75
 40
0.75
 40
1.0
 40
1.0
 40
1.0
 40
1.0
 10
-14.98899285750258
 20
-30.466804151556545
 30
0.0
 10
-15.16167473553092
 20
-30.51647680787027
 30
0.0
 10
-15.323049027924235
 20
-30.571127151036308
 30
0.0
 10
-15.473115734682516
 20
-30.63075518105461
 30
0.0
 10
-15.747084712852969
 20
-30.740429638408067
 30
0.0
 10
-15.983937094566198
 20
-30.865838775319084
 30
0.0
 10
-16.185371689302244
 20
-31.028073081999764
 30
0.0
 10
-16.351438158543846
 20
-31.162237418265807
 30
0.0
 10
-16.49485145484563
 20
-31.326833523118847
 30
0.0
 10
-16.588018213250763
 20
-31.525346869362934
 30
0.0
 10
-16.65947039062673
 20
-31.676689307321972
 30
0.0
 10
-16.69575909533303
 20
-31.83718238462443
 30
0.0
 10
-16.696884327369645
 20
-32.00682610127022
 30
0.0
  0
SPLINE
  5
8C
330
17
100
AcDbEntity
  8
visible
100
AcDbSpline
 70
0
 71
3
 72
14
 73
10
 74
0
 40
0.0
 40
0.0
 40
0.0
 40
0.0
 40
0.5179833943096311
 40
0.5179833943096311
 40
0.5179833943096311
 40
0.7134850939064709
 40
0.7134850939064709
 40
0.7134850939064709
 40
1.0
 40
1.0
 40
1.0
 40
1.0
 10
18.433053032373437
 20
21.660497983013627
 30
0.0
 10
18.437383287195285
 20
25.26070529774924
 30
0.0
 10
17.614191798832668
 20
28.6265005448506
 30
0.0
 10
16.08146776183851
 20
31.15626855123266
 30
0.0
 10
15.504643410493246
 20
32.112457416982835
 30
0.0
 10
14.82937159442835
 20
32.952070352271
 30
0.0
 10
14.071188736891862
 20
33.64941673562453
 30
0.0
 10
12.961093208725229
 20
34.67235659205451
 30
0.0
 10
11.669538708575256
 20
35.38636593782527
 30
0.0
 10
10.282831237654626
 20
35.73356176588766
 30
0.0
  0
LINE
  5
8D
330
17
100
AcDbEntity
  8
visible
100
AcDbLine
 10
-5.480554723961351
 20
-40.44527230349035
 30
0.0
 11
14.98899278439707
 21
-34.54209849078314
 31
0.0
  0
LINE
  5
8E
330
17
100
AcDbEntity
  8
visible
100
AcDbLine
 10
18.433053032373437
 20
-16.381748759176773
 30
0.0
 11
18.433053032373437
 21
21.660497983013634
 31
0.0
  0
LINE
  5
8F
330
17
100
AcDbEntity
  8
visible
100
AcDbLine
 10
16.69688425426413
 20
-33.002076541069464
 30
0.0
 11
16.69688425426413
 21
-26.838269473980382
 31
0.0
  0
SPLINE
  5
90
330
17
100
AcDbEntity
  8
visible
100
AcDbSpline
 70
0
 71
3
 72
8
 73
4
 74
0
 40
0.0
 40
0.0
 40
0.0
 40
0.0
 40
1.0
 40
1.0
 40
1.0
 40
1.0
 10
16.063579664819976
 20
-27.220905974727586
 30
0.0
 10
17.59593397235933
 20
-23.864586948504584
 30
0.0
 10
18.43824930535451
 20
-20.013388491263825
 30
0.0
 10
18.433053032373437
 20
-16.381748759176773
 30
0.0
  0
LINE
  5
91
330
17
100
AcDbEntity
  8
visible
100
AcDbLine
 10
2.458859543784577
 20
36.417995965514564
 30
0.0
 11
-0.27041345732987887
 21
35.63090612382027
 31
0.0
  0
SPLINE
  5
92
330
17
100
AcDbEntity
  8
visible
100
AcDbSpline
 70
0
 71
3
 72
8
 73
4
 74
0
 40
0.0
 40
0.0
 40
0.0
 40
0.0
 40
1.0
 40
1.0
 40
1.0
 40
1.0
 10
7.066188057051729
 20
36.54164066984677
 30
0.0
 10
5.59021392377448
 20
36.913898754838755
 30
0.0
 10
4.013126725697222
 20
36.86775778637723
 30
0.0
 10
2.458859543784577
 20
36.417995965514564
 30
0.0
  0
LINE
  5
93
330
17
100
AcDbEntity
  8
visible
100
AcDbLine
 10
7.066188057051729
 20
36.54164066984676
 30
0.0
 11
10.282831237654628
 21
35.73356176588766
 31
0.0
  0
SPLINE
  5
94
330
17
100
AcDbEntity
  8
visible
100
AcDbSpline
 70
0
 71
3
 72
11
 73
7
 74
0
 40
0.0
 40
0.0
 40
0.0
 40
0.0
 40
0.4747977596411072
 40
0.4747977596411072
 40
0.4747977596411072
 40
1.0
 40
1.0
 40
1.0
 40
1.0
 10
-11.833317776823279
 20
-40.507585803207206
 30
0.0
 10
-10.992865691269586
 20
-40.71950057945155
 30
0.0
 10
-9.900023029825807
 20
-40.834732919802036
 30
0.0
 10
-8.793065318917423
 20
-40.835720335435724
 30
0.0
 10
-7.567318612125335
 20
-40.837639240617264
 30
0.0
 10
-6.359552670222111
 20
-40.69985577790238
 30
0.0
 10
-5.4805547239613475
 20
-40.445272303490334
 30
0.0
  0
LINE
  5
95
330
17
100
AcDbEntity
  8
visible
100
AcDbLine
 10
-16.696884327369645
 20
-38.17063316835931
 30
0.0
 11
-16.696884327369645
 21
-32.00682610127023
 31
0.0
  0
SPLINE
  5
96
330
17
100
AcDbEntity
  8
visible
100
AcDbSpline
 70
0
 71
3
 72
17
 73
13
 74
0
 40
0.0
 40
0.0
 40
0.0
 40
0.0
 40
0.25
 40
0.25
 40
0.25
 40
0.5
 40
0.5
 40
0.5
 40
0.75
 40
0.75
 40
0.75
 40
1.0
 40
1.0
 40
1.0
 40
1.0
 10
14.988992784397066
 20
-34.54209849078313
 30
0.0
 10
15.161674662425403
 20
-34.492425834469365
 30
0.0
 10
15.323048954818717
 20
-34.43777549130338
 30
0.0
 10
15.473115661577005
 20
-34.37814746128507
 30
0.0
 10
15.747084639747435
 20
-34.268473003931604
 30
0.0
 10
15.983937021460708
 20
-34.14306386702059
 30
0.0
 10
16.185371616196722
 20
-33.98082956033991
 30
0.0
 10
16.351438085438343
 20
-33.846665224073824
 30
0.0
 10
16.494851381740112
 20
-33.68206911922085
 30
0.0
 10
16.588018140145252
 20
-33.48355577297673
 30
0.0
 10
16.65947031752121
 20
-33.332213335017684
 30
0.0
 10
16.695759022227524
 20
-33.17172025771527
 30
0.0
 10
16.696884254264138
 20
-33.00207654106946
 30
0.0
  0
LINE
  5
97
330
17
100
AcDbEntity
  8
visible
100
AcDbLine
 10
-14.75753885009864
 20
-39.77296861778984
 30
0.0
 11
-11.833317776823282
 21
-40.507585803207206
 31
0.0
  0
SPLINE
  5
98
330
17
100
AcDbEntity
  8
visible
100
AcDbSpline
 70
0
 71
3
 72
17
 73
13
 74
0
 40
0.0
 40
0.0
 40
0.0
 40
0.0
 40
0.25
 40
0.25
 40
0.25
 40
0.5
 40
0.5
 40
0.5
 40
0.75
 40
0.75
 40
0.75
 40
1.0
 40
1.0
 40
1.0
 40
1.0
 10
-16.696884327369645
 20
-38.1706331683593
 30
0.0
 10
-16.695730257771753
 20
-38.34142485803911
 30
0.0
 10
-16.65898226598663
 20
-38.5028933422453
 30
0.0
 10
-16.58664035201427
 20
-38.655038620977805
 30
0.0
 10
-16.495293582777066
 20
-38.848343555062684
 30
0.0
 10
-16.356180789279716
 20
-39.00947485614245
 30
0.0
 10
-16.195153082410577
 20
-39.14141605600858
 30
0.0
 10
-15.995955917185762
 20
-39.304114424704615
 30
0.0
 10
-15.761582302134498
 20
-39.429787124406715
 30
0.0
 10
-15.490631290634255
 20
-39.53968035001536
 30
0.0
 10
-15.270651791871428
 20
-39.628014805289645
 30
0.0
 10
-15.02628764502623
 20
-39.70577756121446
 30
0.0
 10
-14.75753885009864
 20
-39.77296861778984
 30
0.0
  0
ENDSEC
  0
SECTION
  2
OBJECTS
  0
DICTIONARY
  5
A
330
0
100
AcDbDictionary
281
1
  3
ACAD_COLOR
350
B
  3
ACAD_GROUP
350
C
  3
ACAD_LAYOUT
350
D
  3
ACAD_MATERIAL
350
E
  3
ACAD_MLEADERSTYLE
350
F
  3
ACAD_MLINESTYLE
350
10
  3
ACAD_PLOTSETTINGS
350
11
  3
ACAD_PLOTSTYLENAME
350
12
  3
ACAD_SCALELIST
350
14
  3
ACAD_TABLESTYLE
350
15
  3
ACAD_VISUALSTYLE
350
16
  3
EZDXF_META
350
2D
  0
DICTIONARY
  5
B
330
A
100
AcDbDictionary
281
1
  0
DICTIONARY
  5
C
330
A
100
AcDbDictionary
281
1
  0
DICTIONARY
  5
D
330
A
100
AcDbDictionary
281
1
  3
Model
350
1A
  3
Layout1
350
1E
  0
DICTIONARY
  5
E
330
A
100
AcDbDictionary
281
1
  3
ByBlock
350
1F
  3
ByLayer
350
20
  3
Global
350
21
  0
DICTIONARY
  5
F
330
A
100
AcDbDictionary
281
1
  3
Standard
350
2C
  0
DICTIONARY
  5
10
330
A
100
AcDbDictionary
281
1
  3
Standard
350
22
  0
DICTIONARY
  5
11
330
A
100
AcDbDictionary
281
1
  0
ACDBDICTIONARYWDFLT
  5
12
330
A
100
AcDbDictionary
281
1
  3
Normal
350
13
100
AcDbDictionaryWithDefault
340
13
  0
ACDBPLACEHOLDER
  5
13
330
12
  0
DICTIONARY
  5
14
330
A
100
AcDbDictionary
281
1
  0
DICTIONARY
  5
15
330
A
100
AcDbDictionary
281
1
  0
DICTIONARY
  5
16
330
A
100
AcDbDictionary
281
1
  0
LAYOUT
  5
1A
330
D
100
AcDbPlotSettings
  1

  4
A3
  6

 40
7.5
 41
20.0
 42
7.5
 43
20.0
 44
420.0
 45
297.0
 46
0.0
 47
0.0
 48
0.0
 49
0.0
140
0.0
141
0.0
142
1.0
143
1.0
 70
1024
 72
1
 73
0
 74
5
  7

 75
16
 76
0
 77
2
 78
300
147
1.0
148
0.0
149
0.0
100
AcDbLayout
  1
Model
 70
1
 71
0
 10
0.0
 20
0.0
 11
420.0
 21
297.0
 12
0.0
 22
0.0
 32
0.0
 14
1e+20
 24
1e+20
 34
1e+20
 15
-1e+20
 25
-1e+20
 35
-1e+20
146
0.0
 13
0.0
 23
0.0
 33
0.0
 16
1.0
 26
0.0
 36
0.0
 17
0.0
 27
1.0
 37
0.0
 76
1
330
17
  0
LAYOUT
  5
1E
330
D
100
AcDbPlotSettings
  1

  4
A3
  6

 40
7.5
 41
20.0
 42
7.5
 43
20.0
 44
420.0
 45
297.0
 46
0.0
 47
0.0
 48
0.0
 49
0.0
140
0.0
141
0.0
142
1.0
143
1.0
 70
0
 72
1
 73
0
 74
5
  7

 75
16
 76
0
 77
2
 78
300
147
1.0
148
0.0
149
0.0
100
AcDbLayout
  1
Layout1
 70
1
 71
1
 10
0.0
 20
0.0
 11
420.0
 21
297.0
 12
0.0
 22
0.0
 32
0.0
 14
1e+20
 24
1e+20
 34
1e+20
 15
-1e+20
 25
-1e+20
 35
-1e+20
146
0.0
 13
0.0
 23
0.0
 33
0.0
 16
1.0
 26
0.0
 36
0.0
 17
0.0
 27
1.0
 37
0.0
 76
1
330
1B
  0
MATERIAL
  5
1F
102
{ACAD_REACTORS
330
E
102
}
330
E
100
AcDbMaterial
  1
ByBlock
  2

 70
0
 40
1.0
 71
1
 41
1.0
 91
-1023410177
 42
1.0
 72
1
  3

 73
1
 74
1
 75
1
 44
0.5
 73
0
 45
1.0
 46
1.0
 77
1
  4

 78
1
 79
1
170
1
 48
1.0
171
1
  6

172
1
173
1
174
1
140
1.0
141
1.0
175
1
  7

176
1
177
1
178
1
143
1.0
179
1
  8

270
1
271
1
272
1
145
1.0
146
1.0
273
1
  9

274
1
275
1
276
1
 42
1.0
 72
1
  3

 73
1
 74
1
 75
1
 94
63
  0
MATERIAL
  5
20
102
{ACAD_REACTORS
330
E
102
}
330
E
100
AcDbMaterial
  1
ByLayer
  2

 70
0
 40
1.0
 71
1
 41
1.0
 91
-1023410177
 42
1.0
 72
1
  3

 73
1
 74
1
 75
1
 44
0.5
 73
0
 45
1.0
 46
1.0
 77
1
  4

 78
1
 79
1
170
1
 48
1.0
171
1
  6

172
1
173
1
174
1
140
1.0
141
1.0
175
1
  7

176
1
177
1
178
1
143
1.0
179
1
  8

270
1
271
1
272
1
145
1.0
146
1.0
273
1
  9

274
1
275
1
276
1
 42
1.0
 72
1
  3

 73
1
 74
1
 75
1
 94
63
  0
MATERIAL
  5
21
102
{ACAD_REACTORS
330
E
102
}
330
E
100
AcDbMaterial
  1
Global
  2

 70
0
 40
1.0
 71
1
 41
1.0
 91
-1023410177
 42
1.0
 72
1
  3

 73
1
 74
1
 75
1
 44
0.5
 73
0
 45
1.0
 46
1.0
 77
1
  4

 78
1
 79
1
170
1
 48
1.0
171
1
  6

172
1
173
1
174
1
140
1.0
141
1.0
175
1
  7

176
1
177
1
178
1
143
1.0
179
1
  8

270
1
271
1
272
1
145
1.0
146
1.0
273
1
  9

274
1
275
1
276
1
 42
1.0
 72
1
  3

 73
1
 74
1
 75
1
 94
63
  0
MLINESTYLE
  5
22
102
{ACAD_REACTORS
330
10
102
}
330
10
100
AcDbMlineStyle
  2
Standard
 70
0
  3

 62
256
 51
90.0
 52
90.0
 71
2
 49
0.5
 62
256
  6
BYLAYER
 49
-0.5
 62
256
  6
BYLAYER
  0
MLEADERSTYLE
  5
2C
102
{ACAD_REACTORS
330
F
102
}
330
F
100
AcDbMLeaderStyle
179
2
170
2
171
1
172
0
 90
2
 40
0.0
 41
0.0
173
1
 91
-1056964608
 92
-2
290
1
 42
2.0
291
1
 43
8.0
  3
Standard
 44
4.0
300

342
29
174
1
175
1
176
0
178
1
 93
-1056964608
 45
4.0
292
0
297
0
 46
4.0
 94
-1056964608
 47
1.0
 49
1.0
140
1.0
294
1
141
0.0
177
0
142
1.0
295
0
296
0
143
3.75
271
0
272
9
273
9
  0
DICTIONARY
  5
2D
330
A
100
AcDbDictionary
280
1
281
1
  3
CREATED_BY_EZDXF
350
2E
  3
WRITTEN_BY_EZDXF
350
9C
  0
DICTIONARYVAR
  5
2E
330
2D
100
DictionaryVariables
280
0
  1
1.4.4 @ 2026-10-01T20:35:55.344085+00:00
  0
DICTIONARYVAR
  5
9C
330
2D
100
DictionaryVariables
280
0
  1
1.4.4 @ 2026-10-01T20:35:55.368149+00:00
  0
ENDSEC
  0
EOF
