  0
SECTION
  2
HEADER
  9
$ACADVER
  1
AC1027
  9
$ACADMAINTVER
 70
105
  9
$DWGCODEPAGE
  3
ANSI_1252
  9
$LASTSAVEDBY
  1
ezdxf
  9
$REQUIREDVERSIONS
160
0
  9
$INSBASE
 10
0.0
 20
0.0
 30
0.0
  9
$EXTMIN
 10
1e+20
 20
1e+20
 30
1e+20
  9
$EXTMAX
 10
-1e+20
 20
-1e+20
 30
-1e+20
  9
$LIMMIN
 10
0.0
 20
0.0
  9
$LIMMAX
 10
420.0
 20
297.0
  9
$ORTHOMODE
 70
0
  9
$REGENMODE
 70
1
  9
$FILLMODE
 70
1
  9
$QTEXTMODE
 70
0
  9
$MIRRTEXT
 70
1
  9
$LTSCALE
 40
1.0
  9
$ATTMODE
 70
1
  9
$TEXTSIZE
 40
2.5
  9
$TRACEWID
 40
1.0
  9
$TEXTSTYLE
  7
Standard
  9
$CLAYER
  8
0
  9
$CELTYPE
  6
ByLayer
  9
$CECOLOR
 62
256
  9
$CELTSCALE
 40
1.0
  9
$DISPSILH
 70
0
  9
$DIMSCALE
 40
1.0
  9
$DIMASZ
 40
2.5
  9
$DIMEXO
 40
0.625
  9
$DIMDLI
 40
3.75
  9
$DIMRND
 40
0.0
  9
$DIMDLE
 40
0.0
  9
$DIMEXE
 40
1.25
  9
$DIMTP
 40
0.0
  9
$DIMTM
 40
0.0
  9
$DIMTXT
 40
2.5
  9
$DIMCEN
 40
2.5
  9
$DIMTSZ
 40
0.0
  9
$DIMTOL
 70
0
  9
$DIMLIM
 70
0
  9
$DIMTIH
 70
0
  9
$DIMTOH
 70
0
  9
$DIMSE1
 70
0
  9
$DIMSE2
 70
0
  9
$DIMTAD
 70
1
  9
$DIMZIN
 70
8
  9
$DIMBLK
  1

  9
$DIMASO
 70
1
  9
$DIMSHO
 70
1
  9
$DIMPOST
  1

  9
$DIMAPOST
  1

  9
$DIMALT
 70
0
  9
$DIMALTD
 70
3
  9
$DIMALTF
 40
0.03937007874
  9
$DIMLFAC
 40
1.0
  9
$DIMTOFL
 70
1
  9
$DIMTVP
 40
0.0
  9
$DIMTIX
 70
0
  9
$DIMSOXD
 70
0
  9
$DIMSAH
 70
0
  9
$DIMBLK1
  1

  9
$DIMBLK2
  1

  9
$DIMSTYLE
  2
ISO-25
  9
$DIMCLRD
 70
0
  9
$DIMCLRE
 70
0
  9
$DIMCLRT
 70
0
  9
$DIMTFAC
 40
1.0
  9
$DIMGAP
 40
0.625
  9
$DIMJUST
 70
0
  9
$DIMSD1
 70
0
  9
$DIMSD2
 70
0
  9
$DIMTOLJ
 70
0
  9
$DIMTZIN
 70
8
  9
$DIMALTZ
 70
0
  9
$DIMALTTZ
 70
0
  9
$DIMUPT
 70
0
  9
$DIMDEC
 70
2
  9
$DIMTDEC
 70
2
  9
$DIMALTU
 70
2
  9
$DIMALTTD
 70
3
  9
$DIMTXSTY
  7
Standard
  9
$DIMAUNIT
 70
0
  9
$DIMADEC
 70
0
  9
$DIMALTRND
 40
0.0
  9
$DIMAZIN
 70
0
  9
$DIMDSEP
 70
44
  9
$DIMATFIT
 70
3
  9
$DIMFRAC
 70
0
  9
$DIMLDRBLK
  1

  9
$DIMLUNIT
 70
2
  9
$DIMLWD
 70
-2
  9
$DIMLWE
 70
-2
  9
$DIMTMOVE
 70
0
  9
$DIMFXL
 40
1.0
  9
$DIMFXLON
 70
0
  9
$DIMJOGANG
 40
0.785398163397
  9
$DIMTFILL
 70
0
  9
$DIMTFILLCLR
 70
0
  9
$DIMARCSYM
 70
0
  9
$DIMLTYPE
  6

  9
$DIMLTEX1
  6

  9
$DIMLTEX2
  6

  9
$DIMTXTDIRECTION
 70
0
  9
$LUNITS
 70
2
  9
$LUPREC
 70
4
  9
$SKETCHINC
 40
1.0
  9
$FILLETRAD
 40
10.0
  9
$AUNITS
 70
0
  9
$AUPREC
 70
2
  9
$MENU
  1
.
  9
$ELEVATION
 40
0.0
  9
$PELEVATION
 40
0.0
  9
$THICKNESS
 40
0.0
  9
$LIMCHECK
 70
0
  9
$CHAMFERA
 40
0.0
  9
$CHAMFERB
 40
0.0
  9
$CHAMFERC
 40
0.0
  9
$CHAMFERD
 40
0.0
  9
$SKPOLY
 70
0
  9
$TDCREATE
 40
2461317.7883449076
  9
$TDUCREATE
 40
2458532.153996898
  9
$TDUPDATE
 40
2461317.7883449076
  9
$TDUUPDATE
 40
2458532.1544311
  9
$TDINDWG
 40
0.0
  9
$TDUSRTIMER
 40
0.0
  9
$USRTIMER
 70
1
  9
$ANGBASE
 50
0.0
  9
$ANGDIR
 70
0
  9
$PDMODE
 70
0
  9
$PDSIZE
 40
0.0
  9
$PLINEWID
 40
0.0
  9
$SPLFRAME
 70
0
  9
$SPLINETYPE
 70
6
  9
$SPLINESEGS
 70
8
  9
$HANDSEED
  5
D3
  9
$SURFTAB1
 70
6
  9
$SURFTAB2
 70
6
  9
$SURFTYPE
 70
6
  9
$SURFU
 70
6
  9
$SURFV
 70
6
  9
$UCSBASE
  2

  9
$UCSNAME
  2

  9
$UCSORG
 10
0.0
 20
0.0
 30
0.0
  9
$UCSXDIR
 10
1.0
 20
0.0
 30
0.0
  9
$UCSYDIR
 10
0.0
 20
1.0
 30
0.0
  9
$UCSORTHOREF
  2

  9
$UCSORTHOVIEW
 70
0
  9
$UCSORGTOP
 10
0.0
 20
0.0
 30
0.0
  9
$UCSORGBOTTOM
 10
0.0
 20
0.0
 30
0.0
  9
$UCSORGLEFT
 10
0.0
 20
0.0
 30
0.0
  9
$UCSORGRIGHT
 10
0.0
 20
0.0
 30
0.0
  9
$UCSORGFRONT
 10
0.0
 20
0.0
 30
0.0
  9
$UCSORGBACK
 10
0.0
 20
0.0
 30
0.0
  9
$PUCSBASE
  2

  9
$PUCSNAME
  2

  9
$PUCSORG
 10
0.0
 20
0.0
 30
0.0
  9
$PUCSXDIR
 10
1.0
 20
0.0
 30
0.0
  9
$PUCSYDIR
 10
0.0
 20
1.0
 30
0.0
  9
$PUCSORTHOREF
  2

  9
$PUCSORTHOVIEW
 70
0
  9
$PUCSORGTOP
 10
0.0
 20
0.0
 30
0.0
  9
$PUCSORGBOTTOM
 10
0.0
 20
0.0
 30
0.0
  9
$PUCSORGLEFT
 10
0.0
 20
0.0
 30
0.0
  9
$PUCSORGRIGHT
 10
0.0
 20
0.0
 30
0.0
  9
$PUCSORGFRONT
 10
0.0
 20
0.0
 30
0.0
  9
$PUCSORGBACK
 10
0.0
 20
0.0
 30
0.0
  9
$USERI1
 70
0
  9
$USERI2
 70
0
  9
$USERI3
 70
0
  9
$USERI4
 70
0
  9
$USERI5
 70
0
  9
$USERR1
 40
0.0
  9
$USERR2
 40
0.0
  9
$USERR3
 40
0.0
  9
$USERR4
 40
0.0
  9
$USERR5
 40
0.0
  9
$WORLDVIEW
 70
1
  9
$SHADEDGE
 70
3
  9
$SHADEDIF
 70
70
  9
$TILEMODE
 70
1
  9
$MAXACTVP
 70
64
  9
$PINSBASE
 10
0.0
 20
0.0
 30
0.0
  9
$PLIMCHECK
 70
0
  9
$PEXTMIN
 10
1e+20
 20
1e+20
 30
1e+20
  9
$PEXTMAX
 10
-1e+20
 20
-1e+20
 30
-1e+20
  9
$PLIMMIN
 10
0.0
 20
0.0
  9
$PLIMMAX
 10
420.0
 20
297.0
  9
$UNITMODE
 70
0
  9
$VISRETAIN
 70
1
  9
$PLINEGEN
 70
0
  9
$PSLTSCALE
 70
1
  9
$TREEDEPTH
 70
3020
  9
$CMLSTYLE
  2
Standard
  9
$CMLJUST
 70
0
  9
$CMLSCALE
 40
20.0
  9
$PROXYGRAPHICS
 70
1
  9
$MEASUREMENT
 70
1
  9
$CELWEIGHT
370
-1
  9
$ENDCAPS
280
0
  9
$JOINSTYLE
280
0
  9
$LWDISPLAY
290
0
  9
$INSUNITS
 70
4
  9
$HYPERLINKBASE
  1

  9
$STYLESHEET
  1

  9
$XEDIT
290
1
  9
$CEPSNTYPE
380
0
  9
$PSTYLEMODE
290
1
  9
$FINGERPRINTGUID
  2
{8120007F-209A-440C-95BC-5F8DB6910B4D}
  9
$VERSIONGUID
  2
{3F17C4C4-7C8F-458C-9F15-54075101526F}
  9
$EXTNAMES
290
1
  9
$PSVPSCALE
 40
0.0
  9
$OLESTARTUP
290
0
  9
$SORTENTS
280
127
  9
$INDEXCTL
280
0
  9
$HIDETEXT
280
1
  9
$XCLIPFRAME
280
1
  9
$HALOGAP
280
0
  9
$OBSCOLOR
 70
257
  9
$OBSLTYPE
280
0
  9
$INTERSECTIONDISPLAY
280
0
  9
$INTERSECTIONCOLOR
 70
257
  9
$DIMASSOC
280
2
  9
$PROJECTNAME
  1

  9
$CAMERADISPLAY
290
0
  9
$LENSLENGTH
 40
50.0
  9
$CAMERAHEIGHT
 40
0.0
  9
$STEPSPERSEC
 40
24.0
  9
$STEPSIZE
 40
100.0
  9
$3DDWFPREC
 40
2.0
  9
$PSOLWIDTH
 40
0.005
  9
$PSOLHEIGHT
 40
0.08
  9
$LOFTANG1
 40
1.570796326795
  9
$LOFTANG2
 40
1.570796326795
  9
$LOFTMAG1
 40
0.0
  9
$LOFTMAG2
 40
0.0
  9
$LOFTPARAM
 70
7
  9
$LOFTNORMALS
280
1
  9
$LATITUDE
 40
37.795
  9
$LONGITUDE
 40
-122.394
  9
$NORTHDIRECTION
 40
0.0
  9
$TIMEZONE
 70
-8000
  9
$LIGHTGLYPHDISPLAY
280
1
  9
$TILEMODELIGHTSYNCH
280
1
  9
$CMATERIAL
347
20
  9
$SOLIDHIST
280
0
  9
$SHOWHIST
280
1
  9
$DWFFRAME
280
2
  9
$DGNFRAME
280
2
  9
$REALWORLDSCALE
290
1
  9
$INTERFERECOLOR
 62
256
  9
$CSHADOW
280
0
  9
$SHADOWPLANELOCATION
 40
0.0
  0
ENDSEC
  0
SECTION
  2
CLASSES
  0
CLASS
  1
ACDBDICTIONARYWDFLT
  2
AcDbDictionaryWithDefault
  3
ObjectDBX Classes
 90
0
 91
0
280
0
281
0
  0
CLASS
  1
SUN
  2
AcDbSun
  3
SCENEOE
 90
1153
 91
0
280
0
281
0
  0
CLASS
  1
VISUALSTYLE
  2
AcDbVisualStyle
  3
ObjectDBX Classes
 90
4095
 91
0
280
0
281
0
  0
CLASS
  1
MATERIAL
  2
AcDbMaterial
  3
ObjectDBX Classes
 90
1153
 91
0
280
0
281
0
  0
CLASS
  1
SCALE
  2
AcDbScale
  3
ObjectDBX Classes
 90
1153
 91
0
280
0
281
0
  0
CLASS
  1
TABLESTYLE
  2
AcDbTableStyle
  3
ObjectDBX Classes
 90
4095
 91
0
280
0
281
0
  0
CLASS
  1
MLEADERSTYLE
  2
AcDbMLeaderStyle
  3
ACDB_MLEADERSTYLE_CLASS
 90
4095
 91
0
280
0
281
0
  0
CLASS
  1
DICTIONARYVAR
  2
AcDbDictionaryVar
  3
ObjectDBX Classes
 90
0
 91
0
280
0
281
0
  0
CLASS
  1
CELLSTYLEMAP
  2
AcDbCellStyleMap
  3
ObjectDBX Classes
 90
1152
 91
0
280
0
281
0
  0
CLASS
  1
MENTALRAYRENDERSETTINGS
  2
AcDbMentalRayRenderSettings
  3
SCENEOE
 90
1024
 91
0
280
0
281
0
  0
CLASS
  1
ACDBDETAILVIEWSTYLE
  2
AcDbDetailViewStyle
  3
ObjectDBX Classes
 90
1025
 91
0
280
0
281
0
  0
CLASS
  1
ACDBSECTIONVIEWSTYLE
  2
AcDbSectionViewStyle
  3
ObjectDBX Classes
 90
1025
 91
0
280
0
281
0
  0
CLASS
  1
RASTERVARIABLES
  2
AcDbRasterVariables
  3
ISM
 90
0
 91
0
280
0
281
0
  0
CLASS
  1
LAYOUT
  2
AcDbLayout
  3
ObjectDBX Classes
 90
0
 91
0
280
0
281
0
  0
CLASS
  1
ACDBPLACEHOLDER
  2
AcDbPlaceHolder
  3
ObjectDBX Classes
 90
0
 91
0
280
0
281
0
  0
ENDSEC
  0
SECTION
  2
TABLES
  0
TABLE
  2
VPORT
  5
8
330
0
100
AcDbSymbolTable
 70
1
  0
VPORT
  5
CF
330
8
100
AcDbSymbolTableRecord
100
AcDbViewportTableRecord
  2
*Active
 70
0
 10
0.0
 20
0.0
 11
1.0
 21
1.0
 12
2.084611326407714
 22
-3.974093947794607
 13
0.0
 23
0.0
 14
0.5
 24
0.5
 15
0.5
 25
0.5
 16
0.0
 26
0.0
 36
1.0
 17
0.0
 27
0.0
 37
0.0
 40
71.04285340814485
 41
1.34
 42
50.0
 43
0.0
 44
0.0
 50
0.0
 51
0.0
 71
0
 72
1000
 73
1
 74
3
 75
0
 76
0
 77
0
 78
0
281
0
 65
1
110
0.0
120
0.0
130
0.0
111
1.0
121
0.0
131
0.0
112
0.0
122
1.0
132
0.0
 79
0
146
0.0
  0
ENDTAB
  0
TABLE
  2
LTYPE
  5
2
330
0
100
AcDbSymbolTable
 70
3
  0
LTYPE
  5
24
330
2
100
AcDbSymbolTableRecord
100
AcDbLinetypeTableRecord
  2
ByBlock
 70
0
  3

 72
65
 73
0
 40
0.0
  0
LTYPE
  5
25
330
2
100
AcDbSymbolTableRecord
100
AcDbLinetypeTableRecord
  2
ByLayer
 70
0
  3

 72
65
 73
0
 40
0.0
  0
LTYPE
  5
26
330
2
100
AcDbSymbolTableRecord
100
AcDbLinetypeTableRecord
  2
Continuous
 70
0
  3

 72
65
 73
0
 40
0.0
  0
ENDTAB
  0
TABLE
  2
LAYER
  5
1
330
0
100
AcDbSymbolTable
 70
3
  0
LAYER
  5
27
330
1
100
AcDbSymbolTableRecord
100
AcDbLayerTableRecord
  2
0
 70
0
 62
7
  6
Continuous
370
-3
390
13
347
21
  0
LAYER
  5
28
330
1
100
AcDbSymbolTableRecord
100
AcDbLayerTableRecord
  2
Defpoints
 70
0
 62
7
  6
Continuous
290
0
370
-3
390
13
347
21
  0
LAYER
  5
2F
330
1
100
AcDbSymbolTableRecord
100
AcDbLayerTableRecord
  2
visible
 70
0
 62
7
  6
Continuous
370
-3
390
13
347
21
  0
ENDTAB
  0
TABLE
  2
STYLE
  5
5
330
0
100
AcDbSymbolTable
 70
1
  0
STYLE
  5
29
330
5
100
AcDbSymbolTableRecord
100
AcDbTextStyleTableRecord
  2
Standard
 70
0
 40
0.0
 41
1.0
 50
0.0
 71
0
 42
2.5
  3
txt
  4

  0
ENDTAB
  0
TABLE
  2
VIEW
  5
7
330
0
100
AcDbSymbolTable
 70
0
  0
ENDTAB
  0
TABLE
  2
UCS
  5
6
330
0
100
AcDbSymbolTable
 70
0
  0
ENDTAB
  0
TABLE
  2
APPID
  5
3
330
0
100
AcDbSymbolTable
 70
3
  0
APPID
  5
2A
330
3
100
AcDbSymbolTableRecord
100
AcDbRegAppTableRecord
  2
ACAD
 70
0
  0
APPID
  5
D0
330
3
100
AcDbSymbolTableRecord
100
AcDbRegAppTableRecord
  2
HATCHBACKGROUNDCOLOR
 70
0
  0
APPID
  5
D1
330
3
100
AcDbSymbolTableRecord
100
AcDbRegAppTableRecord
  2
EZDXF
 70
0
  0
ENDTAB
  0
TABLE
  2
DIMSTYLE
  5
4
330
0
100
AcDbSymbolTable
 70
1
100
AcDbDimStyleTable
  0
DIMSTYLE
105
2B
330
4
100
AcDbSymbolTableRecord
100
AcDbDimStyleTableRecord
  2
Standard
 70
0
 40
1.0
 41
2.5
 42
0.625
 43
3.75
 44
1.25
 45
0.0
 46
0.0
 47
0.0
 48
0.0
 49
2.5
140
2.5
141
2.5
142
0.0
143
0.03937007874
144
1.0
145
0.0
146
1.0
147
0.625
148
0.0
 69
0
 70
0
 71
0
 72
0
 73
0
 74
0
 75
0
 76
0
 77
1
 78
8
 79
3
170
0
171
3
172
1
173
0
174
0
175
0
176
0
177
0
178
0
179
2
271
2
272
2
273
2
274
3
275
0
276
0
277
2
278
44
279
0
280
0
281
0
282
0
283
0
284
8
285
0
286
0
288
0
289
3
290
0
371
-2
372
-2
  0
ENDTAB
  0
TABLE
  2
BLOCK_RECORD
  5
9
330
0
100
AcDbSymbolTable
 70
2
  0
BLOCK_RECORD
  5
17
330
9
100
AcDbSymbolTableRecord
100
AcDbBlockTableRecord
  2
*Model_Space
340
1A
 70
0
280
1
281
0
  0
BLOCK_RECORD
  5
1B
330
9
100
AcDbSymbolTableRecord
100
AcDbBlockTableRecord
  2
*Paper_Space
340
1E
 70
0
280
1
281
0
  0
ENDTAB
  0
ENDSEC
  0
SECTION
  2
BLOCKS
  0
BLOCK
  5
18
330
17
100
AcDbEntity
  8
0
100
AcDbBlockBegin
  2
*Model_Space
 70
0
 10
0.0
 20
0.0
 30
0.0
  3
*Model_Space
  1

  0
ENDBLK
  5
19
330
17
100
AcDbEntity
  8
0
100
AcDbBlockEnd
  0
BLOCK
  5
1C
330
1B
100
AcDbEntity
  8
0
100
AcDbBlockBegin
  2
*Paper_Space
 70
0
 10
0.0
 20
0.0
 30
0.0
  3
*Paper_Space
  1

  0
ENDBLK
  5
1D
330
1B
100
AcDbEntity
  8
0
100
AcDbBlockEnd
  0
ENDSEC
  0
SECTION
  2
ENTITIES
  0
LINE
  5
30
330
17
100
AcDbEntity
  8
visible
100
AcDbLine
 10
-5.795078563296347
 20
-30.971003124629355
 30
0.0
 11
-2.9239314181142944
 21
-31.722463324390894
 31
0.0
  0
SPLINE
  5
31
330
17
100
AcDbEntity
  8
visible
100
AcDbSpline
 70
0
 71
2
 72
6
 73
3
 74
0
 40
0.0
 40
0.0
 40
0.0
 40
1.0
 40
1.0
 40
1.0
 10
-2.5143010505712766
 20
-31.9072802976171
 30
0.0
 10
-2.738691994834485
 20
-31.772275074118824
 30
0.0
 10
-2.9239314181143072
 20
-31.722463324390887
 30
0.0
  0
LINE
  5
32
330
17
100
AcDbEntity
  8
visible
100
AcDbLine
 10
-3.4943133349700872
 20
8.329227521205766
 30
0.0
 11
-3.4943133349700872
 21
-22.84265456259083
 31
0.0
  0
SPLINE
  5
33
330
17
100
AcDbEntity
  8
visible
100
AcDbSpline
 70
0
 71
3
 72
11
 73
7
 74
0
 40
0.0
 40
0.0
 40
0.0
 40
0.0
 40
0.736741720086067
 40
0.736741720086067
 40
0.736741720086067
 40
1.0
 40
1.0
 40
1.0
 40
1.0
 10
-2.5143010505712904
 20
-31.907280297617124
 30
0.0
 10
-2.255969838698605
 20
-32.0645242783362
 30
0.0
 10
-1.884448806414712
 20
-32.22151618161047
 30
0.0
 10
-1.5534417127370883
 20
-32.34073186576577
 30
0.0
 10
-1.4349620204033213
 20
-32.385755667109784
 30
0.0
 10
-1.3164317012286764
 20
-32.423560855550384
 30
0.0
 10
-1.2148989211057213
 20
-32.47871798940512
 30
0.0
  0
SPLINE
  5
34
330
17
100
AcDbEntity
  8
visible
100
AcDbSpline
 70
0
 71
2
 72
6
 73
3
 74
0
 40
0.0
 40
0.0
 40
0.0
 40
1.0
 40
1.0
 40
1.0
 10
-1.2148989211056875
 20
-32.47871798940504
 30
0.0
 10
-0.9174059251969371
 20
-32.64714784922115
 30
0.0
 10
-0.6423370585618038
 20
-32.77234959944097
 30
0.0
  0
ELLIPSE
  5
35
330
17
100
AcDbEntity
  8
visible
100
AcDbEllipse
 10
8.185208748744213
 20
-19.269990842225795
 30
0.0
 11
4.355032299863733
 21
16.639522038422367
 31
0.0
 40
0.6512928178687662
 41
-4.330280610979256
 42
-3.6163805958526325
  0
SPLINE
  5
36
330
17
100
AcDbEntity
  8
visible
100
AcDbSpline
 70
0
 71
2
 72
6
 73
3
 74
0
 40
0.0
 40
0.0
 40
0.0
 40
0.3553544822341814
 40
0.3553544822341814
 40
0.3553544822341814
 10
-5.795078122836685
 20
-30.971003239910075
 30
0.0
 10
-5.969790398695388
 20
-30.924220720090155
 30
0.0
 10
-6.009685711330375
 20
-30.854419390484892
 30
0.0
  0
LINE
  5
37
330
17
100
AcDbEntity
  8
visible
100
AcDbLine
 10
22.5808987589037
 20
16.30540698992769
 30
0.0
 11
22.5808987589037
 21
-7.672963843761998
 31
0.0
  0
ELLIPSE
  5
38
330
17
100
AcDbEntity
  8
visible
100
AcDbEllipse
 10
10.9013766751894
 20
12.732743269562661
 30
0.0
 11
4.355032299863734
 21
16.639522038422367
 31
0.0
 40
0.6512928178687666
 41
-7.471873264569049
 42
-5.901076937774152
  0
LINE
  5
39
330
17
100
AcDbEntity
  8
visible
100
AcDbLine
 10
22.5808987589037
 20
-7.6729638437619885
 30
0.0
 11
25.161258289026627
 21
-6.883654417169714
 31
0.0
  0
LINE
  5
3A
330
17
100
AcDbEntity
  8
visible
100
AcDbLine
 10
8.185208748744213
 20
28.399010375149302
 30
0.0
 11
10.901376675189399
 21
29.22986240314117
 31
0.0
  0
LINE
  5
3B
330
17
100
AcDbEntity
  8
visible
100
AcDbLine
 10
25.161258289026627
 20
-10.720193750560066
 30
0.0
 11
25.161258289026627
 21
-6.883654417169716
 31
0.0
  0
ELLIPSE
  5
3C
330
17
100
AcDbEntity
  8
visible
100
AcDbEllipse
 10
8.185208748744213
 20
11.901891241570794
 30
0.0
 11
4.355032299863734
 21
16.639522038422367
 31
0.0
 40
0.6512928178687666
 41
-5.901076937774152
 42
-4.330280610979256
  0
LINE
  5
3D
330
17
100
AcDbEntity
  8
visible
100
AcDbLine
 10
22.5808987589037
 20
-11.50950317715235
 30
0.0
 11
25.161258289026627
 21
-10.720193750560076
 31
0.0
  0
LINE
  5
3E
330
17
100
AcDbEntity
  8
visible
100
AcDbLine
 10
22.5808987589037
 20
-11.50950317715235
 30
0.0
 11
22.5808987589037
 21
-14.866475093868907
 31
0.0
  0
ELLIPSE
  5
3F
330
17
100
AcDbEntity
  8
visible
100
AcDbEllipse
 10
10.9013766751894
 20
-18.439138814233928
 30
0.0
 11
4.355032299863734
 21
16.639522038422367
 31
0.0
 40
0.6512928178687666
 41
-1.423395071225622
 42
-1.1886879573894626
  0
LINE
  5
40
330
17
100
AcDbEntity
  8
visible
100
AcDbLine
 10
-0.6423370122026419
 20
-38.46737906677788
 30
0.0
 11
-0.6423370122026419
 21
-32.7723496608439
 31
0.0
  0
LINE
  5
41
330
17
100
AcDbEntity
  8
visible
100
AcDbLine
 10
22.260675416719263
 20
-18.800967948716398
 30
0.0
 11
25.161258289026627
 21
-17.913705000666972
 31
0.0
  0
LINE
  5
42
330
17
100
AcDbEntity
  8
visible
100
AcDbLine
 10
19.728922436136255
 20
-32.23598885683887
 30
0.0
 11
-0.6423370122026419
 21
-38.46737906677788
 31
0.0
  0
LINE
  5
43
330
17
100
AcDbEntity
  8
visible
100
AcDbLine
 10
25.161258289026627
 20
-21.75024433405732
 30
0.0
 11
25.161258289026627
 21
-17.913705000666972
 31
0.0
  0
LINE
  5
44
330
17
100
AcDbEntity
  8
visible
100
AcDbLine
 10
19.728922436136255
 20
-32.23598885683887
 30
0.0
 11
19.728922436136255
 21
-26.540959450904893
 31
0.0
  0
LINE
  5
45
330
17
100
AcDbEntity
  8
visible
100
AcDbLine
 10
21.240668879464128
 20
-22.949518366470198
 30
0.0
 11
25.161258289026627
 21
-21.75024433405732
 31
0.0
  0
ELLIPSE
  5
46
330
17
100
AcDbEntity
  8
visible
100
AcDbEllipse
 10
10.9013766751894
 20
-18.439138814233928
 30
0.0
 11
4.355032299863734
 21
16.639522038422367
 31
0.0
 40
0.6512928178687666
 41
-1.902587972516086
 42
-1.6724539158101774
  0
ELLIPSE
  5
47
330
17
100
AcDbEntity
  8
visible
100
AcDbEllipse
 10
16.333712528079772
 20
-19.654839258292967
 30
0.0
 11
-0.2278795970858928
 21
-0.8706726648011704
 31
0.0
 40
0.6512928178687665
 41
0.3821083694054338
 42
3.141592653589793
  0
ELLIPSE
  5
48
330
17
100
AcDbEntity
  8
visible
100
AcDbEllipse
 10
16.333712528079772
 20
-19.654839258292967
 30
0.0
 11
-0.2278795970858928
 21
-0.8706726648011704
 31
0.0
 40
0.6512928178687665
 41
3.141592653589793
 42
6.283185307179586
  0
ELLIPSE
  5
49
330
17
100
AcDbEntity
  8
visible
100
AcDbEllipse
 10
16.333712528079772
 20
-19.654839258292967
 30
0.0
 11
-0.2278795970858928
 21
-0.8706726648011704
 31
0.0
 40
0.6512928178687665
 41
0.0
 42
0.3821083694054339
  0
ELLIPSE
  5
4A
330
17
100
AcDbEntity
  8
visible
100
AcDbEllipse
 10
9.543292711966807
 20
-3.9879749113422633
 30
0.0
 11
-0.2278795970858928
 21
-0.8706726648011704
 31
0.0
 40
0.6512928178687665
 41
0.3821083694054338
 42
3.141592653589793
  0
ELLIPSE
  5
4B
330
17
100
AcDbEntity
  8
visible
100
AcDbEllipse
 10
9.543292711966807
 20
-3.9879749113422633
 30
0.0
 11
-0.2278795970858928
 21
-0.8706726648011704
 31
0.0
 40
0.6512928178687665
 41
3.141592653589793
 42
6.283185307179586
  0
ELLIPSE
  5
4C
330
17
100
AcDbEntity
  8
visible
100
AcDbEllipse
 10
9.543292711966807
 20
-3.9879749113422633
 30
0.0
 11
-0.2278795970858928
 21
-0.8706726648011704
 31
0.0
 40
0.6512928178687665
 41
0.0
 42
0.3821083694054339
  0
ELLIPSE
  5
4D
330
17
100
AcDbEntity
  8
visible
100
AcDbEllipse
 10
16.333712528079772
 20
18.230986658936743
 30
0.0
 11
-0.2278795970858928
 21
-0.8706726648011704
 31
0.0
 40
0.6512928178687665
 41
0.3821083694054338
 42
3.141592653589793
  0
ELLIPSE
  5
4E
330
17
100
AcDbEntity
  8
visible
100
AcDbEllipse
 10
16.333712528079772
 20
18.230986658936743
 30
0.0
 11
-0.2278795970858928
 21
-0.8706726648011704
 31
0.0
 40
0.6512928178687665
 41
3.141592653589793
 42
6.283185307179586
  0
ELLIPSE
  5
4F
330
17
100
AcDbEntity
  8
visible
100
AcDbEllipse
 10
16.333712528079772
 20
18.230986658936743
 30
0.0
 11
-0.2278795970858928
 21
-0.8706726648011704
 31
0.0
 40
0.6512928178687665
 41
0.0
 42
0.3821083694054339
  0
ELLIPSE
  5
50
330
17
100
AcDbEntity
  8
visible
100
AcDbEllipse
 10
9.543292711966807
 20
4.644238588786024
 30
0.0
 11
-1.139397985429464
 21
-4.353363324005852
 31
0.0
 40
0.6512928178687665
 41
0.3821083694054338
 42
3.141592653589793
  0
ELLIPSE
  5
51
330
17
100
AcDbEntity
  8
visible
100
AcDbEllipse
 10
9.543292711966807
 20
4.644238588786024
 30
0.0
 11
-1.139397985429464
 21
-4.353363324005852
 31
0.0
 40
0.6512928178687665
 41
3.141592653589793
 42
6.283185307179586
  0
ELLIPSE
  5
52
330
17
100
AcDbEntity
  8
visible
100
AcDbEllipse
 10
9.543292711966807
 20
4.644238588786024
 30
0.0
 11
-1.139397985429464
 21
-4.353363324005852
 31
0.0
 40
0.6512928178687665
 41
0.0
 42
0.3821083694054339
  0
ELLIPSE
  5
53
330
17
100
AcDbEntity
  8
visible
100
AcDbEllipse
 10
9.543292711966807
 20
13.276452088914311
 30
0.0
 11
-0.2278795970858928
 21
-0.8706726648011704
 31
0.0
 40
0.6512928178687665
 41
0.3821083694054338
 42
3.141592653589793
  0
ELLIPSE
  5
54
330
17
100
AcDbEntity
  8
visible
100
AcDbEllipse
 10
9.543292711966807
 20
13.276452088914311
 30
0.0
 11
-0.2278795970858928
 21
-0.8706726648011704
 31
0.0
 40
0.6512928178687665
 41
3.141592653589793
 42
6.283185307179586
  0
ELLIPSE
  5
55
330
17
100
AcDbEntity
  8
visible
100
AcDbEllipse
 10
9.543292711966807
 20
13.276452088914311
 30
0.0
 11
-0.2278795970858928
 21
-0.8706726648011704
 31
0.0
 40
0.6512928178687665
 41
0.0
 42
0.3821083694054339
  0
ELLIPSE
  5
56
330
17
100
AcDbEntity
  8
visible
100
AcDbEllipse
 10
2.752872895853841
 20
-23.8090993982523
 30
0.0
 11
-0.2278795970858928
 21
-0.8706726648011704
 31
0.0
 40
0.6512928178687665
 41
0.3821083694054338
 42
3.141592653589793
  0
ELLIPSE
  5
57
330
17
100
AcDbEntity
  8
visible
100
AcDbEllipse
 10
2.752872895853841
 20
-23.8090993982523
 30
0.0
 11
-0.2278795970858928
 21
-0.8706726648011704
 31
0.0
 40
0.6512928178687665
 41
3.141592653589793
 42
6.283185307179586
  0
ELLIPSE
  5
58
330
17
100
AcDbEntity
  8
visible
100
AcDbEllipse
 10
2.752872895853841
 20
-23.8090993982523
 30
0.0
 11
-0.2278795970858928
 21
-0.8706726648011704
 31
0.0
 40
0.6512928178687665
 41
0.0
 42
0.3821083694054339
  0
ELLIPSE
  5
59
330
17
100
AcDbEntity
  8
visible
100
AcDbEllipse
 10
2.752872895853841
 20
14.07672651897741
 30
0.0
 11
-0.2278795970858928
 21
-0.8706726648011704
 31
0.0
 40
0.6512928178687665
 41
0.3821083694054338
 42
3.141592653589793
  0
ELLIPSE
  5
5A
330
17
100
AcDbEntity
  8
visible
100
AcDbEllipse
 10
2.752872895853841
 20
14.07672651897741
 30
0.0
 11
-0.2278795970858928
 21
-0.8706726648011704
 31
0.0
 40
0.6512928178687665
 41
3.141592653589793
 42
6.283185307179586
  0
ELLIPSE
  5
5B
330
17
100
AcDbEntity
  8
visible
100
AcDbEllipse
 10
2.752872895853841
 20
14.07672651897741
 30
0.0
 11
-0.2278795970858928
 21
-0.8706726648011704
 31
0.0
 40
0.6512928178687665
 41
0.0
 42
0.3821083694054339
  0
ELLIPSE
  5
5C
330
17
100
AcDbEntity
  8
visible
100
AcDbEllipse
 10
5.138696074414334
 20
5.797045777605433
 30
0.0
 11
-2.0635763513889183
 21
-7.8844246868106
 31
0.0
 40
0.6512928178687665
 41
1.0040365241975993
 42
2.1375561293921903
  0
SPLINE
  5
5D
330
17
100
AcDbEntity
  8
visible
100
AcDbSpline
 70
0
 71
3
 72
8
 73
4
 74
0
 40
0.0
 40
0.0
 40
0.0
 40
0.0
 40
0.32689753457245346
 40
0.32689753457245346
 40
0.32689753457245346
 40
0.32689753457245346
 10
20.2121997844935
 20
-25.92435577924951
 30
0.0
 10
20.30134300388441
 20
-25.790843134397317
 30
0.0
 10
20.37840244606069
 20
-25.67623225590419
 30
0.0
 10
20.431337931805558
 20
-25.55680346084985
 30
0.0
  0
SPLINE
  5
5E
330
17
100
AcDbEntity
  8
visible
100
AcDbSpline
 70
0
 71
3
 72
8
 73
4
 74
0
 40
0.0
 40
0.0
 40
0.0
 40
0.0
 40
1.0
 40
1.0
 40
1.0
 40
1.0
 10
22.793619206026655
 20
-7.126747987669368
 30
0.0
 10
22.793474076814555
 20
-7.282372101897195
 30
0.0
 10
22.712146240252533
 20
-7.486757619770825
 30
0.0
 10
22.5808987589037
 20
-7.672963843761991
 30
0.0
  0
SPLINE
  5
5F
330
17
100
AcDbEntity
  8
visible
100
AcDbSpline
 70
0
 71
3
 72
8
 73
4
 74
0
 40
0.0
 40
0.0
 40
0.0
 40
0.0
 40
1.0
 40
1.0
 40
1.0
 40
1.0
 10
22.793619206026648
 20
-11.748303783595045
 30
0.0
 10
22.793474076814576
 20
-11.711219283967724
 30
0.0
 10
22.71214624025249
 20
-11.615548381245935
 30
0.0
 10
22.5808987589037
 20
-11.509503177152354
 30
0.0
  0
SPLINE
  5
60
330
17
100
AcDbEntity
  8
visible
100
AcDbSpline
 70
0
 71
3
 72
8
 73
4
 74
0
 40
0.0
 40
0.0
 40
0.0
 40
0.0
 40
1.0
 40
1.0
 40
1.0
 40
1.0
 10
22.542108650598117
 20
-18.251269292829903
 30
0.0
 10
22.519557147968992
 20
-18.410850501996997
 30
0.0
 10
22.413512211569053
 20
-18.614441464785493
 30
0.0
 10
22.260675416855513
 20
-18.800967947869506
 30
0.0
  0
ELLIPSE
  5
61
330
17
100
AcDbEntity
  8
visible
100
AcDbEllipse
 10
19.141642884462595
 20
-32.08228123166295
 30
0.0
 11
0.23400970413442534
 21
-0.7650094498572674
 31
0.0
 40
0.7041003436537053
 41
-6.283185307179586
 42
-5.122230422354424
  0
ELLIPSE
  5
62
330
17
100
AcDbEntity
  8
visible
100
AcDbEllipse
 10
-1.2296165638763057
 20
-38.31367144160196
 30
0.0
 11
0.23400970413442534
 21
-0.7650094498572674
 31
0.0
 40
0.7041003436537053
 41
-6.283185307179586
 42
-5.122230422354424
  0
SPLINE
  5
63
330
17
100
AcDbEntity
  8
visible
100
AcDbSpline
 70
0
 71
2
 72
6
 73
3
 74
0
 40
0.0
 40
0.0
 40
0.0
 40
1.0
 40
1.0
 40
1.0
 10
20.212199784493453
 20
-25.924355779249453
 30
0.0
 10
20.00241825987628
 20
-26.24795631128255
 30
0.0
 10
19.72892243613626
 20
-26.540959450905792
 30
0.0
  0
SPLINE
  5
64
330
17
100
AcDbEntity
  8
visible
100
AcDbSpline
 70
0
 71
3
 72
8
 73
4
 74
0
 40
0.0
 40
0.0
 40
0.0
 40
0.0
 40
1.0
 40
1.0
 40
1.0
 40
1.0
 10
21.357075154004924
 20
-23.21251910081054
 30
0.0
 10
21.373002085324668
 20
-23.167690077868436
 30
0.0
 10
21.3330529561507
 20
-23.06508606226999
 30
0.0
 10
21.240668863523794
 20
-22.94951841419899
 30
0.0
  0
LINE
  5
65
330
17
100
AcDbEntity
  8
visible
100
AcDbLine
 10
15.910822443284843
 20
-20.40737834385604
 30
0.0
 11
16.333712528079772
 21
-20.51806060830578
 31
0.0
  0
ELLIPSE
  5
66
330
17
100
AcDbEntity
  8
visible
100
AcDbEllipse
 10
8.809193272374728
 20
4.836373120255928
 30
0.0
 11
-1.139397985429464
 21
-4.353363324005852
 31
0.0
 40
0.6512928178687665
 41
0.3821083694054338
 42
3.011771856181567
  0
ELLIPSE
  5
67
330
17
100
AcDbEntity
  8
visible
100
AcDbEllipse
 10
8.809193272374728
 20
4.836373120255928
 30
0.0
 11
-1.139397985429464
 21
-4.353363324005852
 31
0.0
 40
0.6512928178687665
 41
0.12982079740822083
 42
0.3821083694054339
  0
LINE
  5
68
330
17
100
AcDbEntity
  8
visible
100
AcDbLine
 10
2.3299828110589518
 20
-24.561638483815397
 30
0.0
 11
2.75287289585384
 21
-24.67232074826513
 31
0.0
  0
LINE
  5
69
330
17
100
AcDbEntity
  8
visible
100
AcDbLine
 10
22.793619207230037
 20
-5.977127788627106
 30
0.0
 11
23.53706327893484
 21
-6.171708073922585
 31
0.0
  0
LINE
  5
6A
330
17
100
AcDbEntity
  8
visible
100
AcDbLine
 10
22.793619207230037
 20
-6.399121117372696
 30
0.0
 11
23.53706327893484
 21
-6.171708073922587
 31
0.0
  0
LINE
  5
6B
330
17
100
AcDbEntity
  8
visible
100
AcDbLine
 10
22.689428941311185
 20
-16.97990884044189
 30
0.0
 11
23.53706327893484
 21
-17.20175865741984
 31
0.0
  0
LINE
  5
6C
330
17
100
AcDbEntity
  8
visible
100
AcDbLine
 10
22.63940265707352
 20
-17.476345195630692
 30
0.0
 11
23.53706327893484
 21
-17.201758657419845
 31
0.0
  0
LINE
  5
6D
330
17
100
AcDbEntity
  8
visible
100
AcDbLine
 10
-4.6248264719327885
 20
-22.85511734301328
 30
0.0
 11
-7.854864006137935
 21
-22.00972540454572
 31
0.0
  0
LINE
  5
6E
330
17
100
AcDbEntity
  8
visible
100
AcDbLine
 10
-4.624826471932792
 20
-22.855117343013276
 30
0.0
 11
-4.624826471932792
 21
8.31676474078332
 31
0.0
  0
LINE
  5
6F
330
17
100
AcDbEntity
  8
visible
100
AcDbLine
 10
-7.854864006137937
 20
-22.00972540454572
 30
0.0
 11
-7.854864006137937
 21
9.162156679250877
 31
0.0
  0
LINE
  5
70
330
17
100
AcDbEntity
  8
visible
100
AcDbLine
 10
-4.6248264719327885
 20
8.316764740783308
 30
0.0
 11
-7.854864006137935
 21
9.162156679250872
 31
0.0
  0
ELLIPSE
  5
71
330
17
100
AcDbEntity
  8
visible
100
AcDbEllipse
 10
7.597929197070549
 20
-19.11628321704987
 30
0.0
 11
4.557591941717861
 21
17.413453296023405
 31
0.0
 40
0.6512928178687662
 41
-4.330280610979256
 42
-3.733818670517922
  0
ELLIPSE
  5
72
330
17
100
AcDbEntity
  8
visible
100
AcDbEllipse
 10
4.3678916628654
 20
-18.27089127858231
 30
0.0
 11
4.557591941717861
 21
17.413453296023405
 31
0.0
 40
0.6512928178687662
 41
-4.330280610979256
 42
-3.741249640762982
  0
ELLIPSE
  5
73
330
17
100
AcDbEntity
  8
visible
100
AcDbEllipse
 10
-4.081592886643747
 20
-22.68894693741491
 30
0.0
 11
0.8
 21
1.620535695748151e-16
 31
0.0
 40
0.2829494150184726
 41
3.9659321600926316
 42
5.536728486887528
  0
ELLIPSE
  5
74
330
17
100
AcDbEntity
  8
visible
100
AcDbEllipse
 10
-4.081592886643747
 20
8.482935146381678
 30
0.0
 11
0.8
 21
2.3150509939259293e-17
 31
0.0
 40
0.28294941501847237
 41
3.9659321600926316
 42
5.536728486887528
  0
ELLIPSE
  5
75
330
17
100
AcDbEntity
  8
visible
100
AcDbEllipse
 10
-7.3116304208489
 20
-21.84355499894734
 30
0.0
 11
-0.8
 21
-1.620535695748151e-16
 31
0.0
 40
0.2829494150184726
 41
-6.283185307179586
 42
-5.458845800676747
  0
ELLIPSE
  5
76
330
17
100
AcDbEntity
  8
visible
100
AcDbEllipse
 10
-7.3116304208489
 20
9.32832708484925
 30
0.0
 11
-0.8
 21
-2.3150509939259293e-17
 31
0.0
 40
0.28294941501847237
 41
-6.283185307179586
 42
-5.458845800676747
  0
ELLIPSE
  5
77
330
17
100
AcDbEntity
  8
visible
100
AcDbEllipse
 10
7.597929197070549
 20
12.05559886674672
 30
0.0
 11
4.557591941717862
 21
17.413453296023405
 31
0.0
 40
0.6512928178687666
 41
-5.901076937774152
 42
-4.330280610979256
  0
ELLIPSE
  5
78
330
17
100
AcDbEntity
  8
visible
100
AcDbEllipse
 10
4.3678916628654
 20
12.900990805214278
 30
0.0
 11
4.557591941717862
 21
17.413453296023405
 31
0.0
 40
0.6512928178687666
 41
-5.901076937774152
 42
-4.330280610979256
  0
LINE
  5
79
330
17
100
AcDbEntity
  8
visible
100
AcDbLine
 10
7.597929197070549
 20
29.32002586700329
 30
0.0
 11
4.367891662865403
 21
30.165417805470852
 31
0.0
  0
LINE
  5
7A
330
17
100
AcDbEntity
  8
visible
100
AcDbLine
 10
-7.203782152979024
 20
-28.06840042086226
 30
0.0
 11
-10.332449614818081
 21
-29.02543245127255
 31
0.0
  0
ELLIPSE
  5
7B
330
17
100
AcDbEntity
  8
visible
100
AcDbEllipse
 10
-7.2492319685313475
 20
-29.832397483446144
 30
0.0
 11
4.2
 21
1.2154017718111128e-16
 31
0.0
 40
0.28294941501847237
 41
2.395135833297735
 42
3.9659321600926316
  0
LINE
  5
7C
330
17
100
AcDbEntity
  8
visible
100
AcDbLine
 10
-10.10120829129879
 20
-30.704792112837595
 30
0.0
 11
-7.164810532930473
 21
-31.4733302387172
 31
0.0
  0
ELLIPSE
  5
7D
330
17
100
AcDbEntity
  8
visible
100
AcDbEllipse
 10
-4.312834210163032
 20
-30.600935609325745
 30
0.0
 11
4.2
 21
0.0
 31
0.0
 40
0.2829494150184724
 41
3.965932160092632
 42
5.049424804966105
  0
ELLIPSE
  5
7E
330
17
100
AcDbEntity
  8
visible
100
AcDbEllipse
 10
-7.164810532930481
 20
-32.24063810539528
 30
0.0
 11
0.20255964185412723
 21
0.7739312576010403
 31
0.0
 40
0.6512928178687666
 41
-5.901076937774152
 42
-4.330280610979256
  0
ELLIPSE
  5
7F
330
17
100
AcDbEntity
  8
visible
100
AcDbEllipse
 10
-4.312834210163032
 20
-31.368243476003812
 30
0.0
 11
5.0
 21
0.0
 31
0.0
 40
0.2829494150184724
 41
3.965932160092632
 42
5.380605484987882
  0
ELLIPSE
  5
80
330
17
100
AcDbEntity
  8
visible
100
AcDbEllipse
 10
7.597929197070549
 20
28.55271800032523
 30
0.0
 11
0.2340097041344254
 21
-0.7650094498572673
 31
0.0
 40
0.7041003436537053
 41
-5.122230422354425
 42
-3.5514340955595283
  0
ELLIPSE
  5
81
330
17
100
AcDbEntity
  8
visible
100
AcDbEllipse
 10
4.3678916628654
 20
29.398109938792786
 30
0.0
 11
-0.2340097041344254
 21
0.7650094498572673
 31
0.0
 40
0.7041003436537053
 41
5.8733438652098515
 42
6.283185307179586
  0
LINE
  5
82
330
17
100
AcDbEntity
  8
visible
100
AcDbLine
 10
7.597929197070549
 20
29.320025867003295
 30
0.0
 11
10.314097123515735
 21
30.150877894995162
 31
0.0
  0
LINE
  5
83
330
17
100
AcDbEntity
  8
visible
100
AcDbLine
 10
4.3678916628654
 20
30.165417805470852
 30
0.0
 11
7.084059589310586
 21
30.99626983346272
 31
0.0
  0
LINE
  5
84
330
17
100
AcDbEntity
  8
visible
100
AcDbLine
 10
10.314097123515737
 20
30.15087789499516
 30
0.0
 11
7.08405958931059
 21
30.99626983346272
 31
0.0
  0
LINE
  5
85
330
17
100
AcDbEntity
  8
visible
100
AcDbLine
 10
-7.708044118219519
 20
-38.54527144441821
 30
0.0
 11
-7.708044118219519
 21
-32.40680851099365
 31
0.0
  0
ELLIPSE
  5
86
330
17
100
AcDbEntity
  8
visible
100
AcDbEllipse
 10
-4.312834210163032
 20
-37.50670640942838
 30
0.0
 11
5.0
 21
0.0
 31
0.0
 40
0.2829494150184724
 41
3.965932160092632
 42
5.536728486887529
  0
ELLIPSE
  5
87
330
17
100
AcDbEntity
  8
visible
100
AcDbEllipse
 10
16.05842523817586
 20
-25.136853266064804
 30
0.0
 11
5.0
 21
1.4469068712037056e-16
 31
0.0
 40
0.28294941501847237
 41
5.692851488787178
 42
6.283185307179586
  0
ELLIPSE
  5
88
330
17
100
AcDbEntity
  8
visible
100
AcDbEllipse
 10
-10.332449614818081
 20
-29.79274031795063
 30
0.0
 11
0.23400970413442534
 21
-0.7650094498572674
 31
0.0
 40
0.7041003436537053
 41
-3.5514340955595283
 42
-3.141592653589793
  0
ELLIPSE
  5
89
330
17
100
AcDbEntity
  8
visible
100
AcDbEllipse
 10
-7.2492319685313475
 20
-30.59970535012421
 30
0.0
 11
5.0
 21
1.4469068712037056e-16
 31
0.0
 40
0.28294941501847237
 41
3.141592653589793
 42
3.9659321600926316
  0
ELLIPSE
  5
8A
330
17
100
AcDbEntity
  8
visible
100
AcDbEllipse
 10
-10.10120829129879
 20
-31.47209997951566
 30
0.0
 11
0.20255964185412723
 21
0.7739312576010403
 31
0.0
 40
0.6512928178687666
 41
-5.901076937774152
 42
-4.330280610979256
  0
LINE
  5
8B
330
17
100
AcDbEntity
  8
visible
100
AcDbLine
 10
-10.644441876587834
 20
-31.63827038511404
 30
0.0
 11
-7.708044118219518
 21
-32.40680851099364
 31
0.0
  0
ELLIPSE
  5
8C
330
17
100
AcDbEntity
  8
visible
100
AcDbEllipse
 10
21.993619207230036
 20
16.459114615103616
 30
0.0
 11
-0.8
 21
-9.260203975703717e-17
 31
0.0
 40
0.2829494150184725
 41
-3.888049473881851
 42
-3.141592653589793
  0
ELLIPSE
  5
8D
330
17
100
AcDbEntity
  8
visible
100
AcDbEllipse
 10
10.314097123515737
 20
29.383570028317095
 30
0.0
 11
0.23400970413442534
 21
-0.7650094498572674
 31
0.0
 40
0.7041003436537053
 41
-5.122230422354425
 42
-3.5514340955595283
  0
ELLIPSE
  5
8E
330
17
100
AcDbEntity
  8
visible
100
AcDbEllipse
 10
10.314097123515737
 20
12.886450894738587
 30
0.0
 11
4.557591941717862
 21
17.413453296023405
 31
0.0
 40
0.6512928178687665
 41
-6.283185307179586
 42
-5.901076937774152
  0
ELLIPSE
  5
8F
330
17
100
AcDbEntity
  8
visible
100
AcDbEllipse
 10
24.79420856923059
 20
-6.787587151434764
 30
0.0
 11
-0.14625606508401584
 21
0.47813090616079207
 31
0.0
 40
0.7041003436537053
 41
4.302547538414954
 42
5.873343865209851
  0
LINE
  5
90
330
17
100
AcDbEntity
  8
visible
100
AcDbLine
 10
22.793619207230037
 20
-6.919982534414716
 30
0.0
 11
24.794208569230587
 21
-6.308019734760967
 31
0.0
  0
ELLIPSE
  5
91
330
17
100
AcDbEntity
  8
visible
100
AcDbEllipse
 10
24.427158849434548
 20
-10.528059219090181
 30
0.0
 11
1.0
 21
2.8938137424074114e-17
 31
0.0
 40
0.28294941501847237
 41
5.536728486887528
 42
6.283185307179586
  0
ELLIPSE
  5
92
330
17
100
AcDbEntity
  8
visible
100
AcDbEllipse
 10
24.427158849434548
 20
-6.691519885699819
 30
0.0
 11
1.0
 21
2.8938137424074114e-17
 31
0.0
 40
0.28294941501847237
 41
5.536728486887528
 42
6.283185307179586
  0
ELLIPSE
  5
93
330
17
100
AcDbEntity
  8
visible
100
AcDbEllipse
 10
24.79420856923059
 20
-10.624126484825126
 30
0.0
 11
0.14625606508401584
 21
-0.47813090616079207
 31
0.0
 40
0.7041003436537053
 41
-6.283185307179586
 42
-5.122230422354424
  0
ELLIPSE
  5
94
330
17
100
AcDbEntity
  8
visible
100
AcDbEllipse
 10
21.993619207230036
 20
-14.712767468692974
 30
0.0
 11
-0.8
 21
-2.3150509939259293e-17
 31
0.0
 40
0.28294941501847237
 41
-3.888049473881851
 42
-3.141592653589793
  0
ELLIPSE
  5
95
330
17
100
AcDbEntity
  8
visible
100
AcDbEllipse
 10
24.79420856923059
 20
-17.81763773493202
 30
0.0
 11
-0.14625606508401584
 21
0.47813090616079207
 31
0.0
 40
0.7041003436537053
 41
4.302547538414954
 42
5.873343865209851
  0
LINE
  5
96
330
17
100
AcDbEntity
  8
visible
100
AcDbLine
 10
22.573955444707646
 20
-18.017226342893064
 30
0.0
 11
24.794208569230587
 21
-17.338070318258225
 31
0.0
  0
ELLIPSE
  5
97
330
17
100
AcDbEntity
  8
visible
100
AcDbEllipse
 10
24.427158849434548
 20
-21.55810980258741
 30
0.0
 11
1.0
 21
2.8938137424074114e-17
 31
0.0
 40
0.28294941501847237
 41
5.536728486887528
 42
6.283185307179586
  0
ELLIPSE
  5
98
330
17
100
AcDbEntity
  8
visible
100
AcDbEllipse
 10
24.427158849434548
 20
-17.721570469197076
 30
0.0
 11
1.0
 21
2.8938137424074114e-17
 31
0.0
 40
0.28294941501847237
 41
5.536728486887528
 42
6.283185307179586
  0
ELLIPSE
  5
99
330
17
100
AcDbEntity
  8
visible
100
AcDbEllipse
 10
16.05842523817586
 20
-31.275316199489367
 30
0.0
 11
5.0
 21
1.4469068712037056e-16
 31
0.0
 40
0.28294941501847237
 41
5.536728486887528
 42
6.283185307179586
  0
ELLIPSE
  5
9A
330
17
100
AcDbEntity
  8
visible
100
AcDbEllipse
 10
24.79420856923059
 20
-21.65417706832237
 30
0.0
 11
0.14625606508401584
 21
-0.47813090616079207
 31
0.0
 40
0.7041003436537053
 41
-6.283185307179586
 42
-5.122230422354424
  0
ELLIPSE
  5
9B
330
17
100
AcDbEntity
  8
visible
100
AcDbEllipse
 10
7.084059589310588
 20
30.228961966784652
 30
0.0
 11
-0.23400970413442534
 21
0.7650094498572674
 31
0.0
 40
0.7041003436537053
 41
5.8733438652098515
 42
6.283185307179586
  0
ELLIPSE
  5
9C
330
17
100
AcDbEntity
  8
visible
100
AcDbEllipse
 10
7.084059589310588
 20
13.731842833206144
 30
0.0
 11
4.557591941717862
 21
17.413453296023405
 31
0.0
 40
0.6512928178687665
 41
-6.283185307179586
 42
-5.901076937774152
  0
ELLIPSE
  5
9D
330
17
100
AcDbEntity
  8
visible
100
AcDbEllipse
 10
-5.17540105196813
 20
23.860528431004838
 30
0.0
 11
-0.8228985450323927
 21
-3.144095734004226
 31
0.0
 40
0.6512928178687664
 41
3.141592653589793
 42
6.283185307179586
  0
ELLIPSE
  5
9E
330
17
100
AcDbEntity
  8
visible
100
AcDbEllipse
 10
-18.75624068419406
 20
19.70626829104549
 30
0.0
 11
-0.8228985450323927
 21
-3.144095734004226
 31
0.0
 40
0.6512928178687664
 41
3.141592653589793
 42
6.283185307179586
  0
LINE
  5
9F
330
17
100
AcDbEntity
  8
visible
100
AcDbLine
 10
-10.644441876587834
 20
-37.77673331853861
 30
0.0
 11
-7.708044118219518
 21
-38.54527144441821
 31
0.0
  0
LINE
  5
A0
330
17
100
AcDbEntity
  8
visible
100
AcDbLine
 10
-10.644441876587834
 20
-37.77673331853861
 30
0.0
 11
-10.644441876587834
 21
-31.638270385114048
 31
0.0
  0
ELLIPSE
  5
A1
330
17
100
AcDbEntity
  8
visible
100
AcDbEllipse
 10
-7.164810532930481
 20
-38.37910103881984
 30
0.0
 11
-0.20255964185412723
 21
-0.7739312576010403
 31
0.0
 40
0.6512928178687666
 41
5.094497349790124
 42
6.283185307179586
  0
ELLIPSE
  5
A2
330
17
100
AcDbEntity
  8
visible
100
AcDbEllipse
 10
-7.2492319685313475
 20
-36.738168283548774
 30
0.0
 11
5.0
 21
1.4469068712037056e-16
 31
0.0
 40
0.28294941501847237
 41
3.141592653589793
 42
3.9659321600926316
  0
ELLIPSE
  5
A3
330
17
100
AcDbEntity
  8
visible
100
AcDbEllipse
 10
24.427158849434548
 20
-6.211952469026016
 30
0.0
 11
0.5
 21
1.4469068712037057e-17
 31
0.0
 40
0.28294941501847237
 41
5.536728486887528
 42
7.107524813682424
  0
LINE
  5
A4
330
17
100
AcDbEntity
  8
visible
100
AcDbLine
 10
24.766679840240197
 20
-6.108095965527042
 30
0.0
 11
22.793619207230037
 21
-5.591690340022456
 31
0.0
  0
ELLIPSE
  5
A5
330
17
100
AcDbEntity
  8
visible
100
AcDbEllipse
 10
24.766679840240197
 20
-6.58766338220083
 30
0.0
 11
-0.1265997761588295
 21
-0.4837070360006502
 31
0.0
 40
0.6512928178687666
 41
3.141592653589793
 42
3.523701022995227
  0
ELLIPSE
  5
A6
330
17
100
AcDbEntity
  8
visible
100
AcDbEllipse
 10
24.427158849434548
 20
-17.242003052523273
 30
0.0
 11
0.5
 21
1.4469068712037057e-17
 31
0.0
 40
0.28294941501847237
 41
5.536728486887528
 42
7.107524813682424
  0
LINE
  5
A7
330
17
100
AcDbEntity
  8
visible
100
AcDbLine
 10
24.766679840240197
 20
-17.1381465490243
 30
0.0
 11
22.720979327917675
 21
-16.60272901801347
 31
0.0
  0
ELLIPSE
  5
A8
330
17
100
AcDbEntity
  8
visible
100
AcDbEllipse
 10
24.766679840240197
 20
-17.617713965698087
 30
0.0
 11
-0.1265997761588295
 21
-0.4837070360006502
 31
0.0
 40
0.6512928178687666
 41
3.141592653589793
 42
3.523701022995227
  0
ELLIPSE
  5
A9
330
17
100
AcDbEntity
  8
visible
100
AcDbEllipse
 10
-10.10120829129879
 20
-37.61056291294024
 30
0.0
 11
-0.20255964185412723
 21
-0.7739312576010403
 31
0.0
 40
0.6512928178687666
 41
5.094497349790124
 42
6.283185307179586
  0
LINE
  5
AA
330
17
100
AcDbEntity
  8
visible
100
AcDbLine
 10
-8.111630420848897
 20
-21.84355499894734
 30
0.0
 11
-8.111630420848897
 21
9.328327084849256
 31
0.0
  0
SPLINE
  5
AB
330
17
100
AcDbEntity
  8
visible
100
AcDbSpline
 70
0
 71
3
 72
8
 73
4
 74
0
 40
0.0
 40
0.0
 40
0.0
 40
0.0
 40
1.0
 40
1.0
 40
1.0
 40
1.0
 10
-6.0096857074090195
 20
-30.854419365910843
 30
0.0
 10
-7.38360841485771
 20
-28.40922627624775
 30
0.0
 10
-8.11506401595683
 20
-25.23585754288471
 30
0.0
 10
-8.111630420848897
 20
-21.84355499894734
 30
0.0
  0
SPLINE
  5
AC
330
17
100
AcDbEntity
  8
visible
100
AcDbSpline
 70
0
 71
3
 72
17
 73
13
 74
0
 40
0.0
 40
0.0
 40
0.0
 40
0.0
 40
0.23928818408144797
 40
0.23928818408144797
 40
0.23928818408144797
 40
0.4978165339415915
 40
0.4978165339415915
 40
0.4978165339415915
 40
0.6925440089853634
 40
0.6925440089853634
 40
0.6925440089853634
 40
1.0
 40
1.0
 40
1.0
 40
1.0
 10
-8.111630420848897
 20
9.32832708484925
 30
0.0
 10
-8.11228044063093
 20
11.471006299123134
 30
0.0
 10
-7.823497383961258
 20
13.695901871559379
 30
0.0
 10
-7.2657244535044825
 20
15.853486497744035
 30
0.0
 10
-6.664539558322629
 20
18.185000349636276
 30
0.0
 10
-5.749306683468432
 20
20.43545771720632
 30
0.0
 10
-4.590410550339832
 20
22.428254959839713
 30
0.0
 10
-3.718200532055306
 20
23.929917915099473
 30
0.0
 10
-2.7091545202704173
 20
25.285711714594584
 30
0.0
 10
-1.6056421556646259
 20
26.434903288437006
 30
0.0
 10
0.13577218265129304
 20
28.25147254938154
 30
0.0
 10
2.114748673829737
 20
29.547427224743842
 30
0.0
 10
4.133881958730978
 20
30.163119388650045
 30
0.0
  0
SPLINE
  5
AD
330
17
100
AcDbEntity
  8
visible
100
AcDbSpline
 70
0
 71
2
 72
8
 73
5
 74
0
 40
0.0
 40
0.0
 40
0.0
 40
0.2231576067026851
 40
0.2231576067026851
 40
1.0
 40
1.0
 40
1.0
 10
20.876130149600947
 20
-24.511521217647793
 30
0.0
 10
20.927886687308145
 20
-24.594960584913775
 30
0.0
 10
20.966407289138353
 20
-24.686217219568434
 30
0.0
 10
21.057265909418295
 20
-24.90115748720983
 30
0.0
 10
21.058425238175857
 20
-25.136853266064804
 30
0.0
  0
LINE
  5
AE
330
17
100
AcDbEntity
  8
visible
100
AcDbLine
 10
-7.2237333351875535
 20
-28.005220206807753
 30
0.0
 11
-10.566459318952504
 21
-29.027730868093357
 31
0.0
  0
SPLINE
  5
AF
330
17
100
AcDbEntity
  8
visible
100
AcDbSpline
 70
0
 71
3
 72
17
 73
13
 74
0
 40
0.0
 40
0.0
 40
0.0
 40
0.0
 40
0.25
 40
0.25
 40
0.25
 40
0.5
 40
0.5
 40
0.5
 40
0.75
 40
0.75
 40
0.75
 40
1.0
 40
1.0
 40
1.0
 40
1.0
 10
-10.566459318952504
 20
-29.027730868093357
 30
0.0
 10
-10.73074122237245
 20
-29.07786844272673
 30
0.0
 10
-10.884768664441133
 20
-29.13275427618556
 30
0.0
 10
-11.028541645158555
 20
-29.192388368469807
 30
0.0
 10
-11.304579298877178
 20
-29.307641126059824
 30
0.0
 10
-11.54337742477981
 20
-29.439744453780907
 30
0.0
 10
-11.744805888816437
 20
-29.608424452841447
 30
0.0
 10
-11.920893123348069
 20
-29.756175377725725
 30
0.0
 10
-12.069777087077032
 20
-29.93803964954651
 30
0.0
 10
-12.159639324847426
 20
-30.154876960092352
 30
0.0
 10
-12.21863517857265
 20
-30.29650381138556
 30
0.0
 10
-12.248499393133969
 20
-30.44477994139619
 30
0.0
 10
-12.249231968531348
 20
-30.59970535012421
 30
0.0
  0
LINE
  5
B0
330
17
100
AcDbEntity
  8
visible
100
AcDbLine
 10
22.793619207230037
 20
16.459114615103616
 30
0.0
 11
22.793619207230037
 21
-7.126747987318417
 31
0.0
  0
SPLINE
  5
B1
330
17
100
AcDbEntity
  8
visible
100
AcDbSpline
 70
0
 71
3
 72
14
 73
10
 74
0
 40
0.0
 40
0.0
 40
0.0
 40
0.0
 40
0.2859156096538301
 40
0.2859156096538301
 40
0.2859156096538301
 40
0.4784099204347117
 40
0.4784099204347117
 40
0.4784099204347117
 40
1.0
 40
1.0
 40
1.0
 40
1.0
 10
14.871689065233593
 20
30.299904190761993
 30
0.0
 10
16.22271205776873
 20
29.947425325355667
 30
0.0
 10
17.477985912821456
 20
29.24033139450799
 30
0.0
 10
18.55572972707241
 20
28.23480821639012
 30
0.0
 10
19.282011549093777
 20
27.558432127612807
 30
0.0
 10
19.92934867437132
 20
26.7482398360894
 30
0.0
 10
20.483830837396347
 20
25.827769114608465
 30
0.0
 10
21.990490573766387
 20
23.337157486501756
 30
0.0
 10
22.79775214069544
 20
20.019581498011213
 30
0.0
 10
22.793619207230037
 20
16.459114615103616
 30
0.0
  0
LINE
  5
B2
330
17
100
AcDbEntity
  8
visible
100
AcDbLine
 10
25.427158849434548
 20
-10.528059219090162
 30
0.0
 11
25.427158849434548
 21
-6.691519885699812
 31
0.0
  0
LINE
  5
B3
330
17
100
AcDbEntity
  8
visible
100
AcDbLine
 10
22.793619207230034
 20
-11.758958642595458
 30
0.0
 11
24.9404646343146
 21
-11.102257390985903
 31
0.0
  0
LINE
  5
B4
330
17
100
AcDbEntity
  8
visible
100
AcDbLine
 10
22.793619207230037
 20
-11.74830378324408
 30
0.0
 11
22.793619207230037
 21
-14.71276746869298
 31
0.0
  0
SPLINE
  5
B5
330
17
100
AcDbEntity
  8
visible
100
AcDbSpline
 70
0
 71
3
 72
8
 73
4
 74
0
 40
0.0
 40
0.0
 40
0.0
 40
0.0
 40
1.0
 40
1.0
 40
1.0
 40
1.0
 10
22.793619207230037
 20
-14.712767468692974
 30
0.0
 10
22.793675515537057
 20
-15.87604591500547
 30
0.0
 10
22.70919267307022
 20
-17.06346663534381
 30
0.0
 10
22.542108653585412
 20
-18.251269292244885
 30
0.0
  0
LINE
  5
B6
330
17
100
AcDbEntity
  8
visible
100
AcDbLine
 10
19.37565258859702
 20
-32.847290681520214
 30
0.0
 11
-0.9956068597418781
 21
-39.07868089145922
 31
0.0
  0
LINE
  5
B7
330
17
100
AcDbEntity
  8
visible
100
AcDbLine
 10
25.427158849434548
 20
-21.558109802587417
 30
0.0
 11
25.427158849434548
 21
-17.72157046919707
 31
0.0
  0
LINE
  5
B8
330
17
100
AcDbEntity
  8
visible
100
AcDbLine
 10
21.058425238175857
 20
-31.275316199489367
 30
0.0
 11
21.058425238175857
 21
-25.1368532660648
 31
0.0
  0
LINE
  5
B9
330
17
100
AcDbEntity
  8
visible
100
AcDbLine
 10
21.35100596630327
 20
-23.230292007308897
 30
0.0
 11
24.9404646343146
 21
-22.13230797448316
 31
0.0
  0
SPLINE
  5
BA
330
17
100
AcDbEntity
  8
visible
100
AcDbSpline
 70
0
 71
2
 72
6
 73
3
 74
0
 40
0.0
 40
0.0
 40
0.0
 40
1.0
 40
1.0
 40
1.0
 10
21.35707516035266
 20
-23.212519105880958
 30
0.0
 10
20.94681984873108
 20
-24.41506920356477
 30
0.0
 10
20.431337935014298
 20
-25.55680346229586
 30
0.0
  0
SPLINE
  5
BB
330
17
100
AcDbEntity
  8
visible
100
AcDbSpline
 70
0
 71
3
 72
8
 73
4
 74
0
 40
0.0
 40
0.0
 40
0.0
 40
0.0
 40
1.0
 40
1.0
 40
1.0
 40
1.0
 10
6.8500498851761655
 20
30.993971416641926
 30
0.0
 10
8.467944507520464
 20
31.490707291753
 30
0.0
 10
10.112240310284848
 20
31.54733275627781
 30
0.0
 10
11.641651531028447
 20
31.145296129229564
 30
0.0
  0
LINE
  5
BC
330
17
100
AcDbEntity
  8
visible
100
AcDbLine
 10
4.133881958730978
 20
30.163119388650045
 30
0.0
 11
6.850049885176164
 21
30.993971416641912
 31
0.0
  0
LINE
  5
BD
330
17
100
AcDbEntity
  8
visible
100
AcDbLine
 10
-1.7192850231437973
 20
26.315436869364426
 30
0.0
 11
-4.3525025069357355
 21
27.004624165009073
 31
0.0
  0
LINE
  5
BE
330
17
100
AcDbEntity
  8
visible
100
AcDbLine
 10
-5.551707148889612
 20
20.5995468554538
 30
0.0
 11
-5.998299597000518
 21
20.716432697000638
 31
0.0
  0
LINE
  5
BF
330
17
100
AcDbEntity
  8
visible
100
AcDbLine
 10
-5.950922719624043
 20
19.71422685223292
 30
0.0
 11
-17.933342139161667
 21
22.850364025049725
 31
0.0
  0
LINE
  5
C0
330
17
100
AcDbEntity
  8
visible
100
AcDbLine
 10
-7.768087362124256
 20
13.470887106784879
 30
0.0
 11
-19.57913922922645
 21
16.56217255704129
 31
0.0
  0
LINE
  5
C1
330
17
100
AcDbEntity
  8
visible
100
AcDbLine
 10
11.641651531028451
 20
31.145296129229564
 30
0.0
 11
14.871689065233598
 21
30.299904190762003
 31
0.0
  0
SPLINE
  5
C2
330
17
100
AcDbEntity
  8
visible
100
AcDbSpline
 70
0
 71
3
 72
11
 73
7
 74
0
 40
0.0
 40
0.0
 40
0.0
 40
0.0
 40
0.474726721967026
 40
0.474726721967026
 40
0.474726721967026
 40
1.0
 40
1.0
 40
1.0
 40
1.0
 10
-7.367370174784612
 20
-39.153032296420875
 30
0.0
 10
-6.520902579650172
 20
-39.37538938953329
 30
0.0
 10
-5.4233043720748695
 20
-39.495462236212035
 30
0.0
 10
-4.313448419884586
 20
-39.495095312082874
 30
0.0
 10
-3.0840475411698356
 20
-39.49552065186703
 30
0.0
 10
-1.8750878780252065
 20
-39.34881930497796
 30
0.0
 10
-0.9956068597418799
 20
-39.07868089145923
 30
0.0
  0
LINE
  5
C3
330
17
100
AcDbEntity
  8
visible
100
AcDbLine
 10
-12.249231968531348
 20
-36.738168283548774
 30
0.0
 11
-12.249231968531348
 21
-30.599705350124207
 31
0.0
  0
SPLINE
  5
C4
330
17
100
AcDbEntity
  8
visible
100
AcDbSpline
 70
0
 71
3
 72
14
 73
10
 74
0
 40
0.0
 40
0.0
 40
0.0
 40
0.0
 40
0.3333333333333333
 40
0.3333333333333333
 40
0.3333333333333333
 40
0.6666666666666666
 40
0.6666666666666666
 40
0.6666666666666666
 40
1.0
 40
1.0
 40
1.0
 40
1.0
 10
25.427158849434548
 20
-6.691519885699819
 30
0.0
 10
25.427664624337606
 20
-6.553448470462154
 30
0.0
 10
25.37253918570979
 20
-6.416456886995807
 30
0.0
 10
25.27569966009751
 20
-6.313795113047377
 30
0.0
 10
25.230404851995143
 20
-6.265880884818891
 30
0.0
 10
25.17875075555238
 20
-6.225668947231061
 30
0.0
 10
25.12073737076915
 20
-6.193159300283867
 30
0.0
 10
25.049362713098724
 20
-6.153835379584372
 30
0.0
 10
24.97354346164205
 20
-6.124101061556485
 30
0.0
 10
24.893279616399028
 20
-6.103956346200178
 30
0.0
  0
SPLINE
  5
C5
330
17
100
AcDbEntity
  8
visible
100
AcDbSpline
 70
0
 71
3
 72
14
 73
10
 74
0
 40
0.0
 40
0.0
 40
0.0
 40
0.0
 40
0.5609040122989103
 40
0.5609040122989103
 40
0.5609040122989103
 40
0.7804520061494551
 40
0.7804520061494551
 40
0.7804520061494551
 40
1.0
 40
1.0
 40
1.0
 40
1.0
 10
24.9404646343146
 20
-11.102257390985898
 30
0.0
 10
25.00321366406739
 20
-11.083543389197326
 30
0.0
 10
25.063041868853617
 20
-11.058412707489373
 30
0.0
 10
25.119949248673223
 20
-11.026865345862035
 30
0.0
 10
25.178324810772093
 20
-10.994250891737614
 30
0.0
 10
25.230279821021398
 20
-10.953849577063648
 30
0.0
 10
25.27581427942117
 20
-10.905661401840135
 30
0.0
 10
25.372584077444284
 20
-10.803014110832276
 30
0.0
 10
25.427663777706247
 20
-10.66607549608237
 30
0.0
 10
25.427158849434548
 20
-10.528059219090181
 30
0.0
  0
SPLINE
  5
C6
330
17
100
AcDbEntity
  8
visible
100
AcDbSpline
 70
0
 71
3
 72
14
 73
10
 74
0
 40
0.0
 40
0.0
 40
0.0
 40
0.0
 40
0.3333333333333333
 40
0.3333333333333333
 40
0.3333333333333333
 40
0.6666666666666666
 40
0.6666666666666666
 40
0.6666666666666666
 40
1.0
 40
1.0
 40
1.0
 40
1.0
 10
25.427158849434548
 20
-17.721570469197076
 30
0.0
 10
25.427664624337606
 20
-17.5834990539594
 30
0.0
 10
25.37253918570979
 20
-17.44650747049307
 30
0.0
 10
25.27569966009751
 20
-17.343845696544633
 30
0.0
 10
25.230404851995143
 20
-17.295931468316137
 30
0.0
 10
25.17875075555238
 20
-17.255719530728328
 30
0.0
 10
25.12073737076915
 20
-17.223209883781124
 30
0.0
 10
25.049362713098724
 20
-17.183885963081632
 30
0.0
 10
24.97354346164205
 20
-17.15415164505374
 30
0.0
 10
24.893279616399028
 20
-17.134006929697435
 30
0.0
  0
SPLINE
  5
C7
330
17
100
AcDbEntity
  8
visible
100
AcDbSpline
 70
0
 71
3
 72
17
 73
13
 74
0
 40
0.0
 40
0.0
 40
0.0
 40
0.0
 40
0.25
 40
0.25
 40
0.25
 40
0.5
 40
0.5
 40
0.5
 40
0.75
 40
0.75
 40
0.75
 40
1.0
 40
1.0
 40
1.0
 40
1.0
 10
19.375652588597017
 20
-32.84729068152022
 30
0.0
 10
19.539934492016958
 20
-32.797153106886825
 30
0.0
 10
19.69396193408565
 20
-32.74226727342802
 30
0.0
 10
19.837734914803065
 20
-32.68263318114376
 30
0.0
 10
20.11377256852168
 20
-32.56738042355376
 30
0.0
 10
20.352570694424337
 20
-32.435277095832674
 30
0.0
 10
20.553999158460954
 20
-32.26659709677213
 30
0.0
 10
20.730086392992597
 20
-32.11884617188784
 30
0.0
 10
20.87897035672155
 20
-31.936981900067057
 30
0.0
 10
20.968832594491943
 20
-31.720144589521226
 30
0.0
 10
21.027828448217175
 20
-31.578517738227987
 30
0.0
 10
21.057692662778475
 20
-31.430241608217397
 30
0.0
 10
21.058425238175857
 20
-31.275316199489367
 30
0.0
  0
SPLINE
  5
C8
330
17
100
AcDbEntity
  8
visible
100
AcDbSpline
 70
0
 71
3
 72
14
 73
10
 74
0
 40
0.0
 40
0.0
 40
0.0
 40
0.0
 40
0.5609040122989103
 40
0.5609040122989103
 40
0.5609040122989103
 40
0.7804520061494551
 40
0.7804520061494551
 40
0.7804520061494551
 40
1.0
 40
1.0
 40
1.0
 40
1.0
 10
24.9404646343146
 20
-22.132307974483155
 30
0.0
 10
25.00321366406739
 20
-22.113593972694584
 30
0.0
 10
25.063041868853617
 20
-22.088463290986635
 30
0.0
 10
25.119949248673223
 20
-22.056915929359292
 30
0.0
 10
25.178324810772093
 20
-22.02430147523488
 30
0.0
 10
25.230279821021398
 20
-21.983900160560893
 30
0.0
 10
25.27581427942117
 20
-21.93571198533739
 30
0.0
 10
25.372584077444284
 20
-21.833064694329533
 30
0.0
 10
25.427663777706247
 20
-21.69612607957963
 30
0.0
 10
25.427158849434548
 20
-21.55810980258741
 30
0.0
  0
SPLINE
  5
C9
330
17
100
AcDbEntity
  8
visible
100
AcDbSpline
 70
0
 71
3
 72
23
 73
19
 74
0
 40
0.0
 40
0.0
 40
0.0
 40
0.0
 40
0.20316930034799927
 40
0.20316930034799927
 40
0.20316930034799927
 40
0.34126519758783613
 40
0.34126519758783613
 40
0.34126519758783613
 40
0.564611696114494
 40
0.564611696114494
 40
0.564611696114494
 40
0.7804159188049427
 40
0.7804159188049427
 40
0.7804159188049427
 40
0.9236164141881122
 40
0.9236164141881122
 40
0.9236164141881122
 40
1.0
 40
1.0
 40
1.0
 40
1.0
 10
-4.3525025069357355
 20
27.004624165009066
 30
0.0
 10
-4.7755309292895385
 20
27.11649746964345
 30
0.0
 10
-5.24134653065045
 20
27.048814894344062
 30
0.0
 10
-5.671158275594271
 20
26.818200006413562
 30
0.0
 10
-5.963780535779168
 20
26.66232735553414
 30
0.0
 10
-6.24101817702516
 20
26.433142353882282
 30
0.0
 10
-6.485708410967963
 20
26.147594498403212
 30
0.0
 10
-6.882161373210511
 20
25.68670083169026
 30
0.0
 10
-7.191219091400148
 20
25.075756742062563
 30
0.0
 10
-7.359607636285297
 20
24.425955402972015
 30
0.0
 10
-7.52368135405106
 20
23.79851906933094
 30
0.0
 10
-7.555623484962327
 20
23.13897156008606
 30
0.0
 10
-7.447707089700897
 20
22.55852662308603
 30
0.0
 10
-7.376744272293843
 20
22.17308072343713
 30
0.0
 10
-7.245364395267596
 20
21.822123527310122
 30
0.0
 10
-7.060810712383272
 20
21.53164454561879
 30
0.0
 10
-6.798831224461009
 20
21.11649323992262
 30
0.0
 10
-6.424213045664088
 20
20.82673096699329
 30
0.0
 10
-5.998299597000525
 20
20.716432697000613
 30
0.0
  0
SPLINE
  5
CA
330
17
100
AcDbEntity
  8
visible
100
AcDbSpline
 70
0
 71
3
 72
23
 73
19
 74
0
 40
0.0
 40
0.0
 40
0.0
 40
0.0
 40
0.20316930034800196
 40
0.20316930034800196
 40
0.20316930034800196
 40
0.3412651975878407
 40
0.3412651975878407
 40
0.3412651975878407
 40
0.5646116961144994
 40
0.5646116961144994
 40
0.5646116961144994
 40
0.780415918804948
 40
0.780415918804948
 40
0.780415918804948
 40
0.9236164141881114
 40
0.9236164141881114
 40
0.9236164141881114
 40
1.0
 40
1.0
 40
1.0
 40
1.0
 10
-17.933342139161667
 20
22.850364025049714
 30
0.0
 10
-18.356370561515455
 20
22.962237329684122
 30
0.0
 10
-18.822186162876385
 20
22.894554754384714
 30
0.0
 10
-19.251997907820208
 20
22.663939866454207
 30
0.0
 10
-19.544620168005114
 20
22.508067215574812
 30
0.0
 10
-19.8218578092511
 20
22.278882213922934
 30
0.0
 10
-20.066548043193894
 20
21.993334358443867
 30
0.0
 10
-20.463001005436432
 20
21.53244069173094
 30
0.0
 10
-20.772058723626095
 20
20.92149660210321
 30
0.0
 10
-20.940447268511228
 20
20.271695263012674
 30
0.0
 10
-21.104520986276995
 20
19.644258929371617
 30
0.0
 10
-21.136463117188264
 20
18.98471142012672
 30
0.0
 10
-21.02854672192683
 20
18.40426648312669
 30
0.0
 10
-20.957583904519765
 20
18.01882058347778
 30
0.0
 10
-20.826204027493525
 20
17.66786338735078
 30
0.0
 10
-20.641650344609204
 20
17.37738440565944
 30
0.0
 10
-20.37967085668694
 20
16.96223309996327
 30
0.0
 10
-20.005052677890017
 20
16.67247082703395
 30
0.0
 10
-19.579139229226456
 20
16.56217255704128
 30
0.0
  0
LINE
  5
CB
330
17
100
AcDbEntity
  8
visible
100
AcDbLine
 10
-10.303767933152919
 20
-38.384494170541274
 30
0.0
 11
-7.367370174784606
 21
-39.153032296420875
 31
0.0
  0
SPLINE
  5
CC
330
17
100
AcDbEntity
  8
visible
100
AcDbSpline
 70
0
 71
3
 72
17
 73
13
 74
0
 40
0.0
 40
0.0
 40
0.0
 40
0.0
 40
0.25
 40
0.25
 40
0.25
 40
0.5
 40
0.5
 40
0.5
 40
0.75
 40
0.75
 40
0.75
 40
1.0
 40
1.0
 40
1.0
 40
1.0
 10
-12.249231968531348
 20
-36.73816828354878
 30
0.0
 10
-12.248492855336892
 20
-36.89345707348632
 30
0.0
 10
-12.218496042831621
 20
-37.04205265893226
 30
0.0
 10
-12.159241531015503
 20
-37.18395503988652
 30
0.0
 10
-12.069394093446203
 20
-37.400234214944675
 30
0.0
 10
-11.920830866843922
 20
-37.58167290078648
 30
0.0
 10
-11.745159587325524
 20
-37.72915167877071
 30
0.0
 10
-11.543633390936419
 20
-37.89799635341133
 30
0.0
 10
-11.304680918482315
 20
-38.03019756375635
 30
0.0
 10
-11.028437997457054
 20
-38.145528356143465
 30
0.0
 10
-10.810235213841128
 20
-38.235809498601974
 30
0.0
 10
-10.568678525739756
 20
-38.31546477006789
 30
0.0
 10
-10.303767933152919
 20
-38.384494170541274
 30
0.0
  0
LINE
  5
CD
330
17
100
AcDbEntity
  8
visible
100
AcDbLine
 10
24.893279616399028
 20
-6.103956346200178
 30
0.0
 11
22.793619207230034
 21
-5.554415988035958
 31
0.0
  0
LINE
  5
CE
330
17
100
AcDbEntity
  8
visible
100
AcDbLine
 10
24.893279616399028
 20
-17.134006929697435
 30
0.0
 11
22.72373916285933
 21
-16.566176992683076
 31
0.0
  0
ENDSEC
  0
SECTION
  2
OBJECTS
  0
DICTIONARY
  5
A
330
0
100
AcDbDictionary
281
1
  3
ACAD_COLOR
350
B
  3
ACAD_GROUP
350
C
  3
ACAD_LAYOUT
350
D
  3
ACAD_MATERIAL
350
E
  3
ACAD_MLEADERSTYLE
350
F
  3
ACAD_MLINESTYLE
350
10
  3
ACAD_PLOTSETTINGS
350
11
  3
ACAD_PLOTSTYLENAME
350
12
  3
ACAD_SCALELIST
350
14
  3
ACAD_TABLESTYLE
350
15
  3
ACAD_VISUALSTYLE
350
16
  3
EZDXF_META
350
2D
  0
DICTIONARY
  5
B
330
A
100
AcDbDictionary
281
1
  0
DICTIONARY
  5
C
330
A
100
AcDbDictionary
281
1
  0
DICTIONARY
  5
D
330
A
100
AcDbDictionary
281
1
  3
Model
350
1A
  3
Layout1
350
1E
  0
DICTIONARY
  5
E
330
A
100
AcDbDictionary
281
1
  3
ByBlock
350
1F
  3
ByLayer
350
20
  3
Global
350
21
  0
DICTIONARY
  5
F
330
A
100
AcDbDictionary
281
1
  3
Standard
350
2C
  0
DICTIONARY
  5
10
330
A
100
AcDbDictionary
281
1
  3
Standard
350
22
  0
DICTIONARY
  5
11
330
A
100
AcDbDictionary
281
1
  0
ACDBDICTIONARYWDFLT
  5
12
330
A
100
AcDbDictionary
281
1
  3
Normal
350
13
100
AcDbDictionaryWithDefault
340
13
  0
ACDBPLACEHOLDER
  5
13
330
12
  0
DICTIONARY
  5
14
330
A
100
AcDbDictionary
281
1
  0
DICTIONARY
  5
15
330
A
100
AcDbDictionary
281
1
  0
DICTIONARY
  5
16
330
A
100
AcDbDictionary
281
1
  0
LAYOUT
  5
1A
330
D
100
AcDbPlotSettings
  1

  4
A3
  6

 40
7.5
 41
20.0
 42
7.5
 43
20.0
 44
420.0
 45
297.0
 46
0.0
 47
0.0
 48
0.0
 49
0.0
140
0.0
141
0.0
142
1.0
143
1.0
 70
1024
 72
1
 73
0
 74
5
  7

 75
16
 76
0
 77
2
 78
300
147
1.0
148
0.0
149
0.0
100
AcDbLayout
  1
Model
 70
1
 71
0
 10
0.0
 20
0.0
 11
420.0
 21
297.0
 12
0.0
 22
0.0
 32
0.0
 14
1e+20
 24
1e+20
 34
1e+20
 15
-1e+20
 25
-1e+20
 35
-1e+20
146
0.0
 13
0.0
 23
0.0
 33
0.0
 16
1.0
 26
0.0
 36
0.0
 17
0.0
 27
1.0
 37
0.0
 76
1
330
17
  0
LAYOUT
  5
1E
330
D
100
AcDbPlotSettings
  1

  4
A3
  6

 40
7.5
 41
20.0
 42
7.5
 43
20.0
 44
420.0
 45
297.0
 46
0.0
 47
0.0
 48
0.0
 49
0.0
140
0.0
141
0.0
142
1.0
143
1.0
 70
0
 72
1
 73
0
 74
5
  7

 75
16
 76
0
 77
2
 78
300
147
1.0
148
0.0
149
0.0
100
AcDbLayout
  1
Layout1
 70
1
 71
1
 10
0.0
 20
0.0
 11
420.0
 21
297.0
 12
0.0
 22
0.0
 32
0.0
 14
1e+20
 24
1e+20
 34
1e+20
 15
-1e+20
 25
-1e+20
 35
-1e+20
146
0.0
 13
0.0
 23
0.0
 33
0.0
 16
1.0
 26
0.0
 36
0.0
 17
0.0
 27
1.0
 37
0.0
 76
1
330
1B
  0
MATERIAL
  5
1F
102
{ACAD_REACTORS
330
E
102
}
330
E
100
AcDbMaterial
  1
ByBlock
  2

 70
0
 40
1.0
 71
1
 41
1.0
 91
-1023410177
 42
1.0
 72
1
  3

 73
1
 74
1
 75
1
 44
0.5
 73
0
 45
1.0
 46
1.0
 77
1
  4

 78
1
 79
1
170
1
 48
1.0
171
1
  6

172
1
173
1
174
1
140
1.0
141
1.0
175
1
  7

176
1
177
1
178
1
143
1.0
179
1
  8

270
1
271
1
272
1
145
1.0
146
1.0
273
1
  9

274
1
275
1
276
1
 42
1.0
 72
1
  3

 73
1
 74
1
 75
1
 94
63
  0
MATERIAL
  5
20
102
{ACAD_REACTORS
330
E
102
}
330
E
100
AcDbMaterial
  1
ByLayer
  2

 70
0
 40
1.0
 71
1
 41
1.0
 91
-1023410177
 42
1.0
 72
1
  3

 73
1
 74
1
 75
1
 44
0.5
 73
0
 45
1.0
 46
1.0
 77
1
  4

 78
1
 79
1
170
1
 48
1.0
171
1
  6

172
1
173
1
174
1
140
1.0
141
1.0
175
1
  7

176
1
177
1
178
1
143
1.0
179
1
  8

270
1
271
1
272
1
145
1.0
146
1.0
273
1
  9

274
1
275
1
276
1
 42
1.0
 72
1
  3

 73
1
 74
1
 75
1
 94
63
  0
MATERIAL
  5
21
102
{ACAD_REACTORS
330
E
102
}
330
E
100
AcDbMaterial
  1
Global
  2

 70
0
 40
1.0
 71
1
 41
1.0
 91
-1023410177
 42
1.0
 72
1
  3

 73
1
 74
1
 75
1
 44
0.5
 73
0
 45
1.0
 46
1.0
 77
1
  4

 78
1
 79
1
170
1
 48
1.0
171
1
  6

172
1
173
1
174
1
140
1.0
141
1.0
175
1
  7

176
1
177
1
178
1
143
1.0
179
1
  8

270
1
271
1
272
1
145
1.0
146
1.0
273
1
  9

274
1
275
1
276
1
 42
1.0
 72
1
  3

 73
1
 74
1
 75
1
 94
63
  0
MLINESTYLE
  5
22
102
{ACAD_REACTORS
330
10
102
}
330
10
100
AcDbMlineStyle
  2
Standard
 70
0
  3

 62
256
 51
90.0
 52
90.0
 71
2
 49
0.5
 62
256
  6
BYLAYER
 49
-0.5
 62
256
  6
BYLAYER
  0
MLEADERSTYLE
  5
2C
102
{ACAD_REACTORS
330
F
102
}
330
F
100
AcDbMLeaderStyle
179
2
170
2
171
1
172
0
 90
2
 40
0.0
 41
0.0
173
1
 91
-1056964608
 92
-2
290
1
 42
2.0
291
1
 43
8.0
  3
Standard
 44
4.0
300

342
29
174
1
175
1
176
0
178
1
 93
-1056964608
 45
4.0
292
0
297
0
 46
4.0
 94
-1056964608
 47
1.0
 49
1.0
140
1.0
294
1
141
0.0
177
0
142
1.0
295
0
296
0
143
3.75
271
0
272
9
273
9
  0
DICTIONARY
  5
2D
330
A
100
AcDbDictionary
280
1
281
1
  3
CREATED_BY_EZDXF
350
2E
  3
WRITTEN_BY_EZDXF
350
D2
  0
DICTIONARYVAR
  5
2E
330
2D
100
DictionaryVariables
280
0
  1
1.4.4 @ 2026-10-03T15:55:13.357997+00:00
  0
DICTIONARYVAR
  5
D2
330
2D
100
DictionaryVariables
280
0
  1
1.4.4 @ 2026-10-03T15:55:13.393748+00:00
  0
ENDSEC
  0
EOF
