  0
SECTION
  2
HEADER
  9
$ACADVER
  1
AC1027
  9
$ACADMAINTVER
 70
105
  9
$DWGCODEPAGE
  3
ANSI_1252
  9
$LASTSAVEDBY
  1
ezdxf
  9
$REQUIREDVERSIONS
160
0
  9
$INSBASE
 10
0.0
 20
0.0
 30
0.0
  9
$EXTMIN
 10
1e+20
 20
1e+20
 30
1e+20
  9
$EXTMAX
 10
-1e+20
 20
-1e+20
 30
-1e+20
  9
$LIMMIN
 10
0.0
 20
0.0
  9
$LIMMAX
 10
420.0
 20
297.0
  9
$ORTHOMODE
 70
0
  9
$REGENMODE
 70
1
  9
$FILLMODE
 70
1
  9
$QTEXTMODE
 70
0
  9
$MIRRTEXT
 70
1
  9
$LTSCALE
 40
1.0
  9
$ATTMODE
 70
1
  9
$TEXTSIZE
 40
2.5
  9
$TRACEWID
 40
1.0
  9
$TEXTSTYLE
  7
Standard
  9
$CLAYER
  8
0
  9
$CELTYPE
  6
ByLayer
  9
$CECOLOR
 62
256
  9
$CELTSCALE
 40
1.0
  9
$DISPSILH
 70
0
  9
$DIMSCALE
 40
1.0
  9
$DIMASZ
 40
2.5
  9
$DIMEXO
 40
0.625
  9
$DIMDLI
 40
3.75
  9
$DIMRND
 40
0.0
  9
$DIMDLE
 40
0.0
  9
$DIMEXE
 40
1.25
  9
$DIMTP
 40
0.0
  9
$DIMTM
 40
0.0
  9
$DIMTXT
 40
2.5
  9
$DIMCEN
 40
2.5
  9
$DIMTSZ
 40
0.0
  9
$DIMTOL
 70
0
  9
$DIMLIM
 70
0
  9
$DIMTIH
 70
0
  9
$DIMTOH
 70
0
  9
$DIMSE1
 70
0
  9
$DIMSE2
 70
0
  9
$DIMTAD
 70
1
  9
$DIMZIN
 70
8
  9
$DIMBLK
  1

  9
$DIMASO
 70
1
  9
$DIMSHO
 70
1
  9
$DIMPOST
  1

  9
$DIMAPOST
  1

  9
$DIMALT
 70
0
  9
$DIMALTD
 70
3
  9
$DIMALTF
 40
0.03937007874
  9
$DIMLFAC
 40
1.0
  9
$DIMTOFL
 70
1
  9
$DIMTVP
 40
0.0
  9
$DIMTIX
 70
0
  9
$DIMSOXD
 70
0
  9
$DIMSAH
 70
0
  9
$DIMBLK1
  1

  9
$DIMBLK2
  1

  9
$DIMSTYLE
  2
ISO-25
  9
$DIMCLRD
 70
0
  9
$DIMCLRE
 70
0
  9
$DIMCLRT
 70
0
  9
$DIMTFAC
 40
1.0
  9
$DIMGAP
 40
0.625
  9
$DIMJUST
 70
0
  9
$DIMSD1
 70
0
  9
$DIMSD2
 70
0
  9
$DIMTOLJ
 70
0
  9
$DIMTZIN
 70
8
  9
$DIMALTZ
 70
0
  9
$DIMALTTZ
 70
0
  9
$DIMUPT
 70
0
  9
$DIMDEC
 70
2
  9
$DIMTDEC
 70
2
  9
$DIMALTU
 70
2
  9
$DIMALTTD
 70
3
  9
$DIMTXSTY
  7
Standard
  9
$DIMAUNIT
 70
0
  9
$DIMADEC
 70
0
  9
$DIMALTRND
 40
0.0
  9
$DIMAZIN
 70
0
  9
$DIMDSEP
 70
44
  9
$DIMATFIT
 70
3
  9
$DIMFRAC
 70
0
  9
$DIMLDRBLK
  1

  9
$DIMLUNIT
 70
2
  9
$DIMLWD
 70
-2
  9
$DIMLWE
 70
-2
  9
$DIMTMOVE
 70
0
  9
$DIMFXL
 40
1.0
  9
$DIMFXLON
 70
0
  9
$DIMJOGANG
 40
0.785398163397
  9
$DIMTFILL
 70
0
  9
$DIMTFILLCLR
 70
0
  9
$DIMARCSYM
 70
0
  9
$DIMLTYPE
  6

  9
$DIMLTEX1
  6

  9
$DIMLTEX2
  6

  9
$DIMTXTDIRECTION
 70
0
  9
$LUNITS
 70
2
  9
$LUPREC
 70
4
  9
$SKETCHINC
 40
1.0
  9
$FILLETRAD
 40
10.0
  9
$AUNITS
 70
0
  9
$AUPREC
 70
2
  9
$MENU
  1
.
  9
$ELEVATION
 40
0.0
  9
$PELEVATION
 40
0.0
  9
$THICKNESS
 40
0.0
  9
$LIMCHECK
 70
0
  9
$CHAMFERA
 40
0.0
  9
$CHAMFERB
 40
0.0
  9
$CHAMFERC
 40
0.0
  9
$CHAMFERD
 40
0.0
  9
$SKPOLY
 70
0
  9
$TDCREATE
 40
2461316.7748611113
  9
$TDUCREATE
 40
2458532.153996898
  9
$TDUPDATE
 40
2461316.7748611113
  9
$TDUUPDATE
 40
2458532.1544311
  9
$TDINDWG
 40
0.0
  9
$TDUSRTIMER
 40
0.0
  9
$USRTIMER
 70
1
  9
$ANGBASE
 50
0.0
  9
$ANGDIR
 70
0
  9
$PDMODE
 70
0
  9
$PDSIZE
 40
0.0
  9
$PLINEWID
 40
0.0
  9
$SPLFRAME
 70
0
  9
$SPLINETYPE
 70
6
  9
$SPLINESEGS
 70
8
  9
$HANDSEED
  5
9D
  9
$SURFTAB1
 70
6
  9
$SURFTAB2
 70
6
  9
$SURFTYPE
 70
6
  9
$SURFU
 70
6
  9
$SURFV
 70
6
  9
$UCSBASE
  2

  9
$UCSNAME
  2

  9
$UCSORG
 10
0.0
 20
0.0
 30
0.0
  9
$UCSXDIR
 10
1.0
 20
0.0
 30
0.0
  9
$UCSYDIR
 10
0.0
 20
1.0
 30
0.0
  9
$UCSORTHOREF
  2

  9
$UCSORTHOVIEW
 70
0
  9
$UCSORGTOP
 10
0.0
 20
0.0
 30
0.0
  9
$UCSORGBOTTOM
 10
0.0
 20
0.0
 30
0.0
  9
$UCSORGLEFT
 10
0.0
 20
0.0
 30
0.0
  9
$UCSORGRIGHT
 10
0.0
 20
0.0
 30
0.0
  9
$UCSORGFRONT
 10
0.0
 20
0.0
 30
0.0
  9
$UCSORGBACK
 10
0.0
 20
0.0
 30
0.0
  9
$PUCSBASE
  2

  9
$PUCSNAME
  2

  9
$PUCSORG
 10
0.0
 20
0.0
 30
0.0
  9
$PUCSXDIR
 10
1.0
 20
0.0
 30
0.0
  9
$PUCSYDIR
 10
0.0
 20
1.0
 30
0.0
  9
$PUCSORTHOREF
  2

  9
$PUCSORTHOVIEW
 70
0
  9
$PUCSORGTOP
 10
0.0
 20
0.0
 30
0.0
  9
$PUCSORGBOTTOM
 10
0.0
 20
0.0
 30
0.0
  9
$PUCSORGLEFT
 10
0.0
 20
0.0
 30
0.0
  9
$PUCSORGRIGHT
 10
0.0
 20
0.0
 30
0.0
  9
$PUCSORGFRONT
 10
0.0
 20
0.0
 30
0.0
  9
$PUCSORGBACK
 10
0.0
 20
0.0
 30
0.0
  9
$USERI1
 70
0
  9
$USERI2
 70
0
  9
$USERI3
 70
0
  9
$USERI4
 70
0
  9
$USERI5
 70
0
  9
$USERR1
 40
0.0
  9
$USERR2
 40
0.0
  9
$USERR3
 40
0.0
  9
$USERR4
 40
0.0
  9
$USERR5
 40
0.0
  9
$WORLDVIEW
 70
1
  9
$SHADEDGE
 70
3
  9
$SHADEDIF
 70
70
  9
$TILEMODE
 70
1
  9
$MAXACTVP
 70
64
  9
$PINSBASE
 10
0.0
 20
0.0
 30
0.0
  9
$PLIMCHECK
 70
0
  9
$PEXTMIN
 10
1e+20
 20
1e+20
 30
1e+20
  9
$PEXTMAX
 10
-1e+20
 20
-1e+20
 30
-1e+20
  9
$PLIMMIN
 10
0.0
 20
0.0
  9
$PLIMMAX
 10
420.0
 20
297.0
  9
$UNITMODE
 70
0
  9
$VISRETAIN
 70
1
  9
$PLINEGEN
 70
0
  9
$PSLTSCALE
 70
1
  9
$TREEDEPTH
 70
3020
  9
$CMLSTYLE
  2
Standard
  9
$CMLJUST
 70
0
  9
$CMLSCALE
 40
20.0
  9
$PROXYGRAPHICS
 70
1
  9
$MEASUREMENT
 70
1
  9
$CELWEIGHT
370
-1
  9
$ENDCAPS
280
0
  9
$JOINSTYLE
280
0
  9
$LWDISPLAY
290
0
  9
$INSUNITS
 70
4
  9
$HYPERLINKBASE
  1

  9
$STYLESHEET
  1

  9
$XEDIT
290
1
  9
$CEPSNTYPE
380
0
  9
$PSTYLEMODE
290
1
  9
$FINGERPRINTGUID
  2
{14EA2AF0-99EC-4EB5-912A-07F5966E6C64}
  9
$VERSIONGUID
  2
{3CA9CA8F-01FC-4EB2-90AE-0075CEC7B281}
  9
$EXTNAMES
290
1
  9
$PSVPSCALE
 40
0.0
  9
$OLESTARTUP
290
0
  9
$SORTENTS
280
127
  9
$INDEXCTL
280
0
  9
$HIDETEXT
280
1
  9
$XCLIPFRAME
280
1
  9
$HALOGAP
280
0
  9
$OBSCOLOR
 70
257
  9
$OBSLTYPE
280
0
  9
$INTERSECTIONDISPLAY
280
0
  9
$INTERSECTIONCOLOR
 70
257
  9
$DIMASSOC
280
2
  9
$PROJECTNAME
  1

  9
$CAMERADISPLAY
290
0
  9
$LENSLENGTH
 40
50.0
  9
$CAMERAHEIGHT
 40
0.0
  9
$STEPSPERSEC
 40
24.0
  9
$STEPSIZE
 40
100.0
  9
$3DDWFPREC
 40
2.0
  9
$PSOLWIDTH
 40
0.005
  9
$PSOLHEIGHT
 40
0.08
  9
$LOFTANG1
 40
1.570796326795
  9
$LOFTANG2
 40
1.570796326795
  9
$LOFTMAG1
 40
0.0
  9
$LOFTMAG2
 40
0.0
  9
$LOFTPARAM
 70
7
  9
$LOFTNORMALS
280
1
  9
$LATITUDE
 40
37.795
  9
$LONGITUDE
 40
-122.394
  9
$NORTHDIRECTION
 40
0.0
  9
$TIMEZONE
 70
-8000
  9
$LIGHTGLYPHDISPLAY
280
1
  9
$TILEMODELIGHTSYNCH
280
1
  9
$CMATERIAL
347
20
  9
$SOLIDHIST
280
0
  9
$SHOWHIST
280
1
  9
$DWFFRAME
280
2
  9
$DGNFRAME
280
2
  9
$REALWORLDSCALE
290
1
  9
$INTERFERECOLOR
 62
256
  9
$CSHADOW
280
0
  9
$SHADOWPLANELOCATION
 40
0.0
  0
ENDSEC
  0
SECTION
  2
CLASSES
  0
CLASS
  1
ACDBDICTIONARYWDFLT
  2
AcDbDictionaryWithDefault
  3
ObjectDBX Classes
 90
0
 91
0
280
0
281
0
  0
CLASS
  1
SUN
  2
AcDbSun
  3
SCENEOE
 90
1153
 91
0
280
0
281
0
  0
CLASS
  1
VISUALSTYLE
  2
AcDbVisualStyle
  3
ObjectDBX Classes
 90
4095
 91
0
280
0
281
0
  0
CLASS
  1
MATERIAL
  2
AcDbMaterial
  3
ObjectDBX Classes
 90
1153
 91
0
280
0
281
0
  0
CLASS
  1
SCALE
  2
AcDbScale
  3
ObjectDBX Classes
 90
1153
 91
0
280
0
281
0
  0
CLASS
  1
TABLESTYLE
  2
AcDbTableStyle
  3
ObjectDBX Classes
 90
4095
 91
0
280
0
281
0
  0
CLASS
  1
MLEADERSTYLE
  2
AcDbMLeaderStyle
  3
ACDB_MLEADERSTYLE_CLASS
 90
4095
 91
0
280
0
281
0
  0
CLASS
  1
DICTIONARYVAR
  2
AcDbDictionaryVar
  3
ObjectDBX Classes
 90
0
 91
0
280
0
281
0
  0
CLASS
  1
CELLSTYLEMAP
  2
AcDbCellStyleMap
  3
ObjectDBX Classes
 90
1152
 91
0
280
0
281
0
  0
CLASS
  1
MENTALRAYRENDERSETTINGS
  2
AcDbMentalRayRenderSettings
  3
SCENEOE
 90
1024
 91
0
280
0
281
0
  0
CLASS
  1
ACDBDETAILVIEWSTYLE
  2
AcDbDetailViewStyle
  3
ObjectDBX Classes
 90
1025
 91
0
280
0
281
0
  0
CLASS
  1
ACDBSECTIONVIEWSTYLE
  2
AcDbSectionViewStyle
  3
ObjectDBX Classes
 90
1025
 91
0
280
0
281
0
  0
CLASS
  1
RASTERVARIABLES
  2
AcDbRasterVariables
  3
ISM
 90
0
 91
0
280
0
281
0
  0
CLASS
  1
LAYOUT
  2
AcDbLayout
  3
ObjectDBX Classes
 90
0
 91
0
280
0
281
0
  0
CLASS
  1
ACDBPLACEHOLDER
  2
AcDbPlaceHolder
  3
ObjectDBX Classes
 90
0
 91
0
280
0
281
0
  0
ENDSEC
  0
SECTION
  2
TABLES
  0
TABLE
  2
VPORT
  5
8
330
0
100
AcDbSymbolTable
 70
1
  0
VPORT
  5
99
330
8
100
AcDbSymbolTableRecord
100
AcDbViewportTableRecord
  2
*Active
 70
0
 10
0.0
 20
0.0
 11
1.0
 21
1.0
 12
2.842170943040401e-14
 22
-2.312338878763029
 13
0.0
 23
0.0
 14
0.5
 24
0.5
 15
0.5
 25
0.5
 16
0.0
 26
0.0
 36
1.0
 17
0.0
 27
0.0
 37
0.0
 40
86.7850620178477
 41
1.34
 42
50.0
 43
0.0
 44
0.0
 50
0.0
 51
0.0
 71
0
 72
1000
 73
1
 74
3
 75
0
 76
0
 77
0
 78
0
281
0
 65
1
110
0.0
120
0.0
130
0.0
111
1.0
121
0.0
131
0.0
112
0.0
122
1.0
132
0.0
 79
0
146
0.0
  0
ENDTAB
  0
TABLE
  2
LTYPE
  5
2
330
0
100
AcDbSymbolTable
 70
3
  0
LTYPE
  5
24
330
2
100
AcDbSymbolTableRecord
100
AcDbLinetypeTableRecord
  2
ByBlock
 70
0
  3

 72
65
 73
0
 40
0.0
  0
LTYPE
  5
25
330
2
100
AcDbSymbolTableRecord
100
AcDbLinetypeTableRecord
  2
ByLayer
 70
0
  3

 72
65
 73
0
 40
0.0
  0
LTYPE
  5
26
330
2
100
AcDbSymbolTableRecord
100
AcDbLinetypeTableRecord
  2
Continuous
 70
0
  3

 72
65
 73
0
 40
0.0
  0
ENDTAB
  0
TABLE
  2
LAYER
  5
1
330
0
100
AcDbSymbolTable
 70
3
  0
LAYER
  5
27
330
1
100
AcDbSymbolTableRecord
100
AcDbLayerTableRecord
  2
0
 70
0
 62
7
  6
Continuous
370
-3
390
13
347
21
  0
LAYER
  5
28
330
1
100
AcDbSymbolTableRecord
100
AcDbLayerTableRecord
  2
Defpoints
 70
0
 62
7
  6
Continuous
290
0
370
-3
390
13
347
21
  0
LAYER
  5
2F
330
1
100
AcDbSymbolTableRecord
100
AcDbLayerTableRecord
  2
visible
 70
0
 62
7
  6
Continuous
370
-3
390
13
347
21
  0
ENDTAB
  0
TABLE
  2
STYLE
  5
5
330
0
100
AcDbSymbolTable
 70
1
  0
STYLE
  5
29
330
5
100
AcDbSymbolTableRecord
100
AcDbTextStyleTableRecord
  2
Standard
 70
0
 40
0.0
 41
1.0
 50
0.0
 71
0
 42
2.5
  3
txt
  4

  0
ENDTAB
  0
TABLE
  2
VIEW
  5
7
330
0
100
AcDbSymbolTable
 70
0
  0
ENDTAB
  0
TABLE
  2
UCS
  5
6
330
0
100
AcDbSymbolTable
 70
0
  0
ENDTAB
  0
TABLE
  2
APPID
  5
3
330
0
100
AcDbSymbolTable
 70
3
  0
APPID
  5
2A
330
3
100
AcDbSymbolTableRecord
100
AcDbRegAppTableRecord
  2
ACAD
 70
0
  0
APPID
  5
9A
330
3
100
AcDbSymbolTableRecord
100
AcDbRegAppTableRecord
  2
HATCHBACKGROUNDCOLOR
 70
0
  0
APPID
  5
9B
330
3
100
AcDbSymbolTableRecord
100
AcDbRegAppTableRecord
  2
EZDXF
 70
0
  0
ENDTAB
  0
TABLE
  2
DIMSTYLE
  5
4
330
0
100
AcDbSymbolTable
 70
1
100
AcDbDimStyleTable
  0
DIMSTYLE
105
2B
330
4
100
AcDbSymbolTableRecord
100
AcDbDimStyleTableRecord
  2
Standard
 70
0
 40
1.0
 41
2.5
 42
0.625
 43
3.75
 44
1.25
 45
0.0
 46
0.0
 47
0.0
 48
0.0
 49
2.5
140
2.5
141
2.5
142
0.0
143
0.03937007874
144
1.0
145
0.0
146
1.0
147
0.625
148
0.0
 69
0
 70
0
 71
0
 72
0
 73
0
 74
0
 75
0
 76
0
 77
1
 78
8
 79
3
170
0
171
3
172
1
173
0
174
0
175
0
176
0
177
0
178
0
179
2
271
2
272
2
273
2
274
3
275
0
276
0
277
2
278
44
279
0
280
0
281
0
282
0
283
0
284
8
285
0
286
0
288
0
289
3
290
0
371
-2
372
-2
  0
ENDTAB
  0
TABLE
  2
BLOCK_RECORD
  5
9
330
0
100
AcDbSymbolTable
 70
2
  0
BLOCK_RECORD
  5
17
330
9
100
AcDbSymbolTableRecord
100
AcDbBlockTableRecord
  2
*Model_Space
340
1A
 70
0
280
1
281
0
  0
BLOCK_RECORD
  5
1B
330
9
100
AcDbSymbolTableRecord
100
AcDbBlockTableRecord
  2
*Paper_Space
340
1E
 70
0
280
1
281
0
  0
ENDTAB
  0
ENDSEC
  0
SECTION
  2
BLOCKS
  0
BLOCK
  5
18
330
17
100
AcDbEntity
  8
0
100
AcDbBlockBegin
  2
*Model_Space
 70
0
 10
0.0
 20
0.0
 30
0.0
  3
*Model_Space
  1

  0
ENDBLK
  5
19
330
17
100
AcDbEntity
  8
0
100
AcDbBlockEnd
  0
BLOCK
  5
1C
330
1B
100
AcDbEntity
  8
0
100
AcDbBlockBegin
  2
*Paper_Space
 70
0
 10
0.0
 20
0.0
 30
0.0
  3
*Paper_Space
  1

  0
ENDBLK
  5
1D
330
1B
100
AcDbEntity
  8
0
100
AcDbBlockEnd
  0
ENDSEC
  0
SECTION
  2
ENTITIES
  0
ELLIPSE
  5
30
330
17
100
AcDbEntity
  8
visible
100
AcDbEllipse
 10
2.842170943040401e-14
 20
-4.2752606199629355
 30
0.0
 11
15.8
 21
0.0
 31
0.0
 40
0.43577656968422895
 41
0.6698130331668745
 42
2.4717796204229185
  0
ELLIPSE
  5
31
330
17
100
AcDbEntity
  8
visible
100
AcDbEllipse
 10
-77.49999999999996
 20
-1.7644825368339951
 30
0.0
 11
3.2
 21
0.0
 31
0.0
 40
0.43577656968422895
 41
5.639684198386301
 42
6.283185307179586
  0
ELLIPSE
  5
32
330
17
100
AcDbEntity
  8
visible
100
AcDbEllipse
 10
-77.49999999999996
 20
-1.7644825368339951
 30
0.0
 11
3.2
 21
0.0
 31
0.0
 40
0.43577656968422895
 41
0.0
 42
3.141592653589793
  0
ELLIPSE
  5
33
330
17
100
AcDbEntity
  8
visible
100
AcDbEllipse
 10
-77.49999999999996
 20
-1.7644825368339951
 30
0.0
 11
3.2
 21
0.0
 31
0.0
 40
0.43577656968422895
 41
3.141592653589793
 42
5.639684198386301
  0
ELLIPSE
  5
34
330
17
100
AcDbEntity
  8
visible
100
AcDbEllipse
 10
19.300000000000022
 20
-33.40186149590902
 30
0.0
 11
3.2
 21
0.0
 31
0.0
 40
0.43577656968422895
 41
5.639684198386301
 42
6.283185307179586
  0
ELLIPSE
  5
35
330
17
100
AcDbEntity
  8
visible
100
AcDbEllipse
 10
19.300000000000022
 20
-33.40186149590902
 30
0.0
 11
3.2
 21
0.0
 31
0.0
 40
0.43577656968422895
 41
0.0
 42
3.141592653589793
  0
ELLIPSE
  5
36
330
17
100
AcDbEntity
  8
visible
100
AcDbEllipse
 10
19.300000000000022
 20
-33.40186149590902
 30
0.0
 11
3.2
 21
0.0
 31
0.0
 40
0.43577656968422895
 41
3.141592653589793
 42
5.639684198386301
  0
LINE
  5
37
330
17
100
AcDbEntity
  8
visible
100
AcDbLine
 10
6.700000000000024
 20
-14.576313685550334
 30
0.0
 11
-0.4999999999999716
 21
-12.223120209255496
 31
0.0
  0
LINE
  5
38
330
17
100
AcDbEntity
  8
visible
100
AcDbLine
 10
6.700000000000024
 20
-14.576313685550325
 30
0.0
 11
9.700000000000024
 21
-12.83320740681341
 31
0.0
  0
LINE
  5
39
330
17
100
AcDbEntity
  8
visible
100
AcDbLine
 10
9.700000000000024
 20
-12.833207406813417
 30
0.0
 11
2.5000000000000284
 21
-10.480013930518579
 31
0.0
  0
LINE
  5
3A
330
17
100
AcDbEntity
  8
visible
100
AcDbLine
 10
-0.49999999999997335
 20
-12.223120209255491
 30
0.0
 11
2.5000000000000266
 21
-10.480013930518576
 31
0.0
  0
ELLIPSE
  5
3B
330
17
100
AcDbEntity
  8
visible
100
AcDbEllipse
 10
-19.299999999999965
 20
32.051779270662166
 30
0.0
 11
3.2
 21
0.0
 31
0.0
 40
0.43577656968422895
 41
5.639684198386301
 42
6.283185307179586
  0
ELLIPSE
  5
3C
330
17
100
AcDbEntity
  8
visible
100
AcDbEllipse
 10
-19.299999999999965
 20
32.051779270662166
 30
0.0
 11
3.2
 21
0.0
 31
0.0
 40
0.43577656968422895
 41
0.0
 42
3.141592653589793
  0
ELLIPSE
  5
3D
330
17
100
AcDbEntity
  8
visible
100
AcDbEllipse
 10
-19.299999999999965
 20
32.051779270662166
 30
0.0
 11
3.2
 21
0.0
 31
0.0
 40
0.43577656968422895
 41
3.141592653589793
 42
5.639684198386301
  0
ELLIPSE
  5
3E
330
17
100
AcDbEntity
  8
visible
100
AcDbEllipse
 10
2.842170943040401e-14
 20
-0.6750411126234255
 30
0.0
 11
22.5
 21
0.0
 31
0.0
 40
0.43577656968422895
 41
5.639684198386301
 42
6.283185307179586
  0
ELLIPSE
  5
3F
330
17
100
AcDbEntity
  8
visible
100
AcDbEllipse
 10
2.842170943040401e-14
 20
-0.6750411126234255
 30
0.0
 11
22.5
 21
0.0
 31
0.0
 40
0.43577656968422895
 41
3.141592653589793
 42
5.639684198386301
  0
ELLIPSE
  5
40
330
17
100
AcDbEntity
  8
visible
100
AcDbEllipse
 10
77.50000000000001
 20
0.4144003115871442
 30
0.0
 11
3.2
 21
0.0
 31
0.0
 40
0.43577656968422895
 41
5.639684198386301
 42
6.283185307179586
  0
ELLIPSE
  5
41
330
17
100
AcDbEntity
  8
visible
100
AcDbEllipse
 10
77.50000000000001
 20
0.4144003115871442
 30
0.0
 11
3.2
 21
0.0
 31
0.0
 40
0.43577656968422895
 41
0.0
 42
3.141592653589793
  0
ELLIPSE
  5
42
330
17
100
AcDbEntity
  8
visible
100
AcDbEllipse
 10
77.50000000000001
 20
0.4144003115871442
 30
0.0
 11
3.2
 21
0.0
 31
0.0
 40
0.43577656968422895
 41
3.141592653589793
 42
5.639684198386301
  0
ELLIPSE
  5
43
330
17
100
AcDbEntity
  8
visible
100
AcDbEllipse
 10
-77.49999999999996
 20
-3.5645922905037466
 30
0.0
 11
1.65
 21
0.0
 31
0.0
 40
0.43577656968422895
 41
0.7757996216189457
 42
2.3657930319708473
  0
LINE
  5
44
330
17
100
AcDbEntity
  8
visible
100
AcDbLine
 10
16.11242864464571
 20
-40.03085865358284
 30
0.0
 11
16.11242864464571
 21
-39.902617822671154
 31
0.0
  0
SPLINE
  5
45
330
17
100
AcDbEntity
  8
visible
100
AcDbSpline
 70
0
 71
3
 72
8
 73
4
 74
0
 40
0.0
 40
0.0
 40
0.0
 40
0.0
 40
0.7108276766903721
 40
0.7108276766903721
 40
0.7108276766903721
 40
0.7108276766903721
 10
16.112428644645853
 20
-40.03085865358283
 30
0.0
 10
16.11506009574174
 20
-40.2043442319537
 30
0.0
 10
15.958933083355316
 20
-40.31134052719544
 30
0.0
 10
15.777699665870458
 20
-40.30345627533214
 30
0.0
  0
ELLIPSE
  5
46
330
17
100
AcDbEntity
  8
visible
100
AcDbEllipse
 10
19.300000000000022
 20
-35.20197124957877
 30
0.0
 11
1.65
 21
0.0
 31
0.0
 40
0.43577656968422895
 41
0.7757996216189426
 42
2.365793031970851
  0
LINE
  5
47
330
17
100
AcDbEntity
  8
visible
100
AcDbLine
 10
2.500000000000025
 20
-13.20361749104501
 30
0.0
 11
2.500000000000025
 21
-10.480013930518576
 31
0.0
  0
ELLIPSE
  5
48
330
17
100
AcDbEntity
  8
visible
100
AcDbEllipse
 10
-19.299999999999965
 20
30.251669516992422
 30
0.0
 11
1.65
 21
0.0
 31
0.0
 40
0.43577656968422895
 41
0.7757996216189292
 42
2.3657930319708638
  0
ELLIPSE
  5
49
330
17
100
AcDbEntity
  8
visible
100
AcDbEllipse
 10
2.842170943040401e-14
 20
-0.2250136742059894
 30
0.0
 11
15.8
 21
0.0
 31
0.0
 40
0.43577656968422895
 41
0.2450683454909235
 42
2.89652430809887
  0
SPLINE
  5
4A
330
17
100
AcDbEntity
  8
visible
100
AcDbSpline
 70
0
 71
3
 72
8
 73
4
 74
0
 40
0.0
 40
0.0
 40
0.0
 40
0.0
 40
0.6948284244570634
 40
0.6948284244570634
 40
0.6948284244570634
 40
0.6948284244570634
 10
23.438682466465306
 20
-39.57477154513877
 30
0.0
 10
23.436695904880718
 20
-39.744488523744074
 30
0.0
 10
23.546322764206444
 20
-39.83483305240918
 30
0.0
 10
23.666748145409006
 20
-39.81331969750576
 30
0.0
  0
LINE
  5
4B
330
17
100
AcDbEntity
  8
visible
100
AcDbLine
 10
23.438682466465444
 20
-39.57477154513876
 30
0.0
 11
23.438682466465444
 21
-39.51254493813186
 31
0.0
  0
ELLIPSE
  5
4C
330
17
100
AcDbEntity
  8
visible
100
AcDbEllipse
 10
77.50000000000001
 20
-1.3857094420826073
 30
0.0
 11
1.65
 21
0.0
 31
0.0
 40
0.43577656968422895
 41
0.7757996216189457
 42
2.3657930319708473
  0
ELLIPSE
  5
4D
330
17
100
AcDbEntity
  8
visible
100
AcDbEllipse
 10
-77.49999999999996
 20
-3.5645922905037466
 30
0.0
 11
3.2
 21
0.0
 31
0.0
 40
0.43577656968422895
 41
0.701597759409626
 42
2.4399948941801672
  0
ELLIPSE
  5
4E
330
17
100
AcDbEntity
  8
visible
100
AcDbEllipse
 10
19.300000000000022
 20
-35.20197124957877
 30
0.0
 11
3.2
 21
0.0
 31
0.0
 40
0.43577656968422895
 41
0.701597759409624
 42
2.439994894180169
  0
ELLIPSE
  5
4F
330
17
100
AcDbEntity
  8
visible
100
AcDbEllipse
 10
-19.299999999999965
 20
30.251669516992422
 30
0.0
 11
3.2
 21
0.0
 31
0.0
 40
0.43577656968422895
 41
0.7015977594096209
 42
2.439994894180172
  0
ELLIPSE
  5
50
330
17
100
AcDbEntity
  8
visible
100
AcDbEllipse
 10
2.842170943040401e-14
 20
6.0753704636381585
 30
0.0
 11
22.5
 21
0.0
 31
0.0
 40
0.43577656968422895
 41
5.639684198386301
 42
6.283185307179586
  0
ELLIPSE
  5
51
330
17
100
AcDbEntity
  8
visible
100
AcDbEllipse
 10
2.842170943040401e-14
 20
6.0753704636381585
 30
0.0
 11
22.5
 21
0.0
 31
0.0
 40
0.43577656968422895
 41
0.0
 42
3.141592653589793
  0
ELLIPSE
  5
52
330
17
100
AcDbEntity
  8
visible
100
AcDbEllipse
 10
2.842170943040401e-14
 20
6.0753704636381585
 30
0.0
 11
22.5
 21
0.0
 31
0.0
 40
0.43577656968422895
 41
3.141592653589793
 42
5.639684198386301
  0
ELLIPSE
  5
53
330
17
100
AcDbEntity
  8
visible
100
AcDbEllipse
 10
77.50000000000001
 20
-1.3857094420826073
 30
0.0
 11
3.2
 21
0.0
 31
0.0
 40
0.43577656968422895
 41
0.701597759409626
 42
2.4399948941801672
  0
ELLIPSE
  5
54
330
17
100
AcDbEntity
  8
visible
100
AcDbEllipse
 10
2.842170943040401e-14
 20
-0.2250136742059894
 30
0.0
 11
18.65
 21
0.0
 31
0.0
 40
0.435776569684229
 41
0.3980368571558667
 42
2.7435557964339266
  0
ELLIPSE
  5
55
330
17
100
AcDbEntity
  8
visible
100
AcDbEllipse
 10
-20.35281662206476
 20
7.143943622790637
 30
0.0
 11
0.9
 21
0.0
 31
0.0
 40
0.43577656968422895
 41
5.639684198386301
 42
6.283185307179586
  0
ELLIPSE
  5
56
330
17
100
AcDbEntity
  8
visible
100
AcDbEllipse
 10
-20.35281662206476
 20
7.143943622790637
 30
0.0
 11
0.9
 21
0.0
 31
0.0
 40
0.43577656968422895
 41
0.0
 42
3.141592653589793
  0
ELLIPSE
  5
57
330
17
100
AcDbEntity
  8
visible
100
AcDbEllipse
 10
-20.35281662206476
 20
7.143943622790637
 30
0.0
 11
0.9
 21
0.0
 31
0.0
 40
0.43577656968422895
 41
3.141592653589793
 42
5.639684198386301
  0
ELLIPSE
  5
58
330
17
100
AcDbEntity
  8
visible
100
AcDbEllipse
 10
8.05281662206481
 20
-2.139938438335676
 30
0.0
 11
0.9
 21
0.0
 31
0.0
 40
0.43577656968422895
 41
5.639684198386301
 42
6.283185307179586
  0
ELLIPSE
  5
59
330
17
100
AcDbEntity
  8
visible
100
AcDbEllipse
 10
8.05281662206481
 20
-2.139938438335676
 30
0.0
 11
0.9
 21
0.0
 31
0.0
 40
0.43577656968422895
 41
0.0
 42
3.141592653589793
  0
ELLIPSE
  5
5A
330
17
100
AcDbEntity
  8
visible
100
AcDbEllipse
 10
8.05281662206481
 20
-2.139938438335676
 30
0.0
 11
0.9
 21
0.0
 31
0.0
 40
0.43577656968422895
 41
3.141592653589793
 42
5.639684198386301
  0
ELLIPSE
  5
5B
330
17
100
AcDbEntity
  8
visible
100
AcDbEllipse
 10
2.842170943040401e-14
 20
6.0753704636381585
 30
0.0
 11
18.65
 21
0.0
 31
0.0
 40
0.435776569684229
 41
5.639684198386301
 42
6.283185307179586
  0
ELLIPSE
  5
5C
330
17
100
AcDbEntity
  8
visible
100
AcDbEllipse
 10
2.842170943040401e-14
 20
6.0753704636381585
 30
0.0
 11
18.65
 21
0.0
 31
0.0
 40
0.435776569684229
 41
0.0
 42
3.141592653589793
  0
ELLIPSE
  5
5D
330
17
100
AcDbEntity
  8
visible
100
AcDbEllipse
 10
2.842170943040401e-14
 20
6.0753704636381585
 30
0.0
 11
18.65
 21
0.0
 31
0.0
 40
0.435776569684229
 41
3.141592653589793
 42
5.639684198386301
  0
ELLIPSE
  5
5E
330
17
100
AcDbEntity
  8
visible
100
AcDbEllipse
 10
12.30000000000003
 20
13.222106206459515
 30
0.0
 11
0.9
 21
0.0
 31
0.0
 40
0.43577656968422895
 41
5.639684198386301
 42
6.283185307179586
  0
ELLIPSE
  5
5F
330
17
100
AcDbEntity
  8
visible
100
AcDbEllipse
 10
12.30000000000003
 20
13.222106206459515
 30
0.0
 11
0.9
 21
0.0
 31
0.0
 40
0.43577656968422895
 41
0.0
 42
3.141592653589793
  0
ELLIPSE
  5
60
330
17
100
AcDbEntity
  8
visible
100
AcDbEllipse
 10
12.30000000000003
 20
13.222106206459515
 30
0.0
 11
0.9
 21
0.0
 31
0.0
 40
0.43577656968422895
 41
3.141592653589793
 42
5.639684198386301
  0
ELLIPSE
  5
61
330
17
100
AcDbEntity
  8
visible
100
AcDbEllipse
 10
-62.79999999999997
 20
-3.7295273463687266
 30
0.0
 11
-22.0
 21
6.784282594980704e-16
 31
0.0
 40
0.4357765696842288
 41
-6.283185307179586
 42
-5.355890089177974
  0
ELLIPSE
  5
62
330
17
100
AcDbEntity
  8
visible
100
AcDbEllipse
 10
-62.79999999999997
 20
-1.5693956419650092
 30
0.0
 11
-22.0
 21
6.784282594980704e-16
 31
0.0
 40
0.4357765696842288
 41
-6.283185307179586
 42
-5.355890089177974
  0
LINE
  5
63
330
17
100
AcDbEntity
  8
visible
100
AcDbLine
 10
-75.99999999999997
 20
-11.399194972811154
 30
0.0
 11
-75.99999999999997
 21
-9.239063268407447
 31
0.0
  0
ELLIPSE
  5
64
330
17
100
AcDbEntity
  8
visible
100
AcDbEllipse
 10
-79.75999999999996
 20
3.973682324418384
 30
0.0
 11
0.4019102828595177
 21
-0.6917139036710066
 31
0.0
 40
0.720043901467902
 41
-3.8205536924686987
 42
-3.141592653589793
  0
LINE
  5
65
330
17
100
AcDbEntity
  8
visible
100
AcDbLine
 10
-79.75999999999996
 20
4.69372622588628
 30
0.0
 11
-34.15999999999996
 21
31.1889416626874
 31
0.0
  0
ELLIPSE
  5
66
330
17
100
AcDbEntity
  8
visible
100
AcDbEllipse
 10
-34.159999999999954
 20
30.468897761219495
 30
0.0
 11
0.4019102828595177
 21
-0.6917139036710066
 31
0.0
 40
0.720043901467902
 41
-3.8205536924686987
 42
-3.141592653589793
  0
ELLIPSE
  5
67
330
17
100
AcDbEntity
  8
visible
100
AcDbEllipse
 10
-75.51999999999997
 20
-11.12029796821325
 30
0.0
 11
-0.2485288086369443
 21
-0.7604166169130586
 31
0.0
 40
0.5400329261009265
 41
5.256629339487548
 42
6.283185307179586
  0
ELLIPSE
  5
68
330
17
100
AcDbEntity
  8
visible
100
AcDbEllipse
 10
-75.51999999999997
 20
-8.960166263809533
 30
0.0
 11
0.2485288086369443
 21
0.7604166169130586
 31
0.0
 40
0.5400329261009265
 41
-5.738944948076728
 42
-4.168148621281832
  0
ELLIPSE
  5
69
330
17
100
AcDbEntity
  8
visible
100
AcDbEllipse
 10
-62.79999999999997
 20
-0.8493517404971129
 30
0.0
 11
-21.2
 21
6.537581409708678e-16
 31
0.0
 40
0.43577656968422884
 41
-6.9266864159728705
 42
-5.355890089177974
  0
LINE
  5
6A
330
17
100
AcDbEntity
  8
visible
100
AcDbLine
 10
4.000000000000021
 20
-37.545789153864895
 30
0.0
 11
-75.99999999999997
 21
-11.399194972811152
 31
0.0
  0
LINE
  5
6B
330
17
100
AcDbEntity
  8
visible
100
AcDbLine
 10
4.000000000000021
 20
-35.38565744946118
 30
0.0
 11
-75.99999999999997
 21
-9.239063268407435
 31
0.0
  0
LINE
  5
6C
330
17
100
AcDbEntity
  8
visible
100
AcDbLine
 10
4.000000000000021
 20
-37.54578915386489
 30
0.0
 11
4.000000000000021
 21
-35.385657449461185
 31
0.0
  0
ELLIPSE
  5
6D
330
17
100
AcDbEntity
  8
visible
100
AcDbEllipse
 10
-17.199999999999964
 20
25.645863696304005
 30
0.0
 11
-21.2
 21
-0.0
 31
0.0
 40
0.43577656968422895
 41
-2.2142974355881813
 42
-0.6435011087932848
  0
LINE
  5
6E
330
17
100
AcDbEntity
  8
visible
100
AcDbLine
 10
4.480000000000018
 20
-34.38671654339538
 30
0.0
 11
-75.51999999999997
 21
-8.240122362341637
 31
0.0
  0
LINE
  5
6F
330
17
100
AcDbEntity
  8
visible
100
AcDbLine
 10
-4.479999999999961
 20
33.03663431814853
 30
0.0
 11
75.52000000000002
 21
6.890040137094786
 31
0.0
  0
ELLIPSE
  5
70
330
17
100
AcDbEntity
  8
visible
100
AcDbEllipse
 10
17.20000000000002
 20
-26.995945921550856
 30
0.0
 11
-21.2
 21
-0.0
 31
0.0
 40
0.43577656968422895
 41
-5.355890089177974
 42
-3.785093762383078
  0
ELLIPSE
  5
71
330
17
100
AcDbEntity
  8
visible
100
AcDbEllipse
 10
62.800000000000026
 20
-0.500730484749738
 30
0.0
 11
-21.2
 21
-0.0
 31
0.0
 40
0.43577656968422895
 41
-3.7850937623830774
 42
-2.214297435588181
  0
LINE
  5
72
330
17
100
AcDbEntity
  8
visible
100
AcDbLine
 10
79.76000000000002
 20
-6.043808451133131
 30
0.0
 11
34.16000000000002
 21
-32.53902388793425
 31
0.0
  0
ELLIPSE
  5
73
330
17
100
AcDbEntity
  8
visible
100
AcDbEllipse
 10
-4.479999999999961
 20
32.31659041668064
 30
0.0
 11
-0.2485288086369443
 21
-0.7604166169130586
 31
0.0
 40
0.5400329261009265
 41
3.1415926535897936
 42
3.685833012692651
  0
ELLIPSE
  5
74
330
17
100
AcDbEntity
  8
visible
100
AcDbEllipse
 10
4.480000000000018
 20
-37.266892149266994
 30
0.0
 11
-0.2485288086369443
 21
-0.7604166169130586
 31
0.0
 40
0.5400329261009265
 41
5.256629339487548
 42
6.283185307179586
  0
ELLIPSE
  5
75
330
17
100
AcDbEntity
  8
visible
100
AcDbEllipse
 10
4.480000000000018
 20
-35.106760444863276
 30
0.0
 11
0.2485288086369443
 21
0.7604166169130586
 31
0.0
 40
0.5400329261009265
 41
-5.738944948076728
 42
-4.168148621281832
  0
LINE
  5
76
330
17
100
AcDbEntity
  8
visible
100
AcDbLine
 10
34.80000000000001
 20
-35.62837224725428
 30
0.0
 11
34.80000000000001
 21
-33.46824054285058
 31
0.0
  0
ELLIPSE
  5
77
330
17
100
AcDbEntity
  8
visible
100
AcDbEllipse
 10
17.20000000000002
 20
-29.87612152742247
 30
0.0
 11
-22.0
 21
-0.0
 31
0.0
 40
0.43577656968422895
 41
-5.355890089177974
 42
-3.785093762383078
  0
ELLIPSE
  5
78
330
17
100
AcDbEntity
  8
visible
100
AcDbEllipse
 10
17.20000000000002
 20
-27.715989823018752
 30
0.0
 11
-22.0
 21
-0.0
 31
0.0
 40
0.43577656968422895
 41
-5.355890089177974
 42
-3.785093762383078
  0
ELLIPSE
  5
79
330
17
100
AcDbEntity
  8
visible
100
AcDbEllipse
 10
34.16000000000001
 20
-35.41919949380586
 30
0.0
 11
0.4019102828595177
 21
-0.6917139036710066
 31
0.0
 40
0.720043901467902
 41
-6.283185307179586
 42
-5.391350019263595
  0
ELLIPSE
  5
7A
330
17
100
AcDbEntity
  8
visible
100
AcDbEllipse
 10
62.800000000000026
 20
-3.3809060906213517
 30
0.0
 11
-22.0
 21
-0.0
 31
0.0
 40
0.43577656968422895
 41
-3.7850937623830774
 42
-3.141592653589793
  0
ELLIPSE
  5
7B
330
17
100
AcDbEntity
  8
visible
100
AcDbEllipse
 10
79.76000000000002
 20
-8.923984057004745
 30
0.0
 11
0.4019102828595177
 21
-0.6917139036710066
 31
0.0
 40
0.720043901467902
 41
-6.283185307179586
 42
-5.391350019263595
  0
LINE
  5
7C
330
17
100
AcDbEntity
  8
visible
100
AcDbLine
 10
80.40000000000002
 20
-9.133156810453173
 30
0.0
 11
34.80000000000002
 21
-35.62837224725429
 31
0.0
  0
ELLIPSE
  5
7D
330
17
100
AcDbEntity
  8
visible
100
AcDbEllipse
 10
75.52000000000002
 20
6.16999623562689
 30
0.0
 11
-0.2485288086369443
 21
-0.7604166169130586
 31
0.0
 40
0.5400329261009265
 41
3.1415926535897936
 42
3.685833012692651
  0
ELLIPSE
  5
7E
330
17
100
AcDbEntity
  8
visible
100
AcDbEllipse
 10
34.16000000000001
 20
-33.259067789402145
 30
0.0
 11
-0.4019102828595177
 21
0.6917139036710066
 31
0.0
 40
0.720043901467902
 41
4.033427941505784
 42
5.604224268300681
  0
ELLIPSE
  5
7F
330
17
100
AcDbEntity
  8
visible
100
AcDbEllipse
 10
62.800000000000026
 20
-1.2207743862176343
 30
0.0
 11
-22.0
 21
-0.0
 31
0.0
 40
0.43577656968422895
 41
-3.7850937623830774
 42
-3.141592653589793
  0
ELLIPSE
  5
80
330
17
100
AcDbEntity
  8
visible
100
AcDbEllipse
 10
79.76000000000002
 20
-6.7638523526010275
 30
0.0
 11
-0.4019102828595177
 21
0.6917139036710066
 31
0.0
 40
0.720043901467902
 41
4.033427941505784
 42
5.604224268300681
  0
LINE
  5
81
330
17
100
AcDbEntity
  8
visible
100
AcDbLine
 10
80.40000000000002
 20
-6.973025106049455
 30
0.0
 11
34.80000000000002
 21
-33.46824054285058
 31
0.0
  0
LINE
  5
82
330
17
100
AcDbEntity
  8
visible
100
AcDbLine
 10
80.40000000000002
 20
-9.133156810453167
 30
0.0
 11
80.40000000000002
 21
-6.973025106049461
 31
0.0
  0
ELLIPSE
  5
83
330
17
100
AcDbEntity
  8
visible
100
AcDbEllipse
 10
-73.47999999999996
 20
-12.223000200234473
 30
0.0
 11
-0.15533050539809018
 21
-0.4752603855706616
 31
0.0
 40
0.5400329261009265
 41
5.593135283669948
 42
6.283185307179586
  0
ELLIPSE
  5
84
330
17
100
AcDbEntity
  8
visible
100
AcDbEllipse
 10
17.14000000000002
 20
-31.763221584875303
 30
0.0
 11
-19.0
 21
-0.0
 31
0.0
 40
0.4357765696842289
 41
-5.224097833792335
 42
-4.766498082826117
  0
ELLIPSE
  5
85
330
17
100
AcDbEntity
  8
visible
100
AcDbEllipse
 10
6.0400000000000205
 20
-38.212714816201895
 30
0.0
 11
-0.15533050539809018
 21
-0.4752603855706616
 31
0.0
 40
0.5400329261009265
 41
5.475025312180304
 42
6.283185307179586
  0
ELLIPSE
  5
86
330
17
100
AcDbEntity
  8
visible
100
AcDbEllipse
 10
17.14000000000002
 20
-31.763221584875303
 30
0.0
 11
-19.0
 21
-0.0
 31
0.0
 40
0.4357765696842289
 41
-4.374485768734935
 42
-4.242458764510829
  0
LINE
  5
87
330
17
100
AcDbEntity
  8
visible
100
AcDbLine
 10
-84.79999999999995
 20
-3.7295273463687306
 30
0.0
 11
-84.79999999999995
 21
-1.5693956419650195
 31
0.0
  0
LINE
  5
88
330
17
100
AcDbEntity
  8
visible
100
AcDbLine
 10
-80.16191028285948
 20
4.665396228089385
 30
0.0
 11
-34.56191028285948
 21
31.160611664890506
 31
0.0
  0
SPLINE
  5
89
330
17
100
AcDbEntity
  8
visible
100
AcDbSpline
 70
0
 71
3
 72
14
 73
10
 74
0
 40
0.0
 40
0.0
 40
0.0
 40
0.0
 40
0.3772182057257054
 40
0.3772182057257054
 40
0.3772182057257054
 40
0.6594580557970102
 40
0.6594580557970102
 40
0.6594580557970102
 40
1.0
 40
1.0
 40
1.0
 40
1.0
 10
-75.76852880863692
 20
-11.880714585126299
 30
0.0
 10
-77.82390400399045
 20
-11.209114064277781
 30
0.0
 10
-79.61441841804347
 20
-10.37560596935799
 30
0.0
 10
-81.04251675071725
 20
-9.414051489919702
 30
0.0
 10
-82.11143394022591
 20
-8.694481314251025
 30
0.0
 10
-82.98012749476341
 20
-7.902982642001068
 30
0.0
 10
-83.61460965752411
 20
-7.047956281349817
 30
0.0
 10
-84.38047000376476
 20
-6.019305466837
 30
0.0
 10
-84.80174522820305
 20
-4.882554307153057
 30
0.0
 10
-84.79999999999995
 20
-3.729527346368726
 30
0.0
  0
SPLINE
  5
8A
330
17
100
AcDbEntity
  8
visible
100
AcDbSpline
 70
0
 71
3
 72
14
 73
10
 74
0
 40
0.0
 40
0.0
 40
0.0
 40
0.0
 40
0.34491635322883146
 40
0.34491635322883146
 40
0.34491635322883146
 40
0.642026413034072
 40
0.642026413034072
 40
0.642026413034072
 40
1.0
 40
1.0
 40
1.0
 40
1.0
 10
-84.79999999999995
 20
-1.5693956419650161
 30
0.0
 10
-84.80068173329396
 20
-0.7572114414549593
 30
0.0
 10
-84.59247448984652
 20
0.05134011543466244
 30
0.0
 10
-84.19925821108865
 20
0.8148630844531166
 30
0.0
 10
-83.85812287004697
 20
1.4742704112825606
 30
0.0
 10
-83.3903482644936
 20
2.0998266301449955
 30
0.0
 10
-82.79593439442864
 20
2.6915317410404196
 30
0.0
 10
-82.08297739643258
 20
3.4034797250492557
 30
0.0
 10
-81.1974151911807
 20
4.063677080862956
 30
0.0
 10
-80.16191028285945
 20
4.665396228089392
 30
0.0
  0
SPLINE
  5
8B
330
17
100
AcDbEntity
  8
visible
100
AcDbSpline
 70
0
 71
3
 72
17
 73
13
 74
0
 40
0.0
 40
0.0
 40
0.0
 40
0.0
 40
0.18595269436765297
 40
0.18595269436765297
 40
0.18595269436765297
 40
0.44099460460352935
 40
0.44099460460352935
 40
0.44099460460352935
 40
0.7987487458931688
 40
0.7987487458931688
 40
0.7987487458931688
 40
1.0
 40
1.0
 40
1.0
 40
1.0
 10
-34.56191028285948
 20
31.160611664890496
 30
0.0
 10
-33.27066306127838
 20
31.91102879590988
 30
0.0
 10
-31.744619596403332
 20
32.570092989744595
 30
0.0
 10
-30.04103102093348
 20
33.118365993950384
 30
0.0
 10
-27.70585496101285
 20
33.87078171382054
 30
0.0
 10
-25.035242468925347
 20
34.41223350244327
 30
0.0
 10
-22.229182659878873
 20
34.70500562155795
 30
0.0
 10
-18.294125617594624
 20
35.119026868721186
 30
0.0
 10
-14.099742282114292
 20
35.03506470692433
 30
0.0
 10
-10.2656649761689
 20
34.46498254723228
 30
0.0
 10
-8.10812932802751
 20
34.14591784560216
 30
0.0
 10
-6.064923296043222
 20
33.6765244509883
 30
0.0
 10
-4.231471191363028
 20
33.077007033593674
 30
0.0
  0
LINE
  5
8C
330
17
100
AcDbEntity
  8
visible
100
AcDbLine
 10
4.231471191363077
 20
-38.02730876618004
 30
0.0
 11
-75.76852880863692
 21
-11.880714585126299
 31
0.0
  0
SPLINE
  5
8D
330
17
100
AcDbEntity
  8
visible
100
AcDbSpline
 70
0
 71
3
 72
17
 73
13
 74
0
 40
0.0
 40
0.0
 40
0.0
 40
0.0
 40
0.1859526943676265
 40
0.1859526943676265
 40
0.1859526943676265
 40
0.440994604603483
 40
0.440994604603483
 40
0.440994604603483
 40
0.7987487458931475
 40
0.7987487458931475
 40
0.7987487458931475
 40
1.0
 40
1.0
 40
1.0
 40
1.0
 10
34.56191028285952
 20
-36.11091339747687
 30
0.0
 10
33.2706630612785
 20
-36.861330528496225
 30
0.0
 10
31.74461959640334
 20
-37.52039472233094
 30
0.0
 10
30.04103102093356
 20
-38.06866772653677
 30
0.0
 10
27.7058549610129
 20
-38.82108344640688
 30
0.0
 10
25.0352424689254
 20
-39.36253523502962
 30
0.0
 10
22.22918265987893
 20
-39.65530735414431
 30
0.0
 10
18.294125617594215
 20
-40.06932860130763
 30
0.0
 10
14.099742282114102
 20
-39.98536643951062
 30
0.0
 10
10.265664976168951
 20
-39.415284279818664
 30
0.0
 10
8.108129328027514
 20
-39.096219578188496
 30
0.0
 10
6.064923296043325
 20
-38.626826183574664
 30
0.0
 10
4.2314711913630845
 20
-38.02730876618004
 30
0.0
  0
SPLINE
  5
8E
330
17
100
AcDbEntity
  8
visible
100
AcDbSpline
 70
0
 71
3
 72
14
 73
10
 74
0
 40
0.0
 40
0.0
 40
0.0
 40
0.0
 40
0.34491635322884295
 40
0.34491635322884295
 40
0.34491635322884295
 40
0.6420264130340742
 40
0.6420264130340742
 40
0.6420264130340742
 40
1.0
 40
1.0
 40
1.0
 40
1.0
 10
84.80000000000001
 20
-3.3809060906213517
 30
0.0
 10
84.80068173329394
 20
-4.193090291131394
 30
0.0
 10
84.59247448984664
 20
-5.001641848021025
 30
0.0
 10
84.19925821108872
 20
-5.765164817039489
 30
0.0
 10
83.85812287004701
 20
-6.424572143868926
 30
0.0
 10
83.39034826449362
 20
-7.050128362731346
 30
0.0
 10
82.79593439442871
 20
-7.641833473626774
 30
0.0
 10
82.08297739643258
 20
-8.353781457635606
 30
0.0
 10
81.19741519118084
 20
-9.013978813449308
 30
0.0
 10
80.16191028285954
 20
-9.615697960675746
 30
0.0
  0
LINE
  5
8F
330
17
100
AcDbEntity
  8
visible
100
AcDbLine
 10
80.16191028285954
 20
-9.615697960675746
 30
0.0
 11
34.561910282859536
 21
-36.110913397476864
 31
0.0
  0
LINE
  5
90
330
17
100
AcDbEntity
  8
visible
100
AcDbLine
 10
-4.2314711913630205
 20
33.077007033593674
 30
0.0
 11
75.76852880863697
 21
6.930412852539931
 31
0.0
  0
SPLINE
  5
91
330
17
100
AcDbEntity
  8
visible
100
AcDbSpline
 70
0
 71
3
 72
14
 73
10
 74
0
 40
0.0
 40
0.0
 40
0.0
 40
0.0
 40
0.37721820572571146
 40
0.37721820572571146
 40
0.37721820572571146
 40
0.6594580557970047
 40
0.6594580557970047
 40
0.6594580557970047
 40
1.0
 40
1.0
 40
1.0
 40
1.0
 10
75.76852880863697
 20
6.930412852539938
 30
0.0
 10
77.82390400399048
 20
6.2588123316914235
 30
0.0
 10
79.61441841804357
 20
5.425304236771625
 30
0.0
 10
81.0425167507173
 20
4.463749757333335
 30
0.0
 10
82.11143394022594
 20
3.744179581664671
 30
0.0
 10
82.9801274947635
 20
2.9526809094147017
 30
0.0
 10
83.61460965752417
 20
2.0976545487634635
 30
0.0
 10
84.38047000376467
 20
1.06900373425068
 30
0.0
 10
84.80174522820312
 20
-0.06774742543329221
 30
0.0
 10
84.80000000000001
 20
-1.2207743862176272
 30
0.0
  0
LINE
  5
92
330
17
100
AcDbEntity
  8
visible
100
AcDbLine
 10
22.50000000000002
 20
-0.6750411126234255
 30
0.0
 11
22.50000000000002
 21
6.075370463638156
 31
0.0
  0
LINE
  5
93
330
17
100
AcDbEntity
  8
visible
100
AcDbLine
 10
-22.499999999999964
 20
-0.6750411126234255
 30
0.0
 11
-22.499999999999964
 21
6.075370463638156
 31
0.0
  0
LINE
  5
94
330
17
100
AcDbEntity
  8
visible
100
AcDbLine
 10
84.80000000000001
 20
-3.3809060906213415
 30
0.0
 11
84.80000000000001
 21
-1.2207743862176303
 31
0.0
  0
SPLINE
  5
95
330
17
100
AcDbEntity
  8
visible
100
AcDbSpline
 70
0
 71
2
 72
6
 73
3
 74
0
 40
0.0
 40
0.0
 40
0.0
 40
0.26129929382006145
 40
0.26129929382006145
 40
0.26129929382006145
 10
-73.63533050539807
 20
-12.698260585805134
 30
0.0
 10
-74.79205705111532
 20
-12.320198600256216
 30
0.0
 10
-75.8081676442371
 20
-11.867729486720812
 30
0.0
  0
SPLINE
  5
96
330
17
100
AcDbEntity
  8
visible
100
AcDbSpline
 70
0
 71
3
 72
8
 73
4
 74
0
 40
0.0
 40
0.0
 40
0.0
 40
0.0
 40
1.0
 40
1.0
 40
1.0
 40
1.0
 10
15.777699669029133
 20
-40.303456279151405
 30
0.0
 10
12.221419571155979
 20
-40.192620600311955
 30
0.0
 10
8.748517373990866
 20
-39.62683075665325
 30
0.0
 10
5.884669494601929
 20
-38.68797520177255
 30
0.0
  0
SPLINE
  5
97
330
17
100
AcDbEntity
  8
visible
100
AcDbSpline
 70
0
 71
3
 72
8
 73
4
 74
0
 40
0.0
 40
0.0
 40
0.0
 40
0.0
 40
1.0
 40
1.0
 40
1.0
 40
1.0
 10
30.200217862191952
 20
-38.01693716663249
 30
0.0
 10
28.328502486737566
 20
-38.80716552511823
 30
0.0
 10
26.09131872451825
 20
-39.42111008344184
 30
0.0
 10
23.666748145301575
 20
-39.81331969757583
 30
0.0
  0
LINE
  5
98
330
17
100
AcDbEntity
  8
visible
100
AcDbLine
 10
5.88466949460193
 20
-38.68797520177255
 30
0.0
 11
-73.63533050539806
 21
-12.698260585805134
 31
0.0
  0
ENDSEC
  0
SECTION
  2
OBJECTS
  0
DICTIONARY
  5
A
330
0
100
AcDbDictionary
281
1
  3
ACAD_COLOR
350
B
  3
ACAD_GROUP
350
C
  3
ACAD_LAYOUT
350
D
  3
ACAD_MATERIAL
350
E
  3
ACAD_MLEADERSTYLE
350
F
  3
ACAD_MLINESTYLE
350
10
  3
ACAD_PLOTSETTINGS
350
11
  3
ACAD_PLOTSTYLENAME
350
12
  3
ACAD_SCALELIST
350
14
  3
ACAD_TABLESTYLE
350
15
  3
ACAD_VISUALSTYLE
350
16
  3
EZDXF_META
350
2D
  0
DICTIONARY
  5
B
330
A
100
AcDbDictionary
281
1
  0
DICTIONARY
  5
C
330
A
100
AcDbDictionary
281
1
  0
DICTIONARY
  5
D
330
A
100
AcDbDictionary
281
1
  3
Model
350
1A
  3
Layout1
350
1E
  0
DICTIONARY
  5
E
330
A
100
AcDbDictionary
281
1
  3
ByBlock
350
1F
  3
ByLayer
350
20
  3
Global
350
21
  0
DICTIONARY
  5
F
330
A
100
AcDbDictionary
281
1
  3
Standard
350
2C
  0
DICTIONARY
  5
10
330
A
100
AcDbDictionary
281
1
  3
Standard
350
22
  0
DICTIONARY
  5
11
330
A
100
AcDbDictionary
281
1
  0
ACDBDICTIONARYWDFLT
  5
12
330
A
100
AcDbDictionary
281
1
  3
Normal
350
13
100
AcDbDictionaryWithDefault
340
13
  0
ACDBPLACEHOLDER
  5
13
330
12
  0
DICTIONARY
  5
14
330
A
100
AcDbDictionary
281
1
  0
DICTIONARY
  5
15
330
A
100
AcDbDictionary
281
1
  0
DICTIONARY
  5
16
330
A
100
AcDbDictionary
281
1
  0
LAYOUT
  5
1A
330
D
100
AcDbPlotSettings
  1

  4
A3
  6

 40
7.5
 41
20.0
 42
7.5
 43
20.0
 44
420.0
 45
297.0
 46
0.0
 47
0.0
 48
0.0
 49
0.0
140
0.0
141
0.0
142
1.0
143
1.0
 70
1024
 72
1
 73
0
 74
5
  7

 75
16
 76
0
 77
2
 78
300
147
1.0
148
0.0
149
0.0
100
AcDbLayout
  1
Model
 70
1
 71
0
 10
0.0
 20
0.0
 11
420.0
 21
297.0
 12
0.0
 22
0.0
 32
0.0
 14
1e+20
 24
1e+20
 34
1e+20
 15
-1e+20
 25
-1e+20
 35
-1e+20
146
0.0
 13
0.0
 23
0.0
 33
0.0
 16
1.0
 26
0.0
 36
0.0
 17
0.0
 27
1.0
 37
0.0
 76
1
330
17
  0
LAYOUT
  5
1E
330
D
100
AcDbPlotSettings
  1

  4
A3
  6

 40
7.5
 41
20.0
 42
7.5
 43
20.0
 44
420.0
 45
297.0
 46
0.0
 47
0.0
 48
0.0
 49
0.0
140
0.0
141
0.0
142
1.0
143
1.0
 70
0
 72
1
 73
0
 74
5
  7

 75
16
 76
0
 77
2
 78
300
147
1.0
148
0.0
149
0.0
100
AcDbLayout
  1
Layout1
 70
1
 71
1
 10
0.0
 20
0.0
 11
420.0
 21
297.0
 12
0.0
 22
0.0
 32
0.0
 14
1e+20
 24
1e+20
 34
1e+20
 15
-1e+20
 25
-1e+20
 35
-1e+20
146
0.0
 13
0.0
 23
0.0
 33
0.0
 16
1.0
 26
0.0
 36
0.0
 17
0.0
 27
1.0
 37
0.0
 76
1
330
1B
  0
MATERIAL
  5
1F
102
{ACAD_REACTORS
330
E
102
}
330
E
100
AcDbMaterial
  1
ByBlock
  2

 70
0
 40
1.0
 71
1
 41
1.0
 91
-1023410177
 42
1.0
 72
1
  3

 73
1
 74
1
 75
1
 44
0.5
 73
0
 45
1.0
 46
1.0
 77
1
  4

 78
1
 79
1
170
1
 48
1.0
171
1
  6

172
1
173
1
174
1
140
1.0
141
1.0
175
1
  7

176
1
177
1
178
1
143
1.0
179
1
  8

270
1
271
1
272
1
145
1.0
146
1.0
273
1
  9

274
1
275
1
276
1
 42
1.0
 72
1
  3

 73
1
 74
1
 75
1
 94
63
  0
MATERIAL
  5
20
102
{ACAD_REACTORS
330
E
102
}
330
E
100
AcDbMaterial
  1
ByLayer
  2

 70
0
 40
1.0
 71
1
 41
1.0
 91
-1023410177
 42
1.0
 72
1
  3

 73
1
 74
1
 75
1
 44
0.5
 73
0
 45
1.0
 46
1.0
 77
1
  4

 78
1
 79
1
170
1
 48
1.0
171
1
  6

172
1
173
1
174
1
140
1.0
141
1.0
175
1
  7

176
1
177
1
178
1
143
1.0
179
1
  8

270
1
271
1
272
1
145
1.0
146
1.0
273
1
  9

274
1
275
1
276
1
 42
1.0
 72
1
  3

 73
1
 74
1
 75
1
 94
63
  0
MATERIAL
  5
21
102
{ACAD_REACTORS
330
E
102
}
330
E
100
AcDbMaterial
  1
Global
  2

 70
0
 40
1.0
 71
1
 41
1.0
 91
-1023410177
 42
1.0
 72
1
  3

 73
1
 74
1
 75
1
 44
0.5
 73
0
 45
1.0
 46
1.0
 77
1
  4

 78
1
 79
1
170
1
 48
1.0
171
1
  6

172
1
173
1
174
1
140
1.0
141
1.0
175
1
  7

176
1
177
1
178
1
143
1.0
179
1
  8

270
1
271
1
272
1
145
1.0
146
1.0
273
1
  9

274
1
275
1
276
1
 42
1.0
 72
1
  3

 73
1
 74
1
 75
1
 94
63
  0
MLINESTYLE
  5
22
102
{ACAD_REACTORS
330
10
102
}
330
10
100
AcDbMlineStyle
  2
Standard
 70
0
  3

 62
256
 51
90.0
 52
90.0
 71
2
 49
0.5
 62
256
  6
BYLAYER
 49
-0.5
 62
256
  6
BYLAYER
  0
MLEADERSTYLE
  5
2C
102
{ACAD_REACTORS
330
F
102
}
330
F
100
AcDbMLeaderStyle
179
2
170
2
171
1
172
0
 90
2
 40
0.0
 41
0.0
173
1
 91
-1056964608
 92
-2
290
1
 42
2.0
291
1
 43
8.0
  3
Standard
 44
4.0
300

342
29
174
1
175
1
176
0
178
1
 93
-1056964608
 45
4.0
292
0
297
0
 46
4.0
 94
-1056964608
 47
1.0
 49
1.0
140
1.0
294
1
141
0.0
177
0
142
1.0
295
0
296
0
143
3.75
271
0
272
9
273
9
  0
DICTIONARY
  5
2D
330
A
100
AcDbDictionary
280
1
281
1
  3
CREATED_BY_EZDXF
350
2E
  3
WRITTEN_BY_EZDXF
350
9C
  0
DICTIONARYVAR
  5
2E
330
2D
100
DictionaryVariables
280
0
  1
1.4.4 @ 2026-10-02T15:35:48.501624+00:00
  0
DICTIONARYVAR
  5
9C
330
2D
100
DictionaryVariables
280
0
  1
1.4.4 @ 2026-10-02T15:35:48.522811+00:00
  0
ENDSEC
  0
EOF
