  0
SECTION
  2
HEADER
  9
$ACADVER
  1
AC1027
  9
$ACADMAINTVER
 70
105
  9
$DWGCODEPAGE
  3
ANSI_1252
  9
$LASTSAVEDBY
  1
ezdxf
  9
$REQUIREDVERSIONS
160
0
  9
$INSBASE
 10
0.0
 20
0.0
 30
0.0
  9
$EXTMIN
 10
1e+20
 20
1e+20
 30
1e+20
  9
$EXTMAX
 10
-1e+20
 20
-1e+20
 30
-1e+20
  9
$LIMMIN
 10
0.0
 20
0.0
  9
$LIMMAX
 10
420.0
 20
297.0
  9
$ORTHOMODE
 70
0
  9
$REGENMODE
 70
1
  9
$FILLMODE
 70
1
  9
$QTEXTMODE
 70
0
  9
$MIRRTEXT
 70
1
  9
$LTSCALE
 40
1.0
  9
$ATTMODE
 70
1
  9
$TEXTSIZE
 40
2.5
  9
$TRACEWID
 40
1.0
  9
$TEXTSTYLE
  7
Standard
  9
$CLAYER
  8
0
  9
$CELTYPE
  6
ByLayer
  9
$CECOLOR
 62
256
  9
$CELTSCALE
 40
1.0
  9
$DISPSILH
 70
0
  9
$DIMSCALE
 40
1.0
  9
$DIMASZ
 40
2.5
  9
$DIMEXO
 40
0.625
  9
$DIMDLI
 40
3.75
  9
$DIMRND
 40
0.0
  9
$DIMDLE
 40
0.0
  9
$DIMEXE
 40
1.25
  9
$DIMTP
 40
0.0
  9
$DIMTM
 40
0.0
  9
$DIMTXT
 40
2.5
  9
$DIMCEN
 40
2.5
  9
$DIMTSZ
 40
0.0
  9
$DIMTOL
 70
0
  9
$DIMLIM
 70
0
  9
$DIMTIH
 70
0
  9
$DIMTOH
 70
0
  9
$DIMSE1
 70
0
  9
$DIMSE2
 70
0
  9
$DIMTAD
 70
1
  9
$DIMZIN
 70
8
  9
$DIMBLK
  1

  9
$DIMASO
 70
1
  9
$DIMSHO
 70
1
  9
$DIMPOST
  1

  9
$DIMAPOST
  1

  9
$DIMALT
 70
0
  9
$DIMALTD
 70
3
  9
$DIMALTF
 40
0.03937007874
  9
$DIMLFAC
 40
1.0
  9
$DIMTOFL
 70
1
  9
$DIMTVP
 40
0.0
  9
$DIMTIX
 70
0
  9
$DIMSOXD
 70
0
  9
$DIMSAH
 70
0
  9
$DIMBLK1
  1

  9
$DIMBLK2
  1

  9
$DIMSTYLE
  2
ISO-25
  9
$DIMCLRD
 70
0
  9
$DIMCLRE
 70
0
  9
$DIMCLRT
 70
0
  9
$DIMTFAC
 40
1.0
  9
$DIMGAP
 40
0.625
  9
$DIMJUST
 70
0
  9
$DIMSD1
 70
0
  9
$DIMSD2
 70
0
  9
$DIMTOLJ
 70
0
  9
$DIMTZIN
 70
8
  9
$DIMALTZ
 70
0
  9
$DIMALTTZ
 70
0
  9
$DIMUPT
 70
0
  9
$DIMDEC
 70
2
  9
$DIMTDEC
 70
2
  9
$DIMALTU
 70
2
  9
$DIMALTTD
 70
3
  9
$DIMTXSTY
  7
Standard
  9
$DIMAUNIT
 70
0
  9
$DIMADEC
 70
0
  9
$DIMALTRND
 40
0.0
  9
$DIMAZIN
 70
0
  9
$DIMDSEP
 70
44
  9
$DIMATFIT
 70
3
  9
$DIMFRAC
 70
0
  9
$DIMLDRBLK
  1

  9
$DIMLUNIT
 70
2
  9
$DIMLWD
 70
-2
  9
$DIMLWE
 70
-2
  9
$DIMTMOVE
 70
0
  9
$DIMFXL
 40
1.0
  9
$DIMFXLON
 70
0
  9
$DIMJOGANG
 40
0.785398163397
  9
$DIMTFILL
 70
0
  9
$DIMTFILLCLR
 70
0
  9
$DIMARCSYM
 70
0
  9
$DIMLTYPE
  6

  9
$DIMLTEX1
  6

  9
$DIMLTEX2
  6

  9
$DIMTXTDIRECTION
 70
0
  9
$LUNITS
 70
2
  9
$LUPREC
 70
4
  9
$SKETCHINC
 40
1.0
  9
$FILLETRAD
 40
10.0
  9
$AUNITS
 70
0
  9
$AUPREC
 70
2
  9
$MENU
  1
.
  9
$ELEVATION
 40
0.0
  9
$PELEVATION
 40
0.0
  9
$THICKNESS
 40
0.0
  9
$LIMCHECK
 70
0
  9
$CHAMFERA
 40
0.0
  9
$CHAMFERB
 40
0.0
  9
$CHAMFERC
 40
0.0
  9
$CHAMFERD
 40
0.0
  9
$SKPOLY
 70
0
  9
$TDCREATE
 40
2461317.788298611
  9
$TDUCREATE
 40
2458532.153996898
  9
$TDUPDATE
 40
2461317.788298611
  9
$TDUUPDATE
 40
2458532.1544311
  9
$TDINDWG
 40
0.0
  9
$TDUSRTIMER
 40
0.0
  9
$USRTIMER
 70
1
  9
$ANGBASE
 50
0.0
  9
$ANGDIR
 70
0
  9
$PDMODE
 70
0
  9
$PDSIZE
 40
0.0
  9
$PLINEWID
 40
0.0
  9
$SPLFRAME
 70
0
  9
$SPLINETYPE
 70
6
  9
$SPLINESEGS
 70
8
  9
$HANDSEED
  5
92
  9
$SURFTAB1
 70
6
  9
$SURFTAB2
 70
6
  9
$SURFTYPE
 70
6
  9
$SURFU
 70
6
  9
$SURFV
 70
6
  9
$UCSBASE
  2

  9
$UCSNAME
  2

  9
$UCSORG
 10
0.0
 20
0.0
 30
0.0
  9
$UCSXDIR
 10
1.0
 20
0.0
 30
0.0
  9
$UCSYDIR
 10
0.0
 20
1.0
 30
0.0
  9
$UCSORTHOREF
  2

  9
$UCSORTHOVIEW
 70
0
  9
$UCSORGTOP
 10
0.0
 20
0.0
 30
0.0
  9
$UCSORGBOTTOM
 10
0.0
 20
0.0
 30
0.0
  9
$UCSORGLEFT
 10
0.0
 20
0.0
 30
0.0
  9
$UCSORGRIGHT
 10
0.0
 20
0.0
 30
0.0
  9
$UCSORGFRONT
 10
0.0
 20
0.0
 30
0.0
  9
$UCSORGBACK
 10
0.0
 20
0.0
 30
0.0
  9
$PUCSBASE
  2

  9
$PUCSNAME
  2

  9
$PUCSORG
 10
0.0
 20
0.0
 30
0.0
  9
$PUCSXDIR
 10
1.0
 20
0.0
 30
0.0
  9
$PUCSYDIR
 10
0.0
 20
1.0
 30
0.0
  9
$PUCSORTHOREF
  2

  9
$PUCSORTHOVIEW
 70
0
  9
$PUCSORGTOP
 10
0.0
 20
0.0
 30
0.0
  9
$PUCSORGBOTTOM
 10
0.0
 20
0.0
 30
0.0
  9
$PUCSORGLEFT
 10
0.0
 20
0.0
 30
0.0
  9
$PUCSORGRIGHT
 10
0.0
 20
0.0
 30
0.0
  9
$PUCSORGFRONT
 10
0.0
 20
0.0
 30
0.0
  9
$PUCSORGBACK
 10
0.0
 20
0.0
 30
0.0
  9
$USERI1
 70
0
  9
$USERI2
 70
0
  9
$USERI3
 70
0
  9
$USERI4
 70
0
  9
$USERI5
 70
0
  9
$USERR1
 40
0.0
  9
$USERR2
 40
0.0
  9
$USERR3
 40
0.0
  9
$USERR4
 40
0.0
  9
$USERR5
 40
0.0
  9
$WORLDVIEW
 70
1
  9
$SHADEDGE
 70
3
  9
$SHADEDIF
 70
70
  9
$TILEMODE
 70
1
  9
$MAXACTVP
 70
64
  9
$PINSBASE
 10
0.0
 20
0.0
 30
0.0
  9
$PLIMCHECK
 70
0
  9
$PEXTMIN
 10
1e+20
 20
1e+20
 30
1e+20
  9
$PEXTMAX
 10
-1e+20
 20
-1e+20
 30
-1e+20
  9
$PLIMMIN
 10
0.0
 20
0.0
  9
$PLIMMAX
 10
420.0
 20
297.0
  9
$UNITMODE
 70
0
  9
$VISRETAIN
 70
1
  9
$PLINEGEN
 70
0
  9
$PSLTSCALE
 70
1
  9
$TREEDEPTH
 70
3020
  9
$CMLSTYLE
  2
Standard
  9
$CMLJUST
 70
0
  9
$CMLSCALE
 40
20.0
  9
$PROXYGRAPHICS
 70
1
  9
$MEASUREMENT
 70
1
  9
$CELWEIGHT
370
-1
  9
$ENDCAPS
280
0
  9
$JOINSTYLE
280
0
  9
$LWDISPLAY
290
0
  9
$INSUNITS
 70
4
  9
$HYPERLINKBASE
  1

  9
$STYLESHEET
  1

  9
$XEDIT
290
1
  9
$CEPSNTYPE
380
0
  9
$PSTYLEMODE
290
1
  9
$FINGERPRINTGUID
  2
{48B2AEF6-608F-4754-ACE5-1D21B53684FB}
  9
$VERSIONGUID
  2
{631312C8-EFAC-4280-9E5F-251FEB66510F}
  9
$EXTNAMES
290
1
  9
$PSVPSCALE
 40
0.0
  9
$OLESTARTUP
290
0
  9
$SORTENTS
280
127
  9
$INDEXCTL
280
0
  9
$HIDETEXT
280
1
  9
$XCLIPFRAME
280
1
  9
$HALOGAP
280
0
  9
$OBSCOLOR
 70
257
  9
$OBSLTYPE
280
0
  9
$INTERSECTIONDISPLAY
280
0
  9
$INTERSECTIONCOLOR
 70
257
  9
$DIMASSOC
280
2
  9
$PROJECTNAME
  1

  9
$CAMERADISPLAY
290
0
  9
$LENSLENGTH
 40
50.0
  9
$CAMERAHEIGHT
 40
0.0
  9
$STEPSPERSEC
 40
24.0
  9
$STEPSIZE
 40
100.0
  9
$3DDWFPREC
 40
2.0
  9
$PSOLWIDTH
 40
0.005
  9
$PSOLHEIGHT
 40
0.08
  9
$LOFTANG1
 40
1.570796326795
  9
$LOFTANG2
 40
1.570796326795
  9
$LOFTMAG1
 40
0.0
  9
$LOFTMAG2
 40
0.0
  9
$LOFTPARAM
 70
7
  9
$LOFTNORMALS
280
1
  9
$LATITUDE
 40
37.795
  9
$LONGITUDE
 40
-122.394
  9
$NORTHDIRECTION
 40
0.0
  9
$TIMEZONE
 70
-8000
  9
$LIGHTGLYPHDISPLAY
280
1
  9
$TILEMODELIGHTSYNCH
280
1
  9
$CMATERIAL
347
20
  9
$SOLIDHIST
280
0
  9
$SHOWHIST
280
1
  9
$DWFFRAME
280
2
  9
$DGNFRAME
280
2
  9
$REALWORLDSCALE
290
1
  9
$INTERFERECOLOR
 62
256
  9
$CSHADOW
280
0
  9
$SHADOWPLANELOCATION
 40
0.0
  0
ENDSEC
  0
SECTION
  2
CLASSES
  0
CLASS
  1
ACDBDICTIONARYWDFLT
  2
AcDbDictionaryWithDefault
  3
ObjectDBX Classes
 90
0
 91
0
280
0
281
0
  0
CLASS
  1
SUN
  2
AcDbSun
  3
SCENEOE
 90
1153
 91
0
280
0
281
0
  0
CLASS
  1
VISUALSTYLE
  2
AcDbVisualStyle
  3
ObjectDBX Classes
 90
4095
 91
0
280
0
281
0
  0
CLASS
  1
MATERIAL
  2
AcDbMaterial
  3
ObjectDBX Classes
 90
1153
 91
0
280
0
281
0
  0
CLASS
  1
SCALE
  2
AcDbScale
  3
ObjectDBX Classes
 90
1153
 91
0
280
0
281
0
  0
CLASS
  1
TABLESTYLE
  2
AcDbTableStyle
  3
ObjectDBX Classes
 90
4095
 91
0
280
0
281
0
  0
CLASS
  1
MLEADERSTYLE
  2
AcDbMLeaderStyle
  3
ACDB_MLEADERSTYLE_CLASS
 90
4095
 91
0
280
0
281
0
  0
CLASS
  1
DICTIONARYVAR
  2
AcDbDictionaryVar
  3
ObjectDBX Classes
 90
0
 91
0
280
0
281
0
  0
CLASS
  1
CELLSTYLEMAP
  2
AcDbCellStyleMap
  3
ObjectDBX Classes
 90
1152
 91
0
280
0
281
0
  0
CLASS
  1
MENTALRAYRENDERSETTINGS
  2
AcDbMentalRayRenderSettings
  3
SCENEOE
 90
1024
 91
0
280
0
281
0
  0
CLASS
  1
ACDBDETAILVIEWSTYLE
  2
AcDbDetailViewStyle
  3
ObjectDBX Classes
 90
1025
 91
0
280
0
281
0
  0
CLASS
  1
ACDBSECTIONVIEWSTYLE
  2
AcDbSectionViewStyle
  3
ObjectDBX Classes
 90
1025
 91
0
280
0
281
0
  0
CLASS
  1
RASTERVARIABLES
  2
AcDbRasterVariables
  3
ISM
 90
0
 91
0
280
0
281
0
  0
CLASS
  1
LAYOUT
  2
AcDbLayout
  3
ObjectDBX Classes
 90
0
 91
0
280
0
281
0
  0
CLASS
  1
ACDBPLACEHOLDER
  2
AcDbPlaceHolder
  3
ObjectDBX Classes
 90
0
 91
0
280
0
281
0
  0
ENDSEC
  0
SECTION
  2
TABLES
  0
TABLE
  2
VPORT
  5
8
330
0
100
AcDbSymbolTable
 70
1
  0
VPORT
  5
8E
330
8
100
AcDbSymbolTableRecord
100
AcDbViewportTableRecord
  2
*Active
 70
0
 10
0.0
 20
0.0
 11
1.0
 21
1.0
 12
4.00000104150422e-08
 22
-2.381113344630755
 13
0.0
 23
0.0
 14
0.5
 24
0.5
 15
0.5
 25
0.5
 16
0.0
 26
0.0
 36
1.0
 17
0.0
 27
0.0
 37
0.0
 40
60.47135351868006
 41
1.34
 42
50.0
 43
0.0
 44
0.0
 50
0.0
 51
0.0
 71
0
 72
1000
 73
1
 74
3
 75
0
 76
0
 77
0
 78
0
281
0
 65
1
110
0.0
120
0.0
130
0.0
111
1.0
121
0.0
131
0.0
112
0.0
122
1.0
132
0.0
 79
0
146
0.0
  0
ENDTAB
  0
TABLE
  2
LTYPE
  5
2
330
0
100
AcDbSymbolTable
 70
3
  0
LTYPE
  5
24
330
2
100
AcDbSymbolTableRecord
100
AcDbLinetypeTableRecord
  2
ByBlock
 70
0
  3

 72
65
 73
0
 40
0.0
  0
LTYPE
  5
25
330
2
100
AcDbSymbolTableRecord
100
AcDbLinetypeTableRecord
  2
ByLayer
 70
0
  3

 72
65
 73
0
 40
0.0
  0
LTYPE
  5
26
330
2
100
AcDbSymbolTableRecord
100
AcDbLinetypeTableRecord
  2
Continuous
 70
0
  3

 72
65
 73
0
 40
0.0
  0
ENDTAB
  0
TABLE
  2
LAYER
  5
1
330
0
100
AcDbSymbolTable
 70
3
  0
LAYER
  5
27
330
1
100
AcDbSymbolTableRecord
100
AcDbLayerTableRecord
  2
0
 70
0
 62
7
  6
Continuous
370
-3
390
13
347
21
  0
LAYER
  5
28
330
1
100
AcDbSymbolTableRecord
100
AcDbLayerTableRecord
  2
Defpoints
 70
0
 62
7
  6
Continuous
290
0
370
-3
390
13
347
21
  0
LAYER
  5
2F
330
1
100
AcDbSymbolTableRecord
100
AcDbLayerTableRecord
  2
visible
 70
0
 62
7
  6
Continuous
370
-3
390
13
347
21
  0
ENDTAB
  0
TABLE
  2
STYLE
  5
5
330
0
100
AcDbSymbolTable
 70
1
  0
STYLE
  5
29
330
5
100
AcDbSymbolTableRecord
100
AcDbTextStyleTableRecord
  2
Standard
 70
0
 40
0.0
 41
1.0
 50
0.0
 71
0
 42
2.5
  3
txt
  4

  0
ENDTAB
  0
TABLE
  2
VIEW
  5
7
330
0
100
AcDbSymbolTable
 70
0
  0
ENDTAB
  0
TABLE
  2
UCS
  5
6
330
0
100
AcDbSymbolTable
 70
0
  0
ENDTAB
  0
TABLE
  2
APPID
  5
3
330
0
100
AcDbSymbolTable
 70
3
  0
APPID
  5
2A
330
3
100
AcDbSymbolTableRecord
100
AcDbRegAppTableRecord
  2
ACAD
 70
0
  0
APPID
  5
8F
330
3
100
AcDbSymbolTableRecord
100
AcDbRegAppTableRecord
  2
HATCHBACKGROUNDCOLOR
 70
0
  0
APPID
  5
90
330
3
100
AcDbSymbolTableRecord
100
AcDbRegAppTableRecord
  2
EZDXF
 70
0
  0
ENDTAB
  0
TABLE
  2
DIMSTYLE
  5
4
330
0
100
AcDbSymbolTable
 70
1
100
AcDbDimStyleTable
  0
DIMSTYLE
105
2B
330
4
100
AcDbSymbolTableRecord
100
AcDbDimStyleTableRecord
  2
Standard
 70
0
 40
1.0
 41
2.5
 42
0.625
 43
3.75
 44
1.25
 45
0.0
 46
0.0
 47
0.0
 48
0.0
 49
2.5
140
2.5
141
2.5
142
0.0
143
0.03937007874
144
1.0
145
0.0
146
1.0
147
0.625
148
0.0
 69
0
 70
0
 71
0
 72
0
 73
0
 74
0
 75
0
 76
0
 77
1
 78
8
 79
3
170
0
171
3
172
1
173
0
174
0
175
0
176
0
177
0
178
0
179
2
271
2
272
2
273
2
274
3
275
0
276
0
277
2
278
44
279
0
280
0
281
0
282
0
283
0
284
8
285
0
286
0
288
0
289
3
290
0
371
-2
372
-2
  0
ENDTAB
  0
TABLE
  2
BLOCK_RECORD
  5
9
330
0
100
AcDbSymbolTable
 70
2
  0
BLOCK_RECORD
  5
17
330
9
100
AcDbSymbolTableRecord
100
AcDbBlockTableRecord
  2
*Model_Space
340
1A
 70
0
280
1
281
0
  0
BLOCK_RECORD
  5
1B
330
9
100
AcDbSymbolTableRecord
100
AcDbBlockTableRecord
  2
*Paper_Space
340
1E
 70
0
280
1
281
0
  0
ENDTAB
  0
ENDSEC
  0
SECTION
  2
BLOCKS
  0
BLOCK
  5
18
330
17
100
AcDbEntity
  8
0
100
AcDbBlockBegin
  2
*Model_Space
 70
0
 10
0.0
 20
0.0
 30
0.0
  3
*Model_Space
  1

  0
ENDBLK
  5
19
330
17
100
AcDbEntity
  8
0
100
AcDbBlockEnd
  0
BLOCK
  5
1C
330
1B
100
AcDbEntity
  8
0
100
AcDbBlockBegin
  2
*Paper_Space
 70
0
 10
0.0
 20
0.0
 30
0.0
  3
*Paper_Space
  1

  0
ENDBLK
  5
1D
330
1B
100
AcDbEntity
  8
0
100
AcDbBlockEnd
  0
ENDSEC
  0
SECTION
  2
ENTITIES
  0
ELLIPSE
  5
30
330
17
100
AcDbEntity
  8
visible
100
AcDbEllipse
 10
-42.89999996095999
 20
-3.845723251641779
 30
0.0
 11
3.2
 21
-9.893994101886443e-17
 31
0.0
 40
0.4406183892483419
 41
5.639684198252969
 42
6.283185307179586
  0
ELLIPSE
  5
31
330
17
100
AcDbEntity
  8
visible
100
AcDbEllipse
 10
-42.89999996095999
 20
-3.845723251641779
 30
0.0
 11
3.2
 21
-9.893994101886443e-17
 31
0.0
 40
0.4406183892483419
 41
1.1102230246251565e-16
 42
3.1415926535897936
  0
ELLIPSE
  5
32
330
17
100
AcDbEntity
  8
visible
100
AcDbEllipse
 10
-42.89999996095999
 20
-3.845723251641779
 30
0.0
 11
3.2
 21
-9.893994101886443e-17
 31
0.0
 40
0.4406183892483419
 41
3.1415926535897936
 42
5.639684198252969
  0
ELLIPSE
  5
33
330
17
100
AcDbEntity
  8
visible
100
AcDbEllipse
 10
5.100000034240001
 20
-19.707985267402048
 30
0.0
 11
3.2
 21
-9.893994101886443e-17
 31
0.0
 40
0.4406183892483419
 41
5.639684198252969
 42
6.283185307179586
  0
ELLIPSE
  5
34
330
17
100
AcDbEntity
  8
visible
100
AcDbEllipse
 10
5.100000034240001
 20
-19.707985267402048
 30
0.0
 11
3.2
 21
-9.893994101886443e-17
 31
0.0
 40
0.4406183892483419
 41
1.1102230246251565e-16
 42
3.1415926535897936
  0
ELLIPSE
  5
35
330
17
100
AcDbEntity
  8
visible
100
AcDbEllipse
 10
5.100000034240001
 20
-19.707985267402048
 30
0.0
 11
3.2
 21
-9.893994101886443e-17
 31
0.0
 40
0.4406183892483419
 41
3.1415926535897936
 42
5.639684198252969
  0
ELLIPSE
  5
36
330
17
100
AcDbEntity
  8
visible
100
AcDbEllipse
 10
-5.099999954239994
 20
18.361443564253932
 30
0.0
 11
3.2
 21
-9.893994101886443e-17
 31
0.0
 40
0.4406183892483419
 41
5.639684198252969
 42
6.283185307179586
  0
ELLIPSE
  5
37
330
17
100
AcDbEntity
  8
visible
100
AcDbEllipse
 10
-5.099999954239994
 20
18.361443564253932
 30
0.0
 11
3.2
 21
-9.893994101886443e-17
 31
0.0
 40
0.4406183892483419
 41
1.1102230246251565e-16
 42
3.1415926535897936
  0
ELLIPSE
  5
38
330
17
100
AcDbEntity
  8
visible
100
AcDbEllipse
 10
-5.099999954239994
 20
18.361443564253932
 30
0.0
 11
3.2
 21
-9.893994101886443e-17
 31
0.0
 40
0.4406183892483419
 41
3.1415926535897936
 42
5.639684198252969
  0
ELLIPSE
  5
39
330
17
100
AcDbEntity
  8
visible
100
AcDbEllipse
 10
4.000000330961484e-08
 20
-0.6732708515740597
 30
0.0
 11
22.5
 21
-6.956714602888905e-16
 31
0.0
 40
0.4406183892483419
 41
5.639684198252969
 42
6.283185307179586
  0
ELLIPSE
  5
3A
330
17
100
AcDbEntity
  8
visible
100
AcDbEllipse
 10
4.000000330961484e-08
 20
-0.6732708515740597
 30
0.0
 11
22.5
 21
-6.956714602888905e-16
 31
0.0
 40
0.4406183892483419
 41
3.1415926535897936
 42
5.639684198252969
  0
ELLIPSE
  5
3B
330
17
100
AcDbEntity
  8
visible
100
AcDbEllipse
 10
42.900000040959995
 20
2.4991815484936595
 30
0.0
 11
3.2
 21
-9.893994101886443e-17
 31
0.0
 40
0.4406183892483419
 41
5.639684198252969
 42
6.283185307179586
  0
ELLIPSE
  5
3C
330
17
100
AcDbEntity
  8
visible
100
AcDbEllipse
 10
42.900000040959995
 20
2.4991815484936595
 30
0.0
 11
3.2
 21
-9.893994101886443e-17
 31
0.0
 40
0.4406183892483419
 41
1.1102230246251565e-16
 42
3.1415926535897936
  0
ELLIPSE
  5
3D
330
17
100
AcDbEntity
  8
visible
100
AcDbEllipse
 10
42.900000040959995
 20
2.4991815484936595
 30
0.0
 11
3.2
 21
-9.893994101886443e-17
 31
0.0
 40
0.4406183892483419
 41
3.1415926535897936
 42
5.639684198252969
  0
ELLIPSE
  5
3E
330
17
100
AcDbEntity
  8
visible
100
AcDbEllipse
 10
-42.89999996095999
 20
-5.641112273615789
 30
0.0
 11
3.2
 21
-9.893994101886443e-17
 31
0.0
 40
0.4406183892483419
 41
0.6901752402911215
 42
2.451417413298668
  0
ELLIPSE
  5
3F
330
17
100
AcDbEntity
  8
visible
100
AcDbEllipse
 10
5.100000034240001
 20
-21.503374289376058
 30
0.0
 11
3.2
 21
-9.893994101886443e-17
 31
0.0
 40
0.4406183892483419
 41
0.6901752402911238
 42
2.45141741329867
  0
ELLIPSE
  5
40
330
17
100
AcDbEntity
  8
visible
100
AcDbEllipse
 10
-5.099999954239994
 20
16.566054542279915
 30
0.0
 11
3.2
 21
-9.893994101886443e-17
 31
0.0
 40
0.4406183892483419
 41
0.6901752402911269
 42
2.4514174132986666
  0
ELLIPSE
  5
41
330
17
100
AcDbEntity
  8
visible
100
AcDbEllipse
 10
4.000000330961484e-08
 20
6.05943798082847
 30
0.0
 11
22.5
 21
-6.956714602888905e-16
 31
0.0
 40
0.4406183892483419
 41
5.639684198252969
 42
6.283185307179586
  0
ELLIPSE
  5
42
330
17
100
AcDbEntity
  8
visible
100
AcDbEllipse
 10
4.000000330961484e-08
 20
6.05943798082847
 30
0.0
 11
22.5
 21
-6.956714602888905e-16
 31
0.0
 40
0.4406183892483419
 41
1.1102230246251565e-16
 42
3.1415926535897936
  0
ELLIPSE
  5
43
330
17
100
AcDbEntity
  8
visible
100
AcDbEllipse
 10
4.000000330961484e-08
 20
6.05943798082847
 30
0.0
 11
22.5
 21
-6.956714602888905e-16
 31
0.0
 40
0.4406183892483419
 41
3.1415926535897936
 42
5.639684198252969
  0
ELLIPSE
  5
44
330
17
100
AcDbEntity
  8
visible
100
AcDbEllipse
 10
42.900000040959995
 20
0.7037925265196492
 30
0.0
 11
3.2
 21
-9.893994101886443e-17
 31
0.0
 40
0.4406183892483419
 41
0.6901752402911215
 42
2.451417413298668
  0
ELLIPSE
  5
45
330
17
100
AcDbEntity
  8
visible
100
AcDbEllipse
 10
-42.89999996095999
 20
-5.641112273615789
 30
0.0
 11
1.65
 21
-5.1015907087851964e-17
 31
0.0
 40
0.4406183892483419
 41
0.7419027977461136
 42
2.3996898558436794
  0
ELLIPSE
  5
46
330
17
100
AcDbEntity
  8
visible
100
AcDbEllipse
 10
5.100000034240001
 20
-21.503374289376058
 30
0.0
 11
1.65
 21
-5.1015907087851964e-17
 31
0.0
 40
0.4406183892483419
 41
0.7419027977461085
 42
2.399689855843685
  0
ELLIPSE
  5
47
330
17
100
AcDbEntity
  8
visible
100
AcDbEllipse
 10
-5.099999954239994
 20
16.566054542279915
 30
0.0
 11
1.65
 21
-5.1015907087851964e-17
 31
0.0
 40
0.4406183892483419
 41
0.7419027977461164
 42
2.399689855843676
  0
ELLIPSE
  5
48
330
17
100
AcDbEntity
  8
visible
100
AcDbEllipse
 10
-20.35281658173784
 20
7.139883827290603
 30
0.0
 11
0.9
 21
-2.782685841155562e-17
 31
0.0
 40
0.4406183892483419
 41
5.639684198252969
 42
6.283185307179586
  0
ELLIPSE
  5
49
330
17
100
AcDbEntity
  8
visible
100
AcDbEllipse
 10
-20.35281658173784
 20
7.139883827290603
 30
0.0
 11
0.9
 21
-2.782685841155562e-17
 31
0.0
 40
0.4406183892483419
 41
1.1102230246251565e-16
 42
3.1415926535897936
  0
ELLIPSE
  5
4A
330
17
100
AcDbEntity
  8
visible
100
AcDbEllipse
 10
-20.35281658173784
 20
7.139883827290603
 30
0.0
 11
0.9
 21
-2.782685841155562e-17
 31
0.0
 40
0.4406183892483419
 41
3.1415926535897936
 42
5.639684198252969
  0
ELLIPSE
  5
4B
330
17
100
AcDbEntity
  8
visible
100
AcDbEllipse
 10
8.052816659551173
 20
-2.247149448583855
 30
0.0
 11
0.9
 21
-2.782685841155562e-17
 31
0.0
 40
0.4406183892483419
 41
5.639684198252969
 42
6.283185307179586
  0
ELLIPSE
  5
4C
330
17
100
AcDbEntity
  8
visible
100
AcDbEllipse
 10
8.052816659551173
 20
-2.247149448583855
 30
0.0
 11
0.9
 21
-2.782685841155562e-17
 31
0.0
 40
0.4406183892483419
 41
1.1102230246251565e-16
 42
3.1415926535897936
  0
ELLIPSE
  5
4D
330
17
100
AcDbEntity
  8
visible
100
AcDbEllipse
 10
8.052816659551173
 20
-2.247149448583855
 30
0.0
 11
0.9
 21
-2.782685841155562e-17
 31
0.0
 40
0.4406183892483419
 41
3.1415926535897936
 42
5.639684198252969
  0
ELLIPSE
  5
4E
330
17
100
AcDbEntity
  8
visible
100
AcDbEllipse
 10
4.000000330961484e-08
 20
6.05943798082847
 30
0.0
 11
18.65
 21
-5.766343437505691e-16
 31
0.0
 40
0.4406183892483419
 41
5.639684198252969
 42
6.283185307179586
  0
ELLIPSE
  5
4F
330
17
100
AcDbEntity
  8
visible
100
AcDbEllipse
 10
4.000000330961484e-08
 20
6.05943798082847
 30
0.0
 11
18.65
 21
-5.766343437505691e-16
 31
0.0
 40
0.4406183892483419
 41
1.1102230246251565e-16
 42
3.1415926535897936
  0
ELLIPSE
  5
50
330
17
100
AcDbEntity
  8
visible
100
AcDbEllipse
 10
4.000000330961484e-08
 20
6.05943798082847
 30
0.0
 11
18.65
 21
-5.766343437505691e-16
 31
0.0
 40
0.4406183892483419
 41
3.1415926535897936
 42
5.639684198252969
  0
ELLIPSE
  5
51
330
17
100
AcDbEntity
  8
visible
100
AcDbEllipse
 10
12.30000004218667
 20
13.285579563778661
 30
0.0
 11
0.9
 21
-2.782685841155562e-17
 31
0.0
 40
0.4406183892483419
 41
5.639684198252969
 42
6.283185307179586
  0
ELLIPSE
  5
52
330
17
100
AcDbEntity
  8
visible
100
AcDbEllipse
 10
12.30000004218667
 20
13.285579563778661
 30
0.0
 11
0.9
 21
-2.782685841155562e-17
 31
0.0
 40
0.4406183892483419
 41
1.1102230246251565e-16
 42
3.1415926535897936
  0
ELLIPSE
  5
53
330
17
100
AcDbEntity
  8
visible
100
AcDbEllipse
 10
12.30000004218667
 20
13.285579563778661
 30
0.0
 11
0.9
 21
-2.782685841155562e-17
 31
0.0
 40
0.4406183892483419
 41
3.1415926535897936
 42
5.639684198252969
  0
ELLIPSE
  5
54
330
17
100
AcDbEntity
  8
visible
100
AcDbEllipse
 10
42.900000040959995
 20
0.7037925265196492
 30
0.0
 11
1.65
 21
-5.1015907087851964e-17
 31
0.0
 40
0.4406183892483419
 41
0.7419027977461136
 42
2.3996898558436794
  0
ELLIPSE
  5
55
330
17
100
AcDbEntity
  8
visible
100
AcDbEllipse
 10
4.000000330961484e-08
 20
-0.2244235960805625
 30
0.0
 11
18.65
 21
-5.766343437505691e-16
 31
0.0
 40
0.4406183892483419
 41
0.3923325491613753
 42
2.749260104428418
  0
ELLIPSE
  5
56
330
17
100
AcDbEntity
  8
visible
100
AcDbEllipse
 10
4.000000330961484e-08
 20
-4.26404889552208
 30
0.0
 11
15.8
 21
-4.885159587806431e-16
 31
0.0
 40
0.4406183892483419
 41
0.654583733587056
 42
2.4870089200027374
  0
ELLIPSE
  5
57
330
17
100
AcDbEntity
  8
visible
100
AcDbEllipse
 10
4.000000330961484e-08
 20
-0.2244235960805625
 30
0.0
 11
15.8
 21
-4.885159587806431e-16
 31
0.0
 40
0.4406183892483419
 41
0.23562345873709079
 42
2.9059691948527013
  0
ELLIPSE
  5
58
330
17
100
AcDbEntity
  8
visible
100
AcDbEllipse
 10
-47.79999996005333
 20
-3.7221406396236034
 30
0.0
 11
-12.0
 21
3.710247788207416e-16
 31
0.0
 40
0.4406183892483419
 41
-6.283185307179586
 42
-5.355890089311307
  0
ELLIPSE
  5
59
330
17
100
AcDbEntity
  8
visible
100
AcDbEllipse
 10
-47.79999996005333
 20
-1.5676738132547854
 30
0.0
 11
-12.0
 21
3.710247788207416e-16
 31
0.0
 40
0.4406183892483419
 41
-6.283185307179586
 42
-5.355890089311307
  0
LINE
  5
5A
330
17
100
AcDbEntity
  8
visible
100
AcDbLine
 10
-54.99999996133333
 20
-7.952077175984689
 30
0.0
 11
-54.99999996133333
 21
-5.797610349615878
 31
0.0
  0
ELLIPSE
  5
5B
330
17
100
AcDbEntity
  8
visible
100
AcDbEllipse
 10
-56.75999995915733
 20
1.393281763020461
 30
0.0
 11
0.4052347189819256
 21
-0.6897715727192879
 31
0.0
 40
0.7181556087177878
 41
-3.8272465272827225
 42
-3.141592653589793
  0
LINE
  5
5C
330
17
100
AcDbEntity
  8
visible
100
AcDbLine
 10
-56.75999995915733
 20
2.1114373718100623
 30
0.0
 11
-21.959999952970655
 21
22.556130630888656
 31
0.0
  0
ELLIPSE
  5
5D
330
17
100
AcDbEntity
  8
visible
100
AcDbEllipse
 10
-21.959999952970662
 20
21.83797502209905
 30
0.0
 11
0.4052347189819256
 21
-0.6897715727192879
 31
0.0
 40
0.7181556087177878
 41
-3.8272465272827225
 42
-3.141592653589793
  0
ELLIPSE
  5
5E
330
17
100
AcDbEntity
  8
visible
100
AcDbEllipse
 10
-54.519999961248
 20
-7.6700814068939565
 30
0.0
 11
-0.2510196396134485
 21
-0.7595980124568089
 31
0.0
 40
0.5386167066879567
 41
5.262706132313182
 42
6.283185307179586
  0
ELLIPSE
  5
5F
330
17
100
AcDbEntity
  8
visible
100
AcDbEllipse
 10
-54.519999961248
 20
-5.515614580525138
 30
0.0
 11
0.2510196396134485
 21
0.7595980124568089
 31
0.0
 40
0.5386167066879567
 41
-5.732868155251094
 42
-4.162071828456197
  0
ELLIPSE
  5
60
330
17
100
AcDbEntity
  8
visible
100
AcDbEllipse
 10
-47.79999996005333
 20
-0.8495182044651841
 30
0.0
 11
-11.2
 21
3.4628979356602545e-16
 31
0.0
 40
0.4406183892483419
 41
-6.926686416106204
 42
-5.355890089311307
  0
LINE
  5
61
330
17
100
AcDbEntity
  8
visible
100
AcDbLine
 10
5.80000003258667
 20
-28.044275729281033
 30
0.0
 11
-54.99999996133333
 21
-7.952077175984691
 31
0.0
  0
LINE
  5
62
330
17
100
AcDbEntity
  8
visible
100
AcDbLine
 10
5.80000003258667
 20
-25.889808902912215
 30
0.0
 11
-54.99999996133333
 21
-5.797610349615873
 31
0.0
  0
LINE
  5
63
330
17
100
AcDbEntity
  8
visible
100
AcDbLine
 10
5.80000003258667
 20
-28.04427572928103
 30
0.0
 11
5.80000003258667
 21
-25.889808902912222
 31
0.0
  0
ELLIPSE
  5
64
330
17
100
AcDbEntity
  8
visible
100
AcDbEllipse
 10
-12.999999953866663
 20
19.595175054613406
 30
0.0
 11
-11.2
 21
3.4628979356602545e-16
 31
0.0
 40
0.4406183892483419
 41
-2.214297435721514
 42
-0.6435011089266177
  0
LINE
  5
65
330
17
100
AcDbEntity
  8
visible
100
AcDbLine
 10
6.280000032672
 20
-24.889657525031872
 30
0.0
 11
-54.519999961248
 21
-4.79745897173553
 31
0.0
  0
LINE
  5
66
330
17
100
AcDbEntity
  8
visible
100
AcDbLine
 10
-6.279999952671993
 20
23.543115821883752
 30
0.0
 11
54.520000041248004
 21
3.4509172685874105
 31
0.0
  0
ELLIPSE
  5
67
330
17
100
AcDbEntity
  8
visible
100
AcDbEllipse
 10
13.00000003386667
 20
-20.941716757761526
 30
0.0
 11
-11.2
 21
3.4628979356602545e-16
 31
0.0
 40
0.4406183892483419
 41
-5.355890089311307
 42
-3.7850937625164107
  0
ELLIPSE
  5
68
330
17
100
AcDbEntity
  8
visible
100
AcDbEllipse
 10
47.800000040053334
 20
-0.4970234986829354
 30
0.0
 11
-11.2
 21
3.4628979356602545e-16
 31
0.0
 40
0.4406183892483419
 41
-3.7850937625164107
 42
-2.214297435721514
  0
LINE
  5
69
330
17
100
AcDbEntity
  8
visible
100
AcDbLine
 10
56.76000003915733
 20
-3.457979074958182
 30
0.0
 11
21.96000003297066
 21
-23.902672334036776
 31
0.0
  0
ELLIPSE
  5
6A
330
17
100
AcDbEntity
  8
visible
100
AcDbEllipse
 10
-6.279999952671993
 20
22.82496021309415
 30
0.0
 11
-0.2510196396134485
 21
-0.7595980124568089
 31
0.0
 40
0.5386167066879567
 41
3.141592653589793
 42
3.6919098055182857
  0
ELLIPSE
  5
6B
330
17
100
AcDbEntity
  8
visible
100
AcDbEllipse
 10
6.280000032672
 20
-27.76227996019029
 30
0.0
 11
-0.2510196396134485
 21
-0.7595980124568089
 31
0.0
 40
0.5386167066879567
 41
5.262706132313182
 42
6.283185307179586
  0
ELLIPSE
  5
6C
330
17
100
AcDbEntity
  8
visible
100
AcDbEllipse
 10
6.280000032672
 20
-25.607813133821473
 30
0.0
 11
0.2510196396134485
 21
0.7595980124568089
 31
0.0
 40
0.5386167066879567
 41
-5.732868155251094
 42
-4.162071828456197
  0
LINE
  5
6D
330
17
100
AcDbEntity
  8
visible
100
AcDbLine
 10
22.60000003290667
 20
-26.986791596071992
 30
0.0
 11
22.60000003290667
 21
-24.832324769703185
 31
0.0
  0
ELLIPSE
  5
6E
330
17
100
AcDbEntity
  8
visible
100
AcDbEllipse
 10
13.00000003386667
 20
-23.814339192919945
 30
0.0
 11
-12.0
 21
3.710247788207416e-16
 31
0.0
 40
0.4406183892483419
 41
-5.355890089311307
 42
-3.7850937625164107
  0
ELLIPSE
  5
6F
330
17
100
AcDbEntity
  8
visible
100
AcDbEllipse
 10
13.00000003386667
 20
-21.659872366551127
 30
0.0
 11
-12.0
 21
3.710247788207416e-16
 31
0.0
 40
0.4406183892483419
 41
-5.355890089311307
 42
-3.7850937625164107
  0
ELLIPSE
  5
70
330
17
100
AcDbEntity
  8
visible
100
AcDbEllipse
 10
21.96000003297067
 20
-26.77529476919519
 30
0.0
 11
0.4052347189819256
 21
-0.6897715727192879
 31
0.0
 40
0.7181556087177878
 41
-6.283185307179586
 42
-5.3980428540776195
  0
ELLIPSE
  5
71
330
17
100
AcDbEntity
  8
visible
100
AcDbEllipse
 10
47.800000040053334
 20
-3.3696459338413547
 30
0.0
 11
-12.0
 21
3.710247788207416e-16
 31
0.0
 40
0.4406183892483419
 41
-3.7850937625164107
 42
-3.141592653589793
  0
ELLIPSE
  5
72
330
17
100
AcDbEntity
  8
visible
100
AcDbEllipse
 10
56.76000003915733
 20
-6.330601510116601
 30
0.0
 11
0.4052347189819256
 21
-0.6897715727192879
 31
0.0
 40
0.7181556087177878
 41
-6.283185307179586
 42
-5.3980428540776195
  0
LINE
  5
73
330
17
100
AcDbEntity
  8
visible
100
AcDbLine
 10
57.400000039093335
 20
-6.542098336993405
 30
0.0
 11
22.600000032906664
 21
-26.986791596072
 31
0.0
  0
ELLIPSE
  5
74
330
17
100
AcDbEntity
  8
visible
100
AcDbEllipse
 10
54.520000041248004
 20
2.7327616597978164
 30
0.0
 11
-0.2510196396134485
 21
-0.7595980124568089
 31
0.0
 40
0.5386167066879567
 41
3.141592653589793
 42
3.6919098055182857
  0
ELLIPSE
  5
75
330
17
100
AcDbEntity
  8
visible
100
AcDbEllipse
 10
21.96000003297067
 20
-24.620827942826374
 30
0.0
 11
-0.4052347189819256
 21
0.6897715727192879
 31
0.0
 40
0.7181556087177878
 41
4.02673510669176
 42
5.597531433486656
  0
ELLIPSE
  5
76
330
17
100
AcDbEntity
  8
visible
100
AcDbEllipse
 10
47.800000040053334
 20
-1.2151791074725367
 30
0.0
 11
-12.0
 21
3.710247788207416e-16
 31
0.0
 40
0.4406183892483419
 41
-3.7850937625164107
 42
-3.141592653589793
  0
ELLIPSE
  5
77
330
17
100
AcDbEntity
  8
visible
100
AcDbEllipse
 10
56.76000003915733
 20
-4.176134683747783
 30
0.0
 11
-0.4052347189819256
 21
0.6897715727192879
 31
0.0
 40
0.7181556087177878
 41
4.02673510669176
 42
5.597531433486656
  0
LINE
  5
78
330
17
100
AcDbEntity
  8
visible
100
AcDbLine
 10
57.400000039093335
 20
-4.387631510624587
 30
0.0
 11
22.600000032906664
 21
-24.83232476970318
 31
0.0
  0
LINE
  5
79
330
17
100
AcDbEntity
  8
visible
100
AcDbLine
 10
57.400000039093335
 20
-6.542098336993403
 30
0.0
 11
57.400000039093335
 21
-4.387631510624592
 31
0.0
  0
ELLIPSE
  5
7A
330
17
100
AcDbEntity
  8
visible
100
AcDbEllipse
 10
12.940000033922669
 20
-25.693976844702224
 30
0.0
 11
-9.0
 21
2.782685841155562e-16
 31
0.0
 40
0.4406183892483419
 41
-5.219667035010964
 42
-4.247596032467332
  0
ELLIPSE
  5
7B
330
17
100
AcDbEntity
  8
visible
100
AcDbEllipse
 10
-52.479999960952
 20
-8.75660595815259
 30
0.0
 11
-0.1568872747584053
 21
-0.47474875778550557
 31
0.0
 40
0.5386167066879567
 41
5.668396777360988
 42
6.283185307179586
  0
ELLIPSE
  5
7C
330
17
100
AcDbEntity
  8
visible
100
AcDbEllipse
 10
7.8400000330160005
 20
-28.690181891291328
 30
0.0
 11
-0.1568872747584053
 21
-0.47474875778550557
 31
0.0
 40
0.5386167066879567
 41
5.450702408760469
 42
6.283185307179586
  0
LINE
  5
7D
330
17
100
AcDbEntity
  8
visible
100
AcDbLine
 10
-59.79999996005333
 20
-3.722140639623604
 30
0.0
 11
-59.79999996005333
 21
-1.5676738132547885
 31
0.0
  0
LINE
  5
7E
330
17
100
AcDbEntity
  8
visible
100
AcDbLine
 10
-57.16523467813926
 20
2.0830533357397485
 30
0.0
 11
-22.365234671952585
 21
22.527746594818343
 31
0.0
  0
SPLINE
  5
7F
330
17
100
AcDbEntity
  8
visible
100
AcDbSpline
 70
0
 71
3
 72
14
 73
10
 74
0
 40
0.0
 40
0.0
 40
0.0
 40
0.0
 40
0.590576367238735
 40
0.590576367238735
 40
0.590576367238735
 40
0.6860984210241944
 40
0.6860984210241944
 40
0.6860984210241944
 40
1.0
 40
1.0
 40
1.0
 40
1.0
 10
-54.77101960086144
 20
-8.429679419350762
 30
0.0
 10
-56.63630348708547
 20
-7.81163383254569
 30
0.0
 10
-58.108009240413324
 20
-6.950822666036953
 30
0.0
 10
-58.97664379152435
 20
-5.876211764131753
 30
0.0
 10
-59.11733609219164
 20
-5.701973673890387
 30
0.0
 10
-59.241333516383115
 20
-5.521951084074838
 30
0.0
 10
-59.34863606409887
 20
-5.336143994685108
 30
0.0
 10
-59.64052234717684
 20
-4.831530367267586
 30
0.0
 10
-59.80079507587136
 20
-4.279376782054481
 30
0.0
 10
-59.79999996005333
 20
-3.722140639623603
 30
0.0
  0
SPLINE
  5
80
330
17
100
AcDbEntity
  8
visible
100
AcDbSpline
 70
0
 71
3
 72
11
 73
7
 74
0
 40
0.0
 40
0.0
 40
0.0
 40
0.0
 40
0.5
 40
0.5
 40
0.5
 40
1.0
 40
1.0
 40
1.0
 40
1.0
 10
-59.79999996005333
 20
-1.5676738132547854
 30
0.0
 10
-59.80078579658856
 20
-1.0127469626426286
 30
0.0
 10
-59.64185074506979
 20
-0.46281048607567443
 30
0.0
 10
-59.352231793246844
 20
0.04007654677708672
 30
0.0
 10
-58.900454699589794
 20
0.8253206374789526
 30
0.0
 10
-58.14630646472846
 20
1.50597704633275
 30
0.0
 10
-57.16523467813924
 20
2.0830533357397485
 30
0.0
  0
SPLINE
  5
81
330
17
100
AcDbEntity
  8
visible
100
AcDbSpline
 70
0
 71
3
 72
14
 73
10
 74
0
 40
0.0
 40
0.0
 40
0.0
 40
0.0
 40
0.31176241563411444
 40
0.31176241563411444
 40
0.31176241563411444
 40
0.5910714698863424
 40
0.5910714698863424
 40
0.5910714698863424
 40
1.0
 40
1.0
 40
1.0
 40
1.0
 10
-22.365234671952585
 20
22.52774659481834
 30
0.0
 10
-21.181830550754928
 20
23.223511235993524
 30
0.0
 10
-19.653318518100406
 20
23.76886818723859
 30
0.0
 10
-17.93014624178811
 20
24.125820579847804
 30
0.0
 10
-16.388110101244887
 20
24.445991899553775
 30
0.0
 10
-14.693829680283878
 20
24.61253755262288
 30
0.0
 10
-12.998054166422563
 20
24.611946523140652
 30
0.0
 10
-10.513687337732618
 20
24.613684575182884
 30
0.0
 10
-8.03994815566138
 20
24.251635360483267
 30
0.0
 10
-6.028980313058547
 20
23.584558225550964
 30
0.0
  0
LINE
  5
82
330
17
100
AcDbEntity
  8
visible
100
AcDbLine
 10
6.0289803930585535
 20
-28.5218779726471
 30
0.0
 11
-54.77101960086144
 21
-8.429679419350759
 31
0.0
  0
SPLINE
  5
83
330
17
100
AcDbEntity
  8
visible
100
AcDbSpline
 70
0
 71
3
 72
14
 73
10
 74
0
 40
0.0
 40
0.0
 40
0.0
 40
0.0
 40
0.31176241563413293
 40
0.31176241563413293
 40
0.31176241563413293
 40
0.5910714698863564
 40
0.5910714698863564
 40
0.5910714698863564
 40
1.0
 40
1.0
 40
1.0
 40
1.0
 10
22.365234751952592
 20
-27.465066341914483
 30
0.0
 10
21.18183063075496
 20
-28.160830983089635
 30
0.0
 10
19.653318598100512
 20
-28.70618793433472
 30
0.0
 10
17.930146321788122
 20
-29.06314032694395
 30
0.0
 10
16.38811018124486
 20
-29.38331164664991
 30
0.0
 10
14.693829760283908
 20
-29.54985729971902
 30
0.0
 10
12.99805424642257
 20
-29.54926627023679
 30
0.0
 10
10.513687417732635
 20
-29.551004322279027
 30
0.0
 10
8.039948235661408
 20
-29.18895510757941
 30
0.0
 10
6.028980393058554
 20
-28.521877972647104
 30
0.0
  0
SPLINE
  5
84
330
17
100
AcDbEntity
  8
visible
100
AcDbSpline
 70
0
 71
3
 72
11
 73
7
 74
0
 40
0.0
 40
0.0
 40
0.0
 40
0.0
 40
0.5
 40
0.5
 40
0.5
 40
1.0
 40
1.0
 40
1.0
 40
1.0
 10
59.800000040053334
 20
-3.369645933841355
 30
0.0
 10
59.80078587658859
 20
-3.9245727844535043
 30
0.0
 10
59.641850825069795
 20
-4.47450926102046
 30
0.0
 10
59.35223187324685
 20
-4.977396293873227
 30
0.0
 10
58.90045477958979
 20
-5.76264038457509
 30
0.0
 10
58.14630654472849
 20
-6.4432967934289
 30
0.0
 10
57.165234758139256
 20
-7.020373082835889
 30
0.0
  0
LINE
  5
85
330
17
100
AcDbEntity
  8
visible
100
AcDbLine
 10
57.16523475813926
 20
-7.020373082835889
 30
0.0
 11
22.365234751952592
 21
-27.465066341914483
 31
0.0
  0
LINE
  5
86
330
17
100
AcDbEntity
  8
visible
100
AcDbLine
 10
-6.028980313058547
 20
23.584558225550964
 30
0.0
 11
54.77101968086145
 21
3.492359672254622
 31
0.0
  0
SPLINE
  5
87
330
17
100
AcDbEntity
  8
visible
100
AcDbSpline
 70
0
 71
3
 72
14
 73
10
 74
0
 40
0.0
 40
0.0
 40
0.0
 40
0.0
 40
0.5905763672387303
 40
0.5905763672387303
 40
0.5905763672387303
 40
0.6860984210241922
 40
0.6860984210241922
 40
0.6860984210241922
 40
1.0
 40
1.0
 40
1.0
 40
1.0
 10
54.77101968086145
 20
3.492359672254622
 30
0.0
 10
56.63630356708544
 20
2.8743140854495675
 30
0.0
 10
58.108009320413274
 20
2.0135029189408415
 30
0.0
 10
58.976643871524374
 20
0.9388920170356163
 30
0.0
 10
59.117336172191614
 20
0.7646539267942485
 30
0.0
 10
59.241333596383164
 20
0.5846313369786994
 30
0.0
 10
59.348636144098876
 20
0.3988242475889691
 30
0.0
 10
59.64052242717684
 20
-0.10578937982854962
 30
0.0
 10
59.8007951558714
 20
-0.657942965041666
 30
0.0
 10
59.800000040053334
 20
-1.2151791074725367
 30
0.0
  0
LINE
  5
88
330
17
100
AcDbEntity
  8
visible
100
AcDbLine
 10
22.500000040000003
 20
-0.6732708515740597
 30
0.0
 11
22.500000040000003
 21
6.059437980828472
 31
0.0
  0
LINE
  5
89
330
17
100
AcDbEntity
  8
visible
100
AcDbLine
 10
-22.499999959999997
 20
-0.6732708515740597
 30
0.0
 11
-22.499999959999997
 21
6.059437980828472
 31
0.0
  0
LINE
  5
8A
330
17
100
AcDbEntity
  8
visible
100
AcDbLine
 10
59.800000040053334
 20
-3.369645933841355
 30
0.0
 11
59.800000040053334
 21
-1.2151791074725398
 31
0.0
  0
SPLINE
  5
8B
330
17
100
AcDbEntity
  8
visible
100
AcDbSpline
 70
0
 71
2
 72
6
 73
3
 74
0
 40
0.0
 40
0.0
 40
0.0
 40
0.22704324533398365
 40
0.22704324533398365
 40
0.22704324533398365
 10
-52.636887235710404
 20
-9.2313547159381
 30
0.0
 10
-53.34241298436732
 20
-8.99826834146827
 30
0.0
 10
-53.93835746490423
 20
-8.704844106277363
 30
0.0
  0
LINE
  5
8C
330
17
100
AcDbEntity
  8
visible
100
AcDbLine
 10
7.683112758257597
 20
-29.164930649076833
 30
0.0
 11
-52.636887235710404
 21
-9.231354715938092
 31
0.0
  0
SPLINE
  5
8D
330
17
100
AcDbEntity
  8
visible
100
AcDbSpline
 70
0
 71
3
 72
14
 73
10
 74
0
 40
0.0
 40
0.0
 40
0.0
 40
0.0
 40
0.2681543414678034
 40
0.2681543414678034
 40
0.2681543414678034
 40
0.5587786001605194
 40
0.5587786001605194
 40
0.5587786001605194
 40
1.0
 40
1.0
 40
1.0
 40
1.0
 10
19.3285841889035
 20
-28.719802901844446
 30
0.0
 10
18.52935296945712
 20
-29.092614321344136
 30
0.0
 10
17.57686678366343
 20
-29.390833219424323
 30
0.0
 10
16.534624994849693
 20
-29.59796600506069
 30
0.0
 10
15.405758877151882
 20
-29.82284341502081
 30
0.0
 10
14.17259137355645
 20
-29.93964240015309
 30
0.0
 10
12.938531273192282
 20
-29.93923381028406
 30
0.0
 10
11.063779192618494
 20
-29.940633120848535
 30
0.0
 10
9.196695542921963
 20
-29.667115020950227
 30
0.0
 10
7.683112758257594
 20
-29.164930649076837
 30
0.0
  0
ENDSEC
  0
SECTION
  2
OBJECTS
  0
DICTIONARY
  5
A
330
0
100
AcDbDictionary
281
1
  3
ACAD_COLOR
350
B
  3
ACAD_GROUP
350
C
  3
ACAD_LAYOUT
350
D
  3
ACAD_MATERIAL
350
E
  3
ACAD_MLEADERSTYLE
350
F
  3
ACAD_MLINESTYLE
350
10
  3
ACAD_PLOTSETTINGS
350
11
  3
ACAD_PLOTSTYLENAME
350
12
  3
ACAD_SCALELIST
350
14
  3
ACAD_TABLESTYLE
350
15
  3
ACAD_VISUALSTYLE
350
16
  3
EZDXF_META
350
2D
  0
DICTIONARY
  5
B
330
A
100
AcDbDictionary
281
1
  0
DICTIONARY
  5
C
330
A
100
AcDbDictionary
281
1
  0
DICTIONARY
  5
D
330
A
100
AcDbDictionary
281
1
  3
Model
350
1A
  3
Layout1
350
1E
  0
DICTIONARY
  5
E
330
A
100
AcDbDictionary
281
1
  3
ByBlock
350
1F
  3
ByLayer
350
20
  3
Global
350
21
  0
DICTIONARY
  5
F
330
A
100
AcDbDictionary
281
1
  3
Standard
350
2C
  0
DICTIONARY
  5
10
330
A
100
AcDbDictionary
281
1
  3
Standard
350
22
  0
DICTIONARY
  5
11
330
A
100
AcDbDictionary
281
1
  0
ACDBDICTIONARYWDFLT
  5
12
330
A
100
AcDbDictionary
281
1
  3
Normal
350
13
100
AcDbDictionaryWithDefault
340
13
  0
ACDBPLACEHOLDER
  5
13
330
12
  0
DICTIONARY
  5
14
330
A
100
AcDbDictionary
281
1
  0
DICTIONARY
  5
15
330
A
100
AcDbDictionary
281
1
  0
DICTIONARY
  5
16
330
A
100
AcDbDictionary
281
1
  0
LAYOUT
  5
1A
330
D
100
AcDbPlotSettings
  1

  4
A3
  6

 40
7.5
 41
20.0
 42
7.5
 43
20.0
 44
420.0
 45
297.0
 46
0.0
 47
0.0
 48
0.0
 49
0.0
140
0.0
141
0.0
142
1.0
143
1.0
 70
1024
 72
1
 73
0
 74
5
  7

 75
16
 76
0
 77
2
 78
300
147
1.0
148
0.0
149
0.0
100
AcDbLayout
  1
Model
 70
1
 71
0
 10
0.0
 20
0.0
 11
420.0
 21
297.0
 12
0.0
 22
0.0
 32
0.0
 14
1e+20
 24
1e+20
 34
1e+20
 15
-1e+20
 25
-1e+20
 35
-1e+20
146
0.0
 13
0.0
 23
0.0
 33
0.0
 16
1.0
 26
0.0
 36
0.0
 17
0.0
 27
1.0
 37
0.0
 76
1
330
17
  0
LAYOUT
  5
1E
330
D
100
AcDbPlotSettings
  1

  4
A3
  6

 40
7.5
 41
20.0
 42
7.5
 43
20.0
 44
420.0
 45
297.0
 46
0.0
 47
0.0
 48
0.0
 49
0.0
140
0.0
141
0.0
142
1.0
143
1.0
 70
0
 72
1
 73
0
 74
5
  7

 75
16
 76
0
 77
2
 78
300
147
1.0
148
0.0
149
0.0
100
AcDbLayout
  1
Layout1
 70
1
 71
1
 10
0.0
 20
0.0
 11
420.0
 21
297.0
 12
0.0
 22
0.0
 32
0.0
 14
1e+20
 24
1e+20
 34
1e+20
 15
-1e+20
 25
-1e+20
 35
-1e+20
146
0.0
 13
0.0
 23
0.0
 33
0.0
 16
1.0
 26
0.0
 36
0.0
 17
0.0
 27
1.0
 37
0.0
 76
1
330
1B
  0
MATERIAL
  5
1F
102
{ACAD_REACTORS
330
E
102
}
330
E
100
AcDbMaterial
  1
ByBlock
  2

 70
0
 40
1.0
 71
1
 41
1.0
 91
-1023410177
 42
1.0
 72
1
  3

 73
1
 74
1
 75
1
 44
0.5
 73
0
 45
1.0
 46
1.0
 77
1
  4

 78
1
 79
1
170
1
 48
1.0
171
1
  6

172
1
173
1
174
1
140
1.0
141
1.0
175
1
  7

176
1
177
1
178
1
143
1.0
179
1
  8

270
1
271
1
272
1
145
1.0
146
1.0
273
1
  9

274
1
275
1
276
1
 42
1.0
 72
1
  3

 73
1
 74
1
 75
1
 94
63
  0
MATERIAL
  5
20
102
{ACAD_REACTORS
330
E
102
}
330
E
100
AcDbMaterial
  1
ByLayer
  2

 70
0
 40
1.0
 71
1
 41
1.0
 91
-1023410177
 42
1.0
 72
1
  3

 73
1
 74
1
 75
1
 44
0.5
 73
0
 45
1.0
 46
1.0
 77
1
  4

 78
1
 79
1
170
1
 48
1.0
171
1
  6

172
1
173
1
174
1
140
1.0
141
1.0
175
1
  7

176
1
177
1
178
1
143
1.0
179
1
  8

270
1
271
1
272
1
145
1.0
146
1.0
273
1
  9

274
1
275
1
276
1
 42
1.0
 72
1
  3

 73
1
 74
1
 75
1
 94
63
  0
MATERIAL
  5
21
102
{ACAD_REACTORS
330
E
102
}
330
E
100
AcDbMaterial
  1
Global
  2

 70
0
 40
1.0
 71
1
 41
1.0
 91
-1023410177
 42
1.0
 72
1
  3

 73
1
 74
1
 75
1
 44
0.5
 73
0
 45
1.0
 46
1.0
 77
1
  4

 78
1
 79
1
170
1
 48
1.0
171
1
  6

172
1
173
1
174
1
140
1.0
141
1.0
175
1
  7

176
1
177
1
178
1
143
1.0
179
1
  8

270
1
271
1
272
1
145
1.0
146
1.0
273
1
  9

274
1
275
1
276
1
 42
1.0
 72
1
  3

 73
1
 74
1
 75
1
 94
63
  0
MLINESTYLE
  5
22
102
{ACAD_REACTORS
330
10
102
}
330
10
100
AcDbMlineStyle
  2
Standard
 70
0
  3

 62
256
 51
90.0
 52
90.0
 71
2
 49
0.5
 62
256
  6
BYLAYER
 49
-0.5
 62
256
  6
BYLAYER
  0
MLEADERSTYLE
  5
2C
102
{ACAD_REACTORS
330
F
102
}
330
F
100
AcDbMLeaderStyle
179
2
170
2
171
1
172
0
 90
2
 40
0.0
 41
0.0
173
1
 91
-1056964608
 92
-2
290
1
 42
2.0
291
1
 43
8.0
  3
Standard
 44
4.0
300

342
29
174
1
175
1
176
0
178
1
 93
-1056964608
 45
4.0
292
0
297
0
 46
4.0
 94
-1056964608
 47
1.0
 49
1.0
140
1.0
294
1
141
0.0
177
0
142
1.0
295
0
296
0
143
3.75
271
0
272
9
273
9
  0
DICTIONARY
  5
2D
330
A
100
AcDbDictionary
280
1
281
1
  3
CREATED_BY_EZDXF
350
2E
  3
WRITTEN_BY_EZDXF
350
91
  0
DICTIONARYVAR
  5
2E
330
2D
100
DictionaryVariables
280
0
  1
1.4.4 @ 2026-10-03T15:55:09.265038+00:00
  0
DICTIONARYVAR
  5
91
330
2D
100
DictionaryVariables
280
0
  1
1.4.4 @ 2026-10-03T15:55:09.282892+00:00
  0
ENDSEC
  0
EOF
