  0
SECTION
  2
HEADER
  9
$ACADVER
  1
AC1027
  9
$ACADMAINTVER
 70
105
  9
$DWGCODEPAGE
  3
ANSI_1252
  9
$LASTSAVEDBY
  1
ezdxf
  9
$REQUIREDVERSIONS
160
0
  9
$INSBASE
 10
0.0
 20
0.0
 30
0.0
  9
$EXTMIN
 10
1e+20
 20
1e+20
 30
1e+20
  9
$EXTMAX
 10
-1e+20
 20
-1e+20
 30
-1e+20
  9
$LIMMIN
 10
0.0
 20
0.0
  9
$LIMMAX
 10
420.0
 20
297.0
  9
$ORTHOMODE
 70
0
  9
$REGENMODE
 70
1
  9
$FILLMODE
 70
1
  9
$QTEXTMODE
 70
0
  9
$MIRRTEXT
 70
1
  9
$LTSCALE
 40
1.0
  9
$ATTMODE
 70
1
  9
$TEXTSIZE
 40
2.5
  9
$TRACEWID
 40
1.0
  9
$TEXTSTYLE
  7
Standard
  9
$CLAYER
  8
0
  9
$CELTYPE
  6
ByLayer
  9
$CECOLOR
 62
256
  9
$CELTSCALE
 40
1.0
  9
$DISPSILH
 70
0
  9
$DIMSCALE
 40
1.0
  9
$DIMASZ
 40
2.5
  9
$DIMEXO
 40
0.625
  9
$DIMDLI
 40
3.75
  9
$DIMRND
 40
0.0
  9
$DIMDLE
 40
0.0
  9
$DIMEXE
 40
1.25
  9
$DIMTP
 40
0.0
  9
$DIMTM
 40
0.0
  9
$DIMTXT
 40
2.5
  9
$DIMCEN
 40
2.5
  9
$DIMTSZ
 40
0.0
  9
$DIMTOL
 70
0
  9
$DIMLIM
 70
0
  9
$DIMTIH
 70
0
  9
$DIMTOH
 70
0
  9
$DIMSE1
 70
0
  9
$DIMSE2
 70
0
  9
$DIMTAD
 70
1
  9
$DIMZIN
 70
8
  9
$DIMBLK
  1

  9
$DIMASO
 70
1
  9
$DIMSHO
 70
1
  9
$DIMPOST
  1

  9
$DIMAPOST
  1

  9
$DIMALT
 70
0
  9
$DIMALTD
 70
3
  9
$DIMALTF
 40
0.03937007874
  9
$DIMLFAC
 40
1.0
  9
$DIMTOFL
 70
1
  9
$DIMTVP
 40
0.0
  9
$DIMTIX
 70
0
  9
$DIMSOXD
 70
0
  9
$DIMSAH
 70
0
  9
$DIMBLK1
  1

  9
$DIMBLK2
  1

  9
$DIMSTYLE
  2
ISO-25
  9
$DIMCLRD
 70
0
  9
$DIMCLRE
 70
0
  9
$DIMCLRT
 70
0
  9
$DIMTFAC
 40
1.0
  9
$DIMGAP
 40
0.625
  9
$DIMJUST
 70
0
  9
$DIMSD1
 70
0
  9
$DIMSD2
 70
0
  9
$DIMTOLJ
 70
0
  9
$DIMTZIN
 70
8
  9
$DIMALTZ
 70
0
  9
$DIMALTTZ
 70
0
  9
$DIMUPT
 70
0
  9
$DIMDEC
 70
2
  9
$DIMTDEC
 70
2
  9
$DIMALTU
 70
2
  9
$DIMALTTD
 70
3
  9
$DIMTXSTY
  7
Standard
  9
$DIMAUNIT
 70
0
  9
$DIMADEC
 70
0
  9
$DIMALTRND
 40
0.0
  9
$DIMAZIN
 70
0
  9
$DIMDSEP
 70
44
  9
$DIMATFIT
 70
3
  9
$DIMFRAC
 70
0
  9
$DIMLDRBLK
  1

  9
$DIMLUNIT
 70
2
  9
$DIMLWD
 70
-2
  9
$DIMLWE
 70
-2
  9
$DIMTMOVE
 70
0
  9
$DIMFXL
 40
1.0
  9
$DIMFXLON
 70
0
  9
$DIMJOGANG
 40
0.785398163397
  9
$DIMTFILL
 70
0
  9
$DIMTFILLCLR
 70
0
  9
$DIMARCSYM
 70
0
  9
$DIMLTYPE
  6

  9
$DIMLTEX1
  6

  9
$DIMLTEX2
  6

  9
$DIMTXTDIRECTION
 70
0
  9
$LUNITS
 70
2
  9
$LUPREC
 70
4
  9
$SKETCHINC
 40
1.0
  9
$FILLETRAD
 40
10.0
  9
$AUNITS
 70
0
  9
$AUPREC
 70
2
  9
$MENU
  1
.
  9
$ELEVATION
 40
0.0
  9
$PELEVATION
 40
0.0
  9
$THICKNESS
 40
0.0
  9
$LIMCHECK
 70
0
  9
$CHAMFERA
 40
0.0
  9
$CHAMFERB
 40
0.0
  9
$CHAMFERC
 40
0.0
  9
$CHAMFERD
 40
0.0
  9
$SKPOLY
 70
0
  9
$TDCREATE
 40
2461315.92244213
  9
$TDUCREATE
 40
2458532.153996898
  9
$TDUPDATE
 40
2461315.92244213
  9
$TDUUPDATE
 40
2458532.1544311
  9
$TDINDWG
 40
0.0
  9
$TDUSRTIMER
 40
0.0
  9
$USRTIMER
 70
1
  9
$ANGBASE
 50
0.0
  9
$ANGDIR
 70
0
  9
$PDMODE
 70
0
  9
$PDSIZE
 40
0.0
  9
$PLINEWID
 40
0.0
  9
$SPLFRAME
 70
0
  9
$SPLINETYPE
 70
6
  9
$SPLINESEGS
 70
8
  9
$HANDSEED
  5
A0
  9
$SURFTAB1
 70
6
  9
$SURFTAB2
 70
6
  9
$SURFTYPE
 70
6
  9
$SURFU
 70
6
  9
$SURFV
 70
6
  9
$UCSBASE
  2

  9
$UCSNAME
  2

  9
$UCSORG
 10
0.0
 20
0.0
 30
0.0
  9
$UCSXDIR
 10
1.0
 20
0.0
 30
0.0
  9
$UCSYDIR
 10
0.0
 20
1.0
 30
0.0
  9
$UCSORTHOREF
  2

  9
$UCSORTHOVIEW
 70
0
  9
$UCSORGTOP
 10
0.0
 20
0.0
 30
0.0
  9
$UCSORGBOTTOM
 10
0.0
 20
0.0
 30
0.0
  9
$UCSORGLEFT
 10
0.0
 20
0.0
 30
0.0
  9
$UCSORGRIGHT
 10
0.0
 20
0.0
 30
0.0
  9
$UCSORGFRONT
 10
0.0
 20
0.0
 30
0.0
  9
$UCSORGBACK
 10
0.0
 20
0.0
 30
0.0
  9
$PUCSBASE
  2

  9
$PUCSNAME
  2

  9
$PUCSORG
 10
0.0
 20
0.0
 30
0.0
  9
$PUCSXDIR
 10
1.0
 20
0.0
 30
0.0
  9
$PUCSYDIR
 10
0.0
 20
1.0
 30
0.0
  9
$PUCSORTHOREF
  2

  9
$PUCSORTHOVIEW
 70
0
  9
$PUCSORGTOP
 10
0.0
 20
0.0
 30
0.0
  9
$PUCSORGBOTTOM
 10
0.0
 20
0.0
 30
0.0
  9
$PUCSORGLEFT
 10
0.0
 20
0.0
 30
0.0
  9
$PUCSORGRIGHT
 10
0.0
 20
0.0
 30
0.0
  9
$PUCSORGFRONT
 10
0.0
 20
0.0
 30
0.0
  9
$PUCSORGBACK
 10
0.0
 20
0.0
 30
0.0
  9
$USERI1
 70
0
  9
$USERI2
 70
0
  9
$USERI3
 70
0
  9
$USERI4
 70
0
  9
$USERI5
 70
0
  9
$USERR1
 40
0.0
  9
$USERR2
 40
0.0
  9
$USERR3
 40
0.0
  9
$USERR4
 40
0.0
  9
$USERR5
 40
0.0
  9
$WORLDVIEW
 70
1
  9
$SHADEDGE
 70
3
  9
$SHADEDIF
 70
70
  9
$TILEMODE
 70
1
  9
$MAXACTVP
 70
64
  9
$PINSBASE
 10
0.0
 20
0.0
 30
0.0
  9
$PLIMCHECK
 70
0
  9
$PEXTMIN
 10
1e+20
 20
1e+20
 30
1e+20
  9
$PEXTMAX
 10
-1e+20
 20
-1e+20
 30
-1e+20
  9
$PLIMMIN
 10
0.0
 20
0.0
  9
$PLIMMAX
 10
420.0
 20
297.0
  9
$UNITMODE
 70
0
  9
$VISRETAIN
 70
1
  9
$PLINEGEN
 70
0
  9
$PSLTSCALE
 70
1
  9
$TREEDEPTH
 70
3020
  9
$CMLSTYLE
  2
Standard
  9
$CMLJUST
 70
0
  9
$CMLSCALE
 40
20.0
  9
$PROXYGRAPHICS
 70
1
  9
$MEASUREMENT
 70
1
  9
$CELWEIGHT
370
-1
  9
$ENDCAPS
280
0
  9
$JOINSTYLE
280
0
  9
$LWDISPLAY
290
0
  9
$INSUNITS
 70
4
  9
$HYPERLINKBASE
  1

  9
$STYLESHEET
  1

  9
$XEDIT
290
1
  9
$CEPSNTYPE
380
0
  9
$PSTYLEMODE
290
1
  9
$FINGERPRINTGUID
  2
{2AD8C7F2-BFE3-44D8-8BDD-BDD228B127EB}
  9
$VERSIONGUID
  2
{80495D50-B0FA-40C3-B848-84176814A3EE}
  9
$EXTNAMES
290
1
  9
$PSVPSCALE
 40
0.0
  9
$OLESTARTUP
290
0
  9
$SORTENTS
280
127
  9
$INDEXCTL
280
0
  9
$HIDETEXT
280
1
  9
$XCLIPFRAME
280
1
  9
$HALOGAP
280
0
  9
$OBSCOLOR
 70
257
  9
$OBSLTYPE
280
0
  9
$INTERSECTIONDISPLAY
280
0
  9
$INTERSECTIONCOLOR
 70
257
  9
$DIMASSOC
280
2
  9
$PROJECTNAME
  1

  9
$CAMERADISPLAY
290
0
  9
$LENSLENGTH
 40
50.0
  9
$CAMERAHEIGHT
 40
0.0
  9
$STEPSPERSEC
 40
24.0
  9
$STEPSIZE
 40
100.0
  9
$3DDWFPREC
 40
2.0
  9
$PSOLWIDTH
 40
0.005
  9
$PSOLHEIGHT
 40
0.08
  9
$LOFTANG1
 40
1.570796326795
  9
$LOFTANG2
 40
1.570796326795
  9
$LOFTMAG1
 40
0.0
  9
$LOFTMAG2
 40
0.0
  9
$LOFTPARAM
 70
7
  9
$LOFTNORMALS
280
1
  9
$LATITUDE
 40
37.795
  9
$LONGITUDE
 40
-122.394
  9
$NORTHDIRECTION
 40
0.0
  9
$TIMEZONE
 70
-8000
  9
$LIGHTGLYPHDISPLAY
280
1
  9
$TILEMODELIGHTSYNCH
280
1
  9
$CMATERIAL
347
20
  9
$SOLIDHIST
280
0
  9
$SHOWHIST
280
1
  9
$DWFFRAME
280
2
  9
$DGNFRAME
280
2
  9
$REALWORLDSCALE
290
1
  9
$INTERFERECOLOR
 62
256
  9
$CSHADOW
280
0
  9
$SHADOWPLANELOCATION
 40
0.0
  0
ENDSEC
  0
SECTION
  2
CLASSES
  0
CLASS
  1
ACDBDICTIONARYWDFLT
  2
AcDbDictionaryWithDefault
  3
ObjectDBX Classes
 90
0
 91
0
280
0
281
0
  0
CLASS
  1
SUN
  2
AcDbSun
  3
SCENEOE
 90
1153
 91
0
280
0
281
0
  0
CLASS
  1
VISUALSTYLE
  2
AcDbVisualStyle
  3
ObjectDBX Classes
 90
4095
 91
0
280
0
281
0
  0
CLASS
  1
MATERIAL
  2
AcDbMaterial
  3
ObjectDBX Classes
 90
1153
 91
0
280
0
281
0
  0
CLASS
  1
SCALE
  2
AcDbScale
  3
ObjectDBX Classes
 90
1153
 91
0
280
0
281
0
  0
CLASS
  1
TABLESTYLE
  2
AcDbTableStyle
  3
ObjectDBX Classes
 90
4095
 91
0
280
0
281
0
  0
CLASS
  1
MLEADERSTYLE
  2
AcDbMLeaderStyle
  3
ACDB_MLEADERSTYLE_CLASS
 90
4095
 91
0
280
0
281
0
  0
CLASS
  1
DICTIONARYVAR
  2
AcDbDictionaryVar
  3
ObjectDBX Classes
 90
0
 91
0
280
0
281
0
  0
CLASS
  1
CELLSTYLEMAP
  2
AcDbCellStyleMap
  3
ObjectDBX Classes
 90
1152
 91
0
280
0
281
0
  0
CLASS
  1
MENTALRAYRENDERSETTINGS
  2
AcDbMentalRayRenderSettings
  3
SCENEOE
 90
1024
 91
0
280
0
281
0
  0
CLASS
  1
ACDBDETAILVIEWSTYLE
  2
AcDbDetailViewStyle
  3
ObjectDBX Classes
 90
1025
 91
0
280
0
281
0
  0
CLASS
  1
ACDBSECTIONVIEWSTYLE
  2
AcDbSectionViewStyle
  3
ObjectDBX Classes
 90
1025
 91
0
280
0
281
0
  0
CLASS
  1
RASTERVARIABLES
  2
AcDbRasterVariables
  3
ISM
 90
0
 91
0
280
0
281
0
  0
CLASS
  1
LAYOUT
  2
AcDbLayout
  3
ObjectDBX Classes
 90
0
 91
0
280
0
281
0
  0
CLASS
  1
ACDBPLACEHOLDER
  2
AcDbPlaceHolder
  3
ObjectDBX Classes
 90
0
 91
0
280
0
281
0
  0
ENDSEC
  0
SECTION
  2
TABLES
  0
TABLE
  2
VPORT
  5
8
330
0
100
AcDbSymbolTable
 70
1
  0
VPORT
  5
9C
330
8
100
AcDbSymbolTableRecord
100
AcDbViewportTableRecord
  2
*Active
 70
0
 10
0.0
 20
0.0
 11
1.0
 21
1.0
 12
-4.000000330961484e-08
 22
-2.3123388656692008
 13
0.0
 23
0.0
 14
0.5
 24
0.5
 15
0.5
 25
0.5
 16
0.0
 26
0.0
 36
1.0
 17
0.0
 27
0.0
 37
0.0
 40
64.93409521893827
 41
1.34
 42
50.0
 43
0.0
 44
0.0
 50
0.0
 51
0.0
 71
0
 72
1000
 73
1
 74
3
 75
0
 76
0
 77
0
 78
0
281
0
 65
1
110
0.0
120
0.0
130
0.0
111
1.0
121
0.0
131
0.0
112
0.0
122
1.0
132
0.0
 79
0
146
0.0
  0
ENDTAB
  0
TABLE
  2
LTYPE
  5
2
330
0
100
AcDbSymbolTable
 70
3
  0
LTYPE
  5
24
330
2
100
AcDbSymbolTableRecord
100
AcDbLinetypeTableRecord
  2
ByBlock
 70
0
  3

 72
65
 73
0
 40
0.0
  0
LTYPE
  5
25
330
2
100
AcDbSymbolTableRecord
100
AcDbLinetypeTableRecord
  2
ByLayer
 70
0
  3

 72
65
 73
0
 40
0.0
  0
LTYPE
  5
26
330
2
100
AcDbSymbolTableRecord
100
AcDbLinetypeTableRecord
  2
Continuous
 70
0
  3

 72
65
 73
0
 40
0.0
  0
ENDTAB
  0
TABLE
  2
LAYER
  5
1
330
0
100
AcDbSymbolTable
 70
3
  0
LAYER
  5
27
330
1
100
AcDbSymbolTableRecord
100
AcDbLayerTableRecord
  2
0
 70
0
 62
7
  6
Continuous
370
-3
390
13
347
21
  0
LAYER
  5
28
330
1
100
AcDbSymbolTableRecord
100
AcDbLayerTableRecord
  2
Defpoints
 70
0
 62
7
  6
Continuous
290
0
370
-3
390
13
347
21
  0
LAYER
  5
2F
330
1
100
AcDbSymbolTableRecord
100
AcDbLayerTableRecord
  2
visible
 70
0
 62
7
  6
Continuous
370
-3
390
13
347
21
  0
ENDTAB
  0
TABLE
  2
STYLE
  5
5
330
0
100
AcDbSymbolTable
 70
1
  0
STYLE
  5
29
330
5
100
AcDbSymbolTableRecord
100
AcDbTextStyleTableRecord
  2
Standard
 70
0
 40
0.0
 41
1.0
 50
0.0
 71
0
 42
2.5
  3
txt
  4

  0
ENDTAB
  0
TABLE
  2
VIEW
  5
7
330
0
100
AcDbSymbolTable
 70
0
  0
ENDTAB
  0
TABLE
  2
UCS
  5
6
330
0
100
AcDbSymbolTable
 70
0
  0
ENDTAB
  0
TABLE
  2
APPID
  5
3
330
0
100
AcDbSymbolTable
 70
3
  0
APPID
  5
2A
330
3
100
AcDbSymbolTableRecord
100
AcDbRegAppTableRecord
  2
ACAD
 70
0
  0
APPID
  5
9D
330
3
100
AcDbSymbolTableRecord
100
AcDbRegAppTableRecord
  2
HATCHBACKGROUNDCOLOR
 70
0
  0
APPID
  5
9E
330
3
100
AcDbSymbolTableRecord
100
AcDbRegAppTableRecord
  2
EZDXF
 70
0
  0
ENDTAB
  0
TABLE
  2
DIMSTYLE
  5
4
330
0
100
AcDbSymbolTable
 70
1
100
AcDbDimStyleTable
  0
DIMSTYLE
105
2B
330
4
100
AcDbSymbolTableRecord
100
AcDbDimStyleTableRecord
  2
Standard
 70
0
 40
1.0
 41
2.5
 42
0.625
 43
3.75
 44
1.25
 45
0.0
 46
0.0
 47
0.0
 48
0.0
 49
2.5
140
2.5
141
2.5
142
0.0
143
0.03937007874
144
1.0
145
0.0
146
1.0
147
0.625
148
0.0
 69
0
 70
0
 71
0
 72
0
 73
0
 74
0
 75
0
 76
0
 77
1
 78
8
 79
3
170
0
171
3
172
1
173
0
174
0
175
0
176
0
177
0
178
0
179
2
271
2
272
2
273
2
274
3
275
0
276
0
277
2
278
44
279
0
280
0
281
0
282
0
283
0
284
8
285
0
286
0
288
0
289
3
290
0
371
-2
372
-2
  0
ENDTAB
  0
TABLE
  2
BLOCK_RECORD
  5
9
330
0
100
AcDbSymbolTable
 70
2
  0
BLOCK_RECORD
  5
17
330
9
100
AcDbSymbolTableRecord
100
AcDbBlockTableRecord
  2
*Model_Space
340
1A
 70
0
280
1
281
0
  0
BLOCK_RECORD
  5
1B
330
9
100
AcDbSymbolTableRecord
100
AcDbBlockTableRecord
  2
*Paper_Space
340
1E
 70
0
280
1
281
0
  0
ENDTAB
  0
ENDSEC
  0
SECTION
  2
BLOCKS
  0
BLOCK
  5
18
330
17
100
AcDbEntity
  8
0
100
AcDbBlockBegin
  2
*Model_Space
 70
0
 10
0.0
 20
0.0
 30
0.0
  3
*Model_Space
  1

  0
ENDBLK
  5
19
330
17
100
AcDbEntity
  8
0
100
AcDbBlockEnd
  0
BLOCK
  5
1C
330
1B
100
AcDbEntity
  8
0
100
AcDbBlockBegin
  2
*Paper_Space
 70
0
 10
0.0
 20
0.0
 30
0.0
  3
*Paper_Space
  1

  0
ENDBLK
  5
1D
330
1B
100
AcDbEntity
  8
0
100
AcDbBlockEnd
  0
ENDSEC
  0
SECTION
  2
ENTITIES
  0
ELLIPSE
  5
30
330
17
100
AcDbEntity
  8
visible
100
AcDbEllipse
 10
-4.000000330961484e-08
 20
-4.275260606808438
 30
0.0
 11
15.8
 21
0.0
 31
0.0
 40
0.43577656971953127
 41
0.6698130330543062
 42
2.4717796205354867
  0
ELLIPSE
  5
31
330
17
100
AcDbEntity
  8
visible
100
AcDbEllipse
 10
-59.80000003981333
 20
-1.2851283006192347
 30
0.0
 11
3.2
 21
0.0
 31
0.0
 40
0.43577656971953127
 41
5.639684198519635
 42
6.283185307179586
  0
ELLIPSE
  5
32
330
17
100
AcDbEntity
  8
visible
100
AcDbEllipse
 10
-59.80000003981333
 20
-1.2851283006192347
 30
0.0
 11
3.2
 21
0.0
 31
0.0
 40
0.43577656971953127
 41
0.0
 42
3.141592653589793
  0
ELLIPSE
  5
33
330
17
100
AcDbEntity
  8
visible
100
AcDbEllipse
 10
-59.80000003981333
 20
-1.2851283006192347
 30
0.0
 11
3.2
 21
0.0
 31
0.0
 40
0.43577656971953127
 41
3.141592653589793
 42
5.639684198519635
  0
ELLIPSE
  5
34
330
17
100
AcDbEntity
  8
visible
100
AcDbEllipse
 10
15.399999967706659
 20
-25.862926828431405
 30
0.0
 11
3.2
 21
0.0
 31
0.0
 40
0.43577656971953127
 41
5.639684198519635
 42
6.283185307179586
  0
ELLIPSE
  5
35
330
17
100
AcDbEntity
  8
visible
100
AcDbEllipse
 10
15.399999967706659
 20
-25.862926828431405
 30
0.0
 11
3.2
 21
0.0
 31
0.0
 40
0.43577656971953127
 41
0.0
 42
3.141592653589793
  0
ELLIPSE
  5
36
330
17
100
AcDbEntity
  8
visible
100
AcDbEllipse
 10
15.399999967706659
 20
-25.862926828431405
 30
0.0
 11
3.2
 21
0.0
 31
0.0
 40
0.43577656971953127
 41
3.141592653589793
 42
5.639684198519635
  0
LINE
  5
37
330
17
100
AcDbEntity
  8
visible
100
AcDbLine
 10
6.69999996425333
 20
-14.576313673201048
 30
0.0
 11
-0.5000000364666697
 21
-12.223120197133925
 31
0.0
  0
LINE
  5
38
330
17
100
AcDbEntity
  8
visible
100
AcDbLine
 10
6.6999999642533306
 20
-14.57631367320105
 30
0.0
 11
9.699999963719996
 21
-12.833207394148616
 31
0.0
  0
LINE
  5
39
330
17
100
AcDbEntity
  8
visible
100
AcDbLine
 10
9.699999963719996
 20
-12.833207394148614
 30
0.0
 11
2.499999962999997
 21
-10.480013918081491
 31
0.0
  0
LINE
  5
3A
330
17
100
AcDbEntity
  8
visible
100
AcDbLine
 10
-0.5000000364666688
 20
-12.223120197133923
 30
0.0
 11
2.499999962999997
 21
-10.48001391808149
 31
0.0
  0
ELLIPSE
  5
3B
330
17
100
AcDbEntity
  8
visible
100
AcDbEllipse
 10
-15.400000047706666
 20
24.512844629356806
 30
0.0
 11
3.2
 21
0.0
 31
0.0
 40
0.43577656971953127
 41
5.639684198519635
 42
6.283185307179586
  0
ELLIPSE
  5
3C
330
17
100
AcDbEntity
  8
visible
100
AcDbEllipse
 10
-15.400000047706666
 20
24.512844629356806
 30
0.0
 11
3.2
 21
0.0
 31
0.0
 40
0.43577656971953127
 41
0.0
 42
3.141592653589793
  0
ELLIPSE
  5
3D
330
17
100
AcDbEntity
  8
visible
100
AcDbEllipse
 10
-15.400000047706666
 20
24.512844629356806
 30
0.0
 11
3.2
 21
0.0
 31
0.0
 40
0.43577656971953127
 41
3.141592653589793
 42
5.639684198519635
  0
ELLIPSE
  5
3E
330
17
100
AcDbEntity
  8
visible
100
AcDbEllipse
 10
-4.000000330961484e-08
 20
-0.675041099537296
 30
0.0
 11
22.5
 21
0.0
 31
0.0
 40
0.43577656971953127
 41
5.639684198519635
 42
6.283185307179586
  0
ELLIPSE
  5
3F
330
17
100
AcDbEntity
  8
visible
100
AcDbEllipse
 10
-4.000000330961484e-08
 20
-0.675041099537296
 30
0.0
 11
22.5
 21
0.0
 31
0.0
 40
0.43577656971953127
 41
3.141592653589793
 42
5.639684198519635
  0
ELLIPSE
  5
40
330
17
100
AcDbEntity
  8
visible
100
AcDbEllipse
 10
59.79999995981332
 20
-0.06495389845535726
 30
0.0
 11
3.2
 21
0.0
 31
0.0
 40
0.43577656971953127
 41
5.639684198519635
 42
6.283185307179586
  0
ELLIPSE
  5
41
330
17
100
AcDbEntity
  8
visible
100
AcDbEllipse
 10
59.79999995981332
 20
-0.06495389845535726
 30
0.0
 11
3.2
 21
0.0
 31
0.0
 40
0.43577656971953127
 41
0.0
 42
3.141592653589793
  0
ELLIPSE
  5
42
330
17
100
AcDbEntity
  8
visible
100
AcDbEllipse
 10
59.79999995981332
 20
-0.06495389845535726
 30
0.0
 11
3.2
 21
0.0
 31
0.0
 40
0.43577656971953127
 41
3.141592653589793
 42
5.639684198519635
  0
ELLIPSE
  5
43
330
17
100
AcDbEntity
  8
visible
100
AcDbEllipse
 10
-59.80000003981333
 20
-3.085238054254802
 30
0.0
 11
1.65
 21
0.0
 31
0.0
 40
0.43577656971953127
 41
0.775799621366339
 42
2.365793032223454
  0
LINE
  5
44
330
17
100
AcDbEntity
  8
visible
100
AcDbLine
 10
10.403847890581872
 20
-30.89869467143395
 30
0.0
 11
10.403847890581872
 21
-30.81305325281722
 31
0.0
  0
SPLINE
  5
45
330
17
100
AcDbEntity
  8
visible
100
AcDbSpline
 70
0
 71
3
 72
8
 73
4
 74
0
 40
0.0
 40
0.0
 40
0.0
 40
0.0
 40
0.5771550647479406
 40
0.5771550647479406
 40
0.5771550647479406
 40
0.5771550647479406
 10
10.40384789058187
 20
-30.898694671433944
 30
0.0
 10
10.404098377478558
 20
-31.02993644530822
 30
0.0
 10
10.40019272184728
 20
-31.13040954523533
 30
0.0
 10
10.399999969512017
 20
-31.162184252779834
 30
0.0
  0
SPLINE
  5
46
330
17
100
AcDbEntity
  8
visible
100
AcDbSpline
 70
0
 71
2
 72
6
 73
3
 74
0
 40
0.0
 40
0.0
 40
0.0
 40
1.0
 40
1.0
 40
1.0
 10
10.399999969512017
 20
-31.162184252779838
 30
0.0
 10
10.399969227901213
 20
-31.17320009662985
 30
0.0
 10
10.400853822062315
 20
-31.17339536234516
 30
0.0
  0
SPLINE
  5
47
330
17
100
AcDbEntity
  8
visible
100
AcDbSpline
 70
0
 71
2
 72
6
 73
3
 74
0
 40
0.0
 40
0.0
 40
0.0
 40
1.0
 40
1.0
 40
1.0
 10
10.400853822062317
 20
-31.17339536234516
 30
0.0
 10
10.402761267133926
 20
-31.17354370017068
 30
0.0
 10
10.410956261153792
 20
-31.119091811618397
 30
0.0
  0
ELLIPSE
  5
48
330
17
100
AcDbEntity
  8
visible
100
AcDbEllipse
 10
15.399999967706659
 20
-31.263256089338114
 30
0.0
 11
5.0
 21
0.0
 31
0.0
 40
0.43577656971953127
 41
2.9389257823475283
 42
3.0753799746455073
  0
ELLIPSE
  5
49
330
17
100
AcDbEntity
  8
visible
100
AcDbEllipse
 10
15.399999967706659
 20
-27.663036582066972
 30
0.0
 11
1.65
 21
0.0
 31
0.0
 40
0.43577656971953127
 41
0.775799621366339
 42
2.365793032223454
  0
LINE
  5
4A
330
17
100
AcDbEntity
  8
visible
100
AcDbLine
 10
2.499999962999995
 20
-13.203617478556197
 30
0.0
 11
2.499999962999995
 21
-10.480013918081486
 31
0.0
  0
ELLIPSE
  5
4B
330
17
100
AcDbEntity
  8
visible
100
AcDbEllipse
 10
-15.400000047706666
 20
22.712734875721246
 30
0.0
 11
1.65
 21
0.0
 31
0.0
 40
0.43577656971953127
 41
0.7757996213663259
 42
2.3657930322234675
  0
ELLIPSE
  5
4C
330
17
100
AcDbEntity
  8
visible
100
AcDbEllipse
 10
-4.000000330961484e-08
 20
-0.2250136611284006
 30
0.0
 11
15.8
 21
0.0
 31
0.0
 40
0.43577656971953127
 41
0.24506834542160894
 42
2.8965243081681846
  0
SPLINE
  5
4D
330
17
100
AcDbEntity
  8
visible
100
AcDbSpline
 70
0
 71
3
 72
8
 73
4
 74
0
 40
0.0
 40
0.0
 40
0.0
 40
0.0
 40
1.0
 40
1.0
 40
1.0
 40
1.0
 10
20.249257189869176
 20
-30.3601403650745
 30
0.0
 10
20.242981452349277
 20
-30.47371646846176
 30
0.0
 10
20.22112457136742
 20
-30.55161750203497
 30
0.0
 10
20.181802305200886
 20
-30.563408979620633
 30
0.0
  0
SPLINE
  5
4E
330
17
100
AcDbEntity
  8
visible
100
AcDbSpline
 70
0
 71
2
 72
6
 73
3
 74
0
 40
0.0
 40
0.0
 40
0.0
 40
1.0
 40
1.0
 40
1.0
 10
20.181802305200883
 20
-30.563408979620633
 30
0.0
 10
20.14607447199075
 20
-30.57424549071585
 30
0.0
 10
20.096851893164903
 20
-30.516108043447097
 30
0.0
  0
ELLIPSE
  5
4F
330
17
100
AcDbEntity
  8
visible
100
AcDbEllipse
 10
15.399999967706659
 20
-31.263256089338114
 30
0.0
 11
5.0
 21
0.0
 31
0.0
 40
0.43577656971953127
 41
0.35000678841928046
 42
0.400360570086044
  0
ELLIPSE
  5
50
330
17
100
AcDbEntity
  8
visible
100
AcDbEllipse
 10
59.79999995981332
 20
-1.8650636520909245
 30
0.0
 11
1.65
 21
0.0
 31
0.0
 40
0.43577656971953127
 41
0.775799621366339
 42
2.365793032223454
  0
ELLIPSE
  5
51
330
17
100
AcDbEntity
  8
visible
100
AcDbEllipse
 10
-59.80000003981333
 20
-3.085238054254802
 30
0.0
 11
3.2
 21
0.0
 31
0.0
 40
0.43577656971953127
 41
0.7015977593251219
 42
2.4399948942646716
  0
ELLIPSE
  5
52
330
17
100
AcDbEntity
  8
visible
100
AcDbEllipse
 10
15.399999967706659
 20
-27.663036582066972
 30
0.0
 11
3.2
 21
0.0
 31
0.0
 40
0.43577656971953127
 41
0.7015977593251213
 42
2.4399948942646725
  0
ELLIPSE
  5
53
330
17
100
AcDbEntity
  8
visible
100
AcDbEllipse
 10
-15.400000047706666
 20
22.712734875721246
 30
0.0
 11
3.2
 21
0.0
 31
0.0
 40
0.43577656971953127
 41
0.7015977593251166
 42
2.4399948942646734
  0
ELLIPSE
  5
54
330
17
100
AcDbEntity
  8
visible
100
AcDbEllipse
 10
-4.000000330961484e-08
 20
6.075370476596099
 30
0.0
 11
22.5
 21
0.0
 31
0.0
 40
0.43577656971953127
 41
5.639684198519635
 42
6.283185307179586
  0
ELLIPSE
  5
55
330
17
100
AcDbEntity
  8
visible
100
AcDbEllipse
 10
-4.000000330961484e-08
 20
6.075370476596099
 30
0.0
 11
22.5
 21
0.0
 31
0.0
 40
0.43577656971953127
 41
0.0
 42
3.141592653589793
  0
ELLIPSE
  5
56
330
17
100
AcDbEntity
  8
visible
100
AcDbEllipse
 10
-4.000000330961484e-08
 20
6.075370476596099
 30
0.0
 11
22.5
 21
0.0
 31
0.0
 40
0.43577656971953127
 41
3.141592653589793
 42
5.639684198519635
  0
ELLIPSE
  5
57
330
17
100
AcDbEntity
  8
visible
100
AcDbEllipse
 10
59.79999995981332
 20
-1.8650636520909245
 30
0.0
 11
3.2
 21
0.0
 31
0.0
 40
0.43577656971953127
 41
0.7015977593251219
 42
2.4399948942646716
  0
ELLIPSE
  5
58
330
17
100
AcDbEntity
  8
visible
100
AcDbEllipse
 10
-4.000000330961484e-08
 20
-0.2250136611284006
 30
0.0
 11
18.65
 21
0.0
 31
0.0
 40
0.43577656971953127
 41
0.39803685711381864
 42
2.7435557964759747
  0
ELLIPSE
  5
59
330
17
100
AcDbEntity
  8
visible
100
AcDbEllipse
 10
-20.352816662391746
 20
7.143943634652572
 30
0.0
 11
0.9
 21
0.0
 31
0.0
 40
0.43577656971953127
 41
5.639684198519635
 42
6.283185307179586
  0
ELLIPSE
  5
5A
330
17
100
AcDbEntity
  8
visible
100
AcDbEllipse
 10
-20.352816662391746
 20
7.143943634652572
 30
0.0
 11
0.9
 21
0.0
 31
0.0
 40
0.43577656971953127
 41
0.0
 42
3.141592653589793
  0
ELLIPSE
  5
5B
330
17
100
AcDbEntity
  8
visible
100
AcDbEllipse
 10
-20.352816662391746
 20
7.143943634652572
 30
0.0
 11
0.9
 21
0.0
 31
0.0
 40
0.43577656971953127
 41
3.141592653589793
 42
5.639684198519635
  0
ELLIPSE
  5
5C
330
17
100
AcDbEntity
  8
visible
100
AcDbEllipse
 10
8.052816584578395
 20
-2.139938425575366
 30
0.0
 11
0.9
 21
0.0
 31
0.0
 40
0.43577656971953127
 41
5.639684198519635
 42
6.283185307179586
  0
ELLIPSE
  5
5D
330
17
100
AcDbEntity
  8
visible
100
AcDbEllipse
 10
8.052816584578395
 20
-2.139938425575366
 30
0.0
 11
0.9
 21
0.0
 31
0.0
 40
0.43577656971953127
 41
0.0
 42
3.141592653589793
  0
ELLIPSE
  5
5E
330
17
100
AcDbEntity
  8
visible
100
AcDbEllipse
 10
8.052816584578395
 20
-2.139938425575366
 30
0.0
 11
0.9
 21
0.0
 31
0.0
 40
0.43577656971953127
 41
3.141592653589793
 42
5.639684198519635
  0
ELLIPSE
  5
5F
330
17
100
AcDbEntity
  8
visible
100
AcDbEllipse
 10
-4.000000330961484e-08
 20
6.075370476596099
 30
0.0
 11
18.65
 21
0.0
 31
0.0
 40
0.43577656971953127
 41
5.639684198519635
 42
6.283185307179586
  0
ELLIPSE
  5
60
330
17
100
AcDbEntity
  8
visible
100
AcDbEllipse
 10
-4.000000330961484e-08
 20
6.075370476596099
 30
0.0
 11
18.65
 21
0.0
 31
0.0
 40
0.43577656971953127
 41
0.0
 42
3.141592653589793
  0
ELLIPSE
  5
61
330
17
100
AcDbEntity
  8
visible
100
AcDbEllipse
 10
-4.000000330961484e-08
 20
6.075370476596099
 30
0.0
 11
18.65
 21
0.0
 31
0.0
 40
0.43577656971953127
 41
3.141592653589793
 42
5.639684198519635
  0
ELLIPSE
  5
62
330
17
100
AcDbEntity
  8
visible
100
AcDbEllipse
 10
12.29999995781333
 20
13.222106220711083
 30
0.0
 11
0.9
 21
0.0
 31
0.0
 40
0.43577656971953127
 41
5.639684198519635
 42
6.283185307179586
  0
ELLIPSE
  5
63
330
17
100
AcDbEntity
  8
visible
100
AcDbEllipse
 10
12.29999995781333
 20
13.222106220711083
 30
0.0
 11
0.9
 21
0.0
 31
0.0
 40
0.43577656971953127
 41
0.0
 42
3.141592653589793
  0
ELLIPSE
  5
64
330
17
100
AcDbEntity
  8
visible
100
AcDbEllipse
 10
12.29999995781333
 20
13.222106220711083
 30
0.0
 11
0.9
 21
0.0
 31
0.0
 40
0.43577656971953127
 41
3.141592653589793
 42
5.639684198519635
  0
ELLIPSE
  5
65
330
17
100
AcDbEntity
  8
visible
100
AcDbEllipse
 10
-50.00000004
 20
-3.555216708259387
 30
0.0
 11
-14.0
 21
-0.0
 31
0.0
 40
0.43577656971953127
 41
-6.283185307179586
 42
-5.355890089044641
  0
ELLIPSE
  5
66
330
17
100
AcDbEntity
  8
visible
100
AcDbEllipse
 10
-50.00000004
 20
-1.3950850038966962
 30
0.0
 11
-14.0
 21
-0.0
 31
0.0
 40
0.43577656971953127
 41
-6.283185307179586
 42
-5.355890089044641
  0
LINE
  5
67
330
17
100
AcDbEntity
  8
visible
100
AcDbLine
 10
-58.40000003850667
 20
-8.435914289606206
 30
0.0
 11
-58.40000003850667
 21
-6.2757825852435225
 31
0.0
  0
ELLIPSE
  5
68
330
17
100
AcDbEntity
  8
visible
100
AcDbEllipse
 10
-60.560000041056
 20
2.0562654276684214
 30
0.0
 11
0.401910282967323
 21
-0.6917139036083679
 31
0.0
 40
0.7200439015262325
 41
-3.8205536926044523
 42
-3.141592653589793
  0
LINE
  5
69
330
17
100
AcDbEntity
  8
visible
100
AcDbLine
 10
-60.560000041056
 20
2.7763093291226397
 30
0.0
 11
-24.560000047456
 21
23.693584677751865
 31
0.0
  0
ELLIPSE
  5
6A
330
17
100
AcDbEntity
  8
visible
100
AcDbEllipse
 10
-24.560000047456
 20
22.97354077629764
 30
0.0
 11
0.401910282967323
 21
-0.6917139036083679
 31
0.0
 40
0.7200439015262325
 41
-3.8205536926044523
 42
-3.141592653589793
  0
ELLIPSE
  5
6B
330
17
100
AcDbEntity
  8
visible
100
AcDbEllipse
 10
-57.92000003859201
 20
-8.157017284957817
 30
0.0
 11
-0.2485288085927614
 21
-0.7604166169274991
 31
0.0
 40
0.5400329259946651
 41
5.256629339487548
 42
6.283185307179586
  0
ELLIPSE
  5
6C
330
17
100
AcDbEntity
  8
visible
100
AcDbEllipse
 10
-57.92000003859201
 20
-5.996885580595126
 30
0.0
 11
0.2485288085927614
 21
0.7604166169274991
 31
0.0
 40
0.5400329259946651
 41
-5.738944948076728
 42
-4.168148621281832
  0
ELLIPSE
  5
6D
330
17
100
AcDbEntity
  8
visible
100
AcDbEllipse
 10
-50.00000004
 20
-0.6750411024424707
 30
0.0
 11
-13.2
 21
-0.0
 31
0.0
 40
0.43577656971953127
 41
-6.926686415839537
 42
-5.355890089044641
  0
LINE
  5
6E
330
17
100
AcDbEntity
  8
visible
100
AcDbLine
 10
5.599999967893332
 20
-29.353189632425078
 30
0.0
 11
-58.40000003850667
 21
-8.435914289606202
 31
0.0
  0
LINE
  5
6F
330
17
100
AcDbEntity
  8
visible
100
AcDbLine
 10
5.599999967893332
 20
-27.193057928062387
 30
0.0
 11
-58.40000003850667
 21
-6.275782585243512
 31
0.0
  0
LINE
  5
70
330
17
100
AcDbEntity
  8
visible
100
AcDbLine
 10
5.599999967893332
 20
-29.353189632425075
 30
0.0
 11
5.599999967893332
 21
-27.19305792806239
 31
0.0
  0
ELLIPSE
  5
71
330
17
100
AcDbEntity
  8
visible
100
AcDbEllipse
 10
-14.000000046400004
 20
20.242234246186754
 30
0.0
 11
-13.2
 21
-0.0
 31
0.0
 40
0.43577656971953127
 41
-2.2142974354548475
 42
-0.6435011086599511
  0
LINE
  5
72
330
17
100
AcDbEntity
  8
visible
100
AcDbLine
 10
6.079999967807996
 20
-26.194117021959777
 30
0.0
 11
-57.92000003859201
 21
-5.276841679140901
 31
0.0
  0
LINE
  5
73
330
17
100
AcDbEntity
  8
visible
100
AcDbLine
 10
-6.080000047808003
 20
24.84403482288519
 30
0.0
 11
57.919999958592
 21
3.926759480066316
 31
0.0
  0
ELLIPSE
  5
74
330
17
100
AcDbEntity
  8
visible
100
AcDbEllipse
 10
13.999999966399997
 20
-21.592316445261346
 30
0.0
 11
-13.2
 21
-0.0
 31
0.0
 40
0.43577656971953127
 41
-5.355890089044641
 42
-3.785093762249744
  0
ELLIPSE
  5
75
330
17
100
AcDbEntity
  8
visible
100
AcDbEllipse
 10
49.99999996
 20
-0.6750410966321212
 30
0.0
 11
-13.2
 21
-0.0
 31
0.0
 40
0.43577656971953127
 41
-3.785093762249744
 42
-2.2142974354548475
  0
LINE
  5
76
330
17
100
AcDbEntity
  8
visible
100
AcDbLine
 10
60.55999996105599
 20
-4.126391528197232
 30
0.0
 11
24.559999967455994
 21
-25.043666876826457
 31
0.0
  0
ELLIPSE
  5
77
330
17
100
AcDbEntity
  8
visible
100
AcDbEllipse
 10
-6.080000047808003
 20
24.12399092143096
 30
0.0
 11
-0.2485288085927614
 21
-0.7604166169274991
 31
0.0
 40
0.5400329259946651
 41
3.1415926535897936
 42
3.685833012692651
  0
ELLIPSE
  5
78
330
17
100
AcDbEntity
  8
visible
100
AcDbEllipse
 10
6.079999967807996
 20
-29.074292627776693
 30
0.0
 11
-0.2485288085927614
 21
-0.7604166169274991
 31
0.0
 40
0.5400329259946651
 41
5.256629339487548
 42
6.283185307179586
  0
ELLIPSE
  5
79
330
17
100
AcDbEntity
  8
visible
100
AcDbEllipse
 10
6.079999967807996
 20
-26.914160923414002
 30
0.0
 11
0.2485288085927614
 21
0.7604166169274991
 31
0.0
 40
0.5400329259946651
 41
-5.738944948076728
 42
-4.168148621281832
  0
LINE
  5
7A
330
17
100
AcDbEntity
  8
visible
100
AcDbLine
 10
25.199999967519993
 20
-28.13301523607156
 30
0.0
 11
25.199999967519993
 21
-25.972883531708877
 31
0.0
  0
ELLIPSE
  5
7B
330
17
100
AcDbEntity
  8
visible
100
AcDbEllipse
 10
13.999999966399997
 20
-24.472492051078262
 30
0.0
 11
-14.0
 21
-0.0
 31
0.0
 40
0.43577656971953127
 41
-5.355890089044641
 42
-3.785093762249744
  0
ELLIPSE
  5
7C
330
17
100
AcDbEntity
  8
visible
100
AcDbEllipse
 10
13.999999966399997
 20
-22.312360346715572
 30
0.0
 11
-14.0
 21
-0.0
 31
0.0
 40
0.43577656971953127
 41
-5.355890089044641
 42
-3.785093762249744
  0
ELLIPSE
  5
7D
330
17
100
AcDbEntity
  8
visible
100
AcDbEllipse
 10
24.559999967455994
 20
-27.923842482643376
 30
0.0
 11
0.401910282967323
 21
-0.6917139036083679
 31
0.0
 40
0.7200439015262325
 41
-6.283185307179586
 42
-5.391350019399349
  0
ELLIPSE
  5
7E
330
17
100
AcDbEntity
  8
visible
100
AcDbEllipse
 10
49.99999996
 20
-3.5552167024490373
 30
0.0
 11
-14.0
 21
-0.0
 31
0.0
 40
0.43577656971953127
 41
-3.785093762249744
 42
-3.141592653589793
  0
ELLIPSE
  5
7F
330
17
100
AcDbEntity
  8
visible
100
AcDbEllipse
 10
60.55999996105599
 20
-7.006567134014148
 30
0.0
 11
0.401910282967323
 21
-0.6917139036083679
 31
0.0
 40
0.7200439015262325
 41
-6.283185307179586
 42
-5.391350019399349
  0
LINE
  5
80
330
17
100
AcDbEntity
  8
visible
100
AcDbLine
 10
61.19999996111999
 20
-7.215739887442339
 30
0.0
 11
25.199999967519993
 21
-28.133015236071564
 31
0.0
  0
ELLIPSE
  5
81
330
17
100
AcDbEntity
  8
visible
100
AcDbEllipse
 10
57.919999958592
 20
3.2067155786120836
 30
0.0
 11
-0.2485288085927614
 21
-0.7604166169274991
 31
0.0
 40
0.5400329259946651
 41
3.1415926535897936
 42
3.685833012692651
  0
ELLIPSE
  5
82
330
17
100
AcDbEntity
  8
visible
100
AcDbEllipse
 10
24.559999967455994
 20
-25.763710778280686
 30
0.0
 11
-0.401910282967323
 21
0.6917139036083679
 31
0.0
 40
0.7200439015262325
 41
4.0334279413700305
 42
5.604224268164927
  0
ELLIPSE
  5
83
330
17
100
AcDbEntity
  8
visible
100
AcDbEllipse
 10
49.99999996
 20
-1.3950849980863467
 30
0.0
 11
-14.0
 21
-0.0
 31
0.0
 40
0.43577656971953127
 41
-3.785093762249744
 42
-3.141592653589793
  0
ELLIPSE
  5
84
330
17
100
AcDbEntity
  8
visible
100
AcDbEllipse
 10
60.55999996105599
 20
-4.846435429651464
 30
0.0
 11
-0.401910282967323
 21
0.6917139036083679
 31
0.0
 40
0.7200439015262325
 41
4.0334279413700305
 42
5.604224268164927
  0
LINE
  5
85
330
17
100
AcDbEntity
  8
visible
100
AcDbLine
 10
61.19999996111999
 20
-5.055608183079649
 30
0.0
 11
25.199999967519993
 21
-25.972883531708874
 31
0.0
  0
LINE
  5
86
330
17
100
AcDbEntity
  8
visible
100
AcDbLine
 10
61.19999996111999
 20
-7.215739887442337
 30
0.0
 11
61.19999996111999
 21
-5.055608183079652
 31
0.0
  0
ELLIPSE
  5
87
330
17
100
AcDbEntity
  8
visible
100
AcDbEllipse
 10
-55.880000038888
 20
-9.259719516742827
 30
0.0
 11
-0.15533050537047588
 21
-0.47526038557968686
 31
0.0
 40
0.5400329259946651
 41
5.593135283669931
 42
6.283185307179586
  0
ELLIPSE
  5
88
330
17
100
AcDbEntity
  8
visible
100
AcDbEllipse
 10
13.939999966343997
 20
-26.35959210848044
 30
0.0
 11
-11.0
 21
-0.0
 31
0.0
 40
0.4357765697195313
 41
-5.246484491573998
 42
-5.039668740480249
  0
ELLIPSE
  5
89
330
17
100
AcDbEntity
  8
visible
100
AcDbEllipse
 10
7.6399999674639965
 20
-30.02011529449056
 30
0.0
 11
-0.15533050537047588
 21
-0.47526038557968686
 31
0.0
 40
0.5400329259946651
 41
5.417914800408247
 42
6.283185307179586
  0
LINE
  5
8A
330
17
100
AcDbEntity
  8
visible
100
AcDbLine
 10
-64.00000004
 20
-3.555216708259387
 30
0.0
 11
-64.00000004
 21
-1.3950850038966967
 31
0.0
  0
LINE
  5
8B
330
17
100
AcDbEntity
  8
visible
100
AcDbLine
 10
-60.96191032402333
 20
2.747979331276788
 30
0.0
 11
-24.96191033042333
 21
23.665254679906013
 31
0.0
  0
SPLINE
  5
8C
330
17
100
AcDbEntity
  8
visible
100
AcDbSpline
 70
0
 71
3
 72
14
 73
10
 74
0
 40
0.0
 40
0.0
 40
0.0
 40
0.0
 40
0.587620872691839
 40
0.587620872691839
 40
0.587620872691839
 40
0.678008464225941
 40
0.678008464225941
 40
0.678008464225941
 40
1.0
 40
1.0
 40
1.0
 40
1.0
 10
-58.16852884718476
 20
-8.917433901885317
 30
0.0
 10
-60.38887115728586
 20
-8.190063396484737
 30
0.0
 10
-62.1254556735339
 20
-7.172531604684586
 30
0.0
 10
-63.11749528431693
 20
-5.912579229521138
 30
0.0
 10
-63.2703390682844
 20
-5.718298980318729
 30
0.0
 10
-63.404656894072176
 20
-5.518116046352979
 30
0.0
 10
-63.52044876168006
 20
-5.312030427623874
 30
0.0
 10
-63.831494109635436
 20
-4.759198760563425
 30
0.0
 10
-64.00077083801551
 20
-4.159600218003622
 30
0.0
 10
-64.00000004
 20
-3.5552167082593864
 30
0.0
  0
SPLINE
  5
8D
330
17
100
AcDbEntity
  8
visible
100
AcDbSpline
 70
0
 71
3
 72
14
 73
10
 74
0
 40
0.0
 40
0.0
 40
0.0
 40
0.0
 40
0.3001892045682868
 40
0.3001892045682868
 40
0.3001892045682868
 40
0.6003784091365736
 40
0.6003784091365736
 40
0.6003784091365736
 40
1.0
 40
1.0
 40
1.0
 40
1.0
 10
-64.00000004
 20
-1.3950850038966962
 30
0.0
 10
-64.00076771628653
 20
-0.7915555766425284
 30
0.0
 10
-63.83197332323942
 20
-0.19278131960063838
 30
0.0
 10
-63.52175801311546
 20
0.3593922896067312
 30
0.0
 10
-63.30051038465082
 20
0.7518337662513497
 30
0.0
 10
-63.014464341897984
 20
1.1225551369948814
 30
0.0
 10
-62.663619884857134
 20
1.4715564018373308
 30
0.0
 10
-62.19611227215757
 20
1.9361037179719676
 30
0.0
 10
-61.62887575187966
 20
2.3615780277851206
 30
0.0
 10
-60.96191032402332
 20
2.747979331276781
 30
0.0
  0
SPLINE
  5
8E
330
17
100
AcDbEntity
  8
visible
100
AcDbSpline
 70
0
 71
3
 72
17
 73
13
 74
0
 40
0.0
 40
0.0
 40
0.0
 40
0.0
 40
0.19138951280078406
 40
0.19138951280078406
 40
0.19138951280078406
 40
0.44136432266766373
 40
0.44136432266766373
 40
0.44136432266766373
 40
0.7987496209466964
 40
0.7987496209466964
 40
0.7987496209466964
 40
1.0
 40
1.0
 40
1.0
 40
1.0
 10
-24.961910330423322
 20
23.665254679906006
 30
0.0
 10
-24.114381696900285
 20
24.15774879119872
 30
0.0
 10
-23.114857250738016
 20
24.585647265402145
 30
0.0
 10
-22.000512669007904
 20
24.93846314050972
 30
0.0
 10
-20.54594672008447
 20
25.399404738213516
 30
0.0
 10
-18.894762024020523
 20
25.730601065360656
 30
0.0
 10
-17.162769853265765
 20
25.911367586620717
 30
0.0
 10
-14.687252945358782
 20
26.171757253733848
 30
0.0
 10
-12.051208874419972
 20
26.119019909490603
 30
0.0
 10
-9.638199809235676
 20
25.76030387166099
 30
0.0
 10
-8.278904606204803
 20
25.559265866194767
 30
0.0
 10
-6.990549480314791
 20
25.263391495318697
 30
0.0
 10
-5.831471239215244
 20
24.88440753835846
 30
0.0
  0
LINE
  5
8F
330
17
100
AcDbEntity
  8
visible
100
AcDbLine
 10
5.831471159215237
 20
-29.834709244704186
 30
0.0
 11
-58.16852884718476
 21
-8.91743390188531
 31
0.0
  0
SPLINE
  5
90
330
17
100
AcDbEntity
  8
visible
100
AcDbSpline
 70
0
 71
3
 72
17
 73
13
 74
0
 40
0.0
 40
0.0
 40
0.0
 40
0.0
 40
0.19138951280076832
 40
0.19138951280076832
 40
0.19138951280076832
 40
0.44136432266760084
 40
0.44136432266760084
 40
0.44136432266760084
 40
0.7987496209466567
 40
0.7987496209466567
 40
0.7987496209466567
 40
1.0
 40
1.0
 40
1.0
 40
1.0
 10
24.961910250423315
 20
-28.615556386251733
 30
0.0
 10
24.114381616900296
 20
-29.108050497544454
 30
0.0
 10
23.11485717073797
 20
-29.53594897174787
 30
0.0
 10
22.00051258900791
 20
-29.888764846855477
 30
0.0
 10
20.545946640084527
 20
-30.34970644455922
 30
0.0
 10
18.894761944020548
 20
-30.68090277170638
 30
0.0
 10
17.16276977326575
 20
-30.86166929296643
 30
0.0
 10
14.687252865358364
 20
-31.12205896007959
 30
0.0
 10
12.051208794419784
 20
-31.06932161583631
 30
0.0
 10
9.638199729235657
 20
-30.71060557800672
 30
0.0
 10
8.278904526204816
 20
-30.509567572540533
 30
0.0
 10
6.990549400314764
 20
-30.213693201664423
 30
0.0
 10
5.831471159215237
 20
-29.834709244704182
 30
0.0
  0
SPLINE
  5
91
330
17
100
AcDbEntity
  8
visible
100
AcDbSpline
 70
0
 71
3
 72
14
 73
10
 74
0
 40
0.0
 40
0.0
 40
0.0
 40
0.0
 40
0.30018920456827847
 40
0.30018920456827847
 40
0.30018920456827847
 40
0.6003784091365569
 40
0.6003784091365569
 40
0.6003784091365569
 40
1.0
 40
1.0
 40
1.0
 40
1.0
 10
63.99999996
 20
-3.5552167024490378
 30
0.0
 10
64.00076763628653
 20
-4.158746129703204
 30
0.0
 10
63.831973243239446
 20
-4.757520386745086
 30
0.0
 10
63.521757933115445
 20
-5.3096939959524585
 30
0.0
 10
63.3005103046508
 20
-5.702135472597084
 30
0.0
 10
63.01446426189798
 20
-6.072856843340612
 30
0.0
 10
62.663619804857134
 20
-6.421858108183055
 30
0.0
 10
62.196112192157564
 20
-6.886405424317692
 30
0.0
 10
61.628875671879676
 20
-7.311879734130852
 30
0.0
 10
60.96191024402332
 20
-7.6982810376225075
 30
0.0
  0
LINE
  5
92
330
17
100
AcDbEntity
  8
visible
100
AcDbLine
 10
60.96191024402332
 20
-7.698281037622515
 30
0.0
 11
24.961910250423323
 21
-28.61555638625174
 31
0.0
  0
LINE
  5
93
330
17
100
AcDbEntity
  8
visible
100
AcDbLine
 10
-5.831471239215244
 20
24.88440753835846
 30
0.0
 11
58.16852876718475
 21
3.967132195539584
 31
0.0
  0
SPLINE
  5
94
330
17
100
AcDbEntity
  8
visible
100
AcDbSpline
 70
0
 71
3
 72
14
 73
10
 74
0
 40
0.0
 40
0.0
 40
0.0
 40
0.0
 40
0.5876208726918384
 40
0.5876208726918384
 40
0.5876208726918384
 40
0.678008464225936
 40
0.678008464225936
 40
0.678008464225936
 40
1.0
 40
1.0
 40
1.0
 40
1.0
 10
58.16852876718475
 20
3.967132195539584
 30
0.0
 10
60.388871077285835
 20
3.2397616901390287
 30
0.0
 10
62.125455593533786
 20
2.2222298983389095
 30
0.0
 10
63.117495204316945
 20
0.9622775231754177
 30
0.0
 10
63.2703389882844
 20
0.7679972739730047
 30
0.0
 10
63.40465681407218
 20
0.5678143400072482
 30
0.0
 10
63.52044868168003
 20
0.3617287212781477
 30
0.0
 10
63.83149402963545
 20
-0.19110294578231096
 30
0.0
 10
64.00077075801549
 20
-0.7907014883420883
 30
0.0
 10
63.99999996
 20
-1.3950849980863467
 30
0.0
  0
LINE
  5
95
330
17
100
AcDbEntity
  8
visible
100
AcDbLine
 10
22.499999959999997
 20
-0.675041099537296
 30
0.0
 11
22.499999959999997
 21
6.075370476596094
 31
0.0
  0
LINE
  5
96
330
17
100
AcDbEntity
  8
visible
100
AcDbLine
 10
-22.500000040000003
 20
-0.675041099537296
 30
0.0
 11
-22.500000040000003
 21
6.075370476596094
 31
0.0
  0
LINE
  5
97
330
17
100
AcDbEntity
  8
visible
100
AcDbLine
 10
63.99999996
 20
-3.5552167024490373
 30
0.0
 11
63.99999996
 21
-1.3950849980863471
 31
0.0
  0
SPLINE
  5
98
330
17
100
AcDbEntity
  8
visible
100
AcDbSpline
 70
0
 71
2
 72
6
 73
3
 74
0
 40
0.0
 40
0.0
 40
0.0
 40
0.647130398019578
 40
0.647130398019578
 40
0.647130398019578
 10
-56.035330544258485
 20
-9.734979902322518
 30
0.0
 10
-56.91319406428943
 20
-9.448110969615318
 30
0.0
 10
-57.65066221097367
 20
-9.086689511563502
 30
0.0
  0
SPLINE
  5
99
330
17
100
AcDbEntity
  8
visible
100
AcDbSpline
 70
0
 71
3
 72
8
 73
4
 74
0
 40
0.0
 40
0.0
 40
0.0
 40
0.0
 40
1.0
 40
1.0
 40
1.0
 40
1.0
 10
10.400853830814558
 20
-31.17339535708361
 30
0.0
 10
9.35964322074734
 20
-31.01493524708863
 30
0.0
 10
8.373234324767486
 20
-30.785909549130285
 30
0.0
 10
7.484669462093522
 20
-30.495375680070254
 30
0.0
  0
SPLINE
  5
9A
330
17
100
AcDbEntity
  8
visible
100
AcDbSpline
 70
0
 71
2
 72
6
 73
3
 74
0
 40
0.0
 40
0.0
 40
0.0
 40
1.0
 40
1.0
 40
1.0
 10
21.777674954016142
 20
-29.957855860628662
 30
0.0
 10
21.04322207459119
 20
-30.295930558188903
 30
0.0
 10
20.181802311577822
 20
-30.563408982306846
 30
0.0
  0
LINE
  5
9B
330
17
100
AcDbEntity
  8
visible
100
AcDbLine
 10
7.484669462093521
 20
-30.49537568007025
 30
0.0
 11
-56.03533054425848
 21
-9.734979902322518
 31
0.0
  0
ENDSEC
  0
SECTION
  2
OBJECTS
  0
DICTIONARY
  5
A
330
0
100
AcDbDictionary
281
1
  3
ACAD_COLOR
350
B
  3
ACAD_GROUP
350
C
  3
ACAD_LAYOUT
350
D
  3
ACAD_MATERIAL
350
E
  3
ACAD_MLEADERSTYLE
350
F
  3
ACAD_MLINESTYLE
350
10
  3
ACAD_PLOTSETTINGS
350
11
  3
ACAD_PLOTSTYLENAME
350
12
  3
ACAD_SCALELIST
350
14
  3
ACAD_TABLESTYLE
350
15
  3
ACAD_VISUALSTYLE
350
16
  3
EZDXF_META
350
2D
  0
DICTIONARY
  5
B
330
A
100
AcDbDictionary
281
1
  0
DICTIONARY
  5
C
330
A
100
AcDbDictionary
281
1
  0
DICTIONARY
  5
D
330
A
100
AcDbDictionary
281
1
  3
Model
350
1A
  3
Layout1
350
1E
  0
DICTIONARY
  5
E
330
A
100
AcDbDictionary
281
1
  3
ByBlock
350
1F
  3
ByLayer
350
20
  3
Global
350
21
  0
DICTIONARY
  5
F
330
A
100
AcDbDictionary
281
1
  3
Standard
350
2C
  0
DICTIONARY
  5
10
330
A
100
AcDbDictionary
281
1
  3
Standard
350
22
  0
DICTIONARY
  5
11
330
A
100
AcDbDictionary
281
1
  0
ACDBDICTIONARYWDFLT
  5
12
330
A
100
AcDbDictionary
281
1
  3
Normal
350
13
100
AcDbDictionaryWithDefault
340
13
  0
ACDBPLACEHOLDER
  5
13
330
12
  0
DICTIONARY
  5
14
330
A
100
AcDbDictionary
281
1
  0
DICTIONARY
  5
15
330
A
100
AcDbDictionary
281
1
  0
DICTIONARY
  5
16
330
A
100
AcDbDictionary
281
1
  0
LAYOUT
  5
1A
330
D
100
AcDbPlotSettings
  1

  4
A3
  6

 40
7.5
 41
20.0
 42
7.5
 43
20.0
 44
420.0
 45
297.0
 46
0.0
 47
0.0
 48
0.0
 49
0.0
140
0.0
141
0.0
142
1.0
143
1.0
 70
1024
 72
1
 73
0
 74
5
  7

 75
16
 76
0
 77
2
 78
300
147
1.0
148
0.0
149
0.0
100
AcDbLayout
  1
Model
 70
1
 71
0
 10
0.0
 20
0.0
 11
420.0
 21
297.0
 12
0.0
 22
0.0
 32
0.0
 14
1e+20
 24
1e+20
 34
1e+20
 15
-1e+20
 25
-1e+20
 35
-1e+20
146
0.0
 13
0.0
 23
0.0
 33
0.0
 16
1.0
 26
0.0
 36
0.0
 17
0.0
 27
1.0
 37
0.0
 76
1
330
17
  0
LAYOUT
  5
1E
330
D
100
AcDbPlotSettings
  1

  4
A3
  6

 40
7.5
 41
20.0
 42
7.5
 43
20.0
 44
420.0
 45
297.0
 46
0.0
 47
0.0
 48
0.0
 49
0.0
140
0.0
141
0.0
142
1.0
143
1.0
 70
0
 72
1
 73
0
 74
5
  7

 75
16
 76
0
 77
2
 78
300
147
1.0
148
0.0
149
0.0
100
AcDbLayout
  1
Layout1
 70
1
 71
1
 10
0.0
 20
0.0
 11
420.0
 21
297.0
 12
0.0
 22
0.0
 32
0.0
 14
1e+20
 24
1e+20
 34
1e+20
 15
-1e+20
 25
-1e+20
 35
-1e+20
146
0.0
 13
0.0
 23
0.0
 33
0.0
 16
1.0
 26
0.0
 36
0.0
 17
0.0
 27
1.0
 37
0.0
 76
1
330
1B
  0
MATERIAL
  5
1F
102
{ACAD_REACTORS
330
E
102
}
330
E
100
AcDbMaterial
  1
ByBlock
  2

 70
0
 40
1.0
 71
1
 41
1.0
 91
-1023410177
 42
1.0
 72
1
  3

 73
1
 74
1
 75
1
 44
0.5
 73
0
 45
1.0
 46
1.0
 77
1
  4

 78
1
 79
1
170
1
 48
1.0
171
1
  6

172
1
173
1
174
1
140
1.0
141
1.0
175
1
  7

176
1
177
1
178
1
143
1.0
179
1
  8

270
1
271
1
272
1
145
1.0
146
1.0
273
1
  9

274
1
275
1
276
1
 42
1.0
 72
1
  3

 73
1
 74
1
 75
1
 94
63
  0
MATERIAL
  5
20
102
{ACAD_REACTORS
330
E
102
}
330
E
100
AcDbMaterial
  1
ByLayer
  2

 70
0
 40
1.0
 71
1
 41
1.0
 91
-1023410177
 42
1.0
 72
1
  3

 73
1
 74
1
 75
1
 44
0.5
 73
0
 45
1.0
 46
1.0
 77
1
  4

 78
1
 79
1
170
1
 48
1.0
171
1
  6

172
1
173
1
174
1
140
1.0
141
1.0
175
1
  7

176
1
177
1
178
1
143
1.0
179
1
  8

270
1
271
1
272
1
145
1.0
146
1.0
273
1
  9

274
1
275
1
276
1
 42
1.0
 72
1
  3

 73
1
 74
1
 75
1
 94
63
  0
MATERIAL
  5
21
102
{ACAD_REACTORS
330
E
102
}
330
E
100
AcDbMaterial
  1
Global
  2

 70
0
 40
1.0
 71
1
 41
1.0
 91
-1023410177
 42
1.0
 72
1
  3

 73
1
 74
1
 75
1
 44
0.5
 73
0
 45
1.0
 46
1.0
 77
1
  4

 78
1
 79
1
170
1
 48
1.0
171
1
  6

172
1
173
1
174
1
140
1.0
141
1.0
175
1
  7

176
1
177
1
178
1
143
1.0
179
1
  8

270
1
271
1
272
1
145
1.0
146
1.0
273
1
  9

274
1
275
1
276
1
 42
1.0
 72
1
  3

 73
1
 74
1
 75
1
 94
63
  0
MLINESTYLE
  5
22
102
{ACAD_REACTORS
330
10
102
}
330
10
100
AcDbMlineStyle
  2
Standard
 70
0
  3

 62
256
 51
90.0
 52
90.0
 71
2
 49
0.5
 62
256
  6
BYLAYER
 49
-0.5
 62
256
  6
BYLAYER
  0
MLEADERSTYLE
  5
2C
102
{ACAD_REACTORS
330
F
102
}
330
F
100
AcDbMLeaderStyle
179
2
170
2
171
1
172
0
 90
2
 40
0.0
 41
0.0
173
1
 91
-1056964608
 92
-2
290
1
 42
2.0
291
1
 43
8.0
  3
Standard
 44
4.0
300

342
29
174
1
175
1
176
0
178
1
 93
-1056964608
 45
4.0
292
0
297
0
 46
4.0
 94
-1056964608
 47
1.0
 49
1.0
140
1.0
294
1
141
0.0
177
0
142
1.0
295
0
296
0
143
3.75
271
0
272
9
273
9
  0
DICTIONARY
  5
2D
330
A
100
AcDbDictionary
280
1
281
1
  3
CREATED_BY_EZDXF
350
2E
  3
WRITTEN_BY_EZDXF
350
9F
  0
DICTIONARYVAR
  5
2E
330
2D
100
DictionaryVariables
280
0
  1
1.4.4 @ 2026-10-01T19:08:19.770369+00:00
  0
DICTIONARYVAR
  5
9F
330
2D
100
DictionaryVariables
280
0
  1
1.4.4 @ 2026-10-01T19:08:19.793349+00:00
  0
ENDSEC
  0
EOF
