  0
SECTION
  2
HEADER
  9
$ACADVER
  1
AC1027
  9
$ACADMAINTVER
 70
105
  9
$DWGCODEPAGE
  3
ANSI_1252
  9
$LASTSAVEDBY
  1
ezdxf
  9
$REQUIREDVERSIONS
160
0
  9
$INSBASE
 10
0.0
 20
0.0
 30
0.0
  9
$EXTMIN
 10
1e+20
 20
1e+20
 30
1e+20
  9
$EXTMAX
 10
-1e+20
 20
-1e+20
 30
-1e+20
  9
$LIMMIN
 10
0.0
 20
0.0
  9
$LIMMAX
 10
420.0
 20
297.0
  9
$ORTHOMODE
 70
0
  9
$REGENMODE
 70
1
  9
$FILLMODE
 70
1
  9
$QTEXTMODE
 70
0
  9
$MIRRTEXT
 70
1
  9
$LTSCALE
 40
1.0
  9
$ATTMODE
 70
1
  9
$TEXTSIZE
 40
2.5
  9
$TRACEWID
 40
1.0
  9
$TEXTSTYLE
  7
Standard
  9
$CLAYER
  8
0
  9
$CELTYPE
  6
ByLayer
  9
$CECOLOR
 62
256
  9
$CELTSCALE
 40
1.0
  9
$DISPSILH
 70
0
  9
$DIMSCALE
 40
1.0
  9
$DIMASZ
 40
2.5
  9
$DIMEXO
 40
0.625
  9
$DIMDLI
 40
3.75
  9
$DIMRND
 40
0.0
  9
$DIMDLE
 40
0.0
  9
$DIMEXE
 40
1.25
  9
$DIMTP
 40
0.0
  9
$DIMTM
 40
0.0
  9
$DIMTXT
 40
2.5
  9
$DIMCEN
 40
2.5
  9
$DIMTSZ
 40
0.0
  9
$DIMTOL
 70
0
  9
$DIMLIM
 70
0
  9
$DIMTIH
 70
0
  9
$DIMTOH
 70
0
  9
$DIMSE1
 70
0
  9
$DIMSE2
 70
0
  9
$DIMTAD
 70
1
  9
$DIMZIN
 70
8
  9
$DIMBLK
  1

  9
$DIMASO
 70
1
  9
$DIMSHO
 70
1
  9
$DIMPOST
  1

  9
$DIMAPOST
  1

  9
$DIMALT
 70
0
  9
$DIMALTD
 70
3
  9
$DIMALTF
 40
0.03937007874
  9
$DIMLFAC
 40
1.0
  9
$DIMTOFL
 70
1
  9
$DIMTVP
 40
0.0
  9
$DIMTIX
 70
0
  9
$DIMSOXD
 70
0
  9
$DIMSAH
 70
0
  9
$DIMBLK1
  1

  9
$DIMBLK2
  1

  9
$DIMSTYLE
  2
ISO-25
  9
$DIMCLRD
 70
0
  9
$DIMCLRE
 70
0
  9
$DIMCLRT
 70
0
  9
$DIMTFAC
 40
1.0
  9
$DIMGAP
 40
0.625
  9
$DIMJUST
 70
0
  9
$DIMSD1
 70
0
  9
$DIMSD2
 70
0
  9
$DIMTOLJ
 70
0
  9
$DIMTZIN
 70
8
  9
$DIMALTZ
 70
0
  9
$DIMALTTZ
 70
0
  9
$DIMUPT
 70
0
  9
$DIMDEC
 70
2
  9
$DIMTDEC
 70
2
  9
$DIMALTU
 70
2
  9
$DIMALTTD
 70
3
  9
$DIMTXSTY
  7
Standard
  9
$DIMAUNIT
 70
0
  9
$DIMADEC
 70
0
  9
$DIMALTRND
 40
0.0
  9
$DIMAZIN
 70
0
  9
$DIMDSEP
 70
44
  9
$DIMATFIT
 70
3
  9
$DIMFRAC
 70
0
  9
$DIMLDRBLK
  1

  9
$DIMLUNIT
 70
2
  9
$DIMLWD
 70
-2
  9
$DIMLWE
 70
-2
  9
$DIMTMOVE
 70
0
  9
$DIMFXL
 40
1.0
  9
$DIMFXLON
 70
0
  9
$DIMJOGANG
 40
0.785398163397
  9
$DIMTFILL
 70
0
  9
$DIMTFILLCLR
 70
0
  9
$DIMARCSYM
 70
0
  9
$DIMLTYPE
  6

  9
$DIMLTEX1
  6

  9
$DIMLTEX2
  6

  9
$DIMTXTDIRECTION
 70
0
  9
$LUNITS
 70
2
  9
$LUPREC
 70
4
  9
$SKETCHINC
 40
1.0
  9
$FILLETRAD
 40
10.0
  9
$AUNITS
 70
0
  9
$AUPREC
 70
2
  9
$MENU
  1
.
  9
$ELEVATION
 40
0.0
  9
$PELEVATION
 40
0.0
  9
$THICKNESS
 40
0.0
  9
$LIMCHECK
 70
0
  9
$CHAMFERA
 40
0.0
  9
$CHAMFERB
 40
0.0
  9
$CHAMFERC
 40
0.0
  9
$CHAMFERD
 40
0.0
  9
$SKPOLY
 70
0
  9
$TDCREATE
 40
2461316.6496296297
  9
$TDUCREATE
 40
2458532.153996898
  9
$TDUPDATE
 40
2461316.6496296297
  9
$TDUUPDATE
 40
2458532.1544311
  9
$TDINDWG
 40
0.0
  9
$TDUSRTIMER
 40
0.0
  9
$USRTIMER
 70
1
  9
$ANGBASE
 50
0.0
  9
$ANGDIR
 70
0
  9
$PDMODE
 70
0
  9
$PDSIZE
 40
0.0
  9
$PLINEWID
 40
0.0
  9
$SPLFRAME
 70
0
  9
$SPLINETYPE
 70
6
  9
$SPLINESEGS
 70
8
  9
$HANDSEED
  5
6E
  9
$SURFTAB1
 70
6
  9
$SURFTAB2
 70
6
  9
$SURFTYPE
 70
6
  9
$SURFU
 70
6
  9
$SURFV
 70
6
  9
$UCSBASE
  2

  9
$UCSNAME
  2

  9
$UCSORG
 10
0.0
 20
0.0
 30
0.0
  9
$UCSXDIR
 10
1.0
 20
0.0
 30
0.0
  9
$UCSYDIR
 10
0.0
 20
1.0
 30
0.0
  9
$UCSORTHOREF
  2

  9
$UCSORTHOVIEW
 70
0
  9
$UCSORGTOP
 10
0.0
 20
0.0
 30
0.0
  9
$UCSORGBOTTOM
 10
0.0
 20
0.0
 30
0.0
  9
$UCSORGLEFT
 10
0.0
 20
0.0
 30
0.0
  9
$UCSORGRIGHT
 10
0.0
 20
0.0
 30
0.0
  9
$UCSORGFRONT
 10
0.0
 20
0.0
 30
0.0
  9
$UCSORGBACK
 10
0.0
 20
0.0
 30
0.0
  9
$PUCSBASE
  2

  9
$PUCSNAME
  2

  9
$PUCSORG
 10
0.0
 20
0.0
 30
0.0
  9
$PUCSXDIR
 10
1.0
 20
0.0
 30
0.0
  9
$PUCSYDIR
 10
0.0
 20
1.0
 30
0.0
  9
$PUCSORTHOREF
  2

  9
$PUCSORTHOVIEW
 70
0
  9
$PUCSORGTOP
 10
0.0
 20
0.0
 30
0.0
  9
$PUCSORGBOTTOM
 10
0.0
 20
0.0
 30
0.0
  9
$PUCSORGLEFT
 10
0.0
 20
0.0
 30
0.0
  9
$PUCSORGRIGHT
 10
0.0
 20
0.0
 30
0.0
  9
$PUCSORGFRONT
 10
0.0
 20
0.0
 30
0.0
  9
$PUCSORGBACK
 10
0.0
 20
0.0
 30
0.0
  9
$USERI1
 70
0
  9
$USERI2
 70
0
  9
$USERI3
 70
0
  9
$USERI4
 70
0
  9
$USERI5
 70
0
  9
$USERR1
 40
0.0
  9
$USERR2
 40
0.0
  9
$USERR3
 40
0.0
  9
$USERR4
 40
0.0
  9
$USERR5
 40
0.0
  9
$WORLDVIEW
 70
1
  9
$SHADEDGE
 70
3
  9
$SHADEDIF
 70
70
  9
$TILEMODE
 70
1
  9
$MAXACTVP
 70
64
  9
$PINSBASE
 10
0.0
 20
0.0
 30
0.0
  9
$PLIMCHECK
 70
0
  9
$PEXTMIN
 10
1e+20
 20
1e+20
 30
1e+20
  9
$PEXTMAX
 10
-1e+20
 20
-1e+20
 30
-1e+20
  9
$PLIMMIN
 10
0.0
 20
0.0
  9
$PLIMMAX
 10
420.0
 20
297.0
  9
$UNITMODE
 70
0
  9
$VISRETAIN
 70
1
  9
$PLINEGEN
 70
0
  9
$PSLTSCALE
 70
1
  9
$TREEDEPTH
 70
3020
  9
$CMLSTYLE
  2
Standard
  9
$CMLJUST
 70
0
  9
$CMLSCALE
 40
20.0
  9
$PROXYGRAPHICS
 70
1
  9
$MEASUREMENT
 70
1
  9
$CELWEIGHT
370
-1
  9
$ENDCAPS
280
0
  9
$JOINSTYLE
280
0
  9
$LWDISPLAY
290
0
  9
$INSUNITS
 70
4
  9
$HYPERLINKBASE
  1

  9
$STYLESHEET
  1

  9
$XEDIT
290
1
  9
$CEPSNTYPE
380
0
  9
$PSTYLEMODE
290
1
  9
$FINGERPRINTGUID
  2
{4905B6CA-1122-493D-BB62-8918F912E8EB}
  9
$VERSIONGUID
  2
{D78A2CE3-89D2-41B7-8A35-AFBA7EAC326C}
  9
$EXTNAMES
290
1
  9
$PSVPSCALE
 40
0.0
  9
$OLESTARTUP
290
0
  9
$SORTENTS
280
127
  9
$INDEXCTL
280
0
  9
$HIDETEXT
280
1
  9
$XCLIPFRAME
280
1
  9
$HALOGAP
280
0
  9
$OBSCOLOR
 70
257
  9
$OBSLTYPE
280
0
  9
$INTERSECTIONDISPLAY
280
0
  9
$INTERSECTIONCOLOR
 70
257
  9
$DIMASSOC
280
2
  9
$PROJECTNAME
  1

  9
$CAMERADISPLAY
290
0
  9
$LENSLENGTH
 40
50.0
  9
$CAMERAHEIGHT
 40
0.0
  9
$STEPSPERSEC
 40
24.0
  9
$STEPSIZE
 40
100.0
  9
$3DDWFPREC
 40
2.0
  9
$PSOLWIDTH
 40
0.005
  9
$PSOLHEIGHT
 40
0.08
  9
$LOFTANG1
 40
1.570796326795
  9
$LOFTANG2
 40
1.570796326795
  9
$LOFTMAG1
 40
0.0
  9
$LOFTMAG2
 40
0.0
  9
$LOFTPARAM
 70
7
  9
$LOFTNORMALS
280
1
  9
$LATITUDE
 40
37.795
  9
$LONGITUDE
 40
-122.394
  9
$NORTHDIRECTION
 40
0.0
  9
$TIMEZONE
 70
-8000
  9
$LIGHTGLYPHDISPLAY
280
1
  9
$TILEMODELIGHTSYNCH
280
1
  9
$CMATERIAL
347
20
  9
$SOLIDHIST
280
0
  9
$SHOWHIST
280
1
  9
$DWFFRAME
280
2
  9
$DGNFRAME
280
2
  9
$REALWORLDSCALE
290
1
  9
$INTERFERECOLOR
 62
256
  9
$CSHADOW
280
0
  9
$SHADOWPLANELOCATION
 40
0.0
  0
ENDSEC
  0
SECTION
  2
CLASSES
  0
CLASS
  1
ACDBDICTIONARYWDFLT
  2
AcDbDictionaryWithDefault
  3
ObjectDBX Classes
 90
0
 91
0
280
0
281
0
  0
CLASS
  1
SUN
  2
AcDbSun
  3
SCENEOE
 90
1153
 91
0
280
0
281
0
  0
CLASS
  1
VISUALSTYLE
  2
AcDbVisualStyle
  3
ObjectDBX Classes
 90
4095
 91
0
280
0
281
0
  0
CLASS
  1
MATERIAL
  2
AcDbMaterial
  3
ObjectDBX Classes
 90
1153
 91
0
280
0
281
0
  0
CLASS
  1
SCALE
  2
AcDbScale
  3
ObjectDBX Classes
 90
1153
 91
0
280
0
281
0
  0
CLASS
  1
TABLESTYLE
  2
AcDbTableStyle
  3
ObjectDBX Classes
 90
4095
 91
0
280
0
281
0
  0
CLASS
  1
MLEADERSTYLE
  2
AcDbMLeaderStyle
  3
ACDB_MLEADERSTYLE_CLASS
 90
4095
 91
0
280
0
281
0
  0
CLASS
  1
DICTIONARYVAR
  2
AcDbDictionaryVar
  3
ObjectDBX Classes
 90
0
 91
0
280
0
281
0
  0
CLASS
  1
CELLSTYLEMAP
  2
AcDbCellStyleMap
  3
ObjectDBX Classes
 90
1152
 91
0
280
0
281
0
  0
CLASS
  1
MENTALRAYRENDERSETTINGS
  2
AcDbMentalRayRenderSettings
  3
SCENEOE
 90
1024
 91
0
280
0
281
0
  0
CLASS
  1
ACDBDETAILVIEWSTYLE
  2
AcDbDetailViewStyle
  3
ObjectDBX Classes
 90
1025
 91
0
280
0
281
0
  0
CLASS
  1
ACDBSECTIONVIEWSTYLE
  2
AcDbSectionViewStyle
  3
ObjectDBX Classes
 90
1025
 91
0
280
0
281
0
  0
CLASS
  1
RASTERVARIABLES
  2
AcDbRasterVariables
  3
ISM
 90
0
 91
0
280
0
281
0
  0
CLASS
  1
LAYOUT
  2
AcDbLayout
  3
ObjectDBX Classes
 90
0
 91
0
280
0
281
0
  0
CLASS
  1
ACDBPLACEHOLDER
  2
AcDbPlaceHolder
  3
ObjectDBX Classes
 90
0
 91
0
280
0
281
0
  0
ENDSEC
  0
SECTION
  2
TABLES
  0
TABLE
  2
VPORT
  5
8
330
0
100
AcDbSymbolTable
 70
1
  0
VPORT
  5
6A
330
8
100
AcDbSymbolTableRecord
100
AcDbViewportTableRecord
  2
*Active
 70
0
 10
0.0
 20
0.0
 11
1.0
 21
1.0
 12
0.0
 22
0.9652330162798606
 13
0.0
 23
0.0
 14
0.5
 24
0.5
 15
0.5
 25
0.5
 16
0.0
 26
0.0
 36
1.0
 17
0.0
 27
0.0
 37
0.0
 40
66.75405913757335
 41
1.34
 42
50.0
 43
0.0
 44
0.0
 50
0.0
 51
0.0
 71
0
 72
1000
 73
1
 74
3
 75
0
 76
0
 77
0
 78
0
281
0
 65
1
110
0.0
120
0.0
130
0.0
111
1.0
121
0.0
131
0.0
112
0.0
122
1.0
132
0.0
 79
0
146
0.0
  0
ENDTAB
  0
TABLE
  2
LTYPE
  5
2
330
0
100
AcDbSymbolTable
 70
3
  0
LTYPE
  5
24
330
2
100
AcDbSymbolTableRecord
100
AcDbLinetypeTableRecord
  2
ByBlock
 70
0
  3

 72
65
 73
0
 40
0.0
  0
LTYPE
  5
25
330
2
100
AcDbSymbolTableRecord
100
AcDbLinetypeTableRecord
  2
ByLayer
 70
0
  3

 72
65
 73
0
 40
0.0
  0
LTYPE
  5
26
330
2
100
AcDbSymbolTableRecord
100
AcDbLinetypeTableRecord
  2
Continuous
 70
0
  3

 72
65
 73
0
 40
0.0
  0
ENDTAB
  0
TABLE
  2
LAYER
  5
1
330
0
100
AcDbSymbolTable
 70
3
  0
LAYER
  5
27
330
1
100
AcDbSymbolTableRecord
100
AcDbLayerTableRecord
  2
0
 70
0
 62
7
  6
Continuous
370
-3
390
13
347
21
  0
LAYER
  5
28
330
1
100
AcDbSymbolTableRecord
100
AcDbLayerTableRecord
  2
Defpoints
 70
0
 62
7
  6
Continuous
290
0
370
-3
390
13
347
21
  0
LAYER
  5
2F
330
1
100
AcDbSymbolTableRecord
100
AcDbLayerTableRecord
  2
visible
 70
0
 62
7
  6
Continuous
370
-3
390
13
347
21
  0
ENDTAB
  0
TABLE
  2
STYLE
  5
5
330
0
100
AcDbSymbolTable
 70
1
  0
STYLE
  5
29
330
5
100
AcDbSymbolTableRecord
100
AcDbTextStyleTableRecord
  2
Standard
 70
0
 40
0.0
 41
1.0
 50
0.0
 71
0
 42
2.5
  3
txt
  4

  0
ENDTAB
  0
TABLE
  2
VIEW
  5
7
330
0
100
AcDbSymbolTable
 70
0
  0
ENDTAB
  0
TABLE
  2
UCS
  5
6
330
0
100
AcDbSymbolTable
 70
0
  0
ENDTAB
  0
TABLE
  2
APPID
  5
3
330
0
100
AcDbSymbolTable
 70
3
  0
APPID
  5
2A
330
3
100
AcDbSymbolTableRecord
100
AcDbRegAppTableRecord
  2
ACAD
 70
0
  0
APPID
  5
6B
330
3
100
AcDbSymbolTableRecord
100
AcDbRegAppTableRecord
  2
HATCHBACKGROUNDCOLOR
 70
0
  0
APPID
  5
6C
330
3
100
AcDbSymbolTableRecord
100
AcDbRegAppTableRecord
  2
EZDXF
 70
0
  0
ENDTAB
  0
TABLE
  2
DIMSTYLE
  5
4
330
0
100
AcDbSymbolTable
 70
1
100
AcDbDimStyleTable
  0
DIMSTYLE
105
2B
330
4
100
AcDbSymbolTableRecord
100
AcDbDimStyleTableRecord
  2
Standard
 70
0
 40
1.0
 41
2.5
 42
0.625
 43
3.75
 44
1.25
 45
0.0
 46
0.0
 47
0.0
 48
0.0
 49
2.5
140
2.5
141
2.5
142
0.0
143
0.03937007874
144
1.0
145
0.0
146
1.0
147
0.625
148
0.0
 69
0
 70
0
 71
0
 72
0
 73
0
 74
0
 75
0
 76
0
 77
1
 78
8
 79
3
170
0
171
3
172
1
173
0
174
0
175
0
176
0
177
0
178
0
179
2
271
2
272
2
273
2
274
3
275
0
276
0
277
2
278
44
279
0
280
0
281
0
282
0
283
0
284
8
285
0
286
0
288
0
289
3
290
0
371
-2
372
-2
  0
ENDTAB
  0
TABLE
  2
BLOCK_RECORD
  5
9
330
0
100
AcDbSymbolTable
 70
2
  0
BLOCK_RECORD
  5
17
330
9
100
AcDbSymbolTableRecord
100
AcDbBlockTableRecord
  2
*Model_Space
340
1A
 70
0
280
1
281
0
  0
BLOCK_RECORD
  5
1B
330
9
100
AcDbSymbolTableRecord
100
AcDbBlockTableRecord
  2
*Paper_Space
340
1E
 70
0
280
1
281
0
  0
ENDTAB
  0
ENDSEC
  0
SECTION
  2
BLOCKS
  0
BLOCK
  5
18
330
17
100
AcDbEntity
  8
0
100
AcDbBlockBegin
  2
*Model_Space
 70
0
 10
0.0
 20
0.0
 30
0.0
  3
*Model_Space
  1

  0
ENDBLK
  5
19
330
17
100
AcDbEntity
  8
0
100
AcDbBlockEnd
  0
BLOCK
  5
1C
330
1B
100
AcDbEntity
  8
0
100
AcDbBlockBegin
  2
*Paper_Space
 70
0
 10
0.0
 20
0.0
 30
0.0
  3
*Paper_Space
  1

  0
ENDBLK
  5
1D
330
1B
100
AcDbEntity
  8
0
100
AcDbBlockEnd
  0
ENDSEC
  0
SECTION
  2
ENTITIES
  0
ELLIPSE
  5
30
330
17
100
AcDbEntity
  8
visible
100
AcDbEllipse
 10
0.0
 20
6.635335208640335
 30
0.0
 11
58.0
 21
0.0
 31
0.0
 40
0.41690507977575986
 41
5.639684198386302
 42
6.283185307179586
  0
ELLIPSE
  5
31
330
17
100
AcDbEntity
  8
visible
100
AcDbEllipse
 10
0.0
 20
6.635335208640335
 30
0.0
 11
58.0
 21
0.0
 31
0.0
 40
0.41690507977575986
 41
3.1415926535897936
 42
5.639684198386302
  0
LINE
  5
32
330
17
100
AcDbEntity
  8
visible
100
AcDbLine
 10
46.400000000000006
 20
-7.8729615675561035
 30
0.0
 11
46.400000000000006
 21
-20.689156970546406
 31
0.0
  0
ELLIPSE
  5
33
330
17
100
AcDbEntity
  8
visible
100
AcDbEllipse
 10
0.0
 20
-6.180860194349968
 30
0.0
 11
58.0
 21
0.0
 31
0.0
 40
0.41690507977575986
 41
5.639684198386302
 42
6.283185307179586
  0
ELLIPSE
  5
34
330
17
100
AcDbEntity
  8
visible
100
AcDbEllipse
 10
0.0
 20
-6.180860194349968
 30
0.0
 11
58.0
 21
0.0
 31
0.0
 40
0.41690507977575986
 41
3.1415926535897936
 42
5.639684198386302
  0
ELLIPSE
  5
35
330
17
100
AcDbEntity
  8
visible
100
AcDbEllipse
 10
-42.0
 20
15.283691747244461
 30
0.0
 11
1.3
 21
0.0
 31
0.0
 40
0.4169050797757599
 41
5.639684198386302
 42
6.283185307179586
  0
ELLIPSE
  5
36
330
17
100
AcDbEntity
  8
visible
100
AcDbEllipse
 10
-42.0
 20
15.283691747244461
 30
0.0
 11
1.3
 21
0.0
 31
0.0
 40
0.4169050797757599
 41
0.0
 42
3.1415926535897936
  0
ELLIPSE
  5
37
330
17
100
AcDbEntity
  8
visible
100
AcDbEllipse
 10
-42.0
 20
15.283691747244461
 30
0.0
 11
1.3
 21
0.0
 31
0.0
 40
0.4169050797757599
 41
3.1415926535897936
 42
5.639684198386302
  0
ELLIPSE
  5
38
330
17
100
AcDbEntity
  8
visible
100
AcDbEllipse
 10
-4.8
 20
4.694302720940165
 30
0.0
 11
2.25
 21
0.0
 31
0.0
 40
0.41690507977575986
 41
5.639684198386302
 42
6.283185307179586
  0
ELLIPSE
  5
39
330
17
100
AcDbEntity
  8
visible
100
AcDbEllipse
 10
-4.8
 20
4.694302720940165
 30
0.0
 11
2.25
 21
0.0
 31
0.0
 40
0.41690507977575986
 41
0.0
 42
3.1415926535897936
  0
ELLIPSE
  5
3A
330
17
100
AcDbEntity
  8
visible
100
AcDbEllipse
 10
-4.8
 20
4.694302720940165
 30
0.0
 11
2.25
 21
0.0
 31
0.0
 40
0.41690507977575986
 41
3.1415926535897936
 42
5.639684198386302
  0
ELLIPSE
  5
3B
330
17
100
AcDbEntity
  8
visible
100
AcDbEllipse
 10
0.0
 20
7.362495231505029
 30
0.0
 11
2.5
 21
0.0
 31
0.0
 40
0.4169050797757599
 41
5.639684198386302
 42
6.283185307179586
  0
ELLIPSE
  5
3C
330
17
100
AcDbEntity
  8
visible
100
AcDbEllipse
 10
0.0
 20
7.362495231505029
 30
0.0
 11
2.5
 21
0.0
 31
0.0
 40
0.4169050797757599
 41
0.0
 42
3.1415926535897936
  0
ELLIPSE
  5
3D
330
17
100
AcDbEntity
  8
visible
100
AcDbEllipse
 10
0.0
 20
7.362495231505029
 30
0.0
 11
2.5
 21
0.0
 31
0.0
 40
0.4169050797757599
 41
3.1415926535897936
 42
5.639684198386302
  0
ELLIPSE
  5
3E
330
17
100
AcDbEntity
  8
visible
100
AcDbEllipse
 10
4.8
 20
10.030687742069894
 30
0.0
 11
2.25
 21
0.0
 31
0.0
 40
0.41690507977575986
 41
5.639684198386302
 42
6.283185307179586
  0
ELLIPSE
  5
3F
330
17
100
AcDbEntity
  8
visible
100
AcDbEllipse
 10
4.8
 20
10.030687742069894
 30
0.0
 11
2.25
 21
0.0
 31
0.0
 40
0.41690507977575986
 41
0.0
 42
3.1415926535897936
  0
ELLIPSE
  5
40
330
17
100
AcDbEntity
  8
visible
100
AcDbEllipse
 10
4.8
 20
10.030687742069894
 30
0.0
 11
2.25
 21
0.0
 31
0.0
 40
0.41690507977575986
 41
3.1415926535897936
 42
5.639684198386302
  0
ELLIPSE
  5
41
330
17
100
AcDbEntity
  8
visible
100
AcDbEllipse
 10
-30.0
 20
21.954173023656622
 30
0.0
 11
1.3
 21
0.0
 31
0.0
 40
0.4169050797757599
 41
5.639684198386302
 42
6.283185307179586
  0
ELLIPSE
  5
42
330
17
100
AcDbEntity
  8
visible
100
AcDbEllipse
 10
-30.0
 20
21.954173023656622
 30
0.0
 11
1.3
 21
0.0
 31
0.0
 40
0.4169050797757599
 41
0.0
 42
3.1415926535897936
  0
ELLIPSE
  5
43
330
17
100
AcDbEntity
  8
visible
100
AcDbEllipse
 10
-30.0
 20
21.954173023656622
 30
0.0
 11
1.3
 21
0.0
 31
0.0
 40
0.4169050797757599
 41
3.1415926535897936
 42
5.639684198386302
  0
LINE
  5
44
330
17
100
AcDbEntity
  8
visible
100
AcDbLine
 10
25.047620999227554
 20
-10.676920310135273
 30
0.0
 11
21.847620999227555
 21
-9.676348118673449
 31
0.0
  0
ELLIPSE
  5
45
330
17
100
AcDbEntity
  8
visible
100
AcDbEllipse
 10
27.800000000000004
 20
-9.146945927615057
 30
0.0
 11
-4.587298334620749
 21
-0.0
 31
0.0
 40
0.41690507977575986
 41
-4.118892983308879
 42
-3.7850937623830774
  0
ELLIPSE
  5
46
330
17
100
AcDbEntity
  8
visible
100
AcDbEllipse
 10
27.800000000000004
 20
-9.146945927615057
 30
0.0
 11
-4.587298334620749
 21
-0.0
 31
0.0
 40
0.41690507977575986
 41
-5.3058849774605
 42
-4.118892983308879
  0
ELLIPSE
  5
47
330
17
100
AcDbEntity
  8
visible
100
AcDbEllipse
 10
27.800000000000004
 20
-9.146945927615057
 30
0.0
 11
-4.587298334620749
 21
-0.0
 31
0.0
 40
0.41690507977575986
 41
-5.355890089177974
 42
-5.3058849774605
  0
ELLIPSE
  5
48
330
17
100
AcDbEntity
  8
visible
100
AcDbEllipse
 10
24.6
 20
-8.146373736153237
 30
0.0
 11
-4.587298334620749
 21
-0.0
 31
0.0
 40
0.41690507977575986
 41
-6.926686415972871
 42
-5.355890089177974
  0
LINE
  5
49
330
17
100
AcDbEntity
  8
visible
100
AcDbLine
 10
49.46983866769661
 20
-0.28870479988698605
 30
0.0
 11
31.46983866769661
 21
-10.29442671450522
 31
0.0
  0
LINE
  5
4A
330
17
100
AcDbEntity
  8
visible
100
AcDbLine
 10
20.9301613323034
 20
-6.998892949263066
 30
0.0
 11
38.9301613323034
 21
3.0068289653551687
 31
0.0
  0
ELLIPSE
  5
4B
330
17
100
AcDbEntity
  8
visible
100
AcDbEllipse
 10
45.800000000000004
 20
0.8587759870031775
 30
0.0
 11
-4.587298334620749
 21
-0.0
 31
0.0
 40
0.41690507977575986
 41
-3.7850937623830783
 42
-2.2142974355881813
  0
ELLIPSE
  5
4C
330
17
100
AcDbEntity
  8
visible
100
AcDbEllipse
 10
42.6
 20
1.8593481784649981
 30
0.0
 11
-4.587298334620749
 21
-0.0
 31
0.0
 40
0.41690507977575986
 41
-2.214297435588181
 42
-0.6435011087932844
  0
LINE
  5
4D
330
17
100
AcDbEntity
  8
visible
100
AcDbLine
 10
45.35237900077245
 20
3.389322560985221
 30
0.0
 11
48.552379000772454
 21
2.3887503695233976
 31
0.0
  0
ELLIPSE
  5
4E
330
17
100
AcDbEntity
  8
visible
100
AcDbEllipse
 10
30.0
 20
-7.320077563504654
 30
0.0
 11
1.3
 21
0.0
 31
0.0
 40
0.4169050797757599
 41
5.639684198386302
 42
6.283185307179586
  0
ELLIPSE
  5
4F
330
17
100
AcDbEntity
  8
visible
100
AcDbEllipse
 10
30.0
 20
-7.320077563504654
 30
0.0
 11
1.3
 21
0.0
 31
0.0
 40
0.4169050797757599
 41
0.0
 42
3.1415926535897936
  0
ELLIPSE
  5
50
330
17
100
AcDbEntity
  8
visible
100
AcDbEllipse
 10
30.0
 20
-7.320077563504654
 30
0.0
 11
1.3
 21
0.0
 31
0.0
 40
0.4169050797757599
 41
3.1415926535897936
 42
5.639684198386302
  0
ELLIPSE
  5
51
330
17
100
AcDbEntity
  8
visible
100
AcDbEllipse
 10
42.0
 20
-0.6495962870924927
 30
0.0
 11
1.3
 21
0.0
 31
0.0
 40
0.4169050797757599
 41
5.639684198386302
 42
6.283185307179586
  0
ELLIPSE
  5
52
330
17
100
AcDbEntity
  8
visible
100
AcDbEllipse
 10
42.0
 20
-0.6495962870924927
 30
0.0
 11
1.3
 21
0.0
 31
0.0
 40
0.4169050797757599
 41
0.0
 42
3.1415926535897936
  0
ELLIPSE
  5
53
330
17
100
AcDbEntity
  8
visible
100
AcDbEllipse
 10
42.0
 20
-0.6495962870924927
 30
0.0
 11
1.3
 21
0.0
 31
0.0
 40
0.4169050797757599
 41
3.1415926535897936
 42
5.639684198386302
  0
ELLIPSE
  5
54
330
17
100
AcDbEntity
  8
visible
100
AcDbEllipse
 10
0.0
 20
7.362495231505029
 30
0.0
 11
57.2
 21
0.0
 31
0.0
 40
0.41690507977575986
 41
5.639684198386302
 42
11.922869505565888
  0
ELLIPSE
  5
55
330
17
100
AcDbEntity
  8
visible
100
AcDbEllipse
 10
22.080000000000002
 20
-8.91090978419318
 30
0.0
 11
-0.23874437397314013
 21
-0.7635451027255519
 31
0.0
 40
0.545370017148523
 41
0.015220323207492115
 42
0.5205808334916593
  0
LINE
  5
56
330
17
100
AcDbEntity
  8
visible
100
AcDbLine
 10
25.280000000000005
 20
-10.638641998519702
 30
0.0
 11
22.080000000000002
 21
-9.638069807057878
 31
0.0
  0
ELLIPSE
  5
57
330
17
100
AcDbEntity
  8
visible
100
AcDbEllipse
 10
25.280000000000005
 20
-9.911481975655008
 30
0.0
 11
-0.23874437397314013
 21
-0.7635451027255519
 31
0.0
 40
0.545370017148523
 41
0.015220323207492115
 42
0.5205808334916593
  0
ELLIPSE
  5
58
330
17
100
AcDbEntity
  8
visible
100
AcDbEllipse
 10
31.160000000000004
 20
-9.56128170864337
 30
0.0
 11
0.38868418481998984
 21
-0.699231438417081
 31
0.0
 40
0.7271600228646974
 41
-0.6526816418265743
 42
-0.14732113154240334
  0
ELLIPSE
  5
59
330
17
100
AcDbEntity
  8
visible
100
AcDbEllipse
 10
27.800000000000004
 20
-9.237840930473148
 30
0.0
 11
-4.2
 21
-0.0
 31
0.0
 40
0.41690507977575986
 41
-5.355890089177974
 42
-3.7850937623830774
  0
ELLIPSE
  5
5A
330
17
100
AcDbEntity
  8
visible
100
AcDbEllipse
 10
24.6
 20
-8.237268739011327
 30
0.0
 11
-4.2
 21
-0.0
 31
0.0
 40
0.41690507977575986
 41
-6.9266864159728705
 42
-5.355890089177974
  0
ELLIPSE
  5
5B
330
17
100
AcDbEntity
  8
visible
100
AcDbEllipse
 10
21.24
 20
-6.459507915111715
 30
0.0
 11
-0.38868418481998984
 21
0.699231438417081
 31
0.0
 40
0.7271600228646974
 41
1.9835505014790478
 42
2.4889110117632187
  0
LINE
  5
5C
330
17
100
AcDbEntity
  8
visible
100
AcDbLine
 10
49.160000000000004
 20
-0.2827198168898306
 30
0.0
 11
31.160000000000007
 21
-10.288441731508065
 31
0.0
  0
ELLIPSE
  5
5D
330
17
100
AcDbEntity
  8
visible
100
AcDbEllipse
 10
49.160000000000004
 20
0.444440205974864
 30
0.0
 11
0.38868418481998973
 21
-0.699231438417081
 31
0.0
 40
0.7271600228646974
 41
-0.6526816418265742
 42
-0.14732113154240323
  0
ELLIPSE
  5
5E
330
17
100
AcDbEntity
  8
visible
100
AcDbEllipse
 10
39.239999999999995
 20
3.54621399950652
 30
0.0
 11
-0.38868418481998984
 21
0.699231438417081
 31
0.0
 40
0.7271600228646974
 41
1.9835505014790478
 42
2.4889110117632187
  0
LINE
  5
5F
330
17
100
AcDbEntity
  8
visible
100
AcDbLine
 10
21.24
 20
-7.186667937976409
 30
0.0
 11
39.239999999999995
 21
2.8190539766418254
 31
0.0
  0
ELLIPSE
  5
60
330
17
100
AcDbEntity
  8
visible
100
AcDbEllipse
 10
48.32000000000001
 20
2.8958420750563363
 30
0.0
 11
0.23874437397314013
 21
0.7635451027255519
 31
0.0
 40
0.545370017148523
 41
-2.6210118200981336
 42
-2.1156513098139667
  0
ELLIPSE
  5
61
330
17
100
AcDbEntity
  8
visible
100
AcDbEllipse
 10
45.800000000000004
 20
0.7678809841450871
 30
0.0
 11
-4.2
 21
-0.0
 31
0.0
 40
0.41690507977575986
 41
-3.785093762383078
 42
-2.2142974355881813
  0
ELLIPSE
  5
62
330
17
100
AcDbEntity
  8
visible
100
AcDbEllipse
 10
42.6
 20
1.7684531756069077
 30
0.0
 11
-4.2
 21
-0.0
 31
0.0
 40
0.41690507977575986
 41
-2.214297435588181
 42
-0.6435011087932844
  0
ELLIPSE
  5
63
330
17
100
AcDbEntity
  8
visible
100
AcDbEllipse
 10
45.120000000000005
 20
3.896414266518157
 30
0.0
 11
0.23874437397314013
 21
0.7635451027255519
 31
0.0
 40
0.545370017148523
 41
-2.6210118200981336
 42
-2.1156513098139667
  0
LINE
  5
64
330
17
100
AcDbEntity
  8
visible
100
AcDbLine
 10
45.120000000000005
 20
3.1692542436534623
 30
0.0
 11
48.32000000000001
 21
2.168682052191638
 31
0.0
  0
LINE
  5
65
330
17
100
AcDbEntity
  8
visible
100
AcDbLine
 10
58.0
 20
-6.180860194349965
 30
0.0
 11
58.0
 21
6.635335208640334
 31
0.0
  0
LINE
  5
66
330
17
100
AcDbEntity
  8
visible
100
AcDbLine
 10
-58.0
 20
-6.180860194349965
 30
0.0
 11
-58.0
 21
6.635335208640334
 31
0.0
  0
SPLINE
  5
67
330
17
100
AcDbEntity
  8
visible
100
AcDbSpline
 70
0
 71
3
 72
35
 73
31
 74
0
 40
0.0
 40
0.0
 40
0.0
 40
0.0
 40
0.13097571146346274
 40
0.13097571146346274
 40
0.13097571146346274
 40
0.24642292132503016
 40
0.24642292132503016
 40
0.24642292132503016
 40
0.40005261718183505
 40
0.40005261718183505
 40
0.40005261718183505
 40
0.5884782014137899
 40
0.5884782014137899
 40
0.5884782014137899
 40
0.7769037856457447
 40
0.7769037856457447
 40
0.7769037856457447
 40
0.8237080670612154
 40
0.8237080670612154
 40
0.8237080670612154
 40
0.8705123484766861
 40
0.8705123484766861
 40
0.8705123484766861
 40
0.9195978920258356
 40
0.9195978920258356
 40
0.9195978920258356
 40
0.9574545987876254
 40
0.9574545987876254
 40
0.9574545987876254
 40
1.0
 40
1.0
 40
1.0
 40
1.0
 10
57.99999999999999
 20
6.635335208640341
 30
0.0
 10
58.00212267130659
 20
9.036749847348084
 30
0.0
 10
57.18698572635896
 20
11.424348800695466
 30
0.0
 10
55.63804282848438
 20
13.669459707097502
 30
0.0
 10
54.27377802306592
 20
15.6507901326403
 30
0.0
 10
52.34329084933942
 20
17.531566477955266
 30
0.0
 10
49.91188881406026
 20
19.27436410814989
 30
0.0
 10
46.67799835223345
 20
21.59372308181491
 30
0.0
 10
42.55015434814307
 20
23.668740290715874
 30
0.0
 10
37.7384703754118
 20
25.40704272530288
 30
0.0
 10
31.84038882585257
 20
27.540886469898094
 30
0.0
 10
24.906900634294725
 20
29.162806281721032
 30
0.0
 10
17.4903559319774
 20
30.147239951860463
 30
0.0
 10
10.076823751251546
 20
31.135138450866723
 30
0.0
 10
2.1802350597663316
 20
31.485550808189565
 30
0.0
 10
-5.562709406677986
 20
31.169930023189345
 30
0.0
 10
-11.485001149729602
 20
30.930787386156027
 30
0.0
 10
-17.317962110340172
 20
30.30484177644971
 30
0.0
 10
-22.785921667021036
 20
29.321437493460365
 30
0.0
 10
-28.255229445304103
 20
28.339143334155146
 30
0.0
 10
-33.35953581965748
 20
26.99939050156695
 30
0.0
 10
-37.8609203734549
 20
25.362606758240716
 30
0.0
 10
-42.5838581983055
 20
23.646700836759447
 30
0.0
 10
-46.64280016796133
 20
21.605571678845322
 30
0.0
 10
-49.837914394558304
 20
19.327241493416754
 30
0.0
 10
-52.30331804858687
 20
17.57021716474078
 30
0.0
 10
-54.2586592633418
 20
15.672121094828574
 30
0.0
 10
-55.63665243419173
 20
13.671478258018904
 30
0.0
 10
-57.18649628983083
 20
11.42577351612737
 30
0.0
 10
-58.0021241399703
 20
9.037471145324627
 30
0.0
 10
-58.0
 20
6.6353352086403286
 30
0.0
  0
SPLINE
  5
68
330
17
100
AcDbEntity
  8
visible
100
AcDbSpline
 70
0
 71
3
 72
11
 73
7
 74
0
 40
0.0
 40
0.0
 40
0.0
 40
0.0
 40
0.6910422200869659
 40
0.6910422200869659
 40
0.6910422200869659
 40
1.0
 40
1.0
 40
1.0
 40
1.0
 10
46.14868418482
 20
-21.188273970671126
 30
0.0
 10
51.34743434281878
 20
-18.29982211964043
 30
0.0
 10
55.028220683728065
 20
-14.904416802970244
 30
0.0
 10
56.79948254935256
 20
-11.226579888895241
 30
0.0
 10
57.5923097966142
 20
-9.583640364491673
 30
0.0
 10
58.00074216674304
 20
-7.883825957409978
 30
0.0
 10
58.0
 20
-6.180860194349968
 30
0.0
  0
SPLINE
  5
69
330
17
100
AcDbEntity
  8
visible
100
AcDbSpline
 70
0
 71
3
 72
26
 73
22
 74
0
 40
0.0
 40
0.0
 40
0.0
 40
0.0
 40
0.15045818901104036
 40
0.15045818901104036
 40
0.15045818901104036
 40
0.28307803072102833
 40
0.28307803072102833
 40
0.28307803072102833
 40
0.45955995671049654
 40
0.45955995671049654
 40
0.45955995671049654
 40
0.6760136170883344
 40
0.6760136170883344
 40
0.6760136170883344
 40
0.8924672774661722
 40
0.8924672774661722
 40
0.8924672774661722
 40
0.9462336387330861
 40
0.9462336387330861
 40
0.9462336387330861
 40
1.0
 40
1.0
 40
1.0
 40
1.0
 10
-58.0
 20
-6.180860194349976
 30
0.0
 10
-58.00212267130638
 20
-8.582274833057616
 30
0.0
 10
-57.186985726359644
 20
-10.96987378640406
 30
0.0
 10
-55.63804282848445
 20
-13.21498469280714
 30
0.0
 10
-54.27377802306598
 20
-15.196315118349943
 30
0.0
 10
-52.343290849339354
 20
-17.077091463664896
 30
0.0
 10
-49.911888814060205
 20
-18.81988909385955
 30
0.0
 10
-46.67799835223331
 20
-21.139248067524562
 30
0.0
 10
-42.550154348143096
 20
-23.214265276425508
 30
0.0
 10
-37.738470375411886
 20
-24.952567711012616
 30
0.0
 10
-31.840388825853356
 20
-27.086411455607617
 30
0.0
 10
-24.906900634296584
 20
-28.708331267430182
 30
0.0
 10
-17.49035593198048
 20
-29.69276493756966
 30
0.0
 10
-10.076823751255816
 20
-30.680663436575955
 30
0.0
 10
-2.1802350597717446
 20
-31.031075793899177
 30
0.0
 10
5.562709406671516
 20
-30.71545500889924
 30
0.0
 10
13.496122050535778
 20
-30.39669402919529
 30
0.0
 10
21.268216546386082
 20
-29.3775721097503
 30
0.0
 10
28.223044714639652
 20
-27.744765680757066
 30
0.0
 10
35.18332133862843
 20
-26.115065854194327
 30
0.0
 10
41.32633163502065
 20
-23.87168151808331
 30
0.0
 10
46.14868418482
 20
-21.18827397067113
 30
0.0
  0
ENDSEC
  0
SECTION
  2
OBJECTS
  0
DICTIONARY
  5
A
330
0
100
AcDbDictionary
281
1
  3
ACAD_COLOR
350
B
  3
ACAD_GROUP
350
C
  3
ACAD_LAYOUT
350
D
  3
ACAD_MATERIAL
350
E
  3
ACAD_MLEADERSTYLE
350
F
  3
ACAD_MLINESTYLE
350
10
  3
ACAD_PLOTSETTINGS
350
11
  3
ACAD_PLOTSTYLENAME
350
12
  3
ACAD_SCALELIST
350
14
  3
ACAD_TABLESTYLE
350
15
  3
ACAD_VISUALSTYLE
350
16
  3
EZDXF_META
350
2D
  0
DICTIONARY
  5
B
330
A
100
AcDbDictionary
281
1
  0
DICTIONARY
  5
C
330
A
100
AcDbDictionary
281
1
  0
DICTIONARY
  5
D
330
A
100
AcDbDictionary
281
1
  3
Model
350
1A
  3
Layout1
350
1E
  0
DICTIONARY
  5
E
330
A
100
AcDbDictionary
281
1
  3
ByBlock
350
1F
  3
ByLayer
350
20
  3
Global
350
21
  0
DICTIONARY
  5
F
330
A
100
AcDbDictionary
281
1
  3
Standard
350
2C
  0
DICTIONARY
  5
10
330
A
100
AcDbDictionary
281
1
  3
Standard
350
22
  0
DICTIONARY
  5
11
330
A
100
AcDbDictionary
281
1
  0
ACDBDICTIONARYWDFLT
  5
12
330
A
100
AcDbDictionary
281
1
  3
Normal
350
13
100
AcDbDictionaryWithDefault
340
13
  0
ACDBPLACEHOLDER
  5
13
330
12
  0
DICTIONARY
  5
14
330
A
100
AcDbDictionary
281
1
  0
DICTIONARY
  5
15
330
A
100
AcDbDictionary
281
1
  0
DICTIONARY
  5
16
330
A
100
AcDbDictionary
281
1
  0
LAYOUT
  5
1A
330
D
100
AcDbPlotSettings
  1

  4
A3
  6

 40
7.5
 41
20.0
 42
7.5
 43
20.0
 44
420.0
 45
297.0
 46
0.0
 47
0.0
 48
0.0
 49
0.0
140
0.0
141
0.0
142
1.0
143
1.0
 70
1024
 72
1
 73
0
 74
5
  7

 75
16
 76
0
 77
2
 78
300
147
1.0
148
0.0
149
0.0
100
AcDbLayout
  1
Model
 70
1
 71
0
 10
0.0
 20
0.0
 11
420.0
 21
297.0
 12
0.0
 22
0.0
 32
0.0
 14
1e+20
 24
1e+20
 34
1e+20
 15
-1e+20
 25
-1e+20
 35
-1e+20
146
0.0
 13
0.0
 23
0.0
 33
0.0
 16
1.0
 26
0.0
 36
0.0
 17
0.0
 27
1.0
 37
0.0
 76
1
330
17
  0
LAYOUT
  5
1E
330
D
100
AcDbPlotSettings
  1

  4
A3
  6

 40
7.5
 41
20.0
 42
7.5
 43
20.0
 44
420.0
 45
297.0
 46
0.0
 47
0.0
 48
0.0
 49
0.0
140
0.0
141
0.0
142
1.0
143
1.0
 70
0
 72
1
 73
0
 74
5
  7

 75
16
 76
0
 77
2
 78
300
147
1.0
148
0.0
149
0.0
100
AcDbLayout
  1
Layout1
 70
1
 71
1
 10
0.0
 20
0.0
 11
420.0
 21
297.0
 12
0.0
 22
0.0
 32
0.0
 14
1e+20
 24
1e+20
 34
1e+20
 15
-1e+20
 25
-1e+20
 35
-1e+20
146
0.0
 13
0.0
 23
0.0
 33
0.0
 16
1.0
 26
0.0
 36
0.0
 17
0.0
 27
1.0
 37
0.0
 76
1
330
1B
  0
MATERIAL
  5
1F
102
{ACAD_REACTORS
330
E
102
}
330
E
100
AcDbMaterial
  1
ByBlock
  2

 70
0
 40
1.0
 71
1
 41
1.0
 91
-1023410177
 42
1.0
 72
1
  3

 73
1
 74
1
 75
1
 44
0.5
 73
0
 45
1.0
 46
1.0
 77
1
  4

 78
1
 79
1
170
1
 48
1.0
171
1
  6

172
1
173
1
174
1
140
1.0
141
1.0
175
1
  7

176
1
177
1
178
1
143
1.0
179
1
  8

270
1
271
1
272
1
145
1.0
146
1.0
273
1
  9

274
1
275
1
276
1
 42
1.0
 72
1
  3

 73
1
 74
1
 75
1
 94
63
  0
MATERIAL
  5
20
102
{ACAD_REACTORS
330
E
102
}
330
E
100
AcDbMaterial
  1
ByLayer
  2

 70
0
 40
1.0
 71
1
 41
1.0
 91
-1023410177
 42
1.0
 72
1
  3

 73
1
 74
1
 75
1
 44
0.5
 73
0
 45
1.0
 46
1.0
 77
1
  4

 78
1
 79
1
170
1
 48
1.0
171
1
  6

172
1
173
1
174
1
140
1.0
141
1.0
175
1
  7

176
1
177
1
178
1
143
1.0
179
1
  8

270
1
271
1
272
1
145
1.0
146
1.0
273
1
  9

274
1
275
1
276
1
 42
1.0
 72
1
  3

 73
1
 74
1
 75
1
 94
63
  0
MATERIAL
  5
21
102
{ACAD_REACTORS
330
E
102
}
330
E
100
AcDbMaterial
  1
Global
  2

 70
0
 40
1.0
 71
1
 41
1.0
 91
-1023410177
 42
1.0
 72
1
  3

 73
1
 74
1
 75
1
 44
0.5
 73
0
 45
1.0
 46
1.0
 77
1
  4

 78
1
 79
1
170
1
 48
1.0
171
1
  6

172
1
173
1
174
1
140
1.0
141
1.0
175
1
  7

176
1
177
1
178
1
143
1.0
179
1
  8

270
1
271
1
272
1
145
1.0
146
1.0
273
1
  9

274
1
275
1
276
1
 42
1.0
 72
1
  3

 73
1
 74
1
 75
1
 94
63
  0
MLINESTYLE
  5
22
102
{ACAD_REACTORS
330
10
102
}
330
10
100
AcDbMlineStyle
  2
Standard
 70
0
  3

 62
256
 51
90.0
 52
90.0
 71
2
 49
0.5
 62
256
  6
BYLAYER
 49
-0.5
 62
256
  6
BYLAYER
  0
MLEADERSTYLE
  5
2C
102
{ACAD_REACTORS
330
F
102
}
330
F
100
AcDbMLeaderStyle
179
2
170
2
171
1
172
0
 90
2
 40
0.0
 41
0.0
173
1
 91
-1056964608
 92
-2
290
1
 42
2.0
291
1
 43
8.0
  3
Standard
 44
4.0
300

342
29
174
1
175
1
176
0
178
1
 93
-1056964608
 45
4.0
292
0
297
0
 46
4.0
 94
-1056964608
 47
1.0
 49
1.0
140
1.0
294
1
141
0.0
177
0
142
1.0
295
0
296
0
143
3.75
271
0
272
9
273
9
  0
DICTIONARY
  5
2D
330
A
100
AcDbDictionary
280
1
281
1
  3
CREATED_BY_EZDXF
350
2E
  3
WRITTEN_BY_EZDXF
350
6D
  0
DICTIONARYVAR
  5
2E
330
2D
100
DictionaryVariables
280
0
  1
1.4.4 @ 2026-10-02T12:35:28.286802+00:00
  0
DICTIONARYVAR
  5
6D
330
2D
100
DictionaryVariables
280
0
  1
1.4.4 @ 2026-10-02T12:35:28.297568+00:00
  0
ENDSEC
  0
EOF
