  0
SECTION
  2
HEADER
  9
$ACADVER
  1
AC1027
  9
$ACADMAINTVER
 70
105
  9
$DWGCODEPAGE
  3
ANSI_1252
  9
$LASTSAVEDBY
  1
ezdxf
  9
$REQUIREDVERSIONS
160
0
  9
$INSBASE
 10
0.0
 20
0.0
 30
0.0
  9
$EXTMIN
 10
1e+20
 20
1e+20
 30
1e+20
  9
$EXTMAX
 10
-1e+20
 20
-1e+20
 30
-1e+20
  9
$LIMMIN
 10
0.0
 20
0.0
  9
$LIMMAX
 10
420.0
 20
297.0
  9
$ORTHOMODE
 70
0
  9
$REGENMODE
 70
1
  9
$FILLMODE
 70
1
  9
$QTEXTMODE
 70
0
  9
$MIRRTEXT
 70
1
  9
$LTSCALE
 40
1.0
  9
$ATTMODE
 70
1
  9
$TEXTSIZE
 40
2.5
  9
$TRACEWID
 40
1.0
  9
$TEXTSTYLE
  7
Standard
  9
$CLAYER
  8
0
  9
$CELTYPE
  6
ByLayer
  9
$CECOLOR
 62
256
  9
$CELTSCALE
 40
1.0
  9
$DISPSILH
 70
0
  9
$DIMSCALE
 40
1.0
  9
$DIMASZ
 40
2.5
  9
$DIMEXO
 40
0.625
  9
$DIMDLI
 40
3.75
  9
$DIMRND
 40
0.0
  9
$DIMDLE
 40
0.0
  9
$DIMEXE
 40
1.25
  9
$DIMTP
 40
0.0
  9
$DIMTM
 40
0.0
  9
$DIMTXT
 40
2.5
  9
$DIMCEN
 40
2.5
  9
$DIMTSZ
 40
0.0
  9
$DIMTOL
 70
0
  9
$DIMLIM
 70
0
  9
$DIMTIH
 70
0
  9
$DIMTOH
 70
0
  9
$DIMSE1
 70
0
  9
$DIMSE2
 70
0
  9
$DIMTAD
 70
1
  9
$DIMZIN
 70
8
  9
$DIMBLK
  1

  9
$DIMASO
 70
1
  9
$DIMSHO
 70
1
  9
$DIMPOST
  1

  9
$DIMAPOST
  1

  9
$DIMALT
 70
0
  9
$DIMALTD
 70
3
  9
$DIMALTF
 40
0.03937007874
  9
$DIMLFAC
 40
1.0
  9
$DIMTOFL
 70
1
  9
$DIMTVP
 40
0.0
  9
$DIMTIX
 70
0
  9
$DIMSOXD
 70
0
  9
$DIMSAH
 70
0
  9
$DIMBLK1
  1

  9
$DIMBLK2
  1

  9
$DIMSTYLE
  2
ISO-25
  9
$DIMCLRD
 70
0
  9
$DIMCLRE
 70
0
  9
$DIMCLRT
 70
0
  9
$DIMTFAC
 40
1.0
  9
$DIMGAP
 40
0.625
  9
$DIMJUST
 70
0
  9
$DIMSD1
 70
0
  9
$DIMSD2
 70
0
  9
$DIMTOLJ
 70
0
  9
$DIMTZIN
 70
8
  9
$DIMALTZ
 70
0
  9
$DIMALTTZ
 70
0
  9
$DIMUPT
 70
0
  9
$DIMDEC
 70
2
  9
$DIMTDEC
 70
2
  9
$DIMALTU
 70
2
  9
$DIMALTTD
 70
3
  9
$DIMTXSTY
  7
Standard
  9
$DIMAUNIT
 70
0
  9
$DIMADEC
 70
0
  9
$DIMALTRND
 40
0.0
  9
$DIMAZIN
 70
0
  9
$DIMDSEP
 70
44
  9
$DIMATFIT
 70
3
  9
$DIMFRAC
 70
0
  9
$DIMLDRBLK
  1

  9
$DIMLUNIT
 70
2
  9
$DIMLWD
 70
-2
  9
$DIMLWE
 70
-2
  9
$DIMTMOVE
 70
0
  9
$DIMFXL
 40
1.0
  9
$DIMFXLON
 70
0
  9
$DIMJOGANG
 40
0.785398163397
  9
$DIMTFILL
 70
0
  9
$DIMTFILLCLR
 70
0
  9
$DIMARCSYM
 70
0
  9
$DIMLTYPE
  6

  9
$DIMLTEX1
  6

  9
$DIMLTEX2
  6

  9
$DIMTXTDIRECTION
 70
0
  9
$LUNITS
 70
2
  9
$LUPREC
 70
4
  9
$SKETCHINC
 40
1.0
  9
$FILLETRAD
 40
10.0
  9
$AUNITS
 70
0
  9
$AUPREC
 70
2
  9
$MENU
  1
.
  9
$ELEVATION
 40
0.0
  9
$PELEVATION
 40
0.0
  9
$THICKNESS
 40
0.0
  9
$LIMCHECK
 70
0
  9
$CHAMFERA
 40
0.0
  9
$CHAMFERB
 40
0.0
  9
$CHAMFERC
 40
0.0
  9
$CHAMFERD
 40
0.0
  9
$SKPOLY
 70
0
  9
$TDCREATE
 40
2461315.8955092593
  9
$TDUCREATE
 40
2458532.153996898
  9
$TDUPDATE
 40
2461315.8955092593
  9
$TDUUPDATE
 40
2458532.1544311
  9
$TDINDWG
 40
0.0
  9
$TDUSRTIMER
 40
0.0
  9
$USRTIMER
 70
1
  9
$ANGBASE
 50
0.0
  9
$ANGDIR
 70
0
  9
$PDMODE
 70
0
  9
$PDSIZE
 40
0.0
  9
$PLINEWID
 40
0.0
  9
$SPLFRAME
 70
0
  9
$SPLINETYPE
 70
6
  9
$SPLINESEGS
 70
8
  9
$HANDSEED
  5
96
  9
$SURFTAB1
 70
6
  9
$SURFTAB2
 70
6
  9
$SURFTYPE
 70
6
  9
$SURFU
 70
6
  9
$SURFV
 70
6
  9
$UCSBASE
  2

  9
$UCSNAME
  2

  9
$UCSORG
 10
0.0
 20
0.0
 30
0.0
  9
$UCSXDIR
 10
1.0
 20
0.0
 30
0.0
  9
$UCSYDIR
 10
0.0
 20
1.0
 30
0.0
  9
$UCSORTHOREF
  2

  9
$UCSORTHOVIEW
 70
0
  9
$UCSORGTOP
 10
0.0
 20
0.0
 30
0.0
  9
$UCSORGBOTTOM
 10
0.0
 20
0.0
 30
0.0
  9
$UCSORGLEFT
 10
0.0
 20
0.0
 30
0.0
  9
$UCSORGRIGHT
 10
0.0
 20
0.0
 30
0.0
  9
$UCSORGFRONT
 10
0.0
 20
0.0
 30
0.0
  9
$UCSORGBACK
 10
0.0
 20
0.0
 30
0.0
  9
$PUCSBASE
  2

  9
$PUCSNAME
  2

  9
$PUCSORG
 10
0.0
 20
0.0
 30
0.0
  9
$PUCSXDIR
 10
1.0
 20
0.0
 30
0.0
  9
$PUCSYDIR
 10
0.0
 20
1.0
 30
0.0
  9
$PUCSORTHOREF
  2

  9
$PUCSORTHOVIEW
 70
0
  9
$PUCSORGTOP
 10
0.0
 20
0.0
 30
0.0
  9
$PUCSORGBOTTOM
 10
0.0
 20
0.0
 30
0.0
  9
$PUCSORGLEFT
 10
0.0
 20
0.0
 30
0.0
  9
$PUCSORGRIGHT
 10
0.0
 20
0.0
 30
0.0
  9
$PUCSORGFRONT
 10
0.0
 20
0.0
 30
0.0
  9
$PUCSORGBACK
 10
0.0
 20
0.0
 30
0.0
  9
$USERI1
 70
0
  9
$USERI2
 70
0
  9
$USERI3
 70
0
  9
$USERI4
 70
0
  9
$USERI5
 70
0
  9
$USERR1
 40
0.0
  9
$USERR2
 40
0.0
  9
$USERR3
 40
0.0
  9
$USERR4
 40
0.0
  9
$USERR5
 40
0.0
  9
$WORLDVIEW
 70
1
  9
$SHADEDGE
 70
3
  9
$SHADEDIF
 70
70
  9
$TILEMODE
 70
1
  9
$MAXACTVP
 70
64
  9
$PINSBASE
 10
0.0
 20
0.0
 30
0.0
  9
$PLIMCHECK
 70
0
  9
$PEXTMIN
 10
1e+20
 20
1e+20
 30
1e+20
  9
$PEXTMAX
 10
-1e+20
 20
-1e+20
 30
-1e+20
  9
$PLIMMIN
 10
0.0
 20
0.0
  9
$PLIMMAX
 10
420.0
 20
297.0
  9
$UNITMODE
 70
0
  9
$VISRETAIN
 70
1
  9
$PLINEGEN
 70
0
  9
$PSLTSCALE
 70
1
  9
$TREEDEPTH
 70
3020
  9
$CMLSTYLE
  2
Standard
  9
$CMLJUST
 70
0
  9
$CMLSCALE
 40
20.0
  9
$PROXYGRAPHICS
 70
1
  9
$MEASUREMENT
 70
1
  9
$CELWEIGHT
370
-1
  9
$ENDCAPS
280
0
  9
$JOINSTYLE
280
0
  9
$LWDISPLAY
290
0
  9
$INSUNITS
 70
4
  9
$HYPERLINKBASE
  1

  9
$STYLESHEET
  1

  9
$XEDIT
290
1
  9
$CEPSNTYPE
380
0
  9
$PSTYLEMODE
290
1
  9
$FINGERPRINTGUID
  2
{1E37E502-7003-412E-BFC2-F152B117AF5F}
  9
$VERSIONGUID
  2
{47D854F7-FB2B-466E-BCBA-E41365ED2B2B}
  9
$EXTNAMES
290
1
  9
$PSVPSCALE
 40
0.0
  9
$OLESTARTUP
290
0
  9
$SORTENTS
280
127
  9
$INDEXCTL
280
0
  9
$HIDETEXT
280
1
  9
$XCLIPFRAME
280
1
  9
$HALOGAP
280
0
  9
$OBSCOLOR
 70
257
  9
$OBSLTYPE
280
0
  9
$INTERSECTIONDISPLAY
280
0
  9
$INTERSECTIONCOLOR
 70
257
  9
$DIMASSOC
280
2
  9
$PROJECTNAME
  1

  9
$CAMERADISPLAY
290
0
  9
$LENSLENGTH
 40
50.0
  9
$CAMERAHEIGHT
 40
0.0
  9
$STEPSPERSEC
 40
24.0
  9
$STEPSIZE
 40
100.0
  9
$3DDWFPREC
 40
2.0
  9
$PSOLWIDTH
 40
0.005
  9
$PSOLHEIGHT
 40
0.08
  9
$LOFTANG1
 40
1.570796326795
  9
$LOFTANG2
 40
1.570796326795
  9
$LOFTMAG1
 40
0.0
  9
$LOFTMAG2
 40
0.0
  9
$LOFTPARAM
 70
7
  9
$LOFTNORMALS
280
1
  9
$LATITUDE
 40
37.795
  9
$LONGITUDE
 40
-122.394
  9
$NORTHDIRECTION
 40
0.0
  9
$TIMEZONE
 70
-8000
  9
$LIGHTGLYPHDISPLAY
280
1
  9
$TILEMODELIGHTSYNCH
280
1
  9
$CMATERIAL
347
20
  9
$SOLIDHIST
280
0
  9
$SHOWHIST
280
1
  9
$DWFFRAME
280
2
  9
$DGNFRAME
280
2
  9
$REALWORLDSCALE
290
1
  9
$INTERFERECOLOR
 62
256
  9
$CSHADOW
280
0
  9
$SHADOWPLANELOCATION
 40
0.0
  0
ENDSEC
  0
SECTION
  2
CLASSES
  0
CLASS
  1
ACDBDICTIONARYWDFLT
  2
AcDbDictionaryWithDefault
  3
ObjectDBX Classes
 90
0
 91
0
280
0
281
0
  0
CLASS
  1
SUN
  2
AcDbSun
  3
SCENEOE
 90
1153
 91
0
280
0
281
0
  0
CLASS
  1
VISUALSTYLE
  2
AcDbVisualStyle
  3
ObjectDBX Classes
 90
4095
 91
0
280
0
281
0
  0
CLASS
  1
MATERIAL
  2
AcDbMaterial
  3
ObjectDBX Classes
 90
1153
 91
0
280
0
281
0
  0
CLASS
  1
SCALE
  2
AcDbScale
  3
ObjectDBX Classes
 90
1153
 91
0
280
0
281
0
  0
CLASS
  1
TABLESTYLE
  2
AcDbTableStyle
  3
ObjectDBX Classes
 90
4095
 91
0
280
0
281
0
  0
CLASS
  1
MLEADERSTYLE
  2
AcDbMLeaderStyle
  3
ACDB_MLEADERSTYLE_CLASS
 90
4095
 91
0
280
0
281
0
  0
CLASS
  1
DICTIONARYVAR
  2
AcDbDictionaryVar
  3
ObjectDBX Classes
 90
0
 91
0
280
0
281
0
  0
CLASS
  1
CELLSTYLEMAP
  2
AcDbCellStyleMap
  3
ObjectDBX Classes
 90
1152
 91
0
280
0
281
0
  0
CLASS
  1
MENTALRAYRENDERSETTINGS
  2
AcDbMentalRayRenderSettings
  3
SCENEOE
 90
1024
 91
0
280
0
281
0
  0
CLASS
  1
ACDBDETAILVIEWSTYLE
  2
AcDbDetailViewStyle
  3
ObjectDBX Classes
 90
1025
 91
0
280
0
281
0
  0
CLASS
  1
ACDBSECTIONVIEWSTYLE
  2
AcDbSectionViewStyle
  3
ObjectDBX Classes
 90
1025
 91
0
280
0
281
0
  0
CLASS
  1
RASTERVARIABLES
  2
AcDbRasterVariables
  3
ISM
 90
0
 91
0
280
0
281
0
  0
CLASS
  1
LAYOUT
  2
AcDbLayout
  3
ObjectDBX Classes
 90
0
 91
0
280
0
281
0
  0
CLASS
  1
ACDBPLACEHOLDER
  2
AcDbPlaceHolder
  3
ObjectDBX Classes
 90
0
 91
0
280
0
281
0
  0
ENDSEC
  0
SECTION
  2
TABLES
  0
TABLE
  2
VPORT
  5
8
330
0
100
AcDbSymbolTable
 70
1
  0
VPORT
  5
92
330
8
100
AcDbSymbolTableRecord
100
AcDbViewportTableRecord
  2
*Active
 70
0
 10
0.0
 20
0.0
 11
1.0
 21
1.0
 12
0.5462206051542324
 22
-3.3108974227477574
 13
0.0
 23
0.0
 14
0.5
 24
0.5
 15
0.5
 25
0.5
 16
0.0
 26
0.0
 36
1.0
 17
0.0
 27
0.0
 37
0.0
 40
87.10062333174903
 41
1.34
 42
50.0
 43
0.0
 44
0.0
 50
0.0
 51
0.0
 71
0
 72
1000
 73
1
 74
3
 75
0
 76
0
 77
0
 78
0
281
0
 65
1
110
0.0
120
0.0
130
0.0
111
1.0
121
0.0
131
0.0
112
0.0
122
1.0
132
0.0
 79
0
146
0.0
  0
ENDTAB
  0
TABLE
  2
LTYPE
  5
2
330
0
100
AcDbSymbolTable
 70
3
  0
LTYPE
  5
24
330
2
100
AcDbSymbolTableRecord
100
AcDbLinetypeTableRecord
  2
ByBlock
 70
0
  3

 72
65
 73
0
 40
0.0
  0
LTYPE
  5
25
330
2
100
AcDbSymbolTableRecord
100
AcDbLinetypeTableRecord
  2
ByLayer
 70
0
  3

 72
65
 73
0
 40
0.0
  0
LTYPE
  5
26
330
2
100
AcDbSymbolTableRecord
100
AcDbLinetypeTableRecord
  2
Continuous
 70
0
  3

 72
65
 73
0
 40
0.0
  0
ENDTAB
  0
TABLE
  2
LAYER
  5
1
330
0
100
AcDbSymbolTable
 70
3
  0
LAYER
  5
27
330
1
100
AcDbSymbolTableRecord
100
AcDbLayerTableRecord
  2
0
 70
0
 62
7
  6
Continuous
370
-3
390
13
347
21
  0
LAYER
  5
28
330
1
100
AcDbSymbolTableRecord
100
AcDbLayerTableRecord
  2
Defpoints
 70
0
 62
7
  6
Continuous
290
0
370
-3
390
13
347
21
  0
LAYER
  5
2F
330
1
100
AcDbSymbolTableRecord
100
AcDbLayerTableRecord
  2
visible
 70
0
 62
7
  6
Continuous
370
-3
390
13
347
21
  0
ENDTAB
  0
TABLE
  2
STYLE
  5
5
330
0
100
AcDbSymbolTable
 70
1
  0
STYLE
  5
29
330
5
100
AcDbSymbolTableRecord
100
AcDbTextStyleTableRecord
  2
Standard
 70
0
 40
0.0
 41
1.0
 50
0.0
 71
0
 42
2.5
  3
txt
  4

  0
ENDTAB
  0
TABLE
  2
VIEW
  5
7
330
0
100
AcDbSymbolTable
 70
0
  0
ENDTAB
  0
TABLE
  2
UCS
  5
6
330
0
100
AcDbSymbolTable
 70
0
  0
ENDTAB
  0
TABLE
  2
APPID
  5
3
330
0
100
AcDbSymbolTable
 70
3
  0
APPID
  5
2A
330
3
100
AcDbSymbolTableRecord
100
AcDbRegAppTableRecord
  2
ACAD
 70
0
  0
APPID
  5
93
330
3
100
AcDbSymbolTableRecord
100
AcDbRegAppTableRecord
  2
HATCHBACKGROUNDCOLOR
 70
0
  0
APPID
  5
94
330
3
100
AcDbSymbolTableRecord
100
AcDbRegAppTableRecord
  2
EZDXF
 70
0
  0
ENDTAB
  0
TABLE
  2
DIMSTYLE
  5
4
330
0
100
AcDbSymbolTable
 70
1
100
AcDbDimStyleTable
  0
DIMSTYLE
105
2B
330
4
100
AcDbSymbolTableRecord
100
AcDbDimStyleTableRecord
  2
Standard
 70
0
 40
1.0
 41
2.5
 42
0.625
 43
3.75
 44
1.25
 45
0.0
 46
0.0
 47
0.0
 48
0.0
 49
2.5
140
2.5
141
2.5
142
0.0
143
0.03937007874
144
1.0
145
0.0
146
1.0
147
0.625
148
0.0
 69
0
 70
0
 71
0
 72
0
 73
0
 74
0
 75
0
 76
0
 77
1
 78
8
 79
3
170
0
171
3
172
1
173
0
174
0
175
0
176
0
177
0
178
0
179
2
271
2
272
2
273
2
274
3
275
0
276
0
277
2
278
44
279
0
280
0
281
0
282
0
283
0
284
8
285
0
286
0
288
0
289
3
290
0
371
-2
372
-2
  0
ENDTAB
  0
TABLE
  2
BLOCK_RECORD
  5
9
330
0
100
AcDbSymbolTable
 70
2
  0
BLOCK_RECORD
  5
17
330
9
100
AcDbSymbolTableRecord
100
AcDbBlockTableRecord
  2
*Model_Space
340
1A
 70
0
280
1
281
0
  0
BLOCK_RECORD
  5
1B
330
9
100
AcDbSymbolTableRecord
100
AcDbBlockTableRecord
  2
*Paper_Space
340
1E
 70
0
280
1
281
0
  0
ENDTAB
  0
ENDSEC
  0
SECTION
  2
BLOCKS
  0
BLOCK
  5
18
330
17
100
AcDbEntity
  8
0
100
AcDbBlockBegin
  2
*Model_Space
 70
0
 10
0.0
 20
0.0
 30
0.0
  3
*Model_Space
  1

  0
ENDBLK
  5
19
330
17
100
AcDbEntity
  8
0
100
AcDbBlockEnd
  0
BLOCK
  5
1C
330
1B
100
AcDbEntity
  8
0
100
AcDbBlockBegin
  2
*Paper_Space
 70
0
 10
0.0
 20
0.0
 30
0.0
  3
*Paper_Space
  1

  0
ENDBLK
  5
1D
330
1B
100
AcDbEntity
  8
0
100
AcDbBlockEnd
  0
ENDSEC
  0
SECTION
  2
ENTITIES
  0
ELLIPSE
  5
30
330
17
100
AcDbEntity
  8
visible
100
AcDbEllipse
 10
-2.8196136225222688
 20
-32.89595738974467
 30
0.0
 11
34.0
 21
9.95535990150044e-16
 31
0.0
 40
0.3185052402439923
 41
3.141592653589793
 42
5.288370328477079
  0
LINE
  5
31
330
17
100
AcDbEntity
  8
visible
100
AcDbLine
 10
21.48948382308047
 20
-43.33432113611363
 30
0.0
 11
35.70839251951422
 21
-37.17618366706204
 31
0.0
  0
LINE
  5
32
330
17
100
AcDbEntity
  8
visible
100
AcDbLine
 10
15.698760704716063
 20
-41.977936537625325
 30
0.0
 11
21.489483823080477
 21
-43.33432113611363
 31
0.0
  0
LINE
  5
33
330
17
100
AcDbEntity
  8
visible
100
AcDbLine
 10
35.70839251951422
 20
-37.17618366706204
 30
0.0
 11
35.70839251951422
 21
-32.65865486641246
 31
0.0
  0
ELLIPSE
  5
34
330
17
100
AcDbEntity
  8
visible
100
AcDbEllipse
 10
-2.8196136225222688
 20
-27.208430789390512
 30
0.0
 11
34.0
 21
9.95535990150044e-16
 31
0.0
 40
0.3185052402439923
 41
0.838079047107704
 42
3.141592653589793
  0
ELLIPSE
  5
35
330
17
100
AcDbEntity
  8
visible
100
AcDbEllipse
 10
-2.8196136225222688
 20
-27.208430789390512
 30
0.0
 11
34.0
 21
9.95535990150044e-16
 31
0.0
 40
0.3185052402439923
 41
3.141592653589793
 42
5.288370328477079
  0
LINE
  5
36
330
17
100
AcDbEntity
  8
visible
100
AcDbLine
 10
15.698760704716868
 20
-41.97793653762551
 30
0.0
 11
15.698760704716868
 21
-36.29040993727135
 31
0.0
  0
LINE
  5
37
330
17
100
AcDbEntity
  8
visible
100
AcDbLine
 10
21.48948382308047
 20
-43.33432113611363
 30
0.0
 11
21.48948382308047
 21
-38.124748390447905
 31
0.0
  0
LINE
  5
38
330
17
100
AcDbEntity
  8
visible
100
AcDbLine
 10
15.698760704716063
 20
-36.290409937271164
 30
0.0
 11
19.92271498363163
 21
-37.27980390612977
 31
0.0
  0
ELLIPSE
  5
39
330
17
100
AcDbEntity
  8
visible
100
AcDbEllipse
 10
35.67516135896306
 20
-31.81288256227949
 30
0.0
 11
1.6
 21
4.684875247764914e-17
 31
0.0
 40
0.3185052402439923
 41
5.64908304884065
 42
6.283185307179585
  0
LINE
  5
3A
330
17
100
AcDbEntity
  8
visible
100
AcDbLine
 10
23.456164324789764
 20
-37.96503295323616
 30
0.0
 11
36.96412758640182
 21
-32.11480235763715
 31
0.0
  0
ELLIPSE
  5
3B
330
17
100
AcDbEntity
  8
visible
100
AcDbEllipse
 10
22.167198097351
 20
-37.6631131578785
 30
0.0
 11
-1.6
 21
-4.684875247764914e-17
 31
0.0
 40
0.3185052402439923
 41
-5.346491238723625
 42
-3.7756949119287286
  0
LINE
  5
3C
330
17
100
AcDbEntity
  8
visible
100
AcDbLine
 10
20.574787737202712
 20
-37.922695758136435
 30
0.0
 11
21.21927085092209
 21
-38.073655655815266
 31
0.0
  0
ELLIPSE
  5
3D
330
17
100
AcDbEntity
  8
visible
100
AcDbEllipse
 10
21.522714983631626
 20
-37.51215326019967
 30
0.0
 11
1.6
 21
4.684875247764914e-17
 31
0.0
 40
0.3185052402439923
 41
3.141592653589793
 42
4.078286722045754
  0
ELLIPSE
  5
3E
330
17
100
AcDbEntity
  8
visible
100
AcDbEllipse
 10
-7.559249854666851
 20
-29.261143279074375
 30
0.0
 11
2.25
 21
6.58810581716941e-17
 31
0.0
 40
0.3185052402439923
 41
5.649083048840651
 42
6.283185307179586
  0
ELLIPSE
  5
3F
330
17
100
AcDbEntity
  8
visible
100
AcDbEllipse
 10
-7.559249854666851
 20
-29.261143279074375
 30
0.0
 11
2.25
 21
6.58810581716941e-17
 31
0.0
 40
0.3185052402439923
 41
0.0
 42
3.141592653589793
  0
ELLIPSE
  5
40
330
17
100
AcDbEntity
  8
visible
100
AcDbEllipse
 10
-7.559249854666851
 20
-29.261143279074375
 30
0.0
 11
2.25
 21
6.58810581716941e-17
 31
0.0
 40
0.3185052402439923
 41
3.141592653589793
 42
5.649083048840651
  0
ELLIPSE
  5
41
330
17
100
AcDbEntity
  8
visible
100
AcDbEllipse
 10
-2.8196136225222688
 20
-27.208430789390512
 30
0.0
 11
2.5
 21
7.320117574632678e-17
 31
0.0
 40
0.3185052402439923
 41
5.649083048840651
 42
6.283185307179586
  0
ELLIPSE
  5
42
330
17
100
AcDbEntity
  8
visible
100
AcDbEllipse
 10
-2.8196136225222688
 20
-27.208430789390512
 30
0.0
 11
2.5
 21
7.320117574632678e-17
 31
0.0
 40
0.3185052402439923
 41
0.0
 42
3.141592653589793
  0
ELLIPSE
  5
43
330
17
100
AcDbEntity
  8
visible
100
AcDbEllipse
 10
-2.8196136225222688
 20
-27.208430789390512
 30
0.0
 11
2.5
 21
7.320117574632678e-17
 31
0.0
 40
0.3185052402439923
 41
3.141592653589793
 42
5.649083048840651
  0
ELLIPSE
  5
44
330
17
100
AcDbEntity
  8
visible
100
AcDbEllipse
 10
1.9200226096223139
 20
-25.15571829970665
 30
0.0
 11
2.25
 21
6.58810581716941e-17
 31
0.0
 40
0.3185052402439923
 41
5.649083048840651
 42
6.283185307179586
  0
ELLIPSE
  5
45
330
17
100
AcDbEntity
  8
visible
100
AcDbEllipse
 10
1.9200226096223139
 20
-25.15571829970665
 30
0.0
 11
2.25
 21
6.58810581716941e-17
 31
0.0
 40
0.3185052402439923
 41
0.0
 42
3.141592653589793
  0
ELLIPSE
  5
46
330
17
100
AcDbEntity
  8
visible
100
AcDbEllipse
 10
1.9200226096223139
 20
-25.15571829970665
 30
0.0
 11
2.25
 21
6.58810581716941e-17
 31
0.0
 40
0.3185052402439923
 41
3.141592653589793
 42
5.649083048840651
  0
LINE
  5
47
330
17
100
AcDbEntity
  8
visible
100
AcDbLine
 10
20.574787737202712
 20
-37.92269575813644
 30
0.0
 11
20.574787737202712
 21
-16.025718346772905
 31
0.0
  0
LINE
  5
48
330
17
100
AcDbEntity
  8
visible
100
AcDbLine
 10
34.689639264233854
 20
40.239414243126745
 30
0.0
 11
37.91205483283074
 21
39.484614754732576
 31
0.0
  0
LINE
  5
49
330
17
100
AcDbEntity
  8
visible
100
AcDbLine
 10
37.91205483283074
 20
34.74500925443745
 30
0.0
 11
37.91205483283074
 21
39.48461475473259
 31
0.0
  0
LINE
  5
4A
330
17
100
AcDbEntity
  8
visible
100
AcDbLine
 10
37.27516135896307
 20
-4.918494802535186
 30
0.0
 11
37.91205483283074
 21
-5.067676948041709
 31
0.0
  0
LINE
  5
4B
330
17
100
AcDbEntity
  8
visible
100
AcDbLine
 10
37.91205483283074
 20
-9.80728244833685
 30
0.0
 11
37.91205483283074
 21
-5.067676948041711
 31
0.0
  0
LINE
  5
4C
330
17
100
AcDbEntity
  8
visible
100
AcDbLine
 10
36.96412758640182
 20
-32.11480235763716
 30
0.0
 11
36.96412758640182
 21
-10.217824946273623
 31
0.0
  0
LINE
  5
4D
330
17
100
AcDbEntity
  8
visible
100
AcDbLine
 10
23.45616432478976
 20
-37.96503295323617
 30
0.0
 11
23.45616432478976
 21
-16.06805554187263
 31
0.0
  0
LINE
  5
4E
330
17
100
AcDbEntity
  8
visible
100
AcDbLine
 10
22.508237078360846
 20
-16.4785980398094
 30
0.0
 11
23.456164324789764
 21
-16.068055541872624
 31
0.0
  0
LINE
  5
4F
330
17
100
AcDbEntity
  8
visible
100
AcDbLine
 10
36.96412758640182
 20
-10.217824946273616
 30
0.0
 11
37.91205483283074
 21
-9.807282448336846
 31
0.0
  0
LINE
  5
50
330
17
100
AcDbEntity
  8
visible
100
AcDbLine
 10
22.508237078360846
 20
-16.4785980398094
 30
0.0
 11
22.508237078360846
 21
-11.73899253951426
 31
0.0
  0
LINE
  5
51
330
17
100
AcDbEntity
  8
visible
100
AcDbLine
 10
22.508237078360846
 20
-11.738992539514257
 30
0.0
 11
23.456164324789764
 21
-11.328450041577485
 31
0.0
  0
LINE
  5
52
330
17
100
AcDbEntity
  8
visible
100
AcDbLine
 10
36.96412758640182
 20
-5.478219445978476
 30
0.0
 11
37.91205483283074
 21
-5.067676948041703
 31
0.0
  0
LINE
  5
53
330
17
100
AcDbEntity
  8
visible
100
AcDbLine
 10
23.45616432478976
 20
-11.328450041577494
 30
0.0
 11
23.45616432478976
 21
28.484236160901652
 31
0.0
  0
LINE
  5
54
330
17
100
AcDbEntity
  8
visible
100
AcDbLine
 10
36.96412758640182
 20
-5.478219445978485
 30
0.0
 11
36.96412758640182
 21
34.33446675650066
 31
0.0
  0
LINE
  5
55
330
17
100
AcDbEntity
  8
visible
100
AcDbLine
 10
22.508237078360846
 20
28.0736936629649
 30
0.0
 11
23.456164324789764
 21
28.484236160901673
 31
0.0
  0
LINE
  5
56
330
17
100
AcDbEntity
  8
visible
100
AcDbLine
 10
36.96412758640182
 20
34.33446675650068
 30
0.0
 11
37.91205483283074
 21
34.745009254437456
 31
0.0
  0
LINE
  5
57
330
17
100
AcDbEntity
  8
visible
100
AcDbLine
 10
22.508237078360846
 20
28.0736936629649
 30
0.0
 11
22.508237078360846
 21
32.81329916326004
 31
0.0
  0
LINE
  5
58
330
17
100
AcDbEntity
  8
visible
100
AcDbLine
 10
22.508237078360846
 20
32.81329916326003
 30
0.0
 11
37.91205483283074
 21
39.48461475473258
 31
0.0
  0
ELLIPSE
  5
59
330
17
100
AcDbEntity
  8
visible
100
AcDbEllipse
 10
35.542236716758445
 20
-8.463835943031214
 30
0.0
 11
-0.20525511818771783
 21
-0.8762821100865554
 31
0.0
 40
0.5616001488817646
 41
0.3951460967592486
 42
3.141592653589793
  0
ELLIPSE
  5
5A
330
17
100
AcDbEntity
  8
visible
100
AcDbEllipse
 10
35.542236716758445
 20
-8.463835943031214
 30
0.0
 11
-0.20525511818771783
 21
-0.8762821100865554
 31
0.0
 40
0.5616001488817646
 41
3.141592653589793
 42
6.283185307179586
  0
ELLIPSE
  5
5B
330
17
100
AcDbEntity
  8
visible
100
AcDbEllipse
 10
35.542236716758445
 20
-8.463835943031214
 30
0.0
 11
-0.20525511818771783
 21
-0.8762821100865554
 31
0.0
 40
0.5616001488817646
 41
0.0
 42
0.39514609675924817
  0
ELLIPSE
  5
5C
330
17
100
AcDbEntity
  8
visible
100
AcDbEllipse
 10
35.542236716758445
 20
36.088455759743084
 30
0.0
 11
-0.20525511818771783
 21
-0.8762821100865554
 31
0.0
 40
0.5616001488817646
 41
0.3951460967592486
 42
3.141592653589793
  0
ELLIPSE
  5
5D
330
17
100
AcDbEntity
  8
visible
100
AcDbEllipse
 10
35.542236716758445
 20
36.088455759743084
 30
0.0
 11
-0.20525511818771783
 21
-0.8762821100865554
 31
0.0
 40
0.5616001488817646
 41
3.141592653589793
 42
6.283185307179586
  0
ELLIPSE
  5
5E
330
17
100
AcDbEntity
  8
visible
100
AcDbEllipse
 10
35.542236716758445
 20
36.088455759743084
 30
0.0
 11
-0.20525511818771783
 21
-0.8762821100865554
 31
0.0
 40
0.5616001488817646
 41
0.0
 42
0.39514609675924817
  0
ELLIPSE
  5
5F
330
17
100
AcDbEntity
  8
visible
100
AcDbEllipse
 10
30.21014595559579
 20
3.4456790069598497
 30
0.0
 11
-0.26227042879541723
 21
-1.1196938073328209
 31
0.0
 40
0.5616001488817646
 41
0.3951460967592486
 42
3.141592653589793
  0
ELLIPSE
  5
60
330
17
100
AcDbEntity
  8
visible
100
AcDbEllipse
 10
30.21014595559579
 20
3.4456790069598497
 30
0.0
 11
-0.26227042879541723
 21
-1.1196938073328209
 31
0.0
 40
0.5616001488817646
 41
3.141592653589793
 42
6.283185307179586
  0
ELLIPSE
  5
61
330
17
100
AcDbEntity
  8
visible
100
AcDbEllipse
 10
30.21014595559579
 20
3.4456790069598497
 30
0.0
 11
-0.26227042879541723
 21
-1.1196938073328209
 31
0.0
 40
0.5616001488817646
 41
0.0
 42
0.39514609675924817
  0
ELLIPSE
  5
62
330
17
100
AcDbEntity
  8
visible
100
AcDbEllipse
 10
24.878055194433138
 20
-13.082439044819893
 30
0.0
 11
-0.20525511818771783
 21
-0.8762821100865554
 31
0.0
 40
0.5616001488817646
 41
0.3951460967592486
 42
3.141592653589793
  0
ELLIPSE
  5
63
330
17
100
AcDbEntity
  8
visible
100
AcDbEllipse
 10
24.878055194433138
 20
-13.082439044819893
 30
0.0
 11
-0.20525511818771783
 21
-0.8762821100865554
 31
0.0
 40
0.5616001488817646
 41
3.141592653589793
 42
6.283185307179586
  0
ELLIPSE
  5
64
330
17
100
AcDbEntity
  8
visible
100
AcDbEllipse
 10
24.878055194433138
 20
-13.082439044819893
 30
0.0
 11
-0.20525511818771783
 21
-0.8762821100865554
 31
0.0
 40
0.5616001488817646
 41
0.0
 42
0.39514609675924817
  0
LINE
  5
65
330
17
100
AcDbEntity
  8
visible
100
AcDbLine
 10
34.03147766776236
 20
7.1387088168943755
 30
0.0
 11
26.388814243429223
 21
3.8287099272791476
 31
0.0
  0
LINE
  5
66
330
17
100
AcDbEntity
  8
visible
100
AcDbLine
 10
34.03147766776236
 20
7.138708816894383
 30
0.0
 11
34.03147766776236
 21
29.604438888293338
 31
0.0
  0
LINE
  5
67
330
17
100
AcDbEntity
  8
visible
100
AcDbLine
 10
26.388814243429223
 20
3.828709927279153
 30
0.0
 11
26.388814243429223
 21
26.294439998678108
 31
0.0
  0
LINE
  5
68
330
17
100
AcDbEntity
  8
visible
100
AcDbLine
 10
34.03147766776236
 20
29.604438888293355
 30
0.0
 11
26.388814243429223
 21
26.294439998678126
 31
0.0
  0
ELLIPSE
  5
69
330
17
100
AcDbEntity
  8
visible
100
AcDbEllipse
 10
30.21014595559579
 20
29.98746980861263
 30
0.0
 11
-0.26227042879541723
 21
-1.1196938073328209
 31
0.0
 40
0.5616001488817646
 41
0.3951460967592486
 42
3.141592653589793
  0
ELLIPSE
  5
6A
330
17
100
AcDbEntity
  8
visible
100
AcDbEllipse
 10
30.21014595559579
 20
29.98746980861263
 30
0.0
 11
-0.26227042879541723
 21
-1.1196938073328209
 31
0.0
 40
0.5616001488817646
 41
3.141592653589793
 42
6.283185307179586
  0
ELLIPSE
  5
6B
330
17
100
AcDbEntity
  8
visible
100
AcDbEllipse
 10
30.21014595559579
 20
29.98746980861263
 30
0.0
 11
-0.26227042879541723
 21
-1.1196938073328209
 31
0.0
 40
0.5616001488817646
 41
0.0
 42
0.39514609675924817
  0
ELLIPSE
  5
6C
330
17
100
AcDbEntity
  8
visible
100
AcDbEllipse
 10
24.878055194433138
 20
31.46985265795439
 30
0.0
 11
-0.20525511818771783
 21
-0.8762821100865554
 31
0.0
 40
0.5616001488817646
 41
0.3951460967592486
 42
3.141592653589793
  0
ELLIPSE
  5
6D
330
17
100
AcDbEntity
  8
visible
100
AcDbEllipse
 10
24.878055194433138
 20
31.46985265795439
 30
0.0
 11
-0.20525511818771783
 21
-0.8762821100865554
 31
0.0
 40
0.5616001488817646
 41
3.141592653589793
 42
6.283185307179586
  0
ELLIPSE
  5
6E
330
17
100
AcDbEntity
  8
visible
100
AcDbEllipse
 10
24.878055194433138
 20
31.46985265795439
 30
0.0
 11
-0.20525511818771783
 21
-0.8762821100865554
 31
0.0
 40
0.5616001488817646
 41
0.0
 42
0.39514609675924817
  0
LINE
  5
6F
330
17
100
AcDbEntity
  8
visible
100
AcDbLine
 10
21.219270850922086
 20
-38.07365565581527
 30
0.0
 11
21.219270850922086
 21
-16.176678244451736
 31
0.0
  0
LINE
  5
70
330
17
100
AcDbEntity
  8
visible
100
AcDbLine
 10
19.28582150976396
 20
-15.723798551415229
 30
0.0
 11
20.574787737202715
 21
-16.025718346772898
 31
0.0
  0
LINE
  5
71
330
17
100
AcDbEntity
  8
visible
100
AcDbLine
 10
19.28582150976396
 20
-15.723798551415229
 30
0.0
 11
19.28582150976396
 21
-10.98419305112009
 31
0.0
  0
LINE
  5
72
330
17
100
AcDbEntity
  8
visible
100
AcDbLine
 10
19.28582150976396
 20
-10.984193051120087
 30
0.0
 11
20.574787737202715
 21
-11.286112846477755
 31
0.0
  0
LINE
  5
73
330
17
100
AcDbEntity
  8
visible
100
AcDbLine
 10
20.574787737202712
 20
-11.286112846477767
 30
0.0
 11
20.574787737202712
 21
28.52657335600138
 31
0.0
  0
LINE
  5
74
330
17
100
AcDbEntity
  8
visible
100
AcDbLine
 10
19.28582150976396
 20
28.82849315135907
 30
0.0
 11
20.574787737202715
 21
28.5265733560014
 31
0.0
  0
LINE
  5
75
330
17
100
AcDbEntity
  8
visible
100
AcDbLine
 10
19.28582150976396
 20
28.82849315135907
 30
0.0
 11
19.28582150976396
 21
33.56809865165421
 31
0.0
  0
LINE
  5
76
330
17
100
AcDbEntity
  8
visible
100
AcDbLine
 10
19.28582150976396
 20
33.568098651654196
 30
0.0
 11
22.508237078360843
 21
32.81329916326003
 31
0.0
  0
LINE
  5
77
330
17
100
AcDbEntity
  8
visible
100
AcDbLine
 10
21.21927085092209
 20
28.37561345832257
 30
0.0
 11
22.508237078360843
 21
28.0736936629649
 31
0.0
  0
LINE
  5
78
330
17
100
AcDbEntity
  8
visible
100
AcDbLine
 10
21.219270850922086
 20
-11.437072744156598
 30
0.0
 11
21.219270850922086
 21
28.375613458322547
 31
0.0
  0
LINE
  5
79
330
17
100
AcDbEntity
  8
visible
100
AcDbLine
 10
21.21927085092209
 20
-11.43707274415659
 30
0.0
 11
22.508237078360843
 21
-11.738992539514257
 31
0.0
  0
LINE
  5
7A
330
17
100
AcDbEntity
  8
visible
100
AcDbLine
 10
21.21927085092209
 20
-16.17667824445173
 30
0.0
 11
22.508237078360843
 21
-16.4785980398094
 31
0.0
  0
LINE
  5
7B
330
17
100
AcDbEntity
  8
visible
100
AcDbLine
 10
19.28582150976396
 20
-10.984193051120087
 30
0.0
 11
19.92271498363163
 21
-10.708357707567835
 31
0.0
  0
LINE
  5
7C
330
17
100
AcDbEntity
  8
visible
100
AcDbLine
 10
19.28582150976396
 20
33.568098651654196
 30
0.0
 11
34.689639264233854
 21
40.23941424312675
 31
0.0
  0
LINE
  5
7D
330
17
100
AcDbEntity
  8
visible
100
AcDbLine
 10
30.809062099165473
 20
7.8935083052885595
 30
0.0
 11
26.388814243429223
 21
5.979121306676526
 31
0.0
  0
LINE
  5
7E
330
17
100
AcDbEntity
  8
visible
100
AcDbLine
 10
30.809062099165473
 20
7.893508305288552
 30
0.0
 11
30.809062099165473
 21
28.20882699729016
 31
0.0
  0
ELLIPSE
  5
7F
330
17
100
AcDbEntity
  8
visible
100
AcDbEllipse
 10
-2.8196136225222688
 20
-42.56475261034676
 30
0.0
 11
12.4
 21
3.630778317017808e-16
 31
0.0
 40
0.3185052402439923
 41
4.381289042539613
 42
5.649083048840651
  0
LINE
  5
80
330
17
100
AcDbEntity
  8
visible
100
AcDbLine
 10
-6.8506480297519
 20
-46.29970375812248
 30
0.0
 11
-6.8506480297519
 21
-44.11948522798672
 31
0.0
  0
ELLIPSE
  5
81
330
17
100
AcDbEntity
  8
visible
100
AcDbEllipse
 10
-2.8196136225222688
 20
-40.384534080211
 30
0.0
 11
12.4
 21
3.630778317017808e-16
 31
0.0
 40
0.3185052402439923
 41
4.258134309343424
 42
4.381289042539613
  0
LINE
  5
82
330
17
100
AcDbEntity
  8
visible
100
AcDbLine
 10
-8.260643001425459
 20
-46.11369572116739
 30
0.0
 11
-8.260643001425459
 21
-43.93347719103163
 31
0.0
  0
ELLIPSE
  5
83
330
17
100
AcDbEntity
  8
visible
100
AcDbEllipse
 10
-2.8196136225222688
 20
-42.56475261034676
 30
0.0
 11
12.4
 21
3.630778317017808e-16
 31
0.0
 40
0.3185052402439923
 41
3.8984391347480845
 42
4.258134309343423
  0
LINE
  5
84
330
17
100
AcDbEntity
  8
visible
100
AcDbLine
 10
-11.834474751660055
 20
-45.27658259306191
 30
0.0
 11
-11.834474751660055
 21
-43.33754960718436
 31
0.0
  0
LINE
  5
85
330
17
100
AcDbEntity
  8
visible
100
AcDbLine
 10
-12.812116831656134
 20
-44.90332470459327
 30
0.0
 11
-12.812116831656134
 21
-43.24688708809219
 31
0.0
  0
ELLIPSE
  5
86
330
17
100
AcDbEntity
  8
visible
100
AcDbEllipse
 10
-2.8196136225222688
 20
-42.56475261034676
 30
0.0
 11
12.4
 21
3.630778317017808e-16
 31
0.0
 40
0.3185052402439923
 41
3.248999372260556
 42
3.775284401551895
  0
ELLIPSE
  5
87
330
17
100
AcDbEntity
  8
visible
100
AcDbEllipse
 10
-2.8196136225222688
 20
-42.56475261034676
 30
0.0
 11
12.4
 21
3.630778317017808e-16
 31
0.0
 40
0.3185052402439923
 41
5.649083048840651
 42
6.175778588508823
  0
ELLIPSE
  5
88
330
17
100
AcDbEntity
  8
visible
100
AcDbEllipse
 10
35.67516135896306
 20
-5.176299650620805
 30
0.0
 11
1.6
 21
4.684875247764914e-17
 31
0.0
 40
0.3185052402439923
 41
5.649083048840651
 42
6.283185307179586
  0
ELLIPSE
  5
89
330
17
100
AcDbEntity
  8
visible
100
AcDbEllipse
 10
22.167198097351
 20
-11.02653024621982
 30
0.0
 11
1.6
 21
4.684875247764914e-17
 31
0.0
 40
0.3185052402439923
 41
4.078286722045754
 42
5.649083048840651
  0
LINE
  5
8A
330
17
100
AcDbEntity
  8
visible
100
AcDbLine
 10
30.809062099165473
 20
7.893508305288556
 30
0.0
 11
34.03147766776235
 21
7.138708816894385
 31
0.0
  0
ELLIPSE
  5
8B
330
17
100
AcDbEntity
  8
visible
100
AcDbEllipse
 10
21.522714983631626
 20
-10.87557034854099
 30
0.0
 11
1.6
 21
4.684875247764914e-17
 31
0.0
 40
0.3185052402439923
 41
3.141592653589793
 42
4.078286722045754
  0
LINE
  5
8C
330
17
100
AcDbEntity
  8
visible
100
AcDbLine
 10
-12.812116831656134
 20
-44.90332470459327
 30
0.0
 11
-11.834474751660055
 21
-44.47991286246959
 31
0.0
  0
LINE
  5
8D
330
17
100
AcDbEntity
  8
visible
100
AcDbLine
 10
-36.81961362252227
 20
-32.89595738974467
 30
0.0
 11
-36.81961362252227
 21
-27.20843078939051
 31
0.0
  0
LINE
  5
8E
330
17
100
AcDbEntity
  8
visible
100
AcDbLine
 10
19.92271498363163
 20
-37.51215326019967
 30
0.0
 11
19.92271498363163
 21
-15.872980696921754
 31
0.0
  0
LINE
  5
8F
330
17
100
AcDbEntity
  8
visible
100
AcDbLine
 10
37.27516135896307
 20
-31.81288256227949
 30
0.0
 11
37.27516135896307
 21
-10.083117791889102
 31
0.0
  0
LINE
  5
90
330
17
100
AcDbEntity
  8
visible
100
AcDbLine
 10
37.27516135896307
 20
-5.176299650620816
 30
0.0
 11
37.27516135896307
 21
34.469173910885196
 31
0.0
  0
LINE
  5
91
330
17
100
AcDbEntity
  8
visible
100
AcDbLine
 10
19.92271498363163
 20
-10.875570348540993
 30
0.0
 11
19.92271498363163
 21
28.679311005852554
 31
0.0
  0
ENDSEC
  0
SECTION
  2
OBJECTS
  0
DICTIONARY
  5
A
330
0
100
AcDbDictionary
281
1
  3
ACAD_COLOR
350
B
  3
ACAD_GROUP
350
C
  3
ACAD_LAYOUT
350
D
  3
ACAD_MATERIAL
350
E
  3
ACAD_MLEADERSTYLE
350
F
  3
ACAD_MLINESTYLE
350
10
  3
ACAD_PLOTSETTINGS
350
11
  3
ACAD_PLOTSTYLENAME
350
12
  3
ACAD_SCALELIST
350
14
  3
ACAD_TABLESTYLE
350
15
  3
ACAD_VISUALSTYLE
350
16
  3
EZDXF_META
350
2D
  0
DICTIONARY
  5
B
330
A
100
AcDbDictionary
281
1
  0
DICTIONARY
  5
C
330
A
100
AcDbDictionary
281
1
  0
DICTIONARY
  5
D
330
A
100
AcDbDictionary
281
1
  3
Model
350
1A
  3
Layout1
350
1E
  0
DICTIONARY
  5
E
330
A
100
AcDbDictionary
281
1
  3
ByBlock
350
1F
  3
ByLayer
350
20
  3
Global
350
21
  0
DICTIONARY
  5
F
330
A
100
AcDbDictionary
281
1
  3
Standard
350
2C
  0
DICTIONARY
  5
10
330
A
100
AcDbDictionary
281
1
  3
Standard
350
22
  0
DICTIONARY
  5
11
330
A
100
AcDbDictionary
281
1
  0
ACDBDICTIONARYWDFLT
  5
12
330
A
100
AcDbDictionary
281
1
  3
Normal
350
13
100
AcDbDictionaryWithDefault
340
13
  0
ACDBPLACEHOLDER
  5
13
330
12
  0
DICTIONARY
  5
14
330
A
100
AcDbDictionary
281
1
  0
DICTIONARY
  5
15
330
A
100
AcDbDictionary
281
1
  0
DICTIONARY
  5
16
330
A
100
AcDbDictionary
281
1
  0
LAYOUT
  5
1A
330
D
100
AcDbPlotSettings
  1

  4
A3
  6

 40
7.5
 41
20.0
 42
7.5
 43
20.0
 44
420.0
 45
297.0
 46
0.0
 47
0.0
 48
0.0
 49
0.0
140
0.0
141
0.0
142
1.0
143
1.0
 70
1024
 72
1
 73
0
 74
5
  7

 75
16
 76
0
 77
2
 78
300
147
1.0
148
0.0
149
0.0
100
AcDbLayout
  1
Model
 70
1
 71
0
 10
0.0
 20
0.0
 11
420.0
 21
297.0
 12
0.0
 22
0.0
 32
0.0
 14
1e+20
 24
1e+20
 34
1e+20
 15
-1e+20
 25
-1e+20
 35
-1e+20
146
0.0
 13
0.0
 23
0.0
 33
0.0
 16
1.0
 26
0.0
 36
0.0
 17
0.0
 27
1.0
 37
0.0
 76
1
330
17
  0
LAYOUT
  5
1E
330
D
100
AcDbPlotSettings
  1

  4
A3
  6

 40
7.5
 41
20.0
 42
7.5
 43
20.0
 44
420.0
 45
297.0
 46
0.0
 47
0.0
 48
0.0
 49
0.0
140
0.0
141
0.0
142
1.0
143
1.0
 70
0
 72
1
 73
0
 74
5
  7

 75
16
 76
0
 77
2
 78
300
147
1.0
148
0.0
149
0.0
100
AcDbLayout
  1
Layout1
 70
1
 71
1
 10
0.0
 20
0.0
 11
420.0
 21
297.0
 12
0.0
 22
0.0
 32
0.0
 14
1e+20
 24
1e+20
 34
1e+20
 15
-1e+20
 25
-1e+20
 35
-1e+20
146
0.0
 13
0.0
 23
0.0
 33
0.0
 16
1.0
 26
0.0
 36
0.0
 17
0.0
 27
1.0
 37
0.0
 76
1
330
1B
  0
MATERIAL
  5
1F
102
{ACAD_REACTORS
330
E
102
}
330
E
100
AcDbMaterial
  1
ByBlock
  2

 70
0
 40
1.0
 71
1
 41
1.0
 91
-1023410177
 42
1.0
 72
1
  3

 73
1
 74
1
 75
1
 44
0.5
 73
0
 45
1.0
 46
1.0
 77
1
  4

 78
1
 79
1
170
1
 48
1.0
171
1
  6

172
1
173
1
174
1
140
1.0
141
1.0
175
1
  7

176
1
177
1
178
1
143
1.0
179
1
  8

270
1
271
1
272
1
145
1.0
146
1.0
273
1
  9

274
1
275
1
276
1
 42
1.0
 72
1
  3

 73
1
 74
1
 75
1
 94
63
  0
MATERIAL
  5
20
102
{ACAD_REACTORS
330
E
102
}
330
E
100
AcDbMaterial
  1
ByLayer
  2

 70
0
 40
1.0
 71
1
 41
1.0
 91
-1023410177
 42
1.0
 72
1
  3

 73
1
 74
1
 75
1
 44
0.5
 73
0
 45
1.0
 46
1.0
 77
1
  4

 78
1
 79
1
170
1
 48
1.0
171
1
  6

172
1
173
1
174
1
140
1.0
141
1.0
175
1
  7

176
1
177
1
178
1
143
1.0
179
1
  8

270
1
271
1
272
1
145
1.0
146
1.0
273
1
  9

274
1
275
1
276
1
 42
1.0
 72
1
  3

 73
1
 74
1
 75
1
 94
63
  0
MATERIAL
  5
21
102
{ACAD_REACTORS
330
E
102
}
330
E
100
AcDbMaterial
  1
Global
  2

 70
0
 40
1.0
 71
1
 41
1.0
 91
-1023410177
 42
1.0
 72
1
  3

 73
1
 74
1
 75
1
 44
0.5
 73
0
 45
1.0
 46
1.0
 77
1
  4

 78
1
 79
1
170
1
 48
1.0
171
1
  6

172
1
173
1
174
1
140
1.0
141
1.0
175
1
  7

176
1
177
1
178
1
143
1.0
179
1
  8

270
1
271
1
272
1
145
1.0
146
1.0
273
1
  9

274
1
275
1
276
1
 42
1.0
 72
1
  3

 73
1
 74
1
 75
1
 94
63
  0
MLINESTYLE
  5
22
102
{ACAD_REACTORS
330
10
102
}
330
10
100
AcDbMlineStyle
  2
Standard
 70
0
  3

 62
256
 51
90.0
 52
90.0
 71
2
 49
0.5
 62
256
  6
BYLAYER
 49
-0.5
 62
256
  6
BYLAYER
  0
MLEADERSTYLE
  5
2C
102
{ACAD_REACTORS
330
F
102
}
330
F
100
AcDbMLeaderStyle
179
2
170
2
171
1
172
0
 90
2
 40
0.0
 41
0.0
173
1
 91
-1056964608
 92
-2
290
1
 42
2.0
291
1
 43
8.0
  3
Standard
 44
4.0
300

342
29
174
1
175
1
176
0
178
1
 93
-1056964608
 45
4.0
292
0
297
0
 46
4.0
 94
-1056964608
 47
1.0
 49
1.0
140
1.0
294
1
141
0.0
177
0
142
1.0
295
0
296
0
143
3.75
271
0
272
9
273
9
  0
DICTIONARY
  5
2D
330
A
100
AcDbDictionary
280
1
281
1
  3
CREATED_BY_EZDXF
350
2E
  3
WRITTEN_BY_EZDXF
350
95
  0
DICTIONARYVAR
  5
2E
330
2D
100
DictionaryVariables
280
0
  1
1.4.4 @ 2026-10-01T18:29:32.392843+00:00
  0
DICTIONARYVAR
  5
95
330
2D
100
DictionaryVariables
280
0
  1
1.4.4 @ 2026-10-01T18:29:32.404881+00:00
  0
ENDSEC
  0
EOF
