  0
SECTION
  2
HEADER
  9
$ACADVER
  1
AC1027
  9
$ACADMAINTVER
 70
105
  9
$DWGCODEPAGE
  3
ANSI_1252
  9
$LASTSAVEDBY
  1
ezdxf
  9
$REQUIREDVERSIONS
160
0
  9
$INSBASE
 10
0.0
 20
0.0
 30
0.0
  9
$EXTMIN
 10
1e+20
 20
1e+20
 30
1e+20
  9
$EXTMAX
 10
-1e+20
 20
-1e+20
 30
-1e+20
  9
$LIMMIN
 10
0.0
 20
0.0
  9
$LIMMAX
 10
420.0
 20
297.0
  9
$ORTHOMODE
 70
0
  9
$REGENMODE
 70
1
  9
$FILLMODE
 70
1
  9
$QTEXTMODE
 70
0
  9
$MIRRTEXT
 70
1
  9
$LTSCALE
 40
1.0
  9
$ATTMODE
 70
1
  9
$TEXTSIZE
 40
2.5
  9
$TRACEWID
 40
1.0
  9
$TEXTSTYLE
  7
Standard
  9
$CLAYER
  8
0
  9
$CELTYPE
  6
ByLayer
  9
$CECOLOR
 62
256
  9
$CELTSCALE
 40
1.0
  9
$DISPSILH
 70
0
  9
$DIMSCALE
 40
1.0
  9
$DIMASZ
 40
2.5
  9
$DIMEXO
 40
0.625
  9
$DIMDLI
 40
3.75
  9
$DIMRND
 40
0.0
  9
$DIMDLE
 40
0.0
  9
$DIMEXE
 40
1.25
  9
$DIMTP
 40
0.0
  9
$DIMTM
 40
0.0
  9
$DIMTXT
 40
2.5
  9
$DIMCEN
 40
2.5
  9
$DIMTSZ
 40
0.0
  9
$DIMTOL
 70
0
  9
$DIMLIM
 70
0
  9
$DIMTIH
 70
0
  9
$DIMTOH
 70
0
  9
$DIMSE1
 70
0
  9
$DIMSE2
 70
0
  9
$DIMTAD
 70
1
  9
$DIMZIN
 70
8
  9
$DIMBLK
  1

  9
$DIMASO
 70
1
  9
$DIMSHO
 70
1
  9
$DIMPOST
  1

  9
$DIMAPOST
  1

  9
$DIMALT
 70
0
  9
$DIMALTD
 70
3
  9
$DIMALTF
 40
0.03937007874
  9
$DIMLFAC
 40
1.0
  9
$DIMTOFL
 70
1
  9
$DIMTVP
 40
0.0
  9
$DIMTIX
 70
0
  9
$DIMSOXD
 70
0
  9
$DIMSAH
 70
0
  9
$DIMBLK1
  1

  9
$DIMBLK2
  1

  9
$DIMSTYLE
  2
ISO-25
  9
$DIMCLRD
 70
0
  9
$DIMCLRE
 70
0
  9
$DIMCLRT
 70
0
  9
$DIMTFAC
 40
1.0
  9
$DIMGAP
 40
0.625
  9
$DIMJUST
 70
0
  9
$DIMSD1
 70
0
  9
$DIMSD2
 70
0
  9
$DIMTOLJ
 70
0
  9
$DIMTZIN
 70
8
  9
$DIMALTZ
 70
0
  9
$DIMALTTZ
 70
0
  9
$DIMUPT
 70
0
  9
$DIMDEC
 70
2
  9
$DIMTDEC
 70
2
  9
$DIMALTU
 70
2
  9
$DIMALTTD
 70
3
  9
$DIMTXSTY
  7
Standard
  9
$DIMAUNIT
 70
0
  9
$DIMADEC
 70
0
  9
$DIMALTRND
 40
0.0
  9
$DIMAZIN
 70
0
  9
$DIMDSEP
 70
44
  9
$DIMATFIT
 70
3
  9
$DIMFRAC
 70
0
  9
$DIMLDRBLK
  1

  9
$DIMLUNIT
 70
2
  9
$DIMLWD
 70
-2
  9
$DIMLWE
 70
-2
  9
$DIMTMOVE
 70
0
  9
$DIMFXL
 40
1.0
  9
$DIMFXLON
 70
0
  9
$DIMJOGANG
 40
0.785398163397
  9
$DIMTFILL
 70
0
  9
$DIMTFILLCLR
 70
0
  9
$DIMARCSYM
 70
0
  9
$DIMLTYPE
  6

  9
$DIMLTEX1
  6

  9
$DIMLTEX2
  6

  9
$DIMTXTDIRECTION
 70
0
  9
$LUNITS
 70
2
  9
$LUPREC
 70
4
  9
$SKETCHINC
 40
1.0
  9
$FILLETRAD
 40
10.0
  9
$AUNITS
 70
0
  9
$AUPREC
 70
2
  9
$MENU
  1
.
  9
$ELEVATION
 40
0.0
  9
$PELEVATION
 40
0.0
  9
$THICKNESS
 40
0.0
  9
$LIMCHECK
 70
0
  9
$CHAMFERA
 40
0.0
  9
$CHAMFERB
 40
0.0
  9
$CHAMFERC
 40
0.0
  9
$CHAMFERD
 40
0.0
  9
$SKPOLY
 70
0
  9
$TDCREATE
 40
2461316.839699074
  9
$TDUCREATE
 40
2458532.153996898
  9
$TDUPDATE
 40
2461316.839699074
  9
$TDUUPDATE
 40
2458532.1544311
  9
$TDINDWG
 40
0.0
  9
$TDUSRTIMER
 40
0.0
  9
$USRTIMER
 70
1
  9
$ANGBASE
 50
0.0
  9
$ANGDIR
 70
0
  9
$PDMODE
 70
0
  9
$PDSIZE
 40
0.0
  9
$PLINEWID
 40
0.0
  9
$SPLFRAME
 70
0
  9
$SPLINETYPE
 70
6
  9
$SPLINESEGS
 70
8
  9
$HANDSEED
  5
66
  9
$SURFTAB1
 70
6
  9
$SURFTAB2
 70
6
  9
$SURFTYPE
 70
6
  9
$SURFU
 70
6
  9
$SURFV
 70
6
  9
$UCSBASE
  2

  9
$UCSNAME
  2

  9
$UCSORG
 10
0.0
 20
0.0
 30
0.0
  9
$UCSXDIR
 10
1.0
 20
0.0
 30
0.0
  9
$UCSYDIR
 10
0.0
 20
1.0
 30
0.0
  9
$UCSORTHOREF
  2

  9
$UCSORTHOVIEW
 70
0
  9
$UCSORGTOP
 10
0.0
 20
0.0
 30
0.0
  9
$UCSORGBOTTOM
 10
0.0
 20
0.0
 30
0.0
  9
$UCSORGLEFT
 10
0.0
 20
0.0
 30
0.0
  9
$UCSORGRIGHT
 10
0.0
 20
0.0
 30
0.0
  9
$UCSORGFRONT
 10
0.0
 20
0.0
 30
0.0
  9
$UCSORGBACK
 10
0.0
 20
0.0
 30
0.0
  9
$PUCSBASE
  2

  9
$PUCSNAME
  2

  9
$PUCSORG
 10
0.0
 20
0.0
 30
0.0
  9
$PUCSXDIR
 10
1.0
 20
0.0
 30
0.0
  9
$PUCSYDIR
 10
0.0
 20
1.0
 30
0.0
  9
$PUCSORTHOREF
  2

  9
$PUCSORTHOVIEW
 70
0
  9
$PUCSORGTOP
 10
0.0
 20
0.0
 30
0.0
  9
$PUCSORGBOTTOM
 10
0.0
 20
0.0
 30
0.0
  9
$PUCSORGLEFT
 10
0.0
 20
0.0
 30
0.0
  9
$PUCSORGRIGHT
 10
0.0
 20
0.0
 30
0.0
  9
$PUCSORGFRONT
 10
0.0
 20
0.0
 30
0.0
  9
$PUCSORGBACK
 10
0.0
 20
0.0
 30
0.0
  9
$USERI1
 70
0
  9
$USERI2
 70
0
  9
$USERI3
 70
0
  9
$USERI4
 70
0
  9
$USERI5
 70
0
  9
$USERR1
 40
0.0
  9
$USERR2
 40
0.0
  9
$USERR3
 40
0.0
  9
$USERR4
 40
0.0
  9
$USERR5
 40
0.0
  9
$WORLDVIEW
 70
1
  9
$SHADEDGE
 70
3
  9
$SHADEDIF
 70
70
  9
$TILEMODE
 70
1
  9
$MAXACTVP
 70
64
  9
$PINSBASE
 10
0.0
 20
0.0
 30
0.0
  9
$PLIMCHECK
 70
0
  9
$PEXTMIN
 10
1e+20
 20
1e+20
 30
1e+20
  9
$PEXTMAX
 10
-1e+20
 20
-1e+20
 30
-1e+20
  9
$PLIMMIN
 10
0.0
 20
0.0
  9
$PLIMMAX
 10
420.0
 20
297.0
  9
$UNITMODE
 70
0
  9
$VISRETAIN
 70
1
  9
$PLINEGEN
 70
0
  9
$PSLTSCALE
 70
1
  9
$TREEDEPTH
 70
3020
  9
$CMLSTYLE
  2
Standard
  9
$CMLJUST
 70
0
  9
$CMLSCALE
 40
20.0
  9
$PROXYGRAPHICS
 70
1
  9
$MEASUREMENT
 70
1
  9
$CELWEIGHT
370
-1
  9
$ENDCAPS
280
0
  9
$JOINSTYLE
280
0
  9
$LWDISPLAY
290
0
  9
$INSUNITS
 70
4
  9
$HYPERLINKBASE
  1

  9
$STYLESHEET
  1

  9
$XEDIT
290
1
  9
$CEPSNTYPE
380
0
  9
$PSTYLEMODE
290
1
  9
$FINGERPRINTGUID
  2
{99F32000-EEE7-4D8C-919E-262FADBAA9F7}
  9
$VERSIONGUID
  2
{CA70D166-5137-4C36-B538-7DF1601C26E7}
  9
$EXTNAMES
290
1
  9
$PSVPSCALE
 40
0.0
  9
$OLESTARTUP
290
0
  9
$SORTENTS
280
127
  9
$INDEXCTL
280
0
  9
$HIDETEXT
280
1
  9
$XCLIPFRAME
280
1
  9
$HALOGAP
280
0
  9
$OBSCOLOR
 70
257
  9
$OBSLTYPE
280
0
  9
$INTERSECTIONDISPLAY
280
0
  9
$INTERSECTIONCOLOR
 70
257
  9
$DIMASSOC
280
2
  9
$PROJECTNAME
  1

  9
$CAMERADISPLAY
290
0
  9
$LENSLENGTH
 40
50.0
  9
$CAMERAHEIGHT
 40
0.0
  9
$STEPSPERSEC
 40
24.0
  9
$STEPSIZE
 40
100.0
  9
$3DDWFPREC
 40
2.0
  9
$PSOLWIDTH
 40
0.005
  9
$PSOLHEIGHT
 40
0.08
  9
$LOFTANG1
 40
1.570796326795
  9
$LOFTANG2
 40
1.570796326795
  9
$LOFTMAG1
 40
0.0
  9
$LOFTMAG2
 40
0.0
  9
$LOFTPARAM
 70
7
  9
$LOFTNORMALS
280
1
  9
$LATITUDE
 40
37.795
  9
$LONGITUDE
 40
-122.394
  9
$NORTHDIRECTION
 40
0.0
  9
$TIMEZONE
 70
-8000
  9
$LIGHTGLYPHDISPLAY
280
1
  9
$TILEMODELIGHTSYNCH
280
1
  9
$CMATERIAL
347
20
  9
$SOLIDHIST
280
0
  9
$SHOWHIST
280
1
  9
$DWFFRAME
280
2
  9
$DGNFRAME
280
2
  9
$REALWORLDSCALE
290
1
  9
$INTERFERECOLOR
 62
256
  9
$CSHADOW
280
0
  9
$SHADOWPLANELOCATION
 40
0.0
  0
ENDSEC
  0
SECTION
  2
CLASSES
  0
CLASS
  1
ACDBDICTIONARYWDFLT
  2
AcDbDictionaryWithDefault
  3
ObjectDBX Classes
 90
0
 91
0
280
0
281
0
  0
CLASS
  1
SUN
  2
AcDbSun
  3
SCENEOE
 90
1153
 91
0
280
0
281
0
  0
CLASS
  1
VISUALSTYLE
  2
AcDbVisualStyle
  3
ObjectDBX Classes
 90
4095
 91
0
280
0
281
0
  0
CLASS
  1
MATERIAL
  2
AcDbMaterial
  3
ObjectDBX Classes
 90
1153
 91
0
280
0
281
0
  0
CLASS
  1
SCALE
  2
AcDbScale
  3
ObjectDBX Classes
 90
1153
 91
0
280
0
281
0
  0
CLASS
  1
TABLESTYLE
  2
AcDbTableStyle
  3
ObjectDBX Classes
 90
4095
 91
0
280
0
281
0
  0
CLASS
  1
MLEADERSTYLE
  2
AcDbMLeaderStyle
  3
ACDB_MLEADERSTYLE_CLASS
 90
4095
 91
0
280
0
281
0
  0
CLASS
  1
DICTIONARYVAR
  2
AcDbDictionaryVar
  3
ObjectDBX Classes
 90
0
 91
0
280
0
281
0
  0
CLASS
  1
CELLSTYLEMAP
  2
AcDbCellStyleMap
  3
ObjectDBX Classes
 90
1152
 91
0
280
0
281
0
  0
CLASS
  1
MENTALRAYRENDERSETTINGS
  2
AcDbMentalRayRenderSettings
  3
SCENEOE
 90
1024
 91
0
280
0
281
0
  0
CLASS
  1
ACDBDETAILVIEWSTYLE
  2
AcDbDetailViewStyle
  3
ObjectDBX Classes
 90
1025
 91
0
280
0
281
0
  0
CLASS
  1
ACDBSECTIONVIEWSTYLE
  2
AcDbSectionViewStyle
  3
ObjectDBX Classes
 90
1025
 91
0
280
0
281
0
  0
CLASS
  1
RASTERVARIABLES
  2
AcDbRasterVariables
  3
ISM
 90
0
 91
0
280
0
281
0
  0
CLASS
  1
LAYOUT
  2
AcDbLayout
  3
ObjectDBX Classes
 90
0
 91
0
280
0
281
0
  0
CLASS
  1
ACDBPLACEHOLDER
  2
AcDbPlaceHolder
  3
ObjectDBX Classes
 90
0
 91
0
280
0
281
0
  0
ENDSEC
  0
SECTION
  2
TABLES
  0
TABLE
  2
VPORT
  5
8
330
0
100
AcDbSymbolTable
 70
1
  0
VPORT
  5
62
330
8
100
AcDbSymbolTableRecord
100
AcDbViewportTableRecord
  2
*Active
 70
0
 10
0.0
 20
0.0
 11
1.0
 21
1.0
 12
-0.1909411258815652
 22
0.5832928871870138
 13
0.0
 23
0.0
 14
0.5
 24
0.5
 15
0.5
 25
0.5
 16
0.0
 26
0.0
 36
1.0
 17
0.0
 27
0.0
 37
0.0
 40
55.60241617260254
 41
1.34
 42
50.0
 43
0.0
 44
0.0
 50
0.0
 51
0.0
 71
0
 72
1000
 73
1
 74
3
 75
0
 76
0
 77
0
 78
0
281
0
 65
1
110
0.0
120
0.0
130
0.0
111
1.0
121
0.0
131
0.0
112
0.0
122
1.0
132
0.0
 79
0
146
0.0
  0
ENDTAB
  0
TABLE
  2
LTYPE
  5
2
330
0
100
AcDbSymbolTable
 70
3
  0
LTYPE
  5
24
330
2
100
AcDbSymbolTableRecord
100
AcDbLinetypeTableRecord
  2
ByBlock
 70
0
  3

 72
65
 73
0
 40
0.0
  0
LTYPE
  5
25
330
2
100
AcDbSymbolTableRecord
100
AcDbLinetypeTableRecord
  2
ByLayer
 70
0
  3

 72
65
 73
0
 40
0.0
  0
LTYPE
  5
26
330
2
100
AcDbSymbolTableRecord
100
AcDbLinetypeTableRecord
  2
Continuous
 70
0
  3

 72
65
 73
0
 40
0.0
  0
ENDTAB
  0
TABLE
  2
LAYER
  5
1
330
0
100
AcDbSymbolTable
 70
3
  0
LAYER
  5
27
330
1
100
AcDbSymbolTableRecord
100
AcDbLayerTableRecord
  2
0
 70
0
 62
7
  6
Continuous
370
-3
390
13
347
21
  0
LAYER
  5
28
330
1
100
AcDbSymbolTableRecord
100
AcDbLayerTableRecord
  2
Defpoints
 70
0
 62
7
  6
Continuous
290
0
370
-3
390
13
347
21
  0
LAYER
  5
2F
330
1
100
AcDbSymbolTableRecord
100
AcDbLayerTableRecord
  2
visible
 70
0
 62
7
  6
Continuous
370
-3
390
13
347
21
  0
ENDTAB
  0
TABLE
  2
STYLE
  5
5
330
0
100
AcDbSymbolTable
 70
1
  0
STYLE
  5
29
330
5
100
AcDbSymbolTableRecord
100
AcDbTextStyleTableRecord
  2
Standard
 70
0
 40
0.0
 41
1.0
 50
0.0
 71
0
 42
2.5
  3
txt
  4

  0
ENDTAB
  0
TABLE
  2
VIEW
  5
7
330
0
100
AcDbSymbolTable
 70
0
  0
ENDTAB
  0
TABLE
  2
UCS
  5
6
330
0
100
AcDbSymbolTable
 70
0
  0
ENDTAB
  0
TABLE
  2
APPID
  5
3
330
0
100
AcDbSymbolTable
 70
3
  0
APPID
  5
2A
330
3
100
AcDbSymbolTableRecord
100
AcDbRegAppTableRecord
  2
ACAD
 70
0
  0
APPID
  5
63
330
3
100
AcDbSymbolTableRecord
100
AcDbRegAppTableRecord
  2
HATCHBACKGROUNDCOLOR
 70
0
  0
APPID
  5
64
330
3
100
AcDbSymbolTableRecord
100
AcDbRegAppTableRecord
  2
EZDXF
 70
0
  0
ENDTAB
  0
TABLE
  2
DIMSTYLE
  5
4
330
0
100
AcDbSymbolTable
 70
1
100
AcDbDimStyleTable
  0
DIMSTYLE
105
2B
330
4
100
AcDbSymbolTableRecord
100
AcDbDimStyleTableRecord
  2
Standard
 70
0
 40
1.0
 41
2.5
 42
0.625
 43
3.75
 44
1.25
 45
0.0
 46
0.0
 47
0.0
 48
0.0
 49
2.5
140
2.5
141
2.5
142
0.0
143
0.03937007874
144
1.0
145
0.0
146
1.0
147
0.625
148
0.0
 69
0
 70
0
 71
0
 72
0
 73
0
 74
0
 75
0
 76
0
 77
1
 78
8
 79
3
170
0
171
3
172
1
173
0
174
0
175
0
176
0
177
0
178
0
179
2
271
2
272
2
273
2
274
3
275
0
276
0
277
2
278
44
279
0
280
0
281
0
282
0
283
0
284
8
285
0
286
0
288
0
289
3
290
0
371
-2
372
-2
  0
ENDTAB
  0
TABLE
  2
BLOCK_RECORD
  5
9
330
0
100
AcDbSymbolTable
 70
2
  0
BLOCK_RECORD
  5
17
330
9
100
AcDbSymbolTableRecord
100
AcDbBlockTableRecord
  2
*Model_Space
340
1A
 70
0
280
1
281
0
  0
BLOCK_RECORD
  5
1B
330
9
100
AcDbSymbolTableRecord
100
AcDbBlockTableRecord
  2
*Paper_Space
340
1E
 70
0
280
1
281
0
  0
ENDTAB
  0
ENDSEC
  0
SECTION
  2
BLOCKS
  0
BLOCK
  5
18
330
17
100
AcDbEntity
  8
0
100
AcDbBlockBegin
  2
*Model_Space
 70
0
 10
0.0
 20
0.0
 30
0.0
  3
*Model_Space
  1

  0
ENDBLK
  5
19
330
17
100
AcDbEntity
  8
0
100
AcDbBlockEnd
  0
BLOCK
  5
1C
330
1B
100
AcDbEntity
  8
0
100
AcDbBlockBegin
  2
*Paper_Space
 70
0
 10
0.0
 20
0.0
 30
0.0
  3
*Paper_Space
  1

  0
ENDBLK
  5
1D
330
1B
100
AcDbEntity
  8
0
100
AcDbBlockEnd
  0
ENDSEC
  0
SECTION
  2
ENTITIES
  0
ELLIPSE
  5
30
330
17
100
AcDbEntity
  8
visible
100
AcDbEllipse
 10
0.0
 20
6.6185146307663985
 30
0.0
 11
46.0
 21
0.0
 31
0.0
 40
0.4218925335399338
 41
5.639684198386302
 42
6.283185307179586
  0
ELLIPSE
  5
31
330
17
100
AcDbEntity
  8
visible
100
AcDbEllipse
 10
0.0
 20
6.6185146307663985
 30
0.0
 11
46.0
 21
0.0
 31
0.0
 40
0.4218925335399338
 41
3.141592653589793
 42
5.639684198386302
  0
LINE
  5
32
330
17
100
AcDbEntity
  8
visible
100
AcDbLine
 10
36.8
 20
-5.025719294935769
 30
0.0
 11
36.8
 21
-17.809425724112756
 31
0.0
  0
ELLIPSE
  5
33
330
17
100
AcDbEntity
  8
visible
100
AcDbEllipse
 10
0.0
 20
-6.165191798410582
 30
0.0
 11
46.0
 21
0.0
 31
0.0
 40
0.4218925335399338
 41
5.639684198386302
 42
6.283185307179586
  0
ELLIPSE
  5
34
330
17
100
AcDbEntity
  8
visible
100
AcDbEllipse
 10
0.0
 20
-6.165191798410582
 30
0.0
 11
46.0
 21
0.0
 31
0.0
 40
0.4218925335399338
 41
3.141592653589793
 42
5.639684198386302
  0
ELLIPSE
  5
35
330
17
100
AcDbEntity
  8
visible
100
AcDbEllipse
 10
0.0
 20
7.25316672299504
 30
0.0
 11
45.587298334620755
 21
0.0
 31
0.0
 40
0.4218925335399338
 41
5.639684198386302
 42
6.07441906660171
  0
SPLINE
  5
36
330
17
100
AcDbEntity
  8
visible
100
AcDbSpline
 70
0
 71
3
 72
11
 73
7
 74
0
 40
0.0
 40
0.0
 40
0.0
 40
0.0
 40
0.615728530461575
 40
0.615728530461575
 40
0.615728530461575
 40
1.0
 40
1.0
 40
1.0
 40
1.0
 10
44.34074741848198
 20
3.6432272565157793
 30
0.0
 10
44.45582156548989
 20
3.606835124224505
 30
0.0
 10
44.54499528070308
 20
3.5202071829618617
 30
0.0
 10
44.586202267138376
 20
3.4276220289431656
 30
0.0
 10
44.61171377359439
 20
3.3702454376831814
 30
0.0
 10
44.618805206639884
 20
3.3100250727573215
 30
0.0
 10
44.59747772197599
 20
3.2670803787420444
 30
0.0
  0
SPLINE
  5
37
330
17
100
AcDbEntity
  8
visible
100
AcDbSpline
 70
0
 71
3
 72
11
 73
7
 74
0
 40
0.0
 40
0.0
 40
0.0
 40
0.0
 40
0.3834525141603817
 40
0.3834525141603817
 40
0.3834525141603817
 40
1.0
 40
1.0
 40
1.0
 40
1.0
 10
21.557477721976
 20
-9.693458251604717
 30
0.0
 10
21.465871670208383
 20
-9.714109070914914
 30
0.0
 10
21.361771153806853
 20
-9.708659856931703
 30
0.0
 10
21.26328324511526
 20
-9.69252486265967
 30
0.0
 10
21.104561654833944
 20
-9.665950684823297
 30
0.0
 10
20.952217260381122
 20
-9.614624798511386
 30
0.0
 10
20.83598941693642
 20
-9.578748614837677
 30
0.0
  0
ELLIPSE
  5
38
330
17
100
AcDbEntity
  8
visible
100
AcDbEllipse
 10
0.0
 20
7.25316672299504
 30
0.0
 11
45.587298334620755
 21
0.0
 31
0.0
 40
0.4218925335399338
 41
5.204949330170893
 42
5.639684198386302
  0
ELLIPSE
  5
39
330
17
100
AcDbEntity
  8
visible
100
AcDbEllipse
 10
27.599999999999994
 20
-6.753665390530763
 30
0.0
 11
1.3
 21
0.0
 31
0.0
 40
0.4218925335399338
 41
5.639684198386302
 42
6.283185307179586
  0
ELLIPSE
  5
3A
330
17
100
AcDbEntity
  8
visible
100
AcDbEllipse
 10
27.599999999999994
 20
-6.753665390530763
 30
0.0
 11
1.3
 21
0.0
 31
0.0
 40
0.4218925335399338
 41
0.0
 42
3.141592653589793
  0
ELLIPSE
  5
3B
330
17
100
AcDbEntity
  8
visible
100
AcDbEllipse
 10
27.599999999999994
 20
-6.753665390530763
 30
0.0
 11
1.3
 21
0.0
 31
0.0
 40
0.4218925335399338
 41
3.141592653589793
 42
5.639684198386302
  0
ELLIPSE
  5
3C
330
17
100
AcDbEntity
  8
visible
100
AcDbEllipse
 10
39.599999999999994
 20
-0.003384853891823525
 30
0.0
 11
1.3
 21
0.0
 31
0.0
 40
0.4218925335399338
 41
5.639684198386302
 42
6.283185307179586
  0
ELLIPSE
  5
3D
330
17
100
AcDbEntity
  8
visible
100
AcDbEllipse
 10
39.599999999999994
 20
-0.003384853891823525
 30
0.0
 11
1.3
 21
0.0
 31
0.0
 40
0.4218925335399338
 41
0.0
 42
3.141592653589793
  0
ELLIPSE
  5
3E
330
17
100
AcDbEntity
  8
visible
100
AcDbEllipse
 10
39.599999999999994
 20
-0.003384853891823525
 30
0.0
 11
1.3
 21
0.0
 31
0.0
 40
0.4218925335399338
 41
3.141592653589793
 42
5.639684198386302
  0
LINE
  5
3F
330
17
100
AcDbEntity
  8
visible
100
AcDbLine
 10
42.952379000772446
 20
4.082533958441218
 30
0.0
 11
44.34074741848165
 21
3.643227256515593
 31
0.0
  0
ELLIPSE
  5
40
330
17
100
AcDbEntity
  8
visible
100
AcDbEllipse
 10
40.199999999999996
 20
2.534256425243889
 30
0.0
 11
-4.587298334620749
 21
-0.0
 31
0.0
 40
0.4218925335399338
 41
-2.214297435588181
 42
-0.6435011087932845
  0
LINE
  5
41
330
17
100
AcDbEntity
  8
visible
100
AcDbLine
 10
18.530161332303393
 20
-6.429956229816526
 30
0.0
 11
36.53016133230339
 21
3.6954645751418855
 31
0.0
  0
LINE
  5
42
330
17
100
AcDbEntity
  8
visible
100
AcDbLine
 10
20.835989416936755
 20
-9.57874861483748
 30
0.0
 11
19.44762099922755
 21
-9.139441912911856
 31
0.0
  0
ELLIPSE
  5
43
330
17
100
AcDbEntity
  8
visible
100
AcDbEllipse
 10
22.199999999999996
 20
-7.591164379714527
 30
0.0
 11
-4.587298334620749
 21
-0.0
 31
0.0
 40
0.42189253353993383
 41
-6.926686415972871
 42
-5.355890089177974
  0
ELLIPSE
  5
44
330
17
100
AcDbEntity
  8
visible
100
AcDbEllipse
 10
-39.599999999999994
 20
14.600382884485995
 30
0.0
 11
1.3
 21
0.0
 31
0.0
 40
0.4218925335399338
 41
5.639684198386302
 42
6.283185307179586
  0
ELLIPSE
  5
45
330
17
100
AcDbEntity
  8
visible
100
AcDbEllipse
 10
-39.599999999999994
 20
14.600382884485995
 30
0.0
 11
1.3
 21
0.0
 31
0.0
 40
0.4218925335399338
 41
0.0
 42
3.141592653589793
  0
ELLIPSE
  5
46
330
17
100
AcDbEntity
  8
visible
100
AcDbEllipse
 10
-39.599999999999994
 20
14.600382884485995
 30
0.0
 11
1.3
 21
0.0
 31
0.0
 40
0.4218925335399338
 41
3.141592653589793
 42
5.639684198386302
  0
ELLIPSE
  5
47
330
17
100
AcDbEntity
  8
visible
100
AcDbEllipse
 10
-4.8
 20
4.643719092943556
 30
0.0
 11
2.25
 21
0.0
 31
0.0
 40
0.4218925335399338
 41
5.639684198386302
 42
6.283185307179586
  0
ELLIPSE
  5
48
330
17
100
AcDbEntity
  8
visible
100
AcDbEllipse
 10
-4.8
 20
4.643719092943556
 30
0.0
 11
2.25
 21
0.0
 31
0.0
 40
0.4218925335399338
 41
0.0
 42
3.141592653589793
  0
ELLIPSE
  5
49
330
17
100
AcDbEntity
  8
visible
100
AcDbEllipse
 10
-4.8
 20
4.643719092943556
 30
0.0
 11
2.25
 21
0.0
 31
0.0
 40
0.4218925335399338
 41
3.141592653589793
 42
5.639684198386302
  0
ELLIPSE
  5
4A
330
17
100
AcDbEntity
  8
visible
100
AcDbEllipse
 10
-27.599999999999994
 20
21.350663421124935
 30
0.0
 11
1.3
 21
0.0
 31
0.0
 40
0.4218925335399338
 41
5.639684198386302
 42
6.283185307179586
  0
ELLIPSE
  5
4B
330
17
100
AcDbEntity
  8
visible
100
AcDbEllipse
 10
-27.599999999999994
 20
21.350663421124935
 30
0.0
 11
1.3
 21
0.0
 31
0.0
 40
0.4218925335399338
 41
0.0
 42
3.141592653589793
  0
ELLIPSE
  5
4C
330
17
100
AcDbEntity
  8
visible
100
AcDbEllipse
 10
-27.599999999999994
 20
21.350663421124935
 30
0.0
 11
1.3
 21
0.0
 31
0.0
 40
0.4218925335399338
 41
3.141592653589793
 42
5.639684198386302
  0
ELLIPSE
  5
4D
330
17
100
AcDbEntity
  8
visible
100
AcDbEllipse
 10
0.0
 20
7.343831307599132
 30
0.0
 11
2.5
 21
0.0
 31
0.0
 40
0.42189253353993383
 41
5.639684198386302
 42
6.283185307179586
  0
ELLIPSE
  5
4E
330
17
100
AcDbEntity
  8
visible
100
AcDbEllipse
 10
0.0
 20
7.343831307599132
 30
0.0
 11
2.5
 21
0.0
 31
0.0
 40
0.42189253353993383
 41
0.0
 42
3.141592653589793
  0
ELLIPSE
  5
4F
330
17
100
AcDbEntity
  8
visible
100
AcDbEllipse
 10
0.0
 20
7.343831307599132
 30
0.0
 11
2.5
 21
0.0
 31
0.0
 40
0.42189253353993383
 41
3.141592653589793
 42
5.639684198386302
  0
ELLIPSE
  5
50
330
17
100
AcDbEntity
  8
visible
100
AcDbEllipse
 10
4.8
 20
10.043943522254708
 30
0.0
 11
2.25
 21
0.0
 31
0.0
 40
0.4218925335399338
 41
5.639684198386302
 42
6.283185307179586
  0
ELLIPSE
  5
51
330
17
100
AcDbEntity
  8
visible
100
AcDbEllipse
 10
4.8
 20
10.043943522254708
 30
0.0
 11
2.25
 21
0.0
 31
0.0
 40
0.4218925335399338
 41
0.0
 42
3.141592653589793
  0
ELLIPSE
  5
52
330
17
100
AcDbEntity
  8
visible
100
AcDbEllipse
 10
4.8
 20
10.043943522254708
 30
0.0
 11
2.25
 21
0.0
 31
0.0
 40
0.4218925335399338
 41
3.141592653589793
 42
5.639684198386302
  0
ELLIPSE
  5
53
330
17
100
AcDbEntity
  8
visible
100
AcDbEllipse
 10
0.0
 20
7.343831307599132
 30
0.0
 11
45.2
 21
0.0
 31
0.0
 40
0.4218925335399338
 41
6.087887840894729
 42
11.47466586305746
  0
LINE
  5
54
330
17
100
AcDbEntity
  8
visible
100
AcDbLine
 10
18.839999999999996
 20
-6.61865977979798
 30
0.0
 11
36.839999999999996
 21
3.506761025160431
 31
0.0
  0
ELLIPSE
  5
55
330
17
100
AcDbEntity
  8
visible
100
AcDbEllipse
 10
22.199999999999996
 20
-7.681828964318612
 30
0.0
 11
-4.2
 21
-0.0
 31
0.0
 40
0.42189253353993383
 41
-6.9266864159728705
 42
-5.355890089177974
  0
ELLIPSE
  5
56
330
17
100
AcDbEntity
  8
visible
100
AcDbEllipse
 10
40.199999999999996
 20
2.4435918406397974
 30
0.0
 11
-4.2
 21
-0.0
 31
0.0
 40
0.4218925335399338
 41
-2.214297435588181
 42
-0.6435011087932845
  0
LINE
  5
57
330
17
100
AcDbEntity
  8
visible
100
AcDbLine
 10
21.557477721976003
 20
-9.693458251604724
 30
0.0
 11
19.679999999999996
 21
-9.099387877012793
 31
0.0
  0
LINE
  5
58
330
17
100
AcDbEntity
  8
visible
100
AcDbLine
 10
42.72
 20
3.8611507533339733
 30
0.0
 11
44.597477721975984
 21
3.267080378742049
 31
0.0
  0
ELLIPSE
  5
59
330
17
100
AcDbEntity
  8
visible
100
AcDbEllipse
 10
42.72
 20
4.5864674301667065
 30
0.0
 11
0.24134194903010642
 21
0.7627280404169953
 31
0.0
 40
0.5439875076245521
 41
-2.6147626306852327
 42
-2.1094021204010653
  0
ELLIPSE
  5
5A
330
17
100
AcDbEntity
  8
visible
100
AcDbEllipse
 10
19.679999999999996
 20
-8.374071200180062
 30
0.0
 11
-0.24134194903010642
 21
-0.7627280404169953
 31
0.0
 40
0.5439875076245521
 41
0.021469512620393427
 42
0.5268300229045606
  0
ELLIPSE
  5
5B
330
17
100
AcDbEntity
  8
visible
100
AcDbEllipse
 10
36.839999999999996
 20
4.232077701993163
 30
0.0
 11
-0.39222137416564223
 21
0.6972534644213791
 31
0.0
 40
0.725316676832736
 41
1.9765750818571117
 42
2.4819355921412827
  0
ELLIPSE
  5
5C
330
17
100
AcDbEntity
  8
visible
100
AcDbEllipse
 10
18.839999999999996
 20
-5.893343102965247
 30
0.0
 11
-0.39222137416564223
 21
0.6972534644213791
 31
0.0
 40
0.725316676832736
 41
1.9765750818571117
 42
2.4819355921412827
  0
LINE
  5
5D
330
17
100
AcDbEntity
  8
visible
100
AcDbLine
 10
45.99999999999999
 20
-6.165191798410584
 30
0.0
 11
45.99999999999999
 21
6.6185146307663985
 31
0.0
  0
LINE
  5
5E
330
17
100
AcDbEntity
  8
visible
100
AcDbLine
 10
-45.99999999999999
 20
-6.165191798410584
 30
0.0
 11
-45.99999999999999
 21
6.6185146307663985
 31
0.0
  0
SPLINE
  5
5F
330
17
100
AcDbEntity
  8
visible
100
AcDbSpline
 70
0
 71
3
 72
35
 73
31
 74
0
 40
0.0
 40
0.0
 40
0.0
 40
0.0
 40
0.0909373534431049
 40
0.0909373534431049
 40
0.0909373534431049
 40
0.17119862304072953
 40
0.17119862304072953
 40
0.17119862304072953
 40
0.2787274182624898
 40
0.2787274182624898
 40
0.2787274182624898
 40
0.39237545611534486
 40
0.39237545611534486
 40
0.39237545611534486
 40
0.5060234939681999
 40
0.5060234939681999
 40
0.5060234939681999
 40
0.6137310322835379
 40
0.6137310322835379
 40
0.6137310322835379
 40
0.7214385705988758
 40
0.7214385705988758
 40
0.7214385705988758
 40
0.8277082097130055
 40
0.8277082097130055
 40
0.8277082097130055
 40
0.9088927080662265
 40
0.9088927080662265
 40
0.9088927080662265
 40
1.0
 40
1.0
 40
1.0
 40
1.0
 10
46.00000000000001
 20
6.618514630766391
 30
0.0
 10
46.00195101290117
 20
8.601499507509315
 30
0.0
 10
45.326057996108986
 20
10.570787909247743
 30
0.0
 10
44.050776496487856
 20
12.411872846474953
 30
0.0
 10
42.92601397458872
 20
14.039182446309992
 30
0.0
 10
41.33804978208788
 20
15.57677620352051
 30
0.0
 10
39.343325210002774
 20
16.99604750865209
 30
0.0
 10
36.67225119462234
 20
18.897564062979626
 30
0.0
 10
33.26454495745833
 20
20.5869337551418
 30
0.0
 10
29.30018528479348
 20
21.988154503389048
 30
0.0
 10
25.112450661024475
 20
23.469944629457213
 30
0.0
 10
20.30203173984516
 20
24.627372917621663
 30
0.0
 10
15.166759913951681
 20
25.39139393866982
 30
0.0
 10
10.033116321906936
 20
26.157048779768537
 30
0.0
 10
4.574619825148091
 20
26.529296353751082
 30
0.0
 10
-0.8653076358641358
 20
26.484838192821165
 30
0.0
 10
-6.020804591519504
 20
26.44413040933225
 30
0.0
 10
-11.159711546876597
 20
26.029718722302185
 30
0.0
 10
-15.991543892424424
 20
25.26475046948394
 30
0.0
 10
-20.824759530781837
 20
24.501086805578648
 30
0.0
 10
-25.35090055932997
 20
23.386866575885207
 30
0.0
 10
-29.318214567226292
 20
21.981765607719662
 30
0.0
 10
-33.23452389956687
 20
20.596079803867447
 30
0.0
 10
-36.60694281585136
 20
18.929051810227755
 30
0.0
 10
-39.261472717933785
 20
17.05406335474301
 30
0.0
 10
-41.29036852377874
 20
15.621720511865215
 30
0.0
 10
-42.90388435597666
 20
14.06792102877872
 30
0.0
 10
-44.043588307225676
 20
12.422261910577577
 30
0.0
 10
-45.32350624507609
 20
10.578159917959427
 30
0.0
 10
-46.00196044228033
 20
8.605239468930673
 30
0.0
 10
-46.0
 20
6.6185146307663985
 30
0.0
  0
SPLINE
  5
60
330
17
100
AcDbEntity
  8
visible
100
AcDbSpline
 70
0
 71
3
 72
11
 73
7
 74
0
 40
0.0
 40
0.0
 40
0.0
 40
0.0
 40
0.685472903670053
 40
0.685472903670053
 40
0.685472903670053
 40
1.0
 40
1.0
 40
1.0
 40
1.0
 10
36.55222137416564
 20
-18.304170772434965
 30
0.0
 10
40.65000277594619
 20
-15.999714714015143
 30
0.0
 10
43.57126978584326
 20
-13.289778168232345
 30
0.0
 10
45.003095502886715
 20
-10.335390703845817
 30
0.0
 10
45.660502803800235
 20
-8.981095841778515
 30
0.0
 10
46.00070272681717
 20
-7.574721302443205
 30
0.0
 10
46.0
 20
-6.165191798410582
 30
0.0
  0
SPLINE
  5
61
330
17
100
AcDbEntity
  8
visible
100
AcDbSpline
 70
0
 71
3
 72
26
 73
22
 74
0
 40
0.0
 40
0.0
 40
0.0
 40
0.0
 40
0.1592561022262856
 40
0.1592561022262856
 40
0.1592561022262856
 40
0.2998154705374406
 40
0.2998154705374406
 40
0.2998154705374406
 40
0.48812771139037847
 40
0.48812771139037847
 40
0.48812771139037847
 40
0.6871564146551465
 40
0.6871564146551465
 40
0.6871564146551465
 40
0.8861851179199145
 40
0.8861851179199145
 40
0.8861851179199145
 40
0.9430925589599573
 40
0.9430925589599573
 40
0.9430925589599573
 40
1.0
 40
1.0
 40
1.0
 40
1.0
 10
-46.0
 20
-6.165191798410589
 30
0.0
 10
-46.0019510129013
 20
-8.148176675153556
 30
0.0
 10
-45.32605799610866
 20
-10.117465076892115
 30
0.0
 10
-44.050776496488126
 20
-11.958550014119183
 30
0.0
 10
-42.92601397458873
 20
-13.585859613954213
 30
0.0
 10
-41.33804978208778
 20
-15.123453371164675
 30
0.0
 10
-39.3433252100027
 20
-16.542724676296316
 30
0.0
 10
-36.67225119462222
 20
-18.444241230623888
 30
0.0
 10
-33.26454495745819
 20
-20.133610922786044
 30
0.0
 10
-29.300185284793326
 20
-21.53483167103335
 30
0.0
 10
-25.112450687518834
 20
-23.016620681811705
 30
0.0
 10
-20.302031642699816
 20
-24.174054174661073
 30
0.0
 10
-15.166760284874101
 20
-24.938055492258687
 30
0.0
 10
-10.033117213885916
 20
-25.703688399327568
 30
0.0
 10
-4.574621829891067
 20
-26.075889131144717
 30
0.0
 10
0.8653017011217763
 20
-26.03126553558316
 30
0.0
 10
7.764329483023242
 20
-25.978847059996575
 30
0.0
 10
14.633417107311049
 20
-25.24969750932745
 30
0.0
 10
20.78152494727853
 20
-23.91836985844391
 30
0.0
 10
26.93545059004127
 20
-22.590647536348012
 30
0.0
 10
32.36839644848358
 20
-20.660747114037747
 30
0.0
 10
36.55222137416564
 20
-18.304170772434965
 30
0.0
  0
ENDSEC
  0
SECTION
  2
OBJECTS
  0
DICTIONARY
  5
A
330
0
100
AcDbDictionary
281
1
  3
ACAD_COLOR
350
B
  3
ACAD_GROUP
350
C
  3
ACAD_LAYOUT
350
D
  3
ACAD_MATERIAL
350
E
  3
ACAD_MLEADERSTYLE
350
F
  3
ACAD_MLINESTYLE
350
10
  3
ACAD_PLOTSETTINGS
350
11
  3
ACAD_PLOTSTYLENAME
350
12
  3
ACAD_SCALELIST
350
14
  3
ACAD_TABLESTYLE
350
15
  3
ACAD_VISUALSTYLE
350
16
  3
EZDXF_META
350
2D
  0
DICTIONARY
  5
B
330
A
100
AcDbDictionary
281
1
  0
DICTIONARY
  5
C
330
A
100
AcDbDictionary
281
1
  0
DICTIONARY
  5
D
330
A
100
AcDbDictionary
281
1
  3
Model
350
1A
  3
Layout1
350
1E
  0
DICTIONARY
  5
E
330
A
100
AcDbDictionary
281
1
  3
ByBlock
350
1F
  3
ByLayer
350
20
  3
Global
350
21
  0
DICTIONARY
  5
F
330
A
100
AcDbDictionary
281
1
  3
Standard
350
2C
  0
DICTIONARY
  5
10
330
A
100
AcDbDictionary
281
1
  3
Standard
350
22
  0
DICTIONARY
  5
11
330
A
100
AcDbDictionary
281
1
  0
ACDBDICTIONARYWDFLT
  5
12
330
A
100
AcDbDictionary
281
1
  3
Normal
350
13
100
AcDbDictionaryWithDefault
340
13
  0
ACDBPLACEHOLDER
  5
13
330
12
  0
DICTIONARY
  5
14
330
A
100
AcDbDictionary
281
1
  0
DICTIONARY
  5
15
330
A
100
AcDbDictionary
281
1
  0
DICTIONARY
  5
16
330
A
100
AcDbDictionary
281
1
  0
LAYOUT
  5
1A
330
D
100
AcDbPlotSettings
  1

  4
A3
  6

 40
7.5
 41
20.0
 42
7.5
 43
20.0
 44
420.0
 45
297.0
 46
0.0
 47
0.0
 48
0.0
 49
0.0
140
0.0
141
0.0
142
1.0
143
1.0
 70
1024
 72
1
 73
0
 74
5
  7

 75
16
 76
0
 77
2
 78
300
147
1.0
148
0.0
149
0.0
100
AcDbLayout
  1
Model
 70
1
 71
0
 10
0.0
 20
0.0
 11
420.0
 21
297.0
 12
0.0
 22
0.0
 32
0.0
 14
1e+20
 24
1e+20
 34
1e+20
 15
-1e+20
 25
-1e+20
 35
-1e+20
146
0.0
 13
0.0
 23
0.0
 33
0.0
 16
1.0
 26
0.0
 36
0.0
 17
0.0
 27
1.0
 37
0.0
 76
1
330
17
  0
LAYOUT
  5
1E
330
D
100
AcDbPlotSettings
  1

  4
A3
  6

 40
7.5
 41
20.0
 42
7.5
 43
20.0
 44
420.0
 45
297.0
 46
0.0
 47
0.0
 48
0.0
 49
0.0
140
0.0
141
0.0
142
1.0
143
1.0
 70
0
 72
1
 73
0
 74
5
  7

 75
16
 76
0
 77
2
 78
300
147
1.0
148
0.0
149
0.0
100
AcDbLayout
  1
Layout1
 70
1
 71
1
 10
0.0
 20
0.0
 11
420.0
 21
297.0
 12
0.0
 22
0.0
 32
0.0
 14
1e+20
 24
1e+20
 34
1e+20
 15
-1e+20
 25
-1e+20
 35
-1e+20
146
0.0
 13
0.0
 23
0.0
 33
0.0
 16
1.0
 26
0.0
 36
0.0
 17
0.0
 27
1.0
 37
0.0
 76
1
330
1B
  0
MATERIAL
  5
1F
102
{ACAD_REACTORS
330
E
102
}
330
E
100
AcDbMaterial
  1
ByBlock
  2

 70
0
 40
1.0
 71
1
 41
1.0
 91
-1023410177
 42
1.0
 72
1
  3

 73
1
 74
1
 75
1
 44
0.5
 73
0
 45
1.0
 46
1.0
 77
1
  4

 78
1
 79
1
170
1
 48
1.0
171
1
  6

172
1
173
1
174
1
140
1.0
141
1.0
175
1
  7

176
1
177
1
178
1
143
1.0
179
1
  8

270
1
271
1
272
1
145
1.0
146
1.0
273
1
  9

274
1
275
1
276
1
 42
1.0
 72
1
  3

 73
1
 74
1
 75
1
 94
63
  0
MATERIAL
  5
20
102
{ACAD_REACTORS
330
E
102
}
330
E
100
AcDbMaterial
  1
ByLayer
  2

 70
0
 40
1.0
 71
1
 41
1.0
 91
-1023410177
 42
1.0
 72
1
  3

 73
1
 74
1
 75
1
 44
0.5
 73
0
 45
1.0
 46
1.0
 77
1
  4

 78
1
 79
1
170
1
 48
1.0
171
1
  6

172
1
173
1
174
1
140
1.0
141
1.0
175
1
  7

176
1
177
1
178
1
143
1.0
179
1
  8

270
1
271
1
272
1
145
1.0
146
1.0
273
1
  9

274
1
275
1
276
1
 42
1.0
 72
1
  3

 73
1
 74
1
 75
1
 94
63
  0
MATERIAL
  5
21
102
{ACAD_REACTORS
330
E
102
}
330
E
100
AcDbMaterial
  1
Global
  2

 70
0
 40
1.0
 71
1
 41
1.0
 91
-1023410177
 42
1.0
 72
1
  3

 73
1
 74
1
 75
1
 44
0.5
 73
0
 45
1.0
 46
1.0
 77
1
  4

 78
1
 79
1
170
1
 48
1.0
171
1
  6

172
1
173
1
174
1
140
1.0
141
1.0
175
1
  7

176
1
177
1
178
1
143
1.0
179
1
  8

270
1
271
1
272
1
145
1.0
146
1.0
273
1
  9

274
1
275
1
276
1
 42
1.0
 72
1
  3

 73
1
 74
1
 75
1
 94
63
  0
MLINESTYLE
  5
22
102
{ACAD_REACTORS
330
10
102
}
330
10
100
AcDbMlineStyle
  2
Standard
 70
0
  3

 62
256
 51
90.0
 52
90.0
 71
2
 49
0.5
 62
256
  6
BYLAYER
 49
-0.5
 62
256
  6
BYLAYER
  0
MLEADERSTYLE
  5
2C
102
{ACAD_REACTORS
330
F
102
}
330
F
100
AcDbMLeaderStyle
179
2
170
2
171
1
172
0
 90
2
 40
0.0
 41
0.0
173
1
 91
-1056964608
 92
-2
290
1
 42
2.0
291
1
 43
8.0
  3
Standard
 44
4.0
300

342
29
174
1
175
1
176
0
178
1
 93
-1056964608
 45
4.0
292
0
297
0
 46
4.0
 94
-1056964608
 47
1.0
 49
1.0
140
1.0
294
1
141
0.0
177
0
142
1.0
295
0
296
0
143
3.75
271
0
272
9
273
9
  0
DICTIONARY
  5
2D
330
A
100
AcDbDictionary
280
1
281
1
  3
CREATED_BY_EZDXF
350
2E
  3
WRITTEN_BY_EZDXF
350
65
  0
DICTIONARYVAR
  5
2E
330
2D
100
DictionaryVariables
280
0
  1
1.4.4 @ 2026-10-02T17:09:10.862700+00:00
  0
DICTIONARYVAR
  5
65
330
2D
100
DictionaryVariables
280
0
  1
1.4.4 @ 2026-10-02T17:09:10.873144+00:00
  0
ENDSEC
  0
EOF
