  0
SECTION
  2
HEADER
  9
$ACADVER
  1
AC1027
  9
$ACADMAINTVER
 70
105
  9
$DWGCODEPAGE
  3
ANSI_1252
  9
$LASTSAVEDBY
  1
ezdxf
  9
$REQUIREDVERSIONS
160
0
  9
$INSBASE
 10
0.0
 20
0.0
 30
0.0
  9
$EXTMIN
 10
1e+20
 20
1e+20
 30
1e+20
  9
$EXTMAX
 10
-1e+20
 20
-1e+20
 30
-1e+20
  9
$LIMMIN
 10
0.0
 20
0.0
  9
$LIMMAX
 10
420.0
 20
297.0
  9
$ORTHOMODE
 70
0
  9
$REGENMODE
 70
1
  9
$FILLMODE
 70
1
  9
$QTEXTMODE
 70
0
  9
$MIRRTEXT
 70
1
  9
$LTSCALE
 40
1.0
  9
$ATTMODE
 70
1
  9
$TEXTSIZE
 40
2.5
  9
$TRACEWID
 40
1.0
  9
$TEXTSTYLE
  7
Standard
  9
$CLAYER
  8
0
  9
$CELTYPE
  6
ByLayer
  9
$CECOLOR
 62
256
  9
$CELTSCALE
 40
1.0
  9
$DISPSILH
 70
0
  9
$DIMSCALE
 40
1.0
  9
$DIMASZ
 40
2.5
  9
$DIMEXO
 40
0.625
  9
$DIMDLI
 40
3.75
  9
$DIMRND
 40
0.0
  9
$DIMDLE
 40
0.0
  9
$DIMEXE
 40
1.25
  9
$DIMTP
 40
0.0
  9
$DIMTM
 40
0.0
  9
$DIMTXT
 40
2.5
  9
$DIMCEN
 40
2.5
  9
$DIMTSZ
 40
0.0
  9
$DIMTOL
 70
0
  9
$DIMLIM
 70
0
  9
$DIMTIH
 70
0
  9
$DIMTOH
 70
0
  9
$DIMSE1
 70
0
  9
$DIMSE2
 70
0
  9
$DIMTAD
 70
1
  9
$DIMZIN
 70
8
  9
$DIMBLK
  1

  9
$DIMASO
 70
1
  9
$DIMSHO
 70
1
  9
$DIMPOST
  1

  9
$DIMAPOST
  1

  9
$DIMALT
 70
0
  9
$DIMALTD
 70
3
  9
$DIMALTF
 40
0.03937007874
  9
$DIMLFAC
 40
1.0
  9
$DIMTOFL
 70
1
  9
$DIMTVP
 40
0.0
  9
$DIMTIX
 70
0
  9
$DIMSOXD
 70
0
  9
$DIMSAH
 70
0
  9
$DIMBLK1
  1

  9
$DIMBLK2
  1

  9
$DIMSTYLE
  2
ISO-25
  9
$DIMCLRD
 70
0
  9
$DIMCLRE
 70
0
  9
$DIMCLRT
 70
0
  9
$DIMTFAC
 40
1.0
  9
$DIMGAP
 40
0.625
  9
$DIMJUST
 70
0
  9
$DIMSD1
 70
0
  9
$DIMSD2
 70
0
  9
$DIMTOLJ
 70
0
  9
$DIMTZIN
 70
8
  9
$DIMALTZ
 70
0
  9
$DIMALTTZ
 70
0
  9
$DIMUPT
 70
0
  9
$DIMDEC
 70
2
  9
$DIMTDEC
 70
2
  9
$DIMALTU
 70
2
  9
$DIMALTTD
 70
3
  9
$DIMTXSTY
  7
Standard
  9
$DIMAUNIT
 70
0
  9
$DIMADEC
 70
0
  9
$DIMALTRND
 40
0.0
  9
$DIMAZIN
 70
0
  9
$DIMDSEP
 70
44
  9
$DIMATFIT
 70
3
  9
$DIMFRAC
 70
0
  9
$DIMLDRBLK
  1

  9
$DIMLUNIT
 70
2
  9
$DIMLWD
 70
-2
  9
$DIMLWE
 70
-2
  9
$DIMTMOVE
 70
0
  9
$DIMFXL
 40
1.0
  9
$DIMFXLON
 70
0
  9
$DIMJOGANG
 40
0.785398163397
  9
$DIMTFILL
 70
0
  9
$DIMTFILLCLR
 70
0
  9
$DIMARCSYM
 70
0
  9
$DIMLTYPE
  6

  9
$DIMLTEX1
  6

  9
$DIMLTEX2
  6

  9
$DIMTXTDIRECTION
 70
0
  9
$LUNITS
 70
2
  9
$LUPREC
 70
4
  9
$SKETCHINC
 40
1.0
  9
$FILLETRAD
 40
10.0
  9
$AUNITS
 70
0
  9
$AUPREC
 70
2
  9
$MENU
  1
.
  9
$ELEVATION
 40
0.0
  9
$PELEVATION
 40
0.0
  9
$THICKNESS
 40
0.0
  9
$LIMCHECK
 70
0
  9
$CHAMFERA
 40
0.0
  9
$CHAMFERB
 40
0.0
  9
$CHAMFERC
 40
0.0
  9
$CHAMFERD
 40
0.0
  9
$SKPOLY
 70
0
  9
$TDCREATE
 40
2461317.745983796
  9
$TDUCREATE
 40
2458532.153996898
  9
$TDUPDATE
 40
2461317.745983796
  9
$TDUUPDATE
 40
2458532.1544311
  9
$TDINDWG
 40
0.0
  9
$TDUSRTIMER
 40
0.0
  9
$USRTIMER
 70
1
  9
$ANGBASE
 50
0.0
  9
$ANGDIR
 70
0
  9
$PDMODE
 70
0
  9
$PDSIZE
 40
0.0
  9
$PLINEWID
 40
0.0
  9
$SPLFRAME
 70
0
  9
$SPLINETYPE
 70
6
  9
$SPLINESEGS
 70
8
  9
$HANDSEED
  5
82
  9
$SURFTAB1
 70
6
  9
$SURFTAB2
 70
6
  9
$SURFTYPE
 70
6
  9
$SURFU
 70
6
  9
$SURFV
 70
6
  9
$UCSBASE
  2

  9
$UCSNAME
  2

  9
$UCSORG
 10
0.0
 20
0.0
 30
0.0
  9
$UCSXDIR
 10
1.0
 20
0.0
 30
0.0
  9
$UCSYDIR
 10
0.0
 20
1.0
 30
0.0
  9
$UCSORTHOREF
  2

  9
$UCSORTHOVIEW
 70
0
  9
$UCSORGTOP
 10
0.0
 20
0.0
 30
0.0
  9
$UCSORGBOTTOM
 10
0.0
 20
0.0
 30
0.0
  9
$UCSORGLEFT
 10
0.0
 20
0.0
 30
0.0
  9
$UCSORGRIGHT
 10
0.0
 20
0.0
 30
0.0
  9
$UCSORGFRONT
 10
0.0
 20
0.0
 30
0.0
  9
$UCSORGBACK
 10
0.0
 20
0.0
 30
0.0
  9
$PUCSBASE
  2

  9
$PUCSNAME
  2

  9
$PUCSORG
 10
0.0
 20
0.0
 30
0.0
  9
$PUCSXDIR
 10
1.0
 20
0.0
 30
0.0
  9
$PUCSYDIR
 10
0.0
 20
1.0
 30
0.0
  9
$PUCSORTHOREF
  2

  9
$PUCSORTHOVIEW
 70
0
  9
$PUCSORGTOP
 10
0.0
 20
0.0
 30
0.0
  9
$PUCSORGBOTTOM
 10
0.0
 20
0.0
 30
0.0
  9
$PUCSORGLEFT
 10
0.0
 20
0.0
 30
0.0
  9
$PUCSORGRIGHT
 10
0.0
 20
0.0
 30
0.0
  9
$PUCSORGFRONT
 10
0.0
 20
0.0
 30
0.0
  9
$PUCSORGBACK
 10
0.0
 20
0.0
 30
0.0
  9
$USERI1
 70
0
  9
$USERI2
 70
0
  9
$USERI3
 70
0
  9
$USERI4
 70
0
  9
$USERI5
 70
0
  9
$USERR1
 40
0.0
  9
$USERR2
 40
0.0
  9
$USERR3
 40
0.0
  9
$USERR4
 40
0.0
  9
$USERR5
 40
0.0
  9
$WORLDVIEW
 70
1
  9
$SHADEDGE
 70
3
  9
$SHADEDIF
 70
70
  9
$TILEMODE
 70
1
  9
$MAXACTVP
 70
64
  9
$PINSBASE
 10
0.0
 20
0.0
 30
0.0
  9
$PLIMCHECK
 70
0
  9
$PEXTMIN
 10
1e+20
 20
1e+20
 30
1e+20
  9
$PEXTMAX
 10
-1e+20
 20
-1e+20
 30
-1e+20
  9
$PLIMMIN
 10
0.0
 20
0.0
  9
$PLIMMAX
 10
420.0
 20
297.0
  9
$UNITMODE
 70
0
  9
$VISRETAIN
 70
1
  9
$PLINEGEN
 70
0
  9
$PSLTSCALE
 70
1
  9
$TREEDEPTH
 70
3020
  9
$CMLSTYLE
  2
Standard
  9
$CMLJUST
 70
0
  9
$CMLSCALE
 40
20.0
  9
$PROXYGRAPHICS
 70
1
  9
$MEASUREMENT
 70
1
  9
$CELWEIGHT
370
-1
  9
$ENDCAPS
280
0
  9
$JOINSTYLE
280
0
  9
$LWDISPLAY
290
0
  9
$INSUNITS
 70
4
  9
$HYPERLINKBASE
  1

  9
$STYLESHEET
  1

  9
$XEDIT
290
1
  9
$CEPSNTYPE
380
0
  9
$PSTYLEMODE
290
1
  9
$FINGERPRINTGUID
  2
{089500FE-BEBA-4A23-83D1-A059D7FEDABB}
  9
$VERSIONGUID
  2
{4AD6A3B0-2391-4F97-B2CE-3798A40FC4FD}
  9
$EXTNAMES
290
1
  9
$PSVPSCALE
 40
0.0
  9
$OLESTARTUP
290
0
  9
$SORTENTS
280
127
  9
$INDEXCTL
280
0
  9
$HIDETEXT
280
1
  9
$XCLIPFRAME
280
1
  9
$HALOGAP
280
0
  9
$OBSCOLOR
 70
257
  9
$OBSLTYPE
280
0
  9
$INTERSECTIONDISPLAY
280
0
  9
$INTERSECTIONCOLOR
 70
257
  9
$DIMASSOC
280
2
  9
$PROJECTNAME
  1

  9
$CAMERADISPLAY
290
0
  9
$LENSLENGTH
 40
50.0
  9
$CAMERAHEIGHT
 40
0.0
  9
$STEPSPERSEC
 40
24.0
  9
$STEPSIZE
 40
100.0
  9
$3DDWFPREC
 40
2.0
  9
$PSOLWIDTH
 40
0.005
  9
$PSOLHEIGHT
 40
0.08
  9
$LOFTANG1
 40
1.570796326795
  9
$LOFTANG2
 40
1.570796326795
  9
$LOFTMAG1
 40
0.0
  9
$LOFTMAG2
 40
0.0
  9
$LOFTPARAM
 70
7
  9
$LOFTNORMALS
280
1
  9
$LATITUDE
 40
37.795
  9
$LONGITUDE
 40
-122.394
  9
$NORTHDIRECTION
 40
0.0
  9
$TIMEZONE
 70
-8000
  9
$LIGHTGLYPHDISPLAY
280
1
  9
$TILEMODELIGHTSYNCH
280
1
  9
$CMATERIAL
347
20
  9
$SOLIDHIST
280
0
  9
$SHOWHIST
280
1
  9
$DWFFRAME
280
2
  9
$DGNFRAME
280
2
  9
$REALWORLDSCALE
290
1
  9
$INTERFERECOLOR
 62
256
  9
$CSHADOW
280
0
  9
$SHADOWPLANELOCATION
 40
0.0
  0
ENDSEC
  0
SECTION
  2
CLASSES
  0
CLASS
  1
ACDBDICTIONARYWDFLT
  2
AcDbDictionaryWithDefault
  3
ObjectDBX Classes
 90
0
 91
0
280
0
281
0
  0
CLASS
  1
SUN
  2
AcDbSun
  3
SCENEOE
 90
1153
 91
0
280
0
281
0
  0
CLASS
  1
VISUALSTYLE
  2
AcDbVisualStyle
  3
ObjectDBX Classes
 90
4095
 91
0
280
0
281
0
  0
CLASS
  1
MATERIAL
  2
AcDbMaterial
  3
ObjectDBX Classes
 90
1153
 91
0
280
0
281
0
  0
CLASS
  1
SCALE
  2
AcDbScale
  3
ObjectDBX Classes
 90
1153
 91
0
280
0
281
0
  0
CLASS
  1
TABLESTYLE
  2
AcDbTableStyle
  3
ObjectDBX Classes
 90
4095
 91
0
280
0
281
0
  0
CLASS
  1
MLEADERSTYLE
  2
AcDbMLeaderStyle
  3
ACDB_MLEADERSTYLE_CLASS
 90
4095
 91
0
280
0
281
0
  0
CLASS
  1
DICTIONARYVAR
  2
AcDbDictionaryVar
  3
ObjectDBX Classes
 90
0
 91
0
280
0
281
0
  0
CLASS
  1
CELLSTYLEMAP
  2
AcDbCellStyleMap
  3
ObjectDBX Classes
 90
1152
 91
0
280
0
281
0
  0
CLASS
  1
MENTALRAYRENDERSETTINGS
  2
AcDbMentalRayRenderSettings
  3
SCENEOE
 90
1024
 91
0
280
0
281
0
  0
CLASS
  1
ACDBDETAILVIEWSTYLE
  2
AcDbDetailViewStyle
  3
ObjectDBX Classes
 90
1025
 91
0
280
0
281
0
  0
CLASS
  1
ACDBSECTIONVIEWSTYLE
  2
AcDbSectionViewStyle
  3
ObjectDBX Classes
 90
1025
 91
0
280
0
281
0
  0
CLASS
  1
RASTERVARIABLES
  2
AcDbRasterVariables
  3
ISM
 90
0
 91
0
280
0
281
0
  0
CLASS
  1
LAYOUT
  2
AcDbLayout
  3
ObjectDBX Classes
 90
0
 91
0
280
0
281
0
  0
CLASS
  1
ACDBPLACEHOLDER
  2
AcDbPlaceHolder
  3
ObjectDBX Classes
 90
0
 91
0
280
0
281
0
  0
ENDSEC
  0
SECTION
  2
TABLES
  0
TABLE
  2
VPORT
  5
8
330
0
100
AcDbSymbolTable
 70
1
  0
VPORT
  5
7E
330
8
100
AcDbSymbolTableRecord
100
AcDbViewportTableRecord
  2
*Active
 70
0
 10
0.0
 20
0.0
 11
1.0
 21
1.0
 12
-0.47277111452302023
 22
1.2837104289684476
 13
0.0
 23
0.0
 14
0.5
 24
0.5
 15
0.5
 25
0.5
 16
0.0
 26
0.0
 36
1.0
 17
0.0
 27
0.0
 37
0.0
 40
54.59394178962478
 41
1.34
 42
50.0
 43
0.0
 44
0.0
 50
0.0
 51
0.0
 71
0
 72
1000
 73
1
 74
3
 75
0
 76
0
 77
0
 78
0
281
0
 65
1
110
0.0
120
0.0
130
0.0
111
1.0
121
0.0
131
0.0
112
0.0
122
1.0
132
0.0
 79
0
146
0.0
  0
ENDTAB
  0
TABLE
  2
LTYPE
  5
2
330
0
100
AcDbSymbolTable
 70
3
  0
LTYPE
  5
24
330
2
100
AcDbSymbolTableRecord
100
AcDbLinetypeTableRecord
  2
ByBlock
 70
0
  3

 72
65
 73
0
 40
0.0
  0
LTYPE
  5
25
330
2
100
AcDbSymbolTableRecord
100
AcDbLinetypeTableRecord
  2
ByLayer
 70
0
  3

 72
65
 73
0
 40
0.0
  0
LTYPE
  5
26
330
2
100
AcDbSymbolTableRecord
100
AcDbLinetypeTableRecord
  2
Continuous
 70
0
  3

 72
65
 73
0
 40
0.0
  0
ENDTAB
  0
TABLE
  2
LAYER
  5
1
330
0
100
AcDbSymbolTable
 70
3
  0
LAYER
  5
27
330
1
100
AcDbSymbolTableRecord
100
AcDbLayerTableRecord
  2
0
 70
0
 62
7
  6
Continuous
370
-3
390
13
347
21
  0
LAYER
  5
28
330
1
100
AcDbSymbolTableRecord
100
AcDbLayerTableRecord
  2
Defpoints
 70
0
 62
7
  6
Continuous
290
0
370
-3
390
13
347
21
  0
LAYER
  5
2F
330
1
100
AcDbSymbolTableRecord
100
AcDbLayerTableRecord
  2
visible
 70
0
 62
7
  6
Continuous
370
-3
390
13
347
21
  0
ENDTAB
  0
TABLE
  2
STYLE
  5
5
330
0
100
AcDbSymbolTable
 70
1
  0
STYLE
  5
29
330
5
100
AcDbSymbolTableRecord
100
AcDbTextStyleTableRecord
  2
Standard
 70
0
 40
0.0
 41
1.0
 50
0.0
 71
0
 42
2.5
  3
txt
  4

  0
ENDTAB
  0
TABLE
  2
VIEW
  5
7
330
0
100
AcDbSymbolTable
 70
0
  0
ENDTAB
  0
TABLE
  2
UCS
  5
6
330
0
100
AcDbSymbolTable
 70
0
  0
ENDTAB
  0
TABLE
  2
APPID
  5
3
330
0
100
AcDbSymbolTable
 70
3
  0
APPID
  5
2A
330
3
100
AcDbSymbolTableRecord
100
AcDbRegAppTableRecord
  2
ACAD
 70
0
  0
APPID
  5
7F
330
3
100
AcDbSymbolTableRecord
100
AcDbRegAppTableRecord
  2
HATCHBACKGROUNDCOLOR
 70
0
  0
APPID
  5
80
330
3
100
AcDbSymbolTableRecord
100
AcDbRegAppTableRecord
  2
EZDXF
 70
0
  0
ENDTAB
  0
TABLE
  2
DIMSTYLE
  5
4
330
0
100
AcDbSymbolTable
 70
1
100
AcDbDimStyleTable
  0
DIMSTYLE
105
2B
330
4
100
AcDbSymbolTableRecord
100
AcDbDimStyleTableRecord
  2
Standard
 70
0
 40
1.0
 41
2.5
 42
0.625
 43
3.75
 44
1.25
 45
0.0
 46
0.0
 47
0.0
 48
0.0
 49
2.5
140
2.5
141
2.5
142
0.0
143
0.03937007874
144
1.0
145
0.0
146
1.0
147
0.625
148
0.0
 69
0
 70
0
 71
0
 72
0
 73
0
 74
0
 75
0
 76
0
 77
1
 78
8
 79
3
170
0
171
3
172
1
173
0
174
0
175
0
176
0
177
0
178
0
179
2
271
2
272
2
273
2
274
3
275
0
276
0
277
2
278
44
279
0
280
0
281
0
282
0
283
0
284
8
285
0
286
0
288
0
289
3
290
0
371
-2
372
-2
  0
ENDTAB
  0
TABLE
  2
BLOCK_RECORD
  5
9
330
0
100
AcDbSymbolTable
 70
2
  0
BLOCK_RECORD
  5
17
330
9
100
AcDbSymbolTableRecord
100
AcDbBlockTableRecord
  2
*Model_Space
340
1A
 70
0
280
1
281
0
  0
BLOCK_RECORD
  5
1B
330
9
100
AcDbSymbolTableRecord
100
AcDbBlockTableRecord
  2
*Paper_Space
340
1E
 70
0
280
1
281
0
  0
ENDTAB
  0
ENDSEC
  0
SECTION
  2
BLOCKS
  0
BLOCK
  5
18
330
17
100
AcDbEntity
  8
0
100
AcDbBlockBegin
  2
*Model_Space
 70
0
 10
0.0
 20
0.0
 30
0.0
  3
*Model_Space
  1

  0
ENDBLK
  5
19
330
17
100
AcDbEntity
  8
0
100
AcDbBlockEnd
  0
BLOCK
  5
1C
330
1B
100
AcDbEntity
  8
0
100
AcDbBlockBegin
  2
*Paper_Space
 70
0
 10
0.0
 20
0.0
 30
0.0
  3
*Paper_Space
  1

  0
ENDBLK
  5
1D
330
1B
100
AcDbEntity
  8
0
100
AcDbBlockEnd
  0
ENDSEC
  0
SECTION
  2
ENTITIES
  0
ELLIPSE
  5
30
330
17
100
AcDbEntity
  8
visible
100
AcDbEllipse
 10
0.1608333548763028
 20
-6.073982788634815
 30
0.0
 11
46.0
 21
0.0
 31
0.0
 40
0.4221403331375441
 41
3.141592653589794
 42
6.283185307179586
  0
ELLIPSE
  5
31
330
17
100
AcDbEntity
  8
visible
100
AcDbEllipse
 10
0.1608333548763028
 20
6.7080971968812335
 30
0.0
 11
-46.0
 21
-0.0
 31
0.0
 40
0.42214033313754407
 41
-6.283185307179586
 42
-3.1415926535897922
  0
LINE
  5
32
330
17
100
AcDbEntity
  8
visible
100
AcDbLine
 10
21.861144042056083
 20
23.8300202057046
 30
0.0
 11
21.861144042056083
 21
19.559171542696166
 31
0.0
  0
SPLINE
  5
33
330
17
100
AcDbEntity
  8
visible
100
AcDbSpline
 70
0
 71
2
 72
6
 73
3
 74
0
 40
0.0
 40
0.0
 40
0.0
 40
1.0
 40
1.0
 40
1.0
 10
32.840299010699106
 20
20.763201893048326
 30
0.0
 10
32.71741762888033
 20
20.81466376231387
 30
0.0
 10
32.57053393365734
 20
20.7334308383804
 30
0.0
  0
LINE
  5
34
330
17
100
AcDbEntity
  8
visible
100
AcDbLine
 10
27.374017781129155
 20
17.81181655108129
 30
0.0
 11
32.570533933657345
 21
20.7334308383804
 31
0.0
  0
SPLINE
  5
35
330
17
100
AcDbEntity
  8
visible
100
AcDbSpline
 70
0
 71
3
 72
8
 73
4
 74
0
 40
0.0
 40
0.0
 40
0.0
 40
0.0
 40
0.6902451982064461
 40
0.6902451982064461
 40
0.6902451982064461
 40
0.6902451982064461
 10
21.861144042056083
 20
23.8300202057046
 30
0.0
 10
21.86292168778229
 20
24.095157328010657
 30
0.0
 10
21.75867719640959
 20
24.293472841354387
 30
0.0
 10
21.601938303583584
 20
24.325681233335985
 30
0.0
  0
SPLINE
  5
36
330
17
100
AcDbEntity
  8
visible
100
AcDbSpline
 70
0
 71
2
 72
6
 73
3
 74
0
 40
0.0
 40
0.0
 40
0.0
 40
1.0
 40
1.0
 40
1.0
 10
21.601938303583587
 20
24.325681233335985
 30
0.0
 10
21.49528709126342
 20
24.34892213994219
 30
0.0
 10
21.37503887711912
 20
24.28194384566922
 30
0.0
  0
ELLIPSE
  5
37
330
17
100
AcDbEntity
  8
visible
100
AcDbEllipse
 10
0.1608333548763028
 20
7.433321593222566
 30
0.0
 11
-45.2
 21
-2.7678098511974636e-15
 31
0.0
 40
0.42214033313754407
 41
-8.342525766478687
 42
-4.195717322496369
  0
SPLINE
  5
38
330
17
100
AcDbEntity
  8
visible
100
AcDbSpline
 70
0
 71
3
 72
11
 73
7
 74
0
 40
0.0
 40
0.0
 40
0.0
 40
0.0
 40
0.32144257885121563
 40
0.32144257885121563
 40
0.32144257885121563
 40
0.7414667687230245
 40
0.7414667687230245
 40
0.7414667687230245
 40
0.7414667687230245
 10
25.117405814990022
 20
-8.475318393988928
 30
0.0
 10
24.91505125228173
 20
-8.581576951357977
 30
0.0
 10
24.65936003791814
 20
-8.687939570955251
 30
0.0
 10
24.388488567683087
 20
-8.778183784437417
 30
0.0
 10
24.032605529454077
 20
-8.896971902066188
 30
0.0
 10
23.644573555501395
 20
-8.99296701091276
 30
0.0
 10
23.243066098995325
 20
-9.061114826951274
 30
0.0
  0
SPLINE
  5
39
330
17
100
AcDbEntity
  8
visible
100
AcDbSpline
 70
0
 71
2
 72
6
 73
3
 74
0
 40
0.0
 40
0.0
 40
0.0
 40
1.0
 40
1.0
 40
1.0
 10
23.24306609899532
 20
-9.061114826951272
 30
0.0
 10
22.870205463648126
 20
-9.12374404739022
 30
0.0
 10
22.489135787558826
 20
-9.156776906030665
 30
0.0
  0
ELLIPSE
  5
3A
330
17
100
AcDbEntity
  8
visible
100
AcDbEllipse
 10
0.1608333548763028
 20
7.433321593222566
 30
0.0
 11
-45.2
 21
-2.7678098511974636e-15
 31
0.0
 40
0.42214033313754407
 41
-4.127464332429601
 42
-3.443795414753759
  0
SPLINE
  5
3B
330
17
100
AcDbEntity
  8
visible
100
AcDbSpline
 70
0
 71
3
 72
11
 73
7
 74
0
 40
0.0
 40
0.0
 40
0.0
 40
0.0
 40
0.500050268034784
 40
0.500050268034784
 40
0.500050268034784
 40
1.0
 40
1.0
 40
1.0
 40
1.0
 10
44.12951047604288
 20
3.0099952191018673
 30
0.0
 10
44.16238513097863
 20
2.7953800999329883
 30
0.0
 10
44.071149332835006
 20
2.549257769200844
 30
0.0
 10
43.933418549150176
 20
2.3358889602014434
 30
0.0
 10
43.79123393907368
 20
2.1191218741196707
 30
0.0
 10
43.5965910252697
 20
1.9258826519760837
 30
0.0
 10
43.31251451455765
 20
1.7544370758856898
 30
0.0
  0
ELLIPSE
  5
3C
330
17
100
AcDbEntity
  8
visible
100
AcDbEllipse
 10
0.1608333548763028
 20
7.433321593222566
 30
0.0
 11
-45.2
 21
-2.7678098511974636e-15
 31
0.0
 40
0.42214033313754407
 41
-3.37554242468699
 42
-2.370326634294465
  0
LINE
  5
3D
330
17
100
AcDbEntity
  8
visible
100
AcDbLine
 10
16.17852272459093
 20
21.360329558370115
 30
0.0
 11
21.37503887711912
 21
24.281943845669225
 31
0.0
  0
LINE
  5
3E
330
17
100
AcDbEntity
  8
visible
100
AcDbLine
 10
27.374017781129155
 20
17.811816551081286
 30
0.0
 11
16.17852272459093
 21
21.360329558370115
 31
0.0
  0
ELLIPSE
  5
3F
330
17
100
AcDbEntity
  8
visible
100
AcDbEllipse
 10
39.5550376920209
 20
2.8652898728744347
 30
0.0
 11
-4.587298334620749
 21
-0.0
 31
0.0
 40
0.42214033313754407
 41
-3.0667971048683933
 42
-2.2148335467967835
  0
ELLIPSE
  5
40
330
17
100
AcDbEntity
  8
visible
100
AcDbEllipse
 10
21.542173610367787
 20
-7.2620030117115135
 30
0.0
 11
-4.587298334620749
 21
-0.0
 31
0.0
 40
0.4221403331375442
 41
-5.282870717189829
 42
-4.504462642314966
  0
ELLIPSE
  5
41
330
17
100
AcDbEntity
  8
visible
100
AcDbEllipse
 10
21.542173610367787
 20
-7.2620030117115135
 30
0.0
 11
-4.587298334620749
 21
-0.0
 31
0.0
 40
0.4221403331375442
 41
-5.356426200386576
 42
-5.282870717189829
  0
LINE
  5
42
330
17
100
AcDbEntity
  8
visible
100
AcDbLine
 10
39.11067086550817
 20
5.427714524889069
 30
0.0
 11
42.309383738804804
 21
4.413853665663689
 31
0.0
  0
LINE
  5
43
330
17
100
AcDbEntity
  8
visible
100
AcDbLine
 10
18.78782756358388
 20
-8.810566804500766
 30
0.0
 11
15.589114690287243
 21
-7.796705945275386
 31
0.0
  0
ELLIPSE
  5
44
330
17
100
AcDbEntity
  8
visible
100
AcDbEllipse
 10
36.35632481872426
 20
3.8791507320998093
 30
0.0
 11
-4.587298334620749
 21
-0.0
 31
0.0
 40
0.4221403331375442
 41
-2.214833546796783
 42
-0.6440372200018866
  0
ELLIPSE
  5
45
330
17
100
AcDbEntity
  8
visible
100
AcDbEllipse
 10
18.34346073707115
 20
-6.248142152486139
 30
0.0
 11
-4.587298334620749
 21
-0.0
 31
0.0
 40
0.42214033313754407
 41
-6.927222527181473
 42
-5.356426200386577
  0
LINE
  5
46
330
17
100
AcDbEntity
  8
visible
100
AcDbLine
 10
14.675098177920251
 20
-5.0854215947206995
 30
0.0
 11
32.68796225957337
 21
5.041871289865247
 31
0.0
  0
ELLIPSE
  5
47
330
17
100
AcDbEntity
  8
visible
100
AcDbEllipse
 10
-35.43154875033528
 20
13.435770246195347
 30
0.0
 11
1.3
 21
0.0
 31
0.0
 40
0.4221403331375442
 41
5.639148087177699
 42
6.283185307179586
  0
ELLIPSE
  5
48
330
17
100
AcDbEntity
  8
visible
100
AcDbEllipse
 10
-35.43154875033528
 20
13.435770246195347
 30
0.0
 11
1.3
 21
0.0
 31
0.0
 40
0.4221403331375442
 41
0.0
 42
3.141592653589793
  0
ELLIPSE
  5
49
330
17
100
AcDbEntity
  8
visible
100
AcDbEllipse
 10
-35.43154875033528
 20
13.435770246195347
 30
0.0
 11
1.3
 21
0.0
 31
0.0
 40
0.4221403331375442
 41
3.141592653589793
 42
5.639148087177699
  0
ELLIPSE
  5
4A
330
17
100
AcDbEntity
  8
visible
100
AcDbEllipse
 10
-23.422972695899876
 20
20.187298835919307
 30
0.0
 11
1.3
 21
0.0
 31
0.0
 40
0.4221403331375442
 41
5.639148087177699
 42
6.283185307179586
  0
ELLIPSE
  5
4B
330
17
100
AcDbEntity
  8
visible
100
AcDbEllipse
 10
-23.422972695899876
 20
20.187298835919307
 30
0.0
 11
1.3
 21
0.0
 31
0.0
 40
0.4221403331375442
 41
0.0
 42
3.141592653589793
  0
ELLIPSE
  5
4C
330
17
100
AcDbEntity
  8
visible
100
AcDbEllipse
 10
-23.422972695899876
 20
20.187298835919307
 30
0.0
 11
1.3
 21
0.0
 31
0.0
 40
0.4221403331375442
 41
3.141592653589793
 42
5.639148087177699
  0
ELLIPSE
  5
4D
330
17
100
AcDbEntity
  8
visible
100
AcDbEllipse
 10
-4.642597066897861
 20
4.732710157332981
 30
0.0
 11
2.25
 21
0.0
 31
0.0
 40
0.4221403331375442
 41
5.639148087177699
 42
6.283185307179586
  0
ELLIPSE
  5
4E
330
17
100
AcDbEntity
  8
visible
100
AcDbEllipse
 10
-4.642597066897861
 20
4.732710157332981
 30
0.0
 11
2.25
 21
0.0
 31
0.0
 40
0.4221403331375442
 41
0.0
 42
3.141592653589793
  0
ELLIPSE
  5
4F
330
17
100
AcDbEntity
  8
visible
100
AcDbEllipse
 10
-4.642597066897861
 20
4.732710157332981
 30
0.0
 11
2.25
 21
0.0
 31
0.0
 40
0.4221403331375442
 41
3.141592653589793
 42
5.639148087177699
  0
ELLIPSE
  5
50
330
17
100
AcDbEntity
  8
visible
100
AcDbEllipse
 10
0.1608333548763028
 20
7.433321593222566
 30
0.0
 11
2.5
 21
0.0
 31
0.0
 40
0.4221403331375441
 41
5.639148087177699
 42
6.283185307179586
  0
ELLIPSE
  5
51
330
17
100
AcDbEntity
  8
visible
100
AcDbEllipse
 10
0.1608333548763028
 20
7.433321593222566
 30
0.0
 11
2.5
 21
0.0
 31
0.0
 40
0.4221403331375441
 41
0.0
 42
3.141592653589793
  0
ELLIPSE
  5
52
330
17
100
AcDbEntity
  8
visible
100
AcDbEllipse
 10
0.1608333548763028
 20
7.433321593222566
 30
0.0
 11
2.5
 21
0.0
 31
0.0
 40
0.4221403331375441
 41
3.141592653589793
 42
5.639148087177699
  0
ELLIPSE
  5
53
330
17
100
AcDbEntity
  8
visible
100
AcDbEllipse
 10
4.9642637766504665
 20
10.13393302911215
 30
0.0
 11
2.25
 21
0.0
 31
0.0
 40
0.4221403331375442
 41
5.639148087177699
 42
6.283185307179586
  0
ELLIPSE
  5
54
330
17
100
AcDbEntity
  8
visible
100
AcDbEllipse
 10
4.9642637766504665
 20
10.13393302911215
 30
0.0
 11
2.25
 21
0.0
 31
0.0
 40
0.4221403331375442
 41
0.0
 42
3.141592653589793
  0
ELLIPSE
  5
55
330
17
100
AcDbEntity
  8
visible
100
AcDbEllipse
 10
4.9642637766504665
 20
10.13393302911215
 30
0.0
 11
2.25
 21
0.0
 31
0.0
 40
0.4221403331375442
 41
3.141592653589793
 42
5.639148087177699
  0
LINE
  5
56
330
17
100
AcDbEntity
  8
visible
100
AcDbLine
 10
13.578898376058758
 20
21.65641616589977
 30
0.0
 11
11.179863721086281
 21
22.416811810318805
 31
0.0
  0
LINE
  5
57
330
17
100
AcDbEntity
  8
visible
100
AcDbLine
 10
13.57889837605876
 20
21.656416165899778
 30
0.0
 11
15.980613586945843
 21
23.00672188384457
 31
0.0
  0
LINE
  5
58
330
17
100
AcDbEntity
  8
visible
100
AcDbLine
 10
11.179863721086283
 20
22.416811810318812
 30
0.0
 11
13.581578931973366
 21
23.767117528263604
 31
0.0
  0
LINE
  5
59
330
17
100
AcDbEntity
  8
visible
100
AcDbLine
 10
15.980613586945841
 20
23.006721883844577
 30
0.0
 11
13.581578931973365
 21
23.76711752826361
 31
0.0
  0
LINE
  5
5A
330
17
100
AcDbEntity
  8
visible
100
AcDbLine
 10
31.171819179190255
 20
16.080181440160196
 30
0.0
 11
28.77278452421778
 21
16.84057708457923
 31
0.0
  0
LINE
  5
5B
330
17
100
AcDbEntity
  8
visible
100
AcDbLine
 10
31.171819179190255
 20
16.08018144016019
 30
0.0
 11
33.57353439007734
 21
17.43048715810498
 31
0.0
  0
LINE
  5
5C
330
17
100
AcDbEntity
  8
visible
100
AcDbLine
 10
28.77278452421778
 20
16.840577084579223
 30
0.0
 11
31.174499735104863
 21
18.190882802524015
 31
0.0
  0
LINE
  5
5D
330
17
100
AcDbEntity
  8
visible
100
AcDbLine
 10
33.57353439007734
 20
17.430487158104988
 30
0.0
 11
31.174499735104863
 21
18.190882802524023
 31
0.0
  0
ELLIPSE
  5
5E
330
17
100
AcDbEntity
  8
visible
100
AcDbEllipse
 10
21.542173610367787
 20
-7.2620030117115135
 30
0.0
 11
-4.587298334620749
 21
-0.0
 31
0.0
 40
0.4221403331375442
 41
-3.8187190126110053
 42
-3.7856298735916796
  0
LINE
  5
5F
330
17
100
AcDbEntity
  8
visible
100
AcDbLine
 10
43.22340025117181
 20
1.7025693151089953
 30
0.0
 11
25.210536169518694
 21
-8.424723569476951
 31
0.0
  0
ELLIPSE
  5
60
330
17
100
AcDbEntity
  8
visible
100
AcDbEllipse
 10
39.5550376920209
 20
2.8652898728744347
 30
0.0
 11
-4.587298334620749
 21
-0.0
 31
0.0
 40
0.42214033313754407
 41
-3.78562987359168
 42
-3.7525407345723587
  0
ELLIPSE
  5
61
330
17
100
AcDbEntity
  8
visible
100
AcDbEllipse
 10
23.74463940565248
 20
-5.411308699016843
 30
0.0
 11
1.3
 21
0.0
 31
0.0
 40
0.4221403331375442
 41
5.639148087177699
 42
6.283185307179586
  0
ELLIPSE
  5
62
330
17
100
AcDbEntity
  8
visible
100
AcDbEllipse
 10
23.74463940565248
 20
-5.411308699016843
 30
0.0
 11
1.3
 21
0.0
 31
0.0
 40
0.4221403331375442
 41
0.0
 42
3.141592653589793
  0
ELLIPSE
  5
63
330
17
100
AcDbEntity
  8
visible
100
AcDbEllipse
 10
23.74463940565248
 20
-5.411308699016843
 30
0.0
 11
1.3
 21
0.0
 31
0.0
 40
0.4221403331375442
 41
3.141592653589793
 42
5.639148087177699
  0
ELLIPSE
  5
64
330
17
100
AcDbEntity
  8
visible
100
AcDbEllipse
 10
35.75321546008789
 20
1.3402198907071181
 30
0.0
 11
1.3
 21
0.0
 31
0.0
 40
0.4221403331375442
 41
5.639148087177699
 42
6.283185307179586
  0
ELLIPSE
  5
65
330
17
100
AcDbEntity
  8
visible
100
AcDbEllipse
 10
35.75321546008789
 20
1.3402198907071181
 30
0.0
 11
1.3
 21
0.0
 31
0.0
 40
0.4221403331375442
 41
0.0
 42
3.141592653589793
  0
ELLIPSE
  5
66
330
17
100
AcDbEntity
  8
visible
100
AcDbEllipse
 10
35.75321546008789
 20
1.3402198907071181
 30
0.0
 11
1.3
 21
0.0
 31
0.0
 40
0.4221403331375442
 41
3.141592653589793
 42
5.639148087177699
  0
LINE
  5
67
330
17
100
AcDbEntity
  8
visible
100
AcDbLine
 10
13.581578931973365
 20
21.657923242992997
 30
0.0
 11
13.581578931973365
 21
23.76711752826362
 31
0.0
  0
LINE
  5
68
330
17
100
AcDbEntity
  8
visible
100
AcDbLine
 10
31.17449973510486
 20
16.081688517253408
 30
0.0
 11
31.17449973510486
 21
18.190882802524023
 31
0.0
  0
ELLIPSE
  5
69
330
17
100
AcDbEntity
  8
visible
100
AcDbEllipse
 10
24.90082212732926
 20
-7.6919855670995005
 30
0.0
 11
0.39206361210179264
 21
-0.6973421857780405
 31
0.0
 40
0.7249326914393165
 41
-0.6596570614485104
 42
-0.1542965511643395
  0
ELLIPSE
  5
6A
330
17
100
AcDbEntity
  8
visible
100
AcDbEllipse
 10
21.542173610367787
 20
-7.35265606125418
 30
0.0
 11
-4.2
 21
-0.0
 31
0.0
 40
0.4221403331375442
 41
-5.356426200386576
 42
-3.7856298735916796
  0
ELLIPSE
  5
6B
330
17
100
AcDbEntity
  8
visible
100
AcDbEllipse
 10
19.02037263893635
 20
-8.045252668754884
 30
0.0
 11
-0.2417159788926053
 21
-0.7626095892053742
 31
0.0
 40
0.5443070199998088
 41
0.021954996303075847
 42
0.527315506587243
  0
ELLIPSE
  5
6C
330
17
100
AcDbEntity
  8
visible
100
AcDbEllipse
 10
42.076838663452335
 20
4.917682223515129
 30
0.0
 11
0.2417159788926053
 21
0.7626095892053742
 31
0.0
 40
0.5443070199998088
 41
-2.61427714700255
 42
-2.1089166367183827
  0
ELLIPSE
  5
6D
330
17
100
AcDbEntity
  8
visible
100
AcDbEllipse
 10
39.5550376920209
 20
2.774636823331768
 30
0.0
 11
-4.2
 21
-0.0
 31
0.0
 40
0.42214033313754407
 41
-3.78562987359168
 42
-2.2148335467967835
  0
ELLIPSE
  5
6E
330
17
100
AcDbEntity
  8
visible
100
AcDbEllipse
 10
42.91368620898237
 20
2.4353073174864477
 30
0.0
 11
0.3920636121017925
 21
-0.6973421857780405
 31
0.0
 40
0.7249326914393163
 41
-0.6596570614485104
 42
-0.1542965511643395
  0
LINE
  5
6F
330
17
100
AcDbEntity
  8
visible
100
AcDbLine
 10
38.8781257901557
 20
5.206318686399179
 30
0.0
 11
42.076838663452335
 21
4.192457827173798
 31
0.0
  0
ELLIPSE
  5
70
330
17
100
AcDbEntity
  8
visible
100
AcDbEllipse
 10
38.8781257901557
 20
5.931543082740511
 30
0.0
 11
0.2417159788926053
 21
0.7626095892053742
 31
0.0
 40
0.5443070199998088
 41
-2.61427714700255
 42
-2.1089166367183827
  0
ELLIPSE
  5
71
330
17
100
AcDbEntity
  8
visible
100
AcDbEllipse
 10
15.821659765639716
 20
-7.031391809529502
 30
0.0
 11
-0.2417159788926053
 21
-0.7626095892053742
 31
0.0
 40
0.5443070199998088
 41
0.021954996303075847
 42
0.527315506587243
  0
LINE
  5
72
330
17
100
AcDbEntity
  8
visible
100
AcDbLine
 10
19.02037263893635
 20
-8.770477065096216
 30
0.0
 11
15.821659765639712
 21
-7.756616205870835
 31
0.0
  0
ELLIPSE
  5
73
330
17
100
AcDbEntity
  8
visible
100
AcDbEllipse
 10
32.997676301762795
 20
5.5782759810851275
 30
0.0
 11
-0.39206361210179264
 21
0.6973421857780405
 31
0.0
 40
0.7249326914393165
 41
1.9765750818571155
 42
2.4819355921412827
  0
ELLIPSE
  5
74
330
17
100
AcDbEntity
  8
visible
100
AcDbEllipse
 10
36.35632481872426
 20
3.788497682557143
 30
0.0
 11
-4.2
 21
-0.0
 31
0.0
 40
0.4221403331375442
 41
-2.214833546796783
 42
-0.6440372200018866
  0
ELLIPSE
  5
75
330
17
100
AcDbEntity
  8
visible
100
AcDbEllipse
 10
18.34346073707115
 20
-6.338795202028805
 30
0.0
 11
-4.2
 21
-0.0
 31
0.0
 40
0.42214033313754407
 41
-6.927222527181472
 42
-5.356426200386576
  0
ELLIPSE
  5
76
330
17
100
AcDbEntity
  8
visible
100
AcDbEllipse
 10
14.984812220109685
 20
-4.549016903500821
 30
0.0
 11
-0.39206361210179264
 21
0.6973421857780405
 31
0.0
 40
0.7249326914393165
 41
1.9765750818571155
 42
2.4819355921412827
  0
LINE
  5
77
330
17
100
AcDbEntity
  8
visible
100
AcDbLine
 10
14.984812220109685
 20
-5.274241299842153
 30
0.0
 11
32.9976763017628
 21
4.853051584743794
 31
0.0
  0
LINE
  5
78
330
17
100
AcDbEntity
  8
visible
100
AcDbLine
 10
42.91368620898237
 20
1.7100829211451156
 30
0.0
 11
24.900822127329253
 21
-8.41720996344083
 31
0.0
  0
LINE
  5
79
330
17
100
AcDbEntity
  8
visible
100
AcDbLine
 10
46.1608333548763
 20
-6.0739827886348206
 30
0.0
 11
46.1608333548763
 21
6.708097196881233
 31
0.0
  0
LINE
  5
7A
330
17
100
AcDbEntity
  8
visible
100
AcDbLine
 10
-45.8391666451237
 20
-6.0739827886348206
 30
0.0
 11
-45.8391666451237
 21
6.708097196881233
 31
0.0
  0
SPLINE
  5
7B
330
17
100
AcDbEntity
  8
visible
100
AcDbSpline
 70
0
 71
3
 72
35
 73
31
 74
0
 40
0.0
 40
0.0
 40
0.0
 40
0.0
 40
0.09100335754229791
 40
0.09100335754229791
 40
0.09100335754229791
 40
0.17133228956143354
 40
0.17133228956143354
 40
0.17133228956143354
 40
0.2789931265278061
 40
0.2789931265278061
 40
0.2789931265278061
 40
0.39392463053818516
 40
0.39392463053818516
 40
0.39392463053818516
 40
0.5088561345485643
 40
0.5088561345485643
 40
0.5088561345485643
 40
0.6155789763996067
 40
0.6155789763996067
 40
0.6155789763996067
 40
0.7223018182506492
 40
0.7223018182506492
 40
0.7223018182506492
 40
0.8280749059006043
 40
0.8280749059006043
 40
0.8280749059006043
 40
0.9091029513118287
 40
0.9091029513118287
 40
0.9091029513118287
 40
1.0
 40
1.0
 40
1.0
 40
1.0
 10
-45.8391666451237
 20
-6.073982788634822
 30
0.0
 10
-45.84112026693576
 20
-8.059375698295858
 30
0.0
 10
-45.164308454791616
 20
-10.031067282854899
 30
0.0
 10
-43.887268792020485
 20
-11.874346519572743
 30
0.0
 10
-42.76082599812652
 20
-13.50378461453446
 30
0.0
 10
-41.170421168069986
 20
-15.043325451654392
 30
0.0
 10
-39.17265041374796
 20
-16.46423142103749
 30
0.0
 10
-36.49647435260752
 20
-18.368672668470175
 30
0.0
 10
-33.081993774361315
 20
-20.060234419987786
 30
0.0
 10
-29.110017934633504
 20
-21.462577826352337
 30
0.0
 10
-24.872077411665725
 20
-22.9604979422212
 30
0.0
 10
-19.99771984383682
 20
-24.126194907349973
 30
0.0
 10
-14.795616548165336
 20
-24.888527710047676
 30
0.0
 10
-9.595191889257412
 20
-25.65257616916132
 30
0.0
 10
-4.067021502506914
 20
-26.013260465843942
 30
0.0
 10
1.4332214656884306
 20
-25.94747796805057
 30
0.0
 10
6.540523483193435
 20
-25.887815886430822
 30
0.0
 10
11.623844573658339
 20
-25.461188430790102
 30
0.0
 10
16.401083953352554
 20
-24.69099751141267
 30
0.0
 10
21.17967920694167
 20
-23.922057641032936
 30
0.0
 10
25.652192749760133
 20
-22.809554306916525
 30
0.0
 10
29.574488267134555
 20
-21.41191879128316
 30
0.0
 10
33.46380188570152
 20
-20.02735105964563
 30
0.0
 10
36.81267743588431
 20
-18.36448049568981
 30
0.0
 10
39.44993618528398
 20
-16.49573330739534
 30
0.0
 10
41.47117650642654
 20
-15.064221066614943
 30
0.0
 10
43.07835806516615
 20
-13.511783210613274
 30
0.0
 10
44.21337870097752
 20
-11.867915291117953
 30
0.0
 10
45.487553358535386
 20
-10.026503311576947
 30
0.0
 10
46.162780681011434
 20
-8.057061057663693
 30
0.0
 10
46.160833354876296
 20
-6.073982788634815
 30
0.0
  0
SPLINE
  5
7C
330
17
100
AcDbEntity
  8
visible
100
AcDbSpline
 70
0
 71
3
 72
14
 73
10
 74
0
 40
0.0
 40
0.0
 40
0.0
 40
0.0
 40
0.3690070579905089
 40
0.3690070579905089
 40
0.3690070579905089
 40
0.7380141159810178
 40
0.7380141159810178
 40
0.7380141159810178
 40
1.0
 40
1.0
 40
1.0
 40
1.0
 10
46.1608333548763
 20
6.708097196881241
 30
0.0
 10
46.16155262124015
 20
8.125752146190834
 30
0.0
 10
45.817743157010916
 20
9.540228027889905
 30
0.0
 10
45.15361575302427
 20
10.901785963800805
 30
0.0
 10
44.068557225689034
 20
13.129346173206951
 30
0.0
 10
42.13769949068598
 20
15.218491097128533
 30
0.0
 10
39.494353295098755
 20
17.098285181442016
 30
0.0
 10
37.617722745191074
 20
18.43335448546816
 30
0.0
 10
35.38027341473364
 20
19.66371475897503
 30
0.0
 10
32.840299007213034
 20
20.76320188738501
 30
0.0
  0
SPLINE
  5
7D
330
17
100
AcDbEntity
  8
visible
100
AcDbSpline
 70
0
 71
3
 72
23
 73
19
 74
0
 40
0.0
 40
0.0
 40
0.0
 40
0.0
 40
0.13886129492941846
 40
0.13886129492941846
 40
0.13886129492941846
 40
0.26143456938569815
 40
0.26143456938569815
 40
0.26143456938569815
 40
0.42571337885036387
 40
0.42571337885036387
 40
0.42571337885036387
 40
0.6010864409667749
 40
0.6010864409667749
 40
0.6010864409667749
 40
0.7764595030831858
 40
0.7764595030831858
 40
0.7764595030831858
 40
1.0
 40
1.0
 40
1.0
 40
1.0
 10
-45.8391666451237
 20
6.708097196881241
 30
0.0
 10
-45.84112026693574
 20
8.69349010654227
 30
0.0
 10
-45.16430845479163
 20
10.665181691101415
 30
0.0
 10
-43.88726879202051
 20
12.508460927819147
 30
0.0
 10
-42.76082599812646
 20
14.137899022780871
 30
0.0
 10
-41.17042116806999
 20
15.677439859900849
 30
0.0
 10
-39.1726504137479
 20
17.09834582928394
 30
0.0
 10
-36.49647435260748
 20
19.00278707671662
 30
0.0
 10
-33.08199377436123
 20
20.69434882823424
 30
0.0
 10
-29.110017934633433
 20
22.096692234598784
 30
0.0
 10
-24.87207743021683
 20
23.594611794074776
 30
0.0
 10
-19.99771977581564
 20
24.760311355703607
 30
0.0
 10
-14.795616807881814
 20
25.52263432879398
 30
0.0
 10
-9.595192513813869
 20
26.28667184551451
 30
0.0
 10
-4.067022906213282
 20
26.647332773696647
 30
0.0
 10
1.4332173102228527
 20
26.581467744294514
 30
0.0
 10
8.444834179689648
 20
26.500996327243726
 30
0.0
 10
15.404415178820269
 20
25.72334966365128
 30
0.0
 10
21.60193830586885
 20
24.325681239074925
 30
0.0
  0
ENDSEC
  0
SECTION
  2
OBJECTS
  0
DICTIONARY
  5
A
330
0
100
AcDbDictionary
281
1
  3
ACAD_COLOR
350
B
  3
ACAD_GROUP
350
C
  3
ACAD_LAYOUT
350
D
  3
ACAD_MATERIAL
350
E
  3
ACAD_MLEADERSTYLE
350
F
  3
ACAD_MLINESTYLE
350
10
  3
ACAD_PLOTSETTINGS
350
11
  3
ACAD_PLOTSTYLENAME
350
12
  3
ACAD_SCALELIST
350
14
  3
ACAD_TABLESTYLE
350
15
  3
ACAD_VISUALSTYLE
350
16
  3
EZDXF_META
350
2D
  0
DICTIONARY
  5
B
330
A
100
AcDbDictionary
281
1
  0
DICTIONARY
  5
C
330
A
100
AcDbDictionary
281
1
  0
DICTIONARY
  5
D
330
A
100
AcDbDictionary
281
1
  3
Model
350
1A
  3
Layout1
350
1E
  0
DICTIONARY
  5
E
330
A
100
AcDbDictionary
281
1
  3
ByBlock
350
1F
  3
ByLayer
350
20
  3
Global
350
21
  0
DICTIONARY
  5
F
330
A
100
AcDbDictionary
281
1
  3
Standard
350
2C
  0
DICTIONARY
  5
10
330
A
100
AcDbDictionary
281
1
  3
Standard
350
22
  0
DICTIONARY
  5
11
330
A
100
AcDbDictionary
281
1
  0
ACDBDICTIONARYWDFLT
  5
12
330
A
100
AcDbDictionary
281
1
  3
Normal
350
13
100
AcDbDictionaryWithDefault
340
13
  0
ACDBPLACEHOLDER
  5
13
330
12
  0
DICTIONARY
  5
14
330
A
100
AcDbDictionary
281
1
  0
DICTIONARY
  5
15
330
A
100
AcDbDictionary
281
1
  0
DICTIONARY
  5
16
330
A
100
AcDbDictionary
281
1
  0
LAYOUT
  5
1A
330
D
100
AcDbPlotSettings
  1

  4
A3
  6

 40
7.5
 41
20.0
 42
7.5
 43
20.0
 44
420.0
 45
297.0
 46
0.0
 47
0.0
 48
0.0
 49
0.0
140
0.0
141
0.0
142
1.0
143
1.0
 70
1024
 72
1
 73
0
 74
5
  7

 75
16
 76
0
 77
2
 78
300
147
1.0
148
0.0
149
0.0
100
AcDbLayout
  1
Model
 70
1
 71
0
 10
0.0
 20
0.0
 11
420.0
 21
297.0
 12
0.0
 22
0.0
 32
0.0
 14
1e+20
 24
1e+20
 34
1e+20
 15
-1e+20
 25
-1e+20
 35
-1e+20
146
0.0
 13
0.0
 23
0.0
 33
0.0
 16
1.0
 26
0.0
 36
0.0
 17
0.0
 27
1.0
 37
0.0
 76
1
330
17
  0
LAYOUT
  5
1E
330
D
100
AcDbPlotSettings
  1

  4
A3
  6

 40
7.5
 41
20.0
 42
7.5
 43
20.0
 44
420.0
 45
297.0
 46
0.0
 47
0.0
 48
0.0
 49
0.0
140
0.0
141
0.0
142
1.0
143
1.0
 70
0
 72
1
 73
0
 74
5
  7

 75
16
 76
0
 77
2
 78
300
147
1.0
148
0.0
149
0.0
100
AcDbLayout
  1
Layout1
 70
1
 71
1
 10
0.0
 20
0.0
 11
420.0
 21
297.0
 12
0.0
 22
0.0
 32
0.0
 14
1e+20
 24
1e+20
 34
1e+20
 15
-1e+20
 25
-1e+20
 35
-1e+20
146
0.0
 13
0.0
 23
0.0
 33
0.0
 16
1.0
 26
0.0
 36
0.0
 17
0.0
 27
1.0
 37
0.0
 76
1
330
1B
  0
MATERIAL
  5
1F
102
{ACAD_REACTORS
330
E
102
}
330
E
100
AcDbMaterial
  1
ByBlock
  2

 70
0
 40
1.0
 71
1
 41
1.0
 91
-1023410177
 42
1.0
 72
1
  3

 73
1
 74
1
 75
1
 44
0.5
 73
0
 45
1.0
 46
1.0
 77
1
  4

 78
1
 79
1
170
1
 48
1.0
171
1
  6

172
1
173
1
174
1
140
1.0
141
1.0
175
1
  7

176
1
177
1
178
1
143
1.0
179
1
  8

270
1
271
1
272
1
145
1.0
146
1.0
273
1
  9

274
1
275
1
276
1
 42
1.0
 72
1
  3

 73
1
 74
1
 75
1
 94
63
  0
MATERIAL
  5
20
102
{ACAD_REACTORS
330
E
102
}
330
E
100
AcDbMaterial
  1
ByLayer
  2

 70
0
 40
1.0
 71
1
 41
1.0
 91
-1023410177
 42
1.0
 72
1
  3

 73
1
 74
1
 75
1
 44
0.5
 73
0
 45
1.0
 46
1.0
 77
1
  4

 78
1
 79
1
170
1
 48
1.0
171
1
  6

172
1
173
1
174
1
140
1.0
141
1.0
175
1
  7

176
1
177
1
178
1
143
1.0
179
1
  8

270
1
271
1
272
1
145
1.0
146
1.0
273
1
  9

274
1
275
1
276
1
 42
1.0
 72
1
  3

 73
1
 74
1
 75
1
 94
63
  0
MATERIAL
  5
21
102
{ACAD_REACTORS
330
E
102
}
330
E
100
AcDbMaterial
  1
Global
  2

 70
0
 40
1.0
 71
1
 41
1.0
 91
-1023410177
 42
1.0
 72
1
  3

 73
1
 74
1
 75
1
 44
0.5
 73
0
 45
1.0
 46
1.0
 77
1
  4

 78
1
 79
1
170
1
 48
1.0
171
1
  6

172
1
173
1
174
1
140
1.0
141
1.0
175
1
  7

176
1
177
1
178
1
143
1.0
179
1
  8

270
1
271
1
272
1
145
1.0
146
1.0
273
1
  9

274
1
275
1
276
1
 42
1.0
 72
1
  3

 73
1
 74
1
 75
1
 94
63
  0
MLINESTYLE
  5
22
102
{ACAD_REACTORS
330
10
102
}
330
10
100
AcDbMlineStyle
  2
Standard
 70
0
  3

 62
256
 51
90.0
 52
90.0
 71
2
 49
0.5
 62
256
  6
BYLAYER
 49
-0.5
 62
256
  6
BYLAYER
  0
MLEADERSTYLE
  5
2C
102
{ACAD_REACTORS
330
F
102
}
330
F
100
AcDbMLeaderStyle
179
2
170
2
171
1
172
0
 90
2
 40
0.0
 41
0.0
173
1
 91
-1056964608
 92
-2
290
1
 42
2.0
291
1
 43
8.0
  3
Standard
 44
4.0
300

342
29
174
1
175
1
176
0
178
1
 93
-1056964608
 45
4.0
292
0
297
0
 46
4.0
 94
-1056964608
 47
1.0
 49
1.0
140
1.0
294
1
141
0.0
177
0
142
1.0
295
0
296
0
143
3.75
271
0
272
9
273
9
  0
DICTIONARY
  5
2D
330
A
100
AcDbDictionary
280
1
281
1
  3
CREATED_BY_EZDXF
350
2E
  3
WRITTEN_BY_EZDXF
350
81
  0
DICTIONARYVAR
  5
2E
330
2D
100
DictionaryVariables
280
0
  1
1.4.4 @ 2026-10-03T14:54:13.202660+00:00
  0
DICTIONARYVAR
  5
81
330
2D
100
DictionaryVariables
280
0
  1
1.4.4 @ 2026-10-03T14:54:13.219278+00:00
  0
ENDSEC
  0
EOF
