  0
SECTION
  2
HEADER
  9
$ACADVER
  1
AC1027
  9
$ACADMAINTVER
 70
105
  9
$DWGCODEPAGE
  3
ANSI_1252
  9
$LASTSAVEDBY
  1
ezdxf
  9
$REQUIREDVERSIONS
160
0
  9
$INSBASE
 10
0.0
 20
0.0
 30
0.0
  9
$EXTMIN
 10
1e+20
 20
1e+20
 30
1e+20
  9
$EXTMAX
 10
-1e+20
 20
-1e+20
 30
-1e+20
  9
$LIMMIN
 10
0.0
 20
0.0
  9
$LIMMAX
 10
420.0
 20
297.0
  9
$ORTHOMODE
 70
0
  9
$REGENMODE
 70
1
  9
$FILLMODE
 70
1
  9
$QTEXTMODE
 70
0
  9
$MIRRTEXT
 70
1
  9
$LTSCALE
 40
1.0
  9
$ATTMODE
 70
1
  9
$TEXTSIZE
 40
2.5
  9
$TRACEWID
 40
1.0
  9
$TEXTSTYLE
  7
Standard
  9
$CLAYER
  8
0
  9
$CELTYPE
  6
ByLayer
  9
$CECOLOR
 62
256
  9
$CELTSCALE
 40
1.0
  9
$DISPSILH
 70
0
  9
$DIMSCALE
 40
1.0
  9
$DIMASZ
 40
2.5
  9
$DIMEXO
 40
0.625
  9
$DIMDLI
 40
3.75
  9
$DIMRND
 40
0.0
  9
$DIMDLE
 40
0.0
  9
$DIMEXE
 40
1.25
  9
$DIMTP
 40
0.0
  9
$DIMTM
 40
0.0
  9
$DIMTXT
 40
2.5
  9
$DIMCEN
 40
2.5
  9
$DIMTSZ
 40
0.0
  9
$DIMTOL
 70
0
  9
$DIMLIM
 70
0
  9
$DIMTIH
 70
0
  9
$DIMTOH
 70
0
  9
$DIMSE1
 70
0
  9
$DIMSE2
 70
0
  9
$DIMTAD
 70
1
  9
$DIMZIN
 70
8
  9
$DIMBLK
  1

  9
$DIMASO
 70
1
  9
$DIMSHO
 70
1
  9
$DIMPOST
  1

  9
$DIMAPOST
  1

  9
$DIMALT
 70
0
  9
$DIMALTD
 70
3
  9
$DIMALTF
 40
0.03937007874
  9
$DIMLFAC
 40
1.0
  9
$DIMTOFL
 70
1
  9
$DIMTVP
 40
0.0
  9
$DIMTIX
 70
0
  9
$DIMSOXD
 70
0
  9
$DIMSAH
 70
0
  9
$DIMBLK1
  1

  9
$DIMBLK2
  1

  9
$DIMSTYLE
  2
ISO-25
  9
$DIMCLRD
 70
0
  9
$DIMCLRE
 70
0
  9
$DIMCLRT
 70
0
  9
$DIMTFAC
 40
1.0
  9
$DIMGAP
 40
0.625
  9
$DIMJUST
 70
0
  9
$DIMSD1
 70
0
  9
$DIMSD2
 70
0
  9
$DIMTOLJ
 70
0
  9
$DIMTZIN
 70
8
  9
$DIMALTZ
 70
0
  9
$DIMALTTZ
 70
0
  9
$DIMUPT
 70
0
  9
$DIMDEC
 70
2
  9
$DIMTDEC
 70
2
  9
$DIMALTU
 70
2
  9
$DIMALTTD
 70
3
  9
$DIMTXSTY
  7
Standard
  9
$DIMAUNIT
 70
0
  9
$DIMADEC
 70
0
  9
$DIMALTRND
 40
0.0
  9
$DIMAZIN
 70
0
  9
$DIMDSEP
 70
44
  9
$DIMATFIT
 70
3
  9
$DIMFRAC
 70
0
  9
$DIMLDRBLK
  1

  9
$DIMLUNIT
 70
2
  9
$DIMLWD
 70
-2
  9
$DIMLWE
 70
-2
  9
$DIMTMOVE
 70
0
  9
$DIMFXL
 40
1.0
  9
$DIMFXLON
 70
0
  9
$DIMJOGANG
 40
0.785398163397
  9
$DIMTFILL
 70
0
  9
$DIMTFILLCLR
 70
0
  9
$DIMARCSYM
 70
0
  9
$DIMLTYPE
  6

  9
$DIMLTEX1
  6

  9
$DIMLTEX2
  6

  9
$DIMTXTDIRECTION
 70
0
  9
$LUNITS
 70
2
  9
$LUPREC
 70
4
  9
$SKETCHINC
 40
1.0
  9
$FILLETRAD
 40
10.0
  9
$AUNITS
 70
0
  9
$AUPREC
 70
2
  9
$MENU
  1
.
  9
$ELEVATION
 40
0.0
  9
$PELEVATION
 40
0.0
  9
$THICKNESS
 40
0.0
  9
$LIMCHECK
 70
0
  9
$CHAMFERA
 40
0.0
  9
$CHAMFERB
 40
0.0
  9
$CHAMFERC
 40
0.0
  9
$CHAMFERD
 40
0.0
  9
$SKPOLY
 70
0
  9
$TDCREATE
 40
2461315.922465278
  9
$TDUCREATE
 40
2458532.153996898
  9
$TDUPDATE
 40
2461315.922465278
  9
$TDUUPDATE
 40
2458532.1544311
  9
$TDINDWG
 40
0.0
  9
$TDUSRTIMER
 40
0.0
  9
$USRTIMER
 70
1
  9
$ANGBASE
 50
0.0
  9
$ANGDIR
 70
0
  9
$PDMODE
 70
0
  9
$PDSIZE
 40
0.0
  9
$PLINEWID
 40
0.0
  9
$SPLFRAME
 70
0
  9
$SPLINETYPE
 70
6
  9
$SPLINESEGS
 70
8
  9
$HANDSEED
  5
140
  9
$SURFTAB1
 70
6
  9
$SURFTAB2
 70
6
  9
$SURFTYPE
 70
6
  9
$SURFU
 70
6
  9
$SURFV
 70
6
  9
$UCSBASE
  2

  9
$UCSNAME
  2

  9
$UCSORG
 10
0.0
 20
0.0
 30
0.0
  9
$UCSXDIR
 10
1.0
 20
0.0
 30
0.0
  9
$UCSYDIR
 10
0.0
 20
1.0
 30
0.0
  9
$UCSORTHOREF
  2

  9
$UCSORTHOVIEW
 70
0
  9
$UCSORGTOP
 10
0.0
 20
0.0
 30
0.0
  9
$UCSORGBOTTOM
 10
0.0
 20
0.0
 30
0.0
  9
$UCSORGLEFT
 10
0.0
 20
0.0
 30
0.0
  9
$UCSORGRIGHT
 10
0.0
 20
0.0
 30
0.0
  9
$UCSORGFRONT
 10
0.0
 20
0.0
 30
0.0
  9
$UCSORGBACK
 10
0.0
 20
0.0
 30
0.0
  9
$PUCSBASE
  2

  9
$PUCSNAME
  2

  9
$PUCSORG
 10
0.0
 20
0.0
 30
0.0
  9
$PUCSXDIR
 10
1.0
 20
0.0
 30
0.0
  9
$PUCSYDIR
 10
0.0
 20
1.0
 30
0.0
  9
$PUCSORTHOREF
  2

  9
$PUCSORTHOVIEW
 70
0
  9
$PUCSORGTOP
 10
0.0
 20
0.0
 30
0.0
  9
$PUCSORGBOTTOM
 10
0.0
 20
0.0
 30
0.0
  9
$PUCSORGLEFT
 10
0.0
 20
0.0
 30
0.0
  9
$PUCSORGRIGHT
 10
0.0
 20
0.0
 30
0.0
  9
$PUCSORGFRONT
 10
0.0
 20
0.0
 30
0.0
  9
$PUCSORGBACK
 10
0.0
 20
0.0
 30
0.0
  9
$USERI1
 70
0
  9
$USERI2
 70
0
  9
$USERI3
 70
0
  9
$USERI4
 70
0
  9
$USERI5
 70
0
  9
$USERR1
 40
0.0
  9
$USERR2
 40
0.0
  9
$USERR3
 40
0.0
  9
$USERR4
 40
0.0
  9
$USERR5
 40
0.0
  9
$WORLDVIEW
 70
1
  9
$SHADEDGE
 70
3
  9
$SHADEDIF
 70
70
  9
$TILEMODE
 70
1
  9
$MAXACTVP
 70
64
  9
$PINSBASE
 10
0.0
 20
0.0
 30
0.0
  9
$PLIMCHECK
 70
0
  9
$PEXTMIN
 10
1e+20
 20
1e+20
 30
1e+20
  9
$PEXTMAX
 10
-1e+20
 20
-1e+20
 30
-1e+20
  9
$PLIMMIN
 10
0.0
 20
0.0
  9
$PLIMMAX
 10
420.0
 20
297.0
  9
$UNITMODE
 70
0
  9
$VISRETAIN
 70
1
  9
$PLINEGEN
 70
0
  9
$PSLTSCALE
 70
1
  9
$TREEDEPTH
 70
3020
  9
$CMLSTYLE
  2
Standard
  9
$CMLJUST
 70
0
  9
$CMLSCALE
 40
20.0
  9
$PROXYGRAPHICS
 70
1
  9
$MEASUREMENT
 70
1
  9
$CELWEIGHT
370
-1
  9
$ENDCAPS
280
0
  9
$JOINSTYLE
280
0
  9
$LWDISPLAY
290
0
  9
$INSUNITS
 70
4
  9
$HYPERLINKBASE
  1

  9
$STYLESHEET
  1

  9
$XEDIT
290
1
  9
$CEPSNTYPE
380
0
  9
$PSTYLEMODE
290
1
  9
$FINGERPRINTGUID
  2
{022FEF9A-008C-4072-86C4-42A5FF2249D9}
  9
$VERSIONGUID
  2
{BF433616-A672-4E9C-9D7C-B370E1F66E4F}
  9
$EXTNAMES
290
1
  9
$PSVPSCALE
 40
0.0
  9
$OLESTARTUP
290
0
  9
$SORTENTS
280
127
  9
$INDEXCTL
280
0
  9
$HIDETEXT
280
1
  9
$XCLIPFRAME
280
1
  9
$HALOGAP
280
0
  9
$OBSCOLOR
 70
257
  9
$OBSLTYPE
280
0
  9
$INTERSECTIONDISPLAY
280
0
  9
$INTERSECTIONCOLOR
 70
257
  9
$DIMASSOC
280
2
  9
$PROJECTNAME
  1

  9
$CAMERADISPLAY
290
0
  9
$LENSLENGTH
 40
50.0
  9
$CAMERAHEIGHT
 40
0.0
  9
$STEPSPERSEC
 40
24.0
  9
$STEPSIZE
 40
100.0
  9
$3DDWFPREC
 40
2.0
  9
$PSOLWIDTH
 40
0.005
  9
$PSOLHEIGHT
 40
0.08
  9
$LOFTANG1
 40
1.570796326795
  9
$LOFTANG2
 40
1.570796326795
  9
$LOFTMAG1
 40
0.0
  9
$LOFTMAG2
 40
0.0
  9
$LOFTPARAM
 70
7
  9
$LOFTNORMALS
280
1
  9
$LATITUDE
 40
37.795
  9
$LONGITUDE
 40
-122.394
  9
$NORTHDIRECTION
 40
0.0
  9
$TIMEZONE
 70
-8000
  9
$LIGHTGLYPHDISPLAY
280
1
  9
$TILEMODELIGHTSYNCH
280
1
  9
$CMATERIAL
347
20
  9
$SOLIDHIST
280
0
  9
$SHOWHIST
280
1
  9
$DWFFRAME
280
2
  9
$DGNFRAME
280
2
  9
$REALWORLDSCALE
290
1
  9
$INTERFERECOLOR
 62
256
  9
$CSHADOW
280
0
  9
$SHADOWPLANELOCATION
 40
0.0
  0
ENDSEC
  0
SECTION
  2
CLASSES
  0
CLASS
  1
ACDBDICTIONARYWDFLT
  2
AcDbDictionaryWithDefault
  3
ObjectDBX Classes
 90
0
 91
0
280
0
281
0
  0
CLASS
  1
SUN
  2
AcDbSun
  3
SCENEOE
 90
1153
 91
0
280
0
281
0
  0
CLASS
  1
VISUALSTYLE
  2
AcDbVisualStyle
  3
ObjectDBX Classes
 90
4095
 91
0
280
0
281
0
  0
CLASS
  1
MATERIAL
  2
AcDbMaterial
  3
ObjectDBX Classes
 90
1153
 91
0
280
0
281
0
  0
CLASS
  1
SCALE
  2
AcDbScale
  3
ObjectDBX Classes
 90
1153
 91
0
280
0
281
0
  0
CLASS
  1
TABLESTYLE
  2
AcDbTableStyle
  3
ObjectDBX Classes
 90
4095
 91
0
280
0
281
0
  0
CLASS
  1
MLEADERSTYLE
  2
AcDbMLeaderStyle
  3
ACDB_MLEADERSTYLE_CLASS
 90
4095
 91
0
280
0
281
0
  0
CLASS
  1
DICTIONARYVAR
  2
AcDbDictionaryVar
  3
ObjectDBX Classes
 90
0
 91
0
280
0
281
0
  0
CLASS
  1
CELLSTYLEMAP
  2
AcDbCellStyleMap
  3
ObjectDBX Classes
 90
1152
 91
0
280
0
281
0
  0
CLASS
  1
MENTALRAYRENDERSETTINGS
  2
AcDbMentalRayRenderSettings
  3
SCENEOE
 90
1024
 91
0
280
0
281
0
  0
CLASS
  1
ACDBDETAILVIEWSTYLE
  2
AcDbDetailViewStyle
  3
ObjectDBX Classes
 90
1025
 91
0
280
0
281
0
  0
CLASS
  1
ACDBSECTIONVIEWSTYLE
  2
AcDbSectionViewStyle
  3
ObjectDBX Classes
 90
1025
 91
0
280
0
281
0
  0
CLASS
  1
RASTERVARIABLES
  2
AcDbRasterVariables
  3
ISM
 90
0
 91
0
280
0
281
0
  0
CLASS
  1
LAYOUT
  2
AcDbLayout
  3
ObjectDBX Classes
 90
0
 91
0
280
0
281
0
  0
CLASS
  1
ACDBPLACEHOLDER
  2
AcDbPlaceHolder
  3
ObjectDBX Classes
 90
0
 91
0
280
0
281
0
  0
ENDSEC
  0
SECTION
  2
TABLES
  0
TABLE
  2
VPORT
  5
8
330
0
100
AcDbSymbolTable
 70
1
  0
VPORT
  5
13C
330
8
100
AcDbSymbolTableRecord
100
AcDbViewportTableRecord
  2
*Active
 70
0
 10
0.0
 20
0.0
 11
1.0
 21
1.0
 12
0.19798004246003842
 22
-3.3126004804872125
 13
0.0
 23
0.0
 14
0.5
 24
0.5
 15
0.5
 25
0.5
 16
0.0
 26
0.0
 36
1.0
 17
0.0
 27
0.0
 37
0.0
 40
87.09721719732616
 41
1.34
 42
50.0
 43
0.0
 44
0.0
 50
0.0
 51
0.0
 71
0
 72
1000
 73
1
 74
3
 75
0
 76
0
 77
0
 78
0
281
0
 65
1
110
0.0
120
0.0
130
0.0
111
1.0
121
0.0
131
0.0
112
0.0
122
1.0
132
0.0
 79
0
146
0.0
  0
ENDTAB
  0
TABLE
  2
LTYPE
  5
2
330
0
100
AcDbSymbolTable
 70
3
  0
LTYPE
  5
24
330
2
100
AcDbSymbolTableRecord
100
AcDbLinetypeTableRecord
  2
ByBlock
 70
0
  3

 72
65
 73
0
 40
0.0
  0
LTYPE
  5
25
330
2
100
AcDbSymbolTableRecord
100
AcDbLinetypeTableRecord
  2
ByLayer
 70
0
  3

 72
65
 73
0
 40
0.0
  0
LTYPE
  5
26
330
2
100
AcDbSymbolTableRecord
100
AcDbLinetypeTableRecord
  2
Continuous
 70
0
  3

 72
65
 73
0
 40
0.0
  0
ENDTAB
  0
TABLE
  2
LAYER
  5
1
330
0
100
AcDbSymbolTable
 70
3
  0
LAYER
  5
27
330
1
100
AcDbSymbolTableRecord
100
AcDbLayerTableRecord
  2
0
 70
0
 62
7
  6
Continuous
370
-3
390
13
347
21
  0
LAYER
  5
28
330
1
100
AcDbSymbolTableRecord
100
AcDbLayerTableRecord
  2
Defpoints
 70
0
 62
7
  6
Continuous
290
0
370
-3
390
13
347
21
  0
LAYER
  5
2F
330
1
100
AcDbSymbolTableRecord
100
AcDbLayerTableRecord
  2
visible
 70
0
 62
7
  6
Continuous
370
-3
390
13
347
21
  0
ENDTAB
  0
TABLE
  2
STYLE
  5
5
330
0
100
AcDbSymbolTable
 70
1
  0
STYLE
  5
29
330
5
100
AcDbSymbolTableRecord
100
AcDbTextStyleTableRecord
  2
Standard
 70
0
 40
0.0
 41
1.0
 50
0.0
 71
0
 42
2.5
  3
txt
  4

  0
ENDTAB
  0
TABLE
  2
VIEW
  5
7
330
0
100
AcDbSymbolTable
 70
0
  0
ENDTAB
  0
TABLE
  2
UCS
  5
6
330
0
100
AcDbSymbolTable
 70
0
  0
ENDTAB
  0
TABLE
  2
APPID
  5
3
330
0
100
AcDbSymbolTable
 70
3
  0
APPID
  5
2A
330
3
100
AcDbSymbolTableRecord
100
AcDbRegAppTableRecord
  2
ACAD
 70
0
  0
APPID
  5
13D
330
3
100
AcDbSymbolTableRecord
100
AcDbRegAppTableRecord
  2
HATCHBACKGROUNDCOLOR
 70
0
  0
APPID
  5
13E
330
3
100
AcDbSymbolTableRecord
100
AcDbRegAppTableRecord
  2
EZDXF
 70
0
  0
ENDTAB
  0
TABLE
  2
DIMSTYLE
  5
4
330
0
100
AcDbSymbolTable
 70
1
100
AcDbDimStyleTable
  0
DIMSTYLE
105
2B
330
4
100
AcDbSymbolTableRecord
100
AcDbDimStyleTableRecord
  2
Standard
 70
0
 40
1.0
 41
2.5
 42
0.625
 43
3.75
 44
1.25
 45
0.0
 46
0.0
 47
0.0
 48
0.0
 49
2.5
140
2.5
141
2.5
142
0.0
143
0.03937007874
144
1.0
145
0.0
146
1.0
147
0.625
148
0.0
 69
0
 70
0
 71
0
 72
0
 73
0
 74
0
 75
0
 76
0
 77
1
 78
8
 79
3
170
0
171
3
172
1
173
0
174
0
175
0
176
0
177
0
178
0
179
2
271
2
272
2
273
2
274
3
275
0
276
0
277
2
278
44
279
0
280
0
281
0
282
0
283
0
284
8
285
0
286
0
288
0
289
3
290
0
371
-2
372
-2
  0
ENDTAB
  0
TABLE
  2
BLOCK_RECORD
  5
9
330
0
100
AcDbSymbolTable
 70
2
  0
BLOCK_RECORD
  5
17
330
9
100
AcDbSymbolTableRecord
100
AcDbBlockTableRecord
  2
*Model_Space
340
1A
 70
0
280
1
281
0
  0
BLOCK_RECORD
  5
1B
330
9
100
AcDbSymbolTableRecord
100
AcDbBlockTableRecord
  2
*Paper_Space
340
1E
 70
0
280
1
281
0
  0
ENDTAB
  0
ENDSEC
  0
SECTION
  2
BLOCKS
  0
BLOCK
  5
18
330
17
100
AcDbEntity
  8
0
100
AcDbBlockBegin
  2
*Model_Space
 70
0
 10
0.0
 20
0.0
 30
0.0
  3
*Model_Space
  1

  0
ENDBLK
  5
19
330
17
100
AcDbEntity
  8
0
100
AcDbBlockEnd
  0
BLOCK
  5
1C
330
1B
100
AcDbEntity
  8
0
100
AcDbBlockBegin
  2
*Paper_Space
 70
0
 10
0.0
 20
0.0
 30
0.0
  3
*Paper_Space
  1

  0
ENDBLK
  5
1D
330
1B
100
AcDbEntity
  8
0
100
AcDbBlockEnd
  0
ENDSEC
  0
SECTION
  2
ENTITIES
  0
LINE
  5
30
330
17
100
AcDbEntity
  8
visible
100
AcDbLine
 10
29.58880883712642
 20
-46.02218311695096
 30
0.0
 11
30.777425328114003
 21
-46.30059758585541
 31
0.0
  0
LINE
  5
31
330
17
100
AcDbEntity
  8
visible
100
AcDbLine
 10
32.01444244591549
 20
-45.76485172599622
 30
0.0
 11
30.777425328114
 21
-46.30059758585541
 31
0.0
  0
LINE
  5
32
330
17
100
AcDbEntity
  8
visible
100
AcDbLine
 10
47.36615213757017
 20
-39.11610387060559
 30
0.0
 11
46.51080214499625
 21
-39.48655162808408
 31
0.0
  0
ELLIPSE
  5
33
330
17
100
AcDbEntity
  8
visible
100
AcDbEllipse
 10
-2.8196136630828335
 20
-32.89595738003361
 30
0.0
 11
34.0
 21
0.0
 31
0.0
 40
0.3185052402724498
 41
3.141592653589793
 42
5.180335764045038
  0
SPLINE
  5
34
330
17
100
AcDbEntity
  8
visible
100
AcDbSpline
 70
0
 71
3
 72
8
 73
4
 74
0
 40
0.0
 40
0.0
 40
0.0
 40
0.0
 40
0.75742751865441
 40
0.75742751865441
 40
0.75742751865441
 40
0.75742751865441
 10
11.869230641250539
 20
-41.90404164255807
 30
0.0
 10
11.865763103071874
 20
-42.19467225683514
 30
0.0
 10
12.060885781860334
 20
-42.45615859017299
 30
0.0
 10
12.368015776774232
 20
-42.526237639522535
 30
0.0
  0
SPLINE
  5
35
330
17
100
AcDbEntity
  8
visible
100
AcDbSpline
 70
0
 71
3
 72
11
 73
7
 74
0
 40
0.0
 40
0.0
 40
0.0
 40
0.0
 40
0.3359393725175109
 40
0.3359393725175109
 40
0.3359393725175109
 40
0.7690881266079826
 40
0.7690881266079826
 40
0.7690881266079826
 40
0.7690881266079826
 10
30.352175998893742
 20
-45.44265282804825
 30
0.0
 10
30.35261681495511
 20
-45.59030858563219
 30
0.0
 10
30.301544093663644
 20
-45.724291535646465
 30
0.0
 10
30.212959407600238
 20
-45.82102940084471
 30
0.0
 10
30.098921644575217
 20
-45.94708246990446
 30
0.0
 10
29.927017115348658
 20
-46.011080301189686
 30
0.0
 10
29.73896103254634
 20
-46.017384458740686
 30
0.0
  0
LINE
  5
36
330
17
100
AcDbEntity
  8
visible
100
AcDbLine
 10
30.352175998893742
 20
-45.44265282804825
 30
0.0
 11
30.352175998893742
 21
-44.514948680629765
 31
0.0
  0
LINE
  5
37
330
17
100
AcDbEntity
  8
visible
100
AcDbLine
 10
30.777425328114006
 20
-46.300597585855414
 30
0.0
 11
30.352175998893753
 21
-44.51494868062977
 31
0.0
  0
SPLINE
  5
38
330
17
100
AcDbEntity
  8
visible
100
AcDbSpline
 70
0
 71
3
 72
11
 73
7
 74
0
 40
0.0
 40
0.0
 40
0.0
 40
0.0
 40
0.2797979638459544
 40
0.2797979638459544
 40
0.2797979638459544
 40
0.6823361734362781
 40
0.6823361734362781
 40
0.6823361734362781
 40
0.6823361734362781
 10
30.793897855979168
 20
-45.40748921665745
 30
0.0
 10
30.872709276648617
 20
-45.55991799562348
 30
0.0
 10
30.996841449985073
 20
-45.67247977499247
 30
0.0
 10
31.13359338715493
 20
-45.73978093316013
 30
0.0
 10
31.331888627668608
 20
-45.837679243198224
 30
0.0
 10
31.554994789929818
 20
-45.8484457002192
 30
0.0
 10
31.775451895908752
 20
-45.80947302990525
 30
0.0
  0
SPLINE
  5
39
330
17
100
AcDbEntity
  8
visible
100
AcDbSpline
 70
0
 71
2
 72
6
 73
3
 74
0
 40
0.0
 40
0.0
 40
0.0
 40
1.0
 40
1.0
 40
1.0
 10
30.79389785597916
 20
-45.40748921665745
 30
0.0
 10
30.575122893768377
 20
-44.98503830661575
 30
0.0
 10
30.352175998893735
 20
-44.51494868062977
 30
0.0
  0
LINE
  5
3A
330
17
100
AcDbEntity
  8
visible
100
AcDbLine
 10
47.36615213757017
 20
-39.11610387060559
 30
0.0
 11
46.96831456078695
 21
-37.445558652478674
 31
0.0
  0
ELLIPSE
  5
3B
330
17
100
AcDbEntity
  8
visible
100
AcDbEllipse
 10
-2.8196136630828335
 20
-27.208430779736815
 30
0.0
 11
34.0
 21
0.0
 31
0.0
 40
0.3185052402724498
 41
0.8519838172743485
 42
2.044015819224628
  0
SPLINE
  5
3C
330
17
100
AcDbEntity
  8
visible
100
AcDbSpline
 70
0
 71
3
 72
11
 73
7
 74
0
 40
0.0
 40
0.0
 40
0.0
 40
0.0
 40
0.5821092502025516
 40
0.5821092502025516
 40
0.5821092502025516
 40
1.0
 40
1.0
 40
1.0
 40
1.0
 10
11.869230641250539
 20
-37.73318880234042
 30
0.0
 10
11.8681154714486
 20
-37.510395532569376
 30
0.0
 10
11.979263765790195
 20
-37.2700061143571
 30
0.0
 10
12.174123252656383
 20
-37.09424399905984
 30
0.0
 10
12.312916534591757
 20
-36.96758308794403
 30
0.0
 10
12.49386841083093
 20
-36.876694060868
 30
0.0
 10
12.676033579489342
 20
-36.847542978082444
 30
0.0
  0
LINE
  5
3D
330
17
100
AcDbEntity
  8
visible
100
AcDbLine
 10
11.869230641250546
 20
-41.90404164255808
 30
0.0
 11
11.869230641250546
 21
-37.73318880234042
 31
0.0
  0
ELLIPSE
  5
3E
330
17
100
AcDbEntity
  8
visible
100
AcDbEllipse
 10
-2.8196136630828335
 20
-27.208430779736815
 30
0.0
 11
34.0
 21
0.0
 31
0.0
 40
0.3185052402724498
 41
2.970964971547503
 42
3.141592653589793
  0
ELLIPSE
  5
3F
330
17
100
AcDbEntity
  8
visible
100
AcDbEllipse
 10
-2.8196136630828335
 20
-27.208430779736815
 30
0.0
 11
34.0
 21
0.0
 31
0.0
 40
0.3185052402724498
 41
3.141592653589793
 42
5.1856084728144065
  0
ELLIPSE
  5
40
330
17
100
AcDbEntity
  8
visible
100
AcDbEllipse
 10
-41.77391853357666
 20
-22.037626637016942
 30
0.0
 11
1.3
 21
0.0
 31
0.0
 40
0.3185052402724498
 41
5.649083048975859
 42
6.283185307179586
  0
ELLIPSE
  5
41
330
17
100
AcDbEntity
  8
visible
100
AcDbEllipse
 10
-41.77391853357666
 20
-22.037626637016942
 30
0.0
 11
1.3
 21
0.0
 31
0.0
 40
0.3185052402724498
 41
0.0
 42
3.141592653589793
  0
ELLIPSE
  5
42
330
17
100
AcDbEntity
  8
visible
100
AcDbEllipse
 10
-41.77391853357666
 20
-22.037626637016942
 30
0.0
 11
1.3
 21
0.0
 31
0.0
 40
0.3185052402724498
 41
3.141592653589793
 42
5.649083048975859
  0
ELLIPSE
  5
43
330
17
100
AcDbEntity
  8
visible
100
AcDbEllipse
 10
-29.92482795539368
 20
-16.9058454118385
 30
0.0
 11
1.3
 21
0.0
 31
0.0
 40
0.3185052402724498
 41
5.649083048975859
 42
6.283185307179586
  0
ELLIPSE
  5
44
330
17
100
AcDbEntity
  8
visible
100
AcDbEllipse
 10
-29.92482795539368
 20
-16.9058454118385
 30
0.0
 11
1.3
 21
0.0
 31
0.0
 40
0.3185052402724498
 41
0.0
 42
3.141592653589793
  0
ELLIPSE
  5
45
330
17
100
AcDbEntity
  8
visible
100
AcDbEllipse
 10
-29.92482795539368
 20
-16.9058454118385
 30
0.0
 11
1.3
 21
0.0
 31
0.0
 40
0.3185052402724498
 41
3.141592653589793
 42
5.649083048975859
  0
LINE
  5
46
330
17
100
AcDbEntity
  8
visible
100
AcDbLine
 10
-36.32587858449355
 20
-25.369626043662322
 30
0.0
 11
-44.04907819167492
 21
-23.56058962764405
 31
0.0
  0
LINE
  5
47
330
17
100
AcDbEntity
  8
visible
100
AcDbLine
 10
26.038460432276395
 20
-39.977478498665775
 30
0.0
 11
12.67603357948943
 21
-36.84754297808246
 31
0.0
  0
ELLIPSE
  5
48
330
17
100
AcDbEntity
  8
visible
100
AcDbEllipse
 10
-40.96831464134734
 20
-22.226326509097653
 30
0.0
 11
-5.2
 21
-0.0
 31
0.0
 40
0.3185052402724498
 41
-6.9172875653833135
 42
-5.346491238588417
  0
ELLIPSE
  5
49
330
17
100
AcDbEntity
  8
visible
100
AcDbEllipse
 10
29.11922398260397
 20
-38.643215380119386
 30
0.0
 11
-5.2
 21
-0.0
 31
0.0
 40
0.3185052402724498
 41
-5.346491238588417
 42
-3.775694911793521
  0
LINE
  5
4A
330
17
100
AcDbEntity
  8
visible
100
AcDbLine
 10
-45.15745488093983
 20
-21.245087174277963
 30
0.0
 11
-33.30836430275685
 21
-16.113305949099523
 31
0.0
  0
LINE
  5
4B
330
17
100
AcDbEntity
  8
visible
100
AcDbLine
 10
45.15745480037945
 20
-34.492673489760634
 30
0.0
 11
33.30836422219647
 21
-39.62445471493908
 31
0.0
  0
ELLIPSE
  5
4C
330
17
100
AcDbEntity
  8
visible
100
AcDbEllipse
 10
-29.11922406316436
 20
-17.094545283919217
 30
0.0
 11
-5.2
 21
-0.0
 31
0.0
 40
0.3185052402724498
 41
-2.2048985849986242
 42
-0.6341022582037276
  0
ELLIPSE
  5
4D
330
17
100
AcDbEntity
  8
visible
100
AcDbEllipse
 10
40.96831456078695
 20
-33.51143415494094
 30
0.0
 11
-5.2
 21
-0.0
 31
0.0
 40
0.3185052402724498
 41
-3.775694911793521
 42
-2.823979974392942
  0
LINE
  5
4E
330
17
100
AcDbEntity
  8
visible
100
AcDbLine
 10
-26.038460512836785
 20
-15.760282165372814
 30
0.0
 11
-18.315260905655414
 21
-17.569318581391087
 31
0.0
  0
ELLIPSE
  5
4F
330
17
100
AcDbEntity
  8
visible
100
AcDbEllipse
 10
-7.559249894356025
 20
-29.261143269808194
 30
0.0
 11
2.25
 21
0.0
 31
0.0
 40
0.3185052402724498
 41
5.649083048975859
 42
6.283185307179586
  0
ELLIPSE
  5
50
330
17
100
AcDbEntity
  8
visible
100
AcDbEllipse
 10
-7.559249894356025
 20
-29.261143269808194
 30
0.0
 11
2.25
 21
0.0
 31
0.0
 40
0.3185052402724498
 41
0.0
 42
3.141592653589793
  0
ELLIPSE
  5
51
330
17
100
AcDbEntity
  8
visible
100
AcDbEllipse
 10
-7.559249894356025
 20
-29.261143269808194
 30
0.0
 11
2.25
 21
0.0
 31
0.0
 40
0.3185052402724498
 41
3.141592653589793
 42
5.649083048975859
  0
LINE
  5
52
330
17
100
AcDbEntity
  8
visible
100
AcDbLine
 10
31.712748771135804
 20
-39.25070722636631
 30
0.0
 11
29.34293065549921
 21
-40.277063471402
 31
0.0
  0
LINE
  5
53
330
17
100
AcDbEntity
  8
visible
100
AcDbLine
 10
23.36586951960421
 20
-38.87703216241609
 30
0.0
 11
29.342930655499202
 21
-40.277063471402
 31
0.0
  0
ELLIPSE
  5
54
330
17
100
AcDbEntity
  8
visible
100
AcDbEllipse
 10
-2.8196136630828335
 20
-27.208430779736815
 30
0.0
 11
2.5
 21
0.0
 31
0.0
 40
0.3185052402724498
 41
5.649083048975859
 42
6.283185307179586
  0
ELLIPSE
  5
55
330
17
100
AcDbEntity
  8
visible
100
AcDbEllipse
 10
-2.8196136630828335
 20
-27.208430779736815
 30
0.0
 11
2.5
 21
0.0
 31
0.0
 40
0.3185052402724498
 41
0.0
 42
3.141592653589793
  0
ELLIPSE
  5
56
330
17
100
AcDbEntity
  8
visible
100
AcDbEllipse
 10
-2.8196136630828335
 20
-27.208430779736815
 30
0.0
 11
2.5
 21
0.0
 31
0.0
 40
0.3185052402724498
 41
3.141592653589793
 42
5.649083048975859
  0
ELLIPSE
  5
57
330
17
100
AcDbEntity
  8
visible
100
AcDbEllipse
 10
1.9200225681903582
 20
-25.155718289665437
 30
0.0
 11
2.25
 21
0.0
 31
0.0
 40
0.3185052402724498
 41
5.649083048975859
 42
6.283185307179586
  0
ELLIPSE
  5
58
330
17
100
AcDbEntity
  8
visible
100
AcDbEllipse
 10
1.9200225681903582
 20
-25.155718289665437
 30
0.0
 11
2.25
 21
0.0
 31
0.0
 40
0.3185052402724498
 41
0.0
 42
3.141592653589793
  0
ELLIPSE
  5
59
330
17
100
AcDbEntity
  8
visible
100
AcDbEllipse
 10
1.9200225681903582
 20
-25.155718289665437
 30
0.0
 11
2.25
 21
0.0
 31
0.0
 40
0.3185052402724498
 41
3.141592653589793
 42
5.649083048975859
  0
ELLIPSE
  5
5A
330
17
100
AcDbEntity
  8
visible
100
AcDbEllipse
 10
21.769095471178765
 20
-37.63321668815591
 30
0.0
 11
-1.7872983346207496
 21
-0.0
 31
0.0
 40
0.3185052402724498
 41
-5.63053903333266
 42
-5.346491238588418
  0
LINE
  5
5B
330
17
100
AcDbEntity
  8
visible
100
AcDbLine
 10
21.99916870588784
 20
-38.39373768535501
 30
0.0
 11
20.710202478320923
 21
-38.09181789002588
 31
0.0
  0
ELLIPSE
  5
5C
330
17
100
AcDbEntity
  8
visible
100
AcDbEllipse
 10
23.058061698745682
 20
-37.93513648348504
 30
0.0
 11
-1.7872983346207496
 21
-0.0
 31
0.0
 40
0.3185052402724498
 41
-5.346491238588417
 42
-4.539306476577431
  0
LINE
  5
5D
330
17
100
AcDbEntity
  8
visible
100
AcDbLine
 10
37.58477821342378
 20
-32.60454567175865
 30
0.0
 11
30.82698128182505
 21
-35.53131335813284
 31
0.0
  0
LINE
  5
5E
330
17
100
AcDbEntity
  8
visible
100
AcDbLine
 10
37.58477821342379
 20
-32.718894692201964
 30
0.0
 11
43.561839349318774
 21
-34.11892600118787
 31
0.0
  0
LINE
  5
5F
330
17
100
AcDbEntity
  8
visible
100
AcDbLine
 10
45.93165746495538
 20
-33.09256975615218
 30
0.0
 11
43.56183934931878
 21
-34.11892600118787
 31
0.0
  0
LINE
  5
60
330
17
100
AcDbEntity
  8
visible
100
AcDbLine
 10
31.712748771135796
 20
-39.25070722636631
 30
0.0
 11
25.89680841368667
 21
-14.829204784071514
 31
0.0
  0
LINE
  5
61
330
17
100
AcDbEntity
  8
visible
100
AcDbLine
 10
23.365869519604207
 20
-15.179004661179448
 30
0.0
 11
23.365869519604207
 21
-38.87703216241609
 31
0.0
  0
LINE
  5
62
330
17
100
AcDbEntity
  8
visible
100
AcDbLine
 10
23.602851331167802
 20
-15.076369036675908
 30
0.0
 11
23.365869519604203
 21
-15.17900466117945
 31
0.0
  0
LINE
  5
63
330
17
100
AcDbEntity
  8
visible
100
AcDbLine
 10
29.342930655499206
 20
-40.277063471402
 30
0.0
 11
23.36586951960421
 21
-15.179004661179448
 31
0.0
  0
SPLINE
  5
64
330
17
100
AcDbEntity
  8
visible
100
AcDbSpline
 70
0
 71
3
 72
11
 73
7
 74
0
 40
0.0
 40
0.0
 40
0.0
 40
0.0
 40
0.5000000000000021
 40
0.5000000000000021
 40
0.5000000000000021
 40
1.0
 40
1.0
 40
1.0
 40
1.0
 10
24.119444826959224
 20
-15.598971967848229
 30
0.0
 10
24.05567795825814
 20
-15.625609106963589
 30
0.0
 10
23.978224342900155
 20
-15.594297101098164
 30
0.0
 10
23.89075331998884
 20
-15.506519346049629
 30
0.0
 10
23.80297929375461
 20
-15.417013459118467
 30
0.0
 10
23.705472175111037
 20
-15.271329445532965
 30
0.0
 10
23.602851331167862
 20
-15.076369036675857
 30
0.0
  0
LINE
  5
65
330
17
100
AcDbEntity
  8
visible
100
AcDbLine
 10
25.89680841368667
 20
-14.829204784071507
 30
0.0
 11
24.119444826959224
 21
-15.598971967848259
 31
0.0
  0
LINE
  5
66
330
17
100
AcDbEntity
  8
visible
100
AcDbLine
 10
21.754661735145557
 20
-37.836087648220044
 30
0.0
 11
20.465695507578637
 21
-37.53416785289091
 31
0.0
  0
LINE
  5
67
330
17
100
AcDbEntity
  8
visible
100
AcDbLine
 10
37.74589899186965
 20
-32.09308989658348
 30
0.0
 11
30.731631523616898
 21
-35.13093367577073
 31
0.0
  0
ELLIPSE
  5
68
330
17
100
AcDbEntity
  8
visible
100
AcDbEllipse
 10
37.10141587808619
 20
-31.942129998918915
 30
0.0
 11
-0.3179386069644352
 21
0.734108331379991
 31
0.0
 40
0.7636489277261533
 41
3.473748413702662
 42
4.196482661515454
  0
LINE
  5
69
330
17
100
AcDbEntity
  8
visible
100
AcDbLine
 10
45.93165746495537
 20
-33.09256975615218
 30
0.0
 11
39.95459632906037
 21
-7.994510945929626
 31
0.0
  0
LINE
  5
6A
330
17
100
AcDbEntity
  8
visible
100
AcDbLine
 10
37.58477821342378
 20
-32.556942620815036
 30
0.0
 11
37.58477821342378
 21
-32.718894692201964
 31
0.0
  0
LINE
  5
6B
330
17
100
AcDbEntity
  8
visible
100
AcDbLine
 10
39.71761451749672
 20
-8.13870492327493
 30
0.0
 11
39.71761451749672
 21
-8.097146570433205
 31
0.0
  0
LINE
  5
6C
330
17
100
AcDbEntity
  8
visible
100
AcDbLine
 10
39.95459632906038
 20
-7.994510945929633
 30
0.0
 11
39.71765868636777
 21
-8.09712744111845
 31
0.0
  0
LINE
  5
6D
330
17
100
AcDbEntity
  8
visible
100
AcDbLine
 10
43.56183934931878
 20
-34.11892600118787
 30
0.0
 11
37.74589899186965
 21
-9.697423558893078
 31
0.0
  0
LINE
  5
6E
330
17
100
AcDbEntity
  8
visible
100
AcDbLine
 10
37.74589899186965
 20
-9.697423558893064
 30
0.0
 11
37.74589899186965
 21
-32.09308989658347
 31
0.0
  0
LINE
  5
6F
330
17
100
AcDbEntity
  8
visible
100
AcDbLine
 10
39.5232625785971
 20
-8.927656375116285
 30
0.0
 11
37.74589899186965
 21
-9.697423558893066
 31
0.0
  0
SPLINE
  5
70
330
17
100
AcDbEntity
  8
visible
100
AcDbSpline
 70
0
 71
1
 72
4
 73
2
 74
0
 40
0.0
 40
0.0
 40
1.0
 40
1.0
 10
39.71761451749671
 20
-8.097146570433182
 30
0.0
 10
39.71765868636777
 20
-8.118039400641493
 30
0.0
  0
SPLINE
  5
71
330
17
100
AcDbEntity
  8
visible
100
AcDbSpline
 70
0
 71
3
 72
11
 73
7
 74
0
 40
0.0
 40
0.0
 40
0.0
 40
0.0
 40
0.5000000000000021
 40
0.5000000000000021
 40
0.5000000000000021
 40
1.0
 40
1.0
 40
1.0
 40
1.0
 10
39.71765868636778
 20
-8.118039400641493
 30
0.0
 10
39.71740298856023
 20
-8.35108403792743
 30
0.0
 10
39.70053047440876
 20
-8.541003872782339
 30
0.0
 10
39.66781759208549
 20
-8.679059075012006
 30
0.0
 10
39.6346188026642
 20
-8.815511469011282
 30
0.0
 10
39.585683149346934
 20
-8.899668157872819
 30
0.0
 10
39.5232625785971
 20
-8.927656375116257
 30
0.0
  0
ELLIPSE
  5
72
330
17
100
AcDbEntity
  8
visible
100
AcDbEllipse
 10
-2.8196136630828335
 20
-42.564752600538164
 30
0.0
 11
12.4
 21
0.0
 31
0.0
 40
0.3185052402724498
 41
4.381289042674822
 42
5.649083048975859
  0
LINE
  5
73
330
17
100
AcDbEntity
  8
visible
100
AcDbLine
 10
-6.850648068726951
 20
-46.29970374882119
 30
0.0
 11
-6.850648068726951
 21
-44.11948521870742
 31
0.0
  0
ELLIPSE
  5
74
330
17
100
AcDbEntity
  8
visible
100
AcDbEllipse
 10
-2.8196136630828335
 20
-40.384534070424394
 30
0.0
 11
12.4
 21
0.0
 31
0.0
 40
0.3185052402724498
 41
4.258134309478632
 42
4.381289042674822
  0
LINE
  5
75
330
17
100
AcDbEntity
  8
visible
100
AcDbLine
 10
-8.260643040479472
 20
-46.1136957119102
 30
0.0
 11
-8.260643040479472
 21
-43.93347718179643
 31
0.0
  0
ELLIPSE
  5
76
330
17
100
AcDbEntity
  8
visible
100
AcDbEllipse
 10
-2.8196136630828335
 20
-42.564752600538164
 30
0.0
 11
12.4
 21
0.0
 31
0.0
 40
0.3185052402724498
 41
3.8984391348832923
 42
4.258134309478631
  0
LINE
  5
77
330
17
100
AcDbEntity
  8
visible
100
AcDbLine
 10
-11.834474791069429
 20
-45.27658258388383
 30
0.0
 11
-11.834474791069429
 21
-43.337549598507046
 31
0.0
  0
LINE
  5
78
330
17
100
AcDbEntity
  8
visible
100
AcDbLine
 10
-12.812116871223958
 20
-44.90332469542394
 30
0.0
 11
-12.812116871223958
 21
-43.24688707940317
 31
0.0
  0
ELLIPSE
  5
79
330
17
100
AcDbEntity
  8
visible
100
AcDbEllipse
 10
-2.8196136630828335
 20
-42.564752600538164
 30
0.0
 11
12.4
 21
0.0
 31
0.0
 40
0.3185052402724498
 41
3.248999372516116
 42
3.7752844016871028
  0
ELLIPSE
  5
7A
330
17
100
AcDbEntity
  8
visible
100
AcDbEllipse
 10
-2.8196136630828335
 20
-42.564752600538164
 30
0.0
 11
12.4
 21
0.0
 31
0.0
 40
0.3185052402724498
 41
5.649083048975859
 42
6.175778588253263
  0
LINE
  5
7B
330
17
100
AcDbEntity
  8
visible
100
AcDbLine
 10
39.5232625785971
 20
-8.92765637511629
 30
0.0
 11
39.5232625785971
 21
-5.919037231481026
 31
0.0
  0
LINE
  5
7C
330
17
100
AcDbEntity
  8
visible
100
AcDbLine
 10
39.5232625785971
 20
-5.919037231481028
 30
0.0
 11
38.81231714390612
 21
-6.226944104991734
 31
0.0
  0
LINE
  5
7D
330
17
100
AcDbEntity
  8
visible
100
AcDbLine
 10
38.81231714390612
 20
-6.226944104991734
 30
0.0
 11
38.81231714390612
 21
34.53366319713529
 31
0.0
  0
LINE
  5
7E
330
17
100
AcDbEntity
  8
visible
100
AcDbLine
 10
39.5232625785971
 20
34.841570070646
 30
0.0
 11
38.81231714390612
 21
34.5336631971353
 31
0.0
  0
LINE
  5
7F
330
17
100
AcDbEntity
  8
visible
100
AcDbLine
 10
39.5232625785971
 20
34.84157007064601
 30
0.0
 11
39.5232625785971
 21
38.633254470843866
 31
0.0
  0
LINE
  5
80
330
17
100
AcDbEntity
  8
visible
100
AcDbLine
 10
24.119444826959224
 20
-15.598971967848263
 30
0.0
 11
24.119444826959224
 21
-12.590352824212998
 31
0.0
  0
LINE
  5
81
330
17
100
AcDbEntity
  8
visible
100
AcDbLine
 10
39.5232625785971
 20
38.633254470843866
 30
0.0
 11
24.119444826959224
 21
31.961938878111894
 31
0.0
  0
LINE
  5
82
330
17
100
AcDbEntity
  8
visible
100
AcDbLine
 10
24.830390261650205
 20
-12.282445950702293
 30
0.0
 11
24.119444826959224
 21
-12.590352824213
 31
0.0
  0
LINE
  5
83
330
17
100
AcDbEntity
  8
visible
100
AcDbLine
 10
24.119444826959224
 20
28.170254477914032
 30
0.0
 11
24.119444826959224
 21
31.961938878111894
 31
0.0
  0
LINE
  5
84
330
17
100
AcDbEntity
  8
visible
100
AcDbLine
 10
24.8303902616502
 20
-12.282445950702293
 30
0.0
 11
24.8303902616502
 21
28.47816135142473
 31
0.0
  0
LINE
  5
85
330
17
100
AcDbEntity
  8
visible
100
AcDbLine
 10
24.830390261650205
 20
28.478161351424735
 30
0.0
 11
24.119444826959224
 21
28.17025447791403
 31
0.0
  0
ELLIPSE
  5
86
330
17
100
AcDbEntity
  8
visible
100
AcDbEllipse
 10
37.1534444629605
 20
-8.84123567661564
 30
0.0
 11
-0.20525511814998132
 21
-0.8762821100953946
 31
0.0
 40
0.5616001487728485
 41
0.3951460967592486
 42
3.141592653589793
  0
ELLIPSE
  5
87
330
17
100
AcDbEntity
  8
visible
100
AcDbEllipse
 10
37.1534444629605
 20
-8.84123567661564
 30
0.0
 11
-0.20525511814998132
 21
-0.8762821100953946
 31
0.0
 40
0.5616001487728485
 41
3.141592653589793
 42
6.283185307179586
  0
ELLIPSE
  5
88
330
17
100
AcDbEntity
  8
visible
100
AcDbEllipse
 10
37.1534444629605
 20
-8.84123567661564
 30
0.0
 11
-0.20525511814998132
 21
-0.8762821100953946
 31
0.0
 40
0.5616001487728485
 41
0.0
 42
0.39514609675924817
  0
ELLIPSE
  5
89
330
17
100
AcDbEntity
  8
visible
100
AcDbEllipse
 10
37.1534444629605
 20
35.71105602570924
 30
0.0
 11
-0.20525511814998132
 21
-0.8762821100953946
 31
0.0
 40
0.5616001487728485
 41
0.3951460967592486
 42
3.141592653589793
  0
ELLIPSE
  5
8A
330
17
100
AcDbEntity
  8
visible
100
AcDbEllipse
 10
37.1534444629605
 20
35.71105602570924
 30
0.0
 11
-0.20525511814998132
 21
-0.8762821100953946
 31
0.0
 40
0.5616001487728485
 41
3.141592653589793
 42
6.283185307179586
  0
ELLIPSE
  5
8B
330
17
100
AcDbEntity
  8
visible
100
AcDbEllipse
 10
37.1534444629605
 20
35.71105602570924
 30
0.0
 11
-0.20525511814998132
 21
-0.8762821100953946
 31
0.0
 40
0.5616001487728485
 41
0.0
 42
0.39514609675924817
  0
ELLIPSE
  5
8C
330
17
100
AcDbEntity
  8
visible
100
AcDbEllipse
 10
31.82135370277816
 20
3.0682792727960333
 30
0.0
 11
-0.2622704287471983
 21
-1.1196938073441152
 31
0.0
 40
0.5616001487728485
 41
0.3951460967592486
 42
3.141592653589793
  0
ELLIPSE
  5
8D
330
17
100
AcDbEntity
  8
visible
100
AcDbEllipse
 10
31.82135370277816
 20
3.0682792727960333
 30
0.0
 11
-0.2622704287471983
 21
-1.1196938073441152
 31
0.0
 40
0.5616001487728485
 41
3.141592653589793
 42
6.283185307179586
  0
ELLIPSE
  5
8E
330
17
100
AcDbEntity
  8
visible
100
AcDbEllipse
 10
31.82135370277816
 20
3.0682792727960333
 30
0.0
 11
-0.2622704287471983
 21
-1.1196938073441152
 31
0.0
 40
0.5616001487728485
 41
0.0
 42
0.39514609675924817
  0
ELLIPSE
  5
8F
330
17
100
AcDbEntity
  8
visible
100
AcDbEllipse
 10
26.489262942595822
 20
-13.45983877927624
 30
0.0
 11
-0.20525511814998132
 21
-0.8762821100953946
 31
0.0
 40
0.5616001487728485
 41
0.3951460967592486
 42
3.141592653589793
  0
ELLIPSE
  5
90
330
17
100
AcDbEntity
  8
visible
100
AcDbEllipse
 10
26.489262942595822
 20
-13.45983877927624
 30
0.0
 11
-0.20525511814998132
 21
-0.8762821100953946
 31
0.0
 40
0.5616001487728485
 41
3.141592653589793
 42
6.283185307179586
  0
ELLIPSE
  5
91
330
17
100
AcDbEntity
  8
visible
100
AcDbEllipse
 10
26.489262942595822
 20
-13.45983877927624
 30
0.0
 11
-0.20525511814998132
 21
-0.8762821100953946
 31
0.0
 40
0.5616001487728485
 41
0.0
 42
0.39514609675924817
  0
LINE
  5
92
330
17
100
AcDbEntity
  8
visible
100
AcDbLine
 10
35.642685414242166
 20
6.761309083022452
 30
0.0
 11
28.00002199131415
 21
3.4513101927823593
 31
0.0
  0
LINE
  5
93
330
17
100
AcDbEntity
  8
visible
100
AcDbLine
 10
35.64268541424217
 20
6.761309083022439
 30
0.0
 11
35.64268541424217
 21
29.227039154194784
 31
0.0
  0
LINE
  5
94
330
17
100
AcDbEntity
  8
visible
100
AcDbLine
 10
28.00002199131415
 20
3.451310192782344
 30
0.0
 11
28.00002199131415
 21
25.91704026395469
 31
0.0
  0
LINE
  5
95
330
17
100
AcDbEntity
  8
visible
100
AcDbLine
 10
35.642685414242166
 20
29.2270391541948
 30
0.0
 11
28.00002199131415
 21
25.917040263954704
 31
0.0
  0
ELLIPSE
  5
96
330
17
100
AcDbEntity
  8
visible
100
AcDbEllipse
 10
31.82135370277816
 20
29.61007007418108
 30
0.0
 11
-0.2622704287471983
 21
-1.1196938073441152
 31
0.0
 40
0.5616001487728485
 41
0.3951460967592486
 42
3.141592653589793
  0
ELLIPSE
  5
97
330
17
100
AcDbEntity
  8
visible
100
AcDbEllipse
 10
31.82135370277816
 20
29.61007007418108
 30
0.0
 11
-0.2622704287471983
 21
-1.1196938073441152
 31
0.0
 40
0.5616001487728485
 41
3.141592653589793
 42
6.283185307179586
  0
ELLIPSE
  5
98
330
17
100
AcDbEntity
  8
visible
100
AcDbEllipse
 10
31.82135370277816
 20
29.61007007418108
 30
0.0
 11
-0.2622704287471983
 21
-1.1196938073441152
 31
0.0
 40
0.5616001487728485
 41
0.0
 42
0.39514609675924817
  0
ELLIPSE
  5
99
330
17
100
AcDbEntity
  8
visible
100
AcDbEllipse
 10
26.489262942595822
 20
31.09245292304864
 30
0.0
 11
-0.20525511814998132
 21
-0.8762821100953946
 31
0.0
 40
0.5616001487728485
 41
0.3951460967592486
 42
3.141592653589793
  0
ELLIPSE
  5
9A
330
17
100
AcDbEntity
  8
visible
100
AcDbEllipse
 10
26.489262942595822
 20
31.09245292304864
 30
0.0
 11
-0.20525511814998132
 21
-0.8762821100953946
 31
0.0
 40
0.5616001487728485
 41
3.141592653589793
 42
6.283185307179586
  0
ELLIPSE
  5
9B
330
17
100
AcDbEntity
  8
visible
100
AcDbEllipse
 10
26.489262942595822
 20
31.09245292304864
 30
0.0
 11
-0.20525511814998132
 21
-0.8762821100953946
 31
0.0
 40
0.5616001487728485
 41
0.0
 42
0.39514609675924817
  0
LINE
  5
9C
330
17
100
AcDbEntity
  8
visible
100
AcDbLine
 10
22.72138640582075
 20
-16.44992641358908
 30
0.0
 11
22.72138640582075
 21
-12.658242013391215
 31
0.0
  0
SPLINE
  5
9D
330
17
100
AcDbEntity
  8
visible
100
AcDbSpline
 70
0
 71
3
 72
8
 73
4
 74
0
 40
0.0
 40
0.0
 40
0.0
 40
0.0
 40
0.9291547011838882
 40
0.9291547011838882
 40
0.9291547011838882
 40
0.9291547011838882
 10
21.754661735145568
 20
-16.223486567092237
 30
0.0
 10
22.063250954621495
 20
-16.467802414475326
 30
0.0
 10
22.437616994940733
 20
-16.697001510374548
 30
0.0
 10
22.840626632811045
 20
-16.79370874547818
 30
0.0
  0
SPLINE
  5
9E
330
17
100
AcDbEntity
  8
visible
100
AcDbSpline
 70
0
 71
1
 72
4
 73
2
 74
0
 40
0.0
 40
0.0
 40
1.0
 40
1.0
 10
22.840626632811045
 20
-16.793708745478177
 30
0.0
 10
22.88897944036767
 20
-16.804284673405682
 30
0.0
  0
LINE
  5
9F
330
17
100
AcDbEntity
  8
visible
100
AcDbLine
 10
21.754661735145557
 20
-37.836087648220044
 30
0.0
 11
21.754661735145557
 21
-16.223486567092223
 31
0.0
  0
SPLINE
  5
A0
330
17
100
AcDbEntity
  8
visible
100
AcDbSpline
 70
0
 71
3
 72
8
 73
4
 74
0
 40
0.0
 40
0.0
 40
0.0
 40
0.0
 40
0.9291547011836931
 40
0.9291547011836931
 40
0.9291547011836931
 40
0.9291547011836931
 10
20.46569550757863
 20
-15.921566771763095
 30
0.0
 10
20.15671971134805
 20
-16.021227856937056
 30
0.0
 10
19.90249614506205
 20
-16.103189855917957
 30
0.0
 10
19.74412393366941
 20
-16.068402340107355
 30
0.0
  0
SPLINE
  5
A1
330
17
100
AcDbEntity
  8
visible
100
AcDbSpline
 70
0
 71
1
 72
4
 73
2
 74
0
 40
0.0
 40
0.0
 40
1.0
 40
1.0
 10
19.744123933669414
 20
-16.068402340107355
 30
0.0
 10
19.709938626863092
 20
-16.057662841576956
 30
0.0
  0
LINE
  5
A2
330
17
100
AcDbEntity
  8
visible
100
AcDbLine
 10
20.46569550757864
 20
-37.53416785289091
 30
0.0
 11
20.46569550757864
 21
-15.92156677176309
 31
0.0
  0
LINE
  5
A3
330
17
100
AcDbEntity
  8
visible
100
AcDbLine
 10
20.46569550757864
 20
-15.921566771763096
 30
0.0
 11
19.498970836903446
 21
-15.695126925266244
 31
0.0
  0
LINE
  5
A4
330
17
100
AcDbEntity
  8
visible
100
AcDbLine
 10
19.498970836903446
 20
-15.695126925266246
 30
0.0
 11
19.498970836903446
 21
-11.903442525068384
 31
0.0
  0
LINE
  5
A5
330
17
100
AcDbEntity
  8
visible
100
AcDbLine
 10
20.46569550757864
 20
-12.12988237156523
 30
0.0
 11
19.498970836903446
 21
-11.903442525068378
 31
0.0
  0
LINE
  5
A6
330
17
100
AcDbEntity
  8
visible
100
AcDbLine
 10
20.46569550757864
 20
-12.129882371565227
 30
0.0
 11
20.46569550757864
 21
28.630724930561797
 31
0.0
  0
LINE
  5
A7
330
17
100
AcDbEntity
  8
visible
100
AcDbLine
 10
20.46569550757864
 20
28.630724930561797
 30
0.0
 11
19.498970836903446
 21
28.85716477705865
 31
0.0
  0
LINE
  5
A8
330
17
100
AcDbEntity
  8
visible
100
AcDbLine
 10
19.498970836903446
 20
28.85716477705866
 30
0.0
 11
19.498970836903446
 21
32.64884917725652
 31
0.0
  0
LINE
  5
A9
330
17
100
AcDbEntity
  8
visible
100
AcDbLine
 10
22.72138640582075
 20
31.894049688933677
 30
0.0
 11
19.498970836903446
 21
32.648849177256515
 31
0.0
  0
LINE
  5
AA
330
17
100
AcDbEntity
  8
visible
100
AcDbLine
 10
22.72138640582075
 20
28.102365288735815
 30
0.0
 11
22.72138640582075
 21
31.894049688933677
 31
0.0
  0
LINE
  5
AB
330
17
100
AcDbEntity
  8
visible
100
AcDbLine
 10
22.72138640582075
 20
28.10236528873581
 30
0.0
 11
21.754661735145557
 21
28.328805135232663
 31
0.0
  0
LINE
  5
AC
330
17
100
AcDbEntity
  8
visible
100
AcDbLine
 10
21.754661735145557
 20
-12.43180216689436
 30
0.0
 11
21.754661735145557
 21
28.328805135232663
 31
0.0
  0
LINE
  5
AD
330
17
100
AcDbEntity
  8
visible
100
AcDbLine
 10
22.72138640582075
 20
-12.658242013391217
 30
0.0
 11
21.754661735145557
 21
-12.431802166894364
 31
0.0
  0
LINE
  5
AE
330
17
100
AcDbEntity
  8
visible
100
AcDbLine
 10
22.72138640582075
 20
-16.449926413589083
 30
0.0
 11
21.754661735145557
 21
-16.22348656709223
 31
0.0
  0
LINE
  5
AF
330
17
100
AcDbEntity
  8
visible
100
AcDbLine
 10
30.809062060866218
 20
7.893508315506693
 30
0.0
 11
30.809062060866218
 21
27.13362131670177
 31
0.0
  0
ELLIPSE
  5
B0
330
17
100
AcDbEntity
  8
visible
100
AcDbEllipse
 10
26.987730349402206
 20
4.200478505280287
 30
0.0
 11
-0.5131377953749539
 21
-2.1907052752384866
 31
0.0
 40
0.5616001487728485
 41
2.4916723654258988
 42
2.674354998505658
  0
LINE
  5
B1
330
17
100
AcDbEntity
  8
visible
100
AcDbLine
 10
30.80906206086621
 20
7.893508315506706
 30
0.0
 11
28.00002199131415
 21
6.676927262759637
 31
0.0
  0
LINE
  5
B2
330
17
100
AcDbEntity
  8
visible
100
AcDbLine
 10
-12.812116871223958
 20
-44.90332469542394
 30
0.0
 11
-11.834474791069429
 21
-44.47991285307386
 31
0.0
  0
SPLINE
  5
B3
330
17
100
AcDbEntity
  8
visible
100
AcDbSpline
 70
0
 71
3
 72
8
 73
4
 74
0
 40
0.0
 40
0.0
 40
0.0
 40
0.0
 40
0.999997794827314
 40
0.999997794827314
 40
0.999997794827314
 40
0.999997794827314
 10
38.812317143906114
 20
-6.22694405657326
 30
0.0
 10
39.05702346665063
 20
-5.936975225654278
 30
0.0
 10
39.2115432019659
 20
-5.608050022759704
 30
0.0
 10
39.23639419556783
 20
-5.397937885276161
 30
0.0
  0
SPLINE
  5
B4
330
17
100
AcDbEntity
  8
visible
100
AcDbSpline
 70
0
 71
3
 72
8
 73
4
 74
0
 40
0.0
 40
0.0
 40
0.0
 40
0.0
 40
0.843608117443896
 40
0.843608117443896
 40
0.843608117443896
 40
0.843608117443896
 10
38.81231714390612
 20
34.533663148716784
 30
0.0
 10
39.01896847898895
 20
34.46635143400862
 30
0.0
 10
39.160699194107636
 20
34.409976543653976
 30
0.0
 10
39.21545896553593
 20
34.432184595108254
 30
0.0
  0
SPLINE
  5
B5
330
17
100
AcDbEntity
  8
visible
100
AcDbSpline
 70
0
 71
2
 72
6
 73
3
 74
0
 40
0.0
 40
0.0
 40
0.0
 40
0.13132296942574512
 40
0.13132296942574512
 40
0.13132296942574512
 10
39.23639419556781
 20
-5.39793788527615
 30
0.0
 10
39.24000278511252
 20
-5.368140716557628
 30
0.0
 10
39.23998857924112
 20
-5.344197277457037
 30
0.0
  0
SPLINE
  5
B6
330
17
100
AcDbEntity
  8
visible
100
AcDbSpline
 70
0
 71
3
 72
8
 73
4
 74
0
 40
0.0
 40
0.0
 40
0.0
 40
0.0
 40
0.9999977948273049
 40
0.9999977948273049
 40
0.9999977948273049
 40
0.9999977948273049
 10
24.830390261650205
 20
-12.282445902283811
 30
0.0
 10
24.586774611622918
 20
-12.203966844447493
 30
0.0
 10
24.241347445641367
 20
-12.091566122120387
 30
0.0
 10
23.832576443929963
 20
-12.069253478008143
 30
0.0
  0
SPLINE
  5
B7
330
17
100
AcDbEntity
  8
visible
100
AcDbSpline
 70
0
 71
3
 72
8
 73
4
 74
0
 40
0.0
 40
0.0
 40
0.0
 40
0.0
 40
0.843608120825283
 40
0.843608120825283
 40
0.843608120825283
 40
0.843608120825283
 10
24.830390261650205
 20
28.47816130300623
 30
0.0
 10
24.623788975464027
 20
28.231871989115778
 30
0.0
 10
24.348474555772555
 20
27.994876929631978
 30
0.0
 10
24.01906781029354
 20
27.850704412609794
 30
0.0
  0
SPLINE
  5
B8
330
17
100
AcDbEntity
  8
visible
100
AcDbSpline
 70
0
 71
1
 72
4
 73
2
 74
0
 40
0.0
 40
0.0
 40
1.0
 40
1.0
 10
24.01906781029354
 20
27.850704412609794
 30
0.0
 10
23.945364669905604
 20
27.82089031369982
 30
0.0
  0
SPLINE
  5
B9
330
17
100
AcDbEntity
  8
visible
100
AcDbSpline
 70
0
 71
3
 72
8
 73
4
 74
0
 40
0.0
 40
0.0
 40
0.0
 40
0.0
 40
0.9291547011837368
 40
0.9291547011837368
 40
0.9291547011837368
 40
0.9291547011837368
 10
21.754661735145564
 20
28.328805135232656
 30
0.0
 10
22.06325095462406
 20
28.084489287847685
 30
0.0
 10
22.437616994940306
 20
27.855290191950914
 30
0.0
 10
22.840626632811027
 20
27.758582956846702
 30
0.0
  0
SPLINE
  5
BA
330
17
100
AcDbEntity
  8
visible
100
AcDbSpline
 70
0
 71
1
 72
4
 73
2
 74
0
 40
0.0
 40
0.0
 40
1.0
 40
1.0
 10
22.840626632811023
 20
27.758582956846702
 30
0.0
 10
22.888979440367777
 20
27.74800702891916
 30
0.0
  0
SPLINE
  5
BB
330
17
100
AcDbEntity
  8
visible
100
AcDbSpline
 70
0
 71
3
 72
8
 73
4
 74
0
 40
0.0
 40
0.0
 40
0.0
 40
0.0
 40
0.9999977944877785
 40
0.9999977944877785
 40
0.9999977944877785
 40
0.9999977944877785
 10
21.754661735145564
 20
-12.431802166894371
 30
0.0
 10
22.086058128849253
 20
-12.325454831684505
 30
0.0
 10
22.496471991064887
 20
-12.176270949519438
 30
0.0
 10
22.932354195780427
 20
-12.112967930553896
 30
0.0
  0
SPLINE
  5
BC
330
17
100
AcDbEntity
  8
visible
100
AcDbSpline
 70
0
 71
3
 72
11
 73
7
 74
0
 40
0.0
 40
0.0
 40
0.0
 40
0.0
 40
0.5001353010959879
 40
0.5001353010959879
 40
0.5001353010959879
 40
1.0
 40
1.0
 40
1.0
 40
1.0
 10
22.93235419578043
 20
-12.112967930553893
 30
0.0
 10
23.094583793514634
 20
-12.091651957617788
 30
0.0
 10
23.247249586446138
 20
-12.094093200059795
 30
0.0
 10
23.38975516308853
 20
-12.086055525208266
 30
0.0
 10
23.53218552826955
 20
-12.080249954616676
 30
0.0
 10
23.68053400846878
 20
-12.063203427347219
 30
0.0
 10
23.832576443929945
 20
-12.069253478008122
 30
0.0
  0
LINE
  5
BD
330
17
100
AcDbEntity
  8
visible
100
AcDbLine
 10
30.809062060866218
 20
7.893508315506711
 30
0.0
 11
35.64268541424217
 21
6.7613090830224545
 31
0.0
  0
LINE
  5
BE
330
17
100
AcDbEntity
  8
visible
100
AcDbLine
 10
28.00002199131415
 20
5.739142143926283
 30
0.0
 11
28.04482747986732
 21
5.728647172340308
 31
0.0
  0
LINE
  5
BF
330
17
100
AcDbEntity
  8
visible
100
AcDbLine
 10
28.044827479867315
 20
5.728647172340307
 30
0.0
 11
28.83080723096266
 21
6.069051028942441
 31
0.0
  0
LINE
  5
C0
330
17
100
AcDbEntity
  8
visible
100
AcDbLine
 10
28.00002199131415
 20
6.26364923031706
 30
0.0
 11
28.83080723096266
 21
6.069051028942445
 31
0.0
  0
SPLINE
  5
C1
330
17
100
AcDbEntity
  8
visible
100
AcDbSpline
 70
0
 71
3
 72
8
 73
4
 74
0
 40
0.0
 40
0.0
 40
0.0
 40
0.0
 40
0.9999977944877785
 40
0.9999977944877785
 40
0.9999977944877785
 40
0.9999977944877785
 10
20.465695507578634
 20
-12.12988237156523
 30
0.0
 10
20.133450242944164
 20
-11.868087554976782
 30
0.0
 10
19.86350399251137
 20
-11.559540159968797
 30
0.0
 10
19.709938626863096
 20
-11.358168442231058
 30
0.0
  0
SPLINE
  5
C2
330
17
100
AcDbEntity
  8
visible
100
AcDbSpline
 70
0
 71
3
 72
8
 73
4
 74
0
 40
0.0
 40
0.0
 40
0.0
 40
0.0
 40
0.9291547011838028
 40
0.9291547011838028
 40
0.9291547011838028
 40
0.9291547011838028
 10
20.465695507578634
 20
28.630724930561797
 30
0.0
 10
20.15671971134586
 20
28.531063845387035
 30
0.0
 10
19.902496145062308
 20
28.44910184640724
 30
0.0
 10
19.74412393366942
 20
28.48388936221754
 30
0.0
  0
SPLINE
  5
C3
330
17
100
AcDbEntity
  8
visible
100
AcDbSpline
 70
0
 71
1
 72
4
 73
2
 74
0
 40
0.0
 40
0.0
 40
1.0
 40
1.0
 10
19.744123933669414
 20
28.48388936221754
 30
0.0
 10
19.70993862686312
 20
28.49462886074793
 30
0.0
  0
SPLINE
  5
C4
330
17
100
AcDbEntity
  8
visible
100
AcDbSpline
 70
0
 71
2
 72
6
 73
3
 74
0
 40
0.0
 40
0.0
 40
0.0
 40
0.13132296942569516
 40
0.13132296942569516
 40
0.13132296942569516
 10
19.572689856612545
 20
-11.07144293878558
 30
0.0
 10
19.569081267067855
 20
-11.08199296929008
 30
0.0
 10
19.56909547293923
 20
-11.097779327651502
 30
0.0
  0
SPLINE
  5
C5
330
17
100
AcDbEntity
  8
visible
100
AcDbSpline
 70
0
 71
3
 72
11
 73
7
 74
0
 40
0.0
 40
0.0
 40
0.0
 40
0.0
 40
0.42456784131432074
 40
0.42456784131432074
 40
0.42456784131432074
 40
1.0
 40
1.0
 40
1.0
 40
1.0
 10
19.56909547293923
 20
-11.097779327651502
 30
0.0
 10
19.569471111000535
 20
-11.12899368503929
 30
0.0
 10
19.57785391319632
 20
-11.16209397838224
 30
0.0
 10
19.594243879526537
 20
-11.197080207680344
 30
0.0
 10
19.615957674822695
 20
-11.243555412360868
 30
0.0
 10
19.652837436390737
 20
-11.285505050740728
 30
0.0
 10
19.709938626863128
 20
-11.358168442231047
 30
0.0
  0
LINE
  5
C6
330
17
100
AcDbEntity
  8
visible
100
AcDbLine
 10
25.564496809149077
 20
-45.111939467930135
 30
0.0
 11
11.869230641250544
 21
-41.90404164255807
 31
0.0
  0
ELLIPSE
  5
C7
330
17
100
AcDbEntity
  8
visible
100
AcDbEllipse
 10
26.038460432276395
 20
-44.906668218922995
 30
0.0
 11
-0.1824489939110947
 21
-0.7789174311959064
 31
0.0
 40
0.5616001487728485
 41
5.107535077143939
 42
6.283185307179586
  0
ELLIPSE
  5
C8
330
17
100
AcDbEntity
  8
visible
100
AcDbEllipse
 10
29.11922398260397
 20
-43.5724051003766
 30
0.0
 11
-6.0
 21
-0.0
 31
0.0
 40
0.3185052402724498
 41
-5.346491238588417
 42
-4.505422568020487
  0
ELLIPSE
  5
C9
330
17
100
AcDbEntity
  8
visible
100
AcDbEllipse
 10
33.30836422219647
 20
-44.55364443519629
 30
0.0
 11
0.3179386069644352
 21
-0.734108331379991
 31
0.0
 40
0.7636489277261533
 41
-6.283185307179586
 42
-5.228295299253926
  0
ELLIPSE
  5
CA
330
17
100
AcDbEntity
  8
visible
100
AcDbEllipse
 10
29.11922398260397
 20
-43.5724051003766
 30
0.0
 11
-6.0
 21
-0.0
 31
0.0
 40
0.3185052402724498
 41
-4.429519421412005
 42
-3.775694911793521
  0
ELLIPSE
  5
CB
330
17
100
AcDbEntity
  8
visible
100
AcDbEllipse
 10
45.15745480037945
 20
-39.421863210017854
 30
0.0
 11
0.3179386069644352
 21
-0.734108331379991
 31
0.0
 40
0.7636489277261533
 41
-6.283185307179586
 42
-5.228295299253926
  0
LINE
  5
CC
330
17
100
AcDbEntity
  8
visible
100
AcDbLine
 10
45.8019379141629
 20
-39.572823107682424
 30
0.0
 11
33.95284733597992
 21
-44.70460433286087
 31
0.0
  0
ELLIPSE
  5
CD
330
17
100
AcDbEntity
  8
visible
100
AcDbEllipse
 10
40.96831456078695
 20
-38.44062387519816
 30
0.0
 11
-6.0
 21
-0.0
 31
0.0
 40
0.3185052402724498
 41
-3.141592653589793
 42
-3.1218704021750368
  0
ELLIPSE
  5
CE
330
17
100
AcDbEntity
  8
visible
100
AcDbEllipse
 10
40.96831456078695
 20
-38.44062387519816
 30
0.0
 11
-6.0
 21
-0.0
 31
0.0
 40
0.3185052402724498
 41
-3.775694911793521
 42
-3.141592653589793
  0
ELLIPSE
  5
CF
330
17
100
AcDbEntity
  8
visible
100
AcDbEllipse
 10
-44.049078191674916
 20
-28.48977934790127
 30
0.0
 11
-0.1824489939110947
 21
-0.7789174311959064
 31
0.0
 40
0.5616001487728485
 41
5.107535077143939
 42
6.283185307179586
  0
ELLIPSE
  5
D0
330
17
100
AcDbEntity
  8
visible
100
AcDbEllipse
 10
-40.96831464134734
 20
-27.155516229354873
 30
0.0
 11
-6.0
 21
-0.0
 31
0.0
 40
0.3185052402724498
 41
-6.283185307179586
 42
-5.346491238588417
  0
LINE
  5
D1
330
17
100
AcDbEntity
  8
visible
100
AcDbLine
 10
-36.81961366308284
 20
-30.499455864601167
 30
0.0
 11
-44.52304181480224
 21
-28.69505059690841
 31
0.0
  0
LINE
  5
D2
330
17
100
AcDbEntity
  8
visible
100
AcDbLine
 10
25.564496809149077
 20
-45.111939467930135
 30
0.0
 11
25.564496809149077
 21
-40.94108662771249
 31
0.0
  0
LINE
  5
D3
330
17
100
AcDbEntity
  8
visible
100
AcDbLine
 10
25.564496809149077
 20
-40.94108662771249
 30
0.0
 11
11.869230641250544
 21
-37.73318880234042
 31
0.0
  0
LINE
  5
D4
330
17
100
AcDbEntity
  8
visible
100
AcDbLine
 10
33.95284733597992
 20
-44.70460433286086
 30
0.0
 11
33.95284733597992
 21
-40.53375149264321
 31
0.0
  0
ELLIPSE
  5
D5
330
17
100
AcDbEntity
  8
visible
100
AcDbEllipse
 10
29.11922398260397
 20
-39.40155226015895
 30
0.0
 11
-6.0
 21
-0.0
 31
0.0
 40
0.3185052402724498
 41
-5.346491238588417
 42
-3.775694911793521
  0
LINE
  5
D6
330
17
100
AcDbEntity
  8
visible
100
AcDbLine
 10
45.8019379141629
 20
-35.401970267464776
 30
0.0
 11
33.95284733597992
 21
-40.53375149264322
 31
0.0
  0
LINE
  5
D7
330
17
100
AcDbEntity
  8
visible
100
AcDbLine
 10
45.8019379141629
 20
-39.57282310768242
 30
0.0
 11
45.8019379141629
 21
-35.40197026746477
 31
0.0
  0
ELLIPSE
  5
D8
330
17
100
AcDbEntity
  8
visible
100
AcDbEllipse
 10
40.96831456078695
 20
-34.269771034980515
 30
0.0
 11
-6.0
 21
-0.0
 31
0.0
 40
0.3185052402724498
 41
-3.775694911793521
 42
-3.141592653589793
  0
ELLIPSE
  5
D9
330
17
100
AcDbEntity
  8
visible
100
AcDbEllipse
 10
-26.038460512836785
 20
-16.518619045412393
 30
0.0
 11
-0.1824489939110947
 21
-0.7789174311959064
 31
0.0
 40
0.5616001487728485
 41
3.141592653589793
 42
3.536738750349042
  0
ELLIPSE
  5
DA
330
17
100
AcDbEntity
  8
visible
100
AcDbEllipse
 10
-40.96831464134734
 20
-22.984663389137225
 30
0.0
 11
-6.0
 21
-0.0
 31
0.0
 40
0.3185052402724498
 41
-6.283185307179586
 42
-5.346491238588417
  0
LINE
  5
DB
330
17
100
AcDbEntity
  8
visible
100
AcDbLine
 10
-44.523041814802234
 20
-28.69505059690841
 30
0.0
 11
-44.523041814802234
 21
-24.52419775669076
 31
0.0
  0
LINE
  5
DC
330
17
100
AcDbEntity
  8
visible
100
AcDbLine
 10
-36.71348404940461
 20
-26.35346219489924
 30
0.0
 11
-44.52304181480224
 21
-24.52419775669076
 31
0.0
  0
ELLIPSE
  5
DD
330
17
100
AcDbEntity
  8
visible
100
AcDbEllipse
 10
26.038460432276395
 20
-40.73581537870535
 30
0.0
 11
0.1824489939110947
 21
0.7789174311959064
 31
0.0
 40
0.5616001487728485
 41
-5.888039210420337
 42
-4.317242883625441
  0
ELLIPSE
  5
DE
330
17
100
AcDbEntity
  8
visible
100
AcDbEllipse
 10
-44.049078191674916
 20
-24.31892650768362
 30
0.0
 11
0.1824489939110947
 21
0.7789174311959064
 31
0.0
 40
0.5616001487728485
 41
-5.888039210420337
 42
-4.317242883625441
  0
ELLIPSE
  5
DF
330
17
100
AcDbEntity
  8
visible
100
AcDbEllipse
 10
33.30836422219647
 20
-40.38279159497864
 30
0.0
 11
-0.3179386069644352
 21
0.734108331379991
 31
0.0
 40
0.7636489277261533
 41
4.196482661515454
 42
5.76727898831035
  0
ELLIPSE
  5
E0
330
17
100
AcDbEntity
  8
visible
100
AcDbEllipse
 10
45.15745480037945
 20
-35.251010369800206
 30
0.0
 11
-0.3179386069644352
 21
0.734108331379991
 31
0.0
 40
0.7636489277261533
 41
4.196482661515454
 42
5.76727898831035
  0
ELLIPSE
  5
E1
330
17
100
AcDbEntity
  8
visible
100
AcDbEllipse
 10
-45.15745488093983
 20
-22.003424054317534
 30
0.0
 11
0.3179386069644352
 21
-0.734108331379991
 31
0.0
 40
0.7636489277261533
 41
-3.657498972459029
 42
-3.1415926535897936
  0
ELLIPSE
  5
E2
330
17
100
AcDbEntity
  8
visible
100
AcDbEllipse
 10
-33.30836430275685
 20
-16.87164282913909
 30
0.0
 11
0.3179386069644352
 21
-0.734108331379991
 31
0.0
 40
0.7636489277261533
 41
-3.657498972459029
 42
-3.1415926535897936
  0
ELLIPSE
  5
E3
330
17
100
AcDbEntity
  8
visible
100
AcDbEllipse
 10
20.93965913070596
 20
-37.32889660388378
 30
0.0
 11
-0.1824489939110947
 21
-0.7789174311959064
 31
0.0
 40
0.5616001487728485
 41
5.107535077143939
 42
6.172970893654666
  0
ELLIPSE
  5
E4
330
17
100
AcDbEntity
  8
visible
100
AcDbEllipse
 10
21.769095471178765
 20
-36.96967191812128
 30
0.0
 11
-2.2
 21
-0.0
 31
0.0
 40
0.3185052402724498
 41
-6.283185307179586
 42
-5.346491238588417
  0
ELLIPSE
  5
E5
330
17
100
AcDbEntity
  8
visible
100
AcDbEllipse
 10
22.228625358272875
 20
-37.630816399212904
 30
0.0
 11
-0.1824489939110947
 21
-0.7789174311959064
 31
0.0
 40
0.5616001487728485
 41
5.107535077143939
 42
6.172970893654666
  0
ELLIPSE
  5
E6
330
17
100
AcDbEntity
  8
visible
100
AcDbEllipse
 10
23.058061698745682
 20
-37.27159171345042
 30
0.0
 11
-2.2
 21
-0.0
 31
0.0
 40
0.3185052402724498
 41
-5.346491238588417
 42
-4.572015788144013
  0
ELLIPSE
  5
E7
330
17
100
AcDbEntity
  8
visible
100
AcDbEllipse
 10
23.313840934729896
 20
-12.401652952132295
 30
0.0
 11
-1.0
 21
-0.0
 31
0.0
 40
0.3185052402724498
 41
-5.346491238588417
 42
-3.775694911793521
  0
ELLIPSE
  5
E8
330
17
100
AcDbEntity
  8
visible
100
AcDbEllipse
 10
23.313840934729896
 20
-16.19333735233016
 30
0.0
 11
-1.0
 21
-0.0
 31
0.0
 40
0.3185052402724498
 41
-5.346491238588417
 42
-4.660336893535792
  0
ELLIPSE
  5
E9
330
17
100
AcDbEntity
  8
visible
100
AcDbEllipse
 10
23.017613670275324
 20
-16.321631882959622
 30
0.0
 11
-0.11403062119443418
 21
-0.48682339449744144
 31
0.0
 40
0.5616001487728485
 41
5.107535077143939
 42
6.283185307179586
  0
ELLIPSE
  5
EA
330
17
100
AcDbEntity
  8
visible
100
AcDbEllipse
 10
23.017613670275324
 20
-16.321631882959622
 30
0.0
 11
-0.11403062119443418
 21
-0.48682339449744144
 31
0.0
 40
0.5616001487728485
 41
2.220446049250313e-16
 42
0.10319867891811652
  0
ELLIPSE
  5
EB
330
17
100
AcDbEntity
  8
visible
100
AcDbEllipse
 10
38.71765868636777
 20
-5.730337359400323
 30
0.0
 11
-1.0
 21
-0.0
 31
0.0
 40
0.3185052402724498
 41
-3.775694911793521
 42
-3.141592653589793
  0
ELLIPSE
  5
EC
330
17
100
AcDbEntity
  8
visible
100
AcDbEllipse
 10
39.120460632482434
 20
-5.8246872954406825
 30
0.0
 11
-0.19871162935277198
 21
0.4588177071124943
 31
0.0
 40
0.7636489277261533
 41
4.196482661515454
 42
5.475331570469218
  0
ELLIPSE
  5
ED
330
17
100
AcDbEntity
  8
visible
100
AcDbEllipse
 10
39.120460632482434
 20
34.935920006686345
 30
0.0
 11
0.19871162935277198
 21
-0.4588177071124943
 31
0.0
 40
0.7636489277261533
 41
-6.283185307179586
 42
-5.228295299253926
  0
ELLIPSE
  5
EE
330
17
100
AcDbEntity
  8
visible
100
AcDbEllipse
 10
38.71765868636777
 20
35.030269942726704
 30
0.0
 11
-1.0
 21
-0.0
 31
0.0
 40
0.3185052402724498
 41
-3.775694911793521
 42
-3.141592653589793
  0
ELLIPSE
  5
EF
330
17
100
AcDbEntity
  8
visible
100
AcDbEllipse
 10
38.71765868636777
 20
38.82195434292457
 30
0.0
 11
-1.0
 21
-0.0
 31
0.0
 40
0.3185052402724498
 41
-3.775694911793521
 42
-3.141592653589793
  0
ELLIPSE
  5
F0
330
17
100
AcDbEntity
  8
visible
100
AcDbEllipse
 10
39.120460632482434
 20
38.72760440688421
 30
0.0
 11
-0.19871162935277198
 21
0.4588177071124943
 31
0.0
 40
0.7636489277261533
 41
4.196482661515454
 42
5.76727898831035
  0
LINE
  5
F1
330
17
100
AcDbEntity
  8
visible
100
AcDbLine
 10
39.120460632482434
 20
39.20156495690895
 30
0.0
 11
23.71664288084456
 21
32.53024936417698
 31
0.0
  0
ELLIPSE
  5
F2
330
17
100
AcDbEntity
  8
visible
100
AcDbEllipse
 10
23.71664288084456
 20
32.05628881415224
 30
0.0
 11
-0.19871162935277198
 21
0.4588177071124943
 31
0.0
 40
0.7636489277261533
 41
4.196482661515454
 42
5.76727898831035
  0
ELLIPSE
  5
F3
330
17
100
AcDbEntity
  8
visible
100
AcDbEllipse
 10
23.71664288084456
 20
-12.496002888172654
 30
0.0
 11
-0.19871162935277198
 21
0.4588177071124943
 31
0.0
 40
0.7636489277261533
 41
4.196482661515454
 42
5.475331570469217
  0
ELLIPSE
  5
F4
330
17
100
AcDbEntity
  8
visible
100
AcDbEllipse
 10
23.313840934729896
 20
28.358954349994733
 30
0.0
 11
-1.0
 21
-0.0
 31
0.0
 40
0.3185052402724498
 41
-5.346491238588417
 42
-3.775694911793521
  0
ELLIPSE
  5
F5
330
17
100
AcDbEntity
  8
visible
100
AcDbEllipse
 10
23.313840934729896
 20
32.1506387501926
 30
0.0
 11
-1.0
 21
-0.0
 31
0.0
 40
0.3185052402724498
 41
-5.346491238588417
 42
-3.775694911793521
  0
ELLIPSE
  5
F6
330
17
100
AcDbEntity
  8
visible
100
AcDbEllipse
 10
23.71664288084456
 20
28.264604413954373
 30
0.0
 11
0.19871162935277198
 21
-0.4588177071124943
 31
0.0
 40
0.7636489277261533
 41
-6.283185307179586
 42
-5.228295299253926
  0
ELLIPSE
  5
F7
330
17
100
AcDbEntity
  8
visible
100
AcDbEllipse
 10
23.017613670275324
 20
-12.529947482761756
 30
0.0
 11
0.11403062119443418
 21
0.48682339449744144
 31
0.0
 40
0.5616001487728485
 41
-5.596091792579205
 42
-4.317242883625441
  0
ELLIPSE
  5
F8
330
17
100
AcDbEntity
  8
visible
100
AcDbEllipse
 10
19.795198101358018
 20
-15.566832394636776
 30
0.0
 11
-0.11403062119443418
 21
-0.48682339449744144
 31
0.0
 40
0.5616001487728485
 41
5.107535077143939
 42
6.283185307179586
  0
ELLIPSE
  5
F9
330
17
100
AcDbEntity
  8
visible
100
AcDbEllipse
 10
19.795198101358018
 20
-15.566832394636776
 30
0.0
 11
-0.11403062119443418
 21
-0.48682339449744144
 31
0.0
 40
0.5616001487728485
 41
0.0
 42
0.10319867891811652
  0
ELLIPSE
  5
FA
330
17
100
AcDbEntity
  8
visible
100
AcDbEllipse
 10
20.091425365812594
 20
-15.438537864007316
 30
0.0
 11
-1.0
 21
2.9280470298826064e-17
 31
0.0
 40
0.31850524027244975
 41
-6.283185307179586
 42
-5.346491238588417
  0
ELLIPSE
  5
FB
330
17
100
AcDbEntity
  8
visible
100
AcDbEllipse
 10
20.091425365812594
 20
-11.646853463809464
 30
0.0
 11
-1.0
 21
2.9280470298826064e-17
 31
0.0
 40
0.31850524027244975
 41
-6.283185307179586
 42
-5.346491238588417
  0
ELLIPSE
  5
FC
330
17
100
AcDbEntity
  8
visible
100
AcDbEllipse
 10
19.795198101358018
 20
-11.775147994438925
 30
0.0
 11
0.11403062119443418
 21
0.48682339449744144
 31
0.0
 40
0.5616001487728485
 41
-5.596091792579205
 42
-4.317242883625441
  0
ELLIPSE
  5
FD
330
17
100
AcDbEntity
  8
visible
100
AcDbEllipse
 10
19.795198101358018
 20
28.985459307688103
 30
0.0
 11
-0.11403062119443418
 21
-0.48682339449744144
 31
0.0
 40
0.5616001487728485
 41
5.107535077143939
 42
6.283185307179586
  0
ELLIPSE
  5
FE
330
17
100
AcDbEntity
  8
visible
100
AcDbEllipse
 10
19.795198101358018
 20
28.985459307688103
 30
0.0
 11
-0.11403062119443418
 21
-0.48682339449744144
 31
0.0
 40
0.5616001487728485
 41
2.220446049250313e-16
 42
0.10319867891811652
  0
ELLIPSE
  5
FF
330
17
100
AcDbEntity
  8
visible
100
AcDbEllipse
 10
20.091425365812594
 20
29.113753838317564
 30
0.0
 11
-1.0
 21
2.9280470298826064e-17
 31
0.0
 40
0.31850524027244975
 41
-6.283185307179586
 42
-5.346491238588417
  0
ELLIPSE
  5
100
330
17
100
AcDbEntity
  8
visible
100
AcDbEllipse
 10
20.091425365812594
 20
32.905438238515444
 30
0.0
 11
-1.0
 21
2.9280470298826064e-17
 31
0.0
 40
0.31850524027244975
 41
-6.283185307179586
 42
-5.346491238588417
  0
ELLIPSE
  5
101
330
17
100
AcDbEntity
  8
visible
100
AcDbEllipse
 10
23.017613670275324
 20
32.02234421956314
 30
0.0
 11
0.11403062119443418
 21
0.48682339449744144
 31
0.0
 40
0.5616001487728485
 41
-5.888039210420337
 42
-4.317242883625441
  0
LINE
  5
102
330
17
100
AcDbEntity
  8
visible
100
AcDbLine
 10
23.017613670275324
 20
32.49630476958788
 30
0.0
 11
19.79519810135802
 21
33.25110425791072
 31
0.0
  0
ELLIPSE
  5
103
330
17
100
AcDbEntity
  8
visible
100
AcDbEllipse
 10
19.795198101358018
 20
32.77714370788598
 30
0.0
 11
0.11403062119443418
 21
0.48682339449744144
 31
0.0
 40
0.5616001487728485
 41
-5.888039210420337
 42
-4.317242883625441
  0
ELLIPSE
  5
104
330
17
100
AcDbEntity
  8
visible
100
AcDbEllipse
 10
23.017613670275324
 20
28.230659819365272
 30
0.0
 11
-0.11403062119443418
 21
-0.48682339449744144
 31
0.0
 40
0.5616001487728485
 41
5.107535077143939
 42
6.283185307179586
  0
ELLIPSE
  5
105
330
17
100
AcDbEntity
  8
visible
100
AcDbEllipse
 10
23.017613670275324
 20
28.230659819365272
 30
0.0
 11
-0.11403062119443418
 21
-0.48682339449744144
 31
0.0
 40
0.5616001487728485
 41
2.220446049250313e-16
 42
0.10319867891811652
  0
ELLIPSE
  5
106
330
17
100
AcDbEntity
  8
visible
100
AcDbEllipse
 10
19.688623419697933
 20
-11.552503527769105
 30
0.0
 11
0.19871162935277198
 21
-0.4588177071124943
 31
0.0
 40
0.7636489277261533
 41
-3.356220601901829
 42
-3.1415926535897936
  0
ELLIPSE
  5
107
330
17
100
AcDbEntity
  8
visible
100
AcDbEllipse
 10
19.688623419697933
 20
32.99978817455579
 30
0.0
 11
0.19871162935277198
 21
-0.4588177071124943
 31
0.0
 40
0.7636489277261533
 41
-3.657498972459029
 42
-3.1415926535897936
  0
LINE
  5
108
330
17
100
AcDbEntity
  8
visible
100
AcDbLine
 10
19.688623419697933
 20
33.47374872458053
 30
0.0
 11
35.09244117133581
 21
40.1450643173125
 31
0.0
  0
ELLIPSE
  5
109
330
17
100
AcDbEntity
  8
visible
100
AcDbEllipse
 10
35.09244117133581
 20
39.67110376728776
 30
0.0
 11
0.19871162935277198
 21
-0.4588177071124943
 31
0.0
 40
0.7636489277261533
 41
-3.657498972459029
 42
-3.1415926535897936
  0
ELLIPSE
  5
10A
330
17
100
AcDbEntity
  8
visible
100
AcDbEllipse
 10
35.79147038190504
 20
39.70504836187688
 30
0.0
 11
-0.11403062119443418
 21
-0.48682339449744144
 31
0.0
 40
0.5616001487728485
 41
3.141592653589793
 42
3.536738750349042
  0
LINE
  5
10B
330
17
100
AcDbEntity
  8
visible
100
AcDbLine
 10
35.79147038190504
 20
40.17900891190162
 30
0.0
 11
39.01388595082234
 21
39.42420942357878
 31
0.0
  0
ELLIPSE
  5
10C
330
17
100
AcDbEntity
  8
visible
100
AcDbEllipse
 10
39.01388595082234
 20
38.95024887355403
 30
0.0
 11
-0.11403062119443418
 21
-0.48682339449744144
 31
0.0
 40
0.5616001487728485
 41
3.141592653589793
 42
3.536738750349042
  0
ELLIPSE
  5
10D
330
17
100
AcDbEntity
  8
visible
100
AcDbEllipse
 10
38.71765868636777
 20
39.29591489294931
 30
0.0
 11
-0.5
 21
-0.0
 31
0.0
 40
0.3185052402724498
 41
-3.775694911793521
 42
-2.2048985849986242
  0
ELLIPSE
  5
10E
330
17
100
AcDbEntity
  8
visible
100
AcDbEllipse
 10
20.091425365812594
 20
33.379398788540186
 30
0.0
 11
-0.5
 21
1.4640235149413032e-17
 31
0.0
 40
0.31850524027244975
 41
-6.9172875653833135
 42
-5.346491238588417
  0
ELLIPSE
  5
10F
330
17
100
AcDbEntity
  8
visible
100
AcDbEllipse
 10
35.49524311745047
 20
40.050714381272144
 30
0.0
 11
-0.5
 21
-0.0
 31
0.0
 40
0.3185052402724498
 41
-2.2048985849986242
 42
-0.6341022582037276
  0
ELLIPSE
  5
110
330
17
100
AcDbEntity
  8
visible
100
AcDbEllipse
 10
23.313840934729896
 20
32.62459930021734
 30
0.0
 11
-0.5
 21
-0.0
 31
0.0
 40
0.3185052402724498
 41
-5.346491238588417
 42
-3.775694911793521
  0
LINE
  5
111
330
17
100
AcDbEntity
  8
visible
100
AcDbLine
 10
25.8560114383653
 20
-45.6855856501189
 30
0.0
 11
12.36801578353002
 21
-42.52623763896497
 31
0.0
  0
SPLINE
  5
112
330
17
100
AcDbEntity
  8
visible
100
AcDbSpline
 70
0
 71
3
 72
8
 73
4
 74
0
 40
0.0
 40
0.0
 40
0.0
 40
0.0
 40
1.0
 40
1.0
 40
1.0
 40
1.0
 10
29.738961035793395
 20
-46.01738446338848
 30
0.0
 10
28.381480265314483
 20
-46.067802118529926
 30
0.0
 10
26.97857941012269
 20
-45.94988831284625
 30
0.0
 10
25.8560114383653
 20
-45.6855856501189
 30
0.0
  0
SPLINE
  5
113
330
17
100
AcDbEntity
  8
visible
100
AcDbSpline
 70
0
 71
3
 72
8
 73
4
 74
0
 40
0.0
 40
0.0
 40
0.0
 40
0.0
 40
1.0
 40
1.0
 40
1.0
 40
1.0
 10
33.6263028291609
 20
-45.28775276657629
 30
0.0
 10
33.111931019820936
 20
-45.51036003762358
 30
0.0
 10
32.483399493716895
 20
-45.6845212272426
 30
0.0
 10
31.775451887490696
 20
-45.80947302598845
 30
0.0
  0
LINE
  5
114
330
17
100
AcDbEntity
  8
visible
100
AcDbLine
 10
45.47539340734388
 20
-40.155971541397854
 30
0.0
 11
33.6263028291609
 21
-45.2877527665763
 31
0.0
  0
SPLINE
  5
115
330
17
100
AcDbEntity
  8
visible
100
AcDbSpline
 70
0
 71
3
 72
11
 73
7
 74
0
 40
0.0
 40
0.0
 40
0.0
 40
0.0
 40
0.5
 40
0.5
 40
0.5
 40
1.0
 40
1.0
 40
1.0
 40
1.0
 10
45.47539340734389
 20
-40.15597154139785
 30
0.0
 10
45.900630508983134
 20
-39.97073927477231
 30
0.0
 10
46.25319070415903
 20
-39.754944812408446
 30
0.0
 10
46.52268383438479
 20
-39.4742069437037
 30
0.0
 10
46.78932897410011
 20
-39.19916064464091
 30
0.0
 10
46.97017411434868
 20
-38.83182109198887
 30
0.0
 10
46.96831456078695
 20
-38.44062387519817
 30
0.0
  0
SPLINE
  5
116
330
17
100
AcDbEntity
  8
visible
100
AcDbSpline
 70
0
 71
3
 72
14
 73
10
 74
0
 40
0.0
 40
0.0
 40
0.0
 40
0.0
 40
0.3333333333333333
 40
0.3333333333333333
 40
0.3333333333333333
 40
0.6666666666666666
 40
0.6666666666666666
 40
0.6666666666666666
 40
1.0
 40
1.0
 40
1.0
 40
1.0
 10
-44.23152718558601
 20
-29.268696779097176
 30
0.0
 10
-44.76335539708212
 20
-29.144905125040516
 30
0.0
 10
-45.228485236925664
 20
-28.989415004771903
 30
0.0
 10
-45.626916705116614
 20
-28.802226418291312
 30
0.0
 10
-45.98776285708402
 20
-28.630476374455004
 30
0.0
 10
-46.291410912904425
 20
-28.432587448693912
 30
0.0
 10
-46.52893235615094
 20
-28.182518658336022
 30
0.0
 10
-46.79213462729143
 20
-27.90849192316658
 30
0.0
 10
-46.97017070830745
 20
-27.543541621012487
 30
0.0
 10
-46.968314641347334
 20
-27.155516229354873
 30
0.0
  0
LINE
  5
117
330
17
100
AcDbEntity
  8
visible
100
AcDbLine
 10
-36.819613663082826
 20
-31.004819391041426
 30
0.0
 11
-44.23152718558602
 21
-29.268696779097176
 31
0.0
  0
LINE
  5
118
330
17
100
AcDbEntity
  8
visible
100
AcDbLine
 10
-36.81961366308283
 20
-32.89595738003361
 30
0.0
 11
-36.81961366308283
 21
-27.208430779736812
 31
0.0
  0
LINE
  5
119
330
17
100
AcDbEntity
  8
visible
100
AcDbLine
 10
46.96831456078695
 20
-38.44062387519816
 30
0.0
 11
46.96831456078695
 21
-34.26977103498051
 31
0.0
  0
LINE
  5
11A
330
17
100
AcDbEntity
  8
visible
100
AcDbLine
 10
-25.85601151892569
 20
-15.739701614216486
 30
0.0
 11
-18.155475145151534
 21
-17.543429529014585
 31
0.0
  0
LINE
  5
11B
330
17
100
AcDbEntity
  8
visible
100
AcDbLine
 10
-46.96831464134734
 20
-27.155516229354877
 30
0.0
 11
-46.96831464134734
 21
-22.98466338913722
 31
0.0
  0
SPLINE
  5
11C
330
17
100
AcDbEntity
  8
visible
100
AcDbSpline
 70
0
 71
3
 72
11
 73
7
 74
0
 40
0.0
 40
0.0
 40
0.0
 40
0.0
 40
0.44140776577827795
 40
0.44140776577827795
 40
0.44140776577827795
 40
1.0
 40
1.0
 40
1.0
 40
1.0
 10
45.84645320511869
 20
-32.73479166493942
 30
0.0
 10
46.11296046243219
 20
-32.878015265049186
 30
0.0
 10
46.34045348592272
 20
-33.0473409120691
 30
0.0
 10
46.52893227559055
 20
-33.24276860599938
 30
0.0
 10
46.79213454673105
 20
-33.51679534116874
 30
0.0
 10
46.97017062774705
 20
-33.881745643322944
 30
0.0
 10
46.96831456078695
 20
-34.26977103498052
 30
0.0
  0
SPLINE
  5
11D
330
17
100
AcDbEntity
  8
visible
100
AcDbSpline
 70
0
 71
3
 72
11
 73
7
 74
0
 40
0.0
 40
0.0
 40
0.0
 40
0.0
 40
0.5
 40
0.5
 40
0.5
 40
1.0
 40
1.0
 40
1.0
 40
1.0
 10
-46.96831464134734
 20
-22.984663389137225
 30
0.0
 10
-46.970192052650084
 20
-22.59261100811138
 30
0.0
 10
-46.78854708709413
 20
-22.224626383922473
 30
0.0
 10
-46.520992199915874
 20
-21.949308831152457
 30
0.0
 10
-46.25170233524213
 20
-21.669445661489306
 30
0.0
 10
-45.89974060011366
 20
-21.45415346091214
 30
0.0
 10
-45.47539348790427
 20
-21.26931572293755
 30
0.0
  0
LINE
  5
11E
330
17
100
AcDbEntity
  8
visible
100
AcDbLine
 10
-45.47539348790427
 20
-21.26931572293755
 30
0.0
 11
-33.62630290972129
 21
-16.13753449775911
 31
0.0
  0
SPLINE
  5
11F
330
17
100
AcDbEntity
  8
visible
100
AcDbSpline
 70
0
 71
3
 72
14
 73
10
 74
0
 40
0.0
 40
0.0
 40
0.0
 40
0.0
 40
0.28813329458280224
 40
0.28813329458280224
 40
0.28813329458280224
 40
0.5966941099567764
 40
0.5966941099567764
 40
0.5966941099567764
 40
1.0
 40
1.0
 40
1.0
 40
1.0
 10
-33.626302909721296
 20
-16.137534497759106
 30
0.0
 10
-33.092148552226426
 20
-15.906367303094823
 30
0.0
 10
-32.43447408081528
 20
-15.7272977062825
 30
0.0
 10
-31.693136917860123
 20
-15.601595654871147
 30
0.0
 10
-30.900617977345895
 20
-15.467205765002584
 30
0.0
 10
-30.014941732712977
 20
-15.396884692477814
 30
0.0
 10
-29.12739803761732
 20
-15.39665575295902
 30
0.0
 10
-27.966538782292282
 20
-15.395628133129453
 30
0.0
 10
-26.81120794655151
 20
-15.515285455405413
 30
0.0
 10
-25.85601151892569
 20
-15.739701614216486
 30
0.0
  0
SPLINE
  5
120
330
17
100
AcDbEntity
  8
visible
100
AcDbSpline
 70
0
 71
3
 72
11
 73
7
 74
0
 40
0.0
 40
0.0
 40
0.0
 40
0.0
 40
0.4845790134787531
 40
0.4845790134787531
 40
0.4845790134787531
 40
1.0
 40
1.0
 40
1.0
 40
1.0
 10
20.349123540922065
 20
-37.97892548830795
 30
0.0
 10
20.178341579802797
 20
-37.9099682704858
 30
0.0
 10
20.028030532434173
 20
-37.816479242101956
 30
0.0
 10
19.898190398816233
 20
-37.69845840315632
 30
0.0
 10
19.69472305798675
 20
-37.51190050474743
 30
0.0
 10
19.56729095757122
 20
-37.24416055811653
 30
0.0
 10
19.569095471178766
 20
-36.96967191812128
 30
0.0
  0
LINE
  5
121
330
17
100
AcDbEntity
  8
visible
100
AcDbLine
 10
37.58477821342378
 20
-32.60459414985627
 30
0.0
 11
30.826991747377765
 21
-35.53135730365249
 31
0.0
  0
SPLINE
  5
122
330
17
100
AcDbEntity
  8
visible
100
AcDbSpline
 70
0
 71
2
 72
10
 73
7
 74
0
 40
0.0
 40
0.0
 40
0.0
 40
0.058815831501879134
 40
0.058815831501879134
 40
0.5294079157509397
 40
0.5294079157509397
 40
1.0
 40
1.0
 40
1.0
 10
23.36586951960421
 20
-16.851937037268392
 30
0.0
 10
23.340349166761182
 20
-16.852263386994867
 30
0.0
 10
23.314828813918147
 20
-16.852589736721328
 30
0.0
 10
23.1434228770531
 20
-16.85280308923621
 30
0.0
 10
22.98218729816451
 20
-16.824596871322
 30
0.0
 10
22.942885173622702
 20
-16.816526074389532
 30
0.0
 10
22.903583049080886
 20
-16.808455277457057
 30
0.0
  0
LINE
  5
123
330
17
100
AcDbEntity
  8
visible
100
AcDbLine
 10
19.569095471178763
 20
-36.969671918121286
 30
0.0
 11
19.569095471178763
 21
-16.021989622513686
 31
0.0
  0
LINE
  5
124
330
17
100
AcDbEntity
  8
visible
100
AcDbLine
 10
39.71765868636777
 20
-8.118039394912069
 30
0.0
 11
39.71765868636777
 21
-5.7303373594003215
 31
0.0
  0
LINE
  5
125
330
17
100
AcDbEntity
  8
visible
100
AcDbLine
 10
39.2399885810016
 20
-5.344197277363552
 30
0.0
 11
39.2399885810016
 21
34.44280824772562
 31
0.0
  0
LINE
  5
126
330
17
100
AcDbEntity
  8
visible
100
AcDbLine
 10
39.319172261835206
 20
34.47710229957384
 30
0.0
 11
39.21545896363748
 21
34.4321845944571
 31
0.0
  0
LINE
  5
127
330
17
100
AcDbEntity
  8
visible
100
AcDbLine
 10
39.71765868636777
 20
35.03026994272671
 30
0.0
 11
39.71765868636777
 21
38.82195434292457
 31
0.0
  0
LINE
  5
128
330
17
100
AcDbEntity
  8
visible
100
AcDbLine
 10
24.01906780839506
 20
27.850704411958617
 30
0.0
 11
23.915354510197332
 21
27.80578670684187
 31
0.0
  0
LINE
  5
129
330
17
100
AcDbEntity
  8
visible
100
AcDbLine
 10
22.903583049080886
 20
-16.808455277457057
 30
0.0
 11
22.840626614193027
 21
-16.793708735981046
 31
0.0
  0
SPLINE
  5
12A
330
17
100
AcDbEntity
  8
visible
100
AcDbSpline
 70
0
 71
3
 72
17
 73
13
 74
0
 40
0.0
 40
0.0
 40
0.0
 40
0.0
 40
0.25
 40
0.25
 40
0.25
 40
0.5
 40
0.5
 40
0.5
 40
0.75
 40
0.75
 40
0.75
 40
1.0
 40
1.0
 40
1.0
 40
1.0
 10
19.681167480163587
 20
-16.05365578913421
 30
0.0
 10
19.633674320879624
 20
-16.04263073765212
 30
0.0
 10
19.58761055317949
 20
-16.029023182385473
 30
0.0
 10
19.542976177063125
 20
-16.012833123334246
 30
0.0
 10
19.488820589086373
 20
-15.993327831028362
 30
0.0
 10
19.437338699465585
 20
-15.96889281500525
 30
0.0
 10
19.388530508200688
 20
-15.939528075264874
 30
0.0
 10
19.327598724201067
 20
-15.902764002465558
 30
0.0
 10
19.274289996590753
 20
-15.857883841102073
 30
0.0
 10
19.228604325369748
 20
-15.804887591174406
 30
0.0
 10
19.140375163371818
 20
-15.702220916264388
 30
0.0
 10
19.091031537978868
 20
-15.570788750038139
 30
0.0
 10
19.09142536581259
 20
-15.438537864007316
 30
0.0
  0
LINE
  5
12B
330
17
100
AcDbEntity
  8
visible
100
AcDbLine
 10
19.74412391505145
 20
-16.068402330610233
 30
0.0
 11
19.681167480163584
 21
-16.05365578913422
 31
0.0
  0
LINE
  5
12C
330
17
100
AcDbEntity
  8
visible
100
AcDbLine
 10
19.091425365812594
 20
-15.438537864007325
 30
0.0
 11
19.091425365812594
 21
-11.646853463809462
 31
0.0
  0
LINE
  5
12D
330
17
100
AcDbEntity
  8
visible
100
AcDbLine
 10
19.569095471178763
 20
-11.097779327744977
 30
0.0
 11
19.569095471178763
 21
28.530302079811207
 31
0.0
  0
LINE
  5
12E
330
17
100
AcDbEntity
  8
visible
100
AcDbLine
 10
19.744123915051443
 20
28.48388937171465
 30
0.0
 11
19.681167480163584
 21
28.49863591319066
 31
0.0
  0
LINE
  5
12F
330
17
100
AcDbEntity
  8
visible
100
AcDbLine
 10
19.091425365812594
 20
29.11375383831758
 30
0.0
 11
19.091425365812594
 21
32.905438238515444
 31
0.0
  0
LINE
  5
130
330
17
100
AcDbEntity
  8
visible
100
AcDbLine
 10
22.903583049080886
 20
27.743836424867823
 30
0.0
 11
22.84062661419303
 21
27.758582966343834
 31
0.0
  0
LINE
  5
131
330
17
100
AcDbEntity
  8
visible
100
AcDbLine
 10
19.489911790345158
 20
-11.093685820656617
 30
0.0
 11
19.569095471178763
 21
-11.059391768808402
 31
0.0
  0
LINE
  5
132
330
17
100
AcDbEntity
  8
visible
100
AcDbLine
 10
19.489911790345158
 20
33.45860588166829
 30
0.0
 11
34.89372954198303
 21
40.12992147440026
 31
0.0
  0
LINE
  5
133
330
17
100
AcDbEntity
  8
visible
100
AcDbLine
 10
35.905501003099474
 20
40.1918717563743
 30
0.0
 11
39.12791657201677
 21
39.43707226805146
 31
0.0
  0
SPLINE
  5
134
330
17
100
AcDbEntity
  8
visible
100
AcDbSpline
 70
0
 71
3
 72
17
 73
13
 74
0
 40
0.0
 40
0.0
 40
0.0
 40
0.0
 40
0.06070963561428694
 40
0.06070963561428694
 40
0.06070963561428694
 40
0.37380642374285794
 40
0.37380642374285794
 40
0.37380642374285794
 40
0.686903211871429
 40
0.686903211871429
 40
0.686903211871429
 40
1.0
 40
1.0
 40
1.0
 40
1.0
 10
39.2399885810016
 20
-5.146885600893963
 30
0.0
 10
39.248695012373474
 20
-5.149937767287105
 30
0.0
 10
39.257401443745366
 20
-5.152989933680249
 30
0.0
 10
39.26610787511724
 20
-5.1560421000733925
 30
0.0
 10
39.32026346309396
 20
-5.175547392379274
 30
0.0
 10
39.37174535271481
 20
-5.199982408402398
 30
0.0
 10
39.42055354397968
 20
-5.2293471481427645
 30
0.0
 10
39.481485327979314
 20
-5.266111220942062
 30
0.0
 10
39.5347940555896
 20
-5.310991382305559
 30
0.0
 10
39.58047972681061
 20
-5.363987632233247
 30
0.0
 10
39.66870888880855
 20
-5.466654307143266
 30
0.0
 10
39.7180525142015
 20
-5.598086473369486
 30
0.0
 10
39.71765868636777
 20
-5.730337359400323
 30
0.0
  0
SPLINE
  5
135
330
17
100
AcDbEntity
  8
visible
100
AcDbSpline
 70
0
 71
3
 72
14
 73
10
 74
0
 40
0.0
 40
0.0
 40
0.0
 40
0.0
 40
0.3333333333333333
 40
0.3333333333333333
 40
0.3333333333333333
 40
0.6666666666666666
 40
0.6666666666666666
 40
0.6666666666666666
 40
1.0
 40
1.0
 40
1.0
 40
1.0
 10
39.3191722618352
 20
34.47710229957384
 30
0.0
 10
39.35344081333173
 20
34.49186166796181
 30
0.0
 10
39.38648437141207
 20
34.50879944835822
 30
0.0
 10
39.41830293607609
 20
34.527915640763055
 30
0.0
 10
39.48105262885571
 20
34.56546238531232
 30
0.0
 10
39.535760722477015
 20
34.611561761871194
 30
0.0
 10
39.582427216939976
 20
34.666213770439484
 30
0.0
 10
39.6694540361038
 20
34.76852773227657
 30
0.0
 10
39.71804050747642
 20
34.89900455159025
 30
0.0
 10
39.71765868636777
 20
35.030269942726704
 30
0.0
  0
SPLINE
  5
136
330
17
100
AcDbEntity
  8
visible
100
AcDbSpline
 70
0
 71
3
 72
17
 73
13
 74
0
 40
0.0
 40
0.0
 40
0.0
 40
0.0
 40
0.25
 40
0.25
 40
0.25
 40
0.5
 40
0.5
 40
0.5
 40
0.75
 40
0.75
 40
0.75
 40
1.0
 40
1.0
 40
1.0
 40
1.0
 10
39.12791657201679
 20
39.437072268051466
 30
0.0
 10
39.175409731300704
 20
39.42604721656936
 30
0.0
 10
39.22147349900089
 20
39.41243966130274
 30
0.0
 10
39.26610787511724
 20
39.396249602251515
 30
0.0
 10
39.32026346309396
 20
39.37674430994562
 30
0.0
 10
39.37174535271481
 20
39.35230929392253
 30
0.0
 10
39.42055354397968
 20
39.32294455418213
 30
0.0
 10
39.48166972667656
 20
39.286070181589736
 30
0.0
 10
39.535111549961975
 20
39.241033902633546
 30
0.0
 10
39.580879013835926
 20
39.187835717313575
 30
0.0
 10
39.66886179827563
 20
39.08524049243075
 30
0.0
 10
39.71805003414319
 20
38.95400365723432
 30
0.0
 10
39.71765868636777
 20
38.82195434292457
 30
0.0
  0
SPLINE
  5
137
330
17
100
AcDbEntity
  8
visible
100
AcDbSpline
 70
0
 71
2
 72
14
 73
11
 74
0
 40
0.0
 40
0.0
 40
0.0
 40
0.2142010146186322
 40
0.2142010146186322
 40
0.3573969561441033
 40
0.3573969561441033
 40
0.5715979707627354
 40
0.5715979707627354
 40
0.7857989853813676
 40
0.7857989853813676
 40
1.0
 40
1.0
 40
1.0
 10
23.915354510197332
 20
27.805786706841868
 30
0.0
 10
23.85724906196871
 20
27.780779505001505
 30
0.0
 10
23.795542583118902
 20
27.762688061150186
 30
0.0
 10
23.753562516807513
 20
27.751826601555287
 30
0.0
 10
23.71158245049613
 20
27.740965141960388
 30
0.0
 10
23.521812281686724
 20
27.699473679013416
 30
0.0
 10
23.314828813918147
 20
27.699701965603566
 30
0.0
 10
23.1434228770531
 20
27.69948861308867
 30
0.0
 10
22.98218729816451
 20
27.72769483100288
 30
0.0
 10
22.942885173622695
 20
27.73576562793535
 30
0.0
 10
22.903583049080886
 20
27.743836424867823
 30
0.0
  0
SPLINE
  5
138
330
17
100
AcDbEntity
  8
visible
100
AcDbSpline
 70
0
 71
3
 72
14
 73
10
 74
0
 40
0.0
 40
0.0
 40
0.0
 40
0.0
 40
0.3333333333333333
 40
0.3333333333333333
 40
0.3333333333333333
 40
0.6666666666666666
 40
0.6666666666666666
 40
0.6666666666666666
 40
1.0
 40
1.0
 40
1.0
 40
1.0
 10
19.489911790345158
 20
-11.093685820656603
 30
0.0
 10
19.4556432388486
 20
-11.10844518904456
 30
0.0
 10
19.422599680768307
 20
-11.12538296944096
 30
0.0
 10
19.39078111610427
 20
-11.1444991618458
 30
0.0
 10
19.328031423324628
 20
-11.182045906395102
 30
0.0
 10
19.27332332970336
 20
-11.22814528295393
 30
0.0
 10
19.226656835240394
 20
-11.282797291522229
 30
0.0
 10
19.139630016076552
 20
-11.385111253359334
 30
0.0
 10
19.091043544703943
 20
-11.515588072672964
 30
0.0
 10
19.091425365812594
 20
-11.646853463809464
 30
0.0
  0
SPLINE
  5
139
330
17
100
AcDbEntity
  8
visible
100
AcDbSpline
 70
0
 71
3
 72
17
 73
13
 74
0
 40
0.0
 40
0.0
 40
0.0
 40
0.0
 40
0.25
 40
0.25
 40
0.25
 40
0.5
 40
0.5
 40
0.5
 40
0.75
 40
0.75
 40
0.75
 40
1.0
 40
1.0
 40
1.0
 40
1.0
 10
19.681167480163587
 20
28.498635913190668
 30
0.0
 10
19.633674320879624
 20
28.50966096467275
 30
0.0
 10
19.58761055317949
 20
28.523268519939432
 30
0.0
 10
19.542976177063125
 20
28.539458578990633
 30
0.0
 10
19.488820589086373
 20
28.558963871296537
 30
0.0
 10
19.437338699465585
 20
28.583398887319653
 30
0.0
 10
19.388530508200688
 20
28.61276362705999
 30
0.0
 10
19.327598724201067
 20
28.649527699859327
 30
0.0
 10
19.274289996590753
 20
28.69440786122282
 30
0.0
 10
19.228604325369748
 20
28.747404111150473
 30
0.0
 10
19.140375163371804
 20
28.850070786060527
 30
0.0
 10
19.091031537978875
 20
28.981502952286743
 30
0.0
 10
19.09142536581259
 20
29.113753838317564
 30
0.0
  0
SPLINE
  5
13A
330
17
100
AcDbEntity
  8
visible
100
AcDbSpline
 70
0
 71
3
 72
11
 73
7
 74
0
 40
0.0
 40
0.0
 40
0.0
 40
0.0
 40
0.5
 40
0.5
 40
0.5
 40
1.0
 40
1.0
 40
1.0
 40
1.0
 10
19.091425365812597
 20
32.905438238515444
 30
0.0
 10
19.09104054281755
 20
33.03695215626333
 30
0.0
 10
19.139817354213182
 20
33.167669977419806
 30
0.0
 10
19.22714685388613
 20
33.27007369208924
 30
0.0
 10
19.29913905038721
 20
33.3524903837193
 30
0.0
 10
19.38672736254022
 20
33.41533444691232
 30
0.0
 10
19.48991179034516
 20
33.45860588166829
 30
0.0
  0
SPLINE
  5
13B
330
17
100
AcDbEntity
  8
visible
100
AcDbSpline
 70
0
 71
2
 72
12
 73
9
 74
0
 40
0.0
 40
0.0
 40
0.0
 40
0.35739695614409916
 40
0.35739695614409916
 40
0.5715979707627328
 40
0.5715979707627328
 40
0.7857989853813664
 40
0.7857989853813664
 40
1.0
 40
1.0
 40
1.0
 10
34.893729541983035
 20
40.12992147440026
 30
0.0
 10
34.990764999773305
 20
40.17129254198916
 30
0.0
 10
35.09750160168422
 20
40.19474303928176
 30
0.0
 10
35.28727177049363
 20
40.2362345022287
 30
0.0
 10
35.49425523826221
 20
40.23600621563857
 30
0.0
 10
35.66566117512728
 20
40.2362195681535
 30
0.0
 10
35.82689675401585
 20
40.20801335023924
 30
0.0
 10
35.86619887855766
 20
40.19994255330677
 30
0.0
 10
35.905501003099474
 20
40.1918717563743
 30
0.0
  0
ENDSEC
  0
SECTION
  2
OBJECTS
  0
DICTIONARY
  5
A
330
0
100
AcDbDictionary
281
1
  3
ACAD_COLOR
350
B
  3
ACAD_GROUP
350
C
  3
ACAD_LAYOUT
350
D
  3
ACAD_MATERIAL
350
E
  3
ACAD_MLEADERSTYLE
350
F
  3
ACAD_MLINESTYLE
350
10
  3
ACAD_PLOTSETTINGS
350
11
  3
ACAD_PLOTSTYLENAME
350
12
  3
ACAD_SCALELIST
350
14
  3
ACAD_TABLESTYLE
350
15
  3
ACAD_VISUALSTYLE
350
16
  3
EZDXF_META
350
2D
  0
DICTIONARY
  5
B
330
A
100
AcDbDictionary
281
1
  0
DICTIONARY
  5
C
330
A
100
AcDbDictionary
281
1
  0
DICTIONARY
  5
D
330
A
100
AcDbDictionary
281
1
  3
Model
350
1A
  3
Layout1
350
1E
  0
DICTIONARY
  5
E
330
A
100
AcDbDictionary
281
1
  3
ByBlock
350
1F
  3
ByLayer
350
20
  3
Global
350
21
  0
DICTIONARY
  5
F
330
A
100
AcDbDictionary
281
1
  3
Standard
350
2C
  0
DICTIONARY
  5
10
330
A
100
AcDbDictionary
281
1
  3
Standard
350
22
  0
DICTIONARY
  5
11
330
A
100
AcDbDictionary
281
1
  0
ACDBDICTIONARYWDFLT
  5
12
330
A
100
AcDbDictionary
281
1
  3
Normal
350
13
100
AcDbDictionaryWithDefault
340
13
  0
ACDBPLACEHOLDER
  5
13
330
12
  0
DICTIONARY
  5
14
330
A
100
AcDbDictionary
281
1
  0
DICTIONARY
  5
15
330
A
100
AcDbDictionary
281
1
  0
DICTIONARY
  5
16
330
A
100
AcDbDictionary
281
1
  0
LAYOUT
  5
1A
330
D
100
AcDbPlotSettings
  1

  4
A3
  6

 40
7.5
 41
20.0
 42
7.5
 43
20.0
 44
420.0
 45
297.0
 46
0.0
 47
0.0
 48
0.0
 49
0.0
140
0.0
141
0.0
142
1.0
143
1.0
 70
1024
 72
1
 73
0
 74
5
  7

 75
16
 76
0
 77
2
 78
300
147
1.0
148
0.0
149
0.0
100
AcDbLayout
  1
Model
 70
1
 71
0
 10
0.0
 20
0.0
 11
420.0
 21
297.0
 12
0.0
 22
0.0
 32
0.0
 14
1e+20
 24
1e+20
 34
1e+20
 15
-1e+20
 25
-1e+20
 35
-1e+20
146
0.0
 13
0.0
 23
0.0
 33
0.0
 16
1.0
 26
0.0
 36
0.0
 17
0.0
 27
1.0
 37
0.0
 76
1
330
17
  0
LAYOUT
  5
1E
330
D
100
AcDbPlotSettings
  1

  4
A3
  6

 40
7.5
 41
20.0
 42
7.5
 43
20.0
 44
420.0
 45
297.0
 46
0.0
 47
0.0
 48
0.0
 49
0.0
140
0.0
141
0.0
142
1.0
143
1.0
 70
0
 72
1
 73
0
 74
5
  7

 75
16
 76
0
 77
2
 78
300
147
1.0
148
0.0
149
0.0
100
AcDbLayout
  1
Layout1
 70
1
 71
1
 10
0.0
 20
0.0
 11
420.0
 21
297.0
 12
0.0
 22
0.0
 32
0.0
 14
1e+20
 24
1e+20
 34
1e+20
 15
-1e+20
 25
-1e+20
 35
-1e+20
146
0.0
 13
0.0
 23
0.0
 33
0.0
 16
1.0
 26
0.0
 36
0.0
 17
0.0
 27
1.0
 37
0.0
 76
1
330
1B
  0
MATERIAL
  5
1F
102
{ACAD_REACTORS
330
E
102
}
330
E
100
AcDbMaterial
  1
ByBlock
  2

 70
0
 40
1.0
 71
1
 41
1.0
 91
-1023410177
 42
1.0
 72
1
  3

 73
1
 74
1
 75
1
 44
0.5
 73
0
 45
1.0
 46
1.0
 77
1
  4

 78
1
 79
1
170
1
 48
1.0
171
1
  6

172
1
173
1
174
1
140
1.0
141
1.0
175
1
  7

176
1
177
1
178
1
143
1.0
179
1
  8

270
1
271
1
272
1
145
1.0
146
1.0
273
1
  9

274
1
275
1
276
1
 42
1.0
 72
1
  3

 73
1
 74
1
 75
1
 94
63
  0
MATERIAL
  5
20
102
{ACAD_REACTORS
330
E
102
}
330
E
100
AcDbMaterial
  1
ByLayer
  2

 70
0
 40
1.0
 71
1
 41
1.0
 91
-1023410177
 42
1.0
 72
1
  3

 73
1
 74
1
 75
1
 44
0.5
 73
0
 45
1.0
 46
1.0
 77
1
  4

 78
1
 79
1
170
1
 48
1.0
171
1
  6

172
1
173
1
174
1
140
1.0
141
1.0
175
1
  7

176
1
177
1
178
1
143
1.0
179
1
  8

270
1
271
1
272
1
145
1.0
146
1.0
273
1
  9

274
1
275
1
276
1
 42
1.0
 72
1
  3

 73
1
 74
1
 75
1
 94
63
  0
MATERIAL
  5
21
102
{ACAD_REACTORS
330
E
102
}
330
E
100
AcDbMaterial
  1
Global
  2

 70
0
 40
1.0
 71
1
 41
1.0
 91
-1023410177
 42
1.0
 72
1
  3

 73
1
 74
1
 75
1
 44
0.5
 73
0
 45
1.0
 46
1.0
 77
1
  4

 78
1
 79
1
170
1
 48
1.0
171
1
  6

172
1
173
1
174
1
140
1.0
141
1.0
175
1
  7

176
1
177
1
178
1
143
1.0
179
1
  8

270
1
271
1
272
1
145
1.0
146
1.0
273
1
  9

274
1
275
1
276
1
 42
1.0
 72
1
  3

 73
1
 74
1
 75
1
 94
63
  0
MLINESTYLE
  5
22
102
{ACAD_REACTORS
330
10
102
}
330
10
100
AcDbMlineStyle
  2
Standard
 70
0
  3

 62
256
 51
90.0
 52
90.0
 71
2
 49
0.5
 62
256
  6
BYLAYER
 49
-0.5
 62
256
  6
BYLAYER
  0
MLEADERSTYLE
  5
2C
102
{ACAD_REACTORS
330
F
102
}
330
F
100
AcDbMLeaderStyle
179
2
170
2
171
1
172
0
 90
2
 40
0.0
 41
0.0
173
1
 91
-1056964608
 92
-2
290
1
 42
2.0
291
1
 43
8.0
  3
Standard
 44
4.0
300

342
29
174
1
175
1
176
0
178
1
 93
-1056964608
 45
4.0
292
0
297
0
 46
4.0
 94
-1056964608
 47
1.0
 49
1.0
140
1.0
294
1
141
0.0
177
0
142
1.0
295
0
296
0
143
3.75
271
0
272
9
273
9
  0
DICTIONARY
  5
2D
330
A
100
AcDbDictionary
280
1
281
1
  3
CREATED_BY_EZDXF
350
2E
  3
WRITTEN_BY_EZDXF
350
13F
  0
DICTIONARYVAR
  5
2E
330
2D
100
DictionaryVariables
280
0
  1
1.4.4 @ 2026-10-01T19:08:21.329124+00:00
  0
DICTIONARYVAR
  5
13F
330
2D
100
DictionaryVariables
280
0
  1
1.4.4 @ 2026-10-01T19:08:21.387687+00:00
  0
ENDSEC
  0
EOF
