  0
SECTION
  2
HEADER
  9
$ACADVER
  1
AC1027
  9
$ACADMAINTVER
 70
105
  9
$DWGCODEPAGE
  3
ANSI_1252
  9
$LASTSAVEDBY
  1
ezdxf
  9
$REQUIREDVERSIONS
160
0
  9
$INSBASE
 10
0.0
 20
0.0
 30
0.0
  9
$EXTMIN
 10
1e+20
 20
1e+20
 30
1e+20
  9
$EXTMAX
 10
-1e+20
 20
-1e+20
 30
-1e+20
  9
$LIMMIN
 10
0.0
 20
0.0
  9
$LIMMAX
 10
420.0
 20
297.0
  9
$ORTHOMODE
 70
0
  9
$REGENMODE
 70
1
  9
$FILLMODE
 70
1
  9
$QTEXTMODE
 70
0
  9
$MIRRTEXT
 70
1
  9
$LTSCALE
 40
1.0
  9
$ATTMODE
 70
1
  9
$TEXTSIZE
 40
2.5
  9
$TRACEWID
 40
1.0
  9
$TEXTSTYLE
  7
Standard
  9
$CLAYER
  8
0
  9
$CELTYPE
  6
ByLayer
  9
$CECOLOR
 62
256
  9
$CELTSCALE
 40
1.0
  9
$DISPSILH
 70
0
  9
$DIMSCALE
 40
1.0
  9
$DIMASZ
 40
2.5
  9
$DIMEXO
 40
0.625
  9
$DIMDLI
 40
3.75
  9
$DIMRND
 40
0.0
  9
$DIMDLE
 40
0.0
  9
$DIMEXE
 40
1.25
  9
$DIMTP
 40
0.0
  9
$DIMTM
 40
0.0
  9
$DIMTXT
 40
2.5
  9
$DIMCEN
 40
2.5
  9
$DIMTSZ
 40
0.0
  9
$DIMTOL
 70
0
  9
$DIMLIM
 70
0
  9
$DIMTIH
 70
0
  9
$DIMTOH
 70
0
  9
$DIMSE1
 70
0
  9
$DIMSE2
 70
0
  9
$DIMTAD
 70
1
  9
$DIMZIN
 70
8
  9
$DIMBLK
  1

  9
$DIMASO
 70
1
  9
$DIMSHO
 70
1
  9
$DIMPOST
  1

  9
$DIMAPOST
  1

  9
$DIMALT
 70
0
  9
$DIMALTD
 70
3
  9
$DIMALTF
 40
0.03937007874
  9
$DIMLFAC
 40
1.0
  9
$DIMTOFL
 70
1
  9
$DIMTVP
 40
0.0
  9
$DIMTIX
 70
0
  9
$DIMSOXD
 70
0
  9
$DIMSAH
 70
0
  9
$DIMBLK1
  1

  9
$DIMBLK2
  1

  9
$DIMSTYLE
  2
ISO-25
  9
$DIMCLRD
 70
0
  9
$DIMCLRE
 70
0
  9
$DIMCLRT
 70
0
  9
$DIMTFAC
 40
1.0
  9
$DIMGAP
 40
0.625
  9
$DIMJUST
 70
0
  9
$DIMSD1
 70
0
  9
$DIMSD2
 70
0
  9
$DIMTOLJ
 70
0
  9
$DIMTZIN
 70
8
  9
$DIMALTZ
 70
0
  9
$DIMALTTZ
 70
0
  9
$DIMUPT
 70
0
  9
$DIMDEC
 70
2
  9
$DIMTDEC
 70
2
  9
$DIMALTU
 70
2
  9
$DIMALTTD
 70
3
  9
$DIMTXSTY
  7
Standard
  9
$DIMAUNIT
 70
0
  9
$DIMADEC
 70
0
  9
$DIMALTRND
 40
0.0
  9
$DIMAZIN
 70
0
  9
$DIMDSEP
 70
44
  9
$DIMATFIT
 70
3
  9
$DIMFRAC
 70
0
  9
$DIMLDRBLK
  1

  9
$DIMLUNIT
 70
2
  9
$DIMLWD
 70
-2
  9
$DIMLWE
 70
-2
  9
$DIMTMOVE
 70
0
  9
$DIMFXL
 40
1.0
  9
$DIMFXLON
 70
0
  9
$DIMJOGANG
 40
0.785398163397
  9
$DIMTFILL
 70
0
  9
$DIMTFILLCLR
 70
0
  9
$DIMARCSYM
 70
0
  9
$DIMLTYPE
  6

  9
$DIMLTEX1
  6

  9
$DIMLTEX2
  6

  9
$DIMTXTDIRECTION
 70
0
  9
$LUNITS
 70
2
  9
$LUPREC
 70
4
  9
$SKETCHINC
 40
1.0
  9
$FILLETRAD
 40
10.0
  9
$AUNITS
 70
0
  9
$AUPREC
 70
2
  9
$MENU
  1
.
  9
$ELEVATION
 40
0.0
  9
$PELEVATION
 40
0.0
  9
$THICKNESS
 40
0.0
  9
$LIMCHECK
 70
0
  9
$CHAMFERA
 40
0.0
  9
$CHAMFERB
 40
0.0
  9
$CHAMFERC
 40
0.0
  9
$CHAMFERD
 40
0.0
  9
$SKPOLY
 70
0
  9
$TDCREATE
 40
2461317.788321759
  9
$TDUCREATE
 40
2458532.153996898
  9
$TDUPDATE
 40
2461317.7883333336
  9
$TDUUPDATE
 40
2458532.1544311
  9
$TDINDWG
 40
0.0
  9
$TDUSRTIMER
 40
0.0
  9
$USRTIMER
 70
1
  9
$ANGBASE
 50
0.0
  9
$ANGDIR
 70
0
  9
$PDMODE
 70
0
  9
$PDSIZE
 40
0.0
  9
$PLINEWID
 40
0.0
  9
$SPLFRAME
 70
0
  9
$SPLINETYPE
 70
6
  9
$SPLINESEGS
 70
8
  9
$HANDSEED
  5
91
  9
$SURFTAB1
 70
6
  9
$SURFTAB2
 70
6
  9
$SURFTYPE
 70
6
  9
$SURFU
 70
6
  9
$SURFV
 70
6
  9
$UCSBASE
  2

  9
$UCSNAME
  2

  9
$UCSORG
 10
0.0
 20
0.0
 30
0.0
  9
$UCSXDIR
 10
1.0
 20
0.0
 30
0.0
  9
$UCSYDIR
 10
0.0
 20
1.0
 30
0.0
  9
$UCSORTHOREF
  2

  9
$UCSORTHOVIEW
 70
0
  9
$UCSORGTOP
 10
0.0
 20
0.0
 30
0.0
  9
$UCSORGBOTTOM
 10
0.0
 20
0.0
 30
0.0
  9
$UCSORGLEFT
 10
0.0
 20
0.0
 30
0.0
  9
$UCSORGRIGHT
 10
0.0
 20
0.0
 30
0.0
  9
$UCSORGFRONT
 10
0.0
 20
0.0
 30
0.0
  9
$UCSORGBACK
 10
0.0
 20
0.0
 30
0.0
  9
$PUCSBASE
  2

  9
$PUCSNAME
  2

  9
$PUCSORG
 10
0.0
 20
0.0
 30
0.0
  9
$PUCSXDIR
 10
1.0
 20
0.0
 30
0.0
  9
$PUCSYDIR
 10
0.0
 20
1.0
 30
0.0
  9
$PUCSORTHOREF
  2

  9
$PUCSORTHOVIEW
 70
0
  9
$PUCSORGTOP
 10
0.0
 20
0.0
 30
0.0
  9
$PUCSORGBOTTOM
 10
0.0
 20
0.0
 30
0.0
  9
$PUCSORGLEFT
 10
0.0
 20
0.0
 30
0.0
  9
$PUCSORGRIGHT
 10
0.0
 20
0.0
 30
0.0
  9
$PUCSORGFRONT
 10
0.0
 20
0.0
 30
0.0
  9
$PUCSORGBACK
 10
0.0
 20
0.0
 30
0.0
  9
$USERI1
 70
0
  9
$USERI2
 70
0
  9
$USERI3
 70
0
  9
$USERI4
 70
0
  9
$USERI5
 70
0
  9
$USERR1
 40
0.0
  9
$USERR2
 40
0.0
  9
$USERR3
 40
0.0
  9
$USERR4
 40
0.0
  9
$USERR5
 40
0.0
  9
$WORLDVIEW
 70
1
  9
$SHADEDGE
 70
3
  9
$SHADEDIF
 70
70
  9
$TILEMODE
 70
1
  9
$MAXACTVP
 70
64
  9
$PINSBASE
 10
0.0
 20
0.0
 30
0.0
  9
$PLIMCHECK
 70
0
  9
$PEXTMIN
 10
1e+20
 20
1e+20
 30
1e+20
  9
$PEXTMAX
 10
-1e+20
 20
-1e+20
 30
-1e+20
  9
$PLIMMIN
 10
0.0
 20
0.0
  9
$PLIMMAX
 10
420.0
 20
297.0
  9
$UNITMODE
 70
0
  9
$VISRETAIN
 70
1
  9
$PLINEGEN
 70
0
  9
$PSLTSCALE
 70
1
  9
$TREEDEPTH
 70
3020
  9
$CMLSTYLE
  2
Standard
  9
$CMLJUST
 70
0
  9
$CMLSCALE
 40
20.0
  9
$PROXYGRAPHICS
 70
1
  9
$MEASUREMENT
 70
1
  9
$CELWEIGHT
370
-1
  9
$ENDCAPS
280
0
  9
$JOINSTYLE
280
0
  9
$LWDISPLAY
290
0
  9
$INSUNITS
 70
4
  9
$HYPERLINKBASE
  1

  9
$STYLESHEET
  1

  9
$XEDIT
290
1
  9
$CEPSNTYPE
380
0
  9
$PSTYLEMODE
290
1
  9
$FINGERPRINTGUID
  2
{24FB55EF-5215-4A04-B174-62C4A96B0143}
  9
$VERSIONGUID
  2
{61A52781-36CD-424E-B428-25ED61AD05D8}
  9
$EXTNAMES
290
1
  9
$PSVPSCALE
 40
0.0
  9
$OLESTARTUP
290
0
  9
$SORTENTS
280
127
  9
$INDEXCTL
280
0
  9
$HIDETEXT
280
1
  9
$XCLIPFRAME
280
1
  9
$HALOGAP
280
0
  9
$OBSCOLOR
 70
257
  9
$OBSLTYPE
280
0
  9
$INTERSECTIONDISPLAY
280
0
  9
$INTERSECTIONCOLOR
 70
257
  9
$DIMASSOC
280
2
  9
$PROJECTNAME
  1

  9
$CAMERADISPLAY
290
0
  9
$LENSLENGTH
 40
50.0
  9
$CAMERAHEIGHT
 40
0.0
  9
$STEPSPERSEC
 40
24.0
  9
$STEPSIZE
 40
100.0
  9
$3DDWFPREC
 40
2.0
  9
$PSOLWIDTH
 40
0.005
  9
$PSOLHEIGHT
 40
0.08
  9
$LOFTANG1
 40
1.570796326795
  9
$LOFTANG2
 40
1.570796326795
  9
$LOFTMAG1
 40
0.0
  9
$LOFTMAG2
 40
0.0
  9
$LOFTPARAM
 70
7
  9
$LOFTNORMALS
280
1
  9
$LATITUDE
 40
37.795
  9
$LONGITUDE
 40
-122.394
  9
$NORTHDIRECTION
 40
0.0
  9
$TIMEZONE
 70
-8000
  9
$LIGHTGLYPHDISPLAY
280
1
  9
$TILEMODELIGHTSYNCH
280
1
  9
$CMATERIAL
347
20
  9
$SOLIDHIST
280
0
  9
$SHOWHIST
280
1
  9
$DWFFRAME
280
2
  9
$DGNFRAME
280
2
  9
$REALWORLDSCALE
290
1
  9
$INTERFERECOLOR
 62
256
  9
$CSHADOW
280
0
  9
$SHADOWPLANELOCATION
 40
0.0
  0
ENDSEC
  0
SECTION
  2
CLASSES
  0
CLASS
  1
ACDBDICTIONARYWDFLT
  2
AcDbDictionaryWithDefault
  3
ObjectDBX Classes
 90
0
 91
0
280
0
281
0
  0
CLASS
  1
SUN
  2
AcDbSun
  3
SCENEOE
 90
1153
 91
0
280
0
281
0
  0
CLASS
  1
VISUALSTYLE
  2
AcDbVisualStyle
  3
ObjectDBX Classes
 90
4095
 91
0
280
0
281
0
  0
CLASS
  1
MATERIAL
  2
AcDbMaterial
  3
ObjectDBX Classes
 90
1153
 91
0
280
0
281
0
  0
CLASS
  1
SCALE
  2
AcDbScale
  3
ObjectDBX Classes
 90
1153
 91
0
280
0
281
0
  0
CLASS
  1
TABLESTYLE
  2
AcDbTableStyle
  3
ObjectDBX Classes
 90
4095
 91
0
280
0
281
0
  0
CLASS
  1
MLEADERSTYLE
  2
AcDbMLeaderStyle
  3
ACDB_MLEADERSTYLE_CLASS
 90
4095
 91
0
280
0
281
0
  0
CLASS
  1
DICTIONARYVAR
  2
AcDbDictionaryVar
  3
ObjectDBX Classes
 90
0
 91
0
280
0
281
0
  0
CLASS
  1
CELLSTYLEMAP
  2
AcDbCellStyleMap
  3
ObjectDBX Classes
 90
1152
 91
0
280
0
281
0
  0
CLASS
  1
MENTALRAYRENDERSETTINGS
  2
AcDbMentalRayRenderSettings
  3
SCENEOE
 90
1024
 91
0
280
0
281
0
  0
CLASS
  1
ACDBDETAILVIEWSTYLE
  2
AcDbDetailViewStyle
  3
ObjectDBX Classes
 90
1025
 91
0
280
0
281
0
  0
CLASS
  1
ACDBSECTIONVIEWSTYLE
  2
AcDbSectionViewStyle
  3
ObjectDBX Classes
 90
1025
 91
0
280
0
281
0
  0
CLASS
  1
RASTERVARIABLES
  2
AcDbRasterVariables
  3
ISM
 90
0
 91
0
280
0
281
0
  0
CLASS
  1
LAYOUT
  2
AcDbLayout
  3
ObjectDBX Classes
 90
0
 91
0
280
0
281
0
  0
CLASS
  1
ACDBPLACEHOLDER
  2
AcDbPlaceHolder
  3
ObjectDBX Classes
 90
0
 91
0
280
0
281
0
  0
ENDSEC
  0
SECTION
  2
TABLES
  0
TABLE
  2
VPORT
  5
8
330
0
100
AcDbSymbolTable
 70
1
  0
VPORT
  5
8D
330
8
100
AcDbSymbolTableRecord
100
AcDbViewportTableRecord
  2
*Active
 70
0
 10
0.0
 20
0.0
 11
1.0
 21
1.0
 12
-0.5714330187455374
 22
-0.10173818031127979
 13
0.0
 23
0.0
 14
0.5
 24
0.5
 15
0.5
 25
0.5
 16
0.0
 26
0.0
 36
1.0
 17
0.0
 27
0.0
 37
0.0
 40
64.38385729822221
 41
1.34
 42
50.0
 43
0.0
 44
0.0
 50
0.0
 51
0.0
 71
0
 72
1000
 73
1
 74
3
 75
0
 76
0
 77
0
 78
0
281
0
 65
1
110
0.0
120
0.0
130
0.0
111
1.0
121
0.0
131
0.0
112
0.0
122
1.0
132
0.0
 79
0
146
0.0
  0
ENDTAB
  0
TABLE
  2
LTYPE
  5
2
330
0
100
AcDbSymbolTable
 70
3
  0
LTYPE
  5
24
330
2
100
AcDbSymbolTableRecord
100
AcDbLinetypeTableRecord
  2
ByBlock
 70
0
  3

 72
65
 73
0
 40
0.0
  0
LTYPE
  5
25
330
2
100
AcDbSymbolTableRecord
100
AcDbLinetypeTableRecord
  2
ByLayer
 70
0
  3

 72
65
 73
0
 40
0.0
  0
LTYPE
  5
26
330
2
100
AcDbSymbolTableRecord
100
AcDbLinetypeTableRecord
  2
Continuous
 70
0
  3

 72
65
 73
0
 40
0.0
  0
ENDTAB
  0
TABLE
  2
LAYER
  5
1
330
0
100
AcDbSymbolTable
 70
3
  0
LAYER
  5
27
330
1
100
AcDbSymbolTableRecord
100
AcDbLayerTableRecord
  2
0
 70
0
 62
7
  6
Continuous
370
-3
390
13
347
21
  0
LAYER
  5
28
330
1
100
AcDbSymbolTableRecord
100
AcDbLayerTableRecord
  2
Defpoints
 70
0
 62
7
  6
Continuous
290
0
370
-3
390
13
347
21
  0
LAYER
  5
2F
330
1
100
AcDbSymbolTableRecord
100
AcDbLayerTableRecord
  2
visible
 70
0
 62
7
  6
Continuous
370
-3
390
13
347
21
  0
ENDTAB
  0
TABLE
  2
STYLE
  5
5
330
0
100
AcDbSymbolTable
 70
1
  0
STYLE
  5
29
330
5
100
AcDbSymbolTableRecord
100
AcDbTextStyleTableRecord
  2
Standard
 70
0
 40
0.0
 41
1.0
 50
0.0
 71
0
 42
2.5
  3
txt
  4

  0
ENDTAB
  0
TABLE
  2
VIEW
  5
7
330
0
100
AcDbSymbolTable
 70
0
  0
ENDTAB
  0
TABLE
  2
UCS
  5
6
330
0
100
AcDbSymbolTable
 70
0
  0
ENDTAB
  0
TABLE
  2
APPID
  5
3
330
0
100
AcDbSymbolTable
 70
3
  0
APPID
  5
2A
330
3
100
AcDbSymbolTableRecord
100
AcDbRegAppTableRecord
  2
ACAD
 70
0
  0
APPID
  5
8E
330
3
100
AcDbSymbolTableRecord
100
AcDbRegAppTableRecord
  2
HATCHBACKGROUNDCOLOR
 70
0
  0
APPID
  5
8F
330
3
100
AcDbSymbolTableRecord
100
AcDbRegAppTableRecord
  2
EZDXF
 70
0
  0
ENDTAB
  0
TABLE
  2
DIMSTYLE
  5
4
330
0
100
AcDbSymbolTable
 70
1
100
AcDbDimStyleTable
  0
DIMSTYLE
105
2B
330
4
100
AcDbSymbolTableRecord
100
AcDbDimStyleTableRecord
  2
Standard
 70
0
 40
1.0
 41
2.5
 42
0.625
 43
3.75
 44
1.25
 45
0.0
 46
0.0
 47
0.0
 48
0.0
 49
2.5
140
2.5
141
2.5
142
0.0
143
0.03937007874
144
1.0
145
0.0
146
1.0
147
0.625
148
0.0
 69
0
 70
0
 71
0
 72
0
 73
0
 74
0
 75
0
 76
0
 77
1
 78
8
 79
3
170
0
171
3
172
1
173
0
174
0
175
0
176
0
177
0
178
0
179
2
271
2
272
2
273
2
274
3
275
0
276
0
277
2
278
44
279
0
280
0
281
0
282
0
283
0
284
8
285
0
286
0
288
0
289
3
290
0
371
-2
372
-2
  0
ENDTAB
  0
TABLE
  2
BLOCK_RECORD
  5
9
330
0
100
AcDbSymbolTable
 70
2
  0
BLOCK_RECORD
  5
17
330
9
100
AcDbSymbolTableRecord
100
AcDbBlockTableRecord
  2
*Model_Space
340
1A
 70
0
280
1
281
0
  0
BLOCK_RECORD
  5
1B
330
9
100
AcDbSymbolTableRecord
100
AcDbBlockTableRecord
  2
*Paper_Space
340
1E
 70
0
280
1
281
0
  0
ENDTAB
  0
ENDSEC
  0
SECTION
  2
BLOCKS
  0
BLOCK
  5
18
330
17
100
AcDbEntity
  8
0
100
AcDbBlockBegin
  2
*Model_Space
 70
0
 10
0.0
 20
0.0
 30
0.0
  3
*Model_Space
  1

  0
ENDBLK
  5
19
330
17
100
AcDbEntity
  8
0
100
AcDbBlockEnd
  0
BLOCK
  5
1C
330
1B
100
AcDbEntity
  8
0
100
AcDbBlockBegin
  2
*Paper_Space
 70
0
 10
0.0
 20
0.0
 30
0.0
  3
*Paper_Space
  1

  0
ENDBLK
  5
1D
330
1B
100
AcDbEntity
  8
0
100
AcDbBlockEnd
  0
ENDSEC
  0
SECTION
  2
ENTITIES
  0
LINE
  5
30
330
17
100
AcDbEntity
  8
visible
100
AcDbLine
 10
-5.320231902464636
 20
30.23595137005477
 30
0.0
 11
-7.234973979052973
 21
29.10283990626616
 31
0.0
  0
ELLIPSE
  5
31
330
17
100
AcDbEntity
  8
visible
100
AcDbEllipse
 10
-7.234973979052974
 20
12.065478553742764
 30
0.0
 11
3.1184753655386745
 21
17.72780616417408
 31
0.0
 40
0.4530854535516187
 41
-5.912852407721808
 42
-4.342056080926912
  0
LINE
  5
32
330
17
100
AcDbEntity
  8
visible
100
AcDbLine
 10
-15.851313323700488
 20
6.966476966694003
 30
0.0
 11
-15.851313323700488
 21
3.180396666133248
 31
0.0
  0
LINE
  5
33
330
17
100
AcDbEntity
  8
visible
100
AcDbLine
 10
-15.851313323700488
 20
3.180396666133248
 30
0.0
 11
-15.851313323700488
 21
-23.795425475362144
 31
0.0
  0
ELLIPSE
  5
34
330
17
100
AcDbEntity
  8
visible
100
AcDbEllipse
 10
-7.234973979052974
 20
-18.69642388831339
 30
0.0
 11
3.1184753655386745
 21
17.72780616417408
 31
0.0
 40
0.4530854535516187
 41
-4.342056080926912
 42
-3.7624717405085564
  0
SPLINE
  5
35
330
17
100
AcDbEntity
  8
visible
100
AcDbSpline
 70
0
 71
2
 72
6
 73
3
 74
0
 40
0.0
 40
0.0
 40
0.0
 40
1.0
 40
1.0
 40
1.0
 10
-14.444182125185215
 20
-32.29366682942238
 30
0.0
 10
-14.619399084819326
 20
-32.22225218548717
 30
0.0
 10
-14.779933695970861
 20
-32.19347860146398
 30
0.0
  0
LINE
  5
36
330
17
100
AcDbEntity
  8
visible
100
AcDbLine
 10
-14.779933695970875
 20
-32.19347860146399
 30
0.0
 11
-19.90584862383571
 21
-31.291785561707187
 31
0.0
  0
SPLINE
  5
37
330
17
100
AcDbEntity
  8
visible
100
AcDbSpline
 70
0
 71
2
 72
6
 73
3
 74
0
 40
0.0
 40
0.0
 40
0.0
 40
1.0
 40
1.0
 40
1.0
 10
-14.444182125271219
 20
-32.29366682855337
 30
0.0
 10
-14.2663638852374
 20
-32.12866791407513
 30
0.0
 10
-14.070902297916831
 20
-32.01770555587514
 30
0.0
  0
ELLIPSE
  5
38
330
17
100
AcDbEntity
  8
visible
100
AcDbEllipse
 10
-5.320231902464634
 20
-17.56331242452478
 30
0.0
 11
3.1184753655386745
 21
17.72780616417408
 31
0.0
 40
0.4530854535516187
 41
-1.7800477677554742
 42
-1.2401343759413794
  0
SPLINE
  5
39
330
17
100
AcDbEntity
  8
visible
100
AcDbSpline
 70
0
 71
3
 72
8
 73
4
 74
0
 40
0.0
 40
0.0
 40
0.0
 40
0.0
 40
1.0
 40
1.0
 40
1.0
 40
1.0
 10
1.8889762437536157
 20
-22.627984325355328
 30
0.0
 10
1.771213073705022
 20
-22.654682241374097
 30
0.0
 10
1.6452218179723201
 20
-22.717180569780655
 30
0.0
 10
1.5156964163992228
 20
-22.793824229710754
 30
0.0
  0
LINE
  5
3A
330
17
100
AcDbEntity
  8
visible
100
AcDbLine
 10
1.5156964163992264
 20
-22.793824229710744
 30
0.0
 11
-14.070902297916831
 21
-32.01770555587513
 31
0.0
  0
ELLIPSE
  5
3B
330
17
100
AcDbEntity
  8
visible
100
AcDbEllipse
 10
-6.277602940758804
 20
8.84595398507632
 30
0.0
 11
-3.4649726283763
 21
-19.697562404637864
 31
0.0
 40
0.45308545355161867
 41
5.082721879842468
 42
6.283185307179586
  0
ELLIPSE
  5
3C
330
17
100
AcDbEntity
  8
visible
100
AcDbEllipse
 10
-1.4907477492879622
 20
-18.136649722368105
 30
0.0
 11
-0.38980942069233376
 21
-2.21597577052176
 31
0.0
 40
0.4530854535516187
 41
0.37033289945777803
 42
3.141592653589793
  0
ELLIPSE
  5
3D
330
17
100
AcDbEntity
  8
visible
100
AcDbEllipse
 10
-1.4907477492879622
 20
-18.136649722368105
 30
0.0
 11
-0.38980942069233376
 21
-2.21597577052176
 31
0.0
 40
0.4530854535516187
 41
3.141592653589793
 42
6.283185307179586
  0
ELLIPSE
  5
3E
330
17
100
AcDbEntity
  8
visible
100
AcDbEllipse
 10
-1.4907477492879622
 20
-18.136649722368105
 30
0.0
 11
-0.38980942069233376
 21
-2.21597577052176
 31
0.0
 40
0.4530854535516187
 41
0.0
 42
0.3703328994577779
  0
ELLIPSE
  5
3F
330
17
100
AcDbEntity
  8
visible
100
AcDbEllipse
 10
-11.064458132229646
 20
-23.802207041311178
 30
0.0
 11
-0.38980942069233376
 21
-2.21597577052176
 31
0.0
 40
0.4530854535516187
 41
0.37033289945777803
 42
3.141592653589793
  0
ELLIPSE
  5
40
330
17
100
AcDbEntity
  8
visible
100
AcDbEllipse
 10
-11.064458132229646
 20
-23.802207041311178
 30
0.0
 11
-0.38980942069233376
 21
-2.21597577052176
 31
0.0
 40
0.4530854535516187
 41
3.141592653589793
 42
6.283185307179586
  0
ELLIPSE
  5
41
330
17
100
AcDbEntity
  8
visible
100
AcDbEllipse
 10
-11.064458132229646
 20
-23.802207041311178
 30
0.0
 11
-0.38980942069233376
 21
-2.21597577052176
 31
0.0
 40
0.4530854535516187
 41
0.0
 42
0.3703328994577779
  0
ELLIPSE
  5
42
330
17
100
AcDbEntity
  8
visible
100
AcDbEllipse
 10
-12.644833708786933
 20
-23.524205225511054
 30
0.0
 11
-0.38980942069233376
 21
-2.21597577052176
 31
0.0
 40
0.4530854535516187
 41
0.9059619042013264
 42
2.235630749388463
  0
ELLIPSE
  5
43
330
17
100
AcDbEntity
  8
visible
100
AcDbEllipse
 10
-3.0711233258452495
 20
-17.858647906567995
 30
0.0
 11
-0.38980942069233376
 21
-2.21597577052176
 31
0.0
 40
0.4530854535516187
 41
0.9059619042013264
 42
2.2356307493884695
  0
ELLIPSE
  5
44
330
17
100
AcDbEntity
  8
visible
100
AcDbEllipse
 10
14.488605302569098
 20
16.439985997023726
 30
0.0
 11
-0.38980942069233376
 21
-2.21597577052176
 31
0.0
 40
0.4530854535516187
 41
1.1582203319738333
 42
2.235630749388463
  0
ELLIPSE
  5
45
330
17
100
AcDbEntity
  8
visible
100
AcDbEllipse
 10
16.068980879126393
 20
16.161984181223616
 30
0.0
 11
-0.38980942069233376
 21
-2.21597577052176
 31
0.0
 40
0.4530854535516187
 41
0.7937583971272454
 42
3.141592653589793
  0
ELLIPSE
  5
46
330
17
100
AcDbEntity
  8
visible
100
AcDbEllipse
 10
16.068980879126393
 20
16.161984181223616
 30
0.0
 11
-0.38980942069233376
 21
-2.21597577052176
 31
0.0
 40
0.4530854535516187
 41
3.141592653589793
 42
5.098061736507664
  0
ELLIPSE
  5
47
330
17
100
AcDbEntity
  8
visible
100
AcDbEllipse
 10
11.282125687655551
 20
5.757044920630577
 30
0.0
 11
-3.4649726283763
 21
-19.697562404637864
 31
0.0
 40
0.45308545355161867
 41
5.366515989050806
 42
6.283185307179586
  0
ELLIPSE
  5
48
330
17
100
AcDbEntity
  8
visible
100
AcDbEllipse
 10
11.282125687655551
 20
5.757044920630577
 30
0.0
 11
-3.4649726283763
 21
-19.697562404637864
 31
0.0
 40
0.45308545355161867
 41
0.0
 42
0.3703328994577779
  0
ELLIPSE
  5
49
330
17
100
AcDbEntity
  8
visible
100
AcDbEllipse
 10
11.282125687655551
 20
5.757044920630577
 30
0.0
 11
-3.4649726283763
 21
-19.697562404637864
 31
0.0
 40
0.45308545355161867
 41
0.37033289945777803
 42
1.6573351170443442
  0
ELLIPSE
  5
4A
330
17
100
AcDbEntity
  8
visible
100
AcDbEllipse
 10
11.282125687655551
 20
5.757044920630577
 30
0.0
 11
-3.4649726283763
 21
-19.697562404637864
 31
0.0
 40
0.45308545355161867
 41
2.244616519820015
 42
3.141592653589793
  0
ELLIPSE
  5
4B
330
17
100
AcDbEntity
  8
visible
100
AcDbEllipse
 10
11.282125687655551
 20
5.757044920630577
 30
0.0
 11
-3.4649726283763
 21
-19.697562404637864
 31
0.0
 40
0.45308545355161867
 41
3.141592653589793
 42
4.779234586275127
  0
ELLIPSE
  5
4C
330
17
100
AcDbEntity
  8
visible
100
AcDbEllipse
 10
6.495270496184709
 20
10.496426862280558
 30
0.0
 11
-0.38980942069233376
 21
-2.21597577052176
 31
0.0
 40
0.4530854535516187
 41
1.7472671022227244
 42
3.141592653589793
  0
ELLIPSE
  5
4D
330
17
100
AcDbEntity
  8
visible
100
AcDbEllipse
 10
6.495270496184709
 20
10.496426862280558
 30
0.0
 11
-0.38980942069233376
 21
-2.21597577052176
 31
0.0
 40
0.4530854535516187
 41
3.141592653589793
 42
6.283185307179586
  0
ELLIPSE
  5
4E
330
17
100
AcDbEntity
  8
visible
100
AcDbEllipse
 10
6.495270496184709
 20
10.496426862280558
 30
0.0
 11
-0.38980942069233376
 21
-2.21597577052176
 31
0.0
 40
0.4530854535516187
 41
0.0
 42
0.3703328994577779
  0
ELLIPSE
  5
4F
330
17
100
AcDbEntity
  8
visible
100
AcDbEllipse
 10
6.495270496184709
 20
10.496426862280558
 30
0.0
 11
-0.38980942069233376
 21
-2.21597577052176
 31
0.0
 40
0.4530854535516187
 41
0.37033289945777803
 42
0.3828752490862394
  0
ELLIPSE
  5
50
330
17
100
AcDbEntity
  8
visible
100
AcDbEllipse
 10
11.282125687655551
 20
1.9709646200698216
 30
0.0
 11
2.41619647368772
 21
13.735514223854663
 31
0.0
 40
0.4530854535516186
 41
-5.116218333464249
 42
-3.4394122943301126
  0
ELLIPSE
  5
51
330
17
100
AcDbEntity
  8
visible
100
AcDbEllipse
 10
11.282125687655551
 20
1.9709646200698216
 30
0.0
 11
2.41619647368772
 21
13.735514223854663
 31
0.0
 40
0.4530854535516186
 41
-5.9853656664392645
 42
-5.320009929585962
  0
LINE
  5
52
330
17
100
AcDbEntity
  8
visible
100
AcDbLine
 10
6.530132067066775
 20
8.360624239543599
 30
0.0
 11
6.830211185427688
 21
8.307837711438829
 31
0.0
  0
SPLINE
  5
53
330
17
100
AcDbEntity
  8
visible
100
AcDbSpline
 70
0
 71
1
 72
4
 73
2
 74
0
 40
0.0
 40
0.0
 40
1.0
 40
1.0
 10
6.530132067066759
 20
8.360624239543597
 30
0.0
 10
6.508778784584443
 20
8.374918173784607
 30
0.0
  0
LINE
  5
54
330
17
100
AcDbEntity
  8
visible
100
AcDbLine
 10
5.768504423235292
 20
8.494601169514866
 30
0.0
 11
6.495270496184704
 21
8.366756693215132
 31
0.0
  0
ELLIPSE
  5
55
330
17
100
AcDbEntity
  8
visible
100
AcDbEllipse
 10
4.9148949196274145
 20
10.774428678080668
 30
0.0
 11
-0.38980942069233376
 21
-2.21597577052176
 31
0.0
 40
0.4530854535516187
 41
0.9059619042013312
 42
2.235630749388463
  0
SPLINE
  5
56
330
17
100
AcDbEntity
  8
visible
100
AcDbSpline
 70
0
 71
2
 72
6
 73
3
 74
0
 40
0.0
 40
0.0
 40
0.0
 40
1.0
 40
1.0
 40
1.0
 10
7.734026325564066
 20
10.753847621248084
 30
0.0
 10
7.63999482533716
 20
10.7702170163959
 30
0.0
 10
7.5521372351281
 20
10.711581271065086
 30
0.0
  0
LINE
  5
57
330
17
100
AcDbEntity
  8
visible
100
AcDbLine
 10
7.734026325564056
 20
10.753847621248084
 30
0.0
 11
7.909623611848208
 21
10.722958530603625
 31
0.0
  0
LINE
  5
58
330
17
100
AcDbEntity
  8
visible
100
AcDbLine
 10
6.648703106576175
 20
8.323201937485962
 30
0.0
 11
6.824300392860327
 21
8.292312846841503
 31
0.0
  0
SPLINE
  5
59
330
17
100
AcDbEntity
  8
visible
100
AcDbSpline
 70
0
 71
2
 72
6
 73
3
 74
0
 40
0.0
 40
0.0
 40
0.0
 40
1.0
 40
1.0
 40
1.0
 10
6.648703106576171
 20
8.323201937485948
 30
0.0
 10
6.575228494773906
 20
8.335984245835185
 30
0.0
 10
6.530132067066759
 20
8.360624239543597
 30
0.0
  0
ELLIPSE
  5
5A
330
17
100
AcDbEntity
  8
visible
100
AcDbEllipse
 10
11.633320260223847
 20
1.9091864387809068
 30
0.0
 11
-2.42548083986341
 21
-13.788293683246506
 31
0.0
 40
0.45308545355161867
 41
4.101061880472518
 42
4.312265778016031
  0
SPLINE
  5
5B
330
17
100
AcDbEntity
  8
visible
100
AcDbSpline
 70
0
 71
1
 72
4
 73
2
 74
0
 40
0.0
 40
0.0
 40
0.031278610789406865
 40
0.031278610789406865
 10
20.570360727034114
 20
15.110406925462883
 30
0.0
 10
20.570446747397412
 20
15.164034481921576
 30
0.0
  0
SPLINE
  5
5C
330
17
100
AcDbEntity
  8
visible
100
AcDbSpline
 70
0
 71
3
 72
8
 73
4
 74
0
 40
0.0
 40
0.0
 40
0.0
 40
0.0
 40
1.0
 40
1.0
 40
1.0
 40
1.0
 10
20.57044674739742
 20
15.164034481921576
 30
0.0
 10
20.568966339797694
 20
15.718488532986777
 30
0.0
 10
20.513045792849017
 20
16.27721519310216
 30
0.0
 10
20.418318621220603
 20
16.821036316637105
 30
0.0
  0
SPLINE
  5
5D
330
17
100
AcDbEntity
  8
visible
100
AcDbSpline
 70
0
 71
3
 72
8
 73
4
 74
0
 40
0.0
 40
0.0
 40
0.0
 40
0.0
 40
1.0
 40
1.0
 40
1.0
 40
1.0
 10
20.570498504355346
 20
7.473806400805533
 30
0.0
 10
20.57030631506502
 20
6.947720931684818
 30
0.0
 10
20.543428408977707
 20
6.417469987606715
 30
0.0
 10
20.472887655279564
 20
5.895467526030842
 30
0.0
  0
SPLINE
  5
5E
330
17
100
AcDbEntity
  8
visible
100
AcDbSpline
 70
0
 71
3
 72
8
 73
4
 74
0
 40
0.0
 40
0.0
 40
0.0
 40
0.0
 40
1.0
 40
1.0
 40
1.0
 40
1.0
 10
2.145932754090502
 20
6.007752297880174
 30
0.0
 10
2.0473012258617382
 20
5.330223708850828
 30
0.0
 10
1.940259723097097
 20
4.655967631832209
 30
0.0
 10
1.8097964203201258
 20
4.008227293541921
 30
0.0
  0
SPLINE
  5
5F
330
17
100
AcDbEntity
  8
visible
100
AcDbSpline
 70
0
 71
3
 72
8
 73
4
 74
0
 40
0.0
 40
0.0
 40
0.0
 40
0.0
 40
0.9999998493091817
 40
0.9999998493091817
 40
0.9999998493091817
 40
0.9999998493091817
 10
1.0060261595772957
 20
0.2150439642653479
 30
0.0
 10
1.2389350615496466
 20
1.4360499222277519
 30
0.0
 10
1.542081981309916
 20
2.6963519441358668
 30
0.0
 10
1.8097964201834273
 20
4.008227293550376
 30
0.0
  0
SPLINE
  5
60
330
17
100
AcDbEntity
  8
visible
100
AcDbSpline
 70
0
 71
3
 72
11
 73
7
 74
0
 40
0.0
 40
0.0
 40
0.0
 40
0.0
 40
0.6557507204090933
 40
0.6557507204090933
 40
0.6557507204090933
 40
1.0
 40
1.0
 40
1.0
 40
1.0
 10
1.0060261595772957
 20
0.2150439642653481
 30
0.0
 10
1.2210021780696623
 20
-0.9856151627018256
 30
0.0
 10
1.4942023071996808
 20
-2.15694694553553
 30
0.0
 10
1.7462503502147615
 20
-3.278002915635761
 30
0.0
 10
1.8768515267998636
 20
-3.863628587502224
 30
0.0
 10
2.0025220914918256
 20
-4.4368064843078825
 30
0.0
 10
2.091363720031538
 20
-4.98240252633984
 30
0.0
  0
ELLIPSE
  5
61
330
17
100
AcDbEntity
  8
visible
100
AcDbEllipse
 10
11.457722973939688
 20
1.940075529425357
 30
0.0
 11
-2.42548083986341
 21
-13.788293683246506
 31
0.0
 40
0.45308545355161867
 41
3.141592653589794
 42
4.101061880472517
  0
ELLIPSE
  5
62
330
17
100
AcDbEntity
  8
visible
100
AcDbEllipse
 10
11.457722973939688
 20
1.940075529425357
 30
0.0
 11
-2.42548083986341
 21
-13.788293683246506
 31
0.0
 40
0.45308545355161867
 41
4.312265778016032
 42
6.283185307179586
  0
ELLIPSE
  5
63
330
17
100
AcDbEntity
  8
visible
100
AcDbEllipse
 10
-6.277602940758804
 20
8.84595398507632
 30
0.0
 11
-3.4649726283763
 21
-19.697562404637864
 31
0.0
 40
0.45308545355161867
 41
3.141592653589793
 42
5.082721879842468
  0
ELLIPSE
  5
64
330
17
100
AcDbEntity
  8
visible
100
AcDbEllipse
 10
-5.320231902464634
 20
13.198590017531373
 30
0.0
 11
3.1184753655386745
 21
17.72780616417408
 31
0.0
 40
0.4530854535516187
 41
-6.283185307179586
 42
-5.912852407721808
  0
ELLIPSE
  5
65
330
17
100
AcDbEntity
  8
visible
100
AcDbEllipse
 10
-5.320231902464634
 20
13.198590017531373
 30
0.0
 11
3.1184753655386745
 21
17.72780616417408
 31
0.0
 40
0.4530854535516187
 41
-0.5281515609492711
 42
-0.0
  0
SPLINE
  5
66
330
17
100
AcDbEntity
  8
visible
100
AcDbSpline
 70
0
 71
3
 72
8
 73
4
 74
0
 40
0.0
 40
0.0
 40
0.0
 40
0.0
 40
0.5268130427972855
 40
0.5268130427972855
 40
0.5268130427972855
 40
0.5268130427972855
 10
-19.905848623835713
 20
-31.291785561707187
 30
0.0
 10
-20.109831860825775
 20
-31.256509707822193
 30
0.0
 10
-20.246586445194048
 20
-31.185829464220337
 30
0.0
 10
-20.27762047664514
 20
-31.10723276623152
 30
0.0
  0
ELLIPSE
  5
67
330
17
100
AcDbEntity
  8
visible
100
AcDbEllipse
 10
-12.678489853861425
 20
29.303185656132186
 30
0.0
 11
-0.4074292242236359
 21
0.6884776156481243
 31
0.0
 40
0.831031783040404
 41
5.664380554092308
 42
6.283185307179586
  0
LINE
  5
68
330
17
100
AcDbEntity
  8
visible
100
AcDbLine
 10
-12.678489853861425
 20
30.060401716244343
 30
0.0
 11
-10.763747777273087
 21
31.193513180032955
 31
0.0
  0
ELLIPSE
  5
69
330
17
100
AcDbEntity
  8
visible
100
AcDbEllipse
 10
-10.763747777273089
 20
30.43629711992081
 30
0.0
 11
-0.4074292242236359
 21
0.6884776156481243
 31
0.0
 40
0.8310317830404041
 41
5.6643805540923085
 42
6.283185307179586
  0
LINE
  5
6A
330
17
100
AcDbEntity
  8
visible
100
AcDbLine
 10
-10.763747777273085
 20
31.193513180032966
 30
0.0
 11
-5.320231902464633
 21
30.235951370054785
 31
0.0
  0
LINE
  5
6B
330
17
100
AcDbEntity
  8
visible
100
AcDbLine
 10
-12.678489853861425
 20
30.060401716244343
 30
0.0
 11
-7.234973979052973
 21
29.102839906266162
 31
0.0
  0
ELLIPSE
  5
6C
330
17
100
AcDbEntity
  8
visible
100
AcDbEllipse
 10
-12.678489853861425
 20
13.023040363720938
 30
0.0
 11
3.1184753655386745
 21
17.72780616417408
 31
0.0
 40
0.4530854535516187
 41
-5.912852407721808
 42
-4.342056080926912
  0
LINE
  5
6D
330
17
100
AcDbEntity
  8
visible
100
AcDbLine
 10
-21.29482919850894
 20
7.924038776672192
 30
0.0
 11
-15.851313323700488
 21
6.966476966694011
 31
0.0
  0
LINE
  5
6E
330
17
100
AcDbEntity
  8
visible
100
AcDbLine
 10
-21.29482919850894
 20
-22.83786366538397
 30
0.0
 11
-21.29482919850894
 21
7.924038776672177
 31
0.0
  0
LINE
  5
6F
330
17
100
AcDbEntity
  8
visible
100
AcDbLine
 10
-21.29482919850894
 20
-22.83786366538397
 30
0.0
 11
-15.851313323700488
 21
-23.79542547536215
 31
0.0
  0
ELLIPSE
  5
70
330
17
100
AcDbEntity
  8
visible
100
AcDbEllipse
 10
-12.678489853861425
 20
-17.738862078335217
 30
0.0
 11
3.118475365538676
 21
17.72780616417408
 31
0.0
 40
0.4530854535516186
 41
-4.342056080926911
 42
-3.766329432946721
  0
LINE
  5
71
330
17
100
AcDbEntity
  8
visible
100
AcDbLine
 10
2.091363720031538
 20
-4.982402526340049
 30
0.0
 11
2.091363720031538
 21
4.104190195005977
 31
0.0
  0
ELLIPSE
  5
72
330
17
100
AcDbEntity
  8
visible
100
AcDbEllipse
 10
10.324754649361381
 20
8.97656948929702
 30
0.0
 11
2.9798764604036223
 21
16.939903667988563
 31
0.0
 40
0.45308545355161867
 41
-4.457252484783002
 42
-4.342056080926912
  0
LINE
  5
73
330
17
100
AcDbEntity
  8
visible
100
AcDbLine
 10
20.472887655279564
 20
14.982060247376666
 30
0.0
 11
20.472887655279564
 21
5.895467526030801
 31
0.0
  0
ELLIPSE
  5
74
330
17
100
AcDbEntity
  8
visible
100
AcDbEllipse
 10
12.23949672594972
 20
10.109680953085629
 30
0.0
 11
2.9798764604036223
 21
16.939903667988563
 31
0.0
 40
0.45308545355161867
 41
-1.2004634273371184
 42
-1.0852670234810289
  0
ELLIPSE
  5
75
330
17
100
AcDbEntity
  8
visible
100
AcDbEllipse
 10
19.770498510143
 20
15.105616609954495
 30
0.0
 11
-0.8
 21
-7.037714595503248e-17
 31
0.0
 40
0.32264492457903476
 41
-3.141592653589793
 42
-3.123032813605416
  0
ELLIPSE
  5
76
330
17
100
AcDbEntity
  8
visible
100
AcDbEllipse
 10
19.770498510143
 20
15.105616609954495
 30
0.0
 11
-0.8
 21
-7.037714595503248e-17
 31
0.0
 40
0.32264492457903476
 41
-3.6407495999517896
 42
-3.141592653589793
  0
ELLIPSE
  5
77
330
17
100
AcDbEntity
  8
visible
100
AcDbEllipse
 10
1.3889745748949593
 20
4.227746557583814
 30
0.0
 11
0.8
 21
2.345904865167749e-17
 31
0.0
 40
0.3226449245790346
 41
5.266311574471216
 42
5.78402836081759
  0
ELLIPSE
  5
78
330
17
100
AcDbEntity
  8
visible
100
AcDbEllipse
 10
12.072313475934195
 20
1.8319637121697525
 30
0.0
 11
-2.42548083986341
 21
-13.788293683246506
 31
0.0
 40
0.45308545355161867
 41
3.141592653589793
 42
6.283185307179586
  0
ELLIPSE
  5
79
330
17
100
AcDbEntity
  8
visible
100
AcDbEllipse
 10
12.423508048502477
 20
1.7701855308808518
 30
0.0
 11
-2.356181387295884
 21
-13.394342435153748
 31
0.0
 40
0.45308545355161867
 41
0.37033289945777803
 42
6.653518206637364
  0
ELLIPSE
  5
7A
330
17
100
AcDbEntity
  8
visible
100
AcDbEllipse
 10
-10.763747777273089
 20
14.15615182750956
 30
0.0
 11
3.1184753655386745
 21
17.72780616417408
 31
0.0
 40
0.4530854535516187
 41
-6.283185307179586
 42
-5.912852407721808
  0
ELLIPSE
  5
7B
330
17
100
AcDbEntity
  8
visible
100
AcDbEllipse
 10
-20.911880783191272
 20
-22.611241372626246
 30
0.0
 11
-0.8
 21
-9.383619460670999e-17
 31
0.0
 40
0.3226449245790349
 41
-6.283185307179586
 42
-5.211545926746686
  0
ELLIPSE
  5
7C
330
17
100
AcDbEntity
  8
visible
100
AcDbEllipse
 10
-20.911880783191272
 20
8.150661069429901
 30
0.0
 11
-0.8
 21
-2.345904865167749e-17
 31
0.0
 40
0.3226449245790346
 41
-6.283185307179586
 42
-5.211545926746686
  0
LINE
  5
7D
330
17
100
AcDbEntity
  8
visible
100
AcDbLine
 10
-13.085919078085059
 20
29.991663271780325
 30
0.0
 11
-11.171177001496721
 21
31.124774735568938
 31
0.0
  0
SPLINE
  5
7E
330
17
100
AcDbEntity
  8
visible
100
AcDbSpline
 70
0
 71
1
 72
4
 73
2
 74
0
 40
0.0
 40
0.0
 40
1.0
 40
1.0
 10
20.57049851014299
 20
15.105616609954495
 30
0.0
 10
20.5704467365401
 20
15.164034480284116
 30
0.0
  0
LINE
  5
7F
330
17
100
AcDbEntity
  8
visible
100
AcDbLine
 10
20.57049851014299
 20
15.105616609954495
 30
0.0
 11
20.57049851014299
 21
7.473806394243012
 31
0.0
  0
SPLINE
  5
80
330
17
100
AcDbEntity
  8
visible
100
AcDbSpline
 70
0
 71
3
 72
8
 73
4
 74
0
 40
0.0
 40
0.0
 40
0.0
 40
0.0
 40
1.0
 40
1.0
 40
1.0
 40
1.0
 10
13.8832038138031
 20
15.728369212671865
 30
0.0
 10
13.196048950917245
 20
15.850022404131865
 30
0.0
 10
12.473466065305152
 20
15.74118827656339
 30
0.0
 10
11.76579605422338
 20
15.423059427009676
 30
0.0
  0
LINE
  5
81
330
17
100
AcDbEntity
  8
visible
100
AcDbLine
 10
9.032242134076274
 20
-11.848218153821165
 30
0.0
 11
9.646832636070778
 21
-11.956329971076766
 31
0.0
  0
LINE
  5
82
330
17
100
AcDbEntity
  8
visible
100
AcDbLine
 10
13.883203813803096
 20
15.728369212671865
 30
0.0
 11
14.4977943157976
 21
15.620257395416264
 31
0.0
  0
SPLINE
  5
83
330
17
100
AcDbEntity
  8
visible
100
AcDbSpline
 70
0
 71
3
 72
26
 73
22
 74
0
 40
0.0
 40
0.0
 40
0.0
 40
0.0
 40
0.1596116137545835
 40
0.1596116137545835
 40
0.1596116137545835
 40
0.4832139278744105
 40
0.4832139278744105
 40
0.4832139278744105
 40
0.5630197347517022
 40
0.5630197347517022
 40
0.5630197347517022
 40
0.642825541628994
 40
0.642825541628994
 40
0.642825541628994
 40
0.8024371553835774
 40
0.8024371553835774
 40
0.8024371553835774
 40
0.888402682561967
 40
0.888402682561967
 40
0.888402682561967
 40
1.0
 40
1.0
 40
1.0
 40
1.0
 10
12.276028088046012
 20
-11.384948117560882
 30
0.0
 10
12.86306234329205
 20
-11.035955424710503
 30
0.0
 10
13.433308389993305
 20
-10.556910539407031
 30
0.0
 10
13.98676622814979
 20
-9.947813461650444
 30
0.0
 10
15.104917565168046
 20
-8.72061794260235
 30
0.0
 10
16.129850426875883
 20
-6.982764312242065
 30
0.0
 10
16.94881736753714
 20
-4.94309123681468
 30
0.0
 10
17.6445732284836
 20
-3.214341151944555
 30
0.0
 10
18.190510104855466
 20
-1.2714710795933044
 30
0.0
 10
18.53698823162998
 20
0.7061171304354894
 30
0.0
 10
18.88472438237959
 20
2.683487889199647
 30
0.0
 10
19.033001783531873
 20
4.695576785641353
 30
0.0
 10
18.967405341367133
 20
6.556893334547212
 30
0.0
 10
18.892225143514125
 20
8.740076209868866
 30
0.0
 10
18.523819134689766
 20
10.711443699078279
 30
0.0
 10
17.896348325960172
 20
12.240137181496346
 30
0.0
 10
17.558796735797273
 20
13.064503825168025
 30
0.0
 10
17.147076879293834
 20
13.763192820385186
 30
0.0
 10
16.668137080198086
 20
14.311023808503977
 30
0.0
 10
16.048191562851216
 20
15.02236343627511
 30
0.0
 10
15.3057513494663
 20
15.47931316790762
 30
0.0
 10
14.497794315797606
 20
15.620257395416262
 30
0.0
  0
SPLINE
  5
84
330
17
100
AcDbEntity
  8
visible
100
AcDbSpline
 70
0
 71
3
 72
8
 73
4
 74
0
 40
0.0
 40
0.0
 40
0.0
 40
0.0
 40
1.0
 40
1.0
 40
1.0
 40
1.0
 10
9.646832636070783
 20
-11.956329971076755
 30
0.0
 10
10.501099363499712
 20
-12.10793495109492
 30
0.0
 10
11.405839463686538
 20
-11.90188189724881
 30
0.0
 10
12.276028088046012
 20
-11.384948117560882
 30
0.0
  0
SPLINE
  5
85
330
17
100
AcDbEntity
  8
visible
100
AcDbSpline
 70
0
 71
3
 72
8
 73
4
 74
0
 40
0.0
 40
0.0
 40
0.0
 40
0.0
 40
1.0
 40
1.0
 40
1.0
 40
1.0
 10
9.032242134076277
 20
-11.848218153821165
 30
0.0
 10
8.344822226093312
 20
-11.728071682009336
 30
0.0
 10
7.702756588917564
 20
-11.379184004581237
 30
0.0
 10
7.146132012623951
 20
-10.838654735652398
 30
0.0
  0
LINE
  5
86
330
17
100
AcDbEntity
  8
visible
100
AcDbLine
 10
-9.742575569135106
 20
-10.851608419561554
 30
0.0
 11
7.817153059279246
 21
-13.94051748400729
 31
0.0
  0
LINE
  5
87
330
17
100
AcDbEntity
  8
visible
100
AcDbLine
 10
-2.8126303123825043
 20
28.543516389714174
 30
0.0
 11
14.747098316031853
 21
25.454607325268437
 31
0.0
  0
LINE
  5
88
330
17
100
AcDbEntity
  8
visible
100
AcDbLine
 10
-2.2017565369259584
 20
30.92639618170545
 30
0.0
 11
-7.64527241173441
 21
31.88395799168363
 31
0.0
  0
SPLINE
  5
89
330
17
100
AcDbEntity
  8
visible
100
AcDbSpline
 70
0
 71
3
 72
8
 73
4
 74
0
 40
0.0
 40
0.0
 40
0.0
 40
0.0
 40
1.0
 40
1.0
 40
1.0
 40
1.0
 10
-11.171177001496723
 20
31.124774735568934
 30
0.0
 10
-10.024868599133807
 20
31.80671013793867
 30
0.0
 10
-8.805222941700496
 20
32.09019046879982
 30
0.0
 10
-7.64527241173441
 20
31.88395799168363
 30
0.0
  0
SPLINE
  5
8A
330
17
100
AcDbEntity
  8
visible
100
AcDbSpline
 70
0
 71
3
 72
8
 73
4
 74
0
 40
0.0
 40
0.0
 40
0.0
 40
0.0
 40
1.0
 40
1.0
 40
1.0
 40
1.0
 10
-20.277620484284007
 20
-31.107232786568645
 30
0.0
 10
-21.219619643005743
 20
-28.86281596766554
 30
0.0
 10
-21.71336454763408
 20
-25.884473883472975
 30
0.0
 10
-21.71188078319127
 20
-22.611241372626246
 30
0.0
  0
LINE
  5
8B
330
17
100
AcDbEntity
  8
visible
100
AcDbLine
 10
-21.71188078319127
 20
-22.611241372626246
 30
0.0
 11
-21.71188078319127
 21
8.150661069429901
 31
0.0
  0
SPLINE
  5
8C
330
17
100
AcDbEntity
  8
visible
100
AcDbSpline
 70
0
 71
3
 72
17
 73
13
 74
0
 40
0.0
 40
0.0
 40
0.0
 40
0.0
 40
0.2341016535376292
 40
0.2341016535376292
 40
0.2341016535376292
 40
0.5193679451777259
 40
0.5193679451777259
 40
0.5193679451777259
 40
0.8542957380839868
 40
0.8542957380839868
 40
0.8542957380839868
 40
1.0
 40
1.0
 40
1.0
 40
1.0
 10
-21.71188078319127
 20
8.150661069429901
 30
0.0
 10
-21.71229663567944
 20
10.202050562268504
 30
0.0
 10
-21.51899684134382
 20
12.362201610878646
 30
0.0
 10
-21.145097921585887
 20
14.491969036483447
 30
0.0
 10
-20.690733384731853
 20
17.087676833199733
 30
0.0
 10
-19.967349682615673
 20
19.634278319056133
 30
0.0
 10
-19.041931749842817
 20
21.890409840888484
 30
0.0
 10
-17.955962890867383
 20
24.543071500377184
 30
0.0
 10
-16.59723321671402
 20
26.786096145858124
 30
0.0
 10
-15.104977935315981
 20
28.346756150276285
 30
0.0
 10
-14.45423546276787
 20
29.02970986483791
 30
0.0
 10
-13.781215843690926
 20
29.578012238672617
 30
0.0
 10
-13.085919078085059
 20
29.991663271780325
 30
0.0
  0
ENDSEC
  0
SECTION
  2
OBJECTS
  0
DICTIONARY
  5
A
330
0
100
AcDbDictionary
281
1
  3
ACAD_COLOR
350
B
  3
ACAD_GROUP
350
C
  3
ACAD_LAYOUT
350
D
  3
ACAD_MATERIAL
350
E
  3
ACAD_MLEADERSTYLE
350
F
  3
ACAD_MLINESTYLE
350
10
  3
ACAD_PLOTSETTINGS
350
11
  3
ACAD_PLOTSTYLENAME
350
12
  3
ACAD_SCALELIST
350
14
  3
ACAD_TABLESTYLE
350
15
  3
ACAD_VISUALSTYLE
350
16
  3
EZDXF_META
350
2D
  0
DICTIONARY
  5
B
330
A
100
AcDbDictionary
281
1
  0
DICTIONARY
  5
C
330
A
100
AcDbDictionary
281
1
  0
DICTIONARY
  5
D
330
A
100
AcDbDictionary
281
1
  3
Model
350
1A
  3
Layout1
350
1E
  0
DICTIONARY
  5
E
330
A
100
AcDbDictionary
281
1
  3
ByBlock
350
1F
  3
ByLayer
350
20
  3
Global
350
21
  0
DICTIONARY
  5
F
330
A
100
AcDbDictionary
281
1
  3
Standard
350
2C
  0
DICTIONARY
  5
10
330
A
100
AcDbDictionary
281
1
  3
Standard
350
22
  0
DICTIONARY
  5
11
330
A
100
AcDbDictionary
281
1
  0
ACDBDICTIONARYWDFLT
  5
12
330
A
100
AcDbDictionary
281
1
  3
Normal
350
13
100
AcDbDictionaryWithDefault
340
13
  0
ACDBPLACEHOLDER
  5
13
330
12
  0
DICTIONARY
  5
14
330
A
100
AcDbDictionary
281
1
  0
DICTIONARY
  5
15
330
A
100
AcDbDictionary
281
1
  0
DICTIONARY
  5
16
330
A
100
AcDbDictionary
281
1
  0
LAYOUT
  5
1A
330
D
100
AcDbPlotSettings
  1

  4
A3
  6

 40
7.5
 41
20.0
 42
7.5
 43
20.0
 44
420.0
 45
297.0
 46
0.0
 47
0.0
 48
0.0
 49
0.0
140
0.0
141
0.0
142
1.0
143
1.0
 70
1024
 72
1
 73
0
 74
5
  7

 75
16
 76
0
 77
2
 78
300
147
1.0
148
0.0
149
0.0
100
AcDbLayout
  1
Model
 70
1
 71
0
 10
0.0
 20
0.0
 11
420.0
 21
297.0
 12
0.0
 22
0.0
 32
0.0
 14
1e+20
 24
1e+20
 34
1e+20
 15
-1e+20
 25
-1e+20
 35
-1e+20
146
0.0
 13
0.0
 23
0.0
 33
0.0
 16
1.0
 26
0.0
 36
0.0
 17
0.0
 27
1.0
 37
0.0
 76
1
330
17
  0
LAYOUT
  5
1E
330
D
100
AcDbPlotSettings
  1

  4
A3
  6

 40
7.5
 41
20.0
 42
7.5
 43
20.0
 44
420.0
 45
297.0
 46
0.0
 47
0.0
 48
0.0
 49
0.0
140
0.0
141
0.0
142
1.0
143
1.0
 70
0
 72
1
 73
0
 74
5
  7

 75
16
 76
0
 77
2
 78
300
147
1.0
148
0.0
149
0.0
100
AcDbLayout
  1
Layout1
 70
1
 71
1
 10
0.0
 20
0.0
 11
420.0
 21
297.0
 12
0.0
 22
0.0
 32
0.0
 14
1e+20
 24
1e+20
 34
1e+20
 15
-1e+20
 25
-1e+20
 35
-1e+20
146
0.0
 13
0.0
 23
0.0
 33
0.0
 16
1.0
 26
0.0
 36
0.0
 17
0.0
 27
1.0
 37
0.0
 76
1
330
1B
  0
MATERIAL
  5
1F
102
{ACAD_REACTORS
330
E
102
}
330
E
100
AcDbMaterial
  1
ByBlock
  2

 70
0
 40
1.0
 71
1
 41
1.0
 91
-1023410177
 42
1.0
 72
1
  3

 73
1
 74
1
 75
1
 44
0.5
 73
0
 45
1.0
 46
1.0
 77
1
  4

 78
1
 79
1
170
1
 48
1.0
171
1
  6

172
1
173
1
174
1
140
1.0
141
1.0
175
1
  7

176
1
177
1
178
1
143
1.0
179
1
  8

270
1
271
1
272
1
145
1.0
146
1.0
273
1
  9

274
1
275
1
276
1
 42
1.0
 72
1
  3

 73
1
 74
1
 75
1
 94
63
  0
MATERIAL
  5
20
102
{ACAD_REACTORS
330
E
102
}
330
E
100
AcDbMaterial
  1
ByLayer
  2

 70
0
 40
1.0
 71
1
 41
1.0
 91
-1023410177
 42
1.0
 72
1
  3

 73
1
 74
1
 75
1
 44
0.5
 73
0
 45
1.0
 46
1.0
 77
1
  4

 78
1
 79
1
170
1
 48
1.0
171
1
  6

172
1
173
1
174
1
140
1.0
141
1.0
175
1
  7

176
1
177
1
178
1
143
1.0
179
1
  8

270
1
271
1
272
1
145
1.0
146
1.0
273
1
  9

274
1
275
1
276
1
 42
1.0
 72
1
  3

 73
1
 74
1
 75
1
 94
63
  0
MATERIAL
  5
21
102
{ACAD_REACTORS
330
E
102
}
330
E
100
AcDbMaterial
  1
Global
  2

 70
0
 40
1.0
 71
1
 41
1.0
 91
-1023410177
 42
1.0
 72
1
  3

 73
1
 74
1
 75
1
 44
0.5
 73
0
 45
1.0
 46
1.0
 77
1
  4

 78
1
 79
1
170
1
 48
1.0
171
1
  6

172
1
173
1
174
1
140
1.0
141
1.0
175
1
  7

176
1
177
1
178
1
143
1.0
179
1
  8

270
1
271
1
272
1
145
1.0
146
1.0
273
1
  9

274
1
275
1
276
1
 42
1.0
 72
1
  3

 73
1
 74
1
 75
1
 94
63
  0
MLINESTYLE
  5
22
102
{ACAD_REACTORS
330
10
102
}
330
10
100
AcDbMlineStyle
  2
Standard
 70
0
  3

 62
256
 51
90.0
 52
90.0
 71
2
 49
0.5
 62
256
  6
BYLAYER
 49
-0.5
 62
256
  6
BYLAYER
  0
MLEADERSTYLE
  5
2C
102
{ACAD_REACTORS
330
F
102
}
330
F
100
AcDbMLeaderStyle
179
2
170
2
171
1
172
0
 90
2
 40
0.0
 41
0.0
173
1
 91
-1056964608
 92
-2
290
1
 42
2.0
291
1
 43
8.0
  3
Standard
 44
4.0
300

342
29
174
1
175
1
176
0
178
1
 93
-1056964608
 45
4.0
292
0
297
0
 46
4.0
 94
-1056964608
 47
1.0
 49
1.0
140
1.0
294
1
141
0.0
177
0
142
1.0
295
0
296
0
143
3.75
271
0
272
9
273
9
  0
DICTIONARY
  5
2D
330
A
100
AcDbDictionary
280
1
281
1
  3
CREATED_BY_EZDXF
350
2E
  3
WRITTEN_BY_EZDXF
350
90
  0
DICTIONARYVAR
  5
2E
330
2D
100
DictionaryVariables
280
0
  1
1.4.4 @ 2026-10-03T15:55:11.988138+00:00
  0
DICTIONARYVAR
  5
90
330
2D
100
DictionaryVariables
280
0
  1
1.4.4 @ 2026-10-03T15:55:12.013097+00:00
  0
ENDSEC
  0
EOF
