  0
SECTION
  2
HEADER
  9
$ACADVER
  1
AC1027
  9
$ACADMAINTVER
 70
105
  9
$DWGCODEPAGE
  3
ANSI_1252
  9
$LASTSAVEDBY
  1
ezdxf
  9
$REQUIREDVERSIONS
160
0
  9
$INSBASE
 10
0.0
 20
0.0
 30
0.0
  9
$EXTMIN
 10
1e+20
 20
1e+20
 30
1e+20
  9
$EXTMAX
 10
-1e+20
 20
-1e+20
 30
-1e+20
  9
$LIMMIN
 10
0.0
 20
0.0
  9
$LIMMAX
 10
420.0
 20
297.0
  9
$ORTHOMODE
 70
0
  9
$REGENMODE
 70
1
  9
$FILLMODE
 70
1
  9
$QTEXTMODE
 70
0
  9
$MIRRTEXT
 70
1
  9
$LTSCALE
 40
1.0
  9
$ATTMODE
 70
1
  9
$TEXTSIZE
 40
2.5
  9
$TRACEWID
 40
1.0
  9
$TEXTSTYLE
  7
Standard
  9
$CLAYER
  8
0
  9
$CELTYPE
  6
ByLayer
  9
$CECOLOR
 62
256
  9
$CELTSCALE
 40
1.0
  9
$DISPSILH
 70
0
  9
$DIMSCALE
 40
1.0
  9
$DIMASZ
 40
2.5
  9
$DIMEXO
 40
0.625
  9
$DIMDLI
 40
3.75
  9
$DIMRND
 40
0.0
  9
$DIMDLE
 40
0.0
  9
$DIMEXE
 40
1.25
  9
$DIMTP
 40
0.0
  9
$DIMTM
 40
0.0
  9
$DIMTXT
 40
2.5
  9
$DIMCEN
 40
2.5
  9
$DIMTSZ
 40
0.0
  9
$DIMTOL
 70
0
  9
$DIMLIM
 70
0
  9
$DIMTIH
 70
0
  9
$DIMTOH
 70
0
  9
$DIMSE1
 70
0
  9
$DIMSE2
 70
0
  9
$DIMTAD
 70
1
  9
$DIMZIN
 70
8
  9
$DIMBLK
  1

  9
$DIMASO
 70
1
  9
$DIMSHO
 70
1
  9
$DIMPOST
  1

  9
$DIMAPOST
  1

  9
$DIMALT
 70
0
  9
$DIMALTD
 70
3
  9
$DIMALTF
 40
0.03937007874
  9
$DIMLFAC
 40
1.0
  9
$DIMTOFL
 70
1
  9
$DIMTVP
 40
0.0
  9
$DIMTIX
 70
0
  9
$DIMSOXD
 70
0
  9
$DIMSAH
 70
0
  9
$DIMBLK1
  1

  9
$DIMBLK2
  1

  9
$DIMSTYLE
  2
ISO-25
  9
$DIMCLRD
 70
0
  9
$DIMCLRE
 70
0
  9
$DIMCLRT
 70
0
  9
$DIMTFAC
 40
1.0
  9
$DIMGAP
 40
0.625
  9
$DIMJUST
 70
0
  9
$DIMSD1
 70
0
  9
$DIMSD2
 70
0
  9
$DIMTOLJ
 70
0
  9
$DIMTZIN
 70
8
  9
$DIMALTZ
 70
0
  9
$DIMALTTZ
 70
0
  9
$DIMUPT
 70
0
  9
$DIMDEC
 70
2
  9
$DIMTDEC
 70
2
  9
$DIMALTU
 70
2
  9
$DIMALTTD
 70
3
  9
$DIMTXSTY
  7
Standard
  9
$DIMAUNIT
 70
0
  9
$DIMADEC
 70
0
  9
$DIMALTRND
 40
0.0
  9
$DIMAZIN
 70
0
  9
$DIMDSEP
 70
44
  9
$DIMATFIT
 70
3
  9
$DIMFRAC
 70
0
  9
$DIMLDRBLK
  1

  9
$DIMLUNIT
 70
2
  9
$DIMLWD
 70
-2
  9
$DIMLWE
 70
-2
  9
$DIMTMOVE
 70
0
  9
$DIMFXL
 40
1.0
  9
$DIMFXLON
 70
0
  9
$DIMJOGANG
 40
0.785398163397
  9
$DIMTFILL
 70
0
  9
$DIMTFILLCLR
 70
0
  9
$DIMARCSYM
 70
0
  9
$DIMLTYPE
  6

  9
$DIMLTEX1
  6

  9
$DIMLTEX2
  6

  9
$DIMTXTDIRECTION
 70
0
  9
$LUNITS
 70
2
  9
$LUPREC
 70
4
  9
$SKETCHINC
 40
1.0
  9
$FILLETRAD
 40
10.0
  9
$AUNITS
 70
0
  9
$AUPREC
 70
2
  9
$MENU
  1
.
  9
$ELEVATION
 40
0.0
  9
$PELEVATION
 40
0.0
  9
$THICKNESS
 40
0.0
  9
$LIMCHECK
 70
0
  9
$CHAMFERA
 40
0.0
  9
$CHAMFERB
 40
0.0
  9
$CHAMFERC
 40
0.0
  9
$CHAMFERD
 40
0.0
  9
$SKPOLY
 70
0
  9
$TDCREATE
 40
2461315.922476852
  9
$TDUCREATE
 40
2458532.153996898
  9
$TDUPDATE
 40
2461315.922476852
  9
$TDUUPDATE
 40
2458532.1544311
  9
$TDINDWG
 40
0.0
  9
$TDUSRTIMER
 40
0.0
  9
$USRTIMER
 70
1
  9
$ANGBASE
 50
0.0
  9
$ANGDIR
 70
0
  9
$PDMODE
 70
0
  9
$PDSIZE
 40
0.0
  9
$PLINEWID
 40
0.0
  9
$SPLFRAME
 70
0
  9
$SPLINETYPE
 70
6
  9
$SPLINESEGS
 70
8
  9
$HANDSEED
  5
8F
  9
$SURFTAB1
 70
6
  9
$SURFTAB2
 70
6
  9
$SURFTYPE
 70
6
  9
$SURFU
 70
6
  9
$SURFV
 70
6
  9
$UCSBASE
  2

  9
$UCSNAME
  2

  9
$UCSORG
 10
0.0
 20
0.0
 30
0.0
  9
$UCSXDIR
 10
1.0
 20
0.0
 30
0.0
  9
$UCSYDIR
 10
0.0
 20
1.0
 30
0.0
  9
$UCSORTHOREF
  2

  9
$UCSORTHOVIEW
 70
0
  9
$UCSORGTOP
 10
0.0
 20
0.0
 30
0.0
  9
$UCSORGBOTTOM
 10
0.0
 20
0.0
 30
0.0
  9
$UCSORGLEFT
 10
0.0
 20
0.0
 30
0.0
  9
$UCSORGRIGHT
 10
0.0
 20
0.0
 30
0.0
  9
$UCSORGFRONT
 10
0.0
 20
0.0
 30
0.0
  9
$UCSORGBACK
 10
0.0
 20
0.0
 30
0.0
  9
$PUCSBASE
  2

  9
$PUCSNAME
  2

  9
$PUCSORG
 10
0.0
 20
0.0
 30
0.0
  9
$PUCSXDIR
 10
1.0
 20
0.0
 30
0.0
  9
$PUCSYDIR
 10
0.0
 20
1.0
 30
0.0
  9
$PUCSORTHOREF
  2

  9
$PUCSORTHOVIEW
 70
0
  9
$PUCSORGTOP
 10
0.0
 20
0.0
 30
0.0
  9
$PUCSORGBOTTOM
 10
0.0
 20
0.0
 30
0.0
  9
$PUCSORGLEFT
 10
0.0
 20
0.0
 30
0.0
  9
$PUCSORGRIGHT
 10
0.0
 20
0.0
 30
0.0
  9
$PUCSORGFRONT
 10
0.0
 20
0.0
 30
0.0
  9
$PUCSORGBACK
 10
0.0
 20
0.0
 30
0.0
  9
$USERI1
 70
0
  9
$USERI2
 70
0
  9
$USERI3
 70
0
  9
$USERI4
 70
0
  9
$USERI5
 70
0
  9
$USERR1
 40
0.0
  9
$USERR2
 40
0.0
  9
$USERR3
 40
0.0
  9
$USERR4
 40
0.0
  9
$USERR5
 40
0.0
  9
$WORLDVIEW
 70
1
  9
$SHADEDGE
 70
3
  9
$SHADEDIF
 70
70
  9
$TILEMODE
 70
1
  9
$MAXACTVP
 70
64
  9
$PINSBASE
 10
0.0
 20
0.0
 30
0.0
  9
$PLIMCHECK
 70
0
  9
$PEXTMIN
 10
1e+20
 20
1e+20
 30
1e+20
  9
$PEXTMAX
 10
-1e+20
 20
-1e+20
 30
-1e+20
  9
$PLIMMIN
 10
0.0
 20
0.0
  9
$PLIMMAX
 10
420.0
 20
297.0
  9
$UNITMODE
 70
0
  9
$VISRETAIN
 70
1
  9
$PLINEGEN
 70
0
  9
$PSLTSCALE
 70
1
  9
$TREEDEPTH
 70
3020
  9
$CMLSTYLE
  2
Standard
  9
$CMLJUST
 70
0
  9
$CMLSCALE
 40
20.0
  9
$PROXYGRAPHICS
 70
1
  9
$MEASUREMENT
 70
1
  9
$CELWEIGHT
370
-1
  9
$ENDCAPS
280
0
  9
$JOINSTYLE
280
0
  9
$LWDISPLAY
290
0
  9
$INSUNITS
 70
4
  9
$HYPERLINKBASE
  1

  9
$STYLESHEET
  1

  9
$XEDIT
290
1
  9
$CEPSNTYPE
380
0
  9
$PSTYLEMODE
290
1
  9
$FINGERPRINTGUID
  2
{C6333606-6F8A-43FB-AF8D-AD433F329F39}
  9
$VERSIONGUID
  2
{775B1E95-DAE4-47AE-814C-E91B389EBEE2}
  9
$EXTNAMES
290
1
  9
$PSVPSCALE
 40
0.0
  9
$OLESTARTUP
290
0
  9
$SORTENTS
280
127
  9
$INDEXCTL
280
0
  9
$HIDETEXT
280
1
  9
$XCLIPFRAME
280
1
  9
$HALOGAP
280
0
  9
$OBSCOLOR
 70
257
  9
$OBSLTYPE
280
0
  9
$INTERSECTIONDISPLAY
280
0
  9
$INTERSECTIONCOLOR
 70
257
  9
$DIMASSOC
280
2
  9
$PROJECTNAME
  1

  9
$CAMERADISPLAY
290
0
  9
$LENSLENGTH
 40
50.0
  9
$CAMERAHEIGHT
 40
0.0
  9
$STEPSPERSEC
 40
24.0
  9
$STEPSIZE
 40
100.0
  9
$3DDWFPREC
 40
2.0
  9
$PSOLWIDTH
 40
0.005
  9
$PSOLHEIGHT
 40
0.08
  9
$LOFTANG1
 40
1.570796326795
  9
$LOFTANG2
 40
1.570796326795
  9
$LOFTMAG1
 40
0.0
  9
$LOFTMAG2
 40
0.0
  9
$LOFTPARAM
 70
7
  9
$LOFTNORMALS
280
1
  9
$LATITUDE
 40
37.795
  9
$LONGITUDE
 40
-122.394
  9
$NORTHDIRECTION
 40
0.0
  9
$TIMEZONE
 70
-8000
  9
$LIGHTGLYPHDISPLAY
280
1
  9
$TILEMODELIGHTSYNCH
280
1
  9
$CMATERIAL
347
20
  9
$SOLIDHIST
280
0
  9
$SHOWHIST
280
1
  9
$DWFFRAME
280
2
  9
$DGNFRAME
280
2
  9
$REALWORLDSCALE
290
1
  9
$INTERFERECOLOR
 62
256
  9
$CSHADOW
280
0
  9
$SHADOWPLANELOCATION
 40
0.0
  0
ENDSEC
  0
SECTION
  2
CLASSES
  0
CLASS
  1
ACDBDICTIONARYWDFLT
  2
AcDbDictionaryWithDefault
  3
ObjectDBX Classes
 90
0
 91
0
280
0
281
0
  0
CLASS
  1
SUN
  2
AcDbSun
  3
SCENEOE
 90
1153
 91
0
280
0
281
0
  0
CLASS
  1
VISUALSTYLE
  2
AcDbVisualStyle
  3
ObjectDBX Classes
 90
4095
 91
0
280
0
281
0
  0
CLASS
  1
MATERIAL
  2
AcDbMaterial
  3
ObjectDBX Classes
 90
1153
 91
0
280
0
281
0
  0
CLASS
  1
SCALE
  2
AcDbScale
  3
ObjectDBX Classes
 90
1153
 91
0
280
0
281
0
  0
CLASS
  1
TABLESTYLE
  2
AcDbTableStyle
  3
ObjectDBX Classes
 90
4095
 91
0
280
0
281
0
  0
CLASS
  1
MLEADERSTYLE
  2
AcDbMLeaderStyle
  3
ACDB_MLEADERSTYLE_CLASS
 90
4095
 91
0
280
0
281
0
  0
CLASS
  1
DICTIONARYVAR
  2
AcDbDictionaryVar
  3
ObjectDBX Classes
 90
0
 91
0
280
0
281
0
  0
CLASS
  1
CELLSTYLEMAP
  2
AcDbCellStyleMap
  3
ObjectDBX Classes
 90
1152
 91
0
280
0
281
0
  0
CLASS
  1
MENTALRAYRENDERSETTINGS
  2
AcDbMentalRayRenderSettings
  3
SCENEOE
 90
1024
 91
0
280
0
281
0
  0
CLASS
  1
ACDBDETAILVIEWSTYLE
  2
AcDbDetailViewStyle
  3
ObjectDBX Classes
 90
1025
 91
0
280
0
281
0
  0
CLASS
  1
ACDBSECTIONVIEWSTYLE
  2
AcDbSectionViewStyle
  3
ObjectDBX Classes
 90
1025
 91
0
280
0
281
0
  0
CLASS
  1
RASTERVARIABLES
  2
AcDbRasterVariables
  3
ISM
 90
0
 91
0
280
0
281
0
  0
CLASS
  1
LAYOUT
  2
AcDbLayout
  3
ObjectDBX Classes
 90
0
 91
0
280
0
281
0
  0
CLASS
  1
ACDBPLACEHOLDER
  2
AcDbPlaceHolder
  3
ObjectDBX Classes
 90
0
 91
0
280
0
281
0
  0
ENDSEC
  0
SECTION
  2
TABLES
  0
TABLE
  2
VPORT
  5
8
330
0
100
AcDbSymbolTable
 70
1
  0
VPORT
  5
8B
330
8
100
AcDbSymbolTableRecord
100
AcDbViewportTableRecord
  2
*Active
 70
0
 10
0.0
 20
0.0
 11
1.0
 21
1.0
 12
7.105427357601002e-15
 22
0.031225841934936938
 13
0.0
 23
0.0
 14
0.5
 24
0.5
 15
0.5
 25
0.5
 16
0.0
 26
0.0
 36
1.0
 17
0.0
 27
0.0
 37
0.0
 40
60.119390202558705
 41
1.34
 42
50.0
 43
0.0
 44
0.0
 50
0.0
 51
0.0
 71
0
 72
1000
 73
1
 74
3
 75
0
 76
0
 77
0
 78
0
281
0
 65
1
110
0.0
120
0.0
130
0.0
111
1.0
121
0.0
131
0.0
112
0.0
122
1.0
132
0.0
 79
0
146
0.0
  0
ENDTAB
  0
TABLE
  2
LTYPE
  5
2
330
0
100
AcDbSymbolTable
 70
3
  0
LTYPE
  5
24
330
2
100
AcDbSymbolTableRecord
100
AcDbLinetypeTableRecord
  2
ByBlock
 70
0
  3

 72
65
 73
0
 40
0.0
  0
LTYPE
  5
25
330
2
100
AcDbSymbolTableRecord
100
AcDbLinetypeTableRecord
  2
ByLayer
 70
0
  3

 72
65
 73
0
 40
0.0
  0
LTYPE
  5
26
330
2
100
AcDbSymbolTableRecord
100
AcDbLinetypeTableRecord
  2
Continuous
 70
0
  3

 72
65
 73
0
 40
0.0
  0
ENDTAB
  0
TABLE
  2
LAYER
  5
1
330
0
100
AcDbSymbolTable
 70
3
  0
LAYER
  5
27
330
1
100
AcDbSymbolTableRecord
100
AcDbLayerTableRecord
  2
0
 70
0
 62
7
  6
Continuous
370
-3
390
13
347
21
  0
LAYER
  5
28
330
1
100
AcDbSymbolTableRecord
100
AcDbLayerTableRecord
  2
Defpoints
 70
0
 62
7
  6
Continuous
290
0
370
-3
390
13
347
21
  0
LAYER
  5
2F
330
1
100
AcDbSymbolTableRecord
100
AcDbLayerTableRecord
  2
visible
 70
0
 62
7
  6
Continuous
370
-3
390
13
347
21
  0
ENDTAB
  0
TABLE
  2
STYLE
  5
5
330
0
100
AcDbSymbolTable
 70
1
  0
STYLE
  5
29
330
5
100
AcDbSymbolTableRecord
100
AcDbTextStyleTableRecord
  2
Standard
 70
0
 40
0.0
 41
1.0
 50
0.0
 71
0
 42
2.5
  3
txt
  4

  0
ENDTAB
  0
TABLE
  2
VIEW
  5
7
330
0
100
AcDbSymbolTable
 70
0
  0
ENDTAB
  0
TABLE
  2
UCS
  5
6
330
0
100
AcDbSymbolTable
 70
0
  0
ENDTAB
  0
TABLE
  2
APPID
  5
3
330
0
100
AcDbSymbolTable
 70
3
  0
APPID
  5
2A
330
3
100
AcDbSymbolTableRecord
100
AcDbRegAppTableRecord
  2
ACAD
 70
0
  0
APPID
  5
8C
330
3
100
AcDbSymbolTableRecord
100
AcDbRegAppTableRecord
  2
HATCHBACKGROUNDCOLOR
 70
0
  0
APPID
  5
8D
330
3
100
AcDbSymbolTableRecord
100
AcDbRegAppTableRecord
  2
EZDXF
 70
0
  0
ENDTAB
  0
TABLE
  2
DIMSTYLE
  5
4
330
0
100
AcDbSymbolTable
 70
1
100
AcDbDimStyleTable
  0
DIMSTYLE
105
2B
330
4
100
AcDbSymbolTableRecord
100
AcDbDimStyleTableRecord
  2
Standard
 70
0
 40
1.0
 41
2.5
 42
0.625
 43
3.75
 44
1.25
 45
0.0
 46
0.0
 47
0.0
 48
0.0
 49
2.5
140
2.5
141
2.5
142
0.0
143
0.03937007874
144
1.0
145
0.0
146
1.0
147
0.625
148
0.0
 69
0
 70
0
 71
0
 72
0
 73
0
 74
0
 75
0
 76
0
 77
1
 78
8
 79
3
170
0
171
3
172
1
173
0
174
0
175
0
176
0
177
0
178
0
179
2
271
2
272
2
273
2
274
3
275
0
276
0
277
2
278
44
279
0
280
0
281
0
282
0
283
0
284
8
285
0
286
0
288
0
289
3
290
0
371
-2
372
-2
  0
ENDTAB
  0
TABLE
  2
BLOCK_RECORD
  5
9
330
0
100
AcDbSymbolTable
 70
2
  0
BLOCK_RECORD
  5
17
330
9
100
AcDbSymbolTableRecord
100
AcDbBlockTableRecord
  2
*Model_Space
340
1A
 70
0
280
1
281
0
  0
BLOCK_RECORD
  5
1B
330
9
100
AcDbSymbolTableRecord
100
AcDbBlockTableRecord
  2
*Paper_Space
340
1E
 70
0
280
1
281
0
  0
ENDTAB
  0
ENDSEC
  0
SECTION
  2
BLOCKS
  0
BLOCK
  5
18
330
17
100
AcDbEntity
  8
0
100
AcDbBlockBegin
  2
*Model_Space
 70
0
 10
0.0
 20
0.0
 30
0.0
  3
*Model_Space
  1

  0
ENDBLK
  5
19
330
17
100
AcDbEntity
  8
0
100
AcDbBlockEnd
  0
BLOCK
  5
1C
330
1B
100
AcDbEntity
  8
0
100
AcDbBlockBegin
  2
*Paper_Space
 70
0
 10
0.0
 20
0.0
 30
0.0
  3
*Paper_Space
  1

  0
ENDBLK
  5
1D
330
1B
100
AcDbEntity
  8
0
100
AcDbBlockEnd
  0
ENDSEC
  0
SECTION
  2
ENTITIES
  0
ELLIPSE
  5
30
330
17
100
AcDbEntity
  8
visible
100
AcDbEllipse
 10
6.951569977796872
 20
-26.445156959461045
 30
0.0
 11
-0.16839978883164602
 21
-1.1376034067817558
 31
0.0
 40
0.44133261110695154
 41
5.552488502479441
 42
6.283185307179586
  0
ELLIPSE
  5
31
330
17
100
AcDbEntity
  8
visible
100
AcDbEllipse
 10
6.951569977796872
 20
-26.445156959461045
 30
0.0
 11
-0.16839978883164602
 21
-1.1376034067817558
 31
0.0
 40
0.44133261110695154
 41
0.0
 42
0.3236243812477255
  0
SPLINE
  5
32
330
17
100
AcDbEntity
  8
visible
100
AcDbSpline
 70
0
 71
3
 72
8
 73
4
 74
0
 40
0.0
 40
0.0
 40
0.0
 40
0.0
 40
1.0
 40
1.0
 40
1.0
 40
1.0
 10
6.491090881103226
 20
-26.154184083882583
 30
0.0
 10
6.396046442103311
 20
-26.544742947869857
 30
0.0
 10
6.396050822509842
 20
-26.952780235543933
 30
0.0
 10
6.491090881103226
 20
-27.242740531497603
 30
0.0
  0
ELLIPSE
  5
33
330
17
100
AcDbEntity
  8
visible
100
AcDbEllipse
 10
6.951569977796872
 20
-26.445156959461045
 30
0.0
 11
-0.16839978883164602
 21
-1.1376034067817558
 31
0.0
 40
0.44133261110695154
 41
0.3236243812477253
 42
3.141592653589793
  0
ELLIPSE
  5
34
330
17
100
AcDbEntity
  8
visible
100
AcDbEllipse
 10
6.951569977796872
 20
-26.445156959461045
 30
0.0
 11
-0.16839978883164602
 21
-1.1376034067817558
 31
0.0
 40
0.44133261110695154
 41
3.141592653589793
 42
4.519538220785389
  0
ELLIPSE
  5
35
330
17
100
AcDbEntity
  8
visible
100
AcDbEllipse
 10
15.240193718282512
 20
-21.885660691337904
 30
0.0
 11
-0.16839978883164602
 21
-1.1376034067817558
 31
0.0
 40
0.44133261110695154
 41
2.4108958488896475
 42
3.141592653589793
  0
ELLIPSE
  5
36
330
17
100
AcDbEntity
  8
visible
100
AcDbEllipse
 10
15.240193718282512
 20
-21.885660691337904
 30
0.0
 11
-0.16839978883164602
 21
-1.1376034067817558
 31
0.0
 40
0.44133261110695154
 41
3.141592653589793
 42
6.283185307179586
  0
ELLIPSE
  5
37
330
17
100
AcDbEntity
  8
visible
100
AcDbEllipse
 10
15.240193718282512
 20
-21.885660691337904
 30
0.0
 11
-0.16839978883164602
 21
-1.1376034067817558
 31
0.0
 40
0.44133261110695154
 41
0.0
 42
0.3236243812477255
  0
SPLINE
  5
38
330
17
100
AcDbEntity
  8
visible
100
AcDbSpline
 70
0
 71
3
 72
8
 73
4
 74
0
 40
0.0
 40
0.0
 40
0.0
 40
0.0
 40
1.0
 40
1.0
 40
1.0
 40
1.0
 10
15.700672814976173
 20
-22.17663356691635
 30
0.0
 10
15.790000399572726
 20
-21.78522843515188
 30
0.0
 10
15.789996456028522
 20
-21.377191212153843
 30
0.0
 10
15.700672814976173
 20
-21.08807711930133
 30
0.0
  0
ELLIPSE
  5
39
330
17
100
AcDbEntity
  8
visible
100
AcDbEllipse
 10
15.240193718282512
 20
-21.885660691337904
 30
0.0
 11
-0.16839978883164602
 21
-1.1376034067817558
 31
0.0
 40
0.44133261110695154
 41
0.3236243812477253
 42
1.3779455671955962
  0
ELLIPSE
  5
3A
330
17
100
AcDbEntity
  8
visible
100
AcDbEllipse
 10
6.951569977796872
 20
18.60060705233431
 30
0.0
 11
-0.16839978883164602
 21
-1.1376034067817558
 31
0.0
 40
0.44133261110695154
 41
5.552488502480021
 42
6.283185307179586
  0
ELLIPSE
  5
3B
330
17
100
AcDbEntity
  8
visible
100
AcDbEllipse
 10
6.951569977796872
 20
18.60060705233431
 30
0.0
 11
-0.16839978883164602
 21
-1.1376034067817558
 31
0.0
 40
0.44133261110695154
 41
0.0
 42
0.3236243812477255
  0
ELLIPSE
  5
3C
330
17
100
AcDbEntity
  8
visible
100
AcDbEllipse
 10
6.951569977796872
 20
18.60060705233431
 30
0.0
 11
-0.16839978883164602
 21
-1.1376034067817558
 31
0.0
 40
0.44133261110695154
 41
0.3236243812477253
 42
3.141592653589793
  0
ELLIPSE
  5
3D
330
17
100
AcDbEntity
  8
visible
100
AcDbEllipse
 10
6.951569977796872
 20
18.60060705233431
 30
0.0
 11
-0.16839978883164602
 21
-1.1376034067817558
 31
0.0
 40
0.44133261110695154
 41
3.141592653589793
 42
4.519538220784766
  0
ELLIPSE
  5
3E
330
17
100
AcDbEntity
  8
visible
100
AcDbEllipse
 10
15.240193718282512
 20
23.160103320457452
 30
0.0
 11
-0.16839978883164602
 21
-1.1376034067817558
 31
0.0
 40
0.44133261110695154
 41
0.3236243812477253
 42
1.377945567195016
  0
ELLIPSE
  5
3F
330
17
100
AcDbEntity
  8
visible
100
AcDbEllipse
 10
15.240193718282512
 20
23.160103320457452
 30
0.0
 11
-0.16839978883164602
 21
-1.1376034067817558
 31
0.0
 40
0.44133261110695154
 41
2.410895848890271
 42
3.141592653589793
  0
ELLIPSE
  5
40
330
17
100
AcDbEntity
  8
visible
100
AcDbEllipse
 10
15.240193718282512
 20
23.160103320457452
 30
0.0
 11
-0.16839978883164602
 21
-1.1376034067817558
 31
0.0
 40
0.44133261110695154
 41
3.141592653589793
 42
6.283185307179586
  0
ELLIPSE
  5
41
330
17
100
AcDbEntity
  8
visible
100
AcDbEllipse
 10
15.240193718282512
 20
23.160103320457452
 30
0.0
 11
-0.16839978883164602
 21
-1.1376034067817558
 31
0.0
 40
0.44133261110695154
 41
0.0
 42
0.3236243812477255
  0
LINE
  5
42
330
17
100
AcDbEntity
  8
visible
100
AcDbLine
 10
13.85875642820158
 20
-7.310848561796886
 30
0.0
 11
8.333007267877814
 21
-10.35051274054565
 31
0.0
  0
LINE
  5
43
330
17
100
AcDbEntity
  8
visible
100
AcDbLine
 10
13.85875642820158
 20
-7.310848561796883
 30
0.0
 11
13.85875642820158
 21
-5.394007540018357
 31
0.0
  0
LINE
  5
44
330
17
100
AcDbEntity
  8
visible
100
AcDbLine
 10
8.33300726787781
 20
-10.350512740545648
 30
0.0
 11
8.33300726787781
 21
-8.433671718767123
 31
0.0
  0
LINE
  5
45
330
17
100
AcDbEntity
  8
visible
100
AcDbLine
 10
13.85875642820158
 20
-5.394007540018363
 30
0.0
 11
8.333007267877814
 21
-8.433671718767126
 31
0.0
  0
LINE
  5
46
330
17
100
AcDbEntity
  8
visible
100
AcDbLine
 10
13.85875642820158
 20
0.3565155253172225
 30
0.0
 11
8.333007267877814
 21
-2.6831486534315405
 31
0.0
  0
LINE
  5
47
330
17
100
AcDbEntity
  8
visible
100
AcDbLine
 10
13.85875642820158
 20
0.3565155253172154
 30
0.0
 11
13.85875642820158
 21
2.273356547095741
 31
0.0
  0
LINE
  5
48
330
17
100
AcDbEntity
  8
visible
100
AcDbLine
 10
8.33300726787781
 20
-2.68314865343155
 30
0.0
 11
8.33300726787781
 21
-0.7663076316530244
 31
0.0
  0
LINE
  5
49
330
17
100
AcDbEntity
  8
visible
100
AcDbLine
 10
13.85875642820158
 20
2.273356547095746
 30
0.0
 11
8.333007267877814
 21
-0.7663076316530169
 31
0.0
  0
LINE
  5
4A
330
17
100
AcDbEntity
  8
visible
100
AcDbLine
 10
13.85875642820158
 20
8.023879612431317
 30
0.0
 11
8.333007267877814
 21
4.984215433682554
 31
0.0
  0
LINE
  5
4B
330
17
100
AcDbEntity
  8
visible
100
AcDbLine
 10
13.85875642820158
 20
8.023879612431326
 30
0.0
 11
13.85875642820158
 21
9.940720634209853
 31
0.0
  0
LINE
  5
4C
330
17
100
AcDbEntity
  8
visible
100
AcDbLine
 10
13.85875642820158
 20
9.940720634209855
 30
0.0
 11
8.333007267877814
 21
6.901056455461092
 31
0.0
  0
LINE
  5
4D
330
17
100
AcDbEntity
  8
visible
100
AcDbLine
 10
8.33300726787781
 20
4.984215433682561
 30
0.0
 11
8.33300726787781
 21
6.901056455461088
 31
0.0
  0
SPLINE
  5
4E
330
17
100
AcDbEntity
  8
visible
100
AcDbSpline
 70
0
 71
3
 72
8
 73
4
 74
0
 40
0.0
 40
0.0
 40
0.0
 40
0.0
 40
1.0
 40
1.0
 40
1.0
 40
1.0
 10
6.491090881103226
 20
18.891579927912773
 30
0.0
 10
6.396046442103187
 20
18.501021063925034
 30
0.0
 10
6.3960508225099755
 20
18.092983776250843
 30
0.0
 10
6.491090881103226
 20
17.803023480297725
 30
0.0
  0
SPLINE
  5
4F
330
17
100
AcDbEntity
  8
visible
100
AcDbSpline
 70
0
 71
3
 72
8
 73
4
 74
0
 40
0.0
 40
0.0
 40
0.0
 40
0.0
 40
1.0
 40
1.0
 40
1.0
 40
1.0
 10
15.700672814976173
 20
22.86913044487899
 30
0.0
 10
15.790000399567928
 20
23.260535576616068
 30
0.0
 10
15.789996456033307
 20
23.668572799619973
 30
0.0
 10
15.700672814976173
 20
23.95768689249404
 30
0.0
  0
LINE
  5
50
330
17
100
AcDbEntity
  8
visible
100
AcDbLine
 10
12.083415332515228
 20
-7.048044263009246
 30
0.0
 11
13.858756428201579
 21
-7.3108485617969
 31
0.0
  0
LINE
  5
51
330
17
100
AcDbEntity
  8
visible
100
AcDbLine
 10
12.083415332515232
 20
-7.048044263009242
 30
0.0
 11
8.33300726787781
 21
-9.11110950882668
 31
0.0
  0
LINE
  5
52
330
17
100
AcDbEntity
  8
visible
100
AcDbLine
 10
12.08341533251523
 20
-7.048044263009238
 30
0.0
 11
12.08341533251523
 21
-6.370606472949692
 31
0.0
  0
LINE
  5
53
330
17
100
AcDbEntity
  8
visible
100
AcDbLine
 10
12.083415332515228
 20
0.6193198241048624
 30
0.0
 11
13.858756428201579
 21
0.356515525317209
 31
0.0
  0
LINE
  5
54
330
17
100
AcDbEntity
  8
visible
100
AcDbLine
 10
12.083415332515232
 20
0.6193198241048665
 30
0.0
 11
8.33300726787781
 21
-1.4437454217125696
 31
0.0
  0
LINE
  5
55
330
17
100
AcDbEntity
  8
visible
100
AcDbLine
 10
12.08341533251523
 20
0.6193198241048599
 30
0.0
 11
12.08341533251523
 21
1.2967576141644184
 31
0.0
  0
LINE
  5
56
330
17
100
AcDbEntity
  8
visible
100
AcDbLine
 10
12.083415332515228
 20
8.286683911218956
 30
0.0
 11
13.858756428201579
 21
8.023879612431303
 31
0.0
  0
LINE
  5
57
330
17
100
AcDbEntity
  8
visible
100
AcDbLine
 10
12.083415332515232
 20
8.286683911218962
 30
0.0
 11
8.33300726787781
 21
6.223618665401525
 31
0.0
  0
LINE
  5
58
330
17
100
AcDbEntity
  8
visible
100
AcDbLine
 10
12.08341533251523
 20
8.286683911218958
 30
0.0
 11
12.08341533251523
 21
8.964121701278525
 31
0.0
  0
ELLIPSE
  5
59
330
17
100
AcDbEntity
  8
visible
100
AcDbEllipse
 10
-12.14999062360345
 20
23.215271965331965
 30
0.0
 11
-4.0
 21
-0.0
 31
0.0
 40
0.2853596402905721
 41
-6.283185307179586
 42
-5.190923826938267
  0
LINE
  5
5A
330
17
100
AcDbEntity
  8
visible
100
AcDbLine
 10
-13.991907010378043
 20
-27.06076368729238
 30
0.0
 11
-13.991907010378043
 21
22.20205057241573
 31
0.0
  0
ELLIPSE
  5
5B
330
17
100
AcDbEntity
  8
visible
100
AcDbEllipse
 10
-12.14999062360345
 20
-26.047542294376115
 30
0.0
 11
-4.0
 21
-0.0
 31
0.0
 40
0.2853596402905721
 41
-6.283185307179586
 42
-5.190923826938267
  0
LINE
  5
5C
330
17
100
AcDbEntity
  8
visible
100
AcDbLine
 10
6.491090881103226
 20
-28.806987431646476
 30
0.0
 11
6.491090881103226
 21
-27.24274053149781
 31
0.0
  0
LINE
  5
5D
330
17
100
AcDbEntity
  8
visible
100
AcDbLine
 10
15.700672814976173
 20
-23.74088046706521
 30
0.0
 11
6.491090881103229
 21
-28.806987431646483
 31
0.0
  0
LINE
  5
5E
330
17
100
AcDbEntity
  8
visible
100
AcDbLine
 10
15.700672814976173
 20
-23.74088046706521
 30
0.0
 11
15.700672814976173
 21
-22.176633566916543
 31
0.0
  0
LINE
  5
5F
330
17
100
AcDbEntity
  8
visible
100
AcDbLine
 10
6.491090881103226
 20
-26.154184083882388
 30
0.0
 11
6.491090881103226
 21
17.803023480296808
 31
0.0
  0
LINE
  5
60
330
17
100
AcDbEntity
  8
visible
100
AcDbLine
 10
15.700672814976173
 20
-21.088077119301122
 30
0.0
 11
15.700672814976173
 21
22.869130444878074
 31
0.0
  0
LINE
  5
61
330
17
100
AcDbEntity
  8
visible
100
AcDbLine
 10
6.491090881103226
 20
18.891579927913753
 30
0.0
 11
6.491090881103226
 21
20.45582682806163
 31
0.0
  0
LINE
  5
62
330
17
100
AcDbEntity
  8
visible
100
AcDbLine
 10
15.700672814976173
 20
25.521933792642884
 30
0.0
 11
6.491090881103229
 21
20.45582682806161
 31
0.0
  0
LINE
  5
63
330
17
100
AcDbEntity
  8
visible
100
AcDbLine
 10
15.700672814976173
 20
23.95768689249502
 30
0.0
 11
15.700672814976173
 21
25.521933792642898
 31
0.0
  0
ELLIPSE
  5
64
330
17
100
AcDbEntity
  8
visible
100
AcDbEllipse
 10
2.940408689730525
 20
20.981435425636917
 30
0.0
 11
-4.0
 21
5.79194107393969e-17
 31
0.0
 40
0.2853596402905721
 41
-5.190923826938267
 42
-3.62012750014337
  0
LINE
  5
65
330
17
100
AcDbEntity
  8
visible
100
AcDbLine
 10
1.0984923029559326
 20
-29.294600226987427
 30
0.0
 11
1.0984923029559326
 21
19.96821403272068
 31
0.0
  0
ELLIPSE
  5
66
330
17
100
AcDbEntity
  8
visible
100
AcDbEllipse
 10
2.940408689730525
 20
-28.281378834071177
 30
0.0
 11
-4.0
 21
5.79194107393969e-17
 31
0.0
 40
0.2853596402905721
 41
-5.190923826938267
 42
-3.62012750014337
  0
ELLIPSE
  5
67
330
17
100
AcDbEntity
  8
visible
100
AcDbEllipse
 10
12.149990623603465
 20
26.047542390218183
 30
0.0
 11
-4.0
 21
5.79194107393969e-17
 31
0.0
 40
0.2853596402905721
 41
-3.62012750014337
 42
-3.141592653589793
  0
ELLIPSE
  5
68
330
17
100
AcDbEntity
  8
visible
100
AcDbEllipse
 10
12.149990623603465
 20
-23.21527186948991
 30
0.0
 11
-4.0
 21
5.79194107393969e-17
 31
0.0
 40
0.2853596402905721
 41
-3.62012750014337
 42
-3.141592653589793
  0
ELLIPSE
  5
69
330
17
100
AcDbEntity
  8
visible
100
AcDbEllipse
 10
-13.62352373302312
 20
22.404694850998965
 30
0.0
 11
0.11714767918723219
 21
0.7913762829786127
 31
0.0
 40
0.44133261110695143
 41
-5.959560925931861
 42
-4.388764599136964
  0
ELLIPSE
  5
6A
330
17
100
AcDbEntity
  8
visible
100
AcDbEllipse
 10
-12.14999062360345
 20
23.982008374043374
 30
0.0
 11
-3.2
 21
-0.0
 31
0.0
 40
0.2853596402905721
 41
-6.7617201537331635
 42
-5.190923826938267
  0
ELLIPSE
  5
6B
330
17
100
AcDbEntity
  8
visible
100
AcDbEllipse
 10
-14.99053637670162
 20
23.635758843392225
 30
0.0
 11
0.38558390248379715
 21
-0.7009458282530581
 31
0.0
 40
0.8507616599652077
 41
-3.715564372800861
 42
-3.1415926535897936
  0
LINE
  5
6C
330
17
100
AcDbEntity
  8
visible
100
AcDbLine
 10
1.0984923029559326
 20
-29.294600226987427
 30
0.0
 11
-13.991907010378046
 21
-27.060763687292372
 31
0.0
  0
LINE
  5
6D
330
17
100
AcDbEntity
  8
visible
100
AcDbLine
 10
1.0984923029559326
 20
19.968214032720667
 30
0.0
 11
-13.991907010378046
 21
22.20205057241572
 31
0.0
  0
ELLIPSE
  5
6E
330
17
100
AcDbEntity
  8
visible
100
AcDbEllipse
 10
-13.62352373302312
 20
-26.85811940870913
 30
0.0
 11
-0.11714767918723219
 21
-0.7913762829786127
 31
0.0
 40
0.44133261110695143
 41
5.036013361632415
 42
6.283185307179586
  0
ELLIPSE
  5
6F
330
17
100
AcDbEntity
  8
visible
100
AcDbEllipse
 10
-5.78095444282868
 20
28.70186580797349
 30
0.0
 11
0.38558390248379715
 21
-0.7009458282530581
 31
0.0
 40
0.8507616599652077
 41
-3.715564372800861
 42
-3.141592653589793
  0
ELLIPSE
  5
70
330
17
100
AcDbEntity
  8
visible
100
AcDbEllipse
 10
-2.9404086897305106
 20
29.048115338624655
 30
0.0
 11
-3.2
 21
4.6335528591517526e-17
 31
0.0
 40
0.2853596402905721
 41
-2.0493311733484734
 42
-0.4785348465535769
  0
ELLIPSE
  5
71
330
17
100
AcDbEntity
  8
visible
100
AcDbEllipse
 10
-1.466875580310841
 20
29.091956044246245
 30
0.0
 11
-0.11714767918723218
 21
-0.7913762829786127
 31
0.0
 40
0.4413326111069514
 41
3.141592653589793
 42
3.4652170348375186
  0
ELLIPSE
  5
72
330
17
100
AcDbEntity
  8
visible
100
AcDbEllipse
 10
14.990536376701627
 20
-23.635758747550156
 30
0.0
 11
0.3855839024837972
 21
-0.7009458282530581
 31
0.0
 40
0.8507616599652077
 41
-6.283185307179586
 42
-5.2863606995957575
  0
ELLIPSE
  5
73
330
17
100
AcDbEntity
  8
visible
100
AcDbEllipse
 10
5.780954442828687
 20
-28.701865712131422
 30
0.0
 11
0.38558390248379715
 21
-0.7009458282530581
 31
0.0
 40
0.8507616599652077
 41
-6.283185307179586
 42
-5.2863606995957575
  0
ELLIPSE
  5
74
330
17
100
AcDbEntity
  8
visible
100
AcDbEllipse
 10
14.990536376701627
 20
25.627055512157938
 30
0.0
 11
-0.3855839024837972
 21
0.7009458282530581
 31
0.0
 40
0.8507616599652077
 41
4.138417261173622
 42
5.709213587968518
  0
LINE
  5
75
330
17
100
AcDbEntity
  8
visible
100
AcDbLine
 10
14.990536376701627
 20
26.393791920869347
 30
0.0
 11
5.780954442828683
 21
21.327684956288074
 31
0.0
  0
ELLIPSE
  5
76
330
17
100
AcDbEntity
  8
visible
100
AcDbEllipse
 10
5.780954442828687
 20
20.560948547576672
 30
0.0
 11
-0.38558390248379715
 21
0.7009458282530581
 31
0.0
 40
0.8507616599652077
 41
4.138417261173622
 42
5.709213587968518
  0
ELLIPSE
  5
77
330
17
100
AcDbEntity
  8
visible
100
AcDbEllipse
 10
2.940408689730525
 20
21.748171834348327
 30
0.0
 11
-3.2
 21
4.6335528591517526e-17
 31
0.0
 40
0.2853596402905721
 41
-5.190923826938267
 42
-3.62012750014337
  0
ELLIPSE
  5
78
330
17
100
AcDbEntity
  8
visible
100
AcDbEllipse
 10
1.4668755803108553
 20
20.170858311303917
 30
0.0
 11
0.11714767918723218
 21
0.7913762829786127
 31
0.0
 40
0.4413326111069514
 41
-5.959560925931861
 42
-4.388764599136964
  0
ELLIPSE
  5
79
330
17
100
AcDbEntity
  8
visible
100
AcDbEllipse
 10
1.4668755803108553
 20
-29.091955948404177
 30
0.0
 11
-0.11714767918723218
 21
-0.7913762829786127
 31
0.0
 40
0.4413326111069514
 41
5.036013361632415
 42
6.283185307179586
  0
ELLIPSE
  5
7A
330
17
100
AcDbEntity
  8
visible
100
AcDbEllipse
 10
13.623523733023134
 20
26.858119504551198
 30
0.0
 11
-0.11714767918723219
 21
-0.7913762829786127
 31
0.0
 40
0.44133261110695143
 41
3.141592653589793
 42
3.4652170348375186
  0
ELLIPSE
  5
7B
330
17
100
AcDbEntity
  8
visible
100
AcDbEllipse
 10
12.149990623603465
 20
26.814278798929593
 30
0.0
 11
-3.2
 21
4.6335528591517526e-17
 31
0.0
 40
0.2853596402905721
 41
-3.62012750014337
 42
-2.0493311733484734
  0
LINE
  5
7C
330
17
100
AcDbEntity
  8
visible
100
AcDbLine
 10
-14.99053637670162
 20
24.402495252103634
 30
0.0
 11
-5.780954442828676
 21
29.468602216684907
 31
0.0
  0
LINE
  5
7D
330
17
100
AcDbEntity
  8
visible
100
AcDbLine
 10
1.4668755803108553
 20
20.937594720015326
 30
0.0
 11
-13.623523733023124
 21
23.17143125971038
 31
0.0
  0
LINE
  5
7E
330
17
100
AcDbEntity
  8
visible
100
AcDbLine
 10
-1.466875580310841
 20
29.858692452957655
 30
0.0
 11
13.623523733023138
 21
27.6248559132626
 31
0.0
  0
LINE
  5
7F
330
17
100
AcDbEntity
  8
visible
100
AcDbLine
 10
-16.149990623603458
 20
-26.047542294376118
 30
0.0
 11
-16.149990623603458
 21
23.21527196533198
 31
0.0
  0
LINE
  5
80
330
17
100
AcDbEntity
  8
visible
100
AcDbLine
 10
16.149990623603458
 20
-23.215271869489914
 30
0.0
 11
16.149990623603458
 21
26.047542390218183
 31
0.0
  0
SPLINE
  5
81
330
17
100
AcDbEntity
  8
visible
100
AcDbSpline
 70
0
 71
3
 72
14
 73
10
 74
0
 40
0.0
 40
0.0
 40
0.0
 40
0.0
 40
0.3333333333333333
 40
0.3333333333333333
 40
0.3333333333333333
 40
0.6666666666666666
 40
0.6666666666666666
 40
0.6666666666666666
 40
1.0
 40
1.0
 40
1.0
 40
1.0
 10
-16.149990623603458
 20
23.215271965331965
 30
0.0
 10
-16.15050704271976
 20
23.41253252624518
 30
0.0
 10
-16.093153573117117
 20
23.608212470889782
 30
0.0
 10
-15.993494548193702
 20
23.775258187888
 30
0.0
 10
-15.932272285107723
 20
23.877217504541324
 30
0.0
 10
-15.859010903710026
 20
23.968903078945754
 30
0.0
 10
-15.773710404000553
 20
24.05031491110121
 30
0.0
 10
-15.656662568230029
 20
24.161245531337435
 30
0.0
 10
-15.524132526624992
 20
24.256708784852155
 30
0.0
 10
-15.376120279185407
 20
24.336704671645293
 30
0.0
  0
SPLINE
  5
82
330
17
100
AcDbEntity
  8
visible
100
AcDbSpline
 70
0
 71
3
 72
17
 73
13
 74
0
 40
0.0
 40
0.0
 40
0.0
 40
0.0
 40
0.25
 40
0.25
 40
0.25
 40
0.5
 40
0.5
 40
0.5
 40
0.75
 40
0.75
 40
0.75
 40
1.0
 40
1.0
 40
1.0
 40
1.0
 10
-13.740671412210354
 20
-27.649495691687747
 30
0.0
 10
-14.213980828703045
 20
-27.579218024621618
 30
0.0
 10
-14.637025834971727
 20
-27.478521582060228
 30
0.0
 10
-14.990765762238155
 20
-27.344550782926646
 30
0.0
 10
-15.228241989210648
 20
-27.256546698821815
 30
0.0
 10
-15.43725747523658
 20
-27.146536229296085
 30
0.0
 10
-15.617812220315912
 20
-27.014519374349447
 30
0.0
 10
-15.771474851920114
 20
-26.90271634617987
 30
0.0
 10
-15.897671262659163
 20
-26.765408193670034
 30
0.0
 10
-15.996401452533064
 20
-26.602594916819953
 30
0.0
 10
-16.094295504956783
 20
-26.436666505302547
 30
0.0
 10
-16.150488949413397
 20
-26.24285681860345
 30
0.0
 10
-16.149990623603458
 20
-26.047542294376115
 30
0.0
  0
SPLINE
  5
83
330
17
100
AcDbEntity
  8
visible
100
AcDbSpline
 70
0
 71
3
 72
14
 73
10
 74
0
 40
0.0
 40
0.0
 40
0.0
 40
0.0
 40
0.3092425574328549
 40
0.3092425574328549
 40
0.3092425574328549
 40
0.49293530743331193
 40
0.49293530743331193
 40
0.49293530743331193
 40
1.0
 40
1.0
 40
1.0
 40
1.0
 10
-6.166538345312468
 20
29.40281163622656
 30
0.0
 10
-5.83906724798287
 20
29.582006121174857
 30
0.0
 10
-5.434872251281339
 20
29.710798590118912
 30
0.0
 10
-4.9594290943979615
 20
29.808472271019955
 30
0.0
 10
-4.676123091359602
 20
29.865996784108784
 30
0.0
 10
-4.3739652315652
 20
29.91039937989588
 30
0.0
 10
-4.052955515014752
 20
29.941680058381188
 30
0.0
 10
-3.1712898419184867
 20
30.028469355186434
 30
0.0
 10
-2.1836346718547572
 20
30.007664614604618
 30
0.0
 10
-1.3497279011236074
 20
29.883332327224863
 30
0.0
  0
LINE
  5
84
330
17
100
AcDbEntity
  8
visible
100
AcDbLine
 10
15.376120279185429
 20
-24.33670457580321
 30
0.0
 11
6.166538345312485
 21
-29.402811540384484
 31
0.0
  0
SPLINE
  5
85
330
17
100
AcDbEntity
  8
visible
100
AcDbSpline
 70
0
 71
3
 72
14
 73
10
 74
0
 40
0.0
 40
0.0
 40
0.0
 40
0.0
 40
0.30924255743286405
 40
0.30924255743286405
 40
0.30924255743286405
 40
0.4929353074333084
 40
0.4929353074333084
 40
0.4929353074333084
 40
1.0
 40
1.0
 40
1.0
 40
1.0
 10
6.166538345312482
 20
-29.402811540384477
 30
0.0
 10
5.83906724798286
 20
-29.582006025332724
 30
0.0
 10
5.4348722512813445
 20
-29.71079849427685
 30
0.0
 10
4.959429094397974
 20
-29.80847217517787
 30
0.0
 10
4.67612309135961
 20
-29.865996688266726
 30
0.0
 10
4.373965231565205
 20
-29.91039928405383
 30
0.0
 10
4.052955515014762
 20
-29.94167996253912
 30
0.0
 10
3.1712898419185542
 20
-30.028469259344416
 30
0.0
 10
2.1836346718547794
 20
-30.00766451876249
 30
0.0
 10
1.3497279011236216
 20
-29.883332231382795
 30
0.0
  0
SPLINE
  5
86
330
17
100
AcDbEntity
  8
visible
100
AcDbSpline
 70
0
 71
3
 72
17
 73
13
 74
0
 40
0.0
 40
0.0
 40
0.0
 40
0.0
 40
0.25
 40
0.25
 40
0.25
 40
0.5
 40
0.5
 40
0.5
 40
0.75
 40
0.75
 40
0.75
 40
1.0
 40
1.0
 40
1.0
 40
1.0
 10
13.740671412210368
 20
27.649495787529816
 30
0.0
 10
14.213980828703052
 20
27.57921812046366
 30
0.0
 10
14.637025834971748
 20
27.478521677902357
 30
0.0
 10
14.99076576223817
 20
27.344550878768715
 30
0.0
 10
15.228241989210673
 20
27.256546794663898
 30
0.0
 10
15.437257475236583
 20
27.146536325138158
 30
0.0
 10
15.617812220315926
 20
27.01451947019153
 30
0.0
 10
15.771474851920122
 20
26.902716442021934
 30
0.0
 10
15.897671262659177
 20
26.765408289512095
 30
0.0
 10
15.99640145253308
 20
26.602595012662036
 30
0.0
 10
16.094295504956797
 20
26.436666601144562
 30
0.0
 10
16.15048894941341
 20
26.242856914445525
 30
0.0
 10
16.149990623603458
 20
26.047542390218183
 30
0.0
  0
SPLINE
  5
87
330
17
100
AcDbEntity
  8
visible
100
AcDbSpline
 70
0
 71
3
 72
14
 73
10
 74
0
 40
0.0
 40
0.0
 40
0.0
 40
0.0
 40
0.3333333333333333
 40
0.3333333333333333
 40
0.3333333333333333
 40
0.6666666666666666
 40
0.6666666666666666
 40
0.6666666666666666
 40
1.0
 40
1.0
 40
1.0
 40
1.0
 10
16.149990623603458
 20
-23.21527186948991
 30
0.0
 10
16.150507042719774
 20
-23.412532430403107
 30
0.0
 10
16.093153573117135
 20
-23.60821237504772
 30
0.0
 10
15.99349454819371
 20
-23.77525809204593
 30
0.0
 10
15.932272285107743
 20
-23.877217408699238
 30
0.0
 10
15.859010903710036
 20
-23.968902983103675
 30
0.0
 10
15.773710404000553
 20
-24.050314815259142
 30
0.0
 10
15.656662568230036
 20
-24.161245435495356
 30
0.0
 10
15.524132526625012
 20
-24.256708689010072
 30
0.0
 10
15.376120279185429
 20
-24.33670457580321
 30
0.0
  0
LINE
  5
88
330
17
100
AcDbEntity
  8
visible
100
AcDbLine
 10
-15.376120279185415
 20
24.336704671645293
 30
0.0
 11
-6.166538345312471
 21
29.402811636226566
 31
0.0
  0
LINE
  5
89
330
17
100
AcDbEntity
  8
visible
100
AcDbLine
 10
1.3497279011236216
 20
-29.883332231382795
 30
0.0
 11
-13.740671412210357
 21
-27.64949569168774
 31
0.0
  0
LINE
  5
8A
330
17
100
AcDbEntity
  8
visible
100
AcDbLine
 10
-1.3497279011236074
 20
29.883332327224863
 30
0.0
 11
13.740671412210371
 21
27.64949578752981
 31
0.0
  0
ENDSEC
  0
SECTION
  2
OBJECTS
  0
DICTIONARY
  5
A
330
0
100
AcDbDictionary
281
1
  3
ACAD_COLOR
350
B
  3
ACAD_GROUP
350
C
  3
ACAD_LAYOUT
350
D
  3
ACAD_MATERIAL
350
E
  3
ACAD_MLEADERSTYLE
350
F
  3
ACAD_MLINESTYLE
350
10
  3
ACAD_PLOTSETTINGS
350
11
  3
ACAD_PLOTSTYLENAME
350
12
  3
ACAD_SCALELIST
350
14
  3
ACAD_TABLESTYLE
350
15
  3
ACAD_VISUALSTYLE
350
16
  3
EZDXF_META
350
2D
  0
DICTIONARY
  5
B
330
A
100
AcDbDictionary
281
1
  0
DICTIONARY
  5
C
330
A
100
AcDbDictionary
281
1
  0
DICTIONARY
  5
D
330
A
100
AcDbDictionary
281
1
  3
Model
350
1A
  3
Layout1
350
1E
  0
DICTIONARY
  5
E
330
A
100
AcDbDictionary
281
1
  3
ByBlock
350
1F
  3
ByLayer
350
20
  3
Global
350
21
  0
DICTIONARY
  5
F
330
A
100
AcDbDictionary
281
1
  3
Standard
350
2C
  0
DICTIONARY
  5
10
330
A
100
AcDbDictionary
281
1
  3
Standard
350
22
  0
DICTIONARY
  5
11
330
A
100
AcDbDictionary
281
1
  0
ACDBDICTIONARYWDFLT
  5
12
330
A
100
AcDbDictionary
281
1
  3
Normal
350
13
100
AcDbDictionaryWithDefault
340
13
  0
ACDBPLACEHOLDER
  5
13
330
12
  0
DICTIONARY
  5
14
330
A
100
AcDbDictionary
281
1
  0
DICTIONARY
  5
15
330
A
100
AcDbDictionary
281
1
  0
DICTIONARY
  5
16
330
A
100
AcDbDictionary
281
1
  0
LAYOUT
  5
1A
330
D
100
AcDbPlotSettings
  1

  4
A3
  6

 40
7.5
 41
20.0
 42
7.5
 43
20.0
 44
420.0
 45
297.0
 46
0.0
 47
0.0
 48
0.0
 49
0.0
140
0.0
141
0.0
142
1.0
143
1.0
 70
1024
 72
1
 73
0
 74
5
  7

 75
16
 76
0
 77
2
 78
300
147
1.0
148
0.0
149
0.0
100
AcDbLayout
  1
Model
 70
1
 71
0
 10
0.0
 20
0.0
 11
420.0
 21
297.0
 12
0.0
 22
0.0
 32
0.0
 14
1e+20
 24
1e+20
 34
1e+20
 15
-1e+20
 25
-1e+20
 35
-1e+20
146
0.0
 13
0.0
 23
0.0
 33
0.0
 16
1.0
 26
0.0
 36
0.0
 17
0.0
 27
1.0
 37
0.0
 76
1
330
17
  0
LAYOUT
  5
1E
330
D
100
AcDbPlotSettings
  1

  4
A3
  6

 40
7.5
 41
20.0
 42
7.5
 43
20.0
 44
420.0
 45
297.0
 46
0.0
 47
0.0
 48
0.0
 49
0.0
140
0.0
141
0.0
142
1.0
143
1.0
 70
0
 72
1
 73
0
 74
5
  7

 75
16
 76
0
 77
2
 78
300
147
1.0
148
0.0
149
0.0
100
AcDbLayout
  1
Layout1
 70
1
 71
1
 10
0.0
 20
0.0
 11
420.0
 21
297.0
 12
0.0
 22
0.0
 32
0.0
 14
1e+20
 24
1e+20
 34
1e+20
 15
-1e+20
 25
-1e+20
 35
-1e+20
146
0.0
 13
0.0
 23
0.0
 33
0.0
 16
1.0
 26
0.0
 36
0.0
 17
0.0
 27
1.0
 37
0.0
 76
1
330
1B
  0
MATERIAL
  5
1F
102
{ACAD_REACTORS
330
E
102
}
330
E
100
AcDbMaterial
  1
ByBlock
  2

 70
0
 40
1.0
 71
1
 41
1.0
 91
-1023410177
 42
1.0
 72
1
  3

 73
1
 74
1
 75
1
 44
0.5
 73
0
 45
1.0
 46
1.0
 77
1
  4

 78
1
 79
1
170
1
 48
1.0
171
1
  6

172
1
173
1
174
1
140
1.0
141
1.0
175
1
  7

176
1
177
1
178
1
143
1.0
179
1
  8

270
1
271
1
272
1
145
1.0
146
1.0
273
1
  9

274
1
275
1
276
1
 42
1.0
 72
1
  3

 73
1
 74
1
 75
1
 94
63
  0
MATERIAL
  5
20
102
{ACAD_REACTORS
330
E
102
}
330
E
100
AcDbMaterial
  1
ByLayer
  2

 70
0
 40
1.0
 71
1
 41
1.0
 91
-1023410177
 42
1.0
 72
1
  3

 73
1
 74
1
 75
1
 44
0.5
 73
0
 45
1.0
 46
1.0
 77
1
  4

 78
1
 79
1
170
1
 48
1.0
171
1
  6

172
1
173
1
174
1
140
1.0
141
1.0
175
1
  7

176
1
177
1
178
1
143
1.0
179
1
  8

270
1
271
1
272
1
145
1.0
146
1.0
273
1
  9

274
1
275
1
276
1
 42
1.0
 72
1
  3

 73
1
 74
1
 75
1
 94
63
  0
MATERIAL
  5
21
102
{ACAD_REACTORS
330
E
102
}
330
E
100
AcDbMaterial
  1
Global
  2

 70
0
 40
1.0
 71
1
 41
1.0
 91
-1023410177
 42
1.0
 72
1
  3

 73
1
 74
1
 75
1
 44
0.5
 73
0
 45
1.0
 46
1.0
 77
1
  4

 78
1
 79
1
170
1
 48
1.0
171
1
  6

172
1
173
1
174
1
140
1.0
141
1.0
175
1
  7

176
1
177
1
178
1
143
1.0
179
1
  8

270
1
271
1
272
1
145
1.0
146
1.0
273
1
  9

274
1
275
1
276
1
 42
1.0
 72
1
  3

 73
1
 74
1
 75
1
 94
63
  0
MLINESTYLE
  5
22
102
{ACAD_REACTORS
330
10
102
}
330
10
100
AcDbMlineStyle
  2
Standard
 70
0
  3

 62
256
 51
90.0
 52
90.0
 71
2
 49
0.5
 62
256
  6
BYLAYER
 49
-0.5
 62
256
  6
BYLAYER
  0
MLEADERSTYLE
  5
2C
102
{ACAD_REACTORS
330
F
102
}
330
F
100
AcDbMLeaderStyle
179
2
170
2
171
1
172
0
 90
2
 40
0.0
 41
0.0
173
1
 91
-1056964608
 92
-2
290
1
 42
2.0
291
1
 43
8.0
  3
Standard
 44
4.0
300

342
29
174
1
175
1
176
0
178
1
 93
-1056964608
 45
4.0
292
0
297
0
 46
4.0
 94
-1056964608
 47
1.0
 49
1.0
140
1.0
294
1
141
0.0
177
0
142
1.0
295
0
296
0
143
3.75
271
0
272
9
273
9
  0
DICTIONARY
  5
2D
330
A
100
AcDbDictionary
280
1
281
1
  3
CREATED_BY_EZDXF
350
2E
  3
WRITTEN_BY_EZDXF
350
8E
  0
DICTIONARYVAR
  5
2E
330
2D
100
DictionaryVariables
280
0
  1
1.4.4 @ 2026-10-01T19:08:22.559075+00:00
  0
DICTIONARYVAR
  5
8E
330
2D
100
DictionaryVariables
280
0
  1
1.4.4 @ 2026-10-01T19:08:22.576409+00:00
  0
ENDSEC
  0
EOF
