  0
SECTION
  2
HEADER
  9
$ACADVER
  1
AC1027
  9
$ACADMAINTVER
 70
105
  9
$DWGCODEPAGE
  3
ANSI_1252
  9
$LASTSAVEDBY
  1
ezdxf
  9
$REQUIREDVERSIONS
160
0
  9
$INSBASE
 10
0.0
 20
0.0
 30
0.0
  9
$EXTMIN
 10
1e+20
 20
1e+20
 30
1e+20
  9
$EXTMAX
 10
-1e+20
 20
-1e+20
 30
-1e+20
  9
$LIMMIN
 10
0.0
 20
0.0
  9
$LIMMAX
 10
420.0
 20
297.0
  9
$ORTHOMODE
 70
0
  9
$REGENMODE
 70
1
  9
$FILLMODE
 70
1
  9
$QTEXTMODE
 70
0
  9
$MIRRTEXT
 70
1
  9
$LTSCALE
 40
1.0
  9
$ATTMODE
 70
1
  9
$TEXTSIZE
 40
2.5
  9
$TRACEWID
 40
1.0
  9
$TEXTSTYLE
  7
Standard
  9
$CLAYER
  8
0
  9
$CELTYPE
  6
ByLayer
  9
$CECOLOR
 62
256
  9
$CELTSCALE
 40
1.0
  9
$DISPSILH
 70
0
  9
$DIMSCALE
 40
1.0
  9
$DIMASZ
 40
2.5
  9
$DIMEXO
 40
0.625
  9
$DIMDLI
 40
3.75
  9
$DIMRND
 40
0.0
  9
$DIMDLE
 40
0.0
  9
$DIMEXE
 40
1.25
  9
$DIMTP
 40
0.0
  9
$DIMTM
 40
0.0
  9
$DIMTXT
 40
2.5
  9
$DIMCEN
 40
2.5
  9
$DIMTSZ
 40
0.0
  9
$DIMTOL
 70
0
  9
$DIMLIM
 70
0
  9
$DIMTIH
 70
0
  9
$DIMTOH
 70
0
  9
$DIMSE1
 70
0
  9
$DIMSE2
 70
0
  9
$DIMTAD
 70
1
  9
$DIMZIN
 70
8
  9
$DIMBLK
  1

  9
$DIMASO
 70
1
  9
$DIMSHO
 70
1
  9
$DIMPOST
  1

  9
$DIMAPOST
  1

  9
$DIMALT
 70
0
  9
$DIMALTD
 70
3
  9
$DIMALTF
 40
0.03937007874
  9
$DIMLFAC
 40
1.0
  9
$DIMTOFL
 70
1
  9
$DIMTVP
 40
0.0
  9
$DIMTIX
 70
0
  9
$DIMSOXD
 70
0
  9
$DIMSAH
 70
0
  9
$DIMBLK1
  1

  9
$DIMBLK2
  1

  9
$DIMSTYLE
  2
ISO-25
  9
$DIMCLRD
 70
0
  9
$DIMCLRE
 70
0
  9
$DIMCLRT
 70
0
  9
$DIMTFAC
 40
1.0
  9
$DIMGAP
 40
0.625
  9
$DIMJUST
 70
0
  9
$DIMSD1
 70
0
  9
$DIMSD2
 70
0
  9
$DIMTOLJ
 70
0
  9
$DIMTZIN
 70
8
  9
$DIMALTZ
 70
0
  9
$DIMALTTZ
 70
0
  9
$DIMUPT
 70
0
  9
$DIMDEC
 70
2
  9
$DIMTDEC
 70
2
  9
$DIMALTU
 70
2
  9
$DIMALTTD
 70
3
  9
$DIMTXSTY
  7
Standard
  9
$DIMAUNIT
 70
0
  9
$DIMADEC
 70
0
  9
$DIMALTRND
 40
0.0
  9
$DIMAZIN
 70
0
  9
$DIMDSEP
 70
44
  9
$DIMATFIT
 70
3
  9
$DIMFRAC
 70
0
  9
$DIMLDRBLK
  1

  9
$DIMLUNIT
 70
2
  9
$DIMLWD
 70
-2
  9
$DIMLWE
 70
-2
  9
$DIMTMOVE
 70
0
  9
$DIMFXL
 40
1.0
  9
$DIMFXLON
 70
0
  9
$DIMJOGANG
 40
0.785398163397
  9
$DIMTFILL
 70
0
  9
$DIMTFILLCLR
 70
0
  9
$DIMARCSYM
 70
0
  9
$DIMLTYPE
  6

  9
$DIMLTEX1
  6

  9
$DIMLTEX2
  6

  9
$DIMTXTDIRECTION
 70
0
  9
$LUNITS
 70
2
  9
$LUPREC
 70
4
  9
$SKETCHINC
 40
1.0
  9
$FILLETRAD
 40
10.0
  9
$AUNITS
 70
0
  9
$AUPREC
 70
2
  9
$MENU
  1
.
  9
$ELEVATION
 40
0.0
  9
$PELEVATION
 40
0.0
  9
$THICKNESS
 40
0.0
  9
$LIMCHECK
 70
0
  9
$CHAMFERA
 40
0.0
  9
$CHAMFERB
 40
0.0
  9
$CHAMFERC
 40
0.0
  9
$CHAMFERD
 40
0.0
  9
$SKPOLY
 70
0
  9
$TDCREATE
 40
2461316.6496412037
  9
$TDUCREATE
 40
2458532.153996898
  9
$TDUPDATE
 40
2461316.6496412037
  9
$TDUUPDATE
 40
2458532.1544311
  9
$TDINDWG
 40
0.0
  9
$TDUSRTIMER
 40
0.0
  9
$USRTIMER
 70
1
  9
$ANGBASE
 50
0.0
  9
$ANGDIR
 70
0
  9
$PDMODE
 70
0
  9
$PDSIZE
 40
0.0
  9
$PLINEWID
 40
0.0
  9
$SPLFRAME
 70
0
  9
$SPLINETYPE
 70
6
  9
$SPLINESEGS
 70
8
  9
$HANDSEED
  5
8B
  9
$SURFTAB1
 70
6
  9
$SURFTAB2
 70
6
  9
$SURFTYPE
 70
6
  9
$SURFU
 70
6
  9
$SURFV
 70
6
  9
$UCSBASE
  2

  9
$UCSNAME
  2

  9
$UCSORG
 10
0.0
 20
0.0
 30
0.0
  9
$UCSXDIR
 10
1.0
 20
0.0
 30
0.0
  9
$UCSYDIR
 10
0.0
 20
1.0
 30
0.0
  9
$UCSORTHOREF
  2

  9
$UCSORTHOVIEW
 70
0
  9
$UCSORGTOP
 10
0.0
 20
0.0
 30
0.0
  9
$UCSORGBOTTOM
 10
0.0
 20
0.0
 30
0.0
  9
$UCSORGLEFT
 10
0.0
 20
0.0
 30
0.0
  9
$UCSORGRIGHT
 10
0.0
 20
0.0
 30
0.0
  9
$UCSORGFRONT
 10
0.0
 20
0.0
 30
0.0
  9
$UCSORGBACK
 10
0.0
 20
0.0
 30
0.0
  9
$PUCSBASE
  2

  9
$PUCSNAME
  2

  9
$PUCSORG
 10
0.0
 20
0.0
 30
0.0
  9
$PUCSXDIR
 10
1.0
 20
0.0
 30
0.0
  9
$PUCSYDIR
 10
0.0
 20
1.0
 30
0.0
  9
$PUCSORTHOREF
  2

  9
$PUCSORTHOVIEW
 70
0
  9
$PUCSORGTOP
 10
0.0
 20
0.0
 30
0.0
  9
$PUCSORGBOTTOM
 10
0.0
 20
0.0
 30
0.0
  9
$PUCSORGLEFT
 10
0.0
 20
0.0
 30
0.0
  9
$PUCSORGRIGHT
 10
0.0
 20
0.0
 30
0.0
  9
$PUCSORGFRONT
 10
0.0
 20
0.0
 30
0.0
  9
$PUCSORGBACK
 10
0.0
 20
0.0
 30
0.0
  9
$USERI1
 70
0
  9
$USERI2
 70
0
  9
$USERI3
 70
0
  9
$USERI4
 70
0
  9
$USERI5
 70
0
  9
$USERR1
 40
0.0
  9
$USERR2
 40
0.0
  9
$USERR3
 40
0.0
  9
$USERR4
 40
0.0
  9
$USERR5
 40
0.0
  9
$WORLDVIEW
 70
1
  9
$SHADEDGE
 70
3
  9
$SHADEDIF
 70
70
  9
$TILEMODE
 70
1
  9
$MAXACTVP
 70
64
  9
$PINSBASE
 10
0.0
 20
0.0
 30
0.0
  9
$PLIMCHECK
 70
0
  9
$PEXTMIN
 10
1e+20
 20
1e+20
 30
1e+20
  9
$PEXTMAX
 10
-1e+20
 20
-1e+20
 30
-1e+20
  9
$PLIMMIN
 10
0.0
 20
0.0
  9
$PLIMMAX
 10
420.0
 20
297.0
  9
$UNITMODE
 70
0
  9
$VISRETAIN
 70
1
  9
$PLINEGEN
 70
0
  9
$PSLTSCALE
 70
1
  9
$TREEDEPTH
 70
3020
  9
$CMLSTYLE
  2
Standard
  9
$CMLJUST
 70
0
  9
$CMLSCALE
 40
20.0
  9
$PROXYGRAPHICS
 70
1
  9
$MEASUREMENT
 70
1
  9
$CELWEIGHT
370
-1
  9
$ENDCAPS
280
0
  9
$JOINSTYLE
280
0
  9
$LWDISPLAY
290
0
  9
$INSUNITS
 70
4
  9
$HYPERLINKBASE
  1

  9
$STYLESHEET
  1

  9
$XEDIT
290
1
  9
$CEPSNTYPE
380
0
  9
$PSTYLEMODE
290
1
  9
$FINGERPRINTGUID
  2
{E7BC8757-7F4B-424E-AB15-3C3FEC9123C2}
  9
$VERSIONGUID
  2
{A1C43C17-5F29-4404-8CB0-4A5DBBC99481}
  9
$EXTNAMES
290
1
  9
$PSVPSCALE
 40
0.0
  9
$OLESTARTUP
290
0
  9
$SORTENTS
280
127
  9
$INDEXCTL
280
0
  9
$HIDETEXT
280
1
  9
$XCLIPFRAME
280
1
  9
$HALOGAP
280
0
  9
$OBSCOLOR
 70
257
  9
$OBSLTYPE
280
0
  9
$INTERSECTIONDISPLAY
280
0
  9
$INTERSECTIONCOLOR
 70
257
  9
$DIMASSOC
280
2
  9
$PROJECTNAME
  1

  9
$CAMERADISPLAY
290
0
  9
$LENSLENGTH
 40
50.0
  9
$CAMERAHEIGHT
 40
0.0
  9
$STEPSPERSEC
 40
24.0
  9
$STEPSIZE
 40
100.0
  9
$3DDWFPREC
 40
2.0
  9
$PSOLWIDTH
 40
0.005
  9
$PSOLHEIGHT
 40
0.08
  9
$LOFTANG1
 40
1.570796326795
  9
$LOFTANG2
 40
1.570796326795
  9
$LOFTMAG1
 40
0.0
  9
$LOFTMAG2
 40
0.0
  9
$LOFTPARAM
 70
7
  9
$LOFTNORMALS
280
1
  9
$LATITUDE
 40
37.795
  9
$LONGITUDE
 40
-122.394
  9
$NORTHDIRECTION
 40
0.0
  9
$TIMEZONE
 70
-8000
  9
$LIGHTGLYPHDISPLAY
280
1
  9
$TILEMODELIGHTSYNCH
280
1
  9
$CMATERIAL
347
20
  9
$SOLIDHIST
280
0
  9
$SHOWHIST
280
1
  9
$DWFFRAME
280
2
  9
$DGNFRAME
280
2
  9
$REALWORLDSCALE
290
1
  9
$INTERFERECOLOR
 62
256
  9
$CSHADOW
280
0
  9
$SHADOWPLANELOCATION
 40
0.0
  0
ENDSEC
  0
SECTION
  2
CLASSES
  0
CLASS
  1
ACDBDICTIONARYWDFLT
  2
AcDbDictionaryWithDefault
  3
ObjectDBX Classes
 90
0
 91
0
280
0
281
0
  0
CLASS
  1
SUN
  2
AcDbSun
  3
SCENEOE
 90
1153
 91
0
280
0
281
0
  0
CLASS
  1
VISUALSTYLE
  2
AcDbVisualStyle
  3
ObjectDBX Classes
 90
4095
 91
0
280
0
281
0
  0
CLASS
  1
MATERIAL
  2
AcDbMaterial
  3
ObjectDBX Classes
 90
1153
 91
0
280
0
281
0
  0
CLASS
  1
SCALE
  2
AcDbScale
  3
ObjectDBX Classes
 90
1153
 91
0
280
0
281
0
  0
CLASS
  1
TABLESTYLE
  2
AcDbTableStyle
  3
ObjectDBX Classes
 90
4095
 91
0
280
0
281
0
  0
CLASS
  1
MLEADERSTYLE
  2
AcDbMLeaderStyle
  3
ACDB_MLEADERSTYLE_CLASS
 90
4095
 91
0
280
0
281
0
  0
CLASS
  1
DICTIONARYVAR
  2
AcDbDictionaryVar
  3
ObjectDBX Classes
 90
0
 91
0
280
0
281
0
  0
CLASS
  1
CELLSTYLEMAP
  2
AcDbCellStyleMap
  3
ObjectDBX Classes
 90
1152
 91
0
280
0
281
0
  0
CLASS
  1
MENTALRAYRENDERSETTINGS
  2
AcDbMentalRayRenderSettings
  3
SCENEOE
 90
1024
 91
0
280
0
281
0
  0
CLASS
  1
ACDBDETAILVIEWSTYLE
  2
AcDbDetailViewStyle
  3
ObjectDBX Classes
 90
1025
 91
0
280
0
281
0
  0
CLASS
  1
ACDBSECTIONVIEWSTYLE
  2
AcDbSectionViewStyle
  3
ObjectDBX Classes
 90
1025
 91
0
280
0
281
0
  0
CLASS
  1
RASTERVARIABLES
  2
AcDbRasterVariables
  3
ISM
 90
0
 91
0
280
0
281
0
  0
CLASS
  1
LAYOUT
  2
AcDbLayout
  3
ObjectDBX Classes
 90
0
 91
0
280
0
281
0
  0
CLASS
  1
ACDBPLACEHOLDER
  2
AcDbPlaceHolder
  3
ObjectDBX Classes
 90
0
 91
0
280
0
281
0
  0
ENDSEC
  0
SECTION
  2
TABLES
  0
TABLE
  2
VPORT
  5
8
330
0
100
AcDbSymbolTable
 70
1
  0
VPORT
  5
87
330
8
100
AcDbSymbolTableRecord
100
AcDbViewportTableRecord
  2
*Active
 70
0
 10
0.0
 20
0.0
 11
1.0
 21
1.0
 12
-0.5790979985447819
 22
-0.5096982057747752
 13
0.0
 23
0.0
 14
0.5
 24
0.5
 15
0.5
 25
0.5
 16
0.0
 26
0.0
 36
1.0
 17
0.0
 27
0.0
 37
0.0
 40
79.30857631712047
 41
1.34
 42
50.0
 43
0.0
 44
0.0
 50
0.0
 51
0.0
 71
0
 72
1000
 73
1
 74
3
 75
0
 76
0
 77
0
 78
0
281
0
 65
1
110
0.0
120
0.0
130
0.0
111
1.0
121
0.0
131
0.0
112
0.0
122
1.0
132
0.0
 79
0
146
0.0
  0
ENDTAB
  0
TABLE
  2
LTYPE
  5
2
330
0
100
AcDbSymbolTable
 70
3
  0
LTYPE
  5
24
330
2
100
AcDbSymbolTableRecord
100
AcDbLinetypeTableRecord
  2
ByBlock
 70
0
  3

 72
65
 73
0
 40
0.0
  0
LTYPE
  5
25
330
2
100
AcDbSymbolTableRecord
100
AcDbLinetypeTableRecord
  2
ByLayer
 70
0
  3

 72
65
 73
0
 40
0.0
  0
LTYPE
  5
26
330
2
100
AcDbSymbolTableRecord
100
AcDbLinetypeTableRecord
  2
Continuous
 70
0
  3

 72
65
 73
0
 40
0.0
  0
ENDTAB
  0
TABLE
  2
LAYER
  5
1
330
0
100
AcDbSymbolTable
 70
3
  0
LAYER
  5
27
330
1
100
AcDbSymbolTableRecord
100
AcDbLayerTableRecord
  2
0
 70
0
 62
7
  6
Continuous
370
-3
390
13
347
21
  0
LAYER
  5
28
330
1
100
AcDbSymbolTableRecord
100
AcDbLayerTableRecord
  2
Defpoints
 70
0
 62
7
  6
Continuous
290
0
370
-3
390
13
347
21
  0
LAYER
  5
2F
330
1
100
AcDbSymbolTableRecord
100
AcDbLayerTableRecord
  2
visible
 70
0
 62
7
  6
Continuous
370
-3
390
13
347
21
  0
ENDTAB
  0
TABLE
  2
STYLE
  5
5
330
0
100
AcDbSymbolTable
 70
1
  0
STYLE
  5
29
330
5
100
AcDbSymbolTableRecord
100
AcDbTextStyleTableRecord
  2
Standard
 70
0
 40
0.0
 41
1.0
 50
0.0
 71
0
 42
2.5
  3
txt
  4

  0
ENDTAB
  0
TABLE
  2
VIEW
  5
7
330
0
100
AcDbSymbolTable
 70
0
  0
ENDTAB
  0
TABLE
  2
UCS
  5
6
330
0
100
AcDbSymbolTable
 70
0
  0
ENDTAB
  0
TABLE
  2
APPID
  5
3
330
0
100
AcDbSymbolTable
 70
3
  0
APPID
  5
2A
330
3
100
AcDbSymbolTableRecord
100
AcDbRegAppTableRecord
  2
ACAD
 70
0
  0
APPID
  5
88
330
3
100
AcDbSymbolTableRecord
100
AcDbRegAppTableRecord
  2
HATCHBACKGROUNDCOLOR
 70
0
  0
APPID
  5
89
330
3
100
AcDbSymbolTableRecord
100
AcDbRegAppTableRecord
  2
EZDXF
 70
0
  0
ENDTAB
  0
TABLE
  2
DIMSTYLE
  5
4
330
0
100
AcDbSymbolTable
 70
1
100
AcDbDimStyleTable
  0
DIMSTYLE
105
2B
330
4
100
AcDbSymbolTableRecord
100
AcDbDimStyleTableRecord
  2
Standard
 70
0
 40
1.0
 41
2.5
 42
0.625
 43
3.75
 44
1.25
 45
0.0
 46
0.0
 47
0.0
 48
0.0
 49
2.5
140
2.5
141
2.5
142
0.0
143
0.03937007874
144
1.0
145
0.0
146
1.0
147
0.625
148
0.0
 69
0
 70
0
 71
0
 72
0
 73
0
 74
0
 75
0
 76
0
 77
1
 78
8
 79
3
170
0
171
3
172
1
173
0
174
0
175
0
176
0
177
0
178
0
179
2
271
2
272
2
273
2
274
3
275
0
276
0
277
2
278
44
279
0
280
0
281
0
282
0
283
0
284
8
285
0
286
0
288
0
289
3
290
0
371
-2
372
-2
  0
ENDTAB
  0
TABLE
  2
BLOCK_RECORD
  5
9
330
0
100
AcDbSymbolTable
 70
2
  0
BLOCK_RECORD
  5
17
330
9
100
AcDbSymbolTableRecord
100
AcDbBlockTableRecord
  2
*Model_Space
340
1A
 70
0
280
1
281
0
  0
BLOCK_RECORD
  5
1B
330
9
100
AcDbSymbolTableRecord
100
AcDbBlockTableRecord
  2
*Paper_Space
340
1E
 70
0
280
1
281
0
  0
ENDTAB
  0
ENDSEC
  0
SECTION
  2
BLOCKS
  0
BLOCK
  5
18
330
17
100
AcDbEntity
  8
0
100
AcDbBlockBegin
  2
*Model_Space
 70
0
 10
0.0
 20
0.0
 30
0.0
  3
*Model_Space
  1

  0
ENDBLK
  5
19
330
17
100
AcDbEntity
  8
0
100
AcDbBlockEnd
  0
BLOCK
  5
1C
330
1B
100
AcDbEntity
  8
0
100
AcDbBlockBegin
  2
*Paper_Space
 70
0
 10
0.0
 20
0.0
 30
0.0
  3
*Paper_Space
  1

  0
ENDBLK
  5
1D
330
1B
100
AcDbEntity
  8
0
100
AcDbBlockEnd
  0
ENDSEC
  0
SECTION
  2
ENTITIES
  0
LINE
  5
30
330
17
100
AcDbEntity
  8
visible
100
AcDbLine
 10
-14.477503288477177
 20
-31.77523354507143
 30
0.0
 11
-19.674484618630007
 21
-30.918228353008185
 31
0.0
  0
SPLINE
  5
31
330
17
100
AcDbEntity
  8
visible
100
AcDbSpline
 70
0
 71
3
 72
11
 73
7
 74
0
 40
0.0
 40
0.0
 40
0.0
 40
0.0
 40
0.512213144857442
 40
0.512213144857442
 40
0.512213144857442
 40
1.0
 40
1.0
 40
1.0
 40
1.0
 10
-13.23314680630957
 20
-32.538553533329804
 30
0.0
 10
-13.364937721952254
 20
-32.350847242564896
 30
0.0
 10
-13.587677364907039
 20
-32.164754031615104
 30
0.0
 10
-13.818038462846514
 20
-32.02971386565104
 30
0.0
 10
-14.038514289193508
 20
-31.899951035296937
 30
0.0
 10
-14.271574409762824
 20
-31.80944765543261
 30
0.0
 10
-14.477503288477166
 20
-31.77523354507143
 30
0.0
  0
SPLINE
  5
32
330
17
100
AcDbEntity
  8
visible
100
AcDbSpline
 70
0
 71
3
 72
8
 73
4
 74
0
 40
0.0
 40
0.0
 40
0.0
 40
0.0
 40
0.9999996816477258
 40
0.9999996816477258
 40
0.9999996816477258
 40
0.9999996816477258
 10
-12.309229302702349
 20
-33.8820023247388
 30
0.0
 10
-12.57074525966457
 20
-33.47987945946461
 30
0.0
 10
-12.891878125928187
 20
-33.02445481324415
 30
0.0
 10
-13.23314680654821
 20
-32.53855353365053
 30
0.0
  0
ELLIPSE
  5
33
330
17
100
AcDbEntity
  8
visible
100
AcDbEllipse
 10
-6.385777782545475
 20
-18.36782689383442
 30
0.0
 11
2.9287255572102073
 21
17.760139825196866
 31
0.0
 40
0.43135761069610307
 41
-3.5834544942291036
 42
-3.141592653589793
  0
SPLINE
  5
34
330
17
100
AcDbEntity
  8
visible
100
AcDbSpline
 70
0
 71
3
 72
8
 73
4
 74
0
 40
0.0
 40
0.0
 40
0.0
 40
0.0
 40
0.5480858992752917
 40
0.5480858992752917
 40
0.5480858992752917
 40
0.5480858992752917
 10
-19.674484618630007
 20
-30.91822835300819
 30
0.0
 10
-19.889833383665263
 20
-30.883393797857043
 30
0.0
 10
-20.034619978096007
 20
-30.809634212973712
 30
0.0
 10
-20.06531300730076
 20
-30.727641003451417
 30
0.0
  0
ELLIPSE
  5
35
330
17
100
AcDbEntity
  8
visible
100
AcDbEllipse
 10
6.88204148855543
 20
-26.291088607511014
 30
0.0
 11
-0.36609069465127553
 21
-2.2200174781496083
 31
0.0
 40
0.4313576106961032
 41
0.36514798975775536
 42
3.141592653589793
  0
ELLIPSE
  5
36
330
17
100
AcDbEntity
  8
visible
100
AcDbEllipse
 10
6.88204148855543
 20
-26.291088607511014
 30
0.0
 11
-0.36609069465127553
 21
-2.2200174781496083
 31
0.0
 40
0.4313576106961032
 41
3.141592653589793
 42
6.283185307179586
  0
ELLIPSE
  5
37
330
17
100
AcDbEntity
  8
visible
100
AcDbEllipse
 10
6.88204148855543
 20
-26.291088607511014
 30
0.0
 11
-0.36609069465127553
 21
-2.2200174781496083
 31
0.0
 40
0.4313576106961032
 41
0.0
 42
0.3651479897577552
  0
ELLIPSE
  5
38
330
17
100
AcDbEntity
  8
visible
100
AcDbEllipse
 10
15.995043827258314
 20
-20.55565918948099
 30
0.0
 11
-0.36609069465127553
 21
-2.2200174781496083
 31
0.0
 40
0.4313576106961032
 41
0.36514798975775536
 42
3.141592653589793
  0
ELLIPSE
  5
39
330
17
100
AcDbEntity
  8
visible
100
AcDbEllipse
 10
15.995043827258314
 20
-20.55565918948099
 30
0.0
 11
-0.36609069465127553
 21
-2.2200174781496083
 31
0.0
 40
0.4313576106961032
 41
3.141592653589793
 42
6.283185307179586
  0
ELLIPSE
  5
3A
330
17
100
AcDbEntity
  8
visible
100
AcDbEllipse
 10
15.995043827258314
 20
-20.55565918948099
 30
0.0
 11
-0.36609069465127553
 21
-2.2200174781496083
 31
0.0
 40
0.4313576106961032
 41
0.0
 42
0.3651479897577552
  0
ELLIPSE
  5
3B
330
17
100
AcDbEntity
  8
visible
100
AcDbEllipse
 10
6.88204148855543
 20
17.729812851456032
 30
0.0
 11
-0.36609069465127553
 21
-2.2200174781496083
 31
0.0
 40
0.4313576106961032
 41
1.7420821925227026
 42
3.141592653589793
  0
ELLIPSE
  5
3C
330
17
100
AcDbEntity
  8
visible
100
AcDbEllipse
 10
6.88204148855543
 20
17.729812851456032
 30
0.0
 11
-0.36609069465127553
 21
-2.2200174781496083
 31
0.0
 40
0.4313576106961032
 41
3.141592653589793
 42
6.283185307179586
  0
ELLIPSE
  5
3D
330
17
100
AcDbEntity
  8
visible
100
AcDbEllipse
 10
6.88204148855543
 20
17.729812851456032
 30
0.0
 11
-0.36609069465127553
 21
-2.2200174781496083
 31
0.0
 40
0.4313576106961032
 41
0.0
 42
0.3651479897577552
  0
ELLIPSE
  5
3E
330
17
100
AcDbEntity
  8
visible
100
AcDbEllipse
 10
6.88204148855543
 20
17.729812851456032
 30
0.0
 11
-0.36609069465127553
 21
-2.2200174781496083
 31
0.0
 40
0.4313576106961032
 41
0.36514798975775536
 42
0.37769033938621344
  0
ELLIPSE
  5
3F
330
17
100
AcDbEntity
  8
visible
100
AcDbEllipse
 10
11.438542657906872
 20
9.237294925898908
 30
0.0
 11
2.26917821507564
 21
13.76056636266839
 31
0.0
 40
0.43135761069610307
 41
-5.12140324316427
 42
-3.4212715883898257
  0
ELLIPSE
  5
40
330
17
100
AcDbEntity
  8
visible
100
AcDbEllipse
 10
15.995043827258314
 20
23.465242269486055
 30
0.0
 11
-0.36609069465127553
 21
-2.2200174781496083
 31
0.0
 40
0.4313576106961032
 41
0.81544504722452
 42
3.141592653589793
  0
ELLIPSE
  5
41
330
17
100
AcDbEntity
  8
visible
100
AcDbEllipse
 10
15.995043827258314
 20
23.465242269486055
 30
0.0
 11
-0.36609069465127553
 21
-2.2200174781496083
 31
0.0
 40
0.4313576106961032
 41
3.141592653589793
 42
5.08380570126665
  0
ELLIPSE
  5
42
330
17
100
AcDbEntity
  8
visible
100
AcDbEllipse
 10
11.438542657906872
 20
9.237294925898908
 30
0.0
 11
2.26917821507564
 21
13.76056636266839
 31
0.0
 40
0.43135761069610307
 41
-6.003506372379554
 42
-5.3251948392859845
  0
ELLIPSE
  5
43
330
17
100
AcDbEntity
  8
visible
100
AcDbEllipse
 10
5.279755363721343
 20
-26.0268645434016
 30
0.0
 11
-0.36609069465127553
 21
-2.2200174781496083
 31
0.0
 40
0.4313576106961032
 41
0.9910412265054331
 42
2.1505514270843573
  0
ELLIPSE
  5
44
330
17
100
AcDbEntity
  8
visible
100
AcDbEllipse
 10
14.392757702424234
 20
-20.291435125371578
 30
0.0
 11
-0.36609069465127553
 21
-2.2200174781496083
 31
0.0
 40
0.4313576106961032
 41
0.9910412265054209
 42
2.1505514270843697
  0
LINE
  5
45
330
17
100
AcDbEntity
  8
visible
100
AcDbLine
 10
6.917386385137511
 20
15.593940702802492
 30
0.0
 11
7.222568025036037
 21
15.543614901476642
 31
0.0
  0
SPLINE
  5
46
330
17
100
AcDbEntity
  8
visible
100
AcDbSpline
 70
0
 71
1
 72
4
 73
2
 74
0
 40
0.0
 40
0.0
 40
1.0
 40
1.0
 10
6.917386385137512
 20
15.593940702802485
 30
0.0
 10
6.894899728344889
 20
15.60802933036507
 30
0.0
  0
LINE
  5
47
330
17
100
AcDbEntity
  8
visible
100
AcDbLine
 10
6.198132140179241
 20
15.712548906908669
 30
0.0
 11
6.88204148855543
 21
15.59976923247375
 31
0.0
  0
ELLIPSE
  5
48
330
17
100
AcDbEntity
  8
visible
100
AcDbEllipse
 10
5.279755363721343
 20
17.994036915565445
 30
0.0
 11
-0.36609069465127553
 21
-2.2200174781496083
 31
0.0
 40
0.4313576106961032
 41
0.9910412265054351
 42
2.1505514270843604
  0
SPLINE
  5
49
330
17
100
AcDbEntity
  8
visible
100
AcDbSpline
 70
0
 71
2
 72
6
 73
3
 74
0
 40
0.0
 40
0.0
 40
0.0
 40
1.0
 40
1.0
 40
1.0
 10
8.072070290986623
 20
17.996463983914012
 30
0.0
 10
7.976722330539815
 20
18.012013259312972
 30
0.0
 10
7.888049470669586
 20
17.95260867745708
 30
0.0
  0
LINE
  5
4A
330
17
100
AcDbEntity
  8
visible
100
AcDbLine
 10
8.07207029098661
 20
17.996463983913983
 30
0.0
 11
8.250102082634845
 21
17.967105754568493
 31
0.0
  0
ELLIPSE
  5
4B
330
17
100
AcDbEntity
  8
visible
100
AcDbEllipse
 10
11.61657444955511
 20
9.207936696553418
 30
0.0
 11
-2.2778976556079362
 21
-13.81344208626423
 31
0.0
 40
0.4313576106961032
 41
4.307080868316009
 42
6.283185307179586
  0
SPLINE
  5
4C
330
17
100
AcDbEntity
  8
visible
100
AcDbSpline
 70
0
 71
2
 72
6
 73
3
 74
0
 40
0.0
 40
0.0
 40
0.0
 40
1.0
 40
1.0
 40
1.0
 10
7.03897521736625
 20
15.55758365200839
 30
0.0
 10
6.964479047824238
 20
15.569725309358375
 30
0.0
 10
6.917386385137512
 20
15.593940702802485
 30
0.0
  0
ELLIPSE
  5
4D
330
17
100
AcDbEntity
  8
visible
100
AcDbEllipse
 10
14.392757702424234
 20
23.729466333595468
 30
0.0
 11
-0.36609069465127553
 21
-2.2200174781496083
 31
0.0
 40
0.4313576106961032
 41
1.1831027022211271
 42
2.1505514270843635
  0
ELLIPSE
  5
4E
330
17
100
AcDbEntity
  8
visible
100
AcDbEllipse
 10
11.61657444955511
 20
9.207936696553418
 30
0.0
 11
-2.2778976556079362
 21
-13.81344208626423
 31
0.0
 40
0.4313576106961032
 41
3.1415926535897936
 42
4.095876970772493
  0
ELLIPSE
  5
4F
330
17
100
AcDbEntity
  8
visible
100
AcDbEllipse
 10
11.79460624120334
 20
9.178578467207927
 30
0.0
 11
-2.2778976556079362
 21
-13.81344208626423
 31
0.0
 40
0.4313576106961032
 41
4.095876970772495
 42
4.3070808683160084
  0
LINE
  5
50
330
17
100
AcDbEntity
  8
visible
100
AcDbLine
 10
7.038975217366252
 20
15.557583652008404
 30
0.0
 11
7.217007009014487
 21
15.528225422662914
 31
0.0
  0
LINE
  5
51
330
17
100
AcDbEntity
  8
visible
100
AcDbLine
 10
-20.99662438671444
 20
-22.4728171136238
 30
0.0
 11
1.6134131526110593
 21
-26.201312240501036
 31
0.0
  0
LINE
  5
52
330
17
100
AcDbEntity
  8
visible
100
AcDbLine
 10
-20.996624386714437
 20
14.921281975176157
 30
0.0
 11
-20.996624386714437
 21
-22.472817113623805
 31
0.0
  0
LINE
  5
53
330
17
100
AcDbEntity
  8
visible
100
AcDbLine
 10
1.6134131526110593
 20
11.192786848298923
 30
0.0
 11
1.6134131526110593
 21
-26.20131224050104
 31
0.0
  0
LINE
  5
54
330
17
100
AcDbEntity
  8
visible
100
AcDbLine
 10
-20.99662438671444
 20
14.921281975176159
 30
0.0
 11
1.6134131526110593
 21
11.192786848298926
 31
0.0
  0
ELLIPSE
  5
55
330
17
100
AcDbEntity
  8
visible
100
AcDbEllipse
 10
-12.794922281881838
 20
-17.31093063739678
 30
0.0
 11
-2.9287255572102073
 21
-17.760139825196866
 31
0.0
 40
0.43135761069610307
 41
5.077536970142445
 42
5.653263618122636
  0
ELLIPSE
  5
56
330
17
100
AcDbEntity
  8
visible
100
AcDbEllipse
 10
9.815115257443658
 20
-21.039425764274014
 30
0.0
 11
-2.9287255572102073
 21
-17.760139825196866
 31
0.0
 40
0.43135761069610307
 41
5.077536970142445
 42
6.283185307179586
  0
ELLIPSE
  5
57
330
17
100
AcDbEntity
  8
visible
100
AcDbEllipse
 10
-20.63210429316632
 20
15.150699151897356
 30
0.0
 11
-0.8
 21
3.518240354063925e-17
 31
0.0
 40
0.32215759696237245
 41
-6.283185307179586
 42
-5.185491396138598
  0
ELLIPSE
  5
58
330
17
100
AcDbEntity
  8
visible
100
AcDbEllipse
 10
-20.63210429316632
 20
-22.243399936902605
 30
0.0
 11
-0.8
 21
-0.0
 31
0.0
 40
0.3221575969623725
 41
-6.283185307179586
 42
-5.185491396138598
  0
ELLIPSE
  5
59
330
17
100
AcDbEntity
  8
visible
100
AcDbEllipse
 10
1.977933246159175
 20
11.422204025020122
 30
0.0
 11
0.8
 21
-3.518240354063925e-17
 31
0.0
 40
0.32215759696237245
 41
4.239286564630781
 42
5.810082891425678
  0
LINE
  5
5A
330
17
100
AcDbEntity
  8
visible
100
AcDbLine
 10
2.6900604127521035
 20
11.304771107638174
 30
0.0
 11
2.6900604127521035
 21
-26.089327981161787
 31
0.0
  0
ELLIPSE
  5
5B
330
17
100
AcDbEntity
  8
visible
100
AcDbEllipse
 10
1.977933246159175
 20
-25.97189506377984
 30
0.0
 11
0.8
 21
0.0
 31
0.0
 40
0.3221575969623725
 41
4.239286564630781
 42
5.810082891425678
  0
LINE
  5
5C
330
17
100
AcDbEntity
  8
visible
100
AcDbLine
 10
-12.79492228188184
 20
37.1235174032614
 30
0.0
 11
9.815115257443658
 21
33.39502227638417
 31
0.0
  0
ELLIPSE
  5
5D
330
17
100
AcDbEntity
  8
visible
100
AcDbEllipse
 10
-12.794922281881838
 20
20.083168451403182
 30
0.0
 11
-2.9287255572102078
 21
-17.760139825196866
 31
0.0
 40
0.4313576106961031
 41
3.5067406433475483
 42
5.077536970142445
  0
ELLIPSE
  5
5E
330
17
100
AcDbEntity
  8
visible
100
AcDbEllipse
 10
9.815115257443658
 20
16.354673324525947
 30
0.0
 11
-2.9287255572102078
 21
-17.760139825196866
 31
0.0
 40
0.4313576106961031
 41
3.5067406433475483
 42
5.077536970142445
  0
ELLIPSE
  5
5F
330
17
100
AcDbEntity
  8
visible
100
AcDbEllipse
 10
10.527242424036586
 20
-21.156858681655976
 30
0.0
 11
-2.7985599768897536
 21
-16.970800277410337
 31
0.0
 40
0.43135761069610307
 41
5.077536970142445
 42
6.648333296937341
  0
ELLIPSE
  5
60
330
17
100
AcDbEntity
  8
visible
100
AcDbEllipse
 10
9.815115257443658
 20
-37.32242587382742
 30
0.0
 11
-0.4261236157552266
 21
0.6770662183979438
 31
0.0
 40
0.8427010706139982
 41
3.141592653589793
 42
4.0709096518527605
  0
ELLIPSE
  5
61
330
17
100
AcDbEntity
  8
visible
100
AcDbEllipse
 10
-12.794922281881838
 20
36.36616856095657
 30
0.0
 11
-0.4261236157552266
 21
0.6770662183979437
 31
0.0
 40
0.8427010706139982
 41
5.641705978647656
 42
6.283185307179586
  0
ELLIPSE
  5
62
330
17
100
AcDbEntity
  8
visible
100
AcDbEllipse
 10
9.815115257443658
 20
32.63767343407933
 30
0.0
 11
0.4261236157552266
 21
-0.6770662183979437
 31
0.0
 40
0.8427010706139982
 41
-5.35386830891662
 42
-3.783071982121723
  0
ELLIPSE
  5
63
330
17
100
AcDbEntity
  8
visible
100
AcDbEllipse
 10
10.527242424036586
 20
16.237240407143986
 30
0.0
 11
-2.798559976889754
 21
-16.970800277410337
 31
0.0
 40
0.4313576106961031
 41
3.5067406433475483
 42
5.077536970142445
  0
LINE
  5
64
330
17
100
AcDbEntity
  8
visible
100
AcDbLine
 10
10.52724242403658
 20
-37.439858791209375
 30
0.0
 11
12.349842891777156
 21
-36.29277290760337
 31
0.0
  0
ELLIPSE
  5
65
330
17
100
AcDbEntity
  8
visible
100
AcDbEllipse
 10
12.349842891777158
 20
-20.009772798049966
 30
0.0
 11
-2.7985599768897536
 21
-16.97080027741034
 31
0.0
 40
0.43135761069610307
 41
0.3651479897577552
 42
1.9359443165526518
  0
LINE
  5
66
330
17
100
AcDbEntity
  8
visible
100
AcDbLine
 10
12.349842891777158
 20
33.66732640030338
 30
0.0
 11
10.527242424036581
 21
32.52024051669738
 31
0.0
  0
LINE
  5
67
330
17
100
AcDbEntity
  8
visible
100
AcDbLine
 10
20.18702490306164
 20
-15.07730349854414
 30
0.0
 11
20.18702490306164
 21
22.316795590255822
 31
0.0
  0
ELLIPSE
  5
68
330
17
100
AcDbEntity
  8
visible
100
AcDbEllipse
 10
12.349842891777158
 20
17.384326290749996
 30
0.0
 11
-2.7985599768897536
 21
-16.970800277410337
 31
0.0
 40
0.43135761069610307
 41
1.935944316552652
 42
3.5067406433475483
  0
LINE
  5
69
330
17
100
AcDbEntity
  8
visible
100
AcDbLine
 10
-10.972321814141267
 20
38.27060328686741
 30
0.0
 11
-12.794922281881844
 21
37.12351740326141
 31
0.0
  0
LINE
  5
6A
330
17
100
AcDbEntity
  8
visible
100
AcDbLine
 10
11.63771572518423
 20
34.54210815999018
 30
0.0
 11
9.815115257443653
 21
33.395022276384175
 31
0.0
  0
LINE
  5
6B
330
17
100
AcDbEntity
  8
visible
100
AcDbLine
 10
-10.972321814141269
 20
38.27060328686741
 30
0.0
 11
11.63771572518423
 21
34.54210815999018
 31
0.0
  0
ELLIPSE
  5
6C
330
17
100
AcDbEntity
  8
visible
100
AcDbEllipse
 10
11.63771572518423
 20
-36.17533999022142
 30
0.0
 11
-0.4261236157552266
 21
0.6770662183979437
 31
0.0
 40
0.8427010706139982
 41
3.141592653589793
 42
4.07090965185276
  0
ELLIPSE
  5
6D
330
17
100
AcDbEntity
  8
visible
100
AcDbEllipse
 10
-10.972321814141267
 20
37.51325444456258
 30
0.0
 11
-0.4261236157552266
 21
0.6770662183979438
 31
0.0
 40
0.8427010706139982
 41
5.641705978647657
 42
6.283185307179586
  0
ELLIPSE
  5
6E
330
17
100
AcDbEntity
  8
visible
100
AcDbEllipse
 10
-10.972321814141267
 20
21.230254335009192
 30
0.0
 11
-2.9287255572102073
 21
-17.760139825196866
 31
0.0
 40
0.43135761069610307
 41
3.141592653589793
 42
3.5067406433475483
  0
ELLIPSE
  5
6F
330
17
100
AcDbEntity
  8
visible
100
AcDbEllipse
 10
11.63771572518423
 20
33.78475931768534
 30
0.0
 11
0.4261236157552266
 21
-0.6770662183979438
 31
0.0
 40
0.8427010706139982
 41
-5.353868308916619
 42
-3.7830719821217227
  0
ELLIPSE
  5
70
330
17
100
AcDbEntity
  8
visible
100
AcDbEllipse
 10
19.474897736468705
 20
-14.959870581162178
 30
0.0
 11
-0.8
 21
1.0554721062191773e-16
 31
0.0
 40
0.32215759696237234
 41
-3.6146950693437017
 42
-3.141592653589793
  0
ELLIPSE
  5
71
330
17
100
AcDbEntity
  8
visible
100
AcDbEllipse
 10
19.474897736468705
 20
22.434228507637783
 30
0.0
 11
-0.8
 21
-0.0
 31
0.0
 40
0.3221575969623725
 41
-3.6146950693437017
 42
-3.141592653589793
  0
ELLIPSE
  5
72
330
17
100
AcDbEntity
  8
visible
100
AcDbEllipse
 10
11.63771572518423
 20
17.501759208131958
 30
0.0
 11
-2.9287255572102073
 21
-17.760139825196866
 31
0.0
 40
0.43135761069610307
 41
3.141592653589793
 42
3.5067406433475483
  0
ELLIPSE
  5
73
330
17
100
AcDbEntity
  8
visible
100
AcDbEllipse
 10
12.239685720323912
 20
9.105182893844201
 30
0.0
 11
-2.2778976556079362
 21
-13.81344208626423
 31
0.0
 40
0.4313576106961032
 41
3.141592653589793
 42
6.283185307179586
  0
ELLIPSE
  5
74
330
17
100
AcDbEntity
  8
visible
100
AcDbEllipse
 10
12.59574930362038
 20
9.04646643515322
 30
0.0
 11
-2.2128148654477098
 21
-13.418772312370967
 31
0.0
 40
0.4313576106961032
 41
0.36514798975775536
 42
6.648333296937341
  0
LINE
  5
75
330
17
100
AcDbEntity
  8
visible
100
AcDbLine
 10
6.886389700233451
 20
-38.79956558947088
 30
0.0
 11
-9.314503339755685
 21
-36.127966719031285
 31
0.0
  0
LINE
  5
76
330
17
100
AcDbEntity
  8
visible
100
AcDbLine
 10
-21.432104293166326
 20
15.150699151897356
 30
0.0
 11
-21.432104293166326
 21
-22.243399936902605
 31
0.0
  0
SPLINE
  5
77
330
17
100
AcDbEntity
  8
visible
100
AcDbSpline
 70
0
 71
3
 72
8
 73
4
 74
0
 40
0.0
 40
0.0
 40
0.0
 40
0.0
 40
1.0
 40
1.0
 40
1.0
 40
1.0
 10
-21.432104293166326
 20
-22.243399936902605
 30
0.0
 10
-21.433470446300355
 20
-25.517479717409227
 30
0.0
 10
-20.96306259285598
 20
-28.49145524756262
 30
0.0
 10
-20.065313013689817
 20
-30.727641021511566
 30
0.0
  0
SPLINE
  5
78
330
17
100
AcDbEntity
  8
visible
100
AcDbSpline
 70
0
 71
3
 72
11
 73
7
 74
0
 40
0.0
 40
0.0
 40
0.0
 40
0.0
 40
0.42912873745814345
 40
0.42912873745814345
 40
0.42912873745814345
 40
1.0
 40
1.0
 40
1.0
 40
1.0
 10
6.886389700233451
 20
-38.79956558947089
 30
0.0
 10
7.364210318741244
 20
-38.877445981105176
 30
0.0
 10
7.847227536662459
 20
-38.870253536428415
 30
0.0
 10
8.335441353997062
 20
-38.77798825544042
 30
0.0
 10
8.981796117000648
 20
-38.65632684549453
 30
0.0
 10
9.621255021900136
 20
-38.38979361041554
 30
0.0
 10
10.24123887319888
 20
-37.99949209222535
 30
0.0
  0
SPLINE
  5
79
330
17
100
AcDbEntity
  8
visible
100
AcDbSpline
 70
0
 71
3
 72
17
 73
13
 74
0
 40
0.0
 40
0.0
 40
0.0
 40
0.0
 40
0.13897924305219156
 40
0.13897924305219156
 40
0.13897924305219156
 40
0.46996415203610065
 40
0.46996415203610065
 40
0.46996415203610065
 40
0.768890820702987
 40
0.768890820702987
 40
0.768890820702987
 40
1.0
 40
1.0
 40
1.0
 40
1.0
 10
-13.221045897637064
 20
37.04323477935452
 30
0.0
 10
-13.854998999580873
 20
36.642174956925956
 30
0.0
 10
-14.468474449661144
 20
36.119206224998244
 30
0.0
 10
-15.061472247877829
 20
35.47432858357138
 30
0.0
 10
-16.4709226235675
 20
33.94697815297514
 30
0.0
 10
-17.756291295300304
 20
31.753593081359547
 30
0.0
 10
-18.793401161386843
 20
29.151401012972812
 30
0.0
 10
-19.730428886938565
 20
26.8047736241981
 30
0.0
 10
-20.459446137342233
 20
24.131565137478525
 30
0.0
 10
-20.906616433810047
 20
21.40917437920272
 30
0.0
 10
-21.253368906926315
 20
19.304878450784976
 30
0.0
 10
-21.432481005908414
 20
17.174065348900243
 30
0.0
 10
-21.432104293166326
 20
15.150699151897356
 30
0.0
  0
LINE
  5
7A
330
17
100
AcDbEntity
  8
visible
100
AcDbLine
 10
10.241238873198874
 20
-37.99949209222535
 30
0.0
 11
12.06383934093945
 21
-36.85240620861935
 31
0.0
  0
LINE
  5
7B
330
17
100
AcDbEntity
  8
visible
100
AcDbLine
 10
-11.39844542989649
 20
38.19032066296052
 30
0.0
 11
-13.221045897637067
 21
37.04323477935451
 31
0.0
  0
SPLINE
  5
7C
330
17
100
AcDbEntity
  8
visible
100
AcDbSpline
 70
0
 71
3
 72
11
 73
7
 74
0
 40
0.0
 40
0.0
 40
0.0
 40
0.0
 40
0.4291287374581583
 40
0.4291287374581583
 40
0.4291287374581583
 40
1.0
 40
1.0
 40
1.0
 40
1.0
 10
-8.043596256931053
 20
38.99039416020603
 30
0.0
 10
-8.521416875438852
 20
39.06827455184036
 30
0.0
 10
-9.004434093360064
 20
39.06108210716356
 30
0.0
 10
-9.492647910694679
 20
38.968816826175605
 30
0.0
 10
-10.139002673698254
 20
38.84715541622976
 30
0.0
 10
-10.77846157859774
 20
38.5806221811507
 30
0.0
 10
-11.39844542989649
 20
38.19032066296052
 30
0.0
  0
SPLINE
  5
7D
330
17
100
AcDbEntity
  8
visible
100
AcDbSpline
 70
0
 71
3
 72
17
 73
13
 74
0
 40
0.0
 40
0.0
 40
0.0
 40
0.0
 40
0.13897924305218123
 40
0.13897924305218123
 40
0.13897924305218123
 40
0.4699641520360829
 40
0.4699641520360829
 40
0.4699641520360829
 40
0.7688908207029856
 40
0.7688908207029856
 40
0.7688908207029856
 40
1.0
 40
1.0
 40
1.0
 40
1.0
 10
12.063839340939452
 20
-36.85240620861935
 30
0.0
 10
12.69779244288327
 20
-36.451346386190785
 30
0.0
 10
13.311267892963532
 20
-35.928377654263045
 30
0.0
 10
13.904265691180214
 20
-35.28350001283613
 30
0.0
 10
15.313716066869954
 20
-33.75614958223999
 30
0.0
 10
16.599084738602738
 20
-31.562764510624188
 30
0.0
 10
17.636194604689244
 20
-28.960572442237662
 30
0.0
 10
18.573222330240924
 20
-26.613945053462963
 30
0.0
 10
19.302239580644645
 20
-23.940736566743375
 30
0.0
 10
19.74940987711244
 20
-21.21834580846755
 30
0.0
 10
20.096162350228724
 20
-19.11404988004986
 30
0.0
 10
20.275274449210794
 20
-16.983236778165033
 30
0.0
 10
20.274897736468716
 20
-14.959870581162178
 30
0.0
  0
LINE
  5
7E
330
17
100
AcDbEntity
  8
visible
100
AcDbLine
 10
20.274897736468716
 20
-14.959870581162178
 30
0.0
 11
20.274897736468716
 21
22.434228507637783
 31
0.0
  0
SPLINE
  5
7F
330
17
100
AcDbEntity
  8
visible
100
AcDbSpline
 70
0
 71
3
 72
17
 73
13
 74
0
 40
0.0
 40
0.0
 40
0.0
 40
0.0
 40
0.2508122261413721
 40
0.2508122261413721
 40
0.2508122261413721
 40
0.4785682453479143
 40
0.4785682453479143
 40
0.4785682453479143
 40
0.7491877738586279
 40
0.7491877738586279
 40
0.7491877738586279
 40
1.0
 40
1.0
 40
1.0
 40
1.0
 10
20.27489773646872
 20
22.434228507637783
 30
0.0
 10
20.275098952103647
 20
24.268971791502032
 30
0.0
 10
20.128374931202394
 20
26.014455150805546
 30
0.0
 10
19.839732789168387
 20
27.584276619183342
 30
0.0
 10
19.577735902079276
 20
29.010436566746414
 30
0.0
 10
19.199675384647634
 20
30.291705629194226
 30
0.0
 10
18.712302543489564
 20
31.381045045428806
 30
0.0
 10
18.133074074134026
 20
32.67498753660824
 30
0.0
 10
17.399542142373477
 20
33.703908324962605
 30
0.0
 10
16.509578354316986
 20
34.3920473405076
 30
0.0
 10
15.921780002489129
 20
34.84702425800633
 30
0.0
 10
15.261720405891793
 20
35.14799267015258
 30
0.0
 10
14.566441282394436
 20
35.2618990333288
 30
0.0
  0
SPLINE
  5
80
330
17
100
AcDbEntity
  8
visible
100
AcDbSpline
 70
0
 71
3
 72
8
 73
4
 74
0
 40
0.0
 40
0.0
 40
0.0
 40
0.0
 40
1.0
 40
1.0
 40
1.0
 40
1.0
 10
9.338676793947172
 20
-4.605505389710828
 30
0.0
 10
8.715097325363951
 20
-4.503374142201054
 30
0.0
 10
8.130192084305307
 20
-4.196561818712428
 30
0.0
 10
7.61899584681796
 20
-3.718390070466938
 30
0.0
  0
SPLINE
  5
81
330
17
100
AcDbEntity
  8
visible
100
AcDbSpline
 70
0
 71
3
 72
8
 73
4
 74
0
 40
0.0
 40
0.0
 40
0.0
 40
0.0
 40
1.0
 40
1.0
 40
1.0
 40
1.0
 10
13.894472105163047
 20
23.021378782817635
 30
0.0
 10
13.271117314850981
 20
23.12487250606434
 30
0.0
 10
12.618670549155501
 20
23.022104997600504
 30
0.0
 10
11.981010430310207
 20
22.73338474047341
 30
0.0
  0
LINE
  5
82
330
17
100
AcDbEntity
  8
visible
100
AcDbLine
 10
14.566441282394436
 20
35.2618990333288
 30
0.0
 11
-8.043596256931062
 21
38.99039416020604
 31
0.0
  0
LINE
  5
83
330
17
100
AcDbEntity
  8
visible
100
AcDbLine
 10
9.338676793947155
 20
-4.605505389710812
 30
0.0
 11
9.961788064715957
 21
-4.708259192420025
 31
0.0
  0
LINE
  5
84
330
17
100
AcDbEntity
  8
visible
100
AcDbLine
 10
13.894472105163029
 20
23.021378782817624
 30
0.0
 11
14.517583375931832
 21
22.918624980108408
 31
0.0
  0
SPLINE
  5
85
330
17
100
AcDbEntity
  8
visible
100
AcDbSpline
 70
0
 71
3
 72
26
 73
22
 74
0
 40
0.0
 40
0.0
 40
0.0
 40
0.0
 40
0.16255181953669884
 40
0.16255181953669884
 40
0.16255181953669884
 40
0.5200079336495368
 40
0.5200079336495368
 40
0.5200079336495368
 40
0.6012838434178862
 40
0.6012838434178862
 40
0.6012838434178862
 40
0.6825597531862356
 40
0.6825597531862356
 40
0.6825597531862356
 40
0.8451115727229345
 40
0.8451115727229345
 40
0.8451115727229345
 40
0.9119927255104573
 40
0.9119927255104573
 40
0.9119927255104573
 40
1.0
 40
1.0
 40
1.0
 40
1.0
 10
12.452747528201527
 20
-4.108280534536533
 30
0.0
 10
12.976272143461472
 20
-3.7774005079542143
 30
0.0
 10
13.48542656531641
 20
-3.3329652220627413
 30
0.0
 10
13.980210793766346
 20
-2.7749746768621133
 30
0.0
 10
15.06514607787175
 20
-1.5550765804947577
 30
0.0
 10
16.06149414688085
 20
0.1931032230912676
 30
0.0
 10
16.8587081202045
 20
2.255400313167589
 30
0.0
 10
17.460737226672006
 20
3.809698656186237
 30
0.0
 10
17.94841921096011
 20
5.53926406609319
 30
0.0
 10
18.285677809902964
 20
7.314102182385354
 30
0.0
 10
18.623708637820496
 20
9.088691647738253
 30
0.0
 10
18.81131608039285
 20
10.908553819476438
 30
0.0
 10
18.83404628574506
 20
12.63673211079758
 30
0.0
 10
18.87368304647993
 20
15.442293740848946
 30
0.0
 10
18.474361540795325
 20
17.989457108175788
 30
0.0
 10
17.69252350845042
 20
19.82100105494659
 30
0.0
 10
17.37155339162055
 20
20.576405718627566
 30
0.0
 10
16.987179396927168
 20
21.21493405261622
 30
0.0
 10
16.544063269937315
 20
21.715756822661902
 30
0.0
 10
15.962814179644672
 20
22.37478338113276
 30
0.0
 10
15.270071547244477
 20
22.79564430639828
 30
0.0
 10
14.51758337593185
 20
22.918624980108433
 30
0.0
  0
SPLINE
  5
86
330
17
100
AcDbEntity
  8
visible
100
AcDbSpline
 70
0
 71
3
 72
8
 73
4
 74
0
 40
0.0
 40
0.0
 40
0.0
 40
0.0
 40
1.0
 40
1.0
 40
1.0
 40
1.0
 10
9.961788064715975
 20
-4.708259192420044
 30
0.0
 10
10.775460093418207
 20
-4.843715702519081
 30
0.0
 10
11.632819536498983
 20
-4.626381197900498
 30
0.0
 10
12.452747528201527
 20
-4.108280534536533
 30
0.0
  0
ENDSEC
  0
SECTION
  2
OBJECTS
  0
DICTIONARY
  5
A
330
0
100
AcDbDictionary
281
1
  3
ACAD_COLOR
350
B
  3
ACAD_GROUP
350
C
  3
ACAD_LAYOUT
350
D
  3
ACAD_MATERIAL
350
E
  3
ACAD_MLEADERSTYLE
350
F
  3
ACAD_MLINESTYLE
350
10
  3
ACAD_PLOTSETTINGS
350
11
  3
ACAD_PLOTSTYLENAME
350
12
  3
ACAD_SCALELIST
350
14
  3
ACAD_TABLESTYLE
350
15
  3
ACAD_VISUALSTYLE
350
16
  3
EZDXF_META
350
2D
  0
DICTIONARY
  5
B
330
A
100
AcDbDictionary
281
1
  0
DICTIONARY
  5
C
330
A
100
AcDbDictionary
281
1
  0
DICTIONARY
  5
D
330
A
100
AcDbDictionary
281
1
  3
Model
350
1A
  3
Layout1
350
1E
  0
DICTIONARY
  5
E
330
A
100
AcDbDictionary
281
1
  3
ByBlock
350
1F
  3
ByLayer
350
20
  3
Global
350
21
  0
DICTIONARY
  5
F
330
A
100
AcDbDictionary
281
1
  3
Standard
350
2C
  0
DICTIONARY
  5
10
330
A
100
AcDbDictionary
281
1
  3
Standard
350
22
  0
DICTIONARY
  5
11
330
A
100
AcDbDictionary
281
1
  0
ACDBDICTIONARYWDFLT
  5
12
330
A
100
AcDbDictionary
281
1
  3
Normal
350
13
100
AcDbDictionaryWithDefault
340
13
  0
ACDBPLACEHOLDER
  5
13
330
12
  0
DICTIONARY
  5
14
330
A
100
AcDbDictionary
281
1
  0
DICTIONARY
  5
15
330
A
100
AcDbDictionary
281
1
  0
DICTIONARY
  5
16
330
A
100
AcDbDictionary
281
1
  0
LAYOUT
  5
1A
330
D
100
AcDbPlotSettings
  1

  4
A3
  6

 40
7.5
 41
20.0
 42
7.5
 43
20.0
 44
420.0
 45
297.0
 46
0.0
 47
0.0
 48
0.0
 49
0.0
140
0.0
141
0.0
142
1.0
143
1.0
 70
1024
 72
1
 73
0
 74
5
  7

 75
16
 76
0
 77
2
 78
300
147
1.0
148
0.0
149
0.0
100
AcDbLayout
  1
Model
 70
1
 71
0
 10
0.0
 20
0.0
 11
420.0
 21
297.0
 12
0.0
 22
0.0
 32
0.0
 14
1e+20
 24
1e+20
 34
1e+20
 15
-1e+20
 25
-1e+20
 35
-1e+20
146
0.0
 13
0.0
 23
0.0
 33
0.0
 16
1.0
 26
0.0
 36
0.0
 17
0.0
 27
1.0
 37
0.0
 76
1
330
17
  0
LAYOUT
  5
1E
330
D
100
AcDbPlotSettings
  1

  4
A3
  6

 40
7.5
 41
20.0
 42
7.5
 43
20.0
 44
420.0
 45
297.0
 46
0.0
 47
0.0
 48
0.0
 49
0.0
140
0.0
141
0.0
142
1.0
143
1.0
 70
0
 72
1
 73
0
 74
5
  7

 75
16
 76
0
 77
2
 78
300
147
1.0
148
0.0
149
0.0
100
AcDbLayout
  1
Layout1
 70
1
 71
1
 10
0.0
 20
0.0
 11
420.0
 21
297.0
 12
0.0
 22
0.0
 32
0.0
 14
1e+20
 24
1e+20
 34
1e+20
 15
-1e+20
 25
-1e+20
 35
-1e+20
146
0.0
 13
0.0
 23
0.0
 33
0.0
 16
1.0
 26
0.0
 36
0.0
 17
0.0
 27
1.0
 37
0.0
 76
1
330
1B
  0
MATERIAL
  5
1F
102
{ACAD_REACTORS
330
E
102
}
330
E
100
AcDbMaterial
  1
ByBlock
  2

 70
0
 40
1.0
 71
1
 41
1.0
 91
-1023410177
 42
1.0
 72
1
  3

 73
1
 74
1
 75
1
 44
0.5
 73
0
 45
1.0
 46
1.0
 77
1
  4

 78
1
 79
1
170
1
 48
1.0
171
1
  6

172
1
173
1
174
1
140
1.0
141
1.0
175
1
  7

176
1
177
1
178
1
143
1.0
179
1
  8

270
1
271
1
272
1
145
1.0
146
1.0
273
1
  9

274
1
275
1
276
1
 42
1.0
 72
1
  3

 73
1
 74
1
 75
1
 94
63
  0
MATERIAL
  5
20
102
{ACAD_REACTORS
330
E
102
}
330
E
100
AcDbMaterial
  1
ByLayer
  2

 70
0
 40
1.0
 71
1
 41
1.0
 91
-1023410177
 42
1.0
 72
1
  3

 73
1
 74
1
 75
1
 44
0.5
 73
0
 45
1.0
 46
1.0
 77
1
  4

 78
1
 79
1
170
1
 48
1.0
171
1
  6

172
1
173
1
174
1
140
1.0
141
1.0
175
1
  7

176
1
177
1
178
1
143
1.0
179
1
  8

270
1
271
1
272
1
145
1.0
146
1.0
273
1
  9

274
1
275
1
276
1
 42
1.0
 72
1
  3

 73
1
 74
1
 75
1
 94
63
  0
MATERIAL
  5
21
102
{ACAD_REACTORS
330
E
102
}
330
E
100
AcDbMaterial
  1
Global
  2

 70
0
 40
1.0
 71
1
 41
1.0
 91
-1023410177
 42
1.0
 72
1
  3

 73
1
 74
1
 75
1
 44
0.5
 73
0
 45
1.0
 46
1.0
 77
1
  4

 78
1
 79
1
170
1
 48
1.0
171
1
  6

172
1
173
1
174
1
140
1.0
141
1.0
175
1
  7

176
1
177
1
178
1
143
1.0
179
1
  8

270
1
271
1
272
1
145
1.0
146
1.0
273
1
  9

274
1
275
1
276
1
 42
1.0
 72
1
  3

 73
1
 74
1
 75
1
 94
63
  0
MLINESTYLE
  5
22
102
{ACAD_REACTORS
330
10
102
}
330
10
100
AcDbMlineStyle
  2
Standard
 70
0
  3

 62
256
 51
90.0
 52
90.0
 71
2
 49
0.5
 62
256
  6
BYLAYER
 49
-0.5
 62
256
  6
BYLAYER
  0
MLEADERSTYLE
  5
2C
102
{ACAD_REACTORS
330
F
102
}
330
F
100
AcDbMLeaderStyle
179
2
170
2
171
1
172
0
 90
2
 40
0.0
 41
0.0
173
1
 91
-1056964608
 92
-2
290
1
 42
2.0
291
1
 43
8.0
  3
Standard
 44
4.0
300

342
29
174
1
175
1
176
0
178
1
 93
-1056964608
 45
4.0
292
0
297
0
 46
4.0
 94
-1056964608
 47
1.0
 49
1.0
140
1.0
294
1
141
0.0
177
0
142
1.0
295
0
296
0
143
3.75
271
0
272
9
273
9
  0
DICTIONARY
  5
2D
330
A
100
AcDbDictionary
280
1
281
1
  3
CREATED_BY_EZDXF
350
2E
  3
WRITTEN_BY_EZDXF
350
8A
  0
DICTIONARYVAR
  5
2E
330
2D
100
DictionaryVariables
280
0
  1
1.4.4 @ 2026-10-02T12:35:29.160921+00:00
  0
DICTIONARYVAR
  5
8A
330
2D
100
DictionaryVariables
280
0
  1
1.4.4 @ 2026-10-02T12:35:29.181846+00:00
  0
ENDSEC
  0
EOF
