  0
SECTION
  2
HEADER
  9
$ACADVER
  1
AC1027
  9
$ACADMAINTVER
 70
105
  9
$DWGCODEPAGE
  3
ANSI_1252
  9
$LASTSAVEDBY
  1
ezdxf
  9
$REQUIREDVERSIONS
160
0
  9
$INSBASE
 10
0.0
 20
0.0
 30
0.0
  9
$EXTMIN
 10
1e+20
 20
1e+20
 30
1e+20
  9
$EXTMAX
 10
-1e+20
 20
-1e+20
 30
-1e+20
  9
$LIMMIN
 10
0.0
 20
0.0
  9
$LIMMAX
 10
420.0
 20
297.0
  9
$ORTHOMODE
 70
0
  9
$REGENMODE
 70
1
  9
$FILLMODE
 70
1
  9
$QTEXTMODE
 70
0
  9
$MIRRTEXT
 70
1
  9
$LTSCALE
 40
1.0
  9
$ATTMODE
 70
1
  9
$TEXTSIZE
 40
2.5
  9
$TRACEWID
 40
1.0
  9
$TEXTSTYLE
  7
Standard
  9
$CLAYER
  8
0
  9
$CELTYPE
  6
ByLayer
  9
$CECOLOR
 62
256
  9
$CELTSCALE
 40
1.0
  9
$DISPSILH
 70
0
  9
$DIMSCALE
 40
1.0
  9
$DIMASZ
 40
2.5
  9
$DIMEXO
 40
0.625
  9
$DIMDLI
 40
3.75
  9
$DIMRND
 40
0.0
  9
$DIMDLE
 40
0.0
  9
$DIMEXE
 40
1.25
  9
$DIMTP
 40
0.0
  9
$DIMTM
 40
0.0
  9
$DIMTXT
 40
2.5
  9
$DIMCEN
 40
2.5
  9
$DIMTSZ
 40
0.0
  9
$DIMTOL
 70
0
  9
$DIMLIM
 70
0
  9
$DIMTIH
 70
0
  9
$DIMTOH
 70
0
  9
$DIMSE1
 70
0
  9
$DIMSE2
 70
0
  9
$DIMTAD
 70
1
  9
$DIMZIN
 70
8
  9
$DIMBLK
  1

  9
$DIMASO
 70
1
  9
$DIMSHO
 70
1
  9
$DIMPOST
  1

  9
$DIMAPOST
  1

  9
$DIMALT
 70
0
  9
$DIMALTD
 70
3
  9
$DIMALTF
 40
0.03937007874
  9
$DIMLFAC
 40
1.0
  9
$DIMTOFL
 70
1
  9
$DIMTVP
 40
0.0
  9
$DIMTIX
 70
0
  9
$DIMSOXD
 70
0
  9
$DIMSAH
 70
0
  9
$DIMBLK1
  1

  9
$DIMBLK2
  1

  9
$DIMSTYLE
  2
ISO-25
  9
$DIMCLRD
 70
0
  9
$DIMCLRE
 70
0
  9
$DIMCLRT
 70
0
  9
$DIMTFAC
 40
1.0
  9
$DIMGAP
 40
0.625
  9
$DIMJUST
 70
0
  9
$DIMSD1
 70
0
  9
$DIMSD2
 70
0
  9
$DIMTOLJ
 70
0
  9
$DIMTZIN
 70
8
  9
$DIMALTZ
 70
0
  9
$DIMALTTZ
 70
0
  9
$DIMUPT
 70
0
  9
$DIMDEC
 70
2
  9
$DIMTDEC
 70
2
  9
$DIMALTU
 70
2
  9
$DIMALTTD
 70
3
  9
$DIMTXSTY
  7
Standard
  9
$DIMAUNIT
 70
0
  9
$DIMADEC
 70
0
  9
$DIMALTRND
 40
0.0
  9
$DIMAZIN
 70
0
  9
$DIMDSEP
 70
44
  9
$DIMATFIT
 70
3
  9
$DIMFRAC
 70
0
  9
$DIMLDRBLK
  1

  9
$DIMLUNIT
 70
2
  9
$DIMLWD
 70
-2
  9
$DIMLWE
 70
-2
  9
$DIMTMOVE
 70
0
  9
$DIMFXL
 40
1.0
  9
$DIMFXLON
 70
0
  9
$DIMJOGANG
 40
0.785398163397
  9
$DIMTFILL
 70
0
  9
$DIMTFILLCLR
 70
0
  9
$DIMARCSYM
 70
0
  9
$DIMLTYPE
  6

  9
$DIMLTEX1
  6

  9
$DIMLTEX2
  6

  9
$DIMTXTDIRECTION
 70
0
  9
$LUNITS
 70
2
  9
$LUPREC
 70
4
  9
$SKETCHINC
 40
1.0
  9
$FILLETRAD
 40
10.0
  9
$AUNITS
 70
0
  9
$AUPREC
 70
2
  9
$MENU
  1
.
  9
$ELEVATION
 40
0.0
  9
$PELEVATION
 40
0.0
  9
$THICKNESS
 40
0.0
  9
$LIMCHECK
 70
0
  9
$CHAMFERA
 40
0.0
  9
$CHAMFERB
 40
0.0
  9
$CHAMFERC
 40
0.0
  9
$CHAMFERD
 40
0.0
  9
$SKPOLY
 70
0
  9
$TDCREATE
 40
2461316.839710648
  9
$TDUCREATE
 40
2458532.153996898
  9
$TDUPDATE
 40
2461316.839710648
  9
$TDUUPDATE
 40
2458532.1544311
  9
$TDINDWG
 40
0.0
  9
$TDUSRTIMER
 40
0.0
  9
$USRTIMER
 70
1
  9
$ANGBASE
 50
0.0
  9
$ANGDIR
 70
0
  9
$PDMODE
 70
0
  9
$PDSIZE
 40
0.0
  9
$PLINEWID
 40
0.0
  9
$SPLFRAME
 70
0
  9
$SPLINETYPE
 70
6
  9
$SPLINESEGS
 70
8
  9
$HANDSEED
  5
91
  9
$SURFTAB1
 70
6
  9
$SURFTAB2
 70
6
  9
$SURFTYPE
 70
6
  9
$SURFU
 70
6
  9
$SURFV
 70
6
  9
$UCSBASE
  2

  9
$UCSNAME
  2

  9
$UCSORG
 10
0.0
 20
0.0
 30
0.0
  9
$UCSXDIR
 10
1.0
 20
0.0
 30
0.0
  9
$UCSYDIR
 10
0.0
 20
1.0
 30
0.0
  9
$UCSORTHOREF
  2

  9
$UCSORTHOVIEW
 70
0
  9
$UCSORGTOP
 10
0.0
 20
0.0
 30
0.0
  9
$UCSORGBOTTOM
 10
0.0
 20
0.0
 30
0.0
  9
$UCSORGLEFT
 10
0.0
 20
0.0
 30
0.0
  9
$UCSORGRIGHT
 10
0.0
 20
0.0
 30
0.0
  9
$UCSORGFRONT
 10
0.0
 20
0.0
 30
0.0
  9
$UCSORGBACK
 10
0.0
 20
0.0
 30
0.0
  9
$PUCSBASE
  2

  9
$PUCSNAME
  2

  9
$PUCSORG
 10
0.0
 20
0.0
 30
0.0
  9
$PUCSXDIR
 10
1.0
 20
0.0
 30
0.0
  9
$PUCSYDIR
 10
0.0
 20
1.0
 30
0.0
  9
$PUCSORTHOREF
  2

  9
$PUCSORTHOVIEW
 70
0
  9
$PUCSORGTOP
 10
0.0
 20
0.0
 30
0.0
  9
$PUCSORGBOTTOM
 10
0.0
 20
0.0
 30
0.0
  9
$PUCSORGLEFT
 10
0.0
 20
0.0
 30
0.0
  9
$PUCSORGRIGHT
 10
0.0
 20
0.0
 30
0.0
  9
$PUCSORGFRONT
 10
0.0
 20
0.0
 30
0.0
  9
$PUCSORGBACK
 10
0.0
 20
0.0
 30
0.0
  9
$USERI1
 70
0
  9
$USERI2
 70
0
  9
$USERI3
 70
0
  9
$USERI4
 70
0
  9
$USERI5
 70
0
  9
$USERR1
 40
0.0
  9
$USERR2
 40
0.0
  9
$USERR3
 40
0.0
  9
$USERR4
 40
0.0
  9
$USERR5
 40
0.0
  9
$WORLDVIEW
 70
1
  9
$SHADEDGE
 70
3
  9
$SHADEDIF
 70
70
  9
$TILEMODE
 70
1
  9
$MAXACTVP
 70
64
  9
$PINSBASE
 10
0.0
 20
0.0
 30
0.0
  9
$PLIMCHECK
 70
0
  9
$PEXTMIN
 10
1e+20
 20
1e+20
 30
1e+20
  9
$PEXTMAX
 10
-1e+20
 20
-1e+20
 30
-1e+20
  9
$PLIMMIN
 10
0.0
 20
0.0
  9
$PLIMMAX
 10
420.0
 20
297.0
  9
$UNITMODE
 70
0
  9
$VISRETAIN
 70
1
  9
$PLINEGEN
 70
0
  9
$PSLTSCALE
 70
1
  9
$TREEDEPTH
 70
3020
  9
$CMLSTYLE
  2
Standard
  9
$CMLJUST
 70
0
  9
$CMLSCALE
 40
20.0
  9
$PROXYGRAPHICS
 70
1
  9
$MEASUREMENT
 70
1
  9
$CELWEIGHT
370
-1
  9
$ENDCAPS
280
0
  9
$JOINSTYLE
280
0
  9
$LWDISPLAY
290
0
  9
$INSUNITS
 70
4
  9
$HYPERLINKBASE
  1

  9
$STYLESHEET
  1

  9
$XEDIT
290
1
  9
$CEPSNTYPE
380
0
  9
$PSTYLEMODE
290
1
  9
$FINGERPRINTGUID
  2
{D322FFD0-D92D-4198-8BCC-8D245C1A5D6E}
  9
$VERSIONGUID
  2
{E0D3C158-6C51-4B96-9AA6-B73F8FCDCE79}
  9
$EXTNAMES
290
1
  9
$PSVPSCALE
 40
0.0
  9
$OLESTARTUP
290
0
  9
$SORTENTS
280
127
  9
$INDEXCTL
280
0
  9
$HIDETEXT
280
1
  9
$XCLIPFRAME
280
1
  9
$HALOGAP
280
0
  9
$OBSCOLOR
 70
257
  9
$OBSLTYPE
280
0
  9
$INTERSECTIONDISPLAY
280
0
  9
$INTERSECTIONCOLOR
 70
257
  9
$DIMASSOC
280
2
  9
$PROJECTNAME
  1

  9
$CAMERADISPLAY
290
0
  9
$LENSLENGTH
 40
50.0
  9
$CAMERAHEIGHT
 40
0.0
  9
$STEPSPERSEC
 40
24.0
  9
$STEPSIZE
 40
100.0
  9
$3DDWFPREC
 40
2.0
  9
$PSOLWIDTH
 40
0.005
  9
$PSOLHEIGHT
 40
0.08
  9
$LOFTANG1
 40
1.570796326795
  9
$LOFTANG2
 40
1.570796326795
  9
$LOFTMAG1
 40
0.0
  9
$LOFTMAG2
 40
0.0
  9
$LOFTPARAM
 70
7
  9
$LOFTNORMALS
280
1
  9
$LATITUDE
 40
37.795
  9
$LONGITUDE
 40
-122.394
  9
$NORTHDIRECTION
 40
0.0
  9
$TIMEZONE
 70
-8000
  9
$LIGHTGLYPHDISPLAY
280
1
  9
$TILEMODELIGHTSYNCH
280
1
  9
$CMATERIAL
347
20
  9
$SOLIDHIST
280
0
  9
$SHOWHIST
280
1
  9
$DWFFRAME
280
2
  9
$DGNFRAME
280
2
  9
$REALWORLDSCALE
290
1
  9
$INTERFERECOLOR
 62
256
  9
$CSHADOW
280
0
  9
$SHADOWPLANELOCATION
 40
0.0
  0
ENDSEC
  0
SECTION
  2
CLASSES
  0
CLASS
  1
ACDBDICTIONARYWDFLT
  2
AcDbDictionaryWithDefault
  3
ObjectDBX Classes
 90
0
 91
0
280
0
281
0
  0
CLASS
  1
SUN
  2
AcDbSun
  3
SCENEOE
 90
1153
 91
0
280
0
281
0
  0
CLASS
  1
VISUALSTYLE
  2
AcDbVisualStyle
  3
ObjectDBX Classes
 90
4095
 91
0
280
0
281
0
  0
CLASS
  1
MATERIAL
  2
AcDbMaterial
  3
ObjectDBX Classes
 90
1153
 91
0
280
0
281
0
  0
CLASS
  1
SCALE
  2
AcDbScale
  3
ObjectDBX Classes
 90
1153
 91
0
280
0
281
0
  0
CLASS
  1
TABLESTYLE
  2
AcDbTableStyle
  3
ObjectDBX Classes
 90
4095
 91
0
280
0
281
0
  0
CLASS
  1
MLEADERSTYLE
  2
AcDbMLeaderStyle
  3
ACDB_MLEADERSTYLE_CLASS
 90
4095
 91
0
280
0
281
0
  0
CLASS
  1
DICTIONARYVAR
  2
AcDbDictionaryVar
  3
ObjectDBX Classes
 90
0
 91
0
280
0
281
0
  0
CLASS
  1
CELLSTYLEMAP
  2
AcDbCellStyleMap
  3
ObjectDBX Classes
 90
1152
 91
0
280
0
281
0
  0
CLASS
  1
MENTALRAYRENDERSETTINGS
  2
AcDbMentalRayRenderSettings
  3
SCENEOE
 90
1024
 91
0
280
0
281
0
  0
CLASS
  1
ACDBDETAILVIEWSTYLE
  2
AcDbDetailViewStyle
  3
ObjectDBX Classes
 90
1025
 91
0
280
0
281
0
  0
CLASS
  1
ACDBSECTIONVIEWSTYLE
  2
AcDbSectionViewStyle
  3
ObjectDBX Classes
 90
1025
 91
0
280
0
281
0
  0
CLASS
  1
RASTERVARIABLES
  2
AcDbRasterVariables
  3
ISM
 90
0
 91
0
280
0
281
0
  0
CLASS
  1
LAYOUT
  2
AcDbLayout
  3
ObjectDBX Classes
 90
0
 91
0
280
0
281
0
  0
CLASS
  1
ACDBPLACEHOLDER
  2
AcDbPlaceHolder
  3
ObjectDBX Classes
 90
0
 91
0
280
0
281
0
  0
ENDSEC
  0
SECTION
  2
TABLES
  0
TABLE
  2
VPORT
  5
8
330
0
100
AcDbSymbolTable
 70
1
  0
VPORT
  5
8D
330
8
100
AcDbSymbolTableRecord
100
AcDbViewportTableRecord
  2
*Active
 70
0
 10
0.0
 20
0.0
 11
1.0
 21
1.0
 12
-0.5763518204698812
 22
-0.16147960324632749
 13
0.0
 23
0.0
 14
0.5
 24
0.5
 15
0.5
 25
0.5
 16
0.0
 26
0.0
 36
1.0
 17
0.0
 27
0.0
 37
0.0
 40
64.4217018154845
 41
1.34
 42
50.0
 43
0.0
 44
0.0
 50
0.0
 51
0.0
 71
0
 72
1000
 73
1
 74
3
 75
0
 76
0
 77
0
 78
0
281
0
 65
1
110
0.0
120
0.0
130
0.0
111
1.0
121
0.0
131
0.0
112
0.0
122
1.0
132
0.0
 79
0
146
0.0
  0
ENDTAB
  0
TABLE
  2
LTYPE
  5
2
330
0
100
AcDbSymbolTable
 70
3
  0
LTYPE
  5
24
330
2
100
AcDbSymbolTableRecord
100
AcDbLinetypeTableRecord
  2
ByBlock
 70
0
  3

 72
65
 73
0
 40
0.0
  0
LTYPE
  5
25
330
2
100
AcDbSymbolTableRecord
100
AcDbLinetypeTableRecord
  2
ByLayer
 70
0
  3

 72
65
 73
0
 40
0.0
  0
LTYPE
  5
26
330
2
100
AcDbSymbolTableRecord
100
AcDbLinetypeTableRecord
  2
Continuous
 70
0
  3

 72
65
 73
0
 40
0.0
  0
ENDTAB
  0
TABLE
  2
LAYER
  5
1
330
0
100
AcDbSymbolTable
 70
3
  0
LAYER
  5
27
330
1
100
AcDbSymbolTableRecord
100
AcDbLayerTableRecord
  2
0
 70
0
 62
7
  6
Continuous
370
-3
390
13
347
21
  0
LAYER
  5
28
330
1
100
AcDbSymbolTableRecord
100
AcDbLayerTableRecord
  2
Defpoints
 70
0
 62
7
  6
Continuous
290
0
370
-3
390
13
347
21
  0
LAYER
  5
2F
330
1
100
AcDbSymbolTableRecord
100
AcDbLayerTableRecord
  2
visible
 70
0
 62
7
  6
Continuous
370
-3
390
13
347
21
  0
ENDTAB
  0
TABLE
  2
STYLE
  5
5
330
0
100
AcDbSymbolTable
 70
1
  0
STYLE
  5
29
330
5
100
AcDbSymbolTableRecord
100
AcDbTextStyleTableRecord
  2
Standard
 70
0
 40
0.0
 41
1.0
 50
0.0
 71
0
 42
2.5
  3
txt
  4

  0
ENDTAB
  0
TABLE
  2
VIEW
  5
7
330
0
100
AcDbSymbolTable
 70
0
  0
ENDTAB
  0
TABLE
  2
UCS
  5
6
330
0
100
AcDbSymbolTable
 70
0
  0
ENDTAB
  0
TABLE
  2
APPID
  5
3
330
0
100
AcDbSymbolTable
 70
3
  0
APPID
  5
2A
330
3
100
AcDbSymbolTableRecord
100
AcDbRegAppTableRecord
  2
ACAD
 70
0
  0
APPID
  5
8E
330
3
100
AcDbSymbolTableRecord
100
AcDbRegAppTableRecord
  2
HATCHBACKGROUNDCOLOR
 70
0
  0
APPID
  5
8F
330
3
100
AcDbSymbolTableRecord
100
AcDbRegAppTableRecord
  2
EZDXF
 70
0
  0
ENDTAB
  0
TABLE
  2
DIMSTYLE
  5
4
330
0
100
AcDbSymbolTable
 70
1
100
AcDbDimStyleTable
  0
DIMSTYLE
105
2B
330
4
100
AcDbSymbolTableRecord
100
AcDbDimStyleTableRecord
  2
Standard
 70
0
 40
1.0
 41
2.5
 42
0.625
 43
3.75
 44
1.25
 45
0.0
 46
0.0
 47
0.0
 48
0.0
 49
2.5
140
2.5
141
2.5
142
0.0
143
0.03937007874
144
1.0
145
0.0
146
1.0
147
0.625
148
0.0
 69
0
 70
0
 71
0
 72
0
 73
0
 74
0
 75
0
 76
0
 77
1
 78
8
 79
3
170
0
171
3
172
1
173
0
174
0
175
0
176
0
177
0
178
0
179
2
271
2
272
2
273
2
274
3
275
0
276
0
277
2
278
44
279
0
280
0
281
0
282
0
283
0
284
8
285
0
286
0
288
0
289
3
290
0
371
-2
372
-2
  0
ENDTAB
  0
TABLE
  2
BLOCK_RECORD
  5
9
330
0
100
AcDbSymbolTable
 70
2
  0
BLOCK_RECORD
  5
17
330
9
100
AcDbSymbolTableRecord
100
AcDbBlockTableRecord
  2
*Model_Space
340
1A
 70
0
280
1
281
0
  0
BLOCK_RECORD
  5
1B
330
9
100
AcDbSymbolTableRecord
100
AcDbBlockTableRecord
  2
*Paper_Space
340
1E
 70
0
280
1
281
0
  0
ENDTAB
  0
ENDSEC
  0
SECTION
  2
BLOCKS
  0
BLOCK
  5
18
330
17
100
AcDbEntity
  8
0
100
AcDbBlockBegin
  2
*Model_Space
 70
0
 10
0.0
 20
0.0
 30
0.0
  3
*Model_Space
  1

  0
ENDBLK
  5
19
330
17
100
AcDbEntity
  8
0
100
AcDbBlockEnd
  0
BLOCK
  5
1C
330
1B
100
AcDbEntity
  8
0
100
AcDbBlockBegin
  2
*Paper_Space
 70
0
 10
0.0
 20
0.0
 30
0.0
  3
*Paper_Space
  1

  0
ENDBLK
  5
1D
330
1B
100
AcDbEntity
  8
0
100
AcDbBlockEnd
  0
ENDSEC
  0
SECTION
  2
ENTITIES
  0
LINE
  5
30
330
17
100
AcDbEntity
  8
visible
100
AcDbLine
 10
1.2284979534560243
 20
-22.716198955763616
 30
0.0
 11
-13.892943989485348
 21
-32.09276270159389
 31
0.0
  0
LINE
  5
31
330
17
100
AcDbEntity
  8
visible
100
AcDbLine
 10
-14.593057158014384
 20
-32.27361548728934
 30
0.0
 11
-19.76357210403467
 21
-31.39202223253484
 31
0.0
  0
SPLINE
  5
32
330
17
100
AcDbEntity
  8
visible
100
AcDbSpline
 70
0
 71
3
 72
8
 73
4
 74
0
 40
0.0
 40
0.0
 40
0.0
 40
0.0
 40
0.5389511973155101
 40
0.5389511973155101
 40
0.5389511973155101
 40
0.5389511973155101
 10
-19.76357157265931
 20
-31.392022323136445
 30
0.0
 10
-19.9741708627299
 20
-31.356765989339646
 30
0.0
 10
-20.115775233912892
 20
-31.283765910712965
 30
0.0
 10
-20.146951730465204
 20
-31.202548182371316
 30
0.0
  0
ELLIPSE
  5
33
330
17
100
AcDbEntity
  8
visible
100
AcDbEllipse
 10
-7.261022869654013
 20
12.021012091140918
 30
0.0
 11
3.025409523578354
 21
17.74392564272747
 31
0.0
 40
0.4391645306694998
 41
-5.912852407721808
 42
-4.342056080926912
  0
LINE
  5
34
330
17
100
AcDbEntity
  8
visible
100
AcDbLine
 10
-5.403423166375321
 20
30.194763641720048
 30
0.0
 11
-7.2610228696540124
 21
29.042895843810825
 31
0.0
  0
ELLIPSE
  5
35
330
17
100
AcDbEntity
  8
visible
100
AcDbEllipse
 10
-5.403423166375319
 20
13.17287988905015
 30
0.0
 11
3.025409523578354
 21
17.74392564272747
 31
0.0
 40
0.4391645306694998
 41
-6.283185307179586
 42
-5.912852407721808
  0
ELLIPSE
  5
36
330
17
100
AcDbEntity
  8
visible
100
AcDbEllipse
 10
-5.403423166375319
 20
13.17287988905015
 30
0.0
 11
3.025409523578354
 21
17.74392564272747
 31
0.0
 40
0.4391645306694998
 41
-0.5281515609492711
 42
-0.0
  0
ELLIPSE
  5
37
330
17
100
AcDbEntity
  8
visible
100
AcDbEllipse
 10
-5.403423166375319
 20
-17.561076886603857
 30
0.0
 11
3.025409523578354
 21
17.74392564272747
 31
0.0
 40
0.4391645306694998
 41
-1.7800477677554734
 42
-1.2401343759413794
  0
SPLINE
  5
38
330
17
100
AcDbEntity
  8
visible
100
AcDbSpline
 70
0
 71
3
 72
8
 73
4
 74
0
 40
0.0
 40
0.0
 40
0.0
 40
0.0
 40
1.0
 40
1.0
 40
1.0
 40
1.0
 10
1.5906378494826126
 20
-22.54665247574431
 30
0.0
 10
1.476389130339606
 20
-22.574543026682424
 30
0.0
 10
1.3541578793912878
 20
-22.638286490836183
 30
0.0
 10
1.2284979534560208
 20
-22.71619895576362
 30
0.0
  0
SPLINE
  5
39
330
17
100
AcDbEntity
  8
visible
100
AcDbSpline
 70
0
 71
2
 72
6
 73
3
 74
0
 40
0.0
 40
0.0
 40
0.0
 40
1.0
 40
1.0
 40
1.0
 10
-14.255083885511937
 20
-32.37233051012122
 30
0.0
 10
-14.082572342592847
 20
-32.2056440299738
 30
0.0
 10
-13.892943989485346
 20
-32.0927627015939
 30
0.0
  0
ELLIPSE
  5
3A
330
17
100
AcDbEntity
  8
visible
100
AcDbEllipse
 10
-7.261022869654013
 20
-18.71294468451309
 30
0.0
 11
3.025409523578354
 21
17.74392564272747
 31
0.0
 40
0.4391645306694998
 41
-4.342056080926912
 42
-3.7624717405085564
  0
LINE
  5
3B
330
17
100
AcDbEntity
  8
visible
100
AcDbLine
 10
-15.620221534408124
 20
3.054966166622769
 30
0.0
 11
-15.620221534408124
 21
-23.896349775104582
 31
0.0
  0
ELLIPSE
  5
3C
330
17
100
AcDbEntity
  8
visible
100
AcDbEllipse
 10
-6.332223018014666
 20
8.814305156168885
 30
0.0
 11
-3.361566137309278
 21
-19.715472936363856
 31
0.0
 40
0.4391645306694999
 41
5.082721879842468
 42
6.283185307179586
  0
ELLIPSE
  5
3D
330
17
100
AcDbEntity
  8
visible
100
AcDbEllipse
 10
-1.6882237598179373
 20
-18.0943219162304
 30
0.0
 11
-0.3781761904472938
 21
-2.2179907053409336
 31
0.0
 40
0.43916453066949984
 41
0.37033289945777803
 42
3.141592653589793
  0
ELLIPSE
  5
3E
330
17
100
AcDbEntity
  8
visible
100
AcDbEllipse
 10
-1.6882237598179373
 20
-18.0943219162304
 30
0.0
 11
-0.3781761904472938
 21
-2.2179907053409336
 31
0.0
 40
0.43916453066949984
 41
3.141592653589793
 42
6.283185307179586
  0
ELLIPSE
  5
3F
330
17
100
AcDbEntity
  8
visible
100
AcDbEllipse
 10
-1.6882237598179373
 20
-18.0943219162304
 30
0.0
 11
-0.3781761904472938
 21
-2.2179907053409336
 31
0.0
 40
0.43916453066949984
 41
0.0
 42
0.3703328994577779
  0
ELLIPSE
  5
40
330
17
100
AcDbEntity
  8
visible
100
AcDbEllipse
 10
-10.976222276211395
 20
-23.853660905776515
 30
0.0
 11
-0.3781761904472938
 21
-2.2179907053409336
 31
0.0
 40
0.43916453066949984
 41
0.37033289945777803
 42
3.141592653589793
  0
ELLIPSE
  5
41
330
17
100
AcDbEntity
  8
visible
100
AcDbEllipse
 10
-10.976222276211395
 20
-23.853660905776515
 30
0.0
 11
-0.3781761904472938
 21
-2.2179907053409336
 31
0.0
 40
0.43916453066949984
 41
3.141592653589793
 42
6.283185307179586
  0
ELLIPSE
  5
42
330
17
100
AcDbEntity
  8
visible
100
AcDbEllipse
 10
-10.976222276211395
 20
-23.853660905776515
 30
0.0
 11
-0.3781761904472938
 21
-2.2179907053409336
 31
0.0
 40
0.43916453066949984
 41
0.0
 42
0.3703328994577779
  0
SPLINE
  5
43
330
17
100
AcDbEntity
  8
visible
100
AcDbSpline
 70
0
 71
2
 72
6
 73
3
 74
0
 40
0.0
 40
0.0
 40
0.0
 40
1.0
 40
1.0
 40
1.0
 10
-14.255083885428498
 20
-32.37233051098854
 30
0.0
 10
-14.43113329045493
 20
-32.30175781109542
 30
0.0
 10
-14.593057158014373
 20
-32.273615487289334
 30
0.0
  0
LINE
  5
44
330
17
100
AcDbEntity
  8
visible
100
AcDbLine
 10
-15.620221534408124
 20
6.8376070005494185
 30
0.0
 11
-15.620221534408124
 21
3.054966166622769
 31
0.0
  0
ELLIPSE
  5
45
330
17
100
AcDbEntity
  8
visible
100
AcDbEllipse
 10
-6.332223018014666
 20
8.814305156168885
 30
0.0
 11
-3.361566137309278
 21
-19.715472936363856
 31
0.0
 40
0.4391645306694999
 41
3.141592653589793
 42
5.082721879842468
  0
SPLINE
  5
46
330
17
100
AcDbEntity
  8
visible
100
AcDbSpline
 70
0
 71
3
 72
8
 73
4
 74
0
 40
0.0
 40
0.0
 40
0.0
 40
0.0
 40
1.0
 40
1.0
 40
1.0
 40
1.0
 10
20.38826713448669
 20
7.550056655525321
 30
0.0
 10
20.38809560314093
 20
7.042595566232085
 30
0.0
 10
20.362788663592266
 20
6.531231661984555
 30
0.0
 10
20.296767620089383
 20
6.027520034792744
 30
0.0
  0
ELLIPSE
  5
47
330
17
100
AcDbEntity
  8
visible
100
AcDbEllipse
 10
11.38028904435167
 20
5.794251772325779
 30
0.0
 11
-3.361566137309278
 21
-19.715472936363856
 31
0.0
 40
0.4391645306694999
 41
0.37033289945777803
 42
1.6573351170443442
  0
ELLIPSE
  5
48
330
17
100
AcDbEntity
  8
visible
100
AcDbEllipse
 10
11.38028904435167
 20
5.794251772325779
 30
0.0
 11
-3.361566137309278
 21
-19.715472936363856
 31
0.0
 40
0.4391645306694999
 41
5.366515989050806
 42
6.283185307179586
  0
ELLIPSE
  5
49
330
17
100
AcDbEntity
  8
visible
100
AcDbEllipse
 10
11.38028904435167
 20
5.794251772325779
 30
0.0
 11
-3.361566137309278
 21
-19.715472936363856
 31
0.0
 40
0.4391645306694999
 41
0.0
 42
0.3703328994577779
  0
SPLINE
  5
4A
330
17
100
AcDbEntity
  8
visible
100
AcDbSpline
 70
0
 71
3
 72
11
 73
7
 74
0
 40
0.0
 40
0.0
 40
0.0
 40
0.0
 40
0.6557507203968209
 40
0.6557507203968209
 40
0.6557507203968209
 40
1.0
 40
1.0
 40
1.0
 40
1.0
 10
1.383790045463563
 20
0.15571491813339833
 30
0.0
 10
1.6006350335996786
 20
-1.0430445996157727
 30
0.0
 10
1.8741333353316834
 20
-2.211930206550569
 30
0.0
 10
2.1241341756450263
 20
-3.330296719506082
 30
0.0
 10
2.2536552080331034
 20
-3.914521215107455
 30
0.0
 10
2.3775947307826963
 20
-4.4862241239633125
 30
0.0
 10
2.463810468613957
 20
-5.030410825135803
 30
0.0
  0
SPLINE
  5
4B
330
17
100
AcDbEntity
  8
visible
100
AcDbSpline
 70
0
 71
3
 72
8
 73
4
 74
0
 40
0.0
 40
0.0
 40
0.0
 40
0.0
 40
0.9999998493091814
 40
0.9999998493091814
 40
0.9999998493091814
 40
0.9999998493091814
 10
1.383790045463563
 20
0.15571491813339833
 30
0.0
 10
1.6187242095008636
 20
1.3764879308323386
 30
0.0
 10
1.92205972016228
 20
2.637202862902005
 30
0.0
 10
2.187098209277847
 20
3.9497468449079793
 30
0.0
  0
SPLINE
  5
4C
330
17
100
AcDbEntity
  8
visible
100
AcDbSpline
 70
0
 71
3
 72
8
 73
4
 74
0
 40
0.0
 40
0.0
 40
0.0
 40
0.0
 40
1.0
 40
1.0
 40
1.0
 40
1.0
 10
2.5167509783126576
 20
5.950323868378945
 30
0.0
 10
2.4210456649288594
 20
5.272394532803356
 30
0.0
 10
2.3162261086083955
 20
4.597810707052176
 30
0.0
 10
2.1870982094131577
 20
3.9497468449004884
 30
0.0
  0
ELLIPSE
  5
4D
330
17
100
AcDbEntity
  8
visible
100
AcDbEllipse
 10
11.38028904435167
 20
5.794251772325779
 30
0.0
 11
-3.361566137309278
 21
-19.715472936363856
 31
0.0
 40
0.4391645306694999
 41
2.244616519820015
 42
3.141592653589793
  0
ELLIPSE
  5
4E
330
17
100
AcDbEntity
  8
visible
100
AcDbEllipse
 10
11.38028904435167
 20
5.794251772325779
 30
0.0
 11
-3.361566137309278
 21
-19.715472936363856
 31
0.0
 40
0.4391645306694999
 41
3.141592653589793
 42
4.779234586275127
  0
SPLINE
  5
4F
330
17
100
AcDbEntity
  8
visible
100
AcDbSpline
 70
0
 71
1
 72
4
 73
2
 74
0
 40
0.0
 40
0.0
 40
0.05885373883896536
 40
0.05885373883896536
 10
20.387783886926087
 20
15.235700268984061
 30
0.0
 10
20.388089047279763
 20
15.336478064487366
 30
0.0
  0
SPLINE
  5
50
330
17
100
AcDbEntity
  8
visible
100
AcDbSpline
 70
0
 71
3
 72
8
 73
4
 74
0
 40
0.0
 40
0.0
 40
0.0
 40
0.0
 40
1.0
 40
1.0
 40
1.0
 40
1.0
 10
20.388089047279763
 20
15.336478064487366
 30
0.0
 10
20.385910924814205
 20
15.874571181958608
 30
0.0
 10
20.33313570649484
 20
16.415648093847416
 30
0.0
 10
20.243827110390683
 20
16.942599605495797
 30
0.0
  0
ELLIPSE
  5
51
330
17
100
AcDbEntity
  8
visible
100
AcDbEllipse
 10
-3.2823498454309004
 20
-17.82251711168452
 30
0.0
 11
-0.3781761904472938
 21
-2.2179907053409336
 31
0.0
 40
0.43916453066949984
 41
0.9584246890054656
 42
2.1831679645843245
  0
ELLIPSE
  5
52
330
17
100
AcDbEntity
  8
visible
100
AcDbEllipse
 10
-12.570348361824358
 20
-23.581856101230635
 30
0.0
 11
-0.3781761904472938
 21
-2.2179907053409336
 31
0.0
 40
0.43916453066949984
 41
0.9584246890054656
 42
2.1831679645843245
  0
ELLIPSE
  5
53
330
17
100
AcDbEntity
  8
visible
100
AcDbEllipse
 10
6.736289786154941
 20
10.47986394540601
 30
0.0
 11
-0.3781761904472938
 21
-2.2179907053409336
 31
0.0
 40
0.43916453066949984
 41
1.7472671022227173
 42
3.141592653589793
  0
ELLIPSE
  5
54
330
17
100
AcDbEntity
  8
visible
100
AcDbEllipse
 10
6.736289786154941
 20
10.47986394540601
 30
0.0
 11
-0.3781761904472938
 21
-2.2179907053409336
 31
0.0
 40
0.43916453066949984
 41
3.141592653589793
 42
6.283185307179586
  0
ELLIPSE
  5
55
330
17
100
AcDbEntity
  8
visible
100
AcDbEllipse
 10
6.736289786154941
 20
10.47986394540601
 30
0.0
 11
-0.3781761904472938
 21
-2.2179907053409336
 31
0.0
 40
0.43916453066949984
 41
0.0
 42
0.3703328994577779
  0
ELLIPSE
  5
56
330
17
100
AcDbEntity
  8
visible
100
AcDbEllipse
 10
6.736289786154941
 20
10.47986394540601
 30
0.0
 11
-0.3781761904472938
 21
-2.2179907053409336
 31
0.0
 40
0.43916453066949984
 41
0.37033289945777803
 42
0.38287524908624254
  0
ELLIPSE
  5
57
330
17
100
AcDbEntity
  8
visible
100
AcDbEllipse
 10
11.38028904435167
 20
2.01161093839913
 30
0.0
 11
2.344089006798539
 21
13.748003604937733
 31
0.0
 40
0.4391645306694998
 41
-5.116218333464249
 42
-3.4277040298416876
  0
ELLIPSE
  5
58
330
17
100
AcDbEntity
  8
visible
100
AcDbEllipse
 10
16.0242883025484
 20
16.239202934952118
 30
0.0
 11
-0.3781761904472938
 21
-2.2179907053409336
 31
0.0
 40
0.43916453066949984
 41
0.8072037133159757
 42
3.141592653589793
  0
ELLIPSE
  5
59
330
17
100
AcDbEntity
  8
visible
100
AcDbEllipse
 10
16.0242883025484
 20
16.239202934952118
 30
0.0
 11
-0.3781761904472938
 21
-2.2179907053409336
 31
0.0
 40
0.43916453066949984
 41
3.141592653589793
 42
5.095485685115212
  0
ELLIPSE
  5
5A
330
17
100
AcDbEntity
  8
visible
100
AcDbEllipse
 10
11.38028904435167
 20
2.01161093839913
 30
0.0
 11
2.344089006798539
 21
13.748003604937733
 31
0.0
 40
0.4391645306694998
 41
-5.997073930927693
 42
-5.32000992958596
  0
LINE
  5
5B
330
17
100
AcDbEntity
  8
visible
100
AcDbLine
 10
6.771454680090866
 20
8.346132722780956
 30
0.0
 11
7.074771214875831
 21
8.294416053568396
 31
0.0
  0
SPLINE
  5
5C
330
17
100
AcDbEntity
  8
visible
100
AcDbSpline
 70
0
 71
1
 72
4
 73
2
 74
0
 40
0.0
 40
0.0
 40
1.0
 40
1.0
 10
6.771454680090862
 20
8.34613272278095
 30
0.0
 10
6.749394941585528
 20
8.360422128531425
 30
0.0
  0
LINE
  5
5D
330
17
100
AcDbEntity
  8
visible
100
AcDbLine
 10
6.031212868500646
 20
8.472346880325842
 30
0.0
 11
6.736289786154946
 21
8.35212847632228
 31
0.0
  0
ELLIPSE
  5
5E
330
17
100
AcDbEntity
  8
visible
100
AcDbEllipse
 10
5.142163700541978
 20
10.751668749951875
 30
0.0
 11
-0.3781761904472938
 21
-2.2179907053409336
 31
0.0
 40
0.43916453066949984
 41
0.9584246890054693
 42
2.183167964584331
  0
SPLINE
  5
5F
330
17
100
AcDbEntity
  8
visible
100
AcDbSpline
 70
0
 71
2
 72
6
 73
3
 74
0
 40
0.0
 40
0.0
 40
0.0
 40
1.0
 40
1.0
 40
1.0
 10
7.944845206629118
 20
10.748697340710976
 30
0.0
 10
7.849987602744175
 20
10.764699529350466
 30
0.0
 10
7.761616050548966
 20
10.70574387637393
 30
0.0
  0
LINE
  5
60
330
17
100
AcDbEntity
  8
visible
100
AcDbLine
 10
7.944845206629115
 20
10.748697340710976
 30
0.0
 11
8.12197032725278
 21
10.718496806872546
 31
0.0
  0
ELLIPSE
  5
61
330
17
100
AcDbEntity
  8
visible
100
AcDbEllipse
 10
11.557414164975341
 20
1.981410404560691
 30
0.0
 11
-2.3530962961164947
 21
-13.8008310554547
 31
0.0
 40
0.43916453066949984
 41
4.312265778016032
 42
6.283185307179586
  0
SPLINE
  5
62
330
17
100
AcDbEntity
  8
visible
100
AcDbSpline
 70
0
 71
2
 72
6
 73
3
 74
0
 40
0.0
 40
0.0
 40
0.0
 40
1.0
 40
1.0
 40
1.0
 10
6.891911699707059
 20
8.309044748062291
 30
0.0
 10
6.817796000630537
 20
8.321539382234256
 30
0.0
 10
6.771454680090862
 20
8.34613272278095
 30
0.0
  0
ELLIPSE
  5
63
330
17
100
AcDbEntity
  8
visible
100
AcDbEllipse
 10
14.430162216935436
 20
16.511007739497998
 30
0.0
 11
-0.3781761904472938
 21
-2.2179907053409336
 31
0.0
 40
0.43916453066949984
 41
1.168803014714403
 42
2.1831679645843245
  0
ELLIPSE
  5
64
330
17
100
AcDbEntity
  8
visible
100
AcDbEllipse
 10
11.557414164975341
 20
1.981410404560691
 30
0.0
 11
-2.3530962961164947
 21
-13.8008310554547
 31
0.0
 40
0.43916453066949984
 41
3.141592653589794
 42
4.101061880472517
  0
ELLIPSE
  5
65
330
17
100
AcDbEntity
  8
visible
100
AcDbEllipse
 10
11.734539285599006
 20
1.9512098707222663
 30
0.0
 11
-2.3530962961164947
 21
-13.8008310554547
 31
0.0
 40
0.43916453066949984
 41
4.101061880472518
 42
4.312265778016031
  0
LINE
  5
66
330
17
100
AcDbEntity
  8
visible
100
AcDbLine
 10
6.891911699707055
 20
8.309044748062291
 30
0.0
 11
7.069036820330721
 21
8.278844214223861
 31
0.0
  0
ELLIPSE
  5
67
330
17
100
AcDbEntity
  8
visible
100
AcDbEllipse
 10
-20.73958033308595
 20
8.004197109122629
 30
0.0
 11
-0.8
 21
-0.0
 31
0.0
 40
0.3251565316803905
 41
-6.283185307179586
 42
-5.195345900188318
  0
ELLIPSE
  5
68
330
17
100
AcDbEntity
  8
visible
100
AcDbEllipse
 10
-12.75190160898758
 20
12.957228640132286
 30
0.0
 11
3.025409523578354
 21
17.74392564272747
 31
0.0
 40
0.4391645306694998
 41
-5.912852407721808
 42
-4.342056080926912
  0
ELLIPSE
  5
69
330
17
100
AcDbEntity
  8
visible
100
AcDbEllipse
 10
-12.75190160898758
 20
29.222584226016863
 30
0.0
 11
-0.42159297285349173
 21
0.6798965842248035
 31
0.0
 40
0.8375008924815647
 41
5.645857866945222
 42
6.283185307179586
  0
LINE
  5
6A
330
17
100
AcDbEntity
  8
visible
100
AcDbLine
 10
-12.75190160898758
 20
29.979112392802193
 30
0.0
 11
-10.89430190570889
 21
31.130980190711416
 31
0.0
  0
ELLIPSE
  5
6B
330
17
100
AcDbEntity
  8
visible
100
AcDbEllipse
 10
-10.894301905708886
 20
30.374452023926096
 30
0.0
 11
-0.42159297285349173
 21
0.6798965842248035
 31
0.0
 40
0.8375008924815647
 41
5.645857866945222
 42
6.283185307179586
  0
ELLIPSE
  5
6C
330
17
100
AcDbEntity
  8
visible
100
AcDbEllipse
 10
-10.894301905708886
 20
14.109096438041519
 30
0.0
 11
3.025409523578354
 21
17.74392564272747
 31
0.0
 40
0.4391645306694998
 41
-6.283185307179586
 42
-5.912852407721808
  0
ELLIPSE
  5
6D
330
17
100
AcDbEntity
  8
visible
100
AcDbEllipse
 10
-20.73958033308595
 20
-22.72975966653138
 30
0.0
 11
-0.8
 21
-1.1740189707333832e-16
 31
0.0
 40
0.32515653168039077
 41
-6.283185307179586
 42
-5.195345900188318
  0
ELLIPSE
  5
6E
330
17
100
AcDbEntity
  8
visible
100
AcDbEllipse
 10
-12.75190160898758
 20
-17.776728135521722
 30
0.0
 11
3.0254095235783542
 21
17.74392564272747
 31
0.0
 40
0.4391645306694998
 41
-4.342056080926911
 42
-3.766329432946721
  0
LINE
  5
6F
330
17
100
AcDbEntity
  8
visible
100
AcDbLine
 10
-21.11110027374169
 20
-22.96013322611323
 30
0.0
 11
-21.11110027374169
 21
7.773823549540769
 31
0.0
  0
LINE
  5
70
330
17
100
AcDbEntity
  8
visible
100
AcDbLine
 10
-12.751901608987579
 20
29.979112392802197
 30
0.0
 11
-7.2610228696540124
 21
29.042895843810832
 31
0.0
  0
LINE
  5
71
330
17
100
AcDbEntity
  8
visible
100
AcDbLine
 10
-21.11110027374169
 20
7.773823549540783
 30
0.0
 11
-15.620221534408124
 21
6.8376070005494185
 31
0.0
  0
LINE
  5
72
330
17
100
AcDbEntity
  8
visible
100
AcDbLine
 10
-10.894301905708884
 20
31.130980190711416
 30
0.0
 11
-5.403423166375318
 21
30.19476364172005
 31
0.0
  0
LINE
  5
73
330
17
100
AcDbEntity
  8
visible
100
AcDbLine
 10
-21.11110027374169
 20
-22.960133226113225
 30
0.0
 11
-15.620221534408124
 21
-23.89634977510459
 31
0.0
  0
LINE
  5
74
330
17
100
AcDbEntity
  8
visible
100
AcDbLine
 10
20.296767620089383
 20
15.105858036216702
 30
0.0
 11
20.296767620089383
 21
6.027520034792705
 31
0.0
  0
ELLIPSE
  5
75
330
17
100
AcDbEntity
  8
visible
100
AcDbEllipse
 10
19.58826713759474
 20
15.22666017157043
 30
0.0
 11
-0.8
 21
-4.696075882933532e-17
 31
0.0
 40
0.32515653168039066
 41
-3.141592653589793
 42
-3.10683278704704
  0
ELLIPSE
  5
76
330
17
100
AcDbEntity
  8
visible
100
AcDbEllipse
 10
19.58826713759474
 20
15.22666017157043
 30
0.0
 11
-0.8
 21
-4.696075882933532e-17
 31
0.0
 40
0.32515653168039066
 41
-3.624549573393422
 42
-3.141592653589793
  0
LINE
  5
77
330
17
100
AcDbEntity
  8
visible
100
AcDbLine
 10
2.463810468613957
 20
-5.030410825136016
 30
0.0
 11
2.463810468613957
 21
4.047927176288145
 31
0.0
  0
ELLIPSE
  5
78
330
17
100
AcDbEntity
  8
visible
100
AcDbEllipse
 10
10.451489192712323
 20
9.000958707297812
 30
0.0
 11
2.8909468780859826
 21
16.955306725272912
 31
0.0
 40
0.4391645306694998
 41
-4.457252484783002
 42
-4.342056080926912
  0
ELLIPSE
  5
79
330
17
100
AcDbEntity
  8
visible
100
AcDbEllipse
 10
12.309088895991017
 20
10.152826505207031
 30
0.0
 11
2.8909468780859826
 21
16.955306725272912
 31
0.0
 40
0.4391645306694998
 41
-1.2004634273371184
 42
-1.0852670234810289
  0
ELLIPSE
  5
7A
330
17
100
AcDbEntity
  8
visible
100
AcDbEllipse
 10
1.7553099861193004
 20
4.168729311641869
 30
0.0
 11
0.8
 21
0.0
 31
0.0
 40
0.3251565316803905
 41
5.282511601029575
 42
5.800228387375958
  0
ELLIPSE
  5
7B
330
17
100
AcDbEntity
  8
visible
100
AcDbEllipse
 10
12.177352087158148
 20
1.875708536126183
 30
0.0
 11
-2.3530962961164947
 21
-13.8008310554547
 31
0.0
 40
0.43916453066949984
 41
3.141592653589793
 42
6.283185307179586
  0
ELLIPSE
  5
7C
330
17
100
AcDbEntity
  8
visible
100
AcDbEllipse
 10
12.531602328405484
 20
1.8153074684493333
 30
0.0
 11
-2.285864973370309
 21
-13.406521596727421
 31
0.0
 40
0.43916453066949984
 41
0.37033289945777803
 42
6.653518206637364
  0
SPLINE
  5
7D
330
17
100
AcDbEntity
  8
visible
100
AcDbSpline
 70
0
 71
3
 72
17
 73
13
 74
0
 40
0.0
 40
0.0
 40
0.0
 40
0.0
 40
0.2341011282941257
 40
0.2341011282941257
 40
0.2341011282941257
 40
0.5293355488572064
 40
0.5293355488572064
 40
0.5293355488572064
 40
0.8593005578306265
 40
0.8593005578306265
 40
0.8593005578306265
 40
1.0
 40
1.0
 40
1.0
 40
1.0
 10
-21.53958033308595
 20
8.004197109122629
 30
0.0
 10
-21.539983936232417
 20
10.05233562584347
 30
0.0
 10
-21.352576202141293
 20
12.211121856275616
 30
0.0
 10
-20.990071803181113
 20
14.341441748453521
 30
0.0
 10
-20.534233930706225
 20
17.02863181912111
 30
0.0
 10
-19.798742733646588
 20
19.665933508569434
 30
0.0
 10
-18.856341668778672
 20
21.986205520985546
 30
0.0
 10
-17.803547609487055
 20
24.583204558447022
 30
0.0
 10
-16.49863733818545
 20
26.775915613997018
 30
0.0
 10
-15.068777690358168
 20
28.30742665335069
 30
0.0
 10
-14.457782945579615
 20
28.964112792564823
 30
0.0
 10
-13.826021909407263
 20
29.495797511528494
 30
0.0
 10
-13.17349458184107
 20
29.902480810241656
 30
0.0
  0
LINE
  5
7E
330
17
100
AcDbEntity
  8
visible
100
AcDbLine
 10
-13.17349458184107
 20
29.902480810241656
 30
0.0
 11
-11.315894878562379
 21
31.054348608150878
 31
0.0
  0
SPLINE
  5
7F
330
17
100
AcDbEntity
  8
visible
100
AcDbSpline
 70
0
 71
3
 72
8
 73
4
 74
0
 40
0.0
 40
0.0
 40
0.0
 40
0.0
 40
1.0
 40
1.0
 40
1.0
 40
1.0
 10
-11.315894878562375
 20
31.05434860815089
 30
0.0
 10
-10.20101538835255
 20
31.749466506474757
 30
0.0
 10
-9.007762058043483
 20
32.04937130449592
 30
0.0
 10
-7.868892382130532
 20
31.85302208076898
 30
0.0
  0
SPLINE
  5
80
330
17
100
AcDbEntity
  8
visible
100
AcDbSpline
 70
0
 71
3
 72
8
 73
4
 74
0
 40
0.0
 40
0.0
 40
0.0
 40
0.0
 40
1.0
 40
1.0
 40
1.0
 40
1.0
 10
-20.146951738009733
 20
-31.202548203296345
 30
0.0
 10
-21.061786121537178
 20
-28.97010246141392
 30
0.0
 10
-21.5409707785345
 20
-26.00024584458254
 30
0.0
 10
-21.53958033308595
 20
-22.72975966653138
 30
0.0
  0
LINE
  5
81
330
17
100
AcDbEntity
  8
visible
100
AcDbLine
 10
-21.53958033308595
 20
-22.72975966653138
 30
0.0
 11
-21.53958033308595
 21
8.004197109122618
 31
0.0
  0
LINE
  5
82
330
17
100
AcDbEntity
  8
visible
100
AcDbLine
 10
-2.3780136427969643
 20
30.91680553177762
 30
0.0
 11
-7.8688923821305305
 21
31.853022080768984
 31
0.0
  0
LINE
  5
83
330
17
100
AcDbEntity
  8
visible
100
AcDbLine
 10
-9.693789155323943
 20
-10.90116778019496
 30
0.0
 11
8.018722907042395
 21
-13.921221164038064
 31
0.0
  0
LINE
  5
84
330
17
100
AcDbEntity
  8
visible
100
AcDbLine
 10
-2.970656880705387
 20
28.529778092532744
 30
0.0
 11
14.741855181660956
 21
25.50972470868964
 31
0.0
  0
LINE
  5
85
330
17
100
AcDbEntity
  8
visible
100
AcDbLine
 10
20.388267137594738
 20
15.22666017157043
 30
0.0
 11
20.388267137594738
 21
7.550056652365466
 31
0.0
  0
SPLINE
  5
86
330
17
100
AcDbEntity
  8
visible
100
AcDbSpline
 70
0
 71
1
 72
4
 73
2
 74
0
 40
0.0
 40
0.0
 40
1.0
 40
1.0
 10
20.388267137594738
 20
15.22666017157043
 30
0.0
 10
20.388089022116887
 20
15.336478060512619
 30
0.0
  0
SPLINE
  5
87
330
17
100
AcDbEntity
  8
visible
100
AcDbSpline
 70
0
 71
3
 72
8
 73
4
 74
0
 40
0.0
 40
0.0
 40
0.0
 40
0.0
 40
1.0
 40
1.0
 40
1.0
 40
1.0
 10
9.204317868858844
 20
-11.819420650894003
 30
0.0
 10
8.55852471271479
 20
-11.710036008204371
 30
0.0
 10
7.954035189033069
 20
-11.38767498678848
 30
0.0
 10
7.427525980062576
 20
-10.886984209306476
 30
0.0
  0
SPLINE
  5
88
330
17
100
AcDbEntity
  8
visible
100
AcDbSpline
 70
0
 71
3
 72
8
 73
4
 74
0
 40
0.0
 40
0.0
 40
0.0
 40
0.0
 40
1.0
 40
1.0
 40
1.0
 40
1.0
 10
13.910510461091832
 20
15.782241460015399
 30
0.0
 10
13.264957765216007
 20
15.893036394134116
 30
0.0
 10
12.587800115338856
 20
15.789201286477422
 30
0.0
 10
11.925122939297722
 20
15.491271492498427
 30
0.0
  0
LINE
  5
89
330
17
100
AcDbEntity
  8
visible
100
AcDbLine
 10
9.204317868858828
 20
-11.819420650894
 30
0.0
 11
9.82425579104164
 21
-11.925122519328507
 31
0.0
  0
LINE
  5
8A
330
17
100
AcDbEntity
  8
visible
100
AcDbLine
 10
13.910510461091823
 20
15.782241460015417
 30
0.0
 11
14.530448383274635
 21
15.676539591580909
 31
0.0
  0
SPLINE
  5
8B
330
17
100
AcDbEntity
  8
visible
100
AcDbSpline
 70
0
 71
3
 72
26
 73
22
 74
0
 40
0.0
 40
0.0
 40
0.0
 40
0.0
 40
0.16471622020910515
 40
0.16471622020910515
 40
0.16471622020910515
 40
0.5072324578578351
 40
0.5072324578578351
 40
0.5072324578578351
 40
0.5895905679623876
 40
0.5895905679623876
 40
0.5895905679623876
 40
0.6719486780669403
 40
0.6719486780669403
 40
0.6719486780669403
 40
0.8366648982760454
 40
0.8366648982760454
 40
0.8366648982760454
 40
0.9090206649527128
 40
0.9090206649527128
 40
0.9090206649527128
 40
1.0
 40
1.0
 40
1.0
 40
1.0
 10
12.3881485735849
 20
-11.325218591336807
 30
0.0
 10
12.930509882951844
 20
-10.98748919382681
 30
0.0
 10
13.45797781460786
 20
-10.53219222713782
 30
0.0
 10
13.970552368552934
 20
-9.959327691269795
 30
0.0
 10
15.03314418236536
 20
-8.774933424806312
 30
0.0
 10
16.01180387592911
 20
-7.103245141341236
 30
0.0
 10
16.80529479110921
 20
-5.134842191315784
 30
0.0
 10
17.431531173227704
 20
-3.584245274901081
 30
0.0
 10
17.941600708209325
 20
-1.8521583188152269
 30
0.0
 10
18.297368077089303
 20
-0.07019732019471281
 30
0.0
 10
18.65393482618198
 20
1.7114819133330086
 30
0.0
 10
18.856199409173076
 20
3.5430351893953946
 30
0.0
 10
18.888409153053434
 20
5.284957088257654
 30
0.0
 10
18.942304385835506
 20
8.052558075117368
 30
0.0
 10
18.562604315810503
 20
10.57872415311233
 30
0.0
 10
17.801739550275755
 20
12.421906406190292
 30
0.0
 10
17.468287555102897
 20
13.233369791629059
 30
0.0
 10
17.062886729166152
 20
13.91742097688997
 30
0.0
 10
16.591520402946088
 20
14.449427519348752
 30
0.0
 10
16.000603073111265
 20
15.118440627515433
 30
0.0
 10
15.296053712179091
 20
15.547113737839348
 30
0.0
 10
14.530448383274646
 20
15.676539591580903
 30
0.0
  0
SPLINE
  5
8C
330
17
100
AcDbEntity
  8
visible
100
AcDbSpline
 70
0
 71
3
 72
8
 73
4
 74
0
 40
0.0
 40
0.0
 40
0.0
 40
0.0
 40
1.0
 40
1.0
 40
1.0
 40
1.0
 10
9.82425579104165
 20
-11.92512251932851
 30
0.0
 10
10.659648507092355
 20
-12.068882433109424
 30
0.0
 10
11.542374648020129
 20
-11.85175130174793
 30
0.0
 10
12.3881485735849
 20
-11.325218591336807
 30
0.0
  0
ENDSEC
  0
SECTION
  2
OBJECTS
  0
DICTIONARY
  5
A
330
0
100
AcDbDictionary
281
1
  3
ACAD_COLOR
350
B
  3
ACAD_GROUP
350
C
  3
ACAD_LAYOUT
350
D
  3
ACAD_MATERIAL
350
E
  3
ACAD_MLEADERSTYLE
350
F
  3
ACAD_MLINESTYLE
350
10
  3
ACAD_PLOTSETTINGS
350
11
  3
ACAD_PLOTSTYLENAME
350
12
  3
ACAD_SCALELIST
350
14
  3
ACAD_TABLESTYLE
350
15
  3
ACAD_VISUALSTYLE
350
16
  3
EZDXF_META
350
2D
  0
DICTIONARY
  5
B
330
A
100
AcDbDictionary
281
1
  0
DICTIONARY
  5
C
330
A
100
AcDbDictionary
281
1
  0
DICTIONARY
  5
D
330
A
100
AcDbDictionary
281
1
  3
Model
350
1A
  3
Layout1
350
1E
  0
DICTIONARY
  5
E
330
A
100
AcDbDictionary
281
1
  3
ByBlock
350
1F
  3
ByLayer
350
20
  3
Global
350
21
  0
DICTIONARY
  5
F
330
A
100
AcDbDictionary
281
1
  3
Standard
350
2C
  0
DICTIONARY
  5
10
330
A
100
AcDbDictionary
281
1
  3
Standard
350
22
  0
DICTIONARY
  5
11
330
A
100
AcDbDictionary
281
1
  0
ACDBDICTIONARYWDFLT
  5
12
330
A
100
AcDbDictionary
281
1
  3
Normal
350
13
100
AcDbDictionaryWithDefault
340
13
  0
ACDBPLACEHOLDER
  5
13
330
12
  0
DICTIONARY
  5
14
330
A
100
AcDbDictionary
281
1
  0
DICTIONARY
  5
15
330
A
100
AcDbDictionary
281
1
  0
DICTIONARY
  5
16
330
A
100
AcDbDictionary
281
1
  0
LAYOUT
  5
1A
330
D
100
AcDbPlotSettings
  1

  4
A3
  6

 40
7.5
 41
20.0
 42
7.5
 43
20.0
 44
420.0
 45
297.0
 46
0.0
 47
0.0
 48
0.0
 49
0.0
140
0.0
141
0.0
142
1.0
143
1.0
 70
1024
 72
1
 73
0
 74
5
  7

 75
16
 76
0
 77
2
 78
300
147
1.0
148
0.0
149
0.0
100
AcDbLayout
  1
Model
 70
1
 71
0
 10
0.0
 20
0.0
 11
420.0
 21
297.0
 12
0.0
 22
0.0
 32
0.0
 14
1e+20
 24
1e+20
 34
1e+20
 15
-1e+20
 25
-1e+20
 35
-1e+20
146
0.0
 13
0.0
 23
0.0
 33
0.0
 16
1.0
 26
0.0
 36
0.0
 17
0.0
 27
1.0
 37
0.0
 76
1
330
17
  0
LAYOUT
  5
1E
330
D
100
AcDbPlotSettings
  1

  4
A3
  6

 40
7.5
 41
20.0
 42
7.5
 43
20.0
 44
420.0
 45
297.0
 46
0.0
 47
0.0
 48
0.0
 49
0.0
140
0.0
141
0.0
142
1.0
143
1.0
 70
0
 72
1
 73
0
 74
5
  7

 75
16
 76
0
 77
2
 78
300
147
1.0
148
0.0
149
0.0
100
AcDbLayout
  1
Layout1
 70
1
 71
1
 10
0.0
 20
0.0
 11
420.0
 21
297.0
 12
0.0
 22
0.0
 32
0.0
 14
1e+20
 24
1e+20
 34
1e+20
 15
-1e+20
 25
-1e+20
 35
-1e+20
146
0.0
 13
0.0
 23
0.0
 33
0.0
 16
1.0
 26
0.0
 36
0.0
 17
0.0
 27
1.0
 37
0.0
 76
1
330
1B
  0
MATERIAL
  5
1F
102
{ACAD_REACTORS
330
E
102
}
330
E
100
AcDbMaterial
  1
ByBlock
  2

 70
0
 40
1.0
 71
1
 41
1.0
 91
-1023410177
 42
1.0
 72
1
  3

 73
1
 74
1
 75
1
 44
0.5
 73
0
 45
1.0
 46
1.0
 77
1
  4

 78
1
 79
1
170
1
 48
1.0
171
1
  6

172
1
173
1
174
1
140
1.0
141
1.0
175
1
  7

176
1
177
1
178
1
143
1.0
179
1
  8

270
1
271
1
272
1
145
1.0
146
1.0
273
1
  9

274
1
275
1
276
1
 42
1.0
 72
1
  3

 73
1
 74
1
 75
1
 94
63
  0
MATERIAL
  5
20
102
{ACAD_REACTORS
330
E
102
}
330
E
100
AcDbMaterial
  1
ByLayer
  2

 70
0
 40
1.0
 71
1
 41
1.0
 91
-1023410177
 42
1.0
 72
1
  3

 73
1
 74
1
 75
1
 44
0.5
 73
0
 45
1.0
 46
1.0
 77
1
  4

 78
1
 79
1
170
1
 48
1.0
171
1
  6

172
1
173
1
174
1
140
1.0
141
1.0
175
1
  7

176
1
177
1
178
1
143
1.0
179
1
  8

270
1
271
1
272
1
145
1.0
146
1.0
273
1
  9

274
1
275
1
276
1
 42
1.0
 72
1
  3

 73
1
 74
1
 75
1
 94
63
  0
MATERIAL
  5
21
102
{ACAD_REACTORS
330
E
102
}
330
E
100
AcDbMaterial
  1
Global
  2

 70
0
 40
1.0
 71
1
 41
1.0
 91
-1023410177
 42
1.0
 72
1
  3

 73
1
 74
1
 75
1
 44
0.5
 73
0
 45
1.0
 46
1.0
 77
1
  4

 78
1
 79
1
170
1
 48
1.0
171
1
  6

172
1
173
1
174
1
140
1.0
141
1.0
175
1
  7

176
1
177
1
178
1
143
1.0
179
1
  8

270
1
271
1
272
1
145
1.0
146
1.0
273
1
  9

274
1
275
1
276
1
 42
1.0
 72
1
  3

 73
1
 74
1
 75
1
 94
63
  0
MLINESTYLE
  5
22
102
{ACAD_REACTORS
330
10
102
}
330
10
100
AcDbMlineStyle
  2
Standard
 70
0
  3

 62
256
 51
90.0
 52
90.0
 71
2
 49
0.5
 62
256
  6
BYLAYER
 49
-0.5
 62
256
  6
BYLAYER
  0
MLEADERSTYLE
  5
2C
102
{ACAD_REACTORS
330
F
102
}
330
F
100
AcDbMLeaderStyle
179
2
170
2
171
1
172
0
 90
2
 40
0.0
 41
0.0
173
1
 91
-1056964608
 92
-2
290
1
 42
2.0
291
1
 43
8.0
  3
Standard
 44
4.0
300

342
29
174
1
175
1
176
0
178
1
 93
-1056964608
 45
4.0
292
0
297
0
 46
4.0
 94
-1056964608
 47
1.0
 49
1.0
140
1.0
294
1
141
0.0
177
0
142
1.0
295
0
296
0
143
3.75
271
0
272
9
273
9
  0
DICTIONARY
  5
2D
330
A
100
AcDbDictionary
280
1
281
1
  3
CREATED_BY_EZDXF
350
2E
  3
WRITTEN_BY_EZDXF
350
90
  0
DICTIONARYVAR
  5
2E
330
2D
100
DictionaryVariables
280
0
  1
1.4.4 @ 2026-10-02T17:09:11.514690+00:00
  0
DICTIONARYVAR
  5
90
330
2D
100
DictionaryVariables
280
0
  1
1.4.4 @ 2026-10-02T17:09:11.538842+00:00
  0
ENDSEC
  0
EOF
