  0
SECTION
  2
HEADER
  9
$ACADVER
  1
AC1027
  9
$ACADMAINTVER
 70
105
  9
$DWGCODEPAGE
  3
ANSI_1252
  9
$LASTSAVEDBY
  1
ezdxf
  9
$REQUIREDVERSIONS
160
0
  9
$INSBASE
 10
0.0
 20
0.0
 30
0.0
  9
$EXTMIN
 10
1e+20
 20
1e+20
 30
1e+20
  9
$EXTMAX
 10
-1e+20
 20
-1e+20
 30
-1e+20
  9
$LIMMIN
 10
0.0
 20
0.0
  9
$LIMMAX
 10
420.0
 20
297.0
  9
$ORTHOMODE
 70
0
  9
$REGENMODE
 70
1
  9
$FILLMODE
 70
1
  9
$QTEXTMODE
 70
0
  9
$MIRRTEXT
 70
1
  9
$LTSCALE
 40
1.0
  9
$ATTMODE
 70
1
  9
$TEXTSIZE
 40
2.5
  9
$TRACEWID
 40
1.0
  9
$TEXTSTYLE
  7
Standard
  9
$CLAYER
  8
0
  9
$CELTYPE
  6
ByLayer
  9
$CECOLOR
 62
256
  9
$CELTSCALE
 40
1.0
  9
$DISPSILH
 70
0
  9
$DIMSCALE
 40
1.0
  9
$DIMASZ
 40
2.5
  9
$DIMEXO
 40
0.625
  9
$DIMDLI
 40
3.75
  9
$DIMRND
 40
0.0
  9
$DIMDLE
 40
0.0
  9
$DIMEXE
 40
1.25
  9
$DIMTP
 40
0.0
  9
$DIMTM
 40
0.0
  9
$DIMTXT
 40
2.5
  9
$DIMCEN
 40
2.5
  9
$DIMTSZ
 40
0.0
  9
$DIMTOL
 70
0
  9
$DIMLIM
 70
0
  9
$DIMTIH
 70
0
  9
$DIMTOH
 70
0
  9
$DIMSE1
 70
0
  9
$DIMSE2
 70
0
  9
$DIMTAD
 70
1
  9
$DIMZIN
 70
8
  9
$DIMBLK
  1

  9
$DIMASO
 70
1
  9
$DIMSHO
 70
1
  9
$DIMPOST
  1

  9
$DIMAPOST
  1

  9
$DIMALT
 70
0
  9
$DIMALTD
 70
3
  9
$DIMALTF
 40
0.03937007874
  9
$DIMLFAC
 40
1.0
  9
$DIMTOFL
 70
1
  9
$DIMTVP
 40
0.0
  9
$DIMTIX
 70
0
  9
$DIMSOXD
 70
0
  9
$DIMSAH
 70
0
  9
$DIMBLK1
  1

  9
$DIMBLK2
  1

  9
$DIMSTYLE
  2
ISO-25
  9
$DIMCLRD
 70
0
  9
$DIMCLRE
 70
0
  9
$DIMCLRT
 70
0
  9
$DIMTFAC
 40
1.0
  9
$DIMGAP
 40
0.625
  9
$DIMJUST
 70
0
  9
$DIMSD1
 70
0
  9
$DIMSD2
 70
0
  9
$DIMTOLJ
 70
0
  9
$DIMTZIN
 70
8
  9
$DIMALTZ
 70
0
  9
$DIMALTTZ
 70
0
  9
$DIMUPT
 70
0
  9
$DIMDEC
 70
2
  9
$DIMTDEC
 70
2
  9
$DIMALTU
 70
2
  9
$DIMALTTD
 70
3
  9
$DIMTXSTY
  7
Standard
  9
$DIMAUNIT
 70
0
  9
$DIMADEC
 70
0
  9
$DIMALTRND
 40
0.0
  9
$DIMAZIN
 70
0
  9
$DIMDSEP
 70
44
  9
$DIMATFIT
 70
3
  9
$DIMFRAC
 70
0
  9
$DIMLDRBLK
  1

  9
$DIMLUNIT
 70
2
  9
$DIMLWD
 70
-2
  9
$DIMLWE
 70
-2
  9
$DIMTMOVE
 70
0
  9
$DIMFXL
 40
1.0
  9
$DIMFXLON
 70
0
  9
$DIMJOGANG
 40
0.785398163397
  9
$DIMTFILL
 70
0
  9
$DIMTFILLCLR
 70
0
  9
$DIMARCSYM
 70
0
  9
$DIMLTYPE
  6

  9
$DIMLTEX1
  6

  9
$DIMLTEX2
  6

  9
$DIMTXTDIRECTION
 70
0
  9
$LUNITS
 70
2
  9
$LUPREC
 70
4
  9
$SKETCHINC
 40
1.0
  9
$FILLETRAD
 40
10.0
  9
$AUNITS
 70
0
  9
$AUPREC
 70
2
  9
$MENU
  1
.
  9
$ELEVATION
 40
0.0
  9
$PELEVATION
 40
0.0
  9
$THICKNESS
 40
0.0
  9
$LIMCHECK
 70
0
  9
$CHAMFERA
 40
0.0
  9
$CHAMFERB
 40
0.0
  9
$CHAMFERC
 40
0.0
  9
$CHAMFERD
 40
0.0
  9
$SKPOLY
 70
0
  9
$TDCREATE
 40
2461317.691550926
  9
$TDUCREATE
 40
2458532.153996898
  9
$TDUPDATE
 40
2461317.6915625
  9
$TDUUPDATE
 40
2458532.1544311
  9
$TDINDWG
 40
0.0
  9
$TDUSRTIMER
 40
0.0
  9
$USRTIMER
 70
1
  9
$ANGBASE
 50
0.0
  9
$ANGDIR
 70
0
  9
$PDMODE
 70
0
  9
$PDSIZE
 40
0.0
  9
$PLINEWID
 40
0.0
  9
$SPLFRAME
 70
0
  9
$SPLINETYPE
 70
6
  9
$SPLINESEGS
 70
8
  9
$HANDSEED
  5
18A
  9
$SURFTAB1
 70
6
  9
$SURFTAB2
 70
6
  9
$SURFTYPE
 70
6
  9
$SURFU
 70
6
  9
$SURFV
 70
6
  9
$UCSBASE
  2

  9
$UCSNAME
  2

  9
$UCSORG
 10
0.0
 20
0.0
 30
0.0
  9
$UCSXDIR
 10
1.0
 20
0.0
 30
0.0
  9
$UCSYDIR
 10
0.0
 20
1.0
 30
0.0
  9
$UCSORTHOREF
  2

  9
$UCSORTHOVIEW
 70
0
  9
$UCSORGTOP
 10
0.0
 20
0.0
 30
0.0
  9
$UCSORGBOTTOM
 10
0.0
 20
0.0
 30
0.0
  9
$UCSORGLEFT
 10
0.0
 20
0.0
 30
0.0
  9
$UCSORGRIGHT
 10
0.0
 20
0.0
 30
0.0
  9
$UCSORGFRONT
 10
0.0
 20
0.0
 30
0.0
  9
$UCSORGBACK
 10
0.0
 20
0.0
 30
0.0
  9
$PUCSBASE
  2

  9
$PUCSNAME
  2

  9
$PUCSORG
 10
0.0
 20
0.0
 30
0.0
  9
$PUCSXDIR
 10
1.0
 20
0.0
 30
0.0
  9
$PUCSYDIR
 10
0.0
 20
1.0
 30
0.0
  9
$PUCSORTHOREF
  2

  9
$PUCSORTHOVIEW
 70
0
  9
$PUCSORGTOP
 10
0.0
 20
0.0
 30
0.0
  9
$PUCSORGBOTTOM
 10
0.0
 20
0.0
 30
0.0
  9
$PUCSORGLEFT
 10
0.0
 20
0.0
 30
0.0
  9
$PUCSORGRIGHT
 10
0.0
 20
0.0
 30
0.0
  9
$PUCSORGFRONT
 10
0.0
 20
0.0
 30
0.0
  9
$PUCSORGBACK
 10
0.0
 20
0.0
 30
0.0
  9
$USERI1
 70
0
  9
$USERI2
 70
0
  9
$USERI3
 70
0
  9
$USERI4
 70
0
  9
$USERI5
 70
0
  9
$USERR1
 40
0.0
  9
$USERR2
 40
0.0
  9
$USERR3
 40
0.0
  9
$USERR4
 40
0.0
  9
$USERR5
 40
0.0
  9
$WORLDVIEW
 70
1
  9
$SHADEDGE
 70
3
  9
$SHADEDIF
 70
70
  9
$TILEMODE
 70
1
  9
$MAXACTVP
 70
64
  9
$PINSBASE
 10
0.0
 20
0.0
 30
0.0
  9
$PLIMCHECK
 70
0
  9
$PEXTMIN
 10
1e+20
 20
1e+20
 30
1e+20
  9
$PEXTMAX
 10
-1e+20
 20
-1e+20
 30
-1e+20
  9
$PLIMMIN
 10
0.0
 20
0.0
  9
$PLIMMAX
 10
420.0
 20
297.0
  9
$UNITMODE
 70
0
  9
$VISRETAIN
 70
1
  9
$PLINEGEN
 70
0
  9
$PSLTSCALE
 70
1
  9
$TREEDEPTH
 70
3020
  9
$CMLSTYLE
  2
Standard
  9
$CMLJUST
 70
0
  9
$CMLSCALE
 40
20.0
  9
$PROXYGRAPHICS
 70
1
  9
$MEASUREMENT
 70
1
  9
$CELWEIGHT
370
-1
  9
$ENDCAPS
280
0
  9
$JOINSTYLE
280
0
  9
$LWDISPLAY
290
0
  9
$INSUNITS
 70
4
  9
$HYPERLINKBASE
  1

  9
$STYLESHEET
  1

  9
$XEDIT
290
1
  9
$CEPSNTYPE
380
0
  9
$PSTYLEMODE
290
1
  9
$FINGERPRINTGUID
  2
{4CAF8613-89E9-41D5-86FD-42EC605709C9}
  9
$VERSIONGUID
  2
{F9CC5DE3-60A4-44D4-95CC-D8A3A7B229F9}
  9
$EXTNAMES
290
1
  9
$PSVPSCALE
 40
0.0
  9
$OLESTARTUP
290
0
  9
$SORTENTS
280
127
  9
$INDEXCTL
280
0
  9
$HIDETEXT
280
1
  9
$XCLIPFRAME
280
1
  9
$HALOGAP
280
0
  9
$OBSCOLOR
 70
257
  9
$OBSLTYPE
280
0
  9
$INTERSECTIONDISPLAY
280
0
  9
$INTERSECTIONCOLOR
 70
257
  9
$DIMASSOC
280
2
  9
$PROJECTNAME
  1

  9
$CAMERADISPLAY
290
0
  9
$LENSLENGTH
 40
50.0
  9
$CAMERAHEIGHT
 40
0.0
  9
$STEPSPERSEC
 40
24.0
  9
$STEPSIZE
 40
100.0
  9
$3DDWFPREC
 40
2.0
  9
$PSOLWIDTH
 40
0.005
  9
$PSOLHEIGHT
 40
0.08
  9
$LOFTANG1
 40
1.570796326795
  9
$LOFTANG2
 40
1.570796326795
  9
$LOFTMAG1
 40
0.0
  9
$LOFTMAG2
 40
0.0
  9
$LOFTPARAM
 70
7
  9
$LOFTNORMALS
280
1
  9
$LATITUDE
 40
37.795
  9
$LONGITUDE
 40
-122.394
  9
$NORTHDIRECTION
 40
0.0
  9
$TIMEZONE
 70
-8000
  9
$LIGHTGLYPHDISPLAY
280
1
  9
$TILEMODELIGHTSYNCH
280
1
  9
$CMATERIAL
347
20
  9
$SOLIDHIST
280
0
  9
$SHOWHIST
280
1
  9
$DWFFRAME
280
2
  9
$DGNFRAME
280
2
  9
$REALWORLDSCALE
290
1
  9
$INTERFERECOLOR
 62
256
  9
$CSHADOW
280
0
  9
$SHADOWPLANELOCATION
 40
0.0
  0
ENDSEC
  0
SECTION
  2
CLASSES
  0
CLASS
  1
ACDBDICTIONARYWDFLT
  2
AcDbDictionaryWithDefault
  3
ObjectDBX Classes
 90
0
 91
0
280
0
281
0
  0
CLASS
  1
SUN
  2
AcDbSun
  3
SCENEOE
 90
1153
 91
0
280
0
281
0
  0
CLASS
  1
VISUALSTYLE
  2
AcDbVisualStyle
  3
ObjectDBX Classes
 90
4095
 91
0
280
0
281
0
  0
CLASS
  1
MATERIAL
  2
AcDbMaterial
  3
ObjectDBX Classes
 90
1153
 91
0
280
0
281
0
  0
CLASS
  1
SCALE
  2
AcDbScale
  3
ObjectDBX Classes
 90
1153
 91
0
280
0
281
0
  0
CLASS
  1
TABLESTYLE
  2
AcDbTableStyle
  3
ObjectDBX Classes
 90
4095
 91
0
280
0
281
0
  0
CLASS
  1
MLEADERSTYLE
  2
AcDbMLeaderStyle
  3
ACDB_MLEADERSTYLE_CLASS
 90
4095
 91
0
280
0
281
0
  0
CLASS
  1
DICTIONARYVAR
  2
AcDbDictionaryVar
  3
ObjectDBX Classes
 90
0
 91
0
280
0
281
0
  0
CLASS
  1
CELLSTYLEMAP
  2
AcDbCellStyleMap
  3
ObjectDBX Classes
 90
1152
 91
0
280
0
281
0
  0
CLASS
  1
MENTALRAYRENDERSETTINGS
  2
AcDbMentalRayRenderSettings
  3
SCENEOE
 90
1024
 91
0
280
0
281
0
  0
CLASS
  1
ACDBDETAILVIEWSTYLE
  2
AcDbDetailViewStyle
  3
ObjectDBX Classes
 90
1025
 91
0
280
0
281
0
  0
CLASS
  1
ACDBSECTIONVIEWSTYLE
  2
AcDbSectionViewStyle
  3
ObjectDBX Classes
 90
1025
 91
0
280
0
281
0
  0
CLASS
  1
RASTERVARIABLES
  2
AcDbRasterVariables
  3
ISM
 90
0
 91
0
280
0
281
0
  0
CLASS
  1
ACDBPLACEHOLDER
  2
AcDbPlaceHolder
  3
ObjectDBX Classes
 90
0
 91
0
280
0
281
0
  0
CLASS
  1
LAYOUT
  2
AcDbLayout
  3
ObjectDBX Classes
 90
0
 91
0
280
0
281
0
  0
ENDSEC
  0
SECTION
  2
TABLES
  0
TABLE
  2
VPORT
  5
8
330
0
100
AcDbSymbolTable
 70
1
  0
VPORT
  5
186
330
8
100
AcDbSymbolTableRecord
100
AcDbViewportTableRecord
  2
*Active
 70
0
 10
0.0
 20
0.0
 11
1.0
 21
1.0
 12
0.0
 22
-0.39415332758121835
 13
0.0
 23
0.0
 14
0.5
 24
0.5
 15
0.5
 25
0.5
 16
0.0
 26
0.0
 36
1.0
 17
0.0
 27
0.0
 37
0.0
 40
20.593027886497097
 41
1.34
 42
50.0
 43
0.0
 44
0.0
 50
0.0
 51
0.0
 71
0
 72
1000
 73
1
 74
3
 75
0
 76
0
 77
0
 78
0
281
0
 65
1
110
0.0
120
0.0
130
0.0
111
1.0
121
0.0
131
0.0
112
0.0
122
1.0
132
0.0
 79
0
146
0.0
  0
ENDTAB
  0
TABLE
  2
LTYPE
  5
2
330
0
100
AcDbSymbolTable
 70
3
  0
LTYPE
  5
24
330
2
100
AcDbSymbolTableRecord
100
AcDbLinetypeTableRecord
  2
ByBlock
 70
0
  3

 72
65
 73
0
 40
0.0
  0
LTYPE
  5
25
330
2
100
AcDbSymbolTableRecord
100
AcDbLinetypeTableRecord
  2
ByLayer
 70
0
  3

 72
65
 73
0
 40
0.0
  0
LTYPE
  5
26
330
2
100
AcDbSymbolTableRecord
100
AcDbLinetypeTableRecord
  2
Continuous
 70
0
  3

 72
65
 73
0
 40
0.0
  0
ENDTAB
  0
TABLE
  2
LAYER
  5
1
330
0
100
AcDbSymbolTable
 70
3
  0
LAYER
  5
27
330
1
100
AcDbSymbolTableRecord
100
AcDbLayerTableRecord
  2
0
 70
0
 62
7
  6
Continuous
370
-3
390
13
347
21
  0
LAYER
  5
28
330
1
100
AcDbSymbolTableRecord
100
AcDbLayerTableRecord
  2
Defpoints
 70
0
 62
7
  6
Continuous
290
0
370
-3
390
13
347
21
  0
LAYER
  5
2F
330
1
100
AcDbSymbolTableRecord
100
AcDbLayerTableRecord
  2
visible
 70
0
 62
7
  6
Continuous
370
-3
390
13
347
21
  0
ENDTAB
  0
TABLE
  2
STYLE
  5
5
330
0
100
AcDbSymbolTable
 70
1
  0
STYLE
  5
29
330
5
100
AcDbSymbolTableRecord
100
AcDbTextStyleTableRecord
  2
Standard
 70
0
 40
0.0
 41
1.0
 50
0.0
 71
0
 42
2.5
  3
txt
  4

  0
ENDTAB
  0
TABLE
  2
VIEW
  5
7
330
0
100
AcDbSymbolTable
 70
0
  0
ENDTAB
  0
TABLE
  2
UCS
  5
6
330
0
100
AcDbSymbolTable
 70
0
  0
ENDTAB
  0
TABLE
  2
APPID
  5
3
330
0
100
AcDbSymbolTable
 70
3
  0
APPID
  5
2A
330
3
100
AcDbSymbolTableRecord
100
AcDbRegAppTableRecord
  2
ACAD
 70
0
  0
APPID
  5
187
330
3
100
AcDbSymbolTableRecord
100
AcDbRegAppTableRecord
  2
HATCHBACKGROUNDCOLOR
 70
0
  0
APPID
  5
188
330
3
100
AcDbSymbolTableRecord
100
AcDbRegAppTableRecord
  2
EZDXF
 70
0
  0
ENDTAB
  0
TABLE
  2
DIMSTYLE
  5
4
330
0
100
AcDbSymbolTable
 70
1
100
AcDbDimStyleTable
  0
DIMSTYLE
105
2B
330
4
100
AcDbSymbolTableRecord
100
AcDbDimStyleTableRecord
  2
Standard
 70
0
 40
1.0
 41
2.5
 42
0.625
 43
3.75
 44
1.25
 45
0.0
 46
0.0
 47
0.0
 48
0.0
 49
2.5
140
2.5
141
2.5
142
0.0
143
0.03937007874
144
1.0
145
0.0
146
1.0
147
0.625
148
0.0
 69
0
 70
0
 71
0
 72
0
 73
0
 74
0
 75
0
 76
0
 77
1
 78
8
 79
3
170
0
171
3
172
1
173
0
174
0
175
0
176
0
177
0
178
0
179
2
271
2
272
2
273
2
274
3
275
0
276
0
277
2
278
44
279
0
280
0
281
0
282
0
283
0
284
8
285
0
286
0
288
0
289
3
290
0
371
-2
372
-2
  0
ENDTAB
  0
TABLE
  2
BLOCK_RECORD
  5
9
330
0
100
AcDbSymbolTable
 70
2
  0
BLOCK_RECORD
  5
17
330
9
100
AcDbSymbolTableRecord
100
AcDbBlockTableRecord
  2
*Model_Space
340
1A
 70
0
280
1
281
0
  0
BLOCK_RECORD
  5
1B
330
9
100
AcDbSymbolTableRecord
100
AcDbBlockTableRecord
  2
*Paper_Space
340
1E
 70
0
280
1
281
0
  0
ENDTAB
  0
ENDSEC
  0
SECTION
  2
BLOCKS
  0
BLOCK
  5
18
330
17
100
AcDbEntity
  8
0
100
AcDbBlockBegin
  2
*Model_Space
 70
0
 10
0.0
 20
0.0
 30
0.0
  3
*Model_Space
  1

  0
ENDBLK
  5
19
330
17
100
AcDbEntity
  8
0
100
AcDbBlockEnd
  0
BLOCK
  5
1C
330
1B
100
AcDbEntity
  8
0
100
AcDbBlockBegin
  2
*Paper_Space
 70
0
 10
0.0
 20
0.0
 30
0.0
  3
*Paper_Space
  1

  0
ENDBLK
  5
1D
330
1B
100
AcDbEntity
  8
0
100
AcDbBlockEnd
  0
ENDSEC
  0
SECTION
  2
ENTITIES
  0
ELLIPSE
  5
30
330
17
100
AcDbEntity
  8
visible
100
AcDbEllipse
 10
0.0
 20
-5.953704193505133
 30
0.0
 11
4.25
 21
0.0
 31
0.0
 40
0.30424861174811146
 41
5.677640643574616
 42
6.283185307179586
  0
ELLIPSE
  5
31
330
17
100
AcDbEntity
  8
visible
100
AcDbEllipse
 10
0.0
 20
-5.953704193505133
 30
0.0
 11
4.25
 21
0.0
 31
0.0
 40
0.30424861174811146
 41
0.0
 42
0.9541713137229771
  0
ELLIPSE
  5
32
330
17
100
AcDbEntity
  8
visible
100
AcDbEllipse
 10
0.0
 20
-5.953704193505133
 30
0.0
 11
4.25
 21
0.0
 31
0.0
 40
0.30424861174811146
 41
2.1407855164566922
 42
3.141592653589793
  0
ELLIPSE
  5
33
330
17
100
AcDbEntity
  8
visible
100
AcDbEllipse
 10
0.0
 20
-5.953704193505133
 30
0.0
 11
4.25
 21
0.0
 31
0.0
 40
0.30424861174811146
 41
3.141592653589793
 42
5.677640643574616
  0
ELLIPSE
  5
34
330
17
100
AcDbEntity
  8
visible
100
AcDbEllipse
 10
0.0
 20
-9.287778515195413
 30
0.0
 11
4.25
 21
0.0
 31
0.0
 40
0.30424861174811146
 41
5.677640643574616
 42
6.283185307179586
  0
ELLIPSE
  5
35
330
17
100
AcDbEntity
  8
visible
100
AcDbEllipse
 10
0.0
 20
-9.287778515195413
 30
0.0
 11
4.25
 21
0.0
 31
0.0
 40
0.30424861174811146
 41
3.141592653589793
 42
5.677640643574616
  0
ELLIPSE
  5
36
330
17
100
AcDbEntity
  8
visible
100
AcDbEllipse
 10
0.0
 20
-5.953704193505133
 30
0.0
 11
2.02
 21
0.0
 31
0.0
 40
0.30424861174811146
 41
5.677640643574616
 42
6.15883516644505
  0
ELLIPSE
  5
37
330
17
100
AcDbEntity
  8
visible
100
AcDbEllipse
 10
0.0
 20
-5.953704193505133
 30
0.0
 11
2.02
 21
0.0
 31
0.0
 40
0.30424861174811146
 41
0.7665613796242231
 42
2.603631312312709
  0
ELLIPSE
  5
38
330
17
100
AcDbEntity
  8
visible
100
AcDbEllipse
 10
0.0
 20
-5.953704193505133
 30
0.0
 11
2.02
 21
0.0
 31
0.0
 40
0.30424861174811146
 41
3.141592653589793
 42
5.677640643574616
  0
SPLINE
  5
39
330
17
100
AcDbEntity
  8
visible
100
AcDbSpline
 70
0
 71
3
 72
8
 73
4
 74
0
 40
0.0
 40
0.0
 40
0.0
 40
0.0
 40
1.0
 40
1.0
 40
1.0
 40
1.0
 10
1.7332675077652138
 20
-5.389134913688611
 30
0.0
 10
1.5637148653384465
 20
-5.282898769788846
 30
0.0
 10
1.3230869305087667
 20
-5.189751212140042
 30
0.0
 10
1.0391832943885406
 20
-5.118186439842287
 30
0.0
  0
SPLINE
  5
3A
330
17
100
AcDbEntity
  8
visible
100
AcDbSpline
 70
0
 71
3
 72
8
 73
4
 74
0
 40
0.0
 40
0.0
 40
0.0
 40
0.0
 40
1.0
 40
1.0
 40
1.0
 40
1.0
 10
-1.676781481211804
 20
-5.118186331155931
 30
0.0
 10
-1.8996067310585132
 20
-5.194809396634704
 30
0.0
 10
-2.0206864469509473
 20
-5.291787742881445
 30
0.0
 10
-2.019986379451946
 20
-5.389119565473918
 30
0.0
  0
SPLINE
  5
3B
330
17
100
AcDbEntity
  8
visible
100
AcDbSpline
 70
0
 71
2
 72
6
 73
3
 74
0
 40
0.0
 40
0.0
 40
0.0
 40
1.0
 40
1.0
 40
1.0
 10
-1.9585679213241427
 20
-5.509561686547502
 30
0.0
 10
-1.9057923577459541
 20
-5.560209195244656
 30
0.0
 10
-1.8103072870060757
 20
-5.606059482060697
 30
0.0
  0
SPLINE
  5
3C
330
17
100
AcDbEntity
  8
visible
100
AcDbSpline
 70
0
 71
3
 72
14
 73
10
 74
0
 40
0.0
 40
0.0
 40
0.0
 40
0.0
 40
0.18149005123789386
 40
0.18149005123789386
 40
0.18149005123789386
 40
0.5960464303103915
 40
0.5960464303103915
 40
0.5960464303103915
 40
1.0
 40
1.0
 40
1.0
 40
1.0
 10
-1.8103072870060755
 20
-5.606059482060697
 30
0.0
 10
-1.6997860460297396
 20
-5.658969536386178
 30
0.0
 10
-1.5534882744917728
 20
-5.703743464794432
 30
0.0
 10
-1.3714139723921754
 20
-5.740381267285464
 30
0.0
 10
-0.960578393491105
 20
-5.823401301986725
 30
0.0
 10
-0.38407566144639554
 20
-5.849696749567446
 30
0.0
 10
0.17563007758142546
 20
-5.8003238123767
 30
0.0
 10
0.7213543153751749
 20
-5.753756402677038
 30
0.0
 10
1.2423806483341957
 20
-5.635753358694198
 30
0.0
 10
1.5812891286041226
 20
-5.47198599169554
 30
0.0
  0
SPLINE
  5
3D
330
17
100
AcDbEntity
  8
visible
100
AcDbSpline
 70
0
 71
1
 72
4
 73
2
 74
0
 40
0.0
 40
0.0
 40
1.0
 40
1.0
 10
1.5812891286041226
 20
-5.47198599169554
 30
0.0
 10
1.6608282271204324
 20
-5.4313713800748555
 30
0.0
  0
LINE
  5
3E
330
17
100
AcDbEntity
  8
visible
100
AcDbLine
 10
1.6608282271204324
 20
-6.303530512126765
 30
0.0
 11
1.6608282271204324
 21
-6.193453137696337
 31
0.0
  0
LINE
  5
3F
330
17
100
AcDbEntity
  8
visible
100
AcDbLine
 10
1.6608282271204324
 20
-6.193453137696337
 30
0.0
 11
1.6608282271204324
 21
-5.651533755885127
 31
0.0
  0
LINE
  5
40
330
17
100
AcDbEntity
  8
visible
100
AcDbLine
 10
1.6608282271204324
 20
-5.651533755885127
 30
0.0
 11
1.6608282271204324
 21
-5.431371380074856
 31
0.0
  0
SPLINE
  5
41
330
17
100
AcDbEntity
  8
visible
100
AcDbSpline
 70
0
 71
2
 72
6
 73
3
 74
0
 40
0.0
 40
0.0
 40
0.0
 40
0.01407981717373274
 40
0.01407981717373274
 40
0.01407981717373274
 10
1.660828227120433
 20
-5.431371380074857
 30
0.0
 10
1.7116863177413681
 20
-5.403656474808568
 30
0.0
 10
1.75587548458654
 20
-5.374652269511602
 30
0.0
  0
SPLINE
  5
42
330
17
100
AcDbEntity
  8
visible
100
AcDbSpline
 70
0
 71
3
 72
8
 73
4
 74
0
 40
0.0
 40
0.0
 40
0.0
 40
0.0
 40
1.0
 40
1.0
 40
1.0
 40
1.0
 10
0.45256289842695674
 20
-4.246031836445815
 30
0.0
 10
-0.11362238826630071
 20
-4.170619971386775
 30
0.0
 10
-0.7335803151112704
 20
-4.175025621516907
 30
0.0
 10
-1.1998528673509246
 20
-4.246035001814452
 30
0.0
  0
SPLINE
  5
43
330
17
100
AcDbEntity
  8
visible
100
AcDbSpline
 70
0
 71
3
 72
14
 73
10
 74
0
 40
0.0
 40
0.0
 40
0.0
 40
0.0
 40
0.23241197899027657
 40
0.23241197899027657
 40
0.23241197899027657
 40
0.6334410297075093
 40
0.6334410297075093
 40
0.6334410297075093
 40
1.0
 40
1.0
 40
1.0
 40
1.0
 10
-1.810341587614098
 20
-4.843973671762715
 30
0.0
 10
-1.671020911246116
 20
-4.910925684380024
 30
0.0
 10
-1.46418990447434
 20
-4.967721566256685
 30
0.0
 10
-1.212333938674188
 20
-5.00620869928787
 30
0.0
 10
-0.7788600486677415
 20
-5.073460452626101
 30
0.0
 10
-0.20962332410943504
 20
-5.083378307632698
 30
0.0
 10
0.3265208427029648
 20
-5.023361006137728
 30
0.0
 10
0.8169932605318614
 20
-4.969644870781992
 30
0.0
 10
1.2735202276262183
 20
-4.858321097974943
 30
0.0
 10
1.5812938619381602
 20
-4.709914810137312
 30
0.0
  0
SPLINE
  5
44
330
17
100
AcDbEntity
  8
visible
100
AcDbSpline
 70
0
 71
3
 72
8
 73
4
 74
0
 40
0.0
 40
0.0
 40
0.0
 40
0.0
 40
1.0
 40
1.0
 40
1.0
 40
1.0
 10
1.7332704424100611
 20
-3.864990832830949
 30
0.0
 10
1.563661917387639
 20
-3.758704527834923
 30
0.0
 10
1.3229361403915716
 20
-3.665551608577248
 30
0.0
 10
1.0392009242065257
 20
-3.5940388723999748
 30
0.0
  0
SPLINE
  5
45
330
17
100
AcDbEntity
  8
visible
100
AcDbSpline
 70
0
 71
3
 72
8
 73
4
 74
0
 40
0.0
 40
0.0
 40
0.0
 40
0.0
 40
1.0
 40
1.0
 40
1.0
 40
1.0
 10
-1.6767978256238467
 20
-3.5940328604667267
 30
0.0
 10
-1.8996486160547654
 20
-3.670661619395607
 30
0.0
 10
-2.0206902230214645
 20
-3.7676681979507207
 30
0.0
 10
-2.0200000001527076
 20
-3.864994788078534
 30
0.0
  0
SPLINE
  5
46
330
17
100
AcDbEntity
  8
visible
100
AcDbSpline
 70
0
 71
2
 72
6
 73
3
 74
0
 40
0.0
 40
0.0
 40
0.0
 40
1.0
 40
1.0
 40
1.0
 10
-2.020000000152708
 20
-3.8649947880785342
 30
0.0
 10
-2.0185112964516914
 20
-3.980824256793518
 30
0.0
 10
-1.8103433650184941
 20
-4.081896377643176
 30
0.0
  0
SPLINE
  5
47
330
17
100
AcDbEntity
  8
visible
100
AcDbSpline
 70
0
 71
3
 72
14
 73
10
 74
0
 40
0.0
 40
0.0
 40
0.0
 40
0.0
 40
0.1904929318905229
 40
0.1904929318905229
 40
0.1904929318905229
 40
0.6060800204909844
 40
0.6060800204909844
 40
0.6060800204909844
 40
1.0
 40
1.0
 40
1.0
 40
1.0
 10
-1.8103433650184946
 20
-4.081896377643176
 30
0.0
 10
-1.6941723087824292
 20
-4.13748544009691
 30
0.0
 10
-1.5388809575376416
 20
-4.1840160834972115
 30
0.0
 10
-1.3444693112841284
 20
-4.221488307844077
 30
0.0
 10
-0.9258151933064819
 20
-4.302440510400512
 30
0.0
 10
-0.3437842811177715
 20
-4.325498594668456
 30
0.0
 10
0.21628994700393767
 20
-4.272518488480614
 30
0.0
 10
0.7474633630022322
 20
-4.223771909712798
 30
0.0
 10
1.2508481598647532
 20
-4.107416711743255
 30
0.0
 10
1.581332870303794
 20
-3.9478145896398784
 30
0.0
  0
SPLINE
  5
48
330
17
100
AcDbEntity
  8
visible
100
AcDbSpline
 70
0
 71
1
 72
4
 73
2
 74
0
 40
0.0
 40
0.0
 40
1.0
 40
1.0
 10
1.581332870303794
 20
-3.9478145896398784
 30
0.0
 10
1.6608282271204322
 20
-3.9072235587761996
 30
0.0
  0
SPLINE
  5
49
330
17
100
AcDbEntity
  8
visible
100
AcDbSpline
 70
0
 71
3
 72
8
 73
4
 74
0
 40
0.0
 40
0.0
 40
0.0
 40
0.0
 40
0.09639499508168171
 40
0.09639499508168171
 40
0.09639499508168171
 40
0.09639499508168171
 10
1.6608282271204322
 20
-3.9072235587762
 30
0.0
 10
1.8936075334264175
 20
-3.780880996307264
 30
0.0
 10
2.0208104299812324
 20
-3.6325352321633058
 30
0.0
 10
2.0199999985147645
 20
-3.483963593999241
 30
0.0
  0
SPLINE
  5
4A
330
17
100
AcDbEntity
  8
visible
100
AcDbSpline
 70
0
 71
2
 72
6
 73
3
 74
0
 40
0.0
 40
0.0
 40
0.0
 40
1.0
 40
1.0
 40
1.0
 10
2.0199999985147645
 20
-3.48396359399924
 30
0.0
 10
2.0193247892950237
 20
-3.3444151535966196
 30
0.0
 10
1.8792249635605396
 20
-3.21299990595428
 30
0.0
  0
SPLINE
  5
4B
330
17
100
AcDbEntity
  8
visible
100
AcDbSpline
 70
0
 71
3
 72
8
 73
4
 74
0
 40
0.0
 40
0.0
 40
0.0
 40
0.0
 40
1.0
 40
1.0
 40
1.0
 40
1.0
 10
0.4525147968855514
 20
-2.7218836917896723
 30
0.0
 10
-0.1134729530848594
 20
-2.6465000256112536
 30
0.0
 10
-0.7338111682330828
 20
-2.650852225241966
 30
0.0
 10
-1.1998688314842454
 20
-2.721885728620561
 30
0.0
  0
SPLINE
  5
4C
330
17
100
AcDbEntity
  8
visible
100
AcDbSpline
 70
0
 71
3
 72
11
 73
7
 74
0
 40
0.0
 40
0.0
 40
0.0
 40
0.0
 40
0.4279653837481026
 40
0.4279653837481026
 40
0.4279653837481026
 40
1.0
 40
1.0
 40
1.0
 40
1.0
 10
-1.8103760693737911
 20
-3.3198059887632283
 30
0.0
 10
-1.5556111396681387
 20
-3.4436814620456353
 30
0.0
 10
-1.064723310578685
 20
-3.5299643628572843
 30
0.0
 10
-0.5018044125117959
 20
-3.5381702870494776
 30
0.0
 10
0.2509490804116263
 20
-3.5532322299738475
 30
0.0
 10
1.1034360174480575
 20
-3.4196321180566533
 30
0.0
 10
1.5813180150136843
 20
-3.185761449846352
 30
0.0
  0
SPLINE
  5
4D
330
17
100
AcDbEntity
  8
visible
100
AcDbSpline
 70
0
 71
3
 72
8
 73
4
 74
0
 40
0.0
 40
0.0
 40
0.0
 40
0.0
 40
1.0
 40
1.0
 40
1.0
 40
1.0
 10
1.7332787954096434
 20
-2.3408450238703606
 30
0.0
 10
1.5636282088435363
 20
-2.2345460248853377
 30
0.0
 10
1.3229764959890606
 20
-2.141437153286603
 30
0.0
 10
1.0391971273216583
 20
-2.0698933111969438
 30
0.0
  0
SPLINE
  5
4E
330
17
100
AcDbEntity
  8
visible
100
AcDbSpline
 70
0
 71
3
 72
8
 73
4
 74
0
 40
0.0
 40
0.0
 40
0.0
 40
0.0
 40
1.0
 40
1.0
 40
1.0
 40
1.0
 10
-1.6767669208715925
 20
-2.069880977231585
 30
0.0
 10
-1.8995161609803302
 20
-2.1464518359550735
 30
0.0
 10
-2.020718864334149
 20
-2.243514352001478
 30
0.0
 10
-2.019999968016164
 20
-2.3408381826170777
 30
0.0
  0
SPLINE
  5
4F
330
17
100
AcDbEntity
  8
visible
100
AcDbSpline
 70
0
 71
2
 72
6
 73
3
 74
0
 40
0.0
 40
0.0
 40
0.0
 40
1.0
 40
1.0
 40
1.0
 10
-2.019999968016164
 20
-2.3408381826170777
 30
0.0
 10
-2.0198833817813595
 20
-2.4021978081021076
 30
0.0
 10
-1.9585625075473225
 20
-2.4612773323173904
 30
0.0
  0
SPLINE
  5
50
330
17
100
AcDbEntity
  8
visible
100
AcDbSpline
 70
0
 71
3
 72
14
 73
10
 74
0
 40
0.0
 40
0.0
 40
0.0
 40
0.0
 40
0.17381173051014687
 40
0.17381173051014687
 40
0.17381173051014687
 40
0.5862173800922302
 40
0.5862173800922302
 40
0.5862173800922302
 40
1.0
 40
1.0
 40
1.0
 40
1.0
 10
-1.8102840166519696
 20
-2.557785539767529
 30
0.0
 10
-1.7045121971388948
 20
-2.6084288045162314
 30
0.0
 10
-1.5657670437163842
 20
-2.651662065965713
 30
0.0
 10
-1.394048556384436
 20
-2.6874853241159657
 30
0.0
 10
-0.9912168453102517
 20
-2.7719495538033825
 30
0.0
 10
-0.4218189887300044
 20
-2.801137910791039
 30
0.0
 10
0.13594782244417386
 20
-2.7553506188450316
 30
0.0
 10
0.696050716411176
 20
-2.7110193624093126
 30
0.0
 10
1.234193783525467
 20
-2.59145744149828
 30
0.0
 10
1.5813105822514628
 20
-2.4236806453483837
 30
0.0
  0
SPLINE
  5
51
330
17
100
AcDbEntity
  8
visible
100
AcDbSpline
 70
0
 71
1
 72
4
 73
2
 74
0
 40
0.0
 40
0.0
 40
1.0
 40
1.0
 10
1.5813105822514628
 20
-2.4236806453483837
 30
0.0
 10
1.6608282271204318
 20
-2.3830837877560693
 30
0.0
  0
SPLINE
  5
52
330
17
100
AcDbEntity
  8
visible
100
AcDbSpline
 70
0
 71
3
 72
8
 73
4
 74
0
 40
0.0
 40
0.0
 40
0.0
 40
0.0
 40
0.09642138081074918
 40
0.09642138081074918
 40
0.09642138081074918
 40
0.09642138081074918
 10
1.6608282271204315
 20
-2.3830837877560698
 30
0.0
 10
1.8936333012362359
 20
-2.2567191163202502
 30
0.0
 10
2.0207896801897585
 20
-2.1084041668451294
 30
0.0
 10
2.0199999896942353
 20
-1.959811431985495
 30
0.0
  0
SPLINE
  5
53
330
17
100
AcDbEntity
  8
visible
100
AcDbSpline
 70
0
 71
2
 72
6
 73
3
 74
0
 40
0.0
 40
0.0
 40
0.0
 40
1.0
 40
1.0
 40
1.0
 10
2.0199999896942353
 20
-1.9598114319854945
 30
0.0
 10
2.0193703317544873
 20
-1.8203468484872274
 30
0.0
 10
1.879222251936175
 20
-1.6888503992779618
 30
0.0
  0
SPLINE
  5
54
330
17
100
AcDbEntity
  8
visible
100
AcDbSpline
 70
0
 71
3
 72
8
 73
4
 74
0
 40
0.0
 40
0.0
 40
0.0
 40
0.0
 40
1.0
 40
1.0
 40
1.0
 40
1.0
 10
0.45257863860960207
 20
-1.1977340892817334
 30
0.0
 10
-0.11361619656227896
 20
-1.122343489638096
 30
0.0
 10
-0.7332859423498966
 20
-1.1267013599356894
 30
0.0
 10
-1.199850201247406
 20
-1.1977389062824428
 30
0.0
  0
SPLINE
  5
55
330
17
100
AcDbEntity
  8
visible
100
AcDbSpline
 70
0
 71
3
 72
17
 73
13
 74
0
 40
0.0
 40
0.0
 40
0.0
 40
0.0
 40
0.07249545610166588
 40
0.07249545610166588
 40
0.07249545610166588
 40
0.38614821103035646
 40
0.38614821103035646
 40
0.38614821103035646
 40
0.6998009659590467
 40
0.6998009659590467
 40
0.6998009659590467
 40
1.0
 40
1.0
 40
1.0
 40
1.0
 10
-1.810327427956242
 20
-1.7956742483274923
 30
0.0
 10
-1.7667222248281131
 20
-1.8165803205286255
 30
0.0
 10
-1.7169778605320445
 20
-1.8363782296491666
 30
0.0
 10
-1.6610943350680414
 20
-1.8550679756891282
 30
0.0
 10
-1.420234603223715
 20
-1.9359992948725409
 30
0.0
 10
-1.0651399645580248
 20
-1.9926213422042263
 30
0.0
 10
-0.6637273602932217
 20
-2.0093117922007506
 30
0.0
 10
-0.26296347776951035
 20
-2.0265695333169296
 30
0.0
 10
0.18304371271231537
 20
-2.0037079180671444
 30
0.0
 10
0.5890459475485693
 20
-1.9402506960759212
 30
0.0
 10
0.9779697825294879
 20
-1.8800162979850286
 30
0.0
 10
1.3290645287255922
 20
-1.7829392895742862
 30
0.0
 10
1.5813109871219713
 20
-1.6616259048031776
 30
0.0
  0
SPLINE
  5
56
330
17
100
AcDbEntity
  8
visible
100
AcDbSpline
 70
0
 71
1
 72
4
 73
2
 74
0
 40
0.0
 40
0.0
 40
1.0
 40
1.0
 10
1.7332681451123126
 20
-0.8166987819517979
 30
0.0
 10
1.7268739975623162
 20
-0.8127271969545515
 30
0.0
  0
SPLINE
  5
57
330
17
100
AcDbEntity
  8
visible
100
AcDbSpline
 70
0
 71
3
 72
8
 73
4
 74
0
 40
0.0
 40
0.0
 40
0.0
 40
0.0
 40
1.0
 40
1.0
 40
1.0
 40
1.0
 10
-1.6767973930118356
 20
-0.5457329736623024
 30
0.0
 10
-1.8996045428483943
 20
-0.6223429781492477
 30
0.0
 10
-2.020719951765887
 20
-0.719391059780309
 30
0.0
 10
-2.0199954216601586
 20
-0.8167041084102132
 30
0.0
  0
SPLINE
  5
58
330
17
100
AcDbEntity
  8
visible
100
AcDbSpline
 70
0
 71
2
 72
6
 73
3
 74
0
 40
0.0
 40
0.0
 40
0.0
 40
1.0
 40
1.0
 40
1.0
 10
-1.9585840780037387
 20
-0.9371127158198223
 30
0.0
 10
-1.905813398334751
 20
-0.9877577478164723
 30
0.0
 10
-1.8103254061314393
 20
-1.0336109482777405
 30
0.0
  0
SPLINE
  5
59
330
17
100
AcDbEntity
  8
visible
100
AcDbSpline
 70
0
 71
3
 72
11
 73
7
 74
0
 40
0.0
 40
0.0
 40
0.0
 40
0.0
 40
0.5269864636272344
 40
0.5269864636272344
 40
0.5269864636272344
 40
1.0
 40
1.0
 40
1.0
 40
1.0
 10
-1.8103254061314393
 20
-1.0336109482777405
 30
0.0
 10
-1.498476467890445
 20
-1.1870661093034627
 30
0.0
 10
-0.8202485554308113
 20
-1.2798350057801255
 30
0.0
 10
-0.10426589067217867
 20
-1.2462109453386734
 30
0.0
 10
0.5367545042601858
 20
-1.2192101138479465
 30
0.0
 10
1.185193874328751
 20
-1.0917700098361856
 30
0.0
 10
1.5813533760120646
 20
-0.899508857820826
 30
0.0
  0
SPLINE
  5
5A
330
17
100
AcDbEntity
  8
visible
100
AcDbSpline
 70
0
 71
1
 72
4
 73
2
 74
0
 40
0.0
 40
0.0
 40
1.0
 40
1.0
 10
1.5813533760120646
 20
-0.8995088578208259
 30
0.0
 10
1.660828227120434
 20
-0.8589293672130065
 30
0.0
  0
SPLINE
  5
5B
330
17
100
AcDbEntity
  8
visible
100
AcDbSpline
 70
0
 71
3
 72
8
 73
4
 74
0
 40
0.0
 40
0.0
 40
0.0
 40
0.0
 40
0.09641124002496815
 40
0.09641124002496815
 40
0.09641124002496815
 40
0.09641124002496815
 10
1.6608282271204338
 20
-0.8589293672130047
 30
0.0
 10
1.8936302391078554
 20
-0.7325676112477075
 30
0.0
 10
2.020800631241615
 20
-0.5842723218792294
 30
0.0
 10
2.019999002462779
 20
-0.43567675134789485
 30
0.0
  0
SPLINE
  5
5C
330
17
100
AcDbEntity
  8
visible
100
AcDbSpline
 70
0
 71
2
 72
6
 73
3
 74
0
 40
0.0
 40
0.0
 40
0.0
 40
1.0
 40
1.0
 40
1.0
 10
2.019999002462779
 20
-0.43567675134789485
 30
0.0
 10
2.019363918793175
 20
-0.29617143496449105
 30
0.0
 10
1.8792185199469509
 20
-0.16470417347217098
 30
0.0
  0
SPLINE
  5
5D
330
17
100
AcDbEntity
  8
visible
100
AcDbSpline
 70
0
 71
3
 72
8
 73
4
 74
0
 40
0.0
 40
0.0
 40
0.0
 40
0.0
 40
1.0
 40
1.0
 40
1.0
 40
1.0
 10
0.4525407484175917
 20
0.32641886812601884
 30
0.0
 10
-0.11376275499160762
 20
0.4018057885267243
 30
0.0
 10
-0.7334905321864771
 20
0.39742180248709774
 30
0.0
 10
-1.1998707295970041
 20
0.3264082350808749
 30
0.0
  0
SPLINE
  5
5E
330
17
100
AcDbEntity
  8
visible
100
AcDbSpline
 70
0
 71
3
 72
11
 73
7
 74
0
 40
0.0
 40
0.0
 40
0.0
 40
0.0
 40
0.45706883780431823
 40
0.45706883780431823
 40
0.45706883780431823
 40
1.0
 40
1.0
 40
1.0
 40
1.0
 10
-1.8103500946680873
 20
-0.27151548055589864
 30
0.0
 10
-1.5387726061901215
 20
-0.40404335189479934
 30
0.0
 10
-0.995230608661114
 20
-0.4929974592072542
 30
0.0
 10
-0.385327089025036
 20
-0.49068489601373155
 30
0.0
 10
0.338207888679629
 20
-0.49164726272976705
 30
0.0
 10
1.1275137690200923
 20
-0.3589208885357022
 30
0.0
 10
1.58132085871142
 20
-0.13745977482844912
 30
0.0
  0
SPLINE
  5
5F
330
17
100
AcDbEntity
  8
visible
100
AcDbSpline
 70
0
 71
2
 72
6
 73
3
 74
0
 40
0.0
 40
0.0
 40
0.0
 40
1.0
 40
1.0
 40
1.0
 10
1.7559210785640693
 20
-0.04012023202854348
 30
0.0
 10
2.0176941832007866
 20
0.13274206782779535
 30
0.0
 10
2.0200000005285608
 20
0.3264138608259359
 30
0.0
  0
SPLINE
  5
60
330
17
100
AcDbEntity
  8
visible
100
AcDbSpline
 70
0
 71
2
 72
6
 73
3
 74
0
 40
0.0
 40
0.0
 40
0.0
 40
1.0
 40
1.0
 40
1.0
 10
2.0200000005285608
 20
0.32641386082593593
 30
0.0
 10
2.0193545223422356
 20
0.4658929226138807
 30
0.0
 10
1.8792296587614512
 20
0.597374609974493
 30
0.0
  0
SPLINE
  5
61
330
17
100
AcDbEntity
  8
visible
100
AcDbSpline
 70
0
 71
3
 72
8
 73
4
 74
0
 40
0.0
 40
0.0
 40
0.0
 40
0.0
 40
1.0
 40
1.0
 40
1.0
 40
1.0
 10
0.45254933032805855
 20
1.0884836578381947
 30
0.0
 10
-0.11333129173179339
 20
1.1638188065674655
 30
0.0
 10
-0.7334035275099692
 20
1.1595230783845758
 30
0.0
 10
-1.1998787661454196
 20
1.0884883595006039
 30
0.0
  0
SPLINE
  5
62
330
17
100
AcDbEntity
  8
visible
100
AcDbSpline
 70
0
 71
3
 72
8
 73
4
 74
0
 40
0.0
 40
0.0
 40
0.0
 40
0.0
 40
1.0
 40
1.0
 40
1.0
 40
1.0
 10
-1.6768009553904417
 20
0.9784120417131931
 30
0.0
 10
-1.89953835930509
 20
0.9018492310775537
 30
0.0
 10
-2.020752663456087
 20
0.8047031162678341
 30
0.0
 10
-2.0199999912036173
 20
0.7074468811280461
 30
0.0
  0
SPLINE
  5
63
330
17
100
AcDbEntity
  8
visible
100
AcDbSpline
 70
0
 71
2
 72
6
 73
3
 74
0
 40
0.0
 40
0.0
 40
0.0
 40
1.0
 40
1.0
 40
1.0
 10
-2.019999991203617
 20
0.7074468811280462
 30
0.0
 10
-2.0198784859316086
 20
0.6460896013347164
 30
0.0
 10
-1.958581337047499
 20
0.5870354332569625
 30
0.0
  0
SPLINE
  5
64
330
17
100
AcDbEntity
  8
visible
100
AcDbSpline
 70
0
 71
3
 72
11
 73
7
 74
0
 40
0.0
 40
0.0
 40
0.0
 40
0.0
 40
0.490870572354633
 40
0.490870572354633
 40
0.490870572354633
 40
1.0
 40
1.0
 40
1.0
 40
1.0
 10
-1.8103227602482177
 20
0.49053965837736074
 30
0.0
 10
-1.5192682067322616
 20
0.348007213526696
 30
0.0
 10
-0.9131010221319078
 20
0.25680544676893885
 30
0.0
 10
-0.25129872267138076
 20
0.27303141172547485
 30
0.0
 10
0.43487613693201305
 20
0.2864793241446071
 30
0.0
 10
1.155201542225477
 20
0.41723485577736313
 30
0.0
 10
1.581335739467837
 20
0.6246237492006362
 30
0.0
  0
SPLINE
  5
65
330
17
100
AcDbEntity
  8
visible
100
AcDbSpline
 70
0
 71
1
 72
4
 73
2
 74
0
 40
0.0
 40
0.0
 40
1.0
 40
1.0
 10
1.581335739467837
 20
0.6246237492006363
 30
0.0
 10
1.6608282271204335
 20
0.6652126069207167
 30
0.0
  0
SPLINE
  5
66
330
17
100
AcDbEntity
  8
visible
100
AcDbSpline
 70
0
 71
3
 72
8
 73
4
 74
0
 40
0.0
 40
0.0
 40
0.0
 40
0.0
 40
0.09641624729619978
 40
0.09641624729619978
 40
0.09641624729619978
 40
0.09641624729619978
 10
1.6608282271204335
 20
0.6652126069207167
 30
0.0
 10
1.8936695795517977
 20
0.7916001088011537
 30
0.0
 10
2.020776546377055
 20
0.9398850943677561
 30
0.0
 10
2.019999994991893
 20
1.0884826581771803
 30
0.0
  0
SPLINE
  5
67
330
17
100
AcDbEntity
  8
visible
100
AcDbSpline
 70
0
 71
2
 72
6
 73
3
 74
0
 40
0.0
 40
0.0
 40
0.0
 40
1.0
 40
1.0
 40
1.0
 10
2.019999994991893
 20
1.0884826581771803
 30
0.0
 10
2.0193438671567767
 20
1.2279984403134243
 30
0.0
 10
1.8792242081980377
 20
1.3594476317190072
 30
0.0
  0
SPLINE
  5
68
330
17
100
AcDbEntity
  8
visible
100
AcDbSpline
 70
0
 71
1
 72
4
 73
2
 74
0
 40
0.0
 40
0.0
 40
1.0
 40
1.0
 10
1.7332697109216528
 20
1.4695213382443155
 30
0.0
 10
1.7268888947673158
 20
1.473484729119992
 30
0.0
  0
SPLINE
  5
69
330
17
100
AcDbEntity
  8
visible
100
AcDbSpline
 70
0
 71
3
 72
8
 73
4
 74
0
 40
0.0
 40
0.0
 40
0.0
 40
0.0
 40
1.0
 40
1.0
 40
1.0
 40
1.0
 10
0.4525520014912651
 20
1.8505660930428094
 30
0.0
 10
-0.11348896821723992
 20
1.9259778651935902
 30
0.0
 10
-0.7338936255169931
 20
1.9215474963674664
 30
0.0
 10
-1.1998371212507462
 20
1.8505426175991722
 30
0.0
  0
SPLINE
  5
6A
330
17
100
AcDbEntity
  8
visible
100
AcDbSpline
 70
0
 71
3
 72
11
 73
7
 74
0
 40
0.0
 40
0.0
 40
0.0
 40
0.0
 40
0.4784952957802834
 40
0.4784952957802834
 40
0.4784952957802834
 40
1.0
 40
1.0
 40
1.0
 40
1.0
 10
-1.8103239742837673
 20
1.252623635349025
 30
0.0
 10
-1.526312737526198
 20
1.1137306214730855
 30
0.0
 10
-0.9433970210076618
 20
1.0232745897751783
 30
0.0
 10
-0.300334854445633
 20
1.0341892023750536
 30
0.0
 10
0.399852541173363
 20
1.0425737419048824
 30
0.0
 10
1.1451180102847724
 20
1.1741744412128736
 30
0.0
 10
1.581291569215893
 20
1.3866730963315066
 30
0.0
  0
SPLINE
  5
6B
330
17
100
AcDbEntity
  8
visible
100
AcDbSpline
 70
0
 71
1
 72
4
 73
2
 74
0
 40
0.0
 40
0.0
 40
1.0
 40
1.0
 10
1.5812915692158933
 20
1.3866730963315064
 30
0.0
 10
1.660828227120434
 20
1.4272862137290154
 30
0.0
  0
SPLINE
  5
6C
330
17
100
AcDbEntity
  8
visible
100
AcDbSpline
 70
0
 71
2
 72
6
 73
3
 74
0
 40
0.0
 40
0.0
 40
0.0
 40
0.014077027046426502
 40
0.014077027046426502
 40
0.014077027046426502
 10
1.6608282271204335
 20
1.4272862137290154
 30
0.0
 10
1.7116764679796272
 20
1.4549936390435065
 30
0.0
 10
1.7558947353639047
 20
1.4840141075366002
 30
0.0
  0
SPLINE
  5
6D
330
17
100
AcDbEntity
  8
visible
100
AcDbSpline
 70
0
 71
2
 72
6
 73
3
 74
0
 40
0.0
 40
0.0
 40
0.0
 40
1.0
 40
1.0
 40
1.0
 10
2.0200000073040543
 20
1.8505686574115994
 30
0.0
 10
2.019370555720946
 20
1.9900333270242727
 30
0.0
 10
1.8792318667182977
 20
2.1215187334973877
 30
0.0
  0
SPLINE
  5
6E
330
17
100
AcDbEntity
  8
visible
100
AcDbSpline
 70
0
 71
3
 72
8
 73
4
 74
0
 40
0.0
 40
0.0
 40
0.0
 40
0.0
 40
1.0
 40
1.0
 40
1.0
 40
1.0
 10
0.4525455167888379
 20
2.612632246478204
 30
0.0
 10
-0.11362353991380883
 20
2.6880166364796865
 30
0.0
 10
-0.7334436766123621
 20
2.6836511193738546
 30
0.0
 10
-1.1998287235725156
 20
2.6126362569066703
 30
0.0
  0
SPLINE
  5
6F
330
17
100
AcDbEntity
  8
visible
100
AcDbSpline
 70
0
 71
3
 72
8
 73
4
 74
0
 40
0.0
 40
0.0
 40
0.0
 40
0.0
 40
1.0
 40
1.0
 40
1.0
 40
1.0
 10
-1.6768031176370437
 20
2.502561422526581
 30
0.0
 10
-1.8995548218969773
 20
2.425996658931663
 30
0.0
 10
-2.0207506469508023
 20
2.328868719283334
 30
0.0
 10
-2.0199980367907955
 20
2.231588492018675
 30
0.0
  0
SPLINE
  5
70
330
17
100
AcDbEntity
  8
visible
100
AcDbSpline
 70
0
 71
2
 72
6
 73
3
 74
0
 40
0.0
 40
0.0
 40
0.0
 40
1.0
 40
1.0
 40
1.0
 10
-2.0199980367907955
 20
2.231588492018675
 30
0.0
 10
-2.018514472044674
 20
2.115753584694863
 30
0.0
 10
-1.8103817574726226
 20
2.0147122275633227
 30
0.0
  0
SPLINE
  5
71
330
17
100
AcDbEntity
  8
visible
100
AcDbSpline
 70
0
 71
3
 72
14
 73
10
 74
0
 40
0.0
 40
0.0
 40
0.0
 40
0.0
 40
0.01574128984250915
 40
0.01574128984250915
 40
0.01574128984250915
 40
0.5815454059276647
 40
0.5815454059276647
 40
0.5815454059276647
 40
1.0
 40
1.0
 40
1.0
 40
1.0
 10
-1.8103817574726226
 20
2.0147122275633222
 30
0.0
 10
-1.8006354281478452
 20
2.0102313671565284
 30
0.0
 10
-1.7908890988230697
 20
2.0057505067497363
 30
0.0
 10
-1.7811427694982929
 20
2.0012696463429425
 30
0.0
 10
-1.425400956024196
 20
1.8392761692434942
 30
0.0
 10
-0.6517590046018336
 20
1.7533712640401768
 30
0.0
 10
0.11699873693382912
 20
1.8156023387616487
 30
0.0
 10
0.6835095190508441
 20
1.8587382168892113
 30
0.0
 10
1.2303932273852642
 20
1.9790431465265432
 30
0.0
 10
1.5813069596635285
 20
2.148756892196924
 30
0.0
  0
SPLINE
  5
72
330
17
100
AcDbEntity
  8
visible
100
AcDbSpline
 70
0
 71
1
 72
4
 73
2
 74
0
 40
0.0
 40
0.0
 40
1.0
 40
1.0
 10
1.5813069596635287
 20
2.148756892196925
 30
0.0
 10
1.6608282271204322
 20
2.1893616160060514
 30
0.0
  0
SPLINE
  5
73
330
17
100
AcDbEntity
  8
visible
100
AcDbSpline
 70
0
 71
2
 72
6
 73
3
 74
0
 40
0.0
 40
0.0
 40
0.0
 40
0.014072696080667395
 40
0.014072696080667395
 40
0.014072696080667395
 10
1.6608282271204322
 20
2.1893616160060514
 30
0.0
 10
1.7116984826612516
 20
2.2170808879200963
 30
0.0
 10
1.7559099341419733
 20
2.2460975962572762
 30
0.0
  0
SPLINE
  5
74
330
17
100
AcDbEntity
  8
visible
100
AcDbSpline
 70
0
 71
1
 72
4
 73
2
 74
0
 40
0.0
 40
0.0
 40
1.0
 40
1.0
 10
1.733262545490464
 20
2.99367366348639
 30
0.0
 10
1.7268898895445972
 20
2.9976321443799585
 30
0.0
  0
SPLINE
  5
75
330
17
100
AcDbEntity
  8
visible
100
AcDbSpline
 70
0
 71
3
 72
8
 73
4
 74
0
 40
0.0
 40
0.0
 40
0.0
 40
0.0
 40
1.0
 40
1.0
 40
1.0
 40
1.0
 10
0.4525397783935024
 20
3.3747158846540737
 30
0.0
 10
-0.11356111118095225
 20
3.450091081844274
 30
0.0
 10
-0.7337761535160652
 20
3.4457145361588157
 30
0.0
 10
-1.1998477819533662
 20
3.3747046216130103
 30
0.0
  0
SPLINE
  5
76
330
17
100
AcDbEntity
  8
visible
100
AcDbSpline
 70
0
 71
3
 72
11
 73
7
 74
0
 40
0.0
 40
0.0
 40
0.0
 40
0.0
 40
0.548981187867712
 40
0.548981187867712
 40
0.548981187867712
 40
1.0
 40
1.0
 40
1.0
 40
1.0
 10
-1.81036897216087
 20
2.7767968444658226
 30
0.0
 10
-1.4858948144827309
 20
2.616642833887647
 30
0.0
 10
-0.7623321370547842
 20
2.523410291015198
 30
0.0
 10
-0.015216947302264229
 20
2.5687014076447023
 30
0.0
 10
0.5967283361360087
 20
2.602847232961232
 30
0.0
 10
1.203355573124923
 20
2.7276491280718003
 30
0.0
 10
1.5812621377960552
 20
2.910811813601797
 30
0.0
  0
SPLINE
  5
77
330
17
100
AcDbEntity
  8
visible
100
AcDbSpline
 70
0
 71
1
 72
4
 73
2
 74
0
 40
0.0
 40
0.0
 40
1.0
 40
1.0
 10
1.5812621377960552
 20
2.9108118136017964
 30
0.0
 10
1.660828227120433
 20
2.9514407897092507
 30
0.0
  0
SPLINE
  5
78
330
17
100
AcDbEntity
  8
visible
100
AcDbSpline
 70
0
 71
3
 72
8
 73
4
 74
0
 40
0.0
 40
0.0
 40
0.0
 40
0.0
 40
0.09642120418532762
 40
0.09642120418532762
 40
0.09642120418532762
 40
0.09642120418532762
 10
1.6608282271204335
 20
2.9514407897092503
 30
0.0
 10
1.893673436879962
 20
3.07786073624951
 30
0.0
 10
2.020779900119139
 20
3.2261060453715062
 30
0.0
 10
2.020000032638698
 20
3.3747080340564253
 30
0.0
  0
SPLINE
  5
79
330
17
100
AcDbEntity
  8
visible
100
AcDbSpline
 70
0
 71
2
 72
6
 73
3
 74
0
 40
0.0
 40
0.0
 40
0.0
 40
1.0
 40
1.0
 40
1.0
 10
2.020000032638698
 20
3.3747080340564253
 30
0.0
 10
2.0193440744360514
 20
3.5142170826502483
 30
0.0
 10
1.8792321154003169
 20
3.6456619764960876
 30
0.0
  0
SPLINE
  5
7A
330
17
100
AcDbEntity
  8
visible
100
AcDbSpline
 70
0
 71
3
 72
8
 73
4
 74
0
 40
0.0
 40
0.0
 40
0.0
 40
0.0
 40
1.0
 40
1.0
 40
1.0
 40
1.0
 10
0.4525267578573877
 20
4.136778424791849
 30
0.0
 10
-0.11360316638216952
 20
4.2121795880872
 30
0.0
 10
-0.7338289774679997
 20
4.207775691052383
 30
0.0
 10
-1.1998943880695834
 20
4.136787400835903
 30
0.0
  0
SPLINE
  5
7B
330
17
100
AcDbEntity
  8
visible
100
AcDbSpline
 70
0
 71
2
 72
6
 73
3
 74
0
 40
0.0
 40
0.0
 40
0.0
 40
1.0
 40
1.0
 40
1.0
 10
-2.0199966184034954
 20
3.755746297238243
 30
0.0
 10
-2.0185684236280315
 20
3.639956466494582
 30
0.0
 10
-1.8103336010791584
 20
3.538839967603038
 30
0.0
  0
SPLINE
  5
7C
330
17
100
AcDbEntity
  8
visible
100
AcDbSpline
 70
0
 71
3
 72
11
 73
7
 74
0
 40
0.0
 40
0.0
 40
0.0
 40
0.0
 40
0.44566203915919067
 40
0.44566203915919067
 40
0.44566203915919067
 40
1.0
 40
1.0
 40
1.0
 40
1.0
 10
-1.8103336010791584
 20
3.538839967603038
 30
0.0
 10
-1.5452852366311687
 20
3.4097202083090856
 30
0.0
 10
-1.0230572732638443
 20
3.321796323191147
 30
0.0
 10
-0.43166334579586607
 20
3.3197554533680775
 30
0.0
 10
0.3038192819149765
 20
3.313373286602602
 30
0.0
 10
1.1180636639978165
 20
3.4465728665583257
 30
0.0
 10
1.5813416257013198
 20
3.6729099701369137
 30
0.0
  0
SPLINE
  5
7D
330
17
100
AcDbEntity
  8
visible
100
AcDbSpline
 70
0
 71
1
 72
4
 73
2
 74
0
 40
0.0
 40
0.0
 40
1.0
 40
1.0
 10
1.7332745375779368
 20
4.517819935855341
 30
0.0
 10
1.7268924423188496
 20
4.521784482379415
 30
0.0
  0
SPLINE
  5
7E
330
17
100
AcDbEntity
  8
visible
100
AcDbSpline
 70
0
 71
3
 72
8
 73
4
 74
0
 40
0.0
 40
0.0
 40
0.0
 40
0.0
 40
1.0
 40
1.0
 40
1.0
 40
1.0
 10
0.4525164036436758
 20
4.8988588172760945
 30
0.0
 10
-0.11361089901444749
 20
4.974246404113788
 30
0.0
 10
-0.7336930585170763
 20
4.969867067671425
 30
0.0
 10
-1.199845248106355
 20
4.898852416501035
 30
0.0
  0
SPLINE
  5
7F
330
17
100
AcDbEntity
  8
visible
100
AcDbSpline
 70
0
 71
3
 72
14
 73
10
 74
0
 40
0.0
 40
0.0
 40
0.0
 40
0.0
 40
0.06468439391125307
 40
0.06468439391125307
 40
0.06468439391125307
 40
0.6440211509525013
 40
0.6440211509525013
 40
0.6440211509525013
 40
1.0
 40
1.0
 40
1.0
 40
1.0
 10
-1.8103301718119609
 20
4.300927202428376
 30
0.0
 10
-1.7714273881905886
 20
4.2822768943741085
 30
0.0
 10
-1.727608137596263
 20
4.264496276932937
 30
0.0
 10
-1.6788724200289835
 20
4.2475853501048615
 30
0.0
 10
-1.2476907889336541
 20
4.093381526631392
 30
0.0
 10
-0.40502916498126096
 20
4.032516124343618
 30
0.0
 10
0.36955156633746167
 20
4.126441262968283
 30
0.0
 10
0.8438247559800841
 20
4.181762673581976
 30
0.0
 10
1.2824542526421667
 20
4.290951477696268
 30
0.0
 10
1.5813036508041372
 20
4.4349755342716195
 30
0.0
  0
SPLINE
  5
80
330
17
100
AcDbEntity
  8
visible
100
AcDbSpline
 70
0
 71
1
 72
4
 73
2
 74
0
 40
0.0
 40
0.0
 40
1.0
 40
1.0
 10
1.5813036508041372
 20
4.434975534271619
 30
0.0
 10
1.660828227120431
 20
4.475582270459871
 30
0.0
  0
SPLINE
  5
81
330
17
100
AcDbEntity
  8
visible
100
AcDbSpline
 70
0
 71
2
 72
6
 73
3
 74
0
 40
0.0
 40
0.0
 40
0.0
 40
0.014084400900916944
 40
0.014084400900916944
 40
0.014084400900916944
 10
1.6608282271204307
 20
4.475582270459871
 30
0.0
 10
1.7116903837836004
 20
4.503297298779286
 30
0.0
 10
1.7559045732070482
 20
4.5323160436192405
 30
0.0
  0
SPLINE
  5
82
330
17
100
AcDbEntity
  8
visible
100
AcDbSpline
 70
0
 71
3
 72
8
 73
4
 74
0
 40
0.0
 40
0.0
 40
0.0
 40
0.0
 40
1.0
 40
1.0
 40
1.0
 40
1.0
 10
0.45251102854203235
 20
5.660919639196297
 30
0.0
 10
-0.11358780574328833
 20
5.73632366236463
 30
0.0
 10
-0.7338460378962255
 20
5.7319490126023265
 30
0.0
 10
-1.1998709559243788
 20
5.660932106478858
 30
0.0
  0
SPLINE
  5
83
330
17
100
AcDbEntity
  8
visible
100
AcDbSpline
 70
0
 71
2
 72
6
 73
3
 74
0
 40
0.0
 40
0.0
 40
0.0
 40
1.0
 40
1.0
 40
1.0
 10
-1.9585802586623737
 20
5.159477011718037
 30
0.0
 10
-1.9058443663835396
 20
5.108853601981995
 30
0.0
 10
-1.8103188525237304
 20
5.062978084975893
 30
0.0
  0
SPLINE
  5
84
330
17
100
AcDbEntity
  8
visible
100
AcDbSpline
 70
0
 71
3
 72
11
 73
7
 74
0
 40
0.0
 40
0.0
 40
0.0
 40
0.0
 40
0.5102895664178124
 40
0.5102895664178124
 40
0.5102895664178124
 40
1.0
 40
1.0
 40
1.0
 40
1.0
 10
-1.8103188525237304
 20
5.062978084975894
 30
0.0
 10
-1.507858720530662
 20
4.914486960046939
 30
0.0
 10
-0.8632379151411738
 20
4.822391427791416
 30
0.0
 10
-0.17146989657924488
 20
4.847748562799816
 30
0.0
 10
0.4905773187819164
 20
4.868832585748987
 30
0.0
 10
1.1713977432500553
 20
4.997877428082843
 30
0.0
 10
1.5813093788542212
 20
5.197050860290894
 30
0.0
  0
SPLINE
  5
85
330
17
100
AcDbEntity
  8
visible
100
AcDbSpline
 70
0
 71
2
 72
6
 73
3
 74
0
 40
0.0
 40
0.0
 40
0.0
 40
0.014094216045836485
 40
0.014094216045836485
 40
0.014094216045836485
 10
1.6608282271204304
 20
5.237654246336763
 30
0.0
 10
1.7117080499608854
 20
5.265379374078799
 30
0.0
 10
1.755910770787671
 20
5.2943916494701
 30
0.0
  0
SPLINE
  5
86
330
17
100
AcDbEntity
  8
visible
100
AcDbSpline
 70
0
 71
1
 72
4
 73
2
 74
0
 40
0.0
 40
0.0
 40
1.0
 40
1.0
 10
1.7332623865951473
 20
6.041970101356611
 30
0.0
 10
1.7268795954993283
 20
6.045934754275759
 30
0.0
  0
SPLINE
  5
87
330
17
100
AcDbEntity
  8
visible
100
AcDbSpline
 70
0
 71
2
 72
6
 73
3
 74
0
 40
0.0
 40
0.0
 40
0.0
 40
1.0
 40
1.0
 40
1.0
 10
-1.9585751322993934
 20
5.921553759236674
 30
0.0
 10
-1.9057837833334068
 20
5.870893782064341
 30
0.0
 10
-1.8103144976331182
 20
5.825055599608742
 30
0.0
  0
SPLINE
  5
88
330
17
100
AcDbEntity
  8
visible
100
AcDbSpline
 70
0
 71
3
 72
11
 73
7
 74
0
 40
0.0
 40
0.0
 40
0.0
 40
0.0
 40
0.4202402082565284
 40
0.4202402082565284
 40
0.4202402082565284
 40
1.0
 40
1.0
 40
1.0
 40
1.0
 10
-1.8103144976331182
 20
5.82505559960874
 30
0.0
 10
-1.5602224814109653
 20
5.703461884290011
 30
0.0
 10
-1.0819498276753152
 20
5.617875361750508
 30
0.0
 10
-0.5313269105336399
 20
5.607261309218379
 30
0.0
 10
0.2283381077944981
 20
5.588387939994139
 30
0.0
 10
1.0971616624162488
 20
5.722030792008745
 30
0.0
 10
1.5812982682082966
 20
5.959130521528339
 30
0.0
  0
SPLINE
  5
89
330
17
100
AcDbEntity
  8
visible
100
AcDbSpline
 70
0
 71
1
 72
4
 73
2
 74
0
 40
0.0
 40
0.0
 40
1.0
 40
1.0
 10
1.5812982682082966
 20
5.959130521528339
 30
0.0
 10
1.6608282271204347
 20
5.999740277512357
 30
0.0
  0
SPLINE
  5
8A
330
17
100
AcDbEntity
  8
visible
100
AcDbSpline
 70
0
 71
3
 72
8
 73
4
 74
0
 40
0.0
 40
0.0
 40
0.0
 40
0.0
 40
0.09637376584225006
 40
0.09637376584225006
 40
0.09637376584225006
 40
0.09637376584225006
 10
1.6608282271204347
 20
5.999740277512357
 30
0.0
 10
1.8936441740013876
 20
6.126107614452909
 30
0.0
 10
2.020819919232704
 20
6.274478868416622
 30
0.0
 10
2.0200000035066648
 20
6.423007139514754
 30
0.0
  0
SPLINE
  5
8B
330
17
100
AcDbEntity
  8
visible
100
AcDbSpline
 70
0
 71
2
 72
6
 73
3
 74
0
 40
0.0
 40
0.0
 40
0.0
 40
1.0
 40
1.0
 40
1.0
 10
-1.9585645134880534
 20
6.683615352425648
 30
0.0
 10
-1.9057869724906642
 20
6.632974962903283
 30
0.0
 10
-1.8103025148782712
 20
6.587114043969701
 30
0.0
  0
SPLINE
  5
8C
330
17
100
AcDbEntity
  8
visible
100
AcDbSpline
 70
0
 71
3
 72
11
 73
7
 74
0
 40
0.0
 40
0.0
 40
0.0
 40
0.0
 40
0.4830077045066027
 40
0.4830077045066027
 40
0.4830077045066027
 40
1.0
 40
1.0
 40
1.0
 40
1.0
 10
-1.8103025148782712
 20
6.587114043969701
 30
0.0
 10
-1.523716895669545
 20
6.4468788938378365
 30
0.0
 10
-0.9321513568777553
 20
6.356185530453183
 30
0.0
 10
-0.2822028958996026
 20
6.369009722618343
 30
0.0
 10
0.41282834239146426
 20
6.379276733575255
 30
0.0
 10
1.1488623910064633
 20
6.510599082611722
 30
0.0
 10
1.581322562655448
 20
6.721209067643335
 30
0.0
  0
SPLINE
  5
8D
330
17
100
AcDbEntity
  8
visible
100
AcDbSpline
 70
0
 71
3
 72
8
 73
4
 74
0
 40
0.0
 40
0.0
 40
0.0
 40
0.0
 40
1.0
 40
1.0
 40
1.0
 40
1.0
 10
1.733272929576535
 20
7.566121709563123
 30
0.0
 10
1.5636947191923227
 20
7.672380463483016
 30
0.0
 10
1.323058244594655
 20
7.765525637718479
 30
0.0
 10
1.039202295796077
 20
7.8370766687454
 30
0.0
  0
SPLINE
  5
8E
330
17
100
AcDbEntity
  8
visible
100
AcDbSpline
 70
0
 71
2
 72
6
 73
3
 74
0
 40
0.0
 40
0.0
 40
0.0
 40
1.0
 40
1.0
 40
1.0
 10
-2.020001461029736
 20
7.5661148419263595
 30
0.0
 10
-2.0185211325087056
 20
7.4503040227958905
 30
0.0
 10
-1.8103134834513916
 20
7.3492119543640575
 30
0.0
  0
SPLINE
  5
8F
330
17
100
AcDbEntity
  8
visible
100
AcDbSpline
 70
0
 71
3
 72
11
 73
7
 74
0
 40
0.0
 40
0.0
 40
0.0
 40
0.0
 40
0.4963165366693925
 40
0.4963165366693925
 40
0.4963165366693925
 40
1.0
 40
1.0
 40
1.0
 40
1.0
 10
-1.8103134834513916
 20
7.349211954364057
 30
0.0
 10
-1.5160863311542976
 20
7.204995629567456
 30
0.0
 10
-0.8990839219369531
 20
7.113480171190332
 30
0.0
 10
-0.22857079735473285
 20
7.132241407438299
 30
0.0
 10
0.4508331705442926
 20
7.14789090028995
 30
0.0
 10
1.15975052469872
 20
7.278237498584741
 30
0.0
 10
1.5813376144224445
 20
7.483299340150884
 30
0.0
  0
SPLINE
  5
90
330
17
100
AcDbEntity
  8
visible
100
AcDbSpline
 70
0
 71
1
 72
4
 73
2
 74
0
 40
0.0
 40
0.0
 40
1.0
 40
1.0
 10
1.5813376144224445
 20
7.483299340150884
 30
0.0
 10
1.6608282271204304
 20
7.5238877585623065
 30
0.0
  0
SPLINE
  5
91
330
17
100
AcDbEntity
  8
visible
100
AcDbSpline
 70
0
 71
3
 72
8
 73
4
 74
0
 40
0.0
 40
0.0
 40
0.0
 40
0.0
 40
0.09640816155956862
 40
0.09640816155956862
 40
0.09640816155956862
 40
0.09640816155956862
 10
1.6608282271204309
 20
7.5238877585623065
 30
0.0
 10
1.8936289152302541
 20
7.650240981287096
 30
0.0
 10
2.0208117633806433
 20
7.798591001844063
 30
0.0
 10
2.020000000991433
 20
7.947151116669154
 30
0.0
  0
SPLINE
  5
92
330
17
100
AcDbEntity
  8
visible
100
AcDbSpline
 70
0
 71
3
 72
11
 73
7
 74
0
 40
0.0
 40
0.0
 40
0.0
 40
0.0
 40
0.5225509332046131
 40
0.5225509332046131
 40
0.5225509332046131
 40
1.0
 40
1.0
 40
1.0
 40
1.0
 10
-1.8103233449556502
 20
8.111280412618425
 30
0.0
 10
-1.5008481423025728
 20
7.959119603873132
 30
0.0
 10
-0.831997270876899
 20
7.866569127697538
 30
0.0
 10
-0.12227913019825032
 20
7.897916614624827
 30
0.0
 10
0.5244513472735299
 20
7.923378166901596
 30
0.0
 10
1.1815611622367685
 20
8.051242924917881
 30
0.0
 10
1.58126043330794
 20
8.245326720989139
 30
0.0
  0
SPLINE
  5
93
330
17
100
AcDbEntity
  8
visible
100
AcDbSpline
 70
0
 71
1
 72
4
 73
2
 74
0
 40
0.0
 40
0.0
 40
1.0
 40
1.0
 10
1.660828227119204
 20
8.285955344554806
 30
0.0
 10
1.9054264147878532
 20
8.402370555195159
 30
0.0
  0
SPLINE
  5
94
330
17
100
AcDbEntity
  8
visible
100
AcDbSpline
 70
0
 71
3
 72
11
 73
7
 74
0
 40
0.0
 40
0.0
 40
0.0
 40
0.0
 40
0.6235400381736498
 40
0.6235400381736498
 40
0.6235400381736498
 40
1.2470800763472996
 40
1.2470800763472996
 40
1.2470800763472996
 40
1.2470800763472996
 10
2.055480479109446
 20
-6.005620492799833
 30
0.0
 10
2.34992819958908
 20
-5.851784623781001
 30
0.0
 10
2.507591297242347
 20
-5.669659556378429
 30
0.0
 10
2.4997985961634974
 20
-5.4877556809091415
 30
0.0
 10
2.4941082302378597
 20
-5.30584408903867
 30
0.0
 10
2.3230846960565437
 20
-5.125019558706619
 30
0.0
 10
2.017770744042408
 20
-4.973555559108824
 30
0.0
  0
SPLINE
  5
95
330
17
100
AcDbEntity
  8
visible
100
AcDbSpline
 70
0
 71
2
 72
8
 73
5
 74
0
 40
0.0
 40
0.0
 40
0.0
 40
0.5
 40
0.5
 40
1.0
 40
1.0
 40
1.0
 10
-2.216150462365297
 20
-4.824525594224054
 30
0.0
 10
-2.4978110988825337
 20
-4.960924335477802
 30
0.0
 10
-2.49998044199715
 20
-5.11818498433818
 30
0.0
 10
-2.4978126509624268
 20
-5.275445627460288
 30
0.0
 10
-2.2161521249988616
 20
-5.411844264016718
 30
0.0
  0
SPLINE
  5
96
330
17
100
AcDbEntity
  8
visible
100
AcDbSpline
 70
0
 71
3
 72
11
 73
7
 74
0
 40
0.0
 40
0.0
 40
0.0
 40
0.0
 40
0.5000000000000002
 40
0.5000000000000002
 40
0.5000000000000002
 40
1.0
 40
1.0
 40
1.0
 40
1.0
 10
-2.2161521249988616
 20
-5.411844264016718
 30
0.0
 10
-1.8336013318614193
 20
-5.598671309847643
 30
0.0
 10
-1.05123901198835
 20
-5.716665049541252
 30
0.0
 10
-0.21405770695413628
 20
-5.695893111990225
 30
0.0
 10
0.6219640746902574
 20
-5.679236879320268
 30
0.0
 10
1.481763364595348
 20
-5.523006974320258
 30
0.0
 10
1.9862304156784052
 20
-5.278201515896141
 30
0.0
  0
SPLINE
  5
97
330
17
100
AcDbEntity
  8
visible
100
AcDbSpline
 70
0
 71
3
 72
11
 73
7
 74
0
 40
0.0
 40
0.0
 40
0.0
 40
0.0
 40
0.5
 40
0.5
 40
0.5
 40
1.0
 40
1.0
 40
1.0
 40
1.0
 10
1.9862304156784056
 20
-5.278201515896142
 30
0.0
 10
2.264445939044986
 20
-5.145599452045214
 30
0.0
 10
2.439626222671248
 20
-4.989330095402054
 30
0.0
 10
2.4864884336268744
 20
-4.8287442380539325
 30
0.0
 10
2.534650783317954
 20
-4.668199684401426
 30
0.0
 10
2.4543048531736633
 20
-4.503810894322963
 30
0.0
 10
2.257003035245153
 20
-4.356106280784549
 30
0.0
  0
SPLINE
  5
98
330
17
100
AcDbEntity
  8
visible
100
AcDbSpline
 70
0
 71
3
 72
11
 73
7
 74
0
 40
0.0
 40
0.0
 40
0.0
 40
0.0
 40
0.5
 40
0.5
 40
0.5
 40
1.0
 40
1.0
 40
1.0
 40
1.0
 10
1.4547216944134813
 20
-4.0033521171296895
 30
0.0
 10
0.939955517560312
 20
-3.8596734984431675
 30
0.0
 10
0.28031217598087443
 20
-3.7796708908031342
 30
0.0
 10
-0.3477978033061362
 20
-3.7764817171965284
 30
0.0
 10
-0.9765632912180492
 20
-3.7718822900215163
 30
0.0
 10
-1.566014048136136
 20
-3.843776866091213
 30
0.0
 10
-1.958582804988819
 20
-3.9647384829763057
 30
0.0
  0
SPLINE
  5
99
330
17
100
AcDbEntity
  8
visible
100
AcDbSpline
 70
0
 71
2
 72
6
 73
3
 74
0
 40
0.0
 40
0.0
 40
0.0
 40
1.0
 40
1.0
 40
1.0
 10
-2.0199999999999987
 20
-3.984380200884377
 30
0.0
 10
-2.1298538623057306
 20
-4.021196466218055
 30
0.0
 10
-2.216172999709243
 20
-4.062458814231734
 30
0.0
  0
SPLINE
  5
9A
330
17
100
AcDbEntity
  8
visible
100
AcDbSpline
 70
0
 71
2
 72
8
 73
5
 74
0
 40
0.0
 40
0.0
 40
0.0
 40
0.5000000000000009
 40
0.5000000000000009
 40
1.0
 40
1.0
 40
1.0
 10
-2.216172999709243
 20
-4.062458814231734
 30
0.0
 10
-2.497829877923574
 20
-4.198854641726084
 30
0.0
 10
-2.500008593708688
 20
-4.356109110746627
 30
0.0
 10
-2.4978463907582533
 20
-4.5133627078291845
 30
0.0
 10
-2.2162012571088052
 20
-4.6497520034386595
 30
0.0
  0
SPLINE
  5
9B
330
17
100
AcDbEntity
  8
visible
100
AcDbSpline
 70
0
 71
3
 72
11
 73
7
 74
0
 40
0.0
 40
0.0
 40
0.0
 40
0.0
 40
0.5000000000000004
 40
0.5000000000000004
 40
0.5000000000000004
 40
1.0
 40
1.0
 40
1.0
 40
1.0
 10
-2.2162012571088057
 20
-4.649752003438659
 30
0.0
 10
-1.8336332927159655
 20
-4.836583092781903
 30
0.0
 10
-1.051258969733385
 20
-4.954577990940949
 30
0.0
 10
-0.21409676961886914
 20
-4.933815989428206
 30
0.0
 10
0.6219027762157703
 20
-4.917169729641378
 30
0.0
 10
1.4817462760209328
 20
-4.760944832874058
 30
0.0
 10
1.9862623672250865
 20
-4.5161221772898035
 30
0.0
  0
SPLINE
  5
9C
330
17
100
AcDbEntity
  8
visible
100
AcDbSpline
 70
0
 71
3
 72
11
 73
7
 74
0
 40
0.0
 40
0.0
 40
0.0
 40
0.0
 40
0.49999999999999933
 40
0.49999999999999933
 40
0.49999999999999933
 40
1.0
 40
1.0
 40
1.0
 40
1.0
 10
1.9862623672250868
 20
-4.516122177289804
 30
0.0
 10
2.3123570699878835
 20
-4.360962227542407
 30
0.0
 10
2.4954469008275164
 20
-4.173197963436103
 30
0.0
 10
2.4998675602318854
 20
-3.984350252858672
 30
0.0
 10
2.506710936211091
 20
-3.795509648661588
 30
0.0
 10
2.3348506631064314
 20
-3.6066233846411087
 30
0.0
 10
2.0177721325079516
 20
-3.44941037968505
 30
0.0
  0
SPLINE
  5
9D
330
17
100
AcDbEntity
  8
visible
100
AcDbSpline
 70
0
 71
2
 72
8
 73
5
 74
0
 40
0.0
 40
0.0
 40
0.0
 40
0.4999999999999991
 40
0.4999999999999991
 40
1.0
 40
1.0
 40
1.0
 10
-2.216145215505597
 20
-3.3003842385266884
 30
0.0
 10
-2.497806618966733
 20
-3.436781410695963
 30
0.0
 10
-2.4999967007858097
 20
-3.5940324178054426
 30
0.0
 10
-2.4978463503573107
 20
-3.7512842320757827
 30
0.0
 10
-2.2161864441486587
 20
-3.887681954481046
 30
0.0
  0
SPLINE
  5
9E
330
17
100
AcDbEntity
  8
visible
100
AcDbSpline
 70
0
 71
3
 72
11
 73
7
 74
0
 40
0.0
 40
0.0
 40
0.0
 40
0.0
 40
0.5000000000000009
 40
0.5000000000000009
 40
0.5000000000000009
 40
1.0
 40
1.0
 40
1.0
 40
1.0
 10
-2.216186444148659
 20
-3.8876819544810446
 30
0.0
 10
-1.8336134469057643
 20
-4.074517934715724
 30
0.0
 10
-1.0512007874110585
 20
-4.192524921860346
 30
0.0
 10
-0.21403359567962577
 20
-4.17174770784911
 30
0.0
 10
0.6219730609571554
 20
-4.155087323103515
 30
0.0
 10
1.4817811529793086
 20
-3.9988422507304087
 30
0.0
 10
1.9862793581186828
 20
-3.754027882879006
 30
0.0
  0
SPLINE
  5
9F
330
17
100
AcDbEntity
  8
visible
100
AcDbSpline
 70
0
 71
3
 72
11
 73
7
 74
0
 40
0.0
 40
0.0
 40
0.0
 40
0.0
 40
0.5
 40
0.5
 40
0.5
 40
1.0
 40
1.0
 40
1.0
 40
1.0
 10
1.9862793581186833
 20
-3.754027882879006
 30
0.0
 10
2.264492040218485
 20
-3.621428095234272
 30
0.0
 10
2.4396608408028033
 20
-3.4651654632878683
 30
0.0
 10
2.4864968484778927
 20
-3.3045871815471344
 30
0.0
 10
2.5346319683343217
 20
-3.1440502741639507
 30
0.0
 10
2.454269965924457
 20
-2.9796686033305986
 30
0.0
 10
2.2570051015786246
 20
-2.8319644276612306
 30
0.0
  0
SPLINE
  5
A0
330
17
100
AcDbEntity
  8
visible
100
AcDbSpline
 70
0
 71
3
 72
11
 73
7
 74
0
 40
0.0
 40
0.0
 40
0.0
 40
0.0
 40
0.5
 40
0.5
 40
0.5
 40
1.0
 40
1.0
 40
1.0
 40
1.0
 10
1.454694371209248
 20
-2.4792091774749556
 30
0.0
 10
0.9399366773550217
 20
-2.3355278310512895
 30
0.0
 10
0.28035585787262
 20
-2.255515068296556
 30
0.0
 10
-0.34773995659325413
 20
-2.2523315335065917
 30
0.0
 10
-0.9764834039947655
 20
-2.2477371840044666
 30
0.0
 10
-1.5659740339442916
 20
-2.319627402104187
 30
0.0
 10
-1.9585694489649312
 20
-2.4405767272098844
 30
0.0
  0
SPLINE
  5
A1
330
17
100
AcDbEntity
  8
visible
100
AcDbSpline
 70
0
 71
2
 72
6
 73
3
 74
0
 40
0.0
 40
0.0
 40
0.0
 40
1.0
 40
1.0
 40
1.0
 10
-2.019999999999791
 20
-2.460220384556623
 30
0.0
 10
-2.129849027163842
 20
-2.4970312200499745
 30
0.0
 10
-2.2161595997612413
 20
-2.5382886365137476
 30
0.0
  0
SPLINE
  5
A2
330
17
100
AcDbEntity
  8
visible
100
AcDbSpline
 70
0
 71
3
 72
11
 73
7
 74
0
 40
0.0
 40
0.0
 40
0.0
 40
0.0
 40
0.27885058549575586
 40
0.27885058549575586
 40
0.27885058549575586
 40
1.0
 40
1.0
 40
1.0
 40
1.0
 10
-2.2161595997612418
 20
-2.538288636513748
 30
0.0
 10
-2.3201296448730666
 20
-2.588128335657546
 30
0.0
 10
-2.3959379166824295
 20
-2.6410663678428623
 30
0.0
 10
-2.443584415189335
 20
-2.697102733069684
 30
0.0
 10
-2.567482904463698
 20
-2.8410596368835037
 30
0.0
 10
-2.4855533071224296
 20
-2.9977693967045895
 30
0.0
 10
-2.2162367139451984
 20
-3.1255822506154405
 30
0.0
  0
SPLINE
  5
A3
330
17
100
AcDbEntity
  8
visible
100
AcDbSpline
 70
0
 71
3
 72
11
 73
7
 74
0
 40
0.0
 40
0.0
 40
0.0
 40
0.0
 40
0.5
 40
0.5
 40
0.5
 40
1.0
 40
1.0
 40
1.0
 40
1.0
 10
-2.2162367139451975
 20
-3.12558225061544
 30
0.0
 10
-1.833645044002193
 20
-3.312421547804464
 30
0.0
 10
-1.0513316097736685
 20
-3.4304348992000544
 30
0.0
 10
-0.21415780672810025
 20
-3.4096730780966107
 30
0.0
 10
0.6218525757024626
 20
-3.3930274932829794
 30
0.0
 10
1.4817688235021471
 20
-3.236790206296733
 30
0.0
 10
1.9862828293664792
 20
-2.991968978912177
 30
0.0
  0
SPLINE
  5
A4
330
17
100
AcDbEntity
  8
visible
100
AcDbSpline
 70
0
 71
3
 72
11
 73
7
 74
0
 40
0.0
 40
0.0
 40
0.0
 40
0.0
 40
0.5
 40
0.5
 40
0.5
 40
1.0
 40
1.0
 40
1.0
 40
1.0
 10
1.9862828293664783
 20
-2.991968978912177
 30
0.0
 10
2.3123725112012496
 20
-2.8368123258360454
 30
0.0
 10
2.4954415003254597
 20
-2.6490556440623223
 30
0.0
 10
2.4998544863396104
 20
-2.460208964880714
 30
0.0
 10
2.5066890551548937
 20
-2.2713700316728764
 30
0.0
 10
2.334837718863981
 20
-2.0824767760447616
 30
0.0
 10
2.0177723943955908
 20
-1.925260211991803
 30
0.0
  0
SPLINE
  5
A5
330
17
100
AcDbEntity
  8
visible
100
AcDbSpline
 70
0
 71
2
 72
8
 73
5
 74
0
 40
0.0
 40
0.0
 40
0.0
 40
0.5
 40
0.5
 40
1.0
 40
1.0
 40
1.0
 10
-2.216157277184136
 20
-1.776231135761848
 30
0.0
 10
-2.497815966088627
 20
-1.9126296095573638
 30
0.0
 10
-2.499979713965137
 20
-2.0698940655128335
 30
0.0
 10
-2.497814033857396
 20
-2.227160411626259
 30
0.0
 10
-2.216146178061385
 20
-2.3635659960935
 30
0.0
  0
SPLINE
  5
A6
330
17
100
AcDbEntity
  8
visible
100
AcDbSpline
 70
0
 71
3
 72
14
 73
10
 74
0
 40
0.0
 40
0.0
 40
0.0
 40
0.0
 40
0.24109212146841044
 40
0.24109212146841044
 40
0.24109212146841044
 40
0.6205460607342053
 40
0.6205460607342053
 40
0.6205460607342053
 40
1.0
 40
1.0
 40
1.0
 40
1.0
 10
-2.216146178061385
 20
-2.3635659960935
 30
0.0
 10
-2.02978109211021
 20
-2.452873241578143
 30
0.0
 10
-1.754996901422413
 20
-2.5279903774079715
 30
0.0
 10
-1.4230249471114695
 20
-2.5781920889126586
 30
0.0
 10
-0.9017227366495758
 20
-2.658081702055693
 30
0.0
 10
-0.2383246952799849
 20
-2.6733891322828027
 30
0.0
 10
0.38924515185284814
 20
-2.6117516382211816
 30
0.0
 10
1.0175472227456401
 20
-2.5515353818379074
 30
0.0
 10
1.6021474607988409
 20
-2.414782113591919
 30
0.0
 10
1.9862874381760451
 20
-2.229886629710437
 30
0.0
  0
SPLINE
  5
A7
330
17
100
AcDbEntity
  8
visible
100
AcDbSpline
 70
0
 71
3
 72
11
 73
7
 74
0
 40
0.0
 40
0.0
 40
0.0
 40
0.0
 40
0.5000000000000032
 40
0.5000000000000032
 40
0.5000000000000032
 40
1.0
 40
1.0
 40
1.0
 40
1.0
 10
1.9862874381760447
 20
-2.229886629710437
 30
0.0
 10
2.2644946671351107
 20
-2.097291290159082
 30
0.0
 10
2.4396555811162175
 20
-1.9410275169636118
 30
0.0
 10
2.486488700300243
 20
-1.7804458530872154
 30
0.0
 10
2.53462071450316
 20
-1.6199056344017901
 30
0.0
 10
2.454262199750101
 20
-1.4555205904594706
 30
0.0
 10
2.257009362386392
 20
-1.307818020081502
 30
0.0
  0
SPLINE
  5
A8
330
17
100
AcDbEntity
  8
visible
100
AcDbSpline
 70
0
 71
3
 72
11
 73
7
 74
0
 40
0.0
 40
0.0
 40
0.0
 40
0.0
 40
0.5000000000000024
 40
0.5000000000000024
 40
0.5000000000000024
 40
1.0
 40
1.0
 40
1.0
 40
1.0
 10
1.3477942506688194
 20
-0.9267735612307288
 30
0.0
 10
0.8326322323820512
 20
-0.7960029188316471
 30
0.0
 10
0.19267680758028194
 20
-0.7264259378367945
 30
0.0
 10
-0.4115936555576458
 20
-0.7280356634582843
 30
0.0
 10
-1.0165387028676536
 20
-0.7284159639925065
 30
0.0
 10
-1.5792393200825938
 20
-0.7996518092596772
 30
0.0
 10
-1.958584938753944
 20
-0.9164395728261263
 30
0.0
  0
SPLINE
  5
A9
330
17
100
AcDbEntity
  8
visible
100
AcDbSpline
 70
0
 71
2
 72
6
 73
3
 74
0
 40
0.0
 40
0.0
 40
0.0
 40
1.0
 40
1.0
 40
1.0
 10
-2.0200000000000093
 20
-0.9360801918929404
 30
0.0
 10
-2.1298540821060215
 20
-0.972895746722663
 30
0.0
 10
-2.216172502224961
 20
-1.0141575499770081
 30
0.0
  0
SPLINE
  5
AA
330
17
100
AcDbEntity
  8
visible
100
AcDbSpline
 70
0
 71
2
 72
8
 73
5
 74
0
 40
0.0
 40
0.0
 40
0.0
 40
0.49999999999999634
 40
0.49999999999999634
 40
1.0
 40
1.0
 40
1.0
 10
-2.2161725022249614
 20
-1.014157549977008
 30
0.0
 10
-2.497829015168299
 20
-1.1505531470219625
 30
0.0
 10
-2.500001813254703
 20
-1.3078119221261169
 30
0.0
 10
-2.4978346113135945
 20
-1.465070380985917
 30
0.0
 10
-2.216187225848707
 20
-1.6014614803762452
 30
0.0
  0
SPLINE
  5
AB
330
17
100
AcDbEntity
  8
visible
100
AcDbSpline
 70
0
 71
3
 72
14
 73
10
 74
0
 40
0.0
 40
0.0
 40
0.0
 40
0.0
 40
0.41392949519741407
 40
0.41392949519741407
 40
0.41392949519741407
 40
0.8278589903948281
 40
0.8278589903948281
 40
0.8278589903948281
 40
1.0
 40
1.0
 40
1.0
 40
1.0
 10
-2.2161872258487065
 20
-1.6014614803762452
 30
0.0
 10
-1.8980366693774362
 20
-1.7554456997973564
 30
0.0
 10
-1.3108096802088687
 20
-1.8645795676729628
 30
0.0
 10
-0.6392260311283484
 20
-1.8839889754036365
 30
0.0
 10
0.03067156102619943
 20
-1.905343943511914
 30
0.0
 10
0.7730907605999894
 20
-1.8359949792972636
 30
0.0
 10
1.3544482729849887
 20
-1.6871701769672516
 30
0.0
 10
1.5987280447351027
 20
-1.6251552326885288
 30
0.0
 10
1.809340233220671
 20
-1.5520423777211791
 30
0.0
 10
1.98628483844169
 20
-1.4678316120652055
 30
0.0
  0
SPLINE
  5
AC
330
17
100
AcDbEntity
  8
visible
100
AcDbSpline
 70
0
 71
3
 72
11
 73
7
 74
0
 40
0.0
 40
0.0
 40
0.0
 40
0.0
 40
0.5
 40
0.5
 40
0.5
 40
1.0
 40
1.0
 40
1.0
 40
1.0
 10
1.9862848384416902
 20
-1.4678316120652055
 30
0.0
 10
2.312380413279371
 20
-1.312672509739647
 30
0.0
 10
2.495420490408957
 20
-1.1249019898268855
 30
0.0
 10
2.4998412498634424
 20
-0.9360510206605375
 30
0.0
 10
2.506680388002397
 20
-0.7472070004152805
 30
0.0
 10
2.334848573796401
 20
-0.5583144519995973
 30
0.0
 10
2.017769311810588
 20
-0.4010986827346128
 30
0.0
  0
SPLINE
  5
AD
330
17
100
AcDbEntity
  8
visible
100
AcDbSpline
 70
0
 71
2
 72
8
 73
5
 74
0
 40
0.0
 40
0.0
 40
0.0
 40
0.5000000000000037
 40
0.5000000000000037
 40
1.0
 40
1.0
 40
1.0
 10
-2.2161590017146997
 20
-0.25209400017280326
 30
0.0
 10
-2.497812436038431
 20
-0.38848914174889104
 30
0.0
 10
-2.4999942259318724
 20
-0.5457428004064395
 30
0.0
 10
-2.497837549611501
 20
-0.7029964974317178
 30
0.0
 10
-2.2161833190106774
 20
-0.8393912534613528
 30
0.0
  0
SPLINE
  5
AE
330
17
100
AcDbEntity
  8
visible
100
AcDbSpline
 70
0
 71
3
 72
11
 73
7
 74
0
 40
0.0
 40
0.0
 40
0.0
 40
0.0
 40
0.5000000000000018
 40
0.5000000000000018
 40
0.5000000000000018
 40
1.0
 40
1.0
 40
1.0
 40
1.0
 10
-2.2161833190106774
 20
-0.8393912534613527
 30
0.0
 10
-1.8336141856814845
 20
-1.0262258821742185
 30
0.0
 10
-1.051175791944403
 20
-1.1442269078932947
 30
0.0
 10
-0.21399227595615944
 20
-1.1234486080445534
 30
0.0
 10
0.6220323416160302
 20
-1.1067867030619518
 30
0.0
 10
1.481798693627207
 20
-0.9505375466239109
 30
0.0
 10
1.9863097114327464
 20
-0.7057182916105728
 30
0.0
  0
SPLINE
  5
AF
330
17
100
AcDbEntity
  8
visible
100
AcDbSpline
 70
0
 71
3
 72
11
 73
7
 74
0
 40
0.0
 40
0.0
 40
0.0
 40
0.0
 40
0.758719974166495
 40
0.758719974166495
 40
0.758719974166495
 40
1.0
 40
1.0
 40
1.0
 40
1.0
 10
1.9863097114327464
 20
-0.7057182916105729
 30
0.0
 10
2.4109455990697644
 20
-0.5047010708870422
 30
0.0
 10
2.58730165529213
 20
-0.24831307987418544
 30
0.0
 10
2.4596747752460173
 20
-0.006824830758837663
 30
0.0
 10
2.4198601003340614
 20
0.07028827123453252
 30
0.0
 10
2.352306626852877
 20
0.14467765853713338
 30
0.0
 10
2.257014354802463
 20
0.21634333114896476
 30
0.0
  0
SPLINE
  5
B0
330
17
100
AcDbEntity
  8
visible
100
AcDbSpline
 70
0
 71
3
 72
11
 73
7
 74
0
 40
0.0
 40
0.0
 40
0.0
 40
0.0
 40
0.5
 40
0.5
 40
0.5
 40
1.0
 40
1.0
 40
1.0
 40
1.0
 10
1.3477828696874021
 20
0.597371476543535
 30
0.0
 10
0.8326093257718508
 20
0.728140158816801
 30
0.0
 10
0.19268947840515613
 20
0.7977264181335211
 30
0.0
 10
-0.41156332459691586
 20
0.7961192685826223
 30
0.0
 10
-1.0164893345176644
 20
0.7957421574054516
 30
0.0
 10
-1.5791977628410478
 20
0.7245006958787706
 30
0.0
 10
-1.9585587880876765
 20
0.6077119085660025
 30
0.0
  0
SPLINE
  5
B1
330
17
100
AcDbEntity
  8
visible
100
AcDbSpline
 70
0
 71
2
 72
6
 73
3
 74
0
 40
0.0
 40
0.0
 40
0.0
 40
1.0
 40
1.0
 40
1.0
 10
-2.019999999999995
 20
0.5880632631314375
 30
0.0
 10
-2.129865766887623
 20
0.5512438898314755
 30
0.0
 10
-2.2161913546261394
 20
0.5099785004099179
 30
0.0
  0
SPLINE
  5
B2
330
17
100
AcDbEntity
  8
visible
100
AcDbSpline
 70
0
 71
2
 72
8
 73
5
 74
0
 40
0.0
 40
0.0
 40
0.0
 40
0.5
 40
0.5
 40
1.0
 40
1.0
 40
1.0
 10
-2.2161913546261394
 20
0.5099785004099178
 30
0.0
 10
-2.4978438119284485
 20
0.37358494262480435
 30
0.0
 10
-2.500010260722342
 20
0.2163369345399049
 30
0.0
 10
-2.497836283463397
 20
0.05908948813435128
 30
0.0
 10
-2.216193629427108
 20
-0.07729929761664514
 30
0.0
  0
SPLINE
  5
B3
330
17
100
AcDbEntity
  8
visible
100
AcDbSpline
 70
0
 71
3
 72
11
 73
7
 74
0
 40
0.0
 40
0.0
 40
0.0
 40
0.0
 40
0.5
 40
0.5
 40
0.5
 40
1.0
 40
1.0
 40
1.0
 40
1.0
 10
-2.216193629427108
 20
-0.07729929761664511
 30
0.0
 10
-1.8336250414682522
 20
-0.2641322544262274
 30
0.0
 10
-1.0512752257616227
 20
-0.3821400391914809
 30
0.0
 10
-0.21411064810653657
 20
-0.361376758001003
 30
0.0
 10
0.6218892120526783
 20
-0.3447301810781335
 30
0.0
 10
1.481765132524621
 20
-0.1884907899708546
 30
0.0
 10
1.9862803415238983
 20
0.056331052526643194
 30
0.0
  0
SPLINE
  5
B4
330
17
100
AcDbEntity
  8
visible
100
AcDbSpline
 70
0
 71
3
 72
11
 73
7
 74
0
 40
0.0
 40
0.0
 40
0.0
 40
0.0
 40
0.4999999999999968
 40
0.4999999999999968
 40
0.4999999999999968
 40
1.0
 40
1.0
 40
1.0
 40
1.0
 10
1.9862803415238983
 20
0.056331052526643166
 30
0.0
 10
2.2645036729379053
 20
0.18893428622509953
 30
0.0
 10
2.439663862224555
 20
0.3452000497097166
 30
0.0
 10
2.4864872656229924
 20
0.505777437394881
 30
0.0
 10
2.534609811870363
 20
0.666313761682709
 30
0.0
 10
2.4542387315452263
 20
0.8306916345837209
 30
0.0
 10
2.2569898247500215
 20
0.9783971199145771
 30
0.0
  0
SPLINE
  5
B5
330
17
100
AcDbEntity
  8
visible
100
AcDbSpline
 70
0
 71
1
 72
4
 73
2
 74
0
 40
0.0
 40
0.0
 40
1.0
 40
1.0
 10
1.454741631017336
 20
1.331161028453244
 30
0.0
 10
1.3478430041485523
 20
1.3594491867064127
 30
0.0
  0
SPLINE
  5
B6
330
17
100
AcDbEntity
  8
visible
100
AcDbSpline
 70
0
 71
2
 72
8
 73
5
 74
0
 40
0.0
 40
0.0
 40
0.0
 40
0.5000000000000037
 40
0.5000000000000037
 40
1.0
 40
1.0
 40
1.0
 10
-2.216203885797405
 20
1.272038509045865
 30
0.0
 10
-2.4978424204900334
 20
1.1356523124753566
 30
0.0
 10
-2.500005705322198
 20
0.9784031402644755
 30
0.0
 10
-2.4978283309091287
 20
0.8211523491744525
 30
0.0
 10
-2.216171073346055
 20
0.6847559557715244
 30
0.0
  0
SPLINE
  5
B7
330
17
100
AcDbEntity
  8
visible
100
AcDbSpline
 70
0
 71
3
 72
11
 73
7
 74
0
 40
0.0
 40
0.0
 40
0.0
 40
0.0
 40
0.5
 40
0.5
 40
0.5
 40
1.0
 40
1.0
 40
1.0
 40
1.0
 10
-2.2161710733460547
 20
0.6847559557715244
 30
0.0
 10
-1.8335863178549425
 20
0.49791401123496365
 30
0.0
 10
-1.0511979004006557
 20
0.379920086105538
 30
0.0
 10
-0.2140339608183266
 20
0.4007020652621708
 30
0.0
 10
0.6219677763832916
 20
0.41736792073539464
 30
0.0
 10
1.4817989205047015
 20
0.5736039544000981
 30
0.0
 10
1.9862983364760356
 20
0.8184156033397705
 30
0.0
  0
SPLINE
  5
B8
330
17
100
AcDbEntity
  8
visible
100
AcDbSpline
 70
0
 71
3
 72
11
 73
7
 74
0
 40
0.0
 40
0.0
 40
0.0
 40
0.0
 40
0.5
 40
0.5
 40
0.5
 40
1.0
 40
1.0
 40
1.0
 40
1.0
 10
1.9862983364760358
 20
0.8184156033397705
 30
0.0
 10
2.31237637785771
 20
0.9735671762363676
 30
0.0
 10
2.495454275452301
 20
1.1613206960094673
 30
0.0
 10
2.4998697319749126
 20
1.3501688861373704
 30
0.0
 10
2.50670779108205
 20
1.5390090019706515
 30
0.0
 10
2.334847695036417
 20
1.7279061472948314
 30
0.0
 10
2.017772390311587
 20
1.8851199300858719
 30
0.0
  0
SPLINE
  5
B9
330
17
100
AcDbEntity
  8
visible
100
AcDbSpline
 70
0
 71
3
 72
11
 73
7
 74
0
 40
0.0
 40
0.0
 40
0.0
 40
0.0
 40
0.4999999999999976
 40
0.4999999999999976
 40
0.4999999999999976
 40
1.0
 40
1.0
 40
1.0
 40
1.0
 10
1.34780965302906
 20
2.1215192604297988
 30
0.0
 10
0.8326551264937173
 20
2.2522918694175202
 30
0.0
 10
0.19270996033914414
 20
2.3218671240037234
 30
0.0
 10
-0.41157983042035284
 20
2.3202627146494024
 30
0.0
 10
-1.0165460809204268
 20
2.3198893640969356
 30
0.0
 10
-1.5792763660123421
 20
2.2486550742931817
 30
0.0
 10
-1.958591904110027
 20
2.1318508390977
 30
0.0
  0
SPLINE
  5
BA
330
17
100
AcDbEntity
  8
visible
100
AcDbSpline
 70
0
 71
2
 72
6
 73
3
 74
0
 40
0.0
 40
0.0
 40
0.0
 40
1.0
 40
1.0
 40
1.0
 10
-2.020000000000224
 20
2.1122105292404116
 30
0.0
 10
-2.1298982205705292
 20
2.0753790161300696
 30
0.0
 10
-2.2162556832962332
 20
2.034099753424229
 30
0.0
  0
SPLINE
  5
BB
330
17
100
AcDbEntity
  8
visible
100
AcDbSpline
 70
0
 71
2
 72
8
 73
5
 74
0
 40
0.0
 40
0.0
 40
0.0
 40
0.49999999999999634
 40
0.49999999999999634
 40
1.0
 40
1.0
 40
1.0
 10
-2.216255683296234
 20
2.034099753424229
 30
0.0
 10
-2.4979015194593233
 20
1.8977108217348688
 30
0.0
 10
-2.500011621847717
 20
1.7404635185820805
 30
0.0
 10
-2.4977857980642315
 20
1.5832170574349318
 30
0.0
 10
-2.2161519957925604
 20
1.446832476514401
 30
0.0
  0
SPLINE
  5
BC
330
17
100
AcDbEntity
  8
visible
100
AcDbSpline
 70
0
 71
3
 72
11
 73
7
 74
0
 40
0.0
 40
0.0
 40
0.0
 40
0.0
 40
0.5
 40
0.5
 40
0.5
 40
1.0
 40
1.0
 40
1.0
 40
1.0
 10
-2.2161519957925604
 20
1.446832476514401
 30
0.0
 10
-1.8336030125448253
 20
1.2600037976600988
 30
0.0
 10
-1.0512927905178282
 20
1.1420072215326027
 30
0.0
 10
-0.21410675195884776
 20
1.162773767981776
 30
0.0
 10
0.6219120377346122
 20
1.1794246665786647
 30
0.0
 10
1.481764245852479
 20
1.3356529732609308
 30
0.0
 10
1.9862466428202843
 20
1.5804619925871877
 30
0.0
  0
SPLINE
  5
BD
330
17
100
AcDbEntity
  8
visible
100
AcDbSpline
 70
0
 71
3
 72
11
 73
7
 74
0
 40
0.0
 40
0.0
 40
0.0
 40
0.0
 40
0.5
 40
0.5
 40
0.5
 40
1.0
 40
1.0
 40
1.0
 40
1.0
 10
1.9862466428202836
 20
1.5804619925871877
 30
0.0
 10
2.264468339196824
 20
1.7130647626206885
 30
0.0
 10
2.4396304801153095
 20
1.8693344208791052
 30
0.0
 10
2.4864659962570936
 20
2.02991875671784
 30
0.0
 10
2.5345997933390794
 20
2.1904618451422335
 30
0.0
 10
2.4542460146326572
 20
2.3548482619071276
 30
0.0
 10
2.2569938730147947
 20
2.5025548239246627
 30
0.0
  0
SPLINE
  5
BE
330
17
100
AcDbEntity
  8
visible
100
AcDbSpline
 70
0
 71
1
 72
4
 73
2
 74
0
 40
0.0
 40
0.0
 40
1.0
 40
1.0
 10
1.4547293994484654
 20
2.8553051914054848
 30
0.0
 10
1.3478421361681296
 20
2.883589691734068
 30
0.0
  0
SPLINE
  5
BF
330
17
100
AcDbEntity
  8
visible
100
AcDbSpline
 70
0
 71
2
 72
8
 73
5
 74
0
 40
0.0
 40
0.0
 40
0.0
 40
0.5000000000000073
 40
0.5000000000000073
 40
1.0
 40
1.0
 40
1.0
 10
-2.2161563348950897
 20
2.796203794952924
 30
0.0
 10
-2.497791949640166
 20
2.6598188175205695
 30
0.0
 10
-2.5000159312340577
 20
2.502572747191076
 30
0.0
 10
-2.4978993733619763
 20
2.345326079042402
 30
0.0
 10
-2.216247100263179
 20
2.2089375765088666
 30
0.0
  0
SPLINE
  5
C0
330
17
100
AcDbEntity
  8
visible
100
AcDbSpline
 70
0
 71
3
 72
14
 73
10
 74
0
 40
0.0
 40
0.0
 40
0.0
 40
0.0
 40
0.04555597327609911
 40
0.04555597327609911
 40
0.04555597327609911
 40
0.5227779866380531
 40
0.5227779866380531
 40
0.5227779866380531
 40
1.0
 40
1.0
 40
1.0
 40
1.0
 10
-2.21624710026318
 20
2.208937576508866
 30
0.0
 10
-2.180942981049942
 20
2.1920623284604046
 30
0.0
 10
-2.1426279302222526
 20
2.175720182117444
 30
0.0
 10
-2.101301947780112
 20
2.159911137479982
 30
0.0
 10
-1.6721836423814072
 20
1.9928699220219406
 30
0.0
 10
-0.900563242252259
 20
1.8974883360654324
 30
0.0
 10
-0.10001709311701568
 20
1.9282143333303214
 30
0.0
 10
0.70006688017667
 20
1.9554769613840044
 30
0.0
 10
1.5043945171045436
 20
2.109139200442722
 30
0.0
 10
1.986264590965988
 20
2.342546951789399
 30
0.0
  0
SPLINE
  5
C1
330
17
100
AcDbEntity
  8
visible
100
AcDbSpline
 70
0
 71
3
 72
11
 73
7
 74
0
 40
0.0
 40
0.0
 40
0.0
 40
0.0
 40
0.4999999999999945
 40
0.4999999999999945
 40
0.4999999999999945
 40
1.0
 40
1.0
 40
1.0
 40
1.0
 10
1.9862645909659875
 20
2.342546951789399
 30
0.0
 10
2.312354312557823
 20
2.497704481058384
 30
0.0
 10
2.4954469311766516
 20
2.685469091229379
 30
0.0
 10
2.499870149660124
 20
2.8743201268045846
 30
0.0
 10
2.5067161774928004
 20
3.0631637383730794
 30
0.0
 10
2.334856901432312
 20
3.252056130575375
 30
0.0
 10
2.0177714289101685
 20
3.4092674092933564
 30
0.0
  0
SPLINE
  5
C2
330
17
100
AcDbEntity
  8
visible
100
AcDbSpline
 70
0
 71
2
 72
8
 73
5
 74
0
 40
0.0
 40
0.0
 40
0.0
 40
0.4999999999999927
 40
0.4999999999999927
 40
1.0
 40
1.0
 40
1.0
 10
-2.2161725271843045
 20
3.558281876832387
 30
0.0
 10
-2.4978296433963734
 20
3.421885556809203
 30
0.0
 10
-2.500005884064194
 20
3.2646354968865445
 30
0.0
 10
-2.497841340690356
 20
3.107387105402572
 30
0.0
 10
-2.2162023382962537
 20
2.971000748439226
 30
0.0
  0
SPLINE
  5
C3
330
17
100
AcDbEntity
  8
visible
100
AcDbSpline
 70
0
 71
3
 72
14
 73
10
 74
0
 40
0.0
 40
0.0
 40
0.0
 40
0.0
 40
0.31614560973988953
 40
0.31614560973988953
 40
0.31614560973988953
 40
0.6322912194797791
 40
0.6322912194797791
 40
0.6322912194797791
 40
1.0
 40
1.0
 40
1.0
 40
1.0
 10
-2.2162023382962537
 20
2.9710007484392253
 30
0.0
 10
-1.9722874564011146
 20
2.85375035197353
 30
0.0
 10
-1.5744391854793214
 20
2.7614945858988555
 30
0.0
 10
-1.0984753688299755
 20
2.716706946334203
 30
0.0
 10
-0.6235316682778774
 20
2.671283270395067
 30
0.0
 10
-0.07334141913752733
 20
2.6737848389109864
 30
0.0
 10
0.44721359544486006
 20
2.728610538647673
 30
0.0
 10
1.0535988923733477
 20
2.7913461024471364
 30
0.0
 10
1.6138497594832026
 20
2.925469504200155
 30
0.0
 10
1.98620547799293
 20
3.1045969670553637
 30
0.0
  0
SPLINE
  5
C4
330
17
100
AcDbEntity
  8
visible
100
AcDbSpline
 70
0
 71
3
 72
11
 73
7
 74
0
 40
0.0
 40
0.0
 40
0.0
 40
0.0
 40
0.5000000000000064
 40
0.5000000000000064
 40
0.5000000000000064
 40
1.0
 40
1.0
 40
1.0
 40
1.0
 10
1.9862054779929297
 20
3.1045969670553637
 30
0.0
 10
2.2644345374381634
 20
3.2372054458771156
 30
0.0
 10
2.439619454732349
 20
3.3934758785605146
 30
0.0
 10
2.4864732410301005
 20
3.5540589673340204
 30
0.0
 10
2.534625558405364
 20
3.714600904463409
 30
0.0
 10
2.454277750083865
 20
3.878986855556048
 30
0.0
 10
2.2570125345470657
 20
4.026696569106947
 30
0.0
  0
SPLINE
  5
C5
330
17
100
AcDbEntity
  8
visible
100
AcDbSpline
 70
0
 71
1
 72
4
 73
2
 74
0
 40
0.0
 40
0.0
 40
1.0
 40
1.0
 10
1.454722211733395
 20
4.379451049132186
 30
0.0
 10
1.3478133850417415
 20
4.407741380567657
 30
0.0
  0
SPLINE
  5
C6
330
17
100
AcDbEntity
  8
visible
100
AcDbSpline
 70
0
 71
2
 72
8
 73
5
 74
0
 40
0.0
 40
0.0
 40
0.0
 40
0.5
 40
0.5
 40
1.0
 40
1.0
 40
1.0
 10
-2.2161961524672495
 20
4.320337813843135
 30
0.0
 10
-2.497838304745504
 20
4.183949380027006
 30
0.0
 10
-2.5000109532200483
 20
4.026701931905521
 30
0.0
 10
-2.4978430457490437
 20
3.8694538666340605
 30
0.0
 10
-2.2161902680840706
 20
3.7330601519868067
 30
0.0
  0
SPLINE
  5
C7
330
17
100
AcDbEntity
  8
visible
100
AcDbSpline
 70
0
 71
3
 72
11
 73
7
 74
0
 40
0.0
 40
0.0
 40
0.0
 40
0.0
 40
0.5
 40
0.5
 40
0.5
 40
1.0
 40
1.0
 40
1.0
 40
1.0
 10
-2.2161902680840706
 20
3.7330601519868067
 30
0.0
 10
-1.8336048080584704
 20
3.5462189134471043
 30
0.0
 10
-1.051197182080215
 20
3.4282168336562897
 30
0.0
 10
-0.21404690253950154
 20
3.448997536102948
 30
0.0
 10
0.6219328042943779
 20
3.46566383335597
 30
0.0
 10
1.4817893585543762
 20
3.6218952531814335
 30
0.0
 10
1.986322046971447
 20
3.8667072012071992
 30
0.0
  0
SPLINE
  5
C8
330
17
100
AcDbEntity
  8
visible
100
AcDbSpline
 70
0
 71
3
 72
11
 73
7
 74
0
 40
0.0
 40
0.0
 40
0.0
 40
0.0
 40
0.40079817654393757
 40
0.40079817654393757
 40
0.40079817654393757
 40
1.0
 40
1.0
 40
1.0
 40
1.0
 10
1.9863220469714473
 20
3.8667072012072006
 30
0.0
 10
2.2115616199556247
 20
3.9746542368159825
 30
0.0
 10
2.3639824093615367
 20
4.09283547000155
 30
0.0
 10
2.4435844151891706
 20
4.221250900763891
 30
0.0
 10
2.560721116716454
 20
4.410777784063037
 30
0.0
 10
2.494011150663141
 20
4.611797012819293
 30
0.0
 10
2.2569960740878057
 20
4.788781672609533
 30
0.0
  0
SPLINE
  5
C9
330
17
100
AcDbEntity
  8
visible
100
AcDbSpline
 70
0
 71
2
 72
8
 73
5
 74
0
 40
0.0
 40
0.0
 40
0.0
 40
0.5
 40
0.5
 40
1.0
 40
1.0
 40
1.0
 10
-2.2161808591639467
 20
5.082431132916328
 30
0.0
 10
-2.497835687431382
 20
4.946036025774499
 30
0.0
 10
-2.499992436518024
 20
4.788781479929797
 30
0.0
 10
-2.497810901869893
 20
4.631526946617246
 30
0.0
 10
-2.216156383679223
 20
4.49513121085414
 30
0.0
  0
SPLINE
  5
CA
330
17
100
AcDbEntity
  8
visible
100
AcDbSpline
 70
0
 71
3
 72
11
 73
7
 74
0
 40
0.0
 40
0.0
 40
0.0
 40
0.0
 40
0.5000000000000036
 40
0.5000000000000036
 40
0.5000000000000036
 40
1.0
 40
1.0
 40
1.0
 40
1.0
 10
-2.2161563836792233
 20
4.49513121085414
 30
0.0
 10
-1.8335973271092803
 20
4.308300509821424
 30
0.0
 10
-1.0512722775132135
 20
4.190298573446988
 30
0.0
 10
-0.2141002969327679
 20
4.2110682322964
 30
0.0
 10
0.6219070259553517
 20
4.227721642421313
 30
0.0
 10
1.4817780046271247
 20
4.383957501813244
 30
0.0
 10
1.986259918906113
 20
4.6287649330182985
 30
0.0
  0
SPLINE
  5
CB
330
17
100
AcDbEntity
  8
visible
100
AcDbSpline
 70
0
 71
3
 72
11
 73
7
 74
0
 40
0.0
 40
0.0
 40
0.0
 40
0.0
 40
0.5
 40
0.5
 40
0.5
 40
1.0
 40
1.0
 40
1.0
 40
1.0
 10
1.9862599189061125
 20
4.628764933018297
 30
0.0
 10
2.2644799088862344
 20
4.761366648475117
 30
0.0
 10
2.4396317251654374
 20
4.917632841572482
 30
0.0
 10
2.4864652178464715
 20
5.078216417715155
 30
0.0
 10
2.534595475577649
 20
5.238758362074291
 30
0.0
 10
2.4542568091665697
 20
5.40314869164935
 30
0.0
 10
2.2570111229403573
 20
5.550858695258427
 30
0.0
  0
SPLINE
  5
CC
330
17
100
AcDbEntity
  8
visible
100
AcDbSpline
 70
0
 71
2
 72
8
 73
5
 74
0
 40
0.0
 40
0.0
 40
0.0
 40
0.5
 40
0.5
 40
1.0
 40
1.0
 40
1.0
 10
-2.216184510470656
 20
5.844501764430733
 30
0.0
 10
-2.4978332300937716
 20
5.708109986734444
 30
0.0
 10
-2.50000180058498
 20
5.550851134243329
 30
0.0
 10
-2.4978303348479605
 20
5.393592105728195
 30
0.0
 10
-2.2161743780738146
 20
5.257196854813338
 30
0.0
  0
SPLINE
  5
CD
330
17
100
AcDbEntity
  8
visible
100
AcDbSpline
 70
0
 71
3
 72
11
 73
7
 74
0
 40
0.0
 40
0.0
 40
0.0
 40
0.0
 40
0.5000000000000036
 40
0.5000000000000036
 40
0.5000000000000036
 40
1.0
 40
1.0
 40
1.0
 40
1.0
 10
-2.2161743780738146
 20
5.257196854813339
 30
0.0
 10
-1.8336003349019017
 20
5.070361592570473
 30
0.0
 10
-1.0512242698510688
 20
4.952378237092031
 30
0.0
 10
-0.2140611797770039
 20
4.973151234464293
 30
0.0
 10
0.6219394022065838
 20
4.989809073929949
 30
0.0
 10
1.4817718321654132
 20
5.146029510104613
 30
0.0
 10
1.986273072219482
 20
5.390842891873663
 30
0.0
  0
SPLINE
  5
CE
330
17
100
AcDbEntity
  8
visible
100
AcDbSpline
 70
0
 71
3
 72
11
 73
7
 74
0
 40
0.0
 40
0.0
 40
0.0
 40
0.0
 40
0.5000000000000064
 40
0.5000000000000064
 40
0.5000000000000064
 40
1.0
 40
1.0
 40
1.0
 40
1.0
 10
1.986273072219481
 20
5.3908428918736595
 30
0.0
 10
2.264494400731432
 20
5.523444466131505
 30
0.0
 10
2.439660964110731
 20
5.679716202623193
 30
0.0
 10
2.4864910708585573
 20
5.84030278472091
 30
0.0
 10
2.5346202945603173
 20
6.000848108410315
 30
0.0
 10
2.4542514376058158
 20
6.165235284898244
 30
0.0
 10
2.2569868476089114
 20
6.312936951220233
 30
0.0
  0
SPLINE
  5
CF
330
17
100
AcDbEntity
  8
visible
100
AcDbSpline
 70
0
 71
2
 72
8
 73
5
 74
0
 40
0.0
 40
0.0
 40
0.0
 40
0.4999999999999927
 40
0.4999999999999927
 40
1.0
 40
1.0
 40
1.0
 10
-2.2161366346896276
 20
6.606607404508239
 30
0.0
 10
-2.497807246738045
 20
6.4702010726855566
 30
0.0
 10
-2.499979416363793
 20
6.312934676624657
 30
0.0
 10
-2.4978210526810667
 20
6.155670044982042
 30
0.0
 10
-2.216160666079811
 20
6.019270833193461
 30
0.0
  0
SPLINE
  5
D0
330
17
100
AcDbEntity
  8
visible
100
AcDbSpline
 70
0
 71
3
 72
11
 73
7
 74
0
 40
0.0
 40
0.0
 40
0.0
 40
0.0
 40
0.5
 40
0.5
 40
0.5
 40
1.0
 40
1.0
 40
1.0
 40
1.0
 10
-2.2161606660798117
 20
6.0192708331934615
 30
0.0
 10
-1.8336165264823572
 20
5.83244720257807
 30
0.0
 10
-1.051228649074735
 20
5.714448108614561
 30
0.0
 10
-0.21405251433387718
 20
5.7352172824298675
 30
0.0
 10
0.621961506015186
 20
5.751870471329187
 30
0.0
 10
1.4817573678738856
 20
5.908105153831354
 30
0.0
 10
1.9862401047383074
 20
6.152915288578282
 30
0.0
  0
SPLINE
  5
D1
330
17
100
AcDbEntity
  8
visible
100
AcDbSpline
 70
0
 71
3
 72
11
 73
7
 74
0
 40
0.0
 40
0.0
 40
0.0
 40
0.0
 40
0.5
 40
0.5
 40
0.5
 40
1.0
 40
1.0
 40
1.0
 40
1.0
 10
1.9862401047383071
 20
6.152915288578281
 30
0.0
 10
2.264459847629203
 20
6.285518764825221
 30
0.0
 10
2.4396322663839487
 20
6.441787685286855
 30
0.0
 10
2.4864757747062582
 20
6.60237072024727
 30
0.0
 10
2.5346178239099073
 20
6.7629125161845
 30
0.0
 10
2.454266876644971
 20
6.9272973138302945
 30
0.0
 10
2.2570058388820455
 20
7.075003053028698
 30
0.0
  0
SPLINE
  5
D2
330
17
100
AcDbEntity
  8
visible
100
AcDbSpline
 70
0
 71
3
 72
11
 73
7
 74
0
 40
0.0
 40
0.0
 40
0.0
 40
0.0
 40
0.5
 40
0.5
 40
0.5
 40
1.0
 40
1.0
 40
1.0
 40
1.0
 10
1.4547049044837044
 20
7.427753010719435
 30
0.0
 10
0.9399234811919747
 20
7.571438634784154
 30
0.0
 10
0.28027669284274515
 20
7.651457926594943
 30
0.0
 10
-0.34783881462864596
 20
7.654637141991713
 30
0.0
 10
-0.976608556819596
 20
7.659228465075124
 30
0.0
 10
-1.566039033114105
 20
7.58731656284901
 30
0.0
 10
-1.9586155583496163
 20
7.46635436255893
 30
0.0
  0
SPLINE
  5
D3
330
17
100
AcDbEntity
  8
visible
100
AcDbSpline
 70
0
 71
2
 72
6
 73
3
 74
0
 40
0.0
 40
0.0
 40
0.0
 40
1.0
 40
1.0
 40
1.0
 10
-2.019999999999826
 20
7.446723859321139
 30
0.0
 10
-2.129895414288445
 20
7.409896393161912
 30
0.0
 10
-2.216242155351323
 20
7.368620781153449
 30
0.0
  0
SPLINE
  5
D4
330
17
100
AcDbEntity
  8
visible
100
AcDbSpline
 70
0
 71
3
 72
11
 73
7
 74
0
 40
0.0
 40
0.0
 40
0.0
 40
0.0
 40
0.6868713392216123
 40
0.6868713392216123
 40
0.6868713392216123
 40
1.0
 40
1.0
 40
1.0
 40
1.0
 10
-2.2162421553513236
 20
7.3686207811534485
 30
0.0
 10
-2.4725330978750217
 20
7.246878413412288
 30
0.0
 10
-2.559635870091429
 20
7.0989450151466
 30
0.0
 10
-2.459674775245972
 20
6.960751179480085
 30
0.0
 10
-2.4142113468449002
 20
6.8972187481121265
 30
0.0
 10
-2.3330449550829346
 20
6.837413017468207
 30
0.0
 10
-2.2161755999600747
 20
6.781333987548323
 30
0.0
  0
SPLINE
  5
D5
330
17
100
AcDbEntity
  8
visible
100
AcDbSpline
 70
0
 71
3
 72
11
 73
7
 74
0
 40
0.0
 40
0.0
 40
0.0
 40
0.0
 40
0.5
 40
0.5
 40
0.5
 40
1.0
 40
1.0
 40
1.0
 40
1.0
 10
-2.2161755999600743
 20
6.781333987548322
 30
0.0
 10
-1.833585497540002
 20
6.594504968674947
 30
0.0
 10
-1.0511439658159107
 20
6.476530966008593
 30
0.0
 10
-0.21402510808979824
 20
6.4972967286749395
 30
0.0
 10
0.6219429991950008
 20
6.513948747404971
 30
0.0
 10
1.4817695707046372
 20
6.670180804552317
 30
0.0
 10
1.9862828263695627
 20
6.915000148596938
 30
0.0
  0
SPLINE
  5
D6
330
17
100
AcDbEntity
  8
visible
100
AcDbSpline
 70
0
 71
3
 72
11
 73
7
 74
0
 40
0.0
 40
0.0
 40
0.0
 40
0.0
 40
0.5000000000000054
 40
0.5000000000000054
 40
0.5000000000000054
 40
1.0
 40
1.0
 40
1.0
 40
1.0
 10
1.9862828263695622
 20
6.915000148596938
 30
0.0
 10
2.3123750155107503
 20
7.0701586668593945
 30
0.0
 10
2.495457816376852
 20
7.257917219334802
 30
0.0
 10
2.4998722250682874
 20
7.4467622486734815
 30
0.0
 10
2.5067093284126414
 20
7.635599771367131
 30
0.0
 10
2.334847234811639
 20
7.824488186224026
 30
0.0
 10
2.017772616449322
 20
7.981701059377862
 30
0.0
  0
SPLINE
  5
D7
330
17
100
AcDbEntity
  8
visible
100
AcDbSpline
 70
0
 71
2
 72
8
 73
5
 74
0
 40
0.0
 40
0.0
 40
0.0
 40
0.5
 40
0.5
 40
1.0
 40
1.0
 40
1.0
 10
-2.216186247870708
 20
8.13072107291887
 30
0.0
 10
-2.4978468400343434
 20
7.9943229636973925
 30
0.0
 10
-2.499994855492443
 20
7.837069977384452
 30
0.0
 10
-2.4978028175140046
 20
7.679817595835063
 30
0.0
 10
-2.2161386470518614
 20
7.543418935415521
 30
0.0
  0
SPLINE
  5
D8
330
17
100
AcDbEntity
  8
visible
100
AcDbSpline
 70
0
 71
3
 72
11
 73
7
 74
0
 40
0.0
 40
0.0
 40
0.0
 40
0.0
 40
0.43668259803025294
 40
0.43668259803025294
 40
0.43668259803025294
 40
1.0
 40
1.0
 40
1.0
 40
1.0
 10
-2.216138647051861
 20
7.54341893541552
 30
0.0
 10
-1.8808753385683208
 20
7.380801894668264
 30
0.0
 10
-1.2447066068857482
 20
7.268713280189269
 30
0.0
 10
-0.5281052980018168
 20
7.258321159245637
 30
0.0
 10
0.39631608016049447
 20
7.239935275092507
 30
0.0
 10
1.4190333132051223
 20
7.400234353872528
 30
0.0
 10
1.9862856944607012
 20
7.677086743692474
 30
0.0
  0
SPLINE
  5
D9
330
17
100
AcDbEntity
  8
visible
100
AcDbSpline
 70
0
 71
3
 72
11
 73
7
 74
0
 40
0.0
 40
0.0
 40
0.0
 40
0.0
 40
0.5000000000000054
 40
0.5000000000000054
 40
0.5000000000000054
 40
1.0
 40
1.0
 40
1.0
 40
1.0
 10
1.986285694460701
 20
7.677086743692472
 30
0.0
 10
2.311975235875746
 20
7.832057664087859
 30
0.0
 10
2.4950232306661113
 20
8.019545549345946
 30
0.0
 10
2.4998468147941235
 20
8.208168182175813
 30
0.0
 10
2.507081796270756
 20
8.39678189614516
 30
0.0
 10
2.336052856796698
 20
8.58549855507352
 30
0.0
 10
2.0199999999999907
 20
8.742676805317627
 30
0.0
  0
SPLINE
  5
DA
330
17
100
AcDbEntity
  8
visible
100
AcDbSpline
 70
0
 71
2
 72
8
 73
5
 74
0
 40
0.0
 40
0.0
 40
0.0
 40
0.5000000000000073
 40
0.5000000000000073
 40
1.0
 40
1.0
 40
1.0
 10
-2.21619964488253
 20
8.892792267812412
 30
0.0
 10
-2.4978456870482413
 20
8.756402517756797
 30
0.0
 10
-2.500007795976001
 20
8.599148084754175
 30
0.0
 10
-2.497829043017421
 20
8.441892809672947
 30
0.0
 10
-2.2161721501405927
 20
8.305496964191374
 30
0.0
  0
SPLINE
  5
DB
330
17
100
AcDbEntity
  8
visible
100
AcDbSpline
 70
0
 71
3
 72
11
 73
7
 74
0
 40
0.0
 40
0.0
 40
0.0
 40
0.0
 40
0.5
 40
0.5
 40
0.5
 40
1.0
 40
1.0
 40
1.0
 40
1.0
 10
-2.2161721501405927
 20
8.30549696419137
 30
0.0
 10
-1.8335956358284649
 20
8.11866013988147
 30
0.0
 10
-1.051265451313253
 20
8.0006788395629
 30
0.0
 10
-0.2141228453426962
 20
8.021447262150346
 30
0.0
 10
0.62185723956063
 20
8.038098711122297
 30
0.0
 10
1.4817480406721577
 20
8.194292214879036
 30
0.0
 10
1.986219495318697
 20
8.439118508216831
 30
0.0
  0
SPLINE
  5
DC
330
17
100
AcDbEntity
  8
visible
100
AcDbSpline
 70
0
 71
1
 72
4
 73
2
 74
0
 40
0.0
 40
0.0
 40
1.0
 40
1.0
 10
1.986219495318697
 20
8.439118508216833
 30
0.0
 10
2.055480479048897
 20
8.47378799154205
 30
0.0
  0
SPLINE
  5
DD
330
17
100
AcDbEntity
  8
visible
100
AcDbSpline
 70
0
 71
1
 72
4
 73
2
 74
0
 40
0.0
 40
0.0
 40
1.0
 40
1.0
 10
1.6608282271204475
 20
-6.193453137696346
 30
0.0
 10
2.055480479109446
 20
-6.005620492799833
 30
0.0
  0
SPLINE
  5
DE
330
17
100
AcDbEntity
  8
visible
100
AcDbSpline
 70
0
 71
1
 72
4
 73
2
 74
0
 40
0.0
 40
0.0
 40
0.557950393830212
 40
0.557950393830212
 10
2.055480479109445
 20
-6.005620492799835
 30
0.0
 10
1.6608282271204484
 20
-5.651533755885122
 30
0.0
  0
SPLINE
  5
DF
330
17
100
AcDbEntity
  8
visible
100
AcDbSpline
 70
0
 71
3
 72
8
 73
4
 74
0
 40
0.0
 40
0.0
 40
0.0
 40
0.0
 40
0.08890697767573631
 40
0.08890697767573631
 40
0.08890697767573631
 40
0.08890697767573631
 10
1.6608282271204329
 20
-5.65153375588511
 30
0.0
 10
1.8754417716369158
 20
-5.534922836717433
 30
0.0
 10
2.0006923390614255
 20
-5.399717016294945
 30
0.0
 10
2.0177684751499907
 20
-5.262814111791418
 30
0.0
  0
SPLINE
  5
E0
330
17
100
AcDbEntity
  8
visible
100
AcDbSpline
 70
0
 71
2
 72
6
 73
3
 74
0
 40
0.0
 40
0.0
 40
0.0
 40
1.0
 40
1.0
 40
1.0
 10
1.9972980691526534
 20
-5.11818918167644
 30
0.0
 10
1.937028044086187
 20
-4.974858325274366
 30
0.0
 10
1.7332708546777422
 20
-4.847233244539258
 30
0.0
  0
SPLINE
  5
E1
330
17
100
AcDbEntity
  8
visible
100
AcDbSpline
 70
0
 71
3
 72
17
 73
13
 74
0
 40
0.0
 40
0.0
 40
0.0
 40
0.0
 40
0.38011253010221807
 40
0.38011253010221807
 40
0.38011253010221807
 40
0.4707178091619093
 40
0.4707178091619093
 40
0.4707178091619093
 40
0.7660844316911563
 40
0.7660844316911563
 40
0.7660844316911563
 40
1.0
 40
1.0
 40
1.0
 40
1.0
 10
-2.0199903114822324
 20
-4.847224090919341
 30
0.0
 10
-2.024707448715163
 20
-5.006336155562063
 30
0.0
 10
-1.6895757881444389
 20
-5.162300492275708
 30
0.0
 10
-1.151980364775624
 20
-5.235150350954956
 30
0.0
 10
-1.0243311319572006
 20
-5.25280383758581
 30
0.0
 10
-0.8882866768780182
 20
-5.265699718825016
 30
0.0
 10
-0.7438469995380785
 20
-5.273837994672583
 30
0.0
 10
-0.27486598380112826
 20
-5.300638740949914
 30
0.0
 10
0.26461142666655935
 20
-5.270762342494984
 30
0.0
 10
0.7344902188643174
 20
-5.18408403814651
 30
0.0
 10
1.1070286644630833
 20
-5.116097030570689
 30
0.0
 10
1.43389837293034
 20
-5.013523448286858
 30
0.0
 10
1.6608282271204327
 20
-4.889466169892008
 30
0.0
  0
LINE
  5
E2
330
17
100
AcDbEntity
  8
visible
100
AcDbLine
 10
1.6608282271204324
 20
-4.889466169892007
 30
0.0
 11
1.6608282271204324
 21
-4.671812606818883
 31
0.0
  0
SPLINE
  5
E3
330
17
100
AcDbEntity
  8
visible
100
AcDbSpline
 70
0
 71
3
 72
8
 73
4
 74
0
 40
0.0
 40
0.0
 40
0.0
 40
0.0
 40
0.08890383537623942
 40
0.08890383537623942
 40
0.08890383537623942
 40
0.08890383537623942
 10
1.6608282271204335
 20
-4.889466169892007
 30
0.0
 10
1.8754449559760473
 20
-4.772877105675537
 30
0.0
 10
2.0006787214007753
 20
-4.637675112884764
 30
0.0
 10
2.0177704816854605
 20
-4.500749869710969
 30
0.0
  0
SPLINE
  5
E4
330
17
100
AcDbEntity
  8
visible
100
AcDbSpline
 70
0
 71
3
 72
8
 73
4
 74
0
 40
0.0
 40
0.0
 40
0.0
 40
0.0
 40
1.0
 40
1.0
 40
1.0
 40
1.0
 10
1.5219680602725836
 20
-3.9750664212545734
 30
0.0
 10
1.2447705779674396
 20
-3.8526219084337856
 30
0.0
 10
0.8646153838468369
 20
-3.75801198860752
 30
0.0
 10
0.4525307946651149
 20
-3.7041153768869606
 30
0.0
  0
SPLINE
  5
E5
330
17
100
AcDbEntity
  8
visible
100
AcDbSpline
 70
0
 71
3
 72
8
 73
4
 74
0
 40
0.0
 40
0.0
 40
0.0
 40
0.0
 40
1.0
 40
1.0
 40
1.0
 40
1.0
 10
-1.1998603041498312
 20
-3.7041118015539602
 30
0.0
 10
-1.4574197000300289
 20
-3.7426522929091512
 30
0.0
 10
-1.6685762725838083
 20
-3.8001402096949883
 30
0.0
 10
-1.8103243309451766
 20
-3.8682422749379315
 30
0.0
  0
SPLINE
  5
E6
330
17
100
AcDbEntity
  8
visible
100
AcDbSpline
 70
0
 71
2
 72
6
 73
3
 74
0
 40
0.0
 40
0.0
 40
0.0
 40
1.0
 40
1.0
 40
1.0
 10
-1.8103243309451762
 20
-3.8682422749379315
 30
0.0
 10
-1.915672044403904
 20
-3.9188617939849806
 30
0.0
 10
-1.9688468922042255
 20
-3.9750710708836254
 30
0.0
  0
SPLINE
  5
E7
330
17
100
AcDbEntity
  8
visible
100
AcDbSpline
 70
0
 71
3
 72
17
 73
13
 74
0
 40
0.0
 40
0.0
 40
0.0
 40
0.0
 40
0.16529936059286143
 40
0.16529936059286143
 40
0.16529936059286143
 40
0.48589829262806117
 40
0.48589829262806117
 40
0.48589829262806117
 40
0.6968516012747846
 40
0.6968516012747846
 40
0.6968516012747846
 40
1.0
 40
1.0
 40
1.0
 40
1.0
 10
-2.0200013364239773
 20
-4.085152497733183
 30
0.0
 10
-2.019314122692259
 20
-4.155316521187342
 30
0.0
 10
-1.9610138183906969
 20
-4.221750791521694
 30
0.0
 10
-1.845100423519281
 20
-4.2844553087362245
 30
0.0
 10
-1.6241552095512946
 20
-4.404277671091138
 30
0.0
 10
-1.1889433127905764
 20
-4.493552843620557
 30
0.0
 10
-0.6709044412805278
 20
-4.515399065157406
 30
0.0
 10
-0.3312985902299683
 20
-4.530318412597915
 30
0.0
 10
0.040821922378158446
 20
-4.516748079789378
 30
0.0
 10
0.39420376874486096
 20
-4.473573739820698
 30
0.0
 10
0.9030906940145236
 20
-4.412275275948118
 30
0.0
 10
1.3673688725181823
 20
-4.288469937530991
 30
0.0
 10
1.660828227120433
 20
-4.127383620677517
 30
0.0
  0
LINE
  5
E8
330
17
100
AcDbEntity
  8
visible
100
AcDbLine
 10
1.6608282271204324
 20
-4.127383620677518
 30
0.0
 11
1.6608282271204324
 21
-3.9072235587761988
 31
0.0
  0
SPLINE
  5
E9
330
17
100
AcDbEntity
  8
visible
100
AcDbSpline
 70
0
 71
3
 72
8
 73
4
 74
0
 40
0.0
 40
0.0
 40
0.0
 40
0.0
 40
0.09646615925500966
 40
0.09646615925500966
 40
0.09646615925500966
 40
0.09646615925500966
 10
1.6608282271204322
 20
-4.127383620677517
 30
0.0
 10
1.8936365845597791
 20
-4.001000416311734
 30
0.0
 10
2.0207895522477384
 20
-3.852720282252496
 30
0.0
 10
2.0199970184860487
 20
-3.7041232303646185
 30
0.0
  0
SPLINE
  5
EA
330
17
100
AcDbEntity
  8
visible
100
AcDbSpline
 70
0
 71
2
 72
6
 73
3
 74
0
 40
0.0
 40
0.0
 40
0.0
 40
1.0
 40
1.0
 40
1.0
 10
1.9973009355468563
 20
-3.594037173246371
 30
0.0
 10
1.9370781306334344
 20
-3.4507536280872166
 30
0.0
 10
1.73327007243102
 20
-3.323081753716049
 30
0.0
  0
SPLINE
  5
EB
330
17
100
AcDbEntity
  8
visible
100
AcDbSpline
 70
0
 71
3
 72
17
 73
13
 74
0
 40
0.0
 40
0.0
 40
0.0
 40
0.0
 40
0.25169563584585
 40
0.25169563584585
 40
0.25169563584585
 40
0.5033912716917002
 40
0.5033912716917002
 40
0.5033912716917002
 40
0.7516956358458501
 40
0.7516956358458501
 40
0.7516956358458501
 40
1.0
 40
1.0
 40
1.0
 40
1.0
 10
-2.0199999497024805
 20
-3.32307841323353
 30
0.0
 10
-2.020998499418363
 20
-3.428093146950724
 30
0.0
 10
-1.879141641719524
 20
-3.532829803496593
 30
0.0
 10
-1.6221896654778993
 20
-3.6118722996913895
 30
0.0
 10
-1.366906729152031
 20
-3.6912892581954075
 30
0.0
 10
-0.9971888541669319
 20
-3.7446056992340093
 30
0.0
 10
-0.5854657287165118
 20
-3.7564217871318935
 30
0.0
 10
-0.17989477298849263
 20
-3.7686426857187447
 30
0.0
 10
0.26521583806806903
 20
-3.7403535646804498
 30
0.0
 10
0.6652207847109808
 20
-3.6721590062067806
 30
0.0
 10
1.0658622101234005
 20
-3.6045296931586965
 30
0.0
 10
1.4202923013485955
 20
-3.496988055660248
 30
0.0
 10
1.6608282271204327
 20
-3.365318688842189
 30
0.0
  0
LINE
  5
EC
330
17
100
AcDbEntity
  8
visible
100
AcDbLine
 10
1.6608282271204324
 20
-3.3653186888421884
 30
0.0
 11
1.6608282271204324
 21
-3.1476683923951008
 31
0.0
  0
SPLINE
  5
ED
330
17
100
AcDbEntity
  8
visible
100
AcDbSpline
 70
0
 71
3
 72
8
 73
4
 74
0
 40
0.0
 40
0.0
 40
0.0
 40
0.0
 40
0.0889465389692818
 40
0.0889465389692818
 40
0.0889465389692818
 40
0.0889465389692818
 10
1.6608282271204327
 20
-3.365318688842188
 30
0.0
 10
1.8754070246858836
 20
-3.2487312082111552
 30
0.0
 10
2.0006836107577004
 20
-3.1135348902415028
 30
0.0
 10
2.0177684656138797
 20
-2.9766079268688976
 30
0.0
  0
SPLINE
  5
EE
330
17
100
AcDbEntity
  8
visible
100
AcDbSpline
 70
0
 71
3
 72
8
 73
4
 74
0
 40
0.0
 40
0.0
 40
0.0
 40
0.0
 40
1.0
 40
1.0
 40
1.0
 40
1.0
 10
1.5219602122454825
 20
-2.4509200348007534
 30
0.0
 10
1.2448644678111642
 20
-2.3285247018982487
 30
0.0
 10
0.8644896605588004
 20
-2.2338366621230676
 30
0.0
 10
0.45257613919210704
 20
-2.17996837233915
 30
0.0
  0
SPLINE
  5
EF
330
17
100
AcDbEntity
  8
visible
100
AcDbSpline
 70
0
 71
2
 72
6
 73
3
 74
0
 40
0.0
 40
0.0
 40
0.0
 40
1.0
 40
1.0
 40
1.0
 10
-1.810288580643836
 20
-2.3440657731674324
 30
0.0
 10
-1.9156152466671994
 20
-2.3946673039953756
 30
0.0
 10
-1.9688476499183785
 20
-2.45092323252023
 30
0.0
  0
SPLINE
  5
F0
330
17
100
AcDbEntity
  8
visible
100
AcDbSpline
 70
0
 71
3
 72
17
 73
13
 74
0
 40
0.0
 40
0.0
 40
0.0
 40
0.0
 40
0.10719300364862538
 40
0.10719300364862538
 40
0.10719300364862538
 40
0.4654901452988215
 40
0.4654901452988215
 40
0.4654901452988215
 40
0.8018454989329798
 40
0.8018454989329798
 40
0.8018454989329798
 40
1.0
 40
1.0
 40
1.0
 40
1.0
 10
-2.0200001475275218
 20
-2.5609926639535114
 30
0.0
 10
-2.0198623215094784
 20
-2.606080234804143
 30
0.0
 10
-1.9951063953996986
 20
-2.6501214069310293
 30
0.0
 10
-1.9457323691981772
 20
-2.693116180334175
 30
0.0
 10
-1.7845528149149952
 20
-2.836470468026776
 30
0.0
 10
-1.33679453744459
 20
-2.953060811910003
 30
0.0
 10
-0.7682301719510637
 20
-2.986205574267058
 30
0.0
 10
-0.2370802748492136
 20
-3.019135594927177
 30
0.0
 10
0.38825426107921035
 20
-2.977712444023602
 30
0.0
 10
0.901893826538131
 20
-2.8642710323295573
 30
0.0
 10
1.2047531996872958
 20
-2.798124486951425
 30
0.0
 10
1.4685181059173953
 20
-2.70825474221312
 30
0.0
 10
1.6608282271204329
 20
-2.603232657666939
 30
0.0
  0
LINE
  5
F1
330
17
100
AcDbEntity
  8
visible
100
AcDbLine
 10
1.6608282271204324
 20
-2.6032326576669385
 30
0.0
 11
1.6608282271204324
 21
-2.3830837877560684
 31
0.0
  0
SPLINE
  5
F2
330
17
100
AcDbEntity
  8
visible
100
AcDbSpline
 70
0
 71
3
 72
8
 73
4
 74
0
 40
0.0
 40
0.0
 40
0.0
 40
0.0
 40
0.09640792616643727
 40
0.09640792616643727
 40
0.09640792616643727
 40
0.09640792616643727
 10
1.6608282271204327
 20
-2.6032326576669393
 30
0.0
 10
1.8936369858355802
 20
-2.476848510877177
 30
0.0
 10
2.0207841788072516
 20
-2.3285793672932735
 30
0.0
 10
2.019994556162892
 20
-2.179980595336713
 30
0.0
  0
SPLINE
  5
F3
330
17
100
AcDbEntity
  8
visible
100
AcDbSpline
 70
0
 71
2
 72
6
 73
3
 74
0
 40
0.0
 40
0.0
 40
0.0
 40
1.0
 40
1.0
 40
1.0
 10
1.9972987495091779
 20
-2.0698920414160606
 30
0.0
 10
1.937091475137044
 20
-1.9266308941992558
 30
0.0
 10
1.7332614602137413
 20
-1.7989300525128926
 30
0.0
  0
SPLINE
  5
F4
330
17
100
AcDbEntity
  8
visible
100
AcDbSpline
 70
0
 71
3
 72
14
 73
10
 74
0
 40
0.0
 40
0.0
 40
0.0
 40
0.0
 40
0.28710153987043713
 40
0.28710153987043713
 40
0.28710153987043713
 40
0.6618904289966513
 40
0.6618904289966513
 40
0.6618904289966513
 40
1.0
 40
1.0
 40
1.0
 40
1.0
 10
-2.0199912780774683
 20
-1.7989252495347472
 30
0.0
 10
-2.0216224687990243
 20
-1.9188132110204583
 30
0.0
 10
-1.8356024250847582
 20
-2.037848569039957
 30
0.0
 10
-1.5078895230086429
 20
-2.1195612519716382
 30
0.0
 10
-1.0841142236149146
 20
-2.227851035680965
 30
0.0
 10
-0.4203405742899544
 20
-2.267117589891297
 30
0.0
 10
0.21750525253572428
 20
-2.2063351614178064
 30
0.0
 10
0.793048826151758
 20
-2.153624137240826
 30
0.0
 10
1.3340023070454503
 20
-2.021049652928496
 30
0.0
 10
1.660828227120433
 20
-1.8411606817897246
 30
0.0
  0
LINE
  5
F5
330
17
100
AcDbEntity
  8
visible
100
AcDbLine
 10
1.6608282271204324
 20
-1.8411606817897264
 30
0.0
 11
1.6608282271204324
 21
-1.6235301101604334
 31
0.0
  0
SPLINE
  5
F6
330
17
100
AcDbEntity
  8
visible
100
AcDbSpline
 70
0
 71
3
 72
8
 73
4
 74
0
 40
0.0
 40
0.0
 40
0.0
 40
0.0
 40
0.08892313578574124
 40
0.08892313578574124
 40
0.08892313578574124
 40
0.08892313578574124
 10
1.6608282271204335
 20
-1.8411606817897246
 30
0.0
 10
1.875411098701836
 20
-1.7245728466072563
 30
0.0
 10
2.0006726523534617
 20
-1.5893970974068616
 30
0.0
 10
2.0177661665450004
 20
-1.452472794927934
 30
0.0
  0
SPLINE
  5
F7
330
17
100
AcDbEntity
  8
visible
100
AcDbSpline
 70
0
 71
3
 72
20
 73
16
 74
0
 40
0.0
 40
0.0
 40
0.0
 40
0.0
 40
0.0786606449910416
 40
0.0786606449910416
 40
0.0786606449910416
 40
0.29801938987393006
 40
0.29801938987393006
 40
0.29801938987393006
 40
0.5173781347568183
 40
0.5173781347568183
 40
0.5173781347568183
 40
0.7521201707331048
 40
0.7521201707331048
 40
0.7521201707331048
 40
1.0
 40
1.0
 40
1.0
 40
1.0
 10
-2.0199863985576023
 20
-1.0368348266854275
 30
0.0
 10
-2.0199532141967396
 20
-1.0697841223338727
 30
0.0
 10
-2.0066070749373086
 20
-1.102318684639573
 30
0.0
 10
-1.9799479807793001
 20
-1.1344385136025295
 30
0.0
 10
-1.9062729753921785
 20
-1.2237216145875447
 30
0.0
 10
-1.7272969876647621
 20
-1.306402154714368
 30
0.0
 10
-1.46987137918453
 20
-1.3667412414473996
 30
0.0
 10
-1.2133178440768357
 20
-1.427328511055159
 30
0.0
 10
-0.8786647882207673
 20
-1.4653884144777385
 30
0.0
 10
-0.5163464060573157
 20
-1.4718578636992155
 30
0.0
 10
-0.12902866778147254
 20
-1.4791864325624344
 30
0.0
 10
0.28909722466757243
 20
-1.450130306956077
 30
0.0
 10
0.667300858155106
 20
-1.385568397276678
 30
0.0
 10
1.0673152003892519
 20
-1.3178652098661243
 30
0.0
 10
1.4205294087478137
 20
-1.2105828664747154
 30
0.0
 10
1.660828227120434
 20
-1.0790742499488726
 30
0.0
  0
LINE
  5
F8
330
17
100
AcDbEntity
  8
visible
100
AcDbLine
 10
1.6608282271204324
 20
-1.0790742499488726
 30
0.0
 11
1.6608282271204324
 21
-0.8589293672130056
 31
0.0
  0
SPLINE
  5
F9
330
17
100
AcDbEntity
  8
visible
100
AcDbSpline
 70
0
 71
3
 72
8
 73
4
 74
0
 40
0.0
 40
0.0
 40
0.0
 40
0.0
 40
0.09642076115172955
 40
0.09642076115172955
 40
0.09642076115172955
 40
0.09642076115172955
 10
1.660828227120434
 20
-1.0790742499488726
 30
0.0
 10
1.8936359032106753
 20
-0.9527087418139528
 30
0.0
 10
2.0207816160318495
 20
-0.804435097473166
 30
0.0
 10
2.019997192288228
 20
-0.6558310305842552
 30
0.0
  0
SPLINE
  5
FA
330
17
100
AcDbEntity
  8
visible
100
AcDbSpline
 70
0
 71
2
 72
6
 73
3
 74
0
 40
0.0
 40
0.0
 40
0.0
 40
1.0
 40
1.0
 40
1.0
 10
1.9973022184384988
 20
-0.5457535634104436
 30
0.0
 10
1.9370686267952126
 20
-0.4024452113703158
 30
0.0
 10
1.7332738917339743
 20
-0.2747801098817356
 30
0.0
  0
SPLINE
  5
FB
330
17
100
AcDbEntity
  8
visible
100
AcDbSpline
 70
0
 71
3
 72
14
 73
10
 74
0
 40
0.0
 40
0.0
 40
0.0
 40
0.0
 40
0.4020740956904817
 40
0.4020740956904817
 40
0.4020740956904817
 40
0.6909755152891375
 40
0.6909755152891375
 40
0.6909755152891375
 40
1.0
 40
1.0
 40
1.0
 40
1.0
 10
-2.020013257248354
 20
-0.27478292373054986
 30
0.0
 10
-2.025742056823675
 20
-0.44328797901717054
 30
0.0
 10
-1.6479056930494236
 20
-0.6076415208968107
 30
0.0
 10
-1.0576853891508615
 20
-0.6746992484851826
 30
0.0
 10
-0.6377603181259323
 20
-0.7241968169026383
 30
0.0
 10
-0.12066719694249847
 20
-0.7239362129862799
 30
0.0
 10
0.3647382807703661
 20
-0.6667201126932687
 30
0.0
 10
0.8847575148131095
 20
-0.6066720931222185
 30
0.0
 10
1.3618026934692267
 20
-0.48125739554112135
 30
0.0
 10
1.660828227120435
 20
-0.31701920103869163
 30
0.0
  0
LINE
  5
FC
330
17
100
AcDbEntity
  8
visible
100
AcDbLine
 10
1.6608282271204324
 20
-0.31701920103869163
 30
0.0
 11
1.6608282271204324
 21
-0.0993678935994815
 31
0.0
  0
SPLINE
  5
FD
330
17
100
AcDbEntity
  8
visible
100
AcDbSpline
 70
0
 71
3
 72
8
 73
4
 74
0
 40
0.0
 40
0.0
 40
0.0
 40
0.0
 40
0.08895789192093796
 40
0.08895789192093796
 40
0.08895789192093796
 40
0.08895789192093796
 10
1.6608282271204344
 20
-0.31701920103869163
 30
0.0
 10
1.8754377110307723
 20
-0.20042606809403526
 30
0.0
 10
2.000667086995154
 20
-0.0652079757743733
 30
0.0
 10
2.01776931175123
 20
0.07169382010164549
 30
0.0
  0
SPLINE
  5
FE
330
17
100
AcDbEntity
  8
visible
100
AcDbSpline
 70
0
 71
2
 72
6
 73
3
 74
0
 40
0.0
 40
0.0
 40
0.0
 40
1.0
 40
1.0
 40
1.0
 10
1.9973005382439133
 20
0.21633378893882482
 30
0.0
 10
1.937062335797835
 20
0.359644100393246
 30
0.0
 10
1.733282365048157
 20
0.4873017324189808
 30
0.0
  0
SPLINE
  5
FF
330
17
100
AcDbEntity
  8
visible
100
AcDbSpline
 70
0
 71
3
 72
8
 73
4
 74
0
 40
0.0
 40
0.0
 40
0.0
 40
0.0
 40
1.0
 40
1.0
 40
1.0
 40
1.0
 10
-1.1998454856795344
 20
0.8683340314125751
 30
0.0
 10
-1.4574294340694176
 20
0.8297936131009881
 30
0.0
 10
-1.668728048432406
 20
0.7722553262880778
 30
0.0
 10
-1.8103368664593211
 20
0.7041929334554702
 30
0.0
  0
SPLINE
  5
100
330
17
100
AcDbEntity
  8
visible
100
AcDbSpline
 70
0
 71
2
 72
6
 73
3
 74
0
 40
0.0
 40
0.0
 40
0.0
 40
1.0
 40
1.0
 40
1.0
 10
-1.8103368664593207
 20
0.7041929334554702
 30
0.0
 10
-1.9156172626999315
 20
0.6535947313603079
 30
0.0
 10
-1.968841517615975
 20
0.5973637163524148
 30
0.0
  0
SPLINE
  5
101
330
17
100
AcDbEntity
  8
visible
100
AcDbSpline
 70
0
 71
3
 72
14
 73
10
 74
0
 40
0.0
 40
0.0
 40
0.0
 40
0.0
 40
0.14172687766800826
 40
0.14172687766800826
 40
0.14172687766800826
 40
0.5427299881341328
 40
0.5427299881341328
 40
0.5427299881341328
 40
1.0
 40
1.0
 40
1.0
 40
1.0
 10
-2.020004881028981
 20
0.4873104801354705
 30
0.0
 10
-2.019636861521034
 20
0.42745937078636786
 30
0.0
 10
-1.976645189203842
 20
0.3699506259063511
 30
0.0
 10
-1.89102986407741
 20
0.3147842454954204
 30
0.0
 10
-1.6546502739588342
 20
0.15948429738746678
 30
0.0
 10
-1.0663515822344325
 20
0.04886840642009652
 30
0.0
 10
-0.39088217469982656
 20
0.05122970493461261
 30
0.0
 10
0.378576731549247
 20
0.0490489746575813
 30
0.0
 10
1.2210929542258575
 20
0.1998903390903534
 30
0.0
 10
1.6608282271204324
 20
0.44505997266419506
 30
0.0
  0
LINE
  5
102
330
17
100
AcDbEntity
  8
visible
100
AcDbLine
 10
1.6608282271204324
 20
0.44505997266419595
 30
0.0
 11
1.6608282271204324
 21
0.662708155435924
 31
0.0
  0
SPLINE
  5
103
330
17
100
AcDbEntity
  8
visible
100
AcDbSpline
 70
0
 71
3
 72
8
 73
4
 74
0
 40
0.0
 40
0.0
 40
0.0
 40
0.0
 40
0.08888720482434267
 40
0.08888720482434267
 40
0.08888720482434267
 40
0.08888720482434267
 10
1.6608282271204322
 20
0.44505997266419506
 30
0.0
 10
1.8754184711548127
 20
0.5616296102035157
 30
0.0
 10
2.0007092934673256
 20
0.696890851445821
 30
0.0
 10
2.0177713974042604
 20
0.8337704461559401
 30
0.0
  0
SPLINE
  5
104
330
17
100
AcDbEntity
  8
visible
100
AcDbSpline
 70
0
 71
2
 72
6
 73
3
 74
0
 40
0.0
 40
0.0
 40
0.0
 40
1.0
 40
1.0
 40
1.0
 10
1.997299087655232
 20
0.9784047803073566
 30
0.0
 10
1.9369936463327075
 20
1.1217654901916565
 30
0.0
 10
1.7332640535959445
 20
1.2493667586549786
 30
0.0
  0
SPLINE
  5
105
330
17
100
AcDbEntity
  8
visible
100
AcDbSpline
 70
0
 71
1
 72
4
 73
2
 74
0
 40
0.0
 40
0.0
 40
1.0
 40
1.0
 10
1.521975924760437
 20
1.3594432405982813
 30
0.0
 10
1.454729398849183
 20
1.3877335659686787
 30
0.0
  0
SPLINE
  5
106
330
17
100
AcDbEntity
  8
visible
100
AcDbSpline
 70
0
 71
3
 72
20
 73
16
 74
0
 40
0.0
 40
0.0
 40
0.0
 40
0.0
 40
0.009617309041725718
 40
0.009617309041725718
 40
0.009617309041725718
 40
0.2218574829828572
 40
0.2218574829828572
 40
0.2218574829828572
 40
0.43409765692398844
 40
0.43409765692398844
 40
0.43409765692398844
 40
0.7922343988917615
 40
0.7922343988917615
 40
0.7922343988917615
 40
1.0
 40
1.0
 40
1.0
 40
1.0
 10
-2.0199999985519654
 20
1.2493714721210638
 30
0.0
 10
-2.0198000133108196
 20
1.2453642404398577
 30
0.0
 10
-2.019600028069674
 20
1.2413570087586534
 30
0.0
 10
-2.0194000428285284
 20
1.2373497770774473
 30
0.0
 10
-2.0110822303204308
 20
1.148884243231279
 30
0.0
 10
-1.9024298054367064
 20
1.061234301504705
 30
0.0
 10
-1.7086662464088773
 20
0.9897979490381488
 30
0.0
 10
-1.5157879621599717
 20
0.9181924140152273
 30
0.0
 10
-1.2380602051162246
 20
0.8629681988962958
 30
0.0
 10
-0.9146641909117565
 20
0.8349292722820355
 30
0.0
 10
-0.36991945940555804
 20
0.7861753627030895
 30
0.0
 10
0.3038940537613766
 20
0.8196308132815537
 30
0.0
 10
0.8574654868374865
 20
0.9365863883750969
 30
0.0
 10
1.1788570559334461
 20
1.0035678519893976
 30
0.0
 10
1.4592042186251357
 20
1.0969782633724523
 30
0.0
 10
1.660828227120433
 20
1.2071353749403642
 30
0.0
  0
LINE
  5
107
330
17
100
AcDbEntity
  8
visible
100
AcDbLine
 10
1.6608282271204324
 20
1.2071353749403642
 30
0.0
 11
1.6608282271204324
 21
1.4272862137290137
 31
0.0
  0
SPLINE
  5
108
330
17
100
AcDbEntity
  8
visible
100
AcDbSpline
 70
0
 71
3
 72
8
 73
4
 74
0
 40
0.0
 40
0.0
 40
0.0
 40
0.0
 40
0.08894569990828839
 40
0.08894569990828839
 40
0.08894569990828839
 40
0.08894569990828839
 10
1.6608282271204327
 20
1.2071353749403606
 30
0.0
 10
1.875438988562064
 20
1.3237231071278837
 30
0.0
 10
2.000698095008743
 20
1.458964912339853
 30
0.0
 10
2.0177703009740955
 20
1.5958420741570003
 30
0.0
  0
SPLINE
  5
109
330
17
100
AcDbEntity
  8
visible
100
AcDbSpline
 70
0
 71
2
 72
6
 73
3
 74
0
 40
0.0
 40
0.0
 40
0.0
 40
1.0
 40
1.0
 40
1.0
 10
1.9972988715583786
 20
1.740487549400453
 30
0.0
 10
1.937011592132049
 20
1.8838342480588524
 30
0.0
 10
1.7332706047410622
 20
2.011442248871939
 30
0.0
  0
SPLINE
  5
10A
330
17
100
AcDbEntity
  8
visible
100
AcDbSpline
 70
0
 71
3
 72
8
 73
4
 74
0
 40
0.0
 40
0.0
 40
0.0
 40
0.0
 40
1.0
 40
1.0
 40
1.0
 40
1.0
 10
-1.1998551061678069
 20
2.3924944863368385
 30
0.0
 10
-1.4574455251261889
 20
2.3539457818251983
 30
0.0
 10
-1.6686561512348979
 20
2.296420777120193
 30
0.0
 10
-1.810379116764148
 20
2.2283276157039187
 30
0.0
  0
SPLINE
  5
10B
330
17
100
AcDbEntity
  8
visible
100
AcDbSpline
 70
0
 71
2
 72
6
 73
3
 74
0
 40
0.0
 40
0.0
 40
0.0
 40
1.0
 40
1.0
 40
1.0
 10
-1.8103791167641483
 20
2.2283276157039182
 30
0.0
 10
-1.9156412936238796
 20
2.177746086956196
 30
0.0
 10
-1.968859002727044
 20
2.121516311025296
 30
0.0
  0
SPLINE
  5
10C
330
17
100
AcDbEntity
  8
visible
100
AcDbSpline
 70
0
 71
3
 72
17
 73
13
 74
0
 40
0.0
 40
0.0
 40
0.0
 40
0.0
 40
0.032163940727120435
 40
0.032163940727120435
 40
0.032163940727120435
 40
0.2956553813117944
 40
0.2956553813117944
 40
0.2956553813117944
 40
0.5591468218964687
 40
0.5591468218964687
 40
0.5591468218964687
 40
1.0
 40
1.0
 40
1.0
 40
1.0
 10
-2.020003832767148
 20
2.0114492661450734
 30
0.0
 10
-2.0200011736398165
 20
1.9980398103880126
 30
0.0
 10
-2.0177655271858788
 20
1.9846566759451092
 30
0.0
 10
-2.0132968934053372
 20
1.9712998628163643
 30
0.0
 10
-1.9778557341718217
 20
1.8617413179656601
 30
0.0
 10
-1.785758646173913
 20
1.7564225633693127
 30
0.0
 10
-1.4780497795438852
 20
1.6834914580417057
 30
0.0
 10
-1.1721746890355962
 20
1.6100418482861867
 30
0.0
 10
-0.7516783484935112
 20
1.569431712883603
 30
0.0
 10
-0.3065276342472021
 20
1.5760211866906841
 30
0.0
 10
0.44019314515787833
 20
1.5837895574527887
 30
0.0
 10
1.2369372322593288
 20
1.733360443804916
 30
0.0
 10
1.6608282271204313
 20
1.969208981748851
 30
0.0
  0
LINE
  5
10D
330
17
100
AcDbEntity
  8
visible
100
AcDbLine
 10
1.6608282271204324
 20
1.9692089817488503
 30
0.0
 11
1.6608282271204324
 21
2.1893616160060505
 31
0.0
  0
SPLINE
  5
10E
330
17
100
AcDbEntity
  8
visible
100
AcDbSpline
 70
0
 71
3
 72
8
 73
4
 74
0
 40
0.0
 40
0.0
 40
0.0
 40
0.0
 40
0.08819134788763834
 40
0.08819134788763834
 40
0.08819134788763834
 40
0.08819134788763834
 10
1.6608282271204313
 20
1.9692089817488494
 30
0.0
 10
1.875428309043485
 20
2.085790920786649
 30
0.0
 10
2.000684566773513
 20
2.2209819630622283
 30
0.0
 10
2.01776950985826
 20
2.3579176741964263
 30
0.0
  0
SPLINE
  5
10F
330
17
100
AcDbEntity
  8
visible
100
AcDbSpline
 70
0
 71
1
 72
4
 73
2
 74
0
 40
0.0
 40
0.0
 40
1.0
 40
1.0
 10
1.5219779896389456
 20
2.8835953095035585
 30
0.0
 10
1.4547411203143468
 20
2.9118784874341586
 30
0.0
  0
SPLINE
  5
110
330
17
100
AcDbEntity
  8
visible
100
AcDbSpline
 70
0
 71
3
 72
17
 73
13
 74
0
 40
0.0
 40
0.0
 40
0.0
 40
0.0
 40
0.0017291784483503122
 40
0.0017291784483503122
 40
0.0017291784483503122
 40
0.28030778831094194
 40
0.28030778831094194
 40
0.28030778831094194
 40
0.5588863981735336
 40
0.5588863981735336
 40
0.5588863981735336
 40
1.0
 40
1.0
 40
1.0
 40
1.0
 10
-2.0199999618315667
 20
2.7735234499066648
 30
0.0
 10
-2.0199932323836256
 20
2.772787684514511
 30
0.0
 10
-2.019986502935688
 20
2.7720519191223567
 30
0.0
 10
-2.019979773487748
 20
2.7713161537302042
 30
0.0
 10
-2.017650037287212
 20
2.653055408835553
 30
0.0
 10
-1.8426756385669683
 20
2.540618862588554
 30
0.0
 10
-1.5328769657899466
 20
2.4592892189725672
 30
0.0
 10
-1.2261190024443658
 20
2.377681454887167
 30
0.0
 10
-0.7739444233905586
 20
2.330507801496366
 30
0.0
 10
-0.30223381386082815
 20
2.3381476345131045
 30
0.0
 10
0.4432703653740249
 20
2.3463998654711014
 30
0.0
 10
1.2376841971661254
 20
2.4958894673592833
 30
0.0
 10
1.660828227120434
 20
2.731284158463385
 30
0.0
  0
LINE
  5
111
330
17
100
AcDbEntity
  8
visible
100
AcDbLine
 10
1.6608282271204324
 20
2.7312841584633842
 30
0.0
 11
1.6608282271204324
 21
2.95144078970925
 31
0.0
  0
SPLINE
  5
112
330
17
100
AcDbEntity
  8
visible
100
AcDbSpline
 70
0
 71
3
 72
8
 73
4
 74
0
 40
0.0
 40
0.0
 40
0.0
 40
0.0
 40
0.09643088771622024
 40
0.09643088771622024
 40
0.09643088771622024
 40
0.09643088771622024
 10
1.6608282271204335
 20
2.731284158463385
 30
0.0
 10
1.8936992603843517
 20
2.8577098005113326
 30
0.0
 10
2.020764997948287
 20
3.0059336105401075
 30
0.0
 10
2.020001483141464
 20
3.1545608694492584
 30
0.0
  0
SPLINE
  5
113
330
17
100
AcDbEntity
  8
visible
100
AcDbSpline
 70
0
 71
2
 72
6
 73
3
 74
0
 40
0.0
 40
0.0
 40
0.0
 40
1.0
 40
1.0
 40
1.0
 10
1.9973006288870403
 20
3.264631478543003
 30
0.0
 10
1.9370417819780648
 20
3.407965183299988
 30
0.0
 10
1.7332712994959047
 20
3.5355834759599083
 30
0.0
  0
SPLINE
  5
114
330
17
100
AcDbEntity
  8
visible
100
AcDbSpline
 70
0
 71
3
 72
20
 73
16
 74
0
 40
0.0
 40
0.0
 40
0.0
 40
0.0
 40
0.005784451250794335
 40
0.005784451250794335
 40
0.005784451250794335
 40
0.24423875731286634
 40
0.24423875731286634
 40
0.24423875731286634
 40
0.48269306337493867
 40
0.48269306337493867
 40
0.48269306337493867
 40
0.6437605424636992
 40
0.6437605424636992
 40
0.6437605424636992
 40
1.0
 40
1.0
 40
1.0
 40
1.0
 10
-2.019999982237698
 20
3.535592024246316
 30
0.0
 10
-2.019927623208585
 20
3.5331813904690845
 30
0.0
 10
-2.0198552641794727
 20
3.5307707566918536
 30
0.0
 10
-2.01978290515036
 20
3.5283601229146235
 30
0.0
 10
-2.0146222413234733
 20
3.428892405906166
 30
0.0
 10
-1.8817659165272518
 20
3.3301739591639534
 30
0.0
 10
-1.6446028903493914
 20
3.2538711407094034
 30
0.0
 10
-1.408800030463008
 20
3.177273152020761
 30
0.0
 10
-1.0692085649432552
 20
3.1234107557926847
 30
0.0
 10
-0.6858041627679539
 20
3.106027262084069
 30
0.0
 10
-0.4271918297942907
 20
3.0940990443812586
 30
0.0
 10
-0.14935244433344327
 20
3.0984979787501485
 30
0.0
 10
0.12496496797704743
 20
3.1202173153487673
 30
0.0
 10
0.7337033572129867
 20
3.167091113794229
 30
0.0
 10
1.3167602863143266
 20
3.303691850394464
 30
0.0
 10
1.6608282271204298
 20
3.493350955883633
 30
0.0
  0
LINE
  5
115
330
17
100
AcDbEntity
  8
visible
100
AcDbLine
 10
1.6608282271204324
 20
3.4933509558836375
 30
0.0
 11
1.6608282271204324
 21
3.710991088706966
 31
0.0
  0
SPLINE
  5
116
330
17
100
AcDbEntity
  8
visible
100
AcDbSpline
 70
0
 71
3
 72
8
 73
4
 74
0
 40
0.0
 40
0.0
 40
0.0
 40
0.0
 40
0.08893613577430282
 40
0.08893613577430282
 40
0.08893613577430282
 40
0.08893613577430282
 10
1.6608282271204295
 20
3.493350955883633
 30
0.0
 10
1.8754420225974888
 20
3.6099397366503414
 30
0.0
 10
2.0006604603573797
 20
3.7451128855579237
 30
0.0
 10
2.017769003227963
 20
3.8820488519718994
 30
0.0
  0
SPLINE
  5
117
330
17
100
AcDbEntity
  8
visible
100
AcDbSpline
 70
0
 71
1
 72
4
 73
2
 74
0
 40
0.0
 40
0.0
 40
1.0
 40
1.0
 10
1.5219767680199485
 20
4.4077407838030105
 30
0.0
 10
1.454720817659664
 20
4.436030716610418
 30
0.0
  0
SPLINE
  5
118
330
17
100
AcDbEntity
  8
visible
100
AcDbSpline
 70
0
 71
3
 72
17
 73
13
 74
0
 40
0.0
 40
0.0
 40
0.0
 40
0.0
 40
0.23501081435181279
 40
0.23501081435181279
 40
0.23501081435181279
 40
0.4750172086857588
 40
0.4750172086857588
 40
0.4750172086857588
 40
0.7882519398478751
 40
0.7882519398478751
 40
0.7882519398478751
 40
1.0
 40
1.0
 40
1.0
 40
1.0
 10
-2.019990476804725
 20
4.297661081432672
 30
0.0
 10
-2.020706703687189
 20
4.199608130472587
 30
0.0
 10
-1.8977855364701335
 20
4.101902933077947
 30
0.0
 10
-1.6718484011056713
 20
4.025007611570521
 30
0.0
 10
-1.4422933901133288
 20
3.9462220508401424
 30
0.0
 10
-1.106760735551276
 20
3.889819874746398
 30
0.0
 10
-0.7236401369013533
 20
3.8699547117184308
 30
0.0
 10
-0.22425972500255195
 20
3.843046257238285
 30
0.0
 10
0.3522148166988052
 20
3.8805733390267925
 30
0.0
 10
0.8387116662017213
 20
3.9810031323021065
 30
0.0
 10
1.1679052322254106
 20
4.048258378991762
 30
0.0
 10
1.4552720692034162
 20
4.143126534775103
 30
0.0
 10
1.66082822712043
 20
4.255444887415569
 30
0.0
  0
LINE
  5
119
330
17
100
AcDbEntity
  8
visible
100
AcDbLine
 10
1.6608282271204324
 20
4.255444887415567
 30
0.0
 11
1.6608282271204324
 21
4.475582270459873
 31
0.0
  0
SPLINE
  5
11A
330
17
100
AcDbEntity
  8
visible
100
AcDbSpline
 70
0
 71
3
 72
8
 73
4
 74
0
 40
0.0
 40
0.0
 40
0.0
 40
0.0
 40
0.08896493155432471
 40
0.08896493155432471
 40
0.08896493155432471
 40
0.08896493155432471
 10
1.66082822712043
 20
4.255444887415569
 30
0.0
 10
1.8754766215451568
 20
4.372059652323582
 30
0.0
 10
2.0006090429925996
 20
4.507150638419702
 30
0.0
 10
2.0177697293759964
 20
4.644138115232141
 30
0.0
  0
SPLINE
  5
11B
330
17
100
AcDbEntity
  8
visible
100
AcDbSpline
 70
0
 71
3
 72
14
 73
10
 74
0
 40
0.0
 40
0.0
 40
0.0
 40
0.0
 40
0.2607847428405151
 40
0.2607847428405151
 40
0.2607847428405151
 40
0.5215694856810299
 40
0.5215694856810299
 40
0.5215694856810299
 40
1.0
 40
1.0
 40
1.0
 40
1.0
 10
-2.019999873348948
 20
5.059734991055382
 30
0.0
 10
-2.021112608319945
 20
4.950802892705477
 30
0.0
 10
-1.8683662819093931
 20
4.842374864133679
 30
0.0
 10
-1.5938195265040511
 20
4.762395472732593
 30
0.0
 10
-1.3211733304871627
 20
4.681979179172201
 30
0.0
 10
-0.9272814904123827
 20
4.630538494911945
 30
0.0
 10
-0.49514726570709505
 20
4.624394246879455
 30
0.0
 10
0.3000561761567297
 20
4.608789216334587
 30
0.0
 10
1.2015211849073157
 20
4.760691885454311
 30
0.0
 10
1.6608282271204362
 20
5.0175053764260955
 30
0.0
  0
LINE
  5
11C
330
17
100
AcDbEntity
  8
visible
100
AcDbLine
 10
1.6608282271204324
 20
5.017505376426095
 30
0.0
 11
1.6608282271204324
 21
5.235148086043492
 31
0.0
  0
SPLINE
  5
11D
330
17
100
AcDbEntity
  8
visible
100
AcDbSpline
 70
0
 71
3
 72
8
 73
4
 74
0
 40
0.0
 40
0.0
 40
0.0
 40
0.0
 40
0.08885764988183205
 40
0.08885764988183205
 40
0.08885764988183205
 40
0.08885764988183205
 10
1.6608282271204362
 20
5.0175053764260955
 30
0.0
 10
1.8753041514328563
 20
5.133984283361597
 30
0.0
 10
2.0007626015628475
 20
5.269362821901749
 30
0.0
 10
2.017771756966216
 20
5.406210449363465
 30
0.0
  0
SPLINE
  5
11E
330
17
100
AcDbEntity
  8
visible
100
AcDbSpline
 70
0
 71
3
 72
8
 73
4
 74
0
 40
0.0
 40
0.0
 40
0.0
 40
0.0
 40
1.0
 40
1.0
 40
1.0
 40
1.0
 10
1.4547317942986355
 20
5.960183957985424
 30
0.0
 10
1.1852008837295507
 20
6.06894277776211
 30
0.0
 10
0.8319989006833868
 20
6.153189652308861
 30
0.0
 10
0.4525837449714748
 20
6.202859641154894
 30
0.0
  0
SPLINE
  5
11F
330
17
100
AcDbEntity
  8
visible
100
AcDbSpline
 70
0
 71
3
 72
14
 73
10
 74
0
 40
0.0
 40
0.0
 40
0.0
 40
0.0
 40
0.22169375194656635
 40
0.22169375194656635
 40
0.22169375194656635
 40
0.6397459645405951
 40
0.6397459645405951
 40
0.6397459645405951
 40
1.0
 40
1.0
 40
1.0
 40
1.0
 10
-2.019998046376637
 20
5.821801430454334
 30
0.0
 10
-2.0205877195715702
 20
5.729349466817908
 30
0.0
 10
-1.9114914434000465
 20
5.637119812418251
 30
0.0
 10
-1.7092176484794197
 20
5.562449949717454
 30
0.0
 10
-1.3327627309088579
 20
5.419615257070369
 30
0.0
 10
-0.6118198180790304
 20
5.348647437839314
 30
0.0
 10
0.10414098858524456
 20
5.404813316317835
 30
0.0
 10
0.7200791754790925
 20
5.450232417160938
 30
0.0
 10
1.3129412010379427
 20
5.587694167866044
 30
0.0
 10
1.6608282271204324
 20
5.779584342904327
 30
0.0
  0
LINE
  5
120
330
17
100
AcDbEntity
  8
visible
100
AcDbLine
 10
1.6608282271204324
 20
5.779584342904324
 30
0.0
 11
1.6608282271204324
 21
5.999740277512356
 31
0.0
  0
SPLINE
  5
121
330
17
100
AcDbEntity
  8
visible
100
AcDbSpline
 70
0
 71
3
 72
8
 73
4
 74
0
 40
0.0
 40
0.0
 40
0.0
 40
0.0
 40
0.088882769130028
 40
0.088882769130028
 40
0.088882769130028
 40
0.088882769130028
 10
1.6608282271204322
 20
5.7795843429043305
 30
0.0
 10
1.875365810899888
 20
5.896113683661028
 30
0.0
 10
2.0007316065310823
 20
6.031416985081552
 30
0.0
 10
2.0177725348329565
 20
6.168299883986783
 30
0.0
  0
SPLINE
  5
122
330
17
100
AcDbEntity
  8
visible
100
AcDbSpline
 70
0
 71
3
 72
14
 73
10
 74
0
 40
0.0
 40
0.0
 40
0.0
 40
0.0
 40
0.3156861338278406
 40
0.3156861338278406
 40
0.3156861338278406
 40
0.5418112789068475
 40
0.5418112789068475
 40
0.5418112789068475
 40
1.0
 40
1.0
 40
1.0
 40
1.0
 10
-2.0199976151126378
 20
6.583880054074731
 30
0.0
 10
-2.022316384651923
 20
6.452051882814006
 30
0.0
 10
-1.7958000034757442
 20
6.321468008479726
 30
0.0
 10
-1.4069116788447031
 20
6.239954069371214
 30
0.0
 10
-1.1303362920499147
 20
6.18117165742738
 30
0.0
 10
-0.7744880466266907
 20
6.147458725117328
 30
0.0
 10
-0.39562982438446037
 20
6.147818012756567
 30
0.0
 10
0.3750296029127475
 20
6.145051104152077
 30
0.0
 10
1.2202155548823297
 20
6.295958574745527
 30
0.0
 10
1.660828227120434
 20
6.541645147446393
 30
0.0
  0
LINE
  5
123
330
17
100
AcDbEntity
  8
visible
100
AcDbLine
 10
1.6608282271204324
 20
6.541645147446389
 30
0.0
 11
1.6608282271204324
 21
6.759300048479976
 31
0.0
  0
SPLINE
  5
124
330
17
100
AcDbEntity
  8
visible
100
AcDbSpline
 70
0
 71
3
 72
8
 73
4
 74
0
 40
0.0
 40
0.0
 40
0.0
 40
0.0
 40
0.08889087007951377
 40
0.08889087007951377
 40
0.08889087007951377
 40
0.08889087007951377
 10
1.6608282271204344
 20
6.541645147446392
 30
0.0
 10
1.8754848483218167
 20
6.658262692041528
 30
0.0
 10
2.0006763578392683
 20
6.793444706533962
 30
0.0
 10
2.0177716336893354
 20
6.930362824930241
 30
0.0
  0
SPLINE
  5
125
330
17
100
AcDbEntity
  8
visible
100
AcDbSpline
 70
0
 71
1
 72
4
 73
2
 74
0
 40
0.0
 40
0.0
 40
1.0
 40
1.0
 10
1.5219678904860316
 20
7.456045329878565
 30
0.0
 10
1.4547142273675577
 20
7.484333564544594
 30
0.0
  0
SPLINE
  5
126
330
17
100
AcDbEntity
  8
visible
100
AcDbSpline
 70
0
 71
3
 72
14
 73
10
 74
0
 40
0.0
 40
0.0
 40
0.0
 40
0.0
 40
0.27020650867596213
 40
0.27020650867596213
 40
0.27020650867596213
 40
0.5715357729742491
 40
0.5715357729742491
 40
0.5715357729742491
 40
1.0
 40
1.0
 40
1.0
 40
1.0
 10
-2.020000380400421
 20
7.34597080761129
 30
0.0
 10
-2.0212600041358586
 20
7.233184205067233
 30
0.0
 10
-1.8573268226777135
 20
7.121040977966966
 30
0.0
 10
-1.564148942550163
 20
7.040175234136746
 30
0.0
 10
-1.239706893741224
 20
6.949313773656996
 30
0.0
 10
-0.7562934280995638
 20
6.899190141664206
 30
0.0
 10
-0.24486891712874992
 20
6.91168543260017
 30
0.0
 10
0.4842121027461967
 20
6.92627972415668
 30
0.0
 10
1.2483203308363735
 20
7.074551225345772
 30
0.0
 10
1.6608282271204344
 20
7.303727935539445
 30
0.0
  0
LINE
  5
127
330
17
100
AcDbEntity
  8
visible
100
AcDbLine
 10
1.6608282271204324
 20
7.303727935539444
 30
0.0
 11
1.6608282271204324
 21
7.523887758562309
 31
0.0
  0
SPLINE
  5
128
330
17
100
AcDbEntity
  8
visible
100
AcDbSpline
 70
0
 71
3
 72
8
 73
4
 74
0
 40
0.0
 40
0.0
 40
0.0
 40
0.0
 40
0.08892451482124519
 40
0.08892451482124519
 40
0.08892451482124519
 40
0.08892451482124519
 10
1.660828227120434
 20
7.303727935539445
 30
0.0
 10
1.8754203795272144
 20
7.420310530157995
 30
0.0
 10
2.0006921935342055
 20
7.555524055352464
 30
0.0
 10
2.0177697631141696
 20
7.692447210593247
 30
0.0
  0
SPLINE
  5
129
330
17
100
AcDbEntity
  8
visible
100
AcDbSpline
 70
0
 71
3
 72
20
 73
16
 74
0
 40
0.0
 40
0.0
 40
0.0
 40
0.0
 40
0.06384019040193939
 40
0.06384019040193939
 40
0.06384019040193939
 40
0.27971394273316197
 40
0.27971394273316197
 40
0.27971394273316197
 40
0.4955876950643848
 40
0.4955876950643848
 40
0.4955876950643848
 40
0.8175866482709052
 40
0.8175866482709052
 40
0.8175866482709052
 40
1.0
 40
1.0
 40
1.0
 40
1.0
 10
-2.0199948360892916
 20
8.10803232099988
 30
0.0
 10
-2.0199804385668108
 20
8.081334276780145
 30
0.0
 10
-2.0111755266283042
 20
8.054854435554097
 30
0.0
 10
-1.9935801002737679
 20
8.028592797321734
 30
0.0
 10
-1.934649922098165
 20
7.939948703883769
 30
0.0
 10
-1.773134351283673
 20
7.856562339199437
 30
0.0
 10
-1.5324798625033162
 20
7.793701057381306
 30
0.0
 10
-1.2926807500125763
 20
7.730622347904166
 30
0.0
 10
-0.9740101674062628
 20
7.688242022889181
 30
0.0
 10
-0.6231200919092589
 20
7.675912725058265
 30
0.0
 10
-0.10007100965985258
 20
7.65651614283048
 30
0.0
 10
0.49215359057466673
 20
7.70666253538962
 30
0.0
 10
0.9734707683142669
 20
7.821033191251688
 30
0.0
 10
1.2464753988915631
 20
7.885303527804277
 30
0.0
 10
1.48386450922076
 20
7.969183075416964
 30
0.0
 10
1.6608282271204329
 20
8.065792968745136
 30
0.0
  0
LINE
  5
12A
330
17
100
AcDbEntity
  8
visible
100
AcDbLine
 10
1.6608282271204324
 20
8.06579296874514
 30
0.0
 11
1.6608282271204324
 21
8.283447798343715
 31
0.0
  0
SPLINE
  5
12B
330
17
100
AcDbEntity
  8
visible
100
AcDbSpline
 70
0
 71
1
 72
4
 73
2
 74
0
 40
0.0
 40
0.0
 40
0.5579503926973585
 40
0.5579503926973585
 10
2.0554804790488954
 20
8.47378799154205
 30
0.0
 10
1.6608282271191905
 20
8.827874726366032
 30
0.0
  0
SPLINE
  5
12C
330
17
100
AcDbEntity
  8
visible
100
AcDbSpline
 70
0
 71
3
 72
8
 73
4
 74
0
 40
0.0
 40
0.0
 40
0.0
 40
0.0
 40
0.08885939187490574
 40
0.08885939187490574
 40
0.08885939187490574
 40
0.08885939187490574
 10
1.6608282271204327
 20
8.065792968745132
 30
0.0
 10
1.8753411113456653
 20
8.182308121185908
 30
0.0
 10
2.000738477053809
 20
8.31765115449883
 30
0.0
 10
2.0177708369069713
 20
8.45451223194409
 30
0.0
  0
SPLINE
  5
12D
330
17
100
AcDbEntity
  8
visible
100
AcDbSpline
 70
0
 71
3
 72
14
 73
10
 74
0
 40
0.0
 40
0.0
 40
0.0
 40
0.0
 40
0.34702018830014125
 40
0.34702018830014125
 40
0.34702018830014125
 40
0.680882912798481
 40
0.680882912798481
 40
0.680882912798481
 40
1.0
 40
1.0
 40
1.0
 40
1.0
 10
-2.0200000476482995
 20
8.87011339698922
 30
0.0
 10
-2.0233241518850527
 20
8.724968784704107
 30
0.0
 10
-1.7467373636218586
 20
8.581881293211788
 30
0.0
 10
-1.2868117750987182
 20
8.503121363330004
 30
0.0
 10
-0.8485594800496598
 20
8.425993191639616
 30
0.0
 10
-0.24982701819329325
 20
8.410320641081002
 30
0.0
 10
0.31386287329830487
 20
8.472426332056713
 30
0.0
 10
0.8533307161910804
 20
8.53022658548149
 30
0.0
 10
1.352301815913356
 20
8.658292239892608
 30
0.0
 10
1.6608282271192252
 20
8.827874726366083
 30
0.0
  0
LINE
  5
12E
330
17
100
AcDbEntity
  8
visible
100
AcDbLine
 10
1.6608282271204324
 20
8.827874726366584
 30
0.0
 11
1.6608282271204324
 21
8.937952101314515
 31
0.0
  0
ELLIPSE
  5
12F
330
17
100
AcDbEntity
  8
visible
100
AcDbEllipse
 10
0.0
 20
9.287778419936146
 30
0.0
 11
2.02
 21
0.0
 31
0.0
 40
0.30424861174811146
 41
5.677640643574616
 42
6.283185307179586
  0
ELLIPSE
  5
130
330
17
100
AcDbEntity
  8
visible
100
AcDbEllipse
 10
0.0
 20
9.287778419936146
 30
0.0
 11
2.02
 21
0.0
 31
0.0
 40
0.30424861174811146
 41
0.0
 42
3.141592653589793
  0
ELLIPSE
  5
131
330
17
100
AcDbEntity
  8
visible
100
AcDbEllipse
 10
0.0
 20
9.287778419936146
 30
0.0
 11
2.02
 21
0.0
 31
0.0
 40
0.30424861174811146
 41
3.141592653589793
 42
5.677640643574616
  0
LINE
  5
132
330
17
100
AcDbEntity
  8
visible
100
AcDbLine
 10
4.25
 20
-9.287778515195413
 30
0.0
 11
4.25
 21
-5.953704193505133
 31
0.0
  0
LINE
  5
133
330
17
100
AcDbEntity
  8
visible
100
AcDbLine
 10
-4.25
 20
-9.287778515195413
 30
0.0
 11
-4.25
 21
-5.953704193505133
 31
0.0
  0
LINE
  5
134
330
17
100
AcDbEntity
  8
visible
100
AcDbLine
 10
-2.0199999999999996
 20
-5.953704193505133
 30
0.0
 11
-2.0199999999999996
 21
-5.489915165910354
 31
0.0
  0
SPLINE
  5
135
330
17
100
AcDbEntity
  8
visible
100
AcDbSpline
 70
0
 71
1
 72
4
 73
2
 74
0
 40
0.0
 40
0.0
 40
1.0
 40
1.0
 10
-1.810309820509112
 20
-5.606057724031922
 30
0.0
 10
-2.2161521249988634
 20
-5.411844264016718
 30
0.0
  0
SPLINE
  5
136
330
17
100
AcDbEntity
  8
visible
100
AcDbSpline
 70
0
 71
1
 72
4
 73
2
 74
0
 40
0.0
 40
0.0
 40
1.0
 40
1.0
 10
1.58128946769788
 20
-5.471985932916951
 30
0.0
 10
1.9862304156784067
 20
-5.27820151589615
 30
0.0
  0
SPLINE
  5
137
330
17
100
AcDbEntity
  8
visible
100
AcDbSpline
 70
0
 71
1
 72
4
 73
2
 74
0
 40
0.0
 40
0.0
 40
1.0
 40
1.0
 10
-1.810341570762225
 20
-4.843973688556119
 30
0.0
 10
-2.216201257108808
 20
-4.64975200343866
 30
0.0
  0
SPLINE
  5
138
330
17
100
AcDbEntity
  8
visible
100
AcDbSpline
 70
0
 71
1
 72
4
 73
2
 74
0
 40
0.0
 40
0.0
 40
1.0
 40
1.0
 10
1.5813046296899063
 20
-4.709912295040094
 30
0.0
 10
1.9862623672250748
 20
-4.516122177289803
 30
0.0
  0
SPLINE
  5
139
330
17
100
AcDbEntity
  8
visible
100
AcDbSpline
 70
0
 71
1
 72
4
 73
2
 74
0
 40
0.0
 40
0.0
 40
1.0
 40
1.0
 10
-1.8103324918837391
 20
-4.081900955454145
 30
0.0
 10
-2.2161864441486587
 20
-3.887681954481045
 30
0.0
  0
SPLINE
  5
13A
330
17
100
AcDbEntity
  8
visible
100
AcDbSpline
 70
0
 71
1
 72
4
 73
2
 74
0
 40
0.0
 40
0.0
 40
1.0
 40
1.0
 10
1.5813328797217407
 20
-3.947814592644594
 30
0.0
 10
1.986279358118679
 20
-3.7540278828790044
 30
0.0
  0
SPLINE
  5
13B
330
17
100
AcDbEntity
  8
visible
100
AcDbSpline
 70
0
 71
1
 72
4
 73
2
 74
0
 40
0.0
 40
0.0
 40
1.0
 40
1.0
 10
-1.810376048127973
 20
-3.319805999506631
 30
0.0
 10
-2.216236713945197
 20
-3.12558225061544
 30
0.0
  0
SPLINE
  5
13C
330
17
100
AcDbEntity
  8
visible
100
AcDbSpline
 70
0
 71
1
 72
4
 73
2
 74
0
 40
0.0
 40
0.0
 40
1.0
 40
1.0
 10
1.5813181018440317
 20
-3.185761428541671
 30
0.0
 10
1.9862828293664807
 20
-2.991968978912178
 30
0.0
  0
SPLINE
  5
13D
330
17
100
AcDbEntity
  8
visible
100
AcDbSpline
 70
0
 71
1
 72
4
 73
2
 74
0
 40
0.0
 40
0.0
 40
1.0
 40
1.0
 10
-1.8102840259798167
 20
-2.55778554211457
 30
0.0
 10
-2.216146178061254
 20
-2.363565996093511
 30
0.0
  0
SPLINE
  5
13E
330
17
100
AcDbEntity
  8
visible
100
AcDbSpline
 70
0
 71
1
 72
4
 73
2
 74
0
 40
0.0
 40
0.0
 40
1.0
 40
1.0
 10
1.5813279353163958
 20
-2.423677379066704
 30
0.0
 10
1.9862874381760443
 20
-2.229886629710437
 30
0.0
  0
SPLINE
  5
13F
330
17
100
AcDbEntity
  8
visible
100
AcDbSpline
 70
0
 71
1
 72
4
 73
2
 74
0
 40
0.0
 40
0.0
 40
1.0
 40
1.0
 10
-1.8103317927553344
 20
-1.7956810896934048
 30
0.0
 10
-2.216187225848692
 20
-1.6014614803762592
 30
0.0
  0
SPLINE
  5
140
330
17
100
AcDbEntity
  8
visible
100
AcDbSpline
 70
0
 71
1
 72
4
 73
2
 74
0
 40
0.0
 40
0.0
 40
1.0
 40
1.0
 10
1.581311292600279
 20
-1.6616259373601894
 30
0.0
 10
1.9862848384416902
 20
-1.4678316120652077
 30
0.0
  0
SPLINE
  5
141
330
17
100
AcDbEntity
  8
visible
100
AcDbSpline
 70
0
 71
1
 72
4
 73
2
 74
0
 40
0.0
 40
0.0
 40
1.0
 40
1.0
 10
-1.810324769057318
 20
-1.0336115251620495
 30
0.0
 10
-2.2161833190106828
 20
-0.8393912534613506
 30
0.0
  0
SPLINE
  5
142
330
17
100
AcDbEntity
  8
visible
100
AcDbSpline
 70
0
 71
1
 72
4
 73
2
 74
0
 40
0.0
 40
0.0
 40
1.0
 40
1.0
 10
1.5813534395115059
 20
-0.8995088794189439
 30
0.0
 10
1.9863097114326531
 20
-0.7057182916105802
 30
0.0
  0
SPLINE
  5
143
330
17
100
AcDbEntity
  8
visible
100
AcDbSpline
 70
0
 71
1
 72
4
 73
2
 74
0
 40
0.0
 40
0.0
 40
1.0
 40
1.0
 10
-1.8103500955502785
 20
-0.2715154825760937
 30
0.0
 10
-2.2161936294271083
 20
-0.07729929761664422
 30
0.0
  0
SPLINE
  5
144
330
17
100
AcDbEntity
  8
visible
100
AcDbSpline
 70
0
 71
1
 72
4
 73
2
 74
0
 40
0.0
 40
0.0
 40
1.0
 40
1.0
 10
1.5813209130466102
 20
-0.13745976008731198
 30
0.0
 10
1.9862803415238885
 20
0.05633105252663739
 30
0.0
  0
SPLINE
  5
145
330
17
100
AcDbEntity
  8
visible
100
AcDbSpline
 70
0
 71
1
 72
4
 73
2
 74
0
 40
0.0
 40
0.0
 40
1.0
 40
1.0
 10
-1.8103227699221913
 20
0.4905396586531747
 30
0.0
 10
-2.2161710733460556
 20
0.6847559557715215
 30
0.0
  0
SPLINE
  5
146
330
17
100
AcDbEntity
  8
visible
100
AcDbSpline
 70
0
 71
1
 72
4
 73
2
 74
0
 40
0.0
 40
0.0
 40
1.0
 40
1.0
 10
1.5813370680412084
 20
0.6246240540463592
 30
0.0
 10
1.9862983364760327
 20
0.8184156033397691
 30
0.0
  0
SPLINE
  5
147
330
17
100
AcDbEntity
  8
visible
100
AcDbSpline
 70
0
 71
1
 72
4
 73
2
 74
0
 40
0.0
 40
0.0
 40
1.0
 40
1.0
 10
-1.8103240565229306
 20
1.2526236639216783
 30
0.0
 10
-2.2161519957925604
 20
1.4468324765144036
 30
0.0
  0
SPLINE
  5
148
330
17
100
AcDbEntity
  8
visible
100
AcDbSpline
 70
0
 71
1
 72
4
 73
2
 74
0
 40
0.0
 40
0.0
 40
1.0
 40
1.0
 10
1.5812916669593964
 20
1.3866730619328198
 30
0.0
 10
1.9862466428202854
 20
1.5804619925871854
 30
0.0
  0
SPLINE
  5
149
330
17
100
AcDbEntity
  8
visible
100
AcDbSpline
 70
0
 71
1
 72
4
 73
2
 74
0
 40
0.0
 40
0.0
 40
1.0
 40
1.0
 10
-1.8103811537401915
 20
2.0147119831740614
 30
0.0
 10
-2.216247100263047
 20
2.2089375765088146
 30
0.0
  0
SPLINE
  5
14A
330
17
100
AcDbEntity
  8
visible
100
AcDbSpline
 70
0
 71
1
 72
4
 73
2
 74
0
 40
0.0
 40
0.0
 40
1.0
 40
1.0
 10
1.5813069868380971
 20
2.148756884138578
 30
0.0
 10
1.9862645909659875
 20
2.3425469517894033
 30
0.0
  0
SPLINE
  5
14B
330
17
100
AcDbEntity
  8
visible
100
AcDbSpline
 70
0
 71
1
 72
4
 73
2
 74
0
 40
0.0
 40
0.0
 40
1.0
 40
1.0
 10
-1.8103554565673556
 20
2.7767829956679257
 30
0.0
 10
-2.2162023382962257
 20
2.971000748439259
 30
0.0
  0
SPLINE
  5
14C
330
17
100
AcDbEntity
  8
visible
100
AcDbSpline
 70
0
 71
1
 72
4
 73
2
 74
0
 40
0.0
 40
0.0
 40
1.0
 40
1.0
 10
1.5812622297725685
 20
2.9108118298473897
 30
0.0
 10
1.98620547799293
 20
3.1045969670553646
 30
0.0
  0
SPLINE
  5
14D
330
17
100
AcDbEntity
  8
visible
100
AcDbSpline
 70
0
 71
1
 72
4
 73
2
 74
0
 40
0.0
 40
0.0
 40
1.0
 40
1.0
 10
-1.8103351490309096
 20
3.538840625681603
 30
0.0
 10
-2.2161902680840715
 20
3.733060151986809
 30
0.0
  0
SPLINE
  5
14E
330
17
100
AcDbEntity
  8
visible
100
AcDbSpline
 70
0
 71
1
 72
4
 73
2
 74
0
 40
0.0
 40
0.0
 40
1.0
 40
1.0
 10
1.581341767554051
 20
3.672909901931005
 30
0.0
 10
1.9863220469714178
 20
3.8667072012072037
 30
0.0
  0
SPLINE
  5
14F
330
17
100
AcDbEntity
  8
visible
100
AcDbSpline
 70
0
 71
1
 72
4
 73
2
 74
0
 40
0.0
 40
0.0
 40
1.0
 40
1.0
 10
-1.8103259601481398
 20
4.300921234253476
 30
0.0
 10
-2.2161563836792237
 20
4.495131210854144
 30
0.0
  0
SPLINE
  5
150
330
17
100
AcDbEntity
  8
visible
100
AcDbSpline
 70
0
 71
1
 72
4
 73
2
 74
0
 40
0.0
 40
0.0
 40
1.0
 40
1.0
 10
1.5813036583912519
 20
4.434975533440431
 30
0.0
 10
1.9862599189061276
 20
4.628764933018287
 30
0.0
  0
SPLINE
  5
151
330
17
100
AcDbEntity
  8
visible
100
AcDbSpline
 70
0
 71
1
 72
4
 73
2
 74
0
 40
0.0
 40
0.0
 40
1.0
 40
1.0
 10
-1.8103188844221254
 20
5.062978042133562
 30
0.0
 10
-2.2161743780738146
 20
5.257196854813335
 30
0.0
  0
SPLINE
  5
152
330
17
100
AcDbEntity
  8
visible
100
AcDbSpline
 70
0
 71
1
 72
4
 73
2
 74
0
 40
0.0
 40
0.0
 40
1.0
 40
1.0
 10
1.5813094023875378
 20
5.197050866614866
 30
0.0
 10
1.9862730722194788
 20
5.390842891873659
 30
0.0
  0
SPLINE
  5
153
330
17
100
AcDbEntity
  8
visible
100
AcDbSpline
 70
0
 71
1
 72
4
 73
2
 74
0
 40
0.0
 40
0.0
 40
1.0
 40
1.0
 10
-1.8103145731676271
 20
5.825055632803707
 30
0.0
 10
-2.216160666079811
 20
6.019270833193453
 30
0.0
  0
SPLINE
  5
154
330
17
100
AcDbEntity
  8
visible
100
AcDbSpline
 70
0
 71
1
 72
4
 73
2
 74
0
 40
0.0
 40
0.0
 40
1.0
 40
1.0
 10
1.5812983519426749
 20
5.959130539621475
 30
0.0
 10
1.9862401047383065
 20
6.152915288578287
 30
0.0
  0
SPLINE
  5
155
330
17
100
AcDbEntity
  8
visible
100
AcDbSpline
 70
0
 71
1
 72
4
 73
2
 74
0
 40
0.0
 40
0.0
 40
1.0
 40
1.0
 10
-1.8102998443856437
 20
6.587108137145078
 30
0.0
 10
-2.216175599960075
 20
6.781333987548322
 30
0.0
  0
SPLINE
  5
156
330
17
100
AcDbEntity
  8
visible
100
AcDbSpline
 70
0
 71
1
 72
4
 73
2
 74
0
 40
0.0
 40
0.0
 40
1.0
 40
1.0
 10
1.581322657526087
 20
6.721209026089987
 30
0.0
 10
1.986282826369564
 20
6.915000148596935
 30
0.0
  0
SPLINE
  5
157
330
17
100
AcDbEntity
  8
visible
100
AcDbSpline
 70
0
 71
1
 72
4
 73
2
 74
0
 40
0.0
 40
0.0
 40
1.0
 40
1.0
 10
-1.810313476275016
 20
7.349211954037866
 30
0.0
 10
-2.2161386470517686
 20
7.543418935415538
 30
0.0
  0
SPLINE
  5
158
330
17
100
AcDbEntity
  8
visible
100
AcDbSpline
 70
0
 71
1
 72
4
 73
2
 74
0
 40
0.0
 40
0.0
 40
1.0
 40
1.0
 10
1.5813376480866044
 20
7.483299348388545
 30
0.0
 10
1.986285694460701
 20
7.67708674369247
 30
0.0
  0
SPLINE
  5
159
330
17
100
AcDbEntity
  8
visible
100
AcDbSpline
 70
0
 71
1
 72
4
 73
2
 74
0
 40
0.0
 40
0.0
 40
1.0
 40
1.0
 10
-1.8103233702869117
 20
8.111280422661302
 30
0.0
 10
-2.2161721501405776
 20
8.305496964191356
 30
0.0
  0
SPLINE
  5
15A
330
17
100
AcDbEntity
  8
visible
100
AcDbSpline
 70
0
 71
1
 72
4
 73
2
 74
0
 40
0.0
 40
0.0
 40
1.0
 40
1.0
 10
1.5812604482126118
 20
8.245326726353621
 30
0.0
 10
1.986219495318704
 20
8.439118508216804
 30
0.0
  0
LINE
  5
15B
330
17
100
AcDbEntity
  8
visible
100
AcDbLine
 10
-2.0199999999999996
 20
-4.8472340229924775
 30
0.0
 11
-2.0199999999999996
 21
-4.7435776294831715
 31
0.0
  0
LINE
  5
15C
330
17
100
AcDbEntity
  8
visible
100
AcDbLine
 10
-2.0199999999999996
 20
-4.085147757417721
 30
0.0
 11
-2.0199999999999996
 21
-3.864994788906354
 31
0.0
  0
LINE
  5
15D
330
17
100
AcDbEntity
  8
visible
100
AcDbLine
 10
2.0199999999999996
 20
-3.7041123014385535
 30
0.0
 11
2.0199999999999996
 21
-3.4839635902086634
 31
0.0
  0
LINE
  5
15E
330
17
100
AcDbEntity
  8
visible
100
AcDbLine
 10
-2.0199999999999996
 20
-3.323078416569347
 30
0.0
 11
-2.0199999999999996
 21
-3.2194256098104495
 31
0.0
  0
LINE
  5
15F
330
17
100
AcDbEntity
  8
visible
100
AcDbLine
 10
-2.0199999999999996
 20
-2.5609926433957537
 30
0.0
 11
-2.0199999999999996
 21
-2.441630941461664
 31
0.0
  0
LINE
  5
160
330
17
100
AcDbEntity
  8
visible
100
AcDbLine
 10
2.0199999999999996
 20
-2.1799690826244404
 30
0.0
 11
2.0199999999999996
 21
-1.959811399130996
 31
0.0
  0
LINE
  5
161
330
17
100
AcDbEntity
  8
visible
100
AcDbLine
 10
-2.0199999999999996
 20
-1.798937074739567
 30
0.0
 11
-2.0199999999999996
 21
-1.6952803742095082
 31
0.0
  0
LINE
  5
162
330
17
100
AcDbEntity
  8
visible
100
AcDbLine
 10
-2.0199999999999996
 20
-1.0368540398876727
 30
0.0
 11
-2.0199999999999996
 21
-0.9332078756328972
 31
0.0
  0
LINE
  5
163
330
17
100
AcDbEntity
  8
visible
100
AcDbLine
 10
2.0199999999999996
 20
-0.6558273799383816
 30
0.0
 11
2.0199999999999996
 21
-0.43567103022515496
 31
0.0
  0
LINE
  5
164
330
17
100
AcDbEntity
  8
visible
100
AcDbLine
 10
-2.0199999999999996
 20
-0.2747829818958616
 30
0.0
 11
-2.0199999999999996
 21
-0.17112235138791831
 31
0.0
  0
LINE
  5
165
330
17
100
AcDbEntity
  8
visible
100
AcDbLine
 10
-2.0199999999999996
 20
0.48729784413958654
 30
0.0
 11
-2.0199999999999996
 21
0.5909447435614279
 31
0.0
  0
LINE
  5
166
330
17
100
AcDbEntity
  8
visible
100
AcDbLine
 10
-2.0199999999999996
 20
1.2493714686878592
 30
0.0
 11
-2.0199999999999996
 21
1.3530293035297252
 31
0.0
  0
LINE
  5
167
330
17
100
AcDbEntity
  8
visible
100
AcDbLine
 10
-2.0199999999999996
 20
2.0114475323782353
 30
0.0
 11
-2.0199999999999996
 21
2.231589358850175
 31
0.0
  0
LINE
  5
168
330
17
100
AcDbEntity
  8
visible
100
AcDbLine
 10
-2.0199999999999996
 20
2.77352341335449
 30
0.0
 11
-2.0199999999999996
 21
2.8771735449323215
 31
0.0
  0
LINE
  5
169
330
17
100
AcDbEntity
  8
visible
100
AcDbLine
 10
2.0199999999999996
 20
3.1545564815884104
 30
0.0
 11
2.0199999999999996
 21
3.374709487385105
 31
0.0
  0
LINE
  5
16A
330
17
100
AcDbEntity
  8
visible
100
AcDbLine
 10
-2.0199999999999996
 20
3.53559202539486
 30
0.0
 11
-2.0199999999999996
 21
3.755740660904981
 31
0.0
  0
LINE
  5
16B
330
17
100
AcDbEntity
  8
visible
100
AcDbLine
 10
-2.0199999999999996
 20
4.297669981009148
 30
0.0
 11
-2.0199999999999996
 21
4.401325947156546
 31
0.0
  0
LINE
  5
16C
330
17
100
AcDbEntity
  8
visible
100
AcDbLine
 10
-2.0199999999999996
 20
5.059735104107383
 30
0.0
 11
-2.0199999999999996
 21
5.179118964577984
 31
0.0
  0
LINE
  5
16D
330
17
100
AcDbEntity
  8
visible
100
AcDbLine
 10
-2.0199999999999996
 20
5.821813915820925
 30
0.0
 11
-2.0199999999999996
 21
5.941197607855023
 31
0.0
  0
LINE
  5
16E
330
17
100
AcDbEntity
  8
visible
100
AcDbLine
 10
-2.0199999999999996
 20
6.583876804392104
 30
0.0
 11
-2.0199999999999996
 21
6.703260217548464
 31
0.0
  0
LINE
  5
16F
330
17
100
AcDbEntity
  8
visible
100
AcDbLine
 10
-2.0199999999999996
 20
7.345970331271567
 30
0.0
 11
-2.0199999999999996
 21
7.4653494536374145
 31
0.0
  0
LINE
  5
170
330
17
100
AcDbEntity
  8
visible
100
AcDbLine
 10
-2.0199999999999996
 20
8.108032870407978
 30
0.0
 11
-2.0199999999999996
 21
8.211685228511975
 31
0.0
  0
SPLINE
  5
171
330
17
100
AcDbEntity
  8
visible
100
AcDbSpline
 70
0
 71
1
 72
4
 73
2
 74
0
 40
0.0
 40
0.0
 40
0.4502392439836779
 40
0.4502392439836779
 10
-2.216150462365298
 20
-4.824525594224053
 30
0.0
 10
-2.0334319152215876
 20
-4.737150888566573
 30
0.0
  0
SPLINE
  5
172
330
17
100
AcDbEntity
  8
visible
100
AcDbSpline
 70
0
 71
1
 72
4
 73
2
 74
0
 40
0.0
 40
0.0
 40
0.4833816946653279
 40
0.4833816946653279
 10
-2.2161729997092445
 20
-4.062458814231734
 30
0.0
 10
-2.0199999999999987
 20
-3.9686466490882153
 30
0.0
  0
SPLINE
  5
173
330
17
100
AcDbEntity
  8
visible
100
AcDbSpline
 70
0
 71
1
 72
4
 73
2
 74
0
 40
0.0
 40
0.0
 40
0.4833404586695547
 40
0.4833404586695547
 10
-2.2161452155055983
 20
-3.3003842385266884
 30
0.0
 10
-2.0199999999999996
 20
-3.206584405091794
 30
0.0
  0
SPLINE
  5
174
330
17
100
AcDbEntity
  8
visible
100
AcDbSpline
 70
0
 71
1
 72
4
 73
2
 74
0
 40
0.0
 40
0.0
 40
0.48332302982909064
 40
0.48332302982909064
 10
-2.216159599761466
 20
-2.5382886365138386
 30
0.0
 10
-2.019999999999999
 20
-2.4444846631945634
 30
0.0
  0
SPLINE
  5
175
330
17
100
AcDbEntity
  8
visible
100
AcDbSpline
 70
0
 71
1
 72
4
 73
2
 74
0
 40
0.0
 40
0.0
 40
0.4833486614618276
 40
0.4833486614618276
 10
-2.2161572771841787
 20
-1.7762311357618579
 30
0.0
 10
-2.0199999999999996
 20
-1.6824264902780959
 30
0.0
  0
SPLINE
  5
176
330
17
100
AcDbEntity
  8
visible
100
AcDbSpline
 70
0
 71
1
 72
4
 73
2
 74
0
 40
0.0
 40
0.0
 40
0.45025651812907197
 40
0.45025651812907197
 10
-2.216172502224966
 20
-1.014157549977007
 30
0.0
 10
-2.033440662706015
 20
-0.9267769790409157
 30
0.0
  0
SPLINE
  5
177
330
17
100
AcDbEntity
  8
visible
100
AcDbSpline
 70
0
 71
1
 72
4
 73
2
 74
0
 40
0.0
 40
0.0
 40
0.4503194229367646
 40
0.4503194229367646
 10
-2.216159001714703
 20
-0.25209400017280714
 30
0.0
 10
-2.033412362450219
 20
-0.16470489178788517
 30
0.0
  0
SPLINE
  5
178
330
17
100
AcDbEntity
  8
visible
100
AcDbSpline
 70
0
 71
1
 72
4
 73
2
 74
0
 40
0.0
 40
0.0
 40
0.4503198459769756
 40
0.4503198459769756
 10
-2.2161913546261394
 20
0.5099785004099182
 30
0.0
 10
-2.0334331058007384
 20
0.5973720550165607
 30
0.0
  0
SPLINE
  5
179
330
17
100
AcDbEntity
  8
visible
100
AcDbSpline
 70
0
 71
1
 72
4
 73
2
 74
0
 40
0.0
 40
0.0
 40
0.4504044264209782
 40
0.4504044264209782
 10
-2.216203885797405
 20
1.272038509045867
 30
0.0
 10
-2.0334145925564324
 20
1.3594478316182697
 30
0.0
  0
SPLINE
  5
17A
330
17
100
AcDbEntity
  8
visible
100
AcDbSpline
 70
0
 71
1
 72
4
 73
2
 74
0
 40
0.0
 40
0.0
 40
0.483555777572569
 40
0.483555777572569
 10
-2.2162556832962492
 20
2.0340997534242344
 30
0.0
 10
-2.0200000000000005
 20
2.1279516421920572
 30
0.0
  0
SPLINE
  5
17B
330
17
100
AcDbEntity
  8
visible
100
AcDbSpline
 70
0
 71
1
 72
4
 73
2
 74
0
 40
0.0
 40
0.0
 40
0.45031395946510466
 40
0.45031395946510466
 10
-2.2161563348949347
 20
2.7962037949529
 30
0.0
 10
-2.0334130516031985
 20
2.883591333417744
 30
0.0
  0
SPLINE
  5
17C
330
17
100
AcDbEntity
  8
visible
100
AcDbSpline
 70
0
 71
1
 72
4
 73
2
 74
0
 40
0.0
 40
0.0
 40
0.4833809025501528
 40
0.4833809025501528
 10
-2.2161725271843116
 20
3.5582818768323836
 30
0.0
 10
-2.0199999999999996
 20
3.6520938138625514
 30
0.0
  0
SPLINE
  5
17D
330
17
100
AcDbEntity
  8
visible
100
AcDbSpline
 70
0
 71
1
 72
4
 73
2
 74
0
 40
0.0
 40
0.0
 40
0.4503917371915332
 40
0.4503917371915332
 10
-2.2161961524672487
 20
4.320337813843141
 30
0.0
 10
-2.0334135542822844
 20
4.407743977848877
 30
0.0
  0
SPLINE
  5
17E
330
17
100
AcDbEntity
  8
visible
100
AcDbSpline
 70
0
 71
1
 72
4
 73
2
 74
0
 40
0.0
 40
0.0
 40
0.483390209771209
 40
0.483390209771209
 10
-2.2161808591639467
 20
5.0824311329163265
 30
0.0
 10
-2.0199999999999996
 20
5.17624656757938
 30
0.0
  0
SPLINE
  5
17F
330
17
100
AcDbEntity
  8
visible
100
AcDbSpline
 70
0
 71
1
 72
4
 73
2
 74
0
 40
0.0
 40
0.0
 40
0.4503038437946685
 40
0.4503038437946685
 10
-2.216184510470656
 20
5.844501764430735
 30
0.0
 10
-2.033433194537017
 20
5.931891971743603
 30
0.0
  0
SPLINE
  5
180
330
17
100
AcDbEntity
  8
visible
100
AcDbSpline
 70
0
 71
1
 72
4
 73
2
 74
0
 40
0.0
 40
0.0
 40
0.48328227116919076
 40
0.48328227116919076
 10
-2.216136634689626
 20
6.606607404508239
 30
0.0
 10
-2.0199999999999996
 20
6.700400627456368
 30
0.0
  0
SPLINE
  5
181
330
17
100
AcDbEntity
  8
visible
100
AcDbSpline
 70
0
 71
1
 72
4
 73
2
 74
0
 40
0.0
 40
0.0
 40
0.48353250847494883
 40
0.48353250847494883
 10
-2.2162421553513516
 20
7.368620781153414
 30
0.0
 10
-2.0200000000000005
 20
7.462466546308091
 30
0.0
  0
SPLINE
  5
182
330
17
100
AcDbEntity
  8
visible
100
AcDbSpline
 70
0
 71
1
 72
4
 73
2
 74
0
 40
0.0
 40
0.0
 40
0.48340781100292374
 40
0.48340781100292374
 10
-2.216186247870727
 20
8.130721072918877
 30
0.0
 10
-2.0199999999999996
 20
8.224539518479634
 30
0.0
  0
SPLINE
  5
183
330
17
100
AcDbEntity
  8
visible
100
AcDbSpline
 70
0
 71
1
 72
4
 73
2
 74
0
 40
0.0
 40
0.0
 40
0.4834337683509013
 40
0.4834337683509013
 10
-2.2161996448825185
 20
8.892792267812403
 30
0.0
 10
-2.0199999999999996
 20
8.986617040100246
 30
0.0
  0
LINE
  5
184
330
17
100
AcDbEntity
  8
visible
100
AcDbLine
 10
2.0199999999999996
 20
8.505621502981516
 30
0.0
 11
2.0199999999999996
 21
9.287778419936146
 31
0.0
  0
LINE
  5
185
330
17
100
AcDbEntity
  8
visible
100
AcDbLine
 10
-2.0199999999999996
 20
8.87011338968528
 30
0.0
 11
-2.0199999999999996
 21
9.287778419936146
 31
0.0
  0
ENDSEC
  0
SECTION
  2
OBJECTS
  0
DICTIONARY
  5
A
330
0
100
AcDbDictionary
281
1
  3
ACAD_COLOR
350
B
  3
ACAD_GROUP
350
C
  3
ACAD_LAYOUT
350
D
  3
ACAD_MATERIAL
350
E
  3
ACAD_MLEADERSTYLE
350
F
  3
ACAD_MLINESTYLE
350
10
  3
ACAD_PLOTSETTINGS
350
11
  3
ACAD_PLOTSTYLENAME
350
12
  3
ACAD_SCALELIST
350
14
  3
ACAD_TABLESTYLE
350
15
  3
ACAD_VISUALSTYLE
350
16
  3
EZDXF_META
350
2D
  0
DICTIONARY
  5
B
330
A
100
AcDbDictionary
281
1
  0
DICTIONARY
  5
C
330
A
100
AcDbDictionary
281
1
  0
DICTIONARY
  5
D
330
A
100
AcDbDictionary
281
1
  3
Model
350
1A
  3
Layout1
350
1E
  0
DICTIONARY
  5
E
330
A
100
AcDbDictionary
281
1
  3
ByBlock
350
1F
  3
ByLayer
350
20
  3
Global
350
21
  0
DICTIONARY
  5
F
330
A
100
AcDbDictionary
281
1
  3
Standard
350
2C
  0
DICTIONARY
  5
10
330
A
100
AcDbDictionary
281
1
  3
Standard
350
22
  0
DICTIONARY
  5
11
330
A
100
AcDbDictionary
281
1
  0
ACDBDICTIONARYWDFLT
  5
12
330
A
100
AcDbDictionary
281
1
  3
Normal
350
13
100
AcDbDictionaryWithDefault
340
13
  0
ACDBPLACEHOLDER
  5
13
330
12
  0
DICTIONARY
  5
14
330
A
100
AcDbDictionary
281
1
  0
DICTIONARY
  5
15
330
A
100
AcDbDictionary
281
1
  0
DICTIONARY
  5
16
330
A
100
AcDbDictionary
281
1
  0
LAYOUT
  5
1A
330
D
100
AcDbPlotSettings
  1

  4
A3
  6

 40
7.5
 41
20.0
 42
7.5
 43
20.0
 44
420.0
 45
297.0
 46
0.0
 47
0.0
 48
0.0
 49
0.0
140
0.0
141
0.0
142
1.0
143
1.0
 70
1024
 72
1
 73
0
 74
5
  7

 75
16
 76
0
 77
2
 78
300
147
1.0
148
0.0
149
0.0
100
AcDbLayout
  1
Model
 70
1
 71
0
 10
0.0
 20
0.0
 11
420.0
 21
297.0
 12
0.0
 22
0.0
 32
0.0
 14
1e+20
 24
1e+20
 34
1e+20
 15
-1e+20
 25
-1e+20
 35
-1e+20
146
0.0
 13
0.0
 23
0.0
 33
0.0
 16
1.0
 26
0.0
 36
0.0
 17
0.0
 27
1.0
 37
0.0
 76
1
330
17
  0
LAYOUT
  5
1E
330
D
100
AcDbPlotSettings
  1

  4
A3
  6

 40
7.5
 41
20.0
 42
7.5
 43
20.0
 44
420.0
 45
297.0
 46
0.0
 47
0.0
 48
0.0
 49
0.0
140
0.0
141
0.0
142
1.0
143
1.0
 70
0
 72
1
 73
0
 74
5
  7

 75
16
 76
0
 77
2
 78
300
147
1.0
148
0.0
149
0.0
100
AcDbLayout
  1
Layout1
 70
1
 71
1
 10
0.0
 20
0.0
 11
420.0
 21
297.0
 12
0.0
 22
0.0
 32
0.0
 14
1e+20
 24
1e+20
 34
1e+20
 15
-1e+20
 25
-1e+20
 35
-1e+20
146
0.0
 13
0.0
 23
0.0
 33
0.0
 16
1.0
 26
0.0
 36
0.0
 17
0.0
 27
1.0
 37
0.0
 76
1
330
1B
  0
MATERIAL
  5
1F
102
{ACAD_REACTORS
330
E
102
}
330
E
100
AcDbMaterial
  1
ByBlock
  2

 70
0
 40
1.0
 71
1
 41
1.0
 91
-1023410177
 42
1.0
 72
1
  3

 73
1
 74
1
 75
1
 44
0.5
 73
0
 45
1.0
 46
1.0
 77
1
  4

 78
1
 79
1
170
1
 48
1.0
171
1
  6

172
1
173
1
174
1
140
1.0
141
1.0
175
1
  7

176
1
177
1
178
1
143
1.0
179
1
  8

270
1
271
1
272
1
145
1.0
146
1.0
273
1
  9

274
1
275
1
276
1
 42
1.0
 72
1
  3

 73
1
 74
1
 75
1
 94
63
  0
MATERIAL
  5
20
102
{ACAD_REACTORS
330
E
102
}
330
E
100
AcDbMaterial
  1
ByLayer
  2

 70
0
 40
1.0
 71
1
 41
1.0
 91
-1023410177
 42
1.0
 72
1
  3

 73
1
 74
1
 75
1
 44
0.5
 73
0
 45
1.0
 46
1.0
 77
1
  4

 78
1
 79
1
170
1
 48
1.0
171
1
  6

172
1
173
1
174
1
140
1.0
141
1.0
175
1
  7

176
1
177
1
178
1
143
1.0
179
1
  8

270
1
271
1
272
1
145
1.0
146
1.0
273
1
  9

274
1
275
1
276
1
 42
1.0
 72
1
  3

 73
1
 74
1
 75
1
 94
63
  0
MATERIAL
  5
21
102
{ACAD_REACTORS
330
E
102
}
330
E
100
AcDbMaterial
  1
Global
  2

 70
0
 40
1.0
 71
1
 41
1.0
 91
-1023410177
 42
1.0
 72
1
  3

 73
1
 74
1
 75
1
 44
0.5
 73
0
 45
1.0
 46
1.0
 77
1
  4

 78
1
 79
1
170
1
 48
1.0
171
1
  6

172
1
173
1
174
1
140
1.0
141
1.0
175
1
  7

176
1
177
1
178
1
143
1.0
179
1
  8

270
1
271
1
272
1
145
1.0
146
1.0
273
1
  9

274
1
275
1
276
1
 42
1.0
 72
1
  3

 73
1
 74
1
 75
1
 94
63
  0
MLINESTYLE
  5
22
102
{ACAD_REACTORS
330
10
102
}
330
10
100
AcDbMlineStyle
  2
Standard
 70
0
  3

 62
256
 51
90.0
 52
90.0
 71
2
 49
0.5
 62
256
  6
BYLAYER
 49
-0.5
 62
256
  6
BYLAYER
  0
MLEADERSTYLE
  5
2C
102
{ACAD_REACTORS
330
F
102
}
330
F
100
AcDbMLeaderStyle
179
2
170
2
171
1
172
0
 90
2
 40
0.0
 41
0.0
173
1
 91
-1056964608
 92
-2
290
1
 42
2.0
291
1
 43
8.0
  3
Standard
 44
4.0
300

342
29
174
1
175
1
176
0
178
1
 93
-1056964608
 45
4.0
292
0
297
0
 46
4.0
 94
-1056964608
 47
1.0
 49
1.0
140
1.0
294
1
141
0.0
177
0
142
1.0
295
0
296
0
143
3.75
271
0
272
9
273
9
  0
DICTIONARY
  5
2D
330
A
100
AcDbDictionary
280
1
281
1
  3
CREATED_BY_EZDXF
350
2E
  3
WRITTEN_BY_EZDXF
350
189
  0
DICTIONARYVAR
  5
2E
330
2D
100
DictionaryVariables
280
0
  1
1.4.4 @ 2026-10-03T13:35:50.843347+00:00
  0
DICTIONARYVAR
  5
189
330
2D
100
DictionaryVariables
280
0
  1
1.4.4 @ 2026-10-03T13:35:51.047094+00:00
  0
ENDSEC
  0
EOF
