  0
SECTION
  2
HEADER
  9
$ACADVER
  1
AC1027
  9
$ACADMAINTVER
 70
105
  9
$DWGCODEPAGE
  3
ANSI_1252
  9
$LASTSAVEDBY
  1
ezdxf
  9
$REQUIREDVERSIONS
160
0
  9
$INSBASE
 10
0.0
 20
0.0
 30
0.0
  9
$EXTMIN
 10
1e+20
 20
1e+20
 30
1e+20
  9
$EXTMAX
 10
-1e+20
 20
-1e+20
 30
-1e+20
  9
$LIMMIN
 10
0.0
 20
0.0
  9
$LIMMAX
 10
420.0
 20
297.0
  9
$ORTHOMODE
 70
0
  9
$REGENMODE
 70
1
  9
$FILLMODE
 70
1
  9
$QTEXTMODE
 70
0
  9
$MIRRTEXT
 70
1
  9
$LTSCALE
 40
1.0
  9
$ATTMODE
 70
1
  9
$TEXTSIZE
 40
2.5
  9
$TRACEWID
 40
1.0
  9
$TEXTSTYLE
  7
Standard
  9
$CLAYER
  8
0
  9
$CELTYPE
  6
ByLayer
  9
$CECOLOR
 62
256
  9
$CELTSCALE
 40
1.0
  9
$DISPSILH
 70
0
  9
$DIMSCALE
 40
1.0
  9
$DIMASZ
 40
2.5
  9
$DIMEXO
 40
0.625
  9
$DIMDLI
 40
3.75
  9
$DIMRND
 40
0.0
  9
$DIMDLE
 40
0.0
  9
$DIMEXE
 40
1.25
  9
$DIMTP
 40
0.0
  9
$DIMTM
 40
0.0
  9
$DIMTXT
 40
2.5
  9
$DIMCEN
 40
2.5
  9
$DIMTSZ
 40
0.0
  9
$DIMTOL
 70
0
  9
$DIMLIM
 70
0
  9
$DIMTIH
 70
0
  9
$DIMTOH
 70
0
  9
$DIMSE1
 70
0
  9
$DIMSE2
 70
0
  9
$DIMTAD
 70
1
  9
$DIMZIN
 70
8
  9
$DIMBLK
  1

  9
$DIMASO
 70
1
  9
$DIMSHO
 70
1
  9
$DIMPOST
  1

  9
$DIMAPOST
  1

  9
$DIMALT
 70
0
  9
$DIMALTD
 70
3
  9
$DIMALTF
 40
0.03937007874
  9
$DIMLFAC
 40
1.0
  9
$DIMTOFL
 70
1
  9
$DIMTVP
 40
0.0
  9
$DIMTIX
 70
0
  9
$DIMSOXD
 70
0
  9
$DIMSAH
 70
0
  9
$DIMBLK1
  1

  9
$DIMBLK2
  1

  9
$DIMSTYLE
  2
ISO-25
  9
$DIMCLRD
 70
0
  9
$DIMCLRE
 70
0
  9
$DIMCLRT
 70
0
  9
$DIMTFAC
 40
1.0
  9
$DIMGAP
 40
0.625
  9
$DIMJUST
 70
0
  9
$DIMSD1
 70
0
  9
$DIMSD2
 70
0
  9
$DIMTOLJ
 70
0
  9
$DIMTZIN
 70
8
  9
$DIMALTZ
 70
0
  9
$DIMALTTZ
 70
0
  9
$DIMUPT
 70
0
  9
$DIMDEC
 70
2
  9
$DIMTDEC
 70
2
  9
$DIMALTU
 70
2
  9
$DIMALTTD
 70
3
  9
$DIMTXSTY
  7
Standard
  9
$DIMAUNIT
 70
0
  9
$DIMADEC
 70
0
  9
$DIMALTRND
 40
0.0
  9
$DIMAZIN
 70
0
  9
$DIMDSEP
 70
44
  9
$DIMATFIT
 70
3
  9
$DIMFRAC
 70
0
  9
$DIMLDRBLK
  1

  9
$DIMLUNIT
 70
2
  9
$DIMLWD
 70
-2
  9
$DIMLWE
 70
-2
  9
$DIMTMOVE
 70
0
  9
$DIMFXL
 40
1.0
  9
$DIMFXLON
 70
0
  9
$DIMJOGANG
 40
0.785398163397
  9
$DIMTFILL
 70
0
  9
$DIMTFILLCLR
 70
0
  9
$DIMARCSYM
 70
0
  9
$DIMLTYPE
  6

  9
$DIMLTEX1
  6

  9
$DIMLTEX2
  6

  9
$DIMTXTDIRECTION
 70
0
  9
$LUNITS
 70
2
  9
$LUPREC
 70
4
  9
$SKETCHINC
 40
1.0
  9
$FILLETRAD
 40
10.0
  9
$AUNITS
 70
0
  9
$AUPREC
 70
2
  9
$MENU
  1
.
  9
$ELEVATION
 40
0.0
  9
$PELEVATION
 40
0.0
  9
$THICKNESS
 40
0.0
  9
$LIMCHECK
 70
0
  9
$CHAMFERA
 40
0.0
  9
$CHAMFERB
 40
0.0
  9
$CHAMFERC
 40
0.0
  9
$CHAMFERD
 40
0.0
  9
$SKPOLY
 70
0
  9
$TDCREATE
 40
2461317.7468402777
  9
$TDUCREATE
 40
2458532.153996898
  9
$TDUPDATE
 40
2461317.7468402777
  9
$TDUUPDATE
 40
2458532.1544311
  9
$TDINDWG
 40
0.0
  9
$TDUSRTIMER
 40
0.0
  9
$USRTIMER
 70
1
  9
$ANGBASE
 50
0.0
  9
$ANGDIR
 70
0
  9
$PDMODE
 70
0
  9
$PDSIZE
 40
0.0
  9
$PLINEWID
 40
0.0
  9
$SPLFRAME
 70
0
  9
$SPLINETYPE
 70
6
  9
$SPLINESEGS
 70
8
  9
$HANDSEED
  5
109
  9
$SURFTAB1
 70
6
  9
$SURFTAB2
 70
6
  9
$SURFTYPE
 70
6
  9
$SURFU
 70
6
  9
$SURFV
 70
6
  9
$UCSBASE
  2

  9
$UCSNAME
  2

  9
$UCSORG
 10
0.0
 20
0.0
 30
0.0
  9
$UCSXDIR
 10
1.0
 20
0.0
 30
0.0
  9
$UCSYDIR
 10
0.0
 20
1.0
 30
0.0
  9
$UCSORTHOREF
  2

  9
$UCSORTHOVIEW
 70
0
  9
$UCSORGTOP
 10
0.0
 20
0.0
 30
0.0
  9
$UCSORGBOTTOM
 10
0.0
 20
0.0
 30
0.0
  9
$UCSORGLEFT
 10
0.0
 20
0.0
 30
0.0
  9
$UCSORGRIGHT
 10
0.0
 20
0.0
 30
0.0
  9
$UCSORGFRONT
 10
0.0
 20
0.0
 30
0.0
  9
$UCSORGBACK
 10
0.0
 20
0.0
 30
0.0
  9
$PUCSBASE
  2

  9
$PUCSNAME
  2

  9
$PUCSORG
 10
0.0
 20
0.0
 30
0.0
  9
$PUCSXDIR
 10
1.0
 20
0.0
 30
0.0
  9
$PUCSYDIR
 10
0.0
 20
1.0
 30
0.0
  9
$PUCSORTHOREF
  2

  9
$PUCSORTHOVIEW
 70
0
  9
$PUCSORGTOP
 10
0.0
 20
0.0
 30
0.0
  9
$PUCSORGBOTTOM
 10
0.0
 20
0.0
 30
0.0
  9
$PUCSORGLEFT
 10
0.0
 20
0.0
 30
0.0
  9
$PUCSORGRIGHT
 10
0.0
 20
0.0
 30
0.0
  9
$PUCSORGFRONT
 10
0.0
 20
0.0
 30
0.0
  9
$PUCSORGBACK
 10
0.0
 20
0.0
 30
0.0
  9
$USERI1
 70
0
  9
$USERI2
 70
0
  9
$USERI3
 70
0
  9
$USERI4
 70
0
  9
$USERI5
 70
0
  9
$USERR1
 40
0.0
  9
$USERR2
 40
0.0
  9
$USERR3
 40
0.0
  9
$USERR4
 40
0.0
  9
$USERR5
 40
0.0
  9
$WORLDVIEW
 70
1
  9
$SHADEDGE
 70
3
  9
$SHADEDIF
 70
70
  9
$TILEMODE
 70
1
  9
$MAXACTVP
 70
64
  9
$PINSBASE
 10
0.0
 20
0.0
 30
0.0
  9
$PLIMCHECK
 70
0
  9
$PEXTMIN
 10
1e+20
 20
1e+20
 30
1e+20
  9
$PEXTMAX
 10
-1e+20
 20
-1e+20
 30
-1e+20
  9
$PLIMMIN
 10
0.0
 20
0.0
  9
$PLIMMAX
 10
420.0
 20
297.0
  9
$UNITMODE
 70
0
  9
$VISRETAIN
 70
1
  9
$PLINEGEN
 70
0
  9
$PSLTSCALE
 70
1
  9
$TREEDEPTH
 70
3020
  9
$CMLSTYLE
  2
Standard
  9
$CMLJUST
 70
0
  9
$CMLSCALE
 40
20.0
  9
$PROXYGRAPHICS
 70
1
  9
$MEASUREMENT
 70
1
  9
$CELWEIGHT
370
-1
  9
$ENDCAPS
280
0
  9
$JOINSTYLE
280
0
  9
$LWDISPLAY
290
0
  9
$INSUNITS
 70
4
  9
$HYPERLINKBASE
  1

  9
$STYLESHEET
  1

  9
$XEDIT
290
1
  9
$CEPSNTYPE
380
0
  9
$PSTYLEMODE
290
1
  9
$FINGERPRINTGUID
  2
{62CAC0C2-6182-44B0-80DE-B0713A9E8BDF}
  9
$VERSIONGUID
  2
{413C23F0-6F2F-4EB2-B02D-E603E5CEEB3E}
  9
$EXTNAMES
290
1
  9
$PSVPSCALE
 40
0.0
  9
$OLESTARTUP
290
0
  9
$SORTENTS
280
127
  9
$INDEXCTL
280
0
  9
$HIDETEXT
280
1
  9
$XCLIPFRAME
280
1
  9
$HALOGAP
280
0
  9
$OBSCOLOR
 70
257
  9
$OBSLTYPE
280
0
  9
$INTERSECTIONDISPLAY
280
0
  9
$INTERSECTIONCOLOR
 70
257
  9
$DIMASSOC
280
2
  9
$PROJECTNAME
  1

  9
$CAMERADISPLAY
290
0
  9
$LENSLENGTH
 40
50.0
  9
$CAMERAHEIGHT
 40
0.0
  9
$STEPSPERSEC
 40
24.0
  9
$STEPSIZE
 40
100.0
  9
$3DDWFPREC
 40
2.0
  9
$PSOLWIDTH
 40
0.005
  9
$PSOLHEIGHT
 40
0.08
  9
$LOFTANG1
 40
1.570796326795
  9
$LOFTANG2
 40
1.570796326795
  9
$LOFTMAG1
 40
0.0
  9
$LOFTMAG2
 40
0.0
  9
$LOFTPARAM
 70
7
  9
$LOFTNORMALS
280
1
  9
$LATITUDE
 40
37.795
  9
$LONGITUDE
 40
-122.394
  9
$NORTHDIRECTION
 40
0.0
  9
$TIMEZONE
 70
-8000
  9
$LIGHTGLYPHDISPLAY
280
1
  9
$TILEMODELIGHTSYNCH
280
1
  9
$CMATERIAL
347
20
  9
$SOLIDHIST
280
0
  9
$SHOWHIST
280
1
  9
$DWFFRAME
280
2
  9
$DGNFRAME
280
2
  9
$REALWORLDSCALE
290
1
  9
$INTERFERECOLOR
 62
256
  9
$CSHADOW
280
0
  9
$SHADOWPLANELOCATION
 40
0.0
  0
ENDSEC
  0
SECTION
  2
CLASSES
  0
CLASS
  1
ACDBDICTIONARYWDFLT
  2
AcDbDictionaryWithDefault
  3
ObjectDBX Classes
 90
0
 91
0
280
0
281
0
  0
CLASS
  1
SUN
  2
AcDbSun
  3
SCENEOE
 90
1153
 91
0
280
0
281
0
  0
CLASS
  1
VISUALSTYLE
  2
AcDbVisualStyle
  3
ObjectDBX Classes
 90
4095
 91
0
280
0
281
0
  0
CLASS
  1
MATERIAL
  2
AcDbMaterial
  3
ObjectDBX Classes
 90
1153
 91
0
280
0
281
0
  0
CLASS
  1
SCALE
  2
AcDbScale
  3
ObjectDBX Classes
 90
1153
 91
0
280
0
281
0
  0
CLASS
  1
TABLESTYLE
  2
AcDbTableStyle
  3
ObjectDBX Classes
 90
4095
 91
0
280
0
281
0
  0
CLASS
  1
MLEADERSTYLE
  2
AcDbMLeaderStyle
  3
ACDB_MLEADERSTYLE_CLASS
 90
4095
 91
0
280
0
281
0
  0
CLASS
  1
DICTIONARYVAR
  2
AcDbDictionaryVar
  3
ObjectDBX Classes
 90
0
 91
0
280
0
281
0
  0
CLASS
  1
CELLSTYLEMAP
  2
AcDbCellStyleMap
  3
ObjectDBX Classes
 90
1152
 91
0
280
0
281
0
  0
CLASS
  1
MENTALRAYRENDERSETTINGS
  2
AcDbMentalRayRenderSettings
  3
SCENEOE
 90
1024
 91
0
280
0
281
0
  0
CLASS
  1
ACDBDETAILVIEWSTYLE
  2
AcDbDetailViewStyle
  3
ObjectDBX Classes
 90
1025
 91
0
280
0
281
0
  0
CLASS
  1
ACDBSECTIONVIEWSTYLE
  2
AcDbSectionViewStyle
  3
ObjectDBX Classes
 90
1025
 91
0
280
0
281
0
  0
CLASS
  1
RASTERVARIABLES
  2
AcDbRasterVariables
  3
ISM
 90
0
 91
0
280
0
281
0
  0
CLASS
  1
LAYOUT
  2
AcDbLayout
  3
ObjectDBX Classes
 90
0
 91
0
280
0
281
0
  0
CLASS
  1
ACDBPLACEHOLDER
  2
AcDbPlaceHolder
  3
ObjectDBX Classes
 90
0
 91
0
280
0
281
0
  0
ENDSEC
  0
SECTION
  2
TABLES
  0
TABLE
  2
VPORT
  5
8
330
0
100
AcDbSymbolTable
 70
1
  0
VPORT
  5
105
330
8
100
AcDbSymbolTableRecord
100
AcDbViewportTableRecord
  2
*Active
 70
0
 10
0.0
 20
0.0
 11
1.0
 21
1.0
 12
0.0
 22
-0.4221676157485863
 13
0.0
 23
0.0
 14
0.5
 24
0.5
 15
0.5
 25
0.5
 16
0.0
 26
0.0
 36
1.0
 17
0.0
 27
0.0
 37
0.0
 40
16.814772192299905
 41
1.34
 42
50.0
 43
0.0
 44
0.0
 50
0.0
 51
0.0
 71
0
 72
1000
 73
1
 74
3
 75
0
 76
0
 77
0
 78
0
281
0
 65
1
110
0.0
120
0.0
130
0.0
111
1.0
121
0.0
131
0.0
112
0.0
122
1.0
132
0.0
 79
0
146
0.0
  0
ENDTAB
  0
TABLE
  2
LTYPE
  5
2
330
0
100
AcDbSymbolTable
 70
3
  0
LTYPE
  5
24
330
2
100
AcDbSymbolTableRecord
100
AcDbLinetypeTableRecord
  2
ByBlock
 70
0
  3

 72
65
 73
0
 40
0.0
  0
LTYPE
  5
25
330
2
100
AcDbSymbolTableRecord
100
AcDbLinetypeTableRecord
  2
ByLayer
 70
0
  3

 72
65
 73
0
 40
0.0
  0
LTYPE
  5
26
330
2
100
AcDbSymbolTableRecord
100
AcDbLinetypeTableRecord
  2
Continuous
 70
0
  3

 72
65
 73
0
 40
0.0
  0
ENDTAB
  0
TABLE
  2
LAYER
  5
1
330
0
100
AcDbSymbolTable
 70
3
  0
LAYER
  5
27
330
1
100
AcDbSymbolTableRecord
100
AcDbLayerTableRecord
  2
0
 70
0
 62
7
  6
Continuous
370
-3
390
13
347
21
  0
LAYER
  5
28
330
1
100
AcDbSymbolTableRecord
100
AcDbLayerTableRecord
  2
Defpoints
 70
0
 62
7
  6
Continuous
290
0
370
-3
390
13
347
21
  0
LAYER
  5
2F
330
1
100
AcDbSymbolTableRecord
100
AcDbLayerTableRecord
  2
visible
 70
0
 62
7
  6
Continuous
370
-3
390
13
347
21
  0
ENDTAB
  0
TABLE
  2
STYLE
  5
5
330
0
100
AcDbSymbolTable
 70
1
  0
STYLE
  5
29
330
5
100
AcDbSymbolTableRecord
100
AcDbTextStyleTableRecord
  2
Standard
 70
0
 40
0.0
 41
1.0
 50
0.0
 71
0
 42
2.5
  3
txt
  4

  0
ENDTAB
  0
TABLE
  2
VIEW
  5
7
330
0
100
AcDbSymbolTable
 70
0
  0
ENDTAB
  0
TABLE
  2
UCS
  5
6
330
0
100
AcDbSymbolTable
 70
0
  0
ENDTAB
  0
TABLE
  2
APPID
  5
3
330
0
100
AcDbSymbolTable
 70
3
  0
APPID
  5
2A
330
3
100
AcDbSymbolTableRecord
100
AcDbRegAppTableRecord
  2
ACAD
 70
0
  0
APPID
  5
106
330
3
100
AcDbSymbolTableRecord
100
AcDbRegAppTableRecord
  2
HATCHBACKGROUNDCOLOR
 70
0
  0
APPID
  5
107
330
3
100
AcDbSymbolTableRecord
100
AcDbRegAppTableRecord
  2
EZDXF
 70
0
  0
ENDTAB
  0
TABLE
  2
DIMSTYLE
  5
4
330
0
100
AcDbSymbolTable
 70
1
100
AcDbDimStyleTable
  0
DIMSTYLE
105
2B
330
4
100
AcDbSymbolTableRecord
100
AcDbDimStyleTableRecord
  2
Standard
 70
0
 40
1.0
 41
2.5
 42
0.625
 43
3.75
 44
1.25
 45
0.0
 46
0.0
 47
0.0
 48
0.0
 49
2.5
140
2.5
141
2.5
142
0.0
143
0.03937007874
144
1.0
145
0.0
146
1.0
147
0.625
148
0.0
 69
0
 70
0
 71
0
 72
0
 73
0
 74
0
 75
0
 76
0
 77
1
 78
8
 79
3
170
0
171
3
172
1
173
0
174
0
175
0
176
0
177
0
178
0
179
2
271
2
272
2
273
2
274
3
275
0
276
0
277
2
278
44
279
0
280
0
281
0
282
0
283
0
284
8
285
0
286
0
288
0
289
3
290
0
371
-2
372
-2
  0
ENDTAB
  0
TABLE
  2
BLOCK_RECORD
  5
9
330
0
100
AcDbSymbolTable
 70
2
  0
BLOCK_RECORD
  5
17
330
9
100
AcDbSymbolTableRecord
100
AcDbBlockTableRecord
  2
*Model_Space
340
1A
 70
0
280
1
281
0
  0
BLOCK_RECORD
  5
1B
330
9
100
AcDbSymbolTableRecord
100
AcDbBlockTableRecord
  2
*Paper_Space
340
1E
 70
0
280
1
281
0
  0
ENDTAB
  0
ENDSEC
  0
SECTION
  2
BLOCKS
  0
BLOCK
  5
18
330
17
100
AcDbEntity
  8
0
100
AcDbBlockBegin
  2
*Model_Space
 70
0
 10
0.0
 20
0.0
 30
0.0
  3
*Model_Space
  1

  0
ENDBLK
  5
19
330
17
100
AcDbEntity
  8
0
100
AcDbBlockEnd
  0
BLOCK
  5
1C
330
1B
100
AcDbEntity
  8
0
100
AcDbBlockBegin
  2
*Paper_Space
 70
0
 10
0.0
 20
0.0
 30
0.0
  3
*Paper_Space
  1

  0
ENDBLK
  5
1D
330
1B
100
AcDbEntity
  8
0
100
AcDbBlockEnd
  0
ENDSEC
  0
SECTION
  2
ENTITIES
  0
ELLIPSE
  5
30
330
17
100
AcDbEntity
  8
visible
100
AcDbEllipse
 10
0.0
 20
-4.0180077076414396
 30
0.0
 11
4.25
 21
0.0
 31
0.0
 40
0.32587296152973194
 41
5.677640643574616
 42
6.283185307179586
  0
ELLIPSE
  5
31
330
17
100
AcDbEntity
  8
visible
100
AcDbEllipse
 10
0.0
 20
-4.0180077076414396
 30
0.0
 11
4.25
 21
0.0
 31
0.0
 40
0.32587296152973194
 41
1.1102230246251565e-16
 42
0.9449252258314507
  0
ELLIPSE
  5
32
330
17
100
AcDbEntity
  8
visible
100
AcDbEllipse
 10
0.0
 20
-4.0180077076414396
 30
0.0
 11
4.25
 21
0.0
 31
0.0
 40
0.32587296152973194
 41
2.086956510160654
 42
3.141592653589793
  0
ELLIPSE
  5
33
330
17
100
AcDbEntity
  8
visible
100
AcDbEllipse
 10
0.0
 20
-4.0180077076414396
 30
0.0
 11
4.25
 21
0.0
 31
0.0
 40
0.32587296152973194
 41
3.141592653589793
 42
5.677640643574616
  0
ELLIPSE
  5
34
330
17
100
AcDbEntity
  8
visible
100
AcDbEllipse
 10
0.0
 20
-7.326955192652658
 30
0.0
 11
4.25
 21
0.0
 31
0.0
 40
0.32587296152973194
 41
5.677640643574616
 42
6.283185307179586
  0
ELLIPSE
  5
35
330
17
100
AcDbEntity
  8
visible
100
AcDbEllipse
 10
0.0
 20
-7.326955192652658
 30
0.0
 11
4.25
 21
0.0
 31
0.0
 40
0.32587296152973194
 41
3.141592653589793
 42
5.677640643574616
  0
ELLIPSE
  5
36
330
17
100
AcDbEntity
  8
visible
100
AcDbEllipse
 10
0.0
 20
-4.0180077076414396
 30
0.0
 11
2.02
 21
0.0
 31
0.0
 40
0.32587296152973194
 41
5.677640643574616
 42
6.105749492232006
  0
ELLIPSE
  5
37
330
17
100
AcDbEntity
  8
visible
100
AcDbEllipse
 10
0.0
 20
-4.0180077076414396
 30
0.0
 11
2.02
 21
0.0
 31
0.0
 40
0.32587296152973194
 41
3.141592653589793
 42
5.677640643574616
  0
SPLINE
  5
38
330
17
100
AcDbEntity
  8
visible
100
AcDbSpline
 70
0
 71
3
 72
8
 73
4
 74
0
 40
0.0
 40
0.0
 40
0.0
 40
0.0
 40
1.0
 40
1.0
 40
1.0
 40
1.0
 10
-1.7430069822537269
 20
-3.188786346082912
 30
0.0
 10
-1.9237749868783947
 20
-3.2678063679442437
 30
0.0
 10
-2.020458881654917
 20
-3.3626898022387226
 30
0.0
 10
-2.0200011572854937
 20
-3.4577142783812578
 30
0.0
  0
SPLINE
  5
39
330
17
100
AcDbEntity
  8
visible
100
AcDbSpline
 70
0
 71
2
 72
6
 73
3
 74
0
 40
0.0
 40
0.0
 40
0.0
 40
1.0
 40
1.0
 40
1.0
 10
-1.9144324390940408
 20
-3.628632103319214
 30
0.0
 10
-1.8542603794155803
 20
-3.675639761491653
 30
0.0
 10
-1.7621505126089516
 20
-3.718027251106401
 30
0.0
  0
SPLINE
  5
3A
330
17
100
AcDbEntity
  8
visible
100
AcDbSpline
 70
0
 71
3
 72
14
 73
10
 74
0
 40
0.0
 40
0.0
 40
0.0
 40
0.0
 40
0.3502952754224622
 40
0.3502952754224622
 40
0.3502952754224622
 40
0.7229942811533949
 40
0.7229942811533949
 40
0.7229942811533949
 40
1.0
 40
1.0
 40
1.0
 40
1.0
 10
-1.7621505126089518
 20
-3.718027251106401
 30
0.0
 10
-1.5429517486570574
 20
-3.8194381095365384
 30
0.0
 10
-1.1876045169935343
 20
-3.895367204054563
 30
0.0
 10
-0.7707693934745669
 20
-3.9241933630386776
 30
0.0
 10
-0.3282949528860019
 20
-3.9556610479232694
 30
0.0
 10
0.1803005484908321
 20
-3.9331340461218227
 30
0.0
 10
0.6348055157295702
 20
-3.855043745129681
 30
0.0
 10
0.972857304865246
 20
-3.7975074571937086
 30
0.0
 10
1.2799895491363376
 20
-3.7101900179171117
 30
0.0
 10
1.5150509992933006
 20
-3.6019087730739616
 30
0.0
  0
SPLINE
  5
3B
330
17
100
AcDbEntity
  8
visible
100
AcDbSpline
 70
0
 71
2
 72
6
 73
3
 74
0
 40
0.0
 40
0.0
 40
0.0
 40
1.0
 40
1.0
 40
1.0
 10
1.5150509992933006
 20
-3.601908773073961
 30
0.0
 10
1.5933958450357795
 20
-3.5659060096958566
 30
0.0
 10
1.6608282271204322
 20
-3.5271187939405673
 30
0.0
  0
LINE
  5
3C
330
17
100
AcDbEntity
  8
visible
100
AcDbLine
 10
1.6608282271204327
 20
-4.392697793539531
 30
0.0
 11
1.6608282271204327
 21
-4.283450003558192
 31
0.0
  0
LINE
  5
3D
330
17
100
AcDbEntity
  8
visible
100
AcDbLine
 10
1.6608282271204327
 20
-4.283450003558192
 30
0.0
 11
1.6608282271204327
 21
-3.7456147298040214
 31
0.0
  0
LINE
  5
3E
330
17
100
AcDbEntity
  8
visible
100
AcDbLine
 10
1.6608282271204327
 20
-3.7456147298040214
 30
0.0
 11
1.6608282271204327
 21
-3.5271187939405664
 31
0.0
  0
SPLINE
  5
3F
330
17
100
AcDbEntity
  8
visible
100
AcDbSpline
 70
0
 71
1
 72
4
 73
2
 74
0
 40
0.0
 40
0.0
 40
0.0036472578163614547
 40
0.0036472578163614547
 10
1.660828227120433
 20
-3.5271187939405664
 30
0.0
 10
1.6867266909810565
 20
-3.5118680219153777
 30
0.0
  0
SPLINE
  5
40
330
17
100
AcDbEntity
  8
visible
100
AcDbSpline
 70
0
 71
3
 72
11
 73
7
 74
0
 40
0.0
 40
0.0
 40
0.0
 40
0.0
 40
0.4982327857086459
 40
0.4982327857086459
 40
0.4982327857086459
 40
1.0
 40
1.0
 40
1.0
 40
1.0
 10
-1.762217049031011
 20
-2.961644962182211
 30
0.0
 10
-1.4523259192677054
 20
-3.10672596939269
 30
0.0
 10
-0.8592350570281866
 20
-3.196516901771663
 30
0.0
 10
-0.22065159667816636
 20
-3.179776318491421
 30
0.0
 10
0.42170221304530564
 20
-3.1658712324706335
 30
0.0
 10
1.0906549479174807
 20
-3.0430778555192317
 30
0.0
 10
1.5150393541724858
 20
-2.845588670829154
 30
0.0
  0
SPLINE
  5
41
330
17
100
AcDbEntity
  8
visible
100
AcDbSpline
 70
0
 71
2
 72
6
 73
3
 74
0
 40
0.0
 40
0.0
 40
0.0
 40
1.0
 40
1.0
 40
1.0
 10
1.5150393541724858
 20
-2.8455886708291542
 30
0.0
 10
1.5934154882857798
 20
-2.8095704788234475
 30
0.0
 10
1.6608282271204327
 20
-2.770794624560437
 30
0.0
  0
SPLINE
  5
42
330
17
100
AcDbEntity
  8
visible
100
AcDbSpline
 70
0
 71
1
 72
4
 73
2
 74
0
 40
0.0
 40
0.0
 40
0.003646810935596237
 40
0.003646810935596237
 10
1.6608282271204322
 20
-2.7707946245604367
 30
0.0
 10
1.686722671872385
 20
-2.755546929837565
 30
0.0
  0
SPLINE
  5
43
330
17
100
AcDbEntity
  8
visible
100
AcDbSpline
 70
0
 71
2
 72
6
 73
3
 74
0
 40
0.0
 40
0.0
 40
0.0
 40
1.0
 40
1.0
 40
1.0
 10
2.020000025390509
 20
-2.3232139588184055
 30
0.0
 10
2.0195054796651877
 20
-2.185215323367608
 30
0.0
 10
1.8965289600071848
 20
-2.0542759042625747
 30
0.0
  0
SPLINE
  5
44
330
17
100
AcDbEntity
  8
visible
100
AcDbSpline
 70
0
 71
3
 72
11
 73
7
 74
0
 40
0.0
 40
0.0
 40
0.0
 40
0.0
 40
0.5306200107888718
 40
0.5306200107888718
 40
0.5306200107888718
 40
1.0
 40
1.0
 40
1.0
 40
1.0
 10
-1.7621679666326702
 20
-2.205338117776216
 30
0.0
 10
-1.432672164235532
 20
-2.36011840791517
 30
0.0
 10
-0.780188638545542
 20
-2.451024012899699
 30
0.0
 10
-0.09660910753714536
 20
-2.4192262577976136
 30
0.0
 10
0.5071252001133297
 20
-2.393863969859615
 30
0.0
 10
1.1176118945613982
 20
-2.273833961470299
 30
0.0
 10
1.5149320040296543
 20
-2.0893091792597662
 30
0.0
  0
SPLINE
  5
45
330
17
100
AcDbEntity
  8
visible
100
AcDbSpline
 70
0
 71
3
 72
11
 73
7
 74
0
 40
0.0
 40
0.0
 40
0.0
 40
0.0
 40
0.4536013655691364
 40
0.4536013655691364
 40
0.4536013655691364
 40
1.0
 40
1.0
 40
1.0
 40
1.0
 10
-1.7621670194488834
 20
-1.4490238959993371
 30
0.0
 10
-1.479454499489305
 20
-1.5807723877882756
 30
0.0
 10
-0.9642225533731937
 20
-1.6678135327138959
 30
0.0
 10
-0.390772601442735
 20
-1.6689053054747953
 30
0.0
 10
0.29982273000082477
 20
-1.6735095566524112
 30
0.0
 10
1.053345472413146
 20
-1.548463687445936
 30
0.0
 10
1.5150740653250792
 20
-1.332898073286731
 30
0.0
  0
SPLINE
  5
46
330
17
100
AcDbEntity
  8
visible
100
AcDbSpline
 70
0
 71
3
 72
8
 73
4
 74
0
 40
0.0
 40
0.0
 40
0.0
 40
0.0
 40
1.0
 40
1.0
 40
1.0
 40
1.0
 10
1.7693886876400464
 20
-0.43238092961926006
 30
0.0
 10
1.6263525610874014
 20
-0.32989359607262864
 30
0.0
 10
1.4246851046372493
 20
-0.2378422491718754
 30
0.0
 10
1.1837895788110573
 20
-0.16345508876348971
 30
0.0
  0
SPLINE
  5
47
330
17
100
AcDbEntity
  8
visible
100
AcDbSpline
 70
0
 71
3
 72
11
 73
7
 74
0
 40
0.0
 40
0.0
 40
0.0
 40
0.0
 40
0.5788590558816391
 40
0.5788590558816391
 40
0.5788590558816391
 40
1.0
 40
1.0
 40
1.0
 40
1.0
 10
-1.7621497868577243
 20
-0.6927188595000138
 30
0.0
 10
-1.4034257166566517
 20
-0.8622164142567772
 30
0.0
 10
-0.6565978968466448
 20
-0.9532112765739458
 30
0.0
 10
0.08984968585052022
 20
-0.8955403085591284
 30
0.0
 10
0.6313209135228912
 20
-0.8562178855970046
 30
0.0
 10
1.1583026556422455
 20
-0.7418276931196237
 30
0.0
 10
1.5149622963458886
 20
-0.5766381550342353
 30
0.0
  0
SPLINE
  5
48
330
17
100
AcDbEntity
  8
visible
100
AcDbSpline
 70
0
 71
3
 72
8
 73
4
 74
0
 40
0.0
 40
0.0
 40
0.0
 40
0.0
 40
1.0
 40
1.0
 40
1.0
 40
1.0
 10
1.6866538580436934
 20
-0.4865927579397683
 30
0.0
 10
1.9032061090447436
 20
-0.35653492185773156
 30
0.0
 10
2.0206969128934653
 20
-0.20545692730915466
 30
0.0
 10
2.01999999842577
 20
-0.054218006579097616
 30
0.0
  0
SPLINE
  5
49
330
17
100
AcDbEntity
  8
visible
100
AcDbSpline
 70
0
 71
3
 72
14
 73
10
 74
0
 40
0.0
 40
0.0
 40
0.0
 40
0.0
 40
0.07755023372974644
 40
0.07755023372974644
 40
0.07755023372974644
 40
0.6061798376881746
 40
0.6061798376881746
 40
0.6061798376881746
 40
1.0
 40
1.0
 40
1.0
 40
1.0
 10
-1.7621809756038274
 20
0.06366154087018688
 30
0.0
 10
-1.713365934861472
 20
0.041221808799851996
 30
0.0
 10
-1.6584235258836604
 20
0.020111959790525408
 30
0.0
 10
-1.5973537486703895
 20
0.00033199384220694393
 30
0.0
 10
-1.1844858646174483
 20
-0.13599637169730164
 30
0.0
 10
-0.48301333066115176
 20
-0.1942827395939885
 30
0.0
 10
0.195044491968682
 20
-0.13051973948747408
 30
0.0
 10
0.6994039252672699
 20
-0.0849999292944693
 30
0.0
 10
1.1813322772163217
 20
0.025387484010656724
 30
0.0
 10
1.5149914126483834
 20
0.17971053934275907
 30
0.0
  0
SPLINE
  5
4A
330
17
100
AcDbEntity
  8
visible
100
AcDbSpline
 70
0
 71
2
 72
6
 73
3
 74
0
 40
0.0
 40
0.0
 40
0.0
 40
1.0
 40
1.0
 40
1.0
 10
-1.914413306003275
 20
0.9093386534848152
 30
0.0
 10
-1.8542397642783979
 20
0.8623254047326709
 30
0.0
 10
-1.762131752721197
 20
0.8199387989466431
 30
0.0
  0
SPLINE
  5
4B
330
17
100
AcDbEntity
  8
visible
100
AcDbSpline
 70
0
 71
3
 72
11
 73
7
 74
0
 40
0.0
 40
0.0
 40
0.0
 40
0.0
 40
0.5258713564479478
 40
0.5258713564479478
 40
0.5258713564479478
 40
1.0
 40
1.0
 40
1.0
 40
1.0
 10
-1.7621317527211973
 20
0.8199387989466431
 30
0.0
 10
-1.4353055228250675
 20
0.6665231783583337
 30
0.0
 10
-0.7913483733707068
 20
0.5757931970121141
 30
0.0
 10
-0.11399175034954545
 20
0.6053504609802288
 30
0.0
 10
0.49543430153694445
 20
0.6292177392982036
 30
0.0
 10
1.1139767739651305
 20
0.74978706463895
 30
0.0
 10
1.5151274398733547
 20
0.9361164027308102
 30
0.0
  0
SPLINE
  5
4C
330
17
100
AcDbEntity
  8
visible
100
AcDbSpline
 70
0
 71
2
 72
6
 73
3
 74
0
 40
0.0
 40
0.0
 40
0.0
 40
1.0
 40
1.0
 40
1.0
 10
-2.01999998397956
 20
1.8366031315575837
 30
0.0
 10
-2.017803937323337
 20
1.69570570675353
 30
0.0
 10
-1.7621505064261327
 20
1.5762887166392319
 30
0.0
  0
SPLINE
  5
4D
330
17
100
AcDbEntity
  8
visible
100
AcDbSpline
 70
0
 71
3
 72
14
 73
10
 74
0
 40
0.0
 40
0.0
 40
0.0
 40
0.0
 40
0.32187659168156496
 40
0.32187659168156496
 40
0.32187659168156496
 40
0.6521154023138495
 40
0.6521154023138495
 40
0.6521154023138495
 40
1.0
 40
1.0
 40
1.0
 40
1.0
 10
-1.7621505064261327
 20
1.5762887166392319
 30
0.0
 10
-1.5605961865064206
 20
1.4831644623073785
 30
0.0
 10
-1.2444869691304172
 20
1.4113133355821554
 30
0.0
 10
-0.8707891921586212
 20
1.3780949159472895
 30
0.0
 10
-0.4881692907916907
 20
1.3435059743275062
 30
0.0
 10
-0.04690893592700195
 20
1.3498690740830308
 30
0.0
 10
0.37018105046243277
 20
1.4007651547452606
 30
0.0
 10
0.8100948276210238
 20
1.4537797669398695
 30
0.0
 10
1.220052551917928
 20
1.5562248873497706
 30
0.0
 10
1.5150493524440514
 20
1.6924074743194137
 30
0.0
  0
SPLINE
  5
4E
330
17
100
AcDbEntity
  8
visible
100
AcDbSpline
 70
0
 71
2
 72
6
 73
3
 74
0
 40
0.0
 40
0.0
 40
0.0
 40
1.0
 40
1.0
 40
1.0
 10
1.5150493524440514
 20
1.6924074743194137
 30
0.0
 10
1.5934033410735817
 20
1.7284143082326686
 30
0.0
 10
1.6608282271204324
 20
1.7671971820766377
 30
0.0
  0
SPLINE
  5
4F
330
17
100
AcDbEntity
  8
visible
100
AcDbSpline
 70
0
 71
1
 72
4
 73
2
 74
0
 40
0.0
 40
0.0
 40
0.003646259715483738
 40
0.003646259715483738
 10
1.660828227120433
 20
1.767197182076636
 30
0.0
 10
1.686726709790646
 20
1.7824479609287165
 30
0.0
  0
SPLINE
  5
50
330
17
100
AcDbEntity
  8
visible
100
AcDbSpline
 70
0
 71
3
 72
8
 73
4
 74
0
 40
0.0
 40
0.0
 40
0.0
 40
0.0
 40
1.0
 40
1.0
 40
1.0
 40
1.0
 10
1.7693841443666996
 20
2.592931033834413
 30
0.0
 10
1.62621703182689
 20
2.6954924523529584
 30
0.0
 10
1.4246728286998025
 20
2.787473373273327
 30
0.0
 10
1.1838199761831971
 20
2.8618634854992244
 30
0.0
  0
SPLINE
  5
51
330
17
100
AcDbEntity
  8
visible
100
AcDbSpline
 70
0
 71
3
 72
11
 73
7
 74
0
 40
0.0
 40
0.0
 40
0.0
 40
0.0
 40
0.5231448341041572
 40
0.5231448341041572
 40
0.5231448341041572
 40
1.0
 40
1.0
 40
1.0
 40
1.0
 10
-1.7622179663930382
 20
2.3326707829543403
 30
0.0
 10
-1.4372755988146957
 20
2.180125869707169
 30
0.0
 10
-0.7986307491755135
 20
2.089402677157463
 30
0.0
 10
-0.12511818918409753
 20
2.117576491248451
 30
0.0
 10
0.48781801317865414
 20
2.140458250231115
 30
0.0
 10
1.1114804425749674
 20
2.2612396699261197
 30
0.0
 10
1.515039364258905
 20
2.448727307923214
 30
0.0
  0
SPLINE
  5
52
330
17
100
AcDbEntity
  8
visible
100
AcDbSpline
 70
0
 71
2
 72
6
 73
3
 74
0
 40
0.0
 40
0.0
 40
0.0
 40
1.0
 40
1.0
 40
1.0
 10
1.515039364258905
 20
2.4487273079232144
 30
0.0
 10
1.5934108123948274
 20
2.484743091205493
 30
0.0
 10
1.6608282271204333
 20
2.52352135145766
 30
0.0
  0
SPLINE
  5
53
330
17
100
AcDbEntity
  8
visible
100
AcDbSpline
 70
0
 71
3
 72
8
 73
4
 74
0
 40
0.0
 40
0.0
 40
0.0
 40
0.0
 40
0.09640121759562659
 40
0.09640121759562659
 40
0.09640121759562659
 40
0.09640121759562659
 10
1.6608282271204335
 20
2.52352135145766
 30
0.0
 10
1.8936815768079214
 20
2.65697007922019
 30
0.0
 10
2.020788530485867
 20
2.8138802576034676
 30
0.0
 10
2.020000027744493
 20
2.971102017068688
 30
0.0
  0
SPLINE
  5
54
330
17
100
AcDbEntity
  8
visible
100
AcDbSpline
 70
0
 71
3
 72
11
 73
7
 74
0
 40
0.0
 40
0.0
 40
0.0
 40
0.0
 40
0.5117213803703069
 40
0.5117213803703069
 40
0.5117213803703069
 40
1.0
 40
1.0
 40
1.0
 40
1.0
 10
-1.7621647740190176
 20
3.0889759260318637
 30
0.0
 10
-1.4439694966500867
 20
2.939824256564641
 30
0.0
 10
-0.8265004704600948
 20
2.8495193240147643
 30
0.0
 10
-0.16877030932150405
 20
2.87232893271418
 30
0.0
 10
0.45769939977100693
 20
2.8912446059568846
 30
0.0
 10
1.1019116399136202
 20
3.012958650611307
 30
0.0
 10
1.514931993454977
 20
3.205006794073544
 30
0.0
  0
SPLINE
  5
55
330
17
100
AcDbEntity
  8
visible
100
AcDbSpline
 70
0
 71
2
 72
6
 73
3
 74
0
 40
0.0
 40
0.0
 40
0.0
 40
1.0
 40
1.0
 40
1.0
 10
-1.9144433231638853
 20
3.9346852981889793
 30
0.0
 10
-1.8542738925300246
 20
3.887676822464776
 30
0.0
 10
-1.7621661617911855
 20
3.8452909653918437
 30
0.0
  0
SPLINE
  5
56
330
17
100
AcDbEntity
  8
visible
100
AcDbSpline
 70
0
 71
3
 72
14
 73
10
 74
0
 40
0.0
 40
0.0
 40
0.0
 40
0.0
 40
0.15979109135127328
 40
0.15979109135127328
 40
0.15979109135127328
 40
0.7416453874906808
 40
0.7416453874906808
 40
0.7416453874906808
 40
1.0
 40
1.0
 40
1.0
 40
1.0
 10
-1.7621661617911855
 20
3.8452909653918437
 30
0.0
 10
-1.6608761226012552
 20
3.798754631520226
 30
0.0
 10
-1.5349983247746468
 20
3.7584800732346264
 30
0.0
 10
-1.3845327683113575
 20
3.7244672905350344
 30
0.0
 10
-0.8425678762006433
 20
3.599180442123368
 30
0.0
 10
0.000706830310200024
 20
3.5880640448696797
 30
0.0
 10
0.7027816375135416
 20
3.7203370909221105
 30
0.0
 10
1.0140879856375173
 20
3.777648359606581
 30
0.0
 10
1.2958527775261932
 20
3.8604744033981033
 30
0.0
 10
1.5150740971022056
 20
3.961417903902505
 30
0.0
  0
SPLINE
  5
57
330
17
100
AcDbEntity
  8
visible
100
AcDbSpline
 70
0
 71
3
 72
8
 73
4
 74
0
 40
0.0
 40
0.0
 40
0.0
 40
0.0
 40
1.0
 40
1.0
 40
1.0
 40
1.0
 10
1.7693886725500014
 20
4.861935050628894
 30
0.0
 10
1.626238314316614
 20
4.964489881371777
 30
0.0
 10
1.4246382189107496
 20
5.056483005704868
 30
0.0
 10
1.1837889618058675
 20
5.130861060089785
 30
0.0
  0
SPLINE
  5
58
330
17
100
AcDbEntity
  8
visible
100
AcDbSpline
 70
0
 71
3
 72
11
 73
7
 74
0
 40
0.0
 40
0.0
 40
0.0
 40
0.0
 40
0.5183888767429465
 40
0.5183888767429465
 40
0.5183888767429465
 40
1.0
 40
1.0
 40
1.0
 40
1.0
 10
-1.7621497048318884
 20
4.601597129642979
 30
0.0
 10
-1.4400821758156233
 20
4.450514962826441
 30
0.0
 10
-0.8101442144855756
 20
4.359965658307353
 30
0.0
 10
-0.14323856742724672
 20
4.385887496616132
 30
0.0
 10
0.47533412458936797
 20
4.407147524665592
 30
0.0
 10
1.107495086659094
 20
4.528300684034889
 30
0.0
 10
1.5149623024987422
 20
4.717677801400937
 30
0.0
  0
SPLINE
  5
59
330
17
100
AcDbEntity
  8
visible
100
AcDbSpline
 70
0
 71
3
 72
8
 73
4
 74
0
 40
0.0
 40
0.0
 40
0.0
 40
0.0
 40
1.0
 40
1.0
 40
1.0
 40
1.0
 10
1.6866538463638854
 20
4.807723213832769
 30
0.0
 10
1.9032152452906772
 20
4.937797691650879
 30
0.0
 10
2.0206731268005647
 20
5.088814431490615
 30
0.0
 10
2.0200000207968243
 20
5.240097979354802
 30
0.0
  0
SPLINE
  5
5A
330
17
100
AcDbEntity
  8
visible
100
AcDbSpline
 70
0
 71
3
 72
14
 73
10
 74
0
 40
0.0
 40
0.0
 40
0.0
 40
0.0
 40
0.2568684723584806
 40
0.2568684723584806
 40
0.2568684723584806
 40
0.6340108950351653
 40
0.6340108950351653
 40
0.6340108950351653
 40
1.0
 40
1.0
 40
1.0
 40
1.0
 10
-1.762181070734366
 20
5.357977549198996
 30
0.0
 10
-1.601111599041039
 20
5.283730295559754
 30
0.0
 10
-1.3675304607801797
 20
5.222703042123775
 30
0.0
 10
-1.089382641314186
 20
5.1844534847176105
 30
0.0
 10
-0.68184517018729
 20
5.1276669673151645
 30
0.0
 10
-0.17771650342415227
 20
5.121537668823217
 30
0.0
 10
0.3015065238886192
 20
5.174489476466044
 30
0.0
 10
0.7670081340980851
 20
5.2249699151799085
 30
0.0
 10
1.204758243731157
 20
5.33070940166356
 30
0.0
 10
1.5149911084207663
 20
5.474026415614547
 30
0.0
  0
SPLINE
  5
5B
330
17
100
AcDbEntity
  8
visible
100
AcDbSpline
 70
0
 71
3
 72
8
 73
4
 74
0
 40
0.0
 40
0.0
 40
0.0
 40
0.0
 40
1.0
 40
1.0
 40
1.0
 40
1.0
 10
-1.7429971756528568
 20
6.643527621656575
 30
0.0
 10
-1.9236741534680504
 20
6.564589500923565
 30
0.0
 10
-2.0205006090169157
 20
6.469640735347375
 30
0.0
 10
-2.01999999581028
 20
6.374612784277682
 30
0.0
  0
SPLINE
  5
5C
330
17
100
AcDbEntity
  8
visible
100
AcDbSpline
 70
0
 71
3
 72
11
 73
7
 74
0
 40
0.0
 40
0.0
 40
0.0
 40
0.0
 40
0.5766666608459381
 40
0.5766666608459381
 40
0.5766666608459381
 40
1.0
 40
1.0
 40
1.0
 40
1.0
 10
-1.7621317745373273
 20
6.114254784310205
 30
0.0
 10
-1.4047543748962927
 20
5.945441015431278
 30
0.0
 10
-0.6622966363255175
 20
5.854359878372408
 30
0.0
 10
0.08151218944736294
 20
5.910808485044599
 30
0.0
 10
0.6259176059759832
 20
5.94960453451489
 30
0.0
 10
1.156635473710803
 20
6.064386543979474
 30
0.0
 10
1.5151274015140965
 20
6.230432385406083
 30
0.0
  0
SPLINE
  5
5D
330
17
100
AcDbEntity
  8
visible
100
AcDbSpline
 70
0
 71
3
 72
11
 73
7
 74
0
 40
0.0
 40
0.0
 40
0.0
 40
0.0
 40
0.5142491246490813
 40
0.5142491246490813
 40
0.5142491246490813
 40
1.0284982492981627
 40
1.0284982492981627
 40
1.0284982492981627
 40
1.0284982492981627
 10
2.0554804791094448
 20
-4.103567634617287
 30
0.0
 10
2.2979116718701507
 20
-3.969253388939702
 30
0.0
 10
2.4485617696193023
 20
-3.8144392882511506
 30
0.0
 10
2.488602682076827
 20
-3.6560345839248254
 30
0.0
 10
2.528162006230478
 20
-3.494707035110128
 30
0.0
 10
2.4613273479412965
 20
-3.338956600853247
 30
0.0
 10
2.2880987072092758
 20
-3.1887832811541807
 30
0.0
  0
SPLINE
  5
5E
330
17
100
AcDbEntity
  8
visible
100
AcDbSpline
 70
0
 71
1
 72
4
 73
2
 74
0
 40
0.0
 40
0.0
 40
1.0
 40
1.0
 10
1.5623264428893116
 20
-2.8231157583381963
 30
0.0
 10
1.522864786349908
 20
-2.8106166935650236
 30
0.0
  0
SPLINE
  5
5F
330
17
100
AcDbEntity
  8
visible
100
AcDbSpline
 70
0
 71
3
 72
11
 73
7
 74
0
 40
0.0
 40
0.0
 40
0.0
 40
0.0
 40
0.5
 40
0.5
 40
0.5
 40
1.0
 40
1.0
 40
1.0
 40
1.0
 10
-2.1540398573921062
 20
-2.8393644532121014
 30
0.0
 10
-2.379801247342506
 20
-2.942502703900806
 30
0.0
 10
-2.5006236806163984
 20
-3.0655345432301666
 30
0.0
 10
-2.500025655224062
 20
-3.188793601905833
 30
0.0
 10
-2.500589899478225
 20
-3.3120519830059574
 30
0.0
 10
-2.3797321835521004
 20
-3.435099487302524
 30
0.0
 10
-2.1539504284072
 20
-3.538246714682123
 30
0.0
  0
SPLINE
  5
60
330
17
100
AcDbEntity
  8
visible
100
AcDbSpline
 70
0
 71
3
 72
14
 73
10
 74
0
 40
0.0
 40
0.0
 40
0.0
 40
0.0
 40
0.3196922661333856
 40
0.3196922661333856
 40
0.3196922661333856
 40
0.6393845322667712
 40
0.6393845322667712
 40
0.6393845322667712
 40
1.0
 40
1.0
 40
1.0
 40
1.0
 10
-2.1539504284072
 20
-3.538246714682123
 30
0.0
 10
-1.8969837779746828
 20
-3.656567721841195
 30
0.0
 10
-1.5026857131366622
 20
-3.7479992318987976
 30
0.0
 10
-1.0405326437693876
 20
-3.792133075923996
 30
0.0
 10
-0.5792121885089349
 20
-3.8368462239266976
 30
0.0
 10
-0.05231122717552767
 20
-3.833945741524284
 30
0.0
 10
0.44721359574427977
 20
-3.779594290757264
 30
0.0
 10
1.0113279108638489
 20
-3.7191067633313297
 30
0.0
 10
1.5362753424933897
 20
-3.592804652066294
 30
0.0
 10
1.9058940399136333
 20
-3.4225674160896524
 30
0.0
  0
SPLINE
  5
61
330
17
100
AcDbEntity
  8
visible
100
AcDbSpline
 70
0
 71
3
 72
11
 73
7
 74
0
 40
0.0
 40
0.0
 40
0.0
 40
0.0
 40
0.5
 40
0.5
 40
0.5
 40
1.0
 40
1.0
 40
1.0
 40
1.0
 10
1.9058940399136333
 20
-3.422567416089652
 30
0.0
 10
2.208132045606658
 20
-3.284468213150359
 30
0.0
 10
2.4074202207240334
 20
-3.118241546773547
 30
0.0
 10
2.4739078020927447
 20
-2.945414864911875
 30
0.0
 10
2.5417890813411512
 20
-2.772655330098388
 30
0.0
 10
2.4766121307593507
 20
-2.593857471681894
 30
0.0
 10
2.288124248018228
 20
-2.432454882941973
 30
0.0
  0
SPLINE
  5
62
330
17
100
AcDbEntity
  8
visible
100
AcDbSpline
 70
0
 71
3
 72
11
 73
7
 74
0
 40
0.0
 40
0.0
 40
0.0
 40
0.0
 40
0.49999999999999917
 40
0.49999999999999917
 40
0.49999999999999917
 40
1.0
 40
1.0
 40
1.0
 40
1.0
 10
-2.1539210903853294
 20
-2.082976096122319
 30
0.0
 10
-2.379724731427269
 20
-2.1861326451383967
 30
0.0
 10
-2.5005750259310067
 20
-2.309187957595346
 30
0.0
 10
-2.5000040745375443
 20
-2.432445305366246
 30
0.0
 10
-2.500594224276437
 20
-2.5557044044210557
 30
0.0
 10
-2.379766842153399
 20
-2.6787243981971547
 30
0.0
 10
-2.153997424472447
 20
-2.781868574873639
 30
0.0
  0
SPLINE
  5
63
330
17
100
AcDbEntity
  8
visible
100
AcDbSpline
 70
0
 71
3
 72
14
 73
10
 74
0
 40
0.0
 40
0.0
 40
0.0
 40
0.0
 40
0.22718657008106924
 40
0.22718657008106924
 40
0.22718657008106924
 40
0.6135932850405346
 40
0.6135932850405346
 40
0.6135932850405346
 40
1.0
 40
1.0
 40
1.0
 40
1.0
 10
-2.1539974244724474
 20
-2.7818685748736396
 30
0.0
 10
-1.971095627259474
 20
-2.865829136652327
 30
0.0
 10
-1.7197970571588965
 20
-2.9366009467352225
 30
0.0
 10
-1.423024946902445
 20
-2.986088801546853
 30
0.0
 10
-0.9191399588832997
 20
-3.0710196444484184
 30
0.0
 10
-0.28278883700950974
 20
-3.0916515935180113
 30
0.0
 10
0.3258161188329902
 20
-3.0353719391302234
 30
0.0
 10
0.9349806565212976
 20
-2.980423576880444
 30
0.0
 10
1.5099364112289109
 20
-2.848815980042679
 30
0.0
 10
1.9058928539695001
 20
-2.6662437942689325
 30
0.0
  0
SPLINE
  5
64
330
17
100
AcDbEntity
  8
visible
100
AcDbSpline
 70
0
 71
3
 72
11
 73
7
 74
0
 40
0.0
 40
0.0
 40
0.0
 40
0.0
 40
0.5000000000000008
 40
0.5000000000000008
 40
0.5000000000000008
 40
1.0
 40
1.0
 40
1.0
 40
1.0
 10
1.9058928539695006
 20
-2.666243794268933
 30
0.0
 10
2.2081891022592797
 20
-2.5281188482292953
 30
0.0
 10
2.407494108975994
 20
-2.3618763455575946
 30
0.0
 10
2.4739493319853167
 20
-2.1890569221595055
 30
0.0
 10
2.5418008266568988
 20
-2.0163031980136785
 30
0.0
 10
2.476566608755307
 20
-1.8375243497595695
 30
0.0
 10
2.288057128562479
 20
-1.6761251547608396
 30
0.0
  0
SPLINE
  5
65
330
17
100
AcDbEntity
  8
visible
100
AcDbSpline
 70
0
 71
3
 72
11
 73
7
 74
0
 40
0.0
 40
0.0
 40
0.0
 40
0.0
 40
0.6689269609579334
 40
0.6689269609579334
 40
0.6689269609579334
 40
1.0
 40
1.0
 40
1.0
 40
1.0
 10
-2.153919513034688
 20
-1.32665120635744
 30
0.0
 10
-2.457019425979376
 20
-1.4645631721622947
 30
0.0
 10
-2.567695318663416
 20
-1.6383873594148068
 30
0.0
 10
-2.4596747752527865
 20
-1.800208612272519
 30
0.0
 10
-2.4061448008703334
 20
-1.8811974502292637
 30
0.0
 10
-2.304227794900537
 20
-1.9563191276441227
 30
0.0
 10
-2.1539237573433945
 20
-2.0255736445170927
 30
0.0
  0
SPLINE
  5
66
330
17
100
AcDbEntity
  8
visible
100
AcDbSpline
 70
0
 71
3
 72
11
 73
7
 74
0
 40
0.0
 40
0.0
 40
0.0
 40
0.0
 40
0.5
 40
0.5
 40
0.5
 40
1.0
 40
1.0
 40
1.0
 40
1.0
 10
-2.153923757343394
 20
-2.0255736445170918
 30
0.0
 10
-1.7545745741814227
 20
-2.211821965119089
 30
0.0
 10
-1.0080557497536784
 20
-2.3268440046035335
 30
0.0
 10
-0.2141961448967704
 20
-2.3090516159678853
 30
0.0
 10
0.5786920669084101
 20
-2.2948702769358142
 30
0.0
 10
1.3947308630777058
 20
-2.147170327952909
 30
0.0
 10
1.90576037345759
 20
-1.9099737301561603
 30
0.0
  0
SPLINE
  5
67
330
17
100
AcDbEntity
  8
visible
100
AcDbSpline
 70
0
 71
3
 72
11
 73
7
 74
0
 40
0.0
 40
0.0
 40
0.0
 40
0.0
 40
0.49999999999999845
 40
0.49999999999999845
 40
0.49999999999999845
 40
1.0
 40
1.0
 40
1.0
 40
1.0
 10
1.90576037345759
 20
-1.90997373015616
 30
0.0
 10
2.2080486358904863
 20
-1.7718496387445857
 30
0.0
 10
2.407355971152413
 20
-1.6056014137833174
 30
0.0
 10
2.4738611960915704
 20
-1.4327689611747618
 30
0.0
 10
2.541758708782576
 20
-1.2600025618951878
 30
0.0
 10
2.4766045698955095
 20
-1.0812042749988795
 30
0.0
 10
2.288114816232784
 20
-0.9197896802221721
 30
0.0
  0
SPLINE
  5
68
330
17
100
AcDbEntity
  8
visible
100
AcDbSpline
 70
0
 71
3
 72
11
 73
7
 74
0
 40
0.0
 40
0.0
 40
0.0
 40
0.0
 40
0.5000000000000017
 40
0.5000000000000017
 40
0.5000000000000017
 40
1.0
 40
1.0
 40
1.0
 40
1.0
 10
-2.153848434467978
 20
-0.5702901623081933
 30
0.0
 10
-2.3796612238965658
 20
-0.673460824919117
 30
0.0
 10
-2.5005221957566146
 20
-0.7965183828198632
 30
0.0
 10
-2.499982643111448
 20
-0.919775110232481
 30
0.0
 10
-2.500600805034334
 20
-1.0430340721142484
 30
0.0
 10
-2.3797852132629163
 20
-1.1660785674043972
 30
0.0
 10
-2.153972298028389
 20
-1.2692406773640028
 30
0.0
  0
SPLINE
  5
69
330
17
100
AcDbEntity
  8
visible
100
AcDbSpline
 70
0
 71
3
 72
11
 73
7
 74
0
 40
0.0
 40
0.0
 40
0.0
 40
0.0
 40
0.5
 40
0.5
 40
0.5
 40
1.0
 40
1.0
 40
1.0
 40
1.0
 10
-2.153972298028389
 20
-1.2692406773640026
 30
0.0
 10
-1.754560623065187
 20
-1.4555087060393883
 30
0.0
 10
-1.0077627009981835
 20
-1.5705651692203169
 30
0.0
 10
-0.2139707561700115
 20
-1.5527266855894521
 30
0.0
 10
0.5788719800735364
 20
-1.5385045158867972
 30
0.0
 10
1.394839054902118
 20
-1.3907600019361424
 30
0.0
 10
1.9059142743289625
 20
-1.1535567319797615
 30
0.0
  0
SPLINE
  5
6A
330
17
100
AcDbEntity
  8
visible
100
AcDbSpline
 70
0
 71
3
 72
11
 73
7
 74
0
 40
0.0
 40
0.0
 40
0.0
 40
0.0
 40
0.49999999999999845
 40
0.49999999999999845
 40
0.49999999999999845
 40
1.0
 40
1.0
 40
1.0
 40
1.0
 10
1.9059142743289628
 20
-1.1535567319797615
 30
0.0
 10
2.208170830569554
 20
-1.0154474307102594
 30
0.0
 10
2.407472853891809
 20
-0.8492250974599274
 30
0.0
 10
2.473946107965813
 20
-0.6764092200689513
 30
0.0
 10
2.5418153181183727
 20
-0.5036603120679289
 30
0.0
 10
2.4766024240778015
 20
-0.324869691874267
 30
0.0
 10
2.28809446498211
 20
-0.16346332607319047
 30
0.0
  0
SPLINE
  5
6B
330
17
100
AcDbEntity
  8
visible
100
AcDbSpline
 70
0
 71
3
 72
11
 73
7
 74
0
 40
0.0
 40
0.0
 40
0.0
 40
0.0
 40
0.5
 40
0.5
 40
0.5
 40
1.0
 40
1.0
 40
1.0
 40
1.0
 10
-2.1539845008439222
 20
0.18598700703401982
 30
0.0
 10
-2.3797420124812554
 20
0.08285133188129247
 30
0.0
 10
-2.500575236532292
 20
-0.04019454896575148
 30
0.0
 10
-2.5000008448017983
 20
-0.16346409603712542
 30
0.0
 10
-2.5005874790140834
 20
-0.28673350872884235
 30
0.0
 10
-2.379761291251928
 20
-0.4097832686458457
 30
0.0
 10
-2.1539820837664667
 20
-0.5129267434359683
 30
0.0
  0
SPLINE
  5
6C
330
17
100
AcDbEntity
  8
visible
100
AcDbSpline
 70
0
 71
3
 72
11
 73
7
 74
0
 40
0.0
 40
0.0
 40
0.0
 40
0.0
 40
0.5
 40
0.5
 40
0.5
 40
1.0
 40
1.0
 40
1.0
 40
1.0
 10
-2.1539820837664667
 20
-0.5129267434359683
 30
0.0
 10
-1.7545898180073436
 20
-0.6991777381968586
 30
0.0
 10
-1.007873105270745
 20
-0.8141776151590834
 30
0.0
 10
-0.2140991286570436
 20
-0.7963771071154844
 30
0.0
 10
0.57872258905459
 20
-0.7821884855040698
 30
0.0
 10
1.3947167516478447
 20
-0.6345117416416404
 30
0.0
 10
1.9058091104803498
 20
-0.39729661197399535
 30
0.0
  0
SPLINE
  5
6D
330
17
100
AcDbEntity
  8
visible
100
AcDbSpline
 70
0
 71
3
 72
11
 73
7
 74
0
 40
0.0
 40
0.0
 40
0.0
 40
0.0
 40
0.5
 40
0.5
 40
0.5
 40
1.0
 40
1.0
 40
1.0
 40
1.0
 10
1.9058091104803494
 20
-0.39729661197399535
 30
0.0
 10
2.208112941309683
 20
-0.2591682624950716
 30
0.0
 10
2.4074368522065863
 20
-0.09290575146074882
 30
0.0
 10
2.4739191055828065
 20
0.07992729412386212
 30
0.0
 10
2.5417966897349102
 20
0.25269587222272377
 30
0.0
 10
2.4765868540175404
 20
0.43147307775649973
 30
0.0
 10
2.2880718515345664
 20
0.5928679152033596
 30
0.0
  0
SPLINE
  5
6E
330
17
100
AcDbEntity
  8
visible
100
AcDbSpline
 70
0
 71
3
 72
11
 73
7
 74
0
 40
0.0
 40
0.0
 40
0.0
 40
0.0
 40
0.49999999999999667
 40
0.49999999999999667
 40
0.49999999999999667
 40
1.0
 40
1.0
 40
1.0
 40
1.0
 10
-2.1540080455290394
 20
0.9423123645340556
 30
0.0
 10
-2.379799917653594
 20
0.8391614935051235
 30
0.0
 10
-2.5006180270293483
 20
0.7161212466226277
 30
0.0
 10
-2.500014938633452
 20
0.5928666140517351
 30
0.0
 10
-2.5005731286569013
 20
0.46961173390787475
 30
0.0
 10
-2.379720122251385
 20
0.34657824571882034
 30
0.0
 10
-2.1539509019790692
 20
0.24343322774528997
 30
0.0
  0
SPLINE
  5
6F
330
17
100
AcDbEntity
  8
visible
100
AcDbSpline
 70
0
 71
3
 72
11
 73
7
 74
0
 40
0.0
 40
0.0
 40
0.0
 40
0.0
 40
0.5
 40
0.5
 40
0.5
 40
1.0
 40
1.0
 40
1.0
 40
1.0
 10
-2.1539509019790692
 20
0.24343322774528997
 30
0.0
 10
-1.754572151812577
 20
0.057181031402495044
 30
0.0
 10
-1.007966495858363
 20
-0.057874891313379404
 30
0.0
 10
-0.21416345396822012
 20
-0.04006822915418795
 30
0.0
 10
0.5786812496132459
 20
-0.025876889859496748
 30
0.0
 10
1.3947991833005793
 20
0.12185939758946819
 30
0.0
 10
1.9058297375359277
 20
0.3590495038312129
 30
0.0
  0
SPLINE
  5
70
330
17
100
AcDbEntity
  8
visible
100
AcDbSpline
 70
0
 71
3
 72
11
 73
7
 74
0
 40
0.0
 40
0.0
 40
0.0
 40
0.0
 40
0.7900641850091925
 40
0.7900641850091925
 40
0.7900641850091925
 40
1.0
 40
1.0
 40
1.0
 40
1.0
 10
1.9058297375359272
 20
0.3590495038312129
 30
0.0
 10
2.386641910363999
 20
0.5769715456229416
 30
0.0
 10
2.59573735992389
 20
0.8665298818637852
 30
0.0
 10
2.459674775252373
 20
1.1384190134903673
 30
0.0
 10
2.424416068552301
 20
1.2108675325769434
 30
0.0
 10
2.3672099384781458
 20
1.2811262835417714
 30
0.0
 10
2.2880563850299036
 20
1.3491952663848514
 30
0.0
  0
SPLINE
  5
71
330
17
100
AcDbEntity
  8
visible
100
AcDbSpline
 70
0
 71
3
 72
11
 73
7
 74
0
 40
0.0
 40
0.0
 40
0.0
 40
0.0
 40
0.5000000000000033
 40
0.5000000000000033
 40
0.5000000000000033
 40
1.0
 40
1.0
 40
1.0
 40
1.0
 10
-2.1538815640960625
 20
1.6986814451104313
 30
0.0
 10
-2.3796764341752974
 20
1.595526930944517
 30
0.0
 10
-2.5005254363734455
 20
1.4724745634813101
 30
0.0
 10
-2.499967684177401
 20
1.349204061067724
 30
0.0
 10
-2.50056940785226
 20
1.225933530305847
 30
0.0
 10
-2.3797581988930925
 20
1.1028816291755466
 30
0.0
 10
-2.15395644234719
 20
0.9997271967261508
 30
0.0
  0
SPLINE
  5
72
330
17
100
AcDbEntity
  8
visible
100
AcDbSpline
 70
0
 71
3
 72
11
 73
7
 74
0
 40
0.0
 40
0.0
 40
0.0
 40
0.0
 40
0.49999999999999817
 40
0.49999999999999817
 40
0.49999999999999817
 40
1.0
 40
1.0
 40
1.0
 40
1.0
 10
-2.15395644234719
 20
0.999727196726151
 30
0.0
 10
-1.7545719005806157
 20
0.8134708936470745
 30
0.0
 10
-1.0076868574780595
 20
0.698439861925797
 30
0.0
 10
-0.2138601113884705
 20
0.7162736418224975
 30
0.0
 10
0.5790134873286429
 20
0.7304939583674476
 30
0.0
 10
1.3948032775335597
 20
0.8782365270984704
 30
0.0
 10
1.9059777646284903
 20
1.1154603934023768
 30
0.0
  0
SPLINE
  5
73
330
17
100
AcDbEntity
  8
visible
100
AcDbSpline
 70
0
 71
3
 72
14
 73
10
 74
0
 40
0.0
 40
0.0
 40
0.0
 40
0.0
 40
0.08783262390304411
 40
0.08783262390304411
 40
0.08783262390304411
 40
0.5439163119515189
 40
0.5439163119515189
 40
0.5439163119515189
 40
1.0
 40
1.0
 40
1.0
 40
1.0
 10
1.9059777646284903
 20
1.115460393402377
 30
0.0
 10
1.959005734270032
 20
1.1397585453575996
 30
0.0
 10
2.0088399724896853
 20
1.1648545268270654
 30
0.0
 10
2.0554804792874504
 20
1.1907483378107737
 30
0.0
 10
2.297911671909011
 20
1.3250625862198313
 30
0.0
 10
2.448561769634964
 20
1.4798766873557765
 30
0.0
 10
2.4886026820803444
 20
1.6382813919778578
 30
0.0
 10
2.528162006228395
 20
1.7996089409583431
 30
0.0
 10
2.4613273479427455
 20
1.9553593752588074
 30
0.0
 10
2.288098707223396
 20
2.1055326948792508
 30
0.0
  0
SPLINE
  5
74
330
17
100
AcDbEntity
  8
visible
100
AcDbSpline
 70
0
 71
1
 72
4
 73
2
 74
0
 40
0.0
 40
0.0
 40
1.0
 40
1.0
 10
1.5623264455137904
 20
2.471200216823722
 30
0.0
 10
1.5228647863379816
 20
2.4836992824471507
 30
0.0
  0
SPLINE
  5
75
330
17
100
AcDbEntity
  8
visible
100
AcDbSpline
 70
0
 71
3
 72
11
 73
7
 74
0
 40
0.0
 40
0.0
 40
0.0
 40
0.0
 40
0.49999999999999667
 40
0.49999999999999667
 40
0.49999999999999667
 40
1.0
 40
1.0
 40
1.0
 40
1.0
 10
-2.1540398573868544
 20
2.4549515228095276
 30
0.0
 10
-2.3798012473324692
 20
2.3518132721237017
 30
0.0
 10
-2.500623680607706
 20
2.2287814327955298
 30
0.0
 10
-2.5000256552238005
 20
2.10552237412137
 30
0.0
 10
-2.5005898994862417
 20
1.9822639930226196
 30
0.0
 10
-2.379732183575593
 20
1.8592164887303115
 30
0.0
 10
-2.153950428450419
 20
1.7560692613582667
 30
0.0
  0
SPLINE
  5
76
330
17
100
AcDbEntity
  8
visible
100
AcDbSpline
 70
0
 71
3
 72
14
 73
10
 74
0
 40
0.0
 40
0.0
 40
0.0
 40
0.0
 40
0.3196922661384925
 40
0.3196922661384925
 40
0.3196922661384925
 40
0.639384532276985
 40
0.639384532276985
 40
0.639384532276985
 40
1.0
 40
1.0
 40
1.0
 40
1.0
 10
-2.153950428450419
 20
1.7560692613582671
 30
0.0
 10
-1.8969837780260848
 20
1.637748254199991
 30
0.0
 10
-1.5026857131859856
 20
1.546316744151552
 30
0.0
 10
-1.0405326438077933
 20
1.5021829000951763
 30
0.0
 10
-0.5792121885373926
 20
1.4574697520770448
 30
0.0
 10
-0.05231122718128262
 20
1.46037023434492
 30
0.0
 10
0.4472135957499958
 20
1.5147216851629555
 30
0.0
 10
1.0113279108561195
 20
1.5752092126671686
 30
0.0
 10
1.5362753424764732
 20
1.7015113239420647
 30
0.0
 10
1.9058940398952338
 20
1.8717485599211514
 30
0.0
  0
SPLINE
  5
77
330
17
100
AcDbEntity
  8
visible
100
AcDbSpline
 70
0
 71
3
 72
11
 73
7
 74
0
 40
0.0
 40
0.0
 40
0.0
 40
0.0
 40
0.5
 40
0.5
 40
0.5
 40
1.0
 40
1.0
 40
1.0
 40
1.0
 10
1.905894039895234
 20
1.8717485599211514
 30
0.0
 10
2.2081320455958373
 20
2.009847762865258
 30
0.0
 10
2.407420220719585
 20
2.1760744292408436
 30
0.0
 10
2.4739078020911722
 20
2.3489011111031135
 30
0.0
 10
2.5417890813425412
 20
2.5216606459168918
 30
0.0
 10
2.4766121307602194
 20
2.7004585043348723
 30
0.0
 10
2.2881242480153725
 20
2.8618610930769908
 30
0.0
  0
SPLINE
  5
78
330
17
100
AcDbEntity
  8
visible
100
AcDbSpline
 70
0
 71
3
 72
11
 73
7
 74
0
 40
0.0
 40
0.0
 40
0.0
 40
0.0
 40
0.5000000000000033
 40
0.5000000000000033
 40
0.5000000000000033
 40
1.0
 40
1.0
 40
1.0
 40
1.0
 10
-2.153921090391194
 20
3.211339879892607
 30
0.0
 10
-2.3797247314330923
 20
3.1081833308763134
 30
0.0
 10
-2.5005750259349675
 20
2.985128018419547
 30
0.0
 10
-2.5000040745376895
 20
2.8618706706475394
 30
0.0
 10
-2.5005942242728505
 20
2.738611571591884
 30
0.0
 10
-2.3797668421440847
 20
2.615591577812397
 30
0.0
 10
-2.1539974244566187
 20
2.5124474011344726
 30
0.0
  0
SPLINE
  5
79
330
17
100
AcDbEntity
  8
visible
100
AcDbSpline
 70
0
 71
3
 72
14
 73
10
 74
0
 40
0.0
 40
0.0
 40
0.0
 40
0.0
 40
0.22718657007671608
 40
0.22718657007671608
 40
0.22718657007671608
 40
0.6135932850383581
 40
0.6135932850383581
 40
0.6135932850383581
 40
1.0
 40
1.0
 40
1.0
 40
1.0
 10
-2.1539974244566187
 20
2.512447401134473
 30
0.0
 10
-1.9710956272449485
 20
2.428486839358352
 30
0.0
 10
-1.719797057150059
 20
2.3577150292773505
 30
0.0
 10
-1.4230249469030194
 20
2.308227174485747
 30
0.0
 10
-0.9191399588871024
 20
2.223296331610137
 30
0.0
 10
-0.28278883701414914
 20
2.2026643824995267
 30
0.0
 10
0.3258161188264498
 20
2.2589440368849782
 30
0.0
 10
0.9349806565130968
 20
2.3138923991271554
 30
0.0
 10
1.5099364112193272
 20
2.4454999959708137
 30
0.0
 10
1.9058928539608482
 20
2.6280721817462434
 30
0.0
  0
SPLINE
  5
7A
330
17
100
AcDbEntity
  8
visible
100
AcDbSpline
 70
0
 71
3
 72
11
 73
7
 74
0
 40
0.0
 40
0.0
 40
0.0
 40
0.0
 40
0.5
 40
0.5
 40
0.5
 40
1.0
 40
1.0
 40
1.0
 40
1.0
 10
1.9058928539608477
 20
2.6280721817462434
 30
0.0
 10
2.208189102254501
 20
2.7661971277888884
 30
0.0
 10
2.4074941089741797
 20
2.93243963046177
 30
0.0
 10
2.4739493319846897
 20
3.105259053859374
 30
0.0
 10
2.541800826657494
 20
3.2780127780048085
 30
0.0
 10
2.476566608755305
 20
3.4567916262575995
 30
0.0
 10
2.288057128560173
 20
3.61819082125655
 30
0.0
  0
SPLINE
  5
7B
330
17
100
AcDbEntity
  8
visible
100
AcDbSpline
 70
0
 71
3
 72
11
 73
7
 74
0
 40
0.0
 40
0.0
 40
0.0
 40
0.0
 40
0.6689269609451998
 40
0.6689269609451998
 40
0.6689269609451998
 40
1.0
 40
1.0
 40
1.0
 40
1.0
 10
-2.1539195130636863
 20
3.9676647696462926
 30
0.0
 10
-2.4570194259868914
 20
3.829752803846267
 30
0.0
 10
-2.5676953186607623
 20
3.6559286166295
 30
0.0
 10
-2.4596747752533323
 20
3.494107363748161
 30
0.0
 10
-2.4061448008691833
 20
3.41311852577613
 30
0.0
 10
-2.3042277948954584
 20
3.337996848355664
 30
0.0
 10
-2.153923757332152
 20
3.2687423314867625
 30
0.0
  0
SPLINE
  5
7C
330
17
100
AcDbEntity
  8
visible
100
AcDbSpline
 70
0
 71
3
 72
11
 73
7
 74
0
 40
0.0
 40
0.0
 40
0.0
 40
0.0
 40
0.5
 40
0.5
 40
0.5
 40
1.0
 40
1.0
 40
1.0
 40
1.0
 10
-2.1539237573321524
 20
3.268742331486763
 30
0.0
 10
-1.7545745741665433
 20
3.082494010898604
 30
0.0
 10
-1.0080557497422082
 20
2.967471971419681
 30
0.0
 10
-0.21419614489064775
 20
2.9852643600509854
 30
0.0
 10
0.5786920669092199
 20
2.9994456990799137
 30
0.0
 10
1.394730863072151
 20
3.1471456480619335
 30
0.0
 10
1.9057603734510962
 20
3.3843422458588153
 30
0.0
  0
SPLINE
  5
7D
330
17
100
AcDbEntity
  8
visible
100
AcDbSpline
 70
0
 71
3
 72
11
 73
7
 74
0
 40
0.0
 40
0.0
 40
0.0
 40
0.0
 40
0.49999999999999684
 40
0.49999999999999684
 40
0.49999999999999684
 40
1.0
 40
1.0
 40
1.0
 40
1.0
 10
1.9057603734510964
 20
3.3843422458588153
 30
0.0
 10
2.2080486358866636
 20
3.522466337271747
 30
0.0
 10
2.4073559711507255
 20
3.6887145622343485
 30
0.0
 10
2.473861196090963
 20
3.861547014843149
 30
0.0
 10
2.541758708783062
 20
4.034313414123043
 30
0.0
 10
2.4766045698960335
 20
4.213111701018719
 30
0.0
 10
2.288114816232305
 20
4.374526295795154
 30
0.0
  0
SPLINE
  5
7E
330
17
100
AcDbEntity
  8
visible
100
AcDbSpline
 70
0
 71
3
 72
11
 73
7
 74
0
 40
0.0
 40
0.0
 40
0.0
 40
0.0
 40
0.4999999999999934
 40
0.4999999999999934
 40
0.4999999999999934
 40
1.0
 40
1.0
 40
1.0
 40
1.0
 10
-2.1538484345370454
 20
4.7240258136662066
 30
0.0
 10
-2.3796612239333093
 20
4.620855151061007
 30
0.0
 10
-2.5005221957687622
 20
4.497797593170643
 30
0.0
 10
-2.499982643111485
 20
4.37454086576597
 30
0.0
 10
-2.5006008050220445
 20
4.251281903892405
 30
0.0
 10
-2.379785213250827
 20
4.128237408609133
 30
0.0
 10
-2.1539722980274894
 20
4.025075298654235
 30
0.0
  0
SPLINE
  5
7F
330
17
100
AcDbEntity
  8
visible
100
AcDbSpline
 70
0
 71
3
 72
11
 73
7
 74
0
 40
0.0
 40
0.0
 40
0.0
 40
0.0
 40
0.5
 40
0.5
 40
0.5
 40
1.0
 40
1.0
 40
1.0
 40
1.0
 10
-2.1539722980274894
 20
4.025075298654235
 30
0.0
 10
-1.7545606230636968
 20
3.83880726997764
 30
0.0
 10
-1.0077627009960584
 20
3.723750806796459
 30
0.0
 10
-0.2139707561675928
 20
3.74158929042832
 30
0.0
 10
0.5788719800762584
 20
3.755811460131883
 30
0.0
 10
1.3948390549048202
 20
3.9035559740831705
 30
0.0
 10
1.9059142743310282
 20
4.140759244039314
 30
0.0
  0
SPLINE
  5
80
330
17
100
AcDbEntity
  8
visible
100
AcDbSpline
 70
0
 71
3
 72
11
 73
7
 74
0
 40
0.0
 40
0.0
 40
0.0
 40
0.0
 40
0.5
 40
0.5
 40
0.5
 40
1.0
 40
1.0
 40
1.0
 40
1.0
 10
1.9059142743310282
 20
4.140759244039314
 30
0.0
 10
2.208170830570931
 20
4.278868545308581
 30
0.0
 10
2.407472853892557
 20
4.4450908785585215
 30
0.0
 10
2.473946107966091
 20
4.617906755949334
 30
0.0
 10
2.541815318118175
 20
4.790655663950174
 30
0.0
 10
2.4766024240772935
 20
4.969446284143938
 30
0.0
 10
2.2880944649815866
 20
5.130852649945324
 30
0.0
  0
SPLINE
  5
81
330
17
100
AcDbEntity
  8
visible
100
AcDbSpline
 70
0
 71
3
 72
11
 73
7
 74
0
 40
0.0
 40
0.0
 40
0.0
 40
0.0
 40
0.5
 40
0.5
 40
0.5
 40
1.0
 40
1.0
 40
1.0
 40
1.0
 10
-2.1539845008320353
 20
5.4803029830648065
 30
0.0
 10
-2.3797420124748916
 20
5.37716730791471
 30
0.0
 10
-2.500575236530484
 20
5.254121427059849
 30
0.0
 10
-2.5000008448017805
 20
5.130851879982946
 30
0.0
 10
-2.5005874790159344
 20
5.007582467285354
 30
0.0
 10
-2.3797612912528416
 20
4.88453270736521
 30
0.0
 10
-2.153982083764074
 20
4.781389232575949
 30
0.0
  0
SPLINE
  5
82
330
17
100
AcDbEntity
  8
visible
100
AcDbSpline
 70
0
 71
3
 72
11
 73
7
 74
0
 40
0.0
 40
0.0
 40
0.0
 40
0.0
 40
0.5
 40
0.5
 40
0.5
 40
1.0
 40
1.0
 40
1.0
 40
1.0
 10
-2.153982083764074
 20
4.781389232575949
 30
0.0
 10
-1.7545898180071449
 20
4.595138237820706
 30
0.0
 10
-1.0078731052799903
 20
4.480138360868049
 30
0.0
 10
-0.21409912867496939
 20
4.497938868906042
 30
0.0
 10
0.5787225890280036
 20
4.5121274905127535
 30
0.0
 10
1.3947167516146903
 20
4.659804234361128
 30
0.0
 10
1.9058091104526997
 20
4.897019364027582
 30
0.0
  0
SPLINE
  5
83
330
17
100
AcDbEntity
  8
visible
100
AcDbSpline
 70
0
 71
3
 72
11
 73
7
 74
0
 40
0.0
 40
0.0
 40
0.0
 40
0.0
 40
0.5
 40
0.5
 40
0.5
 40
1.0
 40
1.0
 40
1.0
 40
1.0
 10
1.905809110452699
 20
4.89701936402758
 30
0.0
 10
2.2081129412943334
 20
5.035147713509457
 30
0.0
 10
2.4074368522009997
 20
5.201410224552403
 30
0.0
 10
2.4739191055813317
 20
5.374243270142579
 30
0.0
 10
2.541796689737677
 20
5.547011848247393
 30
0.0
 10
2.4765868540185845
 20
5.7257890537808205
 30
0.0
 10
2.2880718515281564
 20
5.887183891219932
 30
0.0
  0
SPLINE
  5
84
330
17
100
AcDbEntity
  8
visible
100
AcDbSpline
 70
0
 71
3
 72
8
 73
4
 74
0
 40
0.0
 40
0.0
 40
0.0
 40
0.0
 40
1.0
 40
1.0
 40
1.0
 40
1.0
 10
-1.1176974415711978
 20
6.482627152026636
 30
0.0
 10
-1.4224961295533067
 20
6.449456358277348
 30
0.0
 10
-1.695516935588449
 20
6.395678591831481
 30
0.0
 10
-1.9144548625785973
 20
6.327024141851643
 30
0.0
  0
SPLINE
  5
85
330
17
100
AcDbEntity
  8
visible
100
AcDbSpline
 70
0
 71
1
 72
4
 73
2
 74
0
 40
0.0
 40
0.0
 40
1.0
 40
1.0
 10
-2.0895195682614114
 20
6.264509760722474
 30
0.0
 10
-2.154008045526819
 20
6.236628340557312
 30
0.0
  0
SPLINE
  5
86
330
17
100
AcDbEntity
  8
visible
100
AcDbSpline
 70
0
 71
3
 72
11
 73
7
 74
0
 40
0.0
 40
0.0
 40
0.0
 40
0.0
 40
0.5
 40
0.5
 40
0.5
 40
1.0
 40
1.0
 40
1.0
 40
1.0
 10
-2.154008045526819
 20
6.236628340557312
 30
0.0
 10
-2.3797999176540254
 20
6.133477469529583
 30
0.0
 10
-2.5006180270306806
 20
6.010437222643923
 30
0.0
 10
-2.5000149386333774
 20
5.887182590068889
 30
0.0
 10
-2.500573128655458
 20
5.763927709920916
 30
0.0
 10
-2.379720122246267
 20
5.640894221727679
 30
0.0
 10
-2.1539509019685976
 20
5.5377492037536715
 30
0.0
  0
SPLINE
  5
87
330
17
100
AcDbEntity
  8
visible
100
AcDbSpline
 70
0
 71
3
 72
11
 73
7
 74
0
 40
0.0
 40
0.0
 40
0.0
 40
0.0
 40
0.5
 40
0.5
 40
0.5
 40
1.0
 40
1.0
 40
1.0
 40
1.0
 10
-2.1539509019685976
 20
5.5377492037536715
 30
0.0
 10
-1.7545721518041486
 20
5.3514970074148955
 30
0.0
 10
-1.0079664958678591
 20
5.236441084712282
 30
0.0
 10
-0.21416345399434844
 20
5.25424774686822
 30
0.0
 10
0.5786812495705218
 20
5.2684390861613
 30
0.0
 10
1.3947991832444206
 20
5.4161753735848714
 30
0.0
 10
1.9058297374878124
 20
5.653365479822034
 30
0.0
  0
SPLINE
  5
88
330
17
100
AcDbEntity
  8
visible
100
AcDbSpline
 70
0
 71
3
 72
11
 73
7
 74
0
 40
0.0
 40
0.0
 40
0.0
 40
0.0
 40
0.662531937009568
 40
0.662531937009568
 40
0.662531937009568
 40
1.0
 40
1.0
 40
1.0
 40
1.0
 10
1.9058297374878115
 20
5.653365479822033
 30
0.0
 10
2.386641910348816
 20
5.871287521602874
 30
0.0
 10
2.595737359930158
 20
6.160845857953099
 30
0.0
 10
2.4596747752550563
 20
6.432734989419167
 30
0.0
 10
2.390324020567413
 20
6.57300129564178
 30
0.0
 10
2.2437657621490623
 20
6.702477035621426
 30
0.0
 10
2.020000000000007
 20
6.821162209358103
 30
0.0
  0
SPLINE
  5
89
330
17
100
AcDbEntity
  8
visible
100
AcDbSpline
 70
0
 71
3
 72
11
 73
7
 74
0
 40
0.0
 40
0.0
 40
0.0
 40
0.0
 40
0.5000000000000067
 40
0.5000000000000067
 40
0.5000000000000067
 40
1.0
 40
1.0
 40
1.0
 40
1.0
 10
-2.1538815640976257
 20
6.992997421131333
 30
0.0
 10
-2.379676434180623
 20
6.889842906965182
 30
0.0
 10
-2.5005254363784424
 20
6.7667905394987224
 30
0.0
 10
-2.499967684177469
 20
6.643520037081737
 30
0.0
 10
-2.500569407847475
 20
6.5202495063164205
 30
0.0
 10
-2.379758198878833
 20
6.39719760518234
 30
0.0
 10
-2.153956442320621
 20
6.294043172728729
 30
0.0
  0
SPLINE
  5
8A
330
17
100
AcDbEntity
  8
visible
100
AcDbSpline
 70
0
 71
3
 72
11
 73
7
 74
0
 40
0.0
 40
0.0
 40
0.0
 40
0.0
 40
0.5
 40
0.5
 40
0.5
 40
1.0
 40
1.0
 40
1.0
 40
1.0
 10
-2.153956442320621
 20
6.294043172728729
 30
0.0
 10
-1.754571900816264
 20
6.107786869781167
 30
0.0
 10
-1.0076868584958814
 20
5.992755838069885
 30
0.0
 10
-0.213860113018691
 20
6.0105896178358975
 30
0.0
 10
0.5790134850886377
 20
6.024809934004894
 30
0.0
 10
1.394803274904654
 20
6.172552503416844
 30
0.0
 10
1.9059777625375527
 20
6.409776366260586
 30
0.0
  0
SPLINE
  5
8B
330
17
100
AcDbEntity
  8
visible
100
AcDbSpline
 70
0
 71
2
 72
6
 73
3
 74
0
 40
0.0
 40
0.0
 40
0.0
 40
1.0
 40
1.0
 40
1.0
 10
1.9059777625375527
 20
6.409776366260586
 30
0.0
 10
1.9855197182169377
 20
6.446223594128398
 30
0.0
 10
2.0554804793829233
 20
6.485064310366727
 30
0.0
  0
SPLINE
  5
8C
330
17
100
AcDbEntity
  8
visible
100
AcDbSpline
 70
0
 71
1
 72
4
 73
2
 74
0
 40
0.0
 40
0.0
 40
1.0
 40
1.0
 10
1.660828227120447
 20
-4.283450003558202
 30
0.0
 10
2.055480479109445
 20
-4.103567634617287
 30
0.0
  0
SPLINE
  5
8D
330
17
100
AcDbEntity
  8
visible
100
AcDbSpline
 70
0
 71
1
 72
4
 73
2
 74
0
 40
0.0
 40
0.0
 40
0.5579503938302087
 40
0.5579503938302087
 10
2.0554804791094448
 20
-4.103567634617287
 30
0.0
 10
1.6608282271204469
 20
-3.7456147298040183
 30
0.0
  0
SPLINE
  5
8E
330
17
100
AcDbEntity
  8
visible
100
AcDbSpline
 70
0
 71
3
 72
8
 73
4
 74
0
 40
0.0
 40
0.0
 40
0.0
 40
0.0
 40
0.08142238987475449
 40
0.08142238987475449
 40
0.08142238987475449
 40
0.08142238987475449
 10
1.6608282271204322
 20
-3.7456147298040046
 30
0.0
 10
1.857244167945946
 20
-3.63288874322855
 30
0.0
 10
1.9791788842622053
 20
-3.5034413517213276
 30
0.0
 10
2.011084260376543
 20
-3.3711412557312572
 30
0.0
  0
SPLINE
  5
8F
330
17
100
AcDbEntity
  8
visible
100
AcDbSpline
 70
0
 71
1
 72
4
 73
2
 74
0
 40
0.0
 40
0.0
 40
1.0
 40
1.0
 10
1.5872736782082355
 20
-2.810621267676504
 30
0.0
 10
1.5623168123359306
 20
-2.7981213365890807
 30
0.0
  0
SPLINE
  5
90
330
17
100
AcDbEntity
  8
visible
100
AcDbSpline
 70
0
 71
3
 72
14
 73
10
 74
0
 40
0.0
 40
0.0
 40
0.0
 40
0.0
 40
0.2324016182497521
 40
0.2324016182497521
 40
0.2324016182497521
 40
0.6183534826490993
 40
0.6183534826490993
 40
0.6183534826490993
 40
1.0
 40
1.0
 40
1.0
 40
1.0
 10
-2.020000004928518
 20
-2.9198543251865643
 30
0.0
 10
-2.0207659710804107
 20
-3.025592355202602
 30
0.0
 10
-1.900252234304079
 20
-3.1312113236850396
 30
0.0
 10
-1.678827259748457
 20
-3.2149575336549994
 30
0.0
 10
-1.3152672863751587
 20
-3.3556449645744264
 30
0.0
 10
-0.665987537338883
 20
-3.4297396923162276
 30
0.0
 10
-0.004788607021616542
 20
-3.389344404562955
 30
0.0
 10
0.6487025167539561
 20
-3.352569010378925
 30
0.0
 10
1.2926801071051532
 20
-3.20417731264795
 30
0.0
 10
1.6608282271204324
 20
-2.9892826780886175
 30
0.0
  0
LINE
  5
91
330
17
100
AcDbEntity
  8
visible
100
AcDbLine
 10
1.6608282271204327
 20
-2.989282678088618
 30
0.0
 11
1.6608282271204327
 21
-2.770794624560436
 31
0.0
  0
SPLINE
  5
92
330
17
100
AcDbEntity
  8
visible
100
AcDbSpline
 70
0
 71
3
 72
8
 73
4
 74
0
 40
0.0
 40
0.0
 40
0.0
 40
0.0
 40
0.09640501416287718
 40
0.09640501416287718
 40
0.09640501416287718
 40
0.09640501416287718
 10
1.6608282271204318
 20
-2.989282678088617
 30
0.0
 10
1.8936674220812357
 20
-2.855822259268214
 30
0.0
 10
2.0207799562479907
 20
-2.6989382737782677
 30
0.0
 10
2.0200000036667847
 20
-2.541701032571373
 30
0.0
  0
SPLINE
  5
93
330
17
100
AcDbEntity
  8
visible
100
AcDbSpline
 70
0
 71
2
 72
6
 73
3
 74
0
 40
0.0
 40
0.0
 40
0.0
 40
1.0
 40
1.0
 40
1.0
 10
2.000042113610712
 20
-2.4324592071240945
 30
0.0
 10
1.9476172687188726
 20
-2.29124257522171
 30
0.0
 10
1.7693907896423418
 20
-2.163526497479158
 30
0.0
  0
SPLINE
  5
94
330
17
100
AcDbEntity
  8
visible
100
AcDbSpline
 70
0
 71
3
 72
14
 73
10
 74
0
 40
0.0
 40
0.0
 40
0.0
 40
0.0
 40
0.31806678864504084
 40
0.31806678864504084
 40
0.31806678864504084
 40
0.5372410380537812
 40
0.5372410380537812
 40
0.5372410380537812
 40
1.0
 40
1.0
 40
1.0
 40
1.0
 10
-2.0200000029398595
 20
-2.16353702046619
 30
0.0
 10
-2.02238268654506
 20
-2.308369697275175
 30
0.0
 10
-1.7922446801671266
 20
-2.4518893375134
 30
0.0
 10
-1.3980434609637011
 20
-2.541613132287474
 30
0.0
 10
-1.1282757936801302
 20
-2.6038443029074756
 30
0.0
 10
-0.7848412957127336
 20
-2.640773274664381
 30
0.0
 10
-0.4185910713954014
 20
-2.6435771695944865
 30
0.0
 10
0.3579129042124424
 20
-2.653305733599089
 30
0.0
 10
1.215900756005508
 20
-2.4951242819160036
 30
0.0
 10
1.660828227120433
 20
-2.2329481813344056
 30
0.0
  0
LINE
  5
95
330
17
100
AcDbEntity
  8
visible
100
AcDbLine
 10
1.6608282271204327
 20
-2.2329481813344048
 30
0.0
 11
1.6608282271204327
 21
-2.0223008746070197
 31
0.0
  0
SPLINE
  5
96
330
17
100
AcDbEntity
  8
visible
100
AcDbSpline
 70
0
 71
3
 72
8
 73
4
 74
0
 40
0.0
 40
0.0
 40
0.0
 40
0.0
 40
0.0814221496526088
 40
0.0814221496526088
 40
0.0814221496526088
 40
0.0814221496526088
 10
1.660828227120433
 20
-2.2329481813344065
 30
0.0
 10
1.8572518792117634
 20
-2.1201953816467043
 30
0.0
 10
1.979151935945354
 20
-1.9907547925705709
 30
0.0
 10
2.0110774748782254
 20
-1.8584814715185036
 30
0.0
  0
SPLINE
  5
97
330
17
100
AcDbEntity
  8
visible
100
AcDbSpline
 70
0
 71
3
 72
17
 73
13
 74
0
 40
0.0
 40
0.0
 40
0.0
 40
0.0
 40
0.14872111918772385
 40
0.14872111918772385
 40
0.14872111918772385
 40
0.4685184733313836
 40
0.4685184733313836
 40
0.4685184733313836
 40
0.7100201634416664
 40
0.7100201634416664
 40
0.7100201634416664
 40
1.0
 40
1.0
 40
1.0
 40
1.0
 10
-2.019999906970298
 20
-1.4072178850257833
 30
0.0
 10
-2.0195594481473447
 20
-1.4757908690440158
 30
0.0
 10
-1.9722324930986959
 20
-1.54146863385934
 30
0.0
 10
-1.8780190418243536
 20
-1.6042511794717584
 30
0.0
 10
-1.678832580441573
 20
-1.7377350426167548
 30
0.0
 10
-1.2624937254856605
 20
-1.8415533368089076
 30
0.0
 10
-0.7541743658172566
 20
-1.8748406357513026
 30
0.0
 10
-0.37178579157896763
 20
-1.9007123332638212
 30
0.0
 10
0.05859661539856284
 20
-1.886880321335914
 30
0.0
 10
0.4601580127918479
 20
-1.831408743440402
 30
0.0
 10
0.94327812201051
 20
-1.7656046480566068
 30
0.0
 10
1.380002723017418
 20
-1.639250445398264
 30
0.0
 10
1.660828227120433
 20
-1.4766263744891273
 30
0.0
  0
LINE
  5
98
330
17
100
AcDbEntity
  8
visible
100
AcDbLine
 10
1.6608282271204327
 20
-1.4766263744891233
 30
0.0
 11
1.6608282271204327
 21
-1.2659548099446751
 31
0.0
  0
SPLINE
  5
99
330
17
100
AcDbEntity
  8
visible
100
AcDbSpline
 70
0
 71
3
 72
8
 73
4
 74
0
 40
0.0
 40
0.0
 40
0.0
 40
0.0
 40
0.08143864551885721
 40
0.08143864551885721
 40
0.08143864551885721
 40
0.08143864551885721
 10
1.660828227120433
 20
-1.4766263744891264
 30
0.0
 10
1.8572712486943732
 20
-1.3638794445737314
 30
0.0
 10
1.9791767344780946
 20
-1.2344361706644322
 30
0.0
 10
2.0110869516727194
 20
-1.1021401512816045
 30
0.0
  0
SPLINE
  5
9A
330
17
100
AcDbEntity
  8
visible
100
AcDbSpline
 70
0
 71
3
 72
14
 73
10
 74
0
 40
0.0
 40
0.0
 40
0.0
 40
0.0
 40
0.1564792919729126
 40
0.1564792919729126
 40
0.1564792919729126
 40
0.5816466777056203
 40
0.5816466777056203
 40
0.5816466777056203
 40
1.0
 40
1.0
 40
1.0
 40
1.0
 10
-2.019998663190567
 20
-0.6508873532493338
 30
0.0
 10
-2.019459028728166
 20
-0.72311936382245
 30
0.0
 10
-1.9671749364958162
 20
-0.7919721028324821
 30
0.0
 10
-1.8631463864935112
 20
-0.8574455702794286
 30
0.0
 10
-1.587877114520142
 20
-1.0343921274060266
 30
0.0
 10
-0.9201064395489599
 20
-1.1514102674285178
 30
0.0
 10
-0.19314673395991244
 20
-1.1285570834331462
 30
0.0
 10
0.520624400801758
 20
-1.1105524346313258
 30
0.0
 10
1.2579169143710127
 20
-0.956423800181436
 30
0.0
 10
1.6608282271204327
 20
-0.7202953393294411
 30
0.0
  0
LINE
  5
9B
330
17
100
AcDbEntity
  8
visible
100
AcDbLine
 10
1.6608282271204327
 20
-0.7202953393294407
 30
0.0
 11
1.6608282271204327
 21
-0.5096446559386907
 31
0.0
  0
SPLINE
  5
9C
330
17
100
AcDbEntity
  8
visible
100
AcDbSpline
 70
0
 71
3
 72
8
 73
4
 74
0
 40
0.0
 40
0.0
 40
0.0
 40
0.0
 40
0.0813997802554846
 40
0.0813997802554846
 40
0.0813997802554846
 40
0.0813997802554846
 10
1.6608282271204327
 20
-0.7202953393294411
 30
0.0
 10
1.8572233523038486
 20
-0.6075562931293836
 30
0.0
 10
1.9791489261003676
 20
-0.478097076780922
 30
0.0
 10
2.0110729617655863
 20
-0.34583297480192204
 30
0.0
  0
SPLINE
  5
9D
330
17
100
AcDbEntity
  8
visible
100
AcDbSpline
 70
0
 71
2
 72
6
 73
3
 74
0
 40
0.0
 40
0.0
 40
0.0
 40
1.0
 40
1.0
 40
1.0
 10
2.0000408798742644
 20
-0.16345903649445145
 30
0.0
 10
1.9475511911006542
 20
-0.022176045406742492
 30
0.0
 10
1.7693842135822844
 20
0.10545568859561968
 30
0.0
  0
SPLINE
  5
9E
330
17
100
AcDbEntity
  8
visible
100
AcDbSpline
 70
0
 71
3
 72
17
 73
13
 74
0
 40
0.0
 40
0.0
 40
0.0
 40
0.0
 40
0.18903164334925052
 40
0.18903164334925052
 40
0.18903164334925052
 40
0.49688060786757876
 40
0.49688060786757876
 40
0.49688060786757876
 40
0.7555093245318353
 40
0.7555093245318353
 40
0.7555093245318353
 40
1.0
 40
1.0
 40
1.0
 40
1.0
 10
-2.0200000016795414
 20
0.10545694764731454
 30
0.0
 10
-2.0188524061481727
 20
0.017532164358183694
 30
0.0
 10
-1.9429328588332853
 20
-0.06444362008902818
 30
0.0
 10
-1.792241359734873
 20
-0.14047040569432115
 30
0.0
 10
-1.551268388303701
 20
-0.2616589322436398
 30
0.0
 10
-1.1192207183384364
 20
-0.3491826140042082
 30
0.0
 10
-0.6172517051290974
 20
-0.3696389984102765
 30
0.0
 10
-0.19678871600182848
 20
-0.3876668922451396
 30
0.0
 10
0.2682187448069894
 20
-0.3586931482492831
 30
0.0
 10
0.6837153049452919
 20
-0.28330057570365214
 30
0.0
 10
1.0770470243118442
 20
-0.21259843562010663
 30
0.0
 10
1.4237905465884646
 20
-0.10088017501894217
 30
0.0
 10
1.6608282271204329
 20
0.03604586956173872
 30
0.0
  0
LINE
  5
9F
330
17
100
AcDbEntity
  8
visible
100
AcDbLine
 10
1.6608282271204327
 20
0.03604586956173872
 30
0.0
 11
1.6608282271204327
 21
0.2466911717415563
 31
0.0
  0
SPLINE
  5
A0
330
17
100
AcDbEntity
  8
visible
100
AcDbSpline
 70
0
 71
3
 72
8
 73
4
 74
0
 40
0.0
 40
0.0
 40
0.0
 40
0.0
 40
0.08141232149370188
 40
0.08141232149370188
 40
0.08141232149370188
 40
0.08141232149370188
 10
1.660828227120433
 20
0.03604586956173875
 30
0.0
 10
1.8572540957894181
 20
0.14878733313549997
 30
0.0
 10
1.9791528891391992
 20
0.2782162549400586
 30
0.0
 10
2.0110792020244337
 20
0.41050662448564806
 30
0.0
  0
SPLINE
  5
A1
330
17
100
AcDbEntity
  8
visible
100
AcDbSpline
 70
0
 71
3
 72
14
 73
10
 74
0
 40
0.0
 40
0.0
 40
0.0
 40
0.0
 40
0.3230271945816257
 40
0.3230271945816257
 40
0.3230271945816257
 40
0.6684798825006179
 40
0.6684798825006179
 40
0.6684798825006179
 40
1.0
 40
1.0
 40
1.0
 40
1.0
 10
-2.020000001370206
 20
0.86179283772619
 30
0.0
 10
-2.022545757989383
 20
0.7145713754237851
 30
0.0
 10
-1.7845206853382267
 20
0.5688351615549541
 30
0.0
 10
-1.3789689043541067
 20
0.4793901533493208
 30
0.0
 10
-0.9492406136082762
 20
0.38228287747511086
 30
0.0
 10
-0.3350485246582119
 20
0.3525897150664261
 30
0.0
 10
0.25108735570317575
 20
0.412721172096064
 30
0.0
 10
0.8141287231992324
 20
0.46850777521772724
 30
0.0
 10
1.3403540188679857
 20
0.6061987000064533
 30
0.0
 10
1.6608282271204327
 20
0.792370038941435
 30
0.0
  0
LINE
  5
A2
330
17
100
AcDbEntity
  8
visible
100
AcDbLine
 10
1.6608282271204327
 20
0.7923700389414359
 30
0.0
 11
1.6608282271204327
 21
1.0030344078912332
 31
0.0
  0
SPLINE
  5
A3
330
17
100
AcDbEntity
  8
visible
100
AcDbSpline
 70
0
 71
3
 72
8
 73
4
 74
0
 40
0.0
 40
0.0
 40
0.0
 40
0.0
 40
0.08143752446122846
 40
0.08143752446122846
 40
0.08143752446122846
 40
0.08143752446122846
 10
1.6608282271204327
 20
0.792370038941435
 30
0.0
 10
1.8572503656292283
 20
0.9051204673197013
 30
0.0
 10
1.9791545463699354
 20
1.0345190192664262
 30
0.0
 10
2.011084565380687
 20
1.1668440455883757
 30
0.0
  0
SPLINE
  5
A4
330
17
100
AcDbEntity
  8
visible
100
AcDbSpline
 70
0
 71
1
 72
4
 73
2
 74
0
 40
0.0
 40
0.0
 40
1.0
 40
1.0
 10
1.5872499846493189
 20
1.7273578785285206
 30
0.0
 10
1.5622836610813926
 20
1.7398632560350746
 30
0.0
  0
SPLINE
  5
A5
330
17
100
AcDbEntity
  8
visible
100
AcDbSpline
 70
0
 71
2
 72
6
 73
3
 74
0
 40
0.0
 40
0.0
 40
0.0
 40
1.0
 40
1.0
 40
1.0
 10
-1.3976246919920374
 20
1.9962864992822928
 30
0.0
 10
-1.6146985831067746
 20
1.9461824800509564
 30
0.0
 10
-1.7621089533464467
 20
1.878450335357066
 30
0.0
  0
SPLINE
  5
A6
330
17
100
AcDbEntity
  8
visible
100
AcDbSpline
 70
0
 71
2
 72
6
 73
3
 74
0
 40
0.0
 40
0.0
 40
0.0
 40
1.0
 40
1.0
 40
1.0
 10
-1.7621089533464467
 20
1.878450335357066
 30
0.0
 10
-1.9141837582082035
 20
1.808237602129668
 30
0.0
 10
-1.97775685101
 20
1.7273533024719288
 30
0.0
  0
SPLINE
  5
A7
330
17
100
AcDbEntity
  8
visible
100
AcDbSpline
 70
0
 71
3
 72
14
 73
10
 74
0
 40
0.0
 40
0.0
 40
0.0
 40
0.0
 40
0.23554789158697137
 40
0.23554789158697137
 40
0.23554789158697137
 40
0.6064149747055814
 40
0.6064149747055814
 40
0.6064149747055814
 40
1.0
 40
1.0
 40
1.0
 40
1.0
 10
-2.0200000088866523
 20
1.618102838177848
 30
0.0
 10
-2.0207593691437356
 20
1.5109722290183043
 30
0.0
 10
-1.8971295365350833
 20
1.4041061990134929
 30
0.0
 10
-1.6701840771250365
 20
1.319791952164281
 30
0.0
 10
-1.3165402925491447
 20
1.185631171330809
 30
0.0
 10
-0.7013224510628934
 20
1.1129937008528594
 30
0.0
 10
-0.06645046466097806
 20
1.1453318717767391
 30
0.0
 10
0.6075001643536555
 20
1.1764141956486103
 30
0.0
 10
1.2812992703969057
 20
1.3268927701226731
 30
0.0
 10
1.660828227120432
 20
1.5487012473913262
 30
0.0
  0
LINE
  5
A8
330
17
100
AcDbEntity
  8
visible
100
AcDbLine
 10
1.6608282271204327
 20
1.5487012473913282
 30
0.0
 11
1.6608282271204327
 21
1.7671971820766368
 31
0.0
  0
SPLINE
  5
A9
330
17
100
AcDbEntity
  8
visible
100
AcDbSpline
 70
0
 71
3
 72
8
 73
4
 74
0
 40
0.0
 40
0.0
 40
0.0
 40
0.0
 40
0.08138359942018489
 40
0.08138359942018489
 40
0.08138359942018489
 40
0.08138359942018489
 10
1.6608282271204318
 20
1.5487012473913264
 30
0.0
 10
1.857191749843381
 20
1.6613851813158493
 30
0.0
 10
1.9792042840916213
 20
1.7908950532415964
 30
0.0
 10
2.0110842622527723
 20
1.923174721269278
 30
0.0
  0
SPLINE
  5
AA
330
17
100
AcDbEntity
  8
visible
100
AcDbSpline
 70
0
 71
1
 72
4
 73
2
 74
0
 40
0.0
 40
0.0
 40
1.0
 40
1.0
 10
1.5872736525385231
 20
2.4836946934127018
 30
0.0
 10
1.5150010487305858
 20
2.518681738455293
 30
0.0
  0
SPLINE
  5
AB
330
17
100
AcDbEntity
  8
visible
100
AcDbSpline
 70
0
 71
3
 72
14
 73
10
 74
0
 40
0.0
 40
0.0
 40
0.0
 40
0.0
 40
0.22897736791543502
 40
0.22897736791543502
 40
0.22897736791543502
 40
0.6039825002665379
 40
0.6039825002665379
 40
0.6039825002665379
 40
1.0
 40
1.0
 40
1.0
 40
1.0
 10
-2.020000003045048
 20
2.374461634790877
 30
0.0
 10
-2.02070896258793
 20
2.2702915642418953
 30
0.0
 10
-1.903892236915342
 20
2.1662620118900975
 30
0.0
 10
-1.688647041008399
 20
2.0831273039672817
 30
0.0
 10
-1.3399389363053746
 20
1.9455512055068864
 30
0.0
 10
-0.7204956656655035
 20
1.8695852304360179
 30
0.0
 10
-0.07849913440598659
 20
1.9010709065640474
 30
0.0
 10
0.5993976779057244
 20
1.9310114395671059
 30
0.0
 10
1.2790789866215764
 20
2.08186553779109
 30
0.0
 10
1.6608282271204307
 20
2.3050332979284587
 30
0.0
  0
LINE
  5
AC
330
17
100
AcDbEntity
  8
visible
100
AcDbLine
 10
1.6608282271204327
 20
2.3050332979284587
 30
0.0
 11
1.6608282271204327
 21
2.5235213514576644
 31
0.0
  0
SPLINE
  5
AD
330
17
100
AcDbEntity
  8
visible
100
AcDbSpline
 70
0
 71
3
 72
8
 73
4
 74
0
 40
0.0
 40
0.0
 40
0.0
 40
0.0
 40
0.09639966090634709
 40
0.09639966090634709
 40
0.09639966090634709
 40
0.09639966090634709
 10
1.6608282271204304
 20
2.3050332979284587
 30
0.0
 10
1.8936811442578905
 20
2.438497795103494
 30
0.0
 10
2.0207727468126935
 20
2.5953813581452407
 30
0.0
 10
2.0199999995004205
 20
2.7526149428125186
 30
0.0
  0
SPLINE
  5
AE
330
17
100
AcDbEntity
  8
visible
100
AcDbSpline
 70
0
 71
2
 72
6
 73
3
 74
0
 40
0.0
 40
0.0
 40
0.0
 40
1.0
 40
1.0
 40
1.0
 10
2.0000421060410196
 20
2.861856760916825
 30
0.0
 10
1.9475203389734683
 20
3.0031900749423386
 30
0.0
 10
1.769390805797765
 20
3.1307894468636976
 30
0.0
  0
SPLINE
  5
AF
330
17
100
AcDbEntity
  8
visible
100
AcDbSpline
 70
0
 71
3
 72
14
 73
10
 74
0
 40
0.0
 40
0.0
 40
0.0
 40
0.0
 40
0.3178198167107982
 40
0.3178198167107982
 40
0.3178198167107982
 40
0.6291656716452382
 40
0.6291656716452382
 40
0.6291656716452382
 40
1.0
 40
1.0
 40
1.0
 40
1.0
 10
-2.02000000744952
 20
3.130778941671789
 30
0.0
 10
-2.0223114126106894
 20
2.985890104754721
 30
0.0
 10
-1.7923529639335012
 20
2.8425582619854293
 30
0.0
 10
-1.3985889983896487
 20
2.752828290777506
 30
0.0
 10
-1.0159481017455547
 20
2.663898228817827
 30
0.0
 10
-0.4820843352038191
 20
2.6280422784138233
 30
0.0
 10
0.0500230224070891
 20
2.6647743617363693
 30
0.0
 10
0.6849983573463283
 20
2.7062663844606125
 30
0.0
 10
1.3028588230423273
 20
2.8526711308438686
 30
0.0
 10
1.6608282271204327
 20
3.0613677946835107
 30
0.0
  0
LINE
  5
B0
330
17
100
AcDbEntity
  8
visible
100
AcDbLine
 10
1.6608282271204327
 20
3.0613677946835134
 30
0.0
 11
1.6608282271204327
 21
3.272015101410883
 31
0.0
  0
SPLINE
  5
B1
330
17
100
AcDbEntity
  8
visible
100
AcDbSpline
 70
0
 71
3
 72
8
 73
4
 74
0
 40
0.0
 40
0.0
 40
0.0
 40
0.0
 40
0.08141364007954961
 40
0.08141364007954961
 40
0.08141364007954961
 40
0.08141364007954961
 10
1.6608282271204322
 20
3.061367794683513
 30
0.0
 10
1.8572433901720502
 20
3.174113436198653
 30
0.0
 10
1.9791569825161455
 20
3.303566057748047
 30
0.0
 10
2.011077498943972
 20
3.435834517071793
 30
0.0
  0
SPLINE
  5
B2
330
17
100
AcDbEntity
  8
visible
100
AcDbSpline
 70
0
 71
3
 72
14
 73
10
 74
0
 40
0.0
 40
0.0
 40
0.0
 40
0.0
 40
0.30735150471115025
 40
0.30735150471115025
 40
0.30735150471115025
 40
0.6210769905013147
 40
0.6210769905013147
 40
0.6210769905013147
 40
1.0
 40
1.0
 40
1.0
 40
1.0
 10
-2.0199994107541714
 20
3.887101960970566
 30
0.0
 10
-2.0220832645319393
 20
3.7471562684818416
 30
0.0
 10
-1.807744860646155
 20
3.608291141145595
 30
0.0
 10
-1.4369129050048761
 20
3.5182614941178203
 30
0.0
 10
-1.0614425111838124
 20
3.4253336026127963
 30
0.0
 10
-0.5281143975607726
 20
3.3850556783324257
 30
0.0
 10
0.008343428590160766
 20
3.4184334105492873
 30
0.0
 10
0.6575252924390335
 20
3.4563648042110455
 30
0.0
 10
1.2951674547871366
 20
3.60436979592148
 30
0.0
 10
1.660828227120433
 20
3.8176896015289388
 30
0.0
  0
LINE
  5
B3
330
17
100
AcDbEntity
  8
visible
100
AcDbLine
 10
1.6608282271204327
 20
3.81768960152894
 30
0.0
 11
1.6608282271204327
 21
4.028361166073378
 31
0.0
  0
SPLINE
  5
B4
330
17
100
AcDbEntity
  8
visible
100
AcDbSpline
 70
0
 71
3
 72
8
 73
4
 74
0
 40
0.0
 40
0.0
 40
0.0
 40
0.0
 40
0.08138314159661415
 40
0.08138314159661415
 40
0.08138314159661415
 40
0.08138314159661415
 10
1.660828227120433
 20
3.81768960152894
 30
0.0
 10
1.8572153484798184
 20
3.930392734256771
 30
0.0
 10
1.9792010671568387
 20
4.0598970012429785
 30
0.0
 10
2.0110869578969095
 20
4.192175827987288
 30
0.0
  0
SPLINE
  5
B5
330
17
100
AcDbEntity
  8
visible
100
AcDbSpline
 70
0
 71
1
 72
4
 73
2
 74
0
 40
0.0
 40
0.0
 40
1.0
 40
1.0
 10
1.5623520979220262
 20
4.765183948510591
 30
0.0
 10
1.5150052749396896
 20
4.787686145514197
 30
0.0
  0
SPLINE
  5
B6
330
17
100
AcDbEntity
  8
visible
100
AcDbSpline
 70
0
 71
3
 72
14
 73
10
 74
0
 40
0.0
 40
0.0
 40
0.0
 40
0.0
 40
0.15104825215695597
 40
0.15104825215695597
 40
0.15104825215695597
 40
0.5500064237748237
 40
0.5500064237748237
 40
0.5500064237748237
 40
1.0
 40
1.0
 40
1.0
 40
1.0
 10
-2.0199999902581833
 20
4.643431859117438
 30
0.0
 10
-2.0195273406150704
 20
4.573772584604833
 30
0.0
 10
-1.9707638325966852
 20
4.507159618539767
 30
0.0
 10
-1.8737094662030294
 20
4.44359296092225
 30
0.0
 10
-1.6234986148089503
 20
4.276815328295923
 30
0.0
 10
-1.028301562748388
 20
4.1599093330878025
 30
0.0
 10
-0.35408746344930675
 20
4.16325425451042
 30
0.0
 10
0.4056019129296996
 20
4.162027696180059
 30
0.0
 10
1.2280050996462128
 20
4.319369114056352
 30
0.0
 10
1.6608282271204342
 20
4.5740206366885126
 30
0.0
  0
LINE
  5
B7
330
17
100
AcDbEntity
  8
visible
100
AcDbLine
 10
1.6608282271204327
 20
4.5740206366885126
 30
0.0
 11
1.6608282271204327
 21
4.78467132007764
 31
0.0
  0
SPLINE
  5
B8
330
17
100
AcDbEntity
  8
visible
100
AcDbSpline
 70
0
 71
3
 72
8
 73
4
 74
0
 40
0.0
 40
0.0
 40
0.0
 40
0.0
 40
0.08143138797224737
 40
0.08143138797224737
 40
0.08143138797224737
 40
0.08143138797224737
 10
1.660828227120434
 20
4.574020636688514
 30
0.0
 10
1.8572333516472497
 20
4.686770639059165
 30
0.0
 10
1.9791306716801853
 20
4.81619530857899
 30
0.0
 10
2.011072959808775
 20
4.948483000191017
 30
0.0
  0
SPLINE
  5
B9
330
17
100
AcDbEntity
  8
visible
100
AcDbSpline
 70
0
 71
2
 72
6
 73
3
 74
0
 40
0.0
 40
0.0
 40
0.0
 40
1.0
 40
1.0
 40
1.0
 10
2.0000408559488045
 20
5.13085690582354
 30
0.0
 10
1.9475322219153177
 20
5.272159689022168
 30
0.0
 10
1.7693842250703855
 20
5.399771640938141
 30
0.0
  0
SPLINE
  5
BA
330
17
100
AcDbEntity
  8
visible
100
AcDbSpline
 70
0
 71
3
 72
17
 73
13
 74
0
 40
0.0
 40
0.0
 40
0.0
 40
0.0
 40
0.09377720585650341
 40
0.09377720585650341
 40
0.09377720585650341
 40
0.3364290148170284
 40
0.3364290148170284
 40
0.3364290148170284
 40
0.5790808237775534
 40
0.5790808237775534
 40
0.5790808237775534
 40
1.0
 40
1.0
 40
1.0
 40
1.0
 10
-2.0200001060996073
 20
5.399772927594339
 30
0.0
 10
-2.0199294167002173
 20
5.356919137381163
 30
0.0
 10
-2.0010024042648054
 20
5.314798212186762
 30
0.0
 10
-1.9632190687933693
 20
5.273410152011104
 30
0.0
 10
-1.8664725661620667
 20
5.166755808577022
 30
0.0
 10
-1.6411504659492642
 20
5.070477954822148
 30
0.0
 10
-1.3283330785482328
 20
5.006555466436195
 30
0.0
 10
-1.0166958810082625
 20
4.942195041767798
 30
0.0
 10
-0.6182696401443523
 20
4.910498386378148
 30
0.0
 10
-0.20583569133238588
 20
4.9217117479240144
 30
0.0
 10
0.5117438326606288
 20
4.938342734945807
 30
0.0
 10
1.2555495887750858
 20
5.092840198342216
 30
0.0
 10
1.6608282271204304
 20
5.3303618455794695
 30
0.0
  0
LINE
  5
BB
330
17
100
AcDbEntity
  8
visible
100
AcDbLine
 10
1.6608282271204327
 20
5.330361845579471
 30
0.0
 11
1.6608282271204327
 21
5.5410071477582825
 31
0.0
  0
SPLINE
  5
BC
330
17
100
AcDbEntity
  8
visible
100
AcDbSpline
 70
0
 71
3
 72
8
 73
4
 74
0
 40
0.0
 40
0.0
 40
0.0
 40
0.0
 40
0.08141189562861866
 40
0.08141189562861866
 40
0.08141189562861866
 40
0.08141189562861866
 10
1.6608282271204304
 20
5.3303618455794695
 30
0.0
 10
1.8572346530127997
 20
5.4430854216025555
 30
0.0
 10
1.979170191883325
 20
5.57255208316698
 30
0.0
 10
2.0110792100815833
 20
5.704822604708734
 30
0.0
  0
SPLINE
  5
BD
330
17
100
AcDbEntity
  8
visible
100
AcDbSpline
 70
0
 71
2
 72
6
 73
3
 74
0
 40
0.0
 40
0.0
 40
0.0
 40
1.0
 40
1.0
 40
1.0
 10
-1.397583656157685
 20
6.534274841275158
 30
0.0
 10
-1.6147781242752197
 20
6.484151348053154
 30
0.0
 10
-1.7621806893376415
 20
6.416420119416477
 30
0.0
  0
SPLINE
  5
BE
330
17
100
AcDbEntity
  8
visible
100
AcDbSpline
 70
0
 71
2
 72
6
 73
3
 74
0
 40
0.0
 40
0.0
 40
0.0
 40
1.0
 40
1.0
 40
1.0
 10
-1.7621806893376415
 20
6.416420119416477
 30
0.0
 10
-1.914164134508987
 20
6.346260190939104
 30
0.0
 10
-1.977766479730314
 20
6.2653575013008584
 30
0.0
  0
SPLINE
  5
BF
330
17
100
AcDbEntity
  8
visible
100
AcDbSpline
 70
0
 71
3
 72
14
 73
10
 74
0
 40
0.0
 40
0.0
 40
0.0
 40
0.0
 40
0.33296421796936565
 40
0.33296421796936565
 40
0.33296421796936565
 40
0.7672730310633022
 40
0.7672730310633022
 40
0.7672730310633022
 40
1.0
 40
1.0
 40
1.0
 40
1.0
 10
-2.0199995819657284
 20
6.156112178713861
 30
0.0
 10
-2.0228345877618894
 20
6.004385018512136
 30
0.0
 10
-1.7694638500904656
 20
5.854387137962516
 30
0.0
 10
-1.3418760807593748
 20
5.765683745889533
 30
0.0
 10
-0.789510270420105
 20
5.646583746163906
 30
0.0
 10
0.049285750228893095
 20
5.642276545655725
 30
0.0
 10
0.7403537440188025
 20
5.777898790983701
 30
0.0
 10
1.110430847634305
 20
5.848827533357915
 30
0.0
 10
1.4351873035785867
 20
5.956407436892299
 30
0.0
 10
1.66082822712043
 20
6.086686014959929
 30
0.0
  0
LINE
  5
C0
330
17
100
AcDbEntity
  8
visible
100
AcDbLine
 10
1.6608282271204327
 20
6.086686014959932
 30
0.0
 11
1.6608282271204327
 21
6.297350383561909
 31
0.0
  0
SPLINE
  5
C1
330
17
100
AcDbEntity
  8
visible
100
AcDbSpline
 70
0
 71
1
 72
4
 73
2
 74
0
 40
0.0
 40
0.0
 40
0.557950398955208
 40
0.557950398955208
 10
2.05548047938292
 20
6.485064310366726
 30
0.0
 10
1.6608282271275545
 20
6.843017224558791
 30
0.0
  0
SPLINE
  5
C2
330
17
100
AcDbEntity
  8
visible
100
AcDbSpline
 70
0
 71
3
 72
8
 73
4
 74
0
 40
0.0
 40
0.0
 40
0.0
 40
0.0
 40
0.08145483961495663
 40
0.08145483961495663
 40
0.08145483961495663
 40
0.08145483961495663
 10
1.6608282271204295
 20
6.086686014959929
 30
0.0
 10
1.8572395849592804
 20
6.199424885594218
 30
0.0
 10
1.9791640191797448
 20
6.3288473769717095
 30
0.0
 10
2.0110846911562237
 20
6.461160084245344
 30
0.0
  0
SPLINE
  5
C3
330
17
100
AcDbEntity
  8
visible
100
AcDbSpline
 70
0
 71
1
 72
4
 73
2
 74
0
 40
0.0
 40
0.0
 40
1.0
 40
1.0
 10
2.0195413113875267
 20
6.517661438202868
 30
0.0
 10
2.020000002992508
 20
6.534255620455189
 30
0.0
  0
SPLINE
  5
C4
330
17
100
AcDbEntity
  8
visible
100
AcDbSpline
 70
0
 71
3
 72
14
 73
10
 74
0
 40
0.0
 40
0.0
 40
0.0
 40
0.0
 40
0.13991315222543613
 40
0.13991315222543613
 40
0.13991315222543613
 40
0.5715132973652101
 40
0.5715132973652101
 40
0.5715132973652101
 40
1.0
 40
1.0
 40
1.0
 40
1.0
 10
-2.0199999623102807
 20
6.912418823025224
 30
0.0
 10
-2.01965469345995
 20
6.8480291981226795
 30
0.0
 10
-1.9777443342567904
 20
6.786064695805392
 30
0.0
 10
-1.8942688847007985
 20
6.72652531607335
 30
0.0
 10
-1.6440841326027187
 20
6.543213272566716
 30
0.0
 10
-0.9810555947030272
 20
6.4163420591697164
 30
0.0
 10
-0.24470378515818814
 20
6.433480769083147
 30
0.0
 10
0.4843560600514914
 20
6.445684745035194
 30
0.0
 10
1.2483083274114704
 20
6.600972279800018
 30
0.0
 10
1.660828227127523
 20
6.8430172245588
 30
0.0
  0
LINE
  5
C5
330
17
100
AcDbEntity
  8
visible
100
AcDbLine
 10
1.6608282271204327
 20
6.843017224555448
 30
0.0
 11
1.6608282271204327
 21
6.952265012213216
 31
0.0
  0
ELLIPSE
  5
C6
330
17
100
AcDbEntity
  8
visible
100
AcDbEllipse
 10
0.0
 20
7.326955098111307
 30
0.0
 11
2.02
 21
0.0
 31
0.0
 40
0.32587296152973194
 41
5.677640643574616
 42
6.283185307179586
  0
ELLIPSE
  5
C7
330
17
100
AcDbEntity
  8
visible
100
AcDbEllipse
 10
0.0
 20
7.326955098111307
 30
0.0
 11
2.02
 21
0.0
 31
0.0
 40
0.32587296152973194
 41
1.1102230246251565e-16
 42
3.141592653589793
  0
ELLIPSE
  5
C8
330
17
100
AcDbEntity
  8
visible
100
AcDbEllipse
 10
0.0
 20
7.326955098111307
 30
0.0
 11
2.02
 21
0.0
 31
0.0
 40
0.32587296152973194
 41
3.141592653589793
 42
5.677640643574616
  0
LINE
  5
C9
330
17
100
AcDbEntity
  8
visible
100
AcDbLine
 10
4.25
 20
-7.326955192652658
 30
0.0
 11
4.25
 21
-4.0180077076414396
 31
0.0
  0
LINE
  5
CA
330
17
100
AcDbEntity
  8
visible
100
AcDbLine
 10
-4.25
 20
-7.326955192652658
 30
0.0
 11
-4.25
 21
-4.0180077076414396
 31
0.0
  0
LINE
  5
CB
330
17
100
AcDbEntity
  8
visible
100
AcDbLine
 10
-2.0200000000000005
 20
-4.0180077076414396
 30
0.0
 11
-2.0200000000000005
 21
-3.4577128037321283
 31
0.0
  0
SPLINE
  5
CC
330
17
100
AcDbEntity
  8
visible
100
AcDbSpline
 70
0
 71
1
 72
4
 73
2
 74
0
 40
0.0
 40
0.0
 40
1.0
 40
1.0
 10
-1.7621505180542076
 20
-3.71802725382988
 30
0.0
 10
-2.1539504284071986
 20
-3.538246714682125
 30
0.0
  0
SPLINE
  5
CD
330
17
100
AcDbEntity
  8
visible
100
AcDbSpline
 70
0
 71
1
 72
4
 73
2
 74
0
 40
0.0
 40
0.0
 40
1.0
 40
1.0
 10
1.515051086588567
 20
-3.6019087520484323
 30
0.0
 10
1.905894039913633
 20
-3.4225674160896533
 30
0.0
  0
SPLINE
  5
CE
330
17
100
AcDbEntity
  8
visible
100
AcDbSpline
 70
0
 71
1
 72
4
 73
2
 74
0
 40
0.0
 40
0.0
 40
1.0
 40
1.0
 10
-1.7622172884988205
 20
-2.9616453502097295
 30
0.0
 10
-2.1539974244724416
 20
-2.781868574873644
 30
0.0
  0
SPLINE
  5
CF
330
17
100
AcDbEntity
  8
visible
100
AcDbSpline
 70
0
 71
1
 72
4
 73
2
 74
0
 40
0.0
 40
0.0
 40
1.0
 40
1.0
 10
1.5150393842216272
 20
-2.8455886631135554
 30
0.0
 10
1.9058928539695006
 20
-2.666243794268931
 30
0.0
  0
SPLINE
  5
D0
330
17
100
AcDbEntity
  8
visible
100
AcDbSpline
 70
0
 71
1
 72
4
 73
2
 74
0
 40
0.0
 40
0.0
 40
1.0
 40
1.0
 10
-1.7621656672996386
 20
-2.2053396417347653
 30
0.0
 10
-2.1539237573433945
 20
-2.0255736445170935
 30
0.0
  0
SPLINE
  5
D1
330
17
100
AcDbEntity
  8
visible
100
AcDbSpline
 70
0
 71
1
 72
4
 73
2
 74
0
 40
0.0
 40
0.0
 40
1.0
 40
1.0
 10
1.5149320188247635
 20
-2.0893091756080846
 30
0.0
 10
1.9057603734575905
 20
-1.9099737301561603
 30
0.0
  0
SPLINE
  5
D2
330
17
100
AcDbEntity
  8
visible
100
AcDbSpline
 70
0
 71
1
 72
4
 73
2
 74
0
 40
0.0
 40
0.0
 40
1.0
 40
1.0
 10
-1.7621670199297914
 20
-1.4490238954110932
 30
0.0
 10
-2.1539722980283895
 20
-1.2692406773640013
 30
0.0
  0
SPLINE
  5
D3
330
17
100
AcDbEntity
  8
visible
100
AcDbSpline
 70
0
 71
1
 72
4
 73
2
 74
0
 40
0.0
 40
0.0
 40
1.0
 40
1.0
 10
1.5150741291790533
 20
-1.3328980578277712
 30
0.0
 10
1.9059142743289639
 20
-1.153556731979763
 30
0.0
  0
SPLINE
  5
D4
330
17
100
AcDbEntity
  8
visible
100
AcDbSpline
 70
0
 71
1
 72
4
 73
2
 74
0
 40
0.0
 40
0.0
 40
1.0
 40
1.0
 10
-1.762149751371461
 20
-0.6927188541325169
 30
0.0
 10
-2.153982083766466
 20
-0.5129267434359681
 30
0.0
  0
SPLINE
  5
D5
330
17
100
AcDbEntity
  8
visible
100
AcDbSpline
 70
0
 71
1
 72
4
 73
2
 74
0
 40
0.0
 40
0.0
 40
1.0
 40
1.0
 10
1.5149623238855603
 20
-0.5766381685845676
 30
0.0
 10
1.9058091104803494
 20
-0.3972966119739949
 30
0.0
  0
SPLINE
  5
D6
330
17
100
AcDbEntity
  8
visible
100
AcDbSpline
 70
0
 71
1
 72
4
 73
2
 74
0
 40
0.0
 40
0.0
 40
1.0
 40
1.0
 10
-1.762181019693145
 20
0.06366153847182332
 30
0.0
 10
-2.153950901979069
 20
0.2434332277452924
 30
0.0
  0
SPLINE
  5
D7
330
17
100
AcDbEntity
  8
visible
100
AcDbSpline
 70
0
 71
1
 72
4
 73
2
 74
0
 40
0.0
 40
0.0
 40
1.0
 40
1.0
 10
1.5149914234923463
 20
0.1797105299172177
 30
0.0
 10
1.9058297375359352
 20
0.3590495038312138
 30
0.0
  0
SPLINE
  5
D8
330
17
100
AcDbEntity
  8
visible
100
AcDbSpline
 70
0
 71
1
 72
4
 73
2
 74
0
 40
0.0
 40
0.0
 40
1.0
 40
1.0
 10
-1.7621317674857444
 20
0.8199388037013673
 30
0.0
 10
-2.15395644234719
 20
0.9997271967261483
 30
0.0
  0
SPLINE
  5
D9
330
17
100
AcDbEntity
  8
visible
100
AcDbSpline
 70
0
 71
1
 72
4
 73
2
 74
0
 40
0.0
 40
0.0
 40
1.0
 40
1.0
 10
1.5151274593620467
 20
0.9361164072873649
 30
0.0
 10
1.9059777646284886
 20
1.1154603934023744
 30
0.0
  0
SPLINE
  5
DA
330
17
100
AcDbEntity
  8
visible
100
AcDbSpline
 70
0
 71
1
 72
4
 73
2
 74
0
 40
0.0
 40
0.0
 40
1.0
 40
1.0
 10
-1.7621505201596994
 20
1.576288723155633
 30
0.0
 10
-2.1539504284504174
 20
1.7560692613582667
 30
0.0
  0
SPLINE
  5
DB
330
17
100
AcDbEntity
  8
visible
100
AcDbSpline
 70
0
 71
1
 72
4
 73
2
 74
0
 40
0.0
 40
0.0
 40
1.0
 40
1.0
 10
1.5150504240747125
 20
1.692406919477687
 30
0.0
 10
1.905894039895234
 20
1.8717485599211496
 30
0.0
  0
SPLINE
  5
DC
330
17
100
AcDbEntity
  8
visible
100
AcDbSpline
 70
0
 71
1
 72
4
 73
2
 74
0
 40
0.0
 40
0.0
 40
1.0
 40
1.0
 10
-1.762217483937703
 20
2.3326707156352366
 30
0.0
 10
-2.15399742445661
 20
2.512447401134466
 30
0.0
  0
SPLINE
  5
DD
330
17
100
AcDbEntity
  8
visible
100
AcDbSpline
 70
0
 71
1
 72
4
 73
2
 74
0
 40
0.0
 40
0.0
 40
1.0
 40
1.0
 10
1.5150393839656524
 20
2.4487273127867066
 30
0.0
 10
1.9058928539608484
 20
2.6280721817462425
 30
0.0
  0
SPLINE
  5
DE
330
17
100
AcDbEntity
  8
visible
100
AcDbSpline
 70
0
 71
1
 72
4
 73
2
 74
0
 40
0.0
 40
0.0
 40
1.0
 40
1.0
 10
-1.7621648052498684
 20
3.0889759380774127
 30
0.0
 10
-2.1539237573321515
 20
3.2687423314867647
 30
0.0
  0
SPLINE
  5
DF
330
17
100
AcDbEntity
  8
visible
100
AcDbSpline
 70
0
 71
1
 72
4
 73
2
 74
0
 40
0.0
 40
0.0
 40
1.0
 40
1.0
 10
1.5149320188396143
 20
3.2050068004166388
 30
0.0
 10
1.9057603734510966
 20
3.3843422458588144
 30
0.0
  0
SPLINE
  5
E0
330
17
100
AcDbEntity
  8
visible
100
AcDbSpline
 70
0
 71
1
 72
4
 73
2
 74
0
 40
0.0
 40
0.0
 40
1.0
 40
1.0
 10
-1.7621670504934546
 20
3.8452920946539457
 30
0.0
 10
-2.1539722980274894
 20
4.025075298654235
 30
0.0
  0
SPLINE
  5
E1
330
17
100
AcDbEntity
  8
visible
100
AcDbSpline
 70
0
 71
1
 72
4
 73
2
 74
0
 40
0.0
 40
0.0
 40
1.0
 40
1.0
 10
1.5150741293419014
 20
3.961417918265081
 30
0.0
 10
1.9059142743310278
 20
4.140759244039311
 30
0.0
  0
SPLINE
  5
E2
330
17
100
AcDbEntity
  8
visible
100
AcDbSpline
 70
0
 71
1
 72
4
 73
2
 74
0
 40
0.0
 40
0.0
 40
1.0
 40
1.0
 10
-1.7621497526907257
 20
4.60159712249073
 30
0.0
 10
-2.153982083764074
 20
4.781389232575949
 30
0.0
  0
SPLINE
  5
E3
330
17
100
AcDbEntity
  8
visible
100
AcDbSpline
 70
0
 71
1
 72
4
 73
2
 74
0
 40
0.0
 40
0.0
 40
1.0
 40
1.0
 10
1.5149623226266211
 20
4.717677806854452
 30
0.0
 10
1.905809110452699
 20
4.897019364027582
 30
0.0
  0
SPLINE
  5
E4
330
17
100
AcDbEntity
  8
visible
100
AcDbSpline
 70
0
 71
1
 72
4
 73
2
 74
0
 40
0.0
 40
0.0
 40
1.0
 40
1.0
 10
-1.7621810190762908
 20
5.357977514204729
 30
0.0
 10
-2.153950901968599
 20
5.537749203753673
 30
0.0
  0
SPLINE
  5
E5
330
17
100
AcDbEntity
  8
visible
100
AcDbSpline
 70
0
 71
1
 72
4
 73
2
 74
0
 40
0.0
 40
0.0
 40
1.0
 40
1.0
 10
1.51499142433401
 20
5.474026506323186
 30
0.0
 10
1.9058297374878101
 20
5.653365479822034
 30
0.0
  0
SPLINE
  5
E6
330
17
100
AcDbEntity
  8
visible
100
AcDbSpline
 70
0
 71
1
 72
4
 73
2
 74
0
 40
0.0
 40
0.0
 40
1.0
 40
1.0
 10
-1.7621317672591448
 20
6.11425477961428
 30
0.0
 10
-2.1539564423206214
 20
6.294043172728729
 30
0.0
  0
SPLINE
  5
E7
330
17
100
AcDbEntity
  8
visible
100
AcDbSpline
 70
0
 71
1
 72
4
 73
2
 74
0
 40
0.0
 40
0.0
 40
1.0
 40
1.0
 10
1.5151274462649917
 20
6.230432377945133
 30
0.0
 10
1.9059777625375327
 20
6.409776366260585
 30
0.0
  0
LINE
  5
E8
330
17
100
AcDbEntity
  8
visible
100
AcDbLine
 10
-2.0200000000000005
 20
-2.919854341912621
 30
0.0
 11
-2.0200000000000005
 21
-2.84329950894788
 31
0.0
  0
LINE
  5
E9
330
17
100
AcDbEntity
  8
visible
100
AcDbLine
 10
-2.0200000000000005
 20
-2.1635370226468744
 30
0.0
 11
-2.0200000000000005
 21
-2.086970565093885
 31
0.0
  0
LINE
  5
EA
330
17
100
AcDbEntity
  8
visible
100
AcDbLine
 10
-2.0200000000000005
 20
-1.407217228922181
 30
0.0
 11
-2.0200000000000005
 21
-1.3306583572647726
 31
0.0
  0
LINE
  5
EB
330
17
100
AcDbEntity
  8
visible
100
AcDbLine
 10
-2.0200000000000005
 20
-0.6508840982616215
 30
0.0
 11
-2.0200000000000005
 21
-0.574347713725516
 31
0.0
  0
LINE
  5
EC
330
17
100
AcDbEntity
  8
visible
100
AcDbLine
 10
-2.0200000000000005
 20
0.10545695501154295
 30
0.0
 11
-2.0200000000000005
 21
0.18202375220500855
 31
0.0
  0
LINE
  5
ED
330
17
100
AcDbEntity
  8
visible
100
AcDbLine
 10
-2.0200000000000005
 20
0.8617928295164603
 30
0.0
 11
-2.0200000000000005
 21
0.9383180583791102
 31
0.0
  0
LINE
  5
EE
330
17
100
AcDbEntity
  8
visible
100
AcDbLine
 10
-2.0200000000000005
 20
1.6181028405908853
 30
0.0
 11
-2.0200000000000005
 21
1.8366031324068643
 31
0.0
  0
LINE
  5
EF
330
17
100
AcDbEntity
  8
visible
100
AcDbLine
 10
-2.0200000000000005
 20
2.3744616340498235
 30
0.0
 11
-2.0200000000000005
 21
2.4510164670685946
 31
0.0
  0
LINE
  5
F0
330
17
100
AcDbEntity
  8
visible
100
AcDbLine
 10
-2.0200000000000005
 20
3.1307789524141354
 30
0.0
 11
-2.0200000000000005
 21
3.2073454109190713
 31
0.0
  0
LINE
  5
F1
330
17
100
AcDbEntity
  8
visible
100
AcDbLine
 10
-2.0200000000000005
 20
3.887098717919854
 30
0.0
 11
-2.0200000000000005
 21
3.963657618753653
 31
0.0
  0
LINE
  5
F2
330
17
100
AcDbEntity
  8
visible
100
AcDbLine
 10
-2.0200000000000005
 20
4.643431895453443
 30
0.0
 11
-2.0200000000000005
 21
4.719968262288802
 31
0.0
  0
LINE
  5
F3
330
17
100
AcDbEntity
  8
visible
100
AcDbLine
 10
-2.0200000000000005
 20
5.399772933079113
 30
0.0
 11
-2.0200000000000005
 21
5.476339728219301
 31
0.0
  0
LINE
  5
F4
330
17
100
AcDbEntity
  8
visible
100
AcDbLine
 10
-2.0200000000000005
 20
6.156108816501874
 30
0.0
 11
-2.0200000000000005
 21
6.232634034394723
 31
0.0
  0
SPLINE
  5
F5
330
17
100
AcDbEntity
  8
visible
100
AcDbSpline
 70
0
 71
1
 72
4
 73
2
 74
0
 40
0.0
 40
0.0
 40
0.16012994134157296
 40
0.16012994134157296
 10
-2.1540398573921036
 20
-2.8393644532120996
 30
0.0
 10
-2.091297571009243
 20
-2.8106071138443367
 30
0.0
  0
SPLINE
  5
F6
330
17
100
AcDbEntity
  8
visible
100
AcDbSpline
 70
0
 71
1
 72
4
 73
2
 74
0
 40
0.0
 40
0.0
 40
0.15982338515847633
 40
0.15982338515847633
 10
-2.1539210903853254
 20
-2.0829760961223185
 30
0.0
 10
-2.0913026647498265
 20
-2.0542759701977857
 30
0.0
  0
SPLINE
  5
F7
330
17
100
AcDbEntity
  8
visible
100
AcDbSpline
 70
0
 71
1
 72
4
 73
2
 74
0
 40
0.0
 40
0.0
 40
0.15978561950844847
 40
0.15978561950844847
 10
-2.153919513034689
 20
-1.326651206357444
 30
0.0
 10
-2.0913168061249405
 20
-1.2979580723384458
 30
0.0
  0
SPLINE
  5
F8
330
17
100
AcDbEntity
  8
visible
100
AcDbSpline
 70
0
 71
1
 72
4
 73
2
 74
0
 40
0.0
 40
0.0
 40
0.15955578850809224
 40
0.15955578850809224
 10
-2.153848434467986
 20
-0.5702901623081997
 30
0.0
 10
-2.0913367907990112
 20
-0.5416389044545165
 30
0.0
  0
SPLINE
  5
F9
330
17
100
AcDbEntity
  8
visible
100
AcDbSpline
 70
0
 71
1
 72
4
 73
2
 74
0
 40
0.0
 40
0.0
 40
0.1599844705768122
 40
0.1599844705768122
 10
-2.1539845008439227
 20
0.18598700703401772
 30
0.0
 10
-2.0913005100354343
 20
0.21471741970473246
 30
0.0
  0
SPLINE
  5
FA
330
17
100
AcDbEntity
  8
visible
100
AcDbSpline
 70
0
 71
1
 72
4
 73
2
 74
0
 40
0.0
 40
0.0
 40
0.1599193482800739
 40
0.1599193482800739
 10
-2.1540080455290394
 20
0.9423123645340521
 30
0.0
 10
-2.0913476043323342
 20
0.9710317813489711
 30
0.0
  0
SPLINE
  5
FB
330
17
100
AcDbEntity
  8
visible
100
AcDbSpline
 70
0
 71
1
 72
4
 73
2
 74
0
 40
0.0
 40
0.0
 40
0.3417340765773497
 40
0.3417340765773497
 10
-2.1538815640960634
 20
1.6986814451104326
 30
0.0
 10
-2.0200000000000005
 20
1.760057736605551
 30
0.0
  0
SPLINE
  5
FC
330
17
100
AcDbEntity
  8
visible
100
AcDbSpline
 70
0
 71
1
 72
4
 73
2
 74
0
 40
0.0
 40
0.0
 40
0.16012994129530372
 40
0.16012994129530372
 10
-2.1540398573868544
 20
2.45495152280953
 30
0.0
 10
-2.0912975710127246
 20
2.4837088621731462
 30
0.0
  0
SPLINE
  5
FD
330
17
100
AcDbEntity
  8
visible
100
AcDbSpline
 70
0
 71
1
 72
4
 73
2
 74
0
 40
0.0
 40
0.0
 40
0.15982338529522888
 40
0.15982338529522888
 10
-2.1539210903912
 20
3.2113398798926056
 30
0.0
 10
-2.0913026647572908
 20
3.2400400058164713
 30
0.0
  0
SPLINE
  5
FE
330
17
100
AcDbEntity
  8
visible
100
AcDbSpline
 70
0
 71
1
 72
4
 73
2
 74
0
 40
0.0
 40
0.0
 40
0.15978554433715025
 40
0.15978554433715025
 10
-2.153919513063687
 20
3.9676647696462854
 30
0.0
 10
-2.0913168061235465
 20
3.9963579036794616
 30
0.0
  0
SPLINE
  5
FF
330
17
100
AcDbEntity
  8
visible
100
AcDbSpline
 70
0
 71
1
 72
4
 73
2
 74
0
 40
0.0
 40
0.0
 40
0.15955583256209235
 40
0.15955583256209235
 10
-2.153848434537048
 20
4.724025813666204
 30
0.0
 10
-2.091336790793587
 20
4.752677071556617
 30
0.0
  0
SPLINE
  5
100
330
17
100
AcDbEntity
  8
visible
100
AcDbSpline
 70
0
 71
1
 72
4
 73
2
 74
0
 40
0.0
 40
0.0
 40
0.1599844448119768
 40
0.1599844448119768
 10
-2.153984500832035
 20
5.480302983064805
 30
0.0
 10
-2.0913005100465396
 20
5.509033395723522
 30
0.0
  0
SPLINE
  5
101
330
17
100
AcDbEntity
  8
visible
100
AcDbSpline
 70
0
 71
1
 72
4
 73
2
 74
0
 40
0.0
 40
0.0
 40
0.15991934883249462
 40
0.15991934883249462
 10
-2.15400804552682
 20
6.23662834055731
 30
0.0
 10
-2.0913476043393535
 20
6.2653477573673495
 30
0.0
  0
SPLINE
  5
102
330
17
100
AcDbEntity
  8
visible
100
AcDbSpline
 70
0
 71
1
 72
4
 73
2
 74
0
 40
0.0
 40
0.0
 40
0.3417340767196424
 40
0.3417340767196424
 10
-2.1538815640976248
 20
6.99299742113133
 30
0.0
 10
-2.0200000000000005
 20
7.0543737126262815
 30
0.0
  0
LINE
  5
103
330
17
100
AcDbEntity
  8
visible
100
AcDbLine
 10
2.0200000000000005
 20
6.53425562038557
 30
0.0
 11
2.0200000000000005
 21
7.326955098111307
 31
0.0
  0
LINE
  5
104
330
17
100
AcDbEntity
  8
visible
100
AcDbLine
 10
-2.0200000000000005
 20
6.912418816556347
 30
0.0
 11
-2.0200000000000005
 21
7.326955098111307
 31
0.0
  0
ENDSEC
  0
SECTION
  2
OBJECTS
  0
DICTIONARY
  5
A
330
0
100
AcDbDictionary
281
1
  3
ACAD_COLOR
350
B
  3
ACAD_GROUP
350
C
  3
ACAD_LAYOUT
350
D
  3
ACAD_MATERIAL
350
E
  3
ACAD_MLEADERSTYLE
350
F
  3
ACAD_MLINESTYLE
350
10
  3
ACAD_PLOTSETTINGS
350
11
  3
ACAD_PLOTSTYLENAME
350
12
  3
ACAD_SCALELIST
350
14
  3
ACAD_TABLESTYLE
350
15
  3
ACAD_VISUALSTYLE
350
16
  3
EZDXF_META
350
2D
  0
DICTIONARY
  5
B
330
A
100
AcDbDictionary
281
1
  0
DICTIONARY
  5
C
330
A
100
AcDbDictionary
281
1
  0
DICTIONARY
  5
D
330
A
100
AcDbDictionary
281
1
  3
Model
350
1A
  3
Layout1
350
1E
  0
DICTIONARY
  5
E
330
A
100
AcDbDictionary
281
1
  3
ByBlock
350
1F
  3
ByLayer
350
20
  3
Global
350
21
  0
DICTIONARY
  5
F
330
A
100
AcDbDictionary
281
1
  3
Standard
350
2C
  0
DICTIONARY
  5
10
330
A
100
AcDbDictionary
281
1
  3
Standard
350
22
  0
DICTIONARY
  5
11
330
A
100
AcDbDictionary
281
1
  0
ACDBDICTIONARYWDFLT
  5
12
330
A
100
AcDbDictionary
281
1
  3
Normal
350
13
100
AcDbDictionaryWithDefault
340
13
  0
ACDBPLACEHOLDER
  5
13
330
12
  0
DICTIONARY
  5
14
330
A
100
AcDbDictionary
281
1
  0
DICTIONARY
  5
15
330
A
100
AcDbDictionary
281
1
  0
DICTIONARY
  5
16
330
A
100
AcDbDictionary
281
1
  0
LAYOUT
  5
1A
330
D
100
AcDbPlotSettings
  1

  4
A3
  6

 40
7.5
 41
20.0
 42
7.5
 43
20.0
 44
420.0
 45
297.0
 46
0.0
 47
0.0
 48
0.0
 49
0.0
140
0.0
141
0.0
142
1.0
143
1.0
 70
1024
 72
1
 73
0
 74
5
  7

 75
16
 76
0
 77
2
 78
300
147
1.0
148
0.0
149
0.0
100
AcDbLayout
  1
Model
 70
1
 71
0
 10
0.0
 20
0.0
 11
420.0
 21
297.0
 12
0.0
 22
0.0
 32
0.0
 14
1e+20
 24
1e+20
 34
1e+20
 15
-1e+20
 25
-1e+20
 35
-1e+20
146
0.0
 13
0.0
 23
0.0
 33
0.0
 16
1.0
 26
0.0
 36
0.0
 17
0.0
 27
1.0
 37
0.0
 76
1
330
17
  0
LAYOUT
  5
1E
330
D
100
AcDbPlotSettings
  1

  4
A3
  6

 40
7.5
 41
20.0
 42
7.5
 43
20.0
 44
420.0
 45
297.0
 46
0.0
 47
0.0
 48
0.0
 49
0.0
140
0.0
141
0.0
142
1.0
143
1.0
 70
0
 72
1
 73
0
 74
5
  7

 75
16
 76
0
 77
2
 78
300
147
1.0
148
0.0
149
0.0
100
AcDbLayout
  1
Layout1
 70
1
 71
1
 10
0.0
 20
0.0
 11
420.0
 21
297.0
 12
0.0
 22
0.0
 32
0.0
 14
1e+20
 24
1e+20
 34
1e+20
 15
-1e+20
 25
-1e+20
 35
-1e+20
146
0.0
 13
0.0
 23
0.0
 33
0.0
 16
1.0
 26
0.0
 36
0.0
 17
0.0
 27
1.0
 37
0.0
 76
1
330
1B
  0
MATERIAL
  5
1F
102
{ACAD_REACTORS
330
E
102
}
330
E
100
AcDbMaterial
  1
ByBlock
  2

 70
0
 40
1.0
 71
1
 41
1.0
 91
-1023410177
 42
1.0
 72
1
  3

 73
1
 74
1
 75
1
 44
0.5
 73
0
 45
1.0
 46
1.0
 77
1
  4

 78
1
 79
1
170
1
 48
1.0
171
1
  6

172
1
173
1
174
1
140
1.0
141
1.0
175
1
  7

176
1
177
1
178
1
143
1.0
179
1
  8

270
1
271
1
272
1
145
1.0
146
1.0
273
1
  9

274
1
275
1
276
1
 42
1.0
 72
1
  3

 73
1
 74
1
 75
1
 94
63
  0
MATERIAL
  5
20
102
{ACAD_REACTORS
330
E
102
}
330
E
100
AcDbMaterial
  1
ByLayer
  2

 70
0
 40
1.0
 71
1
 41
1.0
 91
-1023410177
 42
1.0
 72
1
  3

 73
1
 74
1
 75
1
 44
0.5
 73
0
 45
1.0
 46
1.0
 77
1
  4

 78
1
 79
1
170
1
 48
1.0
171
1
  6

172
1
173
1
174
1
140
1.0
141
1.0
175
1
  7

176
1
177
1
178
1
143
1.0
179
1
  8

270
1
271
1
272
1
145
1.0
146
1.0
273
1
  9

274
1
275
1
276
1
 42
1.0
 72
1
  3

 73
1
 74
1
 75
1
 94
63
  0
MATERIAL
  5
21
102
{ACAD_REACTORS
330
E
102
}
330
E
100
AcDbMaterial
  1
Global
  2

 70
0
 40
1.0
 71
1
 41
1.0
 91
-1023410177
 42
1.0
 72
1
  3

 73
1
 74
1
 75
1
 44
0.5
 73
0
 45
1.0
 46
1.0
 77
1
  4

 78
1
 79
1
170
1
 48
1.0
171
1
  6

172
1
173
1
174
1
140
1.0
141
1.0
175
1
  7

176
1
177
1
178
1
143
1.0
179
1
  8

270
1
271
1
272
1
145
1.0
146
1.0
273
1
  9

274
1
275
1
276
1
 42
1.0
 72
1
  3

 73
1
 74
1
 75
1
 94
63
  0
MLINESTYLE
  5
22
102
{ACAD_REACTORS
330
10
102
}
330
10
100
AcDbMlineStyle
  2
Standard
 70
0
  3

 62
256
 51
90.0
 52
90.0
 71
2
 49
0.5
 62
256
  6
BYLAYER
 49
-0.5
 62
256
  6
BYLAYER
  0
MLEADERSTYLE
  5
2C
102
{ACAD_REACTORS
330
F
102
}
330
F
100
AcDbMLeaderStyle
179
2
170
2
171
1
172
0
 90
2
 40
0.0
 41
0.0
173
1
 91
-1056964608
 92
-2
290
1
 42
2.0
291
1
 43
8.0
  3
Standard
 44
4.0
300

342
29
174
1
175
1
176
0
178
1
 93
-1056964608
 45
4.0
292
0
297
0
 46
4.0
 94
-1056964608
 47
1.0
 49
1.0
140
1.0
294
1
141
0.0
177
0
142
1.0
295
0
296
0
143
3.75
271
0
272
9
273
9
  0
DICTIONARY
  5
2D
330
A
100
AcDbDictionary
280
1
281
1
  3
CREATED_BY_EZDXF
350
2E
  3
WRITTEN_BY_EZDXF
350
108
  0
DICTIONARYVAR
  5
2E
330
2D
100
DictionaryVariables
280
0
  1
1.4.4 @ 2026-10-03T14:55:27.394274+00:00
  0
DICTIONARYVAR
  5
108
330
2D
100
DictionaryVariables
280
0
  1
1.4.4 @ 2026-10-03T14:55:27.510702+00:00
  0
ENDSEC
  0
EOF
