OFF
504 1008 0
3.7453384399 0.1869220734 2.5000000000
3.7500000000 -0.0000000000 2.5000000000
3.7500000000 -0.0000000000 0.0000000000
3.7453384399 0.1869220734 0.0000000000
3.7313654423 0.3733794391 2.5000000000
3.7313654423 0.3733794391 0.0000000000
3.7081155777 0.5589085221 2.5000000000
3.7081155777 0.5589085221 0.0000000000
3.6756467819 0.7430480123 2.5000000000
3.6756467819 0.7430480123 0.0000000000
3.6340398788 0.9253402352 2.5000000000
3.6340398788 0.9253402352 0.0000000000
3.5833981037 1.1053318977 2.5000000000
3.5833981037 1.1053318977 0.0000000000
3.5238473415 1.2825754881 2.5000000000
3.5238473415 1.2825754881 0.0000000000
3.4555358887 1.4566304684 0.0000000000
3.4555358887 1.4566304684 2.5000000000
3.3786332607 1.6270639896 2.5000000000
3.3786332607 1.6270639896 0.0000000000
3.2933309078 1.7934523821 2.5000000000
3.2933309078 1.7934523821 0.0000000000
3.1998407841 1.9553819895 2.5000000000
3.1998407841 1.9553819895 0.0000000000
3.0983953476 2.1124501228 0.0000000000
3.0983953476 2.1124501228 2.5000000000
2.9892468452 2.2642664909 2.5000000000
2.9892468452 2.2642664909 0.0000000000
2.8726665974 2.4104535580 2.5000000000
2.8726665974 2.4104535580 0.0000000000
2.7489445210 2.5506477356 2.5000000000
2.7489445210 2.5506477356 0.0000000000
2.6183881760 2.6845006943 0.0000000000
2.6183881760 2.6845006943 2.5000000000
2.4813218117 2.8116796017 2.5000000000
2.4813218117 2.8116796017 0.0000000000
2.3380868435 2.9318680763 2.5000000000
2.3380868435 2.9318680763 0.0000000000
2.1890387535 3.0447676182 0.0000000000
2.1890387535 3.0447676182 2.5000000000
2.0345485210 3.1500971317 2.5000000000
2.0345485210 3.1500971317 0.0000000000
1.8750000000 3.2475953102 2.5000000000
1.8750000000 3.2475953102 0.0000000000
1.7107899189 3.3370192051 2.5000000000
1.7107899189 3.3370192051 0.0000000000
1.5423266888 3.4181468487 2.5000000000
1.5423266888 3.4181468487 0.0000000000
1.3700288534 3.4907765388 2.5000000000
1.3700288534 3.4907765388 0.0000000000
1.1943249702 3.5547275543 2.5000000000
1.1943249702 3.5547275543 0.0000000000
1.0156517029 3.6098408699 2.5000000000
1.0156517029 3.6098408699 0.0000000000
0.8344535232 3.6559796333 2.5000000000
0.8344535232 3.6559796333 0.0000000000
0.6511806846 3.6930291653 2.5000000000
0.6511806846 3.6930291653 0.0000000000
0.4662888944 3.7208969593 0.0000000000
0.4662888944 3.7208969593 2.5000000000
0.2802378535 3.7395143509 2.5000000000
0.2802378535 3.7395143509 0.0000000000
0.0934900939 3.7488343716 2.5000000000
0.0934900939 3.7488343716 0.0000000000
-0.0934900939 3.7488343716 2.5000000000
-0.0934900939 3.7488343716 0.0000000000
-0.2802378535 3.7395143509 2.5000000000
-0.2802378535 3.7395143509 0.0000000000
-0.4662888944 3.7208969593 2.5000000000
-0.4662888944 3.7208969593 0.0000000000
-0.6511806846 3.6930291653 2.5000000000
-0.6511806846 3.6930291653 0.0000000000
-0.8344535232 3.6559796333 2.5000000000
-0.8344535232 3.6559796333 0.0000000000
-1.0156517029 3.6098408699 2.5000000000
-1.0156517029 3.6098408699 0.0000000000
-1.1943249702 3.5547275543 0.0000000000
-1.1943249702 3.5547275543 2.5000000000
-1.3700288534 3.4907765388 0.0000000000
-1.3700288534 3.4907765388 2.5000000000
-1.5423266888 3.4181468487 2.5000000000
-1.5423266888 3.4181468487 0.0000000000
-1.7107899189 3.3370192051 2.5000000000
-1.7107899189 3.3370192051 0.0000000000
-1.8750000000 3.2475953102 2.5000000000
-1.8750000000 3.2475953102 0.0000000000
-2.0345485210 3.1500971317 2.5000000000
-2.0345485210 3.1500971317 0.0000000000
-2.1890387535 3.0447676182 2.5000000000
-2.1890387535 3.0447676182 0.0000000000
-2.3380868435 2.9318680763 2.5000000000
-2.3380868435 2.9318680763 0.0000000000
-2.4813218117 2.8116796017 2.5000000000
-2.4813218117 2.8116796017 0.0000000000
-2.6183881760 2.6845006943 0.0000000000
-2.6183881760 2.6845006943 2.5000000000
-2.7489445210 2.5506477356 2.5000000000
-2.7489445210 2.5506477356 0.0000000000
-2.8726665974 2.4104535580 2.5000000000
-2.8726665974 2.4104535580 0.0000000000
-2.9892468452 2.2642664909 2.5000000000
-2.9892468452 2.2642664909 0.0000000000
-3.0983953476 2.1124501228 0.0000000000
-3.0983953476 2.1124501228 2.5000000000
-3.1998407841 1.9553819895 2.5000000000
-3.1998407841 1.9553819895 0.0000000000
-3.2933309078 1.7934523821 0.0000000000
-3.2933309078 1.7934523821 2.5000000000
-3.3786332607 1.6270639896 2.5000000000
-3.3786332607 1.6270639896 0.0000000000
-3.4555358887 1.4566304684 0.0000000000
-3.4555358887 1.4566304684 2.5000000000
-3.5238473415 1.2825754881 2.5000000000
-3.5238473415 1.2825754881 0.0000000000
-3.5833981037 1.1053318977 2.5000000000
-3.5833981037 1.1053318977 0.0000000000
-3.6340398788 0.9253402352 0.0000000000
-3.6340398788 0.9253402352 2.5000000000
-3.6756467819 0.7430480123 2.5000000000
-3.6756467819 0.7430480123 0.0000000000
-3.7081155777 0.5589085221 2.5000000000
-3.7081155777 0.5589085221 0.0000000000
-3.7313654423 0.3733794391 2.5000000000
-3.7313654423 0.3733794391 0.0000000000
-3.7453384399 0.1869220734 2.5000000000
-3.7453384399 0.1869220734 0.0000000000
-3.7500000000 -0.0000000000 0.0000000000
-3.7500000000 -0.0000000000 2.5000000000
-3.7453384399 -0.1869220734 0.0000000000
-3.7453384399 -0.1869220734 2.5000000000
-3.7313654423 -0.3733794391 2.5000000000
-3.7313654423 -0.3733794391 0.0000000000
-3.7081155777 -0.5589085221 0.0000000000
-3.7081155777 -0.5589085221 2.5000000000
-3.6756467819 -0.7430480123 0.0000000000
-3.6756467819 -0.7430480123 2.5000000000
-3.6340398788 -0.9253402352 0.0000000000
-3.6340398788 -0.9253402352 2.5000000000
-3.5833981037 -1.1053318977 2.5000000000
-3.5833981037 -1.1053318977 0.0000000000
-3.5238473415 -1.2825754881 0.0000000000
-3.5238473415 -1.2825754881 2.5000000000
-3.4555358887 -1.4566304684 2.5000000000
-3.4555358887 -1.4566304684 0.0000000000
-3.3786332607 -1.6270639896 2.5000000000
-3.3786332607 -1.6270639896 0.0000000000
-3.2933309078 -1.7934523821 0.0000000000
-3.2933309078 -1.7934523821 2.5000000000
-3.1998407841 -1.9553819895 2.5000000000
-3.1998407841 -1.9553819895 0.0000000000
-3.0983953476 -2.1124501228 2.5000000000
-3.0983953476 -2.1124501228 0.0000000000
-2.9892468452 -2.2642664909 2.5000000000
-2.9892468452 -2.2642664909 0.0000000000
-2.8726665974 -2.4104535580 0.0000000000
-2.8726665974 -2.4104535580 2.5000000000
-2.7489445210 -2.5506477356 2.5000000000
-2.7489445210 -2.5506477356 0.0000000000
-2.6183881760 -2.6845006943 2.5000000000
-2.6183881760 -2.6845006943 0.0000000000
-2.4813218117 -2.8116796017 0.0000000000
-2.4813218117 -2.8116796017 2.5000000000
-2.3380868435 -2.9318680763 2.5000000000
-2.3380868435 -2.9318680763 0.0000000000
-2.1890387535 -3.0447676182 2.5000000000
-2.1890387535 -3.0447676182 0.0000000000
-2.0345485210 -3.1500971317 2.5000000000
-2.0345485210 -3.1500971317 0.0000000000
-1.8750000000 -3.2475953102 0.0000000000
-1.8750000000 -3.2475953102 2.5000000000
-1.7107899189 -3.3370192051 2.5000000000
-1.7107899189 -3.3370192051 0.0000000000
-1.5423266888 -3.4181468487 2.5000000000
-1.5423266888 -3.4181468487 0.0000000000
-1.3700288534 -3.4907765388 2.5000000000
-1.3700288534 -3.4907765388 0.0000000000
-1.1943249702 -3.5547275543 2.5000000000
-1.1943249702 -3.5547275543 0.0000000000
-1.0156517029 -3.6098408699 2.5000000000
-1.0156517029 -3.6098408699 0.0000000000
-0.8344535232 -3.6559796333 2.5000000000
-0.8344535232 -3.6559796333 0.0000000000
-0.6511806846 -3.6930291653 2.5000000000
-0.6511806846 -3.6930291653 0.0000000000
-0.4662888944 -3.7208969593 0.0000000000
-0.4662888944 -3.7208969593 2.5000000000
-0.2802378535 -3.7395143509 2.5000000000
-0.2802378535 -3.7395143509 0.0000000000
-0.0934900939 -3.7488343716 2.5000000000
-0.0934900939 -3.7488343716 0.0000000000
0.0934900939 -3.7488343716 2.5000000000
0.0934900939 -3.7488343716 0.0000000000
0.2802378535 -3.7395143509 2.5000000000
0.2802378535 -3.7395143509 0.0000000000
0.4662888944 -3.7208969593 2.5000000000
0.4662888944 -3.7208969593 0.0000000000
0.6511806846 -3.6930291653 2.5000000000
0.6511806846 -3.6930291653 0.0000000000
0.8344535232 -3.6559796333 2.5000000000
0.8344535232 -3.6559796333 0.0000000000
1.0156517029 -3.6098408699 2.5000000000
1.0156517029 -3.6098408699 0.0000000000
1.1943249702 -3.5547275543 2.5000000000
1.1943249702 -3.5547275543 0.0000000000
1.3700288534 -3.4907765388 2.5000000000
1.3700288534 -3.4907765388 0.0000000000
1.5423266888 -3.4181468487 2.5000000000
1.5423266888 -3.4181468487 0.0000000000
1.7107899189 -3.3370192051 2.5000000000
1.7107899189 -3.3370192051 0.0000000000
1.8750000000 -3.2475953102 0.0000000000
1.8750000000 -3.2475953102 2.5000000000
2.0345485210 -3.1500971317 2.5000000000
2.0345485210 -3.1500971317 0.0000000000
2.1890387535 -3.0447676182 2.5000000000
2.1890387535 -3.0447676182 0.0000000000
2.3380868435 -2.9318680763 2.5000000000
2.3380868435 -2.9318680763 0.0000000000
2.4813218117 -2.8116796017 2.5000000000
2.4813218117 -2.8116796017 0.0000000000
2.6183881760 -2.6845006943 2.5000000000
2.6183881760 -2.6845006943 0.0000000000
2.7489445210 -2.5506477356 2.5000000000
2.7489445210 -2.5506477356 0.0000000000
2.8726665974 -2.4104535580 2.5000000000
2.8726665974 -2.4104535580 0.0000000000
2.9892468452 -2.2642664909 2.5000000000
2.9892468452 -2.2642664909 0.0000000000
3.0983953476 -2.1124501228 2.5000000000
3.0983953476 -2.1124501228 0.0000000000
3.1998407841 -1.9553819895 2.5000000000
3.1998407841 -1.9553819895 0.0000000000
3.2933309078 -1.7934523821 2.5000000000
3.2933309078 -1.7934523821 0.0000000000
3.3786332607 -1.6270639896 2.5000000000
3.3786332607 -1.6270639896 0.0000000000
3.4555358887 -1.4566304684 2.5000000000
3.4555358887 -1.4566304684 0.0000000000
3.5238473415 -1.2825754881 2.5000000000
3.5238473415 -1.2825754881 0.0000000000
3.5833981037 -1.1053318977 0.0000000000
3.5833981037 -1.1053318977 2.5000000000
3.6340398788 -0.9253402352 2.5000000000
3.6340398788 -0.9253402352 0.0000000000
3.6756467819 -0.7430480123 2.5000000000
3.6756467819 -0.7430480123 0.0000000000
3.7081155777 -0.5589085221 2.5000000000
3.7081155777 -0.5589085221 0.0000000000
3.7313654423 -0.3733794391 2.5000000000
3.7313654423 -0.3733794391 0.0000000000
3.7453384399 -0.1869220734 2.5000000000
3.7453384399 -0.1869220734 0.0000000000
-1.9059348106 -1.7684490681 2.5000000000
-1.8154157400 -1.8612538576 2.5000000000
-1.7203831673 -1.9494311810 2.5000000000
-1.9917155504 -1.6712478399 2.5000000000
-1.6210734844 -2.0327618122 2.5000000000
-2.0725445747 -1.5698914528 2.5000000000
-1.5177335739 -2.1110389233 2.5000000000
-2.1482207775 -1.4646321535 2.5000000000
-1.4106203318 -2.1840674877 2.5000000000
-2.2185564041 -1.3557314873 2.5000000000
-1.2999999523 -2.2516660690 2.5000000000
-2.2833759785 -1.2434602976 2.5000000000
-1.1861476898 -2.3136668205 2.5000000000
-2.3425190449 -1.1280977726 2.5000000000
-1.0693464279 -2.3699152470 2.5000000000
-2.3958382607 -1.0099304914 2.5000000000
-0.9498866796 -2.4202716351 2.5000000000
-2.4432008266 -0.8892523646 2.5000000000
-0.8280652761 -2.4646110535 2.5000000000
-2.4844892025 -0.7663634419 2.5000000000
-0.7041851878 -2.5028231144 2.5000000000
-2.5196008682 -0.6415692568 2.5000000000
-0.5785544515 -2.5348126888 2.5000000000
-2.5484485626 -0.5151799917 2.5000000000
-0.4514852762 -2.5605001450 2.5000000000
-2.5709600449 -0.3875098825 2.5000000000
-0.3232936263 -2.5798218250 2.5000000000
-2.5870800018 -0.2588764131 2.5000000000
-0.1942982376 -2.5927298069 2.5000000000
-2.5967679024 -0.1295993030 2.5000000000
-0.0648197979 -2.5991919041 2.5000000000
-2.5999999046 -0.0000000000 2.5000000000
0.0648197979 -2.5991919041 2.5000000000
-2.5967679024 0.1295993030 2.5000000000
0.1942982376 -2.5927298069 2.5000000000
-2.5870800018 0.2588764131 2.5000000000
0.3232936263 -2.5798218250 2.5000000000
-2.5709600449 0.3875098825 2.5000000000
0.4514852762 -2.5605001450 2.5000000000
-2.5484485626 0.5151799917 2.5000000000
0.5785544515 -2.5348126888 2.5000000000
-2.5196008682 0.6415692568 2.5000000000
0.7041851878 -2.5028231144 2.5000000000
-2.4844892025 0.7663634419 2.5000000000
0.8280652761 -2.4646110535 2.5000000000
-2.4432008266 0.8892523646 2.5000000000
0.9498866796 -2.4202716351 2.5000000000
-2.3958382607 1.0099304914 2.5000000000
1.0693464279 -2.3699152470 2.5000000000
-2.3425190449 1.1280977726 2.5000000000
1.1861476898 -2.3136668205 2.5000000000
-2.2833759785 1.2434602976 2.5000000000
1.2999999523 -2.2516660690 2.5000000000
-2.2185564041 1.3557314873 2.5000000000
1.4106203318 -2.1840674877 2.5000000000
-2.1482207775 1.4646321535 2.5000000000
1.5177335739 -2.1110389233 2.5000000000
-2.0725445747 1.5698914528 2.5000000000
1.6210734844 -2.0327618122 2.5000000000
-1.9917155504 1.6712478399 2.5000000000
1.7203831673 -1.9494311810 2.5000000000
-1.9059348106 1.7684490681 2.5000000000
1.8154157400 -1.8612538576 2.5000000000
-1.8154157400 1.8612538576 2.5000000000
1.9059348106 -1.7684490681 2.5000000000
-1.7203831673 1.9494311810 2.5000000000
-1.6210734844 2.0327618122 2.5000000000
1.9917155504 -1.6712478399 2.5000000000
2.0725445747 -1.5698914528 2.5000000000
-1.5177335739 2.1110389233 2.5000000000
-1.4106203318 2.1840674877 2.5000000000
2.1482207775 -1.4646321535 2.5000000000
2.2185564041 -1.3557314873 2.5000000000
-1.2999999523 2.2516660690 2.5000000000
2.2833759785 -1.2434602976 2.5000000000
-1.1861476898 2.3136668205 2.5000000000
2.3425190449 -1.1280977726 2.5000000000
-1.0693464279 2.3699152470 2.5000000000
2.3958382607 -1.0099304914 2.5000000000
-0.9498866796 2.4202716351 2.5000000000
2.4432008266 -0.8892523646 2.5000000000
-0.8280652761 2.4646110535 2.5000000000
-0.7041851878 2.5028231144 2.5000000000
2.4844892025 -0.7663634419 2.5000000000
2.5196008682 -0.6415692568 2.5000000000
2.5484485626 -0.5151799917 2.5000000000
-0.5785544515 2.5348126888 2.5000000000
-0.4514852762 2.5605001450 2.5000000000
2.5709600449 -0.3875098825 2.5000000000
-0.3232936263 2.5798218250 2.5000000000
2.5870800018 -0.2588764131 2.5000000000
-0.1942982376 2.5927298069 2.5000000000
2.5967679024 -0.1295993030 2.5000000000
2.5999999046 -0.0000000000 2.5000000000
-0.0648197979 2.5991919041 2.5000000000
0.0648197979 2.5991919041 2.5000000000
2.5967679024 0.1295993030 2.5000000000
0.1942982376 2.5927298069 2.5000000000
2.5870800018 0.2588764131 2.5000000000
0.3232936263 2.5798218250 2.5000000000
0.4514852762 2.5605001450 2.5000000000
2.5709600449 0.3875098825 2.5000000000
2.5484485626 0.5151799917 2.5000000000
2.5196008682 0.6415692568 2.5000000000
0.5785544515 2.5348126888 2.5000000000
2.4844892025 0.7663634419 2.5000000000
0.7041851878 2.5028231144 2.5000000000
0.8280652761 2.4646110535 2.5000000000
2.4432008266 0.8892523646 2.5000000000
0.9498866796 2.4202716351 2.5000000000
1.0693464279 2.3699152470 2.5000000000
2.3958382607 1.0099304914 2.5000000000
2.3425190449 1.1280977726 2.5000000000
2.2833759785 1.2434602976 2.5000000000
1.1861476898 2.3136668205 2.5000000000
1.2999999523 2.2516660690 2.5000000000
2.2185564041 1.3557314873 2.5000000000
1.4106203318 2.1840674877 2.5000000000
1.5177335739 2.1110389233 2.5000000000
2.1482207775 1.4646321535 2.5000000000
2.0725445747 1.5698914528 2.5000000000
1.9917155504 1.6712478399 2.5000000000
1.6210734844 2.0327618122 2.5000000000
1.7203831673 1.9494311810 2.5000000000
1.9059348106 1.7684490681 2.5000000000
1.8154157400 1.8612538576 2.5000000000
-1.9059348106 -1.7684490681 0.0000000000
-1.8154157400 -1.8612538576 0.0000000000
-1.7203831673 -1.9494311810 0.0000000000
-1.9917155504 -1.6712478399 0.0000000000
-1.6210734844 -2.0327618122 0.0000000000
-2.0725445747 -1.5698914528 0.0000000000
-1.5177335739 -2.1110389233 0.0000000000
-2.1482207775 -1.4646321535 0.0000000000
-1.4106203318 -2.1840674877 0.0000000000
-2.2185564041 -1.3557314873 0.0000000000
-1.2999999523 -2.2516660690 0.0000000000
-2.2833759785 -1.2434602976 0.0000000000
-1.1861476898 -2.3136668205 0.0000000000
-2.3425190449 -1.1280977726 0.0000000000
-1.0693464279 -2.3699152470 0.0000000000
-2.3958382607 -1.0099304914 0.0000000000
-0.9498866796 -2.4202716351 0.0000000000
-2.4432008266 -0.8892523646 0.0000000000
-0.8280652761 -2.4646110535 0.0000000000
-2.4844892025 -0.7663634419 0.0000000000
-0.7041851878 -2.5028231144 0.0000000000
-2.5196008682 -0.6415692568 0.0000000000
-0.5785544515 -2.5348126888 0.0000000000
-2.5484485626 -0.5151799917 0.0000000000
-0.4514852762 -2.5605001450 0.0000000000
-2.5709600449 -0.3875098825 0.0000000000
-0.3232936263 -2.5798218250 0.0000000000
-2.5870800018 -0.2588764131 0.0000000000
-0.1942982376 -2.5927298069 0.0000000000
-2.5967679024 -0.1295993030 0.0000000000
-0.0648197979 -2.5991919041 0.0000000000
-2.5999999046 -0.0000000000 0.0000000000
0.0648197979 -2.5991919041 0.0000000000
-2.5967679024 0.1295993030 0.0000000000
0.1942982376 -2.5927298069 0.0000000000
-2.5870800018 0.2588764131 0.0000000000
0.3232936263 -2.5798218250 0.0000000000
-2.5709600449 0.3875098825 0.0000000000
0.4514852762 -2.5605001450 0.0000000000
-2.5484485626 0.5151799917 0.0000000000
0.5785544515 -2.5348126888 0.0000000000
-2.5196008682 0.6415692568 0.0000000000
0.7041851878 -2.5028231144 0.0000000000
-2.4844892025 0.7663634419 0.0000000000
0.8280652761 -2.4646110535 0.0000000000
-2.4432008266 0.8892523646 0.0000000000
0.9498866796 -2.4202716351 0.0000000000
-2.3958382607 1.0099304914 0.0000000000
1.0693464279 -2.3699152470 0.0000000000
-2.3425190449 1.1280977726 0.0000000000
1.1861476898 -2.3136668205 0.0000000000
-2.2833759785 1.2434602976 0.0000000000
1.2999999523 -2.2516660690 0.0000000000
-2.2185564041 1.3557314873 0.0000000000
1.4106203318 -2.1840674877 0.0000000000
-2.1482207775 1.4646321535 0.0000000000
1.5177335739 -2.1110389233 0.0000000000
-2.0725445747 1.5698914528 0.0000000000
1.6210734844 -2.0327618122 0.0000000000
-1.9917155504 1.6712478399 0.0000000000
1.7203831673 -1.9494311810 0.0000000000
-1.9059348106 1.7684490681 0.0000000000
1.8154157400 -1.8612538576 0.0000000000
-1.8154157400 1.8612538576 0.0000000000
1.9059348106 -1.7684490681 0.0000000000
-1.7203831673 1.9494311810 0.0000000000
-1.6210734844 2.0327618122 0.0000000000
1.9917155504 -1.6712478399 0.0000000000
2.0725445747 -1.5698914528 0.0000000000
-1.4106203318 2.1840674877 0.0000000000
-1.5177335739 2.1110389233 0.0000000000
2.1482207775 -1.4646321535 0.0000000000
2.2185564041 -1.3557314873 0.0000000000
-1.2999999523 2.2516660690 0.0000000000
2.2833759785 -1.2434602976 0.0000000000
-1.1861476898 2.3136668205 0.0000000000
2.3425190449 -1.1280977726 0.0000000000
-1.0693464279 2.3699152470 0.0000000000
2.3958382607 -1.0099304914 0.0000000000
-0.9498866796 2.4202716351 0.0000000000
2.4432008266 -0.8892523646 0.0000000000
-0.7041851878 2.5028231144 0.0000000000
-0.8280652761 2.4646110535 0.0000000000
2.4844892025 -0.7663634419 0.0000000000
2.5196008682 -0.6415692568 0.0000000000
2.5484485626 -0.5151799917 0.0000000000
-0.4514852762 2.5605001450 0.0000000000
-0.5785544515 2.5348126888 0.0000000000
2.5709600449 -0.3875098825 0.0000000000
-0.3232936263 2.5798218250 0.0000000000
2.5870800018 -0.2588764131 0.0000000000
-0.1942982376 2.5927298069 0.0000000000
2.5967679024 -0.1295993030 0.0000000000
2.5999999046 -0.0000000000 0.0000000000
-0.0648197979 2.5991919041 0.0000000000
0.0648197979 2.5991919041 0.0000000000
2.5967679024 0.1295993030 0.0000000000
0.1942982376 2.5927298069 0.0000000000
2.5870800018 0.2588764131 0.0000000000
0.4514852762 2.5605001450 0.0000000000
0.3232936263 2.5798218250 0.0000000000
2.5709600449 0.3875098825 0.0000000000
2.5484485626 0.5151799917 0.0000000000
2.5196008682 0.6415692568 0.0000000000
0.5785544515 2.5348126888 0.0000000000
2.4844892025 0.7663634419 0.0000000000
0.7041851878 2.5028231144 0.0000000000
0.8280652761 2.4646110535 0.0000000000
2.4432008266 0.8892523646 0.0000000000
1.0693464279 2.3699152470 0.0000000000
0.9498866796 2.4202716351 0.0000000000
2.3958382607 1.0099304914 0.0000000000
2.3425190449 1.1280977726 0.0000000000
2.2833759785 1.2434602976 0.0000000000
1.2999999523 2.2516660690 0.0000000000
1.1861476898 2.3136668205 0.0000000000
2.2185564041 1.3557314873 0.0000000000
1.5177335739 2.1110389233 0.0000000000
1.4106203318 2.1840674877 0.0000000000
2.1482207775 1.4646321535 0.0000000000
2.0725445747 1.5698914528 0.0000000000
1.9917155504 1.6712478399 0.0000000000
1.6210734844 2.0327618122 0.0000000000
1.7203831673 1.9494311810 0.0000000000
1.9059348106 1.7684490681 0.0000000000
1.8154157400 1.8612538576 0.0000000000
3 0 1 2
3 0 2 3
3 4 3 5
3 4 0 3
3 6 5 7
3 6 4 5
3 8 7 9
3 8 6 7
3 10 9 11
3 10 8 9
3 12 11 13
3 12 10 11
3 14 13 15
3 14 15 16
3 14 12 13
3 17 14 16
3 18 16 19
3 18 17 16
3 20 19 21
3 20 18 19
3 22 20 21
3 22 21 23
3 22 23 24
3 25 22 24
3 26 25 24
3 26 24 27
3 28 26 27
3 28 27 29
3 30 28 29
3 30 29 31
3 30 31 32
3 33 30 32
3 34 33 32
3 34 32 35
3 36 34 35
3 36 35 37
3 36 37 38
3 39 36 38
3 40 39 38
3 40 38 41
3 42 40 41
3 42 41 43
3 44 42 43
3 44 43 45
3 46 45 47
3 46 44 45
3 48 47 49
3 48 46 47
3 50 49 51
3 50 48 49
3 52 51 53
3 52 50 51
3 54 53 55
3 54 52 53
3 56 55 57
3 56 57 58
3 56 54 55
3 59 56 58
3 60 58 61
3 60 59 58
3 62 61 63
3 62 60 61
3 64 63 65
3 64 62 63
3 66 65 67
3 66 64 65
3 68 67 69
3 68 66 67
3 70 69 71
3 70 68 69
3 72 71 73
3 72 70 71
3 74 72 73
3 74 73 75
3 74 75 76
3 77 74 76
3 77 76 78
3 79 77 78
3 80 79 78
3 80 78 81
3 82 80 81
3 82 81 83
3 84 82 83
3 84 83 85
3 86 84 85
3 86 85 87
3 88 86 87
3 88 87 89
3 90 88 89
3 90 89 91
3 92 90 91
3 92 91 93
3 92 93 94
3 95 92 94
3 96 95 94
3 96 94 97
3 98 96 97
3 98 97 99
3 100 98 99
3 100 99 101
3 100 101 102
3 103 100 102
3 104 103 102
3 104 102 105
3 104 105 106
3 107 104 106
3 108 107 106
3 108 106 109
3 108 109 110
3 111 108 110
3 112 111 110
3 112 110 113
3 114 112 113
3 114 113 115
3 114 115 116
3 117 114 116
3 118 116 119
3 118 117 116
3 120 119 121
3 120 118 119
3 122 121 123
3 122 120 121
3 124 122 123
3 124 123 125
3 124 125 126
3 127 124 126
3 127 126 128
3 129 127 128
3 130 129 128
3 130 128 131
3 130 131 132
3 133 130 132
3 133 132 134
3 135 133 134
3 135 134 136
3 137 135 136
3 138 137 136
3 138 136 139
3 138 139 140
3 141 138 140
3 142 141 140
3 142 140 143
3 144 142 143
3 144 143 145
3 144 145 146
3 147 144 146
3 148 147 146
3 148 146 149
3 150 149 151
3 150 148 149
3 152 151 153
3 152 153 154
3 152 150 151
3 155 152 154
3 156 154 157
3 156 155 154
3 158 157 159
3 158 159 160
3 158 156 157
3 161 158 160
3 162 160 163
3 162 161 160
3 164 163 165
3 164 162 163
3 166 165 167
3 166 167 168
3 166 164 165
3 169 166 168
3 170 168 171
3 170 169 168
3 172 171 173
3 172 170 171
3 174 173 175
3 174 172 173
3 176 174 175
3 176 175 177
3 178 176 177
3 178 177 179
3 180 178 179
3 180 179 181
3 182 180 181
3 182 181 183
3 182 183 184
3 185 182 184
3 186 184 187
3 186 185 184
3 188 187 189
3 188 186 187
3 190 189 191
3 190 188 189
3 192 191 193
3 192 190 191
3 194 193 195
3 194 192 193
3 196 195 197
3 196 194 195
3 198 197 199
3 198 196 197
3 200 199 201
3 200 198 199
3 202 201 203
3 202 200 201
3 204 203 205
3 204 202 203
3 206 205 207
3 206 204 205
3 208 207 209
3 208 209 210
3 208 206 207
3 211 208 210
3 212 210 213
3 212 211 210
3 214 213 215
3 214 212 213
3 216 215 217
3 216 214 215
3 218 217 219
3 218 216 217
3 220 219 221
3 220 218 219
3 222 221 223
3 222 220 221
3 224 222 223
3 224 223 225
3 226 224 225
3 226 225 227
3 228 226 227
3 228 227 229
3 230 228 229
3 230 229 231
3 232 230 231
3 232 231 233
3 234 232 233
3 234 233 235
3 236 234 235
3 236 235 237
3 238 236 237
3 238 237 239
3 238 239 240
3 241 238 240
3 242 241 240
3 242 240 243
3 244 242 243
3 244 243 245
3 246 244 245
3 246 245 247
3 248 246 247
3 248 247 249
3 250 249 251
3 250 248 249
3 250 251 2
3 1 250 2
3 252 158 253
3 252 156 158
3 254 253 158
3 254 158 161
3 255 156 252
3 255 155 156
3 256 254 161
3 256 161 162
3 257 155 255
3 257 152 155
3 258 256 162
3 258 162 164
3 259 152 257
3 259 150 152
3 260 258 164
3 260 164 166
3 261 150 259
3 261 148 150
3 262 260 166
3 262 166 169
3 263 148 261
3 263 147 148
3 264 262 169
3 264 169 170
3 265 147 263
3 265 142 144
3 265 144 147
3 266 264 170
3 266 170 172
3 267 142 265
3 268 266 172
3 268 172 174
3 269 142 267
3 269 141 142
3 270 268 174
3 270 174 176
3 271 141 269
3 271 138 141
3 272 270 176
3 272 176 178
3 272 178 180
3 273 138 271
3 273 137 138
3 274 272 180
3 274 180 182
3 275 133 135
3 275 135 137
3 275 137 273
3 276 274 182
3 277 133 275
3 278 276 182
3 278 182 185
3 278 185 186
3 279 133 277
3 279 130 133
3 280 278 186
3 281 127 129
3 281 129 130
3 281 130 279
3 282 280 186
3 282 186 188
3 282 188 190
3 283 127 281
3 284 282 190
3 285 124 127
3 285 127 283
3 286 284 190
3 286 190 192
3 287 122 124
3 287 124 285
3 288 286 192
3 288 192 194
3 289 120 122
3 289 122 287
3 290 288 194
3 290 194 196
3 291 118 120
3 291 120 289
3 292 290 196
3 292 196 198
3 293 117 118
3 293 118 291
3 294 292 198
3 294 198 200
3 295 117 293
3 295 114 117
3 296 200 202
3 296 294 200
3 297 114 295
3 297 112 114
3 298 202 204
3 298 296 202
3 299 112 297
3 299 111 112
3 300 204 206
3 300 298 204
3 301 111 299
3 301 108 111
3 302 206 208
3 302 300 206
3 303 108 301
3 303 107 108
3 304 208 211
3 304 211 212
3 304 302 208
3 305 107 303
3 305 103 104
3 305 104 107
3 306 304 212
3 307 103 305
3 308 212 214
3 308 306 212
3 309 100 103
3 309 103 307
3 98 100 309
3 310 214 216
3 310 308 214
3 218 310 216
3 311 98 309
3 312 310 218
3 313 96 98
3 313 98 311
3 314 218 220
3 314 312 218
3 315 96 313
3 95 96 315
3 316 314 220
3 222 316 220
3 92 95 315
3 92 315 317
3 318 92 317
3 224 316 222
3 224 319 316
3 320 319 224
3 90 92 318
3 226 320 224
3 88 90 318
3 88 321 322
3 88 318 321
3 228 323 320
3 228 324 323
3 228 320 226
3 86 88 322
3 230 324 228
3 84 86 322
3 84 322 325
3 232 326 324
3 232 324 230
3 82 84 325
3 82 325 327
3 234 326 232
3 234 328 326
3 80 327 329
3 80 82 327
3 236 328 234
3 236 330 328
3 79 329 331
3 79 80 329
3 238 332 330
3 238 330 236
3 77 333 334
3 77 331 333
3 77 79 331
3 241 335 332
3 241 332 238
3 74 77 334
3 242 336 335
3 242 337 336
3 242 335 241
3 72 74 334
3 72 338 339
3 72 334 338
3 244 337 242
3 70 72 339
3 246 337 244
3 246 340 337
3 68 70 339
3 68 339 341
3 248 340 246
3 248 342 340
3 66 68 341
3 66 341 343
3 250 342 248
3 250 344 342
3 250 345 344
3 64 343 346
3 64 66 343
3 1 345 250
3 62 346 347
3 62 64 346
3 0 348 345
3 0 345 1
3 60 347 349
3 60 62 347
3 4 350 348
3 4 348 0
3 59 351 352
3 59 349 351
3 59 60 349
3 6 353 350
3 6 354 353
3 6 350 4
3 56 59 352
3 8 355 354
3 8 354 6
3 54 56 352
3 54 352 356
3 10 357 355
3 10 355 8
3 52 54 356
3 52 356 358
3 12 357 10
3 50 52 358
3 50 358 359
3 14 360 357
3 14 357 12
3 48 50 359
3 48 361 362
3 48 359 361
3 17 360 14
3 17 363 360
3 46 48 362
3 18 363 17
3 18 364 363
3 18 365 364
3 44 46 362
3 44 366 367
3 44 362 366
3 20 365 18
3 42 44 367
3 22 365 20
3 22 368 365
3 40 42 367
3 40 369 370
3 40 367 369
3 25 368 22
3 25 371 368
3 39 40 370
3 26 371 25
3 26 372 371
3 26 373 372
3 36 39 370
3 36 370 374
3 28 373 26
3 34 374 375
3 34 36 374
3 30 376 373
3 30 377 376
3 30 373 28
3 33 375 377
3 33 34 375
3 33 377 30
3 378 379 159
3 378 159 157
3 380 159 379
3 380 160 159
3 381 378 157
3 381 157 154
3 382 160 380
3 382 163 160
3 383 381 154
3 383 154 153
3 384 163 382
3 384 165 163
3 385 383 153
3 385 153 151
3 386 165 384
3 386 167 165
3 387 385 151
3 387 151 149
3 388 167 386
3 388 168 167
3 389 387 149
3 389 149 146
3 390 168 388
3 390 171 168
3 391 389 146
3 391 145 143
3 391 146 145
3 392 171 390
3 392 173 171
3 393 391 143
3 394 173 392
3 394 175 173
3 395 393 143
3 395 143 140
3 396 175 394
3 396 177 175
3 397 395 140
3 397 140 139
3 398 177 396
3 398 179 177
3 398 181 179
3 399 397 139
3 399 139 136
3 400 181 398
3 400 183 181
3 401 134 132
3 401 136 134
3 401 399 136
3 402 183 400
3 403 401 132
3 404 183 402
3 404 184 183
3 404 187 184
3 405 403 132
3 405 132 131
3 406 187 404
3 407 128 126
3 407 131 128
3 407 405 131
3 408 187 406
3 408 189 187
3 408 191 189
3 409 407 126
3 410 191 408
3 411 126 125
3 411 409 126
3 412 191 410
3 412 193 191
3 413 125 123
3 413 411 125
3 414 193 412
3 414 195 193
3 415 123 121
3 415 413 123
3 416 195 414
3 416 197 195
3 417 121 119
3 417 415 121
3 418 197 416
3 418 199 197
3 419 119 116
3 419 417 119
3 420 199 418
3 420 201 199
3 421 419 116
3 421 116 115
3 422 203 201
3 422 201 420
3 423 421 115
3 423 115 113
3 424 205 203
3 424 203 422
3 425 423 113
3 425 113 110
3 426 207 205
3 426 205 424
3 427 425 110
3 427 110 109
3 428 209 207
3 428 207 426
3 429 427 109
3 429 109 106
3 430 210 209
3 430 213 210
3 430 209 428
3 431 429 106
3 431 105 102
3 431 106 105
3 432 213 430
3 433 431 102
3 434 215 213
3 434 213 432
3 435 102 101
3 435 433 102
3 99 435 101
3 436 217 215
3 436 215 434
3 219 217 436
3 437 435 99
3 438 219 436
3 439 99 97
3 439 437 99
3 440 221 219
3 440 219 438
3 441 439 97
3 94 441 97
3 442 221 440
3 223 221 442
3 93 441 94
3 93 443 441
3 444 443 93
3 225 223 442
3 225 442 445
3 446 225 445
3 91 444 93
3 227 225 446
3 89 444 91
3 89 447 448
3 89 448 444
3 229 446 449
3 229 449 450
3 229 227 446
3 87 447 89
3 231 229 450
3 85 447 87
3 85 451 447
3 233 450 452
3 233 231 450
3 83 451 85
3 83 453 451
3 235 233 452
3 235 452 454
3 81 455 453
3 81 453 83
3 237 235 454
3 237 454 456
3 78 457 455
3 78 455 81
3 239 456 458
3 239 237 456
3 76 459 460
3 76 460 457
3 76 457 78
3 240 458 461
3 240 239 458
3 75 459 76
3 243 461 462
3 243 462 463
3 243 240 461
3 73 459 75
3 73 464 465
3 73 465 459
3 245 243 463
3 71 464 73
3 247 245 463
3 247 463 466
3 69 464 71
3 69 467 464
3 249 247 466
3 249 466 468
3 67 467 69
3 67 469 467
3 251 249 468
3 251 468 470
3 251 470 471
3 65 472 469
3 65 469 67
3 2 251 471
3 63 473 472
3 63 472 65
3 3 471 474
3 3 2 471
3 61 475 473
3 61 473 63
3 5 474 476
3 5 3 474
3 58 477 478
3 58 478 475
3 58 475 61
3 7 476 479
3 7 479 480
3 7 5 476
3 57 477 58
3 9 480 481
3 9 7 480
3 55 477 57
3 55 482 477
3 11 481 483
3 11 9 481
3 53 482 55
3 53 484 482
3 13 11 483
3 51 484 53
3 51 485 484
3 15 483 486
3 15 13 483
3 49 485 51
3 49 487 488
3 49 488 485
3 16 15 486
3 16 486 489
3 47 487 49
3 19 16 489
3 19 489 490
3 19 490 491
3 45 487 47
3 45 492 493
3 45 493 487
3 21 19 491
3 43 492 45
3 23 21 491
3 23 491 494
3 41 492 43
3 41 495 496
3 41 496 492
3 24 23 494
3 24 494 497
3 38 495 41
3 27 24 497
3 27 497 498
3 27 498 499
3 37 495 38
3 37 500 495
3 29 27 499
3 35 501 500
3 35 500 37
3 31 499 502
3 31 502 503
3 31 29 499
3 32 503 501
3 32 501 35
3 32 31 503
3 348 471 345
3 348 474 471
3 350 476 474
3 350 474 348
3 353 479 476
3 353 476 350
3 354 480 479
3 354 479 353
3 355 481 480
3 355 480 354
3 357 483 481
3 357 481 355
3 360 486 483
3 360 489 486
3 360 483 357
3 363 489 360
3 364 490 489
3 364 489 363
3 365 491 490
3 365 490 364
3 368 491 365
3 368 494 491
3 368 497 494
3 371 497 368
3 372 497 371
3 372 498 497
3 373 498 372
3 373 499 498
3 376 499 373
3 376 502 499
3 376 503 502
3 377 503 376
3 375 503 377
3 375 501 503
3 374 501 375
3 374 500 501
3 374 495 500
3 370 495 374
3 369 495 370
3 369 496 495
3 367 496 369
3 367 492 496
3 366 492 367
3 366 493 492
3 362 487 493
3 362 493 366
3 361 488 487
3 361 487 362
3 359 485 488
3 359 488 361
3 358 484 485
3 358 485 359
3 356 482 484
3 356 484 358
3 352 477 482
3 352 478 477
3 352 482 356
3 351 478 352
3 349 475 478
3 349 478 351
3 347 473 475
3 347 475 349
3 346 472 473
3 346 473 347
3 343 469 472
3 343 472 346
3 341 467 469
3 341 469 343
3 339 464 467
3 339 467 341
3 338 465 464
3 338 464 339
3 334 465 338
3 334 459 465
3 334 460 459
3 333 460 334
3 333 457 460
3 331 457 333
3 329 457 331
3 329 455 457
3 327 455 329
3 327 453 455
3 325 453 327
3 325 451 453
3 322 451 325
3 322 447 451
3 321 447 322
3 321 448 447
3 318 448 321
3 318 444 448
3 317 444 318
3 317 443 444
3 317 441 443
3 315 441 317
3 313 441 315
3 313 439 441
3 311 439 313
3 311 437 439
3 309 437 311
3 309 435 437
3 309 433 435
3 307 433 309
3 305 433 307
3 305 431 433
3 305 429 431
3 303 429 305
3 301 429 303
3 301 427 429
3 301 425 427
3 299 425 301
3 297 425 299
3 297 423 425
3 295 423 297
3 295 421 423
3 295 419 421
3 293 419 295
3 291 417 419
3 291 419 293
3 289 415 417
3 289 417 291
3 287 413 415
3 287 415 289
3 285 413 287
3 285 411 413
3 285 409 411
3 283 409 285
3 283 407 409
3 281 407 283
3 279 407 281
3 279 405 407
3 279 403 405
3 277 403 279
3 277 401 403
3 275 401 277
3 275 399 401
3 273 399 275
3 271 399 273
3 271 397 399
3 271 395 397
3 269 395 271
3 267 395 269
3 267 393 395
3 265 393 267
3 265 391 393
3 265 389 391
3 263 389 265
3 261 389 263
3 261 387 389
3 259 385 387
3 259 387 261
3 257 383 385
3 257 381 383
3 257 385 259
3 255 381 257
3 252 378 381
3 252 381 255
3 253 379 378
3 253 380 379
3 253 378 252
3 254 380 253
3 256 382 380
3 256 380 254
3 258 384 382
3 258 382 256
3 260 386 384
3 260 388 386
3 260 384 258
3 262 388 260
3 264 390 388
3 264 388 262
3 266 392 390
3 266 390 264
3 268 394 392
3 268 392 266
3 270 394 268
3 270 396 394
3 272 396 270
3 272 398 396
3 274 398 272
3 274 400 398
3 276 400 274
3 276 402 400
3 276 404 402
3 278 404 276
3 280 406 404
3 280 404 278
3 282 408 406
3 282 406 280
3 284 410 408
3 284 408 282
3 286 412 410
3 286 410 284
3 288 414 412
3 288 412 286
3 290 416 414
3 290 414 288
3 292 418 416
3 292 416 290
3 294 420 418
3 294 418 292
3 296 422 420
3 296 420 294
3 298 424 422
3 298 422 296
3 300 426 424
3 300 424 298
3 302 428 426
3 302 430 428
3 302 426 300
3 304 430 302
3 306 432 430
3 306 430 304
3 308 434 432
3 308 432 306
3 310 436 434
3 310 434 308
3 312 438 436
3 312 436 310
3 314 440 438
3 314 438 312
3 316 442 440
3 316 440 314
3 319 442 316
3 319 445 442
3 320 445 319
3 320 446 445
3 323 446 320
3 323 449 446
3 324 449 323
3 324 450 449
3 326 450 324
3 326 452 450
3 328 452 326
3 328 454 452
3 330 454 328
3 330 456 454
3 332 456 330
3 332 458 456
3 332 461 458
3 335 461 332
3 336 461 335
3 336 462 461
3 337 462 336
3 337 463 462
3 340 463 337
3 340 466 463
3 342 466 340
3 342 468 466
3 344 470 468
3 344 468 342
3 344 471 470
3 345 471 344
