OFF
504 1008 0
3.7453384399 0.1869220734 1.3999999762
3.7500000000 -0.0000000000 1.3999999762
3.7500000000 -0.0000000000 0.0000000000
3.7453384399 0.1869220734 0.0000000000
3.7313654423 0.3733794391 1.3999999762
3.7313654423 0.3733794391 0.0000000000
3.7081155777 0.5589085221 1.3999999762
3.7081155777 0.5589085221 0.0000000000
3.6756467819 0.7430480123 1.3999999762
3.6756467819 0.7430480123 0.0000000000
3.6340398788 0.9253402352 1.3999999762
3.6340398788 0.9253402352 0.0000000000
3.5833981037 1.1053318977 0.0000000000
3.5833981037 1.1053318977 1.3999999762
3.5238473415 1.2825754881 1.3999999762
3.5238473415 1.2825754881 0.0000000000
3.4555358887 1.4566304684 1.3999999762
3.4555358887 1.4566304684 0.0000000000
3.3786332607 1.6270639896 0.0000000000
3.3786332607 1.6270639896 1.3999999762
3.2933309078 1.7934523821 0.0000000000
3.2933309078 1.7934523821 1.3999999762
3.1998407841 1.9553819895 1.3999999762
3.1998407841 1.9553819895 0.0000000000
3.0983953476 2.1124501228 1.3999999762
3.0983953476 2.1124501228 0.0000000000
2.9892468452 2.2642664909 0.0000000000
2.9892468452 2.2642664909 1.3999999762
2.8726665974 2.4104535580 0.0000000000
2.8726665974 2.4104535580 1.3999999762
2.7489445210 2.5506477356 1.3999999762
2.7489445210 2.5506477356 0.0000000000
2.6183881760 2.6845006943 1.3999999762
2.6183881760 2.6845006943 0.0000000000
2.4813218117 2.8116796017 0.0000000000
2.4813218117 2.8116796017 1.3999999762
2.3380868435 2.9318680763 1.3999999762
2.3380868435 2.9318680763 0.0000000000
2.1890387535 3.0447676182 1.3999999762
2.1890387535 3.0447676182 0.0000000000
2.0345485210 3.1500971317 1.3999999762
2.0345485210 3.1500971317 0.0000000000
1.8750000000 3.2475953102 1.3999999762
1.8750000000 3.2475953102 0.0000000000
1.7107899189 3.3370192051 1.3999999762
1.7107899189 3.3370192051 0.0000000000
1.5423266888 3.4181468487 1.3999999762
1.5423266888 3.4181468487 0.0000000000
1.3700288534 3.4907765388 1.3999999762
1.3700288534 3.4907765388 0.0000000000
1.1943249702 3.5547275543 1.3999999762
1.1943249702 3.5547275543 0.0000000000
1.0156517029 3.6098408699 1.3999999762
1.0156517029 3.6098408699 0.0000000000
0.8344535232 3.6559796333 0.0000000000
0.8344535232 3.6559796333 1.3999999762
0.6511806846 3.6930291653 1.3999999762
0.6511806846 3.6930291653 0.0000000000
0.4662888944 3.7208969593 1.3999999762
0.4662888944 3.7208969593 0.0000000000
0.2802378535 3.7395143509 1.3999999762
0.2802378535 3.7395143509 0.0000000000
0.0934900939 3.7488343716 0.0000000000
0.0934900939 3.7488343716 1.3999999762
-0.0934900939 3.7488343716 1.3999999762
-0.0934900939 3.7488343716 0.0000000000
-0.2802378535 3.7395143509 1.3999999762
-0.2802378535 3.7395143509 0.0000000000
-0.4662888944 3.7208969593 1.3999999762
-0.4662888944 3.7208969593 0.0000000000
-0.6511806846 3.6930291653 1.3999999762
-0.6511806846 3.6930291653 0.0000000000
-0.8344535232 3.6559796333 0.0000000000
-0.8344535232 3.6559796333 1.3999999762
-1.0156517029 3.6098408699 1.3999999762
-1.0156517029 3.6098408699 0.0000000000
-1.1943249702 3.5547275543 1.3999999762
-1.1943249702 3.5547275543 0.0000000000
-1.3700288534 3.4907765388 1.3999999762
-1.3700288534 3.4907765388 0.0000000000
-1.5423266888 3.4181468487 1.3999999762
-1.5423266888 3.4181468487 0.0000000000
-1.7107899189 3.3370192051 1.3999999762
-1.7107899189 3.3370192051 0.0000000000
-1.8750000000 3.2475953102 1.3999999762
-1.8750000000 3.2475953102 0.0000000000
-2.0345485210 3.1500971317 1.3999999762
-2.0345485210 3.1500971317 0.0000000000
-2.1890387535 3.0447676182 1.3999999762
-2.1890387535 3.0447676182 0.0000000000
-2.3380868435 2.9318680763 1.3999999762
-2.3380868435 2.9318680763 0.0000000000
-2.4813218117 2.8116796017 1.3999999762
-2.4813218117 2.8116796017 0.0000000000
-2.6183881760 2.6845006943 1.3999999762
-2.6183881760 2.6845006943 0.0000000000
-2.7489445210 2.5506477356 1.3999999762
-2.7489445210 2.5506477356 0.0000000000
-2.8726665974 2.4104535580 0.0000000000
-2.8726665974 2.4104535580 1.3999999762
-2.9892468452 2.2642664909 1.3999999762
-2.9892468452 2.2642664909 0.0000000000
-3.0983953476 2.1124501228 1.3999999762
-3.0983953476 2.1124501228 0.0000000000
-3.1998407841 1.9553819895 1.3999999762
-3.1998407841 1.9553819895 0.0000000000
-3.2933309078 1.7934523821 1.3999999762
-3.2933309078 1.7934523821 0.0000000000
-3.3786332607 1.6270639896 1.3999999762
-3.3786332607 1.6270639896 0.0000000000
-3.4555358887 1.4566304684 1.3999999762
-3.4555358887 1.4566304684 0.0000000000
-3.5238473415 1.2825754881 1.3999999762
-3.5238473415 1.2825754881 0.0000000000
-3.5833981037 1.1053318977 1.3999999762
-3.5833981037 1.1053318977 0.0000000000
-3.6340398788 0.9253402352 1.3999999762
-3.6340398788 0.9253402352 0.0000000000
-3.6756467819 0.7430480123 1.3999999762
-3.6756467819 0.7430480123 0.0000000000
-3.7081155777 0.5589085221 1.3999999762
-3.7081155777 0.5589085221 0.0000000000
-3.7313654423 0.3733794391 1.3999999762
-3.7313654423 0.3733794391 0.0000000000
-3.7453384399 0.1869220734 1.3999999762
-3.7453384399 0.1869220734 0.0000000000
-3.7500000000 -0.0000000000 1.3999999762
-3.7500000000 -0.0000000000 0.0000000000
-3.7453384399 -0.1869220734 1.3999999762
-3.7453384399 -0.1869220734 0.0000000000
-3.7313654423 -0.3733794391 1.3999999762
-3.7313654423 -0.3733794391 0.0000000000
-3.7081155777 -0.5589085221 1.3999999762
-3.7081155777 -0.5589085221 0.0000000000
-3.6756467819 -0.7430480123 1.3999999762
-3.6756467819 -0.7430480123 0.0000000000
-3.6340398788 -0.9253402352 1.3999999762
-3.6340398788 -0.9253402352 0.0000000000
-3.5833981037 -1.1053318977 1.3999999762
-3.5833981037 -1.1053318977 0.0000000000
-3.5238473415 -1.2825754881 1.3999999762
-3.5238473415 -1.2825754881 0.0000000000
-3.4555358887 -1.4566304684 1.3999999762
-3.4555358887 -1.4566304684 0.0000000000
-3.3786332607 -1.6270639896 1.3999999762
-3.3786332607 -1.6270639896 0.0000000000
-3.2933309078 -1.7934523821 1.3999999762
-3.2933309078 -1.7934523821 0.0000000000
-3.1998407841 -1.9553819895 1.3999999762
-3.1998407841 -1.9553819895 0.0000000000
-3.0983953476 -2.1124501228 1.3999999762
-3.0983953476 -2.1124501228 0.0000000000
-2.9892468452 -2.2642664909 1.3999999762
-2.9892468452 -2.2642664909 0.0000000000
-2.8726665974 -2.4104535580 1.3999999762
-2.8726665974 -2.4104535580 0.0000000000
-2.7489445210 -2.5506477356 1.3999999762
-2.7489445210 -2.5506477356 0.0000000000
-2.6183881760 -2.6845006943 1.3999999762
-2.6183881760 -2.6845006943 0.0000000000
-2.4813218117 -2.8116796017 1.3999999762
-2.4813218117 -2.8116796017 0.0000000000
-2.3380868435 -2.9318680763 1.3999999762
-2.3380868435 -2.9318680763 0.0000000000
-2.1890387535 -3.0447676182 1.3999999762
-2.1890387535 -3.0447676182 0.0000000000
-2.0345485210 -3.1500971317 1.3999999762
-2.0345485210 -3.1500971317 0.0000000000
-1.8750000000 -3.2475953102 1.3999999762
-1.8750000000 -3.2475953102 0.0000000000
-1.7107899189 -3.3370192051 1.3999999762
-1.7107899189 -3.3370192051 0.0000000000
-1.5423266888 -3.4181468487 1.3999999762
-1.5423266888 -3.4181468487 0.0000000000
-1.3700288534 -3.4907765388 1.3999999762
-1.3700288534 -3.4907765388 0.0000000000
-1.1943249702 -3.5547275543 1.3999999762
-1.1943249702 -3.5547275543 0.0000000000
-1.0156517029 -3.6098408699 1.3999999762
-1.0156517029 -3.6098408699 0.0000000000
-0.8344535232 -3.6559796333 1.3999999762
-0.8344535232 -3.6559796333 0.0000000000
-0.6511806846 -3.6930291653 1.3999999762
-0.6511806846 -3.6930291653 0.0000000000
-0.4662888944 -3.7208969593 1.3999999762
-0.4662888944 -3.7208969593 0.0000000000
-0.2802378535 -3.7395143509 1.3999999762
-0.2802378535 -3.7395143509 0.0000000000
-0.0934900939 -3.7488343716 1.3999999762
-0.0934900939 -3.7488343716 0.0000000000
0.0934900939 -3.7488343716 1.3999999762
0.0934900939 -3.7488343716 0.0000000000
0.2802378535 -3.7395143509 1.3999999762
0.2802378535 -3.7395143509 0.0000000000
0.4662888944 -3.7208969593 1.3999999762
0.4662888944 -3.7208969593 0.0000000000
0.6511806846 -3.6930291653 1.3999999762
0.6511806846 -3.6930291653 0.0000000000
0.8344535232 -3.6559796333 1.3999999762
0.8344535232 -3.6559796333 0.0000000000
1.0156517029 -3.6098408699 1.3999999762
1.0156517029 -3.6098408699 0.0000000000
1.1943249702 -3.5547275543 1.3999999762
1.1943249702 -3.5547275543 0.0000000000
1.3700288534 -3.4907765388 1.3999999762
1.3700288534 -3.4907765388 0.0000000000
1.5423266888 -3.4181468487 0.0000000000
1.5423266888 -3.4181468487 1.3999999762
1.7107899189 -3.3370192051 1.3999999762
1.7107899189 -3.3370192051 0.0000000000
1.8750000000 -3.2475953102 1.3999999762
1.8750000000 -3.2475953102 0.0000000000
2.0345485210 -3.1500971317 1.3999999762
2.0345485210 -3.1500971317 0.0000000000
2.1890387535 -3.0447676182 1.3999999762
2.1890387535 -3.0447676182 0.0000000000
2.3380868435 -2.9318680763 1.3999999762
2.3380868435 -2.9318680763 0.0000000000
2.4813218117 -2.8116796017 1.3999999762
2.4813218117 -2.8116796017 0.0000000000
2.6183881760 -2.6845006943 1.3999999762
2.6183881760 -2.6845006943 0.0000000000
2.7489445210 -2.5506477356 1.3999999762
2.7489445210 -2.5506477356 0.0000000000
2.8726665974 -2.4104535580 1.3999999762
2.8726665974 -2.4104535580 0.0000000000
2.9892468452 -2.2642664909 1.3999999762
2.9892468452 -2.2642664909 0.0000000000
3.0983953476 -2.1124501228 1.3999999762
3.0983953476 -2.1124501228 0.0000000000
3.1998407841 -1.9553819895 0.0000000000
3.1998407841 -1.9553819895 1.3999999762
3.2933309078 -1.7934523821 1.3999999762
3.2933309078 -1.7934523821 0.0000000000
3.3786332607 -1.6270639896 0.0000000000
3.3786332607 -1.6270639896 1.3999999762
3.4555358887 -1.4566304684 1.3999999762
3.4555358887 -1.4566304684 0.0000000000
3.5238473415 -1.2825754881 1.3999999762
3.5238473415 -1.2825754881 0.0000000000
3.5833981037 -1.1053318977 1.3999999762
3.5833981037 -1.1053318977 0.0000000000
3.6340398788 -0.9253402352 0.0000000000
3.6340398788 -0.9253402352 1.3999999762
3.6756467819 -0.7430480123 1.3999999762
3.6756467819 -0.7430480123 0.0000000000
3.7081155777 -0.5589085221 1.3999999762
3.7081155777 -0.5589085221 0.0000000000
3.7313654423 -0.3733794391 1.3999999762
3.7313654423 -0.3733794391 0.0000000000
3.7453384399 -0.1869220734 1.3999999762
3.7453384399 -0.1869220734 0.0000000000
-1.9059348106 -1.7684490681 1.3999999762
-1.8154157400 -1.8612538576 1.3999999762
-1.7203831673 -1.9494311810 1.3999999762
-1.9917155504 -1.6712478399 1.3999999762
-1.6210734844 -2.0327618122 1.3999999762
-2.0725445747 -1.5698914528 1.3999999762
-1.5177335739 -2.1110389233 1.3999999762
-2.1482207775 -1.4646321535 1.3999999762
-1.4106203318 -2.1840674877 1.3999999762
-2.2185564041 -1.3557314873 1.3999999762
-1.2999999523 -2.2516660690 1.3999999762
-2.2833759785 -1.2434602976 1.3999999762
-1.1861476898 -2.3136668205 1.3999999762
-2.3425190449 -1.1280977726 1.3999999762
-1.0693464279 -2.3699152470 1.3999999762
-2.3958382607 -1.0099304914 1.3999999762
-0.9498866796 -2.4202716351 1.3999999762
-2.4432008266 -0.8892523646 1.3999999762
-0.8280652761 -2.4646110535 1.3999999762
-2.4844892025 -0.7663634419 1.3999999762
-0.7041851878 -2.5028231144 1.3999999762
-2.5196008682 -0.6415692568 1.3999999762
-0.5785544515 -2.5348126888 1.3999999762
-2.5484485626 -0.5151799917 1.3999999762
-0.4514852762 -2.5605001450 1.3999999762
-2.5709600449 -0.3875098825 1.3999999762
-0.3232936263 -2.5798218250 1.3999999762
-2.5870800018 -0.2588764131 1.3999999762
-0.1942982376 -2.5927298069 1.3999999762
-2.5967679024 -0.1295993030 1.3999999762
-0.0648197979 -2.5991919041 1.3999999762
-2.5999999046 -0.0000000000 1.3999999762
0.0648197979 -2.5991919041 1.3999999762
-2.5967679024 0.1295993030 1.3999999762
0.1942982376 -2.5927298069 1.3999999762
-2.5870800018 0.2588764131 1.3999999762
0.3232936263 -2.5798218250 1.3999999762
-2.5709600449 0.3875098825 1.3999999762
0.4514852762 -2.5605001450 1.3999999762
-2.5484485626 0.5151799917 1.3999999762
0.5785544515 -2.5348126888 1.3999999762
-2.5196008682 0.6415692568 1.3999999762
0.7041851878 -2.5028231144 1.3999999762
-2.4844892025 0.7663634419 1.3999999762
0.8280652761 -2.4646110535 1.3999999762
-2.4432008266 0.8892523646 1.3999999762
0.9498866796 -2.4202716351 1.3999999762
-2.3958382607 1.0099304914 1.3999999762
1.0693464279 -2.3699152470 1.3999999762
-2.3425190449 1.1280977726 1.3999999762
1.1861476898 -2.3136668205 1.3999999762
-2.2833759785 1.2434602976 1.3999999762
1.2999999523 -2.2516660690 1.3999999762
-2.2185564041 1.3557314873 1.3999999762
1.4106203318 -2.1840674877 1.3999999762
-2.1482207775 1.4646321535 1.3999999762
1.5177335739 -2.1110389233 1.3999999762
-2.0725445747 1.5698914528 1.3999999762
1.6210734844 -2.0327618122 1.3999999762
-1.9917155504 1.6712478399 1.3999999762
1.7203831673 -1.9494311810 1.3999999762
-1.9059348106 1.7684490681 1.3999999762
1.8154157400 -1.8612538576 1.3999999762
-1.8154157400 1.8612538576 1.3999999762
1.9059348106 -1.7684490681 1.3999999762
-1.7203831673 1.9494311810 1.3999999762
-1.6210734844 2.0327618122 1.3999999762
1.9917155504 -1.6712478399 1.3999999762
2.0725445747 -1.5698914528 1.3999999762
-1.5177335739 2.1110389233 1.3999999762
-1.4106203318 2.1840674877 1.3999999762
2.1482207775 -1.4646321535 1.3999999762
2.2185564041 -1.3557314873 1.3999999762
-1.2999999523 2.2516660690 1.3999999762
2.2833759785 -1.2434602976 1.3999999762
-1.1861476898 2.3136668205 1.3999999762
2.3425190449 -1.1280977726 1.3999999762
-1.0693464279 2.3699152470 1.3999999762
2.3958382607 -1.0099304914 1.3999999762
-0.9498866796 2.4202716351 1.3999999762
2.4432008266 -0.8892523646 1.3999999762
-0.8280652761 2.4646110535 1.3999999762
-0.7041851878 2.5028231144 1.3999999762
2.4844892025 -0.7663634419 1.3999999762
2.5196008682 -0.6415692568 1.3999999762
2.5484485626 -0.5151799917 1.3999999762
-0.5785544515 2.5348126888 1.3999999762
-0.4514852762 2.5605001450 1.3999999762
2.5709600449 -0.3875098825 1.3999999762
-0.3232936263 2.5798218250 1.3999999762
2.5870800018 -0.2588764131 1.3999999762
-0.1942982376 2.5927298069 1.3999999762
2.5967679024 -0.1295993030 1.3999999762
2.5999999046 -0.0000000000 1.3999999762
-0.0648197979 2.5991919041 1.3999999762
0.0648197979 2.5991919041 1.3999999762
2.5967679024 0.1295993030 1.3999999762
0.1942982376 2.5927298069 1.3999999762
2.5870800018 0.2588764131 1.3999999762
0.3232936263 2.5798218250 1.3999999762
0.4514852762 2.5605001450 1.3999999762
2.5709600449 0.3875098825 1.3999999762
2.5484485626 0.5151799917 1.3999999762
2.5196008682 0.6415692568 1.3999999762
0.5785544515 2.5348126888 1.3999999762
2.4844892025 0.7663634419 1.3999999762
0.7041851878 2.5028231144 1.3999999762
0.8280652761 2.4646110535 1.3999999762
2.4432008266 0.8892523646 1.3999999762
0.9498866796 2.4202716351 1.3999999762
1.0693464279 2.3699152470 1.3999999762
2.3958382607 1.0099304914 1.3999999762
2.3425190449 1.1280977726 1.3999999762
2.2833759785 1.2434602976 1.3999999762
1.1861476898 2.3136668205 1.3999999762
1.2999999523 2.2516660690 1.3999999762
2.2185564041 1.3557314873 1.3999999762
1.4106203318 2.1840674877 1.3999999762
1.5177335739 2.1110389233 1.3999999762
2.1482207775 1.4646321535 1.3999999762
2.0725445747 1.5698914528 1.3999999762
1.9917155504 1.6712478399 1.3999999762
1.6210734844 2.0327618122 1.3999999762
1.7203831673 1.9494311810 1.3999999762
1.9059348106 1.7684490681 1.3999999762
1.8154157400 1.8612538576 1.3999999762
-1.9059348106 -1.7684490681 0.0000000000
-1.8154157400 -1.8612538576 0.0000000000
-1.7203831673 -1.9494311810 0.0000000000
-1.9917155504 -1.6712478399 0.0000000000
-1.6210734844 -2.0327618122 0.0000000000
-2.0725445747 -1.5698914528 0.0000000000
-1.5177335739 -2.1110389233 0.0000000000
-2.1482207775 -1.4646321535 0.0000000000
-1.4106203318 -2.1840674877 0.0000000000
-2.2185564041 -1.3557314873 0.0000000000
-1.2999999523 -2.2516660690 0.0000000000
-2.2833759785 -1.2434602976 0.0000000000
-1.1861476898 -2.3136668205 0.0000000000
-2.3425190449 -1.1280977726 0.0000000000
-1.0693464279 -2.3699152470 0.0000000000
-2.3958382607 -1.0099304914 0.0000000000
-0.9498866796 -2.4202716351 0.0000000000
-2.4432008266 -0.8892523646 0.0000000000
-0.8280652761 -2.4646110535 0.0000000000
-2.4844892025 -0.7663634419 0.0000000000
-0.7041851878 -2.5028231144 0.0000000000
-2.5196008682 -0.6415692568 0.0000000000
-0.5785544515 -2.5348126888 0.0000000000
-2.5484485626 -0.5151799917 0.0000000000
-0.4514852762 -2.5605001450 0.0000000000
-2.5709600449 -0.3875098825 0.0000000000
-0.3232936263 -2.5798218250 0.0000000000
-2.5870800018 -0.2588764131 0.0000000000
-0.1942982376 -2.5927298069 0.0000000000
-2.5967679024 -0.1295993030 0.0000000000
-0.0648197979 -2.5991919041 0.0000000000
-2.5999999046 -0.0000000000 0.0000000000
0.0648197979 -2.5991919041 0.0000000000
-2.5967679024 0.1295993030 0.0000000000
0.1942982376 -2.5927298069 0.0000000000
-2.5870800018 0.2588764131 0.0000000000
0.3232936263 -2.5798218250 0.0000000000
-2.5709600449 0.3875098825 0.0000000000
0.4514852762 -2.5605001450 0.0000000000
-2.5484485626 0.5151799917 0.0000000000
0.5785544515 -2.5348126888 0.0000000000
-2.5196008682 0.6415692568 0.0000000000
0.7041851878 -2.5028231144 0.0000000000
-2.4844892025 0.7663634419 0.0000000000
0.8280652761 -2.4646110535 0.0000000000
-2.4432008266 0.8892523646 0.0000000000
0.9498866796 -2.4202716351 0.0000000000
-2.3958382607 1.0099304914 0.0000000000
1.0693464279 -2.3699152470 0.0000000000
-2.3425190449 1.1280977726 0.0000000000
1.1861476898 -2.3136668205 0.0000000000
-2.2833759785 1.2434602976 0.0000000000
1.2999999523 -2.2516660690 0.0000000000
-2.2185564041 1.3557314873 0.0000000000
1.4106203318 -2.1840674877 0.0000000000
-2.1482207775 1.4646321535 0.0000000000
1.5177335739 -2.1110389233 0.0000000000
-2.0725445747 1.5698914528 0.0000000000
1.6210734844 -2.0327618122 0.0000000000
-1.9917155504 1.6712478399 0.0000000000
1.7203831673 -1.9494311810 0.0000000000
-1.9059348106 1.7684490681 0.0000000000
1.8154157400 -1.8612538576 0.0000000000
-1.8154157400 1.8612538576 0.0000000000
1.9059348106 -1.7684490681 0.0000000000
-1.7203831673 1.9494311810 0.0000000000
-1.6210734844 2.0327618122 0.0000000000
1.9917155504 -1.6712478399 0.0000000000
2.0725445747 -1.5698914528 0.0000000000
-1.4106203318 2.1840674877 0.0000000000
-1.5177335739 2.1110389233 0.0000000000
2.1482207775 -1.4646321535 0.0000000000
2.2185564041 -1.3557314873 0.0000000000
-1.2999999523 2.2516660690 0.0000000000
2.2833759785 -1.2434602976 0.0000000000
-1.1861476898 2.3136668205 0.0000000000
2.3425190449 -1.1280977726 0.0000000000
-1.0693464279 2.3699152470 0.0000000000
2.3958382607 -1.0099304914 0.0000000000
-0.9498866796 2.4202716351 0.0000000000
2.4432008266 -0.8892523646 0.0000000000
-0.7041851878 2.5028231144 0.0000000000
-0.8280652761 2.4646110535 0.0000000000
2.4844892025 -0.7663634419 0.0000000000
2.5196008682 -0.6415692568 0.0000000000
2.5484485626 -0.5151799917 0.0000000000
-0.4514852762 2.5605001450 0.0000000000
-0.5785544515 2.5348126888 0.0000000000
2.5709600449 -0.3875098825 0.0000000000
-0.3232936263 2.5798218250 0.0000000000
2.5870800018 -0.2588764131 0.0000000000
-0.1942982376 2.5927298069 0.0000000000
2.5967679024 -0.1295993030 0.0000000000
2.5999999046 -0.0000000000 0.0000000000
-0.0648197979 2.5991919041 0.0000000000
0.0648197979 2.5991919041 0.0000000000
2.5967679024 0.1295993030 0.0000000000
0.1942982376 2.5927298069 0.0000000000
2.5870800018 0.2588764131 0.0000000000
0.4514852762 2.5605001450 0.0000000000
0.3232936263 2.5798218250 0.0000000000
2.5709600449 0.3875098825 0.0000000000
2.5484485626 0.5151799917 0.0000000000
2.5196008682 0.6415692568 0.0000000000
0.5785544515 2.5348126888 0.0000000000
2.4844892025 0.7663634419 0.0000000000
0.7041851878 2.5028231144 0.0000000000
0.8280652761 2.4646110535 0.0000000000
2.4432008266 0.8892523646 0.0000000000
1.0693464279 2.3699152470 0.0000000000
0.9498866796 2.4202716351 0.0000000000
2.3958382607 1.0099304914 0.0000000000
2.3425190449 1.1280977726 0.0000000000
2.2833759785 1.2434602976 0.0000000000
1.2999999523 2.2516660690 0.0000000000
1.1861476898 2.3136668205 0.0000000000
2.2185564041 1.3557314873 0.0000000000
1.5177335739 2.1110389233 0.0000000000
1.4106203318 2.1840674877 0.0000000000
2.1482207775 1.4646321535 0.0000000000
2.0725445747 1.5698914528 0.0000000000
1.9917155504 1.6712478399 0.0000000000
1.6210734844 2.0327618122 0.0000000000
1.7203831673 1.9494311810 0.0000000000
1.9059348106 1.7684490681 0.0000000000
1.8154157400 1.8612538576 0.0000000000
3 0 1 2
3 0 2 3
3 4 3 5
3 4 0 3
3 6 5 7
3 6 4 5
3 8 7 9
3 8 6 7
3 10 9 11
3 10 11 12
3 10 8 9
3 13 10 12
3 14 12 15
3 14 13 12
3 16 15 17
3 16 17 18
3 16 14 15
3 19 18 20
3 19 16 18
3 21 19 20
3 22 21 20
3 22 20 23
3 24 22 23
3 24 23 25
3 24 25 26
3 27 24 26
3 27 26 28
3 29 27 28
3 30 29 28
3 30 28 31
3 32 30 31
3 32 31 33
3 32 33 34
3 35 32 34
3 36 35 34
3 36 34 37
3 38 36 37
3 38 37 39
3 40 38 39
3 40 39 41
3 42 40 41
3 42 41 43
3 44 42 43
3 44 43 45
3 46 45 47
3 46 44 45
3 48 47 49
3 48 46 47
3 50 49 51
3 50 48 49
3 52 51 53
3 52 53 54
3 52 50 51
3 55 52 54
3 56 54 57
3 56 55 54
3 58 57 59
3 58 56 57
3 60 59 61
3 60 61 62
3 60 58 59
3 63 60 62
3 64 62 65
3 64 63 62
3 66 65 67
3 66 64 65
3 68 67 69
3 68 66 67
3 70 69 71
3 70 71 72
3 70 68 69
3 73 70 72
3 74 73 72
3 74 72 75
3 76 74 75
3 76 75 77
3 78 76 77
3 78 77 79
3 80 78 79
3 80 79 81
3 82 80 81
3 82 81 83
3 84 82 83
3 84 83 85
3 86 84 85
3 86 85 87
3 88 86 87
3 88 87 89
3 90 88 89
3 90 89 91
3 92 90 91
3 92 91 93
3 94 92 93
3 94 93 95
3 96 94 95
3 96 95 97
3 96 97 98
3 99 96 98
3 100 99 98
3 100 98 101
3 102 100 101
3 102 101 103
3 104 102 103
3 104 103 105
3 106 104 105
3 106 105 107
3 108 106 107
3 108 107 109
3 110 108 109
3 110 109 111
3 112 110 111
3 112 111 113
3 114 112 113
3 114 113 115
3 116 115 117
3 116 114 115
3 118 117 119
3 118 116 117
3 120 119 121
3 120 118 119
3 122 121 123
3 122 120 121
3 124 122 123
3 124 123 125
3 126 124 125
3 126 125 127
3 128 126 127
3 128 127 129
3 130 128 129
3 130 129 131
3 132 130 131
3 132 131 133
3 134 132 133
3 134 133 135
3 136 134 135
3 136 135 137
3 138 136 137
3 138 137 139
3 140 138 139
3 140 139 141
3 142 140 141
3 142 141 143
3 144 142 143
3 144 143 145
3 146 144 145
3 146 145 147
3 148 146 147
3 148 147 149
3 150 149 151
3 150 148 149
3 152 151 153
3 152 150 151
3 154 153 155
3 154 152 153
3 156 155 157
3 156 154 155
3 158 157 159
3 158 156 157
3 160 159 161
3 160 158 159
3 162 161 163
3 162 160 161
3 164 163 165
3 164 162 163
3 166 165 167
3 166 164 165
3 168 167 169
3 168 166 167
3 170 169 171
3 170 168 169
3 172 171 173
3 172 170 171
3 174 173 175
3 174 172 173
3 176 174 175
3 176 175 177
3 178 176 177
3 178 177 179
3 180 178 179
3 180 179 181
3 182 180 181
3 182 181 183
3 184 183 185
3 184 182 183
3 186 185 187
3 186 184 185
3 188 187 189
3 188 186 187
3 190 189 191
3 190 188 189
3 192 191 193
3 192 190 191
3 194 193 195
3 194 192 193
3 196 195 197
3 196 194 195
3 198 197 199
3 198 196 197
3 200 199 201
3 200 198 199
3 202 201 203
3 202 200 201
3 204 203 205
3 204 205 206
3 204 202 203
3 207 204 206
3 208 206 209
3 208 207 206
3 210 209 211
3 210 208 209
3 212 211 213
3 212 210 211
3 214 213 215
3 214 212 213
3 216 215 217
3 216 214 215
3 218 217 219
3 218 216 217
3 220 219 221
3 220 218 219
3 222 221 223
3 222 220 221
3 224 222 223
3 224 223 225
3 226 224 225
3 226 225 227
3 228 226 227
3 228 227 229
3 228 229 230
3 231 228 230
3 232 231 230
3 232 230 233
3 232 233 234
3 235 232 234
3 236 235 234
3 236 234 237
3 238 236 237
3 238 237 239
3 240 238 239
3 240 239 241
3 240 241 242
3 243 240 242
3 244 243 242
3 244 242 245
3 246 244 245
3 246 245 247
3 248 246 247
3 248 247 249
3 250 249 251
3 250 248 249
3 1 251 2
3 1 250 251
3 252 158 253
3 252 156 158
3 254 253 158
3 254 158 160
3 255 156 252
3 255 154 156
3 256 254 160
3 256 160 162
3 257 154 255
3 257 152 154
3 258 256 162
3 258 162 164
3 259 152 257
3 259 150 152
3 260 258 164
3 260 164 166
3 261 150 259
3 261 148 150
3 262 260 166
3 262 166 168
3 263 148 261
3 263 146 148
3 264 262 168
3 264 168 170
3 265 146 263
3 265 142 144
3 265 144 146
3 266 264 170
3 266 170 172
3 267 142 265
3 268 266 172
3 268 172 174
3 269 142 267
3 269 140 142
3 270 268 174
3 270 174 176
3 271 140 269
3 271 138 140
3 272 270 176
3 272 176 178
3 272 178 180
3 273 138 271
3 273 136 138
3 274 272 180
3 274 180 182
3 275 132 134
3 275 134 136
3 275 136 273
3 276 274 182
3 277 132 275
3 278 276 182
3 278 182 184
3 278 184 186
3 279 132 277
3 279 130 132
3 280 278 186
3 281 126 128
3 281 128 130
3 281 130 279
3 282 280 186
3 282 186 188
3 282 188 190
3 283 126 281
3 284 282 190
3 285 124 126
3 285 126 283
3 286 284 190
3 286 190 192
3 287 122 124
3 287 124 285
3 288 286 192
3 288 192 194
3 289 120 122
3 289 122 287
3 290 288 194
3 290 194 196
3 291 118 120
3 291 120 289
3 292 290 196
3 292 196 198
3 293 116 118
3 293 118 291
3 294 292 198
3 294 198 200
3 295 116 293
3 295 114 116
3 296 200 202
3 296 294 200
3 297 114 295
3 297 112 114
3 298 202 204
3 298 296 202
3 299 112 297
3 299 110 112
3 300 204 207
3 300 298 204
3 301 110 299
3 301 108 110
3 302 207 208
3 302 300 207
3 303 108 301
3 303 106 108
3 304 208 210
3 304 210 212
3 304 302 208
3 305 106 303
3 305 102 104
3 305 104 106
3 306 304 212
3 307 102 305
3 308 212 214
3 308 306 212
3 309 100 102
3 309 102 307
3 99 100 309
3 310 214 216
3 310 308 214
3 218 310 216
3 311 99 309
3 312 310 218
3 313 96 99
3 313 99 311
3 314 218 220
3 314 312 218
3 315 96 313
3 94 96 315
3 316 314 220
3 222 316 220
3 92 94 315
3 92 315 317
3 318 92 317
3 224 316 222
3 224 319 316
3 320 319 224
3 90 92 318
3 226 320 224
3 88 90 318
3 88 321 322
3 88 318 321
3 228 323 320
3 228 324 323
3 228 320 226
3 86 88 322
3 231 324 228
3 84 86 322
3 84 322 325
3 232 326 324
3 232 324 231
3 82 84 325
3 82 325 327
3 235 326 232
3 235 328 326
3 80 327 329
3 80 82 327
3 236 328 235
3 236 330 328
3 78 329 331
3 78 80 329
3 238 332 330
3 238 330 236
3 76 333 334
3 76 331 333
3 76 78 331
3 240 335 332
3 240 332 238
3 74 76 334
3 243 336 335
3 243 337 336
3 243 335 240
3 73 74 334
3 73 338 339
3 73 334 338
3 244 337 243
3 70 73 339
3 246 337 244
3 246 340 337
3 68 70 339
3 68 339 341
3 248 340 246
3 248 342 340
3 66 68 341
3 66 341 343
3 250 342 248
3 250 344 342
3 250 345 344
3 64 343 346
3 64 66 343
3 1 345 250
3 63 346 347
3 63 64 346
3 0 348 345
3 0 345 1
3 60 347 349
3 60 63 347
3 4 350 348
3 4 348 0
3 58 351 352
3 58 349 351
3 58 60 349
3 6 353 350
3 6 354 353
3 6 350 4
3 56 58 352
3 8 355 354
3 8 354 6
3 55 56 352
3 55 352 356
3 10 357 355
3 10 355 8
3 52 55 356
3 52 356 358
3 13 357 10
3 50 52 358
3 50 358 359
3 14 360 357
3 14 357 13
3 48 50 359
3 48 361 362
3 48 359 361
3 16 360 14
3 16 363 360
3 46 48 362
3 19 363 16
3 19 364 363
3 19 365 364
3 44 46 362
3 44 366 367
3 44 362 366
3 21 365 19
3 42 44 367
3 22 365 21
3 22 368 365
3 40 42 367
3 40 369 370
3 40 367 369
3 24 368 22
3 24 371 368
3 38 40 370
3 27 371 24
3 27 372 371
3 27 373 372
3 36 38 370
3 36 370 374
3 29 373 27
3 35 374 375
3 35 36 374
3 30 376 373
3 30 377 376
3 30 373 29
3 32 375 377
3 32 35 375
3 32 377 30
3 378 379 159
3 378 159 157
3 380 159 379
3 380 161 159
3 381 378 157
3 381 157 155
3 382 161 380
3 382 163 161
3 383 381 155
3 383 155 153
3 384 163 382
3 384 165 163
3 385 383 153
3 385 153 151
3 386 165 384
3 386 167 165
3 387 385 151
3 387 151 149
3 388 167 386
3 388 169 167
3 389 387 149
3 389 149 147
3 390 169 388
3 390 171 169
3 391 389 147
3 391 145 143
3 391 147 145
3 392 171 390
3 392 173 171
3 393 391 143
3 394 173 392
3 394 175 173
3 395 393 143
3 395 143 141
3 396 175 394
3 396 177 175
3 397 395 141
3 397 141 139
3 398 177 396
3 398 179 177
3 398 181 179
3 399 397 139
3 399 139 137
3 400 181 398
3 400 183 181
3 401 135 133
3 401 137 135
3 401 399 137
3 402 183 400
3 403 401 133
3 404 183 402
3 404 185 183
3 404 187 185
3 405 403 133
3 405 133 131
3 406 187 404
3 407 129 127
3 407 131 129
3 407 405 131
3 408 187 406
3 408 189 187
3 408 191 189
3 409 407 127
3 410 191 408
3 411 127 125
3 411 409 127
3 412 191 410
3 412 193 191
3 413 125 123
3 413 411 125
3 414 193 412
3 414 195 193
3 415 123 121
3 415 413 123
3 416 195 414
3 416 197 195
3 417 121 119
3 417 415 121
3 418 197 416
3 418 199 197
3 419 119 117
3 419 417 119
3 420 199 418
3 420 201 199
3 421 419 117
3 421 117 115
3 422 203 201
3 422 201 420
3 423 421 115
3 423 115 113
3 424 205 203
3 424 203 422
3 425 423 113
3 425 113 111
3 426 206 205
3 426 205 424
3 427 425 111
3 427 111 109
3 428 209 206
3 428 206 426
3 429 427 109
3 429 109 107
3 430 211 209
3 430 213 211
3 430 209 428
3 431 429 107
3 431 105 103
3 431 107 105
3 432 213 430
3 433 431 103
3 434 215 213
3 434 213 432
3 435 103 101
3 435 433 103
3 98 435 101
3 436 217 215
3 436 215 434
3 219 217 436
3 437 435 98
3 438 219 436
3 439 98 97
3 439 437 98
3 440 221 219
3 440 219 438
3 441 439 97
3 95 441 97
3 442 221 440
3 223 221 442
3 93 441 95
3 93 443 441
3 444 443 93
3 225 223 442
3 225 442 445
3 446 225 445
3 91 444 93
3 227 225 446
3 89 444 91
3 89 447 448
3 89 448 444
3 229 446 449
3 229 449 450
3 229 227 446
3 87 447 89
3 230 229 450
3 85 447 87
3 85 451 447
3 233 450 452
3 233 230 450
3 83 451 85
3 83 453 451
3 234 233 452
3 234 452 454
3 81 455 453
3 81 453 83
3 237 234 454
3 237 454 456
3 79 457 455
3 79 455 81
3 239 456 458
3 239 237 456
3 77 459 460
3 77 460 457
3 77 457 79
3 241 458 461
3 241 239 458
3 75 459 77
3 242 461 462
3 242 462 463
3 242 241 461
3 72 459 75
3 72 464 465
3 72 465 459
3 245 242 463
3 71 464 72
3 247 245 463
3 247 463 466
3 69 464 71
3 69 467 464
3 249 247 466
3 249 466 468
3 67 467 69
3 67 469 467
3 251 249 468
3 251 468 470
3 251 470 471
3 65 472 469
3 65 469 67
3 2 251 471
3 62 473 472
3 62 472 65
3 3 471 474
3 3 2 471
3 61 475 473
3 61 473 62
3 5 474 476
3 5 3 474
3 59 477 478
3 59 478 475
3 59 475 61
3 7 476 479
3 7 479 480
3 7 5 476
3 57 477 59
3 9 480 481
3 9 7 480
3 54 477 57
3 54 482 477
3 11 481 483
3 11 9 481
3 53 482 54
3 53 484 482
3 12 11 483
3 51 484 53
3 51 485 484
3 15 483 486
3 15 12 483
3 49 485 51
3 49 487 488
3 49 488 485
3 17 15 486
3 17 486 489
3 47 487 49
3 18 17 489
3 18 489 490
3 18 490 491
3 45 487 47
3 45 492 493
3 45 493 487
3 20 18 491
3 43 492 45
3 23 20 491
3 23 491 494
3 41 492 43
3 41 495 496
3 41 496 492
3 25 23 494
3 25 494 497
3 39 495 41
3 26 25 497
3 26 497 498
3 26 498 499
3 37 495 39
3 37 500 495
3 28 26 499
3 34 501 500
3 34 500 37
3 31 499 502
3 31 502 503
3 31 28 499
3 33 503 501
3 33 501 34
3 33 31 503
3 348 471 345
3 348 474 471
3 350 476 474
3 350 474 348
3 353 479 476
3 353 476 350
3 354 480 479
3 354 479 353
3 355 481 480
3 355 483 481
3 355 480 354
3 357 483 355
3 360 486 483
3 360 483 357
3 363 489 486
3 363 490 489
3 363 486 360
3 364 491 490
3 364 490 363
3 365 491 364
3 368 491 365
3 368 494 491
3 371 494 368
3 371 497 494
3 371 498 497
3 372 498 371
3 372 499 498
3 373 499 372
3 376 499 373
3 376 502 499
3 377 502 376
3 377 503 502
3 377 501 503
3 375 501 377
3 374 501 375
3 374 500 501
3 370 500 374
3 370 495 500
3 369 495 370
3 369 496 495
3 367 496 369
3 367 492 496
3 366 492 367
3 366 493 492
3 362 487 493
3 362 493 366
3 361 488 487
3 361 487 362
3 359 485 488
3 359 488 361
3 358 484 485
3 358 482 484
3 358 485 359
3 356 482 358
3 352 477 482
3 352 482 356
3 351 478 477
3 351 477 352
3 349 475 478
3 349 473 475
3 349 478 351
3 347 473 349
3 346 472 473
3 346 473 347
3 343 469 472
3 343 472 346
3 341 467 469
3 341 469 343
3 339 464 467
3 339 465 464
3 339 467 341
3 338 465 339
3 334 465 338
3 334 459 465
3 333 459 334
3 333 460 459
3 331 460 333
3 331 457 460
3 329 457 331
3 329 455 457
3 327 455 329
3 327 453 455
3 325 453 327
3 325 451 453
3 322 451 325
3 322 447 451
3 321 447 322
3 321 448 447
3 318 448 321
3 318 444 448
3 317 444 318
3 317 443 444
3 315 443 317
3 315 441 443
3 313 441 315
3 313 439 441
3 313 437 439
3 311 437 313
3 309 437 311
3 309 435 437
3 307 435 309
3 307 433 435
3 305 433 307
3 305 431 433
3 303 431 305
3 303 429 431
3 301 429 303
3 301 427 429
3 299 427 301
3 299 425 427
3 297 425 299
3 297 423 425
3 295 423 297
3 295 421 423
3 293 419 421
3 293 421 295
3 291 417 419
3 291 419 293
3 289 415 417
3 289 417 291
3 287 413 415
3 287 415 289
3 285 413 287
3 285 411 413
3 283 411 285
3 283 409 411
3 281 409 283
3 281 407 409
3 279 407 281
3 279 405 407
3 277 405 279
3 277 403 405
3 275 403 277
3 275 401 403
3 273 401 275
3 273 399 401
3 271 399 273
3 271 397 399
3 269 397 271
3 269 395 397
3 267 395 269
3 267 393 395
3 265 393 267
3 265 391 393
3 263 391 265
3 263 389 391
3 261 389 263
3 261 387 389
3 259 385 387
3 259 387 261
3 257 383 385
3 257 385 259
3 255 381 383
3 255 383 257
3 252 378 381
3 252 381 255
3 253 379 378
3 253 378 252
3 254 380 379
3 254 379 253
3 256 382 380
3 256 380 254
3 258 384 382
3 258 382 256
3 260 386 384
3 260 384 258
3 262 388 386
3 262 386 260
3 264 390 388
3 264 388 262
3 266 392 390
3 266 390 264
3 268 394 392
3 268 392 266
3 270 394 268
3 270 396 394
3 272 396 270
3 272 398 396
3 274 398 272
3 274 400 398
3 276 400 274
3 276 402 400
3 278 404 402
3 278 402 276
3 280 406 404
3 280 404 278
3 282 408 406
3 282 406 280
3 284 410 408
3 284 408 282
3 286 412 410
3 286 410 284
3 288 414 412
3 288 412 286
3 290 416 414
3 290 414 288
3 292 418 416
3 292 416 290
3 294 420 418
3 294 418 292
3 296 422 420
3 296 420 294
3 298 424 422
3 298 426 424
3 298 422 296
3 300 426 298
3 302 428 426
3 302 426 300
3 304 430 428
3 304 428 302
3 306 432 430
3 306 430 304
3 308 434 432
3 308 432 306
3 310 436 434
3 310 434 308
3 312 438 436
3 312 436 310
3 314 440 438
3 314 438 312
3 316 442 440
3 316 440 314
3 319 442 316
3 319 445 442
3 320 445 319
3 320 446 445
3 323 446 320
3 323 449 446
3 323 450 449
3 324 450 323
3 326 450 324
3 326 452 450
3 326 454 452
3 328 454 326
3 330 454 328
3 330 456 454
3 332 456 330
3 332 458 456
3 335 458 332
3 335 461 458
3 335 462 461
3 336 462 335
3 337 462 336
3 337 463 462
3 340 463 337
3 340 466 463
3 342 466 340
3 342 468 466
3 344 470 468
3 344 468 342
3 345 471 470
3 345 470 344
