# https://github.com/mikedh/trimesh

o printed_idler_inner_spacer.stl
v 3.74533844 0.18692207 1.39999998
v 3.75000000 -0.00000000 1.39999998
v 3.75000000 -0.00000000 0.00000000
v 3.74533844 0.18692207 0.00000000
v 3.73136544 0.37337944 1.39999998
v 3.73136544 0.37337944 0.00000000
v 3.70811558 0.55890852 1.39999998
v 3.70811558 0.55890852 0.00000000
v 3.67564678 0.74304801 1.39999998
v 3.67564678 0.74304801 0.00000000
v 3.63403988 0.92534024 1.39999998
v 3.63403988 0.92534024 0.00000000
v 3.58339810 1.10533190 0.00000000
v 3.58339810 1.10533190 1.39999998
v 3.52384734 1.28257549 1.39999998
v 3.52384734 1.28257549 0.00000000
v 3.45553589 1.45663047 1.39999998
v 3.45553589 1.45663047 0.00000000
v 3.37863326 1.62706399 0.00000000
v 3.37863326 1.62706399 1.39999998
v 3.29333091 1.79345238 0.00000000
v 3.29333091 1.79345238 1.39999998
v 3.19984078 1.95538199 1.39999998
v 3.19984078 1.95538199 0.00000000
v 3.09839535 2.11245012 1.39999998
v 3.09839535 2.11245012 0.00000000
v 2.98924685 2.26426649 0.00000000
v 2.98924685 2.26426649 1.39999998
v 2.87266660 2.41045356 0.00000000
v 2.87266660 2.41045356 1.39999998
v 2.74894452 2.55064774 1.39999998
v 2.74894452 2.55064774 0.00000000
v 2.61838818 2.68450069 1.39999998
v 2.61838818 2.68450069 0.00000000
v 2.48132181 2.81167960 0.00000000
v 2.48132181 2.81167960 1.39999998
v 2.33808684 2.93186808 1.39999998
v 2.33808684 2.93186808 0.00000000
v 2.18903875 3.04476762 1.39999998
v 2.18903875 3.04476762 0.00000000
v 2.03454852 3.15009713 1.39999998
v 2.03454852 3.15009713 0.00000000
v 1.87500000 3.24759531 1.39999998
v 1.87500000 3.24759531 0.00000000
v 1.71078992 3.33701921 1.39999998
v 1.71078992 3.33701921 0.00000000
v 1.54232669 3.41814685 1.39999998
v 1.54232669 3.41814685 0.00000000
v 1.37002885 3.49077654 1.39999998
v 1.37002885 3.49077654 0.00000000
v 1.19432497 3.55472755 1.39999998
v 1.19432497 3.55472755 0.00000000
v 1.01565170 3.60984087 1.39999998
v 1.01565170 3.60984087 0.00000000
v 0.83445352 3.65597963 0.00000000
v 0.83445352 3.65597963 1.39999998
v 0.65118068 3.69302917 1.39999998
v 0.65118068 3.69302917 0.00000000
v 0.46628889 3.72089696 1.39999998
v 0.46628889 3.72089696 0.00000000
v 0.28023785 3.73951435 1.39999998
v 0.28023785 3.73951435 0.00000000
v 0.09349009 3.74883437 0.00000000
v 0.09349009 3.74883437 1.39999998
v -0.09349009 3.74883437 1.39999998
v -0.09349009 3.74883437 0.00000000
v -0.28023785 3.73951435 1.39999998
v -0.28023785 3.73951435 0.00000000
v -0.46628889 3.72089696 1.39999998
v -0.46628889 3.72089696 0.00000000
v -0.65118068 3.69302917 1.39999998
v -0.65118068 3.69302917 0.00000000
v -0.83445352 3.65597963 0.00000000
v -0.83445352 3.65597963 1.39999998
v -1.01565170 3.60984087 1.39999998
v -1.01565170 3.60984087 0.00000000
v -1.19432497 3.55472755 1.39999998
v -1.19432497 3.55472755 0.00000000
v -1.37002885 3.49077654 1.39999998
v -1.37002885 3.49077654 0.00000000
v -1.54232669 3.41814685 1.39999998
v -1.54232669 3.41814685 0.00000000
v -1.71078992 3.33701921 1.39999998
v -1.71078992 3.33701921 0.00000000
v -1.87500000 3.24759531 1.39999998
v -1.87500000 3.24759531 0.00000000
v -2.03454852 3.15009713 1.39999998
v -2.03454852 3.15009713 0.00000000
v -2.18903875 3.04476762 1.39999998
v -2.18903875 3.04476762 0.00000000
v -2.33808684 2.93186808 1.39999998
v -2.33808684 2.93186808 0.00000000
v -2.48132181 2.81167960 1.39999998
v -2.48132181 2.81167960 0.00000000
v -2.61838818 2.68450069 1.39999998
v -2.61838818 2.68450069 0.00000000
v -2.74894452 2.55064774 1.39999998
v -2.74894452 2.55064774 0.00000000
v -2.87266660 2.41045356 0.00000000
v -2.87266660 2.41045356 1.39999998
v -2.98924685 2.26426649 1.39999998
v -2.98924685 2.26426649 0.00000000
v -3.09839535 2.11245012 1.39999998
v -3.09839535 2.11245012 0.00000000
v -3.19984078 1.95538199 1.39999998
v -3.19984078 1.95538199 0.00000000
v -3.29333091 1.79345238 1.39999998
v -3.29333091 1.79345238 0.00000000
v -3.37863326 1.62706399 1.39999998
v -3.37863326 1.62706399 0.00000000
v -3.45553589 1.45663047 1.39999998
v -3.45553589 1.45663047 0.00000000
v -3.52384734 1.28257549 1.39999998
v -3.52384734 1.28257549 0.00000000
v -3.58339810 1.10533190 1.39999998
v -3.58339810 1.10533190 0.00000000
v -3.63403988 0.92534024 1.39999998
v -3.63403988 0.92534024 0.00000000
v -3.67564678 0.74304801 1.39999998
v -3.67564678 0.74304801 0.00000000
v -3.70811558 0.55890852 1.39999998
v -3.70811558 0.55890852 0.00000000
v -3.73136544 0.37337944 1.39999998
v -3.73136544 0.37337944 0.00000000
v -3.74533844 0.18692207 1.39999998
v -3.74533844 0.18692207 0.00000000
v -3.75000000 -0.00000000 1.39999998
v -3.75000000 -0.00000000 0.00000000
v -3.74533844 -0.18692207 1.39999998
v -3.74533844 -0.18692207 0.00000000
v -3.73136544 -0.37337944 1.39999998
v -3.73136544 -0.37337944 0.00000000
v -3.70811558 -0.55890852 1.39999998
v -3.70811558 -0.55890852 0.00000000
v -3.67564678 -0.74304801 1.39999998
v -3.67564678 -0.74304801 0.00000000
v -3.63403988 -0.92534024 1.39999998
v -3.63403988 -0.92534024 0.00000000
v -3.58339810 -1.10533190 1.39999998
v -3.58339810 -1.10533190 0.00000000
v -3.52384734 -1.28257549 1.39999998
v -3.52384734 -1.28257549 0.00000000
v -3.45553589 -1.45663047 1.39999998
v -3.45553589 -1.45663047 0.00000000
v -3.37863326 -1.62706399 1.39999998
v -3.37863326 -1.62706399 0.00000000
v -3.29333091 -1.79345238 1.39999998
v -3.29333091 -1.79345238 0.00000000
v -3.19984078 -1.95538199 1.39999998
v -3.19984078 -1.95538199 0.00000000
v -3.09839535 -2.11245012 1.39999998
v -3.09839535 -2.11245012 0.00000000
v -2.98924685 -2.26426649 1.39999998
v -2.98924685 -2.26426649 0.00000000
v -2.87266660 -2.41045356 1.39999998
v -2.87266660 -2.41045356 0.00000000
v -2.74894452 -2.55064774 1.39999998
v -2.74894452 -2.55064774 0.00000000
v -2.61838818 -2.68450069 1.39999998
v -2.61838818 -2.68450069 0.00000000
v -2.48132181 -2.81167960 1.39999998
v -2.48132181 -2.81167960 0.00000000
v -2.33808684 -2.93186808 1.39999998
v -2.33808684 -2.93186808 0.00000000
v -2.18903875 -3.04476762 1.39999998
v -2.18903875 -3.04476762 0.00000000
v -2.03454852 -3.15009713 1.39999998
v -2.03454852 -3.15009713 0.00000000
v -1.87500000 -3.24759531 1.39999998
v -1.87500000 -3.24759531 0.00000000
v -1.71078992 -3.33701921 1.39999998
v -1.71078992 -3.33701921 0.00000000
v -1.54232669 -3.41814685 1.39999998
v -1.54232669 -3.41814685 0.00000000
v -1.37002885 -3.49077654 1.39999998
v -1.37002885 -3.49077654 0.00000000
v -1.19432497 -3.55472755 1.39999998
v -1.19432497 -3.55472755 0.00000000
v -1.01565170 -3.60984087 1.39999998
v -1.01565170 -3.60984087 0.00000000
v -0.83445352 -3.65597963 1.39999998
v -0.83445352 -3.65597963 0.00000000
v -0.65118068 -3.69302917 1.39999998
v -0.65118068 -3.69302917 0.00000000
v -0.46628889 -3.72089696 1.39999998
v -0.46628889 -3.72089696 0.00000000
v -0.28023785 -3.73951435 1.39999998
v -0.28023785 -3.73951435 0.00000000
v -0.09349009 -3.74883437 1.39999998
v -0.09349009 -3.74883437 0.00000000
v 0.09349009 -3.74883437 1.39999998
v 0.09349009 -3.74883437 0.00000000
v 0.28023785 -3.73951435 1.39999998
v 0.28023785 -3.73951435 0.00000000
v 0.46628889 -3.72089696 1.39999998
v 0.46628889 -3.72089696 0.00000000
v 0.65118068 -3.69302917 1.39999998
v 0.65118068 -3.69302917 0.00000000
v 0.83445352 -3.65597963 1.39999998
v 0.83445352 -3.65597963 0.00000000
v 1.01565170 -3.60984087 1.39999998
v 1.01565170 -3.60984087 0.00000000
v 1.19432497 -3.55472755 1.39999998
v 1.19432497 -3.55472755 0.00000000
v 1.37002885 -3.49077654 1.39999998
v 1.37002885 -3.49077654 0.00000000
v 1.54232669 -3.41814685 0.00000000
v 1.54232669 -3.41814685 1.39999998
v 1.71078992 -3.33701921 1.39999998
v 1.71078992 -3.33701921 0.00000000
v 1.87500000 -3.24759531 1.39999998
v 1.87500000 -3.24759531 0.00000000
v 2.03454852 -3.15009713 1.39999998
v 2.03454852 -3.15009713 0.00000000
v 2.18903875 -3.04476762 1.39999998
v 2.18903875 -3.04476762 0.00000000
v 2.33808684 -2.93186808 1.39999998
v 2.33808684 -2.93186808 0.00000000
v 2.48132181 -2.81167960 1.39999998
v 2.48132181 -2.81167960 0.00000000
v 2.61838818 -2.68450069 1.39999998
v 2.61838818 -2.68450069 0.00000000
v 2.74894452 -2.55064774 1.39999998
v 2.74894452 -2.55064774 0.00000000
v 2.87266660 -2.41045356 1.39999998
v 2.87266660 -2.41045356 0.00000000
v 2.98924685 -2.26426649 1.39999998
v 2.98924685 -2.26426649 0.00000000
v 3.09839535 -2.11245012 1.39999998
v 3.09839535 -2.11245012 0.00000000
v 3.19984078 -1.95538199 0.00000000
v 3.19984078 -1.95538199 1.39999998
v 3.29333091 -1.79345238 1.39999998
v 3.29333091 -1.79345238 0.00000000
v 3.37863326 -1.62706399 0.00000000
v 3.37863326 -1.62706399 1.39999998
v 3.45553589 -1.45663047 1.39999998
v 3.45553589 -1.45663047 0.00000000
v 3.52384734 -1.28257549 1.39999998
v 3.52384734 -1.28257549 0.00000000
v 3.58339810 -1.10533190 1.39999998
v 3.58339810 -1.10533190 0.00000000
v 3.63403988 -0.92534024 0.00000000
v 3.63403988 -0.92534024 1.39999998
v 3.67564678 -0.74304801 1.39999998
v 3.67564678 -0.74304801 0.00000000
v 3.70811558 -0.55890852 1.39999998
v 3.70811558 -0.55890852 0.00000000
v 3.73136544 -0.37337944 1.39999998
v 3.73136544 -0.37337944 0.00000000
v 3.74533844 -0.18692207 1.39999998
v 3.74533844 -0.18692207 0.00000000
v -1.90593481 -1.76844907 1.39999998
v -1.81541574 -1.86125386 1.39999998
v -1.72038317 -1.94943118 1.39999998
v -1.99171555 -1.67124784 1.39999998
v -1.62107348 -2.03276181 1.39999998
v -2.07254457 -1.56989145 1.39999998
v -1.51773357 -2.11103892 1.39999998
v -2.14822078 -1.46463215 1.39999998
v -1.41062033 -2.18406749 1.39999998
v -2.21855640 -1.35573149 1.39999998
v -1.29999995 -2.25166607 1.39999998
v -2.28337598 -1.24346030 1.39999998
v -1.18614769 -2.31366682 1.39999998
v -2.34251904 -1.12809777 1.39999998
v -1.06934643 -2.36991525 1.39999998
v -2.39583826 -1.00993049 1.39999998
v -0.94988668 -2.42027164 1.39999998
v -2.44320083 -0.88925236 1.39999998
v -0.82806528 -2.46461105 1.39999998
v -2.48448920 -0.76636344 1.39999998
v -0.70418519 -2.50282311 1.39999998
v -2.51960087 -0.64156926 1.39999998
v -0.57855445 -2.53481269 1.39999998
v -2.54844856 -0.51517999 1.39999998
v -0.45148528 -2.56050014 1.39999998
v -2.57096004 -0.38750988 1.39999998
v -0.32329363 -2.57982183 1.39999998
v -2.58708000 -0.25887641 1.39999998
v -0.19429824 -2.59272981 1.39999998
v -2.59676790 -0.12959930 1.39999998
v -0.06481980 -2.59919190 1.39999998
v -2.59999990 -0.00000000 1.39999998
v 0.06481980 -2.59919190 1.39999998
v -2.59676790 0.12959930 1.39999998
v 0.19429824 -2.59272981 1.39999998
v -2.58708000 0.25887641 1.39999998
v 0.32329363 -2.57982183 1.39999998
v -2.57096004 0.38750988 1.39999998
v 0.45148528 -2.56050014 1.39999998
v -2.54844856 0.51517999 1.39999998
v 0.57855445 -2.53481269 1.39999998
v -2.51960087 0.64156926 1.39999998
v 0.70418519 -2.50282311 1.39999998
v -2.48448920 0.76636344 1.39999998
v 0.82806528 -2.46461105 1.39999998
v -2.44320083 0.88925236 1.39999998
v 0.94988668 -2.42027164 1.39999998
v -2.39583826 1.00993049 1.39999998
v 1.06934643 -2.36991525 1.39999998
v -2.34251904 1.12809777 1.39999998
v 1.18614769 -2.31366682 1.39999998
v -2.28337598 1.24346030 1.39999998
v 1.29999995 -2.25166607 1.39999998
v -2.21855640 1.35573149 1.39999998
v 1.41062033 -2.18406749 1.39999998
v -2.14822078 1.46463215 1.39999998
v 1.51773357 -2.11103892 1.39999998
v -2.07254457 1.56989145 1.39999998
v 1.62107348 -2.03276181 1.39999998
v -1.99171555 1.67124784 1.39999998
v 1.72038317 -1.94943118 1.39999998
v -1.90593481 1.76844907 1.39999998
v 1.81541574 -1.86125386 1.39999998
v -1.81541574 1.86125386 1.39999998
v 1.90593481 -1.76844907 1.39999998
v -1.72038317 1.94943118 1.39999998
v -1.62107348 2.03276181 1.39999998
v 1.99171555 -1.67124784 1.39999998
v 2.07254457 -1.56989145 1.39999998
v -1.51773357 2.11103892 1.39999998
v -1.41062033 2.18406749 1.39999998
v 2.14822078 -1.46463215 1.39999998
v 2.21855640 -1.35573149 1.39999998
v -1.29999995 2.25166607 1.39999998
v 2.28337598 -1.24346030 1.39999998
v -1.18614769 2.31366682 1.39999998
v 2.34251904 -1.12809777 1.39999998
v -1.06934643 2.36991525 1.39999998
v 2.39583826 -1.00993049 1.39999998
v -0.94988668 2.42027164 1.39999998
v 2.44320083 -0.88925236 1.39999998
v -0.82806528 2.46461105 1.39999998
v -0.70418519 2.50282311 1.39999998
v 2.48448920 -0.76636344 1.39999998
v 2.51960087 -0.64156926 1.39999998
v 2.54844856 -0.51517999 1.39999998
v -0.57855445 2.53481269 1.39999998
v -0.45148528 2.56050014 1.39999998
v 2.57096004 -0.38750988 1.39999998
v -0.32329363 2.57982183 1.39999998
v 2.58708000 -0.25887641 1.39999998
v -0.19429824 2.59272981 1.39999998
v 2.59676790 -0.12959930 1.39999998
v 2.59999990 -0.00000000 1.39999998
v -0.06481980 2.59919190 1.39999998
v 0.06481980 2.59919190 1.39999998
v 2.59676790 0.12959930 1.39999998
v 0.19429824 2.59272981 1.39999998
v 2.58708000 0.25887641 1.39999998
v 0.32329363 2.57982183 1.39999998
v 0.45148528 2.56050014 1.39999998
v 2.57096004 0.38750988 1.39999998
v 2.54844856 0.51517999 1.39999998
v 2.51960087 0.64156926 1.39999998
v 0.57855445 2.53481269 1.39999998
v 2.48448920 0.76636344 1.39999998
v 0.70418519 2.50282311 1.39999998
v 0.82806528 2.46461105 1.39999998
v 2.44320083 0.88925236 1.39999998
v 0.94988668 2.42027164 1.39999998
v 1.06934643 2.36991525 1.39999998
v 2.39583826 1.00993049 1.39999998
v 2.34251904 1.12809777 1.39999998
v 2.28337598 1.24346030 1.39999998
v 1.18614769 2.31366682 1.39999998
v 1.29999995 2.25166607 1.39999998
v 2.21855640 1.35573149 1.39999998
v 1.41062033 2.18406749 1.39999998
v 1.51773357 2.11103892 1.39999998
v 2.14822078 1.46463215 1.39999998
v 2.07254457 1.56989145 1.39999998
v 1.99171555 1.67124784 1.39999998
v 1.62107348 2.03276181 1.39999998
v 1.72038317 1.94943118 1.39999998
v 1.90593481 1.76844907 1.39999998
v 1.81541574 1.86125386 1.39999998
v -1.90593481 -1.76844907 0.00000000
v -1.81541574 -1.86125386 0.00000000
v -1.72038317 -1.94943118 0.00000000
v -1.99171555 -1.67124784 0.00000000
v -1.62107348 -2.03276181 0.00000000
v -2.07254457 -1.56989145 0.00000000
v -1.51773357 -2.11103892 0.00000000
v -2.14822078 -1.46463215 0.00000000
v -1.41062033 -2.18406749 0.00000000
v -2.21855640 -1.35573149 0.00000000
v -1.29999995 -2.25166607 0.00000000
v -2.28337598 -1.24346030 0.00000000
v -1.18614769 -2.31366682 0.00000000
v -2.34251904 -1.12809777 0.00000000
v -1.06934643 -2.36991525 0.00000000
v -2.39583826 -1.00993049 0.00000000
v -0.94988668 -2.42027164 0.00000000
v -2.44320083 -0.88925236 0.00000000
v -0.82806528 -2.46461105 0.00000000
v -2.48448920 -0.76636344 0.00000000
v -0.70418519 -2.50282311 0.00000000
v -2.51960087 -0.64156926 0.00000000
v -0.57855445 -2.53481269 0.00000000
v -2.54844856 -0.51517999 0.00000000
v -0.45148528 -2.56050014 0.00000000
v -2.57096004 -0.38750988 0.00000000
v -0.32329363 -2.57982183 0.00000000
v -2.58708000 -0.25887641 0.00000000
v -0.19429824 -2.59272981 0.00000000
v -2.59676790 -0.12959930 0.00000000
v -0.06481980 -2.59919190 0.00000000
v -2.59999990 -0.00000000 0.00000000
v 0.06481980 -2.59919190 0.00000000
v -2.59676790 0.12959930 0.00000000
v 0.19429824 -2.59272981 0.00000000
v -2.58708000 0.25887641 0.00000000
v 0.32329363 -2.57982183 0.00000000
v -2.57096004 0.38750988 0.00000000
v 0.45148528 -2.56050014 0.00000000
v -2.54844856 0.51517999 0.00000000
v 0.57855445 -2.53481269 0.00000000
v -2.51960087 0.64156926 0.00000000
v 0.70418519 -2.50282311 0.00000000
v -2.48448920 0.76636344 0.00000000
v 0.82806528 -2.46461105 0.00000000
v -2.44320083 0.88925236 0.00000000
v 0.94988668 -2.42027164 0.00000000
v -2.39583826 1.00993049 0.00000000
v 1.06934643 -2.36991525 0.00000000
v -2.34251904 1.12809777 0.00000000
v 1.18614769 -2.31366682 0.00000000
v -2.28337598 1.24346030 0.00000000
v 1.29999995 -2.25166607 0.00000000
v -2.21855640 1.35573149 0.00000000
v 1.41062033 -2.18406749 0.00000000
v -2.14822078 1.46463215 0.00000000
v 1.51773357 -2.11103892 0.00000000
v -2.07254457 1.56989145 0.00000000
v 1.62107348 -2.03276181 0.00000000
v -1.99171555 1.67124784 0.00000000
v 1.72038317 -1.94943118 0.00000000
v -1.90593481 1.76844907 0.00000000
v 1.81541574 -1.86125386 0.00000000
v -1.81541574 1.86125386 0.00000000
v 1.90593481 -1.76844907 0.00000000
v -1.72038317 1.94943118 0.00000000
v -1.62107348 2.03276181 0.00000000
v 1.99171555 -1.67124784 0.00000000
v 2.07254457 -1.56989145 0.00000000
v -1.41062033 2.18406749 0.00000000
v -1.51773357 2.11103892 0.00000000
v 2.14822078 -1.46463215 0.00000000
v 2.21855640 -1.35573149 0.00000000
v -1.29999995 2.25166607 0.00000000
v 2.28337598 -1.24346030 0.00000000
v -1.18614769 2.31366682 0.00000000
v 2.34251904 -1.12809777 0.00000000
v -1.06934643 2.36991525 0.00000000
v 2.39583826 -1.00993049 0.00000000
v -0.94988668 2.42027164 0.00000000
v 2.44320083 -0.88925236 0.00000000
v -0.70418519 2.50282311 0.00000000
v -0.82806528 2.46461105 0.00000000
v 2.48448920 -0.76636344 0.00000000
v 2.51960087 -0.64156926 0.00000000
v 2.54844856 -0.51517999 0.00000000
v -0.45148528 2.56050014 0.00000000
v -0.57855445 2.53481269 0.00000000
v 2.57096004 -0.38750988 0.00000000
v -0.32329363 2.57982183 0.00000000
v 2.58708000 -0.25887641 0.00000000
v -0.19429824 2.59272981 0.00000000
v 2.59676790 -0.12959930 0.00000000
v 2.59999990 -0.00000000 0.00000000
v -0.06481980 2.59919190 0.00000000
v 0.06481980 2.59919190 0.00000000
v 2.59676790 0.12959930 0.00000000
v 0.19429824 2.59272981 0.00000000
v 2.58708000 0.25887641 0.00000000
v 0.45148528 2.56050014 0.00000000
v 0.32329363 2.57982183 0.00000000
v 2.57096004 0.38750988 0.00000000
v 2.54844856 0.51517999 0.00000000
v 2.51960087 0.64156926 0.00000000
v 0.57855445 2.53481269 0.00000000
v 2.48448920 0.76636344 0.00000000
v 0.70418519 2.50282311 0.00000000
v 0.82806528 2.46461105 0.00000000
v 2.44320083 0.88925236 0.00000000
v 1.06934643 2.36991525 0.00000000
v 0.94988668 2.42027164 0.00000000
v 2.39583826 1.00993049 0.00000000
v 2.34251904 1.12809777 0.00000000
v 2.28337598 1.24346030 0.00000000
v 1.29999995 2.25166607 0.00000000
v 1.18614769 2.31366682 0.00000000
v 2.21855640 1.35573149 0.00000000
v 1.51773357 2.11103892 0.00000000
v 1.41062033 2.18406749 0.00000000
v 2.14822078 1.46463215 0.00000000
v 2.07254457 1.56989145 0.00000000
v 1.99171555 1.67124784 0.00000000
v 1.62107348 2.03276181 0.00000000
v 1.72038317 1.94943118 0.00000000
v 1.90593481 1.76844907 0.00000000
v 1.81541574 1.86125386 0.00000000
f 1 2 3
f 1 3 4
f 5 4 6
f 5 1 4
f 7 6 8
f 7 5 6
f 9 8 10
f 9 7 8
f 11 10 12
f 11 12 13
f 11 9 10
f 14 11 13
f 15 13 16
f 15 14 13
f 17 16 18
f 17 18 19
f 17 15 16
f 20 19 21
f 20 17 19
f 22 20 21
f 23 22 21
f 23 21 24
f 25 23 24
f 25 24 26
f 25 26 27
f 28 25 27
f 28 27 29
f 30 28 29
f 31 30 29
f 31 29 32
f 33 31 32
f 33 32 34
f 33 34 35
f 36 33 35
f 37 36 35
f 37 35 38
f 39 37 38
f 39 38 40
f 41 39 40
f 41 40 42
f 43 41 42
f 43 42 44
f 45 43 44
f 45 44 46
f 47 46 48
f 47 45 46
f 49 48 50
f 49 47 48
f 51 50 52
f 51 49 50
f 53 52 54
f 53 54 55
f 53 51 52
f 56 53 55
f 57 55 58
f 57 56 55
f 59 58 60
f 59 57 58
f 61 60 62
f 61 62 63
f 61 59 60
f 64 61 63
f 65 63 66
f 65 64 63
f 67 66 68
f 67 65 66
f 69 68 70
f 69 67 68
f 71 70 72
f 71 72 73
f 71 69 70
f 74 71 73
f 75 74 73
f 75 73 76
f 77 75 76
f 77 76 78
f 79 77 78
f 79 78 80
f 81 79 80
f 81 80 82
f 83 81 82
f 83 82 84
f 85 83 84
f 85 84 86
f 87 85 86
f 87 86 88
f 89 87 88
f 89 88 90
f 91 89 90
f 91 90 92
f 93 91 92
f 93 92 94
f 95 93 94
f 95 94 96
f 97 95 96
f 97 96 98
f 97 98 99
f 100 97 99
f 101 100 99
f 101 99 102
f 103 101 102
f 103 102 104
f 105 103 104
f 105 104 106
f 107 105 106
f 107 106 108
f 109 107 108
f 109 108 110
f 111 109 110
f 111 110 112
f 113 111 112
f 113 112 114
f 115 113 114
f 115 114 116
f 117 116 118
f 117 115 116
f 119 118 120
f 119 117 118
f 121 120 122
f 121 119 120
f 123 122 124
f 123 121 122
f 125 123 124
f 125 124 126
f 127 125 126
f 127 126 128
f 129 127 128
f 129 128 130
f 131 129 130
f 131 130 132
f 133 131 132
f 133 132 134
f 135 133 134
f 135 134 136
f 137 135 136
f 137 136 138
f 139 137 138
f 139 138 140
f 141 139 140
f 141 140 142
f 143 141 142
f 143 142 144
f 145 143 144
f 145 144 146
f 147 145 146
f 147 146 148
f 149 147 148
f 149 148 150
f 151 150 152
f 151 149 150
f 153 152 154
f 153 151 152
f 155 154 156
f 155 153 154
f 157 156 158
f 157 155 156
f 159 158 160
f 159 157 158
f 161 160 162
f 161 159 160
f 163 162 164
f 163 161 162
f 165 164 166
f 165 163 164
f 167 166 168
f 167 165 166
f 169 168 170
f 169 167 168
f 171 170 172
f 171 169 170
f 173 172 174
f 173 171 172
f 175 174 176
f 175 173 174
f 177 175 176
f 177 176 178
f 179 177 178
f 179 178 180
f 181 179 180
f 181 180 182
f 183 181 182
f 183 182 184
f 185 184 186
f 185 183 184
f 187 186 188
f 187 185 186
f 189 188 190
f 189 187 188
f 191 190 192
f 191 189 190
f 193 192 194
f 193 191 192
f 195 194 196
f 195 193 194
f 197 196 198
f 197 195 196
f 199 198 200
f 199 197 198
f 201 200 202
f 201 199 200
f 203 202 204
f 203 201 202
f 205 204 206
f 205 206 207
f 205 203 204
f 208 205 207
f 209 207 210
f 209 208 207
f 211 210 212
f 211 209 210
f 213 212 214
f 213 211 212
f 215 214 216
f 215 213 214
f 217 216 218
f 217 215 216
f 219 218 220
f 219 217 218
f 221 220 222
f 221 219 220
f 223 222 224
f 223 221 222
f 225 223 224
f 225 224 226
f 227 225 226
f 227 226 228
f 229 227 228
f 229 228 230
f 229 230 231
f 232 229 231
f 233 232 231
f 233 231 234
f 233 234 235
f 236 233 235
f 237 236 235
f 237 235 238
f 239 237 238
f 239 238 240
f 241 239 240
f 241 240 242
f 241 242 243
f 244 241 243
f 245 244 243
f 245 243 246
f 247 245 246
f 247 246 248
f 249 247 248
f 249 248 250
f 251 250 252
f 251 249 250
f 2 252 3
f 2 251 252
f 253 159 254
f 253 157 159
f 255 254 159
f 255 159 161
f 256 157 253
f 256 155 157
f 257 255 161
f 257 161 163
f 258 155 256
f 258 153 155
f 259 257 163
f 259 163 165
f 260 153 258
f 260 151 153
f 261 259 165
f 261 165 167
f 262 151 260
f 262 149 151
f 263 261 167
f 263 167 169
f 264 149 262
f 264 147 149
f 265 263 169
f 265 169 171
f 266 147 264
f 266 143 145
f 266 145 147
f 267 265 171
f 267 171 173
f 268 143 266
f 269 267 173
f 269 173 175
f 270 143 268
f 270 141 143
f 271 269 175
f 271 175 177
f 272 141 270
f 272 139 141
f 273 271 177
f 273 177 179
f 273 179 181
f 274 139 272
f 274 137 139
f 275 273 181
f 275 181 183
f 276 133 135
f 276 135 137
f 276 137 274
f 277 275 183
f 278 133 276
f 279 277 183
f 279 183 185
f 279 185 187
f 280 133 278
f 280 131 133
f 281 279 187
f 282 127 129
f 282 129 131
f 282 131 280
f 283 281 187
f 283 187 189
f 283 189 191
f 284 127 282
f 285 283 191
f 286 125 127
f 286 127 284
f 287 285 191
f 287 191 193
f 288 123 125
f 288 125 286
f 289 287 193
f 289 193 195
f 290 121 123
f 290 123 288
f 291 289 195
f 291 195 197
f 292 119 121
f 292 121 290
f 293 291 197
f 293 197 199
f 294 117 119
f 294 119 292
f 295 293 199
f 295 199 201
f 296 117 294
f 296 115 117
f 297 201 203
f 297 295 201
f 298 115 296
f 298 113 115
f 299 203 205
f 299 297 203
f 300 113 298
f 300 111 113
f 301 205 208
f 301 299 205
f 302 111 300
f 302 109 111
f 303 208 209
f 303 301 208
f 304 109 302
f 304 107 109
f 305 209 211
f 305 211 213
f 305 303 209
f 306 107 304
f 306 103 105
f 306 105 107
f 307 305 213
f 308 103 306
f 309 213 215
f 309 307 213
f 310 101 103
f 310 103 308
f 100 101 310
f 311 215 217
f 311 309 215
f 219 311 217
f 312 100 310
f 313 311 219
f 314 97 100
f 314 100 312
f 315 219 221
f 315 313 219
f 316 97 314
f 95 97 316
f 317 315 221
f 223 317 221
f 93 95 316
f 93 316 318
f 319 93 318
f 225 317 223
f 225 320 317
f 321 320 225
f 91 93 319
f 227 321 225
f 89 91 319
f 89 322 323
f 89 319 322
f 229 324 321
f 229 325 324
f 229 321 227
f 87 89 323
f 232 325 229
f 85 87 323
f 85 323 326
f 233 327 325
f 233 325 232
f 83 85 326
f 83 326 328
f 236 327 233
f 236 329 327
f 81 328 330
f 81 83 328
f 237 329 236
f 237 331 329
f 79 330 332
f 79 81 330
f 239 333 331
f 239 331 237
f 77 334 335
f 77 332 334
f 77 79 332
f 241 336 333
f 241 333 239
f 75 77 335
f 244 337 336
f 244 338 337
f 244 336 241
f 74 75 335
f 74 339 340
f 74 335 339
f 245 338 244
f 71 74 340
f 247 338 245
f 247 341 338
f 69 71 340
f 69 340 342
f 249 341 247
f 249 343 341
f 67 69 342
f 67 342 344
f 251 343 249
f 251 345 343
f 251 346 345
f 65 344 347
f 65 67 344
f 2 346 251
f 64 347 348
f 64 65 347
f 1 349 346
f 1 346 2
f 61 348 350
f 61 64 348
f 5 351 349
f 5 349 1
f 59 352 353
f 59 350 352
f 59 61 350
f 7 354 351
f 7 355 354
f 7 351 5
f 57 59 353
f 9 356 355
f 9 355 7
f 56 57 353
f 56 353 357
f 11 358 356
f 11 356 9
f 53 56 357
f 53 357 359
f 14 358 11
f 51 53 359
f 51 359 360
f 15 361 358
f 15 358 14
f 49 51 360
f 49 362 363
f 49 360 362
f 17 361 15
f 17 364 361
f 47 49 363
f 20 364 17
f 20 365 364
f 20 366 365
f 45 47 363
f 45 367 368
f 45 363 367
f 22 366 20
f 43 45 368
f 23 366 22
f 23 369 366
f 41 43 368
f 41 370 371
f 41 368 370
f 25 369 23
f 25 372 369
f 39 41 371
f 28 372 25
f 28 373 372
f 28 374 373
f 37 39 371
f 37 371 375
f 30 374 28
f 36 375 376
f 36 37 375
f 31 377 374
f 31 378 377
f 31 374 30
f 33 376 378
f 33 36 376
f 33 378 31
f 379 380 160
f 379 160 158
f 381 160 380
f 381 162 160
f 382 379 158
f 382 158 156
f 383 162 381
f 383 164 162
f 384 382 156
f 384 156 154
f 385 164 383
f 385 166 164
f 386 384 154
f 386 154 152
f 387 166 385
f 387 168 166
f 388 386 152
f 388 152 150
f 389 168 387
f 389 170 168
f 390 388 150
f 390 150 148
f 391 170 389
f 391 172 170
f 392 390 148
f 392 146 144
f 392 148 146
f 393 172 391
f 393 174 172
f 394 392 144
f 395 174 393
f 395 176 174
f 396 394 144
f 396 144 142
f 397 176 395
f 397 178 176
f 398 396 142
f 398 142 140
f 399 178 397
f 399 180 178
f 399 182 180
f 400 398 140
f 400 140 138
f 401 182 399
f 401 184 182
f 402 136 134
f 402 138 136
f 402 400 138
f 403 184 401
f 404 402 134
f 405 184 403
f 405 186 184
f 405 188 186
f 406 404 134
f 406 134 132
f 407 188 405
f 408 130 128
f 408 132 130
f 408 406 132
f 409 188 407
f 409 190 188
f 409 192 190
f 410 408 128
f 411 192 409
f 412 128 126
f 412 410 128
f 413 192 411
f 413 194 192
f 414 126 124
f 414 412 126
f 415 194 413
f 415 196 194
f 416 124 122
f 416 414 124
f 417 196 415
f 417 198 196
f 418 122 120
f 418 416 122
f 419 198 417
f 419 200 198
f 420 120 118
f 420 418 120
f 421 200 419
f 421 202 200
f 422 420 118
f 422 118 116
f 423 204 202
f 423 202 421
f 424 422 116
f 424 116 114
f 425 206 204
f 425 204 423
f 426 424 114
f 426 114 112
f 427 207 206
f 427 206 425
f 428 426 112
f 428 112 110
f 429 210 207
f 429 207 427
f 430 428 110
f 430 110 108
f 431 212 210
f 431 214 212
f 431 210 429
f 432 430 108
f 432 106 104
f 432 108 106
f 433 214 431
f 434 432 104
f 435 216 214
f 435 214 433
f 436 104 102
f 436 434 104
f 99 436 102
f 437 218 216
f 437 216 435
f 220 218 437
f 438 436 99
f 439 220 437
f 440 99 98
f 440 438 99
f 441 222 220
f 441 220 439
f 442 440 98
f 96 442 98
f 443 222 441
f 224 222 443
f 94 442 96
f 94 444 442
f 445 444 94
f 226 224 443
f 226 443 446
f 447 226 446
f 92 445 94
f 228 226 447
f 90 445 92
f 90 448 449
f 90 449 445
f 230 447 450
f 230 450 451
f 230 228 447
f 88 448 90
f 231 230 451
f 86 448 88
f 86 452 448
f 234 451 453
f 234 231 451
f 84 452 86
f 84 454 452
f 235 234 453
f 235 453 455
f 82 456 454
f 82 454 84
f 238 235 455
f 238 455 457
f 80 458 456
f 80 456 82
f 240 457 459
f 240 238 457
f 78 460 461
f 78 461 458
f 78 458 80
f 242 459 462
f 242 240 459
f 76 460 78
f 243 462 463
f 243 463 464
f 243 242 462
f 73 460 76
f 73 465 466
f 73 466 460
f 246 243 464
f 72 465 73
f 248 246 464
f 248 464 467
f 70 465 72
f 70 468 465
f 250 248 467
f 250 467 469
f 68 468 70
f 68 470 468
f 252 250 469
f 252 469 471
f 252 471 472
f 66 473 470
f 66 470 68
f 3 252 472
f 63 474 473
f 63 473 66
f 4 472 475
f 4 3 472
f 62 476 474
f 62 474 63
f 6 475 477
f 6 4 475
f 60 478 479
f 60 479 476
f 60 476 62
f 8 477 480
f 8 480 481
f 8 6 477
f 58 478 60
f 10 481 482
f 10 8 481
f 55 478 58
f 55 483 478
f 12 482 484
f 12 10 482
f 54 483 55
f 54 485 483
f 13 12 484
f 52 485 54
f 52 486 485
f 16 484 487
f 16 13 484
f 50 486 52
f 50 488 489
f 50 489 486
f 18 16 487
f 18 487 490
f 48 488 50
f 19 18 490
f 19 490 491
f 19 491 492
f 46 488 48
f 46 493 494
f 46 494 488
f 21 19 492
f 44 493 46
f 24 21 492
f 24 492 495
f 42 493 44
f 42 496 497
f 42 497 493
f 26 24 495
f 26 495 498
f 40 496 42
f 27 26 498
f 27 498 499
f 27 499 500
f 38 496 40
f 38 501 496
f 29 27 500
f 35 502 501
f 35 501 38
f 32 500 503
f 32 503 504
f 32 29 500
f 34 504 502
f 34 502 35
f 34 32 504
f 349 472 346
f 349 475 472
f 351 477 475
f 351 475 349
f 354 480 477
f 354 477 351
f 355 481 480
f 355 480 354
f 356 482 481
f 356 484 482
f 356 481 355
f 358 484 356
f 361 487 484
f 361 484 358
f 364 490 487
f 364 491 490
f 364 487 361
f 365 492 491
f 365 491 364
f 366 492 365
f 369 492 366
f 369 495 492
f 372 495 369
f 372 498 495
f 372 499 498
f 373 499 372
f 373 500 499
f 374 500 373
f 377 500 374
f 377 503 500
f 378 503 377
f 378 504 503
f 378 502 504
f 376 502 378
f 375 502 376
f 375 501 502
f 371 501 375
f 371 496 501
f 370 496 371
f 370 497 496
f 368 497 370
f 368 493 497
f 367 493 368
f 367 494 493
f 363 488 494
f 363 494 367
f 362 489 488
f 362 488 363
f 360 486 489
f 360 489 362
f 359 485 486
f 359 483 485
f 359 486 360
f 357 483 359
f 353 478 483
f 353 483 357
f 352 479 478
f 352 478 353
f 350 476 479
f 350 474 476
f 350 479 352
f 348 474 350
f 347 473 474
f 347 474 348
f 344 470 473
f 344 473 347
f 342 468 470
f 342 470 344
f 340 465 468
f 340 466 465
f 340 468 342
f 339 466 340
f 335 466 339
f 335 460 466
f 334 460 335
f 334 461 460
f 332 461 334
f 332 458 461
f 330 458 332
f 330 456 458
f 328 456 330
f 328 454 456
f 326 454 328
f 326 452 454
f 323 452 326
f 323 448 452
f 322 448 323
f 322 449 448
f 319 449 322
f 319 445 449
f 318 445 319
f 318 444 445
f 316 444 318
f 316 442 444
f 314 442 316
f 314 440 442
f 314 438 440
f 312 438 314
f 310 438 312
f 310 436 438
f 308 436 310
f 308 434 436
f 306 434 308
f 306 432 434
f 304 432 306
f 304 430 432
f 302 430 304
f 302 428 430
f 300 428 302
f 300 426 428
f 298 426 300
f 298 424 426
f 296 424 298
f 296 422 424
f 294 420 422
f 294 422 296
f 292 418 420
f 292 420 294
f 290 416 418
f 290 418 292
f 288 414 416
f 288 416 290
f 286 414 288
f 286 412 414
f 284 412 286
f 284 410 412
f 282 410 284
f 282 408 410
f 280 408 282
f 280 406 408
f 278 406 280
f 278 404 406
f 276 404 278
f 276 402 404
f 274 402 276
f 274 400 402
f 272 400 274
f 272 398 400
f 270 398 272
f 270 396 398
f 268 396 270
f 268 394 396
f 266 394 268
f 266 392 394
f 264 392 266
f 264 390 392
f 262 390 264
f 262 388 390
f 260 386 388
f 260 388 262
f 258 384 386
f 258 386 260
f 256 382 384
f 256 384 258
f 253 379 382
f 253 382 256
f 254 380 379
f 254 379 253
f 255 381 380
f 255 380 254
f 257 383 381
f 257 381 255
f 259 385 383
f 259 383 257
f 261 387 385
f 261 385 259
f 263 389 387
f 263 387 261
f 265 391 389
f 265 389 263
f 267 393 391
f 267 391 265
f 269 395 393
f 269 393 267
f 271 395 269
f 271 397 395
f 273 397 271
f 273 399 397
f 275 399 273
f 275 401 399
f 277 401 275
f 277 403 401
f 279 405 403
f 279 403 277
f 281 407 405
f 281 405 279
f 283 409 407
f 283 407 281
f 285 411 409
f 285 409 283
f 287 413 411
f 287 411 285
f 289 415 413
f 289 413 287
f 291 417 415
f 291 415 289
f 293 419 417
f 293 417 291
f 295 421 419
f 295 419 293
f 297 423 421
f 297 421 295
f 299 425 423
f 299 427 425
f 299 423 297
f 301 427 299
f 303 429 427
f 303 427 301
f 305 431 429
f 305 429 303
f 307 433 431
f 307 431 305
f 309 435 433
f 309 433 307
f 311 437 435
f 311 435 309
f 313 439 437
f 313 437 311
f 315 441 439
f 315 439 313
f 317 443 441
f 317 441 315
f 320 443 317
f 320 446 443
f 321 446 320
f 321 447 446
f 324 447 321
f 324 450 447
f 324 451 450
f 325 451 324
f 327 451 325
f 327 453 451
f 327 455 453
f 329 455 327
f 331 455 329
f 331 457 455
f 333 457 331
f 333 459 457
f 336 459 333
f 336 462 459
f 336 463 462
f 337 463 336
f 338 463 337
f 338 464 463
f 341 464 338
f 341 467 464
f 343 467 341
f 343 469 467
f 345 471 469
f 345 469 343
f 346 472 471
f 346 471 345

