  0
SECTION
  2
HEADER
  9
$ACADVER
  1
AC1027
  9
$ACADMAINTVER
 70
105
  9
$DWGCODEPAGE
  3
ANSI_1252
  9
$LASTSAVEDBY
  1
ezdxf
  9
$REQUIREDVERSIONS
160
0
  9
$INSBASE
 10
0.0
 20
0.0
 30
0.0
  9
$EXTMIN
 10
1e+20
 20
1e+20
 30
1e+20
  9
$EXTMAX
 10
-1e+20
 20
-1e+20
 30
-1e+20
  9
$LIMMIN
 10
0.0
 20
0.0
  9
$LIMMAX
 10
420.0
 20
297.0
  9
$ORTHOMODE
 70
0
  9
$REGENMODE
 70
1
  9
$FILLMODE
 70
1
  9
$QTEXTMODE
 70
0
  9
$MIRRTEXT
 70
1
  9
$LTSCALE
 40
1.0
  9
$ATTMODE
 70
1
  9
$TEXTSIZE
 40
2.5
  9
$TRACEWID
 40
1.0
  9
$TEXTSTYLE
  7
Standard
  9
$CLAYER
  8
0
  9
$CELTYPE
  6
ByLayer
  9
$CECOLOR
 62
256
  9
$CELTSCALE
 40
1.0
  9
$DISPSILH
 70
0
  9
$DIMSCALE
 40
1.0
  9
$DIMASZ
 40
2.5
  9
$DIMEXO
 40
0.625
  9
$DIMDLI
 40
3.75
  9
$DIMRND
 40
0.0
  9
$DIMDLE
 40
0.0
  9
$DIMEXE
 40
1.25
  9
$DIMTP
 40
0.0
  9
$DIMTM
 40
0.0
  9
$DIMTXT
 40
2.5
  9
$DIMCEN
 40
2.5
  9
$DIMTSZ
 40
0.0
  9
$DIMTOL
 70
0
  9
$DIMLIM
 70
0
  9
$DIMTIH
 70
0
  9
$DIMTOH
 70
0
  9
$DIMSE1
 70
0
  9
$DIMSE2
 70
0
  9
$DIMTAD
 70
1
  9
$DIMZIN
 70
8
  9
$DIMBLK
  1

  9
$DIMASO
 70
1
  9
$DIMSHO
 70
1
  9
$DIMPOST
  1

  9
$DIMAPOST
  1

  9
$DIMALT
 70
0
  9
$DIMALTD
 70
3
  9
$DIMALTF
 40
0.03937007874
  9
$DIMLFAC
 40
1.0
  9
$DIMTOFL
 70
1
  9
$DIMTVP
 40
0.0
  9
$DIMTIX
 70
0
  9
$DIMSOXD
 70
0
  9
$DIMSAH
 70
0
  9
$DIMBLK1
  1

  9
$DIMBLK2
  1

  9
$DIMSTYLE
  2
ISO-25
  9
$DIMCLRD
 70
0
  9
$DIMCLRE
 70
0
  9
$DIMCLRT
 70
0
  9
$DIMTFAC
 40
1.0
  9
$DIMGAP
 40
0.625
  9
$DIMJUST
 70
0
  9
$DIMSD1
 70
0
  9
$DIMSD2
 70
0
  9
$DIMTOLJ
 70
0
  9
$DIMTZIN
 70
8
  9
$DIMALTZ
 70
0
  9
$DIMALTTZ
 70
0
  9
$DIMUPT
 70
0
  9
$DIMDEC
 70
2
  9
$DIMTDEC
 70
2
  9
$DIMALTU
 70
2
  9
$DIMALTTD
 70
3
  9
$DIMTXSTY
  7
Standard
  9
$DIMAUNIT
 70
0
  9
$DIMADEC
 70
0
  9
$DIMALTRND
 40
0.0
  9
$DIMAZIN
 70
0
  9
$DIMDSEP
 70
44
  9
$DIMATFIT
 70
3
  9
$DIMFRAC
 70
0
  9
$DIMLDRBLK
  1

  9
$DIMLUNIT
 70
2
  9
$DIMLWD
 70
-2
  9
$DIMLWE
 70
-2
  9
$DIMTMOVE
 70
0
  9
$DIMFXL
 40
1.0
  9
$DIMFXLON
 70
0
  9
$DIMJOGANG
 40
0.785398163397
  9
$DIMTFILL
 70
0
  9
$DIMTFILLCLR
 70
0
  9
$DIMARCSYM
 70
0
  9
$DIMLTYPE
  6

  9
$DIMLTEX1
  6

  9
$DIMLTEX2
  6

  9
$DIMTXTDIRECTION
 70
0
  9
$LUNITS
 70
2
  9
$LUPREC
 70
4
  9
$SKETCHINC
 40
1.0
  9
$FILLETRAD
 40
10.0
  9
$AUNITS
 70
0
  9
$AUPREC
 70
2
  9
$MENU
  1
.
  9
$ELEVATION
 40
0.0
  9
$PELEVATION
 40
0.0
  9
$THICKNESS
 40
0.0
  9
$LIMCHECK
 70
0
  9
$CHAMFERA
 40
0.0
  9
$CHAMFERB
 40
0.0
  9
$CHAMFERC
 40
0.0
  9
$CHAMFERD
 40
0.0
  9
$SKPOLY
 70
0
  9
$TDCREATE
 40
2461317.7895023148
  9
$TDUCREATE
 40
2458532.153996898
  9
$TDUPDATE
 40
2461317.7895023148
  9
$TDUUPDATE
 40
2458532.1544311
  9
$TDINDWG
 40
0.0
  9
$TDUSRTIMER
 40
0.0
  9
$USRTIMER
 70
1
  9
$ANGBASE
 50
0.0
  9
$ANGDIR
 70
0
  9
$PDMODE
 70
0
  9
$PDSIZE
 40
0.0
  9
$PLINEWID
 40
0.0
  9
$SPLFRAME
 70
0
  9
$SPLINETYPE
 70
6
  9
$SPLINESEGS
 70
8
  9
$HANDSEED
  5
7D
  9
$SURFTAB1
 70
6
  9
$SURFTAB2
 70
6
  9
$SURFTYPE
 70
6
  9
$SURFU
 70
6
  9
$SURFV
 70
6
  9
$UCSBASE
  2

  9
$UCSNAME
  2

  9
$UCSORG
 10
0.0
 20
0.0
 30
0.0
  9
$UCSXDIR
 10
1.0
 20
0.0
 30
0.0
  9
$UCSYDIR
 10
0.0
 20
1.0
 30
0.0
  9
$UCSORTHOREF
  2

  9
$UCSORTHOVIEW
 70
0
  9
$UCSORGTOP
 10
0.0
 20
0.0
 30
0.0
  9
$UCSORGBOTTOM
 10
0.0
 20
0.0
 30
0.0
  9
$UCSORGLEFT
 10
0.0
 20
0.0
 30
0.0
  9
$UCSORGRIGHT
 10
0.0
 20
0.0
 30
0.0
  9
$UCSORGFRONT
 10
0.0
 20
0.0
 30
0.0
  9
$UCSORGBACK
 10
0.0
 20
0.0
 30
0.0
  9
$PUCSBASE
  2

  9
$PUCSNAME
  2

  9
$PUCSORG
 10
0.0
 20
0.0
 30
0.0
  9
$PUCSXDIR
 10
1.0
 20
0.0
 30
0.0
  9
$PUCSYDIR
 10
0.0
 20
1.0
 30
0.0
  9
$PUCSORTHOREF
  2

  9
$PUCSORTHOVIEW
 70
0
  9
$PUCSORGTOP
 10
0.0
 20
0.0
 30
0.0
  9
$PUCSORGBOTTOM
 10
0.0
 20
0.0
 30
0.0
  9
$PUCSORGLEFT
 10
0.0
 20
0.0
 30
0.0
  9
$PUCSORGRIGHT
 10
0.0
 20
0.0
 30
0.0
  9
$PUCSORGFRONT
 10
0.0
 20
0.0
 30
0.0
  9
$PUCSORGBACK
 10
0.0
 20
0.0
 30
0.0
  9
$USERI1
 70
0
  9
$USERI2
 70
0
  9
$USERI3
 70
0
  9
$USERI4
 70
0
  9
$USERI5
 70
0
  9
$USERR1
 40
0.0
  9
$USERR2
 40
0.0
  9
$USERR3
 40
0.0
  9
$USERR4
 40
0.0
  9
$USERR5
 40
0.0
  9
$WORLDVIEW
 70
1
  9
$SHADEDGE
 70
3
  9
$SHADEDIF
 70
70
  9
$TILEMODE
 70
1
  9
$MAXACTVP
 70
64
  9
$PINSBASE
 10
0.0
 20
0.0
 30
0.0
  9
$PLIMCHECK
 70
0
  9
$PEXTMIN
 10
1e+20
 20
1e+20
 30
1e+20
  9
$PEXTMAX
 10
-1e+20
 20
-1e+20
 30
-1e+20
  9
$PLIMMIN
 10
0.0
 20
0.0
  9
$PLIMMAX
 10
420.0
 20
297.0
  9
$UNITMODE
 70
0
  9
$VISRETAIN
 70
1
  9
$PLINEGEN
 70
0
  9
$PSLTSCALE
 70
1
  9
$TREEDEPTH
 70
3020
  9
$CMLSTYLE
  2
Standard
  9
$CMLJUST
 70
0
  9
$CMLSCALE
 40
20.0
  9
$PROXYGRAPHICS
 70
1
  9
$MEASUREMENT
 70
1
  9
$CELWEIGHT
370
-1
  9
$ENDCAPS
280
0
  9
$JOINSTYLE
280
0
  9
$LWDISPLAY
290
0
  9
$INSUNITS
 70
4
  9
$HYPERLINKBASE
  1

  9
$STYLESHEET
  1

  9
$XEDIT
290
1
  9
$CEPSNTYPE
380
0
  9
$PSTYLEMODE
290
1
  9
$FINGERPRINTGUID
  2
{C7D701D8-C3B4-4816-88B1-68AF24E5E918}
  9
$VERSIONGUID
  2
{90A213C5-1400-4CC7-96B3-A01EF7F69ED4}
  9
$EXTNAMES
290
1
  9
$PSVPSCALE
 40
0.0
  9
$OLESTARTUP
290
0
  9
$SORTENTS
280
127
  9
$INDEXCTL
280
0
  9
$HIDETEXT
280
1
  9
$XCLIPFRAME
280
1
  9
$HALOGAP
280
0
  9
$OBSCOLOR
 70
257
  9
$OBSLTYPE
280
0
  9
$INTERSECTIONDISPLAY
280
0
  9
$INTERSECTIONCOLOR
 70
257
  9
$DIMASSOC
280
2
  9
$PROJECTNAME
  1

  9
$CAMERADISPLAY
290
0
  9
$LENSLENGTH
 40
50.0
  9
$CAMERAHEIGHT
 40
0.0
  9
$STEPSPERSEC
 40
24.0
  9
$STEPSIZE
 40
100.0
  9
$3DDWFPREC
 40
2.0
  9
$PSOLWIDTH
 40
0.005
  9
$PSOLHEIGHT
 40
0.08
  9
$LOFTANG1
 40
1.570796326795
  9
$LOFTANG2
 40
1.570796326795
  9
$LOFTMAG1
 40
0.0
  9
$LOFTMAG2
 40
0.0
  9
$LOFTPARAM
 70
7
  9
$LOFTNORMALS
280
1
  9
$LATITUDE
 40
37.795
  9
$LONGITUDE
 40
-122.394
  9
$NORTHDIRECTION
 40
0.0
  9
$TIMEZONE
 70
-8000
  9
$LIGHTGLYPHDISPLAY
280
1
  9
$TILEMODELIGHTSYNCH
280
1
  9
$CMATERIAL
347
20
  9
$SOLIDHIST
280
0
  9
$SHOWHIST
280
1
  9
$DWFFRAME
280
2
  9
$DGNFRAME
280
2
  9
$REALWORLDSCALE
290
1
  9
$INTERFERECOLOR
 62
256
  9
$CSHADOW
280
0
  9
$SHADOWPLANELOCATION
 40
0.0
  0
ENDSEC
  0
SECTION
  2
CLASSES
  0
CLASS
  1
ACDBDICTIONARYWDFLT
  2
AcDbDictionaryWithDefault
  3
ObjectDBX Classes
 90
0
 91
0
280
0
281
0
  0
CLASS
  1
SUN
  2
AcDbSun
  3
SCENEOE
 90
1153
 91
0
280
0
281
0
  0
CLASS
  1
VISUALSTYLE
  2
AcDbVisualStyle
  3
ObjectDBX Classes
 90
4095
 91
0
280
0
281
0
  0
CLASS
  1
MATERIAL
  2
AcDbMaterial
  3
ObjectDBX Classes
 90
1153
 91
0
280
0
281
0
  0
CLASS
  1
SCALE
  2
AcDbScale
  3
ObjectDBX Classes
 90
1153
 91
0
280
0
281
0
  0
CLASS
  1
TABLESTYLE
  2
AcDbTableStyle
  3
ObjectDBX Classes
 90
4095
 91
0
280
0
281
0
  0
CLASS
  1
MLEADERSTYLE
  2
AcDbMLeaderStyle
  3
ACDB_MLEADERSTYLE_CLASS
 90
4095
 91
0
280
0
281
0
  0
CLASS
  1
DICTIONARYVAR
  2
AcDbDictionaryVar
  3
ObjectDBX Classes
 90
0
 91
0
280
0
281
0
  0
CLASS
  1
CELLSTYLEMAP
  2
AcDbCellStyleMap
  3
ObjectDBX Classes
 90
1152
 91
0
280
0
281
0
  0
CLASS
  1
MENTALRAYRENDERSETTINGS
  2
AcDbMentalRayRenderSettings
  3
SCENEOE
 90
1024
 91
0
280
0
281
0
  0
CLASS
  1
ACDBDETAILVIEWSTYLE
  2
AcDbDetailViewStyle
  3
ObjectDBX Classes
 90
1025
 91
0
280
0
281
0
  0
CLASS
  1
ACDBSECTIONVIEWSTYLE
  2
AcDbSectionViewStyle
  3
ObjectDBX Classes
 90
1025
 91
0
280
0
281
0
  0
CLASS
  1
RASTERVARIABLES
  2
AcDbRasterVariables
  3
ISM
 90
0
 91
0
280
0
281
0
  0
CLASS
  1
LAYOUT
  2
AcDbLayout
  3
ObjectDBX Classes
 90
0
 91
0
280
0
281
0
  0
CLASS
  1
ACDBPLACEHOLDER
  2
AcDbPlaceHolder
  3
ObjectDBX Classes
 90
0
 91
0
280
0
281
0
  0
ENDSEC
  0
SECTION
  2
TABLES
  0
TABLE
  2
VPORT
  5
8
330
0
100
AcDbSymbolTable
 70
1
  0
VPORT
  5
79
330
8
100
AcDbSymbolTableRecord
100
AcDbViewportTableRecord
  2
*Active
 70
0
 10
0.0
 20
0.0
 11
1.0
 21
1.0
 12
0.06309044555272791
 22
-0.31677132092123195
 13
0.0
 23
0.0
 14
0.5
 24
0.5
 15
0.5
 25
0.5
 16
0.0
 26
0.0
 36
1.0
 17
0.0
 27
0.0
 37
0.0
 40
16.701354645613215
 41
1.34
 42
50.0
 43
0.0
 44
0.0
 50
0.0
 51
0.0
 71
0
 72
1000
 73
1
 74
3
 75
0
 76
0
 77
0
 78
0
281
0
 65
1
110
0.0
120
0.0
130
0.0
111
1.0
121
0.0
131
0.0
112
0.0
122
1.0
132
0.0
 79
0
146
0.0
  0
ENDTAB
  0
TABLE
  2
LTYPE
  5
2
330
0
100
AcDbSymbolTable
 70
3
  0
LTYPE
  5
24
330
2
100
AcDbSymbolTableRecord
100
AcDbLinetypeTableRecord
  2
ByBlock
 70
0
  3

 72
65
 73
0
 40
0.0
  0
LTYPE
  5
25
330
2
100
AcDbSymbolTableRecord
100
AcDbLinetypeTableRecord
  2
ByLayer
 70
0
  3

 72
65
 73
0
 40
0.0
  0
LTYPE
  5
26
330
2
100
AcDbSymbolTableRecord
100
AcDbLinetypeTableRecord
  2
Continuous
 70
0
  3

 72
65
 73
0
 40
0.0
  0
ENDTAB
  0
TABLE
  2
LAYER
  5
1
330
0
100
AcDbSymbolTable
 70
3
  0
LAYER
  5
27
330
1
100
AcDbSymbolTableRecord
100
AcDbLayerTableRecord
  2
0
 70
0
 62
7
  6
Continuous
370
-3
390
13
347
21
  0
LAYER
  5
28
330
1
100
AcDbSymbolTableRecord
100
AcDbLayerTableRecord
  2
Defpoints
 70
0
 62
7
  6
Continuous
290
0
370
-3
390
13
347
21
  0
LAYER
  5
2F
330
1
100
AcDbSymbolTableRecord
100
AcDbLayerTableRecord
  2
visible
 70
0
 62
7
  6
Continuous
370
-3
390
13
347
21
  0
ENDTAB
  0
TABLE
  2
STYLE
  5
5
330
0
100
AcDbSymbolTable
 70
1
  0
STYLE
  5
29
330
5
100
AcDbSymbolTableRecord
100
AcDbTextStyleTableRecord
  2
Standard
 70
0
 40
0.0
 41
1.0
 50
0.0
 71
0
 42
2.5
  3
txt
  4

  0
ENDTAB
  0
TABLE
  2
VIEW
  5
7
330
0
100
AcDbSymbolTable
 70
0
  0
ENDTAB
  0
TABLE
  2
UCS
  5
6
330
0
100
AcDbSymbolTable
 70
0
  0
ENDTAB
  0
TABLE
  2
APPID
  5
3
330
0
100
AcDbSymbolTable
 70
3
  0
APPID
  5
2A
330
3
100
AcDbSymbolTableRecord
100
AcDbRegAppTableRecord
  2
ACAD
 70
0
  0
APPID
  5
7A
330
3
100
AcDbSymbolTableRecord
100
AcDbRegAppTableRecord
  2
HATCHBACKGROUNDCOLOR
 70
0
  0
APPID
  5
7B
330
3
100
AcDbSymbolTableRecord
100
AcDbRegAppTableRecord
  2
EZDXF
 70
0
  0
ENDTAB
  0
TABLE
  2
DIMSTYLE
  5
4
330
0
100
AcDbSymbolTable
 70
1
100
AcDbDimStyleTable
  0
DIMSTYLE
105
2B
330
4
100
AcDbSymbolTableRecord
100
AcDbDimStyleTableRecord
  2
Standard
 70
0
 40
1.0
 41
2.5
 42
0.625
 43
3.75
 44
1.25
 45
0.0
 46
0.0
 47
0.0
 48
0.0
 49
2.5
140
2.5
141
2.5
142
0.0
143
0.03937007874
144
1.0
145
0.0
146
1.0
147
0.625
148
0.0
 69
0
 70
0
 71
0
 72
0
 73
0
 74
0
 75
0
 76
0
 77
1
 78
8
 79
3
170
0
171
3
172
1
173
0
174
0
175
0
176
0
177
0
178
0
179
2
271
2
272
2
273
2
274
3
275
0
276
0
277
2
278
44
279
0
280
0
281
0
282
0
283
0
284
8
285
0
286
0
288
0
289
3
290
0
371
-2
372
-2
  0
ENDTAB
  0
TABLE
  2
BLOCK_RECORD
  5
9
330
0
100
AcDbSymbolTable
 70
2
  0
BLOCK_RECORD
  5
17
330
9
100
AcDbSymbolTableRecord
100
AcDbBlockTableRecord
  2
*Model_Space
340
1A
 70
0
280
1
281
0
  0
BLOCK_RECORD
  5
1B
330
9
100
AcDbSymbolTableRecord
100
AcDbBlockTableRecord
  2
*Paper_Space
340
1E
 70
0
280
1
281
0
  0
ENDTAB
  0
ENDSEC
  0
SECTION
  2
BLOCKS
  0
BLOCK
  5
18
330
17
100
AcDbEntity
  8
0
100
AcDbBlockBegin
  2
*Model_Space
 70
0
 10
0.0
 20
0.0
 30
0.0
  3
*Model_Space
  1

  0
ENDBLK
  5
19
330
17
100
AcDbEntity
  8
0
100
AcDbBlockEnd
  0
BLOCK
  5
1C
330
1B
100
AcDbEntity
  8
0
100
AcDbBlockBegin
  2
*Paper_Space
 70
0
 10
0.0
 20
0.0
 30
0.0
  3
*Paper_Space
  1

  0
ENDBLK
  5
1D
330
1B
100
AcDbEntity
  8
0
100
AcDbBlockEnd
  0
ENDSEC
  0
SECTION
  2
ENTITIES
  0
ELLIPSE
  5
30
330
17
100
AcDbEntity
  8
visible
100
AcDbEllipse
 10
0.0
 20
-4.018007712196994
 30
0.0
 11
2.425
 21
0.0
 31
0.0
 40
0.3258729614790666
 41
5.677640643574616
 42
6.283185307179586
  0
ELLIPSE
  5
31
330
17
100
AcDbEntity
  8
visible
100
AcDbEllipse
 10
0.0
 20
-4.018007712196994
 30
0.0
 11
2.425
 21
0.0
 31
0.0
 40
0.3258729614790666
 41
3.141592653589793
 42
5.677640643574616
  0
ELLIPSE
  5
32
330
17
100
AcDbEntity
  8
visible
100
AcDbEllipse
 10
0.0
 20
4.3961730355583875
 30
0.0
 11
2.425
 21
0.0
 31
0.0
 40
0.3258729614790666
 41
5.677640643574616
 42
6.283185307179586
  0
ELLIPSE
  5
33
330
17
100
AcDbEntity
  8
visible
100
AcDbEllipse
 10
0.0
 20
4.3961730355583875
 30
0.0
 11
2.425
 21
0.0
 31
0.0
 40
0.3258729614790666
 41
0.0
 42
0.04283379005246091
  0
ELLIPSE
  5
34
330
17
100
AcDbEntity
  8
visible
100
AcDbEllipse
 10
0.0
 20
4.3961730355583875
 30
0.0
 11
2.425
 21
0.0
 31
0.0
 40
0.3258729614790666
 41
2.827093077449445
 42
3.141592653589793
  0
ELLIPSE
  5
35
330
17
100
AcDbEntity
  8
visible
100
AcDbEllipse
 10
0.0
 20
4.3961730355583875
 30
0.0
 11
2.425
 21
0.0
 31
0.0
 40
0.3258729614790666
 41
3.141592653589793
 42
5.677640643574616
  0
ELLIPSE
  5
36
330
17
100
AcDbEntity
  8
visible
100
AcDbEllipse
 10
0.0
 20
4.3961730355583875
 30
0.0
 11
2.02
 21
0.0
 31
0.0
 40
0.3258729614790666
 41
3.141592653589793
 42
5.677640643574616
  0
LINE
  5
37
330
17
100
AcDbEntity
  8
visible
100
AcDbLine
 10
1.6608282271204327
 20
4.021482949718551
 30
0.0
 11
1.993816064736162
 21
3.946359442409078
 31
0.0
  0
SPLINE
  5
38
330
17
100
AcDbEntity
  8
visible
100
AcDbSpline
 70
0
 71
3
 72
11
 73
7
 74
0
 40
0.0
 40
0.0
 40
0.0
 40
0.0
 40
0.42872656675248283
 40
0.42872656675248283
 40
0.42872656675248283
 40
1.0
 40
1.0
 40
1.0
 40
1.0
 10
-1.8268308738724093
 20
4.3612544490412715
 30
0.0
 10
-1.5739095135763743
 20
4.219621017862109
 30
0.0
 10
-1.0654418544865025
 20
4.119831708483213
 30
0.0
 10
-0.4820313502224902
 20
4.109940236912964
 30
0.0
 10
0.295461513220744
 20
4.091780247769902
 30
0.0
 10
1.1723128080376801
 20
4.244041077925726
 30
0.0
 10
1.6354177849966212
 20
4.505373587556347
 30
0.0
  0
SPLINE
  5
39
330
17
100
AcDbEntity
  8
visible
100
AcDbSpline
 70
0
 71
3
 72
14
 73
10
 74
0
 40
0.0
 40
0.0
 40
0.0
 40
0.0
 40
0.3279159527158484
 40
0.3279159527158484
 40
0.3279159527158484
 40
0.653176596890826
 40
0.653176596890826
 40
0.653176596890826
 40
1.0
 40
1.0
 40
1.0
 40
1.0
 10
-1.826845313930105
 20
5.117591883260722
 30
0.0
 10
-1.632440814758072
 20
5.00967662261938
 30
0.0
 10
-1.2917406290285625
 20
4.924927594526311
 30
0.0
 10
-0.8786553944805516
 20
4.887624966681579
 30
0.0
 10
-0.4699650846604849
 20
4.849922296221791
 30
0.0
 10
0.0066910528756322155
 20
4.8593672271825294
 30
0.0
 10
0.4494822706834676
 20
4.91975916468706
 30
0.0
 10
0.9223139349337437
 20
4.983278152666308
 30
0.0
 10
1.352132537502157
 20
5.104680751950346
 30
0.0
 10
1.6353861578161344
 20
5.261683087727809
 30
0.0
  0
SPLINE
  5
3A
330
17
100
AcDbEntity
  8
visible
100
AcDbSpline
 70
0
 71
3
 72
14
 73
10
 74
0
 40
0.0
 40
0.0
 40
0.0
 40
0.0
 40
0.24411958176010579
 40
0.24411958176010579
 40
0.24411958176010579
 40
0.5575772873829379
 40
0.5575772873829379
 40
0.5575772873829379
 40
1.0
 40
1.0
 40
1.0
 40
1.0
 10
-1.8268623494778233
 20
5.873935334249937
 30
0.0
 10
-1.681745712159291
 20
5.7937271574468365
 30
0.0
 10
-1.4568054111028055
 20
5.725942466694508
 30
0.0
 10
-1.1798699466422875
 20
5.681465207553964
 30
0.0
 10
-0.8250252854723394
 20
5.623921157107185
 30
0.0
 10
-0.38488400025416253
 20
5.60580275964524
 30
0.0
 10
0.05284590800243637
 20
5.635950310418308
 30
0.0
 10
0.6719407157463981
 20
5.676779843319497
 30
0.0
 10
1.2750199850109547
 20
5.817075334382563
 30
0.0
 10
1.635355755616422
 20
6.018001466372763
 30
0.0
  0
SPLINE
  5
3B
330
17
100
AcDbEntity
  8
visible
100
AcDbSpline
 70
0
 71
3
 72
11
 73
7
 74
0
 40
0.0
 40
0.0
 40
0.0
 40
0.0
 40
0.7361320206435704
 40
0.7361320206435704
 40
0.7361320206435704
 40
1.0
 40
1.0
 40
1.0
 40
1.0
 10
-1.8268698501714056
 20
6.630276786556775
 30
0.0
 10
-1.5532201544480038
 20
6.476387434459788
 30
0.0
 10
-0.9763775409132461
 20
6.372790445757951
 30
0.0
 10
-0.33326601390204036
 20
6.377976116360584
 30
0.0
 10
-0.10144595068169199
 20
6.379311906557596
 30
0.0
 10
0.13009224900242514
 20
6.393713128984529
 30
0.0
 10
0.36134858515031054
 20
6.421179783641406
 30
0.0
  0
SPLINE
  5
3C
330
17
100
AcDbEntity
  8
visible
100
AcDbSpline
 70
0
 71
1
 72
4
 73
2
 74
0
 40
0.0
 40
0.0
 40
1.0
 40
1.0
 10
0.36134858515028223
 20
6.421179783641429
 30
0.0
 10
0.43379718704404946
 20
6.549459844505549
 30
0.0
  0
SPLINE
  5
3D
330
17
100
AcDbEntity
  8
visible
100
AcDbSpline
 70
0
 71
3
 72
11
 73
7
 74
0
 40
0.0
 40
0.0
 40
0.0
 40
0.0
 40
0.5201305102046279
 40
0.5201305102046279
 40
0.5201305102046279
 40
1.0402610204092557
 40
1.0402610204092557
 40
1.0402610204092557
 40
1.0402610204092557
 10
1.9938160647361634
 20
3.9463594424090793
 30
0.0
 10
2.231699262008082
 20
4.078748265784473
 30
0.0
 10
2.378479632034352
 20
4.231474737923467
 30
0.0
 10
2.415287166041668
 20
4.387590412274068
 30
0.0
 10
2.4530902253557
 20
4.543678348928728
 30
0.0
 10
2.3808572123403224
 20
4.7028037043915685
 30
0.0
 10
2.207869431906549
 20
4.847216677084491
 30
0.0
  0
SPLINE
  5
3E
330
17
100
AcDbEntity
  8
visible
100
AcDbSpline
 70
0
 71
3
 72
8
 73
4
 74
0
 40
0.0
 40
0.0
 40
0.0
 40
0.0
 40
1.0
 40
1.0
 40
1.0
 40
1.0
 10
-2.175966218516782
 20
5.141017592297667
 30
0.0
 10
-2.5071653168536483
 20
4.961708472541633
 30
0.0
 10
-2.507179451502534
 20
4.732748814924109
 30
0.0
 10
-2.175968406370778
 20
4.55343377643125
 30
0.0
  0
SPLINE
  5
3F
330
17
100
AcDbEntity
  8
visible
100
AcDbSpline
 70
0
 71
3
 72
14
 73
10
 74
0
 40
0.0
 40
0.0
 40
0.0
 40
0.0
 40
0.45431612988573056
 40
0.45431612988573056
 40
0.45431612988573056
 40
0.9086322597714611
 40
0.9086322597714611
 40
0.9086322597714611
 40
1.0
 40
1.0
 40
1.0
 40
1.0
 10
-2.175968406370778
 20
4.55343377643125
 30
0.0
 10
-1.8437950687602882
 20
4.367343926270354
 30
0.0
 10
-1.1684866592109562
 20
4.240258552455078
 30
0.0
 10
-0.4158952897553818
 20
4.237037223137347
 30
0.0
 10
0.33492076120723635
 20
4.230501863447433
 30
0.0
 10
1.141412955029783
 20
4.349055976627951
 30
0.0
 10
1.686215604555071
 20
4.56094182313079
 30
0.0
 10
1.7964902796728108
 20
4.603321393978867
 30
0.0
 10
1.8957674877723478
 20
4.648765296004333
 30
0.0
 10
1.9840472288536792
 20
4.697273529207185
 30
0.0
  0
SPLINE
  5
40
330
17
100
AcDbEntity
  8
visible
100
AcDbSpline
 70
0
 71
3
 72
11
 73
7
 74
0
 40
0.0
 40
0.0
 40
0.0
 40
0.0
 40
0.5
 40
0.5
 40
0.5
 40
1.0
 40
1.0
 40
1.0
 40
1.0
 10
1.9840472288536783
 20
4.697273529207183
 30
0.0
 10
2.226001745294921
 20
4.830014392522156
 30
0.0
 10
2.375965954940828
 20
4.983577560862562
 30
0.0
 10
2.4144933708313694
 20
5.140720703664698
 30
0.0
 10
2.4540377474022277
 20
5.29783283197151
 30
0.0
 10
2.3820468664096848
 20
5.458153315380528
 30
0.0
 10
2.207869210671158
 20
5.60355444203135
 30
0.0
  0
SPLINE
  5
41
330
17
100
AcDbEntity
  8
visible
100
AcDbSpline
 70
0
 71
3
 72
8
 73
4
 74
0
 40
0.0
 40
0.0
 40
0.0
 40
0.0
 40
1.0
 40
1.0
 40
1.0
 40
1.0
 10
-2.1759664324989036
 20
5.897346966945351
 30
0.0
 10
-2.507163805988151
 20
5.718038488767782
 30
0.0
 10
-2.507191416231777
 20
5.489083542094408
 30
0.0
 10
-2.1759885942451893
 20
5.309774486967259
 30
0.0
  0
SPLINE
  5
42
330
17
100
AcDbEntity
  8
visible
100
AcDbSpline
 70
0
 71
3
 72
14
 73
10
 74
0
 40
0.0
 40
0.0
 40
0.0
 40
0.0
 40
0.40693697545460006
 40
0.40693697545460006
 40
0.40693697545460006
 40
0.8138739509092001
 40
0.8138739509092001
 40
0.8138739509092001
 40
1.0
 40
1.0
 40
1.0
 40
1.0
 10
-2.1759885942451893
 20
5.309774486967259
 30
0.0
 10
-1.8776501679394448
 20
5.143471514868223
 30
0.0
 10
-1.3068973153794514
 20
5.023157387950838
 30
0.0
 10
-0.6480821478669486
 20
4.998583187693505
 30
0.0
 10
0.008917665289760807
 20
4.971882085342375
 30
0.0
 10
0.7417449943001739
 20
5.0420413020153845
 30
0.0
 10
1.3138148245597316
 20
5.197349305100052
 30
0.0
 10
1.5787105496617033
 20
5.268687188424381
 30
0.0
 10
1.8021099983042235
 20
5.354097953776534
 30
0.0
 10
1.9840131704872952
 20
5.4535816011565075
 30
0.0
  0
SPLINE
  5
43
330
17
100
AcDbEntity
  8
visible
100
AcDbSpline
 70
0
 71
3
 72
11
 73
7
 74
0
 40
0.0
 40
0.0
 40
0.0
 40
0.0
 40
0.5
 40
0.5
 40
0.5
 40
1.0
 40
1.0
 40
1.0
 40
1.0
 10
1.9840131704872956
 20
5.4535816011565075
 30
0.0
 10
2.2259639000622355
 20
5.586321694260538
 30
0.0
 10
2.3759360345078333
 20
5.739890496280736
 30
0.0
 10
2.414479957497381
 20
5.897042139336374
 30
0.0
 10
2.454039601093365
 20
6.054162589624536
 30
0.0
 10
2.3820576941531715
 20
6.214491778302084
 30
0.0
 10
2.207868046519082
 20
6.359897646224574
 30
0.0
  0
SPLINE
  5
44
330
17
100
AcDbEntity
  8
visible
100
AcDbSpline
 70
0
 71
3
 72
8
 73
4
 74
0
 40
0.0
 40
0.0
 40
0.0
 40
0.0
 40
1.0
 40
1.0
 40
1.0
 40
1.0
 10
-2.175975838545185
 20
6.65367282343534
 30
0.0
 10
-2.507170573037202
 20
6.474366222175595
 30
0.0
 10
-2.50719764253925
 20
6.245421324886904
 30
0.0
 10
-2.176003674442321
 20
6.066117913255064
 30
0.0
  0
SPLINE
  5
45
330
17
100
AcDbEntity
  8
visible
100
AcDbSpline
 70
0
 71
3
 72
14
 73
10
 74
0
 40
0.0
 40
0.0
 40
0.0
 40
0.0
 40
0.3595554740617023
 40
0.3595554740617023
 40
0.3595554740617023
 40
0.7191109481234046
 40
0.7191109481234046
 40
0.7191109481234046
 40
1.0
 40
1.0
 40
1.0
 40
1.0
 10
-2.176003674442321
 20
6.066117913255064
 30
0.0
 10
-1.911790415964182
 20
5.919432933815913
 30
0.0
 10
-1.4370818252762558
 20
5.807745588030928
 30
0.0
 10
-0.8740322586450661
 20
5.767463748938531
 30
0.0
 10
-0.31250140608893623
 20
5.725905675109637
 30
0.0
 10
0.33099348966929665
 20
5.756577093175938
 30
0.0
 10
0.8909248776552166
 20
5.859282187930853
 30
0.0
 10
1.3289332344771885
 20
5.938733603746477
 30
0.0
 10
1.7140404771769386
 20
6.060929989357024
 30
0.0
 10
1.9839729840808515
 20
6.209896009412415
 30
0.0
  0
SPLINE
  5
46
330
17
100
AcDbEntity
  8
visible
100
AcDbSpline
 70
0
 71
3
 72
11
 73
7
 74
0
 40
0.0
 40
0.0
 40
0.0
 40
0.0
 40
0.5
 40
0.5
 40
0.5
 40
1.0
 40
1.0
 40
1.0
 40
1.0
 10
1.9839729840808522
 20
6.209896009412417
 30
0.0
 10
2.263467998221144
 20
6.3630350089328
 30
0.0
 10
2.4192810786030865
 20
6.544037377288802
 30
0.0
 10
2.4247788142133557
 20
6.726069569345813
 30
0.0
 10
2.4320702757461516
 20
6.90809391862678
 30
0.0
 10
2.288997060841261
 20
7.090381663222828
 30
0.0
 10
2.019999999999998
 20
7.245875066210125
 30
0.0
  0
SPLINE
  5
47
330
17
100
AcDbEntity
  8
visible
100
AcDbSpline
 70
0
 71
3
 72
8
 73
4
 74
0
 40
0.0
 40
0.0
 40
0.0
 40
0.0
 40
1.0
 40
1.0
 40
1.0
 40
1.0
 10
-2.1759894626717418
 20
7.409999188434492
 30
0.0
 10
-2.507184449833247
 20
7.2306938703906605
 30
0.0
 10
-2.507191014598733
 20
7.001756684847527
 30
0.0
 10
-2.176001011886432
 20
6.822455203336883
 30
0.0
  0
SPLINE
  5
48
330
17
100
AcDbEntity
  8
visible
100
AcDbSpline
 70
0
 71
3
 72
11
 73
7
 74
0
 40
0.0
 40
0.0
 40
0.0
 40
0.0
 40
0.4999999999999986
 40
0.4999999999999986
 40
0.4999999999999986
 40
1.0
 40
1.0
 40
1.0
 40
1.0
 10
-2.176001011886432
 20
6.822455203336882
 30
0.0
 10
-1.946169921166823
 20
6.695262859032027
 30
0.0
 10
-1.559217482788452
 20
6.593879482603245
 30
0.0
 10
-1.0915554376481715
 20
6.543443609352175
 30
0.0
 10
-0.6249886868050151
 20
6.492303251475931
 30
0.0
 10
-0.0807047744784739
 20
6.492622269544736
 30
0.0
 10
0.43379718704404946
 20
6.549459844505549
 30
0.0
  0
LINE
  5
49
330
17
100
AcDbEntity
  8
visible
100
AcDbLine
 10
1.6608282271204324
 20
4.021482949718551
 30
0.0
 11
1.6608282271204324
 21
4.279612721427244
 31
0.0
  0
LINE
  5
4A
330
17
100
AcDbEntity
  8
visible
100
AcDbLine
 10
1.6608282271204324
 20
4.279612721427244
 30
0.0
 11
1.6608282271204324
 21
4.519373033925548
 31
0.0
  0
SPLINE
  5
4B
330
17
100
AcDbEntity
  8
visible
100
AcDbSpline
 70
0
 71
1
 72
4
 73
2
 74
0
 40
0.0
 40
0.0
 40
0.4884387429664056
 40
0.4884387429664056
 10
1.9938160647361622
 20
3.946359442409081
 30
0.0
 10
1.6608282271204322
 20
4.279612721427244
 30
0.0
  0
SPLINE
  5
4C
330
17
100
AcDbEntity
  8
visible
100
AcDbSpline
 70
0
 71
3
 72
8
 73
4
 74
0
 40
0.0
 40
0.0
 40
0.0
 40
0.0
 40
0.09439206934633677
 40
0.09439206934633677
 40
0.09439206934633677
 40
0.09439206934633677
 10
1.6608282271204318
 20
4.279612721427247
 30
0.0
 10
1.8888310500895305
 20
4.410323158311343
 30
0.0
 10
2.01557972396071
 20
4.563516571059348
 30
0.0
 10
2.0198430379460137
 20
4.7174902042091045
 30
0.0
  0
SPLINE
  5
4D
330
17
100
AcDbEntity
  8
visible
100
AcDbSpline
 70
0
 71
3
 72
17
 73
13
 74
0
 40
0.0
 40
0.0
 40
0.0
 40
0.0
 40
0.25782338979968206
 40
0.25782338979968206
 40
0.25782338979968206
 40
0.4496996645739259
 40
0.4496996645739259
 40
0.4496996645739259
 40
0.6909061477611003
 40
0.6909061477611003
 40
0.6909061477611003
 40
1.0
 40
1.0
 40
1.0
 40
1.0
 10
-2.019999994034487
 20
5.105358014172609
 30
0.0
 10
-2.021051149878144
 20
4.988026639204912
 30
0.0
 10
-1.872161167998978
 20
4.8711909616227755
 30
0.0
 10
-1.6033424573067934
 20
4.783677980109959
 30
0.0
 10
-1.404267021154926
 20
4.718371858145345
 30
0.0
 10
-1.1406437474674416
 20
4.669320341340487
 30
0.0
 10
-0.8426694488585839
 20
4.6443871057680415
 30
0.0
 10
-0.46846919355032096
 20
4.612661849655671
 30
0.0
 10
-0.04077546099127427
 20
4.619776982258986
 30
0.0
 10
0.3644223948745199
 20
4.6688188393559065
 30
0.0
 10
0.884655616851935
 20
4.730675980224612
 30
0.0
 10
1.3617353797665763
 20
4.862480399087809
 30
0.0
 10
1.6608282271204322
 20
5.035946799784292
 30
0.0
  0
LINE
  5
4E
330
17
100
AcDbEntity
  8
visible
100
AcDbLine
 10
1.6608282271204324
 20
5.03594679978429
 30
0.0
 11
1.6608282271204324
 21
5.275699950209394
 31
0.0
  0
SPLINE
  5
4F
330
17
100
AcDbEntity
  8
visible
100
AcDbSpline
 70
0
 71
3
 72
8
 73
4
 74
0
 40
0.0
 40
0.0
 40
0.0
 40
0.0
 40
0.0943954280279355
 40
0.0943954280279355
 40
0.0943954280279355
 40
0.0943954280279355
 10
1.6608282271204327
 20
5.035946799784291
 30
0.0
 10
1.8888248701699029
 20
5.166659028497692
 30
0.0
 10
2.0155792147128513
 20
5.319832767398817
 30
0.0
 10
2.019843171840375
 20
5.473818167774294
 30
0.0
  0
SPLINE
  5
50
330
17
100
AcDbEntity
  8
visible
100
AcDbSpline
 70
0
 71
3
 72
14
 73
10
 74
0
 40
0.0
 40
0.0
 40
0.0
 40
0.0
 40
0.3741644129322705
 40
0.3741644129322705
 40
0.3741644129322705
 40
0.6146216528425525
 40
0.6146216528425525
 40
0.6146216528425525
 40
1.0
 40
1.0
 40
1.0
 40
1.0
 10
-2.0200000022690996
 20
5.8616920151161205
 30
0.0
 10
-2.0244278145010943
 20
5.690950204302541
 30
0.0
 10
-1.7001965270144814
 20
5.523301574231784
 30
0.0
 10
-1.176785286587249
 20
5.440884295744354
 30
0.0
 10
-0.8433347923031805
 20
5.387140814439642
 30
0.0
 10
-0.4351572885772355
 20
5.367984479049063
 30
0.0
 10
-0.02435068926005416
 20
5.391109904389189
 30
0.0
 10
0.6357612625755078
 20
5.4261271169196155
 30
0.0
 10
1.2891012502650192
 20
5.575240634224376
 30
0.0
 10
1.6608282271204329
 20
5.792280451292104
 30
0.0
  0
LINE
  5
51
330
17
100
AcDbEntity
  8
visible
100
AcDbLine
 10
1.6608282271204324
 20
5.792280451292101
 30
0.0
 11
1.6608282271204324
 21
6.032035187372924
 31
0.0
  0
SPLINE
  5
52
330
17
100
AcDbEntity
  8
visible
100
AcDbSpline
 70
0
 71
3
 72
8
 73
4
 74
0
 40
0.0
 40
0.0
 40
0.0
 40
0.0
 40
0.09439498821937975
 40
0.09439498821937975
 40
0.09439498821937975
 40
0.09439498821937975
 10
1.6608282271204324
 20
5.792280451292106
 30
0.0
 10
1.8888360681844012
 20
5.922992966591378
 30
0.0
 10
2.015586826044515
 20
6.076164390414318
 30
0.0
 10
2.0198435121501914
 20
6.230156174438419
 30
0.0
  0
SPLINE
  5
53
330
17
100
AcDbEntity
  8
visible
100
AcDbSpline
 70
0
 71
3
 72
14
 73
10
 74
0
 40
0.0
 40
0.0
 40
0.0
 40
0.0
 40
0.3948196801261288
 40
0.3948196801261288
 40
0.3948196801261288
 40
0.7157832999194651
 40
0.7157832999194651
 40
0.7157832999194651
 40
1.0
 40
1.0
 40
1.0
 40
1.0
 10
-2.0200000097768585
 20
6.618026978381447
 30
0.0
 10
-2.0254322205368727
 20
6.437702543887174
 30
0.0
 10
-1.6619482397715246
 20
6.261383024824774
 30
0.0
 10
-1.0891091643135762
 20
6.184159164973282
 30
0.0
 10
-0.6281200811386441
 20
6.119698801324365
 30
0.0
 10
-0.043019605473513724
 20
6.121130460518358
 30
0.0
 10
0.4889766676734695
 20
6.1978517604430365
 30
0.0
 10
0.9606794930474858
 20
6.264595394108008
 30
0.0
 10
1.3855753635274393
 20
6.389256031632228
 30
0.0
 10
1.6608282271204318
 20
6.548607527187764
 30
0.0
  0
LINE
  5
54
330
17
100
AcDbEntity
  8
visible
100
AcDbLine
 10
1.6608282271204324
 20
6.548607527187763
 30
0.0
 11
1.6608282271204324
 21
6.95226500792548
 31
0.0
  0
ELLIPSE
  5
55
330
17
100
AcDbEntity
  8
visible
100
AcDbEllipse
 10
0.0
 20
7.326955093765317
 30
0.0
 11
2.02
 21
0.0
 31
0.0
 40
0.3258729614790666
 41
4.892242480170008
 42
5.677640643574616
  0
LINE
  5
56
330
17
100
AcDbEntity
  8
visible
100
AcDbLine
 10
0.433797187044049
 20
6.549459835542887
 30
0.0
 11
0.3613485851497166
 21
6.679309559109386
 31
0.0
  0
SPLINE
  5
57
330
17
100
AcDbEntity
  8
visible
100
AcDbSpline
 70
0
 71
3
 72
14
 73
10
 74
0
 40
0.0
 40
0.0
 40
0.0
 40
0.0
 40
0.41041366528880474
 40
0.41041366528880474
 40
0.41041366528880474
 40
0.6934120126752363
 40
0.6934120126752363
 40
0.6934120126752363
 40
1.0
 40
1.0
 40
1.0
 40
1.0
 10
-1.865414063936434
 20
7.579507767915548
 30
0.0
 10
-2.1709082165147384
 20
7.394282462776772
 30
0.0
 10
-2.180030122630217
 20
7.160649718911811
 30
0.0
 10
-1.8976951038500642
 20
6.96840595173015
 30
0.0
 10
-1.7066813919124344
 20
6.835403514670055
 30
0.0
 10
-1.385380919346325
 20
6.722315836828186
 30
0.0
 10
-0.9921408553357491
 20
6.648210786339936
 30
0.0
 10
-0.5668188128060698
 20
6.5673126591417805
 30
0.0
 10
-0.05950690491765071
 20
6.53262580047047
 30
0.0
 10
0.43379718704402986
 20
6.549459835542899
 30
0.0
  0
SPLINE
  5
58
330
17
100
AcDbEntity
  8
visible
100
AcDbSpline
 70
0
 71
3
 72
8
 73
4
 74
0
 40
0.0
 40
0.0
 40
0.0
 40
0.0
 40
0.11014629650445248
 40
0.11014629650445248
 40
0.11014629650445248
 40
0.11014629650445248
 10
1.6608282271204327
 20
6.548607527187764
 30
0.0
 10
1.8936623310312852
 20
6.682050491799426
 30
0.0
 10
2.020779283983784
 20
6.838933065466388
 30
0.0
 10
2.0200036977992077
 20
6.996177952832236
 30
0.0
  0
ELLIPSE
  5
59
330
17
100
AcDbEntity
  8
visible
100
AcDbEllipse
 10
0.0
 20
7.326955093765317
 30
0.0
 11
2.02
 21
0.0
 31
0.0
 40
0.3258729614790666
 41
5.677640643574616
 42
6.283185307179586
  0
ELLIPSE
  5
5A
330
17
100
AcDbEntity
  8
visible
100
AcDbEllipse
 10
0.0
 20
7.326955093765317
 30
0.0
 11
2.02
 21
0.0
 31
0.0
 40
0.3258729614790666
 41
0.0
 42
2.7478308084454675
  0
ELLIPSE
  5
5B
330
17
100
AcDbEntity
  8
visible
100
AcDbEllipse
 10
0.0
 20
-6.996060448762101
 30
0.0
 11
4.25
 21
0.0
 31
0.0
 40
0.3258729614790666
 41
5.677640643574616
 42
6.283185307179586
  0
ELLIPSE
  5
5C
330
17
100
AcDbEntity
  8
visible
100
AcDbEllipse
 10
0.0
 20
-6.996060448762101
 30
0.0
 11
4.25
 21
0.0
 31
0.0
 40
0.3258729614790666
 41
3.141592653589793
 42
5.677640643574616
  0
ELLIPSE
  5
5D
330
17
100
AcDbEntity
  8
visible
100
AcDbEllipse
 10
0.0
 20
-4.348902460704228
 30
0.0
 11
4.25
 21
0.0
 31
0.0
 40
0.3258729614790666
 41
5.677640643574616
 42
6.283185307179586
  0
ELLIPSE
  5
5E
330
17
100
AcDbEntity
  8
visible
100
AcDbEllipse
 10
0.0
 20
-4.348902460704228
 30
0.0
 11
4.25
 21
0.0
 31
0.0
 40
0.3258729614790666
 41
3.141592653589793
 42
5.677640643574616
  0
ELLIPSE
  5
5F
330
17
100
AcDbEntity
  8
visible
100
AcDbEllipse
 10
0.0
 20
-4.018007712196994
 30
0.0
 11
3.9
 21
0.0
 31
0.0
 40
0.3258729614790666
 41
5.677640643574616
 42
7.18294923607737
  0
ELLIPSE
  5
60
330
17
100
AcDbEntity
  8
visible
100
AcDbEllipse
 10
0.0
 20
-4.018007712196994
 30
0.0
 11
3.9
 21
0.0
 31
0.0
 40
0.3258729614790666
 41
2.2418287246920094
 42
5.677640643574616
  0
LINE
  5
61
330
17
100
AcDbEntity
  8
visible
100
AcDbLine
 10
4.25
 20
-6.996060448762101
 30
0.0
 11
4.25
 21
-4.348902460704228
 31
0.0
  0
LINE
  5
62
330
17
100
AcDbEntity
  8
visible
100
AcDbLine
 10
-4.25
 20
-6.996060448762101
 30
0.0
 11
-4.25
 21
-4.348902460704228
 31
0.0
  0
SPLINE
  5
63
330
17
100
AcDbEntity
  8
visible
100
AcDbSpline
 70
0
 71
2
 72
10
 73
7
 74
0
 40
0.0
 40
0.0
 40
0.0
 40
0.35816541523086176
 40
0.35816541523086176
 40
0.6418345847691382
 40
0.6418345847691382
 40
1.0
 40
1.0
 40
1.0
 10
3.3556088824937595
 20
-8.036144251743512
 30
0.0
 10
3.642821463557966
 20
-7.901574201687688
 30
0.0
 10
3.845105471141663
 20
-7.7369719251480635
 30
0.0
 10
4.00548424628217
 20
-7.6064255130373
 30
0.0
 10
4.106472891156047
 20
-7.4537319479177615
 30
0.0
 10
4.248244023725131
 20
-7.238124650570196
 30
0.0
 10
4.25
 20
-6.996060448762101
 30
0.0
  0
SPLINE
  5
64
330
17
100
AcDbEntity
  8
visible
100
AcDbSpline
 70
0
 71
3
 72
23
 73
19
 74
0
 40
0.0
 40
0.0
 40
0.0
 40
0.0
 40
0.14793031063060588
 40
0.14793031063060588
 40
0.14793031063060588
 40
0.29586062126121176
 40
0.29586062126121176
 40
0.29586062126121176
 40
0.5562090681081824
 40
0.5562090681081824
 40
0.5562090681081824
 40
0.7041393787387883
 40
0.7041393787387883
 40
0.7041393787387883
 40
0.8520696893693942
 40
0.8520696893693942
 40
0.8520696893693942
 40
1.0
 40
1.0
 40
1.0
 40
1.0
 10
-4.25
 20
-6.996060448762101
 30
0.0
 10
-4.248788009538811
 20
-7.159010180739146
 30
0.0
 10
-4.200059567542818
 20
-7.3129110442589695
 30
0.0
 10
-4.103814674012005
 20
-7.4577630393215735
 30
0.0
 10
-4.0333043666436
 20
-7.5632236485819915
 30
0.0
 10
-3.941551627496425
 20
-7.660747795890346
 30
0.0
 10
-3.828556456570483
 20
-7.7503354812466405
 30
0.0
 10
-3.629271932968572
 20
-7.907603757179974
 30
0.0
 10
-3.372147532894162
 20
-8.044477199570911
 30
0.0
 10
-3.0571832563472534
 20
-8.160955808419446
 30
0.0
 10
-2.5185816731142476
 20
-8.36196977626932
 30
0.0
 10
-1.814812090754146
 20
-8.504368819025233
 30
0.0
 10
-1.0472438765173395
 20
-8.571684307584444
 30
0.0
 10
0.024275189308574814
 20
-8.66744864372784
 30
0.0
 10
1.2071608787766204
 20
-8.609624248668183
 30
0.0
 10
2.151299239926912
 20
-8.413787044940857
 30
0.0
 10
2.618254558317309
 20
-8.317775430391714
 30
0.0
 10
3.0278513877855437
 20
-8.190443608054352
 30
0.0
 10
3.35560888249376
 20
-8.036144251743513
 30
0.0
  0
SPLINE
  5
65
330
17
100
AcDbEntity
  8
visible
100
AcDbSpline
 70
0
 71
2
 72
12
 73
9
 74
0
 40
0.0
 40
0.0
 40
0.0
 40
0.11415603515031411
 40
0.11415603515031411
 40
0.22831207030062822
 40
0.22831207030062822
 40
0.4292198242484295
 40
0.4292198242484295
 40
0.46978768828054784
 40
0.46978768828054784
 40
0.46978768828054784
 10
4.25
 20
-4.348902460704228
 30
0.0
 10
4.248182014308223
 20
-4.10447786273866
 30
0.0
 10
4.103814674012005
 20
-3.8871998701447543
 30
0.0
 10
3.9980492129593936
 20
-3.729008956254129
 30
0.0
 10
3.828556456570497
 20
-3.5946274282196855
 30
0.0
 10
3.5296296711676183
 20
-3.3587250143196905
 30
0.0
 10
3.057183256347269
 20
-3.184007101046889
 30
0.0
 10
2.7685780854312014
 20
-3.076684562655091
 30
0.0
 10
2.424999999999999
 20
-2.992647061763626
 30
0.0
  0
SPLINE
  5
66
330
17
100
AcDbEntity
  8
visible
100
AcDbSpline
 70
0
 71
3
 72
14
 73
10
 74
0
 40
0.0
 40
0.0
 40
0.0
 40
0.0
 40
0.303691164330684
 40
0.303691164330684
 40
0.303691164330684
 40
0.6518455821653423
 40
0.6518455821653423
 40
0.6518455821653423
 40
1.0
 40
1.0
 40
1.0
 40
1.0
 10
-2.424999999999999
 20
-2.9926022863095114
 30
0.0
 10
-3.032746811189297
 20
-3.142026653315347
 30
0.0
 10
-3.5180509423843476
 20
-3.3443173619264113
 30
0.0
 10
-3.836332310870023
 20
-3.6008543733691285
 30
0.0
 10
-3.947867494476349
 20
-3.690371015903898
 30
0.0
 10
-4.038301035243347
 20
-3.7877539948529724
 30
0.0
 10
-4.107632933171018
 20
-3.8930033102163533
 30
0.0
 10
-4.20139150452111
 20
-4.036250614036637
 30
0.0
 10
-4.248847193464111
 20
-4.1882169975326
 30
0.0
 10
-4.25
 20
-4.348902460704228
 30
0.0
  0
LINE
  5
67
330
17
100
AcDbEntity
  8
visible
100
AcDbLine
 10
2.4249999999999994
 20
-4.018007712196994
 30
0.0
 11
2.4249999999999994
 21
4.3961730355583875
 31
0.0
  0
LINE
  5
68
330
17
100
AcDbEntity
  8
visible
100
AcDbLine
 10
-2.4249999999999994
 20
-4.018007712196994
 30
0.0
 11
-2.4249999999999994
 21
4.3961730355583875
 31
0.0
  0
SPLINE
  5
69
330
17
100
AcDbEntity
  8
visible
100
AcDbSpline
 70
0
 71
1
 72
4
 73
2
 74
0
 40
0.0
 40
0.0
 40
1.0
 40
1.0
 10
-1.826830865041347
 20
4.361254450253785
 30
0.0
 10
-2.17596840637077
 20
4.5534337764312465
 30
0.0
  0
SPLINE
  5
6A
330
17
100
AcDbEntity
  8
visible
100
AcDbSpline
 70
0
 71
1
 72
4
 73
2
 74
0
 40
0.0
 40
0.0
 40
1.0
 40
1.0
 10
1.6354178320315933
 20
4.505373607258909
 30
0.0
 10
1.9840472288536795
 20
4.697273529207186
 30
0.0
  0
SPLINE
  5
6B
330
17
100
AcDbEntity
  8
visible
100
AcDbSpline
 70
0
 71
1
 72
4
 73
2
 74
0
 40
0.0
 40
0.0
 40
1.0
 40
1.0
 10
-1.8268453168417034
 20
5.117591882954104
 30
0.0
 10
-2.1759885942451866
 20
5.309774486967257
 30
0.0
  0
SPLINE
  5
6C
330
17
100
AcDbEntity
  8
visible
100
AcDbSpline
 70
0
 71
1
 72
4
 73
2
 74
0
 40
0.0
 40
0.0
 40
1.0
 40
1.0
 10
1.635386166126611
 20
5.261683085984002
 30
0.0
 10
1.9840131704872948
 20
5.453581601156506
 30
0.0
  0
SPLINE
  5
6D
330
17
100
AcDbEntity
  8
visible
100
AcDbSpline
 70
0
 71
1
 72
4
 73
2
 74
0
 40
0.0
 40
0.0
 40
1.0
 40
1.0
 10
-1.8268623442272833
 20
5.873935335248689
 30
0.0
 10
-2.1760036744423266
 20
6.066117913255063
 30
0.0
  0
SPLINE
  5
6E
330
17
100
AcDbEntity
  8
visible
100
AcDbSpline
 70
0
 71
1
 72
4
 73
2
 74
0
 40
0.0
 40
0.0
 40
1.0
 40
1.0
 10
1.6353557580084397
 20
6.018001467075113
 30
0.0
 10
1.983972984080851
 20
6.2098960094124145
 30
0.0
  0
SPLINE
  5
6F
330
17
100
AcDbEntity
  8
visible
100
AcDbSpline
 70
0
 71
1
 72
4
 73
2
 74
0
 40
0.0
 40
0.0
 40
1.0
 40
1.0
 10
-1.8268698916657016
 20
6.63027681754998
 30
0.0
 10
-2.1760010118864344
 20
6.822455203336881
 30
0.0
  0
LINE
  5
70
330
17
100
AcDbEntity
  8
visible
100
AcDbLine
 10
-2.0199999999999996
 20
4.3961730355583875
 30
0.0
 11
-2.0199999999999996
 21
4.467624349103955
 31
0.0
  0
LINE
  5
71
330
17
100
AcDbEntity
  8
visible
100
AcDbLine
 10
-2.0199999999999996
 20
5.105358003814327
 30
0.0
 11
-2.0199999999999996
 21
5.223953894493983
 31
0.0
  0
LINE
  5
72
330
17
100
AcDbEntity
  8
visible
100
AcDbLine
 10
-2.0199999999999996
 20
5.861692011536148
 30
0.0
 11
-2.0199999999999996
 21
5.980288553819539
 31
0.0
  0
LINE
  5
73
330
17
100
AcDbEntity
  8
visible
100
AcDbLine
 10
-2.0199999999999996
 20
6.618026978139577
 30
0.0
 11
-2.0199999999999996
 21
6.736626672277168
 31
0.0
  0
SPLINE
  5
74
330
17
100
AcDbEntity
  8
visible
100
AcDbSpline
 70
0
 71
1
 72
4
 73
2
 74
0
 40
0.0
 40
0.0
 40
0.43926893439235737
 40
0.43926893439235737
 10
-2.1759662185167796
 20
5.141017592297667
 30
0.0
 10
-2.0226098697965638
 20
5.225390272484757
 30
0.0
  0
SPLINE
  5
75
330
17
100
AcDbEntity
  8
visible
100
AcDbSpline
 70
0
 71
1
 72
4
 73
2
 74
0
 40
0.0
 40
0.0
 40
0.43928510985462155
 40
0.43928510985462155
 10
-2.175966432498903
 20
5.897346966945353
 30
0.0
 10
-2.0226052814460473
 20
5.981722414480451
 30
0.0
  0
SPLINE
  5
76
330
17
100
AcDbEntity
  8
visible
100
AcDbSpline
 70
0
 71
1
 72
4
 73
2
 74
0
 40
0.0
 40
0.0
 40
0.43932781406928095
 40
0.43932781406928095
 10
-2.175975838545181
 20
6.65367282343534
 30
0.0
 10
-2.022598875892351
 20
6.738057018190229
 30
0.0
  0
SPLINE
  5
77
330
17
100
AcDbEntity
  8
visible
100
AcDbSpline
 70
0
 71
1
 72
4
 73
2
 74
0
 40
0.0
 40
0.0
 40
0.9077821755813862
 40
0.9077821755813862
 10
-2.175989462671743
 20
7.40999918843449
 30
0.0
 10
-1.8590552273463004
 20
7.584438797007877
 30
0.0
  0
LINE
  5
78
330
17
100
AcDbEntity
  8
visible
100
AcDbLine
 10
2.0199999999999996
 20
6.996181670832987
 30
0.0
 11
2.0199999999999996
 21
7.326955093765317
 31
0.0
  0
ENDSEC
  0
SECTION
  2
OBJECTS
  0
DICTIONARY
  5
A
330
0
100
AcDbDictionary
281
1
  3
ACAD_COLOR
350
B
  3
ACAD_GROUP
350
C
  3
ACAD_LAYOUT
350
D
  3
ACAD_MATERIAL
350
E
  3
ACAD_MLEADERSTYLE
350
F
  3
ACAD_MLINESTYLE
350
10
  3
ACAD_PLOTSETTINGS
350
11
  3
ACAD_PLOTSTYLENAME
350
12
  3
ACAD_SCALELIST
350
14
  3
ACAD_TABLESTYLE
350
15
  3
ACAD_VISUALSTYLE
350
16
  3
EZDXF_META
350
2D
  0
DICTIONARY
  5
B
330
A
100
AcDbDictionary
281
1
  0
DICTIONARY
  5
C
330
A
100
AcDbDictionary
281
1
  0
DICTIONARY
  5
D
330
A
100
AcDbDictionary
281
1
  3
Model
350
1A
  3
Layout1
350
1E
  0
DICTIONARY
  5
E
330
A
100
AcDbDictionary
281
1
  3
ByBlock
350
1F
  3
ByLayer
350
20
  3
Global
350
21
  0
DICTIONARY
  5
F
330
A
100
AcDbDictionary
281
1
  3
Standard
350
2C
  0
DICTIONARY
  5
10
330
A
100
AcDbDictionary
281
1
  3
Standard
350
22
  0
DICTIONARY
  5
11
330
A
100
AcDbDictionary
281
1
  0
ACDBDICTIONARYWDFLT
  5
12
330
A
100
AcDbDictionary
281
1
  3
Normal
350
13
100
AcDbDictionaryWithDefault
340
13
  0
ACDBPLACEHOLDER
  5
13
330
12
  0
DICTIONARY
  5
14
330
A
100
AcDbDictionary
281
1
  0
DICTIONARY
  5
15
330
A
100
AcDbDictionary
281
1
  0
DICTIONARY
  5
16
330
A
100
AcDbDictionary
281
1
  0
LAYOUT
  5
1A
330
D
100
AcDbPlotSettings
  1

  4
A3
  6

 40
7.5
 41
20.0
 42
7.5
 43
20.0
 44
420.0
 45
297.0
 46
0.0
 47
0.0
 48
0.0
 49
0.0
140
0.0
141
0.0
142
1.0
143
1.0
 70
1024
 72
1
 73
0
 74
5
  7

 75
16
 76
0
 77
2
 78
300
147
1.0
148
0.0
149
0.0
100
AcDbLayout
  1
Model
 70
1
 71
0
 10
0.0
 20
0.0
 11
420.0
 21
297.0
 12
0.0
 22
0.0
 32
0.0
 14
1e+20
 24
1e+20
 34
1e+20
 15
-1e+20
 25
-1e+20
 35
-1e+20
146
0.0
 13
0.0
 23
0.0
 33
0.0
 16
1.0
 26
0.0
 36
0.0
 17
0.0
 27
1.0
 37
0.0
 76
1
330
17
  0
LAYOUT
  5
1E
330
D
100
AcDbPlotSettings
  1

  4
A3
  6

 40
7.5
 41
20.0
 42
7.5
 43
20.0
 44
420.0
 45
297.0
 46
0.0
 47
0.0
 48
0.0
 49
0.0
140
0.0
141
0.0
142
1.0
143
1.0
 70
0
 72
1
 73
0
 74
5
  7

 75
16
 76
0
 77
2
 78
300
147
1.0
148
0.0
149
0.0
100
AcDbLayout
  1
Layout1
 70
1
 71
1
 10
0.0
 20
0.0
 11
420.0
 21
297.0
 12
0.0
 22
0.0
 32
0.0
 14
1e+20
 24
1e+20
 34
1e+20
 15
-1e+20
 25
-1e+20
 35
-1e+20
146
0.0
 13
0.0
 23
0.0
 33
0.0
 16
1.0
 26
0.0
 36
0.0
 17
0.0
 27
1.0
 37
0.0
 76
1
330
1B
  0
MATERIAL
  5
1F
102
{ACAD_REACTORS
330
E
102
}
330
E
100
AcDbMaterial
  1
ByBlock
  2

 70
0
 40
1.0
 71
1
 41
1.0
 91
-1023410177
 42
1.0
 72
1
  3

 73
1
 74
1
 75
1
 44
0.5
 73
0
 45
1.0
 46
1.0
 77
1
  4

 78
1
 79
1
170
1
 48
1.0
171
1
  6

172
1
173
1
174
1
140
1.0
141
1.0
175
1
  7

176
1
177
1
178
1
143
1.0
179
1
  8

270
1
271
1
272
1
145
1.0
146
1.0
273
1
  9

274
1
275
1
276
1
 42
1.0
 72
1
  3

 73
1
 74
1
 75
1
 94
63
  0
MATERIAL
  5
20
102
{ACAD_REACTORS
330
E
102
}
330
E
100
AcDbMaterial
  1
ByLayer
  2

 70
0
 40
1.0
 71
1
 41
1.0
 91
-1023410177
 42
1.0
 72
1
  3

 73
1
 74
1
 75
1
 44
0.5
 73
0
 45
1.0
 46
1.0
 77
1
  4

 78
1
 79
1
170
1
 48
1.0
171
1
  6

172
1
173
1
174
1
140
1.0
141
1.0
175
1
  7

176
1
177
1
178
1
143
1.0
179
1
  8

270
1
271
1
272
1
145
1.0
146
1.0
273
1
  9

274
1
275
1
276
1
 42
1.0
 72
1
  3

 73
1
 74
1
 75
1
 94
63
  0
MATERIAL
  5
21
102
{ACAD_REACTORS
330
E
102
}
330
E
100
AcDbMaterial
  1
Global
  2

 70
0
 40
1.0
 71
1
 41
1.0
 91
-1023410177
 42
1.0
 72
1
  3

 73
1
 74
1
 75
1
 44
0.5
 73
0
 45
1.0
 46
1.0
 77
1
  4

 78
1
 79
1
170
1
 48
1.0
171
1
  6

172
1
173
1
174
1
140
1.0
141
1.0
175
1
  7

176
1
177
1
178
1
143
1.0
179
1
  8

270
1
271
1
272
1
145
1.0
146
1.0
273
1
  9

274
1
275
1
276
1
 42
1.0
 72
1
  3

 73
1
 74
1
 75
1
 94
63
  0
MLINESTYLE
  5
22
102
{ACAD_REACTORS
330
10
102
}
330
10
100
AcDbMlineStyle
  2
Standard
 70
0
  3

 62
256
 51
90.0
 52
90.0
 71
2
 49
0.5
 62
256
  6
BYLAYER
 49
-0.5
 62
256
  6
BYLAYER
  0
MLEADERSTYLE
  5
2C
102
{ACAD_REACTORS
330
F
102
}
330
F
100
AcDbMLeaderStyle
179
2
170
2
171
1
172
0
 90
2
 40
0.0
 41
0.0
173
1
 91
-1056964608
 92
-2
290
1
 42
2.0
291
1
 43
8.0
  3
Standard
 44
4.0
300

342
29
174
1
175
1
176
0
178
1
 93
-1056964608
 45
4.0
292
0
297
0
 46
4.0
 94
-1056964608
 47
1.0
 49
1.0
140
1.0
294
1
141
0.0
177
0
142
1.0
295
0
296
0
143
3.75
271
0
272
9
273
9
  0
DICTIONARY
  5
2D
330
A
100
AcDbDictionary
280
1
281
1
  3
CREATED_BY_EZDXF
350
2E
  3
WRITTEN_BY_EZDXF
350
7C
  0
DICTIONARYVAR
  5
2E
330
2D
100
DictionaryVariables
280
0
  1
1.4.4 @ 2026-10-03T15:56:53.797891+00:00
  0
DICTIONARYVAR
  5
7C
330
2D
100
DictionaryVariables
280
0
  1
1.4.4 @ 2026-10-03T15:56:53.831400+00:00
  0
ENDSEC
  0
EOF
