# https://github.com/mikedh/trimesh

o printed_idler_outer_washer.stl
v 3.74533844 0.18692207 2.50000000
v 3.75000000 -0.00000000 2.50000000
v 3.75000000 -0.00000000 0.00000000
v 3.74533844 0.18692207 0.00000000
v 3.73136544 0.37337944 2.50000000
v 3.73136544 0.37337944 0.00000000
v 3.70811558 0.55890852 2.50000000
v 3.70811558 0.55890852 0.00000000
v 3.67564678 0.74304801 2.50000000
v 3.67564678 0.74304801 0.00000000
v 3.63403988 0.92534024 2.50000000
v 3.63403988 0.92534024 0.00000000
v 3.58339810 1.10533190 2.50000000
v 3.58339810 1.10533190 0.00000000
v 3.52384734 1.28257549 2.50000000
v 3.52384734 1.28257549 0.00000000
v 3.45553589 1.45663047 0.00000000
v 3.45553589 1.45663047 2.50000000
v 3.37863326 1.62706399 2.50000000
v 3.37863326 1.62706399 0.00000000
v 3.29333091 1.79345238 2.50000000
v 3.29333091 1.79345238 0.00000000
v 3.19984078 1.95538199 2.50000000
v 3.19984078 1.95538199 0.00000000
v 3.09839535 2.11245012 0.00000000
v 3.09839535 2.11245012 2.50000000
v 2.98924685 2.26426649 2.50000000
v 2.98924685 2.26426649 0.00000000
v 2.87266660 2.41045356 2.50000000
v 2.87266660 2.41045356 0.00000000
v 2.74894452 2.55064774 2.50000000
v 2.74894452 2.55064774 0.00000000
v 2.61838818 2.68450069 0.00000000
v 2.61838818 2.68450069 2.50000000
v 2.48132181 2.81167960 2.50000000
v 2.48132181 2.81167960 0.00000000
v 2.33808684 2.93186808 2.50000000
v 2.33808684 2.93186808 0.00000000
v 2.18903875 3.04476762 0.00000000
v 2.18903875 3.04476762 2.50000000
v 2.03454852 3.15009713 2.50000000
v 2.03454852 3.15009713 0.00000000
v 1.87500000 3.24759531 2.50000000
v 1.87500000 3.24759531 0.00000000
v 1.71078992 3.33701921 2.50000000
v 1.71078992 3.33701921 0.00000000
v 1.54232669 3.41814685 2.50000000
v 1.54232669 3.41814685 0.00000000
v 1.37002885 3.49077654 2.50000000
v 1.37002885 3.49077654 0.00000000
v 1.19432497 3.55472755 2.50000000
v 1.19432497 3.55472755 0.00000000
v 1.01565170 3.60984087 2.50000000
v 1.01565170 3.60984087 0.00000000
v 0.83445352 3.65597963 2.50000000
v 0.83445352 3.65597963 0.00000000
v 0.65118068 3.69302917 2.50000000
v 0.65118068 3.69302917 0.00000000
v 0.46628889 3.72089696 0.00000000
v 0.46628889 3.72089696 2.50000000
v 0.28023785 3.73951435 2.50000000
v 0.28023785 3.73951435 0.00000000
v 0.09349009 3.74883437 2.50000000
v 0.09349009 3.74883437 0.00000000
v -0.09349009 3.74883437 2.50000000
v -0.09349009 3.74883437 0.00000000
v -0.28023785 3.73951435 2.50000000
v -0.28023785 3.73951435 0.00000000
v -0.46628889 3.72089696 2.50000000
v -0.46628889 3.72089696 0.00000000
v -0.65118068 3.69302917 2.50000000
v -0.65118068 3.69302917 0.00000000
v -0.83445352 3.65597963 2.50000000
v -0.83445352 3.65597963 0.00000000
v -1.01565170 3.60984087 2.50000000
v -1.01565170 3.60984087 0.00000000
v -1.19432497 3.55472755 0.00000000
v -1.19432497 3.55472755 2.50000000
v -1.37002885 3.49077654 0.00000000
v -1.37002885 3.49077654 2.50000000
v -1.54232669 3.41814685 2.50000000
v -1.54232669 3.41814685 0.00000000
v -1.71078992 3.33701921 2.50000000
v -1.71078992 3.33701921 0.00000000
v -1.87500000 3.24759531 2.50000000
v -1.87500000 3.24759531 0.00000000
v -2.03454852 3.15009713 2.50000000
v -2.03454852 3.15009713 0.00000000
v -2.18903875 3.04476762 2.50000000
v -2.18903875 3.04476762 0.00000000
v -2.33808684 2.93186808 2.50000000
v -2.33808684 2.93186808 0.00000000
v -2.48132181 2.81167960 2.50000000
v -2.48132181 2.81167960 0.00000000
v -2.61838818 2.68450069 0.00000000
v -2.61838818 2.68450069 2.50000000
v -2.74894452 2.55064774 2.50000000
v -2.74894452 2.55064774 0.00000000
v -2.87266660 2.41045356 2.50000000
v -2.87266660 2.41045356 0.00000000
v -2.98924685 2.26426649 2.50000000
v -2.98924685 2.26426649 0.00000000
v -3.09839535 2.11245012 0.00000000
v -3.09839535 2.11245012 2.50000000
v -3.19984078 1.95538199 2.50000000
v -3.19984078 1.95538199 0.00000000
v -3.29333091 1.79345238 0.00000000
v -3.29333091 1.79345238 2.50000000
v -3.37863326 1.62706399 2.50000000
v -3.37863326 1.62706399 0.00000000
v -3.45553589 1.45663047 0.00000000
v -3.45553589 1.45663047 2.50000000
v -3.52384734 1.28257549 2.50000000
v -3.52384734 1.28257549 0.00000000
v -3.58339810 1.10533190 2.50000000
v -3.58339810 1.10533190 0.00000000
v -3.63403988 0.92534024 0.00000000
v -3.63403988 0.92534024 2.50000000
v -3.67564678 0.74304801 2.50000000
v -3.67564678 0.74304801 0.00000000
v -3.70811558 0.55890852 2.50000000
v -3.70811558 0.55890852 0.00000000
v -3.73136544 0.37337944 2.50000000
v -3.73136544 0.37337944 0.00000000
v -3.74533844 0.18692207 2.50000000
v -3.74533844 0.18692207 0.00000000
v -3.75000000 -0.00000000 0.00000000
v -3.75000000 -0.00000000 2.50000000
v -3.74533844 -0.18692207 0.00000000
v -3.74533844 -0.18692207 2.50000000
v -3.73136544 -0.37337944 2.50000000
v -3.73136544 -0.37337944 0.00000000
v -3.70811558 -0.55890852 0.00000000
v -3.70811558 -0.55890852 2.50000000
v -3.67564678 -0.74304801 0.00000000
v -3.67564678 -0.74304801 2.50000000
v -3.63403988 -0.92534024 0.00000000
v -3.63403988 -0.92534024 2.50000000
v -3.58339810 -1.10533190 2.50000000
v -3.58339810 -1.10533190 0.00000000
v -3.52384734 -1.28257549 0.00000000
v -3.52384734 -1.28257549 2.50000000
v -3.45553589 -1.45663047 2.50000000
v -3.45553589 -1.45663047 0.00000000
v -3.37863326 -1.62706399 2.50000000
v -3.37863326 -1.62706399 0.00000000
v -3.29333091 -1.79345238 0.00000000
v -3.29333091 -1.79345238 2.50000000
v -3.19984078 -1.95538199 2.50000000
v -3.19984078 -1.95538199 0.00000000
v -3.09839535 -2.11245012 2.50000000
v -3.09839535 -2.11245012 0.00000000
v -2.98924685 -2.26426649 2.50000000
v -2.98924685 -2.26426649 0.00000000
v -2.87266660 -2.41045356 0.00000000
v -2.87266660 -2.41045356 2.50000000
v -2.74894452 -2.55064774 2.50000000
v -2.74894452 -2.55064774 0.00000000
v -2.61838818 -2.68450069 2.50000000
v -2.61838818 -2.68450069 0.00000000
v -2.48132181 -2.81167960 0.00000000
v -2.48132181 -2.81167960 2.50000000
v -2.33808684 -2.93186808 2.50000000
v -2.33808684 -2.93186808 0.00000000
v -2.18903875 -3.04476762 2.50000000
v -2.18903875 -3.04476762 0.00000000
v -2.03454852 -3.15009713 2.50000000
v -2.03454852 -3.15009713 0.00000000
v -1.87500000 -3.24759531 0.00000000
v -1.87500000 -3.24759531 2.50000000
v -1.71078992 -3.33701921 2.50000000
v -1.71078992 -3.33701921 0.00000000
v -1.54232669 -3.41814685 2.50000000
v -1.54232669 -3.41814685 0.00000000
v -1.37002885 -3.49077654 2.50000000
v -1.37002885 -3.49077654 0.00000000
v -1.19432497 -3.55472755 2.50000000
v -1.19432497 -3.55472755 0.00000000
v -1.01565170 -3.60984087 2.50000000
v -1.01565170 -3.60984087 0.00000000
v -0.83445352 -3.65597963 2.50000000
v -0.83445352 -3.65597963 0.00000000
v -0.65118068 -3.69302917 2.50000000
v -0.65118068 -3.69302917 0.00000000
v -0.46628889 -3.72089696 0.00000000
v -0.46628889 -3.72089696 2.50000000
v -0.28023785 -3.73951435 2.50000000
v -0.28023785 -3.73951435 0.00000000
v -0.09349009 -3.74883437 2.50000000
v -0.09349009 -3.74883437 0.00000000
v 0.09349009 -3.74883437 2.50000000
v 0.09349009 -3.74883437 0.00000000
v 0.28023785 -3.73951435 2.50000000
v 0.28023785 -3.73951435 0.00000000
v 0.46628889 -3.72089696 2.50000000
v 0.46628889 -3.72089696 0.00000000
v 0.65118068 -3.69302917 2.50000000
v 0.65118068 -3.69302917 0.00000000
v 0.83445352 -3.65597963 2.50000000
v 0.83445352 -3.65597963 0.00000000
v 1.01565170 -3.60984087 2.50000000
v 1.01565170 -3.60984087 0.00000000
v 1.19432497 -3.55472755 2.50000000
v 1.19432497 -3.55472755 0.00000000
v 1.37002885 -3.49077654 2.50000000
v 1.37002885 -3.49077654 0.00000000
v 1.54232669 -3.41814685 2.50000000
v 1.54232669 -3.41814685 0.00000000
v 1.71078992 -3.33701921 2.50000000
v 1.71078992 -3.33701921 0.00000000
v 1.87500000 -3.24759531 0.00000000
v 1.87500000 -3.24759531 2.50000000
v 2.03454852 -3.15009713 2.50000000
v 2.03454852 -3.15009713 0.00000000
v 2.18903875 -3.04476762 2.50000000
v 2.18903875 -3.04476762 0.00000000
v 2.33808684 -2.93186808 2.50000000
v 2.33808684 -2.93186808 0.00000000
v 2.48132181 -2.81167960 2.50000000
v 2.48132181 -2.81167960 0.00000000
v 2.61838818 -2.68450069 2.50000000
v 2.61838818 -2.68450069 0.00000000
v 2.74894452 -2.55064774 2.50000000
v 2.74894452 -2.55064774 0.00000000
v 2.87266660 -2.41045356 2.50000000
v 2.87266660 -2.41045356 0.00000000
v 2.98924685 -2.26426649 2.50000000
v 2.98924685 -2.26426649 0.00000000
v 3.09839535 -2.11245012 2.50000000
v 3.09839535 -2.11245012 0.00000000
v 3.19984078 -1.95538199 2.50000000
v 3.19984078 -1.95538199 0.00000000
v 3.29333091 -1.79345238 2.50000000
v 3.29333091 -1.79345238 0.00000000
v 3.37863326 -1.62706399 2.50000000
v 3.37863326 -1.62706399 0.00000000
v 3.45553589 -1.45663047 2.50000000
v 3.45553589 -1.45663047 0.00000000
v 3.52384734 -1.28257549 2.50000000
v 3.52384734 -1.28257549 0.00000000
v 3.58339810 -1.10533190 0.00000000
v 3.58339810 -1.10533190 2.50000000
v 3.63403988 -0.92534024 2.50000000
v 3.63403988 -0.92534024 0.00000000
v 3.67564678 -0.74304801 2.50000000
v 3.67564678 -0.74304801 0.00000000
v 3.70811558 -0.55890852 2.50000000
v 3.70811558 -0.55890852 0.00000000
v 3.73136544 -0.37337944 2.50000000
v 3.73136544 -0.37337944 0.00000000
v 3.74533844 -0.18692207 2.50000000
v 3.74533844 -0.18692207 0.00000000
v -1.90593481 -1.76844907 2.50000000
v -1.81541574 -1.86125386 2.50000000
v -1.72038317 -1.94943118 2.50000000
v -1.99171555 -1.67124784 2.50000000
v -1.62107348 -2.03276181 2.50000000
v -2.07254457 -1.56989145 2.50000000
v -1.51773357 -2.11103892 2.50000000
v -2.14822078 -1.46463215 2.50000000
v -1.41062033 -2.18406749 2.50000000
v -2.21855640 -1.35573149 2.50000000
v -1.29999995 -2.25166607 2.50000000
v -2.28337598 -1.24346030 2.50000000
v -1.18614769 -2.31366682 2.50000000
v -2.34251904 -1.12809777 2.50000000
v -1.06934643 -2.36991525 2.50000000
v -2.39583826 -1.00993049 2.50000000
v -0.94988668 -2.42027164 2.50000000
v -2.44320083 -0.88925236 2.50000000
v -0.82806528 -2.46461105 2.50000000
v -2.48448920 -0.76636344 2.50000000
v -0.70418519 -2.50282311 2.50000000
v -2.51960087 -0.64156926 2.50000000
v -0.57855445 -2.53481269 2.50000000
v -2.54844856 -0.51517999 2.50000000
v -0.45148528 -2.56050014 2.50000000
v -2.57096004 -0.38750988 2.50000000
v -0.32329363 -2.57982183 2.50000000
v -2.58708000 -0.25887641 2.50000000
v -0.19429824 -2.59272981 2.50000000
v -2.59676790 -0.12959930 2.50000000
v -0.06481980 -2.59919190 2.50000000
v -2.59999990 -0.00000000 2.50000000
v 0.06481980 -2.59919190 2.50000000
v -2.59676790 0.12959930 2.50000000
v 0.19429824 -2.59272981 2.50000000
v -2.58708000 0.25887641 2.50000000
v 0.32329363 -2.57982183 2.50000000
v -2.57096004 0.38750988 2.50000000
v 0.45148528 -2.56050014 2.50000000
v -2.54844856 0.51517999 2.50000000
v 0.57855445 -2.53481269 2.50000000
v -2.51960087 0.64156926 2.50000000
v 0.70418519 -2.50282311 2.50000000
v -2.48448920 0.76636344 2.50000000
v 0.82806528 -2.46461105 2.50000000
v -2.44320083 0.88925236 2.50000000
v 0.94988668 -2.42027164 2.50000000
v -2.39583826 1.00993049 2.50000000
v 1.06934643 -2.36991525 2.50000000
v -2.34251904 1.12809777 2.50000000
v 1.18614769 -2.31366682 2.50000000
v -2.28337598 1.24346030 2.50000000
v 1.29999995 -2.25166607 2.50000000
v -2.21855640 1.35573149 2.50000000
v 1.41062033 -2.18406749 2.50000000
v -2.14822078 1.46463215 2.50000000
v 1.51773357 -2.11103892 2.50000000
v -2.07254457 1.56989145 2.50000000
v 1.62107348 -2.03276181 2.50000000
v -1.99171555 1.67124784 2.50000000
v 1.72038317 -1.94943118 2.50000000
v -1.90593481 1.76844907 2.50000000
v 1.81541574 -1.86125386 2.50000000
v -1.81541574 1.86125386 2.50000000
v 1.90593481 -1.76844907 2.50000000
v -1.72038317 1.94943118 2.50000000
v -1.62107348 2.03276181 2.50000000
v 1.99171555 -1.67124784 2.50000000
v 2.07254457 -1.56989145 2.50000000
v -1.51773357 2.11103892 2.50000000
v -1.41062033 2.18406749 2.50000000
v 2.14822078 -1.46463215 2.50000000
v 2.21855640 -1.35573149 2.50000000
v -1.29999995 2.25166607 2.50000000
v 2.28337598 -1.24346030 2.50000000
v -1.18614769 2.31366682 2.50000000
v 2.34251904 -1.12809777 2.50000000
v -1.06934643 2.36991525 2.50000000
v 2.39583826 -1.00993049 2.50000000
v -0.94988668 2.42027164 2.50000000
v 2.44320083 -0.88925236 2.50000000
v -0.82806528 2.46461105 2.50000000
v -0.70418519 2.50282311 2.50000000
v 2.48448920 -0.76636344 2.50000000
v 2.51960087 -0.64156926 2.50000000
v 2.54844856 -0.51517999 2.50000000
v -0.57855445 2.53481269 2.50000000
v -0.45148528 2.56050014 2.50000000
v 2.57096004 -0.38750988 2.50000000
v -0.32329363 2.57982183 2.50000000
v 2.58708000 -0.25887641 2.50000000
v -0.19429824 2.59272981 2.50000000
v 2.59676790 -0.12959930 2.50000000
v 2.59999990 -0.00000000 2.50000000
v -0.06481980 2.59919190 2.50000000
v 0.06481980 2.59919190 2.50000000
v 2.59676790 0.12959930 2.50000000
v 0.19429824 2.59272981 2.50000000
v 2.58708000 0.25887641 2.50000000
v 0.32329363 2.57982183 2.50000000
v 0.45148528 2.56050014 2.50000000
v 2.57096004 0.38750988 2.50000000
v 2.54844856 0.51517999 2.50000000
v 2.51960087 0.64156926 2.50000000
v 0.57855445 2.53481269 2.50000000
v 2.48448920 0.76636344 2.50000000
v 0.70418519 2.50282311 2.50000000
v 0.82806528 2.46461105 2.50000000
v 2.44320083 0.88925236 2.50000000
v 0.94988668 2.42027164 2.50000000
v 1.06934643 2.36991525 2.50000000
v 2.39583826 1.00993049 2.50000000
v 2.34251904 1.12809777 2.50000000
v 2.28337598 1.24346030 2.50000000
v 1.18614769 2.31366682 2.50000000
v 1.29999995 2.25166607 2.50000000
v 2.21855640 1.35573149 2.50000000
v 1.41062033 2.18406749 2.50000000
v 1.51773357 2.11103892 2.50000000
v 2.14822078 1.46463215 2.50000000
v 2.07254457 1.56989145 2.50000000
v 1.99171555 1.67124784 2.50000000
v 1.62107348 2.03276181 2.50000000
v 1.72038317 1.94943118 2.50000000
v 1.90593481 1.76844907 2.50000000
v 1.81541574 1.86125386 2.50000000
v -1.90593481 -1.76844907 0.00000000
v -1.81541574 -1.86125386 0.00000000
v -1.72038317 -1.94943118 0.00000000
v -1.99171555 -1.67124784 0.00000000
v -1.62107348 -2.03276181 0.00000000
v -2.07254457 -1.56989145 0.00000000
v -1.51773357 -2.11103892 0.00000000
v -2.14822078 -1.46463215 0.00000000
v -1.41062033 -2.18406749 0.00000000
v -2.21855640 -1.35573149 0.00000000
v -1.29999995 -2.25166607 0.00000000
v -2.28337598 -1.24346030 0.00000000
v -1.18614769 -2.31366682 0.00000000
v -2.34251904 -1.12809777 0.00000000
v -1.06934643 -2.36991525 0.00000000
v -2.39583826 -1.00993049 0.00000000
v -0.94988668 -2.42027164 0.00000000
v -2.44320083 -0.88925236 0.00000000
v -0.82806528 -2.46461105 0.00000000
v -2.48448920 -0.76636344 0.00000000
v -0.70418519 -2.50282311 0.00000000
v -2.51960087 -0.64156926 0.00000000
v -0.57855445 -2.53481269 0.00000000
v -2.54844856 -0.51517999 0.00000000
v -0.45148528 -2.56050014 0.00000000
v -2.57096004 -0.38750988 0.00000000
v -0.32329363 -2.57982183 0.00000000
v -2.58708000 -0.25887641 0.00000000
v -0.19429824 -2.59272981 0.00000000
v -2.59676790 -0.12959930 0.00000000
v -0.06481980 -2.59919190 0.00000000
v -2.59999990 -0.00000000 0.00000000
v 0.06481980 -2.59919190 0.00000000
v -2.59676790 0.12959930 0.00000000
v 0.19429824 -2.59272981 0.00000000
v -2.58708000 0.25887641 0.00000000
v 0.32329363 -2.57982183 0.00000000
v -2.57096004 0.38750988 0.00000000
v 0.45148528 -2.56050014 0.00000000
v -2.54844856 0.51517999 0.00000000
v 0.57855445 -2.53481269 0.00000000
v -2.51960087 0.64156926 0.00000000
v 0.70418519 -2.50282311 0.00000000
v -2.48448920 0.76636344 0.00000000
v 0.82806528 -2.46461105 0.00000000
v -2.44320083 0.88925236 0.00000000
v 0.94988668 -2.42027164 0.00000000
v -2.39583826 1.00993049 0.00000000
v 1.06934643 -2.36991525 0.00000000
v -2.34251904 1.12809777 0.00000000
v 1.18614769 -2.31366682 0.00000000
v -2.28337598 1.24346030 0.00000000
v 1.29999995 -2.25166607 0.00000000
v -2.21855640 1.35573149 0.00000000
v 1.41062033 -2.18406749 0.00000000
v -2.14822078 1.46463215 0.00000000
v 1.51773357 -2.11103892 0.00000000
v -2.07254457 1.56989145 0.00000000
v 1.62107348 -2.03276181 0.00000000
v -1.99171555 1.67124784 0.00000000
v 1.72038317 -1.94943118 0.00000000
v -1.90593481 1.76844907 0.00000000
v 1.81541574 -1.86125386 0.00000000
v -1.81541574 1.86125386 0.00000000
v 1.90593481 -1.76844907 0.00000000
v -1.72038317 1.94943118 0.00000000
v -1.62107348 2.03276181 0.00000000
v 1.99171555 -1.67124784 0.00000000
v 2.07254457 -1.56989145 0.00000000
v -1.41062033 2.18406749 0.00000000
v -1.51773357 2.11103892 0.00000000
v 2.14822078 -1.46463215 0.00000000
v 2.21855640 -1.35573149 0.00000000
v -1.29999995 2.25166607 0.00000000
v 2.28337598 -1.24346030 0.00000000
v -1.18614769 2.31366682 0.00000000
v 2.34251904 -1.12809777 0.00000000
v -1.06934643 2.36991525 0.00000000
v 2.39583826 -1.00993049 0.00000000
v -0.94988668 2.42027164 0.00000000
v 2.44320083 -0.88925236 0.00000000
v -0.70418519 2.50282311 0.00000000
v -0.82806528 2.46461105 0.00000000
v 2.48448920 -0.76636344 0.00000000
v 2.51960087 -0.64156926 0.00000000
v 2.54844856 -0.51517999 0.00000000
v -0.45148528 2.56050014 0.00000000
v -0.57855445 2.53481269 0.00000000
v 2.57096004 -0.38750988 0.00000000
v -0.32329363 2.57982183 0.00000000
v 2.58708000 -0.25887641 0.00000000
v -0.19429824 2.59272981 0.00000000
v 2.59676790 -0.12959930 0.00000000
v 2.59999990 -0.00000000 0.00000000
v -0.06481980 2.59919190 0.00000000
v 0.06481980 2.59919190 0.00000000
v 2.59676790 0.12959930 0.00000000
v 0.19429824 2.59272981 0.00000000
v 2.58708000 0.25887641 0.00000000
v 0.45148528 2.56050014 0.00000000
v 0.32329363 2.57982183 0.00000000
v 2.57096004 0.38750988 0.00000000
v 2.54844856 0.51517999 0.00000000
v 2.51960087 0.64156926 0.00000000
v 0.57855445 2.53481269 0.00000000
v 2.48448920 0.76636344 0.00000000
v 0.70418519 2.50282311 0.00000000
v 0.82806528 2.46461105 0.00000000
v 2.44320083 0.88925236 0.00000000
v 1.06934643 2.36991525 0.00000000
v 0.94988668 2.42027164 0.00000000
v 2.39583826 1.00993049 0.00000000
v 2.34251904 1.12809777 0.00000000
v 2.28337598 1.24346030 0.00000000
v 1.29999995 2.25166607 0.00000000
v 1.18614769 2.31366682 0.00000000
v 2.21855640 1.35573149 0.00000000
v 1.51773357 2.11103892 0.00000000
v 1.41062033 2.18406749 0.00000000
v 2.14822078 1.46463215 0.00000000
v 2.07254457 1.56989145 0.00000000
v 1.99171555 1.67124784 0.00000000
v 1.62107348 2.03276181 0.00000000
v 1.72038317 1.94943118 0.00000000
v 1.90593481 1.76844907 0.00000000
v 1.81541574 1.86125386 0.00000000
f 1 2 3
f 1 3 4
f 5 4 6
f 5 1 4
f 7 6 8
f 7 5 6
f 9 8 10
f 9 7 8
f 11 10 12
f 11 9 10
f 13 12 14
f 13 11 12
f 15 14 16
f 15 16 17
f 15 13 14
f 18 15 17
f 19 17 20
f 19 18 17
f 21 20 22
f 21 19 20
f 23 21 22
f 23 22 24
f 23 24 25
f 26 23 25
f 27 26 25
f 27 25 28
f 29 27 28
f 29 28 30
f 31 29 30
f 31 30 32
f 31 32 33
f 34 31 33
f 35 34 33
f 35 33 36
f 37 35 36
f 37 36 38
f 37 38 39
f 40 37 39
f 41 40 39
f 41 39 42
f 43 41 42
f 43 42 44
f 45 43 44
f 45 44 46
f 47 46 48
f 47 45 46
f 49 48 50
f 49 47 48
f 51 50 52
f 51 49 50
f 53 52 54
f 53 51 52
f 55 54 56
f 55 53 54
f 57 56 58
f 57 58 59
f 57 55 56
f 60 57 59
f 61 59 62
f 61 60 59
f 63 62 64
f 63 61 62
f 65 64 66
f 65 63 64
f 67 66 68
f 67 65 66
f 69 68 70
f 69 67 68
f 71 70 72
f 71 69 70
f 73 72 74
f 73 71 72
f 75 73 74
f 75 74 76
f 75 76 77
f 78 75 77
f 78 77 79
f 80 78 79
f 81 80 79
f 81 79 82
f 83 81 82
f 83 82 84
f 85 83 84
f 85 84 86
f 87 85 86
f 87 86 88
f 89 87 88
f 89 88 90
f 91 89 90
f 91 90 92
f 93 91 92
f 93 92 94
f 93 94 95
f 96 93 95
f 97 96 95
f 97 95 98
f 99 97 98
f 99 98 100
f 101 99 100
f 101 100 102
f 101 102 103
f 104 101 103
f 105 104 103
f 105 103 106
f 105 106 107
f 108 105 107
f 109 108 107
f 109 107 110
f 109 110 111
f 112 109 111
f 113 112 111
f 113 111 114
f 115 113 114
f 115 114 116
f 115 116 117
f 118 115 117
f 119 117 120
f 119 118 117
f 121 120 122
f 121 119 120
f 123 122 124
f 123 121 122
f 125 123 124
f 125 124 126
f 125 126 127
f 128 125 127
f 128 127 129
f 130 128 129
f 131 130 129
f 131 129 132
f 131 132 133
f 134 131 133
f 134 133 135
f 136 134 135
f 136 135 137
f 138 136 137
f 139 138 137
f 139 137 140
f 139 140 141
f 142 139 141
f 143 142 141
f 143 141 144
f 145 143 144
f 145 144 146
f 145 146 147
f 148 145 147
f 149 148 147
f 149 147 150
f 151 150 152
f 151 149 150
f 153 152 154
f 153 154 155
f 153 151 152
f 156 153 155
f 157 155 158
f 157 156 155
f 159 158 160
f 159 160 161
f 159 157 158
f 162 159 161
f 163 161 164
f 163 162 161
f 165 164 166
f 165 163 164
f 167 166 168
f 167 168 169
f 167 165 166
f 170 167 169
f 171 169 172
f 171 170 169
f 173 172 174
f 173 171 172
f 175 174 176
f 175 173 174
f 177 175 176
f 177 176 178
f 179 177 178
f 179 178 180
f 181 179 180
f 181 180 182
f 183 181 182
f 183 182 184
f 183 184 185
f 186 183 185
f 187 185 188
f 187 186 185
f 189 188 190
f 189 187 188
f 191 190 192
f 191 189 190
f 193 192 194
f 193 191 192
f 195 194 196
f 195 193 194
f 197 196 198
f 197 195 196
f 199 198 200
f 199 197 198
f 201 200 202
f 201 199 200
f 203 202 204
f 203 201 202
f 205 204 206
f 205 203 204
f 207 206 208
f 207 205 206
f 209 208 210
f 209 210 211
f 209 207 208
f 212 209 211
f 213 211 214
f 213 212 211
f 215 214 216
f 215 213 214
f 217 216 218
f 217 215 216
f 219 218 220
f 219 217 218
f 221 220 222
f 221 219 220
f 223 222 224
f 223 221 222
f 225 223 224
f 225 224 226
f 227 225 226
f 227 226 228
f 229 227 228
f 229 228 230
f 231 229 230
f 231 230 232
f 233 231 232
f 233 232 234
f 235 233 234
f 235 234 236
f 237 235 236
f 237 236 238
f 239 237 238
f 239 238 240
f 239 240 241
f 242 239 241
f 243 242 241
f 243 241 244
f 245 243 244
f 245 244 246
f 247 245 246
f 247 246 248
f 249 247 248
f 249 248 250
f 251 250 252
f 251 249 250
f 251 252 3
f 2 251 3
f 253 159 254
f 253 157 159
f 255 254 159
f 255 159 162
f 256 157 253
f 256 156 157
f 257 255 162
f 257 162 163
f 258 156 256
f 258 153 156
f 259 257 163
f 259 163 165
f 260 153 258
f 260 151 153
f 261 259 165
f 261 165 167
f 262 151 260
f 262 149 151
f 263 261 167
f 263 167 170
f 264 149 262
f 264 148 149
f 265 263 170
f 265 170 171
f 266 148 264
f 266 143 145
f 266 145 148
f 267 265 171
f 267 171 173
f 268 143 266
f 269 267 173
f 269 173 175
f 270 143 268
f 270 142 143
f 271 269 175
f 271 175 177
f 272 142 270
f 272 139 142
f 273 271 177
f 273 177 179
f 273 179 181
f 274 139 272
f 274 138 139
f 275 273 181
f 275 181 183
f 276 134 136
f 276 136 138
f 276 138 274
f 277 275 183
f 278 134 276
f 279 277 183
f 279 183 186
f 279 186 187
f 280 134 278
f 280 131 134
f 281 279 187
f 282 128 130
f 282 130 131
f 282 131 280
f 283 281 187
f 283 187 189
f 283 189 191
f 284 128 282
f 285 283 191
f 286 125 128
f 286 128 284
f 287 285 191
f 287 191 193
f 288 123 125
f 288 125 286
f 289 287 193
f 289 193 195
f 290 121 123
f 290 123 288
f 291 289 195
f 291 195 197
f 292 119 121
f 292 121 290
f 293 291 197
f 293 197 199
f 294 118 119
f 294 119 292
f 295 293 199
f 295 199 201
f 296 118 294
f 296 115 118
f 297 201 203
f 297 295 201
f 298 115 296
f 298 113 115
f 299 203 205
f 299 297 203
f 300 113 298
f 300 112 113
f 301 205 207
f 301 299 205
f 302 112 300
f 302 109 112
f 303 207 209
f 303 301 207
f 304 109 302
f 304 108 109
f 305 209 212
f 305 212 213
f 305 303 209
f 306 108 304
f 306 104 105
f 306 105 108
f 307 305 213
f 308 104 306
f 309 213 215
f 309 307 213
f 310 101 104
f 310 104 308
f 99 101 310
f 311 215 217
f 311 309 215
f 219 311 217
f 312 99 310
f 313 311 219
f 314 97 99
f 314 99 312
f 315 219 221
f 315 313 219
f 316 97 314
f 96 97 316
f 317 315 221
f 223 317 221
f 93 96 316
f 93 316 318
f 319 93 318
f 225 317 223
f 225 320 317
f 321 320 225
f 91 93 319
f 227 321 225
f 89 91 319
f 89 322 323
f 89 319 322
f 229 324 321
f 229 325 324
f 229 321 227
f 87 89 323
f 231 325 229
f 85 87 323
f 85 323 326
f 233 327 325
f 233 325 231
f 83 85 326
f 83 326 328
f 235 327 233
f 235 329 327
f 81 328 330
f 81 83 328
f 237 329 235
f 237 331 329
f 80 330 332
f 80 81 330
f 239 333 331
f 239 331 237
f 78 334 335
f 78 332 334
f 78 80 332
f 242 336 333
f 242 333 239
f 75 78 335
f 243 337 336
f 243 338 337
f 243 336 242
f 73 75 335
f 73 339 340
f 73 335 339
f 245 338 243
f 71 73 340
f 247 338 245
f 247 341 338
f 69 71 340
f 69 340 342
f 249 341 247
f 249 343 341
f 67 69 342
f 67 342 344
f 251 343 249
f 251 345 343
f 251 346 345
f 65 344 347
f 65 67 344
f 2 346 251
f 63 347 348
f 63 65 347
f 1 349 346
f 1 346 2
f 61 348 350
f 61 63 348
f 5 351 349
f 5 349 1
f 60 352 353
f 60 350 352
f 60 61 350
f 7 354 351
f 7 355 354
f 7 351 5
f 57 60 353
f 9 356 355
f 9 355 7
f 55 57 353
f 55 353 357
f 11 358 356
f 11 356 9
f 53 55 357
f 53 357 359
f 13 358 11
f 51 53 359
f 51 359 360
f 15 361 358
f 15 358 13
f 49 51 360
f 49 362 363
f 49 360 362
f 18 361 15
f 18 364 361
f 47 49 363
f 19 364 18
f 19 365 364
f 19 366 365
f 45 47 363
f 45 367 368
f 45 363 367
f 21 366 19
f 43 45 368
f 23 366 21
f 23 369 366
f 41 43 368
f 41 370 371
f 41 368 370
f 26 369 23
f 26 372 369
f 40 41 371
f 27 372 26
f 27 373 372
f 27 374 373
f 37 40 371
f 37 371 375
f 29 374 27
f 35 375 376
f 35 37 375
f 31 377 374
f 31 378 377
f 31 374 29
f 34 376 378
f 34 35 376
f 34 378 31
f 379 380 160
f 379 160 158
f 381 160 380
f 381 161 160
f 382 379 158
f 382 158 155
f 383 161 381
f 383 164 161
f 384 382 155
f 384 155 154
f 385 164 383
f 385 166 164
f 386 384 154
f 386 154 152
f 387 166 385
f 387 168 166
f 388 386 152
f 388 152 150
f 389 168 387
f 389 169 168
f 390 388 150
f 390 150 147
f 391 169 389
f 391 172 169
f 392 390 147
f 392 146 144
f 392 147 146
f 393 172 391
f 393 174 172
f 394 392 144
f 395 174 393
f 395 176 174
f 396 394 144
f 396 144 141
f 397 176 395
f 397 178 176
f 398 396 141
f 398 141 140
f 399 178 397
f 399 180 178
f 399 182 180
f 400 398 140
f 400 140 137
f 401 182 399
f 401 184 182
f 402 135 133
f 402 137 135
f 402 400 137
f 403 184 401
f 404 402 133
f 405 184 403
f 405 185 184
f 405 188 185
f 406 404 133
f 406 133 132
f 407 188 405
f 408 129 127
f 408 132 129
f 408 406 132
f 409 188 407
f 409 190 188
f 409 192 190
f 410 408 127
f 411 192 409
f 412 127 126
f 412 410 127
f 413 192 411
f 413 194 192
f 414 126 124
f 414 412 126
f 415 194 413
f 415 196 194
f 416 124 122
f 416 414 124
f 417 196 415
f 417 198 196
f 418 122 120
f 418 416 122
f 419 198 417
f 419 200 198
f 420 120 117
f 420 418 120
f 421 200 419
f 421 202 200
f 422 420 117
f 422 117 116
f 423 204 202
f 423 202 421
f 424 422 116
f 424 116 114
f 425 206 204
f 425 204 423
f 426 424 114
f 426 114 111
f 427 208 206
f 427 206 425
f 428 426 111
f 428 111 110
f 429 210 208
f 429 208 427
f 430 428 110
f 430 110 107
f 431 211 210
f 431 214 211
f 431 210 429
f 432 430 107
f 432 106 103
f 432 107 106
f 433 214 431
f 434 432 103
f 435 216 214
f 435 214 433
f 436 103 102
f 436 434 103
f 100 436 102
f 437 218 216
f 437 216 435
f 220 218 437
f 438 436 100
f 439 220 437
f 440 100 98
f 440 438 100
f 441 222 220
f 441 220 439
f 442 440 98
f 95 442 98
f 443 222 441
f 224 222 443
f 94 442 95
f 94 444 442
f 445 444 94
f 226 224 443
f 226 443 446
f 447 226 446
f 92 445 94
f 228 226 447
f 90 445 92
f 90 448 449
f 90 449 445
f 230 447 450
f 230 450 451
f 230 228 447
f 88 448 90
f 232 230 451
f 86 448 88
f 86 452 448
f 234 451 453
f 234 232 451
f 84 452 86
f 84 454 452
f 236 234 453
f 236 453 455
f 82 456 454
f 82 454 84
f 238 236 455
f 238 455 457
f 79 458 456
f 79 456 82
f 240 457 459
f 240 238 457
f 77 460 461
f 77 461 458
f 77 458 79
f 241 459 462
f 241 240 459
f 76 460 77
f 244 462 463
f 244 463 464
f 244 241 462
f 74 460 76
f 74 465 466
f 74 466 460
f 246 244 464
f 72 465 74
f 248 246 464
f 248 464 467
f 70 465 72
f 70 468 465
f 250 248 467
f 250 467 469
f 68 468 70
f 68 470 468
f 252 250 469
f 252 469 471
f 252 471 472
f 66 473 470
f 66 470 68
f 3 252 472
f 64 474 473
f 64 473 66
f 4 472 475
f 4 3 472
f 62 476 474
f 62 474 64
f 6 475 477
f 6 4 475
f 59 478 479
f 59 479 476
f 59 476 62
f 8 477 480
f 8 480 481
f 8 6 477
f 58 478 59
f 10 481 482
f 10 8 481
f 56 478 58
f 56 483 478
f 12 482 484
f 12 10 482
f 54 483 56
f 54 485 483
f 14 12 484
f 52 485 54
f 52 486 485
f 16 484 487
f 16 14 484
f 50 486 52
f 50 488 489
f 50 489 486
f 17 16 487
f 17 487 490
f 48 488 50
f 20 17 490
f 20 490 491
f 20 491 492
f 46 488 48
f 46 493 494
f 46 494 488
f 22 20 492
f 44 493 46
f 24 22 492
f 24 492 495
f 42 493 44
f 42 496 497
f 42 497 493
f 25 24 495
f 25 495 498
f 39 496 42
f 28 25 498
f 28 498 499
f 28 499 500
f 38 496 39
f 38 501 496
f 30 28 500
f 36 502 501
f 36 501 38
f 32 500 503
f 32 503 504
f 32 30 500
f 33 504 502
f 33 502 36
f 33 32 504
f 349 472 346
f 349 475 472
f 351 477 475
f 351 475 349
f 354 480 477
f 354 477 351
f 355 481 480
f 355 480 354
f 356 482 481
f 356 481 355
f 358 484 482
f 358 482 356
f 361 487 484
f 361 490 487
f 361 484 358
f 364 490 361
f 365 491 490
f 365 490 364
f 366 492 491
f 366 491 365
f 369 492 366
f 369 495 492
f 369 498 495
f 372 498 369
f 373 498 372
f 373 499 498
f 374 499 373
f 374 500 499
f 377 500 374
f 377 503 500
f 377 504 503
f 378 504 377
f 376 504 378
f 376 502 504
f 375 502 376
f 375 501 502
f 375 496 501
f 371 496 375
f 370 496 371
f 370 497 496
f 368 497 370
f 368 493 497
f 367 493 368
f 367 494 493
f 363 488 494
f 363 494 367
f 362 489 488
f 362 488 363
f 360 486 489
f 360 489 362
f 359 485 486
f 359 486 360
f 357 483 485
f 357 485 359
f 353 478 483
f 353 479 478
f 353 483 357
f 352 479 353
f 350 476 479
f 350 479 352
f 348 474 476
f 348 476 350
f 347 473 474
f 347 474 348
f 344 470 473
f 344 473 347
f 342 468 470
f 342 470 344
f 340 465 468
f 340 468 342
f 339 466 465
f 339 465 340
f 335 466 339
f 335 460 466
f 335 461 460
f 334 461 335
f 334 458 461
f 332 458 334
f 330 458 332
f 330 456 458
f 328 456 330
f 328 454 456
f 326 454 328
f 326 452 454
f 323 452 326
f 323 448 452
f 322 448 323
f 322 449 448
f 319 449 322
f 319 445 449
f 318 445 319
f 318 444 445
f 318 442 444
f 316 442 318
f 314 442 316
f 314 440 442
f 312 440 314
f 312 438 440
f 310 438 312
f 310 436 438
f 310 434 436
f 308 434 310
f 306 434 308
f 306 432 434
f 306 430 432
f 304 430 306
f 302 430 304
f 302 428 430
f 302 426 428
f 300 426 302
f 298 426 300
f 298 424 426
f 296 424 298
f 296 422 424
f 296 420 422
f 294 420 296
f 292 418 420
f 292 420 294
f 290 416 418
f 290 418 292
f 288 414 416
f 288 416 290
f 286 414 288
f 286 412 414
f 286 410 412
f 284 410 286
f 284 408 410
f 282 408 284
f 280 408 282
f 280 406 408
f 280 404 406
f 278 404 280
f 278 402 404
f 276 402 278
f 276 400 402
f 274 400 276
f 272 400 274
f 272 398 400
f 272 396 398
f 270 396 272
f 268 396 270
f 268 394 396
f 266 394 268
f 266 392 394
f 266 390 392
f 264 390 266
f 262 390 264
f 262 388 390
f 260 386 388
f 260 388 262
f 258 384 386
f 258 382 384
f 258 386 260
f 256 382 258
f 253 379 382
f 253 382 256
f 254 380 379
f 254 381 380
f 254 379 253
f 255 381 254
f 257 383 381
f 257 381 255
f 259 385 383
f 259 383 257
f 261 387 385
f 261 389 387
f 261 385 259
f 263 389 261
f 265 391 389
f 265 389 263
f 267 393 391
f 267 391 265
f 269 395 393
f 269 393 267
f 271 395 269
f 271 397 395
f 273 397 271
f 273 399 397
f 275 399 273
f 275 401 399
f 277 401 275
f 277 403 401
f 277 405 403
f 279 405 277
f 281 407 405
f 281 405 279
f 283 409 407
f 283 407 281
f 285 411 409
f 285 409 283
f 287 413 411
f 287 411 285
f 289 415 413
f 289 413 287
f 291 417 415
f 291 415 289
f 293 419 417
f 293 417 291
f 295 421 419
f 295 419 293
f 297 423 421
f 297 421 295
f 299 425 423
f 299 423 297
f 301 427 425
f 301 425 299
f 303 429 427
f 303 431 429
f 303 427 301
f 305 431 303
f 307 433 431
f 307 431 305
f 309 435 433
f 309 433 307
f 311 437 435
f 311 435 309
f 313 439 437
f 313 437 311
f 315 441 439
f 315 439 313
f 317 443 441
f 317 441 315
f 320 443 317
f 320 446 443
f 321 446 320
f 321 447 446
f 324 447 321
f 324 450 447
f 325 450 324
f 325 451 450
f 327 451 325
f 327 453 451
f 329 453 327
f 329 455 453
f 331 455 329
f 331 457 455
f 333 457 331
f 333 459 457
f 333 462 459
f 336 462 333
f 337 462 336
f 337 463 462
f 338 463 337
f 338 464 463
f 341 464 338
f 341 467 464
f 343 467 341
f 343 469 467
f 345 471 469
f 345 469 343
f 345 472 471
f 346 472 345

