# https://github.com/mikedh/trimesh

o bearing_retainer.stl
v 22.43708611 1.68142712 2.00000000
v 22.50000000 -0.00000000 2.00000000
v 22.50000000 -0.00000000 0.00000000
v 22.43708611 1.68142712 0.00000000
v 22.24869347 3.35345101 2.00000000
v 22.24869347 3.35345101 0.00000000
v 21.93587875 5.00672102 2.00000000
v 21.93587875 5.00672102 0.00000000
v 21.50038719 6.63199139 2.00000000
v 21.50038719 6.63199139 0.00000000
v 20.94466019 8.22017288 2.00000000
v 20.94466019 8.22017288 0.00000000
v 20.27179909 9.76238441 2.00000000
v 20.27179909 9.76238441 0.00000000
v 19.48557091 11.25000000 2.00000000
v 19.48557091 11.25000000 0.00000000
v 18.59037209 12.67470169 2.00000000
v 18.59037209 12.67470169 0.00000000
v 17.59120750 14.02852058 2.00000000
v 17.59120750 14.02852058 0.00000000
v 16.49366760 15.30388641 2.00000000
v 16.49366760 15.30388641 0.00000000
v 15.30388641 16.49366760 2.00000000
v 15.30388641 16.49366760 0.00000000
v 14.02852058 17.59120750 2.00000000
v 14.02852058 17.59120750 0.00000000
v 12.67470169 18.59037209 2.00000000
v 12.67470169 18.59037209 0.00000000
v 11.25000000 19.48557091 2.00000000
v 11.25000000 19.48557091 0.00000000
v 9.76238441 20.27179909 2.00000000
v 9.76238441 20.27179909 0.00000000
v 8.22017288 20.94466019 2.00000000
v 8.22017288 20.94466019 0.00000000
v 6.63199139 21.50038719 2.00000000
v 6.63199139 21.50038719 0.00000000
v 5.00672102 21.93587875 2.00000000
v 5.00672102 21.93587875 0.00000000
v 3.35345101 22.24869347 2.00000000
v 3.35345101 22.24869347 0.00000000
v 1.68142712 22.43708611 2.00000000
v 1.68142712 22.43708611 0.00000000
v -0.00000000 22.50000000 0.00000000
v -0.00000000 22.50000000 2.00000000
v -1.68142712 22.43708611 0.00000000
v -1.68142712 22.43708611 2.00000000
v -3.35345101 22.24869347 2.00000000
v -3.35345101 22.24869347 0.00000000
v -5.00672102 21.93587875 2.00000000
v -5.00672102 21.93587875 0.00000000
v -6.63199139 21.50038719 2.00000000
v -6.63199139 21.50038719 0.00000000
v -8.22017288 20.94466019 0.00000000
v -8.22017288 20.94466019 2.00000000
v -9.76238441 20.27179909 0.00000000
v -9.76238441 20.27179909 2.00000000
v -11.25000000 19.48557091 2.00000000
v -11.25000000 19.48557091 0.00000000
v -12.67470169 18.59037209 2.00000000
v -12.67470169 18.59037209 0.00000000
v -14.02852058 17.59120750 2.00000000
v -14.02852058 17.59120750 0.00000000
v -15.30388641 16.49366760 2.00000000
v -15.30388641 16.49366760 0.00000000
v -16.49366760 15.30388641 2.00000000
v -16.49366760 15.30388641 0.00000000
v -17.59120750 14.02852058 2.00000000
v -17.59120750 14.02852058 0.00000000
v -18.59037209 12.67470169 2.00000000
v -18.59037209 12.67470169 0.00000000
v -19.48557091 11.25000000 2.00000000
v -19.48557091 11.25000000 0.00000000
v -20.27179909 9.76238441 2.00000000
v -20.27179909 9.76238441 0.00000000
v -20.94466019 8.22017288 2.00000000
v -20.94466019 8.22017288 0.00000000
v -21.50038719 6.63199139 2.00000000
v -21.50038719 6.63199139 0.00000000
v -21.93587875 5.00672102 2.00000000
v -21.93587875 5.00672102 0.00000000
v -22.24869347 3.35345101 2.00000000
v -22.24869347 3.35345101 0.00000000
v -22.43708611 1.68142712 2.00000000
v -22.43708611 1.68142712 0.00000000
v -22.50000000 0.00000000 2.00000000
v -22.50000000 0.00000000 0.00000000
v -22.43708611 -1.68142712 0.00000000
v -22.43708611 -1.68142712 2.00000000
v -22.24869347 -3.35345101 2.00000000
v -22.24869347 -3.35345101 0.00000000
v -21.93587875 -5.00672102 2.00000000
v -21.93587875 -5.00672102 0.00000000
v -21.50038719 -6.63199139 2.00000000
v -21.50038719 -6.63199139 0.00000000
v -20.94466019 -8.22017288 2.00000000
v -20.94466019 -8.22017288 0.00000000
v -20.27179909 -9.76238441 2.00000000
v -20.27179909 -9.76238441 0.00000000
v -19.48557091 -11.25000000 2.00000000
v -19.48557091 -11.25000000 0.00000000
v -18.59037209 -12.67470169 2.00000000
v -18.59037209 -12.67470169 0.00000000
v -17.59120750 -14.02852058 2.00000000
v -17.59120750 -14.02852058 0.00000000
v -16.49366760 -15.30388641 2.00000000
v -16.49366760 -15.30388641 0.00000000
v -15.30388641 -16.49366760 0.00000000
v -15.30388641 -16.49366760 2.00000000
v -14.02852058 -17.59120750 2.00000000
v -14.02852058 -17.59120750 0.00000000
v -12.67470169 -18.59037209 2.00000000
v -12.67470169 -18.59037209 0.00000000
v -11.25000000 -19.48557091 2.00000000
v -11.25000000 -19.48557091 0.00000000
v -9.76238441 -20.27179909 2.00000000
v -9.76238441 -20.27179909 0.00000000
v -8.22017288 -20.94466019 2.00000000
v -8.22017288 -20.94466019 0.00000000
v -6.63199139 -21.50038719 2.00000000
v -6.63199139 -21.50038719 0.00000000
v -5.00672102 -21.93587875 2.00000000
v -5.00672102 -21.93587875 0.00000000
v -3.35345101 -22.24869347 2.00000000
v -3.35345101 -22.24869347 0.00000000
v -1.68142712 -22.43708611 2.00000000
v -1.68142712 -22.43708611 0.00000000
v -0.00000000 -22.50000000 2.00000000
v -0.00000000 -22.50000000 0.00000000
v 1.68142712 -22.43708611 0.00000000
v 1.68142712 -22.43708611 2.00000000
v 3.35345101 -22.24869347 2.00000000
v 3.35345101 -22.24869347 0.00000000
v 5.00672102 -21.93587875 2.00000000
v 5.00672102 -21.93587875 0.00000000
v 6.63199139 -21.50038719 2.00000000
v 6.63199139 -21.50038719 0.00000000
v 8.22017288 -20.94466019 2.00000000
v 8.22017288 -20.94466019 0.00000000
v 9.76238441 -20.27179909 2.00000000
v 9.76238441 -20.27179909 0.00000000
v 11.25000000 -19.48557091 2.00000000
v 11.25000000 -19.48557091 0.00000000
v 12.67470169 -18.59037209 2.00000000
v 12.67470169 -18.59037209 0.00000000
v 14.02852058 -17.59120750 2.00000000
v 14.02852058 -17.59120750 0.00000000
v 15.30388641 -16.49366760 2.00000000
v 15.30388641 -16.49366760 0.00000000
v 16.49366760 -15.30388641 2.00000000
v 16.49366760 -15.30388641 0.00000000
v 17.59120750 -14.02852058 2.00000000
v 17.59120750 -14.02852058 0.00000000
v 18.59037209 -12.67470169 2.00000000
v 18.59037209 -12.67470169 0.00000000
v 19.48557091 -11.25000000 2.00000000
v 19.48557091 -11.25000000 0.00000000
v 20.27179909 -9.76238441 2.00000000
v 20.27179909 -9.76238441 0.00000000
v 20.94466019 -8.22017288 2.00000000
v 20.94466019 -8.22017288 0.00000000
v 21.50038719 -6.63199139 2.00000000
v 21.50038719 -6.63199139 0.00000000
v 21.93587875 -5.00672102 2.00000000
v 21.93587875 -5.00672102 0.00000000
v 22.24869347 -3.35345101 2.00000000
v 22.24869347 -3.35345101 0.00000000
v 22.43708611 -1.68142712 2.00000000
v 22.43708611 -1.68142712 0.00000000
v -18.53571892 -11.09300995 2.00000000
v -18.59653091 -11.03219891 2.00000000
v -18.65262604 -10.96701336 2.00000000
v -18.47053337 -11.14910603 2.00000000
v -18.40133858 -11.20017433 2.00000000
v -18.70369530 -10.89781761 2.00000000
v -18.32852173 -11.24592876 2.00000000
v -18.74945068 -10.82499981 2.00000000
v -18.25248718 -11.28611374 2.00000000
v -18.78963470 -10.74896622 2.00000000
v -18.17366219 -11.32050514 2.00000000
v -18.82402611 -10.67014217 2.00000000
v -18.09248924 -11.34890842 2.00000000
v -18.85243034 -10.58896828 2.00000000
v -18.00942039 -11.37116718 2.00000000
v -18.87468719 -10.50589943 2.00000000
v -17.92491913 -11.38715553 2.00000000
v -18.89067650 -10.42139816 2.00000000
v -17.83946037 -11.39678478 2.00000000
v -18.90030479 -10.33593941 2.00000000
v -17.75352097 -11.39999962 2.00000000
v -18.90352058 -10.25000000 2.00000000
v -17.66758156 -11.39678478 2.00000000
v -18.90030479 -10.16406059 2.00000000
v -17.58212280 -11.38715553 2.00000000
v -18.89067650 -10.07860184 2.00000000
v -17.49762154 -11.37116718 2.00000000
v -18.87468719 -9.99410057 2.00000000
v -18.85243034 -9.91103172 2.00000000
v -17.41455269 -11.34890842 2.00000000
v -18.82402611 -9.82985783 2.00000000
v -17.33337784 -11.32050514 2.00000000
v -18.78963470 -9.75103378 2.00000000
v -17.25455475 -11.28611374 2.00000000
v -17.17852020 -11.24592876 2.00000000
v -18.74945068 -9.67500019 2.00000000
v -18.70369530 -9.60218239 2.00000000
v -17.10570335 -11.20017433 2.00000000
v -18.65262604 -9.53298664 2.00000000
v -17.03650665 -11.14910603 2.00000000
v -18.59653091 -9.46780109 2.00000000
v -16.97132301 -11.09300995 2.00000000
v -18.53571892 -9.40699005 2.00000000
v -18.47053337 -9.35089397 2.00000000
v -18.40133858 -9.29982567 2.00000000
v -18.32852173 -9.25407124 2.00000000
v -18.25248718 -9.21388626 2.00000000
v -18.17366219 -9.17949486 2.00000000
v -18.09248924 -9.15109158 2.00000000
v -11.90302277 -12.82840729 2.00000000
v -12.82840729 -11.90302277 2.00000000
v -10.91107178 -13.68205070 2.00000000
v -13.68205070 -10.91107178 2.00000000
v -16.91051102 -11.03219891 2.00000000
v -16.85441399 -10.96701336 2.00000000
v -16.80334663 -10.89781761 2.00000000
v -16.75759125 -10.82499981 2.00000000
v -16.71740723 -10.74896622 2.00000000
v -16.68301582 -10.67014217 2.00000000
v -9.85810089 -14.45917892 2.00000000
v -14.45917892 -9.85810089 2.00000000
v -16.65461159 -10.58896828 2.00000000
v -16.63235283 -10.50589943 2.00000000
v -16.61636543 -10.42139816 2.00000000
v -16.60673714 -10.33593941 2.00000000
v -16.60352135 -10.25000000 2.00000000
v -16.60673714 -10.16406059 2.00000000
v -16.61636543 -10.07860184 2.00000000
v -16.63235283 -9.99410057 2.00000000
v -8.75000000 -15.15544415 2.00000000
v -15.15544415 -8.75000000 2.00000000
v -16.65461159 -9.91103172 2.00000000
v -16.68301582 -9.82985783 2.00000000
v -16.71740723 -9.75103378 2.00000000
v -16.75759125 -9.67500019 2.00000000
v -16.80334663 -9.60218239 2.00000000
v -16.85441399 -9.53298664 2.00000000
v -16.91051102 -9.46780109 2.00000000
v -16.97132301 -9.40699005 2.00000000
v -7.59296560 -15.76695538 2.00000000
v -15.76695538 -7.59296560 2.00000000
v -17.41455269 -9.15109158 2.00000000
v -17.33337784 -9.17949486 2.00000000
v -17.49762154 -9.12883282 2.00000000
v -17.58212280 -9.11284447 2.00000000
v -17.03650665 -9.35089397 2.00000000
v -17.10570335 -9.29982567 2.00000000
v -17.17852020 -9.25407124 2.00000000
v -17.25455475 -9.21388626 2.00000000
v -6.39346790 -16.29029083 2.00000000
v -16.29029083 -6.39346790 2.00000000
v -17.66758156 -9.10321522 2.00000000
v -17.75352097 -9.10000038 2.00000000
v -17.83946037 -9.10321522 2.00000000
v -17.92491913 -9.11284447 2.00000000
v -18.00942039 -9.12883282 2.00000000
v -5.15821552 -16.72252464 2.00000000
v -16.72252464 -5.15821552 2.00000000
v -3.89411640 -17.06123924 2.00000000
v -17.06123924 -3.89411640 2.00000000
v -2.60823965 -17.30453873 2.00000000
v -17.30453873 -2.60823965 2.00000000
v -1.30777669 -17.45106697 2.00000000
v -17.45106697 -1.30777669 2.00000000
v -0.00000000 -17.50000000 2.00000000
v -17.50000000 0.00000000 2.00000000
v 1.30777669 -17.45106697 2.00000000
v -17.45106697 1.30777669 2.00000000
v 2.60823965 -17.30453873 2.00000000
v -17.30453873 2.60823965 2.00000000
v 3.89411640 -17.06123924 2.00000000
v -17.06123924 3.89411640 2.00000000
v 5.15821552 -16.72252464 2.00000000
v -16.72252464 5.15821552 2.00000000
v -16.29029083 6.39346790 2.00000000
v 6.39346790 -16.29029083 2.00000000
v -15.76695538 7.59296560 2.00000000
v 7.59296560 -15.76695538 2.00000000
v -15.15544415 8.75000000 2.00000000
v 8.75000000 -15.15544415 2.00000000
v -14.45917892 9.85810089 2.00000000
v 9.85810089 -14.45917892 2.00000000
v -13.68205070 10.91107178 2.00000000
v 10.91107178 -13.68205070 2.00000000
v -12.82840729 11.90302277 2.00000000
v 11.90302277 -12.82840729 2.00000000
v 12.82840729 -11.90302277 2.00000000
v -11.90302277 12.82840729 2.00000000
v -10.91107178 13.68205070 2.00000000
v 13.68205070 -10.91107178 2.00000000
v 16.97132301 -11.09300995 2.00000000
v 16.91051102 -11.03219891 2.00000000
v 17.03650665 -11.14910603 2.00000000
v 16.85441399 -10.96701336 2.00000000
v 17.10570335 -11.20017433 2.00000000
v 16.80334663 -10.89781761 2.00000000
v -9.85810089 14.45917892 2.00000000
v 17.17852020 -11.24592876 2.00000000
v 16.75759125 -10.82499981 2.00000000
v 16.71740723 -10.74896622 2.00000000
v 17.25455475 -11.28611374 2.00000000
v 16.68301582 -10.67014217 2.00000000
v 14.45917892 -9.85810089 2.00000000
v 17.33337784 -11.32050514 2.00000000
v 17.41455269 -11.34890842 2.00000000
v 16.65461159 -10.58896828 2.00000000
v 17.49762154 -11.37116718 2.00000000
v 16.63235283 -10.50589943 2.00000000
v 16.61636543 -10.42139816 2.00000000
v 17.58212280 -11.38715553 2.00000000
v 17.66758156 -11.39678478 2.00000000
v 16.60673714 -10.33593941 2.00000000
v 17.75352097 -11.39999962 2.00000000
v 16.60352135 -10.25000000 2.00000000
v -8.75000000 15.15544415 2.00000000
v 17.83946037 -11.39678478 2.00000000
v 16.60673714 -10.16406059 2.00000000
v 17.92491913 -11.38715553 2.00000000
v 16.61636543 -10.07860184 2.00000000
v 16.63235283 -9.99410057 2.00000000
v 15.15544415 -8.75000000 2.00000000
v 18.00942039 -11.37116718 2.00000000
v 18.09248924 -11.34890842 2.00000000
v 16.65461159 -9.91103172 2.00000000
v 18.17366219 -11.32050514 2.00000000
v 16.68301582 -9.82985783 2.00000000
v 16.71740723 -9.75103378 2.00000000
v 18.25248718 -11.28611374 2.00000000
v 16.75759125 -9.67500019 2.00000000
v 18.32852173 -11.24592876 2.00000000
v 16.80334663 -9.60218239 2.00000000
v 18.40133858 -11.20017433 2.00000000
v 16.85441399 -9.53298664 2.00000000
v 16.91051102 -9.46780109 2.00000000
v 16.97132301 -9.40699005 2.00000000
v 15.76695538 -7.59296560 2.00000000
v 17.25455475 -9.21388626 2.00000000
v 17.33337784 -9.17949486 2.00000000
v 17.17852020 -9.25407124 2.00000000
v 17.10570335 -9.29982567 2.00000000
v 17.03650665 -9.35089397 2.00000000
v -7.59296560 15.76695538 2.00000000
v 18.47053337 -11.14910603 2.00000000
v 18.53571892 -11.09300995 2.00000000
v 18.59653091 -11.03219891 2.00000000
v 18.65262604 -10.96701336 2.00000000
v 18.70369530 -10.89781761 2.00000000
v 18.74945068 -10.82499981 2.00000000
v 18.78963470 -10.74896622 2.00000000
v 18.82402611 -10.67014217 2.00000000
v 17.41455269 -9.15109158 2.00000000
v 18.85243034 -10.58896828 2.00000000
v 17.49762154 -9.12883282 2.00000000
v 18.87468719 -10.50589943 2.00000000
v 17.58212280 -9.11284447 2.00000000
v 18.89067650 -10.42139816 2.00000000
v 18.90030479 -10.33593941 2.00000000
v 16.29029083 -6.39346790 2.00000000
v 18.00942039 -9.12883282 2.00000000
v 18.09248924 -9.15109158 2.00000000
v 17.92491913 -9.11284447 2.00000000
v 17.83946037 -9.10321522 2.00000000
v 17.75352097 -9.10000038 2.00000000
v 17.66758156 -9.10321522 2.00000000
v 18.90352058 -10.25000000 2.00000000
v 18.90030479 -10.16406059 2.00000000
v 18.89067650 -10.07860184 2.00000000
v 18.87468719 -9.99410057 2.00000000
v 18.85243034 -9.91103172 2.00000000
v 18.82402611 -9.82985783 2.00000000
v 18.78963470 -9.75103378 2.00000000
v 18.74945068 -9.67500019 2.00000000
v 18.70369530 -9.60218239 2.00000000
v 18.65262604 -9.53298664 2.00000000
v 18.59653091 -9.46780109 2.00000000
v -6.39346790 16.29029083 2.00000000
v 18.53571892 -9.40699005 2.00000000
v 18.47053337 -9.35089397 2.00000000
v 18.40133858 -9.29982567 2.00000000
v 18.32852173 -9.25407124 2.00000000
v 18.25248718 -9.21388626 2.00000000
v 18.17366219 -9.17949486 2.00000000
v -5.15821552 16.72252464 2.00000000
v 16.72252464 -5.15821552 2.00000000
v 17.06123924 -3.89411640 2.00000000
v -3.89411640 17.06123924 2.00000000
v -0.84300965 19.71780205 2.00000000
v -1.30777669 17.45106697 2.00000000
v -0.78219867 19.65699005 2.00000000
v -0.71701330 19.60089302 2.00000000
v -0.89910620 19.78298759 2.00000000
v -2.60823965 17.30453873 2.00000000
v 17.30453873 -2.60823965 2.00000000
v 17.45106697 -1.30777669 2.00000000
v -0.64781809 19.54982567 2.00000000
v -0.95017457 19.85218239 2.00000000
v -0.99592924 19.92499924 2.00000000
v -0.57499999 19.50407028 2.00000000
v -0.49896631 19.46388626 2.00000000
v -1.03611422 20.00103378 2.00000000
v -1.07050478 20.07985687 2.00000000
v -0.42014217 19.42949486 2.00000000
v -1.09890878 20.16103172 2.00000000
v -0.33896846 19.40109062 2.00000000
v -0.00000000 17.50000000 2.00000000
v -0.25589907 19.37883377 2.00000000
v -1.12116706 20.24410057 2.00000000
v -1.13715541 20.32860184 2.00000000
v -0.17139861 19.36284447 2.00000000
v -1.14678442 20.41406059 2.00000000
v -0.08593961 19.35321617 2.00000000
v 0.00000000 19.35000038 2.00000000
v -1.14999998 20.50000000 2.00000000
v -1.14678442 20.58593941 2.00000000
v 0.08593961 19.35321617 2.00000000
v -1.13715541 20.67139816 2.00000000
v 0.17139861 19.36284447 2.00000000
v -1.12116706 20.75589943 2.00000000
v 0.25589907 19.37883377 2.00000000
v 0.33896846 19.40109062 2.00000000
v 1.30777669 17.45106697 2.00000000
v -1.09890878 20.83896828 2.00000000
v 0.42014217 19.42949486 2.00000000
v 0.49896631 19.46388626 2.00000000
v 0.57499999 19.50407028 2.00000000
v 0.64781809 19.54982567 2.00000000
v 0.71701330 19.60089302 2.00000000
v 0.78219867 19.65699005 2.00000000
v 0.84300965 19.71780205 2.00000000
v 0.89910620 19.78298759 2.00000000
v 2.60823965 17.30453873 2.00000000
v -0.78219867 21.34300995 2.00000000
v -0.71701330 21.39910698 2.00000000
v -0.84300965 21.28219795 2.00000000
v -0.89910620 21.21701241 2.00000000
v -0.95017457 21.14781761 2.00000000
v -0.99592924 21.07500076 2.00000000
v -1.03611422 20.99896622 2.00000000
v -1.07050478 20.92014313 2.00000000
v -0.64781809 21.45017433 2.00000000
v 0.95017457 19.85218239 2.00000000
v -0.57499999 21.49592972 2.00000000
v 0.99592924 19.92499924 2.00000000
v -0.49896631 21.53611374 2.00000000
v 1.03611422 20.00103378 2.00000000
v 1.07050478 20.07985687 2.00000000
v 1.09890878 20.16103172 2.00000000
v 1.12116706 20.24410057 2.00000000
v 0.42014217 21.57050514 2.00000000
v 0.49896631 21.53611374 2.00000000
v 0.33896846 21.59890938 2.00000000
v 0.25589907 21.62116623 2.00000000
v 0.17139861 21.63715553 2.00000000
v 0.08593961 21.64678383 2.00000000
v 0.00000000 21.64999962 2.00000000
v -0.08593961 21.64678383 2.00000000
v -0.17139861 21.63715553 2.00000000
v -0.25589907 21.62116623 2.00000000
v -0.33896846 21.59890938 2.00000000
v -0.42014217 21.57050514 2.00000000
v 17.50000000 -0.00000000 2.00000000
v 17.45106697 1.30777669 2.00000000
v 1.07050478 20.92014313 2.00000000
v 1.09890878 20.83896828 2.00000000
v 1.03611422 20.99896622 2.00000000
v 0.99592924 21.07500076 2.00000000
v 0.95017457 21.14781761 2.00000000
v 0.89910620 21.21701241 2.00000000
v 0.84300965 21.28219795 2.00000000
v 0.78219867 21.34300995 2.00000000
v 0.71701330 21.39910698 2.00000000
v 0.64781809 21.45017433 2.00000000
v 0.57499999 21.49592972 2.00000000
v 1.13715541 20.32860184 2.00000000
v 1.14678442 20.41406059 2.00000000
v 1.14999998 20.50000000 2.00000000
v 1.14678442 20.58593941 2.00000000
v 1.13715541 20.67139816 2.00000000
v 1.12116706 20.75589943 2.00000000
v 3.89411640 17.06123924 2.00000000
v 17.30453873 2.60823965 2.00000000
v 17.06123924 3.89411640 2.00000000
v 5.15821552 16.72252464 2.00000000
v 16.72252464 5.15821552 2.00000000
v 16.29029083 6.39346790 2.00000000
v 6.39346790 16.29029083 2.00000000
v 7.59296560 15.76695538 2.00000000
v 8.75000000 15.15544415 2.00000000
v 15.76695538 7.59296560 2.00000000
v 15.15544415 8.75000000 2.00000000
v 14.45917892 9.85810089 2.00000000
v 9.85810089 14.45917892 2.00000000
v 13.68205070 10.91107178 2.00000000
v 10.91107178 13.68205070 2.00000000
v 12.82840729 11.90302277 2.00000000
v 11.90302277 12.82840729 2.00000000
v -18.53571892 -11.09300995 0.00000000
v -18.59653091 -11.03219891 0.00000000
v -18.65262604 -10.96701336 0.00000000
v -18.47053337 -11.14910603 0.00000000
v -18.40133858 -11.20017433 0.00000000
v -18.70369530 -10.89781761 0.00000000
v -18.32852173 -11.24592876 0.00000000
v -18.74945068 -10.82499981 0.00000000
v -18.25248718 -11.28611374 0.00000000
v -18.78963470 -10.74896622 0.00000000
v -18.17366219 -11.32050514 0.00000000
v -18.82402611 -10.67014217 0.00000000
v -18.09248924 -11.34890842 0.00000000
v -18.85243034 -10.58896828 0.00000000
v -18.00942039 -11.37116718 0.00000000
v -18.87468719 -10.50589943 0.00000000
v -17.92491913 -11.38715553 0.00000000
v -18.89067650 -10.42139816 0.00000000
v -17.83946037 -11.39678478 0.00000000
v -18.90030479 -10.33593941 0.00000000
v -17.75352097 -11.39999962 0.00000000
v -18.90352058 -10.25000000 0.00000000
v -17.66758156 -11.39678478 0.00000000
v -18.90030479 -10.16406059 0.00000000
v -17.58212280 -11.38715553 0.00000000
v -18.89067650 -10.07860184 0.00000000
v -17.49762154 -11.37116718 0.00000000
v -18.87468719 -9.99410057 0.00000000
v -18.85243034 -9.91103172 0.00000000
v -17.41455269 -11.34890842 0.00000000
v -18.82402611 -9.82985783 0.00000000
v -17.33337784 -11.32050514 0.00000000
v -18.78963470 -9.75103378 0.00000000
v -17.25455475 -11.28611374 0.00000000
v -17.17852020 -11.24592876 0.00000000
v -18.74945068 -9.67500019 0.00000000
v -18.70369530 -9.60218239 0.00000000
v -17.10570335 -11.20017433 0.00000000
v -18.65262604 -9.53298664 0.00000000
v -17.03650665 -11.14910603 0.00000000
v -18.59653091 -9.46780109 0.00000000
v -16.97132301 -11.09300995 0.00000000
v -18.53571892 -9.40699005 0.00000000
v -18.47053337 -9.35089397 0.00000000
v -18.40133858 -9.29982567 0.00000000
v -18.32852173 -9.25407124 0.00000000
v -18.25248718 -9.21388626 0.00000000
v -18.17366219 -9.17949486 0.00000000
v -18.09248924 -9.15109158 0.00000000
v -11.90302277 -12.82840729 0.00000000
v -12.82840729 -11.90302277 0.00000000
v -10.91107178 -13.68205070 0.00000000
v -13.68205070 -10.91107178 0.00000000
v -16.91051102 -11.03219891 0.00000000
v -16.85441399 -10.96701336 0.00000000
v -16.80334663 -10.89781761 0.00000000
v -16.75759125 -10.82499981 0.00000000
v -16.71740723 -10.74896622 0.00000000
v -16.68301582 -10.67014217 0.00000000
v -9.85810089 -14.45917892 0.00000000
v -14.45917892 -9.85810089 0.00000000
v -16.65461159 -10.58896828 0.00000000
v -16.63235283 -10.50589943 0.00000000
v -16.61636543 -10.42139816 0.00000000
v -16.60673714 -10.33593941 0.00000000
v -16.60352135 -10.25000000 0.00000000
v -16.60673714 -10.16406059 0.00000000
v -16.61636543 -10.07860184 0.00000000
v -16.63235283 -9.99410057 0.00000000
v -8.75000000 -15.15544415 0.00000000
v -15.15544415 -8.75000000 0.00000000
v -16.65461159 -9.91103172 0.00000000
v -16.68301582 -9.82985783 0.00000000
v -16.71740723 -9.75103378 0.00000000
v -16.75759125 -9.67500019 0.00000000
v -16.80334663 -9.60218239 0.00000000
v -16.85441399 -9.53298664 0.00000000
v -16.91051102 -9.46780109 0.00000000
v -16.97132301 -9.40699005 0.00000000
v -7.59296560 -15.76695538 0.00000000
v -15.76695538 -7.59296560 0.00000000
v -17.33337784 -9.17949486 0.00000000
v -17.41455269 -9.15109158 0.00000000
v -17.49762154 -9.12883282 0.00000000
v -17.58212280 -9.11284447 0.00000000
v -17.03650665 -9.35089397 0.00000000
v -17.10570335 -9.29982567 0.00000000
v -17.17852020 -9.25407124 0.00000000
v -17.25455475 -9.21388626 0.00000000
v -6.39346790 -16.29029083 0.00000000
v -16.29029083 -6.39346790 0.00000000
v -17.66758156 -9.10321522 0.00000000
v -17.75352097 -9.10000038 0.00000000
v -17.83946037 -9.10321522 0.00000000
v -17.92491913 -9.11284447 0.00000000
v -18.00942039 -9.12883282 0.00000000
v -5.15821552 -16.72252464 0.00000000
v -16.72252464 -5.15821552 0.00000000
v -3.89411640 -17.06123924 0.00000000
v -17.06123924 -3.89411640 0.00000000
v -2.60823965 -17.30453873 0.00000000
v -17.30453873 -2.60823965 0.00000000
v -1.30777669 -17.45106697 0.00000000
v -17.45106697 -1.30777669 0.00000000
v -0.00000000 -17.50000000 0.00000000
v -17.50000000 0.00000000 0.00000000
v 1.30777669 -17.45106697 0.00000000
v -17.45106697 1.30777669 0.00000000
v 2.60823965 -17.30453873 0.00000000
v -17.30453873 2.60823965 0.00000000
v 3.89411640 -17.06123924 0.00000000
v -17.06123924 3.89411640 0.00000000
v 5.15821552 -16.72252464 0.00000000
v -16.72252464 5.15821552 0.00000000
v -16.29029083 6.39346790 0.00000000
v 6.39346790 -16.29029083 0.00000000
v -15.76695538 7.59296560 0.00000000
v 7.59296560 -15.76695538 0.00000000
v -15.15544415 8.75000000 0.00000000
v 8.75000000 -15.15544415 0.00000000
v -14.45917892 9.85810089 0.00000000
v 9.85810089 -14.45917892 0.00000000
v -13.68205070 10.91107178 0.00000000
v 10.91107178 -13.68205070 0.00000000
v -12.82840729 11.90302277 0.00000000
v 11.90302277 -12.82840729 0.00000000
v 12.82840729 -11.90302277 0.00000000
v -11.90302277 12.82840729 0.00000000
v -10.91107178 13.68205070 0.00000000
v 13.68205070 -10.91107178 0.00000000
v 16.97132301 -11.09300995 0.00000000
v 16.91051102 -11.03219891 0.00000000
v 17.03650665 -11.14910603 0.00000000
v 16.85441399 -10.96701336 0.00000000
v 17.10570335 -11.20017433 0.00000000
v 16.80334663 -10.89781761 0.00000000
v -9.85810089 14.45917892 0.00000000
v 17.17852020 -11.24592876 0.00000000
v 16.75759125 -10.82499981 0.00000000
v 16.71740723 -10.74896622 0.00000000
v 17.25455475 -11.28611374 0.00000000
v 16.68301582 -10.67014217 0.00000000
v 14.45917892 -9.85810089 0.00000000
v 17.33337784 -11.32050514 0.00000000
v 17.41455269 -11.34890842 0.00000000
v 16.65461159 -10.58896828 0.00000000
v 17.49762154 -11.37116718 0.00000000
v 16.63235283 -10.50589943 0.00000000
v 16.61636543 -10.42139816 0.00000000
v 17.58212280 -11.38715553 0.00000000
v 17.66758156 -11.39678478 0.00000000
v 16.60673714 -10.33593941 0.00000000
v 17.75352097 -11.39999962 0.00000000
v 16.60352135 -10.25000000 0.00000000
v -8.75000000 15.15544415 0.00000000
v 17.83946037 -11.39678478 0.00000000
v 16.60673714 -10.16406059 0.00000000
v 17.92491913 -11.38715553 0.00000000
v 16.61636543 -10.07860184 0.00000000
v 16.63235283 -9.99410057 0.00000000
v 15.15544415 -8.75000000 0.00000000
v 18.00942039 -11.37116718 0.00000000
v 18.09248924 -11.34890842 0.00000000
v 16.65461159 -9.91103172 0.00000000
v 18.17366219 -11.32050514 0.00000000
v 16.68301582 -9.82985783 0.00000000
v 16.71740723 -9.75103378 0.00000000
v 18.25248718 -11.28611374 0.00000000
v 16.75759125 -9.67500019 0.00000000
v 18.32852173 -11.24592876 0.00000000
v 16.80334663 -9.60218239 0.00000000
v 18.40133858 -11.20017433 0.00000000
v 16.85441399 -9.53298664 0.00000000
v 16.91051102 -9.46780109 0.00000000
v 16.97132301 -9.40699005 0.00000000
v 15.76695538 -7.59296560 0.00000000
v 17.33337784 -9.17949486 0.00000000
v 17.25455475 -9.21388626 0.00000000
v 17.17852020 -9.25407124 0.00000000
v 17.10570335 -9.29982567 0.00000000
v 17.03650665 -9.35089397 0.00000000
v -7.59296560 15.76695538 0.00000000
v 18.47053337 -11.14910603 0.00000000
v 18.53571892 -11.09300995 0.00000000
v 18.59653091 -11.03219891 0.00000000
v 18.65262604 -10.96701336 0.00000000
v 18.70369530 -10.89781761 0.00000000
v 18.74945068 -10.82499981 0.00000000
v 18.78963470 -10.74896622 0.00000000
v 18.82402611 -10.67014217 0.00000000
v 17.41455269 -9.15109158 0.00000000
v 18.85243034 -10.58896828 0.00000000
v 17.49762154 -9.12883282 0.00000000
v 18.87468719 -10.50589943 0.00000000
v 17.58212280 -9.11284447 0.00000000
v 18.89067650 -10.42139816 0.00000000
v 18.90030479 -10.33593941 0.00000000
v 16.29029083 -6.39346790 0.00000000
v 18.09248924 -9.15109158 0.00000000
v 18.00942039 -9.12883282 0.00000000
v 17.92491913 -9.11284447 0.00000000
v 17.83946037 -9.10321522 0.00000000
v 17.75352097 -9.10000038 0.00000000
v 17.66758156 -9.10321522 0.00000000
v 18.90352058 -10.25000000 0.00000000
v 18.90030479 -10.16406059 0.00000000
v 18.89067650 -10.07860184 0.00000000
v 18.87468719 -9.99410057 0.00000000
v 18.85243034 -9.91103172 0.00000000
v 18.82402611 -9.82985783 0.00000000
v 18.78963470 -9.75103378 0.00000000
v 18.74945068 -9.67500019 0.00000000
v 18.70369530 -9.60218239 0.00000000
v 18.65262604 -9.53298664 0.00000000
v 18.59653091 -9.46780109 0.00000000
v -6.39346790 16.29029083 0.00000000
v 18.53571892 -9.40699005 0.00000000
v 18.47053337 -9.35089397 0.00000000
v 18.40133858 -9.29982567 0.00000000
v 18.32852173 -9.25407124 0.00000000
v 18.25248718 -9.21388626 0.00000000
v 18.17366219 -9.17949486 0.00000000
v -5.15821552 16.72252464 0.00000000
v 16.72252464 -5.15821552 0.00000000
v 17.06123924 -3.89411640 0.00000000
v -3.89411640 17.06123924 0.00000000
v -0.84300965 19.71780205 0.00000000
v -0.78219867 19.65699005 0.00000000
v -1.30777669 17.45106697 0.00000000
v -0.71701330 19.60089302 0.00000000
v -0.89910620 19.78298759 0.00000000
v -2.60823965 17.30453873 0.00000000
v 17.30453873 -2.60823965 0.00000000
v 17.45106697 -1.30777669 0.00000000
v -0.64781809 19.54982567 0.00000000
v -0.95017457 19.85218239 0.00000000
v -0.99592924 19.92499924 0.00000000
v -0.57499999 19.50407028 0.00000000
v -0.49896631 19.46388626 0.00000000
v -1.03611422 20.00103378 0.00000000
v -1.07050478 20.07985687 0.00000000
v -0.42014217 19.42949486 0.00000000
v -1.09890878 20.16103172 0.00000000
v -0.33896846 19.40109062 0.00000000
v -0.00000000 17.50000000 0.00000000
v -0.25589907 19.37883377 0.00000000
v -1.12116706 20.24410057 0.00000000
v -1.13715541 20.32860184 0.00000000
v -0.17139861 19.36284447 0.00000000
v -1.14678442 20.41406059 0.00000000
v -0.08593961 19.35321617 0.00000000
v 0.00000000 19.35000038 0.00000000
v -1.14999998 20.50000000 0.00000000
v -1.14678442 20.58593941 0.00000000
v 0.08593961 19.35321617 0.00000000
v -1.13715541 20.67139816 0.00000000
v 0.17139861 19.36284447 0.00000000
v -1.12116706 20.75589943 0.00000000
v 0.25589907 19.37883377 0.00000000
v 0.33896846 19.40109062 0.00000000
v 1.30777669 17.45106697 0.00000000
v -1.09890878 20.83896828 0.00000000
v 0.42014217 19.42949486 0.00000000
v 0.49896631 19.46388626 0.00000000
v 0.57499999 19.50407028 0.00000000
v 0.64781809 19.54982567 0.00000000
v 0.71701330 19.60089302 0.00000000
v 0.78219867 19.65699005 0.00000000
v 0.84300965 19.71780205 0.00000000
v 0.89910620 19.78298759 0.00000000
v 2.60823965 17.30453873 0.00000000
v -0.71701330 21.39910698 0.00000000
v -0.78219867 21.34300995 0.00000000
v -0.84300965 21.28219795 0.00000000
v -0.89910620 21.21701241 0.00000000
v -0.95017457 21.14781761 0.00000000
v -0.99592924 21.07500076 0.00000000
v -1.03611422 20.99896622 0.00000000
v -1.07050478 20.92014313 0.00000000
v -0.64781809 21.45017433 0.00000000
v 0.95017457 19.85218239 0.00000000
v -0.57499999 21.49592972 0.00000000
v 0.99592924 19.92499924 0.00000000
v -0.49896631 21.53611374 0.00000000
v 1.03611422 20.00103378 0.00000000
v 1.07050478 20.07985687 0.00000000
v 1.09890878 20.16103172 0.00000000
v 1.12116706 20.24410057 0.00000000
v 0.49896631 21.53611374 0.00000000
v 0.42014217 21.57050514 0.00000000
v 0.33896846 21.59890938 0.00000000
v 0.25589907 21.62116623 0.00000000
v 0.17139861 21.63715553 0.00000000
v 0.08593961 21.64678383 0.00000000
v 0.00000000 21.64999962 0.00000000
v -0.08593961 21.64678383 0.00000000
v -0.17139861 21.63715553 0.00000000
v -0.25589907 21.62116623 0.00000000
v -0.33896846 21.59890938 0.00000000
v -0.42014217 21.57050514 0.00000000
v 17.50000000 -0.00000000 0.00000000
v 17.45106697 1.30777669 0.00000000
v 1.09890878 20.83896828 0.00000000
v 1.07050478 20.92014313 0.00000000
v 1.03611422 20.99896622 0.00000000
v 0.99592924 21.07500076 0.00000000
v 0.95017457 21.14781761 0.00000000
v 0.89910620 21.21701241 0.00000000
v 0.84300965 21.28219795 0.00000000
v 0.78219867 21.34300995 0.00000000
v 0.71701330 21.39910698 0.00000000
v 0.64781809 21.45017433 0.00000000
v 0.57499999 21.49592972 0.00000000
v 1.13715541 20.32860184 0.00000000
v 1.14678442 20.41406059 0.00000000
v 1.14999998 20.50000000 0.00000000
v 1.14678442 20.58593941 0.00000000
v 1.13715541 20.67139816 0.00000000
v 1.12116706 20.75589943 0.00000000
v 3.89411640 17.06123924 0.00000000
v 17.30453873 2.60823965 0.00000000
v 17.06123924 3.89411640 0.00000000
v 5.15821552 16.72252464 0.00000000
v 16.72252464 5.15821552 0.00000000
v 16.29029083 6.39346790 0.00000000
v 6.39346790 16.29029083 0.00000000
v 8.75000000 15.15544415 0.00000000
v 7.59296560 15.76695538 0.00000000
v 15.76695538 7.59296560 0.00000000
v 15.15544415 8.75000000 0.00000000
v 14.45917892 9.85810089 0.00000000
v 9.85810089 14.45917892 0.00000000
v 13.68205070 10.91107178 0.00000000
v 10.91107178 13.68205070 0.00000000
v 12.82840729 11.90302277 0.00000000
v 11.90302277 12.82840729 0.00000000
f 1 2 3
f 1 3 4
f 5 1 4
f 5 4 6
f 7 6 8
f 7 5 6
f 9 8 10
f 9 7 8
f 11 10 12
f 11 9 10
f 13 12 14
f 13 11 12
f 15 14 16
f 15 13 14
f 17 15 16
f 17 16 18
f 19 17 18
f 19 18 20
f 21 19 20
f 21 20 22
f 23 21 22
f 23 22 24
f 25 23 24
f 25 24 26
f 27 25 26
f 27 26 28
f 29 27 28
f 29 28 30
f 31 29 30
f 31 30 32
f 33 32 34
f 33 31 32
f 35 34 36
f 35 33 34
f 37 36 38
f 37 35 36
f 39 38 40
f 39 37 38
f 41 40 42
f 41 42 43
f 41 39 40
f 44 41 43
f 44 43 45
f 46 44 45
f 47 45 48
f 47 46 45
f 49 48 50
f 49 47 48
f 51 50 52
f 51 52 53
f 51 49 50
f 54 53 55
f 54 51 53
f 56 54 55
f 57 55 58
f 57 56 55
f 59 58 60
f 59 57 58
f 61 60 62
f 61 59 60
f 63 62 64
f 63 61 62
f 65 63 64
f 65 64 66
f 67 65 66
f 67 66 68
f 69 67 68
f 69 68 70
f 71 69 70
f 71 70 72
f 73 71 72
f 73 72 74
f 75 74 76
f 75 73 74
f 77 76 78
f 77 75 76
f 79 78 80
f 79 77 78
f 81 80 82
f 81 79 80
f 83 82 84
f 83 81 82
f 85 84 86
f 85 86 87
f 85 83 84
f 88 85 87
f 89 87 90
f 89 88 87
f 91 90 92
f 91 89 90
f 93 92 94
f 93 91 92
f 95 94 96
f 95 93 94
f 97 96 98
f 97 95 96
f 99 98 100
f 99 97 98
f 101 100 102
f 101 99 100
f 103 102 104
f 103 101 102
f 105 104 106
f 105 106 107
f 105 103 104
f 108 105 107
f 109 107 110
f 109 108 107
f 111 110 112
f 111 109 110
f 113 112 114
f 113 111 112
f 115 114 116
f 115 113 114
f 117 115 116
f 117 116 118
f 119 117 118
f 119 118 120
f 121 119 120
f 121 120 122
f 123 121 122
f 123 122 124
f 125 123 124
f 125 124 126
f 127 125 126
f 127 126 128
f 127 128 129
f 130 127 129
f 131 130 129
f 131 129 132
f 133 131 132
f 133 132 134
f 135 133 134
f 135 134 136
f 137 135 136
f 137 136 138
f 139 137 138
f 139 138 140
f 141 139 140
f 141 140 142
f 143 141 142
f 143 142 144
f 145 144 146
f 145 143 144
f 147 146 148
f 147 145 146
f 149 148 150
f 149 147 148
f 151 150 152
f 151 149 150
f 153 152 154
f 153 151 152
f 155 154 156
f 155 153 154
f 157 156 158
f 157 155 156
f 159 158 160
f 159 157 158
f 161 160 162
f 161 159 160
f 163 162 164
f 163 161 162
f 165 164 166
f 165 163 164
f 167 165 166
f 167 166 168
f 2 167 168
f 2 168 3
f 169 170 99
f 171 99 170
f 172 169 99
f 173 172 99
f 173 99 101
f 174 99 171
f 175 173 101
f 176 99 174
f 177 175 101
f 178 99 176
f 179 177 101
f 180 99 178
f 181 179 101
f 182 99 180
f 183 181 101
f 184 99 182
f 185 183 101
f 186 99 184
f 187 185 101
f 188 97 99
f 188 99 186
f 189 187 101
f 190 97 188
f 191 189 101
f 192 97 190
f 193 191 101
f 194 97 192
f 195 101 103
f 195 193 101
f 196 97 194
f 197 97 196
f 198 195 103
f 199 97 197
f 200 198 103
f 201 97 199
f 202 200 103
f 203 202 103
f 204 97 201
f 205 97 204
f 206 203 103
f 207 97 205
f 208 206 103
f 209 97 207
f 209 95 97
f 210 208 103
f 211 95 209
f 212 95 211
f 213 95 212
f 214 95 213
f 215 95 214
f 216 95 215
f 217 95 216
f 218 105 108
f 218 108 109
f 219 105 218
f 220 218 109
f 221 210 103
f 221 105 219
f 221 103 105
f 221 222 210
f 221 223 222
f 221 224 223
f 221 225 224
f 221 226 225
f 221 227 226
f 228 109 111
f 228 220 109
f 229 230 227
f 229 231 230
f 229 232 231
f 229 233 232
f 229 234 233
f 229 227 221
f 229 235 234
f 229 236 235
f 229 237 236
f 238 228 111
f 238 111 113
f 238 113 115
f 239 237 229
f 239 240 237
f 239 241 240
f 239 242 241
f 239 243 242
f 239 244 243
f 239 245 244
f 239 246 245
f 239 247 246
f 248 238 115
f 249 250 251
f 249 252 250
f 249 253 252
f 249 247 239
f 249 254 247
f 249 255 254
f 249 256 255
f 249 257 256
f 249 251 257
f 258 248 115
f 258 115 117
f 258 117 119
f 259 260 253
f 259 261 260
f 259 262 261
f 259 263 262
f 259 264 263
f 259 217 264
f 259 253 249
f 259 95 217
f 265 258 119
f 266 93 95
f 266 95 259
f 267 265 119
f 267 119 121
f 267 121 123
f 268 91 93
f 268 93 266
f 269 267 123
f 269 123 125
f 270 89 91
f 270 91 268
f 271 269 125
f 271 125 127
f 272 88 89
f 272 89 270
f 273 271 127
f 274 85 88
f 274 88 272
f 275 273 127
f 275 127 130
f 276 83 85
f 276 85 274
f 277 130 131
f 277 131 133
f 277 275 130
f 278 79 81
f 278 81 83
f 278 83 276
f 279 277 133
f 280 79 278
f 281 133 135
f 281 279 133
f 282 79 280
f 282 77 79
f 283 77 282
f 283 75 77
f 284 135 137
f 284 281 135
f 285 75 283
f 285 73 75
f 286 284 137
f 286 137 139
f 287 73 285
f 287 71 73
f 288 286 139
f 288 139 141
f 289 71 287
f 289 69 71
f 290 288 141
f 290 141 143
f 291 67 69
f 291 69 289
f 292 290 143
f 292 143 145
f 65 67 291
f 293 65 291
f 294 292 145
f 294 145 147
f 295 294 147
f 63 65 293
f 63 293 296
f 149 295 147
f 61 63 296
f 61 296 297
f 151 298 295
f 151 295 149
f 299 298 151
f 300 298 299
f 301 299 151
f 302 298 300
f 303 301 151
f 304 298 302
f 59 61 297
f 59 297 305
f 306 303 151
f 307 298 304
f 308 298 307
f 309 306 151
f 310 311 298
f 310 298 308
f 312 309 151
f 313 312 151
f 314 311 310
f 315 313 151
f 315 151 153
f 316 311 314
f 317 311 316
f 318 315 153
f 319 318 153
f 320 311 317
f 321 319 153
f 322 311 320
f 323 59 305
f 324 321 153
f 325 311 322
f 326 324 153
f 327 311 325
f 328 329 311
f 328 311 327
f 330 326 153
f 331 330 153
f 332 329 328
f 333 331 153
f 334 329 332
f 335 329 334
f 336 333 153
f 337 329 335
f 338 336 153
f 339 329 337
f 340 338 153
f 341 329 339
f 342 329 341
f 343 329 342
f 344 329 343
f 344 345 346
f 344 347 345
f 344 348 347
f 344 349 348
f 344 343 349
f 57 59 323
f 57 323 350
f 155 351 340
f 155 352 351
f 155 353 352
f 155 354 353
f 155 355 354
f 155 356 355
f 155 357 356
f 155 358 357
f 155 340 153
f 359 344 346
f 360 358 155
f 361 344 359
f 362 360 155
f 363 344 361
f 364 362 155
f 365 364 155
f 366 344 363
f 366 367 368
f 366 369 367
f 366 370 369
f 366 371 370
f 366 372 371
f 366 363 372
f 56 57 350
f 157 365 155
f 157 373 365
f 157 374 373
f 157 375 374
f 157 376 375
f 157 377 376
f 157 378 377
f 157 379 378
f 157 380 379
f 157 381 380
f 157 382 381
f 157 383 382
f 54 56 350
f 54 350 384
f 159 366 368
f 159 383 157
f 159 385 383
f 159 386 385
f 159 387 386
f 159 388 387
f 159 389 388
f 159 390 389
f 159 368 390
f 51 54 384
f 51 384 391
f 161 366 159
f 161 392 366
f 161 393 392
f 49 391 394
f 49 51 391
f 163 393 161
f 395 396 397
f 398 397 396
f 399 396 395
f 399 400 396
f 47 394 400
f 47 49 394
f 165 401 393
f 165 402 401
f 165 393 163
f 403 398 396
f 404 400 399
f 405 400 404
f 406 403 396
f 407 406 396
f 408 400 405
f 409 400 408
f 410 407 396
f 411 400 409
f 412 410 396
f 412 396 413
f 414 412 413
f 415 47 400
f 415 400 411
f 416 47 415
f 417 414 413
f 418 47 416
f 419 417 413
f 420 419 413
f 421 47 418
f 422 47 421
f 423 420 413
f 424 47 422
f 425 423 413
f 426 47 424
f 427 425 413
f 428 427 413
f 428 413 429
f 430 47 426
f 431 428 429
f 432 431 429
f 433 432 429
f 434 433 429
f 435 434 429
f 436 435 429
f 437 436 429
f 438 429 439
f 438 437 429
f 46 47 430
f 46 440 441
f 46 442 440
f 46 443 442
f 46 444 443
f 46 445 444
f 46 446 445
f 46 447 446
f 46 430 447
f 167 402 165
f 448 46 441
f 449 438 439
f 450 46 448
f 451 449 439
f 452 46 450
f 453 451 439
f 454 453 439
f 455 454 439
f 456 455 439
f 44 46 452
f 44 457 458
f 44 459 457
f 44 460 459
f 44 461 460
f 44 462 461
f 44 463 462
f 44 464 463
f 44 465 464
f 44 466 465
f 44 467 466
f 44 468 467
f 44 452 468
f 2 402 167
f 2 469 402
f 2 470 469
f 41 471 472
f 41 473 471
f 41 474 473
f 41 475 474
f 41 476 475
f 41 477 476
f 41 478 477
f 41 479 478
f 41 480 479
f 41 481 480
f 41 458 481
f 41 44 458
f 1 470 2
f 39 482 456
f 39 483 482
f 39 484 483
f 39 456 439
f 39 485 484
f 39 486 485
f 39 487 486
f 39 472 487
f 39 41 472
f 39 439 488
f 5 489 470
f 5 470 1
f 37 39 488
f 7 489 5
f 7 490 489
f 35 37 488
f 35 488 491
f 9 492 490
f 9 493 492
f 9 490 7
f 33 35 491
f 33 491 494
f 11 493 9
f 31 33 494
f 31 495 496
f 31 494 495
f 13 493 11
f 13 497 493
f 13 498 497
f 15 498 13
f 29 31 496
f 17 498 15
f 17 499 498
f 27 29 496
f 27 496 500
f 19 499 17
f 19 501 499
f 25 27 500
f 25 500 502
f 21 501 19
f 21 503 501
f 23 25 502
f 23 503 21
f 23 504 503
f 23 502 504
f 505 100 506
f 507 506 100
f 508 100 505
f 509 100 508
f 509 102 100
f 510 507 100
f 511 102 509
f 512 510 100
f 513 102 511
f 514 512 100
f 515 102 513
f 516 514 100
f 517 102 515
f 518 516 100
f 519 102 517
f 520 518 100
f 521 102 519
f 522 520 100
f 523 102 521
f 524 100 98
f 524 522 100
f 525 102 523
f 526 524 98
f 527 102 525
f 528 526 98
f 529 102 527
f 530 528 98
f 531 104 102
f 531 102 529
f 532 530 98
f 533 532 98
f 534 104 531
f 535 533 98
f 536 104 534
f 537 535 98
f 538 104 536
f 539 104 538
f 540 537 98
f 541 540 98
f 542 104 539
f 543 541 98
f 544 104 542
f 545 543 98
f 545 98 96
f 546 104 544
f 547 545 96
f 548 547 96
f 549 548 96
f 550 549 96
f 551 550 96
f 552 551 96
f 553 552 96
f 554 107 106
f 554 110 107
f 555 554 106
f 556 110 554
f 557 104 546
f 557 555 106
f 557 106 104
f 557 546 558
f 557 558 559
f 557 559 560
f 557 560 561
f 557 561 562
f 557 562 563
f 564 112 110
f 564 110 556
f 565 563 566
f 565 566 567
f 565 567 568
f 565 568 569
f 565 569 570
f 565 557 563
f 565 570 571
f 565 571 572
f 565 572 573
f 574 112 564
f 574 114 112
f 574 116 114
f 575 565 573
f 575 573 576
f 575 576 577
f 575 577 578
f 575 578 579
f 575 579 580
f 575 580 581
f 575 581 582
f 575 582 583
f 584 116 574
f 585 586 587
f 585 587 588
f 585 588 589
f 585 575 583
f 585 583 590
f 585 590 591
f 585 591 592
f 585 592 593
f 585 593 586
f 594 116 584
f 594 118 116
f 594 120 118
f 595 589 596
f 595 596 597
f 595 597 598
f 595 598 599
f 595 599 600
f 595 600 553
f 595 585 589
f 595 553 96
f 601 120 594
f 602 96 94
f 602 595 96
f 603 120 601
f 603 122 120
f 603 124 122
f 604 94 92
f 604 602 94
f 605 124 603
f 605 126 124
f 606 92 90
f 606 604 92
f 607 126 605
f 607 128 126
f 608 90 87
f 608 606 90
f 609 128 607
f 610 87 86
f 610 608 87
f 611 128 609
f 611 129 128
f 612 86 84
f 612 610 86
f 613 132 129
f 613 134 132
f 613 129 611
f 614 82 80
f 614 84 82
f 614 612 84
f 615 134 613
f 616 614 80
f 617 136 134
f 617 134 615
f 618 616 80
f 618 80 78
f 619 618 78
f 619 78 76
f 620 138 136
f 620 136 617
f 621 619 76
f 621 76 74
f 622 138 620
f 622 140 138
f 623 621 74
f 623 74 72
f 624 140 622
f 624 142 140
f 625 623 72
f 625 72 70
f 626 142 624
f 626 144 142
f 627 70 68
f 627 625 70
f 628 144 626
f 628 146 144
f 66 627 68
f 629 627 66
f 630 146 628
f 630 148 146
f 631 148 630
f 64 629 66
f 64 632 629
f 150 148 631
f 62 632 64
f 62 633 632
f 152 631 634
f 152 150 631
f 635 152 634
f 636 635 634
f 637 152 635
f 638 636 634
f 639 152 637
f 640 638 634
f 60 633 62
f 60 641 633
f 642 152 639
f 643 640 634
f 644 643 634
f 645 152 642
f 646 634 647
f 646 644 634
f 648 152 645
f 649 152 648
f 650 646 647
f 651 152 649
f 651 154 152
f 652 650 647
f 653 652 647
f 654 154 651
f 655 154 654
f 656 653 647
f 657 154 655
f 658 656 647
f 659 641 60
f 660 154 657
f 661 658 647
f 662 154 660
f 663 661 647
f 664 647 665
f 664 663 647
f 666 154 662
f 667 154 666
f 668 664 665
f 669 154 667
f 670 668 665
f 671 670 665
f 672 154 669
f 673 671 665
f 674 154 672
f 675 673 665
f 676 154 674
f 677 675 665
f 678 677 665
f 679 678 665
f 680 679 665
f 680 681 682
f 680 682 683
f 680 683 684
f 680 684 685
f 680 685 679
f 58 659 60
f 58 686 659
f 156 676 687
f 156 687 688
f 156 688 689
f 156 689 690
f 156 690 691
f 156 691 692
f 156 692 693
f 156 693 694
f 156 154 676
f 695 681 680
f 696 156 694
f 697 695 680
f 698 156 696
f 699 697 680
f 700 156 698
f 701 156 700
f 702 699 680
f 702 703 704
f 702 704 705
f 702 705 706
f 702 706 707
f 702 707 708
f 702 708 699
f 55 686 58
f 158 156 701
f 158 701 709
f 158 709 710
f 158 710 711
f 158 711 712
f 158 712 713
f 158 713 714
f 158 714 715
f 158 715 716
f 158 716 717
f 158 717 718
f 158 718 719
f 53 686 55
f 53 720 686
f 160 703 702
f 160 158 719
f 160 719 721
f 160 721 722
f 160 722 723
f 160 723 724
f 160 724 725
f 160 725 726
f 160 726 703
f 52 720 53
f 52 727 720
f 162 160 702
f 162 702 728
f 162 728 729
f 50 730 727
f 50 727 52
f 164 162 729
f 731 732 733
f 734 733 732
f 735 731 733
f 735 733 736
f 48 736 730
f 48 730 50
f 166 729 737
f 166 737 738
f 166 164 729
f 739 733 734
f 740 735 736
f 741 740 736
f 742 733 739
f 743 733 742
f 744 741 736
f 745 744 736
f 746 733 743
f 747 745 736
f 748 733 746
f 748 749 733
f 750 749 748
f 751 736 48
f 751 747 736
f 752 751 48
f 753 749 750
f 754 752 48
f 755 749 753
f 756 749 755
f 757 754 48
f 758 757 48
f 759 749 756
f 760 758 48
f 761 749 759
f 762 760 48
f 763 749 761
f 764 749 763
f 764 765 749
f 766 762 48
f 767 765 764
f 768 765 767
f 769 765 768
f 770 765 769
f 771 765 770
f 772 765 771
f 773 765 772
f 774 775 765
f 774 765 773
f 45 766 48
f 45 776 777
f 45 777 778
f 45 778 779
f 45 779 780
f 45 780 781
f 45 781 782
f 45 782 783
f 45 783 766
f 168 166 738
f 784 776 45
f 785 775 774
f 786 784 45
f 787 775 785
f 788 786 45
f 789 775 787
f 790 775 789
f 791 775 790
f 792 775 791
f 43 788 45
f 43 793 794
f 43 794 795
f 43 795 796
f 43 796 797
f 43 797 798
f 43 798 799
f 43 799 800
f 43 800 801
f 43 801 802
f 43 802 803
f 43 803 804
f 43 804 788
f 3 168 738
f 3 738 805
f 3 805 806
f 42 807 808
f 42 808 809
f 42 809 810
f 42 810 811
f 42 811 812
f 42 812 813
f 42 813 814
f 42 814 815
f 42 815 816
f 42 816 817
f 42 817 793
f 42 793 43
f 4 3 806
f 40 792 818
f 40 818 819
f 40 819 820
f 40 775 792
f 40 820 821
f 40 821 822
f 40 822 823
f 40 823 807
f 40 807 42
f 40 824 775
f 6 806 825
f 6 4 806
f 38 824 40
f 8 6 825
f 8 825 826
f 36 824 38
f 36 827 824
f 10 826 828
f 10 828 829
f 10 8 826
f 34 827 36
f 34 830 827
f 12 10 829
f 32 830 34
f 32 831 832
f 32 832 830
f 14 12 829
f 14 829 833
f 14 833 834
f 16 14 834
f 30 831 32
f 18 16 834
f 18 834 835
f 28 831 30
f 28 836 831
f 20 18 835
f 20 835 837
f 26 836 28
f 26 838 836
f 22 20 837
f 22 837 839
f 24 838 26
f 24 22 839
f 24 839 840
f 24 840 838
f 235 570 234
f 235 571 570
f 236 571 235
f 236 572 571
f 237 573 572
f 237 572 236
f 240 576 573
f 240 573 237
f 241 577 576
f 241 576 240
f 242 578 577
f 242 577 241
f 243 579 578
f 243 578 242
f 244 579 243
f 244 580 579
f 245 580 244
f 245 581 580
f 246 581 245
f 246 582 581
f 247 582 246
f 247 583 582
f 254 583 247
f 254 590 583
f 255 590 254
f 255 591 590
f 256 591 255
f 256 592 591
f 257 592 256
f 257 593 592
f 251 586 593
f 251 593 257
f 250 587 586
f 250 588 587
f 250 586 251
f 252 588 250
f 253 589 588
f 253 588 252
f 260 596 589
f 260 597 596
f 260 589 253
f 261 597 260
f 262 598 597
f 262 597 261
f 263 599 598
f 263 598 262
f 264 600 599
f 264 599 263
f 217 553 600
f 217 600 264
f 216 552 553
f 216 551 552
f 216 553 217
f 215 551 216
f 214 550 551
f 214 549 550
f 214 551 215
f 213 549 214
f 212 548 549
f 212 549 213
f 211 547 548
f 211 548 212
f 209 547 211
f 209 545 547
f 207 545 209
f 207 543 545
f 205 543 207
f 205 541 543
f 204 541 205
f 204 540 541
f 201 540 204
f 201 537 540
f 199 535 537
f 199 537 201
f 197 533 535
f 197 535 199
f 196 532 533
f 196 533 197
f 194 530 532
f 194 532 196
f 192 528 530
f 192 530 194
f 190 526 528
f 190 528 192
f 188 524 526
f 188 526 190
f 186 522 524
f 186 524 188
f 184 520 522
f 184 522 186
f 182 518 520
f 182 520 184
f 180 516 518
f 180 518 182
f 178 514 516
f 178 516 180
f 176 512 514
f 176 514 178
f 174 510 512
f 174 512 176
f 171 507 510
f 171 510 174
f 170 506 507
f 170 507 171
f 169 505 506
f 169 506 170
f 172 508 505
f 172 505 169
f 173 509 508
f 173 508 172
f 175 511 509
f 175 509 173
f 177 513 511
f 177 511 175
f 179 513 177
f 179 515 513
f 181 515 179
f 181 517 515
f 183 517 181
f 183 519 517
f 185 519 183
f 185 521 519
f 187 521 185
f 187 523 521
f 189 523 187
f 189 525 523
f 191 525 189
f 191 527 525
f 193 527 191
f 193 529 527
f 195 529 193
f 195 531 529
f 198 531 195
f 198 534 531
f 200 534 198
f 200 536 534
f 202 536 200
f 202 538 536
f 203 538 202
f 203 539 538
f 206 539 203
f 206 542 539
f 208 544 542
f 208 542 206
f 210 546 544
f 210 558 546
f 210 544 208
f 222 558 210
f 223 559 558
f 223 558 222
f 224 560 559
f 224 559 223
f 225 561 560
f 225 560 224
f 226 562 561
f 226 561 225
f 227 563 562
f 227 562 226
f 230 566 563
f 230 563 227
f 231 567 566
f 231 566 230
f 232 568 567
f 232 567 231
f 233 568 232
f 233 569 568
f 234 569 233
f 234 570 569
f 374 709 373
f 374 710 709
f 375 710 374
f 375 711 710
f 376 712 711
f 376 711 375
f 377 713 712
f 377 712 376
f 378 714 713
f 378 713 377
f 379 715 714
f 379 714 378
f 380 716 715
f 380 715 379
f 381 716 380
f 381 717 716
f 382 717 381
f 382 718 717
f 383 718 382
f 383 719 718
f 385 719 383
f 385 721 719
f 386 721 385
f 386 722 721
f 387 722 386
f 387 723 722
f 388 723 387
f 388 724 723
f 389 724 388
f 389 725 724
f 390 726 725
f 390 725 389
f 368 703 726
f 368 704 703
f 368 726 390
f 367 704 368
f 369 705 704
f 369 704 367
f 370 706 705
f 370 707 706
f 370 705 369
f 371 707 370
f 372 708 707
f 372 707 371
f 363 699 708
f 363 708 372
f 361 697 699
f 361 699 363
f 359 695 697
f 359 697 361
f 346 681 695
f 346 682 681
f 346 695 359
f 345 682 346
f 347 683 682
f 347 684 683
f 347 682 345
f 348 684 347
f 349 685 684
f 349 684 348
f 343 679 685
f 343 685 349
f 342 679 343
f 342 678 679
f 341 678 342
f 341 677 678
f 339 677 341
f 339 675 677
f 337 675 339
f 337 673 675
f 335 673 337
f 335 671 673
f 334 670 671
f 334 671 335
f 332 668 670
f 332 670 334
f 328 664 668
f 328 668 332
f 327 663 664
f 327 664 328
f 325 661 663
f 325 663 327
f 322 658 661
f 322 661 325
f 320 656 658
f 320 658 322
f 317 653 656
f 317 656 320
f 316 652 653
f 316 653 317
f 314 650 652
f 314 652 316
f 310 646 650
f 310 650 314
f 308 644 646
f 308 646 310
f 307 643 644
f 307 644 308
f 304 640 643
f 304 643 307
f 302 638 640
f 302 640 304
f 300 636 638
f 300 638 302
f 299 635 636
f 299 636 300
f 301 637 635
f 301 635 299
f 303 639 637
f 303 637 301
f 306 642 639
f 306 639 303
f 309 645 642
f 309 642 306
f 312 645 309
f 312 648 645
f 313 648 312
f 313 649 648
f 315 649 313
f 315 651 649
f 318 651 315
f 318 654 651
f 319 654 318
f 319 655 654
f 321 655 319
f 321 657 655
f 324 657 321
f 324 660 657
f 326 660 324
f 326 662 660
f 330 662 326
f 330 666 662
f 331 666 330
f 331 667 666
f 333 667 331
f 333 669 667
f 336 669 333
f 336 672 669
f 338 672 336
f 338 674 672
f 340 674 338
f 340 676 674
f 351 687 676
f 351 676 340
f 352 688 687
f 352 689 688
f 352 687 351
f 353 689 352
f 354 690 689
f 354 689 353
f 355 691 690
f 355 690 354
f 356 692 691
f 356 691 355
f 357 693 692
f 357 692 356
f 358 694 693
f 358 693 357
f 360 696 694
f 360 694 358
f 362 698 696
f 362 696 360
f 364 700 698
f 364 698 362
f 365 700 364
f 365 701 700
f 373 701 365
f 373 709 701
f 470 805 469
f 470 806 805
f 489 806 470
f 489 825 806
f 490 826 825
f 490 825 489
f 492 828 826
f 492 826 490
f 493 829 828
f 493 828 492
f 497 833 829
f 497 829 493
f 498 834 833
f 498 833 497
f 499 834 498
f 499 835 834
f 501 835 499
f 501 837 835
f 503 837 501
f 503 839 837
f 504 839 503
f 504 840 839
f 502 840 504
f 502 838 840
f 500 838 502
f 500 836 838
f 496 836 500
f 496 831 836
f 495 831 496
f 495 832 831
f 494 830 832
f 494 832 495
f 491 827 830
f 491 824 827
f 491 830 494
f 488 824 491
f 439 775 824
f 439 824 488
f 429 765 775
f 429 749 765
f 429 775 439
f 413 749 429
f 396 733 749
f 396 749 413
f 400 736 733
f 400 733 396
f 394 730 736
f 394 736 400
f 391 727 730
f 391 730 394
f 384 720 727
f 384 686 720
f 384 727 391
f 350 686 384
f 323 659 686
f 323 641 659
f 323 686 350
f 305 641 323
f 297 633 641
f 297 641 305
f 296 632 633
f 296 633 297
f 293 632 296
f 293 629 632
f 291 629 293
f 291 627 629
f 289 627 291
f 289 625 627
f 287 625 289
f 287 623 625
f 285 623 287
f 285 621 623
f 283 619 621
f 283 621 285
f 282 618 619
f 282 619 283
f 280 616 618
f 280 618 282
f 278 614 616
f 278 616 280
f 276 612 614
f 276 614 278
f 274 610 612
f 274 612 276
f 272 608 610
f 272 610 274
f 270 606 608
f 270 608 272
f 268 604 606
f 268 606 270
f 266 602 604
f 266 604 268
f 259 595 602
f 259 602 266
f 249 585 595
f 249 595 259
f 239 575 585
f 239 585 249
f 229 565 575
f 229 575 239
f 221 557 565
f 221 565 229
f 219 555 557
f 219 557 221
f 218 554 555
f 218 555 219
f 220 556 554
f 220 554 218
f 228 564 556
f 228 556 220
f 238 574 564
f 238 564 228
f 248 584 574
f 248 574 238
f 258 584 248
f 258 594 584
f 265 594 258
f 265 601 594
f 267 601 265
f 267 603 601
f 269 603 267
f 269 605 603
f 271 605 269
f 271 607 605
f 273 607 271
f 273 609 607
f 275 609 273
f 275 611 609
f 277 611 275
f 277 613 611
f 279 613 277
f 279 615 613
f 281 615 279
f 281 617 615
f 284 617 281
f 284 620 617
f 286 620 284
f 286 622 620
f 288 622 286
f 288 624 622
f 290 624 288
f 290 626 624
f 292 628 626
f 292 626 290
f 294 630 628
f 294 631 630
f 294 628 292
f 295 631 294
f 298 634 631
f 298 631 295
f 311 647 634
f 311 634 298
f 329 665 647
f 329 647 311
f 344 680 665
f 344 665 329
f 366 702 680
f 366 680 344
f 392 728 702
f 392 702 366
f 393 729 728
f 393 728 392
f 401 737 729
f 401 729 393
f 402 737 401
f 402 738 737
f 469 738 402
f 469 805 738
f 485 820 484
f 485 821 820
f 486 821 485
f 486 822 821
f 487 823 822
f 487 822 486
f 472 807 823
f 472 823 487
f 471 808 807
f 471 807 472
f 473 809 808
f 473 808 471
f 474 810 809
f 474 809 473
f 475 810 474
f 475 811 810
f 476 811 475
f 476 812 811
f 477 812 476
f 477 813 812
f 478 813 477
f 478 814 813
f 479 814 478
f 479 815 814
f 480 815 479
f 480 816 815
f 481 816 480
f 481 817 816
f 458 817 481
f 458 793 817
f 457 794 793
f 457 793 458
f 459 795 794
f 459 796 795
f 459 794 457
f 460 796 459
f 461 797 796
f 461 796 460
f 462 798 797
f 462 799 798
f 462 797 461
f 463 799 462
f 464 800 799
f 464 799 463
f 465 801 800
f 465 800 464
f 466 802 801
f 466 801 465
f 467 803 802
f 467 802 466
f 468 804 803
f 468 788 804
f 468 803 467
f 452 788 468
f 450 786 788
f 450 784 786
f 450 788 452
f 448 784 450
f 441 776 784
f 441 784 448
f 440 777 776
f 440 776 441
f 442 777 440
f 442 778 777
f 443 778 442
f 443 779 778
f 444 779 443
f 444 780 779
f 445 780 444
f 445 781 780
f 446 781 445
f 446 782 781
f 447 783 782
f 447 782 446
f 430 766 783
f 430 783 447
f 426 762 766
f 426 766 430
f 424 760 762
f 424 762 426
f 422 758 760
f 422 760 424
f 421 757 758
f 421 758 422
f 418 754 757
f 418 757 421
f 416 752 754
f 416 754 418
f 415 751 752
f 415 752 416
f 411 747 751
f 411 751 415
f 409 745 747
f 409 747 411
f 408 744 745
f 408 745 409
f 405 741 744
f 405 744 408
f 404 740 741
f 404 741 405
f 399 735 740
f 399 740 404
f 395 731 735
f 395 735 399
f 397 732 731
f 397 731 395
f 398 734 732
f 398 732 397
f 403 739 734
f 403 734 398
f 406 742 739
f 406 739 403
f 407 743 742
f 407 742 406
f 410 743 407
f 410 746 743
f 412 746 410
f 412 748 746
f 414 748 412
f 414 750 748
f 417 750 414
f 417 753 750
f 419 753 417
f 419 755 753
f 420 755 419
f 420 756 755
f 423 756 420
f 423 759 756
f 425 759 423
f 425 761 759
f 427 761 425
f 427 763 761
f 428 763 427
f 428 764 763
f 431 764 428
f 431 767 764
f 432 767 431
f 432 768 767
f 433 768 432
f 433 769 768
f 434 769 433
f 434 770 769
f 435 771 770
f 435 770 434
f 436 772 771
f 436 773 772
f 436 771 435
f 437 773 436
f 438 774 773
f 438 773 437
f 449 785 774
f 449 774 438
f 451 787 785
f 451 785 449
f 453 789 787
f 453 787 451
f 454 790 789
f 454 789 453
f 455 791 790
f 455 790 454
f 456 792 791
f 456 791 455
f 482 818 792
f 482 792 456
f 483 818 482
f 483 819 818
f 484 819 483
f 484 820 819

