OFF
840 1692 0
22.4370861053 1.6814271212 2.0000000000
22.5000000000 -0.0000000000 2.0000000000
22.5000000000 -0.0000000000 0.0000000000
22.4370861053 1.6814271212 0.0000000000
22.2486934662 3.3534510136 2.0000000000
22.2486934662 3.3534510136 0.0000000000
21.9358787537 5.0067210197 2.0000000000
21.9358787537 5.0067210197 0.0000000000
21.5003871918 6.6319913864 2.0000000000
21.5003871918 6.6319913864 0.0000000000
20.9446601868 8.2201728821 2.0000000000
20.9446601868 8.2201728821 0.0000000000
20.2717990875 9.7623844147 2.0000000000
20.2717990875 9.7623844147 0.0000000000
19.4855709076 11.2500000000 2.0000000000
19.4855709076 11.2500000000 0.0000000000
18.5903720856 12.6747016907 2.0000000000
18.5903720856 12.6747016907 0.0000000000
17.5912075043 14.0285205841 2.0000000000
17.5912075043 14.0285205841 0.0000000000
16.4936676025 15.3038864136 2.0000000000
16.4936676025 15.3038864136 0.0000000000
15.3038864136 16.4936676025 2.0000000000
15.3038864136 16.4936676025 0.0000000000
14.0285205841 17.5912075043 2.0000000000
14.0285205841 17.5912075043 0.0000000000
12.6747016907 18.5903720856 2.0000000000
12.6747016907 18.5903720856 0.0000000000
11.2500000000 19.4855709076 2.0000000000
11.2500000000 19.4855709076 0.0000000000
9.7623844147 20.2717990875 2.0000000000
9.7623844147 20.2717990875 0.0000000000
8.2201728821 20.9446601868 2.0000000000
8.2201728821 20.9446601868 0.0000000000
6.6319913864 21.5003871918 2.0000000000
6.6319913864 21.5003871918 0.0000000000
5.0067210197 21.9358787537 2.0000000000
5.0067210197 21.9358787537 0.0000000000
3.3534510136 22.2486934662 2.0000000000
3.3534510136 22.2486934662 0.0000000000
1.6814271212 22.4370861053 2.0000000000
1.6814271212 22.4370861053 0.0000000000
-0.0000000000 22.5000000000 0.0000000000
-0.0000000000 22.5000000000 2.0000000000
-1.6814271212 22.4370861053 0.0000000000
-1.6814271212 22.4370861053 2.0000000000
-3.3534510136 22.2486934662 2.0000000000
-3.3534510136 22.2486934662 0.0000000000
-5.0067210197 21.9358787537 2.0000000000
-5.0067210197 21.9358787537 0.0000000000
-6.6319913864 21.5003871918 2.0000000000
-6.6319913864 21.5003871918 0.0000000000
-8.2201728821 20.9446601868 0.0000000000
-8.2201728821 20.9446601868 2.0000000000
-9.7623844147 20.2717990875 0.0000000000
-9.7623844147 20.2717990875 2.0000000000
-11.2500000000 19.4855709076 2.0000000000
-11.2500000000 19.4855709076 0.0000000000
-12.6747016907 18.5903720856 2.0000000000
-12.6747016907 18.5903720856 0.0000000000
-14.0285205841 17.5912075043 2.0000000000
-14.0285205841 17.5912075043 0.0000000000
-15.3038864136 16.4936676025 2.0000000000
-15.3038864136 16.4936676025 0.0000000000
-16.4936676025 15.3038864136 2.0000000000
-16.4936676025 15.3038864136 0.0000000000
-17.5912075043 14.0285205841 2.0000000000
-17.5912075043 14.0285205841 0.0000000000
-18.5903720856 12.6747016907 2.0000000000
-18.5903720856 12.6747016907 0.0000000000
-19.4855709076 11.2500000000 2.0000000000
-19.4855709076 11.2500000000 0.0000000000
-20.2717990875 9.7623844147 2.0000000000
-20.2717990875 9.7623844147 0.0000000000
-20.9446601868 8.2201728821 2.0000000000
-20.9446601868 8.2201728821 0.0000000000
-21.5003871918 6.6319913864 2.0000000000
-21.5003871918 6.6319913864 0.0000000000
-21.9358787537 5.0067210197 2.0000000000
-21.9358787537 5.0067210197 0.0000000000
-22.2486934662 3.3534510136 2.0000000000
-22.2486934662 3.3534510136 0.0000000000
-22.4370861053 1.6814271212 2.0000000000
-22.4370861053 1.6814271212 0.0000000000
-22.5000000000 0.0000000000 2.0000000000
-22.5000000000 0.0000000000 0.0000000000
-22.4370861053 -1.6814271212 0.0000000000
-22.4370861053 -1.6814271212 2.0000000000
-22.2486934662 -3.3534510136 2.0000000000
-22.2486934662 -3.3534510136 0.0000000000
-21.9358787537 -5.0067210197 2.0000000000
-21.9358787537 -5.0067210197 0.0000000000
-21.5003871918 -6.6319913864 2.0000000000
-21.5003871918 -6.6319913864 0.0000000000
-20.9446601868 -8.2201728821 2.0000000000
-20.9446601868 -8.2201728821 0.0000000000
-20.2717990875 -9.7623844147 2.0000000000
-20.2717990875 -9.7623844147 0.0000000000
-19.4855709076 -11.2500000000 2.0000000000
-19.4855709076 -11.2500000000 0.0000000000
-18.5903720856 -12.6747016907 2.0000000000
-18.5903720856 -12.6747016907 0.0000000000
-17.5912075043 -14.0285205841 2.0000000000
-17.5912075043 -14.0285205841 0.0000000000
-16.4936676025 -15.3038864136 2.0000000000
-16.4936676025 -15.3038864136 0.0000000000
-15.3038864136 -16.4936676025 0.0000000000
-15.3038864136 -16.4936676025 2.0000000000
-14.0285205841 -17.5912075043 2.0000000000
-14.0285205841 -17.5912075043 0.0000000000
-12.6747016907 -18.5903720856 2.0000000000
-12.6747016907 -18.5903720856 0.0000000000
-11.2500000000 -19.4855709076 2.0000000000
-11.2500000000 -19.4855709076 0.0000000000
-9.7623844147 -20.2717990875 2.0000000000
-9.7623844147 -20.2717990875 0.0000000000
-8.2201728821 -20.9446601868 2.0000000000
-8.2201728821 -20.9446601868 0.0000000000
-6.6319913864 -21.5003871918 2.0000000000
-6.6319913864 -21.5003871918 0.0000000000
-5.0067210197 -21.9358787537 2.0000000000
-5.0067210197 -21.9358787537 0.0000000000
-3.3534510136 -22.2486934662 2.0000000000
-3.3534510136 -22.2486934662 0.0000000000
-1.6814271212 -22.4370861053 2.0000000000
-1.6814271212 -22.4370861053 0.0000000000
-0.0000000000 -22.5000000000 2.0000000000
-0.0000000000 -22.5000000000 0.0000000000
1.6814271212 -22.4370861053 0.0000000000
1.6814271212 -22.4370861053 2.0000000000
3.3534510136 -22.2486934662 2.0000000000
3.3534510136 -22.2486934662 0.0000000000
5.0067210197 -21.9358787537 2.0000000000
5.0067210197 -21.9358787537 0.0000000000
6.6319913864 -21.5003871918 2.0000000000
6.6319913864 -21.5003871918 0.0000000000
8.2201728821 -20.9446601868 2.0000000000
8.2201728821 -20.9446601868 0.0000000000
9.7623844147 -20.2717990875 2.0000000000
9.7623844147 -20.2717990875 0.0000000000
11.2500000000 -19.4855709076 2.0000000000
11.2500000000 -19.4855709076 0.0000000000
12.6747016907 -18.5903720856 2.0000000000
12.6747016907 -18.5903720856 0.0000000000
14.0285205841 -17.5912075043 2.0000000000
14.0285205841 -17.5912075043 0.0000000000
15.3038864136 -16.4936676025 2.0000000000
15.3038864136 -16.4936676025 0.0000000000
16.4936676025 -15.3038864136 2.0000000000
16.4936676025 -15.3038864136 0.0000000000
17.5912075043 -14.0285205841 2.0000000000
17.5912075043 -14.0285205841 0.0000000000
18.5903720856 -12.6747016907 2.0000000000
18.5903720856 -12.6747016907 0.0000000000
19.4855709076 -11.2500000000 2.0000000000
19.4855709076 -11.2500000000 0.0000000000
20.2717990875 -9.7623844147 2.0000000000
20.2717990875 -9.7623844147 0.0000000000
20.9446601868 -8.2201728821 2.0000000000
20.9446601868 -8.2201728821 0.0000000000
21.5003871918 -6.6319913864 2.0000000000
21.5003871918 -6.6319913864 0.0000000000
21.9358787537 -5.0067210197 2.0000000000
21.9358787537 -5.0067210197 0.0000000000
22.2486934662 -3.3534510136 2.0000000000
22.2486934662 -3.3534510136 0.0000000000
22.4370861053 -1.6814271212 2.0000000000
22.4370861053 -1.6814271212 0.0000000000
-18.5357189178 -11.0930099487 2.0000000000
-18.5965309143 -11.0321989059 2.0000000000
-18.6526260376 -10.9670133591 2.0000000000
-18.4705333710 -11.1491060257 2.0000000000
-18.4013385773 -11.2001743317 2.0000000000
-18.7036952972 -10.8978176117 2.0000000000
-18.3285217285 -11.2459287643 2.0000000000
-18.7494506836 -10.8249998093 2.0000000000
-18.2524871826 -11.2861137390 2.0000000000
-18.7896347046 -10.7489662170 2.0000000000
-18.1736621857 -11.3205051422 2.0000000000
-18.8240261078 -10.6701421738 2.0000000000
-18.0924892426 -11.3489084244 2.0000000000
-18.8524303436 -10.5889682770 2.0000000000
-18.0094203949 -11.3711671829 2.0000000000
-18.8746871948 -10.5058994293 2.0000000000
-17.9249191284 -11.3871555328 2.0000000000
-18.8906764984 -10.4213981628 2.0000000000
-17.8394603729 -11.3967847824 2.0000000000
-18.9003047943 -10.3359394073 2.0000000000
-17.7535209656 -11.3999996185 2.0000000000
-18.9035205841 -10.2500000000 2.0000000000
-17.6675815582 -11.3967847824 2.0000000000
-18.9003047943 -10.1640605927 2.0000000000
-17.5821228027 -11.3871555328 2.0000000000
-18.8906764984 -10.0786018372 2.0000000000
-17.4976215363 -11.3711671829 2.0000000000
-18.8746871948 -9.9941005707 2.0000000000
-18.8524303436 -9.9110317230 2.0000000000
-17.4145526886 -11.3489084244 2.0000000000
-18.8240261078 -9.8298578262 2.0000000000
-17.3333778381 -11.3205051422 2.0000000000
-18.7896347046 -9.7510337830 2.0000000000
-17.2545547485 -11.2861137390 2.0000000000
-17.1785202026 -11.2459287643 2.0000000000
-18.7494506836 -9.6750001907 2.0000000000
-18.7036952972 -9.6021823883 2.0000000000
-17.1057033539 -11.2001743317 2.0000000000
-18.6526260376 -9.5329866409 2.0000000000
-17.0365066528 -11.1491060257 2.0000000000
-18.5965309143 -9.4678010941 2.0000000000
-16.9713230133 -11.0930099487 2.0000000000
-18.5357189178 -9.4069900513 2.0000000000
-18.4705333710 -9.3508939743 2.0000000000
-18.4013385773 -9.2998256683 2.0000000000
-18.3285217285 -9.2540712357 2.0000000000
-18.2524871826 -9.2138862610 2.0000000000
-18.1736621857 -9.1794948578 2.0000000000
-18.0924892426 -9.1510915756 2.0000000000
-11.9030227661 -12.8284072876 2.0000000000
-12.8284072876 -11.9030227661 2.0000000000
-10.9110717773 -13.6820507050 2.0000000000
-13.6820507050 -10.9110717773 2.0000000000
-16.9105110168 -11.0321989059 2.0000000000
-16.8544139862 -10.9670133591 2.0000000000
-16.8033466339 -10.8978176117 2.0000000000
-16.7575912476 -10.8249998093 2.0000000000
-16.7174072266 -10.7489662170 2.0000000000
-16.6830158234 -10.6701421738 2.0000000000
-9.8581008911 -14.4591789246 2.0000000000
-14.4591789246 -9.8581008911 2.0000000000
-16.6546115875 -10.5889682770 2.0000000000
-16.6323528290 -10.5058994293 2.0000000000
-16.6163654327 -10.4213981628 2.0000000000
-16.6067371368 -10.3359394073 2.0000000000
-16.6035213470 -10.2500000000 2.0000000000
-16.6067371368 -10.1640605927 2.0000000000
-16.6163654327 -10.0786018372 2.0000000000
-16.6323528290 -9.9941005707 2.0000000000
-8.7500000000 -15.1554441452 2.0000000000
-15.1554441452 -8.7500000000 2.0000000000
-16.6546115875 -9.9110317230 2.0000000000
-16.6830158234 -9.8298578262 2.0000000000
-16.7174072266 -9.7510337830 2.0000000000
-16.7575912476 -9.6750001907 2.0000000000
-16.8033466339 -9.6021823883 2.0000000000
-16.8544139862 -9.5329866409 2.0000000000
-16.9105110168 -9.4678010941 2.0000000000
-16.9713230133 -9.4069900513 2.0000000000
-7.5929656029 -15.7669553757 2.0000000000
-15.7669553757 -7.5929656029 2.0000000000
-17.4145526886 -9.1510915756 2.0000000000
-17.3333778381 -9.1794948578 2.0000000000
-17.4976215363 -9.1288328171 2.0000000000
-17.5821228027 -9.1128444672 2.0000000000
-17.0365066528 -9.3508939743 2.0000000000
-17.1057033539 -9.2998256683 2.0000000000
-17.1785202026 -9.2540712357 2.0000000000
-17.2545547485 -9.2138862610 2.0000000000
-6.3934679031 -16.2902908325 2.0000000000
-16.2902908325 -6.3934679031 2.0000000000
-17.6675815582 -9.1032152176 2.0000000000
-17.7535209656 -9.1000003815 2.0000000000
-17.8394603729 -9.1032152176 2.0000000000
-17.9249191284 -9.1128444672 2.0000000000
-18.0094203949 -9.1288328171 2.0000000000
-5.1582155228 -16.7225246429 2.0000000000
-16.7225246429 -5.1582155228 2.0000000000
-3.8941164017 -17.0612392426 2.0000000000
-17.0612392426 -3.8941164017 2.0000000000
-2.6082396507 -17.3045387268 2.0000000000
-17.3045387268 -2.6082396507 2.0000000000
-1.3077766895 -17.4510669708 2.0000000000
-17.4510669708 -1.3077766895 2.0000000000
-0.0000000000 -17.5000000000 2.0000000000
-17.5000000000 0.0000000000 2.0000000000
1.3077766895 -17.4510669708 2.0000000000
-17.4510669708 1.3077766895 2.0000000000
2.6082396507 -17.3045387268 2.0000000000
-17.3045387268 2.6082396507 2.0000000000
3.8941164017 -17.0612392426 2.0000000000
-17.0612392426 3.8941164017 2.0000000000
5.1582155228 -16.7225246429 2.0000000000
-16.7225246429 5.1582155228 2.0000000000
-16.2902908325 6.3934679031 2.0000000000
6.3934679031 -16.2902908325 2.0000000000
-15.7669553757 7.5929656029 2.0000000000
7.5929656029 -15.7669553757 2.0000000000
-15.1554441452 8.7500000000 2.0000000000
8.7500000000 -15.1554441452 2.0000000000
-14.4591789246 9.8581008911 2.0000000000
9.8581008911 -14.4591789246 2.0000000000
-13.6820507050 10.9110717773 2.0000000000
10.9110717773 -13.6820507050 2.0000000000
-12.8284072876 11.9030227661 2.0000000000
11.9030227661 -12.8284072876 2.0000000000
12.8284072876 -11.9030227661 2.0000000000
-11.9030227661 12.8284072876 2.0000000000
-10.9110717773 13.6820507050 2.0000000000
13.6820507050 -10.9110717773 2.0000000000
16.9713230133 -11.0930099487 2.0000000000
16.9105110168 -11.0321989059 2.0000000000
17.0365066528 -11.1491060257 2.0000000000
16.8544139862 -10.9670133591 2.0000000000
17.1057033539 -11.2001743317 2.0000000000
16.8033466339 -10.8978176117 2.0000000000
-9.8581008911 14.4591789246 2.0000000000
17.1785202026 -11.2459287643 2.0000000000
16.7575912476 -10.8249998093 2.0000000000
16.7174072266 -10.7489662170 2.0000000000
17.2545547485 -11.2861137390 2.0000000000
16.6830158234 -10.6701421738 2.0000000000
14.4591789246 -9.8581008911 2.0000000000
17.3333778381 -11.3205051422 2.0000000000
17.4145526886 -11.3489084244 2.0000000000
16.6546115875 -10.5889682770 2.0000000000
17.4976215363 -11.3711671829 2.0000000000
16.6323528290 -10.5058994293 2.0000000000
16.6163654327 -10.4213981628 2.0000000000
17.5821228027 -11.3871555328 2.0000000000
17.6675815582 -11.3967847824 2.0000000000
16.6067371368 -10.3359394073 2.0000000000
17.7535209656 -11.3999996185 2.0000000000
16.6035213470 -10.2500000000 2.0000000000
-8.7500000000 15.1554441452 2.0000000000
17.8394603729 -11.3967847824 2.0000000000
16.6067371368 -10.1640605927 2.0000000000
17.9249191284 -11.3871555328 2.0000000000
16.6163654327 -10.0786018372 2.0000000000
16.6323528290 -9.9941005707 2.0000000000
15.1554441452 -8.7500000000 2.0000000000
18.0094203949 -11.3711671829 2.0000000000
18.0924892426 -11.3489084244 2.0000000000
16.6546115875 -9.9110317230 2.0000000000
18.1736621857 -11.3205051422 2.0000000000
16.6830158234 -9.8298578262 2.0000000000
16.7174072266 -9.7510337830 2.0000000000
18.2524871826 -11.2861137390 2.0000000000
16.7575912476 -9.6750001907 2.0000000000
18.3285217285 -11.2459287643 2.0000000000
16.8033466339 -9.6021823883 2.0000000000
18.4013385773 -11.2001743317 2.0000000000
16.8544139862 -9.5329866409 2.0000000000
16.9105110168 -9.4678010941 2.0000000000
16.9713230133 -9.4069900513 2.0000000000
15.7669553757 -7.5929656029 2.0000000000
17.2545547485 -9.2138862610 2.0000000000
17.3333778381 -9.1794948578 2.0000000000
17.1785202026 -9.2540712357 2.0000000000
17.1057033539 -9.2998256683 2.0000000000
17.0365066528 -9.3508939743 2.0000000000
-7.5929656029 15.7669553757 2.0000000000
18.4705333710 -11.1491060257 2.0000000000
18.5357189178 -11.0930099487 2.0000000000
18.5965309143 -11.0321989059 2.0000000000
18.6526260376 -10.9670133591 2.0000000000
18.7036952972 -10.8978176117 2.0000000000
18.7494506836 -10.8249998093 2.0000000000
18.7896347046 -10.7489662170 2.0000000000
18.8240261078 -10.6701421738 2.0000000000
17.4145526886 -9.1510915756 2.0000000000
18.8524303436 -10.5889682770 2.0000000000
17.4976215363 -9.1288328171 2.0000000000
18.8746871948 -10.5058994293 2.0000000000
17.5821228027 -9.1128444672 2.0000000000
18.8906764984 -10.4213981628 2.0000000000
18.9003047943 -10.3359394073 2.0000000000
16.2902908325 -6.3934679031 2.0000000000
18.0094203949 -9.1288328171 2.0000000000
18.0924892426 -9.1510915756 2.0000000000
17.9249191284 -9.1128444672 2.0000000000
17.8394603729 -9.1032152176 2.0000000000
17.7535209656 -9.1000003815 2.0000000000
17.6675815582 -9.1032152176 2.0000000000
18.9035205841 -10.2500000000 2.0000000000
18.9003047943 -10.1640605927 2.0000000000
18.8906764984 -10.0786018372 2.0000000000
18.8746871948 -9.9941005707 2.0000000000
18.8524303436 -9.9110317230 2.0000000000
18.8240261078 -9.8298578262 2.0000000000
18.7896347046 -9.7510337830 2.0000000000
18.7494506836 -9.6750001907 2.0000000000
18.7036952972 -9.6021823883 2.0000000000
18.6526260376 -9.5329866409 2.0000000000
18.5965309143 -9.4678010941 2.0000000000
-6.3934679031 16.2902908325 2.0000000000
18.5357189178 -9.4069900513 2.0000000000
18.4705333710 -9.3508939743 2.0000000000
18.4013385773 -9.2998256683 2.0000000000
18.3285217285 -9.2540712357 2.0000000000
18.2524871826 -9.2138862610 2.0000000000
18.1736621857 -9.1794948578 2.0000000000
-5.1582155228 16.7225246429 2.0000000000
16.7225246429 -5.1582155228 2.0000000000
17.0612392426 -3.8941164017 2.0000000000
-3.8941164017 17.0612392426 2.0000000000
-0.8430096507 19.7178020477 2.0000000000
-1.3077766895 17.4510669708 2.0000000000
-0.7821986675 19.6569900513 2.0000000000
-0.7170132995 19.6008930206 2.0000000000
-0.8991062045 19.7829875946 2.0000000000
-2.6082396507 17.3045387268 2.0000000000
17.3045387268 -2.6082396507 2.0000000000
17.4510669708 -1.3077766895 2.0000000000
-0.6478180885 19.5498256683 2.0000000000
-0.9501745701 19.8521823883 2.0000000000
-0.9959292412 19.9249992371 2.0000000000
-0.5749999881 19.5040702820 2.0000000000
-0.4989663064 19.4638862610 2.0000000000
-1.0361142159 20.0010337830 2.0000000000
-1.0705047846 20.0798568726 2.0000000000
-0.4201421738 19.4294948578 2.0000000000
-1.0989087820 20.1610317230 2.0000000000
-0.3389684558 19.4010906219 2.0000000000
-0.0000000000 17.5000000000 2.0000000000
-0.2558990717 19.3788337708 2.0000000000
-1.1211670637 20.2441005707 2.0000000000
-1.1371554136 20.3286018372 2.0000000000
-0.1713986099 19.3628444672 2.0000000000
-1.1467844248 20.4140605927 2.0000000000
-0.0859396085 19.3532161713 2.0000000000
0.0000000000 19.3500003815 2.0000000000
-1.1499999762 20.5000000000 2.0000000000
-1.1467844248 20.5859394073 2.0000000000
0.0859396085 19.3532161713 2.0000000000
-1.1371554136 20.6713981628 2.0000000000
0.1713986099 19.3628444672 2.0000000000
-1.1211670637 20.7558994293 2.0000000000
0.2558990717 19.3788337708 2.0000000000
0.3389684558 19.4010906219 2.0000000000
1.3077766895 17.4510669708 2.0000000000
-1.0989087820 20.8389682770 2.0000000000
0.4201421738 19.4294948578 2.0000000000
0.4989663064 19.4638862610 2.0000000000
0.5749999881 19.5040702820 2.0000000000
0.6478180885 19.5498256683 2.0000000000
0.7170132995 19.6008930206 2.0000000000
0.7821986675 19.6569900513 2.0000000000
0.8430096507 19.7178020477 2.0000000000
0.8991062045 19.7829875946 2.0000000000
2.6082396507 17.3045387268 2.0000000000
-0.7821986675 21.3430099487 2.0000000000
-0.7170132995 21.3991069794 2.0000000000
-0.8430096507 21.2821979523 2.0000000000
-0.8991062045 21.2170124054 2.0000000000
-0.9501745701 21.1478176117 2.0000000000
-0.9959292412 21.0750007629 2.0000000000
-1.0361142159 20.9989662170 2.0000000000
-1.0705047846 20.9201431274 2.0000000000
-0.6478180885 21.4501743317 2.0000000000
0.9501745701 19.8521823883 2.0000000000
-0.5749999881 21.4959297180 2.0000000000
0.9959292412 19.9249992371 2.0000000000
-0.4989663064 21.5361137390 2.0000000000
1.0361142159 20.0010337830 2.0000000000
1.0705047846 20.0798568726 2.0000000000
1.0989087820 20.1610317230 2.0000000000
1.1211670637 20.2441005707 2.0000000000
0.4201421738 21.5705051422 2.0000000000
0.4989663064 21.5361137390 2.0000000000
0.3389684558 21.5989093781 2.0000000000
0.2558990717 21.6211662292 2.0000000000
0.1713986099 21.6371555328 2.0000000000
0.0859396085 21.6467838287 2.0000000000
0.0000000000 21.6499996185 2.0000000000
-0.0859396085 21.6467838287 2.0000000000
-0.1713986099 21.6371555328 2.0000000000
-0.2558990717 21.6211662292 2.0000000000
-0.3389684558 21.5989093781 2.0000000000
-0.4201421738 21.5705051422 2.0000000000
17.5000000000 -0.0000000000 2.0000000000
17.4510669708 1.3077766895 2.0000000000
1.0705047846 20.9201431274 2.0000000000
1.0989087820 20.8389682770 2.0000000000
1.0361142159 20.9989662170 2.0000000000
0.9959292412 21.0750007629 2.0000000000
0.9501745701 21.1478176117 2.0000000000
0.8991062045 21.2170124054 2.0000000000
0.8430096507 21.2821979523 2.0000000000
0.7821986675 21.3430099487 2.0000000000
0.7170132995 21.3991069794 2.0000000000
0.6478180885 21.4501743317 2.0000000000
0.5749999881 21.4959297180 2.0000000000
1.1371554136 20.3286018372 2.0000000000
1.1467844248 20.4140605927 2.0000000000
1.1499999762 20.5000000000 2.0000000000
1.1467844248 20.5859394073 2.0000000000
1.1371554136 20.6713981628 2.0000000000
1.1211670637 20.7558994293 2.0000000000
3.8941164017 17.0612392426 2.0000000000
17.3045387268 2.6082396507 2.0000000000
17.0612392426 3.8941164017 2.0000000000
5.1582155228 16.7225246429 2.0000000000
16.7225246429 5.1582155228 2.0000000000
16.2902908325 6.3934679031 2.0000000000
6.3934679031 16.2902908325 2.0000000000
7.5929656029 15.7669553757 2.0000000000
8.7500000000 15.1554441452 2.0000000000
15.7669553757 7.5929656029 2.0000000000
15.1554441452 8.7500000000 2.0000000000
14.4591789246 9.8581008911 2.0000000000
9.8581008911 14.4591789246 2.0000000000
13.6820507050 10.9110717773 2.0000000000
10.9110717773 13.6820507050 2.0000000000
12.8284072876 11.9030227661 2.0000000000
11.9030227661 12.8284072876 2.0000000000
-18.5357189178 -11.0930099487 0.0000000000
-18.5965309143 -11.0321989059 0.0000000000
-18.6526260376 -10.9670133591 0.0000000000
-18.4705333710 -11.1491060257 0.0000000000
-18.4013385773 -11.2001743317 0.0000000000
-18.7036952972 -10.8978176117 0.0000000000
-18.3285217285 -11.2459287643 0.0000000000
-18.7494506836 -10.8249998093 0.0000000000
-18.2524871826 -11.2861137390 0.0000000000
-18.7896347046 -10.7489662170 0.0000000000
-18.1736621857 -11.3205051422 0.0000000000
-18.8240261078 -10.6701421738 0.0000000000
-18.0924892426 -11.3489084244 0.0000000000
-18.8524303436 -10.5889682770 0.0000000000
-18.0094203949 -11.3711671829 0.0000000000
-18.8746871948 -10.5058994293 0.0000000000
-17.9249191284 -11.3871555328 0.0000000000
-18.8906764984 -10.4213981628 0.0000000000
-17.8394603729 -11.3967847824 0.0000000000
-18.9003047943 -10.3359394073 0.0000000000
-17.7535209656 -11.3999996185 0.0000000000
-18.9035205841 -10.2500000000 0.0000000000
-17.6675815582 -11.3967847824 0.0000000000
-18.9003047943 -10.1640605927 0.0000000000
-17.5821228027 -11.3871555328 0.0000000000
-18.8906764984 -10.0786018372 0.0000000000
-17.4976215363 -11.3711671829 0.0000000000
-18.8746871948 -9.9941005707 0.0000000000
-18.8524303436 -9.9110317230 0.0000000000
-17.4145526886 -11.3489084244 0.0000000000
-18.8240261078 -9.8298578262 0.0000000000
-17.3333778381 -11.3205051422 0.0000000000
-18.7896347046 -9.7510337830 0.0000000000
-17.2545547485 -11.2861137390 0.0000000000
-17.1785202026 -11.2459287643 0.0000000000
-18.7494506836 -9.6750001907 0.0000000000
-18.7036952972 -9.6021823883 0.0000000000
-17.1057033539 -11.2001743317 0.0000000000
-18.6526260376 -9.5329866409 0.0000000000
-17.0365066528 -11.1491060257 0.0000000000
-18.5965309143 -9.4678010941 0.0000000000
-16.9713230133 -11.0930099487 0.0000000000
-18.5357189178 -9.4069900513 0.0000000000
-18.4705333710 -9.3508939743 0.0000000000
-18.4013385773 -9.2998256683 0.0000000000
-18.3285217285 -9.2540712357 0.0000000000
-18.2524871826 -9.2138862610 0.0000000000
-18.1736621857 -9.1794948578 0.0000000000
-18.0924892426 -9.1510915756 0.0000000000
-11.9030227661 -12.8284072876 0.0000000000
-12.8284072876 -11.9030227661 0.0000000000
-10.9110717773 -13.6820507050 0.0000000000
-13.6820507050 -10.9110717773 0.0000000000
-16.9105110168 -11.0321989059 0.0000000000
-16.8544139862 -10.9670133591 0.0000000000
-16.8033466339 -10.8978176117 0.0000000000
-16.7575912476 -10.8249998093 0.0000000000
-16.7174072266 -10.7489662170 0.0000000000
-16.6830158234 -10.6701421738 0.0000000000
-9.8581008911 -14.4591789246 0.0000000000
-14.4591789246 -9.8581008911 0.0000000000
-16.6546115875 -10.5889682770 0.0000000000
-16.6323528290 -10.5058994293 0.0000000000
-16.6163654327 -10.4213981628 0.0000000000
-16.6067371368 -10.3359394073 0.0000000000
-16.6035213470 -10.2500000000 0.0000000000
-16.6067371368 -10.1640605927 0.0000000000
-16.6163654327 -10.0786018372 0.0000000000
-16.6323528290 -9.9941005707 0.0000000000
-8.7500000000 -15.1554441452 0.0000000000
-15.1554441452 -8.7500000000 0.0000000000
-16.6546115875 -9.9110317230 0.0000000000
-16.6830158234 -9.8298578262 0.0000000000
-16.7174072266 -9.7510337830 0.0000000000
-16.7575912476 -9.6750001907 0.0000000000
-16.8033466339 -9.6021823883 0.0000000000
-16.8544139862 -9.5329866409 0.0000000000
-16.9105110168 -9.4678010941 0.0000000000
-16.9713230133 -9.4069900513 0.0000000000
-7.5929656029 -15.7669553757 0.0000000000
-15.7669553757 -7.5929656029 0.0000000000
-17.3333778381 -9.1794948578 0.0000000000
-17.4145526886 -9.1510915756 0.0000000000
-17.4976215363 -9.1288328171 0.0000000000
-17.5821228027 -9.1128444672 0.0000000000
-17.0365066528 -9.3508939743 0.0000000000
-17.1057033539 -9.2998256683 0.0000000000
-17.1785202026 -9.2540712357 0.0000000000
-17.2545547485 -9.2138862610 0.0000000000
-6.3934679031 -16.2902908325 0.0000000000
-16.2902908325 -6.3934679031 0.0000000000
-17.6675815582 -9.1032152176 0.0000000000
-17.7535209656 -9.1000003815 0.0000000000
-17.8394603729 -9.1032152176 0.0000000000
-17.9249191284 -9.1128444672 0.0000000000
-18.0094203949 -9.1288328171 0.0000000000
-5.1582155228 -16.7225246429 0.0000000000
-16.7225246429 -5.1582155228 0.0000000000
-3.8941164017 -17.0612392426 0.0000000000
-17.0612392426 -3.8941164017 0.0000000000
-2.6082396507 -17.3045387268 0.0000000000
-17.3045387268 -2.6082396507 0.0000000000
-1.3077766895 -17.4510669708 0.0000000000
-17.4510669708 -1.3077766895 0.0000000000
-0.0000000000 -17.5000000000 0.0000000000
-17.5000000000 0.0000000000 0.0000000000
1.3077766895 -17.4510669708 0.0000000000
-17.4510669708 1.3077766895 0.0000000000
2.6082396507 -17.3045387268 0.0000000000
-17.3045387268 2.6082396507 0.0000000000
3.8941164017 -17.0612392426 0.0000000000
-17.0612392426 3.8941164017 0.0000000000
5.1582155228 -16.7225246429 0.0000000000
-16.7225246429 5.1582155228 0.0000000000
-16.2902908325 6.3934679031 0.0000000000
6.3934679031 -16.2902908325 0.0000000000
-15.7669553757 7.5929656029 0.0000000000
7.5929656029 -15.7669553757 0.0000000000
-15.1554441452 8.7500000000 0.0000000000
8.7500000000 -15.1554441452 0.0000000000
-14.4591789246 9.8581008911 0.0000000000
9.8581008911 -14.4591789246 0.0000000000
-13.6820507050 10.9110717773 0.0000000000
10.9110717773 -13.6820507050 0.0000000000
-12.8284072876 11.9030227661 0.0000000000
11.9030227661 -12.8284072876 0.0000000000
12.8284072876 -11.9030227661 0.0000000000
-11.9030227661 12.8284072876 0.0000000000
-10.9110717773 13.6820507050 0.0000000000
13.6820507050 -10.9110717773 0.0000000000
16.9713230133 -11.0930099487 0.0000000000
16.9105110168 -11.0321989059 0.0000000000
17.0365066528 -11.1491060257 0.0000000000
16.8544139862 -10.9670133591 0.0000000000
17.1057033539 -11.2001743317 0.0000000000
16.8033466339 -10.8978176117 0.0000000000
-9.8581008911 14.4591789246 0.0000000000
17.1785202026 -11.2459287643 0.0000000000
16.7575912476 -10.8249998093 0.0000000000
16.7174072266 -10.7489662170 0.0000000000
17.2545547485 -11.2861137390 0.0000000000
16.6830158234 -10.6701421738 0.0000000000
14.4591789246 -9.8581008911 0.0000000000
17.3333778381 -11.3205051422 0.0000000000
17.4145526886 -11.3489084244 0.0000000000
16.6546115875 -10.5889682770 0.0000000000
17.4976215363 -11.3711671829 0.0000000000
16.6323528290 -10.5058994293 0.0000000000
16.6163654327 -10.4213981628 0.0000000000
17.5821228027 -11.3871555328 0.0000000000
17.6675815582 -11.3967847824 0.0000000000
16.6067371368 -10.3359394073 0.0000000000
17.7535209656 -11.3999996185 0.0000000000
16.6035213470 -10.2500000000 0.0000000000
-8.7500000000 15.1554441452 0.0000000000
17.8394603729 -11.3967847824 0.0000000000
16.6067371368 -10.1640605927 0.0000000000
17.9249191284 -11.3871555328 0.0000000000
16.6163654327 -10.0786018372 0.0000000000
16.6323528290 -9.9941005707 0.0000000000
15.1554441452 -8.7500000000 0.0000000000
18.0094203949 -11.3711671829 0.0000000000
18.0924892426 -11.3489084244 0.0000000000
16.6546115875 -9.9110317230 0.0000000000
18.1736621857 -11.3205051422 0.0000000000
16.6830158234 -9.8298578262 0.0000000000
16.7174072266 -9.7510337830 0.0000000000
18.2524871826 -11.2861137390 0.0000000000
16.7575912476 -9.6750001907 0.0000000000
18.3285217285 -11.2459287643 0.0000000000
16.8033466339 -9.6021823883 0.0000000000
18.4013385773 -11.2001743317 0.0000000000
16.8544139862 -9.5329866409 0.0000000000
16.9105110168 -9.4678010941 0.0000000000
16.9713230133 -9.4069900513 0.0000000000
15.7669553757 -7.5929656029 0.0000000000
17.3333778381 -9.1794948578 0.0000000000
17.2545547485 -9.2138862610 0.0000000000
17.1785202026 -9.2540712357 0.0000000000
17.1057033539 -9.2998256683 0.0000000000
17.0365066528 -9.3508939743 0.0000000000
-7.5929656029 15.7669553757 0.0000000000
18.4705333710 -11.1491060257 0.0000000000
18.5357189178 -11.0930099487 0.0000000000
18.5965309143 -11.0321989059 0.0000000000
18.6526260376 -10.9670133591 0.0000000000
18.7036952972 -10.8978176117 0.0000000000
18.7494506836 -10.8249998093 0.0000000000
18.7896347046 -10.7489662170 0.0000000000
18.8240261078 -10.6701421738 0.0000000000
17.4145526886 -9.1510915756 0.0000000000
18.8524303436 -10.5889682770 0.0000000000
17.4976215363 -9.1288328171 0.0000000000
18.8746871948 -10.5058994293 0.0000000000
17.5821228027 -9.1128444672 0.0000000000
18.8906764984 -10.4213981628 0.0000000000
18.9003047943 -10.3359394073 0.0000000000
16.2902908325 -6.3934679031 0.0000000000
18.0924892426 -9.1510915756 0.0000000000
18.0094203949 -9.1288328171 0.0000000000
17.9249191284 -9.1128444672 0.0000000000
17.8394603729 -9.1032152176 0.0000000000
17.7535209656 -9.1000003815 0.0000000000
17.6675815582 -9.1032152176 0.0000000000
18.9035205841 -10.2500000000 0.0000000000
18.9003047943 -10.1640605927 0.0000000000
18.8906764984 -10.0786018372 0.0000000000
18.8746871948 -9.9941005707 0.0000000000
18.8524303436 -9.9110317230 0.0000000000
18.8240261078 -9.8298578262 0.0000000000
18.7896347046 -9.7510337830 0.0000000000
18.7494506836 -9.6750001907 0.0000000000
18.7036952972 -9.6021823883 0.0000000000
18.6526260376 -9.5329866409 0.0000000000
18.5965309143 -9.4678010941 0.0000000000
-6.3934679031 16.2902908325 0.0000000000
18.5357189178 -9.4069900513 0.0000000000
18.4705333710 -9.3508939743 0.0000000000
18.4013385773 -9.2998256683 0.0000000000
18.3285217285 -9.2540712357 0.0000000000
18.2524871826 -9.2138862610 0.0000000000
18.1736621857 -9.1794948578 0.0000000000
-5.1582155228 16.7225246429 0.0000000000
16.7225246429 -5.1582155228 0.0000000000
17.0612392426 -3.8941164017 0.0000000000
-3.8941164017 17.0612392426 0.0000000000
-0.8430096507 19.7178020477 0.0000000000
-0.7821986675 19.6569900513 0.0000000000
-1.3077766895 17.4510669708 0.0000000000
-0.7170132995 19.6008930206 0.0000000000
-0.8991062045 19.7829875946 0.0000000000
-2.6082396507 17.3045387268 0.0000000000
17.3045387268 -2.6082396507 0.0000000000
17.4510669708 -1.3077766895 0.0000000000
-0.6478180885 19.5498256683 0.0000000000
-0.9501745701 19.8521823883 0.0000000000
-0.9959292412 19.9249992371 0.0000000000
-0.5749999881 19.5040702820 0.0000000000
-0.4989663064 19.4638862610 0.0000000000
-1.0361142159 20.0010337830 0.0000000000
-1.0705047846 20.0798568726 0.0000000000
-0.4201421738 19.4294948578 0.0000000000
-1.0989087820 20.1610317230 0.0000000000
-0.3389684558 19.4010906219 0.0000000000
-0.0000000000 17.5000000000 0.0000000000
-0.2558990717 19.3788337708 0.0000000000
-1.1211670637 20.2441005707 0.0000000000
-1.1371554136 20.3286018372 0.0000000000
-0.1713986099 19.3628444672 0.0000000000
-1.1467844248 20.4140605927 0.0000000000
-0.0859396085 19.3532161713 0.0000000000
0.0000000000 19.3500003815 0.0000000000
-1.1499999762 20.5000000000 0.0000000000
-1.1467844248 20.5859394073 0.0000000000
0.0859396085 19.3532161713 0.0000000000
-1.1371554136 20.6713981628 0.0000000000
0.1713986099 19.3628444672 0.0000000000
-1.1211670637 20.7558994293 0.0000000000
0.2558990717 19.3788337708 0.0000000000
0.3389684558 19.4010906219 0.0000000000
1.3077766895 17.4510669708 0.0000000000
-1.0989087820 20.8389682770 0.0000000000
0.4201421738 19.4294948578 0.0000000000
0.4989663064 19.4638862610 0.0000000000
0.5749999881 19.5040702820 0.0000000000
0.6478180885 19.5498256683 0.0000000000
0.7170132995 19.6008930206 0.0000000000
0.7821986675 19.6569900513 0.0000000000
0.8430096507 19.7178020477 0.0000000000
0.8991062045 19.7829875946 0.0000000000
2.6082396507 17.3045387268 0.0000000000
-0.7170132995 21.3991069794 0.0000000000
-0.7821986675 21.3430099487 0.0000000000
-0.8430096507 21.2821979523 0.0000000000
-0.8991062045 21.2170124054 0.0000000000
-0.9501745701 21.1478176117 0.0000000000
-0.9959292412 21.0750007629 0.0000000000
-1.0361142159 20.9989662170 0.0000000000
-1.0705047846 20.9201431274 0.0000000000
-0.6478180885 21.4501743317 0.0000000000
0.9501745701 19.8521823883 0.0000000000
-0.5749999881 21.4959297180 0.0000000000
0.9959292412 19.9249992371 0.0000000000
-0.4989663064 21.5361137390 0.0000000000
1.0361142159 20.0010337830 0.0000000000
1.0705047846 20.0798568726 0.0000000000
1.0989087820 20.1610317230 0.0000000000
1.1211670637 20.2441005707 0.0000000000
0.4989663064 21.5361137390 0.0000000000
0.4201421738 21.5705051422 0.0000000000
0.3389684558 21.5989093781 0.0000000000
0.2558990717 21.6211662292 0.0000000000
0.1713986099 21.6371555328 0.0000000000
0.0859396085 21.6467838287 0.0000000000
0.0000000000 21.6499996185 0.0000000000
-0.0859396085 21.6467838287 0.0000000000
-0.1713986099 21.6371555328 0.0000000000
-0.2558990717 21.6211662292 0.0000000000
-0.3389684558 21.5989093781 0.0000000000
-0.4201421738 21.5705051422 0.0000000000
17.5000000000 -0.0000000000 0.0000000000
17.4510669708 1.3077766895 0.0000000000
1.0989087820 20.8389682770 0.0000000000
1.0705047846 20.9201431274 0.0000000000
1.0361142159 20.9989662170 0.0000000000
0.9959292412 21.0750007629 0.0000000000
0.9501745701 21.1478176117 0.0000000000
0.8991062045 21.2170124054 0.0000000000
0.8430096507 21.2821979523 0.0000000000
0.7821986675 21.3430099487 0.0000000000
0.7170132995 21.3991069794 0.0000000000
0.6478180885 21.4501743317 0.0000000000
0.5749999881 21.4959297180 0.0000000000
1.1371554136 20.3286018372 0.0000000000
1.1467844248 20.4140605927 0.0000000000
1.1499999762 20.5000000000 0.0000000000
1.1467844248 20.5859394073 0.0000000000
1.1371554136 20.6713981628 0.0000000000
1.1211670637 20.7558994293 0.0000000000
3.8941164017 17.0612392426 0.0000000000
17.3045387268 2.6082396507 0.0000000000
17.0612392426 3.8941164017 0.0000000000
5.1582155228 16.7225246429 0.0000000000
16.7225246429 5.1582155228 0.0000000000
16.2902908325 6.3934679031 0.0000000000
6.3934679031 16.2902908325 0.0000000000
8.7500000000 15.1554441452 0.0000000000
7.5929656029 15.7669553757 0.0000000000
15.7669553757 7.5929656029 0.0000000000
15.1554441452 8.7500000000 0.0000000000
14.4591789246 9.8581008911 0.0000000000
9.8581008911 14.4591789246 0.0000000000
13.6820507050 10.9110717773 0.0000000000
10.9110717773 13.6820507050 0.0000000000
12.8284072876 11.9030227661 0.0000000000
11.9030227661 12.8284072876 0.0000000000
3 0 1 2
3 0 2 3
3 4 0 3
3 4 3 5
3 6 5 7
3 6 4 5
3 8 7 9
3 8 6 7
3 10 9 11
3 10 8 9
3 12 11 13
3 12 10 11
3 14 13 15
3 14 12 13
3 16 14 15
3 16 15 17
3 18 16 17
3 18 17 19
3 20 18 19
3 20 19 21
3 22 20 21
3 22 21 23
3 24 22 23
3 24 23 25
3 26 24 25
3 26 25 27
3 28 26 27
3 28 27 29
3 30 28 29
3 30 29 31
3 32 31 33
3 32 30 31
3 34 33 35
3 34 32 33
3 36 35 37
3 36 34 35
3 38 37 39
3 38 36 37
3 40 39 41
3 40 41 42
3 40 38 39
3 43 40 42
3 43 42 44
3 45 43 44
3 46 44 47
3 46 45 44
3 48 47 49
3 48 46 47
3 50 49 51
3 50 51 52
3 50 48 49
3 53 52 54
3 53 50 52
3 55 53 54
3 56 54 57
3 56 55 54
3 58 57 59
3 58 56 57
3 60 59 61
3 60 58 59
3 62 61 63
3 62 60 61
3 64 62 63
3 64 63 65
3 66 64 65
3 66 65 67
3 68 66 67
3 68 67 69
3 70 68 69
3 70 69 71
3 72 70 71
3 72 71 73
3 74 73 75
3 74 72 73
3 76 75 77
3 76 74 75
3 78 77 79
3 78 76 77
3 80 79 81
3 80 78 79
3 82 81 83
3 82 80 81
3 84 83 85
3 84 85 86
3 84 82 83
3 87 84 86
3 88 86 89
3 88 87 86
3 90 89 91
3 90 88 89
3 92 91 93
3 92 90 91
3 94 93 95
3 94 92 93
3 96 95 97
3 96 94 95
3 98 97 99
3 98 96 97
3 100 99 101
3 100 98 99
3 102 101 103
3 102 100 101
3 104 103 105
3 104 105 106
3 104 102 103
3 107 104 106
3 108 106 109
3 108 107 106
3 110 109 111
3 110 108 109
3 112 111 113
3 112 110 111
3 114 113 115
3 114 112 113
3 116 114 115
3 116 115 117
3 118 116 117
3 118 117 119
3 120 118 119
3 120 119 121
3 122 120 121
3 122 121 123
3 124 122 123
3 124 123 125
3 126 124 125
3 126 125 127
3 126 127 128
3 129 126 128
3 130 129 128
3 130 128 131
3 132 130 131
3 132 131 133
3 134 132 133
3 134 133 135
3 136 134 135
3 136 135 137
3 138 136 137
3 138 137 139
3 140 138 139
3 140 139 141
3 142 140 141
3 142 141 143
3 144 143 145
3 144 142 143
3 146 145 147
3 146 144 145
3 148 147 149
3 148 146 147
3 150 149 151
3 150 148 149
3 152 151 153
3 152 150 151
3 154 153 155
3 154 152 153
3 156 155 157
3 156 154 155
3 158 157 159
3 158 156 157
3 160 159 161
3 160 158 159
3 162 161 163
3 162 160 161
3 164 163 165
3 164 162 163
3 166 164 165
3 166 165 167
3 1 166 167
3 1 167 2
3 168 169 98
3 170 98 169
3 171 168 98
3 172 171 98
3 172 98 100
3 173 98 170
3 174 172 100
3 175 98 173
3 176 174 100
3 177 98 175
3 178 176 100
3 179 98 177
3 180 178 100
3 181 98 179
3 182 180 100
3 183 98 181
3 184 182 100
3 185 98 183
3 186 184 100
3 187 96 98
3 187 98 185
3 188 186 100
3 189 96 187
3 190 188 100
3 191 96 189
3 192 190 100
3 193 96 191
3 194 100 102
3 194 192 100
3 195 96 193
3 196 96 195
3 197 194 102
3 198 96 196
3 199 197 102
3 200 96 198
3 201 199 102
3 202 201 102
3 203 96 200
3 204 96 203
3 205 202 102
3 206 96 204
3 207 205 102
3 208 96 206
3 208 94 96
3 209 207 102
3 210 94 208
3 211 94 210
3 212 94 211
3 213 94 212
3 214 94 213
3 215 94 214
3 216 94 215
3 217 104 107
3 217 107 108
3 218 104 217
3 219 217 108
3 220 209 102
3 220 104 218
3 220 102 104
3 220 221 209
3 220 222 221
3 220 223 222
3 220 224 223
3 220 225 224
3 220 226 225
3 227 108 110
3 227 219 108
3 228 229 226
3 228 230 229
3 228 231 230
3 228 232 231
3 228 233 232
3 228 226 220
3 228 234 233
3 228 235 234
3 228 236 235
3 237 227 110
3 237 110 112
3 237 112 114
3 238 236 228
3 238 239 236
3 238 240 239
3 238 241 240
3 238 242 241
3 238 243 242
3 238 244 243
3 238 245 244
3 238 246 245
3 247 237 114
3 248 249 250
3 248 251 249
3 248 252 251
3 248 246 238
3 248 253 246
3 248 254 253
3 248 255 254
3 248 256 255
3 248 250 256
3 257 247 114
3 257 114 116
3 257 116 118
3 258 259 252
3 258 260 259
3 258 261 260
3 258 262 261
3 258 263 262
3 258 216 263
3 258 252 248
3 258 94 216
3 264 257 118
3 265 92 94
3 265 94 258
3 266 264 118
3 266 118 120
3 266 120 122
3 267 90 92
3 267 92 265
3 268 266 122
3 268 122 124
3 269 88 90
3 269 90 267
3 270 268 124
3 270 124 126
3 271 87 88
3 271 88 269
3 272 270 126
3 273 84 87
3 273 87 271
3 274 272 126
3 274 126 129
3 275 82 84
3 275 84 273
3 276 129 130
3 276 130 132
3 276 274 129
3 277 78 80
3 277 80 82
3 277 82 275
3 278 276 132
3 279 78 277
3 280 132 134
3 280 278 132
3 281 78 279
3 281 76 78
3 282 76 281
3 282 74 76
3 283 134 136
3 283 280 134
3 284 74 282
3 284 72 74
3 285 283 136
3 285 136 138
3 286 72 284
3 286 70 72
3 287 285 138
3 287 138 140
3 288 70 286
3 288 68 70
3 289 287 140
3 289 140 142
3 290 66 68
3 290 68 288
3 291 289 142
3 291 142 144
3 64 66 290
3 292 64 290
3 293 291 144
3 293 144 146
3 294 293 146
3 62 64 292
3 62 292 295
3 148 294 146
3 60 62 295
3 60 295 296
3 150 297 294
3 150 294 148
3 298 297 150
3 299 297 298
3 300 298 150
3 301 297 299
3 302 300 150
3 303 297 301
3 58 60 296
3 58 296 304
3 305 302 150
3 306 297 303
3 307 297 306
3 308 305 150
3 309 310 297
3 309 297 307
3 311 308 150
3 312 311 150
3 313 310 309
3 314 312 150
3 314 150 152
3 315 310 313
3 316 310 315
3 317 314 152
3 318 317 152
3 319 310 316
3 320 318 152
3 321 310 319
3 322 58 304
3 323 320 152
3 324 310 321
3 325 323 152
3 326 310 324
3 327 328 310
3 327 310 326
3 329 325 152
3 330 329 152
3 331 328 327
3 332 330 152
3 333 328 331
3 334 328 333
3 335 332 152
3 336 328 334
3 337 335 152
3 338 328 336
3 339 337 152
3 340 328 338
3 341 328 340
3 342 328 341
3 343 328 342
3 343 344 345
3 343 346 344
3 343 347 346
3 343 348 347
3 343 342 348
3 56 58 322
3 56 322 349
3 154 350 339
3 154 351 350
3 154 352 351
3 154 353 352
3 154 354 353
3 154 355 354
3 154 356 355
3 154 357 356
3 154 339 152
3 358 343 345
3 359 357 154
3 360 343 358
3 361 359 154
3 362 343 360
3 363 361 154
3 364 363 154
3 365 343 362
3 365 366 367
3 365 368 366
3 365 369 368
3 365 370 369
3 365 371 370
3 365 362 371
3 55 56 349
3 156 364 154
3 156 372 364
3 156 373 372
3 156 374 373
3 156 375 374
3 156 376 375
3 156 377 376
3 156 378 377
3 156 379 378
3 156 380 379
3 156 381 380
3 156 382 381
3 53 55 349
3 53 349 383
3 158 365 367
3 158 382 156
3 158 384 382
3 158 385 384
3 158 386 385
3 158 387 386
3 158 388 387
3 158 389 388
3 158 367 389
3 50 53 383
3 50 383 390
3 160 365 158
3 160 391 365
3 160 392 391
3 48 390 393
3 48 50 390
3 162 392 160
3 394 395 396
3 397 396 395
3 398 395 394
3 398 399 395
3 46 393 399
3 46 48 393
3 164 400 392
3 164 401 400
3 164 392 162
3 402 397 395
3 403 399 398
3 404 399 403
3 405 402 395
3 406 405 395
3 407 399 404
3 408 399 407
3 409 406 395
3 410 399 408
3 411 409 395
3 411 395 412
3 413 411 412
3 414 46 399
3 414 399 410
3 415 46 414
3 416 413 412
3 417 46 415
3 418 416 412
3 419 418 412
3 420 46 417
3 421 46 420
3 422 419 412
3 423 46 421
3 424 422 412
3 425 46 423
3 426 424 412
3 427 426 412
3 427 412 428
3 429 46 425
3 430 427 428
3 431 430 428
3 432 431 428
3 433 432 428
3 434 433 428
3 435 434 428
3 436 435 428
3 437 428 438
3 437 436 428
3 45 46 429
3 45 439 440
3 45 441 439
3 45 442 441
3 45 443 442
3 45 444 443
3 45 445 444
3 45 446 445
3 45 429 446
3 166 401 164
3 447 45 440
3 448 437 438
3 449 45 447
3 450 448 438
3 451 45 449
3 452 450 438
3 453 452 438
3 454 453 438
3 455 454 438
3 43 45 451
3 43 456 457
3 43 458 456
3 43 459 458
3 43 460 459
3 43 461 460
3 43 462 461
3 43 463 462
3 43 464 463
3 43 465 464
3 43 466 465
3 43 467 466
3 43 451 467
3 1 401 166
3 1 468 401
3 1 469 468
3 40 470 471
3 40 472 470
3 40 473 472
3 40 474 473
3 40 475 474
3 40 476 475
3 40 477 476
3 40 478 477
3 40 479 478
3 40 480 479
3 40 457 480
3 40 43 457
3 0 469 1
3 38 481 455
3 38 482 481
3 38 483 482
3 38 455 438
3 38 484 483
3 38 485 484
3 38 486 485
3 38 471 486
3 38 40 471
3 38 438 487
3 4 488 469
3 4 469 0
3 36 38 487
3 6 488 4
3 6 489 488
3 34 36 487
3 34 487 490
3 8 491 489
3 8 492 491
3 8 489 6
3 32 34 490
3 32 490 493
3 10 492 8
3 30 32 493
3 30 494 495
3 30 493 494
3 12 492 10
3 12 496 492
3 12 497 496
3 14 497 12
3 28 30 495
3 16 497 14
3 16 498 497
3 26 28 495
3 26 495 499
3 18 498 16
3 18 500 498
3 24 26 499
3 24 499 501
3 20 500 18
3 20 502 500
3 22 24 501
3 22 502 20
3 22 503 502
3 22 501 503
3 504 99 505
3 506 505 99
3 507 99 504
3 508 99 507
3 508 101 99
3 509 506 99
3 510 101 508
3 511 509 99
3 512 101 510
3 513 511 99
3 514 101 512
3 515 513 99
3 516 101 514
3 517 515 99
3 518 101 516
3 519 517 99
3 520 101 518
3 521 519 99
3 522 101 520
3 523 99 97
3 523 521 99
3 524 101 522
3 525 523 97
3 526 101 524
3 527 525 97
3 528 101 526
3 529 527 97
3 530 103 101
3 530 101 528
3 531 529 97
3 532 531 97
3 533 103 530
3 534 532 97
3 535 103 533
3 536 534 97
3 537 103 535
3 538 103 537
3 539 536 97
3 540 539 97
3 541 103 538
3 542 540 97
3 543 103 541
3 544 542 97
3 544 97 95
3 545 103 543
3 546 544 95
3 547 546 95
3 548 547 95
3 549 548 95
3 550 549 95
3 551 550 95
3 552 551 95
3 553 106 105
3 553 109 106
3 554 553 105
3 555 109 553
3 556 103 545
3 556 554 105
3 556 105 103
3 556 545 557
3 556 557 558
3 556 558 559
3 556 559 560
3 556 560 561
3 556 561 562
3 563 111 109
3 563 109 555
3 564 562 565
3 564 565 566
3 564 566 567
3 564 567 568
3 564 568 569
3 564 556 562
3 564 569 570
3 564 570 571
3 564 571 572
3 573 111 563
3 573 113 111
3 573 115 113
3 574 564 572
3 574 572 575
3 574 575 576
3 574 576 577
3 574 577 578
3 574 578 579
3 574 579 580
3 574 580 581
3 574 581 582
3 583 115 573
3 584 585 586
3 584 586 587
3 584 587 588
3 584 574 582
3 584 582 589
3 584 589 590
3 584 590 591
3 584 591 592
3 584 592 585
3 593 115 583
3 593 117 115
3 593 119 117
3 594 588 595
3 594 595 596
3 594 596 597
3 594 597 598
3 594 598 599
3 594 599 552
3 594 584 588
3 594 552 95
3 600 119 593
3 601 95 93
3 601 594 95
3 602 119 600
3 602 121 119
3 602 123 121
3 603 93 91
3 603 601 93
3 604 123 602
3 604 125 123
3 605 91 89
3 605 603 91
3 606 125 604
3 606 127 125
3 607 89 86
3 607 605 89
3 608 127 606
3 609 86 85
3 609 607 86
3 610 127 608
3 610 128 127
3 611 85 83
3 611 609 85
3 612 131 128
3 612 133 131
3 612 128 610
3 613 81 79
3 613 83 81
3 613 611 83
3 614 133 612
3 615 613 79
3 616 135 133
3 616 133 614
3 617 615 79
3 617 79 77
3 618 617 77
3 618 77 75
3 619 137 135
3 619 135 616
3 620 618 75
3 620 75 73
3 621 137 619
3 621 139 137
3 622 620 73
3 622 73 71
3 623 139 621
3 623 141 139
3 624 622 71
3 624 71 69
3 625 141 623
3 625 143 141
3 626 69 67
3 626 624 69
3 627 143 625
3 627 145 143
3 65 626 67
3 628 626 65
3 629 145 627
3 629 147 145
3 630 147 629
3 63 628 65
3 63 631 628
3 149 147 630
3 61 631 63
3 61 632 631
3 151 630 633
3 151 149 630
3 634 151 633
3 635 634 633
3 636 151 634
3 637 635 633
3 638 151 636
3 639 637 633
3 59 632 61
3 59 640 632
3 641 151 638
3 642 639 633
3 643 642 633
3 644 151 641
3 645 633 646
3 645 643 633
3 647 151 644
3 648 151 647
3 649 645 646
3 650 151 648
3 650 153 151
3 651 649 646
3 652 651 646
3 653 153 650
3 654 153 653
3 655 652 646
3 656 153 654
3 657 655 646
3 658 640 59
3 659 153 656
3 660 657 646
3 661 153 659
3 662 660 646
3 663 646 664
3 663 662 646
3 665 153 661
3 666 153 665
3 667 663 664
3 668 153 666
3 669 667 664
3 670 669 664
3 671 153 668
3 672 670 664
3 673 153 671
3 674 672 664
3 675 153 673
3 676 674 664
3 677 676 664
3 678 677 664
3 679 678 664
3 679 680 681
3 679 681 682
3 679 682 683
3 679 683 684
3 679 684 678
3 57 658 59
3 57 685 658
3 155 675 686
3 155 686 687
3 155 687 688
3 155 688 689
3 155 689 690
3 155 690 691
3 155 691 692
3 155 692 693
3 155 153 675
3 694 680 679
3 695 155 693
3 696 694 679
3 697 155 695
3 698 696 679
3 699 155 697
3 700 155 699
3 701 698 679
3 701 702 703
3 701 703 704
3 701 704 705
3 701 705 706
3 701 706 707
3 701 707 698
3 54 685 57
3 157 155 700
3 157 700 708
3 157 708 709
3 157 709 710
3 157 710 711
3 157 711 712
3 157 712 713
3 157 713 714
3 157 714 715
3 157 715 716
3 157 716 717
3 157 717 718
3 52 685 54
3 52 719 685
3 159 702 701
3 159 157 718
3 159 718 720
3 159 720 721
3 159 721 722
3 159 722 723
3 159 723 724
3 159 724 725
3 159 725 702
3 51 719 52
3 51 726 719
3 161 159 701
3 161 701 727
3 161 727 728
3 49 729 726
3 49 726 51
3 163 161 728
3 730 731 732
3 733 732 731
3 734 730 732
3 734 732 735
3 47 735 729
3 47 729 49
3 165 728 736
3 165 736 737
3 165 163 728
3 738 732 733
3 739 734 735
3 740 739 735
3 741 732 738
3 742 732 741
3 743 740 735
3 744 743 735
3 745 732 742
3 746 744 735
3 747 732 745
3 747 748 732
3 749 748 747
3 750 735 47
3 750 746 735
3 751 750 47
3 752 748 749
3 753 751 47
3 754 748 752
3 755 748 754
3 756 753 47
3 757 756 47
3 758 748 755
3 759 757 47
3 760 748 758
3 761 759 47
3 762 748 760
3 763 748 762
3 763 764 748
3 765 761 47
3 766 764 763
3 767 764 766
3 768 764 767
3 769 764 768
3 770 764 769
3 771 764 770
3 772 764 771
3 773 774 764
3 773 764 772
3 44 765 47
3 44 775 776
3 44 776 777
3 44 777 778
3 44 778 779
3 44 779 780
3 44 780 781
3 44 781 782
3 44 782 765
3 167 165 737
3 783 775 44
3 784 774 773
3 785 783 44
3 786 774 784
3 787 785 44
3 788 774 786
3 789 774 788
3 790 774 789
3 791 774 790
3 42 787 44
3 42 792 793
3 42 793 794
3 42 794 795
3 42 795 796
3 42 796 797
3 42 797 798
3 42 798 799
3 42 799 800
3 42 800 801
3 42 801 802
3 42 802 803
3 42 803 787
3 2 167 737
3 2 737 804
3 2 804 805
3 41 806 807
3 41 807 808
3 41 808 809
3 41 809 810
3 41 810 811
3 41 811 812
3 41 812 813
3 41 813 814
3 41 814 815
3 41 815 816
3 41 816 792
3 41 792 42
3 3 2 805
3 39 791 817
3 39 817 818
3 39 818 819
3 39 774 791
3 39 819 820
3 39 820 821
3 39 821 822
3 39 822 806
3 39 806 41
3 39 823 774
3 5 805 824
3 5 3 805
3 37 823 39
3 7 5 824
3 7 824 825
3 35 823 37
3 35 826 823
3 9 825 827
3 9 827 828
3 9 7 825
3 33 826 35
3 33 829 826
3 11 9 828
3 31 829 33
3 31 830 831
3 31 831 829
3 13 11 828
3 13 828 832
3 13 832 833
3 15 13 833
3 29 830 31
3 17 15 833
3 17 833 834
3 27 830 29
3 27 835 830
3 19 17 834
3 19 834 836
3 25 835 27
3 25 837 835
3 21 19 836
3 21 836 838
3 23 837 25
3 23 21 838
3 23 838 839
3 23 839 837
3 234 569 233
3 234 570 569
3 235 570 234
3 235 571 570
3 236 572 571
3 236 571 235
3 239 575 572
3 239 572 236
3 240 576 575
3 240 575 239
3 241 577 576
3 241 576 240
3 242 578 577
3 242 577 241
3 243 578 242
3 243 579 578
3 244 579 243
3 244 580 579
3 245 580 244
3 245 581 580
3 246 581 245
3 246 582 581
3 253 582 246
3 253 589 582
3 254 589 253
3 254 590 589
3 255 590 254
3 255 591 590
3 256 591 255
3 256 592 591
3 250 585 592
3 250 592 256
3 249 586 585
3 249 587 586
3 249 585 250
3 251 587 249
3 252 588 587
3 252 587 251
3 259 595 588
3 259 596 595
3 259 588 252
3 260 596 259
3 261 597 596
3 261 596 260
3 262 598 597
3 262 597 261
3 263 599 598
3 263 598 262
3 216 552 599
3 216 599 263
3 215 551 552
3 215 550 551
3 215 552 216
3 214 550 215
3 213 549 550
3 213 548 549
3 213 550 214
3 212 548 213
3 211 547 548
3 211 548 212
3 210 546 547
3 210 547 211
3 208 546 210
3 208 544 546
3 206 544 208
3 206 542 544
3 204 542 206
3 204 540 542
3 203 540 204
3 203 539 540
3 200 539 203
3 200 536 539
3 198 534 536
3 198 536 200
3 196 532 534
3 196 534 198
3 195 531 532
3 195 532 196
3 193 529 531
3 193 531 195
3 191 527 529
3 191 529 193
3 189 525 527
3 189 527 191
3 187 523 525
3 187 525 189
3 185 521 523
3 185 523 187
3 183 519 521
3 183 521 185
3 181 517 519
3 181 519 183
3 179 515 517
3 179 517 181
3 177 513 515
3 177 515 179
3 175 511 513
3 175 513 177
3 173 509 511
3 173 511 175
3 170 506 509
3 170 509 173
3 169 505 506
3 169 506 170
3 168 504 505
3 168 505 169
3 171 507 504
3 171 504 168
3 172 508 507
3 172 507 171
3 174 510 508
3 174 508 172
3 176 512 510
3 176 510 174
3 178 512 176
3 178 514 512
3 180 514 178
3 180 516 514
3 182 516 180
3 182 518 516
3 184 518 182
3 184 520 518
3 186 520 184
3 186 522 520
3 188 522 186
3 188 524 522
3 190 524 188
3 190 526 524
3 192 526 190
3 192 528 526
3 194 528 192
3 194 530 528
3 197 530 194
3 197 533 530
3 199 533 197
3 199 535 533
3 201 535 199
3 201 537 535
3 202 537 201
3 202 538 537
3 205 538 202
3 205 541 538
3 207 543 541
3 207 541 205
3 209 545 543
3 209 557 545
3 209 543 207
3 221 557 209
3 222 558 557
3 222 557 221
3 223 559 558
3 223 558 222
3 224 560 559
3 224 559 223
3 225 561 560
3 225 560 224
3 226 562 561
3 226 561 225
3 229 565 562
3 229 562 226
3 230 566 565
3 230 565 229
3 231 567 566
3 231 566 230
3 232 567 231
3 232 568 567
3 233 568 232
3 233 569 568
3 373 708 372
3 373 709 708
3 374 709 373
3 374 710 709
3 375 711 710
3 375 710 374
3 376 712 711
3 376 711 375
3 377 713 712
3 377 712 376
3 378 714 713
3 378 713 377
3 379 715 714
3 379 714 378
3 380 715 379
3 380 716 715
3 381 716 380
3 381 717 716
3 382 717 381
3 382 718 717
3 384 718 382
3 384 720 718
3 385 720 384
3 385 721 720
3 386 721 385
3 386 722 721
3 387 722 386
3 387 723 722
3 388 723 387
3 388 724 723
3 389 725 724
3 389 724 388
3 367 702 725
3 367 703 702
3 367 725 389
3 366 703 367
3 368 704 703
3 368 703 366
3 369 705 704
3 369 706 705
3 369 704 368
3 370 706 369
3 371 707 706
3 371 706 370
3 362 698 707
3 362 707 371
3 360 696 698
3 360 698 362
3 358 694 696
3 358 696 360
3 345 680 694
3 345 681 680
3 345 694 358
3 344 681 345
3 346 682 681
3 346 683 682
3 346 681 344
3 347 683 346
3 348 684 683
3 348 683 347
3 342 678 684
3 342 684 348
3 341 678 342
3 341 677 678
3 340 677 341
3 340 676 677
3 338 676 340
3 338 674 676
3 336 674 338
3 336 672 674
3 334 672 336
3 334 670 672
3 333 669 670
3 333 670 334
3 331 667 669
3 331 669 333
3 327 663 667
3 327 667 331
3 326 662 663
3 326 663 327
3 324 660 662
3 324 662 326
3 321 657 660
3 321 660 324
3 319 655 657
3 319 657 321
3 316 652 655
3 316 655 319
3 315 651 652
3 315 652 316
3 313 649 651
3 313 651 315
3 309 645 649
3 309 649 313
3 307 643 645
3 307 645 309
3 306 642 643
3 306 643 307
3 303 639 642
3 303 642 306
3 301 637 639
3 301 639 303
3 299 635 637
3 299 637 301
3 298 634 635
3 298 635 299
3 300 636 634
3 300 634 298
3 302 638 636
3 302 636 300
3 305 641 638
3 305 638 302
3 308 644 641
3 308 641 305
3 311 644 308
3 311 647 644
3 312 647 311
3 312 648 647
3 314 648 312
3 314 650 648
3 317 650 314
3 317 653 650
3 318 653 317
3 318 654 653
3 320 654 318
3 320 656 654
3 323 656 320
3 323 659 656
3 325 659 323
3 325 661 659
3 329 661 325
3 329 665 661
3 330 665 329
3 330 666 665
3 332 666 330
3 332 668 666
3 335 668 332
3 335 671 668
3 337 671 335
3 337 673 671
3 339 673 337
3 339 675 673
3 350 686 675
3 350 675 339
3 351 687 686
3 351 688 687
3 351 686 350
3 352 688 351
3 353 689 688
3 353 688 352
3 354 690 689
3 354 689 353
3 355 691 690
3 355 690 354
3 356 692 691
3 356 691 355
3 357 693 692
3 357 692 356
3 359 695 693
3 359 693 357
3 361 697 695
3 361 695 359
3 363 699 697
3 363 697 361
3 364 699 363
3 364 700 699
3 372 700 364
3 372 708 700
3 469 804 468
3 469 805 804
3 488 805 469
3 488 824 805
3 489 825 824
3 489 824 488
3 491 827 825
3 491 825 489
3 492 828 827
3 492 827 491
3 496 832 828
3 496 828 492
3 497 833 832
3 497 832 496
3 498 833 497
3 498 834 833
3 500 834 498
3 500 836 834
3 502 836 500
3 502 838 836
3 503 838 502
3 503 839 838
3 501 839 503
3 501 837 839
3 499 837 501
3 499 835 837
3 495 835 499
3 495 830 835
3 494 830 495
3 494 831 830
3 493 829 831
3 493 831 494
3 490 826 829
3 490 823 826
3 490 829 493
3 487 823 490
3 438 774 823
3 438 823 487
3 428 764 774
3 428 748 764
3 428 774 438
3 412 748 428
3 395 732 748
3 395 748 412
3 399 735 732
3 399 732 395
3 393 729 735
3 393 735 399
3 390 726 729
3 390 729 393
3 383 719 726
3 383 685 719
3 383 726 390
3 349 685 383
3 322 658 685
3 322 640 658
3 322 685 349
3 304 640 322
3 296 632 640
3 296 640 304
3 295 631 632
3 295 632 296
3 292 631 295
3 292 628 631
3 290 628 292
3 290 626 628
3 288 626 290
3 288 624 626
3 286 624 288
3 286 622 624
3 284 622 286
3 284 620 622
3 282 618 620
3 282 620 284
3 281 617 618
3 281 618 282
3 279 615 617
3 279 617 281
3 277 613 615
3 277 615 279
3 275 611 613
3 275 613 277
3 273 609 611
3 273 611 275
3 271 607 609
3 271 609 273
3 269 605 607
3 269 607 271
3 267 603 605
3 267 605 269
3 265 601 603
3 265 603 267
3 258 594 601
3 258 601 265
3 248 584 594
3 248 594 258
3 238 574 584
3 238 584 248
3 228 564 574
3 228 574 238
3 220 556 564
3 220 564 228
3 218 554 556
3 218 556 220
3 217 553 554
3 217 554 218
3 219 555 553
3 219 553 217
3 227 563 555
3 227 555 219
3 237 573 563
3 237 563 227
3 247 583 573
3 247 573 237
3 257 583 247
3 257 593 583
3 264 593 257
3 264 600 593
3 266 600 264
3 266 602 600
3 268 602 266
3 268 604 602
3 270 604 268
3 270 606 604
3 272 606 270
3 272 608 606
3 274 608 272
3 274 610 608
3 276 610 274
3 276 612 610
3 278 612 276
3 278 614 612
3 280 614 278
3 280 616 614
3 283 616 280
3 283 619 616
3 285 619 283
3 285 621 619
3 287 621 285
3 287 623 621
3 289 623 287
3 289 625 623
3 291 627 625
3 291 625 289
3 293 629 627
3 293 630 629
3 293 627 291
3 294 630 293
3 297 633 630
3 297 630 294
3 310 646 633
3 310 633 297
3 328 664 646
3 328 646 310
3 343 679 664
3 343 664 328
3 365 701 679
3 365 679 343
3 391 727 701
3 391 701 365
3 392 728 727
3 392 727 391
3 400 736 728
3 400 728 392
3 401 736 400
3 401 737 736
3 468 737 401
3 468 804 737
3 484 819 483
3 484 820 819
3 485 820 484
3 485 821 820
3 486 822 821
3 486 821 485
3 471 806 822
3 471 822 486
3 470 807 806
3 470 806 471
3 472 808 807
3 472 807 470
3 473 809 808
3 473 808 472
3 474 809 473
3 474 810 809
3 475 810 474
3 475 811 810
3 476 811 475
3 476 812 811
3 477 812 476
3 477 813 812
3 478 813 477
3 478 814 813
3 479 814 478
3 479 815 814
3 480 815 479
3 480 816 815
3 457 816 480
3 457 792 816
3 456 793 792
3 456 792 457
3 458 794 793
3 458 795 794
3 458 793 456
3 459 795 458
3 460 796 795
3 460 795 459
3 461 797 796
3 461 798 797
3 461 796 460
3 462 798 461
3 463 799 798
3 463 798 462
3 464 800 799
3 464 799 463
3 465 801 800
3 465 800 464
3 466 802 801
3 466 801 465
3 467 803 802
3 467 787 803
3 467 802 466
3 451 787 467
3 449 785 787
3 449 783 785
3 449 787 451
3 447 783 449
3 440 775 783
3 440 783 447
3 439 776 775
3 439 775 440
3 441 776 439
3 441 777 776
3 442 777 441
3 442 778 777
3 443 778 442
3 443 779 778
3 444 779 443
3 444 780 779
3 445 780 444
3 445 781 780
3 446 782 781
3 446 781 445
3 429 765 782
3 429 782 446
3 425 761 765
3 425 765 429
3 423 759 761
3 423 761 425
3 421 757 759
3 421 759 423
3 420 756 757
3 420 757 421
3 417 753 756
3 417 756 420
3 415 751 753
3 415 753 417
3 414 750 751
3 414 751 415
3 410 746 750
3 410 750 414
3 408 744 746
3 408 746 410
3 407 743 744
3 407 744 408
3 404 740 743
3 404 743 407
3 403 739 740
3 403 740 404
3 398 734 739
3 398 739 403
3 394 730 734
3 394 734 398
3 396 731 730
3 396 730 394
3 397 733 731
3 397 731 396
3 402 738 733
3 402 733 397
3 405 741 738
3 405 738 402
3 406 742 741
3 406 741 405
3 409 742 406
3 409 745 742
3 411 745 409
3 411 747 745
3 413 747 411
3 413 749 747
3 416 749 413
3 416 752 749
3 418 752 416
3 418 754 752
3 419 754 418
3 419 755 754
3 422 755 419
3 422 758 755
3 424 758 422
3 424 760 758
3 426 760 424
3 426 762 760
3 427 762 426
3 427 763 762
3 430 763 427
3 430 766 763
3 431 766 430
3 431 767 766
3 432 767 431
3 432 768 767
3 433 768 432
3 433 769 768
3 434 770 769
3 434 769 433
3 435 771 770
3 435 772 771
3 435 770 434
3 436 772 435
3 437 773 772
3 437 772 436
3 448 784 773
3 448 773 437
3 450 786 784
3 450 784 448
3 452 788 786
3 452 786 450
3 453 789 788
3 453 788 452
3 454 790 789
3 454 789 453
3 455 791 790
3 455 790 454
3 481 817 791
3 481 791 455
3 482 817 481
3 482 818 817
3 483 818 482
3 483 819 818
