OFF
828 1664 0
-52.5000000000 -34.0000000000 3.0000000000
-52.5000000000 34.0000000000 0.0000000000
-52.5000000000 -34.0000000000 0.0000000000
-52.5000000000 34.0000000000 3.0000000000
-33.6728820801 -24.0882759094 0.0000000000
-33.5882759094 -24.1728820801 0.0000000000
-33.2999992371 -26.0000000000 0.0000000000
-33.7509307861 -23.9975833893 0.0000000000
-33.4975852966 -24.2509307861 0.0000000000
-33.8219833374 -23.9013118744 0.0000000000
-33.4013137817 -24.3219814301 0.0000000000
-33.8856391907 -23.7999992371 0.0000000000
-33.2999992371 -24.3856410980 0.0000000000
-33.9415512085 -23.6942138672 0.0000000000
-33.9893989563 -23.5845451355 0.0000000000
-34.0289154053 -23.4716091156 0.0000000000
-34.0598831177 -23.3560333252 0.0000000000
-34.0821304321 -23.2384681702 0.0000000000
-34.0955276489 -23.1195678711 0.0000000000
-34.0999984741 -23.0000000000 0.0000000000
-34.0955276489 -22.8804321289 0.0000000000
-34.0821304321 -22.7615318298 0.0000000000
-34.0598831177 -22.6439666748 0.0000000000
-34.0289154053 -22.5283908844 0.0000000000
-33.9893989563 -22.4154548645 0.0000000000
-33.2999992371 -20.0000000000 0.0000000000
-33.2999992371 -21.6143589020 0.0000000000
-33.4013137817 -21.6780185699 0.0000000000
-33.4975852966 -21.7490692139 0.0000000000
-33.5882759094 -21.8271179199 0.0000000000
-33.6728820801 -21.9117240906 0.0000000000
-33.7509307861 -22.0024166107 0.0000000000
-33.8219833374 -22.0986881256 0.0000000000
-33.8856391907 -22.2000007629 0.0000000000
-33.9415512085 -22.3057861328 0.0000000000
-16.7000007629 -26.0000000000 0.0000000000
-16.5986881256 -24.3219814301 0.0000000000
-16.7000007629 -24.3856410980 0.0000000000
-16.5024166107 -24.2509307861 0.0000000000
-16.4117240906 -24.1728820801 0.0000000000
-16.3271179199 -24.0882759094 0.0000000000
-16.2490692139 -23.9975833893 0.0000000000
-16.1780185699 -23.9013118744 0.0000000000
-16.1143589020 -23.7999992371 0.0000000000
-16.0584506989 -23.6942138672 0.0000000000
-16.0106029510 -23.5845451355 0.0000000000
-15.9710836411 -23.4716091156 0.0000000000
-16.7000007629 -20.0000000000 0.0000000000
-15.9710836411 -22.5283908844 0.0000000000
-16.0106029510 -22.4154548645 0.0000000000
-16.0584506989 -22.3057861328 0.0000000000
-16.1143589020 -22.2000007629 0.0000000000
-16.1780185699 -22.0986881256 0.0000000000
-16.2490692139 -22.0024166107 0.0000000000
-16.3271179199 -21.9117240906 0.0000000000
-16.4117240906 -21.8271179199 0.0000000000
-16.5024166107 -21.7490692139 0.0000000000
-16.5986881256 -21.6780185699 0.0000000000
-16.7000007629 -21.6143589020 0.0000000000
7.1500000954 8.5500001907 0.0000000000
-15.9044742584 -22.8804321289 0.0000000000
-15.9178705215 -22.7615318298 0.0000000000
-15.9401149750 -22.6439666748 0.0000000000
52.5000000000 -34.0000000000 0.0000000000
-15.9401149750 -23.3560333252 0.0000000000
-15.9178705215 -23.2384681702 0.0000000000
7.1500000954 21.4500007629 0.0000000000
38.2999992371 -1.2000000477 0.0000000000
-15.9044742584 -23.1195678711 0.0000000000
-15.8999996185 -23.0000000000 0.0000000000
30.8500003815 8.5500001907 0.0000000000
45.7000007629 -1.2000000477 0.0000000000
38.2999992371 23.2000007629 0.0000000000
30.8500003815 21.4500007629 0.0000000000
52.5000000000 34.0000000000 0.0000000000
45.7000007629 23.2000007629 0.0000000000
45.7000007629 23.2000007629 3.0000000000
45.7000007629 -1.2000000477 3.0000000000
38.2999992371 23.2000007629 3.0000000000
38.2999992371 -1.2000000477 3.0000000000
30.8500003815 8.5500001907 3.0000000000
30.8500003815 21.4500007629 3.0000000000
7.1500000954 21.4500007629 3.0000000000
7.1500000954 8.5500001907 3.0000000000
-16.7000007629 -24.3856410980 0.8000000119
-16.5986881256 -24.3219814301 0.8000000119
-16.5024166107 -24.2509307861 0.8000000119
-16.4117240906 -24.1728820801 0.8000000119
-16.3271179199 -24.0882759094 0.8000000119
-16.2490692139 -23.9975833893 0.8000000119
-16.1780185699 -23.9013118744 0.8000000119
-16.1143589020 -23.7999992371 0.8000000119
-16.0584506989 -23.6942138672 0.8000000119
-16.0106029510 -23.5845451355 0.8000000119
-15.9710836411 -23.4716091156 0.8000000119
-15.9401149750 -23.3560333252 0.8000000119
-15.9178705215 -23.2384681702 0.8000000119
-15.9044742584 -23.1195678711 0.8000000119
-15.8999996185 -23.0000000000 0.8000000119
-15.9044742584 -22.8804321289 0.8000000119
-15.9178705215 -22.7615318298 0.8000000119
-15.9401149750 -22.6439666748 0.8000000119
-15.9710836411 -22.5283908844 0.8000000119
-16.0106029510 -22.4154548645 0.8000000119
-16.0584506989 -22.3057861328 0.8000000119
-16.1143589020 -22.2000007629 0.8000000119
-16.1780185699 -22.0986881256 0.8000000119
-16.2490692139 -22.0024166107 0.8000000119
-16.3271179199 -21.9117240906 0.8000000119
-16.4117240906 -21.8271179199 0.8000000119
-16.5024166107 -21.7490692139 0.8000000119
-16.5986881256 -21.6780185699 0.8000000119
-16.7000007629 -21.6143589020 0.8000000119
-33.6728820801 -24.0882759094 0.8000000119
-35.7999992371 -27.2999992371 0.8000000119
-33.2999992371 -26.0000000000 0.8000000119
-33.5882759094 -24.1728820801 0.8000000119
-33.4975852966 -24.2509307861 0.8000000119
-33.7509307861 -23.9975833893 0.8000000119
-33.4013137817 -24.3219814301 0.8000000119
-33.8219833374 -23.9013118744 0.8000000119
-33.2999992371 -24.3856410980 0.8000000119
-33.8856391907 -23.7999992371 0.8000000119
-33.9415512085 -23.6942138672 0.8000000119
-33.9893989563 -23.5845451355 0.8000000119
-34.0289154053 -23.4716091156 0.8000000119
-34.0598831177 -23.3560333252 0.8000000119
-34.0821304321 -23.2384681702 0.8000000119
-34.0955276489 -23.1195678711 0.8000000119
-34.0999984741 -23.0000000000 0.8000000119
-35.7999992371 -18.7000007629 0.8000000119
-33.7509307861 -22.0024166107 0.8000000119
-33.6728820801 -21.9117240906 0.8000000119
-33.8219833374 -22.0986881256 0.8000000119
-33.8856391907 -22.2000007629 0.8000000119
-33.9415512085 -22.3057861328 0.8000000119
-33.9893989563 -22.4154548645 0.8000000119
-34.0289154053 -22.5283908844 0.8000000119
-34.0598831177 -22.6439666748 0.8000000119
-34.0821304321 -22.7615318298 0.8000000119
-34.0955276489 -22.8804321289 0.8000000119
-33.2999992371 -20.0000000000 0.8000000119
-33.4013137817 -21.6780185699 0.8000000119
-33.2999992371 -21.6143589020 0.8000000119
-33.4975852966 -21.7490692139 0.8000000119
-33.5882759094 -21.8271179199 0.8000000119
-14.1999998093 -27.2999992371 0.8000000119
-16.7000007629 -26.0000000000 0.8000000119
-16.7000007629 -20.0000000000 0.8000000119
-14.1999998093 -18.7000007629 0.8000000119
-14.1999998093 -18.7000007629 3.0000000000
-35.7999992371 -18.7000007629 3.0000000000
-14.1999998093 -27.2999992371 3.0000000000
-35.7999992371 -27.2999992371 3.0000000000
52.5000000000 -34.0000000000 3.0000000000
52.5000000000 34.0000000000 3.0000000000
-44.3940887451 -7.2836275101 3.0000000000
-43.2836265564 -8.3940896988 3.0000000000
-42.0932846069 -9.4184608459 3.0000000000
-45.4184608459 -6.0932860374 3.0000000000
-40.8297195435 -10.3510141373 3.0000000000
-46.3510131836 -4.8297214508 3.0000000000
-39.5000000000 -11.1865339279 3.0000000000
-47.1865348816 -3.5000000000 3.0000000000
-38.1115570068 -11.9203462601 3.0000000000
-47.9203453064 -2.1115584373 3.0000000000
-36.6721611023 -12.5483484268 3.0000000000
-48.5483474731 -0.6721615195 3.0000000000
-35.1898574829 -13.0670289993 3.0000000000
-49.0670280457 0.8101413250 3.0000000000
-33.6729393005 -13.4734859467 3.0000000000
-49.4734878540 2.3270604610 3.0000000000
-32.1298866272 -13.7654476166 3.0000000000
-49.7654457092 3.8701124191 3.0000000000
-30.5693321228 -13.9412794113 3.0000000000
-49.9412803650 5.4306678772 3.0000000000
-29.0000000000 -14.0000000000 3.0000000000
-27.4306678772 -13.9412794113 3.0000000000
-22.8101406097 -13.0670289993 3.0000000000
-24.3270606995 -13.4734859467 3.0000000000
-21.3278388977 -12.5483484268 3.0000000000
-19.8884410858 -11.9203462601 3.0000000000
-18.5000000000 -11.1865339279 3.0000000000
-17.1702785492 -10.3510141373 3.0000000000
-15.9067144394 -9.4184608459 3.0000000000
-14.7163724899 -8.3940896988 3.0000000000
-13.6059103012 -7.2836275101 3.0000000000
4.0144801140 -24.4508571625 3.0000000000
3.5491435528 -23.9855194092 3.0000000000
3.1198830605 -23.4867095947 3.0000000000
4.5132899284 -24.8801174164 3.0000000000
5.0427832603 -25.2709007263 3.0000000000
2.7290987968 -22.9572162628 3.0000000000
5.5999999046 -25.6210231781 3.0000000000
2.3789763451 -22.3999996185 3.0000000000
6.1818232536 -25.9285259247 3.0000000000
2.0714740753 -21.8181762695 3.0000000000
6.7849988937 -26.1916885376 3.0000000000
1.8083109856 -21.2150001526 3.0000000000
7.4061546326 -26.4090404510 3.0000000000
1.5909593105 -20.5938453674 3.0000000000
8.0418157578 -26.5793647766 3.0000000000
1.4206343889 -19.9581832886 3.0000000000
-43.2836265564 22.3940887451 3.0000000000
-42.0932846069 23.4184608459 3.0000000000
-44.3940887451 21.2836265564 3.0000000000
-45.4184608459 20.0932865143 3.0000000000
-46.3510131836 18.8297214508 3.0000000000
-47.1865348816 17.5000000000 3.0000000000
-47.9203453064 16.1115589142 3.0000000000
-48.5483474731 14.6721611023 3.0000000000
-49.0670280457 13.1898584366 3.0000000000
-49.4734878540 11.6729393005 3.0000000000
-49.7654457092 10.1298875809 3.0000000000
-49.9412803650 8.5693321228 3.0000000000
-50.0000000000 7.0000000000 3.0000000000
8.6884279251 -26.7017116547 3.0000000000
1.2982887030 -19.3115711212 3.0000000000
9.3423748016 -26.7753925323 3.0000000000
1.2246066332 -18.6576251984 3.0000000000
1.2000000477 -18.0000000000 3.0000000000
-40.8297195435 24.3510150909 3.0000000000
1.2246066332 -17.3423748016 3.0000000000
1.2982887030 -16.6884288788 3.0000000000
1.4206343889 -16.0418167114 3.0000000000
-39.5000000000 25.1865329742 3.0000000000
1.5909593105 -15.4061546326 3.0000000000
-12.5815391541 -6.0932860374 3.0000000000
1.8083109856 -14.7849988937 3.0000000000
-38.1115570068 25.9203453064 3.0000000000
2.0714740753 -14.1818227768 3.0000000000
-11.6489858627 -4.8297214508 3.0000000000
2.3789763451 -13.6000003815 3.0000000000
2.7290987968 -13.0427837372 3.0000000000
-10.8134660721 -3.5000000000 3.0000000000
-36.6721611023 26.5483493805 3.0000000000
3.1198830605 -12.5132894516 3.0000000000
3.5491435528 -12.0144796371 3.0000000000
-10.0796537399 -2.1115584373 3.0000000000
-35.1898574829 27.0670280457 3.0000000000
4.0144801140 -11.5491437912 3.0000000000
-9.4516515732 -0.6721615195 3.0000000000
4.5132899284 -11.1198825836 3.0000000000
-33.6729393005 27.4734859467 3.0000000000
5.0427832603 -10.7290983200 3.0000000000
-8.9329710007 0.8101413250 3.0000000000
5.5999999046 -10.3789768219 3.0000000000
-32.1298866272 27.7654476166 3.0000000000
6.1818232536 -10.0714740753 3.0000000000
-8.5265140533 2.3270604610 3.0000000000
-30.5693321228 27.9412803650 3.0000000000
-29.0000000000 28.0000000000 3.0000000000
13.2150011063 -9.8083114624 3.0000000000
13.8181772232 -10.0714740753 3.0000000000
12.5938453674 -9.5909595490 3.0000000000
11.9581842422 -9.4206342697 3.0000000000
11.3115720749 -9.2982883453 3.0000000000
10.6576251984 -9.2246065140 3.0000000000
10.0000000000 -9.1999998093 3.0000000000
9.3423748016 -9.2246065140 3.0000000000
8.6884279251 -9.2982883453 3.0000000000
8.0418157578 -9.4206342697 3.0000000000
7.4061546326 -9.5909595490 3.0000000000
6.7849988937 -9.8083114624 3.0000000000
-8.2345523834 3.8701124191 3.0000000000
-8.0587205887 5.4306678772 3.0000000000
-8.0000000000 7.0000000000 3.0000000000
-8.0587205887 8.5693321228 3.0000000000
-8.2345523834 10.1298875809 3.0000000000
-8.5265140533 11.6729393005 3.0000000000
-8.9329710007 13.1898584366 3.0000000000
10.0000000000 -26.7999992371 3.0000000000
10.6576251984 -26.7753925323 3.0000000000
11.3115720749 -26.7017116547 3.0000000000
11.9581842422 -26.5793647766 3.0000000000
12.5938453674 -26.4090404510 3.0000000000
13.2150011063 -26.1916885376 3.0000000000
13.8181772232 -25.9285259247 3.0000000000
14.3999996185 -25.6210231781 3.0000000000
14.9572162628 -25.2709007263 3.0000000000
15.4867105484 -24.8801174164 3.0000000000
15.9855203629 -24.4508571625 3.0000000000
16.4508571625 -23.9855194092 3.0000000000
16.8801174164 -23.4867095947 3.0000000000
17.2709007263 -22.9572162628 3.0000000000
17.6210231781 -22.3999996185 3.0000000000
17.9285259247 -21.8181762695 3.0000000000
18.1916885376 -21.2150001526 3.0000000000
18.4090404510 -20.5938453674 3.0000000000
18.5793647766 -19.9581832886 3.0000000000
18.7017116547 -19.3115711212 3.0000000000
18.7753925323 -18.6576251984 3.0000000000
-12.5815391541 20.0932865143 3.0000000000
-11.6489858627 18.8297214508 3.0000000000
-13.6059103012 21.2836265564 3.0000000000
-14.7163724899 22.3940887451 3.0000000000
-15.9067144394 23.4184608459 3.0000000000
-17.1702785492 24.3510150909 3.0000000000
-18.5000000000 25.1865329742 3.0000000000
-19.8884410858 25.9203453064 3.0000000000
-9.4516515732 14.6721611023 3.0000000000
-10.0796537399 16.1115589142 3.0000000000
-10.8134660721 17.5000000000 3.0000000000
18.7753925323 -17.3423748016 3.0000000000
18.7999992371 -18.0000000000 3.0000000000
18.7017116547 -16.6884288788 3.0000000000
18.5793647766 -16.0418167114 3.0000000000
18.4090404510 -15.4061546326 3.0000000000
18.1916885376 -14.7849988937 3.0000000000
17.9285259247 -14.1818227768 3.0000000000
17.6210231781 -13.6000003815 3.0000000000
17.2709007263 -13.0427837372 3.0000000000
16.8801174164 -12.5132894516 3.0000000000
16.4508571625 -12.0144796371 3.0000000000
15.9855203629 -11.5491437912 3.0000000000
15.4867105484 -11.1198825836 3.0000000000
14.9572162628 -10.7290983200 3.0000000000
14.3999996185 -10.3789768219 3.0000000000
-27.4306678772 27.9412803650 3.0000000000
-25.8701114655 27.7654476166 3.0000000000
-24.3270606995 27.4734859467 3.0000000000
-22.8101406097 27.0670280457 3.0000000000
-21.3278388977 26.5483493805 3.0000000000
-25.8701114655 -13.7654476166 3.0000000000
-8.0587205887 8.5693321228 10.0000000000
-8.0000000000 7.0000000000 10.0000000000
-8.2345523834 10.1298875809 10.0000000000
-8.5265140533 11.6729393005 10.0000000000
-8.9329710007 13.1898584366 10.0000000000
-9.4516515732 14.6721611023 10.0000000000
-10.0796537399 16.1115589142 10.0000000000
-10.8134660721 17.5000000000 10.0000000000
-11.6489858627 18.8297214508 10.0000000000
-12.5815391541 20.0932865143 10.0000000000
-13.6059103012 21.2836265564 10.0000000000
-14.7163724899 22.3940887451 10.0000000000
-15.9067144394 23.4184608459 10.0000000000
-17.1702785492 24.3510150909 10.0000000000
-18.5000000000 25.1865329742 10.0000000000
-19.8884410858 25.9203453064 10.0000000000
-21.3278388977 26.5483493805 10.0000000000
-22.8101406097 27.0670280457 10.0000000000
-24.3270606995 27.4734859467 10.0000000000
-25.8701114655 27.7654476166 10.0000000000
-27.4306678772 27.9412803650 10.0000000000
-29.0000000000 28.0000000000 10.0000000000
-30.5693321228 27.9412803650 10.0000000000
-32.1298866272 27.7654476166 10.0000000000
-33.6729393005 27.4734859467 10.0000000000
-35.1898574829 27.0670280457 10.0000000000
-36.6721611023 26.5483493805 10.0000000000
-38.1115570068 25.9203453064 10.0000000000
-39.5000000000 25.1865329742 10.0000000000
-40.8297195435 24.3510150909 10.0000000000
-42.0932846069 23.4184608459 10.0000000000
-43.2836265564 22.3940887451 10.0000000000
-44.3940887451 21.2836265564 10.0000000000
-45.4184608459 20.0932865143 10.0000000000
-46.3510131836 18.8297214508 10.0000000000
-47.1865348816 17.5000000000 10.0000000000
-47.9203453064 16.1115589142 10.0000000000
-48.5483474731 14.6721611023 10.0000000000
-49.0670280457 13.1898584366 10.0000000000
-49.4734878540 11.6729393005 10.0000000000
-49.7654457092 10.1298875809 10.0000000000
-49.9412803650 8.5693321228 10.0000000000
-50.0000000000 7.0000000000 10.0000000000
-49.9412803650 5.4306678772 10.0000000000
-49.7654457092 3.8701124191 10.0000000000
-49.4734878540 2.3270604610 10.0000000000
-49.0670280457 0.8101413250 10.0000000000
-48.5483474731 -0.6721615195 10.0000000000
-47.9203453064 -2.1115584373 10.0000000000
-47.1865348816 -3.5000000000 10.0000000000
-46.3510131836 -4.8297214508 10.0000000000
-45.4184608459 -6.0932860374 10.0000000000
-44.3940887451 -7.2836275101 10.0000000000
-43.2836265564 -8.3940896988 10.0000000000
-42.0932846069 -9.4184608459 10.0000000000
-40.8297195435 -10.3510141373 10.0000000000
-39.5000000000 -11.1865339279 10.0000000000
-38.1115570068 -11.9203462601 10.0000000000
-36.6721611023 -12.5483484268 10.0000000000
-35.1898574829 -13.0670289993 10.0000000000
-33.6729393005 -13.4734859467 10.0000000000
-32.1298866272 -13.7654476166 10.0000000000
-30.5693321228 -13.9412794113 10.0000000000
-29.0000000000 -14.0000000000 10.0000000000
-27.4306678772 -13.9412794113 10.0000000000
-25.8701114655 -13.7654476166 10.0000000000
-24.3270606995 -13.4734859467 10.0000000000
-22.8101406097 -13.0670289993 10.0000000000
-21.3278388977 -12.5483484268 10.0000000000
-19.8884410858 -11.9203462601 10.0000000000
-18.5000000000 -11.1865339279 10.0000000000
-17.1702785492 -10.3510141373 10.0000000000
-15.9067144394 -9.4184608459 10.0000000000
-14.7163724899 -8.3940896988 10.0000000000
-13.6059103012 -7.2836275101 10.0000000000
-12.5815391541 -6.0932860374 10.0000000000
-11.6489858627 -4.8297214508 10.0000000000
-10.8134660721 -3.5000000000 10.0000000000
-10.0796537399 -2.1115584373 10.0000000000
-9.4516515732 -0.6721615195 10.0000000000
-8.9329710007 0.8101413250 10.0000000000
-8.5265140533 2.3270604610 10.0000000000
-8.2345523834 3.8701124191 10.0000000000
-8.0587205887 5.4306678772 10.0000000000
-42.6714172363 -5.6852216721 10.0000000000
-41.6852226257 -6.6714172363 10.0000000000
-40.6280860901 -7.5811572075 10.0000000000
-43.5811576843 -4.6280846596 10.0000000000
-39.5059204102 -8.4093532562 10.0000000000
-44.4093513489 -3.5059189796 10.0000000000
-38.3250007629 -9.1513738632 10.0000000000
-45.1513748169 -2.3250000477 10.0000000000
-37.0919303894 -9.8030691147 10.0000000000
-45.8030700684 -1.0919317007 10.0000000000
-35.8136100769 -10.3607950211 10.0000000000
-46.3607940674 0.1863898933 10.0000000000
-34.4971847534 -10.8214330673 10.0000000000
-46.8214340210 1.5028159618 10.0000000000
-33.1500167847 -11.1824054718 10.0000000000
-47.1824073792 2.8499846458 10.0000000000
-31.7796382904 -11.4416952133 10.0000000000
-47.4416961670 4.2203617096 10.0000000000
-30.3937168121 -11.5978507996 10.0000000000
-47.5978507996 5.6062836647 10.0000000000
-29.0000000000 -11.6499996185 10.0000000000
-47.6500015259 7.0000000000 10.0000000000
-27.6062831879 -11.5978507996 10.0000000000
-47.5978507996 8.3937158585 10.0000000000
-26.2203617096 -11.4416952133 10.0000000000
-47.4416961670 9.7796382904 10.0000000000
-47.1824073792 11.1500158310 10.0000000000
-24.8499851227 -11.1824054718 10.0000000000
-46.8214340210 12.4971837997 10.0000000000
-23.5028152466 -10.8214330673 10.0000000000
-46.3607940674 13.8136100769 10.0000000000
-22.1863899231 -10.3607950211 10.0000000000
-45.8030700684 15.0919313431 10.0000000000
-20.9080677032 -9.8030691147 10.0000000000
-45.1513748169 16.3250007629 10.0000000000
-19.6749992371 -9.1513738632 10.0000000000
-44.4093513489 17.5059185028 10.0000000000
-18.4940814972 -8.4093532562 10.0000000000
-43.5811576843 18.6280841827 10.0000000000
-17.3719158173 -7.5811572075 10.0000000000
-42.6714172363 19.6852207184 10.0000000000
-16.3147792816 -6.6714172363 10.0000000000
-41.6852226257 20.6714172363 10.0000000000
-15.3285827637 -5.6852216721 10.0000000000
-40.6280860901 21.5811576843 10.0000000000
-14.4188432693 -4.6280846596 10.0000000000
-39.5059204102 22.4093532562 10.0000000000
-13.5906467438 -3.5059189796 10.0000000000
-38.3250007629 23.1513729095 10.0000000000
-12.8486261368 -2.3250000477 10.0000000000
-12.1969308853 -1.0919317007 10.0000000000
-37.0919303894 23.8030700684 10.0000000000
-35.8136100769 24.3607959747 10.0000000000
-11.6392049789 0.1863898933 10.0000000000
-34.4971847534 24.8214321136 10.0000000000
-11.1785669327 1.5028159618 10.0000000000
-33.1500167847 25.1824054718 10.0000000000
-10.8175945282 2.8499846458 10.0000000000
-31.7796382904 25.4416942596 10.0000000000
-10.5583047867 4.2203617096 10.0000000000
-30.3937168121 25.5978507996 10.0000000000
-10.4021492004 5.6062836647 10.0000000000
-29.0000000000 25.6499996185 10.0000000000
-27.6062831879 25.5978507996 10.0000000000
-10.3500003815 7.0000000000 10.0000000000
-10.4021492004 8.3937158585 10.0000000000
-10.5583047867 9.7796382904 10.0000000000
-26.2203617096 25.4416942596 10.0000000000
-10.8175945282 11.1500158310 10.0000000000
-24.8499851227 25.1824054718 10.0000000000
-23.5028152466 24.8214321136 10.0000000000
-22.1863899231 24.3607959747 10.0000000000
-11.1785669327 12.4971837997 10.0000000000
-11.6392049789 13.8136100769 10.0000000000
-20.9080677032 23.8030700684 10.0000000000
-19.6749992371 23.1513729095 10.0000000000
-12.1969308853 15.0919313431 10.0000000000
-12.8486261368 16.3250007629 10.0000000000
-13.5906467438 17.5059185028 10.0000000000
-18.4940814972 22.4093532562 10.0000000000
-17.3719158173 21.5811576843 10.0000000000
-14.4188432693 18.6280841827 10.0000000000
-15.3285827637 19.6852207184 10.0000000000
-16.3147792816 20.6714172363 10.0000000000
-10.3500003815 7.0000000000 3.0000000000
-10.4021492004 8.3937158585 3.0000000000
-10.5583047867 9.7796382904 3.0000000000
-10.8175945282 11.1500158310 3.0000000000
-11.1785669327 12.4971837997 3.0000000000
-11.6392049789 13.8136100769 3.0000000000
-12.1969308853 15.0919313431 3.0000000000
-12.8486261368 16.3250007629 3.0000000000
-13.5906467438 17.5059185028 3.0000000000
-14.4188432693 18.6280841827 3.0000000000
-15.3285827637 19.6852207184 3.0000000000
-16.3147792816 20.6714172363 3.0000000000
-17.3719158173 21.5811576843 3.0000000000
-18.4940814972 22.4093532562 3.0000000000
-19.6749992371 23.1513729095 3.0000000000
-20.9080677032 23.8030700684 3.0000000000
-22.1863899231 24.3607959747 3.0000000000
-23.5028152466 24.8214321136 3.0000000000
-24.8499851227 25.1824054718 3.0000000000
-26.2203617096 25.4416942596 3.0000000000
-27.6062831879 25.5978507996 3.0000000000
-29.0000000000 25.6499996185 3.0000000000
-30.3937168121 25.5978507996 3.0000000000
-31.7796382904 25.4416942596 3.0000000000
-33.1500167847 25.1824054718 3.0000000000
-34.4971847534 24.8214321136 3.0000000000
-35.8136100769 24.3607959747 3.0000000000
-37.0919303894 23.8030700684 3.0000000000
-38.3250007629 23.1513729095 3.0000000000
-39.5059204102 22.4093532562 3.0000000000
-40.6280860901 21.5811576843 3.0000000000
-41.6852226257 20.6714172363 3.0000000000
-42.6714172363 19.6852207184 3.0000000000
-43.5811576843 18.6280841827 3.0000000000
-44.4093513489 17.5059185028 3.0000000000
-45.1513748169 16.3250007629 3.0000000000
-45.8030700684 15.0919313431 3.0000000000
-46.3607940674 13.8136100769 3.0000000000
-46.8214340210 12.4971837997 3.0000000000
-47.1824073792 11.1500158310 3.0000000000
-47.4416961670 9.7796382904 3.0000000000
-47.5978507996 8.3937158585 3.0000000000
-47.6500015259 7.0000000000 3.0000000000
-47.5978507996 5.6062836647 3.0000000000
-47.4416961670 4.2203617096 3.0000000000
-47.1824073792 2.8499846458 3.0000000000
-46.8214340210 1.5028159618 3.0000000000
-46.3607940674 0.1863898933 3.0000000000
-45.8030700684 -1.0919317007 3.0000000000
-45.1513748169 -2.3250000477 3.0000000000
-44.4093513489 -3.5059189796 3.0000000000
-43.5811576843 -4.6280846596 3.0000000000
-42.6714172363 -5.6852216721 3.0000000000
-41.6852226257 -6.6714172363 3.0000000000
-40.6280860901 -7.5811572075 3.0000000000
-39.5059204102 -8.4093532562 3.0000000000
-38.3250007629 -9.1513738632 3.0000000000
-37.0919303894 -9.8030691147 3.0000000000
-35.8136100769 -10.3607950211 3.0000000000
-34.4971847534 -10.8214330673 3.0000000000
-33.1500167847 -11.1824054718 3.0000000000
-31.7796382904 -11.4416952133 3.0000000000
-30.3937168121 -11.5978507996 3.0000000000
-29.0000000000 -11.6499996185 3.0000000000
-27.6062831879 -11.5978507996 3.0000000000
-26.2203617096 -11.4416952133 3.0000000000
-24.8499851227 -11.1824054718 3.0000000000
-23.5028152466 -10.8214330673 3.0000000000
-22.1863899231 -10.3607950211 3.0000000000
-20.9080677032 -9.8030691147 3.0000000000
-19.6749992371 -9.1513738632 3.0000000000
-18.4940814972 -8.4093532562 3.0000000000
-17.3719158173 -7.5811572075 3.0000000000
-16.3147792816 -6.6714172363 3.0000000000
-15.3285827637 -5.6852216721 3.0000000000
-14.4188432693 -4.6280846596 3.0000000000
-13.5906467438 -3.5059189796 3.0000000000
-12.8486261368 -2.3250000477 3.0000000000
-12.1969308853 -1.0919317007 3.0000000000
-11.6392049789 0.1863898933 3.0000000000
-11.1785669327 1.5028159618 3.0000000000
-10.8175945282 2.8499846458 3.0000000000
-10.5583047867 4.2203617096 3.0000000000
-10.4021492004 5.6062836647 3.0000000000
18.7753925323 -17.3423748016 10.0000000000
18.7999992371 -18.0000000000 10.0000000000
18.7017116547 -16.6884288788 10.0000000000
18.5793647766 -16.0418167114 10.0000000000
18.4090404510 -15.4061546326 10.0000000000
18.1916885376 -14.7849988937 10.0000000000
17.9285259247 -14.1818227768 10.0000000000
17.6210231781 -13.6000003815 10.0000000000
17.2709007263 -13.0427837372 10.0000000000
16.8801174164 -12.5132894516 10.0000000000
16.4508571625 -12.0144796371 10.0000000000
15.9855203629 -11.5491437912 10.0000000000
15.4867105484 -11.1198825836 10.0000000000
14.9572162628 -10.7290983200 10.0000000000
14.3999996185 -10.3789768219 10.0000000000
13.8181772232 -10.0714740753 10.0000000000
13.2150011063 -9.8083114624 10.0000000000
12.5938453674 -9.5909595490 10.0000000000
11.9581842422 -9.4206342697 10.0000000000
11.3115720749 -9.2982883453 10.0000000000
10.6576251984 -9.2246065140 10.0000000000
10.0000000000 -9.1999998093 10.0000000000
9.3423748016 -9.2246065140 10.0000000000
8.6884279251 -9.2982883453 10.0000000000
8.0418157578 -9.4206342697 10.0000000000
7.4061546326 -9.5909595490 10.0000000000
6.7849988937 -9.8083114624 10.0000000000
6.1818232536 -10.0714740753 10.0000000000
5.5999999046 -10.3789768219 10.0000000000
5.0427832603 -10.7290983200 10.0000000000
4.5132899284 -11.1198825836 10.0000000000
4.0144801140 -11.5491437912 10.0000000000
3.5491435528 -12.0144796371 10.0000000000
3.1198830605 -12.5132894516 10.0000000000
2.7290987968 -13.0427837372 10.0000000000
2.3789763451 -13.6000003815 10.0000000000
2.0714740753 -14.1818227768 10.0000000000
1.8083109856 -14.7849988937 10.0000000000
1.5909593105 -15.4061546326 10.0000000000
1.4206343889 -16.0418167114 10.0000000000
1.2982887030 -16.6884288788 10.0000000000
1.2246066332 -17.3423748016 10.0000000000
1.2000000477 -18.0000000000 10.0000000000
1.2246066332 -18.6576251984 10.0000000000
1.2982887030 -19.3115711212 10.0000000000
1.4206343889 -19.9581832886 10.0000000000
1.5909593105 -20.5938453674 10.0000000000
1.8083109856 -21.2150001526 10.0000000000
2.0714740753 -21.8181762695 10.0000000000
2.3789763451 -22.3999996185 10.0000000000
2.7290987968 -22.9572162628 10.0000000000
3.1198830605 -23.4867095947 10.0000000000
3.5491435528 -23.9855194092 10.0000000000
4.0144801140 -24.4508571625 10.0000000000
4.5132899284 -24.8801174164 10.0000000000
5.0427832603 -25.2709007263 10.0000000000
5.5999999046 -25.6210231781 10.0000000000
6.1818232536 -25.9285259247 10.0000000000
6.7849988937 -26.1916885376 10.0000000000
7.4061546326 -26.4090404510 10.0000000000
8.0418157578 -26.5793647766 10.0000000000
8.6884279251 -26.7017116547 10.0000000000
9.3423748016 -26.7753925323 10.0000000000
10.0000000000 -26.7999992371 10.0000000000
10.6576251984 -26.7753925323 10.0000000000
11.3115720749 -26.7017116547 10.0000000000
11.9581842422 -26.5793647766 10.0000000000
12.5938453674 -26.4090404510 10.0000000000
13.2150011063 -26.1916885376 10.0000000000
13.8181772232 -25.9285259247 10.0000000000
14.3999996185 -25.6210231781 10.0000000000
14.9572162628 -25.2709007263 10.0000000000
15.4867105484 -24.8801174164 10.0000000000
15.9855203629 -24.4508571625 10.0000000000
16.4508571625 -23.9855194092 10.0000000000
16.8801174164 -23.4867095947 10.0000000000
17.2709007263 -22.9572162628 10.0000000000
17.6210231781 -22.3999996185 10.0000000000
17.9285259247 -21.8181762695 10.0000000000
18.1916885376 -21.2150001526 10.0000000000
18.4090404510 -20.5938453674 10.0000000000
18.5793647766 -19.9581832886 10.0000000000
18.7017116547 -19.3115711212 10.0000000000
18.7753925323 -18.6576251984 10.0000000000
5.3748254776 -22.9847526550 10.0000000000
5.0152473450 -22.6251754761 10.0000000000
5.7602691650 -23.3164539337 10.0000000000
4.6835460663 -22.2397308350 10.0000000000
6.1694235802 -23.6184234619 10.0000000000
4.3815765381 -21.8305759430 10.0000000000
6.5999999046 -23.8889732361 10.0000000000
4.1110272408 -21.3999996185 10.0000000000
7.0495905876 -24.1265888214 10.0000000000
3.8734116554 -20.9504089355 10.0000000000
7.5156812668 -24.3299407959 10.0000000000
3.6700584888 -20.4843196869 10.0000000000
7.9956645966 -24.4978942871 10.0000000000
3.5021049976 -20.0043354034 10.0000000000
8.4868574142 -24.6295089722 10.0000000000
3.3704903126 -19.5131416321 10.0000000000
8.9865121841 -24.7240505219 10.0000000000
3.2759504318 -19.0134868622 10.0000000000
9.4918355942 -24.7809848785 10.0000000000
3.2190141678 -18.5081653595 10.0000000000
10.0000000000 -24.7999992371 10.0000000000
3.2000000477 -18.0000000000 10.0000000000
10.5081644058 -24.7809848785 10.0000000000
3.2190141678 -17.4918346405 10.0000000000
11.0134878159 -24.7240505219 10.0000000000
3.2759504318 -16.9865131378 10.0000000000
3.3704903126 -16.4868583679 10.0000000000
11.5131425858 -24.6295089722 10.0000000000
3.5021049976 -15.9956645966 10.0000000000
12.0043354034 -24.4978942871 10.0000000000
3.6700584888 -15.5156812668 10.0000000000
12.4843187332 -24.3299407959 10.0000000000
3.8734116554 -15.0495901108 10.0000000000
12.9504098892 -24.1265888214 10.0000000000
4.1110272408 -14.6000003815 10.0000000000
13.3999996185 -23.8889732361 10.0000000000
4.3815765381 -14.1694240570 10.0000000000
13.8305759430 -23.6184234619 10.0000000000
4.6835460663 -13.7602691650 10.0000000000
14.2397308350 -23.3164539337 10.0000000000
5.0152473450 -13.3748254776 10.0000000000
14.6251745224 -22.9847526550 10.0000000000
14.9847526550 -22.6251754761 10.0000000000
5.3748254776 -13.0152473450 10.0000000000
5.7602691650 -12.6835460663 10.0000000000
15.3164539337 -22.2397308350 10.0000000000
6.1694235802 -12.3815765381 10.0000000000
15.6184234619 -21.8305759430 10.0000000000
6.5999999046 -12.1110277176 10.0000000000
15.8889722824 -21.3999996185 10.0000000000
7.0495905876 -11.8734121323 10.0000000000
16.1265888214 -20.9504089355 10.0000000000
7.5156812668 -11.6700582504 10.0000000000
7.9956645966 -11.5021047592 10.0000000000
16.3299407959 -20.4843196869 10.0000000000
16.4978942871 -20.0043354034 10.0000000000
8.4868574142 -11.3704900742 10.0000000000
16.6295089722 -19.5131416321 10.0000000000
8.9865121841 -11.2759504318 10.0000000000
9.4918355942 -11.2190141678 10.0000000000
16.7240505219 -19.0134868622 10.0000000000
16.7809848785 -18.5081653595 10.0000000000
10.0000000000 -11.1999998093 10.0000000000
16.7999992371 -18.0000000000 10.0000000000
16.7809848785 -17.4918346405 10.0000000000
10.5081644058 -11.2190141678 10.0000000000
16.7240505219 -16.9865131378 10.0000000000
11.0134878159 -11.2759504318 10.0000000000
11.5131425858 -11.3704900742 10.0000000000
16.6295089722 -16.4868583679 10.0000000000
12.0043354034 -11.5021047592 10.0000000000
16.4978942871 -15.9956645966 10.0000000000
16.3299407959 -15.5156812668 10.0000000000
12.4843187332 -11.6700582504 10.0000000000
12.9504098892 -11.8734121323 10.0000000000
13.3999996185 -12.1110277176 10.0000000000
16.1265888214 -15.0495901108 10.0000000000
15.8889722824 -14.6000003815 10.0000000000
15.6184234619 -14.1694240570 10.0000000000
13.8305759430 -12.3815765381 10.0000000000
15.3164539337 -13.7602691650 10.0000000000
14.2397308350 -12.6835460663 10.0000000000
14.9847526550 -13.3748254776 10.0000000000
14.6251745224 -13.0152473450 10.0000000000
16.7999992371 -18.0000000000 3.0000000000
16.7809848785 -17.4918346405 3.0000000000
16.7240505219 -16.9865131378 3.0000000000
16.6295089722 -16.4868583679 3.0000000000
16.4978942871 -15.9956645966 3.0000000000
16.3299407959 -15.5156812668 3.0000000000
16.1265888214 -15.0495901108 3.0000000000
15.8889722824 -14.6000003815 3.0000000000
15.6184234619 -14.1694240570 3.0000000000
15.3164539337 -13.7602691650 3.0000000000
14.9847526550 -13.3748254776 3.0000000000
14.6251745224 -13.0152473450 3.0000000000
14.2397308350 -12.6835460663 3.0000000000
13.8305759430 -12.3815765381 3.0000000000
13.3999996185 -12.1110277176 3.0000000000
12.9504098892 -11.8734121323 3.0000000000
12.4843187332 -11.6700582504 3.0000000000
12.0043354034 -11.5021047592 3.0000000000
11.5131425858 -11.3704900742 3.0000000000
11.0134878159 -11.2759504318 3.0000000000
10.5081644058 -11.2190141678 3.0000000000
10.0000000000 -11.1999998093 3.0000000000
9.4918355942 -11.2190141678 3.0000000000
8.9865121841 -11.2759504318 3.0000000000
8.4868574142 -11.3704900742 3.0000000000
7.9956645966 -11.5021047592 3.0000000000
7.5156812668 -11.6700582504 3.0000000000
7.0495905876 -11.8734121323 3.0000000000
6.5999999046 -12.1110277176 3.0000000000
6.1694235802 -12.3815765381 3.0000000000
5.7602691650 -12.6835460663 3.0000000000
5.3748254776 -13.0152473450 3.0000000000
5.0152473450 -13.3748254776 3.0000000000
4.6835460663 -13.7602691650 3.0000000000
4.3815765381 -14.1694240570 3.0000000000
4.1110272408 -14.6000003815 3.0000000000
3.8734116554 -15.0495901108 3.0000000000
3.6700584888 -15.5156812668 3.0000000000
3.5021049976 -15.9956645966 3.0000000000
3.3704903126 -16.4868583679 3.0000000000
3.2759504318 -16.9865131378 3.0000000000
3.2190141678 -17.4918346405 3.0000000000
3.2000000477 -18.0000000000 3.0000000000
3.2190141678 -18.5081653595 3.0000000000
3.2759504318 -19.0134868622 3.0000000000
3.3704903126 -19.5131416321 3.0000000000
3.5021049976 -20.0043354034 3.0000000000
3.6700584888 -20.4843196869 3.0000000000
3.8734116554 -20.9504089355 3.0000000000
4.1110272408 -21.3999996185 3.0000000000
4.3815765381 -21.8305759430 3.0000000000
4.6835460663 -22.2397308350 3.0000000000
5.0152473450 -22.6251754761 3.0000000000
5.3748254776 -22.9847526550 3.0000000000
5.7602691650 -23.3164539337 3.0000000000
6.1694235802 -23.6184234619 3.0000000000
6.5999999046 -23.8889732361 3.0000000000
7.0495905876 -24.1265888214 3.0000000000
7.5156812668 -24.3299407959 3.0000000000
7.9956645966 -24.4978942871 3.0000000000
8.4868574142 -24.6295089722 3.0000000000
8.9865121841 -24.7240505219 3.0000000000
9.4918355942 -24.7809848785 3.0000000000
10.0000000000 -24.7999992371 3.0000000000
10.5081644058 -24.7809848785 3.0000000000
11.0134878159 -24.7240505219 3.0000000000
11.5131425858 -24.6295089722 3.0000000000
12.0043354034 -24.4978942871 3.0000000000
12.4843187332 -24.3299407959 3.0000000000
12.9504098892 -24.1265888214 3.0000000000
13.3999996185 -23.8889732361 3.0000000000
13.8305759430 -23.6184234619 3.0000000000
14.2397308350 -23.3164539337 3.0000000000
14.6251745224 -22.9847526550 3.0000000000
14.9847526550 -22.6251754761 3.0000000000
15.3164539337 -22.2397308350 3.0000000000
15.6184234619 -21.8305759430 3.0000000000
15.8889722824 -21.3999996185 3.0000000000
16.1265888214 -20.9504089355 3.0000000000
16.3299407959 -20.4843196869 3.0000000000
16.4978942871 -20.0043354034 3.0000000000
16.6295089722 -19.5131416321 3.0000000000
16.7240505219 -19.0134868622 3.0000000000
16.7809848785 -18.5081653595 3.0000000000
3 0 1 2
3 0 3 1
3 4 5 6
3 7 4 6
3 8 6 5
3 9 7 6
3 10 6 8
3 11 9 6
3 12 6 10
3 13 11 6
3 14 6 2
3 14 13 6
3 15 14 2
3 16 15 2
3 17 16 2
3 18 17 2
3 19 18 2
3 20 19 2
3 21 20 2
3 22 21 2
3 23 22 2
3 24 23 2
3 25 26 27
3 25 27 28
3 25 28 29
3 25 29 30
3 25 30 31
3 25 31 32
3 25 32 33
3 25 33 34
3 25 34 24
3 25 24 2
3 35 2 6
3 36 35 37
3 38 35 36
3 39 35 38
3 40 35 39
3 41 35 40
3 42 35 41
3 43 35 42
3 44 35 43
3 45 35 44
3 46 35 45
3 47 48 49
3 47 49 50
3 47 50 51
3 47 51 52
3 47 52 53
3 47 53 54
3 47 54 55
3 47 55 56
3 47 56 57
3 47 57 58
3 1 25 2
3 59 47 25
3 59 60 61
3 59 61 62
3 59 62 48
3 59 25 1
3 59 48 47
3 63 2 35
3 63 46 64
3 63 64 65
3 63 35 46
3 66 59 1
3 67 65 68
3 67 68 69
3 67 69 60
3 67 60 59
3 67 63 65
3 70 67 59
3 71 63 67
3 72 70 73
3 74 63 71
3 74 72 73
3 74 73 66
3 74 75 72
3 74 71 75
3 74 66 1
3 67 70 72
3 71 76 75
3 77 76 71
3 76 72 75
3 76 78 72
3 67 72 78
3 79 67 78
3 77 71 67
3 77 67 79
3 80 73 70
3 80 81 73
3 73 82 66
3 81 82 73
3 83 59 66
3 83 66 82
3 70 59 83
3 80 70 83
3 84 36 37
3 85 38 36
3 85 36 84
3 86 39 38
3 86 38 85
3 87 40 39
3 87 39 86
3 88 41 40
3 88 40 87
3 89 42 41
3 89 41 88
3 90 43 42
3 90 42 89
3 91 44 43
3 91 43 90
3 92 45 44
3 92 44 91
3 93 46 45
3 93 45 92
3 94 46 93
3 94 64 46
3 95 64 94
3 95 65 64
3 96 68 65
3 96 65 95
3 97 69 68
3 97 68 96
3 98 69 97
3 99 60 69
3 99 69 98
3 100 61 60
3 100 60 99
3 101 62 61
3 101 61 100
3 102 48 62
3 102 62 101
3 103 49 48
3 103 48 102
3 104 50 49
3 104 49 103
3 105 51 50
3 105 50 104
3 106 52 51
3 106 51 105
3 107 53 52
3 107 52 106
3 108 54 53
3 108 53 107
3 109 55 54
3 109 54 108
3 110 56 55
3 110 55 109
3 111 57 56
3 111 56 110
3 112 57 111
3 112 58 57
3 113 114 115
3 113 115 116
3 117 116 115
3 118 114 113
3 119 117 115
3 120 114 118
3 121 119 115
3 122 114 120
3 123 114 122
3 124 114 123
3 125 114 124
3 126 114 125
3 127 114 126
3 128 114 127
3 129 114 128
3 130 131 132
3 130 133 131
3 130 134 133
3 130 135 134
3 130 136 135
3 130 137 136
3 130 138 137
3 130 139 138
3 130 140 139
3 130 129 140
3 130 114 129
3 141 142 143
3 141 144 142
3 141 145 144
3 141 132 145
3 141 130 132
3 146 147 115
3 146 115 114
3 85 84 147
3 86 85 147
3 87 86 147
3 88 147 146
3 88 87 147
3 89 88 146
3 90 89 146
3 91 90 146
3 92 91 146
3 93 92 146
3 94 93 146
3 95 94 146
3 96 95 146
3 97 96 146
3 98 97 146
3 148 109 108
3 148 110 109
3 148 111 110
3 148 112 111
3 149 148 108
3 149 99 98
3 149 100 99
3 149 101 100
3 149 102 101
3 149 103 102
3 149 104 103
3 149 105 104
3 149 106 105
3 149 107 106
3 149 98 146
3 149 108 107
3 149 130 141
3 149 141 148
3 150 130 149
3 150 151 130
3 152 149 146
3 152 150 149
3 152 146 114
3 152 114 153
3 153 114 130
3 153 130 151
3 58 148 47
3 112 148 58
3 148 25 47
3 148 141 25
3 26 25 141
3 143 26 141
3 143 27 26
3 142 28 27
3 142 27 143
3 144 29 28
3 144 28 142
3 145 30 29
3 145 29 144
3 132 31 30
3 132 30 145
3 131 32 31
3 131 31 132
3 133 33 32
3 133 32 131
3 134 34 33
3 134 33 133
3 135 24 34
3 135 34 134
3 136 23 24
3 136 24 135
3 137 23 136
3 137 22 23
3 138 22 137
3 138 21 22
3 139 21 138
3 139 20 21
3 140 20 139
3 129 20 140
3 129 19 20
3 129 18 19
3 128 18 129
3 127 17 18
3 127 18 128
3 126 16 17
3 126 17 127
3 125 15 16
3 125 16 126
3 124 14 15
3 124 15 125
3 123 13 14
3 123 14 124
3 122 11 13
3 122 13 123
3 120 9 11
3 120 11 122
3 118 7 9
3 118 9 120
3 113 4 7
3 113 7 118
3 116 5 4
3 116 4 113
3 117 8 5
3 117 5 116
3 119 10 8
3 119 8 117
3 121 10 119
3 121 12 10
3 115 6 12
3 115 12 121
3 147 35 6
3 147 6 115
3 147 37 35
3 147 84 37
3 154 63 74
3 154 74 155
3 155 74 1
3 155 1 3
3 151 0 153
3 156 0 157
3 158 157 0
3 159 0 156
3 160 158 0
3 160 0 151
3 161 0 159
3 162 160 151
3 163 0 161
3 164 162 151
3 165 0 163
3 166 164 151
3 167 0 165
3 168 166 151
3 169 0 167
3 170 168 151
3 171 0 169
3 172 170 151
3 173 0 171
3 174 172 151
3 175 0 173
3 176 174 151
3 152 153 0
3 177 176 151
3 150 178 179
3 150 180 178
3 181 180 150
3 182 181 150
3 183 182 150
3 184 183 150
3 185 184 150
3 186 185 150
3 187 188 152
3 189 152 188
3 190 187 152
3 191 190 152
3 192 152 189
3 193 191 152
3 194 152 192
3 195 193 152
3 196 152 194
3 197 195 152
3 198 152 196
3 199 197 152
3 200 152 198
3 200 150 152
3 201 199 152
3 202 150 200
3 3 203 204
3 3 205 203
3 3 206 205
3 3 207 206
3 3 208 207
3 3 209 208
3 3 210 209
3 3 211 210
3 3 212 211
3 3 213 212
3 3 214 213
3 3 215 214
3 216 201 152
3 217 150 202
3 218 216 152
3 219 150 217
3 220 150 219
3 221 3 204
3 222 150 220
3 223 150 222
3 224 150 223
3 225 3 221
3 226 150 224
3 226 227 186
3 226 186 150
3 228 227 226
3 229 3 225
3 230 227 228
3 230 231 227
3 232 231 230
3 233 234 231
3 233 231 232
3 235 3 229
3 236 234 233
3 237 234 236
3 237 238 234
3 239 3 235
3 240 241 238
3 240 238 237
3 242 241 240
3 243 3 239
3 244 241 242
3 244 245 241
3 246 245 244
3 247 3 243
3 248 245 246
3 248 249 245
3 250 3 247
3 251 3 250
3 83 249 248
3 83 252 253
3 83 254 252
3 83 255 254
3 83 256 255
3 83 257 256
3 83 258 257
3 83 259 258
3 83 260 259
3 83 261 260
3 83 262 261
3 83 263 262
3 83 248 263
3 83 264 249
3 83 265 264
3 83 266 265
3 83 267 266
3 83 268 267
3 83 269 268
3 83 270 269
3 154 218 152
3 154 152 0
3 154 271 218
3 154 272 271
3 154 273 272
3 154 274 273
3 154 275 274
3 154 276 275
3 154 277 276
3 154 278 277
3 154 279 278
3 154 280 279
3 154 281 280
3 154 282 281
3 154 283 282
3 154 284 283
3 154 285 284
3 154 286 285
3 154 287 286
3 154 288 287
3 154 289 288
3 154 290 289
3 154 291 290
3 82 292 293
3 82 294 292
3 82 295 294
3 82 296 295
3 82 297 296
3 82 298 297
3 82 299 298
3 82 270 83
3 82 300 270
3 82 301 300
3 82 302 301
3 82 293 302
3 79 303 304
3 79 305 303
3 79 306 305
3 79 307 306
3 79 308 307
3 79 309 308
3 79 310 309
3 79 311 310
3 79 312 311
3 79 313 312
3 79 291 154
3 79 304 291
3 80 83 253
3 80 314 313
3 80 315 314
3 80 316 315
3 80 317 316
3 80 253 317
3 80 313 79
3 77 79 154
3 78 81 80
3 155 77 154
3 155 81 78
3 155 78 76
3 155 76 77
3 155 82 81
3 3 0 215
3 215 0 175
3 155 3 251
3 155 251 318
3 155 318 319
3 155 319 320
3 155 320 321
3 155 321 322
3 155 322 299
3 155 299 82
3 151 150 177
3 177 150 323
3 323 150 179
3 79 78 80
3 324 325 266
3 324 266 267
3 324 267 268
3 326 324 268
3 327 326 268
3 327 268 269
3 327 269 270
3 328 270 300
3 328 327 270
3 329 328 300
3 330 300 301
3 330 329 300
3 331 301 302
3 331 302 293
3 331 330 301
3 332 331 293
3 333 332 293
3 333 293 292
3 334 333 292
3 334 292 294
3 335 334 294
3 335 294 295
3 336 335 295
3 336 295 296
3 337 336 296
3 337 296 297
3 338 337 297
3 338 297 298
3 339 338 298
3 339 298 299
3 340 299 322
3 340 339 299
3 341 322 321
3 341 340 322
3 342 321 320
3 342 341 321
3 343 320 319
3 343 342 320
3 344 319 318
3 344 343 319
3 345 318 251
3 345 344 318
3 346 251 250
3 346 250 247
3 346 345 251
3 347 346 247
3 348 247 243
3 348 347 247
3 349 243 239
3 349 348 243
3 350 239 235
3 350 235 229
3 350 349 239
3 351 350 229
3 352 229 225
3 352 351 229
3 353 225 221
3 353 352 225
3 354 221 204
3 354 353 221
3 355 204 203
3 355 354 204
3 356 355 203
3 356 203 205
3 357 356 205
3 357 205 206
3 358 357 206
3 358 206 207
3 359 358 207
3 359 207 208
3 360 359 208
3 360 208 209
3 360 209 210
3 361 360 210
3 362 210 211
3 362 361 210
3 363 211 212
3 363 362 211
3 364 212 213
3 364 213 214
3 364 363 212
3 365 364 214
3 366 214 215
3 366 365 214
3 367 215 175
3 367 175 173
3 367 366 215
3 368 367 173
3 369 173 171
3 369 171 169
3 369 368 173
3 370 369 169
3 371 169 167
3 371 167 165
3 371 370 169
3 372 371 165
3 373 165 163
3 373 372 165
3 374 163 161
3 374 373 163
3 375 161 159
3 375 159 156
3 375 374 161
3 376 156 157
3 376 375 156
3 377 157 158
3 377 376 157
3 378 377 158
3 379 158 160
3 379 160 162
3 379 378 158
3 380 379 162
3 381 380 162
3 381 162 164
3 382 381 164
3 382 164 166
3 383 382 166
3 383 166 168
3 383 168 170
3 384 383 170
3 384 170 172
3 385 384 172
3 386 385 172
3 386 172 174
3 387 386 174
3 387 174 176
3 388 387 176
3 388 176 177
3 389 388 177
3 389 177 323
3 390 389 323
3 390 323 179
3 390 179 178
3 391 390 178
3 392 391 178
3 392 178 180
3 393 392 180
3 393 180 181
3 393 181 182
3 394 393 182
3 394 182 183
3 395 394 183
3 396 183 184
3 396 184 185
3 396 395 183
3 397 396 185
3 398 185 186
3 398 397 185
3 399 186 227
3 399 227 231
3 399 398 186
3 400 399 231
3 401 231 234
3 401 234 238
3 401 400 231
3 402 401 238
3 402 238 241
3 403 402 241
3 404 241 245
3 404 245 249
3 404 403 241
3 405 404 249
3 406 249 264
3 406 405 249
3 407 406 264
3 407 264 265
3 407 265 266
3 325 407 266
3 408 376 377
3 408 377 409
3 410 377 378
3 410 409 377
3 411 374 375
3 411 375 376
3 411 376 408
3 412 378 379
3 412 379 380
3 412 410 378
3 413 373 374
3 413 374 411
3 414 412 380
3 415 373 413
3 416 414 380
3 416 380 381
3 417 372 373
3 417 373 415
3 418 416 381
3 418 381 382
3 419 372 417
3 419 370 371
3 419 371 372
3 420 418 382
3 420 382 383
3 421 370 419
3 422 420 383
3 422 383 384
3 423 370 421
3 423 369 370
3 424 422 384
3 424 384 385
3 424 385 386
3 425 369 423
3 425 368 369
3 426 424 386
3 427 366 367
3 427 367 368
3 427 368 425
3 428 426 386
3 428 386 387
3 429 366 427
3 429 365 366
3 430 428 387
3 430 387 388
3 430 388 389
3 431 364 365
3 431 365 429
3 432 430 389
3 433 364 431
3 434 363 364
3 434 364 433
3 435 389 390
3 435 432 389
3 436 362 363
3 436 363 434
3 437 435 390
3 437 390 391
3 392 437 391
3 438 361 362
3 438 362 436
3 439 437 392
3 440 360 361
3 440 361 438
3 441 392 393
3 441 439 392
3 442 359 360
3 442 360 440
3 443 441 393
3 443 393 394
3 444 359 442
3 444 358 359
3 445 394 395
3 445 443 394
3 396 445 395
3 446 357 358
3 446 358 444
3 447 445 396
3 448 356 357
3 448 357 446
3 449 447 396
3 449 396 397
3 355 448 450
3 355 356 448
3 398 449 397
3 398 451 449
3 452 355 450
3 354 355 452
3 399 451 398
3 399 453 451
3 454 354 452
3 353 354 454
3 400 453 399
3 400 455 453
3 352 454 456
3 352 353 454
3 401 457 455
3 401 455 400
3 458 457 401
3 351 456 459
3 351 352 456
3 402 458 401
3 460 351 459
3 350 351 460
3 403 461 458
3 403 458 402
3 462 350 460
3 349 350 462
3 404 463 461
3 404 461 403
3 464 349 462
3 348 349 464
3 405 465 463
3 405 463 404
3 347 464 466
3 347 348 464
3 406 467 465
3 406 465 405
3 346 347 466
3 346 466 468
3 407 467 406
3 407 469 467
3 345 470 471
3 345 468 470
3 345 346 468
3 325 472 469
3 325 469 407
3 344 345 471
3 324 472 325
3 324 473 472
3 324 474 473
3 343 471 475
3 343 344 471
3 326 474 324
3 326 476 474
3 327 476 326
3 342 475 477
3 342 343 475
3 341 478 479
3 341 477 478
3 341 342 477
3 328 476 327
3 328 480 476
3 340 341 479
3 329 480 328
3 329 481 480
3 339 340 479
3 339 482 483
3 339 479 482
3 330 481 329
3 330 484 481
3 338 339 483
3 331 484 330
3 331 485 484
3 332 485 331
3 332 486 485
3 337 338 483
3 337 487 488
3 337 483 487
3 333 486 332
3 333 489 486
3 333 490 489
3 336 337 488
3 334 490 333
3 335 490 334
3 335 336 488
3 335 491 490
3 335 488 491
3 473 492 472
3 473 493 492
3 473 494 493
3 474 494 473
3 476 494 474
3 476 495 494
3 476 496 495
3 480 497 496
3 480 496 476
3 481 497 480
3 484 498 497
3 484 497 481
3 485 499 498
3 485 500 499
3 485 498 484
3 486 500 485
3 489 500 486
3 489 501 500
3 490 501 489
3 490 502 501
3 491 502 490
3 491 503 502
3 488 503 491
3 488 504 503
3 487 504 488
3 487 505 504
3 483 505 487
3 483 506 505
3 482 506 483
3 482 507 506
3 479 508 507
3 479 507 482
3 478 509 508
3 478 508 479
3 477 510 509
3 477 509 478
3 475 511 510
3 475 510 477
3 471 512 511
3 471 511 475
3 470 513 512
3 470 512 471
3 468 514 513
3 468 515 514
3 468 513 470
3 466 515 468
3 464 516 515
3 464 515 466
3 462 517 516
3 462 516 464
3 460 518 517
3 460 519 518
3 460 517 462
3 459 519 460
3 456 520 519
3 456 519 459
3 454 521 520
3 454 520 456
3 452 522 521
3 452 521 454
3 450 523 522
3 450 522 452
3 448 523 450
3 448 524 523
3 446 524 448
3 446 525 524
3 444 525 446
3 444 526 525
3 442 526 444
3 442 527 526
3 440 527 442
3 440 528 527
3 440 529 528
3 438 529 440
3 436 530 529
3 436 529 438
3 434 531 530
3 434 530 436
3 433 532 531
3 433 533 532
3 433 531 434
3 431 533 433
3 429 534 533
3 429 533 431
3 427 535 534
3 427 536 535
3 427 534 429
3 425 536 427
3 423 537 536
3 423 538 537
3 423 536 425
3 421 538 423
3 419 539 538
3 419 540 539
3 419 538 421
3 417 540 419
3 415 541 540
3 415 540 417
3 413 542 541
3 413 541 415
3 411 543 542
3 411 544 543
3 411 542 413
3 408 545 544
3 408 544 411
3 409 546 545
3 409 545 408
3 410 546 409
3 412 547 546
3 412 548 547
3 412 546 410
3 414 548 412
3 416 548 414
3 416 549 548
3 418 549 416
3 418 550 549
3 420 550 418
3 420 551 550
3 420 552 551
3 422 552 420
3 422 553 552
3 424 553 422
3 426 553 424
3 426 554 553
3 428 554 426
3 428 555 554
3 430 555 428
3 430 556 555
3 432 556 430
3 432 557 556
3 435 557 432
3 435 558 557
3 435 559 558
3 437 559 435
3 439 559 437
3 439 560 559
3 441 560 439
3 441 561 560
3 441 562 561
3 443 562 441
3 443 563 562
3 445 563 443
3 447 564 563
3 447 565 564
3 447 563 445
3 449 565 447
3 451 566 565
3 451 565 449
3 453 567 566
3 453 568 567
3 453 566 451
3 455 568 453
3 457 569 568
3 457 570 569
3 457 568 455
3 458 570 457
3 458 571 570
3 461 571 458
3 463 572 571
3 463 573 572
3 463 571 461
3 465 573 463
3 467 574 573
3 467 573 465
3 469 574 467
3 469 575 574
3 469 492 575
3 472 492 469
3 546 544 545
3 547 544 546
3 542 543 544
3 540 541 542
3 540 547 548
3 540 542 544
3 540 544 547
3 551 548 549
3 551 549 550
3 552 540 548
3 552 548 551
3 553 540 552
3 535 536 537
3 535 537 538
3 535 538 539
3 535 539 540
3 555 553 554
3 533 534 535
3 558 540 553
3 558 535 540
3 558 553 555
3 558 555 556
3 558 556 557
3 531 532 533
3 559 535 558
3 529 530 531
3 528 529 531
3 527 528 531
3 525 526 527
3 525 527 531
3 565 535 559
3 565 559 560
3 565 560 561
3 565 561 562
3 565 562 563
3 565 563 564
3 522 523 524
3 522 524 525
3 521 525 531
3 521 522 525
3 570 533 535
3 570 531 533
3 570 535 565
3 570 565 566
3 570 566 567
3 570 567 568
3 570 568 569
3 572 570 571
3 574 572 573
3 574 570 572
3 514 515 516
3 493 519 520
3 493 520 521
3 493 521 531
3 493 531 570
3 493 574 575
3 493 575 492
3 493 570 574
3 512 514 516
3 512 513 514
3 512 516 517
3 512 517 518
3 495 493 494
3 509 512 518
3 509 510 511
3 509 511 512
3 509 518 519
3 498 496 497
3 499 496 498
3 500 495 496
3 500 496 499
3 505 506 507
3 505 507 508
3 501 495 500
3 504 508 509
3 504 509 519
3 504 505 508
3 503 519 493
3 503 501 502
3 503 493 495
3 503 495 501
3 503 504 519
3 576 577 304
3 576 304 303
3 576 303 305
3 578 576 305
3 579 578 305
3 579 305 306
3 579 306 307
3 580 307 308
3 580 579 307
3 581 580 308
3 582 308 309
3 582 581 308
3 583 309 310
3 583 310 311
3 583 582 309
3 584 583 311
3 585 584 311
3 585 311 312
3 586 585 312
3 586 312 313
3 587 586 313
3 587 313 314
3 588 587 314
3 588 314 315
3 589 588 315
3 589 315 316
3 590 589 316
3 590 316 317
3 591 590 317
3 591 317 253
3 592 253 252
3 592 591 253
3 593 252 254
3 593 592 252
3 594 254 255
3 594 593 254
3 595 255 256
3 595 594 255
3 596 256 257
3 596 595 256
3 597 257 258
3 597 596 257
3 598 258 259
3 598 259 260
3 598 597 258
3 599 598 260
3 600 260 261
3 600 599 260
3 601 261 262
3 601 600 261
3 602 262 263
3 602 263 248
3 602 601 262
3 603 602 248
3 604 248 246
3 604 603 248
3 605 246 244
3 605 604 246
3 606 244 242
3 606 605 244
3 607 242 240
3 607 606 242
3 608 607 240
3 608 240 237
3 609 608 237
3 609 237 236
3 610 609 236
3 610 236 233
3 611 610 233
3 611 233 232
3 612 611 232
3 612 232 230
3 612 230 228
3 613 612 228
3 614 228 226
3 614 613 228
3 615 226 224
3 615 614 226
3 616 224 223
3 616 223 222
3 616 615 224
3 617 616 222
3 618 222 220
3 618 617 222
3 619 220 219
3 619 219 217
3 619 618 220
3 620 619 217
3 621 217 202
3 621 202 200
3 621 620 217
3 622 621 200
3 623 200 198
3 623 198 196
3 623 622 200
3 624 623 196
3 625 196 194
3 625 624 196
3 626 194 192
3 626 625 194
3 627 192 189
3 627 189 188
3 627 626 192
3 628 188 187
3 628 627 188
3 629 187 190
3 629 628 187
3 630 629 190
3 631 190 191
3 631 191 193
3 631 630 190
3 632 631 193
3 633 632 193
3 633 193 195
3 634 633 195
3 634 195 197
3 635 634 197
3 635 197 199
3 635 199 201
3 636 635 201
3 636 201 216
3 637 636 216
3 638 637 216
3 638 216 218
3 639 638 218
3 639 218 271
3 640 639 271
3 640 271 272
3 641 640 272
3 641 272 273
3 642 641 273
3 642 273 274
3 642 274 275
3 643 642 275
3 644 643 275
3 644 275 276
3 645 644 276
3 645 276 277
3 645 277 278
3 646 645 278
3 646 278 279
3 647 646 279
3 648 279 280
3 648 280 281
3 648 647 279
3 649 648 281
3 650 281 282
3 650 649 281
3 651 282 283
3 651 283 284
3 651 650 282
3 652 651 284
3 653 284 285
3 653 285 286
3 653 652 284
3 654 653 286
3 654 286 287
3 655 654 287
3 656 287 288
3 656 288 289
3 656 655 287
3 657 656 289
3 658 289 290
3 658 657 289
3 659 658 290
3 659 290 291
3 659 291 304
3 577 659 304
3 660 628 629
3 660 629 630
3 661 628 660
3 662 660 630
3 663 628 661
3 663 627 628
3 664 662 630
3 664 630 631
3 664 631 632
3 665 627 663
3 665 626 627
3 666 664 632
3 667 626 665
3 667 625 626
3 668 666 632
3 668 632 633
3 668 633 634
3 669 625 667
3 669 623 624
3 669 624 625
3 670 668 634
3 671 623 669
3 672 670 634
3 672 634 635
3 673 623 671
3 673 622 623
3 674 672 635
3 674 635 636
3 674 636 637
3 675 622 673
3 675 621 622
3 676 674 637
3 677 619 620
3 677 620 621
3 677 621 675
3 678 676 637
3 678 637 638
3 679 619 677
3 680 678 638
3 680 638 639
3 681 617 618
3 681 618 619
3 681 619 679
3 682 639 640
3 682 680 639
3 683 617 681
3 684 640 641
3 684 682 640
3 685 615 616
3 685 616 617
3 685 617 683
3 686 615 685
3 687 641 642
3 687 684 641
3 688 614 615
3 688 615 686
3 689 687 642
3 689 642 643
3 689 643 644
3 690 613 614
3 690 614 688
3 691 689 644
3 692 611 612
3 692 612 613
3 692 613 690
3 693 691 644
3 693 644 645
3 694 611 692
3 695 693 645
3 695 645 646
3 696 611 694
3 696 610 611
3 697 646 647
3 697 695 646
3 698 610 696
3 698 609 610
3 699 697 647
3 699 647 648
3 700 609 698
3 700 608 609
3 701 699 648
3 701 648 649
3 702 701 649
3 607 700 703
3 607 608 700
3 650 702 649
3 704 607 703
3 705 702 650
3 606 607 704
3 651 705 650
3 605 704 706
3 605 606 704
3 652 705 651
3 652 707 705
3 604 706 708
3 604 605 706
3 653 709 707
3 653 707 652
3 603 708 710
3 603 604 708
3 654 709 653
3 654 711 709
3 602 712 713
3 602 710 712
3 602 603 710
3 655 714 711
3 655 711 654
3 601 602 713
3 656 715 714
3 656 714 655
3 600 713 716
3 600 601 713
3 657 717 715
3 657 715 656
3 599 600 716
3 599 718 719
3 599 716 718
3 658 720 717
3 658 721 720
3 658 717 657
3 598 599 719
3 659 721 658
3 597 719 722
3 597 598 719
3 577 721 659
3 577 723 721
3 577 724 723
3 596 597 722
3 596 722 725
3 576 724 577
3 576 726 724
3 595 725 727
3 595 596 725
3 578 726 576
3 594 727 728
3 594 595 727
3 579 726 578
3 579 729 726
3 593 728 730
3 593 594 728
3 580 729 579
3 580 731 729
3 580 732 731
3 592 730 733
3 592 593 730
3 581 732 580
3 591 592 733
3 591 734 735
3 591 733 734
3 582 732 581
3 582 736 732
3 583 736 582
3 583 737 736
3 583 738 737
3 590 591 735
3 589 590 735
3 589 735 739
3 584 738 583
3 585 738 584
3 585 740 738
3 588 589 739
3 588 739 741
3 586 742 740
3 586 740 585
3 587 743 742
3 587 741 743
3 587 742 586
3 587 588 741
3 724 744 723
3 724 745 744
3 724 746 745
3 726 746 724
3 729 746 726
3 729 747 746
3 729 748 747
3 731 749 748
3 731 748 729
3 732 749 731
3 736 750 749
3 736 749 732
3 737 751 750
3 737 752 751
3 737 750 736
3 738 752 737
3 740 752 738
3 740 753 752
3 742 753 740
3 742 754 753
3 743 754 742
3 743 755 754
3 741 755 743
3 741 756 755
3 739 756 741
3 739 757 756
3 735 757 739
3 735 758 757
3 734 758 735
3 734 759 758
3 733 760 759
3 733 759 734
3 730 761 760
3 730 760 733
3 728 762 761
3 728 761 730
3 727 763 762
3 727 762 728
3 725 764 763
3 725 763 727
3 722 765 764
3 722 764 725
3 719 766 765
3 719 767 766
3 719 765 722
3 718 767 719
3 716 768 767
3 716 767 718
3 713 769 768
3 713 768 716
3 712 770 769
3 712 771 770
3 712 769 713
3 710 771 712
3 708 772 771
3 708 771 710
3 706 773 772
3 706 772 708
3 704 774 773
3 704 773 706
3 703 775 774
3 703 774 704
3 700 775 703
3 700 776 775
3 698 776 700
3 698 777 776
3 696 777 698
3 696 778 777
3 694 778 696
3 694 779 778
3 692 779 694
3 692 780 779
3 692 781 780
3 690 781 692
3 688 782 781
3 688 781 690
3 686 783 782
3 686 782 688
3 685 784 783
3 685 785 784
3 685 783 686
3 683 785 685
3 681 786 785
3 681 785 683
3 679 787 786
3 679 788 787
3 679 786 681
3 677 788 679
3 675 789 788
3 675 790 789
3 675 788 677
3 673 790 675
3 671 791 790
3 671 792 791
3 671 790 673
3 669 792 671
3 667 793 792
3 667 792 669
3 665 794 793
3 665 793 667
3 663 795 794
3 663 796 795
3 663 794 665
3 661 797 796
3 661 796 663
3 660 798 797
3 660 797 661
3 662 798 660
3 664 799 798
3 664 800 799
3 664 798 662
3 666 800 664
3 668 800 666
3 668 801 800
3 670 801 668
3 670 802 801
3 672 802 670
3 672 803 802
3 672 804 803
3 674 804 672
3 674 805 804
3 676 805 674
3 678 805 676
3 678 806 805
3 680 806 678
3 680 807 806
3 682 807 680
3 682 808 807
3 684 808 682
3 684 809 808
3 687 809 684
3 687 810 809
3 687 811 810
3 689 811 687
3 691 811 689
3 691 812 811
3 693 812 691
3 693 813 812
3 693 814 813
3 695 814 693
3 695 815 814
3 697 815 695
3 699 816 815
3 699 817 816
3 699 815 697
3 701 817 699
3 702 818 817
3 702 817 701
3 705 819 818
3 705 820 819
3 705 818 702
3 707 820 705
3 709 821 820
3 709 822 821
3 709 820 707
3 711 822 709
3 711 823 822
3 714 823 711
3 715 824 823
3 715 825 824
3 715 823 714
3 717 825 715
3 720 826 825
3 720 825 717
3 721 826 720
3 721 827 826
3 721 744 827
3 723 744 721
3 798 796 797
3 799 796 798
3 794 795 796
3 793 794 796
3 801 799 800
3 791 792 793
3 788 789 790
3 788 790 791
3 805 802 803
3 805 803 804
3 807 805 806
3 784 791 793
3 784 788 791
3 784 785 786
3 784 786 787
3 784 787 788
3 810 805 807
3 810 807 808
3 810 808 809
3 781 782 783
3 779 780 781
3 777 778 779
3 777 779 781
3 816 810 811
3 816 811 812
3 816 812 813
3 816 813 814
3 816 814 815
3 776 793 796
3 776 781 783
3 776 784 793
3 776 783 784
3 776 777 781
3 817 810 816
3 774 775 776
3 820 817 818
3 820 818 819
3 771 772 773
3 771 773 774
3 771 774 776
3 823 821 822
3 824 821 823
3 768 802 805
3 768 805 810
3 768 769 770
3 768 770 771
3 768 776 796
3 768 801 802
3 768 771 776
3 768 796 799
3 768 799 801
3 826 821 824
3 826 820 821
3 826 824 825
3 765 766 767
3 744 820 826
3 744 826 827
3 764 765 767
3 764 767 768
3 746 744 745
3 746 820 744
3 762 763 764
3 761 764 768
3 761 762 764
3 748 746 747
3 759 760 761
3 751 748 749
3 751 749 750
3 751 746 748
3 752 746 751
3 752 820 746
3 756 757 758
3 756 758 759
3 756 761 768
3 756 759 761
3 756 810 817
3 756 768 810
3 755 820 752
3 755 756 817
3 755 817 820
3 754 752 753
3 754 755 752
3 154 2 63
3 154 0 2
