# https://github.com/mikedh/trimesh

o fit_coupon.stl
v -52.50000000 -34.00000000 3.00000000
v -52.50000000 34.00000000 0.00000000
v -52.50000000 -34.00000000 0.00000000
v -52.50000000 34.00000000 3.00000000
v -33.67288208 -24.08827591 0.00000000
v -33.58827591 -24.17288208 0.00000000
v -33.29999924 -26.00000000 0.00000000
v -33.75093079 -23.99758339 0.00000000
v -33.49758530 -24.25093079 0.00000000
v -33.82198334 -23.90131187 0.00000000
v -33.40131378 -24.32198143 0.00000000
v -33.88563919 -23.79999924 0.00000000
v -33.29999924 -24.38564110 0.00000000
v -33.94155121 -23.69421387 0.00000000
v -33.98939896 -23.58454514 0.00000000
v -34.02891541 -23.47160912 0.00000000
v -34.05988312 -23.35603333 0.00000000
v -34.08213043 -23.23846817 0.00000000
v -34.09552765 -23.11956787 0.00000000
v -34.09999847 -23.00000000 0.00000000
v -34.09552765 -22.88043213 0.00000000
v -34.08213043 -22.76153183 0.00000000
v -34.05988312 -22.64396667 0.00000000
v -34.02891541 -22.52839088 0.00000000
v -33.98939896 -22.41545486 0.00000000
v -33.29999924 -20.00000000 0.00000000
v -33.29999924 -21.61435890 0.00000000
v -33.40131378 -21.67801857 0.00000000
v -33.49758530 -21.74906921 0.00000000
v -33.58827591 -21.82711792 0.00000000
v -33.67288208 -21.91172409 0.00000000
v -33.75093079 -22.00241661 0.00000000
v -33.82198334 -22.09868813 0.00000000
v -33.88563919 -22.20000076 0.00000000
v -33.94155121 -22.30578613 0.00000000
v -16.70000076 -26.00000000 0.00000000
v -16.59868813 -24.32198143 0.00000000
v -16.70000076 -24.38564110 0.00000000
v -16.50241661 -24.25093079 0.00000000
v -16.41172409 -24.17288208 0.00000000
v -16.32711792 -24.08827591 0.00000000
v -16.24906921 -23.99758339 0.00000000
v -16.17801857 -23.90131187 0.00000000
v -16.11435890 -23.79999924 0.00000000
v -16.05845070 -23.69421387 0.00000000
v -16.01060295 -23.58454514 0.00000000
v -15.97108364 -23.47160912 0.00000000
v -16.70000076 -20.00000000 0.00000000
v -15.97108364 -22.52839088 0.00000000
v -16.01060295 -22.41545486 0.00000000
v -16.05845070 -22.30578613 0.00000000
v -16.11435890 -22.20000076 0.00000000
v -16.17801857 -22.09868813 0.00000000
v -16.24906921 -22.00241661 0.00000000
v -16.32711792 -21.91172409 0.00000000
v -16.41172409 -21.82711792 0.00000000
v -16.50241661 -21.74906921 0.00000000
v -16.59868813 -21.67801857 0.00000000
v -16.70000076 -21.61435890 0.00000000
v 7.15000010 8.55000019 0.00000000
v -15.90447426 -22.88043213 0.00000000
v -15.91787052 -22.76153183 0.00000000
v -15.94011497 -22.64396667 0.00000000
v 52.50000000 -34.00000000 0.00000000
v -15.94011497 -23.35603333 0.00000000
v -15.91787052 -23.23846817 0.00000000
v 7.15000010 21.45000076 0.00000000
v 38.29999924 -1.20000005 0.00000000
v -15.90447426 -23.11956787 0.00000000
v -15.89999962 -23.00000000 0.00000000
v 30.85000038 8.55000019 0.00000000
v 45.70000076 -1.20000005 0.00000000
v 38.29999924 23.20000076 0.00000000
v 30.85000038 21.45000076 0.00000000
v 52.50000000 34.00000000 0.00000000
v 45.70000076 23.20000076 0.00000000
v 45.70000076 23.20000076 3.00000000
v 45.70000076 -1.20000005 3.00000000
v 38.29999924 23.20000076 3.00000000
v 38.29999924 -1.20000005 3.00000000
v 30.85000038 8.55000019 3.00000000
v 30.85000038 21.45000076 3.00000000
v 7.15000010 21.45000076 3.00000000
v 7.15000010 8.55000019 3.00000000
v -16.70000076 -24.38564110 0.80000001
v -16.59868813 -24.32198143 0.80000001
v -16.50241661 -24.25093079 0.80000001
v -16.41172409 -24.17288208 0.80000001
v -16.32711792 -24.08827591 0.80000001
v -16.24906921 -23.99758339 0.80000001
v -16.17801857 -23.90131187 0.80000001
v -16.11435890 -23.79999924 0.80000001
v -16.05845070 -23.69421387 0.80000001
v -16.01060295 -23.58454514 0.80000001
v -15.97108364 -23.47160912 0.80000001
v -15.94011497 -23.35603333 0.80000001
v -15.91787052 -23.23846817 0.80000001
v -15.90447426 -23.11956787 0.80000001
v -15.89999962 -23.00000000 0.80000001
v -15.90447426 -22.88043213 0.80000001
v -15.91787052 -22.76153183 0.80000001
v -15.94011497 -22.64396667 0.80000001
v -15.97108364 -22.52839088 0.80000001
v -16.01060295 -22.41545486 0.80000001
v -16.05845070 -22.30578613 0.80000001
v -16.11435890 -22.20000076 0.80000001
v -16.17801857 -22.09868813 0.80000001
v -16.24906921 -22.00241661 0.80000001
v -16.32711792 -21.91172409 0.80000001
v -16.41172409 -21.82711792 0.80000001
v -16.50241661 -21.74906921 0.80000001
v -16.59868813 -21.67801857 0.80000001
v -16.70000076 -21.61435890 0.80000001
v -33.67288208 -24.08827591 0.80000001
v -35.79999924 -27.29999924 0.80000001
v -33.29999924 -26.00000000 0.80000001
v -33.58827591 -24.17288208 0.80000001
v -33.49758530 -24.25093079 0.80000001
v -33.75093079 -23.99758339 0.80000001
v -33.40131378 -24.32198143 0.80000001
v -33.82198334 -23.90131187 0.80000001
v -33.29999924 -24.38564110 0.80000001
v -33.88563919 -23.79999924 0.80000001
v -33.94155121 -23.69421387 0.80000001
v -33.98939896 -23.58454514 0.80000001
v -34.02891541 -23.47160912 0.80000001
v -34.05988312 -23.35603333 0.80000001
v -34.08213043 -23.23846817 0.80000001
v -34.09552765 -23.11956787 0.80000001
v -34.09999847 -23.00000000 0.80000001
v -35.79999924 -18.70000076 0.80000001
v -33.75093079 -22.00241661 0.80000001
v -33.67288208 -21.91172409 0.80000001
v -33.82198334 -22.09868813 0.80000001
v -33.88563919 -22.20000076 0.80000001
v -33.94155121 -22.30578613 0.80000001
v -33.98939896 -22.41545486 0.80000001
v -34.02891541 -22.52839088 0.80000001
v -34.05988312 -22.64396667 0.80000001
v -34.08213043 -22.76153183 0.80000001
v -34.09552765 -22.88043213 0.80000001
v -33.29999924 -20.00000000 0.80000001
v -33.40131378 -21.67801857 0.80000001
v -33.29999924 -21.61435890 0.80000001
v -33.49758530 -21.74906921 0.80000001
v -33.58827591 -21.82711792 0.80000001
v -14.19999981 -27.29999924 0.80000001
v -16.70000076 -26.00000000 0.80000001
v -16.70000076 -20.00000000 0.80000001
v -14.19999981 -18.70000076 0.80000001
v -14.19999981 -18.70000076 3.00000000
v -35.79999924 -18.70000076 3.00000000
v -14.19999981 -27.29999924 3.00000000
v -35.79999924 -27.29999924 3.00000000
v 52.50000000 -34.00000000 3.00000000
v 52.50000000 34.00000000 3.00000000
v -44.39408875 -7.28362751 3.00000000
v -43.28362656 -8.39408970 3.00000000
v -42.09328461 -9.41846085 3.00000000
v -45.41846085 -6.09328604 3.00000000
v -40.82971954 -10.35101414 3.00000000
v -46.35101318 -4.82972145 3.00000000
v -39.50000000 -11.18653393 3.00000000
v -47.18653488 -3.50000000 3.00000000
v -38.11155701 -11.92034626 3.00000000
v -47.92034531 -2.11155844 3.00000000
v -36.67216110 -12.54834843 3.00000000
v -48.54834747 -0.67216152 3.00000000
v -35.18985748 -13.06702900 3.00000000
v -49.06702805 0.81014132 3.00000000
v -33.67293930 -13.47348595 3.00000000
v -49.47348785 2.32706046 3.00000000
v -32.12988663 -13.76544762 3.00000000
v -49.76544571 3.87011242 3.00000000
v -30.56933212 -13.94127941 3.00000000
v -49.94128036 5.43066788 3.00000000
v -29.00000000 -14.00000000 3.00000000
v -27.43066788 -13.94127941 3.00000000
v -22.81014061 -13.06702900 3.00000000
v -24.32706070 -13.47348595 3.00000000
v -21.32783890 -12.54834843 3.00000000
v -19.88844109 -11.92034626 3.00000000
v -18.50000000 -11.18653393 3.00000000
v -17.17027855 -10.35101414 3.00000000
v -15.90671444 -9.41846085 3.00000000
v -14.71637249 -8.39408970 3.00000000
v -13.60591030 -7.28362751 3.00000000
v 4.01448011 -24.45085716 3.00000000
v 3.54914355 -23.98551941 3.00000000
v 3.11988306 -23.48670959 3.00000000
v 4.51328993 -24.88011742 3.00000000
v 5.04278326 -25.27090073 3.00000000
v 2.72909880 -22.95721626 3.00000000
v 5.59999990 -25.62102318 3.00000000
v 2.37897635 -22.39999962 3.00000000
v 6.18182325 -25.92852592 3.00000000
v 2.07147408 -21.81817627 3.00000000
v 6.78499889 -26.19168854 3.00000000
v 1.80831099 -21.21500015 3.00000000
v 7.40615463 -26.40904045 3.00000000
v 1.59095931 -20.59384537 3.00000000
v 8.04181576 -26.57936478 3.00000000
v 1.42063439 -19.95818329 3.00000000
v -43.28362656 22.39408875 3.00000000
v -42.09328461 23.41846085 3.00000000
v -44.39408875 21.28362656 3.00000000
v -45.41846085 20.09328651 3.00000000
v -46.35101318 18.82972145 3.00000000
v -47.18653488 17.50000000 3.00000000
v -47.92034531 16.11155891 3.00000000
v -48.54834747 14.67216110 3.00000000
v -49.06702805 13.18985844 3.00000000
v -49.47348785 11.67293930 3.00000000
v -49.76544571 10.12988758 3.00000000
v -49.94128036 8.56933212 3.00000000
v -50.00000000 7.00000000 3.00000000
v 8.68842793 -26.70171165 3.00000000
v 1.29828870 -19.31157112 3.00000000
v 9.34237480 -26.77539253 3.00000000
v 1.22460663 -18.65762520 3.00000000
v 1.20000005 -18.00000000 3.00000000
v -40.82971954 24.35101509 3.00000000
v 1.22460663 -17.34237480 3.00000000
v 1.29828870 -16.68842888 3.00000000
v 1.42063439 -16.04181671 3.00000000
v -39.50000000 25.18653297 3.00000000
v 1.59095931 -15.40615463 3.00000000
v -12.58153915 -6.09328604 3.00000000
v 1.80831099 -14.78499889 3.00000000
v -38.11155701 25.92034531 3.00000000
v 2.07147408 -14.18182278 3.00000000
v -11.64898586 -4.82972145 3.00000000
v 2.37897635 -13.60000038 3.00000000
v 2.72909880 -13.04278374 3.00000000
v -10.81346607 -3.50000000 3.00000000
v -36.67216110 26.54834938 3.00000000
v 3.11988306 -12.51328945 3.00000000
v 3.54914355 -12.01447964 3.00000000
v -10.07965374 -2.11155844 3.00000000
v -35.18985748 27.06702805 3.00000000
v 4.01448011 -11.54914379 3.00000000
v -9.45165157 -0.67216152 3.00000000
v 4.51328993 -11.11988258 3.00000000
v -33.67293930 27.47348595 3.00000000
v 5.04278326 -10.72909832 3.00000000
v -8.93297100 0.81014132 3.00000000
v 5.59999990 -10.37897682 3.00000000
v -32.12988663 27.76544762 3.00000000
v 6.18182325 -10.07147408 3.00000000
v -8.52651405 2.32706046 3.00000000
v -30.56933212 27.94128036 3.00000000
v -29.00000000 28.00000000 3.00000000
v 13.21500111 -9.80831146 3.00000000
v 13.81817722 -10.07147408 3.00000000
v 12.59384537 -9.59095955 3.00000000
v 11.95818424 -9.42063427 3.00000000
v 11.31157207 -9.29828835 3.00000000
v 10.65762520 -9.22460651 3.00000000
v 10.00000000 -9.19999981 3.00000000
v 9.34237480 -9.22460651 3.00000000
v 8.68842793 -9.29828835 3.00000000
v 8.04181576 -9.42063427 3.00000000
v 7.40615463 -9.59095955 3.00000000
v 6.78499889 -9.80831146 3.00000000
v -8.23455238 3.87011242 3.00000000
v -8.05872059 5.43066788 3.00000000
v -8.00000000 7.00000000 3.00000000
v -8.05872059 8.56933212 3.00000000
v -8.23455238 10.12988758 3.00000000
v -8.52651405 11.67293930 3.00000000
v -8.93297100 13.18985844 3.00000000
v 10.00000000 -26.79999924 3.00000000
v 10.65762520 -26.77539253 3.00000000
v 11.31157207 -26.70171165 3.00000000
v 11.95818424 -26.57936478 3.00000000
v 12.59384537 -26.40904045 3.00000000
v 13.21500111 -26.19168854 3.00000000
v 13.81817722 -25.92852592 3.00000000
v 14.39999962 -25.62102318 3.00000000
v 14.95721626 -25.27090073 3.00000000
v 15.48671055 -24.88011742 3.00000000
v 15.98552036 -24.45085716 3.00000000
v 16.45085716 -23.98551941 3.00000000
v 16.88011742 -23.48670959 3.00000000
v 17.27090073 -22.95721626 3.00000000
v 17.62102318 -22.39999962 3.00000000
v 17.92852592 -21.81817627 3.00000000
v 18.19168854 -21.21500015 3.00000000
v 18.40904045 -20.59384537 3.00000000
v 18.57936478 -19.95818329 3.00000000
v 18.70171165 -19.31157112 3.00000000
v 18.77539253 -18.65762520 3.00000000
v -12.58153915 20.09328651 3.00000000
v -11.64898586 18.82972145 3.00000000
v -13.60591030 21.28362656 3.00000000
v -14.71637249 22.39408875 3.00000000
v -15.90671444 23.41846085 3.00000000
v -17.17027855 24.35101509 3.00000000
v -18.50000000 25.18653297 3.00000000
v -19.88844109 25.92034531 3.00000000
v -9.45165157 14.67216110 3.00000000
v -10.07965374 16.11155891 3.00000000
v -10.81346607 17.50000000 3.00000000
v 18.77539253 -17.34237480 3.00000000
v 18.79999924 -18.00000000 3.00000000
v 18.70171165 -16.68842888 3.00000000
v 18.57936478 -16.04181671 3.00000000
v 18.40904045 -15.40615463 3.00000000
v 18.19168854 -14.78499889 3.00000000
v 17.92852592 -14.18182278 3.00000000
v 17.62102318 -13.60000038 3.00000000
v 17.27090073 -13.04278374 3.00000000
v 16.88011742 -12.51328945 3.00000000
v 16.45085716 -12.01447964 3.00000000
v 15.98552036 -11.54914379 3.00000000
v 15.48671055 -11.11988258 3.00000000
v 14.95721626 -10.72909832 3.00000000
v 14.39999962 -10.37897682 3.00000000
v -27.43066788 27.94128036 3.00000000
v -25.87011147 27.76544762 3.00000000
v -24.32706070 27.47348595 3.00000000
v -22.81014061 27.06702805 3.00000000
v -21.32783890 26.54834938 3.00000000
v -25.87011147 -13.76544762 3.00000000
v -8.05872059 8.56933212 10.00000000
v -8.00000000 7.00000000 10.00000000
v -8.23455238 10.12988758 10.00000000
v -8.52651405 11.67293930 10.00000000
v -8.93297100 13.18985844 10.00000000
v -9.45165157 14.67216110 10.00000000
v -10.07965374 16.11155891 10.00000000
v -10.81346607 17.50000000 10.00000000
v -11.64898586 18.82972145 10.00000000
v -12.58153915 20.09328651 10.00000000
v -13.60591030 21.28362656 10.00000000
v -14.71637249 22.39408875 10.00000000
v -15.90671444 23.41846085 10.00000000
v -17.17027855 24.35101509 10.00000000
v -18.50000000 25.18653297 10.00000000
v -19.88844109 25.92034531 10.00000000
v -21.32783890 26.54834938 10.00000000
v -22.81014061 27.06702805 10.00000000
v -24.32706070 27.47348595 10.00000000
v -25.87011147 27.76544762 10.00000000
v -27.43066788 27.94128036 10.00000000
v -29.00000000 28.00000000 10.00000000
v -30.56933212 27.94128036 10.00000000
v -32.12988663 27.76544762 10.00000000
v -33.67293930 27.47348595 10.00000000
v -35.18985748 27.06702805 10.00000000
v -36.67216110 26.54834938 10.00000000
v -38.11155701 25.92034531 10.00000000
v -39.50000000 25.18653297 10.00000000
v -40.82971954 24.35101509 10.00000000
v -42.09328461 23.41846085 10.00000000
v -43.28362656 22.39408875 10.00000000
v -44.39408875 21.28362656 10.00000000
v -45.41846085 20.09328651 10.00000000
v -46.35101318 18.82972145 10.00000000
v -47.18653488 17.50000000 10.00000000
v -47.92034531 16.11155891 10.00000000
v -48.54834747 14.67216110 10.00000000
v -49.06702805 13.18985844 10.00000000
v -49.47348785 11.67293930 10.00000000
v -49.76544571 10.12988758 10.00000000
v -49.94128036 8.56933212 10.00000000
v -50.00000000 7.00000000 10.00000000
v -49.94128036 5.43066788 10.00000000
v -49.76544571 3.87011242 10.00000000
v -49.47348785 2.32706046 10.00000000
v -49.06702805 0.81014132 10.00000000
v -48.54834747 -0.67216152 10.00000000
v -47.92034531 -2.11155844 10.00000000
v -47.18653488 -3.50000000 10.00000000
v -46.35101318 -4.82972145 10.00000000
v -45.41846085 -6.09328604 10.00000000
v -44.39408875 -7.28362751 10.00000000
v -43.28362656 -8.39408970 10.00000000
v -42.09328461 -9.41846085 10.00000000
v -40.82971954 -10.35101414 10.00000000
v -39.50000000 -11.18653393 10.00000000
v -38.11155701 -11.92034626 10.00000000
v -36.67216110 -12.54834843 10.00000000
v -35.18985748 -13.06702900 10.00000000
v -33.67293930 -13.47348595 10.00000000
v -32.12988663 -13.76544762 10.00000000
v -30.56933212 -13.94127941 10.00000000
v -29.00000000 -14.00000000 10.00000000
v -27.43066788 -13.94127941 10.00000000
v -25.87011147 -13.76544762 10.00000000
v -24.32706070 -13.47348595 10.00000000
v -22.81014061 -13.06702900 10.00000000
v -21.32783890 -12.54834843 10.00000000
v -19.88844109 -11.92034626 10.00000000
v -18.50000000 -11.18653393 10.00000000
v -17.17027855 -10.35101414 10.00000000
v -15.90671444 -9.41846085 10.00000000
v -14.71637249 -8.39408970 10.00000000
v -13.60591030 -7.28362751 10.00000000
v -12.58153915 -6.09328604 10.00000000
v -11.64898586 -4.82972145 10.00000000
v -10.81346607 -3.50000000 10.00000000
v -10.07965374 -2.11155844 10.00000000
v -9.45165157 -0.67216152 10.00000000
v -8.93297100 0.81014132 10.00000000
v -8.52651405 2.32706046 10.00000000
v -8.23455238 3.87011242 10.00000000
v -8.05872059 5.43066788 10.00000000
v -42.67141724 -5.68522167 10.00000000
v -41.68522263 -6.67141724 10.00000000
v -40.62808609 -7.58115721 10.00000000
v -43.58115768 -4.62808466 10.00000000
v -39.50592041 -8.40935326 10.00000000
v -44.40935135 -3.50591898 10.00000000
v -38.32500076 -9.15137386 10.00000000
v -45.15137482 -2.32500005 10.00000000
v -37.09193039 -9.80306911 10.00000000
v -45.80307007 -1.09193170 10.00000000
v -35.81361008 -10.36079502 10.00000000
v -46.36079407 0.18638989 10.00000000
v -34.49718475 -10.82143307 10.00000000
v -46.82143402 1.50281596 10.00000000
v -33.15001678 -11.18240547 10.00000000
v -47.18240738 2.84998465 10.00000000
v -31.77963829 -11.44169521 10.00000000
v -47.44169617 4.22036171 10.00000000
v -30.39371681 -11.59785080 10.00000000
v -47.59785080 5.60628366 10.00000000
v -29.00000000 -11.64999962 10.00000000
v -47.65000153 7.00000000 10.00000000
v -27.60628319 -11.59785080 10.00000000
v -47.59785080 8.39371586 10.00000000
v -26.22036171 -11.44169521 10.00000000
v -47.44169617 9.77963829 10.00000000
v -47.18240738 11.15001583 10.00000000
v -24.84998512 -11.18240547 10.00000000
v -46.82143402 12.49718380 10.00000000
v -23.50281525 -10.82143307 10.00000000
v -46.36079407 13.81361008 10.00000000
v -22.18638992 -10.36079502 10.00000000
v -45.80307007 15.09193134 10.00000000
v -20.90806770 -9.80306911 10.00000000
v -45.15137482 16.32500076 10.00000000
v -19.67499924 -9.15137386 10.00000000
v -44.40935135 17.50591850 10.00000000
v -18.49408150 -8.40935326 10.00000000
v -43.58115768 18.62808418 10.00000000
v -17.37191582 -7.58115721 10.00000000
v -42.67141724 19.68522072 10.00000000
v -16.31477928 -6.67141724 10.00000000
v -41.68522263 20.67141724 10.00000000
v -15.32858276 -5.68522167 10.00000000
v -40.62808609 21.58115768 10.00000000
v -14.41884327 -4.62808466 10.00000000
v -39.50592041 22.40935326 10.00000000
v -13.59064674 -3.50591898 10.00000000
v -38.32500076 23.15137291 10.00000000
v -12.84862614 -2.32500005 10.00000000
v -12.19693089 -1.09193170 10.00000000
v -37.09193039 23.80307007 10.00000000
v -35.81361008 24.36079597 10.00000000
v -11.63920498 0.18638989 10.00000000
v -34.49718475 24.82143211 10.00000000
v -11.17856693 1.50281596 10.00000000
v -33.15001678 25.18240547 10.00000000
v -10.81759453 2.84998465 10.00000000
v -31.77963829 25.44169426 10.00000000
v -10.55830479 4.22036171 10.00000000
v -30.39371681 25.59785080 10.00000000
v -10.40214920 5.60628366 10.00000000
v -29.00000000 25.64999962 10.00000000
v -27.60628319 25.59785080 10.00000000
v -10.35000038 7.00000000 10.00000000
v -10.40214920 8.39371586 10.00000000
v -10.55830479 9.77963829 10.00000000
v -26.22036171 25.44169426 10.00000000
v -10.81759453 11.15001583 10.00000000
v -24.84998512 25.18240547 10.00000000
v -23.50281525 24.82143211 10.00000000
v -22.18638992 24.36079597 10.00000000
v -11.17856693 12.49718380 10.00000000
v -11.63920498 13.81361008 10.00000000
v -20.90806770 23.80307007 10.00000000
v -19.67499924 23.15137291 10.00000000
v -12.19693089 15.09193134 10.00000000
v -12.84862614 16.32500076 10.00000000
v -13.59064674 17.50591850 10.00000000
v -18.49408150 22.40935326 10.00000000
v -17.37191582 21.58115768 10.00000000
v -14.41884327 18.62808418 10.00000000
v -15.32858276 19.68522072 10.00000000
v -16.31477928 20.67141724 10.00000000
v -10.35000038 7.00000000 3.00000000
v -10.40214920 8.39371586 3.00000000
v -10.55830479 9.77963829 3.00000000
v -10.81759453 11.15001583 3.00000000
v -11.17856693 12.49718380 3.00000000
v -11.63920498 13.81361008 3.00000000
v -12.19693089 15.09193134 3.00000000
v -12.84862614 16.32500076 3.00000000
v -13.59064674 17.50591850 3.00000000
v -14.41884327 18.62808418 3.00000000
v -15.32858276 19.68522072 3.00000000
v -16.31477928 20.67141724 3.00000000
v -17.37191582 21.58115768 3.00000000
v -18.49408150 22.40935326 3.00000000
v -19.67499924 23.15137291 3.00000000
v -20.90806770 23.80307007 3.00000000
v -22.18638992 24.36079597 3.00000000
v -23.50281525 24.82143211 3.00000000
v -24.84998512 25.18240547 3.00000000
v -26.22036171 25.44169426 3.00000000
v -27.60628319 25.59785080 3.00000000
v -29.00000000 25.64999962 3.00000000
v -30.39371681 25.59785080 3.00000000
v -31.77963829 25.44169426 3.00000000
v -33.15001678 25.18240547 3.00000000
v -34.49718475 24.82143211 3.00000000
v -35.81361008 24.36079597 3.00000000
v -37.09193039 23.80307007 3.00000000
v -38.32500076 23.15137291 3.00000000
v -39.50592041 22.40935326 3.00000000
v -40.62808609 21.58115768 3.00000000
v -41.68522263 20.67141724 3.00000000
v -42.67141724 19.68522072 3.00000000
v -43.58115768 18.62808418 3.00000000
v -44.40935135 17.50591850 3.00000000
v -45.15137482 16.32500076 3.00000000
v -45.80307007 15.09193134 3.00000000
v -46.36079407 13.81361008 3.00000000
v -46.82143402 12.49718380 3.00000000
v -47.18240738 11.15001583 3.00000000
v -47.44169617 9.77963829 3.00000000
v -47.59785080 8.39371586 3.00000000
v -47.65000153 7.00000000 3.00000000
v -47.59785080 5.60628366 3.00000000
v -47.44169617 4.22036171 3.00000000
v -47.18240738 2.84998465 3.00000000
v -46.82143402 1.50281596 3.00000000
v -46.36079407 0.18638989 3.00000000
v -45.80307007 -1.09193170 3.00000000
v -45.15137482 -2.32500005 3.00000000
v -44.40935135 -3.50591898 3.00000000
v -43.58115768 -4.62808466 3.00000000
v -42.67141724 -5.68522167 3.00000000
v -41.68522263 -6.67141724 3.00000000
v -40.62808609 -7.58115721 3.00000000
v -39.50592041 -8.40935326 3.00000000
v -38.32500076 -9.15137386 3.00000000
v -37.09193039 -9.80306911 3.00000000
v -35.81361008 -10.36079502 3.00000000
v -34.49718475 -10.82143307 3.00000000
v -33.15001678 -11.18240547 3.00000000
v -31.77963829 -11.44169521 3.00000000
v -30.39371681 -11.59785080 3.00000000
v -29.00000000 -11.64999962 3.00000000
v -27.60628319 -11.59785080 3.00000000
v -26.22036171 -11.44169521 3.00000000
v -24.84998512 -11.18240547 3.00000000
v -23.50281525 -10.82143307 3.00000000
v -22.18638992 -10.36079502 3.00000000
v -20.90806770 -9.80306911 3.00000000
v -19.67499924 -9.15137386 3.00000000
v -18.49408150 -8.40935326 3.00000000
v -17.37191582 -7.58115721 3.00000000
v -16.31477928 -6.67141724 3.00000000
v -15.32858276 -5.68522167 3.00000000
v -14.41884327 -4.62808466 3.00000000
v -13.59064674 -3.50591898 3.00000000
v -12.84862614 -2.32500005 3.00000000
v -12.19693089 -1.09193170 3.00000000
v -11.63920498 0.18638989 3.00000000
v -11.17856693 1.50281596 3.00000000
v -10.81759453 2.84998465 3.00000000
v -10.55830479 4.22036171 3.00000000
v -10.40214920 5.60628366 3.00000000
v 18.77539253 -17.34237480 10.00000000
v 18.79999924 -18.00000000 10.00000000
v 18.70171165 -16.68842888 10.00000000
v 18.57936478 -16.04181671 10.00000000
v 18.40904045 -15.40615463 10.00000000
v 18.19168854 -14.78499889 10.00000000
v 17.92852592 -14.18182278 10.00000000
v 17.62102318 -13.60000038 10.00000000
v 17.27090073 -13.04278374 10.00000000
v 16.88011742 -12.51328945 10.00000000
v 16.45085716 -12.01447964 10.00000000
v 15.98552036 -11.54914379 10.00000000
v 15.48671055 -11.11988258 10.00000000
v 14.95721626 -10.72909832 10.00000000
v 14.39999962 -10.37897682 10.00000000
v 13.81817722 -10.07147408 10.00000000
v 13.21500111 -9.80831146 10.00000000
v 12.59384537 -9.59095955 10.00000000
v 11.95818424 -9.42063427 10.00000000
v 11.31157207 -9.29828835 10.00000000
v 10.65762520 -9.22460651 10.00000000
v 10.00000000 -9.19999981 10.00000000
v 9.34237480 -9.22460651 10.00000000
v 8.68842793 -9.29828835 10.00000000
v 8.04181576 -9.42063427 10.00000000
v 7.40615463 -9.59095955 10.00000000
v 6.78499889 -9.80831146 10.00000000
v 6.18182325 -10.07147408 10.00000000
v 5.59999990 -10.37897682 10.00000000
v 5.04278326 -10.72909832 10.00000000
v 4.51328993 -11.11988258 10.00000000
v 4.01448011 -11.54914379 10.00000000
v 3.54914355 -12.01447964 10.00000000
v 3.11988306 -12.51328945 10.00000000
v 2.72909880 -13.04278374 10.00000000
v 2.37897635 -13.60000038 10.00000000
v 2.07147408 -14.18182278 10.00000000
v 1.80831099 -14.78499889 10.00000000
v 1.59095931 -15.40615463 10.00000000
v 1.42063439 -16.04181671 10.00000000
v 1.29828870 -16.68842888 10.00000000
v 1.22460663 -17.34237480 10.00000000
v 1.20000005 -18.00000000 10.00000000
v 1.22460663 -18.65762520 10.00000000
v 1.29828870 -19.31157112 10.00000000
v 1.42063439 -19.95818329 10.00000000
v 1.59095931 -20.59384537 10.00000000
v 1.80831099 -21.21500015 10.00000000
v 2.07147408 -21.81817627 10.00000000
v 2.37897635 -22.39999962 10.00000000
v 2.72909880 -22.95721626 10.00000000
v 3.11988306 -23.48670959 10.00000000
v 3.54914355 -23.98551941 10.00000000
v 4.01448011 -24.45085716 10.00000000
v 4.51328993 -24.88011742 10.00000000
v 5.04278326 -25.27090073 10.00000000
v 5.59999990 -25.62102318 10.00000000
v 6.18182325 -25.92852592 10.00000000
v 6.78499889 -26.19168854 10.00000000
v 7.40615463 -26.40904045 10.00000000
v 8.04181576 -26.57936478 10.00000000
v 8.68842793 -26.70171165 10.00000000
v 9.34237480 -26.77539253 10.00000000
v 10.00000000 -26.79999924 10.00000000
v 10.65762520 -26.77539253 10.00000000
v 11.31157207 -26.70171165 10.00000000
v 11.95818424 -26.57936478 10.00000000
v 12.59384537 -26.40904045 10.00000000
v 13.21500111 -26.19168854 10.00000000
v 13.81817722 -25.92852592 10.00000000
v 14.39999962 -25.62102318 10.00000000
v 14.95721626 -25.27090073 10.00000000
v 15.48671055 -24.88011742 10.00000000
v 15.98552036 -24.45085716 10.00000000
v 16.45085716 -23.98551941 10.00000000
v 16.88011742 -23.48670959 10.00000000
v 17.27090073 -22.95721626 10.00000000
v 17.62102318 -22.39999962 10.00000000
v 17.92852592 -21.81817627 10.00000000
v 18.19168854 -21.21500015 10.00000000
v 18.40904045 -20.59384537 10.00000000
v 18.57936478 -19.95818329 10.00000000
v 18.70171165 -19.31157112 10.00000000
v 18.77539253 -18.65762520 10.00000000
v 5.37482548 -22.98475266 10.00000000
v 5.01524734 -22.62517548 10.00000000
v 5.76026917 -23.31645393 10.00000000
v 4.68354607 -22.23973083 10.00000000
v 6.16942358 -23.61842346 10.00000000
v 4.38157654 -21.83057594 10.00000000
v 6.59999990 -23.88897324 10.00000000
v 4.11102724 -21.39999962 10.00000000
v 7.04959059 -24.12658882 10.00000000
v 3.87341166 -20.95040894 10.00000000
v 7.51568127 -24.32994080 10.00000000
v 3.67005849 -20.48431969 10.00000000
v 7.99566460 -24.49789429 10.00000000
v 3.50210500 -20.00433540 10.00000000
v 8.48685741 -24.62950897 10.00000000
v 3.37049031 -19.51314163 10.00000000
v 8.98651218 -24.72405052 10.00000000
v 3.27595043 -19.01348686 10.00000000
v 9.49183559 -24.78098488 10.00000000
v 3.21901417 -18.50816536 10.00000000
v 10.00000000 -24.79999924 10.00000000
v 3.20000005 -18.00000000 10.00000000
v 10.50816441 -24.78098488 10.00000000
v 3.21901417 -17.49183464 10.00000000
v 11.01348782 -24.72405052 10.00000000
v 3.27595043 -16.98651314 10.00000000
v 3.37049031 -16.48685837 10.00000000
v 11.51314259 -24.62950897 10.00000000
v 3.50210500 -15.99566460 10.00000000
v 12.00433540 -24.49789429 10.00000000
v 3.67005849 -15.51568127 10.00000000
v 12.48431873 -24.32994080 10.00000000
v 3.87341166 -15.04959011 10.00000000
v 12.95040989 -24.12658882 10.00000000
v 4.11102724 -14.60000038 10.00000000
v 13.39999962 -23.88897324 10.00000000
v 4.38157654 -14.16942406 10.00000000
v 13.83057594 -23.61842346 10.00000000
v 4.68354607 -13.76026917 10.00000000
v 14.23973083 -23.31645393 10.00000000
v 5.01524734 -13.37482548 10.00000000
v 14.62517452 -22.98475266 10.00000000
v 14.98475266 -22.62517548 10.00000000
v 5.37482548 -13.01524734 10.00000000
v 5.76026917 -12.68354607 10.00000000
v 15.31645393 -22.23973083 10.00000000
v 6.16942358 -12.38157654 10.00000000
v 15.61842346 -21.83057594 10.00000000
v 6.59999990 -12.11102772 10.00000000
v 15.88897228 -21.39999962 10.00000000
v 7.04959059 -11.87341213 10.00000000
v 16.12658882 -20.95040894 10.00000000
v 7.51568127 -11.67005825 10.00000000
v 7.99566460 -11.50210476 10.00000000
v 16.32994080 -20.48431969 10.00000000
v 16.49789429 -20.00433540 10.00000000
v 8.48685741 -11.37049007 10.00000000
v 16.62950897 -19.51314163 10.00000000
v 8.98651218 -11.27595043 10.00000000
v 9.49183559 -11.21901417 10.00000000
v 16.72405052 -19.01348686 10.00000000
v 16.78098488 -18.50816536 10.00000000
v 10.00000000 -11.19999981 10.00000000
v 16.79999924 -18.00000000 10.00000000
v 16.78098488 -17.49183464 10.00000000
v 10.50816441 -11.21901417 10.00000000
v 16.72405052 -16.98651314 10.00000000
v 11.01348782 -11.27595043 10.00000000
v 11.51314259 -11.37049007 10.00000000
v 16.62950897 -16.48685837 10.00000000
v 12.00433540 -11.50210476 10.00000000
v 16.49789429 -15.99566460 10.00000000
v 16.32994080 -15.51568127 10.00000000
v 12.48431873 -11.67005825 10.00000000
v 12.95040989 -11.87341213 10.00000000
v 13.39999962 -12.11102772 10.00000000
v 16.12658882 -15.04959011 10.00000000
v 15.88897228 -14.60000038 10.00000000
v 15.61842346 -14.16942406 10.00000000
v 13.83057594 -12.38157654 10.00000000
v 15.31645393 -13.76026917 10.00000000
v 14.23973083 -12.68354607 10.00000000
v 14.98475266 -13.37482548 10.00000000
v 14.62517452 -13.01524734 10.00000000
v 16.79999924 -18.00000000 3.00000000
v 16.78098488 -17.49183464 3.00000000
v 16.72405052 -16.98651314 3.00000000
v 16.62950897 -16.48685837 3.00000000
v 16.49789429 -15.99566460 3.00000000
v 16.32994080 -15.51568127 3.00000000
v 16.12658882 -15.04959011 3.00000000
v 15.88897228 -14.60000038 3.00000000
v 15.61842346 -14.16942406 3.00000000
v 15.31645393 -13.76026917 3.00000000
v 14.98475266 -13.37482548 3.00000000
v 14.62517452 -13.01524734 3.00000000
v 14.23973083 -12.68354607 3.00000000
v 13.83057594 -12.38157654 3.00000000
v 13.39999962 -12.11102772 3.00000000
v 12.95040989 -11.87341213 3.00000000
v 12.48431873 -11.67005825 3.00000000
v 12.00433540 -11.50210476 3.00000000
v 11.51314259 -11.37049007 3.00000000
v 11.01348782 -11.27595043 3.00000000
v 10.50816441 -11.21901417 3.00000000
v 10.00000000 -11.19999981 3.00000000
v 9.49183559 -11.21901417 3.00000000
v 8.98651218 -11.27595043 3.00000000
v 8.48685741 -11.37049007 3.00000000
v 7.99566460 -11.50210476 3.00000000
v 7.51568127 -11.67005825 3.00000000
v 7.04959059 -11.87341213 3.00000000
v 6.59999990 -12.11102772 3.00000000
v 6.16942358 -12.38157654 3.00000000
v 5.76026917 -12.68354607 3.00000000
v 5.37482548 -13.01524734 3.00000000
v 5.01524734 -13.37482548 3.00000000
v 4.68354607 -13.76026917 3.00000000
v 4.38157654 -14.16942406 3.00000000
v 4.11102724 -14.60000038 3.00000000
v 3.87341166 -15.04959011 3.00000000
v 3.67005849 -15.51568127 3.00000000
v 3.50210500 -15.99566460 3.00000000
v 3.37049031 -16.48685837 3.00000000
v 3.27595043 -16.98651314 3.00000000
v 3.21901417 -17.49183464 3.00000000
v 3.20000005 -18.00000000 3.00000000
v 3.21901417 -18.50816536 3.00000000
v 3.27595043 -19.01348686 3.00000000
v 3.37049031 -19.51314163 3.00000000
v 3.50210500 -20.00433540 3.00000000
v 3.67005849 -20.48431969 3.00000000
v 3.87341166 -20.95040894 3.00000000
v 4.11102724 -21.39999962 3.00000000
v 4.38157654 -21.83057594 3.00000000
v 4.68354607 -22.23973083 3.00000000
v 5.01524734 -22.62517548 3.00000000
v 5.37482548 -22.98475266 3.00000000
v 5.76026917 -23.31645393 3.00000000
v 6.16942358 -23.61842346 3.00000000
v 6.59999990 -23.88897324 3.00000000
v 7.04959059 -24.12658882 3.00000000
v 7.51568127 -24.32994080 3.00000000
v 7.99566460 -24.49789429 3.00000000
v 8.48685741 -24.62950897 3.00000000
v 8.98651218 -24.72405052 3.00000000
v 9.49183559 -24.78098488 3.00000000
v 10.00000000 -24.79999924 3.00000000
v 10.50816441 -24.78098488 3.00000000
v 11.01348782 -24.72405052 3.00000000
v 11.51314259 -24.62950897 3.00000000
v 12.00433540 -24.49789429 3.00000000
v 12.48431873 -24.32994080 3.00000000
v 12.95040989 -24.12658882 3.00000000
v 13.39999962 -23.88897324 3.00000000
v 13.83057594 -23.61842346 3.00000000
v 14.23973083 -23.31645393 3.00000000
v 14.62517452 -22.98475266 3.00000000
v 14.98475266 -22.62517548 3.00000000
v 15.31645393 -22.23973083 3.00000000
v 15.61842346 -21.83057594 3.00000000
v 15.88897228 -21.39999962 3.00000000
v 16.12658882 -20.95040894 3.00000000
v 16.32994080 -20.48431969 3.00000000
v 16.49789429 -20.00433540 3.00000000
v 16.62950897 -19.51314163 3.00000000
v 16.72405052 -19.01348686 3.00000000
v 16.78098488 -18.50816536 3.00000000
f 1 2 3
f 1 4 2
f 5 6 7
f 8 5 7
f 9 7 6
f 10 8 7
f 11 7 9
f 12 10 7
f 13 7 11
f 14 12 7
f 15 7 3
f 15 14 7
f 16 15 3
f 17 16 3
f 18 17 3
f 19 18 3
f 20 19 3
f 21 20 3
f 22 21 3
f 23 22 3
f 24 23 3
f 25 24 3
f 26 27 28
f 26 28 29
f 26 29 30
f 26 30 31
f 26 31 32
f 26 32 33
f 26 33 34
f 26 34 35
f 26 35 25
f 26 25 3
f 36 3 7
f 37 36 38
f 39 36 37
f 40 36 39
f 41 36 40
f 42 36 41
f 43 36 42
f 44 36 43
f 45 36 44
f 46 36 45
f 47 36 46
f 48 49 50
f 48 50 51
f 48 51 52
f 48 52 53
f 48 53 54
f 48 54 55
f 48 55 56
f 48 56 57
f 48 57 58
f 48 58 59
f 2 26 3
f 60 48 26
f 60 61 62
f 60 62 63
f 60 63 49
f 60 26 2
f 60 49 48
f 64 3 36
f 64 47 65
f 64 65 66
f 64 36 47
f 67 60 2
f 68 66 69
f 68 69 70
f 68 70 61
f 68 61 60
f 68 64 66
f 71 68 60
f 72 64 68
f 73 71 74
f 75 64 72
f 75 73 74
f 75 74 67
f 75 76 73
f 75 72 76
f 75 67 2
f 68 71 73
f 72 77 76
f 78 77 72
f 77 73 76
f 77 79 73
f 68 73 79
f 80 68 79
f 78 72 68
f 78 68 80
f 81 74 71
f 81 82 74
f 74 83 67
f 82 83 74
f 84 60 67
f 84 67 83
f 71 60 84
f 81 71 84
f 85 37 38
f 86 39 37
f 86 37 85
f 87 40 39
f 87 39 86
f 88 41 40
f 88 40 87
f 89 42 41
f 89 41 88
f 90 43 42
f 90 42 89
f 91 44 43
f 91 43 90
f 92 45 44
f 92 44 91
f 93 46 45
f 93 45 92
f 94 47 46
f 94 46 93
f 95 47 94
f 95 65 47
f 96 65 95
f 96 66 65
f 97 69 66
f 97 66 96
f 98 70 69
f 98 69 97
f 99 70 98
f 100 61 70
f 100 70 99
f 101 62 61
f 101 61 100
f 102 63 62
f 102 62 101
f 103 49 63
f 103 63 102
f 104 50 49
f 104 49 103
f 105 51 50
f 105 50 104
f 106 52 51
f 106 51 105
f 107 53 52
f 107 52 106
f 108 54 53
f 108 53 107
f 109 55 54
f 109 54 108
f 110 56 55
f 110 55 109
f 111 57 56
f 111 56 110
f 112 58 57
f 112 57 111
f 113 58 112
f 113 59 58
f 114 115 116
f 114 116 117
f 118 117 116
f 119 115 114
f 120 118 116
f 121 115 119
f 122 120 116
f 123 115 121
f 124 115 123
f 125 115 124
f 126 115 125
f 127 115 126
f 128 115 127
f 129 115 128
f 130 115 129
f 131 132 133
f 131 134 132
f 131 135 134
f 131 136 135
f 131 137 136
f 131 138 137
f 131 139 138
f 131 140 139
f 131 141 140
f 131 130 141
f 131 115 130
f 142 143 144
f 142 145 143
f 142 146 145
f 142 133 146
f 142 131 133
f 147 148 116
f 147 116 115
f 86 85 148
f 87 86 148
f 88 87 148
f 89 148 147
f 89 88 148
f 90 89 147
f 91 90 147
f 92 91 147
f 93 92 147
f 94 93 147
f 95 94 147
f 96 95 147
f 97 96 147
f 98 97 147
f 99 98 147
f 149 110 109
f 149 111 110
f 149 112 111
f 149 113 112
f 150 149 109
f 150 100 99
f 150 101 100
f 150 102 101
f 150 103 102
f 150 104 103
f 150 105 104
f 150 106 105
f 150 107 106
f 150 108 107
f 150 99 147
f 150 109 108
f 150 131 142
f 150 142 149
f 151 131 150
f 151 152 131
f 153 150 147
f 153 151 150
f 153 147 115
f 153 115 154
f 154 115 131
f 154 131 152
f 59 149 48
f 113 149 59
f 149 26 48
f 149 142 26
f 27 26 142
f 144 27 142
f 144 28 27
f 143 29 28
f 143 28 144
f 145 30 29
f 145 29 143
f 146 31 30
f 146 30 145
f 133 32 31
f 133 31 146
f 132 33 32
f 132 32 133
f 134 34 33
f 134 33 132
f 135 35 34
f 135 34 134
f 136 25 35
f 136 35 135
f 137 24 25
f 137 25 136
f 138 24 137
f 138 23 24
f 139 23 138
f 139 22 23
f 140 22 139
f 140 21 22
f 141 21 140
f 130 21 141
f 130 20 21
f 130 19 20
f 129 19 130
f 128 18 19
f 128 19 129
f 127 17 18
f 127 18 128
f 126 16 17
f 126 17 127
f 125 15 16
f 125 16 126
f 124 14 15
f 124 15 125
f 123 12 14
f 123 14 124
f 121 10 12
f 121 12 123
f 119 8 10
f 119 10 121
f 114 5 8
f 114 8 119
f 117 6 5
f 117 5 114
f 118 9 6
f 118 6 117
f 120 11 9
f 120 9 118
f 122 11 120
f 122 13 11
f 116 7 13
f 116 13 122
f 148 36 7
f 148 7 116
f 148 38 36
f 148 85 38
f 155 64 75
f 155 75 156
f 156 75 2
f 156 2 4
f 152 1 154
f 157 1 158
f 159 158 1
f 160 1 157
f 161 159 1
f 161 1 152
f 162 1 160
f 163 161 152
f 164 1 162
f 165 163 152
f 166 1 164
f 167 165 152
f 168 1 166
f 169 167 152
f 170 1 168
f 171 169 152
f 172 1 170
f 173 171 152
f 174 1 172
f 175 173 152
f 176 1 174
f 177 175 152
f 153 154 1
f 178 177 152
f 151 179 180
f 151 181 179
f 182 181 151
f 183 182 151
f 184 183 151
f 185 184 151
f 186 185 151
f 187 186 151
f 188 189 153
f 190 153 189
f 191 188 153
f 192 191 153
f 193 153 190
f 194 192 153
f 195 153 193
f 196 194 153
f 197 153 195
f 198 196 153
f 199 153 197
f 200 198 153
f 201 153 199
f 201 151 153
f 202 200 153
f 203 151 201
f 4 204 205
f 4 206 204
f 4 207 206
f 4 208 207
f 4 209 208
f 4 210 209
f 4 211 210
f 4 212 211
f 4 213 212
f 4 214 213
f 4 215 214
f 4 216 215
f 217 202 153
f 218 151 203
f 219 217 153
f 220 151 218
f 221 151 220
f 222 4 205
f 223 151 221
f 224 151 223
f 225 151 224
f 226 4 222
f 227 151 225
f 227 228 187
f 227 187 151
f 229 228 227
f 230 4 226
f 231 228 229
f 231 232 228
f 233 232 231
f 234 235 232
f 234 232 233
f 236 4 230
f 237 235 234
f 238 235 237
f 238 239 235
f 240 4 236
f 241 242 239
f 241 239 238
f 243 242 241
f 244 4 240
f 245 242 243
f 245 246 242
f 247 246 245
f 248 4 244
f 249 246 247
f 249 250 246
f 251 4 248
f 252 4 251
f 84 250 249
f 84 253 254
f 84 255 253
f 84 256 255
f 84 257 256
f 84 258 257
f 84 259 258
f 84 260 259
f 84 261 260
f 84 262 261
f 84 263 262
f 84 264 263
f 84 249 264
f 84 265 250
f 84 266 265
f 84 267 266
f 84 268 267
f 84 269 268
f 84 270 269
f 84 271 270
f 155 219 153
f 155 153 1
f 155 272 219
f 155 273 272
f 155 274 273
f 155 275 274
f 155 276 275
f 155 277 276
f 155 278 277
f 155 279 278
f 155 280 279
f 155 281 280
f 155 282 281
f 155 283 282
f 155 284 283
f 155 285 284
f 155 286 285
f 155 287 286
f 155 288 287
f 155 289 288
f 155 290 289
f 155 291 290
f 155 292 291
f 83 293 294
f 83 295 293
f 83 296 295
f 83 297 296
f 83 298 297
f 83 299 298
f 83 300 299
f 83 271 84
f 83 301 271
f 83 302 301
f 83 303 302
f 83 294 303
f 80 304 305
f 80 306 304
f 80 307 306
f 80 308 307
f 80 309 308
f 80 310 309
f 80 311 310
f 80 312 311
f 80 313 312
f 80 314 313
f 80 292 155
f 80 305 292
f 81 84 254
f 81 315 314
f 81 316 315
f 81 317 316
f 81 318 317
f 81 254 318
f 81 314 80
f 78 80 155
f 79 82 81
f 156 78 155
f 156 82 79
f 156 79 77
f 156 77 78
f 156 83 82
f 4 1 216
f 216 1 176
f 156 4 252
f 156 252 319
f 156 319 320
f 156 320 321
f 156 321 322
f 156 322 323
f 156 323 300
f 156 300 83
f 152 151 178
f 178 151 324
f 324 151 180
f 80 79 81
f 325 326 267
f 325 267 268
f 325 268 269
f 327 325 269
f 328 327 269
f 328 269 270
f 328 270 271
f 329 271 301
f 329 328 271
f 330 329 301
f 331 301 302
f 331 330 301
f 332 302 303
f 332 303 294
f 332 331 302
f 333 332 294
f 334 333 294
f 334 294 293
f 335 334 293
f 335 293 295
f 336 335 295
f 336 295 296
f 337 336 296
f 337 296 297
f 338 337 297
f 338 297 298
f 339 338 298
f 339 298 299
f 340 339 299
f 340 299 300
f 341 300 323
f 341 340 300
f 342 323 322
f 342 341 323
f 343 322 321
f 343 342 322
f 344 321 320
f 344 343 321
f 345 320 319
f 345 344 320
f 346 319 252
f 346 345 319
f 347 252 251
f 347 251 248
f 347 346 252
f 348 347 248
f 349 248 244
f 349 348 248
f 350 244 240
f 350 349 244
f 351 240 236
f 351 236 230
f 351 350 240
f 352 351 230
f 353 230 226
f 353 352 230
f 354 226 222
f 354 353 226
f 355 222 205
f 355 354 222
f 356 205 204
f 356 355 205
f 357 356 204
f 357 204 206
f 358 357 206
f 358 206 207
f 359 358 207
f 359 207 208
f 360 359 208
f 360 208 209
f 361 360 209
f 361 209 210
f 361 210 211
f 362 361 211
f 363 211 212
f 363 362 211
f 364 212 213
f 364 363 212
f 365 213 214
f 365 214 215
f 365 364 213
f 366 365 215
f 367 215 216
f 367 366 215
f 368 216 176
f 368 176 174
f 368 367 216
f 369 368 174
f 370 174 172
f 370 172 170
f 370 369 174
f 371 370 170
f 372 170 168
f 372 168 166
f 372 371 170
f 373 372 166
f 374 166 164
f 374 373 166
f 375 164 162
f 375 374 164
f 376 162 160
f 376 160 157
f 376 375 162
f 377 157 158
f 377 376 157
f 378 158 159
f 378 377 158
f 379 378 159
f 380 159 161
f 380 161 163
f 380 379 159
f 381 380 163
f 382 381 163
f 382 163 165
f 383 382 165
f 383 165 167
f 384 383 167
f 384 167 169
f 384 169 171
f 385 384 171
f 385 171 173
f 386 385 173
f 387 386 173
f 387 173 175
f 388 387 175
f 388 175 177
f 389 388 177
f 389 177 178
f 390 389 178
f 390 178 324
f 391 390 324
f 391 324 180
f 391 180 179
f 392 391 179
f 393 392 179
f 393 179 181
f 394 393 181
f 394 181 182
f 394 182 183
f 395 394 183
f 395 183 184
f 396 395 184
f 397 184 185
f 397 185 186
f 397 396 184
f 398 397 186
f 399 186 187
f 399 398 186
f 400 187 228
f 400 228 232
f 400 399 187
f 401 400 232
f 402 232 235
f 402 235 239
f 402 401 232
f 403 402 239
f 403 239 242
f 404 403 242
f 405 242 246
f 405 246 250
f 405 404 242
f 406 405 250
f 407 250 265
f 407 406 250
f 408 407 265
f 408 265 266
f 408 266 267
f 326 408 267
f 409 377 378
f 409 378 410
f 411 378 379
f 411 410 378
f 412 375 376
f 412 376 377
f 412 377 409
f 413 379 380
f 413 380 381
f 413 411 379
f 414 374 375
f 414 375 412
f 415 413 381
f 416 374 414
f 417 415 381
f 417 381 382
f 418 373 374
f 418 374 416
f 419 417 382
f 419 382 383
f 420 373 418
f 420 371 372
f 420 372 373
f 421 419 383
f 421 383 384
f 422 371 420
f 423 421 384
f 423 384 385
f 424 371 422
f 424 370 371
f 425 423 385
f 425 385 386
f 425 386 387
f 426 370 424
f 426 369 370
f 427 425 387
f 428 367 368
f 428 368 369
f 428 369 426
f 429 427 387
f 429 387 388
f 430 367 428
f 430 366 367
f 431 429 388
f 431 388 389
f 431 389 390
f 432 365 366
f 432 366 430
f 433 431 390
f 434 365 432
f 435 364 365
f 435 365 434
f 436 390 391
f 436 433 390
f 437 363 364
f 437 364 435
f 438 436 391
f 438 391 392
f 393 438 392
f 439 362 363
f 439 363 437
f 440 438 393
f 441 361 362
f 441 362 439
f 442 393 394
f 442 440 393
f 443 360 361
f 443 361 441
f 444 442 394
f 444 394 395
f 445 360 443
f 445 359 360
f 446 395 396
f 446 444 395
f 397 446 396
f 447 358 359
f 447 359 445
f 448 446 397
f 449 357 358
f 449 358 447
f 450 448 397
f 450 397 398
f 356 449 451
f 356 357 449
f 399 450 398
f 399 452 450
f 453 356 451
f 355 356 453
f 400 452 399
f 400 454 452
f 455 355 453
f 354 355 455
f 401 454 400
f 401 456 454
f 353 455 457
f 353 354 455
f 402 458 456
f 402 456 401
f 459 458 402
f 352 457 460
f 352 353 457
f 403 459 402
f 461 352 460
f 351 352 461
f 404 462 459
f 404 459 403
f 463 351 461
f 350 351 463
f 405 464 462
f 405 462 404
f 465 350 463
f 349 350 465
f 406 466 464
f 406 464 405
f 348 465 467
f 348 349 465
f 407 468 466
f 407 466 406
f 347 348 467
f 347 467 469
f 408 468 407
f 408 470 468
f 346 471 472
f 346 469 471
f 346 347 469
f 326 473 470
f 326 470 408
f 345 346 472
f 325 473 326
f 325 474 473
f 325 475 474
f 344 472 476
f 344 345 472
f 327 475 325
f 327 477 475
f 328 477 327
f 343 476 478
f 343 344 476
f 342 479 480
f 342 478 479
f 342 343 478
f 329 477 328
f 329 481 477
f 341 342 480
f 330 481 329
f 330 482 481
f 340 341 480
f 340 483 484
f 340 480 483
f 331 482 330
f 331 485 482
f 339 340 484
f 332 485 331
f 332 486 485
f 333 486 332
f 333 487 486
f 338 339 484
f 338 488 489
f 338 484 488
f 334 487 333
f 334 490 487
f 334 491 490
f 337 338 489
f 335 491 334
f 336 491 335
f 336 337 489
f 336 492 491
f 336 489 492
f 474 493 473
f 474 494 493
f 474 495 494
f 475 495 474
f 477 495 475
f 477 496 495
f 477 497 496
f 481 498 497
f 481 497 477
f 482 498 481
f 485 499 498
f 485 498 482
f 486 500 499
f 486 501 500
f 486 499 485
f 487 501 486
f 490 501 487
f 490 502 501
f 491 502 490
f 491 503 502
f 492 503 491
f 492 504 503
f 489 504 492
f 489 505 504
f 488 505 489
f 488 506 505
f 484 506 488
f 484 507 506
f 483 507 484
f 483 508 507
f 480 509 508
f 480 508 483
f 479 510 509
f 479 509 480
f 478 511 510
f 478 510 479
f 476 512 511
f 476 511 478
f 472 513 512
f 472 512 476
f 471 514 513
f 471 513 472
f 469 515 514
f 469 516 515
f 469 514 471
f 467 516 469
f 465 517 516
f 465 516 467
f 463 518 517
f 463 517 465
f 461 519 518
f 461 520 519
f 461 518 463
f 460 520 461
f 457 521 520
f 457 520 460
f 455 522 521
f 455 521 457
f 453 523 522
f 453 522 455
f 451 524 523
f 451 523 453
f 449 524 451
f 449 525 524
f 447 525 449
f 447 526 525
f 445 526 447
f 445 527 526
f 443 527 445
f 443 528 527
f 441 528 443
f 441 529 528
f 441 530 529
f 439 530 441
f 437 531 530
f 437 530 439
f 435 532 531
f 435 531 437
f 434 533 532
f 434 534 533
f 434 532 435
f 432 534 434
f 430 535 534
f 430 534 432
f 428 536 535
f 428 537 536
f 428 535 430
f 426 537 428
f 424 538 537
f 424 539 538
f 424 537 426
f 422 539 424
f 420 540 539
f 420 541 540
f 420 539 422
f 418 541 420
f 416 542 541
f 416 541 418
f 414 543 542
f 414 542 416
f 412 544 543
f 412 545 544
f 412 543 414
f 409 546 545
f 409 545 412
f 410 547 546
f 410 546 409
f 411 547 410
f 413 548 547
f 413 549 548
f 413 547 411
f 415 549 413
f 417 549 415
f 417 550 549
f 419 550 417
f 419 551 550
f 421 551 419
f 421 552 551
f 421 553 552
f 423 553 421
f 423 554 553
f 425 554 423
f 427 554 425
f 427 555 554
f 429 555 427
f 429 556 555
f 431 556 429
f 431 557 556
f 433 557 431
f 433 558 557
f 436 558 433
f 436 559 558
f 436 560 559
f 438 560 436
f 440 560 438
f 440 561 560
f 442 561 440
f 442 562 561
f 442 563 562
f 444 563 442
f 444 564 563
f 446 564 444
f 448 565 564
f 448 566 565
f 448 564 446
f 450 566 448
f 452 567 566
f 452 566 450
f 454 568 567
f 454 569 568
f 454 567 452
f 456 569 454
f 458 570 569
f 458 571 570
f 458 569 456
f 459 571 458
f 459 572 571
f 462 572 459
f 464 573 572
f 464 574 573
f 464 572 462
f 466 574 464
f 468 575 574
f 468 574 466
f 470 575 468
f 470 576 575
f 470 493 576
f 473 493 470
f 547 545 546
f 548 545 547
f 543 544 545
f 541 542 543
f 541 548 549
f 541 543 545
f 541 545 548
f 552 549 550
f 552 550 551
f 553 541 549
f 553 549 552
f 554 541 553
f 536 537 538
f 536 538 539
f 536 539 540
f 536 540 541
f 556 554 555
f 534 535 536
f 559 541 554
f 559 536 541
f 559 554 556
f 559 556 557
f 559 557 558
f 532 533 534
f 560 536 559
f 530 531 532
f 529 530 532
f 528 529 532
f 526 527 528
f 526 528 532
f 566 536 560
f 566 560 561
f 566 561 562
f 566 562 563
f 566 563 564
f 566 564 565
f 523 524 525
f 523 525 526
f 522 526 532
f 522 523 526
f 571 534 536
f 571 532 534
f 571 536 566
f 571 566 567
f 571 567 568
f 571 568 569
f 571 569 570
f 573 571 572
f 575 573 574
f 575 571 573
f 515 516 517
f 494 520 521
f 494 521 522
f 494 522 532
f 494 532 571
f 494 575 576
f 494 576 493
f 494 571 575
f 513 515 517
f 513 514 515
f 513 517 518
f 513 518 519
f 496 494 495
f 510 513 519
f 510 511 512
f 510 512 513
f 510 519 520
f 499 497 498
f 500 497 499
f 501 496 497
f 501 497 500
f 506 507 508
f 506 508 509
f 502 496 501
f 505 509 510
f 505 510 520
f 505 506 509
f 504 520 494
f 504 502 503
f 504 494 496
f 504 496 502
f 504 505 520
f 577 578 305
f 577 305 304
f 577 304 306
f 579 577 306
f 580 579 306
f 580 306 307
f 580 307 308
f 581 308 309
f 581 580 308
f 582 581 309
f 583 309 310
f 583 582 309
f 584 310 311
f 584 311 312
f 584 583 310
f 585 584 312
f 586 585 312
f 586 312 313
f 587 586 313
f 587 313 314
f 588 587 314
f 588 314 315
f 589 588 315
f 589 315 316
f 590 589 316
f 590 316 317
f 591 590 317
f 591 317 318
f 592 591 318
f 592 318 254
f 593 254 253
f 593 592 254
f 594 253 255
f 594 593 253
f 595 255 256
f 595 594 255
f 596 256 257
f 596 595 256
f 597 257 258
f 597 596 257
f 598 258 259
f 598 597 258
f 599 259 260
f 599 260 261
f 599 598 259
f 600 599 261
f 601 261 262
f 601 600 261
f 602 262 263
f 602 601 262
f 603 263 264
f 603 264 249
f 603 602 263
f 604 603 249
f 605 249 247
f 605 604 249
f 606 247 245
f 606 605 247
f 607 245 243
f 607 606 245
f 608 243 241
f 608 607 243
f 609 608 241
f 609 241 238
f 610 609 238
f 610 238 237
f 611 610 237
f 611 237 234
f 612 611 234
f 612 234 233
f 613 612 233
f 613 233 231
f 613 231 229
f 614 613 229
f 615 229 227
f 615 614 229
f 616 227 225
f 616 615 227
f 617 225 224
f 617 224 223
f 617 616 225
f 618 617 223
f 619 223 221
f 619 618 223
f 620 221 220
f 620 220 218
f 620 619 221
f 621 620 218
f 622 218 203
f 622 203 201
f 622 621 218
f 623 622 201
f 624 201 199
f 624 199 197
f 624 623 201
f 625 624 197
f 626 197 195
f 626 625 197
f 627 195 193
f 627 626 195
f 628 193 190
f 628 190 189
f 628 627 193
f 629 189 188
f 629 628 189
f 630 188 191
f 630 629 188
f 631 630 191
f 632 191 192
f 632 192 194
f 632 631 191
f 633 632 194
f 634 633 194
f 634 194 196
f 635 634 196
f 635 196 198
f 636 635 198
f 636 198 200
f 636 200 202
f 637 636 202
f 637 202 217
f 638 637 217
f 639 638 217
f 639 217 219
f 640 639 219
f 640 219 272
f 641 640 272
f 641 272 273
f 642 641 273
f 642 273 274
f 643 642 274
f 643 274 275
f 643 275 276
f 644 643 276
f 645 644 276
f 645 276 277
f 646 645 277
f 646 277 278
f 646 278 279
f 647 646 279
f 647 279 280
f 648 647 280
f 649 280 281
f 649 281 282
f 649 648 280
f 650 649 282
f 651 282 283
f 651 650 282
f 652 283 284
f 652 284 285
f 652 651 283
f 653 652 285
f 654 285 286
f 654 286 287
f 654 653 285
f 655 654 287
f 655 287 288
f 656 655 288
f 657 288 289
f 657 289 290
f 657 656 288
f 658 657 290
f 659 290 291
f 659 658 290
f 660 659 291
f 660 291 292
f 660 292 305
f 578 660 305
f 661 629 630
f 661 630 631
f 662 629 661
f 663 661 631
f 664 629 662
f 664 628 629
f 665 663 631
f 665 631 632
f 665 632 633
f 666 628 664
f 666 627 628
f 667 665 633
f 668 627 666
f 668 626 627
f 669 667 633
f 669 633 634
f 669 634 635
f 670 626 668
f 670 624 625
f 670 625 626
f 671 669 635
f 672 624 670
f 673 671 635
f 673 635 636
f 674 624 672
f 674 623 624
f 675 673 636
f 675 636 637
f 675 637 638
f 676 623 674
f 676 622 623
f 677 675 638
f 678 620 621
f 678 621 622
f 678 622 676
f 679 677 638
f 679 638 639
f 680 620 678
f 681 679 639
f 681 639 640
f 682 618 619
f 682 619 620
f 682 620 680
f 683 640 641
f 683 681 640
f 684 618 682
f 685 641 642
f 685 683 641
f 686 616 617
f 686 617 618
f 686 618 684
f 687 616 686
f 688 642 643
f 688 685 642
f 689 615 616
f 689 616 687
f 690 688 643
f 690 643 644
f 690 644 645
f 691 614 615
f 691 615 689
f 692 690 645
f 693 612 613
f 693 613 614
f 693 614 691
f 694 692 645
f 694 645 646
f 695 612 693
f 696 694 646
f 696 646 647
f 697 612 695
f 697 611 612
f 698 647 648
f 698 696 647
f 699 611 697
f 699 610 611
f 700 698 648
f 700 648 649
f 701 610 699
f 701 609 610
f 702 700 649
f 702 649 650
f 703 702 650
f 608 701 704
f 608 609 701
f 651 703 650
f 705 608 704
f 706 703 651
f 607 608 705
f 652 706 651
f 606 705 707
f 606 607 705
f 653 706 652
f 653 708 706
f 605 707 709
f 605 606 707
f 654 710 708
f 654 708 653
f 604 709 711
f 604 605 709
f 655 710 654
f 655 712 710
f 603 713 714
f 603 711 713
f 603 604 711
f 656 715 712
f 656 712 655
f 602 603 714
f 657 716 715
f 657 715 656
f 601 714 717
f 601 602 714
f 658 718 716
f 658 716 657
f 600 601 717
f 600 719 720
f 600 717 719
f 659 721 718
f 659 722 721
f 659 718 658
f 599 600 720
f 660 722 659
f 598 720 723
f 598 599 720
f 578 722 660
f 578 724 722
f 578 725 724
f 597 598 723
f 597 723 726
f 577 725 578
f 577 727 725
f 596 726 728
f 596 597 726
f 579 727 577
f 595 728 729
f 595 596 728
f 580 727 579
f 580 730 727
f 594 729 731
f 594 595 729
f 581 730 580
f 581 732 730
f 581 733 732
f 593 731 734
f 593 594 731
f 582 733 581
f 592 593 734
f 592 735 736
f 592 734 735
f 583 733 582
f 583 737 733
f 584 737 583
f 584 738 737
f 584 739 738
f 591 592 736
f 590 591 736
f 590 736 740
f 585 739 584
f 586 739 585
f 586 741 739
f 589 590 740
f 589 740 742
f 587 743 741
f 587 741 586
f 588 744 743
f 588 742 744
f 588 743 587
f 588 589 742
f 725 745 724
f 725 746 745
f 725 747 746
f 727 747 725
f 730 747 727
f 730 748 747
f 730 749 748
f 732 750 749
f 732 749 730
f 733 750 732
f 737 751 750
f 737 750 733
f 738 752 751
f 738 753 752
f 738 751 737
f 739 753 738
f 741 753 739
f 741 754 753
f 743 754 741
f 743 755 754
f 744 755 743
f 744 756 755
f 742 756 744
f 742 757 756
f 740 757 742
f 740 758 757
f 736 758 740
f 736 759 758
f 735 759 736
f 735 760 759
f 734 761 760
f 734 760 735
f 731 762 761
f 731 761 734
f 729 763 762
f 729 762 731
f 728 764 763
f 728 763 729
f 726 765 764
f 726 764 728
f 723 766 765
f 723 765 726
f 720 767 766
f 720 768 767
f 720 766 723
f 719 768 720
f 717 769 768
f 717 768 719
f 714 770 769
f 714 769 717
f 713 771 770
f 713 772 771
f 713 770 714
f 711 772 713
f 709 773 772
f 709 772 711
f 707 774 773
f 707 773 709
f 705 775 774
f 705 774 707
f 704 776 775
f 704 775 705
f 701 776 704
f 701 777 776
f 699 777 701
f 699 778 777
f 697 778 699
f 697 779 778
f 695 779 697
f 695 780 779
f 693 780 695
f 693 781 780
f 693 782 781
f 691 782 693
f 689 783 782
f 689 782 691
f 687 784 783
f 687 783 689
f 686 785 784
f 686 786 785
f 686 784 687
f 684 786 686
f 682 787 786
f 682 786 684
f 680 788 787
f 680 789 788
f 680 787 682
f 678 789 680
f 676 790 789
f 676 791 790
f 676 789 678
f 674 791 676
f 672 792 791
f 672 793 792
f 672 791 674
f 670 793 672
f 668 794 793
f 668 793 670
f 666 795 794
f 666 794 668
f 664 796 795
f 664 797 796
f 664 795 666
f 662 798 797
f 662 797 664
f 661 799 798
f 661 798 662
f 663 799 661
f 665 800 799
f 665 801 800
f 665 799 663
f 667 801 665
f 669 801 667
f 669 802 801
f 671 802 669
f 671 803 802
f 673 803 671
f 673 804 803
f 673 805 804
f 675 805 673
f 675 806 805
f 677 806 675
f 679 806 677
f 679 807 806
f 681 807 679
f 681 808 807
f 683 808 681
f 683 809 808
f 685 809 683
f 685 810 809
f 688 810 685
f 688 811 810
f 688 812 811
f 690 812 688
f 692 812 690
f 692 813 812
f 694 813 692
f 694 814 813
f 694 815 814
f 696 815 694
f 696 816 815
f 698 816 696
f 700 817 816
f 700 818 817
f 700 816 698
f 702 818 700
f 703 819 818
f 703 818 702
f 706 820 819
f 706 821 820
f 706 819 703
f 708 821 706
f 710 822 821
f 710 823 822
f 710 821 708
f 712 823 710
f 712 824 823
f 715 824 712
f 716 825 824
f 716 826 825
f 716 824 715
f 718 826 716
f 721 827 826
f 721 826 718
f 722 827 721
f 722 828 827
f 722 745 828
f 724 745 722
f 799 797 798
f 800 797 799
f 795 796 797
f 794 795 797
f 802 800 801
f 792 793 794
f 789 790 791
f 789 791 792
f 806 803 804
f 806 804 805
f 808 806 807
f 785 792 794
f 785 789 792
f 785 786 787
f 785 787 788
f 785 788 789
f 811 806 808
f 811 808 809
f 811 809 810
f 782 783 784
f 780 781 782
f 778 779 780
f 778 780 782
f 817 811 812
f 817 812 813
f 817 813 814
f 817 814 815
f 817 815 816
f 777 794 797
f 777 782 784
f 777 785 794
f 777 784 785
f 777 778 782
f 818 811 817
f 775 776 777
f 821 818 819
f 821 819 820
f 772 773 774
f 772 774 775
f 772 775 777
f 824 822 823
f 825 822 824
f 769 803 806
f 769 806 811
f 769 770 771
f 769 771 772
f 769 777 797
f 769 802 803
f 769 772 777
f 769 797 800
f 769 800 802
f 827 822 825
f 827 821 822
f 827 825 826
f 766 767 768
f 745 821 827
f 745 827 828
f 765 766 768
f 765 768 769
f 747 745 746
f 747 821 745
f 763 764 765
f 762 765 769
f 762 763 765
f 749 747 748
f 760 761 762
f 752 749 750
f 752 750 751
f 752 747 749
f 753 747 752
f 753 821 747
f 757 758 759
f 757 759 760
f 757 762 769
f 757 760 762
f 757 811 818
f 757 769 811
f 756 821 753
f 756 757 818
f 756 818 821
f 755 753 754
f 755 756 753
f 155 3 64
f 155 1 3

