OFF
672 1352 0
-11.9664459229 0.8967611194 0.0000000000
-12.0000000000 -0.0000000000 0.0000000000
-12.0000000000 -0.0000000000 2.0000000000
-11.9664459229 0.8967611194 2.0000000000
-11.8659696579 1.7885072231 0.0000000000
-11.8659696579 1.7885072231 2.0000000000
-11.6991348267 2.6702511311 0.0000000000
-11.6991348267 2.6702511311 2.0000000000
-11.4668741226 3.5370621681 0.0000000000
-11.4668741226 3.5370621681 2.0000000000
-11.1704845428 4.3840923309 0.0000000000
-11.1704845428 4.3840923309 2.0000000000
-10.8116264343 5.2066049576 0.0000000000
-10.8116264343 5.2066049576 2.0000000000
-10.3923044205 6.0000000000 2.0000000000
-10.3923044205 6.0000000000 0.0000000000
-9.9148654938 6.7598404884 0.0000000000
-9.9148654938 6.7598404884 2.0000000000
-9.3819780350 7.4818778038 2.0000000000
-9.3819780350 7.4818778038 0.0000000000
-8.7966222763 8.1620731354 0.0000000000
-8.7966222763 8.1620731354 2.0000000000
-8.1620731354 8.7966222763 0.0000000000
-8.1620731354 8.7966222763 2.0000000000
-7.4818778038 9.3819780350 0.0000000000
-7.4818778038 9.3819780350 2.0000000000
-6.7598404884 9.9148654938 0.0000000000
-6.7598404884 9.9148654938 2.0000000000
-6.0000000000 10.3923044205 2.0000000000
-6.0000000000 10.3923044205 0.0000000000
-5.2066049576 10.8116264343 0.0000000000
-5.2066049576 10.8116264343 2.0000000000
-4.3840923309 11.1704845428 0.0000000000
-4.3840923309 11.1704845428 2.0000000000
-3.5370621681 11.4668741226 2.0000000000
-3.5370621681 11.4668741226 0.0000000000
-2.6702511311 11.6991348267 2.0000000000
-2.6702511311 11.6991348267 0.0000000000
-1.7885072231 11.8659696579 0.0000000000
-1.7885072231 11.8659696579 2.0000000000
-0.8967611194 11.9664459229 0.0000000000
-0.8967611194 11.9664459229 2.0000000000
0.0000000000 12.0000000000 2.0000000000
0.0000000000 12.0000000000 0.0000000000
0.8967611194 11.9664459229 0.0000000000
0.8967611194 11.9664459229 2.0000000000
1.7885072231 11.8659696579 0.0000000000
1.7885072231 11.8659696579 2.0000000000
2.6702511311 11.6991348267 0.0000000000
2.6702511311 11.6991348267 2.0000000000
3.5370621681 11.4668741226 0.0000000000
3.5370621681 11.4668741226 2.0000000000
4.3840923309 11.1704845428 0.0000000000
4.3840923309 11.1704845428 2.0000000000
5.2066049576 10.8116264343 2.0000000000
5.2066049576 10.8116264343 0.0000000000
6.0000000000 10.3923044205 0.0000000000
6.0000000000 10.3923044205 2.0000000000
6.7598404884 9.9148654938 0.0000000000
6.7598404884 9.9148654938 2.0000000000
7.4818778038 9.3819780350 0.0000000000
7.4818778038 9.3819780350 2.0000000000
8.1620731354 8.7966222763 0.0000000000
8.1620731354 8.7966222763 2.0000000000
8.7966222763 8.1620731354 0.0000000000
8.7966222763 8.1620731354 2.0000000000
9.3819780350 7.4818778038 0.0000000000
9.3819780350 7.4818778038 2.0000000000
9.9148654938 6.7598404884 0.0000000000
9.9148654938 6.7598404884 2.0000000000
10.3923044205 6.0000000000 0.0000000000
10.3923044205 6.0000000000 2.0000000000
10.8116264343 5.2066049576 0.0000000000
10.8116264343 5.2066049576 2.0000000000
11.1704845428 4.3840923309 0.0000000000
11.1704845428 4.3840923309 2.0000000000
11.4668741226 3.5370621681 0.0000000000
11.4668741226 3.5370621681 2.0000000000
11.6991348267 2.6702511311 0.0000000000
11.6991348267 2.6702511311 2.0000000000
11.8659696579 1.7885072231 0.0000000000
11.8659696579 1.7885072231 2.0000000000
11.9664459229 0.8967611194 0.0000000000
11.9664459229 0.8967611194 2.0000000000
12.0000000000 0.0000000000 0.0000000000
12.0000000000 0.0000000000 2.0000000000
11.9664459229 -0.8967611194 0.0000000000
11.9664459229 -0.8967611194 2.0000000000
11.8659696579 -1.7885072231 0.0000000000
11.8659696579 -1.7885072231 2.0000000000
11.6991348267 -2.6702511311 0.0000000000
11.6991348267 -2.6702511311 2.0000000000
11.4668741226 -3.5370621681 0.0000000000
11.4668741226 -3.5370621681 2.0000000000
11.1704845428 -4.3840923309 0.0000000000
11.1704845428 -4.3840923309 2.0000000000
10.8116264343 -5.2066049576 0.0000000000
10.8116264343 -5.2066049576 2.0000000000
10.3923044205 -6.0000000000 0.0000000000
10.3923044205 -6.0000000000 2.0000000000
9.9148654938 -6.7598404884 0.0000000000
9.9148654938 -6.7598404884 2.0000000000
9.3819780350 -7.4818778038 0.0000000000
9.3819780350 -7.4818778038 2.0000000000
8.7966222763 -8.1620731354 0.0000000000
8.7966222763 -8.1620731354 2.0000000000
8.1620731354 -8.7966222763 2.0000000000
8.1620731354 -8.7966222763 0.0000000000
7.4818778038 -9.3819780350 0.0000000000
7.4818778038 -9.3819780350 2.0000000000
6.7598404884 -9.9148654938 0.0000000000
6.7598404884 -9.9148654938 2.0000000000
6.0000000000 -10.3923044205 0.0000000000
6.0000000000 -10.3923044205 2.0000000000
5.2066049576 -10.8116264343 0.0000000000
5.2066049576 -10.8116264343 2.0000000000
4.3840923309 -11.1704845428 0.0000000000
4.3840923309 -11.1704845428 2.0000000000
3.5370621681 -11.4668741226 0.0000000000
3.5370621681 -11.4668741226 2.0000000000
2.6702511311 -11.6991348267 0.0000000000
2.6702511311 -11.6991348267 2.0000000000
1.7885072231 -11.8659696579 0.0000000000
1.7885072231 -11.8659696579 2.0000000000
0.8967611194 -11.9664459229 0.0000000000
0.8967611194 -11.9664459229 2.0000000000
0.0000000000 -12.0000000000 0.0000000000
0.0000000000 -12.0000000000 2.0000000000
-0.8967611194 -11.9664459229 0.0000000000
-0.8967611194 -11.9664459229 2.0000000000
-1.7885072231 -11.8659696579 0.0000000000
-1.7885072231 -11.8659696579 2.0000000000
-2.6702511311 -11.6991348267 0.0000000000
-2.6702511311 -11.6991348267 2.0000000000
-3.5370621681 -11.4668741226 0.0000000000
-3.5370621681 -11.4668741226 2.0000000000
-4.3840923309 -11.1704845428 0.0000000000
-4.3840923309 -11.1704845428 2.0000000000
-5.2066049576 -10.8116264343 0.0000000000
-5.2066049576 -10.8116264343 2.0000000000
-6.0000000000 -10.3923044205 0.0000000000
-6.0000000000 -10.3923044205 2.0000000000
-6.7598404884 -9.9148654938 0.0000000000
-6.7598404884 -9.9148654938 2.0000000000
-7.4818778038 -9.3819780350 0.0000000000
-7.4818778038 -9.3819780350 2.0000000000
-8.1620731354 -8.7966222763 0.0000000000
-8.1620731354 -8.7966222763 2.0000000000
-8.7966222763 -8.1620731354 0.0000000000
-8.7966222763 -8.1620731354 2.0000000000
-9.3819780350 -7.4818778038 0.0000000000
-9.3819780350 -7.4818778038 2.0000000000
-9.9148654938 -6.7598404884 0.0000000000
-9.9148654938 -6.7598404884 2.0000000000
-10.3923044205 -6.0000000000 0.0000000000
-10.3923044205 -6.0000000000 2.0000000000
-10.8116264343 -5.2066049576 0.0000000000
-10.8116264343 -5.2066049576 2.0000000000
-11.1704845428 -4.3840923309 0.0000000000
-11.1704845428 -4.3840923309 2.0000000000
-11.4668741226 -3.5370621681 0.0000000000
-11.4668741226 -3.5370621681 2.0000000000
-11.6991348267 -2.6702511311 0.0000000000
-11.6991348267 -2.6702511311 2.0000000000
-11.8659696579 -1.7885072231 0.0000000000
-11.8659696579 -1.7885072231 2.0000000000
-11.9664459229 -0.8967611194 0.0000000000
-11.9664459229 -0.8967611194 2.0000000000
9.8430099487 -0.7821986675 0.0000000000
9.7821989059 -0.8430096507 0.0000000000
9.7170133591 -0.8991062045 0.0000000000
9.8991060257 -0.7170132995 0.0000000000
9.6478176117 -0.9501745701 0.0000000000
9.9501743317 -0.6478180885 0.0000000000
9.5749998093 -0.9959292412 0.0000000000
9.9959287643 -0.5749999881 0.0000000000
10.0361137390 -0.4989663064 0.0000000000
9.4989662170 -1.0361142159 0.0000000000
9.4201421738 -1.0705047846 0.0000000000
10.0705051422 -0.4201421738 0.0000000000
9.3389682770 -1.0989087820 0.0000000000
10.0989084244 -0.3389684558 0.0000000000
9.2558994293 -1.1211670637 0.0000000000
10.1211671829 -0.2558990717 0.0000000000
9.1713981628 -1.1371554136 0.0000000000
10.1371555328 -0.1713986099 0.0000000000
9.0859394073 -1.1467844248 0.0000000000
10.1467847824 -0.0859396085 0.0000000000
9.0000000000 -1.1499999762 0.0000000000
10.1499996185 0.0000000000 0.0000000000
8.9140605927 -1.1467844248 0.0000000000
10.1467847824 0.0859396085 0.0000000000
10.1371555328 0.1713986099 0.0000000000
4.7612090111 -5.1313629150 0.0000000000
5.1313629150 -4.7612090111 0.0000000000
10.1211671829 0.2558990717 0.0000000000
4.3644285202 -5.4728202820 0.0000000000
5.4728202820 -4.3644285202 0.0000000000
10.0989084244 0.3389684558 0.0000000000
3.9432404041 -5.7836713791 0.0000000000
5.7836713791 -3.9432404041 0.0000000000
10.0705051422 0.4201421738 0.0000000000
3.5000000000 -6.0621776581 0.0000000000
6.0621776581 -3.5000000000 0.0000000000
10.0361137390 0.4989663064 0.0000000000
9.9959287643 0.5749999881 0.0000000000
3.0371861458 -6.3067822456 0.0000000000
6.3067822456 -3.0371861458 0.0000000000
9.9501743317 0.6478180885 0.0000000000
9.8991060257 0.7170132995 0.0000000000
2.5573871136 -6.5161161423 0.0000000000
6.5161161423 -2.5573871136 0.0000000000
8.8286018372 -1.1371554136 0.0000000000
8.7441005707 -1.1211670637 0.0000000000
9.8430099487 0.7821986675 0.0000000000
9.7821989059 0.8430096507 0.0000000000
9.7170133591 0.8991062045 0.0000000000
2.0632863045 -6.6890096664 0.0000000000
6.6890096664 -2.0632863045 0.0000000000
8.6610317230 -1.0989087820 0.0000000000
8.5798578262 -1.0705047846 0.0000000000
8.5010337830 -1.0361142159 0.0000000000
9.6478176117 0.9501745701 0.0000000000
9.5749998093 0.9959292412 0.0000000000
9.4989662170 1.0361142159 0.0000000000
1.5576465130 -6.8244953156 0.0000000000
6.8244953156 -1.5576465130 0.0000000000
8.4250001907 -0.9959292412 0.0000000000
8.3521823883 -0.9501745701 0.0000000000
8.2829866409 -0.8991062045 0.0000000000
8.2178010941 -0.8430096507 0.0000000000
9.4201421738 1.0705047846 0.0000000000
1.0432958603 -6.9218158722 0.0000000000
6.9218158722 -1.0432958603 0.0000000000
8.1569900513 -0.7821986675 0.0000000000
8.1008939743 -0.7170132995 0.0000000000
8.0498256683 -0.6478180885 0.0000000000
8.0040712357 -0.5749999881 0.0000000000
9.1713981628 1.1371554136 0.0000000000
9.0859394073 1.1467844248 0.0000000000
9.2558994293 1.1211670637 0.0000000000
9.3389682770 1.0989087820 0.0000000000
0.5231106281 -6.9804267883 0.0000000000
6.9804267883 -0.5231106281 0.0000000000
7.9638857841 -0.4989663064 0.0000000000
7.9294953346 -0.4201421738 0.0000000000
7.9010910988 -0.3389684558 0.0000000000
7.8788328171 -0.2558990717 0.0000000000
7.8628444672 -0.1713986099 0.0000000000
0.0000000000 -7.0000000000 0.0000000000
7.0000000000 0.0000000000 0.0000000000
7.8532156944 -0.0859396085 0.0000000000
7.8499999046 -0.0000000000 0.0000000000
7.8532156944 0.0859396085 0.0000000000
7.8628444672 0.1713986099 0.0000000000
9.0000000000 1.1499999762 0.0000000000
8.9140605927 1.1467844248 0.0000000000
-0.5231106281 -6.9804267883 0.0000000000
6.9804267883 0.5231106281 0.0000000000
7.8788328171 0.2558990717 0.0000000000
7.9010910988 0.3389684558 0.0000000000
7.9294953346 0.4201421738 0.0000000000
7.9638857841 0.4989663064 0.0000000000
8.0040712357 0.5749999881 0.0000000000
-1.0432958603 -6.9218158722 0.0000000000
6.9218158722 1.0432958603 0.0000000000
8.0498256683 0.6478180885 0.0000000000
8.1008939743 0.7170132995 0.0000000000
8.1569900513 0.7821986675 0.0000000000
8.2178010941 0.8430096507 0.0000000000
6.8244953156 1.5576465130 0.0000000000
8.2829866409 0.8991062045 0.0000000000
8.3521823883 0.9501745701 0.0000000000
8.4250001907 0.9959292412 0.0000000000
8.5010337830 1.0361142159 0.0000000000
-1.5576465130 -6.8244953156 0.0000000000
6.6890096664 2.0632863045 0.0000000000
8.6610317230 1.0989087820 0.0000000000
8.5798578262 1.0705047846 0.0000000000
8.7441005707 1.1211670637 0.0000000000
-2.0632863045 -6.6890096664 0.0000000000
6.5161161423 2.5573871136 0.0000000000
8.8286018372 1.1371554136 0.0000000000
-2.5573871136 -6.5161161423 0.0000000000
6.3067822456 3.0371861458 0.0000000000
-3.0371861458 -6.3067822456 0.0000000000
6.0621776581 3.5000000000 0.0000000000
-3.5000000000 -6.0621776581 0.0000000000
5.7836713791 3.9432404041 0.0000000000
-3.9432404041 -5.7836713791 0.0000000000
5.4728202820 4.3644285202 0.0000000000
-4.3644285202 -5.4728202820 0.0000000000
5.1313629150 4.7612090111 0.0000000000
-4.7612090111 -5.1313629150 0.0000000000
4.7612090111 5.1313629150 0.0000000000
-5.1313629150 -4.7612090111 0.0000000000
-5.4728202820 -4.3644285202 0.0000000000
4.3644285202 5.4728202820 0.0000000000
3.9432404041 5.7836713791 0.0000000000
-5.7836713791 -3.9432404041 0.0000000000
3.5000000000 6.0621776581 0.0000000000
3.0371861458 6.3067822456 0.0000000000
-6.0621776581 -3.5000000000 0.0000000000
-6.3067822456 -3.0371861458 0.0000000000
2.5573871136 6.5161161423 0.0000000000
2.0632863045 6.6890096664 0.0000000000
-6.5161161423 -2.5573871136 0.0000000000
-8.2178010941 -0.8430096507 0.0000000000
-6.9218158722 -1.0432958603 0.0000000000
-6.8244953156 -1.5576465130 0.0000000000
-8.1569900513 -0.7821986675 0.0000000000
-8.1008939743 -0.7170132995 0.0000000000
-8.2829866409 -0.8991062045 0.0000000000
-8.3521823883 -0.9501745701 0.0000000000
-8.0498256683 -0.6478180885 0.0000000000
-8.0040712357 -0.5749999881 0.0000000000
-6.9804267883 -0.5231106281 0.0000000000
-8.4250001907 -0.9959292412 0.0000000000
-7.9638857841 -0.4989663064 0.0000000000
-8.5010337830 -1.0361142159 0.0000000000
-6.6890096664 -2.0632863045 0.0000000000
-7.9294953346 -0.4201421738 0.0000000000
-8.5798578262 -1.0705047846 0.0000000000
-8.6610317230 -1.0989087820 0.0000000000
-7.9010910988 -0.3389684558 0.0000000000
-8.7441005707 -1.1211670637 0.0000000000
-7.8788328171 -0.2558990717 0.0000000000
-7.8628444672 -0.1713986099 0.0000000000
-7.0000000000 -0.0000000000 0.0000000000
-8.8286018372 -1.1371554136 0.0000000000
-8.9140605927 -1.1467844248 0.0000000000
-7.8532156944 -0.0859396085 0.0000000000
-7.8499999046 0.0000000000 0.0000000000
-9.0000000000 -1.1499999762 0.0000000000
-7.8532156944 0.0859396085 0.0000000000
-9.0859394073 -1.1467844248 0.0000000000
-9.1713981628 -1.1371554136 0.0000000000
-7.8628444672 0.1713986099 0.0000000000
-6.9804267883 0.5231106281 0.0000000000
-7.8788328171 0.2558990717 0.0000000000
-9.2558994293 -1.1211670637 0.0000000000
-7.9010910988 0.3389684558 0.0000000000
-9.3389682770 -1.0989087820 0.0000000000
-7.9294953346 0.4201421738 0.0000000000
-9.4201421738 -1.0705047846 0.0000000000
-7.9638857841 0.4989663064 0.0000000000
-8.0040712357 0.5749999881 0.0000000000
-6.9218158722 1.0432958603 0.0000000000
-8.0498256683 0.6478180885 0.0000000000
-8.1008939743 0.7170132995 0.0000000000
-8.1569900513 0.7821986675 0.0000000000
1.5576465130 6.8244953156 0.0000000000
-9.4989662170 -1.0361142159 0.0000000000
-9.5749998093 -0.9959292412 0.0000000000
-9.6478176117 -0.9501745701 0.0000000000
-9.7170133591 -0.8991062045 0.0000000000
-8.2178010941 0.8430096507 0.0000000000
-6.8244953156 1.5576465130 0.0000000000
-8.2829866409 0.8991062045 0.0000000000
-8.3521823883 0.9501745701 0.0000000000
-8.4250001907 0.9959292412 0.0000000000
-8.5010337830 1.0361142159 0.0000000000
-6.6890096664 2.0632863045 0.0000000000
-8.5798578262 1.0705047846 0.0000000000
-8.6610317230 1.0989087820 0.0000000000
-8.7441005707 1.1211670637 0.0000000000
-6.5161161423 2.5573871136 0.0000000000
-8.8286018372 1.1371554136 0.0000000000
-8.9140605927 1.1467844248 0.0000000000
1.0432958603 6.9218158722 0.0000000000
0.5231106281 6.9804267883 0.0000000000
-9.7821989059 -0.8430096507 0.0000000000
-9.8430099487 -0.7821986675 0.0000000000
-9.8991060257 -0.7170132995 0.0000000000
-9.9501743317 -0.6478180885 0.0000000000
-9.9959287643 -0.5749999881 0.0000000000
-10.0361137390 -0.4989663064 0.0000000000
-10.0705051422 -0.4201421738 0.0000000000
-10.0989084244 -0.3389684558 0.0000000000
-10.1211671829 -0.2558990717 0.0000000000
0.0000000000 7.0000000000 0.0000000000
-10.1371555328 -0.1713986099 0.0000000000
-10.1467847824 -0.0859396085 0.0000000000
-10.1499996185 -0.0000000000 0.0000000000
-10.1467847824 0.0859396085 0.0000000000
-10.1371555328 0.1713986099 0.0000000000
-10.1211671829 0.2558990717 0.0000000000
-10.0989084244 0.3389684558 0.0000000000
-10.0705051422 0.4201421738 0.0000000000
-10.0361137390 0.4989663064 0.0000000000
-9.9959287643 0.5749999881 0.0000000000
-9.9501743317 0.6478180885 0.0000000000
-0.5231106281 6.9804267883 0.0000000000
-1.0432958603 6.9218158722 0.0000000000
-9.8991060257 0.7170132995 0.0000000000
-9.8430099487 0.7821986675 0.0000000000
-9.7821989059 0.8430096507 0.0000000000
-9.7170133591 0.8991062045 0.0000000000
-9.6478176117 0.9501745701 0.0000000000
-9.5749998093 0.9959292412 0.0000000000
-9.4989662170 1.0361142159 0.0000000000
-9.4201421738 1.0705047846 0.0000000000
-1.5576465130 6.8244953156 0.0000000000
-2.0632863045 6.6890096664 0.0000000000
-9.3389682770 1.0989087820 0.0000000000
-9.2558994293 1.1211670637 0.0000000000
-9.1713981628 1.1371554136 0.0000000000
-9.0859394073 1.1467844248 0.0000000000
-2.5573871136 6.5161161423 0.0000000000
-9.0000000000 1.1499999762 0.0000000000
-3.0371861458 6.3067822456 0.0000000000
-3.5000000000 6.0621776581 0.0000000000
-6.3067822456 3.0371861458 0.0000000000
-6.0621776581 3.5000000000 0.0000000000
-5.7836713791 3.9432404041 0.0000000000
-3.9432404041 5.7836713791 0.0000000000
-5.4728202820 4.3644285202 0.0000000000
-4.3644285202 5.4728202820 0.0000000000
-5.1313629150 4.7612090111 0.0000000000
-4.7612090111 5.1313629150 0.0000000000
9.8430099487 -0.7821986675 2.0000000000
9.7821989059 -0.8430096507 2.0000000000
9.7170133591 -0.8991062045 2.0000000000
9.8991060257 -0.7170132995 2.0000000000
9.6478176117 -0.9501745701 2.0000000000
9.9501743317 -0.6478180885 2.0000000000
9.5749998093 -0.9959292412 2.0000000000
9.9959287643 -0.5749999881 2.0000000000
10.0361137390 -0.4989663064 2.0000000000
9.4989662170 -1.0361142159 2.0000000000
9.4201421738 -1.0705047846 2.0000000000
10.0705051422 -0.4201421738 2.0000000000
9.3389682770 -1.0989087820 2.0000000000
10.0989084244 -0.3389684558 2.0000000000
9.2558994293 -1.1211670637 2.0000000000
10.1211671829 -0.2558990717 2.0000000000
9.1713981628 -1.1371554136 2.0000000000
10.1371555328 -0.1713986099 2.0000000000
9.0859394073 -1.1467844248 2.0000000000
10.1467847824 -0.0859396085 2.0000000000
9.0000000000 -1.1499999762 2.0000000000
10.1499996185 0.0000000000 2.0000000000
8.9140605927 -1.1467844248 2.0000000000
10.1467847824 0.0859396085 2.0000000000
10.1371555328 0.1713986099 2.0000000000
4.7612090111 -5.1313629150 2.0000000000
5.1313629150 -4.7612090111 2.0000000000
10.1211671829 0.2558990717 2.0000000000
4.3644285202 -5.4728202820 2.0000000000
5.4728202820 -4.3644285202 2.0000000000
10.0989084244 0.3389684558 2.0000000000
3.9432404041 -5.7836713791 2.0000000000
5.7836713791 -3.9432404041 2.0000000000
10.0705051422 0.4201421738 2.0000000000
3.5000000000 -6.0621776581 2.0000000000
6.0621776581 -3.5000000000 2.0000000000
10.0361137390 0.4989663064 2.0000000000
9.9959287643 0.5749999881 2.0000000000
3.0371861458 -6.3067822456 2.0000000000
6.3067822456 -3.0371861458 2.0000000000
9.9501743317 0.6478180885 2.0000000000
9.8991060257 0.7170132995 2.0000000000
2.5573871136 -6.5161161423 2.0000000000
6.5161161423 -2.5573871136 2.0000000000
8.8286018372 -1.1371554136 2.0000000000
8.7441005707 -1.1211670637 2.0000000000
9.8430099487 0.7821986675 2.0000000000
9.7821989059 0.8430096507 2.0000000000
9.7170133591 0.8991062045 2.0000000000
2.0632863045 -6.6890096664 2.0000000000
6.6890096664 -2.0632863045 2.0000000000
8.6610317230 -1.0989087820 2.0000000000
8.5798578262 -1.0705047846 2.0000000000
8.5010337830 -1.0361142159 2.0000000000
9.6478176117 0.9501745701 2.0000000000
9.5749998093 0.9959292412 2.0000000000
9.4989662170 1.0361142159 2.0000000000
1.5576465130 -6.8244953156 2.0000000000
6.8244953156 -1.5576465130 2.0000000000
8.4250001907 -0.9959292412 2.0000000000
8.3521823883 -0.9501745701 2.0000000000
8.2829866409 -0.8991062045 2.0000000000
8.2178010941 -0.8430096507 2.0000000000
9.4201421738 1.0705047846 2.0000000000
1.0432958603 -6.9218158722 2.0000000000
6.9218158722 -1.0432958603 2.0000000000
8.1569900513 -0.7821986675 2.0000000000
8.1008939743 -0.7170132995 2.0000000000
8.0498256683 -0.6478180885 2.0000000000
8.0040712357 -0.5749999881 2.0000000000
9.0859394073 1.1467844248 2.0000000000
9.1713981628 1.1371554136 2.0000000000
9.2558994293 1.1211670637 2.0000000000
9.3389682770 1.0989087820 2.0000000000
0.5231106281 -6.9804267883 2.0000000000
6.9804267883 -0.5231106281 2.0000000000
7.9638857841 -0.4989663064 2.0000000000
7.9294953346 -0.4201421738 2.0000000000
7.9010910988 -0.3389684558 2.0000000000
7.8788328171 -0.2558990717 2.0000000000
7.8628444672 -0.1713986099 2.0000000000
0.0000000000 -7.0000000000 2.0000000000
7.0000000000 0.0000000000 2.0000000000
7.8532156944 -0.0859396085 2.0000000000
7.8499999046 -0.0000000000 2.0000000000
7.8532156944 0.0859396085 2.0000000000
7.8628444672 0.1713986099 2.0000000000
8.9140605927 1.1467844248 2.0000000000
9.0000000000 1.1499999762 2.0000000000
-0.5231106281 -6.9804267883 2.0000000000
6.9804267883 0.5231106281 2.0000000000
7.8788328171 0.2558990717 2.0000000000
7.9010910988 0.3389684558 2.0000000000
7.9294953346 0.4201421738 2.0000000000
7.9638857841 0.4989663064 2.0000000000
8.0040712357 0.5749999881 2.0000000000
-1.0432958603 -6.9218158722 2.0000000000
6.9218158722 1.0432958603 2.0000000000
8.0498256683 0.6478180885 2.0000000000
8.1008939743 0.7170132995 2.0000000000
8.1569900513 0.7821986675 2.0000000000
8.2178010941 0.8430096507 2.0000000000
6.8244953156 1.5576465130 2.0000000000
8.2829866409 0.8991062045 2.0000000000
8.3521823883 0.9501745701 2.0000000000
8.4250001907 0.9959292412 2.0000000000
8.5010337830 1.0361142159 2.0000000000
-1.5576465130 -6.8244953156 2.0000000000
6.6890096664 2.0632863045 2.0000000000
8.5798578262 1.0705047846 2.0000000000
8.6610317230 1.0989087820 2.0000000000
8.7441005707 1.1211670637 2.0000000000
-2.0632863045 -6.6890096664 2.0000000000
6.5161161423 2.5573871136 2.0000000000
8.8286018372 1.1371554136 2.0000000000
-2.5573871136 -6.5161161423 2.0000000000
6.3067822456 3.0371861458 2.0000000000
-3.0371861458 -6.3067822456 2.0000000000
6.0621776581 3.5000000000 2.0000000000
-3.5000000000 -6.0621776581 2.0000000000
5.7836713791 3.9432404041 2.0000000000
-3.9432404041 -5.7836713791 2.0000000000
5.4728202820 4.3644285202 2.0000000000
-4.3644285202 -5.4728202820 2.0000000000
5.1313629150 4.7612090111 2.0000000000
-4.7612090111 -5.1313629150 2.0000000000
4.7612090111 5.1313629150 2.0000000000
-5.1313629150 -4.7612090111 2.0000000000
-5.4728202820 -4.3644285202 2.0000000000
4.3644285202 5.4728202820 2.0000000000
3.9432404041 5.7836713791 2.0000000000
-5.7836713791 -3.9432404041 2.0000000000
3.0371861458 6.3067822456 2.0000000000
3.5000000000 6.0621776581 2.0000000000
-6.0621776581 -3.5000000000 2.0000000000
-6.3067822456 -3.0371861458 2.0000000000
2.0632863045 6.6890096664 2.0000000000
2.5573871136 6.5161161423 2.0000000000
-6.5161161423 -2.5573871136 2.0000000000
-8.2178010941 -0.8430096507 2.0000000000
-6.8244953156 -1.5576465130 2.0000000000
-6.9218158722 -1.0432958603 2.0000000000
-8.1569900513 -0.7821986675 2.0000000000
-8.1008939743 -0.7170132995 2.0000000000
-8.2829866409 -0.8991062045 2.0000000000
-8.3521823883 -0.9501745701 2.0000000000
-8.0498256683 -0.6478180885 2.0000000000
-8.0040712357 -0.5749999881 2.0000000000
-6.9804267883 -0.5231106281 2.0000000000
-8.4250001907 -0.9959292412 2.0000000000
-7.9638857841 -0.4989663064 2.0000000000
-8.5010337830 -1.0361142159 2.0000000000
-6.6890096664 -2.0632863045 2.0000000000
-7.9294953346 -0.4201421738 2.0000000000
-8.5798578262 -1.0705047846 2.0000000000
-8.6610317230 -1.0989087820 2.0000000000
-7.9010910988 -0.3389684558 2.0000000000
-8.7441005707 -1.1211670637 2.0000000000
-7.8788328171 -0.2558990717 2.0000000000
-7.8628444672 -0.1713986099 2.0000000000
-7.0000000000 -0.0000000000 2.0000000000
-8.8286018372 -1.1371554136 2.0000000000
-8.9140605927 -1.1467844248 2.0000000000
-7.8532156944 -0.0859396085 2.0000000000
-7.8499999046 0.0000000000 2.0000000000
-9.0000000000 -1.1499999762 2.0000000000
-7.8532156944 0.0859396085 2.0000000000
-9.0859394073 -1.1467844248 2.0000000000
-9.1713981628 -1.1371554136 2.0000000000
-7.8628444672 0.1713986099 2.0000000000
-6.9804267883 0.5231106281 2.0000000000
-7.8788328171 0.2558990717 2.0000000000
-9.2558994293 -1.1211670637 2.0000000000
-7.9010910988 0.3389684558 2.0000000000
-9.3389682770 -1.0989087820 2.0000000000
-7.9294953346 0.4201421738 2.0000000000
-9.4201421738 -1.0705047846 2.0000000000
-7.9638857841 0.4989663064 2.0000000000
-8.0040712357 0.5749999881 2.0000000000
-6.9218158722 1.0432958603 2.0000000000
-8.0498256683 0.6478180885 2.0000000000
-8.1008939743 0.7170132995 2.0000000000
-8.1569900513 0.7821986675 2.0000000000
1.5576465130 6.8244953156 2.0000000000
-9.4989662170 -1.0361142159 2.0000000000
-9.5749998093 -0.9959292412 2.0000000000
-9.6478176117 -0.9501745701 2.0000000000
-9.7170133591 -0.8991062045 2.0000000000
-8.2178010941 0.8430096507 2.0000000000
-6.8244953156 1.5576465130 2.0000000000
-8.2829866409 0.8991062045 2.0000000000
-8.3521823883 0.9501745701 2.0000000000
-8.4250001907 0.9959292412 2.0000000000
-8.5010337830 1.0361142159 2.0000000000
-6.6890096664 2.0632863045 2.0000000000
-8.5798578262 1.0705047846 2.0000000000
-8.6610317230 1.0989087820 2.0000000000
-8.7441005707 1.1211670637 2.0000000000
-6.5161161423 2.5573871136 2.0000000000
-8.8286018372 1.1371554136 2.0000000000
-8.9140605927 1.1467844248 2.0000000000
0.5231106281 6.9804267883 2.0000000000
1.0432958603 6.9218158722 2.0000000000
-9.7821989059 -0.8430096507 2.0000000000
-9.8430099487 -0.7821986675 2.0000000000
-9.8991060257 -0.7170132995 2.0000000000
-9.9501743317 -0.6478180885 2.0000000000
-9.9959287643 -0.5749999881 2.0000000000
-10.0361137390 -0.4989663064 2.0000000000
-10.0705051422 -0.4201421738 2.0000000000
-10.0989084244 -0.3389684558 2.0000000000
-10.1211671829 -0.2558990717 2.0000000000
0.0000000000 7.0000000000 2.0000000000
-10.1371555328 -0.1713986099 2.0000000000
-10.1467847824 -0.0859396085 2.0000000000
-10.1499996185 -0.0000000000 2.0000000000
-10.1467847824 0.0859396085 2.0000000000
-10.1371555328 0.1713986099 2.0000000000
-10.1211671829 0.2558990717 2.0000000000
-10.0989084244 0.3389684558 2.0000000000
-10.0705051422 0.4201421738 2.0000000000
-10.0361137390 0.4989663064 2.0000000000
-9.9959287643 0.5749999881 2.0000000000
-9.9501743317 0.6478180885 2.0000000000
-0.5231106281 6.9804267883 2.0000000000
-1.0432958603 6.9218158722 2.0000000000
-9.8991060257 0.7170132995 2.0000000000
-9.8430099487 0.7821986675 2.0000000000
-9.7821989059 0.8430096507 2.0000000000
-9.7170133591 0.8991062045 2.0000000000
-9.6478176117 0.9501745701 2.0000000000
-9.5749998093 0.9959292412 2.0000000000
-9.4989662170 1.0361142159 2.0000000000
-9.4201421738 1.0705047846 2.0000000000
-2.0632863045 6.6890096664 2.0000000000
-1.5576465130 6.8244953156 2.0000000000
-9.3389682770 1.0989087820 2.0000000000
-9.2558994293 1.1211670637 2.0000000000
-9.1713981628 1.1371554136 2.0000000000
-9.0859394073 1.1467844248 2.0000000000
-2.5573871136 6.5161161423 2.0000000000
-9.0000000000 1.1499999762 2.0000000000
-3.5000000000 6.0621776581 2.0000000000
-3.0371861458 6.3067822456 2.0000000000
-6.3067822456 3.0371861458 2.0000000000
-6.0621776581 3.5000000000 2.0000000000
-5.7836713791 3.9432404041 2.0000000000
-3.9432404041 5.7836713791 2.0000000000
-5.4728202820 4.3644285202 2.0000000000
-4.3644285202 5.4728202820 2.0000000000
-5.1313629150 4.7612090111 2.0000000000
-4.7612090111 5.1313629150 2.0000000000
3 0 1 2
3 0 2 3
3 4 0 3
3 4 3 5
3 6 5 7
3 6 4 5
3 8 7 9
3 8 6 7
3 10 9 11
3 10 8 9
3 12 11 13
3 12 13 14
3 12 10 11
3 15 12 14
3 16 15 14
3 16 14 17
3 16 17 18
3 19 16 18
3 20 19 18
3 20 18 21
3 22 20 21
3 22 21 23
3 24 22 23
3 24 23 25
3 26 24 25
3 26 25 27
3 26 27 28
3 29 26 28
3 30 29 28
3 30 28 31
3 32 31 33
3 32 33 34
3 32 30 31
3 35 34 36
3 35 32 34
3 37 35 36
3 38 36 39
3 38 37 36
3 40 39 41
3 40 41 42
3 40 38 39
3 43 40 42
3 44 42 45
3 44 43 42
3 46 45 47
3 46 44 45
3 48 47 49
3 48 46 47
3 50 49 51
3 50 48 49
3 52 51 53
3 52 53 54
3 52 50 51
3 55 52 54
3 56 54 57
3 56 55 54
3 58 57 59
3 58 56 57
3 60 59 61
3 60 58 59
3 62 61 63
3 62 60 61
3 64 62 63
3 64 63 65
3 66 64 65
3 66 65 67
3 68 66 67
3 68 67 69
3 70 68 69
3 70 69 71
3 72 70 71
3 72 71 73
3 74 73 75
3 74 72 73
3 76 75 77
3 76 74 75
3 78 77 79
3 78 76 77
3 80 79 81
3 80 78 79
3 82 81 83
3 82 80 81
3 84 83 85
3 84 82 83
3 86 85 87
3 86 84 85
3 88 87 89
3 88 86 87
3 90 89 91
3 90 88 89
3 92 91 93
3 92 90 91
3 94 93 95
3 94 92 93
3 96 95 97
3 96 94 95
3 98 97 99
3 98 96 97
3 100 99 101
3 100 98 99
3 102 101 103
3 102 100 101
3 104 103 105
3 104 105 106
3 104 102 103
3 107 104 106
3 108 106 109
3 108 107 106
3 110 109 111
3 110 108 109
3 112 111 113
3 112 110 111
3 114 113 115
3 114 112 113
3 116 114 115
3 116 115 117
3 118 116 117
3 118 117 119
3 120 118 119
3 120 119 121
3 122 120 121
3 122 121 123
3 124 122 123
3 124 123 125
3 126 124 125
3 126 125 127
3 128 126 127
3 128 127 129
3 130 128 129
3 130 129 131
3 132 130 131
3 132 131 133
3 134 132 133
3 134 133 135
3 136 134 135
3 136 135 137
3 138 136 137
3 138 137 139
3 140 138 139
3 140 139 141
3 142 140 141
3 142 141 143
3 144 143 145
3 144 142 143
3 146 145 147
3 146 144 145
3 148 147 149
3 148 146 147
3 150 149 151
3 150 148 149
3 152 151 153
3 152 150 151
3 154 153 155
3 154 152 153
3 156 155 157
3 156 154 155
3 158 157 159
3 158 156 157
3 160 159 161
3 160 158 159
3 162 161 163
3 162 160 161
3 164 163 165
3 164 162 163
3 166 164 165
3 166 165 167
3 1 166 167
3 1 167 2
3 168 88 169
3 170 88 90
3 170 169 88
3 171 88 168
3 172 170 90
3 173 86 88
3 173 88 171
3 174 172 90
3 175 86 173
3 176 86 175
3 177 174 90
3 178 90 92
3 178 177 90
3 179 86 176
3 180 178 92
3 181 86 179
3 182 180 92
3 183 86 181
3 183 84 86
3 184 182 92
3 185 84 183
3 186 184 92
3 186 92 94
3 187 84 185
3 188 186 94
3 189 84 187
3 190 188 94
3 191 84 189
3 192 84 191
3 193 107 108
3 194 107 193
3 194 104 107
3 195 84 192
3 195 82 84
3 196 193 108
3 197 104 194
3 197 102 104
3 198 82 195
3 199 196 108
3 199 108 110
3 200 100 102
3 200 102 197
3 201 82 198
3 202 110 112
3 202 199 110
3 203 98 100
3 203 100 200
3 204 82 201
3 205 82 204
3 206 112 114
3 206 202 112
3 207 98 203
3 207 96 98
3 208 80 82
3 208 82 205
3 209 80 208
3 210 114 116
3 210 116 118
3 210 206 114
3 211 190 94
3 211 94 96
3 211 212 190
3 211 213 212
3 211 96 207
3 214 80 209
3 215 80 214
3 216 80 215
3 216 78 80
3 217 210 118
3 217 118 120
3 218 213 211
3 218 219 213
3 218 220 219
3 218 221 220
3 222 78 216
3 223 78 222
3 224 78 223
3 225 217 120
3 225 120 122
3 226 227 221
3 226 228 227
3 226 229 228
3 226 230 229
3 226 221 218
3 231 78 224
3 232 225 122
3 233 234 230
3 233 235 234
3 233 236 235
3 233 237 236
3 233 230 226
3 76 238 239
3 76 240 238
3 76 241 240
3 76 231 241
3 76 78 231
3 242 122 124
3 242 232 122
3 243 244 237
3 243 245 244
3 243 246 245
3 243 247 246
3 243 248 247
3 243 237 233
3 249 242 124
3 249 124 126
3 250 248 243
3 250 251 248
3 250 252 251
3 250 253 252
3 250 254 253
3 74 255 256
3 74 239 255
3 74 76 239
3 257 126 128
3 257 249 126
3 258 254 250
3 258 259 254
3 258 260 259
3 258 261 260
3 258 262 261
3 258 263 262
3 264 257 128
3 264 128 130
3 264 130 132
3 265 263 258
3 265 266 263
3 265 267 266
3 265 268 267
3 265 269 268
3 270 269 265
3 270 271 269
3 270 272 271
3 270 273 272
3 270 274 273
3 275 264 132
3 276 277 278
3 276 279 277
3 276 274 270
3 276 278 274
3 280 132 134
3 280 275 132
3 281 282 279
3 281 256 282
3 281 279 276
3 281 74 256
3 283 280 134
3 283 134 136
3 284 70 72
3 284 74 281
3 284 72 74
3 285 136 138
3 285 283 136
3 286 70 284
3 287 285 138
3 287 138 140
3 288 68 70
3 288 70 286
3 289 287 140
3 289 140 142
3 290 66 68
3 290 68 288
3 291 289 142
3 291 142 144
3 292 64 66
3 292 66 290
3 293 291 144
3 293 144 146
3 294 64 292
3 62 64 294
3 148 295 293
3 148 293 146
3 296 295 148
3 60 62 294
3 60 294 297
3 150 296 148
3 58 60 297
3 58 297 298
3 152 299 296
3 152 296 150
3 56 300 301
3 56 298 300
3 56 58 298
3 154 302 299
3 154 299 152
3 55 56 301
3 156 302 154
3 156 303 302
3 52 55 301
3 52 304 305
3 52 301 304
3 158 303 156
3 158 306 303
3 307 308 309
3 310 308 307
3 311 308 310
3 312 307 309
3 313 312 309
3 314 308 311
3 315 308 314
3 315 316 308
3 317 313 309
3 318 316 315
3 319 309 320
3 319 317 309
3 321 316 318
3 322 319 320
3 323 322 320
3 324 316 321
3 325 320 306
3 325 323 320
3 326 316 324
3 327 328 316
3 327 316 326
3 329 325 306
3 330 306 158
3 330 329 306
3 331 328 327
3 332 328 331
3 333 330 158
3 50 52 305
3 334 328 332
3 335 158 160
3 335 333 158
3 336 335 160
3 337 338 328
3 337 328 334
3 339 338 337
3 340 336 160
3 341 338 339
3 342 340 160
3 343 338 341
3 344 342 160
3 345 338 343
3 346 338 345
3 346 347 338
3 348 347 346
3 349 347 348
3 350 347 349
3 48 50 305
3 48 305 351
3 162 344 160
3 162 352 344
3 162 353 352
3 162 354 353
3 162 355 354
3 356 347 350
3 356 357 347
3 358 357 356
3 359 357 358
3 360 357 359
3 361 357 360
3 361 362 357
3 363 362 361
3 364 362 363
3 365 362 364
3 365 366 362
3 367 366 365
3 368 366 367
3 46 48 351
3 46 369 370
3 46 351 369
3 164 371 355
3 164 372 371
3 164 373 372
3 164 374 373
3 164 355 162
3 44 46 370
3 166 375 374
3 166 376 375
3 166 377 376
3 166 378 377
3 166 379 378
3 166 374 164
3 43 44 370
3 43 370 380
3 1 379 166
3 1 381 379
3 1 382 381
3 1 383 382
3 1 384 383
3 1 385 384
3 1 386 385
3 0 386 1
3 0 387 386
3 0 388 387
3 0 389 388
3 0 390 389
3 0 391 390
3 40 43 380
3 40 380 392
3 38 40 392
3 38 392 393
3 4 391 0
3 4 394 391
3 4 395 394
3 4 396 395
3 4 397 396
3 6 397 4
3 6 398 397
3 6 399 398
3 6 400 399
3 6 401 400
3 37 38 393
3 37 402 403
3 37 393 402
3 35 37 403
3 8 401 6
3 8 404 401
3 8 405 404
3 8 406 405
3 8 407 406
3 32 35 403
3 32 403 408
3 10 407 8
3 10 409 407
3 10 368 409
3 10 366 368
3 30 32 408
3 30 410 411
3 30 408 410
3 12 412 366
3 12 366 10
3 15 412 12
3 15 413 412
3 15 414 413
3 29 411 415
3 29 30 411
3 16 414 15
3 26 29 415
3 19 416 414
3 19 414 16
3 24 415 417
3 24 26 415
3 20 418 416
3 20 416 19
3 22 24 417
3 22 419 418
3 22 417 419
3 22 418 20
3 420 421 89
3 422 91 89
3 422 89 421
3 423 420 89
3 424 91 422
3 425 89 87
3 425 423 89
3 426 91 424
3 427 425 87
3 428 427 87
3 429 91 426
3 430 93 91
3 430 91 429
3 431 428 87
3 432 93 430
3 433 431 87
3 434 93 432
3 435 433 87
3 435 87 85
3 436 93 434
3 437 435 85
3 438 93 436
3 438 95 93
3 439 437 85
3 440 95 438
3 441 439 85
3 442 95 440
3 443 441 85
3 444 443 85
3 445 109 106
3 446 445 106
3 446 106 105
3 447 444 85
3 447 85 83
3 448 109 445
3 449 446 105
3 449 105 103
3 450 447 83
3 451 109 448
3 451 111 109
3 452 103 101
3 452 449 103
3 453 450 83
3 454 113 111
3 454 111 451
3 455 101 99
3 455 452 101
3 456 453 83
3 457 456 83
3 458 115 113
3 458 113 454
3 459 455 99
3 459 99 97
3 460 83 81
3 460 457 83
3 461 460 81
3 462 117 115
3 462 119 117
3 462 115 458
3 463 95 442
3 463 97 95
3 463 442 464
3 463 464 465
3 463 459 97
3 466 461 81
3 467 466 81
3 468 467 81
3 468 81 79
3 469 119 462
3 469 121 119
3 470 463 465
3 470 465 471
3 470 471 472
3 470 472 473
3 474 468 79
3 475 474 79
3 476 475 79
3 477 121 469
3 477 123 121
3 478 473 479
3 478 479 480
3 478 480 481
3 478 481 482
3 478 470 473
3 483 476 79
3 484 123 477
3 485 482 486
3 485 486 487
3 485 487 488
3 485 488 489
3 485 478 482
3 77 490 491
3 77 491 492
3 77 492 493
3 77 493 483
3 77 483 79
3 494 125 123
3 494 123 484
3 495 489 496
3 495 496 497
3 495 497 498
3 495 498 499
3 495 499 500
3 495 485 489
3 501 125 494
3 501 127 125
3 502 495 500
3 502 500 503
3 502 503 504
3 502 504 505
3 502 505 506
3 75 507 508
3 75 508 490
3 75 490 77
3 509 129 127
3 509 127 501
3 510 502 506
3 510 506 511
3 510 511 512
3 510 512 513
3 510 513 514
3 510 514 515
3 516 129 509
3 516 131 129
3 516 133 131
3 517 510 515
3 517 515 518
3 517 518 519
3 517 519 520
3 517 520 521
3 522 517 521
3 522 521 523
3 522 523 524
3 522 524 525
3 522 525 526
3 527 133 516
3 528 529 530
3 528 530 531
3 528 522 526
3 528 526 529
3 532 135 133
3 532 133 527
3 533 531 534
3 533 534 507
3 533 528 531
3 533 507 75
3 535 135 532
3 535 137 135
3 536 73 71
3 536 533 75
3 536 75 73
3 537 139 137
3 537 137 535
3 538 536 71
3 539 139 537
3 539 141 139
3 540 71 69
3 540 538 71
3 541 141 539
3 541 143 141
3 542 69 67
3 542 540 69
3 543 143 541
3 543 145 143
3 544 67 65
3 544 542 67
3 545 145 543
3 545 147 145
3 546 544 65
3 63 546 65
3 149 545 547
3 149 147 545
3 548 149 547
3 61 546 63
3 61 549 546
3 151 149 548
3 59 549 61
3 59 550 549
3 153 548 551
3 153 151 548
3 57 552 553
3 57 553 550
3 57 550 59
3 155 551 554
3 155 153 551
3 54 552 57
3 157 155 554
3 157 554 555
3 53 552 54
3 53 556 557
3 53 557 552
3 159 157 555
3 159 555 558
3 559 560 561
3 562 559 561
3 563 562 561
3 564 560 559
3 565 560 564
3 566 563 561
3 567 566 561
3 567 561 568
3 569 560 565
3 570 567 568
3 571 572 560
3 571 560 569
3 573 570 568
3 574 572 571
3 575 572 574
3 576 573 568
3 577 558 572
3 577 572 575
3 578 576 568
3 579 568 580
3 579 578 568
3 581 558 577
3 582 159 558
3 582 558 581
3 583 579 580
3 584 583 580
3 585 159 582
3 51 556 53
3 586 584 580
3 587 161 159
3 587 159 585
3 588 161 587
3 589 580 590
3 589 586 580
3 591 589 590
3 592 161 588
3 593 591 590
3 594 161 592
3 595 593 590
3 596 161 594
3 597 595 590
3 598 597 590
3 598 590 599
3 600 598 599
3 601 600 599
3 602 601 599
3 49 556 51
3 49 603 556
3 163 161 596
3 163 596 604
3 163 604 605
3 163 605 606
3 163 606 607
3 608 602 599
3 608 599 609
3 610 608 609
3 611 610 609
3 612 611 609
3 613 612 609
3 613 609 614
3 615 613 614
3 616 615 614
3 617 616 614
3 617 614 618
3 619 617 618
3 620 619 618
3 47 603 49
3 47 621 622
3 47 622 603
3 165 607 623
3 165 623 624
3 165 624 625
3 165 625 626
3 165 163 607
3 45 621 47
3 167 626 627
3 167 627 628
3 167 628 629
3 167 629 630
3 167 630 631
3 167 165 626
3 42 621 45
3 42 632 621
3 2 167 631
3 2 631 633
3 2 633 634
3 2 634 635
3 2 635 636
3 2 636 637
3 2 637 638
3 3 2 638
3 3 638 639
3 3 639 640
3 3 640 641
3 3 641 642
3 3 642 643
3 41 632 42
3 41 644 632
3 39 644 41
3 39 645 644
3 5 3 643
3 5 643 646
3 5 646 647
3 5 647 648
3 5 648 649
3 7 5 649
3 7 649 650
3 7 650 651
3 7 651 652
3 7 652 653
3 36 645 39
3 36 654 655
3 36 655 645
3 34 654 36
3 9 7 653
3 9 653 656
3 9 656 657
3 9 657 658
3 9 658 659
3 33 654 34
3 33 660 654
3 11 9 659
3 11 659 661
3 11 661 620
3 11 620 618
3 31 660 33
3 31 662 663
3 31 663 660
3 13 618 664
3 13 11 618
3 14 13 664
3 14 664 665
3 14 665 666
3 28 667 662
3 28 662 31
3 17 14 666
3 27 667 28
3 18 666 668
3 18 17 666
3 25 669 667
3 25 667 27
3 21 668 670
3 21 18 668
3 23 669 25
3 23 670 671
3 23 671 669
3 23 21 670
3 253 504 252
3 253 505 504
3 254 505 253
3 254 506 505
3 259 511 506
3 259 506 254
3 260 512 511
3 260 511 259
3 261 513 512
3 261 512 260
3 262 514 513
3 262 513 261
3 263 515 514
3 263 514 262
3 266 515 263
3 266 518 515
3 267 518 266
3 267 519 518
3 268 519 267
3 268 520 519
3 269 520 268
3 269 521 520
3 271 521 269
3 271 523 521
3 272 523 271
3 272 524 523
3 273 524 272
3 273 525 524
3 274 525 273
3 274 526 525
3 278 529 526
3 278 526 274
3 277 530 529
3 277 531 530
3 277 529 278
3 279 531 277
3 282 534 531
3 282 531 279
3 256 507 534
3 256 508 507
3 256 534 282
3 255 508 256
3 239 490 508
3 239 508 255
3 238 491 490
3 238 490 239
3 240 492 491
3 240 491 238
3 241 493 492
3 241 492 240
3 231 483 493
3 231 476 483
3 231 493 241
3 224 476 231
3 223 475 476
3 223 474 475
3 223 476 224
3 222 474 223
3 216 468 474
3 216 474 222
3 215 467 468
3 215 468 216
3 214 467 215
3 214 466 467
3 209 466 214
3 209 461 466
3 208 461 209
3 208 460 461
3 205 460 208
3 205 457 460
3 204 457 205
3 204 456 457
3 201 453 456
3 201 456 204
3 198 450 453
3 198 453 201
3 195 447 450
3 195 450 198
3 192 444 447
3 192 447 195
3 191 443 444
3 191 444 192
3 189 441 443
3 189 443 191
3 187 439 441
3 187 441 189
3 185 437 439
3 185 439 187
3 183 435 437
3 183 437 185
3 181 433 435
3 181 435 183
3 179 431 433
3 179 433 181
3 176 428 431
3 176 431 179
3 175 427 428
3 175 428 176
3 173 425 427
3 173 427 175
3 171 423 425
3 171 425 173
3 168 420 423
3 168 423 171
3 169 421 420
3 169 420 168
3 170 422 421
3 170 421 169
3 172 424 422
3 172 422 170
3 174 426 424
3 174 424 172
3 177 429 426
3 177 426 174
3 178 429 177
3 178 430 429
3 180 430 178
3 180 432 430
3 182 432 180
3 182 434 432
3 184 434 182
3 184 436 434
3 186 436 184
3 186 438 436
3 188 438 186
3 188 440 438
3 190 440 188
3 190 442 440
3 212 442 190
3 212 464 442
3 213 464 212
3 213 465 464
3 219 465 213
3 219 471 465
3 220 471 219
3 220 472 471
3 221 472 220
3 221 473 472
3 227 473 221
3 227 479 473
3 228 479 227
3 228 480 479
3 229 481 480
3 229 480 228
3 230 482 481
3 230 486 482
3 230 481 229
3 234 486 230
3 235 487 486
3 235 486 234
3 236 488 487
3 236 487 235
3 237 489 488
3 237 488 236
3 244 496 489
3 244 489 237
3 245 497 496
3 245 496 244
3 246 498 497
3 246 497 245
3 247 499 498
3 247 498 246
3 248 500 499
3 248 499 247
3 251 500 248
3 251 503 500
3 252 503 251
3 252 504 503
3 338 580 328
3 338 590 580
3 347 590 338
3 347 599 590
3 357 609 599
3 357 599 347
3 362 614 609
3 362 609 357
3 366 618 614
3 366 614 362
3 412 664 618
3 412 618 366
3 413 665 664
3 413 664 412
3 414 665 413
3 414 666 665
3 416 666 414
3 416 668 666
3 418 668 416
3 418 670 668
3 419 670 418
3 419 671 670
3 417 671 419
3 417 669 671
3 415 669 417
3 415 667 669
3 411 667 415
3 411 662 667
3 410 662 411
3 410 663 662
3 408 660 663
3 408 663 410
3 403 654 660
3 403 655 654
3 403 660 408
3 402 655 403
3 393 645 655
3 393 655 402
3 392 644 645
3 392 632 644
3 392 645 393
3 380 632 392
3 370 621 632
3 370 632 380
3 369 622 621
3 369 621 370
3 351 603 622
3 351 622 369
3 305 556 603
3 305 603 351
3 304 557 556
3 304 552 557
3 304 556 305
3 301 552 304
3 300 553 552
3 300 550 553
3 300 552 301
3 298 550 300
3 297 549 550
3 297 550 298
3 294 546 549
3 294 549 297
3 292 546 294
3 292 544 546
3 290 544 292
3 290 542 544
3 288 542 290
3 288 540 542
3 286 540 288
3 286 538 540
3 284 538 286
3 284 536 538
3 281 533 536
3 281 536 284
3 276 528 533
3 276 533 281
3 270 522 528
3 270 528 276
3 265 517 522
3 265 522 270
3 258 510 517
3 258 517 265
3 250 502 510
3 250 510 258
3 243 495 502
3 243 502 250
3 233 485 495
3 233 495 243
3 226 478 485
3 226 485 233
3 218 470 478
3 218 478 226
3 211 463 470
3 211 470 218
3 207 459 463
3 207 463 211
3 203 455 459
3 203 459 207
3 200 452 455
3 200 455 203
3 197 449 452
3 197 452 200
3 194 446 449
3 194 449 197
3 193 445 446
3 193 446 194
3 196 448 445
3 196 445 193
3 199 451 448
3 199 448 196
3 202 454 451
3 202 451 199
3 206 458 454
3 206 454 202
3 210 458 206
3 210 462 458
3 217 462 210
3 217 469 462
3 225 469 217
3 225 477 469
3 232 477 225
3 232 484 477
3 242 484 232
3 242 494 484
3 249 494 242
3 249 501 494
3 257 501 249
3 257 509 501
3 264 509 257
3 264 516 509
3 275 516 264
3 275 527 516
3 280 527 275
3 280 532 527
3 283 532 280
3 283 535 532
3 285 535 283
3 285 537 535
3 287 537 285
3 287 539 537
3 289 539 287
3 289 541 539
3 291 543 541
3 291 541 289
3 293 545 543
3 293 547 545
3 293 543 291
3 295 547 293
3 296 548 547
3 296 547 295
3 299 551 548
3 299 548 296
3 302 554 551
3 302 551 299
3 303 555 554
3 303 554 302
3 306 558 555
3 306 555 303
3 320 572 558
3 320 558 306
3 309 560 572
3 309 572 320
3 308 561 560
3 308 560 309
3 316 561 308
3 316 568 561
3 328 568 316
3 328 580 568
3 384 635 383
3 384 636 635
3 385 636 384
3 385 637 636
3 386 638 637
3 386 637 385
3 387 639 638
3 387 638 386
3 388 640 639
3 388 639 387
3 389 641 640
3 389 640 388
3 390 642 641
3 390 641 389
3 391 642 390
3 391 643 642
3 394 643 391
3 394 646 643
3 395 646 394
3 395 647 646
3 396 647 395
3 396 648 647
3 397 648 396
3 397 649 648
3 398 649 397
3 398 650 649
3 399 650 398
3 399 651 650
3 400 651 399
3 400 652 651
3 401 653 652
3 401 652 400
3 404 656 653
3 404 657 656
3 404 653 401
3 405 657 404
3 406 658 657
3 406 657 405
3 407 659 658
3 407 661 659
3 407 658 406
3 409 661 407
3 368 620 661
3 368 661 409
3 367 619 620
3 367 620 368
3 365 617 619
3 365 619 367
3 364 616 617
3 364 617 365
3 363 615 616
3 363 613 615
3 363 616 364
3 361 613 363
3 360 612 613
3 360 611 612
3 360 613 361
3 359 611 360
3 358 610 611
3 358 611 359
3 356 608 610
3 356 610 358
3 350 608 356
3 350 602 608
3 349 602 350
3 349 601 602
3 348 601 349
3 348 600 601
3 346 600 348
3 346 598 600
3 345 598 346
3 345 597 598
3 343 595 597
3 343 597 345
3 341 593 595
3 341 595 343
3 339 591 593
3 339 593 341
3 337 589 591
3 337 591 339
3 334 586 589
3 334 589 337
3 332 584 586
3 332 586 334
3 331 583 584
3 331 584 332
3 327 579 583
3 327 583 331
3 326 578 579
3 326 579 327
3 324 576 578
3 324 578 326
3 321 573 576
3 321 576 324
3 318 570 573
3 318 573 321
3 315 567 570
3 315 570 318
3 314 566 567
3 314 567 315
3 311 563 566
3 311 566 314
3 310 562 563
3 310 563 311
3 307 559 562
3 307 562 310
3 312 564 559
3 312 559 307
3 313 565 564
3 313 564 312
3 317 569 565
3 317 565 313
3 319 571 569
3 319 569 317
3 322 571 319
3 322 574 571
3 323 574 322
3 323 575 574
3 325 575 323
3 325 577 575
3 329 577 325
3 329 581 577
3 330 581 329
3 330 582 581
3 333 582 330
3 333 585 582
3 335 585 333
3 335 587 585
3 336 587 335
3 336 588 587
3 340 588 336
3 340 592 588
3 342 592 340
3 342 594 592
3 344 594 342
3 344 596 594
3 352 596 344
3 352 604 596
3 353 604 352
3 353 605 604
3 354 605 353
3 354 606 605
3 355 607 606
3 355 606 354
3 371 623 607
3 371 624 623
3 371 607 355
3 372 624 371
3 373 625 624
3 373 624 372
3 374 626 625
3 374 625 373
3 375 627 626
3 375 626 374
3 376 628 627
3 376 627 375
3 377 629 628
3 377 628 376
3 378 630 629
3 378 629 377
3 379 631 630
3 379 630 378
3 381 633 631
3 381 631 379
3 382 633 381
3 382 634 633
3 383 634 382
3 383 635 634
