# https://github.com/mikedh/trimesh

o idler_bearing_retainer.stl
v 11.96644592 0.89676112 2.00000000
v 12.00000000 -0.00000000 2.00000000
v 12.00000000 -0.00000000 0.00000000
v 11.96644592 0.89676112 0.00000000
v 11.86596966 1.78850722 2.00000000
v 11.86596966 1.78850722 0.00000000
v 11.69913483 2.67025113 2.00000000
v 11.69913483 2.67025113 0.00000000
v 11.46687412 3.53706217 2.00000000
v 11.46687412 3.53706217 0.00000000
v 11.17048454 4.38409233 2.00000000
v 11.17048454 4.38409233 0.00000000
v 10.81162643 5.20660496 2.00000000
v 10.81162643 5.20660496 0.00000000
v 10.39230442 6.00000000 2.00000000
v 10.39230442 6.00000000 0.00000000
v 9.91486549 6.75984049 2.00000000
v 9.91486549 6.75984049 0.00000000
v 9.38197803 7.48187780 2.00000000
v 9.38197803 7.48187780 0.00000000
v 8.79662228 8.16207314 2.00000000
v 8.79662228 8.16207314 0.00000000
v 8.16207314 8.79662228 2.00000000
v 8.16207314 8.79662228 0.00000000
v 7.48187780 9.38197803 2.00000000
v 7.48187780 9.38197803 0.00000000
v 6.75984049 9.91486549 2.00000000
v 6.75984049 9.91486549 0.00000000
v 6.00000000 10.39230442 2.00000000
v 6.00000000 10.39230442 0.00000000
v 5.20660496 10.81162643 2.00000000
v 5.20660496 10.81162643 0.00000000
v 4.38409233 11.17048454 2.00000000
v 4.38409233 11.17048454 0.00000000
v 3.53706217 11.46687412 2.00000000
v 3.53706217 11.46687412 0.00000000
v 2.67025113 11.69913483 2.00000000
v 2.67025113 11.69913483 0.00000000
v 1.78850722 11.86596966 2.00000000
v 1.78850722 11.86596966 0.00000000
v 0.89676112 11.96644592 2.00000000
v 0.89676112 11.96644592 0.00000000
v -0.00000000 12.00000000 0.00000000
v -0.00000000 12.00000000 2.00000000
v -0.89676112 11.96644592 0.00000000
v -0.89676112 11.96644592 2.00000000
v -1.78850722 11.86596966 2.00000000
v -1.78850722 11.86596966 0.00000000
v -2.67025113 11.69913483 2.00000000
v -2.67025113 11.69913483 0.00000000
v -3.53706217 11.46687412 2.00000000
v -3.53706217 11.46687412 0.00000000
v -4.38409233 11.17048454 0.00000000
v -4.38409233 11.17048454 2.00000000
v -5.20660496 10.81162643 0.00000000
v -5.20660496 10.81162643 2.00000000
v -6.00000000 10.39230442 2.00000000
v -6.00000000 10.39230442 0.00000000
v -6.75984049 9.91486549 2.00000000
v -6.75984049 9.91486549 0.00000000
v -7.48187780 9.38197803 2.00000000
v -7.48187780 9.38197803 0.00000000
v -8.16207314 8.79662228 2.00000000
v -8.16207314 8.79662228 0.00000000
v -8.79662228 8.16207314 2.00000000
v -8.79662228 8.16207314 0.00000000
v -9.38197803 7.48187780 2.00000000
v -9.38197803 7.48187780 0.00000000
v -9.91486549 6.75984049 2.00000000
v -9.91486549 6.75984049 0.00000000
v -10.39230442 6.00000000 2.00000000
v -10.39230442 6.00000000 0.00000000
v -10.81162643 5.20660496 2.00000000
v -10.81162643 5.20660496 0.00000000
v -11.17048454 4.38409233 2.00000000
v -11.17048454 4.38409233 0.00000000
v -11.46687412 3.53706217 2.00000000
v -11.46687412 3.53706217 0.00000000
v -11.69913483 2.67025113 2.00000000
v -11.69913483 2.67025113 0.00000000
v -11.86596966 1.78850722 2.00000000
v -11.86596966 1.78850722 0.00000000
v -11.96644592 0.89676112 2.00000000
v -11.96644592 0.89676112 0.00000000
v -12.00000000 0.00000000 2.00000000
v -12.00000000 0.00000000 0.00000000
v -11.96644592 -0.89676112 0.00000000
v -11.96644592 -0.89676112 2.00000000
v -11.86596966 -1.78850722 2.00000000
v -11.86596966 -1.78850722 0.00000000
v -11.69913483 -2.67025113 2.00000000
v -11.69913483 -2.67025113 0.00000000
v -11.46687412 -3.53706217 2.00000000
v -11.46687412 -3.53706217 0.00000000
v -11.17048454 -4.38409233 2.00000000
v -11.17048454 -4.38409233 0.00000000
v -10.81162643 -5.20660496 2.00000000
v -10.81162643 -5.20660496 0.00000000
v -10.39230442 -6.00000000 2.00000000
v -10.39230442 -6.00000000 0.00000000
v -9.91486549 -6.75984049 2.00000000
v -9.91486549 -6.75984049 0.00000000
v -9.38197803 -7.48187780 2.00000000
v -9.38197803 -7.48187780 0.00000000
v -8.79662228 -8.16207314 2.00000000
v -8.79662228 -8.16207314 0.00000000
v -8.16207314 -8.79662228 0.00000000
v -8.16207314 -8.79662228 2.00000000
v -7.48187780 -9.38197803 2.00000000
v -7.48187780 -9.38197803 0.00000000
v -6.75984049 -9.91486549 2.00000000
v -6.75984049 -9.91486549 0.00000000
v -6.00000000 -10.39230442 2.00000000
v -6.00000000 -10.39230442 0.00000000
v -5.20660496 -10.81162643 2.00000000
v -5.20660496 -10.81162643 0.00000000
v -4.38409233 -11.17048454 2.00000000
v -4.38409233 -11.17048454 0.00000000
v -3.53706217 -11.46687412 2.00000000
v -3.53706217 -11.46687412 0.00000000
v -2.67025113 -11.69913483 2.00000000
v -2.67025113 -11.69913483 0.00000000
v -1.78850722 -11.86596966 2.00000000
v -1.78850722 -11.86596966 0.00000000
v -0.89676112 -11.96644592 2.00000000
v -0.89676112 -11.96644592 0.00000000
v -0.00000000 -12.00000000 2.00000000
v -0.00000000 -12.00000000 0.00000000
v 0.89676112 -11.96644592 0.00000000
v 0.89676112 -11.96644592 2.00000000
v 1.78850722 -11.86596966 2.00000000
v 1.78850722 -11.86596966 0.00000000
v 2.67025113 -11.69913483 2.00000000
v 2.67025113 -11.69913483 0.00000000
v 3.53706217 -11.46687412 2.00000000
v 3.53706217 -11.46687412 0.00000000
v 4.38409233 -11.17048454 2.00000000
v 4.38409233 -11.17048454 0.00000000
v 5.20660496 -10.81162643 2.00000000
v 5.20660496 -10.81162643 0.00000000
v 6.00000000 -10.39230442 2.00000000
v 6.00000000 -10.39230442 0.00000000
v 6.75984049 -9.91486549 2.00000000
v 6.75984049 -9.91486549 0.00000000
v 7.48187780 -9.38197803 2.00000000
v 7.48187780 -9.38197803 0.00000000
v 8.16207314 -8.79662228 2.00000000
v 8.16207314 -8.79662228 0.00000000
v 8.79662228 -8.16207314 2.00000000
v 8.79662228 -8.16207314 0.00000000
v 9.38197803 -7.48187780 2.00000000
v 9.38197803 -7.48187780 0.00000000
v 9.91486549 -6.75984049 2.00000000
v 9.91486549 -6.75984049 0.00000000
v 10.39230442 -6.00000000 2.00000000
v 10.39230442 -6.00000000 0.00000000
v 10.81162643 -5.20660496 2.00000000
v 10.81162643 -5.20660496 0.00000000
v 11.17048454 -4.38409233 2.00000000
v 11.17048454 -4.38409233 0.00000000
v 11.46687412 -3.53706217 2.00000000
v 11.46687412 -3.53706217 0.00000000
v 11.69913483 -2.67025113 2.00000000
v 11.69913483 -2.67025113 0.00000000
v 11.86596966 -1.78850722 2.00000000
v 11.86596966 -1.78850722 0.00000000
v 11.96644592 -0.89676112 2.00000000
v 11.96644592 -0.89676112 0.00000000
v -9.84300995 -0.78219867 2.00000000
v -9.78219891 -0.84300965 2.00000000
v -9.71701336 -0.89910620 2.00000000
v -9.89910603 -0.71701330 2.00000000
v -9.64781761 -0.95017457 2.00000000
v -9.95017433 -0.64781809 2.00000000
v -9.57499981 -0.99592924 2.00000000
v -9.99592876 -0.57499999 2.00000000
v -10.03611374 -0.49896631 2.00000000
v -9.49896622 -1.03611422 2.00000000
v -9.42014217 -1.07050478 2.00000000
v -10.07050514 -0.42014217 2.00000000
v -9.33896828 -1.09890878 2.00000000
v -10.09890842 -0.33896846 2.00000000
v -9.25589943 -1.12116706 2.00000000
v -10.12116718 -0.25589907 2.00000000
v -9.17139816 -1.13715541 2.00000000
v -10.13715553 -0.17139861 2.00000000
v -9.08593941 -1.14678442 2.00000000
v -10.14678478 -0.08593961 2.00000000
v -9.00000000 -1.14999998 2.00000000
v -10.14999962 0.00000000 2.00000000
v -8.91406059 -1.14678442 2.00000000
v -10.14678478 0.08593961 2.00000000
v -10.13715553 0.17139861 2.00000000
v -4.76120901 -5.13136292 2.00000000
v -5.13136292 -4.76120901 2.00000000
v -10.12116718 0.25589907 2.00000000
v -4.36442852 -5.47282028 2.00000000
v -5.47282028 -4.36442852 2.00000000
v -10.09890842 0.33896846 2.00000000
v -3.94324040 -5.78367138 2.00000000
v -5.78367138 -3.94324040 2.00000000
v -10.07050514 0.42014217 2.00000000
v -3.50000000 -6.06217766 2.00000000
v -6.06217766 -3.50000000 2.00000000
v -10.03611374 0.49896631 2.00000000
v -9.99592876 0.57499999 2.00000000
v -3.03718615 -6.30678225 2.00000000
v -6.30678225 -3.03718615 2.00000000
v -9.95017433 0.64781809 2.00000000
v -9.89910603 0.71701330 2.00000000
v -2.55738711 -6.51611614 2.00000000
v -6.51611614 -2.55738711 2.00000000
v -8.82860184 -1.13715541 2.00000000
v -8.74410057 -1.12116706 2.00000000
v -9.84300995 0.78219867 2.00000000
v -9.78219891 0.84300965 2.00000000
v -9.71701336 0.89910620 2.00000000
v -2.06328630 -6.68900967 2.00000000
v -6.68900967 -2.06328630 2.00000000
v -8.66103172 -1.09890878 2.00000000
v -8.57985783 -1.07050478 2.00000000
v -8.50103378 -1.03611422 2.00000000
v -9.64781761 0.95017457 2.00000000
v -9.57499981 0.99592924 2.00000000
v -9.49896622 1.03611422 2.00000000
v -1.55764651 -6.82449532 2.00000000
v -6.82449532 -1.55764651 2.00000000
v -8.42500019 -0.99592924 2.00000000
v -8.35218239 -0.95017457 2.00000000
v -8.28298664 -0.89910620 2.00000000
v -8.21780109 -0.84300965 2.00000000
v -9.42014217 1.07050478 2.00000000
v -1.04329586 -6.92181587 2.00000000
v -6.92181587 -1.04329586 2.00000000
v -8.15699005 -0.78219867 2.00000000
v -8.10089397 -0.71701330 2.00000000
v -8.04982567 -0.64781809 2.00000000
v -8.00407124 -0.57499999 2.00000000
v -9.17139816 1.13715541 2.00000000
v -9.08593941 1.14678442 2.00000000
v -9.25589943 1.12116706 2.00000000
v -9.33896828 1.09890878 2.00000000
v -0.52311063 -6.98042679 2.00000000
v -6.98042679 -0.52311063 2.00000000
v -7.96388578 -0.49896631 2.00000000
v -7.92949533 -0.42014217 2.00000000
v -7.90109110 -0.33896846 2.00000000
v -7.87883282 -0.25589907 2.00000000
v -7.86284447 -0.17139861 2.00000000
v 0.00000000 -7.00000000 2.00000000
v -7.00000000 0.00000000 2.00000000
v -7.85321569 -0.08593961 2.00000000
v -7.84999990 -0.00000000 2.00000000
v -7.85321569 0.08593961 2.00000000
v -7.86284447 0.17139861 2.00000000
v -9.00000000 1.14999998 2.00000000
v -8.91406059 1.14678442 2.00000000
v 0.52311063 -6.98042679 2.00000000
v -6.98042679 0.52311063 2.00000000
v -7.87883282 0.25589907 2.00000000
v -7.90109110 0.33896846 2.00000000
v -7.92949533 0.42014217 2.00000000
v -7.96388578 0.49896631 2.00000000
v -8.00407124 0.57499999 2.00000000
v 1.04329586 -6.92181587 2.00000000
v -6.92181587 1.04329586 2.00000000
v -8.04982567 0.64781809 2.00000000
v -8.10089397 0.71701330 2.00000000
v -8.15699005 0.78219867 2.00000000
v -8.21780109 0.84300965 2.00000000
v -6.82449532 1.55764651 2.00000000
v -8.28298664 0.89910620 2.00000000
v -8.35218239 0.95017457 2.00000000
v -8.42500019 0.99592924 2.00000000
v -8.50103378 1.03611422 2.00000000
v 1.55764651 -6.82449532 2.00000000
v -6.68900967 2.06328630 2.00000000
v -8.66103172 1.09890878 2.00000000
v -8.57985783 1.07050478 2.00000000
v -8.74410057 1.12116706 2.00000000
v 2.06328630 -6.68900967 2.00000000
v -6.51611614 2.55738711 2.00000000
v -8.82860184 1.13715541 2.00000000
v 2.55738711 -6.51611614 2.00000000
v -6.30678225 3.03718615 2.00000000
v 3.03718615 -6.30678225 2.00000000
v -6.06217766 3.50000000 2.00000000
v 3.50000000 -6.06217766 2.00000000
v -5.78367138 3.94324040 2.00000000
v 3.94324040 -5.78367138 2.00000000
v -5.47282028 4.36442852 2.00000000
v 4.36442852 -5.47282028 2.00000000
v -5.13136292 4.76120901 2.00000000
v 4.76120901 -5.13136292 2.00000000
v -4.76120901 5.13136292 2.00000000
v 5.13136292 -4.76120901 2.00000000
v 5.47282028 -4.36442852 2.00000000
v -4.36442852 5.47282028 2.00000000
v -3.94324040 5.78367138 2.00000000
v 5.78367138 -3.94324040 2.00000000
v -3.50000000 6.06217766 2.00000000
v -3.03718615 6.30678225 2.00000000
v 6.06217766 -3.50000000 2.00000000
v 6.30678225 -3.03718615 2.00000000
v -2.55738711 6.51611614 2.00000000
v -2.06328630 6.68900967 2.00000000
v 6.51611614 -2.55738711 2.00000000
v 8.21780109 -0.84300965 2.00000000
v 6.92181587 -1.04329586 2.00000000
v 6.82449532 -1.55764651 2.00000000
v 8.15699005 -0.78219867 2.00000000
v 8.10089397 -0.71701330 2.00000000
v 8.28298664 -0.89910620 2.00000000
v 8.35218239 -0.95017457 2.00000000
v 8.04982567 -0.64781809 2.00000000
v 8.00407124 -0.57499999 2.00000000
v 6.98042679 -0.52311063 2.00000000
v 8.42500019 -0.99592924 2.00000000
v 7.96388578 -0.49896631 2.00000000
v 8.50103378 -1.03611422 2.00000000
v 6.68900967 -2.06328630 2.00000000
v 7.92949533 -0.42014217 2.00000000
v 8.57985783 -1.07050478 2.00000000
v 8.66103172 -1.09890878 2.00000000
v 7.90109110 -0.33896846 2.00000000
v 8.74410057 -1.12116706 2.00000000
v 7.87883282 -0.25589907 2.00000000
v 7.86284447 -0.17139861 2.00000000
v 7.00000000 -0.00000000 2.00000000
v 8.82860184 -1.13715541 2.00000000
v 8.91406059 -1.14678442 2.00000000
v 7.85321569 -0.08593961 2.00000000
v 7.84999990 0.00000000 2.00000000
v 9.00000000 -1.14999998 2.00000000
v 7.85321569 0.08593961 2.00000000
v 9.08593941 -1.14678442 2.00000000
v 9.17139816 -1.13715541 2.00000000
v 7.86284447 0.17139861 2.00000000
v 6.98042679 0.52311063 2.00000000
v 7.87883282 0.25589907 2.00000000
v 9.25589943 -1.12116706 2.00000000
v 7.90109110 0.33896846 2.00000000
v 9.33896828 -1.09890878 2.00000000
v 7.92949533 0.42014217 2.00000000
v 9.42014217 -1.07050478 2.00000000
v 7.96388578 0.49896631 2.00000000
v 8.00407124 0.57499999 2.00000000
v 6.92181587 1.04329586 2.00000000
v 8.04982567 0.64781809 2.00000000
v 8.10089397 0.71701330 2.00000000
v 8.15699005 0.78219867 2.00000000
v -1.55764651 6.82449532 2.00000000
v 9.49896622 -1.03611422 2.00000000
v 9.57499981 -0.99592924 2.00000000
v 9.64781761 -0.95017457 2.00000000
v 9.71701336 -0.89910620 2.00000000
v 8.21780109 0.84300965 2.00000000
v 6.82449532 1.55764651 2.00000000
v 8.28298664 0.89910620 2.00000000
v 8.35218239 0.95017457 2.00000000
v 8.42500019 0.99592924 2.00000000
v 8.50103378 1.03611422 2.00000000
v 6.68900967 2.06328630 2.00000000
v 8.57985783 1.07050478 2.00000000
v 8.66103172 1.09890878 2.00000000
v 8.74410057 1.12116706 2.00000000
v 6.51611614 2.55738711 2.00000000
v 8.82860184 1.13715541 2.00000000
v 8.91406059 1.14678442 2.00000000
v -1.04329586 6.92181587 2.00000000
v -0.52311063 6.98042679 2.00000000
v 9.78219891 -0.84300965 2.00000000
v 9.84300995 -0.78219867 2.00000000
v 9.89910603 -0.71701330 2.00000000
v 9.95017433 -0.64781809 2.00000000
v 9.99592876 -0.57499999 2.00000000
v 10.03611374 -0.49896631 2.00000000
v 10.07050514 -0.42014217 2.00000000
v 10.09890842 -0.33896846 2.00000000
v 10.12116718 -0.25589907 2.00000000
v 0.00000000 7.00000000 2.00000000
v 10.13715553 -0.17139861 2.00000000
v 10.14678478 -0.08593961 2.00000000
v 10.14999962 -0.00000000 2.00000000
v 10.14678478 0.08593961 2.00000000
v 10.13715553 0.17139861 2.00000000
v 10.12116718 0.25589907 2.00000000
v 10.09890842 0.33896846 2.00000000
v 10.07050514 0.42014217 2.00000000
v 10.03611374 0.49896631 2.00000000
v 9.99592876 0.57499999 2.00000000
v 9.95017433 0.64781809 2.00000000
v 0.52311063 6.98042679 2.00000000
v 1.04329586 6.92181587 2.00000000
v 9.89910603 0.71701330 2.00000000
v 9.84300995 0.78219867 2.00000000
v 9.78219891 0.84300965 2.00000000
v 9.71701336 0.89910620 2.00000000
v 9.64781761 0.95017457 2.00000000
v 9.57499981 0.99592924 2.00000000
v 9.49896622 1.03611422 2.00000000
v 9.42014217 1.07050478 2.00000000
v 1.55764651 6.82449532 2.00000000
v 2.06328630 6.68900967 2.00000000
v 9.33896828 1.09890878 2.00000000
v 9.25589943 1.12116706 2.00000000
v 9.17139816 1.13715541 2.00000000
v 9.08593941 1.14678442 2.00000000
v 2.55738711 6.51611614 2.00000000
v 9.00000000 1.14999998 2.00000000
v 3.03718615 6.30678225 2.00000000
v 3.50000000 6.06217766 2.00000000
v 6.30678225 3.03718615 2.00000000
v 6.06217766 3.50000000 2.00000000
v 5.78367138 3.94324040 2.00000000
v 3.94324040 5.78367138 2.00000000
v 5.47282028 4.36442852 2.00000000
v 4.36442852 5.47282028 2.00000000
v 5.13136292 4.76120901 2.00000000
v 4.76120901 5.13136292 2.00000000
v -9.84300995 -0.78219867 0.00000000
v -9.78219891 -0.84300965 0.00000000
v -9.71701336 -0.89910620 0.00000000
v -9.89910603 -0.71701330 0.00000000
v -9.64781761 -0.95017457 0.00000000
v -9.95017433 -0.64781809 0.00000000
v -9.57499981 -0.99592924 0.00000000
v -9.99592876 -0.57499999 0.00000000
v -10.03611374 -0.49896631 0.00000000
v -9.49896622 -1.03611422 0.00000000
v -9.42014217 -1.07050478 0.00000000
v -10.07050514 -0.42014217 0.00000000
v -9.33896828 -1.09890878 0.00000000
v -10.09890842 -0.33896846 0.00000000
v -9.25589943 -1.12116706 0.00000000
v -10.12116718 -0.25589907 0.00000000
v -9.17139816 -1.13715541 0.00000000
v -10.13715553 -0.17139861 0.00000000
v -9.08593941 -1.14678442 0.00000000
v -10.14678478 -0.08593961 0.00000000
v -9.00000000 -1.14999998 0.00000000
v -10.14999962 0.00000000 0.00000000
v -8.91406059 -1.14678442 0.00000000
v -10.14678478 0.08593961 0.00000000
v -10.13715553 0.17139861 0.00000000
v -4.76120901 -5.13136292 0.00000000
v -5.13136292 -4.76120901 0.00000000
v -10.12116718 0.25589907 0.00000000
v -4.36442852 -5.47282028 0.00000000
v -5.47282028 -4.36442852 0.00000000
v -10.09890842 0.33896846 0.00000000
v -3.94324040 -5.78367138 0.00000000
v -5.78367138 -3.94324040 0.00000000
v -10.07050514 0.42014217 0.00000000
v -3.50000000 -6.06217766 0.00000000
v -6.06217766 -3.50000000 0.00000000
v -10.03611374 0.49896631 0.00000000
v -9.99592876 0.57499999 0.00000000
v -3.03718615 -6.30678225 0.00000000
v -6.30678225 -3.03718615 0.00000000
v -9.95017433 0.64781809 0.00000000
v -9.89910603 0.71701330 0.00000000
v -2.55738711 -6.51611614 0.00000000
v -6.51611614 -2.55738711 0.00000000
v -8.82860184 -1.13715541 0.00000000
v -8.74410057 -1.12116706 0.00000000
v -9.84300995 0.78219867 0.00000000
v -9.78219891 0.84300965 0.00000000
v -9.71701336 0.89910620 0.00000000
v -2.06328630 -6.68900967 0.00000000
v -6.68900967 -2.06328630 0.00000000
v -8.66103172 -1.09890878 0.00000000
v -8.57985783 -1.07050478 0.00000000
v -8.50103378 -1.03611422 0.00000000
v -9.64781761 0.95017457 0.00000000
v -9.57499981 0.99592924 0.00000000
v -9.49896622 1.03611422 0.00000000
v -1.55764651 -6.82449532 0.00000000
v -6.82449532 -1.55764651 0.00000000
v -8.42500019 -0.99592924 0.00000000
v -8.35218239 -0.95017457 0.00000000
v -8.28298664 -0.89910620 0.00000000
v -8.21780109 -0.84300965 0.00000000
v -9.42014217 1.07050478 0.00000000
v -1.04329586 -6.92181587 0.00000000
v -6.92181587 -1.04329586 0.00000000
v -8.15699005 -0.78219867 0.00000000
v -8.10089397 -0.71701330 0.00000000
v -8.04982567 -0.64781809 0.00000000
v -8.00407124 -0.57499999 0.00000000
v -9.08593941 1.14678442 0.00000000
v -9.17139816 1.13715541 0.00000000
v -9.25589943 1.12116706 0.00000000
v -9.33896828 1.09890878 0.00000000
v -0.52311063 -6.98042679 0.00000000
v -6.98042679 -0.52311063 0.00000000
v -7.96388578 -0.49896631 0.00000000
v -7.92949533 -0.42014217 0.00000000
v -7.90109110 -0.33896846 0.00000000
v -7.87883282 -0.25589907 0.00000000
v -7.86284447 -0.17139861 0.00000000
v 0.00000000 -7.00000000 0.00000000
v -7.00000000 0.00000000 0.00000000
v -7.85321569 -0.08593961 0.00000000
v -7.84999990 -0.00000000 0.00000000
v -7.85321569 0.08593961 0.00000000
v -7.86284447 0.17139861 0.00000000
v -8.91406059 1.14678442 0.00000000
v -9.00000000 1.14999998 0.00000000
v 0.52311063 -6.98042679 0.00000000
v -6.98042679 0.52311063 0.00000000
v -7.87883282 0.25589907 0.00000000
v -7.90109110 0.33896846 0.00000000
v -7.92949533 0.42014217 0.00000000
v -7.96388578 0.49896631 0.00000000
v -8.00407124 0.57499999 0.00000000
v 1.04329586 -6.92181587 0.00000000
v -6.92181587 1.04329586 0.00000000
v -8.04982567 0.64781809 0.00000000
v -8.10089397 0.71701330 0.00000000
v -8.15699005 0.78219867 0.00000000
v -8.21780109 0.84300965 0.00000000
v -6.82449532 1.55764651 0.00000000
v -8.28298664 0.89910620 0.00000000
v -8.35218239 0.95017457 0.00000000
v -8.42500019 0.99592924 0.00000000
v -8.50103378 1.03611422 0.00000000
v 1.55764651 -6.82449532 0.00000000
v -6.68900967 2.06328630 0.00000000
v -8.57985783 1.07050478 0.00000000
v -8.66103172 1.09890878 0.00000000
v -8.74410057 1.12116706 0.00000000
v 2.06328630 -6.68900967 0.00000000
v -6.51611614 2.55738711 0.00000000
v -8.82860184 1.13715541 0.00000000
v 2.55738711 -6.51611614 0.00000000
v -6.30678225 3.03718615 0.00000000
v 3.03718615 -6.30678225 0.00000000
v -6.06217766 3.50000000 0.00000000
v 3.50000000 -6.06217766 0.00000000
v -5.78367138 3.94324040 0.00000000
v 3.94324040 -5.78367138 0.00000000
v -5.47282028 4.36442852 0.00000000
v 4.36442852 -5.47282028 0.00000000
v -5.13136292 4.76120901 0.00000000
v 4.76120901 -5.13136292 0.00000000
v -4.76120901 5.13136292 0.00000000
v 5.13136292 -4.76120901 0.00000000
v 5.47282028 -4.36442852 0.00000000
v -4.36442852 5.47282028 0.00000000
v -3.94324040 5.78367138 0.00000000
v 5.78367138 -3.94324040 0.00000000
v -3.03718615 6.30678225 0.00000000
v -3.50000000 6.06217766 0.00000000
v 6.06217766 -3.50000000 0.00000000
v 6.30678225 -3.03718615 0.00000000
v -2.06328630 6.68900967 0.00000000
v -2.55738711 6.51611614 0.00000000
v 6.51611614 -2.55738711 0.00000000
v 8.21780109 -0.84300965 0.00000000
v 6.82449532 -1.55764651 0.00000000
v 6.92181587 -1.04329586 0.00000000
v 8.15699005 -0.78219867 0.00000000
v 8.10089397 -0.71701330 0.00000000
v 8.28298664 -0.89910620 0.00000000
v 8.35218239 -0.95017457 0.00000000
v 8.04982567 -0.64781809 0.00000000
v 8.00407124 -0.57499999 0.00000000
v 6.98042679 -0.52311063 0.00000000
v 8.42500019 -0.99592924 0.00000000
v 7.96388578 -0.49896631 0.00000000
v 8.50103378 -1.03611422 0.00000000
v 6.68900967 -2.06328630 0.00000000
v 7.92949533 -0.42014217 0.00000000
v 8.57985783 -1.07050478 0.00000000
v 8.66103172 -1.09890878 0.00000000
v 7.90109110 -0.33896846 0.00000000
v 8.74410057 -1.12116706 0.00000000
v 7.87883282 -0.25589907 0.00000000
v 7.86284447 -0.17139861 0.00000000
v 7.00000000 -0.00000000 0.00000000
v 8.82860184 -1.13715541 0.00000000
v 8.91406059 -1.14678442 0.00000000
v 7.85321569 -0.08593961 0.00000000
v 7.84999990 0.00000000 0.00000000
v 9.00000000 -1.14999998 0.00000000
v 7.85321569 0.08593961 0.00000000
v 9.08593941 -1.14678442 0.00000000
v 9.17139816 -1.13715541 0.00000000
v 7.86284447 0.17139861 0.00000000
v 6.98042679 0.52311063 0.00000000
v 7.87883282 0.25589907 0.00000000
v 9.25589943 -1.12116706 0.00000000
v 7.90109110 0.33896846 0.00000000
v 9.33896828 -1.09890878 0.00000000
v 7.92949533 0.42014217 0.00000000
v 9.42014217 -1.07050478 0.00000000
v 7.96388578 0.49896631 0.00000000
v 8.00407124 0.57499999 0.00000000
v 6.92181587 1.04329586 0.00000000
v 8.04982567 0.64781809 0.00000000
v 8.10089397 0.71701330 0.00000000
v 8.15699005 0.78219867 0.00000000
v -1.55764651 6.82449532 0.00000000
v 9.49896622 -1.03611422 0.00000000
v 9.57499981 -0.99592924 0.00000000
v 9.64781761 -0.95017457 0.00000000
v 9.71701336 -0.89910620 0.00000000
v 8.21780109 0.84300965 0.00000000
v 6.82449532 1.55764651 0.00000000
v 8.28298664 0.89910620 0.00000000
v 8.35218239 0.95017457 0.00000000
v 8.42500019 0.99592924 0.00000000
v 8.50103378 1.03611422 0.00000000
v 6.68900967 2.06328630 0.00000000
v 8.57985783 1.07050478 0.00000000
v 8.66103172 1.09890878 0.00000000
v 8.74410057 1.12116706 0.00000000
v 6.51611614 2.55738711 0.00000000
v 8.82860184 1.13715541 0.00000000
v 8.91406059 1.14678442 0.00000000
v -0.52311063 6.98042679 0.00000000
v -1.04329586 6.92181587 0.00000000
v 9.78219891 -0.84300965 0.00000000
v 9.84300995 -0.78219867 0.00000000
v 9.89910603 -0.71701330 0.00000000
v 9.95017433 -0.64781809 0.00000000
v 9.99592876 -0.57499999 0.00000000
v 10.03611374 -0.49896631 0.00000000
v 10.07050514 -0.42014217 0.00000000
v 10.09890842 -0.33896846 0.00000000
v 10.12116718 -0.25589907 0.00000000
v 0.00000000 7.00000000 0.00000000
v 10.13715553 -0.17139861 0.00000000
v 10.14678478 -0.08593961 0.00000000
v 10.14999962 -0.00000000 0.00000000
v 10.14678478 0.08593961 0.00000000
v 10.13715553 0.17139861 0.00000000
v 10.12116718 0.25589907 0.00000000
v 10.09890842 0.33896846 0.00000000
v 10.07050514 0.42014217 0.00000000
v 10.03611374 0.49896631 0.00000000
v 9.99592876 0.57499999 0.00000000
v 9.95017433 0.64781809 0.00000000
v 0.52311063 6.98042679 0.00000000
v 1.04329586 6.92181587 0.00000000
v 9.89910603 0.71701330 0.00000000
v 9.84300995 0.78219867 0.00000000
v 9.78219891 0.84300965 0.00000000
v 9.71701336 0.89910620 0.00000000
v 9.64781761 0.95017457 0.00000000
v 9.57499981 0.99592924 0.00000000
v 9.49896622 1.03611422 0.00000000
v 9.42014217 1.07050478 0.00000000
v 2.06328630 6.68900967 0.00000000
v 1.55764651 6.82449532 0.00000000
v 9.33896828 1.09890878 0.00000000
v 9.25589943 1.12116706 0.00000000
v 9.17139816 1.13715541 0.00000000
v 9.08593941 1.14678442 0.00000000
v 2.55738711 6.51611614 0.00000000
v 9.00000000 1.14999998 0.00000000
v 3.50000000 6.06217766 0.00000000
v 3.03718615 6.30678225 0.00000000
v 6.30678225 3.03718615 0.00000000
v 6.06217766 3.50000000 0.00000000
v 5.78367138 3.94324040 0.00000000
v 3.94324040 5.78367138 0.00000000
v 5.47282028 4.36442852 0.00000000
v 4.36442852 5.47282028 0.00000000
v 5.13136292 4.76120901 0.00000000
v 4.76120901 5.13136292 0.00000000
f 1 2 3
f 1 3 4
f 5 1 4
f 5 4 6
f 7 6 8
f 7 5 6
f 9 8 10
f 9 7 8
f 11 10 12
f 11 9 10
f 13 12 14
f 13 11 12
f 15 14 16
f 15 13 14
f 17 15 16
f 17 16 18
f 19 17 18
f 19 18 20
f 21 19 20
f 21 20 22
f 23 21 22
f 23 22 24
f 25 23 24
f 25 24 26
f 27 25 26
f 27 26 28
f 29 27 28
f 29 28 30
f 31 29 30
f 31 30 32
f 33 32 34
f 33 31 32
f 35 34 36
f 35 33 34
f 37 36 38
f 37 35 36
f 39 38 40
f 39 37 38
f 41 40 42
f 41 42 43
f 41 39 40
f 44 41 43
f 44 43 45
f 46 44 45
f 47 45 48
f 47 46 45
f 49 48 50
f 49 47 48
f 51 50 52
f 51 52 53
f 51 49 50
f 54 53 55
f 54 51 53
f 56 54 55
f 57 55 58
f 57 56 55
f 59 58 60
f 59 57 58
f 61 60 62
f 61 59 60
f 63 62 64
f 63 61 62
f 65 63 64
f 65 64 66
f 67 65 66
f 67 66 68
f 69 67 68
f 69 68 70
f 71 69 70
f 71 70 72
f 73 71 72
f 73 72 74
f 75 74 76
f 75 73 74
f 77 76 78
f 77 75 76
f 79 78 80
f 79 77 78
f 81 80 82
f 81 79 80
f 83 82 84
f 83 81 82
f 85 84 86
f 85 86 87
f 85 83 84
f 88 85 87
f 89 87 90
f 89 88 87
f 91 90 92
f 91 89 90
f 93 92 94
f 93 91 92
f 95 94 96
f 95 93 94
f 97 96 98
f 97 95 96
f 99 98 100
f 99 97 98
f 101 100 102
f 101 99 100
f 103 102 104
f 103 101 102
f 105 104 106
f 105 106 107
f 105 103 104
f 108 105 107
f 109 107 110
f 109 108 107
f 111 110 112
f 111 109 110
f 113 112 114
f 113 111 112
f 115 114 116
f 115 113 114
f 117 115 116
f 117 116 118
f 119 117 118
f 119 118 120
f 121 119 120
f 121 120 122
f 123 121 122
f 123 122 124
f 125 123 124
f 125 124 126
f 127 125 126
f 127 126 128
f 127 128 129
f 130 127 129
f 131 130 129
f 131 129 132
f 133 131 132
f 133 132 134
f 135 133 134
f 135 134 136
f 137 135 136
f 137 136 138
f 139 137 138
f 139 138 140
f 141 139 140
f 141 140 142
f 143 141 142
f 143 142 144
f 145 144 146
f 145 143 144
f 147 146 148
f 147 145 146
f 149 148 150
f 149 147 148
f 151 150 152
f 151 149 150
f 153 152 154
f 153 151 152
f 155 154 156
f 155 153 154
f 157 156 158
f 157 155 156
f 159 158 160
f 159 157 158
f 161 160 162
f 161 159 160
f 163 162 164
f 163 161 162
f 165 164 166
f 165 163 164
f 167 165 166
f 167 166 168
f 2 167 168
f 2 168 3
f 169 89 170
f 171 89 91
f 171 170 89
f 172 89 169
f 173 171 91
f 174 88 89
f 174 89 172
f 175 173 91
f 176 88 174
f 177 88 176
f 178 175 91
f 179 91 93
f 179 178 91
f 180 88 177
f 181 179 93
f 182 88 180
f 183 181 93
f 184 88 182
f 184 85 88
f 185 183 93
f 186 85 184
f 187 185 93
f 187 93 95
f 188 85 186
f 189 187 95
f 190 85 188
f 191 189 95
f 192 85 190
f 193 85 192
f 194 108 109
f 195 108 194
f 195 105 108
f 196 85 193
f 196 83 85
f 197 194 109
f 198 105 195
f 198 103 105
f 199 83 196
f 200 197 109
f 200 109 111
f 201 101 103
f 201 103 198
f 202 83 199
f 203 111 113
f 203 200 111
f 204 99 101
f 204 101 201
f 205 83 202
f 206 83 205
f 207 113 115
f 207 203 113
f 208 99 204
f 208 97 99
f 209 81 83
f 209 83 206
f 210 81 209
f 211 115 117
f 211 117 119
f 211 207 115
f 212 191 95
f 212 95 97
f 212 213 191
f 212 214 213
f 212 97 208
f 215 81 210
f 216 81 215
f 217 81 216
f 217 79 81
f 218 211 119
f 218 119 121
f 219 214 212
f 219 220 214
f 219 221 220
f 219 222 221
f 223 79 217
f 224 79 223
f 225 79 224
f 226 218 121
f 226 121 123
f 227 228 222
f 227 229 228
f 227 230 229
f 227 231 230
f 227 222 219
f 232 79 225
f 233 226 123
f 234 235 231
f 234 236 235
f 234 237 236
f 234 238 237
f 234 231 227
f 77 239 240
f 77 241 239
f 77 242 241
f 77 232 242
f 77 79 232
f 243 123 125
f 243 233 123
f 244 245 238
f 244 246 245
f 244 247 246
f 244 248 247
f 244 249 248
f 244 238 234
f 250 243 125
f 250 125 127
f 251 249 244
f 251 252 249
f 251 253 252
f 251 254 253
f 251 255 254
f 75 256 257
f 75 240 256
f 75 77 240
f 258 127 130
f 258 250 127
f 259 255 251
f 259 260 255
f 259 261 260
f 259 262 261
f 259 263 262
f 259 264 263
f 265 258 130
f 265 130 131
f 265 131 133
f 266 264 259
f 266 267 264
f 266 268 267
f 266 269 268
f 266 270 269
f 271 270 266
f 271 272 270
f 271 273 272
f 271 274 273
f 271 275 274
f 276 265 133
f 277 278 279
f 277 280 278
f 277 275 271
f 277 279 275
f 281 133 135
f 281 276 133
f 282 283 280
f 282 257 283
f 282 280 277
f 282 75 257
f 284 281 135
f 284 135 137
f 285 71 73
f 285 75 282
f 285 73 75
f 286 137 139
f 286 284 137
f 287 71 285
f 288 286 139
f 288 139 141
f 289 69 71
f 289 71 287
f 290 288 141
f 290 141 143
f 291 67 69
f 291 69 289
f 292 290 143
f 292 143 145
f 293 65 67
f 293 67 291
f 294 292 145
f 294 145 147
f 295 65 293
f 63 65 295
f 149 296 294
f 149 294 147
f 297 296 149
f 61 63 295
f 61 295 298
f 151 297 149
f 59 61 298
f 59 298 299
f 153 300 297
f 153 297 151
f 57 301 302
f 57 299 301
f 57 59 299
f 155 303 300
f 155 300 153
f 56 57 302
f 157 303 155
f 157 304 303
f 54 56 302
f 54 305 306
f 54 302 305
f 159 304 157
f 159 307 304
f 308 309 310
f 311 309 308
f 312 309 311
f 313 308 310
f 314 313 310
f 315 309 312
f 316 309 315
f 316 317 309
f 318 314 310
f 319 317 316
f 320 310 321
f 320 318 310
f 322 317 319
f 323 320 321
f 324 323 321
f 325 317 322
f 326 321 307
f 326 324 321
f 327 317 325
f 328 329 317
f 328 317 327
f 330 326 307
f 331 307 159
f 331 330 307
f 332 329 328
f 333 329 332
f 334 331 159
f 51 54 306
f 335 329 333
f 336 159 161
f 336 334 159
f 337 336 161
f 338 339 329
f 338 329 335
f 340 339 338
f 341 337 161
f 342 339 340
f 343 341 161
f 344 339 342
f 345 343 161
f 346 339 344
f 347 339 346
f 347 348 339
f 349 348 347
f 350 348 349
f 351 348 350
f 49 51 306
f 49 306 352
f 163 345 161
f 163 353 345
f 163 354 353
f 163 355 354
f 163 356 355
f 357 348 351
f 357 358 348
f 359 358 357
f 360 358 359
f 361 358 360
f 362 358 361
f 362 363 358
f 364 363 362
f 365 363 364
f 366 363 365
f 366 367 363
f 368 367 366
f 369 367 368
f 47 49 352
f 47 370 371
f 47 352 370
f 165 372 356
f 165 373 372
f 165 374 373
f 165 375 374
f 165 356 163
f 46 47 371
f 167 376 375
f 167 377 376
f 167 378 377
f 167 379 378
f 167 380 379
f 167 375 165
f 44 46 371
f 44 371 381
f 2 380 167
f 2 382 380
f 2 383 382
f 2 384 383
f 2 385 384
f 2 386 385
f 2 387 386
f 1 387 2
f 1 388 387
f 1 389 388
f 1 390 389
f 1 391 390
f 1 392 391
f 41 44 381
f 41 381 393
f 39 41 393
f 39 393 394
f 5 392 1
f 5 395 392
f 5 396 395
f 5 397 396
f 5 398 397
f 7 398 5
f 7 399 398
f 7 400 399
f 7 401 400
f 7 402 401
f 37 39 394
f 37 403 404
f 37 394 403
f 35 37 404
f 9 402 7
f 9 405 402
f 9 406 405
f 9 407 406
f 9 408 407
f 33 35 404
f 33 404 409
f 11 408 9
f 11 410 408
f 11 369 410
f 11 367 369
f 31 33 409
f 31 411 412
f 31 409 411
f 13 413 367
f 13 367 11
f 15 413 13
f 15 414 413
f 15 415 414
f 29 412 416
f 29 31 412
f 17 415 15
f 27 29 416
f 19 417 415
f 19 415 17
f 25 416 418
f 25 27 416
f 21 419 417
f 21 417 19
f 23 25 418
f 23 420 419
f 23 418 420
f 23 419 21
f 421 422 90
f 423 92 90
f 423 90 422
f 424 421 90
f 425 92 423
f 426 90 87
f 426 424 90
f 427 92 425
f 428 426 87
f 429 428 87
f 430 92 427
f 431 94 92
f 431 92 430
f 432 429 87
f 433 94 431
f 434 432 87
f 435 94 433
f 436 434 87
f 436 87 86
f 437 94 435
f 438 436 86
f 439 94 437
f 439 96 94
f 440 438 86
f 441 96 439
f 442 440 86
f 443 96 441
f 444 442 86
f 445 444 86
f 446 110 107
f 447 446 107
f 447 107 106
f 448 445 86
f 448 86 84
f 449 110 446
f 450 447 106
f 450 106 104
f 451 448 84
f 452 110 449
f 452 112 110
f 453 104 102
f 453 450 104
f 454 451 84
f 455 114 112
f 455 112 452
f 456 102 100
f 456 453 102
f 457 454 84
f 458 457 84
f 459 116 114
f 459 114 455
f 460 456 100
f 460 100 98
f 461 84 82
f 461 458 84
f 462 461 82
f 463 118 116
f 463 120 118
f 463 116 459
f 464 96 443
f 464 98 96
f 464 443 465
f 464 465 466
f 464 460 98
f 467 462 82
f 468 467 82
f 469 468 82
f 469 82 80
f 470 120 463
f 470 122 120
f 471 464 466
f 471 466 472
f 471 472 473
f 471 473 474
f 475 469 80
f 476 475 80
f 477 476 80
f 478 122 470
f 478 124 122
f 479 474 480
f 479 480 481
f 479 481 482
f 479 482 483
f 479 471 474
f 484 477 80
f 485 124 478
f 486 483 487
f 486 487 488
f 486 488 489
f 486 489 490
f 486 479 483
f 78 491 492
f 78 492 493
f 78 493 494
f 78 494 484
f 78 484 80
f 495 126 124
f 495 124 485
f 496 490 497
f 496 497 498
f 496 498 499
f 496 499 500
f 496 500 501
f 496 486 490
f 502 126 495
f 502 128 126
f 503 496 501
f 503 501 504
f 503 504 505
f 503 505 506
f 503 506 507
f 76 508 509
f 76 509 491
f 76 491 78
f 510 129 128
f 510 128 502
f 511 503 507
f 511 507 512
f 511 512 513
f 511 513 514
f 511 514 515
f 511 515 516
f 517 129 510
f 517 132 129
f 517 134 132
f 518 511 516
f 518 516 519
f 518 519 520
f 518 520 521
f 518 521 522
f 523 518 522
f 523 522 524
f 523 524 525
f 523 525 526
f 523 526 527
f 528 134 517
f 529 530 531
f 529 531 532
f 529 523 527
f 529 527 530
f 533 136 134
f 533 134 528
f 534 532 535
f 534 535 508
f 534 529 532
f 534 508 76
f 536 136 533
f 536 138 136
f 537 74 72
f 537 534 76
f 537 76 74
f 538 140 138
f 538 138 536
f 539 537 72
f 540 140 538
f 540 142 140
f 541 72 70
f 541 539 72
f 542 142 540
f 542 144 142
f 543 70 68
f 543 541 70
f 544 144 542
f 544 146 144
f 545 68 66
f 545 543 68
f 546 146 544
f 546 148 146
f 547 545 66
f 64 547 66
f 150 546 548
f 150 148 546
f 549 150 548
f 62 547 64
f 62 550 547
f 152 150 549
f 60 550 62
f 60 551 550
f 154 549 552
f 154 152 549
f 58 553 554
f 58 554 551
f 58 551 60
f 156 552 555
f 156 154 552
f 55 553 58
f 158 156 555
f 158 555 556
f 53 553 55
f 53 557 558
f 53 558 553
f 160 158 556
f 160 556 559
f 560 561 562
f 563 560 562
f 564 563 562
f 565 561 560
f 566 561 565
f 567 564 562
f 568 567 562
f 568 562 569
f 570 561 566
f 571 568 569
f 572 573 561
f 572 561 570
f 574 571 569
f 575 573 572
f 576 573 575
f 577 574 569
f 578 559 573
f 578 573 576
f 579 577 569
f 580 569 581
f 580 579 569
f 582 559 578
f 583 160 559
f 583 559 582
f 584 580 581
f 585 584 581
f 586 160 583
f 52 557 53
f 587 585 581
f 588 162 160
f 588 160 586
f 589 162 588
f 590 581 591
f 590 587 581
f 592 590 591
f 593 162 589
f 594 592 591
f 595 162 593
f 596 594 591
f 597 162 595
f 598 596 591
f 599 598 591
f 599 591 600
f 601 599 600
f 602 601 600
f 603 602 600
f 50 557 52
f 50 604 557
f 164 162 597
f 164 597 605
f 164 605 606
f 164 606 607
f 164 607 608
f 609 603 600
f 609 600 610
f 611 609 610
f 612 611 610
f 613 612 610
f 614 613 610
f 614 610 615
f 616 614 615
f 617 616 615
f 618 617 615
f 618 615 619
f 620 618 619
f 621 620 619
f 48 604 50
f 48 622 623
f 48 623 604
f 166 608 624
f 166 624 625
f 166 625 626
f 166 626 627
f 166 164 608
f 45 622 48
f 168 627 628
f 168 628 629
f 168 629 630
f 168 630 631
f 168 631 632
f 168 166 627
f 43 622 45
f 43 633 622
f 3 168 632
f 3 632 634
f 3 634 635
f 3 635 636
f 3 636 637
f 3 637 638
f 3 638 639
f 4 3 639
f 4 639 640
f 4 640 641
f 4 641 642
f 4 642 643
f 4 643 644
f 42 633 43
f 42 645 633
f 40 645 42
f 40 646 645
f 6 4 644
f 6 644 647
f 6 647 648
f 6 648 649
f 6 649 650
f 8 6 650
f 8 650 651
f 8 651 652
f 8 652 653
f 8 653 654
f 38 646 40
f 38 655 656
f 38 656 646
f 36 655 38
f 10 8 654
f 10 654 657
f 10 657 658
f 10 658 659
f 10 659 660
f 34 655 36
f 34 661 655
f 12 10 660
f 12 660 662
f 12 662 621
f 12 621 619
f 32 661 34
f 32 663 664
f 32 664 661
f 14 619 665
f 14 12 619
f 16 14 665
f 16 665 666
f 16 666 667
f 30 668 663
f 30 663 32
f 18 16 667
f 28 668 30
f 20 667 669
f 20 18 667
f 26 670 668
f 26 668 28
f 22 669 671
f 22 20 669
f 24 670 26
f 24 671 672
f 24 672 670
f 24 22 671
f 254 505 253
f 254 506 505
f 255 506 254
f 255 507 506
f 260 512 507
f 260 507 255
f 261 513 512
f 261 512 260
f 262 514 513
f 262 513 261
f 263 515 514
f 263 514 262
f 264 516 515
f 264 515 263
f 267 516 264
f 267 519 516
f 268 519 267
f 268 520 519
f 269 520 268
f 269 521 520
f 270 521 269
f 270 522 521
f 272 522 270
f 272 524 522
f 273 524 272
f 273 525 524
f 273 526 525
f 274 526 273
f 275 530 527
f 275 526 274
f 275 527 526
f 279 530 275
f 278 531 530
f 278 530 279
f 280 532 531
f 280 531 278
f 283 535 532
f 283 532 280
f 257 508 535
f 257 535 283
f 256 509 508
f 256 508 257
f 240 491 509
f 240 509 256
f 239 492 491
f 239 491 240
f 241 493 492
f 241 492 239
f 242 494 493
f 242 493 241
f 232 484 494
f 232 494 242
f 225 477 484
f 225 484 232
f 224 476 477
f 224 477 225
f 223 475 476
f 223 476 224
f 217 469 475
f 217 475 223
f 216 468 469
f 216 469 217
f 215 468 216
f 215 467 468
f 210 467 215
f 210 462 467
f 209 462 210
f 209 461 462
f 206 461 209
f 206 458 461
f 205 458 206
f 205 457 458
f 202 454 457
f 202 457 205
f 199 451 454
f 199 454 202
f 196 448 451
f 196 451 199
f 193 445 448
f 193 448 196
f 192 444 445
f 192 445 193
f 190 442 444
f 190 444 192
f 188 440 442
f 188 438 440
f 188 442 190
f 186 438 188
f 184 436 438
f 184 438 186
f 182 434 436
f 182 436 184
f 180 432 434
f 180 434 182
f 177 429 432
f 177 432 180
f 176 428 429
f 176 429 177
f 174 426 428
f 174 428 176
f 172 424 426
f 172 426 174
f 169 421 424
f 169 424 172
f 170 422 421
f 170 421 169
f 171 423 422
f 171 422 170
f 173 425 423
f 173 423 171
f 175 427 425
f 175 425 173
f 178 430 427
f 178 427 175
f 179 430 178
f 179 431 430
f 181 431 179
f 181 433 431
f 183 433 181
f 183 435 433
f 185 435 183
f 185 437 435
f 187 437 185
f 187 439 437
f 189 439 187
f 189 441 439
f 191 441 189
f 191 443 441
f 213 443 191
f 213 465 443
f 214 465 213
f 214 466 465
f 220 466 214
f 220 472 466
f 221 472 220
f 221 473 472
f 222 473 221
f 222 474 473
f 228 474 222
f 228 480 474
f 229 480 228
f 229 481 480
f 230 482 481
f 230 481 229
f 231 483 482
f 231 482 230
f 235 487 483
f 235 483 231
f 236 488 487
f 236 487 235
f 237 489 488
f 237 488 236
f 238 490 489
f 238 489 237
f 245 497 490
f 245 490 238
f 246 498 497
f 246 497 245
f 247 499 498
f 247 498 246
f 248 500 499
f 248 499 247
f 249 501 500
f 249 500 248
f 252 501 249
f 252 504 501
f 253 504 252
f 253 505 504
f 339 581 329
f 339 591 581
f 348 591 339
f 348 600 591
f 358 610 600
f 358 600 348
f 363 615 610
f 363 610 358
f 367 619 615
f 367 615 363
f 413 665 619
f 413 619 367
f 414 666 665
f 414 665 413
f 415 666 414
f 415 667 666
f 417 667 415
f 417 669 667
f 419 669 417
f 419 671 669
f 420 671 419
f 420 672 671
f 418 672 420
f 418 670 672
f 416 670 418
f 416 668 670
f 412 668 416
f 412 663 668
f 411 663 412
f 411 664 663
f 409 661 664
f 409 664 411
f 404 655 661
f 404 656 655
f 404 661 409
f 403 656 404
f 394 646 656
f 394 656 403
f 393 645 646
f 393 633 645
f 393 646 394
f 381 633 393
f 371 622 633
f 371 633 381
f 370 623 622
f 370 622 371
f 352 604 623
f 352 623 370
f 306 557 604
f 306 604 352
f 305 558 557
f 305 553 558
f 305 557 306
f 302 553 305
f 301 554 553
f 301 551 554
f 301 553 302
f 299 551 301
f 298 550 551
f 298 551 299
f 295 547 550
f 295 550 298
f 293 547 295
f 293 545 547
f 291 545 293
f 291 543 545
f 289 543 291
f 289 541 543
f 287 541 289
f 287 539 541
f 285 539 287
f 285 537 539
f 282 534 537
f 282 537 285
f 277 529 534
f 277 534 282
f 271 523 529
f 271 529 277
f 266 518 523
f 266 523 271
f 259 511 518
f 259 518 266
f 251 503 511
f 251 511 259
f 244 496 503
f 244 503 251
f 234 486 496
f 234 496 244
f 227 479 486
f 227 486 234
f 219 471 479
f 219 479 227
f 212 464 471
f 212 471 219
f 208 460 464
f 208 464 212
f 204 456 460
f 204 460 208
f 201 453 456
f 201 456 204
f 198 450 453
f 198 453 201
f 195 447 450
f 195 450 198
f 194 446 447
f 194 447 195
f 197 449 446
f 197 446 194
f 200 452 449
f 200 449 197
f 203 455 452
f 203 452 200
f 207 459 455
f 207 455 203
f 211 459 207
f 211 463 459
f 218 463 211
f 218 470 463
f 226 470 218
f 226 478 470
f 233 478 226
f 233 485 478
f 243 485 233
f 243 495 485
f 250 495 243
f 250 502 495
f 258 502 250
f 258 510 502
f 265 510 258
f 265 517 510
f 276 517 265
f 276 528 517
f 281 528 276
f 281 533 528
f 284 533 281
f 284 536 533
f 286 536 284
f 286 538 536
f 288 538 286
f 288 540 538
f 290 540 288
f 290 542 540
f 292 544 542
f 292 542 290
f 294 546 544
f 294 548 546
f 294 544 292
f 296 548 294
f 297 549 548
f 297 548 296
f 300 552 549
f 300 549 297
f 303 555 552
f 303 552 300
f 304 556 555
f 304 555 303
f 307 559 556
f 307 556 304
f 321 573 559
f 321 559 307
f 310 561 573
f 310 573 321
f 309 562 561
f 309 561 310
f 317 562 309
f 317 569 562
f 329 569 317
f 329 581 569
f 385 636 384
f 385 637 636
f 386 637 385
f 386 638 637
f 387 639 638
f 387 638 386
f 388 640 639
f 388 639 387
f 389 641 640
f 389 640 388
f 390 642 641
f 390 641 389
f 391 643 642
f 391 642 390
f 392 643 391
f 392 644 643
f 395 644 392
f 395 647 644
f 396 647 395
f 396 648 647
f 397 648 396
f 397 649 648
f 398 649 397
f 398 650 649
f 399 650 398
f 399 651 650
f 400 651 399
f 400 652 651
f 401 652 400
f 401 653 652
f 402 654 653
f 402 653 401
f 405 657 654
f 405 658 657
f 405 654 402
f 406 658 405
f 407 659 658
f 407 658 406
f 408 660 659
f 408 662 660
f 408 659 407
f 410 662 408
f 369 621 662
f 369 662 410
f 368 620 621
f 368 621 369
f 366 618 620
f 366 620 368
f 365 617 618
f 365 618 366
f 364 616 617
f 364 614 616
f 364 617 365
f 362 614 364
f 361 613 614
f 361 612 613
f 361 614 362
f 360 612 361
f 359 611 612
f 359 612 360
f 357 609 611
f 357 611 359
f 351 609 357
f 351 603 609
f 350 603 351
f 350 602 603
f 349 602 350
f 349 601 602
f 347 601 349
f 347 599 601
f 346 599 347
f 346 598 599
f 344 596 598
f 344 598 346
f 342 594 596
f 342 596 344
f 340 592 594
f 340 594 342
f 338 590 592
f 338 592 340
f 335 587 590
f 335 590 338
f 333 585 587
f 333 587 335
f 332 584 585
f 332 585 333
f 328 580 584
f 328 584 332
f 327 579 580
f 327 580 328
f 325 577 579
f 325 579 327
f 322 574 577
f 322 577 325
f 319 571 574
f 319 574 322
f 316 568 571
f 316 571 319
f 315 567 568
f 315 568 316
f 312 564 567
f 312 567 315
f 311 563 564
f 311 564 312
f 308 560 563
f 308 563 311
f 313 565 560
f 313 560 308
f 314 566 565
f 314 565 313
f 318 570 566
f 318 566 314
f 320 572 570
f 320 570 318
f 323 572 320
f 323 575 572
f 324 575 323
f 324 576 575
f 326 576 324
f 326 578 576
f 330 578 326
f 330 582 578
f 331 582 330
f 331 583 582
f 334 583 331
f 334 586 583
f 336 586 334
f 336 588 586
f 337 588 336
f 337 589 588
f 341 589 337
f 341 593 589
f 343 593 341
f 343 595 593
f 345 595 343
f 345 597 595
f 353 597 345
f 353 605 597
f 354 605 353
f 354 606 605
f 355 606 354
f 355 607 606
f 356 608 607
f 356 607 355
f 372 624 608
f 372 625 624
f 372 608 356
f 373 625 372
f 374 626 625
f 374 625 373
f 375 627 626
f 375 626 374
f 376 628 627
f 376 627 375
f 377 629 628
f 377 628 376
f 378 630 629
f 378 629 377
f 379 631 630
f 379 630 378
f 380 632 631
f 380 631 379
f 382 634 632
f 382 632 380
f 383 634 382
f 383 635 634
f 384 635 383
f 384 636 635

