OFF
672 1352 0
15.4566593170 1.1583164930 2.0000000000
15.5000000000 -0.0000000000 2.0000000000
15.5000000000 -0.0000000000 0.0000000000
15.4566593170 1.1583164930 0.0000000000
15.3268775940 2.3101551533 2.0000000000
15.3268775940 2.3101551533 0.0000000000
15.1113824844 3.4490745068 2.0000000000
15.1113824844 3.4490745068 0.0000000000
14.8113784790 4.5687050819 2.0000000000
14.8113784790 4.5687050819 0.0000000000
14.4285430908 5.6627860069 2.0000000000
14.4285430908 5.6627860069 0.0000000000
13.9650173187 6.7251977921 2.0000000000
13.9650173187 6.7251977921 0.0000000000
13.4233942032 7.7500000000 2.0000000000
13.4233942032 7.7500000000 0.0000000000
12.8067007065 8.7314605713 2.0000000000
12.8067007065 8.7314605713 0.0000000000
12.1183881760 9.6640920639 2.0000000000
12.1183881760 9.6640920639 0.0000000000
11.3623037338 10.5426778793 2.0000000000
11.3623037338 10.5426778793 0.0000000000
10.5426778793 11.3623037338 2.0000000000
10.5426778793 11.3623037338 0.0000000000
9.6640920639 12.1183881760 2.0000000000
9.6640920639 12.1183881760 0.0000000000
8.7314605713 12.8067007065 2.0000000000
8.7314605713 12.8067007065 0.0000000000
7.7500000000 13.4233942032 2.0000000000
7.7500000000 13.4233942032 0.0000000000
6.7251977921 13.9650173187 2.0000000000
6.7251977921 13.9650173187 0.0000000000
5.6627860069 14.4285430908 2.0000000000
5.6627860069 14.4285430908 0.0000000000
4.5687050819 14.8113784790 2.0000000000
4.5687050819 14.8113784790 0.0000000000
3.4490745068 15.1113824844 2.0000000000
3.4490745068 15.1113824844 0.0000000000
2.3101551533 15.3268775940 2.0000000000
2.3101551533 15.3268775940 0.0000000000
1.1583164930 15.4566593170 2.0000000000
1.1583164930 15.4566593170 0.0000000000
-0.0000000000 15.5000000000 0.0000000000
-0.0000000000 15.5000000000 2.0000000000
-1.1583164930 15.4566593170 0.0000000000
-1.1583164930 15.4566593170 2.0000000000
-2.3101551533 15.3268775940 2.0000000000
-2.3101551533 15.3268775940 0.0000000000
-3.4490745068 15.1113824844 2.0000000000
-3.4490745068 15.1113824844 0.0000000000
-4.5687050819 14.8113784790 2.0000000000
-4.5687050819 14.8113784790 0.0000000000
-5.6627860069 14.4285430908 0.0000000000
-5.6627860069 14.4285430908 2.0000000000
-6.7251977921 13.9650173187 0.0000000000
-6.7251977921 13.9650173187 2.0000000000
-7.7500000000 13.4233942032 2.0000000000
-7.7500000000 13.4233942032 0.0000000000
-8.7314605713 12.8067007065 2.0000000000
-8.7314605713 12.8067007065 0.0000000000
-9.6640920639 12.1183881760 2.0000000000
-9.6640920639 12.1183881760 0.0000000000
-10.5426778793 11.3623037338 2.0000000000
-10.5426778793 11.3623037338 0.0000000000
-11.3623037338 10.5426778793 2.0000000000
-11.3623037338 10.5426778793 0.0000000000
-12.1183881760 9.6640920639 2.0000000000
-12.1183881760 9.6640920639 0.0000000000
-12.8067007065 8.7314605713 2.0000000000
-12.8067007065 8.7314605713 0.0000000000
-13.4233942032 7.7500000000 2.0000000000
-13.4233942032 7.7500000000 0.0000000000
-13.9650173187 6.7251977921 2.0000000000
-13.9650173187 6.7251977921 0.0000000000
-14.4285430908 5.6627860069 2.0000000000
-14.4285430908 5.6627860069 0.0000000000
-14.8113784790 4.5687050819 2.0000000000
-14.8113784790 4.5687050819 0.0000000000
-15.1113824844 3.4490745068 2.0000000000
-15.1113824844 3.4490745068 0.0000000000
-15.3268775940 2.3101551533 2.0000000000
-15.3268775940 2.3101551533 0.0000000000
-15.4566593170 1.1583164930 2.0000000000
-15.4566593170 1.1583164930 0.0000000000
-15.5000000000 0.0000000000 2.0000000000
-15.5000000000 0.0000000000 0.0000000000
-15.4566593170 -1.1583164930 0.0000000000
-15.4566593170 -1.1583164930 2.0000000000
-15.3268775940 -2.3101551533 2.0000000000
-15.3268775940 -2.3101551533 0.0000000000
-15.1113824844 -3.4490745068 2.0000000000
-15.1113824844 -3.4490745068 0.0000000000
-14.8113784790 -4.5687050819 2.0000000000
-14.8113784790 -4.5687050819 0.0000000000
-14.4285430908 -5.6627860069 2.0000000000
-14.4285430908 -5.6627860069 0.0000000000
-13.9650173187 -6.7251977921 2.0000000000
-13.9650173187 -6.7251977921 0.0000000000
-13.4233942032 -7.7500000000 2.0000000000
-13.4233942032 -7.7500000000 0.0000000000
-12.8067007065 -8.7314605713 2.0000000000
-12.8067007065 -8.7314605713 0.0000000000
-12.1183881760 -9.6640920639 2.0000000000
-12.1183881760 -9.6640920639 0.0000000000
-11.3623037338 -10.5426778793 2.0000000000
-11.3623037338 -10.5426778793 0.0000000000
-10.5426778793 -11.3623037338 0.0000000000
-10.5426778793 -11.3623037338 2.0000000000
-9.6640920639 -12.1183881760 2.0000000000
-9.6640920639 -12.1183881760 0.0000000000
-8.7314605713 -12.8067007065 2.0000000000
-8.7314605713 -12.8067007065 0.0000000000
-7.7500000000 -13.4233942032 2.0000000000
-7.7500000000 -13.4233942032 0.0000000000
-6.7251977921 -13.9650173187 2.0000000000
-6.7251977921 -13.9650173187 0.0000000000
-5.6627860069 -14.4285430908 2.0000000000
-5.6627860069 -14.4285430908 0.0000000000
-4.5687050819 -14.8113784790 2.0000000000
-4.5687050819 -14.8113784790 0.0000000000
-3.4490745068 -15.1113824844 2.0000000000
-3.4490745068 -15.1113824844 0.0000000000
-2.3101551533 -15.3268775940 2.0000000000
-2.3101551533 -15.3268775940 0.0000000000
-1.1583164930 -15.4566593170 2.0000000000
-1.1583164930 -15.4566593170 0.0000000000
-0.0000000000 -15.5000000000 2.0000000000
-0.0000000000 -15.5000000000 0.0000000000
1.1583164930 -15.4566593170 0.0000000000
1.1583164930 -15.4566593170 2.0000000000
2.3101551533 -15.3268775940 2.0000000000
2.3101551533 -15.3268775940 0.0000000000
3.4490745068 -15.1113824844 2.0000000000
3.4490745068 -15.1113824844 0.0000000000
4.5687050819 -14.8113784790 2.0000000000
4.5687050819 -14.8113784790 0.0000000000
5.6627860069 -14.4285430908 2.0000000000
5.6627860069 -14.4285430908 0.0000000000
6.7251977921 -13.9650173187 2.0000000000
6.7251977921 -13.9650173187 0.0000000000
7.7500000000 -13.4233942032 2.0000000000
7.7500000000 -13.4233942032 0.0000000000
8.7314605713 -12.8067007065 2.0000000000
8.7314605713 -12.8067007065 0.0000000000
9.6640920639 -12.1183881760 2.0000000000
9.6640920639 -12.1183881760 0.0000000000
10.5426778793 -11.3623037338 2.0000000000
10.5426778793 -11.3623037338 0.0000000000
11.3623037338 -10.5426778793 2.0000000000
11.3623037338 -10.5426778793 0.0000000000
12.1183881760 -9.6640920639 2.0000000000
12.1183881760 -9.6640920639 0.0000000000
12.8067007065 -8.7314605713 2.0000000000
12.8067007065 -8.7314605713 0.0000000000
13.4233942032 -7.7500000000 2.0000000000
13.4233942032 -7.7500000000 0.0000000000
13.9650173187 -6.7251977921 2.0000000000
13.9650173187 -6.7251977921 0.0000000000
14.4285430908 -5.6627860069 2.0000000000
14.4285430908 -5.6627860069 0.0000000000
14.8113784790 -4.5687050819 2.0000000000
14.8113784790 -4.5687050819 0.0000000000
15.1113824844 -3.4490745068 2.0000000000
15.1113824844 -3.4490745068 0.0000000000
15.3268775940 -2.3101551533 2.0000000000
15.3268775940 -2.3101551533 0.0000000000
15.4566593170 -1.1583164930 2.0000000000
15.4566593170 -1.1583164930 0.0000000000
-6.5974669456 -6.1215548515 2.0000000000
-6.1215548515 -6.5974669456 2.0000000000
-5.6114082336 -7.0364832878 2.0000000000
-7.0364832878 -5.6114082336 2.0000000000
-5.0698804855 -7.4361491203 2.0000000000
-7.4361491203 -5.0698804855 2.0000000000
-4.5000000000 -7.7942285538 2.0000000000
-7.7942285538 -4.5000000000 2.0000000000
-11.3430099487 -0.7821986675 2.0000000000
-11.2821989059 -0.8430096507 2.0000000000
-11.3991060257 -0.7170132995 2.0000000000
-11.2170133591 -0.8991062045 2.0000000000
-11.1478176117 -0.9501745701 2.0000000000
-11.4501743317 -0.6478180885 2.0000000000
-11.0749998093 -0.9959292412 2.0000000000
-11.4959287643 -0.5749999881 2.0000000000
-11.5361137390 -0.4989663064 2.0000000000
-10.9989662170 -1.0361142159 2.0000000000
-3.9049537182 -8.1087198257 2.0000000000
-8.1087198257 -3.9049537182 2.0000000000
-11.5705051422 -0.4201421738 2.0000000000
-10.9201421738 -1.0705047846 2.0000000000
-10.8389682770 -1.0989087820 2.0000000000
-11.5989084244 -0.3389684558 2.0000000000
-11.6211671829 -0.2558990717 2.0000000000
-10.7558994293 -1.1211670637 2.0000000000
-11.6371555328 -0.1713986099 2.0000000000
-11.6467847824 -0.0859396085 2.0000000000
-3.2880692482 -8.3778638840 2.0000000000
-8.3778638840 -3.2880692482 2.0000000000
-10.6713981628 -1.1371554136 2.0000000000
-11.6499996185 0.0000000000 2.0000000000
-11.6467847824 0.0859396085 2.0000000000
-11.6371555328 0.1713986099 2.0000000000
-11.6211671829 0.2558990717 2.0000000000
-11.5989084244 0.3389684558 2.0000000000
-2.6527965069 -8.6001548767 2.0000000000
-8.6001548767 -2.6527965069 2.0000000000
-10.5859394073 -1.1467844248 2.0000000000
-10.5000000000 -1.1499999762 2.0000000000
-10.4140605927 -1.1467844248 2.0000000000
-11.5705051422 0.4201421738 2.0000000000
-11.5361137390 0.4989663064 2.0000000000
-11.4959287643 0.5749999881 2.0000000000
-11.4501743317 0.6478180885 2.0000000000
-2.0026884079 -8.7743511200 2.0000000000
-8.7743511200 -2.0026884079 2.0000000000
-10.3286018372 -1.1371554136 2.0000000000
-10.2441005707 -1.1211670637 2.0000000000
-10.1610317230 -1.0989087820 2.0000000000
-10.0798578262 -1.0705047846 2.0000000000
-10.0010337830 -1.0361142159 2.0000000000
-11.3991060257 0.7170132995 2.0000000000
-11.3430099487 0.7821986675 2.0000000000
-11.2821989059 0.8430096507 2.0000000000
-11.2170133591 0.8991062045 2.0000000000
-1.3413803577 -8.8994770050 2.0000000000
-8.8994770050 -1.3413803577 2.0000000000
-9.9250001907 -0.9959292412 2.0000000000
-9.8521823883 -0.9501745701 2.0000000000
-9.7829866409 -0.8991062045 2.0000000000
-9.7178010941 -0.8430096507 2.0000000000
-9.6569900513 -0.7821986675 2.0000000000
-9.6008939743 -0.7170132995 2.0000000000
-11.1478176117 0.9501745701 2.0000000000
-11.0749998093 0.9959292412 2.0000000000
-10.9989662170 1.0361142159 2.0000000000
-10.9201421738 1.0705047846 2.0000000000
-10.8389682770 1.0989087820 2.0000000000
-0.6725708246 -8.9748344421 2.0000000000
-8.9748344421 -0.6725708246 2.0000000000
-9.5498256683 -0.6478180885 2.0000000000
-9.5040712357 -0.5749999881 2.0000000000
-9.4638862610 -0.4989663064 2.0000000000
-9.4294948578 -0.4201421738 2.0000000000
-9.4010915756 -0.3389684558 2.0000000000
-9.3788328171 -0.2558990717 2.0000000000
-0.0000000000 -9.0000000000 2.0000000000
-9.0000000000 0.0000000000 2.0000000000
-9.3628444672 -0.1713986099 2.0000000000
-9.3532152176 -0.0859396085 2.0000000000
-9.3500003815 -0.0000000000 2.0000000000
-9.3532152176 0.0859396085 2.0000000000
-9.3628444672 0.1713986099 2.0000000000
-9.3788328171 0.2558990717 2.0000000000
-10.7558994293 1.1211670637 2.0000000000
0.6725708246 -8.9748344421 2.0000000000
-8.9748344421 0.6725708246 2.0000000000
-9.4010915756 0.3389684558 2.0000000000
-9.4294948578 0.4201421738 2.0000000000
-9.4638862610 0.4989663064 2.0000000000
-9.5040712357 0.5749999881 2.0000000000
-9.5498256683 0.6478180885 2.0000000000
-9.6008939743 0.7170132995 2.0000000000
1.3413803577 -8.8994770050 2.0000000000
-8.8994770050 1.3413803577 2.0000000000
-9.6569900513 0.7821986675 2.0000000000
-9.7178010941 0.8430096507 2.0000000000
-9.7829866409 0.8991062045 2.0000000000
-9.8521823883 0.9501745701 2.0000000000
-9.9250001907 0.9959292412 2.0000000000
-10.0010337830 1.0361142159 2.0000000000
2.0026884079 -8.7743511200 2.0000000000
-8.7743511200 2.0026884079 2.0000000000
-10.1610317230 1.0989087820 2.0000000000
-10.0798578262 1.0705047846 2.0000000000
-10.2441005707 1.1211670637 2.0000000000
-10.3286018372 1.1371554136 2.0000000000
-10.4140605927 1.1467844248 2.0000000000
-8.6001548767 2.6527965069 2.0000000000
-10.5000000000 1.1499999762 2.0000000000
-10.5859394073 1.1467844248 2.0000000000
-10.6713981628 1.1371554136 2.0000000000
2.6527965069 -8.6001548767 2.0000000000
-8.3778638840 3.2880692482 2.0000000000
3.2880692482 -8.3778638840 2.0000000000
-8.1087198257 3.9049537182 2.0000000000
3.9049537182 -8.1087198257 2.0000000000
-7.7942285538 4.5000000000 2.0000000000
4.5000000000 -7.7942285538 2.0000000000
-7.4361491203 5.0698804855 2.0000000000
5.0698804855 -7.4361491203 2.0000000000
-7.0364832878 5.6114082336 2.0000000000
5.6114082336 -7.0364832878 2.0000000000
-6.5974669456 6.1215548515 2.0000000000
6.1215548515 -6.5974669456 2.0000000000
-6.1215548515 6.5974669456 2.0000000000
6.5974669456 -6.1215548515 2.0000000000
7.0364832878 -5.6114082336 2.0000000000
-5.6114082336 7.0364832878 2.0000000000
-5.0698804855 7.4361491203 2.0000000000
-4.5000000000 7.7942285538 2.0000000000
7.4361491203 -5.0698804855 2.0000000000
7.7942285538 -4.5000000000 2.0000000000
-3.9049537182 8.1087198257 2.0000000000
-3.2880692482 8.3778638840 2.0000000000
8.1087198257 -3.9049537182 2.0000000000
8.3778638840 -3.2880692482 2.0000000000
-2.6527965069 8.6001548767 2.0000000000
9.6569900513 -0.7821986675 2.0000000000
8.8994770050 -1.3413803577 2.0000000000
9.7178010941 -0.8430096507 2.0000000000
9.6008939743 -0.7170132995 2.0000000000
8.9748344421 -0.6725708246 2.0000000000
9.7829866409 -0.8991062045 2.0000000000
9.5498256683 -0.6478180885 2.0000000000
9.8521823883 -0.9501745701 2.0000000000
9.5040712357 -0.5749999881 2.0000000000
9.9250001907 -0.9959292412 2.0000000000
9.4638862610 -0.4989663064 2.0000000000
10.0010337830 -1.0361142159 2.0000000000
8.7743511200 -2.0026884079 2.0000000000
10.0798578262 -1.0705047846 2.0000000000
9.4294948578 -0.4201421738 2.0000000000
9.4010915756 -0.3389684558 2.0000000000
10.1610317230 -1.0989087820 2.0000000000
9.3788328171 -0.2558990717 2.0000000000
9.0000000000 -0.0000000000 2.0000000000
10.2441005707 -1.1211670637 2.0000000000
9.3628444672 -0.1713986099 2.0000000000
10.3286018372 -1.1371554136 2.0000000000
10.4140605927 -1.1467844248 2.0000000000
8.6001548767 -2.6527965069 2.0000000000
9.3532152176 -0.0859396085 2.0000000000
10.5000000000 -1.1499999762 2.0000000000
9.3500003815 0.0000000000 2.0000000000
9.3532152176 0.0859396085 2.0000000000
10.5859394073 -1.1467844248 2.0000000000
10.6713981628 -1.1371554136 2.0000000000
9.3628444672 0.1713986099 2.0000000000
9.3788328171 0.2558990717 2.0000000000
10.7558994293 -1.1211670637 2.0000000000
8.9748344421 0.6725708246 2.0000000000
9.4010915756 0.3389684558 2.0000000000
10.8389682770 -1.0989087820 2.0000000000
9.4294948578 0.4201421738 2.0000000000
9.4638862610 0.4989663064 2.0000000000
9.5040712357 0.5749999881 2.0000000000
9.5498256683 0.6478180885 2.0000000000
10.9201421738 -1.0705047846 2.0000000000
10.9989662170 -1.0361142159 2.0000000000
11.0749998093 -0.9959292412 2.0000000000
9.6008939743 0.7170132995 2.0000000000
8.8994770050 1.3413803577 2.0000000000
9.6569900513 0.7821986675 2.0000000000
9.7178010941 0.8430096507 2.0000000000
9.7829866409 0.8991062045 2.0000000000
9.8521823883 0.9501745701 2.0000000000
9.9250001907 0.9959292412 2.0000000000
10.0010337830 1.0361142159 2.0000000000
8.7743511200 2.0026884079 2.0000000000
10.0798578262 1.0705047846 2.0000000000
10.1610317230 1.0989087820 2.0000000000
10.2441005707 1.1211670637 2.0000000000
10.3286018372 1.1371554136 2.0000000000
10.4140605927 1.1467844248 2.0000000000
8.6001548767 2.6527965069 2.0000000000
10.5000000000 1.1499999762 2.0000000000
-2.0026884079 8.7743511200 2.0000000000
11.1478176117 -0.9501745701 2.0000000000
11.2170133591 -0.8991062045 2.0000000000
11.2821989059 -0.8430096507 2.0000000000
11.3430099487 -0.7821986675 2.0000000000
10.5859394073 1.1467844248 2.0000000000
10.6713981628 1.1371554136 2.0000000000
8.3778638840 3.2880692482 2.0000000000
10.7558994293 1.1211670637 2.0000000000
-1.3413803577 8.8994770050 2.0000000000
11.3991060257 -0.7170132995 2.0000000000
11.4501743317 -0.6478180885 2.0000000000
11.4959287643 -0.5749999881 2.0000000000
11.5361137390 -0.4989663064 2.0000000000
-0.6725708246 8.9748344421 2.0000000000
11.5705051422 -0.4201421738 2.0000000000
11.5989084244 -0.3389684558 2.0000000000
11.6211671829 -0.2558990717 2.0000000000
11.6371555328 -0.1713986099 2.0000000000
11.6467847824 -0.0859396085 2.0000000000
11.6499996185 -0.0000000000 2.0000000000
11.6467847824 0.0859396085 2.0000000000
11.6371555328 0.1713986099 2.0000000000
-0.0000000000 9.0000000000 2.0000000000
0.6725708246 8.9748344421 2.0000000000
11.6211671829 0.2558990717 2.0000000000
11.5989084244 0.3389684558 2.0000000000
11.5705051422 0.4201421738 2.0000000000
11.5361137390 0.4989663064 2.0000000000
1.3413803577 8.8994770050 2.0000000000
2.0026884079 8.7743511200 2.0000000000
11.4959287643 0.5749999881 2.0000000000
11.4501743317 0.6478180885 2.0000000000
11.3991060257 0.7170132995 2.0000000000
11.3430099487 0.7821986675 2.0000000000
2.6527965069 8.6001548767 2.0000000000
11.2821989059 0.8430096507 2.0000000000
11.2170133591 0.8991062045 2.0000000000
11.1478176117 0.9501745701 2.0000000000
11.0749998093 0.9959292412 2.0000000000
10.9989662170 1.0361142159 2.0000000000
10.9201421738 1.0705047846 2.0000000000
10.8389682770 1.0989087820 2.0000000000
3.2880692482 8.3778638840 2.0000000000
3.9049537182 8.1087198257 2.0000000000
8.1087198257 3.9049537182 2.0000000000
4.5000000000 7.7942285538 2.0000000000
7.7942285538 4.5000000000 2.0000000000
7.4361491203 5.0698804855 2.0000000000
5.0698804855 7.4361491203 2.0000000000
7.0364832878 5.6114082336 2.0000000000
5.6114082336 7.0364832878 2.0000000000
6.1215548515 6.5974669456 2.0000000000
6.5974669456 6.1215548515 2.0000000000
-6.5974669456 -6.1215548515 0.0000000000
-6.1215548515 -6.5974669456 0.0000000000
-5.6114082336 -7.0364832878 0.0000000000
-7.0364832878 -5.6114082336 0.0000000000
-5.0698804855 -7.4361491203 0.0000000000
-7.4361491203 -5.0698804855 0.0000000000
-4.5000000000 -7.7942285538 0.0000000000
-7.7942285538 -4.5000000000 0.0000000000
-11.3430099487 -0.7821986675 0.0000000000
-11.2821989059 -0.8430096507 0.0000000000
-11.3991060257 -0.7170132995 0.0000000000
-11.2170133591 -0.8991062045 0.0000000000
-11.1478176117 -0.9501745701 0.0000000000
-11.4501743317 -0.6478180885 0.0000000000
-11.0749998093 -0.9959292412 0.0000000000
-11.4959287643 -0.5749999881 0.0000000000
-11.5361137390 -0.4989663064 0.0000000000
-10.9989662170 -1.0361142159 0.0000000000
-3.9049537182 -8.1087198257 0.0000000000
-8.1087198257 -3.9049537182 0.0000000000
-11.5705051422 -0.4201421738 0.0000000000
-10.9201421738 -1.0705047846 0.0000000000
-10.8389682770 -1.0989087820 0.0000000000
-11.5989084244 -0.3389684558 0.0000000000
-11.6211671829 -0.2558990717 0.0000000000
-10.7558994293 -1.1211670637 0.0000000000
-11.6371555328 -0.1713986099 0.0000000000
-11.6467847824 -0.0859396085 0.0000000000
-3.2880692482 -8.3778638840 0.0000000000
-8.3778638840 -3.2880692482 0.0000000000
-10.6713981628 -1.1371554136 0.0000000000
-11.6499996185 0.0000000000 0.0000000000
-11.6467847824 0.0859396085 0.0000000000
-11.6371555328 0.1713986099 0.0000000000
-11.6211671829 0.2558990717 0.0000000000
-11.5989084244 0.3389684558 0.0000000000
-2.6527965069 -8.6001548767 0.0000000000
-8.6001548767 -2.6527965069 0.0000000000
-10.5859394073 -1.1467844248 0.0000000000
-10.5000000000 -1.1499999762 0.0000000000
-10.4140605927 -1.1467844248 0.0000000000
-11.5705051422 0.4201421738 0.0000000000
-11.5361137390 0.4989663064 0.0000000000
-11.4959287643 0.5749999881 0.0000000000
-11.4501743317 0.6478180885 0.0000000000
-2.0026884079 -8.7743511200 0.0000000000
-8.7743511200 -2.0026884079 0.0000000000
-10.3286018372 -1.1371554136 0.0000000000
-10.2441005707 -1.1211670637 0.0000000000
-10.1610317230 -1.0989087820 0.0000000000
-10.0798578262 -1.0705047846 0.0000000000
-10.0010337830 -1.0361142159 0.0000000000
-11.3991060257 0.7170132995 0.0000000000
-11.3430099487 0.7821986675 0.0000000000
-11.2821989059 0.8430096507 0.0000000000
-11.2170133591 0.8991062045 0.0000000000
-1.3413803577 -8.8994770050 0.0000000000
-8.8994770050 -1.3413803577 0.0000000000
-9.9250001907 -0.9959292412 0.0000000000
-9.8521823883 -0.9501745701 0.0000000000
-9.7829866409 -0.8991062045 0.0000000000
-9.7178010941 -0.8430096507 0.0000000000
-9.6569900513 -0.7821986675 0.0000000000
-9.6008939743 -0.7170132995 0.0000000000
-11.1478176117 0.9501745701 0.0000000000
-11.0749998093 0.9959292412 0.0000000000
-10.9989662170 1.0361142159 0.0000000000
-10.9201421738 1.0705047846 0.0000000000
-10.8389682770 1.0989087820 0.0000000000
-0.6725708246 -8.9748344421 0.0000000000
-8.9748344421 -0.6725708246 0.0000000000
-9.5498256683 -0.6478180885 0.0000000000
-9.5040712357 -0.5749999881 0.0000000000
-9.4638862610 -0.4989663064 0.0000000000
-9.4294948578 -0.4201421738 0.0000000000
-9.4010915756 -0.3389684558 0.0000000000
-9.3788328171 -0.2558990717 0.0000000000
-0.0000000000 -9.0000000000 0.0000000000
-9.0000000000 0.0000000000 0.0000000000
-9.3628444672 -0.1713986099 0.0000000000
-9.3532152176 -0.0859396085 0.0000000000
-9.3500003815 -0.0000000000 0.0000000000
-9.3532152176 0.0859396085 0.0000000000
-9.3628444672 0.1713986099 0.0000000000
-9.3788328171 0.2558990717 0.0000000000
-10.7558994293 1.1211670637 0.0000000000
0.6725708246 -8.9748344421 0.0000000000
-8.9748344421 0.6725708246 0.0000000000
-9.4010915756 0.3389684558 0.0000000000
-9.4294948578 0.4201421738 0.0000000000
-9.4638862610 0.4989663064 0.0000000000
-9.5040712357 0.5749999881 0.0000000000
-9.5498256683 0.6478180885 0.0000000000
-9.6008939743 0.7170132995 0.0000000000
1.3413803577 -8.8994770050 0.0000000000
-8.8994770050 1.3413803577 0.0000000000
-9.6569900513 0.7821986675 0.0000000000
-9.7178010941 0.8430096507 0.0000000000
-9.7829866409 0.8991062045 0.0000000000
-9.8521823883 0.9501745701 0.0000000000
-9.9250001907 0.9959292412 0.0000000000
-10.0010337830 1.0361142159 0.0000000000
2.0026884079 -8.7743511200 0.0000000000
-8.7743511200 2.0026884079 0.0000000000
-10.0798578262 1.0705047846 0.0000000000
-10.1610317230 1.0989087820 0.0000000000
-10.2441005707 1.1211670637 0.0000000000
-10.3286018372 1.1371554136 0.0000000000
-10.4140605927 1.1467844248 0.0000000000
-8.6001548767 2.6527965069 0.0000000000
-10.5000000000 1.1499999762 0.0000000000
-10.5859394073 1.1467844248 0.0000000000
-10.6713981628 1.1371554136 0.0000000000
2.6527965069 -8.6001548767 0.0000000000
-8.3778638840 3.2880692482 0.0000000000
3.2880692482 -8.3778638840 0.0000000000
-8.1087198257 3.9049537182 0.0000000000
3.9049537182 -8.1087198257 0.0000000000
-7.7942285538 4.5000000000 0.0000000000
4.5000000000 -7.7942285538 0.0000000000
-7.4361491203 5.0698804855 0.0000000000
5.0698804855 -7.4361491203 0.0000000000
-7.0364832878 5.6114082336 0.0000000000
5.6114082336 -7.0364832878 0.0000000000
-6.5974669456 6.1215548515 0.0000000000
6.1215548515 -6.5974669456 0.0000000000
-6.1215548515 6.5974669456 0.0000000000
6.5974669456 -6.1215548515 0.0000000000
7.0364832878 -5.6114082336 0.0000000000
-5.6114082336 7.0364832878 0.0000000000
-4.5000000000 7.7942285538 0.0000000000
-5.0698804855 7.4361491203 0.0000000000
7.4361491203 -5.0698804855 0.0000000000
7.7942285538 -4.5000000000 0.0000000000
-3.2880692482 8.3778638840 0.0000000000
-3.9049537182 8.1087198257 0.0000000000
8.1087198257 -3.9049537182 0.0000000000
8.3778638840 -3.2880692482 0.0000000000
-2.6527965069 8.6001548767 0.0000000000
9.6569900513 -0.7821986675 0.0000000000
9.7178010941 -0.8430096507 0.0000000000
8.8994770050 -1.3413803577 0.0000000000
9.6008939743 -0.7170132995 0.0000000000
8.9748344421 -0.6725708246 0.0000000000
9.7829866409 -0.8991062045 0.0000000000
9.5498256683 -0.6478180885 0.0000000000
9.8521823883 -0.9501745701 0.0000000000
9.5040712357 -0.5749999881 0.0000000000
9.9250001907 -0.9959292412 0.0000000000
9.4638862610 -0.4989663064 0.0000000000
10.0010337830 -1.0361142159 0.0000000000
8.7743511200 -2.0026884079 0.0000000000
10.0798578262 -1.0705047846 0.0000000000
9.4294948578 -0.4201421738 0.0000000000
9.4010915756 -0.3389684558 0.0000000000
10.1610317230 -1.0989087820 0.0000000000
9.3788328171 -0.2558990717 0.0000000000
9.0000000000 -0.0000000000 0.0000000000
10.2441005707 -1.1211670637 0.0000000000
9.3628444672 -0.1713986099 0.0000000000
10.3286018372 -1.1371554136 0.0000000000
10.4140605927 -1.1467844248 0.0000000000
8.6001548767 -2.6527965069 0.0000000000
9.3532152176 -0.0859396085 0.0000000000
10.5000000000 -1.1499999762 0.0000000000
9.3500003815 0.0000000000 0.0000000000
9.3532152176 0.0859396085 0.0000000000
10.5859394073 -1.1467844248 0.0000000000
10.6713981628 -1.1371554136 0.0000000000
9.3628444672 0.1713986099 0.0000000000
9.3788328171 0.2558990717 0.0000000000
10.7558994293 -1.1211670637 0.0000000000
8.9748344421 0.6725708246 0.0000000000
9.4010915756 0.3389684558 0.0000000000
10.8389682770 -1.0989087820 0.0000000000
9.4294948578 0.4201421738 0.0000000000
9.4638862610 0.4989663064 0.0000000000
9.5040712357 0.5749999881 0.0000000000
9.5498256683 0.6478180885 0.0000000000
10.9201421738 -1.0705047846 0.0000000000
10.9989662170 -1.0361142159 0.0000000000
11.0749998093 -0.9959292412 0.0000000000
9.6008939743 0.7170132995 0.0000000000
8.8994770050 1.3413803577 0.0000000000
9.6569900513 0.7821986675 0.0000000000
9.7178010941 0.8430096507 0.0000000000
9.7829866409 0.8991062045 0.0000000000
9.8521823883 0.9501745701 0.0000000000
9.9250001907 0.9959292412 0.0000000000
10.0010337830 1.0361142159 0.0000000000
8.7743511200 2.0026884079 0.0000000000
10.0798578262 1.0705047846 0.0000000000
10.1610317230 1.0989087820 0.0000000000
10.2441005707 1.1211670637 0.0000000000
10.3286018372 1.1371554136 0.0000000000
10.4140605927 1.1467844248 0.0000000000
8.6001548767 2.6527965069 0.0000000000
10.5000000000 1.1499999762 0.0000000000
-2.0026884079 8.7743511200 0.0000000000
11.1478176117 -0.9501745701 0.0000000000
11.2170133591 -0.8991062045 0.0000000000
11.2821989059 -0.8430096507 0.0000000000
11.3430099487 -0.7821986675 0.0000000000
10.5859394073 1.1467844248 0.0000000000
10.6713981628 1.1371554136 0.0000000000
8.3778638840 3.2880692482 0.0000000000
10.7558994293 1.1211670637 0.0000000000
-1.3413803577 8.8994770050 0.0000000000
11.3991060257 -0.7170132995 0.0000000000
11.4501743317 -0.6478180885 0.0000000000
11.4959287643 -0.5749999881 0.0000000000
11.5361137390 -0.4989663064 0.0000000000
-0.6725708246 8.9748344421 0.0000000000
11.5705051422 -0.4201421738 0.0000000000
11.5989084244 -0.3389684558 0.0000000000
11.6211671829 -0.2558990717 0.0000000000
11.6371555328 -0.1713986099 0.0000000000
11.6467847824 -0.0859396085 0.0000000000
11.6499996185 -0.0000000000 0.0000000000
11.6467847824 0.0859396085 0.0000000000
11.6371555328 0.1713986099 0.0000000000
-0.0000000000 9.0000000000 0.0000000000
0.6725708246 8.9748344421 0.0000000000
11.6211671829 0.2558990717 0.0000000000
11.5989084244 0.3389684558 0.0000000000
11.5705051422 0.4201421738 0.0000000000
11.5361137390 0.4989663064 0.0000000000
2.0026884079 8.7743511200 0.0000000000
1.3413803577 8.8994770050 0.0000000000
11.4959287643 0.5749999881 0.0000000000
11.4501743317 0.6478180885 0.0000000000
11.3991060257 0.7170132995 0.0000000000
11.3430099487 0.7821986675 0.0000000000
2.6527965069 8.6001548767 0.0000000000
11.2821989059 0.8430096507 0.0000000000
11.2170133591 0.8991062045 0.0000000000
11.1478176117 0.9501745701 0.0000000000
11.0749998093 0.9959292412 0.0000000000
10.9989662170 1.0361142159 0.0000000000
10.9201421738 1.0705047846 0.0000000000
10.8389682770 1.0989087820 0.0000000000
3.9049537182 8.1087198257 0.0000000000
3.2880692482 8.3778638840 0.0000000000
8.1087198257 3.9049537182 0.0000000000
4.5000000000 7.7942285538 0.0000000000
7.7942285538 4.5000000000 0.0000000000
7.4361491203 5.0698804855 0.0000000000
5.0698804855 7.4361491203 0.0000000000
7.0364832878 5.6114082336 0.0000000000
5.6114082336 7.0364832878 0.0000000000
6.5974669456 6.1215548515 0.0000000000
6.1215548515 6.5974669456 0.0000000000
3 0 1 2
3 0 2 3
3 4 0 3
3 4 3 5
3 6 5 7
3 6 4 5
3 8 7 9
3 8 6 7
3 10 9 11
3 10 8 9
3 12 11 13
3 12 10 11
3 14 13 15
3 14 12 13
3 16 14 15
3 16 15 17
3 18 16 17
3 18 17 19
3 20 18 19
3 20 19 21
3 22 20 21
3 22 21 23
3 24 22 23
3 24 23 25
3 26 24 25
3 26 25 27
3 28 26 27
3 28 27 29
3 30 28 29
3 30 29 31
3 32 31 33
3 32 30 31
3 34 33 35
3 34 32 33
3 36 35 37
3 36 34 35
3 38 37 39
3 38 36 37
3 40 39 41
3 40 41 42
3 40 38 39
3 43 40 42
3 43 42 44
3 45 43 44
3 46 44 47
3 46 45 44
3 48 47 49
3 48 46 47
3 50 49 51
3 50 51 52
3 50 48 49
3 53 52 54
3 53 50 52
3 55 53 54
3 56 54 57
3 56 55 54
3 58 57 59
3 58 56 57
3 60 59 61
3 60 58 59
3 62 61 63
3 62 60 61
3 64 62 63
3 64 63 65
3 66 64 65
3 66 65 67
3 68 66 67
3 68 67 69
3 70 68 69
3 70 69 71
3 72 70 71
3 72 71 73
3 74 73 75
3 74 72 73
3 76 75 77
3 76 74 75
3 78 77 79
3 78 76 77
3 80 79 81
3 80 78 79
3 82 81 83
3 82 80 81
3 84 83 85
3 84 85 86
3 84 82 83
3 87 84 86
3 88 86 89
3 88 87 86
3 90 89 91
3 90 88 89
3 92 91 93
3 92 90 91
3 94 93 95
3 94 92 93
3 96 95 97
3 96 94 95
3 98 97 99
3 98 96 97
3 100 99 101
3 100 98 99
3 102 101 103
3 102 100 101
3 104 103 105
3 104 105 106
3 104 102 103
3 107 104 106
3 108 106 109
3 108 107 106
3 110 109 111
3 110 108 109
3 112 111 113
3 112 110 111
3 114 113 115
3 114 112 113
3 116 114 115
3 116 115 117
3 118 116 117
3 118 117 119
3 120 118 119
3 120 119 121
3 122 120 121
3 122 121 123
3 124 122 123
3 124 123 125
3 126 124 125
3 126 125 127
3 126 127 128
3 129 126 128
3 130 129 128
3 130 128 131
3 132 130 131
3 132 131 133
3 134 132 133
3 134 133 135
3 136 134 135
3 136 135 137
3 138 136 137
3 138 137 139
3 140 138 139
3 140 139 141
3 142 140 141
3 142 141 143
3 144 143 145
3 144 142 143
3 146 145 147
3 146 144 145
3 148 147 149
3 148 146 147
3 150 149 151
3 150 148 149
3 152 151 153
3 152 150 151
3 154 153 155
3 154 152 153
3 156 155 157
3 156 154 155
3 158 157 159
3 158 156 157
3 160 159 161
3 160 158 159
3 162 161 163
3 162 160 161
3 164 163 165
3 164 162 163
3 166 164 165
3 166 165 167
3 1 166 167
3 1 167 2
3 168 104 107
3 168 107 169
3 170 107 108
3 170 169 107
3 171 102 104
3 171 104 168
3 172 108 110
3 172 170 108
3 173 100 102
3 173 102 171
3 174 110 112
3 174 112 114
3 174 172 110
3 175 100 173
3 175 98 100
3 176 88 90
3 177 176 90
3 178 88 176
3 179 177 90
3 180 179 90
3 181 88 178
3 182 180 90
3 182 90 92
3 183 88 181
3 184 88 183
3 184 87 88
3 185 182 92
3 186 174 114
3 186 114 116
3 187 98 175
3 187 94 96
3 187 96 98
3 188 87 184
3 189 185 92
3 190 189 92
3 190 92 94
3 191 87 188
3 192 87 191
3 193 190 94
3 194 87 192
3 194 84 87
3 195 84 194
3 196 186 116
3 197 94 187
3 197 193 94
3 197 198 193
3 199 84 195
3 200 84 199
3 201 82 84
3 201 84 200
3 202 82 201
3 203 82 202
3 204 196 116
3 204 116 118
3 205 198 197
3 205 206 198
3 205 207 206
3 205 208 207
3 209 82 203
3 210 80 82
3 210 82 209
3 211 80 210
3 212 80 211
3 213 204 118
3 213 118 120
3 214 208 205
3 214 215 208
3 214 216 215
3 214 217 216
3 214 218 217
3 214 219 218
3 220 80 212
3 221 78 80
3 221 80 220
3 222 78 221
3 223 78 222
3 224 213 120
3 224 120 122
3 225 219 214
3 225 226 219
3 225 227 226
3 225 228 227
3 225 229 228
3 225 230 229
3 225 231 230
3 232 78 223
3 233 76 78
3 233 78 232
3 234 76 233
3 235 76 234
3 236 76 235
3 237 224 122
3 237 122 124
3 238 231 225
3 238 239 231
3 238 240 239
3 238 241 240
3 238 242 241
3 238 243 242
3 244 243 238
3 245 237 124
3 245 124 126
3 245 126 129
3 246 244 238
3 246 247 244
3 246 248 247
3 246 249 248
3 246 250 249
3 246 251 250
3 246 252 251
3 74 76 236
3 74 236 253
3 254 245 129
3 255 252 246
3 255 256 252
3 255 257 256
3 255 258 257
3 255 259 258
3 255 260 259
3 255 261 260
3 262 129 130
3 262 254 129
3 263 261 255
3 263 264 261
3 263 265 264
3 263 266 265
3 263 267 266
3 263 268 267
3 263 269 268
3 270 262 130
3 270 130 132
3 271 272 273
3 271 274 272
3 271 275 274
3 271 276 275
3 271 269 263
3 271 273 269
3 277 278 276
3 277 279 278
3 277 280 279
3 277 276 271
3 281 132 134
3 281 134 136
3 281 270 132
3 282 253 280
3 282 280 277
3 282 72 74
3 282 74 253
3 283 281 136
3 284 72 282
3 285 283 136
3 285 136 138
3 286 70 72
3 286 72 284
3 287 285 138
3 287 138 140
3 288 70 286
3 288 66 68
3 288 68 70
3 289 287 140
3 289 140 142
3 290 66 288
3 291 289 142
3 291 142 144
3 64 66 290
3 292 64 290
3 293 291 144
3 293 144 146
3 294 64 292
3 62 64 294
3 148 295 293
3 148 293 146
3 296 295 148
3 60 62 294
3 60 294 297
3 150 296 148
3 58 60 297
3 58 298 299
3 58 297 298
3 152 300 296
3 152 301 300
3 152 296 150
3 56 58 299
3 154 301 152
3 55 56 299
3 55 302 303
3 55 299 302
3 156 301 154
3 156 304 301
3 156 305 304
3 53 55 303
3 53 303 306
3 158 305 156
3 307 308 309
3 310 308 307
3 310 311 308
3 312 309 308
3 313 311 310
3 314 312 308
3 315 311 313
3 316 314 308
3 317 311 315
3 318 308 319
3 318 316 308
3 320 318 319
3 321 311 317
3 322 311 321
3 323 320 319
3 324 325 311
3 324 311 322
3 326 323 319
3 327 325 324
3 328 326 319
3 329 319 330
3 329 328 319
3 331 325 327
3 332 329 330
3 333 325 331
3 334 325 333
3 335 332 330
3 336 335 330
3 336 330 305
3 337 325 334
3 338 325 337
3 339 305 158
3 339 336 305
3 340 325 338
3 341 340 338
3 342 339 158
3 343 340 341
3 344 340 343
3 345 340 344
3 346 340 345
3 50 53 306
3 160 347 342
3 160 348 347
3 160 349 348
3 160 342 158
3 350 340 346
3 350 351 340
3 352 351 350
3 353 351 352
3 354 351 353
3 355 351 354
3 356 351 355
3 357 351 356
3 357 358 351
3 359 358 357
3 360 358 359
3 361 358 360
3 362 358 361
3 363 364 358
3 363 358 362
3 365 364 363
3 48 50 306
3 48 306 366
3 162 367 349
3 162 368 367
3 162 369 368
3 162 370 369
3 162 349 160
3 371 364 365
3 372 373 364
3 372 364 371
3 374 373 372
3 46 48 366
3 46 366 375
3 164 376 370
3 164 377 376
3 164 378 377
3 164 379 378
3 164 370 162
3 45 46 375
3 45 375 380
3 166 379 164
3 166 381 379
3 166 382 381
3 166 383 382
3 166 384 383
3 1 384 166
3 1 385 384
3 1 386 385
3 1 387 386
3 1 388 387
3 43 45 380
3 43 380 389
3 40 43 389
3 40 389 390
3 0 391 388
3 0 392 391
3 0 393 392
3 0 394 393
3 0 388 1
3 38 40 390
3 38 395 396
3 38 390 395
3 4 397 394
3 4 398 397
3 4 399 398
3 4 400 399
3 4 394 0
3 36 38 396
3 36 396 401
3 6 402 400
3 6 403 402
3 6 404 403
3 6 405 404
3 6 400 4
3 34 36 401
3 8 405 6
3 8 406 405
3 8 407 406
3 8 408 407
3 32 34 401
3 32 409 410
3 32 401 409
3 10 373 374
3 10 374 408
3 10 411 373
3 10 408 8
3 30 32 410
3 30 410 412
3 12 411 10
3 12 413 411
3 14 413 12
3 28 30 412
3 16 414 413
3 16 413 14
3 26 412 415
3 26 28 412
3 18 414 16
3 18 416 414
3 24 26 415
3 24 415 417
3 22 418 419
3 22 417 418
3 22 24 417
3 20 419 416
3 20 416 18
3 20 22 419
3 420 106 105
3 420 421 106
3 422 109 106
3 422 106 421
3 423 105 103
3 423 420 105
3 424 111 109
3 424 109 422
3 425 103 101
3 425 423 103
3 426 113 111
3 426 115 113
3 426 111 424
3 427 425 101
3 427 101 99
3 428 91 89
3 429 91 428
3 430 428 89
3 431 91 429
3 432 91 431
3 433 430 89
3 434 91 432
3 434 93 91
3 435 433 89
3 436 435 89
3 436 89 86
3 437 93 434
3 438 115 426
3 438 117 115
3 439 427 99
3 439 97 95
3 439 99 97
3 440 436 86
3 441 93 437
3 442 93 441
3 442 95 93
3 443 440 86
3 444 443 86
3 445 95 442
3 446 444 86
3 446 86 85
3 447 446 85
3 448 117 438
3 449 439 95
3 449 95 445
3 449 445 450
3 451 447 85
3 452 451 85
3 453 85 83
3 453 452 85
3 454 453 83
3 455 454 83
3 456 117 448
3 456 119 117
3 457 449 450
3 457 450 458
3 457 458 459
3 457 459 460
3 461 455 83
3 462 83 81
3 462 461 83
3 463 462 81
3 464 463 81
3 465 119 456
3 465 121 119
3 466 457 460
3 466 460 467
3 466 467 468
3 466 468 469
3 466 469 470
3 466 470 471
3 472 464 81
3 473 81 79
3 473 472 81
3 474 473 79
3 475 474 79
3 476 121 465
3 476 123 121
3 477 466 471
3 477 471 478
3 477 478 479
3 477 479 480
3 477 480 481
3 477 481 482
3 477 482 483
3 484 475 79
3 485 79 77
3 485 484 79
3 486 485 77
3 487 486 77
3 488 487 77
3 489 123 476
3 489 125 123
3 490 477 483
3 490 483 491
3 490 491 492
3 490 492 493
3 490 493 494
3 490 494 495
3 496 490 495
3 497 125 489
3 497 127 125
3 497 128 127
3 498 490 496
3 498 496 499
3 498 499 500
3 498 500 501
3 498 501 502
3 498 502 503
3 498 503 504
3 75 488 77
3 75 505 488
3 506 128 497
3 507 498 504
3 507 504 508
3 507 508 509
3 507 509 510
3 507 510 511
3 507 511 512
3 507 512 513
3 514 131 128
3 514 128 506
3 515 507 513
3 515 513 516
3 515 516 517
3 515 517 518
3 515 518 519
3 515 519 520
3 515 520 521
3 522 131 514
3 522 133 131
3 523 524 525
3 523 525 526
3 523 526 527
3 523 527 528
3 523 515 521
3 523 521 524
3 529 528 530
3 529 530 531
3 529 531 532
3 529 523 528
3 533 135 133
3 533 137 135
3 533 133 522
3 534 532 505
3 534 529 532
3 534 75 73
3 534 505 75
3 535 137 533
3 536 534 73
3 537 137 535
3 537 139 137
3 538 73 71
3 538 536 73
3 539 139 537
3 539 141 139
3 540 538 71
3 540 69 67
3 540 71 69
3 541 141 539
3 541 143 141
3 542 540 67
3 543 143 541
3 543 145 143
3 65 542 67
3 544 542 65
3 545 145 543
3 545 147 145
3 546 544 65
3 63 546 65
3 149 545 547
3 149 147 545
3 548 149 547
3 61 546 63
3 61 549 546
3 151 149 548
3 59 549 61
3 59 550 551
3 59 551 549
3 153 548 552
3 153 552 553
3 153 151 548
3 57 550 59
3 155 153 553
3 54 550 57
3 54 554 555
3 54 555 550
3 157 155 553
3 157 553 556
3 157 556 557
3 52 554 54
3 52 558 554
3 159 157 557
3 559 560 561
3 562 559 561
3 562 561 563
3 564 561 560
3 565 562 563
3 566 561 564
3 567 565 563
3 568 561 566
3 569 567 563
3 570 571 561
3 570 561 568
3 572 571 570
3 573 569 563
3 574 573 563
3 575 571 572
3 576 563 577
3 576 574 563
3 578 571 575
3 579 576 577
3 580 571 578
3 581 582 571
3 581 571 580
3 583 579 577
3 584 582 581
3 585 583 577
3 586 585 577
3 587 582 584
3 588 582 587
3 588 557 582
3 589 586 577
3 590 589 577
3 591 159 557
3 591 557 588
3 592 590 577
3 593 590 592
3 594 159 591
3 595 593 592
3 596 595 592
3 597 596 592
3 598 597 592
3 51 558 52
3 161 594 599
3 161 599 600
3 161 600 601
3 161 159 594
3 602 598 592
3 602 592 603
3 604 602 603
3 605 604 603
3 606 605 603
3 607 606 603
3 608 607 603
3 609 608 603
3 609 603 610
3 611 609 610
3 612 611 610
3 613 612 610
3 614 613 610
3 615 610 616
3 615 614 610
3 617 615 616
3 49 558 51
3 49 618 558
3 163 601 619
3 163 619 620
3 163 620 621
3 163 621 622
3 163 161 601
3 623 617 616
3 624 616 625
3 624 623 616
3 626 624 625
3 47 618 49
3 47 627 618
3 165 622 628
3 165 628 629
3 165 629 630
3 165 630 631
3 165 163 622
3 44 627 47
3 44 632 627
3 167 165 631
3 167 631 633
3 167 633 634
3 167 634 635
3 167 635 636
3 2 167 636
3 2 636 637
3 2 637 638
3 2 638 639
3 2 639 640
3 42 632 44
3 42 641 632
3 41 641 42
3 41 642 641
3 3 640 643
3 3 643 644
3 3 644 645
3 3 645 646
3 3 2 640
3 39 642 41
3 39 647 648
3 39 648 642
3 5 646 649
3 5 649 650
3 5 650 651
3 5 651 652
3 5 3 646
3 37 647 39
3 37 653 647
3 7 652 654
3 7 654 655
3 7 655 656
3 7 656 657
3 7 5 652
3 35 653 37
3 9 7 657
3 9 657 658
3 9 658 659
3 9 659 660
3 33 653 35
3 33 661 662
3 33 662 653
3 11 626 625
3 11 660 626
3 11 625 663
3 11 9 660
3 31 661 33
3 31 664 661
3 13 11 663
3 13 663 665
3 15 13 665
3 29 664 31
3 17 665 666
3 17 15 665
3 27 667 664
3 27 664 29
3 19 17 666
3 19 666 668
3 25 667 27
3 25 669 667
3 23 670 671
3 23 671 669
3 23 669 25
3 21 668 670
3 21 19 668
3 21 670 23
3 250 501 249
3 250 502 501
3 251 502 250
3 251 503 502
3 252 504 503
3 252 503 251
3 256 508 504
3 256 504 252
3 257 509 508
3 257 508 256
3 258 510 509
3 258 509 257
3 259 511 510
3 259 510 258
3 260 511 259
3 260 512 511
3 261 512 260
3 261 513 512
3 264 513 261
3 264 516 513
3 265 516 264
3 265 517 516
3 266 517 265
3 266 518 517
3 267 518 266
3 267 519 518
3 268 519 267
3 268 520 519
3 269 520 268
3 269 521 520
3 273 524 521
3 273 521 269
3 272 525 524
3 272 526 525
3 272 524 273
3 274 526 272
3 275 527 526
3 275 526 274
3 276 528 527
3 276 530 528
3 276 527 275
3 278 530 276
3 279 531 530
3 279 530 278
3 280 532 531
3 280 531 279
3 253 505 532
3 253 532 280
3 236 488 505
3 236 505 253
3 235 487 488
3 235 486 487
3 235 488 236
3 234 486 235
3 233 485 486
3 233 484 485
3 233 486 234
3 232 484 233
3 223 475 484
3 223 484 232
3 222 474 475
3 222 475 223
3 221 474 222
3 221 473 474
3 220 473 221
3 220 472 473
3 212 472 220
3 212 464 472
3 211 464 212
3 211 463 464
3 210 463 211
3 210 462 463
3 209 461 462
3 209 462 210
3 203 455 461
3 203 461 209
3 202 454 455
3 202 455 203
3 201 453 454
3 201 454 202
3 200 452 453
3 200 453 201
3 199 451 452
3 199 452 200
3 195 447 451
3 195 451 199
3 194 446 447
3 194 447 195
3 192 444 446
3 192 446 194
3 191 443 444
3 191 444 192
3 188 440 443
3 188 443 191
3 184 436 440
3 184 440 188
3 183 435 436
3 183 436 184
3 181 433 435
3 181 435 183
3 178 430 433
3 178 433 181
3 176 428 430
3 176 430 178
3 177 429 428
3 177 428 176
3 179 431 429
3 179 429 177
3 180 432 431
3 180 431 179
3 182 434 432
3 182 432 180
3 185 437 434
3 185 434 182
3 189 437 185
3 189 441 437
3 190 441 189
3 190 442 441
3 193 442 190
3 193 445 442
3 198 445 193
3 198 450 445
3 206 450 198
3 206 458 450
3 207 458 206
3 207 459 458
3 208 459 207
3 208 460 459
3 215 460 208
3 215 467 460
3 216 467 215
3 216 468 467
3 217 468 216
3 217 469 468
3 218 469 217
3 218 470 469
3 219 470 218
3 219 471 470
3 226 471 219
3 226 478 471
3 227 478 226
3 227 479 478
3 228 480 479
3 228 479 227
3 229 481 480
3 229 482 481
3 229 480 228
3 230 482 229
3 231 483 482
3 231 482 230
3 239 491 483
3 239 483 231
3 240 492 491
3 240 491 239
3 241 493 492
3 241 492 240
3 242 494 493
3 242 493 241
3 243 495 494
3 243 494 242
3 244 496 495
3 244 495 243
3 247 499 496
3 247 496 244
3 248 499 247
3 248 500 499
3 249 500 248
3 249 501 500
3 340 577 325
3 340 592 577
3 351 592 340
3 351 603 592
3 358 610 603
3 358 603 351
3 364 616 610
3 364 610 358
3 373 625 616
3 373 616 364
3 411 663 625
3 411 625 373
3 413 665 663
3 413 663 411
3 414 665 413
3 414 666 665
3 416 666 414
3 416 668 666
3 419 668 416
3 419 670 668
3 418 670 419
3 418 671 670
3 417 671 418
3 417 669 671
3 415 669 417
3 415 667 669
3 412 667 415
3 412 664 667
3 410 664 412
3 410 661 664
3 409 662 661
3 409 661 410
3 401 653 662
3 401 647 653
3 401 662 409
3 396 647 401
3 395 648 647
3 395 647 396
3 390 642 648
3 390 641 642
3 390 648 395
3 389 641 390
3 380 632 641
3 380 641 389
3 375 627 632
3 375 632 380
3 366 618 627
3 366 627 375
3 306 558 618
3 306 618 366
3 303 554 558
3 303 555 554
3 303 558 306
3 302 555 303
3 299 550 555
3 299 551 550
3 299 555 302
3 298 551 299
3 297 549 551
3 297 551 298
3 294 546 549
3 294 549 297
3 292 546 294
3 292 544 546
3 290 544 292
3 290 542 544
3 288 542 290
3 288 540 542
3 286 540 288
3 286 538 540
3 284 538 286
3 284 536 538
3 282 534 536
3 282 536 284
3 277 529 534
3 277 534 282
3 271 523 529
3 271 529 277
3 263 515 523
3 263 523 271
3 255 507 515
3 255 515 263
3 246 498 507
3 246 507 255
3 238 490 498
3 238 498 246
3 225 477 490
3 225 490 238
3 214 466 477
3 214 477 225
3 205 457 466
3 205 466 214
3 197 449 457
3 197 457 205
3 187 439 449
3 187 449 197
3 175 427 439
3 175 439 187
3 173 425 427
3 173 427 175
3 171 423 425
3 171 425 173
3 168 420 423
3 168 423 171
3 169 421 420
3 169 420 168
3 170 422 421
3 170 421 169
3 172 424 422
3 172 422 170
3 174 426 424
3 174 424 172
3 186 438 426
3 186 426 174
3 196 438 186
3 196 448 438
3 204 448 196
3 204 456 448
3 213 456 204
3 213 465 456
3 224 465 213
3 224 476 465
3 237 476 224
3 237 489 476
3 245 489 237
3 245 497 489
3 254 497 245
3 254 506 497
3 262 506 254
3 262 514 506
3 270 514 262
3 270 522 514
3 281 522 270
3 281 533 522
3 283 533 281
3 283 535 533
3 285 535 283
3 285 537 535
3 287 537 285
3 287 539 537
3 289 539 287
3 289 541 539
3 291 543 541
3 291 541 289
3 293 545 543
3 293 547 545
3 293 543 291
3 295 547 293
3 296 548 547
3 296 547 295
3 300 552 548
3 300 548 296
3 301 553 552
3 301 552 300
3 304 556 553
3 304 553 301
3 305 557 556
3 305 556 304
3 330 582 557
3 330 557 305
3 319 571 582
3 319 582 330
3 308 561 571
3 308 571 319
3 311 561 308
3 311 563 561
3 325 563 311
3 325 577 563
3 387 638 386
3 387 639 638
3 388 639 387
3 388 640 639
3 391 643 640
3 391 640 388
3 392 644 643
3 392 643 391
3 393 645 644
3 393 644 392
3 394 646 645
3 394 645 393
3 397 649 646
3 397 646 394
3 398 649 397
3 398 650 649
3 399 650 398
3 399 651 650
3 400 651 399
3 400 652 651
3 402 652 400
3 402 654 652
3 403 654 402
3 403 655 654
3 404 655 403
3 404 656 655
3 405 656 404
3 405 657 656
3 406 657 405
3 406 658 657
3 407 659 658
3 407 658 406
3 408 660 659
3 408 626 660
3 408 659 407
3 374 626 408
3 372 624 626
3 372 626 374
3 371 623 624
3 371 617 623
3 371 624 372
3 365 617 371
3 363 615 617
3 363 617 365
3 362 614 615
3 362 615 363
3 361 613 614
3 361 614 362
3 360 612 613
3 360 613 361
3 359 611 612
3 359 609 611
3 359 612 360
3 357 609 359
3 356 608 609
3 356 607 608
3 356 609 357
3 355 607 356
3 354 606 607
3 354 607 355
3 353 605 606
3 353 606 354
3 352 605 353
3 352 604 605
3 350 604 352
3 350 602 604
3 346 602 350
3 346 598 602
3 345 598 346
3 345 597 598
3 344 597 345
3 344 596 597
3 343 595 596
3 343 596 344
3 341 593 595
3 341 595 343
3 338 590 593
3 338 593 341
3 337 589 590
3 337 590 338
3 334 586 589
3 334 589 337
3 333 585 586
3 333 586 334
3 331 583 585
3 331 585 333
3 327 579 583
3 327 583 331
3 324 576 579
3 324 579 327
3 322 574 576
3 322 576 324
3 321 573 574
3 321 574 322
3 317 569 573
3 317 573 321
3 315 567 569
3 315 569 317
3 313 565 567
3 313 567 315
3 310 562 565
3 310 565 313
3 307 559 562
3 307 562 310
3 309 560 559
3 309 559 307
3 312 564 560
3 312 560 309
3 314 566 564
3 314 564 312
3 316 568 566
3 316 566 314
3 318 570 568
3 318 568 316
3 320 570 318
3 320 572 570
3 323 572 320
3 323 575 572
3 326 575 323
3 326 578 575
3 328 578 326
3 328 580 578
3 329 580 328
3 329 581 580
3 332 581 329
3 332 584 581
3 335 584 332
3 335 587 584
3 336 587 335
3 336 588 587
3 339 588 336
3 339 591 588
3 342 591 339
3 342 594 591
3 347 594 342
3 347 599 594
3 348 599 347
3 348 600 599
3 349 600 348
3 349 601 600
3 367 601 349
3 367 619 601
3 368 620 619
3 368 619 367
3 369 621 620
3 369 622 621
3 369 620 368
3 370 622 369
3 376 628 622
3 376 622 370
3 377 629 628
3 377 628 376
3 378 630 629
3 378 629 377
3 379 631 630
3 379 630 378
3 381 633 631
3 381 631 379
3 382 634 633
3 382 633 381
3 383 635 634
3 383 634 382
3 384 636 635
3 384 635 383
3 385 636 384
3 385 637 636
3 386 637 385
3 386 638 637
