# https://github.com/mikedh/trimesh

o spindle_keeper.stl
v 15.45665932 1.15831649 2.00000000
v 15.50000000 -0.00000000 2.00000000
v 15.50000000 -0.00000000 0.00000000
v 15.45665932 1.15831649 0.00000000
v 15.32687759 2.31015515 2.00000000
v 15.32687759 2.31015515 0.00000000
v 15.11138248 3.44907451 2.00000000
v 15.11138248 3.44907451 0.00000000
v 14.81137848 4.56870508 2.00000000
v 14.81137848 4.56870508 0.00000000
v 14.42854309 5.66278601 2.00000000
v 14.42854309 5.66278601 0.00000000
v 13.96501732 6.72519779 2.00000000
v 13.96501732 6.72519779 0.00000000
v 13.42339420 7.75000000 2.00000000
v 13.42339420 7.75000000 0.00000000
v 12.80670071 8.73146057 2.00000000
v 12.80670071 8.73146057 0.00000000
v 12.11838818 9.66409206 2.00000000
v 12.11838818 9.66409206 0.00000000
v 11.36230373 10.54267788 2.00000000
v 11.36230373 10.54267788 0.00000000
v 10.54267788 11.36230373 2.00000000
v 10.54267788 11.36230373 0.00000000
v 9.66409206 12.11838818 2.00000000
v 9.66409206 12.11838818 0.00000000
v 8.73146057 12.80670071 2.00000000
v 8.73146057 12.80670071 0.00000000
v 7.75000000 13.42339420 2.00000000
v 7.75000000 13.42339420 0.00000000
v 6.72519779 13.96501732 2.00000000
v 6.72519779 13.96501732 0.00000000
v 5.66278601 14.42854309 2.00000000
v 5.66278601 14.42854309 0.00000000
v 4.56870508 14.81137848 2.00000000
v 4.56870508 14.81137848 0.00000000
v 3.44907451 15.11138248 2.00000000
v 3.44907451 15.11138248 0.00000000
v 2.31015515 15.32687759 2.00000000
v 2.31015515 15.32687759 0.00000000
v 1.15831649 15.45665932 2.00000000
v 1.15831649 15.45665932 0.00000000
v -0.00000000 15.50000000 0.00000000
v -0.00000000 15.50000000 2.00000000
v -1.15831649 15.45665932 0.00000000
v -1.15831649 15.45665932 2.00000000
v -2.31015515 15.32687759 2.00000000
v -2.31015515 15.32687759 0.00000000
v -3.44907451 15.11138248 2.00000000
v -3.44907451 15.11138248 0.00000000
v -4.56870508 14.81137848 2.00000000
v -4.56870508 14.81137848 0.00000000
v -5.66278601 14.42854309 0.00000000
v -5.66278601 14.42854309 2.00000000
v -6.72519779 13.96501732 0.00000000
v -6.72519779 13.96501732 2.00000000
v -7.75000000 13.42339420 2.00000000
v -7.75000000 13.42339420 0.00000000
v -8.73146057 12.80670071 2.00000000
v -8.73146057 12.80670071 0.00000000
v -9.66409206 12.11838818 2.00000000
v -9.66409206 12.11838818 0.00000000
v -10.54267788 11.36230373 2.00000000
v -10.54267788 11.36230373 0.00000000
v -11.36230373 10.54267788 2.00000000
v -11.36230373 10.54267788 0.00000000
v -12.11838818 9.66409206 2.00000000
v -12.11838818 9.66409206 0.00000000
v -12.80670071 8.73146057 2.00000000
v -12.80670071 8.73146057 0.00000000
v -13.42339420 7.75000000 2.00000000
v -13.42339420 7.75000000 0.00000000
v -13.96501732 6.72519779 2.00000000
v -13.96501732 6.72519779 0.00000000
v -14.42854309 5.66278601 2.00000000
v -14.42854309 5.66278601 0.00000000
v -14.81137848 4.56870508 2.00000000
v -14.81137848 4.56870508 0.00000000
v -15.11138248 3.44907451 2.00000000
v -15.11138248 3.44907451 0.00000000
v -15.32687759 2.31015515 2.00000000
v -15.32687759 2.31015515 0.00000000
v -15.45665932 1.15831649 2.00000000
v -15.45665932 1.15831649 0.00000000
v -15.50000000 0.00000000 2.00000000
v -15.50000000 0.00000000 0.00000000
v -15.45665932 -1.15831649 0.00000000
v -15.45665932 -1.15831649 2.00000000
v -15.32687759 -2.31015515 2.00000000
v -15.32687759 -2.31015515 0.00000000
v -15.11138248 -3.44907451 2.00000000
v -15.11138248 -3.44907451 0.00000000
v -14.81137848 -4.56870508 2.00000000
v -14.81137848 -4.56870508 0.00000000
v -14.42854309 -5.66278601 2.00000000
v -14.42854309 -5.66278601 0.00000000
v -13.96501732 -6.72519779 2.00000000
v -13.96501732 -6.72519779 0.00000000
v -13.42339420 -7.75000000 2.00000000
v -13.42339420 -7.75000000 0.00000000
v -12.80670071 -8.73146057 2.00000000
v -12.80670071 -8.73146057 0.00000000
v -12.11838818 -9.66409206 2.00000000
v -12.11838818 -9.66409206 0.00000000
v -11.36230373 -10.54267788 2.00000000
v -11.36230373 -10.54267788 0.00000000
v -10.54267788 -11.36230373 0.00000000
v -10.54267788 -11.36230373 2.00000000
v -9.66409206 -12.11838818 2.00000000
v -9.66409206 -12.11838818 0.00000000
v -8.73146057 -12.80670071 2.00000000
v -8.73146057 -12.80670071 0.00000000
v -7.75000000 -13.42339420 2.00000000
v -7.75000000 -13.42339420 0.00000000
v -6.72519779 -13.96501732 2.00000000
v -6.72519779 -13.96501732 0.00000000
v -5.66278601 -14.42854309 2.00000000
v -5.66278601 -14.42854309 0.00000000
v -4.56870508 -14.81137848 2.00000000
v -4.56870508 -14.81137848 0.00000000
v -3.44907451 -15.11138248 2.00000000
v -3.44907451 -15.11138248 0.00000000
v -2.31015515 -15.32687759 2.00000000
v -2.31015515 -15.32687759 0.00000000
v -1.15831649 -15.45665932 2.00000000
v -1.15831649 -15.45665932 0.00000000
v -0.00000000 -15.50000000 2.00000000
v -0.00000000 -15.50000000 0.00000000
v 1.15831649 -15.45665932 0.00000000
v 1.15831649 -15.45665932 2.00000000
v 2.31015515 -15.32687759 2.00000000
v 2.31015515 -15.32687759 0.00000000
v 3.44907451 -15.11138248 2.00000000
v 3.44907451 -15.11138248 0.00000000
v 4.56870508 -14.81137848 2.00000000
v 4.56870508 -14.81137848 0.00000000
v 5.66278601 -14.42854309 2.00000000
v 5.66278601 -14.42854309 0.00000000
v 6.72519779 -13.96501732 2.00000000
v 6.72519779 -13.96501732 0.00000000
v 7.75000000 -13.42339420 2.00000000
v 7.75000000 -13.42339420 0.00000000
v 8.73146057 -12.80670071 2.00000000
v 8.73146057 -12.80670071 0.00000000
v 9.66409206 -12.11838818 2.00000000
v 9.66409206 -12.11838818 0.00000000
v 10.54267788 -11.36230373 2.00000000
v 10.54267788 -11.36230373 0.00000000
v 11.36230373 -10.54267788 2.00000000
v 11.36230373 -10.54267788 0.00000000
v 12.11838818 -9.66409206 2.00000000
v 12.11838818 -9.66409206 0.00000000
v 12.80670071 -8.73146057 2.00000000
v 12.80670071 -8.73146057 0.00000000
v 13.42339420 -7.75000000 2.00000000
v 13.42339420 -7.75000000 0.00000000
v 13.96501732 -6.72519779 2.00000000
v 13.96501732 -6.72519779 0.00000000
v 14.42854309 -5.66278601 2.00000000
v 14.42854309 -5.66278601 0.00000000
v 14.81137848 -4.56870508 2.00000000
v 14.81137848 -4.56870508 0.00000000
v 15.11138248 -3.44907451 2.00000000
v 15.11138248 -3.44907451 0.00000000
v 15.32687759 -2.31015515 2.00000000
v 15.32687759 -2.31015515 0.00000000
v 15.45665932 -1.15831649 2.00000000
v 15.45665932 -1.15831649 0.00000000
v -6.59746695 -6.12155485 2.00000000
v -6.12155485 -6.59746695 2.00000000
v -5.61140823 -7.03648329 2.00000000
v -7.03648329 -5.61140823 2.00000000
v -5.06988049 -7.43614912 2.00000000
v -7.43614912 -5.06988049 2.00000000
v -4.50000000 -7.79422855 2.00000000
v -7.79422855 -4.50000000 2.00000000
v -11.34300995 -0.78219867 2.00000000
v -11.28219891 -0.84300965 2.00000000
v -11.39910603 -0.71701330 2.00000000
v -11.21701336 -0.89910620 2.00000000
v -11.14781761 -0.95017457 2.00000000
v -11.45017433 -0.64781809 2.00000000
v -11.07499981 -0.99592924 2.00000000
v -11.49592876 -0.57499999 2.00000000
v -11.53611374 -0.49896631 2.00000000
v -10.99896622 -1.03611422 2.00000000
v -3.90495372 -8.10871983 2.00000000
v -8.10871983 -3.90495372 2.00000000
v -11.57050514 -0.42014217 2.00000000
v -10.92014217 -1.07050478 2.00000000
v -10.83896828 -1.09890878 2.00000000
v -11.59890842 -0.33896846 2.00000000
v -11.62116718 -0.25589907 2.00000000
v -10.75589943 -1.12116706 2.00000000
v -11.63715553 -0.17139861 2.00000000
v -11.64678478 -0.08593961 2.00000000
v -3.28806925 -8.37786388 2.00000000
v -8.37786388 -3.28806925 2.00000000
v -10.67139816 -1.13715541 2.00000000
v -11.64999962 0.00000000 2.00000000
v -11.64678478 0.08593961 2.00000000
v -11.63715553 0.17139861 2.00000000
v -11.62116718 0.25589907 2.00000000
v -11.59890842 0.33896846 2.00000000
v -2.65279651 -8.60015488 2.00000000
v -8.60015488 -2.65279651 2.00000000
v -10.58593941 -1.14678442 2.00000000
v -10.50000000 -1.14999998 2.00000000
v -10.41406059 -1.14678442 2.00000000
v -11.57050514 0.42014217 2.00000000
v -11.53611374 0.49896631 2.00000000
v -11.49592876 0.57499999 2.00000000
v -11.45017433 0.64781809 2.00000000
v -2.00268841 -8.77435112 2.00000000
v -8.77435112 -2.00268841 2.00000000
v -10.32860184 -1.13715541 2.00000000
v -10.24410057 -1.12116706 2.00000000
v -10.16103172 -1.09890878 2.00000000
v -10.07985783 -1.07050478 2.00000000
v -10.00103378 -1.03611422 2.00000000
v -11.39910603 0.71701330 2.00000000
v -11.34300995 0.78219867 2.00000000
v -11.28219891 0.84300965 2.00000000
v -11.21701336 0.89910620 2.00000000
v -1.34138036 -8.89947701 2.00000000
v -8.89947701 -1.34138036 2.00000000
v -9.92500019 -0.99592924 2.00000000
v -9.85218239 -0.95017457 2.00000000
v -9.78298664 -0.89910620 2.00000000
v -9.71780109 -0.84300965 2.00000000
v -9.65699005 -0.78219867 2.00000000
v -9.60089397 -0.71701330 2.00000000
v -11.14781761 0.95017457 2.00000000
v -11.07499981 0.99592924 2.00000000
v -10.99896622 1.03611422 2.00000000
v -10.92014217 1.07050478 2.00000000
v -10.83896828 1.09890878 2.00000000
v -0.67257082 -8.97483444 2.00000000
v -8.97483444 -0.67257082 2.00000000
v -9.54982567 -0.64781809 2.00000000
v -9.50407124 -0.57499999 2.00000000
v -9.46388626 -0.49896631 2.00000000
v -9.42949486 -0.42014217 2.00000000
v -9.40109158 -0.33896846 2.00000000
v -9.37883282 -0.25589907 2.00000000
v -0.00000000 -9.00000000 2.00000000
v -9.00000000 0.00000000 2.00000000
v -9.36284447 -0.17139861 2.00000000
v -9.35321522 -0.08593961 2.00000000
v -9.35000038 -0.00000000 2.00000000
v -9.35321522 0.08593961 2.00000000
v -9.36284447 0.17139861 2.00000000
v -9.37883282 0.25589907 2.00000000
v -10.75589943 1.12116706 2.00000000
v 0.67257082 -8.97483444 2.00000000
v -8.97483444 0.67257082 2.00000000
v -9.40109158 0.33896846 2.00000000
v -9.42949486 0.42014217 2.00000000
v -9.46388626 0.49896631 2.00000000
v -9.50407124 0.57499999 2.00000000
v -9.54982567 0.64781809 2.00000000
v -9.60089397 0.71701330 2.00000000
v 1.34138036 -8.89947701 2.00000000
v -8.89947701 1.34138036 2.00000000
v -9.65699005 0.78219867 2.00000000
v -9.71780109 0.84300965 2.00000000
v -9.78298664 0.89910620 2.00000000
v -9.85218239 0.95017457 2.00000000
v -9.92500019 0.99592924 2.00000000
v -10.00103378 1.03611422 2.00000000
v 2.00268841 -8.77435112 2.00000000
v -8.77435112 2.00268841 2.00000000
v -10.16103172 1.09890878 2.00000000
v -10.07985783 1.07050478 2.00000000
v -10.24410057 1.12116706 2.00000000
v -10.32860184 1.13715541 2.00000000
v -10.41406059 1.14678442 2.00000000
v -8.60015488 2.65279651 2.00000000
v -10.50000000 1.14999998 2.00000000
v -10.58593941 1.14678442 2.00000000
v -10.67139816 1.13715541 2.00000000
v 2.65279651 -8.60015488 2.00000000
v -8.37786388 3.28806925 2.00000000
v 3.28806925 -8.37786388 2.00000000
v -8.10871983 3.90495372 2.00000000
v 3.90495372 -8.10871983 2.00000000
v -7.79422855 4.50000000 2.00000000
v 4.50000000 -7.79422855 2.00000000
v -7.43614912 5.06988049 2.00000000
v 5.06988049 -7.43614912 2.00000000
v -7.03648329 5.61140823 2.00000000
v 5.61140823 -7.03648329 2.00000000
v -6.59746695 6.12155485 2.00000000
v 6.12155485 -6.59746695 2.00000000
v -6.12155485 6.59746695 2.00000000
v 6.59746695 -6.12155485 2.00000000
v 7.03648329 -5.61140823 2.00000000
v -5.61140823 7.03648329 2.00000000
v -5.06988049 7.43614912 2.00000000
v -4.50000000 7.79422855 2.00000000
v 7.43614912 -5.06988049 2.00000000
v 7.79422855 -4.50000000 2.00000000
v -3.90495372 8.10871983 2.00000000
v -3.28806925 8.37786388 2.00000000
v 8.10871983 -3.90495372 2.00000000
v 8.37786388 -3.28806925 2.00000000
v -2.65279651 8.60015488 2.00000000
v 9.65699005 -0.78219867 2.00000000
v 8.89947701 -1.34138036 2.00000000
v 9.71780109 -0.84300965 2.00000000
v 9.60089397 -0.71701330 2.00000000
v 8.97483444 -0.67257082 2.00000000
v 9.78298664 -0.89910620 2.00000000
v 9.54982567 -0.64781809 2.00000000
v 9.85218239 -0.95017457 2.00000000
v 9.50407124 -0.57499999 2.00000000
v 9.92500019 -0.99592924 2.00000000
v 9.46388626 -0.49896631 2.00000000
v 10.00103378 -1.03611422 2.00000000
v 8.77435112 -2.00268841 2.00000000
v 10.07985783 -1.07050478 2.00000000
v 9.42949486 -0.42014217 2.00000000
v 9.40109158 -0.33896846 2.00000000
v 10.16103172 -1.09890878 2.00000000
v 9.37883282 -0.25589907 2.00000000
v 9.00000000 -0.00000000 2.00000000
v 10.24410057 -1.12116706 2.00000000
v 9.36284447 -0.17139861 2.00000000
v 10.32860184 -1.13715541 2.00000000
v 10.41406059 -1.14678442 2.00000000
v 8.60015488 -2.65279651 2.00000000
v 9.35321522 -0.08593961 2.00000000
v 10.50000000 -1.14999998 2.00000000
v 9.35000038 0.00000000 2.00000000
v 9.35321522 0.08593961 2.00000000
v 10.58593941 -1.14678442 2.00000000
v 10.67139816 -1.13715541 2.00000000
v 9.36284447 0.17139861 2.00000000
v 9.37883282 0.25589907 2.00000000
v 10.75589943 -1.12116706 2.00000000
v 8.97483444 0.67257082 2.00000000
v 9.40109158 0.33896846 2.00000000
v 10.83896828 -1.09890878 2.00000000
v 9.42949486 0.42014217 2.00000000
v 9.46388626 0.49896631 2.00000000
v 9.50407124 0.57499999 2.00000000
v 9.54982567 0.64781809 2.00000000
v 10.92014217 -1.07050478 2.00000000
v 10.99896622 -1.03611422 2.00000000
v 11.07499981 -0.99592924 2.00000000
v 9.60089397 0.71701330 2.00000000
v 8.89947701 1.34138036 2.00000000
v 9.65699005 0.78219867 2.00000000
v 9.71780109 0.84300965 2.00000000
v 9.78298664 0.89910620 2.00000000
v 9.85218239 0.95017457 2.00000000
v 9.92500019 0.99592924 2.00000000
v 10.00103378 1.03611422 2.00000000
v 8.77435112 2.00268841 2.00000000
v 10.07985783 1.07050478 2.00000000
v 10.16103172 1.09890878 2.00000000
v 10.24410057 1.12116706 2.00000000
v 10.32860184 1.13715541 2.00000000
v 10.41406059 1.14678442 2.00000000
v 8.60015488 2.65279651 2.00000000
v 10.50000000 1.14999998 2.00000000
v -2.00268841 8.77435112 2.00000000
v 11.14781761 -0.95017457 2.00000000
v 11.21701336 -0.89910620 2.00000000
v 11.28219891 -0.84300965 2.00000000
v 11.34300995 -0.78219867 2.00000000
v 10.58593941 1.14678442 2.00000000
v 10.67139816 1.13715541 2.00000000
v 8.37786388 3.28806925 2.00000000
v 10.75589943 1.12116706 2.00000000
v -1.34138036 8.89947701 2.00000000
v 11.39910603 -0.71701330 2.00000000
v 11.45017433 -0.64781809 2.00000000
v 11.49592876 -0.57499999 2.00000000
v 11.53611374 -0.49896631 2.00000000
v -0.67257082 8.97483444 2.00000000
v 11.57050514 -0.42014217 2.00000000
v 11.59890842 -0.33896846 2.00000000
v 11.62116718 -0.25589907 2.00000000
v 11.63715553 -0.17139861 2.00000000
v 11.64678478 -0.08593961 2.00000000
v 11.64999962 -0.00000000 2.00000000
v 11.64678478 0.08593961 2.00000000
v 11.63715553 0.17139861 2.00000000
v -0.00000000 9.00000000 2.00000000
v 0.67257082 8.97483444 2.00000000
v 11.62116718 0.25589907 2.00000000
v 11.59890842 0.33896846 2.00000000
v 11.57050514 0.42014217 2.00000000
v 11.53611374 0.49896631 2.00000000
v 1.34138036 8.89947701 2.00000000
v 2.00268841 8.77435112 2.00000000
v 11.49592876 0.57499999 2.00000000
v 11.45017433 0.64781809 2.00000000
v 11.39910603 0.71701330 2.00000000
v 11.34300995 0.78219867 2.00000000
v 2.65279651 8.60015488 2.00000000
v 11.28219891 0.84300965 2.00000000
v 11.21701336 0.89910620 2.00000000
v 11.14781761 0.95017457 2.00000000
v 11.07499981 0.99592924 2.00000000
v 10.99896622 1.03611422 2.00000000
v 10.92014217 1.07050478 2.00000000
v 10.83896828 1.09890878 2.00000000
v 3.28806925 8.37786388 2.00000000
v 3.90495372 8.10871983 2.00000000
v 8.10871983 3.90495372 2.00000000
v 4.50000000 7.79422855 2.00000000
v 7.79422855 4.50000000 2.00000000
v 7.43614912 5.06988049 2.00000000
v 5.06988049 7.43614912 2.00000000
v 7.03648329 5.61140823 2.00000000
v 5.61140823 7.03648329 2.00000000
v 6.12155485 6.59746695 2.00000000
v 6.59746695 6.12155485 2.00000000
v -6.59746695 -6.12155485 0.00000000
v -6.12155485 -6.59746695 0.00000000
v -5.61140823 -7.03648329 0.00000000
v -7.03648329 -5.61140823 0.00000000
v -5.06988049 -7.43614912 0.00000000
v -7.43614912 -5.06988049 0.00000000
v -4.50000000 -7.79422855 0.00000000
v -7.79422855 -4.50000000 0.00000000
v -11.34300995 -0.78219867 0.00000000
v -11.28219891 -0.84300965 0.00000000
v -11.39910603 -0.71701330 0.00000000
v -11.21701336 -0.89910620 0.00000000
v -11.14781761 -0.95017457 0.00000000
v -11.45017433 -0.64781809 0.00000000
v -11.07499981 -0.99592924 0.00000000
v -11.49592876 -0.57499999 0.00000000
v -11.53611374 -0.49896631 0.00000000
v -10.99896622 -1.03611422 0.00000000
v -3.90495372 -8.10871983 0.00000000
v -8.10871983 -3.90495372 0.00000000
v -11.57050514 -0.42014217 0.00000000
v -10.92014217 -1.07050478 0.00000000
v -10.83896828 -1.09890878 0.00000000
v -11.59890842 -0.33896846 0.00000000
v -11.62116718 -0.25589907 0.00000000
v -10.75589943 -1.12116706 0.00000000
v -11.63715553 -0.17139861 0.00000000
v -11.64678478 -0.08593961 0.00000000
v -3.28806925 -8.37786388 0.00000000
v -8.37786388 -3.28806925 0.00000000
v -10.67139816 -1.13715541 0.00000000
v -11.64999962 0.00000000 0.00000000
v -11.64678478 0.08593961 0.00000000
v -11.63715553 0.17139861 0.00000000
v -11.62116718 0.25589907 0.00000000
v -11.59890842 0.33896846 0.00000000
v -2.65279651 -8.60015488 0.00000000
v -8.60015488 -2.65279651 0.00000000
v -10.58593941 -1.14678442 0.00000000
v -10.50000000 -1.14999998 0.00000000
v -10.41406059 -1.14678442 0.00000000
v -11.57050514 0.42014217 0.00000000
v -11.53611374 0.49896631 0.00000000
v -11.49592876 0.57499999 0.00000000
v -11.45017433 0.64781809 0.00000000
v -2.00268841 -8.77435112 0.00000000
v -8.77435112 -2.00268841 0.00000000
v -10.32860184 -1.13715541 0.00000000
v -10.24410057 -1.12116706 0.00000000
v -10.16103172 -1.09890878 0.00000000
v -10.07985783 -1.07050478 0.00000000
v -10.00103378 -1.03611422 0.00000000
v -11.39910603 0.71701330 0.00000000
v -11.34300995 0.78219867 0.00000000
v -11.28219891 0.84300965 0.00000000
v -11.21701336 0.89910620 0.00000000
v -1.34138036 -8.89947701 0.00000000
v -8.89947701 -1.34138036 0.00000000
v -9.92500019 -0.99592924 0.00000000
v -9.85218239 -0.95017457 0.00000000
v -9.78298664 -0.89910620 0.00000000
v -9.71780109 -0.84300965 0.00000000
v -9.65699005 -0.78219867 0.00000000
v -9.60089397 -0.71701330 0.00000000
v -11.14781761 0.95017457 0.00000000
v -11.07499981 0.99592924 0.00000000
v -10.99896622 1.03611422 0.00000000
v -10.92014217 1.07050478 0.00000000
v -10.83896828 1.09890878 0.00000000
v -0.67257082 -8.97483444 0.00000000
v -8.97483444 -0.67257082 0.00000000
v -9.54982567 -0.64781809 0.00000000
v -9.50407124 -0.57499999 0.00000000
v -9.46388626 -0.49896631 0.00000000
v -9.42949486 -0.42014217 0.00000000
v -9.40109158 -0.33896846 0.00000000
v -9.37883282 -0.25589907 0.00000000
v -0.00000000 -9.00000000 0.00000000
v -9.00000000 0.00000000 0.00000000
v -9.36284447 -0.17139861 0.00000000
v -9.35321522 -0.08593961 0.00000000
v -9.35000038 -0.00000000 0.00000000
v -9.35321522 0.08593961 0.00000000
v -9.36284447 0.17139861 0.00000000
v -9.37883282 0.25589907 0.00000000
v -10.75589943 1.12116706 0.00000000
v 0.67257082 -8.97483444 0.00000000
v -8.97483444 0.67257082 0.00000000
v -9.40109158 0.33896846 0.00000000
v -9.42949486 0.42014217 0.00000000
v -9.46388626 0.49896631 0.00000000
v -9.50407124 0.57499999 0.00000000
v -9.54982567 0.64781809 0.00000000
v -9.60089397 0.71701330 0.00000000
v 1.34138036 -8.89947701 0.00000000
v -8.89947701 1.34138036 0.00000000
v -9.65699005 0.78219867 0.00000000
v -9.71780109 0.84300965 0.00000000
v -9.78298664 0.89910620 0.00000000
v -9.85218239 0.95017457 0.00000000
v -9.92500019 0.99592924 0.00000000
v -10.00103378 1.03611422 0.00000000
v 2.00268841 -8.77435112 0.00000000
v -8.77435112 2.00268841 0.00000000
v -10.07985783 1.07050478 0.00000000
v -10.16103172 1.09890878 0.00000000
v -10.24410057 1.12116706 0.00000000
v -10.32860184 1.13715541 0.00000000
v -10.41406059 1.14678442 0.00000000
v -8.60015488 2.65279651 0.00000000
v -10.50000000 1.14999998 0.00000000
v -10.58593941 1.14678442 0.00000000
v -10.67139816 1.13715541 0.00000000
v 2.65279651 -8.60015488 0.00000000
v -8.37786388 3.28806925 0.00000000
v 3.28806925 -8.37786388 0.00000000
v -8.10871983 3.90495372 0.00000000
v 3.90495372 -8.10871983 0.00000000
v -7.79422855 4.50000000 0.00000000
v 4.50000000 -7.79422855 0.00000000
v -7.43614912 5.06988049 0.00000000
v 5.06988049 -7.43614912 0.00000000
v -7.03648329 5.61140823 0.00000000
v 5.61140823 -7.03648329 0.00000000
v -6.59746695 6.12155485 0.00000000
v 6.12155485 -6.59746695 0.00000000
v -6.12155485 6.59746695 0.00000000
v 6.59746695 -6.12155485 0.00000000
v 7.03648329 -5.61140823 0.00000000
v -5.61140823 7.03648329 0.00000000
v -4.50000000 7.79422855 0.00000000
v -5.06988049 7.43614912 0.00000000
v 7.43614912 -5.06988049 0.00000000
v 7.79422855 -4.50000000 0.00000000
v -3.28806925 8.37786388 0.00000000
v -3.90495372 8.10871983 0.00000000
v 8.10871983 -3.90495372 0.00000000
v 8.37786388 -3.28806925 0.00000000
v -2.65279651 8.60015488 0.00000000
v 9.65699005 -0.78219867 0.00000000
v 9.71780109 -0.84300965 0.00000000
v 8.89947701 -1.34138036 0.00000000
v 9.60089397 -0.71701330 0.00000000
v 8.97483444 -0.67257082 0.00000000
v 9.78298664 -0.89910620 0.00000000
v 9.54982567 -0.64781809 0.00000000
v 9.85218239 -0.95017457 0.00000000
v 9.50407124 -0.57499999 0.00000000
v 9.92500019 -0.99592924 0.00000000
v 9.46388626 -0.49896631 0.00000000
v 10.00103378 -1.03611422 0.00000000
v 8.77435112 -2.00268841 0.00000000
v 10.07985783 -1.07050478 0.00000000
v 9.42949486 -0.42014217 0.00000000
v 9.40109158 -0.33896846 0.00000000
v 10.16103172 -1.09890878 0.00000000
v 9.37883282 -0.25589907 0.00000000
v 9.00000000 -0.00000000 0.00000000
v 10.24410057 -1.12116706 0.00000000
v 9.36284447 -0.17139861 0.00000000
v 10.32860184 -1.13715541 0.00000000
v 10.41406059 -1.14678442 0.00000000
v 8.60015488 -2.65279651 0.00000000
v 9.35321522 -0.08593961 0.00000000
v 10.50000000 -1.14999998 0.00000000
v 9.35000038 0.00000000 0.00000000
v 9.35321522 0.08593961 0.00000000
v 10.58593941 -1.14678442 0.00000000
v 10.67139816 -1.13715541 0.00000000
v 9.36284447 0.17139861 0.00000000
v 9.37883282 0.25589907 0.00000000
v 10.75589943 -1.12116706 0.00000000
v 8.97483444 0.67257082 0.00000000
v 9.40109158 0.33896846 0.00000000
v 10.83896828 -1.09890878 0.00000000
v 9.42949486 0.42014217 0.00000000
v 9.46388626 0.49896631 0.00000000
v 9.50407124 0.57499999 0.00000000
v 9.54982567 0.64781809 0.00000000
v 10.92014217 -1.07050478 0.00000000
v 10.99896622 -1.03611422 0.00000000
v 11.07499981 -0.99592924 0.00000000
v 9.60089397 0.71701330 0.00000000
v 8.89947701 1.34138036 0.00000000
v 9.65699005 0.78219867 0.00000000
v 9.71780109 0.84300965 0.00000000
v 9.78298664 0.89910620 0.00000000
v 9.85218239 0.95017457 0.00000000
v 9.92500019 0.99592924 0.00000000
v 10.00103378 1.03611422 0.00000000
v 8.77435112 2.00268841 0.00000000
v 10.07985783 1.07050478 0.00000000
v 10.16103172 1.09890878 0.00000000
v 10.24410057 1.12116706 0.00000000
v 10.32860184 1.13715541 0.00000000
v 10.41406059 1.14678442 0.00000000
v 8.60015488 2.65279651 0.00000000
v 10.50000000 1.14999998 0.00000000
v -2.00268841 8.77435112 0.00000000
v 11.14781761 -0.95017457 0.00000000
v 11.21701336 -0.89910620 0.00000000
v 11.28219891 -0.84300965 0.00000000
v 11.34300995 -0.78219867 0.00000000
v 10.58593941 1.14678442 0.00000000
v 10.67139816 1.13715541 0.00000000
v 8.37786388 3.28806925 0.00000000
v 10.75589943 1.12116706 0.00000000
v -1.34138036 8.89947701 0.00000000
v 11.39910603 -0.71701330 0.00000000
v 11.45017433 -0.64781809 0.00000000
v 11.49592876 -0.57499999 0.00000000
v 11.53611374 -0.49896631 0.00000000
v -0.67257082 8.97483444 0.00000000
v 11.57050514 -0.42014217 0.00000000
v 11.59890842 -0.33896846 0.00000000
v 11.62116718 -0.25589907 0.00000000
v 11.63715553 -0.17139861 0.00000000
v 11.64678478 -0.08593961 0.00000000
v 11.64999962 -0.00000000 0.00000000
v 11.64678478 0.08593961 0.00000000
v 11.63715553 0.17139861 0.00000000
v -0.00000000 9.00000000 0.00000000
v 0.67257082 8.97483444 0.00000000
v 11.62116718 0.25589907 0.00000000
v 11.59890842 0.33896846 0.00000000
v 11.57050514 0.42014217 0.00000000
v 11.53611374 0.49896631 0.00000000
v 2.00268841 8.77435112 0.00000000
v 1.34138036 8.89947701 0.00000000
v 11.49592876 0.57499999 0.00000000
v 11.45017433 0.64781809 0.00000000
v 11.39910603 0.71701330 0.00000000
v 11.34300995 0.78219867 0.00000000
v 2.65279651 8.60015488 0.00000000
v 11.28219891 0.84300965 0.00000000
v 11.21701336 0.89910620 0.00000000
v 11.14781761 0.95017457 0.00000000
v 11.07499981 0.99592924 0.00000000
v 10.99896622 1.03611422 0.00000000
v 10.92014217 1.07050478 0.00000000
v 10.83896828 1.09890878 0.00000000
v 3.90495372 8.10871983 0.00000000
v 3.28806925 8.37786388 0.00000000
v 8.10871983 3.90495372 0.00000000
v 4.50000000 7.79422855 0.00000000
v 7.79422855 4.50000000 0.00000000
v 7.43614912 5.06988049 0.00000000
v 5.06988049 7.43614912 0.00000000
v 7.03648329 5.61140823 0.00000000
v 5.61140823 7.03648329 0.00000000
v 6.59746695 6.12155485 0.00000000
v 6.12155485 6.59746695 0.00000000
f 1 2 3
f 1 3 4
f 5 1 4
f 5 4 6
f 7 6 8
f 7 5 6
f 9 8 10
f 9 7 8
f 11 10 12
f 11 9 10
f 13 12 14
f 13 11 12
f 15 14 16
f 15 13 14
f 17 15 16
f 17 16 18
f 19 17 18
f 19 18 20
f 21 19 20
f 21 20 22
f 23 21 22
f 23 22 24
f 25 23 24
f 25 24 26
f 27 25 26
f 27 26 28
f 29 27 28
f 29 28 30
f 31 29 30
f 31 30 32
f 33 32 34
f 33 31 32
f 35 34 36
f 35 33 34
f 37 36 38
f 37 35 36
f 39 38 40
f 39 37 38
f 41 40 42
f 41 42 43
f 41 39 40
f 44 41 43
f 44 43 45
f 46 44 45
f 47 45 48
f 47 46 45
f 49 48 50
f 49 47 48
f 51 50 52
f 51 52 53
f 51 49 50
f 54 53 55
f 54 51 53
f 56 54 55
f 57 55 58
f 57 56 55
f 59 58 60
f 59 57 58
f 61 60 62
f 61 59 60
f 63 62 64
f 63 61 62
f 65 63 64
f 65 64 66
f 67 65 66
f 67 66 68
f 69 67 68
f 69 68 70
f 71 69 70
f 71 70 72
f 73 71 72
f 73 72 74
f 75 74 76
f 75 73 74
f 77 76 78
f 77 75 76
f 79 78 80
f 79 77 78
f 81 80 82
f 81 79 80
f 83 82 84
f 83 81 82
f 85 84 86
f 85 86 87
f 85 83 84
f 88 85 87
f 89 87 90
f 89 88 87
f 91 90 92
f 91 89 90
f 93 92 94
f 93 91 92
f 95 94 96
f 95 93 94
f 97 96 98
f 97 95 96
f 99 98 100
f 99 97 98
f 101 100 102
f 101 99 100
f 103 102 104
f 103 101 102
f 105 104 106
f 105 106 107
f 105 103 104
f 108 105 107
f 109 107 110
f 109 108 107
f 111 110 112
f 111 109 110
f 113 112 114
f 113 111 112
f 115 114 116
f 115 113 114
f 117 115 116
f 117 116 118
f 119 117 118
f 119 118 120
f 121 119 120
f 121 120 122
f 123 121 122
f 123 122 124
f 125 123 124
f 125 124 126
f 127 125 126
f 127 126 128
f 127 128 129
f 130 127 129
f 131 130 129
f 131 129 132
f 133 131 132
f 133 132 134
f 135 133 134
f 135 134 136
f 137 135 136
f 137 136 138
f 139 137 138
f 139 138 140
f 141 139 140
f 141 140 142
f 143 141 142
f 143 142 144
f 145 144 146
f 145 143 144
f 147 146 148
f 147 145 146
f 149 148 150
f 149 147 148
f 151 150 152
f 151 149 150
f 153 152 154
f 153 151 152
f 155 154 156
f 155 153 154
f 157 156 158
f 157 155 156
f 159 158 160
f 159 157 158
f 161 160 162
f 161 159 160
f 163 162 164
f 163 161 162
f 165 164 166
f 165 163 164
f 167 165 166
f 167 166 168
f 2 167 168
f 2 168 3
f 169 105 108
f 169 108 170
f 171 108 109
f 171 170 108
f 172 103 105
f 172 105 169
f 173 109 111
f 173 171 109
f 174 101 103
f 174 103 172
f 175 111 113
f 175 113 115
f 175 173 111
f 176 101 174
f 176 99 101
f 177 89 91
f 178 177 91
f 179 89 177
f 180 178 91
f 181 180 91
f 182 89 179
f 183 181 91
f 183 91 93
f 184 89 182
f 185 89 184
f 185 88 89
f 186 183 93
f 187 175 115
f 187 115 117
f 188 99 176
f 188 95 97
f 188 97 99
f 189 88 185
f 190 186 93
f 191 190 93
f 191 93 95
f 192 88 189
f 193 88 192
f 194 191 95
f 195 88 193
f 195 85 88
f 196 85 195
f 197 187 117
f 198 95 188
f 198 194 95
f 198 199 194
f 200 85 196
f 201 85 200
f 202 83 85
f 202 85 201
f 203 83 202
f 204 83 203
f 205 197 117
f 205 117 119
f 206 199 198
f 206 207 199
f 206 208 207
f 206 209 208
f 210 83 204
f 211 81 83
f 211 83 210
f 212 81 211
f 213 81 212
f 214 205 119
f 214 119 121
f 215 209 206
f 215 216 209
f 215 217 216
f 215 218 217
f 215 219 218
f 215 220 219
f 221 81 213
f 222 79 81
f 222 81 221
f 223 79 222
f 224 79 223
f 225 214 121
f 225 121 123
f 226 220 215
f 226 227 220
f 226 228 227
f 226 229 228
f 226 230 229
f 226 231 230
f 226 232 231
f 233 79 224
f 234 77 79
f 234 79 233
f 235 77 234
f 236 77 235
f 237 77 236
f 238 225 123
f 238 123 125
f 239 232 226
f 239 240 232
f 239 241 240
f 239 242 241
f 239 243 242
f 239 244 243
f 245 244 239
f 246 238 125
f 246 125 127
f 246 127 130
f 247 245 239
f 247 248 245
f 247 249 248
f 247 250 249
f 247 251 250
f 247 252 251
f 247 253 252
f 75 77 237
f 75 237 254
f 255 246 130
f 256 253 247
f 256 257 253
f 256 258 257
f 256 259 258
f 256 260 259
f 256 261 260
f 256 262 261
f 263 130 131
f 263 255 130
f 264 262 256
f 264 265 262
f 264 266 265
f 264 267 266
f 264 268 267
f 264 269 268
f 264 270 269
f 271 263 131
f 271 131 133
f 272 273 274
f 272 275 273
f 272 276 275
f 272 277 276
f 272 270 264
f 272 274 270
f 278 279 277
f 278 280 279
f 278 281 280
f 278 277 272
f 282 133 135
f 282 135 137
f 282 271 133
f 283 254 281
f 283 281 278
f 283 73 75
f 283 75 254
f 284 282 137
f 285 73 283
f 286 284 137
f 286 137 139
f 287 71 73
f 287 73 285
f 288 286 139
f 288 139 141
f 289 71 287
f 289 67 69
f 289 69 71
f 290 288 141
f 290 141 143
f 291 67 289
f 292 290 143
f 292 143 145
f 65 67 291
f 293 65 291
f 294 292 145
f 294 145 147
f 295 65 293
f 63 65 295
f 149 296 294
f 149 294 147
f 297 296 149
f 61 63 295
f 61 295 298
f 151 297 149
f 59 61 298
f 59 299 300
f 59 298 299
f 153 301 297
f 153 302 301
f 153 297 151
f 57 59 300
f 155 302 153
f 56 57 300
f 56 303 304
f 56 300 303
f 157 302 155
f 157 305 302
f 157 306 305
f 54 56 304
f 54 304 307
f 159 306 157
f 308 309 310
f 311 309 308
f 311 312 309
f 313 310 309
f 314 312 311
f 315 313 309
f 316 312 314
f 317 315 309
f 318 312 316
f 319 309 320
f 319 317 309
f 321 319 320
f 322 312 318
f 323 312 322
f 324 321 320
f 325 326 312
f 325 312 323
f 327 324 320
f 328 326 325
f 329 327 320
f 330 320 331
f 330 329 320
f 332 326 328
f 333 330 331
f 334 326 332
f 335 326 334
f 336 333 331
f 337 336 331
f 337 331 306
f 338 326 335
f 339 326 338
f 340 306 159
f 340 337 306
f 341 326 339
f 342 341 339
f 343 340 159
f 344 341 342
f 345 341 344
f 346 341 345
f 347 341 346
f 51 54 307
f 161 348 343
f 161 349 348
f 161 350 349
f 161 343 159
f 351 341 347
f 351 352 341
f 353 352 351
f 354 352 353
f 355 352 354
f 356 352 355
f 357 352 356
f 358 352 357
f 358 359 352
f 360 359 358
f 361 359 360
f 362 359 361
f 363 359 362
f 364 365 359
f 364 359 363
f 366 365 364
f 49 51 307
f 49 307 367
f 163 368 350
f 163 369 368
f 163 370 369
f 163 371 370
f 163 350 161
f 372 365 366
f 373 374 365
f 373 365 372
f 375 374 373
f 47 49 367
f 47 367 376
f 165 377 371
f 165 378 377
f 165 379 378
f 165 380 379
f 165 371 163
f 46 47 376
f 46 376 381
f 167 380 165
f 167 382 380
f 167 383 382
f 167 384 383
f 167 385 384
f 2 385 167
f 2 386 385
f 2 387 386
f 2 388 387
f 2 389 388
f 44 46 381
f 44 381 390
f 41 44 390
f 41 390 391
f 1 392 389
f 1 393 392
f 1 394 393
f 1 395 394
f 1 389 2
f 39 41 391
f 39 396 397
f 39 391 396
f 5 398 395
f 5 399 398
f 5 400 399
f 5 401 400
f 5 395 1
f 37 39 397
f 37 397 402
f 7 403 401
f 7 404 403
f 7 405 404
f 7 406 405
f 7 401 5
f 35 37 402
f 9 406 7
f 9 407 406
f 9 408 407
f 9 409 408
f 33 35 402
f 33 410 411
f 33 402 410
f 11 374 375
f 11 375 409
f 11 412 374
f 11 409 9
f 31 33 411
f 31 411 413
f 13 412 11
f 13 414 412
f 15 414 13
f 29 31 413
f 17 415 414
f 17 414 15
f 27 413 416
f 27 29 413
f 19 415 17
f 19 417 415
f 25 27 416
f 25 416 418
f 23 419 420
f 23 418 419
f 23 25 418
f 21 420 417
f 21 417 19
f 21 23 420
f 421 107 106
f 421 422 107
f 423 110 107
f 423 107 422
f 424 106 104
f 424 421 106
f 425 112 110
f 425 110 423
f 426 104 102
f 426 424 104
f 427 114 112
f 427 116 114
f 427 112 425
f 428 426 102
f 428 102 100
f 429 92 90
f 430 92 429
f 431 429 90
f 432 92 430
f 433 92 432
f 434 431 90
f 435 92 433
f 435 94 92
f 436 434 90
f 437 436 90
f 437 90 87
f 438 94 435
f 439 116 427
f 439 118 116
f 440 428 100
f 440 98 96
f 440 100 98
f 441 437 87
f 442 94 438
f 443 94 442
f 443 96 94
f 444 441 87
f 445 444 87
f 446 96 443
f 447 445 87
f 447 87 86
f 448 447 86
f 449 118 439
f 450 440 96
f 450 96 446
f 450 446 451
f 452 448 86
f 453 452 86
f 454 86 84
f 454 453 86
f 455 454 84
f 456 455 84
f 457 118 449
f 457 120 118
f 458 450 451
f 458 451 459
f 458 459 460
f 458 460 461
f 462 456 84
f 463 84 82
f 463 462 84
f 464 463 82
f 465 464 82
f 466 120 457
f 466 122 120
f 467 458 461
f 467 461 468
f 467 468 469
f 467 469 470
f 467 470 471
f 467 471 472
f 473 465 82
f 474 82 80
f 474 473 82
f 475 474 80
f 476 475 80
f 477 122 466
f 477 124 122
f 478 467 472
f 478 472 479
f 478 479 480
f 478 480 481
f 478 481 482
f 478 482 483
f 478 483 484
f 485 476 80
f 486 80 78
f 486 485 80
f 487 486 78
f 488 487 78
f 489 488 78
f 490 124 477
f 490 126 124
f 491 478 484
f 491 484 492
f 491 492 493
f 491 493 494
f 491 494 495
f 491 495 496
f 497 491 496
f 498 126 490
f 498 128 126
f 498 129 128
f 499 491 497
f 499 497 500
f 499 500 501
f 499 501 502
f 499 502 503
f 499 503 504
f 499 504 505
f 76 489 78
f 76 506 489
f 507 129 498
f 508 499 505
f 508 505 509
f 508 509 510
f 508 510 511
f 508 511 512
f 508 512 513
f 508 513 514
f 515 132 129
f 515 129 507
f 516 508 514
f 516 514 517
f 516 517 518
f 516 518 519
f 516 519 520
f 516 520 521
f 516 521 522
f 523 132 515
f 523 134 132
f 524 525 526
f 524 526 527
f 524 527 528
f 524 528 529
f 524 516 522
f 524 522 525
f 530 529 531
f 530 531 532
f 530 532 533
f 530 524 529
f 534 136 134
f 534 138 136
f 534 134 523
f 535 533 506
f 535 530 533
f 535 76 74
f 535 506 76
f 536 138 534
f 537 535 74
f 538 138 536
f 538 140 138
f 539 74 72
f 539 537 74
f 540 140 538
f 540 142 140
f 541 539 72
f 541 70 68
f 541 72 70
f 542 142 540
f 542 144 142
f 543 541 68
f 544 144 542
f 544 146 144
f 66 543 68
f 545 543 66
f 546 146 544
f 546 148 146
f 547 545 66
f 64 547 66
f 150 546 548
f 150 148 546
f 549 150 548
f 62 547 64
f 62 550 547
f 152 150 549
f 60 550 62
f 60 551 552
f 60 552 550
f 154 549 553
f 154 553 554
f 154 152 549
f 58 551 60
f 156 154 554
f 55 551 58
f 55 555 556
f 55 556 551
f 158 156 554
f 158 554 557
f 158 557 558
f 53 555 55
f 53 559 555
f 160 158 558
f 560 561 562
f 563 560 562
f 563 562 564
f 565 562 561
f 566 563 564
f 567 562 565
f 568 566 564
f 569 562 567
f 570 568 564
f 571 572 562
f 571 562 569
f 573 572 571
f 574 570 564
f 575 574 564
f 576 572 573
f 577 564 578
f 577 575 564
f 579 572 576
f 580 577 578
f 581 572 579
f 582 583 572
f 582 572 581
f 584 580 578
f 585 583 582
f 586 584 578
f 587 586 578
f 588 583 585
f 589 583 588
f 589 558 583
f 590 587 578
f 591 590 578
f 592 160 558
f 592 558 589
f 593 591 578
f 594 591 593
f 595 160 592
f 596 594 593
f 597 596 593
f 598 597 593
f 599 598 593
f 52 559 53
f 162 595 600
f 162 600 601
f 162 601 602
f 162 160 595
f 603 599 593
f 603 593 604
f 605 603 604
f 606 605 604
f 607 606 604
f 608 607 604
f 609 608 604
f 610 609 604
f 610 604 611
f 612 610 611
f 613 612 611
f 614 613 611
f 615 614 611
f 616 611 617
f 616 615 611
f 618 616 617
f 50 559 52
f 50 619 559
f 164 602 620
f 164 620 621
f 164 621 622
f 164 622 623
f 164 162 602
f 624 618 617
f 625 617 626
f 625 624 617
f 627 625 626
f 48 619 50
f 48 628 619
f 166 623 629
f 166 629 630
f 166 630 631
f 166 631 632
f 166 164 623
f 45 628 48
f 45 633 628
f 168 166 632
f 168 632 634
f 168 634 635
f 168 635 636
f 168 636 637
f 3 168 637
f 3 637 638
f 3 638 639
f 3 639 640
f 3 640 641
f 43 633 45
f 43 642 633
f 42 642 43
f 42 643 642
f 4 641 644
f 4 644 645
f 4 645 646
f 4 646 647
f 4 3 641
f 40 643 42
f 40 648 649
f 40 649 643
f 6 647 650
f 6 650 651
f 6 651 652
f 6 652 653
f 6 4 647
f 38 648 40
f 38 654 648
f 8 653 655
f 8 655 656
f 8 656 657
f 8 657 658
f 8 6 653
f 36 654 38
f 10 8 658
f 10 658 659
f 10 659 660
f 10 660 661
f 34 654 36
f 34 662 663
f 34 663 654
f 12 627 626
f 12 661 627
f 12 626 664
f 12 10 661
f 32 662 34
f 32 665 662
f 14 12 664
f 14 664 666
f 16 14 666
f 30 665 32
f 18 666 667
f 18 16 666
f 28 668 665
f 28 665 30
f 20 18 667
f 20 667 669
f 26 668 28
f 26 670 668
f 24 671 672
f 24 672 670
f 24 670 26
f 22 669 671
f 22 20 669
f 22 671 24
f 251 502 250
f 251 503 502
f 252 503 251
f 252 504 503
f 253 505 504
f 253 504 252
f 257 509 505
f 257 505 253
f 258 510 509
f 258 509 257
f 259 511 510
f 259 510 258
f 260 512 511
f 260 511 259
f 261 512 260
f 261 513 512
f 262 513 261
f 262 514 513
f 265 514 262
f 265 517 514
f 266 517 265
f 266 518 517
f 267 518 266
f 267 519 518
f 268 519 267
f 268 520 519
f 269 520 268
f 269 521 520
f 270 521 269
f 270 522 521
f 274 525 522
f 274 522 270
f 273 526 525
f 273 527 526
f 273 525 274
f 275 527 273
f 276 528 527
f 276 527 275
f 277 529 528
f 277 531 529
f 277 528 276
f 279 531 277
f 280 532 531
f 280 531 279
f 281 533 532
f 281 532 280
f 254 506 533
f 254 533 281
f 237 489 506
f 237 506 254
f 236 488 489
f 236 487 488
f 236 489 237
f 235 487 236
f 234 486 487
f 234 485 486
f 234 487 235
f 233 485 234
f 224 476 485
f 224 485 233
f 223 475 476
f 223 476 224
f 222 475 223
f 222 474 475
f 221 474 222
f 221 473 474
f 213 473 221
f 213 465 473
f 212 465 213
f 212 464 465
f 211 464 212
f 211 463 464
f 210 462 463
f 210 463 211
f 204 456 462
f 204 462 210
f 203 455 456
f 203 456 204
f 202 454 455
f 202 455 203
f 201 453 454
f 201 454 202
f 200 452 453
f 200 453 201
f 196 448 452
f 196 452 200
f 195 447 448
f 195 448 196
f 193 445 447
f 193 447 195
f 192 444 445
f 192 445 193
f 189 441 444
f 189 444 192
f 185 437 441
f 185 441 189
f 184 436 437
f 184 437 185
f 182 434 436
f 182 436 184
f 179 431 434
f 179 434 182
f 177 429 431
f 177 431 179
f 178 430 429
f 178 429 177
f 180 432 430
f 180 430 178
f 181 433 432
f 181 432 180
f 183 435 433
f 183 433 181
f 186 438 435
f 186 435 183
f 190 438 186
f 190 442 438
f 191 442 190
f 191 443 442
f 194 443 191
f 194 446 443
f 199 446 194
f 199 451 446
f 207 451 199
f 207 459 451
f 208 459 207
f 208 460 459
f 209 460 208
f 209 461 460
f 216 461 209
f 216 468 461
f 217 468 216
f 217 469 468
f 218 469 217
f 218 470 469
f 219 470 218
f 219 471 470
f 220 471 219
f 220 472 471
f 227 472 220
f 227 479 472
f 228 479 227
f 228 480 479
f 229 481 480
f 229 480 228
f 230 482 481
f 230 483 482
f 230 481 229
f 231 483 230
f 232 484 483
f 232 483 231
f 240 492 484
f 240 484 232
f 241 493 492
f 241 492 240
f 242 494 493
f 242 493 241
f 243 495 494
f 243 494 242
f 244 496 495
f 244 495 243
f 245 497 496
f 245 496 244
f 248 500 497
f 248 497 245
f 249 500 248
f 249 501 500
f 250 501 249
f 250 502 501
f 341 578 326
f 341 593 578
f 352 593 341
f 352 604 593
f 359 611 604
f 359 604 352
f 365 617 611
f 365 611 359
f 374 626 617
f 374 617 365
f 412 664 626
f 412 626 374
f 414 666 664
f 414 664 412
f 415 666 414
f 415 667 666
f 417 667 415
f 417 669 667
f 420 669 417
f 420 671 669
f 419 671 420
f 419 672 671
f 418 672 419
f 418 670 672
f 416 670 418
f 416 668 670
f 413 668 416
f 413 665 668
f 411 665 413
f 411 662 665
f 410 663 662
f 410 662 411
f 402 654 663
f 402 648 654
f 402 663 410
f 397 648 402
f 396 649 648
f 396 648 397
f 391 643 649
f 391 642 643
f 391 649 396
f 390 642 391
f 381 633 642
f 381 642 390
f 376 628 633
f 376 633 381
f 367 619 628
f 367 628 376
f 307 559 619
f 307 619 367
f 304 555 559
f 304 556 555
f 304 559 307
f 303 556 304
f 300 551 556
f 300 552 551
f 300 556 303
f 299 552 300
f 298 550 552
f 298 552 299
f 295 547 550
f 295 550 298
f 293 547 295
f 293 545 547
f 291 545 293
f 291 543 545
f 289 543 291
f 289 541 543
f 287 541 289
f 287 539 541
f 285 539 287
f 285 537 539
f 283 535 537
f 283 537 285
f 278 530 535
f 278 535 283
f 272 524 530
f 272 530 278
f 264 516 524
f 264 524 272
f 256 508 516
f 256 516 264
f 247 499 508
f 247 508 256
f 239 491 499
f 239 499 247
f 226 478 491
f 226 491 239
f 215 467 478
f 215 478 226
f 206 458 467
f 206 467 215
f 198 450 458
f 198 458 206
f 188 440 450
f 188 450 198
f 176 428 440
f 176 440 188
f 174 426 428
f 174 428 176
f 172 424 426
f 172 426 174
f 169 421 424
f 169 424 172
f 170 422 421
f 170 421 169
f 171 423 422
f 171 422 170
f 173 425 423
f 173 423 171
f 175 427 425
f 175 425 173
f 187 439 427
f 187 427 175
f 197 439 187
f 197 449 439
f 205 449 197
f 205 457 449
f 214 457 205
f 214 466 457
f 225 466 214
f 225 477 466
f 238 477 225
f 238 490 477
f 246 490 238
f 246 498 490
f 255 498 246
f 255 507 498
f 263 507 255
f 263 515 507
f 271 515 263
f 271 523 515
f 282 523 271
f 282 534 523
f 284 534 282
f 284 536 534
f 286 536 284
f 286 538 536
f 288 538 286
f 288 540 538
f 290 540 288
f 290 542 540
f 292 544 542
f 292 542 290
f 294 546 544
f 294 548 546
f 294 544 292
f 296 548 294
f 297 549 548
f 297 548 296
f 301 553 549
f 301 549 297
f 302 554 553
f 302 553 301
f 305 557 554
f 305 554 302
f 306 558 557
f 306 557 305
f 331 583 558
f 331 558 306
f 320 572 583
f 320 583 331
f 309 562 572
f 309 572 320
f 312 562 309
f 312 564 562
f 326 564 312
f 326 578 564
f 388 639 387
f 388 640 639
f 389 640 388
f 389 641 640
f 392 644 641
f 392 641 389
f 393 645 644
f 393 644 392
f 394 646 645
f 394 645 393
f 395 647 646
f 395 646 394
f 398 650 647
f 398 647 395
f 399 650 398
f 399 651 650
f 400 651 399
f 400 652 651
f 401 652 400
f 401 653 652
f 403 653 401
f 403 655 653
f 404 655 403
f 404 656 655
f 405 656 404
f 405 657 656
f 406 657 405
f 406 658 657
f 407 658 406
f 407 659 658
f 408 660 659
f 408 659 407
f 409 661 660
f 409 627 661
f 409 660 408
f 375 627 409
f 373 625 627
f 373 627 375
f 372 624 625
f 372 618 624
f 372 625 373
f 366 618 372
f 364 616 618
f 364 618 366
f 363 615 616
f 363 616 364
f 362 614 615
f 362 615 363
f 361 613 614
f 361 614 362
f 360 612 613
f 360 610 612
f 360 613 361
f 358 610 360
f 357 609 610
f 357 608 609
f 357 610 358
f 356 608 357
f 355 607 608
f 355 608 356
f 354 606 607
f 354 607 355
f 353 606 354
f 353 605 606
f 351 605 353
f 351 603 605
f 347 603 351
f 347 599 603
f 346 599 347
f 346 598 599
f 345 598 346
f 345 597 598
f 344 596 597
f 344 597 345
f 342 594 596
f 342 596 344
f 339 591 594
f 339 594 342
f 338 590 591
f 338 591 339
f 335 587 590
f 335 590 338
f 334 586 587
f 334 587 335
f 332 584 586
f 332 586 334
f 328 580 584
f 328 584 332
f 325 577 580
f 325 580 328
f 323 575 577
f 323 577 325
f 322 574 575
f 322 575 323
f 318 570 574
f 318 574 322
f 316 568 570
f 316 570 318
f 314 566 568
f 314 568 316
f 311 563 566
f 311 566 314
f 308 560 563
f 308 563 311
f 310 561 560
f 310 560 308
f 313 565 561
f 313 561 310
f 315 567 565
f 315 565 313
f 317 569 567
f 317 567 315
f 319 571 569
f 319 569 317
f 321 571 319
f 321 573 571
f 324 573 321
f 324 576 573
f 327 576 324
f 327 579 576
f 329 579 327
f 329 581 579
f 330 581 329
f 330 582 581
f 333 582 330
f 333 585 582
f 336 585 333
f 336 588 585
f 337 588 336
f 337 589 588
f 340 589 337
f 340 592 589
f 343 592 340
f 343 595 592
f 348 595 343
f 348 600 595
f 349 600 348
f 349 601 600
f 350 601 349
f 350 602 601
f 368 602 350
f 368 620 602
f 369 621 620
f 369 620 368
f 370 622 621
f 370 623 622
f 370 621 369
f 371 623 370
f 377 629 623
f 377 623 371
f 378 630 629
f 378 629 377
f 379 631 630
f 379 630 378
f 380 632 631
f 380 631 379
f 382 634 632
f 382 632 380
f 383 635 634
f 383 634 382
f 384 636 635
f 384 635 383
f 385 637 636
f 385 636 384
f 386 637 385
f 386 638 637
f 387 638 386
f 387 639 638

