# https://github.com/mikedh/trimesh

o tripod_nut_retainer.stl
v -7.50000000 -7.74596691 2.00000000
v -7.50000000 -7.74596691 0.00000000
v -6.91082668 -8.13226795 0.00000000
v -6.91082668 -8.13226795 2.00000000
v -6.29464483 -8.47384357 0.00000000
v -6.29464483 -8.47384357 2.00000000
v -5.65484381 -8.76881504 0.00000000
v -5.65484381 -8.76881504 2.00000000
v -4.99494171 -9.01556015 0.00000000
v -4.99494171 -9.01556015 2.00000000
v -4.31856823 -9.21272182 0.00000000
v -4.31856823 -9.21272182 2.00000000
v -3.62944317 -9.35921574 0.00000000
v -3.62944317 -9.35921574 2.00000000
v -2.93135667 -9.45423603 0.00000000
v -2.93135667 -9.45423603 2.00000000
v -2.22814775 -9.49726009 0.00000000
v -2.22814775 -9.49726009 2.00000000
v -1.52368414 -9.48805141 0.00000000
v -1.52368414 -9.48805141 2.00000000
v -0.82184023 -9.42666149 0.00000000
v -0.82184023 -9.42666149 2.00000000
v -0.12647583 -9.31342602 0.00000000
v -0.12647583 -9.31342602 2.00000000
v 0.55858463 -9.14896965 0.00000000
v 0.55858463 -9.14896965 2.00000000
v 1.22957349 -8.93419552 0.00000000
v 1.22957349 -8.93419552 2.00000000
v 1.88280034 -8.67028618 0.00000000
v 1.88280034 -8.67028618 2.00000000
v 2.51467276 -8.35869217 0.00000000
v 2.51467276 -8.35869217 2.00000000
v 3.12171555 -8.00112629 0.00000000
v 3.12171555 -8.00112629 2.00000000
v 3.70059013 -7.59955740 0.00000000
v 3.70059013 -7.59955740 2.00000000
v 4.24811268 -7.15619230 0.00000000
v 4.24811268 -7.15619230 2.00000000
v 4.76127243 -6.67346954 0.00000000
v 4.76127243 -6.67346954 2.00000000
v 5.23724651 -6.15404463 0.00000000
v 5.23724651 -6.15404463 2.00000000
v 5.67341757 -5.60077333 0.00000000
v 5.67341757 -5.60077333 2.00000000
v 6.06738663 -5.01669979 0.00000000
v 6.06738663 -5.01669979 2.00000000
v 6.41698647 -4.40503502 0.00000000
v 6.41698647 -4.40503502 2.00000000
v 6.72029543 -3.76914406 0.00000000
v 6.72029543 -3.76914406 2.00000000
v 6.97564459 -3.11252356 0.00000000
v 6.97564459 -3.11252356 2.00000000
v 7.18163013 -2.43878484 0.00000000
v 7.18163013 -2.43878484 2.00000000
v 7.33711863 -1.75163341 0.00000000
v 7.33711863 -1.75163341 2.00000000
v 7.44125509 -1.05484831 0.00000000
v 7.44125509 -1.05484831 2.00000000
v 7.49346685 -0.35226190 0.00000000
v 7.49346685 -0.35226190 2.00000000
v 7.49346685 0.35226190 0.00000000
v 7.49346685 0.35226190 2.00000000
v 7.44125509 1.05484831 0.00000000
v 7.44125509 1.05484831 2.00000000
v 7.33711863 1.75163341 0.00000000
v 7.33711863 1.75163341 2.00000000
v 7.18163013 2.43878484 0.00000000
v 7.18163013 2.43878484 2.00000000
v 6.97564459 3.11252356 0.00000000
v 6.97564459 3.11252356 2.00000000
v 6.72029543 3.76914406 0.00000000
v 6.72029543 3.76914406 2.00000000
v 6.41698647 4.40503502 2.00000000
v 6.41698647 4.40503502 0.00000000
v 6.06738663 5.01669979 2.00000000
v 6.06738663 5.01669979 0.00000000
v 5.67341757 5.60077333 0.00000000
v 5.67341757 5.60077333 2.00000000
v 5.23724651 6.15404463 0.00000000
v 5.23724651 6.15404463 2.00000000
v 4.76127243 6.67346954 0.00000000
v 4.76127243 6.67346954 2.00000000
v 4.24811268 7.15619230 0.00000000
v 4.24811268 7.15619230 2.00000000
v 3.70059013 7.59955740 0.00000000
v 3.70059013 7.59955740 2.00000000
v 3.12171555 8.00112629 2.00000000
v 3.12171555 8.00112629 0.00000000
v 2.51467276 8.35869217 0.00000000
v 2.51467276 8.35869217 2.00000000
v 1.88280034 8.67028618 0.00000000
v 1.88280034 8.67028618 2.00000000
v 1.22957349 8.93419552 2.00000000
v 1.22957349 8.93419552 0.00000000
v 0.55858463 9.14896965 0.00000000
v 0.55858463 9.14896965 2.00000000
v -0.12647583 9.31342602 0.00000000
v -0.12647583 9.31342602 2.00000000
v -0.82184023 9.42666149 0.00000000
v -0.82184023 9.42666149 2.00000000
v -1.52368414 9.48805141 0.00000000
v -1.52368414 9.48805141 2.00000000
v -2.22814775 9.49726009 0.00000000
v -2.22814775 9.49726009 2.00000000
v -2.93135667 9.45423603 2.00000000
v -2.93135667 9.45423603 0.00000000
v -3.62944317 9.35921574 2.00000000
v -3.62944317 9.35921574 0.00000000
v -4.31856823 9.21272182 0.00000000
v -4.31856823 9.21272182 2.00000000
v -4.99494171 9.01556015 0.00000000
v -4.99494171 9.01556015 2.00000000
v -5.65484381 8.76881504 0.00000000
v -5.65484381 8.76881504 2.00000000
v -6.29464483 8.47384357 2.00000000
v -6.29464483 8.47384357 0.00000000
v -6.91082668 8.13226795 2.00000000
v -6.91082668 8.13226795 0.00000000
v -7.50000000 7.74596691 2.00000000
v -7.50000000 7.74596691 0.00000000
v -2.84300971 -8.08219910 0.00000000
v -2.78219867 -8.14300919 0.00000000
v -2.71701336 -8.19910622 0.00000000
v -2.89910626 -8.01701355 0.00000000
v -2.64781809 -8.25017452 0.00000000
v -2.95017457 -7.94781828 0.00000000
v -2.57500005 -8.29592896 0.00000000
v -2.99592924 -7.87500000 0.00000000
v -2.49896622 -8.33611393 0.00000000
v -3.03611422 -7.79896641 0.00000000
v -2.42014217 -8.37050438 0.00000000
v -3.07050490 -7.72014236 0.00000000
v -2.33896852 -8.39890862 0.00000000
v -3.09890866 -7.63896847 0.00000000
v -2.25589919 -8.42116737 0.00000000
v -3.12116718 -7.55589914 0.00000000
v -2.17139864 -8.43715572 0.00000000
v -3.13715553 -7.47139883 0.00000000
v -2.08593965 -8.44678402 0.00000000
v -3.14678431 -7.38593960 0.00000000
v -2.00000000 -8.44999981 0.00000000
v -3.15000010 -7.30000019 0.00000000
v -1.91406035 -8.44678402 0.00000000
v -3.14678431 -7.21406031 0.00000000
v -1.82860136 -8.43715572 0.00000000
v -3.13715553 -7.12860155 0.00000000
v -1.74410093 -8.42116737 0.00000000
v -3.12116718 -7.04410076 0.00000000
v -1.66103160 -8.39890862 0.00000000
v -3.09890866 -6.96103144 0.00000000
v -1.57985783 -8.37050438 0.00000000
v -3.07050490 -6.87985802 0.00000000
v -3.03611422 -6.80103350 0.00000000
v -1.50103366 -8.33611393 0.00000000
v -2.99592924 -6.72499990 0.00000000
v -1.42499995 -8.29592896 0.00000000
v -1.35218191 -8.25017452 0.00000000
v -1.28298676 -8.19910622 0.00000000
v -1.21780133 -8.14300919 0.00000000
v -1.15699029 -8.08219910 0.00000000
v -1.10089374 -8.01701355 0.00000000
v -1.04982543 -7.94781828 0.00000000
v -1.00407076 -7.87500000 0.00000000
v -0.96388578 -7.79896641 0.00000000
v -0.92949522 -7.72014236 0.00000000
v -0.90109128 -7.63896847 0.00000000
v -0.87883288 -7.55589914 0.00000000
v -0.86284453 -7.47139883 0.00000000
v -0.85321563 -7.38593960 0.00000000
v -0.85000002 -7.30000019 0.00000000
v -4.31258726 -2.49237633 0.00000000
v -4.49237633 -2.31258726 0.00000000
v -0.85321563 -7.21406031 0.00000000
v -0.86284453 -7.12860155 0.00000000
v -0.87883288 -7.04410076 0.00000000
v -4.11986542 -2.65822697 0.00000000
v -4.65822697 -2.11986542 0.00000000
v -3.91528821 -2.80921173 0.00000000
v -2.95017457 -6.65218210 0.00000000
v -4.80921173 -1.91528821 0.00000000
v -3.70000005 -2.94448638 0.00000000
v -2.89910626 -6.58298683 0.00000000
v -4.94448614 -1.70000005 0.00000000
v -3.47520471 -3.06329417 0.00000000
v -2.78219867 -6.45699024 0.00000000
v -2.84300971 -6.51780128 0.00000000
v -5.06329393 -1.47520471 0.00000000
v -3.24215937 -3.16497064 0.00000000
v -2.64781809 -6.34982538 0.00000000
v -2.71701336 -6.40089369 0.00000000
v -5.16497087 -1.24215949 0.00000000
v -3.00216770 -3.24894762 0.00000000
v -2.57500005 -6.30407095 0.00000000
v -5.24894762 -1.00216758 0.00000000
v -2.75657129 -3.31475496 0.00000000
v -2.42014217 -6.22949505 0.00000000
v -2.49896622 -6.26388597 0.00000000
v -5.31475496 -0.75657117 0.00000000
v -2.50674367 -3.36202478 0.00000000
v -2.25589919 -6.17883301 0.00000000
v -2.33896852 -6.20109129 0.00000000
v -5.36202478 -0.50674373 0.00000000
v -0.90109128 -6.96103144 0.00000000
v -0.92949522 -6.87985802 0.00000000
v -2.25408220 -3.39049292 0.00000000
v -2.08593965 -6.15321541 0.00000000
v -2.17139864 -6.16284466 0.00000000
v -5.39049292 -0.25408232 0.00000000
v -2.00000000 -3.40000010 0.00000000
v -1.91406035 -6.15321541 0.00000000
v -2.00000000 -6.15000010 0.00000000
v -5.40000010 0.00000000 0.00000000
v -1.74591768 -3.39049292 0.00000000
v -1.74410093 -6.17883301 0.00000000
v -1.82860136 -6.16284466 0.00000000
v -0.96388578 -6.80103350 0.00000000
v -1.00407076 -6.72499990 0.00000000
v -1.49325633 -3.36202478 0.00000000
v -1.57985783 -6.22949505 0.00000000
v -1.66103160 -6.20109129 0.00000000
v -1.24342883 -3.31475496 0.00000000
v -1.42499995 -6.30407095 0.00000000
v -1.50103366 -6.26388597 0.00000000
v -0.99783242 -3.24894762 0.00000000
v -1.35218191 -6.34982538 0.00000000
v -0.75784051 -3.16497064 0.00000000
v -1.21780133 -6.45699024 0.00000000
v -1.28298676 -6.40089369 0.00000000
v -0.52479529 -3.06329417 0.00000000
v -1.10089374 -6.58298683 0.00000000
v -1.15699029 -6.51780128 0.00000000
v -0.30000001 -2.94448638 0.00000000
v -1.04982543 -6.65218210 0.00000000
v -0.08471180 -2.80921173 0.00000000
v 0.11986533 -2.65822697 0.00000000
v 0.31258732 -2.49237633 0.00000000
v 0.49237636 -2.31258726 0.00000000
v 0.65822703 -2.11986542 0.00000000
v 0.80921185 -1.91528821 0.00000000
v -3.91528821 2.80921173 0.00000000
v -4.11986542 2.65822697 0.00000000
v -4.31258726 2.49237633 0.00000000
v -4.49237633 2.31258726 0.00000000
v -4.65822697 2.11986542 0.00000000
v -4.80921173 1.91528821 0.00000000
v -4.94448614 1.70000005 0.00000000
v -5.06329393 1.47520471 0.00000000
v -5.16497087 1.24215949 0.00000000
v -5.24894762 1.00216758 0.00000000
v -5.31475496 0.75657117 0.00000000
v -5.36202478 0.50674373 0.00000000
v -5.39049292 0.25408232 0.00000000
v 0.94448638 -1.70000005 0.00000000
v 1.06329417 -1.47520471 0.00000000
v 1.16497076 -1.24215949 0.00000000
v -2.78219867 6.45699024 0.00000000
v -3.47520471 3.06329417 0.00000000
v -2.84300971 6.51780128 0.00000000
v -3.24215937 3.16497064 0.00000000
v -2.71701336 6.40089369 0.00000000
v -2.89910626 6.58298683 0.00000000
v -3.70000005 2.94448638 0.00000000
v -2.64781809 6.34982538 0.00000000
v -3.00216770 3.24894762 0.00000000
v -2.95017457 6.65218210 0.00000000
v -2.99592924 6.72499990 0.00000000
v -2.57500005 6.30407095 0.00000000
v -2.75657129 3.31475496 0.00000000
v -2.49896622 6.26388597 0.00000000
v -3.03611422 6.80103350 0.00000000
v -3.07050490 6.87985802 0.00000000
v -2.42014217 6.22949505 0.00000000
v -2.50674367 3.36202478 0.00000000
v -3.09890866 6.96103144 0.00000000
v -2.33896852 6.20109129 0.00000000
v 1.24894750 -1.00216758 0.00000000
v -2.25589919 6.17883301 0.00000000
v -2.25408220 3.39049292 0.00000000
v -3.12116718 7.04410076 0.00000000
v -2.17139864 6.16284466 0.00000000
v -3.13715553 7.12860155 0.00000000
v -3.14678431 7.21406031 0.00000000
v -2.08593965 6.15321541 0.00000000
v -2.00000000 3.40000010 0.00000000
v -3.15000010 7.30000019 0.00000000
v -2.00000000 6.15000010 0.00000000
v -3.14678431 7.38593960 0.00000000
v -1.91406035 6.15321541 0.00000000
v -1.74591768 3.39049292 0.00000000
v -1.82860136 6.16284466 0.00000000
v -3.13715553 7.47139883 0.00000000
v -3.12116718 7.55589914 0.00000000
v -1.74410093 6.17883301 0.00000000
v -1.49325633 3.36202478 0.00000000
v -1.66103160 6.20109129 0.00000000
v -3.09890866 7.63896847 0.00000000
v -1.57985783 6.22949505 0.00000000
v -1.24342883 3.31475496 0.00000000
v 1.31475484 -0.75657117 0.00000000
v -1.50103366 6.26388597 0.00000000
v -1.42499995 6.30407095 0.00000000
v -0.99783242 3.24894762 0.00000000
v -2.99592924 7.87500000 0.00000000
v -3.03611422 7.79896641 0.00000000
v -3.07050490 7.72014236 0.00000000
v -1.35218191 6.34982538 0.00000000
v -0.75784051 3.16497064 0.00000000
v -1.28298676 6.40089369 0.00000000
v -1.21780133 6.45699024 0.00000000
v -0.52479529 3.06329417 0.00000000
v -1.15699029 6.51780128 0.00000000
v -1.10089374 6.58298683 0.00000000
v -0.30000001 2.94448638 0.00000000
v 1.36202478 -0.50674373 0.00000000
v -1.04982543 6.65218210 0.00000000
v -0.08471180 2.80921173 0.00000000
v -1.00407076 6.72499990 0.00000000
v -2.71701336 8.19910622 0.00000000
v -2.78219867 8.14300919 0.00000000
v -2.84300971 8.08219910 0.00000000
v -2.89910626 8.01701355 0.00000000
v -2.95017457 7.94781828 0.00000000
v 1.39049292 -0.25408232 0.00000000
v -2.33896852 8.39890862 0.00000000
v -2.42014217 8.37050438 0.00000000
v -2.49896622 8.33611393 0.00000000
v -2.57500005 8.29592896 0.00000000
v -2.64781809 8.25017452 0.00000000
v 1.39999998 -0.00000000 0.00000000
v -1.91406035 8.44678402 0.00000000
v -2.00000000 8.44999981 0.00000000
v -2.08593965 8.44678402 0.00000000
v -2.17139864 8.43715572 0.00000000
v -2.25589919 8.42116737 0.00000000
v 1.39049292 0.25408232 0.00000000
v -1.50103366 8.33611393 0.00000000
v -1.57985783 8.37050438 0.00000000
v -1.66103160 8.39890862 0.00000000
v -1.74410093 8.42116737 0.00000000
v -1.82860136 8.43715572 0.00000000
v 1.36202478 0.50674373 0.00000000
v -1.15699029 8.08219910 0.00000000
v -1.21780133 8.14300919 0.00000000
v -1.28298676 8.19910622 0.00000000
v -1.35218191 8.25017452 0.00000000
v -1.42499995 8.29592896 0.00000000
v 1.31475484 0.75657117 0.00000000
v -0.96388578 7.79896641 0.00000000
v -1.00407076 7.87500000 0.00000000
v -1.04982543 7.94781828 0.00000000
v -1.10089374 8.01701355 0.00000000
v 1.24894750 1.00216758 0.00000000
v -0.86284453 7.47139883 0.00000000
v -0.87883288 7.55589914 0.00000000
v -0.90109128 7.63896847 0.00000000
v -0.92949522 7.72014236 0.00000000
v 1.16497076 1.24215949 0.00000000
v -0.85000002 7.30000019 0.00000000
v -0.85321563 7.38593960 0.00000000
v 1.06329417 1.47520471 0.00000000
v -0.87883288 7.04410076 0.00000000
v -0.86284453 7.12860155 0.00000000
v -0.85321563 7.21406031 0.00000000
v 0.94448638 1.70000005 0.00000000
v -0.92949522 6.87985802 0.00000000
v -0.90109128 6.96103144 0.00000000
v 0.80921185 1.91528821 0.00000000
v -0.96388578 6.80103350 0.00000000
v 0.65822703 2.11986542 0.00000000
v 0.11986533 2.65822697 0.00000000
v 0.49237636 2.31258726 0.00000000
v 0.31258732 2.49237633 0.00000000
v -2.84300971 -8.08219910 2.00000000
v -2.78219867 -8.14300919 2.00000000
v -2.71701336 -8.19910622 2.00000000
v -2.89910626 -8.01701355 2.00000000
v -2.64781809 -8.25017452 2.00000000
v -2.95017457 -7.94781828 2.00000000
v -2.57500005 -8.29592896 2.00000000
v -2.99592924 -7.87500000 2.00000000
v -2.49896622 -8.33611393 2.00000000
v -3.03611422 -7.79896641 2.00000000
v -2.42014217 -8.37050438 2.00000000
v -3.07050490 -7.72014236 2.00000000
v -2.33896852 -8.39890862 2.00000000
v -3.09890866 -7.63896847 2.00000000
v -2.25589919 -8.42116737 2.00000000
v -3.12116718 -7.55589914 2.00000000
v -2.17139864 -8.43715572 2.00000000
v -3.13715553 -7.47139883 2.00000000
v -2.08593965 -8.44678402 2.00000000
v -3.14678431 -7.38593960 2.00000000
v -2.00000000 -8.44999981 2.00000000
v -3.15000010 -7.30000019 2.00000000
v -1.91406035 -8.44678402 2.00000000
v -3.14678431 -7.21406031 2.00000000
v -1.82860136 -8.43715572 2.00000000
v -3.13715553 -7.12860155 2.00000000
v -1.74410093 -8.42116737 2.00000000
v -3.12116718 -7.04410076 2.00000000
v -1.66103160 -8.39890862 2.00000000
v -3.09890866 -6.96103144 2.00000000
v -1.57985783 -8.37050438 2.00000000
v -3.07050490 -6.87985802 2.00000000
v -3.03611422 -6.80103350 2.00000000
v -1.50103366 -8.33611393 2.00000000
v -2.99592924 -6.72499990 2.00000000
v -1.42499995 -8.29592896 2.00000000
v -1.35218191 -8.25017452 2.00000000
v -1.28298676 -8.19910622 2.00000000
v -1.21780133 -8.14300919 2.00000000
v -1.15699029 -8.08219910 2.00000000
v -1.10089374 -8.01701355 2.00000000
v -1.04982543 -7.94781828 2.00000000
v -1.00407076 -7.87500000 2.00000000
v -0.96388578 -7.79896641 2.00000000
v -0.92949522 -7.72014236 2.00000000
v -0.90109128 -7.63896847 2.00000000
v -0.87883288 -7.55589914 2.00000000
v -0.86284453 -7.47139883 2.00000000
v -0.85321563 -7.38593960 2.00000000
v -0.85000002 -7.30000019 2.00000000
v -4.49237633 -2.31258726 2.00000000
v -4.31258726 -2.49237633 2.00000000
v -0.85321563 -7.21406031 2.00000000
v -0.86284453 -7.12860155 2.00000000
v -0.87883288 -7.04410076 2.00000000
v -4.11986542 -2.65822697 2.00000000
v -4.65822697 -2.11986542 2.00000000
v -3.91528821 -2.80921173 2.00000000
v -2.95017457 -6.65218210 2.00000000
v -4.80921173 -1.91528821 2.00000000
v -3.70000005 -2.94448638 2.00000000
v -2.89910626 -6.58298683 2.00000000
v -4.94448614 -1.70000005 2.00000000
v -3.47520471 -3.06329417 2.00000000
v -2.84300971 -6.51780128 2.00000000
v -2.78219867 -6.45699024 2.00000000
v -5.06329393 -1.47520471 2.00000000
v -3.24215937 -3.16497064 2.00000000
v -2.71701336 -6.40089369 2.00000000
v -2.64781809 -6.34982538 2.00000000
v -5.16497087 -1.24215949 2.00000000
v -3.00216770 -3.24894762 2.00000000
v -2.57500005 -6.30407095 2.00000000
v -5.24894762 -1.00216758 2.00000000
v -2.75657129 -3.31475496 2.00000000
v -2.49896622 -6.26388597 2.00000000
v -2.42014217 -6.22949505 2.00000000
v -5.31475496 -0.75657117 2.00000000
v -2.50674367 -3.36202478 2.00000000
v -2.33896852 -6.20109129 2.00000000
v -2.25589919 -6.17883301 2.00000000
v -5.36202478 -0.50674373 2.00000000
v -0.90109128 -6.96103144 2.00000000
v -0.92949522 -6.87985802 2.00000000
v -2.25408220 -3.39049292 2.00000000
v -2.17139864 -6.16284466 2.00000000
v -2.08593965 -6.15321541 2.00000000
v -5.39049292 -0.25408232 2.00000000
v -2.00000000 -3.40000010 2.00000000
v -2.00000000 -6.15000010 2.00000000
v -1.91406035 -6.15321541 2.00000000
v -5.40000010 0.00000000 2.00000000
v -1.74591768 -3.39049292 2.00000000
v -1.82860136 -6.16284466 2.00000000
v -1.74410093 -6.17883301 2.00000000
v -0.96388578 -6.80103350 2.00000000
v -1.00407076 -6.72499990 2.00000000
v -1.49325633 -3.36202478 2.00000000
v -1.66103160 -6.20109129 2.00000000
v -1.57985783 -6.22949505 2.00000000
v -1.24342883 -3.31475496 2.00000000
v -1.50103366 -6.26388597 2.00000000
v -1.42499995 -6.30407095 2.00000000
v -0.99783242 -3.24894762 2.00000000
v -1.35218191 -6.34982538 2.00000000
v -0.75784051 -3.16497064 2.00000000
v -1.28298676 -6.40089369 2.00000000
v -1.21780133 -6.45699024 2.00000000
v -0.52479529 -3.06329417 2.00000000
v -1.15699029 -6.51780128 2.00000000
v -1.10089374 -6.58298683 2.00000000
v -0.30000001 -2.94448638 2.00000000
v -1.04982543 -6.65218210 2.00000000
v -0.08471180 -2.80921173 2.00000000
v 0.11986533 -2.65822697 2.00000000
v 0.31258732 -2.49237633 2.00000000
v 0.49237636 -2.31258726 2.00000000
v 0.65822703 -2.11986542 2.00000000
v 0.80921185 -1.91528821 2.00000000
v -4.11986542 2.65822697 2.00000000
v -3.91528821 2.80921173 2.00000000
v -4.31258726 2.49237633 2.00000000
v -4.49237633 2.31258726 2.00000000
v -4.65822697 2.11986542 2.00000000
v -4.80921173 1.91528821 2.00000000
v -4.94448614 1.70000005 2.00000000
v -5.06329393 1.47520471 2.00000000
v -5.16497087 1.24215949 2.00000000
v -5.24894762 1.00216758 2.00000000
v -5.31475496 0.75657117 2.00000000
v -5.36202478 0.50674373 2.00000000
v -5.39049292 0.25408232 2.00000000
v 0.94448638 -1.70000005 2.00000000
v 1.06329417 -1.47520471 2.00000000
v 1.16497076 -1.24215949 2.00000000
v -2.78219867 6.45699024 2.00000000
v -3.47520471 3.06329417 2.00000000
v -3.24215937 3.16497064 2.00000000
v -2.84300971 6.51780128 2.00000000
v -2.89910626 6.58298683 2.00000000
v -3.70000005 2.94448638 2.00000000
v -2.71701336 6.40089369 2.00000000
v -2.95017457 6.65218210 2.00000000
v -2.64781809 6.34982538 2.00000000
v -3.00216770 3.24894762 2.00000000
v -2.99592924 6.72499990 2.00000000
v -2.57500005 6.30407095 2.00000000
v -2.75657129 3.31475496 2.00000000
v -2.49896622 6.26388597 2.00000000
v -3.03611422 6.80103350 2.00000000
v -3.07050490 6.87985802 2.00000000
v -2.42014217 6.22949505 2.00000000
v -2.50674367 3.36202478 2.00000000
v -3.09890866 6.96103144 2.00000000
v -2.33896852 6.20109129 2.00000000
v 1.24894750 -1.00216758 2.00000000
v -2.25589919 6.17883301 2.00000000
v -2.25408220 3.39049292 2.00000000
v -3.12116718 7.04410076 2.00000000
v -3.13715553 7.12860155 2.00000000
v -2.17139864 6.16284466 2.00000000
v -2.08593965 6.15321541 2.00000000
v -2.00000000 3.40000010 2.00000000
v -3.14678431 7.21406031 2.00000000
v -2.00000000 6.15000010 2.00000000
v -3.15000010 7.30000019 2.00000000
v -1.91406035 6.15321541 2.00000000
v -1.74591768 3.39049292 2.00000000
v -3.14678431 7.38593960 2.00000000
v -1.82860136 6.16284466 2.00000000
v -3.13715553 7.47139883 2.00000000
v -3.12116718 7.55589914 2.00000000
v -1.74410093 6.17883301 2.00000000
v -1.49325633 3.36202478 2.00000000
v -3.09890866 7.63896847 2.00000000
v -1.66103160 6.20109129 2.00000000
v -1.57985783 6.22949505 2.00000000
v -1.24342883 3.31475496 2.00000000
v 1.31475484 -0.75657117 2.00000000
v -1.50103366 6.26388597 2.00000000
v -1.42499995 6.30407095 2.00000000
v -0.99783242 3.24894762 2.00000000
v -3.03611422 7.79896641 2.00000000
v -2.99592924 7.87500000 2.00000000
v -3.07050490 7.72014236 2.00000000
v -1.35218191 6.34982538 2.00000000
v -0.75784051 3.16497064 2.00000000
v -1.28298676 6.40089369 2.00000000
v -1.21780133 6.45699024 2.00000000
v -0.52479529 3.06329417 2.00000000
v -1.15699029 6.51780128 2.00000000
v -1.10089374 6.58298683 2.00000000
v -0.30000001 2.94448638 2.00000000
v 1.36202478 -0.50674373 2.00000000
v -1.04982543 6.65218210 2.00000000
v -0.08471180 2.80921173 2.00000000
v -1.00407076 6.72499990 2.00000000
v -2.78219867 8.14300919 2.00000000
v -2.71701336 8.19910622 2.00000000
v -2.84300971 8.08219910 2.00000000
v -2.89910626 8.01701355 2.00000000
v -2.95017457 7.94781828 2.00000000
v 1.39049292 -0.25408232 2.00000000
v -2.42014217 8.37050438 2.00000000
v -2.33896852 8.39890862 2.00000000
v -2.49896622 8.33611393 2.00000000
v -2.57500005 8.29592896 2.00000000
v -2.64781809 8.25017452 2.00000000
v 1.39999998 -0.00000000 2.00000000
v -2.00000000 8.44999981 2.00000000
v -1.91406035 8.44678402 2.00000000
v -2.08593965 8.44678402 2.00000000
v -2.17139864 8.43715572 2.00000000
v -2.25589919 8.42116737 2.00000000
v 1.39049292 0.25408232 2.00000000
v -1.57985783 8.37050438 2.00000000
v -1.50103366 8.33611393 2.00000000
v -1.66103160 8.39890862 2.00000000
v -1.74410093 8.42116737 2.00000000
v -1.82860136 8.43715572 2.00000000
v 1.36202478 0.50674373 2.00000000
v -1.21780133 8.14300919 2.00000000
v -1.15699029 8.08219910 2.00000000
v -1.28298676 8.19910622 2.00000000
v -1.35218191 8.25017452 2.00000000
v -1.42499995 8.29592896 2.00000000
v 1.31475484 0.75657117 2.00000000
v -1.00407076 7.87500000 2.00000000
v -0.96388578 7.79896641 2.00000000
v -1.04982543 7.94781828 2.00000000
v -1.10089374 8.01701355 2.00000000
v 1.24894750 1.00216758 2.00000000
v -0.87883288 7.55589914 2.00000000
v -0.86284453 7.47139883 2.00000000
v -0.90109128 7.63896847 2.00000000
v -0.92949522 7.72014236 2.00000000
v 1.16497076 1.24215949 2.00000000
v -0.85321563 7.38593960 2.00000000
v -0.85000002 7.30000019 2.00000000
v 1.06329417 1.47520471 2.00000000
v -0.86284453 7.12860155 2.00000000
v -0.87883288 7.04410076 2.00000000
v -0.85321563 7.21406031 2.00000000
v 0.94448638 1.70000005 2.00000000
v -0.90109128 6.96103144 2.00000000
v -0.92949522 6.87985802 2.00000000
v 0.80921185 1.91528821 2.00000000
v -0.96388578 6.80103350 2.00000000
v 0.65822703 2.11986542 2.00000000
v 0.11986533 2.65822697 2.00000000
v 0.49237636 2.31258726 2.00000000
v 0.31258732 2.49237633 2.00000000
f 1 2 3
f 4 3 5
f 4 1 3
f 6 5 7
f 6 4 5
f 8 7 9
f 8 6 7
f 10 9 11
f 10 8 9
f 12 11 13
f 12 10 11
f 14 13 15
f 14 12 13
f 16 15 17
f 16 14 15
f 18 17 19
f 18 16 17
f 20 19 21
f 20 18 19
f 22 21 23
f 22 20 21
f 24 23 25
f 24 22 23
f 26 25 27
f 26 24 25
f 28 27 29
f 28 26 27
f 30 29 31
f 30 28 29
f 32 31 33
f 32 30 31
f 34 33 35
f 34 32 33
f 36 35 37
f 36 34 35
f 38 37 39
f 38 36 37
f 40 39 41
f 40 38 39
f 42 40 41
f 42 41 43
f 44 42 43
f 44 43 45
f 46 44 45
f 46 45 47
f 48 46 47
f 48 47 49
f 50 48 49
f 50 49 51
f 52 51 53
f 52 50 51
f 54 53 55
f 54 52 53
f 56 55 57
f 56 54 55
f 58 57 59
f 58 56 57
f 60 59 61
f 60 58 59
f 62 61 63
f 62 60 61
f 64 63 65
f 64 62 63
f 66 65 67
f 66 64 65
f 68 67 69
f 68 66 67
f 70 69 71
f 70 68 69
f 72 70 71
f 73 71 74
f 73 72 71
f 75 74 76
f 75 76 77
f 75 73 74
f 78 77 79
f 78 75 77
f 80 79 81
f 80 78 79
f 82 81 83
f 82 80 81
f 84 83 85
f 84 82 83
f 86 84 85
f 87 85 88
f 87 88 89
f 87 86 85
f 90 87 89
f 90 89 91
f 92 90 91
f 93 92 91
f 93 91 94
f 93 94 95
f 96 93 95
f 96 95 97
f 98 96 97
f 98 97 99
f 100 98 99
f 100 99 101
f 102 100 101
f 102 101 103
f 104 102 103
f 105 104 103
f 105 103 106
f 107 105 106
f 107 106 108
f 107 108 109
f 110 107 109
f 110 109 111
f 112 110 111
f 112 111 113
f 114 112 113
f 115 114 113
f 115 113 116
f 117 115 116
f 117 116 118
f 119 118 120
f 119 117 118
f 121 122 13
f 123 15 13
f 123 13 122
f 124 121 13
f 125 15 123
f 126 124 13
f 127 15 125
f 128 13 11
f 128 126 13
f 129 15 127
f 130 128 11
f 131 15 129
f 132 130 11
f 133 17 15
f 133 15 131
f 134 11 9
f 134 132 11
f 135 17 133
f 136 134 9
f 137 17 135
f 138 136 9
f 139 17 137
f 140 9 7
f 140 138 9
f 141 17 139
f 142 140 7
f 143 19 17
f 143 17 141
f 144 142 7
f 145 19 143
f 146 7 5
f 146 144 7
f 147 19 145
f 148 146 5
f 149 19 147
f 150 5 3
f 150 148 5
f 151 19 149
f 152 150 3
f 153 3 2
f 153 152 3
f 154 21 19
f 154 19 151
f 155 153 2
f 156 21 154
f 157 21 156
f 158 21 157
f 159 21 158
f 160 23 21
f 160 21 159
f 161 23 160
f 162 23 161
f 163 23 162
f 164 23 163
f 25 23 164
f 25 164 165
f 166 25 165
f 167 25 166
f 168 25 167
f 27 168 169
f 27 169 170
f 27 25 168
f 171 2 172
f 29 170 173
f 29 173 174
f 29 174 175
f 29 27 170
f 176 2 171
f 177 172 2
f 178 2 176
f 178 155 2
f 178 179 155
f 180 177 2
f 181 179 178
f 181 182 179
f 183 180 2
f 184 182 181
f 184 185 186
f 184 186 182
f 187 183 2
f 188 185 184
f 188 189 190
f 188 190 185
f 191 187 2
f 192 189 188
f 192 193 189
f 194 191 2
f 195 193 192
f 195 196 197
f 195 197 193
f 198 194 2
f 199 196 195
f 199 200 201
f 199 201 196
f 202 198 2
f 31 175 203
f 31 203 204
f 31 29 175
f 205 200 199
f 205 206 207
f 205 207 200
f 208 202 2
f 209 206 205
f 209 210 211
f 209 211 206
f 212 208 2
f 213 210 209
f 213 214 215
f 213 215 210
f 33 31 204
f 33 204 216
f 33 216 217
f 218 214 213
f 218 219 220
f 218 220 214
f 221 219 218
f 221 222 223
f 221 223 219
f 224 222 221
f 224 225 222
f 226 227 228
f 226 228 225
f 226 225 224
f 35 33 217
f 229 230 231
f 229 231 227
f 229 227 226
f 232 230 229
f 232 233 230
f 234 233 232
f 234 35 217
f 234 217 233
f 235 35 234
f 235 37 35
f 236 37 235
f 39 37 236
f 237 39 236
f 41 237 238
f 41 39 237
f 43 41 238
f 43 238 239
f 120 212 2
f 120 240 241
f 120 241 242
f 120 242 243
f 120 243 244
f 120 244 245
f 120 245 246
f 120 246 247
f 120 247 248
f 120 248 249
f 120 249 250
f 120 250 251
f 120 251 252
f 120 252 212
f 45 43 239
f 45 239 253
f 47 253 254
f 47 45 253
f 49 254 255
f 49 47 254
f 256 257 258
f 256 259 257
f 260 259 256
f 261 258 257
f 261 257 262
f 263 264 259
f 263 259 260
f 265 261 262
f 265 262 240
f 266 240 120
f 266 265 240
f 267 264 263
f 267 268 264
f 269 268 267
f 270 266 120
f 270 120 118
f 271 270 118
f 272 273 268
f 272 268 269
f 274 118 116
f 274 271 118
f 275 273 272
f 51 255 276
f 51 49 255
f 277 278 273
f 277 273 275
f 279 274 116
f 280 278 277
f 281 279 116
f 281 116 113
f 282 281 113
f 283 284 278
f 283 278 280
f 285 282 113
f 286 284 283
f 287 285 113
f 287 113 111
f 288 284 286
f 288 289 284
f 290 289 288
f 291 287 111
f 292 291 111
f 293 289 290
f 293 294 289
f 295 294 293
f 296 292 111
f 297 294 295
f 297 298 294
f 53 51 276
f 53 276 299
f 300 298 297
f 301 298 300
f 301 302 298
f 109 303 304
f 109 304 305
f 109 305 296
f 109 296 111
f 306 307 302
f 306 302 301
f 308 307 306
f 309 310 307
f 309 307 308
f 311 310 309
f 312 313 310
f 312 310 311
f 55 299 314
f 55 53 299
f 315 313 312
f 315 316 313
f 317 316 315
f 108 318 319
f 108 319 320
f 108 320 321
f 108 321 322
f 108 322 303
f 108 303 109
f 57 314 323
f 57 55 314
f 106 324 325
f 106 325 326
f 106 326 327
f 106 327 328
f 106 328 318
f 106 318 108
f 59 57 323
f 59 323 329
f 103 324 106
f 103 330 331
f 103 331 332
f 103 332 333
f 103 333 334
f 103 334 324
f 61 329 335
f 61 59 329
f 101 330 103
f 101 336 337
f 101 337 338
f 101 338 339
f 101 339 340
f 101 340 330
f 63 335 341
f 63 61 335
f 99 342 343
f 99 343 344
f 99 344 345
f 99 345 346
f 99 346 336
f 99 336 101
f 65 341 347
f 65 63 341
f 97 348 349
f 97 349 350
f 97 350 351
f 97 351 342
f 97 342 99
f 67 65 347
f 67 347 352
f 95 353 354
f 95 354 355
f 95 355 356
f 95 356 348
f 95 348 97
f 69 67 352
f 69 352 357
f 94 358 359
f 94 359 353
f 94 353 95
f 71 357 360
f 71 69 357
f 91 361 362
f 91 362 363
f 91 363 358
f 91 358 94
f 74 360 364
f 74 71 360
f 89 365 366
f 89 366 361
f 89 361 91
f 76 74 364
f 76 364 367
f 88 317 368
f 88 368 365
f 88 365 89
f 77 76 367
f 77 367 369
f 85 316 317
f 85 317 88
f 85 370 316
f 79 77 369
f 79 369 371
f 83 370 85
f 83 372 370
f 81 79 371
f 81 372 83
f 81 371 372
f 1 120 2
f 1 119 120
f 373 14 374
f 375 374 14
f 375 14 16
f 376 14 373
f 377 375 16
f 378 14 376
f 379 377 16
f 380 14 378
f 380 12 14
f 381 379 16
f 382 12 380
f 383 381 16
f 384 12 382
f 385 16 18
f 385 383 16
f 386 12 384
f 386 10 12
f 387 385 18
f 388 10 386
f 389 387 18
f 390 10 388
f 391 389 18
f 392 8 10
f 392 10 390
f 393 391 18
f 394 8 392
f 395 18 20
f 395 393 18
f 396 8 394
f 397 395 20
f 398 6 8
f 398 8 396
f 399 397 20
f 400 6 398
f 401 399 20
f 402 4 6
f 402 6 400
f 403 401 20
f 404 4 402
f 405 1 4
f 405 4 404
f 406 20 22
f 406 403 20
f 407 1 405
f 408 406 22
f 409 408 22
f 410 409 22
f 411 410 22
f 412 411 22
f 412 22 24
f 413 412 24
f 414 413 24
f 415 414 24
f 416 415 24
f 26 416 24
f 26 417 416
f 418 417 26
f 419 418 26
f 420 419 26
f 28 421 420
f 28 422 421
f 28 420 26
f 423 1 424
f 30 422 28
f 30 425 422
f 30 426 425
f 30 427 426
f 428 424 1
f 429 1 423
f 430 428 1
f 430 1 407
f 430 407 431
f 432 1 429
f 433 430 431
f 433 431 434
f 435 1 432
f 436 433 434
f 436 437 438
f 436 434 437
f 439 1 435
f 440 436 438
f 440 441 442
f 440 438 441
f 443 1 439
f 444 440 442
f 444 442 445
f 446 1 443
f 447 444 445
f 447 448 449
f 447 445 448
f 450 1 446
f 451 447 449
f 451 452 453
f 451 449 452
f 454 1 450
f 32 455 427
f 32 456 455
f 32 427 30
f 457 451 453
f 457 458 459
f 457 453 458
f 460 1 454
f 461 457 459
f 461 462 463
f 461 459 462
f 464 1 460
f 465 461 463
f 465 466 467
f 465 463 466
f 34 468 456
f 34 469 468
f 34 456 32
f 470 465 467
f 470 471 472
f 470 467 471
f 473 470 472
f 473 474 475
f 473 472 474
f 476 473 475
f 476 475 477
f 478 479 480
f 478 477 479
f 478 476 477
f 36 469 34
f 481 478 480
f 481 482 483
f 481 480 482
f 484 481 483
f 484 483 485
f 486 485 469
f 486 469 36
f 486 484 485
f 487 36 38
f 487 486 36
f 488 487 38
f 40 488 38
f 489 488 40
f 42 489 40
f 42 490 489
f 44 490 42
f 44 491 490
f 119 1 464
f 119 492 493
f 119 494 492
f 119 495 494
f 119 496 495
f 119 497 496
f 119 498 497
f 119 499 498
f 119 500 499
f 119 501 500
f 119 502 501
f 119 503 502
f 119 504 503
f 119 464 504
f 46 505 491
f 46 491 44
f 48 506 505
f 48 505 46
f 50 507 506
f 50 506 48
f 508 509 510
f 511 509 508
f 512 513 509
f 512 509 511
f 514 508 510
f 515 513 512
f 515 493 513
f 516 514 510
f 516 510 517
f 518 119 493
f 518 493 515
f 519 516 517
f 519 517 520
f 521 519 520
f 522 117 119
f 522 119 518
f 523 117 522
f 524 520 525
f 524 521 520
f 526 115 117
f 526 117 523
f 527 524 525
f 52 528 507
f 52 507 50
f 529 527 525
f 529 525 530
f 531 115 526
f 532 114 115
f 532 115 531
f 533 529 530
f 534 533 530
f 534 530 535
f 536 114 532
f 537 534 535
f 538 114 536
f 539 535 540
f 539 537 535
f 541 112 114
f 541 114 538
f 542 539 540
f 543 112 541
f 544 112 543
f 545 542 540
f 545 540 546
f 547 112 544
f 548 545 546
f 549 548 546
f 549 546 550
f 54 528 52
f 54 551 528
f 552 549 550
f 553 550 554
f 553 552 550
f 110 555 556
f 110 557 555
f 110 547 557
f 110 112 547
f 558 554 559
f 558 553 554
f 560 558 559
f 561 559 562
f 561 560 559
f 563 561 562
f 564 562 565
f 564 563 562
f 56 566 551
f 56 551 54
f 567 564 565
f 567 565 568
f 569 567 568
f 107 570 571
f 107 572 570
f 107 573 572
f 107 574 573
f 107 556 574
f 107 110 556
f 58 575 566
f 58 566 56
f 105 576 577
f 105 578 576
f 105 579 578
f 105 580 579
f 105 571 580
f 105 107 571
f 60 581 575
f 60 575 58
f 104 105 577
f 104 582 583
f 104 584 582
f 104 585 584
f 104 586 585
f 104 577 586
f 62 581 60
f 62 587 581
f 102 104 583
f 102 588 589
f 102 590 588
f 102 591 590
f 102 592 591
f 102 583 592
f 64 587 62
f 64 593 587
f 100 594 595
f 100 596 594
f 100 597 596
f 100 598 597
f 100 589 598
f 100 102 589
f 66 599 593
f 66 593 64
f 98 600 601
f 98 602 600
f 98 603 602
f 98 595 603
f 98 100 595
f 68 599 66
f 68 604 599
f 96 605 606
f 96 607 605
f 96 608 607
f 96 601 608
f 96 98 601
f 70 604 68
f 70 609 604
f 93 610 611
f 93 606 610
f 93 96 606
f 72 609 70
f 72 612 609
f 92 613 614
f 92 615 613
f 92 611 615
f 92 93 611
f 73 612 72
f 73 616 612
f 90 617 618
f 90 614 617
f 90 92 614
f 75 619 616
f 75 616 73
f 87 620 569
f 87 618 620
f 87 90 618
f 78 619 75
f 78 621 619
f 86 87 569
f 86 568 622
f 86 569 568
f 80 621 78
f 80 623 621
f 84 86 622
f 84 622 624
f 82 623 80
f 82 84 624
f 82 624 623
f 425 170 422
f 425 173 170
f 426 173 425
f 426 174 173
f 427 175 174
f 427 174 426
f 455 203 175
f 455 175 427
f 456 204 203
f 456 203 455
f 468 216 204
f 468 204 456
f 469 217 216
f 469 216 468
f 485 217 469
f 485 233 217
f 483 233 485
f 483 230 233
f 482 230 483
f 482 231 230
f 480 231 482
f 480 227 231
f 479 227 480
f 479 228 227
f 477 228 479
f 477 225 228
f 475 225 477
f 475 222 225
f 474 222 475
f 474 223 222
f 472 219 223
f 472 223 474
f 471 220 219
f 471 214 220
f 471 219 472
f 467 214 471
f 466 215 214
f 466 214 467
f 463 210 215
f 463 211 210
f 463 215 466
f 462 211 463
f 459 206 211
f 459 211 462
f 458 207 206
f 458 206 459
f 453 200 207
f 453 207 458
f 452 201 200
f 452 200 453
f 449 196 201
f 449 197 196
f 449 201 452
f 448 197 449
f 445 193 197
f 445 189 193
f 445 197 448
f 442 189 445
f 441 190 189
f 441 189 442
f 438 185 190
f 438 190 441
f 437 185 438
f 437 186 185
f 434 186 437
f 434 182 186
f 431 182 434
f 431 179 182
f 407 179 431
f 407 155 179
f 405 155 407
f 405 153 155
f 404 152 153
f 404 153 405
f 402 150 152
f 402 152 404
f 400 148 150
f 400 150 402
f 398 146 148
f 398 148 400
f 396 144 146
f 396 146 398
f 394 142 144
f 394 144 396
f 392 140 142
f 392 142 394
f 390 138 140
f 390 140 392
f 388 136 138
f 388 138 390
f 386 134 136
f 386 136 388
f 384 132 134
f 384 134 386
f 382 130 132
f 382 132 384
f 380 128 130
f 380 130 382
f 378 126 128
f 378 128 380
f 376 124 126
f 376 126 378
f 373 121 124
f 373 124 376
f 374 122 121
f 374 121 373
f 375 123 122
f 375 122 374
f 377 125 123
f 377 123 375
f 379 127 125
f 379 125 377
f 381 129 127
f 381 127 379
f 383 129 381
f 383 131 129
f 385 131 383
f 385 133 131
f 387 133 385
f 387 135 133
f 389 135 387
f 389 137 135
f 391 137 389
f 391 139 137
f 393 139 391
f 393 141 139
f 395 141 393
f 395 143 141
f 397 143 395
f 397 145 143
f 399 145 397
f 399 147 145
f 401 147 399
f 401 149 147
f 403 149 401
f 403 151 149
f 406 151 403
f 406 154 151
f 408 154 406
f 408 156 154
f 409 156 408
f 409 157 156
f 410 158 157
f 410 157 409
f 411 159 158
f 411 160 159
f 411 158 410
f 412 160 411
f 413 161 160
f 413 160 412
f 414 162 161
f 414 161 413
f 415 163 162
f 415 162 414
f 416 164 163
f 416 163 415
f 417 165 164
f 417 164 416
f 418 166 165
f 418 165 417
f 419 167 166
f 419 166 418
f 420 168 167
f 420 167 419
f 421 168 420
f 421 169 168
f 422 169 421
f 422 170 169
f 587 329 581
f 587 335 329
f 593 335 587
f 593 341 335
f 599 347 341
f 599 341 593
f 604 352 347
f 604 347 599
f 609 357 352
f 609 352 604
f 612 360 357
f 612 357 609
f 616 364 360
f 616 360 612
f 619 364 616
f 619 367 364
f 621 367 619
f 621 369 367
f 623 369 621
f 623 371 369
f 624 371 623
f 624 372 371
f 622 372 624
f 622 370 372
f 568 370 622
f 568 316 370
f 565 316 568
f 565 313 316
f 562 313 565
f 562 310 313
f 559 307 310
f 559 310 562
f 554 302 307
f 554 298 302
f 554 307 559
f 550 298 554
f 546 294 298
f 546 298 550
f 540 289 294
f 540 284 289
f 540 294 546
f 535 284 540
f 530 278 284
f 530 284 535
f 525 273 278
f 525 278 530
f 520 268 273
f 520 273 525
f 517 264 268
f 517 268 520
f 510 259 264
f 510 257 259
f 510 264 517
f 509 257 510
f 513 262 257
f 513 240 262
f 513 257 509
f 493 240 513
f 492 241 240
f 492 240 493
f 494 242 241
f 494 241 492
f 495 242 494
f 495 243 242
f 496 243 495
f 496 244 243
f 497 244 496
f 497 245 244
f 498 245 497
f 498 246 245
f 499 246 498
f 499 247 246
f 500 248 247
f 500 247 499
f 501 249 248
f 501 248 500
f 502 250 249
f 502 249 501
f 503 251 250
f 503 250 502
f 504 252 251
f 504 251 503
f 464 212 252
f 464 252 504
f 460 208 212
f 460 212 464
f 454 202 208
f 454 208 460
f 450 198 202
f 450 202 454
f 446 194 198
f 446 198 450
f 443 191 194
f 443 194 446
f 439 187 191
f 439 191 443
f 435 183 187
f 435 187 439
f 432 180 183
f 432 183 435
f 429 177 180
f 429 180 432
f 423 172 177
f 423 177 429
f 424 171 172
f 424 172 423
f 428 176 171
f 428 171 424
f 430 178 176
f 430 176 428
f 433 181 178
f 433 178 430
f 436 184 181
f 436 181 433
f 440 184 436
f 440 188 184
f 444 188 440
f 444 192 188
f 447 192 444
f 447 195 192
f 451 195 447
f 451 199 195
f 457 199 451
f 457 205 199
f 461 205 457
f 461 209 205
f 465 209 461
f 465 213 209
f 470 213 465
f 470 218 213
f 473 218 470
f 473 221 218
f 476 221 473
f 476 224 221
f 478 224 476
f 478 226 224
f 481 226 478
f 481 229 226
f 484 229 481
f 484 232 229
f 486 232 484
f 486 234 232
f 487 235 234
f 487 234 486
f 488 236 235
f 488 237 236
f 488 235 487
f 489 237 488
f 490 238 237
f 490 237 489
f 491 239 238
f 491 238 490
f 505 253 239
f 505 239 491
f 506 254 253
f 506 253 505
f 507 255 254
f 507 254 506
f 528 276 255
f 528 255 507
f 551 299 276
f 551 276 528
f 566 314 299
f 566 299 551
f 575 314 566
f 575 323 314
f 581 323 575
f 581 329 323
f 610 358 611
f 610 359 358
f 606 359 610
f 606 353 359
f 605 354 353
f 605 353 606
f 607 355 354
f 607 354 605
f 608 356 355
f 608 355 607
f 601 348 356
f 601 356 608
f 600 349 348
f 600 348 601
f 602 349 600
f 602 350 349
f 603 350 602
f 603 351 350
f 595 351 603
f 595 342 351
f 594 342 595
f 594 343 342
f 596 343 594
f 596 344 343
f 597 344 596
f 597 345 344
f 598 345 597
f 598 346 345
f 589 346 598
f 589 336 346
f 588 337 336
f 588 336 589
f 590 338 337
f 590 339 338
f 590 337 588
f 591 339 590
f 592 340 339
f 592 339 591
f 583 330 340
f 583 331 330
f 583 340 592
f 582 331 583
f 584 332 331
f 584 331 582
f 585 333 332
f 585 332 584
f 586 334 333
f 586 333 585
f 577 324 334
f 577 334 586
f 576 325 324
f 576 326 325
f 576 324 577
f 578 326 576
f 579 327 326
f 579 328 327
f 579 326 578
f 580 328 579
f 571 318 328
f 571 328 580
f 570 319 318
f 570 318 571
f 572 319 570
f 572 320 319
f 573 320 572
f 573 321 320
f 574 321 573
f 574 322 321
f 556 322 574
f 556 303 322
f 555 303 556
f 555 304 303
f 557 305 304
f 557 304 555
f 547 296 305
f 547 305 557
f 544 292 296
f 544 296 547
f 543 291 292
f 543 292 544
f 541 287 291
f 541 291 543
f 538 285 287
f 538 287 541
f 536 282 285
f 536 285 538
f 532 281 282
f 532 282 536
f 531 279 281
f 531 281 532
f 526 274 279
f 526 279 531
f 523 271 274
f 523 274 526
f 522 270 271
f 522 271 523
f 518 266 270
f 518 270 522
f 515 265 266
f 515 266 518
f 512 261 265
f 512 265 515
f 511 258 261
f 511 261 512
f 508 256 258
f 508 258 511
f 514 260 256
f 514 256 508
f 516 263 260
f 516 260 514
f 519 267 263
f 519 263 516
f 521 269 267
f 521 267 519
f 524 269 521
f 524 272 269
f 527 272 524
f 527 275 272
f 529 275 527
f 529 277 275
f 533 277 529
f 533 280 277
f 534 280 533
f 534 283 280
f 537 283 534
f 537 286 283
f 539 286 537
f 539 288 286
f 542 288 539
f 542 290 288
f 545 290 542
f 545 293 290
f 548 293 545
f 548 295 293
f 549 295 548
f 549 297 295
f 552 297 549
f 552 300 297
f 553 300 552
f 553 301 300
f 558 301 553
f 558 306 301
f 560 308 306
f 560 306 558
f 561 309 308
f 561 311 309
f 561 308 560
f 563 311 561
f 564 312 311
f 564 311 563
f 567 315 312
f 567 312 564
f 569 317 315
f 569 315 567
f 620 368 317
f 620 317 569
f 618 365 368
f 618 368 620
f 617 366 365
f 617 365 618
f 614 361 366
f 614 366 617
f 613 362 361
f 613 361 614
f 615 362 613
f 615 363 362
f 611 363 615
f 611 358 363

