OFF
624 1256 0
-7.5000000000 -7.7459669113 2.0000000000
-7.5000000000 -7.7459669113 0.0000000000
-6.9108266830 -8.1322679520 0.0000000000
-6.9108266830 -8.1322679520 2.0000000000
-6.2946448326 -8.4738435745 0.0000000000
-6.2946448326 -8.4738435745 2.0000000000
-5.6548438072 -8.7688150406 0.0000000000
-5.6548438072 -8.7688150406 2.0000000000
-4.9949417114 -9.0155601501 0.0000000000
-4.9949417114 -9.0155601501 2.0000000000
-4.3185682297 -9.2127218246 0.0000000000
-4.3185682297 -9.2127218246 2.0000000000
-3.6294431686 -9.3592157364 0.0000000000
-3.6294431686 -9.3592157364 2.0000000000
-2.9313566685 -9.4542360306 0.0000000000
-2.9313566685 -9.4542360306 2.0000000000
-2.2281477451 -9.4972600937 0.0000000000
-2.2281477451 -9.4972600937 2.0000000000
-1.5236841440 -9.4880514145 0.0000000000
-1.5236841440 -9.4880514145 2.0000000000
-0.8218402267 -9.4266614914 0.0000000000
-0.8218402267 -9.4266614914 2.0000000000
-0.1264758259 -9.3134260178 0.0000000000
-0.1264758259 -9.3134260178 2.0000000000
0.5585846305 -9.1489696503 0.0000000000
0.5585846305 -9.1489696503 2.0000000000
1.2295734882 -8.9341955185 0.0000000000
1.2295734882 -8.9341955185 2.0000000000
1.8828003407 -8.6702861786 0.0000000000
1.8828003407 -8.6702861786 2.0000000000
2.5146727562 -8.3586921692 0.0000000000
2.5146727562 -8.3586921692 2.0000000000
3.1217155457 -8.0011262894 0.0000000000
3.1217155457 -8.0011262894 2.0000000000
3.7005901337 -7.5995573997 0.0000000000
3.7005901337 -7.5995573997 2.0000000000
4.2481126785 -7.1561923027 0.0000000000
4.2481126785 -7.1561923027 2.0000000000
4.7612724304 -6.6734695435 0.0000000000
4.7612724304 -6.6734695435 2.0000000000
5.2372465134 -6.1540446281 0.0000000000
5.2372465134 -6.1540446281 2.0000000000
5.6734175682 -5.6007733345 0.0000000000
5.6734175682 -5.6007733345 2.0000000000
6.0673866272 -5.0166997910 0.0000000000
6.0673866272 -5.0166997910 2.0000000000
6.4169864655 -4.4050350189 0.0000000000
6.4169864655 -4.4050350189 2.0000000000
6.7202954292 -3.7691440582 0.0000000000
6.7202954292 -3.7691440582 2.0000000000
6.9756445885 -3.1125235558 0.0000000000
6.9756445885 -3.1125235558 2.0000000000
7.1816301346 -2.4387848377 0.0000000000
7.1816301346 -2.4387848377 2.0000000000
7.3371186256 -1.7516334057 0.0000000000
7.3371186256 -1.7516334057 2.0000000000
7.4412550926 -1.0548483133 0.0000000000
7.4412550926 -1.0548483133 2.0000000000
7.4934668541 -0.3522619009 0.0000000000
7.4934668541 -0.3522619009 2.0000000000
7.4934668541 0.3522619009 0.0000000000
7.4934668541 0.3522619009 2.0000000000
7.4412550926 1.0548483133 0.0000000000
7.4412550926 1.0548483133 2.0000000000
7.3371186256 1.7516334057 0.0000000000
7.3371186256 1.7516334057 2.0000000000
7.1816301346 2.4387848377 0.0000000000
7.1816301346 2.4387848377 2.0000000000
6.9756445885 3.1125235558 0.0000000000
6.9756445885 3.1125235558 2.0000000000
6.7202954292 3.7691440582 0.0000000000
6.7202954292 3.7691440582 2.0000000000
6.4169864655 4.4050350189 2.0000000000
6.4169864655 4.4050350189 0.0000000000
6.0673866272 5.0166997910 2.0000000000
6.0673866272 5.0166997910 0.0000000000
5.6734175682 5.6007733345 0.0000000000
5.6734175682 5.6007733345 2.0000000000
5.2372465134 6.1540446281 0.0000000000
5.2372465134 6.1540446281 2.0000000000
4.7612724304 6.6734695435 0.0000000000
4.7612724304 6.6734695435 2.0000000000
4.2481126785 7.1561923027 0.0000000000
4.2481126785 7.1561923027 2.0000000000
3.7005901337 7.5995573997 0.0000000000
3.7005901337 7.5995573997 2.0000000000
3.1217155457 8.0011262894 2.0000000000
3.1217155457 8.0011262894 0.0000000000
2.5146727562 8.3586921692 0.0000000000
2.5146727562 8.3586921692 2.0000000000
1.8828003407 8.6702861786 0.0000000000
1.8828003407 8.6702861786 2.0000000000
1.2295734882 8.9341955185 2.0000000000
1.2295734882 8.9341955185 0.0000000000
0.5585846305 9.1489696503 0.0000000000
0.5585846305 9.1489696503 2.0000000000
-0.1264758259 9.3134260178 0.0000000000
-0.1264758259 9.3134260178 2.0000000000
-0.8218402267 9.4266614914 0.0000000000
-0.8218402267 9.4266614914 2.0000000000
-1.5236841440 9.4880514145 0.0000000000
-1.5236841440 9.4880514145 2.0000000000
-2.2281477451 9.4972600937 0.0000000000
-2.2281477451 9.4972600937 2.0000000000
-2.9313566685 9.4542360306 2.0000000000
-2.9313566685 9.4542360306 0.0000000000
-3.6294431686 9.3592157364 2.0000000000
-3.6294431686 9.3592157364 0.0000000000
-4.3185682297 9.2127218246 0.0000000000
-4.3185682297 9.2127218246 2.0000000000
-4.9949417114 9.0155601501 0.0000000000
-4.9949417114 9.0155601501 2.0000000000
-5.6548438072 8.7688150406 0.0000000000
-5.6548438072 8.7688150406 2.0000000000
-6.2946448326 8.4738435745 2.0000000000
-6.2946448326 8.4738435745 0.0000000000
-6.9108266830 8.1322679520 2.0000000000
-6.9108266830 8.1322679520 0.0000000000
-7.5000000000 7.7459669113 2.0000000000
-7.5000000000 7.7459669113 0.0000000000
-2.8430097103 -8.0821990967 0.0000000000
-2.7821986675 -8.1430091858 0.0000000000
-2.7170133591 -8.1991062164 0.0000000000
-2.8991062641 -8.0170135498 0.0000000000
-2.6478180885 -8.2501745224 0.0000000000
-2.9501745701 -7.9478182793 0.0000000000
-2.5750000477 -8.2959289551 0.0000000000
-2.9959292412 -7.8750000000 0.0000000000
-2.4989662170 -8.3361139297 0.0000000000
-3.0361142159 -7.7989664078 0.0000000000
-2.4201421738 -8.3705043793 0.0000000000
-3.0705049038 -7.7201423645 0.0000000000
-2.3389685154 -8.3989086151 0.0000000000
-3.0989086628 -7.6389684677 0.0000000000
-2.2558991909 -8.4211673737 0.0000000000
-3.1211671829 -7.5558991432 0.0000000000
-2.1713986397 -8.4371557236 0.0000000000
-3.1371555328 -7.4713988304 0.0000000000
-2.0859396458 -8.4467840195 0.0000000000
-3.1467843056 -7.3859395981 0.0000000000
-2.0000000000 -8.4499998093 0.0000000000
-3.1500000954 -7.3000001907 0.0000000000
-1.9140603542 -8.4467840195 0.0000000000
-3.1467843056 -7.2140603065 0.0000000000
-1.8286013603 -8.4371557236 0.0000000000
-3.1371555328 -7.1286015511 0.0000000000
-1.7441009283 -8.4211673737 0.0000000000
-3.1211671829 -7.0441007614 0.0000000000
-1.6610316038 -8.3989086151 0.0000000000
-3.0989086628 -6.9610314369 0.0000000000
-1.5798578262 -8.3705043793 0.0000000000
-3.0705049038 -6.8798580170 0.0000000000
-3.0361142159 -6.8010334969 0.0000000000
-1.5010336637 -8.3361139297 0.0000000000
-2.9959292412 -6.7249999046 0.0000000000
-1.4249999523 -8.2959289551 0.0000000000
-1.3521819115 -8.2501745224 0.0000000000
-1.2829867601 -8.1991062164 0.0000000000
-1.2178013325 -8.1430091858 0.0000000000
-1.1569902897 -8.0821990967 0.0000000000
-1.1008937359 -8.0170135498 0.0000000000
-1.0498254299 -7.9478182793 0.0000000000
-1.0040707588 -7.8750000000 0.0000000000
-0.9638857841 -7.7989664078 0.0000000000
-0.9294952154 -7.7201423645 0.0000000000
-0.9010912776 -7.6389684677 0.0000000000
-0.8788328767 -7.5558991432 0.0000000000
-0.8628445268 -7.4713988304 0.0000000000
-0.8532156348 -7.3859395981 0.0000000000
-0.8500000238 -7.3000001907 0.0000000000
-4.3125872612 -2.4923763275 0.0000000000
-4.4923763275 -2.3125872612 0.0000000000
-0.8532156348 -7.2140603065 0.0000000000
-0.8628445268 -7.1286015511 0.0000000000
-0.8788328767 -7.0441007614 0.0000000000
-4.1198654175 -2.6582269669 0.0000000000
-4.6582269669 -2.1198654175 0.0000000000
-3.9152882099 -2.8092117310 0.0000000000
-2.9501745701 -6.6521821022 0.0000000000
-4.8092117310 -1.9152882099 0.0000000000
-3.7000000477 -2.9444863796 0.0000000000
-2.8991062641 -6.5829868317 0.0000000000
-4.9444861412 -1.7000000477 0.0000000000
-3.4752047062 -3.0632941723 0.0000000000
-2.7821986675 -6.4569902420 0.0000000000
-2.8430097103 -6.5178012848 0.0000000000
-5.0632939339 -1.4752047062 0.0000000000
-3.2421593666 -3.1649706364 0.0000000000
-2.6478180885 -6.3498253822 0.0000000000
-2.7170133591 -6.4008936882 0.0000000000
-5.1649708748 -1.2421594858 0.0000000000
-3.0021677017 -3.2489476204 0.0000000000
-2.5750000477 -6.3040709496 0.0000000000
-5.2489476204 -1.0021675825 0.0000000000
-2.7565712929 -3.3147549629 0.0000000000
-2.4201421738 -6.2294950485 0.0000000000
-2.4989662170 -6.2638859749 0.0000000000
-5.3147549629 -0.7565711737 0.0000000000
-2.5067436695 -3.3620247841 0.0000000000
-2.2558991909 -6.1788330078 0.0000000000
-2.3389685154 -6.2010912895 0.0000000000
-5.3620247841 -0.5067437291 0.0000000000
-0.9010912776 -6.9610314369 0.0000000000
-0.9294952154 -6.8798580170 0.0000000000
-2.2540822029 -3.3904929161 0.0000000000
-2.0859396458 -6.1532154083 0.0000000000
-2.1713986397 -6.1628446579 0.0000000000
-5.3904929161 -0.2540823221 0.0000000000
-2.0000000000 -3.4000000954 0.0000000000
-1.9140603542 -6.1532154083 0.0000000000
-2.0000000000 -6.1500000954 0.0000000000
-5.4000000954 0.0000000000 0.0000000000
-1.7459176779 -3.3904929161 0.0000000000
-1.7441009283 -6.1788330078 0.0000000000
-1.8286013603 -6.1628446579 0.0000000000
-0.9638857841 -6.8010334969 0.0000000000
-1.0040707588 -6.7249999046 0.0000000000
-1.4932563305 -3.3620247841 0.0000000000
-1.5798578262 -6.2294950485 0.0000000000
-1.6610316038 -6.2010912895 0.0000000000
-1.2434288263 -3.3147549629 0.0000000000
-1.4249999523 -6.3040709496 0.0000000000
-1.5010336637 -6.2638859749 0.0000000000
-0.9978324175 -3.2489476204 0.0000000000
-1.3521819115 -6.3498253822 0.0000000000
-0.7578405142 -3.1649706364 0.0000000000
-1.2178013325 -6.4569902420 0.0000000000
-1.2829867601 -6.4008936882 0.0000000000
-0.5247952938 -3.0632941723 0.0000000000
-1.1008937359 -6.5829868317 0.0000000000
-1.1569902897 -6.5178012848 0.0000000000
-0.3000000119 -2.9444863796 0.0000000000
-1.0498254299 -6.6521821022 0.0000000000
-0.0847118050 -2.8092117310 0.0000000000
0.1198653281 -2.6582269669 0.0000000000
0.3125873208 -2.4923763275 0.0000000000
0.4923763573 -2.3125872612 0.0000000000
0.6582270265 -2.1198654175 0.0000000000
0.8092118502 -1.9152882099 0.0000000000
-3.9152882099 2.8092117310 0.0000000000
-4.1198654175 2.6582269669 0.0000000000
-4.3125872612 2.4923763275 0.0000000000
-4.4923763275 2.3125872612 0.0000000000
-4.6582269669 2.1198654175 0.0000000000
-4.8092117310 1.9152882099 0.0000000000
-4.9444861412 1.7000000477 0.0000000000
-5.0632939339 1.4752047062 0.0000000000
-5.1649708748 1.2421594858 0.0000000000
-5.2489476204 1.0021675825 0.0000000000
-5.3147549629 0.7565711737 0.0000000000
-5.3620247841 0.5067437291 0.0000000000
-5.3904929161 0.2540823221 0.0000000000
0.9444863796 -1.7000000477 0.0000000000
1.0632941723 -1.4752047062 0.0000000000
1.1649707556 -1.2421594858 0.0000000000
-2.7821986675 6.4569902420 0.0000000000
-3.4752047062 3.0632941723 0.0000000000
-2.8430097103 6.5178012848 0.0000000000
-3.2421593666 3.1649706364 0.0000000000
-2.7170133591 6.4008936882 0.0000000000
-2.8991062641 6.5829868317 0.0000000000
-3.7000000477 2.9444863796 0.0000000000
-2.6478180885 6.3498253822 0.0000000000
-3.0021677017 3.2489476204 0.0000000000
-2.9501745701 6.6521821022 0.0000000000
-2.9959292412 6.7249999046 0.0000000000
-2.5750000477 6.3040709496 0.0000000000
-2.7565712929 3.3147549629 0.0000000000
-2.4989662170 6.2638859749 0.0000000000
-3.0361142159 6.8010334969 0.0000000000
-3.0705049038 6.8798580170 0.0000000000
-2.4201421738 6.2294950485 0.0000000000
-2.5067436695 3.3620247841 0.0000000000
-3.0989086628 6.9610314369 0.0000000000
-2.3389685154 6.2010912895 0.0000000000
1.2489475012 -1.0021675825 0.0000000000
-2.2558991909 6.1788330078 0.0000000000
-2.2540822029 3.3904929161 0.0000000000
-3.1211671829 7.0441007614 0.0000000000
-2.1713986397 6.1628446579 0.0000000000
-3.1371555328 7.1286015511 0.0000000000
-3.1467843056 7.2140603065 0.0000000000
-2.0859396458 6.1532154083 0.0000000000
-2.0000000000 3.4000000954 0.0000000000
-3.1500000954 7.3000001907 0.0000000000
-2.0000000000 6.1500000954 0.0000000000
-3.1467843056 7.3859395981 0.0000000000
-1.9140603542 6.1532154083 0.0000000000
-1.7459176779 3.3904929161 0.0000000000
-1.8286013603 6.1628446579 0.0000000000
-3.1371555328 7.4713988304 0.0000000000
-3.1211671829 7.5558991432 0.0000000000
-1.7441009283 6.1788330078 0.0000000000
-1.4932563305 3.3620247841 0.0000000000
-1.6610316038 6.2010912895 0.0000000000
-3.0989086628 7.6389684677 0.0000000000
-1.5798578262 6.2294950485 0.0000000000
-1.2434288263 3.3147549629 0.0000000000
1.3147548437 -0.7565711737 0.0000000000
-1.5010336637 6.2638859749 0.0000000000
-1.4249999523 6.3040709496 0.0000000000
-0.9978324175 3.2489476204 0.0000000000
-2.9959292412 7.8750000000 0.0000000000
-3.0361142159 7.7989664078 0.0000000000
-3.0705049038 7.7201423645 0.0000000000
-1.3521819115 6.3498253822 0.0000000000
-0.7578405142 3.1649706364 0.0000000000
-1.2829867601 6.4008936882 0.0000000000
-1.2178013325 6.4569902420 0.0000000000
-0.5247952938 3.0632941723 0.0000000000
-1.1569902897 6.5178012848 0.0000000000
-1.1008937359 6.5829868317 0.0000000000
-0.3000000119 2.9444863796 0.0000000000
1.3620247841 -0.5067437291 0.0000000000
-1.0498254299 6.6521821022 0.0000000000
-0.0847118050 2.8092117310 0.0000000000
-1.0040707588 6.7249999046 0.0000000000
-2.7170133591 8.1991062164 0.0000000000
-2.7821986675 8.1430091858 0.0000000000
-2.8430097103 8.0821990967 0.0000000000
-2.8991062641 8.0170135498 0.0000000000
-2.9501745701 7.9478182793 0.0000000000
1.3904929161 -0.2540823221 0.0000000000
-2.3389685154 8.3989086151 0.0000000000
-2.4201421738 8.3705043793 0.0000000000
-2.4989662170 8.3361139297 0.0000000000
-2.5750000477 8.2959289551 0.0000000000
-2.6478180885 8.2501745224 0.0000000000
1.3999999762 -0.0000000000 0.0000000000
-1.9140603542 8.4467840195 0.0000000000
-2.0000000000 8.4499998093 0.0000000000
-2.0859396458 8.4467840195 0.0000000000
-2.1713986397 8.4371557236 0.0000000000
-2.2558991909 8.4211673737 0.0000000000
1.3904929161 0.2540823221 0.0000000000
-1.5010336637 8.3361139297 0.0000000000
-1.5798578262 8.3705043793 0.0000000000
-1.6610316038 8.3989086151 0.0000000000
-1.7441009283 8.4211673737 0.0000000000
-1.8286013603 8.4371557236 0.0000000000
1.3620247841 0.5067437291 0.0000000000
-1.1569902897 8.0821990967 0.0000000000
-1.2178013325 8.1430091858 0.0000000000
-1.2829867601 8.1991062164 0.0000000000
-1.3521819115 8.2501745224 0.0000000000
-1.4249999523 8.2959289551 0.0000000000
1.3147548437 0.7565711737 0.0000000000
-0.9638857841 7.7989664078 0.0000000000
-1.0040707588 7.8750000000 0.0000000000
-1.0498254299 7.9478182793 0.0000000000
-1.1008937359 8.0170135498 0.0000000000
1.2489475012 1.0021675825 0.0000000000
-0.8628445268 7.4713988304 0.0000000000
-0.8788328767 7.5558991432 0.0000000000
-0.9010912776 7.6389684677 0.0000000000
-0.9294952154 7.7201423645 0.0000000000
1.1649707556 1.2421594858 0.0000000000
-0.8500000238 7.3000001907 0.0000000000
-0.8532156348 7.3859395981 0.0000000000
1.0632941723 1.4752047062 0.0000000000
-0.8788328767 7.0441007614 0.0000000000
-0.8628445268 7.1286015511 0.0000000000
-0.8532156348 7.2140603065 0.0000000000
0.9444863796 1.7000000477 0.0000000000
-0.9294952154 6.8798580170 0.0000000000
-0.9010912776 6.9610314369 0.0000000000
0.8092118502 1.9152882099 0.0000000000
-0.9638857841 6.8010334969 0.0000000000
0.6582270265 2.1198654175 0.0000000000
0.1198653281 2.6582269669 0.0000000000
0.4923763573 2.3125872612 0.0000000000
0.3125873208 2.4923763275 0.0000000000
-2.8430097103 -8.0821990967 2.0000000000
-2.7821986675 -8.1430091858 2.0000000000
-2.7170133591 -8.1991062164 2.0000000000
-2.8991062641 -8.0170135498 2.0000000000
-2.6478180885 -8.2501745224 2.0000000000
-2.9501745701 -7.9478182793 2.0000000000
-2.5750000477 -8.2959289551 2.0000000000
-2.9959292412 -7.8750000000 2.0000000000
-2.4989662170 -8.3361139297 2.0000000000
-3.0361142159 -7.7989664078 2.0000000000
-2.4201421738 -8.3705043793 2.0000000000
-3.0705049038 -7.7201423645 2.0000000000
-2.3389685154 -8.3989086151 2.0000000000
-3.0989086628 -7.6389684677 2.0000000000
-2.2558991909 -8.4211673737 2.0000000000
-3.1211671829 -7.5558991432 2.0000000000
-2.1713986397 -8.4371557236 2.0000000000
-3.1371555328 -7.4713988304 2.0000000000
-2.0859396458 -8.4467840195 2.0000000000
-3.1467843056 -7.3859395981 2.0000000000
-2.0000000000 -8.4499998093 2.0000000000
-3.1500000954 -7.3000001907 2.0000000000
-1.9140603542 -8.4467840195 2.0000000000
-3.1467843056 -7.2140603065 2.0000000000
-1.8286013603 -8.4371557236 2.0000000000
-3.1371555328 -7.1286015511 2.0000000000
-1.7441009283 -8.4211673737 2.0000000000
-3.1211671829 -7.0441007614 2.0000000000
-1.6610316038 -8.3989086151 2.0000000000
-3.0989086628 -6.9610314369 2.0000000000
-1.5798578262 -8.3705043793 2.0000000000
-3.0705049038 -6.8798580170 2.0000000000
-3.0361142159 -6.8010334969 2.0000000000
-1.5010336637 -8.3361139297 2.0000000000
-2.9959292412 -6.7249999046 2.0000000000
-1.4249999523 -8.2959289551 2.0000000000
-1.3521819115 -8.2501745224 2.0000000000
-1.2829867601 -8.1991062164 2.0000000000
-1.2178013325 -8.1430091858 2.0000000000
-1.1569902897 -8.0821990967 2.0000000000
-1.1008937359 -8.0170135498 2.0000000000
-1.0498254299 -7.9478182793 2.0000000000
-1.0040707588 -7.8750000000 2.0000000000
-0.9638857841 -7.7989664078 2.0000000000
-0.9294952154 -7.7201423645 2.0000000000
-0.9010912776 -7.6389684677 2.0000000000
-0.8788328767 -7.5558991432 2.0000000000
-0.8628445268 -7.4713988304 2.0000000000
-0.8532156348 -7.3859395981 2.0000000000
-0.8500000238 -7.3000001907 2.0000000000
-4.4923763275 -2.3125872612 2.0000000000
-4.3125872612 -2.4923763275 2.0000000000
-0.8532156348 -7.2140603065 2.0000000000
-0.8628445268 -7.1286015511 2.0000000000
-0.8788328767 -7.0441007614 2.0000000000
-4.1198654175 -2.6582269669 2.0000000000
-4.6582269669 -2.1198654175 2.0000000000
-3.9152882099 -2.8092117310 2.0000000000
-2.9501745701 -6.6521821022 2.0000000000
-4.8092117310 -1.9152882099 2.0000000000
-3.7000000477 -2.9444863796 2.0000000000
-2.8991062641 -6.5829868317 2.0000000000
-4.9444861412 -1.7000000477 2.0000000000
-3.4752047062 -3.0632941723 2.0000000000
-2.8430097103 -6.5178012848 2.0000000000
-2.7821986675 -6.4569902420 2.0000000000
-5.0632939339 -1.4752047062 2.0000000000
-3.2421593666 -3.1649706364 2.0000000000
-2.7170133591 -6.4008936882 2.0000000000
-2.6478180885 -6.3498253822 2.0000000000
-5.1649708748 -1.2421594858 2.0000000000
-3.0021677017 -3.2489476204 2.0000000000
-2.5750000477 -6.3040709496 2.0000000000
-5.2489476204 -1.0021675825 2.0000000000
-2.7565712929 -3.3147549629 2.0000000000
-2.4989662170 -6.2638859749 2.0000000000
-2.4201421738 -6.2294950485 2.0000000000
-5.3147549629 -0.7565711737 2.0000000000
-2.5067436695 -3.3620247841 2.0000000000
-2.3389685154 -6.2010912895 2.0000000000
-2.2558991909 -6.1788330078 2.0000000000
-5.3620247841 -0.5067437291 2.0000000000
-0.9010912776 -6.9610314369 2.0000000000
-0.9294952154 -6.8798580170 2.0000000000
-2.2540822029 -3.3904929161 2.0000000000
-2.1713986397 -6.1628446579 2.0000000000
-2.0859396458 -6.1532154083 2.0000000000
-5.3904929161 -0.2540823221 2.0000000000
-2.0000000000 -3.4000000954 2.0000000000
-2.0000000000 -6.1500000954 2.0000000000
-1.9140603542 -6.1532154083 2.0000000000
-5.4000000954 0.0000000000 2.0000000000
-1.7459176779 -3.3904929161 2.0000000000
-1.8286013603 -6.1628446579 2.0000000000
-1.7441009283 -6.1788330078 2.0000000000
-0.9638857841 -6.8010334969 2.0000000000
-1.0040707588 -6.7249999046 2.0000000000
-1.4932563305 -3.3620247841 2.0000000000
-1.6610316038 -6.2010912895 2.0000000000
-1.5798578262 -6.2294950485 2.0000000000
-1.2434288263 -3.3147549629 2.0000000000
-1.5010336637 -6.2638859749 2.0000000000
-1.4249999523 -6.3040709496 2.0000000000
-0.9978324175 -3.2489476204 2.0000000000
-1.3521819115 -6.3498253822 2.0000000000
-0.7578405142 -3.1649706364 2.0000000000
-1.2829867601 -6.4008936882 2.0000000000
-1.2178013325 -6.4569902420 2.0000000000
-0.5247952938 -3.0632941723 2.0000000000
-1.1569902897 -6.5178012848 2.0000000000
-1.1008937359 -6.5829868317 2.0000000000
-0.3000000119 -2.9444863796 2.0000000000
-1.0498254299 -6.6521821022 2.0000000000
-0.0847118050 -2.8092117310 2.0000000000
0.1198653281 -2.6582269669 2.0000000000
0.3125873208 -2.4923763275 2.0000000000
0.4923763573 -2.3125872612 2.0000000000
0.6582270265 -2.1198654175 2.0000000000
0.8092118502 -1.9152882099 2.0000000000
-4.1198654175 2.6582269669 2.0000000000
-3.9152882099 2.8092117310 2.0000000000
-4.3125872612 2.4923763275 2.0000000000
-4.4923763275 2.3125872612 2.0000000000
-4.6582269669 2.1198654175 2.0000000000
-4.8092117310 1.9152882099 2.0000000000
-4.9444861412 1.7000000477 2.0000000000
-5.0632939339 1.4752047062 2.0000000000
-5.1649708748 1.2421594858 2.0000000000
-5.2489476204 1.0021675825 2.0000000000
-5.3147549629 0.7565711737 2.0000000000
-5.3620247841 0.5067437291 2.0000000000
-5.3904929161 0.2540823221 2.0000000000
0.9444863796 -1.7000000477 2.0000000000
1.0632941723 -1.4752047062 2.0000000000
1.1649707556 -1.2421594858 2.0000000000
-2.7821986675 6.4569902420 2.0000000000
-3.4752047062 3.0632941723 2.0000000000
-3.2421593666 3.1649706364 2.0000000000
-2.8430097103 6.5178012848 2.0000000000
-2.8991062641 6.5829868317 2.0000000000
-3.7000000477 2.9444863796 2.0000000000
-2.7170133591 6.4008936882 2.0000000000
-2.9501745701 6.6521821022 2.0000000000
-2.6478180885 6.3498253822 2.0000000000
-3.0021677017 3.2489476204 2.0000000000
-2.9959292412 6.7249999046 2.0000000000
-2.5750000477 6.3040709496 2.0000000000
-2.7565712929 3.3147549629 2.0000000000
-2.4989662170 6.2638859749 2.0000000000
-3.0361142159 6.8010334969 2.0000000000
-3.0705049038 6.8798580170 2.0000000000
-2.4201421738 6.2294950485 2.0000000000
-2.5067436695 3.3620247841 2.0000000000
-3.0989086628 6.9610314369 2.0000000000
-2.3389685154 6.2010912895 2.0000000000
1.2489475012 -1.0021675825 2.0000000000
-2.2558991909 6.1788330078 2.0000000000
-2.2540822029 3.3904929161 2.0000000000
-3.1211671829 7.0441007614 2.0000000000
-3.1371555328 7.1286015511 2.0000000000
-2.1713986397 6.1628446579 2.0000000000
-2.0859396458 6.1532154083 2.0000000000
-2.0000000000 3.4000000954 2.0000000000
-3.1467843056 7.2140603065 2.0000000000
-2.0000000000 6.1500000954 2.0000000000
-3.1500000954 7.3000001907 2.0000000000
-1.9140603542 6.1532154083 2.0000000000
-1.7459176779 3.3904929161 2.0000000000
-3.1467843056 7.3859395981 2.0000000000
-1.8286013603 6.1628446579 2.0000000000
-3.1371555328 7.4713988304 2.0000000000
-3.1211671829 7.5558991432 2.0000000000
-1.7441009283 6.1788330078 2.0000000000
-1.4932563305 3.3620247841 2.0000000000
-3.0989086628 7.6389684677 2.0000000000
-1.6610316038 6.2010912895 2.0000000000
-1.5798578262 6.2294950485 2.0000000000
-1.2434288263 3.3147549629 2.0000000000
1.3147548437 -0.7565711737 2.0000000000
-1.5010336637 6.2638859749 2.0000000000
-1.4249999523 6.3040709496 2.0000000000
-0.9978324175 3.2489476204 2.0000000000
-3.0361142159 7.7989664078 2.0000000000
-2.9959292412 7.8750000000 2.0000000000
-3.0705049038 7.7201423645 2.0000000000
-1.3521819115 6.3498253822 2.0000000000
-0.7578405142 3.1649706364 2.0000000000
-1.2829867601 6.4008936882 2.0000000000
-1.2178013325 6.4569902420 2.0000000000
-0.5247952938 3.0632941723 2.0000000000
-1.1569902897 6.5178012848 2.0000000000
-1.1008937359 6.5829868317 2.0000000000
-0.3000000119 2.9444863796 2.0000000000
1.3620247841 -0.5067437291 2.0000000000
-1.0498254299 6.6521821022 2.0000000000
-0.0847118050 2.8092117310 2.0000000000
-1.0040707588 6.7249999046 2.0000000000
-2.7821986675 8.1430091858 2.0000000000
-2.7170133591 8.1991062164 2.0000000000
-2.8430097103 8.0821990967 2.0000000000
-2.8991062641 8.0170135498 2.0000000000
-2.9501745701 7.9478182793 2.0000000000
1.3904929161 -0.2540823221 2.0000000000
-2.4201421738 8.3705043793 2.0000000000
-2.3389685154 8.3989086151 2.0000000000
-2.4989662170 8.3361139297 2.0000000000
-2.5750000477 8.2959289551 2.0000000000
-2.6478180885 8.2501745224 2.0000000000
1.3999999762 -0.0000000000 2.0000000000
-2.0000000000 8.4499998093 2.0000000000
-1.9140603542 8.4467840195 2.0000000000
-2.0859396458 8.4467840195 2.0000000000
-2.1713986397 8.4371557236 2.0000000000
-2.2558991909 8.4211673737 2.0000000000
1.3904929161 0.2540823221 2.0000000000
-1.5798578262 8.3705043793 2.0000000000
-1.5010336637 8.3361139297 2.0000000000
-1.6610316038 8.3989086151 2.0000000000
-1.7441009283 8.4211673737 2.0000000000
-1.8286013603 8.4371557236 2.0000000000
1.3620247841 0.5067437291 2.0000000000
-1.2178013325 8.1430091858 2.0000000000
-1.1569902897 8.0821990967 2.0000000000
-1.2829867601 8.1991062164 2.0000000000
-1.3521819115 8.2501745224 2.0000000000
-1.4249999523 8.2959289551 2.0000000000
1.3147548437 0.7565711737 2.0000000000
-1.0040707588 7.8750000000 2.0000000000
-0.9638857841 7.7989664078 2.0000000000
-1.0498254299 7.9478182793 2.0000000000
-1.1008937359 8.0170135498 2.0000000000
1.2489475012 1.0021675825 2.0000000000
-0.8788328767 7.5558991432 2.0000000000
-0.8628445268 7.4713988304 2.0000000000
-0.9010912776 7.6389684677 2.0000000000
-0.9294952154 7.7201423645 2.0000000000
1.1649707556 1.2421594858 2.0000000000
-0.8532156348 7.3859395981 2.0000000000
-0.8500000238 7.3000001907 2.0000000000
1.0632941723 1.4752047062 2.0000000000
-0.8628445268 7.1286015511 2.0000000000
-0.8788328767 7.0441007614 2.0000000000
-0.8532156348 7.2140603065 2.0000000000
0.9444863796 1.7000000477 2.0000000000
-0.9010912776 6.9610314369 2.0000000000
-0.9294952154 6.8798580170 2.0000000000
0.8092118502 1.9152882099 2.0000000000
-0.9638857841 6.8010334969 2.0000000000
0.6582270265 2.1198654175 2.0000000000
0.1198653281 2.6582269669 2.0000000000
0.4923763573 2.3125872612 2.0000000000
0.3125873208 2.4923763275 2.0000000000
3 0 1 2
3 3 2 4
3 3 0 2
3 5 4 6
3 5 3 4
3 7 6 8
3 7 5 6
3 9 8 10
3 9 7 8
3 11 10 12
3 11 9 10
3 13 12 14
3 13 11 12
3 15 14 16
3 15 13 14
3 17 16 18
3 17 15 16
3 19 18 20
3 19 17 18
3 21 20 22
3 21 19 20
3 23 22 24
3 23 21 22
3 25 24 26
3 25 23 24
3 27 26 28
3 27 25 26
3 29 28 30
3 29 27 28
3 31 30 32
3 31 29 30
3 33 32 34
3 33 31 32
3 35 34 36
3 35 33 34
3 37 36 38
3 37 35 36
3 39 38 40
3 39 37 38
3 41 39 40
3 41 40 42
3 43 41 42
3 43 42 44
3 45 43 44
3 45 44 46
3 47 45 46
3 47 46 48
3 49 47 48
3 49 48 50
3 51 50 52
3 51 49 50
3 53 52 54
3 53 51 52
3 55 54 56
3 55 53 54
3 57 56 58
3 57 55 56
3 59 58 60
3 59 57 58
3 61 60 62
3 61 59 60
3 63 62 64
3 63 61 62
3 65 64 66
3 65 63 64
3 67 66 68
3 67 65 66
3 69 68 70
3 69 67 68
3 71 69 70
3 72 70 73
3 72 71 70
3 74 73 75
3 74 75 76
3 74 72 73
3 77 76 78
3 77 74 76
3 79 78 80
3 79 77 78
3 81 80 82
3 81 79 80
3 83 82 84
3 83 81 82
3 85 83 84
3 86 84 87
3 86 87 88
3 86 85 84
3 89 86 88
3 89 88 90
3 91 89 90
3 92 91 90
3 92 90 93
3 92 93 94
3 95 92 94
3 95 94 96
3 97 95 96
3 97 96 98
3 99 97 98
3 99 98 100
3 101 99 100
3 101 100 102
3 103 101 102
3 104 103 102
3 104 102 105
3 106 104 105
3 106 105 107
3 106 107 108
3 109 106 108
3 109 108 110
3 111 109 110
3 111 110 112
3 113 111 112
3 114 113 112
3 114 112 115
3 116 114 115
3 116 115 117
3 118 117 119
3 118 116 117
3 120 121 12
3 122 14 12
3 122 12 121
3 123 120 12
3 124 14 122
3 125 123 12
3 126 14 124
3 127 12 10
3 127 125 12
3 128 14 126
3 129 127 10
3 130 14 128
3 131 129 10
3 132 16 14
3 132 14 130
3 133 10 8
3 133 131 10
3 134 16 132
3 135 133 8
3 136 16 134
3 137 135 8
3 138 16 136
3 139 8 6
3 139 137 8
3 140 16 138
3 141 139 6
3 142 18 16
3 142 16 140
3 143 141 6
3 144 18 142
3 145 6 4
3 145 143 6
3 146 18 144
3 147 145 4
3 148 18 146
3 149 4 2
3 149 147 4
3 150 18 148
3 151 149 2
3 152 2 1
3 152 151 2
3 153 20 18
3 153 18 150
3 154 152 1
3 155 20 153
3 156 20 155
3 157 20 156
3 158 20 157
3 159 22 20
3 159 20 158
3 160 22 159
3 161 22 160
3 162 22 161
3 163 22 162
3 24 22 163
3 24 163 164
3 165 24 164
3 166 24 165
3 167 24 166
3 26 167 168
3 26 168 169
3 26 24 167
3 170 1 171
3 28 169 172
3 28 172 173
3 28 173 174
3 28 26 169
3 175 1 170
3 176 171 1
3 177 1 175
3 177 154 1
3 177 178 154
3 179 176 1
3 180 178 177
3 180 181 178
3 182 179 1
3 183 181 180
3 183 184 185
3 183 185 181
3 186 182 1
3 187 184 183
3 187 188 189
3 187 189 184
3 190 186 1
3 191 188 187
3 191 192 188
3 193 190 1
3 194 192 191
3 194 195 196
3 194 196 192
3 197 193 1
3 198 195 194
3 198 199 200
3 198 200 195
3 201 197 1
3 30 174 202
3 30 202 203
3 30 28 174
3 204 199 198
3 204 205 206
3 204 206 199
3 207 201 1
3 208 205 204
3 208 209 210
3 208 210 205
3 211 207 1
3 212 209 208
3 212 213 214
3 212 214 209
3 32 30 203
3 32 203 215
3 32 215 216
3 217 213 212
3 217 218 219
3 217 219 213
3 220 218 217
3 220 221 222
3 220 222 218
3 223 221 220
3 223 224 221
3 225 226 227
3 225 227 224
3 225 224 223
3 34 32 216
3 228 229 230
3 228 230 226
3 228 226 225
3 231 229 228
3 231 232 229
3 233 232 231
3 233 34 216
3 233 216 232
3 234 34 233
3 234 36 34
3 235 36 234
3 38 36 235
3 236 38 235
3 40 236 237
3 40 38 236
3 42 40 237
3 42 237 238
3 119 211 1
3 119 239 240
3 119 240 241
3 119 241 242
3 119 242 243
3 119 243 244
3 119 244 245
3 119 245 246
3 119 246 247
3 119 247 248
3 119 248 249
3 119 249 250
3 119 250 251
3 119 251 211
3 44 42 238
3 44 238 252
3 46 252 253
3 46 44 252
3 48 253 254
3 48 46 253
3 255 256 257
3 255 258 256
3 259 258 255
3 260 257 256
3 260 256 261
3 262 263 258
3 262 258 259
3 264 260 261
3 264 261 239
3 265 239 119
3 265 264 239
3 266 263 262
3 266 267 263
3 268 267 266
3 269 265 119
3 269 119 117
3 270 269 117
3 271 272 267
3 271 267 268
3 273 117 115
3 273 270 117
3 274 272 271
3 50 254 275
3 50 48 254
3 276 277 272
3 276 272 274
3 278 273 115
3 279 277 276
3 280 278 115
3 280 115 112
3 281 280 112
3 282 283 277
3 282 277 279
3 284 281 112
3 285 283 282
3 286 284 112
3 286 112 110
3 287 283 285
3 287 288 283
3 289 288 287
3 290 286 110
3 291 290 110
3 292 288 289
3 292 293 288
3 294 293 292
3 295 291 110
3 296 293 294
3 296 297 293
3 52 50 275
3 52 275 298
3 299 297 296
3 300 297 299
3 300 301 297
3 108 302 303
3 108 303 304
3 108 304 295
3 108 295 110
3 305 306 301
3 305 301 300
3 307 306 305
3 308 309 306
3 308 306 307
3 310 309 308
3 311 312 309
3 311 309 310
3 54 298 313
3 54 52 298
3 314 312 311
3 314 315 312
3 316 315 314
3 107 317 318
3 107 318 319
3 107 319 320
3 107 320 321
3 107 321 302
3 107 302 108
3 56 313 322
3 56 54 313
3 105 323 324
3 105 324 325
3 105 325 326
3 105 326 327
3 105 327 317
3 105 317 107
3 58 56 322
3 58 322 328
3 102 323 105
3 102 329 330
3 102 330 331
3 102 331 332
3 102 332 333
3 102 333 323
3 60 328 334
3 60 58 328
3 100 329 102
3 100 335 336
3 100 336 337
3 100 337 338
3 100 338 339
3 100 339 329
3 62 334 340
3 62 60 334
3 98 341 342
3 98 342 343
3 98 343 344
3 98 344 345
3 98 345 335
3 98 335 100
3 64 340 346
3 64 62 340
3 96 347 348
3 96 348 349
3 96 349 350
3 96 350 341
3 96 341 98
3 66 64 346
3 66 346 351
3 94 352 353
3 94 353 354
3 94 354 355
3 94 355 347
3 94 347 96
3 68 66 351
3 68 351 356
3 93 357 358
3 93 358 352
3 93 352 94
3 70 356 359
3 70 68 356
3 90 360 361
3 90 361 362
3 90 362 357
3 90 357 93
3 73 359 363
3 73 70 359
3 88 364 365
3 88 365 360
3 88 360 90
3 75 73 363
3 75 363 366
3 87 316 367
3 87 367 364
3 87 364 88
3 76 75 366
3 76 366 368
3 84 315 316
3 84 316 87
3 84 369 315
3 78 76 368
3 78 368 370
3 82 369 84
3 82 371 369
3 80 78 370
3 80 371 82
3 80 370 371
3 0 119 1
3 0 118 119
3 372 13 373
3 374 373 13
3 374 13 15
3 375 13 372
3 376 374 15
3 377 13 375
3 378 376 15
3 379 13 377
3 379 11 13
3 380 378 15
3 381 11 379
3 382 380 15
3 383 11 381
3 384 15 17
3 384 382 15
3 385 11 383
3 385 9 11
3 386 384 17
3 387 9 385
3 388 386 17
3 389 9 387
3 390 388 17
3 391 7 9
3 391 9 389
3 392 390 17
3 393 7 391
3 394 17 19
3 394 392 17
3 395 7 393
3 396 394 19
3 397 5 7
3 397 7 395
3 398 396 19
3 399 5 397
3 400 398 19
3 401 3 5
3 401 5 399
3 402 400 19
3 403 3 401
3 404 0 3
3 404 3 403
3 405 19 21
3 405 402 19
3 406 0 404
3 407 405 21
3 408 407 21
3 409 408 21
3 410 409 21
3 411 410 21
3 411 21 23
3 412 411 23
3 413 412 23
3 414 413 23
3 415 414 23
3 25 415 23
3 25 416 415
3 417 416 25
3 418 417 25
3 419 418 25
3 27 420 419
3 27 421 420
3 27 419 25
3 422 0 423
3 29 421 27
3 29 424 421
3 29 425 424
3 29 426 425
3 427 423 0
3 428 0 422
3 429 427 0
3 429 0 406
3 429 406 430
3 431 0 428
3 432 429 430
3 432 430 433
3 434 0 431
3 435 432 433
3 435 436 437
3 435 433 436
3 438 0 434
3 439 435 437
3 439 440 441
3 439 437 440
3 442 0 438
3 443 439 441
3 443 441 444
3 445 0 442
3 446 443 444
3 446 447 448
3 446 444 447
3 449 0 445
3 450 446 448
3 450 451 452
3 450 448 451
3 453 0 449
3 31 454 426
3 31 455 454
3 31 426 29
3 456 450 452
3 456 457 458
3 456 452 457
3 459 0 453
3 460 456 458
3 460 461 462
3 460 458 461
3 463 0 459
3 464 460 462
3 464 465 466
3 464 462 465
3 33 467 455
3 33 468 467
3 33 455 31
3 469 464 466
3 469 470 471
3 469 466 470
3 472 469 471
3 472 473 474
3 472 471 473
3 475 472 474
3 475 474 476
3 477 478 479
3 477 476 478
3 477 475 476
3 35 468 33
3 480 477 479
3 480 481 482
3 480 479 481
3 483 480 482
3 483 482 484
3 485 484 468
3 485 468 35
3 485 483 484
3 486 35 37
3 486 485 35
3 487 486 37
3 39 487 37
3 488 487 39
3 41 488 39
3 41 489 488
3 43 489 41
3 43 490 489
3 118 0 463
3 118 491 492
3 118 493 491
3 118 494 493
3 118 495 494
3 118 496 495
3 118 497 496
3 118 498 497
3 118 499 498
3 118 500 499
3 118 501 500
3 118 502 501
3 118 503 502
3 118 463 503
3 45 504 490
3 45 490 43
3 47 505 504
3 47 504 45
3 49 506 505
3 49 505 47
3 507 508 509
3 510 508 507
3 511 512 508
3 511 508 510
3 513 507 509
3 514 512 511
3 514 492 512
3 515 513 509
3 515 509 516
3 517 118 492
3 517 492 514
3 518 515 516
3 518 516 519
3 520 518 519
3 521 116 118
3 521 118 517
3 522 116 521
3 523 519 524
3 523 520 519
3 525 114 116
3 525 116 522
3 526 523 524
3 51 527 506
3 51 506 49
3 528 526 524
3 528 524 529
3 530 114 525
3 531 113 114
3 531 114 530
3 532 528 529
3 533 532 529
3 533 529 534
3 535 113 531
3 536 533 534
3 537 113 535
3 538 534 539
3 538 536 534
3 540 111 113
3 540 113 537
3 541 538 539
3 542 111 540
3 543 111 542
3 544 541 539
3 544 539 545
3 546 111 543
3 547 544 545
3 548 547 545
3 548 545 549
3 53 527 51
3 53 550 527
3 551 548 549
3 552 549 553
3 552 551 549
3 109 554 555
3 109 556 554
3 109 546 556
3 109 111 546
3 557 553 558
3 557 552 553
3 559 557 558
3 560 558 561
3 560 559 558
3 562 560 561
3 563 561 564
3 563 562 561
3 55 565 550
3 55 550 53
3 566 563 564
3 566 564 567
3 568 566 567
3 106 569 570
3 106 571 569
3 106 572 571
3 106 573 572
3 106 555 573
3 106 109 555
3 57 574 565
3 57 565 55
3 104 575 576
3 104 577 575
3 104 578 577
3 104 579 578
3 104 570 579
3 104 106 570
3 59 580 574
3 59 574 57
3 103 104 576
3 103 581 582
3 103 583 581
3 103 584 583
3 103 585 584
3 103 576 585
3 61 580 59
3 61 586 580
3 101 103 582
3 101 587 588
3 101 589 587
3 101 590 589
3 101 591 590
3 101 582 591
3 63 586 61
3 63 592 586
3 99 593 594
3 99 595 593
3 99 596 595
3 99 597 596
3 99 588 597
3 99 101 588
3 65 598 592
3 65 592 63
3 97 599 600
3 97 601 599
3 97 602 601
3 97 594 602
3 97 99 594
3 67 598 65
3 67 603 598
3 95 604 605
3 95 606 604
3 95 607 606
3 95 600 607
3 95 97 600
3 69 603 67
3 69 608 603
3 92 609 610
3 92 605 609
3 92 95 605
3 71 608 69
3 71 611 608
3 91 612 613
3 91 614 612
3 91 610 614
3 91 92 610
3 72 611 71
3 72 615 611
3 89 616 617
3 89 613 616
3 89 91 613
3 74 618 615
3 74 615 72
3 86 619 568
3 86 617 619
3 86 89 617
3 77 618 74
3 77 620 618
3 85 86 568
3 85 567 621
3 85 568 567
3 79 620 77
3 79 622 620
3 83 85 621
3 83 621 623
3 81 622 79
3 81 83 623
3 81 623 622
3 424 169 421
3 424 172 169
3 425 172 424
3 425 173 172
3 426 174 173
3 426 173 425
3 454 202 174
3 454 174 426
3 455 203 202
3 455 202 454
3 467 215 203
3 467 203 455
3 468 216 215
3 468 215 467
3 484 216 468
3 484 232 216
3 482 232 484
3 482 229 232
3 481 229 482
3 481 230 229
3 479 230 481
3 479 226 230
3 478 226 479
3 478 227 226
3 476 227 478
3 476 224 227
3 474 224 476
3 474 221 224
3 473 221 474
3 473 222 221
3 471 218 222
3 471 222 473
3 470 219 218
3 470 213 219
3 470 218 471
3 466 213 470
3 465 214 213
3 465 213 466
3 462 209 214
3 462 210 209
3 462 214 465
3 461 210 462
3 458 205 210
3 458 210 461
3 457 206 205
3 457 205 458
3 452 199 206
3 452 206 457
3 451 200 199
3 451 199 452
3 448 195 200
3 448 196 195
3 448 200 451
3 447 196 448
3 444 192 196
3 444 188 192
3 444 196 447
3 441 188 444
3 440 189 188
3 440 188 441
3 437 184 189
3 437 189 440
3 436 184 437
3 436 185 184
3 433 185 436
3 433 181 185
3 430 181 433
3 430 178 181
3 406 178 430
3 406 154 178
3 404 154 406
3 404 152 154
3 403 151 152
3 403 152 404
3 401 149 151
3 401 151 403
3 399 147 149
3 399 149 401
3 397 145 147
3 397 147 399
3 395 143 145
3 395 145 397
3 393 141 143
3 393 143 395
3 391 139 141
3 391 141 393
3 389 137 139
3 389 139 391
3 387 135 137
3 387 137 389
3 385 133 135
3 385 135 387
3 383 131 133
3 383 133 385
3 381 129 131
3 381 131 383
3 379 127 129
3 379 129 381
3 377 125 127
3 377 127 379
3 375 123 125
3 375 125 377
3 372 120 123
3 372 123 375
3 373 121 120
3 373 120 372
3 374 122 121
3 374 121 373
3 376 124 122
3 376 122 374
3 378 126 124
3 378 124 376
3 380 128 126
3 380 126 378
3 382 128 380
3 382 130 128
3 384 130 382
3 384 132 130
3 386 132 384
3 386 134 132
3 388 134 386
3 388 136 134
3 390 136 388
3 390 138 136
3 392 138 390
3 392 140 138
3 394 140 392
3 394 142 140
3 396 142 394
3 396 144 142
3 398 144 396
3 398 146 144
3 400 146 398
3 400 148 146
3 402 148 400
3 402 150 148
3 405 150 402
3 405 153 150
3 407 153 405
3 407 155 153
3 408 155 407
3 408 156 155
3 409 157 156
3 409 156 408
3 410 158 157
3 410 159 158
3 410 157 409
3 411 159 410
3 412 160 159
3 412 159 411
3 413 161 160
3 413 160 412
3 414 162 161
3 414 161 413
3 415 163 162
3 415 162 414
3 416 164 163
3 416 163 415
3 417 165 164
3 417 164 416
3 418 166 165
3 418 165 417
3 419 167 166
3 419 166 418
3 420 167 419
3 420 168 167
3 421 168 420
3 421 169 168
3 586 328 580
3 586 334 328
3 592 334 586
3 592 340 334
3 598 346 340
3 598 340 592
3 603 351 346
3 603 346 598
3 608 356 351
3 608 351 603
3 611 359 356
3 611 356 608
3 615 363 359
3 615 359 611
3 618 363 615
3 618 366 363
3 620 366 618
3 620 368 366
3 622 368 620
3 622 370 368
3 623 370 622
3 623 371 370
3 621 371 623
3 621 369 371
3 567 369 621
3 567 315 369
3 564 315 567
3 564 312 315
3 561 312 564
3 561 309 312
3 558 306 309
3 558 309 561
3 553 301 306
3 553 297 301
3 553 306 558
3 549 297 553
3 545 293 297
3 545 297 549
3 539 288 293
3 539 283 288
3 539 293 545
3 534 283 539
3 529 277 283
3 529 283 534
3 524 272 277
3 524 277 529
3 519 267 272
3 519 272 524
3 516 263 267
3 516 267 519
3 509 258 263
3 509 256 258
3 509 263 516
3 508 256 509
3 512 261 256
3 512 239 261
3 512 256 508
3 492 239 512
3 491 240 239
3 491 239 492
3 493 241 240
3 493 240 491
3 494 241 493
3 494 242 241
3 495 242 494
3 495 243 242
3 496 243 495
3 496 244 243
3 497 244 496
3 497 245 244
3 498 245 497
3 498 246 245
3 499 247 246
3 499 246 498
3 500 248 247
3 500 247 499
3 501 249 248
3 501 248 500
3 502 250 249
3 502 249 501
3 503 251 250
3 503 250 502
3 463 211 251
3 463 251 503
3 459 207 211
3 459 211 463
3 453 201 207
3 453 207 459
3 449 197 201
3 449 201 453
3 445 193 197
3 445 197 449
3 442 190 193
3 442 193 445
3 438 186 190
3 438 190 442
3 434 182 186
3 434 186 438
3 431 179 182
3 431 182 434
3 428 176 179
3 428 179 431
3 422 171 176
3 422 176 428
3 423 170 171
3 423 171 422
3 427 175 170
3 427 170 423
3 429 177 175
3 429 175 427
3 432 180 177
3 432 177 429
3 435 183 180
3 435 180 432
3 439 183 435
3 439 187 183
3 443 187 439
3 443 191 187
3 446 191 443
3 446 194 191
3 450 194 446
3 450 198 194
3 456 198 450
3 456 204 198
3 460 204 456
3 460 208 204
3 464 208 460
3 464 212 208
3 469 212 464
3 469 217 212
3 472 217 469
3 472 220 217
3 475 220 472
3 475 223 220
3 477 223 475
3 477 225 223
3 480 225 477
3 480 228 225
3 483 228 480
3 483 231 228
3 485 231 483
3 485 233 231
3 486 234 233
3 486 233 485
3 487 235 234
3 487 236 235
3 487 234 486
3 488 236 487
3 489 237 236
3 489 236 488
3 490 238 237
3 490 237 489
3 504 252 238
3 504 238 490
3 505 253 252
3 505 252 504
3 506 254 253
3 506 253 505
3 527 275 254
3 527 254 506
3 550 298 275
3 550 275 527
3 565 313 298
3 565 298 550
3 574 313 565
3 574 322 313
3 580 322 574
3 580 328 322
3 609 357 610
3 609 358 357
3 605 358 609
3 605 352 358
3 604 353 352
3 604 352 605
3 606 354 353
3 606 353 604
3 607 355 354
3 607 354 606
3 600 347 355
3 600 355 607
3 599 348 347
3 599 347 600
3 601 348 599
3 601 349 348
3 602 349 601
3 602 350 349
3 594 350 602
3 594 341 350
3 593 341 594
3 593 342 341
3 595 342 593
3 595 343 342
3 596 343 595
3 596 344 343
3 597 344 596
3 597 345 344
3 588 345 597
3 588 335 345
3 587 336 335
3 587 335 588
3 589 337 336
3 589 338 337
3 589 336 587
3 590 338 589
3 591 339 338
3 591 338 590
3 582 329 339
3 582 330 329
3 582 339 591
3 581 330 582
3 583 331 330
3 583 330 581
3 584 332 331
3 584 331 583
3 585 333 332
3 585 332 584
3 576 323 333
3 576 333 585
3 575 324 323
3 575 325 324
3 575 323 576
3 577 325 575
3 578 326 325
3 578 327 326
3 578 325 577
3 579 327 578
3 570 317 327
3 570 327 579
3 569 318 317
3 569 317 570
3 571 318 569
3 571 319 318
3 572 319 571
3 572 320 319
3 573 320 572
3 573 321 320
3 555 321 573
3 555 302 321
3 554 302 555
3 554 303 302
3 556 304 303
3 556 303 554
3 546 295 304
3 546 304 556
3 543 291 295
3 543 295 546
3 542 290 291
3 542 291 543
3 540 286 290
3 540 290 542
3 537 284 286
3 537 286 540
3 535 281 284
3 535 284 537
3 531 280 281
3 531 281 535
3 530 278 280
3 530 280 531
3 525 273 278
3 525 278 530
3 522 270 273
3 522 273 525
3 521 269 270
3 521 270 522
3 517 265 269
3 517 269 521
3 514 264 265
3 514 265 517
3 511 260 264
3 511 264 514
3 510 257 260
3 510 260 511
3 507 255 257
3 507 257 510
3 513 259 255
3 513 255 507
3 515 262 259
3 515 259 513
3 518 266 262
3 518 262 515
3 520 268 266
3 520 266 518
3 523 268 520
3 523 271 268
3 526 271 523
3 526 274 271
3 528 274 526
3 528 276 274
3 532 276 528
3 532 279 276
3 533 279 532
3 533 282 279
3 536 282 533
3 536 285 282
3 538 285 536
3 538 287 285
3 541 287 538
3 541 289 287
3 544 289 541
3 544 292 289
3 547 292 544
3 547 294 292
3 548 294 547
3 548 296 294
3 551 296 548
3 551 299 296
3 552 299 551
3 552 300 299
3 557 300 552
3 557 305 300
3 559 307 305
3 559 305 557
3 560 308 307
3 560 310 308
3 560 307 559
3 562 310 560
3 563 311 310
3 563 310 562
3 566 314 311
3 566 311 563
3 568 316 314
3 568 314 566
3 619 367 316
3 619 316 568
3 617 364 367
3 617 367 619
3 616 365 364
3 616 364 617
3 613 360 365
3 613 365 616
3 612 361 360
3 612 360 613
3 614 361 612
3 614 362 361
3 610 362 614
3 610 357 362
